<?xml version="1.0" encoding="utf-8"?>
<!-- Generator: Adobe Illustrator 23.0.1, SVG Export Plug-In . SVG Version: 6.00 Build 0)  -->
<svg version="1.1" id="Layer_1" xmlns="http://www.w3.org/2000/svg" xmlns:xlink="http://www.w3.org/1999/xlink" x="0px" y="0px"
	 viewBox="0 0 566.9 566.9" style="enable-background:new 0 0 566.9 566.9;" xml:space="preserve">
<path d="M513,483.5c-34.6-38.2-47.1-90.9-59.3-139.5c-7.7-30.7-13.4-61.9-18.1-93.2c-2.3-15.2-3.9-30.4-5.7-45.7
	c-0.9-7.6-1.7-15.2-2.6-22.7c-0.8-7.4-0.2-16.2-3.3-23c-0.1-0.2-0.2-0.4-0.4-0.6c0.5,0,1,0.1,1.4,0.1c4.1,0.4,7.9-2.9,8-7
	c0.1-3.7-0.3-7.6-1.6-11.1c-0.3-0.8-0.8-1.4-1.5-1.9c1,0,2,0,3,0c1.7,0,3.2-0.8,4.4-1.9c6.6-1.9,12.5-11.3,6.2-15.4l0,0
	c-0.3-0.7-0.6-1.5-0.8-2.3c-0.7-2.2-0.2-0.6-0.5-2.5c-0.3-1.8-0.5-3.7-0.6-5.5c-0.7-8.5-0.5-17-0.2-25.4c0.5-16.1,2-32.2,3.3-48.3
	c0.6-8.1-0.7-15.8-5.5-22.4c-4.5-6.3-13.1-9.1-20.4-10.4c-17.4-3-35.2,1.5-52.6,2.3c-38.9,1.8-77.9,1.7-116.9,2
	c-19.2,0.2-38.4,0.3-57.6,0.4c-9.9,0.1-19.9,0.3-29.8,0.5c-9.5,0.2-19.4,0.4-28.6,2.8c-1.1,0.3-2,1.8-1.2,2.6
	c-8.4-4.5-22.1,1.9-29.4,6.1c-7,4-13.5,8.9-19.8,13.9c-5,4-9.8,7.7-13,13.3c-1.5,2.5,1.5,3.8,3.5,2.8c4.7-2.5,8.5-5.9,12.7-9.2
	c5.6-4.3,11.4-8.3,17.6-11.8c5.1-2.9,10.8-5.7,16.7-6.2c6-0.4,6.6,4.6,6.9,9.4c0.4,7.8-0.7,15.8-1.3,23.6
	c-0.7,9.2-0.4,18.3-0.2,27.6c0.7,22.3,1.9,44.5,1.8,66.8c0,8.4,11.6,5.9,15.8-0.1c1.1,0,2.2-0.1,3.3-0.2c6-0.6,12-1.3,17.9-2
	c12.8-1.6,25.7-2.8,38.5-4c26.2-2.5,52.4-4,78.7-5c47-1.8,94-1.1,141-1.3c-0.9,0.2-1.7,0.3-2.6,0.3c-4.2,0.1-8.6,6.3-4.5,9.3
	c-7.8-0.2-15.7-0.9-23.4-0.8c-13,0.1-26,0.5-39,0.9c-25.6,0.9-51.2,2.2-76.7,3.7c-23.5,1.4-46.9,2.9-70.3,3.8
	c-11.5,0.4-23,1-34.4,2.3c-9,1-19.2,2-27.6,6c-1.4-0.5-3.7,0.5-4.5,1.6c-7,9.7-7.8,22.9-8.4,34.5c-0.6,13,0.3,26.1,1.3,39.1
	c1.2,15.8,1.5,31.8,2.5,47.7c1.1,16.3,2.6,32.5,4.6,48.7c4,31.8,10.6,63.1,17.9,94.2c3.6,15.4,7.3,30.7,11.3,46.1
	c3.1,12.2,7,24.3,12.8,35.5c0.9,1.8,1.9,3.6,2.9,5.5c-0.1,0.4-0.1,0.7-0.1,1.1c-0.5,0.1-0.9,0.2-1.4,0.4c-5.7,1.5-11.5,2.9-17.2,4.2
	c-0.5,0.1-1.1,0.2-1.6,0.4c0.3-1.9,0-4.1-0.6-5.8c-2.6-7.8-6.3-15.3-9.4-22.8c-4.5-10.8-6.9-22.4-9.3-33.9
	c-3.5-16.3-6.4-32.7-8.9-49.3c-4.9-32-9.6-64-14.7-95.9c-5.1-32-7.2-64.4-8.4-96.7c-1.7-46.7-0.8-93.6-4.6-140.2
	c-0.2-2.4-3.7-0.7-3.6,1.2c0.5,65.2-1.4,130.8,3.5,195.9c2.5,32.2,7.8,64.2,12.4,96.1c4.6,32.4,9.1,64.7,15.7,96.8
	c2.5,12.1,5.1,23.8,9.7,35.2c1.8,4.6,3.7,9.1,5.5,13.7c0.7,1.9,1.4,3.7,2,5.6c0.2,0.6,0.4,1.1,0.7,1.7c0,0.2-0.1,0.3-0.1,0.5
	c-7.9,1.7-15.7,3.3-23.6,5.1c-0.6,0.1-1.1,0.3-1.7,0.4c-0.4-2.2-1.4-4.4-1.9-6.2c-1.5-6-2.3-12.2-3.1-18.3
	c-1.4-11.5-2.9-23-4.5-34.5c-3.1-22.1-6.4-44.1-9.5-66.2c-3.1-21.9-6-43.8-8.2-65.9c-2.3-22.3-3.2-44.7-4.5-67.1
	c0-0.5-0.7-0.1-0.7,0.2c-2.2,44.1,2.8,88.8,8.1,132.5c2.6,21.5,5.7,43,8.5,64.5c1.4,10.9,3,21.8,4,32.7c0.9,9.5,1.8,19.2,4.2,28.5
	c-0.3,0.5-0.4,1.1-0.3,1.6c-8.1,2-16.1,4.3-24,7.2c-9.9,3.6-20.7,8-28,15.8c-2.5,2.7-1.6,5.1,0.4,6.3c-0.1,0.3,0,0.6,0.4,0.6
	c13.3,1.4,27.3-1.1,40.5-2.3c14.9-1.3,29.8-2.8,44.7-4.2c29.3-2.8,58.6-5.6,87.9-8.1c29.3-2.4,58.7-4.5,88.1-5.8
	c15-0.7,30-1.2,45-1.4c12.6-0.2,25.4,0.7,37.9,0.1c0.8,0,1.5-0.3,2.1-0.7l0,0c6.4-1.1,12.2-3.5,18.2-5.9c9.4-3.9,18.8-7.9,28.1-12
	c8.6-3.8,17.1-7.7,25.5-11.8c2.3-1.1,4.5-2.3,6.7-3.6c2.4-0.2,4.9-0.4,7.4-0.6c5.1-0.4,9.9-4.7,11-9.6c0.3-1.6,0.2-3-0.3-4.3
	C514.9,489.7,515.5,486.3,513,483.5z M443.3,121.3C443.2,121,443.1,120.9,443.3,121.3L443.3,121.3z M284.1,129.7
	c-26.3,1.1-52.6,2.9-78.8,5.5c-12.9,1.3-25.8,3-38.7,4.8c-6.1,0.9-12.1,2-18.2,3.2c-1.2,0.2-2.4,0.5-3.6,0.8
	c-0.1-23.5-1.3-46.9-2.7-70.3c-0.5-9.2-0.7-18.2-0.6-27.3c0.1-8.3-1-16.9-4.1-24.6c-1.2-2.8-2.8-4.8-4.9-6
	c6.8,2.1,14.3,2.5,21.5,2.7c8.5,0.2,17,0.5,25.6,0.7c16.4,0.4,32.9,0.5,49.4,0.7c33,0.3,65.9,0.5,98.9,0.2c14-0.1,28.1,0.1,42.1-0.9
	c8.9-0.6,17.7-1.5,26.6-1.7c7.5-0.2,15.6,0.1,22.5,3.3c6.5,3,8.8,9.8,9.1,16.7c0.1,1.4,0,2.8-0.1,4.2c0,0.3-0.1,0.9-0.1,1
	c-0.1,0.9-0.2,1.8-0.2,2.8c-0.4,4-0.7,8.1-1.1,12.1c-0.9,10.8-1.8,21.7-2.3,32.5c-0.4,9.4-0.7,18.9,0.1,28.3
	c0.3,2.8,0.6,6.1,1.4,9.2C378.6,127.3,331.3,127.7,284.1,129.7z M175.8,432.7c-3.8-15.5-7.5-31-10.8-46.6
	c-6.8-31.7-10.9-63.8-13.9-96c-1.5-16.1-2.5-32.3-3.7-48.5c-0.9-12.9-2.7-25.8-3.5-38.8c-0.7-11.4,0.5-22.5,1.2-33.8
	c8.9-0.3,18-2.6,26.8-3.4c10.8-0.9,21.7-1.2,32.6-1.4c23.4-0.5,46.8-1.8,70.2-3.1c24.9-1.4,49.8-2.6,74.7-3.2
	c23.8-0.6,47.9-1.4,71.7,0.6c-1,0.5-2,1.6-2.2,2.5c-2,7.2-1,15.1-1,22.4c0,7.8,0.2,15.6,0.5,23.4c0.6,16.1,2,32.3,3.6,48.3
	c3.2,32.2,8.6,64.1,15.9,95.6c10.7,46.5,23.1,97.2,53,135.7c-0.2,0.9-0.2,1.8,0,2.7c0.1,0.4,0.3,0.8,0.4,1.2
	c-7.7,1.1-15.4,2.3-23.2,3.1c-12.8,1.4-25.6,2.8-38.4,4.2c-26.8,3-53.5,6.2-80.2,9.2c-26,2.9-52.1,5.6-78.1,8
	c-12.7,1.1-25.4,2.2-38.1,3.1c-8.5,0.6-17,1-25.5,1.6c0.1-1,0-2-0.4-3c-0.6-1.7-1.9-2.7-3.4-3.3c-0.3-2.5-1.5-4.9-3-7.2
	c-1.7-2.5-4.9-6.1-5.6-7.7c-3-6.8-5.8-13.6-8-20.7C182.8,463,179.5,447.8,175.8,432.7z M459.2,513.6c-13.9,6.3-28.7,11.4-42.1,18.8
	c-0.3,0-0.7-0.1-1.1,0c0,0,0,0-0.1,0c-11.3-0.5-22.8,0.2-34.1,0.4c-15,0.3-30.1,0.9-45.1,1.7c-30.2,1.6-60.3,4.1-90.3,7
	c-29.4,2.9-58.8,6.1-88.2,9.4c-15,1.6-29.9,3.3-44.9,4.9c-10.4,1.1-21.2,1.6-31.6,3.3c6-2.9,12-5.8,18.5-7.9
	c10.5-3.4,21.3-5.8,32.1-7.9c11.2-2.2,22.5-4.2,33.8-6.4c5.5-1.1,11.1-2.2,16.5-3.4c2.1-0.5,4.4-1.2,6.6-1.9
	c0.4,0.2,0.8,0.3,1.3,0.3c24.6,1.2,49.8-1.6,74.4-3.5c26.6-2,53.2-4.6,79.7-7.1c26.7-2.6,53.3-5.3,80-7.9
	c12.8-1.2,25.5-2.5,38.3-3.6c2-0.2,4-0.4,6-0.6C465.7,510.6,462.4,512.1,459.2,513.6z"/>
<path d="M68.7,53.4c1.9-2.3-0.5-4.8-2.9-3.3c-6.6,3.8-8.8,10.5-10.9,17.4c-2.8,8.9-2.8,19-2.7,28.2c0.1,18.9,2.6,37.7,3.6,56.6
	c1.7,33.1-0.8,66.3-1.5,99.4c-0.7,32.9,1.8,65.7,2.8,98.6c1,32.7,1.5,65.5,2,98.3c0.2,16.3,0.5,32.6,0.8,48.9
	c0.2,8.4,0.4,16.8,0.5,25.3c0.1,5.7,0.5,11.6,0.4,17.4c-3.3,2.1-5.6,6.5-3.1,9.7c2.1,2.6,3.1,4.5,6.7,5.3
	c6.5,1.4,12.4-5.8,11.1-11.8c-1.6-7.3-1.1-15.5-1.3-23c-0.3-8.4-0.5-16.8-0.6-25.2c-0.4-16.3-0.7-32.5-1.1-48.8
	c-0.8-32.7-1.6-65.3-2.8-98c-1.2-32.8-3.9-65.5-3.6-98.3c0.3-33,2.3-66,0.6-99.1c-0.9-17.5-3.3-34.8-4-52.3
	c-0.4-8.9-0.5-17.9,0.5-26.8C63.8,65.6,64.5,58.4,68.7,53.4z"/>
<path d="M107.8,61.3c0.6,0.9,1.5,1.3,2.6,0.9c10.7-3.9,5.7-19-0.3-24.7c-1.4-1.3-3.2-1-4.7-0.3c-4.5,2.3-40.2,27-34.2,31.6
	c0.4,0.3,1.3-0.5,0.9-0.9S86,56.6,87.2,55.7c5.4-3.8,11.2-7.7,17.3-10.5c1.6,2.4,2.6,5,3,8C107.7,56,106.3,58.9,107.8,61.3z"/>
<path d="M191.7,55.4c-10,0-18,13.9-17.6,22.8c0.5,11.3,12.7,15.7,22.3,15.5c12.8-0.3,23.9-10.8,24.4-23.6
	C221.3,56.6,202.2,48.3,191.7,55.4z M199.4,79.9c-3.9,0.4-9.4-1-11.2-4.9c-1.5-3.2-0.7-6.2,1.1-8.6c0.2,0.1,0.3,0.2,0.5,0.3
	c3.1,1.7,6.7,0.8,10.1,1.6c2.5,0.6,4.7,2.8,5.7,5.1C207.5,77.9,203,79.6,199.4,79.9z"/>
<path d="M395.9,51.7c-7.6-1.8-20.1,0.5-24.2,7.7c-5.1,3.7-8.9,10.3-9.9,15.6c-1.6,8.6,3.8,15.7,11.7,18.3c12.2,4,23.8-6.5,29.6-16.1
	C408.7,67.8,408.1,54.6,395.9,51.7z M370.9,65c0.1,0.1,0.1,0.3,0.2,0.4C370.9,65.1,370.9,65,370.9,65z M390.7,72
	c0,0.1,0,0.1-0.1,0.2c-0.3,0.7-0.6,1.3-0.9,1.9c-0.1,0.1-0.2,0.3-0.3,0.5c-0.3,0.5-0.6,0.9-1,1.4c-0.1,0.2-0.3,0.4-0.5,0.6
	c-0.2,0.3-0.8,0.9-1.1,1.1c-0.4,0.3-0.8,0.7-1.2,1c0,0-0.1,0-0.1,0.1c-0.5,0.3-0.9,0.5-1.4,0.8c-0.1,0-0.3,0.1-0.6,0.2
	c-0.1,0-0.5,0.1-0.7,0.2c-0.5,0.1-1,0.1-1.5,0.1c1.8-0.1-2.6-0.7-1.5-0.3c-5.7-2.2-6.2-7.1-4.3-11.7c0.4,0,0.8,0.1,1.2,0
	c4.4-0.2,6.7-1.4,10.7-1.5c-0.4,0,1.1,0.2,1.9,0.3c0.2,0.1,0.5,0.2,0.6,0.2c0.1,0.1,0.2,0.1,0.3,0.1l0,0c0.3,0.3,0.4,0.4,0.6,0.5
	c0,0.1,0,0.3,0.2,0.8l0,0c0,0.4,0.1,0.8,0.1,1.1C391.1,68.8,390.8,71.1,390.7,72z"/>
<path d="M-103.2,663c0.1-0.3,0.1-0.6,0.2-0.9"/>
<path d="M-99.6,469.1c1.7-3.9,0.9-8.7-2.1-13.4l0,0"/>
<path d="M324.1,243.5c-4.3-7.6-9.1-15.8-16.5-20.8c-7-4.8-15.6-5.6-23.4-8.4c-3.5-1.3-2.7,3.2-2.1,5.1c0.7,2.1,2.2,4.3,3.9,6.1
	c-8.8,7.4-11.9,22-11.9,32.4c0,15.2,2.8,30.8,16.3,40.1c11,7.5,31,6.9,36.6-7C332.9,276.4,331.8,257.2,324.1,243.5z M318.8,269.9
	c-1.1,6.8-2.8,13.5-9.4,16.7c-6.1,2.9-14.4,3.8-20.4,0.2c-4.6-2.8-4-10.7-3.9-15.4c-0.1-7.4,0.1-14.4,3.3-21.1
	c2.6-5.6,6-12.7,12.6-14.6c1.6-0.5,1.9-2.1,1.5-4c1.7,0.5,3.4,1.1,4.9,1.8c5.4,2.4,9.6,9.9,11.2,15.3
	C320.5,255.2,319.8,263.2,318.8,269.9z"/>
<path d="M402.8,304.8c-1.9-2.7-3.2-7-4.3-9.5c-1.9-4.2-3.6-8.5-4.9-13c-2.4-8.4-2.8-17-2.9-25.6c-0.3-12.3,0.9-35.7-12.2-42.4
	c-5.6-2.9-13-0.6-17.7,3.1c-5.3,4.2-6.2,11.4-7.4,17.7c-0.6-4.3-1.1-8.7-1.7-13c-0.5-4-15.5,0.4-14.8,5.9
	c2.9,22.3,5.8,44.6,8.7,66.9c0.5,4.2,14.8-0.7,14.9-4.9c0.2-16.1,2.5-32,5.6-47.8c0.8-4,1.6-7.9,2.5-11.8c0.2-1,0.7-2.4,1.1-3.7
	c0.4,0.6,0.7,1.1,0.8,1.2c0.9,1.8,1.6,3.6,2.2,5.5c1.1,3.3,1.8,6.8,2.2,10.3c1.8,14.4-0.2,29.2,3.7,43.4c2,7.3,5.2,14.3,8.5,21.1
	c2.7,5.5,4.7,7.8,11.1,5.8c2.7-0.8,7.6-2.6,8.2-5.9c0.1-0.3,0.1-0.7,0.2-1C406.8,305.3,405.1,304.7,402.8,304.8z M366.9,223
	L366.9,223L366.9,223z"/>
<path d="M265.8,288.9c-1.8-7.4-3.7-15-4.5-22.6c-0.2-2.4-0.4-4.9-0.5-7.6c-0.6-11.3-1.3-24.2-11.4-32.5c-0.9-0.7-4.1-3.1-6.7-2.5
	c-1.2,0.3-2.1,1-2.6,2.2c-3.3,7.4-7.5,27.9-10.9,44.3c-0.6,2.7-1.1,5.5-1.7,8c-0.2-4.1-0.4-8.7-0.6-12.4c-0.2-5.6-0.4-10.5-0.7-13.3
	c-0.1-0.9-0.1-1.8-0.2-2.7c-0.4-5.8-0.9-11.8-3.3-17.4c-1.1-2.6-5.1-10.9-11.9-11.1c-5.8-0.2-8.2,6.8-9.4,10.6
	c-0.1,0.3-0.2,0.7-0.3,0.9c-2,5.8-2.9,11.8-3.7,17.7c-1.1-3.3-2-6.8-2.1-10c-0.1-3-1.9-6.1-4.4-7.6c-1-0.6-3.7-2-5.6-0.8
	c-1,0.6-1.6,1.7-1.6,3.1c0.1,6.9,2,13.7,3.8,20.3c1.3,4.7,2.6,9.5,3.2,14.2c1.2,9.3,4.4,34.9,4.5,36.4c0,2.7,2.6,8.1,6.4,8.9
	c2.1,0.4,5-0.2,7.3-5.8l0.2-0.4v-0.5c-0.5-13.5-0.1-26.8,1.2-39.5c0.5-4.9,1.1-10.3,2.1-15.8c0,0.5,0.1,1.1,0.1,1.7
	c1,20.3,2.5,40.1,7.2,47.3c1,1.5,4.7,5.5,8.2,5.6c1.5,0,2.8-0.7,3.7-1.9c4.2-6,8.1-22.3,11.8-38c1.1-4.7,2.2-9.3,3.2-13.2
	c0.4,5.3,1,10.9,2,16.4c0.9,4.6,2,9.2,3.1,13.7c1.9,7.7,3.9,15.7,4.5,23.6c0.3,3.6,3.4,7.2,6.2,8.8c0.7,0.4,2.7,1.4,4.5,1.3
	c0.7,0,1.3-0.2,1.9-0.6c0.7-0.4,1.7-1.4,1.6-3.6C269.9,305.5,267.8,297,265.8,288.9z"/>
<path d="M383.6,446.7h-0.1c-12.6,0.1-25.1,1-37.5,2.7c-2.9-19.2-3.1-38.8-3.3-57.9c-0.1-13.5-0.3-27.5-1.4-41.3l-0.1-1.5
	c-0.1-0.7-0.1-1.3-0.2-2c-0.3-3.5-2.7-6.6-6-7.7c-3.1-1.1-6.3-0.3-8.5,2.1c-0.3,0.4-0.7,0.7-1,1.1l-1.7,1.8
	c-14.1,15.1-27,31.5-38.4,48.8c-1.7,2.5-1.9,5.4-0.6,7.9c1.4,2.7,4.3,4.6,7.5,4.8c3.1,0.2,5.8-1.2,7.6-3.9l0,0
	c7.7-11.8,16.3-23.1,25.4-33.9c0.3,8.2,0.4,16.5,0.5,24.6c0.3,19.6,0.5,39.8,3.5,59.7c-11.6,2.2-23,4.9-34.3,8.4
	c-3,0.9-5.1,3.1-5.8,6.1c-0.7,3.1,0.3,6.5,2.6,8.6c1.5,1.4,3.3,2.1,5.3,2.1c0.8,0,1.7-0.1,2.6-0.4c27.3-8.3,55.5-12.7,83.9-13
	c4.8-0.1,8.4-3.8,8.3-8.7S388.3,446.7,383.6,446.7z"/>
</svg>
