<?xml version="1.0" encoding="UTF-8" standalone="no"?>
<!DOCTYPE svg PUBLIC "-//W3C//DTD SVG 1.1//EN" "http://www.w3.org/Graphics/SVG/1.1/DTD/svg11.dtd">
<svg width="100%" height="100%" viewBox="0 0 567 567" version="1.1" xmlns="http://www.w3.org/2000/svg" xmlns:xlink="http://www.w3.org/1999/xlink" xml:space="preserve" xmlns:serif="http://www.serif.com/" style="fill-rule:evenodd;clip-rule:evenodd;stroke-linejoin:round;stroke-miterlimit:2;">
    <g>
        <path d="M513,483.5C478.4,445.3 465.9,392.6 453.7,344C446,313.3 440.3,282.1 435.6,250.8C433.3,235.6 431.7,220.4 429.9,205.1C429,197.5 428.2,189.9 427.3,182.4C426.5,175 427.1,166.2 424,159.4C423.9,159.2 423.8,159 423.6,158.8C424.1,158.8 424.6,158.9 425,158.9C429.1,159.3 432.9,156 433,151.9C433.1,148.2 432.7,144.3 431.4,140.8C431.1,140 430.6,139.4 429.9,138.9L432.9,138.9C434.6,138.9 436.1,138.1 437.3,137C443.9,135.1 449.8,125.7 443.5,121.6C443.2,120.9 442.9,120.1 442.7,119.3C442,117.1 442.5,118.7 442.2,116.8C441.9,115 441.7,113.1 441.6,111.3C440.9,102.8 441.1,94.3 441.4,85.9C441.9,69.8 443.4,53.7 444.7,37.6C445.3,29.5 444,21.8 439.2,15.2C434.7,8.9 426.1,6.1 418.8,4.8C401.4,1.8 383.6,6.3 366.2,7.1C327.3,8.9 288.3,8.8 249.3,9.1C230.1,9.3 210.9,9.4 191.7,9.5C181.8,9.6 171.8,9.8 161.9,10C152.4,10.2 142.5,10.4 133.3,12.8C132.2,13.1 131.3,14.6 132.1,15.4C123.7,10.9 110,17.3 102.7,21.5C95.7,25.5 89.2,30.4 82.9,35.4C77.9,39.4 73.1,43.1 69.9,48.7C68.4,51.2 71.4,52.5 73.4,51.5C78.1,49 81.9,45.6 86.1,42.3C91.7,38 97.5,34 103.7,30.5C108.8,27.6 114.5,24.8 120.4,24.3C126.4,23.9 127,28.9 127.3,33.7C127.7,41.5 126.6,49.5 126,57.3C125.3,66.5 125.6,75.6 125.8,84.9C126.5,107.2 127.7,129.4 127.6,151.7C127.6,160.1 139.2,157.6 143.4,151.6C144.5,151.6 145.6,151.5 146.7,151.4C152.7,150.8 158.7,150.1 164.6,149.4C177.4,147.8 190.3,146.6 203.1,145.4C229.3,142.9 255.5,141.4 281.8,140.4C328.8,138.6 375.8,139.3 422.8,139.1C421.9,139.3 421.1,139.4 420.2,139.4C416,139.5 411.6,145.7 415.7,148.7C407.9,148.5 400,147.8 392.3,147.9C379.3,148 366.3,148.4 353.3,148.8C327.7,149.7 302.1,151 276.6,152.5C253.1,153.9 229.7,155.4 206.3,156.3C194.8,156.7 183.3,157.3 171.9,158.6C162.9,159.6 152.7,160.6 144.3,164.6C142.9,164.1 140.6,165.1 139.8,166.2C132.8,175.9 132,189.1 131.4,200.7C130.8,213.7 131.7,226.8 132.7,239.8C133.9,255.6 134.2,271.6 135.2,287.5C136.3,303.8 137.8,320 139.8,336.2C143.8,368 150.4,399.3 157.7,430.4C161.3,445.8 165,461.1 169,476.5C172.1,488.7 176,500.8 181.8,512C182.7,513.8 183.7,515.6 184.7,517.5C184.6,517.9 184.6,518.2 184.6,518.6C184.1,518.7 183.7,518.8 183.2,519C177.5,520.5 171.7,521.9 166,523.2C165.5,523.3 164.9,523.4 164.4,523.6C164.7,521.7 164.4,519.5 163.8,517.8C161.2,510 157.5,502.5 154.4,495C149.9,484.2 147.5,472.6 145.1,461.1C141.6,444.8 138.7,428.4 136.2,411.8C131.3,379.8 126.6,347.8 121.5,315.9C116.4,283.9 114.3,251.5 113.1,219.2C111.4,172.5 112.3,125.6 108.5,79C108.3,76.6 104.8,78.3 104.9,80.2C105.4,145.4 103.5,211 108.4,276.1C110.9,308.3 116.2,340.3 120.8,372.2C125.4,404.6 129.9,436.9 136.5,469C139,481.1 141.6,492.8 146.2,504.2C148,508.8 149.9,513.3 151.7,517.9C152.4,519.8 153.1,521.6 153.7,523.5C153.9,524.1 154.1,524.6 154.4,525.2C154.4,525.4 154.3,525.5 154.3,525.7C146.4,527.4 138.6,529 130.7,530.8C130.1,530.9 129.6,531.1 129,531.2C128.6,529 127.6,526.8 127.1,525C125.6,519 124.8,512.8 124,506.7C122.6,495.2 121.1,483.7 119.5,472.2C116.4,450.1 113.1,428.1 110,406C106.9,384.1 104,362.2 101.8,340.1C99.5,317.8 98.6,295.4 97.3,273C97.3,272.5 96.6,272.9 96.6,273.2C94.4,317.3 99.4,362 104.7,405.7C107.3,427.2 110.4,448.7 113.2,470.2C114.6,481.1 116.2,492 117.2,502.9C118.1,512.4 119,522.1 121.4,531.4C121.1,531.9 121,532.5 121.1,533C113,535 105,537.3 97.1,540.2C87.2,543.8 76.4,548.2 69.1,556C66.6,558.7 67.5,561.1 69.5,562.3C69.4,562.6 69.5,562.9 69.9,562.9C83.2,564.3 97.2,561.8 110.4,560.6C125.3,559.3 140.2,557.8 155.1,556.4C184.4,553.6 213.7,550.8 243,548.3C272.3,545.9 301.7,543.8 331.1,542.5C346.1,541.8 361.1,541.3 376.1,541.1C388.7,540.9 401.5,541.8 414,541.2C414.8,541.2 415.5,540.9 416.1,540.5C422.5,539.4 428.3,537 434.3,534.6C443.7,530.7 453.1,526.7 462.4,522.6C471,518.8 479.5,514.9 487.9,510.8C490.2,509.7 492.4,508.5 494.6,507.2C497,507 499.5,506.8 502,506.6C507.1,506.2 511.9,501.9 513,497C513.3,495.4 513.2,494 512.7,492.7C514.9,489.7 515.5,486.3 513,483.5ZM443.3,121.3C443.2,121 443.1,120.9 443.3,121.3ZM284.1,129.7C257.8,130.8 231.5,132.6 205.3,135.2C192.4,136.5 179.5,138.2 166.6,140C160.5,140.9 154.5,142 148.4,143.2C147.2,143.4 146,143.7 144.8,144C144.7,120.5 143.5,97.1 142.1,73.7C141.6,64.5 141.4,55.5 141.5,46.4C141.6,38.1 140.5,29.5 137.4,21.8C136.2,19 134.6,17 132.5,15.8C139.3,17.9 146.8,18.3 154,18.5C162.5,18.7 171,19 179.6,19.2C196,19.6 212.5,19.7 229,19.9C262,20.2 294.9,20.4 327.9,20.1C341.9,20 356,20.2 370,19.2C378.9,18.6 387.7,17.7 396.6,17.5C404.1,17.3 412.2,17.6 419.1,20.8C425.6,23.8 427.9,30.6 428.2,37.5C428.3,38.9 428.2,40.3 428.1,41.7C428.1,42 428,42.6 428,42.7C427.9,43.6 427.8,44.5 427.8,45.5C427.4,49.5 427.1,53.6 426.7,57.6C425.8,68.4 424.9,79.3 424.4,90.1C424,99.5 423.7,109 424.5,118.4C424.8,121.2 425.1,124.5 425.9,127.6C378.6,127.3 331.3,127.7 284.1,129.7ZM175.8,432.7C172,417.2 168.3,401.7 165,386.1C158.2,354.4 154.1,322.3 151.1,290.1C149.6,274 148.6,257.8 147.4,241.6C146.5,228.7 144.7,215.8 143.9,202.8C143.2,191.4 144.4,180.3 145.1,169C154,168.7 163.1,166.4 171.9,165.6C182.7,164.7 193.6,164.4 204.5,164.2C227.9,163.7 251.3,162.4 274.7,161.1C299.6,159.7 324.5,158.5 349.4,157.9C373.2,157.3 397.3,156.5 421.1,158.5C420.1,159 419.1,160.1 418.9,161C416.9,168.2 417.9,176.1 417.9,183.4C417.9,191.2 418.1,199 418.4,206.8C419,222.9 420.4,239.1 422,255.1C425.2,287.3 430.6,319.2 437.9,350.7C448.6,397.2 461,447.9 490.9,486.4C490.7,487.3 490.7,488.2 490.9,489.1C491,489.5 491.2,489.9 491.3,490.3C483.6,491.4 475.9,492.6 468.1,493.4C455.3,494.8 442.5,496.2 429.7,497.6C402.9,500.6 376.2,503.8 349.5,506.8C323.5,509.7 297.4,512.4 271.4,514.8C258.7,515.9 246,517 233.3,517.9C224.8,518.5 216.3,518.9 207.8,519.5C207.9,518.5 207.8,517.5 207.4,516.5C206.8,514.8 205.5,513.8 204,513.2C203.7,510.7 202.5,508.3 201,506C199.3,503.5 196.1,499.9 195.4,498.3C192.4,491.5 189.6,484.7 187.4,477.6C182.8,463 179.5,447.8 175.8,432.7ZM459.2,513.6C445.3,519.9 430.5,525 417.1,532.4C416.8,532.4 416.4,532.3 416,532.4L415.9,532.4C404.6,531.9 393.1,532.6 381.8,532.8C366.8,533.1 351.7,533.7 336.7,534.5C306.5,536.1 276.4,538.6 246.4,541.5C217,544.4 187.6,547.6 158.2,550.9C143.2,552.5 128.3,554.2 113.3,555.8C102.9,556.9 92.1,557.4 81.7,559.1C87.7,556.2 93.7,553.3 100.2,551.2C110.7,547.8 121.5,545.4 132.3,543.3C143.5,541.1 154.8,539.1 166.1,536.9C171.6,535.8 177.2,534.7 182.6,533.5C184.7,533 187,532.3 189.2,531.6C189.6,531.8 190,531.9 190.5,531.9C215.1,533.1 240.3,530.3 264.9,528.4C291.5,526.4 318.1,523.8 344.6,521.3C371.3,518.7 397.9,516 424.6,513.4C437.4,512.2 450.1,510.9 462.9,509.8C464.9,509.6 466.9,509.4 468.9,509.2C465.7,510.6 462.4,512.1 459.2,513.6Z" style="fill-rule:nonzero;"/>
        <path d="M68.7,53.4C70.6,51.1 68.2,48.6 65.8,50.1C59.2,53.9 57,60.6 54.9,67.5C52.1,76.4 52.1,86.5 52.2,95.7C52.3,114.6 54.8,133.4 55.8,152.3C57.5,185.4 55,218.6 54.3,251.7C53.6,284.6 56.1,317.4 57.1,350.3C58.1,383 58.6,415.8 59.1,448.6C59.3,464.9 59.6,481.2 59.9,497.5C60.1,505.9 60.3,514.3 60.4,522.8C60.5,528.5 60.9,534.4 60.8,540.2C57.5,542.3 55.2,546.7 57.7,549.9C59.8,552.5 60.8,554.4 64.4,555.2C70.9,556.6 76.8,549.4 75.5,543.4C73.9,536.1 74.4,527.9 74.2,520.4C73.9,512 73.7,503.6 73.6,495.2C73.2,478.9 72.9,462.7 72.5,446.4C71.7,413.7 70.9,381.1 69.7,348.4C68.5,315.6 65.8,282.9 66.1,250.1C66.4,217.1 68.4,184.1 66.7,151C65.8,133.5 63.4,116.2 62.7,98.7C62.3,89.8 62.2,80.8 63.2,71.9C63.8,65.6 64.5,58.4 68.7,53.4Z" style="fill-rule:nonzero;"/>
        <path d="M107.8,61.3C108.4,62.2 109.3,62.6 110.4,62.2C121.1,58.3 116.1,43.2 110.1,37.5C108.7,36.2 106.9,36.5 105.4,37.2C100.9,39.5 65.2,64.2 71.2,68.8C71.6,69.1 72.5,68.3 72.1,67.9C71.7,67.5 86,56.6 87.2,55.7C92.6,51.9 98.4,48 104.5,45.2C106.1,47.6 107.1,50.2 107.5,53.2C107.7,56 106.3,58.9 107.8,61.3Z" style="fill-rule:nonzero;"/>
        <path d="M191.7,55.4C181.7,55.4 173.7,69.3 174.1,78.2C174.6,89.5 186.8,93.9 196.4,93.7C209.2,93.4 220.3,82.9 220.8,70.1C221.3,56.6 202.2,48.3 191.7,55.4ZM199.4,79.9C195.5,80.3 190,78.9 188.2,75C186.7,71.8 187.5,68.8 189.3,66.4C189.5,66.5 189.6,66.6 189.8,66.7C192.9,68.4 196.5,67.5 199.9,68.3C202.4,68.9 204.6,71.1 205.6,73.4C207.5,77.9 203,79.6 199.4,79.9Z" style="fill-rule:nonzero;"/>
        <path d="M395.9,51.7C388.3,49.9 375.8,52.2 371.7,59.4C366.6,63.1 362.8,69.7 361.8,75C360.2,83.6 365.6,90.7 373.5,93.3C385.7,97.3 397.3,86.8 403.1,77.2C408.7,67.8 408.1,54.6 395.9,51.7ZM370.9,65C371,65.1 371,65.3 371.1,65.4C370.9,65.1 370.9,65 370.9,65ZM390.7,72C390.7,72.1 390.7,72.1 390.6,72.2C390.3,72.9 390,73.5 389.7,74.1C389.6,74.2 389.5,74.4 389.4,74.6C389.1,75.1 388.8,75.5 388.4,76C388.3,76.2 388.1,76.4 387.9,76.6C387.7,76.9 387.1,77.5 386.8,77.7C386.4,78 386,78.4 385.6,78.7C385.6,78.7 385.5,78.7 385.5,78.8C385,79.1 384.6,79.3 384.1,79.6C384,79.6 383.8,79.7 383.5,79.8C383.4,79.8 383,79.9 382.8,80C382.3,80.1 381.8,80.1 381.3,80.1C383.1,80 378.7,79.4 379.8,79.8C374.1,77.6 373.6,72.7 375.5,68.1C375.9,68.1 376.3,68.2 376.7,68.1C381.1,67.9 383.4,66.7 387.4,66.6C387,66.6 388.5,66.8 389.3,66.9C389.5,67 389.8,67.1 389.9,67.1C390,67.2 390.1,67.2 390.2,67.2C390.5,67.5 390.6,67.6 390.8,67.7C390.8,67.8 390.8,68 391,68.5C391,68.9 391.1,69.3 391.1,69.6C391.1,68.8 390.8,71.1 390.7,72Z" style="fill-rule:nonzero;"/>
        <path d="M317.5,221.7C313.4,220.6 310,221 307.5,222.8C303.2,226 302.9,232.6 302.8,237C302.8,237.7 302.8,238.3 302.7,238.8C302.2,248 302.3,257.4 303,266.8L303,266.9C302.9,267.2 302.7,267.5 302.6,267.8C300.1,273.5 297,279.3 293.5,284.9C293.2,285.3 292.9,286 292.4,286.7C291.4,288.5 290,290.9 288.3,293.2C287.9,291.3 287.5,289.6 287.2,288C285.9,281.4 285.2,275.6 285,270.2C284.5,257.8 286.8,247.1 291.9,237.5C292.7,236.1 292.6,234.3 291.6,232.8C289.5,229.4 283.2,226.7 279.5,226.8C276.9,226.9 275.8,228.2 275.4,229.1C264.2,249.9 266.9,272 270.4,288.9C270.6,289.9 270.8,290.9 271,291.9C272.2,298.7 273.8,308.1 285.1,311C296.5,314 302.7,304.6 306.3,299C306.7,298.4 307,297.9 307.3,297.4C307.4,297.3 307.4,297.2 307.5,297.1C308.4,301.2 309.5,305.4 310.7,309.4C311.7,313 319.1,316.3 323.6,316.3C324.2,316.3 324.7,316.2 325.1,316.1C327.4,315.4 328.6,313.3 327.9,310.9C324.2,298.1 321.8,285.2 320.7,272.5C324.7,262.8 327.3,252.8 328.7,242.8C329.8,235.8 331.2,225.4 317.5,221.7Z" style="fill-rule:nonzero;"/>
        <path d="M261,228C258.1,223.7 253.1,219.3 247.7,220.1C243,220.8 238.4,221.6 233.8,222.6C233.8,222.3 211.5,228.8 210,229.3C204.2,231.5 198.2,233.7 193.1,233.6C189.6,233.5 186.6,235.4 184.9,238.6C182.7,243 183.8,248.2 185.6,251.7C188,256.3 193,261 198.9,261.2C205.3,261.4 211.3,259.6 217,257.5C217.1,259.3 217.2,260.9 217.3,262.5C217.5,266 217.6,269.7 217.8,273C218.3,284.6 218.7,296.5 221.2,308.5C221.8,311.3 223.3,316.5 227,319C228.5,320 230.1,320.5 231.8,320.5C232.4,320.5 233.1,320.4 233.7,320.2C238,319 242.2,313.9 240,303.3C238.1,294.4 237.8,285.2 237.5,275.4C237.4,271.6 237.2,267.2 237,263C236.8,259 236.4,255.1 236.1,251.3C242.5,249.7 249.2,248.4 255.9,247.4C259.5,246.9 262.3,244.5 263.6,241C264.8,237.1 264,232.5 261,228Z" style="fill-rule:nonzero;"/>
        <path d="M406.4,295.2C404.8,292.9 401.1,293.6 400.3,293.8C398.1,294.3 395.3,295.6 393.4,297.6C393,297.6 392.6,297.7 392.2,297.7C391.7,297.8 391,297.8 390.7,297.8L390.6,297.8C388.2,298 386.2,298 384.3,297.8C379.5,297.5 375.6,296.7 372.1,295.3C369.5,294.3 366.3,292.8 364.6,290.3C363.2,288.3 362.8,285.3 362.4,282.4C362.3,281.9 362.3,281.4 362.2,280.9C361.6,277.7 361.2,274.5 361,271.2C367.3,269.7 373.6,269.4 379.7,270.5C380.8,270.7 382.9,270.7 385,268.2C386.8,266 388.9,261.3 387.9,258.4C387.4,257.1 386.4,256.2 385.1,256C378.5,254.9 372.4,254.8 366.6,255.8C364.7,256.1 362.8,256.6 361,257.1C361,256.1 361.1,255.2 361.1,254.2C361.2,251 361,247.9 360.9,244.9C360.8,242.8 360.7,240.7 360.6,238.7C373.9,237.3 386.3,235.8 398.4,234.1C399.8,233.9 400.9,233 401.4,231.7C401.8,230.5 402,228.4 398.5,224.3L398.4,224.2C396.6,222.3 393,219.3 388.9,219.7C371.1,222.2 354.6,224.1 338.4,225.6C336.9,225.8 335.8,226.6 335.3,227.8C334.8,229.1 334.6,231.1 338.1,235.3L338.2,235.5C339.6,237 342.3,239.2 345.4,239.9C345.2,243 345.4,246.3 345.6,249.9C345.7,252.9 345.7,256 345.6,259C344.6,259.3 343.5,259.9 342.4,261.2C340.6,263.4 338.5,268.1 339.5,271C340,272.3 341,273.2 342.3,273.4C343.3,273.6 344.3,273.7 345.4,273.7C345.7,277.7 346.3,281.5 346.9,284.6C347,285.2 347.1,285.8 347.2,286.5C347.9,291.1 348.6,296.4 352.4,300.3C358.3,306.3 368.1,309.3 381.7,309.3C390.3,309.1 400.9,307.9 406.2,299.3C407.7,297.3 406.8,295.7 406.4,295.2Z" style="fill-rule:nonzero;"/>
        <path d="M383.6,446.7L383.5,446.7C370.9,446.8 358.4,447.7 346,449.4L329.3,452C327.3,452.4 325.3,452.8 323.3,453.2C338.3,440.1 351.7,426.2 362.9,410.4C374.8,393.6 380.3,372.9 367.7,356.1C354.9,339.2 325.5,339.1 310.4,347.1C287.6,359.1 279.2,378.8 283.1,406.9C285.6,412.6 291.9,405.9 293.6,403.8C297.9,398.5 300,391.2 298.7,385.4C297,377.6 293.3,370.4 312.5,361.8C337.8,353 367.9,365.1 360.2,390.1C356.8,401.1 343.6,413.7 334.5,422.4C324,432.5 302.7,452.4 302.7,452.4C302.7,452.4 289.5,464.9 289.1,466.4C288.4,469.5 289.4,472.9 291.7,475C293.2,476.4 295,477.1 297,477.1C297.8,477.1 298.7,477 299.6,476.7C326.9,468.4 355.1,464 383.5,463.7C388.3,463.6 391.9,459.9 391.8,455C391.8,450.2 388.3,446.7 383.6,446.7Z" style="fill-rule:nonzero;"/>
    </g>
</svg>
