<?xml version="1.0" encoding="utf-8"?>
<!-- Generator: Adobe Illustrator 23.0.1, SVG Export Plug-In . SVG Version: 6.00 Build 0)  -->
<svg version="1.1" id="Layer_1" xmlns="http://www.w3.org/2000/svg" xmlns:xlink="http://www.w3.org/1999/xlink" x="0px" y="0px"
	 viewBox="0 0 566.93 566.93" enable-background="new 0 0 566.93 566.93" xml:space="preserve">
<path d="M512.98,483.535c-34.554-38.183-47.053-90.894-59.3-139.491c-7.73-30.672-13.39-61.905-18.06-93.179
	c-2.269-15.188-3.892-30.44-5.694-45.686c-0.896-7.577-1.709-15.165-2.564-22.746c-0.839-7.421-0.241-16.179-3.271-23.046
	c-0.104-0.235-0.229-0.418-0.364-0.578c0.479,0.045,0.96,0.083,1.438,0.13c4.11,0.406,7.912-2.895,8.022-7.04
	c0.1-3.715-0.294-7.65-1.645-11.129c-0.3-0.774-0.848-1.402-1.517-1.862c0.988-0.007,1.977-0.011,2.964-0.02
	c1.671,0.024,3.195-0.754,4.387-1.907c6.629-1.911,12.527-11.307,6.159-15.398c-0.004-0.005-0.008-0.01-0.013-0.016
	c-0.347-0.743-0.598-1.537-0.832-2.316c-0.662-2.203-0.229-0.611-0.537-2.547c-0.292-1.833-0.461-3.687-0.611-5.536
	c-0.686-8.454-0.509-16.979-0.221-25.447c0.55-16.128,2.023-32.195,3.28-48.278c0.629-8.052-0.708-15.758-5.508-22.404
	c-4.54-6.286-13.12-9.139-20.432-10.411C401.254,1.6,383.42,6.084,366.017,6.907c-38.879,1.839-77.937,1.726-116.851,2.036
	c-19.188,0.153-38.376,0.287-57.563,0.439c-9.929,0.079-19.854,0.311-29.781,0.524c-9.534,0.204-19.386,0.371-28.617,2.847
	c-1.084,0.291-1.976,1.833-1.235,2.632c-8.426-4.499-22.07,1.927-29.358,6.106c-6.97,3.996-13.495,8.86-19.762,13.871
	c-4.989,3.99-9.761,7.737-12.978,13.28c-1.458,2.512,1.49,3.804,3.453,2.772c4.729-2.487,8.508-5.889,12.748-9.175
	c5.584-4.328,11.433-8.294,17.577-11.783c5.106-2.899,10.769-5.749,16.714-6.19c6.041-0.448,6.585,4.568,6.862,9.402
	c0.449,7.82-0.677,15.774-1.276,23.563c-0.708,9.207-0.425,18.334-0.15,27.563c0.661,22.293,1.861,44.52,1.847,66.828
	c-0.006,8.431,11.637,5.95,15.841-0.085c1.101-0.044,2.203-0.104,3.306-0.209c5.978-0.567,11.968-1.306,17.926-2.046
	c12.813-1.592,25.659-2.818,38.513-4.026c26.159-2.459,52.401-3.99,78.654-4.991c46.99-1.793,93.965-1.077,140.966-1.311
	c-0.856,0.167-1.716,0.294-2.576,0.313c-4.181,0.091-8.606,6.298-4.55,9.328c-7.813-0.217-15.671-0.865-23.412-0.792
	c-13.004,0.122-26.006,0.462-39.002,0.915c-25.592,0.893-51.166,2.229-76.729,3.741c-23.454,1.387-46.859,2.949-70.343,3.761
	c-11.508,0.398-22.992,0.996-34.44,2.273c-9.02,1.006-19.213,2.024-27.598,6.014c-1.392-0.469-3.73,0.538-4.479,1.579
	c-6.955,9.685-7.844,22.917-8.417,34.458c-0.647,13.032,0.333,26.066,1.315,39.056c1.199,15.849,1.454,31.794,2.516,47.661
	c1.089,16.286,2.593,32.523,4.613,48.721c3.966,31.796,10.554,63.079,17.906,94.242c3.629,15.384,7.34,30.747,11.285,46.053
	c3.137,12.176,7.033,24.29,12.782,35.502c0.942,1.837,1.949,3.639,2.903,5.469c-0.05,0.37-0.07,0.741-0.051,1.115
	c-0.468,0.115-0.932,0.23-1.381,0.351c-5.705,1.535-11.463,2.869-17.226,4.167c-0.532,0.12-1.066,0.233-1.6,0.352
	c0.289-1.941-0.043-4.129-0.601-5.77c-2.647-7.782-6.252-15.255-9.414-22.835c-4.515-10.823-6.887-22.441-9.326-33.877
	c-3.485-16.336-6.36-32.749-8.873-49.258c-4.866-31.981-9.614-63.969-14.688-95.917c-5.079-31.983-7.244-64.363-8.448-96.698
	c-1.738-46.654-0.808-93.602-4.609-140.153c-0.195-2.383-3.651-0.668-3.637,1.166c0.545,65.211-1.425,130.838,3.525,195.913
	c2.452,32.234,7.835,64.157,12.358,96.145c4.583,32.409,9.111,64.712,15.694,96.789c2.48,12.087,5.106,23.8,9.708,35.243
	c1.835,4.564,3.713,9.111,5.483,13.701c0.714,1.852,1.395,3.717,2.016,5.602c0.195,0.593,0.448,1.125,0.721,1.662
	c-0.035,0.17-0.06,0.339-0.072,0.507c-7.861,1.685-15.729,3.336-23.564,5.135c-0.558,0.128-1.114,0.261-1.671,0.391
	c-0.445-2.152-1.443-4.383-1.89-6.175c-1.497-6.008-2.311-12.184-3.071-18.319c-1.43-11.519-2.892-23.02-4.521-34.515
	c-3.128-22.073-6.371-44.13-9.537-66.198c-3.143-21.897-5.972-43.848-8.206-65.857c-2.27-22.347-3.245-44.725-4.472-67.141
	c-0.026-0.485-0.709-0.121-0.727,0.233c-2.207,44.098,2.824,88.77,8.121,132.495c2.607,21.527,5.68,42.998,8.52,64.495
	c1.439,10.894,2.996,21.797,4.025,32.738c0.89,9.46,1.825,19.226,4.214,28.504c-0.283,0.518-0.399,1.089-0.274,1.631
	c-8.097,2.041-16.127,4.349-23.984,7.182c-9.896,3.568-20.745,7.95-27.984,15.839c-2.463,2.684-1.627,5.133,0.396,6.272
	c-0.082,0.289-0.014,0.558,0.379,0.6c13.286,1.424,27.291-1.115,40.547-2.293c14.91-1.325,29.808-2.779,44.707-4.215
	c29.287-2.821,58.576-5.632,87.897-8.078c29.336-2.447,58.722-4.485,88.13-5.848c14.996-0.695,30.005-1.163,45.016-1.403
	c12.59-0.201,25.365,0.721,37.926,0.058c0.751-0.04,1.457-0.302,2.104-0.688l0,0c6.355-1.129,12.213-3.461,18.188-5.908
	c9.424-3.861,18.785-7.875,28.096-12.002c8.565-3.798,17.115-7.702,25.525-11.835c2.272-1.117,4.54-2.275,6.727-3.56
	c2.43-0.155,4.868-0.42,7.427-0.607c5.076-0.371,9.915-4.678,10.977-9.633c0.334-1.558,0.182-3.02-0.335-4.271
	C514.918,489.702,515.498,486.317,512.98,483.535z M443.319,121.271C443.164,121.032,443.099,120.897,443.319,121.271
	L443.319,121.271z M284.142,129.73c-26.298,1.147-52.57,2.92-78.766,5.511c-12.928,1.278-25.822,2.966-38.681,4.811
	c-6.076,0.872-12.137,1.983-18.162,3.152c-1.235,0.24-2.443,0.532-3.643,0.845c-0.084-23.497-1.338-46.883-2.699-70.343
	c-0.531-9.169-0.688-18.154-0.603-27.325c0.077-8.309-0.967-16.932-4.118-24.6c-1.164-2.832-2.846-4.767-4.859-6.021
	c6.776,2.143,14.349,2.5,21.455,2.686c8.518,0.222,17.034,0.452,25.551,0.683c16.448,0.448,32.922,0.539,49.376,0.701
	c32.952,0.324,65.904,0.493,98.857,0.205c14.014-0.123,28.141,0.129,42.125-0.872c8.858-0.634,17.692-1.544,26.577-1.748
	c7.485-0.171,15.621,0.105,22.512,3.333c6.463,3.027,8.774,9.766,9.067,16.664c0.061,1.405-0.031,2.797-0.144,4.193
	c-0.028,0.332-0.072,0.854-0.086,1.012c-0.081,0.924-0.164,1.847-0.247,2.771c-0.362,4.045-0.729,8.09-1.079,12.137
	c-0.936,10.835-1.773,21.68-2.277,32.545c-0.437,9.408-0.72,18.917,0.127,28.31c0.25,2.778,0.565,6.086,1.396,9.185
	C378.602,127.266,331.312,127.672,284.142,129.73z M175.791,432.707c-3.769-15.48-7.467-30.976-10.808-46.555
	c-6.792-31.677-10.854-63.791-13.888-96.024c-1.52-16.141-2.511-32.312-3.668-48.48c-0.927-12.943-2.691-25.802-3.483-38.767
	c-0.698-11.431,0.541-22.472,1.178-33.76c8.862-0.328,17.992-2.647,26.782-3.397c10.836-0.924,21.738-1.179,32.606-1.431
	c23.435-0.544,46.787-1.777,70.192-3.061c24.879-1.365,49.77-2.598,74.679-3.241c23.813-0.615,47.947-1.43,71.736,0.582
	c-1.032,0.546-1.965,1.59-2.218,2.487c-2.021,7.156-1.006,15.051-0.987,22.444c0.021,7.807,0.201,15.601,0.489,23.402
	c0.597,16.134,2.032,32.257,3.62,48.32c3.186,32.229,8.646,64.085,15.895,95.645c10.686,46.534,23.123,97.156,52.97,135.657
	c-0.191,0.88-0.196,1.787,0.05,2.655c0.118,0.417,0.252,0.795,0.394,1.156c-7.715,1.084-15.414,2.309-23.156,3.13
	c-12.802,1.357-25.596,2.785-38.387,4.236c-26.755,3.034-53.492,6.215-80.247,9.247c-26.022,2.949-52.064,5.627-78.15,7.97
	c-12.706,1.141-25.422,2.169-38.147,3.077c-8.457,0.603-16.979,0.969-25.464,1.594c0.073-1.015-0.035-2.02-0.396-2.961
	c-0.642-1.674-1.889-2.718-3.377-3.25c-0.258-2.464-1.457-4.903-3.045-7.157c-1.729-2.454-4.851-6.103-5.567-7.734
	c-2.992-6.812-5.791-13.56-7.99-20.688C182.833,462.99,179.454,447.759,175.791,432.707z M459.196,513.556
	c-13.881,6.339-28.698,11.375-42.052,18.801c-0.329-0.05-0.692-0.071-1.101-0.049c-0.025,0.001-0.05,0.003-0.075,0.004
	c-11.277-0.521-22.786,0.209-34.058,0.428c-15.039,0.293-30.071,0.886-45.093,1.671c-30.174,1.577-60.271,4.114-90.342,7.039
	c-29.423,2.862-58.806,6.136-88.189,9.376c-14.952,1.648-29.908,3.267-44.862,4.906c-10.388,1.138-21.177,1.623-31.637,3.252
	c6.027-2.91,11.956-5.81,18.504-7.922c10.479-3.381,21.29-5.768,32.079-7.917c11.237-2.238,22.53-4.188,33.781-6.36
	c5.532-1.069,11.053-2.2,16.547-3.448c2.134-0.485,4.357-1.214,6.596-1.884c0.363,0.184,0.78,0.306,1.271,0.33
	c24.634,1.212,49.814-1.631,74.364-3.515c26.607-2.042,53.182-4.6,79.745-7.147c26.665-2.557,53.316-5.259,79.978-7.865
	c12.76-1.247,25.522-2.461,38.29-3.621c1.997-0.181,3.989-0.385,5.979-0.596C465.697,510.578,462.448,512.071,459.196,513.556z"/>
<path d="M68.748,53.424c1.949-2.25-0.489-4.763-2.926-3.335c-6.554,3.84-8.802,10.55-10.946,17.42
	c-2.785,8.918-2.787,18.966-2.723,28.226c0.132,18.925,2.617,37.721,3.609,56.601c1.739,33.114-0.813,66.271-1.502,99.378
	c-0.684,32.874,1.797,65.724,2.822,98.572c1.021,32.746,1.523,65.504,1.992,98.261c0.232,16.285,0.504,32.57,0.795,48.854
	c0.15,8.424,0.36,16.847,0.467,25.272c0.072,5.716,0.509,11.624,0.399,17.438c-3.345,2.126-5.632,6.456-3.089,9.675
	c2.092,2.649,3.088,4.459,6.691,5.252c6.516,1.433,12.408-5.82,11.072-11.799c-1.641-7.344-1.059-15.517-1.315-23.024
	c-0.286-8.401-0.451-16.806-0.641-25.209c-0.367-16.253-0.677-32.507-1.058-48.76c-0.764-32.667-1.602-65.333-2.8-97.987
	c-1.202-32.767-3.896-65.525-3.622-98.325c0.275-33.026,2.328-66.034,0.631-99.057c-0.898-17.469-3.266-34.819-4.016-52.299
	c-0.381-8.885-0.513-17.945,0.493-26.794C63.786,65.603,64.479,58.353,68.748,53.424z"/>
<path d="M107.785,61.338c0.553,0.936,1.49,1.328,2.563,0.935c10.658-3.909,5.712-18.976-0.286-24.726
	c-1.377-1.321-3.15-1.049-4.729-0.253c-4.483,2.26-40.193,26.964-34.209,31.631c0.431,0.336,1.262-0.511,0.867-0.931
	c-0.415-0.442,13.94-11.321,15.138-12.156c5.425-3.784,11.162-7.718,17.263-10.466c1.597,2.406,2.641,5.04,2.989,7.994
	C107.697,56.049,106.321,58.857,107.785,61.338z"/>
<path d="M191.736,55.445c-10.048-0.04-18.001,13.892-17.589,22.801c0.522,11.262,12.684,15.723,22.264,15.532
	c12.835-0.256,23.927-10.75,24.404-23.561C221.324,56.565,202.153,48.31,191.736,55.445z M199.381,79.91
	c-3.943,0.355-9.401-1.046-11.218-4.929c-1.514-3.237-0.726-6.173,1.067-8.583c0.152,0.108,0.3,0.219,0.475,0.316
	c3.095,1.728,6.685,0.754,10.05,1.562c2.51,0.603,4.733,2.793,5.744,5.071C207.517,77.892,203.02,79.582,199.381,79.91z"/>
<path d="M395.87,51.744c-7.572-1.765-20.058,0.467-24.215,7.653c-5.117,3.682-8.872,10.274-9.879,15.611
	c-1.616,8.572,3.797,15.696,11.684,18.267c12.223,3.985,23.832-6.547,29.613-16.143C408.7,67.791,408.142,54.605,395.87,51.744z
	 M370.932,65.003c0.069,0.138,0.133,0.277,0.22,0.413C370.934,65.074,370.884,64.97,370.932,65.003z M390.658,71.976
	c-0.023,0.057-0.046,0.111-0.076,0.187c-0.264,0.664-0.583,1.305-0.907,1.942c-0.061,0.119-0.187,0.337-0.307,0.541
	c-0.316,0.47-0.646,0.93-0.986,1.382c-0.147,0.196-0.311,0.379-0.467,0.568c-0.244,0.261-0.832,0.906-1.056,1.114
	c-0.375,0.348-0.773,0.668-1.172,0.988c-0.04,0.025-0.07,0.044-0.118,0.075c-0.454,0.292-0.932,0.545-1.408,0.797
	c-0.131,0.037-0.322,0.096-0.6,0.189c-0.137,0.046-0.466,0.127-0.725,0.191c-0.515,0.067-1.032,0.108-1.55,0.125
	c1.808-0.059-2.63-0.741-1.541-0.322c-5.735-2.209-6.244-7.138-4.263-11.728c0.393,0.043,0.796,0.063,1.228,0.041
	c4.367-0.231,6.684-1.42,10.688-1.528c-0.387,0.047,1.066,0.202,1.946,0.339c0.203,0.073,0.463,0.167,0.605,0.24
	c0.119,0.06,0.214,0.106,0.297,0.146c0.016,0.016,0.025,0.028,0.045,0.047c0.273,0.262,0.447,0.404,0.555,0.475
	c-0.002,0.111,0.044,0.334,0.201,0.773c0.006,0.015,0.009,0.022,0.014,0.036c0.047,0.377,0.061,0.756,0.061,1.136
	C391.096,68.787,390.846,71.141,390.658,71.976z"/>
<path d="M332.076,239.995c0.137,5.319,0.275,10.638,0.284,15.959c0.008,4.914-0.286,9.892,0.586,14.756
	c0.603,3.363,1.823,8.664,5.041,10.558c3.584,2.109,8.888-1.753,11.871-3.564c1.787-1.085-0.308-6.403-1.744-5.531
	c-2.352,1.428-6.094,4.237-9.017,4.087c-3.789-0.195-3.557-8.127-3.595-10.771c-0.11-7.81-0.059-15.613-0.261-23.424
	c-0.028-1.103-0.533-3.129-1.668-3.634C332.425,237.92,332.05,238.976,332.076,239.995L332.076,239.995z"/>
<path d="M290.466,257.033c-1.09-4.13-1.704-8.629-3.393-12.614c-1.259-2.972-5.433-4.52-9.29-3.42
	c-8.495,2.422-7.341,12.621-6.501,18.019c0.695,4.473,1.456,8.939,2.184,13.409c0.481,2.949,0.65,7.019,3.862,8.972
	c3.165,1.925,9.755,1.677,13.274,0.424c3.818-1.36,5.749-3.984,6.214-7.199c0.165-1.14-0.153-3.486-1.47-4.163
	c-1.399-0.718-1.836,0.448-1.983,1.465c-0.36,2.487-4.106,3.938-6.732,4.342c-2.344,0.361-7.909,0.755-9.379-1.064
	c-0.64-0.792-0.476-2.857-0.631-3.809c-0.226-1.388-0.453-2.776-0.679-4.165c-0.424-2.603-0.853-5.205-1.273-7.809
	c-0.632-3.909-1.527-10.318,4.414-12.205c1.331-0.423,3.658-0.469,4.85,0.159c1.016,0.535,0.781,0.647,1.17,2.12
	c0.708,2.682,1.416,5.364,2.124,8.046c0.199,0.755,0.794,3.087,2.27,2.854C290.906,260.176,290.643,257.704,290.466,257.033
	L290.466,257.033z"/>
<path d="M320.42,252.04c-2.189-3.658-4.668-7.624-8.348-9.992c-3.51-2.271-7.707-2.544-11.591-3.869
	c-1.721-0.595-1.308,1.604-0.979,2.505c0.39,1.006,1.112,2.099,1.981,2.966c-4.21,3.743-5.593,10.942-5.483,16.036
	c0.154,7.479,1.728,15.085,8.468,19.482c5.492,3.555,15.282,3.035,17.878-3.861C325.139,268.073,324.373,258.679,320.42,252.04z
	 M318.161,265.047c-0.437,3.338-1.202,6.644-4.405,8.315c-2.943,1.491-7.034,2.025-10.019,0.318
	c-2.31-1.317-2.069-5.186-2.111-7.517c-0.124-3.628-0.127-7.047,1.395-10.401c1.232-2.793,2.797-6.312,5.987-7.331
	c0.797-0.268,0.91-1.035,0.686-1.998c0.828,0.218,1.66,0.49,2.44,0.82c2.677,1.131,4.809,4.738,5.685,7.396
	C318.784,257.844,318.547,261.766,318.161,265.047z"/>
<path d="M414.543,256.825c-2.656-1.992-5.774-3.391-8.789-4.744c-1.247-0.56-2.426-1.089-3.554-1.65
	c-0.583-0.29-1.236-0.568-1.927-0.862c-1.648-0.701-3.904-1.661-4.535-2.674c-0.533-0.855-0.532-2.623,0.001-4.115
	c1.245-3.48,4.123-4.773,7.895-3.548c3.305,1.074,4.172-1.272,4.26-1.542c0.639-1.968-1.142-4.063-3.141-4.713l0,0
	c-7.847-2.547-14.43,0.088-16.77,6.714c-1.126,3.185-0.872,6.641,0.679,9.244c1.666,2.797,4.533,4.125,7.062,5.297
	c0.482,0.223,0.957,0.444,1.414,0.67c1.195,0.594,2.391,1.185,3.587,1.776c2.368,1.169,4.816,2.379,7.206,3.591
	c2.201,1.117,2.018,1.999,1.518,3.122c-0.554,1.247-1.569,2.484-2.936,3.579c-2.781,2.228-6.797,3.417-9.993,2.962
	c-0.543-0.078-0.84-0.249-0.962-0.971c-0.31-1.838,1.082-4.78,2.259-5.388c1.301-0.671,1.768-2.172,1.087-3.492
	c-0.877-1.7-4.236-3.531-6.408-2.407c-3.767,1.942-5.816,8.17-4.85,11.907c0.864,3.343,3.794,5.799,8.039,6.737
	c1.697,0.375,3.534,0.504,5.404,0.384c6.181-0.397,12.725-3.512,15.753-9.442C418.856,263.318,417.997,259.416,414.543,256.825z"/>
<path d="M382.087,269.789c-1.067,0.286-2.373,1.075-2.909,2.032c0.098-0.169-1.348,0.141-1.888,0.175
	c-1.077,0.123-2.158,0.193-3.192,0.151c-2.172-0.023-4.304-0.266-6.36-1.003c-1.609-0.548-3.34-1.305-4.352-2.705
	c-1.066-1.397-1.299-3.336-1.623-4.997c-0.456-2.033-0.743-3.968-0.922-5.91c0.267-0.071,0.53-0.197,0.851-0.272
	c3.194-0.965,6.484-1.285,9.823-0.848c1.588,0.224,3.033-4.319,1.884-4.463c-2.845-0.36-5.666-0.342-8.503,0.274
	c-1.445,0.31-2.823,0.832-4.258,1.304c-0.069-1.081-0.085-2.165-0.1-3.25c-0.025-2.929-0.587-5.769-0.609-8.644
	c6.451-0.957,12.841-2.018,19.274-3.245c1.179-0.238-0.571-2.134-0.862-2.441c-0.866-0.813-2.287-1.807-3.523-1.619
	c-8.099,1.497-16.208,2.831-24.331,3.95c-1.182,0.184,0.629,2.185,0.862,2.441c0.866,0.813,2.229,1.756,3.523,1.619
	c0.162-0.01,0.375-0.078,0.537-0.089c-0.142,2.017,0.044,4.067,0.284,6.114c0.179,1.942,0.196,3.895,0.213,5.847
	c-0.162,0.01-0.382-0.03-0.547-0.073c-1.588-0.224-3.033,4.319-1.884,4.462c0.875,0.107,1.743,0.105,2.554,0.053
	c0.189,2.104,0.598,4.249,1.058,6.336c0.477,2.357,0.755,4.999,2.602,6.725c3.35,3.15,9.019,3.546,13.346,3.322
	c3.891-0.25,8.458-0.977,10.553-4.693C384.127,269.441,382.567,269.65,382.087,269.789z"/>
<path d="M189.502,250.352c0.306,6.735,0.632,13.481,1.786,20.135c0.561,3.232,1.333,6.436,1.682,9.701
	c0.281,2.63-0.196,5.193,1.322,7.49c0.485,0.734,2.097,2.876,3.218,2.429c1.168-0.466,0.391-2.053-0.096-2.79
	c0.485,0.734,0.285-0.427,0.303-0.726c0.04-0.658-0.05-1.358-0.101-2.014c-0.119-1.512-0.353-3.012-0.611-4.505
	c-0.493-2.856-1.123-5.685-1.548-8.553c-0.873-5.887-1.136-11.844-1.406-17.782c-0.064-1.411-1.265-2.9-2.371-3.686
	C191.005,249.571,189.436,248.896,189.502,250.352L189.502,250.352z"/>
<path d="M234.914,282.739c-1.067,0.286-2.373,1.075-2.909,2.032c0.098-0.169-1.348,0.141-1.888,0.175
	c-1.077,0.123-2.158,0.193-3.192,0.151c-2.172-0.023-4.304-0.266-6.36-1.003c-1.609-0.548-3.34-1.305-4.352-2.705
	c-1.066-1.397-1.299-3.336-1.623-4.997c-0.456-2.033-0.743-3.968-0.922-5.91c0.267-0.071,0.53-0.197,0.851-0.272
	c3.194-0.965,6.484-1.285,9.823-0.848c1.588,0.224,3.033-4.319,1.884-4.463c-2.845-0.36-5.666-0.342-8.503,0.274
	c-1.445,0.31-2.823,0.832-4.258,1.304c-0.069-1.081-0.085-2.165-0.1-3.25c-0.025-2.929-0.587-5.769-0.609-8.644
	c6.451-0.957,12.841-2.018,19.274-3.245c1.179-0.238-0.571-2.134-0.862-2.441c-0.866-0.813-2.287-1.807-3.523-1.619
	c-8.099,1.497-16.208,2.831-24.331,3.95c-1.182,0.184,0.629,2.185,0.862,2.441c0.866,0.813,2.229,1.756,3.523,1.619
	c0.162-0.01,0.375-0.078,0.537-0.089c-0.142,2.017,0.044,4.067,0.284,6.114c0.179,1.942,0.196,3.895,0.213,5.847
	c-0.162,0.01-0.382-0.03-0.547-0.073c-1.588-0.224-3.033,4.319-1.884,4.463c0.875,0.107,1.743,0.105,2.554,0.053
	c0.189,2.104,0.598,4.249,1.058,6.336c0.477,2.357,0.755,4.999,2.602,6.725c3.35,3.15,9.019,3.546,13.346,3.322
	c3.891-0.25,8.458-0.977,10.553-4.693C236.954,282.391,235.393,282.599,234.914,282.739z"/>
<path d="M180.734,269.137c-0.638-5.313-0.188-11.978-4.578-15.817c-0.426-0.373-1.833-1.403-2.201-0.415
	c-1.886,5.051-4.444,26.141-4.973,26.175s-1.058-12.056-1.406-15.405c-0.278-2.68-0.417-5.473-1.445-7.997
	c-0.567-1.393-1.967-3.928-3.785-3.95c-1.716-0.021-2.327,2.913-2.689,4.186c-0.787,2.77-1.009,5.712-1.264,8.569
	c-0.061,0.679-0.112,1.357-0.162,2.036c-0.26-2.58-0.444-5.167-0.555-7.761c-0.037-0.853-0.555-1.877-1.293-2.348
	c-0.39-0.249-1.481-0.773-1.44,0.184c0.204,4.736,0.615,9.459,1.307,14.15c0.534,3.624,2.068,14.645,2.075,15.052
	c0.019,1.166,2.106,5.036,3.552,0.856c-0.335-5.46-0.36-10.929-0.008-16.389c0.181-2.815,0.399-5.659,0.874-8.442
	c0.168-0.986,0.4-2.741,0.909-4.161c0.187,1.597,0.175,3.284,0.305,4.54c0.274,2.644,0.903,17.492,3.239,21.25
	c0.432,0.695,2.33,2.693,3.087,1.425c2.405-4.03,4.427-21.291,5.981-25.226c0.185,1.309,0.302,2.628,0.432,3.943
	c0.239,2.418,0.501,4.816,0.982,7.2c1.039,5.153,2.758,10.138,3.275,15.391c0.109,1.103,1.041,2.306,1.976,2.863
	c0.545,0.325,1.869,0.852,1.752-0.332C184.025,282.056,181.53,275.771,180.734,269.137z"/>
<path d="M265.428,274.436c-2.632-0.428-5.261-0.802-7.894-1.23c-1.919-0.311-4.055-0.608-5.604-1.92
	c0.637-1.072,2.846-3.005,3.554-3.81c1.871-2.128,3.513-4.458,4.481-7.126c1.658-4.611,1.09-12.606-2.51-16.283
	c-4.301-4.445-9.563,0.668-12.094,4.358c-1.139,1.701-2.271,3.51-3.292,5.367c-0.29-1.989-0.639-4.029-1.037-6.012
	c-0.327-1.716-1.79-1.676-2.747-0.529c-1.261,1.492-1.429,3.945-1.092,5.823c0.722,3.644,1.228,7.302,1.681,10.963
	c-0.023,0.49-0.046,0.98-0.011,1.52c0.024,0.378,0.096,0.645,0.272,0.851c0.049,0.757,0.148,1.456,0.196,2.212
	c0.196,2.212,0.339,4.428,0.643,6.634c0.369,2.364,1.065,4.762,1.272,7.136c-0.44,1.602-0.325,3.386,0.717,4.404l0.058,0.051
	c0.985,0.968,2.228-0.794,2.565-1.467c1.34-2.799,0.915-6.028,0.454-8.984c-0.529-3.168-1.163-6.275-1.421-9.46
	c-0.059-0.919-0.172-1.834-0.231-2.753c0.802-1.028,1.378-2.205,1.363-3.289c-0.131-3.736,1.414-6.712,3.331-9.82
	c0.687-1.13,0.851-1.954,2.338-1.615c1.764,0.429,2.797,2.154,3.388,3.744c0.988,2.704,2.14,7.135,0.74,9.83
	c-1.26,2.36-3.746,4.202-5.344,6.367c-1.348,1.823-4.099,5.473-3.02,7.9c1.129,2.37,5.826,2.828,8.069,3.118
	c3.159,0.48,6.301,0.988,9.436,1.531C268.276,282.742,270.805,275.339,265.428,274.436z"/>
<path d="M215.679,246.079c3.382-0.955,6.572-2.31,9.673-3.957c1.55-0.823,1.786-3.165,0.879-4.511
	c-1.066-1.58-2.956-1.705-4.511-0.879c-2.593,1.377-5.344,2.407-8.166,3.204C209.53,241.072,211.658,247.215,215.679,246.079
	L215.679,246.079z"/>
<path d="M371.736,444.227L371.736,444.227c-1.179-9.753-8.124-16.433-14.252-22.326c-4.798-4.615-11.263-10.522-18.728-15.277
	c-2.756-1.755-5.576-3.313-8.444-4.667c5.242-2.291,9.977-4.952,14.146-7.956c7.914-5.703,13.34-16.519,13.195-26.302
	c-0.108-7.344-3.332-13.529-9.076-17.416c-14.949-10.113-36.087-11.757-47.356-11.836c-0.25-0.002-0.498-0.003-0.747-0.003
	c-16.91,0-33.685,4.011-48.559,11.616c-3.881,1.985-4.341,5.446-3.126,7.822c1.978,3.868,8.892,5.896,12.979,3.808
	c23.195-11.862,51.153-12.893,72.96-2.689c4.858,2.272,6.14,5.207,5.081,11.63c-1.103,6.68-4.005,11.132-9.411,14.438
	c-7.889,4.822-17.238,8.377-27.793,10.569c-4.789,0.092-9.445,0.819-13.845,2.163c-4.521,1.38-5.572,4.635-5.1,7.003
	c0.804,4.025,5.825,6.604,9.792,6.209c4.008-0.396,8.023-0.959,11.943-1.676c8.136,0.228,16.969,3.583,25.572,9.722
	c4.836,3.451,9.652,7.617,15.157,13.111c4.741,4.731,8.656,9.057,8.551,14.078c-0.202,9.557-18.708,12.667-26.655,13.561
	c-12.848,1.443-25.912,0.112-38.55-1.174c-3.316-0.335-6.127,0.728-7.711,2.922c-1.305,1.808-1.536,4.104-0.62,6.144
	c1.124,2.503,3.691,4.134,7.044,4.475c10.097,1.028,19.637,1.878,28.942,1.878c7.371,0,14.596-0.533,21.83-1.934
	C369.694,466.173,372.688,452.092,371.736,444.227z"/>
</svg>
