<?xml version="1.0" encoding="utf-8"?>
<!-- Generator: Adobe Illustrator 23.0.1, SVG Export Plug-In . SVG Version: 6.00 Build 0)  -->
<svg version="1.1" id="Layer_1" xmlns="http://www.w3.org/2000/svg" xmlns:xlink="http://www.w3.org/1999/xlink" x="0px" y="0px"
	 viewBox="0 0 566.93 566.93" enable-background="new 0 0 566.93 566.93" xml:space="preserve">
<path d="M512.98,483.535c-34.554-38.183-47.053-90.894-59.3-139.491c-7.73-30.672-13.39-61.905-18.06-93.179
	c-2.269-15.188-3.892-30.44-5.694-45.686c-0.896-7.577-1.709-15.165-2.564-22.746c-0.839-7.421-0.241-16.179-3.271-23.046
	c-0.104-0.235-0.229-0.418-0.364-0.578c0.479,0.045,0.96,0.083,1.438,0.13c4.11,0.406,7.912-2.895,8.022-7.04
	c0.1-3.715-0.294-7.65-1.645-11.129c-0.3-0.774-0.848-1.402-1.517-1.862c0.988-0.007,1.977-0.011,2.964-0.02
	c1.671,0.024,3.195-0.754,4.387-1.907c6.629-1.911,12.527-11.307,6.159-15.398c-0.004-0.005-0.008-0.01-0.013-0.016
	c-0.347-0.743-0.598-1.537-0.832-2.316c-0.662-2.203-0.229-0.611-0.537-2.547c-0.292-1.833-0.461-3.687-0.611-5.536
	c-0.686-8.454-0.509-16.979-0.221-25.447c0.55-16.128,2.023-32.195,3.28-48.278c0.629-8.052-0.708-15.758-5.508-22.404
	c-4.54-6.286-13.12-9.139-20.432-10.411C401.254,1.6,383.42,6.084,366.017,6.907c-38.879,1.839-77.937,1.726-116.851,2.036
	c-19.188,0.153-38.376,0.287-57.563,0.439c-9.929,0.079-19.854,0.311-29.781,0.524c-9.534,0.204-19.386,0.371-28.617,2.847
	c-1.084,0.291-1.976,1.833-1.235,2.632c-8.426-4.499-22.07,1.927-29.358,6.106c-6.97,3.996-13.495,8.86-19.762,13.871
	c-4.989,3.99-9.761,7.737-12.978,13.28c-1.458,2.512,1.49,3.804,3.453,2.772c4.729-2.487,8.508-5.889,12.748-9.175
	c5.584-4.328,11.433-8.294,17.577-11.783c5.106-2.899,10.769-5.749,16.714-6.19c6.041-0.448,6.585,4.568,6.862,9.402
	c0.449,7.82-0.677,15.774-1.276,23.563c-0.708,9.207-0.425,18.334-0.15,27.563c0.661,22.293,1.861,44.52,1.847,66.828
	c-0.006,8.431,11.637,5.95,15.841-0.085c1.101-0.044,2.203-0.104,3.306-0.209c5.978-0.567,11.968-1.306,17.926-2.046
	c12.813-1.592,25.659-2.818,38.513-4.026c26.159-2.459,52.401-3.99,78.654-4.991c46.99-1.793,93.965-1.077,140.966-1.311
	c-0.856,0.167-1.716,0.294-2.576,0.313c-4.181,0.091-8.606,6.298-4.55,9.328c-7.813-0.217-15.671-0.865-23.412-0.792
	c-13.004,0.122-26.006,0.462-39.002,0.915c-25.592,0.893-51.166,2.229-76.729,3.741c-23.454,1.387-46.859,2.949-70.343,3.761
	c-11.508,0.398-22.992,0.996-34.44,2.273c-9.02,1.006-19.213,2.024-27.598,6.014c-1.392-0.469-3.73,0.538-4.479,1.579
	c-6.955,9.685-7.844,22.917-8.417,34.458c-0.647,13.032,0.333,26.066,1.315,39.056c1.199,15.849,1.454,31.794,2.516,47.661
	c1.089,16.286,2.593,32.523,4.613,48.721c3.966,31.796,10.554,63.079,17.906,94.242c3.629,15.384,7.34,30.747,11.285,46.053
	c3.137,12.176,7.033,24.29,12.782,35.502c0.942,1.837,1.949,3.639,2.903,5.469c-0.05,0.37-0.07,0.741-0.051,1.115
	c-0.468,0.115-0.932,0.23-1.381,0.351c-5.705,1.535-11.463,2.869-17.226,4.167c-0.532,0.12-1.066,0.233-1.6,0.352
	c0.289-1.941-0.043-4.129-0.601-5.77c-2.647-7.782-6.252-15.255-9.414-22.835c-4.515-10.823-6.887-22.441-9.326-33.877
	c-3.485-16.336-6.36-32.749-8.873-49.258c-4.866-31.981-9.614-63.969-14.688-95.917c-5.079-31.983-7.244-64.363-8.448-96.698
	c-1.738-46.654-0.808-93.602-4.609-140.153c-0.195-2.383-3.651-0.668-3.637,1.166c0.545,65.211-1.425,130.838,3.525,195.913
	c2.452,32.234,7.835,64.157,12.358,96.145c4.583,32.409,9.111,64.712,15.694,96.789c2.48,12.087,5.106,23.8,9.708,35.243
	c1.835,4.564,3.713,9.111,5.483,13.701c0.714,1.852,1.395,3.717,2.016,5.602c0.195,0.593,0.448,1.125,0.721,1.662
	c-0.035,0.17-0.06,0.339-0.072,0.507c-7.861,1.685-15.729,3.336-23.564,5.135c-0.558,0.128-1.114,0.261-1.671,0.391
	c-0.445-2.152-1.443-4.383-1.89-6.175c-1.497-6.008-2.311-12.184-3.071-18.319c-1.43-11.519-2.892-23.02-4.521-34.515
	c-3.128-22.073-6.371-44.13-9.537-66.198c-3.143-21.897-5.972-43.848-8.206-65.857c-2.27-22.347-3.245-44.725-4.472-67.141
	c-0.026-0.485-0.709-0.121-0.727,0.233c-2.207,44.098,2.824,88.77,8.121,132.495c2.607,21.527,5.68,42.998,8.52,64.495
	c1.439,10.894,2.996,21.797,4.025,32.738c0.89,9.46,1.825,19.226,4.214,28.504c-0.283,0.518-0.399,1.089-0.274,1.631
	c-8.097,2.041-16.127,4.349-23.984,7.182c-9.896,3.568-20.745,7.95-27.984,15.839c-2.463,2.684-1.627,5.133,0.396,6.272
	c-0.082,0.289-0.014,0.558,0.379,0.6c13.286,1.424,27.291-1.115,40.547-2.293c14.91-1.325,29.808-2.779,44.707-4.215
	c29.287-2.821,58.576-5.632,87.897-8.078c29.336-2.447,58.722-4.485,88.13-5.848c14.996-0.695,30.005-1.163,45.016-1.403
	c12.59-0.201,25.365,0.721,37.926,0.058c0.751-0.04,1.457-0.302,2.104-0.688l0,0c6.355-1.129,12.213-3.461,18.188-5.908
	c9.424-3.861,18.785-7.875,28.096-12.002c8.565-3.798,17.115-7.702,25.525-11.835c2.272-1.117,4.54-2.275,6.727-3.56
	c2.43-0.155,4.868-0.42,7.427-0.607c5.076-0.371,9.915-4.678,10.977-9.633c0.334-1.558,0.182-3.02-0.335-4.271
	C514.918,489.702,515.498,486.317,512.98,483.535z M443.319,121.271C443.164,121.032,443.099,120.897,443.319,121.271
	L443.319,121.271z M284.142,129.73c-26.298,1.147-52.57,2.92-78.766,5.511c-12.928,1.278-25.822,2.966-38.681,4.811
	c-6.076,0.872-12.137,1.983-18.162,3.152c-1.235,0.24-2.443,0.532-3.643,0.845c-0.084-23.497-1.338-46.883-2.699-70.343
	c-0.531-9.169-0.688-18.154-0.603-27.325c0.077-8.309-0.967-16.932-4.118-24.6c-1.164-2.832-2.846-4.767-4.859-6.021
	c6.776,2.143,14.349,2.5,21.455,2.686c8.518,0.222,17.034,0.452,25.551,0.683c16.448,0.448,32.922,0.539,49.376,0.701
	c32.952,0.324,65.904,0.493,98.857,0.205c14.014-0.123,28.141,0.129,42.125-0.872c8.858-0.634,17.692-1.544,26.577-1.748
	c7.485-0.171,15.621,0.105,22.512,3.333c6.463,3.027,8.774,9.766,9.067,16.664c0.061,1.405-0.031,2.797-0.144,4.193
	c-0.028,0.332-0.072,0.854-0.086,1.012c-0.081,0.924-0.164,1.847-0.247,2.771c-0.362,4.045-0.729,8.09-1.079,12.137
	c-0.936,10.835-1.773,21.68-2.277,32.545c-0.437,9.408-0.72,18.917,0.127,28.31c0.25,2.778,0.565,6.086,1.396,9.185
	C378.602,127.266,331.312,127.672,284.142,129.73z M175.791,432.707c-3.769-15.48-7.467-30.976-10.808-46.555
	c-6.792-31.677-10.854-63.791-13.888-96.024c-1.52-16.141-2.511-32.312-3.668-48.48c-0.927-12.943-2.691-25.802-3.483-38.767
	c-0.698-11.431,0.541-22.472,1.178-33.76c8.862-0.328,17.992-2.647,26.782-3.397c10.836-0.924,21.738-1.179,32.606-1.431
	c23.435-0.544,46.787-1.777,70.192-3.061c24.879-1.365,49.77-2.598,74.679-3.241c23.813-0.615,47.947-1.43,71.736,0.582
	c-1.032,0.546-1.965,1.59-2.218,2.487c-2.021,7.156-1.006,15.051-0.987,22.444c0.021,7.807,0.201,15.601,0.489,23.402
	c0.597,16.134,2.032,32.257,3.62,48.32c3.186,32.229,8.646,64.085,15.895,95.645c10.686,46.534,23.123,97.156,52.97,135.657
	c-0.191,0.88-0.196,1.787,0.05,2.655c0.118,0.417,0.252,0.795,0.394,1.156c-7.715,1.084-15.414,2.309-23.156,3.13
	c-12.802,1.357-25.596,2.785-38.387,4.236c-26.755,3.034-53.492,6.215-80.247,9.247c-26.022,2.949-52.064,5.627-78.15,7.97
	c-12.706,1.141-25.422,2.169-38.147,3.077c-8.457,0.603-16.979,0.969-25.464,1.594c0.073-1.015-0.035-2.02-0.396-2.961
	c-0.642-1.674-1.889-2.718-3.377-3.25c-0.258-2.464-1.457-4.903-3.045-7.157c-1.729-2.454-4.851-6.103-5.567-7.734
	c-2.992-6.812-5.791-13.56-7.99-20.688C182.833,462.99,179.454,447.759,175.791,432.707z M459.196,513.556
	c-13.881,6.339-28.698,11.375-42.052,18.801c-0.329-0.05-0.692-0.071-1.101-0.049c-0.025,0.001-0.05,0.003-0.075,0.004
	c-11.277-0.521-22.786,0.209-34.058,0.428c-15.039,0.293-30.071,0.886-45.093,1.671c-30.174,1.577-60.271,4.114-90.342,7.039
	c-29.423,2.862-58.806,6.136-88.189,9.376c-14.952,1.648-29.908,3.267-44.862,4.906c-10.388,1.138-21.177,1.623-31.637,3.252
	c6.027-2.91,11.956-5.81,18.504-7.922c10.479-3.381,21.29-5.768,32.079-7.917c11.237-2.238,22.53-4.188,33.781-6.36
	c5.532-1.069,11.053-2.2,16.547-3.448c2.134-0.485,4.357-1.214,6.596-1.884c0.363,0.184,0.78,0.306,1.271,0.33
	c24.634,1.212,49.814-1.631,74.364-3.515c26.607-2.042,53.182-4.6,79.745-7.147c26.665-2.557,53.316-5.259,79.978-7.865
	c12.76-1.247,25.522-2.461,38.29-3.621c1.997-0.181,3.989-0.385,5.979-0.596C465.697,510.578,462.448,512.071,459.196,513.556z"/>
<path d="M68.748,53.424c1.949-2.25-0.489-4.763-2.926-3.335c-6.554,3.84-8.802,10.55-10.946,17.42
	c-2.785,8.918-2.787,18.966-2.723,28.226c0.132,18.925,2.617,37.721,3.609,56.601c1.739,33.114-0.813,66.271-1.502,99.378
	c-0.684,32.874,1.797,65.724,2.822,98.572c1.021,32.746,1.523,65.504,1.992,98.261c0.232,16.285,0.504,32.57,0.795,48.854
	c0.15,8.424,0.36,16.847,0.467,25.272c0.072,5.716,0.509,11.624,0.399,17.438c-3.345,2.126-5.632,6.456-3.089,9.675
	c2.092,2.649,3.088,4.459,6.691,5.252c6.516,1.433,12.408-5.82,11.072-11.799c-1.641-7.344-1.059-15.517-1.315-23.024
	c-0.286-8.401-0.451-16.806-0.641-25.209c-0.367-16.253-0.677-32.507-1.058-48.76c-0.764-32.667-1.602-65.333-2.8-97.987
	c-1.202-32.767-3.896-65.525-3.622-98.325c0.275-33.026,2.328-66.034,0.631-99.057c-0.898-17.469-3.266-34.819-4.016-52.299
	c-0.381-8.885-0.513-17.945,0.493-26.794C63.786,65.603,64.479,58.353,68.748,53.424z"/>
<path d="M107.785,61.338c0.553,0.936,1.49,1.328,2.563,0.935c10.658-3.909,5.712-18.976-0.286-24.726
	c-1.377-1.321-3.15-1.049-4.729-0.253c-4.483,2.26-40.193,26.964-34.209,31.631c0.431,0.336,1.262-0.511,0.867-0.931
	c-0.415-0.442,13.94-11.321,15.138-12.156c5.425-3.784,11.162-7.718,17.263-10.466c1.597,2.406,2.641,5.04,2.989,7.994
	C107.697,56.049,106.321,58.857,107.785,61.338z"/>
<path d="M191.736,55.445c-10.048-0.04-18.001,13.892-17.589,22.801c0.522,11.262,12.684,15.723,22.264,15.532
	c12.835-0.256,23.927-10.75,24.404-23.561C221.324,56.565,202.153,48.31,191.736,55.445z M199.381,79.91
	c-3.943,0.355-9.401-1.046-11.218-4.929c-1.514-3.237-0.726-6.173,1.067-8.583c0.152,0.108,0.3,0.219,0.475,0.316
	c3.095,1.728,6.685,0.754,10.05,1.562c2.51,0.603,4.733,2.793,5.744,5.071C207.517,77.892,203.02,79.582,199.381,79.91z"/>
<path d="M395.87,51.744c-7.572-1.765-20.058,0.467-24.215,7.653c-5.117,3.682-8.872,10.274-9.879,15.611
	c-1.616,8.572,3.797,15.696,11.684,18.267c12.223,3.985,23.832-6.547,29.613-16.143C408.7,67.791,408.142,54.605,395.87,51.744z
	 M370.932,65.003c0.069,0.138,0.133,0.277,0.22,0.413C370.934,65.074,370.884,64.97,370.932,65.003z M390.658,71.976
	c-0.023,0.057-0.046,0.111-0.076,0.187c-0.264,0.664-0.583,1.305-0.907,1.942c-0.061,0.119-0.187,0.337-0.307,0.541
	c-0.316,0.47-0.646,0.93-0.986,1.382c-0.147,0.196-0.311,0.379-0.467,0.568c-0.244,0.261-0.832,0.906-1.056,1.114
	c-0.375,0.348-0.773,0.668-1.172,0.988c-0.04,0.025-0.07,0.044-0.118,0.075c-0.454,0.292-0.932,0.545-1.408,0.797
	c-0.131,0.037-0.322,0.096-0.6,0.189c-0.137,0.046-0.466,0.127-0.725,0.191c-0.515,0.067-1.032,0.108-1.55,0.125
	c1.808-0.059-2.63-0.741-1.541-0.322c-5.735-2.209-6.244-7.138-4.263-11.728c0.393,0.043,0.796,0.063,1.228,0.041
	c4.367-0.231,6.684-1.42,10.688-1.528c-0.387,0.047,1.066,0.202,1.946,0.339c0.203,0.073,0.463,0.167,0.605,0.24
	c0.119,0.06,0.214,0.106,0.297,0.146c0.016,0.016,0.025,0.028,0.045,0.047c0.273,0.262,0.447,0.404,0.555,0.475
	c-0.002,0.111,0.044,0.334,0.201,0.773c0.006,0.015,0.009,0.022,0.014,0.036c0.047,0.377,0.061,0.756,0.061,1.136
	C391.096,68.787,390.846,71.141,390.658,71.976z"/>
<path d="M163.805,237.362c0.411,8.804,0.824,17.609,1.022,26.42c0.183,8.138-0.131,16.393,1.482,24.418
	c1.115,5.549,3.319,14.285,8.715,17.311c6.008,3.369,14.659-3.21,19.536-6.313c2.922-1.859-0.732-10.593-3.079-9.099
	c-3.845,2.446-9.946,7.228-14.792,7.08c-6.282-0.192-6.172-13.335-6.326-17.714c-0.453-12.93-0.639-25.854-1.243-38.782
	c-0.085-1.825-0.991-5.164-2.888-5.96C164.31,233.915,163.726,235.676,163.805,237.362L163.805,237.362z"/>
<path d="M225.413,230.34c-7.415-2.132-6.137,7.55-6.022,12.05c0.193,7.574,0.82,15.118,1.838,22.607
	c-0.114,0.471-0.214,0.946-0.335,1.416c-1.243,4.852-2.807,9.623-4.661,14.275c-0.687,1.725-2.48,7.455-4.742,10.581
	c-0.071-0.228-0.141-0.454-0.194-0.666c-0.648-2.586-1.276-5.178-1.844-7.783c-1.04-4.77-1.903-9.584-2.397-14.444
	c-0.946-9.305-0.454-18.66,2.494-27.582c0.918-2.778-6.667-6.495-7.417-4.226c-5.042,15.259-3.16,31.074,0.424,46.434
	c1.37,5.871,1.94,13.651,8.858,15.53c6.505,1.767,9.024-6.044,11.025-10.695c0.703-1.634,1.367-3.287,1.996-4.952
	c1.112,4.995,2.391,9.954,3.842,14.869c0.698,2.364,8.391,5.423,7.368,1.957c-3.036-10.281-5.311-20.752-6.754-31.372
	c1.878-7.872,2.972-15.932,3.225-24.005C232.304,238.313,232.29,232.317,225.413,230.34z"/>
<path d="M300.225,298.135c-1.626-2.149-2.816-5.574-3.81-7.539c-1.701-3.361-3.273-6.796-4.485-10.367
	c-2.273-6.699-2.85-13.679-3.315-20.692c-0.662-9.988-0.56-28.996-11.478-34.012c-4.627-2.125-10.593,0-14.258,3.161
	c-4.162,3.59-4.619,9.444-5.361,14.634c-0.615-3.509-1.23-7.018-1.844-10.527c-0.571-3.258-12.565,0.923-11.798,5.298
	c3.157,18.019,6.314,36.037,9.472,54.056c0.593,3.386,12.014-1.105,11.897-4.515c-0.449-13.104,0.875-26.102,2.844-39.043
	c0.493-3.238,1.023-6.47,1.563-9.701c0.135-0.808,0.512-1.967,0.756-3.082c0.342,0.469,0.609,0.85,0.685,0.984
	c0.782,1.391,1.44,2.859,2.004,4.35c1.013,2.677,1.701,5.485,2.184,8.302c2,11.66,0.915,23.713,4.54,35.107
	c1.875,5.895,4.739,11.402,7.699,16.811c2.37,4.331,4.068,6.127,9.219,4.324c2.137-0.748,6.1-2.391,6.445-5.067
	c0.036-0.276,0.071-0.552,0.107-0.828C303.469,298.399,302.097,297.955,300.225,298.135z M268.124,232.982
	c-0.012,0.005-0.025,0.01-0.037,0.014C268.088,232.976,268.101,232.973,268.124,232.982z"/>
<path d="M404.72,257.427c-4.467-3.208-9.679-5.416-14.72-7.552c-2.085-0.884-4.055-1.719-5.943-2.609
	c-0.976-0.46-2.067-0.897-3.221-1.361c-2.753-1.104-6.523-2.616-7.603-4.271c-0.912-1.397-0.972-4.326-0.141-6.814
	c1.941-5.807,6.663-8.047,12.952-6.15c5.51,1.663,6.865-2.25,7.001-2.701c0.991-3.281-2.033-6.689-5.365-7.696l0,0
	c-13.084-3.947-23.893,0.645-27.54,11.7c-1.754,5.314-1.213,11.029,1.445,15.286c2.856,4.574,7.65,6.675,11.879,8.528
	c0.806,0.353,1.6,0.702,2.364,1.061c1.999,0.943,4,1.879,6.002,2.817c3.962,1.854,8.059,3.773,12.058,5.697
	c3.684,1.774,3.411,3.24,2.622,5.118c-0.875,2.084-2.513,4.168-4.738,6.028c-4.528,3.786-11.138,5.894-16.446,5.252
	c-0.901-0.11-1.4-0.384-1.627-1.574c-0.577-3.033,1.626-7.954,3.554-9c2.131-1.156,2.853-3.658,1.68-5.82
	c-1.511-2.785-7.137-5.701-10.696-3.764c-6.171,3.346-9.349,13.732-7.621,19.887c1.546,5.507,6.484,9.472,13.547,10.879
	c2.823,0.562,5.869,0.712,8.963,0.449c10.222-0.872,20.952-6.256,25.762-16.182C412.087,268.031,410.529,261.598,404.72,257.427z"/>
<path d="M351.419,280.02c-1.757,0.51-3.893,1.862-4.747,3.466c0.156-0.283-2.227,0.28-3.121,0.356
	c-1.78,0.242-3.568,0.394-5.281,0.36c-3.598,0.037-7.138-0.292-10.567-1.44c-2.684-0.852-5.576-2.046-7.302-4.33
	c-1.815-2.276-2.268-5.479-2.861-8.219c-0.826-3.351-1.368-6.546-1.732-9.756c0.439-0.127,0.871-0.344,1.4-0.479
	c5.257-1.708,10.694-2.352,16.238-1.744c2.638,0.315,4.874-7.258,2.966-7.456c-4.724-0.498-9.395-0.37-14.072,0.749
	c-2.383,0.563-4.646,1.476-7.006,2.308c-0.152-1.788-0.215-3.583-0.278-5.378c-0.143-4.85-1.173-9.534-1.308-14.294
	c10.65-1.808,21.196-3.787,31.808-6.042c1.944-0.436-1.02-3.514-1.512-4.013c-1.463-1.316-3.85-2.913-5.89-2.559
	c-13.36,2.759-26.743,5.25-40.157,7.383c-1.951,0.346,1.117,3.596,1.512,4.013c1.463,1.316,3.753,2.831,5.89,2.559
	c0.268-0.023,0.618-0.143,0.886-0.166c-0.165,3.345,0.214,6.734,0.682,10.116c0.364,3.21,0.459,6.443,0.554,9.676
	c-0.268,0.023-0.633-0.036-0.909-0.103c-2.638-0.315-4.874,7.258-2.966,7.456c1.453,0.146,2.891,0.114,4.232,0
	c0.386,3.478,1.138,7.016,1.971,10.456c0.871,3.887,1.423,8.252,4.543,11.047c5.657,5.1,15.059,5.559,22.218,5.039
	c6.436-0.548,13.973-1.911,17.314-8.138C354.785,279.373,352.208,279.772,351.419,280.02z"/>
<path d="M379.174,455.714c-0.04,0-0.079,0-0.119,0c-14.152,0.162-28.244,1.175-42.211,3.001
	c-3.248-21.554-3.495-43.691-3.732-65.183c-0.167-15.248-0.338-30.974-1.57-46.499l1.079-1.132l-1.212-0.502
	c-0.063-0.746-0.129-1.494-0.197-2.239c-0.359-3.923-3.09-7.426-6.795-8.716c-3.444-1.198-7.036-0.306-9.604,2.39
	c-0.385,0.403-0.768,0.807-1.151,1.212l-2.185-0.906l0.269,2.947c-15.839,16.996-30.357,35.463-43.192,54.952
	c-1.86,2.826-2.107,6.084-0.674,8.94c1.55,3.091,4.868,5.224,8.455,5.436c3.463,0.202,6.573-1.377,8.523-4.338v0.001
	c8.718-13.237,18.307-26.016,28.64-38.178c0.337,9.27,0.461,18.535,0.583,27.632c0.295,22.051,0.602,44.755,3.913,67.165
	c-13.022,2.42-25.907,5.557-38.594,9.425c-3.349,1.02-5.71,3.507-6.478,6.821c-0.806,3.477,0.325,7.265,2.88,9.652
	c1.672,1.562,3.768,2.374,6.002,2.374c0.948,0,1.921-0.146,2.898-0.443c30.709-9.363,62.487-14.296,94.447-14.661
	c5.389-0.062,9.405-4.259,9.341-9.762C388.427,459.73,384.432,455.714,379.174,455.714z"/>
</svg>
