<?xml version="1.0" encoding="utf-8"?>
<!-- Generator: Adobe Illustrator 23.0.1, SVG Export Plug-In . SVG Version: 6.00 Build 0)  -->
<svg version="1.1" id="Layer_1" xmlns="http://www.w3.org/2000/svg" xmlns:xlink="http://www.w3.org/1999/xlink" x="0px" y="0px"
	 viewBox="0 0 566.93 566.93" enable-background="new 0 0 566.93 566.93" xml:space="preserve">
<path d="M512.98,483.535c-34.554-38.183-47.053-90.894-59.3-139.491c-7.73-30.672-13.39-61.905-18.06-93.179
	c-2.269-15.188-3.892-30.44-5.694-45.686c-0.896-7.577-1.709-15.165-2.564-22.746c-0.839-7.421-0.241-16.179-3.271-23.046
	c-0.104-0.235-0.229-0.418-0.364-0.578c0.479,0.045,0.96,0.083,1.438,0.13c4.11,0.406,7.912-2.895,8.022-7.04
	c0.1-3.715-0.294-7.65-1.645-11.129c-0.3-0.774-0.848-1.402-1.517-1.862c0.988-0.007,1.977-0.011,2.964-0.02
	c1.671,0.024,3.195-0.754,4.387-1.907c6.629-1.911,12.527-11.307,6.159-15.398c-0.004-0.005-0.008-0.01-0.013-0.016
	c-0.347-0.743-0.598-1.537-0.832-2.316c-0.662-2.203-0.229-0.611-0.537-2.547c-0.292-1.833-0.461-3.687-0.611-5.536
	c-0.686-8.454-0.509-16.979-0.221-25.447c0.55-16.128,2.023-32.195,3.28-48.278c0.629-8.052-0.708-15.758-5.508-22.404
	c-4.54-6.286-13.12-9.139-20.432-10.411C401.254,1.6,383.42,6.084,366.017,6.907c-38.879,1.839-77.937,1.726-116.851,2.036
	c-19.188,0.153-38.376,0.287-57.563,0.439c-9.929,0.079-19.854,0.311-29.781,0.524c-9.534,0.204-19.386,0.371-28.617,2.847
	c-1.084,0.291-1.976,1.833-1.235,2.632c-8.426-4.499-22.07,1.927-29.358,6.106c-6.97,3.996-13.495,8.86-19.762,13.871
	c-4.989,3.99-9.761,7.737-12.978,13.28c-1.458,2.512,1.49,3.804,3.453,2.772c4.729-2.487,8.508-5.889,12.748-9.175
	c5.584-4.328,11.433-8.294,17.577-11.783c5.106-2.899,10.769-5.749,16.714-6.19c6.041-0.448,6.585,4.568,6.862,9.402
	c0.449,7.82-0.677,15.774-1.276,23.563c-0.708,9.207-0.425,18.334-0.15,27.563c0.661,22.293,1.861,44.52,1.847,66.828
	c-0.006,8.431,11.637,5.95,15.841-0.085c1.101-0.044,2.203-0.104,3.306-0.209c5.978-0.567,11.968-1.306,17.926-2.046
	c12.813-1.592,25.659-2.818,38.513-4.026c26.159-2.459,52.401-3.99,78.654-4.991c46.99-1.793,93.965-1.077,140.966-1.311
	c-0.856,0.167-1.716,0.294-2.576,0.313c-4.181,0.091-8.606,6.298-4.55,9.328c-7.813-0.217-15.671-0.865-23.412-0.792
	c-13.004,0.122-26.006,0.462-39.002,0.915c-25.592,0.893-51.166,2.229-76.729,3.741c-23.454,1.387-46.859,2.949-70.343,3.761
	c-11.508,0.398-22.992,0.996-34.44,2.273c-9.02,1.006-19.213,2.024-27.598,6.014c-1.392-0.469-3.73,0.538-4.479,1.579
	c-6.955,9.685-7.844,22.917-8.417,34.458c-0.647,13.032,0.333,26.066,1.315,39.056c1.199,15.849,1.454,31.794,2.516,47.661
	c1.089,16.286,2.593,32.523,4.613,48.721c3.966,31.796,10.554,63.079,17.906,94.242c3.629,15.384,7.34,30.747,11.285,46.053
	c3.137,12.176,7.033,24.29,12.782,35.502c0.942,1.837,1.949,3.639,2.903,5.469c-0.05,0.37-0.07,0.741-0.051,1.115
	c-0.468,0.115-0.932,0.23-1.381,0.351c-5.705,1.535-11.463,2.869-17.226,4.167c-0.532,0.12-1.066,0.233-1.6,0.352
	c0.289-1.941-0.043-4.129-0.601-5.77c-2.647-7.782-6.252-15.255-9.414-22.835c-4.515-10.823-6.887-22.441-9.326-33.877
	c-3.485-16.336-6.36-32.749-8.873-49.258c-4.866-31.981-9.614-63.969-14.688-95.917c-5.079-31.983-7.244-64.363-8.448-96.698
	c-1.738-46.654-0.808-93.602-4.609-140.153c-0.195-2.383-3.651-0.668-3.637,1.166c0.545,65.211-1.425,130.838,3.525,195.913
	c2.452,32.234,7.835,64.157,12.358,96.145c4.583,32.409,9.111,64.712,15.694,96.789c2.48,12.087,5.106,23.8,9.708,35.243
	c1.835,4.564,3.713,9.111,5.483,13.701c0.714,1.852,1.395,3.717,2.016,5.602c0.195,0.593,0.448,1.125,0.721,1.662
	c-0.035,0.17-0.06,0.339-0.072,0.507c-7.861,1.685-15.729,3.336-23.564,5.135c-0.558,0.128-1.114,0.261-1.671,0.391
	c-0.445-2.152-1.443-4.383-1.89-6.175c-1.497-6.008-2.311-12.184-3.071-18.319c-1.43-11.519-2.892-23.02-4.521-34.515
	c-3.128-22.073-6.371-44.13-9.537-66.198c-3.143-21.897-5.972-43.848-8.206-65.857c-2.27-22.347-3.245-44.725-4.472-67.141
	c-0.026-0.485-0.709-0.121-0.727,0.233c-2.207,44.098,2.824,88.77,8.121,132.495c2.607,21.527,5.68,42.998,8.52,64.495
	c1.439,10.894,2.996,21.797,4.025,32.738c0.89,9.46,1.825,19.226,4.214,28.504c-0.283,0.518-0.399,1.089-0.274,1.631
	c-8.097,2.041-16.127,4.349-23.984,7.182c-9.896,3.568-20.745,7.95-27.984,15.839c-2.463,2.684-1.627,5.133,0.396,6.272
	c-0.082,0.289-0.014,0.558,0.379,0.6c13.286,1.424,27.291-1.115,40.547-2.293c14.91-1.325,29.808-2.779,44.707-4.215
	c29.287-2.821,58.576-5.632,87.897-8.078c29.336-2.447,58.722-4.485,88.13-5.848c14.996-0.695,30.005-1.163,45.016-1.403
	c12.59-0.201,25.365,0.721,37.926,0.058c0.751-0.04,1.457-0.302,2.104-0.688l0,0c6.355-1.129,12.213-3.461,18.188-5.908
	c9.424-3.861,18.785-7.875,28.096-12.002c8.565-3.798,17.115-7.702,25.525-11.835c2.272-1.117,4.54-2.275,6.727-3.56
	c2.43-0.155,4.868-0.42,7.427-0.607c5.076-0.371,9.915-4.678,10.977-9.633c0.334-1.558,0.182-3.02-0.335-4.271
	C514.918,489.702,515.498,486.317,512.98,483.535z M443.319,121.271C443.164,121.032,443.099,120.897,443.319,121.271
	L443.319,121.271z M284.142,129.73c-26.298,1.147-52.57,2.92-78.766,5.511c-12.928,1.278-25.822,2.966-38.681,4.811
	c-6.076,0.872-12.137,1.983-18.162,3.152c-1.235,0.24-2.443,0.532-3.643,0.845c-0.084-23.497-1.338-46.883-2.699-70.343
	c-0.531-9.169-0.688-18.154-0.603-27.325c0.077-8.309-0.967-16.932-4.118-24.6c-1.164-2.832-2.846-4.767-4.859-6.021
	c6.776,2.143,14.349,2.5,21.455,2.686c8.518,0.222,17.034,0.452,25.551,0.683c16.448,0.448,32.922,0.539,49.376,0.701
	c32.952,0.324,65.904,0.493,98.857,0.205c14.014-0.123,28.141,0.129,42.125-0.872c8.858-0.634,17.692-1.544,26.577-1.748
	c7.485-0.171,15.621,0.105,22.512,3.333c6.463,3.027,8.774,9.766,9.067,16.664c0.061,1.405-0.031,2.797-0.144,4.193
	c-0.028,0.332-0.072,0.854-0.086,1.012c-0.081,0.924-0.164,1.847-0.247,2.771c-0.362,4.045-0.729,8.09-1.079,12.137
	c-0.936,10.835-1.773,21.68-2.277,32.545c-0.437,9.408-0.72,18.917,0.127,28.31c0.25,2.778,0.565,6.086,1.396,9.185
	C378.602,127.266,331.312,127.672,284.142,129.73z M175.791,432.707c-3.769-15.48-7.467-30.976-10.808-46.555
	c-6.792-31.677-10.854-63.791-13.888-96.024c-1.52-16.141-2.511-32.312-3.668-48.48c-0.927-12.943-2.691-25.802-3.483-38.767
	c-0.698-11.431,0.541-22.472,1.178-33.76c8.862-0.328,17.992-2.647,26.782-3.397c10.836-0.924,21.738-1.179,32.606-1.431
	c23.435-0.544,46.787-1.777,70.192-3.061c24.879-1.365,49.77-2.598,74.679-3.241c23.813-0.615,47.947-1.43,71.736,0.582
	c-1.032,0.546-1.965,1.59-2.218,2.487c-2.021,7.156-1.006,15.051-0.987,22.444c0.021,7.807,0.201,15.601,0.489,23.402
	c0.597,16.134,2.032,32.257,3.62,48.32c3.186,32.229,8.646,64.085,15.895,95.645c10.686,46.534,23.123,97.156,52.97,135.657
	c-0.191,0.88-0.196,1.787,0.05,2.655c0.118,0.417,0.252,0.795,0.394,1.156c-7.715,1.084-15.414,2.309-23.156,3.13
	c-12.802,1.357-25.596,2.785-38.387,4.236c-26.755,3.034-53.492,6.215-80.247,9.247c-26.022,2.949-52.064,5.627-78.15,7.97
	c-12.706,1.141-25.422,2.169-38.147,3.077c-8.457,0.603-16.979,0.969-25.464,1.594c0.073-1.015-0.035-2.02-0.396-2.961
	c-0.642-1.674-1.889-2.718-3.377-3.25c-0.258-2.464-1.457-4.903-3.045-7.157c-1.729-2.454-4.851-6.103-5.567-7.734
	c-2.992-6.812-5.791-13.56-7.99-20.688C182.833,462.99,179.454,447.759,175.791,432.707z M459.196,513.556
	c-13.881,6.339-28.698,11.375-42.052,18.801c-0.329-0.05-0.692-0.071-1.101-0.049c-0.025,0.001-0.05,0.003-0.075,0.004
	c-11.277-0.521-22.786,0.209-34.058,0.428c-15.039,0.293-30.071,0.886-45.093,1.671c-30.174,1.577-60.271,4.114-90.342,7.039
	c-29.423,2.862-58.806,6.136-88.189,9.376c-14.952,1.648-29.908,3.267-44.862,4.906c-10.388,1.138-21.177,1.623-31.637,3.252
	c6.027-2.91,11.956-5.81,18.504-7.922c10.479-3.381,21.29-5.768,32.079-7.917c11.237-2.238,22.53-4.188,33.781-6.36
	c5.532-1.069,11.053-2.2,16.547-3.448c2.134-0.485,4.357-1.214,6.596-1.884c0.363,0.184,0.78,0.306,1.271,0.33
	c24.634,1.212,49.814-1.631,74.364-3.515c26.607-2.042,53.182-4.6,79.745-7.147c26.665-2.557,53.316-5.259,79.978-7.865
	c12.76-1.247,25.522-2.461,38.29-3.621c1.997-0.181,3.989-0.385,5.979-0.596C465.697,510.578,462.448,512.071,459.196,513.556z"/>
<path d="M68.748,53.424c1.949-2.25-0.489-4.763-2.926-3.335c-6.554,3.84-8.802,10.55-10.946,17.42
	c-2.785,8.918-2.787,18.966-2.723,28.226c0.132,18.925,2.617,37.721,3.609,56.601c1.739,33.114-0.813,66.271-1.502,99.378
	c-0.684,32.874,1.797,65.724,2.822,98.572c1.021,32.746,1.523,65.504,1.992,98.261c0.232,16.285,0.504,32.57,0.795,48.854
	c0.15,8.424,0.36,16.847,0.467,25.272c0.072,5.716,0.509,11.624,0.399,17.438c-3.345,2.126-5.632,6.456-3.089,9.675
	c2.092,2.649,3.088,4.459,6.691,5.252c6.516,1.433,12.408-5.82,11.072-11.799c-1.641-7.344-1.059-15.517-1.315-23.024
	c-0.286-8.401-0.451-16.806-0.641-25.209c-0.367-16.253-0.677-32.507-1.058-48.76c-0.764-32.667-1.602-65.333-2.8-97.987
	c-1.202-32.767-3.896-65.525-3.622-98.325c0.275-33.026,2.328-66.034,0.631-99.057c-0.898-17.469-3.266-34.819-4.016-52.299
	c-0.381-8.885-0.513-17.945,0.493-26.794C63.786,65.603,64.479,58.353,68.748,53.424z"/>
<path d="M107.785,61.338c0.553,0.936,1.49,1.328,2.563,0.935c10.658-3.909,5.712-18.976-0.286-24.726
	c-1.377-1.321-3.15-1.049-4.729-0.253c-4.483,2.26-40.193,26.964-34.209,31.631c0.431,0.336,1.262-0.511,0.867-0.931
	c-0.415-0.442,13.94-11.321,15.138-12.156c5.425-3.784,11.162-7.718,17.263-10.466c1.597,2.406,2.641,5.04,2.989,7.994
	C107.697,56.049,106.321,58.857,107.785,61.338z"/>
<path d="M191.736,55.445c-10.048-0.04-18.001,13.892-17.589,22.801c0.522,11.262,12.684,15.723,22.264,15.532
	c12.835-0.256,23.927-10.75,24.404-23.561C221.324,56.565,202.153,48.31,191.736,55.445z M199.381,79.91
	c-3.943,0.355-9.401-1.046-11.218-4.929c-1.514-3.237-0.726-6.173,1.067-8.583c0.152,0.108,0.3,0.219,0.475,0.316
	c3.095,1.728,6.685,0.754,10.05,1.562c2.51,0.603,4.733,2.793,5.744,5.071C207.517,77.892,203.02,79.582,199.381,79.91z"/>
<path d="M395.87,51.744c-7.572-1.765-20.058,0.467-24.215,7.653c-5.117,3.682-8.872,10.274-9.879,15.611
	c-1.616,8.572,3.797,15.696,11.684,18.267c12.223,3.985,23.832-6.547,29.613-16.143C408.7,67.791,408.142,54.605,395.87,51.744z
	 M370.932,65.003c0.069,0.138,0.133,0.277,0.22,0.413C370.934,65.074,370.884,64.97,370.932,65.003z M390.658,71.976
	c-0.023,0.057-0.046,0.111-0.076,0.187c-0.264,0.664-0.583,1.305-0.907,1.942c-0.061,0.119-0.187,0.337-0.307,0.541
	c-0.316,0.47-0.646,0.93-0.986,1.382c-0.147,0.196-0.311,0.379-0.467,0.568c-0.244,0.261-0.832,0.906-1.056,1.114
	c-0.375,0.348-0.773,0.668-1.172,0.988c-0.04,0.025-0.07,0.044-0.118,0.075c-0.454,0.292-0.932,0.545-1.408,0.797
	c-0.131,0.037-0.322,0.096-0.6,0.189c-0.137,0.046-0.466,0.127-0.725,0.191c-0.515,0.067-1.032,0.108-1.55,0.125
	c1.808-0.059-2.63-0.741-1.541-0.322c-5.735-2.209-6.244-7.138-4.263-11.728c0.393,0.043,0.796,0.063,1.228,0.041
	c4.367-0.231,6.684-1.42,10.688-1.528c-0.387,0.047,1.066,0.202,1.946,0.339c0.203,0.073,0.463,0.167,0.605,0.24
	c0.119,0.06,0.214,0.106,0.297,0.146c0.016,0.016,0.025,0.028,0.045,0.047c0.273,0.262,0.447,0.404,0.555,0.475
	c-0.002,0.111,0.044,0.334,0.201,0.773c0.006,0.015,0.009,0.022,0.014,0.036c0.047,0.377,0.061,0.756,0.061,1.136
	C391.096,68.787,390.846,71.141,390.658,71.976z"/>
<path d="M335.671,294.191c-1.113-1.534-1.901-3.961-2.573-5.357c-1.148-2.388-2.205-4.827-3.007-7.356
	c-1.503-4.744-1.81-9.662-2.037-14.602c-0.323-7.035,0.02-20.404-7.588-24.088c-3.224-1.561-7.451-0.151-10.074,2.02
	c-2.979,2.466-3.384,6.577-3.98,10.217c-0.382-2.477-0.765-4.954-1.147-7.431c-0.355-2.3-8.851,0.47-8.375,3.558
	c1.964,12.719,3.928,25.439,5.891,38.158c0.369,2.39,8.466-0.606,8.433-3.006c-0.129-9.223,0.988-18.348,2.557-27.422
	c0.393-2.271,0.812-4.537,1.238-6.801c0.107-0.567,0.388-1.376,0.576-2.157c0.234,0.335,0.416,0.607,0.468,0.702
	c0.53,0.989,0.972,2.032,1.348,3.089c0.674,1.898,1.118,3.882,1.418,5.871c1.241,8.23,0.306,16.693,2.693,24.759
	c1.235,4.173,3.171,8.088,5.176,11.935c1.605,3.08,2.774,4.368,6.423,3.173c1.514-0.496,4.325-1.595,4.605-3.472
	c0.029-0.194,0.058-0.387,0.087-0.581C337.949,294.423,336.99,294.091,335.671,294.191z M314.02,247.905
	c-0.009,0.003-0.018,0.006-0.026,0.009C313.995,247.9,314.004,247.898,314.02,247.905z"/>
<path d="M190.654,254.927c-1.984,8.787-6.436,17.481-8.343,26.436c-4.068-7.097-7.846-14.349-11.165-21.884
	c-1.011-2.296-4.173-3.825-6.519-4.203c-1.647-0.266-4.442,0.051-3.402,2.411c5.857,13.297,13.108,25.731,20.951,37.939
	c1.328,2.067,3.464,3.457,5.855,4.033c1.047,0.252,4.723,0.742,4.3-1.421c-2.612-13.369,5.603-25.772,8.46-38.427
	C201.675,255.892,191.371,251.751,190.654,254.927z"/>
<path d="M293.684,281.935c-3.068-0.497-6.132-0.931-9.2-1.427c-2.237-0.361-4.726-0.706-6.533-2.233
	c0.741-1.25,3.315-3.504,4.139-4.443c2.179-2.481,4.09-5.198,5.217-8.307c1.928-5.375,1.261-14.692-2.938-18.973
	c-5.016-5.177-11.144,0.786-14.091,5.088c-1.326,1.983-2.644,4.093-3.832,6.257c-0.34-2.318-0.747-4.695-1.213-7.005
	c-0.383-1.999-2.087-1.952-3.202-0.615c-1.468,1.74-1.663,4.598-1.268,6.786c0.844,4.246,1.437,8.508,1.967,12.775
	c-0.026,0.571-0.052,1.142-0.012,1.772c0.029,0.441,0.112,0.752,0.317,0.991c0.057,0.882,0.173,1.696,0.23,2.578
	c0.23,2.578,0.398,5.16,0.754,7.731c0.432,2.755,1.245,5.548,1.488,8.315c-0.511,1.867-0.377,3.946,0.839,5.132l0.067,0.059
	c1.148,1.127,2.596-0.927,2.988-1.712c1.559-3.263,1.062-7.026,0.523-10.47c-0.619-3.691-1.359-7.312-1.663-11.024
	c-0.069-1.071-0.202-2.137-0.271-3.208c0.934-1.199,1.604-2.571,1.586-3.834c-0.156-4.354,1.643-7.823,3.875-11.446
	c0.8-1.317,0.991-2.278,2.724-1.884c2.056,0.499,3.262,2.508,3.951,4.361c1.153,3.151,2.5,8.313,0.869,11.455
	c-1.466,2.751-4.363,4.9-6.223,7.424c-1.57,2.126-4.773,6.381-3.514,9.209c1.317,2.761,6.791,3.291,9.406,3.628
	c3.682,0.557,7.344,1.147,10.997,1.777C297.009,291.613,299.95,282.984,293.684,281.935z"/>
<path d="M409.753,267.047c-3.096-2.32-6.731-3.948-10.246-5.522c-1.454-0.652-2.828-1.267-4.143-1.92
	c-0.68-0.338-1.441-0.661-2.247-1.003c-1.921-0.816-4.551-1.933-5.287-3.113c-0.621-0.996-0.622-3.057-0.002-4.795
	c1.448-4.057,4.801-5.566,9.198-4.141c3.852,1.249,4.861-1.485,4.963-1.8c0.744-2.294-1.334-4.734-3.664-5.49l0,0
	c-9.147-2.963-16.816,0.113-19.539,7.837c-1.31,3.713-1.011,7.74,0.798,10.773c1.944,3.258,5.286,4.804,8.234,6.168
	c0.562,0.26,1.116,0.516,1.648,0.78c1.393,0.692,2.787,1.379,4.181,2.067c2.76,1.361,5.615,2.769,8.4,4.179
	c2.566,1.301,2.353,2.328,1.771,3.637c-0.645,1.453-1.827,2.896-3.418,4.173c-3.239,2.598-7.918,3.987-11.643,3.459
	c-0.632-0.09-0.98-0.29-1.122-1.13c-0.363-2.142,1.257-5.572,2.628-6.28c1.515-0.783,2.059-2.532,1.265-4.07
	c-1.023-1.981-4.939-4.112-7.47-2.8c-4.388,2.266-6.772,9.526-5.644,13.88c1.009,3.896,4.426,6.755,9.374,7.845
	c1.978,0.436,4.118,0.585,6.299,0.443c7.202-0.467,14.827-4.102,18.352-11.015C414.784,274.611,413.78,270.064,409.753,267.047z"/>
<path d="M371.939,282.179c-1.243,0.334-2.765,1.254-3.388,2.37c0.114-0.197-1.57,0.165-2.2,0.206
	c-1.256,0.145-2.515,0.226-3.72,0.178c-2.532-0.026-5.016-0.307-7.412-1.164c-1.875-0.637-3.893-1.519-5.074-3.15
	c-1.244-1.627-1.517-3.886-1.895-5.822c-0.533-2.369-0.869-4.624-1.079-6.887c0.311-0.083,0.618-0.23,0.991-0.317
	c3.722-1.127,7.556-1.502,11.447-0.995c1.851,0.259,3.532-5.036,2.193-5.202c-3.316-0.418-6.603-0.394-9.909,0.326
	c-1.684,0.362-3.289,0.972-4.961,1.523c-0.082-1.26-0.1-2.523-0.119-3.787c-0.032-3.413-0.689-6.723-0.716-10.073
	c7.517-1.12,14.963-2.361,22.46-3.796c1.373-0.279-0.667-2.487-1.007-2.844c-1.01-0.946-2.666-2.104-4.107-1.884
	c-9.437,1.75-18.886,3.311-28.351,4.621c-1.377,0.216,0.734,2.546,1.007,2.844c1.01,0.946,2.599,2.045,4.107,1.884
	c0.189-0.012,0.437-0.092,0.626-0.104c-0.164,2.351,0.054,4.74,0.335,7.125c0.21,2.263,0.231,4.539,0.252,6.814
	c-0.189,0.012-0.445-0.034-0.638-0.085c-1.851-0.259-3.532,5.036-2.193,5.202c1.02,0.124,2.032,0.121,2.977,0.06
	c0.222,2.452,0.7,4.951,1.238,7.383c0.558,2.747,0.884,5.825,3.038,7.835c3.906,3.668,10.513,4.125,15.556,3.862
	c4.535-0.294,9.856-1.145,12.294-5.477C374.316,281.772,372.498,282.016,371.939,282.179z"/>
<path d="M208.064,252.521c0.361,7.849,0.746,15.71,2.097,23.464c0.656,3.766,1.558,7.499,1.967,11.304
	c0.329,3.065-0.224,6.052,1.546,8.728c0.566,0.856,2.446,3.35,3.752,2.828c1.36-0.544,0.454-2.393-0.115-3.251
	c0.566,0.855,0.331-0.498,0.352-0.847c0.046-0.767-0.059-1.582-0.119-2.347c-0.14-1.762-0.414-3.51-0.715-5.25
	c-0.576-3.327-1.313-6.625-1.811-9.966c-1.022-6.86-1.333-13.802-1.651-20.722c-0.076-1.645-1.476-3.379-2.766-4.294
	C209.815,251.609,207.986,250.824,208.064,252.521L208.064,252.521z"/>
<path d="M258.908,290.444c-1.243,0.334-2.765,1.254-3.388,2.37c0.114-0.197-1.57,0.165-2.2,0.206
	c-1.256,0.145-2.515,0.226-3.72,0.178c-2.532-0.026-5.016-0.307-7.412-1.164c-1.875-0.637-3.893-1.519-5.074-3.15
	c-1.244-1.627-1.517-3.886-1.895-5.822c-0.533-2.369-0.869-4.624-1.079-6.887c0.311-0.083,0.618-0.23,0.991-0.317
	c3.722-1.127,7.556-1.502,11.447-0.995c1.851,0.259,3.532-5.036,2.193-5.202c-3.316-0.418-6.603-0.394-9.909,0.326
	c-1.684,0.362-3.289,0.972-4.961,1.523c-0.082-1.26-0.1-2.523-0.119-3.787c-0.032-3.413-0.689-6.723-0.716-10.073
	c7.517-1.12,14.963-2.361,22.46-3.796c1.373-0.279-0.667-2.487-1.007-2.844c-1.01-0.946-2.666-2.104-4.107-1.884
	c-9.437,1.75-18.886,3.311-28.351,4.621c-1.377,0.216,0.734,2.546,1.007,2.844c1.01,0.946,2.599,2.045,4.107,1.884
	c0.189-0.012,0.437-0.092,0.626-0.104c-0.164,2.351,0.054,4.74,0.335,7.125c0.21,2.263,0.231,4.539,0.252,6.814
	c-0.189,0.012-0.445-0.034-0.638-0.085c-1.851-0.259-3.532,5.036-2.193,5.202c1.02,0.124,2.032,0.121,2.977,0.06
	c0.222,2.452,0.7,4.951,1.238,7.383c0.558,2.747,0.884,5.825,3.038,7.835c3.906,3.668,10.514,4.125,15.556,3.862
	c4.535-0.294,9.856-1.145,12.294-5.477C261.285,290.037,259.466,290.281,258.908,290.444z"/>
<path d="M372.58,419.641c-4.466-10.413-16.623-15.742-37.166-16.293c-8.356-0.229-17.131,0.647-26.837,2.664
	c-3.191,0.663-6.387,1.501-9.477,2.311c-4.002,1.048-8.096,2.112-12.219,2.808c-0.027-2.84-0.042-5.677-0.057-8.467
	c-0.068-13.579-0.14-27.563-1.673-41.202l72.254-8.183c5.281-0.599,7.57-5.101,7.102-9.239c-0.494-4.371-4.121-8.668-9.843-8.02
	l-81.713,9.255c-2.971,0.336-5.321,2.013-6.447,4.6c-1.267,2.907-0.806,6.637,1.147,9.28c0.476,0.644,1.028,1.192,1.632,1.663
	c0.632,6.19,0.721,12.535,0.798,18.708c0.028,2.27,0.057,4.533,0.111,6.786l0.747,31.011c0.129,5.338,5.439,9.368,10.004,9.367
	c0.062,0,0.124,0,0.185-0.002c2.47-0.06,17.49-5.6,23.395-7.011c8.329-1.989,16.942-4.046,25.683-4.251
	c9.566-0.221,17.968,0.962,24.955,3.523c7.677,2.813,9.473,8.103,10.243,17.503c1.396,17.037-13.525,28.889-27.956,34.299
	c-11.031,4.137-22.315,3.835-34.268,3.513c-6.003-0.161-12.207-0.326-18.338,0.129c-1.941,0.144-3.593,1.343-4.532,3.29
	c-1.095,2.27-1.008,5.105,0.21,6.895c0.901,1.324,2.346,2.019,3.981,1.893c6.038-0.447,12.276-0.251,18.308-0.06
	c3.358,0.106,6.756,0.214,10.169,0.214c6.865,0,13.795-0.436,20.606-2.194c14.436-3.729,27.311-12.228,35.323-23.317
	C376.964,449.964,378.44,433.298,372.58,419.641z"/>
</svg>
