<?xml version="1.0" encoding="utf-8"?>
<!-- Generator: Adobe Illustrator 23.0.1, SVG Export Plug-In . SVG Version: 6.00 Build 0)  -->
<svg version="1.1" id="Layer_1" xmlns="http://www.w3.org/2000/svg" xmlns:xlink="http://www.w3.org/1999/xlink" x="0px" y="0px"
	 viewBox="0 0 566.93 566.93" enable-background="new 0 0 566.93 566.93" xml:space="preserve">
<path d="M512.98,483.535c-34.554-38.183-47.053-90.894-59.3-139.491c-7.73-30.672-13.39-61.905-18.06-93.179
	c-2.269-15.188-3.892-30.44-5.694-45.686c-0.896-7.577-1.709-15.165-2.564-22.746c-0.839-7.421-0.241-16.179-3.271-23.046
	c-0.104-0.235-0.229-0.418-0.364-0.578c0.479,0.045,0.96,0.083,1.438,0.13c4.11,0.406,7.912-2.895,8.022-7.04
	c0.1-3.715-0.294-7.65-1.645-11.129c-0.3-0.774-0.848-1.402-1.517-1.862c0.988-0.007,1.977-0.011,2.964-0.02
	c1.671,0.024,3.195-0.754,4.387-1.907c6.629-1.911,12.527-11.307,6.159-15.398c-0.004-0.005-0.008-0.01-0.013-0.016
	c-0.347-0.743-0.598-1.537-0.832-2.316c-0.662-2.203-0.229-0.611-0.537-2.547c-0.292-1.833-0.461-3.687-0.611-5.536
	c-0.686-8.454-0.509-16.979-0.221-25.447c0.55-16.128,2.023-32.195,3.28-48.278c0.629-8.052-0.708-15.758-5.508-22.404
	c-4.54-6.286-13.12-9.139-20.432-10.411C401.254,1.6,383.42,6.084,366.017,6.907c-38.879,1.839-77.937,1.726-116.851,2.036
	c-19.188,0.153-38.376,0.287-57.563,0.439c-9.929,0.079-19.854,0.311-29.781,0.524c-9.534,0.204-19.386,0.371-28.617,2.847
	c-1.084,0.291-1.976,1.833-1.235,2.632c-8.426-4.499-22.07,1.927-29.358,6.106c-6.97,3.996-13.495,8.86-19.762,13.871
	c-4.989,3.99-9.761,7.737-12.978,13.28c-1.458,2.512,1.49,3.804,3.453,2.772c4.729-2.487,8.508-5.889,12.748-9.175
	c5.584-4.328,11.433-8.294,17.577-11.783c5.106-2.899,10.769-5.749,16.714-6.19c6.041-0.448,6.585,4.568,6.862,9.402
	c0.449,7.82-0.677,15.774-1.276,23.563c-0.708,9.207-0.425,18.334-0.15,27.563c0.661,22.293,1.861,44.52,1.847,66.828
	c-0.006,8.431,11.637,5.95,15.841-0.085c1.101-0.044,2.203-0.104,3.306-0.209c5.978-0.567,11.968-1.306,17.926-2.046
	c12.813-1.592,25.659-2.818,38.513-4.026c26.159-2.459,52.401-3.99,78.654-4.991c46.99-1.793,93.965-1.077,140.966-1.311
	c-0.856,0.167-1.716,0.294-2.576,0.313c-4.181,0.091-8.606,6.298-4.55,9.328c-7.813-0.217-15.671-0.865-23.412-0.792
	c-13.004,0.122-26.006,0.462-39.002,0.915c-25.592,0.893-51.166,2.229-76.729,3.741c-23.454,1.387-46.859,2.949-70.343,3.761
	c-11.508,0.398-22.992,0.996-34.44,2.273c-9.02,1.006-19.213,2.024-27.598,6.014c-1.392-0.469-3.73,0.538-4.479,1.579
	c-6.955,9.685-7.844,22.917-8.417,34.458c-0.647,13.032,0.333,26.066,1.315,39.056c1.199,15.849,1.454,31.794,2.516,47.661
	c1.089,16.286,2.593,32.523,4.613,48.721c3.966,31.796,10.554,63.079,17.906,94.242c3.629,15.384,7.34,30.747,11.285,46.053
	c3.137,12.176,7.033,24.29,12.782,35.502c0.942,1.837,1.949,3.639,2.903,5.469c-0.05,0.37-0.07,0.741-0.051,1.115
	c-0.468,0.115-0.932,0.23-1.381,0.351c-5.705,1.535-11.463,2.869-17.226,4.167c-0.532,0.12-1.066,0.233-1.6,0.352
	c0.289-1.941-0.043-4.129-0.601-5.77c-2.647-7.782-6.252-15.255-9.414-22.835c-4.515-10.823-6.887-22.441-9.326-33.877
	c-3.485-16.336-6.36-32.749-8.873-49.258c-4.866-31.981-9.614-63.969-14.688-95.917c-5.079-31.983-7.244-64.363-8.448-96.698
	c-1.738-46.654-0.808-93.602-4.609-140.153c-0.195-2.383-3.651-0.668-3.637,1.166c0.545,65.211-1.425,130.838,3.525,195.913
	c2.452,32.234,7.835,64.157,12.358,96.145c4.583,32.409,9.111,64.712,15.694,96.789c2.48,12.087,5.106,23.8,9.708,35.243
	c1.835,4.564,3.713,9.111,5.483,13.701c0.714,1.852,1.395,3.717,2.016,5.602c0.195,0.593,0.448,1.125,0.721,1.662
	c-0.035,0.17-0.06,0.339-0.072,0.507c-7.861,1.685-15.729,3.336-23.564,5.135c-0.558,0.128-1.114,0.261-1.671,0.391
	c-0.445-2.152-1.443-4.383-1.89-6.175c-1.497-6.008-2.311-12.184-3.071-18.319c-1.43-11.519-2.892-23.02-4.521-34.515
	c-3.128-22.073-6.371-44.13-9.537-66.198c-3.143-21.897-5.972-43.848-8.206-65.857c-2.27-22.347-3.245-44.725-4.472-67.141
	c-0.026-0.485-0.709-0.121-0.727,0.233c-2.207,44.098,2.824,88.77,8.121,132.495c2.607,21.527,5.68,42.998,8.52,64.495
	c1.439,10.894,2.996,21.797,4.025,32.738c0.89,9.46,1.825,19.226,4.214,28.504c-0.283,0.518-0.399,1.089-0.274,1.631
	c-8.097,2.041-16.127,4.349-23.984,7.182c-9.896,3.568-20.745,7.95-27.984,15.839c-2.463,2.684-1.627,5.133,0.396,6.272
	c-0.082,0.289-0.014,0.558,0.379,0.6c13.286,1.424,27.291-1.115,40.547-2.293c14.91-1.325,29.808-2.779,44.707-4.215
	c29.287-2.821,58.576-5.632,87.897-8.078c29.336-2.447,58.722-4.485,88.13-5.848c14.996-0.695,30.005-1.163,45.016-1.403
	c12.59-0.201,25.365,0.721,37.926,0.058c0.751-0.04,1.457-0.302,2.104-0.688l0,0c6.355-1.129,12.213-3.461,18.188-5.908
	c9.424-3.861,18.785-7.875,28.096-12.002c8.565-3.798,17.115-7.702,25.525-11.835c2.272-1.117,4.54-2.275,6.727-3.56
	c2.43-0.155,4.868-0.42,7.427-0.607c5.076-0.371,9.915-4.678,10.977-9.633c0.334-1.558,0.182-3.02-0.335-4.271
	C514.918,489.702,515.498,486.317,512.98,483.535z M443.319,121.271C443.164,121.032,443.099,120.897,443.319,121.271
	L443.319,121.271z M284.142,129.73c-26.298,1.147-52.57,2.92-78.766,5.511c-12.928,1.278-25.822,2.966-38.681,4.811
	c-6.076,0.872-12.137,1.983-18.162,3.152c-1.235,0.24-2.443,0.532-3.643,0.845c-0.084-23.497-1.338-46.883-2.699-70.343
	c-0.531-9.169-0.688-18.154-0.603-27.325c0.077-8.309-0.967-16.932-4.118-24.6c-1.164-2.832-2.846-4.767-4.859-6.021
	c6.776,2.143,14.349,2.5,21.455,2.686c8.518,0.222,17.034,0.452,25.551,0.683c16.448,0.448,32.922,0.539,49.376,0.701
	c32.952,0.324,65.904,0.493,98.857,0.205c14.014-0.123,28.141,0.129,42.125-0.872c8.858-0.634,17.692-1.544,26.577-1.748
	c7.485-0.171,15.621,0.105,22.512,3.333c6.463,3.027,8.774,9.766,9.067,16.664c0.061,1.405-0.031,2.797-0.144,4.193
	c-0.028,0.332-0.072,0.854-0.086,1.012c-0.081,0.924-0.164,1.847-0.247,2.771c-0.362,4.045-0.729,8.09-1.079,12.137
	c-0.936,10.835-1.773,21.68-2.277,32.545c-0.437,9.408-0.72,18.917,0.127,28.31c0.25,2.778,0.565,6.086,1.396,9.185
	C378.602,127.266,331.312,127.672,284.142,129.73z M175.791,432.707c-3.769-15.48-7.467-30.976-10.808-46.555
	c-6.792-31.677-10.854-63.791-13.888-96.024c-1.52-16.141-2.511-32.312-3.668-48.48c-0.927-12.943-2.691-25.802-3.483-38.767
	c-0.698-11.431,0.541-22.472,1.178-33.76c8.862-0.328,17.992-2.647,26.782-3.397c10.836-0.924,21.738-1.179,32.606-1.431
	c23.435-0.544,46.787-1.777,70.192-3.061c24.879-1.365,49.77-2.598,74.679-3.241c23.813-0.615,47.947-1.43,71.736,0.582
	c-1.032,0.546-1.965,1.59-2.218,2.487c-2.021,7.156-1.006,15.051-0.987,22.444c0.021,7.807,0.201,15.601,0.489,23.402
	c0.597,16.134,2.032,32.257,3.62,48.32c3.186,32.229,8.646,64.085,15.895,95.645c10.686,46.534,23.123,97.156,52.97,135.657
	c-0.191,0.88-0.196,1.787,0.05,2.655c0.118,0.417,0.252,0.795,0.394,1.156c-7.715,1.084-15.414,2.309-23.156,3.13
	c-12.802,1.357-25.596,2.785-38.387,4.236c-26.755,3.034-53.492,6.215-80.247,9.247c-26.022,2.949-52.064,5.627-78.15,7.97
	c-12.706,1.141-25.422,2.169-38.147,3.077c-8.457,0.603-16.979,0.969-25.464,1.594c0.073-1.015-0.035-2.02-0.396-2.961
	c-0.642-1.674-1.889-2.718-3.377-3.25c-0.258-2.464-1.457-4.903-3.045-7.157c-1.729-2.454-4.851-6.103-5.567-7.734
	c-2.992-6.812-5.791-13.56-7.99-20.688C182.833,462.99,179.454,447.759,175.791,432.707z M459.196,513.556
	c-13.881,6.339-28.698,11.375-42.052,18.801c-0.329-0.05-0.692-0.071-1.101-0.049c-0.025,0.001-0.05,0.003-0.075,0.004
	c-11.277-0.521-22.786,0.209-34.058,0.428c-15.039,0.293-30.071,0.886-45.093,1.671c-30.174,1.577-60.271,4.114-90.342,7.039
	c-29.423,2.862-58.806,6.136-88.189,9.376c-14.952,1.648-29.908,3.267-44.862,4.906c-10.388,1.138-21.177,1.623-31.637,3.252
	c6.027-2.91,11.956-5.81,18.504-7.922c10.479-3.381,21.29-5.768,32.079-7.917c11.237-2.238,22.53-4.188,33.781-6.36
	c5.532-1.069,11.053-2.2,16.547-3.448c2.134-0.485,4.357-1.214,6.596-1.884c0.363,0.184,0.78,0.306,1.271,0.33
	c24.634,1.212,49.814-1.631,74.364-3.515c26.607-2.042,53.182-4.6,79.745-7.147c26.665-2.557,53.316-5.259,79.978-7.865
	c12.76-1.247,25.522-2.461,38.29-3.621c1.997-0.181,3.989-0.385,5.979-0.596C465.697,510.578,462.448,512.071,459.196,513.556z"/>
<path d="M68.748,53.424c1.949-2.25-0.489-4.763-2.926-3.335c-6.554,3.84-8.802,10.55-10.946,17.42
	c-2.785,8.918-2.787,18.966-2.723,28.226c0.132,18.925,2.617,37.721,3.609,56.601c1.739,33.114-0.813,66.271-1.502,99.378
	c-0.684,32.874,1.797,65.724,2.822,98.572c1.021,32.746,1.523,65.504,1.992,98.261c0.232,16.285,0.504,32.57,0.795,48.854
	c0.15,8.424,0.36,16.847,0.467,25.272c0.072,5.716,0.509,11.624,0.399,17.438c-3.345,2.126-5.632,6.456-3.089,9.675
	c2.092,2.649,3.088,4.459,6.691,5.252c6.516,1.433,12.408-5.82,11.072-11.799c-1.641-7.344-1.059-15.517-1.315-23.024
	c-0.286-8.401-0.451-16.806-0.641-25.209c-0.367-16.253-0.677-32.507-1.058-48.76c-0.764-32.667-1.602-65.333-2.8-97.987
	c-1.202-32.767-3.896-65.525-3.622-98.325c0.275-33.026,2.328-66.034,0.631-99.057c-0.898-17.469-3.266-34.819-4.016-52.299
	c-0.381-8.885-0.513-17.945,0.493-26.794C63.786,65.603,64.479,58.353,68.748,53.424z"/>
<path d="M107.785,61.338c0.553,0.936,1.49,1.328,2.563,0.935c10.658-3.909,5.712-18.976-0.286-24.726
	c-1.377-1.321-3.15-1.049-4.729-0.253c-4.483,2.26-40.193,26.964-34.209,31.631c0.431,0.336,1.262-0.511,0.867-0.931
	c-0.415-0.442,13.94-11.321,15.138-12.156c5.425-3.784,11.162-7.718,17.263-10.466c1.597,2.406,2.641,5.04,2.989,7.994
	C107.697,56.049,106.321,58.857,107.785,61.338z"/>
<path d="M191.736,55.445c-10.048-0.04-18.001,13.892-17.589,22.801c0.522,11.262,12.684,15.723,22.264,15.532
	c12.835-0.256,23.927-10.75,24.404-23.561C221.324,56.565,202.153,48.31,191.736,55.445z M199.381,79.91
	c-3.943,0.355-9.401-1.046-11.218-4.929c-1.514-3.237-0.726-6.173,1.067-8.583c0.152,0.108,0.3,0.219,0.475,0.316
	c3.095,1.728,6.685,0.754,10.05,1.562c2.51,0.603,4.733,2.793,5.744,5.071C207.517,77.892,203.02,79.582,199.381,79.91z"/>
<path d="M395.87,51.744c-7.572-1.765-20.058,0.467-24.215,7.653c-5.117,3.682-8.872,10.274-9.879,15.611
	c-1.616,8.572,3.797,15.696,11.684,18.267c12.223,3.985,23.832-6.547,29.613-16.143C408.7,67.791,408.142,54.605,395.87,51.744z
	 M370.932,65.003c0.069,0.138,0.133,0.277,0.22,0.413C370.934,65.074,370.884,64.97,370.932,65.003z M390.658,71.976
	c-0.023,0.057-0.046,0.111-0.076,0.187c-0.264,0.664-0.583,1.305-0.907,1.942c-0.061,0.119-0.187,0.337-0.307,0.541
	c-0.316,0.47-0.646,0.93-0.986,1.382c-0.147,0.196-0.311,0.379-0.467,0.568c-0.244,0.261-0.832,0.906-1.056,1.114
	c-0.375,0.348-0.773,0.668-1.172,0.988c-0.04,0.025-0.07,0.044-0.118,0.075c-0.454,0.292-0.932,0.545-1.408,0.797
	c-0.131,0.037-0.322,0.096-0.6,0.189c-0.137,0.046-0.466,0.127-0.725,0.191c-0.515,0.067-1.032,0.108-1.55,0.125
	c1.808-0.059-2.63-0.741-1.541-0.322c-5.735-2.209-6.244-7.138-4.263-11.728c0.393,0.043,0.796,0.063,1.228,0.041
	c4.367-0.231,6.684-1.42,10.688-1.528c-0.387,0.047,1.066,0.202,1.946,0.339c0.203,0.073,0.463,0.167,0.605,0.24
	c0.119,0.06,0.214,0.106,0.297,0.146c0.016,0.016,0.025,0.028,0.045,0.047c0.273,0.262,0.447,0.404,0.555,0.475
	c-0.002,0.111,0.044,0.334,0.201,0.773c0.006,0.015,0.009,0.022,0.014,0.036c0.047,0.377,0.061,0.756,0.061,1.136
	C391.096,68.787,390.846,71.141,390.658,71.976z"/>
<path d="M368.588,349.683c-2.279-3.41-5.733-7.365-9.413-6.981c-37.775,3.937-75.286,9.861-112.783,15.809
	c-3.925,0.623-0.447,8.568,0.751,10.636c2.16,3.729,6.297,8.835,10.228,8.211c29.37-4.659,58.752-9.288,88.26-12.974
	c-9.878,16.618-19.778,33.215-29.738,49.752c-7.484,1.353-14.973,2.679-22.471,3.947c-4.657,0.788-9.683,5.477-11.889,10.524
	c-2.007,4.592-0.084,7.569,3.998,6.878c6.509-1.101,13.012-2.24,19.51-3.405c-11.945,19.672-23.995,39.238-36.233,58.614
	c-3.899,6.173,9.637,23.003,13.099,17.521c16.895-26.749,33.436-53.857,49.825-81.117c8.526-1.646,17.046-3.327,25.553-5.083
	c4.679-0.966,9.639-5.377,11.889-10.524c1.958-4.479,0.12-7.728-3.998-6.878c-7.552,1.559-15.114,3.058-22.68,4.53
	c9.599-16.06,19.162-32.157,28.719-48.257C373.196,357.547,370.424,352.431,368.588,349.683z"/>
<path d="M344.72,287.568c-1.297-1.533-2.32-4.033-3.139-5.454c-1.401-2.432-2.71-4.924-3.756-7.531
	c-1.962-4.891-2.674-10.061-3.303-15.26c-0.897-7.404-1.589-21.549-9.915-24.838c-3.528-1.394-7.88,0.428-10.479,2.929
	c-2.951,2.839-3.054,7.213-3.396,11.104c-0.599-2.585-1.199-5.171-1.798-7.756c-0.557-2.401-9.31,1.195-8.563,4.419
	c3.078,13.277,6.155,26.554,9.233,39.831c0.578,2.495,8.893-1.308,8.668-3.84c-0.864-9.73-0.405-19.454,0.536-29.161
	c0.236-2.429,0.499-4.855,0.77-7.28c0.068-0.607,0.301-1.484,0.438-2.324c0.274,0.335,0.488,0.608,0.549,0.705
	c0.638,1.003,1.187,2.069,1.667,3.155c0.862,1.951,1.487,4.011,1.961,6.088c1.96,8.593,1.64,17.604,4.798,25.934
	c1.633,4.309,3.987,8.29,6.408,12.195c1.938,3.126,3.275,4.393,7.033,2.844c1.56-0.643,4.442-2.026,4.589-4.03
	c0.015-0.207,0.031-0.414,0.046-0.62C347.143,287.633,346.105,287.358,344.72,287.568z M318.202,240.397
	c-0.009,0.004-0.018,0.008-0.027,0.012C318.175,240.394,318.185,240.391,318.202,240.397z"/>
<path d="M375.472,275.543c-1.992-4.499-5.532-8.007-7.397-12.602c-0.066-0.164-0.175-0.522-0.309-1.016
	c0.537-3.681,0.935-7.382,1.173-11.095c0.175-2.738,0.056-4.904-1.661-7.158c-1.158-1.52-3.993-4.381-6.104-2.88
	c-2.126,1.512-1.197,6.693-0.984,8.879c0.27,2.771,0.873,5.509,1.752,8.154c-0.2,1.314-0.414,2.625-0.651,3.933
	c-0.478,2.634-0.817,5.903-2.609,8.035c-0.824,0.98-2.053,1.88-3.408,1.796c-1.923-0.119-2.211-1.219-2.633-2.908
	c-1.524-6.099-2.186-13.385-1.525-19.629c0.318-3.005,1.116-6.029,2.932-8.496c0.77-1.046,1.71-2.057,2.811-2.762
	c0.691-0.492,1.456-0.825,2.294-0.999c0.716,0.101,1.046-0.01,1.013-0.321c0.869,1.168,2.213,2.521,3.355,2.541
	c1.588,0.027,1.032-1.303,0.454-2.345c-2.991-5.391-9.109-8.068-13.974-3.323c-5.265,5.135-4.964,13.243-4.486,19.994
	c0.496,7.004,0.958,14.806,6.125,20.124c2.422,2.493,5.888,4.357,8.894,3.905c-0.688,2.138-0.9,4.489-1.038,6.794
	c-0.283,4.745-0.685,9.877,0.456,14.547c0.854,3.496,3.186,6.953,6.431,8.65c3.625,1.896,7.625-0.969,10.251-3.418
	c1.648-1.537,1.483-3.436,1.558-5.588c0.095-2.723,0.077-5.448-0.038-8.171C377.943,285.212,377.511,280.149,375.472,275.543z
	 M372.183,281.335c0.466,4.579,1.02,10.011,0.191,14.582c-0.42,2.317-1.928,2.867-3.723,4.191c-0.534,0.394-1.026,0.843-1.602,1.179
	c-0.928,0.085-1.431,0.39-1.534,0.904c-0.866-4.269-0.579-8.722-0.322-13.039c0.254-4.271,0.638-8.605,4.294-11.381
	c1.123-0.852-1.613-4.555-3.727-5.611c0.513-1.426,0.847-2.941,1.109-4.461c0.437,0.66,0.884,1.314,1.344,1.964
	C370.752,273.26,371.741,276.991,372.183,281.335z"/>
<path d="M405.483,238.912c-3.033-4.299-6.452-8.949-11.2-11.523c-4.531-2.469-9.72-2.416-14.623-3.686
	c-2.173-0.573-1.461,2.095-0.972,3.173c0.574,1.202,1.563,2.48,2.713,3.466c-4.833,4.997-5.868,13.984-5.26,20.243
	c0.884,9.19,3.526,18.403,12.228,23.189c7.089,3.865,19.088,2.317,21.643-6.41C412.778,258.203,410.964,246.714,405.483,238.912z
	 M403.91,255.128c-0.228,4.149-0.862,8.287-4.649,10.641c-3.484,2.108-8.468,3.145-12.301,1.32
	c-2.964-1.407-3.028-6.189-3.295-9.054c-0.49-4.453-0.81-8.66,0.751-12.929c1.257-3.551,2.856-8.027,6.688-9.577
	c0.956-0.404,1.024-1.358,0.659-2.522c1.039,0.192,2.088,0.45,3.079,0.783c3.4,1.143,6.357,5.385,7.682,8.574
	C404.009,246.205,404.081,251.054,403.91,255.128z"/>
<path d="M195.378,261.63c-2.411-9.203-9.69-20.516-20.411-20.576c-4.31-0.024-8.622,2.091-10.634,5.996
	c-0.783,1.519-1.367,3.217-1.823,4.991c-0.088-0.872-0.183-1.743-0.267-2.616c-0.215-2.234-2.065-5.027-3.962-6.196
	c-1.785-1.101-2.816-0.375-2.619,1.674c1.482,15.37,3.535,30.675,6.135,45.892c0.512,3.451,1.133,6.883,1.835,10.284
	c0.473,2.291,1.92,4.937,3.962,6.196c1.643,1.013,3.017,0.444,2.619-1.674c-0.621-3.305-1.206-6.617-1.774-9.931
	c-1.195-8.059-1.735-16.198-1.077-24.353c0.425-5.262,0.883-11.688,3.359-16.447c2.207-4.242,7.792-5.665,12.113-4.142
	c4.776,1.684,6.101,5.952,6.873,10.57c0.967,5.782,1.057,11.708,0.497,17.538c-0.46,4.788-1.051,10.657-4.694,14.218
	c-2.394,2.34-6.191,3.53-9.57,2.919c-1.148-1.375-2.512-2.303-3.711-1.928c-0.443,0.139-0.886,0.277-1.329,0.416
	c-2.764,0.865,2.344,7.642,3.473,8.317c8.452,5.057,18.176,1.252,20.918-8.215C198.263,284.303,198.073,271.921,195.378,261.63z"/>
<path d="M233.046,257.002c-3.033-4.299-6.452-8.949-11.2-11.523c-4.531-2.469-9.72-2.416-14.623-3.686
	c-2.173-0.573-1.461,2.095-0.972,3.173c0.574,1.202,1.563,2.48,2.713,3.466c-4.833,4.997-5.868,13.984-5.26,20.243
	c0.884,9.19,3.526,18.403,12.228,23.189c7.089,3.865,19.088,2.317,21.643-6.41C240.341,276.294,238.528,264.805,233.046,257.002z
	 M231.474,273.218c-0.228,4.149-0.862,8.287-4.649,10.641c-3.484,2.108-8.468,3.145-12.301,1.32
	c-2.964-1.407-3.028-6.189-3.295-9.054c-0.49-4.453-0.81-8.66,0.751-12.929c1.257-3.551,2.856-8.027,6.688-9.577
	c0.956-0.404,1.024-1.359,0.659-2.522c1.039,0.192,2.088,0.45,3.079,0.783c3.4,1.143,6.357,5.385,7.682,8.574
	C231.572,264.295,231.645,269.145,231.474,273.218z"/>
<path d="M284.968,240.153c1.001,8.26,2.028,16.532,4.066,24.613c0.99,3.925,2.237,7.796,2.97,11.782
	c0.59,3.21,0.241,6.409,2.321,9.095c0.665,0.859,2.847,3.345,4.185,2.69c1.394-0.682,0.29-2.563-0.378-3.425
	c0.665,0.858,0.311-0.552,0.305-0.922c-0.012-0.813-0.187-1.667-0.311-2.469c-0.287-1.849-0.714-3.674-1.17-5.488
	c-0.871-3.468-1.91-6.892-2.699-10.382c-1.62-7.164-2.497-14.47-3.379-21.753c-0.21-1.731-1.826-3.452-3.26-4.317
	C286.745,239.052,284.751,238.367,284.968,240.153L284.968,240.153z"/>
<path d="M276.515,260.428c-1.44-7.303-1.513-16.593-8.003-21.459c-0.63-0.472-2.688-1.754-3.096-0.346
	c-2.087,7.203-3.431,36.722-4.161,36.824c-0.73,0.102-2.728-16.611-3.56-21.22c-0.666-3.688-1.15-7.547-2.84-10.94
	c-0.933-1.872-3.138-5.242-5.662-5.082c-2.382,0.151-2.923,4.283-3.292,6.087c-0.801,3.925-0.802,8.028-0.857,12.017
	c-0.013,0.947-0.014,1.895-0.011,2.841c-0.631-3.551-1.156-7.12-1.582-10.706c-0.14-1.179-0.966-2.546-2.038-3.121
	c-0.566-0.304-2.136-0.918-1.978,0.406c0.778,6.548,1.843,13.055,3.292,19.489c1.12,4.971,4.4,20.096,4.451,20.659
	c0.148,1.615,3.447,6.765,5.017,0.816c-1.036-7.538-1.642-15.12-1.725-22.73c-0.043-3.923-0.038-7.89,0.33-11.801
	c0.13-1.385,0.268-3.843,0.825-5.866c0.426,2.195,0.586,4.537,0.898,6.265c0.657,3.639,3.081,24.167,6.715,29.135
	c0.672,0.918,3.513,3.491,4.43,1.653c2.915-5.841,3.914-29.993,5.658-35.613c0.394,1.797,0.693,3.613,1.011,5.424
	c0.584,3.328,1.199,6.627,2.115,9.884c1.98,7.038,4.885,13.773,6.152,21.005c0.266,1.518,1.685,3.09,3.04,3.764
	c0.79,0.393,2.681,0.987,2.395-0.643C282.431,278.002,278.313,269.545,276.515,260.428z"/>
</svg>
