<?xml version="1.0" encoding="utf-8"?>
<!-- Generator: Adobe Illustrator 23.0.1, SVG Export Plug-In . SVG Version: 6.00 Build 0)  -->
<svg version="1.1" xmlns="http://www.w3.org/2000/svg" xmlns:xlink="http://www.w3.org/1999/xlink" x="0px" y="0px"
	 viewBox="0 0 566.9 566.9" style="enable-background:new 0 0 566.9 566.9;" xml:space="preserve">
<g id="Layer_3">
	<g id="Layer_3_1_">
		<path d="M542.7,143.7c-1.5-10-2.3-20.1-2.6-30.2c-0.4-13.9,1.5-28.8-1.5-42.5c-0.3-1.3-1.8-0.7-2.6,0.2c-0.6-1.2-2.2-1.7-3.5-1.7
			c-8.9,0.2-17.8,0.6-26.6,0.8c-8.9,0.2-18.9-0.8-27.4,2c-1.1,0.3-3.1,2.8-1.2,3.6c7.4,3,17,1.9,24.8,2c8.5,0.1,17,0.5,25.4,0.7
			c1.4,1.8,4.9,1.1,6.6-0.5c0.1,0,0.1-0.1,0.2-0.1c0.1-0.1,0.2-0.2,0.2-0.2c-1.6,11.8-1.3,24.2-1.4,35.9c-0.1,10,0.1,19.9,1.2,29.9
			c1,9.4,2.4,18.8,3.3,28.2c0.4,4,0.6,7.9,0.6,11.9c0,2.1-0.6,3.9-0.8,5.8c-2-0.6-3.8-0.8-6-0.7c-0.4,0-0.8,0.1-1.2,0.3
			c-68.7-5-137.6,1.1-206.3,1.3c-69.2,0.2-138.5-8.1-207.7-3.2c-12.7,0.9-25.4,2.3-38,4.5c0.8-1,1.3-2.1,1.3-3.3
			c0-2.3-0.3-3.9-1.4-5.6c-1.5-7.2-1.1-15.1-0.9-22.3c0.2-9.2,0.8-18.3,0.7-27.5c-0.2-9.9-1.2-19.7-2.8-29.4
			c-1.4-8.4-2-17.3-3.8-25.6c7.4,0.1,14.8,0.2,22.2,0.6c8,0.4,15.5-0.4,23.3-1c0.8,0,1.7,0,2.5-0.2c2.3-0.3,4.2-1.7,5.2-3.8
			c0.9-1.9,0.5-5.1-2.1-5.3c-3.8-0.2-7.4,1.3-11.1,1.7c-4.9,0.6-10,0.5-14.9,0.3c1.6-3,2.7-6.5,3.4-8.1c4-8.3,8.5-16.3,16.6-21.2
			c1.1-0.6,1.9-3.3-0.2-3c-8.3,1.4-14.1,10.7-18.2,17.2c-2.3,3.8-4.4,7.7-6.7,11.5c-0.7,1.2-1.6,2.2-2.3,3.2
			c-8.1-0.3-16.2-0.4-24,2.3c-0.3,0.1-0.7,0.3-1,0.6c-6.9,0.2-13.5-0.6-20.1-1.2c-2.1-0.2-5.4,3-2.8,4.6c1.2,0.7,2.4,1.3,3.7,1.8
			c-0.8,0.3-1.5,1-1.6,1.6c-7.9,32.7-2.6,67.5-6,100.8c-3.6,35.8-6.1,71.9-7.7,107.9c-1.5,33.3,0.3,66.2,3,99.4
			c2.6,32.8,5.3,65.9,1.6,98.8c-0.8,6.9-2,13.6-3.6,20.3c-0.5,2,0.6,3.4,2.4,4c10.7,3.3,22.1,1.5,33.1,1.3c5.1-0.1,8.6-9.3,2-9.2
			c-9.3,0.2-18.7,1.7-27.9-0.2c10.6-63.1-3.6-126.7-3.5-190.1c0.1-35.9,3-71.9,5.7-107.8c1.3-17.3,2.8-34.5,2.9-51.8
			c0-16.9-0.5-33.8,0-50.7c0.3-7.9,1-15.7,1.6-23.5c0-0.1,0-0.1,0-0.1c4.8,1.6,10,2.2,14.9,2.7c1.3,0.1,2.6-0.2,3.7-0.9
			c-0.6,7.7,1.1,15.8,2.1,23.3c1.5,10.6,2.3,21,2.4,31.6c0.1,18.8-2.3,37,0.2,55.8c0.4,2.9,2.6,3.4,4.7,2.6
			c-0.8,1.5-0.6,3.1,1.5,2.9c68.9-7.1,137.8-1.6,206.7,0.7c71.5,2.4,143.1-4.9,214.6-1.4c12,0.6,24,1.6,36,2.8
			c2.4,0.2,6.2-2.6,7.2-5.3c1.1-0.2,2.2-0.8,2.8-1.2c5.3-4.1,3.6-13.8,3.1-19.7C545.8,163,544.1,153.3,542.7,143.7z"/>
		<path d="M155,102c0.4,6,9.7,1.9,9.3-3c0-0.6,0-1.3-0.1-2c-0.9-15.9,0-32-5.8-47.1c-1.9-5.1-7.2-15.3-13.7-15.9
			c-8.8-0.7-18.3-2.1-25.8,3.6c-1,0.7-1.2,3.1,0.6,2.8c0.6-0.1,1.1-0.2,1.7-0.3c-0.5,0.6-0.7,1.4-0.3,2.1c4.7,8,7.5,17.6,9.4,26.7
			c1.7,8.5,3.9,20,0.5,28.3c-0.7,1.7-0.7,3.6,1,4.7c1,0.6,2.1,0.5,3.2,0.2c2-0.6,3.7-2.4,4.2-4.4c2.2-9.3,0.7-19.8-1.2-29
			c-2.1-10.1-5.1-21.7-12.6-29.2c6-0.9,12.3-1,17.1,3.1c5.2,4.5,7.8,10.4,9.6,16.9c3.6,12.5,3.7,26.6,3,39.6
			C155,100,155,101.1,155,102z"/>
		<path d="M428.8,67.2c-9-0.3-18.1-2.4-27.2-2.8c-10.2-0.5-20.4-0.4-30.5-0.1c-21.1,0.6-42.2,2.4-63.3,3.1
			c-21.4,0.7-42.9,0.9-64.4,1.1c-23.5,0.2-46.7-1.5-70.2-2.8c-2.8-0.2-6.7,4.8-2.7,5.7c21.6,4.8,45,4.5,67,4.7
			c22.2,0.2,44.4,0.3,66.6-0.1c21.1-0.4,42.1-2.3,63.1-3c10.4-0.3,20.9-0.3,31.3,0.3c4.8,0.3,9.7,0.8,14.5,1.4
			c2.5,0.3,5,0.9,7.6,1.3c0.5,1.3,1.9,2,4.2,1.1c0.7-0.3,1.4-0.5,2-0.6h0.1l0,0c1.7-0.4,3.1-0.7,4.7-2.7c0.8-1,1.2-2.1,1.2-3.1
			c0.8,5.7,1.7,11.6,1.9,17.4c0.1,1.5,0.2,3,0.1,4.6c0,0.4,0,1.7,0,2.6c-0.2,1.7,0,3.2,1.6,4.3c2.7,2,7.2-1.7,7.6-4.4
			c1-8-1.4-17.6-2.6-25.3c-1.2-7.4-3-14.8-5-22c-1.6-5.6-3.9-12.5-8.2-16.7c2.2,0.1,4.3,0.1,6.5,0c4.2-0.2,10-1.7,13.3,1.5
			c5.6,5.5,9,12.5,11.2,19.9c3.9,13.1,3.2,26.8,2.8,40.4c-1,0.8-1.7,1.9-1.6,3c0.4,2.6,0.7,4,3,5.5c3.5,2.2,8.1-2.4,8-5.8
			c-0.3-16.7,0.1-34.4-5.3-50.4c-2.7-7.9-7.5-15.1-13.9-20.4c-1-0.9-2.1-1.1-3.4-0.7c-2.8,0.9-6.1,0.7-9,1
			c-5.5,0.4-10.9,0.8-16.3,2.1c-0.4,0.1-0.8,0.4-1,0.7c-7.3-2.5-14.9,2.4-19.6,7.7c-5.7,6.4-9,16.1-11,24.3
			c-1.4,5.7,7.2,3.6,8.3-0.7c1.6-6.1,2.7-12,5.5-17.7c3.6-7.3,9-8.7,16.5-10.1c0.4-0.1,1-0.5,1.5-1c0.3,0.1,0.7,0.1,1,0.2
			c-0.6,0.5-1.1,1.2-0.9,2c0.9,5.3,3.1,10.5,4.6,15.7c1.9,6.9,3.3,13.9,4.3,21C431.9,68.2,430.7,67.2,428.8,67.2z"/>
		<path d="M151.4,109c0.9-1.7,0.4-4.7-1.9-4.8c-4.6-0.2-8.5,3.1-13.4,2.9c-2.3-0.1-4.7-0.9-6.4-2.4c-1.8-1.5-2.2-4.5-4.4-5.3
			c-0.6-0.2-1.2-0.1-1.6,0.3c-5.6,5.8,1.9,12.6,7.3,14.3C137.2,116,148.1,115.4,151.4,109z"/>
		<path d="M456.6,100.4c-8.3,4.6-21.9,4.3-27.6-4.3c-0.7-1.1-2.6,0.3-2.7,1.2c-1.9,16.8,23.1,15.9,33.2,10.7
			C465,105.2,462.8,97,456.6,100.4z"/>
		<path d="M87.7,175.2c-3.1,0.3-7.3,6.8-2.5,7.3c3.5,0.4,7.1,0.5,10.6,0.7c3.3,0.2,6.7,0.9,10.1,0.8c2.9-0.1,8.1-6.2,3.7-7.9
			C103.3,173.5,94.4,174.5,87.7,175.2z"/>
		<path d="M127.8,179c3.2,1.4,7.1,1.4,10.5,1.5c4.6,0.1,8.8,0.3,12.9-2.1c1.4-0.8,4-4.6,1.2-5.6c-3.5-1.3-6.5-0.8-10.1-0.6
			c-3.8,0.3-7.6,0.1-11.4,0.4C128.5,172.7,124.3,177.4,127.8,179z"/>
		<path d="M184,171.3c-3.4,0.2-6.9,0.5-10.3,1.1c-2.5,0.4-6.3,5.4-2.1,6.2c6,1.2,14.9,2.9,20.1-1.2c1.2-1,1.8-2.8,0.9-4.1
			C191,170.9,186.5,171.2,184,171.3z"/>
		<path d="M217.8,172.2c-2.7,0.5-6.8,5.8-2.3,6.7c5.7,1.1,12.5,1.7,18.3,1.1c2.2-0.2,4.2-1.7,5.1-3.7c0.9-1.9,0.5-4.9-2.1-5.2
			C230.7,170.5,223.8,171.1,217.8,172.2z"/>
		<path d="M268.8,171.9c-3.6-0.1-7.6,0-11.1,0.9c-2.5,0.7-4.3,4.6-1.2,5.6c2.9,1,6.4,1.3,9.4,1.7c3.2,0.4,6.1,1.1,9.3,0.3
			c2.7-0.7,6.1-5.7,2.6-7.5C275.2,171.5,271.8,171.9,268.8,171.9z"/>
		<path d="M312.3,173.1c-4.5,0.3-8.9,0.2-13.5-0.1c-2.1-0.1-5.7,3.2-2.9,4.8c6.3,3.7,14.3,2.6,21.3,2.9c2,0.1,3.8-1.8,4.7-3.4
			C324.5,172.4,315,172.9,312.3,173.1z"/>
		<path d="M353.3,172.4c-3.9,0.2-8.3,0-12,1.4c-1.7,0.6-4.7,4.2-1.9,5.5c3,1.4,7,1.2,10.3,1.4c3.6,0.2,8.6,1.3,11.8-0.9
			c1.8-1.3,4-4,2.1-6.2C361.4,171.1,356.2,172.3,353.3,172.4z"/>
		<path d="M380.8,173.3c-1.7,0.3-4.5,3.8-1.5,4.4c5.8,1.2,11.8,1.2,17.7,1.8c4.2,0.5,10.9,2.7,12-3.6c0.3-1.8-0.5-3.6-2.4-4
			C398,170.4,389.3,171.6,380.8,173.3z"/>
		<path d="M440.4,172.4c-5,0.2-10.1,0.9-14.9,2c-2,0.5-3.6,3.9-1,4.6c4.2,1.2,8.6,1.6,13,1.9c4.5,0.3,9.6,1.3,13.4-1.4
			c1.6-1.1,3.5-3.5,1.9-5.4C450.1,170.7,444.3,172.2,440.4,172.4z"/>
		<path d="M465.4,177.6c7.2,1.6,14.8,1.6,22.1,2.2c5.8,0.5,9.4-9.2,3-8.7c-7.9,0.7-15.9,0.7-23.6,2.2
			C465.2,173.7,462.6,177,465.4,177.6z"/>
		<path d="M526.4,180.1c5.5,0.7,9.7-9.1,2.7-9.2c-5.7,0-12.2,0-17.7,1.8c-1.6,0.5-4.7,4.2-1.9,5.4
			C514.6,180.2,521,180.2,526.4,180.1z"/>
		<path d="M540.8,202.6c-0.2-2.2-3.1-0.5-3.2,1c-4.9,69.1,4,139.3-13.7,207.2c-7.1,27.1-19.8,51.7-41.7,69.7
			c-12.8,10.5-28.8,17.3-43.4,25c-9,4.7-17.2,10.3-25.6,16.1c-1.1,0.7-2.1,1.5-3.2,2.2c6.7-8,11.5-17.9,15.8-27.4
			c4.9-10.9,9-22.2,12.5-33.6c0.7-2.2,1.4-4.5,2.2-6.8c2.8,8.4,11.1,12.9,20.9,13.8c13.6,1.3,25.8-4,34.9-13.9
			c8.4-9.1,15.8-22.2,17.4-34.6c0.3-2.3-2.5-2.1-3.5-0.7c-10.5,14.4-15.8,34.9-35.2,40.1c-2.5,0.7-5.3,1-8.2,0.9
			c1.2-1.6,2-4.4-0.6-4.6c-0.2,0-0.4,0-0.6,0c2-3.8,3.1-8.1,0.7-11.9c-3.6-5.7-10.7-1.5-13.8,2.3c-0.7,0.9,0.2,1.9,1.1,1.3
			c2.5-1.5,7.1-4.2,8.7-0.2c1.4,3.6-1.4,8.5-4,10.7c-0.2,0.2-0.4,0.4-0.6,0.7c-3.1-1.1-5.8-2.8-7.8-5.2c-2.9-3.5-3.1-8.7-2.2-12.9
			c1.2-6.1,6-9.8,12-10.6c0.9-0.1,2.1-1.7,0.7-2.1c-7.5-2.2-13.9,2.1-17.5,8.3c-0.3-0.4-1.1-0.1-1.3,0.4
			c-6.6,16.8-11.4,34.2-19.2,50.6c-4.4,9.2-8.9,18.6-15,26.9c-2,2.8-4.3,5.4-7,7.5c-1.7,1.3-3.1,1.2-5.8,1.8
			c-1.8,0.4-4.3,3.1-4.1,5.3c-9.1-2.5-18.6-3.5-28.1-4.3c-12.7-1.1-25.3-1.9-38-2.5c-27-1.1-54-1-80.9-0.6
			c-26.4,0.4-52.8,0.7-79.1,0.5c-13.8-0.1-27.5-0.3-41.3,0.1c-12.2,0.3-25.5,0.3-37.3,3.9c0.1-0.1,0.1-0.3,0.2-0.4
			c1.7-5.1-0.8-11.4-1.4-16.5c-1-9.3-1.5-18.5-1.7-27.9c-0.4-15.9,0.3-31.8,0.3-47.7c0.1-15.8-0.3-31.5,0-47.3
			c0.6-30.9,2.1-61.8,0.9-92.6s-4.5-61.6-6.8-92.3c-0.2-3.2-4.6-0.7-4.8,1.5c-2,30.3,2.4,60.9,3.8,91.1c1.5,30.8-0.1,61.8-0.8,92.6
			c-0.7,30.9-0.6,61.9-0.7,92.9c0,10,0.4,20,1.2,30.1c0.3,4,0.5,8,0.4,12.1c0,1.4,0.2,3,0.5,4.3c0.1,0.5,0.4,2.3,0.4,1.6
			c0.2,1.3,0.9,2.4,2.4,2.6l0,0c0.7,0.1,1.4,0,2.1-0.2c0.2,0.3,0.5,0.5,1,0.6c11.8,1.6,24.5-0.3,36.4-0.6c13-0.3,26-0.1,39,0.2
			c26.4,0.5,52.7,0.5,79.1,0.4c26.3-0.1,52.5-0.3,78.8,0.6c12.8,0.5,25.6,1.3,38.3,2.4c10.1,0.8,20.4,1.7,30.2,4.2
			c2,1.3,4.2,1.9,6.9,2.1c0.7,0,1.4-0.1,2.1-0.3c0,0.1,0.1,0.3,0.1,0.4c1.2,3.5,5.6,2,7.7-0.8c0,0,0,0,0.1,0
			c0.5-0.4,0.9-0.7,1.4-1.1c1.4-1,2.7-2.1,4.1-3.2c4-3,8.1-5.9,12.1-8.7c9.1-6.4,18.1-11.9,27.9-17.1c14.2-7.5,28.9-14.7,41.3-25.1
			c10.3-8.5,19.1-19,25.9-30.5c15-25.1,21-54.2,24.8-82.8c4.5-34.2,4.9-68.8,4.4-103.2C543.2,246.6,542.5,224.5,540.8,202.6z
			 M402.4,536c0,0.1,0.1,0.2,0.1,0.4C402.4,536.3,402.4,536.1,402.4,536z"/>
		<path d="M126.1,378.6c-0.5-4.7-0.5-9.5-0.7-14.3c-0.1-3.2-4.4-2.1-5.6-0.3c-2.3,3.5-5.5,6.1-7.6,9.7c-1.8,3,2.6,3.3,4.2,1.5
			c0.8-0.9,1.6-1.7,2.4-2.6c-0.1,2.5-0.2,5.1-0.4,7.5C117.8,386,126.7,383.3,126.1,378.6z"/>
		<path d="M147.6,379.1c-1.4,0.9-4.1,4.6-1.2,5.7c5.6,2.2,13.2,3,18.1-1.2c2.9-2.5,1.9-7.1-2.4-6.1c-1.8,0.4-3.3,1.5-5.2,1.8
			c-0.4,0.1-0.9,0.1-1.3,0.1c3.6-3.8,6.3-8.6,6.6-13.7c0.1-2.4-0.8-4.8-3.4-5.3c-3.4-0.6-7,2.4-8.8,4.8c-1.7,2.2,0.4,4.5,2.8,3.1
			c1-0.6,1.9-1.2,2.9-1.8c0.1-0.1,0.2-0.1,0.3-0.1c0,0.4-0.1,1.2-0.2,1.9C154.8,372.8,151.3,376.8,147.6,379.1z"/>
		<path d="M190.4,380c0.1-0.1,0.2-0.2,0.3-0.3C190.7,379.7,190.6,379.8,190.4,380z"/>
		<path d="M189.3,381.2c0.1-0.1,0.1-0.2,0.2-0.3C189.4,381.1,189.4,381.1,189.3,381.2z"/>
		<path d="M188.3,363.3c-1.7,0.7-3.4,4.2-0.3,4.1c2.7-0.1,5.5-0.5,8.1,0.5c2.9,1.1,0.9,2.6-0.7,4.1c-3,2.7-0.9,7.2,3,5
			c1.8-1,4.2-2.2,5.4-1.5c-0.1,0,0.2,0.5,0.2,0.8c0.1,0.6-0.1,1.2-0.3,1.6c-0.7,1.7-1.5,2.5-2.4,2.8c-1.8,0.7-3.4-0.6-5.7-1.7
			c-1.6-0.8-3.5-0.2-4.9,0.8c0.3-0.1-1.6,1.9-1.4,1.5c-0.8,1.3-1.5,3.4-0.2,4.6c7.1,6.6,18.2,0.8,21.1-7.2c1.2-3.2,1.5-7.1-1.5-9.3
			c-1.4-1-3-1.3-4.7-1.1c0.1-1.4-0.3-2.7-1.4-4C199.5,360.6,192.1,361.7,188.3,363.3z"/>
		<path d="M239.1,387.1c0,1.8,0.8,2.6,2,2.8c2.6,0.4,6.8-2.4,6.8-5.6c0-0.4,0-0.8,0-1.2c-0.1-6.3-0.7-12.7-0.7-19
			c0-4.6-6.8-1.6-7.4,1.5c-0.5,2.5-1.2,5.7-4.3,4.3c-3-1.4-3.4-5.2-4.3-8c-0.7-2.1-3.7-0.5-4.2,0.9c-2.2,5.8,0,12.7,6.3,14.4
			c2.2,0.6,4.2,0.3,6-0.7c-0.1,3.1-0.3,6.2-0.4,9.2C239.1,386.2,239.1,386.6,239.1,387.1z"/>
		<path d="M281.2,383.4c-0.2-0.1-0.4-0.2-0.7-0.4c-0.8-0.5-1.7-1.3-3-1.6c-2.7-0.7-6.6,0.8-6.2,4.2c0.4,2.8,1.4,4.4,4,5.5
			c8.7,3.6,14.8-6.3,14.7-13.8c0-2.6-1-5.3-2.9-7.1c1.7-0.1,3.5-0.2,5.2-0.2c3.6,0,7.6-6.9,2.7-7.8c-6.3-1.1-14.5,0.9-21,3.2
			c0-0.3-0.1-0.5-0.1-0.8c-0.2-2.1-2.8-0.8-3.4,0.3c-0.6,1.1-1,2.2-1.2,3.4c-0.3,0.5-0.4,1.1-0.3,1.5c-0.2,1.8-0.2,3.7-0.4,5.6
			c-0.3,2.8,2.3,4,4.6,2.6c2.9-1.7,6.6-3.8,8.5-1.2C282.8,378.4,282.2,381.4,281.2,383.4C281.3,383.3,281.3,383.4,281.2,383.4z"/>
		<path d="M317.5,384.3c0.9,0.5,1.9,0.9,2.8,1.2c1.5,0.6,1.6,1.2,1.3-0.1c0,0.2,0.1,0.4,0.1,0.5c1.1,4.1,7.6-0.3,6.8-3.9
			c-0.4-1.8,1.3-3.5,0.4-5.6c-1.4-3.3-6.4-2.7-9.5-2c0.2-3.7,5.9-8.5,7.9-10.2c1.9-1.5,0.5-4.3-1.8-3c-5.9,3.3-13.6,9-12.6,16.7
			C313.4,380.9,315.2,382.9,317.5,384.3z M321.6,385.3v-0.1l0,0C321.6,385.2,321.6,385.3,321.6,385.3z"/>
		<path d="M373.6,381.6c-0.2-1.7-0.4-3.4-0.5-5.1c0.4-0.2,0.9-0.5,1.3-0.8c2.4-1.8,2.6-5.4-0.4-6.4c-0.4-0.1-0.8-0.2-1.3-0.2
			c-0.1-2.3-0.2-4.6-0.4-6.9c-0.1-1.2-1.1-2-2.3-1.9c-3.5,0.5-6.9,0.5-10,2.4c-1.7,1-1.8,3.8,0.7,3.3c1.9-0.4,3.8-0.4,5.7-0.3
			c-0.1,1.4-0.2,2.8-0.2,4.2c-0.8,0.2-1.6,0.3-2.3,0.4c-3.7,0.4-7.5,0.6-11.1,1.7c-1.3,0.4-3.7,3.5-1.5,4.3
			c3.5,1.3,7.4,1.3,11.1,1.5c1,0,1.9,0.1,2.9,0.1c-1.4,1.1-2.3,3.2-1.2,4.7c0.6,0.9,0.9,1.7,1.3,2.7
			C366.8,389.8,374.2,385.3,373.6,381.6z"/>
		<path d="M398.9,381.5c-3,6.1,1.4,11.5,6.3,14.7c6.5,4.2,13.8,0.9,17.1-5.6c2.6-5.2,2.9-12.4-0.3-17.3c-0.9-1.5-2.2-2.3-3.5-2.8
			c1.5-1.9,2.6-4,2.8-6.5c0.2-2.2-1.4-4.2-3.3-5c-2.4-1-5-0.8-7.4-0.1c-2.9,0.8-7.9,3.5-7.4,7.1c0.1,0.4,0.2,0.8,0.4,1.1
			c-0.5,2-0.3,4.1,0.9,6.1c0.4,0.6,0.8,1.1,1.3,1.5C402.7,376.1,400.2,378.9,398.9,381.5z M411.4,370L411.4,370L411.4,370L411.4,370
			z M414.4,366C414.4,366,414.4,366.1,414.4,366L414.4,366L414.4,366L414.4,366z M413.8,378.4L413.8,378.4c0.1,0,0.1,0,0.1,0l0,0
			C413.9,378.4,413.8,378.4,413.8,378.4z M413.9,378.4h0.1C414,378.4,414,378.4,413.9,378.4L413.9,378.4z M414.2,390.8L414.2,390.8
			C414.2,390.7,414.3,390.7,414.2,390.8C414.3,390.7,414.3,390.7,414.2,390.8C414.3,390.7,414.3,390.7,414.2,390.8z M414.4,390.7
			L414.4,390.7C414.4,390.6,414.4,390.6,414.4,390.7C414.4,390.6,414.4,390.6,414.4,390.7z M415.8,387.7c0,0.1-0.2,0.7-0.3,0.9
			c-0.1,0.3-0.3,0.7-0.4,1c-0.1,0.1-0.1,0.2-0.1,0.3l-0.1,0.1c-0.1,0.1-0.3,0.4-0.4,0.5s-0.2,0.2-0.3,0.2l0,0c-0.1,0-0.1,0-0.1,0.1
			c-0.1,0-0.2,0-0.4,0c-0.2,0-0.4,0-1.1-0.2c-2.5-0.5-5.9-3.1-7.1-5.6c-0.7-1.3-0.6-2.5-0.2-3.5c0.8,0.5,1.8,0.6,2.7,0.3
			c1.8-0.6,3.1-1.6,4.6-2.8c0.1,0,0.1-0.1,0.1-0.1c0.2-0.1,0.4-0.3,0.6-0.4s0.3-0.2,0.3-0.2s0,0,0.2,0l0,0c0.1,0,0.2,0,0.3,0
			c0.1,0.1,0.4,0.2,0.5,0.2l0,0c0,0,0.1,0.2,0.3,0.4c0.1,0.1,0.1,0.2,0.2,0.2c0,0,0,0.1,0.1,0.1c0.2,0.3,0.3,0.7,0.5,1.1
			c0.4,1.2,0.3,0.8,0.5,1.9C416.4,384.7,416.3,385.6,415.8,387.7z M414.4,365.9L414.4,365.9L414.4,365.9L414.4,365.9z M413.8,365.5
			c0,0,0.1,0,0.1,0.1c0.1,0,0.2,0.1,0.3,0.2c0,0.1,0.1,0.1,0.1,0.1c0,0.1,0,0.2,0.1,0.2v0.1c-0.1,0.3-0.2,0.7-0.6,1.2
			c-0.4,0.7-1.3,1.7-1.7,2c0,0-1,0.8-0.4,0.4c-0.1,0-0.1,0.1-0.2,0.1c0,0-0.1,0-0.2,0.1l0,0c0.5-0.1-0.1-0.1-0.1,0
			c-0.2,0-0.4-0.1-0.4,0c-0.5-0.2-0.8-0.5-1-0.6c-0.6-0.6-1-1.5-0.9-2.3c0-0.2,0.1-0.3,0.1-0.5c0.4-0.2,0.8-0.5,1.2-0.7
			c-0.6,0.3,1.3-0.3,1.1-0.3c0.3-0.1,0.6-0.1,0.9-0.1c0,0,0.5,0,0.6,0c0.2,0,0.4,0.1,0.7,0.1C413.7,365.5,413.7,365.5,413.8,365.5z"
			/>
		<path d="M467.7,359.3c-7.9-2.8-22.6,1.5-21.7,11.9c0.7,7.8,8.8,9.7,15.9,7.7c-1.8,1-3.8,1.6-5.8,1.8c-3,0.3-5-1.3-7.8-1.5
			c-0.9-0.1-2,0.5-2.1,1.5c-0.4,4.2,4.9,6.5,8.5,6.5c5.1,0,9.8-2.2,13.8-5.3C475.6,376.4,478.3,363,467.7,359.3z M454.7,368
			c-0.7-1.7,8.1-1.5,9.4-0.9c0.5,0.2,0.9,0.5,1.2,0.8C461.6,370.3,457,373.7,454.7,368z"/>
		<path d="M108.9,408.5c-0.6,3.5-0.8,7.1-1.1,10.6c-0.2,2.7-1.6,7.5,1.9,8.3c1,0.3,2-0.2,2.9-0.9c0.1-0.1,0.2-0.1,0.2-0.2
			c1.4-1.1,1.9-2.5,2-4c0.3,1,0.9,1.9,1.8,2.5c3.2,2.3,7.6-1.4,9.6-3.6c2.4-2.7,3.9-6.6,3.1-10.1c-1.1-4.7-6.8-5.6-10.8-5.6
			c-1.8,0-3.5,1.6-4.3,3.1c-0.2,0.3-0.3,0.7-0.5,1c-0.1-0.7-0.2-1.5-0.3-2.2C113,404.8,109.2,406.4,108.9,408.5z M122.1,413.8
			L122.1,413.8c0.2,0.2,0.2,0.3,0.3,0.3c0,0.1,0.2,0.4,0.3,0.5c0,0,0,0.1,0.1,0.2c0,0.2,0,0.4,0,0.7l0,0l0,0c0,0.3-0.1,0.6-0.2,0.9
			c0,0,0,0,0,0.1c-0.1,0.3-0.2,0.6-0.4,0.8c0,0.1-0.2,0.3-0.3,0.5c-0.1,0.1-0.1,0.2-0.2,0.2c-0.2-1.2-0.6-2.3-0.8-3.5
			c-0.1-0.5-0.1-0.8-0.2-1.2c0.2,0.1,0.5,0.1,0.6,0.1c0.2,0.1,0.4,0.2,0.5,0.3C122,413.7,122.1,413.7,122.1,413.8z"/>
		<path d="M155.6,426.2c1-0.6,2.9-2.3,2.1-3.7c-0.2-0.3-0.3-0.6-0.3-0.7c-0.1-0.8-0.1-1.6-0.4-2.4c-1.3-4.1,0.2-9.4-2-13.2
			c-0.9-1.6-3-0.6-3.6,0.7c-1.8,4.1-1.9,9.4-2,13.8c0,1.6-0.1,3.8,1.2,4.9C151.9,426.7,154,427.2,155.6,426.2z"/>
		<path d="M164.8,405.1c-0.5-1.9-3.3-0.1-3.5,1.1c-0.7,3.7-0.6,7.4-0.3,11.1c0.1,1.6,0.3,3.1,0.3,4.7c0,0.4-0.1,1.5-0.1,1.7
			c0,0.3,0,0.5,0,0.6c-0.1,0.6,0,1.3,0.5,1.9c1.4,1.8,4.2,0.8,5.6-0.4c2-1.8,2.6-4.2,2-6.8C168.2,414.3,166,409.9,164.8,405.1z"/>
		<path d="M200.8,422.8c0.5-0.8,0.6-2.1,0.4-3c-0.3-1.7-0.4-3.4-0.6-5.1c-0.2-1.9-0.2-3.9-0.6-5.9c-0.2-1.2-0.5-2.7-0.4-4
			c0.2-1.8-2-1.3-2.6-0.1c-1.6,3.3-2.3,7.1-2.8,10.6c-0.3,2-0.6,4-1,6c-0.2,0.9-0.3,2,0.1,2.9c0.2,0.4,0.3,0.7,0.6,0.9
			c0.2,0.3,0.5,0.6,0.9,0.9l0,0c2.1,1.1,4.7-0.7,5.6-2.5l0,0C200.5,423.3,200.7,423.1,200.8,422.8z M193.8,424.8L193.8,424.8
			L193.8,424.8L193.8,424.8z"/>
		<path d="M200.4,423.5C200.2,423.9,200.3,423.9,200.4,423.5L200.4,423.5z"/>
		<path d="M215.6,410.8c-0.4-6.7-7.7-7.8-12.9-6.2c-1.2,0.4-2.6,2.7-0.7,3.2c3.3,0.7,7.3,1.4,6.6,5.6c-0.5,3.4-3.1,6.2-5.7,8.1
			c-2.6,1.9-2.2,5.9,1.3,6c2.9,0.1,5.8,0.3,8.8,0.3c4.4-0.1,7.4-7.7,1.7-7.9c-0.6,0-1.2,0-1.7,0
			C214.7,417.1,215.8,413.9,215.6,410.8z"/>
		<path d="M238.7,424.8c1.2,4.6,7.8-0.3,7.8-3.4c0-1.2-0.6-3.1-1.7-4.1c-2-4.6-3.7-9.3-6.6-13.4c-0.8-1.2-2.9,0.5-2.8,1.6
			C236.4,411.9,236.9,418.5,238.7,424.8z"/>
		<path d="M254.2,404.2c-1.7-2.5-5.8-2.1-7.9-0.7c-0.9,0.6-1.8,1.8-1,2.9c1,1.3,2.5,1,3.4,2.1c0.9,1-0.7,4.6-1,5.6
			c-0.5,1.5,0.6,2.8,1.9,3.2c0.4,0.1,0.7,0.2,1,0.4c-2.3,1.6-4.2,4.8-1.2,6.4s7.1-0.2,9.7-1.7c2.1-1.3,3.9-4.5,1.3-6.3
			c-1.1-0.8-1.5-2.1-2.3-3.2c-0.7-0.9-1.7-1.5-2.8-1.9C255.6,408.6,255.6,406.3,254.2,404.2z"/>
		<path d="M280.2,425.7c0.6,1.8,2.8,2.7,5.1,1.4c3-1.7,3.3-4.4,3-7.5c-0.6-5.6-1.6-11.2-3.4-16.6c-0.6-1.7-2.9,0-3.2,1
			c-0.9,3.7-1,7.4-1.1,11.2c-0.1,2.1-0.1,4.2-0.2,6.3c0,0.6-0.2,1.2-0.3,1.8c-0.1,0.4-0.1,0.9-0.1,1.3
			C279.9,425.9,280,426,280.2,425.7z M285.2,420.1C285.6,420.1,285.7,420.1,285.2,420.1L285.2,420.1z"/>
		<path d="M299.8,431.4c3.4-1.1,4.4-4.3,4.5-7.4c0.3-5.9-0.7-11.9-0.8-17.9c-0.1-4.6-5.9-1.4-7.1,1.2c-0.3-1.5-0.6-3-1-4.5
			c-0.7-2.5-4.1,0-4.4,1.4c-1,4.3-1.2,8.8-0.5,13.2c0.3,1.7,1.3,2.4,3,2.4c0.9,0,1.8-0.2,2.5-0.5c0,0.5,0,1.1,0,1.6
			c-0.1,2.2-0.8,5-0.7,7.5c0,0.1-0.1,0.3-0.1,0.4C295.1,431.1,297.7,432,299.8,431.4z M300,423.9C300.1,423.9,300.1,423.9,300,423.9
			c0.2,0,0.4,0,0.5,0C300.4,423.9,300.2,423.9,300,423.9z"/>
		<path d="M321.4,426.3c0.5,0.2,1,0.3,1.5,0.2c1.5,0,3-0.8,3.8-2c0.1-0.1,0.1-0.2,0.2-0.3c0.5-0.6,0.9-1.3,1-2
			c0.1-1,0.1-1.8-0.1-2.8c-0.5-1.6-0.9-3.3-1.3-5c-0.8-3.2-1.9-6.1-2.9-9.2c-0.6-1.8-3,0-3.2,1c-0.8,3.2-0.9,6.3-1.1,9.5
			c-0.1,2.8-0.7,7.5,1.1,9.8C320.5,425.8,320.9,426.1,321.4,426.3C321.3,426.2,321.3,426.3,321.4,426.3z M327.6,421.9
			c0-0.1,0-0.1,0-0.2C327.6,421.7,327.6,421.7,327.6,421.9C327.6,421.8,327.6,421.8,327.6,421.9z"/>
		<path d="M341.4,400.5c-3.5-2-9.1,0.9-11.6,4c-0.8,0.6-1.4,1.3-1.3,2.4s1.1,1.6,2.1,1.4c0.1,0,0.3,0,0.4,0.1c0,0,0,0,0,0.1
			c0.5,2.4,1.1,4.8,1.4,7.2c-0.8,0.4-1.5,1.1-1.8,1.9c-0.9,2.4-2.6,4.2-0.6,6.9c1.6,2.3,5.4,1.3,7.4,0.4c1.4-0.7,2.9-2.6,2.6-4.2
			c-0.6-4-1.1-8.8-3.4-12.3c1.2-0.2,2.3-0.4,3.4-1.1C342.1,405.9,344.2,402.1,341.4,400.5z"/>
		<path d="M363.4,421c-1.4-5.4-1.5-11.1-2.2-16.6c-0.3-2-3.2-0.9-3.4,0.7c-1,7.7-1,15.4,0.6,23c0.9,4.4,6.6,1.2,6.7-2.1
			C365,424.2,365,422,363.4,421z"/>
		<path d="M383.1,405.3c1.1-0.7,2.1-3.5-0.2-3.2c-10.2,1.1-18.2,14.3-13.3,23.5c3.5,6.5,10.1,2.9,13.1-2c2.1-3.4,4.5-11.4-1.3-12.6
			c-1.8-0.4-3.8,0.2-5.7,1.2C377.5,409.4,380.4,407.1,383.1,405.3z M378.4,417.5c0,0.2,0.1,0.5,0,1c-0.2,1.3-0.7,2.5-1.3,3.7
			c-0.1,0.2-0.5,0.7-0.7,1l0,0l0,0c-0.5-0.3-0.9-0.9-1.2-1.4c0.1-0.1,0.1-0.3,0.2-0.4c0.3-0.9,0.6-1.7,0.7-2.7
			c0.6-0.4,1.3-0.9,2-1.2C378.3,417.5,378.4,417.5,378.4,417.5z"/>
		<path d="M407.8,425.1c1.4,0.5,3-0.7,3.8-1.7c2-2.4,0.2-6.2-0.5-8.9c-0.8-3-1.7-6-2.3-9.1c-0.5-2.3-3.7-1-3.9,0.8
			c-0.8,5.6,1,11.1,0.9,16.6c0,1.2,0.9,1.8,1.9,2.2C407.7,425.1,407.8,425.1,407.8,425.1z"/>
		<path d="M428.9,413.2c-0.9-5.8-6.5-15.4-13.1-9.3c-0.6,0.6-1.4,2.2-0.2,2.7c-0.5-0.2,1.1,0.7,1.8,0.7c1,0,1.7,0.4,2.4,1
			c1.5,1.4,2.1,3.7,2.5,5.6c0.4,2.2,0.5,4.5,0.1,6.6c-0.1,0.7-0.3,1.3-0.6,1.9l0,0c0.1-0.3-0.2,0.2-0.2,0.2
			c-0.1,0.1-0.1,0.1-0.2,0.2c-1.2,1.2-2.6,4-0.4,5.1c3.4,1.7,6.7-2.1,7.6-5.1C429.4,419.8,429.4,416.3,428.9,413.2z M421.7,422.5
			L421.7,422.5L421.7,422.5L421.7,422.5z"/>
		<path d="M479.7,408.5c1.1-1.8,1.3-3.9,0.7-5.9c-0.8-2.6-3.7-4.8-6.4-3.7c-0.2,0.1-0.4,0.2-0.6,0.3c-4-0.4-8.6,2.7-10.1,6.1
			c-0.2,0.6-0.4,1.2-0.5,1.8c-0.4-2.1-0.9-4.2-1.6-6.2c-0.6-1.5-2.5,0-2.8,0.9c-0.9,3.2-1.5,26.8,6.2,21.9c3.5-2.2,1.5-5.2,0.3-8.1
			c-0.4-1.1-0.8-2.3-1.1-3.5c0.9,1.3,2.2,2.2,3.9,2.6c-0.3,0.6-0.3,1.4,0.2,1.9s1.1,0.8,1.7,1c-0.8,1.5-1.3,3.1-1.2,4.9
			c0.2,3,2.3,5.4,5.1,6.4c3,1,6.1-0.1,8.4-2c3.4-2.8,4.2-7.6,4.1-11.8c0-0.6-0.4-1.5-1-1.7c-2.1-0.8-4.8-1.7-7.5-2.1
			C478.3,410.4,479.1,409.5,479.7,408.5z M467.7,405.9c0.3-1.7,2.8-2.9,4.8-3.6c0.5,1.3,1.7,2.1,2.6,3.2c0,0.1,0.3,0.8,0.3,0.8
			c0,0.1,0,0.1,0,0.2s0,0.2,0,0.3v0.1c0,0.1-0.1,0.2-0.1,0.3v0.1c0,0,0,0-0.1,0.1s-0.3,0.4-0.4,0.5c-0.2,0.2-0.4,0.4-0.6,0.5
			c-0.1,0.1-0.1,0.1-0.1,0.1s-0.1,0.1-0.3,0.2c-0.9,0.6-1.9,0.9-2.8,1s-1.6-0.1-2.1-0.5C467.9,408.5,467.5,407.1,467.7,405.9z
			 M479,422.7c0.1-0.2-0.5,0.5-0.4,0.5c-0.5,0.4-1.3,0.7-2.5,0.2c-2.6-1-3-3.4-2.5-5.7c0.3,0,0.5,0,0.7,0c1.9,0.1,3.7,0.4,5.5,0.8
			c0,0.9-0.1,1.9-0.3,2.8C479.5,421.9,479.3,422.3,479,422.7z"/>
		<path d="M116.3,471.8c-0.9-2.8-1.6-5.6-2.4-8.5c-0.8-3-2-6.7-1.5-9.9c0.2-1.5-1.8-1.1-2.2-0.1c-1.6,3.9-1.5,8.1-1.1,12.2
			c0.2,2.2,0.5,4.5,0.7,6.7c0,0.4,0.1,1.8,0.2,2.6c0,0.1,0,0.2-0.1,0.2C109.3,480.8,118,477.1,116.3,471.8z"/>
		<path d="M124.9,470c-3.7-0.4-7.6,6.4-3.2,6.8c12,0.8,19.7-9.4,14.4-20.5c-0.6-1.2-1.7-1.5-2.8-1.2c0,0,0,0,0-0.1
			c-1.2-3.1-4-7.3-7.9-4.5c-3.2,2.3-4,6.5-4.2,10.2c-0.1,3,0.3,7.4,3.9,8.2c2.6,0.5,4.9-1.1,6.7-3.4c0,0.8-0.2,1.7-0.5,2.5
			C130.4,470.4,127.1,470.2,124.9,470z M127.4,454.2c1.2,0.5,2.7,1.6,3.6,2.4c-0.2,0.3-0.4,0.5-0.5,0.8c-0.8,1.7-1.7,3.5-2.9,5
			l-0.1,0.1c-0.1-0.2-0.2-0.4-0.2-0.5c-0.4-0.9-0.5-1.9-0.6-2.8C126.6,457.6,126.8,455.7,127.4,454.2z"/>
		<path d="M159,448.5c-1.8,0.3-3.4,3.5-0.7,3.5c0.6,0,7-0.3,7.2,0.8c0.1,1.1-2.8,3.6-3.5,4.3c-3.4,3.5-8.2,7.1-9.4,12.1
			c-0.3,1.2,0.4,2.1,1.5,2.4c4,1,7.6,1.1,11.6,0.5c1.8-0.3,3.5-1.5,3.9-3.4c0.4-2-1.5-3.6-3.4-2.7c-2.4,1-4.8,1.1-7.2,0.7
			c1-1.5,2.5-2.8,3.6-3.9c2.2-2.3,4.7-4.6,6.4-7.4c1.1-1.8,2.1-4.5,0.3-6.2C166.8,446.9,161.9,448,159,448.5z"/>
		<path d="M182.2,452.8c-1.3-1-3.2-1.2-4.7-1.2c-0.7,0-1.7,0.3-2.6,0.8c-0.5-0.3-1.4,0-1.8,0.6c-3.2,3.9-3.9,9.6-1.4,14.1
			c1.9,3.4,5.6,5,9,2.6C186.1,466.1,187.7,456.9,182.2,452.8z M179.6,464.1c-0.1,0.3-0.4,0.9-0.5,1.1c-0.2,0.3-0.4,0.5-0.5,0.5
			c-1.2,0.2-2.7-3-3.1-4.1c-0.5-1.4-0.6-2.9-0.5-4.4c1,0.2,2.1,0.2,3,0.4c1.2,0.3,1.7,1.6,2,2.6
			C180.2,461.5,179.9,462.9,179.6,464.1z"/>
		<path d="M202.7,465c-1.3,2.3-3.3,7,0.3,8.4c3.5,1.4,16.3-1.4,12.8-6.5c-0.6-0.9-1.9-0.8-2.8-0.5c-2,0.5-3.9,1.4-5.9,1.5
			c0.1-0.2,0.3-0.7,0.5-1.1c0.4-0.8,0.8-1.5,1.2-2.2c0.8-1.4,1.9-3.1,2.9-4.9c1.2-2.2,3.3-5.9,1.8-8.4c-2.2-3.8-8.3-1.6-11.3-0.1
			c-1.3,0.6-1.7,2.9,0.2,2.9c1.8,0,4.5-0.6,5.9,0c0.2,0.1,0.2,0.1,0.3,0.2c0,0.2-0.1,0.7-0.3,1.2C206.9,458.8,204.6,461.6,202.7,465
			z M208.6,454.2C208.7,454.2,208.7,454.2,208.6,454.2L208.6,454.2z"/>
		<path d="M217.3,449.4c-0.3,7,1.4,13.9,0.4,20.9c-0.7,4.7,5.4,2.5,6.4-0.5c2-6.2-1-16.5-5.2-21.3
			C218.3,447.8,217.3,448.8,217.3,449.4z"/>
		<path d="M250.3,467.2c-0.6,0.2-1.2,0.5-1.9,0.6c0.1-2.2,1.3-4.6,2.1-6.5c1.3-3,2.8-5.9,3.7-9c0.5-1.6,0.5-4-1.3-4.7
			c-2.8-1-5.9,1.2-8,2.8c-1.2,0.9-0.7,2.7,0.9,2.3c1.2-0.3,2.4-0.7,3.6-0.9c0.1,0,0.2,0,0.3-0.1c0,0,0,0.1-0.1,0.2
			c-0.4,2-1.7,4.1-2.6,5.9c-2,4.2-5.2,9.5-4.3,14.3c0.2,1.3,1.1,2,2.4,1.9c1.6-0.1,3.1-0.4,4.7-0.7
			C254.2,472.6,255,465.4,250.3,467.2z"/>
		<path d="M254.4,474c2.8,0.1,5.6,0.3,8.4,0.4c3.6,0.2,6-6.6,1.4-6.4c-0.8,0-1.6,0.1-2.4,0.1c2.4-3.4,4.1-7.5,4.7-11.3
			c0.4-2.2,0.1-4.6-1.9-5.9c-2.3-1.6-5.9,0.5-7.4,2.2c-0.4,0.4-0.4,1.3,0.3,1.4c0.8,0.1,3.5-0.4,3.9,0.4c0.7,1.2-0.3,3.3-0.8,4.4
			c-1.4,3.5-3.5,7.5-6.5,10C252.9,470.3,251.8,473.9,254.4,474z"/>
		<path d="M301.1,470c0.2,1.4,1.3,2.3,2.7,2.2c3.8-0.4,8.7-2.1,10.4-6c1.8-4.2,0.2-7.8-2.7-10.9c0.2-2.8,0-5.5-0.7-8.2
			c-0.1-0.5-0.6-0.8-1.1-0.9c-0.1,0-0.1,0.1-0.2,0.1c-0.6-1.1-1.9,0-2,0.9c0,0-0.8,0.9-0.9,1.2c-0.3,1.2-0.1,2.6-0.1,3.8
			c-0.1,1.8-0.9,3.8-0.8,5.5c0.1,1.3,1.5,2.3,2.2,3.3c4,5.2-3.6,3.8-6.2,6.5c0.5-1.2,0.1-2.7-1.3-3c-1.6-0.4-3.7-0.1-5.7,0.2
			c2.6-6,7.2-10.7,5-17.9c-0.2-0.7-1.1-1.1-1.8-1c-2.2,0.4-4.4,1.2-6.5,2.1c-1.3,0.5-2.6,3.4-0.3,3.2c1.3-0.1,2.7-0.4,4-0.6
			c0.1,6.2-4.8,11.2-7,16.9c-0.4,1.2-0.4,3.1,1.3,3.2c4,0.3,8.6,0.8,11.6-2.3C301.1,468.8,301,469.3,301.1,470z"/>
		<path d="M328.4,469.4c2.8,1,5.7,0.9,8.6,1.3c2.4,0.3,4.9,0.3,6.1-2.3c0.9-1.9-0.6-3.8-2.6-3.6c-2.4,0.2-4.7,0.2-7-0.1
			c0.9-1.4,2-2.8,2.9-4.1c2-3,4.1-6.1,5.3-9.5c0.7-2,1.5-5-0.5-6.5c-2.4-1.8-6.3,0.3-8.6,1.4c-1.3,0.6-1.2,2.6,0.5,2.2
			c0.7-0.2,5.2-1.5,5,0.3c-0.3,2.2-2,4.6-3.2,6.4c-2.4,3.8-5.9,7.4-7.7,11.5C326.5,467.7,326.9,468.9,328.4,469.4z"/>
		<path d="M355.9,461.5c-0.2-3.7-0.3-7.4-0.4-11.1c-0.1-3.2-4.6-1.4-5.3,0.8c-1-1.6-0.8-3.9-1.9-6c-0.5-0.9-1.7-0.3-2,0.4
			c-2.3,5.2-2.4,10.8,3.5,12.6c-0.1,1.8-0.1,3.6-0.2,5.3c-0.1,2.3-0.6,5,0,7.4c-0.1,0.9,0.3,1.4,0.8,1.6c1.8,1.5,5.5-1,5.4-3.5
			c0.1-0.8,0.3-1.8,0.3-2.1C356.2,465.1,356,463.3,355.9,461.5z M355.7,469.9c0-0.1,0.1-0.1,0.1-0.2
			C355.7,469.9,355.7,470,355.7,469.9z"/>
		<path d="M374.9,470.4c3.4-0.5,6.2-7,1.4-6.5c-1.5,0.1-1.2,0.5-1.3-1c-0.1-2,0.8-4.1,1.3-6.1c0.8-3.9,1-8.9-3.5-10.5
			c-1.5-0.5-4.7,1.7-2.9,3.2c3.6,3,1.9,9.1,0.1,12.9C368.1,466.5,369.8,471.1,374.9,470.4z"/>
		<path d="M388.3,444.4C388.3,444.4,388.2,444.4,388.3,444.4c-1.5-0.1-2.9,0.5-4.3,1.1c-1.6,0.7-3.2,1.4-4.9,1.8
			c-1.5,0.3-2.9,3.2-0.8,3.7c0.6,0.1,1.3,0.2,2,0.3c-1.4,4.9-0.4,9,1.8,13.3c-0.7,3.5,0.5,6.1,4.9,4.6c1.5-0.5,3.5-2.8,2.1-4.4
			c-3.4-3.7-5.5-8.6-5.4-13.6c0.8-0.1,1.6-0.3,2.4-0.5c0.5-0.1,1.3-0.5,1.7-0.7c-0.2,0.1,1.9-1.6,1.3-1.2
			C390.8,447.5,391.1,444.2,388.3,444.4z"/>
		<path d="M407.9,467c3.2,0.3,6.5,1.2,9.5,2.3c3.9,1.4,7.7-5.2,3.6-5.9c-2.7-0.5-5.5-1-8.3-1.3c2.1-3.9,5.3-7.2,6.9-11.3
			c1.3-3.4-0.6-6.6-4.2-4.7c-0.5,0.2-0.7,0.7-0.6,1.2c0.2,1,1.1,1.7,0.7,2.7c-0.6,1.7-1.8,3.2-2.8,4.6c-2.1,3.1-4.1,6.2-6,9.4
			C406.1,465.2,406.5,466.9,407.9,467z"/>
		<path d="M426.7,459.3c-1-1.5-2.6-2.5-2.3-4.5c0.3-2.2,2.2-3.6,2.5-5.8c0.1-0.9-0.6-1.3-1.4-1.1c-6,1.3-9.7,13.1-2.8,15.7
			C425.1,464.5,428.2,461.7,426.7,459.3z"/>
		<path d="M477.6,441.9c-0.2-1.3-1.9-0.5-2.4,0.5c-1.5,1.8-1.3,4.8-1.5,7c-0.2,2.1-1.4,6.3,0.2,8c1.3,1.4,3.8,0.5,4.7-1
			c0.5-0.8,1.1-1.7,1-2.7c-0.1-1.4-0.2-2.9-0.4-4.3C479,447.5,479.3,443.3,477.6,441.9z"/>
		<path d="M107.9,514.3c4.5,0.9,9,1.1,13.5,0.8c0.3,1.5,2.3,1.9,4.3,2c0.7,0,1.3-0.1,1.7-0.4c0.2,0.6,0.6,1.1,1.4,1.2
			c5.4,0.8,12.9-1.2,13.6-7.7c0.3-3.2-1.3-5.4-3.6-6.3c0.3-0.4,0.7-0.8,0.9-1.2c1.3-2.1,1.7-4.4,1.8-6.8c0-0.7,0.1-1.8-0.4-2.4
			c-0.7-0.7-1.4-1.2-2.3-1.6c-1.4-0.6-3.1-0.6-4.6-0.3c-0.1-0.3-0.4-0.5-0.9-0.4c-3.8,1-7.3,3.7-7.5,7.9c-0.1,2.8,2.1,5.4,4.6,6.4
			c-0.9,0.7-1.6,1.6-1.9,2.7c0,0.1,0,0.1,0,0.2c-0.2,0.3-0.3,0.5-0.4,0.8c-0.4-0.1-0.9-0.1-1.4,0.1c-3.8,0.9-7.7,1.1-11.5,0.9
			c4.8-4.3,7.7-10.4,4.8-17c-0.3-0.6-0.9-0.9-1.5-0.9c-4.8,0.5-5.9,2.3-8,6.2c-0.7,1.2,0.9,1.4,1.6,0.9c1.9-1.4,2.3-2.8,4.3-3.1
			c1.5,6.3-2.3,10.8-7.8,13.7C106.8,510.8,105.5,513.9,107.9,514.3z M136.5,511.6c0,0.1-0.1,0.2-0.1,0.2c0,0.1-0.1,0.1-0.1,0.2
			c0,0-0.1,0.1-0.2,0.1l0,0c0,0-0.1,0.1-0.2,0.1c-0.1,0-0.1,0.1-0.2,0.1c-0.1,0-0.1,0-0.2,0.1c-1,0.4-2,0.4-3.1,0.4
			c-0.2-1-0.3-2-0.1-2.9c0.2-0.1,0.5-0.2,0.7-0.3c0.3-0.1,0.6-0.3,1-0.4c0,0,1-0.2,0.4-0.1c1-0.2,1-0.2,1.8,0.4
			c-0.5-0.3,0.2,0.4,0.2,0.3c0.1,0.3,0.2,0.7,0.3,0.7c0,0.2,0,0.3,0,0.5l0,0v0.1C136.6,511.3,136.5,511.5,136.5,511.6z M129.8,497
			c0-0.2,0.1-0.6,0-0.3c0.2-0.5,0.2-0.6,0.4-0.9c0.1,0.3,0.4,0.5,0.7,0.7c1.7,0.9,3.7-0.3,5.3,0.6c0.1,1.2,0,2.1-0.3,3.3
			c0,0.1-0.2,0.4-0.2,0.5s-0.1,0.1-0.1,0.2c0,0,0,0.1-0.1,0.1l-0.1,0.1l-0.1,0.1c0,0-0.1,0-0.1,0.1c-0.1,0-0.2,0.1-0.3,0.1
			s-0.2,0-0.3,0s-0.1,0-0.2,0h-0.1c-0.2,0-0.4-0.1-0.6-0.1c-0.1,0-0.4-0.1-0.5-0.1c-0.4-0.1-0.7-0.3-1.1-0.5
			c-1.2-0.7-2.3-2.1-2.4-3.4C129.7,497.3,129.8,497.1,129.8,497z"/>
		<path d="M162.7,512.6c-0.6,1.1-0.2,3,1.3,3.1c4.5,0.3,9.7,0.9,14.1-0.6c2.6-0.9,4.6-6.8,0.5-6c-2.9,0.6-5.9,0.8-8.9,1
			c2.5-3.8,5.6-7.3,7-11.7c2-6.2-3-7.9-8.3-6.6c-1.1,0.3-2.3,2.6-0.6,2.9c1.3,0.2,4.4,0.3,4.5,2c0.1,1.6-1.4,3.6-2.2,4.9
			C167.8,505.4,165,508.8,162.7,512.6z"/>
		<path d="M179.7,495.6c-2.3,6.8,5,9,10.2,8.7c0.7,0,1.4-0.3,2-0.8c-1.1,3.6-4.2,5.8-8.2,4.2c-1-0.4-2.4,0.8-1.7,1.9
			c4.7,6.8,12.5,0.6,14.8-5.1s1.2-15.6-5.9-17.2C185.6,486.1,181.1,491.3,179.7,495.6z M188.2,492.6c1.2-0.1,2.2,1.5,2.8,2.3
			s0.9,1.7,1.2,2.7c-0.2,0-0.5,0-0.8,0c-1.4,0.2-6.4,1.1-6.1-1.8C185.4,494.2,186.6,492.7,188.2,492.6z"/>
		<path d="M231.2,499.6c-2.3,4.4-1.8,9.6,2.3,12.7c4.2,3.2,9.2-0.5,11-4.5c2.4-5.4,1.9-12.3-3.1-15.9c-2.3-1.6-5.5-1.5-8-0.7
			c-2.4,0.7-6.2,3.1-6.7,5.9c0-0.4-0.1-0.7-0.2-1.1c-1.1-3.3-4.6-4.9-7.9-4.4c-1.3,0.2-2.9,2-1.4,3.1c1.4,1,3,1.4,4.1,2.8
			c1.5,1.7-0.7,4.4-1.7,5.7c-0.5,0.6-1,1.8-0.5,2.5c0.5,0.8,1.2,1.5,1.8,2.3c-0.8,0-1.5,0.2-2.3,0.6c-1.2,0.6-2.6,2.5-1.9,3.9
			c1.8,3.6,6.5,1.6,8.9-0.1c2.2-1.6,2.4-3.4,1.7-5.8c-0.3-1.2-1.4-2.1-2.4-3c0.9-1.5,1.7-3.2,1.9-4.9c0.2,1.1,0.9,1.6,2,1.6
			c2.9,0,4.8-3.7,7.8-2.5c3.1,1.2,3.6,5.1,3.1,8c-0.3,2-0.7,3.5-2.7,1.9c-2.3-1.8-3.3-4.9-2.8-7.7
			C234.4,497.7,231.8,498.4,231.2,499.6z"/>
	</g>
	<path d="M421.3,249.7c-4.1-8-8.8-16.8-16.3-22.3c-7.1-5.3-16-6.4-24-9.8c-3.6-1.5-3,3.2-2.4,5.2c0.7,2.2,2.1,4.6,3.8,6.6
		c-9.4,7.4-13.3,22.4-13.8,33.2c-0.7,15.9,1.6,32.2,15.3,42.4c11.1,8.3,31.9,8.5,38.4-5.7C429.2,284.3,428.8,264.3,421.3,249.7z
		 M414.8,276.9c-1.4,7-3.4,13.9-10.5,17c-6.4,2.8-15.2,3.3-21.3-0.7c-4.7-3.1-3.7-11.3-3.4-16.2c0.2-7.7,0.7-14.9,4.4-21.8
		c3-5.7,6.8-13,13.7-14.7c1.7-0.5,2.1-2.1,1.7-4.1c1.7,0.6,3.4,1.3,5.1,2.1c5.5,2.8,9.5,10.7,11,16.4
		C417.1,261.7,416.1,270,414.8,276.9z"/>
	<path d="M273.7,493.6c-0.5-1.9-3.3-0.1-3.5,1.1c-0.7,3.7-0.6,7.4-0.3,11.1c0.1,1.6,0.3,3.1,0.3,4.7c0,0.4-0.1,1.5-0.1,1.7
		c0,0.3,0,0.5,0,0.6c-0.1,0.6,0,1.3,0.5,1.9c1.4,1.8,4.2,0.8,5.6-0.4c2-1.8,2.6-4.2,2-6.8C277.2,502.8,275,498.4,273.7,493.6z"/>
	<path d="M267,505.4c0.9-1.5,1.7-3.2,1.9-4.9c0-0.6,0-1,0-1.4s-0.1-0.7-0.2-1.1c-1.1-3.3-4.6-4.9-7.9-4.4c-1.3,0.2-2.9,2-1.4,3.1
		c1.4,1,3,1.4,4.1,2.8c1.5,1.7-0.7,4.4-1.7,5.7c-0.5,0.6-1,1.8-0.5,2.5c0.5,0.8,1.2,1.5,1.8,2.3c-0.8,0-1.5,0.2-2.3,0.6
		c-1.2,0.6-2.6,2.5-1.9,3.9c1.8,3.6,6.5,1.6,8.9-0.1c2.2-1.6,2.4-3.4,1.7-5.8C269,507.2,267.9,506.4,267,505.4z"/>
</g>
<g id="Layer_4">
	<path d="M341.1,219.9c-0.3,15.1-0.5,30.2,1.1,45.2c0.8,7.3,2.1,14.6,2.4,21.9c0.3,5.9-1.2,11.6,1.9,16.9c1,1.7,4.3,6.7,6.8,5.9
		c2.7-0.9,1.2-4.5,0.2-6.2c1,1.7,0.7-0.9,0.8-1.6c0.2-1.5,0.1-3,0.1-4.5c0-3.4-0.4-6.8-0.7-10.2c-0.7-6.5-1.7-12.9-2.2-19.3
		c-1.1-13.3-0.8-26.6-0.6-39.9c0.1-3.2-2.4-6.7-4.8-8.6C344.5,218.4,341.1,216.7,341.1,219.9L341.1,219.9z"/>
	<path d="M302.2,218.5c-0.5,11.9-0.9,23.8-1.7,35.7c-0.7,11-2.1,22.1-0.8,33.1c0.9,7.6,2.8,19.6,9.7,24.3c7.7,5.2,20.1-2.6,27-6.3
		c4.1-2.2,0.2-14.3-3.1-12.6c-5.5,2.9-14.2,8.6-20.7,7.8c-8.4-1-6.8-18.7-6.5-24.6c0.9-17.5,2.1-34.9,2.8-52.4
		c0.1-2.5-0.7-7.1-3.2-8.4C303.3,213.9,302.3,216.2,302.2,218.5L302.2,218.5z"/>
	<path d="M215.7,221.6c2.9,19.9,5.3,40.2,5.4,60.2c0,9.8-1,19.7-5.2,28.7c-1.9,4.1-4.6,7.4-8,10.3c-1.5,1.3-10.8,8.8-12.1,7.2
		c-1.1-1.4-4.7-4.2-6.5-2.5c-1.9,1.8,1,5.4,2.1,6.7c7.4,9,15.9,5,23.7-1c9-7,13.1-17.1,14.8-28.2c1.7-11.8,0.9-23.7,0-35.5
		c-1-13.4-2.5-26.7-4.4-40c-0.4-2.9-2.6-5.6-5.1-7C218.9,219.6,215.3,218.6,215.7,221.6L215.7,221.6z"/>
	<path d="M280,215.4c-9.7-3.7-9.1,9.5-9.5,15.5c-0.6,10.2-0.6,20.5-0.1,30.7c-0.2,0.6-0.4,1.2-0.6,1.9c-2.2,6.4-4.9,12.6-7.9,18.7
		c-1.1,2.2-4.2,9.8-7.6,13.7c-0.1-0.3-0.1-0.6-0.2-0.9c-0.6-3.6-1.1-7.1-1.6-10.7c-0.9-6.5-1.5-13.1-1.6-19.7
		c-0.2-12.6,1.5-25.2,6.5-36.9c1.6-3.6-8.2-9.5-9.5-6.5c-8.5,20-7.8,41.5-4.8,62.6c1.2,8.1,1,18.6,10.1,21.9
		c8.6,3.1,12.8-7.1,16.1-13.1c1.1-2.1,2.2-4.3,3.3-6.4c0.9,6.9,2.1,13.7,3.5,20.5c0.7,3.3,10.7,8.3,9.7,3.5
		c-2.9-14.2-4.8-28.6-5.5-43c3.4-10.4,5.8-21.1,7.1-32C288.3,226.9,289,218.8,280,215.4z"/>
</g>
</svg>
