<?xml version="1.0" encoding="utf-8"?>
<!-- Generator: Adobe Illustrator 23.0.1, SVG Export Plug-In . SVG Version: 6.00 Build 0)  -->
<svg version="1.1" id="Layer_2" xmlns="http://www.w3.org/2000/svg" xmlns:xlink="http://www.w3.org/1999/xlink" x="0px" y="0px"
	 viewBox="0 0 566.93 566.93" enable-background="new 0 0 566.93 566.93" xml:space="preserve">
<path d="M501.745,368.693c-0.099-1.035-2.5-3.192-2.321-1.315c2.181,22.82,0.014,45.959-1.188,68.815
	c-0.025,0.011-0.047,0.017-0.072,0.029c-13.771,6.225-27.453,12.597-39.941,21.171c3.459-26.258,3.586-52.805-0.273-79.032
	c-0.119-0.808-2.4-2.501-2.235-1.379c3.9,26.503,3.724,53.325,0.122,79.852c-0.062,0.459,0.484,1.124,1.051,1.562
	c-0.598,0.815,1.921,0.558,2.73-0.006c11.986-8.36,25.257-14.466,38.528-20.467c-0.018,0.361-0.039,0.723-0.056,1.084
	c-0.05,1.024,2.285,3.369,2.355,1.94C501.616,416.955,504.037,392.674,501.745,368.693z"/>
<path d="M457.542,458.556c-21.809-11.464-46.683-14.29-69.297-23.646c1.183-5.851,0.886-11.853,0.999-17.797
	c0.116-6.079,0.33-12.156,0.56-18.232c0.47-12.421,1.037-24.84,1.125-37.272c0.006-0.826-1.916-2.921-1.924-1.8
	c-0.088,12.431-0.655,24.851-1.125,37.271c-0.23,6.076-0.443,12.152-0.56,18.232c-0.119,6.185,0.226,12.431-1.134,18.505
	c-0.034,0.152,0.003,0.352,0.088,0.57c-0.598,0.036-1.074,0.236-0.277,0.575c0.275,0.117,0.554,0.22,0.829,0.335
	c0.45,0.545,1.004,0.905,1.221,0.493c22.342,9.03,46.826,11.956,68.296,23.242C456.921,459.334,458.748,459.19,457.542,458.556z"/>
<path d="M499.332,363.256c-0.219,0.068-0.438,0.139-0.657,0.207c-20.318-6.943-40.996-12.709-61.978-17.272
	c-0.316-0.069-0.497,0.704-0.454,1.44c-13.478,3.013-25.843,11.978-39.667,12.498c-1.925-0.628-3.84-1.289-5.735-2.031
	c-0.676-0.265-1.14,0.582-1.293,1.528c-0.04-0.008-0.08-0.012-0.12-0.02c-0.27-0.052-0.172,0.495,0.085,1.058
	c0.055,0.514,0.227,0.936,0.544,1.06c20.865,8.171,43.667,8.884,64.71,16.41c0.105,0.565,0.391,0.979,0.908,0.906
	c14.849-2.088,29.345-7.844,43.621-12.272C500.455,366.408,500.643,362.85,499.332,363.256z M437.672,349.756
	c0.242-0.052,0.27-0.322,0.192-0.649c19.19,4.211,38.124,9.437,56.758,15.651c-12.378,4.026-24.931,8.622-37.745,10.589
	c-0.115-0.276-0.288-0.487-0.533-0.579c-17.444-6.489-36.184-7.993-54.027-12.907C414.43,359.848,425.569,352.365,437.672,349.756z"
	/>
<path d="M473.199,327.382c-0.022,0.009-0.044,0.016-0.065,0.024c0.093-0.57,0.066-1.132-0.153-1.424
	c-4.585-6.078-6.987-13.438-11.594-19.501c-0.513-0.675-1.046-0.013-1.319,0.866c-2.659-0.367-5.318-0.733-7.977-1.099
	c-0.11-0.182-0.381-0.203-0.698-0.103c-1.112-0.169-2.584-0.314-2.794,0.988c-0.066,0.41,0.332,0.879,0.779,1.185
	c-3.561,5.555-7.035,11.162-10.427,16.822c-0.084-0.047-0.169-0.088-0.253-0.136c-0.309-0.177-0.423,0.44-0.355,1.137
	c-0.105,0.176-0.214,0.349-0.319,0.525c-0.634,1.064-0.051,1.076,0.669,0.72c0.087,0.149,0.186,0.269,0.303,0.336
	c5.158,2.955,10.762,4.678,16.465,5.171c0.744,10.115,1.488,20.23,2.232,30.346c0.061,0.831,2.18,2.679,2.096,1.535
	c-0.779-10.587-1.557-21.174-2.336-31.761c5.505,0.195,11.065-0.749,16.373-2.884C474.663,329.791,473.896,327.102,473.199,327.382z
	 M440.32,325.874c3.336-5.592,6.767-11.125,10.273-16.612c0.145,0.099,0.286,0.178,0.401,0.193c3.062,0.417,6.084,0.382,9.107-0.092
	c4.421,5.827,6.832,12.836,11.081,18.766C460.943,331.637,449.957,330.835,440.32,325.874z"/>
<path d="M134.742,443.273c1.207,5.222,2.399,10.404,2.163,15.8c-0.081,1.846,2.137-0.409,2.182-1.459
	c0.245-5.608-0.939-10.985-2.195-16.418C136.56,439.758,134.504,442.246,134.742,443.273L134.742,443.273z"/>
<path d="M321.444,391.334c21.77-5.127,43.499-10.426,65.244-15.66c1.476-0.355-1.174-2.414-2.237-2.158
	c-21.745,5.234-43.473,10.534-65.244,15.66C317.731,389.524,320.379,391.585,321.444,391.334L321.444,391.334z"/>
<path d="M136.805,460.959c32.235-4.724,62.244-17.68,93.138-27.363c32.644-10.232,66.405-16.106,99.55-24.394
	c18.278-4.57,36.318-10.01,54.347-15.467c0.682-0.206,1.571-2.46,0.569-2.157c-32.586,9.862-65.313,18.169-98.528,25.615
	c-15.84,3.551-31.664,7.237-47.251,11.787c-15.464,4.515-30.593,10.049-45.832,15.251c-17.998,6.144-36.209,11.715-55.07,14.479
	C136.946,458.827,136.086,461.064,136.805,460.959L136.805,460.959z"/>
<path d="M137.166,458.732c-23.67-20.092-43.005-44.576-65.598-65.788c0.102-0.254,0.172-0.517,0.164-0.778
	c-0.05-1.624-0.08-3.248-0.091-4.872c-0.004-0.698-0.83-0.387-1.146-0.149c-0.548,0.413-0.933,1.127-0.928,1.814
	c0.01,1.624,0.04,3.248,0.091,4.872c0.01,0.335,0.203,0.435,0.434,0.425c0.068,0.542,0.213,1.026,0.428,1.227
	c23.043,21.488,42.656,46.416,66.719,66.842C137.726,462.739,138.006,459.446,137.166,458.732z"/>
<path d="M136.23,459.345c1.211,7.338,1.405,14.641,0.57,22.035c-0.141,1.245,2.879,3.153,3.025,1.859
	c0.856-7.585,0.672-15.077-0.571-22.612C139.066,459.481,135.964,457.731,136.23,459.345L136.23,459.345z"/>
<path d="M152.501,477.742c-0.084-3.114,1.007-6.049,1.278-9.227c0.295-3.456-0.353-6.924-0.22-10.387
	c0.031-0.805-1.749-2.695-1.791-1.593c-0.174,4.558,0.532,8.987-0.272,13.525c-0.505,2.85-0.992,5.321-0.628,8.021
	c-4.046,1.041-8.275,1.218-12.205,2.719c-1.491-1.254-2.3-3.466-3.48-4.955c-1.065-1.344-2.822-2.464-3.63-3.94
	c-1.19-2.174-0.168-4.355,0.5-6.629c0.654-2.224,0.804-4.138,1.126-6.462c0.118-0.854-2.336-1.741-2.407-1.227
	c-0.427,3.085-1.108,5.833-1.849,8.831c-0.424,1.715-0.843,3.521,0.108,5.121c1.334,2.244,3.889,3.668,5.375,5.965
	c1.16,1.793,1.798,3.055,3.601,4.176c-0.048,1.178,1.014,3.106,1.95,2.736c4.39-1.735,9.169-1.736,13.652-3.131
	C154.679,480.955,153.668,478.033,152.501,477.742z"/>
<path d="M77.262,415.693c-0.881-2.161-2.254-3.947-4.085-5.353c0.102-4.681-0.282-9.3-1.19-13.901
	c-0.119-0.606-2.172-0.164-2.047,0.472c0.957,4.85,1.351,9.718,1.187,14.658c-0.001,0.04,0.029,0.066,0.051,0.096
	c-0.071,0.405-0.019,0.768,0.241,0.948c1.835,1.268,3.286,3.031,4.131,5.102C76.039,418.917,77.6,416.52,77.262,415.693z"/>
<path d="M79.272,415.108c-1.341-4.356-1.531-8.739-0.569-13.196c0.129-0.596-2.861-0.753-3.062,0.178
	c-0.961,4.455-0.773,8.839,0.569,13.196C76.483,416.176,79.461,415.724,79.272,415.108L79.272,415.108z"/>
<path d="M85.83,415.984c0.004-0.077,0.025-0.156,0.021-0.232c-0.17-3.023-0.518-6.019-1.043-9.001
	c-0.294-1.669-2.783,0.958-2.572,2.156c0.399,2.265,0.695,4.54,0.889,6.827c-1.696-0.137-3.392-0.274-5.088-0.411
	c-0.811-0.065-1.162,2.742-0.415,2.802c2.557,0.206,5.114,0.413,7.671,0.619C86.053,418.807,86.409,416.333,85.83,415.984z"/>
<path d="M388.588,331.447c-3.217-7.877-13.181-8.459-20.413-9.494c-6.426-0.92-11.977-3.615-18.171-5.259
	c-3.435-0.912-6.94-1.476-10.219-2.921c-2.637-1.163-5.06-2.766-7.684-3.961c-9.269-4.221-17.62-0.178-26.682,2.908
	c-9.186,3.128-19.967,6.56-22.8,17.023c-0.225,0.831,2.515,1.637,3.317,1.119c0.286,0.111,0.559,0.186,0.766,0.199
	c11.704,0.704,22.865,1.858,32.674,8.846c4.918,3.504,12.019,8.8,18.536,8.142c3.598-0.363,7.369-2.902,10.618-4.378
	c4.751-2.158,9.458-4.478,14.289-6.45c5.373-2.194,10.46-1.899,16.1-2.214c3.58-0.2,6.733-0.981,9.58-3.202
	C388.613,331.708,388.642,331.588,388.588,331.447z M381.859,332.56c-4.758,1.741-10.005,0.412-14.925,1.149
	c-3.591,0.538-6.912,2.032-10.199,3.504c-4.556,2.039-9.089,4.129-13.634,6.193c-1.617,0.735-3.383,1.866-5.113,2.322
	c-3.156,0.834-5.642,0-8.52-1.414c-7.352-3.612-12.907-9.136-20.926-11.577c-7.142-2.174-14.629-2.746-22.047-3.201
	c3.079-9.017,12.511-12.212,20.875-15.072c4.284-1.465,8.571-3.109,12.936-4.315c7.085-1.956,11.399,1.613,17.417,4.358
	c2.809,1.282,5.707,2.035,8.702,2.762c4.969,1.206,9.56,3.259,14.45,4.671c3.173,0.916,6.423,1.336,9.686,1.777
	c3.234,0.438,6.721,0.682,9.694,2.145C383.537,327.479,386.804,330.75,381.859,332.56z"/>
<path d="M386.813,332.027c0.537,3.273,1.39,7.56-1.087,10.38c-2.126,2.421-5.842,2.911-8.735,3.77
	c-4.82,1.431-9.645,2.844-14.467,4.266c-4.518,1.332-9.078,2.971-13.718,3.827c-5.875,1.084-8.457-1.819-10.76-6.909
	c-0.668-1.477-1.316,1.355-0.959,2.143c2.062,4.559,4.6,8.62,10.181,8.085c7.501-0.719,15.291-4.125,22.49-6.248
	c5.19-1.531,14.283-2.341,17.405-7.397c2.278-3.689,1.619-8.699,0.959-12.722C387.791,329.205,386.589,330.661,386.813,332.027
	L386.813,332.027z"/>
<path d="M283.869,330.027c-0.329,3.427,0.245,6.139,3.039,8.369c5.807,4.636,14.044,6.873,20.943,9.259
	c7.677,2.655,15.362,5.297,23.162,7.57c5.473,1.595,13.154,5.073,18.663,2.186c0.485-0.254,0.113-2.238-0.467-1.934
	c-5.121,2.683-12.19-0.501-17.333-1.979c-5.705-1.64-11.348-3.488-16.968-5.396c-5.126-1.74-10.28-3.439-15.333-5.381
	c-4.909-1.886-15.515-5.07-14.872-11.757C284.762,330.34,283.995,328.715,283.869,330.027L283.869,330.027z"/>
<path d="M244.235,322.359c5.012-11.307,19.511-15.417,30.934-14.553c6.317,0.477,12.579,1.754,18.905,2.309
	c6.752,0.592,13.466,1.318,20.164,2.369c1.115,0.175-0.206-3.115-1.438-3.308c-7.304-1.146-14.626-1.858-21.986-2.528
	c-6.794-0.619-13.645-2.333-20.47-2.262c-10.825,0.113-23.683,4.603-28.361,15.154C241.486,320.664,243.74,323.477,244.235,322.359
	L244.235,322.359z"/>
<path d="M243.83,321.481c4.074,4.39,9.261,6.37,15.134,7.115c4.383,0.556,8.807,0.517,13.184,1.168
	c4.312,0.642,8.503,1.604,12.878,1.755c1.596,0.055-0.626-3.008-1.729-3.046c-6.234-0.215-12.28-1.897-18.497-2.357
	c-6.852-0.507-14.683-0.326-19.755-5.792C243.462,318.618,242.234,319.761,243.83,321.481L243.83,321.481z"/>
<path d="M242.998,321.767c-0.656,2.298-1.025,4.213,1.08,5.789c3.479,2.604,9.563,3.96,13.667,5.155
	c8.956,2.608,17.862,4.333,27.119,5.44c0.664,0.079,1.94-1.519,0.96-1.636c-5.96-0.713-44.049-5.321-41.222-15.214
	C244.929,320.158,243.187,321.107,242.998,321.767L242.998,321.767z"/>
<path d="M183.992,330.324c15.757,3.511,31.094,11.884,45.524,18.836c16.891,8.138,34.056,16.512,49.721,26.877
	c2.284,1.511,4.964,3.083,6.786,5.167c3.659,4.185,4.548,11.95,5.875,17.139c0.184,0.72,2.297,0.332,2.127-0.332
	c-2.043-7.987-2.905-15.466-9.66-20.44c-6.307-4.644-13.262-8.477-20.104-12.259c-18.458-10.204-37.481-19.571-56.867-27.878
	c-7.111-3.047-14.425-6.371-22.009-8.061C184.767,329.235,182.863,330.072,183.992,330.324L183.992,330.324z"/>
<path d="M190.084,331.357c-1.066-0.553-10.47-4.693-10.294-5.589c0.13-0.663,5.459-1.773,6.173-1.981
	c2.818-0.821,5.657-1.57,8.512-2.248c4.212-1.001,8.635-2.149,13.005-1.952c5.025,0.227,9.484,2.491,13.952,4.592
	c17.513,8.237,35.015,16.517,52.2,25.425c8.727,4.524,17.371,9.211,25.878,14.138c8.063,4.67,17.521,9.24,18.731,19.566
	c0.375,3.199,1.571,7.999-1.516,9.77c-2.157,1.238-4.785,1.808-7.173,2.353c-5.294,1.209-10.693,1.813-16.052,2.642
	c-1.193,0.185-1.109,3.96-0.193,3.818c5.359-0.83,10.758-1.434,16.052-2.642c3.22-0.735,8.459-1.571,10.189-4.807
	c0.786-1.471,0.566-3.203,0.52-4.802c-0.111-3.833-0.002-7.838-0.971-11.581c-1.871-7.224-7.998-11.452-14.07-15.091
	c-16.863-10.107-34.408-19.081-52.068-27.698c-9.127-4.453-18.305-8.8-27.49-13.13c-8.22-3.875-15.111-7.413-24.457-5.78
	c-4.562,0.797-9.082,1.972-13.537,3.228c-2.822,0.795-8.301,1.268-9.655,4.37c-2.711,6.21,7.964,9.137,11.67,11.06
	C190.523,335.555,191.043,331.855,190.084,331.357L190.084,331.357z"/>
<path d="M52.133,372.741c3.963-4.224,7.926-8.448,11.889-12.672c3.871-4.126,7.621-8.329,12.715-10.971
	c10.81-5.608,23.932-8.105,35.832-10.228c24.091-4.298,48.761-6.053,73.165-7.475c1.076-0.063-0.438-2.874-1.513-2.812
	c-25.003,1.457-50.323,3.22-74.977,7.805c-11.028,2.051-22.541,4.57-32.794,9.259c-10.614,4.854-18.401,16.08-26.231,24.425
	C49.428,370.916,51.474,373.444,52.133,372.741L52.133,372.741z"/>
<path d="M296.985,398.561c-0.327-0.411-0.977-0.866-2.219-0.681c-26.085,3.854-52.117,9.98-77.291,15.904
	c-13.486,3.174-27.432,6.455-41.212,9.347c-2.736,0.574-5.584,1.08-8.337,1.568c-6.265,1.113-12.744,2.264-18.83,4.354
	c-3.655,1.257-6.64,2.742-9.124,4.542c-1.275,0.924-2.501,2.002-3.859,3.393c-0.257,0.264-0.502,0.538-0.747,0.813
	c-0.152,0.17-0.303,0.34-0.459,0.508c-2.321,2.498-2.62,2.819-6.182,3.863c-3.806,1.117-5.641,0.731-8.531-1.789
	c-1.64-1.429-2.997-3.236-3.996-4.651c-2.16-3.06-4.11-6.39-5.996-9.61l-2.208-3.753c-3.588-6.091-7.298-12.39-11.604-18.197
	c-5.792-7.813-11.912-13.533-18.708-17.489c-1.898-1.104-3.914-2.119-5.863-3.101c-6.288-3.166-12.227-6.155-15.391-12.225
	c-0.688-1.319-2.486-1.386-3.827-0.688c-1.347,0.702-1.509,1.889-1.09,2.693l0,0.001c3.452,6.619,9.622,10.159,16.177,13.492
	c8.89,4.521,15.092,9.11,20.11,14.882c5.421,6.233,9.815,13.411,14.21,20.832c0.929,1.569,1.837,3.239,2.799,5.007
	c3.314,6.093,7.071,12.999,12.689,17.064c2.809,2.033,5.916,3.056,8.96,3.056c2.764,0,5.477-0.843,7.865-2.537
	c1.845-1.309,3.334-2.938,4.775-4.514c1.357-1.485,2.64-2.888,4.17-4.005c4.726-3.447,10.727-4.856,15.98-5.906
	c19.355-3.867,39.781-8.352,62.443-13.708c24.487-5.789,48.512-11.287,73.207-14.938c1.03-0.152,1.987-0.857,2.327-1.715
	C297.476,399.743,297.385,399.065,296.985,398.561z"/>
<path d="M162.42,406.107c10.913-3.101,22.331-3.726,33.115-7.149c10.774-3.42,21.864-5.853,32.827-8.589
	c0.888-0.222,1.441-2.908,0.534-2.682c-10.963,2.736-22.052,5.17-32.827,8.589c-10.784,3.423-22.202,4.048-33.115,7.149
	C162.07,403.676,161.54,406.357,162.42,406.107L162.42,406.107z"/>
<path d="M264.511,386.604c2.838-0.776,5.675-1.552,8.513-2.328c0.714-0.195-0.044-2.934-0.78-2.733
	c-2.838,0.776-5.675,1.552-8.513,2.328C263.018,384.066,263.776,386.805,264.511,386.604L264.511,386.604z"/>
<path d="M113.693,405.639c3.07,5.585,8.874,6.664,14.783,7.174c8.458,0.73,17.104,0.437,24.51-4.154
	c0.89-0.551-1.294-2.547-2.039-2.086c-4.697,2.912-9.814,4.157-15.323,4.374c-5.445,0.215-16.694,0.744-19.692-4.708
	C115.534,405.513,112.928,404.247,113.693,405.639L113.693,405.639z"/>
<path d="M79.616,370.631c7.092,8.783,15.075,16.692,23.935,23.69c0.737,0.582,3.436-1.006,2.636-1.638
	c-8.762-6.92-16.663-14.725-23.678-23.413C81.842,368.445,79.113,370.008,79.616,370.631L79.616,370.631z"/>
<path d="M-6.124,387.206c21.392-1.08,42.736-2.849,64.014-5.304c1.033-0.119-1.001-1.762-1.765-1.674
	c-21.278,2.456-42.622,4.225-64.014,5.304C-8.89,385.583-6.889,387.244-6.124,387.206L-6.124,387.206z"/>
<path d="M63.184,176.474c32.247,4.977,64.331,10.995,95.972,19.002c0.703,0.178,0.117-2.537-0.709-2.747
	c-31.641-8.007-63.725-14.025-95.972-19.002C61.694,173.607,62.369,176.348,63.184,176.474L63.184,176.474z"/>
<path d="M70.451,276.772c27.098-0.631,54.201-0.099,81.303-0.055c1.082,0.002-0.637-3.128-1.84-3.129
	c-27.101-0.045-54.204-0.576-81.303,0.055C67.506,273.668,69.251,276.8,70.451,276.772L70.451,276.772z"/>
<path d="M546.092,37.2c-42.451,10.666-82.704,27.978-122.999,44.764c-20.126,8.384-40.323,16.631-60.909,23.831
	c-19.814,6.93-40.023,12.973-59.033,21.987c-9.939,4.713-19.236,10.362-28.162,16.772c-9.687,6.957-19.327,14.202-30.937,17.584
	c-0.173,0.05-0.343,0.17-0.504,0.329c-14.016-5.821-28.994-7.876-44.005-9.312c-16.154-1.545-32.143-3.29-48.098-6.345
	c-33.387-6.394-66.343-14.715-99.937-20.08c-19.19-3.065-38.504-5.291-57.919-6.242c-0.862-0.042-1.931,2.224-0.988,2.27
	c33.698,1.651,67.001,7.247,100.001,14.05c32.266,6.652,64.172,14.762,97.055,17.796c17.897,1.651,35.97,3.096,52.734,10.099
	c0.016,0.007,0.033,0.006,0.049,0.011c-0.089,0.448-0.082,0.82,0.064,0.977c-1.405,24.783-3.371,49.624-3.581,74.45
	c-0.211,25.002,4.575,49.834,3.459,74.814c-0.056,1.244,2.241-0.942,2.283-1.879c1.115-24.98-3.671-49.812-3.46-74.814
	c0.206-24.383,2.104-48.781,3.503-73.124c17.788-5.861,31.493-19.808,47.701-28.76c18.406-10.166,38.492-16.717,58.331-23.437
	c41.477-14.05,81.289-32.175,121.993-48.222c23.582-9.296,47.518-17.721,72.121-23.902C546.096,40.509,547.211,36.919,546.092,37.2z
	"/>
<path d="M499.773,438.503c8.826,2.476,16.787,6.83,24.88,11.028c8.202,4.255,16.617,7.571,25.382,10.474
	c18.458,6.114,35.702,14.189,52.974,23.067c0.945,0.486,0.221-1.884-0.489-2.249c-17.272-8.879-34.516-16.953-52.974-23.067
	c-8.765-2.903-17.18-6.219-25.382-10.474c-8.092-4.198-16.053-8.552-24.88-11.028C498.171,435.941,498.993,438.284,499.773,438.503
	L499.773,438.503z"/>
<path d="M283.824,304.269c-0.573-5.502-0.475-12.496,1.281-17.794c0.645-1.945,3.295-5.825,5.217-6.563
	c0.843-0.324,2.14-0.133,3.03-0.15c2.916-0.054,5.843,0.03,8.759,0.046c11.689,0.061,23.38,0.07,35.068,0.188
	c11.09,0.112,22.078,1.606,33.176,1.69c11.882,0.09,23.766-0.046,35.644-0.32c0.94-0.022,2.317-2.856,1.516-2.838
	c-14.265,0.329-28.6,0.683-42.865,0.191c-7.033-0.243-14.007-1.235-21.039-1.471c-7.156-0.24-14.332-0.143-21.492-0.18
	c-7.137-0.037-14.275-0.074-21.412-0.112c-4.397-0.023-9.653-0.964-13.199,2.244c-2.302,2.082-3.531,5.131-4.27,8.071
	c-1.53,6.09-2.177,12.799-1.529,19.031C281.832,307.476,283.912,305.116,283.824,304.269L283.824,304.269z"/>
<path d="M401.23,359.99c0.855-6.053,1.818-12.102,2.546-18.172c0.696-5.803-0.134-11.197-0.32-16.979
	c-0.197-6.124,2.076-11.88,2.744-17.91c0.701-6.325-0.694-14.635,1.856-20.555c0.825-1.915,2.155-3.733,3.919-1.406
	c0.785,1.035,0.896,3.007,1.091,4.17c0.527,3.162,0.909,6.354,1.224,9.543c0.631,6.384,0.903,12.801,0.934,19.215
	c0.066,13.529-0.928,27.032-1.928,40.515c-0.048,0.649,2.581-0.877,2.655-1.885c1.189-16.039,2.373-32.124,1.766-48.217
	c-0.155-4.101,0.049-33.306-8.836-26.573c-3.344,2.535-3.925,7.581-4.37,11.397c-0.926,7.929-0.722,15.638-2.466,23.496
	c-1.542,6.948-0.609,13.053-0.469,20.058c0.164,8.198-1.803,16.64-2.947,24.738C398.46,362.629,401.108,360.85,401.23,359.99
	L401.23,359.99z"/>
<path d="M351.52,359.919c7.667-1.098,14.794-4.365,22.525-5.141c3.509-0.352,7.037-0.438,10.515-1.074
	c1.773-0.324,3.503-0.86,5.276-1.18c1.165-0.252,2.342-0.409,3.533-0.471c2.627,1.747,3.563,4.085,2.809,7.016
	c-0.037,0.735,1.6,2.55,1.651,1.54c0.14-2.759,0.492-7.715-1.767-9.85c-2.557-2.417-7.842-0.286-10.766,0.34
	c-5.497,1.176-11.136,1.009-16.644,2.062c-6.146,1.175-11.939,3.638-18.156,4.528C349.617,357.815,350.74,360.03,351.52,359.919
	L351.52,359.919z"/>
<path d="M453.858,436.901c-9.636-3.497-19.288-6.988-29.204-9.619c-10.147-2.692-20.936-3.674-30.177-8.988
	c-0.406-0.233-1.101-0.296-1.663-0.218c-0.11-0.244-0.403-0.167-0.717,0.01c-0.518,0.292-0.844,1.315-0.883,1.867
	c-0.223,3.133-0.125,6.247,0.286,9.361c0.088,0.666,0.74,0.116,0.958-0.126c0.414-0.459,0.745-1.269,0.662-1.897
	c-0.348-2.635-0.44-5.264-0.307-7.91c8.064,4.562,17.091,5.992,26.013,8.036c11.564,2.649,22.732,6.709,33.866,10.75
	C454.116,438.683,455.974,437.669,453.858,436.901z"/>
<path d="M452.197,438.144c-0.61,3.762-0.968,7.54-1.091,11.348c-9.35-2.852-18.71-5.673-28.001-8.714
	c-10.093-3.304-20.788-6.376-30.039-11.677c-1.023-0.586-3.77-0.135-1.966,0.898c8.647,4.954,18.424,7.992,27.837,11.144
	c10.744,3.598,21.599,6.854,32.435,10.161c0.127,0.039,0.231,0.045,0.344,0.064c0.184,0.208,0.35,0.278,0.41,0.04
	c1.067-0.028,1.238-0.999,0.082-1.537c0.141-3.411,0.466-6.799,1.013-10.174C453.307,439.156,452.312,437.437,452.197,438.144z"/>
<path d="M455.476,415.829c-9.636-3.497-19.288-6.988-29.204-9.619c-10.147-2.692-20.936-3.674-30.177-8.988
	c-0.406-0.233-1.101-0.296-1.663-0.218c-0.11-0.244-0.403-0.167-0.717,0.01c-0.518,0.292-0.844,1.315-0.883,1.867
	c-0.223,3.133-0.125,6.247,0.286,9.361c0.088,0.666,0.74,0.116,0.958-0.126c0.414-0.459,0.745-1.269,0.662-1.897
	c-0.348-2.635-0.44-5.264-0.307-7.91c8.064,4.562,17.091,5.992,26.013,8.036c11.564,2.649,22.732,6.709,33.866,10.75
	C455.734,417.611,457.592,416.597,455.476,415.829z"/>
<path d="M453.815,417.072c-0.61,3.762-0.968,7.54-1.091,11.348c-9.35-2.852-18.71-5.673-28.001-8.714
	c-10.093-3.304-20.788-6.376-30.039-11.677c-1.023-0.586-3.77-0.135-1.966,0.898c8.647,4.954,18.424,7.992,27.837,11.144
	c10.744,3.598,21.599,6.854,32.435,10.161c0.127,0.039,0.231,0.045,0.344,0.064c0.184,0.208,0.35,0.278,0.41,0.04
	c1.067-0.028,1.238-0.999,0.082-1.537c0.141-3.411,0.466-6.799,1.013-10.174C454.925,418.084,453.929,416.365,453.815,417.072z"/>
<path d="M456.285,393.616c-9.636-3.497-19.288-6.988-29.204-9.619c-10.147-2.692-20.936-3.674-30.177-8.988
	c-0.406-0.233-1.101-0.296-1.663-0.218c-0.11-0.244-0.403-0.167-0.717,0.01c-0.518,0.292-0.844,1.315-0.883,1.867
	c-0.223,3.134-0.125,6.247,0.286,9.361c0.088,0.666,0.74,0.116,0.958-0.126c0.414-0.459,0.745-1.269,0.662-1.897
	c-0.348-2.635-0.44-5.264-0.307-7.91c8.064,4.562,17.091,5.992,26.013,8.036c11.564,2.649,22.732,6.709,33.866,10.75
	C456.543,395.398,458.4,394.384,456.285,393.616z"/>
<path d="M454.623,394.859c-0.61,3.762-0.968,7.54-1.091,11.348c-9.35-2.852-18.711-5.673-28.001-8.714
	c-10.093-3.304-20.788-6.376-30.039-11.677c-1.023-0.586-3.77-0.135-1.966,0.898c8.647,4.954,18.424,7.992,27.837,11.144
	c10.745,3.598,21.599,6.854,32.435,10.161c0.127,0.039,0.231,0.045,0.344,0.064c0.184,0.208,0.35,0.278,0.41,0.04
	c1.067-0.028,1.238-0.999,0.082-1.537c0.141-3.411,0.466-6.799,1.013-10.175C455.733,395.872,454.738,394.152,454.623,394.859z"/>
<path d="M424.684,387.958c-0.206-0.149-0.505,0.017-0.763,0.299c-0.019-0.007-0.025-0.024-0.047-0.028
	c-2.201-0.392-3.606,0.488-4.972,2.166c-0.388,0.477-1.131,1.333-0.89,2.034c0.23,0.67,1.334,0.806,1.936,0.937
	c1.627,0.354,4.665,0.564,5.79-0.975C426.814,390.917,426.032,388.935,424.684,387.958z M422.207,391.741
	c-0.525-0.035-2.157-0.147-2.651-0.589c0.877-1.042,1.983-1.367,3.442-1.107c0.187,0.033,0.4-0.108,0.594-0.315
	c0.324,0.253,1.192,1.147,1.346,1.758C424.065,391.751,423.1,391.8,422.207,391.741z"/>
<path d="M422.232,410.608c-0.237-0.31-0.854-0.905-1.207-0.431c-0.006,0.008-0.007,0.019-0.013,0.027
	c-0.081-0.076-0.161-0.159-0.247-0.213c-1.376-0.877-2.905,0.121-3.222,1.619c-0.359,1.692,0.756,3.627,2.255,4.389
	c0.626,0.318,1.33,0.433,2.024,0.49c0.806,0.066,1.369-0.003,1.64-0.841C424.019,413.922,423.281,411.98,422.232,410.608z
	 M421.741,413.54c-0.137,0.48-0.27,0.462-0.75,0.444c-0.322-0.012-0.661-0.04-0.976-0.107c-0.255-0.055-0.474-0.149-0.7-0.255
	c-0.001-0.004,0-0.005-0.001-0.01c0.015-0.182,0.064-0.353,0.148-0.516c0.188-0.41,0.956-1.255,1.497-0.91
	c0.302,0.193,0.541,0.154,0.681-0.024C421.839,412.582,421.865,413.105,421.741,413.54z"/>
<path d="M420.942,431.183c-0.389-0.331-0.667-0.096-0.712,0.34c-0.004,0.035,0.01,0.074,0.01,0.111
	c-0.181-0.244-0.39-0.419-0.601-0.42c-0.788-0.001-2.268-0.297-2.932,0.243c-0.557,0.452-0.538,1.363-0.445,2.004
	c0.27,1.871,1.536,3.691,3.277,4.471c1.569,0.703,3.668,0.437,4.031-1.52C423.961,434.297,422.437,432.452,420.942,431.183z
	 M421.646,435.751c-0.693,0.549-1.735,0.413-2.485,0.083c-0.682-0.3-1.699-1.036-1.492-1.921c0.2-0.854,1.996-0.501,2.692-0.5
	c0.298,0,0.382-0.283,0.341-0.642c0.082,0.103,0.168,0.198,0.254,0.271C421.765,433.729,422.823,434.818,421.646,435.751z"/>
<path d="M461.538,355.325c-1.005-0.128-2.752,2.547-1.767,2.673c1.646,0.209,3.066,1.115,3.865,2.596
	c0.53,0.984,0.941,2.721,0.6,3.982c-0.664,0.177-1.358,0.235-1.999,0.665c-0.338,0.227-0.692,0.743-0.908,1.236
	c-0.065,0.003-0.126,0.003-0.205,0.016c-2.231,0.343-4.602-0.366-6.359-1.765c-0.693-0.552-1.518-1.321-1.897-2.142
	c-0.055-0.12-0.093-0.237-0.116-0.352c0.774-1.43,2.126-2.45,3.758-2.688c1.161-0.169-0.105-2.961-1.086-2.817
	c-1.979,0.289-3.676,1.451-4.566,3.26c-0.047,0.096-0.073,0.199-0.089,0.304c-0.583,0.43-1.038,0.961-0.977,1.38
	c0.174,1.205-0.65,1.896,0.002,3.122c0.578,1.088,1.606,1.992,2.611,2.67c2.159,1.457,4.624,1.837,7.16,1.446
	c0.462-0.071,1.286-0.701,1.806-1.303c0.156,0.012,0.391-0.074,0.729-0.3c0.432-0.289,1.213-0.162,1.719-0.356
	c0.546-0.209,1.041-0.602,1.429-1.034c1.004-1.117,1.401-2.701,1.435-4.172C466.755,358.573,464.786,355.738,461.538,355.325z"/>
<path d="M444.077,523.414c0.01-0.083-0.021-0.199-0.118-0.364c-10.142-17.197-21.72-33.514-34.724-48.669
	c-10.722-12.496-22.449-26.71-37.498-34.196c0.091-0.029,0.182-0.059,0.274-0.088c0.713-0.23-0.416-2.756-1.295-2.472
	c-38.315,12.367-76.683,24.588-114.838,37.445c-37.303,12.57-74.722,25.976-114.166,29.762c-0.776,0.074-0.152,1.836,0.549,2.375
	c-0.255,0.494-0.371,0.981-0.179,1.231c8.934,11.645,17.868,23.291,26.802,34.936c7.737,10.085,14.943,19.615,26.125,26.398
	c0.781,0.474,2.598-2.373,1.786-2.866c-11.668-7.078-19.15-17.337-27.224-27.861c-8.169-10.649-16.339-21.297-24.508-31.946
	c38.021-4.027,74.222-16.769,110.255-28.932c38.141-12.876,76.5-25.103,114.81-37.463c8.899,3.998,15.958,10.647,22.719,17.534
	c6.371,6.488,12.464,13.248,18.274,20.242c11.481,13.822,21.777,28.567,30.909,44.038c-0.3-0.04-0.567-0.048-0.743-0.004
	c-43.915,10.949-86.89,25.366-128.523,43.117c-1.663,0.709,1.439,1.579,2.303,1.211c41.633-17.751,84.608-32.168,128.523-43.117
	c0.249-0.062,0.383-0.137,0.446-0.219c0.013-0.014,0.025-0.03,0.032-0.05C444.074,523.443,444.076,523.428,444.077,523.414z"/>
<path d="M358.244,444.476c13.588,12.303,22.538,27.47,32.698,42.49c9.572,14.15,20.109,27.604,31.446,40.38
	c0.402,0.453,0.956-1.381,0.506-1.888c-12.09-13.624-23.248-28.048-33.308-43.236c-9.394-14.183-18.119-28.119-30.836-39.634
	C358.26,442.144,357.743,444.022,358.244,444.476L358.244,444.476z"/>
<path d="M332.895,451.966c7.278,14.381,17.5,27.543,26.427,40.931c9.63,14.443,19.261,28.886,28.891,43.329
	c1.249,1.873,2.73,0.795,1.485-1.071c-9.267-13.898-18.534-27.796-27.801-41.694c-9.094-13.638-19.577-27.077-26.987-41.719
	C334.117,450.174,331.752,449.707,332.895,451.966L332.895,451.966z"/>
<path d="M203.131,494.046c6.29,5.228,10.754,12.713,15.551,19.268c4.442,6.07,8.884,12.141,13.327,18.211
	c9.078,12.405,18.155,24.81,27.233,37.214c0.874,1.195,2.987,1.755,1.561-0.195c-9.85-13.461-19.7-26.921-29.55-40.382
	c-4.828-6.598-9.657-13.197-14.485-19.795c-4.108-5.614-7.983-11.394-13.373-15.874
	C201.542,490.956,201.986,493.095,203.131,494.046L203.131,494.046z"/>
<path d="M176.745,501.905c13.168,24.223,34.202,42.882,47.879,66.768c0.272,0.475,1.246-1.552,0.867-2.214
	c-13.619-23.784-34.602-42.352-47.711-66.468C177.321,499.146,176.426,501.318,176.745,501.905L176.745,501.905z"/>
<path d="M343.757,504.783c-4.661-7.327-13.084-10.913-20.947-13.695c-9.432-3.337-31.684-8.119-34.809-7.029
	c-6.829-0.305-20.376,7.895-20.896,23.12c0.354,16.522,14.484,27.768,29.854,30.223c10.111,1.615,20.417-0.117,30.172-2.869
	c6.959-1.963,13.588-4.576,17.216-11.226C347.576,517.39,347.381,510.48,343.757,504.783z M322.557,533.359
	c-15.541,3.54-33.659,3.018-45.501-9.118c-2.823-2.893-4.987-6.288-6.364-10.088c-0.838-2.311-1.374-4.716-1.571-7.17
	c-0.348-4.32,0.591-6.24,2.754-9.983c2.18-3.774,2.63-4.573,6.405-6.381c1.769-0.847,3.596-1.587,5.408-2.336
	c1.554-0.642,14.391-0.443,17.482,0.101c8.76,1.542,17.506,3.957,25.702,7.444c7.1,3.02,14.377,7.589,17.031,15.273
	C348.972,525.779,333.462,530.875,322.557,533.359z"/>
<path d="M34.291,156.613c50.551,4.068,99.355,19.465,149.845,23.991c0.66,0.059,2.214-1.32,1.309-1.402
	c-50.49-4.526-99.295-19.923-149.845-23.991C34.94,155.159,33.389,156.541,34.291,156.613L34.291,156.613z"/>
<path d="M160.248,182.264c-0.018,17.115-5.109,33.456-8.239,50.136c-2.931,15.622-2.177,30.739-0.955,46.485
	c0.173,2.228-0.449,10.176,1.245,11.933c1.203,1.248,2.261,0.637,3.833,0.444c6.541-0.801,12.135,4.063,18.68,2.76
	c4.73-0.941,7.376-2.746,12.357-0.483c2.145,0.975,4.012,2.397,6.469,2.312c3.121-0.107,5.369-2.077,5.719-5.113
	c0.145-1.257-1.471,0.189-1.556,0.92c-0.622,5.389-12.303-1.757-15.352-1.557c-2.926,0.192-5.534,1.822-8.46,2.069
	c-3.513,0.297-6.568-1.18-9.856-2.205c-2.014-0.628-3.78-0.764-5.85-0.95c-1.963-0.176-2.639,1.902-4.874-1.05
	c-0.636-0.84-0.29-3.735-0.368-4.74c-0.543-6.995-1.172-13.991-1.543-20.998c-0.777-14.67,1.43-28.544,4.623-42.817
	c2.812-12.567,5.669-25.12,5.683-38.067C161.805,180.053,160.249,181.51,160.248,182.264L160.248,182.264z"/>
<path d="M161.321,182.588c3.071,2.153,6.284,3.357,10.006,3.875c2.296,0.32,4.615,0.393,6.927,0.529
	c2.077,0.122,5.884-0.181,7.694,0.871c3.144,1.828,0.546,14.486,0.322,17.877c-0.398,6.026-0.975,12.072-1.129,18.11
	c-0.282,11.018,4.283,20.66,7.09,31.099c3.284,12.214,4.881,24.764,4.966,37.405c0.008,1.181,3.103,3.151,3.098,2.268
	c-0.083-12.504-1.6-24.943-4.772-37.048c-1.543-5.891-3.748-11.551-5.455-17.387c-2.004-6.853-1.928-13.544-1.465-20.599
	c0.422-6.434,0.851-12.867,1.276-19.3c0.234-3.541,1.927-9.258-0.423-12.372c-1.938-2.568-5.611-3.067-8.544-3.433
	c-6.464-0.806-13.732,0.252-19.369-3.701C159.339,179.237,159.928,181.611,161.321,182.588L161.321,182.588z"/>
<path d="M167.331,196.959c4.485,25.008-5.973,49.64-5.757,74.653c0.02,2.327,1.836-0.244,1.825-1.493
	c-0.219-25.386,10.201-49.953,5.632-75.422C168.689,192.79,167.14,195.898,167.331,196.959L167.331,196.959z"/>
<path d="M175.753,198.542c7.418,27.599-6.491,56.472,3.326,83.712c0.225,0.625,2.323,0.452,2.045-0.318
	c-9.774-27.12,4.148-55.94-3.244-83.439C177.679,197.749,175.59,197.939,175.753,198.542L175.753,198.542z"/>
<path d="M62.593,164.368c0.007,13.764,3.066,27.099,6.053,40.459c3.298,14.751,5.527,29.128,4.74,44.297
	c-0.383,7.384-1.053,14.756-1.625,22.127c-0.124,1.592,0.348,4.54-1.112,5.242c-1.125,0.541-2.195-0.182-3.367-0.287
	c-2.446-0.22-4.766,0.476-7.063,1.225c-3.123,1.019-6.228,2.429-9.598,2.166c-3.088-0.241-5.846-2.072-8.943-2.289
	c-4.283-0.301-15.916,8.545-16.851,0.452c-0.115-0.996-1.629,0.614-1.544,1.347c0.54,4.677,5.815,4.608,9.22,3.135
	c2.804-1.213,5.004-3.041,8.272-2.913c2.008,0.079,3.865,1.075,5.777,1.576c2.674,0.701,4.87,0.914,7.571,0.309
	c3.645-0.815,7.076-2.945,10.878-3.027c2.162-0.047,4.722,1.525,6.618,0.043c0.644-0.503,0.92-1.215,1.177-1.979
	c1.161-3.442,0.699-8.247,0.981-11.873c1.299-16.733,2.03-32.735-1.138-49.318c-3.278-17.157-8.484-33.995-8.493-51.612
	C64.148,162.158,62.593,163.614,62.593,164.368L62.593,164.368z"/>
<path d="M61.483,162.451c-4.603,3.248-9.925,3.584-15.373,3.895c-3.24,0.184-10.941-0.334-13.034,2.832
	c-1.089,1.647-0.309,4.614-0.188,6.457c0.209,3.157,0.417,6.314,0.626,9.471c0.44,6.652,0.949,13.303,1.308,19.959
	c0.711,13.199-4.428,24.167-7.655,36.673c-3.203,12.414-4.75,25.147-4.832,37.959c-0.008,1.179,3.092,3.166,3.098,2.268
	c0.08-12.497,1.549-24.925,4.598-37.053c3.019-12.006,8.459-23.006,7.983-35.637c-0.228-6.041-0.752-12.082-1.151-18.114
	c-0.209-3.157-0.417-6.314-0.626-9.471c-0.152-2.296-1.287-6.63-0.514-8.859c1.553-4.477,12.364-3.515,16.004-3.791
	c4.627-0.351,8.849-1.217,12.683-3.923C65.142,164.6,62.497,161.736,61.483,162.451L61.483,162.451z"/>
<path d="M55.028,178.422c-4.802,26.672,6.141,52.443,5.899,79.033c-0.022,2.418,1.814,1.089,1.83-0.614
	c0.238-26.164-10.735-51.918-6.025-78.081C57.112,176.651,55.414,176.28,55.028,178.422L55.028,178.422z"/>
<path d="M45.811,181.293c-7.769,28.838,6.827,59.066-3.439,87.495c-0.272,0.752,1.826,0.871,2.057,0.23
	c10.279-28.467-4.329-58.661,3.439-87.495C48.083,180.727,45.983,180.655,45.811,181.293L45.811,181.293z"/>
<path d="M163.239,177.525c-0.481,1.983-0.506,3.998-0.044,5.987c0.303,1.306,2.316-1.099,2.108-1.994
	c-0.422-1.817-0.429-3.591,0.011-5.404c0.16-0.661-0.35-0.821-0.838-0.533C163.818,175.968,163.411,176.816,163.239,177.525
	L163.239,177.525z"/>
<path d="M164.773,177.08c1.349,1.891,2.024,4.007,2.005,6.331c-0.004,0.523,0.407,0.592,0.777,0.356
	c0.458-0.292,0.696-1.014,0.7-1.526c0.022-2.578-0.738-5.01-2.235-7.109C165.516,174.426,164.297,176.412,164.773,177.08
	L164.773,177.08z"/>
<path d="M172.154,183.491c-0.395-1.376-0.718-2.761-0.931-4.177c-0.093-0.619-0.475-2.129-0.142-2.667
	c0.399-0.644,0.982-0.375,1.373,0.113c0.614,0.767,0.559,2.006,0.6,2.921c0.068,1.497,0.12,2.995,0.18,4.492
	c0.022,0.548,1.738-0.647,1.71-1.351c-0.071-1.777,0.685-9.835-3.232-8.118c-3.881,1.702-2.128,7.147-1.269,10.139
	C170.632,185.497,172.34,184.139,172.154,183.491L172.154,183.491z"/>
<path d="M181.538,184.451c-0.373-1.685-0.745-3.37-1.118-5.055c-0.127-0.576-0.416-1.362-0.413-1.964
	c0.003-0.604,0.537-1.754,1.323-1.559c0.944,0.234,1.043,2.819,1.193,3.671c0.292,1.661,0.584,3.321,0.876,4.982
	c0.108,0.616,2.258,0.453,2.173-0.03c-0.455-2.588-0.621-5.472-1.454-7.964c-0.437-1.307-1.322-1.849-2.677-1.811
	c-1.263,0.035-3.133,0.797-3.547,2.118c-0.296,0.945,0.31,2.4,0.511,3.31c0.319,1.444,0.639,2.888,0.958,4.333
	C179.503,185.106,181.639,184.907,181.538,184.451L181.538,184.451z"/>
<path d="M38.288,169.128c-0.888-3.863,0.282-7.729,1.554-11.366c0.239-0.683,0.381-1.579,0.99-2.037
	c1.276-0.961,0.553,1.642,0.5,2.507c-0.125,2.071-0.593,4.147-0.931,6.191c-0.176,1.067,1.846,3.68,2.086,2.227
	c0.564-3.412,1.484-7.027,0.872-10.494c-0.262-1.485-1.104-4.333-3.065-4.228c-2.277,0.123-2.962,4.724-3.43,6.322
	c-0.952,3.251-1.458,6.676-0.69,10.017C36.454,169.486,38.78,171.265,38.288,169.128L38.288,169.128z"/>
<path d="M46.962,166.76c-1.56-2.22-0.064-6.711,1.237-8.85c0.816-1.341,1.508-1.486,1.789,0.16c0.271,1.586-0.231,3.511-0.609,5.053
	c-0.236,0.963,1.743,4.167,2.075,2.812c0.734-2.991,1.034-6.44,0.052-9.421c-0.543-1.649-2.256-4.666-4.341-3.145
	c-1.909,1.393-2.715,5.815-2.856,7.936c-0.189,2.837,0.71,5.491,2.327,7.792c0.4,0.569,0.843,0.878,1.2,0.237
	C48.185,168.712,47.292,167.229,46.962,166.76L46.962,166.76z"/>
<path d="M57.267,165.59c-1.021-1.953-1.526-5.983-0.813-8.064c0.306-0.893,0.938-2.492,2.257-0.757
	c0.295,0.388,0.213,1.336,0.251,1.793c0.142,1.712,0.023,3.428-0.098,5.137c-0.057,0.812,2.004,1.342,2.051,0.673
	c0.21-2.97,1.231-10.242-3.618-10.07c-4.692,0.166-3.296,8.709-1.975,11.236C55.643,166.15,57.726,166.466,57.267,165.59
	L57.267,165.59z"/>
<path d="M73.759,228.802c12.375,3.817,25.299,5.405,38.142,6.738c13.181,1.368,26.723,0.862,39.802,2.754
	c0.637,0.092,2.21-1.368,1.284-1.502c-12.433-1.799-25.318-1.315-37.849-2.556c-13.373-1.325-26.893-2.89-39.775-6.864
	C74.684,227.163,73.132,228.609,73.759,228.802L73.759,228.802z"/>
<path d="M116.364,184.875c0.187,7.421-0.685,14.786-0.808,22.199c-0.126,7.546,0.882,15.055,0.799,22.6
	c-0.162,14.808-3,29.809-4.767,44.494c-0.078,0.646,1.852,1.83,1.924,1.237c1.769-14.695,4.577-29.678,4.767-44.494
	c0.097-7.545-0.921-15.053-0.799-22.6c0.12-7.413,0.995-14.776,0.808-22.199C118.271,185.433,116.351,184.363,116.364,184.875
	L116.364,184.875z"/>
</svg>
