<?xml version="1.0" encoding="UTF-8" standalone="no"?>
<!DOCTYPE svg PUBLIC "-//W3C//DTD SVG 1.1//EN" "http://www.w3.org/Graphics/SVG/1.1/DTD/svg11.dtd">
<svg width="100%" height="100%" viewBox="0 0 567 567" version="1.1" xmlns="http://www.w3.org/2000/svg" xmlns:xlink="http://www.w3.org/1999/xlink" xml:space="preserve" xmlns:serif="http://www.serif.com/" style="fill-rule:evenodd;clip-rule:evenodd;stroke-linejoin:round;stroke-miterlimit:2;">
    <g id="Layer_3">
        <path d="M534.607,242.277C534.815,239.202 534.857,236.145 534.028,233.079C532.63,227.91 529.677,223.145 525.796,219.455C523.719,216.56 520.927,214.615 517.253,215.33C513.401,216.079 510.081,219.43 507.492,222.131C504.563,225.185 500.441,228.584 498.801,232.577C497.887,234.802 498.814,236.886 496.801,238.442C494.859,239.944 490.54,240.599 488.244,241.539C482.897,243.728 477.699,246.25 472.54,248.845C460.893,254.703 449.314,260.892 436.451,263.607C434.452,255.59 424.175,249.843 416.336,250.181C407.177,250.576 400.272,259.582 402.045,268.291C402.106,268.589 402.205,268.88 402.326,269.158C402.22,269.13 402.12,269.112 402.037,269.117C397.386,269.366 393.583,268.042 391.794,263.522C391.055,261.656 390.76,259.617 390.758,257.617C390.758,257.424 390.63,257.22 390.433,257.024C389.254,251.133 386.746,241.596 379.874,240.403C377.093,239.92 374.865,244.015 373.286,246.003C371.577,248.154 369.926,250.384 368.153,252.499C366.702,247.219 364.329,242.129 358.994,239.79C355.949,238.455 354.565,241.363 352.769,243.644C350.001,247.161 347.485,250.875 344.247,253.966C342.788,248.796 340.405,243.856 335.172,241.561C332.127,240.226 330.743,243.134 328.947,245.415C326.213,248.889 323.727,252.558 320.547,255.626C319.095,250.362 316.721,245.294 311.4,242.961C308.355,241.626 306.971,244.534 305.175,246.815C302.138,250.673 299.4,254.765 295.684,258.014C293.615,252.495 290.308,245.78 284.139,245.04C281.359,244.707 280.28,247.939 278.98,250.115C276.678,253.969 274.633,258.018 271.743,261.47C268.421,254.888 263.114,245.574 254.828,245.966C251.351,246.131 249.695,252.467 248.349,255.197C246.067,259.823 243.804,264.459 240.897,268.723C237.978,263.022 233.135,254.874 226.185,255.529C223.09,255.821 221.917,260.694 220.673,263.212C218.604,267.4 216.567,271.602 213.94,275.467C211.053,269.757 206.128,261.077 198.963,261.753C195.868,262.045 194.695,266.918 193.451,269.436C191.261,273.869 189.109,278.318 186.252,282.365C184.096,276.424 181.099,270.385 174.651,268.369C171.18,267.284 170.208,270.405 168.363,273.109C165.6,277.157 162.966,281.31 159.727,284.995C157.599,279.526 154.704,273.992 148.689,272.238C145.481,271.303 144.815,273.835 143.127,276.413C140.564,280.328 138.158,284.36 135.147,287.948C133.029,282.717 130.105,277.608 124.346,275.93C121.109,274.987 120.436,277.546 118.732,280.148C116.012,284.302 113.465,288.583 110.204,292.341C108.313,287.45 105.335,281.854 99.977,281.156C97.431,280.824 96.447,283.738 95.246,285.725C93.129,289.226 91.244,292.911 88.583,296.036C86.675,291.791 83.414,286.266 78.394,286.262C76.221,286.26 75.039,288.796 73.836,290.43C71.637,293.416 69.592,296.562 66.933,299.163C65.054,294.873 61.748,288.977 56.56,288.974C54.387,288.972 53.205,291.509 52.002,293.142C49.621,296.375 47.431,299.803 44.435,302.515C44.242,302.689 44.17,302.956 44.182,303.268C42.929,302.316 41.234,301.594 39.766,301.598C34.831,301.611 29.977,299.912 27.576,295.28C25.631,291.528 27.029,287.842 28.884,284.348C32.237,278.032 37.291,272.751 43.09,268.62C55.489,259.787 70.658,256.21 85.529,254.306C111.3,251.007 138.2,247.705 164.197,249.152C164.792,249.185 165.05,249.001 165.109,248.717C168.914,248.413 172.016,244.561 166.313,244.563C164.467,244.564 162.621,244.565 160.775,244.565C160.106,244.339 159.42,244.194 158.759,244.157C148.078,243.562 137.314,243.848 126.553,244.579C121.109,244.581 115.664,244.584 110.22,244.586C92.552,244.593 74.502,243.613 56.966,246.164C41.774,248.374 26.497,254.052 16.565,266.281C8.084,276.724 3.831,291.762 11.259,303.975C15.43,310.833 22.536,313.079 30.079,314.197C39.694,315.621 49.401,316.59 59.079,317.461C79,319.253 98.989,320.174 118.985,320.544C146.463,321.053 173.938,320.447 201.4,319.469C196.464,328.09 187.843,346.72 199.406,352.943C205.701,356.331 214.574,356.594 221.55,357.546C230.434,358.758 239.358,359.273 248.321,359.282C248.581,359.282 248.91,359.155 249.252,358.961C249.894,359.09 250.446,359.023 250.672,358.622C254.998,350.959 250.866,344.246 242.691,342.751C237.002,341.71 230.036,344.174 224.697,341.596C215.483,337.148 221.251,325.843 223.545,318.814C223.566,318.75 223.566,318.684 223.57,318.619C228.739,318.406 233.907,318.187 239.075,317.966C267.195,316.762 295.895,314.598 324.233,315.972C319.292,324.909 310.743,345.099 322.296,351.317C325.181,352.869 328.878,353.274 332.025,353.866C336.25,354.661 340.494,355.357 344.756,355.92C353.868,357.123 363.023,357.647 372.211,357.656C372.469,357.656 372.796,357.531 373.135,357.339C373.81,357.483 374.38,357.414 374.563,356.996C375.865,354.011 376.015,348.725 374.2,345.942C372.375,343.144 368.725,341.7 365.582,341.125C359.893,340.084 352.927,342.548 347.588,339.97C338.654,335.656 343.806,324.896 346.218,317.839C355.071,318.948 363.865,320.516 372.568,322.702C373.971,323.054 375.956,323.007 377.478,322.388C401.648,324.6 425.809,327.004 450.06,328.123C462.913,328.716 475.79,328.957 488.651,328.505C498.709,328.152 510.713,328.636 519.9,323.846C526.467,320.423 532.624,311.449 525.076,306.449C525.234,306.365 525.302,306.105 525.295,305.852C525.262,304.687 525.17,303.536 524.989,302.384C524.892,301.764 524.807,299.989 524.073,299.693C523.444,299.439 522.467,300.882 522.118,301.265C521.298,302.162 520.529,303.1 519.798,304.071C519.748,304.138 519.724,304.221 519.696,304.3C519.125,304.175 518.547,304.064 517.957,303.976C517.732,303.002 517.471,302.038 517.129,301.098C516.962,300.64 516.63,299.107 515.935,299.189C515.321,299.262 514.641,300.808 514.337,301.296C513.877,302.033 513.454,302.79 513.045,303.556C512.047,303.518 511.052,303.498 510.073,303.483C509.783,302.468 509.436,301.471 509.021,300.5C508.826,300.044 508.382,298.479 507.706,298.568C507.103,298.648 506.518,300.253 506.265,300.726C505.805,301.585 505.392,302.466 505.001,303.357C504.107,303.312 503.212,303.284 502.317,303.242C502.124,302.209 501.883,301.185 501.561,300.185C501.413,299.727 501.119,298.184 500.412,298.255C500.064,298.29 499.834,298.762 499.644,299.018C499.295,299.489 498.957,299.969 498.632,300.456C498.076,301.288 497.56,302.145 497.067,303.016C496.149,302.98 495.231,302.931 494.312,302.898C494.116,301.784 493.858,300.68 493.513,299.603C493.366,299.144 493.074,297.601 492.366,297.672C492.018,297.707 491.787,298.178 491.597,298.434C491.247,298.905 490.909,299.384 490.582,299.871C489.963,300.794 489.388,301.744 488.847,302.715C488.843,302.722 488.841,302.732 488.838,302.74C487.844,302.712 486.85,302.685 485.855,302.661C485.755,301.721 485.619,300.784 485.411,299.862C485.282,299.291 485.092,297.52 484.366,297.351C483.727,297.202 482.81,298.736 482.469,299.161C481.744,300.066 481.067,301.006 480.427,301.973C480.318,302.137 480.277,302.333 480.262,302.535C479.51,302.523 478.758,302.519 478.006,302.509C477.992,302.355 477.971,302.218 477.959,302.146C477.765,300.956 477.493,299.778 477.13,298.627C476.985,298.167 476.699,296.624 475.988,296.694C475.64,296.728 475.407,297.198 475.216,297.453C474.864,297.922 474.523,298.4 474.195,298.885C473.572,299.805 472.993,300.753 472.447,301.721C472.362,301.872 472.358,302.145 472.403,302.445C471.09,302.438 469.776,302.448 468.463,302.448C468.457,302.408 468.452,302.371 468.448,302.345C468.284,301.234 468.047,300.139 467.737,299.059C467.587,298.537 467.33,296.946 466.623,296.874C465.994,296.81 465.138,298.445 464.818,298.898C464.143,299.854 463.519,300.843 462.93,301.854C462.854,301.984 462.84,302.208 462.866,302.461C462.622,302.463 462.378,302.461 462.134,302.463C461.218,302.472 460.3,302.493 459.382,302.517C459.246,301.606 459.081,300.702 458.848,299.808C458.715,299.298 458.46,297.506 457.726,297.458C457.079,297.416 456.198,299.008 455.858,299.468C455.169,300.401 454.532,301.369 453.926,302.358C453.881,302.431 453.857,302.538 453.849,302.661C452.69,302.681 451.531,302.691 450.375,302.669C449.67,302.656 448.845,302.711 448.138,302.568C442.819,301.492 446.007,297.198 449.52,295.545C452.114,294.324 454.827,293.311 457.578,292.377C457.647,292.768 457.737,293.12 457.799,293.326C458.19,294.612 458.654,295.88 459.205,297.107C459.527,297.824 460.183,299.945 461.214,299.776C462.044,299.641 462.697,297.697 463.036,297.036C463.674,295.788 464.244,294.509 464.764,293.207C465.136,292.275 464.924,291.053 464.537,290.126C465.229,289.906 465.919,289.685 466.606,289.461C466.669,289.779 466.742,290.058 466.795,290.232C467.186,291.518 467.65,292.786 468.201,294.013C468.523,294.731 469.179,296.851 470.21,296.682C471.04,296.547 471.693,294.603 472.032,293.942C472.67,292.694 473.24,291.415 473.76,290.113C474.128,289.191 473.924,287.987 473.547,287.064C474.04,286.891 474.533,286.718 475.025,286.543C475.079,286.785 475.135,286.998 475.178,287.138C475.569,288.424 476.033,289.692 476.584,290.919C476.906,291.637 477.562,293.757 478.593,293.588C479.423,293.453 480.076,291.509 480.415,290.847C481.053,289.599 481.623,288.32 482.143,287.018C482.5,286.124 482.32,284.961 481.964,284.05C482.641,283.804 483.316,283.555 483.992,283.306C484.054,283.61 484.124,283.876 484.174,284.044C484.565,285.33 485.029,286.598 485.58,287.825C485.902,288.542 486.558,290.663 487.589,290.494C488.419,290.359 489.072,288.415 489.411,287.754C490.049,286.506 490.619,285.227 491.139,283.925C491.525,282.959 491.283,281.682 490.871,280.745C491.651,280.449 492.432,280.155 493.211,279.855C493.274,280.168 493.345,280.443 493.398,280.614C493.789,281.9 494.253,283.168 494.804,284.395C495.126,285.113 495.782,287.233 496.813,287.064C497.643,286.929 498.296,284.985 498.635,284.324C499.273,283.076 499.843,281.797 500.363,280.495C500.761,279.497 500.492,278.162 500.054,277.219C500.049,277.209 500.041,277.196 500.036,277.185C500.737,276.906 501.435,276.619 502.135,276.337C502.203,276.822 502.319,277.274 502.394,277.52C502.785,278.806 503.249,280.074 503.8,281.301C504.122,282.019 504.778,284.139 505.809,283.97C506.639,283.835 507.292,281.891 507.631,281.229C508.269,279.981 508.839,278.702 509.359,277.4C509.757,276.402 509.488,275.067 509.05,274.124C508.985,273.984 508.872,273.8 508.739,273.626C509.578,273.275 510.419,272.931 511.256,272.576C511.773,272.357 512.292,272.135 512.811,271.914C512.881,272.332 512.978,272.71 513.044,272.926C513.435,274.212 513.899,275.48 514.45,276.707C514.772,277.424 515.428,279.545 516.459,279.376C517.289,279.241 517.942,277.297 518.281,276.636C518.919,275.388 519.489,274.109 520.009,272.807C520.407,271.809 520.138,270.474 519.7,269.531C519.624,269.368 519.485,269.146 519.321,268.95C520.033,268.594 520.737,268.226 521.433,267.843C521.535,268.558 521.804,269.275 522.133,269.838C522.642,270.708 525.161,275.333 526.381,274.565C527.134,274.091 527.306,272.194 527.505,271.392C527.853,269.987 528.122,268.567 528.335,267.136C528.493,266.073 528.316,264.709 527.669,263.819C527.648,263.789 527.624,263.768 527.602,263.741C533.87,258.589 538.536,249.318 534.607,242.277ZM222.481,342.865C226.861,345.194 231.634,345.56 236.518,345.447C239.067,345.388 243.56,344.594 245.916,345.946C249.622,348.072 247.823,353.609 246.256,356.383C246.251,356.392 246.252,356.402 246.247,356.411C233.324,356.143 220.382,354.757 207.761,351.947C204.122,351.137 200.541,350.221 198.706,346.629C197.129,343.542 197.476,339.521 197.974,336.233C198.9,330.125 201.374,324.658 204.404,319.36C209.064,319.189 213.724,319.011 218.383,318.824C215.397,327.766 212.271,337.437 222.481,342.865ZM345.372,341.239C349.752,343.568 354.525,343.934 359.409,343.821C361.958,343.762 366.451,342.969 368.807,344.32C371.587,345.915 371.255,352.218 370.147,354.757C370.143,354.767 370.144,354.778 370.14,354.788C356.893,354.534 343.583,353.194 330.652,350.321C327.013,349.513 323.431,348.594 321.597,345.003C320.009,341.894 320.386,337.888 320.865,334.578C321.808,328.065 324.003,321.881 327.115,316.116C331.84,316.386 336.553,316.767 341.252,317.264C338.272,326.188 335.187,335.824 345.372,341.239ZM522.379,303.968C522.671,303.637 522.969,303.311 523.273,302.991C523.426,302.83 523.709,302.442 523.993,302.208C524.034,302.447 524.072,302.686 524.102,302.927C524.181,303.558 524.233,304.195 524.251,304.831C524.26,305.157 524.292,305.705 524.478,306.081C524.156,305.894 523.818,305.711 523.452,305.537C522.884,305.267 522.287,305.039 521.675,304.837C521.912,304.549 522.133,304.247 522.379,303.968ZM516.301,301.61C516.63,302.254 516.827,303.084 516.982,303.844C516.308,303.764 515.627,303.704 514.942,303.656C515.223,303.138 515.836,301.927 516.301,301.61ZM508.107,300.98C508.548,301.691 508.835,302.616 509.072,303.466C508.281,303.455 507.505,303.442 506.75,303.421C506.767,303.387 506.78,303.352 506.797,303.319C506.995,302.93 507.611,301.333 508.107,300.98ZM499.335,302.665C499.572,302.31 500.244,301.014 500.753,300.677C501.057,301.37 501.229,302.359 501.364,303.199C500.596,303.164 499.828,303.133 499.059,303.1C499.153,302.956 499.24,302.808 499.335,302.665ZM491.286,302.08C491.524,301.725 492.197,300.432 492.707,300.095C493.038,300.854 493.212,301.974 493.351,302.857C492.512,302.828 491.673,302.816 490.834,302.79C490.983,302.553 491.129,302.314 491.286,302.08ZM482.864,301.76C483.135,301.412 483.413,301.069 483.697,300.73C483.854,300.543 484.173,300.035 484.48,299.804C484.75,300.692 484.811,301.786 484.882,302.633C484.017,302.613 483.153,302.581 482.289,302.564C482.484,302.299 482.661,302.02 482.864,301.76ZM474.898,301.095C475.138,300.741 475.815,299.454 476.326,299.118C476.71,300.014 476.874,301.415 477.024,302.332C477.031,302.374 477.044,302.432 477.059,302.496C476.047,302.484 475.035,302.469 474.023,302.462C474.305,302.001 474.594,301.544 474.898,301.095ZM465.419,301.253C465.663,300.903 466.35,299.644 466.866,299.306C467.195,300.147 467.368,301.539 467.501,302.449C466.54,302.451 465.579,302.45 464.618,302.456C464.877,302.051 465.143,301.649 465.419,301.253ZM456.463,301.814C456.71,301.477 457.396,300.295 457.917,299.925C458.001,300.269 458.097,300.735 458.149,300.973C458.264,301.493 458.347,302.017 458.421,302.544C457.589,302.568 456.758,302.592 455.926,302.615C456.109,302.35 456.273,302.073 456.463,301.814ZM461.674,292.383C461.511,292.719 460.97,294.15 460.517,294.786C460.367,294.467 460.225,294.144 460.089,293.82C459.809,293.153 459.584,292.467 459.372,291.775C460.379,291.446 461.388,291.124 462.397,290.805C462.167,291.335 461.927,291.862 461.674,292.383ZM470.67,289.29C470.507,289.626 469.966,291.057 469.513,291.693C469.363,291.374 469.221,291.051 469.085,290.727C468.828,290.116 468.62,289.488 468.424,288.855C468.704,288.76 468.987,288.669 469.266,288.573C469.957,288.334 470.645,288.085 471.336,287.844C471.123,288.329 470.902,288.812 470.67,289.29ZM479.053,286.197C478.89,286.533 478.349,287.964 477.896,288.6C477.746,288.281 477.604,287.958 477.468,287.634C477.23,287.068 477.036,286.487 476.852,285.901C477.785,285.569 478.718,285.237 479.65,284.901C479.457,285.336 479.26,285.769 479.053,286.197ZM488.049,283.104C487.886,283.44 487.345,284.871 486.892,285.507C486.742,285.188 486.6,284.865 486.464,284.541C486.204,283.923 485.994,283.288 485.796,282.648C486.538,282.373 487.284,282.108 488.025,281.831C488.271,281.739 488.516,281.643 488.763,281.551C488.535,282.072 488.298,282.59 488.049,283.104ZM497.272,279.675C497.109,280.011 496.568,281.442 496.115,282.078C495.965,281.759 495.823,281.436 495.687,281.112C495.42,280.476 495.204,279.823 495.002,279.165C496.019,278.771 497.034,278.372 498.048,277.972C497.801,278.544 497.545,279.113 497.272,279.675ZM506.268,276.582C506.105,276.918 505.564,278.349 505.111,278.985C504.961,278.666 504.819,278.343 504.683,278.019C504.395,277.333 504.164,276.628 503.948,275.916C503.925,275.842 503.893,275.748 503.855,275.647C505.011,275.177 506.165,274.702 507.317,274.224C506.988,275.018 506.645,275.807 506.268,276.582ZM477.486,283.163C466.791,286.974 454.363,289.452 444.706,295.635C442.506,297.044 438.945,299.554 439.59,302.646C440.241,305.766 443.997,306.004 446.562,306.054C459.949,306.315 473.341,305.74 486.741,306.15C492.946,306.34 499.147,306.61 505.345,306.961C510.897,307.275 521.188,306.436 523.322,313.279C527.317,326.09 497.513,324.974 490.524,325.185C478.902,325.535 467.267,325.323 455.653,324.819C429.392,323.68 403.237,320.983 377.067,318.618C342.431,310.135 306.617,311.049 271.242,312.489C233.841,314.011 196.448,315.928 159.015,316.424C121.055,316.926 83.023,315.93 45.29,311.514C36.567,310.493 25.862,310.686 20.257,302.804C16.081,296.933 15.186,289.029 16.804,282.13C20.435,266.646 33.669,255.949 48.526,251.941C60.873,248.61 74.043,248.333 87.071,248.503C86.219,248.598 85.366,248.694 84.516,248.787C70.343,250.348 55.784,252.924 43.109,259.779C33.418,265.02 20.855,274.945 19.252,286.699C17.572,299.016 35.484,306.616 45.206,306.591C45.616,306.59 45.86,306.493 45.996,306.341C46.252,306.497 46.483,306.538 46.643,306.393C49.449,303.853 51.584,300.725 53.796,297.678C54.999,296.02 55.93,294.045 57.961,293.534C61.928,292.537 64.107,297.144 65.348,300.163C65.542,300.634 65.861,301.063 66.204,301.39C66.682,302.698 67.95,304.158 68.476,303.681C71.282,301.141 73.417,298.013 75.629,294.966C76.832,293.308 77.763,291.333 79.794,290.822C83.761,289.825 85.94,294.432 87.181,297.45C87.341,297.839 87.588,298.197 87.861,298.495C88.369,299.801 89.639,301.204 90.078,300.732C92.968,297.624 94.991,293.952 97.14,290.32C98.29,288.376 99.601,285.047 102.419,285.431C106.256,285.953 107.866,291.324 108.906,294.371C109.169,295.143 110.345,296.399 111.034,296.68C111.368,296.956 111.67,297.067 111.838,296.881C114.95,293.45 117.444,289.597 119.946,285.711C121.367,283.503 123.016,279.644 126.217,279.98C130.408,280.42 132.641,286.46 133.908,289.949C134.029,291.376 135.811,293.582 136.331,293.009C139.411,289.613 141.879,285.801 144.355,281.955C145.759,279.773 147.39,275.955 150.552,276.286C154.788,276.729 156.999,282.973 158.233,286.371C158.266,286.463 158.316,286.563 158.374,286.667C158.067,288.003 160.166,290.79 160.774,290.152C164.31,286.435 167.134,282.191 169.999,277.952C171.932,275.092 173.187,271.856 177.346,272.801C181.673,273.784 183.489,280.176 184.701,283.767C185.036,284.759 186.868,286.545 187.255,286.045C187.733,286.495 188.216,286.687 188.497,286.299C191.968,281.503 194.394,276.106 197.037,270.835C198.449,268.019 198.881,265.45 202.394,266.105C207.807,267.115 210.414,272.377 212.622,276.822C212.751,277.082 212.926,277.329 213.118,277.554C213.472,278.955 215.091,280.94 215.718,280.075C219.189,275.279 221.615,269.882 224.258,264.611C225.67,261.795 226.102,259.225 229.615,259.881C235.028,260.891 237.635,266.153 239.843,270.598C239.859,270.629 239.878,270.659 239.895,270.69C240.064,272.082 241.877,274.429 242.551,273.502C246.676,267.832 249.496,261.398 252.643,255.167C254.793,250.91 255.504,248.933 260.62,251.022C265.711,253.101 268.176,258.298 270.474,262.928C270.526,263.033 270.585,263.136 270.65,263.237C270.718,264.658 272.537,266.943 273.076,266.36C276.255,262.917 278.463,258.853 280.812,254.829C282.099,252.625 283.545,248.934 286.734,249.366C291.121,249.96 293.015,256.101 294.22,259.595C294.527,260.486 296.059,262.029 296.635,261.956C296.989,262.256 297.327,262.385 297.552,262.195C300.8,259.449 303.32,256.082 305.881,252.71C307.026,251.203 309.087,247.309 310.777,246.717C313.44,245.784 316.742,250.74 317.566,252.482C318.221,253.866 318.557,256.008 318.86,257.542C318.798,258.895 320.617,261.392 321.323,260.795C321.327,260.792 321.331,260.788 321.335,260.785C321.508,260.827 321.62,260.75 321.639,260.514C324.733,257.82 327.177,254.57 329.653,251.31C330.798,249.803 332.859,245.909 334.549,245.317C337.212,244.384 340.514,249.34 341.338,251.082C342.05,252.587 342.386,254.996 342.711,256.537C342.771,256.82 343.011,257.247 343.324,257.685C343.64,258.201 344.026,258.651 344.381,258.902C345.004,259.478 345.524,259.674 345.393,258.803C348.519,256.097 350.981,252.823 353.475,249.539C354.62,248.032 356.681,244.138 358.371,243.546C361.034,242.613 364.336,247.569 365.16,249.311C365.821,250.708 366.158,252.876 366.462,254.413C365.387,255.575 364.259,256.685 363.027,257.69C361.953,258.565 364.365,262.276 365.234,261.568C368.811,258.653 371.592,254.92 374.418,251.305C375.723,249.636 377.817,245.843 379.67,244.967C384.676,242.603 387.293,252.366 387.975,255.953C387.985,256.005 388.006,256.067 388.028,256.128C387.922,256.182 387.855,256.27 387.855,256.409C387.864,265.657 394.856,271.391 403.861,271.045C404.659,271.507 405.319,271.128 404.901,269.075C403.463,262.016 412.387,255.471 418.943,255.835C421.627,255.984 424.355,257.006 426.758,258.141C428.461,258.945 433.492,261.703 433.824,263.847C433.892,264.286 434.04,264.708 434.228,265.093C432.957,266.4 432.167,268.024 434.16,267.605C455.467,263.127 473.042,249.795 493.427,242.886C496.494,241.847 500.126,240.987 502.148,238.192C503.069,236.919 503.011,235.964 503.24,234.508C503.773,231.107 504.936,229.349 507.169,226.939C509.907,223.982 514.15,217.264 518.554,220.352C522.388,223.04 524.219,228.361 525.234,232.794C525.075,235.763 524.498,238.819 524.406,240.967C524.31,243.199 527.982,247.511 530.853,249.225C531.083,250.942 530.968,252.729 530.476,254.473C528.323,262.119 520.877,265.918 514.148,268.84C502.116,274.069 489.842,278.761 477.486,283.163ZM516.918,271.988C516.755,272.324 516.214,273.755 515.761,274.391C515.611,274.072 515.469,273.749 515.333,273.425C515.045,272.739 514.814,272.034 514.598,271.322C514.585,271.279 514.565,271.222 514.546,271.169C515.696,270.668 516.841,270.152 517.975,269.612C517.643,270.413 517.297,271.208 516.918,271.988ZM525.169,269.79C524.37,268.986 523.707,267.854 523.137,266.861C524.205,266.217 525.243,265.525 526.248,264.783C526.022,266.416 525.784,268.274 525.169,269.79Z" style="fill-rule:nonzero;"/>
        <path d="M414.439,263.03C409.275,264.941 410.446,272.329 413.029,275.992C416.075,280.313 422.212,282.117 426.676,278.901C436.357,271.925 423.846,257.253 414.439,263.03ZM416.102,267.983C416.336,268.013 416.553,267.974 416.736,267.833C417.288,267.407 417.885,267.043 418.507,266.745C418.241,268.076 418.202,269.485 418.052,270.861C417.96,271.704 417.807,274.319 418.319,276.105C417.642,276.002 416.968,275.787 416.311,275.433C413.898,274.133 413.948,269.716 416.102,267.983ZM423.834,274.439C423.18,274.963 422.465,275.37 421.72,275.667C422.03,274.802 422.223,273.935 422.314,273.597C422.975,271.151 422.019,268.481 421.106,266.002C421.968,265.921 422.849,265.996 423.726,266.288C427.683,267.608 426.339,272.43 423.834,274.439Z" style="fill-rule:nonzero;"/>
    </g>
</svg>
