<?xml version="1.0" encoding="utf-8"?>
<!-- Generator: Adobe Illustrator 23.0.1, SVG Export Plug-In . SVG Version: 6.00 Build 0)  -->
<svg version="1.1" id="Layer_3" xmlns="http://www.w3.org/2000/svg" xmlns:xlink="http://www.w3.org/1999/xlink" x="0px" y="0px"
	 viewBox="0 0 566.9 566.9" style="enable-background:new 0 0 566.9 566.9;" xml:space="preserve">
<path d="M225.2,404.3"/>
<path d="M283.1,305.5c-13.2-13.2-26.7-26.2-39.5-39.7c-1.1-1.1-2-1.2-2.8-0.7c-0.3,0.1-0.6,0.4-1,0.7c-12.6,11.2-32.1,8.5-47.4,12.2
	c-18.8,4.6-32.3,16.7-46.1,29.6c-26.2,24.4-51.8,49.6-75.8,76.1c-9.8,10.8-19.6,21.8-27.6,34c-4.8,7.2-12,19.9-5.2,28.2
	c4.6,5.7,13.6-0.9,17.9-3.9c10.4-7.1,19.8-15.7,29-24.3c15.8-14.7,31-30,45.7-45.8c0.5,0.5,1,1,1.5,1.5c-8.1,7.5-16,15.1-23.8,22.9
	c-15.2,15.1-31.5,30.7-43,49c-4,6.4-7.6,14.6-4.6,22.2c2.6,6.4,8.3,5.4,13.5,2.9c8-3.9,15.1-10.1,21.8-15.8
	c8.8-7.5,17.1-15.4,25.4-23.4c11.5-11.2,22.7-22.8,33.6-34.6c0.8,0.8,1.7,1.7,2.5,2.5c-8,7.5-15.9,15.2-23.7,22.9
	c-15.2,15.2-31.3,30.8-42.8,49.1c-4,6.4-7.6,14.7-4.5,22.2c2.6,6.4,8.3,5.4,13.5,2.9c8-3.9,15-10.1,21.8-15.9
	c8.7-7.5,17.1-15.4,25.3-23.5c11.4-11.3,22.6-22.9,33.5-34.7c0.5,0.5,1,1,1.5,1.5c-11.4,10.8-22.6,21.9-33.5,33.2
	c-9.3,9.6-18.5,19.5-26.7,30c-5.5,7.1-12.2,15.6-12.1,25.1c0,4.1,1.4,9.7,6.2,10.4c3.1,0.4,6.5-1.2,9.2-2.6
	c11.3-5.9,21.3-14.9,30.9-23.2c27.4-23.7,52.9-49.7,77.8-75.9c13.6-14.4,28.5-28.6,35.5-47.5c4.4-12,4.8-24.6,6.9-37.1
	c1.1-6.6,2.9-12.2,7.4-17.3C285.6,315.5,285.9,308.3,283.1,305.5z M41.6,433.1c-0.1,0-0.2,0-0.3,0C41.6,433,41.5,432.8,41.6,433.1z
	 M42.4,438.9c-0.1-0.2-0.1-0.4,0-0.8C42.5,438.6,42.5,438.9,42.4,438.9z M66.6,463.1c0,0,0-0.1,0-0.1
	C66.6,463.1,66.6,463.2,66.6,463.1z M92.2,488.7C92.2,488.7,92.2,488.7,92.2,488.7C92.2,488.8,92.2,488.9,92.2,488.7z M115.5,507.1
	c0,0,0,0.1,0.1,0.1C115.3,507.2,115.3,506.8,115.5,507.1z M266.4,348.3c-1.1,9.2-3.7,17.9-8.4,25.9c-4.5,7.7-10.8,14.3-16.8,20.8
	c-23,24.8-46.8,49-71.5,72.1c-11,10.3-22.2,20.5-34.2,29.5c-4.1,3.1-8.3,6.1-12.9,8.5c-0.7,0.4-1.5,0.8-2.3,1.1
	c1-1.6,2.1-3.1,3.4-4.8c7.4-9.9,15.8-19,24.3-27.9c14.2-15,28.9-29.5,44-43.5c2.8-2.6,2.6-10.3,0-13c-3.4-3.4-6.7-6.7-10.1-10.1
	c-1.2-1.2-2.6-1.3-3.8,0c-8.5,9.3-17.2,18.5-26.1,27.5C137.7,449,123,464,106.4,476c-3.6,2.6-7.2,5-11,6.3c0,0,0-0.1,0.1-0.1
	c10.3-16.4,25.5-31.1,39.3-44.9c10.7-10.8,21.6-21.3,32.8-31.6c2.8-2.6,2.6-10.3,0-13c-3.7-3.7-7.5-7.5-11.2-11.2
	c-1.2-1.2-2.6-1.3-3.8,0c-8.5,9.3-17.3,18.4-26.1,27.4c-14.4,14.5-29.1,29.5-45.7,41.4c-3.5,2.5-7.1,4.9-10.9,6.2c0,0,0,0,0-0.1
	c10.4-16.4,25.6-31,39.4-44.8c10.7-10.7,21.7-21.3,32.9-31.5c2.8-2.6,2.6-10.3,0-13c-3.4-3.4-6.8-6.8-10.2-10.2
	c-1.2-1.2-2.6-1.3-3.8,0c-11.9,12.8-24.2,25.3-36.7,37.4c-9.1,8.8-18.3,17.6-28.2,25.6c-4.8,4-11.7,10-17.8,12.3
	c0.5-0.9,1.1-1.8,1.7-2.6c7.6-11.5,17-21.9,26.2-32.1c23-25.5,47.5-49.6,72.5-73.1c14.2-13.4,28.3-27.3,48-31.8
	c16.2-3.7,34-1.9,47.6-12.2c10.7,11.1,21.7,21.9,32.7,32.7C268.6,323.8,267.8,336.5,266.4,348.3z"/>
<path d="M518.4,34.6c-5.2-5-12.5-9.7-13.5-9.3C493,29.5,481.3,36.3,472,45c-10.6,9.9-21,19.9-31.3,29.9
	c-20.3,19.7-40.2,39.8-60.1,59.9c-27.5,27.8-82,80.9-102.5,100.9c-4.2-3.8-8.3-7.7-12.4-11.6c-0.2-0.2-0.6-0.5-1-0.3
	c-13,9.6-25.1,21.4-36,33.2c-0.8,0.9-1,3.5,0,4.3c11.7,10,22.5,20.8,33.5,31.5c5.5,5.4,11.1,10.6,16.8,15.8
	c5.1,4.7,9.9,9.8,15.6,13.9c0.3,0.2,0.8,0,1-0.3c10.2-12.9,22.7-25.4,35.9-35.3c0.1-0.1,0.2-0.2,0.3-0.3c0.8-0.9,0.9-3.5,0-4.3
	c-0.1-0.1-0.1-0.1-0.2-0.2c0-0.1-0.1-0.1-0.1-0.1c-3.9-3.3-7.7-6.7-11.6-10c23.6-24.2,69-70.9,98.4-100
	c20.1-19.9,40.2-39.8,59.9-60.1c10.1-10.4,20.1-20.8,29.9-31.3c8.7-9.3,15.5-22,19.7-33.8C528.1,46.1,523.3,39.7,518.4,34.6z"/>
</svg>
