<?xml version="1.0" encoding="UTF-8" standalone="no"?>
<!DOCTYPE svg PUBLIC "-//W3C//DTD SVG 1.1//EN" "http://www.w3.org/Graphics/SVG/1.1/DTD/svg11.dtd">
<svg width="100%" height="100%" viewBox="0 0 567 567" version="1.1" xmlns="http://www.w3.org/2000/svg" xmlns:xlink="http://www.w3.org/1999/xlink" xml:space="preserve" xmlns:serif="http://www.serif.com/" style="fill-rule:evenodd;clip-rule:evenodd;stroke-linejoin:round;stroke-miterlimit:2;">
    <g id="Layer_4">
        <path d="M206.7,131.4C206.6,131.4 206.6,131.4 206.7,131.4C206.6,131.4 206.6,131.4 206.7,131.4C206.6,131.4 206.6,131.4 206.7,131.4Z" style="fill-rule:nonzero;"/>
        <path d="M133.2,373.3C133.2,373.4 133.2,373.6 133.3,373.8L133.3,373.6C133.2,373.5 133.2,373.4 133.2,373.3Z" style="fill-rule:nonzero;"/>
        <path d="M466.8,213.8C466.6,207.4 466.7,200.4 464.9,194.2C461.1,180.7 454.8,167.4 446.3,156.3C427.7,131.8 395.9,121.2 366.1,128C357.5,110.3 333.4,101 315.8,97.1C301.1,93.9 286.3,93.7 271.7,97.1C268.2,89.3 264.7,82.1 261.7,75.8C259.7,71.6 257.7,67.5 256.1,64C227.6,21.5 206,11.4 180.3,8.7C170.7,7.7 163.2,9.4 157.9,13.8C151.6,19 150.9,26.1 150.8,26.3C150.6,28 145.9,67.1 153.6,75.4C154.7,76.5 155.9,77.1 157.3,77C170,76.4 183.5,55.5 185.2,47C193.2,46.6 204.1,54.9 214.4,69.5C221.4,77.6 227.2,95.2 231.7,113.4C231.2,113.7 230.7,114 230.2,114.3C222.7,118.8 215.5,123.8 208.8,129.3C208.5,129.6 207.3,130.6 206.5,131.3L206.4,131.3C206.1,131.6 206.1,131.6 206.2,131.5C205.5,132.2 205.2,132.4 206.4,131.3C205.2,131.4 204,131.8 202.9,131.9C197.2,132.7 191.5,132.9 185.8,133.1C178.2,133.4 170.6,135.5 163.4,138.1C153.1,141.8 143.5,147.5 135.8,155.4C128.6,162.7 122.4,172.9 119.9,183.3C115.7,185.1 111.7,189.7 109.4,192.4C101,202.2 99.2,217.8 98,230.3C95.7,254.6 99.2,278.9 106.5,302.2C112.3,320.8 120.6,338.5 127.8,356.5C128.8,359 129.9,361.9 130.9,365.1C131.4,366.7 131.9,368.3 132.3,369.9C132.4,370.1 132.4,370.3 132.5,370.5C132.5,370.4 132.8,372.2 132.9,372.6C132.9,372.8 132.9,373 133,373.2C133,373 133,373.2 133,373.5C133,373.9 133.1,374.2 133.1,374.6C133.1,374.2 133,373.9 133,373.7L133,374.4C132.8,377.3 132.8,380.2 132.9,383.1C133,389.7 133.5,396.4 134.6,402.9C135.8,410.3 137.6,417.6 140.5,424.6C140.7,425.2 141,425.7 141.2,426.3C139.5,423.1 141.3,426.8 141.7,428.3C141.8,428.8 142.2,430.3 142.3,431C142.4,431.5 142.6,432.5 142.6,432.4C142.8,433.4 143,434.4 143.1,435.4C144,440.8 144.6,446.2 145.1,451.7C146.3,465.5 147.8,478.7 152.4,491.9C156.5,503.5 161.5,515.7 169.1,525.5C177.9,536.8 189.6,546.7 202.2,553.3C224.2,565 249.2,565.6 271.5,554.4C281.9,549.2 292.1,541.8 300.3,533.2C301.3,533.6 302.2,533.6 303,533.3C315,545.5 334.6,551.2 351,549.4C371.3,547.1 385,525.4 394.3,509.4C406.4,488.7 415,466.4 422.3,443.6C436.3,399.9 448.2,355.5 456.8,310.4C461.8,284.3 465.6,257.8 466.5,231.2C467,225.5 467,219.7 466.8,213.8ZM386.6,146.3C401.3,146.6 415.7,151 427.5,159.8C416.5,158 404.8,158.9 394.2,160.6C375.8,163.4 357.6,169 341.4,178.4C338.2,180.3 335.1,182.3 332.2,184.4C332.2,184.3 332.2,184.1 332.3,184C332.4,183.5 332.5,183 332.5,182.5C332.7,181.4 332.7,181.6 332.7,181.7C333.6,177.8 334.8,174.1 336.6,170.5C342.1,159.4 355.6,152.2 366.3,148.3C367.8,148 369.2,147.7 370.7,147.4C375.8,146.6 381.2,146.2 386.6,146.3ZM142,218.1L142,218.3L141.9,218.2C142,218.2 142,218.1 142,218.1ZM142,218.1C142,218 142,218 142,218.1C142.1,217.2 142.3,215.5 142.7,214C144.3,207.9 147.2,202.1 150.1,196.5C164.4,196.5 179.4,202 192.2,209.2C180.4,212.8 168.9,217.6 156.7,219.9C151.8,220.8 145.4,221.8 141.9,218.2C142,218.2 142,218.1 142,218.1ZM297.7,115C312.6,115.7 327.3,119.4 340.5,126.5C345.3,129.1 350,132.1 353.9,136C354.7,136.8 355.6,137.7 356.3,138.6C341.1,144.3 330.5,158 326.8,173.9L309.4,150.5L309.1,150.6C309,150.6 301.9,152.6 288.9,156.5C288.5,143.9 284.7,129.8 279.7,116.1C285.5,115.1 291.6,114.7 297.7,115ZM138.1,176.3C144.2,169 152.2,163.8 160.8,160C166.7,157.4 172.8,155.6 179.1,154.3C185.7,153 192.7,153.4 199.5,152.8C203.4,152.4 207.7,152.3 210.8,149.8C211.2,149.5 211.6,149.1 212,148.8C212.1,148.7 212.2,148.7 212.3,148.5C212.8,148.1 213.4,147.6 213.9,147.2C217,144.7 220.2,142.4 223.5,140.1C227.5,137.3 231.7,134.7 236,132.2C239.7,150.8 241.8,166.8 242.2,169.9L231.5,169.9L205.1,202.6L205.7,203.4C185.6,189.3 155.5,176.8 131.6,186.5C132,185.7 132.4,184.9 132.8,184.1C134.3,181.1 135.5,179.3 138.1,176.3ZM173.5,506.9C173.5,506.9 173.5,506.8 173.4,506.8C174.3,507.8 174.1,508 173.5,506.9ZM308.8,224.1C330.9,242.6 326.6,272.1 326.7,275C326.8,280.6 326.7,286.2 326.6,291.8C326.4,297.9 326.1,304 325.7,310.1C325.7,310.5 325.6,311.9 325.6,312.1L325.6,312.2C325.5,313.8 325.4,315.4 325.2,317C324.9,320.5 324.6,323.9 324.3,327.4C319.7,379.2 311.4,430.7 302.1,481.9C300,493.2 297.9,504.5 295.7,515.8C276.3,536.5 246.3,548.5 218.6,539.6C203,534.6 189.2,524.8 178.3,512.7C176.6,510.8 175.1,508.7 173.5,506.8C172.9,505.8 172.3,504.8 171.7,503.8C169.8,500.6 168.1,497.3 166.5,493.9C162,484.5 158.4,474.4 156.8,464C155,452.5 155.1,440.7 153.1,429.2C152.3,424.3 151.3,419.4 149.7,414.7C149.4,413.7 149,412.8 148.6,411.8C148.4,411.4 148.3,411 148.1,410.6C147.9,410 147.7,409.5 147.5,408.9C145,401.4 143.8,394.1 143.5,385.8C143.2,377 143.8,368.8 141.6,360.2C137.7,345 130.3,330.6 124.4,316.1C116.1,295.8 109,274.3 107.9,252.3C107.3,239.9 108.5,227.5 111.9,215.5C113,211.7 116.2,207.6 120.5,204.7C121.3,204.2 122.1,203.7 123,203.3C127.6,201 135.2,198.7 140.5,197.6C137.8,203.9 135.7,210.6 135.5,217.3C135.3,223.2 136.8,230.5 142.8,233.1C148.1,235.5 154.7,234.1 160.1,232.8C167.7,231 175.2,228.4 182.6,225.9C205,218.4 228.6,213.8 252.2,212.2C266.6,211.2 282.3,211 296,216.1C299.1,217.3 302.6,219.9 308.8,224.1ZM449.9,291C442.3,335.8 430.5,379.9 417.1,423.3C414.2,432.5 411.3,441.8 408.2,450.9C408.1,451.3 407.9,451.6 407.8,452C407.6,452.6 407.3,453.3 407.1,453.9C406.9,454.4 406.8,454.8 406.6,455.3C406.6,455.4 406.6,455.4 406.5,455.5C406.5,455.6 406.5,455.6 406.4,455.7C403.5,463.1 400.3,470.5 396.8,477.7C388.7,494.4 378.7,514.5 362.6,525C346.9,535.2 323.3,528.8 309.8,517.1C315.9,486.3 321.2,455.3 326,424.2C330.4,395.8 334.2,367.3 336.9,338.7C339.3,313 341.2,287 339.5,261.2C338.8,250.8 337.6,240.2 334,230.4C332.4,225.9 330.3,222.3 327.5,218.5C325.6,215.9 323.4,212.5 321,208.9C342,185.4 377.1,174.2 407.8,172.6C420.3,171.9 434.7,172.9 445.4,180C454.9,186.8 456.8,217.2 456.8,220C457,243.7 454,267.1 449.9,291Z" style="fill-rule:nonzero;"/>
        <path d="M306.8,222.8" style="fill-rule:nonzero;"/>
    </g>
</svg>
