<?xml version="1.0" encoding="utf-8"?>
<!-- Generator: Adobe Illustrator 23.0.1, SVG Export Plug-In . SVG Version: 6.00 Build 0)  -->
<svg version="1.1" id="Layer_5" xmlns="http://www.w3.org/2000/svg" xmlns:xlink="http://www.w3.org/1999/xlink" x="0px" y="0px"
	 viewBox="0 0 566.93 566.93" enable-background="new 0 0 566.93 566.93" xml:space="preserve">
<g>
	<path d="M340.761,340.15c0-5.538,0-11.077,0-16.615c0-2.356,0.707-3.668-1.183-4.752c-1.225-0.703-3.637-0.5-4.991-0.524
		c-1.867-0.033-6.929-0.552-8.066,1.477c-0.601,1.073-0.027,4.761-0.027,5.926c0,1.779,0,3.557,0,5.336c0,2.666,0.533,6.081,0,8.718
		c-1.322,6.537-8.371,12.51-7.374,20.038c0.472,3.561,1.846,6.933,2.176,10.635c0.431,4.836,0.557,9.704,0.614,14.557
		c0.023,1.978-0.733,5.717,0.001,7.597c1.042,2.672,5.762,2.877,8.523,3.022c0.486,0.163,1.182,0.15,1.409,0.147
		c1.054,0.001,2.108,0.001,3.162,0.002c0.265,0.003,0.927-0.011,1.478-0.159c3.205-0.185,8.048-0.42,8.859-3.734
		c0.51-2.085-0.022-4.956,0.003-7.097c0.044-3.817,0.145-7.635,0.384-11.445c0.214-3.419,0.324-7.109,1.331-10.409
		c0.805-2.636,1.355-4.302,0.712-7.169C346.546,350.231,343.663,344.911,340.761,340.15z M334.683,319.82
		c0.864,0.039,1.321,0.069,1.589,0.189c-2.456,0.829-4.62,0.25-5.777-0.22C331.557,319.483,334.015,319.79,334.683,319.82z
		 M342.421,368.432c-0.685,6.061-0.786,12.203-0.822,18.297c-0.035,5.908,1.084,6.81-6.185,7.356
		c-0.151,0.011-0.396,0.037-0.656,0.086c-0.623-0.003-1.25-0.003-1.873,0.001c-0.254-0.056-0.503-0.079-0.635-0.089
		c-3.912-0.293-6.531,0.057-6.592-3.704c-0.07-4.269-0.023-8.533-0.187-12.802c-0.172-4.487-0.267-9.187-1.273-13.586
		c-0.972-4.25-1.704-6.567-0.158-11.025c1.431-4.125,3.956-7.674,5.603-11.652c1.131-2.732,0.583-5.943,0.583-8.931
		c0-2.314,0-4.628,0-6.942c0-0.173-0.08-1.382-0.138-2.618c0.973,0.323,2.222,0.61,3.666,0.61c1.089,0,2.28-0.167,3.523-0.595
		c0.641,3.311-0.247,8.077-0.247,11.262c0,2.113,0,4.227,0,6.34c0,0.128,0.058,0.238,0.158,0.331
		c2.601,4.271,5.041,8.898,6.458,13.7C345.114,359.445,342.981,363.475,342.421,368.432z"/>
	<path d="M383.465,351.5c0.242-0.121,0.271-0.302-0.153-0.547c-3.057-1.77-7.483-1.289-10.849-1.169
		c-4.815,0.172-9.954,0.345-14.601,1.692c-0.421,0.122-0.478,0.283-0.339,0.442c-0.304,0.149-0.004,0.884,0.463,1.559
		c-0.011,0.115-0.017,0.249-0.015,0.407c0.098,7.891,2.009,15.458,4.108,23.015c-0.641,0.031-0.96,0.441,0.039,1.143
		c0.158,0.111,0.326,0.204,0.49,0.306c0.29,0.471,0.616,0.619,0.843,0.479c4.674,2.38,10.972,1.57,16.033,0.728
		c0.193,0.061,0.336,0.039,0.416-0.07c0.209-0.035,0.421-0.071,0.625-0.105c0.619-0.105,0.258-0.649-0.336-1.105
		c1.555-8.01,3.971-15.831,4.594-23.994c0.052-0.013,0.105-0.022,0.157-0.036C385.737,354.039,384.428,351.944,383.465,351.5z
		 M381.229,351.499c0.153,0.089,0.433,0.145,0.749,0.169c-7.22,1.73-14.439,1.988-21.715,0.71c2.869-0.754,5.913-0.935,8.859-1.171
		C372.236,350.957,378.412,349.867,381.229,351.499z M377.892,377.751c-4.134,0.725-10.633,1.926-14.212-0.29
		c-0.024-0.127-0.054-0.26-0.094-0.403c-1.983-7.115-3.844-14.187-3.936-21.621c-0.003-0.203-0.062-0.466-0.155-0.743
		c7.719,1.686,15.357,1.736,23.019,0.105C381.632,362.566,379.298,370.059,377.892,377.751z"/>
</g>
<path fill="#010101" d="M425.371,361.357c-5.897,0.602-11.965,0.159-15.519-5.104c-0.293-0.433-0.939,0.182-0.932,0.534
	c0.161,7.43,10.076,8.484,15.61,8.488c3.305,0.002,6.617-0.536,9.835-1.251c1.154-0.256,2.067-0.268,2.956-0.998
	c1.386,1.168,2.755,2.355,4.077,3.597c0.048,0.045,0.094,0.092,0.141,0.137c-0.547,0.951-0.561,2.018,0.53,2.572
	c8.239,4.186,19.887,6.559,27.721,0.38c6.822-5.379,8.75-15.619,11.852-23.262c3.816-9.399,8.83-19.771,6.807-30.179
	c-0.747-3.845-2.539-6.353-6.069-8.029c-3.065-1.456-7.762-1.778-9.416-5.122c-0.227-0.46-0.883-0.198-1.076,0.193
	c-0.217-0.123-0.522-0.142-0.932,0.02v-0.001c-6.706,2.542-12.612,7.356-17.628,12.373c-2.672,2.672-5.036,5.603-6.994,8.835
	c-0.575,0.95-1.344,2.267-1.889,3.646c-0.975-3.72-1.887-7.437-2.577-11.224c-0.557-3.059-0.284-6.729-1.615-9.546
	c-0.01-0.022-0.025-0.035-0.039-0.053c0.803-0.221,1.603-0.668,2.142-1.015c1.225-0.789,2.391-2.052,2.435-3.577
	c0.017-0.593-0.836-0.368-1.036-0.051c-0.606,0.964-1.224,1.721-2.223,2.297c-0.744,0.429-1.606,0.648-2.373,1.03
	c-9.799-2.622-15.451,6.919-19.077,14.463c-2.641,5.494-4.353,11.352-6.619,16.996c-1.93,4.81-4.765,10.163-5.278,15.424
	c-0.05,0.213-0.081,0.43-0.068,0.656c0.001,0.03,0.003,0.061,0.005,0.091c0,0.001,0.001,0.002,0.001,0.003
	c-0.058,1.098,0.478,1.582,1.229,1.65c1.619,0.354,4.247-1.4,4.137-3.372c0-0.001,0.001-0.001,0.001-0.003
	c0.002-0.031,0.004-0.063,0.005-0.094c0.003-0.058-0.009-0.103-0.01-0.159c-0.149-4.537,2.494-9.316,4.11-13.428
	c1.804-4.59,3.21-9.321,5.023-13.909c1.614-4.084,3.557-8.229,6.11-11.82c1.38-1.943,3.149-2.968,5.363-3.727
	c2.081-0.713,3.656-0.146,5.313-1.325c0.058-0.002,0.117-0.006,0.175-0.012c-0.017,0.025-0.032,0.05-0.042,0.077
	c-1.134,3.22-0.471,6.84-0.046,10.161c0.492,3.85,1.339,7.672,2.208,11.456c0.034,0.252,0.087,0.492,0.183,0.803
	c0.293,0.942,1.31,0.708,2.001,0.075c-0.164,0.885-0.157,1.738,0.139,2.478c0.175,0.437,0.74,0.09,0.881-0.178
	c1.351-2.587,1.914-5.354,3.535-7.875c1.88-2.926,4.279-5.527,6.765-7.941c4.419-4.292,9.921-8.825,15.888-10.713
	c0.346-0.11,0.617-0.335,0.815-0.607c0.936,4.527,7.903,5.162,10.801,8.251c2.882,3.075,2.16,9.242,1.534,12.971
	c-0.804,4.795-2.599,9.377-4.436,13.854c-2.983,7.27-5.399,15.14-9.195,22.026c-2.12,3.847-4.934,5.894-9.314,6.312
	c-4.235,0.404-8.593-0.475-12.591-2.027c-0.643-1.023-1.656-1.884-2.626-2.803c-2.307-2.189-4.919-4.147-7.512-5.979
	c-5.083-3.592-10.419-7.381-15.909-10.315c-0.7-0.374-1.684,0.635-1.214,1.303c3.105,4.416,7.971,7.796,12.202,11.181
	c-0.098,0.024-0.196,0.048-0.293,0.072C430.738,360.726,428.051,361.083,425.371,361.357z"/>
<path fill="#010101" d="M426.061,339.088c6.397,4.91,14.802,5.131,22.186,8.059c6.003,2.38,11.802,5.823,13.695,12.143
	c0.013,0.202,0.053,0.406,0.141,0.609c0.031,0.073,0.063,0.146,0.094,0.22c1.036,2.394,4.794,0.055,4.546-2.011
	c-0.353-2.94-2.004-5.425-4.222-7.468c0.309-0.306,0.532-0.691,0.58-1.115c0.585-5.166,3.216-9.646,5.106-14.405
	c0.806-2.028,1.297-4.132,1.602-6.288c0.234-1.656-0.826-3.137-1.238-4.674c-0.092-0.35-0.579,0.026-0.587,0.259
	c-0.269,8.533-6.276,15.381-8.003,23.471c-0.158,0.138-0.29,0.305-0.376,0.492c-2.214-1.46-4.631-2.593-6.781-3.404
	c-5.92-2.233-12.274-2.844-18.419-4.15c0.53-0.59,0.799-1.337,0.446-2.005c-2.195-4.144-2.191-9.933-0.107-14.139
	c0.259-0.524-0.37-0.644-0.7-0.383c-4.31,3.388-5.129,10.494-3.457,15.59c-1.378-0.388-2.739-0.831-4.073-1.371
	C426.181,338.393,425.744,338.844,426.061,339.088z"/>
<path fill="#010101" d="M485.703,256.471c-0.076-3.269-1.042-6.625-2.779-9.892c-3.533-6.645-11.874-11.49-19.136-8.32
	c-0.415-2.513-3.697-4.747-5.763-5.709c-4.534-2.109-9.973-1.758-14.447,0.349c-5.294,2.494-10.272,7.814-12.835,13.854
	c-3.801,0.634-6.492,4.043-8.379,7.21c-2.868,4.816-3.838,10.064-3.018,15.613c0.611,4.126,2.75,7.613,6.205,9.926
	c0.517,0.346,1.096,0.668,1.714,0.962c-2.431,3.301-0.765,7.199,2.187,9.673c2.343,1.963,8.19,5.012,10.809,2.044
	c0.298-0.338,0.275-0.809-0.073-1.077c-0.849-0.654-2.411-0.382-3.433-0.562c-1.62-0.286-3.11-1.026-4.507-1.864
	c-2.895-1.738-4.804-4.527-4.13-7.838c2.531,1.025,5.563,1.521,8.02,0.951c1.327,5.187,4.073,9.853,8.614,12.956
	c-0.203,0.159-0.363,0.395-0.363,0.61c-0.001,1.665,0.38,3.354,0.523,5.015c0.092,1.066,0.114,2.146-0.019,3.21
	c-0.094,0.759-0.578,1.28-0.738,2.003c-0.204,0.917,0.758,1.097,1.397,0.781c2.983-1.481,1.385-8.079,0.261-10.942
	c0.132,0.078,0.259,0.161,0.395,0.238c4.445,2.504,9.991,2.904,14.697,0.955c0.248-0.103,0.483-0.218,0.72-0.332
	c-0.464,1.082-0.736,2.248-0.739,3.422c-0.003,1.171,0.148,2.314,0.308,3.472c0.056,0.406,0.105,0.811,0.182,1.213
	c0.019,0.103,0.313,1.032,0.164,0.288c0.233,1.165,1.454,0.725,2.034,0.099c0.883-0.952,0.395-2.174,0.128-3.276
	c-0.54-2.222-0.285-4.238-0.054-6.406c3.824-2.725,5.803-7.14,6.624-11.873c0.284-1.641,0.497-3.335,0.65-5.054
	c0.075-0.001,0.149-0.011,0.214-0.032c3.052-1.004,4.916-6.182,5.024-9.065c0.05-1.346-0.748-3.41-1.948-4.153
	c-1.192-0.738-2.303-0.267-3.324,0.464c-0.122-1.321-0.268-2.628-0.463-3.899c-0.571-3.718-1.782-7.279-3.508-10.614
	c-1.85-3.576-4.079-5.579-7.408-7.652c-0.639-0.398-1.78,0.704-1.213,1.3c3.65,3.839,6.399,8.122,8.08,13.026
	c-0.06-0.013-0.121-0.027-0.177-0.042c-1.561-0.415-3.022-1.217-4.389-2.06c-2.477-1.53-4.481-3.549-5.093-6.437
	c-0.004-0.021-0.017-0.031-0.023-0.049c0.455-0.169,0.915-0.329,1.386-0.473c0.283-0.087,0.695-0.788,0.176-0.825
	c-5.554-0.401-10.666,4.624-13.901,8.545c-2.205,2.672-3.951,5.747-5.248,8.951c-0.168,0.413-0.34,0.852-0.507,1.306
	c0.045-0.281,0.092-0.56,0.142-0.837c0.86-4.755,2.732-9.404,5.642-13.273c1.34-1.781,3.007-3.265,4.897-4.437
	c0.915-0.568,5.536-2.783,5.97-1.237c0.136,0.49,0.806,0.004,0.875-0.281c0.083-0.341,0.167-0.682,0.25-1.023
	c0.067-0.275-0.085-0.568-0.376-0.616c-10.686-1.753-17.484,11.119-19.648,19.515c-1.227,4.762-1.573,10.086-0.725,15.096
	c-2.046-0.492-4.276-0.53-6.262-1.319c-3.23-1.283-5.402-3.844-6.616-7.035c-2.75-7.235,0.013-18.882,7.364-22.614
	c-1.516,4.42-1.692,9.114,0.264,13.305c0.302,0.648,1.169-0.012,1.177-0.521c0.084-4.993,0.113-9.668,1.957-14.396
	c1.697-4.35,4.792-8.11,8.732-10.598c3.656-2.309,8.305-3.11,12.486-2.019c1.742,0.455,3.325,1.265,4.842,2.212
	c1.934,1.207,2.1,2.741,2.623,4.728c0.096,0.365,0.589,0.105,0.726-0.057c0.551-0.649,0.828-1.303,0.896-1.946
	c7.165-0.899,13.729,3.488,16.912,9.77c1.687,3.327,2.805,6.962,2.26,10.703c-0.503,3.448-2.702,6.432-3.914,9.639
	c-0.239,0.633,0.447,0.914,0.893,0.49c3.207-3.053,4.997-6.562,5.551-10.259c1.763,3.679,2.598,7.286,1.452,11.72
	c-0.67,2.592-2.21,4.973-4.062,6.873c-1.881,1.928-4.391,2.721-6.431,4.374c-0.327,0.265-0.584,1.149,0.076,1.201
	c1.956,0.155,3.885-0.637,5.632-1.925c-0.818,3.077-1.948,5.508-4.772,7.737c-2.841,2.241-6.654,2.942-9.394,5.196
	c-0.306,0.252-0.564,1.105,0.072,1.149c3.789,0.258,8.493-2.959,11.243-5.305c2.822-2.407,5.255-6.422,4.561-10.243
	c2.369-2.328,4.218-5.414,5.033-7.822C490.734,267.065,490.1,260.321,485.703,256.471z M473.223,272.463
	c-0.471,1.048-1.44,2.086-2.128,3.173c0.165-3.176,0.114-6.394-0.142-9.523C474.722,264.727,474.089,270.533,473.223,272.463z
	 M438.916,272.963c0.817-2.455,1.038-5.033,1.953-7.481c1.062-2.839,2.664-5.452,4.479-7.867c2.667-3.55,5.947-6.305,9.882-8.068
	c-0.79,2.701,1.689,5.297,3.647,6.824c1.688,1.317,5.572,4.134,8.233,3.622c0.063,0.242,0.128,0.483,0.186,0.728
	c1.405,5.945,1.005,12.337,0.674,18.387c-0.318,5.791-1.436,11.794-6.933,14.802c-4.26,2.33-9.611,1.174-13.609-1.08
	c-6.876-3.876-9.261-11.696-9.356-19.322C438.366,273.635,438.83,273.223,438.916,272.963z"/>
<path fill="#010101" d="M442.349,297.151c-1.691,0.268-3.84,0.349-5.23-0.863c-0.249-0.217-0.82,0.143-0.634,0.453
	c0.643,1.073,1.357,1.863,2.611,2.259c1.159,0.365,2.896,0.752,3.829-0.234c0.307-0.325,0.579-0.791,0.259-1.21
	c-0.037-0.049-0.074-0.098-0.112-0.147C442.92,297.208,442.589,297.113,442.349,297.151z"/>
<path fill="#010101" d="M469.032,300.747c-1.726-0.007-3.386-0.282-4.577-1.625c-0.261-0.295-0.821,0.106-0.772,0.444
	c0.236,1.64,1.625,2.363,3.116,2.761c1.561,0.416,4.323,0.804,5.665-0.266c0.252-0.2,0.366-0.559,0.178-0.834
	C472.006,300.293,470,300.751,469.032,300.747z"/>
<path fill="#010101" d="M447.621,265.694c2.021-0.411,0.889,4.132,0.889,4.132s-0.578,3.343-1.857,3.287
	C445.373,273.057,445.6,266.105,447.621,265.694z"/>
<path fill="#010101" d="M461.204,266.278c2.021-0.411,0.888,4.132,0.888,4.132s-0.578,3.343-1.857,3.287
	C458.956,273.64,459.183,266.689,461.204,266.278z"/>
<path fill="#010101" d="M177.954,153.907c-2.536-0.959-2.023,5.174-2.023,5.174s0.046,4.459,1.718,4.656
	S180.49,154.866,177.954,153.907z"/>
<path fill="#010101" d="M163.679,152.705c-2.536-0.959-2.023,5.174-2.023,5.174s0.046,4.459,1.718,4.656
	C165.045,162.731,166.215,153.663,163.679,152.705z"/>
<path d="M452.711,289.217c-5.621,0-8.575-3.558-8.707-3.721l1.551-1.263c0.117,0.142,2.938,3.477,8.353,2.922
	c5.304-0.536,6.525-2.64,6.537-2.66l0.32-0.58l0.671,0.045l1.842,0.193l-0.207,1.988l-1.26-0.131
	c-0.791,0.945-2.858,2.645-7.702,3.135C453.626,289.194,453.16,289.217,452.711,289.217z"/>
<path d="M171.785,175.523c-0.449,0-0.914-0.022-1.396-0.071c-4.844-0.49-6.911-2.19-7.703-3.136l-1.26,0.132l-0.208-1.989
	l2.539-0.265l0.307,0.629l0,0c0.001,0,1.224,2.103,6.526,2.639c5.418,0.554,8.235-2.781,8.352-2.923l1.551,1.263
	C180.361,171.965,177.406,175.523,171.785,175.523z"/>
<g>
	<path d="M358.807,361.395c-0.451-1.236-0.489-2.686-0.111-3.957c-4.409,0.132-8.814,0.292-13.145,0.488
		c0.346,1.294,0.275,2.753-0.219,3.976C349.759,361.697,354.275,361.53,358.807,361.395z"/>
	<g>
		<path d="M359.734,361.752c-0.38-1.313-0.386-2.48-0.088-3.796c0.138-0.61-1.098-1.295-1.588-1.28
			c-4.383,0.133-8.764,0.293-13.145,0.488c-0.26,0.012-0.336,0.171-0.289,0.405c0.277,1.394,0.187,2.489-0.242,3.815
			c-0.189,0.585,1.133,1.301,1.588,1.28c4.49-0.204,8.982-0.37,13.475-0.506c0.88-0.027-0.632-1.543-1.276-1.524
			c-4.493,0.136-8.985,0.302-13.475,0.506c0.529,0.427,1.059,0.853,1.588,1.28c0.262-0.809,0.023-2.745,0.366-3.264
			c0.596-0.902,2.56-0.599,3.558-0.639c3.042-0.121,6.085-0.225,9.128-0.317c-0.529-0.427-1.059-0.853-1.588-1.28
			c-0.33,1.455-0.28,2.687,0.134,4.118C358.055,361.646,359.983,362.612,359.734,361.752z"/>
	</g>
</g>
<g>
	<path d="M413.117,360.546c-0.266-0.155-0.517-0.325-0.739-0.524c-1.63-0.411-2.692-1.57-3.181-2.961
		c-5.691-0.069-19.553-0.092-26.113-0.067c0.438,1.275,0.395,2.734-0.12,3.977c8.241-0.023,23.726,0.031,30.836,0.159
		C413.539,360.951,413.314,360.754,413.117,360.546z"/>
	<g>
		<path d="M413.384,358.636c-1.514-1.073-2.859-1.442-3.738-3.278c-0.085-0.161-0.215-0.255-0.39-0.283
			c-8.703-0.096-17.409-0.096-26.113-0.067c-1.009,0.003-0.889,2.409-0.771,2.97c-0.02,0.657-0.04,1.314-0.06,1.971
			c-0.139,0.504-0.409,3.013,0.591,3.011c10.278-0.024,20.559-0.013,30.836,0.159c1.24,0.021,0.957-3.358,0.327-3.897
			C413.839,359.026,413.611,358.831,413.384,358.636c-0.735-0.63-1.45,3.036-0.534,3.82c0.228,0.195,0.455,0.39,0.683,0.585
			c0.109-1.299,0.218-2.598,0.327-3.897c-10.277-0.172-20.558-0.183-30.836-0.159c0.197,1.004,0.394,2.007,0.591,3.011
			c0.577-2.1,0.629-3.852,0.18-5.983c-0.257,0.99-0.514,1.98-0.771,2.97c5.636-0.019,11.272-0.012,16.907,0.008
			c2.355,0.008,5.067-0.383,7.371,0.04c1.702,0.313,4.033,2.352,5.547,3.425C413.714,363.069,414.347,359.319,413.384,358.636z"/>
	</g>
</g>
<path d="M529.115,369.309c-9.7-5.342-21.363-6.252-32.157-7.3c-8.139-0.79-16.282-1.546-24.42-2.35
	c-0.379-0.038-0.393,0.331-0.419,0.617c-0.441,1.127-0.882,2.253-1.323,3.38c-0.45,0.617,0.321,2.925,1.139,3.006
	c8.78,0.863,17.564,1.685,26.344,2.534c6.197,0.599,12.423,1.174,18.483,2.668c6.033,1.487,14.817,4.061,18.408,9.613
	c1.978,3.059-0.269,7.463-2.557,9.867c-1.679,1.763-3.927,2.221-6.187,3.003c-6.17,2.137-12.46,3.758-18.942,4.59
	c-14.259,1.83-28.717,2.622-43.074,3.183c-29.237,1.143-59.048,1.476-88.263-0.355c-14.449-0.906-28.954-1.176-43.339-2.918
	c-13.182-1.596-27.019-3.011-39.929-6.135c-6.08-1.471-12.061-3.781-17.055-7.624c-2.183-1.679-4.938-3.893-6.18-6.391
	c-2.039-4.105,4.883-5.067,7.729-5.905c15.283-4.499,30.72-7.009,46.585-8.151c0.432-0.031,0.173-1.191,0.132-1.358
	c0.028-0.986,0.056-1.973,0.083-2.959c0.177-0.727-0.426-2.86-1.396-2.792c-15.251,1.073-30.081,3.37-44.83,7.481
	c-4.784,1.333-11.452,2.003-13.865,7.027c-1.316,2.74-1.038,5.779,0.281,8.429c4.343,8.73,13.975,14.579,22.856,17.627
	c6.415,2.201,13.061,3.004,19.734,4.002c8.113,1.214,16.205,2.579,24.344,3.614c30.355,3.859,61.48,3.924,92.039,4.117
	c15.582,0.098,31.169-0.074,46.737-0.777c15.353-0.693,31.401-1.049,46.469-4.277c3.659-0.784,7.258-1.816,10.807-2.997
	c2.929-0.975,6.28-1.711,8.627-3.821c2.771-2.492,4.928-6.62,5.832-10.247C543.877,379.411,535.19,372.967,529.115,369.309z"/>
<path d="M563.276,489.185c-4.602-7.779-6.934-16.989-9.145-25.671c-2.919-11.462-5.187-23.089-7.232-34.735
	c-2.582-14.705-4.84-29.49-6.626-44.314c-0.101-0.838-2.052,0.628-1.946,1.509c1.785,14.824,4.044,29.61,6.626,44.314
	c2.045,11.646,4.313,23.273,7.232,34.735c2.078,8.159,4.288,16.77,8.363,24.235c-7.409,1.288-14.922,4.771-21.639,7.687
	c-5.497,2.386-10.9,5.015-16.081,8.03c-4.698,2.735-8.632,6.337-13.129,9.263c-6.846,4.454-17.493,5.627-25.397,6.583
	c-8.635,1.044-18.196,1.758-26.781,0.116c-8.012-1.532-15.338-5.532-23.43-6.727c-8.193-1.209-16.58-1.421-24.845-1.208
	c-8.66,0.223-17.292,1.007-25.906,1.89c-8.494,0.871-15.973,5.024-24.637,5.644c-4.329,0.31-8.694,0.053-12.949-0.806
	c-5.164-1.044-8.545-3.188-12.745-6.236c-5.75-4.173-12.007-7.617-18.48-10.529c-14.052-6.322-29.013-10.218-43.655-14.883
	c-2.987-0.952-6.6-1.589-9.323-3.07c-4.878-2.654-0.853-8.629,0.68-12.527c2.845-7.237,4.685-14.83,5.754-22.526
	c1.594-11.481,1.439-23.215,1.439-34.794c0-12.422,0.082-25.177-2.151-37.439c-0.158-0.867-2.105,0.636-1.946,1.509
	c2.106,11.561,2.068,23.594,2.102,35.309c0.029,9.808,0.15,19.766-0.666,29.539c-0.728,8.718-2.302,17.393-5.186,25.668
	c-1.296,3.717-4,7.487-4.686,11.344c-0.307,1.73,0.154,3.414,1.379,4.691c1.648,1.718,4.291,2.038,6.435,2.752
	c3.93,1.309,7.886,2.538,11.846,3.751c7.38,2.261,14.783,4.457,22.075,6.992c7.189,2.499,14.281,5.327,21.026,8.869
	c3.785,1.987,7.449,4.203,10.932,6.684c3.254,2.318,5.538,4.652,9.404,5.81c7.428,2.225,15.317,2.599,22.944,1.252
	c3.672-0.648,7.149-1.784,10.664-3.003c4.694-1.628,9.294-2.059,14.22-2.526c17.752-1.685,37.257-3.429,54.425,2.315
	c7.706,2.578,14.806,4.861,22.997,5.027c8.383,0.17,16.807-0.403,25.055-1.937c6.897-1.283,15.556-2.554,20.993-7.186
	c5.621-4.788,12.134-8.519,18.71-11.825c9.483-4.767,21.029-10.638,31.784-11.812C562.317,490.893,563.676,489.862,563.276,489.185z
	"/>
<path d="M361.316,503.103c0.12-11.105,0.262-23.005,3.2-33.762c0.549-2.011,1.832-3.659,2.458-5.494
	c1.258-3.683-0.205-9.387-0.779-13.129c-0.671-4.374-1.602-8.712-2.134-13.107c-0.413-3.409-1.17-8.268,1.626-10.91
	c0.636-0.601-1.877-2.048-2.433-1.522c-4.839,4.574-1.379,14.95-0.431,20.454c0.793,4.602,1.752,9.387,1.609,14.079
	c-0.093,3.068-1.77,5.379-2.574,8.324c-2.964,10.853-3.113,22.881-3.234,34.072C358.615,502.898,361.307,503.94,361.316,503.103
	L361.316,503.103z"/>
<path d="M473.604,429.445c3.077,8.745,5.659,17.696,7.872,26.695c1.801,7.323,3.372,14.754,4.145,22.264
	c0.61,5.923,1.033,12.405-1.146,18.069c-0.39,1.013,2.004,3.758,2.322,2.931c4.687-12.185,0.161-28.328-2.752-40.413
	c-2.322-9.63-5.086-19.21-8.376-28.559C475.301,429.389,472.784,427.115,473.604,429.445L473.604,429.445z"/>
<path d="M507.524,424.515c0.763,10.534,2.061,21.067,3.802,31.481c1.268,7.589,2.764,15.207,5.094,22.549
	c1.581,4.983,3.524,10.846,7.717,14.284c0.658,0.54,2.73-2.57,1.862-3.283c-4.283-3.512-6.181-9.797-7.74-14.89
	c-2.322-7.586-3.804-15.427-5.052-23.252c-1.552-9.727-2.746-19.548-3.458-29.374C509.656,420.76,507.454,423.54,507.524,424.515
	L507.524,424.515z"/>
<path d="M425.946,429.128c-0.444,24.222-0.889,48.444-1.333,72.667c-0.019,1.042,2.014,3.456,2.048,1.623
	c0.444-24.222,0.889-48.444,1.333-72.667C428.013,429.709,425.979,427.295,425.946,429.128L425.946,429.128z"/>
<path d="M310.998,413.022c-0.521,10.671-1.406,21.34-2.566,31.959c-0.894,8.184-1.952,16.373-3.567,24.45
	c-1.16,5.803-2.311,12.541-5.823,17.466c-0.398,0.557,1.471,1.96,1.856,1.42c3.287-4.609,4.474-10.852,5.616-16.274
	c1.723-8.183,2.816-16.502,3.742-24.808c1.224-10.977,2.146-22.01,2.686-33.044C312.975,413.495,311.029,412.38,310.998,413.022
	L310.998,413.022z"/>
<path d="M141.947,159.935c0.08,2.595,2.115,7.892,5.337,7.744c0.886-0.041,2.639-1.683,1.572-2.555
	c-0.666-0.544-1.484-0.778-2.143-1.353c-0.909-0.792-1.514-1.879-1.953-2.985c-0.425-1.072-0.673-2.419-0.289-3.539
	c0.444-1.298,2.008-1.494,3.077-2.07c0.261-0.141,0.622-0.731,0.197-0.919C144.296,152.731,141.859,157.109,141.947,159.935z"/>
<path d="M196.267,163.186c-0.755,0.97-2.034,1.129-2.468,2.393c-0.121,0.353-0.274,0.9,0.076,1.2
	c0.04,0.034,0.079,0.068,0.119,0.101c0.602,0.514,1.317,0.484,1.999,0.107c4.665-2.585,6.219-9.613,4.503-14.359
	c-0.14-0.388-0.543-0.537-0.924-0.516c-1.743,0.098-3.497,0.175-4.904,1.303c-0.382,0.307-0.351,0.911,0.2,0.928
	c1.172,0.037,3.332-0.415,3.515,1.101c0.165,1.369-0.056,2.743-0.344,4.077C197.746,160.883,197.119,162.094,196.267,163.186z"/>
<path d="M250.796,253.988c-3.002-6.695-6.553-13.147-10.016-19.611c-2.63-4.91-5.636-9.81-7.398-15.118
	c-1.193-3.592-3.907-9.143-7.464-8.468c-0.107-0.297-1.599-0.631-2.123-0.863c-1.424-0.63-2.864-1.225-4.304-1.815
	c-2.2-0.903-4.415-1.776-6.578-2.766c-4.13-1.89-8.534-3.219-12.787-4.801c-4.525-1.684-8.99-4.046-13.672-5.241
	c0.053-2.108-0.431-4.583-0.56-6.127c-0.233-2.79-0.423-5.712-0.947-8.501c3.173-3.277,5.511-7.459,6.663-11.962
	c1.274-4.979,1.404-10.78,0.283-16.267c0.126,0.004,0.261-0.011,0.41-0.07c5.971-2.342,12.349-12.596,5.121-16.969
	c-6.55-3.963-16.283-2.886-21.263-9.465c-0.397-0.524-1.366,0.276-1.139,0.814c2.595,6.17,10.252,7.768,15.942,9.789
	c2.181,0.775,5.365,1.774,6.271,4.148c1.314,3.441-4.172,7.14-5.765,9.947c-2.151-8.302-7.286-15.56-15.83-17.632
	c-2.319-0.562-4.567-0.412-6.848,0.199c-0.928,0.248-1.808,1.051-2.332,1.978c-10.654,2.93-15.691,15.646-16.457,26.664
	c-0.548,7.882,1.369,15.987,6.646,20.946c-0.646,4.574-0.776,9.235-1.45,13.816c-0.163,0.09-0.313,0.203-0.446,0.337
	c0.023-0.356-0.003-0.719-0.088-1.092c-0.493-2.176-3.57-0.617-4.342,0.351c0.698-0.876-0.455,0.547-0.629,0.757
	c0.32-0.387-0.51,0.375-0.563,0.412c-1.269,0.877-2.662,1.591-4.043,2.271c-3.785,1.865-7.737,3.401-11.657,4.952
	c-3.954,1.564-7.929,3.073-11.874,4.658c-1.379,0.555-2.918,1.152-4.339,1.913c0.54,0.322,3.24,10.694,3.748,13.075
	c-0.007,0.004,1.59,7.568,1.724,11.48c0.103,2.987-0.17,6.009-0.434,8.981c-0.193,2.154-0.835,4.346-0.391,6.479
	c0.298,1.428,1.243,1.768,2.333,1.529c-0.28,0.417-0.547,0.842-0.803,1.274c1.02,0.634,2.09,2.907,2.315,3.69
	c0.226,0.784,2.172,7.546,3.173,11.028c2.083,7.253,4.863,14.868,5.185,22.455c0.04,0.94,0.422,1.538,0.984,1.863
	c-0.338,0.505-0.467,1.054-0.144,1.438c-2.103,4.599-3.294,9.87-4.657,14.594c-0.016,0.055-0.031,0.109-0.047,0.164
	c0.036,0.732-0.152,1.517-0.65,2.316c-0.257,0.412-0.251,0.472-0.265,0.813c-0.015,0.36-0.156,1.223-0.248,1.796
	c-0.101,0.63-0.211,1.261-0.366,1.88c-0.265,1.062-0.678,2.287-1.335,3.296c-0.669,2.363-1.348,4.723-2.044,7.077
	c-0.551,0.956-0.755,1.883-0.783,3.26c-0.023,1.182,0.45,1.823,1.152,2.089c0.002,0.117,5.972,3.146,6.637,3.473
	c-0.104,0.187-0.184,0.382-0.221,0.581c-1.326,7.001-1.121,14.435-1.439,21.539c-0.331,7.405-0.627,14.81-0.898,22.218
	c-0.537,14.645-0.692,29.306-0.634,43.96c0.108,27.247,1.435,54.702,4.581,81.806c-0.289,0.438-0.498,0.909-0.589,1.375
	c-0.518,2.631,0.397,3.966,1.279,6.011c-0.406,8.022,18.367,4.108,22.996,3.39c2.703-0.419,5.165-2.586,5.149-5.473
	c-0.169-31.269-1.993-62.495-1.621-93.779c0.128-10.744-0.07-21.527,0.356-32.263c0.396-9.965,1.299-21.644,7.603-29.84
	c1.561-2.03-1.002-3.85-2.669-2.117c-15.068,15.664-11.376,41.35-12.133,61.184c-1.203,31.538-0.066,63.215-0.069,94.783
	c-1.774,0.219-3.553,0.406-5.338,0.539c-1.511,0.113-3.048,0.183-4.565,0.101c-4.334-28.81-6.323-57.655-7.115-86.776
	c-0.396-14.536-0.372-29.074-0.455-43.614c-0.042-7.305-0.039-14.611-0.023-21.916c0.014-6.581,0.591-13.529-0.144-20.119
	c1.426,0.452,2.879,0.829,4.305,1.178c6.737,1.65,13.801,1.916,20.708,2.081c9.149,0.218,18.039,0.937,27.196,0.02
	c8.403-0.841,16.889-2.81,24.828-5.742c-2.008,6.613-2.477,13.733-3.147,20.577c-0.702,7.169-1.228,14.345-1.585,21.54
	c-0.754,15.213-0.694,30.441-1.658,45.646c-0.985,15.539-2.585,31.031-3.701,46.56c-0.553,7.694-0.988,15.393-1.212,23.103
	c-0.073,2.523,0.137,5.023,0.276,7.541c0.058,1.047,0.141,2.143,0.05,3.191c-0.002,0.021-0.008,0.042-0.01,0.062
	c-0.236,0.236-0.446,0.492-0.619,0.763c-4.405,1.582-8.191,1.751-12.276,0.59c0.685-0.854,1.105-1.859,1.035-2.926
	c-0.011-2.89-0.538-5.827-0.586-8.743c-0.073-4.389,0.051-8.782,0.19-13.169c0.377-11.913,1.016-23.816,1.484-35.726
	c0.963-24.536,2.194-50.31-2.565-74.542c-1.467-7.471-4.745-21.561-14.549-22.023c-2.434-0.115-5.714,3.898-2.303,4.885
	c6.064,1.756,7.886,9.783,9.192,15.147c2.582,10.611,2.885,21.898,3.095,32.763c0.497,25.746-1.493,51.493-2.663,77.197
	c-0.249,5.465-0.469,10.935-0.497,16.406c-0.013,2.513,0.264,5.028,0.421,7.531c-0.159,0.74-0.243,1.471,0.038,2.206
	c0.022,0.057,0.039,0.096,0.059,0.147c0.004,0.233,0.011,0.467,0.011,0.7c-0.097,1.512,0.575,2.311,1.582,2.577
	c2.025,5.053,8.76,5.413,14.331,4.554c0.22,0.168,0.468,0.311,0.749,0.406c3.111,1.042,5.912-1.64,7.409-4.069
	c2.069-1.084,3.793-4.022,3.967-6.045c0.23-2.664-0.016-5.324-0.18-7.986c-0.227-3.682,0.05-7.398,0.205-11.079
	c0.705-16.871,2.154-33.7,3.182-50.552c1.019-16.692,1.031-33.293,1.03-50.003c0-8.28,0.191-16.564,0.541-24.835
	c0.111-2.638,0.351-5.285,0.607-7.935c3.509-0.276,6.885-3.198,8.984-5.712c1.99-2.383,2.71-5.037,3.006-7.886
	c0.339-0.202,0.635-0.427,0.841-0.67c7.867-9.264,12.546-20.751,16.289-32.178c3.92-11.966,6.885-24.376,8.953-36.763
	C254.947,262.017,252.296,257.334,250.796,253.988z M223.99,216.171c0.339,0.133,0.716,0.199,1.1,0.183
	c0.255-0.011,1.237,0.042,2.138-0.61c0.466,1.088,0.709,2.497,0.98,3.549c0.58,2.252,1.203,4.476,2.119,6.616
	c2.065,4.83,4.613,9.467,6.987,14.148c2.697,5.317,5.376,10.651,7.761,16.116c0.959,2.197,1.851,4.429,2.549,6.724
	c0.15,0.494,0.23,0.999,0.298,1.505c-0.147-0.048-0.295-0.095-0.441-0.143c-0.526-0.171-1.11-0.088-1.666,0.162
	c-3.214-0.161-6.201-0.659-9.524,0.1c-2.066,0.472-3.833,1.512-5.224,2.953c-0.947-2.005-2.016-3.885-2.552-5.23
	c-1.653-4.158-4.796-7.671-6.907-11.633c0.391-0.635,0.613-1.313,0.563-1.953c-0.077-0.977-0.35-1.975-0.834-2.762
	c-1.607-5.31-1.647-10.909-1.038-16.431C220.82,224.768,222.616,220.555,223.99,216.171z M154.72,164.529
	c-0.801-10.506,1.984-22.561,11.423-26.993c0.237,0.459,0.681,0.835,1.414,1.039c2.853,0.795,5.717,0.765,8.449,2.045
	c2.569,1.203,4.632,3.413,6.065,5.825c3.076,5.18,3.815,11.611,3.816,17.521c0.002,9.187-5.76,17.186-15.298,17.562
	C160.993,181.909,155.375,173.124,154.72,164.529z M182.94,188.273c-0.011,1.858-0.055,3.715-0.155,5.571
	c-0.081,1.51-0.699,2.853-0.765,4.308c-0.006,0.134,0.002,0.252,0.015,0.362c-0.423,0.032-0.846,0.159-1.128,0.299
	c-2.994,1.496-6.186,3.48-8.266,6.196c-0.866-1.066-2.026-1.447-3.41-1.438c-0.669,0.004-1.52,0.598-1.967,1.322
	c-0.438,0.154-0.855,0.37-1.207,0.591c-0.357,0.224-0.686,0.483-0.988,0.769c0.07-0.189,0.085-0.384,0.017-0.556
	c-0.684-1.703-1.738-2.993-3.053-4.253c-0.923-0.884-1.914-2.123-3.218-2.35c-0.136-0.023-0.279-0.025-0.422-0.016
	c0.045-0.239,0.053-0.472,0.008-0.687c-0.961-4.593,0.689-9.405,0.372-14.05c2.221,1.482,4.892,2.503,8.064,2.892
	c6.122,0.752,11.72-1.284,16.106-4.931C182.849,184.296,182.951,186.334,182.94,188.273z M173.498,206.836
	c2.104-1.303,4.065-2.645,6.247-3.729c0.156,1.342,0.298,2.685,0.378,4.036c0.059,0.993,0.097,2.015,0.009,3.007
	c-0.027,0.302-0.084,0.599-0.149,0.894c-0.466-0.092-0.955-0.135-1.4-0.237c-1.678-0.385-3.803-0.743-5.457-1.584
	c0.092-0.208,0.185-0.417,0.258-0.632C173.576,208.024,173.603,207.419,173.498,206.836z M168.547,209.754
	c-0.283,0.055-0.316,0.052-0.517,0.029c-0.653-0.078-1.167-0.577-1.406-1.182c-0.223-0.563,0.424-1.086,1.147-1.502
	c0.385,0.319,0.798,0.617,1.088,0.879c0.073,0.065,0.341,0.454,0.351,0.435c0.058,0.165,0.178,0.635,0.13,0.32
	c0.071,0.465,0.041,0.092-0.011,0.353c-0.011,0.056-0.024,0.092-0.03,0.109c-0.181,0.28-0.233,0.302-0.623,0.511
	C169.114,209.472,168.184,209.825,168.547,209.754z M158.684,203.313c0.569,0.43,1.175,0.977,1.486,1.209
	c1.132,0.845,2.275,1.667,3.435,2.475c0.242,0.168,0.536,0.134,0.801-0.005c-0.364,0.484-0.644,1.027-0.823,1.618
	c-0.422-0.197-0.935-0.227-1.4-0.036c-1.864,0.77-3.758,1.416-5.75,1.48C156.916,207.703,157.705,205.496,158.684,203.313z
	 M146.455,204.072c3.163-1.397,6.247-3.173,7.576-5.322c-0.023,0.77,0.21,1.405,0.834,2.166c0.268,0.327,0.573,0.498,0.888,0.551
	c-1.834,3.309-3.092,6.912-3.655,10.664c-0.119,0.788,0.187,1.673,1.095,1.792c3.231,0.425,6.186-0.335,9.203-1.45
	c0.577-0.213,1.135-0.607,1.524-1.114c0.852,1.342,2.632,2.138,4.237,1.895c1.526-0.231,2.829-1.045,3.799-2.167
	c0.825,0.882,1.794,1.611,2.842,2.297c1.555,1.017,4.279,2.925,5.961,1.195c0.073-0.076,0.148-0.159,0.221-0.248
	c5.863,0.136,3.139-11.883,2.482-14.973c0.931-0.202,2.026-0.952,2.351-1.514c0.165-0.284,0.287-0.612,0.379-0.968
	c2.099,1.918,4.756,3.269,7.415,4.442c-0.026,0.053-0.049,0.106-0.066,0.159c-2.119,6.629-3.258,13.614-5.383,20.29
	c-2.135,6.71-4.001,13.473-5.999,20.222c-1.855,6.264-4.5,12.256-6.249,18.543c-1.034,3.714-1.83,7.716-3.314,11.361
	c-1.277-2.913-2.499-6.214-3.728-8.954c-3.324-7.415-6.653-14.825-9.862-22.291c-3.112-7.239-6.124-14.526-8.844-21.924
	c-1.385-3.767-4.346-9.685-3.648-13.851C146.574,204.524,146.542,204.266,146.455,204.072z M191.356,332.94
	c-8.545,1.323-17.317,1.611-25.948,1.357c-11.808-0.347-23.302,0.407-34.197-4.123c0.043-0.403,0.085-0.804,0.103-1.207
	c0.001-0.024-0.005-0.042-0.005-0.065c0.103-0.217,0.187-0.437,0.227-0.658c1.122-6.116,2.536-12.165,3.944-18.221
	c0.204-0.875,0.437-1.776,0.681-2.692c6.084,0.961,12.628-0.174,16.755-5.119c1.686-2.021,3.41-6.918,1.311-9.125
	c-1.305-1.371-5.802-1.062-7.625-1.243c-2.146-0.213-4.346-0.419-6.522-0.368c0.767-0.903,1.166-2.059,0.764-3.308
	c-0.068-0.211-0.149-0.394-0.237-0.568c-2.578-6.027-4.429-12.439-6.686-18.592c-1.283-3.497-2.497-7.017-3.636-10.563
	c-0.86-2.68-1.456-5.541-2.417-8.215c0.332-0.418,0.569-0.831,0.658-1.189c0.499-2.007,0.015-4.454-0.023-6.511
	c-0.054-2.836-0.176-5.676-0.548-8.489c-0.441-3.344-1.448-6.574-2.509-9.761c-0.264-0.791-0.808-2.399-0.815-2.394
	c-0.782-2.283-2.778-8.102-2.831-8.207c0.931-0.397,1.842-0.789,2.712-1.117c4.614-1.739,9.249-3.42,13.841-5.217
	c1.124-0.44,3.087-1.079,5.272-1.912c-1.227,4.013,0.991,9.345,2.145,13.096c2.339,7.6,5.285,15.015,8.232,22.395
	c3.076,7.701,6.277,15.351,9.424,23.023c1.22,2.975,2.438,5.95,3.623,8.938c0.581,1.462,1.494,3.352,1.84,4.844
	c0.042,0.236,0.085,0.478,0.128,0.737c0.063,0.699,0.331,1.169,0.715,1.456c0.932,1.363,3.552,1.215,4.815-0.676
	c3.158-4.725,4.526-10.185,5.863-15.641c1.593-6.502,3.966-12.713,5.819-19.139c2.049-7.107,3.528-14.361,5.548-21.48
	c1.762-6.212,4.753-13.794,4.222-20.467c0.257,0.11,0.517,0.22,0.769,0.329c4.423,1.91,8.875,3.743,13.238,5.789
	c1.987,0.932,3.95,1.938,5.927,2.895c1.401,0.678,2.801,1.36,4.195,2.054c0.417,0.208,0.828,0.428,1.24,0.645
	c-3.376,4.389-4.877,10.736-6.042,15.831c-1.609,7.036-2.493,14.91-0.076,21.868c0.245,0.703,0.641,1.147,1.122,1.386
	c-2.216,5.267-3.275,11.367-4.658,16.684c-1.636,6.291-3.231,12.615-5.325,18.773c-0.917,0.615-1.638,1.539-1.857,2.555
	c-4.871-0.307-9.846,0.993-14.754,0.757c-2.223-0.106-4.093,1.45-4.228,3.71c-0.267,4.473,1.747,8.326,6.45,9.027
	c2.01,0.299,4.091-0.037,6.067-0.394c0.775-0.14,1.546-0.301,2.321-0.446c0.248-0.038,0.494-0.085,0.74-0.134
	c0.678,0.436,1.644,0.456,2.481-0.137c3.478-2.459,2.807-6.816-1.888-5.945c-2.126,0.394-4.196,0.915-6.364,1.05
	c-1.727,0.107-2.69-0.573-3.242-1.645c4.275-0.648,8.664-1.77,12.547-3.278c0.011,0.102,0.025,0.205,0.036,0.307
	c0.17,1.522,0.922,2.178,1.876,2.277c0.324,4.746,1.354,9.519,2.168,14.087c0.988,5.55,2.344,11.045,3.086,16.618
	C205.064,329.469,198.552,331.825,191.356,332.94z M137.657,301.372c0.502-2.032,0.924-4.078,1.132-6.081
	c3.52,0.544,7.119,0.751,10.636,1.35c-0.3,1.749-0.528,3.415-2.593,4.312C144.143,302.12,140.558,302.179,137.657,301.372z
	 M213.73,308.871c-1.443-4.568-2.655-9.299-3.639-14.032c0.769-0.663,1.375-1.472,1.596-2.248
	c2.063-7.233,3.664-14.585,5.193-21.945c0.789-3.799,1.571-7.6,2.337-11.404c0.208-1.03,0.462-2.076,0.709-3.129
	c1.012,2.382,2.319,4.656,3.079,6.333c1.139,2.515,1.743,5.371,2.606,8.001c0.437,1.329,0.704,3.986,1.441,5.652
	c-0.536,1.867-1.045,3.743-1.631,5.563c-1.527,4.752-3.617,9.331-5.632,13.89C217.815,300.019,215.716,304.417,213.73,308.871z
	 M218.464,342.182c-0.858,0.486-1.787,0.703-2.703,0.96c0.296-3.389,0.502-6.776,0.394-10.15c0.565-0.331,1.079-0.737,1.514-1.214
	c1.339,1.299,3.293,2.612,5.183,3.08c0.185,0.543,0.659,0.829,1.267,0.915C222.882,338.392,220.789,340.866,218.464,342.182z
	 M240.409,299.189c-3.567,10.7-8.074,20.928-14.714,30.012c-1.823-0.398-3.404-1.017-4.929-2.301
	c-0.802-0.675-1.459-1.403-2.055-2.168c-0.079-0.749-0.328-1.522-0.711-2.425c-0.917-2.162-1.513-4.489-2.154-6.785
	c0.193-0.147,0.378-0.304,0.537-0.486c1.566-1.771,2.312-4.358,3.136-6.529c1.55-4.082,3.381-8.026,5.065-12.061
	c2.361-5.656,5.593-12.625,6.641-19.358c0.315-0.23,0.598-0.502,0.826-0.798c1.267-1.637,0.922-3.99,0.045-6.393
	c3.796-2.166,9.144-2.203,12.894-0.083c1.694,0.957,3.726-0.438,4.498-2.068c0.426,0.125,0.909,0.117,1.371,0.005
	C246.514,277.901,243.904,288.704,240.409,299.189z"/>
<path d="M200.225,302.084c0,0.013,0.002,0.026,0.002,0.039C200.227,302.109,200.225,302.097,200.225,302.084z"/>
<path d="M144.037,528.57c-1.355-1.105-2.694-2.2-3.323-3.856c-0.732-1.927-0.299-4.324-2.014-5.73
	c-0.541-0.443-1.283-0.188-1.677,0.348c-0.026,0.07-0.052,0.141-0.079,0.21c-2.153,1.775-1.712,7.987-1.812,10.089
	c-0.213,4.43,4.438,7.621,8.419,8.143c8.316,1.091,17.531-7.483,14.955-15.985c-0.575-1.896-2.268-4.016-4.29-4.391
	c-2.49-0.462-5.099,1.436-5.72,3.79c-0.638,2.42,1.088,3.325,1.849,5.254c0.375,0.948-0.095,1.69-0.496,2.225
	c-0.366,0.441-0.4,0.481-0.1,0.119c-0.045,0.044-1.103,0.807-0.625,0.508c-0.69,0.442-0.585,0.323-1.49,0.563
	C146.748,530.089,145.018,529.37,144.037,528.57z"/>
<path d="M205.877,524.604c-5.998-0.597-12.46-1.432-18.098-3.739c-0.451-2.974-1.496-5.883-1.675-8.875
	c-0.048-0.802-1.123-0.366-1.329,0.108c-1.59,3.663-1.705,7.548-1.89,11.499c-0.026,0.554,0.368,1.149,0.848,1.397
	c7.2,3.711,15.682,4.739,23.64,5.493c6.087,0.577,15.466,1.855,20.519-2.49c4.5-3.869,1.252-8.068-2.499-10.769
	c-2.44-1.758-5.223-3.059-7.994-4.193c-2.802-1.147-6.464-2.941-9.469-1.763c-1.725,0.676-3.327,2.625-2.129,4.439
	c1.133,1.718,3.898,1.913,5.728,2.503c2.259,0.727,4.454,1.715,6.581,2.761c1.737,0.854,3.493,1.842,4.934,3.145
	c0.09,0.082,0.245,0.221,0.408,0.38c-0.009,0.003-0.015,0.005-0.024,0.008C217.982,526.097,211.421,525.155,205.877,524.604z"/>
<path d="M148.439,131.462c-2.63,2.357-2.734,6.568-2.805,9.879c-0.088,4.131,0.715,8.301,3.057,11.722
	c0.292,0.425,1.069-0.167,0.998-0.573c-0.57-3.271-0.917-6.639-1.029-9.958c-0.068-2.007,0.153-3.999,0.529-5.966
	c0.134-0.703,0.369-1.36,0.6-2.012c0.112-0.015,0.23-0.049,0.361-0.126c3.504-2.069,6.992-4.137,10.772-5.675
	c1.899-0.773,3.946-1.386,6.016-1.204c1.4,0.123,2.012,0.795,3.41,0.394c0.589-0.169,0.964-0.714,1.005-1.301
	c0.014-0.2,0.028-0.4,0.042-0.6c0.027-0.381-0.255-0.746-0.564-0.927c-6.184-3.648-15.452,3.264-20.462,7.396
	c0.034-0.215,0.06-0.433,0.069-0.657C150.486,130.72,148.966,130.989,148.439,131.462z"/>
<path d="M126.939,277.252c-3.86,0-10.098-0.869-15.411-2.671c-6.051-2.052-12.306-11.303-12.999-12.351l-0.186-0.352
	c-0.048-0.119-4.847-11.974-9.211-24.075c-9.217-25.56-7.633-27.253-6.476-28.49c0.51-0.545,0.562-0.983,0.55-1.303
	c-0.039-1.029-0.923-2.184-1.452-2.751c-4.75-1.766-14.843-6.007-15.78-10.457c-0.539-2.562-1.916-3.01-1.929-3.013l0.566-3.95
	c17.718,1.313,38.359,1.312,40.862-0.972c0.005-0.005,0.01-0.009,0.015-0.014l2.721,2.932c-0.005,0.005-0.011,0.01-0.016,0.015
	c-2.477,2.289-4.024,3.83-4.616,4.597c0.284,0.492,0.616,1.249,0.616,2.375v0.863l-0.628,0.592c-1.769,1.678-3.097,4.003-2.63,4.605
	c1.645,2.12,7.779,15.336,11.896,25.664c0.148-6.64,1.006-12.414,3.587-15.521l3.077,2.556c-3.253,3.916-2.732,17.023-2.537,21.958
	c0.143,3.586,0.196,4.929-1.724,5.197c-1.908,0.269-2.359-1.59-2.689-2.947c-1.878-7.722-13.028-32.209-14.771-34.454
	c-2.481-3.197,0.572-7.296,2.204-9.101c-0.881-1.38-0.831-2.487,0.283-4.028c-8.843,1.063-22.464,0.52-30.922,0.009
	c0.221,0.542,0.408,1.145,0.549,1.813c0.345,1.528,6.853,5.188,13.654,7.677l0.365,0.134l0.288,0.26
	c0.294,0.265,2.875,2.681,3.007,5.785c0.061,1.451-0.427,2.819-1.415,3.978c-0.589,3.822,7.683,27.378,16.186,48.375
	c1.785,2.651,6.888,9.267,10.838,10.607c5.243,1.778,11.802,2.63,15.114,2.432l0.242,3.992
	C127.794,277.24,127.382,277.252,126.939,277.252z M85.579,212.045C85.579,212.045,85.579,212.045,85.579,212.045
	C85.579,212.045,85.579,212.045,85.579,212.045z M85.818,211.662L85.818,211.662z"/>
<path fill="none" d="M101.636,219.236"/>
<path d="M105.761,269.914l-0.983-3.877c4.14-1.05,7.08-3.19,8.738-6.36c3.896-7.449-0.078-18.256-0.119-18.365l3.745-1.404
	c0.191,0.511,4.633,12.607-0.082,21.623C114.852,265.751,111.05,268.572,105.761,269.914z"/>
<path d="M114.452,140.032c-9.513-10.018-22.832-15.451-39.616-16.199c1.327-2.062,2.435-4.708,1.481-6.972
	c-0.944-2.24-3.482-3.376-7.542-3.376c-4,0-6.477,1.116-7.363,3.317c-0.952,2.365,0.381,5.11,1.928,7.249
	c-15.203,1.291-27.376,6.644-36.243,15.981c-16.723,17.609-15.625,42.782-15.57,43.844l0.098,1.897h118.299l0.098-1.897
	C130.076,182.813,131.175,157.641,114.452,140.032z M65.122,118.295c0.091-0.226,0.924-0.811,3.652-0.811
	c2.734,0,3.71,0.584,3.856,0.93c0.387,0.916-1.057,3.417-2.746,5.336l-1.562,0.029C66.33,121.685,64.796,119.106,65.122,118.295z
	 M15.51,181.773c0.103-6.06,1.5-25.333,14.51-39.012c8.884-9.34,21.478-14.367,37.469-14.966l3.294-0.061
	c17.555,0.002,31.263,5.057,40.745,15.027c13.009,13.678,14.407,32.952,14.51,39.012H15.51z"/>
<rect x="13.5" y="186.734" width="114.549" height="4"/>
</svg>
