<?xml version="1.0" encoding="utf-8"?>
<!-- Generator: Adobe Illustrator 23.0.1, SVG Export Plug-In . SVG Version: 6.00 Build 0)  -->
<svg version="1.1" xmlns="http://www.w3.org/2000/svg" xmlns:xlink="http://www.w3.org/1999/xlink" x="0px" y="0px"
	 viewBox="0 0 566.93 566.93" enable-background="new 0 0 566.93 566.93" xml:space="preserve">
<g id="Layer_4">
	<path d="M239.792,377.48c-0.825,7.625-6.867,14.279-13.388,17.662c-0.24,0.124,0.503,0.316,0.689,0.219
		c6.604-3.426,12.68-10.091,13.514-17.801C240.63,377.351,239.815,377.265,239.792,377.48L239.792,377.48z"/>
	<path d="M239.417,388.643c-2.235,3.426-3.79,6.638-7.565,8.669c-3.764,2.025-7.837,3.351-11.53,5.528
		c-0.161,0.095,0.145,0.637,0.302,0.544c4.015-2.367,8.566-3.673,12.536-6.095c3.224-1.967,4.614-5.097,6.609-8.156
		C239.869,388.981,239.523,388.481,239.417,388.643L239.417,388.643z"/>
</g>
<g id="Layer_7">
	<g>
		<g>
			<path d="M379.944,0.524c0.145,0-0.095-0.436-0.26-0.436C379.539,0.088,379.779,0.524,379.944,0.524L379.944,0.524z"/>
		</g>
	</g>
	<path d="M447.827,119.244c9.841,2.509,19.706,4.923,29.538,7.463c4.269,1.103,8.531,2.229,12.781,3.401
		c4.76,1.313,13.022,2.376,10.035,9.397c-1.911,4.493-8.929,5.077-13.039,6.253c-4.252,1.216-8.516,2.396-12.807,3.469
		c-9.824,2.456-19.755,4.292-29.862,5.023c-1.025,0.074,0.736,1.712,1.494,1.657c12.644-0.915,24.987-3.607,37.191-6.953
		c5.015-1.375,11.385-2.288,15.997-4.688c2.634-1.371,4.293-4.864,3.944-7.828c-0.243-2.063-1.997-3.999-3.78-5.011
		c-3.949-2.242-9.854-2.92-14.243-4.098c-12.546-3.366-25.174-6.416-37.76-9.625C445.746,117.305,446.965,119.025,447.827,119.244
		L447.827,119.244z"/>
	<path d="M445.671,124.037c6.183,0.931,11.707,3.509,17.84,4.475c3.881,0.612,19.623,2.766,15.583,9.712
		c-3.107,5.341-11.205,7.687-16.749,8.914c-5.869,1.3-11.865,1.898-17.701,3.364c-1.745,0.439,1.427,1.539,2.315,1.316
		c12.842-3.227,28.172-2.567,36.682-14.488c0.098-0.116,0.114-0.242,0.048-0.378c-2.948-5.849-8.585-7.925-14.707-9.033
		c-3.803-0.688-7.464-1.075-11.115-2.404c-3.91-1.424-7.906-2.281-12.016-2.9C443.816,122.309,443.626,123.729,445.671,124.037
		L445.671,124.037z"/>
	<path d="M384.261,299.3c13.277,12.313,27.534,24.078,39.518,37.689c10.714,12.168,17.442,26.63,16.122,43.123
		c-2.68,33.484-30.077,56.663-54.308,76.334c-1.101,0.894,2.262,1.455,3.053,0.812c24.469-19.863,52.095-43.317,54.799-77.114
		c1.33-16.618-5.432-31.262-16.245-43.538c-12.102-13.74-26.468-25.633-39.871-38.063
		C386.595,297.863,383.192,298.309,384.261,299.3L384.261,299.3z"/>
	<path d="M561.829,136.005c-2.184-9.461-14.506-12.804-22.421-15.855c-25.817-9.954-53.51-13.486-79.938-21.385
		c-0.188-0.056-0.375-0.007-0.554,0.115c-26.424-6.437-80.161-17.389-80.404-16.974c-2.833-0.944-5.51-2.217-7.93-4.022
		c-1.204-0.898-2.343-1.904-3.383-2.987c-0.436-0.454-1.234-1.117-1.488-1.698c-0.922-2.112,0.588-4.802,2.277-6.305
		c5.574-4.955,13.709-7.253,20.613-9.645c13.398-4.642,27.105-8.394,40.288-13.652c6.232-2.486,12.32-5.324,18.134-8.678
		c4.115-2.374,9.213-5.139,11.041-9.843c4.883-12.564-16.28-18.794-24.624-20.946c-16.662-4.296-34.42-4.883-51.523-5.784
		c-1.392-0.073-4.085,3.205-2.097,3.31c15.77,0.831,32.014,1.46,47.479,4.87c6.936,1.529,14.01,3.72,20.165,7.342
		c3.386,1.992,7.346,4.9,7.522,9.243c0.206,5.073-5.42,7.701-9.236,9.859c-13.388,7.57-28.211,12.118-42.786,16.778
		c-11.555,3.695-25.325,6.77-35.064,14.355c-2.717,2.116-7.994,6.512-6.525,10.469c2.027,5.461,10.533,9.419,15.603,10.922
		c0.238,0.071,54.555,12.219,80.935,18.629c0.103,0.125,0.221,0.226,0.374,0.272c23.066,6.895,46.998,10.483,69.927,17.862
		c5.332,1.716,10.601,3.638,15.745,5.859c5.355,2.312,13.14,4.733,15.231,10.797c4.626,13.42-16.428,19.83-25.564,22.347
		c-11.673,3.216-23.707,4.774-35.515,7.384c-11.977,2.648-23.521,6.891-35.515,9.478c-23.656,5.101-48.739,5.287-71.705,13.355
		c-9.586,3.368-19.629,9.212-23.756,19c-3.162,7.5,0.762,26.521,1.066,27.399c5.387,15.559,15.439,28.357,26.89,39.948
		c13.466,13.632,27.947,26.329,41.984,39.366c12.664,11.762,28.305,23.763,34.841,40.325c6.515,16.51,0.378,35.497-8.639,49.812
		c-10.723,17.021-26.821,29.903-42.253,42.433c-0.211,0.172-191.253,104.917-297.249,127.336
		c-30.301,6.409-60.94,11.069-91.77,14.01c-2.38,0.227-2.478,1.474-0.965,3.011c1.696,1.722,5.624,2.788,7.998,2.562
		c109.137-10.412,215.809-42.437,312.683-93.771c24.37-12.914,72.417-41.783,73.122-42.356
		c27.93-22.678,58.556-50.349,55.621-89.884c-1.346-18.125-10.893-32.963-23.294-45.659c-14.52-14.866-30.372-28.563-45.595-42.702
		c-15.114-14.038-31.711-28.571-38.654-48.624c-0.465-1.342-2.376-13.657-1.753-18.183c0.917-6.667,3.866-10.863,9.323-14.034
		c9.558-5.554,20.868-7.82,31.617-9.777c12.911-2.351,25.972-3.741,38.909-5.925c12.574-2.123,24.571-5.709,36.824-9.133
		c11.987-3.349,24.305-5.042,36.448-7.681c10.317-2.242,22.198-4.874,30.338-12.061
		C560.337,151.846,563.579,143.583,561.829,136.005z"/>
	<g>
		<path d="M289.852,51.661c13.772-7.699,31.679-6.819,46.931-8.207c16.667-1.517,33.19-4.258,49.664-7.156
			c7.172-1.262,24.388-2.193,25.332-12.39c1.43-15.438-21.759-18.169-31.338-22.966c-0.891-0.446-3.262,1.989-2.207,2.517
			c6.174,3.092,13.067,4.254,19.261,7.254c2.969,1.438,5.745,3.288,7.93,5.782c3.777,4.31,5.282,10.263-0.872,13.567
			c-3.43,1.841-7.775,2.158-11.55,2.828c-4.201,0.745-8.402,1.487-12.607,2.207c-8.085,1.383-16.184,2.689-24.312,3.791
			c-16.118,2.185-32.616,2.157-48.606,5.113c-10.753,1.988-22.059,5.854-28.218,15.541c-6.237,9.809-5.201,21.41,0.029,31.059
			c-0.004,0.002-0.009,0.003-0.013,0.004c1.723,2.853,4.907,6.658,5.284,6.496c8.203,5.085,17.324,8.118,26.806,10.37
			c13.386,3.179,26.834,6.063,40.184,9.405c14.109,3.532,28.155,7.314,42.13,11.343c2.68,0.773,7.894,1.038,6.578,4.95
			c-0.711,2.112-3.759,3.246-5.692,3.935c-7.082,2.524-14.814,3.981-22.137,5.632c-53.052,11.957-107.807,14.956-160.391,29.179
			c-11.841,3.203-25.354,5.535-33.451,15.555c-4.082,5.052-8.985,18.446-9.254,19.326c-7.571,24.812,8.536,46.768,21.311,66.498
			c6.527,10.081,12.953,21.025,11.932,33.515c-1.209,14.798-12.537,23.28-25.492,28.172c-12.531,4.731-25.663,8.153-38.532,11.815
			c-4.215,1.199,2.036,14.137,7.285,12.644c12.41-3.531,24.963-6.944,37.118-11.299c11.945-4.28,22.771-11.185,27.182-23.656
			c9.212-26.041-10.596-49.763-23.334-70.423c-7.396-11.995-11.259-33.945-10.177-38.882s5.298-15.838,9.181-21.41
			c7.521-10.791,20.887-13.123,32.842-16.357c27.426-7.418,55.549-11.778,83.614-15.96c28.121-4.191,56.33-8.197,83.989-14.905
			c5.375-1.303,26.61-3.657,22.665-13.597c-1.551-3.909-6.546-6.21-10.213-7.53c-6.811-2.451-13.996-4.116-20.972-6.045
			c-16.199-4.479-32.49-8.625-48.859-12.436c-14.242-3.316-38.56-7.066-44.685-14.892C275.4,79.166,274.326,60.341,289.852,51.661z"
			/>
		<path d="M67.243,365.438c-58.281,4.889-116.756,7.764-175.247,7.964c-2.534,0.009-5.374,2.205-6.894,4.079
			c-0.923,1.139-2.397,3.807,0.218,3.798c58.491-0.2,116.966-3.075,175.247-7.964c2.606-0.219,5.282-2.091,6.894-4.079
			C68.269,368.24,69.923,365.213,67.243,365.438z"/>
	</g>
	<path d="M325.465,173.902c-19.428,2.866-39.319,7.686-57.511,15.017c-12.487,5.032-18.071,17.759-20.705,30.224
		c-0.097,0.445-0.16,0.668-0.218,0.857c-12.823,41.789,46.807,68.013,30.619,109.345c-0.293,0.747,1.777,2.42,2.125,1.533
		c16.305-41.63-43.938-68.491-31.181-110.065c0.066-0.215,0.273-0.937,0.299-1.07c1.318-6.787,3.372-13.611,7.389-19.328
		c4.368-6.214,11.27-9.305,18.273-11.609c16.164-5.321,33.067-9.481,49.897-11.963C325.516,176.685,326.533,173.745,325.465,173.902
		z"/>
</g>
<g id="Layer_3">
	<path d="M59.73,379.981c3.609-3.961,7.514-7.595,11.833-10.776c4.101-3.02,7.649-5.456,10.531-9.74
		c5.633-8.37,15.468-9.605,24.743-10.926c2.514-0.358,5.06-0.812,7.593-0.99c4.151-0.291,6.452,1.423,9.894,3.482
		c1.798,1.076,3.68,2.016,5.681,2.648c1.766,0.558,4.309,0.349,5.554,1.689c1.19,1.282,1.708,4.039,2.857,5.554
		c1.375,1.813,3.125,3.298,4.573,5.049c3.678,4.447,5.795,9.803,6.739,15.46c0.28,1.677,1.643,3.5,3.122,4.337
		c0.76,0.431,2.924,1.332,2.62-0.493c-0.895-5.364-2.629-10.45-5.415-15.137c-3.052-5.133-7.344-9.015-9.922-14.39
		c-2.078-4.334-5.364-6.302-9.865-7.371c-4.253-1.01-7.035-2.786-10.727-5.032c-2.095-1.275-4.059-2.02-6.559-2.09
		c-5.708-0.159-11.846,1.194-17.452,2.213c-5.032,0.915-10.293,2.303-14.415,5.481c-4.312,3.325-6.299,8.462-10.811,11.727
		c-5.712,4.134-11.011,8.312-15.781,13.547C52.867,376.04,58.237,381.618,59.73,379.981L59.73,379.981z"/>
	<path d="M85.315,386.948c4.889-8.026,12.936-10.618,21.877-11.209c4.485-0.297,7.969-0.333,11.906,2.328
		c3.319,2.243,5.634,5.373,7.246,9c0.918,2.066,2.601-3.848,1.877-5.476c-1.834-4.128-4.612-7.697-8.47-10.119
		c-4.357-2.735-8.718-2.53-13.695-2.098c-9.469,0.822-17.182,4.555-22.209,12.809C82.943,383.666,83.527,389.883,85.315,386.948
		L85.315,386.948z"/>
	<path d="M84.481,388.97c3.571,2.58,9.349,1.751,13.468,1.464c1.131-0.079,1.256-3.739,0.34-3.675
		c-3.885,0.271-9.721,1.14-13.093-1.297C84.363,384.861,83.608,388.339,84.481,388.97L84.481,388.97z"/>
	<path d="M67.61,405.898c2.882-2.684,5.913-5.21,9.214-7.368c3.923-2.564,7.467-3.073,11.986-3.7
		c3.636-0.504,7.344-1.396,10.643-2.995c2.683-1.3,2.88-1.362,5.932-0.85c2.183,0.366,4.36,0.773,6.539,1.16
		c2.422,0.43-0.855-4.988-2.571-5.293c-3.161-0.562-7.603-2.221-10.842-1.784c-1.576,0.212-2.503,1.319-3.909,1.994
		c-2.69,1.292-6.331,1.926-9.259,2.332c-3.929,0.545-7.234,0.73-10.747,2.744c-4.06,2.328-7.719,5.384-11.132,8.562
		C62.071,401.998,66.346,407.075,67.61,405.898L67.61,405.898z"/>
	<path d="M96.816,407.257c2.753-7.546,11.1-12.736,18-16.114c4.183-2.048,9.171-3.65,13.885-3.388
		c3.392,0.188,6.293,3.787,9.153,5.522c4.894,2.968,7.885,1.827,13.351,1.204c11.253-1.284,19.669,6.833,25.019,15.783
		c0.675,1.129,4.642,1.355,4.123,0.487c-4.432-7.413-10.407-13.801-18.706-16.772c-3.677-1.316-7.604-1.886-11.498-1.572
		c-2.374,0.192-4.908,1.179-7.257,0.929c-2.799-0.298-6.003-3.465-8.195-5.221c-5.544-4.439-14.744-2.272-20.835,0.22
		c-8.103,3.316-18.069,9.357-21.202,17.943C92.26,407.352,96.355,408.519,96.816,407.257L96.816,407.257z"/>
	<path d="M94.567,408.018c4.022,5.081,14.109,4.578,19.865,5.234c4.007,0.457,8.149,1.123,12.192,0.851
		c4.92-0.33,9.602-1.594,14.592-1.661c2.948-0.039,1.038-2.21-1.002-2.183c-6.79,0.091-13.387,2.036-20.143,1.395
		c-3.349-0.318-6.693-0.698-10.03-1.127c-3.428-0.441-9.257-0.331-11.626-3.323C97.565,406.131,93.322,406.446,94.567,408.018
		L94.567,408.018z"/>
	<path d="M151.967,410.532c8.845,3.638,18.44,4.121,27.489,0.894c2.702-0.963-2.098-2.674-3.501-2.174
		c-7.009,2.5-14.068,2.595-21.014-0.263C153.347,408.335,148.769,409.217,151.967,410.532L151.967,410.532z"/>
	<path d="M139.51,565.826c3.617-7.098,13.337-13.865,21.476-11.721c1.911,0.503,4.307,1.473,5.982,2.679
		c2.261,1.627,3.034,4.033,4.605,6.117c0.537,0.712,0.942,1.427,1.691,1.969c1.302,0.944,2.872,0.555,4.179,1.4
		c0.655,0.423,1.043-2.204,0.351-2.651c-1.665-1.076-3.382-0.708-4.893-2.243c-1.425-1.447-1.855-3.576-3.147-5.141
		c-2.61-3.163-7.952-5.299-12.029-5.412c-7.498-0.209-15.707,6.635-18.971,13.04C138.424,564.508,138.853,567.114,139.51,565.826
		L139.51,565.826z"/>
	<path d="M167.781,555.178c2.904-3.884,13.026-2.381,16.404-0.017c4.043,2.829,7.808,7.499,10.669,11.451
		c0.771,1.065,1.479-2.359,0.924-3.125c-1.784-2.464-3.718-4.764-5.849-6.938c-1.928-1.968-4.167-4.883-6.684-6.029
		c-4.095-1.863-12.918-2.576-15.914,1.431C166.774,552.696,167.04,556.169,167.781,555.178L167.781,555.178z"/>
	<path d="M104.959,427.899c2.069-2.233,4.237-4.547,7.111-5.717c2.995-1.219,6.439-1.092,9.62-1.285
		c3.124-0.189,6.399-0.65,9.527-0.395c4.729,0.386,7.044,3.163,8.809,7.387c1.068,2.556,1.699,0.063,1.045-1.5
		c-2.792-6.682-6.33-9.956-13.821-9.735c-4.561,0.135-9.623,0.073-14.099,0.983c-4.187,0.851-7.051,3.673-9.85,6.694
		C102.545,425.147,104.197,428.721,104.959,427.899L104.959,427.899z"/>
	<path d="M150.317,372.108c3.185-3.326,6.713-6.193,10.429-8.9c4.656-3.391,9.272-7.181,15.163-7.972
		c4.627-0.621,9.527-0.227,13.956,1.243c3.955,1.312,7.233,3.829,11.031,5.458c2.88,1.235,5.589,1.59,8.692,1.721
		c5.175,0.22,7.872,0.358,10.646,4.951c3.087,5.11,5.347,14.511,12.049,15.989c1.256,0.277,4.818-2.103,3.071-2.488
		c-9.058-1.997-7.637-17.21-16.161-20.294c-4.304-1.557-9.108-0.192-13.487-1.671c-4.494-1.518-8.234-4.663-12.769-6.154
		c-17.884-5.878-34.171,5.668-46.058,18.083C145.248,373.777,149.437,373.027,150.317,372.108L150.317,372.108z"/>
	<path d="M192.797,246.521c2.377-4.024,4.812-7.417,9.381-8.986c3.992-1.37,9.05-1.7,13.207-1.593
		c10.068,0.259,14.428,8.183,17.963,16.552c0.347,0.822,1.198-1.307,0.94-1.92c-3.96-9.376-8.809-17.234-20.021-16.96
		c-4.359,0.106-9.427,0.399-13.444,2.171c-3.951,1.743-6.23,5.337-8.347,8.922C192.161,245.24,192.174,247.576,192.797,246.521
		L192.797,246.521z"/>
	<path d="M178.047,246.812c1.973-3.549,8.365-3.503,11.839-2.769c4.157,0.878,5.32,4.386,6.112,8.115
		c0.197,0.925,1.446-0.828,1.3-1.517c-1.042-4.904-2.907-8.531-8.358-8.902c-4.303-0.292-9.324-0.063-11.635,4.093
		C176.804,246.734,177.318,248.124,178.047,246.812L178.047,246.812z"/>
	<path d="M291.766,91.618c3.36-5.643,8.409-7.144,14.811-6.795c6.204,0.338,8.908,5.384,11.109,10.557
		c0.087,0.206,0.3-0.327,0.235-0.48c-2.535-5.958-5.53-10.781-12.597-10.657c-6.323,0.111-10.381,1.453-13.638,6.922
		C291.607,91.298,291.609,91.882,291.766,91.618L291.766,91.618z"/>
	<path d="M282.345,91.963c1.34-2.41,5.404-2.457,7.784-1.958c2.687,0.563,3.462,2.828,3.974,5.24
		c0.049,0.231,0.362-0.207,0.325-0.379c-0.646-3.039-1.773-5.3-5.159-5.53c-2.563-0.174-5.719-0.118-7.11,2.382
		C282.035,91.943,282.163,92.291,282.345,91.963L282.345,91.963z"/>
	<path d="M314.577,411.994c1.332-2.855,7.766-3.62,9.807-2.903c2.218,0.779,3.668,2.159,4.435,4.394
		c0.487,1.418,4.81,0.336,4.378-0.923c-1.603-4.671-6.308-6.369-10.925-5.99c-3.878,0.318-10.221,1.911-12.028,5.785
		C309.682,413.561,313.964,413.308,314.577,411.994L314.577,411.994z"/>
	<path d="M338.815,410.462c2.915-4.491,9.432-6.514,14.583-6.26c4.621,0.227,7.658,4.377,9.432,8.263
		c0.966,2.117,5.107-3.037,4.135-5.167c-3.278-7.181-8.326-10.047-16.005-8.669c-6.457,1.159-11.52,4.605-15.076,10.086
		C333.656,412.147,336.598,413.878,338.815,410.462L338.815,410.462z"/>
	<path d="M359.432,401.927c4.179-0.377,9.082-0.906,13.169,0.213c4.217,1.154,5.909,4.952,7.256,8.771
		c0.689,1.955,7.745,1.295,6.867-1.195c-1.607-4.558-3.884-8.786-8.766-10.176c-5.875-1.673-12.67-1.402-18.682-0.859
		C355.073,399.06,355.121,402.316,359.432,401.927L359.432,401.927z"/>
	<path d="M298.386,259.89c1.714-1.745,2.958-4.03,5.153-5.212c2.695-1.452,6.49-1.872,9.508-1.792
		c3.415,0.09,5.603,2.423,8.212,4.284c1.931,1.377,4.195,1.922,6.035,3.504c0.794,0.683,0.139-1.219-0.255-1.558
		c-1.078-0.927-2.109-1.42-3.352-2.117c-1.918-1.075-3.488-2.628-5.272-3.818c-1.528-1.02-2.792-1.745-4.671-2.022
		c-2.808-0.414-5.972,0.085-8.723,0.827c-3.968,1.07-4.927,3.298-7.7,6.12C296.859,258.576,298.06,260.221,298.386,259.89
		L298.386,259.89z"/>
	<path d="M289.06,99.616c1.048-1.067,1.835-2.423,3.125-3.204c1.503-0.909,3.899-1.285,5.645-1.249
		c2.252,0.047,7.637,3.294,9.691,4.992c0.203,0.168,0.037-0.306-0.064-0.39c-1.671-1.382-3.725-2.654-5.523-3.815
		c-1.049-0.677-1.942-1.094-3.2-1.23c-1.715-0.185-3.741,0.146-5.4,0.663c-2.334,0.727-2.89,2.105-4.541,3.785
		C288.678,99.288,288.979,99.699,289.06,99.616L289.06,99.616z"/>
	<path d="M357.247,58.721c2.243-3.733,6.06-5.112,10.399-4.516c3.938,0.54,5.564,3.681,6.998,7.053
		c0.087,0.206,0.3-0.327,0.235-0.48c-1.609-3.782-3.52-7.099-8.032-7.194c-4.354-0.092-7.415,0.914-9.68,4.684
		C357.087,58.4,357.089,58.984,357.247,58.721L357.247,58.721z"/>
	<path d="M350.923,58.919c0.883-1.588,3.614-1.603,5.179-1.275c1.797,0.378,2.31,1.893,2.653,3.506
		c0.049,0.231,0.362-0.207,0.325-0.379c-0.438-2.06-1.208-3.59-3.501-3.746c-1.76-0.12-3.889-0.063-4.841,1.648
		C350.612,58.899,350.741,59.247,350.923,58.919L350.923,58.919z"/>
	<path d="M355.456,64.104c0.706-0.718,1.235-1.631,2.104-2.157c1.009-0.611,2.618-0.863,3.791-0.839
		c1.523,0.032,5.119,2.207,6.5,3.35c0.203,0.168,0.037-0.306-0.064-0.39c-1.122-0.928-2.499-1.771-3.705-2.556
		c-0.717-0.466-1.328-0.758-2.191-0.851c-1.157-0.124-2.525,0.099-3.644,0.448c-1.57,0.49-1.947,1.418-3.057,2.548
		C355.075,63.775,355.375,64.187,355.456,64.104L355.456,64.104z"/>
	<path d="M181.96,194.58c3.011-2.621,6.187-5.076,9.649-7.079c5.038-2.915,9.6-3.179,15.162-1.91
		c8.979,2.048,16.655,7.463,22.166,14.748c0.453,0.599,3.141,1.011,2.514,0.182c-5.888-7.783-14.141-13.371-23.604-15.838
		c-3.985-1.039-8.624-1.883-12.715-0.938c-5.884,1.359-11.268,5.873-15.703,9.733C178.839,193.993,181.327,195.13,181.96,194.58
		L181.96,194.58z"/>
	<path d="M206.464,184.729c3.913-0.608,6.83-3.371,10.887-3.692c5.237-0.414,10.092,1.999,14.161,5.064
		c4.037,3.04,6.651,6.708,9.721,10.596c1.142,1.446,2.142,2.789,4.155,2.451c1.071-0.18-0.495-3.32-1.434-3.162
		c-2.421,0.406-6.122-6.512-7.872-8.223c-2.588-2.53-5.443-4.904-8.566-6.744c-3.275-1.93-6.963-3.243-10.805-3.16
		c-4.406,0.095-7.498,3.057-11.681,3.707C203.965,181.733,205.517,184.876,206.464,184.729L206.464,184.729z"/>
	<path d="M363.107,175.321c1.436-1.55,3.169-2.356,5.313-2.295c1.546,0.044,3.061,0.369,4.211,1.485
		c0.588,0.57,0.954,1.263,1.549,1.822c0.984,0.924,0.6-0.828,0.115-1.283c-1.745-1.639-2.509-3.192-5.051-3.678
		c-2.763-0.527-5.236,0.04-7.178,2.136C361.597,174.016,362.789,175.664,363.107,175.321L363.107,175.321z"/>
	<path d="M371.764,192.678c1.423-2.685,2.944-5.142,6.185-5.658c1.67-0.266,4.813-0.261,5.989,0.852
		c1.278,1.21,1.452,3.041,1.618,4.675c0.078,0.77,2.457,0.959,2.406,0.454c-0.472-4.633-2.835-6.856-7.489-7.114
		c-5.462-0.303-8.562,1.519-11.114,6.337C369.128,192.658,371.397,193.372,371.764,192.678L371.764,192.678z"/>
	<path d="M391.304,187.678c1.221-3.039,6.058-2.876,8.504-2.086c1.938,0.626,2.923,2.021,3.88,3.736
		c0.405,0.727,3.043-0.587,2.674-1.249c-2.307-4.137-5.737-4.835-10.276-4.418c-3.286,0.302-6.212,1.779-7.486,4.951
		C388.392,189.131,390.972,188.506,391.304,187.678L391.304,187.678z"/>
	<path d="M375.086,175.993c4.483-5.092,12.966-6.471,19.395-6.627c3.732-0.091,6.069,1.29,9.312,2.799
		c2.546,1.185,7.801,1.443,7.756,5.168c-0.009,0.771,1.694,3.025,1.705,2.038c0.091-7.52-7.585-9.05-13.245-11.591
		c-7.44-3.339-21.212-0.248-26.519,5.78C372.966,174.154,374.476,176.686,375.086,175.993L375.086,175.993z"/>
	<path d="M395.793,183.872c1.643-2.044,3.673-3.86,5.903-5.263c4.265-2.683,8.492-2.107,13.128-1.102
		c4.966,1.076,9.738,4.615,13.165,8.381c0.66,0.725,3.605-0.189,2.941-0.919c-5.485-6.029-12.012-9.092-20.061-9.757
		c-7.28-0.602-13.35,2.809-17.896,8.465C392.168,184.676,395.221,184.584,395.793,183.872L395.793,183.872z"/>
	<path d="M336.162,220.204c4.251-5.085,9.237-5.384,15.454-4.953c5.608,0.389,11.009,2.169,14.23,7.052
		c0.539,0.817,1.154-1.528,0.767-2.115c-3.363-5.099-8.803-7.053-14.723-7.454c-6.832-0.463-11.514-0.155-16.022,5.238
		C335.429,218.501,335.562,220.922,336.162,220.204L336.162,220.204z"/>
	<path d="M404.644,147.94c2.092-6.226,6.455-11.419,12.413-14.295c2.465-1.19,6.574-2.767,9.351-2.181
		c5.346,1.127,10.203,7.826,12.963,12.026c0.244,0.371,1.878,1.293,1.361,0.506c-3.823-5.82-9.698-14.53-17.596-13.809
		c-9.393,0.858-17.107,7.979-20.033,16.691C402.948,147.337,404.468,148.462,404.644,147.94L404.644,147.94z"/>
	<path d="M339.189,281.469c4.05-1.496,7.899-3.356,11.496-5.754c1.967-1.311,3.775-2.804,5.622-4.274
		c3.995-3.178,9.706-4.501,14.727-3.524c5.69,1.107,11.328,2.941,16.718,5.062c5.083,2.001,11.709,4.122,15.038,8.639
		c0.416,0.565,2.717-0.216,2.225-0.883c-3.552-4.82-10.804-7.073-16.171-9.135c-6.2-2.382-13.088-4.8-19.761-5.383
		c-3.949-0.345-7.669,0.293-11.086,2.359c-2.577,1.558-4.745,3.688-7.163,5.464c-3.865,2.84-8.048,4.963-12.538,6.621
		C336.725,281.24,338.172,281.845,339.189,281.469L339.189,281.469z"/>
	<path d="M507.487,143.973c3.375-9.686,11.766-18.223,22.397-18.335c5.702-0.06,11.937,0.718,17.256,2.796
		c7.188,2.809,10.003,8.052,11.176,15.327c0.148,0.919,2.834,1.819,2.692,0.937c-0.944-5.856-2.56-10.67-7.469-14.318
		c-5.039-3.745-11.377-5.189-17.491-5.945c-5.944-0.735-12.511-1.262-17.954,1.757c-5.894,3.269-11.07,10.264-13.238,16.485
		C504.535,143.597,507.203,144.789,507.487,143.973L507.487,143.973z"/>
	<path d="M540.468,144.823c1.139-3.268,4.622-3.96,7.724-3.901c1.535,0.029,2.924,0.06,4.009,1.211
		c0.815,0.864,1.393,2.221,2.025,3.228c0.372,0.593,2.755,0.786,2.2-0.099c-0.979-1.561-1.907-4-3.644-4.828
		c-1.557-0.742-3.812-0.683-5.465-0.723c-3.618-0.088-7.926,0.759-9.264,4.602C537.82,144.98,540.198,145.598,540.468,144.823
		L540.468,144.823z"/>
	<path d="M411.256,129.074c3.51-6.86,17.836-7.778,20.999-0.089c0.314,0.763,1.221-0.859,0.998-1.401
		c-3.639-8.849-18.727-6.954-22.649,0.711C410.202,129.079,410.663,130.231,411.256,129.074L411.256,129.074z"/>
	<path d="M398.458,123.753c2.594-1.835,4.013-4.292,6.124-6.599c2.976-3.252,7.915-3.4,12.209-4.032
		c3.728-0.549,3.34,2.575,5.818,3.29c1.032,0.298,2.352-0.301,3.345-0.385c3.655-0.308,4.887-0.795,6.111,2.26
		c0.798,1.991,1.393,3.923,2.406,5.839c0.251,0.475,1.239-0.55,1.019-0.966c-1.736-3.285-1.294-8.061-5.403-8.453
		c-0.911-0.087-1.841-0.034-2.75,0.049c-2.795,0.255-2.169,0.756-5.059-1.397c-1.419-1.056-1.498-1.592-3.574-1.63
		c-2.396-0.044-4.721,1.183-7.185,1.205c-1.116,0.01-2.46-0.484-3.54-0.09c-3.901,1.426-6.244,7.632-9.537,9.961
		C398.019,123.103,397.692,124.294,398.458,123.753L398.458,123.753z"/>
	<path d="M316.692,340.204c6.958-15.103,24.549-18.63,39.646-19.474c4.28-0.239,8.357,0.151,11.523,3.41
		c2.204,2.269,3.693,5.179,5.68,7.633c3.656,4.518,8.108,8.207,13.078,11.195c0.976,0.587,4.235-1.701,3.309-2.258
		c-3.95-2.375-7.579-5.167-10.72-8.558c-2.868-3.098-4.817-6.946-7.714-9.982c-5.651-5.923-15.151-3.836-22.366-2.798
		c-14.272,2.054-29.522,7.922-35.94,21.854C312.587,342.528,316.246,341.173,316.692,340.204L316.692,340.204z"/>
	<path d="M298.298,261.072c7.884,0.366,15.744,0.652,23.619-0.03c0.605-0.052,0.812-1.796,0.398-1.76
		c-7.874,0.682-15.736,0.396-23.619,0.03C298.114,259.285,297.824,261.05,298.298,261.072L298.298,261.072z"/>
	<path d="M322.391,260.806c1.727,0.04,3.45,0.005,5.174-0.1c0.291-0.018-0.461-0.982-0.873-0.957
		c-1.662,0.101-3.323,0.131-4.987,0.092C321.198,259.83,322.029,260.798,322.391,260.806L322.391,260.806z"/>
	<path d="M304.757,262.161c6.836,0.067,13.669,0.01,20.503-0.17c0.267-0.007-0.29-0.86-0.629-0.851
		c-6.834,0.181-13.667,0.237-20.503,0.17C303.872,261.307,304.417,262.157,304.757,262.161L304.757,262.161z"/>
	<path d="M307.579,263.543c5.068-0.543,10.17-0.179,15.242-0.666c0.386-0.037,0.09-1.386-0.385-1.341
		c-5.072,0.486-10.174,0.123-15.242,0.666C306.806,262.244,307.106,263.594,307.579,263.543L307.579,263.543z"/>
	<path d="M303.789,264.955c5.792-0.114,11.681-0.232,17.471-0.182c0.654,0.006,0.825-1.908,0.237-1.913
		c-5.79-0.05-11.679,0.069-17.471,0.182C303.366,263.055,303.212,264.966,303.789,264.955L303.789,264.955z"/>
	<path d="M310.976,265.848c1.515-0.13,3.028-0.165,4.547-0.106c0.594,0.023,1.708-1.477,0.835-1.511
		c-1.519-0.06-3.033-0.024-4.547,0.106C311.22,264.388,310.142,265.92,310.976,265.848L310.976,265.848z"/>
	<path d="M307.397,266.795c0.728,0,1.456,0,2.184,0c0.278,0,0.008-0.496-0.048-0.578c-0.15-0.22-0.407-0.476-0.691-0.476
		c-0.728,0-1.456,0-2.184,0c-0.278,0-0.008,0.496,0.048,0.578C306.855,266.539,307.112,266.795,307.397,266.795L307.397,266.795z"/>
	<path d="M311.713,267.518c1.828-0.101,3.654-0.11,5.482-0.027c0.656,0.03,1.765-0.947,0.612-0.999
		c-1.829-0.083-3.654-0.074-5.482,0.027C311.687,266.555,310.564,267.582,311.713,267.518L311.713,267.518z"/>
	<path d="M298.283,265.843c1.174,0.019,2.348,0.038,3.522,0.056c0.375,0.006,0.801-0.266,1.055-0.524
		c0.134-0.135,0.416-0.525,0.031-0.531c-1.174-0.019-2.348-0.038-3.522-0.056c-0.375-0.006-0.801,0.266-1.055,0.524
		C298.18,265.447,297.897,265.837,298.283,265.843L298.283,265.843z"/>
	<path d="M313.469,342.768c22.568,0.587,45.148,1.126,67.707-0.048c0.601-0.031,0.829-1.782,0.398-1.76
		c-22.558,1.174-45.139,0.635-67.707,0.048C313.28,340.993,313.003,342.756,313.469,342.768L313.469,342.768z"/>
	<path d="M331.026,343.707c19.592,0.116,39.184,0.026,58.775-0.272c0.263-0.004-0.29-0.856-0.629-0.851
		c-19.59,0.298-39.182,0.388-58.775,0.272C330.14,342.855,330.686,343.705,331.026,343.707L331.026,343.707z"/>
	<path d="M339.345,345.77c14.55-0.925,29.14-0.232,43.694-1.063c0.375-0.021,0.097-1.368-0.385-1.341
		c-14.554,0.832-29.143,0.138-43.694,1.063C338.584,344.453,338.865,345.8,339.345,345.77L339.345,345.77z"/>
	<path d="M329.06,347.854c8.169-0.127,16.33,0.317,24.499,0.262c8.532-0.058,17.049-0.64,25.584-0.554
		c0.653,0.007,0.826-1.907,0.237-1.913c-8.535-0.086-17.051,0.504-25.584,0.554c-8.169,0.047-16.329-0.39-24.499-0.262
		C328.638,345.951,328.481,347.863,329.06,347.854L329.06,347.854z"/>
	<path d="M350.223,350.469c4.344-0.208,8.688-0.264,13.036-0.169c0.595,0.013,1.704-1.492,0.835-1.511
		c-4.348-0.095-8.692-0.039-13.036,0.169C350.464,348.986,349.374,350.51,350.223,350.469L350.223,350.469z"/>
	<path d="M338.492,352.119c2.087,0,4.174,0,6.261,0c0.339,0-0.319-1.055-0.739-1.055c-2.087,0-4.174,0-6.261,0
		C337.414,351.064,338.072,352.119,338.492,352.119L338.492,352.119z"/>
	<path d="M352.126,353.29c5.239-0.161,10.476-0.175,15.716-0.043c0.654,0.016,1.766-0.97,0.612-0.999
		c-5.24-0.132-10.477-0.117-15.716,0.043C352.095,352.311,350.974,353.325,352.126,353.29L352.126,353.29z"/>
	<path d="M314.068,350.597c3.365,0.03,6.73,0.06,10.096,0.09c0.432,0.004,1.661-1.05,1.086-1.055c-3.365-0.03-6.73-0.06-10.096-0.09
		C314.722,349.538,313.493,350.592,314.068,350.597L314.068,350.597z"/>
	<path d="M312.532,414.839c22.568,0.587,45.148,1.126,67.707-0.048c0.601-0.031,0.829-1.782,0.398-1.76
		c-22.558,1.174-45.139,0.635-67.707,0.048C312.343,413.064,312.066,414.827,312.532,414.839L312.532,414.839z"/>
	<path d="M330.089,415.779c19.592,0.116,39.184,0.026,58.775-0.272c0.263-0.004-0.29-0.856-0.629-0.851
		c-19.59,0.298-39.182,0.388-58.775,0.272C329.203,414.926,329.749,415.777,330.089,415.779L330.089,415.779z"/>
	<path d="M338.409,417.841c14.55-0.925,29.14-0.232,43.694-1.063c0.375-0.021,0.097-1.368-0.385-1.341
		c-14.554,0.832-29.143,0.138-43.694,1.063C337.647,416.524,337.928,417.872,338.409,417.841L338.409,417.841z"/>
	<path d="M328.123,419.925c8.169-0.127,16.33,0.317,24.499,0.262c8.532-0.058,17.049-0.64,25.584-0.554
		c0.653,0.007,0.826-1.907,0.237-1.913c-8.535-0.086-17.051,0.504-25.584,0.554c-8.169,0.047-16.329-0.39-24.499-0.262
		C327.701,418.022,327.545,419.934,328.123,419.925L328.123,419.925z"/>
	<path d="M349.286,422.54c4.344-0.208,8.688-0.264,13.036-0.169c0.595,0.013,1.704-1.492,0.835-1.511
		c-4.348-0.095-8.692-0.039-13.036,0.169C349.527,421.058,348.437,422.581,349.286,422.54L349.286,422.54z"/>
	<path d="M337.556,424.19c2.087,0,4.174,0,6.261,0c0.339,0-0.319-1.055-0.739-1.055c-2.087,0-4.174,0-6.261,0
		C336.477,423.135,337.136,424.19,337.556,424.19L337.556,424.19z"/>
	<path d="M351.189,425.361c5.239-0.161,10.476-0.175,15.716-0.043c0.654,0.016,1.766-0.97,0.612-0.999
		c-5.24-0.132-10.477-0.117-15.716,0.043C351.158,424.382,350.037,425.396,351.189,425.361L351.189,425.361z"/>
	<path d="M313.131,422.668c3.365,0.03,6.73,0.06,10.096,0.09c0.432,0.004,1.661-1.05,1.086-1.055c-3.365-0.03-6.73-0.06-10.096-0.09
		C313.785,421.609,312.557,422.663,313.131,422.668L313.131,422.668z"/>
	<path d="M338.008,282.705c18.555,0.586,37.12,1.115,55.664-0.048c0.603-0.038,0.824-1.787,0.398-1.76
		c-18.544,1.163-37.11,0.635-55.664,0.048C337.82,280.927,337.539,282.691,338.008,282.705L338.008,282.705z"/>
	<path d="M352.534,283.645c16.108,0.115,32.215,0.024,48.321-0.272c0.264-0.005-0.29-0.857-0.629-0.851
		c-16.106,0.296-32.213,0.387-48.321,0.272C351.648,282.792,352.194,283.642,352.534,283.645L352.534,283.645z"/>
	<path d="M359.351,285.707c11.958-0.909,23.96-0.247,35.922-1.063c0.378-0.026,0.095-1.373-0.385-1.341
		c-11.962,0.816-23.965,0.154-35.922,1.063C358.587,284.395,358.873,285.744,359.351,285.707L359.351,285.707z"/>
	<path d="M350.84,287.791c6.717-0.119,13.425,0.31,20.141,0.262c7.017-0.05,14.013-0.63,21.033-0.554
		c0.653,0.007,0.826-1.907,0.237-1.913c-7.02-0.076-14.017,0.496-21.033,0.554c-6.716,0.055-13.424-0.381-20.141-0.262
		C350.418,285.889,350.262,287.801,350.84,287.791L350.84,287.791z"/>
	<path d="M368.186,290.406c3.571-0.208,7.141-0.264,10.717-0.169c0.594,0.016,1.705-1.488,0.835-1.511
		c-3.576-0.095-7.146-0.039-10.717,0.169C368.427,288.93,367.341,290.456,368.186,290.406L368.186,290.406z"/>
	<path d="M358.682,292.056c1.716,0,3.432,0,5.147,0c0.339,0-0.319-1.055-0.739-1.055c-1.716,0-3.432,0-5.147,0
		C357.604,291.001,358.262,292.056,358.682,292.056L358.682,292.056z"/>
	<path d="M369.77,293.227c4.307-0.161,8.612-0.175,12.921-0.043c0.655,0.02,1.766-0.964,0.612-0.999
		c-4.308-0.132-8.613-0.117-12.921,0.043C369.741,292.252,368.619,293.27,369.77,293.227L369.77,293.227z"/>
	<path d="M338.439,290.534c2.767,0.03,5.533,0.06,8.3,0.09c0.432,0.005,1.661-1.049,1.086-1.055c-2.767-0.03-5.533-0.06-8.3-0.09
		C339.093,289.475,337.864,290.528,338.439,290.534L338.439,290.534z"/>
	<path d="M155.135,383.24c22.568,0.587,45.148,1.126,67.707-0.048c0.601-0.031,0.829-1.782,0.398-1.76
		c-22.558,1.174-45.139,0.635-67.707,0.048C154.946,381.465,154.669,383.228,155.135,383.24L155.135,383.24z"/>
	<path d="M172.692,384.179c19.592,0.116,39.184,0.026,58.775-0.272c0.263-0.004-0.29-0.856-0.629-0.851
		c-19.59,0.298-39.182,0.388-58.775,0.272C171.806,383.327,172.352,384.177,172.692,384.179L172.692,384.179z"/>
	<path d="M181.011,386.242c14.55-0.925,29.14-0.232,43.694-1.063c0.375-0.021,0.097-1.368-0.385-1.341
		c-14.554,0.832-29.143,0.138-43.694,1.063C180.25,384.925,180.53,386.272,181.011,386.242L181.011,386.242z"/>
	<path d="M170.726,388.325c8.169-0.127,16.33,0.317,24.499,0.262c8.532-0.058,17.049-0.64,25.584-0.554
		c0.653,0.007,0.826-1.907,0.237-1.913c-8.535-0.086-17.051,0.504-25.584,0.554c-8.169,0.047-16.329-0.39-24.499-0.262
		C170.304,386.422,170.147,388.334,170.726,388.325L170.726,388.325z"/>
	<path d="M191.889,390.941c4.344-0.208,8.688-0.264,13.036-0.169c0.595,0.013,1.704-1.492,0.835-1.511
		c-4.348-0.095-8.692-0.039-13.036,0.169C192.13,389.458,191.04,390.982,191.889,390.941L191.889,390.941z"/>
	<path d="M180.158,392.59c2.087,0,4.174,0,6.261,0c0.339,0-0.319-1.055-0.739-1.055c-2.087,0-4.174,0-6.261,0
		C179.08,391.535,179.738,392.59,180.158,392.59L180.158,392.59z"/>
	<path d="M193.792,393.762c5.239-0.161,10.476-0.175,15.716-0.043c0.654,0.016,1.766-0.97,0.612-0.999
		c-5.24-0.132-10.477-0.117-15.716,0.043C193.761,392.782,192.64,393.797,193.792,393.762L193.792,393.762z"/>
	<path d="M105.813,430.313c10.997-0.139,22.063-0.262,33.059-0.185c0.654,0.005,0.825-1.909,0.237-1.913
		c-10.996-0.077-22.062,0.046-33.059,0.185C105.391,428.408,105.233,430.32,105.813,430.313L105.813,430.313z"/>
	<path d="M117.571,433.41c6.777-0.223,13.553-0.283,20.333-0.181c0.595,0.009,1.703-1.498,0.835-1.511
		c-6.78-0.102-13.556-0.042-20.333,0.181C117.812,431.919,116.718,433.439,117.571,433.41L117.571,433.41z"/>
	<path d="M121.21,436.077c3.844-0.161,7.686-0.175,11.532-0.043c0.655,0.022,1.766-0.959,0.612-0.999
		c-3.846-0.132-7.688-0.117-11.532,0.043C121.181,435.105,120.059,436.125,121.21,436.077L121.21,436.077z"/>
	<path d="M138.014,415.217c6.777-0.223,13.553-0.283,20.333-0.181c0.595,0.009,1.703-1.498,0.835-1.511
		c-6.78-0.102-13.556-0.042-20.333,0.181C138.254,413.725,137.16,415.245,138.014,415.217L138.014,415.217z"/>
	<path d="M141.653,417.884c3.844-0.161,7.686-0.175,11.532-0.043c0.655,0.022,1.766-0.959,0.612-0.999
		c-3.846-0.132-7.688-0.117-11.532,0.043C141.624,416.911,140.502,417.932,141.653,417.884L141.653,417.884z"/>
	<path d="M67.743,408.996c7.772-0.229,15.544-0.29,23.319-0.186c0.595,0.008,1.702-1.5,0.835-1.511
		c-7.775-0.104-15.546-0.043-23.319,0.186C67.983,407.502,66.888,409.021,67.743,408.996L67.743,408.996z"/>
	<path d="M71.9,411.736c4.409-0.165,8.816-0.18,13.225-0.044c0.655,0.02,1.766-0.964,0.612-0.999
		c-4.41-0.135-8.817-0.12-13.225,0.044C71.87,410.761,70.748,411.779,71.9,411.736L71.9,411.736z"/>
	<path d="M155.734,391.069c3.365,0.03,6.73,0.06,10.096,0.09c0.432,0.004,1.661-1.05,1.086-1.055c-3.365-0.03-6.73-0.06-10.096-0.09
		C156.388,390.01,155.159,391.064,155.734,391.069L155.734,391.069z"/>
	<path d="M186.964,254.501c14.496,0.586,28.995,1.095,43.478-0.048c0.605-0.048,0.816-1.793,0.398-1.76
		c-14.483,1.144-28.981,0.634-43.478,0.048C186.778,252.718,186.492,254.482,186.964,254.501L186.964,254.501z"/>
	<path d="M198.422,255.441c12.582,0.112,25.163,0.021,37.742-0.272c0.266-0.006-0.29-0.859-0.629-0.851
		c-12.579,0.293-25.16,0.384-37.742,0.272C197.536,254.587,198.082,255.438,198.422,255.441L198.422,255.441z"/>
	<path d="M203.72,257.503c9.334-0.884,18.719-0.27,28.058-1.063c0.383-0.033,0.093-1.381-0.385-1.341
		c-9.339,0.793-18.724,0.179-28.058,1.063C202.95,256.199,203.245,257.548,203.72,257.503L203.72,257.503z"/>
	<path d="M197.004,259.587c5.552-0.105,11.094,0.351,16.645,0.243c5.178-0.1,10.332-0.594,15.515-0.535
		c0.653,0.007,0.826-1.906,0.237-1.913c-5.183-0.059-10.337,0.435-15.515,0.535c-5.551,0.107-11.093-0.348-16.645-0.243
		C196.581,257.686,196.427,259.598,197.004,259.587L197.004,259.587z"/>
	<path d="M210.487,262.202c2.789-0.208,5.576-0.264,8.371-0.169c0.594,0.02,1.707-1.482,0.835-1.511
		c-2.795-0.095-5.582-0.039-8.371,0.169C210.73,260.735,209.648,262.265,210.487,262.202L210.487,262.202z"/>
	<path d="M203.236,263.852c1.34,0,2.68,0,4.02,0c0.339,0-0.319-1.055-0.739-1.055c-1.34,0-2.68,0-4.02,0
		C202.158,262.797,202.816,263.852,203.236,263.852L203.236,263.852z"/>
	<path d="M211.749,265.023c3.365-0.161,6.726-0.175,10.092-0.043c0.656,0.026,1.765-0.954,0.612-0.999
		c-3.366-0.132-6.727-0.117-10.092,0.043C211.722,264.055,210.599,265.078,211.749,265.023L211.749,265.023z"/>
	<path d="M188.852,256.784c2.161,0.03,4.322,0.06,6.483,0.09c0.432,0.006,1.662-1.047,1.086-1.055
		c-2.161-0.03-4.322-0.06-6.483-0.09C189.506,255.723,188.276,256.776,188.852,256.784L188.852,256.784z"/>
	<path d="M335.817,222.174c10.183,0.587,20.349,1.06,30.511-0.057c0.495-0.054,0.796-1.809,0.187-1.742
		c-10.101,1.111-20.184,0.623-30.3,0.039C335.636,220.381,335.338,222.147,335.817,222.174L335.817,222.174z"/>
	<path d="M343.985,223.114c8.801,0.108,17.598,0.017,26.395-0.272c0.269-0.009-0.291-0.862-0.629-0.851
		c-8.797,0.289-17.594,0.38-26.395,0.272C343.1,222.259,343.644,223.109,343.985,223.114L343.985,223.114z"/>
	<path d="M347.653,225.176c6.516-0.865,13.099-0.287,19.622-1.063c0.392-0.047,0.086-1.397-0.385-1.341
		c-6.523,0.776-13.106,0.198-19.622,1.063C346.873,223.888,347.186,225.238,347.653,225.176L347.653,225.176z"/>
	<path d="M342.863,227.26c3.675-0.089,7.33,0.32,11.002,0.262c3.84-0.06,7.644-0.595,11.489-0.554
		c0.653,0.007,0.826-1.907,0.237-1.913c-3.847-0.041-7.649,0.508-11.489,0.554c-3.672,0.044-7.328-0.352-11.002-0.262
		C342.439,225.363,342.288,227.274,342.863,227.26L342.863,227.26z"/>
	<path d="M352.202,229.875c1.949-0.208,3.896-0.264,5.854-0.169c0.593,0.029,1.71-1.469,0.835-1.511
		c-1.958-0.095-3.905-0.039-5.854,0.169C352.448,228.427,351.376,229.964,352.202,229.875L352.202,229.875z"/>
	<path d="M347.368,231.525c0.937,0,1.874,0,2.812,0c0.278,0,0.008-0.496-0.048-0.578c-0.15-0.22-0.407-0.476-0.691-0.476
		c-0.937,0-1.874,0-2.812,0c-0.278,0-0.008,0.496,0.048,0.578C346.826,231.268,347.083,231.525,347.368,231.525L347.368,231.525z"/>
	<path d="M353.118,232.696c2.288-0.156,4.575-0.18,6.866-0.052c0.357,0.02,0.972-0.057,1.19-0.392
		c0.161-0.248,0.24-0.564-0.194-0.589c-2.42-0.136-4.831-0.131-7.249,0.034C353.096,231.74,351.971,232.774,353.118,232.696
		L353.118,232.696z"/>
	<path d="M337.034,224.457c1.511,0.03,3.023,0.06,4.534,0.09c0.365,0.007,0.815-0.262,1.055-0.524
		c0.127-0.138,0.421-0.523,0.031-0.531c-1.511-0.03-3.023-0.06-4.534-0.09c-0.365-0.007-0.815,0.262-1.055,0.524
		C336.938,224.064,336.644,224.449,337.034,224.457L337.034,224.457z"/>
	<path d="M405.042,147.647c10.183,0.587,20.349,1.06,30.511-0.057c0.495-0.054,0.796-1.809,0.187-1.742
		c-10.101,1.111-20.184,0.623-30.3,0.039C404.861,145.854,404.563,147.62,405.042,147.647L405.042,147.647z"/>
	<path d="M413.209,148.586c8.801,0.108,17.598,0.017,26.395-0.272c0.269-0.009-0.291-0.862-0.629-0.851
		c-8.797,0.289-17.594,0.38-26.395,0.272C412.325,147.732,412.869,148.582,413.209,148.586L413.209,148.586z"/>
	<path d="M416.878,150.649c6.516-0.865,13.099-0.287,19.622-1.063c0.392-0.047,0.086-1.397-0.385-1.341
		c-6.523,0.776-13.106,0.198-19.622,1.063C416.098,149.361,416.411,150.711,416.878,150.649L416.878,150.649z"/>
	<path d="M412.088,152.732c3.675-0.089,7.33,0.32,11.002,0.262c3.84-0.06,7.644-0.595,11.489-0.554
		c0.653,0.007,0.826-1.907,0.237-1.913c-3.847-0.041-7.649,0.508-11.489,0.554c-3.672,0.044-7.328-0.352-11.002-0.262
		C411.664,150.835,411.513,152.746,412.088,152.732L412.088,152.732z"/>
	<path d="M421.427,155.348c1.949-0.208,3.896-0.264,5.854-0.169c0.593,0.029,1.71-1.469,0.835-1.511
		c-1.958-0.095-3.905-0.039-5.854,0.169C421.673,153.9,420.601,155.436,421.427,155.348L421.427,155.348z"/>
	<path d="M416.592,156.997c0.937,0,1.874,0,2.812,0c0.278,0,0.008-0.496-0.048-0.578c-0.15-0.22-0.407-0.476-0.691-0.476
		c-0.937,0-1.874,0-2.812,0c-0.278,0-0.008,0.496,0.048,0.578C416.051,156.741,416.308,156.997,416.592,156.997L416.592,156.997z"/>
	<path d="M422.343,158.169c2.288-0.156,4.575-0.18,6.866-0.052c0.357,0.02,0.972-0.057,1.19-0.393
		c0.161-0.248,0.24-0.564-0.194-0.589c-2.42-0.136-4.831-0.131-7.249,0.034C422.321,157.213,421.196,158.247,422.343,158.169
		L422.343,158.169z"/>
	<path d="M357.604,66.59c1.949-0.208,3.896-0.264,5.854-0.169c0.297,0.014,0.855-0.734,0.418-0.756
		c-1.958-0.095-3.905-0.039-5.854,0.169C357.727,65.866,357.191,66.634,357.604,66.59L357.604,66.59z"/>
	<path d="M360.04,67.461c0.937,0,1.874,0,2.812,0c0.169,0-0.16-0.527-0.37-0.527c-0.937,0-1.874,0-2.812,0
		C359.5,66.934,359.83,67.461,360.04,67.461L360.04,67.461z"/>
	<path d="M349.548,63.415c1.949-0.208,3.896-0.264,5.854-0.169c0.297,0.014,0.855-0.734,0.418-0.756
		c-1.958-0.095-3.905-0.039-5.854,0.169C349.671,62.69,349.135,63.459,349.548,63.415L349.548,63.415z"/>
	<path d="M351.983,64.285c0.937,0,1.874,0,2.812,0c0.17,0-0.16-0.527-0.37-0.527c-0.937,0-1.874,0-2.812,0
		C351.444,63.758,351.773,64.285,351.983,64.285L351.983,64.285z"/>
	<path d="M305.568,101.575c1.949-0.208,3.896-0.264,5.854-0.169c0.297,0.014,0.855-0.734,0.418-0.756
		c-1.958-0.095-3.905-0.039-5.854,0.169C305.691,100.851,305.155,101.619,305.568,101.575L305.568,101.575z"/>
	<path d="M308.003,102.446c0.937,0,1.874,0,2.812,0c0.169,0-0.16-0.527-0.37-0.527c-0.937,0-1.874,0-2.812,0
		C307.464,101.919,307.793,102.446,308.003,102.446L308.003,102.446z"/>
	<path d="M354.854,64.942c2.321-0.159,4.639-0.178,6.962-0.048c0.268,0.015,0.978-0.464,0.498-0.491
		c-2.387-0.134-4.768-0.124-7.154,0.039C354.843,64.464,354.281,64.981,354.854,64.942L354.854,64.942z"/>
	<path d="M359.702,65.012c2.321-0.159,4.639-0.178,6.962-0.048c0.268,0.015,0.978-0.464,0.498-0.491
		c-2.387-0.134-4.768-0.124-7.154,0.039C359.691,64.535,359.128,65.052,359.702,65.012L359.702,65.012z"/>
	<path d="M308.495,98.159c1.949-0.208,3.896-0.264,5.854-0.169c0.297,0.014,0.855-0.734,0.418-0.756
		c-1.958-0.095-3.905-0.039-5.854,0.169C308.618,97.435,308.082,98.203,308.495,98.159L308.495,98.159z"/>
	<path d="M310.93,99.03c0.937,0,1.874,0,2.812,0c0.17,0-0.16-0.527-0.37-0.527c-0.937,0-1.874,0-2.812,0
		C310.391,98.503,310.72,99.03,310.93,99.03L310.93,99.03z"/>
	<path d="M305.745,96.511c2.321-0.159,4.639-0.178,6.962-0.048c0.269,0.015,0.978-0.464,0.498-0.491
		c-2.387-0.134-4.768-0.124-7.154,0.039C305.734,96.033,305.172,96.55,305.745,96.511L305.745,96.511z"/>
	<path d="M310.592,96.581c2.321-0.159,4.639-0.178,6.962-0.048c0.269,0.015,0.978-0.464,0.498-0.491
		c-2.387-0.134-4.768-0.124-7.154,0.039C310.581,96.104,310.019,96.62,310.592,96.581L310.592,96.581z"/>
	<path d="M406.259,149.929c1.511,0.03,3.023,0.06,4.534,0.09c0.365,0.007,0.815-0.262,1.055-0.524
		c0.127-0.138,0.421-0.523,0.031-0.531c-1.511-0.03-3.023-0.06-4.534-0.09c-0.365-0.007-0.815,0.262-1.055,0.524
		C406.163,149.537,405.869,149.922,406.259,149.929L406.259,149.929z"/>
	<path d="M505.013,145.432c10.183,0.587,20.349,1.06,30.511-0.057c0.495-0.054,0.796-1.809,0.187-1.742
		c-10.101,1.111-20.184,0.623-30.3,0.039C504.832,143.638,504.535,145.404,505.013,145.432L505.013,145.432z"/>
	<path d="M513.181,146.371c8.801,0.108,17.598,0.017,26.395-0.272c0.268-0.009-0.291-0.862-0.629-0.851
		c-8.797,0.289-17.594,0.38-26.395,0.272C512.296,145.517,512.841,146.367,513.181,146.371L513.181,146.371z"/>
	<path d="M516.849,148.433c6.516-0.865,13.099-0.287,19.622-1.063c0.392-0.047,0.086-1.397-0.385-1.341
		c-6.523,0.776-13.106,0.198-19.622,1.063C516.07,147.145,516.382,148.495,516.849,148.433L516.849,148.433z"/>
	<path d="M512.059,150.517c3.675-0.089,7.33,0.32,11.002,0.262c3.84-0.06,7.644-0.595,11.489-0.554
		c0.653,0.007,0.826-1.907,0.237-1.913c-3.847-0.041-7.649,0.508-11.489,0.554c-3.672,0.044-7.328-0.352-11.002-0.262
		C511.635,148.62,511.484,150.531,512.059,150.517L512.059,150.517z"/>
	<path d="M521.398,153.133c1.949-0.208,3.896-0.264,5.854-0.169c0.593,0.029,1.71-1.469,0.835-1.511
		c-1.958-0.095-3.905-0.039-5.854,0.169C521.644,151.684,520.572,153.221,521.398,153.133L521.398,153.133z"/>
	<path d="M516.564,154.782c0.937,0,1.874,0,2.812,0c0.278,0,0.008-0.496-0.048-0.578c-0.15-0.22-0.407-0.476-0.692-0.476
		c-0.937,0-1.874,0-2.812,0c-0.278,0-0.008,0.496,0.048,0.578C516.022,154.526,516.279,154.782,516.564,154.782L516.564,154.782z"/>
	<path d="M522.314,155.953c2.289-0.156,4.575-0.18,6.866-0.052c0.357,0.02,0.972-0.057,1.19-0.393
		c0.161-0.248,0.24-0.564-0.194-0.589c-2.42-0.136-4.831-0.131-7.249,0.034C522.292,154.998,521.167,156.032,522.314,155.953
		L522.314,155.953z"/>
	<path d="M545.023,147.091c1.949-0.208,3.896-0.264,5.854-0.169c0.593,0.029,1.71-1.469,0.835-1.511
		c-1.958-0.095-3.905-0.039-5.854,0.169C545.269,145.643,544.197,147.179,545.023,147.091L545.023,147.091z"/>
	<path d="M540.189,148.741c0.937,0,1.874,0,2.812,0c0.278,0,0.008-0.496-0.048-0.578c-0.15-0.22-0.407-0.476-0.692-0.476
		c-0.937,0-1.874,0-2.812,0c-0.278,0-0.008,0.496,0.048,0.578C539.647,148.484,539.904,148.741,540.189,148.741L540.189,148.741z"/>
	<path d="M545.939,149.912c2.289-0.156,4.575-0.18,6.866-0.052c0.357,0.02,0.972-0.057,1.19-0.393
		c0.161-0.248,0.24-0.564-0.194-0.589c-2.42-0.136-4.831-0.131-7.249,0.034C545.917,148.956,544.792,149.99,545.939,149.912
		L545.939,149.912z"/>
	<path d="M506.23,147.714c1.511,0.03,3.023,0.06,4.534,0.09c0.365,0.007,0.815-0.262,1.055-0.524
		c0.127-0.138,0.421-0.523,0.031-0.531c-1.511-0.03-3.023-0.06-4.534-0.09c-0.365-0.007-0.815,0.262-1.055,0.524
		C506.134,147.321,505.84,147.706,506.23,147.714L506.23,147.714z"/>
	<path d="M183.371,201.866c19.634,0.859,39.283,1.627,58.896-0.08c0.49-0.043,0.803-1.795,0.187-1.742
		c-19.538,1.7-39.125,0.918-58.684,0.062C183.187,200.081,182.898,201.846,183.371,201.866L183.371,201.866z"/>
	<path d="M198.684,203.451c17.013,0.168,34.026,0.036,51.034-0.398c0.266-0.007-0.29-0.86-0.629-0.851
		c-17.009,0.434-34.021,0.566-51.034,0.398C197.799,202.597,198.344,203.447,198.684,203.451L198.684,203.451z"/>
	<path d="M205.892,206.355c12.613-1.335,25.318-0.356,37.939-1.555c0.385-0.037,0.091-1.386-0.385-1.341
		c-12.621,1.199-25.326,0.221-37.939,1.555C205.119,205.055,205.419,206.405,205.892,206.355L205.892,206.355z"/>
	<path d="M196.92,209.27c7.406-0.182,14.794,0.505,22.199,0.366c7.106-0.134,14.174-0.907,21.288-0.792
		c0.652,0.011,0.828-1.904,0.237-1.913c-7.114-0.115-14.182,0.658-21.288,0.792c-7.404,0.139-14.793-0.547-22.199-0.366
		C196.496,207.373,196.345,209.284,196.92,209.27L196.92,209.27z"/>
	<path d="M215.256,213.19c3.77-0.304,7.539-0.387,11.319-0.247c0.594,0.022,1.707-1.479,0.835-1.511
		c-3.78-0.139-7.549-0.057-11.319,0.247C215.499,211.727,214.42,213.258,215.256,213.19L215.256,213.19z"/>
	<path d="M205.174,215.708c1.812,0,3.624,0,5.436,0c0.339,0-0.319-1.055-0.739-1.055c-1.812,0-3.624,0-5.436,0
		C204.096,214.654,204.754,215.708,205.174,215.708L205.174,215.708z"/>
	<path d="M216.924,217.435c4.55-0.235,9.095-0.256,13.646-0.063c0.656,0.028,1.765-0.95,0.612-0.999
		c-4.552-0.193-9.097-0.172-13.646,0.063C216.897,216.469,215.774,217.494,216.924,217.435L216.924,217.435z"/>
	<path d="M186.046,205.368c2.922,0.044,5.844,0.088,8.766,0.132c0.432,0.007,1.663-1.046,1.086-1.055
		c-2.922-0.044-5.844-0.088-8.766-0.132C186.7,204.307,185.469,205.36,186.046,205.368L186.046,205.368z"/>
	<path d="M362.824,176.256c11.497,0.959,23.01,1.64,34.539,2.044c0.248,0.009-0.289-0.839-0.629-0.851
		c-11.478-0.402-22.94-1.082-34.385-2.036C361.923,175.376,362.526,176.231,362.824,176.256L362.824,176.256z"/>
	<path d="M366.95,179.869c9.805-0.42,19.518,1.383,29.322,1.097c0.366-0.011,0.101-1.355-0.385-1.341
		c-9.804,0.286-19.517-1.517-29.322-1.097C366.195,178.544,366.466,179.889,366.95,179.869L366.95,179.869z"/>
	<path d="M370.339,196.827c3.77-0.304,7.539-0.387,11.319-0.247c0.594,0.022,1.707-1.479,0.835-1.511
		c-3.78-0.139-7.549-0.057-11.319,0.247C370.582,195.364,369.502,196.895,370.339,196.827L370.339,196.827z"/>
	<path d="M374.067,197.931c1.812,0,3.624,0,5.436,0c0.339,0-0.319-1.055-0.739-1.055c-1.812,0-3.624,0-5.436,0
		C372.989,196.876,373.647,197.931,374.067,197.931L374.067,197.931z"/>
	<path d="M370.255,194.27c4.55-0.235,9.095-0.256,13.646-0.063c0.656,0.028,1.765-0.95,0.612-0.999
		c-4.552-0.193-9.097-0.172-13.646,0.063C370.228,193.304,369.105,194.329,370.255,194.27L370.255,194.27z"/>
	<path d="M368.968,182.008c6.771,0.102,13.542,0.204,20.313,0.305c0.432,0.007,1.663-1.046,1.086-1.055
		c-6.771-0.102-13.542-0.204-20.313-0.305C369.622,180.947,368.391,182,368.968,182.008L368.968,182.008z"/>
</g>
</svg>
