<?xml version="1.0" encoding="utf-8"?>
<!-- Generator: Adobe Illustrator 23.0.1, SVG Export Plug-In . SVG Version: 6.00 Build 0)  -->
<svg version="1.1" id="Layer_3" xmlns="http://www.w3.org/2000/svg" xmlns:xlink="http://www.w3.org/1999/xlink" x="0px" y="0px"
	 viewBox="0 0 566.9 566.9" style="enable-background:new 0 0 566.9 566.9;" xml:space="preserve">
<style type="text/css">
	.st0{fill:#FFFFFF;}
	.st1{fill:none;stroke:#000000;stroke-width:4;stroke-miterlimit:10;}
	.st2{fill:none;stroke:#000000;stroke-width:2;stroke-miterlimit:10;}
</style>
<path d="M155.6,174c-21.5,5.5-43.1,11.1-64.6,16.6c-0.4,0.1-0.4,0.7-0.4,1c0,23.6,0,47.2,0,70.7c-0.2,1,0.5,2.9,1.3,2.7
	c21.5-6.5,43.1-13,64.6-19.6c0.4-0.1,0.4-0.7,0.4-1c0-22.7,0-45.5,0-68.2C156.9,175.7,156.5,173.8,155.6,174z M155.3,242.4
	c-0.1,0-0.3,0.1-0.6,0.1c-1.2,0-2.8,0.8-3.9,1.2c-11.1,3.4-22.1,6.7-33.2,10.1c-8.4,2.6-16.9,5.1-25.3,7.7c0-19.3,0-38.6,0-58
	c0-3.2-0.1-6.5,0-9.7c0,0,0,0,0.1,0c1.1-0.2,2.3-0.6,3.4-0.9c10.9-2.8,21.8-5.6,32.8-8.4c8.9-2.3,17.8-4.6,26.7-6.9
	c0,19,0,38,0,56.9C155.2,236.7,155.8,240,155.3,242.4z"/>
<path d="M144.8,205.3c-4.8,1.1-9.6,2.3-14.5,3.4c-7.7,2-15.4,4-23.1,5.9c-0.6,0.2-0.8,1.7-0.8,2.1c0,8.5,0,17,0,25.5
	c0,0.4,0,1.5,0.7,1.4c12.7-3,25.1-6.7,37.6-10.5c0.6-0.2,0.8-1.7,0.8-2.1c0-8.1,0-16.3,0-24.4C145.5,206.2,145.5,205.1,144.8,205.3z
	 M144.8,231.4l-23.1,7l-14.5,3.4v-25.5l23.1-5.9l14.5-3.4V231.4z"/>
<g>
	<ellipse class="st0" cx="129.9" cy="233.3" rx="16.7" ry="7.8"/>
	<path d="M146,233.8c-0.6,5.7-13.5,6.3-17.4,6.1c-4-0.2-14.3-1.4-14-7c0.3-6,13.3-6.4,17.5-6c4.3,0.3,13.3,1.6,13.9,7.2
		c0.1,1.3,1.3-0.8,1.2-1.5c-0.9-8.2-14.4-8.6-20.4-8.1c-5,0.5-14.3,2.7-14.2,9.4c0.2,7.7,13.5,8.6,18.8,8.3c6-0.3,15-2.1,15.8-9.4
		C147.4,231.3,146.1,233,146,233.8z"/>
</g>
<path d="M146.7,259.4c-3.8-4.1-2-13-1.2-18c0.4-2.8,1-5.6,1.7-8.3c0.2-0.6-0.9-2.5-1.1-1.7c-2.1,8.1-6,22.8,0.5,29.8
	C147.5,262,147.1,259.8,146.7,259.4L146.7,259.4z"/>
<path d="M112.8,234.1c0.9,3.9,1.6,7.8,2,11.8c0.6,5.3,1.9,13.5-2,18c-0.8,0.9,1,4.2,1.8,3.3c3.9-4.5,3-12.4,2.5-17.8
	c-0.5-5-1.3-10-2.4-14.9C114.3,232.8,112.2,231.6,112.8,234.1L112.8,234.1z"/>
<path d="M121.3,266.1c5.3-6.9,3-18.4,1.9-26.3c-0.1-1-1.7,0.4-1.6,1c1,6.8,3.5,18.7-1.1,24.6C119.7,266.4,120.5,267.1,121.3,266.1
	L121.3,266.1z"/>
<path d="M136,240.4c-1.2,8.3-3.5,20.3,2.1,27.6c1.4,1.8,1.9-0.4,0.9-1.6c-2.5-3.3-2.1-9.1-1.9-12.9c0.2-3.7,0.6-7.3,1.1-11
	C138.4,241.4,136.2,238.9,136,240.4L136,240.4z"/>
<path class="st1" d="M90.2,232.7C59.7,269,74.6,351.5,74.6,351.5s0,0,12.2,0c-22.4-59.4,3.6-108.2,3.6-108.2S90.4,243.3,90.2,232.7z
	"/>
<g>
	<path class="st0" d="M131.4,266.6c-1.6-2.5-1.2-25.8-1.2-25.8"/>
	<path d="M132.3,266.7c-1.9-3.8-1.1-10.1-1.2-14.2c-0.1-3.8-0.1-7.6,0-11.5c0-0.7-1.9-1.3-1.9-0.5c-0.1,4.2-0.1,8.3,0,12.5
		c0.1,4-0.6,9.8,1.2,13.5C130.8,267.1,132.7,267.5,132.3,266.7L132.3,266.7z"/>
</g>
<path d="M238.7,349.5c-30-13.4-60.1-26.9-90.1-40.3c-4.2-1.9-8.4-3.8-12.6-5.6c-0.1,0-0.1,0-0.2,0.1c-18.2,8.7-36.5,17.4-54.7,26
	c-0.6,0.3-0.6,2.1-0.2,2.5c0.5,1.1,1,2.2,1.6,3.2c0,0.2,0.2,0.5,0.4,0.4c9.9-4.7,19.8-9.4,29.6-14.1c5.9-2.8,11.8-5.6,17.8-8.5
	c1.8-0.9,4.4-2.6,6.1-2.4c2.9,0.4,6.5,2.9,9.2,4.1c5.5,2.5,11,4.9,16.5,7.4c14.1,6.3,28.1,12.6,42.2,18.9
	c7.6,3.4,15.3,6.8,22.9,10.3c-32.9,18.6-65.8,37.2-98.7,55.8c-16.7,9.5-33.5,18.9-50.2,28.4c-0.9,0.5-2.8,2.1-3.9,2.2
	c-0.2,0-1.4-1.1-2.2-1.8c-7.2-6.3-14.3-12.6-21.5-18.9c-15.9-14-31.7-28-47.6-42c23.2-12,46.6-23.4,70.2-34.7
	c0.6-0.3,0.6-1.9,0.3-2.4c-0.2-1-0.4-2-0.5-3c0-0.2,0.1-1.6-0.5-1.3c-20.6,9.8-41.1,19.5-61.3,30c-5.7,3-11.5,6-17.2,8.9
	c-0.6,0.3-0.7,2.1-0.2,2.5c23.2,20.5,46.4,40.9,69.6,61.4c3.3,2.9,6.7,5.9,10,8.8c0.1,0.1,0.2,0.1,0.3,0
	c18.5-10.5,37.1-21,55.6-31.4c29.7-16.8,59.4-33.6,89.1-50.4c6.8-3.8,13.5-7.7,20.3-11.5C239.2,351.8,239.4,349.8,238.7,349.5z"/>
<path d="M186.4,342.1c-7.9-1.7-15.7,4.3-15.8,12.5c0,16.8,26.5,19.1,27.4,1.3C197.7,349.1,193.1,343.5,186.4,342.1z M188.3,365.5
	c-7.1,3.1-15-1.8-15-9.6c0-13.9,21.3-16.5,22.1-1.3C195.1,359.2,192.8,363.5,188.3,365.5z"/>
<path d="M176.9,346.6c4.8,3.4,2.1,13.7,0,18.5c-0.4,0.9,2,2.2,2.3,1.5c2.7-6.3,5.1-16.3-1.7-21.1
	C176.2,344.6,175.5,345.6,176.9,346.6L176.9,346.6z"/>
<path d="M192.6,345.6c-5.8,5.7-5.6,13.7-0.9,19.8c0.8,1.1,0.9-0.2,0.4-0.9c-4.2-5.4-3.3-12.5,1.5-17.2
	C194.1,346.8,192.9,345.2,192.6,345.6L192.6,345.6z"/>
<g>
	<g>
		<path d="M516.5,363.2c2,0-0.2-1.5-1.2-1.5C513.4,361.8,515.5,363.2,516.5,363.2L516.5,363.2z"/>
	</g>
</g>
<g>
	<g>
		<path d="M517.1,419c0.6,0,2.2-1.6,1.4-1.6C517.8,417.4,516.2,419,517.1,419L517.1,419z"/>
	</g>
</g>
<path d="M371.7,100.1c-3-5.7-6.9-10.1-13-12.3c-8-3-15.4-4.3-23.9-2.7c-4.3,0.8-8.9,1.6-12.2,4.8c-3.1,3-4.4,7.3-5.4,11.3
	c-1.6,6.1-3.3,11.8-1.2,17.2c0.9,5.7,4.1,10.5,8,14.8c9.2,9.9,24.5,16,36.8,7.9c6.7-4.5,10.1-11.4,12.7-18.8
	C376.1,114.7,375.5,107.2,371.7,100.1z M370.3,121.9c-2.7,6.9-5.6,12.6-11.9,16.8c-6.7,4.4-15.1,4.4-22.6,1.5
	c-6.7-2.6-13.6-9.3-16.3-16.6c-0.5-1.5-1.1-5-1.1-5.3c-0.5-8.6,4.1-16.9,7.9-24.2c0.3-0.5-0.2-1.3-0.8-1.8c4-3.5,9.6-4.6,15.3-5.3
	c9.1-1.1,21.8,2,27.1,9.9C373,104.7,373.7,113.2,370.3,121.9z"/>
<g>
	<path d="M69.7,133l36.2,11.1v-33.7L69.7,99.3V133z M72.7,103.4l30.2,9.3v27.4l-30.2-9.3V103.4z"/>
	<path d="M150.5,123.4l-36.2-11.2V146l36.2,11.1V123.4z M147.5,153l-30.2-9.3v-27.4l30.2,9.3V153z"/>
	<path d="M69.7,179.4l33.4,10.2c0.7-0.3,1.4-0.5,2.3-0.5c0.2,0,0.3,0,0.5,0v-32.3l-36.2-11.2V179.4z M72.7,149.7l30.2,9.3v27.4
		l-30.2-9.3V149.7z"/>
	<path d="M147.5,177.9c0.7-0.4,1.5-0.7,2.6-0.7c0.2,0,0.3,0,0.4,0v-7.5l-36.2-11.2v28c0.5-0.3,1.1-0.5,1.7-0.5
		c0.3-0.5,0.8-0.9,1.3-1.2v-22.1l30.2,9.3V177.9z"/>
	<path d="M69.7,220.1l21.9,6.7c-0.3-1-0.2-2.1,0.1-3.1l-19.1-5.8v-27.4l18.9,5.8c0-0.6,0.1-1.2,0.2-1.8c0.1-0.4,0.2-0.7,0.4-1.1
		l-22.5-6.9V220.1z"/>
	<path d="M223.7,199L179.9,210v37.3l43.8-11.9V199z M220.7,233.1l-37.8,10.2v-31l37.8-9.4V233.1z"/>
	<path d="M279.9,185.6l-43.8,10.1V233l43.8-11.9V185.6z M276.9,218.9l-37.8,10.2v-31l37.8-8.7V218.9z"/>
	<path d="M223.7,154.4l-43.8,10.9v37.3l43.8-11.9V154.4z M220.7,188.5l-37.8,10.2v-31l37.8-9.4V188.5z"/>
	<path d="M279.9,141l-43.8,10.1v37.3l43.8-11.9V141z M276.9,174.3l-37.8,10.2v-31l37.8-8.7V174.3z"/>
	<path d="M223.7,110.1L179.9,121v37.3l43.8-11.9V110.1z M220.7,144.1l-37.8,10.2v-31l37.8-9.4V144.1z"/>
	<path d="M279.9,96.7l-43.8,10.1v37.3l43.8-11.9V96.7z M276.9,129.9l-37.8,10.2v-31l37.8-8.7V129.9z"/>
	<path d="M458.4,137.4l-36.4,9.1v31.1l36.4-9.9V137.4z M455.4,165.4l-30.4,8.2v-24.8l30.4-7.6V165.4z"/>
	<path d="M504.4,126.4l-36.4,8.4v31.1l36.4-9.9V126.4z M501.4,153.8L471,162v-24.8l30.4-7V153.8z"/>
	<path d="M458.4,100.8l-36.4,9.1V141l36.4-9.9V100.8z M455.4,128.8l-30.4,8.2v-24.8l30.4-7.6V128.8z"/>
	<path d="M504.4,89.8L468,98.3v31.1l36.4-9.9V89.8z M501.4,117.2l-30.4,8.2v-24.8l30.4-7V117.2z"/>
	<path d="M458.4,64.5L422,73.6v31.1l36.4-9.9V64.5z M455.4,92.5l-30.4,8.2V75.9l30.4-7.6V92.5z"/>
	<path d="M504.4,53.5L468,61.9v31.1l36.4-9.9V53.5z M501.4,80.9L471,89.1V64.3l30.4-7V80.9z"/>
	<path d="M568.4,275.6l-184.7-68.7c3-0.8,6-1.6,9.1-2.4c11.2-3,22.4-6.1,33.6-9.1c24.7-6.7,49.4-13.4,74.1-20
		c5.8-1.6,11.6-3.1,17.4-4.7c0.2-0.1,0.3-0.1,0.3-0.3c0-38.2,0-76.4,0-114.5c0-5.4,0-10.7,0-16.1c0-0.7-1.5-1.5-2.2-1.4
		c-0.3,0.1-0.6,0.1-0.8,0.2c-8.4-4.6-16.8-9.1-25.2-13.7c-5-2.7-10-5.4-14.9-8.1c-2.6-1.4-3.6-2-6.1-1.7c-0.2-0.1-0.4-0.2-0.6-0.2
		c-12.6-3.3-25.2-6.5-37.8-9.8c-6.8-1.7-13.5-3.5-20.3-5.2c-1.4-0.4-2.3-0.6-3.7-0.5c-5.8,0.5-11.7,2.3-17.3,3.4
		c-11.7,2.3-23.4,4.6-35.1,6.8c-33.5,6.5-66.9,13-100.4,19.5c-33.3,6.5-66.5,12.9-99.8,19.4c-11.7,2.3-23.3,4.5-35,6.8
		c-3.7,0.7-7.4,1.4-11.2,2.2c-1.7,0.3-4.4,0.3-6,1.2c-0.2,0.1-0.6,0.1-0.8,0.2c-0.1,0-0.4,0.1-0.3,0.3c0.1,0.6,0.2,1.2,0.3,1.8
		c-2-0.6-2.5-0.4-4.9,0.9c-4.5,2.3-9,4.6-13.4,6.9c-5,2.5-9.9,5.1-14.9,7.6c-1.7,0.9-3.4,1.8-5.1,2.6c-1.6,0.7-0.8,0.7-2.1,0.3
		c-0.3-0.1-0.9-0.1-0.9,0.3c0,44.6,0,89.2,0,133.8c0,6.4,0,12.8,0,19.2c0,0.7,1.1,1.1,1.6,1.3c8.3,2.8,16.7,5.6,25,8.4
		c0.3,0.1,0.8,0.1,0.9-0.3c0.3-0.9,0.7-1.8,1-2.7c0.4-0.7-1.2-1.3-1.6-1.5c-7.1-2.4-14.3-4.8-21.4-7.2c0-35.6,0-71.1,0-106.7
		c0-9.1,0-18.3,0-27.4c0-3.5-0.6-7.7-0.1-11.3c0.8,0.4,1.7,0.5,2.5,0.8c3.3,1.1,6.5,2.1,9.8,3.2c10.3,3.3,20.5,6.7,30.8,10
		c17.2,5.6,34.5,11.2,51.7,16.9c0,27.1,0,54.3,0,81.4c0,8.3,0,16.6,0,24.9c0,8.8,0,17.6,0,26.3c0,3.4,0,6.7,0,10.1
		c0,0.3,0,2.5,0.1,3.5c-0.3-0.1-0.8-0.2-1.3-0.3c-1.7-0.6-3.5-1.2-5.2-1.7c-4.7-1.6-9.4-3.1-14.1-4.7c-3.8-1.3-7.5-2.6-11.3-3.8
		c-2.7-0.8-3.3,0.5-6,1.3c-1.2,0.3,0.9,1.5,1.3,1.6c13,4.4,26,8.7,39.1,13.1c0.2,0.1,0.8,0.2,0.9-0.1c0.5-1.6-0.1-0.8,1.3-1.4
		c1.2-0.6,2.8-0.8,4-1.1c5.1-1.4,10.3-2.8,15.4-4.2c17.1-4.6,34.1-9.2,51.2-13.8c27.2-7.4,54.5-14.7,81.7-22.1l251.4,99.7V275.6z
		 M64.7,84.9C64.5,84.8,64.4,84.8,64.7,84.9L64.7,84.9z M100.9,65.2c0.8,0.2,1.6,0.6,2.4,0.8c3.1,1.1,6.1,2.2,9.2,3.2
		c8.3,2.9,16.6,5.9,24.9,8.8c5,1.8,10,3.5,14.9,5.3c0.7,3.6,1.4,7.1,2.1,10.7c1,4.9,1.3,10.6,3,15.3c0.3,0.8,0.2,1.2,0.3,1.4
		c-0.4-0.2-0.8-0.3-1.1-0.4c-2.9-0.9-5.7-1.9-8.6-2.8c-21.2-6.9-42.4-13.8-63.6-20.7c-5.2-1.7-10.4-3.4-15.6-5.1
		C79.4,76.2,89.9,69.9,100.9,65.2z M409,3.9c16.8,4.3,33.6,8.7,50.3,13c-12.7,2.6-25.4,5.2-38,7.8c-31.1,6.4-62.2,12.8-93.3,19.1
		c-34,7-68,14-102,20.9c-21.9,4.5-43.8,9-65.7,13.5c-1.9,0.4-3.8,0.8-5.7,1.2c-0.3,0.1-0.6,0.1-0.7,0.1c-1.2-0.3-2.4-1-3.5-1.3
		C136,73.1,121.6,68,107.1,62.9c-0.2-0.1-0.4-0.1-0.6-0.2c33.7-6.5,67.3-13.1,101-19.6C262.2,32.4,317,21.8,371.7,11.1
		C384.1,8.7,396.5,6.3,409,3.9z M157.8,84.1c0-0.1,0-0.2,0-0.2c0,0,0.1,0,0.1-0.1c1.5-0.9,4.4-0.9,6-1.2c3.9-0.8,7.8-1.6,11.6-2.4
		c28.9-5.9,57.8-11.9,86.7-17.8c37.3-7.7,74.6-15.3,111.8-23c27.7-5.7,55.5-11.4,83.2-17.1c4.8-1,9.5-1.9,14.3-2.9
		c0.7,0.3,1.3,0.7,2,1.1c3.2,1.7,6.4,3.5,9.6,5.2c7.7,4.2,15.4,8.4,23.1,12.6c0.9,0.5,1.7,0.9,2.6,1.4c-11.1,2.3-22.2,4.7-33.3,7
		c-27.8,5.8-55.6,11.7-83.4,17.5c-33.4,7-66.9,14-100.3,21.1c-29.1,6.1-58.2,12.2-87.2,18.3c-9.6,2-19.3,4-28.9,6.1
		c-3,0.6-5.9,1.2-8.9,1.9c-0.9,0.2-2.4,0.3-3.6,0.6c-1.2-6.2-2.4-12.3-3.6-18.5C159.1,91,157.4,86.8,157.8,84.1z M165.2,116.9
		c1-0.7,4.3-0.8,5.4-1.1c4.7-1,9.3-2,14-2.9c37.4-7.9,74.9-15.7,112.3-23.6c46.3-9.7,92.5-19.4,138.8-29.1
		c17.3-3.6,34.6-7.3,51.9-10.9c5.7-1.2,11.3-2.4,17-3.6c2.5-0.5,5.6-0.7,8.1-1.5c0,35.8,0,71.5,0,107.3c0,5,0,10.1,0,15.1
		c-39.6,10.7-79.1,21.4-118.7,32.1c-5,1.3-10,2.7-15,4c0-19.1,0-38.2,0-57.3c0-0.7-1.5-1.5-2.2-1.4c-19.6,4.5-39.2,9.1-58.8,13.6
		c-0.2,0-0.3,0.1-0.3,0.3c0,16,0,32.1,0,48.1c0,3.5,0,7,0,10.6c0,0.7,0.2,1.8,0,2.5c0,0.1,0,0.1,0,0.2c-0.8,0.5-2.5,0.6-3.2,0.8
		c-2.2,0.6-4.5,1.2-6.7,1.8c-36.8,10-73.6,19.9-110.5,29.9c-10.6,2.9-21.2,5.7-31.8,8.6c0-35.8,0-71.6,0-107.4c0-8.9,0-17.8,0-26.8
		c0-2.5,0-5,0-7.5C165.4,118.3,165.7,116.6,165.2,116.9z M323.2,162.2c0.1-0.3,0.1-0.4,0-0.5c0.6-0.4,2.1-0.4,2.7-0.6
		c9.1-2.1,18.1-4.2,27.2-6.3c6.8-1.6,13.6-3.2,20.4-4.7c0,18.1,0,36.1,0,54.2c-16.8,4.5-33.5,9.1-50.3,13.6c0-15.8,0-31.5,0-47.3
		C323.2,168.1,322.6,164.7,323.2,162.2z M565.4,320.2L322,223.5c10-2.7,19.9-5.4,29.9-8.1c6.4-1.7,12.9-3.5,19.3-5.2
		c2.2-0.6,4.9-1.9,7.2-1.9c0.1,0,0.3,0,0.4-0.1l186.6,69.4V320.2z"/>
</g>
<ellipse class="st2" cx="345" cy="113.9" rx="27.4" ry="29"/>
<path d="M346.8,153.8c1.8,10.3,0.6,20.6,0.3,31c-0.3,9.6,0.4,19.2,1.1,28.8c0.1,1.1,3.1,3.3,3,1.8c-0.8-10.7-1.5-21.3-1-32
	c0.4-9.3,1.1-18.5-0.4-27.8C349.6,154.5,346.6,152.3,346.8,153.8L346.8,153.8z"/>
<path d="M325.2,194.7c6.7-1.4,13.3-2.8,20-4.4c1-0.2,1.8-3.3,0.8-3.1c-6.6,1.6-13.3,3-20,4.4C325,191.8,324.2,194.9,325.2,194.7
	L325.2,194.7z"/>
<path d="M351.7,188.3c6.7-1.4,13.3-2.8,20-4.4c1-0.2,1.8-3.3,0.8-3.1c-6.6,1.6-13.3,3-20,4.4C351.4,185.4,350.6,188.5,351.7,188.3
	L351.7,188.3z"/>
<path d="M340.5,92.2c1.2,8.9,2.6,17.7,4.3,26.5c0.2,0.9,3.4,1.7,3.2,0.8c-1.7-8.8-3.1-17.6-4.3-26.5
	C343.5,92.1,340.3,91.2,340.5,92.2L340.5,92.2z"/>
<path d="M345,116.8c3.5-0.8,7.1-0.7,10.6-1.6c3.5-0.9,6.7-2.1,10.3-2.8c2.1-0.4,0.6-1.7-0.9-1.5c-3.6,0.7-6.8,1.6-10.3,2.6
	c-3.7,1-7.6,1.1-11.4,1.9C341.4,115.9,344,117,345,116.8L345,116.8z"/>
<path d="M520.6,349.2c-11.8-6.4-23.5-13.2-35.5-19.2c-4.5-2.3-8.1-0.3-12.6,1.2c-12.5,4.2-24.9,9-36.9,14.4
	c-9.7,4.4-18.2,10.8-22.6,20.7c-4.4,9.9-5.4,21.1-8,31.5c-3.4,13.4-9,25.3-19.2,34.8c-6,5.6-13,10.2-20.5,13.6
	c-11.1,5-25.5,9.2-37.8,13.6c-2.1,0.8,0,2.8,1.1,3.4c11.8,6.4,23.7,12.8,35.5,19.2c1,0.6,3.9,2.1,5.1,1
	c18.5-6.6,39.2-11.4,54.7-23.9c7.1-5.7,13.2-12.7,17.4-20.7c4.9-9.2,7-19.8,9.2-29.9c1.6-7.6,3-15.6,6.7-22.6
	c4.1-7.7,11.1-12.8,18.8-16.5c11.2-5.5,23.2-9.9,35-14c3.5-1.2,7.1-2.5,10.7-3.4C524.1,352.1,521.6,349.7,520.6,349.2z M481.8,360.5
	c-9.6,3.9-19.7,7.7-26.9,15.5c-5.1,5.6-7.8,12.4-9.6,19.7c-4.8,19.6-7,39.2-21.9,54.3c-6.8,6.9-16.5,13.5-24.9,16.6
	c-11.3,4.2-22.7,8.1-34,12.2c-9.3-5.1-18.7-10.1-28-15.2c17.8-6.1,37.2-11,52.1-22.9c7.1-5.7,13.2-12.7,17.4-20.7
	c4.9-9.2,7-19.8,9.2-29.9c1.6-7.6,3-15.6,6.7-22.6c4.1-7.7,11.1-12.8,18.8-16.5c11.2-5.5,23.2-9.9,35-14c3-1.1,6.1-2.1,9.2-3
	c9.3,5,18.6,10.1,27.9,15.1C502.1,351.9,491.8,356.4,481.8,360.5z"/>
<g>
	<path d="M536,436.8c-6.2-24.6-12.3-49.3-18.5-73.9c-0.9-3.5-1.8-7.1-2.7-10.6c-0.1-0.4-0.5-0.7-1-1c-0.6-0.3-1.2-0.6-1.6-0.4
		c-8.7,3.3-17.5,6.5-26.2,9.8c-0.4,0.2-0.5,0.4-0.4,0.8c3.1,14.3,6.3,28.7,9.4,43c0.9,3.9,1.7,7.8,2.6,11.7c0.4,1.8,0.5,4.5,1.3,6.2
		c0.6,1.2,1.5,1.5,2.7,2c3.3,1.4,6.6,2.6,10,4c7.6,3,15.3,6.1,22.9,9.1C535.1,437.7,536.3,437.8,536,436.8z M509,425.4
		c-2-0.8-4.1-1.6-6.1-2.4c-0.1-0.1-0.7-0.3-1-0.8c-0.3-1.9-1.4-5.7-1.5-6.1c-2.4-10.9-4.8-21.7-7.1-32.6c-1.1-5-2.2-10-3.3-15
		c-0.3-1.4-1.5-4.1-1.5-5.8c0.1-0.1,0.4-0.3,0.9-0.4c0.9-0.1,2-0.8,2.9-1.1c3-1.1,6-2.2,9-3.4c3.7-1.4,7.4-2.7,11-4.1
		c6,23.9,12,47.8,18,71.7c0.8,3.1,3,8.2,2.3,9.2S516.9,428.5,509,425.4z"/>
</g>
<path d="M495.9,412.1c11.2,4.1,22.4,8.3,33.5,12.4c0.9,0.4,3.4-2.6,2.3-2.9c-11.2-4.1-22.4-8.3-33.5-12.4
	C497.3,408.8,494.9,411.7,495.9,412.1L495.9,412.1z"/>
<path d="M493,397.1c11.2,4.1,22.4,8.3,33.5,12.4c1.3,0.5,4.5-0.6,2.1-1.4c-11.2-4.1-22.4-8.3-33.5-12.4
	C493.8,395.2,490.6,396.2,493,397.1L493,397.1z"/>
<path d="M489.4,383.7c11.2,4.1,22.4,8.3,33.5,12.4c0.8,0.3,4-1,2.8-1.4c-11.2-4.1-22.4-8.3-33.5-12.4
	C491.4,381.9,488.3,383.2,489.4,383.7L489.4,383.7z"/>
<path d="M487.1,369.3c11.2,4.1,22.4,8.3,33.5,12.4c1.5,0.6,3.7-0.3,1.3-1.2c-11.2-4.1-22.4-8.3-33.5-12.4
	C486.9,367.5,484.7,368.4,487.1,369.3L487.1,369.3z"/>
<g>
	<g>
		<path d="M0.8,517.1c18.8,0,37.5,0,56.3,0c45.2,0,90.5,0,135.7,0c54.6,0,109.1,0,163.7,0c47.2,0,94.3,0,141.5,0
			c15.5,0,31.1,0,46.6,0c4.8,0,9.7,0,14.5,0c2.2,0,5.5,0.6,7.6,0c0.3-0.1,0.7,0,1,0c-0.6-0.6-1.3-1.2-1.9-1.8c0,10.9,0,21.9,0,32.8
			c0,5.4-0.3,10.8,0,16.2c0.1,1-0.4,1.9,0.2,1.5c-0.1,0.1-0.4,0-0.5,0c-2.1,0.6-5.4,0-7.5,0c-5.2,0-10.5,0-15.7,0
			c-41.8,0-83.5,0-125.3,0c-58.6,0-117.2,0-175.7,0c-53.6,0-107.2,0-160.7,0c-18,0-36,0-54.1,0c-5.8,0-11.6,0-17.3,0
			c-2.7,0-6.2-0.6-8.9,0c-0.3,0.1-0.8,0-1.1,0c0.6,0.6,1.3,1.2,1.9,1.8c0-17,0-34,0-50.9c0-0.8-2.2-2.5-2.2-1.4c0,17,0,34,0,50.9
			c0,0.8,1.2,1.8,1.9,1.8c18.8,0,37.5,0,56.3,0c45.2,0,90.5,0,135.7,0c54.6,0,109.1,0,163.7,0c47.2,0,94.3,0,141.5,0
			c15.5,0,31.1,0,46.6,0c4.8,0,9.7,0,14.5,0c2.2,0,5.5,0.7,7.6,0c0.3-0.1,0.7,0,1,0c0.2,0,0.2-0.3,0.2-0.4c0-17,0-34,0-50.9
			c0-0.8-1.2-1.8-1.9-1.8c-18.8,0-37.5,0-56.3,0c-45.2,0-90.5,0-135.7,0c-54.6,0-109.1,0-163.7,0c-47.2,0-94.3,0-141.5,0
			c-15.5,0-31.1,0-46.6,0c-4.8,0-9.7,0-14.5,0c-2.2,0-5.5-0.7-7.6,0c-0.3,0.1-0.7,0-1,0C-1.5,514.9-0.1,517.1,0.8,517.1z"/>
	</g>
</g>
<g>
	<g>
		<path d="M478.4,515.3c0,17,0,34,0,50.9c0,1,1.4,3.6,1.4,1.4c0-17,0-34,0-50.9C479.9,515.7,478.4,513.1,478.4,515.3L478.4,515.3z"
			/>
	</g>
</g>
<g>
	<g>
		<path d="M492.9,515.2c0,17,0,34,0,50.9c0,1.2,3.1,2.8,3.1,1.7c0-17,0-34,0-50.9C496,515.7,492.9,514,492.9,515.2L492.9,515.2z"/>
	</g>
</g>
<g>
	<g>
		<path d="M510.1,516c0,17,0,34,0,50.9c0,1.6,1.3,1.6,1.3,0c0-17,0-34,0-50.9C511.5,514.4,510.1,514.4,510.1,516L510.1,516z"/>
	</g>
</g>
<g>
	<g>
		<path d="M523.4,515.7c0,17,0,34,0,50.9c0,0.6,2,1.3,2,0.6c0-17,0-34,0-50.9C525.3,515.7,523.4,515.1,523.4,515.7L523.4,515.7z"/>
	</g>
</g>
<g>
	<g>
		<path d="M538.5,516.3c0,17,0,34,0,50.9c0,0.9,2.3,0.1,2.3-0.7c0-17,0-34,0-50.9C540.8,514.8,538.5,515.5,538.5,516.3L538.5,516.3z
			"/>
	</g>
</g>
<g>
	<g>
		<path d="M555.5,516c0,17,0,34,0,50.9c0,1.4,1,1.3,1-0.1c0-17,0-34,0-50.9C556.5,514.6,555.5,514.7,555.5,516L555.5,516z"/>
	</g>
</g>
<g>
	<g>
		<path d="M388.7,515.3c0,17,0,34,0,50.9c0,1,1.4,3.6,1.4,1.4c0-17,0-34,0-50.9C390.1,515.7,388.7,513.1,388.7,515.3L388.7,515.3z"
			/>
	</g>
</g>
<g>
	<g>
		<path d="M403.2,515.2c0,17,0,34,0,50.9c0,1.2,3.1,2.8,3.1,1.7c0-17,0-34,0-50.9C406.3,515.7,403.2,514,403.2,515.2L403.2,515.2z"
			/>
	</g>
</g>
<g>
	<g>
		<path d="M420.4,516c0,17,0,34,0,50.9c0,1.6,1.3,1.6,1.3,0c0-17,0-34,0-50.9C421.8,514.4,420.4,514.4,420.4,516L420.4,516z"/>
	</g>
</g>
<g>
	<g>
		<path d="M433.6,515.7c0,17,0,34,0,50.9c0,0.6,2,1.3,2,0.6c0-17,0-34,0-50.9C435.6,515.7,433.6,515.1,433.6,515.7L433.6,515.7z"/>
	</g>
</g>
<g>
	<g>
		<path d="M448.8,516.3c0,17,0,34,0,50.9c0,0.9,2.3,0.1,2.3-0.7c0-17,0-34,0-50.9C451.1,514.8,448.8,515.5,448.8,516.3L448.8,516.3z
			"/>
	</g>
</g>
<g>
	<g>
		<path d="M465.8,516c0,17,0,34,0,50.9c0,1.4,1,1.3,1-0.1c0-17,0-34,0-50.9C466.8,514.6,465.8,514.7,465.8,516L465.8,516z"/>
	</g>
</g>
<g>
	<g>
		<path d="M299,515.3c0,17,0,34,0,50.9c0,1,1.4,3.6,1.4,1.4c0-17,0-34,0-50.9C300.4,515.7,299,513.1,299,515.3L299,515.3z"/>
	</g>
</g>
<g>
	<g>
		<path d="M313.5,515.2c0,17,0,34,0,50.9c0,1.2,3.1,2.8,3.1,1.7c0-17,0-34,0-50.9C316.6,515.7,313.5,514,313.5,515.2L313.5,515.2z"
			/>
	</g>
</g>
<g>
	<g>
		<path d="M330.7,516c0,17,0,34,0,50.9c0,1.6,1.3,1.6,1.3,0c0-17,0-34,0-50.9C332.1,514.4,330.7,514.4,330.7,516L330.7,516z"/>
	</g>
</g>
<g>
	<g>
		<path d="M343.9,515.7c0,17,0,34,0,50.9c0,0.6,2,1.3,2,0.6c0-17,0-34,0-50.9C345.9,515.7,343.9,515.1,343.9,515.7L343.9,515.7z"/>
	</g>
</g>
<g>
	<g>
		<path d="M359.1,516.3c0,17,0,34,0,50.9c0,0.9,2.3,0.1,2.3-0.7c0-17,0-34,0-50.9C361.4,514.8,359.1,515.5,359.1,516.3L359.1,516.3z
			"/>
	</g>
</g>
<g>
	<g>
		<path d="M376.1,516c0,17,0,34,0,50.9c0,1.4,1,1.3,1-0.1c0-17,0-34,0-50.9C377.1,514.6,376.1,514.7,376.1,516L376.1,516z"/>
	</g>
</g>
<g>
	<g>
		<path d="M209.3,515.3c0,17,0,34,0,50.9c0,1,1.4,3.6,1.4,1.4c0-17,0-34,0-50.9C210.7,515.7,209.3,513.1,209.3,515.3L209.3,515.3z"
			/>
	</g>
</g>
<g>
	<g>
		<path d="M223.8,515.2c0,17,0,34,0,50.9c0,1.2,3.1,2.8,3.1,1.7c0-17,0-34,0-50.9C226.9,515.7,223.8,514,223.8,515.2L223.8,515.2z"
			/>
	</g>
</g>
<g>
	<g>
		<path d="M241,516c0,17,0,34,0,50.9c0,1.6,1.3,1.6,1.3,0c0-17,0-34,0-50.9C242.3,514.4,241,514.4,241,516L241,516z"/>
	</g>
</g>
<g>
	<g>
		<path d="M254.2,515.7c0,17,0,34,0,50.9c0,0.6,2,1.3,2,0.6c0-17,0-34,0-50.9C256.2,515.7,254.2,515.1,254.2,515.7L254.2,515.7z"/>
	</g>
</g>
<g>
	<g>
		<path d="M269.4,516.3c0,17,0,34,0,50.9c0,0.9,2.3,0.1,2.3-0.7c0-17,0-34,0-50.9C271.7,514.8,269.4,515.5,269.4,516.3L269.4,516.3z
			"/>
	</g>
</g>
<g>
	<g>
		<path d="M286.4,516c0,17,0,34,0,50.9c0,1.4,1,1.3,1-0.1c0-17,0-34,0-50.9C287.4,514.6,286.4,514.7,286.4,516L286.4,516z"/>
	</g>
</g>
<g>
	<g>
		<path d="M114.7,515.3c0,17,0,34,0,50.9c0,1,1.4,3.6,1.4,1.4c0-17,0-34,0-50.9C116.1,515.7,114.7,513.1,114.7,515.3L114.7,515.3z"
			/>
	</g>
</g>
<g>
	<g>
		<path d="M129.2,515.2c0,17,0,34,0,50.9c0,1.2,3.1,2.8,3.1,1.7c0-17,0-34,0-50.9C132.3,515.7,129.2,514,129.2,515.2L129.2,515.2z"
			/>
	</g>
</g>
<g>
	<g>
		<path d="M146.4,516c0,17,0,34,0,50.9c0,1.6,1.3,1.6,1.3,0c0-17,0-34,0-50.9C147.7,514.4,146.4,514.4,146.4,516L146.4,516z"/>
	</g>
</g>
<g>
	<g>
		<path d="M159.6,515.7c0,17,0,34,0,50.9c0,0.6,2,1.3,2,0.6c0-17,0-34,0-50.9C161.6,515.7,159.6,515.1,159.6,515.7L159.6,515.7z"/>
	</g>
</g>
<g>
	<g>
		<path d="M174.8,516.3c0,17,0,34,0,50.9c0,0.9,2.3,0.1,2.3-0.7c0-17,0-34,0-50.9C177.1,514.8,174.8,515.5,174.8,516.3L174.8,516.3z
			"/>
	</g>
</g>
<g>
	<g>
		<path d="M191.7,516c0,17,0,34,0,50.9c0,1.4,1,1.3,1-0.1c0-17,0-34,0-50.9C192.8,514.6,191.7,514.7,191.7,516L191.7,516z"/>
	</g>
</g>
<g>
	<g>
		<path d="M25,515.3c0,17,0,34,0,50.9c0,1,1.4,3.6,1.4,1.4c0-17,0-34,0-50.9C26.4,515.7,25,513.1,25,515.3L25,515.3z"/>
	</g>
</g>
<g>
	<g>
		<path d="M39.5,515.2c0,17,0,34,0,50.9c0,1.2,3.1,2.8,3.1,1.7c0-17,0-34,0-50.9C42.5,515.7,39.5,514,39.5,515.2L39.5,515.2z"/>
	</g>
</g>
<g>
	<g>
		<path d="M9.8,515.2c0,17,0,34,0,50.9c0,1.2,3.1,2.8,3.1,1.7c0-17,0-34,0-50.9C12.9,515.7,9.8,514,9.8,515.2L9.8,515.2z"/>
	</g>
</g>
<g>
	<g>
		<path d="M56.7,516c0,17,0,34,0,50.9c0,1.6,1.3,1.6,1.3,0c0-17,0-34,0-50.9C58,514.4,56.7,514.4,56.7,516L56.7,516z"/>
	</g>
</g>
<g>
	<g>
		<path d="M69.9,515.7c0,17,0,34,0,50.9c0,0.6,2,1.3,2,0.6c0-17,0-34,0-50.9C71.9,515.7,69.9,515.1,69.9,515.7L69.9,515.7z"/>
	</g>
</g>
<g>
	<g>
		<path d="M85.1,516.3c0,17,0,34,0,50.9c0,0.9,2.3,0.1,2.3-0.7c0-17,0-34,0-50.9C87.4,514.8,85.1,515.5,85.1,516.3L85.1,516.3z"/>
	</g>
</g>
<g>
	<g>
		<path d="M102,516c0,17,0,34,0,50.9c0,1.4,1,1.3,1-0.1c0-17,0-34,0-50.9C103.1,514.6,102,514.7,102,516L102,516z"/>
	</g>
</g>
</svg>
