<?xml version="1.0" encoding="utf-8"?>
<!-- Generator: Adobe Illustrator 23.0.1, SVG Export Plug-In . SVG Version: 6.00 Build 0)  -->
<svg version="1.1" id="Layer_1" xmlns="http://www.w3.org/2000/svg" xmlns:xlink="http://www.w3.org/1999/xlink" x="0px" y="0px"
	 viewBox="0 0 566.93 566.93" enable-background="new 0 0 566.93 566.93" xml:space="preserve">
<g id="Layer_3">
	<g>
		<path d="M567.325,529.891c-12.166,1.403-24.232,1.977-36.305,2.079c-0.121-0.216-0.298-0.342-0.552-0.313
			c-1.022,0.118-2.043,0.221-3.064,0.328c-11.225,0.01-76.717,0.477-80.155,0.717c-6.838-0.055-13.654,0.137-20.489,0.552
			c-2.041-0.068-6.914-0.017-7.214,0.512c-11.627,0.935-23.233,1.868-34.891,0.97c0.021-0.744-0.418-1.693-0.895-2.473
			c0.806-0.728-0.75-2.149-2.262-2.756c-1.479-1.541-3.045-2.984-4.435-4.635c-1.898-2.256-4.018-4.302-6.167-6.315
			c-0.182-2.22-0.45-4.43-0.812-6.635c0.311-0.027,0.621-0.049,0.932-0.076c1.877-0.166,1.191-5.912-0.788-5.736
			c-1.119,0.099-2.237,0.186-3.356,0.274c-0.743-0.556-1.463-1.152-2.199-1.741c-0.048-0.039-0.098-0.074-0.147-0.112
			c9.591,0.171,19.159-0.634,28.74-1.402c7.607-0.61,83.744,0.072,95.771-0.745c0.779,0.029,1.557,0.051,2.336,0.085
			c2.395,0.105,51.313,1.02,72.318-1.402c1.299-0.15,2.284-5.061,0.791-4.889c-19.913,2.296-39.558,2.376-59.406,1.789
			c0.096-1.011-0.087-1.863-0.723-1.789c-1.189,0.137-2.377,0.26-3.564,0.381c-0.821-37.048,0.043-74.036,1.854-111.052
			c1.907-38.976,2.771-77.853,0.831-116.85c-0.07-1.415-3.799-4.581-3.699-2.582c1.94,38.997,1.076,77.874-0.831,116.85
			c-1.859,37.992-2.727,75.954-1.791,113.982c-2.232,0.201-4.463,0.384-6.691,0.536c-11.961-0.478-23.801-0.204-35.734,0.752
			c-8.004-0.132-16.029-0.411-24.105-0.742c-12.062-0.494-23.999-0.222-36.03,0.743c-6.768,0.542-13.528,1.097-20.294,1.324
			c-0.857-0.434-27.854-1.195-40.35-1.393c-12.183-0.193-24.371-0.082-36.55,0.266c-18.954,0.542-37.778,1.306-56.68,1.33
			c-1.028-0.513-3.584-0.526-4.54-0.022c-0.067,0-0.134-0.001-0.201-0.001c0.247-1.217-49.624-1.591-74.312-1.941
			c-4.552-0.065-9.103-0.045-13.655,0.003c-0.07-0.285-35.933,0.356-53.708,0.226c-1.505-17.436-0.588-35.389-0.288-52.78
			c0.346-20.02,0.943-40.036,1.462-60.052c1.004-38.699,3.55-77.451-0.474-116.031c-0.14-1.34-4.061-4.114-3.858-2.172
			c4.133,39.631,1.37,79.558,0.339,119.314c-0.51,19.662-1.098,39.325-1.407,58.992c-0.273,17.395-1.142,35.307,0.564,52.7
			c-5.669-0.051-11.34-0.12-17.013-0.201c-24.325-0.345-48.649,1.321-72.962,0.605c-1.548-0.046-2.414,4.903-1.326,4.935
			c24.313,0.716,48.638-0.95,72.962-0.605c4.782,0.068,9.562,0.125,14.341,0.173c0.117,0.02,0.235,0.034,0.354,0.044
			c0.079,0.232,0.201,0.382,0.382,0.387c1.517,0.045,51.132-0.915,72.962-0.605c21.784,0.309,43.524,0.486,65.292-0.151
			c2.056,0.031,4.109,0.027,6.16-0.025c-2.03,1.311-4.085,2.592-6.199,3.749c-0.88,0.038-1.76,0.073-2.64,0.117
			c-0.653,0.033-0.992,0.78-1.074,1.722h-0.001c-0.505,0.222-1.009,0.446-1.524,0.646c-1.489,0.579-1.486,1.098-0.858,1.464
			c-0.119,0.24-0.199,0.482-0.202,0.72c-0.035,3.05-0.025,6.1,0.02,9.15c-0.041,0.043-0.09,0.081-0.129,0.126
			c-2.368,2.721-4.607,5.734-7.243,8.2c-0.574,0.537-1.156,1.026-1.73,1.509c-19.872,2.272-69.25,0.919-73.853,1.232
			c-11.929-0.473-23.739-0.198-35.641,0.756c-0.005,0-0.011,0.001-0.017,0.001c-8.047-0.131-16.113-0.411-24.233-0.744
			c-12.062-0.494-23.999-0.222-36.03,0.743c-12.308,0.986-24.59,2.057-36.932,1.006c-1.502-0.128-2.482,4.836-1.326,4.935
			c12.341,1.05,24.625-0.02,36.932-1.006c7.316-0.586,47.688,1.011,59.852,0.034c12.008,0.2,23.969,0.035,35.974-0.782
			c0.811,0.029,1.62,0.053,2.432,0.089c23.249,1.021,46.127,1.35,69.268-1.074c0.323,0.136,0.771,0.2,1.212,0.224
			c-0.054,0.301-0.093,0.593-0.095,0.855c-0.039,5.463-0.958,10.872-0.819,16.34c0.06,2.36,1.492,1.329,2.698-0.37
			c0.539,0.249,1.055,0.412,1.381,0.398c29.137-1.31,58.03-1.497,87.179-0.676c27.692,0.781,55.372-0.187,83.026-1.614
			c0.77,2.382,3.803,5.008,3.727,1.172c-0.009-0.467-0.026-0.934-0.038-1.401c0.588-0.157,0.444-0.563-0.027-1.006
			c-0.087-3.098-0.221-6.193-0.406-9.285c11.659,0.779,23.272-0.205,34.904-1.137c2.033-0.163,4.062-0.297,6.09-0.419
			c6.713,0.221,13.414-0.067,20.114-0.531c3.917,0.026,7.838,0.117,11.775,0.29c22.994,1.01,45.623,1.346,68.505-0.992
			c13.542-0.021,27.056-0.605,40.67-2.175C567.833,534.631,568.818,529.719,567.325,529.891z M368.261,517.584
			c-0.095,0.132-0.179,0.293-0.235,0.526c-0.059,0.246-0.038,0.523,0.015,0.809c-11.866,2.075-23.866,2.128-35.894,2.023
			c-11.87-0.104-23.684,0.495-35.545,0.677c-11.893,0.182-23.62-2.011-35.493-1.915c-11.868,0.096-23.67,2.037-35.457,0.242
			c0.007-0.008,0.014-0.016,0.021-0.024c0.629-0.722,0.204-1.147-0.428-1.375c0.002-0.034,0.015-0.069,0.014-0.103
			c-0.037-2.13-0.048-4.259-0.046-6.389c47.487-2.201,95.023,3.795,142.466,0.065C367.934,513.934,368.13,515.755,368.261,517.584z
			 M238.708,502.156c19.745,0.083,39.391-0.665,59.186-1.274c13.05-0.401,26.109-0.526,39.164-0.283
			c5.643,0.105,11.318,0.445,16.993,0.695c-0.54,0.412-0.994,0.934-0.446,1.247c2.108,1.205,4.05,2.812,6.032,4.338
			c-42.325,2.483-84.719-2.046-127.079-0.866C234.633,504.774,236.67,503.464,238.708,502.156z M223.869,522.018
			c10.722,1.638,21.461,0.246,32.263-0.155c12.468-0.463,24.781,1.932,37.246,1.849c12.974-0.086,25.905-0.786,38.889-0.68
			c12.143,0.099,24.271-0.037,36.234-2.332c0.18,0.72,0.584,1.418,1.149,1.875c0.225,0.182,0.785,0.509,1.152,0.462
			c1.923,1.799,3.818,3.614,5.487,5.66c0.282,0.346,0.586,0.666,0.888,0.991c-12.895,1.88-26.033,1.351-39.03,1.32
			c-14.178-0.034-28.356-0.067-42.535-0.101c-26.787-0.064-53.574-0.128-80.361-0.191c1.288-1.151,2.797-2.155,3.923-3.355
			C220.793,525.634,222.33,523.822,223.869,522.018z M295.471,549.3c-28.274-0.793-56.307-0.635-84.555,0.57
			c0.244-0.589,0.39-1.127,0.38-1.515c-0.119-4.699,0.54-9.355,0.753-14.039c0.113-0.072,0.216-0.154,0.32-0.234
			c0.023,0.001,0.05,0.008,0.072,0.008c28.686,0.068,57.372,0.137,86.058,0.205c14.178,0.034,28.356,0.068,42.535,0.101
			c13.064,0.031,26.273,0.568,39.232-1.348c0.365,4.832,0.606,9.668,0.732,14.512C352.51,549.057,323.998,550.1,295.471,549.3z"/>
		<path d="M241.168,442.232c0.097,16.75,0.395,33.5,0.602,50.248c0.013,1.009,1.937,0.824,3.539,0.194
			c0.419,0.54,0.884,0.93,1.36,1.01c8.197,1.378,16.383,0.902,24.645,0.609c8.599-0.305,16.823,0.56,25.354,1.46
			c16.5,1.74,33.165-1.003,49.572,1.953c1.936,0.349-0.013-6.103-2.159-6.507c0.041-0.098,0.063-0.195,0.062-0.292
			c-0.203-16.419-0.482-32.839-0.596-49.258c-0.114-16.375,1.426-32.562,2.2-48.896c1.548-32.655,0.802-65.514,0.997-98.2
			c0.007-1.118-2.4-0.762-4.077,0.048c-0.025-0.006-0.05-0.022-0.075-0.027c-15.636-2.932-31.536-0.212-47.268-1.944
			c-7.673-0.845-15.118-1.755-22.861-1.502c-8.328,0.272-16.553,0.884-24.815-0.557c-1.079-0.188-0.956,1.708-0.269,3.504
			c-1.47,0.396-3.002,1.247-3.007,2.052c-0.195,32.687,0.552,65.545-0.997,98.2C242.615,410.326,241.075,426.191,241.168,442.232z
			 M301.537,414.58c-0.121-2.797-0.241-7.593-0.362-10.39c12.683,1.103,25.394,1.361,38.12,0.753
			c0.025-0.001,0.048,1.987,0.072,1.984c-0.161,2.56-0.322,5.12-0.481,7.679c-0.302-0.167-0.586-0.271-0.816-0.269
			C325.892,414.417,313.714,414.498,301.537,414.58z M249.036,392.752c1.508-31.804,0.845-63.799,0.989-95.642
			c8.19,1.394,16.349,0.79,24.605,0.527c7.744-0.246,15.185,0.657,22.861,1.502c14.496,1.597,29.133-0.577,43.577,1.364
			c-0.112,31.242,0.495,62.625-0.984,93.823c-0.115,2.422-0.25,4.841-0.393,7.258c-13.511,0.597-27.005,0.238-40.467-1.094
			c-0.544-0.054-1.026,0.425-1.39,1.115c-0.572,0.004-0.983,0.226-0.96,0.768c0.187,4.332,0.374,8.665,0.561,12.997
			c0.029,0.667,0.845,1.316,1.749,1.694c0.56,0.46,1.161,0.801,1.581,0.798c12.645-0.084,25.291-0.169,37.936-0.253
			c-0.487,8.19-0.872,16.384-0.824,24.624c0.093,16.056,0.369,32.113,0.574,48.168c-14.584-1.585-29.333,0.385-43.953-1.157
			c-8.197-0.865-16.132-1.769-24.399-1.493c-7.61,0.254-15.161,0.723-22.712-0.171c-0.198-15.31-0.446-30.62-0.552-45.93
			C246.722,425.273,248.262,409.086,249.036,392.752z"/>
		<path d="M325.339,332.965c-1.603-3.783-7.322-4.475-12.255-4.536c-0.019-0.014-0.034-0.033-0.055-0.044
			c-3.228-1.711-6.998-3.302-10.15-5.458c0.636-0.461,1.046-1.127,0.214-1.762c-1.228-0.936-2.708-1.509-4.285-1.792
			c-0.147-0.029-0.295-0.058-0.445-0.069c-1.016-0.145-2.064-0.179-3.109-0.105c-1.417-0.312-2.915-0.322-4.092,0.665
			c-0.069,0.058-0.121,0.128-0.165,0.204c-0.682,0.233-1.338,0.502-1.944,0.81c-1.173,0.595-1.304,1.579-0.301,2.313
			c-1.561,1.286-2.989,2.763-4.677,3.893c-1.692,1.134-3.577,1.942-5.494,2.668c-4.746-0.215-11.618-0.931-14.249,2.637
			c-3.27,4.434-2.184,13.397-2.192,18.568c-0.008,4.882-1.045,12.33,2.283,16.401c3.604,4.409,11.323,3.386,16.328,3.511
			c8.213,0.205,16.431,0.118,24.644,0.348c4.274,0.12,8.521,0.434,12.787,0.687c2.448,0.145,4.966,0.259,6.832-1.638
			c1.527-1.554,1.574-3.797,1.724-5.833c0.301-4.085,0.248-8.233,0.183-12.325C326.829,346.277,327.642,338.4,325.339,332.965z
			 M292.497,323.986c0.633,0.65,1.377,1.327,2.246,1.627c0.555,0.192,1.218,0.377,1.726-0.048c0.29-0.243,0.492-0.341,0.984-0.367
			c-0.074,0.019,0.493,0.063,0.493,0.063c0.352,0.056,0.698,0.15,1.042,0.243c0.466,0.126,0.955-0.101,1.196-0.497
			c1.72,1.354,3.672,2.492,5.673,3.537c-6.783,0.151-13.537,0.819-20.316,0.899c0.144-0.082,0.291-0.158,0.432-0.244
			C288.366,327.749,290.25,325.602,292.497,323.986z M320.255,365.891c-3.058,0.31-6.475-0.424-9.526-0.577
			c-6.892-0.347-13.793-0.368-20.692-0.43c-3.615-0.033-7.23-0.07-10.844-0.171c-3.195-0.089-8.074,0.498-11.04-0.908
			c-3.483-1.651-2.763-6.385-2.803-9.636c-0.045-3.73,0.052-7.468,0.297-11.19c0.255-3.891,0.625-6.543,4.935-6.798
			c3.575-0.212,7.186-0.169,10.766-0.253c0.311-0.007,0.56-0.155,0.764-0.383c6.491,0.199,12.939-0.328,19.421-0.678
			c3.418-0.185,6.841-0.31,10.264-0.185c2.684,0.098,8.782-0.375,10.781,1.487c1.061,0.988,0.869,5.065,0.874,7.135
			c-0.476-1.064-1.809-2.386-2.275-1.706c-2.069,3.025-2.986,6.463-3.851,9.935c-0.496-2.853-1.282-5.656-2.343-8.424
			c-0.157-0.41-1.752-2.713-2.217-1.733c-1.224,2.58-2.864,4.921-4.046,7.527c-1.204,2.655-2.144,5.425-3.137,8.163
			c-0.359,0.99,2.051,3.542,2.37,2.663c0.993-2.738,1.933-5.508,3.137-8.163c0.878-1.936,2.008-3.725,3.033-5.574
			c1.08,3.946,1.523,7.993,1.382,12.142c-0.023,0.668,2.027,3.441,2.397,2.415c1.954-5.404,2.302-11.319,5.579-16.184
			c0.196,3.71,0.286,7.424,0.258,11.139C323.714,358.885,324.667,365.443,320.255,365.891z"/>
		<path d="M273.959,343.12c-0.322,0.025-0.712,0.466-0.904,0.893c-2.503,1.653-4.516,5.425-4.879,7.947
			c-0.241,1.675,0.085,4.132,1.418,5.332c1.409,1.27,4.328,1.223,6.128,1.005c3.478-0.42,6.41-3.005,6.717-6.596
			C282.817,347.284,278.354,342.786,273.959,343.12z M276.342,356.603c-2.43,0.285-5.539,0.036-6.449-2.579
			c-0.745-2.14-0.096-4.183,1.12-6.005c0.693-1.038,1.791-2.767,3.092-3.053c0.081-0.018,0.166-0.064,0.25-0.127
			C280.373,345.481,284.457,355.651,276.342,356.603z"/>
		<path d="M290.031,344.712c-1.556-1.291-3.569-1.213-5.47-1.057c-0.087,0.007-0.15,0.056-0.2,0.126
			c-0.488-0.222-0.875-0.25-0.87,0.082c0.073,4.391-0.103,8.765-0.531,13.136c-0.103,1.05,2.696,2.855,2.792,1.87
			c0.191-1.948,0.323-3.896,0.414-5.847c0.749,0.027,1.497,0.035,2.247-0.011c1.029-0.063,2.385-0.07,3.27-0.672
			c1.195-0.813,1.143-2.373,0.797-3.629C292.077,347.245,291.212,345.692,290.031,344.712z M289.028,350.906
			c-0.928,0.107-1.859,0.139-2.789,0.122c0.052-1.763,0.074-3.527,0.044-5.295c-0.001-0.041-0.013-0.084-0.021-0.126
			c2.159-0.016,4.1,0.532,5.047,2.858C292.089,350.38,290.496,350.737,289.028,350.906z"/>
		<path d="M302.32,351.261c-1.529-0.061-3.035-0.229-4.535-0.491c-0.101-1.654-0.294-3.309-0.589-4.969
			c1.472,0.037,2.969-0.381,4.513-0.13c0.996,0.162,0.612-2.466-0.252-2.606c-2.09-0.34-4.548,0.823-6.469-0.287
			c-0.943-0.545-0.87,1.506-0.314,2.225c0.623,4.104,0.677,8.196,0.097,12.331c-0.164,1.166,2.508,3.459,2.646,2.476
			c0.018-0.125,0.029-0.25,0.046-0.375c1.872-0.329,3.752-0.481,5.661-0.421c1.067,0.034-0.177-1.891-0.922-1.915
			c-1.515-0.048-3.016,0.026-4.509,0.206c0.149-1.724,0.2-3.443,0.15-5.16c2.006,0.404,4.031,0.651,6.078,0.733
			c0.623,0.025,0.658-0.367,0.337-0.78C303.865,351.591,302.939,351.286,302.32,351.261z"/>
		<path d="M203.831,46.669c2.623-4.415,7.92-4.806,12.568-4.803c1.743,0.001,3.38-0.333,4.225,1.02
			c1.327,2.125,0.004,5.297-1.133,7.25c-4.528,7.777-14.574,10.044-20.627,16.331c-2.576,2.676,3.784,10.771,6.837,10.645
			c10.763-0.446,21.527-0.892,32.29-1.338c3.323-0.138-2.416-10.999-6.167-10.843c-2.99,0.124-5.979,0.248-8.969,0.372
			c0.607-0.519,1.198-1.061,1.757-1.646c5.041-5.281,6.221-11.536,3.243-18.234c-2.546-5.727-7.435-13.229-14.198-14.251
			c-6.599-0.998-14.5,0.075-18.137,6.195C193.758,40.331,201.865,49.977,203.831,46.669z"/>
		<path d="M262.327,66.177c-0.354,4.684-0.708,9.368-1.061,14.053c-0.205,2.718,11.571,1.588,11.871-2.388
			c0.293-3.878,0.586-7.757,0.879-11.635c1.603-0.13,3.154-0.288,4.598-0.45c2.227-0.25-1.13-5.471-4.041-6.93
			c0.32-4.234,0.64-8.468,0.96-12.702c0.205-2.718-11.571-1.588-11.871,2.388c-0.269,3.567-0.539,7.135-0.808,10.702
			c-5.017,0.052-10.018-0.59-10.884-3.317c-1.064-3.349,0.018-7.674,0.452-11.078c0.418-3.281,0.717-6.503,0.617-9.81
			c-0.081-2.676-7.346-8.289-7.227-4.383c0.304,9.992-4.683,21.591,3.281,29.883C252.451,64.006,257.24,65.583,262.327,66.177z"/>
		<path d="M290.256,81.16c12.193-13.164,19.801-29.995,33.338-41.983c0.86-0.761-2.292-4.162-3.228-3.333
			c-13.536,11.987-21.146,28.819-33.338,41.983C286.184,78.738,289.471,82.007,290.256,81.16z"/>
		<path d="M346.717,43.095c6.003,1.114,12.035,1.825,18.077,2.14c-0.627,0.475-1.242,0.956-1.829,1.448
			c-2.667,2.24-4.85,5.025-5.984,8.311c-1.814,0.14-3.627,0.284-5.441,0.415c-3.136,0.226-6.805,9.635-3.735,9.414
			c2.596-0.187,5.19-0.387,7.785-0.593c-0.242,2.405-0.637,4.777-1.77,7.046c-1.356,2.715,5.29,10.588,6.653,7.858
			c1.896-3.798,1.91-7.768,2.339-11.914c0.135-1.298,0.371-2.508,0.704-3.653c6.343-0.554,12.682-1.16,19.015-1.83
			c3.15-0.333,6.714-9.73,3.735-9.414c-5.079,0.537-10.161,1.031-15.246,1.493c6.529-4.869,15.24-8.888,22.912-10.159
			c3.153-0.522-1.854-9.586-4.794-9.112c-15.717,2.532-31.564,2.343-47.216-0.562c-2.115-0.393-0.376,3.937-0.078,4.523
			C342.806,40.393,344.501,42.684,346.717,43.095z"/>
		<path d="M66.483,210.539c1.155,12.933,1.375,25.875,0.659,38.835c-0.408,0.959-0.656,2.176-0.466,2.805
			c1.279,4.232,2.765,8.995,6.659,11.564c4.11,2.712,10.641,3.664,15.414,2.94c7.704-1.169,15.487-8.321,16.99-16.052
			c0.582-0.013,1.159,0.017,1.755,0.172c0.936,0.243,1.757,0.231,2.606-0.289c-0.156,0.647-0.212,1.272-0.093,1.666
			c1.279,4.232,2.765,8.995,6.659,11.564c4.11,2.712,10.641,3.664,15.414,2.94c7.581-1.15,15.239-8.095,16.914-15.684
			c0.315,0.111,0.635,0.188,0.957,0.201c0.53,0.022,1.06,0.043,1.589,0.065c-0.037,0.356-0.032,0.679,0.039,0.914
			c1.279,4.232,2.765,8.995,6.659,11.564c4.11,2.712,10.642,3.664,15.414,2.94c7.368-1.118,14.797-7.711,16.748-15.047
			c1.493,0.065,2.973,0.053,4.466-0.057c-0.005,0.229,0.011,0.436,0.061,0.6c1.279,4.232,2.765,8.995,6.659,11.564
			c4.11,2.712,10.641,3.664,15.414,2.94c7.718-1.171,15.513-8.347,16.997-16.094c1.445,0,2.89,0,4.336,0
			c-0.142,0.62-0.188,1.211-0.074,1.59c1.279,4.232,2.765,8.995,6.659,11.564c4.11,2.712,10.641,3.664,15.414,2.94
			c7.766-1.178,15.606-8.437,17.019-16.239c0.87-0.027,1.741-0.053,2.611-0.08c-0.185,0.699-0.259,1.391-0.13,1.816
			c1.279,4.232,2.765,8.995,6.659,11.564c4.11,2.712,10.642,3.664,15.414,2.94c7.723-1.172,15.523-8.356,16.999-16.109
			c1.254,0.194,2.511,0.33,3.772,0.412c-0.075,0.468-0.086,0.897,0.003,1.193c1.279,4.232,2.765,8.995,6.659,11.564
			c4.11,2.712,10.641,3.664,15.414,2.94c7.968-1.209,16.01-8.819,17.111-16.849c1.489,0.046,2.978,0.025,4.467-0.086
			c-0.317,0.883-0.485,1.881-0.319,2.431c1.279,4.232,2.765,8.995,6.659,11.564c4.11,2.712,10.641,3.664,15.414,2.94
			c7.909-1.2,15.89-8.707,17.085-16.672c0.883,0,1.766,0,2.648,0c-0.258,0.812-0.383,1.672-0.233,2.168
			c1.279,4.232,2.765,8.995,6.659,11.564c4.11,2.712,10.642,3.664,15.414,2.94c7.475-1.134,15.016-7.903,16.831-15.367
			c1.839,0.135,3.677,0.27,5.516,0.406c0.005,0.17,0.02,0.329,0.058,0.458c1.279,4.232,2.765,8.995,6.659,11.564
			c4.11,2.712,10.642,3.664,15.414,2.94c7.663-1.163,15.409-8.244,16.971-15.927c0.837,0.116,1.669,0.268,2.495,0.446
			c-0.045,0.382-0.042,0.727,0.033,0.977c1.279,4.232,2.765,8.995,6.659,11.564c4.11,2.712,10.642,3.664,15.414,2.94
			c7.915-1.201,15.901-8.718,17.087-16.689c1.085-0.45,2.021-1.189,1.835-1.922c-3.196-12.596-0.944-25.656,0.424-38.359
			c0.063-0.589-0.574-0.767-1.401-0.68c0.101-0.167,0.144-0.343,0.093-0.523c-1.17-4.133-3.39-7.593-5.564-11.253
			c-2.649-4.461-4.438-9.2-6.167-14.071c-3.402-9.583-6.831-19.175-11.084-28.421c-4.033-8.766-9.15-16.921-13.635-25.449
			c-4.806-9.139-7.631-18.506-9.782-28.56c-0.088-0.411-10.746-0.42-10.76-0.421c-15.693-0.815-31.405-1.159-47.119-0.973
			c-8.725,0.103-17.536,0.702-26.316,0.77c-4.351-29.816,1.742-59.773,1.615-89.712c0.385,0.006,0.77,0.012,1.155,0.018
			c1.502,0.025,1.024-5.459-0.811-5.49c-0.786-0.013-1.571-0.024-2.357-0.037c-0.472-0.443-0.876-0.556-1.023-0.016
			c-70.652-1.176-141.31-1.627-211.967-1.349c-0.477,0.002-0.755,0.539-0.855,1.276c-0.637-1.149-1.758-0.615-1.437,1.339
			c2.606,15.889-2.03,32.088-2.64,48.001c-0.53,13.826,0.496,27.628,2.905,41.243c-0.099-0.013-8.831,1.662-12.325,1.923
			c-19.69,1.471-39.433,3.64-59.074,0.454c-0.638-0.103-1.127,0.75-1.394,1.887c-0.38-0.189-0.689-0.224-0.823-0.01
			c-10.007,16.079-17.847,33.543-25.885,50.661c-8.392,17.873-16.176,36.037-21.952,54.941c-0.162,0.529,0.239,1.325,0.827,2.052
			C66.759,208.07,66.374,209.321,66.483,210.539z M384.912,98.299c-15.316,0.172-30.633,0.237-45.949,0.227
			c-15.272-0.752-30.552-1.334-45.84-1.666c-17.49-0.379-34.986-0.44-52.477-0.103c-0.888,0.017-1.777,0.035-2.665,0.054
			c-13.711-0.434-27.428-0.734-41.113-0.452c-2.368-0.191-4.734-0.43-7.099-0.717c-2.801-15.605-3.713-31.461-2.464-47.279
			c1.055-13.367,4.06-26.579,2.461-39.974c0.263,0.393,0.588,0.65,0.977,0.649c70.367-0.277,140.735,0.17,211.093,1.333
			c-0.24,29.579-5.792,58.962-1.341,88.442C400.56,99.254,384.912,98.299,384.912,98.299z M70.109,208.767
			c5.592-18.303,13.062-35.914,21.153-53.236c7.983-17.092,15.804-34.589,25.683-50.696c16.779,2.603,33.673,1.392,50.517,0.043
			c17.476-1.399,34.802-1.826,52.328-1.332c34.837,0.982,69.67,1.745,104.523,1.9c20.089,0.09,75.398-0.727,75.684-0.922
			c0.83,0.003,20.474-0.678,28.663-0.777c15.329-0.185,55.087,1.442,55.571,1.022c1.996,8.672,4.577,16.897,8.727,24.895
			c4.574,8.816,9.89,17.204,14.047,26.241c4.124,8.965,7.475,18.257,10.775,27.549c1.738,4.893,3.443,9.758,6.073,14.26
			c2.28,3.902,4.723,7.542,5.967,11.936c0.099,0.351,0.489,0.507,0.983,0.53c-0.283,0.248-0.47,0.52-0.5,0.798
			c-1.391,12.913-3.631,26.152-0.383,38.955c0.055,0.216,0.234,0.347,0.48,0.421c-0.404,3.277-4.937,6.432-7.433,8.252
			c-3.554,2.591-7.475,3.463-11.841,2.988c-3.413-0.371-7.833-1.234-10.494-3.528c-2.152-1.855-3.261-4.58-4.126-7.266
			c0.919-0.458,1.758-1.14,2.3-1.779c0.854-1.006,1.429-2.67-0.294-3.059c-2.549-0.575-5.094-0.795-7.704-0.802
			c-1.734-0.005-3.81,1.488-4.638,2.951c-0.841,1.487-0.036,2.384,1.52,2.388c0.369,0.001,0.736,0.022,1.104,0.041
			c-0.548,3.21-4.952,6.281-7.4,8.066c-3.554,2.591-7.475,3.463-11.841,2.988c-3.413-0.371-7.833-1.234-10.494-3.528
			c-1.856-1.599-2.933-3.847-3.75-6.158c1.331-0.425,0.506-4.523-0.828-4.621c-3.665-0.269-7.33-0.539-10.996-0.808
			c-1.751-0.129-0.905,4.55,0.522,4.655c0.054,0.004,0.108,0.008,0.162,0.012c-0.949,2.986-4.959,5.787-7.253,7.46
			c-3.554,2.591-7.475,3.463-11.841,2.988c-3.413-0.371-7.833-1.234-10.494-3.528c-2.363-2.037-3.474-5.123-4.378-8.055
			c0.972,0,1.945,0,2.917,0c0.965,0,0.208-1.052-0.097-1.351c-0.664-0.65-1.702-1.171-2.645-1.171c-1.823,0-3.647,0-5.47,0
			c-0.139-0.078-0.305-0.07-0.482,0c-1.183,0-2.365,0-3.548,0c-0.965,0-0.208,1.052,0.097,1.351
			c0.485,0.475,1.172,0.877,1.874,1.061c-0.023,0.115-0.044,0.231-0.055,0.348c-0.318,3.315-4.928,6.518-7.451,8.357
			c-3.554,2.591-7.475,3.463-11.841,2.988c-3.413-0.371-7.833-1.234-10.494-3.528c-2.492-2.147-3.589-5.459-4.522-8.528
			c0.959-0.129,3.173-0.593,2.579-1.988c-0.56-1.314-3.452-1.378-4.532-1.238c-2.008,0.26-4.008,0.354-6.027,0.153
			c-1.22-0.121-3.883-0.286-4.573,1.078c-0.682,1.349,1.69,2,2.549,2.085c0.36,0.036,0.719,0.053,1.079,0.081
			c-0.044,0.178-0.081,0.358-0.098,0.541c-0.318,3.315-4.928,6.518-7.451,8.357c-3.554,2.591-7.475,3.463-11.841,2.988
			c-3.413-0.371-7.833-1.234-10.494-3.528c-2.08-1.793-3.187-4.398-4.039-6.996c0.349-0.003,0.696,0.008,1.046-0.004
			c1.444-0.048-1.18-4.711-2.87-4.654c-2.985,0.1-5.931-0.109-8.863-0.687c-1.906-0.376,0.186,3.469,1.692,4.358
			c-0.008,0.055-0.021,0.11-0.026,0.165c-0.318,3.315-4.928,6.518-7.451,8.357c-3.554,2.591-7.475,3.463-11.841,2.988
			c-3.413-0.371-7.833-1.234-10.494-3.528c-2.29-1.974-3.402-4.933-4.291-7.782c0.614-0.019,1.228-0.038,1.842-0.057
			c1.278-0.039,0.766-5.132-0.769-5.085c-3.083,0.095-6.166,0.189-9.249,0.284c-1.24,0.038-0.791,4.822,0.639,5.062
			c-0.509,3.229-4.948,6.323-7.409,8.117c-3.554,2.591-7.475,3.463-11.841,2.988c-3.413-0.371-7.833-1.234-10.494-3.528
			c-2.213-1.907-3.324-4.735-4.199-7.494c1.914-0.187,3.337-5.662,0.977-5.662c-2.833,0-5.667,0-8.5,0
			c-1.7,0-3.058,4.253-1.834,5.395c-0.364,3.295-4.933,6.472-7.441,8.301c-3.554,2.591-7.475,3.463-11.841,2.988
			c-3.413-0.371-7.833-1.234-10.494-3.528c-2.261-1.948-3.372-4.857-4.256-7.672c1.144-1.927,1.111-5.804-0.272-5.63
			c-2.665,0.334-5.254,0.271-7.929,0.073c-2.122-0.157-3.037,5.757-1.392,6.585c-1.098,2.883-4.94,5.564-7.164,7.185
			c-3.554,2.591-7.475,3.463-11.841,2.988c-3.413-0.371-7.833-1.234-10.494-3.528c-2.009-1.732-3.113-4.223-3.954-6.732
			c0.965-0.229,0.429-1.616-0.051-2.234c-0.863-1.114-2.347-2.372-3.842-2.433c-1.438-0.058-2.875-0.117-4.313-0.175
			c-1.465-0.06-0.845,1.589-0.313,2.276c0.227,0.293,0.499,0.595,0.8,0.883c-0.052,0.196-0.095,0.396-0.114,0.598
			c-0.318,3.315-4.928,6.518-7.451,8.357c-3.554,2.591-7.475,3.463-11.841,2.988c-3.413-0.371-7.833-1.234-10.494-3.528
			c-2.682-2.311-3.751-5.975-4.735-9.229c-0.067-0.22-0.142-0.376-0.221-0.504c0.108-0.237,0.198-0.479,0.254-0.727
			c0.21-0.929-0.361-1.501-1.253-0.944c-0.338,0.211-1.306-0.258-1.679-0.318c-0.821-0.133-1.673,0.001-2.495,0.064
			c-0.726,0.055-1.357,0.537-1.853,1.114c-0.662,0.32-1.446,1.498-1.564,2.728c-0.318,3.315-4.928,6.518-7.451,8.357
			c-3.554,2.591-7.475,3.463-11.841,2.988c-3.413-0.371-7.833-1.234-10.494-3.528c-1.945-1.676-3.037-4.064-3.868-6.49
			c0.039-0.238,0.071-0.491,0.087-0.768c0.837-13.947,0.645-27.904-0.593-41.822C69.701,209.139,70.007,209.101,70.109,208.767z"/>
		<path d="M225.099,377.966c-1.308-17.609-0.881-35.27-0.181-52.895c0.336-8.453,0.707-16.906,1.064-25.358
			c0.371-8.786,0.198-17.817,2.203-26.419c0.258-1.105,0.006-1.417-0.429-1.298c0.915-1.034,1.099-1.984-0.726-1.941
			c-19.564,0.465-39.087,0.749-58.637-0.323c-18.456-1.013-36.266-0.385-54.63,1.744c-0.226,0.026-0.482,0.076-0.746,0.137
			c0.07-0.776,0.14-1.551,0.21-2.327c0.307-3.369-3.745,1.151-3.912,2.991c-0.056,0.615-0.111,1.23-0.167,1.845
			c-0.249,0.576-0.352,1.116-0.132,1.46c-0.68,7.63-1.267,15.272-1.194,22.939c0.08,8.378,0.862,16.726,1.212,25.093
			c0.708,16.939-1.942,33.563-3.43,50.385c-3.078,34.803-2.61,69.794-0.961,104.66c-0.457,0.527-0.579,1.042,0.058,1.213
			c0.111,1.997,1.457,1.272,2.541-0.054c20.173-1.314,40.403-1.496,60.594-0.415c20.097,1.077,40.129,3.612,60.235,1.259
			c1.625-0.19,2.756-1.682,2-2.299c0.394-0.569,0.7-1.161,0.747-1.552C234.747,443.685,227.546,410.903,225.099,377.966z
			 M167.427,476.657c-19.61-0.973-39.251-0.755-58.84,0.53c0.017-0.117,0.028-0.231,0.023-0.334
			c-1.695-35.258-2.206-70.648,0.907-105.846c1.488-16.821,4.141-33.447,3.43-50.385c-0.352-8.367-1.126-16.715-1.212-25.093
			c-0.035-3.384,0.063-6.763,0.239-10.138c0.798,1.895,4.796,4.049,5.578,2.584c2.193-4.11,7.942-5.996,11.651-8.383
			c1.94-1.248-3.227-5.368-4.955-4.256c-3.88,2.496-9.807,4.505-12.199,8.759c0.164-2.814,0.373-5.625,0.611-8.435
			c8.767-1.013,17.552-1.977,26.379-2.216c9.504-0.257,18.987,0.441,28.472,0.928c18.681,0.958,37.375,0.583,56.065,0.139
			c0.658-0.016,1.648-0.489,2.565-1.119c-0.308,0.417-0.552,0.859-0.638,1.225c-1.873,8.036-1.886,16.316-2.232,24.521
			c-0.356,8.43-0.721,16.859-1.066,25.289c-0.695,16.97-1.222,33.97-0.282,50.942c1.9,34.306,10.028,68.346,6.167,102.804
			C207.884,480.463,187.624,477.659,167.427,476.657z"/>
		<path d="M485.086,377.966c-1.308-17.609-0.881-35.27-0.181-52.895c0.336-8.453,0.707-16.906,1.064-25.358
			c0.371-8.786,0.198-17.817,2.203-26.419c0.258-1.105,0.006-1.417-0.429-1.298c0.915-1.034,1.099-1.984-0.727-1.941
			c-19.564,0.465-39.087,0.749-58.637-0.323c-18.456-1.013-36.266-0.385-54.63,1.744c-0.226,0.026-0.482,0.076-0.746,0.137
			c0.07-0.776,0.14-1.551,0.21-2.327c0.307-3.369-3.745,1.151-3.912,2.991c-0.056,0.615-0.111,1.23-0.167,1.845
			c-0.249,0.576-0.352,1.116-0.132,1.46c-0.68,7.63-1.267,15.272-1.193,22.939c0.08,8.378,0.862,16.726,1.212,25.093
			c0.708,16.939-1.942,33.563-3.43,50.385c-3.078,34.803-2.61,69.794-0.961,104.66c-0.457,0.527-0.579,1.042,0.058,1.213
			c0.111,1.997,1.457,1.272,2.541-0.054c20.173-1.314,40.403-1.496,60.594-0.415c20.097,1.077,40.129,3.612,60.235,1.259
			c1.625-0.19,2.756-1.682,2-2.299c0.394-0.569,0.7-1.161,0.747-1.552C494.734,443.685,487.534,410.903,485.086,377.966z
			 M379.388,274.905c-2.8,2.806-5.255,5.892-7.356,9.254c0.164-2.835,0.375-5.669,0.615-8.5
			C374.893,275.4,377.14,275.147,379.388,274.905z M427.414,476.657c-19.61-0.973-39.251-0.755-58.84,0.53
			c0.017-0.117,0.028-0.231,0.023-0.334c-1.695-35.258-2.206-70.648,0.907-105.846c1.488-16.821,4.141-33.447,3.43-50.385
			c-0.352-8.367-1.126-16.715-1.212-25.093c-0.031-3.054,0.048-6.105,0.193-9.153c1.201,1.705,4.486,3.608,5.121,2.557
			c2.357-3.905,5.179-7.447,8.458-10.618c0.699-0.676-1.129-2.711-2.915-3.741c5.471-0.548,10.952-0.982,16.449-1.13
			c9.504-0.257,18.987,0.441,28.472,0.928c18.681,0.958,37.375,0.583,56.065,0.139c0.658-0.016,1.648-0.488,2.565-1.119
			c-0.308,0.417-0.552,0.859-0.638,1.225c-1.873,8.036-1.886,16.316-2.232,24.521c-0.356,8.43-0.721,16.859-1.066,25.289
			c-0.695,16.97-1.222,33.97-0.282,50.942c1.9,34.306,10.028,68.346,6.167,102.804C467.871,480.463,447.611,477.659,427.414,476.657
			z"/>
		<path d="M116.878,296.285c3.871-3.702,8.818-5.936,13.318-8.748c4.488-2.805,8.762-5.904,12.891-9.212
			c1.291-1.034-2.566-3.645-3.679-2.753c-4.615,3.698-9.417,7.127-14.48,10.189c-4.233,2.56-8.553,4.732-12.156,8.178
			C111.906,294.767,115.675,297.435,116.878,296.285z"/>
		<path d="M157.791,276.078c-13.49,9.326-27.242,18.254-41.251,26.781c-1.399,0.852-3.034,6.704-1.124,5.542
			c14.009-8.526,27.761-17.455,41.251-26.781C158.011,280.69,159.567,274.85,157.791,276.078z"/>
		<path d="M259.366,393.982c0.023,0.27,0.039,0.54,0.064,0.81c0.035,0.382,0.461,0.446,0.954,0.338
			c0.203,0.14,0.405,0.226,0.589,0.22c13.259-0.418,18.585,0.84,31.817,1.575c6.502,0.361,30.539,0.306,37.075-0.341
			c-0.043,0.226-0.078,0.451-0.123,0.677c-0.174,0.874,2.483,0.593,2.635-0.168c2.811-14.096,3.668-25.763,2.196-39.942
			c-0.755-7.275,1.355-36.578,1.181-44.052c-0.017-0.716-2.697-0.393-2.677,0.484c0.16,6.852-2.091,34.864-1.375,42.146
			c1.345,13.679,0.744,24.789-1.398,38.347c-0.333-0.323-0.686-0.537-0.98-0.5c-6.647,0.849-31.519,0.845-38.343,0.466
			c-12.338-0.685-16.757-1.807-29.128-1.619c-2.109-27.454-1.441-54.57-2.24-81.956c24.518,2.208,49.194,0.028,73.715,2.281
			c0.831,0.076,2.586-1.862,1.388-1.972c-25.317-2.327-50.798,0.088-76.1-2.497c-0.779-0.08-2.375,1.618-1.577,1.929
			c1.067,27.496,0.305,54.708,2.207,82.258c-0.027,0.001-0.055,0-0.082,0.001C258.704,392.48,258.912,393.244,259.366,393.982z"/>
		<path d="M264.185,313.918c0.492-0.519-0.04-2.661-0.767-1.896c-0.919,0.968-1.839,1.936-2.758,2.904
			c-0.493,0.519,0.04,2.661,0.767,1.896C262.346,315.855,263.266,314.886,264.185,313.918z"/>
		<path d="M263.609,319.775c1.485-2.153,3.073-4.226,4.764-6.221c0.633-0.747-1.715-0.775-2.16-0.25
			c-1.766,2.084-3.425,4.252-4.976,6.5C260.886,320.313,263.17,320.411,263.609,319.775z"/>
		<path d="M264.507,326.597c3.525-3.568,7.051-7.136,10.576-10.703c0.534-0.54-2.382-2.714-3.175-1.911
			c-3.525,3.568-7.051,7.136-10.576,10.703C260.798,325.227,263.714,327.4,264.507,326.597z"/>
		<path d="M379.661,304.17c5.792-7.413,9.893-16.025,16.394-22.891c1.594-1.684-0.912-8.236-2.532-6.525
			c-6.507,6.871-10.6,15.475-16.394,22.891C375.688,299.49,378.312,305.898,379.661,304.17z"/>
		<path d="M410.218,278.297c-10.964,12.375-21.927,24.75-32.891,37.125c-1.158,1.307,1.993,6.716,3.334,5.202
			c10.964-12.375,21.927-24.75,32.891-37.125C414.71,282.193,411.559,276.783,410.218,278.297z"/>
	</g>
	<path d="M385.884,99.249"/>
</g>
</svg>
