<?xml version="1.0" encoding="UTF-8" standalone="no"?>
<!DOCTYPE svg PUBLIC "-//W3C//DTD SVG 1.1//EN" "http://www.w3.org/Graphics/SVG/1.1/DTD/svg11.dtd">
<svg width="100%" height="100%" viewBox="0 0 567 567" version="1.1" xmlns="http://www.w3.org/2000/svg" xmlns:xlink="http://www.w3.org/1999/xlink" xml:space="preserve" xmlns:serif="http://www.serif.com/" style="fill-rule:evenodd;clip-rule:evenodd;stroke-linejoin:round;stroke-miterlimit:2;">
    <g id="Layer_2_copy">
        <g>
            <path d="M227.669,150.228C219.55,161.042 211.503,171.91 203.47,182.788C184.213,208.865 165.113,235.058 146.196,261.382C123.033,293.615 100.124,326.035 77.769,358.835C58.176,387.582 38.782,416.559 21.115,446.541C14.965,456.979 8.974,467.563 3.876,478.563C2.155,482.277 0.441,486.079 -0.745,490.005C-1.535,492.62 -1.34,495.11 -1.32,497.84C-1.307,499.676 -1.734,502.034 -1.356,503.826C-1.345,503.877 -1.333,503.902 -1.322,503.946C-1.445,504.388 -1.542,504.842 -1.589,505.359C-1.937,509.168 -1.349,513.236 -1.089,517.065C-1.187,517.916 -1.117,518.754 -0.791,519.44C-0.568,520.178 -0.217,520.55 0.185,520.649C0.826,521.097 1.558,521.066 2.143,519.948C12.114,500.899 24.315,482.888 35.984,464.863C54.715,435.931 73.832,407.25 92.976,378.592C113.92,347.239 134.95,315.945 155.886,284.587C173.307,258.494 190.735,232.397 207.68,205.991C213.154,197.46 218.607,188.906 223.768,180.181C225.373,177.467 226.966,174.739 228.42,171.941C230.285,168.354 230.842,165.526 230.842,161.431L230.842,152.248C230.844,150.222 229.322,148.027 227.669,150.228ZM226.834,166.525C226.62,166.111 226.506,165.751 226.448,165.433C226.152,166.004 225.636,166.978 225.346,167.515C224.579,168.935 223.78,170.339 222.973,171.737C218.289,179.846 213.267,187.763 208.235,195.659C192.125,220.938 175.486,245.882 158.858,270.821C118.885,330.774 78.368,390.375 39.038,450.754C26.604,469.842 13.557,488.904 2.596,508.94C2.573,508.493 2.547,508.046 2.525,507.598C2.468,506.431 2.572,505.358 2.499,505.201C2.562,504.716 2.606,504.227 2.637,503.723C2.752,501.866 2.704,499.985 2.7,498.125C2.697,496.635 2.648,495.143 2.666,493.653C2.651,494.962 2.408,494.18 2.646,493.374C3.185,491.554 3.954,489.773 4.68,488.023C8.907,477.835 14.34,468.136 19.825,458.585C36.504,429.543 55.101,401.583 73.855,373.853C95.928,341.215 118.605,308.985 141.538,276.947C161.017,249.735 180.703,222.67 200.551,195.726C207.113,186.818 213.693,177.924 220.297,169.047C222.313,166.337 224.33,163.629 226.351,160.924C226.491,160.737 226.657,160.537 226.833,160.331L226.833,162.755C226.833,163.059 226.783,163.52 226.735,164.021C227.039,163.754 227.344,164.056 226.666,164.988C226.668,164.986 226.663,164.995 226.664,164.994C226.638,165.609 226.661,166.189 226.834,166.525Z" style="fill-rule:nonzero;"/>
            <path d="M226.737,164.018C226.521,164.207 226.314,164.689 226.449,165.432C226.594,165.152 226.684,164.972 226.666,164.991C226.681,164.667 226.706,164.336 226.737,164.018Z" style="fill-rule:nonzero;"/>
        </g>
        <path d="M-1.674,572.321C73.432,573.055 148.495,569.954 223.5,566.426C260.811,564.671 298.143,562.376 335.481,561.3C372.384,560.236 409.407,562.923 446.175,565.75C488.206,568.982 530.216,572.714 572.38,573.684C578.104,573.816 579.338,569.045 575.842,565.209C571.317,560.243 563.91,557.813 557.368,557.663C483.188,555.955 409.487,545.225 335.233,545.148C297.961,545.109 260.578,547.932 223.355,549.701C185.691,551.491 148.024,553.241 110.338,554.505C68.013,555.924 25.664,556.713 -16.686,556.299C-22.38,556.243 -23.682,560.895 -20.148,564.774C-15.67,569.689 -8.182,572.258 -1.674,572.321Z" style="fill-rule:nonzero;"/>
        <path d="M568.394,533.756C564.873,523.551 559.726,513.846 554.683,504.333C537.769,472.422 518.679,441.635 499.53,411.034C475.779,373.079 451.387,335.525 426.748,298.142C405.368,265.703 383.776,233.403 362.024,201.212C351.452,185.567 341.46,169.141 330.002,154.118C329.837,153.902 329.693,153.668 329.539,153.444C328.958,152.599 323.449,148.969 323.449,151.708C323.449,156.567 322.092,162.771 324.872,166.935C326.661,169.615 328.439,172.301 330.194,175.003C336.204,184.254 342.111,193.573 348.006,202.898C366.979,232.91 385.728,263.064 404.39,293.27C427.026,329.907 449.509,366.639 471.767,403.506C491.875,436.812 511.859,470.203 531.239,503.939C538.197,516.052 545.096,528.205 551.689,540.522C555.626,547.877 559.776,555.308 562.787,563.107C563.135,564.01 563.463,564.92 563.725,565.852C563.74,565.911 563.757,565.969 563.78,566.028C563.781,566.031 563.782,566.033 563.782,566.036C563.889,566.433 564.225,566.856 564.686,567.259C566.521,568.945 570.193,570.147 570.193,568.354L570.193,555.986C570.193,548.347 570.899,541.014 568.394,533.756ZM329.815,166.451C329.726,166.262 329.75,166.255 329.815,166.451ZM561.801,549.55C556.012,538.353 549.85,527.346 543.638,516.38C525.259,483.939 506.157,451.905 486.952,419.949C464.707,382.935 442.206,346.074 419.554,309.307C399.954,277.492 380.249,245.741 360.343,214.117C353.626,203.446 346.89,192.785 340.075,182.176C337.845,178.705 335.608,175.237 333.341,171.79C332.519,170.54 331.695,169.292 330.859,168.053C330.568,167.622 330.24,167.201 329.976,166.753C329.957,166.722 329.947,166.7 329.931,166.672C329.911,166.199 329.953,165.696 329.976,165.253C330.033,164.121 330.048,162.982 330.049,161.842C336.688,171.558 343.305,181.289 349.904,191.031C370.609,221.601 391.166,252.272 411.545,283.06C436.003,320.013 460.228,357.125 483.914,394.578C504.314,426.834 524.593,459.268 543.049,492.689C548.969,503.409 554.826,514.26 559.6,525.549C561.056,528.992 562.669,532.625 563.408,536.311C564.452,541.522 563.671,547.689 563.668,553.105C563.036,551.909 562.407,550.723 561.801,549.55Z" style="fill-rule:nonzero;"/>
        <path d="M288.505,536.265L288.505,463.022C288.505,459.8 279.425,458.581 279.425,461.263L279.425,534.506C279.425,537.728 288.505,538.947 288.505,536.265Z" style="fill-rule:nonzero;"/>
        <path d="M286.908,367.484C287.124,349.768 287.34,332.052 287.556,314.336C287.585,311.924 281.046,313.639 281.022,315.64C280.806,333.356 280.59,351.072 280.374,368.788C280.344,371.2 286.884,369.485 286.908,367.484Z" style="fill-rule:nonzero;"/>
        <path d="M281.447,192.063C280.604,182.901 280.288,173.736 280.496,164.538C280.527,163.163 276.005,162.84 275.977,164.109C275.769,173.307 276.085,182.472 276.928,191.634C277.06,193.078 281.553,193.214 281.447,192.063Z" style="fill-rule:nonzero;"/>
        <path d="M325.135,160.433C292.436,159.8 259.728,160.128 227.049,161.429C224.891,161.515 219.151,161.98 220.301,165.416C221.361,168.583 228.703,169.172 231.173,169.074C263.853,167.773 296.56,167.444 329.259,168.078C331.437,168.12 337.13,167.446 336.007,164.091C334.911,160.818 327.648,160.482 325.135,160.433Z" style="fill-rule:nonzero;"/>
        <path d="M282.996,263.872C282.153,254.71 281.837,245.545 282.045,236.347C282.076,234.972 277.554,234.649 277.526,235.918C277.318,245.116 277.634,254.281 278.477,263.443C278.609,264.887 283.102,265.023 282.996,263.872Z" style="fill-rule:nonzero;"/>
        <path d="M97.713,210.838C97.613,142.234 98.515,73.585 94.501,5.062C94.145,-1.008 76.86,-7.812 77.226,-1.563C81.24,66.96 80.338,135.609 80.438,204.213C80.447,210.221 97.722,217.323 97.713,210.838Z" style="fill-rule:nonzero;"/>
        <path d="M94.111,-3.466C75.553,-1.788 56.994,-0.111 38.436,1.567C20.81,3.16 2.374,6.483 -15.316,4.596C-19.473,4.153 -24.534,8.107 -27.081,11.016C-28.925,13.122 -31.048,17.076 -26.81,17.528C-9.118,19.415 9.313,16.092 26.942,14.499C45.5,12.821 64.059,11.144 82.617,9.466C87.105,9.06 91.437,6.41 94.382,3.046C95.735,1.502 98.659,-3.877 94.111,-3.466Z" style="fill-rule:nonzero;"/>
        <path d="M183.793,142.489C182.811,102.646 186.581,62.645 180.95,23.011C180.646,20.869 178.333,22.407 177.551,23.206C176.1,24.689 175.321,27.117 175.61,29.152C181.157,68.194 177.292,107.719 178.259,146.97C178.383,151.959 183.862,145.273 183.793,142.489Z" style="fill-rule:nonzero;"/>
        <path d="M182.426,21.872C166.706,22.809 150.986,23.746 135.267,24.682C120.196,25.58 104.833,27.411 89.737,26.374C87.11,26.193 80.254,32.583 83.99,32.84C99.087,33.878 114.448,32.046 129.52,31.148C145.24,30.211 160.96,29.274 176.679,28.338C178.83,28.21 181.233,26.815 182.562,25.128C183.21,24.304 184.724,21.735 182.426,21.872Z" style="fill-rule:nonzero;"/>
        <path d="M67.85,68.72C67.72,67.778 67.258,67.021 66.05,67.59C66.026,67.601 66.001,67.612 65.977,67.624C65.197,67.356 64.611,67.48 64.469,68.216C64.462,68.254 64.456,68.292 64.449,68.329C48.892,75.501 32.603,80.747 15.689,83.605C13.628,83.953 11.451,88.004 11.193,90.338C11.073,90.367 10.95,90.407 10.824,90.465C8.995,91.309 9.655,95.361 9.935,96.717C13.106,112.101 11.49,128.025 14.096,143.502C13.828,146.461 16.519,151.136 18.532,149.924C32.754,141.357 47.998,134.904 64.178,131.113C64.483,131.042 64.709,130.87 64.891,130.648C65.613,132.1 66.776,133.403 68.048,134.236C69.07,134.906 71.887,136.002 71.605,133.616C69.274,113.882 67.931,94.583 71.723,74.918C72.069,73.13 69.907,70.323 67.85,68.72ZM60.78,122.752C45.815,126.259 31.652,132.046 18.356,139.674C16.258,124.346 17.323,108.758 14.183,93.524C14.069,92.972 13.835,92.306 13.497,91.722C30.736,88.689 47.352,83.37 63.217,75.971C61.092,92.122 61.937,108.105 63.72,124.347C62.901,123.23 61.86,122.499 60.78,122.752Z" style="fill-rule:nonzero;"/>
        <path d="M154.184,58.173C154.063,58.11 153.893,58.115 153.655,58.227C140.747,64.287 127.254,68.679 113.186,71.075C111.691,71.33 110.074,75.481 111.442,75.248C125.737,72.813 139.47,68.414 152.594,62.252C152.81,62.151 153.034,61.934 153.248,61.656C150.862,76.617 151.812,91.358 153.59,106.419C153.76,107.857 157.533,110.986 157.302,109.028C155.429,93.162 154.401,77.69 157.422,61.875C157.676,60.55 155.181,58.115 154.184,58.173Z" style="fill-rule:nonzero;"/>
        <path d="M105.744,79.831C108.277,92.336 107.062,105.233 109.174,117.803C109.659,120.692 112.046,120.457 111.549,117.5C109.363,104.488 110.494,91.199 107.868,78.234C107.205,74.957 105.294,77.606 105.744,79.831Z" style="fill-rule:nonzero;"/>
        <path d="M115.472,121.597C126.866,114.756 139.022,109.613 151.967,106.557C153.427,106.212 151.926,101.985 150.268,102.376C137.322,105.432 125.167,110.575 113.773,117.416C112.322,118.287 114.176,122.375 115.472,121.597Z" style="fill-rule:nonzero;"/>
        <path d="M472.518,216.331C473.025,182.236 472.065,148.141 472.38,114.046C472.695,79.886 474.944,45.819 475.703,11.681C475.848,5.166 459.303,11.96 459.164,18.195C458.406,52.333 456.157,86.4 455.841,120.56C455.526,154.656 456.486,188.75 455.979,222.845C455.882,229.389 472.426,222.561 472.518,216.331Z" style="fill-rule:nonzero;"/>
        <path d="M461.185,17.73C479.743,19.408 498.302,21.085 516.86,22.763C534.486,24.356 552.922,27.679 570.612,25.792C575.116,25.312 579.401,22.771 582.377,19.372C583.691,17.871 586.668,12.374 582.106,12.86C564.414,14.747 545.983,11.424 528.354,9.831C509.796,8.153 491.237,6.476 472.679,4.798C468.487,4.419 463.495,8.271 460.914,11.218C459.111,13.277 456.914,17.344 461.185,17.73Z" style="fill-rule:nonzero;"/>
        <path d="M470.307,26.637C455.21,27.675 439.849,25.843 424.777,24.945C409.057,24.008 393.337,23.071 377.618,22.135C376.89,22.092 375.84,22.552 374.78,23.243C373.14,22.427 371.751,22.242 371.643,23.343C371.543,24.364 371.46,25.387 371.366,26.408C370.735,27.317 370.55,28.099 371.183,28.432C367.763,67.352 368.592,106.452 368.866,145.481C368.889,148.745 377.631,154.042 377.613,151.483C377.327,110.752 376.423,69.944 380.39,29.344C380.397,29.268 380.376,29.185 380.373,29.106C393.259,29.874 406.145,30.642 419.03,31.41C434.101,32.308 449.464,34.139 464.56,33.102C466.716,32.954 469.105,31.589 470.443,29.892C471.08,29.083 472.61,26.479 470.307,26.637Z" style="fill-rule:nonzero;"/>
        <path d="M542.094,83.869C524.559,80.906 507.71,75.423 491.632,67.851C488.792,66.514 484.34,74.666 486.98,75.909C503.417,83.65 520.686,89.188 538.606,92.216C541.404,92.688 545.47,84.439 542.094,83.869Z" style="fill-rule:nonzero;"/>
        <path d="M482.649,70.126C486.372,89.433 485.065,108.539 482.775,127.919C482.512,130.144 484.01,132.274 485.597,133.72C486.144,134.219 489.775,136.771 490.029,134.621C492.46,114.042 493.701,94.023 489.75,73.533C489.195,70.656 481.601,64.695 482.649,70.126Z" style="fill-rule:nonzero;"/>
        <path d="M539.87,93.167C536.588,109.092 538.158,125.482 535.423,141.47C535.121,143.236 535.358,147.022 537.131,148.08C538.961,149.172 539.844,147.733 540.156,145.904C542.891,129.913 541.323,113.513 544.603,97.601C545.326,94.093 541.17,86.857 539.87,93.167Z" style="fill-rule:nonzero;"/>
        <path d="M537.089,141.953C522.658,133.26 507.166,126.776 490.754,122.93C487.671,122.208 489.788,130.736 492.88,131.46C508.826,135.196 523.826,141.619 537.838,150.06C539.683,151.171 540.233,148.609 540.19,147.357C540.119,145.314 538.842,143.01 537.089,141.953Z" style="fill-rule:nonzero;"/>
        <path d="M442.854,71.339C428.766,68.939 415.261,64.558 402.334,58.489C400.913,57.822 398.688,61.899 400.008,62.518C413.113,68.671 426.834,73.081 441.11,75.512C442.508,75.75 444.542,71.627 442.854,71.339Z" style="fill-rule:nonzero;"/>
        <path d="M396.912,59.612C399.899,75.247 398.889,90.617 397.036,106.312C396.846,107.925 400.503,111.02 400.663,109.663C402.586,93.376 403.562,77.54 400.463,61.316C400.187,59.876 396.393,56.895 396.912,59.612Z" style="fill-rule:nonzero;"/>
        <path d="M442.306,78.187C439.726,90.926 440.899,104.016 438.751,116.806C438.457,118.554 440.585,122.197 441.118,119.023C443.266,106.232 442.094,93.135 444.673,80.404C445.028,78.65 442.946,75.03 442.306,78.187Z" style="fill-rule:nonzero;"/>
        <path d="M439.486,117.743C427.987,110.839 415.706,105.681 402.647,102.597C401.108,102.234 402.165,106.497 403.71,106.862C416.541,109.891 428.572,115.019 439.861,121.796C441.549,122.81 440.742,118.497 439.486,117.743Z" style="fill-rule:nonzero;"/>
        <path d="M570.078,385.52C536.317,323.985 495.057,266.622 451.768,211.489C438.163,194.161 424.262,177.069 410.124,160.174C407.035,156.483 403.656,150.539 398.51,150.193C392.219,149.769 385.716,150.297 379.415,150.349C361.084,150.498 342.752,150.648 324.421,150.797C322.638,150.812 323.909,152.794 324.391,153.423C325.384,154.718 327.422,155.482 329.005,155.469C352.851,155.275 376.696,155.081 400.542,154.886C443.052,206.138 484.238,258.419 521.149,313.909C536.255,336.618 550.66,359.817 563.782,383.734C564.558,385.149 566.147,386.516 567.788,386.805C568.551,386.939 570.947,387.105 570.078,385.52Z" style="fill-rule:nonzero;"/>
        <path d="M229.172,149.194C214.428,149.261 199.684,149.329 184.94,149.396C175.096,149.441 165.252,149.486 155.408,149.531C151.608,149.548 146.117,148.526 142.533,150.012C136.956,152.324 132.016,158.999 128.199,163.372C121.171,171.423 114.691,179.962 108.359,188.564C90.654,212.613 74.185,237.58 58.032,262.688C38.471,293.092 19.494,323.877 1.068,354.983C-0.206,357.134 1.17,364.568 3.408,360.79C34.902,307.624 67.512,254.795 103.397,204.458C110.237,194.863 117.215,185.342 124.679,176.219C129.458,170.377 134.408,164.285 140.328,159.541C143.668,156.864 145.813,157.45 150.504,157.428C159.458,157.387 168.412,157.346 177.366,157.305C194.413,157.227 211.46,157.149 228.508,157.071C231.36,157.057 231.845,149.181 229.172,149.194Z" style="fill-rule:nonzero;"/>
    </g>
</svg>
