<?xml version="1.0" encoding="utf-8"?>
<!-- Generator: Adobe Illustrator 23.0.1, SVG Export Plug-In . SVG Version: 6.00 Build 0)  -->
<svg version="1.1" id="Layer_3" xmlns="http://www.w3.org/2000/svg" xmlns:xlink="http://www.w3.org/1999/xlink" x="0px" y="0px"
	 viewBox="0 0 566.9 566.9" style="enable-background:new 0 0 566.9 566.9;" xml:space="preserve">
<style type="text/css">
	.st0{stroke:#000000;stroke-miterlimit:10;}
	.st1{fill:none;stroke:#000000;stroke-miterlimit:10;}
</style>
<path d="M186.6,471.3c0-0.2,0-0.4,0-0.7c-0.6-26-15.5-50.6-40.4-59.9c-24.6-9.1-52.8-1.2-69,19.5c-16.3,20.8-18.5,51.4-5.3,74.4
	c8.5,14.8,22.8,25.4,38.8,29.4c0,0,0,0,0,0c8.5,2.1,17.5,2.4,26.4,0.5c29.6-6.2,48.8-33,49.5-62.5
	C186.6,471.7,186.6,471.5,186.6,471.3z M180.3,463.1c-11.8,0.7-25.1,1.3-33.7-8.1c-7.6-8.3-12.7-24.1-2-32.3c0.4-0.3,0.7-0.6,0.9-1
	C163.3,428.5,177,444.3,180.3,463.1z M77.3,443.4c12.6-19.2,36.1-28.7,58.6-24.5c2.5,0.5,4.9,1.1,7.3,1.9c-4.6,3.9-7.3,8.9-8.2,14.3
	c-0.3,0.1-0.7,0.3-1,0.6c-7.7,6.9-19.2,11.2-28.9,14.6c-8.5,3-23.9,8.2-32.5,2.2C73.8,449.3,75.3,446.3,77.3,443.4z M69.8,462
	c9.6,7.2,24.2,3,34.5-0.4c10.7-3.5,22.6-8.2,31.4-15.6c0.6,2.1,1.5,4.2,2.7,6.3c1.5,2.7,3.5,5.3,5.7,7.5c-7.3,9.5-18.9,16.9-29,23
	c-9.8,5.8-26.2,15.3-37.7,8.8c-1.4-0.8-2.5,0.6-3,2.6C69.4,484.1,67.8,472.9,69.8,462z M82,505.4c-0.4-0.4-0.8-0.9-1.1-1.3
	c11.5,2.7,25.4-4.7,34.6-10.1c11.1-6.5,24-14.8,31.8-25.3c1.1-1.4,1.5-3.4,1.4-5.2c1.7,1,3.5,1.9,5.4,2.4c3.3,0.9,6.7,1.3,10.3,1.5
	c-0.2,0.9-0.2,1.7-0.2,2.2c0.7,13.6-13,26.2-22.3,34.2c-5.5,4.7-11.4,9-17.6,12.8c-3.9,2.4-8.3,5.2-12.9,6.3c-0.1,0-0.1,0-0.2,0.1
	C100,520.2,89.7,514.2,82,505.4z M144.1,521.5c-4.4,1.6-8.9,2.5-13.4,3c5.7-4,11-8.6,15.7-12.8c11.9-10.6,24-25.2,23.2-42.1
	c0-0.5-0.1-1.3-0.2-2.2c3.6,0,7.2-0.3,10.6-0.5c0.3,0,0.6-0.1,0.9-0.4c0.2,1.5,0.3,3.1,0.3,4.7C180.9,494.1,165.3,513.9,144.1,521.5
	z"/>
<path d="M431,255.3C407.7,164.7,306,93.1,248.3,93.7c-23.8-2.2-46.8,2.3-69.4,9.2c-1.5,0.5-3,1-4.6,1.4c-1.3-0.1-2.6,0-3.8,0.2
	c-0.3-0.1-0.7,0-1,0.2c-0.4,0.1-0.7,0.3-0.9,0.6c-0.8,0.5-1.6,1.1-2.4,1.6c-15.2,5.1-30.1,11.1-44.5,18.2
	C86.4,142.7,54.4,168,35.4,203C12.1,245.9,9.8,296.3,7.7,344c0,0.6,0,1.5,0.2,2.4c-0.7,1.8-1.3,3.7-1.8,5.7c-0.5,2.1-0.9,5.9,1,7.5
	c1.8,1.5,3.3,0,3.8-2c3.7-15.3,17.3-24.8,31.2-30c15-5.6,32.9-9.4,49.1-7.9c8.7,0.8,17.4,3.5,25.6,6.3c4.9,1.7,9.8,3.5,14.4,5.8
	c1.8,0.9,5.6,2.7,7.2,4.4c0.3,0.6,0.6,1.2,1,1.8c0.1,0.3,0.3,0.6,0.5,0.9c0.6,0.9,1.3,1.1,1.8,0.8c0.4-0.1,0.7-0.2,1.1-0.6
	c1.3-1.1,1.5-3.5,1.3-5.4c0-0.8-0.1-1.5-0.3-2.1c-1.7-7.1,11.6-12.6,16.3-14.7c7.3-3.4,14.7-6.8,22-10c16-7,32.5-13.4,49.8-16.6
	c16.5-3.1,33.5-2.8,50.1,0c14.7,2.4,28.9,7.3,40.6,16.7c0.3,0.3,0.6,0.6,1,0.8c0.6,0.4,1.1,0.3,1.6-0.2c0.9-0.6,1.4-2,1.6-3.3
	c0-0.2,0.1-0.3,0.1-0.4c0.1-0.5,0.1-1.1,0.1-1.7c0.4-8.7,7.8-16,12.7-22.7c2.9-4,5.8-7.8,10.2-10.1c4.3-2.3,9.1-3.3,13.8-4.5
	c19.1-4.7,40-8.9,58.2,1.1c2.5,1.4,8.1-1,9.2-2.7C432.4,261,432,257.4,431,255.3z M120.5,316.1c-9.3-3.3-19.4-6.6-29.3-7.5
	c-17.5-1.6-37.6,2.8-53.7,9.6c-9.4,4-17.9,10.1-23.9,18.1c1.7-38.9,4.3-79.2,20.5-115c16.2-35.9,45.9-62.2,80-80.8
	c11.2-6.1,22.9-11.4,34.8-16.1c-13.8,18.9-21,43.6-25.8,65.3c-7.4,33.4-6.9,67.1,0.1,100.5c2.1,10.2,4.7,20.4,8.3,30.2
	C127.8,318.6,123.8,317.3,120.5,316.1z M278,278.6c-19.6-2.7-39.1-1.7-58.3,3.4c-18.8,5-36.6,13-54.3,21.1
	c-7.5,3.5-16.4,6.5-21.9,13.1c-1.7,2.1-3,4.4-3.9,6.8c-10.4-22.3-14.8-48.3-16.4-72.5c-2.1-32.7,4.5-66.6,17.6-96.6
	c6.1-14,14.3-27.3,26.8-36.4c2.4-0.8,4.9-1.6,7.3-2.4c40-8.8,133.2,99.2,145,178.1C307.6,284.8,292.8,280.7,278,278.6z M423.3,255.2
	c-20.7-11.4-45.4-5.6-66.9,0.4c-4.9,1.4-9.4,3.3-13.2,6.8c-4,3.6-6.9,8.4-10.1,12.7c-3.3,4.3-6.2,8.6-8.2,13.1
	c5.2-24.5-60.1-166.9-132.4-178.2C296.3,66,414.3,208.5,424,255.7C423.8,255.5,423.6,255.3,423.3,255.2z"/>
<path d="M217,311.5c0.4,0.8,0.7,1.6,1,2.4c0.2,0.4,0.3,0.8,0.5,1.2c0.9,2-1-2.7-0.2-0.6c0.8,2.3,1.7,4.6,2.4,6.9
	c1.9,5.5,3.5,11.1,5.2,16.7c4.3,14.7,8.2,29.5,12,44.3c8.1,31.3,15.5,62.8,22.9,94.3c2.5,10.7,4.9,21.4,7.4,32.1
	c1,4.2,5.3,9.2,9.2,4.8c4.2-4.7,3.7-12.9,2.4-18.5c-13.1-55.8-25.4-112-41.3-167.1c-3.5-12-6.9-24.3-12.1-35.6c-2.3-5-7.2-4.6-9.5,0
	C214.1,298,214.5,305.8,217,311.5L217,311.5z"/>
<circle class="st0" cx="168.2" cy="100.7" r="12.5"/>
<path d="M-154.3,462.9c52.3,34.7,111.7,58.2,173.6,68.8c66.8,11.4,133.6,4.8,199.9-6.5c66-11.2,131.7-25.3,198.9-26.8
	c61.5-1.4,123.3,6,182.6,22.2c58.6,16.1,114.9,40.8,165.8,74c6.3,4.1,12.6,8.4,18.8,12.8c3,2.2,4.5-8.4,1.5-10.6
	C737.2,561.5,682,534.6,624,516.4c-58.1-18.3-118.8-28-179.7-29.1c-66.2-1.2-131,10.1-195.9,21.8c-66.8,12-134.3,22.7-202.3,15.3
	c-63-6.9-124.4-27.3-179-59.6c-6.7-4-13.4-8.2-19.9-12.5C-156,450.2-157.4,460.8-154.3,462.9L-154.3,462.9z"/>
<path class="st1" d="M386.1,424"/>
<path d="M513.4,301.7c-16.1-5.1-32.2-10.3-48.4-15.4c-2.8-0.9-3.5,3.5-3.5,5.3c0.3,25,0.7,50.1,1,75.1c-0.4,3,0.4,6.5,2.4,7
	c0,0,0,0,0,0c0.1,0,0.3,0,0.4,0c1.7,0,3.4,0,5.1-0.1c2.3,0,2.8-4,2.8-5.5c-0.2-14.1-0.4-28.2-0.6-42.3c13.6-4.5,27.2-9,40.8-13.5
	C516.3,311.4,516.3,302.6,513.4,301.7z M467.4,318.3c-0.1-6.7-0.2-13.5-0.3-20.2c9.5,3,19,6.1,28.5,9.1c-8.9,2.9-17.7,5.9-26.6,8.8
	C468.2,316.2,467.7,317.2,467.4,318.3z"/>
<path d="M498.7,491.7c-7.5-17.8-9.2-38.3-10.7-57.3c-1.4-18.1-1.9-36.3-1.7-54.4c0-3.8,0.1-7.5,0.2-11.3c0-1.6-0.5-5.5-2.8-5.5
	c-10.8,0-21.5,0-32.3,0c-2.3,0-2.8,4-2.8,5.5c0,5.8,0,11.7,0,17.5c-14.1,0-28.2,0-42.3,0c0-5.8,0-11.7,0-17.5c0-1.6-0.5-5.5-2.8-5.5
	c-9.4,0-18.8,0-28.2,0c-2.2,0-2.8,4-2.8,5.5c1.8,32.4,2.7,65.4-0.5,97.7c-0.8,7.9-1.5,16.7-4.7,24.2c-2,2.8-1.3,10.1,1.7,9.9
	c25.3-1.7,50.6-3.1,75.9-2.5c17.3,0.5,34.5,2,51.7,3.1C500.4,501.3,499.4,493.5,498.7,491.7z M374.3,489.1c1.1-4.5,1.8-9.1,2.4-13.6
	c1.4-10.7,2-21.6,2.3-32.4c0.7-20.4,0.4-40.8-0.3-61.1c-0.1-2.6-0.2-5.3-0.3-7.9c7.5,0,15,0,22.4,0c0,5.8,0,11.7,0,17.5
	c0,1.6,0.5,5.5,2.8,5.5c15.9,0,31.9,0,47.8,0c2.3,0,2.8-4,2.8-5.5c0-5.8,0-11.7,0-17.5c8.9,0,17.8,0,26.7,0
	c-0.8,31.2,0.3,63.2,5.5,93.9c1.2,7.3,2.8,14.6,4.9,21.7c-15.4-1-30.8-2.3-46.2-2.7C421.4,486.4,397.8,487.6,374.3,489.1z"/>
<path d="M450.5,434.4c-7.7-9.1-22.6-10.4-32.1-3.2c-9.8,7.4-12.8,21.1-13.7,32.7c-0.7,8.6-0.6,17.4,0.6,26c0,2.8,0.9,5.6,2.9,5.6
	c15.7,0,31.3,0,47,0c1.8,0,2.4-2.7,2.7-4c1.4-7.3,2-14.9,2-22.3C459.9,457.5,458.4,443.7,450.5,434.4z M417.5,444.2
	c6.7-7.8,20.2-9.1,28.2-2.4c7.3,6.1,8.6,17.2,8.7,26.1c0.1,5.5-0.3,11.1-1.1,16.6c-14.3,0-28.6,0-43,0
	C408.7,471.5,408.7,454.4,417.5,444.2z"/>
<path d="M557.9,426.9c-9.1-3.6-19-8.5-29-7.3c-1.1-0.7-2.2-1.1-3-0.7c-3.1,1.5-4.9,2.2-5,6.1c0,3.1,0.9,6.1,1.9,9
	c1.3,3.8,3.2,7.5,3.9,11.5c0.7,3.6,0.8,10.7-1.7,13.8c-2,2.5-8.2,2.3-11.4,3.7c-3.1,1.4-5.7,3.4-7.5,6.3c-4.4,6.9-4.2,15.6-6.9,23.1
	c-0.8,2.3,5.3,6.7,6.3,4c2.7-7.5,2.2-16.9,7.3-23.4c2.6-3.3,6.3-4.9,10.3-5.9c2.3-0.6,6.2-0.3,7.8-2.2c1.7-2,2-6.7,2.3-9.3
	c0.4-3.5-0.1-6.9-1.1-10.3c-1-3.3-2.4-6.5-3.5-9.7c-0.6-1.8-1.1-3.6-1.3-5.5c-0.4-3.6,0.6-4.1,3.6-5.6c0.5-0.2,0.7-0.6,0.7-1.1
	c4.8,0.5,9.7,2.9,14,4.5c3.1,1.2,10.7,2.6,12,6c0.7,2-0.5,2.3-2,3.7c-1.1,0.9-2.2,1.8-3.3,2.7c-1.7,1.4-3.4,2.8-5.1,4.3
	c-2.7,2.5-5.2,5.3-6.9,8.6c-1.6,3.2-2.9,7.7-2.5,11.3c0.4,3.7,4.4,6.2,6.7,8.9c3.4,4.1,5.2,7,4.7,12.4c-0.5,5.3-1.7,10.5-3.5,15.5
	c-0.8,2.3,6.5,1.6,7.3-0.7c2-5.6,3.3-11.3,3.7-17.3c0.3-4.9-1.2-7.5-4.2-11.3c-1.7-2.1-3.8-3.9-5.5-6c-2.1-2.6-1.7-5.4-1.1-8.5
	c1.3-6.2,5.5-10.5,10.2-14.5c2.6-2.2,9.3-6,10-9.6C566.8,429.8,560.4,427.8,557.9,426.9z"/>
<path d="M548.2,429.8c-0.2-0.1-0.7-0.1-1.2,0c-4.3-1.5-9.2-2.4-13.2-0.7c-2.1,0.8-3.7,2.4-3.6,4.8c0.1,2,1.2,6.4,3,7.6
	c1.2,0.7,3.2,0.6,4.6,0.9c1.3,0.3,2.4,0.7,3.7,0.7c2.3,0,4.8-0.8,6.6-2.1c1.6-1.2,4.4-3.9,5-6C553.8,432,550.4,430.7,548.2,429.8z
	 M546.5,439.2c-2.5,2.4-4,2.1-7,1.4c-0.7-0.2-2.7-0.2-3.1-0.6c-1.2-1-1.5-3.6-1.9-5c-0.8-2.8-0.9-4.7,3.4-4.9
	c3.3-0.1,6.7,1.3,9.7,2.6c0.1,0.1,0.4,0.1,0.6,0.1c0.6,0.5,1.1,1.1,1.2,1.9C549.6,436.1,547.5,438.3,546.5,439.2z"/>
</svg>
