<?xml version="1.0" encoding="utf-8"?>
<!-- Generator: Adobe Illustrator 23.0.1, SVG Export Plug-In . SVG Version: 6.00 Build 0)  -->
<svg version="1.1" id="Layer_1" xmlns="http://www.w3.org/2000/svg" xmlns:xlink="http://www.w3.org/1999/xlink" x="0px" y="0px"
	 viewBox="0 0 612 792" enable-background="new 0 0 612 792" xml:space="preserve">
<g>
	<path fill="#010101" d="M608.271,604.68c0.371-1.725,0.53-3.523,0.668-5.347c0.683-9.071,0.568-18.126,0.519-27.217
		c-0.13-25.406-1.461-50.794-1.773-76.199c-0.457-37.133,1.133-74.194,0.165-111.339c-0.484-18.581-1.381-37.139-2.195-55.709
		c-0.655-14.945-0.221-30.841-2.962-45.745c1.427-2.399,2.01-5.126,0.882-7.534c-1.475-3.15-4.063-4.095-7.301-4.311
		c-1.368-0.091-2.896,0.222-4.414,0.829c-0.049,0.007-0.098,0.014-0.148,0.021c-3.853,0.534-7.803,0.575-11.687,0.593
		c-8.971,0.039-17.922,0.034-26.897,0.205c-17.748,0.334-35.488,0.964-53.239,1.146c-17.422,0.178-34.833,0.867-52.251,1.238
		c-7.269,0.154-14.482,0.473-21.753,0.291c-1.315-0.033-2.625-0.064-3.931-0.076c-0.21-0.963-0.568-1.924-1.136-2.861
		c-1.575-2.596-1.241-8.13-1.563-11.119c-0.482-4.433-0.788-8.886-1.046-13.336c-0.474-8.166-0.565-16.365-0.648-24.541
		c-0.083-8.133-0.101-16.258,0.021-24.391c0.081-5.37,0.989-11.709,0.25-17.431c0.541-0.705,1.029-1.455,1.414-2.274
		c1.302-2.768,1.549-7.488-1.542-9.273c-1.379-1.06-3.029-1.343-4.75-1.44c-2.979-0.518-6.063-0.499-9.081-0.383
		c-6.179,0.237-12.359,0.083-18.545,0.429c-12.74,0.712-25.238,1.576-38.016,1.544c-23.305-0.058-46.593-1.045-69.897-1.252
		c-11.629-0.103-23.262-0.104-34.892-0.083c-11.758,0.02-24.977-0.912-36.413,2.065c-0.861,0.224-1.961,1.114-2.799,2.212
		c-1.769-0.724-4.417,0.734-5.056,2.519c-2.931,8.188-2.025,16.958-1.753,25.517c0.321,10.106,0.603,20.201,0.103,30.307
		c-0.444,8.982-1.732,17.851-2.45,26.809c-0.201,2.512-1.016,5.362-1.567,8.165c-3.797,0.647-7.616,0.62-11.471,0.766
		c-7.697,0.291-15.393,0.674-23.08,1.142c-16.191,0.984-32.364,2.351-48.535,3.633c-15.416,1.222-30.821,2.535-46.263,3.406
		c-7.727,0.438-15.445,0.982-23.178,1.33c-8.079,0.364-16.485-0.176-24.35,1.881c-1.873,0.49-4.804,4.177-3.24,6.021
		c-1.814,12.739-1.594,25.751-1.381,38.584c0.241,14.595,0.496,29.195,0.825,43.791c0.642,28.341,0.119,56.485-1.758,84.767
		c-1.77,26.696-3.009,53.441-4.078,80.173c-0.514,12.831-0.941,25.667-1.344,38.501c-0.197,6.316-0.368,12.631-0.518,18.948
		c-0.14,5.882-1.301,11.83-0.682,17.676c0.176,1.668,0.707,2.924,1.479,3.831c-3.658,2.655-6.269,9.013-0.833,9.46h0
		c18.84,1.552,37.891,1.225,56.783,1.274c19.381,0.051,38.759,0.063,58.138-0.153c38.825-0.432,77.65-1.123,116.473-1.755
		c38.514-0.629,77.031-1.702,115.542-0.431c38.727,1.277,77.367,2.935,116.122,3.244c44.051,0.351,88.103,0.241,132.154,0.744
		c5.567,0.064,11.075-5.539,12.179-10.689C612.29,609.506,610.887,606.244,608.271,604.68z M596.488,271.692
		c0.011-0.014,0.021-0.028,0.032-0.042C597.99,271.755,597.962,271.768,596.488,271.692z M220.584,605.196
		c1.746-7.08,1.14-15.733,1.197-21.99c0.11-12.029-0.867-24.057-1.609-36.052c-0.81-13.076-0.709-26.069-0.361-39.164
		c0.203-7.643,0.466-15.285,0.598-22.929c0.116-6.749,0.702-14.089-0.955-20.737c0.457,0.01,0.906,0.022,1.344,0.037
		c9.376,0.336,18.81-0.321,28.156-1.015c18.3-1.36,36.473-3.149,54.842-3.251c19.653-0.109,39.269,0.827,58.9,1.614
		c9.43,0.377,18.861,0.775,28.292,1.121c4.927,0.18,9.888,0.196,14.835,0.324c-0.927,4.291-0.789,8.786-0.915,13.166
		c-0.178,6.249-0.391,12.496-0.543,18.745c-0.305,12.528-0.72,25.051-1.146,37.574c-0.427,12.578-0.919,25.154-1.434,37.728
		c-0.4,9.799-0.165,20.035-1.073,29.954c-1.301,0.445-2.518,1.408-3.01,2.67c-0.305,0.78-0.501,1.506-0.609,2.194
		c-8.792-0.248-17.589-0.531-26.396-0.852C320.689,602.51,270.628,603.691,220.584,605.196z M205.115,453.706
		c-1.428-0.601-1.923-3.668-2.271-5.038c-0.113-0.442-0.201-0.893-0.283-1.345c14.178,3.684,29.456,3.212,43.951,2.56
		c17.839-0.803,35.628-2.718,53.504-2.454c20.175,0.299,40.34,0.865,60.518,1.027c10.134,0.081,20.267,0.128,30.402,0.166
		c9.452,0.036,18.84,0.77,28.259,0.942c0.04,0.001,0.079,0.002,0.118,0.003c0.023,0,0.046,0.001,0.069,0.002
		c-0.591,1.265-1.17,2.529-1.757,3.767c-15.941,1.09-32.285-0.39-48.183-0.918c-19.687-0.654-39.383-1.06-59.081-0.962
		c-18.636,0.094-36.92,2.002-55.424,4.002c-8.723,0.943-17.461,1.714-26.229,2.065c-4.296,0.173-8.602,0.165-12.901,0.084
		c-3.035-0.056-6.141-0.493-9.219-0.633C206.932,455.636,206.655,454.353,205.115,453.706z M412.545,605.576
		c-1.35-11.902,0.054-24.493,0.32-36.43c0.279-12.5,0.524-25.001,0.722-37.503c0.198-12.439,0.301-24.88,0.344-37.321
		c0.021-6.179-0.031-12.354-0.127-18.533c-0.062-4.02,0.21-8.275-0.402-12.313c2.489,0.16,4.969,0.386,7.433,0.713
		c0.049,0.005,0.099,0.01,0.149,0.015c0.305,0.038,0.606,0.047,0.904,0.041c0.172,0.005,0.328,0.025,0.507,0.023
		c2.638-0.031,4.823-1.963,6.032-4.245c0.909-1.54,1.302-3.235,0.947-4.615c-0.177-1.026-0.69-1.878-1.601-2.367
		c1.181-3.971,2.701-8.58,1.132-12.088c-0.591-1.318-1.882-1.411-3.045-0.961c-0.647-0.892-1.801-1.399-3.584-1.177
		c-8.254,0.122-16.464,0.916-24.747,0.932c-10.151,0.019-20.302,0.024-30.453,0.006c-20.335-0.033-40.671-0.164-61.003-0.473
		c-17.258-0.263-34.388,1.339-51.586,2.539c-18.318,1.279-36.269,1.129-54.517-0.958c-1.643-0.19-4.353,2.322-3.925,3.866
		c-0.659,2.331-0.648,4.652-0.365,7.109c0.133,1.156,0.426,2.312,0.701,3.44c0.305,1.244,1.21,2.514,1.301,3.775
		c0.121,1.67,1.185,2.517,2.482,2.747c3.912,1.889,8.908,2.302,13.675,2.43c-1.464,6.884-1.139,14.115-1.439,21.122
		c-0.329,7.734-0.868,15.458-1.356,23.181c-0.811,12.84-1.239,25.646-0.771,38.505c0.417,11.482,1.067,22.952,1.062,34.446
		c-0.004,5.514-0.173,11.022-0.944,16.486c-0.354,2.508-1.228,5.052-1.932,7.596c-23.353,0.719-46.702,1.461-70.038,1.956
		c-21.784,0.463-43.572,0.926-65.358,1.286c-18.298,0.302-36.685-0.008-54.991,0.703c1.787-1.609,3.074-3.628,3.29-5.779
		c0.542-5.415-0.097-10.454-0.317-15.861c-0.249-6.154-0.071-12.361-0.075-18.521c-0.008-13.331,0.138-26.659,0.383-39.988
		c0.493-26.682,1.451-53.339,3.023-79.981c1.66-28.144,2.085-56.108,1.286-84.296c-0.391-13.801-1.14-27.593-1.751-41.386
		c-0.532-11.999-0.665-24.182-2.183-36.134c3.758,0.436,7.607,0.436,11.343,0.606c7.598,0.344,15.204,0.464,22.809,0.504
		c16.061,0.088,32.237-1.043,48.261-2.014c16.095-0.977,32.182-1.993,48.298-2.556c7.636-0.267,15.279-0.458,22.918-0.432
		c5.516,0.018,11.251,1.28,16.716,0.821c2.81,0.623,5.911-0.631,8.381-2.758c1.371-1.056,2.583-2.507,3.417-4.127
		c3.081-1.678,5.709-4.615,6.301-7.878c0.725-4.001-0.77-7.734-1.254-11.68c-1.128-9.224,0.729-18.881,0.602-28.171
		c-0.125-9.212-0.487-18.328-1.242-27.514c-0.588-7.163-0.182-15.672-2.05-22.972c8.355,2.413,18.128,1.964,26.629,2.228
		c11.597,0.359,23.203,0.34,34.805,0.482c22.483,0.272,44.944,1.308,67.422,1.784c13.621,0.287,27.095,0.129,40.691-0.448
		c6.031-0.257,12.068-0.434,18.105-0.371c2.331,0.025,4.501,0.158,6.783,0.626c0.109,0.023,0.609,0.157,1.116,0.29
		c0.282,0.307,0.592,0.604,0.948,0.879c1.714,1.329,3.389,2.133,5.531,2.07c-0.601,4.07-0.819,8.237-1.273,12.28
		c-1.014,9.059-2.143,18.11-2.953,27.188c-0.797,8.926-1.288,17.842-1.409,26.803c-0.063,4.538,0.027,9.074,0.2,13.609
		c0.164,4.34,1.335,9.338,0.48,13.628c-1.947,2.827-2.297,6.61,1.935,6.736c1.916,1.731,4.897,2.331,7.97,1.348
		c0.986-0.315,1.926-0.761,2.811-1.293c10.301,0.464,20.684,1.886,30.961,1.851c17.365-0.058,34.721-0.408,52.086-0.273
		c17.68,0.136,35.363-0.301,53.044-0.374c8.146-0.033,16.257,0.346,24.39,0.71c3.285,0.146,7.355-0.703,10.473,0.151
		c2.783,0.761,5.045,0.726,7.828,0.058c-1.439,12.76-0.977,25.927-0.912,38.592c0.089,17.187,0.2,34.374,0.44,51.559
		c0.487,35.071-0.954,70.03-1.273,105.084c-0.242,26.505,0.894,52.985,0.987,79.484c0.031,8.99-0.03,17.964-0.657,26.934
		c-0.255,3.646-0.572,7.337-1.326,10.915c-0.145,0.689-0.323,1.369-0.5,2.049c-34.811,0.491-69.617,1.274-104.426,1.891
		C462.222,606.303,437.392,606.128,412.545,605.576z"/>
	<path fill="#010101" d="M305.622,466.984c0.053-0.047,0.107-0.094,0.16-0.14c2.048,0.185-2.383-0.497-3.234-0.165
		c-1.082,0.422-2.001,0.834-2.919,1.574c2.645-2.13,1.498-0.846-0.837-0.604c-4.19,0.435-8.376,0.726-12.582,0.942
		c-7.973,0.409-15.948,0.672-23.929,0.848c-10.485,0.231-21.679-0.791-31.998,1.196c-1.644,0.317-4.228,3.533-1.419,4.148v0
		c0.376,0.082,0.758,0.151,1.137,0.224c-4.551,7.504-2.799,20.479-2.842,28.421c-0.056,10.479,0.487,21.188,1.056,31.661
		c0.593,10.935,1.483,21.848,1.676,32.801c0.088,4.978-0.006,9.976-0.563,14.926c-0.382,3.39-3.004,7.607-2.525,10.85
		c0.101,0.685,0.366,1.151,0.727,1.451c-0.07,0.153-0.108,0.334-0.035,0.473c1.368,2.603,7.681,1.271,9.968,1.114
		c6.319-0.434,12.606-1.59,18.901-2.3c9.961-1.123,22.773-2.943,32.969,0.436c0.077,0.219,0.201,0.429,0.398,0.618
		c2.249,2.161,4.106,2.316,7.159,2.3c2.19-0.012,5.206-2.945,5.439-5.398c0.293-0.316,0.538-0.629,0.704-0.914
		c1.863-3.207,0.332-8.22,0.289-11.76c-0.064-5.359,0.157-10.735,0.3-16.09c0.284-10.617,0.75-21.23,1.213-31.842
		c0.461-10.536,0.919-21.071,1.245-31.612c0.162-5.253,0.193-10.5,0.177-15.754c-0.011-3.326-0.418-6.701-0.709-10.035
		c0.918-0.643,1.698-1.454,2.224-2.542C309.051,469.167,307.616,467.395,305.622,466.984z M262.631,586.8
		c-7.119,0.826-14.186,2.039-21.216,3.415c-1.987,0.389-4.864,0.732-7.55,1.424c2.804-5.447,2.257-14.779,2.329-19.691
		c0.162-10.984-0.88-21.979-1.729-32.917c-0.777-10.001-0.96-20.016-1.672-30.018c-0.473-6.647-1.105-13.265-1.184-19.932
		c-0.05-4.212,1.185-9.359,0.736-13.682c8.574,1.209,17.839,0.354,26.348,0.29c8.707-0.066,17.412-0.525,26.117-0.568
		c4.454-0.023,8.893-0.044,13.347,0.042c0.268,0.005,0.445-0.009,0.558-0.035c0.105,0.062,0.223,0.129,0.367,0.207
		c0.714,0.386,1.594,0.596,2.45,0.588c-0.26,1.913-0.533,3.83-0.624,5.669c-0.261,5.341-0.595,10.677-0.875,16.015
		c-0.556,10.604-1.159,21.207-1.806,31.806c-0.654,10.647-1.288,21.294-1.773,31.95c-0.244,5.37-0.432,10.743-0.583,16.116
		c-0.093,3.298-0.584,6.759-0.736,10.145C284.736,584.603,273.16,585.579,262.631,586.8z"/>
	<path fill="#010101" d="M390.075,468.465c-1.182,0.497-2.289,0.914-3.275,1.781c-0.118,0.104-0.201,0.183-0.293,0.268
		c-0.238,0.035-0.592,0.122-1.119,0.292c-2.414,0.779-5.193,0.779-7.702,0.903c-7.288,0.353-14.598-0.361-21.842-1.064
		c-7.304-0.71-14.593-1.615-21.913-2.147c-5.203-0.377-11.142-1.028-16.009,1.164c-0.647,0.291-1.445,1.267-1.807,2.265
		c-0.258,0.259-0.449,0.576-0.51,0.915v0c-1.6,9.02-0.585,18.667-0.504,27.793c0.1,11.11-0.123,22.228-1.152,33.295
		c-1.845,19.843-3.373,39.273-1.718,59.197c0,0.006,0,0.013,0,0.019c0,0,0.001,0,0.001,0c0,0,0,0,0,0
		c0.214,2.579,2.369,2.977,4.385,2.151c10.349,2.522,22.059,1.101,32.496,0.769c10.158-0.324,20.249-0.494,30.374-0.186
		c0.283,0.43,0.766,0.757,1.513,0.902c2.849,0.555,5.691-0.083,8.47-0.761c3.807-0.931,6.039-7.02,2.279-8.311
		c0.256-2.914-0.016-5.935,0.013-8.829c0.046-5.107,0.19-10.212,0.343-15.315c0.307-10.236,0.776-20.464,1.251-30.693
		c0.49-10.578,0.951-21.158,1.174-31.746c0.177-8.386,0.997-17.53-0.26-26.024C396.405,471.832,394.857,466.457,390.075,468.465z
		 M352.996,588.769c-10.778,0.567-22.115,0.447-32.836,2.465c0.078-0.503,0.066-1.027-0.074-1.564
		c-0.045-0.334-0.122-0.655-0.214-0.97c-4.352-18.787-1.233-39.241,0.212-58.21c0.742-9.752,0.593-19.477,0.241-29.24
		c-0.309-8.571,0.057-17.774-1.262-26.337c4.473,0.999,9.673,0.765,14.089,1.212c7.867,0.798,15.702,1.895,23.564,2.739
		c7.158,0.766,14.389,1.42,21.594,1.196c2.823-0.088,5.693-0.459,8.446-1.091c0.868-0.2,1.207-0.305,1.293-0.358
		c0.145-0.009,0.315-0.021,0.546-0.039c0.205-0.017,0.401-0.047,0.595-0.085c-0.664,7.455-0.399,15.108-0.734,22.494
		c-0.484,10.664-1.147,21.323-1.834,31.976c-0.668,10.358-1.414,20.711-2.064,31.07c-0.324,5.188-0.597,10.379-0.821,15.573
		c-0.11,2.539-0.424,5.252-0.43,7.909C373.201,587.675,363.074,588.24,352.996,588.769z"/>
	<path fill="#010101" d="M48.451,317.956c0.762,0.241,1.537,0.431,2.32,0.596c-3.595,20.986-2.074,44.209,0.355,65.176
		c0.229,1.976,1.883,3.601,4.004,3.228c12.496-2.198,25.33-0.457,37.932-0.371c7.489,0.052,15.65,0.959,23.172,0.171
		c5.597,1.061,10.977-9.486,4.893-10.757c-0.335-0.092-0.708-0.143-1.12-0.148c-0.397-0.046-0.797-0.083-1.197-0.12
		c10.404-1.154,9.132-19.564,9.229-26.57c0.162-11.627-0.703-23.213-0.91-34.832c-0.037-2.091-1.88-3.024-3.721-3
		c-12.596,0.164-25.19,0.355-37.785,0.527c-11.702,0.16-24.926-1.097-36.282,1.939C47.553,314.271,46.124,317.22,48.451,317.956z
		 M83.922,319.805c11.281,0.193,22.563,0.334,33.844,0.478c0.005,8.146,0.262,16.293,0.175,24.442
		c-0.056,5.277-0.178,10.578-0.665,15.837c-0.199,2.153-0.501,4.295-0.944,6.411c-0.208,0.987-0.015,0.436-0.363,1.25
		c-0.274,0.641-0.453,1.068-0.568,1.359c-1.348,2.208-1.432,5.119,0.928,5.97c-6.939-0.349-14.243,0.358-20.991,0.404
		c-11.66,0.077-23.334-1.154-34.841,0.672c-1.569-8.966-2.588-17.982-3.198-27.076c-0.674-10.053-0.512-20.409-2.149-30.388
		c3.337,0.268,6.74,0.186,10.02,0.247C71.421,319.527,77.672,319.698,83.922,319.805z"/>
	<path fill="#010101" d="M493.063,373.724c0.165,1.561,1.181,3.138,2.898,3.302c17.845,1.702,35.716,1.507,53.364,4.843
		c1.493,0.816,3.05,0.847,4.846,0.763c0.753-0.035,1.523-0.28,2.266-0.67c0.065,0.031,0.119,0.067,0.186,0.097
		c3.88,1.727,8.491-1.536,9.351-5.433c4.569-20.72,3.417-42.985,2.684-64.045c-0.069-1.978-1.949-3.445-3.896-3.141
		c-23.112,3.597-47.399-1.108-69.969,5.672c-0.5-1.558-2.84-0.528-3.059,0.841h0c-0.039,0.243-0.067,0.489-0.104,0.732
		c-1.205,1.347-1.78,3.472-0.556,4.252C489.125,338.381,491.229,356.395,493.063,373.724z M558.745,319.292
		c-0.444,17.412-0.233,34.651-2.837,51.871c-17.303-3.549-35.276-4.263-52.929-4.187c-2.61-15.298-4.503-30.717-7.126-46
		C516.78,319.462,537.884,321.272,558.745,319.292z"/>
	<path fill="#010101" d="M73.612,489.547c7.049-0.31,14.063-1.389,21.071-2.155c3.458-0.378,6.923-0.625,10.399-0.764
		c2.509-0.1,5.333,0.426,7.759-0.372c0.008-0.002,0.015-0.004,0.023-0.007c0.03-0.01,0.06-0.022,0.09-0.032
		c0.596-0.198,1.185-0.489,1.744-0.853c0.185,0.729,0.417,1.453,0.686,2.169c2.246,5.987,9.813,0.125,10.91-3.517
		c7.511-24.932-0.631-50.586,0.643-75.93c0.114-2.243-2.254-3.619-4.232-3.413c-23.696,2.455-48.268-0.978-71.812,3.151
		c-1.585,0.278-3.788,2.623-3.56,4.215c-3.212,13.967-1.756,29.583-1.827,43.773c-0.031,6.003-0.203,11.968-0.635,17.954
		c-0.244,3.384-0.393,7.171,1.696,10.061C51.81,491.084,65.99,489.882,73.612,489.547z M81.538,414.67
		c11.408,0.071,23.171-0.943,34.593-0.084c-0.697,20.228,4.298,40.857,1.227,60.862c-0.365,0.209-0.709,0.478-1.025,0.778
		c-3.26-1.968-9.835-0.688-13.006-0.478c-6.341,0.42-12.644,1.398-18.952,2.137c-6.465,0.758-12.974,1.238-19.473,0.663
		c-1.906-0.172-7.945-0.056-9.179-2.121c-1.333-2.231-0.611-6.004-0.543-8.454c0.159-5.823-0.108-11.653-0.313-17.47
		c-0.413-11.697,0.024-24.846-2.522-36.541C61.883,415.276,72.027,414.611,81.538,414.67z"/>
	<path fill="#010101" d="M496.357,481.7c9.802-0.25,19.616-0.355,29.422-0.35c5.317,0.002,10.635,0.085,15.951,0.202
		c2.265,0.049,4.531,0.12,6.796,0.19c0.997,0.031,2.641-0.122,4.174-0.132c0.752,1.195,2.26,1.846,4.592,1.242
		c2.267-0.587,4.04-1.058,5.499-2.312c0.924,1.51,2.064,2.5,4.256,3.103c4.011,1.105,8.473-3.508,8.333-7.313
		c-0.839-23.01-0.147-46.17,2.249-69.074c0.319-3.048-1.203-4.932-4.333-4.938c-13.158-0.027-26.327-0.649-39.482-0.925
		c-13.019-0.275-26.784-1.216-39.697,0.701c-3.163,0.467-7.916,6.947-2.672,7.813v0c0.163,0.027,0.328,0.049,0.492,0.075
		c-1.07,2.782-1.203,6.089-1.491,8.94c-0.623,6.203-0.65,12.413-0.496,18.639c0.334,13.574,1.692,27.102,2.106,40.672
		C492.131,480.628,494.205,481.756,496.357,481.7z M529.276,411.639c12.278,0.313,24.601,0.508,36.87,1.181
		c-2.135,19.613-2.89,39.398-2.494,59.127c-0.071-0.04-0.125-0.095-0.201-0.131c-3.702-1.746-8.524-1.091-12.541-1.2
		c-6.069-0.165-12.14-0.224-18.212-0.24c-10.037-0.025-20.053,0.24-30.073,0.724c-0.837-10.948-2.333-21.837-3.33-32.771
		c-0.588-6.432-0.968-12.902-1.072-19.36c-0.034-2.046,0.602-5.278,0.572-8.148C508.871,411.726,519.307,411.384,529.276,411.639z"
		/>
	<path fill="#010101" d="M218.773,383.176c0.099,0.182,0.195,0.367,0.283,0.567C218.871,383.324,218.792,383.168,218.773,383.176z"
		/>
	<path fill="#010101" d="M218.773,383.176c-0.379-0.696-0.861-1.265-1.619-1.675c-0.804-0.435-1.866-0.571-2.981-0.594
		c0.289-0.851,0.505-1.663,0.641-2.374c1.407-7.34,1.745-14.955,2.225-22.397c1.01-15.599,1.473-31.328,1.066-46.958
		c-0.052-2.027-2.02-3.559-4.009-3.234c-22.549,3.689-45.838,2.047-68.475,4.932c-1.554,0.198-3.547,2.519-3.001,3.908
		c-2.118,10.458-1.485,21.521-1.531,32.136c-0.05,11.571-0.06,23.27-1.334,34.783c-0.251,2.28,0.476,4.182,2.901,4.749
		c12.808,2.986,26.661,3.284,39.728,4.285c7.512,0.576,15.033,1.072,22.561,1.37c5.244,0.208,12.829,0.614,14.261-6.068
		C219.375,385.251,218.707,383.205,218.773,383.176z M150.62,376.509c0.259-10.109,0.201-20.174-0.241-30.289
		c-0.426-9.779-0.375-20.067-2.183-29.776c19.724,2.677,40.051-3.703,59.716-1.266c-0.388,11.931-1.024,23.876-1.762,35.784
		c-0.452,7.314-0.88,14.632-1.698,21.917c-0.272,2.419-0.605,4.833-1.072,7.222c-0.021,0.11-0.095,0.38-0.18,0.688
		c-4.796-0.242-9.589-0.601-14.373-0.951C176.135,378.909,163.26,378.211,150.62,376.509z"/>
	<path fill="#010101" d="M470.103,307.089c-22.938,1.802-47.97-4.614-70.082,3.794c-1.946,0.738-3.481,3.815-1.623,4.734
		c-1.04,2.502-1.44,5.479-1.82,7.751c-1.043,6.229-1.135,12.659-1.07,18.955c0.136,13.317,1.655,26.597,1.517,39.916
		c-0.033,3.304,3.445,3.887,5.921,3.324c18.777-4.274,38.85-3.964,57.817-0.521c0.221,0.128,0.482,0.231,0.788,0.302
		c2.004,0.464,3.234,0.865,5.359,0.684c3.569-0.302,7.805-5.334,6.985-8.592c0.494-0.984,0.796-2.035,0.835-3.054
		c0.798-21.183,0.543-42.522-0.174-63.706C474.473,308.288,472.336,306.914,470.103,307.089z M408.118,373.931
		c-0.65-12.19-2.5-24.293-3.298-36.476c-0.423-6.484-0.593-13.007,0.051-19.482c0.043-0.436,0.132-1.185,0.182-2.036
		c8.673-0.016,17.348-0.482,26.036-0.168c10.703,0.385,21.498,0.885,32.185,1.776c-0.39,17.92,0.398,35.849,0.066,53.776
		c-0.775,0.523-1.468,1.162-1.967,1.882C443.872,370.476,425.359,370.237,408.118,373.931z"/>
	<path fill="#010101" d="M348.024,201.256c-13.322-6.194-29.627-10.008-43.899-5.493c-0.882,0.28-2.187,1.459-2.994,2.767
		c-23.527,0.311-46.709,14.97-59.458,34.04c-13.045,19.513-16.471,45.039-5.813,66.379c23.503,47.068,92.947,39.767,126.972,9.67
		c22.24-19.673,29.157-54.664,14.676-80.937C370.947,215.777,360.245,206.938,348.024,201.256z M359.187,297.92
		c-31.987,33.723-104.268,32.43-116.667-19.153c-4.054-16.863,1.825-34.7,12.104-48.099c13.892-18.113,34.722-21.555,55.479-25.971
		c9.057,1.979,18.347,2.754,27.144,6.252c10.555,4.199,19.682,10.983,26.365,20.183C377.566,250.344,375.424,280.8,359.187,297.92z"
		/>
	<path fill="#010101" d="M128.002,526.402c-0.31-3.02-0.531-6.452-1.129-9.744c0.251-0.373,0.478-0.772,0.678-1.197
		c5.994-12.741-24.341-9.263-30.015-9.074c-6.819,0.224-13.579,0.348-20.406,0.184c-8.702-0.208-20.583-2.002-28.207,3.241
		c-1.302,0.898-3.142,3.857-1.818,5.16c-3.534,9.659-3.873,21.16-4.988,31.157c-1.321,11.865-1.378,23.391-0.917,35.298
		c0.208,5.392,5.726,4.8,9.414,2.344c1.508,0.321,3.053,0.536,4.55,0.803c4.111,0.733,8.191,1.604,12.31,2.302
		c8.101,1.376,16.193,2.157,24.414,2.027c6.662-0.108,13.05-0.569,19.703-0.208c4.884,0.267,10.042-1.597,12.101-5.857
		c8.309-5.584,6.692-25.271,6.313-32.763C129.606,542.167,128.809,534.278,128.002,526.402z M109.352,575.184
		c-6.997-0.055-14.007,1.395-21.031,1.554c-7.388,0.168-14.85-0.786-22.211-1.303c-3.712-0.261-7.608-0.573-11.395-0.29
		c-0.014-0.124-0.021-0.244-0.043-0.371c-0.18-1.064-0.535-2.361-1.461-3.063c-1.594-9.738-1.161-20.177-0.823-29.867
		c0.279-8.014,2.309-17.807,0.843-26.12c2.38-0.086,4.781-0.324,7.126-0.292c5.075,0.075,10.15,0.614,15.19,1.198
		c6.521,0.755,13.01,0.924,19.561,1.091c6.275,0.162,12.579,0.348,18.761,1.518c0.951,0.18,1.504,0.31,2.153,0.639
		c0.093,0.047,0.25,0.093,0.443,0.136c-0.049,2.048,0.018,4.11,0.021,6.145c0.009,7.44,0.515,14.873,0.669,22.312
		c0.134,6.463,0.196,13.001-0.525,19.435c-0.218,1.952-0.844,5.394-1.248,6.42c-0.1,0.255-0.209,0.508-0.321,0.76
		C113.162,575.192,111.249,575.199,109.352,575.184z"/>
	<path fill="#010101" d="M576.085,570.789c0.436-2.546,0.42-5.221,0.552-7.824c0.331-6.498,0.382-13.01,0.375-19.514
		c-0.007-6.943-0.097-13.871-0.396-20.807c-0.173-4.003-0.247-9.539-2.203-13.152c-0.653-1.207-1.773-1.542-2.9-1.339
		c-0.39-0.584-0.902-1.091-1.539-1.471c-4.414-2.627-10.054-2.442-14.989-2.64c-7.123-0.286-14.239,0.187-21.333,0.801
		c-7.557,0.654-15.098,1.752-22.639,2.589c-5.934,0.659-12.018,1.212-17.497,3.693c-1.857,0.843-3.334,4.093-1.155,5.396v0
		c0.11,0.066,0.225,0.121,0.337,0.183c-1.578,5.179-1.39,10.986-1.448,16.305c-0.075,6.808-0.568,13.648-0.396,20.45
		c0.136,5.429,0.699,10.823,1.098,16.235c0.272,3.676-0.77,8.081,0.346,11.56c0.754,2.351,3.288,2.972,5.561,2.588
		c9.983,3.755,23.406,1.931,33.663,1.572c12.986-0.454,25.97-0.999,38.966-0.656C578.05,584.957,582.007,572.374,576.085,570.789z
		 M536.398,572.624c-9.693,0.567-20.599,0.287-30.492,2.254c1.608-6.703-0.65-15.117-1.797-21.391
		c-1.043-5.704-1.39-11.425-2.066-17.176c-0.631-5.366-0.566-12.136-1.819-17.971c1.958,0.024,3.932-0.118,5.803-0.179
		c6.844-0.222,13.66-0.98,20.502-1.257c11.211-0.453,23.388-2.121,33.991,2.258c1.684,0.696,3.546,0.717,5.259,0.192
		c-1.444,8.399-1.025,17.688-1.528,25.631c-0.397,6.281-0.795,12.57-1.359,18.838c-0.213,2.367-0.77,4.894-1.123,7.39
		C553.308,571.617,544.852,572.127,536.398,572.624z"/>
</g>
<path d="M328.902,222.378c-1.214,12.058-2.516,24.121-3.642,36.199c-0.734-0.336-1.593-0.529-2.579-0.523
	c-6.446,0.035-12.882,0.313-19.3,0.927c-5.805,0.555-12.199,2.309-18.055,1.465c-0.527-10.241-0.825-20.494-0.869-30.756
	c-0.034-7.72-12.034-7.735-12,0c0.111,25.406,1.699,50.763,4.76,75.984c0.919,7.57,12.93,7.662,12,0
	c-1.343-11.064-2.385-22.155-3.16-33.264c5.142,0.2,10.163-0.683,15.401-1.235c7.053-0.744,14.132-1.081,21.223-1.119
	c0.574-0.003,1.099-0.079,1.588-0.204c-0.996,12.147-1.731,24.311-1.933,36.501c-0.128,7.725,11.872,7.727,12,0
	c0.466-28.091,3.756-56.045,6.567-83.972C341.675,214.701,329.67,214.755,328.902,222.378z"/>
</svg>
