<svg id="Capa_2" data-name="Capa 2" xmlns="http://www.w3.org/2000/svg" viewBox="0 0 2012.5 923.99"><title>Jeep</title><circle cx="1680.65" cy="705.64" r="122.28"/><circle cx="454.01" cy="705.64" r="122.28"/><path d="M2020.88,1121.06h-24.22a1.27,1.27,0,0,1-1.27-1.27v-23.17a8.16,8.16,0,0,0-9.05-8.3c-4.06,0-26.67-1.39-44.74-2.53a1.25,1.25,0,0,1-1.18-1.26V1070a7.14,7.14,0,0,0,0-.8c-3.94-40-21.14-74.91-34.88-87.14a87,87,0,0,0-23.62-15.1,1.25,1.25,0,0,1-.77-1.08c-1.07-15.72-6.41-54.62-32.95-66.94a7.89,7.89,0,0,0-2.28-.68C1781.16,889,1326,834.59,1275.3,828.52a1.27,1.27,0,0,1-1-.65l-124.63-224a1.33,1.33,0,0,1-.16-.58c-.18-4.48-3.87-16.7-38.77-16.7-60.86,2-861.38-29.28-906.53-10.39a1.21,1.21,0,0,0-.66.69c-11.8,29.7-28.56,151.4-39,234.44a1.27,1.27,0,0,1-2.53-.17v-1.91a27.28,27.28,0,0,0-27.2-27.21H44.7a27.28,27.28,0,0,0-27.2,27.21v326.3a27.28,27.28,0,0,0,27.2,27.21H81.38a1.27,1.27,0,0,1,1.27,1.27v37.45a9.12,9.12,0,0,0,9.12,9.12H261.33a1.27,1.27,0,0,1,1.21,1.64c-14.22,46.85-13.13,100.36,9.16,154.72a199,199,0,0,0,108.37,108.52c149.64,61.46,293-37.52,308.42-175.19a1.27,1.27,0,0,1,1.25-1.13h790.17a1.27,1.27,0,0,1,1.26,1.13c15.4,137.67,158.77,236.65,308.42,175.19A199,199,0,0,0,1898,1367c22.3-54.36,23.39-107.87,9.16-154.72a1.27,1.27,0,0,1,1.21-1.64h112.56a9.12,9.12,0,0,0,9.12-9.12v-71.34A9.12,9.12,0,0,0,2020.88,1121.06ZM1146,608l102.71,185.27a1.26,1.26,0,0,1-.38,1.66c-5.47,3.79-33.22,22.9-40.7,25.78l-.21.06c-8,1.9-10.28-7-11.06-10.54a1.24,1.24,0,0,1,0-.27V766.81c0-5.65,2-12.93-12.34-12.26a1.28,1.28,0,0,1-1.24-.76c-9.25-21.51-29-59.32-65.14-134.18a1.29,1.29,0,0,1,.84-1.8l6.52-1.63.21-.07,19.19-8.64A1.27,1.27,0,0,1,1146,608Zm-301.77,229H844c-14.19-2.09-22.79-14.18-22.79-24.69l-1-150.11c0-10.54,13.44-19.11,23.7-19.11h225.4c13.1,0,31.89,0,41.49,22.32l36.51,87.39a1.27,1.27,0,0,1-1.18,1.76H1131.4a1.27,1.27,0,0,0-1.27,1.27v76.36a1.28,1.28,0,0,1-1.26,1.28ZM288.28,644a26.87,26.87,0,0,1,26.78-26.79H697.18A26.87,26.87,0,0,1,724,644V788.14c0,23-18.8,41.79-41.79,42.8H330.07c-23-1-41.79-19.82-41.79-42.8Zm18.05,489a1.26,1.26,0,0,1,.67-1.86l1.42-.48c-.69.78-1.4,1.56-2.09,2.36Zm240.5,301.71c-153.12,64.85-299.05-81.08-234.2-234.2a157.64,157.64,0,0,1,83.56-83.56c153.12-64.84,299,81.08,234.2,234.2A157.64,157.64,0,0,1,546.83,1434.67Zm1226.64,0c-153.13,64.85-299-81.08-234.2-234.2a157.6,157.6,0,0,1,83.56-83.56c153.12-64.84,299,81.08,234.2,234.2A157.64,157.64,0,0,1,1773.47,1434.67Zm112.17-314.29c-3.53-5.26-31.86-47.05-59.82-74.54a19.81,19.81,0,0,0-13.88-5.63H1535.4c-17.46,0-44.81,16.23-53,29.45a1.71,1.71,0,0,1-.11.14L1371,1197a1.26,1.26,0,0,1-1,.44H769.85a1.27,1.27,0,0,1-.92-.39L658.66,1082.8a.71.71,0,0,0-.13-.12c-23.58-18.7-47.51-29.47-65-29.47l-269.64-1.15a52.8,52.8,0,0,0-28.87,8.47c-33.88,21.88-83.09,60.4-83.09,60.4v.13H162c0-.16,0-.31,0-.47V892.87a1.27,1.27,0,0,1,1.28-1.27l595,2a14.69,14.69,0,0,0,14.74-14.43l4.55-254.29a15.78,15.78,0,0,1,16.09-15.49l312.54,6.42a1.26,1.26,0,0,1,1.11.71c16,33.38,45.47,97.4,63.38,136.32a1.27,1.27,0,0,1-1.16,1.8h-2.65a1.28,1.28,0,0,1-1.13-.69l-47.32-92.06,0-.07c-12.81-29.59-26.37-31.88-44.11-31.88H849c-19.24,0-34.9,15.87-34.9,35.39v142c0,19.51,15.66,35.39,34.9,35.39h284.29a1.3,1.3,0,0,1,.87.35,12.16,12.16,0,0,0,8.23,3.21h35.38a1.27,1.27,0,0,1,1.27,1.27V868.3a1.27,1.27,0,0,1-.75,1.15c-10.53,4.92-16,18.8-6.67,31.84a5.26,5.26,0,0,0,1.2,1.2c16.19,11.64,33.7.34,33.7-15A19.81,19.81,0,0,0,1196,870a1.29,1.29,0,0,1-.68-1.12V839.1a1.27,1.27,0,0,1,.09-.47,12.1,12.1,0,0,0,.92-4.63v-5.76a1.26,1.26,0,0,1,1.55-1.24,13.42,13.42,0,0,0,3.29.39c8,0,31.77-14.13,48.87-28a1.27,1.27,0,0,1,2,.45L1270.54,840a1.4,1.4,0,0,0,.16.26c3,3.94,6.56,3.58,9.12,3.89,1.75.21,150.23,18.65,153.49,18.84l.34,0c210.45,25.88,428.58,46.77,411.08,44.31,18.59,9.79,20.34,52.1,20.36,65.15a8.2,8.2,0,0,0,6.09,7.88c1.89.51,45.32-3.2,51.93,61.66v.17l-1,46.12c-1,11.2,10.46,11.93,14.74,12.2,0,0,13.71.88,27.45,1.7,8,.48,14.36.85,19,1.08l1,0,.94,16.42a1.26,1.26,0,0,1-1.26,1.34c-11.21,0-89.15-.08-97.19-.12A1.24,1.24,0,0,1,1885.64,1120.38Z" transform="translate(-17.5 -570.16)"/></svg>