<svg id="Judo" xmlns="http://www.w3.org/2000/svg" viewBox="0 0 1919.06 1912.11"><title>Judo</title><path d="M818,396.82c7.36-7.38,10.54-17.39,11.79-22.69,1.87-8,1.26-14-1.87-18.37-5.34-7.46-16.79-8.57-30-9.87-1.77-.17-3.57-.34-5.39-.54l-4-.44c-20.29-2.22-37.81-4.14-41.16,12a33.55,33.55,0,0,0,5.66,26.86c7.26,10,20.11,17,38.19,20.72C801.49,406.7,810.78,404,818,396.82Zm-68.63-39.43c2.33-11.25,17.25-9.9,38.55-7.57l4,.44,5.43.55a146.7,146.7,0,0,1,14.82,1.91c5.31,1.1,9.47,2.81,11.7,5.92s6,8.55,4.52,15.08c-1.25,5.33-12.88,34.44-37,29.44C748.08,394.18,747.76,364.92,749.32,357.39Z" transform="translate(-64.47 -67.95)"/><ellipse cx="790.3" cy="379.41" rx="11.99" ry="8.81" transform="matrix(0.2, -0.98, 0.98, 0.2, 193.91, 1008.31)"/><path d="M927.94,373.84l-3.86-1.2L918.92,371c-12.68-4.08-23.63-7.61-31.5-2.89-4.61,2.77-7.55,8-9,16.12-1,5.36-2,15.8,1.79,25.5,3.72,9.47,11.18,15.61,21.57,17.76,18.09,3.75,32.65,2.46,43.28-3.83a33.57,33.57,0,0,0,15.87-22.4C964.28,385.06,947.44,379.86,927.94,373.84ZM902.06,426.1c-24.11-5-22.53-36.19-21.56-41.58,1.19-6.6,6.14-10.2,9.46-12.18s7.77-1.88,13.08-.78a148,148,0,0,1,14.37,4.13c1.7.55,3.43,1.11,5.2,1.66l3.87,1.2c20.48,6.32,35.4,11.17,33.06,22.42C958,408.49,945.36,435.08,902.06,426.1Z" transform="translate(-64.47 -67.95)"/><ellipse cx="912.5" cy="404.74" rx="11.99" ry="8.81" transform="translate(266.51 1148.15) rotate(-78.29)"/><path d="M833.6,463.61c11.65,2.42,25.81-.06,28.21-.52,1.92-.36,4.39-3,2.81-4.12-2.89-2.1-4.3,0-6.21.36-8.16,1.54-15.92-4.81-27.32-11-6.47-3.5-8.55-.84-10.4-.23a3.54,3.54,0,0,0-2.23,4.46C820.58,459,826.64,462.17,833.6,463.61Z" transform="translate(-64.47 -67.95)"/><path d="M782.61,459.91c-4.58-13.11-27.45-10-23,6.75s62.53,56.17,57.94,40.09C817.55,506.75,788,475.43,782.61,459.91Z" transform="translate(-64.47 -67.95)"/><path d="M885.89,348a2.19,2.19,0,0,0,1.4.65c25.21,0,63.4,10.89,87.73,25.23,1,.6,3.31.61,2.28-2.48l-8.3-10a13,13,0,0,0-2.58-2.37c-26.38-18.44-48.48-23.5-76.95-23.49-.48,0-1.7,1.31-2.58,2.26l-2.22,5.29A4.3,4.3,0,0,0,885.89,348Z" transform="translate(-64.47 -67.95)"/><path d="M885.9,338.74a5.12,5.12,0,0,0,1-.95l.94-2.25C887.78,335.53,886,338.75,885.9,338.74Z" transform="translate(-64.47 -67.95)"/><path d="M840.93,329.42c-.07,0-.44-3.69-.49-3.7l0,2.43A5.38,5.38,0,0,0,840.93,329.42Z" transform="translate(-64.47 -67.95)"/><path d="M835.74,337.94a2.22,2.22,0,0,0,1.54-.05,4.28,4.28,0,0,0,3.06-4l.07-5.74c-.43-1.22-1-2.9-1.46-3.09-26.09-11.32-48.34-15.45-79.83-9a13.1,13.1,0,0,0-3.31,1.15l-11.56,5.86c-2.18,2.43-.06,3.33,1.11,3.18C773.33,322.75,812.65,327.92,835.74,337.94Z" transform="translate(-64.47 -67.95)"/><path d="M702.21,1297.67c.19,0,.48-.53.84-1.62C702.13,1297,701.79,1297.6,702.21,1297.67Z" transform="translate(-64.47 -67.95)"/><path d="M1983.32,1918.08c-4.68-25.7-81.64-55.19-113-63.16-98.17-25-127.2-65.36-150.48-108a2.87,2.87,0,0,0-.37-.54,315,315,0,0,0,6.85-42.22,4,4,0,0,0-1.92-3.75l-707.91-426.3,19.32-4.9a4,4,0,0,0,1.77-6.78l-88-83a4,4,0,0,0-4-.89l-5.45-25.21,6.11-26L940,1125.7c11-28.54,12.39-128.46,12.37-128.6l46.5-115.87,4.39-15.05c39,18.46,179.14,97.25,185.32,105.63a.75.75,0,0,0,.68.31l250,76.42a1,1,0,0,0,1,.17l.12,0a1.05,1.05,0,0,0,.58-.68l5.84-24.86c7,3.88,47.21,26.24,55.88,32.81,5.07,3.84,24,13.61,43.35,20.81,15.68,5.84,36.7,14,46.44,9.52,1-.47.73-3.64,1.52-4.34a2.05,2.05,0,0,0,.69-1.61c-.23-6.35-34.73-28.14-48.27-36.46,18.86,4.33,77.2,17,90.78,10.69a6.64,6.64,0,0,0,.88-.47,4.46,4.46,0,0,0,2.24-3c1-6-12.42-14.59-40-25.55-6.85-2.73-13.86-5.31-20.2-7.53,31.69,6.9,84.82,16.61,99.57,10.74a6.63,6.63,0,0,0,3.88-3.21,5.27,5.27,0,0,0-.29-4.76c-6-11.29-49.9-24-81.68-31.79,26.43,4,60.5,7.73,71.68,2.57a9.05,9.05,0,0,0,1.72-1,5,5,0,0,0,2.28-4c.19-7.6-18-14.7-55.66-21.71-24.91-4.64-50.16-7.58-54.66-8.09-.13-5.81,6.44-9.44,15.41-14.39,9.3-5.14,20.87-11.53,29.26-23,12.63-17.32,7.79-21.56,7.2-22a1,1,0,0,0-1-.08l-50,20.61L1467.44,935l3.39-14.42a.76.76,0,0,0-.15-.68l-214.45-77.39L967.57,621.9a.77.77,0,0,0-1.16-.34,1,1,0,0,0-.42.48l-30.6-103.93c19-17.6,35.37-40.41,47.46-67,16.1,1.37,33.33-17.07,39.49-43.06,4.15-17.54,2.25-34.26-4-45.13a18.14,18.14,0,0,1,6.54-1.62c10.38-100.81-39.08-190.51-118.07-206.89-80.38-16.66-162.87,48.51-192.14,148-9,7.91-16.3,21.55-19.2,37.84-4.71,26.49,3.93,50.42,19.46,55.32.74,40.83,5.92,63.66,25.32,92.19l-67.6,59.45L433.35,526.61,313.28,299.27a.68.68,0,0,0-.66-.2L298.17,303,335,208.25l30.19-54.34a1.18,1.18,0,0,0,.09-1.07c-.32-.68-3.76-6.27-23.75,6.84-13.28,8.71-15.93,9.22-22.87,19.26-6.71,9.7-11.61,16.79-17.51,16.35.3-5,1.93-33.19,1.77-61.07-.25-42.12-4.15-56.69-11.93-56.88a5.81,5.81,0,0,0-4.49,2.32,13.5,13.5,0,0,0-1.33,1.86c-7.32,12.14-9.76,44.13-10.53,73.66-2.17-35.66-7-79.09-17.45-86.28a4.85,4.85,0,0,0-4.8-.56,8.49,8.49,0,0,0-4,4.13c-8.7,16-8.54,69.5-7.32,105-1.11-7.15-2.45-15.06-4-22.81C231,123.54,224.66,94.17,218.36,95a5.35,5.35,0,0,0-3.5,2.32c-.22.29-.44.61-.65,1-8.88,14.73-6.7,94.12-5.74,115.27-6-15.46-21.9-54.87-28.34-55.45a2.25,2.25,0,0,0-1.77.68,14.3,14.3,0,0,0-2.29,2.92c-6.37,10.56-4.31,32.85-1.23,50.55,3.8,21.84,10.3,43.36,13.28,49.18,5.57,10.86,23.44,64.34,23.61,64.88a.73.73,0,0,0,.17.27L176,336.4a1.24,1.24,0,0,0-.79.61.75.75,0,0,0-.07.12,1.14,1.14,0,0,0,0,1.08L288.61,623.29l.83,2a1.74,1.74,0,0,0,.11.18C297.38,635,497.66,715,526.3,732.81l24.77,100.34c9.36,15.8,23.49,57.13,5.54,61a.74.74,0,0,0-.12.5l3.09,96.06-3.66-.92-2.44,19-30.84,28a4,4,0,0,0-3.48,1.62c-.94,1.28-94.22,121.21-123.74,153.68-4.5,5-3.61,9.42-2.69,11.65a14.07,14.07,0,0,0,.67,1.35c-3.81,1.54-9.18,3.63-15,5.89-31.77,12.36-90.9,82.35-142.65,110-65.6,35.07-97.12,65.45-96.36,92.89,2,70.85,45.91,382.46,47,390.32.18,2.18,2.23,21.68,19.5,37.63-10.68,9.84-45.52,41.29-72.66,58.56-10.35,6.59-22.33,11.48-32.9,15.79-16.73,6.84-31.19,12.74-34.95,23.46-1.8,5.11-1,10.85,2.5,17.07,8.57,15.43,25.2,23,50.83,23.31h1.33c26,0,62.86-7.34,112.5-22.43a4,4,0,0,0,1.39-.74A180.29,180.29,0,0,0,261.22,1929c8.86-10.86,13.31-16.32,32-20.28,31.5-6.68,39.32-12.66,46.89-18.43.56-.43,1.11-.86,1.68-1.28,3.16-2.37,6.54-7.87,4.59-29.52-.74-8.16-2-15.83-2.64-19.54,18-14.78,24.76-33.79,25.43-47.07.48-9.63-9.62-42.16-1.44-138.67,4.17-49.09,9.19-97.22,10.38-108.5,27.56-10.06,289.55-104.47,355.15-85.07,43.4,12.84,357.2,160.13,586.33,267.68,74.26,34.85,138.38,65,185.9,87,25.25,11.73,43.74,20.23,56.53,26,22.32,10,22.77,9.89,24.64,9.27,1.42-.47,17.17-5.76,36.89-13.88a4,4,0,0,0,1.87,1.69l52.27,22.72c-1.77,8.72-4,32.15,14.41,58.94,18.29,26.61,61.23,29,111,31.86,13.39.76,27.23,1.55,41,2.86,9.42.89,19,1.32,28.62,1.32,46.87,0,92.65-10.16,106.31-25C1983.59,1926,1983.89,1921.21,1983.32,1918.08ZM1568.13,919.55a1.09,1.09,0,0,0,.24-.07l49.37-20.36c.7,1.25,1.93,6.06-7.75,19.33-8.11,11.13-19.45,17.39-28.55,22.42-9.6,5.3-24.45,7.83-23.71,15.18,0,.37,7.62,2.31,8,2.35,30.58,3.34,109.86,14.92,109.54,28.29a3.19,3.19,0,0,1-1.47,2.52c-13.79,10.19-104.46-7.61-105.38-7.79a1.09,1.09,0,0,0-1.21.67.78.78,0,0,0,.6,1c1.05.21,104.72,21.59,113.63,38.5a3.7,3.7,0,0,1,.26,3.37,4.66,4.66,0,0,1-2.7,2.1c-17.55,7-96.11-9.91-117.11-15.19-3-.92-4.86-1.47-5.31-1.55a1.13,1.13,0,0,0-1.24.6.81.81,0,0,0,.51,1.13c.5.23,2.58.81,5.86,1.63,19.11,6,78.39,26.82,76.59,37.23a2.47,2.47,0,0,1-1.3,1.7c-10.3,6.44-66.87-4.88-95.58-11.81.69-1.4,1.89-3.68,1.81-3.54-.23.4-3.35,4.85-3,5.08,21,12.59,52.21,33.14,52.39,38.16a.28.28,0,0,1,0,.19c-5.79,5.21-22.06,3.2-45.79-5.63-18.91-7-38-16.89-42.91-20.58-9.13-6.91-46.15-33.45-51.58-36.45l15-81.28Zm-27,122c0,.15,0,.27-.1.3S1541,1041.79,1541.09,1041.6Zm-514.25,221.61c-44.62,11.3-286.91,72.68-357.55,91l61-202.54c-9.22,53.34-23.18,132.15-27.22,144.39,6.72-7.1,44.84-35,44.84-35l12.84-124.93L771,1317.46l41.27-53.5s-24-86.67-35.69-124L918,1175.14ZM1243,860.4c.14.2,23.51,4.29,23.74,4.31l202.14,56.09-29.45,125.3-249.73-76c-81.3-48.34-188.06-113.43-189.12-115.94-2.33-5.54-3.17-42-6.35-102.31a.81.81,0,0,0-.92-.83,1,1,0,0,0-.81,1.1c.27,5.12-4.81,42.48-3.74,79.4-.24-.5-.36-.78-.36-.76L963.7,1026.37l-26.84,98.55-185.28-46.26c6-15.43,63.91-135.92,63.91-135.92l33.85-99.87L966.13,623.16ZM728.42,452.48c-5.08-17.51-6.16-37.26-6.51-56.53l-.06-3.55-1.32-.64c-6-1.9-15.77-5.86-18.87-14.6a61.49,61.49,0,0,1-2.91-32c2.62-14.69,9.92-29.09,18.26-37.53a90.8,90.8,0,0,1,7.3,16.69,6.21,6.21,0,0,0,.6,1.29l-1.61,9.06,10-7.41c2.51-1.86,10.13-7.53,30.79-45.36,4.61-8.43,8.86-16.63,12.11-23.05a119.34,119.34,0,0,0,6.53,17.77c10.37,22.42,26.55,37.49,46.78,43.58,1.31.39,2.67.74,4,1,25.73,5.34,59.13-9.46,86-21.35C936,292.56,953,285,960,286.47l.57-2.73h0l-.57,2.73a2.43,2.43,0,0,1,2.1,1.52c4.73,10.71,9.51,37.27,13.73,60.7,6.64,36.95,8.88,46.64,13.09,49.54a7.08,7.08,0,0,0,2.56,1.11,6.51,6.51,0,0,0,3.16-.12l2.78-.79.67-2.82,2.39-10.07c3.16-6.74,7.23-14.93,13.39-19.87,4.85,9.65,5.34,24.9,1.57,40.81-2.77,11.71-8,22.21-14.84,29.58-6.26,6.79-13.85,10.09-20.11,9.56l-2.78-.15-1.44,3.17c-8,17.55-15.85,34-27.47,48.06-11.43,13.82-25.58,25.12-39.35,34.16-14.23,9.34-33.53,16.57-44.63,19a99.53,99.53,0,0,1-43.65.08c-14.8-3.06-26.2-7.3-38.79-16.45-12.24-8.88-30.6-35.25-39.69-49.07S733.42,469.7,728.42,452.48Zm93.14,102.63c39.75,8.24,80.16-6.24,112.91-36.15L843.13,706.27,742.71,491.36C761,516.67,792.05,549,821.56,555.11ZM189.28,257.73c-2.87-5.58-8.89-25-12.61-46.38-4.66-26.79-3.72-44.93,2.66-51.09a.3.3,0,0,1,.19,0c5.09.47,20.33,36.21,29.33,60.11a.7.7,0,0,0,1.06.34,1.42,1.42,0,0,0,.74-1.28c-1.81-32.13-3-109.81,5.47-120.91a3,3,0,0,1,2-1.36C229,95.68,239.43,176.53,242,198c.23,3.68.44,6,.58,6.58.22.92.92.68,1.06.62a1.44,1.44,0,0,0,.84-1.34c0-.5-.2-2.62-.59-5.9-1.54-23.52-4.38-105.66,6-124.78a5.92,5.92,0,0,1,2.64-2.88,3.41,3.41,0,0,1,3.39.46c15.61,10.77,18.4,120.89,18.43,122.06a.71.71,0,0,0,.95.73,1.42,1.42,0,0,0,.91-1.31c0-1-1.56-96.54,11.39-111.31a3.67,3.67,0,0,1,2.84-1.5c13.7.34,11,82.9,8.76,117,0,.45-.18,7.54.19,7.6,7.36,1.21,13.41-13.72,20.57-24.08,6.81-9.84,9.27-10.09,22.12-18.51,15.27-10,20-8.44,21.14-7.58l-29.83,53.7a1.23,1.23,0,0,0-.12.26l-36.86,94.83L262,312.91l-42.63,11.65C215.9,315.5,194.46,267.83,189.28,257.73ZM574.8,897.89l16.82-6.72c3-1.19-17.5-24.15-15.18-26.35,1.56-1.49,6.62-3.16,6.55-3.29l-22.8-152.68a12.55,12.55,0,0,0-2.4-4.68l-.34-.67s-.11,0-.26.19c-6.21-3.44-187-43.54-251.69-78.5-.15-.08-.17-.3-.26-.45L177.61,338.13,315.53,288.8l98.93,238.75C410.94,540.18,442.89,541.83,443,542l237,21-8.68-15L805.55,790.77l-33.07,74.36S747.8,936.38,747.8,967.55c0,3.84-47.68,82.35-61.17,94.9L563.47,991.7Zm-162.46,299.6c29.8-32.78,128.2-149.46,132-154.69.14-.19,0-.37-.21-.56l127.25,71.62-41,162.24c-.54-1.88-1.21-3.27-2-3.3-.55,0-61.32-39.3-117-45-102.51-10.51-98.81-23.63-100.26-27.12C411,1200.3,410.59,1199.42,412.34,1197.49Zm111.94-160.2,9.32,2.32c-4.16-.77-8.09-1.48-8.85-2A4.48,4.48,0,0,0,524.28,1037.29ZM331.4,1855.2c1.77,19.7-1.38,22.37-1.42,22.4l-1.74,1.32c-6.86,5.24-9.12,8.57-38.86,14.88-21.44,4.54-26,10.75-35,22a252.3,252.3,0,0,1-31,32c-48.26,14.63-77.87,24.33-103.12,24.33-23.72,0-38.25-6.44-45.38-19.28-2.33-4.18-3-7.63-1.94-10.53,2.57-7.32,16.1-12.85,30.43-18.7,10.88-4.44,23.21-9.48,34.16-16.45,32.3-20.55,79.2-52.42,82.69-55.24,13.08,6.93,29.3,10.43,48.49,10.43q6.75,0,14-.58c20-1.59,35.76-6.46,48-13.11C331,1850.76,331.2,1853,331.4,1855.2Zm1250-26.4c-12.55-4.38-124.67-45-258.4-107.73-229.36-107.66-544.62-272.26-588.6-285.27-71.45-21.13-349.53,98.86-361.39,103.25a4,4,0,0,0-2.58,3.32c-.07.58-6.31,59-11.14,116.84-2.83,34-4.63,61.24-5.34,80.88-.42,11.74-.45,20.92-.1,27.26.47,8.32-7.09,36.05-14.45,48.45-7.15,12-23.66,29-81,29-14,0-25,0-44-11-19.29-11.17-20-30.09-20-30.26a1.53,1.53,0,0,0,0-.3c-.45-3.18-45-318.6-47-389.55-.65-23.44,31.21-53,92.14-85.62,51.32-27.44,120.86-90.27,158.86-102.27a182,182,0,0,1,24-5.79c18,4.92,47,17,93.59,21.8,52.19,5.35,103.91,53.87,111,54.19l-23.21,85.17,47.71-14.48a4.32,4.32,0,0,0,.88.11,4,4,0,0,0,1.08-.15c20.37-5.7,265.35-67.82,352.16-89.82l712.54,429.09c-1.27,12.32-25.29,61.41-44.78,78.88C1646.06,1809.29,1590.87,1825.55,1581.38,1828.8ZM1973,1925.66c-14.49,15.77-76.83,26.06-128.28,21.15-13.88-1.32-27.91-10.25-41.38-11-47.62-2.71-81.93-9.63-98-33-20.5-29.82-11.53-46.72-11.2-47.74a4,4,0,0,0-2.2-4.93l-39-26.56c16.54-8.08,32.55-17.33,43.11-26.79,8.65-7.75,15-21.4,19.49-35.87,23.93,43.26,53.18,76.4,152.86,101.76,40.83,10.39,103.77,38.84,107,56.84C1975.58,1920.24,1976,1922.45,1973,1925.66Z" transform="translate(-64.47 -67.95)"/></svg>