<svg id="Koala" xmlns="http://www.w3.org/2000/svg" viewBox="0 0 1761.59 1860"><title>Koala</title><path d="M1263.42,773h-61c-31.94,0-58.07,35.87-58.07,79.7V910.2c0,31.14,13.54,54.36,41.26,61.14l42.26,6.36a20,20,0,0,0,5.68,0l46.64-6.39c25.53-6.78,41.27-30,41.27-61.14V852.68C1321.49,808.85,1295.35,773,1263.42,773Z" transform="translate(-143.21 -94)"/><path d="M952.18,716.07c-34,0-61.49,31.22-61.49,69.74s27.53,69.73,61.49,69.73,61.49-31.22,61.49-69.73S986.14,716.07,952.18,716.07Zm-9.76,83c-14.55,0-26.35-13.38-26.35-29.89s11.8-29.88,26.35-29.88,26.35,13.38,26.35,29.88S957,799.09,942.42,799.09Z" transform="translate(-143.21 -94)"/><path d="M1454.71,716.07c-34,0-61.49,31.22-61.49,69.74s27.53,69.73,61.49,69.73,61.49-31.22,61.49-69.73S1488.67,716.07,1454.71,716.07Zm-9.76,83c-14.56,0-26.35-13.38-26.35-29.89s11.79-29.88,26.35-29.88,26.35,13.38,26.35,29.88S1459.5,799.09,1445,799.09Z" transform="translate(-143.21 -94)"/><path d="M568.69,344.17c3.42-1.6,41.3-17.75,42.13-26.52.26-2.86-4.39-32.16-99.58-31-105.89.42-197,117.21-197,238,0,64.66,35.62,153.78,79.8,195,10.43,9.72,19,14,26.88,13.35,7.46-.58,12.63-5.34,17.19-9.54,7.6-7,13.08-12,28.67-2.09,4.28,2.73,7.88,5.27,11.37,7.72,13.09,9.2,22.55,15.84,44.19,15.84a5.54,5.54,0,0,0,0-11.07c-18.14,0-25.55-5.2-37.83-13.83-3.42-2.4-7.29-5.12-11.77-8-22.77-14.55-34-4.24-42.13,3.28-3.71,3.41-6.91,6.36-10.55,6.65-4.47.33-10.69-3.16-18.47-10.42-41.76-39-60.78-123.78-60.78-186.12,0-114.93,91.87-197.8,171.57-215.51,15.3-3.4,69.61-4.41,86.09,6.3a10.33,10.33,0,0,1,1,.79c-2.79,3.59-17,9.42-24,12.3-14.82,6.08-23,9.44-23.07,16.2,0,1.9.72,5.41,5.88,7.67s16.88,2.93,36.91,3.8c28.57,1.24,68.33,5.93,74.34,20.46,2.16,5.24-37.13,49.55-62.59,53-19.08,2.57-38.59-.53-39.53,2.31a5.54,5.54,0,0,0,3.37,6.93c.22.08,22.6,8.25,44.81,18.45,39,17.94,42.56,26,42.88,27.22-.42.46-2.35,2.09-9.38,3.47C592.55,499.8,559.4,516.17,558,516.86a5.54,5.54,0,0,0,1.71,10.44l72.7,10.12c-5.41,3.57-12,8-18.49,12.74-29.14,21-33,29.2-32.92,34.42a8.47,8.47,0,0,0,4.36,7.32,5.53,5.53,0,0,0,7.12-8.22c1.35-2.42,6.84-9.44,29-25.36,14.65-10.5,29.17-19.54,29.31-19.63a5.53,5.53,0,0,0-2.16-10.18l-67.44-9.39a440.93,440.93,0,0,1,70-19.55c4.34-.85,17.55-3.44,18.32-13.35.57-7.37-4.72-17.62-48.35-37.8-5.18-2.4-10.39-4.69-15.35-6.8l2-.24c19.47-2.52,48.32-11.66,75.18-40.9,10.28-11.19,13.7-21.19,10.17-29.72C685.13,351.29,575.23,345,568.69,344.17Z" transform="translate(-143.21 -94)"/><path d="M1901,493.05c-6.32-44.59-21-90.75-43.49-137.18a589,589,0,0,0-46.29-79l27.89,11.91a7.74,7.74,0,0,0,10.45-9.4c-10.4-33.75-31.83-59.48-63.7-76.5a175.14,175.14,0,0,0-31.63-12.93,20.31,20.31,0,0,0,6-14.39,7.73,7.73,0,0,0-2.3-5.71C1715.59,128.15,1670.29,94,1620.35,94c-.52,0-79.34,3.7-115.12,27.67-31.74,21.26-72.46,61-94.09,94.09-13.22-9.94-14.27-8.4-28.84-16.28-5.36-2.9-6.79-5-7.14-5.72a8.31,8.31,0,0,0,.57-1.16c7.44-18.78,7.15-32.86-.85-41.87-12.75-14.34-38.64-8-41.55-7.21a7.84,7.84,0,0,0-1.9.78,312.65,312.65,0,0,1-28.73,14.44c-24.37,10.57-31.28,8.46-32.21,8.06-.2-.79-.82-5.46,6.35-18.76,2.64-4.91,10.69-19.85,2-29.67-12.88-14.6-50.35-1.56-106,20-8.72,3.38-19.12,7.4-27.78,10.44l1.49-1.15c15.46-12,26.64-20.62,24.25-30.51-.81-3.36-3.46-7.67-11.49-9.18-64.26-12-106.78-6.21-164.34,10.39C927.43,142.7,906,150.06,777.39,194.47,693.88,120.57,638.53,94,552.19,94,484,94,420.71,127.92,363.84,169.05a7.77,7.77,0,0,0-3.21,6.54,18.81,18.81,0,0,0,6.91,14.12c-15.34,3.41-50.32,7.68-63.29,12.77-42.9,16.81-61.42,39.2-75.27,73-10,24.35,16.6,14.39,19.48,13.48l43.36-13.59c-17,17.81-55.64,33.32-78.33,67.63-30.8,46.57-60,105.74-68.63,150.54-8.33,43.1,16.94,60.91,28.7,65.85,10,4.2,22.22-4.49,40.15-28.92a346,346,0,0,0-2.43,39.09c-.25,43.71,7.91,109.25,48.23,173.28a7.73,7.73,0,0,0,12.75.52c3.07-4.08,7.74-7.85,13.88-11.19a87.78,87.78,0,0,1,15.07-6.32,307.33,307.33,0,0,0-1.68,31.87c.13,42.7,10.61,68.52,31.18,76.74,18.14,7.26,34.47,2.06,46-14.63a72.65,72.65,0,0,0,6-10.63c4.31,10.34,10.39,22.74,18.17,33.56,5.68,7.87,11.71,14.1,17.92,18.5,10.2,7.22,21.69,8,33.24,2.37,9.12-4.48,16.81-12.4,22.12-19l14.13,28.46a7.72,7.72,0,0,0,5.45,4.16A319.5,319.5,0,0,0,555,883.21c4.79,0,9.62-.11,14.42-.32a247.39,247.39,0,0,0,20.81,43.28c-17.34,11.47-64.34,46.16-110.05,111.43-32.94,47-58.28,100.29-75.33,158.25-21.25,72.29-29.57,152.16-24.72,237.38,5,87.51,27.17,166.61,66,235.11,33.37,58.94,79.3,110.58,136.49,153.49,119.07,89.34,254.14,116.81,306.68,124.47,35.22,5.14,74.58,7.7,116.33,7.7a1178.67,1178.67,0,0,0,152.29-10.31c90-11.84,168.2-32.35,216.06-56.54,9.27,8.07,33.15,26.14,69.24,34.54,27.08,6.31,55.43,5.84,84.27-1.39,35.64-8.94,72.08-28.3,108.31-57.54,153.43-123.85,154.55-196.75,109-268.11-18.37-28.79-50.81-42.37-93.84-39.25a216.89,216.89,0,0,0-52.37,10.81c.85-37.58-7.7-81.49-32.62-132.28-15.12-33.91-45-57.66-88.74-70.59q-9.27-2.74-19.39-4.83c31.94-11.82,85.5-33.13,137.93-60.77,112.15-59.13,166-117.87,160.17-174.57-3.75-36.26-18.09-62.57-42.63-78.21-50.4-32.11-125-6.89-128.11-5.8-1.75.6-14.14,8.45-43.94,10.51-28.76,2-68.74,1.64-119.26-1.06,60.35-17.58,111.09-47.42,148.24-87.49a254.49,254.49,0,0,0,49.64-78,178.38,178.38,0,0,0,41.51-6,7.78,7.78,0,0,0,5.29-4.84l8.75-24c3.67,5.51,8.38,11.2,13.86,14.87,9.6,6.43,19.91,5.49,28.29-2.6,4.64-4.47,9.11-10.75,13.29-18.66a184.38,184.38,0,0,0,11.29-27.18c.61,1.44,1.26,2.87,2,4.26,4.82,9.53,10.93,15.51,18.15,17.76,6.18,1.92,12.71,1,19.42-2.62,15.62-8.51,23.25-33.49,23.34-76.35,0-11.79-.55-22.61-1.13-30.47a51.65,51.65,0,0,1,7,4.33,34.57,34.57,0,0,1,9.85,10.87,7.74,7.74,0,0,0,13.82-.49c29.45-63.74,35.41-128.92,35.23-172.39,0-11.48-.51-22-1.17-31.34q2.88,4.86,5.46,8.56c3.37,4.83,11.25,16.14,20.88,13.1C1904.35,557,1908.35,545.08,1901,493.05Zm-341.54,570.46c17.44-2.2,106-30.7,145.55-5.45,20.32,13,32.27,35.41,35.5,66.7,6.42,62-93.4,100.86-166.2,139.26-74.79,39.45-152,65.84-163.5,69.7-22.65-2.22-47.64-2.5-74.83-.82-84.57,5.26-148.15,47.95-148.93,48.18a7.75,7.75,0,0,0,4.38,14.86c.77-.22,77.28-22.55,160.14-27.66,48.2-3,89,.37,121.36,10,39.21,11.61,65.77,32.51,78.93,62.13l.13.27c69.46,141.43-26.65,226.48-57.94,267.35-10.84,14.16-17.39,22.71-17,30.68.2,4.15,11.62,32.28,38.73,7.38.09-.09.25,0,.37,0a7.75,7.75,0,0,0,7.38-8c.4-3.1,7.53-12.42,13.83-20.64,20.22-26.42,53.76-70.22,60.21-134.36l.8-.27c1-.39,65.38-37.77,102.37,20.22,23.47,36.78,29.12,66.59,18.92,99.67-13.12,42.52-53.88,90.94-124.62,148-62,50-91.08,68.91-147.55,56.08-42.07-9.56-66.48-34.18-66.71-34.41a7.76,7.76,0,0,0-9.23-1.45c-45.72,24.46-124.34,45.39-215.69,57.41-94.37,12.41-150.88,9-224.5-1.79-78.73-11.48-472.64-89.48-495.91-498.62-10.72-188.32,6.87-309,56.94-380.74,43.95-63,90.08-97.12,106.34-108,42.88,61.17,114.08,101.8,209.52,118.8l.52.08,293.59,41C1351.37,1105.7,1521,1068.34,1559.43,1063.51Zm-203.12-20.83-257.51,28.14a157.64,157.64,0,0,1-32.72-.16l-255.4-28c-93.85-16.77-163-57.15-203-118h0c-.14-.25-.3-.48-.46-.71a230.08,230.08,0,0,1-24.52-49.93,8,8,0,0,0-.36-.85,7.74,7.74,0,0,0-8.06-6.11c-6.38.4-12.87.61-19.29.61a304.24,304.24,0,0,1-54.55-4.94l-18.2-36.69a7.76,7.76,0,0,0-13.66-.43c-.1.17-10.35,17.71-23.38,24.11-6.4,3.14-11.95,2.79-17.45-1.1-4.82-3.42-9.63-8.44-14.3-14.92-15.2-21.1-23.6-50.31-23.68-50.6a7.75,7.75,0,0,0-15.09.78c0,.16-2.77,15.62-10.72,27.15-7.39,10.71-16.11,13.59-27.47,9-13.72-5.49-21.33-27.64-21.43-62.39a288.42,288.42,0,0,1,3-41,7.75,7.75,0,0,0-9-8.86,111.92,111.92,0,0,0-30.25,10.72,68.48,68.48,0,0,0-11.25,7.55C233.59,668,226.55,609.42,226.78,569.7c.25-43.32,9-73,9.07-73.33a7.75,7.75,0,0,0-14.1-6.16c-.06.11-6.61,11.21-15.08,23.47-15.78,22.83-23.38,29.17-26.39,30.83-24.35-12.18-21.83-27.56-10-59.78,15.49-42.06,32.32-82.43,62-127.29,39.42-59.61,92.67-92.86,93.12-93.25A7.75,7.75,0,0,0,318,251l-56.23,17.63c14.25-22,37.35-39.35,68.9-51.72,21.55-8.44,46.9-14.51,75.35-18a7.75,7.75,0,0,0-.37-15.42A188.39,188.39,0,0,1,385.9,181c-2.85-.53-6.08-1.42-8-2.94C431,141.16,492.05,121.67,555,121.67c92.89,0,179.23,41.4,243.14,116.58a7.75,7.75,0,0,0,11.81-10q-9.63-11.33-19.95-21.68c120.18-41.45,191.35-60.63,202.78-62.72.48-.09,97.61-30.67,159.83-21.27-4.13,4-11.18,9.48-15.53,12.85-14.06,10.88-60.18,34.06-58.1,42.31.48,1.9,2.35,6.46,9.31,7.61,7.7,1.27,60.12-20.87,90.17-32.5,18.81-7.28,40.14-15.54,57.87-20.57,24.88-7.06,30.32-4.06,30.91-3.65.11.47.57,3.6-4,12.1-6.18,11.47-50.91,44.41-41.19,53.82,7.88,7.64,60.86-10.41,85.94-21.15a326.93,326.93,0,0,0,30.29-15.09c6.71-1.54,20.24-2.69,25.07,2.77,3.6,4.07,3,13-1.67,25.07-1.52,2.46-40.23,22.74-39.43,26.91,1.21,6.31,43.92-4.67,52.73.09,98.83,53.45,165.39,156.7,203.52,315.7l20.86,252.67C1599,913.57,1506,1013.59,1356.31,1042.68Zm217.47-587.41a22.27,22.27,0,0,0,6.26,3,185.29,185.29,0,0,1,39.84,17.82l-37.13,8.28Q1578.46,469.47,1573.78,455.27Zm315.38,85.92c-3.13-4-8.25-11.66-15.84-26.61-6.22-12.28-11-23.4-11.08-23.51a7.75,7.75,0,0,0-14.69,4.74c.07.29,6.53,30.23,6.72,73.88.17,39.22-4.84,96.75-28.67,154.13a55.78,55.78,0,0,0-5.5-4.63,71.8,71.8,0,0,0-23.26-11.2,7.75,7.75,0,0,0-9.53,8.44,390.87,390.87,0,0,1,2.2,41.3c-.11,49.21-10.71,60.3-15.27,62.78-4.35,2.38-6.64,1.66-7.39,1.43-3-.93-6.16-4.47-8.94-10-5.9-11.67-8-27.55-8-27.7a7.75,7.75,0,0,0-15.28-.6c-.06.29-6.23,29.68-17.49,51-3.41,6.45-6.9,11.42-10.36,14.75-3.12,3-5.37,3.24-8.9.87-7.64-5.11-14.69-18.89-16.76-23.76a7.74,7.74,0,0,0-14.41.36l-13.22,36.3a164.38,164.38,0,0,1-27.86,4.21,275.44,275.44,0,0,0,13.54-86.59,7.73,7.73,0,0,0-.12-1.36l-45.38-253.58-.09-.45q-2.73-11.37-5.64-22.37c13.72,14.69,24.26,28.55,25.06,33.27a5.53,5.53,0,0,0,8.42,7.05,8.59,8.59,0,0,0,2.69-6.35c.16-10.22-17.65-30.67-30.19-43.8l41-9.14a5.53,5.53,0,0,0,2.25-9.72c-.82-.65-20.44-16.19-53.77-26.65-2.47-.78-4.06-1.79-4.16-2.65s-.11-7.52,23.51-25.1c13-9.73,26.56-17.62,26.69-17.7a5.54,5.54,0,0,0-5.1-9.81c-1.16.52-28.72,12.27-54.48-32.67-5-8.8-6.34-15.6-3.87-20.23,5.7-10.69,31.07-12.46,47.86-13.63,12.56-.87,19.29-1.45,23-4.08a8.26,8.26,0,0,0,3.84-7c-.08-5.81-6.17-9.81-13.87-14.88-4.64-3-13.26-8.71-13.59-11.65,0-.25.36-.75.7-1.1,8.33-8.68,20.81-11.68,55.16-1.73,38.3,11.09,50.67,20.27,64.07,58.63,17.8,51,25.55,85.69,25.55,137.85,0,58.16-11,137.26-35.32,173.52-4.91,7.33-7.39,8.44-7.87,8.59-1-.51-3-3.37-4.13-5.11-3.1-4.56-7-10.25-13.69-10.85-4.92-.44-10,2-15.37,7.6-2.63,2.69-4.89,5.24-6.89,7.49-7,7.93-10.59,11.92-19.63,11.92a5.54,5.54,0,0,0,0,11.07c14,0,20.45-7.25,27.91-15.64,2-2.26,4.08-4.6,6.52-7.1,4.19-4.29,6.14-4.34,6.47-4.31,1.51.13,3.82,3.54,5.51,6,3,4.45,6.77,10,13.25,10h0c5.57,0,10.84-4.19,17.09-13.53,25.55-38.17,37.19-119.9,37.19-179.67,0-54-.8-112.39-21-151.08-40.62-77.68-128.74-66-142.81-51.34a12.15,12.15,0,0,0-3.71,10c.91,8.1,9.86,14,18.51,19.67,1.93,1.28,4.45,2.93,6.37,4.37-3.65.56-9.27,1-14.07,1.29-20.37,1.42-48.27,3.37-56.86,19.45-4.38,8.22-3,18.63,4,30.95,15.94,27.81,33.43,36.57,45.3,39h.06c-3,2.07-6.22,4.33-9.41,6.7-19.19,14.28-25.59,23.4-27.42,29.52-31.71-89.87-75.56-157.6-132.54-204.7,44-68,115.34-113.58,179.35-114.16.46,0-18.92-1.1-18.46-1.1,44.65,0,108.33,20.53,146.93,57.41-.71,1.24-2.2,2.36-5.33,3.14a99.52,99.52,0,0,1-14,2.34,7.75,7.75,0,0,0-.5,15.35c20.52,3.46,38.79,9.42,54.31,17.7,22.62,12.08,39.27,29.1,49.69,50.74l-37.48-16a7.75,7.75,0,0,0-9,12.09c.33.39,32.87,39.69,61.79,99.29,21.83,45,36,89.6,42.09,132.6C1889.41,521.86,1889.65,534.89,1889.16,541.19Z" transform="translate(-143.21 -94)"/></svg>