<?xml version="1.0" encoding="utf-8"?>
<!-- Generator: Adobe Illustrator 23.0.1, SVG Export Plug-In . SVG Version: 6.00 Build 0)  -->
<svg version="1.1" id="Layer_3" xmlns="http://www.w3.org/2000/svg" xmlns:xlink="http://www.w3.org/1999/xlink" x="0px" y="0px"
	 viewBox="0 0 566.9 566.9" style="enable-background:new 0 0 566.9 566.9;" xml:space="preserve">
<style type="text/css">
	.st0{stroke:#000000;stroke-miterlimit:10;}
</style>
<path d="M522.7,482.8c-1-2.1-3.1-4.5-4.8-4.5c-16.9-0.3-33.9-0.5-50.8-0.6c0-7.2,0-6.4,0-13.7c0-0.7-0.5-1.5-1.3-2.2
	c10.2-0.1,20.3-0.1,30.5-0.2c9.6-0.1,12.2-20.5,7.6-31.2c4.6-10.7,2.1-31.1-7.6-31.1c-63.1,0.4-126.2,0.7-189.3,1.1
	c-9.6,0.1-12.2,20.5-7.6,31.2c-4.6,10.7-2.1,31.1,7.6,31.1c14.3-0.1,28.6-0.2,42.8-0.2c0,7.9,0,7.7,0,15.6
	c-21.8,0.3-43.7,0.8-65.5,1.3c-2.3,0.1,0.4,5.4,3.1,7c1,2.1,3.1,4.6,4.8,4.5c5.4-0.1,10.8-0.3,16.3-0.4c0,5.6,0,11.1,0,16.7
	c0,0,0,0,0,0c0,5.6,0,11.1,0,16.7c0,1.9,3.5,4.1,6.1,4.8c2,2.6,8.4,5.1,8.4,2.6c0-8.9,0-17.8,0-26.7c0,0,0,0,0,0c0-4.8,0-9.6,0-14.4
	c53.4-1.1,106.8-1.4,160.2-1c0,6,0,12,0,18c0,0,0,0,0,0c0,5.6,0,11.1,0,16.7c0,1.9,3.5,4.1,6.1,4.8c2,2.6,8.4,5.1,8.4,2.6
	c0-8.9,0-17.8,0-26.7c0,0,0,0,0,0c0-5.1,0-10.2,0-15.3c9.4,0.1,18.7,0.2,28.1,0.4C528.1,489.8,525.4,484.4,522.7,482.8z
	 M358.2,462.5c33.3-0.2,66.6-0.4,99.9-0.6c0,7.9,0,7.8,0,15.7c-33.1-0.2-66.2,0-99.2,0.4c0-7.3,0-6.6,0-14
	C358.9,463.5,358.6,463,358.2,462.5z"/>
<path d="M0,562.6c75.7-12.4,152.5-14.4,229.1-13.6c77.2,0.9,154.4,4.6,231.7,3.4c21.5-0.3,42.9-1.1,64.4-2.4
	c21.2-1.3,42.5-2.6,62.9-9.1c5.3-1.7,5.3-12.5,4.7-16.6c-0.6-4.3-2.8-11.2-8.3-9.4c-17.9,5.6-36.9,6.7-55.5,7.9
	c-19.2,1.2-38.3,2-57.5,2.4c-38.1,0.9-76.2,0.4-114.3-0.4c-76.4-1.6-152.9-4.7-229.4-1.6C85,525,42.3,528.7,0,535.6
	c-5.6,0.9-6.8,8.9-6.8,13.5C-6.8,552.2-5.4,563.5,0,562.6L0,562.6z"/>
<path d="M292.7,184.8c-0.4-35.4-31.2-59.1-63.7-64.6c-7.7-57.4-89.9-76.6-129.1-38.1c-10.1,9.9-16.6,22.9-18.1,36.9
	c-22.5-0.1-45.5,9.5-59.1,27.9C8.5,166,7.1,191.5,19.3,212.1c6.1,10.3,15.2,18.4,25.4,24.5c-17.1,20.4-19.5,49.1-4.3,71.6
	c14.9,22.1,42.9,34,69.1,33.1c15.2-0.5,29.7-5,42.1-13.6c21.5,13.8,49.2,17.7,73.5,9.1c22.9-8.2,41.7-28.4,43.7-53.3
	c1.3-15.6-3.8-30.6-13.4-42.7c21.3-10.4,37-30.6,37.3-55c0-0.1,0-0.3,0-0.4C292.7,185.2,292.7,185,292.7,184.8z M241.1,234.9
	c-1.4,0.6-2.2,2.1-1,3.4c20.4,23.4,18.3,57.4-4.6,78.2c-21.9,19.9-56.8,22.9-80.1,3.7c-2.9-2.3-9.2-4.9-12.6-2.1
	c-23.1,19-58,21-80.5,0.2c-22.7-21-22.7-55.7-2-78.1c2.2-2.4-2.2-4.9-3.8-5.7c-24.8-12.3-37.4-41.6-27.7-67.8
	c9.3-25.4,36.3-41,62.9-39.4c1.1,0.1,4.4-0.2,4.5-1.9c1.7-23.7,17.9-43.4,39.9-51.6c22.1-8.2,47.5-3.7,63.9,13.6
	c9,9.4,14,21.7,14.9,34.6c0.3,3.6,7.6,5.1,10,5.2c29.3,1.7,52.7,25.5,53.2,55C277.6,205.8,262.6,225.5,241.1,234.9z"/>
<path d="M165.5,432.1c-1.6-30.1-1.5-60.3,0.8-90.4c0.3-4,0.5-17.1-6.5-17.1c-7.3,0-14.7,0-22,0c-4.2,0-6.3,6.7-6.5,9.9
	c-2.3,31.2-3,62.4-1.5,93.7c1.4,28.5,4.6,57.3,1.9,85.8c-2.2,8-0.1,20.2,6.2,20.2c7.3,0,14.7,0,22,0c4.3,0,6.2-6.7,6.5-9.9
	C169.8,493.5,167.1,462.8,165.5,432.1z"/>
<path d="M536.5,184.6c-8.9-14.9-18.4-29.3-36.5-33.3c-8.9-2-18.7-1.2-27.5,1c-5.3,1.3-11.7,3.1-16.4,6.6c-3.2-3.5-6.8-6.6-10.9-8.7
	c-7.7-4.1-18-2.8-26.2-1.5c-6.2,1-11,4.1-16,7.7c-4.3,3.2-9,6.6-12.4,10.8c-5.4,6.7,10.7,23,15.6,17c4.7-5.8,12.2-11.8,18.9-15.2
	c5.2-2.7,12.4-2.7,18.1-2.6c1.2,0,2.4,0,3.6,0.2c0.1,0.1,0.2,0.3,0.4,0.4c2.1,2.5,4,4.8,5.7,7.5c1.9,2.9,12.2,12.6,15,5.5
	c2.3-5.9,11.8-7.9,17.3-9.2c6.7-1.7,13.7-2.4,20.6-1.4c2.5,0.4,5.1,1,7.3,2.3c0.2,0.1,0.3,0.1,0.4,0.2c0.1,0.1,0.2,0.3,0.4,0.6
	c1.2,1.8-0.2-0.5,1.2,1.6c3.1,4.4,5.9,9.1,8.7,13.7c2.1,3.5,8.1,9.2,12.6,7.7C541.5,193.8,538.1,187.3,536.5,184.6z M446.8,166.4
	C446,165.9,445.2,164.6,446.8,166.4L446.8,166.4z"/>
<path class="st0" d="M0,431"/>
</svg>
