<svg id="Quad" xmlns="http://www.w3.org/2000/svg" viewBox="0 0 1791 1031"><title>Quad</title><circle cx="310.5" cy="720.5" r="36.5"/><path d="M1918,1250.5h-7.79a289.32,289.32,0,0,0-13.24-49.69l8.54-4.93a12,12,0,0,0,4.39-16.39l-39-67.55a12,12,0,0,0-16.39-4.39l-8.8,5.08a292.45,292.45,0,0,0-35.55-35.36l6.22-10.78a12,12,0,0,0-4.39-16.39l-67.55-39a12,12,0,0,0-16.39,4.39l-6.36,11q-11.31-4.05-23-7.19l-66.74-85.89c85.57,7.89,194,39.07,275.79,134.39,5.28,6.15,7.46,8.69,12.3,8.69a9.76,9.76,0,0,0,9.64-8.71c1.17-8.94-11.61-64.1-42.47-120-28.92-52.39-81.66-119.72-168.72-142.94a383.34,383.34,0,0,0-130.55-12.1,5,5,0,0,0-1.16-2.43l-83-85.61a5,5,0,0,0-3.81-1.68c-61.77.8-110.83-13.8-145.81-51.29-26.14-28-34.22-60.74-34.29-61A5,5,0,0,0,1315,587H1213.82A12,12,0,0,0,1202,577H1047a12,12,0,0,0-12,12v37a12,12,0,0,0,12,12h155a12,12,0,0,0,11.62-9.07L1289,627l59.68,129c-59.12-39.12-102.57-58.1-129.27-56.43-30.76,1.92-87.78,44.85-160,99.19-25,18.86-51.07,38.44-76.78,56.83C957.35,858,907.73,860.24,834,853,722,842,503,727,397,697c-90.73-25.68-63.94,106.55-54.34,145.18-21.3-4.74-32.2-6.36-37.16-5.56-9,1.45-24.54,9.93-64.48,63.18-21.31,28.42-39.79,56.73-40,57a9.5,9.5,0,0,0,2.67,13.08l73,49a9.5,9.5,0,0,0,12.66-1.9l57.94-71.24c6.51.39,19.35,1.25,36.48,2.82l23.81,40.64a12,12,0,0,0-5.1,9.79v15a288.94,288.94,0,0,0-46.16,12.18l-8.46-14.65a12,12,0,0,0-16.39-4.39l-67.55,39a12,12,0,0,0-4.39,16.39l8.12,14.07a294.32,294.32,0,0,0-33.74,33l-15.44-8.91A12,12,0,0,0,202.1,1105l-39,67.55a12,12,0,0,0,4.39,16.39l14,8.07a287.75,287.75,0,0,0-13.17,45.48H151a12,12,0,0,0-12,12v78a12,12,0,0,0,12,12h14.81A288.93,288.93,0,0,0,177,1391.33l-13.49,7.79a12,12,0,0,0-4.39,16.39l39,67.55a12,12,0,0,0,16.39,4.39l10.89-6.28a291.83,291.83,0,0,0,33.82,35.94l-6.58,11.4A12,12,0,0,0,257,1544.9l67.55,39a12,12,0,0,0,16.39-4.39l4.95-8.56a288.87,288.87,0,0,0,48.6,14.56V1596a12,12,0,0,0,12,12h78a12,12,0,0,0,12-12v-7.67a288.91,288.91,0,0,0,50.39-12.14l4.23,7.32a12,12,0,0,0,16.39,4.39l67.55-39a12,12,0,0,0,4.39-16.39l-3.21-5.56a292.25,292.25,0,0,0,37.63-36.4l6.64,3.83A12,12,0,0,0,696.9,1490l39-67.55a12,12,0,0,0-4.39-16.39l-5.54-3.2a288.48,288.48,0,0,0,13.89-50.35H748a12,12,0,0,0,12-12v-78a12,12,0,0,0-12-12h-7.79c-.27-1.55-.57-3.09-.86-4.63l70.27,2A31.52,31.52,0,0,0,840.39,1273h313.22a31.51,31.51,0,0,0,30.81-25.41l154.09-6.14c-.07.35-.15.7-.22,1H1321a12,12,0,0,0-12,12v78a12,12,0,0,0,12,12h14.81a288.93,288.93,0,0,0,11.17,46.83l-13.49,7.79a12,12,0,0,0-4.39,16.39l39,67.55a12,12,0,0,0,16.39,4.39l10.89-6.28a291.83,291.83,0,0,0,33.82,35.94l-6.58,11.4a12,12,0,0,0,4.39,16.39l67.55,39a12,12,0,0,0,16.39-4.39l5-8.56a288.87,288.87,0,0,0,48.6,14.56V1596a12,12,0,0,0,12,12h78a12,12,0,0,0,12-12v-7.67a288.91,288.91,0,0,0,50.39-12.14l4.23,7.32a12,12,0,0,0,16.39,4.39l67.55-39a12,12,0,0,0,4.39-16.39l-3.21-5.56a292.25,292.25,0,0,0,37.63-36.4l6.64,3.83a12,12,0,0,0,16.39-4.39l39-67.55a12,12,0,0,0-4.39-16.39l-5.54-3.2a288.48,288.48,0,0,0,13.89-50.35H1918a12,12,0,0,0,12-12v-78A12,12,0,0,0,1918,1250.5ZM1292,619h-76V597l95.34-5c3.09,9,12.8,38.08,35.12,62.15a174.39,174.39,0,0,0,58.07,41.15c27.18,12,58.49,12.92,93.24,12.72l78.68,85.84a348.9,348.9,0,0,0-73.15,16.47,362.1,362.1,0,0,0-51.41,22.22c-3.07-2.55-42.89-35.42-89.52-67.39l-.42-.28C1347.24,733.36,1293.73,619,1292,619ZM343.44,926.51a9.48,9.48,0,0,0-7.81,3.5L280.1,998.28l-67-38.9c6.9-10.27,19.88-29.24,34.14-48.25,38.42-51.23,59.49-55.4,61.13-55.73,9.32-.61,71.67,15.05,132,30.2,125.38,31.48,295.17,74.13,370,74.13,3.21,0,6.26-.08,9.12-.25,62.63-3.54,162.88-79,251.33-145.59C1132.15,767.75,1165,723,1213,717c55.87-7,179.44,82.34,228,122-53.42,31.9-108.82,81.94-151.75,142.51a9.5,9.5,0,0,0,3,13.72,9.67,9.67,0,0,0,13-3.67C1434.54,774,1624,788,1714.55,812.18c79.46,21.19,130.37,85.9,157.41,134a412,412,0,0,1,26.4,56.84,7.42,7.42,0,0,1-11.17,8.71c-22.11-15.35-54.61-34.11-77.19-48.68-64-41.28-121.69-57.45-207.66-60.49-53.31-1.88-102.48,10.58-146.12,35.08-34.81,19.55-75.11,56.36-102,91.65-37.14,48.69-45.35,101.49-51.2,119.26l-64.65,1c.57-10.69,2.64-33.44-.72-54.61-7.19-45.36-26.88-85-57-114.66-17.43-17.18-47-19.64-93-7.74-38.1,9.85-82.14,27.91-128.78,47-51.34,21-104.44,24.82-147.24,33.87-59.09,12.5-75.22-4.13-82.21-17.73-24.21-47.1-97-64.8-216.25-88.11C425.9,930.49,344.26,926.55,343.44,926.51ZM453.5,1447.16A146.66,146.66,0,1,1,600.16,1300.5,146.66,146.66,0,0,1,453.5,1447.16ZM1158.61,1257H840.39A15.42,15.42,0,0,1,825,1241.61v-17.22c0-8.48,6.91-20.39,15.39-20.39h318.22c8.48,0,15.39,11.91,15.39,20.39v17.22A15.42,15.42,0,0,1,1158.61,1257Zm245.32-147.47-15.44-8.91a12,12,0,0,0-16.39,4.39l-39,67.55a12,12,0,0,0,4.39,16.39l14,8.07a289,289,0,0,0-9.57,30H1185v-2.61a31.49,31.49,0,0,0-31.39-31.39H840.39A31.49,31.49,0,0,0,809,1224.39v2.47l-75.31-5.11q-3-10.63-6.72-20.94l8.54-4.93a12,12,0,0,0,4.39-16.39l-39-67.55a12,12,0,0,0-16.39-4.39l-8.8,5.08a292.45,292.45,0,0,0-35.55-35.36l6.22-10.78A12,12,0,0,0,642,1050.1l-67.55-39a12,12,0,0,0-16.39,4.39l-6.36,11A289.13,289.13,0,0,0,504.5,1014V999a12,12,0,0,0-12-12H426.18l-28.27-37.06c30.53,3.12,70.55,8.22,111.85,16.3,111.57,21.83,181.69,55.06,202.79,96.1,11.14,21.67,31.8,32.4,62.74,32.4q17.85,0,40.31-4.76c44.48-9.4,98.38-31.51,150.51-52.88,46-18.87,89.48-44.69,126.33-54.22,38.36-9.92,62.86-9,74.89,2.89,27.41,27,44.72,69.83,51.44,111.47,5.07,31.46,1.86,55.19,1.83,55.42a9.49,9.49,0,0,0,9.4,10.84h79a9.51,9.51,0,0,0,9.15-6.94c.16-.59,17-59.4,60.53-116.29,57.7-75.37,132.74-112,223-108.78q8.43.3,17.26.89a5,5,0,0,0,.86,1.72l31.78,52.9H1584.5a12,12,0,0,0-12,12v15a288.94,288.94,0,0,0-46.16,12.18l-8.46-14.65a12,12,0,0,0-16.39-4.39l-67.55,39a12,12,0,0,0-4.39,16.39l8.12,14.07A294.32,294.32,0,0,0,1403.93,1109.53Zm219.57,337.63a146.66,146.66,0,1,1,146.66-146.66A146.66,146.66,0,0,1,1623.5,1447.16Z" transform="translate(-139 -577)"/><circle cx="1480.5" cy="720.5" r="36.5"/></svg>