<?xml version="1.0" encoding="utf-8"?>
<!-- Generator: Adobe Illustrator 23.0.1, SVG Export Plug-In . SVG Version: 6.00 Build 0)  -->
<svg version="1.1" id="Layer_3" xmlns="http://www.w3.org/2000/svg" xmlns:xlink="http://www.w3.org/1999/xlink" x="0px" y="0px"
	 viewBox="0 0 566.9 566.9" style="enable-background:new 0 0 566.9 566.9;" xml:space="preserve">
<path d="M225.2,404.3"/>
<path d="M249.6,333.5c-4.6-4.1-9.3-8-14.4-11.6c-6.6-4.6-14.5-8.5-20-14.5c-1.2-1.4-2.5-1.2-3.8,0c-6,5.7-12,13.3-20.1,16.2
	c-12.3,4.3-26.5,3.7-39.3,4.9c-12.6,1.1-24.8,3.4-34.7,11.6c-2.1,1.7-4.2,3.5-6.2,5.3c-23.4,20.8-47.1,47.7-54.3,79
	c-4.4,19.1-1.6,39,10.8,54.6c12,15.2,30.2,24.3,49.7,23c33.5-2.2,63.6-26.8,86.3-49.7c8.9-9,16.3-17.9,19.2-30.8
	c3.1-14.1,2.7-28.7,4.7-42.9c1.2-8.4,3.1-13.3,9.1-19.2c4.4-4.3,8.7-8.6,13-13C252.2,343.8,252.4,336,249.6,333.5z M226.3,354.1
	c-5.2,8.3-6,19.1-7,28.7c-1.3,12.6-0.2,27-5.3,38.9c-1.8,4.3-4.8,7.7-7.8,11c-19.3,21.2-43.4,41.4-70.9,50.6
	c-16.5,5.5-34.5,5.4-49.5-4.2c-14-9-24.8-24.6-23.4-41c1.4-16.4,10.5-31.8,20.1-44.7c8.6-11.6,18.5-22.3,29.2-32.1
	c1.6-1.5,3.3-3,4.9-4.4c0.5-0.4,0.9-0.8,1.4-1.2c0.2-0.1,0.6-0.5,0.8-0.6c6.9-5.8,14.5-8.9,23.4-10.4c13.8-2.2,27.8-2,41.6-4.3
	c7.8-1.3,14.1-3.6,20-9c3.2-3,6.4-6.1,9.6-9.1c5.9,5.6,13.4,9.5,20,14.1c1.8,1.3,3.6,2.6,5.3,4C234,344.6,229.4,349,226.3,354.1z"/>
<path d="M479.4,76.6c-5.2-5-12.5-9.7-13.5-9.3C454,71.5,442.3,78.3,433,87c-10.6,9.9-21,19.9-31.3,29.9
	c-20.3,19.7-40.2,39.8-60.1,59.9c-27.5,27.8-82,80.9-102.5,100.9c-4.2-3.8-8.3-7.7-12.4-11.6c-0.2-0.2-0.6-0.5-1-0.3
	c-13,9.6-25.1,21.4-36,33.2c-0.8,0.9-1,3.5,0,4.3c11.7,10,22.5,20.8,33.5,31.5c5.5,5.4,11.1,10.6,16.8,15.8
	c5.1,4.7,9.9,9.8,15.6,13.9c0.3,0.2,0.8,0,1-0.3c10.2-12.9,22.7-25.4,35.9-35.3c0.1-0.1,0.2-0.2,0.3-0.3c0.8-0.9,0.9-3.5,0-4.3
	c-0.1-0.1-0.1-0.1-0.2-0.2c0-0.1-0.1-0.1-0.1-0.1c-3.9-3.3-7.7-6.7-11.6-10c23.6-24.2,69-70.9,98.4-100
	c20.1-19.9,40.2-39.8,59.9-60.1c10.1-10.4,20.1-20.8,29.9-31.3c8.7-9.3,15.5-22,19.7-33.8C489.1,88.1,484.3,81.7,479.4,76.6z"/>
</svg>
