<svg id="String" xmlns="http://www.w3.org/2000/svg" viewBox="0 0 1880.43 1802.4"><title>String_Shape</title><path d="M1023.7,512.8c163.36,0,295.8-41.37,295.8-92.4S1187.06,328,1023.7,328s-295.8,41.37-295.8,92.4S860.33,512.8,1023.7,512.8Zm-237.91-103c14-7.64,33.3-14.88,56-20.94C892,375.4,956.57,368,1023.7,368s131.74,7.4,182,20.83c22.64,6.06,42,13.3,55.94,20.94,8.14,4.46,12.85,8.14,15.49,10.63-2.64,2.49-7.35,6.17-15.49,10.63-.59.33-1.2.65-1.81,1-40.76-14.76-131.14-25-236.09-25s-195.34,10.27-236.1,25c-.61-.32-1.22-.64-1.81-1-8.14-4.46-12.85-8.14-15.49-10.63C772.94,417.91,777.65,414.23,785.79,409.77Z" transform="translate(-83.78 -122.8)"/><path d="M1954.62,1070.41c5.41-7.1,8.24-14.5,8.55-22.21a67.13,67.13,0,0,0-.79-27.35c-4.62-18.73-17.85-32.29-37.48-38.65V912.76c0-436.28-353.68-790-790-790H912.46c-436.29,0-790,353.68-790,790v75.82c-12.53,5.35-22.22,12.78-28.92,22.28a52.55,52.55,0,0,0-9.37,37.06c.3,9.3,4.26,18.14,12,26.56-.9,1.1-1.78,2.22-2.59,3.38a52.55,52.55,0,0,0-9.37,37.06c.54,17,13.29,32.4,38.73,46.64,13.89,424.1,362,763.64,789.52,763.64h222.47c427.48,0,775.63-339.54,789.52-763.64,25.3-14.16,38-29.49,38.72-46.36a67.13,67.13,0,0,0-.79-27.35A52.79,52.79,0,0,0,1954.62,1070.41Zm-16.69-44.26a42.21,42.21,0,0,1,.6,17.78l-.33,1.41v1.46c0,1.35-.4,3.75-2.46,7a65.24,65.24,0,0,0-10.84-4.59v-39.9A26.67,26.67,0,0,1,1937.93,1026.15ZM182.5,1135.24V1119c46.07,14.67,107.78,27.92,183.84,39.44,96.8,14.66,211.14,25.69,335.83,32.64q21.3,22.55,42.15,44.15c-139.74-6.67-267.73-18.38-374.24-34.51-78.89-12-141.78-25.69-187.17-40.87Q182.51,1147.58,182.5,1135.24Zm563.18,58.08c88.84,4.2,182.33,6.38,278,6.38h5.23l9.16,8.33q18.77,17.06,36.75,33.46-25.46.21-51.14.21c-80.69,0-159.78-1.55-235.8-4.57Q767.17,1215.77,745.68,1193.32Zm327.63,6.18c229.58-1.82,443.81-16.23,607.74-41.06,76.06-11.52,137.77-24.77,183.85-39.44v16.24q0,12.33-.42,24.61c-45.39,15.18-108.28,28.92-187.17,40.87-151.91,23-347.52,37-558.6,40.25Q1096.73,1220.78,1073.31,1199.5ZM912.46,182.8h222.47A726.28,726.28,0,0,1,1543,307.43a732.13,732.13,0,0,1,264.54,321.22,725.43,725.43,0,0,1,57.34,284.11v180c-45.42,15.24-108.46,29-187.59,41-169.23,25.63-392.67,40.09-631.32,40.94C858.65,1004.25,631.05,794.5,550.59,591.75c-36.85-92.84-40.36-183.12-10.45-268.34a350.66,350.66,0,0,1,23.05-51.78q31.81-17.37,65.15-31.49A725.34,725.34,0,0,1,912.46,182.8ZM517.29,298.91q-2.53,6.39-5,13.16a383,383,0,0,0-22.09,126.44c-.31,54,10.62,109.26,32.47,164.31,79.46,200.23,294.15,403.5,478.72,571.84-96.94-.34-191.37-2.94-280.68-7.61C585.84,1024,441.82,854.16,385.46,693.21c-30-85.61-32.86-168.88-8.54-247.49a343.66,343.66,0,0,1,19.41-49.16,735.72,735.72,0,0,1,108-89.13Q510.78,303.1,517.29,298.91ZM239.83,628.65a729.88,729.88,0,0,1,67.3-124q16.78-24.85,35.66-48.36a397.35,397.35,0,0,0-12,95.5c-.24,49.7,8.64,100.61,26.4,151.32,55.18,157.56,189.72,321.17,320.19,461.46-113.68-6.95-218-17.35-307.26-30.87-79.13-12-142.16-25.77-187.58-41v-180A725.42,725.42,0,0,1,239.83,628.65ZM114.27,1024.9a35.13,35.13,0,0,1,8.23-7.9v38.58c-2.37,1-4.63,2.1-6.79,3.25-5.66-5.84-6.51-10-6.51-12l.07-1.08-.31-1.33A27.77,27.77,0,0,1,114.27,1024.9Zm-5.07,88.9.07-1.08-.31-1.33a27.77,27.77,0,0,1,5.31-19.49c.42-.58.87-1.14,1.34-1.7,2.18,1.38,4.47,2.75,6.89,4.11v37.42C110.66,1122.82,109.2,1116.4,109.2,1113.8Zm519.14,694.06a729.22,729.22,0,0,1-444.07-621.29c45.88,14.45,107,27.5,182.07,38.87,114,17.27,252.37,29.5,403.3,36q18.6,19.15,36.39,37.36c59.27,60.77,110.45,113.25,142.86,153.5,122.75,152.45,94,278.92,66.13,401.23-.88,3.86-1.77,7.78-2.66,11.71h-99.9A725.34,725.34,0,0,1,628.34,1807.86Zm414.78,57.34c.39-1.69.77-3.38,1.15-5,14.32-62.9,29.12-127.94,24.09-198.44-5.74-80.41-37.17-155.08-96.1-228.27-33.3-41.36-85-94.31-144.76-155.63l-14.36-14.72c68.26,2.38,138.79,3.61,210.56,3.61q39.35,0,78.14-.49c62.28,57.29,114.57,107.5,147.55,148.32,130,160.9,114.53,295.18,84.73,423.21a728.87,728.87,0,0,1-199.19,27.46Zm697.15-321.87a732.32,732.32,0,0,1-321.22,264.53q-25.62,10.85-51.84,19.64c11.76-53.39,20.33-108.62,16.7-167.12-5.75-92.64-42.12-179.22-111.18-264.7-29.92-37-74.44-80.83-127.46-130.17,202.17-4,389.11-17.86,535.78-40.07,75.08-11.37,136.19-24.42,182.07-38.87a723,723,0,0,1-55.56,232.78A730.53,730.53,0,0,1,1740.27,1543.33Zm198.26-432.4-.33,1.41v1.46c0,2.6-1.47,9-13.3,17.93v-37.42q5.91-3.35,10.9-6.77a29.34,29.34,0,0,1,2.13,5.61A42.21,42.21,0,0,1,1938.53,1110.93Z" transform="translate(-83.78 -122.8)"/></svg>