<svg id="Capa_2" data-name="Capa 2" xmlns="http://www.w3.org/2000/svg" viewBox="0 0 2034.67 806.27"><title>Taxi</title><path d="M2041.29,1083.43c-3.71-6.19-15.62-13.2-75.83-18.35-35-3-82.52-5-141.14-5.83-99.69-1.49-198.45.73-199.43.75v.64c-15.05-20.8-172.21-238-209.22-283.3l-.75-.92-1.08-.48c-16.67-7.47-114.91-7.23-248-3.8a30.42,30.42,0,0,0,4.44-16.59l-.88-35a30.67,30.67,0,0,0-31.36-29.81l-180.75,4.54a30.67,30.67,0,0,0-29.81,31.35l.87,35a30.34,30.34,0,0,0,6.4,17.89l-7.83.28c-86,3.06-154,5.47-172.68,4.9h-.15c-20.47,0-34.14,3.68-40.14,11.3a13.77,13.77,0,0,0-3.07,8.53L497,1041c-41.84,5.72-404.69,47.6-456.6,56.08a6.25,6.25,0,0,0-1.95.66c-23.19,12.32-35,53.3-23.91,63.33a73.55,73.55,0,0,0-1.44,25.75c1.89,16.74,10.08,42.43,38.41,69.8a7.31,7.31,0,0,0,.59.52l12,9.77c-9,12.88-20.66,29.43-22.88,32.22a6.5,6.5,0,0,0-1.83,5.89,8.7,8.7,0,0,0,3.26,5.29l25,20.3c-4.78,3.23-7.66,7.46-7.66,12.24,0,0,0,5.15,8,11.06,18,13.27,51.75,29.78,69.77,40.09H280.45a140,140,0,0,0,270.1,0H617l0-.37,373.72-10.07,266.44-7.21,87.8-2.4,24.61-.69,6.48-.19,1.68,0,.23,0h18.51a140,140,0,0,0,279.09-16c0-3.1-.12-6.17-.31-9.22a23.49,23.49,0,0,0,7.5,1.22h250.6c13.09,0,35.7-7,48.7-23.7l20-22.6a23.65,23.65,0,0,0-9.07-18.64c5.2-13.34,18.39-47.85,30.08-84.28,8.77-27.33,15-50.42,18.52-68.61C2046.26,1106.75,2046.18,1091.58,2041.29,1083.43ZM1118.16,713.76a6.8,6.8,0,0,1,1.43-2.2,7.25,7.25,0,0,1,2.17-1.52,7.13,7.13,0,0,1,5.42-.13,7.23,7.23,0,0,1,2.26,1.4,6.69,6.69,0,0,1,1.54,2.13,6.53,6.53,0,0,1,.61,2.66l1.1,43.91a6.69,6.69,0,0,1-4.09,6.42,7.33,7.33,0,0,1-5.42.14,6.71,6.71,0,0,1-2.24-1.39,6.51,6.51,0,0,1-1.54-2.14,6.92,6.92,0,0,1-.61-2.69l-1.1-43.9A6.66,6.66,0,0,1,1118.16,713.76Zm-60.77,4.16a7.61,7.61,0,0,1,.63-2.63,6.57,6.57,0,0,1,1.61-2.25,6.88,6.88,0,0,1,5-1.83,7.26,7.26,0,0,1,2.6.61,6.57,6.57,0,0,1,2.25,1.61l15,15.69,14.31-16.43a6.41,6.41,0,0,1,2.09-1.72,7.5,7.5,0,0,1,2.55-.76,6.79,6.79,0,0,1,2.64.25,7.06,7.06,0,0,1,2.42,1.31,6.91,6.91,0,0,1,1.72,2.17,7.72,7.72,0,0,1,.76,2.59,6.79,6.79,0,0,1-.25,2.68,6.29,6.29,0,0,1-1.36,2.44l-15.22,17.54,16,16.7a7.26,7.26,0,0,1,1.5,2.39,6.31,6.31,0,0,1,.41,2.63,7.2,7.2,0,0,1-.64,2.56,6.68,6.68,0,0,1-1.61,2.2,6.49,6.49,0,0,1-2.34,1.48,7.47,7.47,0,0,1-2.63.42,6.73,6.73,0,0,1-2.58-.59,6.65,6.65,0,0,1-2.22-1.61l-15-15.64-14.22,16.38a7.19,7.19,0,0,1-2.19,1.72,6.78,6.78,0,0,1-2.54.72,7.27,7.27,0,0,1-2.62-.3,6.44,6.44,0,0,1-2.4-1.36,6.73,6.73,0,0,1-1.74-2.14,7,7,0,0,1-.79-2.52,6.83,6.83,0,0,1,.25-2.64,6.56,6.56,0,0,1,1.36-2.44l15.23-17.49-16-16.7a6.63,6.63,0,0,1-1.86-5Zm-31.52-4.9a7,7,0,0,1,7.51-.22,6.78,6.78,0,0,1,2.6,3l19.8,43.13a8.15,8.15,0,0,1,.75,2.7,7.36,7.36,0,0,1-.23,2.62,6.08,6.08,0,0,1-3.39,3.93,7.22,7.22,0,0,1-2.73.68,7,7,0,0,1-2.66-.39,6.79,6.79,0,0,1-2.33-1.36,7.2,7.2,0,0,1-1.73-2.25l-3.91-8.81-18,.45-3.33,9a6.07,6.07,0,0,1-1.51,2.38,6.9,6.9,0,0,1-2.28,1.45,7.59,7.59,0,0,1-2.69.49,7.23,7.23,0,0,1-2.78-.53,6.54,6.54,0,0,1-2.34-1.52,6.06,6.06,0,0,1-1.36-2.19,7.29,7.29,0,0,1-.4-2.61,7.13,7.13,0,0,1,.63-2.73l17.93-44.07A7,7,0,0,1,1025.87,713Zm-61.24,4.62a7,7,0,0,1,1.4-2.22,6.91,6.91,0,0,1,4.84-2.13l31-.77a6.5,6.5,0,0,1,2.71.49,7.37,7.37,0,0,1,2.25,1.45,7.11,7.11,0,0,1,1.54,2.19,6.91,6.91,0,0,1,.6,2.71,6.5,6.5,0,0,1-.47,2.69,6.74,6.74,0,0,1-1.43,2.2,7.1,7.1,0,0,1-2.17,1.51,6.7,6.7,0,0,1-2.68.61l-8.46.21.93,36.89a6.55,6.55,0,0,1-.5,2.72,6.89,6.89,0,0,1-1.45,2.21,6.62,6.62,0,0,1-2.19,1.5,7.28,7.28,0,0,1-2.71.59,6.5,6.5,0,0,1-2.64-.46,6.31,6.31,0,0,1-2.13-1.38,6.43,6.43,0,0,1-1.45-2.15,7.26,7.26,0,0,1-.56-2.69l-.93-36.88-8.91.22a6.78,6.78,0,0,1-4.93-1.9,7.4,7.4,0,0,1-1.52-2.19,6.91,6.91,0,0,1-.6-2.71A6.65,6.65,0,0,1,964.63,717.64ZM722.37,802.05c2.41-2.74,9.72-7.34,31.69-7.35,19.18.57,87.19-1.84,173.26-4.9l19.94-.71a30.36,30.36,0,0,0,12.5,2.35l180.75-4.54a30.3,30.3,0,0,0,15.16-4.5c122.44-3.23,234-4.34,253.08,2.27,35.8,44.18,156.39,236.09,186.25,277.33l-56.78.11L1364,807.05a5,5,0,0,0-4-2H1082.34v-.17L759.51,811,722,802.47C722.13,802.33,722.25,802.19,722.37,802.05Zm-9.76,8.53L753,819.76C612.61,995.58,583.65,1037.48,583.07,1038.1,573,1049,568,1052,552,1054c-5.84,0-30.5,4.63-46.69-7.94ZM627,997l-.44,0c46.6-54.53,117.09-136.13,145.51-176.27l36.41-.69L678.11,997Zm24,55h38a12,12,0,0,0,12-12v-31a12,12,0,0,0-9.52-11.74L826,819.72l246.52-4.7,4.81,247.11L651,1073.92Zm431.36-237h265.1l179.77,247.13L1083,1063ZM415.5,1435.4a78.4,78.4,0,1,1,78.4-78.4A78.4,78.4,0,0,1,415.5,1435.4Zm200-51.74c-3.59-23.75-14.14-83.08-34.55-121q-2.38-4.43-4.78-8.69h801.05c-28.76,40.24-38.27,82.62-38.27,82.62l-7.61,27.7C1179.11,1368.5,699.9,1381.39,615.55,1383.66Zm920,51.74a78.4,78.4,0,1,1,78.4-78.4A78.4,78.4,0,0,1,1535.5,1435.4ZM1703.11,1279a184.41,184.41,0,0,0-12.11-24.24c-26-43.46-50-73.78-184-71.76-30.42.46-55.68,8.64-76.57,21H529.65c-26-14.22-65.52-22.11-132.65-21-98.25,1.65-142.74,92.58-159.49,141H93.08a58.19,58.19,0,0,0-11.37,1.09,8.87,8.87,0,0,0-2.44-3.07l-21.91-17.81.47-.66c2.31-3.2,5.49-7.68,9.45-13.3,6.81-9.67,13.56-19.35,13.56-19.35,2.11-3,1.2-7.45-2.07-10.11l-17.54-14.26c-46-44.61-31.47-82-30.83-83.63a8,8,0,0,0-2.71-8.94c-9.94-8.1-.18-31.6,15.79-41.22,58.88-9.47,448.71-58.2,453.07-58.8a6.43,6.43,0,0,0,2.22-.72C519.71,1069.11,543.33,1064,553,1064c9-1,10-1,18-7s6-4,19-16.5c5.75-7.13,14.45-17.47,25-29.92V1040c0,.24,0,.48,0,.71l-10.35,26.75a19.92,19.92,0,0,0-4.19-.46,19.55,19.55,0,1,0,13.12,5.1l8.23-21.28A11.9,11.9,0,0,0,627,1052h14v27.08l442.08-7.08h0l548.68-1.87-.19-.26c23.51-.46,107.71-1.88,192.61-.62,58.37.87,105.62,5.82,140.43,8.79,60.18,5.15,67.24,15.21,68.1,16.53,2.33,3.58,3.39,9.29,3.38,16.57-.13-.25-.24-.51-.39-.76a16,16,0,0,0-29.29,3.94l-21.76,82.17a16,16,0,0,0,16.21,20.08,16.09,16.09,0,0,0,7.3-2.16c.52-.31,1-.65,1.51-1-9.51,24-20.62,47.32-31.64,65.6Zm330.4-152.08-22.59,75a6,6,0,0,1-2.8,3.64c-1.39.81-8,1.26-9.53.85-4.5-1.54-6.5-1.45-6-12.49,0,0,12.54-74.66,27.15-83.35,8.16-4.85,13.94.18,15.26,5.3C2035.4,1117.4,2033.92,1125.38,2033.51,1126.92Zm-1.67,16.37c-1.95,8.93-4.51,18.56-7.56,28.55Z" transform="translate(-10.35 -690.74)"/><path d="M74.22,1157.2c-10.43-8.2-20.6-10.55-28.65-6.63S33.1,1164,33.13,1177.21c0,12,3.66,26,10.25,39.56s15.41,25.06,24.83,32.46c7.13,5.61,14.14,8.48,20.44,8.48a18.56,18.56,0,0,0,8.21-1.85c8-3.92,12.46-13.38,12.44-26.64,0-12-3.67-26-10.26-39.56S83.63,1164.6,74.22,1157.2Zm18.26,89.67c-8.92,4.34-33.58-8.75-46.11-34.48-5.94-12.19-9.22-24.69-9.24-35.2,0-9.08,2.46-15.51,6.82-17.63,1.13-.55,8.42-.83,9.83-.83,4,0,9,2.18,14.25,6.33,8.26,6.49,16.08,16.78,22,29s9.22,24.7,9.25,35.2C99.31,1238.32,96.83,1244.75,92.48,1246.87Z" transform="translate(-10.35 -690.74)"/><polygon points="1019.47 43.31 1016.35 51.77 1023.14 51.59 1019.47 43.31"/></svg>