<svg id="Capa_2" data-name="Capa 2" xmlns="http://www.w3.org/2000/svg" viewBox="0 0 1988 1648.07"><title>Xilofono</title><path d="M1754,1341.64l-1.63-10.69a14.46,14.46,0,0,0-16.42-12.08L426.26,1518.29a14.38,14.38,0,0,0-3.44,1,81.07,81.07,0,1,0,5.83,38.27,13.81,13.81,0,0,0,3.57-.08l1309.7-199.41A14.46,14.46,0,0,0,1754,1341.64Z" transform="translate(-30 -199.97)"/><path d="M1942.74,1360.83a14.46,14.46,0,0,0-17.89-9.76l-1271,373.65a14.39,14.39,0,0,0-3.27,1.45,81.06,81.06,0,1,0,10.92,37.14,15,15,0,0,0,3.53-.56L1936,1389.1a14.46,14.46,0,0,0,9.76-17.89Z" transform="translate(-30 -199.97)"/><circle cx="126.11" cy="313.64" r="39.64"/><circle cx="126.11" cy="780.76" r="39.64"/><circle cx="455.21" cy="513.6" r="37.65" transform="translate(-118.91 -104.61) rotate(-10.9)"/><circle cx="455.21" cy="980.73" r="37.65" transform="translate(-648.36 652.39) rotate(-58.28)"/><circle cx="727.89" cy="513.6" r="35.77" transform="translate(-102.87 -76.74) rotate(-9.22)"/><circle cx="727.89" cy="980.73" r="35.77" transform="translate(-177.7 -70.71) rotate(-9.22)"/><circle cx="990.95" cy="513.6" r="33.98" transform="translate(-85.33 -75.04) rotate(-7.02)"/><circle cx="990.95" cy="980.73" r="33.98" transform="translate(-121.82 -97.55) rotate(-5.65)"/><circle cx="1209.6" cy="313.64" r="32.28"/><circle cx="1209.6" cy="780.76" r="32.28"/><circle cx="1479.84" cy="513.6" r="30.67" transform="translate(-113.9 405.44) rotate(-22.5)"/><circle cx="1479.84" cy="980.73" r="30.67" transform="translate(-324.59 724.5) rotate(-31.72)"/><circle cx="1709.27" cy="513.6" r="29.14" transform="translate(692.39 1800.73) rotate(-73.15)"/><circle cx="1709.27" cy="980.73" r="29.14" transform="translate(119.09 1984.62) rotate(-67.5)"/><path d="M2003.59,371H1855.43A14.46,14.46,0,0,0,1841,385.39V448h-1v-.46h-37.17v-83a14.46,14.46,0,0,0-14.41-14.42H1631a14.46,14.46,0,0,0-14.41,14.42V448h-1.14v-.46h-37.07V342.62a14.46,14.46,0,0,0-14.42-14.41H1396.67a14.45,14.45,0,0,0-14.41,14.41V448H1380v-.46H1343.3v-128a14.46,14.46,0,0,0-14.41-14.42h-177.6a14.46,14.46,0,0,0-14.41,14.42v128h-36.72V448h-.05V295.23a14.46,14.46,0,0,0-14.42-14.41H897.24a14.46,14.46,0,0,0-14.42,14.41V448h-2.45v-.46H843.13V448h-.34V269.65a14.45,14.45,0,0,0-14.41-14.41H628.48a14.45,14.45,0,0,0-14.41,14.41V448h-.34v-.46H576.49V448h-.33V242.72a14.45,14.45,0,0,0-14.41-14.41H349.82a14.45,14.45,0,0,0-14.41,14.41V448h-.34v-.46H283.43V214.38A14.45,14.45,0,0,0,269,200H44.41A14.45,14.45,0,0,0,30,214.38v1105a14.46,14.46,0,0,0,14.41,14.42H269a14.46,14.46,0,0,0,14.41-14.42V1046.79H291v.21h44.41v244a14.45,14.45,0,0,0,14.41,14.41H561.75A14.45,14.45,0,0,0,576.16,1291V1047h37.91v217.1a14.45,14.45,0,0,0,14.41,14.41h199.9a14.45,14.45,0,0,0,14.41-14.41V1047h40v191.52a14.46,14.46,0,0,0,14.42,14.41h188.45a14.46,14.46,0,0,0,14.42-14.41V1047h36.77v167.21a14.46,14.46,0,0,0,14.41,14.42h177.6a14.46,14.46,0,0,0,14.41-14.42V1047h39v144.13a14.45,14.45,0,0,0,14.41,14.41h167.27a14.46,14.46,0,0,0,14.42-14.41V1047h38.21v122.19a14.46,14.46,0,0,0,14.41,14.42h157.47a14.46,14.46,0,0,0,14.41-14.42V1047H1841v101.36a14.46,14.46,0,0,0,14.41,14.41h148.16a14.46,14.46,0,0,0,14.41-14.41v-763A14.46,14.46,0,0,0,2003.59,371Zm-1737,934c0,1.3-224.6,15.72-224.6,14.41L55.22,228.79c1.2-14.41,16.72-16.81,18-16.81H269c-25.23,0,2.4,1.1,2.4,2.4Zm68.8-390h-.34v-.33H283.43V580h52Zm217.06,363.54C547,1296,527.35,1293,526.05,1293l-176.23.48a2.43,2.43,0,0,1-2.4-2.4V242.72c0-1.3,1.1-2.4,4.8-1.92H563.68a9.34,9.34,0,0,1,.47,1.92ZM614.07,915h-.34v-.33H576.49V915h-.33V580h37.91Zm216.71,349.1a2.43,2.43,0,0,1-2.4,2.4H628.48a2.43,2.43,0,0,1-2.4-2.4l-.34-983.66c0-1.3,16.71-13.21,18-13.21l184.63,0a2.43,2.43,0,0,1,2.4,2.4Zm52-349.1h-2.45v-.33H843.13V915h-.34V580h40ZM1088.1,448h-.1V580h.1V915h-.1v132h.1v191.52a2.44,2.44,0,0,1-2.41,2.4H897.24a2.43,2.43,0,0,1-2.4-2.4l9.55-934.06c0-1.3,8.3-12,9.61-12l171.69.38a2.44,2.44,0,0,1,2.41,2.4Zm48.78,466.67h-36.72V915h-.05V580h36.77Zm192,301.95h-177.6a2.44,2.44,0,0,1-2.4-2.41V319.54a2.44,2.44,0,0,1,2.4-2.41l154.26.54c1.3,0,1.2-4.8,10.81-1.2l14.93,897.74A2.44,2.44,0,0,1,1328.89,1216.62ZM1382.26,915H1380v-.33H1343.3V580h39Zm181.68,278.53H1396.67a2.43,2.43,0,0,1-2.4-2.4l14.57-832.62c0-1.3,2.3-8.41,3.61-8.41l146.69-9.88a2.43,2.43,0,0,1,2.4,2.4l4.8,848.51A2.43,2.43,0,0,1,1563.94,1193.53ZM1616.57,915h-1.14v-.33h-37.07V580h38.21Zm171.88,256.6H1637a2.44,2.44,0,0,1-2.4-2.41l-6-804.63a2.43,2.43,0,0,1,2.4-2.4h147.86a2.43,2.43,0,0,1,2.4,2.4l9.61,804.63A2.44,2.44,0,0,1,1788.45,1171.6ZM1841,915h-1v-.33h-37.17V580H1841Zm165,233.36a2.43,2.43,0,0,1-2.4,2.4l-138.55-1.2a2.43,2.43,0,0,1-2.4-2.4L1853,385.39a2.43,2.43,0,0,1,2.4-2.4h148.16a2.43,2.43,0,0,1,2.4,2.4Z" transform="translate(-30 -199.97)"/><circle cx="1929.09" cy="513.6" r="27.68" transform="translate(-74.52 13.6) rotate(-6.26)"/><circle cx="1929.09" cy="980.73" r="27.68" transform="translate(-231.43 401.14) rotate(-16.85)"/></svg>