<svg id="Capa_2" data-name="Capa 2" xmlns="http://www.w3.org/2000/svg" viewBox="0 0 1986 1449.71"><title>Yak</title><path d="M1669,839.74C1707.6,883,1676.73,928,1659,960c-6-12-19.86-21.43-33.66-35.73-4.06-4.21-10.68-11.9-11.18-12.58-1.1-1.52-6.81,2.26-5.85,3.86.42.7,13.92,29.61,10.25,42.6-10.5,37.13-91.44,55.45-93.94,46.83-9.9-34.15-63.46-60.73-64.49-59.36a3.5,3.5,0,0,0,.27,4.52c17.76,18.67,10.91,49.67,7.14,62.13-5.75,19-25,16-32.57,5.92-14.66-19.52-20.74-20.93-24.76-19.73-6.1,1.82-5.84,10.92-5.75,13.92.76,26.72-29.43,39.1-41,48.2-2.71-15.11-9.94-76.37-11.88-76.45a3.49,3.49,0,0,0-3.65,3.36c-1.54,36.37,10.7,96.12,11.79,96.56a6.75,6.75,0,0,0,3.32-.37c2-1.41,49.47-34.84,48.42-71.5-.14-4.91,32.53,23.82,36.06,40.35,1,4.46,9.46-2.65,15.17-11.86,10.24-16.55,23.73-54.46,11.6-82.05,14.74,9.68,37.55,27.51,43.58,48.31,2.83,9.75-4.29,31.28-3.25,32.41s8-.89,11.16-2.18c24-9.88,87.94-36.13,99.52-77.1a47.87,47.87,0,0,0,.19-25.5c28.5,31.44,29.53,70,30.79,68.66a27.9,27.9,0,0,0,5.14-7.57,253.36,253.36,0,0,0,25.4-52c15.38-44.54,11-82.08-12.6-108.55C1672.94,833.63,1667.71,838.3,1669,839.74Z" transform="translate(-31 -299.15)"/><path d="M2016.94,1062.34C2006,981.7,1957.77,845,1903.39,770.06c-38.18-52.62-114.87-52.9-182.54-53.15-29.11-.1-56.61-.2-78.67-4.36-27.3-5.15-97.18-71.61-171.17-142-59.84-56.9-127.67-121.4-190.2-170.69-73-57.59-127.06-84.82-165.11-83.23C981,322.28,461.18,590.91,439.12,602.34a7,7,0,0,0-3.54,4.46c-31.45-3.93-60.2-4.26-85.69-.94-40.58,5.28-73.07,19.84-96.58,43.27a5.61,5.61,0,0,0,4.37,9.57c.4,0,32.23-2.13,58.18,10-33.49-.49-96.91,4.65-115.5,48.12-20.72-11.45-43.26-25.06-65.54-38.7C99.38,656.47,88,590.24,102,486.64c10.42-77.43,31.67-149.4,33.07-154.09,1.59-4,7.71-20.87.43-29.2-2.45-2.81-7.27-5.67-16.24-3.36-16.39,4.25-47.16,67.64-65.84,135.66S18.17,607.29,45.22,715.19C65,794,122.73,838.13,169,853.35c-9.56,27.31-15.79,50.09-16.25,51.78a5.62,5.62,0,0,0,6.29,7c2.33-.37,39.5-6.43,70.46-23.63-13,26.59-41.64,80.06-71.15,101.57-19.25-1.13-33,1.22-34.4,10.88-.68,4.74,1.58,11.6,6.16,18.67A5.56,5.56,0,0,0,128,1024v68.77a5.62,5.62,0,0,0,4.36,5.47c.78.18,4.82,1.09,11.34,2.31-2.46,7.35-6,23.6,3.84,39,13.4,21,45.93,31.74,96.73,31.81-.09,8.91,1.43,28.63,15.05,43.84,11.45,12.8,28.66,19.29,51.12,19.29,68.85,0,89.24-8.4,90.08-8.76a4.23,4.23,0,0,0,2.55-4c0-1.26-.6-30.7,35.69-51.49,1.77.43,4.82,1.11,8.8,1.84a7,7,0,0,0,2.6,2.6c.2.11,20.17,11.55,40.84,37.75,19,24.13,42.61,66.13,46.82,129.22a7,7,0,0,0,14-.47c0-26.87,4.27-38,7.85-42.56,3-3.88,6.18-4.11,11.06-4.17a22.21,22.21,0,0,0,6.8-.8c59.43,81.33,187.52,180.67,193.14,185a7,7,0,0,0,6.11,1.2c-1.2,24.7-1.48,51.73,1.77,65.48a8.33,8.33,0,0,1-1.37,6.83,6.1,6.1,0,0,0-.69,1.25l-26.4,67.33a5.59,5.59,0,0,0,.76,5.45c1.08,1.43,21.76,27.24,90.49,27.24,20.56,0,45.42-2.31,75.33-8.27a6.87,6.87,0,0,0,4.53-2.55c2-2.48,5-6.23-2.39-47.8-3.58-20.14-8.23-41.39-9.76-48.25l49.49-56.81c7.63,4.59,15.87,9.09,24.32,13.4,0,.52,0,1.06.06,1.68.12,3.12.29,7.6.52,13.07.42,10,1.11,25.29,2,41.57,2.37,42,5,69.4,7.8,81.29a8.33,8.33,0,0,1-1.36,6.83,5.51,5.51,0,0,0-.69,1.26l-26.41,67.33a5.62,5.62,0,0,0,.76,5.45c1.08,1.42,21.77,27.23,90.5,27.23,20.56,0,45.41-2.31,75.33-8.27a6.83,6.83,0,0,0,4.52-2.55c2-2.48,5-6.22-2.39-47.79-3.5-19.72-8-40.49-9.65-47.81a197,197,0,0,1,6.64-18.91,6,6,0,0,0,.45-.83l23.85-54.73a5.64,5.64,0,0,0,.47-2.25v-61.38c27,26.78,64.24,27.68,65.85,27.7h.11a7,7,0,0,0,6.19-10.33c-8.39-15.69-10.13-28.56-5.14-38.23,5.48-10.65,18.09-16,26.56-18.39.28,13.71,5.15,25.33,14.54,34.61,38,37.61,140.58,23.84,174.28,19.32,3.6-.49,7.32-1,8.12-1,7.94,0,9.3-5.77,9.5-6.93,1-5.84-3.7-10.72-17.23-18-7.67-4.14-21.41-10.65-43.32-18.18a26.14,26.14,0,0,1-15.89-14.24c-7-14.91-4.21-36.6-.65-52,18.75,39.12,41.59,43.25,96.15,45.51,1.44,17.28,6,67.69,11.52,91.2a8.33,8.33,0,0,1-1.37,6.83,6.1,6.1,0,0,0-.69,1.25l-26.4,67.33a5.59,5.59,0,0,0,.76,5.45c1.08,1.43,21.76,27.24,90.5,27.24,20.55,0,45.41-2.31,75.32-8.27a6.87,6.87,0,0,0,4.53-2.55c2-2.48,5-6.23-2.39-47.8-3.58-20.17-8.24-41.45-9.76-48.29a5.58,5.58,0,0,0,.43-.71l42.8-83.83a275.21,275.21,0,0,0,46.55,65.79c18.85,19.7,38.4,34.07,52,40.76,1.53,22.73,3.41,42.68,5.61,52a8.33,8.33,0,0,1-1.37,6.83,5.93,5.93,0,0,0-.69,1.26l-26.4,67.32a5.61,5.61,0,0,0,.76,5.46c1.08,1.42,21.76,27.23,90.49,27.23,20.56,0,45.42-2.31,75.33-8.27a6.83,6.83,0,0,0,4.53-2.55c2-2.48,5-6.22-2.39-47.79-3.51-19.73-8-40.5-9.65-47.81a194.41,194.41,0,0,1,6.63-18.91,6.66,6.66,0,0,0,.45-.83l23.86-54.74a5.55,5.55,0,0,0,.47-2.24V1424.89c19.26-38.3,62.07-130.2,68.73-202.37,2.88-31.12,1.84-64-1.08-94.45,3.73,16.45,7,32.41,9.66,46a7,7,0,0,0,13.91-1.32V1063.28A7.42,7.42,0,0,0,2016.94,1062.34ZM262,744.69c-10-2.56-22.26-7.63-36-14.38,22.86-2.1,52.88-2.39,65.23,6.77a15.42,15.42,0,0,1,2.46,2.25A202.48,202.48,0,0,0,262,744.69ZM56.11,712.46C29.82,607.61,45.77,506.58,63.78,440.29c9.18-33.8,21.28-66.7,34.05-92.65,13.66-27.73,22.34-36.06,24.23-36.78,3-.78,4.65-.5,5-.12,1.67,1.91.46,10.57-2.48,17.83a4.24,4.24,0,0,0-.18.5c-.22.74-22.64,75.39-33.51,156-14.82,110-2,178.17,38.08,202.72,23.12,14.16,46.55,28.29,68.1,40.11a5.61,5.61,0,0,0,6.58,5.34c.78-.14,1.64-.28,2.53-.42a368.29,368.29,0,0,0,37.59,17.7c-18.07,7-70.6,56.08-77.75,75.53C122.53,811.83,74.81,787,56.11,712.46Zm126.4,139c.25-.9,15.86-43.32,25-59.52,22.41-39.58,93.66-41.87,94.38-41.89,1.58,0,1.48-17.89-4.05-22-19.77-14.66-66.39-10.21-86.89-7.37,22.67-50.26,129.29-40.69,130.3-42.89a5.62,5.62,0,0,0-1.31-6.46c-20.08-18.5-49.91-23-67.85-23.86C363,568,512,642,567,664c140.5,78.86,95.18,230.94,83,249,0,0-20.24,40.17-37.51,48.62l.16-.33c12-26-3.24-67.06-13.31-94.23-2.61-7-5.1-13.78-6.2-18-.19-1.07-.4-2.16-.63-3.25-.62-2.93-10.41,42.52-21.59,55.67-34.14,40.18-127.58,37.24-167,35.5,8-8.27,13.9-18.17,14.78-29.89C422.61,855,372,792.81,376.89,800.49c1.46,2.3-4.74-2.63-7.1-1.27s-11.53,61.94-23.66,76.22c-19,22.36-41.22,35.65-49.34,37.58a29.41,29.41,0,0,1,1.78-3.65,5.55,5.55,0,0,0,.69-3.45c-.08-.67-2.06-16.58-5.77-33-7.28-32.33-14.8-37.53-20.53-38.46-9.46-1.52-14.92,10.07-16.72,13.88-15,31.74-68.84,46.39-90.18,51C168.91,889.62,182.18,852.65,182.51,851.46ZM690.57,862a203,203,0,0,0,2.3-39.43c11.89,2.83,39.92,8.44,81,10.17C824.1,834.86,904,831.23,999.75,802c37.76-11.53,62.68-33.81,74.07-66.23,15.84-45.11,5.54-108.52-30.63-188.47A788.74,788.74,0,0,0,984.5,441.21c-.09-.13-.19-.27-.29-.39-3.82-4.7-7.08-11.77-5.73-14.2.23-.41,2.75-4,18.91-1.94,21.11,2.72,95.71,63.84,139.52,154.3,29.37,60.63,37,153.84-18.91,247-55.35,92.24-164.35,111.69-259.16,112.92-86.18,1.13-164-13.31-188.41-18.34A172.35,172.35,0,0,0,690.57,862ZM139.21,1030.76a67.76,67.76,0,0,0,21,14.21v46.93c-9.43-1.45-16.75-2.83-21-3.7ZM778.5,1452.3c-.18,2.4-.37,4.93-.54,7.55A22.19,22.19,0,0,1,778.5,1452.3Zm121.78,87.23a10.13,10.13,0,0,0-2.3,8.92c5.2,23.33,9.29,44.46,11.76,60.24-70.09,1.67-116.74-6.31-137.84-12.81l14.8-37.76a19.51,19.51,0,0,0,2.77-15.38c-5.53-23.42.35-92.84,1.94-110.09,11.3-10.59,27-18.37,37.66-22.32,0,.05,0,.1.08.16,8.74,16,23.43,72.68,7.94,117.86a7,7,0,0,0,8.28,9.1c30.11-7.23,66-44.15,80.13-63,5.43,6,14.23,3.16,23.42,9.26Zm220.55,78.32c-.73,1.31-2,4.21-4.61,11.73-4.09,11.73-3.85,12.81-3.52,14.3,5.21,23.33,9.3,44.46,11.77,60.24-70.09,1.68-116.74-6.31-137.85-12.81l14.81-37.76a19.58,19.58,0,0,0,2.77-15.38c-5.31-22.46-8.82-102.05-9.89-129.34,8.41,4.06,16.82,7.9,24.83,11.42,32.34,14.19,82.07,33,94.79,33a9,9,0,0,0,1.1-.06,7.62,7.62,0,0,0,6.88-5.94c1.27-5.89-4.24-9.23-7.89-11.45a23.82,23.82,0,0,1-11.65-16.93c-3.86-21.15,12.71-39.15,26.57-60.65,1.61,17.87,6.67,19.35,15.12,32.29v74Zm479.24-77.66c-1.75,2.35,4.59,11.38,5.24,14.26,5.2,23.33,9.29,38.46,11.76,54.24-70.08,1.67-116.74-6.32-137.84-12.81l14.8-37.76a19.5,19.5,0,0,0,2.77-15.38c-5.17-21.9-9.58-70-11.13-88.18l4.95.18,2.64.1c69.71,2.53,74.48,67.81,74.65,70.57a7,7,0,0,0,11.93,4.6c35.68-35.13,54.64-56.63,64.4-83.77,1.68,4.44,7.47-1.28,9.31,2.91Zm142-53.89c2.63-11.89,7.29-20,11.17-23.61.24,7.84,1.46,46.6,3.57,84.4C1740.18,1530,1737.9,1505.27,1742.1,1486.3Zm144.61,123c-4.1,11.74,5.77,58.77,8.24,74.55-70.08,1.68-116.74-6.31-137.84-12.81l14.8-37.76c3-4.5-1-60.57-.51-60.57,3.29,0-1.31-72.91-1.77-87.17,6.79,7.56,69.94,114.8,72.3,115.16a7.4,7.4,0,0,0,1,.08,7,7,0,0,0,5.27-2.37c18.85-21.37-5.58-265.74-8.74-280,3.07,3.84,38.78,158.78,40.71,156.85,11-11,24.67-30.26,27.9-29.18a7,7,0,0,0,6.44-1.07v99.3S1889.33,1601.8,1886.71,1609.32ZM2003,1107c-9.63-40.23-22.68-86.15-34.34-97.81a7,7,0,0,0-10.91,8.68c5.48,8.77,31.23,112.19,22.82,203.35-5.47,59.24-37.39,134.61-58.19,178.51,1.59-14.85,3.17-32.3,4.12-49.78,1.45-26.7,1.15-48.3-.88-64.2-1.09-8.49-4.39-34.34-21.11-37.13a7,7,0,0,0-8.1,7.94c.21,1.47,19.39,136-15.87,195.37-1.57-15.06-4.19-37.79-7.7-60.58-11.24-73.07-21.49-85.33-30.88-87.7-4.13-1-10.27-.43-16,8.4-1.05,1.6,40,215.63,18,266.91-6.24-13.35-17.13-36.1-29.08-58.65-34.52-65.12-48.4-73.9-57.43-73.9-14.38,0-24.91,18.51-29,36.85-3.3,14.91-3.22,32.8,2.9,49.22-5.07-4.47-10.37-9.56-15.79-15.27a257.19,257.19,0,0,1-62.16-111c-.59-8.7-3.24-13.27-3.71-14-1.82-2.88-16.58,62.78-70.07,118.19a103.75,103.75,0,0,0-10.29-26.33c-10.64-18.85-32.38-41.64-75.5-43.21l-2.64-.09c-74.83-2.72-88.32-3.21-107.51-55.65a7,7,0,0,0-6.56-4.61S1333.53,1432.3,1348,1463c5,10.52,31.2,21.36,42.19,25.14,19.58,6.73,33.21,12.93,41.63,17.48-83.59,10.83-136.93,5.49-158.55-15.9-8.39-8.3-10.44-36.91-12-38.44a7,7,0,0,0-5.83-2c-1.37.17-33.58,4.45-45.61,27.69-5.81,11.21-5.85,24.5-.17,39.61-12.24-2.32-31.72-8.38-46.48-24.24-15.29-16.41-22.22-75.26-25.09-76.34a7,7,0,0,0-8,2.23c-2,2.55-48.9,62.9-41.55,103.2a40.13,40.13,0,0,0,4.3,12.3c-17-5.55-42.37-15-69.73-27.06-50.23-22.18-84-43.22-90.29-56.28a7,7,0,0,0-12.08-1c-11,15.82-41.21,54.26-66.4,69.08,9.5-43.4-3.45-116.2-6.37-121.14-3.64-6.17-12.11-4.06-19.76-1.6a138,138,0,0,0-24.49,10.93c-25.16,14.22-38.87,31.18-40,48.54-38.17-30.81-136.94-113.5-180.91-178.37a7,7,0,0,0-8.57-2.52c-2.49,1.07-23.09,8.9-29.18,21-9.93-42.54-28.16-72.83-43.62-92.27a198,198,0,0,0-27-28c19.22.82,42.48-1.24,61.33-12.08,5.34-3.06,13.05-6.6,22-10.69,26.16-12,65.69-30.12,95.26-60,35.5-35.94,48.64-80.89,39.06-133.6a4.21,4.21,0,0,0-4.89-3.39c-2.29.41-2.24,15.57-2.39,17.89C677,1092,606.87,1101.55,554.26,1125.67c-9.11,4.18-17,7.78-22.65,11-21.35,12.27-74.36,25.85-74.61,25.71-2.82-1.58-17.65-.72-17.79-.76a4.27,4.27,0,0,0-3.11.39c-35.5,19.59-40.67,47.3-41.37,56.75-7.1,2-30.55,7.28-84.31,7.28-19.93,0-35-5.53-44.8-16.43-15.26-17-12.79-41.8-12.76-42.05a4.26,4.26,0,0,0-1.06-3.29,4.18,4.18,0,0,0-3.17-1.38c-49.48.51-82-9.1-93.95-27.82-8.51-13.29-4.44-28-2.59-33.07a492.82,492.82,0,0,0,79.76,7c26.73,0,55.18-2.74,80.32-11a5.61,5.61,0,0,0,3.59-7.08c-1-3-4.13-1.55-7.08-.59-44.22,14.46-100.81,7.85-137.2,3.07v-45c1,.19,2,.37,3,.51,31.07,4.46,60.07-18.45,62-31.82s-22.83-20-53.91-24.44q-6.3-.9-12.25-1.57C205,960.44,235.48,896.25,242.84,880c10-7.37,18.53-16.26,23.56-26.93,2.49-5.29,4.26-7,4.92-7.43,1.2.94,6,6.13,11.51,31,2.72,12.35,4.45,24.43,5.05,28.87-2.11,4-5.29,11.62-.12,16.45,5.44,5.08,16.21,2.37,32-8.06,26.3-17.35,59.29-52.35,61.39-88.43,13.05,19.81,30.71,52.61,26.43,79.89-2.11,13.51-9.26,23.95-21.84,31.92a5.61,5.61,0,0,0,3,10.35c2.3,0,6.17.18,11.08.4,38.51,1.73,140.84,6.35,179.63-39.29a62.17,62.17,0,0,0,13.41-26.62c8.51,23.81,18.14,55.83,9.56,74.47-3,6.53-8,11-15.36,13.71A5.61,5.61,0,0,0,589,981.18a5.81,5.81,0,0,0,1.17-.12c26.77-5.66,50.27-20.32,68-42.39q3.08-3.84,5.91-8c18.39,3.95,96.5,19.5,185.24,19.5,3.13,0,6.29,0,9.45-.06,61.91-.79,116-9.21,160.68-25,56.43-20,98.09-51.83,123.81-94.71,58.49-97.49,34.33-193.19,3.76-256.31-19.45-40.15-48-80.22-80.34-112.82-27-27.16-53.59-45.89-67.85-47.73-16.28-2.1-26.15.4-30.17,7.64-5.64,10.17,4.21,23.46,6.69,26.54,4.54,6.73,123,184.28,87.87,284.34-10.14,28.86-32.6,48.77-66.75,59.2-94,28.7-172.41,32.32-221.62,30.3-44.91-1.85-74.35-8.59-82.73-10.73-5.5-60-36.45-124.45-102.29-162.59-.2-.11-.4-.21-.61-.3-.58-.25-59.06-25.09-128.93-37.41-1.62-.29-3.22-.55-4.82-.82,73.89-37.86,539.12-274,660.82-279q1.35-.06,2.73-.06c53.27,0,136.54,62.56,221,137.46A148.9,148.9,0,0,1,1354,498c3.77,11,0,11.34,1.36,19.8-15.09-13.55-39.8-6-60.45-7.67-5.83-.47-11-.88-14.27-1.45-.8-.21-6.1.12-6.58,1.93s14.17,10.81,16,11.38c.78.25,16.38,5.86,22.23,18,16.67,34.73-11.53,81.08-23,104.38-18.23-29.41-88.47-13.11-90.31-12.58a3.51,3.51,0,1,0,1.94,6.74c.42-.12,40.94-8.79,67.36,3.14,22.78,10.29,18.29,27.8,19.82,28l.38,0c1.38,0,5-6,6.55-9.05,11.49-23.33,42-85.28,23.58-123.65a47.72,47.72,0,0,0-16.73-19.24c40.18-6.76,61.51,30.93,61.51,31a3.5,3.5,0,0,0,3.45,3.52c1.94,0,3.57-5.65,3.49-6.72A184.12,184.12,0,0,0,1360.7,496c-1.72-5-3.66-9.88-5.77-14.56,36.31,32.71,72.54,67.16,106.4,99.36,82.06,78,146.88,139.67,178.25,145.59,23.33,4.4,51.45,4.5,81.22,4.61,64.33.23,137.24.5,171.23,47.35,53,73.1,100.11,206.45,110.94,285.46Z" transform="translate(-31 -299.15)"/></svg>