<?xml version="1.0" encoding="utf-8"?>
<!-- Generator: Adobe Illustrator 24.0.0, SVG Export Plug-In . SVG Version: 6.00 Build 0)  -->
<svg version="1.1" id="Capa_2_1_" xmlns="http://www.w3.org/2000/svg" xmlns:xlink="http://www.w3.org/1999/xlink" x="0px" y="0px"
	 viewBox="0 0 1600.4 1980.2" style="enable-background:new 0 0 1600.4 1980.2;" xml:space="preserve">
<title>Yoga</title>
<path d="M1590.4,1668.9c-92.3-79.5-319.6-70.5-557.9-31c-76.3-83.9-62.5-263.1-60.8-336.7c54.1-50.3,131.2-126.7,196-208.3
	c43-54.2,75.8-104.8,97.4-150.2c26.3-55.3,37.1-105.1,32-148.4c0-0.3-0.1-0.6-0.1-0.9c-0.1-0.7-0.2-1.4-0.3-2.1
	c-0.2-1.2-0.3-2.4-0.5-3.6c-6.6-42.1-31.3-94.3-75.6-159.6c-32.9-48.6-76.8-104.4-130.4-165.9c-70.7-81.1-138.7-149.9-166.7-177.7
	c-1.9-27.7-10.2-60.6-24.8-94c-12.7-29.1-28.4-54.4-44.9-73.9C829.6,62.7,816.7,0.3,800.2,0c-14.6-0.3-37.6,85.7-53.7,116.7
	c-16.4,19.4-32.2,44.7-44.9,73.9c-14.6,33.4-22.9,66.3-24.8,94c-28.1,27.9-96.1,96.6-166.7,177.7c-53.6,61.5-97.5,117.3-130.4,165.9
	c-44.3,65.3-69,117.5-75.6,159.6c-0.2,1.2-0.4,2.4-0.5,3.6c-0.1,0.7-0.2,1.4-0.3,2.1c0,0.3-0.1,0.6-0.1,1c-5,43.2,5.7,93.1,32,148.3
	c21.7,45.5,54.4,96,97.5,150.2c64.8,81.7,141.9,158,196,208.3c1.7,73.6,15.4,252.8-60.8,336.7c-238.4-39.5-465.7-48.5-557.9,31
	c-62.3,53.7,177,182.6,427.4,226.8c12,2.1,23.9,4.1,35.7,5.8c-8.8,7.9-13.4,16.4-13,25.1c1.7,33.8,79.9,57.5,174.7,52.8
	c82.4-4.1,150.2-28.2,165.4-56.7c15.2,28.5,83,52.6,165.4,56.7c94.8,4.7,173-19,174.7-52.8c0.4-8.7-4.2-17.2-13-25.1
	c11.8-1.8,23.7-3.7,35.7-5.8C1413.4,1851.5,1652.8,1722.6,1590.4,1668.9z M393.3,800.2c5.1-29.3,32.5-97.5,151.5-239.9l6.2-7.4
	c4.2-5,8.5-10.1,13-15.3s9-10.4,13.7-15.8c40.6-46.6,80.8-89.6,112.5-122.4c2.6-2.7,5.2-5.4,7.7-8c2.7-2.7,5.2-5.4,7.7-7.9l4-4.1
	l3.4-3.5c1.1-1.1,2.2-2.3,3.3-3.4l2.2-2.2c6.1-6.2,11.6-11.7,16.3-16.4c21.3-9.9,44.9-33.6,65.4-66.1c20.5,32.5,44.1,56.3,65.4,66.1
	c26.8,26.8,80,81,136.6,144.6l0.1,0.1l3.9,4.4c0.4,0.4,0.7,0.8,1.1,1.2c1,1.1,2,2.2,3,3.3l1.7,1.9l2.3,2.7l2.3,2.6l1.8,2
	c0.8,1,1.7,1.9,2.5,2.9l1.5,1.8l4,4.6l3,3.5l3.5,4.1l3.2,3.8c1.1,1.3,2.1,2.5,3.2,3.7c1.1,1.2,2.3,2.7,3.4,4l2.9,3.4l3.5,4.2l2.5,3
	l3.8,4.5c0.7,0.8,1.4,1.7,2.1,2.5l4,4.8l1.8,2.2l4.1,5l1.5,1.8c1.4,1.8,2.9,3.5,4.3,5.3l1.2,1.4l4.4,5.5c0.3,0.4,0.6,0.8,1,1.2
	l4.5,5.6l0.7,0.8c1.6,2,3.1,3.9,4.6,5.8l0.5,0.6c1.6,2,3.1,4,4.7,5.9l0.3,0.3c84.2,107.5,106.6,163.2,111.7,189.6l0,0
	c0.2,1,0.4,2,0.5,3c5.8,36.6-20,84.9-76.6,143.6c-56.1,58.1-131.7,115.4-198.5,165.9c-9.8,7.4-19.5,14.8-29,22
	c-10.7-0.7-21.4-2.7-31.7-5.8c-5.8-11.1-12.4-27.8-18.3-52.6c-0.9-3.8-1.7-7.5-2.4-11.1c54.4-20.4,97.7-73.6,115.2-141.5
	c14.3-0.5,28.6-18.9,33-43.5c4.7-26.6-4-50.5-19.5-53.2c-2.2-0.4-4.4-0.3-6.6,0.1C961.8,719,889.3,636.7,801.6,636.7
	c-88,0-160.7,82.8-171.6,190c-3.2-1.4-6.7-1.8-10.1-1.3c-15.5,2.6-24.4,26.4-19.9,53.1c4.5,26.7,20.8,46.2,36.3,43.5l0.7-0.2
	c17.2,67,59.4,119.8,112.7,140.9c-0.8,3.9-1.7,8-2.6,12c-5.8,24.8-12.5,41.5-18.3,52.6c-10.3,3.1-20.9,5-31.7,5.8
	c-9.4-7.2-19.1-14.5-29-22c-66.7-50.5-142.4-107.7-198.5-165.9c-56.6-58.7-82.4-107-76.6-143.6C393.1,801.2,393.2,800.7,393.3,800.2
	z"/>
</svg>
