<?xml version="1.0" encoding="utf-8"?>
<!-- Generator: Adobe Illustrator 15.1.0, SVG Export Plug-In . SVG Version: 6.00 Build 0)  -->
<!DOCTYPE svg PUBLIC "-//W3C//DTD SVG 1.1//EN" "http://www.w3.org/Graphics/SVG/1.1/DTD/svg11.dtd">
<svg version="1.1" xmlns="http://www.w3.org/2000/svg" xmlns:xlink="http://www.w3.org/1999/xlink" x="0px" y="0px" width="1024px"
	 height="1024px" viewBox="0 0 1024 1024" enable-background="new 0 0 1024 1024" xml:space="preserve">
<g id="Layer_4">
	<g id="boy">
		<path fill="#010101" d="M760.407,327.15c5.361,0.905,0.53,7.652-2.746,8.12c-18.974,2.713-37.835,6.261-54.365,16.65
			c-38.528,24.212-58.638,68.758-70.863,111.236c-12.485,43.397-18.87,91.409-13.415,136.529
			c3.174,26.242,12.047,52.406,29.17,72.763c15.807,18.79,37.114,32.021,60.777,38.028c27.649,7.023,57.447,6.515,85.14-0.161
			c28.467-6.862,62.989-19.474,79.864-45.466c17.098-26.33,12.272-63.102,10.855-92.85c-1.765-36.968-8.772-73.778-19.04-109.258
			c-4.003-13.842-8.009-27.943-14.498-40.841c-5.848-11.622-12.838-22.63-20.651-33c-8.478-11.255-17.793-22.121-28.603-31.16
			c-7.423-6.206-18.377-12.77-26.641-14.656c-13.462-3.072-2.026-20.345,7.156-21.169c23.848-2.138,43.988,17.632,58.48,34.542
			c15.386,17.953,29.741,38.822,38.457,61.02c13.078,33.306,20.827,70.047,25.942,105.411c2.558,17.702,3.793,35.36,4.496,53.224
			c0.674,17.004,1.34,34.103-0.706,51.047c-2.047,16.946-7.152,33.625-16.885,47.732c-9.811,14.218-23.698,25.657-38.419,34.369
			c-28.806,17.047-62.337,26.566-95.571,28.698c-53.188,3.413-109.671-13.902-138.89-62.062
			c-26.516-43.705-27.018-96.449-21.119-145.913c5.849-49.06,19.655-99.12,47.599-140.222
			C670.709,353.323,714.024,319.338,760.407,327.15L760.407,327.15z"/>
		<path fill="#010101" d="M656.743,566.297c-6.524-0.115-4.078-6.983-0.53-9.532c-1.888,1.357,2.501-1.588,1.41-1.025
			c0.621-0.32,1.241-0.634,1.863-0.953c1.426-0.727,2.848-1.457,4.275-2.181c2.243-1.137,4.454-2.345,6.71-3.452
			c4.039-1.979,10.482-2.048,10.802,3.989c0.283,5.396-4.914,10.274-9.984,10.735c-3.122,0.286-3.779,0.485-6.607,1.086
			C662.07,565.518,659.417,566.344,656.743,566.297L656.743,566.297z"/>
		<path fill="#010101" d="M676.588,560.32c9.923,8.841,19.269,16.103,32.657,18.918c15.69,3.3,31.916,2.815,47.726,0.577
			c16.408-2.326,32.646-6.432,48.144-12.382c6.146-2.357,12.182-4.965,17.944-8.181c5.919-3.302,7.942-4.648,11.864-8.335
			c-1.298,3.768-2.597,7.534-3.894,11.302c-0.674-2.29-0.602-5.504-1.854-7.563c-5.151-8.493,5.862-20.535,14.798-16.065
			c3.764,1.885,8.778,4.298,10.002,8.762c1.243,4.525-0.913,8.538-4.081,11.589c-2.565,1.856-2.565,1.856,0,0
			c-1.163,1.039-2.477,1.805-3.95,2.298c-1.111,0.265-1.593,0.583-3.08,0.703c-4.641,0.382-8.198-3.729-11.957-5.896
			c5.309-4.715,10.622-9.433,15.933-14.149c1.722,3.273,1.657,6.317,2.453,9.792c0.99,4.322-0.508,8.41-3.894,11.304
			c-11.587,9.914-26.43,16.227-40.684,21.031c-17.391,5.863-35.621,9.879-53.899,11.439c-16.855,1.439-35.015,1.519-51.203-4.112
			c-12.767-4.438-27.228-12.742-28.321-27.956C671.112,560.863,674.573,558.523,676.588,560.32z"/>
		<path fill="#010101" d="M613.836,491.524c0.047,1.865-3.815,4.516-4.395,1.966c-3.609-15.921-28.239-11.292-37.536-4.822
			c-8.8,6.122-11.348,17.347-8.813,27.491c2.584,10.348,8.247,21.117,17.23,27.209c6.775,4.6,14.822,6.688,20.121,0.834
			c1.381,3.502,2.758,7.002,4.137,10.502c-3.625,0.414-10.713-0.061-9.527-5.658c1.167-5.503,7.818-8.525,12.656-9.112
			c6.027-0.733,7.609,6.616,4.135,10.502c-10.721,12.006-26.724,16.564-40.638,6.833c-12.627-8.829-21.623-23.745-23.048-39.307
			c-1.606-17.543,7.313-34.59,23.342-42.168c8.557-4.048,19.507-6.68,28.805-3.504c3.958,1.351,8.249,3.017,10.55,6.789
			C613.565,483.52,613.709,486.508,613.836,491.524L613.836,491.524z"/>
		<path fill="#010101" d="M890.913,487.08c-0.654,1.739-4.341,2.324-3.717-0.173c2.396-9.514,6.428-16.494,14.676-22.227
			c8.128-5.645,18.762-8.723,28.622-7.15c18.501,2.95,37.014,21.173,38.708,40.396c1.612,18.296-9.02,35.172-23.065,45.811
			c-7.831,5.936-17.071,10.604-26.705,12.599c-7.07,1.463-22.652,5.255-26.632-2.879c-1.552-3.171,1.611-6.81,3.99-8.34
			c6.456-4.146,15.988-1.297,23.388-3.13c6.605-1.638,12.825-4.174,18.432-8.116c9.071-6.377,17.061-17.163,16.744-28.824
			c-0.406-14.988-12.342-28.688-25.847-34.055C915.723,465.512,896.419,472.402,890.913,487.08L890.913,487.08z"/>
		<path fill="#010101" d="M914.427,501.792c-1.44,0.087-2.382-1.005-2.109-2.438c1.019-5.37,8.682-9.557,13.792-8.516
			c4.631,0.946,7.76,4.807,8.901,9.32c1.402,5.549,1.25,11.195-0.819,16.565c-2.158,5.598-8.082,12.773-14.569,12.738
			c-8.577-0.05-5.931-9.729-0.718-12.941c1.198-0.742,2.494-1.057,3.753-1.6c-0.42,0.18-1.964,1.5-0.834,0.331
			c-1.604,1.655,0.799-1.65,0.046-0.151c0.323-0.645,0.646-1.292,0.893-1.976c0.595-1.646,0.972-5.195,0.599-7.752
			c-0.276-1.886-1.163-4.486-2.347-5.098C919.289,499.387,916.614,501.656,914.427,501.792L914.427,501.792z"/>
		<path fill="#010101" d="M588.937,504.009c-3.406,2.511-7.618,4.167-8.241,8.958c-0.561,4.32,2.195,6.941,5.772,8.651
			c7.731,3.694-3.416,17.695-9.626,12.855c-7.133-5.563-10.313-14.401-6.282-23.047c2.911-6.244,10.383-14.407,18.043-12.768
			C591.25,499.227,590.698,502.71,588.937,504.009z"/>
		<path fill="#010101" d="M714.789,467.787c1.65-3.476,9.698-8.381,11.65-2.399c4.433,13.576-3.64,30.036,5.171,42.759
			c-6.116,2.772-12.23,5.548-18.344,8.321c3.92-11.997,9.345-31.371-1.964-40.886c2.294,0.828,4.59,1.655,6.885,2.481
			c0.477-0.136,0.952-0.272,1.426-0.41c3.336-5.422,6.672-10.842,10.005-16.262c1.927,8.843,2.791,20.209,0.281,28.971
			c-1.476,5.152-5.132,9.396-10.286,11.062c-4.006,1.295-9.508,0.522-11.087-4.093c-2.891-8.451-1.99-20.269-0.292-28.969
			c1.251-6.396,9.007-13.277,15.788-11.516c-4.153-1.078,3.429,0.879,3.625,0.986c1.038,0.786,2.036,1.618,2.999,2.494
			c1.893,1.979,3.49,4.246,4.701,6.725c2.402,4.904,3.604,10.642,3.709,16.112c0.227,11.769-2.148,23.447-6.87,34.199
			c-3.019,6.879-14.278,12.162-18.66,3.846c-4.463-8.468-4.892-18.116-4.16-27.496C710.029,485.237,711.115,475.529,714.789,467.787
			L714.789,467.787z"/>
		<path fill="#010101" d="M768.255,464.572c2.226-1.695,6.796-2.693,7.116,1.408c0.607,7.779-1.893,15.805-1.666,23.715
			c0.209,7.349,0.489,17.136,4.655,23.521c-6.168,2.048-12.339,4.095-18.507,6.142c3.051-7.516,5.379-15.342,6.313-23.445
			c0.709-6.196,1.28-15.229-3.92-19.665c6.815-2.262,13.629-4.521,20.441-6.784c-1.107,2.587-1.904,5.265-3.296,7.704
			c-4.241,7.442-18.521,14.435-20.806,1.707c-0.829-4.627,1.05-9.255,2.987-13.394c2.735-5.833,14.966-14.696,20.442-6.785
			c12.599,18.208,7.146,45.908-3.046,64.269c-3.242,5.845-15.852,14.19-19.743,4.069c-4.108-10.69-4.087-22.615-2.619-33.844
			C757.859,483.59,760.094,470.786,768.255,464.572L768.255,464.572z"/>
		<path fill="#010101" d="M664.235,714.677c1.391-2.64,7.651-4.385,6.563,0.309c-9.32,40.172-6.98,84.105,4.639,123.465
			c-2.818-1.594-5.637-3.184-8.459-4.778c36.118-2.601,71.465,8.982,107.504,8.5c18.203-0.246,36.315-1.985,54.39-4.11
			c9.034-1.065,18.063-2.194,27.102-3.211c9.165-1.03,18.532-2.604,27.753-1.917c-5.237,6.942-10.475,13.888-15.709,20.83
			c-2.011-2.863-2.977-5.356-3.041-8.861c-0.114-6.335,5.339-10.951,11.093-11.927c4.149-0.705,6.315-0.538,10.286,0.882
			c5.02,1.801,4.598,9.095,2.839,12.881c-1.844,3.963-5.949,8.211-10.336,9.175c-9.183,2.022-18.715,2.319-28.056,3.359
			c-9.035,1.006-18.057,2.115-27.091,3.147c-18.046,2.066-36.183,3.948-54.364,4.008c-36.067,0.117-71.004-10.359-107.024-10.754
			c-4.583-0.051-8.702-2.149-8.982-7.33C650.97,804.437,642.862,755.248,664.235,714.677L664.235,714.677z"/>
		<path fill="#010101" d="M861.1,699.427c0.451-4.694,7.716-7.865,10.321-3.367c4.156,7.18,6.147,20.12,8.16,29.419
			c3.491,16.134,6.847,32.303,9.786,48.55c2.725,15.078,5.378,30.262,6.695,45.547c0.999,11.578,3.084,28.086-9.139,34.582
			c-5.66,3.008-14.197,2.592-14.83-5.474c-0.093-1.217,0.07-2.749,0.404-4.005c0.338-1.275,0.814-2.51,1.261-3.75
			c-0.715,2.217-0.896,2.732-0.542,1.551c0.305-1.121,1.075-6.434,0.881-3.502c0.365-5.488,0.279-10.999,0.043-16.49
			c-0.669-15.509-2.29-30.979-4.125-46.386c-1.875-15.745-3.955-31.466-6.239-47.155C862.386,719.389,860.169,709.078,861.1,699.427
			L861.1,699.427z"/>
		<path fill="#010101" d="M671.27,847.999c1.9-3.669,10.209-5.976,8.925,0.421c-3.892,19.361-1.838,37.435-0.456,56.888
			c-2.193-1.788-4.39-3.579-6.582-5.369c30.471-5.236,60.783,3.375,91.295,0.731c-3.598,3.871-7.196,7.741-10.793,11.605
			c-1.402-11.975,2.123-23.896,10.228-32.824c2.968-3.269,8.38-7.209,12.97-4.356c12.301,7.636,27.489,16.754,31.51,31.83
			c-3.161-1.168-6.325-2.336-9.489-3.502c13.789-2.875,27.445-2.121,41.39-0.913c11.845,1.024,24.54,2.801,36.154-0.616
			c-2.985,3.211-5.967,6.42-8.954,9.631c0.703-8.288,0.773-21.598-0.513-31.614c-0.629-4.892-1.472-9.913-3.633-14.393
			c-1.411-2.933-4.214-5.653-5.602-6.524c-6.471-4.061-0.683-13.888,5.156-15.165c29.899-6.538,24.994,48.738,23.449,66.149
			c-0.383,4.31-5.099,8.514-8.954,9.635c-25.646,7.438-51.877-4.025-77.563,1.223c-3.276,0.673-8.36,0.802-9.488-3.501
			c-3.215-12.278-15.734-19.59-25.634-25.988c3.702-0.779,7.404-1.559,11.108-2.338c-4.369,4.683-4.869,11.415-4.236,17.466
			c0.601,5.737-5.527,11.203-10.794,11.605c-30.457,2.314-60.635-6.743-91.021-2.021c-3.05,0.474-6.779-1.958-6.58-5.369
			C664.348,890.431,661.658,866.575,671.27,847.999L671.27,847.999z"/>
		<path fill="#010101" d="M724.057,734.691c0.328-1.037,3.115-3.305,3.587-1.17c2.485,11.286,9.734,15.411,20.211,18.131
			c8.559,2.22,20.573,3.688,29.081,0.671c2.832-1.003-0.156,0.73,0.546-0.165c0.617-0.743,1.19-1.522,1.716-2.337
			c1.105-1.805,2.069-3.983,2.627-6.032c1.102-4.026,0.395-8.514,1.281-11.742c2.596-9.45,16.51-11.42,16.301,0.396
			c-0.176,9.976-5.485,22.105-12.965,28.659c-7.965,6.976-19.014,6.989-29.004,6.131c-9.707-0.84-19.34-3.161-27.373-9
			C721.912,752.302,721.162,743.804,724.057,734.691L724.057,734.691z"/>
		<path fill="#010101" d="M665.39,719.075c-6.918,5.906-14.945,10.197-21.461,16.712c-6.492,6.493-11.488,13.908-15.535,22.154
			c-0.155-2.478-0.309-4.954-0.462-7.433c5.928,5.369,15.061,7.224,21.827,11.396c7.199,4.441,13.137,13.538,4.017,20.197
			c-2.289,1.673-7.082,4.048-9.34,0.766c-7.142-10.363-13.774-20.003-22.653-28.483c-1.872-1.782-1.569-5.361-0.466-7.432
			c5.651-10.598,6.04-12.019,15.177-19.74c7.446-6.291,17.4-14.129,27.587-14.309C667.852,712.837,667.717,717.094,665.39,719.075z"
			/>
		<path fill="#010101" d="M870.19,690.41c4.146-3.917,9.574,5.693,11.958,8c5.847,5.664,12.463,10.463,19.108,15.114
			c13.415,9.395,27.921,18.47,38.596,31.167c5.16,6.135-3.232,13.821-8.937,14.692c-8.612,1.312-16.548,3.873-24.248,8.045
			c-3.87,2.099-7.675,4.319-11.405,6.667c-3.79,2.386-7.116,5.094-11.775,5.033c-4.734-0.063-7.646-4.163-5.262-8.708
			c4.791-9.139,17.873-15.042,26.911-19.299c9.228-4.345,19.031-7.957,29.302-8.384c-3.307,4.345-6.618,8.687-9.925,13.031
			c-7.729-14.043-23.916-23.652-35.781-33.766C883.211,717.299,860.771,699.293,870.19,690.41L870.19,690.41z"/>
		<path fill="#010101" d="M700.698,908.253c1.157-1.817,5.716-2.178,4.722,0.903c-7.534,23.327-8.229,48.448,2.263,70.926
			c2.427,5.199-4.707,10.648-9.256,9.981c-3.551-0.518-7.472-0.76-10.922,0.482c-1.336,0.478-2.331,2.017-1.749,0.376
			c0.46-0.549,0.722-0.151,0.788,1.192c3.479,4.488,7.492,7.298,13.16,7.917c4.975,0.547,21.357-0.057,21.517-7.858
			c0.256-12.46-5.491-24.075-6.413-36.394c-1.114-14.939-1.084-30.843,4.566-44.875c4.332,0.816,8.666,1.636,12.999,2.451
			c-0.931,1.98-2.104,3.589-3.313,5.39c-2.064,3.07-8.496,5.469-10.326,0.847c-1.221-3.083-0.745-5.748,0.641-8.688
			c3.534-7.514,17.085-7.565,12.999,2.451c-8.029,19.697-2.394,41.752,1.472,61.605c1.415,7.263,2.569,15.111-0.882,21.986
			c-3.349,6.674-10.268,11.32-17.069,13.765c-13.976,5.019-33.066,4.604-41.528-9.805c-4.234-7.206-0.808-14.881,5.578-19.356
			c7.032-4.932,16.19-5.502,24.398-4.186c-3.086,3.326-6.174,6.655-9.258,9.981C689.321,961.661,685.829,931.636,700.698,908.253
			L700.698,908.253z"/>
		<path fill="#010101" d="M826.6,916.479c0.38-1.757,4.541-4.691,5.277-1.717c2.883,11.629,2.672,24.385,3.739,36.309
			c1.133,12.697,3.431,24.881,5.835,37.348c0.804,4.176-4.425,8.562-8.121,8.731c-1.432,0.065-8.271,0.156-7.028,2.744
			c1.883,3.936,6.311,5.869,10.422,6.086c8.354,0.436,17.446-2.784,24.418-7.289c-1.523,3.184-3.045,6.366-4.566,9.549
			c-4.262-19.397-9.896-37.979-10.069-58.014c-0.052-5.929-0.101-11.86-0.15-17.787c-0.032-3.663-0.7-8.217,0.347-11.782
			c1.148-3.898,4.359-7.245,8.548-7.59c3.528-0.289,6.667,2.721,5.577,6.431c-0.172,0.576-0.34,1.157-0.51,1.733
			c-1.27,4.311-10.382,11.451-12.936,4.217c-0.164-0.469-0.327-0.937-0.495-1.404c-2.568-7.287,10.891-16.048,13.753-7.933
			c1.232,3.494,0.564,7.889,0.532,11.519c-0.047,5.639-0.095,11.274-0.143,16.911c-0.165,19.376,4.959,37.168,8.972,55.951
			c0.873,4.078-1.172,7.375-4.57,9.548c-12.49,7.988-33.366,14.536-46.438,4.764c-6.233-4.657-8.663-12.394-4.535-19.358
			c4.553-7.679,13.091-11.125,21.646-11.396c-2.708,2.912-5.414,5.82-8.121,8.733c-1.645-12.583-2.261-25.63-2.829-38.325
			C824.6,942.064,823.974,928.664,826.6,916.479L826.6,916.479z"/>
		<path fill="#010101" d="M647.713,727.104c-3.137,2.528-9.295-1.335-12.266-2.846c-5.419-2.76-10.534-5.993-15.597-9.341
			c-5.438-3.594-10.856-7.209-16.373-10.684c-4.22-2.662-10.317-7.917-15.305-8.832c-6.371-1.169-11.661-13.492-2.553-13.662
			c6.631-0.129,11.509,5.455,11.688,11.797c0.19,6.702-9.802,2.087-12.281,0.763c1.732-3.438,3.465-6.867,5.196-10.302
			c4.212,3.798,10.026,6.6,14.668,9.923c5.365,3.841,10.646,7.782,16.067,11.543c5.1,3.532,10.243,7.029,15.531,10.279
			c3.651,2.247,9.17,4.152,11.383,7.95C648.515,724.791,648.835,726.198,647.713,727.104z"/>
		<path fill="#010101" d="M570.468,675.615c-0.467-1.844,1.092,2.228-0.478-1.155c-0.283-0.546-0.489-1.127-0.611-1.73
			c-0.23-0.941-0.436-1.892-0.701-2.827c-0.602-2.122-1.235-4.24-1.972-6.318c-0.422-1.193-0.853-2.386-1.386-3.532
			c-0.188-0.42-0.383-0.833-0.593-1.239c0.368,0.666,0.356,0.676-0.032,0.025c-0.49-0.684-0.391-0.593,0.295,0.262
			c-0.565-0.521-1.064-1.095-1.505-1.727c-1.094-1.975,2.836,2.937,4.589,2.087c-3.557,1.725-7.973-2.259-7.479-5.993
			c0.501-3.805,3.105-6.61,7.251-5.236c3.976,1.314,6.273,5.724,7.425,9.465c1.967,6.405,4.024,14.45,0.434,20.492
			C574.101,680.885,570.88,677.259,570.468,675.615z"/>
		<path fill="#010101" d="M563.087,684.573c-2.439-3.437-5.277-6.854-8.537-9.566c-3.183-2.65-5.397-1.239-9.108-1.766
			c-3.291-0.466-6.051-4.13-5.037-7.406c2.461-7.941,12.13-4.302,16.718-0.563c5.453,4.442,8.828,10.589,11.074,17.105
			C569.564,686.351,565.354,687.763,563.087,684.573z"/>
		<path fill="#010101" d="M557.83,696.45c-4.197-0.075-8.847-1.693-13.066-2.32c-3.686-0.545-8.037,0.266-11.503-0.915
			c-3.272-1.111-6.149-5.955-3.871-9.091c2.898-3.987,10.538-2.418,14.567-1.06c5.03,1.692,11.074,3.795,14.928,7.539
			C560.601,692.269,561.256,696.51,557.83,696.45z"/>
		<path fill="#010101" d="M562.158,700.533c2.223-1.437,5.331,1.722,4.939,3.956c-1.669,9.496-13.616,14.846-22.352,10.975
			c-3.466-1.535-7.155-8.218-1.884-9.998c3.616-1.221,7.409-0.425,11.104-1.278C557.146,703.455,559.445,702.284,562.158,700.533
			L562.158,700.533z"/>
		<path fill="#010101" d="M628.028,733.061c2.213,1.774,0.92,5.779-2.073,4.112c-7.956-4.433-15.484-9.554-23.294-14.229
			c-6.836-4.093-16.188-10.28-24.53-9.966c-6.635,0.249-10.66-12.688-2.428-12.996c1.482-0.054,3.023,0.447,4.409,0.897
			c3.828,1.244,8.999,11.658,2.293,12.169c-2.048,0.156-3.784,0.181-5.776-0.396c-6.555-1.897-7.935-14.812,0.584-12.346
			C597.084,706.068,612.328,720.465,628.028,733.061L628.028,733.061z"/>
		<path fill="#010101" d="M904.006,776.681c-0.728-1.338,1.688-3.036,2.739-1.981c7.307,7.324,14.263,14.729,20.762,22.809
			c3.501,4.354,6.979,8.731,10.237,13.275c2.372,3.309,5.142,9.602,8.883,11.451c1.363,0.674,2.211,2.254,2.254,3.75
			c0.301,10.485,0.463,20.975,0.605,31.466c-4.859,1.577-9.719,3.153-14.574,4.728c0.413-5.73,1.741-11.015,6.073-14.972
			c1.465-1.336,3.827-2.184,5.696-1.197c5.224,2.759,3.134,8.365,2.655,13.22c-0.645,6.561-14.541,11.738-14.425,2.949
			c0.108-8.062,0.161-16.124,0.391-24.181c0.119-4.375,0.879-9.025-1.272-13.037c-2.069-3.852-4.279-7.624-6.624-11.314
			C919.553,801.291,911.021,789.567,904.006,776.681L904.006,776.681z"/>
		<path fill="#010101" d="M961.533,840.189c2.065,5.935,5.431,11.433,9.486,16.192c3.674,4.308,8.343,6.997,12.193,10.931
			c4.171,4.263-3.307,11.419-7.811,10.359c-6.309-1.481-11.772-8.771-14.965-14.082c-3.978-6.617-6.684-13.622-4.997-21.418
			C955.912,840.001,960.385,836.893,961.533,840.189z"/>
		<path fill="#010101" d="M975.781,836.111c5.412,3.207,10.334,7.892,14.74,12.369c2.432,2.472,4.915,4.899,7.329,7.39
			c2.612,2.689,3.646,3.89,3.061,7.726c-0.369,2.431-2.889,4.358-5.191,4.607c-6.479,0.702-10.46-7.333-13.882-12.013
			c-3.621-4.951-7.416-9.67-11.237-14.457C968.402,838.98,972.934,834.427,975.781,836.111z"/>
		<path fill="#010101" d="M979.279,824.491c4.148,0.421,8.988,2.558,12.265,5.154c3.563,2.821,8.02,6.061,8.245,11.015
			c0.194,4.193-4.702,7.84-8.526,6.204c-3.609-1.538-6.043-6.252-8.809-9.017c-2.525-2.524-5.451-4.475-8.073-6.857
			C971.388,828.268,976.734,824.236,979.279,824.491z"/>
		<path fill="#010101" d="M909.663,760.823c-1.075-2.557,2.886-5.316,4.895-3.532c12.365,10.979,24.851,21.882,36.93,33.189
			c5.985,5.605,12.237,11.306,17.105,17.969c4.056,5.543,7.136,10.25,2.644,16.683c-2.146,3.077-8.402,5.454-10.325,0.848
			c0.616,1.476-1.038-1.448-1.324-2.037c-0.423-0.862-0.149-2.293-0.499-3.02c-1.258-2.619-2.91-4.993-4.666-7.298
			c-5.119-6.721-10.789-13-16.535-19.177c-6.015-6.464-12.193-12.774-18.02-19.419C916.015,770.635,911.963,766.292,909.663,760.823
			L909.663,760.823z"/>
		<path fill="#010101" d="M739.635,339.01c-3.406,4.056-8.076,6.678-11.495,10.749c-2.928,3.485-5.691,7.279-7.612,11.443
			c-4.184,9.064-3.985,18.398-5.669,28.036c-1.189,6.822-12.462,13.272-16.448,5.363c-6.337-12.564,0.361-29.591,7.237-40.556
			c5.821-9.282,18.972-23.135,30.911-22.845C740.876,331.305,742.427,335.687,739.635,339.01z"/>
		<path fill="#010101" d="M756.914,344.389c6.829-1.767,5.893,5.957,1.804,8.806c-6.628,4.616-10.653,14.684-12.372,22.285
			c-1.999,8.844-1.21,19.116-5.584,27.184c-2.327,4.293-8.852,8.847-13.196,4.378c-8.378-8.608-1.987-27.731,2.035-37.135
			C734.921,357.464,743.768,347.787,756.914,344.389L756.914,344.389z"/>
		<path fill="#010101" d="M779.369,363.744c-1.146,10.127,0.729,20.211-0.577,30.211c-1.1,8.471-17.985,15.597-18.912,3.866
			c-0.901-11.379,4.438-24.058,8.24-34.608C770.114,357.678,780.232,356.118,779.369,363.744z"/>
	</g>
</g>
<g id="Layer_5">
	<g>
		<path d="M645.379,395.034l-6.545,20.525l-6.663,20.708l-13.454,41.37l-0.586,1.8l-2.01,0.417l-53.784,11.166l3.647-3.51
			l-10.093,49.025l-0.872,4.235l-4.52,0.076c-62.771,1.062-125.542,1.869-188.313,2.408c-62.771,0.529-125.542,0.9-188.313,1.021
			c-62.771,0.177-125.542-0.104-188.313-0.928c-31.385-0.375-62.771-0.913-94.156-1.453l-94.157-1.619l-5.036-0.087l0.08-4.869
			c0.756-46.255,1.358-92.509,1.67-138.764c0.309-46.255,0.327-92.509,0.188-138.764c-0.152-46.255-0.466-92.509-1.062-138.764
			l-0.404-34.691l-0.496-34.691l-1.032-69.382l-0.089-5.998l6.18-0.093c79.008-1.189,158.016-2.307,237.023-2.806l237.024-1.438
			c79.008-0.403,158.016-0.533,237.023-0.276c79.008,0.235,158.016,0.789,237.023,1.542l9.163,0.087l-0.095,8.981l-0.913,86.309
			l-1.158,86.309l-0.64,43.154l-0.702,43.154c-0.541,28.77-0.974,57.539-1.619,86.309l-0.069,3.086l-2.804,0.778l-50.165,13.924
			l1.277-0.789l-26.147,26.388L645.379,395.034z M643.635,393.969l24.896-27.856l24.853-27.612l0.476-0.529l0.803-0.26
			l49.518-16.075l-2.873,3.865c-0.646-28.77-1.078-57.539-1.619-86.309l-0.702-43.154l-0.64-43.154l-1.158-86.309l-0.913-86.309
			l9.068,9.068c-79.008,0.753-158.016,1.307-237.023,1.542C429.311-8.866,350.303-8.997,271.295-9.4L34.271-10.837
			c-79.008-0.499-158.016-1.616-237.023-2.806l6.091-6.091l-1.032,69.382l-0.496,34.691l-0.404,34.691
			c-0.596,46.255-0.91,92.509-1.062,138.764c-0.139,46.254-0.121,92.509,0.188,138.764c0.312,46.254,0.914,92.509,1.67,138.764
			l-4.956-4.956l94.157-1.619c31.385-0.54,62.771-1.078,94.156-1.453c62.771-0.823,125.542-1.104,188.313-0.928
			c62.771,0.121,125.542,0.492,188.313,1.021c62.771,0.539,125.542,1.347,188.313,2.408l-5.392,4.312l11.907-48.617l0.743-3.037
			l2.904-0.473l54.216-8.834l-2.596,2.217l15.546-40.63l7.837-20.292L643.635,393.969z"/>
	</g>
	<g>
		<path d="M569.023,685.793c-8.892-7.429-17.295-15.286-25.589-23.239c-8.275-7.969-16.348-16.115-24.281-24.386
			c-7.934-8.268-15.737-16.65-23.387-25.168c-7.708-8.467-15.158-17.159-22.262-26.155c-14.22-17.981-27.119-37.121-41.814-54.687
			c-7.312-8.814-14.925-17.363-22.732-25.743c-7.792-8.394-15.917-16.494-24.065-24.574l-12.247-12.1
			c-4.075-4.04-8.137-8.091-12.132-12.2c-8.022-8.191-15.784-16.61-23.588-24.993c-15.609-16.764-31.235-33.512-46.106-50.923
			c-14.856-17.424-29.322-35.189-43.396-53.3c-7.038-9.054-13.976-18.195-20.769-27.464c-6.77-9.289-13.478-18.632-19.835-28.283
			l1.354-1.187c8.735,7.567,17.119,15.441,25.44,23.369c8.299,7.949,16.453,16.024,24.506,24.188
			c16.111,16.324,31.828,32.993,47.156,50.004c15.313,17.023,29.87,34.709,44.444,52.381c7.288,8.834,14.617,17.633,21.687,26.659
			c3.55,4.499,7.034,9.057,10.505,13.626l10.391,13.726c6.943,9.138,13.91,18.254,21.21,27.077
			c7.285,8.838,14.763,17.506,22.543,25.909c15.489,16.869,32.774,32.164,48.737,48.617c7.987,8.222,15.629,16.746,23.013,25.497
			c7.441,8.699,14.73,17.534,21.888,26.483c7.159,8.947,14.179,18.018,20.995,27.266c6.798,9.265,13.486,18.625,19.687,28.413
			L569.023,685.793z"/>
	</g>
	<g>
		<path d="M21.116,63.713c1.906-1.789,3.813-2.93,5.718-3.924c1.906-0.967,3.813-1.673,5.719-2.197
			c1.906-0.518,3.813-0.837,5.718-1.002c1.906-0.189,3.813-0.096,5.719,0.509c3.812,1.177,7.625,4.072,11.437,4.618
			c1.906,0.319,3.812,0.226,5.718-0.127c1.906-0.349,3.813-1.081,5.718-1.904c1.906-0.83,3.813-1.717,5.719-2.315
			c0.953-0.309,1.906-0.559,2.859-0.75l2.859-0.514c3.813-0.691,7.625-1.414,11.437-1.112c3.813,0.289,7.625,1.156,11.437,2.507
			c1.906,0.675,3.813,1.484,5.719,2.485c1.906,1.011,3.812,2.154,5.718,3.727v1.8c-1.906,1.573-3.813,2.716-5.718,3.727
			c-1.906,1.001-3.813,1.81-5.719,2.485c-3.812,1.351-7.625,2.218-11.437,2.507c-3.812,0.302-7.625-0.421-11.437-1.112l-2.859-0.514
			c-0.953-0.191-1.906-0.442-2.859-0.75c-1.906-0.599-3.813-1.485-5.719-2.315c-1.906-0.823-3.812-1.556-5.718-1.904
			c-1.906-0.353-3.813-0.446-5.718-0.127c-3.813,0.546-7.625,3.441-11.437,4.618c-1.906,0.605-3.813,0.698-5.719,0.509
			c-1.906-0.166-3.812-0.484-5.718-1.002c-1.906-0.524-3.813-1.23-5.719-2.197c-1.906-0.994-3.812-2.135-5.718-3.924V63.713z"/>
	</g>
	<g>
		<path d="M160.5,64.167c4.014-1.987,8.028-3.255,12.042-4.36c4.014-1.074,8.028-1.859,12.042-2.441
			c4.014-0.576,8.028-0.93,12.042-1.114c4.014-0.21,8.028-0.107,12.042,0.566c8.027,1.308,16.055,4.525,24.083,5.131
			c4.014,0.354,8.028,0.251,12.042-0.141c4.014-0.39,8.028-1.2,12.042-2.116c4.014-0.922,8.028-1.907,12.042-2.572
			c4.014-0.704,8.028-1.023,12.042-1.405c4.014-0.378,8.028-0.767,12.042-1.037c4.014-0.251,8.028-0.355,12.042-0.199
			c4.014,0.148,8.028,0.478,12.042,0.967c4.014,0.452,8.028,1.066,12.042,1.818c4.014,0.75,8.028,1.648,12.042,2.761
			c4.014,1.131,8.028,2.379,12.042,4.141v2c-4.014,1.762-8.028,3.01-12.042,4.141c-4.014,1.112-8.028,2.011-12.042,2.761
			c-4.014,0.752-8.028,1.366-12.042,1.818c-4.014,0.489-8.028,0.819-12.042,0.967c-4.014,0.157-8.027,0.052-12.042-0.199
			c-4.014-0.27-8.028-0.659-12.042-1.037c-4.014-0.381-8.028-0.701-12.042-1.405c-4.014-0.665-8.028-1.65-12.042-2.572
			c-4.014-0.917-8.028-1.727-12.042-2.116c-4.014-0.392-8.028-0.495-12.042-0.141c-8.028,0.606-16.056,3.824-24.083,5.131
			c-4.014,0.673-8.028,0.776-12.042,0.566c-4.014-0.184-8.028-0.538-12.042-1.114c-4.014-0.582-8.028-1.367-12.042-2.441
			c-4.014-1.104-8.028-2.373-12.042-4.36V64.167z"/>
	</g>
	<g>
		<path d="M367.599,63.713c1.906-1.789,3.813-2.93,5.718-3.924c1.906-0.967,3.813-1.673,5.719-2.197
			c1.906-0.518,3.813-0.837,5.718-1.002c1.906-0.189,3.813-0.096,5.719,0.509c3.812,1.177,7.625,4.072,11.437,4.618
			c1.906,0.319,3.812,0.226,5.718-0.127c1.906-0.349,3.813-1.081,5.718-1.904c1.906-0.83,3.813-1.717,5.719-2.315
			c0.953-0.309,1.906-0.559,2.859-0.75l2.859-0.514c3.813-0.691,7.625-1.414,11.437-1.112c3.813,0.289,7.625,1.156,11.437,2.507
			c1.906,0.675,3.813,1.484,5.719,2.485c1.906,1.011,3.812,2.154,5.718,3.727v1.8c-1.906,1.573-3.813,2.716-5.718,3.727
			c-1.906,1.001-3.813,1.81-5.719,2.485c-3.812,1.351-7.625,2.218-11.437,2.507c-3.812,0.302-7.625-0.421-11.437-1.112l-2.859-0.514
			c-0.953-0.191-1.906-0.442-2.859-0.75c-1.906-0.599-3.813-1.485-5.719-2.315c-1.906-0.823-3.812-1.556-5.718-1.904
			c-1.906-0.353-3.813-0.446-5.718-0.127c-3.813,0.546-7.625,3.441-11.437,4.618c-1.906,0.605-3.813,0.698-5.719,0.509
			c-1.906-0.166-3.812-0.484-5.718-1.002c-1.906-0.524-3.813-1.23-5.719-2.197c-1.906-0.994-3.812-2.135-5.718-3.924V63.713z"/>
	</g>
	<g>
		<path d="M506.983,64.167c4.014-1.987,8.028-3.255,12.042-4.36c4.015-1.074,8.028-1.859,12.042-2.441
			c4.014-0.576,8.027-0.93,12.041-1.114c4.015-0.21,8.028-0.107,12.043,0.566c8.027,1.308,16.055,4.525,24.082,5.131
			c4.015,0.354,8.028,0.251,12.043-0.141c4.014-0.39,8.027-1.2,12.041-2.116c4.014-0.922,8.027-1.907,12.041-2.572
			c4.015-0.704,8.028-1.023,12.043-1.405c4.014-0.378,8.027-0.767,12.041-1.037c4.014-0.251,8.027-0.355,12.041-0.199
			c4.015,0.148,8.028,0.478,12.043,0.967c4.014,0.452,8.027,1.066,12.041,1.818c4.014,0.75,8.027,1.648,12.042,2.761
			c4.014,1.131,8.028,2.379,12.042,4.141v2c-4.014,1.762-8.028,3.01-12.042,4.141c-4.015,1.112-8.028,2.011-12.042,2.761
			c-4.014,0.752-8.027,1.366-12.041,1.818c-4.015,0.489-8.028,0.819-12.043,0.967c-4.014,0.157-8.027,0.052-12.041-0.199
			c-4.014-0.27-8.027-0.659-12.041-1.037c-4.015-0.381-8.028-0.701-12.043-1.405c-4.014-0.665-8.027-1.65-12.041-2.572
			c-4.014-0.917-8.027-1.727-12.041-2.116c-4.015-0.392-8.028-0.495-12.043-0.141c-8.027,0.606-16.055,3.824-24.082,5.131
			c-4.015,0.673-8.028,0.776-12.043,0.566c-4.014-0.184-8.027-0.538-12.041-1.114c-4.014-0.582-8.027-1.367-12.042-2.441
			c-4.014-1.104-8.028-2.373-12.042-4.36V64.167z"/>
	</g>
	<g>
		<path d="M25.616,120.71c1.906-1.789,3.813-2.93,5.718-3.924c1.906-0.967,3.813-1.673,5.719-2.197
			c1.906-0.518,3.813-0.837,5.718-1.002c1.906-0.189,3.813-0.096,5.719,0.509c3.812,1.177,7.625,4.072,11.437,4.618
			c1.906,0.319,3.812,0.226,5.718-0.127c1.906-0.349,3.813-1.081,5.718-1.904c1.906-0.83,3.813-1.717,5.719-2.315
			c0.953-0.309,1.906-0.559,2.859-0.75l2.859-0.514c3.813-0.691,7.625-1.414,11.437-1.112c3.813,0.289,7.625,1.156,11.437,2.507
			c1.906,0.675,3.813,1.484,5.719,2.485c1.906,1.011,3.812,2.154,5.718,3.727v1.8c-1.906,1.573-3.813,2.716-5.718,3.727
			c-1.906,1.001-3.813,1.81-5.719,2.485c-3.812,1.351-7.625,2.218-11.437,2.507c-3.812,0.302-7.625-0.421-11.437-1.112l-2.859-0.514
			c-0.953-0.191-1.906-0.442-2.859-0.75c-1.906-0.599-3.813-1.485-5.719-2.315c-1.906-0.823-3.812-1.556-5.718-1.904
			c-1.906-0.353-3.813-0.446-5.718-0.127c-3.813,0.546-7.625,3.441-11.437,4.618c-1.906,0.605-3.813,0.698-5.719,0.509
			c-1.906-0.166-3.812-0.484-5.718-1.002c-1.906-0.524-3.813-1.23-5.719-2.197c-1.906-0.994-3.812-2.135-5.718-3.924V120.71z"/>
	</g>
	<g>
		<path d="M90.004,121.164c4.014-1.987,8.028-3.255,12.042-4.36c4.015-1.074,8.028-1.859,12.042-2.441
			c4.014-0.576,8.027-0.93,12.041-1.114c4.015-0.21,8.028-0.107,12.043,0.566c8.027,1.308,16.055,4.525,24.082,5.131
			c4.015,0.354,8.028,0.251,12.043-0.141c4.014-0.39,8.027-1.2,12.041-2.116c4.014-0.922,8.027-1.907,12.041-2.572
			c4.015-0.704,8.028-1.023,12.043-1.405c4.014-0.378,8.027-0.767,12.041-1.037c4.014-0.251,8.027-0.355,12.041-0.199
			c4.015,0.148,8.028,0.478,12.043,0.967c4.014,0.452,8.027,1.066,12.041,1.818c4.014,0.75,8.027,1.648,12.042,2.761
			c4.014,1.131,8.028,2.379,12.042,4.141v2c-4.014,1.762-8.028,3.01-12.042,4.141c-4.015,1.112-8.028,2.011-12.042,2.761
			c-4.014,0.752-8.027,1.366-12.041,1.818c-4.015,0.489-8.028,0.819-12.043,0.967c-4.014,0.157-8.027,0.052-12.041-0.199
			c-4.014-0.27-8.027-0.659-12.041-1.037c-4.015-0.381-8.028-0.701-12.043-1.405c-4.014-0.665-8.027-1.65-12.041-2.572
			c-4.014-0.917-8.027-1.727-12.041-2.116c-4.015-0.392-8.028-0.495-12.043-0.141c-8.027,0.606-16.055,3.824-24.082,5.131
			c-4.015,0.673-8.028,0.776-12.043,0.566c-4.014-0.184-8.027-0.538-12.041-1.114c-4.014-0.582-8.027-1.367-12.042-2.441
			c-4.014-1.104-8.028-2.373-12.042-4.36V121.164z"/>
	</g>
	<g>
		<path d="M292.603,120.71c1.906-1.789,3.813-2.93,5.718-3.924c1.906-0.967,3.813-1.673,5.719-2.197
			c1.906-0.518,3.813-0.837,5.718-1.002c1.906-0.189,3.813-0.096,5.719,0.509c3.812,1.177,7.625,4.072,11.437,4.618
			c1.906,0.319,3.812,0.226,5.718-0.127c1.906-0.349,3.813-1.081,5.718-1.904c1.906-0.83,3.813-1.717,5.719-2.315
			c0.953-0.309,1.906-0.559,2.859-0.75l2.859-0.514c3.813-0.691,7.625-1.414,11.437-1.112c3.813,0.289,7.625,1.156,11.437,2.507
			c1.906,0.675,3.813,1.484,5.719,2.485c1.906,1.011,3.812,2.154,5.718,3.727v1.8c-1.906,1.573-3.813,2.716-5.718,3.727
			c-1.906,1.001-3.813,1.81-5.719,2.485c-3.812,1.351-7.625,2.218-11.437,2.507c-3.812,0.302-7.625-0.421-11.437-1.112l-2.859-0.514
			c-0.953-0.191-1.906-0.442-2.859-0.75c-1.906-0.599-3.813-1.485-5.719-2.315c-1.906-0.823-3.812-1.556-5.718-1.904
			c-1.906-0.353-3.813-0.446-5.718-0.127c-3.813,0.546-7.625,3.441-11.437,4.618c-1.906,0.605-3.813,0.698-5.719,0.509
			c-1.906-0.166-3.812-0.484-5.718-1.002c-1.906-0.524-3.813-1.23-5.719-2.197c-1.906-0.994-3.812-2.135-5.718-3.924V120.71z"/>
	</g>
	<g>
		<path d="M367.599,120.71c1.906-1.789,3.813-2.93,5.718-3.924c1.906-0.967,3.813-1.673,5.719-2.197
			c1.906-0.518,3.813-0.837,5.718-1.002c1.906-0.189,3.813-0.096,5.719,0.509c3.812,1.177,7.625,4.072,11.437,4.618
			c1.906,0.319,3.812,0.226,5.718-0.127c1.906-0.349,3.813-1.081,5.718-1.904c1.906-0.83,3.813-1.717,5.719-2.315
			c0.953-0.309,1.906-0.559,2.859-0.75l2.859-0.514c3.813-0.691,7.625-1.414,11.437-1.112c3.813,0.289,7.625,1.156,11.437,2.507
			c1.906,0.675,3.813,1.484,5.719,2.485c1.906,1.011,3.812,2.154,5.718,3.727v1.8c-1.906,1.573-3.813,2.716-5.718,3.727
			c-1.906,1.001-3.813,1.81-5.719,2.485c-3.812,1.351-7.625,2.218-11.437,2.507c-3.812,0.302-7.625-0.421-11.437-1.112l-2.859-0.514
			c-0.953-0.191-1.906-0.442-2.859-0.75c-1.906-0.599-3.813-1.485-5.719-2.315c-1.906-0.823-3.812-1.556-5.718-1.904
			c-1.906-0.353-3.813-0.446-5.718-0.127c-3.813,0.546-7.625,3.441-11.437,4.618c-1.906,0.605-3.813,0.698-5.719,0.509
			c-1.906-0.166-3.812-0.484-5.718-1.002c-1.906-0.524-3.813-1.23-5.719-2.197c-1.906-0.994-3.812-2.135-5.718-3.924V120.71z"/>
	</g>
	<g>
		<path d="M514.59,120.71c1.906-1.789,3.813-2.93,5.719-3.924c1.906-0.967,3.813-1.673,5.719-2.197
			c1.906-0.518,3.813-0.837,5.719-1.002c1.906-0.189,3.813-0.096,5.719,0.509c3.812,1.177,7.624,4.072,11.437,4.618
			c1.905,0.319,3.812,0.226,5.718-0.127c1.906-0.349,3.813-1.081,5.719-1.904c1.906-0.83,3.813-1.717,5.719-2.315
			c0.953-0.309,1.906-0.559,2.859-0.75l2.859-0.514c3.813-0.691,7.625-1.414,11.437-1.112c3.813,0.289,7.625,1.156,11.437,2.507
			c1.906,0.675,3.813,1.484,5.719,2.485c1.906,1.011,3.813,2.154,5.719,3.727v1.8c-1.906,1.573-3.813,2.716-5.719,3.727
			c-1.906,1.001-3.813,1.81-5.719,2.485c-3.812,1.351-7.624,2.218-11.437,2.507c-3.812,0.302-7.624-0.421-11.437-1.112l-2.859-0.514
			c-0.953-0.191-1.906-0.442-2.859-0.75c-1.906-0.599-3.813-1.485-5.719-2.315c-1.906-0.823-3.813-1.556-5.719-1.904
			c-1.906-0.353-3.813-0.446-5.718-0.127c-3.813,0.546-7.625,3.441-11.437,4.618c-1.906,0.605-3.813,0.698-5.719,0.509
			c-1.906-0.166-3.813-0.484-5.719-1.002c-1.906-0.524-3.813-1.23-5.719-2.197c-1.906-0.994-3.813-2.135-5.719-3.924V120.71z"/>
	</g>
	<g>
		<path d="M561.089,120.71c1.906-1.789,3.813-2.93,5.718-3.924c1.906-0.967,3.813-1.673,5.719-2.197
			c1.906-0.518,3.813-0.837,5.719-1.002c1.906-0.189,3.813-0.096,5.719,0.509c3.813,1.177,7.625,4.072,11.438,4.618
			c1.905,0.319,3.812,0.226,5.718-0.127c1.906-0.349,3.813-1.081,5.718-1.904c1.906-0.83,3.813-1.717,5.719-2.315
			c0.953-0.309,1.906-0.559,2.859-0.75l2.859-0.514c3.813-0.691,7.625-1.414,11.438-1.112c3.813,0.289,7.625,1.156,11.437,2.507
			c1.906,0.675,3.813,1.484,5.719,2.485c1.905,1.011,3.812,2.154,5.718,3.727v1.8c-1.906,1.573-3.813,2.716-5.718,3.727
			c-1.906,1.001-3.813,1.81-5.719,2.485c-3.812,1.351-7.624,2.218-11.437,2.507c-3.813,0.302-7.625-0.421-11.438-1.112l-2.859-0.514
			c-0.953-0.191-1.906-0.442-2.859-0.75c-1.906-0.599-3.813-1.485-5.719-2.315c-1.905-0.823-3.812-1.556-5.718-1.904
			c-1.906-0.353-3.813-0.446-5.718-0.127c-3.813,0.546-7.625,3.441-11.438,4.618c-1.906,0.605-3.813,0.698-5.719,0.509
			c-1.906-0.166-3.813-0.484-5.719-1.002c-1.906-0.524-3.813-1.23-5.719-2.197c-1.905-0.994-3.812-2.135-5.718-3.924V120.71z"/>
	</g>
</g>
<g id="Layer_3" display="none">
	<g id="finger" display="inline">
		<path fill="#010101" d="M583.014,434.872c-1.859,0.138-3.467,0.843-5.377,0.687c-2.266-0.184-4.502-1.059-6.529-2.043
			c-3.455-1.677-7.199-4.234-9.732-6.736c-2.352-2.321-4.283-5.208-5.965-8.033c-0.855-1.436-1.65-2.918-2.17-4.51
			c-0.131-0.404-0.137-0.056,0.033-0.581c-0.418,1.293,0.729-1.299-0.033,0.065c0.264-0.47,0.496-0.956,0.387-1.516
			c-0.199-1.014-0.898-1.893-1.947-2.155c-2.244-0.562-6.188,0.326-5.779,3.438c0.221,1.682,1.389,3.408,2.241,4.822
			c2.352,3.906,5.31,7.79,8.661,10.894c3.627,3.358,8.295,5.946,12.85,7.783c3.668,1.479,11.975,3.606,14.777-0.547
			C585.076,435.485,583.823,434.811,583.014,434.872L583.014,434.872z"/>
		<path fill="#010101" d="M582.588,437.943c2.619,0.142,5.113-3.972,6.615-5.7c2.783-3.206,5.389-6.589,7.949-9.973
			c2.43-3.208,4.781-6.508,6.766-10.012c1.301-2.297,3.76-6.137,1.875-8.579c-1.121-1.451-3.879-0.98-4.838,0.375
			c-0.74,1.043-0.576,2.021-0.887,3.162c-0.398,1.468-1.057,2.862-1.744,4.212c-1.842,3.62-4.135,7.009-6.445,10.342
			c-2.35,3.389-4.865,6.657-7.229,10.035C584.233,432.403,580.084,437.807,582.588,437.943z"/>
		<path fill="#010101" d="M548.45,412.57c2.507-1.088,4.362-4.223,6.024-6.27c2.701-3.326,5.346-6.698,8.1-9.982
			c2.635-3.145,5.273-6.294,8.197-9.18c0.963-0.949,2.293-2.058,3.215-2.646c0.373-0.193,0.375-0.223,0.006-0.092
			c0.254-0.099,0.518-0.169,0.783-0.236c0.814-0.205,1.604-0.746,2.26-1.244c1.691-1.282,0.689-3.453-1.025-4.031
			c-3.607-1.215-6.512,1.483-8.787,3.912c-2.787,2.975-5.311,6.177-7.738,9.448c-2.664,3.587-5.158,7.307-7.713,10.971
			c-1.123,1.611-2.252,3.218-3.41,4.803c-0.77,1.055-1.867,2.168-2.143,3.489C545.955,412.783,547.648,412.918,548.45,412.57z"/>
		<path fill="#010101" d="M604.567,405.997c2.938-1.544,3.23-5.615,2.934-8.557c-0.363-3.583-2.861-7.325-5.041-10.048
			c-4.711-5.889-12.205-11.18-19.969-11.494c-3.818-0.155-8.354,0.837-10.707,4.144c-1.51,2.124,0.148,4.394,2.547,4.315
			c-1.373,0.045,1.404-0.146,1.443-0.163c0.699-0.28,1.295-0.511,1.906-0.966c0.865-0.644,1.012-0.787,1.666-1.148
			c-0.104,0.056,1.258-0.406,0.729-0.314c0.357-0.063,0.721-0.086,1.082-0.109c1.182-0.079-0.75-0.075,0.459,0
			c1.771,0.109,2.836,0.495,4.609,1.224c3.342,1.374,6.434,3.745,9.004,6.261c2.43,2.379,4.561,5.086,5.871,8.24
			c0.588,1.417,1.166,2.698,1.279,4.239c0.1,1.338-0.188,2.648,0.217,3.943C602.826,406.308,604.033,406.277,604.567,405.997
			L604.567,405.997z"/>
		<path fill="#010101" d="M588.117,431.543c7.109,0.666,14.426-2.747,20.074-6.753c7.068-5.015,12.68-11.827,18.299-18.337
			c6.547-7.583,12.676-15.404,18.785-23.334c2.166-2.81,4.486-5.496,6.629-8.324c1.941-2.56,3.242-5.443,5.037-8.056
			c0.77-1.122,0.281-2.475-0.805-3.16c-1.58-0.995-3.592-0.669-5.027,0.39c-0.539,0.398-0.77,0.9-1.051,1.47
			c-1.709,3.457,3.432,4.143,5.5,2.612c0.512-0.378,1.09-0.721,1.383-1.313c-2.242-0.273-4.484-0.546-6.727-0.82
			c0.334,2.214-2.627,5.321-3.842,6.965c-1.992,2.699-4.166,5.259-6.24,7.894c-5.486,6.974-10.746,14.055-16.504,20.821
			c-5.342,6.278-10.627,12.74-16.818,18.213c-2.689,2.375-5.631,4.472-8.813,6.132c-3.227,1.684-6.582,2.289-10.074,3.125
			C586.336,429.451,586.512,431.393,588.117,431.543L588.117,431.543z"/>
		<path fill="#010101" d="M554.838,402.841c-2.926-2.619-1.975-7.101-1.094-10.492c1.729-6.668,4.938-12.953,8.201-18.979
			c7.365-13.596,15.982-26.845,25.711-38.873c1.68-2.079,3.566-4.031,5.572-5.798c0.363-0.32,0.738-0.628,1.121-0.925
			c0.154-0.121,0.699-0.502-0.072,0.022c1.932-1.313-0.396,0.211,0.512-0.324c0.896-0.527-0.393,0.073,0.053-0.059
			c0.482-0.142-1.1,0.131-0.508,0.115c0.607-0.045,1.18-0.208,1.721-0.488c-0.467,0.237-0.961,0.375-1.484,0.414
			c-0.977-0.331-1.955-0.661-2.932-0.99c0.162,0.155,0.324,0.31,0.486,0.466c1.24,1.189,3.898,1.234,4.873-0.379
			c2.262-3.75-2.848-4.956-5.527-3.418c-1.623,0.932-2.875,2.375-4.1,3.757c-3.887,4.381-7.381,9.204-10.773,13.97
			c-9.17,12.881-17.551,26.65-23.537,41.322c-1.977,4.846-8.342,19.604-0.188,22.371
			C553.733,404.843,556.045,403.923,554.838,402.841L554.838,402.841z"/>
		<path fill="#010101" d="M654.403,366.354c3.863-1.182,7.197-4.68,10.096-7.359c3.594-3.321,6.775-7.032,9.838-10.843
			c6.232-7.757,11.803-16.036,17.734-24.018c2.813-3.784-5.449-6.175-7.535-2.602c-0.676,1.157-1.117,2.454-0.348,3.689
			c0.674,1.081,1.869,1.61,3.146,1.472c1.57-0.168,3.033-0.698,4.127-1.872c-2.309-1.097-4.617-2.193-6.926-3.29
			c-4.646,7.896-9.168,15.833-14.379,23.388c-2.633,3.817-5.563,7.359-8.477,10.956c-1.463,1.806-3.092,3.461-4.766,5.067
			c-1.377,1.321-3.078,2.468-4.08,4.111C652.229,366.046,653.633,366.59,654.403,366.354L654.403,366.354z"/>
		<path fill="#010101" d="M594.459,323.21c7.916-6.456,12.885-15.999,18.623-24.36c6.061-8.83,12.543-17.368,20.473-24.611
			c-2.459-1.168-4.92-2.337-7.379-3.505c-0.797,1.114-0.977,1.891-1.105,3.231c-0.277,2.891,4.584,2.945,6.172,2.085
			c1.279-0.694,2.07-1.401,2.963-2.543c2.982-3.812-4.908-6.106-7.379-3.505c-7.25,7.632-13.416,16.089-18.939,25.031
			c-2.748,4.449-5.318,8.999-7.934,13.524c-1.313,2.271-2.727,4.503-3.914,6.842c-1.273,2.504-2.035,4.726-2.729,7.415
			C593.147,323.45,594.127,323.481,594.459,323.21z"/>
		<path fill="#010101" d="M690.283,323.334c3.402-1.628,6.164-4.583,9.098-6.906c3.346-2.649,6.52-5.514,9.658-8.404
			c6.092-5.608,11.566-11.91,16.797-18.317c10.68-13.083,19.979-27.222,30.109-40.72c3.086-4.11-5.766-6.538-8.176-2.824
			c-1.033,1.595-1.822,3.123-1.01,4.986c0.684,1.565,2.719,1.668,4.131,1.378c2.242-0.46,3.623-1.865,5.055-3.54
			c-2.725-0.941-5.449-1.882-8.176-2.824c-10.057,13.527-19.346,27.617-29.846,40.812c-5.139,6.458-10.67,12.649-16.518,18.473
			c-2.688,2.676-5.49,5.244-7.879,8.2c-2.064,2.557-4.906,5.636-5.031,9.083C688.465,323.584,689.787,323.571,690.283,323.334
			L690.283,323.334z"/>
		<path fill="#010101" d="M628.844,274.779c5.732-1.096,7.393-10.435,9.867-14.717c4.342-7.511,9.221-14.752,13.768-22.143
			c9.627-15.65,20.535-30.498,31.535-45.199c1.371-1.831-0.201-3.909-2.004-4.533c-2.152-0.745-4.783-0.146-6.172,1.708
			c-0.875,1.169-1.359,2.153-1.303,3.64c0.115,2.942,4.283,2.903,6.145,2.076c1.475-0.656,2.377-1.613,3.334-2.891
			c-2.725-0.941-5.451-1.883-8.176-2.825c-10.57,14.125-20.641,28.575-29.6,43.782c-4.215,7.153-8.406,14.411-12.139,21.825
			c-1.547,3.07-2.877,6.093-3.842,9.39c-0.877,3.001-1.781,5.64-3.205,8.407C626.432,274.51,627.916,274.955,628.844,274.779
			L628.844,274.779z"/>
		<path fill="#010101" d="M640.666,361.941c-0.563-2.179-2.896-3.449-4.664-4.636c-2.539-1.704-5.346-2.99-7.912-4.653
			c-2.295-1.486-4.59-2.979-6.775-4.623c-2.742-2.063-4.848-4.631-7.234-7.057c-2.139-2.176-8.059-0.182-5.604,2.972
			c3.629,4.663,9.383,8.388,14.623,10.993c2.779,1.381,5.551,2.761,8.289,4.227c2.521,1.35,5.301,3.285,8.213,3.495
			C639.949,362.684,640.805,362.483,640.666,361.941L640.666,361.941z"/>
		<path fill="#010101" d="M640.467,351.728c-0.855-3.452-5.529-6.097-8.23-8.094c-3.668-2.71-7.316-5.849-11.283-8.094
			c-1.371-0.775-3.086-0.827-4.488-0.082c-1.33,0.706-2.371,2.582-1.029,3.843c3.314,3.118,7.617,5.344,11.498,7.677
			c3.533,2.125,7.604,5.394,11.771,5.935C639.295,352.991,640.682,352.6,640.467,351.728z"/>
		<path fill="#010101" d="M684.221,303.726c-2.385-2.707-6.297-4.03-9.367-5.82c-3.563-2.077-6.99-4.435-10.219-7
			c-3.191-2.537-6.029-5.561-8.447-8.838c-2.143-2.906-4.484-7.896-8.76-4.684c-0.521,0.392-1.016,1.257-0.891,1.936
			c0.645,3.469,3.719,6.611,6.068,9.11c2.633,2.798,5.678,5.229,8.799,7.454c3.203,2.282,6.645,4.172,10.17,5.904
			c3.439,1.689,7.109,3.673,11.016,3.782C683.481,305.595,685.209,304.848,684.221,303.726z"/>
		<path fill="#010101" d="M684.289,296.799c-0.92-5.521-6.533-10.28-10.674-13.538c-4.35-3.421-10.586-8.143-16.352-7.842
			c-1.266,0.066-2.371,1.181-1.549,2.365c1.369,1.968,3.832,2.832,5.914,3.986c2.512,1.392,4.963,2.891,7.322,4.528
			c2.412,1.675,4.707,3.506,6.816,5.55c1.91,1.849,3.455,3.963,5.291,5.867C681.85,298.532,684.553,298.387,684.289,296.799
			L684.289,296.799z"/>
		<path fill="#010101" d="M686.051,287.618c-2.186-4.295-4.688-7.62-8.438-10.708c-3.121-2.571-8.666-7.262-13.002-5.812
			c-0.879,0.294-1.453,0.811-1.535,1.752c-0.16,1.816,1.865,2.768,3.205,3.581c1.857,1.127,3.742,2.198,5.576,3.361
			c3.932,2.493,8.004,5.521,10.99,9.109C683.744,289.979,686.879,289.248,686.051,287.618z"/>
		<path fill="#010101" d="M605.985,413.979c5.148-4.741,6.914-13.017,6.174-19.731c-0.754-6.855-4.574-13.364-9.621-17.946
			c-5.004-4.542-11.455-7.069-18.221-6.93c-8.863,0.182-17.381,6.055-21.656,13.66c-0.406,0.726,0.811,1.015,1.244,0.591
			c5.889-5.741,11.977-11.381,20.604-11.794c6.137-0.294,12.127,2.644,16.559,6.713c4.582,4.207,7.539,9.817,8.711,15.891
			c0.615,3.184,0.594,6.486-0.096,9.651c-0.771,3.544-2.617,6.463-4.182,9.666C605.358,414.038,605.807,414.142,605.985,413.979z"/>
	</g>
</g>
</svg>
