<?xml version="1.0" encoding="utf-8"?>
<!-- Generator: Adobe Illustrator 15.1.0, SVG Export Plug-In . SVG Version: 6.00 Build 0)  -->
<!DOCTYPE svg PUBLIC "-//W3C//DTD SVG 1.1//EN" "http://www.w3.org/Graphics/SVG/1.1/DTD/svg11.dtd">
<svg version="1.1" xmlns="http://www.w3.org/2000/svg" xmlns:xlink="http://www.w3.org/1999/xlink" x="0px" y="0px" width="1024px"
	 height="1024px" viewBox="0 0 1024 1024" enable-background="new 0 0 1024 1024" xml:space="preserve">
<g id="Layer_2">
	<g>
		<path fill="#231F20" d="M702.356,646.458L536.82,984.849c0,0-0.002,29.415,38.536,20.038
			c38.544-9.376,162.565-339.709,162.565-339.709L702.356,646.458z"/>
		<path d="M702.447,646.735c-3.259,7.065-6.554,14.112-9.868,21.15l-10.026,21.306l-20.259,42.511
			c-13.605,28.292-27.26,56.561-41.109,84.732c-6.926,14.086-13.941,28.128-21.005,42.146l-21.151,42.074
			c-7.064,14.018-14.038,28.081-20.958,42.169c-6.943,14.077-13.729,28.232-20.601,42.344l0.074-0.317
			c0.199,4.265,1.586,8.646,4.069,12.154c2.471,3.548,6.16,6.109,10.276,7.397c4.122,1.316,8.563,1.526,12.926,1.17
			c2.188-0.182,4.368-0.506,6.53-0.937c1.081-0.217,2.158-0.46,3.23-0.725c0.554-0.13,1.028-0.266,1.464-0.441
			c0.465-0.18,0.924-0.404,1.374-0.658c1.807-1.017,3.469-2.431,5.025-3.944c1.558-1.521,3.018-3.171,4.419-4.874
			c2.798-3.415,5.366-7.047,7.822-10.754c4.897-7.431,9.411-15.142,13.726-22.963c4.315-7.822,8.423-15.766,12.444-23.755
			c4.029-7.986,7.942-16.034,11.779-24.119c7.669-16.174,15.037-32.496,22.232-48.896c14.465-32.769,28.332-65.808,42.061-98.908
			c6.854-16.556,13.59-33.16,20.274-49.787c6.736-16.605,13.382-33.252,19.924-49.933l0.402,1.058L702.447,646.735z M702.269,646.19
			l36.051,18.231l0.665,0.336l-0.263,0.722c-6.123,16.857-12.431,33.639-18.787,50.406c-6.418,16.742-12.96,33.438-19.581,50.104
			c-13.235,33.333-27.047,66.444-41.615,99.235c-7.334,16.372-14.843,32.671-22.657,48.831
			c-7.821,16.155-15.922,32.191-24.816,47.822c-4.462,7.805-9.068,15.545-14.2,22.974c-2.569,3.711-5.256,7.354-8.211,10.815
			c-1.481,1.727-3.029,3.408-4.711,4.984c-1.686,1.567-3.488,3.063-5.615,4.208c-0.532,0.284-1.087,0.543-1.672,0.757
			c-0.609,0.229-1.221,0.38-1.76,0.496c-1.108,0.25-2.223,0.478-3.343,0.679c-2.239,0.403-4.504,0.701-6.786,0.85
			c-4.552,0.289-9.238-0.001-13.656-1.496c-4.408-1.458-8.419-4.348-11.012-8.229c-1.313-1.923-2.293-4.048-2.994-6.243
			c-0.693-2.211-1.138-4.447-1.209-6.822l-0.004-0.158l0.078-0.16c6.923-14.087,13.932-28.132,20.783-42.254
			c6.875-14.11,13.696-28.247,20.426-42.429l20.233-42.523c6.731-14.182,13.511-28.339,20.379-42.452
			c13.739-28.227,27.675-56.357,41.658-84.464l21.126-42.087l10.666-20.993c3.553-6.999,7.124-13.988,10.734-20.959L702.269,646.19z
			"/>
	</g>
	<g>
		<path d="M903.615,273.417c-5.071-3.078-10.346-5.804-15.82-8.067c-5.482-2.233-11.134-4.058-16.91-5.311
			c-11.543-2.54-23.509-2.96-35.138-1.306c-5.818,0.805-11.563,2.063-17.179,3.732c-5.608,1.697-11.09,3.781-16.42,6.188
			c-10.668,4.808-20.703,10.911-30.145,17.779c-9.471,6.84-18.291,14.548-26.671,22.685c-4.181,4.082-8.26,8.27-12.191,12.597
			c-3.968,4.294-7.783,8.73-11.514,13.237c-14.905,18.049-28.105,37.536-39.688,57.973c-5.806,10.213-11.177,20.687-16.062,31.397
			c-4.908,10.7-9.3,21.65-13.106,32.812c-7.563,22.311-12.811,45.596-13.867,69.203c-0.52,11.783-0.023,23.634,1.915,35.245
			c1.945,11.59,5.145,23.009,10.213,33.556c2.507,5.278,5.432,10.345,8.764,15.115c3.361,4.749,7.141,9.186,11.281,13.237
			c4.135,4.059,8.643,7.722,13.445,10.937c4.783,3.209,9.925,6.029,15.14,8.601c10.454,5.108,21.481,8.915,32.779,11.068
			c5.647,1.082,11.357,1.744,17.074,1.999c5.715,0.28,11.442,0.14,17.128-0.41c11.368-1.125,22.582-3.729,33.325-7.72
			c10.746-3.979,21.063-9.186,30.8-15.362c9.746-6.168,18.927-13.271,27.553-21.013c8.638-7.732,16.714-16.123,24.245-24.989
			c15.03-17.765,28.088-37.253,39.086-57.843c11.023-20.581,19.992-42.289,26.601-64.688c1.65-5.599,3.187-11.234,4.521-16.917
			c1.381-5.672,2.594-11.387,3.61-17.137c1.992-11.501,3.413-23.124,3.808-34.808c0.423-11.676-0.058-23.416-1.824-35
			c-0.879-5.791-2.069-11.54-3.604-17.206c-1.559-5.658-3.483-11.22-5.768-16.639c-4.537-10.851-10.742-21.049-18.425-30.036
			c-3.83-4.504-8.063-8.664-12.564-12.51C913.488,279.991,908.659,276.531,903.615,273.417z M904.291,272.306
			c5.128,3.095,10.031,6.568,14.664,10.375c4.654,3.782,8.995,7.949,13.047,12.384c4.054,4.436,7.75,9.2,11.136,14.182
			c3.357,5,6.398,10.225,9.083,15.637c2.683,5.414,4.99,11.019,6.969,16.741c2.006,5.714,3.67,11.555,5.018,17.471
			c2.688,11.835,4.183,23.953,4.625,36.105c0.408,12.153-0.107,24.352-1.615,36.423c-0.733,6.039-1.669,12.052-2.79,18.031
			c-1.168,5.969-2.499,11.906-4.039,17.789c-3.076,11.767-6.907,23.326-11.332,34.646c-4.403,11.333-9.507,22.385-15.134,33.165
			c-11.33,21.512-24.963,41.883-41.074,60.222c-16.08,18.32-34.535,34.823-55.615,47.575c-10.528,6.356-21.693,11.785-33.422,15.763
			c-11.715,3.969-23.968,6.601-36.375,7.271c-6.196,0.357-12.417,0.268-18.591-0.275c-6.172-0.564-12.29-1.594-18.287-3.048
			c-12.003-2.905-23.491-7.534-34.176-13.421c-5.337-2.957-10.53-6.129-15.481-9.8c-4.922-3.671-9.542-7.743-13.757-12.189
			c-4.216-4.445-8.004-9.276-11.352-14.375c-3.372-5.083-6.295-10.447-8.769-15.995c-4.913-11.113-8.246-22.847-10.109-34.77
			c-1.873-11.925-2.512-23.996-2.2-36.024c0.67-24.069,4.768-47.956,11.204-71.171c3.225-11.613,7.08-23.057,11.485-34.296
			c4.433-11.228,9.442-22.238,15.008-32.972c11.18-21.437,24.636-41.759,40.397-60.215c15.745-18.437,33.953-34.98,54.561-47.966
			c10.303-6.466,21.222-11.989,32.631-16.187c5.703-2.095,11.533-3.842,17.45-5.175c5.909-1.358,11.907-2.32,17.939-2.789
			c6.031-0.464,12.089-0.461,18.098,0.005c6.007,0.495,11.97,1.441,17.799,2.906c5.826,1.468,11.542,3.359,17.047,5.74
			C893.85,266.412,899.193,269.174,904.291,272.306z"/>
	</g>
	<g>
		<path d="M706.323,651.386c5.308,2.939,10.726,5.646,16.287,7.995c5.563,2.345,11.27,4.308,17.053,5.938
			c5.791,1.606,11.68,2.812,17.614,3.61c5.937,0.791,11.921,1.123,17.896,1.07c5.976-0.062,11.939-0.583,17.839-1.496
			c5.904-0.893,11.745-2.203,17.479-3.884c11.469-3.372,22.53-8.102,33.073-13.83c10.57-5.688,20.617-12.409,30.072-19.908
			c4.729-3.747,9.315-7.688,13.756-11.792c4.419-4.126,8.687-8.423,12.787-12.875c8.18-8.925,15.727-18.435,22.612-28.394
			c6.918-9.941,13.085-20.385,18.764-31.057c11.227-21.424,20.292-43.93,26.922-67.101c3.297-11.589,5.923-23.363,7.756-35.248
			c1.82-11.883,2.978-23.866,3.117-35.863c0.223-11.993-0.606-23.994-2.564-35.802c-1.982-11.799-5.203-23.403-9.902-34.408
			c-4.706-10.99-10.855-21.413-18.587-30.617c-3.867-4.593-8.041-8.948-12.556-12.949c-4.515-4-9.345-7.659-14.397-11.007
			l0.26-0.427c5.31,2.978,10.385,6.397,15.174,10.197c4.792,3.796,9.313,7.966,13.426,12.523
			c8.248,9.091,15.105,19.491,20.276,30.675c2.592,5.589,4.803,11.355,6.644,17.235c1.824,5.885,3.292,11.877,4.435,17.927
			c2.295,12.104,3.182,24.431,3.125,36.713c-0.24,24.6-4.686,48.952-11.69,72.368c-7.013,23.441-16.875,45.972-29.038,67.102
			c-6.026,10.601-12.709,20.804-19.774,30.715c-7.1,9.888-14.677,19.432-22.799,28.505c-4.053,4.543-8.232,8.978-12.563,13.268
			c-4.308,4.313-8.776,8.475-13.408,12.457c-9.267,7.956-19.188,15.222-29.813,21.395c-10.64,6.124-22.007,11.11-33.882,14.453
			c-5.933,1.675-11.979,2.969-18.089,3.831c-6.112,0.842-12.287,1.229-18.452,1.168c-6.167-0.047-12.323-0.618-18.394-1.624
			c-6.074-0.994-12.057-2.478-17.887-4.385c-5.84-1.88-11.506-4.247-16.988-6.939c-5.484-2.689-10.785-5.73-15.842-9.113
			L706.323,651.386z"/>
	</g>
	<g>
		<path d="M670.619,485.379c-2.565,7.057-4.88,14.146-6.913,21.301c-0.516,1.786-0.994,3.582-1.461,5.379
			c-0.482,1.793-0.937,3.592-1.359,5.398c-0.839,3.613-1.653,7.228-2.407,10.86c-1.518,7.249-2.906,14.619-3.025,22.089
			c-0.061,3.727,0.125,7.46,0.604,11.154c0.45,3.697,1.279,7.337,2.252,10.907c2.057,7.122,4.972,13.92,8.672,20.217
			c3.737,6.286,8.456,11.917,13.745,16.934c5.265,5.061,11.224,9.41,17.538,13.244c6.331,3.818,13.04,7.091,19.939,10.064
			l-0.125,0.379c-7.329-1.746-14.518-4.273-21.332-7.683c-6.824-3.38-13.247-7.698-18.937-12.89
			c-2.809-2.629-5.459-5.449-7.798-8.516c-2.345-3.06-4.457-6.295-6.3-9.67c-1.849-3.372-3.426-6.888-4.674-10.509
			c-1.262-3.617-2.164-7.339-2.862-11.073c-1.387-7.48-1.872-15.027-2.02-22.561c-0.107-7.53-0.012-15.139,1.043-22.66
			c0.533-3.754,1.282-7.478,2.248-11.142c0.479-1.833,0.99-3.656,1.528-5.471c0.555-1.811,1.157-3.605,1.776-5.392
			c1.254-3.569,2.651-7.085,4.227-10.521c1.57-3.436,3.272-6.814,5.283-10.021L670.619,485.379z"/>
	</g>
	<g>
		<path d="M926.079,441.691c2.995-6.886,5.741-13.82,8.21-20.836c0.624-1.751,1.212-3.514,1.788-5.279
			c0.592-1.76,1.156-3.528,1.689-5.304c1.06-3.556,2.094-7.113,3.069-10.692c1.961-7.142,3.801-14.413,4.378-21.861
			c0.29-3.716,0.334-7.455,0.083-11.17c-0.222-3.719-0.825-7.402-1.576-11.026c-1.615-7.235-4.107-14.199-7.413-20.711
			c-3.344-6.504-7.707-12.415-12.677-17.748c-4.944-5.375-10.625-10.082-16.691-14.298c-6.084-4.2-12.579-7.878-19.283-11.271
			l0.148-0.371c7.208,2.193,14.228,5.159,20.819,8.98c6.604,3.793,12.749,8.498,18.107,14.03c2.642,2.797,5.114,5.775,7.261,8.979
			c2.151,3.199,4.061,6.557,5.692,10.04c1.639,3.479,2.996,7.085,4.02,10.776c1.037,3.688,1.708,7.458,2.176,11.229
			c0.924,7.552,0.944,15.114,0.629,22.643c-0.356,7.522-0.919,15.111-2.434,22.553c-0.764,3.715-1.74,7.385-2.93,10.982
			c-0.591,1.8-1.213,3.589-1.861,5.367c-0.665,1.773-1.377,3.527-2.104,5.273c-1.471,3.485-3.083,6.909-4.865,10.241
			c-1.778,3.333-3.686,6.6-5.89,9.677L926.079,441.691z"/>
	</g>
</g>
<g id="Layer_3">
	<g>
		<path fill="#231F20" d="M847.156,519.112c0,0,40.166-85.227-26.667-113.613C763.506,462.101,847.156,519.112,847.156,519.112z"/>
		<path d="M847.061,518.77c3.681-10.206,6.521-20.668,8.347-31.257c0.463-2.668,0.845-5.347,1.137-8.033
			c0.316-2.682,0.542-5.371,0.666-8.062c0.115-2.69,0.142-5.38,0.089-8.064c-0.082-2.684-0.239-5.362-0.516-8.028
			c-0.562-5.327-1.563-10.63-3.332-15.711c-1.74-5.082-4.185-9.964-7.427-14.303c-1.612-2.173-3.428-4.193-5.358-6.093
			c-1.958-1.873-4.05-3.608-6.255-5.184c-4.416-3.154-9.29-5.613-14.325-7.588l1.127-0.217c-3.87,4.068-7.328,8.501-10.223,13.229
			c-2.884,4.731-5.21,9.771-6.648,15.052c-1.448,5.274-1.976,10.768-1.576,16.201c0.421,5.431,1.606,10.813,3.521,15.966
			c1.836,5.184,4.353,10.143,7.233,14.894c2.884,4.754,6.187,9.279,9.734,13.619c3.571,4.32,7.343,8.509,11.383,12.446
			C838.606,511.513,842.716,515.282,847.061,518.77z M847.043,519.277c-9.644-6.09-18.388-13.58-26.191-22.005
			c-7.735-8.462-14.438-18.145-18.588-29.119c-1.993-5.493-3.37-11.29-3.623-17.194c-0.292-5.894,0.43-11.843,2.126-17.473
			c1.682-5.638,4.323-10.941,7.619-15.718c3.289-4.792,7.205-9.07,11.377-12.999l0.525-0.494l0.603,0.277
			c10.061,4.631,19.297,11.228,26.201,19.938c3.451,4.336,6.364,9.141,8.534,14.29c2.169,5.146,3.677,10.587,4.503,16.122
			c0.404,2.769,0.663,5.558,0.738,8.349c0.1,2.791,0.053,5.583-0.136,8.361c-0.177,2.778-0.454,5.546-0.832,8.297
			c-0.402,2.748-0.896,5.479-1.47,8.188c-1.166,5.416-2.679,10.744-4.522,15.945c-1.849,5.198-3.958,10.301-6.57,15.155
			l-0.107,0.199L847.043,519.277z"/>
	</g>
	<g>
		<path d="M821.834,431.08c-1.138,0.6-2.365,0.929-3.613,1.128c-1.25,0.214-2.528,0.253-3.804,0.159
			c-2.534-0.211-5.135-0.904-7.284-2.38c-2.161-1.482-3.713-3.596-5.226-5.501c-1.511-1.933-2.983-3.868-4.38-5.947
			c-0.679-1.044-1.348-2.119-1.87-3.256c-0.54-1.132-0.955-2.312-1.33-3.499c-0.739-2.377-1.308-4.813-1.507-7.273
			c-0.334-4.923,0.149-9.845,1.734-14.532l0.398,0.025c0.988,4.83,1.438,9.483,2.115,14.051c0.307,2.283,0.522,4.563,0.928,6.817
			c0.204,1.125,0.451,2.24,0.695,3.361c0.254,1.117,0.478,2.259,0.816,3.371c0.636,2.234,1.723,4.38,3.368,6.029
			c1.635,1.677,3.837,2.622,5.862,3.43l3.041,1.216c1.023,0.38,2.072,0.72,3.149,1.016c2.158,0.593,4.409,1.028,6.829,1.393
			L821.834,431.08z"/>
	</g>
	<g>
		<path d="M829.748,427.396c1.619-1.667,3.143-3.218,4.591-4.801c0.723-0.79,1.423-1.584,2.104-2.386
			c0.67-0.813,1.346-1.61,2.057-2.397c1.415-1.558,3.007-3.181,3.877-5.212c0.89-2.01,1.153-4.258,0.971-6.436
			c-0.07-1.09-0.259-2.164-0.41-3.223c-0.167-1.059-0.327-2.108-0.54-3.15c-0.429-2.086-1.066-4.113-1.649-6.169
			c-0.575-2.062-1.206-4.131-1.848-6.244c-0.639-2.116-1.346-4.238-1.899-6.512l0.344-0.204c1.734,1.59,3.152,3.432,4.411,5.386
			c1.257,1.957,2.29,4.068,3.066,6.291c0.77,2.226,1.155,4.589,1.323,6.955c0.08,1.184,0.107,2.375,0.001,3.562
			c-0.092,1.187-0.345,2.361-0.617,3.507c-0.586,2.296-1.286,4.473-1.94,6.681c-0.668,2.189-1.19,4.572-2.358,6.688
			c-0.578,1.052-1.311,2.01-2.146,2.864c-0.822,0.865-1.727,1.647-2.689,2.341c-0.964,0.692-1.983,1.303-3.07,1.781
			c-1.076,0.489-2.2,0.884-3.405,1.042L829.748,427.396z"/>
	</g>
	<g>
		<path fill="#231F20" d="M852.379,432.763c0,0,6.95-6.355,14.666-3.216"/>
		<path d="M852.244,432.615c0.016-1.024,0.381-1.744,0.834-2.338c0.231-0.293,0.493-0.551,0.785-0.763
			c0.282-0.229,0.615-0.378,0.991-0.434c0.761-0.111,1.663,0.18,2.335,0.042c0.684-0.125,1.25-0.523,1.839-1.075
			c0.585-0.56,1.268-0.988,2.007-1.176c0.73-0.234,1.511-0.417,2.285-0.313c1.533,0.24,3.04,1.104,3.8,2.803l-0.15,0.37
			c-1.679,0.713-2.771,0.98-3.868,1.093c-0.539,0.039-1.078-0.104-1.655-0.195c-0.569-0.045-1.182-0.229-1.871-0.463
			c-0.685-0.22-1.371-0.208-1.909,0.154c-0.55,0.349-0.843,1.195-1.243,1.703c-0.204,0.254-0.443,0.429-0.726,0.539
			c-0.271,0.127-0.564,0.224-0.879,0.297c-0.636,0.143-1.332,0.206-2.305,0.05L852.244,432.615z"/>
	</g>
	<g>
		<path fill="#231F20" d="M853.985,474.136c0,0,8.967-11.189,19.418-5.576"/>
		<path d="M853.829,474.01c0.02-1.21,0.45-2.162,0.998-2.994c0.278-0.414,0.598-0.793,0.956-1.129
			c0.346-0.351,0.757-0.629,1.229-0.815c0.95-0.375,2.104-0.353,2.983-0.697c0.893-0.334,1.644-0.903,2.436-1.597
			c0.784-0.706,1.717-1.252,2.735-1.517c1.007-0.31,2.092-0.518,3.165-0.38c2.135,0.303,4.146,1.489,5.166,3.502l-0.189,0.353
			c-2.198,0.289-3.749,0.343-5.269,0.407c-0.752,0.017-1.502-0.111-2.303-0.144c-0.787,0.015-1.633-0.075-2.567-0.159
			c-0.931-0.078-1.845,0.119-2.553,0.666c-0.725,0.535-1.109,1.551-1.633,2.257c-0.266,0.354-0.575,0.639-0.935,0.869
			c-0.347,0.246-0.717,0.467-1.109,0.674c-0.792,0.409-1.649,0.762-2.8,0.956L853.829,474.01z"/>
	</g>
	<g>
		<path fill="#231F20" d="M819.571,483.437c0,0-12.469-0.78-19.563,6.926"/>
		<path d="M819.559,483.637c-0.9,0.718-1.734,1.099-2.571,1.382c-0.417,0.139-0.832,0.246-1.249,0.317
			c-0.416,0.091-0.836,0.105-1.272,0.035c-0.868-0.145-1.832-0.628-2.715-0.558c-0.881,0.054-1.688,0.477-2.385,1.104
			c-0.694,0.638-1.365,1.202-2.071,1.628c-0.69,0.471-1.329,0.973-2.046,1.323c-1.468,0.677-2.961,1.218-5.095,1.63l-0.295-0.271
			c0.282-2.208,1.614-3.895,3.209-5.033c0.814-0.56,1.766-0.865,2.706-1.111c0.924-0.29,1.924-0.351,2.927-0.253
			c1,0.085,1.915,0.051,2.772-0.278c0.856-0.312,1.648-1.105,2.545-1.488c0.446-0.19,0.91-0.277,1.381-0.271
			c0.47-0.014,0.942,0.027,1.414,0.116c0.941,0.188,1.891,0.527,2.769,1.328L819.559,483.637z"/>
	</g>
	<g>
		<path fill="#231F20" d="M805.629,443.893c0,0-16.137-3.49-21.188,5.523"/>
		<path d="M805.587,444.089c-1.081,0.556-2.051,0.784-3.005,0.917c-0.475,0.063-0.943,0.098-1.406,0.095
			c-0.466,0.018-0.923-0.041-1.381-0.185c-0.911-0.29-1.857-0.927-2.818-0.997c-0.955-0.084-1.899,0.213-2.748,0.747
			c-0.849,0.541-1.642,1.03-2.431,1.392c-0.777,0.411-1.475,0.874-2.206,1.209c-1.496,0.661-2.918,1.232-4.976,2.248l-0.35-0.195
			c-0.172-2.39,1.348-4.569,3.243-5.782c0.962-0.613,2.065-0.897,3.134-1.08c1.061-0.226,2.161-0.18,3.228,0.048
			c1.065,0.213,2.055,0.318,3.036,0.125c0.977-0.172,1.972-0.823,2.999-1.049c0.512-0.111,1.023-0.118,1.525-0.03
			c0.504,0.068,1.002,0.189,1.491,0.358c0.974,0.349,1.928,0.847,2.748,1.789L805.587,444.089z"/>
	</g>
</g>
<g id="Layer_1">
	<g id="boy">
		<path fill="#010101" d="M293.867,177.476c-8.302,1.385-0.822,11.704,4.252,12.421c29.368,4.149,58.558,9.578,84.145,25.469
			c59.632,37.036,90.757,105.179,109.678,170.157c19.326,66.383,29.208,139.826,20.764,208.848
			c-4.913,40.143-18.646,80.165-45.146,111.303c-24.464,28.742-57.447,48.98-94.072,58.173
			c-42.793,10.743-88.917,9.964-131.775-0.247c-44.063-10.496-97.494-29.787-123.615-69.549
			c-26.462-40.278-18.994-96.526-16.799-142.03c2.728-56.55,13.578-112.859,29.468-167.133c6.197-21.172,12.396-42.744,22.44-62.472
			c9.05-17.779,19.871-34.618,31.962-50.481c13.121-17.217,27.54-33.837,44.274-47.664c11.487-9.492,28.44-19.535,41.232-22.42
			c20.834-4.698,3.134-31.12-11.077-32.381c-36.909-3.27-68.084,26.971-90.514,52.84c-23.813,27.463-46.031,59.385-59.523,93.34
			c-20.244,50.948-32.235,107.152-40.153,161.246c-3.961,27.08-5.87,54.093-6.96,81.416c-1.041,26.012-2.074,52.168,1.095,78.086
			c3.167,25.923,11.068,51.438,26.134,73.017c15.185,21.749,36.68,39.246,59.464,52.574c44.585,26.078,96.482,40.641,147.923,43.899
			c82.322,5.22,169.746-21.267,214.97-94.936c41.041-66.856,41.816-147.535,32.688-223.202
			c-9.054-75.046-30.42-151.622-73.67-214.495C432.703,217.512,365.661,165.526,293.867,177.476L293.867,177.476z"/>
		<path fill="#010101" d="M454.318,543.297c10.098-0.175,6.312-10.682,0.822-14.58c2.922,2.075-3.873-2.433-2.185-1.567
			c-0.96-0.492-1.921-0.973-2.884-1.46c-2.209-1.113-4.409-2.229-6.618-3.337c-3.472-1.738-6.894-3.586-10.385-5.278
			c-6.252-3.03-16.226-3.135-16.716,6.102c-0.441,8.255,7.601,15.715,15.45,16.421c4.835,0.437,5.85,0.74,10.227,1.661
			C446.072,542.106,450.178,543.369,454.318,543.297L454.318,543.297z"/>
		<path fill="#010101" d="M423.601,534.154c-15.356,13.524-29.822,24.632-50.544,28.939c-24.288,5.048-49.403,4.308-73.871,0.883
			c-25.393-3.559-50.531-9.84-74.515-18.941c-9.512-3.606-18.854-7.595-27.775-12.515c-9.161-5.049-12.292-7.108-18.363-12.75
			c2.01,5.763,4.02,11.526,6.027,17.291c1.041-3.506,0.933-8.422,2.868-11.572c7.977-12.992-9.072-31.413-22.902-24.573
			c-5.827,2.881-13.587,6.573-15.483,13.401c-1.92,6.922,1.417,13.062,6.319,17.728c3.97,2.838,3.97,2.838,0,0
			c1.801,1.592,3.835,2.762,6.112,3.515c1.721,0.403,2.469,0.891,4.771,1.076c7.183,0.583,12.689-5.705,18.507-9.02
			c-8.218-7.212-16.441-14.429-24.664-21.643c-2.663,5.01-2.563,9.663-3.794,14.979c-1.534,6.61,0.788,12.862,6.028,17.292
			c17.934,15.163,40.907,24.819,62.966,32.17c26.917,8.971,55.132,15.111,83.427,17.497c26.089,2.201,54.192,2.322,79.249-6.288
			c19.76-6.79,42.142-19.495,43.833-42.765C432.078,534.985,426.723,531.407,423.601,534.154z"/>
		<path fill="#010101" d="M520.727,428.918c-0.072,2.854,5.908,6.907,6.803,3.009c5.588-24.355,43.708-17.275,58.099-7.378
			c13.616,9.366,17.567,26.535,13.642,42.054c-4.001,15.827-12.766,32.3-26.666,41.623c-10.49,7.034-22.947,10.229-31.148,1.271
			c-2.135,5.358-4.268,10.713-6.401,16.068c5.61,0.631,16.58-0.095,14.747-8.657c-1.805-8.418-12.104-13.042-19.589-13.939
			c-9.33-1.121-11.779,10.12-6.403,16.066c16.597,18.364,41.365,25.338,62.901,10.451c19.543-13.506,33.468-36.323,35.671-60.128
			c2.489-26.834-11.316-52.913-36.125-64.505c-13.245-6.191-30.194-10.215-44.584-5.359c-6.125,2.066-12.77,4.616-16.328,10.386
			C521.148,416.676,520.924,421.243,520.727,428.918L520.727,428.918z"/>
		<path fill="#010101" d="M91.874,422.12c1.01,2.661,6.719,3.554,5.75-0.266c-3.708-14.554-9.945-25.231-22.714-33.998
			c-12.579-8.636-29.038-13.345-44.299-10.939c-28.636,4.513-57.291,32.387-59.913,61.794c-2.497,27.988,13.961,53.8,35.698,70.077
			c12.125,9.078,26.425,16.22,41.337,19.271c10.941,2.238,35.06,8.039,41.219-4.404c2.401-4.848-2.492-10.417-6.175-12.756
			c-9.992-6.345-24.748-1.984-36.196-4.788c-10.226-2.507-19.853-6.385-28.532-12.417c-14.037-9.752-26.404-26.252-25.916-44.088
			c0.63-22.93,19.104-43.885,40.004-52.095C53.473,389.128,83.35,399.668,91.874,422.12L91.874,422.12z"/>
		<path fill="#010101" d="M55.479,444.623c2.229,0.136,3.688-1.535,3.265-3.727c-1.577-8.214-13.438-14.621-21.345-13.025
			c-7.169,1.446-12.015,7.352-13.779,14.256c-2.169,8.489-1.935,17.125,1.268,25.337c3.34,8.566,12.509,19.543,22.552,19.487
			c13.276-0.074,9.178-14.882,1.111-19.796c-1.855-1.133-3.861-1.617-5.81-2.448c0.648,0.277,3.04,2.296,1.291,0.51
			c2.48,2.53-1.239-2.526-0.072-0.233c-0.503-0.986-1.003-1.978-1.383-3.023c-0.92-2.518-1.503-7.945-0.925-11.858
			c0.428-2.887,1.797-6.865,3.632-7.799C47.954,440.946,52.095,444.414,55.479,444.623L55.479,444.623z"/>
		<path fill="#010101" d="M559.268,448.016c5.272,3.84,11.791,6.375,12.753,13.705c0.869,6.609-3.396,10.617-8.931,13.233
			c-11.969,5.651,5.288,27.066,14.895,19.663c11.042-8.508,15.966-22.028,9.725-35.253c-4.505-9.552-16.068-22.037-27.922-19.53
			C555.686,440.7,556.541,446.03,559.268,448.016z"/>
		<path fill="#010101" d="M364.473,392.606c-2.552-5.316-15.009-12.82-18.031-3.669c-6.857,20.767,5.635,45.944-8.004,65.408
			c9.464,4.242,18.93,8.488,28.393,12.729c-6.068-18.353-14.464-47.988,3.042-62.546c-3.552,1.267-7.104,2.533-10.658,3.798
			c-0.739-0.208-1.475-0.418-2.208-0.626c-5.163-8.294-10.323-16.584-15.484-24.877c-2.979,13.527-4.319,30.914-0.435,44.315
			c2.283,7.882,7.945,14.372,15.919,16.921c6.201,1.982,14.719,0.799,17.163-6.26c4.47-12.926,3.079-31.007,0.45-44.314
			c-1.933-9.781-13.94-20.309-24.435-17.615c6.426-1.648-5.311,1.345-5.613,1.509c-1.605,1.203-3.151,2.475-4.643,3.814
			c-2.929,3.028-5.401,6.495-7.275,10.286c-3.716,7.502-5.578,16.28-5.741,24.646c-0.347,18.006,3.327,35.867,10.634,52.313
			c4.673,10.523,22.099,18.604,28.883,5.883c6.905-12.952,7.569-27.712,6.438-42.059
			C371.843,419.301,370.159,404.448,364.473,392.606L364.473,392.606z"/>
		<path fill="#010101" d="M281.719,387.689c-3.442-2.593-10.516-4.118-11.012,2.154c-0.941,11.898,2.929,24.175,2.58,36.275
			c-0.325,11.243-0.757,26.217-7.207,35.979c9.549,3.134,19.098,6.265,28.647,9.397c-4.721-11.498-8.327-23.468-9.772-35.864
			c-1.1-9.479-1.982-23.296,6.065-30.081c-10.547-3.459-21.092-6.916-31.639-10.376c1.715,3.958,2.947,8.051,5.103,11.785
			c6.565,11.383,28.666,22.079,32.204,2.611c1.283-7.081-1.626-14.158-4.625-20.49c-4.233-8.924-23.163-22.48-31.642-10.378
			c-19.499,27.852-11.057,70.223,4.714,98.311c5.019,8.941,24.536,21.707,30.558,6.225c6.359-16.354,6.325-34.595,4.058-51.771
			C297.812,416.78,294.356,397.195,281.719,387.689L281.719,387.689z"/>
		<path fill="#010101" d="M442.722,770.274c-2.152-4.04-11.843-6.708-10.157,0.473c14.425,61.447,10.807,128.652-7.181,188.86
			c4.361-2.438,8.728-4.871,13.093-7.308c-55.899-3.979-110.614,13.738-166.391,13c-28.176-0.374-56.21-3.036-84.184-6.288
			c-13.985-1.628-27.957-3.354-41.948-4.91c-14.185-1.578-28.684-3.985-42.954-2.932c8.105,10.62,16.209,21.241,24.313,31.863
			c3.11-4.382,4.606-8.195,4.707-13.556c0.179-9.693-8.263-16.752-17.17-18.245c-6.421-1.078-9.775-0.823-15.92,1.349
			c-7.772,2.755-7.118,13.911-4.395,19.703c2.853,6.063,9.206,12.562,15.998,14.037c14.212,3.092,28.967,3.545,43.423,5.136
			c13.984,1.539,27.951,3.237,41.93,4.816c27.931,3.159,56.005,6.04,84.146,6.13c55.823,0.181,109.897-15.844,165.652-16.45
			c7.09-0.076,13.468-3.286,13.903-11.214C463.255,907.58,475.805,832.332,442.722,770.274L442.722,770.274z"/>
		<path fill="#010101" d="M138.018,746.946c-0.701-7.182-11.943-12.032-15.975-5.15c-6.434,10.981-9.517,30.776-12.632,45.001
			c-5.403,24.68-10.599,49.413-15.146,74.265c-4.217,23.064-8.323,46.294-10.365,69.674c-1.545,17.71-4.772,42.961,14.146,52.899
			c8.762,4.601,21.976,3.966,22.954-8.375c0.146-1.859-0.109-4.202-0.625-6.125c-0.523-1.951-1.263-3.838-1.954-5.735
			c1.109,3.39,1.387,4.18,0.839,2.373c-0.47-1.716-1.663-9.84-1.362-5.358c-0.566-8.394-0.432-16.826-0.067-25.225
			c1.035-23.725,3.543-47.388,6.384-70.954c2.903-24.087,6.124-48.133,9.659-72.135
			C136.028,777.484,139.457,761.709,138.018,746.946L138.018,746.946z"/>
		<path fill="#010101" d="M431.832,974.215c-2.938-5.612-15.802-9.143-13.813,0.643c6.025,29.617,2.846,57.262,0.707,87.022
			c3.396-2.737,6.792-5.476,10.186-8.213c-47.159-8.013-94.078,5.163-141.302,1.119c5.566,5.919,11.135,11.836,16.703,17.753
			c2.173-18.321-3.285-36.556-15.828-50.212c-4.594-5.001-12.973-11.03-20.076-6.669c-19.039,11.684-42.547,25.631-48.77,48.695
			c4.896-1.788,9.791-3.574,14.688-5.359c-21.341-4.396-42.48-3.241-64.063-1.396c-18.333,1.568-37.98,4.286-55.96-0.943
			c4.62,4.911,9.239,9.823,13.86,14.734c-1.086-12.681-1.196-33.038,0.794-48.361c0.974-7.483,2.279-15.162,5.622-22.014
			c2.187-4.486,6.522-8.65,8.668-9.983c10.016-6.211,1.058-21.245-7.979-23.198c-46.277-9.999-38.686,74.556-36.293,101.19
			c0.592,6.588,7.891,13.022,13.861,14.734c39.693,11.383,80.29-6.157,120.045,1.874c5.074,1.027,12.945,1.226,14.688-5.358
			c4.978-18.776,24.353-29.963,39.674-39.753c-5.73-1.188-11.46-2.381-17.191-3.575c6.761,7.162,7.535,17.462,6.557,26.716
			c-0.931,8.78,8.556,17.14,16.703,17.753c47.141,3.543,93.852-10.313,140.884-3.09c4.721,0.725,10.492-2.994,10.185-8.213
			C442.548,1039.12,446.709,1002.627,431.832,974.215L431.832,974.215z"/>
		<path fill="#010101" d="M350.131,800.887c-0.508-1.586-4.823-5.053-5.552-1.789c-3.845,17.265-15.067,23.575-31.281,27.733
			c-13.248,3.397-31.844,5.645-45.011,1.027c-4.385-1.536,0.238,1.117-0.847-0.254c-0.954-1.136-1.84-2.328-2.653-3.572
			c-1.712-2.762-3.202-6.095-4.068-9.229c-1.702-6.159-0.61-13.021-1.982-17.962c-4.017-14.456-25.555-17.469-25.231,0.607
			c0.273,15.26,8.492,33.815,20.07,43.839c12.327,10.672,29.426,10.69,44.888,9.376c15.023-1.28,29.936-4.832,42.367-13.765
			C353.448,827.828,354.612,814.828,350.131,800.887L350.131,800.887z"/>
		<path fill="#010101" d="M440.933,777c10.711,9.034,23.133,15.601,33.216,25.564c10.051,9.932,17.781,21.274,24.044,33.889
			c0.24-3.79,0.48-7.578,0.718-11.368c-9.174,8.21-23.311,11.049-33.783,17.431c-11.144,6.794-20.332,20.709-6.219,30.895
			c3.545,2.56,10.963,6.191,14.46,1.171c11.05-15.854,32.911-17.991,46.658-30.964c2.895-2.728,2.428-8.203,0.721-11.368
			c-8.746-16.211-20.947-30.991-35.089-42.803c-11.525-9.622-26.929-21.611-42.699-21.888
			C437.123,767.458,437.334,773.969,440.933,777z"/>
		<path fill="#010101" d="M123.95,733.149c-6.421-5.988-14.821,8.712-18.51,12.241c-9.051,8.663-19.292,16.003-29.575,23.12
			c-20.767,14.37-43.216,28.253-59.74,47.673c-7.985,9.386,5.002,21.145,13.834,22.477c13.328,2.007,25.612,5.925,37.527,12.304
			c5.996,3.215,11.881,6.607,17.657,10.202c5.866,3.647,11.016,7.79,18.225,7.698c7.327-0.098,11.833-6.367,8.144-13.32
			c-7.417-13.979-27.665-23.011-41.654-29.521c-14.283-6.646-29.455-12.174-45.353-12.826c5.119,6.646,10.242,13.289,15.362,19.936
			c11.963-21.482,37.015-36.182,55.379-51.651C103.794,774.283,138.526,746.737,123.95,733.149L123.95,733.149z"/>
		<path fill="#010101" d="M386.285,1066.385c-1.791-2.782-8.844-3.332-7.304,1.381c11.655,35.683,12.731,74.111-3.507,108.493
			c-3.756,7.954,7.289,16.291,14.33,15.271c5.496-0.793,11.563-1.164,16.905,0.736c2.063,0.734,3.604,3.083,2.706,0.575
			c-0.713-0.84-1.118-0.23-1.221,1.822c-5.386,6.869-11.6,11.166-20.369,12.116c-7.701,0.834-33.06-0.09-33.304-12.023
			c-0.394-19.061,8.5-36.826,9.924-55.672c1.727-22.85,1.68-47.18-7.065-68.646c-6.708,1.25-13.415,2.503-20.122,3.75
			c1.442,3.028,3.257,5.491,5.129,8.244c3.196,4.697,13.152,8.365,15.984,1.296c1.888-4.717,1.15-8.794-0.991-13.29
			c-5.472-11.493-26.444-11.573-20.122,3.75c12.429,30.132,3.704,63.866-2.276,94.237c-2.19,11.109-3.976,23.115,1.366,33.634
			c5.181,10.208,15.891,17.315,26.419,21.054c21.63,7.68,51.179,7.042,64.275-14.994c6.554-11.025,1.249-22.766-8.634-29.613
			c-10.887-7.543-25.058-8.414-37.765-6.402c4.778,5.09,9.555,10.181,14.331,15.271
			C403.895,1148.082,409.298,1102.154,386.285,1066.385L386.285,1066.385z"/>
		<path fill="#010101" d="M191.415,1078.967c-0.585-2.687-7.028-7.174-8.168-2.625c-4.462,17.787-4.136,37.302-5.785,55.54
			c-1.757,19.425-5.315,38.061-9.033,57.132c-1.245,6.387,6.85,13.097,12.57,13.354c2.214,0.103,12.8,0.239,10.879,4.198
			c-2.917,6.018-9.768,8.979-16.133,9.31c-12.928,0.667-27.002-4.257-37.794-11.147c2.357,4.867,4.714,9.736,7.072,14.604
			c6.593-29.672,15.314-58.099,15.581-88.742c0.079-9.07,0.158-18.141,0.235-27.21c0.046-5.604,1.083-12.568-0.539-18.022
			c-1.775-5.966-6.748-11.084-13.228-11.608c-5.461-0.443-10.321,4.16-8.634,9.836c0.264,0.881,0.526,1.769,0.79,2.649
			c1.963,6.596,16.068,17.518,20.019,6.451c0.254-0.717,0.509-1.435,0.768-2.149c3.978-11.146-16.856-24.546-21.286-12.132
			c-1.91,5.346-0.874,12.065-0.826,17.621c0.074,8.622,0.149,17.244,0.222,25.867c0.256,29.64-7.676,56.856-13.886,85.589
			c-1.349,6.239,1.813,11.279,7.071,14.604c19.336,12.221,51.646,22.235,71.879,7.287c9.646-7.124,13.406-18.958,7.02-29.611
			c-7.045-11.744-20.262-17.022-33.505-17.431c4.189,4.451,8.379,8.902,12.569,13.356c2.548-19.244,3.503-39.206,4.38-58.624
			C194.511,1118.103,195.48,1097.605,191.415,1078.967L191.415,1078.967z"/>
		<path fill="#010101" d="M502.431,852.441c-4.507,4.263,0.203,14.365,1.93,19.169c3.155,8.763,7.1,17.157,11.231,25.496
			c4.435,8.957,8.904,17.886,13.141,26.938c3.246,6.932,10.096,17.21,10.511,24.955c0.526,9.896,18.386,20.346,20.465,6.561
			c1.515-10.032-6.086-18.532-15.782-20.054c-10.25-1.607-5.156,14.464-3.615,18.483c5.616-1.953,11.23-3.904,16.846-5.857
			c-4.993-7.137-8.135-16.507-12.313-24.204c-4.827-8.891-9.826-17.681-14.52-26.645c-4.408-8.429-8.748-16.92-12.689-25.581
			c-2.721-5.979-4.551-14.727-9.937-18.833C506.142,851.681,504.046,850.917,502.431,852.441z"/>
		<path fill="#010101" d="M566.088,979.752c2.739,1.067-3.197-2.094,1.682,0.946c0.781,0.541,1.629,0.967,2.535,1.271
			c1.4,0.535,2.816,1.033,4.198,1.622c3.135,1.329,6.26,2.707,9.305,4.232c1.747,0.875,3.493,1.762,5.15,2.796
			c0.603,0.366,1.196,0.746,1.781,1.143c-0.948-0.687-0.963-0.671-0.045,0.045c0.948,0.878,0.832,0.713-0.344-0.496
			c0.688,0.956,1.472,1.828,2.353,2.619c2.814,2.049-3.944-4.878-2.294-7.367c-3.354,5.055,1.885,12.534,7.711,12.521
			c5.938-0.011,10.768-3.413,9.481-9.973c-1.228-6.289-7.535-10.64-13.047-13.121c-9.443-4.246-21.383-8.949-31.368-4.69
			C558.725,973.203,563.65,978.802,566.088,979.752z"/>
		<path fill="#010101" d="M550.871,989.184c4.785,4.377,9.471,9.354,12.987,14.833c3.433,5.35,0.825,8.434,0.895,14.164
			c0.064,5.086,5.137,9.992,10.368,9.097c12.678-2.17,9.015-17.555,4.189-25.25c-5.735-9.145-14.495-15.474-24.05-20.161
			C549.43,979.009,546.429,985.121,550.871,989.184z"/>
		<path fill="#010101" d="M531.596,994.824c-0.721,6.383,0.838,13.753,0.959,20.276c0.105,5.7-2.006,12.141-0.883,17.631
			c1.059,5.182,7.917,10.501,13.184,7.661c6.696-3.613,5.807-15.513,4.525-21.893c-1.596-7.961-3.623-17.542-8.601-24.126
			C538.564,991.445,532.187,989.614,531.596,994.824z"/>
		<path fill="#010101" d="M526.19,987.456c2.649-3.091-1.582-8.429-5.088-8.272c-14.909,0.664-25.5,17.736-21.296,31.75
			c1.668,5.56,11.189,12.469,14.972,4.821c2.595-5.245,2.129-11.155,4.173-16.593C520.707,994.483,522.961,991.224,526.19,987.456
			L526.19,987.456z"/>
		<path fill="#010101" d="M489.368,881.133c-2.282-3.704-8.686-2.532-6.722,2.339c5.22,12.939,11.585,25.366,17.205,38.133
			c4.921,11.175,12.557,26.58,10.416,39.174c-1.704,10.015,17.347,18.667,19.461,6.238c0.38-2.24-0.081-4.671-0.499-6.865
			c-1.15-6.052-16.102-15.944-18.221-5.873c-0.649,3.076-1.033,5.708-0.544,8.844c1.609,10.313,21.156,14.949,19.066,1.546
			C524.647,933.385,505.579,907.426,489.368,881.133L489.368,881.133z"/>
		<path fill="#010101" d="M71.606,865.121c1.126-2.045-2.611-4.646-4.238-3.029c-11.309,11.201-22.075,22.526-32.133,34.89
			c-5.419,6.659-10.806,13.355-15.849,20.306c-3.67,5.058-7.956,14.688-13.749,17.517c-2.107,1.028-3.421,3.445-3.487,5.736
			c-0.466,16.042-0.715,32.084-0.935,48.133c7.518,2.412,15.039,4.823,22.555,7.231c-0.639-8.766-2.695-16.849-9.397-22.898
			c-2.271-2.049-5.925-3.344-8.819-1.834c-8.086,4.216-4.851,12.795-4.11,20.221c0.997,10.038,22.508,17.955,22.325,4.512
			c-0.166-12.331-0.249-24.663-0.601-36.989c-0.19-6.693-1.363-13.805,1.969-19.941c3.202-5.895,6.622-11.665,10.251-17.31
			C47.544,902.765,60.751,884.83,71.606,865.121L71.606,865.121z"/>
		<path fill="#010101" d="M-17.432,962.266c-3.198,9.081-8.404,17.488-14.684,24.771c-5.685,6.59-12.913,10.704-18.872,16.723
			c-6.454,6.521,5.121,17.467,12.088,15.845c9.765-2.266,18.224-13.417,23.164-21.541c6.156-10.123,10.346-20.838,7.731-32.763
			C-8.734,961.98-15.655,957.226-17.432,962.266z"/>
		<path fill="#010101" d="M-39.486,956.03c-8.375,4.902-15.995,12.07-22.813,18.92c-3.766,3.784-7.606,7.495-11.346,11.304
			c-4.042,4.114-5.642,5.947-4.736,11.814c0.572,3.721,4.473,6.673,8.037,7.053c10.026,1.073,16.187-11.222,21.482-18.376
			c5.604-7.578,11.478-14.791,17.395-22.114C-28.061,960.419-35.078,953.455-39.486,956.03z"/>
		<path fill="#010101" d="M-44.899,938.255c-6.417,0.642-13.91,3.91-18.982,7.884c-5.516,4.318-12.411,9.271-12.761,16.849
			c-0.301,6.412,7.28,11.991,13.199,9.491c5.585-2.354,9.354-9.565,13.632-13.792c3.911-3.861,8.436-6.847,12.495-10.489
			C-32.682,944.034-40.957,937.865-44.899,938.255z"/>
		<path fill="#010101" d="M62.852,840.862c1.663-3.912-4.467-8.133-7.573-5.405c-19.141,16.797-38.464,33.474-57.162,50.772
			c-9.265,8.573-18.939,17.293-26.477,27.484c-6.276,8.481-11.043,15.679-4.091,25.521c3.323,4.708,13.005,8.346,15.982,1.296
			c-0.956,2.26,1.604-2.216,2.049-3.115c0.654-1.321,0.23-3.505,0.77-4.618c1.947-4.007,4.506-7.64,7.224-11.165
			c7.923-10.28,16.7-19.887,25.592-29.333c9.311-9.89,18.874-19.543,27.891-29.707C53.021,855.871,59.294,849.228,62.852,840.862
			L62.852,840.862z"/>
		<path fill="#010101" d="M326.017,195.618c5.271,6.205,12.502,10.217,17.793,16.444c4.531,5.33,8.809,11.134,11.783,17.503
			c6.478,13.865,6.166,28.144,8.774,42.886c1.843,10.436,19.287,20.303,25.458,8.203c9.807-19.218-0.56-45.262-11.202-62.037
			c-9.011-14.198-29.365-35.389-47.846-34.946C324.099,183.832,321.696,190.534,326.017,195.618z"/>
		<path fill="#010101" d="M299.273,203.846c-10.572-2.702-9.122,9.112-2.792,13.469c10.261,7.062,16.492,22.461,19.151,34.09
			c3.095,13.528,1.875,29.244,8.642,41.582c3.601,6.569,13.703,13.535,20.429,6.699c12.962-13.17,3.071-42.42-3.153-56.805
			C333.312,223.846,319.622,209.044,299.273,203.846L299.273,203.846z"/>
		<path fill="#010101" d="M264.519,233.454c1.77,15.493-1.127,30.919,0.891,46.213c1.705,12.958,27.838,23.859,29.276,5.916
			c1.391-17.409-6.873-36.802-12.757-52.942C278.844,224.175,263.184,221.788,264.519,233.454z"/>
	</g>
</g>
</svg>
