<?xml version="1.0" encoding="utf-8"?>
<!-- Generator: Adobe Illustrator 15.1.0, SVG Export Plug-In . SVG Version: 6.00 Build 0)  -->
<!DOCTYPE svg PUBLIC "-//W3C//DTD SVG 1.1//EN" "http://www.w3.org/Graphics/SVG/1.1/DTD/svg11.dtd">
<svg version="1.1" xmlns="http://www.w3.org/2000/svg" xmlns:xlink="http://www.w3.org/1999/xlink" x="0px" y="0px" width="1024px"
	 height="1024px" viewBox="0 0 1024 1024" enable-background="new 0 0 1024 1024" xml:space="preserve">
<g id="Layer_7" display="none">
	<g display="inline">
		<path d="M994.904,521.357c0.018,15.985-0.752,31.979-2.265,47.898c-1.47,15.926-3.771,31.772-6.756,47.49
			c-6.003,31.433-15.03,62.306-26.918,92.085c-11.902,29.77-26.658,58.455-44.105,85.474c-17.456,27.01-37.556,52.381-60.012,75.549
			c-22.49,23.125-47.236,44.151-73.941,62.412c-13.34,9.146-27.169,17.587-41.369,25.358c-14.229,7.719-28.83,14.771-43.771,21.026
			c-29.88,12.515-61.046,21.993-92.846,28.204c-31.805,6.226-64.194,9.19-96.59,8.927c-32.312-0.284-64.655-3.751-96.258-10.396
			c-31.607-6.672-62.513-16.473-92.11-29.208c-59.24-25.426-113.14-62.532-158.329-108.104
			c-22.596-22.795-43.01-47.729-60.889-74.372c-8.931-13.327-17.223-27.083-24.849-41.201
			c-7.601-14.131-14.563-28.611-20.797-43.405c-6.23-14.795-11.731-29.902-16.473-45.249c-4.779-15.335-8.82-30.908-12.074-46.652
			c-6.483-31.495-10.002-63.612-10.333-95.852c-0.735-64.369,11.066-129.188,35.458-189.144
			c24.245-60.01,60.785-115.045,106.435-161.082c22.82-23.027,47.895-43.846,74.786-62.01
			c26.898-18.153,55.595-33.668,85.554-46.214c29.946-12.579,61.188-22.084,93.055-28.429c31.871-6.332,64.372-9.452,96.846-9.403
			c64.947,0.079,129.913,13.08,189.667,38.394c14.94,6.316,29.538,13.418,43.757,21.19c14.196,7.816,28.013,16.305,41.344,25.487
			c26.682,18.339,51.419,39.402,73.885,62.573c22.445,23.199,42.53,48.596,59.984,75.618c17.444,27.033,32.198,55.729,44.098,85.51
			c11.886,29.79,20.903,60.675,26.887,92.117c2.979,15.723,5.262,31.574,6.72,47.502
			C994.19,489.375,994.939,505.367,994.904,521.357z M993.304,521.355c-0.04-15.938-0.827-31.873-2.422-47.728
			c-1.633-15.85-3.992-31.625-7.212-47.223c-6.403-31.201-15.988-61.727-28.567-90.921
			c-25.108-58.438-62.19-111.387-107.617-155.261c-45.412-43.932-99.188-78.815-157.404-102.45
			c-29.108-11.819-59.335-20.836-90.151-26.792c-30.818-5.929-62.196-8.921-93.578-8.833c-31.38,0.052-62.741,3.093-93.514,9.162
			c-30.776,6.042-60.946,15.139-89.983,27.025c-58.073,23.805-111.379,59.232-156.049,103.475
			c-44.691,44.235-80.65,97.3-105.266,155.307c-6.165,14.497-11.615,29.304-16.322,44.352c-4.735,15.04-8.742,30.317-11.98,45.767
			c-6.483,30.905-9.896,62.46-10.258,94.134c-0.754,63.249,10.991,126.893,35.139,185.645
			c23.958,58.816,60.041,112.703,105.166,157.41c45.083,44.77,99.283,80.162,158.06,103.598
			c58.788,23.501,122,35.021,185.029,34.414c15.708-0.131,31.473-1.005,47.119-2.598c15.651-1.624,31.228-3.946,46.648-7.039
			c30.844-6.177,61.09-15.301,90.193-27.25c58.206-23.883,111.929-58.896,157.307-102.903
			c45.399-43.939,82.479-96.907,107.584-155.366c12.576-29.204,22.152-59.743,28.537-90.953c3.211-15.603,5.554-31.384,7.175-47.236
			C992.515,553.231,993.281,537.298,993.304,521.355z"/>
	</g>
	<g display="inline">
		<circle fill="#010101" cx="504.509" cy="526.651" r="12.49"/>
		<path d="M517.049,526.652c-0.001,3.271-1.183,6.592-3.485,9.053c-1.138,1.231-2.543,2.238-4.105,2.894
			c-1.557,0.672-3.264,0.964-4.949,0.957c-1.688-0.036-3.363-0.422-4.887-1.106c-1.523-0.69-2.902-1.666-4.067-2.844
			c-2.314-2.371-3.739-5.601-3.81-8.954c-0.115-3.345,1.205-6.752,3.6-9.164c2.367-2.439,5.736-3.892,9.178-3.842
			c3.383-0.022,6.792,1.451,9.052,3.941C515.871,520.056,517.06,523.377,517.049,526.652z M516.949,526.65
			c0.021-3.275-1.486-6.457-3.841-8.599c-2.352-2.161-5.445-3.384-8.612-3.375c-3.11,0.019-6.241,1.263-8.486,3.476
			c-2.257,2.199-3.633,5.292-3.717,8.499c-0.102,3.198,1.17,6.468,3.507,8.709c2.296,2.293,5.558,3.45,8.709,3.367
			c3.171-0.038,6.258-1.313,8.61-3.466C515.468,533.11,516.981,529.931,516.949,526.65z"/>
	</g>
	<g display="inline">
		<path d="M44.808,528.115c2.264-0.886,4.527-1.47,6.791-1.962c2.264-0.485,4.527-0.835,6.791-1.093s4.527-0.429,6.791-0.498
			c2.264-0.115,4.527-0.039,6.791,0.25c4.527,0.579,9.055,2.037,13.582,2.302c4.527,0.308,9.054-0.146,13.582-1.013
			c2.264-0.411,4.527-0.854,6.791-1.157c2.264-0.316,4.527-0.461,6.791-0.632c4.527-0.345,9.054-0.7,13.582-0.553
			c4.527,0.156,9.054,0.572,13.581,1.25c4.527,0.691,9.054,1.578,13.582,3.105v0.9c-4.527,1.527-9.054,2.414-13.582,3.105
			c-4.527,0.678-9.054,1.094-13.581,1.25c-4.527,0.147-9.055-0.208-13.582-0.553c-2.264-0.171-4.527-0.315-6.791-0.632
			c-2.263-0.303-4.527-0.746-6.791-1.157c-4.527-0.867-9.054-1.32-13.582-1.013c-4.527,0.265-9.054,1.723-13.582,2.302
			c-2.263,0.289-4.527,0.365-6.791,0.25c-2.264-0.069-4.527-0.24-6.791-0.498s-4.527-0.607-6.791-1.093
			c-2.263-0.492-4.527-1.076-6.791-1.962V528.115z"/>
	</g>
	<g display="inline">
		<path d="M98.757,340.315c1.234-0.411,2.344-0.548,3.415-0.601c1.068-0.046,2.081,0.03,3.054,0.191
			c0.975,0.159,1.913,0.399,2.812,0.723c0.906,0.311,1.756,0.743,2.495,1.42c1.494,1.318,2.626,3.431,4.248,4.468
			c1.605,1.073,3.532,1.44,5.624,1.445c1.038,0.021,2.089,0.012,3.082,0.131c0.999,0.107,1.925,0.371,2.864,0.61
			c1.876,0.479,3.76,0.94,5.434,1.864c1.674,0.924,3.227,2.112,4.684,3.511c1.448,1.42,2.815,3.016,3.916,5.196l-0.373,0.819
			c-2.368,0.601-4.469,0.617-6.491,0.457c-2.012-0.181-3.928-0.573-5.723-1.229c-1.795-0.656-3.38-1.775-4.973-2.876
			c-0.796-0.551-1.604-1.077-2.34-1.76c-0.742-0.67-1.425-1.469-2.122-2.238c-1.377-1.575-2.919-2.788-4.783-3.294
			c-1.847-0.543-4.184-0.011-6.159-0.272c-0.996-0.112-1.88-0.47-2.709-0.95c-0.834-0.466-1.631-1.016-2.391-1.646
			c-0.761-0.629-1.483-1.343-2.149-2.179c-0.664-0.842-1.289-1.77-1.789-2.97L98.757,340.315z"/>
	</g>
	<g display="inline">
		<path d="M274.372,143.682c1.294,0.424,2.331,1.003,3.288,1.632c0.952,0.631,1.788,1.333,2.545,2.083
			c0.758,0.749,1.44,1.544,2.044,2.387c0.617,0.835,1.119,1.74,1.391,2.785c0.578,2.069,0.41,4.591,1.252,6.499
			c0.808,1.929,2.28,3.455,4.09,4.774c0.889,0.67,1.805,1.323,2.601,2.049c0.808,0.719,1.467,1.528,2.151,2.323
			c1.366,1.589,2.749,3.169,3.697,5.012c0.949,1.843,1.649,3.838,2.151,5.952c0.483,2.127,0.8,4.354,0.569,6.915l-0.77,0.468
			c-2.38-0.974-4.21-2.28-5.876-3.688c-1.646-1.42-3.094-2.959-4.293-4.65c-1.2-1.69-1.965-3.646-2.747-5.59
			c-0.391-0.973-0.805-1.931-1.071-2.979c-0.278-1.041-0.437-2.155-0.622-3.251c-0.337-2.215-1.014-4.224-2.354-5.829
			c-1.306-1.626-3.622-2.639-5.192-4.104c-0.802-0.723-1.375-1.585-1.832-2.517c-0.471-0.924-0.862-1.896-1.178-2.914
			c-0.317-1.017-0.555-2.083-0.678-3.218c-0.117-1.139-0.154-2.326,0.065-3.669L274.372,143.682z"/>
	</g>
	<g display="inline">
		<path d="M709.364,135.268c0.219,1.283,0.186,2.4,0.074,3.467c-0.117,1.063-0.346,2.052-0.653,2.99
			c-0.306,0.939-0.686,1.829-1.144,2.669c-0.444,0.848-1.001,1.623-1.783,2.25c-1.53,1.275-3.79,2.073-5.062,3.518
			c-1.306,1.423-1.961,3.272-2.285,5.338c-0.179,1.022-0.33,2.063-0.599,3.026c-0.258,0.97-0.66,1.846-1.039,2.737
			c-0.759,1.781-1.501,3.573-2.669,5.087c-1.168,1.513-2.579,2.867-4.183,4.095c-1.624,1.214-3.409,2.323-5.732,3.079l-0.752-0.493
			c-0.233-2.432,0.07-4.511,0.536-6.485c0.485-1.96,1.164-3.794,2.086-5.469c0.922-1.675,2.269-3.07,3.6-4.477
			c0.666-0.703,1.309-1.421,2.096-2.044c0.775-0.631,1.669-1.185,2.535-1.757c1.766-1.121,3.199-2.46,3.983-4.225
			c0.818-1.743,0.647-4.133,1.207-6.046c0.263-0.967,0.751-1.787,1.351-2.533c0.588-0.754,1.253-1.458,1.991-2.113
			c0.737-0.656,1.553-1.261,2.481-1.792c0.934-0.527,1.944-1.004,3.208-1.315L709.364,135.268z"/>
	</g>
	<g display="inline">
		<path d="M876.978,338.767c-0.616,1.214-1.347,2.151-2.113,3.001c-0.769,0.844-1.59,1.564-2.446,2.198
			c-0.855,0.635-1.745,1.189-2.67,1.658c-0.92,0.482-1.891,0.84-2.965,0.95c-2.132,0.256-4.6-0.293-6.613,0.249
			c-2.029,0.505-3.761,1.728-5.34,3.316c-0.798,0.776-1.583,1.582-2.422,2.258c-0.833,0.688-1.733,1.218-2.622,1.772
			c-1.779,1.108-3.551,2.235-5.517,2.892c-1.967,0.657-4.045,1.045-6.211,1.22c-2.175,0.153-4.425,0.128-6.92-0.491l-0.346-0.831
			c1.324-2.204,2.895-3.815,4.54-5.247c1.653-1.411,3.396-2.607,5.249-3.536c1.854-0.929,3.902-1.388,5.943-1.865
			c1.021-0.238,2.03-0.501,3.106-0.605c1.071-0.117,2.196-0.104,3.309-0.12c2.241,0.004,4.329-0.359,6.12-1.44
			c1.806-1.043,3.158-3.178,4.846-4.507c0.836-0.683,1.775-1.117,2.766-1.427c0.985-0.324,2.006-0.563,3.06-0.721
			c1.054-0.159,2.143-0.231,3.284-0.18c1.143,0.058,2.322,0.201,3.616,0.623L876.978,338.767z"/>
	</g>
	<g display="inline">
		<path d="M889.035,734.9c-1.234,0.411-2.344,0.548-3.415,0.601c-1.068,0.047-2.081-0.029-3.055-0.19
			c-0.975-0.159-1.912-0.399-2.812-0.724c-0.906-0.311-1.756-0.743-2.495-1.42c-1.493-1.319-2.626-3.431-4.248-4.468
			c-1.605-1.074-3.532-1.44-5.624-1.446c-1.038-0.021-2.089-0.012-3.082-0.131c-0.998-0.107-1.925-0.371-2.863-0.61
			c-1.876-0.479-3.761-0.939-5.434-1.863c-1.674-0.924-3.228-2.112-4.685-3.511c-1.447-1.42-2.814-3.017-3.916-5.197l0.373-0.818
			c2.368-0.601,4.47-0.617,6.491-0.457c2.012,0.182,3.928,0.573,5.723,1.229c1.796,0.656,3.38,1.775,4.973,2.876
			c0.797,0.551,1.604,1.077,2.34,1.76c0.742,0.671,1.426,1.47,2.122,2.239c1.377,1.574,2.919,2.787,4.782,3.294
			c1.848,0.543,4.185,0.011,6.159,0.272c0.996,0.112,1.88,0.47,2.709,0.949c0.835,0.466,1.632,1.017,2.392,1.646
			c0.761,0.629,1.482,1.343,2.149,2.18c0.663,0.843,1.288,1.77,1.788,2.971L889.035,734.9z"/>
	</g>
	<g display="inline">
		<path d="M713.419,931.53c-1.294-0.423-2.33-1.003-3.287-1.631c-0.952-0.632-1.788-1.333-2.545-2.083
			c-0.759-0.749-1.441-1.544-2.045-2.387c-0.616-0.836-1.118-1.74-1.391-2.785c-0.577-2.069-0.41-4.591-1.252-6.499
			c-0.809-1.929-2.28-3.454-4.091-4.773c-0.889-0.67-1.805-1.322-2.601-2.049c-0.808-0.719-1.467-1.527-2.151-2.322
			c-1.365-1.59-2.748-3.169-3.697-5.012c-0.948-1.844-1.648-3.838-2.151-5.952c-0.482-2.127-0.8-4.354-0.568-6.915l0.77-0.467
			c2.38,0.973,4.211,2.28,5.876,3.688c1.646,1.419,3.094,2.959,4.294,4.649c1.199,1.691,1.965,3.646,2.747,5.59
			c0.391,0.973,0.805,1.932,1.071,2.979c0.278,1.04,0.437,2.154,0.622,3.252c0.337,2.214,1.014,4.223,2.354,5.828
			c1.306,1.626,3.621,2.639,5.192,4.104c0.802,0.723,1.374,1.585,1.832,2.517c0.47,0.924,0.861,1.896,1.178,2.914
			c0.317,1.017,0.555,2.082,0.678,3.218c0.116,1.139,0.154,2.326-0.065,3.67L713.419,931.53z"/>
	</g>
	<g display="inline">
		<path d="M278.428,939.944c-0.218-1.282-0.185-2.399-0.074-3.466c0.117-1.063,0.346-2.052,0.653-2.99
			c0.306-0.938,0.686-1.829,1.143-2.669c0.445-0.848,1.001-1.622,1.783-2.249c1.531-1.275,3.791-2.073,5.062-3.519
			c1.306-1.423,1.961-3.271,2.285-5.339c0.179-1.021,0.33-2.062,0.599-3.025c0.258-0.97,0.66-1.846,1.039-2.737
			c0.759-1.781,1.501-3.573,2.669-5.086c1.167-1.514,2.578-2.868,4.182-4.095c1.624-1.215,3.409-2.323,5.732-3.08l0.753,0.494
			c0.233,2.432-0.071,4.511-0.537,6.484c-0.485,1.96-1.164,3.794-2.086,5.469s-2.269,3.07-3.599,4.477
			c-0.666,0.703-1.309,1.422-2.096,2.045c-0.776,0.631-1.669,1.185-2.535,1.756c-1.766,1.122-3.2,2.461-3.984,4.226
			c-0.818,1.742-0.647,4.133-1.206,6.046c-0.263,0.967-0.751,1.786-1.351,2.532c-0.588,0.754-1.252,1.458-1.991,2.113
			c-0.738,0.655-1.553,1.261-2.481,1.792c-0.934,0.527-1.945,1.004-3.208,1.315L278.428,939.944z"/>
	</g>
	<g display="inline">
		<path d="M110.815,736.447c0.615-1.214,1.346-2.15,2.113-3.001c0.769-0.844,1.59-1.564,2.446-2.198
			c0.855-0.635,1.745-1.188,2.67-1.657c0.919-0.482,1.89-0.841,2.964-0.95c2.133-0.256,4.6,0.293,6.613-0.249
			c2.03-0.505,3.761-1.728,5.341-3.316c0.797-0.775,1.582-1.582,2.421-2.258c0.834-0.688,1.734-1.218,2.623-1.772
			c1.779-1.108,3.55-2.235,5.517-2.892c1.966-0.657,4.044-1.046,6.21-1.221c2.175-0.153,4.425-0.128,6.92,0.49l0.345,0.832
			c-1.324,2.204-2.895,3.814-4.539,5.246c-1.654,1.411-3.396,2.607-5.25,3.536s-3.902,1.387-5.943,1.864
			c-1.021,0.238-2.031,0.502-3.107,0.605c-1.071,0.116-2.196,0.104-3.309,0.12c-2.24-0.004-4.329,0.359-6.119,1.439
			c-1.806,1.043-3.159,3.178-4.846,4.508c-0.836,0.683-1.775,1.116-2.766,1.428c-0.985,0.324-2.005,0.563-3.06,0.72
			c-1.054,0.159-2.143,0.232-3.284,0.181c-1.144-0.059-2.323-0.202-3.617-0.623L110.815,736.447z"/>
	</g>
	<g display="inline">
		<path d="M955.927,529.015c-2.264,0.886-4.527,1.47-6.791,1.962c-2.264,0.485-4.526,0.835-6.79,1.093s-4.527,0.429-6.791,0.498
			c-2.264,0.115-4.527,0.039-6.791-0.25c-4.527-0.579-9.054-2.037-13.581-2.302c-4.527-0.308-9.055,0.146-13.581,1.013
			c-2.264,0.411-4.527,0.854-6.791,1.157c-2.264,0.316-4.527,0.461-6.791,0.632c-4.527,0.345-9.054,0.7-13.581,0.553
			c-4.527-0.156-9.055-0.572-13.582-1.25c-4.526-0.691-9.054-1.578-13.581-3.105v-0.9c4.527-1.527,9.055-2.414,13.581-3.105
			c4.527-0.678,9.055-1.094,13.582-1.25c4.527-0.147,9.054,0.208,13.581,0.553c2.264,0.171,4.527,0.315,6.791,0.632
			c2.264,0.303,4.527,0.746,6.791,1.157c4.526,0.867,9.054,1.32,13.581,1.013c4.527-0.265,9.054-1.723,13.581-2.302
			c2.264-0.289,4.527-0.365,6.791-0.25c2.264,0.069,4.527,0.24,6.791,0.498s4.526,0.607,6.79,1.093
			c2.264,0.492,4.527,1.076,6.791,1.962V529.015z"/>
	</g>
	<g display="inline">
		<path d="M505.474,59.036c0.885,2.264,1.47,4.527,1.962,6.791c0.485,2.264,0.835,4.527,1.092,6.791
			c0.258,2.264,0.429,4.527,0.499,6.791c0.115,2.264,0.039,4.527-0.25,6.791c-0.58,4.527-2.038,9.055-2.302,13.582
			c-0.308,4.527,0.145,9.054,1.012,13.582c0.411,2.264,0.854,4.527,1.158,6.791c0.316,2.264,0.46,4.527,0.632,6.791
			c0.344,4.527,0.699,9.054,0.553,13.582c-0.157,4.527-0.573,9.054-1.25,13.581c-0.692,4.527-1.578,9.054-3.106,13.582h-0.9
			c-1.528-4.527-2.414-9.054-3.106-13.582c-0.677-4.527-1.093-9.054-1.25-13.581c-0.146-4.527,0.208-9.055,0.553-13.582
			c0.172-2.264,0.315-4.527,0.632-6.791c0.303-2.263,0.747-4.527,1.158-6.791c0.867-4.527,1.32-9.054,1.012-13.582
			c-0.264-4.527-1.722-9.054-2.302-13.582c-0.289-2.263-0.365-4.527-0.25-6.791c0.07-2.264,0.241-4.527,0.499-6.791
			c0.257-2.264,0.607-4.527,1.092-6.791c0.492-2.263,1.077-4.527,1.962-6.791H505.474z"/>
	</g>
	<g display="inline">
		<path d="M504.574,970.156c-0.885-2.264-1.47-4.527-1.962-6.791c-0.485-2.264-0.835-4.526-1.092-6.79
			c-0.258-2.264-0.429-4.527-0.499-6.791c-0.115-2.264-0.039-4.527,0.25-6.791c0.58-4.527,2.038-9.054,2.302-13.581
			c0.308-4.527-0.145-9.055-1.012-13.582c-0.411-2.263-0.854-4.526-1.158-6.79c-0.316-2.264-0.46-4.527-0.632-6.791
			c-0.344-4.527-0.699-9.054-0.553-13.581c0.157-4.527,0.573-9.055,1.25-13.582c0.692-4.526,1.578-9.054,3.106-13.581h0.9
			c1.528,4.527,2.414,9.055,3.106,13.581c0.677,4.527,1.093,9.055,1.25,13.582c0.146,4.527-0.208,9.054-0.553,13.581
			c-0.172,2.264-0.315,4.527-0.632,6.791c-0.303,2.264-0.747,4.527-1.158,6.79c-0.867,4.527-1.32,9.055-1.012,13.582
			c0.264,4.527,1.722,9.054,2.302,13.581c0.289,2.264,0.365,4.527,0.25,6.791c-0.07,2.264-0.241,4.527-0.499,6.791
			c-0.257,2.264-0.607,4.526-1.092,6.79c-0.492,2.264-1.077,4.527-1.962,6.791H504.574z"/>
	</g>
</g>
<g id="Layer_2" display="none">
	<g display="inline">
		<path d="M552.742,237.927c1.898,11.615,2.797,23.23,3.395,34.846c0.287,5.808,0.477,11.615,0.554,17.423
			c0.12,5.807,0.049,11.615-0.277,17.422c-0.648,11.615-2.257,23.23-2.558,34.846c-0.173,5.808-0.123,11.615,0.07,17.423
			c0.189,5.808,0.617,11.615,1.055,17.422l0.674,8.711l0.335,4.356l0.267,4.355c0.373,5.808,0.518,11.615,0.713,17.423
			c0.203,5.808,0.36,11.615,0.498,17.423c0.171,5.808,0.169,11.615,0.115,17.423c-0.18,11.615-0.622,23.23-1.402,34.845
			c-0.156,2.904-0.402,5.808-0.625,8.711c-0.209,2.904-0.473,5.808-0.755,8.711c-0.546,5.808-1.185,11.615-2.058,17.423h-1
			c-0.871-5.808-1.51-11.616-2.057-17.423c-0.283-2.904-0.546-5.808-0.754-8.711c-0.224-2.904-0.47-5.808-0.627-8.711
			c-0.779-11.615-1.222-23.23-1.402-34.845c-0.053-5.808-0.055-11.615,0.116-17.423c0.138-5.808,0.295-11.615,0.498-17.423
			c0.195-5.808,0.34-11.615,0.713-17.423l0.267-4.355l0.334-4.356l0.676-8.711c0.438-5.808,0.865-11.615,1.055-17.422
			c0.192-5.808,0.242-11.615,0.069-17.423c-0.302-11.615-1.909-23.23-2.558-34.846c-0.326-5.808-0.396-11.615-0.277-17.422
			c0.076-5.808,0.268-11.615,0.554-17.423c0.598-11.615,1.496-23.23,3.394-34.846H552.742z"/>
	</g>
	<g display="inline">
		<path d="M680.382,386.992c-1.953,3.417-4.146,6.601-6.411,9.712c-2.272,3.106-4.651,6.108-7.104,9.038
			c-2.452,2.931-4.974,5.794-7.576,8.578c-2.572,2.813-5.28,5.495-8.173,7.998c-5.776,5.012-12.253,9.343-17.779,14.599
			c-5.561,5.223-10.516,11.035-15.141,17.168c-2.334,3.046-4.629,6.129-7.061,9.081c-2.391,2.991-4.944,5.822-7.462,8.689
			c-5.042,5.728-10.075,11.464-15.507,16.811c-5.441,5.34-11.088,10.479-16.943,15.414c-2.93,2.466-5.898,4.893-8.972,7.22
			c-3.05,2.35-6.165,4.635-9.448,6.756l-0.717-0.697c2.033-3.338,4.234-6.514,6.5-9.626c2.242-3.135,4.588-6.169,6.975-9.164
			c4.776-5.986,9.762-11.769,14.952-17.352c5.198-5.575,10.798-10.761,16.387-15.955c2.798-2.594,5.56-5.224,8.484-7.694
			c2.886-2.51,5.905-4.888,8.888-7.302c6.006-4.789,11.682-9.899,16.753-15.599c5.105-5.666,9.26-12.256,14.114-18.167
			c2.424-2.958,5.031-5.738,7.774-8.385c2.714-2.677,5.508-5.275,8.371-7.805c2.862-2.531,5.799-4.99,8.844-7.345
			c3.049-2.349,6.173-4.627,9.535-6.671L680.382,386.992z"/>
	</g>
</g>
<g id="Layer_3" display="none">
	<g display="inline">
		<path d="M316.231,256.079c6.265-7.05,13.199-13.485,20.621-19.386c3.713-2.949,7.563-5.755,11.616-8.303
			c4.044-2.557,8.249-4.943,12.755-6.847c4.494-1.903,9.263-3.474,14.418-4.017c2.572-0.25,5.242-0.232,7.921,0.232
			c2.675,0.453,5.344,1.401,7.741,2.827c2.399,1.421,4.515,3.288,6.213,5.39c1.699,2.104,3.064,4.39,4.114,6.748
			c2.124,4.715,3.22,9.613,3.861,14.454c1.205,9.71,0.678,19.279-0.329,28.69c-0.527,4.707-1.142,9.386-1.886,14.039
			c-0.701,4.657-1.488,9.294-2.326,13.917c-1.639,9.251-3.393,18.47-5.252,27.67c-1.871,9.212-3.846,18.365-5.406,27.561
			c-1.609,9.196-2.897,18.432-4.006,27.646c-1.067,9.215-1.924,18.438-2.029,27.589c-0.048,4.572,0.105,9.123,0.566,13.579
			c0.459,4.445,1.236,8.827,2.608,12.813c1.372,3.964,3.37,7.536,6.105,9.692c1.365,1.074,2.876,1.849,4.582,2.266
			c1.699,0.431,3.573,0.504,5.522,0.336c3.917-0.35,8.017-1.78,11.981-3.598c3.973-1.847,7.834-4.158,11.598-6.664
			c3.758-2.522,7.395-5.291,10.922-8.216c3.542-2.908,6.996-5.956,10.336-9.135c3.331-3.188,6.609-6.45,9.766-9.832
			c3.146-3.39,6.219-6.859,9.161-10.437c2.92-3.593,5.763-7.26,8.337-11.105c1.288-1.922,2.534-3.874,3.646-5.897
			c1.105-2.022,2.151-4.094,2.834-6.291L483,381.98c-0.82,4.741-2.846,9.127-4.986,13.353c-2.201,4.212-4.664,8.278-7.325,12.203
			c-2.647,3.937-5.462,7.759-8.435,11.458c-2.964,3.706-6.042,7.33-9.297,10.799c-3.247,3.478-6.607,6.863-10.138,10.095
			c-3.546,3.212-7.237,6.292-11.136,9.165c-3.894,2.879-8.017,5.522-12.477,7.757c-4.457,2.221-9.297,4.054-14.723,4.668
			c-2.705,0.297-5.579,0.196-8.431-0.501c-2.846-0.689-5.631-2.044-7.905-3.916c-2.292-1.86-4.088-4.132-5.481-6.481
			c-1.399-2.358-2.388-4.823-3.174-7.277c-1.549-4.923-2.26-9.854-2.645-14.724c-0.362-4.874-0.352-9.703-0.151-14.492
			c0.838-19.158,4.697-37.71,9.309-55.942c1.138-4.564,2.371-9.099,3.569-13.641l1.803-6.782l1.666-6.809
			c2.146-9.095,4.005-18.262,5.357-27.5c0.658-4.622,1.198-9.258,1.617-13.897c0.375-4.645,0.666-9.291,0.737-13.93
			c0.085-4.637,0.025-9.264-0.266-13.845c-0.275-4.579-0.759-9.12-1.592-13.523c-0.832-4.393-1.984-8.683-3.775-12.491
			c-1.782-3.803-4.244-7.064-7.483-9.036c-3.224-1.99-7.237-2.694-11.422-2.384c-4.19,0.277-8.5,1.42-12.683,2.993
			c-4.183,1.6-8.316,3.535-12.342,5.724c-4.017,2.207-7.969,4.599-11.851,7.126c-7.74,5.093-15.258,10.642-22.555,16.507
			L316.231,256.079z"/>
	</g>
	<g display="inline">
		<path d="M493.542,470.663c1.597,2.678,2.291,5.857,2.21,9.031c-0.075,3.182-0.846,6.388-2.168,9.354
			c-2.635,5.98-7.559,10.772-13.228,13.777c-5.714,3.015-12.149,4.325-18.418,4.331c-3.145-0.017-6.312-0.431-9.329-1.539
			c-2.985-1.124-5.857-3.033-7.784-5.856c-1.94-2.788-2.84-6.349-2.617-9.749c0.19-3.42,1.314-6.669,2.864-9.592
			c1.555-2.936,3.57-5.578,5.87-7.912c2.298-2.356,4.901-4.325,7.747-5.998c2.78-1.605,5.826-2.931,8.972-3.773
			c3.151-0.852,6.46-1.155,9.708-0.898c3.246,0.262,6.438,1.107,9.281,2.555C489.49,465.834,491.959,467.965,493.542,470.663z
			 M493.111,470.915c-1.546-2.596-4.153-4.423-6.972-5.274c-2.835-0.871-5.836-0.878-8.695-0.48
			c-2.873,0.402-5.646,1.211-8.328,2.198c-2.695,0.99-5.25,2.234-7.727,3.76c-4.81,2.975-9.256,6.842-12.206,11.635
			c-1.464,2.39-2.524,4.998-2.983,7.677c-0.441,2.667-0.262,5.454,0.977,7.929c1.201,2.471,3.406,4.521,6.079,5.688
			c2.66,1.21,5.686,1.648,8.647,1.497c2.975-0.147,5.895-0.927,8.622-2.058c2.73-1.138,5.288-2.607,7.693-4.24
			c4.802-3.275,9.136-7.097,12.596-11.77c1.69-2.346,3.104-4.996,3.68-7.914C495.075,476.668,494.692,473.502,493.111,470.915z"/>
	</g>
	<g display="inline">
		<path d="M694.697,249.827c9.655,2.976,19.015,6.859,28.072,11.448c4.528,2.298,8.978,4.792,13.268,7.592
			c4.294,2.79,8.491,5.812,12.355,9.333c3.857,3.512,7.513,7.434,10.332,12.181c1.384,2.38,2.549,4.968,3.285,7.756
			c0.739,2.781,1.032,5.764,0.729,8.706c-0.295,2.94-1.14,5.81-2.411,8.384c-1.271,2.578-2.869,4.915-4.678,6.985
			c-3.597,4.178-7.889,7.387-12.266,10.221c-8.862,5.553-18.392,9.36-27.981,12.643c-4.807,1.618-9.63,3.135-14.485,4.516
			c-4.842,1.422-9.703,2.75-14.575,4.02c-9.732,2.577-19.49,5.013-29.279,7.332c-9.804,2.314-19.603,4.484-29.26,7.079
			c-9.679,2.548-19.256,5.42-28.729,8.471c-9.457,3.089-18.827,6.397-27.797,10.408c-4.479,2.007-8.849,4.202-12.991,6.659
			c-4.135,2.45-8.067,5.183-11.355,8.331c-3.266,3.138-5.886,6.729-6.778,10.444c-0.443,1.854-0.518,3.722-0.147,5.611
			c0.354,1.889,1.14,3.777,2.195,5.621c2.134,3.698,5.394,7.062,8.966,10.111c3.604,3.045,7.604,5.766,11.749,8.298
			c4.158,2.521,8.499,4.812,12.94,6.924c4.434,2.133,8.962,4.113,13.565,5.926c4.608,1.8,9.265,3.511,13.982,5.049
			c4.722,1.526,9.485,2.94,14.297,4.18c4.816,1.211,9.67,2.309,14.576,3.066c2.451,0.379,4.914,0.702,7.385,0.863
			c2.468,0.155,4.956,0.229,7.402-0.108l0.164,0.783c-4.979,1.309-10.15,1.289-15.218,1.088c-5.082-0.265-10.138-0.851-15.147-1.688
			c-5.014-0.819-9.99-1.853-14.919-3.091c-4.931-1.229-9.832-2.604-14.664-4.218c-4.835-1.602-9.631-3.357-14.353-5.343
			c-4.71-2.009-9.356-4.218-13.892-6.719c-4.538-2.494-8.95-5.313-13.11-8.638c-4.145-3.327-8.081-7.194-11.088-12.151
			c-1.489-2.475-2.67-5.284-3.266-8.331c-0.602-3.036-0.535-6.306,0.251-9.318c0.767-3.024,2.151-5.761,3.794-8.151
			c1.648-2.399,3.585-4.456,5.604-6.314c4.065-3.701,8.523-6.604,13.073-9.166c4.564-2.542,9.256-4.705,13.996-6.665
			c18.981-7.806,38.747-12.436,58.542-16.204c4.948-0.958,9.911-1.812,14.865-2.698l7.407-1.311l7.373-1.451
			c9.813-2.014,19.568-4.333,29.17-7.164c4.795-1.433,9.552-2.985,14.26-4.655c4.693-1.713,9.35-3.509,13.904-5.513
			c4.559-1.99,9.044-4.117,13.383-6.451c4.345-2.316,8.555-4.83,12.489-7.61c3.942-2.753,7.578-5.865,10.514-9.331
			c2.921-3.469,5.014-7.377,5.498-11.483c0.519-4.103-0.657-8.388-2.874-12.336c-2.183-3.977-5.25-7.666-8.679-11.033
			c-3.452-3.355-7.21-6.502-11.163-9.429c-3.966-2.911-8.083-5.671-12.299-8.299c-8.458-5.217-17.259-10.002-26.271-14.413
			L694.697,249.827z"/>
	</g>
	<g display="inline">
		<path d="M565.68,518.823c-1.884,2.76-4.673,4.844-7.79,6.188c-3.134,1.322-6.587,1.997-10.055,2.021
			c-6.973,0.078-13.813-2.547-19.276-6.686c-5.501-4.161-9.702-9.788-12.533-15.869c-1.396-3.059-2.437-6.318-2.689-9.746
			c-0.237-3.409,0.321-7.013,2.229-10.17c1.813-3.073,4.878-5.544,8.26-6.829c3.394-1.333,7.038-1.693,10.56-1.495
			c7.07,0.429,13.844,2.995,19.545,6.967c2.843,2,5.465,4.334,7.706,7.003c2.237,2.67,4.03,5.727,5.263,8.977
			c1.225,3.254,1.851,6.722,1.756,10.129C568.532,512.713,567.594,516.073,565.68,518.823z M565.27,518.538
			c1.83-2.674,2.459-6.033,2.021-9.168c-0.393-3.16-1.723-6.1-3.377-8.727c-1.661-2.641-3.687-4.999-5.862-7.178
			c-2.169-2.188-4.566-4.147-7.134-5.854c-5.119-3.389-10.89-5.956-16.926-6.666c-3.002-0.344-6.038-0.195-8.871,0.583
			c-2.82,0.798-5.444,2.231-7.324,4.617c-1.835,2.268-2.843,5.385-2.765,8.511c0.045,3.14,0.961,6.288,2.442,9.109
			c1.504,2.821,3.525,5.35,5.858,7.505c2.326,2.165,4.904,4.008,7.573,5.638c5.355,3.224,11.06,5.731,17.192,6.947
			c3.057,0.564,6.284,0.73,9.376-0.06C560.561,523.056,563.46,521.237,565.27,518.538z"/>
	</g>
</g>
<g id="Layer_7_copy">
	<g>
		<path d="M748.904,644.357c-0.009,47.847-8.946,95.718-26.605,140.392c-8.819,22.333-19.753,43.888-32.721,64.216
			c-12.978,20.318-27.94,39.439-44.703,56.914c-16.797,17.433-35.293,33.322-55.308,47.104
			c-9.994,6.907-20.369,13.272-31.021,19.144c-10.68,5.817-21.639,11.144-32.861,15.856c-22.443,9.431-45.865,16.564-69.766,21.213
			c-23.907,4.662-48.244,6.85-72.589,6.586c-24.261-0.283-48.552-2.974-72.256-8.056c-23.708-5.11-46.871-12.565-69.031-22.216
			c-44.359-19.266-84.628-47.229-118.436-81.41c-33.825-34.184-61.1-74.766-79.842-119.086
			c-4.688-11.076-8.831-22.389-12.405-33.883c-3.612-11.482-6.676-23.145-9.149-34.939c-4.92-23.597-7.662-47.661-7.992-71.85
			c-0.721-48.266,7.916-96.979,26.125-142.063c18.084-45.129,45.483-86.534,79.741-121.189
			c17.126-17.334,35.951-33.016,56.152-46.702c20.208-13.674,41.774-25.367,64.294-34.829c22.509-9.494,46.008-16.654,69.976-21.437
			c23.972-4.768,48.421-7.112,72.844-7.062c48.844,0.094,97.705,9.93,142.586,29.061c11.222,4.774,22.177,10.15,32.848,16.021
			c10.646,5.915,21.009,12.329,30.994,19.271c19.99,13.86,38.478,29.787,55.25,47.265c16.753,17.506,31.701,36.652,44.677,56.983
			c12.965,20.343,23.896,41.908,32.713,64.251C740.073,548.609,748.98,596.506,748.904,644.357z M747.304,644.355
			c-0.04-11.912-0.633-23.821-1.838-35.669c-1.243-11.843-3.017-23.631-5.455-35.279c-4.842-23.303-12.081-46.085-21.575-67.842
			c-18.947-43.558-46.889-82.876-80.925-115.368C603.482,357.655,563.336,331.914,520,314.44
			c-21.671-8.734-44.155-15.406-67.072-19.8c-22.92-4.366-46.245-6.581-69.576-6.492c-46.663,0.048-93.228,9.2-136.416,26.854
			c-43.192,17.644-82.869,43.931-116.156,76.782c-33.301,32.853-60.118,72.288-78.573,115.414
			c-4.623,10.778-8.715,21.791-12.255,32.986c-3.567,11.186-6.598,22.554-9.055,34.054c-4.919,23.007-7.556,46.51-7.917,70.133
			c-0.739,47.146,7.84,94.684,25.806,138.563c17.798,43.936,44.739,84.192,78.473,117.518
			c33.701,33.378,74.271,59.63,118.167,76.904c21.948,8.645,44.711,15.101,67.849,19.254c11.571,2.059,23.22,3.641,34.92,4.596
			c11.707,0.984,23.414,1.331,35.179,1.231c46.856-0.476,93.554-9.809,136.88-27.554c43.325-17.723,83.418-43.594,117.414-76.21
			c34.009-32.558,61.946-71.895,80.891-115.474c9.491-21.768,16.722-44.563,21.545-67.874c2.43-11.653,4.188-23.446,5.418-35.292
			C746.709,668.179,747.282,656.272,747.304,644.355z"/>
	</g>
	<g>
		<circle fill="#010101" cx="381.974" cy="648.316" r="9.341"/>
		<path d="M391.364,648.317c-0.004,2.444-0.847,4.946-2.563,6.825c-1.681,1.902-4.269,3.01-6.827,2.93
			c-2.57-0.063-5-1.249-6.719-3.037c-1.743-1.777-2.816-4.188-2.895-6.727c-0.111-2.505,0.869-5.102,2.677-6.93
			c1.788-1.851,4.332-2.964,6.951-2.937c2.56,0.003,5.144,1.134,6.824,3.036C390.522,643.367,391.371,645.867,391.364,648.317z
			 M391.264,648.315c0.016-2.449-1.15-4.811-2.918-6.371c-1.769-1.576-4.046-2.461-6.386-2.436
			c-2.279,0.004-4.597,0.906-6.259,2.535c-1.67,1.62-2.707,3.884-2.795,6.278c-0.102,2.361,0.842,4.812,2.577,6.483
			c1.73,1.689,4.161,2.521,6.49,2.435c2.341-0.057,4.615-0.964,6.383-2.541C390.119,653.13,391.292,650.77,391.264,648.315z"/>
	</g>
	<g>
		<path d="M38.199,649.297c1.693-0.886,3.385-1.47,5.078-1.962c1.693-0.485,3.386-0.835,5.079-1.093
			c1.692-0.258,3.385-0.429,5.078-0.498c1.692-0.119,3.385-0.042,5.078,0.25c3.386,0.581,6.771,2.033,10.156,2.305
			c3.386,0.301,6.771-0.146,10.157-1.016c1.693-0.411,3.385-0.854,5.078-1.157c1.693-0.316,3.386-0.461,5.079-0.632
			c3.385-0.346,6.771-0.696,10.156-0.557c3.386,0.147,6.771,0.585,10.156,1.254c3.386,0.691,6.771,1.578,10.157,3.105v0.9
			c-3.385,1.527-6.771,2.414-10.157,3.105c-3.385,0.669-6.771,1.106-10.156,1.254c-3.386,0.14-6.771-0.211-10.156-0.557
			c-1.693-0.171-3.386-0.315-5.079-0.632c-1.693-0.303-3.385-0.746-5.078-1.157c-3.385-0.869-6.771-1.316-10.157-1.016
			c-3.385,0.271-6.771,1.724-10.156,2.305c-1.693,0.292-3.386,0.369-5.078,0.25c-1.693-0.069-3.386-0.24-5.078-0.498
			c-1.693-0.258-3.386-0.607-5.079-1.093c-1.693-0.492-3.385-1.076-5.078-1.962V649.297z"/>
	</g>
	<g>
		<path d="M78.59,508.866c2.005-0.963,3.637-1.109,5.157-1.007c0.761,0.049,1.472,0.207,2.156,0.424
			c0.687,0.211,1.319,0.544,1.839,1.122c1.056,1.12,1.751,3.033,2.936,3.871c1.168,0.874,2.658,1.041,4.312,0.848
			c0.819-0.079,1.651-0.188,2.426-0.168c0.78,0.008,1.488,0.172,2.208,0.312c1.44,0.276,2.887,0.538,4.122,1.267
			c1.236,0.724,2.352,1.713,3.372,2.912c0.507,0.606,0.993,1.259,1.426,2.028c0.445,0.743,0.855,1.562,1.178,2.571l-0.373,0.818
			c-0.974,0.419-1.86,0.646-2.713,0.799c-0.865,0.18-1.676,0.24-2.466,0.256c-1.574,0.018-3.053-0.175-4.411-0.632
			c-1.36-0.453-2.507-1.373-3.661-2.278c-0.578-0.451-1.167-0.878-1.684-1.461c-0.523-0.571-0.988-1.271-1.466-1.939
			c-0.94-1.376-2.044-2.39-3.47-2.697c-1.41-0.344-3.309,0.388-4.847,0.326c-0.777-0.014-1.442-0.271-2.053-0.651
			c-0.613-0.373-1.199-0.806-1.735-1.348c-1.074-1.08-2.036-2.407-2.625-4.552L78.59,508.866z"/>
	</g>
	<g>
		<path d="M209.969,361.864c1.159,0.201,2.06,0.558,2.882,0.963c0.816,0.409,1.517,0.887,2.138,1.415
			c0.633,0.52,1.164,1.103,1.639,1.719c0.481,0.612,0.847,1.294,0.984,2.116c0.307,1.624-0.131,3.7,0.44,5.162
			c0.537,1.483,1.738,2.563,3.278,3.437c0.753,0.447,1.534,0.877,2.194,1.381c0.672,0.496,1.197,1.083,1.745,1.654
			c1.095,1.144,2.207,2.278,2.885,3.676c0.678,1.397,1.107,2.946,1.339,4.615c0.211,1.681,0.258,3.462-0.244,5.578l-0.77,0.468
			c-2.109-0.528-3.669-1.389-5.063-2.351c-1.375-0.974-2.552-2.068-3.481-3.313c-0.929-1.245-1.423-2.754-1.935-4.253
			c-0.255-0.75-0.534-1.485-0.665-2.311c-0.143-0.818-0.166-1.709-0.216-2.583c-0.067-1.77-0.473-3.333-1.542-4.492
			c-1.035-1.18-3.08-1.747-4.38-2.767c-0.667-0.5-1.103-1.139-1.426-1.848c-0.329-0.705-0.601-1.444-0.771-2.246
			c-0.182-0.794-0.284-1.637-0.271-2.55c0.019-0.916,0.116-1.88,0.472-3.001L209.969,361.864z"/>
	</g>
	<g>
		<path d="M535.263,355.693c0.647,2.128,0.543,3.764,0.211,5.25c-0.164,0.745-0.429,1.423-0.747,2.066
			c-0.313,0.647-0.738,1.221-1.389,1.646c-1.268,0.874-3.264,1.269-4.271,2.313c-1.042,1.021-1.435,2.468-1.494,4.133
			c-0.047,0.821-0.067,1.66-0.204,2.422c-0.126,0.77-0.396,1.444-0.644,2.134c-0.492,1.382-0.971,2.771-1.879,3.881
			c-0.904,1.111-2.052,2.063-3.393,2.889c-0.676,0.409-1.394,0.791-2.221,1.101c-0.802,0.326-1.673,0.607-2.721,0.773l-0.752-0.493
			c-0.267-1.026-0.356-1.938-0.377-2.803c-0.045-0.882,0.018-1.692,0.123-2.476c0.222-1.559,0.637-2.991,1.295-4.263
			c0.655-1.275,1.739-2.269,2.81-3.271c0.534-0.502,1.045-1.019,1.7-1.441c0.644-0.43,1.405-0.783,2.141-1.153
			c1.502-0.72,2.672-1.657,3.193-3.02c0.554-1.341,0.12-3.329,0.415-4.84c0.132-0.766,0.488-1.384,0.956-1.93
			c0.462-0.549,0.979-1.063,1.596-1.51c1.231-0.897,2.689-1.646,4.899-1.901L535.263,355.693z"/>
	</g>
	<g>
		<path d="M660.558,507.916c-0.375,1.114-0.865,1.951-1.391,2.701c-0.528,0.745-1.108,1.365-1.724,1.898
			c-0.61,0.547-1.267,0.982-1.948,1.358c-0.679,0.382-1.408,0.641-2.241,0.65c-1.651,0.056-3.637-0.693-5.169-0.351
			c-1.548,0.305-2.798,1.327-3.896,2.716c-0.557,0.677-1.101,1.383-1.698,1.958c-0.593,0.589-1.252,1.019-1.9,1.474
			c-1.298,0.908-2.587,1.835-4.072,2.292c-1.484,0.457-3.08,0.646-4.765,0.62c-1.694-0.046-3.462-0.271-5.476-1.09l-0.346-0.832
			c0.843-2.004,1.932-3.415,3.095-4.646c1.172-1.211,2.433-2.208,3.805-2.937s2.938-0.987,4.498-1.265
			c0.779-0.138,1.549-0.301,2.385-0.305c0.83-0.017,1.714,0.097,2.586,0.18c1.759,0.203,3.365,0.04,4.674-0.84
			c1.324-0.843,2.196-2.778,3.401-3.908c0.596-0.583,1.294-0.917,2.044-1.128c0.747-0.217,1.519-0.375,2.337-0.42
			c0.813-0.059,1.661-0.032,2.561,0.12c0.903,0.158,1.841,0.401,2.895,0.923L660.558,507.916z"/>
	</g>
	<g>
		<path d="M669.485,804.152c-2.005,0.964-3.638,1.109-5.157,1.008c-0.761-0.049-1.472-0.207-2.156-0.425
			c-0.687-0.211-1.318-0.544-1.839-1.121c-1.056-1.12-1.751-3.032-2.936-3.87c-1.168-0.875-2.658-1.042-4.313-0.849
			c-0.818,0.079-1.651,0.188-2.425,0.168c-0.78-0.008-1.488-0.172-2.208-0.312c-1.44-0.276-2.888-0.538-4.122-1.266
			c-1.236-0.725-2.352-1.714-3.372-2.913c-0.507-0.606-0.993-1.259-1.425-2.028c-0.445-0.743-0.855-1.562-1.179-2.571l0.373-0.818
			c0.974-0.419,1.86-0.646,2.713-0.799c0.865-0.18,1.676-0.24,2.466-0.256c1.574-0.018,3.053,0.175,4.411,0.632
			c1.359,0.453,2.507,1.373,3.661,2.278c0.577,0.451,1.166,0.878,1.684,1.461c0.522,0.571,0.987,1.271,1.466,1.94
			c0.939,1.375,2.044,2.389,3.47,2.696c1.41,0.344,3.31-0.388,4.848-0.325c0.776,0.013,1.442,0.271,2.053,0.65
			c0.612,0.373,1.199,0.806,1.735,1.348c1.074,1.08,2.036,2.407,2.625,4.553L669.485,804.152z"/>
	</g>
	<g>
		<path d="M538.105,951.152c-1.158-0.2-2.06-0.558-2.881-0.963c-0.816-0.408-1.518-0.887-2.139-1.414
			c-0.634-0.521-1.164-1.103-1.639-1.719c-0.48-0.612-0.848-1.295-0.983-2.116c-0.308-1.624,0.131-3.7-0.44-5.162
			c-0.537-1.483-1.737-2.563-3.277-3.437c-0.753-0.447-1.534-0.878-2.194-1.381c-0.672-0.496-1.197-1.082-1.745-1.653
			c-1.095-1.145-2.207-2.278-2.885-3.676s-1.106-2.946-1.339-4.615c-0.212-1.681-0.258-3.463,0.244-5.578l0.77-0.467
			c2.108,0.527,3.669,1.389,5.063,2.351c1.375,0.974,2.552,2.068,3.48,3.313c0.93,1.245,1.424,2.754,1.936,4.253
			c0.255,0.75,0.533,1.485,0.664,2.311c0.144,0.817,0.166,1.709,0.216,2.583c0.066,1.77,0.473,3.332,1.542,4.492
			c1.035,1.181,3.08,1.747,4.38,2.767c0.667,0.499,1.104,1.139,1.426,1.848c0.328,0.705,0.602,1.444,0.771,2.246
			c0.182,0.794,0.284,1.637,0.271,2.549c-0.019,0.917-0.117,1.881-0.472,3.002L538.105,951.152z"/>
	</g>
	<g>
		<path d="M212.81,957.323c-0.647-2.128-0.542-3.764-0.211-5.25c0.164-0.744,0.429-1.423,0.748-2.066
			c0.313-0.646,0.738-1.22,1.388-1.646c1.268-0.874,3.264-1.27,4.272-2.313c1.042-1.021,1.434-2.469,1.494-4.133
			c0.047-0.821,0.067-1.66,0.204-2.423c0.125-0.77,0.396-1.444,0.643-2.134c0.492-1.382,0.971-2.771,1.879-3.881
			c0.904-1.111,2.051-2.063,3.392-2.889c0.676-0.409,1.395-0.79,2.221-1.101c0.802-0.326,1.673-0.607,2.72-0.773l0.753,0.494
			c0.266,1.026,0.355,1.937,0.376,2.803c0.045,0.882-0.018,1.692-0.123,2.476c-0.222,1.559-0.637,2.99-1.296,4.263
			c-0.655,1.275-1.738,2.269-2.809,3.271c-0.534,0.502-1.045,1.019-1.701,1.441c-0.644,0.43-1.405,0.783-2.14,1.153
			c-1.502,0.72-2.673,1.656-3.193,3.02c-0.555,1.34-0.121,3.329-0.416,4.839c-0.131,0.767-0.487,1.385-0.956,1.93
			c-0.462,0.55-0.979,1.063-1.596,1.51c-1.231,0.897-2.689,1.646-4.898,1.902L212.81,957.323z"/>
	</g>
	<g>
		<path d="M87.517,805.101c0.375-1.114,0.865-1.95,1.39-2.701c0.528-0.744,1.108-1.364,1.724-1.898
			c0.61-0.546,1.267-0.982,1.948-1.357c0.678-0.382,1.408-0.641,2.241-0.65c1.651-0.057,3.637,0.693,5.169,0.351
			c1.547-0.305,2.797-1.327,3.896-2.717c0.557-0.676,1.101-1.382,1.699-1.958c0.593-0.589,1.251-1.019,1.9-1.473
			c1.297-0.908,2.587-1.835,4.072-2.292c1.485-0.458,3.081-0.646,4.766-0.621c1.693,0.047,3.461,0.271,5.476,1.09l0.345,0.832
			c-0.842,2.004-1.931,3.415-3.094,4.646c-1.172,1.211-2.432,2.208-3.804,2.937s-2.939,0.987-4.498,1.265
			c-0.78,0.138-1.549,0.302-2.385,0.306c-0.831,0.017-1.714-0.097-2.586-0.18c-1.759-0.204-3.365-0.041-4.674,0.84
			c-1.324,0.844-2.195,2.778-3.401,3.908c-0.595,0.582-1.294,0.917-2.043,1.127c-0.747,0.218-1.519,0.375-2.337,0.421
			c-0.813,0.06-1.661,0.032-2.562-0.119c-0.902-0.158-1.841-0.401-2.895-0.923L87.517,805.101z"/>
	</g>
	<g>
		<path d="M719.554,650.197c-1.692,0.886-3.386,1.47-5.078,1.962c-1.692,0.485-3.386,0.835-5.078,1.093
			c-1.693,0.258-3.386,0.429-5.078,0.498c-1.693,0.119-3.386,0.042-5.079-0.25c-3.385-0.581-6.771-2.033-10.156-2.305
			c-3.385-0.301-6.771,0.146-10.156,1.016c-1.692,0.411-3.386,0.854-5.078,1.157c-1.693,0.316-3.386,0.461-5.078,0.632
			c-3.386,0.346-6.771,0.696-10.156,0.557c-3.386-0.147-6.771-0.585-10.157-1.254c-3.386-0.691-6.771-1.578-10.156-3.105v-0.9
			c3.386-1.527,6.771-2.414,10.156-3.105c3.386-0.669,6.771-1.106,10.157-1.254c3.385-0.14,6.771,0.211,10.156,0.557
			c1.692,0.171,3.385,0.315,5.078,0.632c1.692,0.303,3.386,0.746,5.078,1.157c3.386,0.869,6.771,1.316,10.156,1.016
			c3.386-0.271,6.771-1.724,10.156-2.305c1.693-0.292,3.386-0.369,5.079-0.25c1.692,0.069,3.385,0.24,5.078,0.498
			c1.692,0.258,3.386,0.607,5.078,1.093c1.692,0.492,3.386,1.076,5.078,1.962V650.197z"/>
	</g>
	<g>
		<path d="M382.809,298.623c0.885,1.693,1.47,3.386,1.962,5.078c0.485,1.693,0.835,3.386,1.092,5.078
			c0.258,1.693,0.429,3.386,0.499,5.079c0.118,1.693,0.042,3.385-0.25,5.078c-0.581,3.385-2.034,6.771-2.305,10.157
			c-0.301,3.385,0.146,6.771,1.016,10.156c0.411,1.693,0.854,3.386,1.157,5.078c0.317,1.693,0.461,3.386,0.632,5.078
			c0.346,3.386,0.696,6.771,0.556,10.157c-0.146,3.385-0.584,6.771-1.253,10.157c-0.692,3.385-1.578,6.771-3.105,10.156h-0.9
			c-1.528-3.386-2.414-6.771-3.105-10.156c-0.669-3.386-1.107-6.771-1.253-10.157c-0.141-3.385,0.21-6.771,0.556-10.157
			c0.171-1.692,0.315-3.385,0.632-5.078c0.303-1.692,0.746-3.385,1.157-5.078c0.869-3.386,1.316-6.771,1.016-10.156
			c-0.271-3.386-1.724-6.771-2.305-10.157c-0.292-1.693-0.368-3.385-0.25-5.078c0.07-1.693,0.241-3.386,0.499-5.079
			c0.257-1.692,0.607-3.385,1.092-5.078c0.492-1.692,1.077-3.385,1.962-5.078H382.809z"/>
	</g>
	<g>
		<path d="M381.908,979.979c-0.885-1.692-1.47-3.386-1.962-5.078c-0.485-1.692-0.835-3.386-1.092-5.078
			c-0.258-1.693-0.429-3.386-0.499-5.078c-0.118-1.693-0.042-3.386,0.25-5.079c0.581-3.385,2.034-6.771,2.305-10.156
			c0.301-3.385-0.146-6.771-1.016-10.156c-0.411-1.692-0.854-3.386-1.157-5.078c-0.317-1.693-0.461-3.386-0.632-5.078
			c-0.346-3.386-0.696-6.771-0.556-10.156c0.146-3.386,0.584-6.771,1.253-10.157c0.692-3.386,1.578-6.771,3.105-10.156h0.9
			c1.528,3.386,2.414,6.771,3.105,10.156c0.669,3.386,1.107,6.771,1.253,10.157c0.141,3.385-0.21,6.771-0.556,10.156
			c-0.171,1.692-0.315,3.385-0.632,5.078c-0.303,1.692-0.746,3.386-1.157,5.078c-0.869,3.386-1.316,6.771-1.016,10.156
			c0.271,3.386,1.724,6.771,2.305,10.156c0.292,1.693,0.368,3.386,0.25,5.079c-0.07,1.692-0.241,3.385-0.499,5.078
			c-0.257,1.692-0.607,3.386-1.092,5.078c-0.492,1.692-1.077,3.386-1.962,5.078H381.908z"/>
	</g>
</g>
<g id="Layer_2_copy">
	<g>
		<path d="M384.32,386.465c2.087,5.238,3.418,10.476,4.578,15.713c1.132,5.238,1.949,10.475,2.549,15.713
			c0.632,5.238,0.984,10.476,1.184,15.713c0.22,5.238,0.112,10.476-0.594,15.713c-1.373,10.476-4.751,20.951-5.388,31.427
			c-0.186,2.619-0.265,5.238-0.206,7.856c0.01,1.31,0.041,2.619,0.114,3.928c0.044,1.31,0.145,2.619,0.246,3.928
			c0.381,5.238,1.279,10.476,2.215,15.713c0.48,2.619,0.997,5.238,1.439,7.857c0.468,2.618,0.917,5.237,1.262,7.856
			c0.739,5.237,1.075,10.476,1.475,15.713c0.796,10.476,1.64,20.951,1.297,31.427c-0.156,5.237-0.502,10.476-1.015,15.713
			c-0.475,5.238-1.12,10.476-1.91,15.713c-0.788,5.238-1.731,10.476-2.899,15.714c-1.188,5.237-2.498,10.476-4.348,15.713h-2.1
			c-1.85-5.237-3.16-10.476-4.348-15.713c-1.168-5.238-2.111-10.476-2.899-15.714c-0.79-5.237-1.435-10.475-1.91-15.713
			c-0.513-5.237-0.859-10.476-1.015-15.713c-0.343-10.476,0.5-20.951,1.297-31.427c0.4-5.237,0.736-10.476,1.475-15.713
			c0.345-2.619,0.794-5.238,1.262-7.856c0.442-2.619,0.959-5.238,1.439-7.857c0.936-5.238,1.834-10.476,2.215-15.713
			c0.102-1.309,0.202-2.619,0.246-3.928c0.073-1.309,0.104-2.619,0.114-3.928c0.059-2.619-0.02-5.238-0.206-7.856
			c-0.637-10.476-4.015-20.951-5.388-31.427c-0.706-5.237-0.814-10.475-0.594-15.713c0.2-5.238,0.551-10.476,1.184-15.713
			c0.6-5.238,1.417-10.475,2.549-15.713c1.16-5.238,2.491-10.476,4.578-15.713H384.32z"/>
	</g>
	<g>
		<path d="M539.452,491.71c-1.853,4.61-4.194,8.743-6.647,12.768c-2.468,4.011-5.156,7.808-7.954,11.496
			c-2.813,3.675-5.777,7.202-8.857,10.617c-3.063,3.432-6.338,6.656-10.001,9.504c-7.301,5.719-15.901,10.173-22.725,16.357
			c-6.882,6.127-12.588,13.397-17.695,21.253c-1.292,1.949-2.559,3.922-3.875,5.847c-1.299,1.942-2.611,3.872-3.989,5.736
			c-2.727,3.759-5.714,7.264-8.66,10.81c-5.894,7.089-11.758,14.207-18.391,20.576c-3.307,3.194-6.736,6.269-10.274,9.237
			c-3.513,2.993-7.136,5.88-10.854,8.674c-3.716,2.796-7.533,5.493-11.495,8.05c-3.976,2.543-8.03,5.009-12.435,7.135l-1.361-1.326
			c2.006-4.46,4.362-8.58,6.797-12.622c2.448-4.03,5.042-7.918,7.736-11.708c2.693-3.792,5.48-7.491,8.378-11.084
			c2.872-3.617,5.853-7.128,8.958-10.52c6.188-6.802,13.146-12.855,20.072-18.938c3.465-3.04,6.888-6.121,10.572-8.948
			c1.827-1.429,3.72-2.792,5.626-4.143c1.889-1.368,3.827-2.688,5.741-4.031c7.715-5.316,14.829-11.218,20.769-18.262
			c5.998-6.988,10.218-15.705,15.738-23.157c2.748-3.739,5.882-7.101,9.23-10.254c3.331-3.171,6.777-6.229,10.375-9.141
			c3.612-2.897,7.334-5.687,11.277-8.261c3.957-2.561,8.025-5.014,12.584-6.99L539.452,491.71z"/>
	</g>
</g>
<g id="Layer_3_copy">
	<g>
		<path d="M915.372,317.677c-6.425,4.752-13.082,9.12-19.873,13.285c-6.786,4.172-13.73,8.085-20.788,11.823
			c-14.137,7.432-28.773,14.054-44.191,19.3c-3.854,1.319-7.763,2.539-11.745,3.609c-3.98,1.077-8.019,2.077-12.156,2.86
			c-8.282,1.51-16.895,2.602-26.276,1.654c-4.673-0.508-9.626-1.478-14.572-3.772c-2.461-1.144-4.91-2.613-7.172-4.455
			c-2.27-1.827-4.312-4.054-5.945-6.501c-1.648-2.44-2.902-5.068-3.797-7.686c-0.905-2.62-1.401-5.244-1.698-7.772
			c-0.587-5.071-0.238-9.811,0.468-14.278c1.462-8.93,4.369-16.902,7.717-24.481c3.384-7.561,7.219-14.727,11.287-21.686
			c8.174-13.893,17.032-27.079,25.726-40.317l26.156-39.568c4.337-6.589,8.729-13.22,12.955-19.813
			c4.239-6.608,8.276-13.344,12.287-20.074c3.975-6.754,7.826-13.569,11.621-20.383c3.771-6.83,7.437-13.691,11.022-20.546
			c3.574-6.862,7.024-13.745,10.293-20.636c3.239-6.9,6.268-13.84,8.747-20.796c2.474-6.927,4.455-13.952,5.24-20.427
			c0.392-3.21,0.446-6.276,0.07-8.749c-0.378-2.499-1.121-4.197-1.929-5.146c-0.411-0.497-0.858-0.884-1.469-1.272
			c-0.608-0.382-1.399-0.749-2.385-1.089c-1.975-0.676-4.731-1.065-7.761-1.086c-3.036-0.005-6.353,0.198-9.746,0.693
			c-3.402,0.466-6.877,1.215-10.4,2.004c-14.111,3.33-28.46,8.617-42.581,14.446c-14.13,5.904-28.134,12.492-41.959,19.513
			c-13.818,7.039-27.485,14.499-40.871,22.454c-6.675,3.999-13.333,8.061-19.745,12.454c-3.208,2.192-6.41,4.404-9.467,6.784
			c-3.059,2.373-6.067,4.826-8.708,7.611l-1.873-1.334c0.967-1.813,2.1-3.515,3.286-5.164c1.189-1.648,2.43-3.257,3.738-4.797
			c2.61-3.085,5.326-6.072,8.159-8.926c5.683-5.688,11.607-11.11,17.746-16.256c12.271-10.303,25.209-19.751,38.606-28.542
			c13.41-8.778,27.287-16.907,41.783-24.125c7.238-3.635,14.656-6.986,22.281-10.05c7.615-3.1,15.49-5.747,23.727-7.918
			c4.12-1.094,8.365-1.933,12.755-2.593c4.395-0.624,8.95-1.085,13.787-0.934c4.826,0.153,9.986,0.75,15.448,2.705
			c2.72,0.979,5.498,2.357,8.115,4.236c2.615,1.865,5.039,4.248,6.952,6.929c1.927,2.677,3.332,5.601,4.277,8.462
			c0.955,2.867,1.449,5.681,1.699,8.356c0.477,5.364,0.005,10.222-0.77,14.787c-1.634,9.102-4.54,17.153-7.759,24.885
			c-13.099,30.679-31.939,56.526-51.534,81.553c-4.867,6.273-9.87,12.428-14.796,18.622l-7.363,9.254
			c-2.395,3.11-4.82,6.198-7.147,9.358c-9.375,12.586-18.238,25.557-26.197,39.049c-7.959,13.479-14.941,27.558-20.614,41.954
			c-2.827,7.191-5.382,14.44-7.379,21.678c-0.978,3.622-1.9,7.21-2.564,10.772c-0.726,3.542-1.173,7.059-1.415,10.404
			c-0.211,3.343-0.101,6.538,0.381,9.275c0.523,2.744,1.378,4.933,2.553,6.515c1.193,1.56,2.646,2.845,4.89,3.879
			c2.209,1.022,5.034,1.823,8.169,2.213c6.299,0.777,13.526,0.397,20.754-0.618c7.273-0.958,14.647-2.574,22.043-4.362
			c14.786-3.684,29.583-8.42,44.36-13.435c14.789-5.024,29.544-10.447,44.453-15.811L915.372,317.677z"/>
	</g>
	<g>
		<path d="M885.815,430.756c-0.1,2.832-1.074,5.661-2.473,8.145c-1.409,2.502-3.196,4.785-5.141,6.961
			c-3.911,4.329-8.512,8.287-13.562,11.487c-5.06,3.174-10.593,5.449-16.28,6.542c-5.685,1.106-11.492,1.236-17.171,0.422
			c-5.688-0.779-11.239-2.588-16.565-4.611c-5.331-2.083-10.448-4.343-15.528-6.539c-5.073-2.241-10.133-4.449-15.075-7.673
			c-1.215-0.833-2.47-1.682-3.642-2.711c-1.209-0.988-2.353-2.134-3.448-3.434c-1.082-1.31-2.077-2.814-2.87-4.536
			c-0.778-1.722-1.344-3.664-1.545-5.689c-0.445-4.074,0.642-8.314,2.435-11.662c1.773-3.4,4.091-6.171,6.575-8.459
			c4.991-4.6,10.622-7.417,16.218-9.719c5.619-2.275,11.338-3.947,17.128-5.01c5.782-1.094,11.637-1.519,17.445-1.281
			c5.804,0.25,11.608,1.04,17.277,2.555c5.661,1.547,11.119,4.165,16.097,7.559c4.969,3.419,9.485,7.52,13.286,12.01
			c1.887,2.255,3.605,4.634,4.894,7.237c1.284,2.594,2.071,5.481,1.946,8.374l-0.001,0.026V430.756z M883.517,430.653
			c0.045-2.38-0.927-4.689-2.477-6.496c-1.555-1.824-3.62-3.201-5.868-4.168c-2.257-0.967-4.675-1.578-7.14-1.925
			c-2.461-0.361-4.952-0.495-7.422-0.53c-4.938-0.083-9.748,0.114-14.461,0.039c-4.712-0.104-9.406-0.135-14.106-0.004
			c-4.694,0.122-9.354,0.287-13.985,0.583c-4.617,0.34-9.224,0.831-13.597,1.804c-4.368,0.959-8.483,2.415-12.018,3.988
			c-0.871,0.412-1.719,0.802-2.479,1.243c-0.788,0.417-1.49,0.853-2.122,1.306c-1.225,0.931-2.169,1.779-2.74,2.981
			c-0.563,1.178-0.675,2.826,0.008,4.652c0.66,1.816,1.986,3.674,3.671,5.261c1.673,1.614,3.688,2.996,5.855,4.128
			c2.168,1.141,4.498,2.039,6.915,2.666c4.836,1.281,9.985,1.442,15.031,0.981c5.053-0.405,10-1.392,14.816-2.052
			c4.824-0.698,9.532-1.159,14.26-1.443c4.72-0.31,9.512-0.198,14.445-0.272c2.472-0.02,4.967-0.129,7.444-0.446
			c2.481-0.305,4.928-0.86,7.228-1.775c2.289-0.919,4.409-2.252,6.035-4.047C882.426,435.338,883.481,433.089,883.517,430.653z"/>
	</g>
</g>
</svg>
