<?xml version="1.0" encoding="utf-8"?>
<!-- Generator: Adobe Illustrator 23.0.1, SVG Export Plug-In . SVG Version: 6.00 Build 0)  -->
<svg version="1.1" id="Layer_1" xmlns="http://www.w3.org/2000/svg" xmlns:xlink="http://www.w3.org/1999/xlink" x="0px" y="0px"
	 viewBox="0 0 566.93 566.93" enable-background="new 0 0 566.93 566.93" xml:space="preserve">
<path d="M512.98,483.535c-34.554-38.183-47.053-90.894-59.3-139.491c-7.73-30.672-13.39-61.905-18.06-93.179
	c-2.269-15.188-3.892-30.44-5.694-45.686c-0.896-7.577-1.709-15.165-2.564-22.746c-0.839-7.421-0.241-16.179-3.271-23.046
	c-0.104-0.235-0.229-0.418-0.364-0.578c0.479,0.045,0.96,0.083,1.438,0.13c4.11,0.406,7.912-2.895,8.022-7.04
	c0.1-3.715-0.294-7.65-1.645-11.129c-0.3-0.774-0.848-1.402-1.517-1.862c0.988-0.007,1.977-0.011,2.964-0.02
	c1.671,0.024,3.195-0.754,4.387-1.907c6.629-1.911,12.527-11.307,6.159-15.398c-0.004-0.005-0.008-0.01-0.013-0.016
	c-0.347-0.743-0.598-1.537-0.832-2.316c-0.662-2.203-0.229-0.611-0.537-2.547c-0.292-1.833-0.461-3.687-0.611-5.536
	c-0.686-8.454-0.509-16.979-0.221-25.447c0.55-16.128,2.023-32.195,3.28-48.278c0.629-8.052-0.708-15.758-5.508-22.404
	c-4.54-6.286-13.12-9.139-20.432-10.411C401.254,1.6,383.42,6.084,366.017,6.907c-38.879,1.839-77.937,1.726-116.851,2.036
	c-19.188,0.153-38.376,0.287-57.563,0.439c-9.929,0.079-19.854,0.311-29.781,0.524c-9.534,0.204-19.386,0.371-28.617,2.847
	c-1.084,0.291-1.976,1.833-1.235,2.632c-8.426-4.499-22.07,1.927-29.358,6.106c-6.97,3.996-13.495,8.86-19.762,13.871
	c-4.989,3.99-9.761,7.737-12.978,13.28c-1.458,2.512,1.49,3.804,3.453,2.772c4.729-2.487,8.508-5.889,12.748-9.175
	c5.584-4.328,11.433-8.294,17.577-11.783c5.106-2.899,10.769-5.749,16.714-6.19c6.041-0.448,6.585,4.568,6.862,9.402
	c0.449,7.82-0.677,15.774-1.276,23.563c-0.708,9.207-0.425,18.334-0.15,27.563c0.661,22.293,1.861,44.52,1.847,66.828
	c-0.006,8.431,11.637,5.95,15.841-0.085c1.101-0.044,2.203-0.104,3.306-0.209c5.978-0.567,11.968-1.306,17.926-2.046
	c12.813-1.592,25.659-2.818,38.513-4.026c26.159-2.459,52.401-3.99,78.654-4.991c46.99-1.793,93.965-1.077,140.966-1.311
	c-0.856,0.167-1.716,0.294-2.576,0.313c-4.181,0.091-8.606,6.298-4.55,9.328c-7.813-0.217-15.671-0.865-23.412-0.792
	c-13.004,0.122-26.006,0.462-39.002,0.915c-25.592,0.893-51.166,2.229-76.729,3.741c-23.454,1.387-46.859,2.949-70.343,3.761
	c-11.508,0.398-22.992,0.996-34.44,2.273c-9.02,1.006-19.213,2.024-27.598,6.014c-1.392-0.469-3.73,0.538-4.479,1.579
	c-6.955,9.685-7.844,22.917-8.417,34.458c-0.647,13.032,0.333,26.066,1.315,39.056c1.199,15.849,1.454,31.794,2.516,47.661
	c1.089,16.286,2.593,32.523,4.613,48.721c3.966,31.796,10.554,63.079,17.906,94.242c3.629,15.384,7.34,30.747,11.285,46.053
	c3.137,12.176,7.033,24.29,12.782,35.502c0.942,1.837,1.949,3.639,2.903,5.469c-0.05,0.37-0.07,0.741-0.051,1.115
	c-0.468,0.115-0.932,0.23-1.381,0.351c-5.705,1.535-11.463,2.869-17.226,4.167c-0.532,0.12-1.066,0.233-1.6,0.352
	c0.289-1.941-0.043-4.129-0.601-5.77c-2.647-7.782-6.252-15.255-9.414-22.835c-4.515-10.823-6.887-22.441-9.326-33.877
	c-3.485-16.336-6.36-32.749-8.873-49.258c-4.866-31.981-9.614-63.969-14.688-95.917c-5.079-31.983-7.244-64.363-8.448-96.698
	c-1.738-46.654-0.808-93.602-4.609-140.153c-0.195-2.383-3.651-0.668-3.637,1.166c0.545,65.211-1.425,130.838,3.525,195.913
	c2.452,32.234,7.835,64.157,12.358,96.145c4.583,32.409,9.111,64.712,15.694,96.789c2.48,12.087,5.106,23.8,9.708,35.243
	c1.835,4.564,3.713,9.111,5.483,13.701c0.714,1.852,1.395,3.717,2.016,5.602c0.195,0.593,0.448,1.125,0.721,1.662
	c-0.035,0.17-0.06,0.339-0.072,0.507c-7.861,1.685-15.729,3.336-23.564,5.135c-0.558,0.128-1.114,0.261-1.671,0.391
	c-0.445-2.152-1.443-4.383-1.89-6.175c-1.497-6.008-2.311-12.184-3.071-18.319c-1.43-11.519-2.892-23.02-4.521-34.515
	c-3.128-22.073-6.371-44.13-9.537-66.198c-3.143-21.897-5.972-43.848-8.206-65.857c-2.27-22.347-3.245-44.725-4.472-67.141
	c-0.026-0.485-0.709-0.121-0.727,0.233c-2.207,44.098,2.824,88.77,8.121,132.495c2.607,21.527,5.68,42.998,8.52,64.495
	c1.439,10.894,2.996,21.797,4.025,32.738c0.89,9.46,1.825,19.226,4.214,28.504c-0.283,0.518-0.399,1.089-0.274,1.631
	c-8.097,2.041-16.127,4.349-23.984,7.182c-9.896,3.568-20.745,7.95-27.984,15.839c-2.463,2.684-1.627,5.133,0.396,6.272
	c-0.082,0.289-0.014,0.558,0.379,0.6c13.286,1.424,27.291-1.115,40.547-2.293c14.91-1.325,29.808-2.779,44.707-4.215
	c29.287-2.821,58.576-5.632,87.897-8.078c29.336-2.447,58.722-4.485,88.13-5.848c14.996-0.695,30.005-1.163,45.016-1.403
	c12.59-0.201,25.365,0.721,37.926,0.058c0.751-0.04,1.457-0.302,2.104-0.688l0,0c6.355-1.129,12.213-3.461,18.188-5.908
	c9.424-3.861,18.785-7.875,28.096-12.002c8.565-3.798,17.115-7.702,25.525-11.835c2.272-1.117,4.54-2.275,6.727-3.56
	c2.43-0.155,4.868-0.42,7.427-0.607c5.076-0.371,9.915-4.678,10.977-9.633c0.334-1.558,0.182-3.02-0.335-4.271
	C514.918,489.702,515.498,486.317,512.98,483.535z M443.319,121.271C443.164,121.032,443.099,120.897,443.319,121.271
	L443.319,121.271z M284.142,129.73c-26.298,1.147-52.57,2.92-78.766,5.511c-12.928,1.278-25.822,2.966-38.681,4.811
	c-6.076,0.872-12.137,1.983-18.162,3.152c-1.235,0.24-2.443,0.532-3.643,0.845c-0.084-23.497-1.338-46.883-2.699-70.343
	c-0.531-9.169-0.688-18.154-0.603-27.325c0.077-8.309-0.967-16.932-4.118-24.6c-1.164-2.832-2.846-4.767-4.859-6.021
	c6.776,2.143,14.349,2.5,21.455,2.686c8.518,0.222,17.034,0.452,25.551,0.683c16.448,0.448,32.922,0.539,49.376,0.701
	c32.952,0.324,65.904,0.493,98.857,0.205c14.014-0.123,28.141,0.129,42.125-0.872c8.858-0.634,17.692-1.544,26.577-1.748
	c7.485-0.171,15.621,0.105,22.512,3.333c6.463,3.027,8.774,9.766,9.067,16.664c0.061,1.405-0.031,2.797-0.144,4.193
	c-0.028,0.332-0.072,0.854-0.086,1.012c-0.081,0.924-0.164,1.847-0.247,2.771c-0.362,4.045-0.729,8.09-1.079,12.137
	c-0.936,10.835-1.773,21.68-2.277,32.545c-0.437,9.408-0.72,18.917,0.127,28.31c0.25,2.778,0.565,6.086,1.396,9.185
	C378.602,127.266,331.312,127.672,284.142,129.73z M175.791,432.707c-3.769-15.48-7.467-30.976-10.808-46.555
	c-6.792-31.677-10.854-63.791-13.888-96.024c-1.52-16.141-2.511-32.312-3.668-48.48c-0.927-12.943-2.691-25.802-3.483-38.767
	c-0.698-11.431,0.541-22.472,1.178-33.76c8.862-0.328,17.992-2.647,26.782-3.397c10.836-0.924,21.738-1.179,32.606-1.431
	c23.435-0.544,46.787-1.777,70.192-3.061c24.879-1.365,49.77-2.598,74.679-3.241c23.813-0.615,47.947-1.43,71.736,0.582
	c-1.032,0.546-1.965,1.59-2.218,2.487c-2.021,7.156-1.006,15.051-0.987,22.444c0.021,7.807,0.201,15.601,0.489,23.402
	c0.597,16.134,2.032,32.257,3.62,48.32c3.186,32.229,8.646,64.085,15.895,95.645c10.686,46.534,23.123,97.156,52.97,135.657
	c-0.191,0.88-0.196,1.787,0.05,2.655c0.118,0.417,0.252,0.795,0.394,1.156c-7.715,1.084-15.414,2.309-23.156,3.13
	c-12.802,1.357-25.596,2.785-38.387,4.236c-26.755,3.034-53.492,6.215-80.247,9.247c-26.022,2.949-52.064,5.627-78.15,7.97
	c-12.706,1.141-25.422,2.169-38.147,3.077c-8.457,0.603-16.979,0.969-25.464,1.594c0.073-1.015-0.035-2.02-0.396-2.961
	c-0.642-1.674-1.889-2.718-3.377-3.25c-0.258-2.464-1.457-4.903-3.045-7.157c-1.729-2.454-4.851-6.103-5.567-7.734
	c-2.992-6.812-5.791-13.56-7.99-20.688C182.833,462.99,179.454,447.759,175.791,432.707z M459.196,513.556
	c-13.881,6.339-28.698,11.375-42.052,18.801c-0.329-0.05-0.692-0.071-1.101-0.049c-0.025,0.001-0.05,0.003-0.075,0.004
	c-11.277-0.521-22.786,0.209-34.058,0.428c-15.039,0.293-30.071,0.886-45.093,1.671c-30.174,1.577-60.271,4.114-90.342,7.039
	c-29.423,2.862-58.806,6.136-88.189,9.376c-14.952,1.648-29.908,3.267-44.862,4.906c-10.388,1.138-21.177,1.623-31.637,3.252
	c6.027-2.91,11.956-5.81,18.504-7.922c10.479-3.381,21.29-5.768,32.079-7.917c11.237-2.238,22.53-4.188,33.781-6.36
	c5.532-1.069,11.053-2.2,16.547-3.448c2.134-0.485,4.357-1.214,6.596-1.884c0.363,0.184,0.78,0.306,1.271,0.33
	c24.634,1.212,49.814-1.631,74.364-3.515c26.607-2.042,53.182-4.6,79.745-7.147c26.665-2.557,53.316-5.259,79.978-7.865
	c12.76-1.247,25.522-2.461,38.29-3.621c1.997-0.181,3.989-0.385,5.979-0.596C465.697,510.578,462.448,512.071,459.196,513.556z"/>
<path d="M68.748,53.424c1.949-2.25-0.489-4.763-2.926-3.335c-6.554,3.84-8.802,10.55-10.946,17.42
	c-2.785,8.918-2.787,18.966-2.723,28.226c0.132,18.925,2.617,37.721,3.609,56.601c1.739,33.114-0.813,66.271-1.502,99.378
	c-0.684,32.874,1.797,65.724,2.822,98.572c1.021,32.746,1.523,65.504,1.992,98.261c0.232,16.285,0.504,32.57,0.795,48.854
	c0.15,8.424,0.36,16.847,0.467,25.272c0.072,5.716,0.509,11.624,0.399,17.438c-3.345,2.126-5.632,6.456-3.089,9.675
	c2.092,2.649,3.088,4.459,6.691,5.252c6.516,1.433,12.408-5.82,11.072-11.799c-1.641-7.344-1.059-15.517-1.315-23.024
	c-0.286-8.401-0.451-16.806-0.641-25.209c-0.367-16.253-0.677-32.507-1.058-48.76c-0.764-32.667-1.602-65.333-2.8-97.987
	c-1.202-32.767-3.896-65.525-3.622-98.325c0.275-33.026,2.328-66.034,0.631-99.057c-0.898-17.469-3.266-34.819-4.016-52.299
	c-0.381-8.885-0.513-17.945,0.493-26.794C63.786,65.603,64.479,58.353,68.748,53.424z"/>
<path d="M107.785,61.338c0.553,0.936,1.49,1.328,2.563,0.935c10.658-3.909,5.712-18.976-0.286-24.726
	c-1.377-1.321-3.15-1.049-4.729-0.253c-4.483,2.26-40.193,26.964-34.209,31.631c0.431,0.336,1.262-0.511,0.867-0.931
	c-0.415-0.442,13.94-11.321,15.138-12.156c5.425-3.784,11.162-7.718,17.263-10.466c1.597,2.406,2.641,5.04,2.989,7.994
	C107.697,56.049,106.321,58.857,107.785,61.338z"/>
<path d="M191.736,55.445c-10.048-0.04-18.001,13.892-17.589,22.801c0.522,11.262,12.684,15.723,22.264,15.532
	c12.835-0.256,23.927-10.75,24.404-23.561C221.324,56.565,202.153,48.31,191.736,55.445z M199.381,79.91
	c-3.943,0.355-9.401-1.046-11.218-4.929c-1.514-3.237-0.726-6.173,1.067-8.583c0.152,0.108,0.3,0.219,0.475,0.316
	c3.095,1.728,6.685,0.754,10.05,1.562c2.51,0.603,4.733,2.793,5.744,5.071C207.517,77.892,203.02,79.582,199.381,79.91z"/>
<path d="M395.87,51.744c-7.572-1.765-20.058,0.467-24.215,7.653c-5.117,3.682-8.872,10.274-9.879,15.611
	c-1.616,8.572,3.797,15.696,11.684,18.267c12.223,3.985,23.832-6.547,29.613-16.143C408.7,67.791,408.142,54.605,395.87,51.744z
	 M370.932,65.003c0.069,0.138,0.133,0.277,0.22,0.413C370.934,65.074,370.884,64.97,370.932,65.003z M390.658,71.976
	c-0.023,0.057-0.046,0.111-0.076,0.187c-0.264,0.664-0.583,1.305-0.907,1.942c-0.061,0.119-0.187,0.337-0.307,0.541
	c-0.316,0.47-0.646,0.93-0.986,1.382c-0.147,0.196-0.311,0.379-0.467,0.568c-0.244,0.261-0.832,0.906-1.056,1.114
	c-0.375,0.348-0.773,0.668-1.172,0.988c-0.04,0.025-0.07,0.044-0.118,0.075c-0.454,0.292-0.932,0.545-1.408,0.797
	c-0.131,0.037-0.322,0.096-0.6,0.189c-0.137,0.046-0.466,0.127-0.725,0.191c-0.515,0.067-1.032,0.108-1.55,0.125
	c1.808-0.059-2.63-0.741-1.541-0.322c-5.735-2.209-6.244-7.138-4.263-11.728c0.393,0.043,0.796,0.063,1.228,0.041
	c4.367-0.231,6.684-1.42,10.688-1.528c-0.387,0.047,1.066,0.202,1.946,0.339c0.203,0.073,0.463,0.167,0.605,0.24
	c0.119,0.06,0.214,0.106,0.297,0.146c0.016,0.016,0.025,0.028,0.045,0.047c0.273,0.262,0.447,0.404,0.555,0.475
	c-0.002,0.111,0.044,0.334,0.201,0.773c0.006,0.015,0.009,0.022,0.014,0.036c0.047,0.377,0.061,0.756,0.061,1.136
	C391.096,68.787,390.846,71.141,390.658,71.976z"/>
<path d="M324.916,240.959c-1.559-2.163-4.289-4.495-6.856-3.948l0,0c-3.527,0.75-7.014,1.632-10.404,2.628
	c-0.095-1.039-0.171-2.034-0.231-2.999c-0.069-1.115-0.573-6.751-3.769-8.214c-1.853-0.85-3.119-0.099-3.71,0.423
	c-1.139,1.008-1.645,2.666-1.506,4.932c0.165,2.673,0.427,5.423,0.831,8.664c-1.304,0.535-2.605,1.132-3.876,1.716
	c-3.634,1.669-7.388,3.394-10.899,3.485c-1.536,0.04-2.782,0.926-3.404,2.425c-0.882,2.125-0.189,4.657,0.754,6.317
	c1.325,2.334,4.099,4.809,7.058,4.733c4.441-0.118,8.478-1.946,12.383-3.715c0.035-0.016,0.071-0.032,0.106-0.048
	c0.268,1.917,0.523,3.882,0.741,5.862c0.248,2.26,0.466,4.57,0.677,6.804c0.697,7.38,1.417,15.01,3.36,22.505
	c0.391,1.509,1.313,4.214,3.085,5.378c0.646,0.424,1.352,0.616,2.05,0.564c0.265-0.02,0.529-0.075,0.788-0.165
	c1.935-0.678,3.514-3.285,2.146-8.568c-1.526-5.886-2.06-11.949-2.626-18.368c-0.229-2.603-0.467-5.294-0.775-7.953
	c-0.364-3.135-0.818-6.247-1.271-9.276c4.437-1.497,9.048-2.757,13.74-3.754c1.585-0.337,2.753-1.457,3.206-3.073
	C327.052,245.391,326.485,243.135,324.916,240.959z"/>
<path d="M414.168,265.471c-3.465-3.078-7.504-5.245-11.41-7.34c-1.616-0.868-3.142-1.686-4.605-2.554
	c-0.757-0.449-1.602-0.879-2.496-1.335c-2.133-1.086-5.054-2.573-5.895-4.136c-0.709-1.318-0.765-4.04-0.129-6.334
	c1.485-5.352,5.131-7.33,10.003-5.429c4.268,1.667,5.305-1.94,5.408-2.356c0.757-3.027-1.592-6.26-4.174-7.268l0,0
	c-10.134-3.954-18.484,0.075-21.272,10.266c-1.341,4.899-0.906,10.22,1.163,14.233c2.223,4.312,5.938,6.37,9.215,8.185
	c0.624,0.346,1.24,0.687,1.832,1.038c1.549,0.92,3.1,1.834,4.652,2.749c3.071,1.81,6.246,3.682,9.346,5.558
	c2.856,1.729,2.648,3.086,2.044,4.813c-0.671,1.917-1.932,3.817-3.648,5.497c-3.492,3.418-8.599,5.231-12.708,4.518
	c-0.698-0.122-1.085-0.387-1.263-1.498c-0.455-2.831,1.234-7.354,2.723-8.284c1.645-1.027,2.196-3.336,1.282-5.371
	c-1.177-2.621-5.538-5.454-8.286-3.732c-4.765,2.974-7.192,12.553-5.837,18.31c1.212,5.15,5.045,8.942,10.513,10.405
	c2.186,0.584,4.543,0.791,6.936,0.614c7.906-0.586,16.191-5.353,19.884-14.469C419.898,275.485,418.675,269.474,414.168,265.471z"/>
<path d="M372.997,285.291c-1.358,0.435-3.006,1.645-3.662,3.116c0.12-0.26-1.722,0.211-2.413,0.262
	c-1.376,0.185-2.759,0.288-4.085,0.218c-2.784-0.045-5.523-0.428-8.179-1.57c-2.079-0.85-4.32-2.023-5.662-4.183
	c-1.411-2.155-1.77-5.14-2.238-7.699c-0.649-3.131-1.078-6.112-1.368-9.102c0.34-0.109,0.673-0.301,1.082-0.415
	c4.062-1.472,8.266-1.95,12.557-1.264c2.042,0.351,3.749-6.636,2.273-6.862c-3.656-0.566-7.27-0.55-10.884,0.387
	c-1.842,0.471-3.59,1.27-5.414,1.99c-0.123-1.664-0.177-3.334-0.231-5.003c-0.125-4.509-0.935-8.883-1.054-13.309
	c8.234-1.446,16.387-3.053,24.591-4.915c1.502-0.362-0.799-3.288-1.182-3.761c-1.135-1.255-2.987-2.791-4.565-2.507
	c-10.328,2.27-20.675,4.29-31.046,5.978c-1.509,0.279,0.875,3.366,1.182,3.761c1.135,1.255,2.912,2.713,4.565,2.507
	c0.207-0.015,0.478-0.119,0.685-0.134c-0.118,3.104,0.185,6.262,0.557,9.413c0.291,2.991,0.374,5.997,0.457,9.002
	c-0.207,0.015-0.49-0.047-0.704-0.115c-2.042-0.351-3.749,6.636-2.273,6.862c1.125,0.168,2.237,0.169,3.274,0.092
	c0.309,3.24,0.901,6.543,1.556,9.758c0.686,3.631,1.125,7.698,3.547,10.364c4.391,4.863,11.667,5.496,17.204,5.17
	c4.978-0.368,10.804-1.469,13.371-7.181C375.599,284.764,373.607,285.078,372.997,285.291z"/>
<path d="M199.074,271.46c-0.985-8.182-0.62-18.439-6.366-24.368c-0.558-0.575-2.392-2.167-2.833-0.648
	c-2.256,7.768-4.866,40.223-5.543,40.273c-0.677,0.05-1.737-18.564-2.288-23.721c-0.441-4.127-0.707-8.426-2.105-12.316
	c-0.771-2.146-2.644-6.055-4.974-6.096c-2.199-0.039-2.889,4.474-3.312,6.433c-0.92,4.262-1.112,8.79-1.348,13.186
	c-0.056,1.044-0.101,2.089-0.143,3.134c-0.415-3.972-0.732-7.956-0.957-11.95c-0.074-1.313-0.771-2.892-1.73-3.62
	c-0.507-0.384-1.922-1.197-1.839,0.278c0.411,7.292,1.088,14.564,2.122,21.788c0.799,5.582,3.113,22.553,3.135,23.179
	c0.061,1.795,2.857,7.761,4.578,1.333c-0.603-8.406-0.807-16.825-0.529-25.229c0.143-4.332,0.332-8.71,0.853-12.993
	c0.184-1.517,0.425-4.218,1.032-6.402c0.29,2.459,0.328,5.057,0.534,6.99c0.435,4.072,1.711,26.932,4.823,32.726
	c0.575,1.071,3.07,4.155,4,2.206c2.954-6.193,4.998-32.757,6.864-38.807c0.279,2.016,0.47,4.046,0.678,6.072
	c0.383,3.723,0.794,7.416,1.486,11.088c1.495,7.937,3.854,15.619,4.683,23.707c0.174,1.698,1.406,3.554,2.622,4.415
	c0.709,0.502,2.421,1.32,2.234-0.503C203.7,291.361,200.304,281.675,199.074,271.46z"/>
<path d="M243.428,304.805c-4.804-5.573-6.701-13.795-8.598-20.569c-1.518-5.422-2.734-10.909-3.874-16.409
	c2.603-1.115,5.205-2.23,7.808-3.345c2.921-1.251-3.488-3.921-5.624-3.005c-1.068,0.457-2.135,0.915-3.203,1.372
	c-1.323-6.541-2.606-13.094-4.257-19.572c-0.96-3.767-2.243-9.409-7.017-10.744c-4.707-1.316-6.393,1.581-7.764,5.049
	c-2.353,5.955-4.196,12.102-4.839,18.391c-0.58,5.677,0.314,11.116,1.028,16.664c-2.465,1.056-4.93,2.112-7.396,3.169
	c-2.921,1.251,3.488,3.921,5.624,3.005c0.776-0.332,1.551-0.665,2.327-0.997c0.613,7.354,0.434,14.755,0.255,22.133
	c-0.04,1.64,5.993,0.909,6.041-1.095c0.193-7.935-0.02-15.67-0.666-23.45c3.975-1.703,7.95-3.406,11.924-5.109
	c0.004,0.021,0.008,0.041,0.013,0.062c1.349,6.408,2.826,12.801,4.786,19.075c1.809,5.789,3.612,12.327,7.749,17.125
	C238.958,307.962,244.771,306.363,243.428,304.805z M212.783,270.197c-0.161-1.493-0.336-2.99-0.531-4.492
	c-0.706-5.446-0.402-10.868,0.783-16.274c0.835-3.809,1.816-8.953,3.745-12.935c2.961,3.416,3.903,12.162,4.434,14.547
	c1.057,4.745,1.995,9.512,2.96,14.274C220.377,266.944,216.58,268.571,212.783,270.197z"/>
<path d="M278.82,284.821c-3.386-0.67-6.766-1.257-10.152-1.927c-2.469-0.487-5.214-0.953-7.241-2.979
	c0.782-1.648,3.551-4.614,4.433-5.85c2.33-3.268,4.359-6.849,5.515-10.95c1.978-7.091,0.998-19.401-3.732-25.076
	c-5.651-6.861-12.23,0.988-15.356,6.658c-1.405,2.614-2.798,5.395-4.047,8.248c-0.435-3.064-0.946-6.205-1.519-9.259
	c-0.473-2.642-2.346-2.588-3.537-0.826c-1.568,2.291-1.706,6.067-1.214,8.959c1.041,5.613,1.805,11.246,2.5,16.884
	c-0.014,0.754-0.027,1.508,0.034,2.34c0.043,0.582,0.143,0.993,0.375,1.311c0.086,1.165,0.235,2.242,0.322,3.407
	c0.322,3.407,0.574,6.818,1.034,10.215c0.547,3.641,1.516,7.334,1.856,10.991c-0.513,2.464-0.31,5.21,1.058,6.783l0.075,0.078
	c1.292,1.494,2.83-1.213,3.24-2.248c1.628-4.304,0.982-9.276,0.298-13.828c-0.778-4.879-1.688-9.664-2.12-14.569
	c-0.105-1.415-0.278-2.824-0.383-4.239c0.995-1.58,1.696-3.389,1.642-5.058c-0.286-5.752,1.6-10.326,3.957-15.102
	c0.845-1.736,1.029-3.005,2.945-2.477c2.274,0.669,3.652,3.328,4.459,5.778c1.351,4.167,2.968,10.992,1.259,15.135
	c-1.539,3.628-4.666,6.453-6.645,9.779c-1.67,2.801-5.078,8.408-3.62,12.149c1.521,3.653,7.553,4.378,10.437,4.834
	c4.062,0.752,8.104,1.547,12.137,2.396C282.732,297.619,285.737,286.233,278.82,284.821z"/>
<path d="M383.871,448.096c-2.126-1.82-4.964-2.29-7.785-1.293l-1.084,0.383c-16.861,5.963-34.295,12.128-52.095,14.555
	c-7.661,1.044-15.577,1.422-23.232,1.787c-2.535,0.121-5.091,0.243-7.66,0.39c9.472-10.047,19.214-20.398,28.66-30.73
	c15.92-17.413,25.407-35.322,28.198-53.232c1.495-9.592,0.47-19.452-3.043-29.307c-2.649-7.428-6.954-18.155-13.735-25.513
	c-4.639-5.037-10.567-7.52-17.151-7.184c-11.61,0.594-44.489,7.818-51.135,16.702c-5.685,7.6-10.587,17.15-14.984,29.193
	c-4.125,11.298,12.674,15.649,15.57,7.223c2.635-7.67,5.997-14.91,9.99-21.521c3.987-6.599,34.012-14.395,40.778-14.474
	c1.505-0.049,3.819,0.381,6.155,4.052c9.882,15.522,13.097,30.112,9.556,43.363c-3.743,14.004-11.586,27.087-24.685,41.173
	c-9.518,10.237-19.246,20.604-28.653,30.63c-4.048,4.314-8.097,8.629-12.141,12.947l-1.599,1.707
	c-0.043,0.047-0.086,0.093-0.13,0.14c-2.622,2.8-3.128,6.726-1.289,10.002c1.875,3.34,5.46,6.119,10.401,5.291
	s90.883-15.061,108.317-21.224c3.009-1.064,5.064-3.449,5.639-6.543C387.327,453.431,386.202,450.088,383.871,448.096z"/>
</svg>
