<?xml version="1.0" encoding="utf-8"?>
<!-- Generator: Adobe Illustrator 23.0.1, SVG Export Plug-In . SVG Version: 6.00 Build 0)  -->
<svg version="1.1" id="Layer_1" xmlns="http://www.w3.org/2000/svg" xmlns:xlink="http://www.w3.org/1999/xlink" x="0px" y="0px"
	 viewBox="0 0 566.93 566.93" enable-background="new 0 0 566.93 566.93" xml:space="preserve">
<path d="M512.98,483.535c-34.554-38.183-47.053-90.894-59.3-139.491c-7.73-30.672-13.39-61.905-18.06-93.179
	c-2.269-15.188-3.892-30.44-5.694-45.686c-0.896-7.577-1.709-15.165-2.564-22.746c-0.839-7.421-0.241-16.179-3.271-23.046
	c-0.104-0.235-0.229-0.418-0.364-0.578c0.479,0.045,0.96,0.083,1.438,0.13c4.11,0.406,7.912-2.895,8.022-7.04
	c0.1-3.715-0.294-7.65-1.645-11.129c-0.3-0.774-0.848-1.402-1.517-1.862c0.988-0.007,1.977-0.011,2.964-0.02
	c1.671,0.024,3.195-0.754,4.387-1.907c6.629-1.911,12.527-11.307,6.159-15.398c-0.004-0.005-0.008-0.01-0.013-0.016
	c-0.347-0.743-0.598-1.537-0.832-2.316c-0.662-2.203-0.229-0.611-0.537-2.547c-0.292-1.833-0.461-3.687-0.611-5.536
	c-0.686-8.454-0.509-16.979-0.221-25.447c0.55-16.128,2.023-32.195,3.28-48.278c0.629-8.052-0.708-15.758-5.508-22.404
	c-4.54-6.286-13.12-9.139-20.432-10.411C401.254,1.6,383.42,6.084,366.017,6.907c-38.879,1.839-77.937,1.726-116.851,2.036
	c-19.188,0.153-38.376,0.287-57.563,0.439c-9.929,0.079-19.854,0.311-29.781,0.524c-9.534,0.204-19.386,0.371-28.617,2.847
	c-1.084,0.291-1.976,1.833-1.235,2.632c-8.426-4.499-22.07,1.927-29.358,6.106c-6.97,3.996-13.495,8.86-19.762,13.871
	c-4.989,3.99-9.761,7.737-12.978,13.28c-1.458,2.512,1.49,3.804,3.453,2.772c4.729-2.487,8.508-5.889,12.748-9.175
	c5.584-4.328,11.433-8.294,17.577-11.783c5.106-2.899,10.769-5.749,16.714-6.19c6.041-0.448,6.585,4.568,6.862,9.402
	c0.449,7.82-0.677,15.774-1.276,23.563c-0.708,9.207-0.425,18.334-0.15,27.563c0.661,22.293,1.861,44.52,1.847,66.828
	c-0.006,8.431,11.637,5.95,15.841-0.085c1.101-0.044,2.203-0.104,3.306-0.209c5.978-0.567,11.968-1.306,17.926-2.046
	c12.813-1.592,25.659-2.818,38.513-4.026c26.159-2.459,52.401-3.99,78.654-4.991c46.99-1.793,93.965-1.077,140.966-1.311
	c-0.856,0.167-1.716,0.294-2.576,0.313c-4.181,0.091-8.606,6.298-4.55,9.328c-7.813-0.217-15.671-0.865-23.412-0.792
	c-13.004,0.122-26.006,0.462-39.002,0.915c-25.592,0.893-51.166,2.229-76.729,3.741c-23.454,1.387-46.859,2.949-70.343,3.761
	c-11.508,0.398-22.992,0.996-34.44,2.273c-9.02,1.006-19.213,2.024-27.598,6.014c-1.392-0.469-3.73,0.538-4.479,1.579
	c-6.955,9.685-7.844,22.917-8.417,34.458c-0.647,13.032,0.333,26.066,1.315,39.056c1.199,15.849,1.454,31.794,2.516,47.661
	c1.089,16.286,2.593,32.523,4.613,48.721c3.966,31.796,10.554,63.079,17.906,94.242c3.629,15.384,7.34,30.747,11.285,46.053
	c3.137,12.176,7.033,24.29,12.782,35.502c0.942,1.837,1.949,3.639,2.903,5.469c-0.05,0.37-0.07,0.741-0.051,1.115
	c-0.468,0.115-0.932,0.23-1.381,0.351c-5.705,1.535-11.463,2.869-17.226,4.167c-0.532,0.12-1.066,0.233-1.6,0.352
	c0.289-1.941-0.043-4.129-0.601-5.77c-2.647-7.782-6.252-15.255-9.414-22.835c-4.515-10.823-6.887-22.441-9.326-33.877
	c-3.485-16.336-6.36-32.749-8.873-49.258c-4.866-31.981-9.614-63.969-14.688-95.917c-5.079-31.983-7.244-64.363-8.448-96.698
	c-1.738-46.654-0.808-93.602-4.609-140.153c-0.195-2.383-3.651-0.668-3.637,1.166c0.545,65.211-1.425,130.838,3.525,195.913
	c2.452,32.234,7.835,64.157,12.358,96.145c4.583,32.409,9.111,64.712,15.694,96.789c2.48,12.087,5.106,23.8,9.708,35.243
	c1.835,4.564,3.713,9.111,5.483,13.701c0.714,1.852,1.395,3.717,2.016,5.602c0.195,0.593,0.448,1.125,0.721,1.662
	c-0.035,0.17-0.06,0.339-0.072,0.507c-7.861,1.685-15.729,3.336-23.564,5.135c-0.558,0.128-1.114,0.261-1.671,0.391
	c-0.445-2.152-1.443-4.383-1.89-6.175c-1.497-6.008-2.311-12.184-3.071-18.319c-1.43-11.519-2.892-23.02-4.521-34.515
	c-3.128-22.073-6.371-44.13-9.537-66.198c-3.143-21.897-5.972-43.848-8.206-65.857c-2.27-22.347-3.245-44.725-4.472-67.141
	c-0.026-0.485-0.709-0.121-0.727,0.233c-2.207,44.098,2.824,88.77,8.121,132.495c2.607,21.527,5.68,42.998,8.52,64.495
	c1.439,10.894,2.996,21.797,4.025,32.738c0.89,9.46,1.825,19.226,4.214,28.504c-0.283,0.518-0.399,1.089-0.274,1.631
	c-8.097,2.041-16.127,4.349-23.984,7.182c-9.896,3.568-20.745,7.95-27.984,15.839c-2.463,2.684-1.627,5.133,0.396,6.272
	c-0.082,0.289-0.014,0.558,0.379,0.6c13.286,1.424,27.291-1.115,40.547-2.293c14.91-1.325,29.808-2.779,44.707-4.215
	c29.287-2.821,58.576-5.632,87.897-8.078c29.336-2.447,58.722-4.485,88.13-5.848c14.996-0.695,30.005-1.163,45.016-1.403
	c12.59-0.201,25.365,0.721,37.926,0.058c0.751-0.04,1.457-0.302,2.104-0.688l0,0c6.355-1.129,12.213-3.461,18.188-5.908
	c9.424-3.861,18.785-7.875,28.096-12.002c8.565-3.798,17.115-7.702,25.525-11.835c2.272-1.117,4.54-2.275,6.727-3.56
	c2.43-0.155,4.868-0.42,7.427-0.607c5.076-0.371,9.915-4.678,10.977-9.633c0.334-1.558,0.182-3.02-0.335-4.271
	C514.918,489.702,515.498,486.317,512.98,483.535z M443.319,121.271C443.164,121.032,443.099,120.897,443.319,121.271
	L443.319,121.271z M284.142,129.73c-26.298,1.147-52.57,2.92-78.766,5.511c-12.928,1.278-25.822,2.966-38.681,4.811
	c-6.076,0.872-12.137,1.983-18.162,3.152c-1.235,0.24-2.443,0.532-3.643,0.845c-0.084-23.497-1.338-46.883-2.699-70.343
	c-0.531-9.169-0.688-18.154-0.603-27.325c0.077-8.309-0.967-16.932-4.118-24.6c-1.164-2.832-2.846-4.767-4.859-6.021
	c6.776,2.143,14.349,2.5,21.455,2.686c8.518,0.222,17.034,0.452,25.551,0.683c16.448,0.448,32.922,0.539,49.376,0.701
	c32.952,0.324,65.904,0.493,98.857,0.205c14.014-0.123,28.141,0.129,42.125-0.872c8.858-0.634,17.692-1.544,26.577-1.748
	c7.485-0.171,15.621,0.105,22.512,3.333c6.463,3.027,8.774,9.766,9.067,16.664c0.061,1.405-0.031,2.797-0.144,4.193
	c-0.028,0.332-0.072,0.854-0.086,1.012c-0.081,0.924-0.164,1.847-0.247,2.771c-0.362,4.045-0.729,8.09-1.079,12.137
	c-0.936,10.835-1.773,21.68-2.277,32.545c-0.437,9.408-0.72,18.917,0.127,28.31c0.25,2.778,0.565,6.086,1.396,9.185
	C378.602,127.266,331.312,127.672,284.142,129.73z M175.791,432.707c-3.769-15.48-7.467-30.976-10.808-46.555
	c-6.792-31.677-10.854-63.791-13.888-96.024c-1.52-16.141-2.511-32.312-3.668-48.48c-0.927-12.943-2.691-25.802-3.483-38.767
	c-0.698-11.431,0.541-22.472,1.178-33.76c8.862-0.328,17.992-2.647,26.782-3.397c10.836-0.924,21.738-1.179,32.606-1.431
	c23.435-0.544,46.787-1.777,70.192-3.061c24.879-1.365,49.77-2.598,74.679-3.241c23.813-0.615,47.947-1.43,71.736,0.582
	c-1.032,0.546-1.965,1.59-2.218,2.487c-2.021,7.156-1.006,15.051-0.987,22.444c0.021,7.807,0.201,15.601,0.489,23.402
	c0.597,16.134,2.032,32.257,3.62,48.32c3.186,32.229,8.646,64.085,15.895,95.645c10.686,46.534,23.123,97.156,52.97,135.657
	c-0.191,0.88-0.196,1.787,0.05,2.655c0.118,0.417,0.252,0.795,0.394,1.156c-7.715,1.084-15.414,2.309-23.156,3.13
	c-12.802,1.357-25.596,2.785-38.387,4.236c-26.755,3.034-53.492,6.215-80.247,9.247c-26.022,2.949-52.064,5.627-78.15,7.97
	c-12.706,1.141-25.422,2.169-38.147,3.077c-8.457,0.603-16.979,0.969-25.464,1.594c0.073-1.015-0.035-2.02-0.396-2.961
	c-0.642-1.674-1.889-2.718-3.377-3.25c-0.258-2.464-1.457-4.903-3.045-7.157c-1.729-2.454-4.851-6.103-5.567-7.734
	c-2.992-6.812-5.791-13.56-7.99-20.688C182.833,462.99,179.454,447.759,175.791,432.707z M459.196,513.556
	c-13.881,6.339-28.698,11.375-42.052,18.801c-0.329-0.05-0.692-0.071-1.101-0.049c-0.025,0.001-0.05,0.003-0.075,0.004
	c-11.277-0.521-22.786,0.209-34.058,0.428c-15.039,0.293-30.071,0.886-45.093,1.671c-30.174,1.577-60.271,4.114-90.342,7.039
	c-29.423,2.862-58.806,6.136-88.189,9.376c-14.952,1.648-29.908,3.267-44.862,4.906c-10.388,1.138-21.177,1.623-31.637,3.252
	c6.027-2.91,11.956-5.81,18.504-7.922c10.479-3.381,21.29-5.768,32.079-7.917c11.237-2.238,22.53-4.188,33.781-6.36
	c5.532-1.069,11.053-2.2,16.547-3.448c2.134-0.485,4.357-1.214,6.596-1.884c0.363,0.184,0.78,0.306,1.271,0.33
	c24.634,1.212,49.814-1.631,74.364-3.515c26.607-2.042,53.182-4.6,79.745-7.147c26.665-2.557,53.316-5.259,79.978-7.865
	c12.76-1.247,25.522-2.461,38.29-3.621c1.997-0.181,3.989-0.385,5.979-0.596C465.697,510.578,462.448,512.071,459.196,513.556z"/>
<path d="M68.748,53.424c1.949-2.25-0.489-4.763-2.926-3.335c-6.554,3.84-8.802,10.55-10.946,17.42
	c-2.785,8.918-2.787,18.966-2.723,28.226c0.132,18.925,2.617,37.721,3.609,56.601c1.739,33.114-0.813,66.271-1.502,99.378
	c-0.684,32.874,1.797,65.724,2.822,98.572c1.021,32.746,1.523,65.504,1.992,98.261c0.232,16.285,0.504,32.57,0.795,48.854
	c0.15,8.424,0.36,16.847,0.467,25.272c0.072,5.716,0.509,11.624,0.399,17.438c-3.345,2.126-5.632,6.456-3.089,9.675
	c2.092,2.649,3.088,4.459,6.691,5.252c6.516,1.433,12.408-5.82,11.072-11.799c-1.641-7.344-1.059-15.517-1.315-23.024
	c-0.286-8.401-0.451-16.806-0.641-25.209c-0.367-16.253-0.677-32.507-1.058-48.76c-0.764-32.667-1.602-65.333-2.8-97.987
	c-1.202-32.767-3.896-65.525-3.622-98.325c0.275-33.026,2.328-66.034,0.631-99.057c-0.898-17.469-3.266-34.819-4.016-52.299
	c-0.381-8.885-0.513-17.945,0.493-26.794C63.786,65.603,64.479,58.353,68.748,53.424z"/>
<path d="M107.785,61.338c0.553,0.936,1.49,1.328,2.563,0.935c10.658-3.909,5.712-18.976-0.286-24.726
	c-1.377-1.321-3.15-1.049-4.729-0.253c-4.483,2.26-40.193,26.964-34.209,31.631c0.431,0.336,1.262-0.511,0.867-0.931
	c-0.415-0.442,13.94-11.321,15.138-12.156c5.425-3.784,11.162-7.718,17.263-10.466c1.597,2.406,2.641,5.04,2.989,7.994
	C107.697,56.049,106.321,58.857,107.785,61.338z"/>
<path d="M191.736,55.445c-10.048-0.04-18.001,13.892-17.589,22.801c0.522,11.262,12.684,15.723,22.264,15.532
	c12.835-0.256,23.927-10.75,24.404-23.561C221.324,56.565,202.153,48.31,191.736,55.445z M199.381,79.91
	c-3.943,0.355-9.401-1.046-11.218-4.929c-1.514-3.237-0.726-6.173,1.067-8.583c0.152,0.108,0.3,0.219,0.475,0.316
	c3.095,1.728,6.685,0.754,10.05,1.562c2.51,0.603,4.733,2.793,5.744,5.071C207.517,77.892,203.02,79.582,199.381,79.91z"/>
<path d="M395.87,51.744c-7.572-1.765-20.058,0.467-24.215,7.653c-5.117,3.682-8.872,10.274-9.879,15.611
	c-1.616,8.572,3.797,15.696,11.684,18.267c12.223,3.985,23.832-6.547,29.613-16.143C408.7,67.791,408.142,54.605,395.87,51.744z
	 M370.932,65.003c0.069,0.138,0.133,0.277,0.22,0.413C370.934,65.074,370.884,64.97,370.932,65.003z M390.658,71.976
	c-0.023,0.057-0.046,0.111-0.076,0.187c-0.264,0.664-0.583,1.305-0.907,1.942c-0.061,0.119-0.187,0.337-0.307,0.541
	c-0.316,0.47-0.646,0.93-0.986,1.382c-0.147,0.196-0.311,0.379-0.467,0.568c-0.244,0.261-0.832,0.906-1.056,1.114
	c-0.375,0.348-0.773,0.668-1.172,0.988c-0.04,0.025-0.07,0.044-0.118,0.075c-0.454,0.292-0.932,0.545-1.408,0.797
	c-0.131,0.037-0.322,0.096-0.6,0.189c-0.137,0.046-0.466,0.127-0.725,0.191c-0.515,0.067-1.032,0.108-1.55,0.125
	c1.808-0.059-2.63-0.741-1.541-0.322c-5.735-2.209-6.244-7.138-4.263-11.728c0.393,0.043,0.796,0.063,1.228,0.041
	c4.367-0.231,6.684-1.42,10.688-1.528c-0.387,0.047,1.066,0.202,1.946,0.339c0.203,0.073,0.463,0.167,0.605,0.24
	c0.119,0.06,0.214,0.106,0.297,0.146c0.016,0.016,0.025,0.028,0.045,0.047c0.273,0.262,0.447,0.404,0.555,0.475
	c-0.002,0.111,0.044,0.334,0.201,0.773c0.006,0.015,0.009,0.022,0.014,0.036c0.047,0.377,0.061,0.756,0.061,1.136
	C391.096,68.787,390.846,71.141,390.658,71.976z"/>
<path d="M245.098,299.15c-4.842-4.478-6.791-11.265-8.73-16.846c-1.552-4.467-2.803-8.998-3.978-13.543
	c2.598-1.02,5.195-2.04,7.792-3.06c2.915-1.145-3.514-3.146-5.646-2.309c-1.066,0.419-2.131,0.837-3.197,1.256
	c-1.364-5.406-2.689-10.824-4.381-16.166c-0.984-3.107-2.303-7.765-7.088-8.711c-4.719-0.933-6.388,1.541-7.738,4.479
	c-2.318,5.046-4.125,10.234-4.729,15.499c-0.546,4.752,0.383,9.255,1.132,13.855c-2.46,0.966-4.921,1.933-7.381,2.899
	c-2.915,1.145,3.514,3.146,5.646,2.309c0.774-0.304,1.548-0.608,2.322-0.912c0.658,6.109,0.525,12.284,0.392,18.44
	c-0.03,1.369,6.003,0.548,6.039-1.124c0.144-6.621-0.117-13.061-0.811-19.524c3.967-1.558,7.934-3.116,11.901-4.674
	c0.004,0.017,0.009,0.034,0.013,0.051c1.39,5.294,2.907,10.572,4.907,15.733c1.846,4.762,3.69,10.149,7.86,14.005
	C240.645,301.937,246.452,300.402,245.098,299.15z M214.218,271.371c-0.171-1.239-0.355-2.48-0.559-3.726
	c-0.74-4.515-0.469-9.045,0.683-13.592c0.812-3.204,1.762-7.526,3.668-10.912c2.984,2.744,3.981,10.002,4.527,11.971
	c1.087,3.918,2.055,7.859,3.05,11.795C221.797,268.395,218.008,269.883,214.218,271.371z"/>
<path d="M330.385,294.755c-4.842-4.478-6.791-11.265-8.73-16.846c-1.552-4.467-2.803-8.998-3.978-13.543
	c2.598-1.02,5.195-2.04,7.793-3.06c2.915-1.145-3.514-3.146-5.646-2.309c-1.066,0.419-2.131,0.837-3.197,1.256
	c-1.364-5.406-2.689-10.824-4.381-16.166c-0.984-3.107-2.303-7.765-7.088-8.711c-4.719-0.933-6.388,1.541-7.738,4.479
	c-2.318,5.046-4.125,10.234-4.729,15.499c-0.546,4.752,0.383,9.255,1.132,13.855c-2.46,0.966-4.921,1.933-7.381,2.899
	c-2.915,1.145,3.514,3.146,5.646,2.309c0.774-0.304,1.548-0.608,2.322-0.912c0.658,6.109,0.525,12.284,0.392,18.44
	c-0.03,1.369,6.003,0.548,6.039-1.124c0.144-6.621-0.117-13.061-0.811-19.524c3.967-1.558,7.934-3.116,11.901-4.674
	c0.004,0.017,0.009,0.034,0.013,0.051c1.39,5.294,2.907,10.572,4.907,15.733c1.846,4.762,3.69,10.149,7.86,14.005
	C325.931,297.543,331.739,296.007,330.385,294.755z M299.505,266.977c-0.171-1.239-0.355-2.48-0.559-3.726
	c-0.74-4.515-0.469-9.045,0.683-13.592c0.812-3.204,1.762-7.526,3.668-10.912c2.984,2.744,3.981,10.002,4.527,11.971
	c1.087,3.918,2.055,7.859,3.05,11.795C307.084,264,303.294,265.489,299.505,266.977z"/>
<path d="M195.111,278.082c-3.487-2.445-7.542-4.11-11.464-5.72c-1.622-0.667-3.155-1.296-4.624-1.969
	c-0.76-0.348-1.608-0.677-2.506-1.026c-2.141-0.831-5.073-1.969-5.925-3.242c-0.718-1.074-0.79-3.341-0.168-5.275
	c1.453-4.513,5.089-6.289,9.976-4.874c4.281,1.24,5.296-1.802,5.398-2.153c0.739-2.549-1.632-5.162-4.221-5.913l0,0
	c-10.165-2.943-18.496,0.707-21.224,9.299c-1.312,4.13-0.844,8.551,1.251,11.824c2.252,3.517,5.981,5.102,9.272,6.501
	c0.627,0.267,1.245,0.529,1.84,0.801c1.556,0.713,3.114,1.42,4.672,2.129c3.084,1.402,6.273,2.852,9.386,4.307
	c2.868,1.342,2.669,2.48,2.075,3.94c-0.659,1.621-1.91,3.249-3.616,4.709c-3.473,2.971-8.573,4.66-12.689,4.209
	c-0.699-0.077-1.088-0.285-1.274-1.205c-0.473-2.344,1.19-6.173,2.674-7c1.64-0.913,2.177-2.857,1.25-4.522
	c-1.194-2.143-5.576-4.353-8.315-2.822c-4.75,2.645-7.12,10.714-5.728,15.466c1.245,4.251,5.103,7.278,10.584,8.307
	c2.191,0.411,4.551,0.501,6.945,0.27c7.907-0.764,16.169-5.026,19.808-12.754C200.907,286.229,199.646,281.261,195.111,278.082z"/>
<path d="M370.85,254.389c-2.091-9.664-9.143-21.739-20.273-22.282c-4.474-0.218-9.047,1.785-11.311,5.75
	c-0.881,1.542-1.564,3.28-2.117,5.101c-0.052-0.909-0.112-1.818-0.16-2.728c-0.124-2.33-1.919-5.312-3.836-6.612
	c-1.804-1.223-2.908-0.515-2.794,1.621c0.85,16.027,2.296,32.012,4.314,47.93c0.377,3.606,0.868,7.199,1.444,10.761
	c0.388,2.4,1.772,5.213,3.836,6.612c1.661,1.126,3.113,0.596,2.794-1.621c-0.497-3.46-0.956-6.925-1.397-10.392
	c-0.88-8.422-1.076-16.898-0.027-25.337c0.677-5.446,1.441-12.097,4.225-16.928c2.482-4.307,8.346-5.534,12.764-3.758
	c4.884,1.963,6.068,6.454,6.663,11.285c0.745,6.048,0.573,12.206-0.27,18.234c-0.693,4.951-1.569,11.019-5.512,14.554
	c-2.591,2.323-6.587,3.389-10.068,2.603c-1.131-1.48-2.506-2.504-3.767-2.168c-0.466,0.124-0.932,0.248-1.398,0.372
	c-2.909,0.774,2.092,8.04,3.233,8.792c8.55,5.63,18.818,2.114,22.09-7.593C372.83,278.063,373.188,265.196,370.85,254.389z"/>
<path d="M410.173,251.272c-2.956-4.6-6.299-9.582-11.114-12.467c-4.594-2.767-9.985-2.945-15.019-4.483
	c-2.23-0.692-1.611,2.11-1.152,3.252c0.542,1.274,1.512,2.646,2.662,3.721c-5.243,4.973-6.72,14.258-6.369,20.785
	c0.506,9.583,2.836,19.268,11.659,24.628c7.188,4.331,19.717,3.262,22.762-5.686C416.884,271.632,415.515,259.62,410.173,251.272z
	 M407.813,268.041c-0.423,4.298-1.267,8.567-5.305,10.841c-3.712,2.033-8.934,2.886-12.833,0.82
	c-3.015-1.593-2.867-6.563-3.015-9.55c-0.309-4.646-0.453-9.029,1.36-13.392c1.464-3.631,3.326-8.208,7.375-9.645
	c1.011-0.377,1.125-1.365,0.797-2.589c1.071,0.246,2.148,0.56,3.163,0.951c3.479,1.339,6.36,5.877,7.592,9.248
	C408.315,258.779,408.174,263.818,407.813,268.041z"/>
<path d="M271.117,261.69c0.876-5.188,0.583-10.749-1.334-15.505c-1.821-4.604-7.985-6.358-12.063-3.291
	c-2.944,2.228-4.116,6.878-5.258,10.147c-0.51,1.426-0.933,2.925-1.275,4.416c-1.081-5.323-2.249-10.719-3.33-16.042
	c-0.323-1.67-6.057-2.332-5.711-0.421c1.792,8.495,3.496,16.917,5.287,25.411c0.489,2.545,1.057,5.082,1.554,7.708
	c-0.03,6.402,0.758,12.888,2.413,19.127c0.38,1.421,5.736,2.363,5.742,0.742c-0.211-6.379-1.136-12.608-2.39-18.887
	c0.067-7.702,1.433-15.367,4.05-22.667c0.583-1.514,1.158-3.109,1.909-4.559c0.396-0.929,0.969-1.714,1.629-2.425
	c0.767-1.289,1.24-1.416,1.406-0.541c0.777,0.492,1.136,3.374,1.301,4.249c0.411,1.742,0.67,3.581,0.679,5.362
	c0.072,2.423-0.105,4.789-0.603,7.187c-0.08,0.008-0.161,0.015-0.241,0.023c-4.608,0.931-10.238,7.225-6.235,11.78
	c1.279,1.497,4.18,2.189,6.052,1.441c2.571-1.058,4.159-5.586,4.986-7.934c0.324-0.841,0.575-1.595,0.731-2.501
	c0.746,0.171,1.426,0.51,2.115,0.93c4.338,2.984,6.107,8.726,7.222,13.56c0.846,3.726,1.559,8.598-0.707,11.976
	c-2.839,4.162-13.474,5.593-15.381,0.107c-0.564-1.647-6.283-2.148-5.711-0.421c2.137,6.193,10.046,6.726,15.526,6.44
	c6.371-0.291,12.06-2.622,12.75-9.736C287.301,277.463,281.467,264.013,271.117,261.69z"/>
<path d="M364.854,417.56c-1.334-7.584-4.226-15.091-9.252-20.706c-4.375-4.887-10.274-7.365-16.319-8.681
	c-14.396-3.134-30.358-3.797-43.694,3.555c-6.479,3.572-11.688,8.721-15.369,14.961c0.078-2.125,0.415-4.239,0.494-6.391
	c1.192-32.452,33.257-44.375,53.871-51.231c4.285-1.425,3.566-9.251,2.891-12.852c-0.507-2.706-3.131-12.089-7.305-10.701
	c-24.168,8.038-55.346,20.697-59.771,59.331c-3.256,28.425,0.866,64.373,22.011,84.275c8.652,8.143,20.627,13.014,32.09,11.156
	c11.981-1.942,22.256-12.12,29.775-21.751C363.37,446.877,367.537,432.817,364.854,417.56z M354.644,419.296
	c0,0.001,0.001,0.002,0.001,0.003c0.002,0.103,0.005,0.21,0.005,0.307c-0.007-0.043-0.014-0.084-0.024-0.136
	C354.636,419.44,354.643,419.391,354.644,419.296z M354.645,419.298c-0.001-0.001-0.001-0.002-0.001-0.003
	c0.001-0.073,0-0.166-0.004-0.283C354.644,419.114,354.644,419.203,354.645,419.298z M346.484,437.422
	c-6.375,7.863-14.467,16.423-24.172,18.846c-8.279,2.067-17.301-0.131-24.415-5.146c-5.54-3.905-6.671-7.211-7.759-16.385
	c-1.087-9.175,2.418-14.391,8.859-18.733c8.977-6.052,20.629-7.104,30.993-6.215c5.202,0.446,10.604,1.257,15.606,2.944
	C349.024,413.89,353.319,428.636,346.484,437.422z"/>
</svg>
