<?xml version="1.0" encoding="utf-8"?>
<!-- Generator: Adobe Illustrator 23.0.1, SVG Export Plug-In . SVG Version: 6.00 Build 0)  -->
<svg version="1.1" id="Layer_1" xmlns="http://www.w3.org/2000/svg" xmlns:xlink="http://www.w3.org/1999/xlink" x="0px" y="0px"
	 viewBox="0 0 566.9 566.9" style="enable-background:new 0 0 566.9 566.9;" xml:space="preserve">
<g id="Layer_3">
	<path d="M542.6,132.7c-1.5-10-2.3-20.1-2.6-30.2c-0.4-13.9,1.5-28.8-1.5-42.5c-0.3-1.3-1.8-0.7-2.6,0.2c-0.6-1.2-2.2-1.7-3.5-1.7
		c-8.9,0.2-17.8,0.6-26.6,0.8c-8.9,0.2-18.9-0.8-27.4,2c-1.1,0.3-3.1,2.8-1.2,3.6c7.4,3,17,1.9,24.8,2c8.5,0.1,17,0.5,25.4,0.7
		c1.4,1.8,4.9,1.1,6.6-0.5c0.1,0,0.1-0.1,0.2-0.1c0.1-0.1,0.2-0.2,0.2-0.2c-1.6,11.8-1.3,24.2-1.4,35.9c-0.1,10,0.1,19.9,1.2,29.9
		c1,9.4,2.4,18.8,3.3,28.2c0.4,4,0.6,7.9,0.6,11.9c0,2.1-0.6,3.9-0.8,5.8c-2-0.6-3.8-0.8-6-0.7c-0.4,0-0.8,0.1-1.2,0.3
		c-68.7-5-137.6,1.1-206.3,1.3c-69.2,0.2-138.5-8.1-207.7-3.2c-12.7,0.9-25.4,2.3-38,4.5c0.8-1,1.3-2.1,1.3-3.3
		c0-2.3-0.3-3.9-1.4-5.6c-1.5-7.2-1.1-15.1-0.9-22.3c0.2-9.2,0.8-18.3,0.7-27.5c-0.2-9.9-1.2-19.7-2.8-29.4
		c-1.4-8.4-2-17.3-3.8-25.6c7.4,0.1,14.8,0.2,22.2,0.6c8,0.4,15.5-0.4,23.3-1c0.8,0,1.7,0,2.5-0.2c2.3-0.3,4.2-1.7,5.2-3.8
		c0.9-1.9,0.5-5.1-2.1-5.3c-3.8-0.2-7.4,1.3-11.1,1.7c-4.9,0.6-10,0.5-14.9,0.3c1.6-3,2.7-6.5,3.4-8.1c4-8.3,8.5-16.3,16.6-21.2
		c1.1-0.6,1.9-3.3-0.2-3c-8.3,1.4-14.1,10.7-18.2,17.2c-2.3,3.8-4.4,7.7-6.7,11.5c-0.7,1.2-1.6,2.2-2.3,3.2
		c-8.1-0.3-16.2-0.4-24,2.3c-0.3,0.1-0.7,0.3-1,0.6C57,62,50.4,61.2,43.8,60.6c-2.1-0.2-5.4,3-2.8,4.6c1.2,0.7,2.4,1.3,3.7,1.8
		c-0.8,0.3-1.5,1-1.6,1.6c-7.9,32.7-2.6,67.5-6,100.8c-3.6,35.8-6.1,71.9-7.7,107.9c-1.5,33.3,0.3,66.2,3,99.4
		c2.6,32.8,5.3,65.9,1.6,98.8c-0.8,6.9-2,13.6-3.6,20.3c-0.5,2,0.6,3.4,2.4,4c10.7,3.3,22.1,1.5,33.1,1.3c5.1-0.1,8.6-9.3,2-9.2
		c-9.3,0.2-18.7,1.7-27.9-0.2c10.6-63.1-3.6-126.7-3.5-190.1c0.1-35.9,3-71.9,5.7-107.8c1.3-17.3,2.8-34.5,2.9-51.8
		c0-16.9-0.5-33.8,0-50.7c0.3-7.9,1-15.7,1.6-23.5c0-0.1,0-0.1,0-0.1c4.8,1.6,10,2.2,14.9,2.7c1.3,0.1,2.6-0.2,3.7-0.9
		c-0.6,7.7,1.1,15.8,2.1,23.3c1.5,10.6,2.3,21,2.4,31.6c0.1,18.8-2.3,37,0.2,55.8c0.4,2.9,2.6,3.4,4.7,2.6c-0.8,1.5-0.6,3.1,1.5,2.9
		c68.9-7.1,137.8-1.6,206.7,0.7c71.5,2.4,143.1-4.9,214.6-1.4c12,0.6,24,1.6,36,2.8c2.4,0.2,6.2-2.6,7.2-5.3
		c1.1-0.2,2.2-0.8,2.8-1.2c5.3-4.1,3.6-13.8,3.1-19.7C545.7,152,544,142.3,542.6,132.7z"/>
	<path d="M154.9,91c0.4,6,9.7,1.9,9.3-3c0-0.6,0-1.3-0.1-2c-0.9-15.9,0-32-5.8-47.1c-1.9-5.1-7.2-15.3-13.7-15.9
		c-8.8-0.7-18.3-2.1-25.8,3.6c-1,0.7-1.2,3.1,0.6,2.8c0.6-0.1,1.1-0.2,1.7-0.3c-0.5,0.6-0.7,1.4-0.3,2.1c4.7,8,7.5,17.6,9.4,26.7
		c1.7,8.5,3.9,20,0.5,28.3c-0.7,1.7-0.7,3.6,1,4.7c1,0.6,2.1,0.5,3.2,0.2c2-0.6,3.7-2.4,4.2-4.4c2.2-9.3,0.7-19.8-1.2-29
		c-2.1-10.1-5.1-21.7-12.6-29.2c6-0.9,12.3-1,17.1,3.1c5.2,4.5,7.8,10.4,9.6,16.9c3.6,12.5,3.7,26.6,3,39.6
		C154.9,89,154.9,90.1,154.9,91z"/>
	<path d="M428.7,56.2c-9-0.3-18.1-2.4-27.2-2.8c-10.2-0.5-20.4-0.4-30.5-0.1c-21.1,0.6-42.2,2.4-63.3,3.1
		c-21.4,0.7-42.9,0.9-64.4,1.1c-23.5,0.2-46.7-1.5-70.2-2.8c-2.8-0.2-6.7,4.8-2.7,5.7c21.6,4.8,45,4.5,67,4.7
		c22.2,0.2,44.4,0.3,66.6-0.1c21.1-0.4,42.1-2.3,63.1-3c10.4-0.3,20.9-0.3,31.3,0.3c4.8,0.3,9.7,0.8,14.5,1.4c2.5,0.3,5,0.9,7.6,1.3
		c0.5,1.3,1.9,2,4.2,1.1c0.7-0.3,1.4-0.5,2-0.6h0.1l0,0c1.7-0.4,3.1-0.7,4.7-2.7c0.8-1,1.2-2.1,1.2-3.1c0.8,5.7,1.7,11.6,1.9,17.4
		c0.1,1.5,0.2,3,0.1,4.6c0,0.4,0,1.7,0,2.6c-0.2,1.7,0,3.2,1.6,4.3c2.7,2,7.2-1.7,7.6-4.4c1-8-1.4-17.6-2.6-25.3
		c-1.2-7.4-3-14.8-5-22c-1.6-5.6-3.9-12.5-8.2-16.7c2.2,0.1,4.3,0.1,6.5,0c4.2-0.2,10-1.7,13.3,1.5c5.6,5.5,9,12.5,11.2,19.9
		c3.9,13.1,3.2,26.8,2.8,40.4c-1,0.8-1.7,1.9-1.6,3c0.4,2.6,0.7,4,3,5.5c3.5,2.2,8.1-2.4,8-5.8C471,68,471.4,50.3,466,34.3
		c-2.7-7.9-7.5-15.1-13.9-20.4c-1-0.9-2.1-1.1-3.4-0.7c-2.8,0.9-6.1,0.7-9,1c-5.5,0.4-10.9,0.8-16.3,2.1c-0.4,0.1-0.8,0.4-1,0.7
		c-7.3-2.5-14.9,2.4-19.6,7.7c-5.7,6.4-9,16.1-11,24.3c-1.4,5.7,7.2,3.6,8.3-0.7c1.6-6.1,2.7-12,5.5-17.7c3.6-7.3,9-8.7,16.5-10.1
		c0.4-0.1,1-0.5,1.5-1c0.3,0.1,0.7,0.1,1,0.2c-0.6,0.5-1.1,1.2-0.9,2c0.9,5.3,3.1,10.5,4.6,15.7c1.9,6.9,3.3,13.9,4.3,21
		C431.8,57.2,430.6,56.2,428.7,56.2z"/>
	<path d="M151.3,98c0.9-1.7,0.4-4.7-1.9-4.8c-4.6-0.2-8.5,3.1-13.4,2.9c-2.3-0.1-4.7-0.9-6.4-2.4c-1.8-1.5-2.2-4.5-4.4-5.3
		c-0.6-0.2-1.2-0.1-1.6,0.3c-5.6,5.8,1.9,12.6,7.3,14.3C137.1,105,148,104.4,151.3,98z"/>
	<path d="M456.5,89.4c-8.3,4.6-21.9,4.3-27.6-4.3c-0.7-1.1-2.6,0.3-2.7,1.2c-1.9,16.8,23.1,15.9,33.2,10.7
		C464.9,94.2,462.7,86,456.5,89.4z"/>
	<path d="M87.6,164.2c-3.1,0.3-7.3,6.8-2.5,7.3c3.5,0.4,7.1,0.5,10.6,0.7c3.3,0.2,6.7,0.9,10.1,0.8c2.9-0.1,8.1-6.2,3.7-7.9
		C103.2,162.5,94.3,163.5,87.6,164.2z"/>
	<path d="M127.7,168c3.2,1.4,7.1,1.4,10.5,1.5c4.6,0.1,8.8,0.3,12.9-2.1c1.4-0.8,4-4.6,1.2-5.6c-3.5-1.3-6.5-0.8-10.1-0.6
		c-3.8,0.3-7.6,0.1-11.4,0.4C128.4,161.7,124.2,166.4,127.7,168z"/>
	<path d="M183.9,160.3c-3.4,0.2-6.9,0.5-10.3,1.1c-2.5,0.4-6.3,5.4-2.1,6.2c6,1.2,14.9,2.9,20.1-1.2c1.2-1,1.8-2.8,0.9-4.1
		C190.9,159.9,186.4,160.2,183.9,160.3z"/>
	<path d="M217.7,161.2c-2.7,0.5-6.8,5.8-2.3,6.7c5.7,1.1,12.5,1.7,18.3,1.1c2.2-0.2,4.2-1.7,5.1-3.7c0.9-1.9,0.5-4.9-2.1-5.2
		C230.6,159.5,223.7,160.1,217.7,161.2z"/>
	<path d="M268.7,160.9c-3.6-0.1-7.6,0-11.1,0.9c-2.5,0.7-4.3,4.6-1.2,5.6c2.9,1,6.4,1.3,9.4,1.7c3.2,0.4,6.1,1.1,9.3,0.3
		c2.7-0.7,6.1-5.7,2.6-7.5C275.1,160.5,271.7,160.9,268.7,160.9z"/>
	<path d="M312.2,162.1c-4.5,0.3-8.9,0.2-13.5-0.1c-2.1-0.1-5.7,3.2-2.9,4.8c6.3,3.7,14.3,2.6,21.3,2.9c2,0.1,3.8-1.8,4.7-3.4
		C324.4,161.4,314.9,161.9,312.2,162.1z"/>
	<path d="M353.2,161.4c-3.9,0.2-8.3,0-12,1.4c-1.7,0.6-4.7,4.2-1.9,5.5c3,1.4,7,1.2,10.3,1.4c3.6,0.2,8.6,1.3,11.8-0.9
		c1.8-1.3,4-4,2.1-6.2C361.3,160.1,356.1,161.3,353.2,161.4z"/>
	<path d="M380.7,162.3c-1.7,0.3-4.5,3.8-1.5,4.4c5.8,1.2,11.8,1.2,17.7,1.8c4.2,0.5,10.9,2.7,12-3.6c0.3-1.8-0.5-3.6-2.4-4
		C397.9,159.4,389.2,160.6,380.7,162.3z"/>
	<path d="M440.3,161.4c-5,0.2-10.1,0.9-14.9,2c-2,0.5-3.6,3.9-1,4.6c4.2,1.2,8.6,1.6,13,1.9c4.5,0.3,9.6,1.3,13.4-1.4
		c1.6-1.1,3.5-3.5,1.9-5.4C450,159.7,444.2,161.2,440.3,161.4z"/>
	<path d="M465.3,166.6c7.2,1.6,14.8,1.6,22.1,2.2c5.8,0.5,9.4-9.2,3-8.7c-7.9,0.7-15.9,0.7-23.6,2.2
		C465.1,162.7,462.5,166,465.3,166.6z"/>
	<path d="M526.3,169.1c5.5,0.7,9.7-9.1,2.7-9.2c-5.7,0-12.2,0-17.7,1.8c-1.6,0.5-4.7,4.2-1.9,5.4
		C514.5,169.2,520.9,169.2,526.3,169.1z"/>
	<path d="M540.7,191.6c-0.2-2.2-3.1-0.5-3.2,1c-4.9,69.1,4,139.3-13.7,207.2c-7.1,27.1-19.8,51.7-41.7,69.7
		c-12.8,10.5-28.8,17.3-43.4,25c-9,4.7-17.2,10.3-25.6,16.1c-1.1,0.7-2.1,1.5-3.2,2.2c6.7-8,11.5-17.9,15.8-27.4
		c4.9-10.9,9-22.2,12.5-33.6c0.7-2.2,1.4-4.5,2.2-6.8c2.8,8.4,11.1,12.9,20.9,13.8c13.6,1.3,25.8-4,34.9-13.9
		c8.4-9.1,15.8-22.2,17.4-34.6c0.3-2.3-2.5-2.1-3.5-0.7c-10.5,14.4-15.8,34.9-35.2,40.1c-2.5,0.7-5.3,1-8.2,0.9
		c1.2-1.6,2-4.4-0.6-4.6c-0.2,0-0.4,0-0.6,0c2-3.8,3.1-8.1,0.7-11.9c-3.6-5.7-10.7-1.5-13.8,2.3c-0.7,0.9,0.2,1.9,1.1,1.3
		c2.5-1.5,7.1-4.2,8.7-0.2c1.4,3.6-1.4,8.5-4,10.7c-0.2,0.2-0.4,0.4-0.6,0.7c-3.1-1.1-5.8-2.8-7.8-5.2c-2.9-3.5-3.1-8.7-2.2-12.9
		c1.2-6.1,6-9.8,12-10.6c0.9-0.1,2.1-1.7,0.7-2.1c-7.5-2.2-13.9,2.1-17.5,8.3c-0.3-0.4-1.1-0.1-1.3,0.4
		c-6.6,16.8-11.4,34.2-19.2,50.6c-4.4,9.2-8.9,18.6-15,26.9c-2,2.8-4.3,5.4-7,7.5c-1.7,1.3-3.1,1.2-5.8,1.8
		c-1.8,0.4-4.3,3.1-4.1,5.3c-9.1-2.5-18.6-3.5-28.1-4.3c-12.7-1.1-25.3-1.9-38-2.5c-27-1.1-54-1-80.9-0.6
		c-26.4,0.4-52.8,0.7-79.1,0.5c-13.8-0.1-27.5-0.3-41.3,0.1c-12.2,0.3-25.5,0.3-37.3,3.9c0.1-0.1,0.1-0.3,0.2-0.4
		c1.7-5.1-0.8-11.4-1.4-16.5c-1-9.3-1.5-18.5-1.7-27.9c-0.4-15.9,0.3-31.8,0.3-47.7c0.1-15.8-0.3-31.5,0-47.3
		c0.6-30.9,2.1-61.8,0.9-92.6s-4.5-61.6-6.8-92.3c-0.2-3.2-4.6-0.7-4.8,1.5c-2,30.3,2.4,60.9,3.8,91.1c1.5,30.8-0.1,61.8-0.8,92.6
		c-0.7,30.9-0.6,61.9-0.7,92.9c0,10,0.4,20,1.2,30.1c0.3,4,0.5,8,0.4,12.1c0,1.4,0.2,3,0.5,4.3c0.1,0.5,0.4,2.3,0.4,1.6
		c0.2,1.3,0.9,2.4,2.4,2.6l0,0c0.7,0.1,1.4,0,2.1-0.2c0.2,0.3,0.5,0.5,1,0.6c11.8,1.6,24.5-0.3,36.4-0.6c13-0.3,26-0.1,39,0.2
		c26.4,0.5,52.7,0.5,79.1,0.4c26.3-0.1,52.5-0.3,78.8,0.6c12.8,0.5,25.6,1.3,38.3,2.4c10.1,0.8,20.4,1.7,30.2,4.2
		c2,1.3,4.2,1.9,6.9,2.1c0.7,0,1.4-0.1,2.1-0.3c0,0.1,0.1,0.3,0.1,0.4c1.2,3.5,5.6,2,7.7-0.8c0,0,0,0,0.1,0c0.5-0.4,0.9-0.7,1.4-1.1
		c1.4-1,2.7-2.1,4.1-3.2c4-3,8.1-5.9,12.1-8.7c9.1-6.4,18.1-11.9,27.9-17.1c14.2-7.5,28.9-14.7,41.3-25.1
		c10.3-8.5,19.1-19,25.9-30.5c15-25.1,21-54.2,24.8-82.8c4.5-34.2,4.9-68.8,4.4-103.2C543.1,235.6,542.4,213.5,540.7,191.6z
		 M402.3,525c0,0.1,0.1,0.2,0.1,0.4C402.3,525.3,402.3,525.1,402.3,525z"/>
	<path d="M126,367.6c-0.5-4.7-0.5-9.5-0.7-14.3c-0.1-3.2-4.4-2.1-5.6-0.3c-2.3,3.5-5.5,6.1-7.6,9.7c-1.8,3,2.6,3.3,4.2,1.5
		c0.8-0.9,1.6-1.7,2.4-2.6c-0.1,2.5-0.2,5.1-0.4,7.5C117.7,375,126.6,372.3,126,367.6z"/>
	<path d="M147.5,368.1c-1.4,0.9-4.1,4.6-1.2,5.7c5.6,2.2,13.2,3,18.1-1.2c2.9-2.5,1.9-7.1-2.4-6.1c-1.8,0.4-3.3,1.5-5.2,1.8
		c-0.4,0.1-0.9,0.1-1.3,0.1c3.6-3.8,6.3-8.6,6.6-13.7c0.1-2.4-0.8-4.8-3.4-5.3c-3.4-0.6-7,2.4-8.8,4.8c-1.7,2.2,0.4,4.5,2.8,3.1
		c1-0.6,1.9-1.2,2.9-1.8c0.1-0.1,0.2-0.1,0.3-0.1c0,0.4-0.1,1.2-0.2,1.9C154.7,361.8,151.2,365.8,147.5,368.1z"/>
	<path d="M190.3,369c0.1-0.1,0.2-0.2,0.3-0.3C190.6,368.7,190.5,368.8,190.3,369z"/>
	<path d="M189.2,370.2c0.1-0.1,0.1-0.2,0.2-0.3C189.3,370.1,189.3,370.1,189.2,370.2z"/>
	<path d="M188.2,352.3c-1.7,0.7-3.4,4.2-0.3,4.1c2.7-0.1,5.5-0.5,8.1,0.5c2.9,1.1,0.9,2.6-0.7,4.1c-3,2.7-0.9,7.2,3,5
		c1.8-1,4.2-2.2,5.4-1.5c-0.1,0,0.2,0.5,0.2,0.8c0.1,0.6-0.1,1.2-0.3,1.6c-0.7,1.7-1.5,2.5-2.4,2.8c-1.8,0.7-3.4-0.6-5.7-1.7
		c-1.6-0.8-3.5-0.2-4.9,0.8c0.3-0.1-1.6,1.9-1.4,1.5c-0.8,1.3-1.5,3.4-0.2,4.6c7.1,6.6,18.2,0.8,21.1-7.2c1.2-3.2,1.5-7.1-1.5-9.3
		c-1.4-1-3-1.3-4.7-1.1c0.1-1.4-0.3-2.7-1.4-4C199.4,349.6,192,350.7,188.2,352.3z"/>
	<path d="M239,376.1c0,1.8,0.8,2.6,2,2.8c2.6,0.4,6.8-2.4,6.8-5.6c0-0.4,0-0.8,0-1.2c-0.1-6.3-0.7-12.7-0.7-19
		c0-4.6-6.8-1.6-7.4,1.5c-0.5,2.5-1.2,5.7-4.3,4.3c-3-1.4-3.4-5.2-4.3-8c-0.7-2.1-3.7-0.5-4.2,0.9c-2.2,5.8,0,12.7,6.3,14.4
		c2.2,0.6,4.2,0.3,6-0.7c-0.1,3.1-0.3,6.2-0.4,9.2C239,375.2,239,375.6,239,376.1z"/>
	<path d="M281.1,372.4c-0.2-0.1-0.4-0.2-0.7-0.4c-0.8-0.5-1.7-1.3-3-1.6c-2.7-0.7-6.6,0.8-6.2,4.2c0.4,2.8,1.4,4.4,4,5.5
		c8.7,3.6,14.8-6.3,14.7-13.8c0-2.6-1-5.3-2.9-7.1c1.7-0.1,3.5-0.2,5.2-0.2c3.6,0,7.6-6.9,2.7-7.8c-6.3-1.1-14.5,0.9-21,3.2
		c0-0.3-0.1-0.5-0.1-0.8c-0.2-2.1-2.8-0.8-3.4,0.3c-0.6,1.1-1,2.2-1.2,3.4c-0.3,0.5-0.4,1.1-0.3,1.5c-0.2,1.8-0.2,3.7-0.4,5.6
		c-0.3,2.8,2.3,4,4.6,2.6c2.9-1.7,6.6-3.8,8.5-1.2C282.7,367.4,282.1,370.4,281.1,372.4C281.2,372.3,281.2,372.4,281.1,372.4z"/>
	<path d="M317.4,373.3c0.9,0.5,1.9,0.9,2.8,1.2c1.5,0.6,1.6,1.2,1.3-0.1c0,0.2,0.1,0.4,0.1,0.5c1.1,4.1,7.6-0.3,6.8-3.9
		c-0.4-1.8,1.3-3.5,0.4-5.6c-1.4-3.3-6.4-2.7-9.5-2c0.2-3.7,5.9-8.5,7.9-10.2c1.9-1.5,0.5-4.3-1.8-3c-5.9,3.3-13.6,9-12.6,16.7
		C313.3,369.9,315.1,371.9,317.4,373.3z M321.5,374.3v-0.1l0,0C321.5,374.2,321.5,374.3,321.5,374.3z"/>
	<path d="M373.5,370.6c-0.2-1.7-0.4-3.4-0.5-5.1c0.4-0.2,0.9-0.5,1.3-0.8c2.4-1.8,2.6-5.4-0.4-6.4c-0.4-0.1-0.8-0.2-1.3-0.2
		c-0.1-2.3-0.2-4.6-0.4-6.9c-0.1-1.2-1.1-2-2.3-1.9c-3.5,0.5-6.9,0.5-10,2.4c-1.7,1-1.8,3.8,0.7,3.3c1.9-0.4,3.8-0.4,5.7-0.3
		c-0.1,1.4-0.2,2.8-0.2,4.2c-0.8,0.2-1.6,0.3-2.3,0.4c-3.7,0.4-7.5,0.6-11.1,1.7c-1.3,0.4-3.7,3.5-1.5,4.3c3.5,1.3,7.4,1.3,11.1,1.5
		c1,0,1.9,0.1,2.9,0.1c-1.4,1.1-2.3,3.2-1.2,4.7c0.6,0.9,0.9,1.7,1.3,2.7C366.7,378.8,374.1,374.3,373.5,370.6z"/>
	<path d="M398.8,370.5c-3,6.1,1.4,11.5,6.3,14.7c6.5,4.2,13.8,0.9,17.1-5.6c2.6-5.2,2.9-12.4-0.3-17.3c-0.9-1.5-2.2-2.3-3.5-2.8
		c1.5-1.9,2.6-4,2.8-6.5c0.2-2.2-1.4-4.2-3.3-5c-2.4-1-5-0.8-7.4-0.1c-2.9,0.8-7.9,3.5-7.4,7.1c0.1,0.4,0.2,0.8,0.4,1.1
		c-0.5,2-0.3,4.1,0.9,6.1c0.4,0.6,0.8,1.1,1.3,1.5C402.6,365.1,400.1,367.9,398.8,370.5z M411.3,359L411.3,359L411.3,359L411.3,359z
		 M414.3,355C414.3,355,414.3,355.1,414.3,355L414.3,355L414.3,355L414.3,355z M413.7,367.4L413.7,367.4c0.1,0,0.1,0,0.1,0l0,0
		C413.8,367.4,413.7,367.4,413.7,367.4z M413.8,367.4h0.1C413.9,367.4,413.9,367.4,413.8,367.4L413.8,367.4z M414.1,379.8
		L414.1,379.8C414.1,379.7,414.2,379.7,414.1,379.8C414.2,379.7,414.2,379.7,414.1,379.8C414.2,379.7,414.2,379.7,414.1,379.8z
		 M414.3,379.7L414.3,379.7C414.3,379.6,414.3,379.6,414.3,379.7C414.3,379.6,414.3,379.6,414.3,379.7z M415.7,376.7
		c0,0.1-0.2,0.7-0.3,0.9c-0.1,0.3-0.3,0.7-0.4,1c-0.1,0.1-0.1,0.2-0.1,0.3l-0.1,0.1c-0.1,0.1-0.3,0.4-0.4,0.5s-0.2,0.2-0.3,0.2l0,0
		c-0.1,0-0.1,0-0.1,0.1c-0.1,0-0.2,0-0.4,0c-0.2,0-0.4,0-1.1-0.2c-2.5-0.5-5.9-3.1-7.1-5.6c-0.7-1.3-0.6-2.5-0.2-3.5
		c0.8,0.5,1.8,0.6,2.7,0.3c1.8-0.6,3.1-1.6,4.6-2.8c0.1,0,0.1-0.1,0.1-0.1c0.2-0.1,0.4-0.3,0.6-0.4s0.3-0.2,0.3-0.2s0,0,0.2,0l0,0
		c0.1,0,0.2,0,0.3,0c0.1,0.1,0.4,0.2,0.5,0.2l0,0c0,0,0.1,0.2,0.3,0.4c0.1,0.1,0.1,0.2,0.2,0.2c0,0,0,0.1,0.1,0.1
		c0.2,0.3,0.3,0.7,0.5,1.1c0.4,1.2,0.3,0.8,0.5,1.9C416.3,373.7,416.2,374.6,415.7,376.7z M414.3,354.9L414.3,354.9L414.3,354.9
		L414.3,354.9z M413.7,354.5c0,0,0.1,0,0.1,0.1c0.1,0,0.2,0.1,0.3,0.2c0,0.1,0.1,0.1,0.1,0.1c0,0.1,0,0.2,0.1,0.2v0.1
		c-0.1,0.3-0.2,0.7-0.6,1.2c-0.4,0.7-1.3,1.7-1.7,2c0,0-1,0.8-0.4,0.4c-0.1,0-0.1,0.1-0.2,0.1c0,0-0.1,0-0.2,0.1l0,0
		c0.5-0.1-0.1-0.1-0.1,0c-0.2,0-0.4-0.1-0.4,0c-0.5-0.2-0.8-0.5-1-0.6c-0.6-0.6-1-1.5-0.9-2.3c0-0.2,0.1-0.3,0.1-0.5
		c0.4-0.2,0.8-0.5,1.2-0.7c-0.6,0.3,1.3-0.3,1.1-0.3c0.3-0.1,0.6-0.1,0.9-0.1c0,0,0.5,0,0.6,0c0.2,0,0.4,0.1,0.7,0.1
		C413.6,354.5,413.6,354.5,413.7,354.5z"/>
	<path d="M467.6,348.3c-7.9-2.8-22.6,1.5-21.7,11.9c0.7,7.8,8.8,9.7,15.9,7.7c-1.8,1-3.8,1.6-5.8,1.8c-3,0.3-5-1.3-7.8-1.5
		c-0.9-0.1-2,0.5-2.1,1.5c-0.4,4.2,4.9,6.5,8.5,6.5c5.1,0,9.8-2.2,13.8-5.3C475.5,365.4,478.2,352,467.6,348.3z M454.6,357
		c-0.7-1.7,8.1-1.5,9.4-0.9c0.5,0.2,0.9,0.5,1.2,0.8C461.5,359.3,456.9,362.7,454.6,357z"/>
	<path d="M108.8,397.5c-0.6,3.5-0.8,7.1-1.1,10.6c-0.2,2.7-1.6,7.5,1.9,8.3c1,0.3,2-0.2,2.9-0.9c0.1-0.1,0.2-0.1,0.2-0.2
		c1.4-1.1,1.9-2.5,2-4c0.3,1,0.9,1.9,1.8,2.5c3.2,2.3,7.6-1.4,9.6-3.6c2.4-2.7,3.9-6.6,3.1-10.1c-1.1-4.7-6.8-5.6-10.8-5.6
		c-1.8,0-3.5,1.6-4.3,3.1c-0.2,0.3-0.3,0.7-0.5,1c-0.1-0.7-0.2-1.5-0.3-2.2C112.9,393.8,109.1,395.4,108.8,397.5z M122,402.8
		L122,402.8c0.2,0.2,0.2,0.3,0.3,0.3c0,0.1,0.2,0.4,0.3,0.5c0,0,0,0.1,0.1,0.2c0,0.2,0,0.4,0,0.7l0,0l0,0c0,0.3-0.1,0.6-0.2,0.9
		c0,0,0,0,0,0.1c-0.1,0.3-0.2,0.6-0.4,0.8c0,0.1-0.2,0.3-0.3,0.5c-0.1,0.1-0.1,0.2-0.2,0.2c-0.2-1.2-0.6-2.3-0.8-3.5
		c-0.1-0.5-0.1-0.8-0.2-1.2c0.2,0.1,0.5,0.1,0.6,0.1c0.2,0.1,0.4,0.2,0.5,0.3C121.9,402.7,122,402.7,122,402.8z"/>
	<path d="M155.5,415.2c1-0.6,2.9-2.3,2.1-3.7c-0.2-0.3-0.3-0.6-0.3-0.7c-0.1-0.8-0.1-1.6-0.4-2.4c-1.3-4.1,0.2-9.4-2-13.2
		c-0.9-1.6-3-0.6-3.6,0.7c-1.8,4.1-1.9,9.4-2,13.8c0,1.6-0.1,3.8,1.2,4.9C151.8,415.7,153.9,416.2,155.5,415.2z"/>
	<path d="M164.7,394.1c-0.5-1.9-3.3-0.1-3.5,1.1c-0.7,3.7-0.6,7.4-0.3,11.1c0.1,1.6,0.3,3.1,0.3,4.7c0,0.4-0.1,1.5-0.1,1.7
		c0,0.3,0,0.5,0,0.6c-0.1,0.6,0,1.3,0.5,1.9c1.4,1.8,4.2,0.8,5.6-0.4c2-1.8,2.6-4.2,2-6.8C168.1,403.3,165.9,398.9,164.7,394.1z"/>
	<path d="M273.8,481.5c-0.5-1.9-3.3-0.1-3.5,1.1c-0.7,3.7-0.6,7.4-0.3,11.1c0.1,1.6,0.3,3.1,0.3,4.7c0,0.4-0.1,1.5-0.1,1.7
		c0,0.3,0,0.5,0,0.6c-0.1,0.6,0,1.3,0.5,1.9c1.4,1.8,4.2,0.8,5.6-0.4c2-1.8,2.6-4.2,2-6.8C277.3,490.7,275.1,486.3,273.8,481.5z"/>
	<path d="M200.7,411.8c0.5-0.8,0.6-2.1,0.4-3c-0.3-1.7-0.4-3.4-0.6-5.1c-0.2-1.9-0.2-3.9-0.6-5.9c-0.2-1.2-0.5-2.7-0.4-4
		c0.2-1.8-2-1.3-2.6-0.1c-1.6,3.3-2.3,7.1-2.8,10.6c-0.3,2-0.6,4-1,6c-0.2,0.9-0.3,2,0.1,2.9c0.2,0.4,0.3,0.7,0.6,0.9
		c0.2,0.3,0.5,0.6,0.9,0.9l0,0c2.1,1.1,4.7-0.7,5.6-2.5l0,0C200.4,412.3,200.6,412.1,200.7,411.8z M193.7,413.8L193.7,413.8
		L193.7,413.8L193.7,413.8z"/>
	<path d="M200.3,412.5C200.1,412.9,200.2,412.9,200.3,412.5L200.3,412.5z"/>
	<path d="M215.5,399.8c-0.4-6.7-7.7-7.8-12.9-6.2c-1.2,0.4-2.6,2.7-0.7,3.2c3.3,0.7,7.3,1.4,6.6,5.6c-0.5,3.4-3.1,6.2-5.7,8.1
		c-2.6,1.9-2.2,5.9,1.3,6c2.9,0.1,5.8,0.3,8.8,0.3c4.4-0.1,7.4-7.7,1.7-7.9c-0.6,0-1.2,0-1.7,0C214.6,406.1,215.7,402.9,215.5,399.8
		z"/>
	<path d="M238.6,413.8c1.2,4.6,7.8-0.3,7.8-3.4c0-1.2-0.6-3.1-1.7-4.1c-2-4.6-3.7-9.3-6.6-13.4c-0.8-1.2-2.9,0.5-2.8,1.6
		C236.3,400.9,236.8,407.5,238.6,413.8z"/>
	<path d="M254.1,393.2c-1.7-2.5-5.8-2.1-7.9-0.7c-0.9,0.6-1.8,1.8-1,2.9c1,1.3,2.5,1,3.4,2.1c0.9,1-0.7,4.6-1,5.6
		c-0.5,1.5,0.6,2.8,1.9,3.2c0.4,0.1,0.7,0.2,1,0.4c-2.3,1.6-4.2,4.8-1.2,6.4s7.1-0.2,9.7-1.7c2.1-1.3,3.9-4.5,1.3-6.3
		c-1.1-0.8-1.5-2.1-2.3-3.2c-0.7-0.9-1.7-1.5-2.8-1.9C255.5,397.6,255.5,395.3,254.1,393.2z"/>
	<path d="M280.1,414.7c0.6,1.8,2.8,2.7,5.1,1.4c3-1.7,3.3-4.4,3-7.5c-0.6-5.6-1.6-11.2-3.4-16.6c-0.6-1.7-2.9,0-3.2,1
		c-0.9,3.7-1,7.4-1.1,11.2c-0.1,2.1-0.1,4.2-0.2,6.3c0,0.6-0.2,1.2-0.3,1.8c-0.1,0.4-0.1,0.9-0.1,1.3
		C279.8,414.9,279.9,415,280.1,414.7z M285.1,409.1C285.5,409.1,285.6,409.1,285.1,409.1L285.1,409.1z"/>
	<path d="M299.7,420.4c3.4-1.1,4.4-4.3,4.5-7.4c0.3-5.9-0.7-11.9-0.8-17.9c-0.1-4.6-5.9-1.4-7.1,1.2c-0.3-1.5-0.6-3-1-4.5
		c-0.7-2.5-4.1,0-4.4,1.4c-1,4.3-1.2,8.8-0.5,13.2c0.3,1.7,1.3,2.4,3,2.4c0.9,0,1.8-0.2,2.5-0.5c0,0.5,0,1.1,0,1.6
		c-0.1,2.2-0.8,5-0.7,7.5c0,0.1-0.1,0.3-0.1,0.4C295,420.1,297.6,421,299.7,420.4z M299.9,412.9C300,412.9,300,412.9,299.9,412.9
		c0.2,0,0.4,0,0.5,0C300.3,412.9,300.1,412.9,299.9,412.9z"/>
	<path d="M321.3,415.3c0.5,0.2,1,0.3,1.5,0.2c1.5,0,3-0.8,3.8-2c0.1-0.1,0.1-0.2,0.2-0.3c0.5-0.6,0.9-1.3,1-2c0.1-1,0.1-1.8-0.1-2.8
		c-0.5-1.6-0.9-3.3-1.3-5c-0.8-3.2-1.9-6.1-2.9-9.2c-0.6-1.8-3,0-3.2,1c-0.8,3.2-0.9,6.3-1.1,9.5c-0.1,2.8-0.7,7.5,1.1,9.8
		C320.4,414.8,320.8,415.1,321.3,415.3C321.2,415.2,321.2,415.3,321.3,415.3z M327.5,410.9c0-0.1,0-0.1,0-0.2
		C327.5,410.7,327.5,410.7,327.5,410.9C327.5,410.8,327.5,410.8,327.5,410.9z"/>
	<path d="M341.3,389.5c-3.5-2-9.1,0.9-11.6,4c-0.8,0.6-1.4,1.3-1.3,2.4s1.1,1.6,2.1,1.4c0.1,0,0.3,0,0.4,0.1c0,0,0,0,0,0.1
		c0.5,2.4,1.1,4.8,1.4,7.2c-0.8,0.4-1.5,1.1-1.8,1.9c-0.9,2.4-2.6,4.2-0.6,6.9c1.6,2.3,5.4,1.3,7.4,0.4c1.4-0.7,2.9-2.6,2.6-4.2
		c-0.6-4-1.1-8.8-3.4-12.3c1.2-0.2,2.3-0.4,3.4-1.1C342,394.9,344.1,391.1,341.3,389.5z"/>
	<path d="M363.3,410c-1.4-5.4-1.5-11.1-2.2-16.6c-0.3-2-3.2-0.9-3.4,0.7c-1,7.7-1,15.4,0.6,23c0.9,4.4,6.6,1.2,6.7-2.1
		C364.9,413.2,364.9,411,363.3,410z"/>
	<path d="M383,394.3c1.1-0.7,2.1-3.5-0.2-3.2c-10.2,1.1-18.2,14.3-13.3,23.5c3.5,6.5,10.1,2.9,13.1-2c2.1-3.4,4.5-11.4-1.3-12.6
		c-1.8-0.4-3.8,0.2-5.7,1.2C377.4,398.4,380.3,396.1,383,394.3z M378.3,406.5c0,0.2,0.1,0.5,0,1c-0.2,1.3-0.7,2.5-1.3,3.7
		c-0.1,0.2-0.5,0.7-0.7,1l0,0l0,0c-0.5-0.3-0.9-0.9-1.2-1.4c0.1-0.1,0.1-0.3,0.2-0.4c0.3-0.9,0.6-1.7,0.7-2.7c0.6-0.4,1.3-0.9,2-1.2
		C378.2,406.5,378.3,406.5,378.3,406.5z"/>
	<path d="M407.7,414.1c1.4,0.5,3-0.7,3.8-1.7c2-2.4,0.2-6.2-0.5-8.9c-0.8-3-1.7-6-2.3-9.1c-0.5-2.3-3.7-1-3.9,0.8
		c-0.8,5.6,1,11.1,0.9,16.6c0,1.2,0.9,1.8,1.9,2.2C407.6,414.1,407.7,414.1,407.7,414.1z"/>
	<path d="M428.8,402.2c-0.9-5.8-6.5-15.4-13.1-9.3c-0.6,0.6-1.4,2.2-0.2,2.7c-0.5-0.2,1.1,0.7,1.8,0.7c1,0,1.7,0.4,2.4,1
		c1.5,1.4,2.1,3.7,2.5,5.6c0.4,2.2,0.5,4.5,0.1,6.6c-0.1,0.7-0.3,1.3-0.6,1.9l0,0c0.1-0.3-0.2,0.2-0.2,0.2c-0.1,0.1-0.1,0.1-0.2,0.2
		c-1.2,1.2-2.6,4-0.4,5.1c3.4,1.7,6.7-2.1,7.6-5.1C429.3,408.8,429.3,405.3,428.8,402.2z M421.6,411.5L421.6,411.5L421.6,411.5
		L421.6,411.5z"/>
	<path d="M479.6,397.5c1.1-1.8,1.3-3.9,0.7-5.9c-0.8-2.6-3.7-4.8-6.4-3.7c-0.2,0.1-0.4,0.2-0.6,0.3c-4-0.4-8.6,2.7-10.1,6.1
		c-0.2,0.6-0.4,1.2-0.5,1.8c-0.4-2.1-0.9-4.2-1.6-6.2c-0.6-1.5-2.5,0-2.8,0.9c-0.9,3.2-1.5,26.8,6.2,21.9c3.5-2.2,1.5-5.2,0.3-8.1
		c-0.4-1.1-0.8-2.3-1.1-3.5c0.9,1.3,2.2,2.2,3.9,2.6c-0.3,0.6-0.3,1.4,0.2,1.9s1.1,0.8,1.7,1c-0.8,1.5-1.3,3.1-1.2,4.9
		c0.2,3,2.3,5.4,5.1,6.4c3,1,6.1-0.1,8.4-2c3.4-2.8,4.2-7.6,4.1-11.8c0-0.6-0.4-1.5-1-1.7c-2.1-0.8-4.8-1.7-7.5-2.1
		C478.2,399.4,479,398.5,479.6,397.5z M467.6,394.9c0.3-1.7,2.8-2.9,4.8-3.6c0.5,1.3,1.7,2.1,2.6,3.2c0,0.1,0.3,0.8,0.3,0.8
		c0,0.1,0,0.1,0,0.2s0,0.2,0,0.3v0.1c0,0.1-0.1,0.2-0.1,0.3v0.1c0,0,0,0-0.1,0.1s-0.3,0.4-0.4,0.5c-0.2,0.2-0.4,0.4-0.6,0.5
		c-0.1,0.1-0.1,0.1-0.1,0.1s-0.1,0.1-0.3,0.2c-0.9,0.6-1.9,0.9-2.8,1s-1.6-0.1-2.1-0.5C467.8,397.5,467.4,396.1,467.6,394.9z
		 M478.9,411.7c0.1-0.2-0.5,0.5-0.4,0.5c-0.5,0.4-1.3,0.7-2.5,0.2c-2.6-1-3-3.4-2.5-5.7c0.3,0,0.5,0,0.7,0c1.9,0.1,3.7,0.4,5.5,0.8
		c0,0.9-0.1,1.9-0.3,2.8C479.4,410.9,479.2,411.3,478.9,411.7z"/>
	<path d="M116.2,460.8c-0.9-2.8-1.6-5.6-2.4-8.5c-0.8-3-2-6.7-1.5-9.9c0.2-1.5-1.8-1.1-2.2-0.1c-1.6,3.9-1.5,8.1-1.1,12.2
		c0.2,2.2,0.5,4.5,0.7,6.7c0,0.4,0.1,1.8,0.2,2.6c0,0.1,0,0.2-0.1,0.2C109.2,469.8,117.9,466.1,116.2,460.8z"/>
	<path d="M124.8,459c-3.7-0.4-7.6,6.4-3.2,6.8c12,0.8,19.7-9.4,14.4-20.5c-0.6-1.2-1.7-1.5-2.8-1.2c0,0,0,0,0-0.1
		c-1.2-3.1-4-7.3-7.9-4.5c-3.2,2.3-4,6.5-4.2,10.2c-0.1,3,0.3,7.4,3.9,8.2c2.6,0.5,4.9-1.1,6.7-3.4c0,0.8-0.2,1.7-0.5,2.5
		C130.3,459.4,127,459.2,124.8,459z M127.3,443.2c1.2,0.5,2.7,1.6,3.6,2.4c-0.2,0.3-0.4,0.5-0.5,0.8c-0.8,1.7-1.7,3.5-2.9,5
		l-0.1,0.1c-0.1-0.2-0.2-0.4-0.2-0.5c-0.4-0.9-0.5-1.9-0.6-2.8C126.5,446.6,126.7,444.7,127.3,443.2z"/>
	<path d="M158.9,437.5c-1.8,0.3-3.4,3.5-0.7,3.5c0.6,0,7-0.3,7.2,0.8c0.1,1.1-2.8,3.6-3.5,4.3c-3.4,3.5-8.2,7.1-9.4,12.1
		c-0.3,1.2,0.4,2.1,1.5,2.4c4,1,7.6,1.1,11.6,0.5c1.8-0.3,3.5-1.5,3.9-3.4c0.4-2-1.5-3.6-3.4-2.7c-2.4,1-4.8,1.1-7.2,0.7
		c1-1.5,2.5-2.8,3.6-3.9c2.2-2.3,4.7-4.6,6.4-7.4c1.1-1.8,2.1-4.5,0.3-6.2C166.7,435.9,161.8,437,158.9,437.5z"/>
	<path d="M182.1,441.8c-1.3-1-3.2-1.2-4.7-1.2c-0.7,0-1.7,0.3-2.6,0.8c-0.5-0.3-1.4,0-1.8,0.6c-3.2,3.9-3.9,9.6-1.4,14.1
		c1.9,3.4,5.6,5,9,2.6C186,455.1,187.6,445.9,182.1,441.8z M179.5,453.1c-0.1,0.3-0.4,0.9-0.5,1.1c-0.2,0.3-0.4,0.5-0.5,0.5
		c-1.2,0.2-2.7-3-3.1-4.1c-0.5-1.4-0.6-2.9-0.5-4.4c1,0.2,2.1,0.2,3,0.4c1.2,0.3,1.7,1.6,2,2.6C180.1,450.5,179.8,451.9,179.5,453.1
		z"/>
	<path d="M202.6,454c-1.3,2.3-3.3,7,0.3,8.4c3.5,1.4,16.3-1.4,12.8-6.5c-0.6-0.9-1.9-0.8-2.8-0.5c-2,0.5-3.9,1.4-5.9,1.5
		c0.1-0.2,0.3-0.7,0.5-1.1c0.4-0.8,0.8-1.5,1.2-2.2c0.8-1.4,1.9-3.1,2.9-4.9c1.2-2.2,3.3-5.9,1.8-8.4c-2.2-3.8-8.3-1.6-11.3-0.1
		c-1.3,0.6-1.7,2.9,0.2,2.9c1.8,0,4.5-0.6,5.9,0c0.2,0.1,0.2,0.1,0.3,0.2c0,0.2-0.1,0.7-0.3,1.2C206.8,447.8,204.5,450.6,202.6,454z
		 M208.5,443.2C208.6,443.2,208.6,443.2,208.5,443.2L208.5,443.2z"/>
	<path d="M217.2,438.4c-0.3,7,1.4,13.9,0.4,20.9c-0.7,4.7,5.4,2.5,6.4-0.5c2-6.2-1-16.5-5.2-21.3
		C218.2,436.8,217.2,437.8,217.2,438.4z"/>
	<path d="M250.2,456.2c-0.6,0.2-1.2,0.5-1.9,0.6c0.1-2.2,1.3-4.6,2.1-6.5c1.3-3,2.8-5.9,3.7-9c0.5-1.6,0.5-4-1.3-4.7
		c-2.8-1-5.9,1.2-8,2.8c-1.2,0.9-0.7,2.7,0.9,2.3c1.2-0.3,2.4-0.7,3.6-0.9c0.1,0,0.2,0,0.3-0.1c0,0,0,0.1-0.1,0.2
		c-0.4,2-1.7,4.1-2.6,5.9c-2,4.2-5.2,9.5-4.3,14.3c0.2,1.3,1.1,2,2.4,1.9c1.6-0.1,3.1-0.4,4.7-0.7
		C254.1,461.6,254.9,454.4,250.2,456.2z"/>
	<path d="M254.3,463c2.8,0.1,5.6,0.3,8.4,0.4c3.6,0.2,6-6.6,1.4-6.4c-0.8,0-1.6,0.1-2.4,0.1c2.4-3.4,4.1-7.5,4.7-11.3
		c0.4-2.2,0.1-4.6-1.9-5.9c-2.3-1.6-5.9,0.5-7.4,2.2c-0.4,0.4-0.4,1.3,0.3,1.4c0.8,0.1,3.5-0.4,3.9,0.4c0.7,1.2-0.3,3.3-0.8,4.4
		c-1.4,3.5-3.5,7.5-6.5,10C252.8,459.3,251.7,462.9,254.3,463z"/>
	<path d="M301,459c0.2,1.4,1.3,2.3,2.7,2.2c3.8-0.4,8.7-2.1,10.4-6c1.8-4.2,0.2-7.8-2.7-10.9c0.2-2.8,0-5.5-0.7-8.2
		c-0.1-0.5-0.6-0.8-1.1-0.9c-0.1,0-0.1,0.1-0.2,0.1c-0.6-1.1-1.9,0-2,0.9c0,0-0.8,0.9-0.9,1.2c-0.3,1.2-0.1,2.6-0.1,3.8
		c-0.1,1.8-0.9,3.8-0.8,5.5c0.1,1.3,1.5,2.3,2.2,3.3c4,5.2-3.6,3.8-6.2,6.5c0.5-1.2,0.1-2.7-1.3-3c-1.6-0.4-3.7-0.1-5.7,0.2
		c2.6-6,7.2-10.7,5-17.9c-0.2-0.7-1.1-1.1-1.8-1c-2.2,0.4-4.4,1.2-6.5,2.1c-1.3,0.5-2.6,3.4-0.3,3.2c1.3-0.1,2.7-0.4,4-0.6
		c0.1,6.2-4.8,11.2-7,16.9c-0.4,1.2-0.4,3.1,1.3,3.2c4,0.3,8.6,0.8,11.6-2.3C301,457.8,300.9,458.3,301,459z"/>
	<path d="M328.3,458.4c2.8,1,5.7,0.9,8.6,1.3c2.4,0.3,4.9,0.3,6.1-2.3c0.9-1.9-0.6-3.8-2.6-3.6c-2.4,0.2-4.7,0.2-7-0.1
		c0.9-1.4,2-2.8,2.9-4.1c2-3,4.1-6.1,5.3-9.5c0.7-2,1.5-5-0.5-6.5c-2.4-1.8-6.3,0.3-8.6,1.4c-1.3,0.6-1.2,2.6,0.5,2.2
		c0.7-0.2,5.2-1.5,5,0.3c-0.3,2.2-2,4.6-3.2,6.4c-2.4,3.8-5.9,7.4-7.7,11.5C326.4,456.7,326.8,457.9,328.3,458.4z"/>
	<path d="M355.8,450.5c-0.2-3.7-0.3-7.4-0.4-11.1c-0.1-3.2-4.6-1.4-5.3,0.8c-1-1.6-0.8-3.9-1.9-6c-0.5-0.9-1.7-0.3-2,0.4
		c-2.3,5.2-2.4,10.8,3.5,12.6c-0.1,1.8-0.1,3.6-0.2,5.3c-0.1,2.3-0.6,5,0,7.4c-0.1,0.9,0.3,1.4,0.8,1.6c1.8,1.5,5.5-1,5.4-3.5
		c0.1-0.8,0.3-1.8,0.3-2.1C356.1,454.1,355.9,452.3,355.8,450.5z M355.6,458.9c0-0.1,0.1-0.1,0.1-0.2
		C355.6,458.9,355.6,459,355.6,458.9z"/>
	<path d="M374.8,459.4c3.4-0.5,6.2-7,1.4-6.5c-1.5,0.1-1.2,0.5-1.3-1c-0.1-2,0.8-4.1,1.3-6.1c0.8-3.9,1-8.9-3.5-10.5
		c-1.5-0.5-4.7,1.7-2.9,3.2c3.6,3,1.9,9.1,0.1,12.9C368,455.5,369.7,460.1,374.8,459.4z"/>
	<path d="M388.2,433.4C388.2,433.4,388.1,433.4,388.2,433.4c-1.5-0.1-2.9,0.5-4.3,1.1c-1.6,0.7-3.2,1.4-4.9,1.8
		c-1.5,0.3-2.9,3.2-0.8,3.7c0.6,0.1,1.3,0.2,2,0.3c-1.4,4.9-0.4,9,1.8,13.3c-0.7,3.5,0.5,6.1,4.9,4.6c1.5-0.5,3.5-2.8,2.1-4.4
		c-3.4-3.7-5.5-8.6-5.4-13.6c0.8-0.1,1.6-0.3,2.4-0.5c0.5-0.1,1.3-0.5,1.7-0.7c-0.2,0.1,1.9-1.6,1.3-1.2
		C390.7,436.5,391,433.2,388.2,433.4z"/>
	<path d="M407.8,456c3.2,0.3,6.5,1.2,9.5,2.3c3.9,1.4,7.7-5.2,3.6-5.9c-2.7-0.5-5.5-1-8.3-1.3c2.1-3.9,5.3-7.2,6.9-11.3
		c1.3-3.4-0.6-6.6-4.2-4.7c-0.5,0.2-0.7,0.7-0.6,1.2c0.2,1,1.1,1.7,0.7,2.7c-0.6,1.7-1.8,3.2-2.8,4.6c-2.1,3.1-4.1,6.2-6,9.4
		C406,454.2,406.4,455.9,407.8,456z"/>
	<path d="M426.6,448.3c-1-1.5-2.6-2.5-2.3-4.5c0.3-2.2,2.2-3.6,2.5-5.8c0.1-0.9-0.6-1.3-1.4-1.1c-6,1.3-9.7,13.1-2.8,15.7
		C425,453.5,428.1,450.7,426.6,448.3z"/>
	<path d="M477.5,430.9c-0.2-1.3-1.9-0.5-2.4,0.5c-1.5,1.8-1.3,4.8-1.5,7c-0.2,2.1-1.4,6.3,0.2,8c1.3,1.4,3.8,0.5,4.7-1
		c0.5-0.8,1.1-1.7,1-2.7c-0.1-1.4-0.2-2.9-0.4-4.3C478.9,436.5,479.2,432.3,477.5,430.9z"/>
	<path d="M107.8,503.3c4.5,0.9,9,1.1,13.5,0.8c0.3,1.5,2.3,1.9,4.3,2c0.7,0,1.3-0.1,1.7-0.4c0.2,0.6,0.6,1.1,1.4,1.2
		c5.4,0.8,12.9-1.2,13.6-7.7c0.3-3.2-1.3-5.4-3.6-6.3c0.3-0.4,0.7-0.8,0.9-1.2c1.3-2.1,1.7-4.4,1.8-6.8c0-0.7,0.1-1.8-0.4-2.4
		c-0.7-0.7-1.4-1.2-2.3-1.6c-1.4-0.6-3.1-0.6-4.6-0.3c-0.1-0.3-0.4-0.5-0.9-0.4c-3.8,1-7.3,3.7-7.5,7.9c-0.1,2.8,2.1,5.4,4.6,6.4
		c-0.9,0.7-1.6,1.6-1.9,2.7c0,0.1,0,0.1,0,0.2c-0.2,0.3-0.3,0.5-0.4,0.8c-0.4-0.1-0.9-0.1-1.4,0.1c-3.8,0.9-7.7,1.1-11.5,0.9
		c4.8-4.3,7.7-10.4,4.8-17c-0.3-0.6-0.9-0.9-1.5-0.9c-4.8,0.5-5.9,2.3-8,6.2c-0.7,1.2,0.9,1.4,1.6,0.9c1.9-1.4,2.3-2.8,4.3-3.1
		c1.5,6.3-2.3,10.8-7.8,13.7C106.7,499.8,105.4,502.9,107.8,503.3z M136.4,500.6c0,0.1-0.1,0.2-0.1,0.2c0,0.1-0.1,0.1-0.1,0.2
		c0,0-0.1,0.1-0.2,0.1l0,0c0,0-0.1,0.1-0.2,0.1c-0.1,0-0.1,0.1-0.2,0.1c-0.1,0-0.1,0-0.2,0.1c-1,0.4-2,0.4-3.1,0.4
		c-0.2-1-0.3-2-0.1-2.9c0.2-0.1,0.5-0.2,0.7-0.3c0.3-0.1,0.6-0.3,1-0.4c0,0,1-0.2,0.4-0.1c1-0.2,1-0.2,1.8,0.4
		c-0.5-0.3,0.2,0.4,0.2,0.3c0.1,0.3,0.2,0.7,0.3,0.7c0,0.2,0,0.3,0,0.5l0,0v0.1C136.5,500.3,136.4,500.5,136.4,500.6z M129.7,486
		c0-0.2,0.1-0.6,0-0.3c0.2-0.5,0.2-0.6,0.4-0.9c0.1,0.3,0.4,0.5,0.7,0.7c1.7,0.9,3.7-0.3,5.3,0.6c0.1,1.2,0,2.1-0.3,3.3
		c0,0.1-0.2,0.4-0.2,0.5s-0.1,0.1-0.1,0.2c0,0,0,0.1-0.1,0.1l-0.1,0.1l-0.1,0.1c0,0-0.1,0-0.1,0.1c-0.1,0-0.2,0.1-0.3,0.1
		s-0.2,0-0.3,0s-0.1,0-0.2,0h-0.1c-0.2,0-0.4-0.1-0.6-0.1c-0.1,0-0.4-0.1-0.5-0.1c-0.4-0.1-0.7-0.3-1.1-0.5
		c-1.2-0.7-2.3-2.1-2.4-3.4C129.6,486.3,129.7,486.1,129.7,486z"/>
	<path d="M162.6,501.6c-0.6,1.1-0.2,3,1.3,3.1c4.5,0.3,9.7,0.9,14.1-0.6c2.6-0.9,4.6-6.8,0.5-6c-2.9,0.6-5.9,0.8-8.9,1
		c2.5-3.8,5.6-7.3,7-11.7c2-6.2-3-7.9-8.3-6.6c-1.1,0.3-2.3,2.6-0.6,2.9c1.3,0.2,4.4,0.3,4.5,2c0.1,1.6-1.4,3.6-2.2,4.9
		C167.7,494.4,164.9,497.8,162.6,501.6z"/>
	<path d="M179.6,484.6c-2.3,6.8,5,9,10.2,8.7c0.7,0,1.4-0.3,2-0.8c-1.1,3.6-4.2,5.8-8.2,4.2c-1-0.4-2.4,0.8-1.7,1.9
		c4.7,6.8,12.5,0.6,14.8-5.1s1.2-15.6-5.9-17.2C185.5,475.1,181,480.3,179.6,484.6z M188.1,481.6c1.2-0.1,2.2,1.5,2.8,2.3
		s0.9,1.7,1.2,2.7c-0.2,0-0.5,0-0.8,0c-1.4,0.2-6.4,1.1-6.1-1.8C185.3,483.2,186.5,481.7,188.1,481.6z"/>
	<path d="M231.1,488.6c-2.3,4.4-1.8,9.6,2.3,12.7c4.2,3.2,9.2-0.5,11-4.5c2.4-5.4,1.9-12.3-3.1-15.9c-2.3-1.6-5.5-1.5-8-0.7
		c-2.4,0.7-6.2,3.1-6.7,5.9c0-0.4-0.1-0.7-0.2-1.1c-1.1-3.3-4.6-4.9-7.9-4.4c-1.3,0.2-2.9,2-1.4,3.1c1.4,1,3,1.4,4.1,2.8
		c1.5,1.7-0.7,4.4-1.7,5.7c-0.5,0.6-1,1.8-0.5,2.5c0.5,0.8,1.2,1.5,1.8,2.3c-0.8,0-1.5,0.2-2.3,0.6c-1.2,0.6-2.6,2.5-1.9,3.9
		c1.8,3.6,6.5,1.6,8.9-0.1c2.2-1.6,2.4-3.4,1.7-5.8c-0.3-1.2-1.4-2.1-2.4-3c0.9-1.5,1.7-3.2,1.9-4.9c0.2,1.1,0.9,1.6,2,1.6
		c2.9,0,4.8-3.7,7.8-2.5c3.1,1.2,3.6,5.1,3.1,8c-0.3,2-0.7,3.5-2.7,1.9c-2.3-1.8-3.3-4.9-2.8-7.7
		C234.3,486.7,231.7,487.4,231.1,488.6z"/>
	<path d="M267.1,493.3c0.9-1.5,1.7-3.2,1.9-4.9c0-0.6,0-1,0-1.4s-0.1-0.7-0.2-1.1c-1.1-3.3-4.6-4.9-7.9-4.4c-1.3,0.2-2.9,2-1.4,3.1
		c1.4,1,3,1.4,4.1,2.8c1.5,1.7-0.7,4.4-1.7,5.7c-0.5,0.6-1,1.8-0.5,2.5c0.5,0.8,1.2,1.5,1.8,2.3c-0.8,0-1.5,0.2-2.3,0.6
		c-1.2,0.6-2.6,2.5-1.9,3.9c1.8,3.6,6.5,1.6,8.9-0.1c2.2-1.6,2.4-3.4,1.7-5.8C269.1,495.1,268,494.3,267.1,493.3z"/>
</g>
<g>
	<g>
		<path d="M220.8,288.4c-4.5,5.7-13.3,7-20.1,6.7c-4-0.2-10.4-0.8-13.1-4.3c-1.9-2.5-2.7-6.1-3.4-9.1c-1.1-4.6-1.6-9.3-1.7-14
			c8.1-1.3,16.3-2.2,24.5-2.5c3.5-0.1,7.8-2,9.9-4.7c1.8-2.3,1.2-4.4-2-4.3c-10.8,0.4-21.6,1.6-32.2,3.6c0.4-6.5,1.5-13,2.8-19.4
			c12.2,0,24.1-3.9,36.4-3.8c4.9,0.1-0.5-12.6-5.3-12.6c-14.7-0.2-29.4,6.3-44.1,3.3c-6.3-1.3-1.2,11.3,3.1,12.2
			c0.2,0,0.4,0.1,0.6,0.1c-1.4,7.3-2.3,14.7-2.3,22.2c-2.8,0.9-6,2.6-7,5.1c-1.3,3.1,2.2,3.4,4.5,2.9c0.9-0.2,1.9-0.4,2.8-0.6
			c0.6,7.5,2.2,15.4,6.7,21.3c5.2,6.9,14.1,10,22.4,10.9c8.5,0.9,19.8-0.3,25.5-7.5C230.6,291.8,222.7,286,220.8,288.4z"/>
		<path d="M292,303.4c-0.4-0.8-0.9-1.8-1-2c-0.6-1.4-1.1-2.9-1.7-4.3c-1.2-3.2-2.4-6.3-3.5-9.6c-2.2-6.5-3.8-13-5-19.8
			c-1-6.2-1.9-12.4-3.4-18.5c-1.4-5.7-3.2-13.3-8.5-16.7c-4.2-2.7-9.4,0.8-12.6,3.6c-4.3,3.8-7.4,8.8-9.8,13.9
			c-3,6.3-5.5,12.9-8.2,19.4c-0.3,0.7-0.6,1.4-0.9,2.1c-1.5-10.1-2.8-20.3-3.7-30.6c-0.4-3.8-6.5,2.4-6.2,5.1
			c1.3,13.1,3,26.1,5.1,39c-0.2,1.1-0.2,2.2-0.2,3.3c0.1,1.9,0.7,3.9,1.7,5.6c0.1,0.4,0.1,0.8,0.2,1.2c0.2,1.1,0.8,1.4,1.5,1.2
			c0.4,0.4,0.8,0.8,1.3,1.2c1.4,1.1,5.8,2.9,5.6-0.7c-0.2-5.4,3-10.8,5.1-15.7c2.3-5.4,4.5-10.9,6.8-16.3
			c2.4-5.7,6.7-15.5,13.2-19.1c0.2,0.7,0.4,1.5,0.5,2.2c0.8,3.5,1.3,7.1,1.9,10.7c1.1,6.9,2.4,13.6,4.4,20.3
			c2,6.8,4.5,13.5,7.2,20.1c2.4,6.1,4.7,13.2,11.6,15.3c3.3,1,3.2-3,2.6-5C295.1,307.1,293.7,304.9,292,303.4z"/>
		<path d="M336.2,291.7c-2,0.4-4.5,1.7-5.6,3.4c0.2-0.3-2.5,0.1-3.5,0.1c-2,0.1-4,0.1-5.9-0.1c-4-0.3-7.9-1-11.6-2.6
			c-2.9-1.2-6-2.8-7.7-5.5c-1.8-2.7-2-6.3-2.4-9.4c-0.6-3.8-0.9-7.4-1-11c0.5-0.1,1-0.3,1.6-0.4c6-1.4,12.1-1.6,18.2-0.4
			c2.9,0.6,6.1-7.6,4-8c-5.2-1-10.4-1.3-15.7-0.5c-2.7,0.4-5.3,1.2-8,1.9c0-2,0.1-4,0.2-6c0.3-5.4-0.4-10.7-0.1-16
			c12-1,23.9-2.2,35.9-3.7c2.2-0.3-0.8-4-1.3-4.6c-1.5-1.6-4-3.6-6.3-3.4c-15.1,1.8-30.2,3.3-45.3,4.4c-2.2,0.2,0.9,4.1,1.3,4.6
			c1.5,1.6,3.9,3.5,6.3,3.4c0.3,0,0.7-0.1,1-0.1c-0.5,3.7-0.4,7.5-0.2,11.3c0.1,3.6-0.1,7.2-0.3,10.8c-0.3,0-0.7-0.1-1-0.2
			c-2.9-0.6-6.1,7.6-4,8c1.6,0.3,3.2,0.4,4.7,0.4c0.1,3.9,0.6,7.9,1.2,11.8c0.6,4.4,0.8,9.3,4,12.7c5.8,6.2,16.2,7.6,24.2,7.7
			c7.2,0,15.7-0.8,20-7.4C340,291.3,337.1,291.5,336.2,291.7z"/>
		<path d="M416.5,293.4c-9.7-2.7-19.5-5.2-29.3-7.5c-4.8-1.1-9.6-2.1-14.4-3.2c-3.5-0.8-7.4-1.6-10.1-4.2c1.3-1.9,5.6-5.2,7-6.6
			c3.7-3.7,7-7.8,9.1-12.6c3.6-8.3,3.5-23.1-2.7-30.3c-7.4-8.7-17.7,0.1-22.8,6.6c-2.3,3-4.6,6.2-6.7,9.5c-0.3-3.7-0.7-7.5-1.2-11.2
			c-0.4-3.2-3.1-3.3-5-1.3c-2.5,2.6-3.1,7.1-2.7,10.6c0.9,6.8,1.4,13.6,1.8,20.4c-0.1,0.9-0.2,1.8-0.2,2.8c0,0.7,0.1,1.2,0.4,1.6
			c0,1.4,0.1,2.7,0.1,4.1c0.1,4.1,0.1,8.2,0.4,12.3c0.4,4.4,1.4,8.9,1.5,13.3c-1,2.9-1,6.2,0.8,8.2l0.1,0.1c1.7,1.9,4.2-1.2,4.9-2.4
			c2.8-5,2.4-11,1.9-16.5c-0.6-5.9-1.4-11.7-1.5-17.6c0-1.7-0.1-3.4-0.1-5.1c1.6-1.8,2.8-3.9,2.9-5.9c0.2-6.9,3.4-12.2,7.3-17.7
			c1.4-2,1.8-3.5,4.5-2.7c3.2,1,4.9,4.3,5.8,7.3c1.5,5.1,3.1,13.4,0.2,18.2c-2.6,4.2-7.4,7.3-10.6,11.1c-2.7,3.2-8.2,9.6-6.5,14.2
			c1.8,4.5,10.4,5.9,14.5,6.7c14.2,3.1,28.2,6.5,42.2,10.4C412.4,307,421.3,294.7,416.5,293.4z"/>
		<path d="M455.7,251.1c-3.6-7-7.7-14.6-14.2-19.4c-6.2-4.6-13.9-5.6-20.9-8.5c-3.1-1.3-2.6,2.8-2.1,4.5c0.6,1.9,1.8,4,3.3,5.7
			c-8.2,6.4-11.6,19.5-12,28.9c-0.6,13.8,1.4,28,13.3,36.9c9.7,7.2,27.8,7.4,33.4-5C462.5,281.2,462.2,263.8,455.7,251.1z
			 M450,274.8c-1.2,6.1-3,12.1-9.1,14.8c-5.6,2.4-13.2,2.9-18.5-0.6c-4.1-2.7-3.2-9.8-3-14.1c0.2-6.7,0.6-13,3.8-19
			c2.6-5,5.9-11.3,11.9-12.8c1.5-0.4,1.8-1.8,1.5-3.6c1.5,0.5,3,1.1,4.4,1.8c4.8,2.4,8.3,9.3,9.6,14.3
			C452,261.6,451.1,268.8,450,274.8z"/>
	</g>
</g>
</svg>
