<?xml version="1.0" encoding="utf-8"?>
<!-- Generator: Adobe Illustrator 23.0.1, SVG Export Plug-In . SVG Version: 6.00 Build 0)  -->
<svg version="1.1" id="Layer_3" xmlns="http://www.w3.org/2000/svg" xmlns:xlink="http://www.w3.org/1999/xlink" x="0px" y="0px"
	 viewBox="0 0 566.9 566.9" style="enable-background:new 0 0 566.9 566.9;" xml:space="preserve">
<g>
	<path d="M566.4,498c-0.1-2.8-1.1-5.6-3.3-5.6c0,0,0,0-0.1,0l-6.4,0.2c2.3-33.2,2.2-63.6-0.4-92.8c-0.1-1.5-0.3-3.1-0.4-4.7
		c-0.5-6.5-1.1-13.2-2.5-19.5c-1.7-7.6-6.8-8.3-13.2-8.4c-10.1-0.2-20.8-0.4-33.7-0.6l0.3-1.4c1.1-5.6,2.3-11.5,3-17.2
		c0.9-7.6-1.8-12.8-7.5-14.1c-6.8-1.6-14.3-1.6-21.6-1.6c-1.4,0-2.8,0-4.1,0c-9.2-0.1-18.4,0.2-26.1,0.6c-3.4,0.1-6.7,0.3-10.1,0.5
		c-5.3,0.3-10.7,0.5-16,0.7c-3,0.1-6.2,0.1-9.3,0c-5.4-0.1-11-0.2-16.3,0.6c-6.7,1-11.2,5.1-12.9,11.8c-1.1,4.3-0.6,8.6-0.1,12.7
		c0.3,2.7,0.7,5.4,0.5,8.1c-25.8,0.5-52,1.3-77.4,2c-8.6,0.2-17.2,0.5-25.8,0.7c-34.1,0.9-74.4,1.3-114.7-2.9
		c-0.5-0.1-1,0.1-1.4,0.3c-0.6,0-1.1,0.2-1.6,0.6c-1,0.8-1.6,2.5-1.7,3.8c-3.4,41.1-3.9,82.6-3.9,121.4c0,0.3,0,1.8,0.5,3.3l-2.5,0
		c-8,0-16.1-0.1-24.1-0.1c0.2-1.1,0.3-2.2,0.3-2.5c0.3-25.3,0.3-51,0.3-75.8c0-23.5-0.1-47.8,0.2-71.7c0.1-4.9,0.1-10.6,0.3-16.2
		c0-1.8,0.1-3.7,0.2-5.5l0-0.1c4.4-0.1,8.8-0.2,13.3-0.3c0.9,0,1.6-0.5,2.2-1.3c1.4-2,1.5-5.7,0.7-8l0-0.1c0.2-3,0.6-6.2,1.2-10
		c0.1-0.9,0.2-1.9,0.1-2.9c18.5-3.9,37.2-7.5,55.5-10.7c1-0.2,1.7-1.3,1.8-3c1.1-2.4,0.9-6.4-0.3-8.5c-0.6-0.9-1.4-1.4-2.3-1.5
		c-3-0.1-6-0.1-9-0.2c0.1-2.3,0.1-4.7,0.2-7.1c0.4-14.7,0.9-29.8-0.9-44.6l2.9,0.1c1.7,0,3.5,0.1,5.2,0.1c0.9,0,1.7-0.5,2.3-1.5
		c1.3-2.2,1.4-6.5,0.1-8.8c-0.6-1.1-1.4-1.7-2.4-1.7c-13.3-0.4-26.9-0.6-41.5-0.8c-0.1-2.1-0.8-4.4-2.5-4.8
		c-15.9-4.5-32.3-9-48.8-13.2c0.2-1,0.3-2,0.3-2.6l-0.3-23c0-1-0.2-6-3.3-6c-0.6,0-1.2,0.2-1.7,0.7c-1.3,1.4-1.6,4.3-1.6,5.3l0.3,23
		c0,0.4,0,1.4,0.3,2.5c-16.5,4.2-33.1,8.7-49.1,13.3c-1.8,0.5-2.4,3-2.5,5.2c-13,0.3-24.3,0.5-34.7,0.8c-2.4,0.1-3.4,3.4-3.3,6.4
		c0.1,2.8,1.1,5.6,3.4,5.6l2.2-0.1l0.5,49.3l-1.4,0c-1.1,0-2.3,0-3.4,0.1c-0.9,0-1.7,0.5-2.3,1.5c-1.3,2.1-1.4,6.2-0.3,8.6
		c0,0,0,0.1,0.1,0.2c0.8,1.5,1.8,1.8,2.5,1.8l1.4,0c6.5,1.9,13.2,3.5,19.7,5.1c10.1,2.5,20.4,5.1,30.4,8.5
		c-1.5,5.4-2.2,10.9-2.1,16.3c0,0.9,0.2,5.4,2.8,5.9c0.4,0.3,0.9,0.4,1.3,0.4c4.5,0.1,9.3,0.2,14.7,0.2c-0.2,3.8-0.2,7.7-0.2,11.4
		c0,1.6,0,3.2,0,4.8c-0.2,13.4-0.3,26.8-0.3,39.4c-0.1,26.4-0.1,53.3-0.2,79.3l0,9c0,2.3,0,4.6,0,6.9c0,6,0,12.2-0.1,18.3
		c0,0.3,0,1.1,0.2,2.1c-28.5-0.3-56.7-0.7-84-1.2c0,0,0,0,0,0c-2.2,0-3.3,2.9-3.3,5.8c-0.1,3,1,6.2,3.4,6.2
		c72.8,1.3,146.4,1.9,218.6,2c3,0,6,0,9,0c69.6,0,140-0.6,209.6-1.7c40.7-0.6,82.3-1.5,123.8-2.5C565.4,504.3,566.4,501,566.4,498z
		 M550.1,492.7c-68.8,1.7-138,2.8-205.7,3.4c-58.1,0.5-118.1,0.6-178.5,0.3c0.4-1.2,0.5-2.5,0.5-3.3c0-34.4,0.3-74.4,3.3-114
		c50.4,5.1,101.8,3.3,151.5,1.6c13.7-0.5,27.9-1,41.9-1.3c32.1-0.8,64.8-1.2,96.9-1.1c16.4,0,33,0.1,49.5,0.4
		c7.9,0.1,15.9,0.3,23.7,0.4c1.2,0,2.4,0,3.6,0c2.5,0,5.1-0.1,7.5,0.3l0.2,0c1.8,0.3,2.1,0.3,3,1.8c0.6,1.1,0.7,3.4,0.8,5.2
		c0,0.8,0.1,1.6,0.1,2.2C552.3,420.8,552.9,454.9,550.1,492.7z M503,348.2c-0.1,0.4-0.2,0.7-0.2,0.9l-3.2,17.4l-3.8,0
		c-2.3,0-4.6-0.1-7-0.1c-28.7-0.2-59.3,0-96.2,0.7c-0.1-1.8-0.3-3.6-0.5-5.3c-0.3-2.7-0.7-5.4-0.5-8.2c0.3-6.7,6.9-7.3,13.5-7.3
		c12.8,0,25.8-0.6,38.3-1.2l5.2-0.2c7.7-0.3,16.1-0.7,24.8-0.7c5.8,0,11.7,0.1,17.6,0.5c0.7,0,1.5,0.1,2.2,0.1
		c2.5,0.1,5.1,0.3,7.6,0.8c0,0,0.1,0,0.2,0.1c1.1,0.3,1.9,0.5,2.4,0.5C503.4,346.8,503.1,347.6,503,348.2z M63.3,254.2
		c-0.6-9.3-1.2-18.9-0.3-28.4c30.8-0.5,61.9-0.6,92.5-0.3l0.5,51.5c-32.5-0.7-61.9-1.2-92-1.3C64.3,268.6,63.8,261.3,63.3,254.2z
		 M84.2,213.5c8.8-2.4,17.3-4.6,25.5-6.7c8,2,16.3,4.2,24.9,6.5C118.1,213.3,101.2,213.4,84.2,213.5z M162.1,225.6
		c8.8,0.1,18.2,0.3,28.6,0.5c2,14.6,1.5,29.8,1.1,44.5c-0.1,2.4-0.1,4.8-0.2,7.1c-9.7-0.2-19.4-0.4-29-0.6L162.1,225.6z M75.9,306.8
		c0.4-1.3,0.5-2.8,0.4-4.2c0.6-1,0.8-2.7,0.4-4c-0.2-0.8-0.6-1.3-1.2-1.5c-10.3-3.9-21-6.7-31.6-9.3c39.6-0.2,79.7,0.6,118.6,1.4
		c5.9,0.1,11.8,0.2,17.7,0.4c-10.7,2.1-21.1,4.2-31,6.3c-0.8,0.2-1.3,0.8-1.6,1.9c-1.1,1.1-1.5,3.3-1.6,3.7
		c-0.5,3.2-0.9,6.7-1.2,10.6c-23.3,0.7-46.9,0.8-70.1,0.3C75,310.5,75.3,308.6,75.9,306.8z M57,251.4c0.5,8,1.1,16.3,0.6,24.4
		c-9.9,0-19,0.1-27.8,0.2l-0.5-49.4c8.9-0.2,18.1-0.5,27.2-0.6C55.9,234.4,56.5,243.1,57,251.4z M128.1,340.8
		c-0.2,13.4-0.3,26.8-0.3,39.4c-0.1,26.4-0.1,53.3-0.2,79.3l0,9c0,2.3,0,4.5,0,6.8c0,6,0,12.2-0.1,18.3c0,0.6,0.1,1.5,0.3,2.5l-2,0
		c-11.2-0.1-22.5-0.2-33.7-0.3c0.2-1,0.2-1.9,0.2-2.1c0.3-25.3,0.3-51,0.3-75.8c0-23.5-0.1-47.8,0.2-71.7c0.1-4.9,0.1-10.6,0.3-16.2
		c0-1.8,0.1-3.5,0.2-5.3c11.8,0.1,23.6,0,35.2-0.2c-0.2,3.8-0.2,7.7-0.3,11.5C128.1,337.6,128.1,339.2,128.1,340.8z M16.4,286.1
		C16.4,286.1,16.4,286.1,16.4,286.1L16.4,286.1L16.4,286.1z"/>
	<path d="M242.9,234.5l16.4,34.2c0.1,0.3,0.5,0.4,0.8,0.4c0.2,0,0.5,0,0.7-0.1c4.8-0.9,40.2-16.5,44-19.9
		c17.1-5.3,48.5-17.7,67.2-25.1c7.2-2.8,12.4-4.9,13.3-5.2c1-0.3,75.7-34.3,76.3-34.6c3.8-1.9,7.7-3.7,11.4-5.3
		c4.1-1.9,8.3-3.7,12.4-5.6c4.1-1.9,8.3-3.7,12.4-5.6c1.1-0.5,2.3-1,3.5-1.6c4.3-1.9,8.8-3.9,12.8-6.5c6.2-4.1,11.3-9.8,16.3-15.3
		l0.1-0.1c3.8-4.3,16.4-18.9,16-28.6l0-0.4c0-1.4-0.1-2.6-1.1-4.8c-1.1-2.2-2-3-3.1-3.9L542,106c-7.3-6.3-26.6-5.7-32.4-5.4l-0.1,0
		c-7.4,0.4-15.1,0.8-22.2,3.2c-4.6,1.5-8.9,3.7-13.1,5.9l-0.1,0.1c-1.1,0.6-2.2,1.2-3.3,1.7c-4,2-8,4-11.9,6.1l-0.2,0.1
		c-4,2.1-8.1,4.1-12.1,6.2c-3.6,1.8-7.5,3.8-11.3,5.6c-1.5,0.7-2.7,1.2-3.8,1.7c-8.5-6.5-18-12-26.3-16.9
		c-5.5-3.2-11.2-6.5-16.6-10.1c-2.2-1.5-4.4-3.2-6.6-4.9c-1.8-1.4-3.7-2.9-5.6-4.2c-4.3-3-8.8-5.9-13.1-8.6
		c-2.1-1.4-4.3-2.7-6.4-4.1c-5.5-3.6-11.1-7.6-17.7-12.7c-6.1-4.6-11.6-8.7-17.8-11.8c-15-7.4-31.2-6.1-42.2,3.2
		c-1.3,1.1-2,2.6-1.8,4.1c0,0.1,0,0.2,0.1,0.3c-0.1,0.8-0.1,1.5,0.3,2.2c0.3,0.5,0.6,1,1.1,1.3c13.5,9.9,25.7,22.2,37.5,34.1
		l0.8,0.8c1.1,1.1,2.1,2.1,3.2,3.2c15.4,15.5,30.5,31.5,42,43.7c1.1,1.2,2.2,2.4,3.3,3.5c1.7,1.8,3.6,3.9,5.5,5.9l-2.5,1.7
		c-2,1.4-4,2.8-6,4.2c-0.6,0.4-1.3,0.9-1.9,1.3l-0.2,0.1c-0.8,0.6-5.7,3.3-12.4,7.2c-17.4,10-46.5,26.6-61.4,36.6
		c-2.1-1.2-10.8-5.2-13.5-6.3l-1.4-0.6c-16.7-7-16.8-7-16.9-7c-2.8,0-4.2,0.1-10.6,3.2c-6.3,3-10.4,6.8-10.5,7.8
		c-0.2,2.7,0.6,5.3,1.4,7.6C235.6,216.5,242.1,232.8,242.9,234.5z"/>
</g>
</svg>
