<?xml version="1.0" encoding="utf-8"?>
<!-- Generator: Adobe Illustrator 24.1.1, SVG Export Plug-In . SVG Version: 6.00 Build 0)  -->
<svg version="1.1" id="Capa_1" xmlns="http://www.w3.org/2000/svg" xmlns:xlink="http://www.w3.org/1999/xlink" x="0px" y="0px"
	 viewBox="0 0 390.45 390.45" style="enable-background:new 0 0 390.45 390.45;" xml:space="preserve">
<style type="text/css">
	.st0{fill:none;stroke:#000000;stroke-width:3;stroke-miterlimit:10;}
</style>
<g>
	<path d="M89.39,248.74c-0.08,2.45,0.18,4.73-1.76,6.7c-1.98,2-4.32,1.05-6.63,0.21c-1.69-0.61-2.37,2.03-0.74,2.67
		c3.22,1.26,6.39,1.87,9.06-0.8c0.76-0.76,1.31-1.67,1.7-2.64c0.05,0.09,0.1,0.18,0.15,0.26c1.93,3.04,5.48,3.18,8.48,1.73
		c0.46-0.22,0.69-0.76,0.71-1.24c0-0.11,0.01-0.22,0.01-0.33c0.01-0.29-0.17-0.65-0.45-0.78c-1.27-0.59-1.81,0.09-3.03,0.43
		c-1.44,0.4-2.86-0.01-3.78-1.21c-0.68-0.89-1.12-2.03-1.35-3.12c-0.14-0.63-0.1-1.29-0.14-1.93c0.55-0.05,1.08-0.13,1.55-0.23
		c3.21-0.66,5.6-4.27,2.87-6.96c-1.9-1.87-5.1-2.88-7.09-1.4c-2.69-0.02-5.64,2.75-4.76,5.5C84.9,247.78,87.12,248.58,89.39,248.74z
		"/>
	<path d="M100.71,236.94c0.4,0.15,0.81,0.18,1.21,0.02c0.37-0.09,0.72-0.26,1.02-0.54c0.82-0.75,0.94-2.08,0.61-3.32
		c-0.06-0.58-0.22-1.14-0.49-1.64c-0.44-0.83-1.31-1.52-2.31-1.27c-0.37,0-0.77,0.1-1.17,0.35c-0.76,0.48-1.02,1.44-1.03,2.42
		c-0.25,1.05-0.2,2.12,0.58,3.02C99.55,236.47,100.11,236.8,100.71,236.94z"/>
	<path d="M77.61,235.58c0.42,0.6,1.04,1.02,1.8,1.05c0.68,0.08,1.37-0.19,1.86-0.67c1.05-0.83,1.74-2.26,1.86-3.57
		c0.13-0.62,0.15-1.29-0.06-1.86c-0.39-1.07-1.52-1.51-2.59-1.22c-1.74,0.48-3.23,2.29-3.42,4.07c-0.05,0.49,0.01,0.99,0.17,1.44
		C77.3,235.1,77.43,235.35,77.61,235.58z"/>
	<path d="M101.56,247.07c-0.05-0.07-0.1-0.13-0.16-0.2c-0.07-0.06-0.14-0.12-0.22-0.17c-0.08-0.03-0.16-0.07-0.24-0.1
		c-0.01,0-0.02-0.01-0.04-0.01c-0.34-0.08-0.7,0-0.95,0.25s-0.34,0.61-0.25,0.95c0.06,0.25,0.24,0.52,0.48,0.65
		c0.1,0.05,0.22,0.09,0.32,0.13c0.17,0.05,0.34,0.05,0.51,0c0.16-0.05,0.3-0.13,0.42-0.25c0.12-0.12,0.2-0.26,0.25-0.42
		c0.05-0.17,0.05-0.34,0-0.51C101.65,247.29,101.61,247.15,101.56,247.07z"/>
	<path d="M103.75,251.27c0.03,0.09,0.07,0.18,0.12,0.27c0.04,0.09,0.1,0.16,0.18,0.23c0.1,0.11,0.22,0.19,0.37,0.23
		c0.07,0.03,0.1,0.05,0.16,0.06c0.1,0.01,0.2,0.03,0.3,0.04c0,0,0.01,0,0.01,0c0.01,0,0.01,0,0.02,0c0.16,0.01,0.3-0.03,0.43-0.1
		c0.14-0.05,0.26-0.12,0.36-0.23c0.06-0.08,0.12-0.15,0.18-0.23c0.08-0.13,0.13-0.27,0.13-0.42c0.03-0.1,0.03-0.2,0-0.3
		c-0.01-0.15-0.05-0.29-0.13-0.42c-0.06-0.08-0.12-0.15-0.18-0.23c-0.09-0.09-0.19-0.15-0.3-0.21c-0.03-0.02-0.06-0.03-0.11-0.05
		c-0.02-0.01-0.04-0.01-0.05-0.02c-0.01,0-0.02-0.01-0.03-0.01c-0.01,0-0.01,0-0.02-0.01c0.01,0,0.02,0.01,0.04,0.01
		c-0.11-0.05-0.23-0.08-0.36-0.07c-0.05,0-0.1,0.01-0.15,0.02c-0.09,0.01-0.13,0.02-0.17,0.03c0,0,0.01,0,0.01-0.01c0,0,0,0-0.01,0
		c0,0-0.01,0-0.01,0c-0.04,0.01-0.09,0.03-0.19,0.08c-0.28,0.14-0.5,0.4-0.58,0.69c-0.03,0.1-0.05,0.21-0.04,0.31
		C103.72,251.07,103.73,251.17,103.75,251.27z"/>
	<path d="M81.94,252.51c0.66,0,1.23-0.56,1.23-1.23c0-0.21-0.05-0.43-0.09-0.64c-0.04-0.21-0.08-0.4-0.2-0.59
		c-0.25-0.41-0.72-0.63-1.19-0.57c-0.46,0.06-0.87,0.4-0.99,0.86c-0.04,0.15-0.05,0.28-0.04,0.41c-0.08,0.26-0.08,0.57-0.01,0.81
		C80.81,252.13,81.35,252.51,81.94,252.51z M82.91,250.82c0,0.01,0.01,0.01,0.01,0.02c0,0.03,0.01,0.06,0.01,0.09
		c0-0.03-0.02-0.07-0.02-0.1C82.91,250.83,82.91,250.83,82.91,250.82z M82.85,251.19c0,0,0,0.01,0,0.01
		c-0.03,0.07-0.06,0.14-0.09,0.21C82.8,251.34,82.83,251.26,82.85,251.19z"/>
	<path d="M74.96,248.09c0.26,0.15,0.65,0.18,0.91,0c0.16-0.11,0.32-0.23,0.4-0.42c0.03-0.06,0.05-0.12,0.08-0.18
		c0.06-0.15,0.12-0.29,0.12-0.46c0.01-0.16-0.03-0.25-0.08-0.38c-0.05-0.12-0.09-0.2-0.19-0.29c-0.18-0.16-0.37-0.23-0.6-0.25
		c-0.15-0.01-0.37,0.05-0.5,0.13c-0.17,0.1-0.27,0.24-0.37,0.39c-0.14,0.21-0.22,0.42-0.22,0.67
		C74.51,247.63,74.69,247.93,74.96,248.09z"/>
	<path d="M73.81,253.8c0.03,0.03,0.06,0.06,0.09,0.09c0.1,0.11,0.22,0.19,0.36,0.23c0.13,0.07,0.28,0.1,0.43,0.1
		c0.16,0.01,0.3-0.03,0.43-0.1c0.14-0.05,0.26-0.12,0.36-0.23c0.06-0.08,0.12-0.15,0.18-0.23c0.1-0.18,0.15-0.37,0.15-0.57
		c-0.01-0.1-0.03-0.2-0.04-0.3c-0.05-0.19-0.15-0.36-0.29-0.5c-0.03-0.03-0.06-0.06-0.09-0.09c-0.1-0.11-0.22-0.19-0.36-0.23
		c-0.13-0.07-0.28-0.1-0.43-0.1c-0.16-0.01-0.3,0.03-0.43,0.1c-0.14,0.05-0.26,0.12-0.36,0.23c-0.06,0.08-0.12,0.15-0.18,0.23
		c-0.1,0.18-0.15,0.37-0.15,0.57c0.01,0.1,0.03,0.2,0.04,0.3C73.57,253.49,73.67,253.66,73.81,253.8z"/>
	<path d="M105.94,246.41c0.34,0.12,0.84,0,1.08-0.29c0.1-0.12,0.23-0.25,0.31-0.39c0.09-0.16,0.13-0.31,0.14-0.46
		c0.03-0.12,0.05-0.25,0.04-0.38c-0.04-0.64-0.55-1.01-1.17-0.89c-0.12,0.02-0.23,0.07-0.34,0.13c-0.15,0.05-0.29,0.12-0.42,0.25
		c-0.11,0.11-0.2,0.27-0.3,0.4c-0.22,0.3-0.2,0.82,0,1.12C105.45,246.16,105.65,246.31,105.94,246.41z"/>
	<path d="M80.85,226.31c0.16,0.25,0.39,0.43,0.68,0.51c0.29,0.08,0.59,0.03,0.85-0.11c0.07-0.05,0.13-0.1,0.2-0.15
		c0.05-0.07,0.1-0.13,0.15-0.2c0.03-0.08,0.06-0.15,0.1-0.23c0.04-0.13,0.05-0.26,0.02-0.39c0-0.09-0.02-0.17-0.07-0.24
		c-0.02-0.05-0.05-0.1-0.08-0.14c-0.02-0.09-0.03-0.18-0.08-0.26c-0.05-0.07-0.1-0.14-0.16-0.2c-0.09-0.1-0.2-0.17-0.32-0.21
		c-0.08-0.05-0.16-0.07-0.25-0.07c-0.13-0.03-0.27-0.02-0.4,0.02c-0.08,0.03-0.16,0.07-0.24,0.1c-0.15,0.09-0.27,0.21-0.36,0.36
		c-0.1,0.15-0.14,0.3-0.16,0.47c-0.01,0.07-0.02,0.12-0.02,0.19c0,0.09,0.02,0.21,0.04,0.29C80.76,226.13,80.84,226.29,80.85,226.31
		z M82.73,225.49c0.01,0.02,0.02,0.04,0.03,0.07C82.75,225.53,82.74,225.51,82.73,225.49C82.73,225.49,82.73,225.49,82.73,225.49z
		 M82.72,225.57c0,0.03,0.01,0.06,0.01,0.08c-0.01,0.06-0.02,0.11-0.02,0.17C82.73,225.74,82.73,225.66,82.72,225.57z M82.34,225.01
		c0.03,0.02,0.05,0.04,0.08,0.06c-0.08-0.06-0.16-0.11-0.26-0.14C82.22,224.96,82.28,224.99,82.34,225.01z"/>
	<path d="M99.02,226.45c0.19,0.18,0.43,0.29,0.7,0.29c0.14,0.01,0.26-0.02,0.38-0.08c0.12-0.04,0.23-0.11,0.32-0.2
		c0.1-0.09,0.16-0.2,0.2-0.32c0.06-0.12,0.09-0.24,0.08-0.38c-0.01-0.09-0.02-0.17-0.04-0.26c-0.05-0.17-0.13-0.31-0.25-0.44
		c-0.19-0.18-0.43-0.29-0.7-0.29c-0.14-0.01-0.26,0.02-0.38,0.08c-0.12,0.04-0.23,0.11-0.32,0.2c-0.1,0.09-0.16,0.2-0.2,0.32
		c-0.06,0.12-0.09,0.24-0.08,0.38c0.01,0.09,0.02,0.17,0.04,0.26C98.81,226.18,98.9,226.33,99.02,226.45z"/>
	<path d="M130.27,334.76c3.47-5.69,3.05-12.6-0.21-18.55c-4.24-7.74-8.13-15.29-11.16-23.5c1.23-10.39,2.19-26.39-5.91-34.34
		c0-0.66-0.06-1.31-0.17-1.95c0.07-0.14,0.15-0.28,0.22-0.42c2.01-4.38,2.04-9.19,1.56-13.9c-0.37-3.64-0.59-7.3-0.85-10.95
		c2.01,2.54,4.79,4.28,8.25,4.17c8.39-0.26,7.99-9.96,6.08-15.73c-2.18-6.57-7.29-11.83-14.66-11.67
		c-6.07,0.13-11.3,4.49-12.51,10.24c-2.46-1.98-5.9-2.17-9.03-2.39c-0.07,0-0.14,0-0.2-0.01c0.02-0.26,0.05-0.52,0.11-0.79
		c0.25-1.09,0.81-2.08,1.05-3.17c0.08-0.37-0.3-0.69-0.65-0.5c-1.39,0.77-2.16,2.63-2.23,4.43c-0.43,0.01-0.86,0.04-1.29,0.08
		c-0.26-0.53-0.47-1.09-0.6-1.68c-0.21-0.96-0.05-1.93-0.21-2.88c-0.06-0.39-0.68-0.56-0.93-0.25c-1.14,1.46-0.76,3.48,0.19,5.04
		c-2.27,0.45-4.4,1.42-5.96,3.12c-0.89-5.98-7.4-9.39-13.13-8.18c-7.36,1.55-13.46,9.92-14.71,17.08
		c-1.06,6.08,3.15,10.13,9.22,9.14c2.55-0.42,4.81-1.63,6.66-3.32c-2.34,7.59-3.79,16.13-0.94,23.36c0.19,0.48,0.41,0.94,0.64,1.4
		c0.03,2.65,0.57,4.99,1.48,7.04c-3.21,7.44-3.43,16.36-2.67,24.68c-3.31,5.79-5.43,12.63-7.38,19.29
		c-0.42-0.36-0.86-0.72-1.23-1.08c-2.35-2.33-4.56-4.8-6.72-7.31c-2.48-2.88-4.93-5.8-7.22-8.84c-0.83-1.1-1.3-2.09-2.59-2.6
		c-0.38-0.15-0.86,0.03-1.14,0.3c-3.19,3.06,2.75,11.98,4.32,14.91c2.98,5.56,6.5,11.81,11.36,16.08
		c-0.88,4.69-0.48,9.04,2.21,13.09c-4.25,0.6-8.98,2.7-7.5,7.76c1.65,5.64,12.02,5.45,16.56,5.5c0.05,0,0.1-0.01,0.15-0.01
		c0.11,0.17,0.24,0.35,0.37,0.51c1.97,2.44,5.69,2.71,8.56,2.39c2.99-0.34,9.15-1.37,10.63-4.34c0.13-0.26,0.11-0.58-0.03-0.84
		c0.01-0.07,0.03-0.14,0.05-0.21c2,0.68,4.3,0.65,6.37,0.78c3.11,0.19,6.22,0.18,9.33-0.06c0.08-0.01,0.17-0.03,0.26-0.04
		c0.03,0.08,0.08,0.16,0.17,0.23c4.24,3.4,16.29,5.53,19.21-0.76c0.3-0.65,0.48-1.31,0.59-1.97c3.55,0.79,12.04,0.9,13.39-2.42
		C138.93,336.98,133.74,335.42,130.27,334.76z M69.61,253.6c-2.25-8.32,1.87-15.53,2.59-23.5c1.52-2.69,2.27-5.81,1.99-8.85
		c-0.07-0.73-1.06-0.91-1.3-0.18c-1.56,4.72-2.59,9.55-7.23,12.26c-1.83,1.07-4.95,2.05-7.08,1.22c-4.66-1.8-2.74-6.92-1.49-9.8
		c1.79-4.11,4.65-8.33,8.8-10.36c6.39-3.13,11.01,0.37,14.21,5.65c0.18,0.3,0.61,0.35,0.88,0.19c0.18,0.18,0.47,0.26,0.77,0.13
		c2.93-1.31,5.35-2.49,8.46-2.54c0.12,0.36,0.27,0.69,0.46,0.98c0.29,0.43,0.95,0.27,0.97-0.26c0.01-0.22,0.01-0.44,0.01-0.67
		c3.17,0.26,6.13,1.02,8.52,3.27c0.38,0.36,0.8,0.45,1.17,0.36c0.44,0.11,0.93-0.05,1.03-0.6c2.21-11.61,16.61-14.15,21.78-3
		c1.96,4.23,4.83,16.63-4.87,13.6c-4.72-1.47-5.46-7.81-7.93-11.4c-0.39-0.57-1.37-0.4-1.36,0.37c0.02,1.63,0.31,3.37,0.84,5.08
		c-2.23,6.62,1.15,14.65,1.09,21.37c-0.1,10.32-7.73,17.47-17.64,19.11C84.16,267.72,72.55,264.51,69.61,253.6z M110.38,260.27
		c-0.6,2.87-1.82,5.59-3.51,8.1c-3.4,5.05-8.84,5.86-14.48,6.16c-9.8,0.53-18.37-3.21-21.13-12.38c4.65,5.28,12.33,7.31,19.41,7.07
		C98.13,268.96,105.7,266.06,110.38,260.27z M58.12,317.04c-0.19,0.62-0.37,1.24-0.53,1.85c-5.11-7.59-9.9-14.86-13.66-23.38
		c-1.88-4.26,0.95,0.68,1.78,1.78c1.33,1.78,2.7,3.53,4.13,5.22c3.02,3.56,6.36,6.79,9.6,10.14C59,314.14,58.57,315.61,58.12,317.04
		z M67.59,344.22c-2.96-0.09-5.9-0.34-8.79-1.03c-2.36-0.56-3.98,0.06-4.09-3.13c-0.08-2.2,2.6-3.14,4.39-2.87
		c1.05-0.18,2.1-0.23,3.17-0.14c0.14,0,0.26-0.02,0.39-0.05c0.81,0.43,1.65,0.79,2.32,1.11c1.04,0.49,2.59,1.35,4.05,1.74
		C68.14,341.15,67.6,342.69,67.59,344.22z M66.18,336.02c-0.8-0.29-1.7-0.79-2.62-1.23c-0.06-0.12-0.13-0.23-0.23-0.33
		c-6.69-7.24-2.58-15.74-0.01-23.84c1.64-5.19,3.71-10.57,4.84-16c0.13,0.98,0.26,1.95,0.4,2.9c1.9,12.78,4.05,25.52,5.92,38.3
		c-1.17,0.03-2.38,0.79-3.4,1.69C69.66,336.75,67.59,336.53,66.18,336.02z M83.96,345.6c-1.98,0.83-4.06,1.62-6.19,1.96
		c-2.82,0.45-7.69,0.1-7.55-3.78c0.12-3.32,3.55-5.26,5.99-6.69c0.12-0.07,0.19-0.22,0.18-0.36c0.23-0.24,0.38-0.57,0.31-0.98
		c-1.91-11.65-3.56-23.35-5.42-35.02c-0.93-5.84-1.96-11.72-1.82-17.65c0.12-5.16,1.67-10.23,2.02-15.33
		c2.56,4,6.78,6.63,11.58,8.01c-2.81,3.54-3.68,7.85-3.36,12.36c0.14,2.03,0.52,3.89,1.45,5.71c1.35,2.64,2.49,4.5,3.28,6.8
		c-0.15,2.94,0.34,5.89,0.56,8.85c0.33,4.27,0.56,8.53,0.75,12.81c0.32,7.3-0.46,15.19,0.65,22.44
		C85.61,344.81,85,345.16,83.96,345.6z M103.75,296.98c-1.4,7.14-0.35,15.31-0.32,22.48c0.03,7.69-0.46,15.75,0.26,23.46
		c-1.13-0.13-2.6,0.1-3.33,0.12c-3.71,0.14-8.3-0.61-12,0.31c1.05-6.81,0.28-14.35,0.04-21.06c-0.23-6.49,0.27-14.61-1.51-21.18
		c-0.1-2.29-1.04-4.5-2.27-6.6c-3.3-5.6-2.9-12.37,0.91-17.63c0.12-0.16,0.18-0.33,0.21-0.49c2.44,0.45,4.97,0.6,7.46,0.47
		c2.75-0.15,5.54-0.51,8.09-1.4C108.52,281.11,104.19,289.55,103.75,296.98z M118.49,345.55c-4.15,1.58-8.41-0.74-12.57-0.8
		c0.83-8.28,0.08-16.98-0.06-25.29c-0.11-6.91,0.7-14.82-0.63-21.75c3.49-7.26,4.24-17.28-1.35-23.39c1.49-0.83,2.84-1.91,3.99-3.34
		c1.97-2.45,3.9-5.89,4.72-9.36c1.66,5.42,3.69,10.37,4.12,16.3c0.49,6.65-0.25,13.34-1.1,19.93c-1.56,12.02-3.15,24.27-2.77,36.41
		c0.02,0.49,0.37,0.73,0.73,0.73c1.6,1.01,3.48,1.28,5.04,2.33C121.45,339.24,122.09,344.18,118.49,345.55z M114.43,333.45
		c0.98-11.89,2.4-23.67,3.84-35.49c1.26,3.77,3.05,7.39,4.77,11c3.88,8.15,10.74,17.24,3.58,25.8c-0.63,0.46-1.29,0.84-2.09,1.13
		c-0.81,0.29-1.7,0.36-2.53,0.58C120.16,334.33,117.34,333.03,114.43,333.45z M129.54,340.05c-2.02,0.14-3.73,0.12-5.52,0.66
		c-0.13-0.83-0.39-1.64-0.76-2.39c0.86-0.06,1.75-0.29,2.41-0.52c0.45-0.16,0.91-0.35,1.36-0.58c0.08,0.03,0.15,0.06,0.24,0.07
		c0.82,0.12,3.98,0.31,4.61,0.93C133.62,339.98,130.54,339.98,129.54,340.05z"/>
	<path d="M87.09,281.92c-0.03-0.35-0.4-0.5-0.67-0.28c-2.05,1.7-1.81,6.84,0.21,8.49c0.3,0.24,0.84,0.11,0.82-0.34
		c-0.07-1.33-0.67-2.56-0.73-3.9C86.65,284.54,87.18,283.25,87.09,281.92z"/>
	<path d="M90.13,287.98c-0.15-0.27-0.62-0.31-0.76,0c-0.6,1.34-0.21,2.93,0.27,4.26c0.42,1.14,1.09,2.89,2.39,3.19
		c0.3,0.07,0.55-0.14,0.57-0.43c0.08-1.16-0.95-2.37-1.35-3.44C90.83,290.39,90.74,289.07,90.13,287.98z"/>
	<path d="M97.41,294.38c-0.32-0.24-0.66-0.45-0.96-0.72c-0.61-0.53-1.15-1.14-1.6-1.81c-0.24-0.36-0.94-0.27-0.9,0.24
		c0.09,1.06,0.53,2.02,1.32,2.75c0.68,0.63,1.88,1.31,2.84,1.03c0.37-0.11,0.48-0.56,0.22-0.85
		C98.07,294.75,97.7,294.6,97.41,294.38z"/>
	<path d="M240,64c0.01,0.66,0.34,1.29,0.91,1.63c0.59,0.36,1.37,0.33,1.96-0.02c0.33-0.19,0.59-0.48,0.78-0.8
		c0.24-0.35,0.38-0.76,0.36-1.2c-0.02-0.54-0.24-1.07-0.64-1.44c-0.49-0.47-1.16-0.63-1.81-0.49c-0.41,0.09-0.74,0.33-0.99,0.65
		c-0.36,0.37-0.58,0.88-0.56,1.41c0,0.03,0.01,0.05,0.01,0.08C240.01,63.88,240,63.94,240,64z M242.24,64.09
		c0.07-0.05,0.04-0.03-0.08,0.07c-0.01,0-0.02,0-0.02,0C242.16,64.13,242.2,64.11,242.24,64.09z"/>
	<path d="M227.34,73.78c0.13,0.41,0.47,0.84,0.93,0.93c4.14,0.75,8.15-3.47,12.51-3.34c7.21,0.22,10.96,7.21,15.92,11.29
		c5.52,4.54,13.57,6.68,20.81,5.75c0.48,0.84,1.27,1.5,2.08,2.01c0.85,0.54,2.36,1.43,3.3,0.72c0.46-0.35,0.63-0.85,0.36-1.39
		c-0.43-0.86-1.57-0.89-2.36-1.31c-0.08-0.04-0.16-0.1-0.24-0.15c1.14-0.07,2.27-0.19,3.4-0.34c0.95,0.7,2.37,1.09,3.28,1.37
		c1.38,0.43,4,1.4,5.09,0.11c0.19-0.22,0.3-0.59,0.11-0.85c-0.84-1.19-2.52-1.01-3.91-1.26c2.34-0.32,4.7-0.58,7.09-0.51
		c6.19,0.19,11.44,1.9,17.19,3.66c0.51,1.07,2.45,1.29,2.81-0.19c1.75-7.1,1.01-14.37-2.57-20.78c-0.28-0.51-0.89-0.7-1.43-0.58
		c-4.94,1.08-9.9,2.12-14.96,2.35c-2.82,0.13-5.58-0.33-8.33-0.66c2.24-1.03,4.09-2.45,5-4.22c1.31-0.35,2.6-0.77,3.86-1.23
		c2.21-0.8,6.06-1.67,7.17-4.03c3.86-0.73,7.33-2.2,9.17-4.61c2.1-0.31,5.29-1.26,6.41-2.69c4.18-5.3-8.02-10.94-11.34-12.13
		c-8.78-3.15-18.69-2.44-27.07,1.59c-1.01,0.48-1.99,1.02-2.95,1.58c-5.9-5.16-16.71-9.05-24.18-5.62
		c-7.53,3.46-3.42,15.12-1.2,21.58c-4.38-2.25-9.5-4.38-14.14-2.87c-6.21,2.02-8.95,8.74-11.73,14.02
		c-0.07,0.14-0.11,0.28-0.13,0.41c-0.17,0.26-0.23,0.61-0.1,1.03C227.26,73.55,227.3,73.67,227.34,73.78z M252.97,46.46
		c0.76-2.9,3.4-5.4,6.47-5.55c5.79-0.28,12.24,1.87,16.78,5.54c-0.77,0.52-1.54,1.05-2.29,1.6c-0.94-0.24-1.87-0.48-2.8-0.73
		c-0.98-0.26-2-0.86-2.95-0.28c-0.27,0.16-0.48,0.55-0.35,0.87c0.43,1.09,1.45,1.21,2.5,1.54c0.44,0.14,0.88,0.24,1.33,0.35
		c-0.69,0.54-1.37,1.08-2.05,1.63c-0.23,0.19-0.48,0.4-0.72,0.61c-0.28-0.09-0.58-0.11-0.87-0.17c-0.34-0.06-0.66-0.17-0.98-0.27
		c-1.42-0.4-2.02,1.8-0.61,2.21c0.12,0.04,0.26,0.06,0.39,0.09c-3.3,3.03-7.39,6.77-11.34,7.34c-0.62-2.93-1.32-5.85-1.81-8.8
		C253.36,50.59,252.52,48.18,252.97,46.46z M242.32,59.6c4.08-0.17,7.37,2.37,11.1,3.43c3.88,1.9,8.26-1.75,11.4-4.14
		c6.76-5.15,12.99-11.25,21.15-14.17c8.31-2.98,18.02-2.67,25.83,1.68c1.31,0.73,6.59,3.6,5.88,5.47c-0.31,0.82-3.19,1.39-4.07,1.55
		c-4.42,0.8-9.82-1.08-14.19-1.99c-1.85-0.38-2.65,2.4-0.79,2.86c3.53,0.87,7.61,2.03,11.44,2.31c-6.66,3.13-13.67,1.54-21.01,1.93
		c-1.02,0.05-1.09,1.31-0.23,1.68c2.62,1.1,6.79,1.67,11.05,1.48c-5.84,2.78-12.13,4.01-18.72,3.07c-1.22-0.17-1.77,1.51-0.52,1.9
		c2.84,0.89,5.75,0.99,8.64,0.61c-1.52,0.85-3.13,1.49-4.94,1.98c-3.17,0.86-5.97,0.58-9.16,0.76c-1.07,0.06-1.15,1.38-0.24,1.77
		c2.34,0.98,5.96,1.01,9.42,0.22c5.35,2.97,13.44,1.93,19.09,1.1c1.77-0.26,3.6-0.82,5.39-0.95c3.37-0.25,3.43,0.73,4.35,4.16
		c0.15,0.54,0.27,1.08,0.37,1.62c-1.53-0.65-3.41-0.83-4.92-1.09c-2.42-0.41-4.64-0.63-7.06-0.16c-0.42,0.08-0.33,0.64,0,0.76
		c2.43,0.91,4.89,1.2,7.42,1.7c1.57,0.31,3.25,0.94,4.86,0.9c0.13,1.37,0.14,2.73,0.02,4.09c-0.96-0.53-2.09-0.84-3.12-1.09
		c-1.73-0.42-3.77-1.04-5.53-0.52c-0.63,0.19-0.63,0.93-0.17,1.29c1.33,1.02,3.13,1.17,4.73,1.55c1.28,0.31,2.51,0.8,3.76,1.18
		c-0.12,0.65-0.27,1.31-0.44,1.97c-4.95-2.64-10.98-3.61-16.48-3.89c-5.01-0.25-11.47-0.17-16.47,1.67
		c-5.15,0.1-10.13,0.17-15.08-1.69c-5.79-2.18-8.99-6.63-13.31-10.71c-2.72-2.57-5.82-4.47-9.57-5c-0.64-0.09-2.91,0.16-5.35,0.63
		c-0.05-1.01-0.8-2.13-1.2-2.96c-0.33-0.67-0.74-1.61-1.35-2.23C236.25,61.71,238.73,59.75,242.32,59.6z M233.06,66.16
		c0.35,0.59,0.65,1.21,0.9,1.83c0.26,0.62,0.34,1.4,0.63,2.02c-2,0.5-3.78,1.13-4.52,1.83C230.99,69.98,231.94,67.99,233.06,66.16z
		 M229.71,72.55c0,0.06,0.02,0.13,0.05,0.2c-0.02-0.05-0.05-0.09-0.07-0.14C229.69,72.58,229.7,72.56,229.71,72.55z"/>
	<path d="M127.58,117.77c-1.03-0.29-2.14-0.31-3.2,0.04c-2.36,0.76-3.97,3.11-3.97,5.54c-0.3,1-0.39,2.06-0.14,3.16
		c0.57,2.51,2.8,4.57,5.46,4.47c3.67-0.13,5.92-3.47,6.04-6.84c0.04-0.25,0.09-0.49,0.11-0.74c0.07-1.46-0.39-2.88-1.31-4.02
		C129.74,118.36,128.69,117.85,127.58,117.77z"/>
	<path d="M90.46,148.61c-0.21,0.18-0.33,0.43-0.38,0.69c-4.14,1.52-6.06,7.14-4.51,11.09c1.73,4.4,6.97,6.67,11.34,4.63
		c4.1-1.91,6.29-7.06,4.51-11.28C99.95,150.24,94.14,145.36,90.46,148.61z M95.24,161.68c-3.16,1.5-6.96-0.95-7.14-4.39
		c-0.14-2.7,1.92-4.15,3.29-6.09c2.17,0.93,4.39,0.97,5.9,3.27C98.91,156.96,97.93,160.41,95.24,161.68z"/>
	<path d="M364.22,205.54c0.25-2.52-0.1-5.04-0.36-7.71c-1.44-14.62-5.09-34.17-20.97-39.92c-0.35-0.13-0.65-0.09-0.89,0.04
		c-0.18-1-0.4-1.99-0.66-2.96c-0.28-1.39-0.63-2.77-1.11-4.11c-3.6-10.01-13.78-15.6-23.81-17.2c-0.11-0.02-0.22-0.03-0.33-0.05
		c-1.45-0.26-2.91-0.44-4.37-0.53c-11.77-1.06-23.99,0.55-35.74,0.13c-15.68-0.56-31.39-1.08-47.06-1.97
		c-6.61-0.38-13.43-0.96-20.2-1.99c-1.11-0.18-2.22-0.36-3.32-0.57c-0.21-0.04-0.42-0.06-0.62-0.07c-5.95-1.06-11.82-2.5-17.43-4.47
		c3.37-1.79,6.31-4.53,9.24-7.69c0.79-0.86,0.86-2.66-0.41-3.2c-6.32-2.71-12.54-5.68-18.71-8.73c-3.14-1.55-6.25-3.16-9.34-4.81
		c-1.8-0.96-3.33-2.06-5.21-2.39c1.06-2.58,1.68-5.34,1.95-7.63c0.5-4.34,0.51-17.55-6.44-17.3c-3.17,0.12-5.12,4.17-6.79,6.35
		c-2.7,3.52-5.99,7.11-8.28,11.05c-9.69-3.22-18.77,0.21-25.07,7.04c-1.61-3.44-5.77-5.38-8.77-7.56c-3.37-2.46-6.65-5.5-10.21-7.63
		c-4.52-2.7-7.35,0.34-8.13,5.08c-0.94,5.7,0.66,11.79,3.34,16.82c1.89,3.55,5.05,8.13,9.02,9.93c-1.48,1.31-2.98,2.6-4.48,3.88
		c-5.84,4.96-11.79,9.81-16.84,15.61c-8.53,9.8-16.77,24.91-10.72,38.01c4.86,10.53,17.79,15.21,28.74,13.42
		c6.67-1.09,12.71-4.56,17.86-8.82c4.53-3.75,10.85-9.35,12.54-15.4c3.13,0.39,6.48-0.2,9.61-0.57
		c10.71,10.85,15.02,24.44,20.01,38.48c3.76,10.56,8.17,20.79,16.14,28.54c-0.26,3.82,0.87,7.92,1.35,11.66
		c0.75,5.84,1.08,11.68,1.25,17.57c0.33,11.05,0.06,22.09,0.3,33.14c0.11,5.36,0.15,10.72,0.5,16.07c0.17,2.65,0.37,5.51,2.58,7.31
		c5.63,4.6,16.92,1.93,22.74-0.86c0.75-0.36,1.09-0.91,1.16-1.5c0.15-0.13,0.29-0.29,0.37-0.48c1.96-4.68,1.6-10.67,1.94-15.7
		c0.39-5.95,0.78-11.9,0.96-17.86c0.34-10.89,0.61-21.78,0.67-32.68c6.63,1.93,13.66,3.61,16.47,10.56c1.03,2.55,1.84,5.2,2.6,7.87
		c0.77,6.37,1.93,12.72,2.63,19.08c0.95,8.68,1.76,17.38,2.56,26.08c0.26,2.84,0.19,6.36,0.93,9.42c0.01,1.45,0.63,2.94,1.74,3.96
		c0.81,1.09,1.9,1.97,3.4,2.54c4.57,1.72,12.7,1.18,16.41-2.3c2.2-2.07,2.58-4.89,2.78-7.77c0.36-5.31,0.46-10.65,0.68-15.97
		c0.43-9.98,0.85-19.96,1.28-29.94c0.35-8.21,1.31-16.7,0.82-24.96c2.06,1.17,6.21-0.04,9.62-1.35c-0.63,4.15,0.04,8.55,0.33,12.71
		c0.37,5.38,0.83,10.75,1.2,16.13c0.46,6.6,1.09,14.81,9.64,15.06c6.74,0.19,9.89-6.23,10.74-12.01c0.67-4.56,0.67-9.23,0.92-13.83
		c0.27-4.99,0.98-10.23,0.71-15.26c0.85,0.04,1.66,0.02,2.37-0.05c0.91-0.09,2.1-0.27,3.42-0.53c0.04,0.99,0.19,1.99,0.23,2.97
		c0.06,1.41-0.08,2.79-0.1,4.19c-0.02,2.35,3.25,2.18,3.54,0c0.33-2.47,0.23-5.42-0.69-7.85c1.9-0.51,3.87-1.18,5.64-2.04
		c-0.04,1.91,0.03,3.87,0.75,5.53c0.67,1.56,3.25,0.75,3.16-0.85c-0.09-1.45-0.4-2.91-0.59-4.35c-0.1-0.74-0.21-1.43-0.41-2.09
		c1-0.79,1.79-1.68,2.28-2.69c1.7,0.48,3.4,0.77,5.04,0.75c-0.13,6.55,0.11,13.12,0.25,19.68c0.16,7.49-0.08,15.17,0.63,22.64
		c0.31,3.32,1.23,7.36,4.77,8.61c2.78,0.98,6.74-0.03,9.51-0.65c2.56-0.58,4.74-1.09,5.91-3.56c2.13-4.51,2.07-10.58,2.35-15.43
		c0.8-13.99,1.1-27.91,1.11-41.92c0.01-14.06,0.9-28.43-0.26-42.45c-0.32-3.83-0.94-7.63-1.45-11.44c-0.03-0.53-0.05-1.06-0.08-1.59
		c-0.16-3.13-0.26-6.47-0.67-9.76c12.13,8.86,15.88,21.97,17.26,36.5c0.39,4.09,0.98,7.7-0.55,11.6c-0.95,2.41-1.71,4.74-2.08,7.3
		c-0.6,4.07-0.97,11.63,2.68,14.57c2.89,2.33,7.92,1.56,11.05,0.26c4.46-1.84,7.72-5.7,8.44-10.52
		C380.52,211.25,372.62,204.13,364.22,205.54z M152.86,82.87c0.74-0.99,1.46-2.31,2.36-3.15c1.24-1.15,3.28-2.86,5.3-1.41
		c1.33,0.95,0.82,7.37,0.69,8.86c-0.4,4.81-2.75,15.44-9.51,13.7c-3.57-0.92-4.93-5.35-6.44-8.33
		C148.17,89.75,150.49,86.03,152.86,82.87z M99.12,104.07c-2.47-3.93-3.99-8.52-4.13-13.18c-0.05-1.73-0.3-5.87,2.35-5.81
		c1.44,0.03,5.23,3.95,6.47,4.89c3.7,2.81,8.25,7.93,12.86,8.83c-1.01,1.29-1.92,2.68-2.74,4.15c-2.07,2.2-3.98,4.58-6.16,6.67
		c-0.61,0.59-1.25,1.14-1.87,1.72C103.67,108.9,100.98,107.04,99.12,104.07z M119.78,165.37c-0.29,0.55-0.3,1.08-0.16,1.55
		c-0.9,1.05-1.81,2.06-2.77,2.95c-3.14,2.91-6.76,5.46-10.7,7.24c0.54-0.76,1.02-1.55,1.46-2.28c2.19-3.67,3.29-7.75,3.47-12
		c0.09-2.13-3.24-2.13-3.32,0c-0.14,3.86-1.18,7.56-3.24,10.85c-1.24,1.98-3.13,3.5-4.36,5.43c0,0,0,0,0,0
		c-12.2,2.56-25.6-4.07-25.87-17.57c-0.23-11.91,7.37-21.88,15.49-30.05c7.73,2.39,14.65,5.74,20.31,11.75
		c2.79,2.97,5.17,6.42,6.83,10.15C118.01,155.85,121.14,162.76,119.78,165.37z M205.46,275.99c-0.23,5.64-0.38,11.28-0.68,16.91
		c-0.1,1.89-0.33,3.88-0.53,5.9c-6.82,0.22-13.64,0.45-20.47,0.68c0,0,0,0,0,0c-0.46-8.54-0.37-17.09-0.5-25.64
		c-0.14-8.84-0.18-17.62-0.94-26.43c-0.44-5.1-0.47-12.02-2.21-17.56c0.21,0.16,0.4,0.32,0.61,0.48c5.06,3.74,10.57,5.79,16.36,8.05
		c3.13,1.22,6.11,2.53,9.22,3.66C206.01,253.35,205.92,264.68,205.46,275.99z M290.75,261.43c-0.12,2.43,0.04,6.38-0.46,10.07
		c-0.31,0.03-0.62,0.05-0.93,0.08c-0.22,0-0.44,0-0.66,0.04c-0.07,0.01-0.13,0.02-0.2,0.04c-3.78,0.32-7.57,0.5-11.37,0.55
		c-0.7-4.59-0.52-9.8-0.7-12.32c-0.45-6.39-0.04-14.03-2.24-20.17c1.25-0.52,2.27-0.98,2.84-1.21c1.88-0.74,3.71-1.54,5.48-2.44
		c1.08,3.6,5.2,5.77,9.3,6.72C290.81,248.85,291.05,255.34,290.75,261.43z M300.04,238.78c-3.12,0.71-6.45,0.82-9.49-0.24
		c-2.36-0.82-3.69-2.42-5.27-3.98c4.36-2.58,8.19-5.87,11.09-10.3c0.05-0.08,0.09-0.17,0.13-0.25c2.56,2.62,5.42,4.92,8.58,6.83
		c1.68,1.01,3.63,2.1,5.69,3.04C307.48,236.06,304.25,237.82,300.04,238.78z M340.15,268.54c-0.03,0.55-0.05,1.19-0.07,1.86
		c-0.16,0-0.32,0.01-0.5,0.06c-3.23,0.83-6.46,0.88-9.77,0.95c-1.89,0.04-3.81-0.07-5.49,0.8c-0.65-12.09-0.35-24.25-1.37-36.33
		c0.8-0.61,0.81-2.1-0.16-2.6c-4.96-2.57-10.74-2.88-15.77-5.79c-5.23-3.03-9.63-7.25-13.09-12.19
		c-6.61-9.42-7.76-19.96-10.93-30.64c-0.18-0.61-1.25-0.73-1.36,0c-1.63,11.59,3.76,25.05,10.51,34.25
		c0.64,0.88,1.32,1.72,2.02,2.55c-0.45,0.1-0.87,0.36-1.18,0.84c-3.56,5.45-8.81,9.09-14.61,11.85c-4.94,2.35-10.54,4.9-16.07,5.06
		c-0.01-0.14-0.02-0.28-0.03-0.42c-0.47-4.35-1.59-8.61-2.63-12.85c-0.87-3.58-1.28-7.61-3.98-10.29c-0.49-0.49-1.3-0.24-1.5,0.4
		c-1.78,5.65,2.03,13.3,3.25,18.85c1.67,7.58,0.94,15.28,0.62,22.96c-0.68,16.3-1.37,32.6-2.05,48.9c-0.01,0.14-0.01,0.3-0.01,0.44
		c-0.08-0.02-0.16-0.05-0.24-0.05c-2.92-0.26-5.71,0.53-8.62,0.74c-2.83,0.21-5.58,0.23-8.35,0.9c-0.17,0.04-0.32,0.11-0.46,0.18
		c-0.04-1.34-0.06-2.64-0.17-3.79c-0.33-3.49-0.66-6.98-1-10.46c-0.85-8.59-1.34-17.84-2.79-26.7c0.24-10.15-2.67-21.27-12.33-25.82
		c-5.72-2.69-12.07-3.57-17.9-5.94c-5.06-2.06-10.44-3.73-15.26-6.27c-27.61-14.56-23.31-51.39-44.89-70.78
		c2.04-0.29,4.03-0.75,5.85-1.81c4.71-2.74,8.83-9.88,8.38-15.35c-0.12-1.52-1.9-1.97-2.78-0.75c-3.67,5.09-3.12,11.88-10.46,13.89
		c-4.72,1.29-10.08,0.53-14.7,2.12c-0.28-0.11-0.61-0.1-0.95,0.08c-2.04,1.08-3.79,2.71-5.43,4.51c-0.4-2.37-1.34-4.77-2.11-6.7
		c-1.77-4.45-4.3-8.6-7.36-12.27c-5.61-6.71-13.41-12.22-22.1-13.9c0.34-0.32,0.67-0.64,1-0.95c4.84-4.56,9.95-8.85,14.63-13.58
		c2.5-2.53,5.31-5.32,7.46-8.43c3.59-3.15,5.59-8.16,9.8-10.84c4.8-3.06,10.5-3.75,15.84-2.21c-0.14,0.39-0.17,0.84-0.03,1.31
		c1.52,5.44,5.73,11.59,12,11.54c4.09-0.03,6.97-2.75,8.88-6.23c1.18,1.38,2.82,2.13,4.52,3.14c3.01,1.78,6.07,3.48,9.15,5.14
		c5.27,2.84,10.66,5.42,16.14,7.83c-2.99,2.96-6.34,5.49-10.56,6.09c-0.12,0-0.23,0.01-0.34,0.04c-0.55,0.06-1.1,0.1-1.68,0.1
		c-2.77-0.03-5.45-0.68-8.06-1.55c-1.35-0.45-2.66-0.98-3.97-1.53c-0.75-0.3-1.49-0.62-2.22-0.96c-0.38-0.3-0.63-0.42-0.78-0.37
		c-0.28-0.78-1.21-1.32-2.04-1.09c-0.13,0.03-0.26,0.07-0.39,0.1c-0.8,0.21-1.37,0.99-1.37,1.8c-0.02,2.84,2.54,3.5,4.82,4.47
		c3.66,1.56,7.44,2.94,11.42,3.39c2.64,0.29,4.99,0.08,7.15-0.52c5.62,2.54,11.24,4.46,17.1,5.87c-0.29,1.14-0.06,2.44,0.94,3.56
		c6.22,7.01-1.8,12.96-7.28,16.51c-5.42,3.51-10.37,7.41-13.34,13.31c-5.32,10.59-2.28,25.72,9.81,30.16
		c5.13,1.88,11,0.86,13.84-4.14c2.88-5.07,0.58-13.36,8.53-12.97c6.88,0.33,13.87,1.96,19.95-2.37c4.83-3.44,6.51-8.63,5.03-14.3
		c-0.76-2.89-1.33-5.08,0.78-7.54c1.31-1.53,3.23-2.64,4.68-4.04c2.15-2.07,3.97-4.49,4.77-7.41c0.55-2.03,0.52-4.57-0.42-6.25
		c11.56,0.54,23.13,1.1,34.7,1.24c4.45,0.05,9.02-0.21,13.62-0.41c-4.33,1.8-7.52,6.27-9.24,10.74c-3.08,8.04-1.63,16.74,3.4,23.6
		c3.5,4.78,7.74,8.81,8.13,15.08c0.37,5.96-1.37,11.82-0.47,17.79c1.22,8.09,9.29,16.88,18.14,12.53
		c10.89-5.36,5.88-20.89,5.69-30.07c-0.06-3.13,0.02-6.51,0.74-9.57c0.97-4.14,2.01-1.91,3.9,0.54c2.59,3.37,5.93,4.94,10.2,4.51
		c1.41-0.14,2.51-0.49,3.37-0.98c0.39,4,0.69,8.01,0.72,12.09C341.15,218.28,341.5,243.42,340.15,268.54z M374.94,219.3
		c-0.6,4.63-7.87,11.61-12.43,7.27c-3.8-3.62-1.4-11.49,0.39-16.19c0.15-0.02,0.3-0.06,0.47-0.11
		C369.62,208.07,375.83,212.41,374.94,219.3z"/>
	<path d="M234.44,192.08c-3.86-0.92-9.62-0.56-13.18,2.02c-3.74,0.56-7.66,3.09-9.84,5.39c-3.87,4.07-5.43,10.25-3.48,15.57
		c0.87,2.39,2.51,4.52,4.71,5.84c2.16,1.3,3.74,1.16,5.02,3.78c0.56,1.15,0.74,2.51,1.26,3.69c2.37,5.4,8.2,8.44,14.04,7.13
		c5.65-1.26,9.71-6.64,9.9-12.37c0.12-3.49-2.6-7.22-1.44-10.52c1.03-2.94,3.5-4.6,3.81-7.99
		C245.85,198.24,240.16,193.43,234.44,192.08z"/>
	<path d="M271.03,162.6c-3.16-2.53-6.9-1.24-8.84,1.96c-6.17,2.34-12.52,5.75-11.88,13.46c0.51,6.13,6.84,17.45,14.41,15.41
		c9.75-2.63,3.58-15.39,6.79-21.73C273.06,168.62,274.29,165.21,271.03,162.6z"/>
</g>
</svg>
