<?xml version="1.0" encoding="utf-8"?>
<!-- Generator: Adobe Illustrator 15.1.0, SVG Export Plug-In . SVG Version: 6.00 Build 0)  -->
<!DOCTYPE svg PUBLIC "-//W3C//DTD SVG 1.1//EN" "http://www.w3.org/Graphics/SVG/1.1/DTD/svg11.dtd">
<svg version="1.1" id="Layer_5" xmlns="http://www.w3.org/2000/svg" xmlns:xlink="http://www.w3.org/1999/xlink" x="0px" y="0px"
	 width="566.93px" height="566.93px" viewBox="0 0 566.93 566.93" enable-background="new 0 0 566.93 566.93" xml:space="preserve">
<path d="M147.35,213.974c-2.677,11.926-2.302,25.542,1.718,37.078c3.952,11.339,12.143,18.803,22.866,23.329
	c24.638,10.398,49.951,19.395,75.439,27.458c30.141,9.533,62.38,19.561,94.291,19.644c10.444,0.026,22.209-1.285,30.299-8.592
	c5.814-5.252,10.27-12.357,15.534-18.181c6.901-7.633,14.198-14.897,21.601-22.041c19.521-18.838,39.942-36.865,60.928-54.062
	c2.575-2.111,4.68-6.322,3.732-9.694c-0.972-3.458-4.59-2.459-6.678-0.749c-23.656,19.386-46.647,39.787-68.357,61.33
	c-7.342,7.285-14.524,14.75-21.305,22.563c-2.729,3.146-5.358,6.376-7.868,9.698c-0.918,1.215-0.904,1.232-2.617,2.233
	c-3.216,1.878-8.146,2.93-12.943,3.466c-6.029,0.674-12.241,0.298-18.268-0.204c-32.84-2.737-65.331-13.043-96.409-23.48
	c-21.688-7.284-43.589-14.901-64.448-24.363c-17.795-8.073-20.675-31.731-16.999-48.105c0.602-2.682-0.621-6.267-3.987-5.409
	C150.349,206.795,148.09,210.676,147.35,213.974L147.35,213.974z"/>
<path d="M507.504,294.742c-21.634,20.608-48.048,37.479-75.208,49.663c-20.635,9.255-43.42,15.462-66.161,14.989
	c-17.417-0.362-34.775-3.865-51.661-7.907c-37.689-9.021-74.368-22.336-110.345-36.612c-18.623-7.391-37.173-15.08-55.375-23.464
	c0.049,2.915,0.098,5.83,0.147,8.745c3.347-5.929,7.493-11.376,12.095-16.38c1.995-2.169,3.831-6.829,1.891-9.562
	c-2.096-2.953-5.785-0.001-7.413,1.769c-5.472,5.95-10.388,12.624-14.367,19.673c-1.137,2.014-2.97,7.31,0.147,8.745
	c18.523,8.532,37.407,16.334,56.358,23.854c36.775,14.594,74.316,28.006,112.834,37.227c16.825,4.027,34.08,7.294,51.423,7.654
	c23.021,0.479,45.608-5.832,66.674-14.646c29.646-12.403,58.167-31.092,81.67-53.082c0.079-0.074,0.157-0.148,0.236-0.224
	c2.458-2.342,4.729-6.147,3.732-9.693C513.252,292.179,509.504,292.836,507.504,294.742L507.504,294.742z"/>
<path fill="#010101" d="M120.482,259.718c-15.482,2.749-33.261-3.085-47.278-8.185c-8.188-2.978-17.435-7.797-18.83-13.806
	c-1.466-6.258,6.116-8.841,15.151-8.127c8.837,0.698,16.237,8.295,10.761,12.597c2.701-2.118-7.049-9.388-2.935-7.138
	c1.284,0.843,2.407,1.747,3.385,2.724c-1.694-1.27-1.858-1.431-0.483-0.505c1.338,0.776,1.313,0.794-0.077,0.036
	c0.859,0.438,1.735,0.87,2.616,1.28c2.442,1.167,5.028,2.203,7.605,3.231c4.521,1.789,9.162,3.457,13.821,5.075
	c2.046,0.717,4.168,1.348,6.257,2.021c1.344,0.395,2.601,0.896,3.747,1.494c7.181,3.419-1.594-0.244,2.485,1.079
	C120.331,252.676,127.393,258.489,120.482,259.718z"/>
<path fill="#010101" d="M128.522,298.991c-7.423,8.279-19.867,12.78-29.896,16.051c-5.858,1.911-13.108,3.258-16.504,0.52
	c-3.544-2.846-0.448-7.59,4.895-11.13c5.226-3.463,12.657-2.458,11.483,2.324c0.581-2.356-8.018-2.155-4.746-2.695
	c1.083-0.09,2.102-0.076,3.072,0.041c-1.497,0.031-1.658,0.014-0.488-0.07c1.083-0.151,1.077-0.131-0.027,0.054
	c0.669-0.131,1.345-0.272,2.014-0.428c1.869-0.415,3.76-0.965,5.644-1.517c3.297-0.974,6.609-2.068,9.908-3.197
	c1.452-0.493,2.909-1.066,4.366-1.603c0.92-0.366,1.838-0.635,2.737-0.802c5.489-1.226-0.994,0.56,1.854-0.482
	C125.368,295.137,131.835,295.295,128.522,298.991z"/>
<path fill="#010101" d="M113.528,282.468c-9.118,5.818-19.768,10.089-32.361,10.268c-10.602,0.144-29.385-4.743-26.718-16.854
	c1.103-4.993,8.664-6.816,14.41-4.208c6.473,2.938,8.892,6.815,16.294,6.639c7.578-0.173,15.059-1.623,21.914-3.474
	C113.432,273.119,119.101,278.92,113.528,282.468z"/>
<path fill="#010101" d="M125.527,241.687c-8.962-3.859-16.844-12.558-23.305-19.831c-5.183-5.826-13.357-17.58-8.928-25.251
	c3.479-6.038,13.54-4.587,17.763,0.137c4.482,5.007,6.331,12.893,9.933,18.706c4.119,6.666,10.175,13.35,13.376,20.362
	C136.973,241.542,129.528,243.406,125.527,241.687z"/>
<path fill="none" stroke="#000000" stroke-miterlimit="10" d="M149.361,207.18"/>
<path fill="#010101" d="M153.472,258.791c-4.853-8.465-5.938-20.154-6.741-29.848c-0.65-7.771-0.135-22.078,8.013-25.557
	c6.406-2.742,13.583,4.456,14.126,10.77c0.581,6.695-2.673,14.111-3.28,20.923c-0.705,7.804,0.128,16.786-1.52,24.316
	C162.715,265.545,155.641,262.567,153.472,258.791z"/>
</svg>
