<?xml version="1.0" encoding="UTF-8" standalone="no"?>
<!-- Created with Inkscape (http://www.inkscape.org/) -->

<svg
   xmlns:dc="http://purl.org/dc/elements/1.1/"
   xmlns:cc="http://creativecommons.org/ns#"
   xmlns:rdf="http://www.w3.org/1999/02/22-rdf-syntax-ns#"
   xmlns:svg="http://www.w3.org/2000/svg"
   xmlns="http://www.w3.org/2000/svg"
   xmlns:sodipodi="http://sodipodi.sourceforge.net/DTD/sodipodi-0.dtd"
   xmlns:inkscape="http://www.inkscape.org/namespaces/inkscape"
   width="131.88786mm"
   height="128.54298mm"
   viewBox="0 0 467.3192 455.46726"
   id="svg64434"
   version="1.1"
   inkscape:version="0.91 r13725"
   sodipodi:docname="ball.svg">
  <defs
     id="defs64436" />
  <sodipodi:namedview
     id="base"
     pagecolor="#ffffff"
     bordercolor="#666666"
     borderopacity="1.0"
     inkscape:pageopacity="0.0"
     inkscape:pageshadow="2"
     inkscape:zoom="0.35"
     inkscape:cx="-322.76894"
     inkscape:cy="516.3051"
     inkscape:document-units="px"
     inkscape:current-layer="layer1"
     showgrid="false"
     inkscape:window-width="1536"
     inkscape:window-height="801"
     inkscape:window-x="-8"
     inkscape:window-y="-8"
     inkscape:window-maximized="1"
     fit-margin-top="0"
     fit-margin-left="0"
     fit-margin-right="0"
     fit-margin-bottom="0" />
  <metadata
     id="metadata64439">
    <rdf:RDF>
      <cc:Work
         rdf:about="">
        <dc:format>image/svg+xml</dc:format>
        <dc:type
           rdf:resource="http://purl.org/dc/dcmitype/StillImage" />
        <dc:title></dc:title>
      </cc:Work>
    </rdf:RDF>
  </metadata>
  <g
     inkscape:label="Layer 1"
     inkscape:groupmode="layer"
     id="layer1"
     transform="translate(-3.4832234,-593.20005)">
    <g
       transform="translate(-2513.6286,-7386.2617)"
       id="g46247">
      <g
         id="g46249">
        <g
           id="g46251">
          <path
             style="fill:#010101"
             inkscape:connector-curvature="0"
             d="m 2962.96,8184.266 c 24.152,-41.608 -2.007,-92.609 -29.731,-125.133 -30.719,-36.037 -72.77,-58.665 -118.205,-70.441 -47.519,-12.316 -99.655,-12.822 -146.766,1.606 -43.752,13.4 -82.21,41.265 -108.528,78.675 -52.085,74.035 -56.691,181.808 -12.375,260.523 19.89,35.328 50.018,64.177 86.425,82.127 37.774,18.625 80.516,25.254 122.329,22.824 23.622,-1.373 47.433,-5.477 69.637,-13.768 24.09,-8.994 46.21,-22.654 65.672,-39.396 36.544,-31.437 60.798,-74.001 79.22,-117.99 7.463,-17.821 13.528,-36.769 13.788,-56.247 0.108,-8.071 -1.533,-16.538 -5.052,-23.813 -1.871,-3.869 -4.221,-7.871 -7.564,-10.617 -3.648,-2.996 -7.975,-4.634 -11.66,-7.301 -6.074,-4.396 -16.403,7.488 -9.473,12.504 0.332,0.241 0.664,0.481 0.996,0.722 -0.692,-0.789 -1.385,-1.579 -2.078,-2.368 2.246,4.088 5.141,8.208 7.674,12.154 2.361,3.676 3.844,7.807 5.052,12.006 2.335,8.121 1.857,17.954 0.503,26.505 -3.436,21.678 -13.015,42.159 -22.792,61.604 -10.258,20.399 -21.271,39.657 -35.988,57.245 -15.366,18.364 -34.001,33.969 -54.794,45.828 -38.837,22.152 -86.295,28.104 -130.323,23.5 -39.065,-4.087 -77.619,-18.198 -108.472,-42.849 -69.61,-55.618 -89.627,-154.616 -65.902,-237.788 11.771,-41.271 36.314,-78.057 70.98,-103.499 37.904,-27.819 86.065,-37.584 132.313,-36.437 48.678,1.206 98.139,15.69 138.712,42.823 17.998,12.036 33.688,27.439 46.968,44.491 7.351,9.439 14.009,18.987 19.413,29.7 5.3,10.505 10.554,21.13 12.355,32.882 2.116,13.801 0.824,26.723 -5.569,39.321 -1.224,2.411 2.246,2.311 3.235,0.607 l 0,0 z"
             id="path46253" />
        </g>
      </g>
      <g
         id="g46255">
        <g
           id="g46257">
          <path
             style="fill:#010101"
             inkscape:connector-curvature="0"
             d="m 2835.683,8149.342 c -6.56,-4.21 -12.335,-7.389 -20.372,-7.734 -8.09,-0.347 -15.992,1.021 -23.313,4.527 -15.768,7.555 -19.93,27.687 -10.828,42.085 10.771,17.039 36.872,21.267 52.396,8.857 8.424,-6.734 12.379,-18.086 12.272,-28.573 -0.093,-9.177 -5.483,-24.634 -17.573,-20.272 -2.48,0.895 -5.404,3.216 -5.708,6.068 -0.417,3.902 0.854,6.32 3.016,9.493 1.813,2.663 3.016,5.17 3.951,8.303 1.483,4.97 -0.556,12.029 -4.234,15.55 -4.38,4.192 -11.995,2.968 -17.278,1.665 -6.222,-1.534 -13.308,-5.276 -16.677,-10.965 -5.583,-9.43 -5.03,-20.694 5.786,-25.2 5.469,-2.278 11.462,-2.845 17.332,-2.719 6.094,0.13 13.212,-0.172 19.001,1.856 1.561,0.547 4.019,-1.793 2.229,-2.941 l 0,0 z"
             id="path46259" />
        </g>
      </g>
      <g
         id="g46261">
        <g
           id="g46263">
          <path
             style="fill:#010101"
             inkscape:connector-curvature="0"
             d="m 2816.698,8211.879 c 1.428,6.098 5.594,11.689 8.616,17.104 3.533,6.33 7.251,12.548 10.694,18.932 7.138,13.23 13.668,26.78 19.412,40.673 5.514,13.338 10.031,27.135 13.138,41.231 3.209,14.567 3.27,28.802 2.921,43.587 -0.228,9.622 15.276,3.966 16.016,-3.236 3.023,-29.464 -7.01,-60.534 -19.238,-86.904 -6.466,-13.944 -14.244,-27.277 -22.57,-40.182 -3.92,-6.075 -8.01,-12.042 -12.113,-17.994 -3.774,-5.475 -8.114,-12.254 -13.703,-15.994 -1.603,-1.071 -3.518,1.31 -3.173,2.783 l 0,0 z"
             id="path46265" />
        </g>
      </g>
      <g
         id="g46267">
        <g
           id="g46269">
          <path
             style="fill:#010101"
             inkscape:connector-curvature="0"
             d="m 2857.331,8180.44 c 39.275,6.667 76.877,25.177 104.35,54.417 2.86,-4.647 5.721,-9.295 8.581,-13.941 -3.794,0.689 -6.93,1.637 -9.777,4.381 -1.626,1.568 -3.341,4.211 -2.293,6.581 1.338,3.029 3.572,4.099 6.698,4.739 5.855,1.201 16.597,-8.291 10.568,-13.85 -15.524,-14.314 -33.672,-26.749 -52.892,-35.517 -10.216,-4.661 -21.003,-8.298 -31.933,-10.856 -5.033,-1.179 -10.141,-2.03 -15.297,-2.405 -5.73,-0.416 -10.626,0.129 -16.197,1.164 -2.055,0.382 -5.423,4.674 -1.808,5.287 l 0,0 z"
             id="path46271" />
        </g>
      </g>
      <g
         id="g46273">
        <g
           id="g46275">
          <path
             style="fill:#010101"
             inkscape:connector-curvature="0"
             d="m 2771.501,8197.57 c -4.212,0.922 -8.201,2.977 -12.243,4.473 -4.845,1.794 -9.661,3.642 -14.475,5.518 -9.349,3.641 -18.753,7.131 -28.005,11.018 -19.22,8.072 -37.652,18.196 -55.526,28.886 -18.421,11.016 -36.244,22.974 -53.676,35.487 -17.037,12.229 -34.587,24.941 -49.625,39.6 3.65,2.896 7.3,5.79 10.95,8.685 1.981,-2.442 3.198,-4.956 3.94,-8.013 1.713,-7.057 -7.494,-8.1 -11.336,-4.039 -1.124,1.189 -2.307,2.31 -3.555,3.367 -3.034,2.574 -5.531,7.968 -2.457,11.47 2.982,3.399 8.875,1.868 11.691,-0.946 14.48,-14.475 31.342,-26.734 47.524,-39.219 16.358,-12.619 33.268,-24.496 50.64,-35.676 17.224,-11.084 34.758,-22.215 53.167,-31.224 9.104,-4.455 18.432,-8.446 27.677,-12.596 8.734,-3.919 19.043,-8.095 26.122,-14.696 0.972,-0.905 0.696,-2.426 -0.813,-2.095 l 0,0 z"
             id="path46277" />
        </g>
      </g>
      <g
         id="g46279">
        <g
           id="g46281">
          <path
             style="fill:#010101"
             inkscape:connector-curvature="0"
             d="m 2757.506,8143.112 c -2.262,-2.366 -3.719,-3.876 -6.624,-5.546 -3.396,-1.952 -7.064,-3.324 -10.725,-4.683 -7.404,-2.749 -15.374,-4.512 -23.09,-6.146 -16.433,-3.48 -32.827,-7.674 -49.443,-10.143 -18.822,-2.797 -37.854,-3.953 -56.856,-4.625 -19.383,-0.687 -38.982,-1.244 -58.373,-0.683 -8.15,0.235 -15.951,13.636 -5.798,16.95 5.091,1.662 10.774,-0.313 13.781,-4.826 3.384,-5.08 0.726,-8.813 -3.929,-11.362 -2.569,5.429 -5.139,10.858 -7.707,16.287 18.21,0.522 36.486,-0.329 54.711,-0.063 18.388,0.27 36.753,1.255 55.012,3.506 16.424,2.023 32.683,5.263 49.029,7.814 8.142,1.271 16.305,2.418 24.394,4 3.593,0.703 7.229,1.346 10.843,1.928 4.036,0.65 7.791,1.082 11.803,1.486 1.654,0.169 4.637,-2.153 2.972,-3.894 l 0,0 z"
             id="path46283" />
        </g>
      </g>
      <g
         id="g46285">
        <g
           id="g46287">
          <path
             style="fill:#010101"
             inkscape:connector-curvature="0"
             d="m 2763.643,7992.43 c 1.016,6.07 4.35,11.331 7.075,16.762 3.096,6.166 5.659,12.597 8.053,19.063 4.645,12.545 8.869,25.373 12.356,38.291 2.955,10.944 5.539,22.068 7.352,33.262 0.848,5.238 1.535,10.506 1.939,15.798 0.173,2.269 0.24,4.544 0.197,6.818 -0.039,2.161 -0.817,3.629 -0.211,5.942 1.755,6.697 10.711,0.666 12.464,-2.539 1.853,-3.386 0.896,-8.512 0.536,-12.239 -0.531,-5.512 -1.611,-10.978 -2.738,-16.394 -2.426,-11.642 -5.203,-23.203 -8.493,-34.633 -3.715,-12.906 -8.218,-25.791 -13.339,-38.203 -2.826,-6.848 -5.982,-13.555 -9.555,-20.045 -3.028,-5.501 -6.463,-11.532 -12.434,-14.186 -1.311,-0.583 -3.463,0.75 -3.202,2.303 l 0,0 z"
             id="path46289" />
        </g>
      </g>
      <g
         id="g46291">
        <g
           id="g46293">
          <path
             style="fill:#010101"
             inkscape:connector-curvature="0"
             d="m 2846.158,8138.73 c 3.459,-0.047 6.836,-2.313 9.866,-3.773 4.504,-2.169 8.59,-5.304 12.619,-8.221 8.314,-6.018 16.408,-12.471 23.754,-19.652 7.354,-7.188 14.16,-15.037 19.573,-23.801 5.541,-8.97 8.156,-18.053 10.781,-28.134 0.653,-2.511 -0.305,-5.379 -2.646,-6.646 -3.494,-1.892 -7.273,0 -10.106,2.103 -3.424,2.538 -7.464,6.66 -6.84,11.262 0.284,2.094 1.401,3.578 3.54,4.033 4.189,0.893 9.485,-1.983 12.438,-4.881 -4.308,-0.843 -8.614,-1.687 -12.922,-2.529 0.928,7.429 -3.475,15.521 -7.048,21.764 -4.313,7.535 -10.283,14.271 -16.278,20.494 -6.452,6.697 -13.365,12.907 -20.536,18.822 -3.479,2.871 -6.993,5.684 -10.314,8.742 -2.576,2.372 -5.742,4.949 -7.258,8.166 -0.548,1.164 0.08,2.27 1.377,2.251 l 0,0 z"
             id="path46295" />
        </g>
      </g>
    </g>
  </g>
</svg>
