<?xml version="1.0" encoding="utf-8"?>
<!-- Generator: Adobe Illustrator 15.1.0, SVG Export Plug-In . SVG Version: 6.00 Build 0)  -->
<!DOCTYPE svg PUBLIC "-//W3C//DTD SVG 1.1//EN" "http://www.w3.org/Graphics/SVG/1.1/DTD/svg11.dtd">
<svg version="1.1" id="Layer_1" xmlns="http://www.w3.org/2000/svg" xmlns:xlink="http://www.w3.org/1999/xlink" x="0px" y="0px"
	 width="1024px" height="1024px" viewBox="0 0 1024 1024" enable-background="new 0 0 1024 1024" xml:space="preserve">
<g id="house_1_">
	<path fill="#010101" d="M41.106,774.681c7.046,7.898,15.708,8.752,23.669,8.818c9.022,0.076,18.056-1.76,27.05-3.162
		c10.164-1.584,20.356-0.857,30.535-1.123c12.652-0.328,25.302-1.072,37.956-1.578c25.719-1.029,51.421-0.033,77.144-1.289
		c25.806-1.256,51.606-3.393,77.41-5.098c23.582-1.557,47.183-1.191,70.755-2.752c9.688-0.643,19.361-2.141,29.054-2.295
		c8.688-0.143,18.263,0.604,26.299,6.992c2.796-11.127,5.592-22.252,8.388-33.379c-1.527-0.014-3.044-0.211-4.571-0.049
		c-7.56,0.811-16.222,26.795-5.949,32.307c1.376,0.738,2.695,1.938,4.119,2.502c4.216,1.664,8.699-3.441,11.232-9.814
		c2.374-5.973,4.246-19.49-0.597-23.342c-18.979-15.088-40.471-9.615-60.499-7.428c-11.351,1.24-22.736,0.928-34.092,1.449
		c-12.884,0.594-25.766,1.492-38.645,2.434c-25.823,1.891-51.638,4.189-77.464,5.631c-25.774,1.441-51.543,1.049-77.313,2.449
		c-12.17,0.664-24.339,1.578-36.509,2.193c-10.225,0.514-20.503-0.146-30.713,1.334c-8.594,1.242-17.148,3.449-25.751,4.395
		c-6.92,0.76-15.618,1.807-21.66-4C44.203,743.394,33.578,766.242,41.106,774.681L41.106,774.681z"/>
	<path fill="#010101" d="M39.263,770.508c12.375,4.152,25.057,4.527,37.61,5.24c12.744,0.721,25.494,1.209,38.246,1.465
		c25.583,0.512,51.172,0.289,76.763-0.504c51.465-1.594,102.922-5.789,154.389-7.404c14.916-0.467,29.834-0.705,44.749-0.654
		c7.677,0.027,15.354,0.172,23.028,0.377c7.629,0.199,15.39,1.24,23.015,0.393c5-0.555,9.857-9.021,10.983-18.492
		c1.049-8.848-2.133-16.891-6.91-15.818c-1.086,0.246-2.173,0.488-3.26,0.73c-4.121,0.928-7.885,6.109-9.725,13.473
		c-1.778,7.123-1.063,17.854,3.725,19.109c0.994,0.26,1.988,0.518,2.981,0.777c5.079,1.332,10.144-4.934,12.378-13.873
		c1.749-7.002,1.207-19.316-3.897-19.998c-12.939-1.729-26.122-0.098-39.102-0.205c-12.844-0.111-25.69-0.035-38.537,0.24
		c-25.788,0.551-51.572,1.893-77.355,3.48c-51.37,3.166-102.725,6.186-154.105,6.939c-14.868,0.211-29.736,0.223-44.6-0.006
		c-15.293-0.238-30.661-1.801-45.935,0.604c-3.03,0.477-5.874,4.662-7.2,9.975C35.141,761.808,35.759,769.332,39.263,770.508
		L39.263,770.508z"/>
	<path fill="#010101" d="M71.78,474.703c-1.297,22.428-0.556,45.359-0.938,67.937c-0.42,24.584-0.546,49.086-0.441,73.672
		c0.108,25.533,0.264,51.084-0.206,76.623c-0.432,23.555-2.528,47.178-2.147,70.746c3.627-4.01,7.257-8.02,10.887-12.033
		c-1.259-2.518-2.532-3.646-4.305-4.199c-2.731-0.859-5.169,3.355-5.939,8.227c-0.295,1.867-0.334,3.346-0.5,5.238
		c-0.514,5.857,1.247,10.645,4.441,10.168c3.887-0.58,6.953-7.275,7.205-14.656c1.641-48.098,2.336-95.75,1.548-143.896
		c-0.402-24.389-0.631-48.775-0.734-73.182c-0.092-21.838,0.765-47.63-4.358-67.44C75.265,467.94,72.001,470.901,71.78,474.703
		L71.78,474.703z"/>
	<path fill="#010101" d="M410.338,469.245c-1.71,10.493-1.861,21.902-2.391,32.787c-0.613,12.551-0.918,25.192-1.201,37.778
		c-0.566,25.072-0.802,50.336-0.504,75.404c0.282,23.916,0.893,47.049-1.115,70.824c-0.971,11.469-1.877,22.91-2.221,34.514
		c-0.249,8.381-0.605,21.68,2.176,28.627c3.856,9.646,12.039-4.871,10.589-14.527c-0.43-2.863-1.283-4.83-2.599-6.297
		c-2.216-2.482-4.757,0.811-6.234,3.975c-1.267,2.713-2.002,5.842-2.512,9.34c3.781-2.34,7.562-4.682,11.345-7.018
		c-1.948-19.479-0.079-38.455,1.196-58.027c1.543-23.734,0.447-47.139-0.113-70.863c-0.544-22.928-0.399-45.994-0.438-68.957
		c-0.018-11.455,0.004-22.916,0.107-34.376c0.098-11.546,0.816-24.075-0.273-35.422
		C415.461,459.867,411.115,464.486,410.338,469.245z"/>
	<path fill="#010101" d="M44.362,490.73c11.63-3.312,22.746-15.366,33.309-25.001c4.899-4.468,9.777-9.038,14.704-13.384
		c2.078-1.833-1.56,1.225,0.641-0.537c2.742-2.202,5.478-4.437,8.203-6.726c5.651-4.743,11.254-9.695,16.819-14.821
		c42.023-38.707,82.698-83.418,125.854-117.201c3.35-2.622,6.331-7.418,7.185-14.619c0.955-8.037-1.843-13.119-5.739-13.144
		c-2.595-0.018-5.027-0.141-7.403,2.467c-0.889,1.209-1.772,2.434-2.654,3.659c-0.469,0.96-0.938,1.923-1.406,2.881
		c1.462-2.654,1.501-3.034,0.115-1.148c-2.793,3.323-5.658,14.335-0.845,16.534c0.633,0.262,1.259,0.578,1.875,0.949
		c-0.955-1.534-1.912-3.072-2.871-4.608c2.163,8.204,5.564,7.75,9.802,7.772c0.48-9.251,0.963-18.509,1.444-27.76
		c-43.086,33.755-83.919,77.503-125.715,116.854c-13.645,12.846-27.612,24.201-41.266,37.008
		c-5.935,5.567-11.917,10.925-17.854,16.479c-1.441,1.351-2.889,2.671-4.34,3.979c-0.675,0.604-1.354,1.194-2.031,1.788
		c-2.131,1.86,1.297-1.065-0.745,0.626c-1.516,1.254-3.029,2.511-4.519,3.874c-1.652,1.511,1.379-1.104-0.176,0.157
		c-0.391,0.313-0.787,0.596-1.186,0.856c-2.795,1.833-5.288,6.401-5.97,12.144C38.885,485.769,41.056,491.67,44.362,490.73
		L44.362,490.73z"/>
	<path fill="#010101" d="M238.434,301.284c5.18,12.215,13.181,21.106,20.089,29.151c7.834,9.119,15.939,17.342,24.106,25.271
		c17.012,16.506,34.083,32.551,50.881,49.898c17.311,17.874,34.017,37.885,51.311,55.762c16.039,16.582,33.901,25.292,49.677,42.944
		c2.268-9.027,4.536-18.056,6.806-27.082c-2.207-0.071-4.185,0.248-6.32,1.524c-4.468,2.675-8.925,15.524-4.125,22.291
		c1.722,2.425,3.088,3.762,5.251,4.384c6.147,1.771,16.42-18.607,8.628-26.901c-15.574-16.577-32.9-25.571-48.789-40.85
		c-8.691-8.353-16.986-18.465-25.454-27.63c-8.62-9.324-17.295-18.462-26.026-27.392C327.9,365.706,310.871,351.003,293.825,336
		c-8.365-7.365-16.636-15.131-24.726-23.575c-7.865-8.206-15.343-18.916-23.497-25.859
		C241.783,283.317,235.198,293.656,238.434,301.284L238.434,301.284z"/>
	<path fill="#010101" d="M103.929,309.917c-2.217,8.231-1.982,18.153-2.255,27.202c-0.299,9.974-0.181,20.04-0.085,30.015
		c0.2,20.493,0.443,40.996-0.041,61.503c3.867-3.293,7.736-6.587,11.606-9.876c-0.868-5.835-4.002-8.943-6.986-7.113
		c-3.458,2.122-4.638,10.831-4.62,16.987c0.019,6.382,3.45,8.496,6.119,6.857c3.193-1.955,5.581-7.629,5.733-14.155
		c0.459-19.332-0.259-38.56-1.162-57.767c-0.456-9.692-1.042-19.343-1.521-29.026c-0.426-8.579-0.165-19.952-2.741-27.178
		C106.893,304.33,104.523,307.718,103.929,309.917L103.929,309.917z"/>
	<path fill="#010101" d="M93.17,313.734c3.947,5.221,10.227,3.872,14.825,4.551c6.003,0.89,12.004,1.786,18.016,2.461
		c11.883,1.337,23.671,1.361,35.368-3.956c6.684-3.04,8.038-24.963-0.386-21.102c-10.55,4.839-21.6,4.125-32.301,2.891
		c-5.573-0.646-11.133-1.494-16.716-1.913c-5.802-0.438-11.898-1.463-17.246,3.929C92.397,302.95,90.515,310.225,93.17,313.734
		L93.17,313.734z"/>
	<path fill="#010101" d="M151.815,304.784c-6.014,5.719-5.6,26.749-5.701,37.519c-0.067,7.077-0.082,14.171-0.236,21.239
		c-0.151,6.84-0.836,9.762-1.803,13.653c-2.901,11.686,4.256,16.22,8.265,9.046c6.341-11.347,5.648-31.724,4.97-46.835
		C157.09,334.482,156.802,300.045,151.815,304.784z"/>
	<path fill="#010101" d="M112.969,538.535c-1.754,16.037-1.799,32.936-2.131,49.225c-0.373,18.416-0.565,36.816-0.671,55.234
		c-0.207,36.521-0.647,73.217-2.656,109.6c3.834-2.371,7.669-4.744,11.504-7.117c-0.248-2.51-0.987-3.631-1.427-5.813
		c-1.824-9.023-7.484-0.291-8.483,5.248c-0.351,1.939-1.289,4.83-1.594,7.682c-0.632,5.914,1.346,10.73,4.482,10.264
		c4.021-0.604,6.883-7.35,7.271-14.791c1.901-36.344,2.274-72.822,2.258-109.279c-0.008-18.191-0.244-36.342-0.665-54.508
		c-0.38-16.365-0.324-33.311-2.014-49.375C118.177,528.566,113.385,534.742,112.969,538.535L112.969,538.535z"/>
	<path fill="#010101" d="M110.312,535.756c5.935,3.787,12.999,2.422,19.199,2.52c7.182,0.111,14.376-0.215,21.56-0.416
		c13.873-0.393,27.747-1.217,41.621-1.568c-1.32-4.369-2.639-8.742-3.957-13.109c0.153-0.311,0.305-0.625,0.457-0.938
		c-1.999,3.549-3.852,13.697,0.34,14.754c3.074,0.777,5.165-0.916,7.648-4.576c3.795-5.596,3.825-18.66-1.846-18.383
		c-13.909,0.68-27.817,1.486-41.721,2.402c-6.704,0.441-13.405,0.83-20.107,1.143c-7.072,0.328-14.521-0.357-21.42,3.223
		C108.787,522.521,106.07,533.051,110.312,535.756L110.312,535.756z"/>
	<path fill="#010101" d="M194.377,518.371c-2.912,9.975-2.725,22.695-3.03,33.82c-0.366,13.354-0.716,26.709-1.098,40.061
		c-0.581,20.389-1.795,40.486-1.755,60.92c0.035,18.354,0.344,36.695,0.173,55.055c-0.078,8.412-0.27,16.852-0.843,25.205
		c-0.492,7.186-1.832,14.041-2.143,21.223c-0.492,11.27,7.807,6.309,9.738,1.018c4.773-13.059,4.603-32.955,4.833-48.25
		c0.282-18.973-0.268-37.945-0.553-56.891c-0.294-19.607,0.452-38.949,0.751-58.543c0.2-13.107,0.12-26.164-0.107-39.256
		c-0.189-11.018,0.787-27.18-2.852-36.326C196.589,514.138,194.884,516.625,194.377,518.371L194.377,518.371z"/>
	<path fill="#010101" d="M268.563,542.724c-6.159,8.775-3.701,33.684-3.506,46.043c0.141,8.953,0.309,17.926,0.223,26.891
		c-0.032,3.426-0.091,5.463-0.241,7.449c-0.078,1.021-0.226,2.012-0.313,3.025c-0.133,1.086-0.175,2.174-0.128,3.26
		c0.081,0.832,0.161,1.664,0.241,2.496c-0.095-1.846-0.151-2.332-0.176-1.459c-0.317,7.559,4.551,7.18,6.821,4.975
		c8.384-8.146,5.393-37.508,4.8-51.826C276.035,577.58,275.81,532.398,268.563,542.724L268.563,542.724z"/>
	<path fill="#010101" d="M266.897,550.441c7.374,6.805,15.909,8.1,23.991,9.066c8.632,1.039,17.258,0.895,25.91,0.236
		c17.745-1.354,35.448-3.512,53.197-4.512c6.304-0.355,10.777-22.725,2.624-22.072c-2.468,0.199-4.154,0.465-6.395,2.791
		c-2.457,2.551-4.058,8.502-2.502,13.355c1.138,3.545,2.919,4.498,4.857,5.785c1.346-7.309,2.692-14.621,4.039-21.932
		c-16.735-1.074-33.683,3.291-50.393,5.201c-8.739,1.002-17.505,1.578-26.254,1.439c-8.656-0.133-17.282-2.387-25.934-1.857
		C267.594,538.094,263.526,547.328,266.897,550.441z"/>
	<path fill="#010101" d="M266.964,637.385c7.43,1.852,14.935-1.086,22.375-2.629c8.682-1.801,17.363-3.58,26.073-4.645
		c16.688-2.041,33.486-2,49.872,4.539c0.853-7.178,1.707-14.359,2.558-21.535c-2.099,1.008-4.052,4.039-5.113,5.621
		c-1.662,2.482-2.452,7.162-1.261,10.621c1.114,3.24,1.778,4.094,3.816,5.295c6.012,3.543,12.871-19.031,5.502-21.977
		c-16.82-6.713-34.3-6.971-51.422-4.297c-8.801,1.373-17.604,3.414-26.325,6.221c-8.292,2.666-16.91,4.639-24.691,11.129
		C266.516,627.258,263.04,636.406,266.964,637.385L266.964,637.385z"/>
	<path fill="#010101" d="M370.093,539.115c-3.666,13.322-2.09,32.652-2.186,47.098c-0.058,8.992-0.169,18.033-0.542,27.01
		c-0.122,2.93-0.384,5.867-0.707,8.744c-0.077,0.666-0.166,1.326-0.265,1.979c0.276-1.371,0.293-1.492,0.052-0.352
		c0.118-0.537-1.53,7.225-0.413,2.486c-2.815,11.965,3.928,14.246,7.899,8.645c6.75-9.516,5.464-34.33,5.132-48.262
		c-0.23-9.707-0.642-19.379-1.134-29.039c-0.356-7.008-0.622-15.635-2.901-21.414C373.625,532.441,370.865,536.31,370.093,539.115
		L370.093,539.115z"/>
	<path fill="#010101" d="M90.856,307.226c-0.801,9.301-0.219,17.667,0.131,26.972c0.121,3.167,1.474,5.542,3.145,5.072
		c22.192-6.231,44.534-9.259,66.795-4.057c2.676,0.625,5.499-3.211,6.103-8.459c0.773-6.723,0.927-13.885,0.281-20.631
		c-0.488-5.117-3.188-6.978-5.475-3.994c-1.434,1.868-2.658,3.753-3.896,6.092c-1.024,1.935-1.937,6.726,0.171,7.461
		c1.501,0.525,2.432,1.242,4.006,1.008c-1.104-1.779-2.204-3.557-3.306-5.335c0.527,5.487,0.564,11.149-0.065,16.636
		c2.036-2.821,4.069-5.64,6.104-8.459c-23.016-5.334-47.123-4.069-69.953,5.014c1.334,0.972,2.67,1.946,4.003,2.919
		c-0.848-7.869-2.232-15.478-3.084-23.31C95.249,298.929,91.144,303.856,90.856,307.226L90.856,307.226z"/>
	<path fill="#010101" d="M102.75,314.44c-2.734-0.53-4.688-2.978-7.533-2.239c-2.615,0.684-5.91,9.376-2.139,11.607
		c4.763,2.814,10.771,1.94,15.74,2.073c5.186,0.139,12.503,3.143,17.021-2.736c1.389-1.808,3.137-6.007,1.731-9.241
		c-1.748-4.007-3.682-3.377-6.253-3.504c-3.042-0.15-6.102,0.047-9.146,0.073c-5.791,0.045-12.085-0.693-17.749,2.035
		c0.333,3.463,0.667,6.929,1.002,10.39c1.884-2.57,4.156-3.393,6.424-3.563C102.968,319.252,104.334,314.748,102.75,314.44
		L102.75,314.44z"/>
	<path fill="#010101" d="M37.423,793.568c-0.409,3.76-0.772,7.824-0.746,11.658c0.021,2.736,1.25,4.27,2.543,4.104
		c50.4-6.326,100.879-2.309,151.302-4.598c51.708-2.35,103.419-4.709,155.13-5.283c17.404-0.191,34.899,1.092,52.291-0.754
		c16.073-1.705,32.43-6.092,48.34,0.008c0.968-5.264,1.938-10.529,2.908-15.795c-2.327-0.025-4.497,1.354-6.748,2.488
		c-2.431,1.223-4.452,9.094-1.312,11.041c2.141,1.324,3.91,2.35,6.171,2.369c3.714,0.031,7.945-13.879,2.909-15.795
		c-11.047-4.213-22.398-3.594-33.615-2.287c-11.723,1.367-23.34,2.939-35.08,2.873c-25.768-0.143-51.539,0.291-77.311,1.029
		c-51.384,1.473-102.775,5.357-154.156,5.479c-36.514,0.086-72.964-0.506-109.377,6.994c0.849,1.369,1.694,2.734,2.542,4.104
		c-0.113-3.793-1.149-6.656-1.862-10.064C40.542,787.25,37.739,790.652,37.423,793.568L37.423,793.568z"/>
	<path fill="#010101" d="M73.095,460.961c-0.911,8.688-0.996,17.643-2.06,26.256c1.937-0.287,3.875-0.577,5.814-0.866
		c1.102-9.924,3.108-19.045,5.248-28.278c-1.966-0.195-3.931-0.395-5.896-0.595c-0.89,11.428-2.778,22.362-4.27,33.526
		c2.162-0.322,4.326-0.645,6.488-0.967c0.847-9.973,2.102-19.778,2.828-29.79c-2.203,0.85-4.401,1.697-6.604,2.547
		c-0.006,11.925,0.421,23.927-0.944,35.689c2.234-0.859,4.466-1.72,6.7-2.582c0.151-7.88,0.224-15.746,0.271-23.629
		c0.047-8.079-5.403-2.93-6.5,0.969c-0.826,2.938-1.757,5.748-2.584,8.684c2.143-0.321,4.289-0.638,6.432-0.96
		c0.035-5.784,0.067-11.568,0.1-17.351c0.048-8.192-5.973-2.69-6.609,2.549c-1.657,13.622-0.734,28.093-0.468,41.769
		c0.078,4.034,2.813,2.639,3.623,0.382c2.173-6.064,3.046-9.984,3.16-17.494c0.132-8.714-0.9-16.968,0.214-25.631
		c-2.205,0.847-4.409,1.697-6.611,2.542c-0.075,5.812-0.149,11.619-0.225,17.428c-0.103,8.062,5.35,2.781,6.434-0.959
		c0.849-2.93,1.799-5.73,2.646-8.659c-2.166,0.324-4.333,0.647-6.499,0.971c-0.099,7.858-0.173,15.71-0.168,23.567
		c0.005,8.184,6.137,2.924,6.701-2.582c1.315-12.809,0.866-25.869,1.014-38.819c0.091-7.917-6.133-3.05-6.605,2.542
		c-0.84,9.964-2.071,19.778-2.793,29.783c-0.656,9.103,5.686,5.664,6.488-0.968c1.345-11.155,3.135-22.117,3.956-33.478
		c0.571-7.895-4.685-5.953-5.896-0.596c-2.261,10.017-4.742,20.318-5.446,31.253c-0.517,8.047,5.376,5.333,5.816-0.867
		c0.629-8.858,0.57-17.998-0.266-26.732C76.195,455.537,73.421,457.851,73.095,460.961z"/>
</g>
<g id="house_2_">
	<path fill="#010101" d="M592.476,771.238c6.971,7.965,15.626,8.9,23.585,9.041c9.022,0.16,18.072-1.592,27.079-2.912
		c10.177-1.488,20.362-0.666,30.544-0.838c12.654-0.209,25.311-0.836,37.968-1.223c25.728-0.789,51.419,0.445,77.153-0.568
		c25.816-1.018,51.635-2.912,77.454-4.377c23.595-1.336,47.191-0.752,70.777-2.092c9.693-0.553,19.38-1.959,29.074-2.023
		c8.688-0.061,18.257,0.773,26.232,7.238c2.901-11.102,5.801-22.201,8.7-33.301c-1.527-0.027-3.043-0.238-4.57-0.09
		c-7.567,0.738-16.472,26.641-6.25,32.248c1.368,0.752,2.678,1.963,4.095,2.541c4.2,1.703,8.73-3.359,11.323-9.709
		c2.43-5.951,4.428-19.451-0.379-23.348c-18.837-15.264-40.379-9.992-60.427-7.992c-11.361,1.135-22.744,0.717-34.104,1.131
		c-12.889,0.475-25.779,1.252-38.666,2.074c-25.839,1.648-51.676,3.707-77.513,4.908c-25.787,1.201-51.552,0.568-77.333,1.729
		c-12.176,0.549-24.352,1.35-36.527,1.854c-10.229,0.418-20.501-0.338-30.724,1.045c-8.605,1.164-17.18,3.289-25.792,4.154
		c-6.927,0.697-15.633,1.662-21.621-4.201C595.865,739.982,585.026,762.73,592.476,771.238L592.476,771.238z"/>
	<path fill="#010101" d="M590.671,767.049c12.336,4.268,25.014,4.762,37.559,5.592c12.737,0.838,25.481,1.445,38.231,1.82
		c25.577,0.75,51.166,0.766,76.765,0.213c51.478-1.113,102.972-4.83,154.451-5.965c14.919-0.328,29.839-0.426,44.752-0.236
		c7.677,0.1,15.352,0.314,23.024,0.592c7.627,0.27,15.378,1.383,23.01,0.607c5.005-0.51,9.94-8.93,11.155-18.389
		c1.132-8.838-1.977-16.91-6.762-15.883c-1.089,0.234-2.178,0.467-3.267,0.701c-4.129,0.887-7.941,6.035-9.85,13.379
		c-1.845,7.107-1.229,17.844,3.546,19.145c0.991,0.268,1.983,0.537,2.974,0.805c5.067,1.379,10.189-4.838,12.508-13.758
		c1.814-6.984,1.387-19.303-3.711-20.031c-12.922-1.85-26.12-0.342-39.098-0.572c-12.844-0.23-25.689-0.273-38.538-0.119
		c-25.792,0.313-51.588,1.412-77.385,2.76c-51.397,2.688-102.778,5.229-154.163,5.502c-14.869,0.072-29.737-0.055-44.598-0.422
		c-15.29-0.381-30.644-2.088-45.938,0.176c-3.034,0.447-5.918,4.607-7.293,9.906C586.631,758.312,587.178,765.84,590.671,767.049
		L590.671,767.049z"/>
	<path fill="#010101" d="M625.946,471.561c-1.507,22.414-0.979,45.351-1.572,67.925c-0.649,24.578-1.004,49.078-1.128,73.664
		c-0.13,25.533-0.213,51.084-0.921,76.617c-0.65,23.551-2.967,47.152-2.806,70.725c3.664-3.977,7.331-7.951,10.998-11.932
		c-1.235-2.529-2.498-3.67-4.265-4.24c-2.725-0.883-5.201,3.307-6.017,8.172c-0.313,1.865-0.365,3.342-0.549,5.232
		c-0.568,5.852,1.149,10.656,4.347,10.209c3.892-0.543,7.021-7.211,7.342-14.588c2.089-48.08,3.229-95.723,2.891-143.877
		c-0.175-24.391-0.177-48.777-0.052-73.186c0.112-21.838,1.21-47.62-3.729-67.476C629.493,464.829,626.202,467.76,625.946,471.561
		L625.946,471.561z"/>
	<path fill="#010101" d="M964.54,469.261c-1.808,10.477-2.065,21.884-2.697,32.763c-0.729,12.544-1.153,25.181-1.554,37.765
		c-0.8,25.066-1.271,50.326-1.207,75.396c0.058,23.918,0.453,47.055-1.776,70.811c-1.077,11.459-2.09,22.893-2.542,34.49
		c-0.327,8.379-0.808,21.674,1.908,28.646c3.767,9.684,12.084-4.758,10.725-14.426c-0.403-2.869-1.238-4.842-2.54-6.322
		c-2.193-2.502-4.766,0.766-6.271,3.916c-1.292,2.701-2.056,5.822-2.599,9.316c3.803-2.305,7.605-4.611,11.41-6.91
		c-1.767-19.498,0.279-38.455,1.737-58.014c1.764-23.721,0.887-47.133,0.548-70.863c-0.329-22.932,0.03-45.994,0.205-68.957
		c0.09-11.455,0.218-22.914,0.428-34.375c0.205-11.544,1.04-24.066,0.057-35.423C969.75,459.931,965.361,464.508,964.54,469.261z"/>
	<path fill="#010101" d="M598.38,487.33c11.66-3.203,22.888-15.153,33.54-24.689c4.94-4.422,9.861-8.946,14.828-13.246
		c2.095-1.813-1.57,1.21,0.647-0.531c2.763-2.176,5.519-4.385,8.264-6.648c5.696-4.69,11.345-9.59,16.957-14.664
		c42.383-38.313,83.472-82.643,126.941-116.022c3.375-2.59,6.4-7.359,7.321-14.551c1.03-8.027-1.721-13.135-5.615-13.196
		c-2.596-0.042-5.025-0.188-7.426,2.397c-0.9,1.201-1.795,2.417-2.688,3.634c-0.479,0.956-0.955,1.914-1.433,2.868
		c1.485-2.641,1.529-3.02,0.125-1.147c-2.824,3.296-5.791,14.282-0.999,16.525c0.63,0.269,1.254,0.589,1.866,0.967
		c-0.941-1.542-1.884-3.089-2.828-4.635c2.086,8.223,5.491,7.801,9.729,7.863c0.566-9.246,1.136-18.499,1.703-27.746
		c-43.398,33.352-84.639,76.717-126.799,115.677c-13.765,12.718-27.838,23.942-41.609,36.621
		c-5.987,5.512-12.019,10.813-18.007,16.312c-1.453,1.337-2.914,2.644-4.377,3.938c-0.681,0.598-1.365,1.182-2.048,1.769
		c-2.149,1.841,1.307-1.054-0.751,0.619c-1.527,1.239-3.052,2.482-4.555,3.832c-1.666,1.495,1.39-1.091-0.178,0.155
		c-0.394,0.309-0.791,0.588-1.193,0.845c-2.812,1.808-5.348,6.353-6.082,12.088C592.949,482.319,595.065,488.24,598.38,487.33
		L598.38,487.33z"/>
	<path fill="#010101" d="M794.21,299.703c5.065,12.263,12.983,21.229,19.815,29.337c7.749,9.192,15.777,17.49,23.87,25.495
		c16.857,16.664,33.778,32.867,50.413,50.371c17.144,18.034,33.662,38.2,50.789,56.237c15.883,16.731,33.663,25.607,49.273,43.406
		c2.353-9.006,4.705-18.013,7.059-27.018c-2.206-0.092-4.187,0.209-6.334,1.466c-4.492,2.633-9.069,15.44-4.333,22.251
		c1.699,2.44,3.053,3.79,5.21,4.433c6.131,1.828,16.594-18.453,8.879-26.819c-15.419-16.722-32.661-25.877-48.406-41.304
		c-8.612-8.433-16.813-18.622-25.194-27.865c-8.534-9.404-17.122-18.623-25.771-27.634c-16.41-17.103-33.3-31.964-50.205-47.126
		c-8.297-7.442-16.494-15.286-24.505-23.805c-7.787-8.279-15.166-19.058-23.255-26.078
		C797.726,281.768,791.046,292.045,794.21,299.703L794.21,299.703z"/>
	<path fill="#010101" d="M659.63,307.081c-2.293,8.21-2.15,18.134-2.508,27.18c-0.394,9.971-0.368,20.038-0.365,30.013
		c0.008,20.494,0.06,40.998-0.614,61.5c3.896-3.257,7.797-6.515,11.696-9.768c-0.813-5.843-3.918-8.98-6.919-7.178
		c-3.479,2.09-4.739,10.787-4.777,16.943c-0.042,6.382,3.369,8.527,6.055,6.914c3.211-1.925,5.65-7.576,5.864-14.102
		c0.639-19.326,0.101-38.56-0.624-57.774c-0.365-9.696-0.86-19.352-1.25-29.04c-0.346-8.583,0.021-19.952-2.488-27.203
		C662.648,301.522,660.244,304.888,659.63,307.081L659.63,307.081z"/>
	<path fill="#010101" d="M648.835,310.798c3.898,5.257,10.191,3.967,14.782,4.689c5.994,0.946,11.987,1.898,17.993,2.629
		c11.87,1.448,23.656,1.582,35.402-3.626c6.712-2.977,8.271-24.888-0.189-21.105c-10.595,4.741-21.638,3.923-32.327,2.589
		c-5.566-0.698-11.118-1.598-16.696-2.068c-5.798-0.492-11.885-1.574-17.282,3.768C648.163,300.007,646.214,307.264,648.835,310.798
		L648.835,310.798z"/>
	<path fill="#010101" d="M707.562,302.395c-6.067,5.663-5.849,26.696-6.051,37.463c-0.134,7.077-0.213,14.17-0.435,21.236
		c-0.215,6.839-0.928,9.754-1.93,13.636c-3.011,11.658,4.104,16.259,8.18,9.123c6.447-11.287,5.944-31.67,5.407-46.787
		C712.559,332.14,712.593,297.703,707.562,302.395z"/>
	<path fill="#010101" d="M666.538,535.773c-1.903,16.021-2.106,32.916-2.591,49.203c-0.545,18.412-0.908,36.811-1.186,55.227
		c-0.548,36.516-1.331,73.207-3.679,109.568c3.855-2.334,7.714-4.672,11.569-7.008c-0.224-2.514-0.952-3.643-1.371-5.826
		c-1.74-9.041-7.481-0.361-8.533,5.168c-0.367,1.938-1.334,4.818-1.665,7.666c-0.687,5.908,1.246,10.744,4.387,10.307
		c4.026-0.568,6.951-7.285,7.409-14.723c2.239-36.324,2.952-72.799,3.276-109.256c0.162-18.189,0.095-36.342-0.155-54.51
		c-0.229-16.367-0.014-33.313-1.554-49.393C671.838,525.853,666.99,531.984,666.538,535.773L666.538,535.773z"/>
	<path fill="#010101" d="M663.906,532.969c5.9,3.842,12.977,2.543,19.175,2.699c7.181,0.18,14.377-0.08,21.563-0.215
		c13.875-0.264,27.757-0.957,41.634-1.18c-1.278-4.381-2.558-8.768-3.833-13.146c0.155-0.309,0.31-0.621,0.466-0.932
		c-2.033,3.529-3.98,13.658,0.202,14.756c3.066,0.805,5.172-0.869,7.689-4.506c3.848-5.559,3.999-18.624-1.674-18.398
		c-13.915,0.55-27.83,1.226-41.743,2.013c-6.706,0.379-13.411,0.705-20.115,0.953c-7.075,0.264-14.517-0.492-21.449,3.023
		C662.505,519.72,659.69,530.224,663.906,532.969L663.906,532.969z"/>
	<path fill="#010101" d="M748.129,516.371c-3.004,9.945-2.936,22.668-3.345,33.789c-0.49,13.35-0.966,26.701-1.471,40.049
		c-0.771,20.383-2.173,40.467-2.324,60.9c-0.136,18.354,0.001,36.697-0.34,55.055c-0.156,8.41-0.427,16.848-1.078,25.195
		c-0.558,7.18-1.963,14.023-2.341,21.201c-0.597,11.266,7.747,6.381,9.729,1.109c4.895-13.014,4.909-32.912,5.282-48.203
		c0.46-18.969,0.086-37.945-0.021-56.893c-0.111-19.609,0.815-38.943,1.297-58.535c0.323-13.104,0.364-26.16,0.26-39.254
		c-0.086-11.02,1.039-27.172-2.513-36.352C750.382,512.157,748.654,514.627,748.129,516.371L748.129,516.371z"/>
	<path fill="#010101" d="M822.085,541.414c-6.24,8.719-4.015,33.648-3.935,46.01c0.058,8.953,0.141,17.926-0.028,26.891
		c-0.064,3.424-0.142,5.461-0.311,7.447c-0.088,1.02-0.244,2.008-0.341,3.021c-0.143,1.084-0.196,2.172-0.158,3.258
		c0.073,0.832,0.146,1.666,0.218,2.498c-0.079-1.846-0.131-2.334-0.163-1.459c-0.388,7.555,4.483,7.221,6.774,5.037
		c8.46-8.068,5.742-37.457,5.283-51.779C829.232,576.338,829.429,531.156,822.085,541.414L822.085,541.414z"/>
	<path fill="#010101" d="M820.349,549.115c7.309,6.873,15.832,8.246,23.904,9.289c8.622,1.119,17.249,1.057,25.907,0.479
		c17.757-1.188,35.479-3.18,53.236-4.016c6.307-0.297,10.989-22.623,2.829-22.047c-2.47,0.178-4.158,0.428-6.42,2.732
		c-2.481,2.527-4.137,8.463-2.627,13.33c1.104,3.557,2.877,4.525,4.804,5.83c1.414-7.295,2.827-14.596,4.243-21.893
		c-16.726-1.229-33.713,2.977-50.439,4.73c-8.749,0.92-17.52,1.416-26.268,1.195c-8.653-0.215-17.258-2.549-25.915-2.1
		C821.159,536.775,817.006,545.97,820.349,549.115z"/>
	<path fill="#010101" d="M819.604,636.056c7.412,1.92,14.944-0.949,22.397-2.422c8.698-1.721,17.396-3.418,26.116-4.4
		c16.705-1.887,33.502-1.688,49.826,5.004c0.921-7.17,1.841-14.342,2.76-21.512c-2.109,0.99-4.091,4.002-5.166,5.574
		c-1.686,2.467-2.519,7.139-1.36,10.609c1.085,3.25,1.74,4.109,3.767,5.33c5.979,3.6,13.048-18.91,5.708-21.924
		c-16.757-6.871-34.233-7.291-51.38-4.777c-8.814,1.291-17.635,3.25-26.382,5.975c-8.317,2.588-16.953,4.48-24.794,10.898
		C819.251,625.924,815.69,635.039,819.604,636.056L819.604,636.056z"/>
	<path fill="#010101" d="M923.645,538.752c-3.79,13.287-2.395,32.633-2.625,47.076c-0.142,8.99-0.338,18.029-0.794,27.002
		c-0.149,2.93-0.438,5.863-0.789,8.736c-0.083,0.666-0.179,1.326-0.283,1.979c0.289-1.369,0.308-1.49,0.056-0.354
		c0.122-0.533-1.597,7.211-0.437,2.482c-2.927,11.939,3.796,14.283,7.818,8.719c6.839-9.451,5.785-34.277,5.583-48.211
		c-0.141-9.709-0.462-19.385-0.864-29.049c-0.291-7.01-0.476-15.641-2.701-21.439C927.24,532.111,924.443,535.955,923.645,538.752
		L923.645,538.752z"/>
	<path fill="#010101" d="M646.583,304.269c-0.888,9.292-0.385,17.665-0.12,26.972c0.092,3.168,1.421,5.556,3.097,5.101
		c22.249-6.024,44.618-8.843,66.83-3.434c2.671,0.65,5.53-3.16,6.183-8.401c0.836-6.716,1.057-13.875,0.474-20.628
		c-0.44-5.122-3.124-7.007-5.438-4.045c-1.451,1.854-2.693,3.728-3.953,6.055c-1.041,1.925-1.998,6.707,0.103,7.462
		c1.497,0.54,2.42,1.265,3.996,1.046c-1.087-1.79-2.17-3.578-3.255-5.366c0.476,5.492,0.46,11.154-0.222,16.635
		c2.063-2.802,4.123-5.602,6.184-8.402c-22.965-5.548-47.083-4.508-69.997,4.361c1.326,0.984,2.652,1.971,3.976,2.957
		c-0.774-7.876-2.087-15.498-2.866-23.337C651.054,296.012,646.903,300.901,646.583,304.269L646.583,304.269z"/>
	<path fill="#010101" d="M658.409,311.593c-2.729-0.555-4.66-3.021-7.512-2.309c-2.622,0.659-5.996,9.321-2.247,11.586
		c4.736,2.858,10.752,2.041,15.72,2.22c5.184,0.187,12.474,3.259,17.046-2.578c1.405-1.795,3.192-5.978,1.817-9.224
		c-1.709-4.023-3.649-3.412-6.22-3.562c-3.041-0.178-6.103-0.01-9.146-0.012c-5.791-0.008-12.077-0.805-17.767,1.869
		c0.301,3.466,0.603,6.935,0.905,10.399c1.908-2.552,4.188-3.354,6.456-3.502C658.582,316.407,659.99,311.915,658.409,311.593
		L658.409,311.593z"/>
	<path fill="#010101" d="M588.616,790.09c-0.444,3.758-0.846,7.816-0.855,11.652c-0.005,2.736,1.211,4.279,2.505,4.127
		c50.457-5.855,100.897-1.367,151.339-3.188c51.728-1.867,103.46-3.744,155.174-3.834c17.404-0.031,34.887,1.416,52.296-0.268
		c16.087-1.555,32.484-5.789,48.338,0.459c1.018-5.254,2.035-10.512,3.055-15.766c-2.325-0.049-4.51,1.311-6.771,2.424
		c-2.441,1.199-4.536,9.051-1.414,11.027c2.129,1.346,3.888,2.387,6.147,2.428c3.715,0.066,8.075-13.805,3.057-15.768
		c-11.008-4.314-22.363-3.803-33.592-2.6c-11.734,1.256-23.365,2.721-35.104,2.545c-25.766-0.383-51.54-0.189-77.317,0.309
		c-51.396,0.992-102.82,4.398-154.2,4.041c-36.513-0.256-72.956-1.188-109.438,5.973c0.836,1.377,1.669,2.75,2.504,4.127
		c-0.077-3.795-1.088-6.666-1.769-10.082C591.794,783.802,588.96,787.177,588.616,790.09L588.616,790.09z"/>
	<path fill="#010101" d="M627.389,457.831c-0.991,8.679-1.159,17.632-2.305,26.235c1.939-0.27,3.881-0.541,5.822-0.813
		c1.194-9.913,3.286-19.015,5.512-28.228c-1.964-0.214-3.927-0.432-5.891-0.649c-0.996,11.419-2.986,22.335-4.583,33.484
		c2.165-0.302,4.332-0.604,6.497-0.906c0.94-9.964,2.286-19.758,3.105-29.762c-2.211,0.829-4.417,1.656-6.627,2.484
		c-0.117,11.925,0.198,23.93-1.277,35.68c2.242-0.839,4.482-1.678,6.725-2.52c0.224-7.878,0.369-15.743,0.491-23.625
		c0.123-8.079-5.376-2.98-6.51,0.907c-0.854,2.93-1.81,5.731-2.665,8.659c2.146-0.301,4.295-0.598,6.44-0.899
		c0.089-5.784,0.176-11.567,0.261-17.349c0.126-8.192-5.947-2.746-6.632,2.486c-1.784,13.606-0.996,28.085-0.856,41.763
		c0.039,4.035,2.787,2.665,3.619,0.416c2.229-6.044,3.138-9.956,3.322-17.464c0.213-8.713-0.742-16.976,0.452-25.628
		c-2.213,0.826-4.425,1.656-6.635,2.479c-0.128,5.811-0.257,11.618-0.387,17.426c-0.177,8.06,5.323,2.831,6.442-0.899
		c0.877-2.922,1.852-5.714,2.727-8.634c-2.169,0.304-4.338,0.606-6.507,0.91c-0.173,7.856-0.32,15.707-0.388,23.564
		c-0.072,8.184,6.109,2.98,6.726-2.52c1.434-12.796,1.106-25.859,1.376-38.809c0.164-7.915-6.104-3.106-6.629,2.48
		c-0.934,9.956-2.255,19.759-3.071,29.756c-0.741,9.097,5.633,5.717,6.497-0.907c1.449-11.142,3.341-22.087,4.268-33.438
		c0.645-7.89-4.63-5.997-5.89-0.651c-2.354,9.995-4.931,20.273-5.738,31.201c-0.593,8.042,5.327,5.383,5.824-0.813
		c0.712-8.852,0.738-17.991-0.017-26.733C630.539,452.437,627.744,454.724,627.389,457.831z"/>
</g>
<g>
	<path d="M790.587,63.912c-20.338,3.751-40.126,8.641-59.504,14.539c-9.683,2.965-19.242,6.23-28.678,9.778
		c-9.415,3.611-18.737,7.391-28.053,11.282c-9.294,3.926-18.63,7.924-27.697,12.572c-9.082,4.608-17.885,9.869-26.08,15.975
		c-8.207,6.089-15.845,12.941-22.877,20.345c-7.044,7.398-13.357,15.458-19.124,23.831c-2.881,4.19-5.605,8.477-8.254,12.792
		c-1.322,2.16-2.6,4.345-3.863,6.533c-1.285,2.175-2.532,4.371-3.751,6.579c-4.851,8.848-9.52,17.763-13.647,26.938
		c-8.273,18.351-14.6,37.466-20.153,56.818c-5.576,19.361-9.997,39.136-13.566,59.201c-1.788,10.033-3.342,20.139-4.83,30.305
		c-1.437,10.17-2.721,20.399-4.118,30.696h-1.6c-1.395-10.326-2.152-20.722-2.453-31.145c-0.354-10.427-0.172-20.882,0.444-31.332
		c1.241-20.895,4.346-41.793,9.639-62.229c5.305-20.433,13.223-40.222,23.045-58.946c4.914-9.36,10.246-18.516,16.363-27.134
		c1.523-2.157,3.071-4.295,4.654-6.405c1.603-2.097,3.237-4.167,4.9-6.211c3.317-4.095,6.787-8.059,10.344-11.924
		c14.283-15.431,29.629-29.491,45.658-42.771c8.021-6.636,16.166-13.186,24.625-19.424c8.473-6.201,17.268-12.093,26.564-17.094
		c9.278-5.032,19.005-9.226,28.982-12.634c9.956-3.474,20.128-6.289,30.419-8.462c10.29-2.176,20.705-3.704,31.168-4.477
		c10.461-0.73,20.974-0.9,31.42,0.405L790.587,63.912z"/>
</g>
<g>
	<path d="M390.647,296.52c5.871,3.44,11.366,7.278,16.772,11.208c5.394,3.944,10.634,8.051,15.77,12.268
		c5.147,4.204,10.147,8.565,15.083,12.993c2.447,2.236,4.925,4.439,7.309,6.742c2.385,2.302,4.71,4.667,6.989,7.08
		c9.095,9.675,16.99,20.619,26.075,30.305c2.262,2.432,4.581,4.802,6.953,7.118c1.19,1.154,2.395,2.291,3.613,3.415
		c1.206,1.137,2.433,2.25,3.671,3.354c4.934,4.43,10.056,8.661,15.332,12.73l-5.071-0.154l14.895-15.365
		c5.006-5.073,10.185-9.939,15.438-14.717l15.733-14.364c5.293-4.73,10.625-9.415,16.113-13.912
		c10.979-8.991,22.369-17.493,33.998-25.709c5.82-4.101,11.736-8.089,17.751-11.958c6.028-3.853,12.137-7.611,18.5-11.064
		l1.027,1.226c-4.511,5.663-9.277,11.021-14.123,16.285c-4.86,5.247-9.818,10.376-14.873,15.392
		c-10.12,10.016-20.479,19.748-31.248,28.99c-5.387,4.619-10.93,9.051-16.511,13.438l-16.89,12.986
		c-5.621,4.339-11.316,8.589-17.186,12.633l-17.728,11.985l-3.121,2.109l-1.95-2.263c-4.349-5.047-8.852-9.933-13.542-14.619
		c-1.168-1.176-2.347-2.342-3.547-3.484c-1.188-1.156-2.389-2.298-3.605-3.423c-2.44-2.243-4.934-4.431-7.484-6.557
		c-10.164-8.547-21.519-15.837-31.672-24.396c-2.534-2.144-5.021-4.338-7.448-6.595c-2.428-2.255-4.763-4.61-7.128-6.933
		c-4.688-4.689-9.314-9.445-13.791-14.357c-4.489-4.9-8.874-9.909-13.104-15.082c-4.218-5.186-8.348-10.465-12.101-16.141
		L390.647,296.52z"/>
</g>
</svg>
