<?xml version="1.0" encoding="utf-8"?>
<!-- Generator: Adobe Illustrator 23.0.1, SVG Export Plug-In . SVG Version: 6.00 Build 0)  -->
<svg version="1.1" id="Layer_3" xmlns="http://www.w3.org/2000/svg" xmlns:xlink="http://www.w3.org/1999/xlink" x="0px" y="0px"
	 viewBox="0 0 566.9 566.9" style="enable-background:new 0 0 566.9 566.9;" xml:space="preserve">
<style type="text/css">
	.st0{fill:#FFFFFF;}
</style>
<path d="M535.5,318c-2.6-36-8.5-108.6-8.9-144.6c0-2.9,1-5.3-4.9-9.7c-36-26.7-123.1-61.5-187.6-71.7
	c-67.9-10.7-137.2-4.8-203.7,11.6c-18.1,4.5-35.7,10.6-51.4,20.9c-13.6,8.9-25.5,20.3-35.1,33.4c-0.2,0.2-0.4,0.3-0.7,0.6
	c-0.7,0.7-1.2,1.6-1.6,2.6c-2.6,3.8-3,8.9-1.7,13.3c0.5,1.5,3.6,6.1,3.7,6.6c6.1,36.1,0.4,72.6-0.5,108.9
	c-0.4,17.9-1.4,106.7-1.4,106.7l1.7,13.3c0,0,9.5,18.8,17.9,25.4c6.2,4.8,13.2,8.8,19.9,12.9c7.1,4.3,14.3,8.3,22,11.4
	c15.1,6.2,31.2,9.5,47.3,11.7c17,2.3,34.2,4,51.3,5c16.5,0.9,56.7-2.2,56.7-2.2l46.1-74c0,0,165.8,57.1,167.8,56l21.7-12
	c6.4-3.5,13-6.8,18-12.2c8.1-8.8,16.8-25.2,19.6-41.5C534.4,373.8,536.8,336,535.5,318z M248.6,455.8c-15.5,1.6-31.1,1.7-46.7,0.8
	c-19.5-1.1-39.1-3-58.3-6c-18.9-3-36.9-8.3-53.6-17.8c-7.9-4.5-15.9-9.2-23.4-14.5c-3.5-2.5-12.8-12.6-13.4-14.2
	c-0.1-0.4,0.1-13,0.1-13s-1.1-66.3-0.4-99.5c0.6-29,4.1-58.1,3-87.1c1.7,3,3.5,5.9,5.6,8.7c4.4,6.1,9.7,12,15.9,16.3
	c3,2.1,5.9,4.4,8.9,6.3c3.5,2.3,7.9,3,11,5.8c6.2,5.5,15.1,8.8,22.6,12.1c8,3.5,16.1,6.6,24.4,9.4c16.6,5.5,33.7,9.5,51,12
	c15.7,2.3,47.4,3.6,47.4,3.6s3.5,0,3.7,0c-0.1,30.6-0.4,61.3-0.3,91.9C246.3,379.5,248.4,444.4,248.6,455.8z M243,259.3
	c-29.4-0.3-58.8-3.9-87-12.1c-16.2-4.7-32-10.9-47-18.6c-3.6-1.8-6.2-3.8-9.4-6.2c-3.2-2.4-7.4-3.1-10.8-5.3
	c-5.8-3.8-11.6-8.1-16.4-13.1c-9.2-9.9-14.8-22.1-19.6-34.5c17.9-21.9,42-36.4,69.5-44.3c16.7-4.8,34-7.8,51.1-10.8
	c17.9-3.1,35.8-5.7,53.9-7.2c63.8-5.1,128.8,3.7,189.1,25.2c33.9,12.1,66.3,28.2,96.4,48c0.1,0.1,0.2,0.1,0.2,0.1
	c-10.3,22.6-57.2,43.6-57.2,43.6s-2.1-0.7-2.9-1c-26.7-8.1-52.7-18.7-80.2-24.2c-28.1-5.6-76.2-13.5-76.2-13.5
	S250.3,248.6,243,259.3z M296.6,386.7c0,0-37.8,67.7-38.8,67.9c-0.8-12.5-1.8-79.4-1.8-87.8c0-23.7,1-87.9,1-87.9l0.9-17.5
	l38.8-50.2V386.7z M310.4,385.6c0,0,0-149.9,0-181.1c29.5,7.5,32.3,8.3,58.9,13.2c27.8,5.1,54.1,16,81.1,24.2c1.3,0.4,4,0.6,4.5,1.1
	c-0.1,63.3,0.1,126.8,5.6,189.9C407.1,421.5,310.4,385.6,310.4,385.6z M524.7,335.7c-0.3,14.3-5.1,60.4-10.2,65.9
	c-0.1,0.1-5.3,12.2-10.4,16.2c-4.8,3.7-10.6,6.3-15.9,9.2c-5.9,3.3-11.8,6.5-17.7,9.8c-6.1-64.9-6.1-130.3-6-195.4
	c0.1-0.2,0.2-0.5,0.2-0.7c21.3-8.7,41.3-21.8,52.6-41.3c0.8,27.9,2.3,55.7,4.3,83.6C523,300.4,525,318,524.7,335.7z"/>
<path d="M310.4,204.5"/>
<g>
	<g>
		<path d="M50.3,283c4.4,6.4,11.9,9.6,18.5,13.1c7.5,3.9,15,7.6,22.8,10.8c16.1,6.6,32.5,9.8,49.5,12.8c17.8,3.2,35.2,8.1,53.3,10.3
			c18.3,2.2,36.8,3.3,55.2,4.7c3.3,0.3,3.6-9.7,0-10c-17.8-1.4-35.6-2.4-53.3-4.5c-17.5-2-34.2-6.6-51.4-9.9
			c-17.2-3.2-33.9-5.9-50.3-12.5c-7.8-3.1-15.4-6.8-22.9-10.6c-6.6-3.4-14.6-6.5-18.9-12.9c-1.3-1.9-3,0.5-3.4,1.8
			C48.7,278.4,49,281.1,50.3,283L50.3,283z"/>
	</g>
</g>
<g>
	<g>
		<path d="M45.4,347.5c10,13.3,26.3,21.3,40.7,28.8c17.1,8.8,35.9,11.3,54.2,16.6c18.1,5.3,35.7,10.5,54.7,10.4
			c4.3,0,8.5-0.1,12.8,0.6c4.5,0.7,8.8,2.3,13.2,3.4c8.8,2.1,17.5,1.4,25.9-1.9c3-1.2,2.3-11.1-1.3-9.6c-9,3.6-18,3.4-27.2,0.9
			c-8.5-2.4-16.3-3.3-25.2-3.3c-18.5,0-35.8-5.5-53.4-10.6c-17.1-5-34.8-7.2-50.8-15.3c-14.5-7.3-31.2-15.4-41.1-28.6
			c-1.4-1.9-3,0.5-3.4,1.8C43.8,342.8,44,345.7,45.4,347.5L45.4,347.5z"/>
	</g>
</g>
<g>
	<g>
		<path d="M467.3,300.3c20.3-6.4,42.7-16,54.2-34.9c1.7-2.7-0.6-11.9-3.5-7.1c-10.7,17.5-33.3,26.4-52,32.3
			C462.9,291.6,463.5,301.5,467.3,300.3L467.3,300.3z"/>
	</g>
</g>
<g>
	<g>
		<path d="M467.7,385c23.2-5,43.9-17.7,58.8-36.1c1.4-1.8,1.6-4.8,0.9-6.8c-0.5-1.4-1.9-3.6-3.4-1.8c-14.3,17.6-34.1,30-56.3,34.8
			C464.1,375.8,464.7,385.7,467.7,385L467.7,385z"/>
	</g>
</g>
<path d="M237.7,219.1c0.9-5.6-2.1-13.1-4.9-17c-2.7-3.9-6.5-5.4-10.8-6.9c-5-1.7-10-3.5-14.7-5.9c-9.2-4.7-20.2-13.7-18.1-25.4
	c0.8-4.5-3.6-9-4.7-2.6c-0.4,2.3-0.5,4.6-0.4,6.8c-0.4,0-0.7,0.2-1.1,0.7c-5.2,7.9-12.2,13.9-20.2,18.7c-7.7,4.6-16.4,7.8-23.2,13.8
	c-6,5.3-9.4,13-7.6,21c0.7,3,2,5.2,3.8,6.9c0.3,0.7,0.7,1.3,1.3,1.4c0.3,0.1,0.6,0.2,0.9,0.3c2.5,1.5,5.4,2.5,8.4,3.4
	c3.4,1.6,6.7,3.3,10.4,4c0.7,0.1,1.4,0.2,2.1,0.3c6.1,2.5,12.6,3.5,19.3,2.8c3.6,0.4,7.2,0.6,10.9,0.5c16.9-0.5,33.3-6,48-14.1
	C239,226.6,239.1,221.3,237.7,219.1z M136.5,217.2c0.4-4,5.2-7.6,8.2-9.6c7.1-5,15.4-8,22.6-12.8c7.1-4.7,13.4-10.5,18.1-17.6
	c0.1-0.2,0.2-0.3,0.3-0.5c2.7,8,8.5,14.8,16,19.4c6.8,4.3,14.5,6.5,21.9,9.4c3.8,1.5,6.4,3.6,8,7.4c0.3,0.7,0.6,1.5,0.7,2.2
	c0.2,1,0.3,1.5,0.4,1.7c-0.1-0.4-0.4-1.3-0.5-1.2c-1.7,1.3-4.7,1.9-6.7,2.7c-8.6,3.1-17.5,5.4-26.4,7.3c-8.8,1.9-17.8,3.6-26.8,3.6
	c-3.7,0-7.4-0.4-11-1.1c-7.4-2-14.6-4.5-21.9-6.7c-0.2-0.1-0.4-0.1-0.6-0.2c-0.1,0-0.2-0.1-0.3-0.1
	C137.1,220.3,136.3,219,136.5,217.2z"/>
<path class="st0" d="M409,138c0.7-3.3-1.6-7.7-3.6-10c-2-2.3-4.8-3.2-8-4.1c-3.7-1-7.4-2.1-10.9-3.5c-6.8-2.8-14.9-8-13.4-14.8
	c0.6-2.7-2.6-5.3-3.5-1.5c-0.3,1.4-0.4,2.7-0.3,4c-0.3,0-0.5,0.1-0.8,0.4c-3.8,4.6-9,8.1-14.9,10.9c-5.7,2.7-12.1,4.6-17.2,8.1
	c-4.5,3.1-6.9,7.6-5.7,12.3c0.5,1.8,1.5,3,2.8,4c0.2,0.4,0.5,0.7,1,0.8c0.2,0.1,0.5,0.1,0.7,0.2c1.8,0.9,4,1.5,6.2,2
	c2.5,0.9,4.9,1.9,7.7,2.3c0.5,0.1,1,0.1,1.5,0.2c4.5,1.5,9.3,2,14.3,1.6c2.7,0.2,5.3,0.4,8,0.3c12.5-0.3,24.6-3.5,35.5-8.3
	C409.9,142.3,410,139.2,409,138z"/>
<path class="st0" d="M159.4,152.2c0.7-3.5-1.6-8.1-3.8-10.5c-2.1-2.4-5.1-3.4-8.4-4.3c-3.9-1.1-7.8-2.2-11.4-3.7
	c-7.2-2.9-15.6-8.5-14.1-15.7c0.6-2.8-2.8-5.6-3.6-1.6c-0.3,1.4-0.4,2.8-0.3,4.2c-0.3,0-0.6,0.1-0.8,0.4c-4,4.9-9.4,8.6-15.7,11.6
	c-6,2.9-12.7,4.8-18,8.5c-4.7,3.3-7.3,8-5.9,13c0.5,1.9,1.5,3.2,2.9,4.3c0.2,0.4,0.6,0.8,1,0.9c0.2,0.1,0.5,0.1,0.7,0.2
	c1.9,1,4.2,1.6,6.5,2.1c2.6,1,5.2,2,8.1,2.5c0.5,0.1,1.1,0.1,1.6,0.2c4.7,1.5,9.8,2.1,15,1.7c2.8,0.3,5.6,0.4,8.4,0.3
	c13.1-0.3,25.8-3.7,37.2-8.7C160.4,156.8,160.4,153.5,159.4,152.2z"/>
<path d="M413.7,139.7c0.7-4.5-1.7-10.5-3.9-13.7c-2.2-3.1-5.2-4.4-8.7-5.6c-4-1.4-8-2.8-11.8-4.8c-7.4-3.8-16.2-11-14.6-20.4
	c0.6-3.7-2.9-7.3-3.8-2.1c-0.3,1.9-0.4,3.7-0.3,5.5c-0.3,0-0.6,0.2-0.9,0.6c-4.1,6.3-9.8,11.2-16.2,15c-6.2,3.7-13.2,6.3-18.7,11.1
	c-4.9,4.3-7.6,10.4-6.1,16.9c0.5,2.4,1.6,4.2,3,5.5c0.2,0.6,0.6,1,1,1.1c0.3,0.1,0.5,0.2,0.8,0.2c2,1.2,4.3,2,6.8,2.7
	c2.7,1.3,5.4,2.6,8.4,3.2c0.5,0.1,1.1,0.2,1.7,0.3c4.9,2,10.2,2.8,15.5,2.2c2.9,0.3,5.8,0.5,8.7,0.4c13.6-0.4,26.8-4.8,38.6-11.3
	C414.7,145.7,414.8,141.5,413.7,139.7z M332.4,138.2c0.3-3.2,4.2-6.1,6.6-7.7c5.7-4,12.4-6.4,18.2-10.3c5.7-3.8,10.8-8.4,14.5-14.2
	c0.1-0.1,0.1-0.3,0.2-0.4c2.2,6.4,6.9,11.9,12.8,15.6c5.5,3.4,11.6,5.2,17.6,7.6c3.1,1.2,5.2,2.9,6.4,6c0.2,0.6,0.5,1.2,0.6,1.8
	c0.2,0.8,0.3,1.2,0.3,1.4c-0.1-0.3-0.3-1-0.4-0.9c-1.3,1.1-3.8,1.5-5.4,2.1c-6.9,2.5-14.1,4.3-21.2,5.8c-7.1,1.5-14.3,2.9-21.6,2.9
	c-3,0-5.9-0.3-8.9-0.8c-5.9-1.6-11.8-3.6-17.6-5.4c-0.1,0-0.3-0.1-0.5-0.1c-0.1,0-0.2-0.1-0.3-0.1
	C332.8,140.7,332.2,139.6,332.4,138.2z"/>
<path d="M487.3,190.8c0.8-4.8-1.8-11.3-4.2-14.7c-2.3-3.3-5.6-4.7-9.3-6c-4.3-1.5-8.6-3-12.7-5.1c-8-4.1-17.4-11.8-15.6-21.9
	c0.7-3.9-3.1-7.8-4-2.2c-0.3,2-0.5,4-0.4,5.9c-0.3,0-0.6,0.2-0.9,0.6c-4.4,6.8-10.5,12-17.4,16.1c-6.6,4-14.1,6.7-20,11.9
	c-5.2,4.6-8.1,11.2-6.6,18.1c0.6,2.6,1.7,4.5,3.3,5.9c0.3,0.6,0.6,1.1,1.1,1.2c0.3,0.1,0.5,0.2,0.8,0.2c2.1,1.3,4.6,2.2,7.3,2.9
	c2.9,1.4,5.8,2.8,9,3.4c0.6,0.1,1.2,0.2,1.8,0.3c5.3,2.2,10.9,3,16.6,2.4c3.1,0.4,6.2,0.5,9.4,0.4c14.6-0.4,28.7-5.1,41.4-12.2
	C488.4,197.2,488.5,192.7,487.3,190.8z M400.1,189.1c0.3-3.4,4.5-6.5,7.1-8.3c6.1-4.3,13.3-6.9,19.5-11c6.1-4.1,11.5-9,15.6-15.2
	c0.1-0.1,0.2-0.3,0.2-0.4c2.3,6.8,7.3,12.7,13.7,16.7c5.9,3.7,12.5,5.6,18.9,8.1c3.3,1.3,5.5,3.1,6.9,6.4c0.2,0.6,0.5,1.3,0.6,1.9
	c0.2,0.8,0.3,1.3,0.3,1.5c-0.1-0.4-0.3-1.1-0.5-1c-1.4,1.1-4.1,1.7-5.8,2.3c-7.4,2.7-15.1,4.6-22.8,6.2c-7.6,1.6-15.3,3.1-23.1,3.1
	c-3.2,0-6.4-0.4-9.5-0.9c-6.3-1.7-12.6-3.8-18.9-5.8c-0.2-0.1-0.3-0.1-0.5-0.1c-0.1,0-0.2-0.1-0.3-0.1
	C400.7,191.8,400,190.7,400.1,189.1z"/>
<path class="st0" d="M286.8,130.9c0.8-4.8-1.8-11.3-4.2-14.7c-2.3-3.3-5.6-4.7-9.3-6c-4.3-1.5-8.6-3-12.7-5.1
	c-8-4.1-17.4-11.8-15.6-21.9c0.7-3.9-3.1-7.8-4-2.2c-0.3,2-0.5,4-0.4,5.9c-0.3,0-0.6,0.2-0.9,0.6c-4.4,6.8-10.5,12-17.4,16.1
	c-6.6,4-14.1,6.7-20,11.9c-5.2,4.6-8.1,11.2-6.6,18.1c0.6,2.6,1.7,4.5,3.3,5.9c0.3,0.6,0.6,1.1,1.1,1.2c0.3,0.1,0.5,0.2,0.8,0.2
	c2.1,1.3,4.6,2.2,7.3,2.9c2.9,1.4,5.8,2.8,9,3.4c0.6,0.1,1.2,0.2,1.8,0.3c5.3,2.2,10.9,3,16.6,2.4c3.1,0.4,6.2,0.5,9.4,0.4
	c14.6-0.4,28.7-5.1,41.4-12.2C287.9,137.3,288,132.8,286.8,130.9z"/>
<path d="M286.8,128.3c0.8-4.8-1.8-11.3-4.2-14.7c-2.3-3.3-5.6-4.7-9.3-6c-4.3-1.5-8.6-3-12.7-5.1c-8-4.1-17.4-11.8-15.6-21.9
	c0.7-3.9-3.1-7.8-4-2.2c-0.3,2-0.5,4-0.4,5.9c-0.3,0-0.6,0.2-0.9,0.6c-4.4,6.8-10.5,12-17.4,16.1c-6.6,4-14.1,6.7-20,11.9
	c-5.2,4.6-8.1,11.2-6.6,18.1c0.6,2.6,1.7,4.5,3.3,5.9c0.3,0.6,0.6,1.1,1.1,1.2c0.3,0.1,0.5,0.2,0.8,0.2c2.1,1.3,4.6,2.2,7.3,2.9
	c2.9,1.4,5.8,2.8,9,3.4c0.6,0.1,1.2,0.2,1.8,0.3c5.3,2.2,10.9,3,16.6,2.4c3.1,0.4,6.2,0.5,9.4,0.4c14.6-0.4,28.7-5.1,41.4-12.2
	C287.9,134.7,288,130.2,286.8,128.3z M199.7,126.6c0.3-3.4,4.5-6.5,7.1-8.3c6.1-4.3,13.3-6.9,19.5-11c6.1-4.1,11.5-9,15.6-15.2
	c0.1-0.1,0.2-0.3,0.2-0.4c2.3,6.8,7.3,12.7,13.7,16.7c5.9,3.7,12.5,5.6,18.9,8.1c3.3,1.3,5.5,3.1,6.9,6.4c0.2,0.6,0.5,1.3,0.6,1.9
	c0.2,0.8,0.3,1.3,0.3,1.5c-0.1-0.4-0.3-1.1-0.5-1c-1.4,1.1-4.1,1.7-5.8,2.3c-7.4,2.7-15.1,4.6-22.8,6.2c-7.6,1.6-15.3,3.1-23.1,3.1
	c-3.2,0-6.4-0.4-9.5-0.9c-6.3-1.7-12.6-3.8-18.9-5.8c-0.2-0.1-0.3-0.1-0.5-0.1c-0.1,0-0.2-0.1-0.3-0.1
	C200.2,129.3,199.5,128.2,199.7,126.6z"/>
<path d="M164.3,154.7c0.8-4.8-1.8-11.3-4.2-14.7c-2.3-3.3-5.6-4.7-9.3-6c-4.3-1.5-8.6-3-12.7-5.1c-8-4.1-17.4-11.8-15.6-21.9
	c0.7-3.9-3.1-7.8-4-2.2c-0.3,2-0.5,4-0.4,5.9c-0.3,0-0.6,0.2-0.9,0.6c-4.4,6.8-10.5,12-17.4,16.1c-6.6,4-14.1,6.7-20,11.9
	c-5.2,4.6-8.1,11.2-6.6,18.1c0.6,2.6,1.7,4.5,3.3,5.9c0.3,0.6,0.6,1.1,1.1,1.2c0.3,0.1,0.5,0.2,0.8,0.2c2.1,1.3,4.6,2.2,7.3,2.9
	c2.9,1.4,5.8,2.8,9,3.4c0.6,0.1,1.2,0.2,1.8,0.3c5.3,2.2,10.9,3,16.6,2.4c3.1,0.4,6.2,0.5,9.4,0.4c14.6-0.4,28.7-5.1,41.4-12.2
	C165.4,161.1,165.4,156.5,164.3,154.7z M77.1,153c0.3-3.4,4.5-6.5,7.1-8.3c6.1-4.3,13.3-6.9,19.5-11c6.1-4.1,11.5-9,15.6-15.2
	c0.1-0.1,0.2-0.3,0.2-0.4c2.3,6.8,7.3,12.7,13.7,16.7c5.9,3.7,12.5,5.6,18.9,8.1c3.3,1.3,5.5,3.1,6.9,6.4c0.2,0.6,0.5,1.3,0.6,1.9
	c0.2,0.8,0.3,1.3,0.3,1.5c-0.1-0.4-0.3-1.1-0.5-1c-1.4,1.1-4.1,1.7-5.8,2.3c-7.4,2.7-15.1,4.6-22.8,6.2c-7.6,1.6-15.3,3.1-23.1,3.1
	c-3.2,0-6.4-0.4-9.5-0.9c-6.3-1.7-12.6-3.8-18.9-5.8c-0.2-0.1-0.3-0.1-0.5-0.1c-0.1,0-0.2-0.1-0.3-0.1C77.6,155.7,77,154.6,77.1,153
	z"/>
<path d="M206.1,121.4"/>
<g>
	<g>
		<path class="st0" d="M449.7,300c3.8,0,3.8-11,0-11C445.9,289,445.9,300,449.7,300L449.7,300z"/>
	</g>
</g>
<g>
	<g>
		<path d="M453.6,289.1c-7.2-0.3-12.1-5.4-17.6-9.4c-5.2-3.8-11.1-5.6-17.5-6.3c-14.9-1.5-30.3-0.7-45.2-0.4
			c-7.2,0.2-14.7,1.1-21.5-1.9c-5-2.2-9.3-5.7-13.8-8.8c-4-2.8-8.2-5.3-13-6.4c-6.5-1.4-12.5,0.6-18.2,3.5
			c-3.3,1.7-2.1,12.5,1.5,10.6c6.1-3.2,12.4-4.9,19.1-2.4c4.8,1.8,9,5.1,13.2,8c4.2,3,8.6,5.9,13.6,7.4c6.8,2,14.2,1,21.1,0.9
			c14.3-0.3,29.1-1,43.3,0.4c7.3,0.7,12.9,3.4,18.6,7.8c5,3.9,9.9,7.5,16.5,7.8C457.3,300.2,457.5,289.2,453.6,289.1L453.6,289.1z"
			/>
	</g>
</g>
<g>
	<g>
		<path d="M294.2,270.4c-2.2,7.7-7,11.9-14.3,14.5c-5.5,2-11.4,3.5-15.3,8.2c-3.5,4.2-4.9,9.8-5.9,15.1c-1.1,6.1-1.2,12.5-5.7,17.1
			c-2.4,2.5-0.7,13,2.8,9.5c4.6-4.6,6.2-10.8,7.2-17.1c1.1-6.2,1.2-13.2,6.7-17.3c5.3-4,12.5-4.3,18.1-7.8c6-3.7,9.3-10,11.2-16.7
			c0.6-2.1,0.8-5.9-1-7.5C296.2,266.8,294.7,268.5,294.2,270.4L294.2,270.4z"/>
	</g>
</g>
<g>
	<g>
		<path d="M458.1,375.1c-6,0.3-10.1-4.3-15-7c-5.4-3-10.7-2.4-16.5-0.8c-15.8,4.4-29.6,0.7-44.1-6c-6.5-3-12.9-6.4-19.5-9.1
			c-5.5-2.2-12.6-5.5-18.7-3.6c-3.7,1.1-6.5,3.4-10.5,3.8c-3.7,0.3-7-0.6-10.3-2.3c-5.9-3.1-11.2-7.7-18.3-5.9c-4,1-3.2,11.8,0,11
			c7.5-2,12.6,3.8,19,6.5c5.8,2.4,11.9,2,17.5-0.7c8-3.8,15.5-0.1,23.1,3.2c6.6,2.9,12.9,6.3,19.5,9.2c12.5,5.5,26,9.4,39.6,5.7
			c7.2-1.9,12.8-3.5,19.4,0.6c4.7,3,8.8,6.7,14.7,6.4C462,385.9,461.9,374.9,458.1,375.1L458.1,375.1z"/>
	</g>
</g>
<g>
	<g>
		<path d="M256.8,397.8c0.1-11.9,15.9-12.8,23.1-18.5c3.6-2.8,6-6.5,7.7-10.7c1.8-4.4,4.3-12.7,10.8-10.6c4.1,1.3,4.8-9.5,1.5-10.6
			c-5.3-1.7-9.9,1.1-12.7,5.7c-2,3.2-2.8,6.8-4.5,10.1c-1.8,3.6-4.6,6.2-8.2,8c-5.7,3-12.2,4.3-16.9,9c-4.6,4.7-6.3,11.2-6.4,17.5
			c0,1.6,0.5,5.5,2.8,5.5C256.3,403.3,256.8,399.3,256.8,397.8L256.8,397.8z"/>
	</g>
</g>
<g>
	<g>
		<path d="M42.8,359.1c-11.6,2.9-21,9.4-26.6,20.2c-6.2,12.2-6.9,27-4.5,40.3c6.4,34.6,31.7,62.7,60.4,81.4
			c16.7,10.9,36.4,16,55.8,19.9c26,5.3,52.6,8,79.1,9.9c60.1,4.2,120.9,3.6,180.9-1.1c24.5-1.9,49-4.5,73.2-9.1
			c17.5-3.3,35.4-7.5,50.6-17.2c24.9-15.9,38.3-44.4,41.6-73.1c1.5-13.6,1.1-27.5-1.9-40.9c-2-8.9-5.4-19.1-12.3-25.5
			c-2.8-2.6-5.7-4.3-9.6-4.9c-7.1-1-8,20.9,0,22c1.6,0.2-0.4-0.3,0.8,0.2c0.6,0.2,1.2,0.5,1.8,0.8c0.6,0.3,1.2,0.8,1.7,1.2
			c-0.7-0.5,0.2,0.1,0.9,1c0.5,0.6,1,1.3,1.5,1.9c1.3,1.6-0.1-0.4,0.5,0.7c1.1,1.9,2,3.8,2.8,5.9c-0.8-1.9,0.1,0.4,0.4,1.1
			c0.4,1.1,0.7,2.2,1,3.2c0.3,1.1,0.6,2.3,0.8,3.4c-0.5-2.5,0.2,1.5,0.4,2.2c0.4,2.6,0.7,5.2,0.9,7.8c-0.2-2.4,0,0.7,0,1.6
			c0,1.7,0.1,3.4,0,5.1c0,1.4-0.1,2.9-0.2,4.3c0.1-2.3-0.1,1.1-0.2,1.9c-0.3,3.3-0.8,6.6-1.5,9.8c0.4-1.8-0.5,2-0.5,2.3
			c-0.4,1.5-0.8,3-1.2,4.4c-0.9,3.2-1.8,5.6-2.8,8c-4.8,11.5-12.1,22.1-22,29.9c-13.8,10.9-30.4,15.9-46.9,19.4
			c-21.6,4.6-43.7,7.2-65.7,9.2c-56,5.2-112.7,6.3-168.9,3.8c-26.7-1.2-53.4-3.2-79.9-7c-20-2.9-40.3-6.4-59.2-13.7
			c-24.7-9.5-47.5-28.9-61.4-51.4c-3.4-5.4-6.6-11.8-8.4-17.2c-0.5-1.5-1-3-1.4-4.5c-0.2-0.6-1-4.4-0.7-2.7
			c-0.2-1.3-0.4-2.5-0.6-3.8c-0.1-0.8-0.2-1.6-0.3-2.3c-0.1-1.4,0,1.9,0-0.3c0-1.5,0-3,0.1-4.4c-0.1,2.5,0.1-0.4,0.2-1.3
			c0.1-0.6,0.2-1.1,0.3-1.7c-0.4,2.2-0.1,0.4,0.1-0.2c0.2-0.6,0.4-1.3,0.6-1.9c0.6-1.9-0.6,1.2,0.3-0.8c1.7-3.9,3.5-6.7,6.8-9.5
			c3.6-3.1,8.3-5.3,12.9-6.4C50.7,379.1,49.3,357.5,42.8,359.1L42.8,359.1z"/>
	</g>
</g>
</svg>
