<?xml version="1.0" encoding="utf-8"?>
<!-- Generator: Adobe Illustrator 15.1.0, SVG Export Plug-In . SVG Version: 6.00 Build 0)  -->
<!DOCTYPE svg PUBLIC "-//W3C//DTD SVG 1.1//EN" "http://www.w3.org/Graphics/SVG/1.1/DTD/svg11.dtd">
<svg version="1.1" id="Layer_2" xmlns="http://www.w3.org/2000/svg" xmlns:xlink="http://www.w3.org/1999/xlink" x="0px" y="0px"
	 width="566.93px" height="566.93px" viewBox="0 0 566.93 566.93" enable-background="new 0 0 566.93 566.93" xml:space="preserve">
<g display="none">
	<path display="inline" fill="#231F20" d="M255.687,509.369c1.793-9.961,5.123-19.682,9.338-28.966
		c4.229-9.293,9.396-18.151,15.152-26.558c5.757-8.411,12.095-16.388,18.828-23.954c6.686-7.613,13.862-14.74,21.451-21.357
		c15.187-13.253,31.888-24.475,47.216-37.169c15.381-12.633,29.979-26.188,43.566-40.683c3.408-3.607,6.762-7.259,10.107-10.899
		l9.928-10.974c6.527-7.363,13.08-14.629,19.21-22.187c12.26-15.109,23.041-31.109,31.539-47.974
		c4.256-8.433,7.838-17.146,10.583-26.133c2.717-8.992,4.595-18.257,5.498-27.712c0.919-9.455,0.865-19.079,0.065-28.771
		c-0.845-9.689-2.516-19.41-4.6-29.191l1.502-0.55c4.735,8.902,8.493,18.398,11.152,28.296c2.719,9.885,4.256,20.201,4.517,30.632
		c0.271,10.431-0.784,20.966-3.086,31.224c-2.285,10.264-5.807,20.237-10.267,29.683c-4.487,9.44-9.888,18.363-15.943,26.705
		c-6.028,8.366-12.647,16.197-19.527,23.69c-6.894,7.482-14.021,14.678-21.568,21.373l-5.674,4.99l-5.788,4.841
		c-3.869,3.208-7.805,6.324-11.741,9.425c-7.861,6.214-15.783,12.3-23.475,18.631c-7.704,6.316-15.29,12.752-22.615,19.479
		c-14.705,13.395-27.903,28.451-41.319,42.863c-6.707,7.217-13.494,14.272-20.215,21.357c-6.67,7.132-13.182,14.373-19.39,21.856
		c-6.206,7.486-12.115,15.206-17.629,23.262c-5.525,8.057-10.57,16.468-15.308,25.302L255.687,509.369z"/>
</g>
<g display="none">
	<path display="inline" fill="#231F20" d="M108.069,86.973c5.143-6.671,11.269-12.622,18.095-17.766
		c6.84-5.117,14.458-9.371,22.633-12.313c4.083-1.471,8.289-2.646,12.573-3.431c4.287-0.761,8.645-1.129,12.983-1.067
		c8.698,0.078,17.206,1.861,25.328,4.239c4.067,1.207,8.064,2.557,12.002,4.043c3.939,1.478,7.851,3.027,11.664,4.802
		c7.667,3.45,15.185,7.313,22.418,11.737c7.242,4.407,14.125,9.458,20.45,15.162c6.311,5.728,12.288,11.824,17.579,18.78
		l-7.834,0.375c1.323-2.27,2.759-4.21,4.248-6.093c1.488-1.875,3.043-3.645,4.646-5.354c3.204-3.415,6.563-6.615,10.055-9.653
		c6.993-6.056,14.462-11.502,22.338-16.31c7.866-4.816,16.154-8.97,24.772-12.342c8.63-3.335,17.602-5.878,26.783-7.339
		c9.18-1.438,18.567-1.725,27.813-0.715c9.244,1.027,18.308,3.444,26.801,7.05c8.478,3.658,16.39,8.455,23.509,14.145
		c7.15,5.655,13.529,12.163,19.224,19.144l-0.666,0.605c-6.379-6.292-13.231-12.049-20.575-16.992
		c-7.358-4.911-15.201-9.023-23.447-11.905c-16.454-5.926-34.304-6.804-51.268-3.399c-8.504,1.638-16.819,4.285-24.823,7.681
		c-8.02,3.369-15.732,7.492-23.118,12.133c-7.369,4.665-14.427,9.856-21.001,15.554c-3.285,2.846-6.464,5.809-9.421,8.921
		c-1.474,1.558-2.903,3.143-4.24,4.755c-1.327,1.607-2.584,3.272-3.55,4.866l-3.755,6.2l-4.079-5.824
		c-4.535-6.475-9.881-12.656-15.575-18.43c-5.713-5.773-11.684-11.351-18.021-16.551c-6.347-5.177-13.153-9.888-20.501-13.602
		c-3.694-1.804-7.462-3.477-11.354-4.798c-3.894-1.312-7.881-2.336-11.917-3.008c-8.075-1.388-16.259-1.354-24.188-0.592
		c-3.971,0.396-7.899,0.969-11.787,1.741c-3.891,0.748-7.747,1.7-11.537,2.908c-7.583,2.408-14.933,5.71-22.001,9.704
		c-7.096,3.968-13.854,8.661-20.63,13.585L108.069,86.973z"/>
</g>
<g display="none">
	<path display="inline" fill="#231F20" d="M329.198,558.041c-6.792-21.498-18.792-40.429-32.333-58.02
		c-6.777-8.813-13.993-17.309-21.417-25.643c-7.458-8.306-15.073-16.498-22.679-24.738c-15.219-16.469-30.468-33.114-46.644-48.796
		c-16.167-15.697-32.946-30.741-49.635-45.981c-4.165-3.818-8.303-7.671-12.41-11.564l-6.13-5.877l-6.021-5.998
		c-7.978-8.054-15.655-16.432-23.03-25.107c-7.385-8.667-14.435-17.669-20.958-27.104c-6.546-9.415-12.446-19.354-17.424-29.809
		c-4.94-10.462-8.955-21.465-11.438-32.876c-1.243-5.701-2.133-11.487-2.615-17.31c-0.444-5.826-0.463-11.684-0.044-17.499
		c0.396-5.817,1.305-11.585,2.618-17.231c1.293-5.652,3.045-11.176,5.171-16.523c4.238-10.703,9.963-20.686,16.733-29.768
		l0.846,0.534c-5.26,9.957-9.684,20.263-12.739,30.888c-1.517,5.313-2.682,10.699-3.504,16.111
		c-0.814,5.417-1.188,10.872-1.255,16.31c-0.057,5.441,0.334,10.872,1.047,16.249c0.694,5.381,1.766,10.713,3.164,15.963
		c2.814,10.499,6.81,20.688,11.64,30.519c9.678,19.667,22.216,38.088,36.061,55.543c6.932,8.729,14.219,17.209,21.6,25.638
		c7.408,8.404,14.869,16.807,22.546,25.026c15.291,16.509,31.383,32.294,47.991,47.52c16.591,15.246,34.08,29.581,50.391,45.309
		c8.15,7.863,15.985,16.081,23.401,24.7c7.443,8.591,14.535,17.531,21.028,26.929c3.26,4.688,6.313,9.528,9.2,14.468
		c1.438,2.474,2.844,4.966,4.17,7.504c1.313,2.545,2.571,5.117,3.762,7.723c4.766,10.394,8.403,21.413,9.882,32.688L329.198,558.041
		z"/>
</g>
<g id="hand">
	<path fill="#010101" d="M224.697,133.382c-3.071-13.049-19.278-5.939-27.53-3.202c-7.524,2.495-15.458,2.612-23.323,2.479
		c-5.065-0.087-10.119-0.343-15.186-0.224c-5.263,0.123-10.368,0.991-15.5,2.105c-3.515,0.762,0.87,7.682,3.574,7.608
		c2.516-0.068,3.702-1,5.114-2.921c0.943-1.284-1.188-4.349-2.539-4.513c-0.779-0.095-1.861-0.539-2.637-0.417
		c-1.191,0.188-2.306,0.305-3.513,0.241c1.383,2.473,2.767,4.945,4.149,7.417c8.286-3.294,17.805-2.873,26.564-2.855
		c7.533,0.015,15.11-0.284,22.384-2.452c4.879-1.455,9.486-3.694,14.38-5.124c3.753-1.097,11.027-2.819,13.179,1.759
		C224.022,133.732,224.904,134.26,224.697,133.382L224.697,133.382z"/>
	<path fill="#010101" d="M223.179,130.579c1.534,7.053-6.632,12.002-11.8,14.599c-6.392,3.211-13.391,5.151-19.689,8.541
		c-2.419,1.301,1.487,6.255,3.129,6.618c2.137,0.474,3.64-0.426,4.355-2.517c0.592-1.729-0.942-4.269-2.677-4.76
		c-1.673-0.472-2.689,0.05-4.29,0.486c1.248,2.229,2.494,4.458,3.742,6.687c5.51-5.232,13.629-7.341,20.048-11.262
		c3.043-1.858,6.33-4.457,8.02-7.669c1.804-3.429,1.152-6.945,0.062-10.47C223.931,130.355,222.981,129.667,223.179,130.579
		L223.179,130.579z"/>
	<path fill="#010101" d="M194.544,156.352c-1.183,10.659,11.543,16.494,19.001,21.057c7.097,4.342,13.525,10.47,19.514,16.184
		c2.986,2.85,6.336,5.993,8.294,9.675c0.423,0.797,0.497,1.115,0.158,1.911c-0.346,0.808-1.076,1.278-1.967,1.468
		c-2.867,0.611-6.119-0.739-8.739-1.727c-4.099-1.548-8-3.647-11.823-5.774c-5.355-2.978-10.572-6.219-15.677-9.606
		c-3.441-2.284-6.57-5.023-10.076-7.194c-1.011-0.626-2.732-0.602-2.789,0.961c-0.49,13.504,9.666,23.919,18.984,32.356
		c5.077,4.597,10.409,8.903,15.378,13.62c3.881,3.684,8.036,7.979,9.873,13.118c0.309-0.937,0.62-1.875,0.929-2.81
		c-6.347,0.424-12.74,0.477-18.889-1.351c-5.49-1.63-10.183-5.076-14.549-8.664c-4.256-3.498-8.435-7.06-12.732-10.509
		c-1.998-1.601-3.976-3.229-5.901-4.913c-0.67-0.584-1.246-1.192-1.835-1.858c-0.269-0.302-0.539-0.602-0.811-0.902
		c-0.359-0.432-0.302-0.343,0.169,0.261c0.714,1.102,0.947,2.354,0.705,3.755c0.749-1.97-0.464-4.248-1.749-5.715
		c-0.638-0.731-3.484-3.1-4.238-1.122c-1.921,5.04,5.116,9.854,8.325,12.545c4.82,4.042,9.908,7.731,14.67,11.845
		c5.524,4.773,11.384,9.222,18.265,11.827c6.934,2.628,14.623,2.494,21.894,1.874c1.325-0.113,1.259-1.918,0.929-2.809
		c-4.539-12.272-15.103-20.809-24.694-29.124c-7.557-6.549-18.881-14.92-18.364-26.054c-0.93,0.319-1.859,0.64-2.789,0.96
		c5.642,3.563,11.468,6.925,17.179,10.402c7.547,4.596,15.481,9.331,23.98,11.932c2.725,0.836,5.705,1.422,8.462,0.479
		c2.684-0.917,3.115-4.093,2.481-6.45c-1.029-3.825-4.01-7.263-6.606-10.12c-3.406-3.746-7.135-7.189-10.95-10.511
		c-4.57-3.979-9.269-8.156-14.412-11.389c-6.464-4.062-16.739-7.603-17.758-16.325C196.319,157.085,194.687,155.075,194.544,156.352
		L194.544,156.352z"/>
	<path fill="#010101" d="M177.15,210.696c-3.205,1.089-1.804,5.551-1.124,7.899c1.516,5.223,4.102,10.173,6.615,14.967
		c2.845,5.43,5.899,10.75,8.847,16.124c1.856,3.386,4.533,7.917,5.343,10.834c0.454-0.8,0.909-1.598,1.364-2.396
		c-9.044-1.369-14.534-7.493-19.635-14.574c-5.485-7.615-10.704-15.716-18.857-20.751c-0.933-0.576-2.351-0.511-2.459,0.847
		c-1.064,13.372,7.783,24.918,10.84,37.438c0.327-0.995,0.657-1.986,0.984-2.976c-7.625,0.999-13.227-6.497-17.073-12.002
		c-5.472-7.832-9.705-16.441-14.181-24.854c-5.026-9.448-11.584-17.964-15.616-27.937c-1.593-3.94-2.279-7.821-2.862-11.997
		c-0.375-2.685-1.161-5.654-1.152-8.365c-0.077,0.525-0.15,1.051-0.224,1.577c0.003-0.008,0.007-0.015,0.011-0.023
		c-1.407-0.373-2.816-0.746-4.224-1.118c-2.193-2.566-1.944-3.905-1.413-2.122c0.518,1.738,1.726,3.503,3.322,4.415
		c1.527,0.873,3.086,0.09,2.752-1.8c-0.259-1.475-0.55-2.814-1.43-4.083c-0.926-1.334-3.38-4.082-4.974-2.107
		c-0.615,0.764-0.257,2.665-0.107,3.568c0.324,1.966,0.66,3.928,1.009,5.889c0.843,4.768,1.546,9.27,3.23,13.852
		c4.212,11.459,11.917,21.376,17.397,31.676c5.166,9.708,10.105,19.657,16.725,28.484c5.089,6.792,12.826,15.702,22.33,14.433
		c1.469-0.197,1.235-1.954,0.983-2.978c-1.422-5.785-3.997-11.26-6.253-16.751c-2.233-5.43-4.861-11.491-4.468-17.488
		c-0.821,0.281-1.638,0.565-2.459,0.848c7.788,4.681,12.455,13.477,17.856,20.493c5.583,7.254,12.735,13.923,22.301,14.523
		c1.198,0.076,1.033-1.81,0.813-2.456c-1.309-3.827-3.437-7.346-5.441-10.838c-2.774-4.828-5.667-9.592-8.384-14.457
		c-2.65-4.743-5.241-9.558-7.276-14.602c-0.916-2.273-2.573-6.486-1.383-8.919C179.292,212.123,178.121,210.367,177.15,210.696
		L177.15,210.696z"/>
	<path fill="#010101" d="M72.209,135.029c9.135,7.512,18.704,14.38,28.164,21.469c4.786,3.586,9.466,7.333,13.86,11.396
		c2.063,1.907,4.019,3.927,5.88,6.032c1.695,1.917,3.254,4.364,5.295,5.907c0.341,0.257,0.835,0.313,0.772-0.266l0,0
		c-0.23-2.143-1.693-4.195-2.837-5.967c-1.669-2.583-3.667-4.954-5.716-7.241c-4.204-4.696-9.034-8.853-13.9-12.838
		c-9.777-8.007-20.926-14.833-29.86-23.815c-0.015,2.082-0.031,4.163-0.046,6.245c2.195,0.436,4.463-0.599,3.682-3.232"/>
	<path fill="#010101" d="M217.624,130.776c-0.118-0.488,0.008,0.424,0.017,0.516c0.021,0.21,0.012,0.364,0.004,0.548
		c-0.017,0.387-0.196,0.736-0.467,1.107c-0.43,0.592-1.494,0.676-2.285,0.62c-0.016-0.001-1.177-0.377-0.93-0.26
		c-0.122-0.058-0.841-0.553-0.325-0.167c-0.109-0.085-0.215-0.174-0.319-0.269c0.797,0.698-0.368-0.552,0.397,0.474
		c-0.203-0.31-0.164-0.225,0.115,0.256c-0.148-0.32-0.13-0.248,0.056,0.215c-0.293-0.779-0.012,0.206-0.07-0.305
		c-0.141-1.229-0.2-2.355-0.791-3.498c-0.513-0.992-1.755-2.927-3.148-2.702c-0.051,0.009-0.103,0.017-0.152,0.024
		c-0.361,0.035-0.63,0.21-0.806,0.528c-0.95,2.748,0.606,6.02,2.487,8.05c1.433,1.546,3.298,2.569,5.436,2.56
		c1.435-0.007,2.915-0.782,3.522-2.116c0.942-2.067-0.356-4.398-1.643-5.951C218.188,129.762,217.394,129.825,217.624,130.776
		L217.624,130.776z"/>
	<path fill="#010101" d="M238.579,208.09c2.692,0.989,2.566-2.177,1.886-3.888c-0.825-2.072-2.752-4-4.778-4.908
		c-1.811-0.812-3.914-1.093-5.305,0.594c-0.715,0.869-0.909,2.171-0.96,3.262c-0.119,2.51,0.422,4.961,1.955,6.984
		c0.522,0.689,1.741,1.533,2.438,0.645c0.728-0.926,0.022-3.12-0.041-4.323c-0.038-0.73-0.027,0.396-0.001-0.283
		c0.01-0.255,0.042-0.509,0.079-0.761c0.012-0.083,0.188-0.767,0.05-0.336c0.059-0.185,0.142-0.358,0.223-0.533
		c0.082-0.174,0.553-0.785,0.288-0.513c0.207-0.212,0.466-0.365,0.735-0.483c-0.352,0.154,0.296-0.046,0.476-0.06
		c0.15-0.011,0.3-0.004,0.449,0.005c-0.453-0.029,0.061,0.041,0.165,0.068c0.12,0.031,0.236,0.073,0.354,0.114
		c0.307,0.108-0.358-0.182,0.13,0.056c0.155,0.077,0.305,0.164,0.454,0.253c0.519,0.313-0.224-0.183,0.083,0.048
		c0.105,0.078,0.205,0.165,0.306,0.25c0.493,0.42-0.257-0.283,0.029,0.019c0.136,0.143,0.53,0.662,0.006-0.036
		c0.1,0.134,0.189,0.276,0.275,0.42c-0.632-1.055,0.262,0.862-0.083-0.124c0.178,0.507-0.014-0.23,0.035,0.097
		c0.065,0.433,0.035-0.067,0.017,0.189c-0.055,0.804,0.033,1.42,0.102,2.402C237.968,207.593,238.255,207.97,238.579,208.09z"/>
	<path fill="#010101" d="M227.103,238.512c0.979-0.668,2.052-1.248,2.194-2.556c0.193-1.759-1.234-3.488-2.567-4.427
		c-0.629-0.447-1.36-0.735-2.101-0.94c-1.013-0.284-2.043-0.615-2.787,0.314c-0.639,0.797-1.042,1.719-1.202,2.729
		c-0.211,1.35,0.371,2.779,0.83,3.761c0.376,0.807,2.526,3.276,3.036,1.301c0.019-0.075,0.039-0.147,0.057-0.221
		c-0.123,0.22-0.245,0.441-0.367,0.663c0.608-0.451,0.575-1.269,0.639-1.962c0.083-0.923,0.447-1.604,0.857-2.417
		c-0.211,0.139-0.423,0.278-0.635,0.413c0.481-0.111,1.033-0.257,1.531-0.198c0.197,0.023,0.388,0.076,0.577,0.132
		c-0.107-0.063-0.075-0.048,0.096,0.046c-0.095-0.063-0.177-0.136-0.249-0.224c-0.067-0.07-0.445-0.917-0.318-0.457
		c0.056,0.205,0.054,0.405,0.059,0.627c0.017,0.781-0.148,1.64-0.45,2.363C226.169,237.789,226.682,238.8,227.103,238.512
		L227.103,238.512z"/>
	<path fill="#010101" d="M192.512,254.166c0.536-0.537,0.831-0.716,0.833-1.578c0.004-0.872-0.216-1.648-0.548-2.45
		c-0.612-1.482-2.125-3.111-3.854-3.016c-1.25,0.069-2.105,1.218-2.688,2.189c-0.901,1.508-1.18,3.429-1.154,5.151
		c0.016,1.034,0.331,2.232,0.773,3.172c0.431,0.913,2.582,3.337,3.034,0.826c0.024-0.139,0.254-0.767,0.304-1.088
		c0.063-0.406,0.141-0.815,0.212-1.223c0.126-0.727,0.333-1.268,0.596-1.96c0.227-0.597,0.518-1.164,0.897-1.679
		c0.061-0.081,0.539-0.591,0.304-0.358c0.098-0.097,0.595-0.351,0.207-0.226c0.293-0.095-0.011-0.038-0.214-0.146
		c-0.201-0.117-0.38-0.26-0.535-0.432c-0.018-0.021-0.532-0.872-0.266-0.335c0.417,0.839,0.857,1.704,1.282,2.57
		C191.774,253.74,192.246,254.432,192.512,254.166L192.512,254.166z"/>
	<path fill="#010101" d="M166.902,254.92c-1.208-2.196-2.56-4.163-4.99-5.087c-2.17-0.824-4.179,1.526-4.253,3.513
		c-0.055,1.463,0.191,3.197,1.4,4.217c1.4,1.18,2.467-0.506,3.075-1.544c0.801-1.367,2.131-2.079,3.141-0.559
		c0.282,0.425,0.808,1.043,1.39,0.993C167.379,256.391,167.112,255.296,166.902,254.92L166.902,254.92z"/>
	<path fill="#010101" d="M116.947,117.529c4.897,5.843,10.302,11.292,16.647,15.559c5.381,3.62,13.402,7.291,20.01,5.507
		c1.956-0.528-0.482-3.795-1.582-4.122l0,0c-6.996-2.083-13.458-3.782-19.454-8.186c-5.8-4.26-10.583-9.677-15.065-15.263
		c-9.224-11.494-5.244-9.238-16.553-18.893c-2.188-0.494-2.76,1.417-1.344,4.248"/>
</g>
<g id="hand_1_">
	<path fill="#010101" d="M298.981,324.849c4.195,13.116,20.223,4.529,28.453,1.062c7.506-3.162,15.624-3.921,23.689-4.416
		c5.194-0.319,10.392-0.466,15.57-0.994c5.382-0.552,10.541-1.85,15.707-3.406c3.538-1.063-1.511-7.797-4.275-7.504
		c-2.57,0.271-3.71,1.322-5.002,3.403c-0.861,1.39,1.568,4.359,2.965,4.416c0.807,0.035,1.95,0.403,2.735,0.217
		c1.204-0.288,2.337-0.498,3.578-0.53c-1.616-2.422-3.233-4.843-4.848-7.263c-8.221,4.04-18.005,4.378-26.977,5.064
		c-7.716,0.591-15.453,1.508-22.729,4.313c-4.88,1.884-9.419,4.548-14.317,6.407c-3.754,1.426-11.066,3.775-13.636-0.741
		C299.644,324.436,298.698,323.967,298.981,324.849L298.981,324.849z"/>
	<path fill="#010101" d="M300.761,327.597c-2.14-7.1,5.824-12.826,10.91-15.903c6.287-3.804,13.3-6.355,19.476-10.333
		c2.374-1.528-2.025-6.287-3.736-6.525c-2.227-0.313-3.694,0.729-4.259,2.929c-0.468,1.818,1.309,4.297,3.127,4.66
		c1.751,0.348,2.75-0.27,4.354-0.845c-1.458-2.182-2.915-4.365-4.371-6.546c-5.224,5.801-13.369,8.615-19.627,13.147
		c-2.966,2.149-6.124,5.075-7.596,8.501c-1.571,3.658-0.622,7.207,0.779,10.729C300.009,327.888,301.037,328.514,300.761,327.597
		L300.761,327.597z"/>
	<path fill="#010101" d="M328.011,298.894c0.354-11.013-13.151-15.963-21.155-20.036c-7.619-3.876-14.695-9.635-21.29-15.004
		c-3.288-2.678-6.974-5.628-9.274-9.241c-0.498-0.782-0.598-1.103-0.314-1.944c0.287-0.854,0.998-1.396,1.895-1.662
		c2.889-0.857,6.33,0.263,9.09,1.063c4.322,1.257,8.487,3.093,12.575,4.962c5.725,2.619,11.328,5.518,16.828,8.577
		c3.71,2.061,7.135,4.615,10.901,6.556c1.085,0.56,2.847,0.396,2.778-1.209c-0.587-13.87-11.827-23.721-22.05-31.61
		c-5.57-4.3-11.379-8.281-16.846-12.71c-4.272-3.462-8.874-7.524-11.17-12.641c-0.242,0.982-0.483,1.97-0.725,2.953
		c6.465-0.946,13.01-1.514,19.454-0.139c5.755,1.228,10.838,4.379,15.601,7.702c4.64,3.241,9.208,6.552,13.887,9.739
		c2.174,1.48,4.331,2.987,6.439,4.557c0.733,0.544,1.371,1.119,2.029,1.753c0.298,0.29,0.6,0.574,0.903,0.861
		c0.402,0.413,0.338,0.327-0.195-0.254c-0.817-1.071-1.159-2.334-1.022-3.789c-0.611,2.078,0.815,4.314,2.252,5.712
		c0.712,0.698,3.817,2.894,4.432,0.807c1.559-5.316-6.035-9.681-9.538-12.177c-5.263-3.752-10.771-7.119-15.979-10.951
		c-6.044-4.443-12.402-8.529-19.661-10.642c-7.314-2.134-15.176-1.376-22.573-0.155c-1.349,0.222-1.136,2.064-0.725,2.952
		c5.636,12.203,17.144,20.093,27.636,27.839c8.269,6.099,20.541,13.76,20.908,25.205c0.926-0.403,1.853-0.807,2.779-1.209
		c-6.065-3.194-12.305-6.168-18.433-9.271c-8.101-4.099-16.609-8.31-25.522-10.288c-2.859-0.637-5.958-0.998-8.705,0.19
		c-2.676,1.155-2.862,4.443-2.021,6.806c1.361,3.834,4.691,7.117,7.581,9.831c3.79,3.563,7.885,6.79,12.063,9.885
		c5.001,3.707,10.149,7.607,15.678,10.504c6.946,3.642,17.755,6.439,19.503,15.29C326.136,298.286,327.97,300.211,328.011,298.894
		L328.011,298.894z"/>
	<path fill="#010101" d="M341.45,241.833c3.195-1.375,1.4-5.83,0.515-8.182c-1.975-5.229-5.021-10.089-7.982-14.797
		c-3.351-5.333-6.906-10.536-10.358-15.801c-2.175-3.319-5.281-7.744-6.345-10.666c-0.401,0.854-0.802,1.708-1.206,2.562
		c9.374,0.674,15.491,6.504,21.285,13.347c6.231,7.358,12.228,15.233,20.984,19.734c1.003,0.515,2.451,0.333,2.45-1.065
		c0.015-13.784-9.977-24.895-14.117-37.471c-0.254,1.043-0.513,2.086-0.768,3.126c7.729-1.635,14.07,5.589,18.452,10.92
		c6.236,7.577,11.266,16.054,16.526,24.31c5.909,9.272,13.311,17.468,18.244,27.355c1.95,3.908,2.965,7.827,3.899,12.056
		c0.6,2.721,1.646,5.698,1.854,8.475c0.033-0.543,0.068-1.088,0.101-1.633c-0.003,0.008-0.006,0.017-0.01,0.025
		c1.472,0.268,2.945,0.536,4.417,0.804c2.452,2.452,2.306,3.844,1.618,2.059c-0.671-1.738-2.049-3.448-3.759-4.252
		c-1.636-0.772-3.168,0.156-2.676,2.064c0.388,1.491,0.793,2.838,1.795,4.067c1.056,1.292,3.791,3.908,5.264,1.757
		c0.569-0.832,0.049-2.75-0.176-3.663c-0.491-1.987-0.993-3.97-1.51-5.952c-1.247-4.816-2.329-9.369-4.424-13.926
		c-5.236-11.397-13.928-20.933-20.37-31.04c-6.071-9.526-11.934-19.319-19.423-27.827c-5.76-6.546-14.402-15.05-24.033-12.986
		c-1.488,0.323-1.107,2.103-0.767,3.13c1.923,5.81,5.001,11.21,7.755,16.653c2.725,5.382,5.901,11.377,5.983,17.551
		c0.817-0.354,1.632-0.712,2.451-1.065c-8.355-4.167-13.843-12.803-19.94-19.553c-6.304-6.979-14.164-13.232-24.012-13.078
		c-1.231,0.021-0.912,1.937-0.633,2.582c1.648,3.814,4.111,7.247,6.444,10.66c3.23,4.724,6.577,9.37,9.752,14.133
		c3.096,4.644,6.139,9.367,8.63,14.371c1.121,2.254,3.157,6.435,2.135,9.022C339.142,240.543,340.482,242.249,341.45,241.833
		L341.45,241.833z"/>
	<path fill="#010101" d="M455.027,310.879c-9.961-6.958-20.315-13.222-30.575-19.72c-5.189-3.288-10.287-6.75-15.114-10.555
		c-2.266-1.787-4.432-3.7-6.508-5.706c-1.892-1.825-3.684-4.207-5.898-5.623c-0.369-0.236-0.88-0.254-0.771,0.334l0,0
		c0.408,2.176,2.072,4.161,3.388,5.883c1.918,2.511,4.153,4.778,6.438,6.957c4.684,4.47,9.964,8.339,15.27,12.028
		c10.659,7.413,22.629,13.507,32.502,21.986c-0.152-2.132-0.304-4.266-0.455-6.398c-2.283-0.27-4.524,0.973-3.512,3.605"/>
	<path fill="#010101" d="M306.434,326.948c0.16,0.49-0.041-0.434-0.06-0.527c-0.037-0.213-0.04-0.372-0.047-0.559
		c-0.014-0.399,0.142-0.771,0.39-1.172c0.392-0.643,1.476-0.813,2.288-0.819c0.017-0.001,1.236,0.29,0.975,0.19
		c0.13,0.051,0.906,0.498,0.346,0.146c0.12,0.079,0.235,0.162,0.348,0.251c-0.871-0.653,0.423,0.535-0.444-0.453
		c0.232,0.3,0.186,0.218-0.137-0.253c0.176,0.315,0.151,0.243-0.076-0.216c0.364,0.774-0.002-0.212,0.097,0.308
		c0.243,1.245,0.396,2.395,1.093,3.519c0.604,0.975,2.031,2.854,3.443,2.513c0.05-0.013,0.103-0.025,0.154-0.038
		c0.366-0.064,0.627-0.266,0.781-0.605c0.751-2.891-1.104-6.116-3.194-8.044c-1.592-1.467-3.585-2.365-5.774-2.183
		c-1.471,0.122-2.922,1.035-3.435,2.451c-0.802,2.191,0.717,4.475,2.159,5.962C305.939,328.031,306.746,327.903,306.434,326.948
		L306.434,326.948z"/>
	<path fill="#010101" d="M278.744,249.449c-2.837-0.794-2.454,2.438-1.62,4.135c1.012,2.056,3.144,3.875,5.291,4.641
		c1.919,0.686,4.095,0.805,5.387-1.036c0.661-0.947,0.755-2.298,0.719-3.417c-0.079-2.581-0.832-5.048-2.564-6.996
		c-0.589-0.666-1.907-1.43-2.55-0.465c-0.671,1.008,0.229,3.198,0.39,4.425c0.098,0.744-0.004-0.409,0.024,0.288
		c0.012,0.264-0.002,0.525-0.019,0.788c-0.005,0.086-0.13,0.799-0.023,0.347c-0.046,0.194-0.116,0.379-0.187,0.563
		c-0.07,0.185-0.501,0.849-0.252,0.549c-0.198,0.236-0.449,0.411-0.717,0.554c0.349-0.186-0.299,0.071-0.481,0.1
		c-0.154,0.023-0.307,0.029-0.462,0.03c0.468-0.007-0.064-0.037-0.173-0.056c-0.125-0.022-0.247-0.055-0.372-0.087
		c-0.323-0.086,0.382,0.157-0.138-0.047c-0.166-0.066-0.327-0.143-0.486-0.223c-0.558-0.277,0.245,0.169-0.088-0.042
		c-0.114-0.072-0.224-0.152-0.334-0.231c-0.538-0.39,0.286,0.268-0.028-0.016c-0.154-0.137-0.598-0.635-0.006,0.037
		c-0.113-0.13-0.217-0.269-0.315-0.407c0.734,1.027-0.338-0.863,0.097,0.119c-0.223-0.506,0.033,0.233-0.045-0.097
		c-0.101-0.438-0.029,0.072-0.031-0.193c-0.008-0.827-0.148-1.451-0.298-2.451C279.409,249.909,279.086,249.548,278.744,249.449z"/>
	<path fill="#010101" d="M288.047,217.367c-0.949,0.764-2.002,1.443-2.041,2.793c-0.055,1.817,1.545,3.476,2.986,4.328
		c0.681,0.408,1.451,0.644,2.226,0.794c1.061,0.21,2.143,0.466,2.829-0.547c0.591-0.866,0.93-1.842,1.011-2.891
		c0.109-1.399-0.605-2.817-1.151-3.786c-0.451-0.795-2.853-3.151-3.215-1.089c-0.015,0.079-0.027,0.155-0.041,0.233
		c0.109-0.237,0.216-0.473,0.325-0.708c-0.588,0.509-0.489,1.343-0.498,2.058c-0.012,0.953-0.331,1.681-0.685,2.546
		c0.205-0.16,0.411-0.318,0.615-0.475c-0.48,0.151-1.037,0.346-1.552,0.326c-0.203-0.008-0.402-0.046-0.601-0.087
		c0.115,0.054,0.08,0.04-0.102-0.042c0.103,0.059,0.19,0.126,0.272,0.212c0.074,0.063,0.529,0.901,0.364,0.44
		c-0.074-0.207-0.09-0.411-0.112-0.637c-0.08-0.798,0.02-1.692,0.271-2.457C289.062,218.032,288.454,217.037,288.047,217.367
		L288.047,217.367z"/>
	<path fill="#010101" d="M322.214,198.549c-0.507,0.592-0.793,0.799-0.726,1.684c0.067,0.892,0.355,1.668,0.758,2.465
		c0.749,1.467,2.428,3.016,4.191,2.779c1.274-0.172,2.057-1.418,2.576-2.46c0.801-1.616,0.932-3.607,0.768-5.368
		c-0.101-1.06-0.52-2.259-1.049-3.188c-0.515-0.899-2.913-3.21-3.174-0.601c-0.014,0.145-0.2,0.807-0.224,1.139
		c-0.032,0.421-0.078,0.848-0.119,1.271c-0.069,0.753-0.238,1.324-0.452,2.055c-0.186,0.631-0.437,1.233-0.782,1.792
		c-0.057,0.087-0.507,0.648-0.283,0.392c-0.094,0.108-0.582,0.407-0.193,0.247c-0.293,0.122,0.013,0.039,0.23,0.132
		c0.216,0.104,0.41,0.237,0.582,0.4c0.021,0.018,0.616,0.85,0.301,0.322c-0.496-0.829-1.017-1.677-1.521-2.531
		C323.005,198.923,322.467,198.254,322.214,198.549L322.214,198.549z"/>
	<path fill="#010101" d="M348.386,195.715c1.413,2.149,2.956,4.057,5.52,4.806c2.288,0.669,4.154-1.897,4.07-3.941
		c-0.06-1.503-0.453-3.257-1.772-4.206c-1.527-1.093-2.486,0.718-3.025,1.829c-0.708,1.465-2.014,2.302-3.171,0.825
		c-0.323-0.409-0.911-1.001-1.503-0.902C347.777,194.245,348.14,195.344,348.386,195.715L348.386,195.715z"/>
	<path fill="#010101" d="M410.615,332.406c-5.484-5.591-11.46-10.735-18.302-14.594c-5.806-3.275-14.314-6.388-20.94-4.029
		c-1.96,0.699,0.801,3.848,1.955,4.095l0,0c7.33,1.57,14.086,2.789,20.582,6.815c6.283,3.897,11.619,9.061,16.658,14.42
		c10.373,11.029,6.115,9.039,18.477,18.017c2.281,0.328,2.713-1.674,1.036-4.46"/>
</g>
<g>
	<path fill="#231F20" d="M333.563,554.143c-2.128-7.79-5.075-15.279-8.6-22.481c-3.505-7.211-7.612-14.109-12.054-20.777
		c-8.849-13.374-19.191-25.712-29.954-37.646c-10.818-11.902-22.273-23.252-33.902-34.446
		c-11.644-11.186-23.554-22.133-35.475-33.112c-23.875-21.921-47.946-43.837-70.797-67.276
		c-11.409-11.729-22.522-23.835-32.921-36.645c-5.195-6.406-10.188-13.003-14.96-19.786c-4.73-6.812-9.235-13.814-13.349-21.079
		c-8.229-14.506-14.947-30.114-18.868-46.598c-3.937-16.45-4.692-33.816-1.692-50.465c2.942-16.679,9.527-32.4,18.121-46.563
		c1.075-1.774,2.189-3.522,3.325-5.252l0.106-0.163l0.208-0.305l0.227-0.306l0.453-0.611l0.929-1.239l1.881-2.456
		c2.536-3.249,5.146-6.442,7.853-9.555c5.432-6.208,11.257-12.098,17.57-17.452c6.327-5.328,13.097-10.189,20.409-14.146
		c7.277-4.004,15.067-7.14,23.156-9.157c8.081-2.058,16.455-2.923,24.783-2.724c8.333,0.209,16.608,1.539,24.631,3.686
		c8.025,2.165,15.787,5.204,23.213,8.869c7.438,3.647,14.581,7.875,21.372,12.603c6.787,4.735,13.26,9.915,19.393,15.501
		c6.114,5.62,11.902,11.582,17.095,18.342l-7.478,0.358c1.409-2.486,2.956-4.625,4.563-6.707c1.611-2.07,3.29-4.041,5.019-5.952
		c3.459-3.819,7.111-7.404,10.908-10.824c7.599-6.83,15.774-13.001,24.463-18.455c8.7-5.43,17.954-10.079,27.689-13.714
		c9.725-3.648,20-6.134,30.532-7.127c10.521-0.994,21.315-0.446,31.748,1.932c10.44,2.341,20.465,6.437,29.613,11.819
		c9.163,5.38,17.464,12.001,24.921,19.313c7.468,7.315,14.079,15.35,20.055,23.735l0.201,0.283l0.235,0.413
		c5.133,9.014,9.649,18.445,13.342,28.247c3.705,9.793,6.553,19.974,8.328,30.375c3.655,20.795,2.842,42.394-1.906,62.843
		c-2.37,10.232-5.643,20.2-9.618,29.814c-4.005,9.605-8.703,18.855-13.893,27.759c-5.174,8.917-10.907,17.446-16.973,25.678
		c-6.066,8.232-12.481,16.159-19.142,23.834c-13.292,15.383-27.724,29.597-42.532,43.254c-3.708,3.41-7.446,6.781-11.209,10.119
		c-3.776,3.322-7.583,6.604-11.405,9.861c-7.646,6.514-15.368,12.914-23.121,19.255c-7.752,6.341-15.594,12.554-23.377,18.812
		l-11.651,9.397c-3.878,3.134-7.751,6.269-11.579,9.448c-7.649,6.364-15.192,12.841-22.294,19.728
		c-3.537,3.454-6.931,7.045-10.025,10.856c-3.053,3.818-5.875,7.908-7.426,12.492l-1.543-0.422c0.576-2.528,1.541-4.939,2.696-7.226
		c1.153-2.291,2.484-4.476,3.904-6.589c2.838-4.232,6.069-8.147,9.389-11.957c6.662-7.605,13.854-14.658,21.121-21.584
		c7.266-6.932,14.682-13.67,22.113-20.365l22.249-20.072c29.573-26.72,58.522-54.075,83.486-84.472
		c12.475-15.167,23.792-31.188,33.241-48.083c4.718-8.448,8.918-17.138,12.445-26.044c3.566-8.888,6.444-18.004,8.486-27.263
		c2.036-9.258,3.305-18.649,3.584-28.07c0.281-9.416-0.325-18.849-1.865-28.156c-1.561-9.303-3.977-18.488-7.188-27.44
		c-3.212-8.952-7.211-17.667-11.834-26.09l0.437,0.695c-5.391-7.832-11.327-15.224-17.87-21.921
		c-6.549-6.685-13.745-12.641-21.58-17.455c-7.826-4.816-16.293-8.466-25.15-10.643c-8.853-2.179-18.066-2.953-27.283-2.312
		c-18.463,1.299-36.722,7.765-53.32,17.177c-8.329,4.686-16.299,10.119-23.735,16.187c-3.714,3.036-7.297,6.233-10.655,9.602
		c-1.677,1.684-3.297,3.412-4.814,5.181c-1.509,1.763-2.947,3.596-4.066,5.37l-3.68,5.835l-3.798-5.477
		c-4.396-6.338-9.677-12.331-15.254-17.948c-5.595-5.626-11.608-10.867-17.972-15.636c-6.36-4.771-13.046-9.125-20.075-12.828
		c-7.037-3.681-14.387-6.758-21.982-9c-7.587-2.261-15.438-3.61-23.328-3.894c-7.889-0.305-15.805,0.543-23.462,2.441
		c-7.656,1.92-15.028,4.941-21.934,8.81c-6.888,3.903-13.345,8.594-19.264,13.901c-5.938,5.29-11.391,11.134-16.401,17.34
		c-2.515,3.096-4.92,6.284-7.212,9.555l-1.705,2.459l-0.839,1.237l-0.424,0.632l-0.212,0.316c-0.058,0.084,0.116-0.172-0.002,0.012
		l-0.095,0.16c-1.018,1.707-2.013,3.425-2.967,5.163c-3.812,6.953-7.12,14.156-9.64,21.599c-2.533,7.435-4.336,15.076-5.307,22.795
		c-1.999,15.45-0.457,31.127,3.794,46.056c4.194,14.975,11.063,29.186,19.162,42.683c4.064,6.75,8.45,13.338,13.108,19.76
		c4.622,6.448,9.522,12.723,14.566,18.901c10.098,12.354,20.847,24.269,31.954,35.902c22.224,23.274,45.787,45.49,69.055,68.164
		c5.829,5.657,11.637,11.349,17.396,17.102c5.762,5.749,11.509,11.525,17.152,17.415c11.322,11.74,22.325,23.849,32.717,36.511
		c10.41,12.636,20.077,25.982,28.303,40.225c4.081,7.136,7.724,14.536,10.766,22.174c3.018,7.641,5.382,15.567,6.755,23.626
		L333.563,554.143z"/>
</g>
</svg>
