<?xml version="1.0" encoding="utf-8"?>
<!-- Generator: Adobe Illustrator 23.0.1, SVG Export Plug-In . SVG Version: 6.00 Build 0)  -->
<svg version="1.1" id="Layer_4" xmlns="http://www.w3.org/2000/svg" xmlns:xlink="http://www.w3.org/1999/xlink" x="0px" y="0px"
	 viewBox="0 0 566.9 566.9" style="enable-background:new 0 0 566.9 566.9;" xml:space="preserve">
<path d="M471.7,58.6c-3.3-3.6-15.1-13.6-6.7-18.4c1-0.6,3.7-4.1,1.1-4.2c-4.3-0.1-7.3,1.2-9.8,3.5c0.6-2,2-3.6,4.7-4.9
	c1.4-0.7,2.5-1,3.7-2c0.8-0.6,3.9-4.2,1.1-4.2c-6.1,0.1-11.7,2.1-17,4.9c-2.2,1.1-5,2.4-7.1,4.1c-2.2-6.8-3.4-15.3,1.6-20.5
	c1.3-1.4-4-5.5-5.6-4.1c-5.3,4.6-9.4,10.4-14.4,15.3c0.7-8.7-2.7-17.1-9.4-23.2c-1.7-1.5-6.2,1.1-5.8,3.4c1.4,8.3,2.7,17,0.4,25
	c-0.7-1-1.3-2-2.4-2.7c-1.9-1.3-4.3-1.7-6.5-1.6c-4.5,0.3-8.8,2.8-11.5,6.3c-7.3,9.4,0.7,20.5,10.3,23.8c5.7,1.9,11.8,2,17.8,2.6
	c6.8,0.7,13.5,1.8,20,3.5c7.1,1.8,14,4.3,20.7,7.3c5.1,2.3,10.1,6.3,16,5.1c1.4-0.3,3.5-1.2,4-2.7c0.1-0.3,0.2-0.6,0.2-0.9
	c0,0,0-0.1,0-0.1C477.9,67.7,475.8,63,471.7,58.6z M461.9,68c-4.4-2-9-3.8-13.6-5.3c-8.8-2.9-18-4.8-27.2-5.8
	c-8.7-0.9-19.4-0.4-25.8-7.4c-3.7-4.1-6.7-13.4,0.5-15.2c6.2-1.6,6.7,3.9,10.7,6.8c1.5,1.2,4.5-1.3,5.2-2.5
	c3.4-6.2,4.4-12.7,4.2-19.4c1.7,4.4,2.2,9.2,1.3,14.1c-0.5,0.3-0.9,0.6-1.4,0.9c-1.9,1.1,3.2,5.6,5,4.6c5.5-3.2,9.6-7.7,13.6-12.3
	c0.5,4.6,1.9,9.1,3.4,12.8c0.2,0.5,0.8,1.1,1.6,1.6c-0.1,0.2-0.2,0.5-0.3,0.7c-0.6,2.3,1.5,1.9,3.1,0.7c1,0.3,1.7,0.2,1.3-0.7
	c0-0.1-0.1-0.2-0.1-0.3c0.3-0.3,0.5-0.7,0.6-1c0.5-1.8,6.7-3.9,8.3-4.6c1-0.4,2-0.8,3-1.1c-0.4,0.4-0.9,0.9-1.3,1.4
	c-2.6,3.5-3.3,7.3-3.1,11.6c0.1,2.4,4.3-1.1,4.7-1.7c1.2-1.9,2.1-3.3,3.5-4.1c-1.9,3.2-2.4,7-0.6,10.8c3.7,7.8,12.7,11.5,13.6,20.1
	C468.4,72,464.9,69.4,461.9,68z"/>
<path d="M445.7,73c-3.9-3.2-7.8-2.9-12.3-0.7c-2.1,1-3.6,2.1-3.7,4.6c-0.1,2.2,0.9,4.3,2.4,5.8c2.3,2.3,7.1,4.4,10.2,2.5
	c4.2-2.6,4.7-8.3,2.5-12.3c-0.5-0.9-3.5-1.5-2.9-0.2c1.3,2.4,1.6,5.1,0.5,7.6c-1.5,3.5-5.2,5.1-8.1,1.9c-2.2-2.4-2.3-6,0.7-7.7
	c2.8-1.6,5.8-2.9,8.6-0.6C444.6,74.4,447.3,74.3,445.7,73L445.7,73z"/>
<path d="M467.4,108.1c-2-6-4.6-11.8-7.7-17.3c-0.3-0.6-1.3-0.8-2.3-0.8c-0.2-0.2-0.7-0.3-1.6-0.3c-8-0.2-19-0.3-23.8,7.4
	c-2.7,4.4-3.8,10.5-4.8,15.6c-1,5.2-1.7,10.9-0.7,16.2c1.9,9.9,10.1,12.5,19.2,12c6.8-0.3,13.7-3.9,16.3-9.9
	c3.3-0.7,6.3-3.4,7.7-6.6C471.8,119.6,468.8,112.6,467.4,108.1z M441.8,137.7c-6.8-1.6-8.6-8.7-8.7-14.9c-0.1-6.9,1.4-13.7,3.4-20.2
	c0.8-2.7,1.7-5.8,3.8-7.8c3-3,8.4-2.5,12.3-2.4c0.1,0,0.2,0,0.3,0c3.2,5.9,5.9,12,7.9,18.4c1.3,4.2,2.7,8.4,2.1,12.2
	c-1-1.3-7.1-0.3-6.9,1.4C457.3,133,450.2,139.7,441.8,137.7z"/>
<path d="M382.3,289.4c-30.5,24.2-57.7,52.9-91.3,73.2c-32.1,19.4-71.5,30.2-107.8,16.2c-0.4-0.1-0.8,0.1-1.1,0.7
	c-1.7-1.2-3-2.9-3.3-5.4c-0.6-5.5,3.4-9.8,8.6-10.7c2.7-0.5,6.2-3,2.3-4.9c-2.3-1.1-7-2.5-7.6-5c-0.6-3.1,3.7-3.6,5.7-4.4
	c1.9-0.8,3.8-2.1,1.9-4c-1.2-1.2-3.6-1.3-5.7-1.1c0,0,0,0,0,0c-0.7-0.6-1.3-1.2-1.9-1.9c-0.6-0.6-1.2-1.2-1.7-1.9
	c-1.9-2.6-2.5-5.4-2.1-8.6c1-6.6,5.6-9.6,11.5-11.4c3.5-1.1-1.5-2.9-2.7-3c-3.5-0.2-5.1-8.7-5.1-10.9c0-3.8,1.3-7.5,3.4-10.6
	c4.7-7.1,12.1-12.9,18.6-18.3c13.4-11.1,28.2-20.5,44.3-27.3c3.9-1.7-3.6-3.5-5.6-2.6c-19.7,8.4-37.5,20.3-53.3,34.7
	c-6.6,6-14.6,12.7-15.3,22.3c-0.5,6.1,2.1,11.7,6.9,14.5c-6.5,2.9-11.7,8.1-10.7,16.1c0.5,4.2,3.6,8.6,7.6,11
	c-3.8,1.4-7.5,3.1-7.6,7.7c-0.1,3.4,2.8,5.4,6,6.9c-5.1,2.5-9.3,6.7-9.4,12.9c-0.2,10,11,12.5,18.6,14.6c0.6,0.2,1.2,0.2,1.9,0.2
	c56.9,18.7,111.5-19.5,152.7-55.2c14-12.2,27.8-24.6,42.3-36.2C384.3,295.5,383.7,288.2,382.3,289.4z"/>
<g>
	<path d="M490.9,102.2c0.1-0.6,0-1.2-0.1-1.7c-3.8-11.4-6.2-24.6-18.6-29.5c-2.5-1-3.3,5.9-1.1,6.8c9,3.6,12,11.8,14.7,20.3
		c-3.3-2.6-6.7-5.2-10.5-6.5c-6.2-2-12.7-0.5-19.1-0.8c-1.1-0.1-4.1-0.1-4.8,1c-0.7,1.1,0.2,1.5,1.5,1.6c5.5,0.2,11.7-1.2,17,0.5
		c5.2,1.7,9.9,6.5,14.3,9.8c0.7,0.5,2.1,0.5,3.4,0.2c0,0,0,0.1,0,0.1c1.1,3.3,2.8,1,3.2-1.4C490.9,102.5,491,102.3,490.9,102.2z"/>
	<path d="M458.3,167.6c-3.4-9.7-7.6-19.4-14.9-26.8c-1.5-1.5-4.5-3.9-6.9-3.3c-2.2,0.6-1.6,2.7-0.2,4.1c7.1,7.2,10.7,17.1,13.8,26.5
		c3.4,10.4,5.7,21.2,7.1,32c3,22.3,2.6,44.8,2.3,67.2c0,0.9,0.6,1.8,1.4,2.7c-4.9,17-14.3,32.5-25.3,46.3c-6.7,8.3-14,16-21.4,23.6
		c-5.8,5.8-13.8,16.9-22.9,17.4c-0.4-0.2-0.8-0.2-1.1,0c-0.3,0-0.5,0-0.8-0.1c-1-0.1-1.2,0.9-0.9,2.3c-5.2,7.5-8.7,15.9-13.6,23.6
		c-5.9,9.3-14.5,16.6-20.8,25.7c-5.5,8-9.3,18.4-16.8,24.8c-4.1,3.5-10,5.2-15,2.2c-5.2-3.1-4.5-10.9-3.2-16.2
		c0.4-0.3,0.5-0.9,0.3-1.5c-0.1-3.1-6.6-8.9-7.3-6.5c0,0.2-0.1,0.3-0.1,0.5c-9.5-0.9-18.3,2-24.9,9.2c-3.6,3.9-17.5,24.7-23.2,13.7
		c-4.5-8.6-0.8-20.9-0.8-30.2c0-8.7-2.9-15.8-9.6-21.5c-1.3-1.1-4.9-4-6.7-2.6c-1.8,1.3,0,3.9,1.3,5c8,6.7,5.3,19.2,4.7,28.4
		c-0.7,10.5,0.5,20.6,9.5,27.4c8.3,6.3,17.9,4.8,25.1-2.5c4.1-4.2,6.9-9.6,11.3-13.4c3.5-3.1,7.9-5,12.5-5.6
		c0.2,9.3,4.8,18.2,13.2,23.1c11.7,6.8,21.1-1.1,27.1-11.1c3.7-6.1,7.1-12.2,11.3-18c4.4-6,9.4-11.4,14.4-16.9
		c8.2-9.3,12-21.7,19.5-31.6c0.1-0.1,0.1-0.2,0.1-0.2c8.5-1.4,15.3-10.7,20.9-16.3c7.8-7.8,15.4-15.8,22.4-24.3
		c12.4-15.2,22.6-32.3,27.5-51.3c1,0,1.7-0.4,1.7-1.3c0.4-24.2,0.7-48.6-3.1-72.6C464.4,188.6,462,177.9,458.3,167.6z"/>
	<path d="M273.7,213.2c11.2-0.8,22.8-2.2,32.5-8.1c8.8-5.4,15.4-13.7,20.6-22.4c12.2-20.5,18.5-44.1,32.9-63.4
		c8.7-11.6,19.4-21.8,29.4-32.2c8.5-8.9,18.1-22.6,31.6-23.1c2.4-0.1,2.1-6.9-0.3-6.8c-10.2,0.4-17.6,7.8-24.3,14.8
		c-9.3,9.6-18.6,19.1-27.7,28.9c-8,8.7-15,18-20.6,28.4c-5.7,10.5-10.3,21.6-15.3,32.4c-4.7,10.1-9.8,20.3-17.4,28.5
		c-8.4,9.2-19.3,13.6-31.5,15.3c-24.7,3.4-49.8,2-72.6-8.5c-14.3-6.6-27.8-15.2-41-24.2c0,0-0.1-0.1-0.1-0.1
		c-6.8-6.9-15.2-12.9-24.5-17c-1.8-1.3-3.7-2.5-5.5-3.8c-0.7-0.5-1.2,0.1-1.5,1.1c-6.9-2.2-14-3.4-21.1-3.1c-1.7,0.1-2.4,3-2.1,5.4
		c0,0.1,0,0.2,0,0.3c0,0,0,0.1,0,0.1c0.1,0.4,0.2,0.9,0.4,1.2c0.1,0.1,0.1,0.2,0.2,0.3c0,0,0.1,0.1,0.1,0.1c0.3,0.4,0.6,0.7,1,0.7
		c3,1.2,5.6,4.3,7.8,6.4c4.8,4.8,9.2,9.9,13.3,15.3c6.6,8.8,13.5,19.5,16.6,30.8c-0.7-1.3-1.5-2.6-2.3-3.9c-2.3-3.7-5.4-6.3-8.6-9.2
		c-6.3-5.8-14.7-16.9-24.1-10.9c-1,0.6-1.4,2.4-1.3,4.2c-0.2,1.4-0.1,2.8,0.4,3.6c4.9,7.6,8.4,15.9,10.8,24.6
		c-15.1-10.2-35-14.7-51.6-5.4c-0.1,0.1-0.2,0.2-0.3,0.3c-1.9,1.6-1.6,7.4,0.5,7.8c0.2,0.1,0.3,0.1,0.5,0c2.9-0.3,6.4,1.6,8.9,2.7
		c5.6,2.4,10.9,5.4,15.9,8.8c7.6,5.2,15.1,11.8,20,19.8c-0.5-0.4-0.9-0.8-1.4-1.2c-3.1-2.6-7-3.7-10.8-5.1
		c-4.2-1.6-8.5-3.3-12.9-4.2c-4.7-1-8.3,1.7-11.1,5.3c-0.6,0.8-0.8,2.4-0.6,4c-0.4,2.1,0.1,4.7,1.5,5.2c8,2.9,14.5,12.5,18.4,19.7
		c4.3,7.8,6.9,16.2,8.2,25c1.3,8.5,2,17.2,4.5,25.5c1.4,4.9,3.2,10.9,7.5,14.2c7.8,6,18.8,8.8,27.9,12.1c8.9,3.3,20.1,6,27.5,12.2
		c2,1.7,3.3-6.1,1.1-8c-7.3-6.1-18.2-8.8-27-12c-5.7-2.1-11.4-4.1-17-6.5c-3.7-1.5-8.3-3.1-11.3-5.8c-5.1-4.5-6.2-14.4-7.2-20.7
		c-1.3-8.3-2.1-16.7-4.3-24.9c-2.1-7.7-5.4-15.1-9.8-21.9c-3.3-5-7.5-10.9-12.8-14.5c5.4-2.1,11.7,1.4,17.5,3.6
		c2.6,1,5.6,1.7,7.9,3.2c4.4,2.9,7.8,7.2,10.3,11.7c0.2,0.6,0.4,0.9,0.7,1.1c0.8,0.9,1.6,0.2,2.1-1c0.6-0.9,1-2.3,0.8-3.7
		c-2-16.5-12.8-29.7-25.8-39.2c-5.1-3.7-10.6-7-16.3-9.6c14.2-2.5,29.6,3,40.9,12c0,0.2,0.1,0.5,0.1,0.7c0.8,4.9,3.9,2.3,4-1.1
		c0.6-1.9,0.4-4.7-0.7-5.6c-0.1-0.1-0.2-0.1-0.3-0.2c-2.1-10.4-5.4-20.6-10.6-29.9c6.8-0.6,13.3,7.9,18,12.1
		c6.7,6.2,11.2,12.9,13.7,21.8c0.1,1.1,0.5,2.2,1.4,2.5c0.6,0.2,1.1,0,1.5-0.4c0,0,0,0,0.1,0c1-0.7,1.1-2.4,1-3.9
		c0.8-17.8-7.1-34.3-17.1-48.7c-4.5-6.4-9.4-12.4-14.9-18c9.8,1.6,19.4,5.6,27.8,11.2c0.7,0.5,1.5,1,2.2,1.5
		c3.5,2.5,6.7,5.3,9.6,8.2c0.8,0.9,1.6,0.6,2.1-0.2c10.6,7.2,21.4,14.1,32.7,20.1c10.4,5.5,21.3,9.9,32.9,12.2
		C248.2,214.2,261,214.1,273.7,213.2z"/>
</g>
<g>
	<path d="M294.6,513.5c-6.7-1.4-13.8-2.3-20.3-4.4c-4.5-1.5-6.3-3.6-6.5-8.8c-0.2-4.3,0.8-8.9,1.4-13.2c2.2-15,5-29.9,7.6-44.9
		c0.3-1.7-0.9-1.8-1.2-0.2c-3.2,18.7-7.5,37.6-8.9,56.5c-0.3,4.7-0.5,9.4,4.1,12.1c2.5,1.4,5.4,1.9,8.1,2.4
		c5.1,1.1,10.2,2.1,15.3,3.2c0.3,0.1,7.6,2.6,10.7,4.6c-5.4,2.3-11.6,0.6-17.2-0.8c-6.2-1.6-12.4-3.4-18.5-5.6c-0.4-0.1-1.4,0.9-1,1
		c0.1,0,0.2,0.1,0.3,0.1c0,0.1,0,0.2,0.1,0.3c3.2,1.2,6,3.1,9.2,4.4c3.3,1.4,6.8,2.4,10,4.1c4.3,2.2,6.7,4.5,8.5,8.5
		c-4-0.6-8.3-1.3-12-3.1c-3.1-1.5-5.8-3.9-8.7-5.7c-3.6-2.4-7.5-4.2-10.9-6.8c-0.2-0.2-1.4,0.2-1.8-0.2c-0.3-0.3-1.1,0.6-0.8,0.9
		c2.3,2.4,5,4.3,7.3,6.6c2.7,2.7,4.5,5.8,6.7,8.9c1.8,2.6,3,5.4,4.2,8.3c-1.3-0.3-2.7-0.7-4-1.1c-12.9-11.2-23.9-28.2-22.8-45.9
		c1.1-18.9,7.4-37.1,9.5-55.9c0.1-1.2-3.5-2-3.6-1.1c-2.3,20.2-10.5,40.4-9.6,60.9c0.6,16.2,11.9,32.1,23.7,42.3
		c0.3,0.3,5.6,1.6,7.4,2c0.4,0.1,0.9-0.6,0.8-0.9c-1.3-3.4-2.6-6.6-4.7-9.6c-1.8-2.7-3.5-5.4-5.7-7.8c-1.9-2.1-4-3.8-6.1-5.6
		c3.4,2.4,7.1,4.2,10.6,6.5c2.9,1.9,5.6,4.3,8.8,5.6c3.9,1.6,8.3,2.3,12.4,2.9c0.4,0.1,0.7-0.9,0.6-1.1c-1.8-4.4-3.6-6.8-7.8-9.2
		c-3.2-1.8-6.5-3-9.9-4.3c-0.7-0.3-1.4-0.6-2.1-0.9c4.7,1.5,9.5,2.7,14.3,3.6c4.9,0.9,9.1,1.3,13.6-1.1c0.2-0.1,1-0.7,0.6-0.9
		C303,518,294.8,513.5,294.6,513.5z"/>
	<path d="M366.7,520.2c-3.4-2.2-11.6-6.7-11.9-6.8c-6.7-1.4-13.8-2.3-20.3-4.4c-4.5-1.5-6.3-3.6-6.5-8.8c-0.2-4.3,0.8-8.9,1.4-13.2
		c2.2-15,5-29.9,7.6-44.9c0.3-1.7-0.9-1.8-1.2-0.2c-3.2,18.7-7.5,37.6-8.9,56.5c-0.3,4.7-0.5,9.4,4.1,12.1c2.5,1.4,5.4,1.9,8.1,2.4
		c5.1,1.1,10.2,2.1,15.3,3.2c0.3,0.1,7.6,2.6,10.7,4.6c-5.4,2.3-11.6,0.6-17.2-0.8c-6.2-1.6-12.4-3.4-18.5-5.6c-0.4-0.1-1.4,0.9-1,1
		c0.1,0,0.4,0.3,0.5,0.4c3.2,1.2,6,3.1,9.2,4.4c3.3,1.4,6.8,2.4,10,4.1c4.3,2.2,6.7,4.5,8.5,8.5c-4-0.6-8.3-1.3-12-3.1
		c-3.1-1.5-5.8-3.9-8.7-5.7c-3.6-2.4-7.5-4.2-10.9-6.8c-0.2-0.2-1.4,0.2-1.8-0.2c-0.3-0.3-1.1,0.6-0.8,0.9c2.3,2.4,5,4.3,7.3,6.6
		c2.7,2.7,4.5,5.8,6.7,8.9c1.8,2.6,3,5.4,4.2,8.3c-1.3-0.3-2.7-0.7-4-1.1c-12.9-11.2-23.9-28.2-22.8-45.9
		c1.1-18.9,7.4-37.1,9.5-55.9c0.1-1.2-3.5-2-3.6-1.1c-2.3,20.2-10.5,40.4-9.6,60.9c0.6,16.2,11.9,32.1,23.7,42.3
		c0.3,0.3,5.6,1.6,7.4,2c0.4,0.1,0.9-0.6,0.8-0.9c-1.3-3.4-2.6-6.6-4.7-9.6c-1.8-2.7-3.5-5.4-5.7-7.8c-1.9-2.1-4-3.8-6.1-5.6
		c3.4,2.4,7.1,4.2,10.6,6.5c2.9,1.9,5.6,4.3,8.8,5.6c3.9,1.6,8.3,2.3,12.4,2.9c0.4,0.1,0.7-0.9,0.6-1.1c-1.8-4.4-3.6-6.8-7.8-9.2
		c-3.2-1.8-6.5-3-9.9-4.3c-0.7-0.3-1.4-0.6-2.1-0.9c4.7,1.5,9.5,2.7,14.3,3.6c4.9,0.9,9.1,1.3,13.6-1.1
		C366.3,521.1,367.1,520.5,366.7,520.2z"/>
</g>
<path d="M457.9,190.1c-2.3-0.7-3.1,2.1-3.4,3.8c0.1-0.8-4.6,0.6-4.2,0.6c-1.2,0.1-2.4,0.1-3.5,0c-3.5-0.3-7-1.5-10.3-2.7
	c-5.7-2-11.1-4.6-16.3-7.7c-0.5-0.3-1-0.3-1.5,0c-6.4,4-14.3,4.4-21.7,3.7c-4.3-0.4-8.6-1.3-12.6-3c-2.1-0.9-8.4-4.1-8.1-6.2
	c0.2-1.3,0.1-7.4-2.7-7c-6.8,1-14.4,1.6-21-0.8c-6.9-2.4-8.9-7-8.2-13.8c0.2-1.7,0.3-6.1-1.9-6.8c-2.2-0.7-3.2,2.1-3.4,3.8
	c-0.9,8.5-0.9,18.2,6.3,24.1c6.9,5.7,17.1,5.8,25.8,4.8c3.7,15.2,28.3,18.4,41.6,14.9c1.9-0.5,3.7-1.6,5.5-2
	c2.3-0.5,4.1,1.1,6.2,2.2c4.7,2.4,9.7,4.3,14.7,5.9c7.8,2.4,18.9,3.4,20.5-7C460.1,195.2,460.1,190.8,457.9,190.1z"/>
</svg>
