<?xml version="1.0" encoding="utf-8"?>
<!-- Generator: Adobe Illustrator 23.0.1, SVG Export Plug-In . SVG Version: 6.00 Build 0)  -->
<svg version="1.1" id="Layer_3" xmlns="http://www.w3.org/2000/svg" xmlns:xlink="http://www.w3.org/1999/xlink" x="0px" y="0px"
	 viewBox="0 0 566.9 566.9" style="enable-background:new 0 0 566.9 566.9;" xml:space="preserve">
<g>
	<path d="M202.7,183.3c-17.2,0-17.2,0-39.2,0c0.5-16.1,0-53.1,0-58.7c0-5.6-21.3-5.8-21.3,0s0,58.7,0,58.7s-25.8,0-41.4,0
		c-7.5-1-8.5,21.9,0,21.9s41.4,0,41.4,0s-1.6,60.2,0,87.7c0.2,3.4,21.5,3.2,21.3,0c-1.5-26.4,0-87.7,0-87.7s17.3,0.7,39.2,0
		C210.9,204.9,210.7,183,202.7,183.3z"/>
	<path d="M511.1,523.3c-0.1,0-0.1,0-0.2,0c5.6-35.1,10.4-70.1,8.4-105.8c-2-36.1-8.5-72.2-5.3-108.5c0.1-1.7,0.3-6.1-1.9-6.8
		c-0.7-0.2-1.3-0.1-1.8,0.3c-0.3-0.2-0.7-0.4-1.1-0.4c-24.2,0-48.4,0-72.7,0c-0.4-0.3-0.8-0.5-1.3-0.6c-33-1.5-66.1-2-99.2-1.6
		c-16.3,0.2-32.6,0.8-48.9,1.4c-15.5,0.5-31.2,0.4-46.2-3.9c-0.6-12.1-1.4-24.2-1.9-36.4c-1-22.5,1.7-44.7,5-66.8
		c0,0.1,0.1,0.1,0.1,0.2c0,1.9,11,12,15.5,15.4c1.9,1.5,3.8-15.3,1.8-16.9c-3.6-2.8-87-108.1-104.8-124.2c-1-0.9-1.8-0.9-2.8,0
		c-9.1,8.7-119.6,139.1-122.1,141c-2,1.5,5.7,11.4,7.6,9.9c4.6-3.5,17.9-19.5,18.9-20.4c2.3,9.7-8.8,335.4,0.2,335.4
		s432.1,0,452.7,0C525.5,535,522,523.3,511.1,523.3z M114.3,518.2c1.7-17.9-11.4-131.7,31.7-131.7s33.3,75,33.3,131.2
		C171.8,517.7,128.6,517.9,114.3,518.2z M197.9,518.1c-2.1,0-4.3-0.1-6.4-0.1c0-84.2-4.6-143-44.5-143s-43.7,73-43.7,143.3
		c-6.6,0.2-39,0-39,0S71.4,212,70.1,188c4.5-4.5,8.4-9.6,12.1-14.8c7.3-10.3,14.5-20.4,23.1-29.6c9-9.6,18.2-18.8,26.2-29.2
		c7.5-9.7,14.6-19.7,23.2-28.3c15.9,17.2,71.8,92.1,79.5,100.9c-3.2,20.9-6.2,42-6.1,63.2c0.1,22.1,2.7,44.1,3,66.2
		c0.7,43.5-2.5,87-4.1,130.4c-0.8,22.5-1.2,48.2-0.5,70.8C222,517.9,204.6,518.1,197.9,518.1z M294.5,518.5
		c-17.2,0.2-56.3-0.8-57.4-0.8c-1.3-41,1.1-85.2,3-126.1c1-21.7,1.8-43.5,1.7-65.2c0-5.9-0.2-3.5-0.4-9.3c14,3.7,28.4,4.2,42.9,3.8
		c16.6-0.5,33.1-1.2,49.7-1.4c32.8-0.5,65.6,0,98.4,1.4c0.4,0.4,0.9,0.7,1.5,0.7c24.8,0,38,0,62.8,0c-1.9,33.6,3.2,58.6,5.4,92.1
		c2.4,36.9-2.5,72.8-8.4,109.1C493.6,522.9,364.8,517.7,294.5,518.5z"/>
	<g>
		<g>
			<path d="M-46,540.4c89.1-1.5,178.1-2.5,267.2-3c89.4-0.6,178.8-0.6,268.2-0.3c50.2,0.2,100.4,0.6,150.6,1.1
				c4.6,0-1.3-14-5.9-14.1c-89.1-0.9-178.2-1.3-267.2-1.3c-89.4,0-178.8,0.5-268.2,1.5c-50.2,0.5-100.4,1.2-150.6,2
				C-56.6,526.4-50.6,540.5-46,540.4L-46,540.4z"/>
		</g>
	</g>
</g>
</svg>
