<?xml version="1.0" encoding="utf-8"?>
<!-- Generator: Adobe Illustrator 23.0.1, SVG Export Plug-In . SVG Version: 6.00 Build 0)  -->
<svg version="1.1" xmlns="http://www.w3.org/2000/svg" xmlns:xlink="http://www.w3.org/1999/xlink" x="0px" y="0px"
	 viewBox="0 0 566.9 566.9" style="enable-background:new 0 0 566.9 566.9;" xml:space="preserve">
<style type="text/css">
	.st0{display:none;}
	.st1{display:inline;}
</style>
<g id="Layer_3" class="st0">
	<g class="st1">
		<path d="M202.7,183.3c-17.2,0-17.2,0-39.2,0c0.5-16.1,0-53.1,0-58.7c0-5.6-21.3-5.8-21.3,0c0,5.8,0,58.7,0,58.7s-25.8,0-41.4,0
			c-7.5-1-8.5,21.9,0,21.9s41.4,0,41.4,0s-1.6,60.2,0,87.7c0.2,3.4,21.5,3.2,21.3,0c-1.5-26.4,0-87.7,0-87.7s17.3,0.7,39.2,0
			C210.9,204.9,210.7,183,202.7,183.3z"/>
		<path d="M511.1,523.3c-0.1,0-0.1,0-0.2,0c5.6-35.1,10.4-70.1,8.4-105.8c-2-36.1-8.5-72.2-5.3-108.5c0.1-1.7,0.3-6.1-1.9-6.8
			c-0.7-0.2-1.3-0.1-1.8,0.3c-0.3-0.2-0.7-0.4-1.1-0.4c-24.2,0-48.4,0-72.7,0c-0.4-0.3-0.8-0.5-1.3-0.6c-33-1.5-66.1-2-99.2-1.6
			c-16.3,0.2-32.6,0.8-48.9,1.4c-15.5,0.5-31.2,0.4-46.2-3.9c-0.6-12.1-1.4-24.2-1.9-36.4c-1-22.5,1.7-44.7,5-66.8
			c0,0.1,0.1,0.1,0.1,0.2c0,1.9,11,12,15.5,15.4c1.9,1.5,3.8-15.3,1.8-16.9c-3.6-2.8-87-108.1-104.8-124.2c-1-0.9-1.8-0.9-2.8,0
			c-9.1,8.7-119.6,139.1-122.1,141c-2,1.5,5.7,11.4,7.6,9.9c4.6-3.5,17.9-19.5,18.9-20.4c2.3,9.7-8.8,335.4,0.2,335.4
			s432.1,0,452.7,0C525.5,535,522,523.3,511.1,523.3z M114.3,518.2c1.7-17.9-11.4-131.7,31.7-131.7s33.3,75,33.3,131.2
			C171.8,517.7,128.6,517.9,114.3,518.2z M197.9,518.1c-2.1,0-4.3-0.1-6.4-0.1c0-84.2-4.6-143-44.5-143s-43.7,73-43.7,143.3
			c-6.6,0.2-39,0-39,0S71.4,212,70.1,188c4.5-4.5,8.4-9.6,12.1-14.8c7.3-10.3,14.5-20.4,23.1-29.6c9-9.6,18.2-18.8,26.2-29.2
			c7.5-9.7,14.6-19.7,23.2-28.3c15.9,17.2,71.8,92.1,79.5,100.9c-3.2,20.9-6.2,42-6.1,63.2c0.1,22.1,2.7,44.1,3,66.2
			c0.7,43.5-2.5,87-4.1,130.4c-0.8,22.5-1.2,48.2-0.5,70.8C222,517.9,204.6,518.1,197.9,518.1z M294.5,518.5
			c-17.2,0.2-56.3-0.8-57.4-0.8c-1.3-41,1.1-85.2,3-126.1c1-21.7,1.8-43.5,1.7-65.2c0-5.9-0.2-3.5-0.4-9.3c14,3.7,28.4,4.2,42.9,3.8
			c16.6-0.5,33.1-1.2,49.7-1.4c32.8-0.5,65.6,0,98.4,1.4c0.4,0.4,0.9,0.7,1.5,0.7c24.8,0,38,0,62.8,0c-1.9,33.6,3.2,58.6,5.4,92.1
			c2.4,36.9-2.5,72.8-8.4,109.1C493.6,522.9,364.8,517.7,294.5,518.5z"/>
	</g>
</g>
<g id="Layer_5">
	<g>
		<path d="M350.9,199.6c-17.7,0-17.7,0-40.3,0c0.5-16.5,0-54.7,0-60.4s-21.9-6-21.9,0s0,60.4,0,60.4s-26.6,0-42.6,0
			c-7.8-1-8.7,22.5,0,22.5c8.7,0,42.6,0,42.6,0s-1.6,61.9,0,90.2c0.2,3.5,22.1,3.3,21.9,0c-1.5-27.1,0-90.2,0-90.2s17.8,0.8,40.3,0
			C359.3,221.9,359.2,199.4,350.9,199.6z"/>
		<path d="M546.1,549.5c5.8-36.1-3.3-135.4-0.1-172.7c0.2-1.8-140.4-55.1-155.9-59.6c-0.6-12.5-1.4-24.9-2-37.4
			c-1-23.2,1.8-45.9,5.1-68.8c0,0.1,0.1,0.2,0.1,0.2c0,1.9,11.3,12.3,15.9,15.9c2,1.5,3.9-15.8,1.9-17.4
			c-3.7-2.9-89.5-111.2-107.8-127.8c-1-0.9-1.8-1-2.9,0c-9.4,9-123.1,143.1-125.6,145.1c-2,1.5,5.9,11.7,7.9,10.2
			c4.7-3.6,18.4-20.1,19.4-21c0.8,3.5,0,46.1-1.1,100.3l-5.6,0.6c0,0-156,57.8-155.9,59.6c3.2,37.3-5.8,136.6-0.1,172.7
			c-11.5,3.5-13.7,12,5.5,12c9.7,0,80,0,154,0c0.9,0,2.1,0,3.3,0c0.6,0,2.7,0,6.1,0c44.7,0,312.4,0,332.1,0
			C559.8,561.5,557.7,553,546.1,549.5z M59.3,544.2c-7.6-18.3-1.8-154.6-1.8-154.6s123.1-48.5,137.5-52.3c-0.2,6.1-0.4,3.5-0.4,9.6
			c-0.1,22.4,0.7,44.7,1.7,67.1c0.8,18.5,1.8,37.6,2.5,56.8c-0.2,28.5,0,53.1,0.7,69.5c0,1.1-0.1,2.3-0.1,3.4
			C198.2,543.7,69.4,544.2,59.3,544.2z M326.8,543.7c-7.6,0-52.1,0.2-66.9,0.5c1.8-18.4-11.7-135.5,32.6-135.5
			S326.8,485.9,326.8,543.7z M380.3,336.7c0.7,44.8-2.5,89.5-4.2,134.2c-0.9,23.2-1.3,49.6-0.5,72.8c-4.8,0.2-22.7,0.4-29.6,0.4
			c-2.2,0-4.4-0.1-6.6-0.1c0-86.6-4.8-147.1-45.8-147.1s-44.9,75.1-44.9,147.5c-6.8,0.2-40.1,0-40.1,0s7.4-315.2,6-339.9
			c4.6-4.7,8.6-9.9,12.5-15.3c7.5-10.6,14.9-21,23.8-30.5c9.2-9.8,18.7-19.3,26.9-30c7.7-10,15-20.2,23.9-29.1
			c16.4,17.7,73.9,94.8,81.8,103.9c-3.2,21.6-6.4,43.2-6.3,65.1C377.3,291.3,379.9,313.9,380.3,336.7z M526.4,544.2
			c-10,0-138.9-0.5-140.1-0.5c-1.3-42.2,1.2-87.7,3.1-129.8c1-22.3,1.8-44.7,1.7-67.1c0-6.1-0.2-3.6-0.4-9.6
			c14.4,3.8,137.5,52.3,137.5,52.3S534,526,526.4,544.2z"/>
	</g>
	<path d="M842.5-50.9"/>
	<path d="M841.1,327"/>
	<path d="M841.1,327"/>
	<g>
		<g>
			<path d="M-46,566.4c89.1-1.5,178.1-2.5,267.2-3c89.4-0.6,178.8-0.6,268.2-0.3c50.2,0.2,100.4,0.6,150.6,1.1
				c4.6,0-1.3-14-5.9-14.1c-89.1-0.9-178.2-1.3-267.2-1.3c-89.4,0-178.8,0.5-268.2,1.5c-50.2,0.5-100.4,1.2-150.6,2
				C-56.6,552.4-50.6,566.5-46,566.4L-46,566.4z"/>
		</g>
	</g>
</g>
</svg>
