<?xml version="1.0" encoding="utf-8"?>
<!-- Generator: Adobe Illustrator 23.0.1, SVG Export Plug-In . SVG Version: 6.00 Build 0)  -->
<svg version="1.1" id="Layer_3" xmlns="http://www.w3.org/2000/svg" xmlns:xlink="http://www.w3.org/1999/xlink" x="0px" y="0px"
	 viewBox="0 0 566.9 566.9" enable-background="new 0 0 566.9 566.9" xml:space="preserve">
<g>
	<g>
		<path d="M141.9,168.2c0.8,0.8,1.5,1.6,2.2,2.5c0.3,0.4,0.6,0.8,0.9,1.2c1.5,1.8-0.5-1,0.1,0.2c1.5,2.5,2.8,5.1,4,7.7
			c0.3,0.7,0.6,1.5,0.9,2.2c0.9,2.1-0.3-0.8,0-0.1c0.6,1.8,1.3,3.6,1.9,5.4c1.2,3.7,2.3,7.5,3.3,11.2c0.5,1.9,1,3.8,1.4,5.7
			c0.2,1.1,0.5,2.1,0.7,3.2c0.2,1,0.9,4.2,0.3,1.5c1,4.6,1.8,9.2,2.6,13.9c1.8,10.1,3.2,20.2,4.5,30.3c5.3,41.5,8,83.3,11,125
			c1,14,1.8,28.1,3.7,42c1.6,11.9,3.9,25.2,11.8,34.7c10.8,13,30.8,9.5,45.8,9.3c37.1-0.5,74.2-1.7,111.3-3.6
			c9.3-0.5,18.5-1,27.8-1.6c3.8-0.2,7.8-0.3,10.7-3.2c3.6-3.6,4.7-9.4,5.1-14.3c1.5-17.2,2.2-34.5,2.8-51.8
			c2.2-67.1,1.5-135.2,24.1-199.4c2.9-8.2,6.2-16.3,9.8-24.2c2.6-5.7,2.9-13.4,0-19.1c-2.4-4.7-7.2-5.2-9.5,0
			c-16.5,36.4-26.2,75.3-31.1,115c-4.6,37.9-5.2,76.1-6.3,114.1c-0.3,10.6-0.6,21.2-1.1,31.8c-0.5,9.9-0.1,20.6-2.1,30.3
			c0.6-2,1.2-4,1.7-6c0.2-0.2,0.3-0.3,0.5-0.5c-1.2,0.1-2.3,0.2-3.5,0.3c-1.3,0.1-2.6,0.2-4,0.2c-3.3,0.2-6.6,0.4-9.9,0.6
			c-6.6,0.4-13.2,0.7-19.9,1.1c-13.2,0.7-26.5,1.2-39.7,1.7c-25.8,0.9-51.7,1.5-77.6,1.8c-9.6,0.1-23.3,2.2-29.3-7.3
			c-3.3-5.3-3.6-10.5-4.4-16.8c-1.2-8.8-1.9-17.7-2.6-26.6c-4.5-57.4-6.8-115.3-16.9-172.1c-2.5-14-5.3-28.1-9.8-41.6
			c-3.2-9.7-7.2-20.7-14.7-28.1c-4.2-4.2-8,0.6-9.2,4.8C137.9,154.9,137.7,164,141.9,168.2L141.9,168.2z"/>
	</g>
</g>
<g>
	<g>
		<path d="M147.9,168.9c70.9,12.8,143.4,16.3,215.2,10.1c20.3-1.7,40.5-4.3,60.6-7.5c5.6-0.9,6.8-8.9,6.8-13.5
			c0-3.1-1.3-14.4-6.8-13.5c-71.1,11.5-143.7,13.6-215.4,6c-20.2-2.1-40.4-5-60.4-8.7c-5.4-1-6.8,10.3-6.8,13.5
			C141.1,160,142.3,167.8,147.9,168.9L147.9,168.9z"/>
	</g>
</g>
<g>
	<g>
		<path d="M403,241.8c13.2-10.8,28.5-21.8,45.7-24.5c8.3-1.3,16.9-1,24.1,3.8c5.3,3.6,8.8,9.6,10.7,15.6c4.3,13.4,2.3,28.2-3.8,42.1
			c-6.6,15-16.8,28.6-29.8,38.7c-16.3,12.7-35.8,19.8-56,23c-5.6,0.9-6.8,8.9-6.8,13.5c0,3.1,1.3,14.4,6.8,13.5
			c20.9-3.4,41.4-10.2,58.4-23c16-12.1,28.9-28.2,36.9-46.6c9.3-21.3,12.7-45.1,7.7-68c-4.1-18.7-14.9-37.7-35.7-40
			c-23-2.6-45,12.1-61.8,25.9c-4.7,3.9-5.5,10.8-4.7,16.6C395.1,234.9,398.3,245.6,403,241.8L403,241.8z"/>
	</g>
</g>
<g>
	<g>
		<path d="M147,157.1c5-4.8,12.3-7.3,18.9-9c9.4-2.5,19.2-3.6,28.9-4.4c22.5-1.9,45.2-1.8,67.8-2.2c16.2-0.3,32.3-1.1,48.5-0.2
			c19.8,1.1,39.5,3.1,59.1,5.7c17.5,2.3,36.5,4.2,53,10.8c4.8,1.9,5.9-11.4,1.8-13c-14.5-5.8-30.8-7.8-46.1-10.1
			c-20.3-3-40.7-5.1-61.1-6.5c-16.7-1.1-33.1-0.7-49.8-0.3c-23.1,0.5-46.2,0.2-69.2,1.9c-11,0.8-22.1,2-32.9,4.8
			c-8.1,2.1-16.2,4.9-22.4,10.9C140.5,148.3,142.6,161.3,147,157.1L147,157.1z"/>
	</g>
</g>
<path d="M395,402.2c33.2,4.3,66.9,10.4,98,23.2c10.2,4.2,20.5,9.2,29,16.2c1.9,1.6,5.7,5.5,7.7,8.5c-1.4-2,0.8,1.8,1.2,2.7
	c-1.4-2.9-0.2-0.7,0,0.3c-0.8-4.4,0.1,1.5-0.2-1.3c-0.3-2.2-0.1-1.1-0.1-0.5c0,1.9,0.2-2,0.2-2c-0.1,0.1-0.2,2.2-0.3,2.2
	c-0.2,0,1-3.5,0.1-0.8c-0.7,2.1,1.3-2.3-0.1,0.2c-0.4,0.7-0.8,1.4-1.1,2.1c-0.7,1.5,1.2-1.5-0.1,0.2c-1.2,1.5-2.3,3-3.6,4.3
	c-3.1,3.3-4.1,4-8,6.7c-3.8,2.7-7.9,5-12.1,7.2c-22.9,11.8-48.6,18.2-73.8,23.1c-72.2,14-148,15.3-221,7.4
	c-30.7-3.3-61.7-8.3-91.2-17.6c-11.2-3.5-22.2-7.6-32.7-13c-4.2-2.1-8.2-4.5-12.1-7.2s-4.9-3.5-8-6.7c-1.2-1.3-2.3-2.7-3.4-4.1
	c-1.2-1.5-0.2-0.2-0.2-0.2c-0.4-0.8-0.8-1.6-1.3-2.4c-1.1-2,0.2,0.6,0.1,0.3c-0.1-0.3-0.3-0.7-0.3-1.1c-0.3-1.7-0.4,0.2,0,0.3
	c0.4,0.1,0.2,1.7,0-0.5c-0.2-2,0.1,2.1,0.1,2c0-0.6,0.1-2.5-0.1-0.1c-0.2,2.4-0.1,0.7,0,0.2c0.2-1.3-0.4,1.8-0.4,1.6
	c0.3-0.8,0.5-1.7,0.8-2.6c-0.7,2.3-0.2,0.8,0.4-0.4c0.2-0.3,0.4-0.6,0.5-0.9c0.5-1-1.1,1.4,0-0.1c2.5-3.5,5.7-6.7,8.5-8.9
	c22.1-17,51.6-24.6,78.3-30.4c9.2-2,18.5-3.7,27.8-5.2c5.6-0.9,6.8-8.9,6.8-13.5c0-3.1-1.3-14.4-6.8-13.5
	c-33.4,5.4-69.1,12.6-98.8,29.5c-9.7,5.5-18.9,12.4-24.7,22c-6,9.9-7.3,22.9-4.1,34c5.5,18.8,23.7,29.9,40.6,37.4
	c27.3,12.3,57.4,18.8,86.8,23.5c39.2,6.3,79.1,8.9,118.8,8.9c39.5,0,79.1-2.5,118.1-8.8c29.5-4.7,59.7-11.2,87.1-23.4
	c16.9-7.5,35.7-18.7,41-37.7c3-10.8,2.1-23.4-3.6-33.2c-5.3-9.2-13.7-16-22.7-21.4c-27.2-16.4-60.3-23.6-91.1-29.2
	c-10-1.8-20-3.3-30-4.6C386.3,374.1,385.3,400.9,395,402.2L395,402.2z"/>
<path d="M236.792,107.91c-3.142-2.069-8.967-5.365-9.273-9.58c-0.307-4.139,4.675-9.273,6.668-12.722
	c4.522-8.2,6.974-17.934,4.292-27.13c-1.303-4.598-3.985-8.507-5.825-12.875c-1.15-2.912-1.763-5.365,0.077-8.124
	c1.38-2.069,3.525-3.372,5.441-4.905c2.912-2.376,4.598-5.441,4.445-9.273c-0.153-3.142-1.686-7.357-5.441-7.127
	c-2.989,0.153-2.912,8.584,0,8.43c0.843,0.383,1.226,0.153,0.996-0.613c0.153-0.996-0.077-0.92-0.766,0.153
	c-0.996,0.613-2.146,1.686-3.066,2.452c-1.533,1.226-2.912,2.529-3.985,4.139c-2.529,3.602-3.372,7.971-2.989,12.262
	c0.92,10.116,10.04,17.857,7.357,28.28c-2.376,9.12-10.576,15.864-11.343,25.368c-0.766,9.12,5.365,14.868,12.416,19.39
	C238.095,117.643,239.168,109.443,236.792,107.91L236.792,107.91z"/>
<path d="M282.316,111.129c-4.062-2.912-8.507-6.898-10.04-11.879c-1.456-4.752,1.916-8.584,5.135-11.726
	c3.142-3.066,6.744-5.748,9.503-9.197c3.142-3.832,5.288-8.354,6.974-13.029c3.142-8.89,6.591-20.693,2.989-29.813
	c-1.609-4.062-5.441-7.741-6.208-12.032c-0.766-4.598,3.985-8.43,7.817-9.887c2.529-0.996,1.916-9.273-1.15-8.124
	c-9.657,3.755-13.259,15.558-9.503,24.755c1.15,2.759,2.912,5.211,4.368,7.817c1.839,3.296,2.069,6.055,1.38,9.733
	c-1.073,6.208-2.682,12.569-5.595,18.164c-4.982,9.58-16.554,14.178-19.62,24.831c-3.372,11.573,3.602,21.996,12.722,28.433
	C283.542,120.939,284.692,112.815,282.316,111.129L282.316,111.129z"/>
<path d="M319.103,108.37c-4.215-4.215-6.744-10.04-5.901-16.094c0.843-6.284,5.441-10.806,9.503-15.328
	c3.679-4.139,6.974-8.584,8.2-14.025c1.609-7.281-0.536-14.408-3.066-21.229c-1.916-5.135-4.752,1.303-3.602,4.292
	c1.456,3.755,3.219,7.971,3.066,12.032c-0.153,3.372-2.146,6.284-4.139,8.814c-3.832,4.828-8.66,8.967-11.343,14.638
	c-5.211,10.959-3.295,25.444,5.365,34.181C319.64,118.333,320.942,110.286,319.103,108.37L319.103,108.37z"/>
<path d="M386.365,150.267c-17.833-2.023-35.678-4.022-53.614-4.847c-18.805-0.865-37.637-0.637-56.455-0.428
	c-18.303,0.203-36.57,0.111-54.868-0.34c-17.902-0.442-35.847-0.285-53.376,3.809c-5.084,1.188-5.783,8.445-1.433,10.966
	c1.584,0.918,3.219,1.741,4.889,2.492c0.612,0.479,1.363,0.819,2.256,0.962c10.187,4.095,21.598,5.606,32.286,7.062
	c13.895,1.893,27.881,2.834,41.868,3.735c27.94,1.8,56.038,5.803,84.076,4.797c6.848-0.246,13.67-0.858,20.45-1.854
	c5.609-0.823,12.765-1.177,17.545-4.479c3.825-2.643,4.906-7.582,2.7-11.401c4.56,0.495,9.118,1.009,13.676,1.526
	C394.026,163.136,393.964,151.129,386.365,150.267z"/>
</svg>
