<?xml version="1.0" encoding="utf-8"?>
<!-- Generator: Adobe Illustrator 23.0.1, SVG Export Plug-In . SVG Version: 6.00 Build 0)  -->
<svg version="1.1" id="Layer_3" xmlns="http://www.w3.org/2000/svg" xmlns:xlink="http://www.w3.org/1999/xlink" x="0px" y="0px"
	 viewBox="0 0 566.9 566.9" style="enable-background:new 0 0 566.9 566.9;" xml:space="preserve">
<path d="M384.2,293.1c0.1-18.8,1.7-37.6,1.8-56.4c0.4-37.6-1.4-75.2,1.3-112.7c0.1-2-4.6-7.7-5.3-6.6c-46.3,1.9-92.3-6.5-138.7-4.5
	c-22.7,1-45.3,2.9-68,3.1c-23.3,0.1-46.5,0-69.8,0.9c-25.4,1.1-50.9,2.1-76.2-0.9c-0.4-0.2-0.8-0.2-1.3-0.2c-0.4,0-5,30.4-5.6,38.6
	c-0.6,9.6,0.1,19.3,0.9,28.9c1.7,20,3.2,40,3.6,60.1c0.5,20.1,0.2,40.3-0.9,60.4c-0.5,10.3-1.3,20.5-2.2,30.7
	c-0.7,7.2,7.4,20.8,7.7,17c44.7-4.4,89.6-4.5,134.4-3.9c5.6,0.1,11.3,0.1,16.9,0.2c0,1,0,1.8,0.1,2.4c1.2,11.1,0.8,22.3-1.3,33.3
	c-18.5,0.2-37-0.3-55.4-1.7c-4.3-0.3-4.6,12.6,0,12.9c18.5,1.4,73.5,1.2,80.6,0.8c6-0.3,59.4-0.5,78.7,0.9c4.3,0.3,4.6-12.6,0-12.9
	c-18.3-1.4-36.3-2-54.4-1.7c1.5-9.3,3.4-26.9,5.6-36.1c0.5,1.6,95.6-2.6,142.2-1.4c0.6,0,7.8-1.7,7.9-3.4c0.1-1.2,0.1-2.3,0.1-3.5
	C389,334.8,384.2,306.3,384.2,293.1z M362.7,144.5c0.9,30-1.2,59.9-2.5,89.9c-1.3,29-0.8,57.8,0.3,86.8c-85,1-170.1,2-255.1,3.1
	c-19.2,0.2-38.4,0.5-57.6,0.7c-4.6-27-0.3-55.4,0.6-82.5c0.6-16.8-0.6-33.4-1.4-50.2c-0.7-16.7,2-32.7,5.4-49
	c0.2-0.7,0.3-1.7,0.4-2.6c0,0,0,0,0.1,0c81.1,7.8,162.3-1.9,243.5-0.4C318.6,140.6,340.7,141.9,362.7,144.5z"/>
<path d="M551.9,236.4c1.1-10.6-1-21.1,0-31.7c2.1-22.2-1.1-44.5,0-66.8c1.2-24.3,0.1-48.6,0-73c0-5.2-9.4-9.8-9.4-9.8l-124-1.5
	c0,0-16.1,5.5-15.5,11.8c1.8,20.4,0,39.2,0,60.5c0,10.4,0.8,21.1,0,29.9c-0.9,10.4-0.7,53.6,0,64.9c0.7,11.4,0.3,19.4,0,31.1
	c-0.2,10.6,0.9,17.3,0,28c-0.9,11.4,0.1,22.9,0,34.4c-0.1,12-4.9,72.3,0,85.1c27.3,0,147.9,4.5,148.9-0.7c1.5,0,0,0,0,0
	s-0.6-93.1,0-133.6C552,254.2,550.7,247.1,551.9,236.4z M417.2,380.8c-0.7-11.8,0.6-42.4,0-47c0-0.1,0.1-7.9,0-12.5
	c-0.5-21.5-1.1-40.1,0-62.3c0.6-11.6-0.8-55.8,0-61.6c3.1-21.7,1.9-109.9,0-132.1c40.1-6.6,78.2-2.2,118.5,1.5
	c0.1,42,0.9,167.9,0,189.9c-0.8,20.9-0.4,41.9,0,62.8c0.4,22.3-0.4,44.6,0,67C499.1,385.9,453.5,384.9,417.2,380.8z"/>
<path d="M440.2,110.5c28.4,1.7,56.8,1.3,85.1-1.2c3.9-0.3,3.7-11.3,0-11c-28.3,2.5-56.7,2.9-85.1,1.2
	C436.5,99.2,436.3,110.2,440.2,110.5L440.2,110.5z"/>
<path d="M440.2,136.6c28.4,1.7,56.8,1.3,85.1-1.2c3.9-0.3,3.7-11.3,0-11c-28.3,2.5-56.7,2.9-85.1,1.2
	C436.5,125.3,436.3,136.3,440.2,136.6L440.2,136.6z"/>
<path d="M491.8,302.5c-1-1.9-2.7-3.2-4.6-4.1c-0.5-1.4-1.3-2.3-2.4-2.4c-6.3-0.2-11.2,2-12,8.8c-0.7,5.7,2.3,12.8,8.1,14.8
	c5.8,2,10.4-2,11.8-7.5C493.3,309.1,493.2,305.4,491.8,302.5z"/>
<g>
	<path d="M563.2,513.5c-5.2-0.3-10.4-0.6-15.5-0.8c-9.8-8-14.9-20.6-19.8-32c-6.1-14.2-11.5-28.8-11.9-44.4
		c-0.1-4-71.1-0.8-71.2,0.7c-101.5,0.1-203.1,0.2-304.6,0.3c-26,0-96.7-1.7-97.6,4.4c-1,6.7-4.1,12.5-7.4,18.3
		c-3.6,6.3-7.2,12.5-10.8,18.8c-7.2,12.7-14.1,25.6-20.8,38.5c-1.5,2.9,5.2,9.1,6.8,9.3c69.9,10.1,140.6,12,211.2,11.1
		c70.8-0.9,141.6-4.6,212.4-5.5c39.8-0.5,79.6,0,119.3,2.2C560.3,534.9,570.4,513.9,563.2,513.5z M350.9,513.6
		c-70.7,2.3-141.4,4.9-212.1,2.4c-35.1-1.3-70.2-3.9-105.1-8.4c4.8-8.9,9.6-17.8,14.6-26.6c6-10.6,13.7-21.2,17-33.1
		c99.5-0.1,199-0.2,298.5-0.3c28.4,0,124.3-2.4,141.8-2.4c1,16.2,6.7,36.5,13.1,51.3c2.3,5.2,4.6,10.4,7.3,15.4
		C467.7,510.1,409.3,511.7,350.9,513.6z"/>
	<path d="M386.9,498.3c-8.4-1.9-17.4-1.7-26-2c-15.1-0.5-30.2-0.6-45.4-0.6c-33.3-0.1-66.6,0.3-100,1.1c-10.2,0.2-20.6,0.2-30.8,1.2
		c-4.2,0.4-8.7,12.2-4.3,11.8c23.3-2.2,47.1-1.6,70.5-1.9c33.3-0.4,66.7-0.7,100,0.1c6.4,0.2,12.9,0.4,19.3,0.8
		c3.3,0.2,8.5,0.6,10.6,1.1C385.4,510.8,390.5,499.1,386.9,498.3z"/>
	<path d="M74.1,499.3c-5.2-0.8-10.2-1.1-15.4-0.5c-4,0.5,3.7,7.5,6.6,7.2c4.5-0.5,9-0.6,13.5,0.2c2,0.3,2.8-0.6,1.7-2.5
		C79.3,501.8,76.4,499.7,74.1,499.3z"/>
	<path d="M111.1,499.3c-5.2-0.8-10.2-1.1-15.4-0.5c-4,0.5,3.7,7.5,6.6,7.2c4.5-0.5,9-0.6,13.5,0.2c2,0.3,2.8-0.6,1.7-2.5
		C116.3,501.8,113.4,499.7,111.1,499.3z"/>
	<path d="M152.9,499.3c-5.2-0.8-10.2-1.1-15.4-0.5c-4,0.5,3.7,7.5,6.6,7.2c4.5-0.5,9-0.6,13.5,0.2c2,0.3,2.8-0.6,1.7-2.5
		C158.1,501.8,155.2,499.7,152.9,499.3z"/>
	<path d="M78.8,468.4c4.5-0.5,9-0.6,13.5,0.2c2,0.3,2.8-0.6,1.7-2.5c-1.2-1.9-4.1-4.1-6.4-4.4c-5.2-0.8-10.2-1.1-15.4-0.5
		C68.2,461.7,75.9,468.8,78.8,468.4z"/>
	<path d="M124.6,461.7c-5.2-0.8-10.2-1.1-15.4-0.5c-4,0.5,3.7,7.5,6.6,7.2c4.5-0.5,9-0.6,13.5,0.2c2,0.3,2.8-0.6,1.7-2.5
		C129.8,464.2,126.9,462.1,124.6,461.7z"/>
	<path d="M166.4,461.7c-5.2-0.8-10.2-1.1-15.4-0.5c-4,0.5,3.7,7.5,6.6,7.2c4.5-0.5,9-0.6,13.5,0.2c2,0.3,2.8-0.6,1.7-2.5
		C171.6,464.2,168.7,462.1,166.4,461.7z"/>
	<path d="M161,480.3c-5.2-0.8-10.2-1.1-15.4-0.5c-4,0.5,3.7,7.5,6.6,7.2c4.5-0.5,9-0.6,13.5,0.2c2,0.3,2.8-0.6,1.7-2.5
		C166.2,482.8,163.3,480.6,161,480.3z"/>
	<path d="M189.1,487c4.5-0.5,9-0.6,13.5,0.2c2,0.3,2.8-0.6,1.7-2.5c-1.2-1.9-4.1-4.1-6.4-4.4c-5.2-0.8-10.2-1.1-15.4-0.5
		C178.5,480.3,186.3,487.3,189.1,487z"/>
	<path d="M230.9,487c4.5-0.5,9-0.6,13.5,0.2c2,0.3,2.8-0.6,1.7-2.5c-1.2-1.9-4.1-4.1-6.4-4.4c-5.2-0.8-10.2-1.1-15.4-0.5
		C220.3,480.3,228.1,487.3,230.9,487z"/>
	<path d="M266.8,488.1c4.5-0.5,9-0.6,13.5,0.2c2,0.3,2.8-0.6,1.7-2.5c-1.2-1.9-4.1-4.1-6.4-4.4c-5.2-0.8-10.2-1.1-15.4-0.5
		C256.2,481.4,264,488.4,266.8,488.1z"/>
	<path d="M308.7,488.1c4.5-0.5,9-0.6,13.5,0.2c2,0.3,2.8-0.6,1.7-2.5c-1.2-1.9-4.1-4.1-6.4-4.4c-5.2-0.8-10.2-1.1-15.4-0.5
		C298,481.4,305.8,488.4,308.7,488.1z"/>
	<path d="M411.3,484.2c4.5-0.5,9-0.6,13.5,0.2c2,0.3,2.8-0.6,1.7-2.5c-1.2-1.9-4.1-4.1-6.4-4.4c-5.2-0.8-10.2-1.1-15.4-0.5
		C400.7,477.5,408.5,484.6,411.3,484.2z"/>
	<path d="M447.2,485.3c4.5-0.5,9-0.6,13.5,0.2c2,0.3,2.8-0.6,1.7-2.5c-1.2-1.9-4.1-4.1-6.4-4.4c-5.2-0.8-10.2-1.1-15.4-0.5
		C436.6,478.6,444.4,485.7,447.2,485.3z"/>
	<path d="M489.1,485.3c4.5-0.5,9-0.6,13.5,0.2c2,0.3,2.8-0.6,1.7-2.5c-1.2-1.9-4.1-4.1-6.4-4.4c-5.2-0.8-10.2-1.1-15.4-0.5
		C478.4,478.6,486.2,485.7,489.1,485.3z"/>
	<path d="M449.6,463.8c2,0.3,2.8-0.6,1.7-2.5c-1.2-1.9-4.1-4.1-6.4-4.4c-5.2-0.8-10.2-1.1-15.4-0.5c-4,0.5,3.7,7.5,6.6,7.2
		C440.6,463.1,445.1,463.1,449.6,463.8z"/>
	<path d="M491.4,463.8c2,0.3,2.8-0.6,1.7-2.5c-1.2-1.9-4.1-4.1-6.4-4.4c-5.2-0.8-10.2-1.1-15.4-0.5c-4,0.5,3.7,7.5,6.6,7.2
		C482.4,463.1,486.9,463.1,491.4,463.8z"/>
	<path d="M424.5,497c-5.2-0.8-10.2-1.1-15.4-0.5c-4,0.5,3.7,7.5,6.6,7.2c4.5-0.5,9-0.6,13.5,0.2c2,0.3,2.8-0.6,1.7-2.5
		C429.6,499.5,426.8,497.4,424.5,497z"/>
	<path d="M460.4,498.1c-5.2-0.8-10.2-1.1-15.4-0.5c-4,0.5,3.7,7.5,6.6,7.2c4.5-0.5,9-0.6,13.5,0.2c2,0.3,2.8-0.6,1.7-2.5
		C465.5,500.6,462.7,498.5,460.4,498.1z"/>
	<path d="M502.2,498.1c-5.2-0.8-10.2-1.1-15.4-0.5c-4,0.5,3.7,7.5,6.6,7.2c4.5-0.5,9-0.6,13.5,0.2c2,0.3,2.8-0.6,1.7-2.5
		C507.4,500.6,504.5,498.5,502.2,498.1z"/>
	<path d="M201.7,468.1c4.5-0.5,9-0.6,13.5,0.2c2,0.3,2.8-0.6,1.7-2.5c-1.2-1.9-4.1-4.1-6.4-4.4c-5.2-0.8-10.2-1.1-15.4-0.5
		C191.1,461.4,198.9,468.4,201.7,468.1z"/>
	<path d="M238.7,468.1c4.5-0.5,9-0.6,13.5,0.2c2,0.3,2.8-0.6,1.7-2.5c-1.2-1.9-4.1-4.1-6.4-4.4c-5.2-0.8-10.2-1.1-15.4-0.5
		C228.1,461.4,235.8,468.4,238.7,468.1z"/>
	<path d="M280.5,468.1c4.5-0.5,9-0.6,13.5,0.2c2,0.3,2.8-0.6,1.7-2.5c-1.2-1.9-4.1-4.1-6.4-4.4c-5.2-0.8-10.2-1.1-15.4-0.5
		C269.9,461.4,277.7,468.4,280.5,468.1z"/>
	<path d="M413.4,464.2c2,0.3,2.8-0.6,1.7-2.5c-1.2-1.9-4.1-4.1-6.4-4.4c-5.2-0.8-10.2-1.1-15.4-0.5c-4,0.5,3.7,7.5,6.6,7.2
		C404.3,463.5,408.9,463.5,413.4,464.2z"/>
	<path d="M112.1,478.5c-17.2-2.2-34.4-2.2-51.6,0c-3.8,0.5-1.8,3.9-0.1,5.8c2.2,2.5,7.3,6.6,11,6.1c17.2-2.2,34.4-2.2,51.6,0
		c4.2,0.5,1.2-4.5,0.1-5.8C120.4,481.5,116.3,479,112.1,478.5z"/>
	<path d="M330.1,474.7c4.7,0.3,9.4,0.6,14.2,0.9c0.3,4.1,0.6,8.2,1,12.4c0.1,1,1.7,2,2.7,2c11.7,0,23.5,0,35.2,0
		c0.2,0,0.5-0.1,0.5-0.3c-0.4-11.1-0.8-22.2-1.3-33.3c0-1-1.5-1.8-2.3-2c-17.3-4.2-34.8-2.3-52.2,0c-0.1,0-0.2,0-0.2,0.1
		c-0.1,0-0.2,0.1-0.2,0.3c0,6,0.1,12,0.1,18C327.4,473.7,329.2,474.7,330.1,474.7z"/>
</g>
<path d="M2055-231"/>
</svg>
