<?xml version="1.0" encoding="utf-8"?>
<!-- Generator: Adobe Illustrator 23.0.1, SVG Export Plug-In . SVG Version: 6.00 Build 0)  -->
<svg version="1.1" id="Layer_3" xmlns="http://www.w3.org/2000/svg" xmlns:xlink="http://www.w3.org/1999/xlink" x="0px" y="0px"
	 viewBox="0 0 566.9 566.9" enable-background="new 0 0 566.9 566.9" xml:space="preserve">
<path d="M292,314.6c-0.3-8-1.9-24.4-4.6-29.7c-2.7-5.3-22.1-23.8-28.4-26.2c-12.9-4.9-27.3-4.2-40.9-3.1c-7.3,0.6-14.6,1.3-21.9,1.4
	c-8.2,0.1-16.4-0.4-24.6,0c-12.8,0.7-29,4.1-37.9,13.6c-3.8,4-5.2,9.2-6.3,14.4c-1.5,7.4-2,15-2.1,22.6c0,3.6,0,7.1,0.1,10.7
	c0.1,3.1-0.3,6.7,0.6,9.7c0.6,2,1.2,2.9,3.3,3.5c4,1,9.5,0.3,13.7,0.4c15.6,0.5,31.2,1,46.9,1.5c16.1,0.5,32.4,1.5,48.5,1.1
	c8.3-0.2,16.4-1.2,24.6-2.1c4.4-0.5,8.7-1,13.1-1.2c3.6-0.2,8.4,0.8,11.8-0.2C293.8,329.2,292.2,318.9,292,314.6z M281.7,320.8
	c-3.8,0-7.5,0.2-11.2,0.5c-15.6,1.4-30.8,3.3-46.6,2.9c-15.6-0.3-31.2-1-46.7-1.5c-7.8-0.3-15.6-0.5-23.4-0.8
	c-3.9-0.1-7.8-0.3-11.7-0.4c-3.3-0.1-8,0.4-11.5-0.2c-0.3-3.1,0.1-7.4,0.1-10.2c0-4.3,0-8.6,0.4-12.8c0.8-8.4,1.5-16.9,9.5-22
	c15.7-10.1,34.7-9,52.8-8.9c17.9,0.1,35.4-3,53.3-1.6c7.2,0.6,17.1,4.1,22.6,8.8c2.9,2.5,9.3,7.7,12.3,12.9s5.1,23.3,5.1,30.7
	c0,0.9,0,1.9,0,2.8C285.4,321.4,283.1,320.8,281.7,320.8z"/>
<path d="M296.8,331c3.4,1,8.2,0,11.8,0.2c4.4,0.2,8.8,0.7,13.1,1.2c8.2,1,16.3,1.9,24.6,2.1c16.1,0.4,32.4-0.6,48.5-1.1
	c15.6-0.5,31.2-1,46.9-1.5c4.2-0.1,9.7,0.6,13.7-0.4c2.1-0.6,2.8-1.5,3.3-3.5c0.9-3,0.5-6.6,0.6-9.7c0.1-3.6,0.2-7.1,0.1-10.7
	c-0.1-7.6-0.6-15.2-2.1-22.6c-1.1-5.2-2.5-10.4-6.3-14.4c-9-9.5-25.1-12.9-37.9-13.6c-8.2-0.4-16.4,0.1-24.6,0
	c-7.3-0.1-14.6-0.8-21.9-1.4c-13.6-1.2-28-1.8-40.9,3.1c-6.3,2.4-25.7,20.9-28.4,26.2c-2.7,5.3-4.3,21.7-4.6,29.7
	C292.5,318.9,290.9,329.2,296.8,331z M298.1,320.9c0-0.9,0-1.9,0-2.8c0-7.4,2.1-25.5,5.1-30.7s9.4-10.3,12.3-12.9
	c5.5-4.7,15.4-8.2,22.6-8.8c17.9-1.4,35.5,1.7,53.3,1.6c18-0.1,37-1.2,52.8,8.9c7.9,5.1,8.7,13.6,9.5,22c0.4,4.3,0.4,8.6,0.4,12.8
	c0,2.9,0.4,7.1,0.1,10.2c-3.5,0.6-8.2,0.1-11.5,0.2c-3.9,0.1-7.8,0.3-11.7,0.4c-7.8,0.3-15.6,0.5-23.4,0.8
	c-15.6,0.5-31.1,1.1-46.7,1.5c-15.8,0.3-30.9-1.5-46.6-2.9c-3.7-0.3-7.5-0.6-11.2-0.5C301.6,320.8,299.3,321.4,298.1,320.9z"/>
<path d="M556.3,228.5c-0.3-8.2-1.2-15.3-6.5-21.8c-7.4-9.1-19.5-11.5-30.8-12.2c-11.3-0.6-23.1,1.4-33.1,7
	c-11.4,6.3-23.4,19.1-23.9,32.8c-0.7,17.6-1.1,35.1-1.6,52.7c-1.2,39-2.4,72.3-3.6,111.3c-3,0-6,0-8.9,0
	c-26.6,0.1-53.3,0.2-79.9,0.3c-24.7-0.4-49.4,0-74.2,0.2c-0.5,0-2.2,0-2.7,0c-24.7-0.3-49.4-0.6-74.2-0.2
	c-26.6-0.1-53.3-0.2-79.9-0.3c-3,0-6,0-8.9,0c-1.2-39-2.4-72.3-3.6-111.3c-0.5-17.6-1-35.1-1.6-52.7c-0.5-13.7-12.5-26.5-23.9-32.8
	c-10-5.6-21.8-7.6-33.1-7c-11.2,0.6-23.4,3-30.8,12.2c-5.3,6.5-6.1,13.6-6.5,21.8c-0.3,8.5,0.1,17.2,1.2,25.7c1,8,3.8,13.4,9.4,19.5
	c5.6,6,12.5,10.2,19.7,13.8c-0.4,0.9-0.7,1.8-1,2.7c-2.1,6.1-3.7,12.3-5.1,18.6c-2.8,12.3-4.5,24.7-5.1,37.3
	c-0.6,12.6-0.2,25.3,1.5,37.8c1.5,11,4.4,21.7,10.5,31.1c0.4,0.6,1.4,0.9,2,0.5c2.9-1.6,5.9-1.6,9-1.2c0,0.2,0,0.3,0,0.4
	c0.3,4.8,0.7,9.5,1,14.3c0.3,3.6,0.3,7.5,1.9,10.9c3.2,7.1,14,7.2,20.7,8c3.9,0.5,8.8,1.6,12.7,0.8c3.1-0.7,4.6-3.3,5.5-6.1
	c2.5-7.7,1.2-16.7,0.9-24.8c0-0.1,0-0.3,0-0.4c4.1-0.1,8.2-0.6,12.3-0.6c5.2,0,1.7-6.7,2.1-7.8c16.3,1.7,32.7,0.9,49,0.6
	c13.3-0.2,26.7-0.5,40-0.7c24.7,0.1,49.4,0.2,74.2,0.2c0.5,0,2.2,0,2.7,0c24.7-0.1,49.4-0.2,74.2-0.2c13.3,0.2,26.7,0.5,40,0.7
	c16.3,0.3,32.7,1,49-0.6c0.4,1.1-3.1,7.8,2.1,7.8c4.1,0,8.2,0.5,12.3,0.6c0,0.1,0,0.3,0,0.4c-0.3,8-1.6,17.1,0.9,24.8
	c0.9,2.8,2.5,5.5,5.5,6.1c3.9,0.9,8.8-0.3,12.7-0.8c6.7-0.8,17.5-0.9,20.7-8c1.5-3.4,1.6-7.3,1.9-10.9c0.3-4.8,0.7-9.5,1-14.3
	c0-0.1,0-0.3,0-0.4c3.1-0.4,6.2-0.4,9,1.2c0.6,0.4,1.6,0.1,2-0.5c6.2-9.4,9-20,10.5-31.1c1.7-12.5,2.2-25.2,1.5-37.8
	c-0.6-12.6-2.3-25-5.1-37.3c-1.4-6.3-3.1-12.5-5.1-18.6c-0.3-0.9-0.6-1.8-1-2.7c7.2-3.7,14.2-7.8,19.7-13.8
	c5.6-6.1,8.4-11.5,9.4-19.5C556.2,245.7,556.6,237,556.3,228.5z M108.4,434.6c-0.6,4.6-2.7,4-6.4,3.8c-3.2-0.2-6.4-0.5-9.5-1
	c-2.9-0.4-5.8-0.9-8.6-1.5c-3.4-0.7-6.2-0.9-6.9-4.7c-0.7-4-0.9-8.2-1.1-12.4c10.8,0.9,21.6,1.9,32.4,2.8
	C108.6,426,108.9,430.5,108.4,434.6z M90.1,406.4c-5.8-0.5-11.5-1.2-17.2-2.1c-4-0.6-7.9-1-11.6,0.5c-4.8-7.9-6.6-17-7.7-26
	c-1.2-10.3-1.6-20.6-1.1-30.9c0.4-10,1.7-20.1,3.7-29.9c1.1-5.3,2.4-10.6,3.9-15.8c1.2-4,4.4-11.5,17.1-11.5c3.1,0,2.7-9.7,0-10
	c-19.6-2.5-27.3-7.8-33.8-14.1c-2.8-2.7-5.9-6.1-7.7-9.7c0.2,0.3-0.4-1.2-0.3-1.1c-0.2-1.2-0.4-2.4-0.6-3.5
	c-0.9-6.8-1.3-13.8-1.2-20.7c0.1-6,0.1-11.1,4-15.9c7.6-9.4,21.7-11,33.1-10.9c11,0.1,21.9,3,31,9.3c3.9,2.7,7.3,5.9,10.1,9.7
	c1.5,2,2.8,4.1,3.9,6.3c0.3,0.7,1.8,4.6,1.9,3.7c0.1,0.9,0,1.8,0,2.7c1.3,42.5,2.6,85.1,4,127.6c0.4,14.1,0.9,28.3,1.3,42.4
	C112,407.3,101,407.3,90.1,406.4z M507.7,431.2c-0.7,3.8-3.4,3.9-6.9,4.7c-2.8,0.6-5.7,1.1-8.6,1.5c-3.2,0.4-6.4,0.8-9.5,1
	c-3.7,0.2-5.8,0.8-6.4-3.8c-0.6-4.1-0.2-8.6,0.1-12.9c10.8-0.9,21.6-1.9,32.4-2.8C508.6,423,508.4,427.2,507.7,431.2z M550,252.3
	c-0.2,1.2-0.3,2.4-0.6,3.5c0-0.2-0.5,1.3-0.3,1.1c-1.8,3.5-4.9,6.9-7.7,9.7c-6.5,6.4-14.2,11.6-33.8,14.1c-2.7,0.3-3.1,10,0,10
	c12.7,0,15.9,7.6,17.1,11.5c1.5,5.2,2.8,10.5,3.9,15.8c2,9.9,3.2,19.9,3.7,29.9c0.4,10.3,0.1,20.7-1.1,30.9c-1.1,9-2.9,18.2-7.7,26
	c-3.7-1.6-7.5-1.1-11.6-0.5c-5.7,0.8-11.4,1.6-17.2,2.1c-10.9,0.9-21.8,0.9-32.7,0.3c0.4-14.1,0.9-28.3,1.3-42.4
	c1.3-42.5,2.6-85.1,4-127.6c0-0.9,0-1.8,0-2.7c0,0.9,1.5-3,1.9-3.7c1.1-2.2,2.4-4.4,3.9-6.3c2.9-3.7,6.3-7,10.1-9.7
	c9.1-6.3,20-9.2,31-9.3c11.4-0.1,25.5,1.5,33.1,10.9c3.9,4.8,3.9,9.9,4,15.9C551.3,238.5,550.9,245.4,550,252.3z"/>
<path d="M541.4,200.7c4.2-17.8-1-42.4-15.2-55.9c-30-28.5-77.9-20.5-116.9-23.2c-11.4-0.8-22.8-2.6-34.3-3
	c-11.9-0.4-23.5,1.2-35,3.8c-9.6,2.2-19.4,4.5-28.6,7.7c-6.9,2.4-12.9,5.8-17,11.2c-4.2-5.3-10.2-8.7-17-11.2
	c-9.2-3.3-19-5.5-28.6-7.7c-11.5-2.6-23.1-4.2-35-3.8c-11.5,0.4-22.8,2.2-34.3,3c-39,2.8-86.8-5.2-116.9,23.2
	c-14.2,13.5-22.6,38.3-18.4,56.1c-3.8,0.8,0.4,5.4,4.2,5.1c20.5-1.5,26.3-10.4,5.6-10.6c0-1.1,2-34.3,15-44.7
	c12.7-10.2,30-14.9,46.6-16.7c20.2-2.2,40.6-0.7,60.8-1.9c20.8-1.2,40.7-5,61.5-1.5c10.9,1.8,21.7,4.7,32.2,7.7
	c8.2,2.4,17.4,5.5,21.8,12.7c0.9,1.4,1.7,1.7,2.4,1.3c0.7,0.4,1.6,0.1,2.4-1.3c4.4-7.2,13.6-10.3,21.8-12.7
	c10.6-3.1,21.3-5.9,32.2-7.7c20.8-3.5,40.7,0.3,61.5,1.5c20.3,1.2,40.6-0.3,60.8,1.9c16.6,1.8,33.9,6.5,46.6,16.7
	c13,10.4,16.3,25.5,12.1,40.9c-0.2,0.8-1.9,4.4-1.9,5.5c-20.7,0.2-10.1,7.4,10.4,8.9C544.2,206.3,545.1,201.6,541.4,200.7z"/>
<path d="M121.8,332c21.5,4.3,44.1,3.5,66,3.7c22.3,0.3,44.7,0.3,67,0.2c44.4-0.3,88.7-1.4,133-3.4c25.1-1.1,50.2-2.5,75.3-4.2
	c3.9-0.3,3.7-11.2,0-11c-88.7,5.8-177.6,8.3-266.5,7.5c-24.7-0.2-50.5,1.1-74.8-3.8C118.4,320.3,117.8,331.2,121.8,332L121.8,332z"
	/>
<path d="M291.1,146.2c0.1,34,1.9,68,1.7,102c-0.1,16.7-0.6,33.4-2.3,50.1c-1.1,10.8-4.1,23.9-0.4,34.4c2.4,6.8,6.1-1.7,4.7-5.6
	c-1.5-4.2-0.7-9.7-0.3-14c0.6-7,1.5-14,2.1-21c1.2-15.9,1.7-31.8,1.7-47.7c0.1-32.8-1.6-65.5-1.7-98.3c0-1.6-0.5-5.5-2.8-5.5
	C291.6,140.7,291.1,144.7,291.1,146.2L291.1,146.2z"/>
</svg>
