<?xml version="1.0" encoding="utf-8"?>
<!-- Generator: Adobe Illustrator 15.1.0, SVG Export Plug-In . SVG Version: 6.00 Build 0)  -->
<!DOCTYPE svg PUBLIC "-//W3C//DTD SVG 1.1//EN" "http://www.w3.org/Graphics/SVG/1.1/DTD/svg11.dtd">
<svg version="1.1" id="Layer_3" xmlns="http://www.w3.org/2000/svg" xmlns:xlink="http://www.w3.org/1999/xlink" x="0px" y="0px"
	 width="566.93px" height="566.93px" viewBox="0 0 566.93 566.93" enable-background="new 0 0 566.93 566.93" xml:space="preserve">
<path d="M199.94,168.323c0.904,1.915-0.083-0.45-0.235-0.985c-0.515-1.814-0.641-3.183-0.723-5.014
	c-0.312-6.907,1.875-13.857,4.827-20.021c2.484-5.19,5.645-10.036,9.073-14.643c2.02-2.715,5.032-5.3,6.239-8.507
	c1.087-2.888,0.648-6.579,0.691-9.615c0.136-9.791-0.504-20.119-4.011-29.356c-4.433-11.673-13.885-16.759-25.168-20.325
	c-9.395-2.969-19.157-2.964-28.327-7.064c-8.877-3.969-16.386-10.957-19.856-20.14c-2.603,2.236-5.205,4.473-7.808,6.709
	c5.515,13.443,12.943,24.881,23.711,34.647c8.378,7.599,16.673,14.14,21.017,24.979c1.533,3.825,2.124,6.212,1.123,10.203
	c-0.993,3.958-1.957,7.923-2.844,11.906c-1.549,6.952-2.695,14.03-2.739,21.167c-0.083,13.826,6.578,25.423,15.855,35.222
	c3.564,3.764,9.929-5.381,6.979-8.498c-9.437-9.966-15.286-20.697-14.631-34.662c0.332-7.07,2.118-14.129,3.752-20.985
	c0.91-3.816,2.925-8.384,2.859-12.307c-0.054-3.223-1.814-6.927-2.998-9.882c-4.106-10.245-11.591-17.221-19.763-24.263
	c-11.037-9.51-18.971-20.726-24.514-34.236c-2.235-5.448-9.283,2.806-7.808,6.709c4.168,11.027,12.608,18.958,23.275,23.727
	c6.702,2.997,14.063,4.444,21.334,5.098c3.763,0.338,7.621,1.944,11.188,3.223c6.833,2.449,12.484,6.09,16.152,12.497
	c6.142,10.727,5.41,25.326,4.909,37.167c0.662-1.725,1.323-3.449,1.985-5.174c-10.34,12.367-19.72,26.834-22.138,43.088
	c-0.861,5.792-0.942,12.417,1.616,17.833C194.944,181.016,201.814,172.29,199.94,168.323L199.94,168.323z"/>
<path d="M354.037,198.118c-3.988-3.304-7.704-8.303-10.149-13.179c-1.828-3.645-2.828-8.378-1.668-12.366
	c2.028-6.97,9.608-11.236,15.192-15.047c8.02-5.475,17.602-9.768,24.645-16.542c6.21-5.972,7.953-13.816,8.234-22.148
	c-2.704,1.501-5.407,3.002-8.111,4.503c-0.143,6.767,1.108,15.864,0.283,21.639c-0.11,0.775-0.34,1.265-0.1,0.772
	c-0.743,1.523-0.447,0.912-1.649,2.344c-2.706,3.225-5.997,6.001-9.076,8.854c-2.177,2.016-4.357,4.028-6.531,6.048
	c-2.68,2.489-6.435,5.01-7.767,8.549c-2.361,6.274-2.783,13.548-4.676,20.033c-0.481,1.648-1.024,3.277-1.611,4.891
	c-0.218,0.602-0.459,1.194-0.702,1.786c-0.609,1.483-0.061,0.213-0.364,0.8c-0.154,0.298-0.325,0.587-0.499,0.874
	c-0.559,0.922,0.972-1.256,0.204-0.333c0.5-0.601,1.353-1.213,2.486-1.664c-2.565,1.021-4.383,3.324-4.896,6.06
	c-0.324,1.726,0.435,5.074,2.99,4.057c3.538-1.408,5.25-4.885,6.783-8.152c4.2-8.952,5.917-19.411,7.795-29.021
	c-0.946,1.639-1.893,3.278-2.839,4.917c6.042-5.685,12.236-11.217,18.188-16.996c3.49-3.388,6.88-6.941,8.858-11.45
	c1.441-3.283,1.684-6.846,1.6-10.386c-0.144-6.052-0.494-12.065-0.366-18.125c0.052-2.454-2.079-3.527-4.134-2.386
	c-2.411,1.338-3.887,4.195-3.978,6.889c-0.28,8.306-2.379,10.608-9.352,15.01c-11.539,7.284-25.635,14.114-33.605,25.537
	c-10.561,15.135-4.024,33.025,9.189,43.976C351.778,210.65,357.705,201.157,354.037,198.118z"/>
<path d="M281.808,345.448c-15.512,7.325-29.722,18.779-41.177,31.405c-22.194,24.465-30.165,57.383-17.491,88.433
	c6.955,17.039,18.402,31.805,31.052,44.991c2.8-4.054,5.601-8.106,8.402-12.16c-10.111-3.604-19.866-8.497-29.271-13.622
	c-20.441-11.139-39.715-24.968-55.531-42.13c-18.581-20.161-31.651-45.236-33.589-72.883
	c-2.718-38.768,15.951-75.476,38.241-105.898c1.255-1.713,2.54-3.405,3.827-5.094c-2.656,0.192-5.311,0.384-7.966,0.576
	c1.973,10.59,5.486,20.885,10.006,30.649c3.818,8.249,8.511,17.199,16.275,22.398c4.718,3.159,9.033-6.28,9.157-9.497
	c1.269-32.821,2.116-66.015,12.319-97.55c13.409-41.441,41.71-75.428,73.555-104.292c10.548-9.561,21.59-18.569,32.865-27.256
	c-2.294-0.74-4.587-1.479-6.88-2.219c-2.039,23.399-6.214,46.503-12.8,69.051c-4.192,14.354-9.405,28.659-10.814,43.639
	c-1.775,18.875,2.439,37.761,10.108,54.981c9.402,21.113,24.116,39.159,34.434,59.759c5.95,11.88,9.131,24.72,8.379,38.024
	c-0.135,2.391,1.712,4.36,4.136,3.742c2.818-0.719,5.136-3.657,6.026-6.301c6.963-20.658,13.36-41.766,14.973-63.609
	c1.2-16.26-1.897-32.226-8.159-47.21c-2.985,3.656-5.97,7.312-8.955,10.968c17.902,12.417,30.119,33.497,38.755,53.194
	c11.342,25.87,17.772,54.132,18.176,82.391c0.203,14.31-1.399,28.559-5.001,42.416c-3.369,12.961-9.312,25.966-16.745,36.478
	c-19.868,28.093-51.586,43.396-84.535,50.545c-4.24,0.92-8.515,1.676-12.8,2.353c0.875,2.998,1.75,5.996,2.626,8.994
	c9.097-16.016,16.316-33.457,21.878-50.982c8.719-27.471,15.05-61.039-0.049-87.48c-8.619-15.094-24.378-23.425-40.742-27.481
	c-5.543-1.374-11.877,12.058-5.16,13.723c15.322,3.799,29.037,11.849,37.005,25.804c6.895,12.073,7.7,26.765,6.645,40.307
	c-1.114,14.292-4.991,28.197-9.649,41.574c-2.15,6.178-4.561,12.265-7.139,18.275c-1.056,2.463-2.154,4.908-3.275,7.343
	c-0.256,0.555-0.516,1.107-0.774,1.661c-0.856,1.827,0.705-1.472-0.138,0.29c-0.532,1.114-1.075,2.224-1.622,3.33
	c-1.521,3.078-3.078,6.151-4.774,9.138c-1.682,2.961-2.829,9.855,2.626,8.994c36.31-5.734,71.116-20.056,96.384-47.449
	c20.619-22.354,31.938-52.081,35.037-82.055c3.031-29.302-0.966-59.154-9.991-87.121c-7.587-23.513-18.933-47.195-35.871-65.454
	c-4.034-4.348-8.487-8.393-13.365-11.776c-4.655-3.229-10.514,7.238-8.955,10.968c5.638,13.491,8.506,27.232,7.894,41.876
	c-0.844,20.174-7.413,40.145-13.807,59.111c3.388-0.853,6.774-1.705,10.162-2.559c1.295-22.903-8.643-42.896-20.452-61.813
	c-12.607-20.193-25.704-39.714-30.869-63.344c-6.987-31.964,8.49-61.66,15.147-92.4c3.419-15.789,5.466-31.814,6.867-47.898
	c0.405-4.645-4.363-4.158-6.88-2.219c-39.555,30.476-77.445,66.161-100.454,111.148c-16.218,31.71-22.548,66.081-24.707,101.341
	c-0.674,11.008-1.022,22.035-1.448,33.054c3.052-3.166,6.105-6.331,9.157-9.497c-6.978-4.673-11.247-13.582-14.574-21.008
	c-3.994-8.912-7.009-18.393-8.797-27.995c-0.847-4.548-6.367-1.521-7.966,0.576c-25.086,32.907-46.135,71.421-47.558,113.665
	c-0.978,29.021,9.472,56.908,27.121,79.682c23.348,30.128,58.145,53.115,93.624,66.632c0.385,0.147,0.771,0.293,1.16,0.432
	c5.096,1.816,12.342-8.053,8.402-12.16c-15.556-16.216-29.691-35.056-34.604-57.396c-3.114-14.158-0.542-29.096,5.674-40.743
	c9.552-17.902,26.459-31.753,44.514-41.485c0.968-0.521,1.943-1.037,2.938-1.507C287.222,355.358,289.902,341.626,281.808,345.448z"
	/>
<path d="M-36.525,523.217c9.534-2.269,19.327-3.656,29.018-5.026c29.338-4.149,58.941-6.378,88.529-7.716
	c49.639-2.244,99.394-1.608,149.014,0.763c31.862,1.523,63.637,4.329,95.488,6.009c29.973,1.58,59.99,2.291,90.004,2.2
	c79.82-0.242,160.508-5.721,238.972-20.993c9.149-1.781,18.326-3.643,27.318-6.115c2.693-0.74,4.933-7.751,1.271-6.744
	c-18.031,4.958-36.668,8.06-55.104,11.032c-38.076,6.14-76.495,10.135-114.97,12.699c-54.654,3.642-109.508,4.138-164.234,2.007
	c-32.057-1.248-64.005-3.999-96.023-5.882c-28.483-1.675-57.004-2.719-85.534-3.082c-63.512-0.808-128.269,0.78-190.995,11.839
	c-3.837,0.677-7.69,1.363-11.482,2.266C-37.979,517.121-40.253,524.104-36.525,523.217L-36.525,523.217z"/>
</svg>
