<?xml version="1.0" encoding="utf-8"?>
<!-- Generator: Adobe Illustrator 23.0.1, SVG Export Plug-In . SVG Version: 6.00 Build 0)  -->
<svg version="1.1" id="Layer_1" xmlns="http://www.w3.org/2000/svg" xmlns:xlink="http://www.w3.org/1999/xlink" x="0px" y="0px"
	 viewBox="0 0 566.9 566.9" style="enable-background:new 0 0 566.9 566.9;" xml:space="preserve">
<style type="text/css">
	.st0{display:none;}
</style>
<g id="Layer_3" class="st0">
	
		<image style="display:inline;overflow:visible;enable-background:new    ;" width="1200" height="776" xlink:href="../References/wood-wide-widths.jpg"  transform="matrix(0.4674 0 0 0.4674 3.0114 204.21)">
	</image>
</g>
<g>
	<path d="M586-64.9c-0.9-2.1-3.1-4.3-5.5-4.7c-28.3-5.6-57.3-0.8-85.9-1.9c-27.1-1-53.9-4.7-81-3.7c-2.4-0.8-4.3-0.8-4.6,0.4
		c-5.3,30.6-4.2,61.5-3.9,92.3c0.2,15.3,0.1,30.6-1,45.9c-1.1,13.3-5.6,28.1-2.7,41.4c-0.6,17.3-0.1,34.8,0,52.2
		c0.2,15.3,0.1,30.6-1,45.9c-1.1,14.5-6.6,30.9-1.7,45.1c1,3,4.3,4.9,7.1,5.9c0.7,0.3,7.1,2,6.1-0.8c-4.6-13.7,0.2-28.8,1.5-42.7
		c1.4-15.3,1.5-30.6,1.2-45.9c-0.1-16.4-0.6-33-0.2-49.4c1-0.1,1.5-0.5,1.2-1.5c-0.5-1.3-0.7-2.7-1-3.9c0.5-12.8,1.5-25.7,3.7-38.3
		c0.1-0.9-0.2-1.9-1-2.8c1.1-14.5,1.2-29.1,1.1-43.5c-0.4-30.7-1.7-61.6,3.5-91.9c26.5-0.6,52.8,3,79.1,3.9
		c27.8,0.9,55.9-3.7,83.5,1.8C586.9-60.5,586.5-63.5,586-64.9z"/>
	<path d="M545.3,74.2c0.6,19.1,1.9,38.2,0,57.3c-0.4,3.3,8.6,6.7,8.9,2.8c1.9-19,0.7-38.2,0-57.3C554.1,73.7,545.2,70.5,545.3,74.2
		L545.3,74.2z"/>
	<path d="M155.2-154c0,0-0.8,182.3-5.6,273.3c-1.6,31.4-3.6,62.7-5.8,94.1c-0.1,2.3,1,4.2,3.2,3.3c2.4-1,3.1-5.8,3.2-8
		C157.4,107.3,161.6,5.6,162-96.2c0.1-19.3-0.2-57.8-0.2-57.8L155.2-154z"/>
	<path d="M526.8,275c-31.9,17.5-63.8,35.5-95.4,53.7c-1.1-0.4-2.2-0.8-3.2-1c-0.4-0.1-0.9-0.3-1.1-0.4c-4.2-1.3-8.6-2.3-12.7-3.4
		c-1.2-0.3-2.5-0.6-3.9-0.9c-6-1.5-12.2-3-18.3-5.1l-1.1-0.4c-2.6-0.9-5.6-1.8-8.1-3c30.3-15.8,60.5-31.9,90.2-48.1
		C490.4,269.4,508.1,272.2,526.8,275z M445.3,262.1c6.7,1.1,13.4,2.3,20.4,3.3c-28.6,15.4-57.5,30.9-86.9,46.2
		c-0.5-0.3-1-0.3-1.6-0.1c-1,0.3-2,1.3-2.5,2.3c-13.4,7-27,13.9-40.5,20.9c-1.6-1.4-4.1-2-6.1-2.5c-0.5-0.1-0.9-0.3-1.2-0.4
		c-4.6-1.4-9.3-2.5-13.9-3.7c-1.4-0.4-2.9-0.6-4.2-1c-6.6-1.6-13.5-3.4-20.1-5.4l-1.2-0.4c-2.2-0.6-4.5-1.4-6.7-2.4
		c3-1.4,6.1-2.8,9.1-4.2c45.2-20.9,86.8-39.6,127.3-57.3C426.5,259.1,436,260.6,445.3,262.1z M264.3,234c8.8,1.3,17.6,2.5,26.5,3.9
		c16.6,2.5,32.5,4.9,47.6,7.2c-23.3,9.5-46.8,19.1-70,28.6c-2.5-0.8-5.3-1.1-7.8-1.5c-1-0.1-1.9-0.3-2.5-0.4
		c-7.6-1.4-15.3-2.7-22.6-3.8c-2.5-0.4-5-0.8-7.5-1.1c-10.2-1.6-21.6-3.5-32.7-5.8c-1-0.3-2-0.4-3.1-0.6c-4.3-0.9-9.2-1.9-13.5-3.5
		c22.4-7.3,46.7-15.2,75-24.3C257.3,233,260.7,233.5,264.3,234z M74.7,276.9c-1-0.1-1.9-0.3-2.6-0.4c-7.6-1.4-15.3-2.7-22.7-3.8
		c-2.5-0.4-5-0.8-7.5-1.1c-10.2-1.6-21.7-3.4-32.9-5.8c-1-0.3-2.1-0.4-3.1-0.6c-4.3-0.9-9.1-1.8-13.3-3.4c14-4,28.2-8.2,42.1-12.4
		c33.5-10.1,69.2-21.2,112.2-35c0.1,0,0.1,0.1,0.2,0.1c31.9,6.8,64.6,11.9,96.8,16.7c-22.2,7.2-46.1,14.9-70.9,23
		c-0.7-0.1-1.5,0.3-2.1,0.6c-27,8.9-55.1,18.1-83.6,27.6c0-0.5-0.1-0.9-0.4-1.3C84.6,278.1,78.9,277.4,74.7,276.9z M-4.9,382.5
		c-2.6-2.9-8.2-4.2-12.3-5.1c-1-0.3-1.7-0.4-2.5-0.5c-8.1-2.1-16.4-4-24.5-5.8c-2.6-0.6-5.1-1.1-7.7-1.8c-13-2.9-24-5.4-35.1-8.7
		c-0.7-0.3-1.6-0.5-2.5-0.8c-6.2-1.8-13.2-3.8-18.5-7.5c44.6-14.7,86.4-28.6,126.8-42.2l1-0.4c41.5-14,84.5-28.6,126.8-42.5
		c7.8-2.5,15.8-5.2,23.8-7.8c5.3,3.3,11.9,4.7,17.8,5.9l2.1,0.5c10.3,2.3,20.9,4,32.4,5.9c3.1,0.5,6.1,1,9.2,1.5
		c7.1,1.1,14.5,2.3,21.6,3.7c0.7,0.1,1.9,0.3,3,0.4c0.7,0.1,1.6,0.1,2.5,0.3c-6.7,2.8-13.4,5.4-20,8.2c-29.2,12-59.5,24.4-89.3,36.5
		C93.9,344.9,43.3,364.6-4.9,382.5z M159.5,352.9c-2-0.4-3.9-0.8-5.7-1.1c-7.8-1.6-16.8-3.4-25.3-5.7c-0.6-0.1-1.4-0.4-2-0.5
		c-4-1-8.3-2.1-12-4.2c34.7-13.8,69.1-27.9,102.7-41.9l9.8-4c14-5.8,27.1-11.1,39.5-16.2c0.7,0.4,1.2,0.8,1.6,1.1
		c0.4,0.5,0.9,0.8,1.5,0.8c0.1,0,0.1,0,0.2,0c1.2-0.1,2.5-1.4,3-2.5c0.4-0.9,0.2-1.5,0.1-2c27.6-11.3,51.5-21,74.4-30.3
		c21.7,3.3,42.1,6.6,61.4,9.6c-45,19.7-89.5,40-132.9,59.9c-0.4-0.3-0.7-0.6-1.1-1c-0.5-0.5-1.2-0.6-2-0.4c-1.2,0.4-2.5,1.6-2.7,2.9
		c-0.1,0.4-0.1,0.8,0,1.1c-24,11.1-47.6,22.1-70.5,32.9l-7.2,3.4c-2.5,1.1-5,2.3-7.3,3.4c-1.9-0.6-4-1-5.7-1.4
		c-0.7-0.1-1.4-0.3-1.9-0.4C171.3,355.3,165.4,354,159.5,352.9z M109.5,443c-0.9,0.3-1.9,1.1-2.5,2c-28.1,13-56.6,26-85.3,38.9
		c-1.9-1.8-4.8-2.8-7.2-3.4c-0.5-0.1-1-0.3-1.4-0.4c-5.3-1.8-10.9-3.3-16.4-4.7c-1.6-0.4-3.2-0.9-4.8-1.3
		c-7.1-1.9-15.2-4.2-22.9-6.8l-1.1-0.4c-2-0.6-4-1.4-6-2.3c40-17.2,81.6-35.7,125.6-55.9c31.9-14.7,64.1-29.7,95.6-44.4
		c0.4,0.3,0.7,0.5,1,0.9c0.2,0.5,0.7,0.8,1.5,0.8c0.4,0,0.9-0.1,1.4-0.5c1.1-0.8,2.5-2.4,1.9-3.9c1.7-0.8,3.5-1.6,5.2-2.4
		c26-12.1,52.8-24.7,79.4-37.1c6.3,4.3,15,6.3,22.9,8c2,0.4,3.9,0.9,5.6,1.3c2.2,0.5,4.3,1.1,6.6,1.6c4,1,8.1,2,12,3
		c0.5,0.1,1.1,0.3,2,0.5c1.4,0.3,3.5,0.8,5.1,1.4c-29.4,14.9-59,29.8-88.8,44.4c-41.5,20.4-84.1,40.7-127.7,60.8
		C110.6,442.9,110.1,442.9,109.5,443z M187.6,469.4c-2-1.8-5.3-2.7-7.9-3.4c-0.6-0.1-1.1-0.3-1.6-0.4c-6-1.9-12.2-3.4-18.1-4.9
		c-1.9-0.5-3.6-0.9-5.5-1.4c-7.8-2-16.8-4.3-25.3-7.1l-1.5-0.5c-4.2-1.4-8.7-2.9-12.5-5.2c78.2-36.3,154.9-73.7,227.7-110.9
		c11.3-5.8,22.6-11.6,33.9-17.5c6,4.6,14.4,6.6,22.1,8.2c1.7,0.4,3.5,0.8,5.1,1.3c2.1,0.5,4.1,1,6.2,1.5c3.7,0.9,7.6,1.9,11.3,2.9
		c0.5,0.1,1.1,0.3,1.9,0.4c0.5,0.1,1,0.3,1.5,0.4c-28.9,16.8-57.6,33.6-85.9,50.3l-12.9,7.6C283.7,415.2,236.6,442.7,187.6,469.4z
		 M319,452.8c-0.5-0.1-1-0.3-1.4-0.4c-5.3-1.8-10.9-3.2-16.3-4.6c-1.6-0.4-3.2-0.9-4.8-1.3c-7.1-1.9-15-4-22.7-6.6l-1.2-0.4
		c-4.1-1.4-8.6-2.9-12-5.3c32-18.3,63.8-37.1,94.9-55.4c19.7-11.6,40-23.6,60.1-35.3c4.8-2.9,9.7-5.7,14.5-8.5c0,0,0,0,0,0.1
		c0.4,0.6,1,1,1.6,1l0,0c1.2,0,2.5-1,3.1-2c0.5-0.9,0.5-1.5,0.4-2c16.9-9.7,33.2-19,48.8-27.8c6.1,4.8,15,6.4,23,7.8
		c1.9,0.4,3.7,0.6,5.5,1c1.9,0.4,3.7,0.8,5.6,1.1c3.7,0.8,7.7,1.6,11.6,2.5c0.5,0.1,1.1,0.3,1.7,0.4c0.9,0.1,2.2,0.4,3.4,0.8
		c-15.6,10.6-31.3,21.4-47.2,32.1c-0.6-0.4-1.2-0.4-2-0.1c-1.2,0.5-2.4,1.9-2.6,3c0,0.1,0,0.1,0,0.3c-28.9,19.6-58.2,39.3-87.6,58.4
		c-22.6,14.8-46,29.5-69.8,44.1C324,454.2,321.2,453.4,319,452.8z M349.4,497.8c-9.6,6.4-19.4,13.2-29.4,19.9
		c-1.6-1.1-3.9-1.9-5.7-2.3c-0.5-0.1-0.9-0.3-1.2-0.4c-4.6-1.4-9.4-2.7-14-3.8c-1.4-0.4-2.9-0.8-4.2-1c-6.7-1.6-13.5-3.4-20.2-5.7
		l-1.1-0.4c-3.7-1.3-7.8-2.5-11.1-4.9c19.1-11.1,38.4-22.5,57.4-34c43.1-26.2,88.6-55.6,147.4-95.2c6.5-4.4,12.9-8.7,19.5-13.2
		c6,3.5,13.7,4.9,20.5,6.2c1.9,0.4,3.7,0.6,5.5,1c1.9,0.4,3.7,0.8,5.5,1.1c3.9,0.8,7.7,1.6,11.6,2.5c0.2,0,0.5,0.1,0.9,0.1
		c-18.8,13.4-37.4,26.9-56.1,40.6C434,438,392.3,468.6,349.4,497.8z M575.3,384.6c-16,15-32.5,30.5-49.1,45.7
		c-0.6-0.4-1.1-0.8-1.7-1.1c-0.6-0.5-1.4-0.6-2.1-0.3c-1.2,0.5-2.4,1.9-2.6,3c-0.1,0.8,0.1,1.4,0.6,1.8c0.4,0.3,0.7,0.6,1.1,0.9
		c-2.5,2.4-5.1,4.7-7.6,7.1c-9.1,8.3-18.3,16.6-27.3,24.7c-1.6-1.1-4-1.9-5.8-2.4c-0.5-0.1-0.9-0.3-1.2-0.4c-4.6-1.4-9.4-2.7-14-3.8
		c-1.4-0.4-2.9-0.8-4.2-1c-6.7-1.6-13.5-3.4-20.2-5.7l-1.1-0.4c-3.7-1.3-7.8-2.5-10.9-4.8c15-10.9,29.9-21.8,44.6-32.5
		c20-14.7,40.7-29.8,61.4-44.5c0.6-0.4,1.2-0.9,1.9-1.3c0.4,0.3,0.7,0.5,0.9,0.8c0.2,0.5,0.9,0.8,1.5,0.8c0.5,0,1-0.1,1.5-0.5
		c1.2-0.9,2.6-2.8,1.6-4.3c-0.1-0.1-0.2-0.3-0.4-0.4c4.2-3,8.4-6.1,12.8-9.1c5.9,3.5,20.4,6.2,20.4,6.2l0-6c0,0-4.7-1.1-7-1.8
		l-1.2-0.4c-2-0.5-4.1-1.1-6.2-1.9c4.8-3.4,14.5-10.2,14.5-10.2l0-6c0,0-12.8,9-19.3,13.6c-0.5-0.4-1.2-0.4-2-0.1
		c-1.2,0.5-2.4,1.9-2.6,3c0,0.1,0,0.3,0,0.3c-4.7,3.4-9.6,6.8-14.3,10.1c-0.4-0.1-0.9-0.1-1.2-0.3c-0.5-0.1-0.9-0.3-1.2-0.3
		c-4.1-1-8.3-1.9-12.4-2.8c-1.4-0.3-2.7-0.5-4-0.9c-6-1.3-12-2.5-18-4.2l-1.2-0.4c-2-0.5-4.1-1.1-6.1-1.9
		c22.1-15,44.3-30.1,65.9-44.9l15-10.2c0.7-0.5,1.1-1.1,1-1.8c0-0.3-0.1-1-1-1.4c-1-0.5-3.6-0.5-4.6,0.3
		c-8.4,5.8-16.9,11.5-25.3,17.3c-0.9,0.6-1.9,1.3-2.7,1.9c-1.5-0.9-3.5-1.3-5.1-1.6c-0.5-0.1-0.9-0.3-1.2-0.3
		c-4.1-1-8.4-1.9-12.5-2.8c-1.4-0.3-2.6-0.5-4-0.9c-6-1.3-12-2.5-18-4.2l-1.2-0.4c-2.7-0.8-5.8-1.6-8.4-2.9
		c15.3-8.6,30.1-16.8,44.5-24.7c12.5,1.9,25.3,3.8,38.8,5.7c0.1,0,0.1,0,0.2,0c1.1,0,1.9-1,2.1-2.7c0.2-1.6-0.5-2.5-1.5-2.7
		c-11.6-1.6-23.1-3.4-34.8-5.2c-0.1-0.1-0.2-0.4-0.5-0.5c-0.9-0.5-3.1-0.6-4.3-0.3c-26.6-4-53.2-8.3-79.1-12.6
		c-24.3-3.9-49.4-8.1-74.3-11.9c-24.2-3.8-48.9-7.5-72.9-11c-15.4-2.3-31.2-4.7-46.8-7c-0.5-1.6-3.9-1.6-4.8-1.4
		c-0.4,0.1-0.9,0.3-1.2,0.4c-11.8-1.8-23.7-3.7-35.5-5.4l-2.4-0.4c-22.9-3.7-46.6-7.3-69.6-12.3c-0.6-0.1-1.2,0.1-1.6,0.6
		c-0.1,0.1-0.2,0.4-0.4,0.6c-0.9,0-1.6,0-2,0.1l0,0c-58,18.6-109.8,34.5-157.6,48.4c-0.4,0-1,0-1.6,0.4c-0.1,0-0.2,0.1-0.4,0.3
		c-5.2,1.5-10.6,3-15.6,4.6c-6.8,1.9-13.5,3.9-20.4,5.8c-25.5,7.3-77.7,22.6-77.7,22.6v4.6c0,0,23.1-6.9,34.4-10.2
		c14.3-4.2,28.4-8.2,42.7-12.3c11.8-3.4,23.8-6.8,36-10.4c5.3,3.3,12,4.7,18,5.9l2.1,0.5c11.3,2.4,23.1,4.3,32.5,5.8
		c3.1,0.5,6.1,1,9.2,1.4c7.1,1.1,14.5,2.3,21.7,3.5c0.7,0.1,1.9,0.3,3,0.4c3.2,0.4,8.2,0.9,10.6,2.4c-18.4,6.2-36.8,12.4-55.1,18.6
		C2.8,310.8-21.3,319-45,327c-25.8,8.6-84,27.8-84,27.8v4.8c0,0,9.5-3.1,14.2-4.6c5.6,5.1,13.4,7.5,20.4,9.6l1.5,0.5
		c11.1,3.5,22.2,6.1,34.7,9c3.5,0.8,6.8,1.5,10.3,2.3c7.6,1.6,15.3,3.4,22.9,5.3c0.7,0.3,1.7,0.4,3,0.6c3,0.6,7.6,1.5,10.7,2.9
		c-34,12.5-70.7,25.5-115,41c-0.5,0.1-2.5,0.9-2.5,0.9v4.1c0,0,5.3-1.5,5.7-1.6c43.7-15.2,81.5-28.7,116.1-41.4H-7
		c0.4,0,0.7-0.1,1.2-0.4c0.2-0.1,0.4-0.3,0.6-0.4c24.8-9.1,48.2-18,70.8-26.7c14-5.4,28.1-11,42.1-16.6c4.2,3.3,9.8,4.8,14.8,6.2
		l1.1,0.4c7.9,2.3,15.8,3.9,25.1,5.8c2.5,0.5,5,1,7.5,1.5c5.5,1.1,11.1,2.1,16.5,3.4c0.6,0.1,1.4,0.3,2.4,0.4
		c0.5,0.1,1.1,0.1,1.7,0.3c-59.5,27.8-120.6,56.3-181.5,83c-12.8,5.6-25.6,11.1-38.4,16.6c-1.4-0.9-2.6-1.9-3.7-3
		c-0.5-0.5-1.1-0.8-1.9-0.5c-1.2,0.3-2.5,1.5-2.9,2.8c-0.2,0.8-0.1,1.5,0.4,2.1l0,0c0.5,0.5,1,1,1.5,1.5
		c-26.6,11.3-79.4,32.9-79.4,32.9v4.5c0,0,0.2,0,0.2,0c0.6,0,1.2-0.1,1.6-0.3c26.7-10.7,54-22.1,82.1-34.1c2.6,1.4,5.3,2.5,7.9,3.5
		c7.2,2.8,14.4,4.8,22.5,7.1c2.4,0.6,4.8,1.4,7.2,2c4.6,1.3,9.3,2.5,13.9,3.9c0.5,0.1,1.2,0.4,2.1,0.5c1.9,0.5,4.7,1.1,6.8,2.1
		c-4.3,1.9-8.7,3.9-13,5.8C-39.9,511.4-129,549.8-129,549.8v4.6c0,0,1.5-0.1,1.9-0.3C-77,532.8-27.8,511.3,20,489.8
		c0.5-0.1,1-0.3,1.4-0.6c29.4-13.2,58.4-26.3,86.6-39.5c0.4-0.1,0.6-0.3,1-0.5c4,3.2,9.1,5.1,13.5,6.7l0.5,0.1
		c7.9,2.9,16,5.1,25,7.3c2.6,0.6,5.2,1.4,7.8,2c5.2,1.3,10.6,2.7,15.6,4c0.6,0.1,1.4,0.4,2.4,0.5c2.1,0.5,5.6,1.3,7.9,2.4
		c-17.6,9.5-35.4,18.8-53.4,27.9C87,521.3,44.6,541.1,2.5,559c-2,0.9-1.7,2-1.5,2.5c0.4,1,1.9,1.4,3.1,1.4c0.7,0,1.4-0.1,1.7-0.3
		c69.1-29.3,138.4-63.6,212.1-104.6c12.3-6.8,24.6-13.8,36.9-20.9c3.6,3,8.3,4.8,12.5,6.4l0.1,0.1c7.2,2.7,14.4,4.7,22.4,6.8
		c2.4,0.6,4.8,1.3,7.2,1.9c4.6,1.1,9.2,2.4,13.8,3.8c0.5,0.1,1.2,0.4,2.1,0.5c1.9,0.5,5,1.1,7.1,2.1c-24,14.7-48.4,29.1-73.2,43.4
		C207.8,525,139,562.9,139,562.9h9.8c0,0,71.4-39.5,107.8-60.6c6.5,6.1,17.1,8.6,25.8,10.6c2,0.5,3.9,0.9,5.5,1.3
		c2.2,0.6,4.3,1.1,6.6,1.6c4,1,8.1,2,12.2,3.2c0.5,0.1,1.1,0.3,2,0.5c1.5,0.4,3.9,0.9,5.7,1.6c-20,13.3-41.5,27.2-65.6,42.6
		c-1.6,1-1,2.3-0.9,2.4c0.5,0.8,1.6,1,2.9,1c1,0,2.1-0.3,2.6-0.5c61-39.1,110.9-72.7,157.1-105.7c4.5-3.2,8.9-6.3,13.3-9.6
		c6.5,5.7,16.9,8.1,25.3,10.1c2,0.5,3.9,0.9,5.5,1.3c2.2,0.6,4.3,1.1,6.6,1.6c4,1,8.1,2,12,3.2c0.5,0.1,1.1,0.3,2,0.5
		c1.7,0.4,5,1.1,6.7,2c-26.5,23-53,44.9-79.6,65.1c-12.4,9.5-37.2,27.7-37.2,27.7l8.1,0.3c0,0,15.7-11.5,23.3-17.2
		c3.9,2.3,8.3,3.3,12.7,4.2l1.1,0.3c8.2,1.9,16.5,3.2,24,4.4c2.4,0.4,4.6,0.8,7,1.1c5.1,0.8,10.3,1.6,15.4,2.5
		c0.6,0.1,1.5,0.3,2.4,0.3c1.6,0.1,4,0.5,5.8,1c-1.3,1.2-3.8,3.5-3.8,3.5l8.4-0.3c0,0,22.7-20.9,33.8-31.6c2.2-2.1,4.3-4.3,6.6-6.4
		c3.2,1.4,6.7,2.1,10.2,2.9l1.1,0.3c8.1,1.9,16.5,3.2,24,4.4c2.4,0.4,4.6,0.8,7,1.1c5.1,0.8,10.3,1.6,15.4,2.5
		c0.6,0.1,1.5,0.3,2.4,0.3c1.4,0.1,5.3,0.8,5.3,0.8l0-5.8c0,0-0.5-0.1-0.7-0.1c-0.7-0.1-1.4-0.1-1.7-0.3c-5.6-1-11.2-1.9-16.8-2.8
		c-1.9-0.3-3.6-0.6-5.5-0.9c-7.3-1.1-15.6-2.5-23.6-4.2c-0.7-0.1-1.5-0.4-2.4-0.5c-3.2-0.6-6.7-1.4-9.9-2.5
		c20.7-20.5,60.6-63.2,60.6-63.2l0-14.3c0,0-1.8-0.4-2.6-0.6c-0.5-0.1-0.9-0.3-1.2-0.3c-4.1-1-8.3-1.9-12.4-2.8
		c-1.4-0.3-2.7-0.5-4-0.9c-6-1.3-12-2.5-18-4.2l-1.2-0.4c-1.1-0.4-2.4-0.6-3.6-1c10.2-9.5,20.2-18.8,30.2-28.2l7.3-6.8
		c1.9-1.8,3.8-3.6,5.7-5.4L575.3,384.6z M552.9,473.5c-14.5,15.6-29.3,30.6-44.1,45.3c-0.1,0-0.1,0.1-0.2,0.1c-0.7,0.4-1.5,1.3-2,2
		c-12.2,11.9-24.3,23.5-36.5,34.8c-1.9-0.9-4.3-1.1-6.3-1.5c-0.7-0.1-1.2-0.1-1.7-0.3c-5.6-1-11.3-1.9-16.8-2.8
		c-1.9-0.3-3.6-0.5-5.5-0.9c-7.3-1.1-15.6-2.5-23.6-4.2c-0.7-0.1-1.5-0.4-2.4-0.5c-3.9-0.8-8.1-1.6-11.7-3.3
		c20.4-15.4,39.7-30.7,58.9-46.5c22.5-18.7,44.3-38.4,65.8-58.4c5.3,2.4,11.6,3.5,17.4,4.6c1.9,0.4,3.7,0.6,5.5,1
		c1.9,0.4,3.7,0.8,5.6,1.1c3.9,0.8,7.7,1.6,11.6,2.5c0.5,0.1,1.1,0.3,1.7,0.4c1.9,0.4,5.5,1,6.3,2.1c0.1,0.1,0.2,0.3,0.4,0.4
		C567.6,457.7,560.2,465.7,552.9,473.5z"/>
</g>
<path d="M369.2,598"/>
<path d="M369.2,598"/>
<path d="M638.2,363"/>
<path d="M668.6,363.3"/>
<path d="M657.2,366.6"/>
</svg>
