<?xml version="1.0" encoding="utf-8"?>
<!-- Generator: Adobe Illustrator 23.0.1, SVG Export Plug-In . SVG Version: 6.00 Build 0)  -->
<svg version="1.1" id="Layer_3" xmlns="http://www.w3.org/2000/svg" xmlns:xlink="http://www.w3.org/1999/xlink" x="0px" y="0px"
	 viewBox="0 0 566.9 566.9" style="enable-background:new 0 0 566.9 566.9;" xml:space="preserve">
<path d="M225.2,404.3"/>
<path d="M49.2,437.8C59.3,447.9,174,327,174,327l10.2,10.2c0,0-121.8,113.8-110.8,124.8s125-110.5,125-110.5l5.6,5.6l5.6,5.6
	c0,0-121.6,114-110.5,125s124.8-110.8,124.8-110.8L234,387c0,0-120.9,114.6-110.8,124.8c10.1,10.1,88.3-68.4,126.4-109.2
	c15.7-16.9,27.1-28.6,30-56s5.5-31.3,14.8-40.6c9.3-9.3,74.5-76.8,112.8-114.7c20.1-19.9,40.2-39.8,59.9-60.1
	c10.1-10.4,20.1-20.8,29.9-31.3c8.7-9.3,17.5-19,21.7-30.8c0.4-1-6.4-10.4-11.3-15.5c-5.2-5-14.5-11.7-15.5-11.3
	C480,46.5,470.3,55.3,461,64c-10.6,9.9-21,19.9-31.3,29.9c-20.3,19.7-40.2,39.8-60.1,59.9c-37.9,38.3-105.4,103.5-114.7,112.8
	c-9.3,9.3-13.2,11.9-40.6,14.8s-39.1,14.3-56,30C117.6,349.4,39,427.6,49.2,437.8z"/>
</svg>
