<?xml version="1.0" encoding="utf-8"?>
<!-- Generator: Adobe Illustrator 15.1.0, SVG Export Plug-In . SVG Version: 6.00 Build 0)  -->
<!DOCTYPE svg PUBLIC "-//W3C//DTD SVG 1.1//EN" "http://www.w3.org/Graphics/SVG/1.1/DTD/svg11.dtd">
<svg version="1.1" xmlns="http://www.w3.org/2000/svg" xmlns:xlink="http://www.w3.org/1999/xlink" x="0px" y="0px"
	 width="566.93px" height="566.93px" viewBox="0 0 566.93 566.93" enable-background="new 0 0 566.93 566.93" xml:space="preserve">
<g id="Layer_1">
	<path d="M374.314,56.864c0.106,3.436,2.8,10.448,7.066,10.253c1.173-0.055,3.494-2.229,2.081-3.383
		c-0.882-0.72-1.964-1.029-2.837-1.791c-1.204-1.048-2.005-2.487-2.585-3.951c-0.563-1.42-0.892-3.202-0.384-4.686
		c0.589-1.718,2.658-1.978,4.074-2.741c0.347-0.187,0.823-0.968,0.261-1.217C377.424,47.328,374.198,53.123,374.314,56.864z"/>
	<path d="M446.227,61.168c-1,1.284-2.693,1.494-3.268,3.168c-0.159,0.467-0.362,1.191,0.102,1.588
		c0.053,0.045,0.105,0.09,0.158,0.134c0.797,0.68,1.743,0.641,2.646,0.142c6.177-3.422,8.233-12.726,5.961-19.01
		c-0.186-0.514-0.719-0.711-1.223-0.683c-2.307,0.13-4.629,0.231-6.492,1.725c-0.506,0.406-0.465,1.206,0.265,1.229
		c1.552,0.049,4.411-0.55,4.654,1.457c0.219,1.812-0.074,3.632-0.455,5.397C448.185,58.12,447.354,59.722,446.227,61.168z"/>
	<path d="M429.199,515.235c2.681,6.689,11.597,7.166,18.973,6.029c0.291,0.223,0.619,0.412,0.991,0.537
		c4.119,1.379,7.827-2.17,9.81-5.387c2.739-1.436,5.021-5.324,5.252-8.004c0.304-3.525-0.021-7.049-0.238-10.572
		c-0.3-4.875,0.066-9.795,0.271-14.666c0.934-22.336,2.852-44.615,4.213-66.926c1.349-22.098,1.365-44.076,1.363-66.197
		c0-10.961,0.253-21.928,0.716-32.879c0.146-3.492,0.464-6.996,0.804-10.504c4.646-0.365,9.115-4.234,11.893-7.563
		c2.636-3.156,3.589-6.67,3.98-10.439c0.449-0.268,0.84-0.566,1.113-0.889c10.415-12.263,16.608-27.471,21.564-42.599
		c5.19-15.842,9.115-32.271,11.854-48.67c2.094-4.745-1.415-10.945-3.401-15.375c-3.974-8.863-8.676-17.405-13.26-25.962
		c-3.482-6.5-7.461-12.987-9.794-20.015c-1.579-4.755-5.172-12.104-9.881-11.211c-0.143-0.393-2.117-0.835-2.812-1.142
		c-1.885-0.834-3.791-1.622-5.698-2.403c-2.912-1.194-5.845-2.351-8.709-3.662c-5.468-2.502-11.298-4.262-16.929-6.355
		c-5.991-2.229-11.901-5.357-18.1-6.938c0.069-2.791-0.57-6.066-0.741-8.11c-0.309-3.694-0.56-7.563-1.254-11.254
		c4.201-4.339,7.296-9.875,8.82-15.837c1.687-6.591,1.859-14.271,0.375-21.535c0.168,0.005,0.346-0.015,0.543-0.093
		c7.905-3.1,16.349-16.676,6.78-22.465c-8.672-5.247-21.556-3.82-28.148-12.529c-0.525-0.694-1.808,0.365-1.508,1.076
		c3.436,8.168,13.572,10.284,21.104,12.96c2.887,1.026,7.102,2.35,8.302,5.492c1.739,4.556-5.522,9.453-7.632,13.169
		c-2.847-10.99-9.646-20.6-20.957-23.342c-3.069-0.744-6.046-0.545-9.065,0.263c-1.229,0.328-2.395,1.392-3.087,2.619
		c-14.104,3.879-20.773,20.713-21.787,35.3c-0.726,10.436,1.812,21.165,8.798,27.73c-0.855,6.055-1.027,12.226-1.92,18.29
		c-0.216,0.119-0.414,0.269-0.59,0.446c0.03-0.472-0.004-0.952-0.116-1.445c-0.653-2.881-4.727-0.817-5.748,0.465
		c0.924-1.16-0.604,0.724-0.833,1.002c0.424-0.513-0.675,0.497-0.746,0.546c-1.68,1.161-3.524,2.106-5.352,3.006
		c-5.012,2.47-10.243,4.502-15.434,6.557c-5.233,2.07-10.497,4.067-15.719,6.167c-3.379,1.358-7.503,2.881-9.96,5.699
		c-0.347,0.397-0.507,0.895-0.511,1.369c-0.133,0.271-0.238,0.544-0.277,0.816c-3.438,23.466-14.741,44.72-21.705,67.26
		c-0.156,0.209-0.291,0.414-0.382,0.604c-0.938,1.945-1.221,3.166-1.125,5.32c0.09,2.025,1.257,2.863,2.727,2.932
		c-1.188,14.991,1.604,30.273,5.03,44.803c3.55,15.054,9.126,29.486,15.353,43.61c-0.272,0.775-0.342,1.561-0.1,2.236
		c0.833,2.326,2.059,4.082,3.842,5.797c1.269,1.219,3.177,1.189,4.897,0.463c-0.313,3.088,0.244,6.381,1.813,8.889
		c2.803,4.479,9.693,3.361,11.441-1.561c0.623-1.752,0.066-3.846-2.213-3.619c-0.354,0.033-0.699,0.033-1.051,0.076
		c-0.493,0.039-0.962,0.158-1.407,0.357c0.386-0.053,0.348-0.045-0.115,0.021c0.271-0.039-0.1-0.094-0.361-0.244
		c-0.313-0.182-0.676-0.619-0.946-0.912c-1.426-1.541-1.754-3.939-2.078-6.045c1.521-1.119,2.871-2.479,3.789-3.525
		c2.27-2.592,3.958-5.711,5.014-9.016c0.817,0.523,1.671,0.996,2.552,1.43c-0.138,0.248-0.242,0.504-0.293,0.768
		c-1.755,9.27-1.483,19.111-1.904,28.516c-0.438,9.803-0.83,19.607-1.189,29.414c-0.711,19.389-0.916,38.797-0.839,58.197
		c0.143,36.07,1.9,72.418,6.064,108.299c-0.384,0.58-0.659,1.203-0.78,1.822c-0.687,3.482,0.524,5.25,1.692,7.957
		c-0.537,10.621,24.315,5.439,30.444,4.488c3.579-0.555,6.838-3.424,6.817-7.246c-0.225-41.396-2.639-82.734-2.146-124.15
		c0.169-14.225-0.093-28.5,0.472-42.713c0.523-13.193,1.72-28.654,10.064-39.506c2.067-2.688-1.326-5.096-3.533-2.801
		c-19.947,20.736-15.061,54.742-16.063,81c-1.592,41.752-0.087,83.688-0.092,125.48c-2.35,0.289-4.704,0.537-7.067,0.715
		c-2,0.148-4.035,0.24-6.044,0.133c-5.737-38.141-8.371-76.328-9.419-114.881c-0.524-19.244-0.492-38.49-0.603-57.738
		c-0.056-9.672-0.052-19.344-0.029-29.014c0.019-8.713,0.781-17.91-0.191-26.637c1.888,0.6,3.813,1.098,5.699,1.561
		c8.919,2.184,18.271,2.537,27.415,2.754c12.112,0.289,23.881,1.242,36.004,0.027c11.124-1.115,22.358-3.721,32.868-7.604
		c-2.658,8.756-3.278,18.182-4.165,27.242c-0.93,9.492-1.626,18.992-2.099,28.516c-0.998,20.141-0.919,40.301-2.195,60.43
		c-1.304,20.57-3.422,41.08-4.899,61.639c-0.732,10.186-1.308,20.379-1.605,30.586c-0.097,3.34,0.182,6.65,0.365,9.982
		c0.077,1.387,0.187,2.838,0.066,4.225c-0.003,0.029-0.011,0.055-0.014,0.082c-0.313,0.313-0.591,0.65-0.818,1.01
		c-5.832,2.096-10.845,2.318-16.252,0.781c0.907-1.131,1.463-2.461,1.37-3.873c-0.015-3.826-0.713-7.713-0.776-11.574
		c-0.096-5.811,0.068-11.625,0.251-17.434c0.499-15.771,1.345-31.529,1.964-47.297c1.275-32.482,2.904-66.604-3.396-98.684
		c-1.942-9.891-6.282-28.545-19.261-29.154c-3.224-0.152-7.564,5.158-3.05,6.467c8.028,2.324,10.44,12.951,12.169,20.051
		c3.419,14.047,3.82,28.99,4.099,43.375c0.658,34.084-1.977,68.17-3.525,102.199c-0.33,7.234-0.621,14.477-0.658,21.719
		c-0.017,3.328,0.35,6.658,0.559,9.971c-0.21,0.979-0.322,1.947,0.05,2.92c0.029,0.076,0.051,0.127,0.078,0.195
		c0.005,0.309,0.015,0.617,0.014,0.926C426.976,513.824,427.866,514.883,429.199,515.235z M475.613,298.137
		c-1.136,0.643-2.366,0.93-3.579,1.27c0.393-4.486,0.665-8.971,0.521-13.436c0.748-0.439,1.428-0.977,2.004-1.607
		c1.773,1.721,4.359,3.457,6.862,4.076c0.245,0.721,0.872,1.1,1.677,1.213C481.462,293.119,478.691,296.393,475.613,298.137z
		 M466.641,232.484c2.73-9.574,4.851-19.308,6.875-29.052c1.044-5.03,2.08-10.061,3.094-15.097c0.275-1.363,0.611-2.748,0.938-4.144
		c1.34,3.154,3.069,6.164,4.075,8.385c1.509,3.329,2.308,7.11,3.45,10.592c0.578,1.76,0.933,5.276,1.908,7.482
		c-0.71,2.473-1.384,4.955-2.159,7.365c-2.021,6.291-4.788,12.354-7.456,18.388c-2.614,5.913-5.392,11.736-8.021,17.633
		c-1.911-6.048-3.516-12.311-4.818-18.576C465.546,234.583,466.348,233.511,466.641,232.484z M518.5,199.6
		c-5.753,13.436-9.209,27.737-13.836,41.618c-4.722,14.166-10.688,27.706-19.479,39.732c-2.413-0.527-4.507-1.347-6.526-3.047
		c-1.062-0.894-1.932-1.857-2.721-2.869c-0.104-0.992-0.434-2.016-0.941-3.21c-1.214-2.862-2.003-5.943-2.852-8.983
		c0.256-0.194,0.5-0.403,0.711-0.644c2.073-2.344,3.061-5.769,4.152-8.643c2.052-5.404,4.476-10.626,6.706-15.967
		c3.126-7.488,7.403-16.714,8.792-25.627c0.417-0.306,0.792-0.665,1.094-1.057c1.677-2.167,1.221-5.281,0.06-8.463
		c5.026-2.867,12.105-2.916,17.07-0.109c2.242,1.267,4.933-0.58,5.955-2.738C517.248,199.76,517.888,199.75,518.5,199.6z
		 M491.319,144.207c2.734,6.394,6.107,12.532,9.25,18.729c3.57,7.039,7.117,14.101,10.275,21.335
		c1.27,2.909,2.451,5.864,3.375,8.902c0.199,0.654,0.304,1.323,0.395,1.993c-0.195-0.063-0.39-0.126-0.584-0.189
		c-0.695-0.226-1.469-0.116-2.205,0.214c-4.255-0.213-8.209-0.872-12.607,0.133c-2.735,0.625-5.075,2.002-6.916,3.909
		c-1.253-2.653-2.669-5.143-3.378-6.924c-2.189-5.505-6.35-10.156-9.145-15.399c0.519-0.842,0.813-1.738,0.745-2.586
		c-0.102-1.294-0.463-2.613-1.104-3.655c-2.129-7.03-2.181-14.442-1.374-21.752c0.686-6.223,3.063-11.799,4.883-17.604
		c0.449,0.176,0.948,0.265,1.456,0.242c0.338-0.014,1.638,0.056,2.831-0.807c0.616,1.439,0.938,3.306,1.298,4.698
		C489.281,138.429,490.107,141.373,491.319,144.207z M391.224,62.946c-1.06-13.907,2.626-29.867,15.123-35.734
		c0.314,0.606,0.902,1.104,1.872,1.375c3.777,1.052,7.569,1.013,11.185,2.707c3.401,1.593,6.133,4.518,8.029,7.712
		c4.072,6.857,5.051,15.372,5.052,23.196c0.003,12.161-7.626,22.752-20.252,23.25C399.529,85.955,392.091,74.324,391.224,62.946z
		 M407.265,93.003c8.105,0.995,15.516-1.7,21.322-6.528c-0.124,2.641,0.011,5.338-0.003,7.906c-0.015,2.46-0.073,4.918-0.205,7.375
		c-0.107,1.999-0.925,3.776-1.013,5.703c-0.009,0.178,0.003,0.333,0.02,0.479c-0.56,0.043-1.12,0.21-1.493,0.396
		c-3.964,1.979-8.188,4.606-10.942,8.203c-1.147-1.411-2.683-1.916-4.515-1.904c-0.885,0.005-2.012,0.792-2.604,1.75
		c-0.58,0.204-1.132,0.49-1.599,0.783c-0.472,0.296-0.907,0.64-1.308,1.018c0.093-0.25,0.113-0.508,0.021-0.736
		c-0.905-2.254-2.301-3.962-4.042-5.631c-1.222-1.17-2.533-2.81-4.26-3.11c-0.18-0.031-0.369-0.033-0.559-0.021
		c0.06-0.315,0.07-0.625,0.01-0.91c-1.271-6.08,0.912-12.451,0.493-18.6C399.53,91.136,403.066,92.487,407.265,93.003z
		 M422.815,124.213c-2.222-0.51-5.035-0.984-7.225-2.098c0.122-0.275,0.245-0.552,0.342-0.837c0.255-0.751,0.29-1.552,0.151-2.322
		c2.785-1.726,5.381-3.501,8.27-4.938c0.207,1.777,0.396,3.554,0.5,5.343c0.078,1.315,0.129,2.667,0.012,3.981
		c-0.035,0.4-0.11,0.793-0.196,1.184C424.051,124.404,423.404,124.347,422.815,124.213z M410.565,121.934
		c-0.015,0.074-0.031,0.122-0.04,0.145c-0.239,0.369-0.308,0.399-0.824,0.676c0.578-0.311-0.651,0.158-0.172,0.063
		c-0.374,0.073-0.418,0.069-0.684,0.038c-0.865-0.103-1.545-0.764-1.861-1.564c-0.295-0.745,0.562-1.438,1.519-1.988
		c0.509,0.422,1.057,0.817,1.44,1.164c0.097,0.086,0.451,0.601,0.466,0.576c0.076,0.219,0.234,0.841,0.172,0.424
		C410.674,122.083,410.634,121.59,410.565,121.934z M402.958,121.303c-0.559-0.261-1.238-0.301-1.854-0.047
		c-2.468,1.02-4.975,1.874-7.611,1.96c0.638-3.114,1.683-6.036,2.979-8.925c0.753,0.568,1.556,1.294,1.967,1.601
		c1.499,1.119,3.013,2.207,4.548,3.276c0.32,0.223,0.709,0.177,1.062-0.007C403.566,119.802,403.195,120.521,402.958,121.303z
		 M390.312,108.25c-0.031,1.019,0.278,1.859,1.104,2.867c0.354,0.433,0.758,0.658,1.176,0.729c-2.428,4.381-4.093,9.15-4.839,14.118
		c-0.157,1.043,0.248,2.215,1.45,2.373c4.277,0.563,8.188-0.443,12.183-1.919c0.764-0.282,1.503-0.805,2.017-1.476
		c1.128,1.776,3.485,2.831,5.609,2.51c2.02-0.307,3.745-1.384,5.029-2.869c1.092,1.168,2.375,2.133,3.763,3.041
		c2.059,1.346,5.665,3.873,7.892,1.582c0.098-0.101,0.196-0.211,0.293-0.328c7.762,0.18,4.155-15.732,3.286-19.822
		c1.232-0.268,2.683-1.26,3.113-2.004c0.218-0.376,0.38-0.81,0.502-1.281c2.779,2.539,6.296,4.328,9.817,5.881
		c-0.035,0.07-0.065,0.141-0.088,0.21c-2.805,8.776-4.313,18.023-7.127,26.861c-2.826,8.883-5.297,17.836-7.941,26.771
		c-2.456,8.293-5.957,16.225-8.273,24.549c-1.368,4.917-2.423,10.215-4.387,15.041c-1.69-3.856-3.309-8.228-4.935-11.854
		c-4.4-9.816-8.809-19.627-13.057-29.511c-4.12-9.584-8.107-19.231-11.709-29.024c-1.834-4.986-5.753-12.821-4.829-18.337
		c0.078-0.463,0.035-0.805-0.08-1.062C384.47,113.446,388.552,111.094,390.312,108.25z M320.052,204.584
		c1.273-0.893,2.264-2.13,2.417-3.445c2.799-24.146,17.316-45.317,19.732-69.629c0.688-0.275,1.36-0.611,2.043-0.988
		c0.14,3.631,1.183,7.219,2.077,10.742c1.318,5.189,2.256,10.34,2.439,15.698c0.136,3.955-0.225,7.955-0.575,11.89
		c-0.255,2.853-1.105,5.754-0.518,8.577c0.394,1.89,1.645,2.341,3.088,2.024c-3.013,4.477-4.886,9.677-6.651,14.734
		c-0.979,2.807-1.839,5.656-2.687,8.504c-0.334,1.122-0.82,2.24-1.168,3.38c-0.356-0.089-0.716-0.167-1.084-0.232
		c-1.711-0.303-3.493-0.42-5.224-0.582c-2.907-0.273-6.277-0.862-9.098,0.167c-0.728,0.266-1.954,1.733-0.793,2.307
		c2.055,1.014,4.554,1.007,6.776,1.372c1.524,0.25,3.107,0.528,4.539,1.127c0.566,0.238,1.11,0.521,1.644,0.829
		c0.061,0.035,0.103,0.07,0.149,0.105c0.055,1.667,1.239,2.962,3.557,2.223c-0.459,7.521,1.384,15.286,3.24,22.436
		c2.583,9.954,6.013,19.771,9.271,29.521c0.367,1.097,1.044,1.623,1.844,1.746c-0.935,3.31-1.888,6.614-2.861,9.912
		c-0.729,1.266-0.999,2.493-1.036,4.315c-0.031,1.565,0.596,2.413,1.525,2.767c0.06,3.613-2.13,7.844-5.072,10.531
		c-7.816-14.075-13.759-29.209-18.38-44.608C324.75,235.022,322.62,219.887,320.052,204.584z M370.133,236.058
		c4.66,0.72,9.425,0.994,14.081,1.787c-0.397,2.315-0.699,4.521-3.434,5.708c-3.56,1.546-8.306,1.624-12.146,0.555
		C369.299,241.419,369.857,238.71,370.133,236.058z M363.823,230.351c0.054,1.244,0.56,2.036,1.304,2.467
		c-0.447,0.668-0.618,1.396-0.191,1.904c-2.784,6.088-4.36,13.067-6.165,19.321c-0.1,0.346-0.197,0.692-0.296,1.039
		c-2.487-7.076-5.181-14.08-7.454-21.234c-2.465-7.761-3.569-15.929-5.739-23.742c0.654-0.489,1.201-1.064,1.509-1.625
		c1.938-3.531,2.127-8.744,3.165-12.645c0.873-3.282,1.857-6.542,2.804-9.813c1.168,5.01,2.876,9.99,4.201,14.601
		C359.717,210.226,363.397,220.308,363.823,230.351z M337.342,211.329C337.521,211.545,337.442,211.65,337.342,211.329
		L337.342,211.329z M405.314,287.451c-15.632-0.461-30.849,0.537-45.271-5.458c0.057-0.533,0.112-1.065,0.136-1.599
		c0.001-0.032-0.007-0.055-0.007-0.086c0.136-0.287,0.247-0.578,0.301-0.871c1.486-8.097,3.358-16.104,5.222-24.122
		c0.271-1.159,0.578-2.351,0.902-3.563c8.054,1.271,16.718-0.231,22.181-6.777c2.232-2.676,4.515-9.159,1.735-12.08
		c-1.727-1.814-7.681-1.406-10.094-1.646c-2.841-0.282-5.753-0.556-8.634-0.487c1.015-1.195,1.543-2.726,1.011-4.379
		c-0.09-0.279-0.197-0.522-0.314-0.752c-3.413-7.979-5.863-16.467-8.851-24.613c-1.698-4.63-3.307-9.289-4.813-13.983
		c-1.138-3.549-1.928-7.337-3.199-10.875c0.438-0.554,0.753-1.101,0.87-1.574c0.66-2.657,0.021-5.897-0.03-8.62
		c-0.071-3.755-0.233-7.514-0.726-11.239c-0.584-4.427-1.917-8.703-3.321-12.923c-1.518-4.553-2.662-9.713-4.826-14.035
		c1.231-0.525,2.438-1.045,3.59-1.479c6.107-2.303,12.245-4.527,18.324-6.907c1.487-0.583,4.087-1.429,6.979-2.531
		c-1.624,5.313,1.313,12.372,2.84,17.337c3.098,10.063,6.996,19.878,10.898,29.648c4.072,10.194,8.31,20.323,12.476,30.479
		c1.615,3.938,3.229,7.877,4.797,11.833c0.77,1.937,1.979,4.438,2.437,6.413c0.055,0.313,0.112,0.633,0.17,0.977
		c0.084,0.926,0.438,1.548,0.946,1.927c1.233,1.805,4.703,1.607,6.375-0.896c4.181-6.255,5.992-13.482,7.762-20.707
		c2.109-8.607,5.25-16.83,7.703-25.338c2.712-9.409,4.671-19.012,7.345-28.437c2.333-8.225,6.293-18.261,5.589-27.096
		c0.34,0.145,0.684,0.29,1.019,0.435c5.855,2.528,11.748,4.955,17.524,7.664c2.631,1.233,5.229,2.565,7.847,3.833
		c1.855,0.897,3.708,1.8,5.554,2.719c0.552,0.275,1.096,0.566,1.642,0.854c-4.47,5.811-6.457,14.213-7.999,20.958
		c-2.13,9.314-3.3,19.738-0.101,28.949c0.323,0.932,0.848,1.519,1.484,1.835c-2.934,6.974-4.336,15.049-6.167,22.089
		c-2.166,8.328-4.276,16.7-7.05,24.853c-1.214,0.814-2.168,2.038-2.459,3.382c-6.448-0.406-13.035,1.314-19.533,1.002
		c-2.942-0.141-5.419,1.919-5.597,4.912c-0.354,5.921,2.313,11.022,8.539,11.95c2.661,0.396,5.416-0.049,8.032-0.521
		c1.025-0.185,2.047-0.398,3.072-0.59c0.328-0.05,0.654-0.112,0.979-0.177c0.896,0.577,2.176,0.604,3.285-0.181
		c4.604-3.255,3.716-9.023-2.5-7.87c-2.815,0.521-5.556,1.212-8.425,1.39c-2.286,0.143-3.562-0.759-4.292-2.178
		c5.659-0.858,11.47-2.343,16.61-4.339c0.016,0.135,0.033,0.271,0.048,0.406c0.226,2.015,1.221,2.883,2.483,3.014
		c0.429,6.283,1.793,12.602,2.87,18.649c1.308,7.348,3.103,14.622,4.085,22c-8.952,3.029-17.574,6.149-27.1,7.624
		C428.354,287.405,416.74,287.787,405.314,287.451z M451.467,245.052c0,0.017,0.002,0.034,0.003,0.051
		C451.469,245.085,451.467,245.068,451.467,245.052z"/>
	<path d="M377.081,544.889c-1.794-1.463-3.566-2.912-4.399-5.105c-0.969-2.551-0.396-5.725-2.666-7.586
		c-0.716-0.586-1.699-0.248-2.22,0.461c-0.034,0.094-0.069,0.188-0.104,0.279c-2.85,2.35-2.266,10.574-2.398,13.355
		c-0.282,5.865,5.876,10.09,11.146,10.779c11.01,1.445,23.209-9.906,19.798-21.162c-0.761-2.51-3.002-5.316-5.679-5.813
		c-3.297-0.611-6.75,1.902-7.572,5.018c-0.845,3.203,1.44,4.402,2.448,6.955c0.496,1.254-0.126,2.236-0.657,2.945
		c-0.484,0.584-0.529,0.637-0.133,0.158c-0.059,0.057-1.46,1.068-0.828,0.672c-0.913,0.584-0.773,0.428-1.972,0.744
		C380.67,546.901,378.379,545.948,377.081,544.889z"/>
	<path d="M458.948,539.639c-7.94-0.791-16.496-1.896-23.959-4.949c-0.597-3.938-1.979-7.789-2.217-11.75
		c-0.063-1.063-1.486-0.484-1.759,0.143c-2.104,4.85-2.257,9.992-2.502,15.223c-0.035,0.732,0.487,1.521,1.123,1.85
		c9.531,4.912,20.761,6.273,31.297,7.271c8.058,0.764,20.475,2.457,27.165-3.295c5.958-5.123,1.658-10.682-3.309-14.258
		c-3.229-2.326-6.914-4.051-10.583-5.551c-3.71-1.518-8.557-3.893-12.535-2.334c-2.284,0.895-4.404,3.475-2.819,5.877
		c1.5,2.275,5.161,2.533,7.583,3.313c2.991,0.963,5.896,2.27,8.712,3.654c2.299,1.133,4.624,2.439,6.532,4.164
		c0.119,0.107,0.324,0.293,0.54,0.502c-0.013,0.006-0.021,0.008-0.032,0.012C474.975,541.615,466.288,540.369,458.948,539.639z"/>
	<path d="M382.908,19.17c-3.482,3.121-3.619,8.694-3.714,13.078c-0.116,5.469,0.946,10.988,4.048,15.518
		c0.386,0.563,1.414-0.221,1.32-0.759c-0.754-4.331-1.214-8.789-1.361-13.184c-0.091-2.656,0.201-5.294,0.699-7.897
		c0.179-0.931,0.489-1.8,0.794-2.663c0.148-0.02,0.306-0.065,0.479-0.167c4.639-2.739,9.256-5.477,14.261-7.513
		c2.514-1.023,5.225-1.835,7.964-1.595c1.854,0.163,2.663,1.053,4.516,0.521c0.779-0.224,1.275-0.945,1.331-1.722
		c0.019-0.266,0.036-0.53,0.056-0.794c0.036-0.505-0.338-0.987-0.746-1.228c-8.187-4.83-20.456,4.321-27.089,9.792
		c0.045-0.285,0.079-0.573,0.091-0.87C385.619,18.187,383.606,18.544,382.908,19.17z"/>
</g>
<g id="Layer_2">
	<g display="none">
		<path display="inline" fill="#231F20" d="M187.777,300.066c-1.034-3.764-2.514-7.36-4.232-10.826
			c-1.713-3.471-3.717-6.786-5.879-9.992c-4.303-6.433-9.331-12.359-14.549-18.103c-10.54-11.417-22.065-21.962-33.623-32.54
			l-17.343-15.952c-5.74-5.391-11.408-10.89-16.949-16.553c-5.541-5.664-10.94-11.515-15.976-17.731
			c-2.518-3.107-4.936-6.31-7.25-9.603c-2.286-3.313-4.45-6.727-6.445-10.256c-4.011-7.039-7.245-14.647-9.131-22.676
			c-1.892-8.014-2.226-16.479-0.735-24.577c1.463-8.114,4.696-15.741,8.888-22.602c0.524-0.859,1.068-1.706,1.622-2.543l0.165-0.243
			l0.11-0.147l0.222-0.294l0.443-0.587l0.92-1.192c1.241-1.572,2.505-3.117,3.817-4.628c2.626-3.017,5.47-5.86,8.544-8.443
			c6.122-5.163,13.279-9.333,21.164-11.29c3.922-1.003,7.991-1.448,12.037-1.343c4.048,0.112,8.064,0.759,11.961,1.792
			c3.898,1.042,7.667,2.511,11.273,4.283c3.614,1.76,7.085,3.801,10.386,6.085c3.298,2.289,6.447,4.791,9.434,7.49
			c2.979,2.717,5.797,5.599,8.339,8.885l-4.206,0.201c1.392-2.417,2.99-4.313,4.662-6.204c1.677-1.864,3.445-3.613,5.285-5.282
			c3.681-3.333,7.642-6.346,11.857-9.014c8.431-5.26,18.017-9.242,28.347-10.221c5.139-0.497,10.421-0.237,15.528,0.92
			c5.111,1.136,10.018,3.138,14.495,5.76c8.989,5.278,16.168,12.826,21.967,20.96l0.114,0.159l0.132,0.232
			c4.982,8.755,8.869,18.381,10.568,28.55c1.742,10.143,1.404,20.676-0.914,30.646c-1.159,4.986-2.757,9.84-4.696,14.518
			c-1.956,4.672-4.247,9.167-6.775,13.491c-5.059,8.654-11.117,16.563-17.577,23.998c-12.992,14.846-27.818,27.623-42.871,39.81
			c-7.548,6.078-15.167,12.021-22.626,18.1c-3.714,3.055-7.375,6.164-10.827,9.466c-1.72,1.656-3.365,3.381-4.875,5.205
			c-1.487,1.83-2.87,3.788-3.622,5.99l-0.868-0.237c0.567-2.467,1.816-4.67,3.161-6.731c1.358-2.066,2.917-3.97,4.513-5.827
			c3.204-3.706,6.668-7.139,10.167-10.51c3.497-3.375,7.069-6.653,10.649-9.908l10.714-9.756
			c14.243-12.976,28.179-26.238,40.181-40.925c6-7.327,11.428-15.061,15.961-23.194c2.262-4.067,4.273-8.247,5.96-12.526
			c1.708-4.27,3.084-8.644,4.059-13.083c1.99-8.866,2.358-18.014,0.839-26.93c-1.51-8.91-4.655-17.592-9.109-25.681l0.245,0.391
			c-5.166-7.507-11.369-14.273-18.858-18.896c-3.733-2.304-7.765-4.055-11.985-5.099c-4.219-1.044-8.611-1.432-13.017-1.134
			c-8.821,0.604-17.593,3.665-25.589,8.161c-4.013,2.236-7.859,4.834-11.449,7.738c-1.792,1.453-3.522,2.984-5.142,4.594
			c-1.598,1.599-3.175,3.333-4.268,5.019l-2.109,3.254l-2.097-3.053c-2.095-3.048-4.628-5.947-7.304-8.663
			c-2.684-2.722-5.574-5.258-8.634-7.566c-6.098-4.634-12.916-8.397-20.238-10.568c-7.296-2.218-15.141-2.543-22.521-0.721
			c-7.392,1.837-14.147,5.836-19.824,10.963c-2.842,2.571-5.465,5.39-7.882,8.381c-1.212,1.491-2.373,3.033-3.468,4.613
			l-0.814,1.185l-0.409,0.611l-0.205,0.306l-0.103,0.153c-0.03,0.045,0.079-0.116,0.011-0.011l-0.045,0.078
			c-0.488,0.824-0.964,1.654-1.421,2.493c-3.678,6.694-6.215,13.956-7.102,21.381c-0.927,7.423-0.15,14.938,1.918,22.097
			c2.038,7.183,5.373,13.994,9.258,20.496c7.946,12.949,18.125,24.659,28.771,35.946c5.351,5.633,10.898,11.113,16.49,16.577
			l16.843,16.41c5.651,5.459,11.188,11.065,16.665,16.75c5.478,5.683,10.778,11.571,15.786,17.724
			c5.02,6.138,9.668,12.631,13.621,19.552c3.902,6.925,7.055,14.41,8.348,22.247L187.777,300.066z"/>
	</g>
	<g>
		<path fill="#231F20" d="M166.515,266.593C131.467,209.477,25.551,159.918,70.233,89.212c38.103-54.408,83.827-14.556,95.051,0.924
			c7.065-12.014,58.122-56.141,96.225-1.732C298.215,155.715,220.967,183.977,166.515,266.593z"/>
		<path fill="#231F20" d="M166.132,266.829c-8.029-11.312-17.72-21.172-27.682-30.733c-5.004-4.764-10.12-9.424-15.224-14.118
			c-5.115-4.682-10.3-9.313-15.368-14.098c-5.083-4.768-10.146-9.591-15.069-14.595c-4.888-5.038-9.657-10.236-14.158-15.721
			c-4.507-5.475-8.722-11.273-12.324-17.527c-3.608-6.24-6.54-12.986-8.379-20.107c-1.846-7.112-2.379-14.633-1.479-21.933
			c0.915-7.308,3.251-14.321,6.495-20.729c0.811-1.604,1.674-3.177,2.588-4.713c0.455-0.77,0.924-1.529,1.403-2.281l0.722-1.125
			l0.802-1.212c2.093-2.808,4.364-5.589,6.77-8.185c4.812-5.208,10.257-9.945,16.519-13.424c6.207-3.534,13.237-5.732,20.402-6.114
			c7.176-0.445,14.338,0.994,20.994,3.471c6.678,2.494,12.861,6.109,18.583,10.296c2.858,2.105,5.576,4.398,8.18,6.827
			c2.598,2.443,5.068,5.019,7.312,7.923l-3.998,0.191c1.383-2.4,2.975-4.297,4.641-6.185c1.672-1.862,3.437-3.611,5.271-5.279
			c3.673-3.332,7.627-6.346,11.834-9.015c4.205-2.673,8.697-4.95,13.43-6.734c4.728-1.787,9.726-3.051,14.87-3.535
			c5.135-0.5,10.412-0.237,15.519,0.905c5.109,1.134,10.015,3.133,14.492,5.752c8.986,5.274,16.171,12.815,21.972,20.948
			l0.125,0.175l0.144,0.258c2.287,4.106,4.344,8.39,6.026,12.875c1.683,4.48,2.993,9.173,3.677,14.015
			c0.705,4.833,0.827,9.799,0.302,14.693c-0.528,4.893-1.663,9.706-3.34,14.258c-3.353,9.135-8.49,17.212-14.12,24.584
			c-5.641,7.394-11.877,14.118-18.153,20.694c-6.276,6.58-12.756,12.879-19.124,19.252c-6.359,6.381-12.755,12.695-18.927,19.219
			c-12.429,12.964-24.195,26.553-34.971,41.034l-0.384,0.517L166.132,266.829z M166.531,265.708
			c8.998-15.432,19.71-29.88,31.189-43.604c11.646-13.92,24.167-27.054,36.134-40.384c5.976-6.664,11.734-13.461,16.894-20.532
			c2.571-3.539,4.963-7.166,7.067-10.897c2.118-3.722,3.941-7.556,5.327-11.491c1.383-3.934,2.388-7.951,2.825-12.033
			c0.448-4.078,0.362-8.203-0.223-12.299c-1.174-8.194-4.172-16.262-8.247-23.877l0.269,0.433
			c-5.165-7.508-11.361-14.282-18.854-18.908c-7.451-4.655-16.186-6.87-25.015-6.256c-4.408,0.298-8.822,1.204-13.125,2.595
			c-4.304,1.397-8.484,3.3-12.512,5.519c-4.021,2.235-7.874,4.833-11.472,7.737c-1.797,1.453-3.53,2.985-5.155,4.598
			c-1.604,1.601-3.186,3.335-4.288,5.038l-1.989,3.074l-2.008-2.883c-3.774-5.416-8.635-10.352-13.89-14.62
			c-5.268-4.289-11.12-7.893-17.398-10.441c-6.266-2.56-13.042-3.868-19.763-3.546c-6.728,0.323-13.297,2.473-19.078,5.937
			c-5.77,3.503-10.827,8.142-15.153,13.37c-2.169,2.631-4.149,5.355-6.047,8.229l-1.193,2.106c-0.405,0.743-0.799,1.49-1.178,2.243
			c-0.762,1.505-1.47,3.032-2.123,4.576c-2.611,6.175-4.279,12.675-4.655,19.211c-0.437,6.536,0.461,13.063,2.314,19.333
			c1.838,6.287,4.728,12.284,8.1,18.04c3.393,5.753,7.324,11.257,11.539,16.586c4.23,5.321,8.779,10.441,13.486,15.445
			c4.675,5.036,9.497,9.977,14.391,14.873l14.702,14.752c4.91,4.932,9.75,9.96,14.461,15.125c4.733,5.141,9.274,10.483,13.555,16.03
			C159.52,254.156,163.323,259.777,166.531,265.708z"/>
	</g>
</g>
</svg>
