<?xml version="1.0" encoding="UTF-8" standalone="no"?>
<!DOCTYPE svg PUBLIC "-//W3C//DTD SVG 1.1//EN" "http://www.w3.org/Graphics/SVG/1.1/DTD/svg11.dtd">
<svg width="100%" height="100%" viewBox="0 0 1024 1024" version="1.1" xmlns="http://www.w3.org/2000/svg" xmlns:xlink="http://www.w3.org/1999/xlink" xml:space="preserve" xmlns:serif="http://www.serif.com/" style="fill-rule:evenodd;clip-rule:evenodd;stroke-linejoin:round;stroke-miterlimit:1.41421;">
    <g id="boy">
        <path d="M760.407,327.15C765.768,328.055 760.937,334.802 757.661,335.27C738.687,337.983 719.826,341.531 703.296,351.92C664.768,376.132 644.658,420.678 632.433,463.156C619.948,506.553 613.563,554.565 619.018,599.685C622.192,625.927 631.065,652.091 648.188,672.448C663.995,691.238 685.302,704.469 708.965,710.476C736.614,717.499 766.412,716.991 794.105,710.315C822.572,703.453 857.094,690.841 873.969,664.849C891.067,638.519 886.241,601.747 884.824,571.999C883.059,535.031 876.052,498.221 865.784,462.741C861.781,448.899 857.775,434.798 851.286,421.9C845.438,410.278 838.448,399.27 830.635,388.9C822.157,377.645 812.842,366.779 802.032,357.74C794.609,351.534 783.655,344.97 775.391,343.084C761.929,340.012 773.365,322.739 782.547,321.915C806.395,319.777 826.535,339.547 841.027,356.457C856.413,374.41 870.768,395.279 879.484,417.477C892.562,450.783 900.311,487.524 905.426,522.888C907.984,540.59 909.219,558.248 909.922,576.112C910.596,593.116 911.262,610.215 909.216,627.159C907.169,644.105 902.064,660.784 892.331,674.891C882.52,689.109 868.633,700.548 853.912,709.26C825.106,726.307 791.575,735.826 758.341,737.958C705.153,741.371 648.67,724.056 619.451,675.896C592.935,632.191 592.433,579.447 598.332,529.983C604.181,480.923 617.987,430.863 645.931,389.761C670.709,353.323 714.024,319.338 760.407,327.15Z" style="fill:rgb(1,1,1);fill-rule:nonzero;"/>
        <path d="M656.743,566.297C650.219,566.182 652.665,559.314 656.213,556.765C654.325,558.122 658.714,555.177 657.623,555.74C658.244,555.42 658.864,555.106 659.486,554.787C660.912,554.06 662.334,553.33 663.761,552.606C666.004,551.469 668.215,550.261 670.471,549.154C674.51,547.175 680.953,547.106 681.273,553.143C681.556,558.539 676.359,563.417 671.289,563.878C668.167,564.164 667.51,564.363 664.682,564.964C662.07,565.518 659.417,566.344 656.743,566.297Z" style="fill:rgb(1,1,1);fill-rule:nonzero;"/>
        <path d="M676.588,560.32C686.511,569.161 695.857,576.423 709.245,579.238C724.935,582.538 741.161,582.053 756.971,579.815C773.379,577.489 789.617,573.383 805.115,567.433C811.261,565.076 817.297,562.468 823.059,559.252C828.978,555.95 831.001,554.604 834.923,550.917C833.625,554.685 832.326,558.451 831.029,562.219C830.355,559.929 830.427,556.715 829.175,554.656C824.024,546.163 835.037,534.121 843.973,538.591C847.737,540.476 852.751,542.889 853.975,547.353C855.218,551.878 853.062,555.891 849.894,558.942C847.329,560.798 847.329,560.798 849.894,558.942C848.731,559.981 847.417,560.747 845.944,561.24C844.833,561.505 844.351,561.823 842.864,561.943C838.223,562.325 834.666,558.214 830.907,556.047C836.216,551.332 841.529,546.614 846.84,541.898C848.562,545.171 848.497,548.215 849.293,551.69C850.283,556.012 848.785,560.1 845.399,562.994C833.812,572.908 818.969,579.221 804.715,584.025C787.324,589.888 769.094,593.904 750.816,595.464C733.961,596.903 715.801,596.983 699.613,591.352C686.846,586.914 672.385,578.61 671.292,563.396C671.112,560.863 674.573,558.523 676.588,560.32Z" style="fill:rgb(1,1,1);fill-rule:nonzero;"/>
        <path d="M613.836,491.524C613.883,493.389 610.021,496.04 609.441,493.49C605.832,477.569 581.202,482.198 571.905,488.668C563.105,494.79 560.557,506.015 563.092,516.159C565.676,526.507 571.339,537.276 580.322,543.368C587.097,547.968 595.144,550.056 600.443,544.202C601.824,547.704 603.201,551.204 604.58,554.704C600.955,555.118 593.867,554.643 595.053,549.046C596.22,543.543 602.871,540.521 607.709,539.934C613.736,539.201 615.318,546.55 611.844,550.436C601.123,562.442 585.12,567 571.206,557.269C558.579,548.44 549.583,533.524 548.158,517.962C546.552,500.419 555.471,483.372 571.5,475.794C580.057,471.746 591.007,469.114 600.305,472.29C604.263,473.641 608.554,475.307 610.855,479.079C613.565,483.52 613.709,486.508 613.836,491.524Z" style="fill:rgb(1,1,1);fill-rule:nonzero;"/>
        <path d="M890.913,487.08C890.259,488.819 886.572,489.404 887.196,486.907C889.592,477.393 893.624,470.413 901.872,464.68C910,459.035 920.634,455.957 930.494,457.53C948.995,460.48 967.508,478.703 969.202,497.926C970.814,516.222 960.182,533.098 946.137,543.737C938.306,549.673 929.066,554.341 919.432,556.336C912.362,557.799 896.78,561.591 892.8,553.457C891.248,550.286 894.411,546.647 896.79,545.117C903.246,540.971 912.778,543.82 920.178,541.987C926.783,540.349 933.003,537.813 938.61,533.871C947.681,527.494 955.671,516.708 955.354,505.047C954.948,490.059 943.012,476.359 929.507,470.992C915.723,465.512 896.419,472.402 890.913,487.08Z" style="fill:rgb(1,1,1);fill-rule:nonzero;"/>
        <path d="M914.427,501.792C912.987,501.879 912.045,500.787 912.318,499.354C913.337,493.984 921,489.797 926.11,490.838C930.741,491.784 933.87,495.645 935.011,500.158C936.413,505.707 936.261,511.353 934.192,516.723C932.034,522.321 926.11,529.496 919.623,529.461C911.046,529.411 913.692,519.732 918.905,516.52C920.103,515.778 921.399,515.463 922.658,514.92C922.238,515.1 920.694,516.42 921.824,515.251C920.22,516.906 922.623,513.601 921.87,515.1C922.193,514.455 922.516,513.808 922.763,513.124C923.358,511.478 923.735,507.929 923.362,505.372C923.086,503.486 922.199,500.886 921.015,500.274C919.289,499.387 916.614,501.656 914.427,501.792Z" style="fill:rgb(1,1,1);fill-rule:nonzero;"/>
        <path d="M588.937,504.009C585.531,506.52 581.319,508.176 580.696,512.967C580.135,517.287 582.891,519.908 586.468,521.618C594.199,525.312 583.052,539.313 576.842,534.473C569.709,528.91 566.529,520.072 570.56,511.426C573.471,505.182 580.943,497.019 588.603,498.658C591.25,499.227 590.698,502.71 588.937,504.009Z" style="fill:rgb(1,1,1);fill-rule:nonzero;"/>
        <path d="M714.789,467.787C716.439,464.311 724.487,459.406 726.439,465.388C730.872,478.964 722.799,495.424 731.61,508.147C725.494,510.919 719.38,513.695 713.266,516.468C717.186,504.471 722.611,485.097 711.302,475.582C713.596,476.41 715.892,477.237 718.187,478.063C718.664,477.927 719.139,477.791 719.613,477.653C722.949,472.231 726.285,466.811 729.618,461.391C731.545,470.234 732.409,481.6 729.899,490.362C728.423,495.514 724.767,499.758 719.613,501.424C715.607,502.719 710.105,501.946 708.526,497.331C705.635,488.88 706.536,477.062 708.234,468.362C709.485,461.966 717.241,455.085 724.022,456.846C719.869,455.768 727.451,457.725 727.647,457.832C728.685,458.618 729.683,459.45 730.646,460.326C732.539,462.305 734.136,464.572 735.347,467.051C737.749,471.955 738.951,477.693 739.056,483.163C739.283,494.932 736.908,506.61 732.186,517.362C729.167,524.241 717.908,529.524 713.526,521.208C709.063,512.74 708.634,503.092 709.366,493.712C710.029,485.237 711.115,475.529 714.789,467.787Z" style="fill:rgb(1,1,1);fill-rule:nonzero;"/>
        <path d="M768.255,464.572C770.481,462.877 775.051,461.879 775.371,465.98C775.978,473.759 773.478,481.785 773.705,489.695C773.914,497.044 774.194,506.831 778.36,513.216C772.192,515.264 766.021,517.311 759.853,519.358C762.904,511.842 765.232,504.016 766.166,495.913C766.875,489.717 767.446,480.684 762.246,476.248C769.061,473.986 775.875,471.727 782.687,469.464C781.58,472.051 780.783,474.729 779.391,477.168C775.15,484.61 760.87,491.603 758.585,478.875C757.756,474.248 759.635,469.62 761.572,465.481C764.307,459.648 776.538,450.785 782.014,458.696C794.613,476.904 789.16,504.604 778.968,522.965C775.726,528.81 763.116,537.155 759.225,527.034C755.117,516.344 755.138,504.419 756.606,493.19C757.859,483.59 760.094,470.786 768.255,464.572Z" style="fill:rgb(1,1,1);fill-rule:nonzero;"/>
        <path d="M664.235,714.677C665.626,712.037 671.886,710.292 670.798,714.986C661.478,755.158 663.818,799.091 675.437,838.451C672.619,836.857 669.8,835.267 666.978,833.673C703.096,831.072 738.443,842.655 774.482,842.173C792.685,841.927 810.797,840.188 828.872,838.063C837.906,836.998 846.935,835.869 855.974,834.852C865.139,833.822 874.506,832.248 883.727,832.935C878.49,839.877 873.252,846.823 868.018,853.765C866.007,850.902 865.041,848.409 864.977,844.904C864.863,838.569 870.316,833.953 876.07,832.977C880.219,832.272 882.385,832.439 886.356,833.859C891.376,835.66 890.954,842.954 889.195,846.74C887.351,850.703 883.246,854.951 878.859,855.915C869.676,857.937 860.144,858.234 850.803,859.274C841.768,860.28 832.746,861.389 823.712,862.421C805.666,864.487 787.529,866.369 769.348,866.429C733.281,866.546 698.344,856.07 662.324,855.675C657.741,855.624 653.622,853.526 653.342,848.345C650.97,804.437 642.862,755.248 664.235,714.677Z" style="fill:rgb(1,1,1);fill-rule:nonzero;"/>
        <path d="M861.1,699.427C861.551,694.733 868.816,691.562 871.421,696.06C875.577,703.24 877.568,716.18 879.581,725.479C883.072,741.613 886.428,757.782 889.367,774.029C892.092,789.107 894.745,804.291 896.062,819.576C897.061,831.154 899.146,847.662 886.923,854.158C881.263,857.166 872.726,856.75 872.093,848.684C872,847.467 872.163,845.935 872.497,844.679C872.835,843.404 873.311,842.169 873.758,840.929C873.043,843.146 872.862,843.661 873.216,842.48C873.521,841.359 874.291,836.046 874.097,838.978C874.462,833.49 874.376,827.979 874.14,822.488C873.471,806.979 871.85,791.509 870.015,776.102C868.14,760.357 866.06,744.636 863.776,728.947C862.386,719.389 860.169,709.078 861.1,699.427Z" style="fill:rgb(1,1,1);fill-rule:nonzero;"/>
        <path d="M671.27,847.999C673.17,844.33 681.479,842.023 680.195,848.42C676.303,867.781 678.357,885.855 679.739,905.308C677.546,903.52 675.349,901.729 673.157,899.939C703.628,894.703 733.94,903.314 764.452,900.67C760.854,904.541 757.256,908.411 753.659,912.275C752.257,900.3 755.782,888.379 763.887,879.451C766.855,876.182 772.267,872.242 776.857,875.095C789.158,882.731 804.346,891.849 808.367,906.925C805.206,905.757 802.042,904.589 798.878,903.423C812.667,900.548 826.323,901.302 840.268,902.51C852.113,903.534 864.808,905.311 876.422,901.894C873.437,905.105 870.455,908.314 867.468,911.525C868.171,903.237 868.241,889.927 866.955,879.911C866.326,875.019 865.483,869.998 863.322,865.518C861.911,862.585 859.108,859.865 857.72,858.994C851.249,854.933 857.037,845.106 862.876,843.829C892.775,837.291 887.87,892.567 886.325,909.978C885.942,914.288 881.226,918.492 877.371,919.613C851.725,927.051 825.494,915.588 799.808,920.836C796.532,921.509 791.448,921.638 790.32,917.335C787.105,905.057 774.586,897.745 764.686,891.347C768.388,890.568 772.09,889.788 775.794,889.009C771.425,893.692 770.925,900.424 771.558,906.475C772.159,912.212 766.031,917.678 760.764,918.08C730.307,920.394 700.129,911.337 669.743,916.059C666.693,916.533 662.964,914.101 663.163,910.69C664.348,890.431 661.658,866.575 671.27,847.999Z" style="fill:rgb(1,1,1);fill-rule:nonzero;"/>
        <path d="M724.057,734.691C724.385,733.654 727.172,731.386 727.644,733.521C730.129,744.807 737.378,748.932 747.855,751.652C756.414,753.872 768.428,755.34 776.936,752.323C779.768,751.32 776.78,753.053 777.482,752.158C778.099,751.415 778.672,750.636 779.198,749.821C780.303,748.016 781.267,745.838 781.825,743.789C782.927,739.763 782.22,735.275 783.106,732.047C785.702,722.597 799.616,720.627 799.407,732.443C799.231,742.419 793.922,754.548 786.442,761.102C778.477,768.078 767.428,768.091 757.438,767.233C747.731,766.393 738.098,764.072 730.065,758.233C721.912,752.302 721.162,743.804 724.057,734.691Z" style="fill:rgb(1,1,1);fill-rule:nonzero;"/>
        <path d="M665.39,719.075C658.472,724.981 650.445,729.272 643.929,735.787C637.437,742.28 632.441,749.695 628.394,757.941C628.239,755.463 628.085,752.987 627.932,750.508C633.86,755.877 642.993,757.732 649.759,761.904C656.958,766.345 662.896,775.442 653.776,782.101C651.487,783.774 646.694,786.149 644.436,782.867C637.294,772.504 630.662,762.864 621.783,754.384C619.911,752.602 620.214,749.023 621.317,746.952C626.968,736.354 627.357,734.933 636.494,727.212C643.94,720.921 653.894,713.083 664.081,712.903C667.852,712.837 667.717,717.094 665.39,719.075Z" style="fill:rgb(1,1,1);fill-rule:nonzero;"/>
        <path d="M870.19,690.41C874.336,686.493 879.764,696.103 882.148,698.41C887.995,704.074 894.611,708.873 901.256,713.524C914.671,722.919 929.177,731.994 939.852,744.691C945.012,750.826 936.62,758.512 930.915,759.383C922.303,760.695 914.367,763.256 906.667,767.428C902.797,769.527 898.992,771.747 895.262,774.095C891.472,776.481 888.146,779.189 883.487,779.128C878.753,779.065 875.841,774.965 878.225,770.42C883.016,761.281 896.098,755.378 905.136,751.121C914.364,746.776 924.167,743.164 934.438,742.737C931.131,747.082 927.82,751.424 924.513,755.768C916.784,741.725 900.597,732.116 888.732,722.002C883.211,717.299 860.771,699.293 870.19,690.41Z" style="fill:rgb(1,1,1);fill-rule:nonzero;"/>
        <path d="M700.698,908.253C701.855,906.436 706.414,906.075 705.42,909.156C697.886,932.483 697.191,957.604 707.683,980.082C710.11,985.281 702.976,990.73 698.427,990.063C694.876,989.545 690.955,989.303 687.505,990.545C686.169,991.023 685.174,992.562 685.756,990.921C686.216,990.372 686.478,990.77 686.544,992.113C690.023,996.601 694.036,999.411 699.704,1000.03C704.679,1000.58 721.061,999.973 721.221,992.172C721.477,979.712 715.73,968.097 714.808,955.778C713.694,940.839 713.724,924.935 719.374,910.903C723.706,911.719 728.04,912.539 732.373,913.354C731.442,915.334 730.269,916.943 729.06,918.744C726.996,921.814 720.564,924.213 718.734,919.591C717.513,916.508 717.989,913.843 719.375,910.903C722.909,903.389 736.46,903.338 732.374,913.354C724.345,933.051 729.98,955.106 733.846,974.959C735.261,982.222 736.415,990.07 732.964,996.945C729.615,1003.62 722.696,1008.26 715.895,1010.71C701.919,1015.73 682.829,1015.31 674.367,1000.9C670.133,993.699 673.559,986.024 679.945,981.549C686.977,976.617 696.135,976.047 704.343,977.363C701.257,980.689 698.169,984.018 695.085,987.344C689.321,961.661 685.829,931.636 700.698,908.253Z" style="fill:rgb(1,1,1);fill-rule:nonzero;"/>
        <path d="M826.6,916.479C826.98,914.722 831.141,911.788 831.877,914.762C834.76,926.391 834.549,939.147 835.616,951.071C836.749,963.768 839.047,975.952 841.451,988.419C842.255,992.595 837.026,996.981 833.33,997.15C831.898,997.215 825.059,997.306 826.302,999.894C828.185,1003.83 832.613,1005.76 836.724,1005.98C845.078,1006.42 854.17,1003.2 861.142,998.691C859.619,1001.88 858.097,1005.06 856.576,1008.24C852.314,988.843 846.68,970.261 846.507,950.226C846.455,944.297 846.406,938.366 846.357,932.439C846.325,928.776 845.657,924.222 846.704,920.657C847.852,916.759 851.063,913.412 855.252,913.067C858.78,912.778 861.919,915.788 860.829,919.498C860.657,920.074 860.489,920.655 860.319,921.231C859.049,925.542 849.937,932.682 847.383,925.448C847.219,924.979 847.056,924.511 846.888,924.044C844.32,916.757 857.779,907.996 860.641,916.111C861.873,919.605 861.205,924 861.173,927.63C861.126,933.269 861.078,938.904 861.03,944.541C860.865,963.917 865.989,981.709 870.002,1000.49C870.875,1004.57 868.83,1007.87 865.432,1010.04C852.942,1018.03 832.066,1024.58 818.994,1014.8C812.761,1010.15 810.331,1002.41 814.459,995.446C819.012,987.767 827.55,984.321 836.105,984.05C833.397,986.962 830.691,989.87 827.984,992.783C826.339,980.2 825.723,967.153 825.155,954.458C824.6,942.064 823.974,928.664 826.6,916.479Z" style="fill:rgb(1,1,1);fill-rule:nonzero;"/>
        <path d="M647.713,727.104C644.576,729.632 638.418,725.769 635.447,724.258C630.028,721.498 624.913,718.265 619.85,714.917C614.412,711.323 608.994,707.708 603.477,704.233C599.257,701.571 593.16,696.316 588.172,695.401C581.801,694.232 576.511,681.909 585.619,681.739C592.25,681.61 597.128,687.194 597.307,693.536C597.497,700.238 587.505,695.623 585.026,694.299C586.758,690.861 588.491,687.432 590.222,683.997C594.434,687.795 600.248,690.597 604.89,693.92C610.255,697.761 615.536,701.702 620.957,705.463C626.057,708.995 631.2,712.492 636.488,715.742C640.139,717.989 645.658,719.894 647.871,723.692C648.515,724.791 648.835,726.198 647.713,727.104Z" style="fill:rgb(1,1,1);fill-rule:nonzero;"/>
        <path d="M570.468,675.615C570.001,673.771 571.56,677.843 569.99,674.46C569.707,673.914 569.501,673.333 569.379,672.73C569.149,671.789 568.943,670.838 568.678,669.903C568.076,667.781 567.443,665.663 566.706,663.585C566.284,662.392 565.853,661.199 565.32,660.053C565.132,659.633 564.937,659.22 564.727,658.814C565.095,659.48 565.083,659.49 564.695,658.839C564.205,658.155 564.304,658.246 564.99,659.101C564.425,658.58 563.926,658.006 563.485,657.374C562.391,655.399 566.321,660.311 568.074,659.461C564.517,661.186 560.101,657.202 560.595,653.468C561.096,649.663 563.7,646.858 567.846,648.232C571.822,649.546 574.119,653.956 575.271,657.697C577.238,664.102 579.295,672.147 575.705,678.189C574.101,680.885 570.88,677.259 570.468,675.615Z" style="fill:rgb(1,1,1);fill-rule:nonzero;"/>
        <path d="M563.087,684.573C560.648,681.136 557.81,677.719 554.55,675.007C551.367,672.357 549.153,673.768 545.442,673.241C542.151,672.775 539.391,669.111 540.405,665.835C542.866,657.894 552.535,661.533 557.123,665.272C562.576,669.714 565.951,675.861 568.197,682.377C569.564,686.351 565.354,687.763 563.087,684.573Z" style="fill:rgb(1,1,1);fill-rule:nonzero;"/>
        <path d="M557.83,696.45C553.633,696.375 548.983,694.757 544.764,694.13C541.078,693.585 536.727,694.396 533.261,693.215C529.989,692.104 527.112,687.26 529.39,684.124C532.288,680.137 539.928,681.706 543.957,683.064C548.987,684.756 555.031,686.859 558.885,690.603C560.601,692.269 561.256,696.51 557.83,696.45Z" style="fill:rgb(1,1,1);fill-rule:nonzero;"/>
        <path d="M562.158,700.533C564.381,699.096 567.489,702.255 567.097,704.489C565.428,713.985 553.481,719.335 544.745,715.464C541.279,713.929 537.59,707.246 542.861,705.466C546.477,704.245 550.27,705.041 553.965,704.188C557.146,703.455 559.445,702.284 562.158,700.533Z" style="fill:rgb(1,1,1);fill-rule:nonzero;"/>
        <path d="M628.028,733.061C630.241,734.835 628.948,738.84 625.955,737.173C617.999,732.74 610.471,727.619 602.661,722.944C595.825,718.851 586.473,712.664 578.131,712.978C571.496,713.227 567.471,700.29 575.703,699.982C577.185,699.928 578.726,700.429 580.112,700.879C583.94,702.123 589.111,712.537 582.405,713.048C580.357,713.204 578.621,713.229 576.629,712.652C570.074,710.755 568.694,697.84 577.213,700.306C597.084,706.068 612.328,720.465 628.028,733.061Z" style="fill:rgb(1,1,1);fill-rule:nonzero;"/>
        <path d="M904.006,776.681C903.278,775.343 905.694,773.645 906.745,774.7C914.052,782.024 921.008,789.429 927.507,797.509C931.008,801.863 934.486,806.24 937.744,810.784C940.116,814.093 942.886,820.386 946.627,822.235C947.99,822.909 948.838,824.489 948.881,825.985C949.182,836.47 949.344,846.96 949.486,857.451C944.627,859.028 939.767,860.604 934.912,862.179C935.325,856.449 936.653,851.164 940.985,847.207C942.45,845.871 944.812,845.023 946.681,846.01C951.905,848.769 949.815,854.375 949.336,859.23C948.691,865.791 934.795,870.968 934.911,862.179C935.019,854.117 935.072,846.055 935.302,837.998C935.421,833.623 936.181,828.973 934.03,824.961C931.961,821.109 929.751,817.337 927.406,813.647C919.553,801.291 911.021,789.567 904.006,776.681Z" style="fill:rgb(1,1,1);fill-rule:nonzero;"/>
        <path d="M961.533,840.189C963.598,846.124 966.964,851.622 971.019,856.381C974.693,860.689 979.362,863.378 983.212,867.312C987.383,871.575 979.905,878.731 975.401,877.671C969.092,876.19 963.629,868.9 960.436,863.589C956.458,856.972 953.752,849.967 955.439,842.171C955.912,840.001 960.385,836.893 961.533,840.189Z" style="fill:rgb(1,1,1);fill-rule:nonzero;"/>
        <path d="M975.781,836.111C981.193,839.318 986.115,844.003 990.521,848.48C992.953,850.952 995.436,853.379 997.85,855.87C1000.46,858.559 1001.5,859.76 1000.91,863.596C1000.54,866.027 998.022,867.954 995.72,868.203C989.241,868.905 985.26,860.87 981.838,856.19C978.217,851.239 974.422,846.52 970.601,841.733C968.402,838.98 972.934,834.427 975.781,836.111Z" style="fill:rgb(1,1,1);fill-rule:nonzero;"/>
        <path d="M979.279,824.491C983.427,824.912 988.267,827.049 991.544,829.645C995.107,832.466 999.564,835.706 999.789,840.66C999.983,844.853 995.087,848.5 991.263,846.864C987.654,845.326 985.22,840.612 982.454,837.847C979.929,835.323 977.003,833.372 974.381,830.99C971.388,828.268 976.734,824.236 979.279,824.491Z" style="fill:rgb(1,1,1);fill-rule:nonzero;"/>
        <path d="M909.663,760.823C908.588,758.266 912.549,755.507 914.558,757.291C926.923,768.27 939.409,779.173 951.488,790.48C957.473,796.085 963.725,801.786 968.593,808.449C972.649,813.992 975.729,818.699 971.237,825.132C969.091,828.209 962.835,830.586 960.912,825.98C961.528,827.456 959.874,824.532 959.588,823.943C959.165,823.081 959.439,821.65 959.089,820.923C957.831,818.304 956.179,815.93 954.423,813.625C949.304,806.904 943.634,800.625 937.888,794.448C931.873,787.984 925.695,781.674 919.868,775.029C916.015,770.635 911.963,766.292 909.663,760.823Z" style="fill:rgb(1,1,1);fill-rule:nonzero;"/>
        <path d="M739.635,339.01C736.229,343.066 731.559,345.688 728.14,349.759C725.212,353.244 722.449,357.038 720.528,361.202C716.344,370.266 716.543,379.6 714.859,389.238C713.67,396.06 702.397,402.51 698.411,394.601C692.074,382.037 698.772,365.01 705.648,354.045C711.469,344.763 724.62,330.91 736.559,331.2C740.876,331.305 742.427,335.687 739.635,339.01Z" style="fill:rgb(1,1,1);fill-rule:nonzero;"/>
        <path d="M756.914,344.389C763.743,342.622 762.807,350.346 758.718,353.195C752.09,357.811 748.065,367.879 746.346,375.48C744.347,384.324 745.136,394.596 740.762,402.664C738.435,406.957 731.91,411.511 727.566,407.042C719.188,398.434 725.579,379.311 729.601,369.907C734.921,357.464 743.768,347.787 756.914,344.389Z" style="fill:rgb(1,1,1);fill-rule:nonzero;"/>
        <path d="M779.369,363.744C778.223,373.871 780.098,383.955 778.792,393.955C777.692,402.426 760.807,409.552 759.88,397.821C758.979,386.442 764.318,373.763 768.12,363.213C770.114,357.678 780.232,356.118 779.369,363.744Z" style="fill:rgb(1,1,1);fill-rule:nonzero;"/>
    </g>
    <path id="Stick" d="M569.023,685.793C560.131,678.364 551.728,670.507 543.434,662.554C535.159,654.585 527.086,646.439 519.153,638.168C511.219,629.9 503.416,621.518 495.766,613C488.058,604.533 480.608,595.841 473.504,586.845C459.284,568.864 446.385,549.724 431.69,532.158C424.378,523.344 416.765,514.795 408.958,506.415C401.166,498.021 393.041,489.921 384.893,481.841L372.646,469.741C368.571,465.701 364.509,461.65 360.514,457.541C352.492,449.35 344.73,440.931 336.926,432.548C321.317,415.784 305.691,399.036 290.82,381.625C275.964,364.201 261.498,346.436 247.424,328.325C240.386,319.271 233.448,310.13 226.655,300.861C219.885,291.572 213.177,282.229 206.82,272.578L208.174,271.391C216.909,278.958 225.293,286.832 233.614,294.76C241.913,302.709 250.067,310.784 258.12,318.948C274.231,335.272 289.948,351.941 305.276,368.952C320.589,385.975 335.146,403.661 349.72,421.333C357.008,430.167 364.337,438.966 371.407,447.992C374.957,452.491 378.441,457.049 381.912,461.618L392.303,475.344C399.246,484.482 406.213,493.598 413.513,502.421C420.798,511.259 428.276,519.927 436.056,528.33C451.545,545.199 468.83,560.494 484.793,576.947C492.78,585.169 500.422,593.693 507.806,602.444C515.247,611.143 522.536,619.978 529.694,628.927C536.853,637.874 543.873,646.945 550.689,656.193C557.487,665.458 564.175,674.818 570.376,684.606L569.023,685.793Z" style="fill-rule:nonzero;"/>
    <path id="Board" d="M645.379,395.034L638.834,415.559L632.171,436.267L618.717,477.637L618.131,479.437L616.121,479.854L562.337,491.02L565.984,487.51L555.891,536.535L555.019,540.77L550.499,540.846C487.728,541.908 424.957,542.715 362.186,543.254C299.415,543.783 236.644,544.154 173.873,544.275C111.102,544.452 48.331,544.171 -14.44,543.347C-45.825,542.972 -77.211,542.434 -108.596,541.894L-202.753,540.275L-207.789,540.188L-207.709,535.319C-206.953,489.064 -206.351,442.81 -206.039,396.555C-205.73,350.3 -205.712,304.046 -205.851,257.791C-206.003,211.536 -206.317,165.282 -206.913,119.027L-207.317,84.336L-207.813,49.645L-208.845,-19.737L-208.934,-25.735L-202.754,-25.828C-123.746,-27.017 -44.738,-28.135 34.269,-28.634L271.293,-30.072C350.301,-30.475 429.309,-30.605 508.316,-30.348C587.324,-30.113 666.332,-29.559 745.339,-28.806L754.502,-28.719L754.407,-19.738L753.494,66.571L752.336,152.88L751.696,196.034L750.994,239.188C750.453,267.958 750.02,296.727 749.375,325.497L749.306,328.583L746.502,329.361L696.337,343.285L697.614,342.496L671.467,368.884L645.379,395.034ZM643.635,393.969L668.531,366.113L693.384,338.501L693.86,337.972L694.663,337.712L744.181,321.637L741.308,325.502C740.662,296.732 740.23,267.963 739.689,239.193L738.987,196.039L738.347,152.885L737.189,66.576L736.276,-19.733L745.344,-10.665C666.336,-9.912 587.328,-9.358 508.321,-9.123C429.311,-8.866 350.303,-8.997 271.295,-9.4L34.271,-10.837C-44.737,-11.336 -123.745,-12.453 -202.752,-13.643L-196.661,-19.734L-197.693,49.648L-198.189,84.339L-198.593,119.03C-199.189,165.285 -199.503,211.539 -199.655,257.794C-199.794,304.048 -199.776,350.303 -199.467,396.558C-199.155,442.812 -198.553,489.067 -197.797,535.322L-202.753,530.366L-108.596,528.747C-77.211,528.207 -45.825,527.669 -14.44,527.294C48.331,526.471 111.102,526.19 173.873,526.366C236.644,526.487 299.415,526.858 362.186,527.387C424.957,527.926 487.728,528.734 550.499,529.795L545.107,534.107L557.014,485.49L557.757,482.453L560.661,481.98L614.877,473.146L612.281,475.363L627.827,434.733L635.664,414.441L643.635,393.969Z" style="fill-rule:nonzero;"/>
    <g id="Layer_6">
        <path d="M649.663,66.42C646.547,63.917 643.073,61.992 639.405,60.682C632.949,57.108 625.236,54.6 617.758,54.385C615.347,54.022 612.889,53.869 610.513,54.045C607.111,54.297 602.01,54.272 599.129,56.594C598.897,56.688 598.65,56.858 598.467,57.06C592.778,56.1 586.536,57.252 581.343,59.198C573.66,62.077 566.92,67.583 561.578,73.711C550.295,86.651 543.351,103.395 539.336,119.937C536.754,130.569 535.426,141.585 533.965,152.413C532.162,165.788 531.124,179.288 532.211,192.771C533.99,214.818 541.893,237.675 556.727,254.425C564.506,263.208 574.523,269.341 585.716,272.698C591.805,274.525 598.147,275.244 604.484,275.441C607.856,275.546 611.233,275.406 614.594,275.129C615.674,275.041 616.725,274.903 617.76,274.731C617.975,274.74 618.189,274.759 618.405,274.765C618.966,274.781 619.69,274.568 620.432,274.208C622.395,273.77 624.334,273.231 626.339,272.665C627.334,272.384 628.387,271.874 629.093,271.076C629.401,271.224 629.821,271.278 630.364,271.175C649.485,267.544 663.122,252.774 670.968,235.711C678.872,218.524 680.984,198.83 681.601,180.125C682.036,166.997 681.288,153.859 679.692,140.826C677.813,125.473 674.695,110.165 669.152,95.688C664.965,84.758 658.901,73.837 649.663,66.42ZM628.041,267.46C625.098,266.856 622.139,266.944 619.176,267.175C615.067,265.863 610.713,265.175 606.571,264.027C601.973,262.752 597.484,261.074 593.199,258.972C583.69,254.305 575.8,246.822 569.479,238.408C556.252,220.797 552.434,197.883 552.262,176.381C552.172,165.147 553.161,153.934 554.578,142.798C555.597,134.808 556.838,126.875 558.766,119.051C562.71,103.051 568.472,86.53 578.208,73.074C580.635,69.719 583.489,66.566 586.817,64.239C589.923,62.066 593.63,60.939 597.422,60.143C597.438,60.14 597.454,60.133 597.47,60.129C598.133,60.141 598.795,60.163 599.457,60.189C599.652,60.453 600.004,60.664 600.562,60.778C602.556,61.188 604.58,61.458 606.599,61.754C607.969,62.336 609.32,62.959 610.613,63.707C614.438,65.919 618.045,68.207 621.35,71.166C628.184,77.285 633.482,84.764 637.853,92.789C642.439,101.208 645.903,110.21 648.925,119.291C652.344,129.567 655.232,139.962 656.988,150.66C660.068,169.42 660.222,188.351 659.618,207.301C659.334,216.214 658.754,225.187 656.285,233.8C655.098,237.938 653.433,241.901 651.209,245.586C650.129,247.374 648.795,248.984 647.684,250.747C646.963,251.889 646.719,253.31 646.079,254.463C645.931,254.664 645.783,254.865 645.636,255.071C645.564,255.174 645.484,255.272 645.407,255.374C645.384,255.398 645.362,255.423 645.337,255.447C645.131,255.643 644.988,255.841 644.89,256.034C643.495,257.72 641.778,259.184 640.085,260.53C637.835,262.318 635.413,263.853 632.921,265.275C631.525,266.072 630.03,266.783 628.659,267.66C628.467,267.573 628.258,267.505 628.041,267.46Z" style="fill-rule:nonzero;"/>
        <path d="M160.5,170C162.208,169.016 163.917,168.367 165.625,167.82C167.333,167.281 169.042,166.892 170.75,166.606C172.458,166.315 174.167,166.139 175.875,166.043C177.583,165.94 179.292,165.985 181,166.33C184.417,166.976 187.833,168.59 191.25,168.892C194.667,169.226 198.083,168.729 201.5,167.764C203.208,167.307 204.917,166.814 206.625,166.478C208.333,166.126 210.042,165.966 211.75,165.775C215.167,165.396 218.583,164.994 222,165.157C225.417,165.32 228.833,165.806 232.25,166.55C235.667,167.319 239.083,168.303 242.5,170.001L242.5,171.001C239.083,172.699 235.667,173.683 232.25,174.452C228.833,175.195 225.417,175.681 222,175.845C218.583,176.009 215.167,175.607 211.75,175.227C210.042,175.036 208.333,174.876 206.625,174.524C204.917,174.188 203.208,173.695 201.5,173.238C198.083,172.273 194.667,171.776 191.25,172.11C187.833,172.411 184.417,174.026 181,174.672C179.292,175.017 177.583,175.062 175.875,174.959C174.167,174.863 172.458,174.687 170.75,174.396C169.042,174.11 167.333,173.721 165.625,173.182C163.917,172.635 162.208,171.986 160.5,171.002L160.5,170Z" style="fill-rule:nonzero;"/>
        <path d="M396.5,188C398.563,187.006 400.625,186.373 402.688,185.82C404.751,185.281 406.813,184.892 408.876,184.606C410.939,184.319 413.001,184.129 415.064,184.052C417.127,183.921 419.189,184.005 421.252,184.33C425.377,184.976 429.502,186.59 433.627,186.892C437.752,187.226 441.877,186.729 446.002,185.764C448.065,185.307 450.127,184.814 452.19,184.478C454.253,184.126 456.315,183.966 458.378,183.775C462.503,183.391 466.628,183.002 470.753,183.157C474.878,183.32 479.003,183.806 483.128,184.55C487.253,185.319 491.378,186.303 495.503,188.001L495.503,189.001C491.378,190.699 487.253,191.683 483.128,192.452C479.003,193.195 474.878,193.681 470.753,193.845C466.628,194.001 462.503,193.611 458.378,193.227C456.315,193.036 454.253,192.876 452.19,192.524C450.127,192.188 448.065,191.695 446.002,191.238C441.877,190.273 437.752,189.776 433.627,190.11C429.502,190.411 425.377,192.026 421.252,192.672C419.189,192.997 417.127,193.081 415.064,192.95C413.001,192.873 410.939,192.682 408.876,192.396C406.813,192.11 404.751,191.721 402.688,191.182C400.625,190.629 398.563,189.995 396.5,189.002L396.5,188Z" style="fill-rule:nonzero;"/>
        <path d="M396.5,154C398.563,153.006 400.625,152.373 402.688,151.82C404.751,151.281 406.813,150.892 408.876,150.606C410.939,150.319 413.001,150.129 415.064,150.052C417.127,149.921 419.189,150.005 421.252,150.33C425.377,150.976 429.502,152.59 433.627,152.892C437.752,153.226 441.877,152.729 446.002,151.764C448.065,151.307 450.127,150.814 452.19,150.478C454.253,150.126 456.315,149.966 458.378,149.775C462.503,149.391 466.628,149.002 470.753,149.157C474.878,149.32 479.003,149.806 483.128,150.55C487.253,151.319 491.378,152.303 495.503,154.001L495.503,155.001C491.378,156.699 487.253,157.683 483.128,158.452C479.003,159.195 474.878,159.681 470.753,159.845C466.628,160.001 462.503,159.611 458.378,159.227C456.315,159.036 454.253,158.876 452.19,158.524C450.127,158.188 448.065,157.695 446.002,157.238C441.877,156.273 437.752,155.776 433.627,156.11C429.502,156.411 425.377,158.026 421.252,158.672C419.189,158.997 417.127,159.081 415.064,158.95C413.001,158.873 410.939,158.682 408.876,158.396C406.813,158.11 404.751,157.721 402.688,157.182C400.625,156.629 398.563,155.995 396.5,155.002L396.5,154Z" style="fill-rule:nonzero;"/>
        <path d="M289.727,265.386C292.496,266.212 295.362,266.697 298.256,266.974C299.355,267.25 300.432,267.316 301.481,267.204C303.874,267.319 306.268,267.326 308.63,267.295C315.504,267.206 322.368,266.661 329.225,266.218C344.404,265.239 359.872,267.325 374.931,264.773C376.854,264.447 379.898,262.176 378.742,259.829C376.325,254.921 369.62,255.094 364.459,254.997C364.108,254.935 363.729,254.898 363.309,254.898C362.892,254.898 362.474,254.901 362.057,254.902C361.113,254.832 360.183,254.674 359.265,254.456C357.938,253.29 356.837,251.801 355.701,250.46C355.333,250.024 354.977,249.576 354.624,249.124C354.01,237.954 352.804,226.822 351.941,215.669C350.914,202.375 350.541,189.017 350.24,175.689C349.634,148.901 350.05,122.153 350.582,95.37C350.727,88.062 351.066,80.771 351.342,73.467C351.354,73.132 351.304,72.825 351.21,72.544C351.723,71.669 352.022,70.681 352,69.652C352,69.634 352.001,69.616 352.001,69.599C352.004,69.463 351.998,69.334 351.988,69.209C351.981,68.921 351.975,68.633 351.965,68.345C351.879,65.528 349.13,65.064 346.941,65.525C337.212,67.57 328.596,73.799 320.575,79.357C316.137,82.433 311.649,85.424 307.367,88.718C304.913,90.605 302.424,92.531 300.323,94.774C300.144,94.941 299.962,95.105 299.785,95.274C297.913,97.048 296.336,98.886 294.942,100.862C294.239,101.713 293.616,102.622 293.109,103.608C292.823,103.966 292.538,104.326 292.268,104.702C291.658,105.553 290.816,106.817 290.518,108.055C290.308,108.3 290.103,108.565 289.895,108.858C288.33,111.068 290.209,113.338 292.639,111.985C293.047,111.758 293.449,111.52 293.848,111.279C295.82,110.622 297.83,109.152 299.378,108.237C302.346,106.482 305.053,105.088 308.216,104.057C309.932,103.498 311.484,103.161 312.905,103.363C312.956,103.894 312.996,104.427 313.022,104.96C313.298,110.601 313.465,116.162 313.289,121.814C312.935,133.157 312.617,144.496 312.103,155.834C311.499,169.16 310.901,182.479 311.092,195.821C311.322,211.872 312.233,227.958 311.37,243.985C310.755,246.452 309.995,248.848 309.128,251.014C308.816,251.793 308.473,252.559 308.105,253.313C302.982,256.983 296.901,258.335 290.781,260.477C288.83,261.161 286.845,264.526 289.727,265.386Z" style="fill-rule:nonzero;"/>
        <path d="M43.727,265.386C46.496,266.212 49.362,266.697 52.256,266.974C53.355,267.25 54.432,267.316 55.481,267.204C57.874,267.319 60.268,267.326 62.63,267.295C69.504,267.206 76.368,266.661 83.225,266.218C98.404,265.239 113.872,267.325 128.931,264.773C130.854,264.447 133.898,262.176 132.742,259.829C130.325,254.921 123.62,255.094 118.459,254.997C118.108,254.935 117.729,254.898 117.309,254.898C116.892,254.898 116.474,254.901 116.057,254.902C115.113,254.832 114.183,254.674 113.265,254.456C111.938,253.29 110.837,251.801 109.701,250.46C109.333,250.024 108.977,249.576 108.624,249.124C108.01,237.954 106.804,226.822 105.941,215.669C104.914,202.375 104.541,189.017 104.24,175.689C103.634,148.901 104.05,122.153 104.582,95.37C104.727,88.062 105.066,80.771 105.342,73.467C105.354,73.132 105.304,72.825 105.21,72.544C105.723,71.669 106.022,70.681 106,69.652C106,69.634 106.001,69.616 106.001,69.599C106.004,69.463 105.998,69.334 105.988,69.209C105.981,68.921 105.975,68.633 105.965,68.345C105.879,65.528 103.13,65.064 100.941,65.525C91.212,67.57 82.596,73.799 74.575,79.357C70.137,82.433 65.649,85.424 61.367,88.718C58.913,90.605 56.424,92.531 54.323,94.774C54.144,94.941 53.962,95.105 53.785,95.274C51.913,97.048 50.336,98.886 48.942,100.862C48.239,101.713 47.616,102.622 47.109,103.608C46.823,103.966 46.538,104.326 46.268,104.702C45.658,105.553 44.816,106.817 44.518,108.055C44.308,108.3 44.103,108.565 43.895,108.858C42.33,111.068 44.209,113.338 46.639,111.985C47.047,111.758 47.449,111.52 47.848,111.279C49.82,110.622 51.83,109.152 53.378,108.237C56.346,106.482 59.053,105.088 62.216,104.057C63.932,103.498 65.484,103.161 66.905,103.363C66.956,103.894 66.996,104.427 67.022,104.96C67.298,110.601 67.465,116.162 67.289,121.814C66.935,133.157 66.617,144.496 66.103,155.834C65.499,169.16 64.901,182.479 65.092,195.821C65.322,211.872 66.233,227.958 65.37,243.985C64.755,246.452 63.995,248.848 63.128,251.014C62.816,251.793 62.473,252.559 62.105,253.313C56.982,256.983 50.901,258.335 44.781,260.477C42.83,261.161 40.845,264.526 43.727,265.386Z" style="fill-rule:nonzero;"/>
    </g>
</svg>
