<?xml version="1.0" encoding="UTF-8" standalone="no"?>
<!DOCTYPE svg PUBLIC "-//W3C//DTD SVG 1.1//EN" "http://www.w3.org/Graphics/SVG/1.1/DTD/svg11.dtd">
<svg width="100%" height="100%" viewBox="0 0 1024 1024" version="1.1" xmlns="http://www.w3.org/2000/svg" xmlns:xlink="http://www.w3.org/1999/xlink" xml:space="preserve" xmlns:serif="http://www.serif.com/" style="fill-rule:evenodd;clip-rule:evenodd;stroke-linejoin:round;stroke-miterlimit:1.41421;">
    <g id="boy">
        <path d="M694.058,328.704C700.307,329.88 694.676,338.649 690.859,339.258C668.745,342.784 646.766,347.395 627.501,360.897C582.599,392.364 559.163,450.257 544.916,505.461C530.366,561.862 522.924,624.259 529.283,682.899C532.98,717.003 543.32,751.006 563.277,777.463C581.697,801.881 606.528,819.077 634.108,826.884C666.33,836.013 701.057,835.352 733.332,826.674C766.505,817.756 806.74,801.367 826.406,767.586C846.331,733.366 840.709,685.578 839.054,646.916C836.998,598.872 828.832,551.033 816.866,504.922C812.2,486.934 807.533,468.607 799.97,451.844C793.157,436.74 785.008,422.433 775.903,408.957C766.023,394.33 755.166,380.209 742.571,368.461C733.919,360.397 721.153,351.864 711.523,349.414C695.835,345.421 709.161,322.973 719.864,321.902C747.657,319.124 771.128,344.817 788.016,366.795C805.949,390.128 822.679,417.249 832.834,446.098C848.074,489.382 857.105,537.132 863.07,583.093C866.049,606.098 867.488,629.049 868.306,652.264C869.093,674.363 869.869,696.584 867.485,718.606C865.098,740.629 859.149,762.307 847.806,780.641C836.375,799.118 820.188,813.985 803.033,825.307C769.462,847.462 730.385,859.833 691.653,862.604C629.67,867.04 563.841,844.537 529.791,781.948C498.889,725.148 498.303,656.6 505.178,592.314C511.993,528.555 528.084,463.495 560.648,410.079C589.525,362.72 640.003,318.553 694.058,328.704Z" style="fill:rgb(211,211,211);fill-rule:nonzero;"/>
        <path d="M573.246,639.507C565.643,639.358 568.493,630.431 572.628,627.117C570.431,628.882 575.542,625.054 574.27,625.786C574.996,625.369 575.719,624.962 576.445,624.547C578.106,623.603 579.764,622.653 581.428,621.713C584.04,620.235 586.617,618.666 589.248,617.227C593.954,614.654 601.462,614.566 601.836,622.413C602.163,629.426 596.107,635.766 590.2,636.363C586.559,636.735 585.793,636.995 582.498,637.775C579.452,638.495 576.364,639.567 573.246,639.507Z" style="fill:rgb(211,211,211);fill-rule:nonzero;"/>
        <path d="M596.374,631.739C607.939,643.228 618.83,652.667 634.433,656.325C652.72,660.613 671.627,659.983 690.055,657.076C709.176,654.052 728.101,648.717 746.159,640.984C753.324,637.921 760.358,634.532 767.07,630.352C773.971,626.061 776.329,624.31 780.9,619.519C779.385,624.416 777.874,629.31 776.359,634.207C775.577,631.231 775.661,627.054 774.2,624.377C768.196,613.34 781.032,597.689 791.446,603.498C795.831,605.947 801.675,609.084 803.104,614.886C804.551,620.767 802.039,625.981 798.346,629.947C795.355,632.36 795.355,632.36 798.346,629.947C796.989,631.298 795.459,632.293 793.741,632.932C792.447,633.277 791.887,633.691 790.153,633.847C784.745,634.342 780.599,628.999 776.217,626.184C782.405,620.056 788.596,613.926 794.786,607.796C796.793,612.05 796.717,616.005 797.642,620.522C798.796,626.139 797.053,631.452 793.107,635.213C779.604,648.098 762.305,656.301 745.693,662.546C725.426,670.165 704.179,675.385 682.879,677.411C663.236,679.283 642.073,679.386 623.205,672.068C608.329,666.299 591.473,655.507 590.199,635.735C589.991,632.444 594.024,629.404 596.374,631.739Z" style="fill:rgb(211,211,211);fill-rule:nonzero;"/>
        <path d="M523.242,542.33C523.298,544.754 518.794,548.199 518.122,544.885C513.915,524.195 485.211,530.211 474.374,538.618C464.12,546.574 461.15,561.162 464.105,574.346C467.116,587.795 473.715,601.791 484.184,609.707C492.079,615.686 501.457,618.398 507.635,610.791C509.243,615.342 510.848,619.893 512.453,624.44C508.229,624.978 499.97,624.361 501.351,617.086C502.71,609.935 510.461,606.007 516.099,605.245C523.126,604.291 524.968,613.842 520.919,618.893C508.423,634.496 489.773,640.42 473.56,627.772C458.845,616.297 448.36,596.914 446.701,576.688C444.827,553.888 455.222,531.734 473.902,521.885C483.875,516.624 496.634,513.203 507.471,517.331C512.084,519.087 517.086,521.251 519.766,526.152C522.927,531.927 523.095,535.81 523.242,542.33Z" style="fill:rgb(211,211,211);fill-rule:nonzero;"/>
        <path d="M846.15,536.554C845.389,538.816 841.091,539.574 841.82,536.329C844.61,523.965 849.312,514.891 858.923,507.442C868.397,500.106 880.79,496.105 892.281,498.15C913.842,501.983 935.416,525.667 937.39,550.649C939.269,574.427 926.88,596.36 910.509,610.186C901.384,617.901 890.614,623.968 879.386,626.56C871.147,628.461 852.988,633.389 848.35,622.819C846.542,618.697 850.228,613.967 853,611.979C860.526,606.589 871.633,610.294 880.257,607.912C887.954,605.783 895.203,602.488 901.738,597.364C912.309,589.077 921.619,575.059 921.25,559.903C920.776,540.425 906.868,522.621 891.127,515.645C875.065,508.525 852.569,517.479 846.15,536.554Z" style="fill:rgb(211,211,211);fill-rule:nonzero;"/>
        <path d="M873.555,555.674C871.874,555.787 870.781,554.369 871.096,552.507C872.284,545.528 881.213,540.088 887.168,541.44C892.565,542.669 896.213,547.688 897.544,553.553C899.178,560.764 898.999,568.102 896.588,575.08C894.072,582.357 887.168,591.682 879.609,591.636C869.612,591.571 872.699,578.993 878.771,574.817C880.169,573.852 881.679,573.444 883.147,572.739C882.656,572.971 880.857,574.689 882.175,573.17C880.306,575.321 883.106,571.024 882.228,572.972C882.606,572.136 882.982,571.294 883.27,570.406C883.961,568.267 884.401,563.654 883.965,560.33C883.643,557.88 882.61,554.5 881.23,553.705C879.222,552.549 876.105,555.497 873.555,555.674Z" style="fill:rgb(211,211,211);fill-rule:nonzero;"/>
        <path d="M494.223,558.554C490.254,561.82 485.345,563.97 484.619,570.199C483.965,575.813 487.175,579.22 491.345,581.441C500.357,586.244 487.365,604.439 480.127,598.149C471.815,590.918 468.108,579.432 472.805,568.197C476.2,560.082 484.907,549.473 493.833,551.604C496.92,552.342 496.276,556.868 494.223,558.554Z" style="fill:rgb(211,211,211);fill-rule:nonzero;"/>
        <path d="M640.896,511.481C642.816,506.964 652.197,500.587 654.473,508.363C659.638,526.008 650.23,547.398 660.496,563.933C653.37,567.537 646.246,571.144 639.121,574.747C643.687,559.155 650.011,533.976 636.831,521.609C639.504,522.684 642.181,523.759 644.854,524.833C645.409,524.659 645.963,524.479 646.515,524.303C650.406,517.256 654.293,510.211 658.177,503.167C660.421,514.661 661.428,529.432 658.504,540.819C656.782,547.514 652.524,553.03 646.515,555.195C641.846,556.879 635.436,555.874 633.595,549.876C630.224,538.893 631.277,523.534 633.256,512.228C634.713,503.915 643.75,494.971 651.653,497.261C646.813,495.859 655.65,498.403 655.88,498.542C657.088,499.563 658.251,500.645 659.371,501.784C661.578,504.356 663.443,507.303 664.853,510.522C667.652,516.897 669.051,524.354 669.175,531.462C669.439,546.758 666.67,561.934 661.168,575.908C657.65,584.847 644.526,591.715 639.421,580.906C634.218,569.9 633.719,557.361 634.571,545.172C635.347,534.16 636.614,521.543 640.896,511.481Z" style="fill:rgb(1,1,1);fill-rule:nonzero;"/>
        <path d="M703.204,507.303C705.797,505.099 711.124,503.802 711.496,509.132C712.205,519.241 709.292,529.671 709.554,539.952C709.802,549.503 710.126,562.222 714.983,570.52C707.793,573.18 700.601,575.84 693.414,578.502C696.969,568.734 699.681,558.563 700.772,548.031C701.596,539.978 702.262,528.239 696.204,522.474C704.146,519.535 712.086,516.597 720.026,513.658C718.734,517.019 717.805,520.5 716.185,523.67C711.242,533.342 694.601,542.432 691.938,525.888C690.972,519.875 693.161,513.861 695.418,508.483C698.606,500.901 712.86,489.382 719.241,499.665C733.925,523.328 727.57,559.327 715.69,583.19C711.913,590.786 697.217,601.631 692.684,588.479C687.896,574.585 687.918,559.086 689.631,544.494C691.087,532.019 693.693,515.379 703.204,507.303Z" style="fill:rgb(1,1,1);fill-rule:nonzero;"/>
        <path d="M669.848,344.119C665.88,349.39 660.439,352.798 656.453,358.089C653.041,362.618 649.822,367.549 647.581,372.96C642.706,384.741 642.935,396.871 640.977,409.397C639.589,418.263 626.452,426.645 621.808,416.367C614.421,400.037 622.228,377.909 630.241,363.659C637.025,351.596 652.351,333.592 666.265,333.97C671.297,334.105 673.103,339.8 669.848,344.119Z" style="fill:rgb(211,211,211);fill-rule:nonzero;"/>
        <path d="M689.986,351.109C697.944,348.812 696.855,358.851 692.089,362.553C684.366,368.552 679.676,381.636 677.672,391.515C675.341,403.009 676.262,416.359 671.163,426.844C668.452,432.424 660.849,438.343 655.786,432.534C646.019,421.346 653.47,396.493 658.158,384.273C664.359,368.101 674.667,355.526 689.986,351.109Z" style="fill:rgb(211,211,211);fill-rule:nonzero;"/>
        <path d="M716.156,376.263C714.821,389.424 717.007,402.531 715.486,415.527C714.202,426.536 694.524,435.798 693.445,420.551C692.394,405.762 698.615,389.284 703.049,375.573C705.369,368.381 717.163,366.353 716.156,376.263Z" style="fill:rgb(211,211,211);fill-rule:nonzero;"/>
    </g>
    <g id="Layer_5">
        <path d="M384.915,216.877C384.88,240.823 380.641,264.799 372.155,287.403C367.91,298.699 362.647,309.672 356.328,320.074C349.998,330.465 342.657,340.312 334.342,349.339C325.992,358.323 316.771,366.592 306.684,373.727C301.653,377.31 296.405,380.595 291.02,383.645C285.605,386.642 280.051,389.408 274.347,391.833C251.524,401.583 226.63,406.321 201.832,405.785L199.596,405.725L197.247,405.635C195.696,405.553 194.161,405.457 192.619,405.34C189.541,405.107 186.469,404.799 183.408,404.416C177.289,403.638 171.204,402.615 165.213,401.199C153.225,398.407 141.553,394.432 130.428,389.359C108.151,379.234 88.104,364.837 71.186,347.559C54.264,330.264 40.556,309.906 30.955,287.667C28.555,282.108 26.427,276.427 24.585,270.649C22.706,264.883 21.089,259.024 19.776,253.09C17.177,241.206 15.586,229.111 15.254,216.842C14.897,204.688 15.716,192.361 17.75,180.248C18.768,174.186 20.079,168.163 21.702,162.216C23.352,156.278 25.3,150.413 27.534,144.654C36.477,121.606 50.309,100.425 67.665,82.659C76.344,73.773 85.894,65.713 96.168,58.674C106.449,51.649 117.434,45.627 128.918,40.738C151.869,30.896 176.927,25.978 201.876,26.085C226.825,26.206 251.788,31.343 274.601,41.3C280.304,43.786 285.854,46.602 291.259,49.653C296.64,52.747 301.874,56.08 306.897,59.699C316.96,66.912 326.173,75.217 334.5,84.247C342.804,93.306 350.13,103.178 356.459,113.582C359.62,118.787 362.52,124.137 365.143,129.604C367.793,135.057 370.151,140.637 372.279,146.288C380.758,168.915 384.967,192.913 384.918,216.87L384.918,216.877L384.915,216.877ZM383.316,216.872C383.299,193.112 378.135,169.386 368.294,147.942C358.487,126.465 344.112,107.371 326.98,91.767C309.839,76.129 289.917,63.954 268.664,55.621C258.027,51.464 247.034,48.273 235.837,46.197C224.637,44.151 213.261,43.088 201.877,43.175C179.109,43.25 156.441,47.703 135.322,56.183C124.765,60.432 114.62,65.733 105.076,71.981C95.523,78.213 86.552,85.372 78.359,93.355C45.559,125.289 25.365,170.163 24.014,216.9C23.302,240.125 27.182,263.784 35.974,285.588C44.631,307.442 58.005,327.477 74.836,343.912C91.649,360.388 111.995,373.072 133.81,381.205C144.723,385.273 155.996,388.249 167.413,390.084C173.125,390.982 178.856,391.696 184.61,392.074C187.486,392.269 190.365,392.394 193.243,392.449C194.681,392.476 196.126,392.485 197.556,392.48L199.68,392.472L201.917,392.441C224.836,391.938 247.666,387.304 268.914,378.732C290.158,370.15 310.027,357.846 327.135,342.132C335.689,334.287 343.567,325.612 350.507,316.177C357.461,306.754 363.522,296.597 368.414,285.853C378.25,264.386 383.383,240.638 383.315,216.868L383.315,216.872L383.316,216.872Z" style="fill-rule:nonzero;"/>
        <path d="M202.02,56.85C203.004,60.218 203.653,63.586 204.2,66.954C204.739,70.322 205.129,73.69 205.415,77.058C205.701,80.426 205.892,83.794 205.969,87.162C206.088,90.53 206.017,93.898 205.691,97.266C205.047,104.002 203.427,110.738 203.134,117.474C202.792,124.21 203.294,130.946 204.258,137.682C204.711,141.05 205.217,144.418 205.534,147.786C205.907,151.154 206.052,154.522 206.247,157.89C206.629,164.626 207.024,171.363 206.86,178.099C206.686,184.834 206.223,191.571 205.471,198.306C205.092,201.675 204.657,205.042 204.076,208.411C203.53,211.778 202.891,215.146 202.019,218.515L201.019,218.515C200.147,215.147 199.508,211.779 198.962,208.411C198.382,205.042 197.946,201.675 197.567,198.306C196.815,191.571 196.352,184.834 196.178,178.099C196.014,171.363 196.409,164.626 196.791,157.89C196.986,154.522 197.131,151.154 197.504,147.786C197.821,144.418 198.327,141.05 198.78,137.682C199.744,130.946 200.246,124.209 199.904,117.474C199.611,110.738 197.991,104.002 197.347,97.266C197.021,93.898 196.95,90.53 197.069,87.162C197.146,83.794 197.337,80.426 197.623,77.058C197.909,73.69 198.299,70.322 198.838,66.954C199.385,63.586 200.033,60.218 201.018,56.85L202.02,56.85Z" style="fill-rule:nonzero;"/>
        <path d="M275.983,143.446C275.154,145.723 274.067,147.748 272.921,149.717C271.766,151.677 270.503,153.532 269.166,155.315C267.83,157.099 266.426,158.815 264.939,160.452C263.492,162.128 261.89,163.652 260.116,165.009C256.57,167.726 252.331,169.767 249.032,172.723C245.711,175.658 242.984,179.171 240.593,183.011C239.379,184.913 238.191,186.841 236.891,188.659C235.602,190.487 234.174,192.182 232.77,193.899C229.961,197.335 227.159,200.772 223.963,203.831C220.764,206.885 217.332,209.712 213.717,212.361C210.084,214.991 206.295,217.471 201.996,219.455L201.279,218.758C203.145,214.406 205.523,210.553 208.054,206.85C210.605,203.164 213.339,199.658 216.304,196.377C219.276,193.101 222.638,190.206 225.995,187.307C227.673,185.857 229.329,184.384 231.122,183.046C232.905,181.697 234.8,180.457 236.669,179.192C240.442,176.698 243.882,173.878 246.726,170.478C249.593,167.101 251.519,162.808 254.138,159.19C255.448,157.38 256.928,155.738 258.564,154.246C260.161,152.716 261.838,151.265 263.585,149.882C265.331,148.498 267.151,147.186 269.079,145.978C271.017,144.78 273.012,143.638 275.265,142.748L275.983,143.446Z" style="fill-rule:nonzero;"/>
        <g>
            <circle cx="201.187" cy="218.851" r="4.667" style="fill:rgb(1,1,1);"/>
            <path d="M205.903,218.851C205.893,220.071 205.555,221.357 204.709,222.372C203.887,223.403 202.53,224.007 201.177,223.933C199.853,223.865 198.624,223.183 197.773,222.265C196.908,221.347 196.334,220.156 196.248,218.843C196.143,217.564 196.617,216.183 197.557,215.218C198.481,214.238 199.809,213.63 201.203,213.651C202.534,213.662 203.912,214.274 204.722,215.318C205.559,216.344 205.905,217.628 205.903,218.851ZM205.803,218.851C205.814,217.626 205.152,216.482 204.254,215.784C203.34,215.091 202.289,214.696 201.173,214.718C200.119,214.728 199.018,215.126 198.219,215.884C197.419,216.642 196.887,217.69 196.793,218.858C196.695,219.995 197.129,221.232 198.001,222.038C198.873,222.857 200.072,223.184 201.197,223.102C202.291,223.039 203.363,222.637 204.263,221.93C205.156,221.222 205.825,220.079 205.803,218.851Z" style="fill-rule:nonzero;"/>
        </g>
    </g>
    <g id="Layer_3">
        <path d="M570.653,579.217C564.786,584.83 558.563,589.82 552.259,594.666C545.943,599.489 539.478,604.053 532.912,608.435C526.348,612.82 519.685,617.037 512.914,621.056C509.539,623.086 506.149,625.088 502.677,626.946C500.947,627.884 499.195,628.787 497.427,629.659C495.672,630.555 493.888,631.399 492.096,632.231C477.763,638.879 462.473,643.842 448.479,651.09C441.454,654.663 434.672,658.666 428.007,662.875C421.338,667.076 414.912,671.706 408.504,676.367C405.305,678.708 402.124,681.079 398.908,683.388C395.704,685.719 392.491,688.034 389.229,690.262C382.728,694.76 376.038,698.924 369.378,703.141C356.061,711.58 342.749,720.03 328.899,727.531C321.978,731.288 314.967,734.886 307.878,738.347C300.807,741.839 293.655,745.191 286.436,748.422C279.218,751.655 271.926,754.76 264.529,757.679C257.127,760.587 249.652,763.368 241.941,765.735L240.954,763.995C246.94,758.59 253.161,753.599 259.455,748.736C265.754,743.883 272.159,739.215 278.637,734.677C285.114,730.137 291.659,725.718 298.284,721.439C304.89,717.127 311.576,712.955 318.351,708.94C331.893,700.898 345.974,693.803 360.049,686.7C367.086,683.146 374.091,679.538 381.287,676.264C384.873,674.607 388.508,673.035 392.152,671.481C395.784,669.904 399.451,668.389 403.1,666.844C410.388,663.734 417.659,660.591 424.685,657.021C431.717,653.459 438.632,649.691 445.302,645.493C458.701,637.197 470.803,626.617 483.863,617.722C485.495,616.611 487.136,615.512 488.805,614.465C490.461,613.395 492.133,612.354 493.827,611.35C497.202,609.322 500.66,607.438 504.133,605.582C511.058,601.83 518.093,598.275 525.224,594.889C532.355,591.499 539.586,588.291 546.967,585.342C554.36,582.418 561.835,579.635 569.665,577.477L570.653,579.217Z" style="fill-rule:nonzero;"/>
        <path d="M279.572,704.035C276.885,710.805 273.401,716.998 269.701,723.036C267.829,726.039 265.892,728.995 263.871,731.89C261.87,734.799 259.678,737.571 257.301,740.209C254.935,742.855 252.397,745.377 249.959,747.972C247.515,750.562 245.206,753.248 243.103,756.085C240.999,758.92 239.017,761.844 237.195,764.882C235.365,767.915 233.662,771.041 231.948,774.158L229.45,769.548C232.658,769.007 235.868,768.505 239.084,768.122C242.3,767.756 245.521,767.47 248.739,767.145C255.176,766.496 261.617,765.951 268.081,765.851C274.543,765.738 281.017,765.858 287.502,766.219C293.99,766.634 300.481,767.136 307.005,768.306L307.048,769.204C300.665,770.99 294.251,772.108 287.832,773.141C281.411,774.118 274.978,774.855 268.535,775.358C262.092,775.875 255.627,775.946 249.158,775.913C245.923,775.897 242.691,775.919 239.454,775.861C236.216,775.786 232.973,775.592 229.728,775.36L223.372,774.905L227.231,770.75C229.652,768.144 232.084,765.545 234.388,762.854C236.701,760.169 238.853,757.37 240.884,754.481C242.916,751.594 244.742,748.557 246.432,745.423C248.129,742.294 249.725,739.092 251.495,736.015C253.253,732.93 255.196,729.978 257.329,727.163C259.443,724.335 261.641,721.567 263.904,718.847C268.473,713.438 273.258,708.184 278.841,703.506L279.572,704.035Z" style="fill-rule:nonzero;"/>
        <path d="M678.647,600.216C672.78,605.829 666.557,610.819 660.254,615.665C653.938,620.488 647.473,625.052 640.908,629.434C634.342,633.819 627.681,638.036 620.91,642.055C617.535,644.085 614.144,646.087 610.672,647.945C608.942,648.883 607.19,649.786 605.422,650.658C603.666,651.554 601.883,652.398 600.092,653.23C585.758,659.878 570.469,664.841 556.475,672.089C549.45,675.662 542.667,679.665 536.002,683.874C529.334,688.075 522.908,692.705 516.5,697.366C513.301,699.707 510.12,702.078 506.903,704.387C503.699,706.718 500.486,709.033 497.224,711.261C490.723,715.759 484.033,719.923 477.373,724.14C464.056,732.579 450.744,741.029 436.894,748.53C429.973,752.287 422.962,755.885 415.873,759.346C408.802,762.838 401.65,766.19 394.431,769.421C387.213,772.654 379.921,775.759 372.524,778.678C365.122,781.586 357.647,784.367 349.936,786.734L348.949,784.994C354.935,779.589 361.156,774.598 367.45,769.735C373.749,764.882 380.154,760.214 386.632,755.676C393.109,751.136 399.654,746.717 406.279,742.438C412.885,738.126 419.571,733.954 426.346,729.939C439.888,721.897 453.969,714.802 468.044,707.699C475.081,704.145 482.086,700.537 489.282,697.263C492.868,695.606 496.503,694.034 500.147,692.48C503.779,690.903 507.446,689.388 511.095,687.843C518.383,684.733 525.654,681.59 532.68,678.02C539.712,674.458 546.626,670.69 553.297,666.492C566.696,658.196 578.798,647.616 591.859,638.721C593.49,637.61 595.13,636.511 596.8,635.464C598.456,634.394 600.128,633.353 601.821,632.349C605.196,630.321 608.655,628.437 612.128,626.581C619.052,622.829 626.089,619.274 633.22,615.888C640.351,612.498 647.581,609.29 654.962,606.341C662.355,603.417 669.829,600.634 677.659,598.476L678.647,600.216Z" style="fill-rule:nonzero;"/>
        <path d="M387.567,725.034C384.88,731.804 381.396,737.997 377.696,744.035C375.824,747.038 373.887,749.994 371.866,752.889C369.865,755.798 367.673,758.57 365.296,761.208C362.93,763.854 360.392,766.376 357.954,768.971C355.51,771.561 353.201,774.247 351.098,777.084C348.994,779.919 347.012,782.843 345.19,785.881C343.36,788.914 341.657,792.04 339.943,795.157L337.445,790.547C340.653,790.006 343.863,789.504 347.079,789.121C350.295,788.755 353.516,788.469 356.734,788.144C363.171,787.495 369.612,786.95 376.076,786.85C382.538,786.737 389.012,786.857 395.497,787.218C401.985,787.633 408.476,788.135 415,789.305L415.043,790.203C408.66,791.989 402.246,793.107 395.827,794.14C389.406,795.117 382.973,795.854 376.53,796.357C370.087,796.874 363.622,796.945 357.153,796.912C353.918,796.896 350.686,796.918 347.449,796.86C344.211,796.785 340.968,796.591 337.723,796.359L331.367,795.904L335.226,791.749C337.647,789.143 340.079,786.544 342.383,783.853C344.696,781.168 346.848,778.369 348.879,775.48C350.911,772.593 352.737,769.556 354.427,766.422C356.124,763.293 357.72,760.091 359.49,757.014C361.248,753.929 363.191,750.977 365.324,748.162C367.438,745.334 369.636,742.566 371.899,739.846C376.468,734.437 381.253,729.183 386.836,724.505L387.567,725.034Z" style="fill-rule:nonzero;"/>
    </g>
</svg>
