<?xml version="1.0" encoding="utf-8"?>
<!-- Generator: Adobe Illustrator 23.0.1, SVG Export Plug-In . SVG Version: 6.00 Build 0)  -->
<svg version="1.1" id="Layer_3" xmlns="http://www.w3.org/2000/svg" xmlns:xlink="http://www.w3.org/1999/xlink" x="0px" y="0px"
	 viewBox="0 0 566.9 566.9" style="enable-background:new 0 0 566.9 566.9;" xml:space="preserve">
<path d="M277.6,201.1c-2.9,9.1-3.8,17.7-2.7,27.2c1,8.3,2,17,6.9,24.1c1.5,2.1,3.3-0.6,3.8-2c0.8-2.4,0.5-5.4-1-7.5
	c-3.3-4.8-3.7-11.8-4.3-17.5c-0.8-6.7,0.1-12.4,2.2-18.7c0.6-2,0.8-6-1-7.5C279.5,197.6,278.2,199.3,277.6,201.1L277.6,201.1z"/>
<path d="M291.2,253.6c3.6-10.9,7.1-22,8.2-33.4c0.9-9.2,1.1-20.1-5.1-27.7c-1.6-2-3.3,0.4-3.8,2c-0.7,2.2-0.6,5.6,1,7.5
	c4.8,5.8,2.8,15.8,1.6,22.5c-1.5,8-4.1,15.8-6.6,23.5c-0.7,2-0.8,6,1,7.5C289.3,257.2,290.6,255.4,291.2,253.6L291.2,253.6z"/>
<path d="M290.1,204.8c1,5.4,1.1,10.8-0.2,16.2c-0.5,2.1-0.9,5.9,1,7.5c1.8,1.5,3.3,0,3.8-2c2-8.1,2.3-16.4,0.8-24.7
	c-0.3-1.6-1.1-4.8-3.4-3.8C290,198.9,289.8,203.1,290.1,204.8L290.1,204.8z"/>
<path d="M282.6,198c-0.8,3.7-0.8,7.4-0.5,11.2c0.1,1.5,1.3,4.9,3.4,3.8c2.2-1.1,2.1-4.8,1.9-6.8c0.1,0.8,0-0.9,0-0.9
	c0,0,0.1-1.7,0-0.9c0.1-1.2,0.3-2.4,0.5-3.5c0.4-1.9,0.1-5.7-1.9-6.8C283.8,193,282.9,196.6,282.6,198L282.6,198z"/>
<path d="M287.8,188.4c-4.6,2.5-8.5,6.1-11.4,10.4c-1.5,2.1-1.7,5.1-1,7.5c0.4,1.4,2.3,4.1,3.8,2c2.7-3.9,6-7.1,10.1-9.3
	C292.6,197.3,291.4,186.5,287.8,188.4L287.8,188.4z"/>
<path d="M277.7,192.4c-2.9,6.3-4.5,12.8-4.7,19.7c-0.3,7.6,2.7,14.7,2.6,22.2c0,1.6,0.5,5.5,2.8,5.5c2.3,0,2.7-4,2.8-5.5
	c0.1-5.8-1.6-11-2.4-16.7c-0.8-6.1,0.3-12,2.8-17.5c1-2.2,1.4-5.7,0-7.8C280.5,190.7,278.7,190.2,277.7,192.4L277.7,192.4z"/>
<path d="M291.4,206.7c2,6.3,2.9,12.1,2.2,18.7c-0.6,5.7-1,12.6-4.3,17.5c-1.5,2.1-1.8,5.1-1,7.5c0.4,1.4,2.3,4.1,3.8,2
	c4.8-7,5.9-15.7,6.9-24.1c1.1-9.5,0.2-18.2-2.7-27.2c-0.6-1.8-1.9-3.6-3.8-2C290.7,200.7,290.8,204.8,291.4,206.7L291.4,206.7z"/>
<path d="M287.4,248c-2.5-7.7-5.1-15.5-6.6-23.5c-1.2-6.8-3.2-16.7,1.6-22.5c1.6-1.9,1.7-5.2,1-7.5c-0.5-1.5-2.1-4-3.8-2
	c-6.2,7.6-6,18.4-5.1,27.7c1.1,11.5,4.6,22.5,8.2,33.4c0.6,1.8,1.9,3.6,3.8,2C288.1,254,288,249.9,287.4,248L287.4,248z"/>
<path d="M278.4,201.9c-1.6,8.2-1.2,16.5,0.8,24.7c0.5,1.9,2,3.5,3.8,2c1.8-1.6,1.5-5.5,1-7.5c-1.3-5.4-1.3-10.7-0.2-16.2
	c0.3-1.8,0.2-5.9-1.9-6.8C279.5,197.1,278.7,200.4,278.4,201.9L278.4,201.9z"/>
<path d="M285.9,200.9c0.2,1.2,0.4,2.3,0.5,3.5c-0.1-0.9,0,0.9,0,0.9c0,0.2,0,1.8,0,0.9c-0.1,2-0.3,5.7,1.9,6.8
	c2.1,1.1,3.3-2.4,3.4-3.8c0.3-3.8,0.2-7.5-0.5-11.2c-0.3-1.4-1.2-5-3.4-3.8C285.8,195.2,285.5,199.1,285.9,200.9L285.9,200.9z"/>
<path d="M284.5,199c4.2,2.3,7.5,5.4,10.1,9.3c1.5,2.1,3.3-0.6,3.8-2c0.7-2.5,0.5-5.4-1-7.5c-3-4.3-6.8-7.9-11.4-10.4
	C282.4,186.5,281.2,197.3,284.5,199L284.5,199z"/>
<path d="M292.2,200.2c2.6,5.5,3.6,11.4,2.8,17.5c-0.7,5.7-2.4,10.9-2.4,16.7c0,1.6,0.5,5.5,2.8,5.5c2.3,0,2.8-4,2.8-5.5
	c-0.1-7.5,2.9-14.6,2.6-22.2c-0.2-6.9-1.8-13.5-4.7-19.7c-1-2.2-2.8-1.7-3.9,0C290.9,194.5,291.2,198.1,292.2,200.2L292.2,200.2z"/>
<path d="M530.4,272.3C521,202.9,476,145.5,418.3,108.1c-0.4-1-1.4-2.5-2.4-2.5c-15.8-11.8-37.4-15.6-57.5-12.7c0.2-9,0.7-18,1.5-27
	c2-2.5,1.6-9.9-1.6-10.2c-23.7-2.6-47.6-2.8-71.3-0.8c-23.8-2-47.6-1.8-71.3,0.8c-3.2,0.3-3.6,7.8-1.6,10.2c0.8,9,1.3,18.1,1.5,27.1
	c-4-0.5-8-0.8-11.8-0.8c-16-0.1-32.8,3.8-45.7,13.4c-1,0-2,1.4-2.4,2.4C97.8,145.5,52.8,202.9,43.4,272.3c-0.2,1.7-0.2,6.1,1.9,6.8
	c0.2,0.1,0.3,0.1,0.5,0.1c3.5,38.8,7,77.7,10.5,116.5c0.2,1.7,1.1,4.4,3.2,3.9c0.8,2.2,2.2,3.3,3.7,0.6c1.6-2.7,3.8-4.8,6.3-6.3
	c1,6.8,1.9,13.6,2.6,20.4c0.7,6.5,0.1,13.8,1.8,20.1c1.5,5.7,6.4,5.3,11.4,5.7c7,0.6,13.9,1.3,20.9,1.9c1,0.1,1.7-0.6,2.2-1.7
	c1.6-0.8,2.1-4,2-5.3c-0.7-13,0.1-26.1,2.8-38.8c0-0.2,0.1-0.4,0.1-0.5c2.3,2.5,4.3,5.3,6.2,7.9c1.5,2.1,3.3-0.6,3.8-2
	c0.3-0.8,0.4-1.7,0.4-2.6c0.6-2.2,0.7-5.1-0.2-6.5c-2.9-4.4-1.8-10.3-1.6-15.3c0.2-6.3,0.5-12.5,0.7-18.8c0.5-12.5,0.9-25,1.4-37.5
	c0.3-8.7,0.6-17.3,1-26c0.4-1.4,0.4-3,0.2-4.4c0.1-1.6,0.1-3.3,0.2-4.9c2.2-4.6,9.6-9.1,12.6-10.9c4.5-2.6,9.3-4.5,14.4-5.4
	c-2.6,14.5-5.4,28.9-7.7,43.4c-2.5,15.8-2.3,31.3-1.3,47.2c2.1,31.8,5.7,63.4,10.6,94.9c0.2,1.4,0.8,3.4,2.2,3.9
	c0.1,2.6,1.1,4.9,2.8,4.8c2.6-0.1,4.8,0.5,6.8,1.5c0.4,1.6,1.3,2.8,2.5,2.8c0.4,0,0.7,0,1.1,0c2.9,2.9,5.1,6.9,6.8,10.6
	c3.6,7.8,7,16.2,6.7,24.9c0,0.8,0.1,2.2,0.5,3.3c0,2.7,1,5.3,2.9,5.3c33.6-0.9,67.1-1.7,100.7-2.6c33.6,0.9,67.1,1.7,100.7,2.6
	c1.9,0,2.8-2.6,2.9-5.3c0.4-1.2,0.5-2.5,0.5-3.3c-0.4-8.8,3.1-17.1,6.7-24.9c1.7-3.7,3.9-7.7,6.8-10.6c0.4,0,0.7,0,1.1,0
	c1.3,0,2.1-1.2,2.5-2.8c2-1.1,4.2-1.7,6.8-1.5c1.7,0.1,2.7-2.3,2.8-4.8c1.4-0.4,2-2.5,2.2-3.9c4.9-31.5,8.5-63.1,10.6-94.9
	c1-15.5,1.3-30.8-1.1-46.2c-2.3-14.8-5.2-29.6-7.8-44.4c5,1,9.8,2.8,14.4,5.4c3.1,1.7,10.5,6.3,12.6,10.9c0.1,1.6,0.1,3.3,0.2,4.9
	c-0.2,1.4-0.2,3,0.2,4.4c0.3,8.7,0.6,17.3,1,26c0.4,12.2,0.9,24.4,1.3,36.6c0.2,6.3,0.5,12.5,0.7,18.8c0.2,5.3,1.4,11.7-1.6,16.3
	c-0.9,1.4-0.8,4.3-0.2,6.5c0,0.9,0.2,1.8,0.4,2.6c0.4,1.4,2.2,4.1,3.8,2c1.9-2.7,3.9-5.5,6.2-7.9c0,0.2,0.1,0.4,0.1,0.5
	c2.7,12.8,3.5,25.8,2.8,38.8c-0.1,1.4,0.4,4.6,2,5.3c0.5,1.1,1.2,1.8,2.2,1.7c7-0.6,13.9-1.3,20.9-1.9c5-0.5,9.9,0,11.4-5.7
	c1.7-6.3,1.1-13.7,1.8-20.1c0.7-6.8,1.6-13.6,2.6-20.4c2.5,1.5,4.7,3.6,6.3,6.3c1.5,2.6,2.9,1.5,3.7-0.6c2,0.5,3-2.2,3.2-3.9
	c3.5-38.8,7-77.7,10.5-116.5c0.2,0,0.3,0,0.5-0.1C530.6,278.4,530.6,273.9,530.4,272.3z M332.7,100.9c-2.4,1.2-4.8,2.7-7,4.3
	c2.1-4.4,4.1-8.8,6.2-13.2c2.7-5.7,5-11.7,9.6-16.1c3.6-3.5,8-5.8,12.6-7.6c-0.7,8.6-1.1,17.2-1.3,25.8
	C345.7,95.4,338.9,97.7,332.7,100.9z M302.6,139.2c-6.1,10.5-11.6,20.8-15.7,31.9c-3.1-8.8-7.1-17.4-11.9-25.5
	c-3.7-6.3-7.1-12.7-10.5-19.1c0-0.1,0-0.1,0-0.2c-0.9-4.3-2.4-8.4-4.2-12.4c18.2-1,36.4-1.5,54.6-1.5c-1.7,3.7-3.2,7.5-4.2,11.5
	C307.9,128.9,305.5,134.2,302.6,139.2z M284.3,65.7c0.3,0.2,0.7,0.3,1.1,0.3c0.5,0,1-0.1,1.4-0.1c0.5,0,1,0.1,1.4,0.1
	c0.4,0,0.8-0.1,1.1-0.3c16.8-1.3,33.7-1.5,50.5-0.5c-0.2,0.2-0.5,0.4-0.7,0.6c-4.9,4.6-7.6,10.6-10.4,16.6
	c-2.9,6.3-5.9,12.6-8.8,18.9c-21.6-0.1-43.1,0.5-64.7,1.8c-3.2-6.9-6.4-13.8-9.7-20.7c-2.8-6-5.5-12-10.4-16.6
	c-0.2-0.2-0.5-0.4-0.7-0.6C251.2,64.2,267.8,64.4,284.3,65.7z M219.7,67.8c4.7,1.7,9.2,4.1,12.8,7.4c4.9,4.5,7.3,10.7,10.1,16.6
	c2.2,4.7,4.4,9.4,6.6,14.1c-0.9-0.7-1.8-1.4-2.7-2c-7.5-5-16.4-8.3-25.5-10C220.8,85.2,220.4,76.5,219.7,67.8z M81.5,428.8
	c-3.5-0.4-2.8-1.4-3-4.8c-0.8-10.9-2-21.7-3.6-32.4c5.9-2,12.7-2.3,18.4-2.7c5.2-0.3,10.4-0.3,15,2.5c0,0,0,0,0.1,0
	c-2.7,13.1-4,26.3-3.6,39.6c-4.9-0.4-9.8-0.9-14.6-1.3C87.2,429.3,84.4,429.1,81.5,428.8z M125.7,272.3c0.3-8.8,0.6-17.7,1-26.5
	c0.1-1.6-0.5-5.5-2.8-5.5c-2.3,0-2.7,4-2.8,5.5c-0.5,12.4-0.9,24.7-1.4,37.1c-0.8,3-0.9,6.1-0.3,9.4c-0.4,11.5-0.8,23-1.3,34.5
	c-0.5,13.2-1,26.3-1.4,39.5c-0.2,5.9-1.2,12.9-1,19.6c-1.8-2-3.8-3.8-6.1-5.2c-5.5-3.4-11.9-3.3-18.1-2.8
	c-11.3,0.8-23.2,2.5-30.3,11.6c-3.6-40-7.2-80.1-10.8-120.1c-0.1-0.6-0.2-1.4-0.5-2.1c11.4-63.1,54.7-115,107.9-149.2
	c6,9.5,7.6,21.1,8.3,32.2c0.9,12.7,1.1,25.5,1.1,38.2c0,23.5-1.8,47.5-11.1,69.3C145.7,258.7,133.2,264,125.7,272.3z M159.2,452.5
	c0-0.2,0-0.4-0.1-0.6c-4.7-30.2-8.2-60.5-10.3-91c-1.1-15.6-1.3-30.7,1.2-46.2c2.4-14.8,5.2-29.6,7.9-44.3c0.3-0.7,0.7-1.3,1-2
	c1-0.7,1.6-2.3,1.8-4C171,240,173,213,172.8,186.8c-0.1-14.5-0.3-29.1-1.7-43.5c-1-10.3-3-20.6-7.7-29.8
	c21.1-13.2,50.3-13.2,72.6-3.7c7.1,3,13.5,7.3,18.1,13.5c4.9,6.5,7.8,14.3,11.8,21.2c6.8,12,13.4,23.4,17.7,36.3
	c-0.7,2.3-1.2,4.7-1.8,7.1c-4.2,19.4-4.4,39.5-0.7,59c0.2,0.9,0.5,2.1,1,3c0,29.5-0.1,59-0.1,88.6c0,27.6-0.6,55.3,0.5,82.9
	c-0.5,10.7-1.2,21.3-2.4,32c-36.6,1.1-73.3,2.2-109.9,3.4C167.4,454.1,163.7,452.4,159.2,452.5z M393.8,470.6
	c-4.4,9.6-8.2,19.7-8.3,30.3c-32.2-0.8-64.5-1.6-96.7-2.5c-0.2-0.1-0.4-0.1-0.6-0.1c-0.4,0-0.9,0-1.3,0c-0.4,0-0.9,0-1.3,0
	c-0.2,0-0.4,0-0.6,0.1c-32.2,0.8-64.5,1.6-96.7,2.5c-0.1-10.6-3.9-20.7-8.3-30.3c-0.5-1-1-2.1-1.5-3.1c35.7-1.1,71.3-2.2,107-3.3
	c0.5,0,1-0.3,1.4-0.6c0.4,0.4,0.9,0.6,1.4,0.6c35.7,1.1,71.3,2.2,107,3.3C394.8,468.5,394.2,469.6,393.8,470.6z M424.9,360.9
	c-2.1,30.5-5.6,60.8-10.3,91c0,0.2,0,0.4-0.1,0.6c-4.4-0.1-8.1,1.6-11.2,4.2c-36.6-1.1-73.3-2.2-109.9-3.4
	c-1.2-10.6-1.9-21.3-2.4-32c1.1-27.6,0.6-55.3,0.5-82.9c0-29.5-0.1-59-0.1-88.6c0.6-0.9,0.9-2.1,1-3c4.3-22,3.3-44.6-2.5-65.9
	c3.5-10.5,8.3-20.4,14.1-30.1c3.2-5.4,5.9-11.2,9-16.7c0.9-0.3,1.5-1.3,1.8-2.5c0.1-0.4,0.2-0.8,0.3-1.1c4.3-7.2,9.3-13.7,17-18.1
	c12.1-6.8,26.4-9.5,40.2-9.3c13.3,0.2,26.7,3.2,38,10.2c-4.7,9.2-6.7,19.5-7.7,29.8c-1.4,14.4-1.6,29-1.7,43.5
	c-0.1,26.2,1.8,53.2,12.2,77.5c0.2,1.8,0.8,3.4,1.8,4.1c0.3,0.7,0.6,1.3,1,2c2.6,14.4,5.3,28.9,7.7,43.4
	C426.2,329.5,426.1,345,424.9,360.9z M495.3,424c-0.1,0.9,0.1,2.6-0.2,3.4c-0.7,1.6-0.1,0.7-1.8,1.4c-2.5,0.9-5.9,0.5-8.5,0.8
	c-5.2,0.5-10.4,1-15.6,1.4c0.4-13.3-0.8-26.5-3.6-39.5c4.6-2.8,9.7-2.9,15-2.6c5.7,0.4,12.5,0.7,18.4,2.7
	C497.3,402.3,496,413.1,495.3,424z M512.5,389.6c-7.2-9.1-19-10.8-30.3-11.6c-6.2-0.5-12.6-0.6-18.1,2.8c-2.3,1.4-4.3,3.2-6.2,5.2
	c0.2-6.4-0.7-13-0.9-18.6c-0.5-13.5-1-27-1.5-40.5c-0.4-11.5-0.8-23-1.3-34.5c0.6-3.3,0.4-6.5-0.3-9.4c-0.5-12.4-0.9-24.7-1.4-37.1
	c-0.1-1.6-0.4-5.5-2.8-5.5c-2.2,0-2.8,4-2.8,5.5c0.3,8.8,0.6,17.7,1,26.5c-7.5-8.4-19.9-13.6-30.5-14.6
	c-9.4-21.7-11.2-45.8-11.1-69.3c0-12.4,0.3-24.9,1.1-37.3c0.7-11.4,2.3-23.3,8.4-33.1c53.2,34.1,96.5,86.1,107.9,149.2
	c-0.3,0.7-0.5,1.5-0.5,2.1C519.7,309.5,516.1,349.5,512.5,389.6z"/>
</svg>
