<?xml version="1.0" encoding="utf-8"?>
<!-- Generator: Adobe Illustrator 23.0.1, SVG Export Plug-In . SVG Version: 6.00 Build 0)  -->
<svg version="1.1" id="Layer_4" xmlns="http://www.w3.org/2000/svg" xmlns:xlink="http://www.w3.org/1999/xlink" x="0px" y="0px"
	 viewBox="0 0 566.93 566.93" enable-background="new 0 0 566.93 566.93" xml:space="preserve">
<path d="M410.148,271.627l-6.286-2.359c-3.088,5.87-7.594,11.046-11.948,15.998c-7.088,8.061-14.691,15.669-22.437,23.094
	c-21.68,20.784-44.728,40.162-68.347,58.697c-57.164,44.86-118.904,86.638-185.947,115.277
	c-16.525,7.059-33.482,13.241-50.897,17.721c-9.08,2.335-18.121,3.838-27.252,4.976c0.119-0.1,91.683-85.137,135.952-128.79
	c43.423-42.819,86.7-85.81,130.802-127.933c8.195-7.827,16.416-15.633,24.797-23.261c4.438-4.039,8.868-8.41,13.859-11.78
	l-8.171-6.09c-11.959,8.073-22.315,19.513-32.724,29.392c-20.052,19.031-39.835,38.346-59.591,57.683
	c-43.302,42.387-86.276,85.107-129.58,127.492c-28.391,27.789-99.376,91.124-99.347,91.479c-0.157,0.929,13.467,0.374,13.546,0.366
	c13.525-1.251,26.725-2.478,39.998-5.611c15.427-3.641,30.501-8.711,45.224-14.558c33.627-13.352,65.634-30.689,96.434-49.592
	c57.747-35.441,112.827-76.632,162.454-122.81c9.368-8.717,18.568-17.66,27.155-27.154c5.148-5.691,10.589-11.667,14.188-18.508
	C412.694,274.103,410.952,272.344,410.148,271.627z"/>
<g>
	<path d="M518.24,46.069c-8.724-2.591-19.961-4.843-28.955-2.4c-9.826,2.669-15.682,13.961-21.501,21.483
		c-14.593,18.859-28.746,38.186-43.986,56.528c-8.274,9.957-17.79,18.683-27.271,27.46c-10.141,9.388-20.282,18.776-30.424,28.164
		c-4.015,3.717-8.368,9.174-13.56,11.241c-2.512,1-5.415,0.711-8.031,1.365c-2.198,0.55-4.295,1.504-6.179,2.759
		c-7.902,5.264-8.614,17.179-0.162,23.188c22.086,18.198,42.544,35.203,64.63,53.401c3.212,2.647,6.425,5.294,9.637,7.941
		c2.701,2.225,11.573-3.004,8.567-6.181c-13.355-14.118-28.515-30.499-31.082-50.635c-0.602-4.724-1.34-11.186,2.449-14.722
		c3.918-3.656,10.17-5.822,15.032-7.888c9.575-4.069,19.431-7.513,28.652-12.377c16.941-8.936,31.843-21.789,43.072-37.313
		c5.906-8.165,9.537-18.591,16.55-25.847c6.704-6.937,17.368-8.083,26.313-10.13c14.698-3.364,34.911-11.579,35.897-29.294
		C559.018,62.441,534.469,50.889,518.24,46.069z"/>
</g>
</svg>
