<?xml version="1.0" encoding="utf-8"?>
<!-- Generator: Adobe Illustrator 23.0.1, SVG Export Plug-In . SVG Version: 6.00 Build 0)  -->
<svg version="1.1" id="Layer_3" xmlns="http://www.w3.org/2000/svg" xmlns:xlink="http://www.w3.org/1999/xlink" x="0px" y="0px"
	 viewBox="0 0 566.9 566.9" style="enable-background:new 0 0 566.9 566.9;" xml:space="preserve">
<style type="text/css">
	.st0{stroke:#000000;stroke-width:10;stroke-miterlimit:10;}
</style>
<path class="st0" d="M462.2,257.5c-1.9-18.2-3.4-36.5-4.6-54.8c-1.3-21.1-2.5-42.3-1.5-63.5c0.2-4.1,0.5-8.2,1.1-12.3
	c0.3-1.8,0.5-2.9,0.7-3.9c0.5-1.9,0.4-1.7,1-2.9c0-0.1,0-0.1,0.1-0.2c0.9-0.3,2-1.3,1.5-2c-0.2-0.4-0.5-0.7-0.7-1.1
	c0.2-1.8-0.1-3.8-0.9-5.2c-1.1-2-3.1-2.3-4.2,0c0,0.1-0.1,0.2-0.1,0.3c-3.7-2.7-8.1-4.6-12-6.2c-5.2-2.1-11.1-2.6-16.7-2
	c0.2-2.7,0.4-5.4,0.8-8.3c0.1-0.9,0.3-1.8,0.4-2.6c0-0.3,0.1-0.6,0.2-1c0-0.1,0-0.2,0-0.3c0,0,0,0,0-0.1c0.1-0.6,0.3-1.1,0.4-1.7
	c0-0.2,0.1-0.3,0.1-0.4c0,0,0.1-0.1,0.2-0.3c1.2-2.4,1.3-6,0-8.4c-0.2-0.3-0.3-0.5-0.5-0.8c0-0.1,0-0.3-0.1-0.4
	c-3.2-4.8-9.4-7.9-14.7-9.9c-3.4-1.3-7.1-1.9-10.8-1.8c0-0.3,0.1-0.6,0.2-0.9c0-0.1,0-0.2,0-0.3c0,0,0,0,0-0.1
	c0.1-0.6,0.3-1.1,0.4-1.7c0-0.2,0.1-0.3,0.1-0.4c0,0,0.1-0.1,0.2-0.3c1.2-2.4,1.3-6,0-8.4c-0.2-0.3-0.3-0.5-0.5-0.8
	c0-0.1,0-0.3-0.1-0.4c-3.4-5.1-10.4-8.6-16.1-10.4c-10.3-3.4-21.8-5.3-32.7-5.4c-11.6-0.1-23,2-34.2,4.4c-9.5,2-18.9,4-27.2,9
	c-0.6-0.7-1.4-1.2-2.4-1.3c-0.5,0-0.9,0.1-1.3,0.3c-0.6-0.3-1.4-0.4-2.3,0c-0.1,0-0.2,0.1-0.3,0.2c-8.8-5-19-6.7-28.8-8.8
	c-11.5-2.4-23.2-4.3-35-3.6c-9.8,0.6-20.4,2.3-29.7,5.7c-5.3,2-11.6,5-15.2,9.6c-0.6,0.2-1.2,0.7-1.7,1.5c-1.4,2.3-1.1,6.1,0,8.4
	c0.1,0.1,0.1,0.2,0.1,0.2c0,0,0,0.1,0,0.1c0.1,0.5,0.3,0.9,0.4,1.4c0.4,1.5,0.1,0.2,0.2,0.9c0,0.2,0.1,0.5,0.1,0.7
	c-4.6-0.4-9.3,0.4-13.6,2.2c-4.8,2-10.4,4.8-13.8,9c-0.6,0.2-1.2,0.7-1.7,1.5c-1.4,2.3-1.1,6.1,0,8.4c0.1,0.1,0.1,0.2,0.1,0.2
	c0,0,0,0.1,0,0.1c0.1,0.5,0.3,0.9,0.4,1.4c0.4,1.5,0.1,0.2,0.2,0.9c0.1,0.7,0.3,1.5,0.4,2.2c0.5,3.1,0.8,6.7,1,9.5
	c-5.7-0.4-11.6,0.5-16.8,2.8c-4.9,2.1-10.3,4.7-14.4,8.5c-0.1-0.1-0.1-0.2-0.1-0.3c-1.1-2.3-3.1-2-4.2,0c-1.3,2.3-1.1,6.1,0,8.4
	c0.6,1.3,1.3,3.8,1.6,5.5c0.6,3.4,1,6.9,1.3,10.3c0.8,9.1,0.9,18.2,0.9,27.3c0,21.3-0.9,42.7-2.4,64c-0.6,9.1-1.3,18.2-2.3,27.3
	c-0.2,2-0.3,6.4,2.1,7.3c2.3,1,3.5-2.5,3.7-4.2c2-19.5,3.2-39,4-58.6c0.9-21.5,1.5-43.2-0.2-64.7c-0.6-6.9-1.2-14.4-3.8-20.9
	c3.9-4.2,10.3-7.2,15.3-8.9c4.9-1.7,10.2-2.2,15.3-1.5c0.6,9.7,0.6,19.4,0.6,29c0,23.2-0.8,46.5-2.1,69.7
	c-0.5,8.7-0.9,16.5-1.8,25.2c-0.2,2-0.3,6.4,2.1,7.3c2.3,1,3.5-2.5,3.7-4.2c2-19.5,2.7-39.2,3.4-58.7c0.8-23.2,1.4-46.7,0-69.9
	c-0.5-7.6-0.5-16.6-3.9-23.6c-0.2-0.4-0.4-0.8-0.7-1c5.5-7.2,17.4-10.5,26-9.3c0.4,3.1,0.7,6.7,0.9,9.4c0.6,10.2,0.7,20.4,0.7,30.6
	c0,23.2-0.8,46.5-2.1,69.7c-0.5,8.7-0.9,16.5-1.8,25.2c-0.2,2-0.3,6.4,2.1,7.3c1.2,0.5,2.1-0.2,2.7-1.3c9.1-1.5,17.9-2.1,27.1-2.2
	c10.1-0.1,20.2,0.3,30.3,1c10.3,0.7,20.6,1.7,30.9,3c3.5,0.4,7,0.9,10.4,1.3c3,0.3,6.5,0.1,9.3,1.5c0.3,0.2,0.9-0.1,1.4-0.5
	c0,0.3,0.2,0.5,0.9,0.1c0.5-0.3,1.1-0.5,1.8-0.6c0.2,0,0.4-0.1,0.6-0.1c2.2-0.4,4.6-0.4,6.6-0.6c3.8-0.4,7.6-0.9,11.4-1.4
	c10.1-1.2,20.2-2.2,30.3-2.9c9.8-0.7,19.6-1,29.4-1c4.7,0,9.4,0.1,14.1,0.4c5.4,0.3,10.4,1.2,15.6,2.1c0.6,0.9,1.4,1.4,2.6,0.9
	c2.3-1,2.3-5.5,2.1-7.3c-1.9-18-2.5-36.2-3.1-54.5c-0.8-22.6-1.4-45.3-0.2-67.9c0.2-4,0.5-7.8,1-12c0-0.2,0-0.3,0.1-0.5
	c8.2,0.3,17.6,3.9,22.4,10.1c-0.1,0.1-0.2,0.3-0.3,0.5c-2.8,5.9-3.2,13.1-3.6,19.5c-0.8,10.6-1,21.2-1,31.8
	c-0.1,24.2,0.8,48.5,2.1,72.6c0.5,9.5,1,18.9,2,28.3c0,0.2,0,0.4,0.1,0.5c-4.5-0.8-8.9-1.5-13.6-1.6c-4.2-0.1-8.4,0-12.6,0.1
	c-10.8,0.3-21.6,0.8-32.4,1.5c-20.9,1.3-41.7,3-62.5,5c-3.3,0.3-6.5,0.7-9.8,1.1c-1.1,0.1-2.4,0.1-3.5,0.5c-2.9-1.3-7.6-1-10.6-1.3
	c-8.6-0.9-17.3-1.7-25.9-2.5c-21.6-1.9-43.3-3.6-65-4.2c-4.7-0.1-9.5-0.2-14.2-0.2c-6.4,0.1-12.3,1.1-18.5,2.3
	c-0.8,0.2-2.7,2.4-1,2.1c5.8-1.1,11.4-2.1,17.3-2.2c4.1-0.1,8.2,0,12.3,0.1c10.2,0.3,20.3,0.8,30.4,1.5c19.9,1.3,39.8,2.9,59.6,4.9
	c3.4,0.3,6.7,0.7,10,1.1c1.1,0.1,2.8,0.1,3.8,0.6c0.1,0.1,0.2,0.1,0.3,0c0.2,0,0.5-0.1,0.7-0.3c2.4-1,8.5-1,11.6-1.3
	c8.8-0.9,17.6-1.7,26.4-2.4c21.7-1.8,43.4-3.4,65.2-4.1c4.7-0.2,9.5-0.3,14.2-0.2c6.5,0.1,12.5,1,18.8,2.1c0.6,0.9,1.4,1.4,2.6,0.9
	c2.3-1,2.3-5.5,2.1-7.3c-1.9-18-2.5-36.2-3.1-54.5c-0.8-22.6-1.4-45.3-0.2-67.9c0-0.5,0.1-1.1,0.1-1.6c5.2-0.4,10.6,0.3,15.4,2.3
	c4,1.7,8.6,3.8,12.3,6.7c-1.8,5.2-2.3,10.9-2.8,16.3c-0.8,10.2-0.9,20.4-0.7,30.6c0.4,23.2,1.9,46.3,3.8,69.4
	c0.8,9.8,1.7,19.7,2.7,29.5c0,0.4,0.2,1,0.3,1.5c-6-1.1-11.8-2.1-18-2.2c-5.2-0.1-10.4,0-15.6,0.1c-13.3,0.3-26.7,1-40,1.9
	c-26,1.6-51.9,3.7-77.8,6.3c-4,0.4-7.9,0.8-11.9,1.3c-1.3,0.2-3.1,0.1-4.5,0.6c-1.1-0.5-2.7-0.4-3.8-0.6c-3.2-0.4-6.3-0.8-9.5-1.1
	c-10.8-1.2-21.6-2.2-32.4-3.1c-26.6-2.3-53.3-4.4-79.9-5.2c-6-0.2-12.1-0.3-18.1-0.2c-7.8,0.1-15,1.4-22.6,2.8
	c-0.8,0.2-2.7,2.4-1,2.1c7.2-1.3,14.1-2.6,21.4-2.7c5.1-0.1,10.2,0,15.3,0.1c12.5,0.3,25.1,1,37.6,1.8c24.7,1.6,49.4,3.6,74,6.1
	c4.1,0.4,8.2,0.8,12.3,1.4c1.5,0.2,3.7,0.1,5,0.8c0.1,0.1,0.2,0.1,0.3,0c0.2,0,0.4-0.1,0.7-0.2c0.8-0.2,3.1-0.4,4.1-0.5
	c3.4-0.4,6.8-0.8,10.2-1.1c11.1-1.1,22.2-2.1,33.3-3c26.8-2.2,53.7-4.2,80.6-5.1c6-0.2,12-0.3,18.1-0.3c2.3,0,4.6,0.1,6.8,0.2
	c5.6,0.3,10.9,1.6,16.4,2.5c0.2,0,0.4,0,0.6-0.1c0.5,0.3,1,0.4,1.7,0.1C462.5,263.9,462.4,259.4,462.2,257.5z M284,179.1
	c-0.2,5.1-0.4,10.3-0.6,15.4c-0.1,1.1-0.1,2.3-0.2,3.4c0,0.4,0,0.6,0,0.8c0,0.1,0,0.3,0,0.6c-0.1,1.7-0.3,3.4-0.4,5.1
	c-0.2,2.1-0.3,5.7,0.8,8.3c-0.7-0.1-1.3-0.1-2-0.2c-4.3-0.4-8.6-1-12.8-1.5c-10.1-1.2-20.3-2.2-30.5-2.9c-10.4-0.7-20.7-1.1-31.1-1
	c-5,0-10,0.2-14.9,0.5c-4.2,0.2-8.1,1-12.2,1.8c0.1-0.3,0.1-0.6,0.1-0.9c2-19.5,2.7-39.2,3.4-58.7c0.8-23.2,1.4-46.7,0-69.9
	c-0.5-7.6-0.5-16.6-3.9-23.6c-0.2-0.4-0.4-0.8-0.7-1c3.9-5.1,11.4-7.9,17.3-9.4c10.2-2.6,20.6-4.5,31.1-4.4c10,0.2,19.9,2,29.7,4.1
	c9.3,2,18.7,3.7,26.9,8.5c-1.2,2.7-1.3,6.7-0.9,8.6c0.4,2.2,0.6,4.5,0.8,6.7c0,0.4,0.1,0.8,0.1,1.2c0,0.7,0.1,1.3,0.1,2
	c0.1,2.1,0.2,4.2,0.3,6.3c0.4,10.3,0.6,20.6,0.6,30.9C285,132.8,284.8,156,284,179.1z M398.7,56.1c-2.8,5.9-3.2,13.1-3.6,19.5
	c-0.8,10.6-1,21.2-1,31.8c-0.1,24.2,0.8,48.5,2.1,72.6c0.5,9.5,1,18.9,2,28.3c0,0.2,0.1,0.4,0.1,0.6c-8.5-1.4-16.7-1.9-25.5-2
	c-10.9-0.1-21.9,0.3-32.8,1.1c-10.7,0.8-21.3,1.9-32,3.2c-3.7,0.5-7.3,0.9-11,1.2c-1,0.1-2,0.2-3.1,0.3c1.1-2.1,1.4-5.2,1.4-6.6
	c0-43.6,0.3-87.1-0.7-130.7c-0.1-5-0.2-10.1-0.5-15.1c-0.1-1.6-0.3-4.3-1.2-6.4c8.9-5.4,19.5-7,29.5-9.1c10.8-2.2,21.7-4,32.8-3.4
	c9.7,0.5,19.9,2.2,29.1,5.3c5,1.7,11.2,4.6,14.7,8.9C398.8,55.8,398.7,55.9,398.7,56.1z"/>
<g>
	<path d="M557.9,566.7c3.2-1.7,4.5-8.2,3.7-13.5c0-19.3,0-38.5,0-57.8c0-32.6,0-65.3,0-97.9c0-7.5,0-14.9,0-22.4
		c0-3-0.9-10.7-5.4-10.7c-20.4,0-40.7,0-61.1,0c-32.6,0-65.3,0-97.9,0c-5.7,0-11.4,0-17.1,0c0-7.8,0-15.6,0-23.4
		c0-10.1,0-20.1,0-30.2c0-3-0.9-10.7-5.4-10.7c-20.4,0-40.7,0-61.1,0c-32.6,0-65.3,0-97.9,0c-7.5,0-14.9,0-22.4,0
		c-4.4,0-5.4,7.8-5.4,10.7c0,17.9,0,35.7,0,53.6c-18.6,0-37.1,0-55.7,0c-32.6,0-65.3,0-97.9,0c-7.5,0-14.9,0-22.4,0
		c-4.4,0-5.4,7.8-5.4,10.7c0,20.4,0,40.7,0,61.1c0,32.6,0,65.3,0,97.9c0,7.5,0,14.9,0,22.4c0,3,0.9,10.7,5.4,10.7
		c20.4,0,40.7,0,61.1,0c32.6,0,65.3,0,97.9,0c7.5,0,14.9,0,22.4,0c13.8,0,27.5,0,41.3,0c6.6,0,13.2,0,19.8,0c9.9,0,19.8,0,29.6,0
		c16.5,0,32.9,0,49.4,0c6.3,0,12.6,0,18.9,0c7.5,0,14.9,0,22.4,0c20.4,0,40.7,0,61.1,0c32.6,0,65.3,0,97.9,0c7.5,0,14.9,0,22.4,0
		c0.5,0,0.9-0.1,1.2-0.2c0,0,0.1,0,0.1,0C557.6,566.9,557.7,566.8,557.9,566.7z M132.2,545.8c-32.6,0-65.3,0-97.9,0
		c-5.7,0-11.4,0-17.1,0c0-16.8,0-33.6,0-50.4c0-32.6,0-65.3,0-97.9c0-3.9,0-7.8,0-11.7c18.6,0,37.1,0,55.7,0c32.6,0,65.3,0,97.9,0
		c5.7,0,11.4,0,17.1,0c0,2.7,0,5.4,0,8.1c0,14.1,0,28.2,0,42.2c0,30.1,0,60.1,0,90.2c0,2.6,0,5.2,0,7.8c0,3.9,0,7.8,0,11.7
		C169.4,545.8,150.8,545.8,132.2,545.8z M240,545.8c0-22.9,0-45.8,0-68.6c0-0.2,0-0.4,0-0.7c12.9,0,25.8,0,38.7,0
		c0,22.9,0,45.8,0,68.6c0,0.2,0,0.4,0,0.7C265.8,545.8,252.9,545.8,240,545.8z M289.4,545.8c0-22.9,0-45.8,0-68.6c0-0.2,0-0.4,0-0.7
		c12.9,0,25.8,0,38.7,0c0,22.9,0,45.8,0,68.6c0,0.2,0,0.4,0,0.7c-4.8,0-9.6,0-14.4,0C305.6,545.8,297.5,545.8,289.4,545.8z
		 M338.8,545.8c0-22.9,0-45.8,0-68.6c0-3.8,0-7.6,0-11.4c0-3-0.9-10.7-5.4-10.7c-16.5,0-32.9,0-49.4,0s-32.9,0-49.4,0
		c-4.4,0-5.4,7.8-5.4,10.7c0,26.4,0,52.9,0,79.3c0,0.2,0,0.4,0,0.7c-4.5,0-9,0-13.5,0c-5.7,0-11.4,0-17.1,0c0-16.8,0-33.6,0-50.4
		c0-7.4,0-14.7,0-22.1c0-25.3,0-50.6,0-75.9c0-7.5,0-14.9,0-22.4c0-11.4,0-22.7,0-34.1c0-6.5,0-13,0-19.5c18.6,0,37.1,0,55.7,0
		c32.6,0,65.3,0,97.9,0c5.7,0,11.4,0,17.1,0c0,17.9,0,35.7,0,53.6c0,6.3,0,12.6,0,18.8c0,14.1,0,28.2,0,42.2c0,30.1,0,60.1,0,90.2
		c0,2.6,0,5.2,0,7.8c0,3.9,0,7.8,0,11.7C359.2,545.8,349,545.8,338.8,545.8z M495.1,545.8c-32.6,0-65.3,0-97.9,0
		c-5.7,0-11.4,0-17.1,0c0-16.8,0-33.6,0-50.4c0-7.4,0-14.7,0-22.1c0-25.3,0-50.6,0-75.9c0-3.9,0-7.8,0-11.7c18.6,0,37.1,0,55.7,0
		c32.6,0,65.3,0,97.9,0c5.7,0,11.4,0,17.1,0c0,16.8,0,33.6,0,50.4c0,32.6,0,65.3,0,97.9c0,3.9,0,7.8,0,11.7
		C532.2,545.8,513.7,545.8,495.1,545.8z"/>
	<path d="M80.7,433.6c0-3-0.9-10.7-5.4-10.7c-12.5,0-25,0-37.5,0c-4.4,0-5.4,7.8-5.4,10.7c0,18.6,0,37.2,0,55.8
		c0,3,0.9,10.7,5.4,10.7c12.5,0,25,0,37.5,0c0.5,0,0.9-0.1,1.2-0.2c0,0,0.1,0,0.1,0c0.1-0.1,0.2-0.1,0.4-0.2
		c3.2-1.7,4.5-8.2,3.7-13.5C80.7,468.6,80.7,451.1,80.7,433.6z M70,478.7c-8.9,0-17.9,0-26.8,0c0-11.5,0-22.9,0-34.4
		c8.9,0,17.9,0,26.8,0C70,455.8,70,467.2,70,478.7z"/>
	<path d="M164.3,433.6c0-3-0.9-10.7-5.4-10.7c-12.5,0-25,0-37.5,0c-4.4,0-5.4,7.8-5.4,10.7c0,18.6,0,37.2,0,55.8
		c0,3,0.9,10.7,5.4,10.7c12.5,0,25,0,37.5,0c0.5,0,0.9-0.1,1.2-0.2c0,0,0.1,0,0.1,0c0.1-0.1,0.2-0.1,0.4-0.2
		c3.2-1.7,4.5-8.2,3.7-13.5C164.3,468.6,164.3,451.1,164.3,433.6z M153.6,478.7c-8.9,0-17.9,0-26.8,0c0-11.5,0-22.9,0-34.4
		c8.9,0,17.9,0,26.8,0C153.6,455.8,153.6,467.2,153.6,478.7z"/>
	<path d="M447.8,433.6c0-3-0.9-10.7-5.4-10.7c-12.5,0-25,0-37.5,0c-4.4,0-5.4,7.8-5.4,10.7c0,18.6,0,37.2,0,55.8
		c0,3,0.9,10.7,5.4,10.7c12.5,0,25,0,37.5,0c0.5,0,0.9-0.1,1.2-0.2c0,0,0.1,0,0.1,0c0.1-0.1,0.2-0.1,0.4-0.2
		c3.2-1.7,4.5-8.2,3.7-13.5C447.8,468.6,447.8,451.1,447.8,433.6z M437.1,478.7c-8.9,0-17.9,0-26.8,0c0-11.5,0-22.9,0-34.4
		c8.9,0,17.9,0,26.8,0C437.1,455.8,437.1,467.2,437.1,478.7z"/>
	<path d="M531.3,433.6c0-3-0.9-10.7-5.4-10.7c-12.5,0-25,0-37.5,0c-4.4,0-5.4,7.8-5.4,10.7c0,18.6,0,37.2,0,55.8
		c0,3,0.9,10.7,5.4,10.7c12.5,0,25,0,37.5,0c0.5,0,0.9-0.1,1.2-0.2c0,0,0.1,0,0.1,0c0.1-0.1,0.2-0.1,0.4-0.2
		c3.2-1.7,4.5-8.2,3.7-13.5C531.3,468.6,531.3,451.1,531.3,433.6z M520.6,478.7c-8.9,0-17.9,0-26.8,0c0-11.5,0-22.9,0-34.4
		c8.9,0,17.9,0,26.8,0C520.6,455.8,520.6,467.2,520.6,478.7z"/>
</g>
</svg>
