<?xml version="1.0" encoding="utf-8"?>
<!-- Generator: Adobe Illustrator 24.1.1, SVG Export Plug-In . SVG Version: 6.00 Build 0)  -->
<svg version="1.1" id="Capa_1" xmlns="http://www.w3.org/2000/svg" xmlns:xlink="http://www.w3.org/1999/xlink" x="0px" y="0px"
	 viewBox="0 0 390.45 390.45" style="enable-background:new 0 0 390.45 390.45;" xml:space="preserve">
<style type="text/css">
	.st0{fill:none;stroke:#000000;stroke-width:3;stroke-miterlimit:10;}
</style>
<g>
	<path d="M101.04,153.94c-1,0-2.1,0.14-3.3,0.41c-1.2,0.28-2.49,0.7-3.88,1.28c1.05-2.37,2.77-4.8,5.13-7.29
		c2.11-2.07,4.23-4.15,6.37-6.25c2.98-3.06,4.45-5.29,4.4-6.67c-0.05-1.46-0.62-2.71-1.7-3.75c-1.08-1.04-2.33-1.55-3.74-1.55
		c-1.24,0-2.79,0.9-4.67,2.69c-1.34,1.35-2.68,2.72-4.01,4.1c-10.65,9.85-15.98,21.5-15.98,34.94c0,7.18,1.39,12.97,4.17,17.39
		c3.47,5.52,8.85,8.28,16.13,8.28c6.54,0,11.77-2.24,15.71-6.71c3.73-4.28,5.6-9.76,5.6-16.44c0-6.43-1.76-11.45-5.29-15.05
		C112.45,155.74,107.47,153.94,101.04,153.94z M107.99,183.87c-1.85,2.43-4.46,3.64-7.84,3.64c-3.29,0-5.76-1.3-7.41-3.91
		s-2.47-6.52-2.47-11.74c0-0.97,0.05-2.01,0.15-3.15c2.13-1.38,3.6-2.25,4.4-2.61c1.52-0.66,3.23-0.99,5.13-0.99
		c3.58,0,6.25,0.77,8.03,2.32s2.66,3.86,2.66,6.96C110.65,178.39,109.76,181.55,107.99,183.87z"/>
	<path d="M148.11,157.21c1.42,0,2.61-0.46,3.57-1.37c0.96-0.91,1.43-2.1,1.43-3.56c0-1.41-0.47-2.58-1.41-3.52s-2.11-1.41-3.51-1.41
		c-1.45,0-2.65,0.46-3.61,1.37c-0.96,0.91-1.43,2.1-1.43,3.56c0,1.41,0.47,2.58,1.41,3.52S146.69,157.21,148.11,157.21z"/>
	<path d="M148.13,176.91c-1.39,0-2.57,0.49-3.53,1.47c-0.96,0.98-1.45,2.15-1.45,3.5c0,1.35,0.48,2.51,1.45,3.48
		c0.96,0.97,2.14,1.45,3.53,1.45c1.36,0,2.53-0.48,3.51-1.45c0.98-0.97,1.47-2.13,1.47-3.48c0-1.35-0.49-2.52-1.47-3.5
		C150.66,177.4,149.49,176.91,148.13,176.91z"/>
	<path d="M158.94,162.75c-0.54,0-1.33,0.03-2.37,0.08c-1.04,0.06-1.82,0.08-2.34,0.08c-0.33,0-0.81-0.03-1.43-0.08
		c-0.62-0.05-1.08-0.08-1.39-0.08c-1.52,0-3.78,0.08-6.79,0.25c-3.01,0.17-5.26,0.25-6.75,0.25c-2.47,0-4.17,0.18-5.1,0.54
		c-1.62,0.66-2.43,2.08-2.43,4.26c0,1.71,0.88,3.02,2.63,3.93c1.42,0.75,3.05,1.12,4.9,1.12c2.37,0,5.91-0.08,10.63-0.25
		c4.72-0.17,8.27-0.25,10.63-0.25c0.31,0,0.77,0.05,1.39,0.14c0.62,0.1,1.09,0.15,1.43,0.15c1.39,0,2.55-0.51,3.47-1.53
		c0.93-1.02,1.39-2.19,1.39-3.52C166.81,164.45,164.19,162.75,158.94,162.75z"/>
	<path d="M212.74,184.24c-2.16-1.02-4.35-1.53-6.56-1.53c-2.37,0-6.29,0.15-11.77,0.46c-2.75,0.25-4.84,0.47-6.25,0.66
		c0.36-4.39,2.99-8.29,7.88-11.72c3.22-2.15,6.43-4.32,9.65-6.5c3.4-2.48,5.88-5.04,7.45-7.66c2.01-3.28,3.01-7.27,3.01-11.96
		c0-4.64-2.04-8.39-6.14-11.26c-3.58-2.51-7.59-3.77-12.04-3.77c-3.58,0-7.04,0.98-10.38,2.94c-2.32,1.35-5.03,3.51-8.14,6.46
		c-1.29,1.21-1.93,2.66-1.93,4.35c0,1.57,0.64,2.8,1.93,3.68c1.03,0.72,2.23,1.08,3.59,1.08c1.13,0,3.22-1.3,6.27-3.91
		c3.05-2.61,5.94-3.91,8.67-3.91c1.54,0,3.13,0.52,4.75,1.55s2.43,2.08,2.43,3.13c0,4.03-2.03,7.63-6.1,10.81
		c-3.45,2.43-6.91,4.87-10.38,7.33c-3.68,2.68-6.34,5.36-7.99,8.03c-2.14,3.48-3.21,7.8-3.21,12.96c0,2.65,0.26,4.61,0.77,5.88
		c0.82,2.02,2.39,3.02,4.71,3.02c0.28,0,0.69,0.06,1.23,0.17c0.54,0.11,0.95,0.17,1.23,0.17c1,0,2.5-0.13,4.48-0.39
		c1.98-0.26,3.46-0.39,4.44-0.39l11.35,0.04c0.59,0,1.56,0.12,2.91,0.35c1.35,0.24,2.35,0.35,2.99,0.35c1.49,0,2.74-0.58,3.74-1.74
		c0.95-1.08,1.43-2.33,1.43-3.77C216.76,187.14,215.42,185.51,212.74,184.24z"/>
	<path d="M256.08,153.23l-17.5-0.04h-1.16c-0.6-0.03-1.05-0.04-1.35-0.04c-4.95,0-7.42,1.67-7.42,5.01c0,1.35,0.45,2.5,1.35,3.44
		c0.9,0.94,2.05,1.41,3.45,1.41c0.57,0,1.42-0.03,2.55-0.08s1.97-0.08,2.55-0.08h17.54c1.4,0,2.55-0.46,3.47-1.37
		c0.91-0.91,1.37-2.06,1.37-3.44c0-1.38-0.46-2.53-1.37-3.44C258.64,153.69,257.48,153.23,256.08,153.23z"/>
	<path d="M255.94,173.44c-1.7,0-4.25-0.03-7.64-0.1c-3.4-0.07-5.94-0.1-7.64-0.1c-2.13,0-4.55,0.1-7.26,0.29
		c-3.17,0.22-4.75,1.82-4.75,4.8c0,1.44,0.48,2.59,1.45,3.48c0.96,0.88,2.18,1.33,3.65,1.33c0.77,0,1.92-0.05,3.46-0.14
		c1.53-0.1,2.68-0.15,3.45-0.15c1.7,0,4.25,0.04,7.64,0.1c3.4,0.07,5.95,0.1,7.64,0.1c1.44,0,2.63-0.46,3.57-1.37
		c0.94-0.91,1.41-2.06,1.41-3.44s-0.47-2.53-1.41-3.44S257.38,173.44,255.94,173.44z"/>
	<path d="M304.57,161.02c2.19-1.24,3.83-2.93,4.92-5.07c1.09-2.14,1.64-4.73,1.64-7.76c0-5.52-1.94-9.77-5.83-12.75
		c-3.55-2.71-8.25-4.06-14.09-4.06c-2.42,0-5.56,1.04-9.42,3.11c-4.32,2.32-6.48,4.65-6.48,7c0,1.44,0.51,2.72,1.54,3.85
		s2.28,1.7,3.74,1.7c0.88,0,2.51-0.82,4.9-2.46c2.39-1.64,4.59-2.46,6.6-2.46c6.1,0,9.1,2.06,8.99,6.17
		c-0.03,1.3-0.48,2.42-1.35,3.35c-0.88,0.94-2.19,1.7-3.94,2.28c-2.75,0.69-5.52,1.37-8.3,2.03c-2.93,1.05-4.4,2.72-4.4,5.01
		c0,3.01,1.89,4.71,5.67,5.09c8.62,0.91,12.93,4.8,12.93,11.67c0,2.21-0.92,4.1-2.76,5.67s-3.98,2.36-6.43,2.36
		c-3.11,0-5.47-0.69-7.06-2.07c-0.26-0.22-1.21-1.52-2.86-3.89c-0.98-1.38-2.28-2.07-3.9-2.07c-1.39,0-2.63,0.47-3.71,1.41
		c-1.16,1.02-1.74,2.3-1.74,3.85c0,0.66,0.1,1.28,0.31,1.86c1.34,3.87,3.92,6.85,7.76,8.94c3.32,1.79,7.05,2.69,11.19,2.69
		c5.56,0,10.28-1.96,14.17-5.88c3.88-3.92,5.83-8.69,5.83-14.32C312.52,169.27,309.87,164.19,304.57,161.02z"/>
	<path d="M355.28,35.25c-35.74,0-71.48,0-107.21,0c-57,0-114,0-171,0c-13.13,0-26.26,0-39.39,0c-3.24,0-6,3.02-6,6.6
		c0,28.24,0,56.49,0,84.73c0,44.99,0,89.98,0,134.96c0,10.29,0,20.58,0,30.86c0,3.57,2.75,6.6,6,6.6c35.74,0,71.48,0,107.21,0
		c57,0,114,0,171,0c13.13,0,26.26,0,39.39,0c1.84,0,3.24-0.75,4.2-1.89c1.08-1.06,1.8-2.63,1.8-4.7c0-28.24,0-56.49,0-84.73
		c0-44.99,0-89.98,0-134.96c0-10.29,0-20.58,0-30.86C361.28,38.28,358.54,35.25,355.28,35.25z M248.07,285.81c-57,0-114,0-171,0
		c-11.13,0-22.26,0-33.39,0c0-26.04,0-52.09,0-78.13c0-44.99,0-89.98,0-134.96c0-8.09,0-16.18,0-24.27c33.74,0,67.48,0,101.21,0
		c57,0,114,0,171,0c11.13,0,22.26,0,33.39,0c0,26.04,0,52.09,0,78.13c0,44.99,0,89.98,0,134.96c0,8.09,0,16.18,0,24.27
		C315.55,285.81,281.81,285.81,248.07,285.81z"/>
	<path d="M355.28,324.05c-35.74,0-71.48,0-107.21,0c-57,0-114,0-171,0c-13.13,0-26.26,0-39.39,0c-7.72,0-7.73,12,0,12
		c35.74,0,71.48,0,107.21,0c57,0,114,0,171,0c13.13,0,26.26,0,39.39,0C363.01,336.05,363.02,324.05,355.28,324.05z"/>
</g>
</svg>
