<?xml version="1.0" encoding="utf-8"?>
<!-- Generator: Adobe Illustrator 24.1.1, SVG Export Plug-In . SVG Version: 6.00 Build 0)  -->
<svg version="1.1" id="Capa_1" xmlns="http://www.w3.org/2000/svg" xmlns:xlink="http://www.w3.org/1999/xlink" x="0px" y="0px"
	 viewBox="0 0 390.45 390.45" style="enable-background:new 0 0 390.45 390.45;" xml:space="preserve">
<style type="text/css">
	.st0{fill:none;stroke:#000000;stroke-width:3;stroke-miterlimit:10;}
</style>
<g>
	<path d="M116.25,185.2c-2.16-1.02-4.35-1.53-6.56-1.53c-2.37,0-6.29,0.15-11.77,0.46c-2.75,0.25-4.84,0.47-6.25,0.66
		c0.36-4.39,2.99-8.29,7.88-11.72c3.22-2.15,6.43-4.32,9.65-6.5c3.4-2.48,5.88-5.04,7.45-7.66c2.01-3.28,3.01-7.27,3.01-11.96
		c0-4.64-2.05-8.39-6.14-11.26c-3.58-2.51-7.59-3.77-12.04-3.77c-3.58,0-7.04,0.98-10.38,2.94c-2.32,1.35-5.03,3.51-8.14,6.46
		c-1.29,1.21-1.93,2.66-1.93,4.35c0,1.57,0.64,2.8,1.93,3.68c1.03,0.72,2.23,1.08,3.59,1.08c1.13,0,3.22-1.3,6.27-3.91
		c3.05-2.61,5.94-3.91,8.67-3.91c1.54,0,3.13,0.52,4.75,1.55s2.43,2.08,2.43,3.13c0,4.03-2.03,7.63-6.1,10.81
		c-3.45,2.43-6.91,4.87-10.38,7.33c-3.68,2.68-6.34,5.36-7.99,8.03c-2.14,3.48-3.2,7.8-3.2,12.96c0,2.65,0.26,4.61,0.77,5.88
		c0.82,2.02,2.39,3.02,4.71,3.02c0.28,0,0.69,0.06,1.23,0.17c0.54,0.11,0.95,0.17,1.24,0.17c1,0,2.5-0.13,4.48-0.39
		c1.98-0.26,3.46-0.39,4.44-0.39l11.35,0.04c0.59,0,1.56,0.12,2.91,0.35c1.35,0.24,2.35,0.35,2.99,0.35c1.49,0,2.74-0.58,3.74-1.74
		c0.95-1.08,1.43-2.33,1.43-3.77C120.26,188.1,118.92,186.47,116.25,185.2z"/>
	<path d="M165.5,158.58c0-1.43-0.55-2.68-1.66-3.73c-1.11-1.05-2.39-1.57-3.86-1.57c-1.05,0-1.96,0.3-2.72,0.91
		c-0.76,0.61-1.5,1.23-2.22,1.86c-3.22,2.62-5.4,4.55-6.56,5.8c-5.09-4.94-8.75-7.41-10.96-7.41c-1.47,0-2.73,0.55-3.78,1.66
		c-1.05,1.1-1.58,2.36-1.58,3.77c0,1.77,0.85,3.2,2.55,4.31c1.96,1.27,4.39,3.33,7.29,6.17c-0.57,0.91-0.99,1.6-1.27,2.07
		c-1.13,1.3-2.28,2.59-3.43,3.89c-1.34,1.49-2.01,3.13-2.01,4.93c0,1.46,0.54,2.66,1.62,3.6c1.08,0.94,2.34,1.41,3.78,1.41
		c2.52,0,4.23-1.23,5.13-3.68c1.54-1.82,3.06-3.63,4.55-5.42c0.23,0.17,1.62,1.78,4.17,4.84c1.7,2.04,3.44,3.06,5.21,3.06
		c1.54,0,2.78-0.63,3.71-1.9c0.75-1.08,1.12-2.26,1.12-3.56c0-2.57-2.7-6.11-8.11-10.64c2.6-2.46,4.54-4.17,5.83-5.13
		C164.43,162,165.5,160.26,165.5,158.58z"/>
	<path d="M218.23,168.6c-1.13-0.63-3.38-1.01-6.75-1.12l-0.04-31.13c0-1.79-0.66-3.19-1.97-4.18c-1.11-0.83-2.42-1.24-3.94-1.24
		c-3.22,0-5.83,1.43-7.84,4.31c-8.49,12.53-14.81,21.97-18.95,28.32c-1.21,1.46-2.41,2.91-3.59,4.35c-1.44,1.88-2.16,3.57-2.16,5.09
		c0,3.62,4.13,5.42,12.39,5.42h15.4v9.89c-0.18,5.52,1.69,8.28,5.6,8.28c1.54,0,2.77-0.5,3.67-1.49c0.9-0.99,1.36-2.25,1.39-3.77
		c0.1-4.64,0.12-8.94,0.04-12.92c2.42,0.11,4.32-0.12,5.71-0.7c1.98-0.85,2.96-2.43,2.93-4.72
		C220.12,170.81,219.49,169.35,218.23,168.6z M200.78,167.48h-11.54c5.2-8.17,9.04-14.37,11.54-18.59V167.48z"/>
	<path d="M256.08,154.19l-17.5-0.04h-1.16c-0.6-0.03-1.05-0.04-1.35-0.04c-4.95,0-7.42,1.67-7.42,5.01c0,1.35,0.45,2.5,1.35,3.44
		s2.05,1.41,3.45,1.41c0.57,0,1.42-0.03,2.55-0.08c1.13-0.06,1.97-0.08,2.55-0.08h17.54c1.4,0,2.55-0.46,3.47-1.37
		c0.91-0.91,1.37-2.06,1.37-3.44c0-1.38-0.46-2.53-1.37-3.44C258.64,154.65,257.48,154.19,256.08,154.19z"/>
	<path d="M255.94,174.4c-1.7,0-4.25-0.03-7.64-0.1c-3.4-0.07-5.94-0.1-7.64-0.1c-2.14,0-4.55,0.1-7.26,0.29
		c-3.17,0.22-4.75,1.82-4.75,4.8c0,1.44,0.48,2.59,1.45,3.48c0.96,0.88,2.18,1.33,3.65,1.33c0.77,0,1.92-0.05,3.46-0.14
		c1.53-0.1,2.68-0.15,3.45-0.15c1.7,0,4.25,0.04,7.64,0.1c3.4,0.07,5.94,0.1,7.64,0.1c1.44,0,2.63-0.46,3.57-1.37
		c0.94-0.91,1.41-2.06,1.41-3.44s-0.47-2.53-1.41-3.44S257.38,174.4,255.94,174.4z"/>
	<path d="M305.07,161.93c2.11-1.33,3.62-2.8,4.52-4.43c1-1.82,1.51-4.24,1.51-7.25c0-5.35-1.31-9.58-3.94-12.67
		c-3.06-3.56-7.67-5.31-13.82-5.26c-5.2,0.06-9.64,1.79-13.32,5.22c-3.86,3.59-5.79,8.1-5.79,13.54c0,4.8,1.87,8.79,5.6,11.96
		c-5.12,3.53-7.62,9.37-7.49,17.51c0.08,5.82,2.24,10.25,6.48,13.29c3.65,2.59,8.34,3.89,14.05,3.89c6.02,0,10.97-1.5,14.86-4.51
		c4.3-3.34,6.45-7.96,6.45-13.87c0-4.5-0.79-8.13-2.35-10.89C310.46,165.99,308.21,163.81,305.07,161.93z M293.22,142.52
		c2.57,0,4.37,0.47,5.4,1.41c1.24,1.13,1.85,3.24,1.85,6.33c0,2.04-0.91,3.66-2.74,4.84c-1.03,0.66-2.89,1.39-5.6,2.19
		c-4.84-1.33-7.27-3.41-7.29-6.25C284.79,145.36,287.59,142.52,293.22,142.52z M301.21,184.99c-1.52,1.82-4.3,2.73-8.34,2.73
		c-2.42,0-4.54-0.52-6.37-1.57c-2.34-1.35-3.55-3.37-3.63-6.04c-0.1-3.42,0.71-6.06,2.43-7.91c1.18-1.33,3.63-2.86,7.33-4.6
		c3.24,1.08,5.65,2.28,7.22,3.6c2.08,1.77,3.13,4.07,3.13,6.91C302.99,181.27,302.4,183.56,301.21,184.99z"/>
	<path d="M355.28,35.54c-35.74,0-71.48,0-107.21,0c-57,0-114,0-171,0c-13.13,0-26.26,0-39.39,0c-3.24,0-6,3.02-6,6.6
		c0,28.24,0,56.49,0,84.73c0,44.99,0,89.98,0,134.96c0,10.29,0,20.58,0,30.86c0,3.57,2.75,6.6,6,6.6c35.74,0,71.48,0,107.21,0
		c57,0,114,0,171,0c13.13,0,26.26,0,39.39,0c1.84,0,3.24-0.75,4.2-1.89c1.08-1.06,1.8-2.63,1.8-4.7c0-28.24,0-56.49,0-84.73
		c0-44.99,0-89.98,0-134.96c0-10.29,0-20.58,0-30.86C361.28,38.57,358.54,35.54,355.28,35.54z M248.07,286.09c-57,0-114,0-171,0
		c-11.13,0-22.26,0-33.39,0c0-26.04,0-52.09,0-78.13c0-44.99,0-89.98,0-134.96c0-8.09,0-16.18,0-24.27c33.74,0,67.48,0,101.21,0
		c57,0,114,0,171,0c11.13,0,22.26,0,33.39,0c0,26.04,0,52.09,0,78.13c0,44.99,0,89.98,0,134.96c0,8.09,0,16.18,0,24.27
		C315.55,286.09,281.81,286.09,248.07,286.09z"/>
	<path d="M355.28,324.34c-35.74,0-71.48,0-107.21,0c-57,0-114,0-171,0c-13.13,0-26.26,0-39.39,0c-7.72,0-7.73,12,0,12
		c35.74,0,71.48,0,107.21,0c57,0,114,0,171,0c13.13,0,26.26,0,39.39,0C363.01,336.34,363.02,324.34,355.28,324.34z"/>
</g>
</svg>
