<?xml version="1.0" encoding="utf-8"?>
<!-- Generator: Adobe Illustrator 23.0.1, SVG Export Plug-In . SVG Version: 6.00 Build 0)  -->
<svg version="1.1" id="Layer_5" xmlns="http://www.w3.org/2000/svg" xmlns:xlink="http://www.w3.org/1999/xlink" x="0px" y="0px"
	 viewBox="0 0 566.93 566.93" enable-background="new 0 0 566.93 566.93" xml:space="preserve">
<g>
	<path d="M360.897,193.238c-0.533-21.872-1.054-43.794-3.524-65.552c-1.201-10.577-2.965-21.063-5.289-31.451
		c-2.136-9.549-4.741-19.359-9.85-27.802c-19.133-31.621-63.688-33.641-92.564-14.797c-27.463,17.921-41.212,50.174-42.288,82.13
		c-0.994,29.526-0.138,59.157,0.416,88.684c0.221,11.781,0.494,23.562,0.638,35.344c0.204,16.692-1.165,33.302-1.883,49.966
		c-1.764,40.938,3.88,84.245,22.298,121.305c3.844,7.736,8.578,15.363,14.81,21.41c4.736,4.595,10.196,7.799,15.917,10.963
		c8.078,4.467,16.51,7.868,25.914,7.492c15.274-0.61,31.648-8.084,44.265-16.21c11.644-7.499,20.728-18.485,26.138-31.217
		c8.798-20.703,8.296-42.833,8.611-64.861c0.156-10.877-0.11-21.755-0.374-32.628C363.055,281.755,361.977,237.497,360.897,193.238z
		 M354.19,373.498c0.031,3.484,0.047,6.966-0.102,10.449c-0.018,0.416-0.115,1.904-0.131,2.239
		c-0.066,0.798-0.132,1.596-0.214,2.393c-0.261,2.528-0.62,5.04-1.056,7.543c-1.571,9.02-6.243,20.372-13.122,28.429
		c-9.817,11.497-24.581,18.524-38.675,23.294c-9.193,3.111-19.446,4.569-28.752,1.106c-9.251-3.443-19.462-9.127-26.013-16.446
		c-11.147-12.454-16.906-29.732-21.408-45.519c-5.213-18.279-7.956-37.249-8.426-56.244c-0.496-20.032,1.783-39.97,2.145-59.981
		c0.167-9.248-0.105-18.506-0.28-27.752c-0.524-27.609-1.134-55.221-1.09-82.836c0.02-12.475-0.706-25.527,1.925-37.795
		c2.833-13.21,9.071-25.661,17.904-35.869c20.45-23.633,57.821-34.073,85.469-16.414c15.517,9.911,19.577,27.025,22.644,44.097
		c3.44,19.149,4.672,38.578,5.319,57.996c1.366,41.022,2.058,82.076,3.058,123.108c0.25,10.239,0.499,20.478,0.749,30.717
		C354.519,341.86,354.048,357.666,354.19,373.498z"/>
	<path d="M421.03,462.096c0.276-0.386,0.286-0.792-0.092-1.184c-0.005-0.005-0.01-0.01-0.015-0.015
		c-1.71-19.579-2.966-39.192-3.446-58.853c-0.608-24.918,0.425-49.812,0.891-74.722c0.459-24.489-1.384-48.92-1.024-73.386
		c0.198-13.415,2.228-26.321,4.638-39.481c2.267-12.38,3.877-24.944,0.508-37.277c-0.052-0.191-0.145-0.375-0.268-0.55
		c0.043-0.412,0.078-0.828,0.095-1.249c0.003-0.081-0.019-0.168-0.026-0.252c0.02-0.145,0.045-0.284,0.038-0.463
		c-0.435-10.756-9.405-20.507-20.084-22.028c-6.792-0.968-13.241,1.844-17.177,6.782c-0.806-20.635-2.169-41.286-5.708-61.633
		c-3.958-22.755-9.048-49.896-27.03-66.083c-32.491-29.249-86.582-26.119-122.234-4.43c-32.928,20.033-51.386,54.901-52.541,92.983
		c-0.375,12.36-0.477,24.73-0.431,37.104c-3.142-2.458-6.863-4.158-10.823-4.723c-10.531-1.501-20.237,6.082-21.026,16.596
		c-0.397,0.222-0.684,0.533-0.799,0.953c-6.216,22.752,3.915,46.499,4.979,69.362c1.121,24.066-1.235,48.234-0.949,72.327
		c0.295,24.905,1.508,49.796,1.165,74.708c-0.339,24.61-1.938,49.187-4.201,73.69c-2.565,27.784-5.985,55.479-9.406,83.168
		c-0.387,3.129,8.829,5.005,9.177,2.192c2.821-22.838,5.638-45.699,7.981-68.602c2.005-2.607,5.877-3.885,8.219-6.266
		c2.398-2.437,4.383-5.215,6.939-7.508c3.508-3.146,7.482-5.648,11.169-8.517c1.81,13.705,3.778,27.39,5.752,41.071
		c0.405,2.809,9.594,4.334,9.114,1.004c-5.083-35.231-10.195-70.563-12.446-106.107c1.337,6.163,2.902,12.275,4.709,18.315
		c6.466,21.605,15.548,44.415,30.229,61.861c10.291,12.229,23.862,19.369,38.392,25.321c11.312,4.634,23.063,6.446,35.227,4.922
		c8.696-1.09,17.245-3.45,25.533-6.247c10.69-3.608,21.55-7.803,31.299-13.531c14.281-8.391,25.978-20.704,33.101-35.7
		c0.636-1.339,1.229-2.685,1.786-4.038c-2.482,21.882-5.617,43.683-8.761,65.478c-0.447,3.095,8.767,5.034,9.177,2.192
		c3.227-22.371,6.454-44.779,8.966-67.256c2.73,2.317,5.119,5.158,7.533,7.663c4.314,4.477,8.629,8.954,12.943,13.43
		c0.094,1.048,0.183,2.097,0.279,3.144c2.565,27.784,5.985,55.479,9.406,83.168c0.345,2.795,9.53,4.373,9.114,1.004
		C427.27,521.041,423.636,491.608,421.03,462.096z M414.801,170.678c-0.09,1.403-0.711,4.074-0.711,4.074s-0.656,1.658-0.625,1.777
		c-1.678,4.037-4.846,7.281-9.34,8.777c-7.934,2.641-15.391-1.625-15.413-10.285C388.674,159.39,413.819,152.401,414.801,170.678z
		 M177.168,164.47c0.029,3.496,0.062,6.992,0.111,10.489c-0.389,0.281-0.557,0.68-0.389,1.214c0.114,0.361,0.209,0.722,0.311,1.083
		c-1.746,3.698-4.799,6.644-9.02,8.049c-7.626,2.538-14.791-1.317-15.357-9.309c0.235-1.208,0.5-2.415,0.829-3.622
		c0.125-0.457-0.009-0.9-0.322-1.31C156.462,160.294,171.951,155.556,177.168,164.47z M161.471,456.421
		c-2.445,2.396-4.409,5.266-6.965,7.547c2.032-21.737,3.551-43.515,4.14-65.352c0.673-24.92-0.302-49.813-0.803-74.725
		c-0.492-24.505,1.184-48.922,1.007-73.406c-0.094-12.997-1.616-25.628-4.012-38.387c-1.639-8.725-3.196-17.507-3.026-26.275
		c3.437,3.529,7.895,6.087,12.635,6.986c4.776,0.905,9.364-0.056,13.101-2.327c0.061,3.034,0.123,6.068,0.191,9.102
		c-0.326,2.011-0.71,4.022-1.128,6.033c-2.102,10.1-4.294,19.965-4.777,30.311c-0.977,20.907,1.306,41.9,0.965,62.838
		c-0.344,21.085-1.504,42.155-1.117,63.249c0.383,20.864,1.964,41.691,4.198,62.434c0.671,6.23,1.402,12.452,2.175,18.67
		C173.015,448.164,166.57,451.424,161.471,456.421z M380.409,391.401c0.047,3.948-0.003,7.881-0.149,11.827
		c-0.012,0.317-0.017,0.518-0.018,0.646c-0.021,0.186-0.049,0.463-0.091,0.895c-0.129,1.353-0.258,2.704-0.424,4.053
		c-0.139,1.129-0.297,2.255-0.473,3.379c-0.114,0.723-0.236,1.445-0.365,2.166c-0.044,0.245-0.382,1.883-0.413,2.08
		c-2.783,12.211-8.297,23.268-17.177,32.629c-13.073,13.782-31.662,21.189-49.366,27.007c-13.137,4.317-27.305,7.194-41.114,4.749
		c-9.738-1.724-18.796-6.413-27.658-10.614c-18.602-8.817-29.466-26.234-37.743-44.337c-9.408-20.577-15.299-42.63-17.908-65.087
		c-2.745-23.622-0.682-47.112,0.802-70.737c0.877-13.961,0.857-27.818,0.556-41.785c-0.38-17.649-0.823-35.299-1.159-52.95
		c0.308-3.757,0.298-7.512-0.197-11.253c-0.187-11.747-0.311-23.494-0.313-35.243c-0.002-14.743-1.111-30.442,2.281-44.794
		c3.759-15.902,12.288-30.248,23.638-41.911c27.456-28.213,73.207-39.407,110.519-26.403c9.447,3.293,18.753,8.225,25.867,15.359
		c7.655,7.677,11.596,17.32,14.576,27.567c6.676,22.959,9.286,46.898,10.525,70.709c2.587,49.728,3.162,99.62,4.619,149.393
		c0.368,12.586,0.737,25.171,1.105,37.757C380.863,354.832,380.19,373.096,380.409,391.401z M405.242,444.625
		c-3.892-4.033-7.635-7.816-12.831-9.853c1.832-17.549,3.186-35.141,3.698-52.793c0.612-21.086-0.38-42.141-0.86-63.218
		c-0.479-21.059,1.282-42.031,1.012-63.063c-0.14-10.936-1.667-21.458-4.003-32.125c-2.471-11.279-4.747-22.629-1.185-33.931
		c0.113-0.358,0.053-0.711-0.133-1.047c2.831,2.079,6.069,3.572,9.453,4.214c5.534,1.049,10.817-0.405,14.813-3.504
		c0.164,7.347-0.909,14.715-2.233,22.049c-2.137,11.834-4.25,23.477-4.686,35.529c-0.87,24.09,1.335,48.236,1.002,72.351
		c-0.343,24.906-1.52,49.798-1.11,74.712c0.312,18.925,1.359,37.831,2.863,56.699C409.109,448.638,407.177,446.63,405.242,444.625z"
		/>
	<path d="M232.256,135.99c6.885-6.532,14.818-11.66,21.289-18.667c7.087-7.675,14.569-14.706,22.467-21.543
		c1.982-1.716-1.451-10.159-3.73-8.187c-7.899,6.837-15.38,13.867-22.467,21.543c-6.47,7.006-14.405,12.135-21.289,18.667
		C226.588,129.642,230.127,138.01,232.256,135.99z"/>
	<path d="M296.35,90.872c-12.802,11.571-25.022,23.403-36.406,36.382c-10.778,12.289-24.19,21.291-35.668,32.799
		c-1.906,1.911,1.692,10.229,3.73,8.187c11.478-11.508,24.889-20.509,35.668-32.799c11.384-12.98,23.603-24.811,36.406-36.382
		C302.043,97.284,298.559,88.875,296.35,90.872z"/>
</g>
</svg>
