<?xml version="1.0" encoding="utf-8"?>
<!-- Generator: Adobe Illustrator 23.0.1, SVG Export Plug-In . SVG Version: 6.00 Build 0)  -->
<svg version="1.1" id="Layer_2" xmlns="http://www.w3.org/2000/svg" xmlns:xlink="http://www.w3.org/1999/xlink" x="0px" y="0px"
	 viewBox="0 0 566.93 566.93" enable-background="new 0 0 566.93 566.93" xml:space="preserve">
<g>
	<path d="M468.806,108.526c-13.404-26.532-37.012-46.914-65.716-55.054c-29.099-8.251-59.848-4.631-87.901,5.858
		c-68,25.426-121.328,90.444-137.437,160.65c-7.661,33.389-7.732,69.171,4.953,101.368c1.757,4.459,3.785,8.796,6.062,12.986
		c-13.273,14.873-26.521,29.769-39.732,44.697c-9.611,10.86-19.216,21.726-28.725,32.676c-7.752,8.927-15.463,17.35-19.646,28.69
		c-4.612,12.504-4.297,27.251,2.512,38.918c5.894,10.1,15.591,17.209,25.459,23.118c10.985,6.578,22.607,10.33,34.345,3.231
		c5.538-3.349,10.701-7.808,14.871-12.778c18.517-22.074,34.372-46.744,50.634-70.482c6.804-9.932,14.02-19.761,20.214-30.095
		c1.158-1.932,2.009-3.989,2.57-6.117c58.974,18.214,123.271-13.443,164.628-55.027c6.616-6.652,12.795-13.707,18.603-21.073
		C476.987,255.444,501.841,173.915,468.806,108.526z M210.377,424.055c-7.742,11.127-15.543,22.216-23.535,33.165
		c-5.194,7.116-10.276,14.68-16.378,21.07c-5.01,5.246-12.23,10.973-19.701,11.507c-10.165,0.726-20.447-6.714-28.3-12.421
		c-6.164-4.479-15.591-12.22-14.887-20.826c0.463-5.662,4.115-11.302,7.596-15.632c13.43-16.708,28.159-32.483,42.368-48.523
		c12.581-14.202,25.193-28.377,37.828-42.53c3.399,2.597,6.799,5.194,10.198,7.79c7.996,8.536,17.34,15.771,27.802,21.237
		c1.395,1.066,2.79,2.131,4.185,3.197c0.291,0.223,0.637,0.458,1.011,0.705c-2.06,3.092-4.13,6.177-6.212,9.253
		C225.099,402.765,217.769,413.432,210.377,424.055z M429.453,292.822c-37.271,47.275-97.634,86.067-160.193,77.318
		c-11.827-1.654-23.189-5.32-33.564-10.786c-8.716-6.658-17.432-13.316-26.149-19.975c-2.705-2.91-5.248-5.996-7.599-9.26
		c-15.979-22.185-21.42-50.765-19.018-77.652c6.008-67.258,51.522-130.172,110.045-162.382
		c47.999-26.419,114.237-33.088,154.206,11.311c42.451,47.156,27.746,118.929-1.924,168.519
		C440.486,277.889,435.155,285.488,429.453,292.822z"/>
	<path d="M385.426,94.56c-21.363-6.427-43.911-4.018-64.654,3.572c-50.037,18.309-89.212,66.242-101.036,117.694
		c-10.326,44.931-0.525,102.209,46.876,121.755c44.813,18.479,95.366-5.504,127.211-37.536c4.779-4.807,9.237-9.908,13.439-15.225
		c31.504-40.632,49.456-100.843,25.402-149.464C423.099,116.02,406.19,100.807,385.426,94.56z M402.215,267.55
		c-26.854,33.974-70.082,61.812-115.099,55.532c-18.909-2.638-36.172-12.498-47.53-27.914
		c-11.329-15.377-15.189-35.191-13.562-53.959c4.126-47.586,36.958-92.074,78.122-114.938
		c34.289-19.045,82.016-24.272,110.773,7.522C449.748,172.3,430.233,231.415,402.215,267.55z"/>
	<path d="M378.517,155.028c-15.979,7.637-32.134,15.078-48.928,20.766c-13.021,4.409-26.394,7.437-39.842,10.211
		c-3.615,0.746-3.065,10.632,0,10c13.512-2.787,26.967-5.83,40.068-10.198c17.189-5.731,33.703-13.333,50.03-21.136
		C382.845,163.237,381.917,153.402,378.517,155.028z"/>
	<path d="M301.42,164.849c18.62-3.921,36.47-10.353,53.513-18.791c2.988-1.479,2.026-11.304-1.329-9.643
		c-16.624,8.23-34.016,14.608-52.184,18.434C297.805,155.61,298.367,165.492,301.42,164.849z"/>
</g>
</svg>
