<?xml version="1.0" encoding="utf-8"?>
<!-- Generator: Adobe Illustrator 23.0.1, SVG Export Plug-In . SVG Version: 6.00 Build 0)  -->
<svg version="1.1" id="Layer_3" xmlns="http://www.w3.org/2000/svg" xmlns:xlink="http://www.w3.org/1999/xlink" x="0px" y="0px"
	 viewBox="0 0 566.93 566.93" enable-background="new 0 0 566.93 566.93" xml:space="preserve">
<g>
	<path stroke="#000000" stroke-width="2" stroke-miterlimit="10" d="M128.693,433.141c-1.747-1.494-3.631-2.838-5.613-4
		c-2.589-1.519-8.804-3.575-5.345-7.482c1.042-1.177-1.785-6.068-2.984-4.714c-2.496,2.82-1.578,6.94,0.221,9.934
		c2.548,4.241,7.136,5.735,11.056,8.36c11.558,7.74,16.738,21.818,14.186,35.278c-0.284,1.497,2.828,6.044,3.224,3.952
		c1.907-10.06-0.098-20.386-5.065-29.3C135.861,440.659,132.625,436.504,128.693,433.141z"/>
	<path stroke="#000000" stroke-width="2" stroke-miterlimit="10" d="M139.285,475.072c1.884,3.86-8.132,7.801-10.391,8.189
		c-2.638,0.454-5.8,0.806-8.636,0.288c0.27-0.93,0.378-2.017,0.157-2.567c-3.169-7.909-7.37-15.877-14.284-21.145
		c-2.88-2.194-6.175-3.463-9.545-4.547c0.987-0.564,1.558-1.252,0.659-1.632c-7.043-2.984-13.431-7.222-18.814-12.67
		c-5.25-5.312-15.224-16.172-6.181-22.299c11.84-8.023,22.467-17.417,29.838-29.84c4.134-6.968,7.597-14.297,13.96-19.596
		c6.435-5.358,14.937-6.128,22.015-10.294c5.168-3.041,9.452-7.488,12.187-12.831c3.727-7.281-0.796-14.895-2.823-22.19
		c-5.359-19.291-8.393-39.134-9.251-59.13c-0.028-0.644-3.51-5.864-4.361-4.378c-7.538,13.166-13.801,26.202-18.089,40.79
		c-4.215,14.342-8.39,30.13-20.17,40.305c-5.219,4.507-11.843,7.523-18.77,7.898c-7.46,0.404-13.732-2.837-19.333-7.497
		c-10.904-9.075-19.31-21.207-24.299-34.464c-5.745-15.264-5.801-30.919-3.344-46.866c2.469-16.028,6.203-30.811,16.075-43.971
		c8.949-11.929,20.644-22.269,33.73-29.443c13.751-7.539,29.004-11.614,43.481-17.454c12.924-5.213,25.653-12.142,34.729-22.976
		c4.251-5.074,6.837-10.557,9.224-16.654c3.62-9.247,14.369-7.693,17.803-0.207c-0.676,0.288-1.176,2.414-0.809,3.466
		c2.607,7.484-2.769,18.575-6.577,24.897c-3.697,6.137-8.61,11.426-14.253,15.818c-9.648,7.51-21.042,12.409-32.455,16.56
		c-21.907,7.969-46.277,13.652-63.162,30.87c-8.895,9.071-13.438,20.502-16.875,32.528c-3.66,12.806-7.239,26.446-4.891,39.836
		c1.954,11.144,7.763,20.646,17.901,25.983c4.707,2.478,11.55,6.132,17.069,5.482c5.195-0.611,9.539-5.247,12.656-9.113
		c8.381-10.398,11.43-23.861,16.338-36.003c5.874-14.531,15.255-27.161,27.358-37.084c0.009,0.015,0.016,0.032,0.025,0.046
		c0.77,1.218,4.659,0.296,4.128-0.165c0.715-0.107,1.401-0.386,2.056-0.859c1.056-0.521,2.106-1.053,3.151-1.595
		c2.089-1.083,4.156-2.209,6.205-3.366c4.102-2.315,8.126-4.764,12.107-7.281c7.98-5.045,15.77-10.381,23.666-15.555
		c16.481-10.799,33.38-19.498,51.734-26.7c9.655-3.789,19.316-7.559,28.975-11.339c7.466-2.922,15.015-7.013,23.185-7.036
		c11.616-0.032,26.927,5.822,37.239-1.795c1.262-0.932-2.015-3.196-3.134-2.37c-10.862,8.023-27.559,0.347-39.895,1.69
		c-8.632,0.94-17.345,5.888-25.367,9.027c-9.646,3.775-19.312,7.5-28.932,11.341c-17.765,7.092-33.963,16.227-49.896,26.76
		c-7.873,5.205-15.678,10.518-23.706,15.483c-4.004,2.476-8.059,4.871-12.198,7.116c-2.231,1.21-8.747,0.991-9.461,1.568
		c-9.754,7.866-17.919,17.419-23.951,28.421c-5.559,10.139-8.476,21.297-12.977,31.886c-2.263,5.323-4.983,10.512-8.802,14.897
		c-1.865,2.14-4.046,4.364-6.55,5.779c-4.573,2.583-8.555,1.251-13.138-0.523c-5.862-2.269-11.746-4.954-16.076-9.665
		c-5.058-5.503-7.616-12.935-8.177-20.3c-0.597-7.837,0.971-15.688,2.864-23.252c1.836-7.338,3.814-14.746,6.731-21.739
		c4.952-11.869,13.396-20.964,24.191-27.81c20.295-12.874,44.507-16.812,65.999-27.073c11.525-5.502,22.353-12.957,29.7-23.591
		c5.094-7.374,10.62-18.866,10.023-28.769c0.631,0.284,1.306-0.533,1.175-2.45c-0.365-5.356-2.136-11.266-6.959-14.289
		c-5.03-3.153-11.572-1.647-14.446,3.522c-1.66,2.985-2.397,6.44-3.931,9.503c-1.794,3.581-4.084,6.913-6.727,9.92
		c-4.918,5.595-10.95,10.156-17.342,13.937c-14.595,8.635-31.19,12.838-46.783,19.221c-15.665,6.412-29.343,15.747-40.766,28.275
		c-10.837,11.885-17.782,25.301-21.033,41.056c-3.267,15.838-5.591,32.32-3.023,48.426c2.29,14.362,8.129,28.193,16.878,39.814
		c8.314,11.043,20.434,23.539,35.504,21.446c17.001-2.361,27.093-17.699,32.653-32.543c3.495-9.331,5.66-19.093,8.989-28.479
		c3.113-8.778,7.524-16.959,12.109-25.036c0.885,17.327,3.383,34.528,7.658,51.352c1.094,4.307,2.299,8.584,3.615,12.828
		c1.493,4.817,3.388,8.732,1.03,13.604c-4.369,9.027-12.123,12.479-21.079,15.665c-6.264,2.228-11.673,5.496-16.202,10.411
		c-5.503,5.97-8.582,13.453-13.046,20.136c-4.434,6.637-9.902,12.524-16.017,17.64c-3.198,2.675-6.582,5.052-10.032,7.388
		c-2.128,1.441-4.37,2.807-5.377,5.289c-2.734,6.741,5.125,15.101,9.402,19.547c2.283,2.373,4.758,4.504,7.383,6.424
		c-0.688,1.066-1.019,3.755-0.121,4.512c6.45,5.445,15.301,5.282,22.351,9.558c7.332,4.447,11.866,12.072,15.131,19.805
		c-0.611-0.262-1.193-0.579-1.726-0.977c-2.093-1.56-0.343,3.029,0.713,3.816c6.976,5.2,30.694,1.447,24.841-10.543
		C140.727,473.166,137.762,471.951,139.285,475.072z"/>
	<path stroke="#000000" stroke-width="2" stroke-miterlimit="10" d="M253.921,329.4c3.107-0.091-0.856-3.61-2.576-3.56
		c-8.985,0.263-17.95-0.166-26.846-1.485c-4.017-0.595-8.256-1.153-12.146-2.383c-5.692-1.8-6.898-6.657-8.078-11.756
		c-0.379-1.638-5.463-3.594-4.897-1.151c0.123,0.531,0.257,1.043,0.396,1.547c-0.63-0.018-1.085,0.113-1.096,0.448
		c-0.465,13.734-1.719,27.424-3.879,40.997c-1.893,11.897-3.929,23.534-16.009,28.976c-9.598,4.323-20.039,5.528-29.363,10.719
		c-10.825,6.025-20.502,14.214-30.379,21.638c-1.14,0.857,3.517,3.244,4.809,2.273c9.875-7.423,19.555-15.613,30.379-21.638
		c9.851-5.484,21.246-6.359,31.124-11.555c10.656-5.605,12.687-16.699,14.463-27.645c1.94-11.956,3.173-24.003,3.784-36.093
		c2.748,3.566,6.681,5.85,12.284,7.154C228.312,328.779,241.195,329.773,253.921,329.4z"/>
	<path stroke="#000000" stroke-width="2" stroke-miterlimit="10" d="M287.628,411.748c1.779,0.325,5.938-3.668,3.334-4.144
		c-18.232-3.334-37.447-5.833-53.742,4.552c-0.695-0.927-1.538-1.542-2.102-1.148c-1.926,1.348-3.955,2.33-6.354,2.499
		c-0.853,0.06-2.083,0.142-2.901-0.145c-0.21,0.191-0.421,0.381-0.631,0.572c0.047-0.574,0.094-1.147,0.141-1.721
		c-0.006-4.76,1.198-9.859,2.185-14.503c2.065-9.717,5.345-19.169,9.701-28.097c2.019-4.137,4.27-8.164,6.743-12.047
		c2.373-3.727,5.503-7.258,7.084-11.425c2.257-5.951-0.383-12.261-5.366-15.861c-2.501-1.807-0.789,3.518,0.512,4.458
		c1.981,1.431,2.215,4.782,1.488,6.85c-0.36,1.024-0.907,2.009-1.442,2.948c-1.251,2.195-2.824,4.21-4.225,6.309
		c-2.716,4.069-5.185,8.302-7.392,12.668c-4.218,8.347-7.463,17.172-9.727,26.244c-1.115,4.467-1.977,8.998-2.584,13.562
		c-0.453,3.406-1.409,7.337-0.119,10.648c2.534,6.507,11.023,5.437,15.781,2.107c0.352-0.246,0.45-0.71,0.386-1.257
		C253.001,405.413,271.534,408.805,287.628,411.748z"/>
	<path stroke="#000000" stroke-width="2" stroke-miterlimit="10" d="M517.165,418.412c-0.343-8.05-5.146-13.827-12.956-15.422
		c-12.164-2.483-24.132-4.981-34.454-12.353c-19.757-14.111-27.483-38.942-37.143-60.028c-5.165-11.274-11.847-21.856-16.436-33.39
		c-4.314-10.844-8.559-21.729-12.818-32.596c-9.578-24.437-16.722-49.787-10.345-75.997c0.401-1.649-4.085-4.159-4.573-2.154
		c-5.42,22.275-1.289,44.393,6.245,65.646c3.705,10.45,8.054,20.655,12.126,30.963c4.071,10.306,8.017,20.332,13.194,30.157
		c10.728,20.362,17.688,43.294,31.139,62.106c12.202,17.065,29.353,26.293,49.719,30.232c4.465,0.864,8.859,0.827,10.759,5.901
		c0.884,2.363,1.139,4.936,0.907,7.439c-0.519,5.612-3.563,10.84-8.475,13.69c-8.802,5.109-19.803,2.931-29.649,4.861
		c-8.431-3.987-17.928-8.182-24.834-14.405c-7.308-6.586-8.038-17.315-11.382-26.049c-6.194-16.178-16.905-27.81-28.847-39.932
		c-6.292-6.386-11.75-13.45-17.216-20.536c-6.039-7.828-12.452-15.499-17.96-23.717c-10.886-16.242-12.938-35.374-14.564-54.378
		c-0.072-0.842-1.44-1.766-2.481-2.061l0.848-0.401c-0.446,0.097-0.889,0.205-1.333,0.311c-0.245-0.017-0.448,0.018-0.566,0.132
		c-9.741,2.397-18.983,6.802-26.982,12.856c-0.095-0.117-0.18-0.239-0.276-0.355c-0.919-1.104-6.095-1.133-4.745,0.49
		c5.266,6.328,8.299,13.888,11.259,21.477c3.316,8.504,6.609,17.017,9.914,25.526s6.594,17.023,9.914,25.526
		c2.832,7.252,5.838,14.228,11.129,20.06c9.231,10.176,22.439,15.663,35.087,20.235c5.212,1.884,7.666,5.628,10.937,9.825
		c1.127,1.446,2.84,3.016,3.587,4.693c1.051,2.357,0.219,4.463-0.284,6.808c-0.475,2.214-0.951,4.427-1.426,6.641
		c-0.59,2.747-0.552,4.486-2.821,6.031c-3.51,2.389-8.975,3.375-13.292,2.073c0.669-0.366,1.031-0.842,0.623-1.282
		c-3.358-3.612-6.775-7.28-10.951-9.966c-4.666-3.001-10.141-4.452-15.134-6.799c-10.206-4.797-19.405-11.623-26.976-19.978
		c-14.276-15.756-19.982-37.504-35.592-52.16c-0.712-0.669-2.684-0.335-3.8,0.266c-0.431-0.885-0.88-1.749-1.321-2.585
		c-1.176-2.227-2.97-1.327-1.78,0.926c2.108,3.992,4.494,8.775,1.873,13.151c-1.544,2.578-4.589,4.35-6.923,6.151
		c-4.675,3.608-9.263,7.334-13.578,11.37c-3.944,3.689-7.677,7.621-10.941,11.931c-2.445,3.229-5.878,7.324-4.851,11.708
		c2.199,9.387,14.088,4.931,19.63,1.994c5.352-2.836,11.229-6.812,17.617-5.782c7.133,1.15,11.857,10.481,15.864,15.818
		c0.081,0.107,0.156,0.194,0.232,0.28c-0.189,2.173-1.11,4.629-1.646,6.267c-1.435,4.38-4.309,5.02-8.354,6.833
		c-6.854,3.071-20.302,11.88-27.597,6.954c-1.129-0.762-6.186-0.886-3.951,0.623c10.898,7.357,22.665,0.377,33.129-4.312
		c4.92-2.205,10.189-3.295,11.852-8.871c1.19-3.991,3.708-9.369-1.264-11.278c-0.832-0.319-1.797-0.321-2.473-0.131
		c-5.417-7.617-11.275-17.605-21.839-15.945c-5.495,0.864-10.087,4.097-14.952,6.536c-2.928,1.468-6.126,2.863-9.46,2.878
		c-5.952,0.028-3.765-4.224-1.545-7.48c7.238-10.618,17.317-18.904,27.419-26.662c3.325-2.553,6.805-4.962,7.403-9.43
		c0.351-2.62-0.21-5.226-1.141-7.72c14.109,14.582,19.933,35.103,33.573,50.159c6.829,7.538,15.01,13.888,24.003,18.639
		c4.868,2.572,10.077,4.236,15.036,6.58c3.822,1.807,6.994,4.416,9.948,7.307c-1.34-0.007-2.498,0.294-2.109,0.795
		c3.001,3.87,7.354,5.7,12.196,6.073c4.817,0.371,12.763-0.648,16.673-3.654c2.189-1.683,2.207-5.014,2.752-7.551
		c0.721-3.355,2.742-8.159,1.996-11.627c-0.628-2.917-4.019-5.949-5.828-8.271c-1.887-2.422-3.684-5.276-6.278-7.004
		c-5.425-3.614-12.768-4.964-18.692-7.725c-6.673-3.109-13.087-6.965-18.332-12.186c-5.747-5.721-8.981-12.836-11.893-20.281
		c-3.195-8.168-6.352-16.351-9.527-24.526c-3.641-9.373-7.266-18.752-10.922-28.119c-2.878-7.371-5.975-14.492-10.951-20.685
		l26.677-12.609c1.237,14.462,2.518,29.328,8.118,42.877c5.722,13.845,16.293,25.39,25.346,37.126
		c4.699,6.092,9.365,12.231,14.627,17.855c5.439,5.814,11.496,11.033,16.575,17.185c5.384,6.52,9.807,13.864,13.056,21.669
		c2.813,6.757,3.999,14.076,6.9,20.77c5.179,11.95,18.913,18.416,30.622,23.866c-0.381,0.119-0.766,0.225-1.142,0.362
		c-1.642,0.596,2.114,3.939,3.807,3.325c9.667-3.506,20.263-0.993,29.957-4.265C512.129,434.907,517.54,427.23,517.165,418.412z"/>
</g>
<path d="M426.375,104.012c-4.271-2.48-9.718-0.969-13.932,1.804c-2.122-6.066-7.758-10.082-13.984-12.939
	c-9.131-4.19-17.773-6.917-27.892-5.332c-16.982,2.661-33.954,10.3-43.631,24.733c-3.022-3.339-7.288-5.531-11.92-5.288
	c-2.867,0.151-8.407,1.126-9.48,4.289c-1.037,3.055,1.812,6.773,3.654,8.832c2.954,3.302,5.849,5.705,7.97,9.735
	c2.762,5.249,4.578,10.032,4.643,16.034c0.038,3.545-0.18,6.844,2.505,9.542c0.681,0.685,1.468,1.304,2.317,1.795
	c0.608,10.826,2.211,22.505,12.217,28.716c10.99,6.821,24.996,8.634,37.675,7.917c12.684-0.718,24.006-5.604,33.688-13.917
	c7.592-6.518,11.751-15.931,10.494-25.747c1.721-2.179,2.864-4.961,3.581-8.398c0.792-3.795,0.854-7.717,1.968-11.449
	c1.222-4.092,3.798-7.583,4.812-11.761C432.388,117.105,432.109,107.341,426.375,104.012z M422.698,124.703
	c-1.81,4.301-2.657,8.811-3.281,13.413c-0.663,4.894-1.794,7.687-5.963,9.124c-0.014-0.014-0.026-0.031-0.04-0.044
	c-1.904-1.802-3.398-0.029-4.104,1.971c-0.172,0.486-0.343,0.971-0.515,1.457c-0.483,1.368-1.188,9.753,2.172,9.055
	c2.755-0.573,5.005-1.5,6.849-2.789c0.956,9.807-10.456,17.439-17.808,21.722c-4.399,2.563-8.746,5.146-13.813,6.105
	c-4.856,0.919-9.898,1.249-14.834,1.237c-9.824-0.024-19.86-1.747-28.714-6.138c-9.417-4.67-11.986-12.208-12.863-21.518
	c0.947,0.101,1.91-0.005,2.848-0.387c2.055-0.837-0.247-3.889-2.934-5.519c0.529-0.316,0.695-1.036,0.45-2.211
	c0.023-1.164,0.005-2.328-0.054-3.491c-0.123-2.031-0.431-4.008-1.034-5.955c-1.132-3.657-2.919-7.153-4.744-10.502
	c-1.662-3.049-3.525-5.817-6-8.262c-0.943-0.931-3.863-2.776-4.11-4.115c-0.613-3.329,6.782-5.852,7.939-2.843
	c0.367,0.954,0.989,1.856,1.758,2.617c-0.554,1.669,0.377,1.841,1.718,1.294c0.457,0.252,0.932,0.459,1.422,0.595
	c1.164,0.322,4.164,0.496,3.317-1.708c-0.222-0.577-0.487-1.14-0.771-1.693c0.397-0.419,0.722-0.835,0.923-1.216
	c3.554-6.725,8.74-10.999,15.804-13.742c7.619-2.959,15.929-5.983,24.179-6.241c7.881-0.246,15.294,2.74,22.279,6.115
	c6.403,3.094,13.344,8.156,12.984,16.123c-0.033,0.726,0.225,1.08,0.66,1.163c0.49,1.574,2.193,4.272,3.877,2.122
	c2.682-3.426,6.581-5.673,11.049-5.5C428.461,115.217,424.331,120.823,422.698,124.703z"/>
<path d="M348.347,168.726c5.056,8.497,18.545,9.135,27.316,8.372c9.698-0.844,17.604-4.005,23.453-11.954
	c1.28-1.74-3.443-1.687-4.352-0.451c-5.049,6.862-11.531,9.571-19.991,10.027c-7.346,0.395-17.756-0.456-21.918-7.449
	C352.057,165.927,347.386,167.111,348.347,168.726L348.347,168.726z"/>
<g>
	<path d="M348.654,127.002c0.161-0.406-0.169-0.718-1.389-0.586c-0.282,0.031-0.558,0.066-0.834,0.103
		c-0.631-0.091-1.247-0.144-1.831-0.145c-0.987-0.001-1.933,0.541-2.166,1.041c-3.193,1.139-5.328,3.339-5.212,7.794
		c0.163,6.237,5.148,9.057,11.005,8.912c4.427-0.11,10.7-2.953,9.876-8.402C357.446,131.374,353.006,128.265,348.654,127.002z
		 M348.442,142.227c-3.487-0.095-6.246-2.07-6.98-5.439c-0.845-3.878-0.102-7.434,4.047-8.346c2.987,0.679,5.764,3.011,7.445,5.422
		C355.431,137.418,353.429,142.362,348.442,142.227z"/>
	<path d="M404.978,135.719c-0.657-4.345-5.097-7.455-9.449-8.718c0.161-0.406-0.169-0.718-1.389-0.586
		c-0.282,0.031-0.558,0.066-0.834,0.103c-0.631-0.091-1.247-0.144-1.831-0.145c-0.987-0.001-1.933,0.541-2.166,1.041
		c-3.193,1.139-5.328,3.339-5.212,7.794c0.163,6.237,5.148,9.057,11.005,8.912C399.529,144.012,405.802,141.168,404.978,135.719z
		 M395.317,142.227c-3.487-0.095-6.246-2.07-6.98-5.439c-0.845-3.878-0.102-7.434,4.047-8.346c2.987,0.679,5.764,3.011,7.445,5.422
		C402.306,137.418,400.304,142.362,395.317,142.227z"/>
</g>
<g>
	<path d="M348.512,133.938c-2.699,0.558-5.144,2.568-6.294,5.09c-1.593,3.494,2.46,4.316,5.106,4.3
		c0.294-0.002,0.663-0.18,1.039-0.449c0.895,0.18,1.804,0.195,2.392,0.048c0.404-0.101,0.847-0.282,1.298-0.522
		c0.066-0.028,0.131-0.045,0.197-0.078c0.472-0.233,0.894-0.535,1.25-0.878c1.589-1.269,2.919-3.112,2.686-4.797
		C355.703,133.181,351.01,133.421,348.512,133.938z"/>
	<path d="M402.434,136.652c-0.481-3.47-5.174-3.231-7.673-2.714c-2.699,0.558-5.144,2.568-6.294,5.09
		c-1.593,3.494,2.46,4.316,5.106,4.3c0.294-0.002,0.663-0.18,1.039-0.449c0.895,0.18,1.804,0.195,2.392,0.048
		c0.404-0.101,0.847-0.282,1.298-0.522c0.066-0.028,0.131-0.045,0.197-0.078c0.472-0.233,0.894-0.535,1.25-0.878
		C401.337,140.18,402.668,138.337,402.434,136.652z"/>
</g>
</svg>
