<?xml version="1.0" encoding="utf-8"?>
<!-- Generator: Adobe Illustrator 23.0.1, SVG Export Plug-In . SVG Version: 6.00 Build 0)  -->
<svg version="1.1" id="Layer_3" xmlns="http://www.w3.org/2000/svg" xmlns:xlink="http://www.w3.org/1999/xlink" x="0px" y="0px"
	 viewBox="0 0 566.9 566.9" style="enable-background:new 0 0 566.9 566.9;" xml:space="preserve">
<style type="text/css">
	.st0{fill:#FFFFFF;}
</style>
<g>
	<path d="M546.6,361.5c-3.1-4.7-7.8-11.7-12.8-14.4c-5.3-2.8-11.5-4.2-17-6.7c-11.5-5.1-22.7-12.1-29.6-22.8
		c-3.9-6.1-6.3-13.1-8.9-19.8c-2.9-7.5-5.8-14.9-8.7-22.4c-5.5-14.1-10.3-28.8-16.9-42.5c-1.1-2.3-2.3-4.6-3.7-6.8
		c-0.9-1.5-3.5-3.8-4.1-5.2c-0.4-0.9-0.1-2.4-0.2-3.4c-0.4-5.4-1.3-10.7-2.7-15.9c-3.6-13.8-10.7-26.8-22.7-34
		c6.1-2.6,11.8-6.2,17-10.7c7.7-6.6,12.2-15.7,12.6-25.4c0.7-0.1,1.4-0.4,2.1-1.2c6.2-5.8,6.7-14.4,8-22.2
		c1.5-8.6,6.9-15.2,7.2-24.2c0.2-7-2.1-17.7-10.3-19.2c-5.6-1.1-11.3,1.1-15.6,4.7c-2.6-6.4-8.5-10.7-15.4-13.9
		c-10.4-4.8-20.2-7.9-31.8-6c-20.4,3.2-40.6,12.9-52,30.5c-3.3-4.2-8.1-7.3-13.5-8.3c-6.2-1.1-17.4,1.2-15,9.6c1,3.5,3.7,6.5,6.2,9
		c3,2.9,5.1,5.4,7.1,9.2c2.4,4.6,4.4,9,4.5,14.2c0.1,4.2-0.2,7.7,1.5,11.6c1.2,2.8,6.5,5.8,10,6.2c0.1,1.3,0.2,2.5,0.3,3.8
		c-1.3-0.2-2.4-0.1-3.2,0.5c-6,4.4-13.8,3.5-20.8,2.8c-7.6-0.8-15.3-2.1-23-1.2c-9.7,1.1-19.3,6.6-28.3,10.1
		c-10.8,4.2-21.6,8.4-32.3,12.7c-20.1,8-38.4,18.3-56.4,30.2c-8.8,5.8-17.5,11.7-26.5,17.3c-4.5,2.8-9,5.4-13.6,7.9
		c-3.1,1.7-8.2,3.1-10.5,6c-10,8.5-18.4,18.6-24.7,30.1c-6.4,11.6-9.8,24.3-15,36.5c-2.4,5.7-5.3,11.1-9.4,15.8
		c-1.9,2.2-4.2,4.5-6.8,5.9c-4.7,2.6-8.7,1.2-13.4-0.6c-13.2-5.1-23.8-13.4-25.2-28.4c-0.7-7.8,1.1-15.8,3-23.3
		c2-7.8,4.1-15.7,7.2-23.2c5.3-12.7,14.5-22.3,26-29.7c22.7-14.4,49.7-18.8,73.7-30.2c13.1-6.3,25.4-14.8,33.7-26.9
		c5.7-8.3,11-19.8,12.1-31c1.6-2.1,1.5-7.1,1.4-8.6c-0.5-7.8-2.7-17.3-9.9-21.8c-6.4-4-14.4-1.8-17.9,4.7c-1.9,3.4-2.7,7.2-4.4,10.6
		c-1.9,3.7-4.2,7.3-7,10.4c-5.5,6.3-12.2,11.4-19.4,15.6c-16.1,9.5-34.4,14.2-51.6,21.2C62.5,155.6,47,166,34.1,180.2
		c-12.9,14.2-20.9,30-24.8,48.8c-4,19.3-6.5,39.3-3.3,58.9c2.8,17.3,9.6,34.1,20.2,48.1c9.5,12.7,23.6,27.1,40.9,24.7
		c19.9-2.8,31.6-20.9,38.1-38.3c3.9-10.4,6.3-21.3,10-31.8c2-5.7,4.6-11.1,7.3-16.5c1.5,13.1,3.8,26.1,7.1,38.9
		c1.2,4.8,2.6,9.6,4,14.3c1.6,5.2,3.7,9.3,1.2,14.5c-4.1,8.2-10.4,11.2-18.6,14c-8.7,3.1-16.4,7.5-22.7,14.3
		c-6.2,6.7-9.6,15-14.6,22.5c-4.8,7.1-10.6,13.5-17.1,19c-3.2,2.7-6.6,5.2-10.2,7.5c-3.2,2.1-6.8,4.4-8.2,8.1
		c-3.1,8.2,5.7,17.6,10.9,23.1c3.2,3.3,6.7,6.2,10.5,8.7c-0.1,2.8,0.4,5.3,1.8,6.5c7.2,6.1,17.1,5.9,25,10.7
		c4.8,2.9,8.5,7.1,11.4,11.8c-0.2,0.6-0.3,1.4-0.2,2.3c0.5,3.8,3.5,7.9,6.5,10.2c5.9,4.4,15,4.4,21.7,1.9c6.5-2.5,10.1-6.7,9.6-12.3
		c0.6-0.2,1-0.8,1.2-2c2.6-13.7-0.9-27.8-7.8-39.8c-3.3-5.8-7.5-11.3-12.7-15.7c-2.2-1.9-4.6-3.7-7.2-5.1c-0.2-0.1-0.4-0.2-0.6-0.4
		c-0.1-2.3-1.2-5.4-2.8-8c3.9,1.9,8.8,3,10.9,1.4c11-8.3,21.8-17.4,33.9-24.2c11-6.1,23.7-7.1,34.8-12.9c12.1-6.4,14.6-19,16.6-31.4
		c1.8-11.3,3.1-22.7,3.9-34.1c3,1.5,6.2,2.7,9.8,3.5c9.5,2.2,19.2,3.5,29,4c0.9,1.9,2.3,3.7,3.7,4.6c1.7,1.2-13.8,24.5-15.1,27.1
		c-4.8,9.5-8.4,19.5-11,29.8c-1.2,5-2.2,10.1-2.9,15.1c-0.6,4.6-1.5,9.4,0.3,13.9c3.6,8.8,13.3,10.6,20.8,5.3c0.9-0.7,1.1-2,0.8-3.5
		c12.3-7.3,27.8-5.9,41.9-3.5c-0.4,0.6-0.2,1.4,1,2.3c13.9,9.4,28,2.1,41.5-4c5.7-2.6,11.8-3.9,13.8-10.4c1.8-6.1,3.9-11.5-3.2-14.2
		c-0.7-0.3-2.1-0.7-3.6-0.9c-6.3-8.8-13.3-20.2-25.4-18.3c-6.3,1-11.5,4.6-17,7.4c-3.2,1.6-6.6,3.1-10.3,3.2c-0.7,0.1-1.4,0-2-0.1
		c0.7-1.5,1.4-2.8,2.4-4.2c8-11.8,19.2-21,30.4-29.6c3.8-2.9,7.5-5.6,8.5-10.5c10.8,15,17.4,33.1,30,46.9
		c7.8,8.6,17.2,15.9,27.5,21.3c5.4,2.9,11.3,4.7,16.8,7.3c2.7,1.3,5.1,3,7.4,4.8c-0.6,0.5-0.8,1.1-0.1,1.9
		c4.8,6.2,12.2,8.8,19.9,9.4c6.9,0.5,18.2-0.5,23.8-5.2c2.6-2.1,2.7-5.9,3.4-9.1c0.8-3.9,3-9.3,2.2-13.3c-0.8-3.5-4.4-6.8-6.6-9.6
		c-2.5-3.3-4.9-6.8-8.4-9.1c-6.4-4.1-14.6-5.7-21.5-8.9c-7-3.2-13.6-7.3-19-12.7c-6.2-6.2-9.6-14-12.8-22
		c-3.6-9.1-7.1-18.3-10.6-27.4c-4.1-10.5-8.1-20.9-12.2-31.4c-3.1-8-6.5-15.5-11.6-22.3c6.4-4.7,13.3-8.5,20.7-11.1
		c0.4,0.2,0.9,0.3,1.1,0.4c3.3,0.8,7.2,0.4,10.2-1.1c2.6-1.3,5.3-2.8,8-4.4c8,14.6,16.1,29.3,24.1,43.9c1.3,2.4,2.5,5.1,4,7.4
		c1.2,1.7,3,3.1,4.5,4.7c3.3,3.6,6.1,7.6,8.8,11.8c10.1,16,17.3,33.3,31.2,46.8c7.5,7.2,16.1,13.3,25.5,17.8c5,2.4,10.4,4,15.3,6.6
		c3,1.6,5.6,3.7,8.1,6c-1,1.1-1.8,2.5-1.1,3.3c6.4,8.3,21.1,6.7,28.9,1.2c3.8-2.6,4-7.4,4.8-11.5
		C547.5,371.9,549.9,366.5,546.6,361.5z M120.8,253.2c-6.3,12-11.7,24.1-15.5,37.3c-4.5,15.4-8.9,32.4-21.6,43.4
		c-5.7,4.9-12.8,8.2-20.3,8.6c-8.1,0.4-14.8-3.1-20.9-8.2c-11.6-9.7-20.8-22.8-26-37c-5.4-14.7-5.3-29.5-2.9-44.9
		c2.7-17.2,6.6-32.7,17.2-46.8c9.8-13.1,22.8-24.4,37.1-32.2c15.2-8.3,32-12.8,47.9-19.2c14.7-5.9,29-13.6,39.4-25.9
		c5.2-6.2,8.3-12.8,11.3-20.3c1.6-3.9,4.8-5.9,9.1-5.4c1.5,0.2,3.6,1,5.2,2.2c0,2,0.3,4,0.7,5.3c0.9,2.7-1,7.3-1.8,9.9
		c-1.2,3.7-2.9,7.3-4.9,10.7c-4,6.6-9.3,12.4-15.4,17.1c-10.8,8.4-23.5,13.9-36.3,18.5c-24.8,9-52,15.5-71.1,35
		c-10.4,10.7-15.6,24.2-19.6,38.3c-4.5,15.7-8.4,32.2-5.6,48.6c2.4,13.7,9.2,26,21.8,32.7c5.4,2.8,13.4,7.1,19.7,6.3
		c6.3-0.8,11.5-6.2,15.3-10.9c9.6-11.9,13.1-27.2,18.7-41.1c4.8-11.9,11.8-22.5,20.5-31.7C121.9,246.5,121.1,249.8,120.8,253.2z
		 M337.9,99.6c-2.1-3.8-4.4-7.2-7.5-10.2c-0.6-0.6-3.8-2.8-3.8-3.6c0.4-1.4,1.3-2.2,2.8-2.3c1.4,0.1,2.2,0,2.4-0.4
		c1.3,2.2,3.4,4.1,5.7,5.2c0.2,0.7,0.9,1.2,2.3,1.2c0.3,0,0.7-0.1,1-0.2c2.1,0.2,4.7-0.3,4.1-2.7c1.7-1.6,3.2-3.6,3.9-4.9
		c3.5-6.6,8.2-10.2,15.1-12.9c8.2-3.2,17.3-6.5,26.1-6.8c8.7-0.3,16.9,3,24.6,6.7c6.8,3.3,14.8,8.8,14.4,17.3
		c7.2,2.3,6.7,2.6,7.6,3.7c0.6,0.3,1,0.7,1.3,1.2c1.1,0.7,2.3,0.7,3.5-0.9c2.7-3.4,6.3-5.6,10.7-5.7c1.2-0.1,2.4,0.1,3.6,0.4
		c-0.6,1.2-1.2,2.5-1.3,2.7c-2.2,4.8-3.7,9.7-4.6,14.9c-0.6,3.7-0.1,7.8-3,10.5c-1.2,1.2-2,3.4-2.2,6c0,0-0.1,0-0.1,0.1
		c-1.8,1.8-1.5,7-0.9,9.2c2.4,9.9-12,18.8-19.1,22.9c-4.8,2.8-9.6,5.7-15.2,6.7c-5.4,1-11.1,1.4-16.6,1.4c-10.9,0-22-1.9-31.9-6.8
		c-5.2-2.6-8.5-5.9-10.5-9.9c0.6-1.2-0.2-2.8-1.7-4.2c-1.1-3.8-1.6-8-1.9-12.6c-0.1-1.5-0.6-4.6-2.4-4.8c0.1-0.8,0.1-1.6,0.1-2.2
		c-0.1-2.4-0.5-4.8-1.2-7.1C342.1,107.6,340,103.5,337.9,99.6z M317.4,331.6c-1.7,2.8-5,4.7-7.5,6.7c-5.2,4-10.3,8.2-15.2,12.7
		c-4.5,4.2-8.7,8.6-12.4,13.5c-3.1,4.1-6.8,8.9-5.5,14.4c3,12.5,16,9.4,24.4,4.9c5.9-3.1,12.4-7.6,19.4-6.4
		c5.5,0.9,9.6,6.8,13.1,11.9c0.1,0.3,0.3,0.7,0.6,0.9c0.2,0.3,0.4,0.7,0.7,1c0.2,2.6-1.2,6.1-1.8,8.3c-1.5,4.6-4.5,5.2-8.8,7.1
		c-3.8,1.7-7.6,3.4-11.4,5.1c-3.2,1.4-9.5,5.1-13.6,4.1c4.4-1.4,10.5-8.1,5.5-9c-21.1-3.9-42.7-6.1-61.6,5.3c-1.5-1.8-3.1-2.8-4.3-2
		c-1.7,1.2-4.5,2.6-7.1,2.9c1.4-17,7.7-34.3,15.6-48.9c2.1-4,4.5-7.8,7-11.5c2.6-3.8,5.6-7.5,6.6-12.1c1-5.1-0.6-10.3-3.5-14.6
		c2.3,0,4.6,0,6.9-0.1c0.3,0,0.5,0,0.8-0.1c0.3,0,0.6,0,0.9,0c10.7-1.1,21.2-3.7,31.9-5.3c5-0.8,10.1-1.5,15.2-1.2
		c0.7,0,1.5,0.1,2.3,0.1c0,0,0,0.1,0,0.1c0.1,0.2,0.2,0.4,0.3,0.6c-1.9,1.2-2.8,2.6-1.5,3.8c1.4,1.3,2.8,2.7,4,4.1
		C318.4,329.1,318.1,330.3,317.4,331.6z M541.9,380.2c-1,4.8-0.3,5.3-5,6.8c-4.8,1.5-9.9,2.2-14.4,0.7c0.1-0.5,0.1-1-0.2-1.3
		c-6.7-7.2-13.2-12.2-22.4-15.9c-9.2-3.6-17.7-8.4-25.5-14.5c-16-12.7-24.6-29.6-34.6-46.9c-4.5-7.8-9.7-14.4-15.6-21.1
		c-1.6-1.9-2.6-3.9-3.9-6.1c-5.2-9.4-10.3-18.8-15.5-28.2c-3-5.5-6-11-9.1-16.5c10.5-6.8,20.5-15.8,25.1-26.6
		c1.7-4-12.9-5.1-14.5-1.3c-5,11.6-16.1,20.8-27.3,27.5c-2,0-4.1,0.2-5.3,0.5c-11.4,2.6-22.2,7.2-31.8,13.7c-5.2-0.3-10.2,1-7.5,4.2
		c5.7,6.8,8.9,15.2,12.1,23.3c3.7,9.5,7.4,19,11.1,28.5c3.7,9.5,7.4,19,11.1,28.5c3.3,8.4,6.8,16.3,13,23.1
		c10.8,11.9,26.4,18.4,41.2,23.8c4.6,1.7,6.8,5.4,9.7,9.2c1.2,1.6,3.3,3.4,4,5.2c0.9,2.4,0.1,4.5-0.4,6.9c-0.7,3.3-1,11.2-3.6,13.1
		c-1.1,0.8-2.7,1.1-4.2,1.4c-0.1-0.1-0.2-0.2-0.3-0.3c-3.9-4.2-8-8.5-12.9-11.6c-5.2-3.3-11.3-5-16.9-7.6
		c-11.2-5.3-21.2-12.7-29.5-21.8c-14-15.5-20.7-36.1-33.9-52c-13.8-29.1-55-13.8-80.4-11.1c-9.4,0.2-18.8-0.2-28.2-1.6
		c-2.5-0.4-5.1-0.8-7.6-1.3c-1.2-0.2-4-0.4-5.1-1.1c0.3,0-0.4-1.6-0.4-1.8c-0.3-2.1-1.3-4.3-1.8-6.5c-1.3-5.5-18.3-12-16.4-3.9
		c0,0.1,0,0.2,0.1,0.3c-0.7,0.2-1.1,0.6-1.2,1.2c-0.5,15.3-1.9,30.6-4.3,45.8c-2,12.8-4,25.8-17.1,31.7
		c-10.8,4.9-22.6,6.3-33.2,12.1c-12.1,6.7-22.9,15.9-33.9,24.2c-0.2,0.2-0.4,0.4-0.5,0.5c-0.9-0.2-1.6,0-2.3,0.7
		c-4.5,5.1-1,14.1,2.1,19c3.9,6.2,9.4,8.4,15.1,12.3c10,6.9,13.2,17.8,11,29.4c-0.1,0.7-0.2,1.5-0.1,2.2c-1.8,0.5-1.6,2.8-1,4.7
		c-1.2,3.6-7.3,6.2-10.4,6.7c-1.3,0.2-2.8,0.5-4.4,0.6c-0.1-0.7-0.3-1.4-0.5-2c-3.8-9.4-8.7-18.9-16.9-25.2
		c-1.5-1.2-3.2-2.1-4.9-2.9c-0.2-0.5-0.7-1-1.6-1.3c-7.6-3.2-14.5-7.9-20.3-13.8c-4.2-4.3-15.3-15.8-8.7-21.5
		c6.5-5.6,13.9-9.7,20-15.8c5.8-5.7,10.9-12,15.1-19c4.4-7.4,8.1-15.5,14.8-21.1c6.6-5.5,16.1-6.4,23.5-10.8
		c6.7-3.9,12.3-9.6,15.8-16.6c4.2-8.4-0.8-17.1-3.1-25.5c-6-21.5-9.4-43.7-10.3-66c-0.1-1.5-3.4-11.9-0.2-16.4
		c0.2-0.3,1.5-3.2,2.8-4.2c1.5-0.8,3.4-1.5,4.5-2c2.3-1.2,4.6-2.5,6.9-3.8c4.6-2.6,9.1-5.3,13.5-8.1c8.9-5.6,17.6-11.6,26.4-17.4
		c18.2-11.9,36.9-21.6,57.1-29.6c10.8-4.2,21.6-8.4,32.4-12.7c8-3.1,16.3-7.8,25.1-7.8c11.7,0,26.2,4.8,37.7,0.5
		c1.9,6.9,5.4,13.2,11.9,17.2c12.3,7.7,28.1,9.7,42.3,8.9c4.7-0.3,9.2-1,13.5-2.3c12,5.5,19.7,16.6,23.9,29.3
		c1.8,5.4,3.1,11,3.8,16.7c0.3,2.3,0,5.3,0.7,7.6c0.4,1.4,1.7,2.5,2.5,3.6c2.1,2.9,3.8,6,5.4,9.2c2.7,5.5,4.8,11.3,7,17
		c5.1,13.2,10.3,26.5,15.4,39.7c4.3,11.1,7.8,23.3,15.5,32.7c6.6,8.1,15.6,13.6,24.9,18c5.5,2.6,11.2,4.4,16.8,6.7
		c5.8,2.3,11.5,9.6,14.6,15.1C545.1,370.2,542.9,375.6,541.9,380.2z"/>
</g>
<path d="M4,508.3c18.3-4.5,37.1-6.7,55.7-10.1c18.6-3.4,37-8.1,55.2-13.6c35.8-10.7,70.7-24.3,105.9-37.1
	c71.4-26.1,144.7-45.3,220-56.2c42.7-6.1,85.6-9.8,128.7-11.3c8.5-0.3,2.1-21.3-5-21.1c-76.5,2.7-152.8,12-227.3,29.7
	c-37.1,8.8-73.5,19.8-109.4,32.6c-35.5,12.7-70.6,26.6-106.6,38.1c-20.1,6.4-40.5,12.1-61.2,16.4c-21.2,4.3-42.9,6.5-63.9,11.7
	C-10.9,489.2-3.8,510.2,4,508.3L4,508.3z"/>
<g>
	<g>
		<path class="st0" d="M101.6,464c7.3,5.7,9.3,15,11.9,23.4c0.4,1.4,4.9,3.5,4.3,1.6c-3-9.7-5.5-19.5-13.9-26
			C102.2,461.6,98.8,461.9,101.6,464L101.6,464z"/>
	</g>
</g>
<g>
	<g>
		<path class="st0" d="M124.2,455.1c1.3,6.3,2.7,12.7,2.3,19.2c-0.2,3.5-0.5,6-3.6,8.1c-2,1.4-4.5,3.4-7.1,3.1
			c-3-0.4,0.5,3.6,2.1,3.8c4.6,0.6,11.4-3.1,12.7-7.7c2.2-7.7-0.2-17.1-1.8-24.7C128.5,455.4,123.7,452.8,124.2,455.1L124.2,455.1z"
			/>
	</g>
</g>
<g>
	<g>
		<path class="st0" d="M372.4,379.5c5.6,2.6,9,8.7,14.1,12.2c5.1,3.5,10.9,5.5,16.7,7.6c1.8,0.6,6.7-0.7,3.2-1.9
			c-6.7-2.4-13.6-4.8-18.9-9.7c-4-3.7-6.8-7.8-11.9-10.1C373.8,376.8,369,378,372.4,379.5L372.4,379.5z"/>
	</g>
</g>
<g>
	<g>
		<path class="st0" d="M372.2,379.1c10,7.6,20.6,14.5,31.6,20.6c-0.2-0.8-0.4-1.5-0.5-2.3c-11.3-0.7-21.9-10.8-28.5-19.3
			c-0.8-1-5-2.3-3.5-0.4c8,10.2,20.5,21.7,34.1,22.5c2,0.1,0.2-1.9-0.5-2.3c-10.7-5.9-20.9-12.5-30.6-19.9
			C372.6,376.8,369.8,377.2,372.2,379.1L372.2,379.1z"/>
	</g>
</g>
<g>
	<path class="st0" d="M128.3,457.5c0.1-2-2.9-4.6-4.9-4c-6.3,2.1-12.6,4.2-18.9,6.4c-0.6,0.2-0.7,0.6-0.6,1.1
		c-0.1,0-0.1-0.1-0.2-0.1c-3.9-2.1-3.4,2-0.6,3.5c3,1.7,5,4.4,6.4,7.5c0,0.3,0.2,0.5,0.4,0.8c1.6,3.8,2.6,8.1,3.9,11.7
		c0.5,1.5,3,3.5,4.7,2.9c3.4-1.2,11.8-2.3,11.8-6.7c0-3.1-1.4-6.6-1.7-9.8C128,466.3,128,461.9,128.3,457.5z"/>
	<path class="st0" d="M433.8,391.3c-2-0.8-4-1.7-6-2.5c-0.6-0.3-1-0.1-1.1,0.2c-3.3-2.2-6.5-4.5-9.8-6.7c-4-2.7-7.7-5.4-12.4-6.8
		c-1.8-1.4-3.7-2.5-6.1-3.1c0,0,0,0,0,0c0,0,0,0,0,0c-0.1,0-0.3-0.1-0.4-0.1c-0.7-0.2-0.9,0.3-0.9,0.9c-0.8,0.1-1.5,0.2-2.4,0.4
		c-0.5,0.1-0.7,0.5-0.7,0.9c-2.3-0.7-4.7-1.4-7.1-2c-0.9-0.2-1,1-0.6,2.3c-0.6-0.2-1.2-0.3-1.9-0.4c-1.6-1.1-3.2-2.2-4.8-3.2
		c-1.5-1-2.1,0.7-1.6,2c0.3,0.8,0.6,1.7,0.9,2.7c-0.5-0.4-1.1-0.8-1.6-1.2c-2.4-1.8-1.6,3.2-0.2,4.2c1.3,1,2.6,1.9,3.8,2.8
		c0.4,0.9,0.8,1.8,1.4,2.5c1.8,2.7,5.2,4.5,7.8,6.4c6.5,4.9,13.3,9.4,21.8,8.5c0.6-0.1,0.9-0.5,1-1c1.3,0.5,2.5,1,3.8,1.5
		c1.9,0.7,1.2-2,0.3-3.7c1.5,0.9,3,1.6,4.6,2.3c0.9,0.4,1.2-0.1,1.2-0.9c0.3,0.2,0.5,0.3,0.8,0.5c0.3,0.2,0.6,0.3,0.8,0.4
		c0.6,0.4,1.2,0.8,1.8,1.1c2.2,1.2,0.8-3.5,0.2-4.1c-0.3-0.3-0.6-0.6-0.8-0.9c1.5,0.6,3.1,1.2,4.6,1.9c0.4,0.3,0.8,0.5,1.2,0.8
		c0.9,0.7,1.9,1.3,2.9,1.9c1.3,0.8,1.3-1.2,0.8-2.8C437,395.9,435,391.8,433.8,391.3z"/>
</g>
<g>
	<g>
		<path class="st0" d="M369.6,137.7c-0.1,10.5,8.6,16.7,18.3,18c11.2,1.4,24.9,1.2,32.8-8.1c1-1.2-1.3-5.4-2.4-4.1
			c-5.4,6.3-13.4,8-21.4,8.1c-7.7,0.1-24.6,0.1-24.5-11.3C372.5,138.8,369.6,135,369.6,137.7L369.6,137.7z"/>
	</g>
</g>
<path d="M423.7,130.8c-4.9,9.6-17.5,16.1-27.9,15.9c-10.5-0.1-22.3-2.2-29.7-10.4c-1.7-1.9-5.5-1.9-3,1c8.2,9.2,19.7,13,31.8,13.7
	c6.7,0.4,12.9,0,18.8-3.5c5.6-3.3,11.5-7.6,14.5-13.5C428.9,132.4,424.7,128.8,423.7,130.8z"/>
<g>
	<path d="M370.9,95.6c0.2-0.4-0.2-0.7-1.4-0.6c-0.3,0-0.6,0.1-0.8,0.1c-0.6-0.1-1.2-0.1-1.8-0.1c-1,0-1.9,0.5-2.2,1
		c-3.2,1.1-5.3,3.3-5.2,7.8c0.2,6.2,5.1,9.1,11,8.9c4.4-0.1,10.7-3,9.9-8.4C379.7,100,375.2,96.9,370.9,95.6z M370.7,110.9
		c-3.5-0.1-6.2-2.1-7-5.4c-0.8-3.9-0.1-7.4,4-8.3c3,0.7,5.8,3,7.4,5.4C377.7,106,375.7,111,370.7,110.9z"/>
	<path d="M427.2,104.3c-0.7-4.3-5.1-7.5-9.4-8.7c0.2-0.4-0.2-0.7-1.4-0.6c-0.3,0-0.6,0.1-0.8,0.1c-0.6-0.1-1.2-0.1-1.8-0.1
		c-1,0-1.9,0.5-2.2,1c-3.2,1.1-5.3,3.3-5.2,7.8c0.2,6.2,5.1,9.1,11,8.9C421.8,112.6,428,109.8,427.2,104.3z M417.5,110.9
		c-3.5-0.1-6.2-2.1-7-5.4c-0.8-3.9-0.1-7.4,4-8.3c3,0.7,5.8,3,7.4,5.4C424.5,106,422.5,111,417.5,110.9z"/>
</g>
<g>
	<path d="M371.5,102.7c-2.7-0.7-5.7,0-7.9,1.8c-3,2.4,0.3,5,2.7,6.1c0.3,0.1,0.7,0.1,1.1,0.1c0.7,0.6,1.5,1,2.1,1.1
		c0.4,0.1,0.9,0.1,1.4,0.1c0.1,0,0.1,0,0.2,0c0.5,0,1-0.1,1.5-0.2c2-0.4,4-1.5,4.5-3.1C379.1,102.7,373.2,103.1,371.5,102.7z"/>
	<path d="M424.1,107c0.8-3.4-3.6-4.9-6.1-5.4c-2.7-0.5-5.7,0.5-7.7,2.4c-2.8,2.7,0.7,4.9,3.1,5.9c0.3,0.1,0.7,0.1,1.1,0
		c0.8,0.5,1.6,0.8,2.2,0.9c0.4,0.1,0.9,0.1,1.4,0c0.1,0,0.1,0,0.2,0c0.5,0,1-0.2,1.5-0.4C421.8,109.9,423.7,108.6,424.1,107z"/>
</g>
</svg>
