<?xml version="1.0" encoding="utf-8"?>
<!-- Generator: Adobe Illustrator 23.0.1, SVG Export Plug-In . SVG Version: 6.00 Build 0)  -->
<svg version="1.1" id="Layer_3" xmlns="http://www.w3.org/2000/svg" xmlns:xlink="http://www.w3.org/1999/xlink" x="0px" y="0px"
	 viewBox="0 0 566.9 566.9" style="enable-background:new 0 0 566.9 566.9;" xml:space="preserve">
<path d="M531,310.7c-2.7,1.6-3.1,9.2,0,10.6c11.9,5.4,22.4-3.9,26.7-14.5c4.9-12.1,2.4-26-3.9-37.2c-7.6-13.7-21.9-9.2-33.1-3
	c-13.4,7.4-27.4,14-41.7,19.4c-9.3,3.5-18.9,5.1-28.7,5.7c4.8-2.5,9.4-5.4,13.7-8.9c7-5.6,13.1-12.1,18.1-19.5
	c3.1-4.6,7.6-15.9,13.4-20.5c-0.4,0.6-0.7,1.4-0.9,1.9c-4.3,11.2,5.8,30.8,19.6,23.5c13.6-7.2,12.1-29,6.7-40.8
	c-6-13.2-20.8-24.6-36.1-21.6c-7.7,1.5-12.4,7.3-15.7,14c-3.7,7.4-6.2,15-11.5,21.6c-11,13.6-27.6,21.9-44.6,25.2
	c-10.4,2-21,2.5-31.6,2c-9.6-0.4-21.7-0.3-30.4-4.9c-19.6-10.2-10.2-38.7-6.4-55.1c4.7-20.1,10.4-40,13-60.5
	c2.3-17.7,2.1-35.9-2.1-53.3c-2.1-8.7-5.3-17.3-9.9-25c-4.1-7.1-9.3-13.7-14-20.4c-4.2-6-8.6-11.7-14.2-16.4c-6.8-5.7-15-10-23-13.7
	c-17.5-8.2-35.9-8.1-54.7-6.8c-31.1,2.2-65.7,7.2-90.4,27.8c-23.3,19.4-37.1,48.8-39.7,78.8c-1.3,15.1,0,30.4,4.4,44.9
	c4.9,16.3,13.7,31.1,23.3,45c10.3,15,21.7,29.3,30.9,45c4.5,7.6,9,15.8,11.3,24.3c2.5,9.3-2.6,15.7-11.7,17.5
	c-7.2,1.4-14.7,0.4-21.8-1c-0.3-0.2-0.7-0.4-1.1-0.4c-12.6,0.2-24.6,4.4-37.1,5.5c-5,0.4-12.6,1.1-17-1.5c-3.2-2-5.8-6-8.2-8.9
	c-2.1-2.5-4.1-4.9-6.6-7.2c-5-4.6-6.1-10.5-2.4-16.4c3.1-5,8.3-9,13.7-11.2c3.3-1.3,7.1-2.1,10.7-1.3c1.4,0.3,7.3,3,6.7,5.2
	c-0.4,1.6,0.4,11.4,3.8,7.5c8.3-9.6,11.9-22.4,4-33.5c-7.7-10.9-23.2-12.8-35.5-11c-25.7,3.8-44.6,25.2-43.8,51.4
	c0.4,12,4.7,21.6,12,30.9c6.6,8.4,12.9,17.1,20.3,24.8c5.2,5.3,10.8,10.6,18.6,11.1c7.8,0.4,15.7-0.4,23.5-1
	c13.9-1.1,27.7-2.9,41.6-4.2c-3.6,2.9-7.4,5.6-11.3,8c-10.7,6.5-22.8,10.3-34.9,13.2c-23.3,5.5-48,7.7-69.4,19
	C16.2,384.2,1.5,400.7-1.1,421c-1.3,9.9,0.5,20.4,8.5,27.1c7.4,6.2,17.6,8,26.8,9.5c13,2.1,25.9,2.1,38-3.5
	c5.1-2.3,11-5.7,14.6-10.1c1.6-1.9,2.3-4.2,2.3-6.6c0-0.7-0.1-1.9-0.2-2.5c0-0.2-0.4-1.9-0.6-2.8c0.2-3.1-0.5-6.9-3.4-6
	c-8.6,2.6-18.1,4.8-27.1,2.7c-3.9-0.9-9-2.8-10.9-6.7c-1.8-3.7-1.5-9.1-0.3-13c5.3-17.6,32.1-15.8,46.3-14.6
	c32.4,2.7,70.2,13.7,96.5-12.2c5.6-5.5,10-12.1,13-19.3c-3.6,28.5-14.5,56.3-34.8,77c-21.6,22.1-57.4,35.7-59.2,71.1
	c-0.7,14,5.1,28.8,18.6,34.7c5.2,2.3,14.2,4.5,19.1,0.7c5.4-4.2,4.1-13.4,3.3-19.2c-1.1-8.4-5-18.3-0.1-26.1
	c3.9-6.1,10.7-9.9,16.8-13.4c13.4-7.8,27.3-17.3,38-28.6c10.3-10.9,18-24.6,24.7-37.9c5.2-10.4,9.9-21.1,14.1-32
	c0.3,2.9,0.5,5.8,0.7,8.6c0.5,7.4,0.3,13.8-0.9,21.2c-2.1,13.4-5.5,26.5-7.3,39.9c-1.7,13-1.6,26,0.5,39c1,6.3,2.4,12.6,3.8,18.8
	c1.4,6,2.5,12.4,5.3,18c5.4,10.5,17.4,15.7,27.8,19.8c11.6,4.6,24,7.6,36.4,8.6c5.2,0.4,10.5,0.5,15.5-1c6.5-1.9,10.8-6.3,14.7-11.6
	c7.9-10.5,15.3-21.8,14.9-35.4c-0.3-11.6-21.8-36.7-35-34.8c-2.8,0.4-2.8,5-2.7,7c0.4,4.5,12.9,19.8,12.8,24.4
	c2.3,17.8-15.9,19.2-22.9,20.2c-5.3,0.8-10.8,0.4-15.7-1.7c-6.9-2.9-10.5-8.1-15-13.8c-0.8-1-1.8-4.4-2.2-6c-1.2-4.6-2.2-9.3-3-14.1
	c-1.6-9.1-5.6-25.4-3.5-35.1s10.1-40.8,7.9-62.4c-2.3-22.5,3.1-20.9,1.8-43.5c9.6,16.4,10.4,7.4,23.3,21.3
	c14.9,16.1,30.4,31.6,47.3,45.7c17.2,14.2,35.8,26.8,56.1,36.2c9.7,4.4,19.7,8.1,30,10.9c5,1.4,10.1,2.5,15.2,3.4
	c5.6,1,11.5,1.7,16.4,4.7c4.4,2.7,8.3,7.6,8.6,12.9c0.3,5.4-3.2,10.7-6.7,14.5c-8.7,9.4-21.9,12.7-33.8,15.7c-3,0.8-3.3,5.9-2.4,8.3
	c4.9,13.2,17.2,21.6,31.3,22.1c15.8,0.5,31-7.9,42.6-18.1c22-19.4,32.3-50.8,20.2-78.5c-5.6-12.7-16-23.4-29.5-27.4
	c-16.3-4.8-33.7-1.6-50.3-4.7c-15.5-2.9-30.4-9.5-43.1-18.8c-14.3-10.4-24.3-24.2-33.2-39.3c-5.5-9.3-11.2-18.8-17.4-27.9
	c35.8,6.8,64.4,31.3,94,51c14.6,9.7,30.5,19.4,47.7,23.5c16.7,4,35.2-1.4,48.4-12.2c12-9.8,16-27,10.5-41.4
	c-2.5-6.6-7.1-12.3-13.1-16.1c-5.4-3.4-14.1-6.6-20.3-3.4c-5.6,2.9-7,11.6-4.2,16.8c0.5,1,1.2,2.1,2.3,2.7c1.1,0.6,4.1-0.1,4.5,1.9
	c0.7,3.2-8.5,5.8-10.4,6.1c-18.1,3.4-33.9-9.5-46.5-20.7c-5-4.4-10-8.9-15.3-12.8c16.7-0.8,33.2-4,46.2-15.3
	c4.2-3.6,8-7.6,12.7-10.5c4.4-2.8,9.3-5,14.2-6.7c5.5-1.9,12.2-3.1,16.9,1.2C543.3,304,533.7,309.1,531,310.7z M496.9,242
	c-0.1,0-0.2,0-0.4,0c1.6-1,3.2-1.5,5-1.2C500,241.6,497.9,242.1,496.9,242z M83.3,437.6C83.3,437.6,83.3,437.6,83.3,437.6
	c0.1,0.2,0.2,0.3,0.4,0.4C83.5,437.9,83.3,437.8,83.3,437.6z M511.1,292.9c-6,3.1-10.9,7.3-15.9,11.9c-5.3,4.8-11.1,8.4-17.7,11
	c-14.6,5.6-30.7,5.4-46.1,5.3c-0.4,0-0.7,0.1-1,0.3c-5.9-2.6-12-4.8-18-7.2c-20.3-8.1-40.9-15.7-62.1-21.1c-3.2-0.8-4,10,0,11
	c18.3,4.6,36,11.1,53.5,17.9c16.1,6.3,33.2,11.8,46.9,22.6c13,10.1,23.9,23.2,39.7,29.2c11.2,4.3,30.5,5.6,35.9-8.2
	c2.1-5.4,1.5-13-3.1-17.1c-0.2-0.2-0.5-0.5-0.8-0.7c3.6-0.9,7.8,0.3,11.1,1.7c15.2,6.4,21.3,24.2,9.1,36.7
	c-11.6,11.8-31.2,17.4-47.2,14.1c-16.7-3.5-32.4-13.2-46.5-22.5c-31.5-20.7-61.3-46.7-99.8-52.9c-1.5-0.2-25.3-6.4-8.3,9.4
	c5.8,7.4,11,15.2,15.9,23.2c8.3,13.5,15.5,27.9,26,40c9,10.4,20,19.1,32.2,25.4c12.1,6.3,25.5,10.4,39.2,11.9
	c15.5,1.6,32.4-1.4,46.9,5.6c11.7,5.7,20,17,23,29.6c3.3,13.6-0.9,27.6-8.6,39c-8.8,13-22.2,23.8-37.1,28.8
	c-12.4,4.2-29.7,2.9-38.4-7.6c18.3-5.2,37.1-14,39.6-35.2c1.1-9.5-2.1-19.7-9.6-25.9c-8.6-7.1-21.4-6.9-31.8-9.4
	c-48.1-11.8-88-43.9-121.8-78.6c-19-19.5-26.7-16.2-39.2-40.6c-1.1-2.1-2.7-1.8-3.9,0c-1.1,1.7-1.1,4.6-0.4,6.7
	c-1,1.3-1.3,3.6-1.2,4.7c0.7,21.9-5.6,19.5-2.6,41.1c3.2,22.6-0.4,49.7-7.2,70c-2.7,21.7,5.7,46.1,7.2,52.1c0.9,3.7,1.8,7.6,4,10.7
	c7.3,10.6,18.6,15.1,32.6,13.8c8.8-0.8,17.6-0.7,24.9-5.6c5-3.3,5.6-10.8,6-16.3c0.3-4.8-11.5-24.5-11.7-29.4
	c4,0.3,19.5,17.1,22,20.6c3.8,5.3,2.4,11.9-0.2,17.4c-2.4,5.1-5.8,9.7-9.1,14.2c-3.7,5-7.4,9.3-13.6,11c-10.2,2.9-22.5,0.2-32.5-2.1
	c-11-2.6-21.8-6.8-31.6-12.4c-4.9-2.8-9.1-6.2-11.4-11.5c-2.2-5.3-3.1-11.4-4.4-17c-2.7-12.2-4.8-24.5-4.1-37.1
	c0.7-11.8,3.3-23.4,5.6-34.9c1.8-9.2,4.2-18.8,4.2-28.3c0-6.4-0.6-12.8-1.1-19.1c-0.4-5-0.2-12.2-3.2-16.5c-1.5-2.1-3.3,0.6-3.8,2
	c-8.1,23.4-18.6,47.5-33.7,67.4c-8.5,11.3-20,20-31.6,27.9c-10.5,7.3-24.8,12.4-31.2,24.3c-3.5,6.5-4,14.1-3.2,21.3
	c0.4,3.8,1.2,7.5,1.8,11.3c0.6,3.7,2.7,9.7-2.3,10.5c-15.2,2.4-28.8-11.3-27.4-26.1c1.4-15.1,13.7-27.1,24.9-36
	c12.1-9.6,25-17.9,35.3-29.6c21.3-24.1,31.9-56.3,34.4-87.9c0.1-1.7,0.3-6.1-1.9-6.8c-0.2-0.1-0.3-0.1-0.5-0.1
	c0.8-3.8,1.2-7.8,1.3-11.7c0-1.6-0.5-5.5-2.8-5.5c-2.3,0-2.7,4-2.8,5.5c-0.4,16.4-10.1,31.9-23.9,40.5c-16.3,10.1-36.4,9.8-54.8,7.7
	c-19.6-2.2-40.2-7-59.8-2.5c-7.4,1.7-14.2,5-18.4,11.5c-4.5,7.1-5.5,15.9-4.6,24.1c2.2,20.8,21.9,21.9,38.5,18.3
	c-1.8,1.3-3.6,2.4-5.6,3.5c-9.3,5-19.6,6.6-30.1,5.7c-9.4-0.8-19.7-2.2-28.3-6.2c-3.8-1.8-7.5-4.3-9.6-8C3,428.8,4,423,5.5,418.1
	c5.6-18.2,22.7-30.4,39.6-37.1c20.3-8.1,42.3-10,63.3-15.4c10.9-2.8,21.6-6.5,31.3-12.3c9.3-5.6,17.2-13,25.6-19.8
	c0.3-0.1,0.6-0.4,0.8-0.6c0.8-0.7,1.6-1.3,2.5-2c3-2.3,1.4-12.8-1.5-10.6c-1,0.8-2,1.6-3.1,2.4c-13,0.6-25.9,2.4-38.8,3.7
	c-8.2,0.8-16.5,1.5-24.7,2.1c-5.7,0.4-11.7,1-17.4,0.4c-6.8-0.8-12.3-7-16.6-11.8c-6.1-6.6-11.5-13.9-17-21
	c-6.1-7.8-10.9-15.4-10.4-25.7c0.5-11,6.3-20.9,14.9-27.6c9.7-7.6,22.2-11.2,34.4-10.4c6.6,0.4,13.8,2.1,18.8,6.6
	c2.1,1.9,4.7,5.1,4.7,8.1c0,2-1,3.9-2.4,5.7c-2.4-6.7-8.5-11.5-16.8-10.3c-12.3,1.8-23.3,12.2-25.8,24.3c-1.2,5.6-0.8,11.7,1.3,17.1
	c1.9,4.8,5.4,7.4,8.7,11.1c3.2,3.6,5.9,7.5,9.3,10.9c3.5,3.6,6.5,4.4,11.5,5c16.1,1.8,31.6-5.2,47.6-5.5c0,0,0.1,0,0.1,0
	c0.2,0.2,0.5,0.3,0.8,0.3c12,2.4,28.5,4,36.2-7.9c9-13.8,0.6-31.9-6.2-44.7c-15.6-29.6-40.3-53.7-53.5-84.7
	c-11.6-27.1-9.8-58.4,3.1-84.8C132,70.8,140.9,59.1,152,50c11.6-9.5,25.2-15.2,39.6-19c15.5-4.1,31.6-6.3,47.6-7.4
	c18.2-1.3,36.3-1.8,53.2,6c7.9,3.6,16.1,7.8,22.8,13.3c5.4,4.4,9.6,9.9,13.5,15.6c4.7,6.8,10,13.4,14,20.7c4.2,7.4,7,15.5,8.8,23.9
	c7.8,37.6-6.2,75-14,111.3c-3.5,16.4-7.3,35.3,2.1,50.5c9.5,15.3,30.6,14.8,46.6,15.1c32.3,0.6,68-10.7,82.4-42.2
	c3-6.6,5.2-15.2,11.9-19.1c7-4,16.3-2,22.9,1.8c6.5,3.7,11.9,9.9,14.4,17c2.4,6.8,2,16.6-5.1,20.4c-3.5,1.9-12.4-0.3-13.6-4.8
	c10.7-2,15-22.3,2.2-22.9c-11.6-0.5-15.6,13.9-20.6,21.8c-10.1,16-25.4,28.1-43.3,34.3c-14.9,5.2-30.8,6-46.4,4.6
	c-3.6-0.3-4,10.6,0,11c10.5,1,21.2,0.8,31.6-1c0.5,1.2,1.2,2,2.3,2c15.6,0.6,32.5,1.2,47.5-3.3c15-4.5,29.5-11.4,43.3-18.7
	c6.6-3.5,13.4-8.5,21-9.4c8.4-0.9,12.9,4.1,15.5,11.5c2.8,7.9,3.7,14.7-1.4,21.9c-1.7,2.5-4.1,4.5-6.7,5.7c0.2-0.3,0.3-0.7,0.5-1
	c2.1-5.2,2.1-11.6-1-16.4C536.3,281.4,520.5,288,511.1,292.9z"/>
<g>
	<path d="M211.1,186.6c-0.8,0-1.4,0.6-1.9,1.4c-7,0.6-12,3.4-17.1,8.8c-5.3,5.6-6.3,13.4-6.5,20.7c-0.2,7.7,1.7,14.5,7.7,19.6
		c6.5,5.5,13.1,8.3,21.6,9c7,0.6,15-3.9,19.5-9.2c4.6-5.4,6.1-12.9,5.6-19.8C238.8,203,226.6,185.7,211.1,186.6z M230.8,228
		c0.1-2.2-0.3-4.5-1-6.2c-2.7-7.7-9.8-5.5-16.5-5.1c-7.2,0.4-13.7,2.7-14.6,10.9c-0.1,0.6-0.1,1.4-0.1,2.4
		c-4.4-2.7-7.7-6.6-7.6-11.7c0.1-5.6,1.2-9.7,5.4-13.6c4.6-4.3,8.7-5.8,15-5.9c0.8,0,1.4-0.5,1.9-1.2c9.5,0.7,18.3,9.5,20.7,18.4
		C235.2,220.4,233.7,224.7,230.8,228z"/>
	<path d="M333.2,209.3c-1.1-14.1-13.3-31.3-28.8-30.5c-0.8,0-1.4,0.6-1.9,1.4c-7,0.6-12,3.4-17.1,8.8c-5.3,5.6-6.3,13.4-6.5,20.7
		c-0.2,7.7,1.7,14.5,7.7,19.6c6.5,5.5,13.1,8.3,21.6,9c7,0.6,15-3.9,19.5-9.2C332.1,223.7,333.7,216.2,333.2,209.3z M324.6,219.6
		c-0.1-1.8-0.4-3.5-0.9-5c-2.7-7.7-9.8-5.5-16.5-5.1c-7.2,0.4-13.7,2.7-14.6,10.9c-0.1,0.5-0.1,1.3-0.1,2.1c-4.7-2.7-8.3-6.7-8.2-12
		c0.1-5.6,1.2-9.7,5.4-13.6c4.6-4.3,8.7-5.8,15-5.9c0.8,0,1.4-0.5,1.9-1.2c9.5,0.7,18.3,9.5,20.7,18.4
		C328.4,212.4,327.1,216.4,324.6,219.6z"/>
</g>
</svg>
