<?xml version="1.0" encoding="UTF-8" standalone="no"?>
<!DOCTYPE svg PUBLIC "-//W3C//DTD SVG 1.1//EN" "http://www.w3.org/Graphics/SVG/1.1/DTD/svg11.dtd">
<svg width="100%" height="100%" viewBox="0 0 567 567" version="1.1" xmlns="http://www.w3.org/2000/svg" xmlns:xlink="http://www.w3.org/1999/xlink" xml:space="preserve" xmlns:serif="http://www.serif.com/" style="fill-rule:evenodd;clip-rule:evenodd;stroke-linejoin:round;stroke-miterlimit:2;">
    <g>
        <path d="M257.557,476.869C275.145,476.986 293.321,483.694 301.514,500.905C308.274,515.103 314.287,531.843 304.126,545.227C302.87,546.881 301.407,548.377 299.79,549.671C300.371,549.197 299.5,549.922 299.5,549.922C298.987,550.531 298.892,550.612 298.588,550.917C298.109,551.397 297.6,551.848 297.066,552.268C296.597,552.637 296.109,552.981 295.605,553.301C287.686,558.326 277.622,557.198 269.133,558.761C266.136,559.296 263.079,559.581 260.063,558.912C255.021,557.795 250.533,555.009 246.351,552.149C233.113,543.095 222.47,529.487 220.405,513.437C218.955,502.172 229.007,491.927 235.72,485.821C241.287,480.758 248.047,477.052 255.894,476.882C256.448,476.873 257.002,476.869 257.557,476.869ZM256.793,485.87C254.599,485.893 252.402,486.127 250.329,486.885C245.899,488.503 242.334,491.799 239.058,495.102C239.058,495.102 233.334,500.419 230.8,505.114C227.492,511.242 230.459,519.897 234.603,526.923C239.892,535.89 247.906,543.195 257.032,548.108C259.857,549.628 262.758,550.657 266.404,550.094C272.665,549.128 278.845,549.016 285.878,547.537C288.486,546.989 291.117,546.001 292.775,543.931L294.009,542.77C301.563,536.727 300.703,524.703 298.087,516.42C295.261,507.47 291.405,498.709 284.176,493.431C276.35,487.718 266.398,485.824 256.793,485.87Z"/>
        <path d="M461.144,305.621C469.541,305.716 478.219,307.373 484.982,312.538C493.03,318.684 497.511,329.22 499.103,338.71C500.364,346.223 498.71,354.599 492.653,359.813C492.653,359.813 490.314,362.241 487.849,363.386C482.585,365.832 476.349,365.067 470.727,366.318C469.095,366.671 468.767,366.71 467.812,366.79C465.66,366.97 462.843,366.328 462.329,366.159C462.033,366.061 461.739,365.958 461.447,365.85C449.969,361.609 440.763,351.448 436.123,339.873C432.995,332.072 434.526,323.254 441.016,316.101C446.135,310.458 452.617,305.823 460.478,305.626C460.7,305.622 460.922,305.621 461.144,305.621ZM460.801,314.622C454.029,314.728 447.865,320.422 444.503,326.326C442.152,330.455 443.716,335.635 446.299,340.433C450.398,348.049 456.984,354.762 464.854,357.512C466.603,358.123 468.479,357.592 470.37,357.172C471.463,356.937 471.517,356.933 471.984,356.857C476.905,356.063 482.87,357.113 485.565,354.13L486.801,352.974C491.813,348.762 490.554,340.396 489.085,335.636C487.153,329.376 484.274,322.982 479.144,319.42C473.848,315.742 467.223,314.578 460.801,314.622Z"/>
        <path d="M133.644,77.421C142.178,77.517 151.02,79.328 157.762,84.577C165.65,90.717 170.066,100.853 171.703,110.611C172.964,118.123 171.31,126.499 165.253,131.713C165.253,131.713 162.914,134.141 160.449,135.286C155.185,137.732 148.95,136.967 143.327,138.218C141.695,138.571 141.367,138.61 140.412,138.69C134.006,139.226 127.695,134.978 122.679,130.862C116.491,125.784 111.618,119.145 108.623,111.673C105.496,103.875 107.026,95.055 113.516,87.901C118.672,82.218 125.205,77.549 133.199,77.422C133.422,77.421 133.422,77.421 133.644,77.421ZM133.301,86.422C126.473,86.53 120.23,92.344 116.945,98.228C114.62,102.393 116.324,107.636 118.799,112.233C122.915,119.88 129.53,126.634 137.459,129.413C139.207,130.026 141.085,129.491 142.97,129.072C144.063,128.837 144.117,128.833 144.584,128.757C149.509,127.962 155.511,128.967 158.165,126.03L159.401,124.874C164.413,120.662 163.154,112.296 161.685,107.536C159.492,100.431 156.146,93.369 149.355,89.878C144.419,87.34 138.946,86.383 133.301,86.422Z"/>
        <path d="M311.211,60.828C319.51,61.081 325.843,70.88 327.763,79.603C329.049,85.449 329.17,92.022 326.535,97.291C326.535,97.291 326.732,96.67 326.293,98.114C324.615,103.446 321.423,108.261 318.675,112.967C315.543,118.286 309.888,122.145 303.374,120.343C296.089,118.327 290.936,111.277 289.499,104.635C288.003,97.72 289.97,90.468 291.9,83.303C293.596,77.01 296.56,71.151 301.082,66.126C303.708,63.207 306.724,60.784 311.211,60.828ZM310.994,69.827C307.889,69.922 304.847,75.266 302.928,79.174C300.446,84.228 299.41,89.929 298.46,95.459C297.512,100.973 297.89,107.63 304.521,111.157C307.13,112.545 309.523,110.828 311.881,106.731C311.881,106.731 313.773,103.512 315.28,100.816C316.346,98.887 317.316,96.89 317.894,94.762L318.377,93.483C318.427,93.299 318.474,93.114 318.521,92.93C320.239,85.996 319.469,78.305 314.67,72.409C313.679,71.192 312.409,69.812 310.994,69.827Z"/>
        <path d="M476.238,145.098C492.054,145.209 508.183,151.881 520.332,158.192C529.506,162.958 537.379,171.247 538.23,182.773C539.206,195.997 533.635,210.614 522.215,216.339C517.761,218.572 512.442,218.956 507.735,216.877C497.117,212.187 492.292,199.68 486.902,191.147C480.72,181.359 468.962,175.553 454.308,171.91C452.939,171.57 451.026,171.275 451.026,171.275C445.661,169.79 445.229,161.109 445.406,156.759C445.534,153.641 446.739,150.083 450.301,149.136C458.626,147.155 466.987,145.133 475.572,145.1C475.794,145.098 476.016,145.097 476.238,145.098ZM475.834,154.098C468.537,154.162 461.431,155.743 454.392,157.414C454.378,159.232 454.677,161.03 455.119,162.787C455.119,162.787 460.294,164.182 464.119,165.464C472.581,168.302 481.34,171.266 487.695,177.58C495.803,185.636 499.208,197.678 507.072,205.516C509.039,207.477 511.442,209.249 514.205,209.304C523.515,209.49 529.323,195.799 529.332,185.522C529.335,181.824 528.589,178.046 526.591,174.876C521.982,167.567 513.228,164.478 505.693,161.78C496.123,158.353 486.6,154.275 476.562,154.101C476.319,154.098 476.077,154.097 475.834,154.098Z"/>
        <path d="M109.065,284.094C119.124,284.175 129.243,287.201 138.425,290.881C143.408,292.987 144.303,300.065 143.132,304.536C142.635,306.431 140.873,308.292 140.466,309.085C138.69,312.417 134.351,312.641 130.873,313.226C122.856,314.573 114.623,316.245 107.562,320.092C93.065,327.989 87.965,351.534 71.288,353.631C50.331,356.266 37.581,316.051 56.396,299.828C65.568,291.919 78.2,289.809 89.379,287.044C95.847,285.46 102.447,284.071 109.065,284.094ZM108.65,293.093C94.073,293.18 78.611,297.639 68.049,302.9C58.846,307.483 53.452,318.886 57.051,331.457C59.044,338.418 64.446,345.551 70.324,344.679C77.968,343.544 82.958,334.322 88.524,326.559C93.638,319.463 99.687,313.148 108.503,309.904C116.387,307.003 124.688,304.634 132.711,303.901L133.153,301.897L134.534,301.651C134.659,300.577 134.318,298.969 134.318,298.969C126.011,296.061 117.534,293.083 108.65,293.093Z"/>
        <path d="M425.212,191.414C436.215,191.545 447.355,194.157 455.517,201.629C463.842,209.252 467.801,221.66 463.48,232.334C459.001,243.398 447.464,250.832 435.83,252.489C417,255.172 398.537,245.765 380.427,245.729C374.435,245.717 367.635,246.381 363.465,250.938C361.301,253.302 367.529,257.613 372.086,260.302C380.015,264.978 388.458,268.993 394.65,276.326C403.558,286.875 406.364,302.453 399.565,315.228C399.565,315.228 397.881,317.957 394.916,318.089C390.433,318.289 386.762,315.06 383.396,312.629C376.08,307.344 370.911,298.641 362.718,297.039C351.746,294.894 339.807,302.503 338.165,314.455C336.293,328.075 342.048,342.303 347.44,354.822C357.684,378.612 377.36,397.659 386.073,421.097C390.202,432.206 391.534,445.069 386.295,456.075C380.91,467.386 369.272,475.603 356.496,475.465C336.198,475.246 316.885,461.548 305.275,445.581C293.332,429.158 288.27,407.456 293.715,387.887C294.847,383.864 296.353,379.834 296.075,375.671C296.075,375.671 287.307,374.861 281.873,370.486C274.514,364.562 271.05,355.054 268.23,345.954C267.366,343.209 266.516,340.385 264.491,338.225C264.419,338.149 264.344,338.076 264.262,338.013C262.588,336.716 258.369,341.516 255.075,344.778C237.741,362.078 230.099,388.467 236.827,412.584C237.164,413.79 237.544,414.981 237.925,416.171C238.329,417.463 238.37,417.668 238.514,418.385C239.11,421.367 238.508,424.549 236.541,427.042C232.708,431.901 226.085,433.502 220.873,435.627C206.794,441.284 190.553,443.301 177.807,433.255C167.916,425.458 161.738,413.595 156.655,403.208C151.929,393.552 148.755,382.483 151.578,371.708C155.094,358.287 166.827,348.228 176.326,339.026C185.262,330.441 195.192,322.831 202.909,313.122C208.497,306.091 211.163,297.275 211.549,287.908C211.612,286.373 211.191,284.172 211.191,284.172C210.417,282.597 204.811,281.681 201.388,279.85C191.15,274.375 182.584,265.933 176.644,255.833C173.097,249.8 170.204,243.394 166.737,237.284C166.737,237.284 164.063,231.53 161.147,230.078C159.614,229.315 157.457,231.294 155.313,232.878C151.328,235.822 147.835,239.422 144.677,243.265C144.677,243.265 143.896,244.381 142.997,244.958C139.251,247.359 134.203,246.383 129.504,245.495C127.276,245.073 125.077,244.467 122.976,243.64C122.943,243.627 123.042,243.667 123.075,243.681C108.262,239.909 94.054,231.174 87.362,216.97C82.144,205.895 84.611,192.331 94.267,182.968C102.984,174.516 114.822,168.919 127.177,171.243C142.086,174.047 153.798,186.831 164.438,196.277C177.599,207.961 194.991,216.463 212.856,210.723C226.312,206.4 237.786,192.542 234.096,177.52C231.429,166.664 219.091,161.723 214.806,153.491C211.012,146.202 211.412,136.216 218.961,131.377C225.728,127.04 234.968,128.328 241.703,133.342C249.022,138.79 252.977,147.585 255.892,156.064C257.719,161.338 260.125,166.881 265.954,168.336C273.484,170.216 281.735,168.57 288.777,166.5C300.696,162.995 311.153,155.562 320.195,147.07C321.472,145.889 321.658,145.751 322.364,145.179C328.412,140.281 336.969,138.063 344.053,142.908C347.695,145.399 350.4,149.232 351.34,153.57C354.044,166.058 345.068,178.268 343.368,188.462C342.649,192.769 342.718,197.282 343.567,201.447L343.632,201.739C353.651,202.627 363.588,200.564 373.305,198.869C390.208,195.92 407.097,191.563 424.058,191.412C424.443,191.411 424.827,191.411 425.212,191.414ZM160.942,220.959C166.968,221.165 171.346,227.341 174.389,232.536C174.518,232.756 176.249,235.859 177.584,238.424C184.257,251.251 191.297,264.155 205.399,271.788C209.969,274.262 215.787,274.591 218.769,279.308C221.442,283.535 220.632,288.924 220.128,293.552C218.882,304.986 213.561,315.333 204.986,324.382C193.561,336.439 180.07,346.524 169.213,358.878C163.634,365.226 159.189,372.664 159.522,381.396C160.105,396.628 170.236,411.102 177.293,419.983C182.175,426.13 189.223,430.997 197.4,431.474C206.742,432.019 215.849,428.03 224.312,424.554C226.965,423.447 230.549,422.697 229.343,418.884C226.219,409.007 225.414,401.827 225.433,394.723C225.493,371.551 236.034,348.691 253.857,333.546C254.282,333.185 254.717,332.835 255.159,332.496C258.939,329.609 264.312,327.469 268.894,330.288C276.597,335.027 276.933,347.771 281.334,355.828C284.23,361.129 288.787,366.517 294.755,366.646C298.366,366.699 302.273,367.348 304.066,371.026C307.079,377.209 304.01,384.463 302.302,390.601C296.479,411.743 305.593,436.422 322.477,451.011C330.741,458.151 340.456,463.969 351.077,465.913C357.936,467.168 365.479,466.155 370.911,461.679C376.542,457.039 380.089,449.981 380.712,442.724C382.294,424.296 369.09,406.752 358.488,391.807C346.319,374.562 336.315,355.659 331.135,335.465C328.162,323.874 327.109,310.779 333.87,300.631C342.543,287.612 362.832,282.882 375.155,293.338C376.301,294.31 377.382,295.354 378.446,296.415C382.841,300.844 387.594,305.048 392.917,308.149C397.135,296.969 391.387,283.582 381.505,276.443C373.901,270.948 364.587,267.892 358.107,260.905C354.98,257.534 352.77,252.566 354.77,247.976C356.972,242.922 362.736,239.991 368.482,238.301C390.65,231.783 415.708,248.733 438.255,242.842C449.759,239.836 460.108,228.101 455.166,216.237C451.441,207.297 441.303,202.026 431.458,200.816C425.235,200.051 418.923,200.527 412.704,201.262C396.86,203.135 381.328,206.828 365.445,209.263C357.488,210.482 349.465,211.401 341.348,210.562C341.348,210.562 335.461,209.024 334.424,201.311C333.126,191.662 335.414,182.261 339.166,172.386C341.966,164.949 346.019,155.52 339.301,150.57C338.075,149.667 336.642,148.979 335.109,148.961C330.313,148.903 326.79,153.28 324.009,155.817C311.16,167.471 295.406,176.046 277.694,177.763C269.2,178.586 259.91,177.898 254.09,171.728C247.803,165.063 247.095,154.932 242.624,147.689C239.248,142.221 234.106,136.818 227.167,137.78C223.492,138.289 220.375,142.035 221.628,146.47C224.72,157.416 239.177,161.923 242.641,174.62C245.901,186.572 241.791,200.197 233.111,208.852C221.299,220.628 202.665,224.304 186.199,219.446C172.707,215.466 161.496,205.985 151.347,196.301C141.878,187.317 131.021,177.932 117.866,179.824C104.61,181.731 92.845,194.065 93.449,205.315C94.219,219.674 109.681,230.984 125.925,235.119C129.768,236.714 134.023,237.426 137.968,237.146C137.968,237.146 140.939,233.705 143.529,231.161C148.709,226.074 154.55,220.822 160.942,220.959Z"/>
    </g>
</svg>
