<?xml version="1.0" encoding="utf-8"?>
<!-- Generator: Adobe Illustrator 23.0.1, SVG Export Plug-In . SVG Version: 6.00 Build 0)  -->
<svg version="1.1" id="Layer_1" xmlns="http://www.w3.org/2000/svg" xmlns:xlink="http://www.w3.org/1999/xlink" x="0px" y="0px"
	 viewBox="0 0 566.9 566.9" style="enable-background:new 0 0 566.9 566.9;" xml:space="preserve">
<style type="text/css">
	.st0{stroke:#000000;stroke-width:0.75;stroke-miterlimit:10;}
</style>
<g>
	<path class="st0" d="M255.2,481.4c-8.2,0.3-14.1,5.2-19.6,10.8c-5.3,5.5-11.7,11.9-10.8,20.1c1.8,16,14.6,31,28.2,38.7
		c3.6,2.1,7.7,4.2,12,3.8c4.5-0.4,8.7-1.9,13.3-2c6.6-0.2,14.1-1,18.1-6.2c0.2-0.1,0.3-0.2,0.4-0.3c14-11.1,6.6-31.2,0.2-44.4
		C289.4,486.3,271.8,480.9,255.2,481.4z"/>
	<path class="st0" d="M482.1,316c-5.5-4-12.6-5.2-19.3-5.8c-8.2-0.7-13.4,3.3-18.7,9.2c-5.5,6.1-6.9,11.1-3.8,18.8
		c2.7,6.8,7.3,13,13,17.6c3.1,2.5,6.9,5,10.8,6.2c3.2,0.9,5.6-0.2,8.6-0.7c5.8-0.9,12.7,0.2,16.5-4.5c0.2-0.1,0.3-0.2,0.4-0.3
		c5.9-4.9,6.3-12.7,4.5-19.7C492.1,329.3,488.5,320.8,482.1,316z"/>
	<path class="st0" d="M125.8,127.6c3.3,2.6,7,5.1,10.9,6.3c3.2,0.9,5.6-0.2,8.6-0.7c5.8-0.9,12.7,0.2,16.5-4.5
		c0.2-0.1,0.3-0.2,0.4-0.3c5.9-4.9,6.3-12.7,4.5-19.7c-2-7.5-5.6-16-12-20.8c-5.6-4.1-12.6-5.4-19.4-5.9c-8.2-0.7-13.4,3.3-18.7,9.2
		c-5.5,6.1-6.9,11.1-3.8,18.8C115.5,116.8,120.1,123,125.8,127.6z"/>
	<path class="st0" d="M306.2,116.3c5.6,0.5,7.4-3.6,9.8-7.7c2.5-4.5,5.1-8.2,6.3-12.9c0.1-0.2,0.2-0.4,0.3-0.6
		c1.6-5.7,2-11.8-0.1-17.5c-1.6-4.6-5.3-11.3-10.6-12.2c-4.8-0.8-8.7,5.1-11.1,8.5c-3.7,5.4-5,12-6.3,18.3
		c-1.1,5.4-1.8,10.3,0.8,15.4C297.4,111.6,301.5,115.9,306.2,116.3z"/>
	<path class="st0" d="M532.7,177.5c-4.1-13.4-20-18-31.9-22.2c-8.1-2.9-16.4-5.8-25.2-5.7c-8.2,0-16.2,2-24.2,3.9
		c-3.2,0.8-0.5,13.3,0.7,13.4c4.5,0.5,14.5,4.2,14.5,4.2s9.7,3.5,14,6.4c6.1,4.2,9.8,10.5,13.4,16.8c5.2,9.3,13.9,24.8,26.8,17.7
		C531.4,206.2,536.2,188.6,532.7,177.5z"/>
	<path class="st0" d="M136.6,295c-7.7-2.7-15.5-5.4-23.7-6.2c-8.7-0.9-17.2,1.3-25.6,3.4c-12.2,3-28.5,6.2-34,19.2
		C48.8,322,51.9,340,62,346.8c12.2,8.3,22.3-6.4,28.4-15.1c4.2-6,8.4-11.8,14.9-15.5c4.5-2.5,14.5-5.1,14.5-5.1s10.3-2.8,14.9-2.8
		c1.1,0,1.9-1.1,2.2-2.5C139.9,305.3,139.8,296.1,136.6,295z"/>
	<path class="st0" d="M458.2,212.2c-8.2-14.6-25.1-17.3-40.2-16c-16.6,1.4-32.9,5.4-49.3,8c-8.3,1.3-17.3,2.8-25.7,2
		c-1.8-0.2-2.5,0-3.2-1.7c-0.8-1.9-1-4.4-1.2-6.4c-0.4-4.1-0.2-8.2,0.7-12.3c2.5-11.4,15.8-31,1.4-39.7c-6.7-4-13,0-17.9,4.7
		c-5.5,5.2-11.4,9.9-18,13.7c-6.5,3.7-13.5,6.4-20.9,7.8c-7.2,1.4-17.4,2.4-24-1.6c-6.7-4-8.2-14.8-11.3-21.4
		c-3.1-6.6-8.3-13.1-15.4-15.4c-5.8-1.9-13.5-0.1-15.8,6.2c-2.2,6,1.5,12.7,5.4,17c5.1,5.7,12.1,9.2,14.9,16.8
		c2.4,6.7,1.9,14.2-0.6,20.8c-5.6,14.8-22.1,22.8-37.3,22.4c-17.3-0.5-31-10.1-42.9-21.7c-10.3-10-22.6-21.2-38.1-20.2
		c-8.4,0.6-16.8,6.2-22.5,12.1c-7.9,8.1-9.6,18.6-4.4,28.7c6.4,12.3,19.5,20.1,32.6,23.4c3.8,1.6,9.3,2.4,12.5,2.3s3.7-0.5,3.8-0.8
		c4.2-5.2,9-10,14.7-13.6c3.2-2,6.2-2.8,9.2-0.2c2.4,2,4.2,5,5.8,7.7c6.3,11,10.4,22.5,19.8,31.5c4.4,4.2,9.5,7.8,15,10.5
		c2.6,1.3,7,2.2,9.1,4.2c2.1,2.1,1.7,6.7,1.5,9.4c-0.9,11.7-3.6,19-11.8,28.3c-8.2,9.2-19.5,18.5-25.2,24.1
		c-9.3,9.1-21.7,19.5-23.6,33.2c-1.6,11.4,3.5,22.3,9,32c6.1,10.7,13.1,22.9,25.7,26.7c10.4,3.2,21.4,0.1,31-4
		c3.9-1.7,11.9-3.8,13.1-8.6c0.6-2.3-0.6-4.7-1.2-6.9c-0.9-3-1.6-6-2.1-9.1c-3.7-23.5,4.6-48.5,21.7-65.1
		c3.7-3.6,10.7-11.2,15.5-5.6c4.4,5.2,5.1,13,7.7,19.1c2.3,5.4,5.8,10.5,10.8,13.8c2,1.3,4.2,2.3,6.5,2.7c1.6,0.3,3.3,0,4.8,0.3
		c2.5,0.5,2.8,3,2.8,5.2c0,6.4-3.2,12.8-4,19.2c-0.7,5.9-0.7,11.8,0.2,17.7c1.9,12.5,7.2,24.1,15.4,33.7
		c13.9,16.3,46.8,35.6,64.9,14.8c19.2-22.1,0.6-51.3-13.3-70.4c-8.8-12.2-16.6-24.8-22.1-38.8c-4.7-12.1-10.1-26.9-7.8-40.1
		c1.9-11.3,10.9-19.1,22.2-20.3c5.2-0.5,11,0.4,15.2,3.7c4.1,3.2,7.2,7.5,11.4,10.5c1.9,1.4,11.6,9.1,12.9,6.6
		c6.7-12.5,2.8-27.7-7.4-37c-5.5-5.1-12.3-8.3-18.7-12.1c-6-3.5-16.6-11.3-7.5-17.7c12.9-9,31.1-3.9,45-0.8
		c13.7,3,29.1,5.7,41.6-2.3C459.1,236.5,464.6,223.7,458.2,212.2z"/>
</g>
</svg>
