<?xml version="1.0" encoding="utf-8"?>
<!-- Generator: Adobe Illustrator 23.0.1, SVG Export Plug-In . SVG Version: 6.00 Build 0)  -->
<svg version="1.1" xmlns="http://www.w3.org/2000/svg" xmlns:xlink="http://www.w3.org/1999/xlink" x="0px" y="0px"
	 viewBox="0 0 566.9 566.9" style="enable-background:new 0 0 566.9 566.9;" xml:space="preserve">
<style type="text/css">
	.st0{fill:#FFFFFF;}
</style>
<g id="Layer_2">
	<path d="M197.7,132.6c6.7,2.4,11.6,0.9,17.3-2.6c3.3-2,8.3-3.4,9.7-7.4c1.7-4.8,0.5-12-1.2-16.6c-1.9-5.2-6.6-8.3-11.8-10
		c-2.4-0.8-10.3-3.2-12.1-0.5c-1.4,2.2-3.7,2.6-5.7,2.1c-7.1,4.6-8.8,16.5-6.8,24C188.6,126.9,192.5,130.8,197.7,132.6z"/>
	<path d="M460.3,410.5c-0.8-27.4-4.7-54.8-7.4-82.1c-2.8-27.8-5.7-55.5-8.8-83.3c-3.1-27.8-6.1-55.7-9.7-83.5
		c-3.2-24.2-7.6-48.6-18.2-70.8c-17.9-37.3-54.6-63.7-95.3-70.3c-7-1.1-14-1.6-21.1-1.5c-0.4-0.6-0.9-1.1-1.6-1.2
		c-38.5-9.7-80.4,2.6-109.3,29.3c-16.6,15.3-26.5,34.7-33.9,55.8c-8.9,25.1-16.1,50.7-21.8,76.7c-11.4,51.7-18.6,105.1-19.7,158.1
		c-0.5,26,0.9,52.3,6.1,77.9c4.7,23.6,11.8,49.1,25.3,69.3c12.8,19.1,35.4,30,56.3,37.9c19.5,7.4,40.1,12,60.9,13.7
		c42.3,3.6,85.8-4.6,123.8-23.6c19.4-9.7,38.4-22.4,53.2-38.3C455.7,456.9,461,434.5,460.3,410.5z M340.1,108.8
		c0.2-0.8,0.3-1.6,0.5-2.4c-0.1-2.7,0.1-5.5,1.3-8c1.5-3.1,4.3-5.3,6.9-7.4c0.2-0.2,0.4-0.3,0.6-0.5c0.7-1.2,1.9-1.9,3.1-2.2
		c5.7-3.6,12-5.6,19-5.1c6.3,0.4,13.4,1.8,18,6.4c4.7,4.8,7.9,12.2,8.5,18.9c1.2,13.1-6.2,27.8-18.6,32.9
		c-13.7,5.7-29.1,0.3-37.4-11.6C337.8,123.8,338.7,115.9,340.1,108.8z M260.4,153.6c3.8-2.6,7.3-5,10.6-8.3
		c3.4-3.3,6.7-6.6,10.4-9.5c0.4-0.3,0.9-0.6,1.3-0.8c1.8-1.5,4.5-2,6.7,0c5.6,5,12.5,8.2,18.2,13c5.7,4.8,11.1,10.7,15.8,16.5
		c8.2,4.6-7.2,18.2-10.3,21.5c-5.1,5.5-9.8,10.9-13.8,17.3c-3.7,5.8-8.3,11.1-11.7,17c-1.1,2-2.9,2.6-4.7,2.4c-1.5,0-3-0.7-4-2.4
		c-2.1-3.5-4.7-6.6-6.6-10.3c-2.3-4.5-4.2-9.1-6.5-13.5c-4.2-7.9-9.7-15.6-13-23.9C249.7,164.2,253.4,158.3,260.4,153.6z
		 M193.9,86.7c0.4-0.1,0.8-0.2,1.2-0.2c9.3-5.5,24.9,0.8,31.9,7.1c5.2,4.8,7.1,11.8,7.9,18.6c0.6,5.5,0.8,12-2.2,16.9
		c-3.1,5.2-9,7.3-13.9,10.3c-6.4,4-12.9,5.2-20.5,3.7c-13.6-2.8-22.3-14.5-21.8-28.2C176.8,103,181.7,90.6,193.9,86.7z M402.7,442.8
		c-64.1,74.8-141.2,62.5-155.8,58.5c-13.1-3.6-25.6-11-37-18.3c-11.2-7.2-21.9-15.6-30.7-25.6C153.5,429.3,119,339,157,279.8
		c97-88.1,201.3-39.9,212.8-32.3c11.6,7.7,21.8,15.6,30.4,26.7C413.5,291.3,445,363.3,402.7,442.8z"/>
	<path d="M388,107.8c-1.1-5.9-4.7-12-10.7-13.5c-5.6-1.3-11.4-1.4-16.7,0.9c-0.6,1.6-1.9,2.9-4,3.1c-1.8,2.3-5,6.6-6,9.6
		c0,0.7-1.1,2.9-1.4,5.7c-0.8,5-0.3,9.7,3.7,13.6c5.3,5.2,10.7,7.1,18,6.3c5.8-0.6,10.3-4,13.3-8.8C387.3,119.9,389,113.5,388,107.8
		z"/>
</g>
<g id="Layer_3">
	<g>
		<g>
			<path class="st0" d="M168,448.2c6,7.7,13.7,14.2,21.1,20.5c10.5,8.9,21.7,17.2,33.7,24c11.5,6.5,23.3,11,36.6,11.6
				c15.5,0.7,31.1-1.8,46.1-5.3c13.5-3.1,26.9-7,39.9-11.9c15.9-6,31.8-12.9,44.7-24.2c12.5-10.9,20.7-25.8,26.2-41.3
				c4.3-12,7.7-24.8,8.9-37.5c2.1-22.2-0.2-45.2-5.6-66.8c-5.9-23.6-16.8-47.9-36.9-62.7c-26.3-19.3-60.3-23.8-92-21.3
				c-29.4,2.3-60.1,7.6-86.2,22c-29.5,16.2-51.1,42.9-59.2,75.7c-8.5,34.4-2.6,70.6,13.4,102C161.4,438.2,164.4,443.4,168,448.2
				c1.5,2.1,3.3-0.5,3.8-2c0.8-2.3,0.5-5.5-1-7.5c-8.2-11-13.8-24.4-17.9-37.4c-5.1-16.3-7.3-33.4-5.4-50.4
				c3.7-32.9,21.6-61.4,49.2-79.5c24.3-16,52.3-22.1,80.8-25.8c29.4-3.8,60.3-3.1,87.5,9.9c11.9,5.7,22.4,13.2,30.4,23.7
				c7,9.2,12.1,19.9,15.8,30.8c6.9,20.4,9.8,42.5,9.2,64c-0.3,9.1-1.8,17.7-4.1,26.5c-3.9,15.3-9.5,30.5-19.4,42.9
				c-10.6,13.3-25.3,21.6-40.7,28.1c-12,5.1-24.4,9.4-37,13c-14.4,4-29.2,7.2-44.2,8.4c-12.6,1-25.1,0.6-36.9-4.2
				c-22.5-9-43.1-25.3-60.1-42.3c-2.5-2.5-4.9-5-7-7.7c-1.6-2-3.3,0.5-3.8,2C166.2,443,166.4,446.2,168,448.2z"/>
		</g>
	</g>
	<path d="M537.9,420.6c-1.7-9.6-3.5-19.2-5.4-28.8c-7.1-35-14.6-71.3-29.9-103.7c-7.1-15.1-16.1-27.7-28-39.3
		c-10.8-10.6-22.5-20.4-33.1-31.2c-3.3-3.3-4.2,4.5-4,6.2c3.7,36.5,7.5,72.9,11.2,109.4c0.5,5.3,1.1,10.5,1.6,15.8
		c0,0.1,0,0.1,0,0.2c0.1,1.3,0.5,2.5,1.2,3.1c11.7,10.1,23.2,22.7,29.9,36.8c3.5,7.2,5.6,15.2,8.2,22.8c3.5,10.2,7,20.5,11.1,30.5
		c2.8,7,5.5,14.5,12.6,18.1c5.5,2.7,12.4,3.6,18,0.7c5.8-3.1,8.4-9.7,9.1-15.9C541.4,437,539.4,428.6,537.9,420.6z"/>
	<path d="M23.2,445.2c0.7,6.2,3.3,12.8,9.1,15.9c5.6,2.9,12.5,2.1,18-0.7c7.2-3.6,9.8-11.1,12.6-18.1c4.1-10,7.6-20.3,11.1-30.5
		c2.6-7.6,4.8-15.5,8.2-22.8c6.7-14.1,18.2-26.7,29.9-36.8c0.7-0.6,1.1-1.8,1.2-3.1c0-0.1,0-0.1,0-0.2c0.5-5.3,1.1-10.5,1.6-15.8
		c3.7-36.5,7.5-72.9,11.2-109.4c0.2-1.7-0.8-9.5-4-6.2c-10.6,10.8-22.3,20.6-33.1,31.2c-11.9,11.7-20.8,24.2-28,39.3
		c-15.3,32.5-22.8,68.7-29.9,103.7c-1.9,9.6-3.7,19.2-5.4,28.8C24.4,428.6,22.4,437,23.2,445.2z"/>
	<g>
		<g>
			<g>
				<path d="M429.7,543.2c0.5-11.3-3.7-24.9-14.3-30.7c-5.8-3.1-12.6-2.8-18.9-2.3c-7.7,0.6-15.1,2.5-22.5,4.8
					c-14.9,4.7-28.6,13-44.1,15.5c-15.5,2.5-31.4,1.2-47,1.5c-1.7,0-2.5,2.7-2.7,4c-0.5,5.6-1,11.3-1.5,16.9c-0.1,1.6-0.2,7,2.7,7
					c12.4-0.3,24-0.5,35.2-0.6c10.1-0.1,20.3,0.2,30.4-0.7c3.1-0.3,6.2-0.8,9.3-1c17.4-1.2,34.9-2.5,52.3-3.7
					c5.9-0.4,11.7-0.8,17.6-1.2c1.4-0.1,2.1-1.6,2.4-2.7C429.2,547.8,429.7,545.6,429.7,543.2c0-1.6-0.5-5.5-2.8-5.5
					c-2.3,0-2.7,4-2.8,5.5c0.1-0.9,0-0.5-0.4,1.2c0.8-0.9,1.6-1.8,2.4-2.7c-14.5,1-29.1,2.1-43.6,3.1c-19.3,1.4-38.8,3.6-58.1,3.6
					c-14.4,0-28.7,0.2-43.1,0.6c0.9,2.3,1.8,4.6,2.7,7c0.5-5.6,1-11.3,1.5-16.9c-0.9,1.3-1.8,2.7-2.7,4c13.6-0.2,27.2,0.7,40.8-0.7
					c13.8-1.4,25.4-6.6,38.1-11.7c12.9-5.2,26.1-9.4,40.1-9.7c6.1-0.1,11.8,0.8,16.2,5.3c4.5,4.5,6.5,10.7,6.2,17
					c-0.1,1.6,0.5,5.5,2.8,5.5C429.3,548.7,429.6,544.7,429.7,543.2z"/>
			</g>
		</g>
	</g>
	<g>
		<g>
			<g>
				<path d="M139.8,543.2c-0.6-13.2,8.6-22.4,21.6-22.3c14.3,0.2,27.8,4.5,40.9,9.7c12.4,5,23.7,10.2,37.2,11.6
					c13.8,1.5,27.8,0.5,41.7,0.7c-0.9-1.3-1.8-2.7-2.7-4c0.5,5.6,1,11.3,1.5,16.9c0.9-2.3,1.8-4.6,2.7-7
					c-11.8-0.3-23.5-0.5-35.2-0.6c-10.1-0.1-20.3,0.2-30.4-0.7c-3.1-0.3-6.2-0.8-9.3-1c-17.4-1.2-34.9-2.5-52.3-3.7
					c-5.9-0.4-11.7-0.8-17.6-1.2c0.8,0.9,1.6,1.8,2.4,2.7C139.9,542.7,139.7,542.3,139.8,543.2c0-1.6-0.5-5.5-2.8-5.5
					c-2.3,0-2.8,4-2.8,5.5c0,2.3,0.5,4.6,1.1,6.8c0.3,1.1,1,2.6,2.4,2.7c14.5,1,29.1,2.1,43.6,3.1c19.3,1.4,38.8,3.6,58.1,3.6
					c14.8,0,27.6,0.2,43.1,0.6c2.8,0.1,2.8-5.4,2.7-7c-0.5-5.6-1-11.3-1.5-16.9c-0.1-1.3-0.9-4-2.7-4c-15.4-0.2-30.9,1-46.1-1.3
					c-15.9-2.4-29.8-10.8-45-15.6c-7.1-2.2-14.2-4.1-21.6-4.7c-6.4-0.6-13.4-1.1-19.3,1.9c-11,5.5-15.4,19.6-14.9,31
					c0.1,1.6,0.4,5.5,2.8,5.5C139.3,548.7,139.9,544.7,139.8,543.2z"/>
			</g>
		</g>
	</g>
</g>
</svg>
