<?xml version="1.0" encoding="utf-8"?>
<!-- Generator: Adobe Illustrator 23.0.1, SVG Export Plug-In . SVG Version: 6.00 Build 0)  -->
<svg version="1.1" xmlns="http://www.w3.org/2000/svg" xmlns:xlink="http://www.w3.org/1999/xlink" x="0px" y="0px"
	 viewBox="0 0 566.9 566.9" style="enable-background:new 0 0 566.9 566.9;" xml:space="preserve">
<style type="text/css">
	.st0{display:none;}
</style>
<g id="Layer_3" class="st0">
	
		<image style="display:inline;overflow:visible;" width="225" height="225" xlink:href="../References/dog.png"  transform="matrix(1 0 0 1 22.0429 185)">
	</image>
	
		<image style="display:inline;overflow:visible;" width="225" height="225" xlink:href="../References/cat.png"  transform="matrix(1 0 0 1 -427.5 594.5)">
	</image>
</g>
<g id="Layer_2">
	<g>
		<path d="M180,284.5c-15.3,7.6-32.5,6.3-48.8,3.7c-1.7-0.3-2,5.2,0,5.5c16.6,2.6,34,3.8,49.5-3.9C182.4,289,181.8,283.6,180,284.5z
			"/>
		<path d="M237.2,223.3c2.4-2.7,4.9-5.3,7-7.9c0.5,1.2,1.2,2,2.2,1.8c13.8-2.6,26.6-8.4,37.5-17.4c10.1-8.3,20.6-19.7,20.5-33.6
			c-0.1-15.1-5.8-29.5-16.6-40c-10.6-10.4-23.5-19.4-37.3-25c-16-6.5-33.7-7.8-49.9-1.3c-0.9,0.4-1.5,1.5-1.8,2.9
			c-8.9-2-17.9-3.1-27.2-3.8c-13.5-1.1-27.3-3.4-40.8-1.6c-7.2,1-14.2,2.8-21,5.2c-0.3-0.7-0.8-1.2-1.4-1.5
			c-29.8-12-60.4,2.9-82.9,22.4C13.5,133.7,6.7,146,4.9,161.6c-0.8,7.2-0.3,14.1,3.5,20.5c3.5,5.9,8.1,11.1,13.1,15.7
			c11.5,10.6,25.6,17.6,41,20.4c0.5,0.1,0.9,0,1.2-0.3c0.5,1.1,1.1,2.1,1.8,3.1c2.7,3.6,6.7,6.2,10.4,8.8c1.3,0.9,2.4,1.7,3.5,2.6
			C59.3,275.7,44.8,321,34.1,367.6c-10.7,46.6-19.3,94-25.7,141.4c-3.8,28-5.7,56.3-2.5,84.5c0.2,1.8,1.2,4.5,3.4,3.8
			c2.1-0.7,2.1-5.2,1.9-6.8c-5.4-47.9,4.8-96.5,13-143.5c7.9-45.3,17.2-90.5,31-134.4c7.9-25.1,17.5-49.5,28.7-73.4
			c0.2-0.4,0.4-1,0.5-1.5c0.6,0.9,1.1,2,1.5,3.2c2.6,7.5,4.7,15.1,7.3,22.6c3.8,11.1,6.8,22.9,13.4,32.8c6.3,9.6,16.4,15.7,26.4,21
			c8.3,4.4,17,4.4,26.2,4.1c0.1,0,0.2,0,0.3,0c0.1,0,0.3,0,0.4,0c11.8-1.6,23.5-2.6,32.9-10.8c15.5-13.5,21.5-36.4,28.6-54.9
			c1-2.7,2-5.3,3-8c12.7,37.3,26.1,74.5,37.6,112.2C273.6,398,279,437,280.2,476.9c0.7,22.6,0.3,45.2-0.1,67.7
			c0,1.6,0.5,5.5,2.8,5.5c2.3,0,2.7-4,2.8-5.5c0.8-40.4,1.2-81-3.8-121.2c-5.1-40.3-17.8-78.3-30.8-116.6
			c-7.6-22.4-15.2-44.7-22.8-67.1c-0.2-0.6-0.4-1-0.6-1.4c0.3-0.8,0.6-1.6,0.9-2.4C230.4,231,233.6,227.2,237.2,223.3z M252.2,113.1
			c14,6.3,28.8,16.3,38.3,28.6c5,6.5,8.1,15.1,8.3,23.4c0.2,7.8-6.7,14.8-12,19.9c-10,10-22.9,16.9-36.6,20.2c0.8-2,1.4-4.2,1.8-6.6
			c1.9-13.5,1.6-27.3,0.6-40.9c-0.5-6.8-1-13.7-1.8-20.5c-0.6-5-1.6-10.4-4.9-14.3c-3.8-4.4-10.1-6.4-15.2-8.7
			c-5.6-2.5-11.3-4.9-17-7.1C226.7,105.2,240.2,107.7,252.2,113.1z M10,166.2c0.2-8.3,3.3-16.9,8.3-23.4
			c9.5-12.3,24.3-22.3,38.3-28.6c11.8-5.3,25.1-7.8,37.8-5.9c-0.4,0.2-0.8,0.3-1.2,0.5c-5.4,2.2-11.4,4.2-15.7,8.3
			c-4.3,4-6.2,9.8-8.3,15.1c-4.7,12.3-8.4,25-10.1,38c-1.6,12.2-1.5,24.6,1.2,36.6C46,203.7,32.5,196.6,22,186.2
			C16.8,181,9.8,174,10,166.2z M222.2,234.9c-4.8,13.4-9.8,26.8-15.4,39.9c-3.6,8.5-7.8,17-14.3,23.7c-9,9.3-21,10.2-33.1,11.8
			c-7.6,0.2-15.4,0.7-22.5-2.5c-7.8-3.5-16.7-8.5-22.6-14.6c-6.8-7-10.2-16.3-13.2-25.3c-3.6-10.9-7-21.8-10.6-32.6
			c-1.2-3.6-2.4-6.9-5-9.7c-2.9-3.1-6.7-5.4-10.1-7.9c-2.7-1.9-5.9-4-7.5-7.1c-2.7-5.1-3.4-12.2-3.9-17.9c-1.1-12,0.7-24.1,3.8-35.7
			c1.4-5.4,3.2-10.8,5.1-16.1c2.1-5.8,4.1-12.2,9.5-15.9c4.7-3.2,10.6-5,15.9-7.2c5.7-2.3,11.4-4.5,17.3-6.3
			c12.4-3.8,24.7-4.6,37.6-3.5c12.3,1.1,24.7,1.7,36.9,3.6c12.6,2,24.4,6.5,36,11.6c4.9,2.2,10.5,4,15,7.1
			c5.4,3.7,4.8,10.9,5.4,16.8c1.2,12.8,2.1,25.7,1.4,38.5c-0.3,4.7-0.2,10.5-2.4,14.7c-2.2,4.2-5.8,7.7-8.9,11.1
			c-2.9,3.1-5.9,6.2-8.3,9.8C225.2,225.6,223.9,230.2,222.2,234.9z"/>
		<path d="M126.3,180.6c0-0.5,0-1.2-0.1-1.9c-1.1-10-7.4-19.5-18.6-19.6c-11.5,0-18.8,10.8-18.7,21.5c0,10.7,7.2,21.5,18.7,21.5
			c11.2,0,17.6-9.7,18.6-19.7C126.3,181.7,126.4,181,126.3,180.6z M94.4,180.6c0-6.4,7.7-10.5,13.2-10.5c5.6,0,12.5,3.8,13.2,9.9
			c-1.9-3-5.2-5-8.9-5c-5.8,0-10.5,4.7-10.5,10.5c0,1.6,0.4,3.2,1,4.5C98.2,188.5,94.4,185.1,94.4,180.6z"/>
		<path d="M222.1,178.7c-1.1-10-7.4-19.5-18.6-19.6c-11.5,0-18.8,10.8-18.7,21.5c0,10.7,7.2,21.5,18.7,21.5
			c11.2,0,17.6-9.7,18.6-19.7c0.1-0.7,0.1-1.3,0.1-1.7C222.3,180.1,222.2,179.4,222.1,178.7z M205.8,190.9c0.9-1.6,1.5-3.4,1.5-5.3
			c0-5.8-4.7-10.5-10.5-10.5c-2,0-3.8,0.6-5.4,1.5c2.3-4,7.8-6.4,12.1-6.4c5.7,0,13,4.1,13.2,10.5C216.5,186.2,211,190,205.8,190.9z
			"/>
		<path d="M179.3,227.1c-6.2-3.1-15.1-2.5-21.8-2.8c-6.7-0.3-15.2-0.8-21.2,2.9c-4.4,2.7-8.4,7.6-10.1,12.6c-0.5,0.8-0.7,1.9-0.7,3
			c-0.3,2.1-0.4,5,1.2,6.4c0.4,0.3,0.7,0.5,1,0.6c3,4.8,7.6,9,11.4,12.9c5,5.1,9,8.9,15.9,9.9c0.3,0.2,0.6,0.2,0.9,0.2
			c0.2,0,0.3,0,0.5,0c0.2,0,0.3,0,0.5,0c0.3,0,0.7-0.1,0.9-0.2c6.9-1,10.9-4.8,15.9-9.9c3.6-3.7,7.9-7.7,10.9-12.1
			c2.2,1.2,4.3-4.8,3.2-7.9C185.9,237.6,184.6,229.8,179.3,227.1z M171.7,252.3c-4.8,5-8.3,8.7-15.3,9.3c-7.1-0.6-10.5-4.4-15.3-9.3
			c-2.7-2.8-6.1-5.9-8.7-9.3c2.1-3,5.5-5.6,8.5-6.6c5.2-1.7,11.2-1.4,16.6-1.1c5.4,0.2,10.8,0.5,16.1,1.3c2.8,0.4,5,1,6.5,3.5
			c0.4,0.6,0.7,1.3,1,2C178.5,245.9,174.7,249.3,171.7,252.3z"/>
	</g>
	<g>
		<path d="M387.6,325.9c0.1,0.2,0.2,0.4,0.4,0.6c6.3,8.3,12.6,16.6,18.9,24.9c1.5,2,3.2-0.4,3.7-1.9c0.6,0.2,1.2,0.1,1.7-0.7
			c5.5-8.2,11.3-16.2,17.5-23.8c1.1-1.4,1.5-3.4,1.4-5.4c0.3-3.1-0.6-6.6-2.8-6.6c-13.4,0.1-26.8,0.8-40.1,1.9
			C384.4,315.3,384.5,325.1,387.6,325.9z M409.5,339.4c-0.3,0.5-0.5,0.9-0.7,1.4c-3.9-5.2-7.8-10.3-11.7-15.5
			c7.7-0.5,15.5-0.9,23.2-1.1C416.5,329.2,412.9,334.2,409.5,339.4z"/>
		<path d="M451.2,334.7c8.3-3.4,17.7-4.1,26.2-6.8c8.7-2.8,18.6-3.1,26.9-6.7c1.7-0.7,1.2-6.1-0.7-5.3c-4.7,2-10.2,2.4-15.2,3.5
			c-3.9,0.9-7.9,1.9-11.7,3.1c-8.6,2.8-17.9,3.4-26.2,6.8C448.8,330.1,449.2,335.5,451.2,334.7z"/>
		<path d="M510.4,334.1c-10.1-0.7-20.2-1.4-30.3-0.7c-10.1,0.8-20.1,2.5-30.3,2.3c-1.9,0-1.9,5.3-0.1,5.5c-1.6-0.1-1.8,5.1,0.1,5.5
			c17.7,3.6,35.1,8.9,52.5,13.5c1.6,0.4,2-5,0-5.5c-17.4-4.6-34.8-9.9-52.5-13.5c10.1,0.2,20.1-1.5,30.2-2.3
			c10.1-0.8,20.2-0.1,30.3,0.7C512.2,339.7,512.3,334.2,510.4,334.1z"/>
		<path d="M315.3,320.7c8.4,3.5,18.3,3.6,27,6.3c8.6,2.6,18,3.2,26.3,6.5c2,0.8,2.4-4.6,0.7-5.3c-8.4-3.3-17.7-3.8-26.3-6.5
			c-3.9-1.2-7.8-2.2-11.7-3c-5-1-10.5-1.4-15.2-3.3C314.1,314.6,313.6,320,315.3,320.7z"/>
		<path d="M339.8,339.1c10.1,0.6,20.1,2.2,30.3,1.9c1.9-0.1,1.9-5.6,0-5.5c-10.2,0.3-20.2-1.3-30.3-1.9c-10.1-0.6-20.2,0.2-30.3,1.1
			c-2,0.2-1.8,5.7,0,5.5C319.5,339.3,329.6,338.5,339.8,339.1z"/>
		<path d="M370.1,342c-17.7,3.8-35.2,9.5-52.7,14.3c-1.7,0.5-1.4,5.9,0.7,5.3c17.3-4.8,34.5-10.3,52-14.1
			C372.1,347,371.8,341.6,370.1,342z"/>
		<path d="M385.2,276.1c0.2-0.7,0.2-1.5,0.3-2.2c0-1,0-2.4-0.3-3.6c-3.5-17.4-38.2-16-38.2,3C346.9,292.4,381.9,293.7,385.2,276.1z
			 M379.5,273.3c-1.4,2-5.3,3.1-8.6,3.6c0.2-1.1,0.3-2.3,0.3-3.6c0-1.3-0.1-2.5-0.3-3.6C374.2,270.3,378.1,271.3,379.5,273.3z
			 M354.2,272.6c0.9-0.7,1.9-1.1,2.9-1.6c1.4-0.6,2.9-1,4.4-1.3c-0.2,1.1-0.3,2.3-0.3,3.6c0,1.3,0.1,2.5,0.3,3.6
			c-1.3-0.2-2.6-0.6-3.8-1c-1.2-0.5-2.5-1.1-3.5-1.8c-0.2-0.2-0.5-0.5-0.7-0.8C353.7,273.1,353.9,272.8,354.2,272.6z"/>
		<path d="M468.8,276.1c0.2-0.7,0.2-1.5,0.3-2.2c0-1,0-2.4-0.3-3.6c-3.5-17.4-38.2-16-38.2,3C430.5,292.4,465.5,293.7,468.8,276.1z
			 M463.1,273.3c-1.3,1.8-4.5,2.8-7.5,3.4c0.2-1.1,0.3-2.2,0.3-3.4c0-1.2-0.1-2.3-0.3-3.4C458.6,270.5,461.8,271.5,463.1,273.3z
			 M437.7,272.6c0.9-0.7,1.9-1.1,2.9-1.6c1.8-0.8,3.6-1.2,5.5-1.5c-0.2,1.2-0.3,2.4-0.3,3.8c0,1.3,0.1,2.6,0.3,3.8
			c-1.7-0.2-3.3-0.6-4.9-1.2c-1.2-0.5-2.5-1.1-3.5-1.8c-0.2-0.2-0.5-0.5-0.7-0.8C437.2,273.1,437.5,272.8,437.7,272.6z"/>
		<path d="M456,374.8c-28.1,14.2-60.5,11.7-90.7,6.9c-1.7-0.3-2,5.2,0,5.5c30.4,4.9,63.1,7.2,91.4-7.1
			C458.4,379.3,457.9,373.9,456,374.8z"/>
		<path d="M576.8,552.9c-5.7-38.3-24.5-71.9-37.9-107.7c-7.7-20.7-14.2-41.8-20.7-62.8c8.3-7.6,15.4-16.4,20.7-26.4
			c11.5-21.7,17-47,14.7-71.5c-1.8-19.3-9.2-37.7-20.6-53.3c-0.1-0.6-0.2-1.1-0.3-1.5c-7.6-34.7-24.8-65.8-54.1-86.3
			c-0.5-1.3-1.4-2-2.5-1.7c-0.1-0.1-0.2-0.2-0.4-0.2c-1.1-0.8-2.1,0.1-2.6,1.7c-6.9,3.9-12.4,10.3-17.3,16.3
			c-5.9,7.2-11.1,15-15.3,23.2c-6.6,12.8-10.7,26.5-12.3,40.7c-6.6-2.8-14.1-3.1-21.3-3.2c-6.4-0.1-12.9,0.3-19,2.1
			c-1.7-13.8-5.8-27.1-12.2-39.5c-4.1-8-9.1-15.6-14.8-22.5c-5.1-6.3-10.7-12.9-17.9-17c-0.6-1.6-1.5-2.5-2.6-1.7
			c-0.1,0.1-0.2,0.2-0.4,0.2c-1.1-0.3-1.9,0.4-2.5,1.7c-29.3,20.5-46.5,51.6-54.1,86.3c0,0.1-0.1,0.3-0.1,0.4
			c-23.4,25.1-30.7,62.7-20,95.3c3.1,9.6,7.8,18.5,13.1,27c4.5,7.3,9,15.3,14.8,21.5c5.2,5.6,11.1,11,17.3,15.9
			c-11.3,30.1-22,61.3-28,92.9c-6.4,33.9,1.2,67.7,6.3,101.3c0.3,1.7,1.1,4.6,3.4,3.8c2.1-0.7,2.2-5.2,1.9-6.8
			c-4.9-32.3-12.4-64.8-5.9-97.3c6.1-30.6,16.7-60.7,27.6-89.9c2.6,1.9,5.2,3.7,7.9,5.4c8.1,5.2,17.6,9.1,26.5,12.8
			c9.5,3.9,19.3,6.9,29.4,8.8c20.3,3.7,41.3,3,61.5-1.2c25.6-5.3,52.9-15.9,73.9-33.1c0,0.1,0.1,0.3,0.1,0.4c5.5,18,11,36,17.3,53.7
			c6.1,17.3,13.3,34,20.6,50.8c7.2,16.6,14,33.4,18,51.1c4,17.8,5.2,36.2,4.3,54.4c-1,20.8-5,41.3-11,61.2c-0.6,2-0.8,6,1,7.5
			c1.8,1.6,3.2-0.1,3.8-2C577.9,628.2,582.3,590.1,576.8,552.9z M391.6,411.9c-19.6-1.7-37.7-7.9-55.3-16.4
			c-12.4-6-22.7-13.3-33-22.4c-11.2-9.8-19.1-21.6-26.4-34.5c-9.4-16.7-14.5-35-11.9-54.2c2.5-18.9,11.7-35.9,25.5-48.9
			c1.7-1.6,1.5-6.8,0.1-9.1c8.2-29.6,24.1-55.5,49.9-73.2c6.8,3.4,11.9,9.4,16.7,15.2c5.3,6.4,10.1,13.3,14,20.7
			c5.9,11,9.9,22.9,11.5,35.3c-0.8,0.4-1.5,0.8-2.3,1.2c-3.2,1.8-2,12.6,1.5,10.6c0.6-0.3,1.2-0.6,1.8-0.9c0.3,1.6,1,3.3,2.5,3.3
			c2.2,0,2.8-3.8,2.8-5.4c5.8-1.7,11.9-2,18.1-2c7.1,0.1,14.3,0.4,20.7,3.2c0.2,1.8,1,4.1,2.7,4.1c0.9,0,1.5-0.6,1.9-1.5
			c2.7,1,4-8.3,1.3-10.6c1.4-13.1,5.5-25.7,11.7-37.3c3.8-7.1,8.3-13.8,13.5-20c4.9-6,10.2-12.3,17.2-15.8
			c24.7,16.8,40.3,41.2,48.8,69.2c-2,0.9-2.9,8.1-1,10.1c12.5,14.2,21.5,31.6,24.2,50.5c2.9,20.7-1.6,42-10.5,60.7
			c-16.4,34.8-54.9,54.6-90.8,63.6C428.7,411.7,410,413.5,391.6,411.9z"/>
	</g>
</g>
</svg>
