<?xml version="1.0" encoding="utf-8"?>
<!-- Generator: Adobe Illustrator 23.0.1, SVG Export Plug-In . SVG Version: 6.00 Build 0)  -->
<svg version="1.1" id="Layer_2" xmlns="http://www.w3.org/2000/svg" xmlns:xlink="http://www.w3.org/1999/xlink" x="0px" y="0px"
	 viewBox="0 0 566.9 566.9" style="enable-background:new 0 0 566.9 566.9;" xml:space="preserve">
<style type="text/css">
	.st0{fill:#010101;}
</style>
<g id="dog">
	<path class="st0" d="M128.5,301.3c-8.1-3.6-16.2,3.2-21.4,8.8c-6.6,7.2-11.5,16.1-15.6,24.9c-9.7,20.9-12.3,46.4-0.7,67.1
		c5.8,10.3,14.7,18.7,25.8,23c10.4,4,21.9,4.2,32.6,1.2c10.7-3,21.1-10.1,27.2-19.6c6.3-9.8,6.9-21.9,5.5-33.1
		c-1.7-13.7-6.1-27.9-12.1-40.3c-6.3-13-17.4-24.5-31.7-28.3c-2.2-0.6-5.4,3.4-2.8,4.7c5.3,2.7,10.7,5.4,15.3,9.2
		c4.5,3.7,8.2,8.2,11.2,13.1c3,4.9,5.1,10.3,7.1,15.7c2,5.4,3.8,10.9,5.2,16.4c2.9,11.2,4.5,23.5,0.9,34.7
		c-3.3,10.6-13.4,18.3-23.5,22c-10.5,3.8-22.4,3.5-32.8-0.5c-11.4-4.5-20.2-13.6-25.5-24.5c-10.2-21.2-5.5-45.6,4.7-65.7
		c3.4-6.7,7.3-13.2,12.3-18.8c4.4-5,10.1-8.8,17-7.7C128.2,303.6,129.7,301.9,128.5,301.3L128.5,301.3z"/>
	<path class="st0" d="M116.6,347.9c-1.7,2.3-3.5,4.8-3.2,7.9c0.2,2.1,1.7,3.6,3.7,4.1c2.5,0.6,5-0.9,6.7-2.7c2-2.2,2.6-5.2,2.4-8
		c-0.3-3.3-1.8-7.3-5.9-6.1c-3.7,1.1-6,5-6.8,8.6c-0.6,3-0.7,6.6,2.7,7.7c2.8,1,6-2,7.5-4c1.7-2.3,2.6-5.3,2.4-8.1
		c-0.1-1.2-0.8-1.8-1.9-2.1c-3.5-1.1-6.8,0.3-8.7,3.4c-1.2,2-0.8,4.7,0,6.8c0.9,2.4,2.7,4,5.4,3.3c3.9-1.1,4.3-5.6,4.2-8.9
		c-0.1-3.6-5-2.3-6.3-0.3c-1.8,2.8-3,6.4-0.5,9.2c1.3,1.5,3.4-0.1,4.1-1.3c0.6-1,1-1.9,1.4-3c0.2-0.6,0.1-1.4,0.4-1.9
		c-2.1-0.1-4.2-0.2-6.3-0.3c0,0.5,0.1,1,0.1,1.5c0,0.2,0,0.4,0,0.6c0,0.9,0.1-0.6,0,0.2c0,0.3-0.3,1.2,0.1,0c0.4-1,2.4-2.4,3.9-2.2
		c0.7,0.1,0.3,0,0.8,0.4c-0.2-0.1-0.3-0.3-0.4-0.5c-0.5-0.6,0.2,0.5,0,0c-0.1-0.3-0.3-0.5-0.4-0.8c-0.1-0.2-0.2-0.5-0.2-0.7
		c-0.1-0.3-0.1-0.2,0,0.2c0-0.2-0.1-0.4-0.1-0.6c0-0.2,0-0.5,0-0.7c0,1.3,0.3-0.8-0.2,0.5c0.3-0.8-0.5,0.6-0.1,0.1
		c-0.3,0.4-0.6,0.7-1.1,0.9c0.5-0.4-0.9,0.3-0.2,0.1c-1.2,0.4,0.5,0.1-0.4,0.1c0.5,0,1,0.2,1.4,0.3c-0.6-0.7-1.2-1.4-1.9-2.1
		c0.1,1.1,0.1,1.3-0.2,2.4c0.2-0.6-0.2,0.5-0.3,0.6c-0.1,0.2-0.2,0.4-0.3,0.5c0.4-0.7-0.1,0-0.1,0.2c-0.6,0.9,0.2-0.2-0.2,0.2
		c-0.3,0.3-0.2,0.2,0.2-0.1c-0.2,0.2-0.9,0.4,0.1,0c-0.6,0.2,1.1,0.1,0.6,0c0.5,0.1,0.4,0.1,0.6,0.4c-0.5-1-0.1-3.8,0.7-4.9
		c0.1-0.2,0.3-0.4,0.4-0.6c-0.2,0.2-0.2,0.2,0.1-0.1c0.4-0.4-0.3,0.1-0.7,0.1c-0.2,0,0,0,0.2,0.2c0.3,0.4,0.4,1.1,0.5,1.6
		c0.2,1,0.3,2,0.2,3c-0.1,0.4-0.2,0.8-0.3,1.2c0.1-0.4-0.6,1-0.2,0.4c-0.1,0.1-0.2,0.3-0.3,0.4c0.3-0.3,0.3-0.3,0,0
		c-0.6,0.6,0.2-0.1-0.5,0.3c0.6-0.3-0.2,0-0.3,0.1c-0.3,0.1-0.3,0.1,0,0c-0.2,0-0.4,0-0.6,0.1c0.5,0-0.2,0-0.4-0.1
		c-0.2,0-0.1,0-0.5-0.3c-0.2-0.1-0.5-0.5-0.7-0.9c-0.7-1.7,0.2-4.2,1-5.7C118.8,347.3,117.1,347.1,116.6,347.9L116.6,347.9z"/>
	<path class="st0" d="M139.3,347.7c-1.5,3.2-1.6,7.1-0.8,10.5c1,4.2,5.7,5.5,8.5,2.2c4.1-4.9,1.4-17.1-5.8-17.5
		c-1.8-0.1-4.3,1.1-4.5,3.2c-0.6,5.4,0.1,13.4,6.8,14.5c2.3,0.4,4.3-1.5,4.9-3.5c1.4-4.3-0.1-9.5-4.2-11.8c-2.4-1.3-5.3,1.2-5.9,3.4
		c-1.1,4-0.9,11.3,3.8,13.1c1.7,0.6,4.1-0.6,4.4-2.5c0.4-3.9-2.1-7.1-1.1-11.1c-2,1.1-3.9,2.3-5.9,3.4c2.2,1.2,2.9,3.8,2.2,6.1
		c1.6-1.2,3.3-2.4,4.9-3.5c-3.8-0.5-3.8-6.3-3.6-9.2c-1.3,1.3-2.5,2.7-3.8,4c3.6-0.3,4.4,6.6,3.9,9c-0.1,0.5,0.9-0.6,1-0.6
		c-1-0.4-1.5-1.8-1.8-2.7c-0.7-2-1.2-4.5-1-6.6C141.4,346.4,139.7,346.8,139.3,347.7L139.3,347.7z"/>
	<path class="st0" d="M111.2,376.1c4-7.5,16.1-7.4,23.4-7.6c3.9-0.1,7.7,0.1,11.5,0.6c3.6,0.5,8,1.8,9.9,5.2
		c3.4,6.2-2.4,13.4-7.1,17c-6.2,4.8-13.6,4.5-20.8,2.7c-4.3-1.1-8.9-2.8-12.2-5.8c-1.5-1.3-2.5-2.9-3.1-4.8c-0.6-2,0.2-4-0.3-6
		c-0.5-1.7-3-1.1-3.9-0.2c-3.2,3.3-3.3,8.2-1.1,12.1c2,3.6,5.5,6.1,9.1,7.8c7,3.4,16.1,5.1,23.9,3.5c8.4-1.8,15.7-7.8,19.8-15.3
		c3.5-6.5,3.3-14.5-3.5-18.6c-3.8-2.3-8.6-2.6-12.9-2.8c-4.5-0.2-9.1,0-13.5,0.5c-4.8,0.6-9.6,1.6-14,3.6c-3.3,1.5-6.9,4.1-7.5,7.9
		C108.6,377.6,110.6,377,111.2,376.1L111.2,376.1z"/>
	<path class="st0" d="M128.8,373.2c-4.1-1.1-15.5-0.6-13.6,6.4c1.6,5.8,8.6,5.8,13.2,4.3c3.6-1.2,10-4.4,10.1-8.9
		c0-2.3-2.3-3.1-4.2-3.3c-4.1-0.5-8.8,0.5-12.1,2.8c-0.6,0.4-1.4,1.8-0.2,2.1c2.9,0.7,6.1,0,9-0.2c0.8,0,1.6,0,2.3,0.2
		c0.3,0.1,0.5,0.4,0.4,0.1c0-0.1,0.1-0.5-0.1,0c-0.1,0.3,0.2-0.3-0.2,0.2c-0.2,0.2-0.2,0.2,0,0c-0.2,0.2-0.3,0.3-0.5,0.5
		c-1.1,1-2.4,1.7-3.9,2.4c-2.8,1.2-6.8,2-9.2-0.4c-2.1-2-1.1-3,1.3-3.8c2.3-0.8,4.9-1.2,7.3-1.3C129,374.3,129.5,373.4,128.8,373.2
		L128.8,373.2z"/>
	<path class="st0" d="M113.4,407.5c2.1,6.3,8.4,7.5,14.3,6.6c3.3-0.5,6.1-1.3,8.1-4.2c1.8-2.8,2-6.3,2.1-9.5c0.1-3.1-4.8-1-4.9,1.6
		c0,0.6,0.1,1.1,0.4,1.6c1,1.7,3.3,0.7,3.9-0.8c0.3-0.8,0.5-1.5,0.5-2.3c-0.1-3.1-4.9-1-4.9,1.6c0,2,0,4.1-0.7,6
		c-0.8,2-3.9,2.2-5.8,2.6c-4.8,0.8-8.6-1-12.6-3.5C113.6,406.9,113.3,407.2,113.4,407.5L113.4,407.5z"/>
	<path class="st0" d="M135,406.6c-0.4,5.3,4.3,7.7,9.1,7.9c5.1,0.2,10.8-2.1,14.5-5.6c2.6-2.4-0.1-5.5-2.8-3.2c-1,0.8-1.7,1.7-1.9,3
		c-0.1,0.4,0,0.8,0.4,1.1c1,0.6,2,0.3,3-0.1c-0.5-1.3-1-2.6-1.5-4c-2.7,2.3-6,3.7-9.6,4.1c-4.1,0.5-7.3-1.2-10.4-3.6
		C135.4,405.9,135,406.3,135,406.6L135,406.6z"/>
	<path class="st0" d="M103.8,314.1c-2.7,0.2-5.7-1.2-8.1-2.2c-2.6-1.2-5-2.6-7-4.7c-3-3-5.6-7.9-10.1-9c-4.7-1.2-9.6,2.2-13.3,4.7
		c-4.7,3.2-9.1,7.2-12.3,12c-3,4.5-4,9.1-2.8,14.4c0.9,4.1,4.2,6.5,8.4,6.2c4.3-0.3,8.4-2.9,11.8-5.4c2.3-1.7,4.6-3.4,6.8-5.2
		c3-2.4,6.4-1.9,10-1.4c4.3,0.6,8.6,0.7,12.3-1.9c0.9-0.6,1.7-1.5,1.6-2.6c-0.1-1.3-1.4-1.8-2.5-1.4c-3.2,1.1-5.8,1.4-9.1,1
		c-3.2-0.4-6.2-0.8-9.4-0.1c-2.9,0.6-5.4,2.8-7.7,4.7c-1.9,1.5-3.9,3-6,4.4c-2.5,1.6-6.6,4.3-9.6,2.6c-1.8-1-2.2-3.8-2.5-5.7
		c-0.3-2.4,0.5-4.5,1.5-6.6c2.4-4.8,7-8.7,11.4-11.7c3.6-2.5,8-5.6,12-2.3c3.7,3.1,6.1,7.3,10.4,9.7c4,2.2,9.9,4.9,14.3,2.3
		C104.6,315.5,105,314.1,103.8,314.1L103.8,314.1z"/>
	<path class="st0" d="M149.9,313.9c5.7,2.3,12.6,1.4,17.8-1.6c2.6-1.5,5-3.4,7.5-5.1c2.3-1.6,5.2-3.6,8.1-3.3
		c2.7,0.3,5.2,2.3,7.2,3.9c2.3,1.7,4.5,3.5,6.8,5.3c5.2,3.9,9.4,9.4,9.5,16.1c0.6-1,1.2-1.9,1.8-2.9c-10.1,5.8-24.9-0.9-29.7-10.8
		c-0.6-1.3-2.2-1.4-3.4-0.7c-6.8,4.4-15,2.2-22.6,1.8c-1.3-0.1-3.6,2-1.8,3c7.6,4.4,18.7,4.2,26.1-0.6c-1.1-0.2-2.2-0.5-3.4-0.7
		c6,12.7,23.9,19.5,36.4,12.1c1-0.6,1.9-1.7,1.8-2.9c-0.2-7-4.1-12.6-9.3-17c-2.2-1.8-4.6-3.4-6.9-5.1c-2.6-1.9-5.2-3.9-8.2-4.9
		c-6-2-11.3,1.9-15.9,5.3c-2.7,2-5.3,4.2-8.4,5.4c-3.9,1.6-8.8,1.6-12.9,1.6C150,312.9,149.4,313.7,149.9,313.9L149.9,313.9z"/>
	<path class="st0" d="M106.2,418.9c-0.5,5.4,0,10.7-1.5,16c-1.5,5.2-5.3,9.6-8.9,13.5c-4.5,4.8-8.8,9.5-12.4,15
		c-3.6,5.5-6.5,11.4-8.7,17.6c-4.4,12.3-5.2,25-5.7,38c-0.5,12.9-0.2,26.3,6.8,37.6c1.8,2.8,6.2-1.4,5.5-3.9
		c-0.6-2.2-1.6-3.8-3.2-5.5c-1.2-1.3-3.7,0.2-3.9,1.7c-0.3,2.7,0.4,4.5,1.2,7.1c1.8-1.3,3.7-2.6,5.5-3.9c-6.9-11-6.3-24.9-5.9-37.3
		c0.5-12.8,1.6-25.1,6.3-37.2c2.3-5.9,5.4-11.4,9.1-16.6c3.8-5.2,8.5-9.5,12.5-14.5c6.1-7.8,8.9-18.5,5.1-28.1
		C107.7,417.4,106.3,418.2,106.2,418.9L106.2,418.9z"/>
	<path class="st0" d="M163.3,416.7c-3.4,8.7-4.8,19.6-2.6,28.8c1.4,5.9,4.6,10.9,7.7,16c3.2,5.4,5.9,11.1,7.9,17.1
		c4.1,11.7,5.8,24.1,5.6,36.4c-0.1,6.5-0.8,13-2,19.4c-1.2,6.7-3.3,13.3-4.4,20.1c1.8-0.8,3.6-1.6,5.5-2.5c-0.8-0.7-1.6-1.3-2.4-1.9
		c-1.6-1.1-4.2,1.2-4,2.9c0.1,1.4,0.4,2.4,1.4,3.5c1.8,1.9,5.1-0.4,5.5-2.5c1.1-6.4,2.8-12.7,3.9-19.2c1-6.3,1.8-12.6,2-18.9
		c0.5-12.4-1.1-25.1-4.9-36.9c-1.8-5.7-4.3-11.2-7.2-16.4c-3-5.4-6.9-10.3-9.3-16.1c-1.9-4.5-2.6-9.2-2.5-14.1
		c0.1-5.3,1.5-10.5,0.9-15.7C164.1,416.1,163.4,416.4,163.3,416.7L163.3,416.7z"/>
	<path class="st0" d="M98.2,543.4c2.9,0.5,5.8,0.4,8.7,1.1c2.2,0.5,4.3,1.5,6.3,2.8c4.2,2.7,7.7,6.4,11.6,9.4
		c4,3.1,9.4,4.2,14.3,3.2c5.7-1.1,10.1-4.7,13.5-9.3c0.7-0.9,1-2.6-0.2-3.2c-1.5-0.8-3.3,0.5-4,1.8c-2.3,4.3-6.9,6.7-11.6,7
		c-5.5,0.4-9.7-2.4-14-5.5c-3.4-2.5-6.6-5.1-10.4-6.9c-4-1.9-9.3-2.7-13.7-2.1C98.1,541.9,97.1,543.2,98.2,543.4L98.2,543.4z"/>
	<path class="st0" d="M151.4,549.2c-0.8,8.1,8.4,11.8,15,11.3c3.9-0.3,7.8-2,10.5-4.7c1.7-1.7,6.5-8.9,2.5-10.6
		c-0.7-0.3-1.4-0.1-1.9,0.4c-2.1,2-1.7,5.2-3.7,7.3c-1.8,1.8-4.3,2.6-6.8,2.9c-2.7,0.3-5.6-0.2-8-1.4c-2.7-1.3-3.9-3.5-5.3-6
		C153.2,547.4,151.5,548.2,151.4,549.2z"/>
	<path class="st0" d="M130.9,496.3c1.4,9.1,11.1,15.1,19.8,15.5c4.7,0.2,9.3-1,13.2-3.5c2.2-1.4,4-3.2,5.6-5.2
		c1.5-1.9,3.5-4.8,2.7-7.3c-0.3-1-1.6-0.5-2.2-0.1c-1.7,1.2-2.7,3.2-3.9,4.9c-1.1,1.6-2.6,2.9-4.2,4c-3.1,2-7,2.8-10.7,2.6
		c-8.3-0.6-14.1-5.5-19.5-11.4C131.5,495.4,130.8,495.9,130.9,496.3L130.9,496.3z"/>
	<path class="st0" d="M151,510.7c-1.3,2.2-1,5.7-1,8.1c0,4.1-0.1,8.2-0.1,12.3c0,3.7,0,7.4-0.2,11.1c-0.1,1.3-0.2,2.6-0.5,3.9
		c-0.2,1.1-0.4,0.9-0.6,2.1c-0.1,1,0.5,2.2,1.7,2c3.2-0.5,3.7-3.7,3.9-6.4c0.3-3.9,0.3-7.9,0.1-11.8c-0.1-4.3-0.5-8.5-0.8-12.8
		c-0.1-1.8-0.2-3.7-0.6-5.5c-0.2-1.1-0.2-2.5-1-3.3C151.8,509.9,151.2,510.3,151,510.7L151,510.7z"/>
	<path class="st0" d="M76.9,554.3c0.1,2.4,2.7,4.2,4.6,5.1c2.8,1.4,5.9,2,8.9,2.4c5.1,0.8,10.5,0.6,15.3-1.6
		c4.9-2.3,8.3-8.5,5.4-13.6c-2.6-4.6-10.9-6.7-14.6-2.4c-0.6,0.7-0.7,2,0.2,2.5c1.6,0.9,3.4,0.1,5.2,0.3c2,0.2,3.7,1.1,4.9,2.7
		c2.9,3.9-2,7.1-5.1,8c-3.7,1.1-7.9,0.8-11.7,0.4c-2.4-0.3-4.9-0.7-7.2-1.6c-1.9-0.7-3.5-2.2-5.3-2.8
		C77.2,553.7,76.9,554.1,76.9,554.3L76.9,554.3z"/>
	<path class="st0" d="M70.1,539.8c-2.7-0.6-5.5-1.8-8.1-2.7c-2.9-1.1-5.8-2.5-8.5-4.1c-5.4-3.2-10.1-7.6-13.6-12.8
		c-4.7-6.7-6.1-15-6.8-23c-0.7-8-0.4-16.8,2.9-24.3c1.4-3,3.4-5.6,6.3-7.2c2.6-1.4,6.9-2.2,9.6-0.6c4.3,2.5,2.5,11.2,1.9,15
		c-1,6.3-3,12.3-4,18.6c-1.2,7.2-0.6,15.3,1.7,22.2c2.8,8.4,9.2,14.2,17.6,16.7c2.7,0.8,5.8-4.1,2.4-5.1
		c-11.2-3.3-16-13.3-16.8-24.3c-0.6-8.4,1.7-15.9,3.5-24.2c1.4-6.4,3.9-16.8-1.3-22.2c-5.3-5.5-15.9-1.4-20.4,3.1
		c-5.2,5.1-7.3,12.5-8.1,19.6c-0.9,7.6-0.3,15.4,1.2,22.9c1.7,8.1,5.1,15.2,10.9,21.3c3.9,4,8.7,7.2,13.7,9.6
		c2.3,1.1,4.8,1.9,7.3,2.6c2.8,0.8,5.3,0.7,8.2,0.7C70.3,541.4,71.1,540,70.1,539.8L70.1,539.8z"/>
	<path class="st0" d="M86.9,358.2c5.4,7.7,17.6,8.5,26,7c8.5-1.4,16.6-6.9,18.1-15.8c2.9-15.9-18.1-34.6-33.2-26.7
		c-0.8,0.4-0.7,1.6,0.3,1.4c7.6-1.6,15,0.3,21,5.2c5.6,4.6,10,11.7,9.6,19.1c-0.4,8.8-8.9,13.6-16.6,14.8c-7.9,1.3-18.4,0.3-24.1-6
		C87.5,356.7,86.5,357.6,86.9,358.2L86.9,358.2z"/>
	<path class="st0" d="M161.6,558.2c0.5,0,0.9-1,0.2-1C161.2,557.3,160.9,558.2,161.6,558.2z"/>
	<path class="st0" d="M158.5,557.2c0.6,0,0.9-1,0.2-1C158.2,556.2,157.8,557.2,158.5,557.2z"/>
	<path class="st0" d="M107,424.1c-3.2-0.3-8.3,0.5-8.2,4.8c0.1,3.7,5.2,6.3,7.9,7.7c5.7,2.8,13,3,19.2,3.6
		c8.7,0.8,17.5,1.2,26.2,0.4c6.7-0.7,15.3-2.2,19.4-8.3c1-1.4,1.8-2.9,2-4.6c0.1-1,0-2.2-1.1-2.7c-2.8-1.3-5.7-1.5-8.6-0.1
		c-1.6,0.8-2.5,3.1-0.9,4.3c1.4,1,3.4,1,5,1.7c-0.4-0.9-0.7-1.8-1.1-2.7c-0.1,0.5-0.1,1-0.2,1.5c-0.1,0.3-0.1,0.3-0.3,0.5
		c-0.4,0.6-0.8,0.9-1.8,1.5c-2.2,1.3-5.1,2.1-7.9,2.6c-7.5,1.4-15.3,1.4-23,1.1c-6.2-0.2-12.3-0.8-18.4-1.5c-3.2-0.4-6.2-1.5-9-3.1
		c-1.4-0.8-2.9-1.7-3.9-2.9c-0.5-0.6-0.3-0.4,0.2-0.7c1.2-0.7,2.7-1.1,4-1.5C107.2,425.4,107.9,424.2,107,424.1L107,424.1z"/>
	<path class="st0" d="M99.7,430c-1.1,0.9-1.8,2.3-2.3,3.5c-0.4,1-0.3,1.9,0.6,2.6c11.9,9.4,28.8,10.5,43.4,9.4
		c6.6-0.5,13.2-1.5,19.5-3.5c5.1-1.7,11-4.6,13.1-10c0.9-2.2-0.6-4.9-3.3-3.8c-1.6,0.7-3.1,1.5-3.7,3.2c0.4-0.5,0.9-1,1.3-1.4
		c-0.2,0.1-0.4,0.2-0.6,0.3c-0.9,0.5-2.2,2.6-0.7,3.3c0-0.1-0.1-0.3-0.1-0.4c0.1,0.3,0.3,0.5,0.5,0.7c0.6,0.5,1.1,0.7,1.9,0.8
		c-0.5-1.3-1-2.6-1.6-3.9c-0.4,1.1-0.2,0.7-1,1.6c0.5-0.6-0.6,0.5-0.7,0.6c-0.4,0.3-0.3,0.2-0.9,0.6c-2.2,1.3-4.7,2.1-7.1,2.8
		c-5.6,1.6-11.5,2.2-17.3,2.6c-5.6,0.4-11.1,0.4-16.6-0.2c-4.5-0.5-9-1.4-13.3-2.8c-2.2-0.7-4.3-1.7-6.4-2.7c-1.7-0.8-3-1.4-3.5-3.4
		C100.6,429.6,99.9,429.8,99.7,430L99.7,430z"/>
</g>
<path d="M564.8,125.1c-2.7,4.4-5.5,8.7-8.6,12.9c-3.8-0.8-7-2.1-10.2-4.7c-1.7-1.4-3-2.9-4.2-4.5c-0.2-1.5-0.7-3.1-1.5-5
	c-1.9-4.5-3.1-9.2-4.4-14c0.4-0.3,0.8-0.6,1.1-1c3.2-3.6,4.8-9,6.5-13.4c3.2-8.4,7-16.5,10.4-24.8c4.7-11.2,11-24.9,13.4-38.3
	c0.1-3.9,0.1-7.8,0.1-11.7c0-2.8-0.2-6.2-0.1-9.7c0,0,0,0,0,0c-1.7-3.6-3.6-7-4.8-9.6c-3.8,0-7.7,0.1-11.5,0.1
	c2.1,5,3.3,10.5,5,15.6c0.9,2.7,1.4,8.2,3,11.6c-1.1,3.8-2.2,7.7-3.4,11.5c-3.1,9.8-7.4,19.2-11.6,28.6c-4.1,9.2-8.4,18.3-12.5,27.4
	c-3-9.4-5.5-19.1-7.5-28.9c1.6-1.4,2.8-3,3.3-4.6c4.2-14.9,7.5-30,10.7-45.2c1.1-5.3,2.2-10.7,3.3-16c-3.5,0-7,0-10.6,0
	c-1.2,4.9-2.3,9.7-3.4,14.3c-3.4,13-6.7,26-11,38.7c-1.9,1.3-3.4,3.2-3.8,5.3c-10-0.6-20.3,2-30.4,1.6c-4.6-0.2-8.4,3-8.7,7.6
	c-0.6,9.2,3.6,17.1,13.3,18.6c4.1,0.6,8.4-0.1,12.5-0.8c1.6-0.3,3.2-0.6,4.8-0.9c0.5-0.1,1-0.2,1.5-0.3c1.4,0.9,3.4,0.9,5.1-0.3
	c7.2-5.1,5.8-14-3.9-12.2c-4.4,0.8-8.6,1.9-13.1,2.2c-3.6,0.2-5.5-1.2-6.7-3.4c8.8-1.3,17.8-3.6,25.8-6.7c0,0.2,0.1,0.4,0.1,0.6
	c0.3,3.1,1.9,4.5,3.9,4.7c0.7,9.8,2.8,19.6,4.5,29c2,11.4,4.8,22.7,6.4,34.2c-13.9,4.7-27.3,9.6-42.1,11.9
	c-17.6,2.7-35.7,3.3-53.4,2.8c-24.3-0.7-48,0.8-70.4-8.5c0.1-0.8,0.2-1.7,0.2-2.5c0,0,0-0.1,0-0.1c0.2-0.4,0.4-0.9,0.5-1.4
	c2.3-12.6,5.2-25,8.1-37.5c0.4-1.8,0.9-3.7,1.4-5.5c12.5,2,26-0.4,34.5-10.5c3.5-4.2,7-14.2,2.7-18.8c-2.7-2.8-11.9-2.2-15.7-2.6
	c-4.4-0.4-8.9-0.9-13.4-0.8c1.6-1.9,2.4-4.2,1.6-6.8c-0.1-0.4-0.3-0.8-0.5-1.2c-5.3-12.4-9.1-25.6-13.8-38.3
	c-1.6-4.3-3.1-8.5-4.5-12.8c-3.2-0.2-6.5-0.4-9.7-0.6c1.3,4.4,2.7,8.7,3.9,12.8c4.3,14.9,10,30.6,10.7,46.2c0.1,1.9,0.9,3.2,2,3.8
	c-0.7,1-1,2.2-0.3,3c-4.3,9.5-6.8,20.3-9.6,30.1c-0.2,0.5-0.3,1.1-0.5,1.6c-3.9-11-8.1-21.9-11.6-33c-3.8-12.1-5.6-24.8-8.9-36.9
	c1-0.8,1.9-1.7,2.3-2.5c3-5.5,3.3-13.6,4.9-19.7c0.5-1.9,1-3.8,1.6-5.7c-3.2-0.1-6.3-0.2-9.5-0.3c-0.4,1.1-0.8,2.3-1.2,3.4
	c-1.5,4.4-2.9,8.8-4.2,13.2c-0.5,1.7-1.3,3.5-1.8,5.3c-0.6-0.1-1.1-0.3-1.7-0.4c-2.7-0.5-5.4-0.7-8.1-0.9c-4.5-0.4-9.8-1.3-14.2,0.3
	c-1.1,0.4-3,2.7-1.2,3.6c3.2,1.6,7.1,1.6,10.5,2.1c2.4,0.4,4.8,0.8,7.1,1.8c0.9,0.4,1.7,0.8,2.6,1.3c0.1,0.1,0.2,0.1,0.2,0.2
	c0.1,2.6,1.9,4.6,5.5,3.5c-0.7,11.7,2.2,23.8,5,34.9c4,15.5,9.4,30.8,14.4,45.9c0.6,1.7,1.6,2.5,2.9,2.7c-1.5,5.1-2.9,10.3-4.5,15.4
	c-1.1,2-1.6,3.9-1.6,6.7c0,2.4,0.9,3.8,2.4,4.3c0.1,5.6-3.3,12.2-7.9,16.4c-12.2-21.9-21.4-45.4-28.6-69.4
	c-7-23.3-10.3-46.8-14.3-70.6c2-1.4,3.5-3.3,3.8-5.4c0.5-4.3,1.3-8.6,2.2-12.8c-4.1,0.3-8.2,0.6-12.3,0.7c-0.6,1.9-1.2,3.8-1.8,5.7
	c-0.2,0.3-0.5,0.6-0.6,0.9c-1.5,3-1.9,4.9-1.7,8.3c0.1,3.1,2,4.5,4.2,4.6c-1.8,23.3,2.5,47.1,7.8,69.7c5.5,23.4,14.2,45.9,23.9,67.8
	c-0.4,1.2-0.5,2.4-0.2,3.5c1.3,3.6,3.2,6.3,6,9c2,1.9,4.9,1.8,7.6,0.7c-0.5,4.8,0.4,9.9,2.8,13.8c4.4,7,15.1,5.2,17.8-2.4
	c1-2.7,0.1-6-3.4-5.6c-0.5,0.1-1.1,0.1-1.6,0.1c-0.8,0.1-1.5,0.2-2.2,0.6c0.6-0.1,0.5-0.1-0.2,0c0.4-0.1-0.2-0.1-0.6-0.4
	c-0.5-0.3-1.1-1-1.5-1.4c-2.2-2.4-2.7-6.1-3.2-9.4c2.4-1.7,4.5-3.9,5.9-5.5c3.5-4,6.2-8.9,7.8-14c1.3,0.8,2.6,1.6,4,2.2
	c-0.2,0.4-0.4,0.8-0.5,1.2c-2.7,14.4-2.3,29.7-3,44.3c-0.7,15.2-1.3,30.5-1.8,45.7c-1.1,30.2-1.4,60.3-1.3,90.5
	c0.2,56.1,3,112.6,9.4,168.4c-0.6,0.9-1,1.9-1.2,2.8c-1.1,5.4,0.8,8.2,2.6,12.4c-0.8,16.5,37.8,8.5,47.4,7
	c5.6-0.9,10.6-5.3,10.6-11.3c-0.3-64.4-4.1-128.7-3.3-193.1c0.3-22.1-0.1-44.3,0.7-66.4c0.8-20.5,2.7-44.6,15.7-61.4
	c3.2-4.2-2.1-7.9-5.5-4.4c-31,32.3-23.4,85.1-25,126c-2.5,64.9-0.1,130.2-0.1,195.2c-3.7,0.5-7.3,0.8-11,1.1
	c-3.1,0.2-6.3,0.4-9.4,0.2c-8.9-59.3-13-118.7-14.6-178.7c-0.8-29.9-0.8-59.9-0.9-89.8c-0.1-15-0.1-30.1,0-45.1
	c0-13.6,1.2-27.9-0.3-41.4c2.9,0.9,5.9,1.7,8.9,2.4c13.9,3.4,28.4,3.9,42.6,4.3c18.8,0.4,37.1,1.9,56,0c17.3-1.7,34.8-5.8,51.1-11.8
	c-4.1,13.6-5.1,28.3-6.5,42.4c-1.4,14.8-2.5,29.5-3.3,44.4c-1.6,31.3-1.4,62.7-3.4,94c-2,32-5.3,63.9-7.6,95.9
	c-1.1,15.8-2,31.7-2.5,47.6c-0.2,5.2,0.3,10.3,0.6,15.5c0.1,2.2,0.3,4.4,0.1,6.6c0,0,0,0.1,0,0.1c-0.5,0.5-0.9,1-1.3,1.6
	c-9.1,3.3-16.9,3.6-25.3,1.2c1.4-1.8,2.3-3.8,2.1-6c0-6-1.1-12-1.2-18c-0.1-9,0.1-18.1,0.4-27.1c0.8-24.5,2.1-49,3.1-73.6
	c2-50.5,4.5-103.6-5.3-153.5c-3-15.4-9.8-44.4-30-45.3c-5-0.2-11.8,8-4.7,10.1c12.5,3.6,16.2,20.1,18.9,31.2
	c5.3,21.8,5.9,45.1,6.4,67.5c1,53-3.1,106-5.5,159c-0.5,11.3-1,22.5-1,33.8c0,5.2,0.5,10.4,0.9,15.5c-0.3,1.5-0.5,3,0.1,4.5
	c0,0.1,0.1,0.2,0.1,0.3c0,0.5,0,1,0,1.4c-0.2,3.1,1.2,4.8,3.3,5.3c4.2,10.4,18,11.1,29.5,9.4c0.5,0.3,1,0.6,1.5,0.8
	c6.4,2.1,12.2-3.4,15.3-8.4c4.3-2.2,7.8-8.3,8.2-12.4c0.5-5.5,0-11-0.4-16.4c-0.5-7.6,0.1-15.2,0.4-22.8
	c1.5-34.7,4.4-69.4,6.6-104.1c2.1-34.4,2.1-68.6,2.1-103c0-17,0.4-34.1,1.1-51.1c0.2-5.4,0.7-10.9,1.3-16.3
	c7.2-0.6,14.2-6.6,18.5-11.8c4.1-4.9,5.6-10.4,6.2-16.2c0.7-0.4,1.3-0.9,1.7-1.4c1.4-1.7,2.8-3.4,4.1-5.2
	C564.9,137.4,564.8,131.2,564.8,125.1z M377.3,68.2c7.2,1.1,14.7,1.5,21.9,2.8c-0.6,3.6-1.1,7-5.3,8.9c-5.5,2.4-12.9,2.5-18.9,0.9
	C376,76.6,376.9,72.3,377.3,68.2z M541.4,164.8c-1.8,1-3.7,1.4-5.6,2c0.6-7,1-14,0.8-20.9c1.2-0.7,2.2-1.5,3.1-2.5
	c2.8,2.7,6.8,5.4,10.7,6.3c0.4,1.1,1.4,1.7,2.6,1.9C550.5,157,546.2,162.1,541.4,164.8z"/>
<path d="M326.3,29.8C326.6,30.1,326.5,30.3,326.3,29.8L326.3,29.8z"/>
<path d="M503.8,82.2C503.8,82.2,503.8,82.3,503.8,82.2C503.8,82.3,503.8,82.2,503.8,82.2z"/>
<path d="M388.2,548.6c-2.8-2.3-5.5-4.5-6.8-7.9c-1.5-4-0.6-8.9-4.1-11.8c-1.1-0.9-2.6-0.4-3.5,0.7c-0.1,0.1-0.1,0.3-0.2,0.4
	c-4.4,3.7-3.5,16.4-3.7,20.8c-0.4,9.1,9.1,15.7,17.3,16.8c17.1,2.2,36.1-15.4,30.8-32.9c-1.2-3.9-4.7-8.3-8.8-9
	c-5.1-1-10.5,3-11.8,7.8c-1.3,5,2.2,6.8,3.8,10.8c0.8,2-0.2,3.5-1,4.6c-0.8,0.9-0.8,1-0.2,0.2c-0.1,0.1-2.3,1.7-1.3,1
	c-1.4,0.9-1.2,0.7-3.1,1.2C393.7,551.7,390.2,550.2,388.2,548.6z"/>
<path d="M515.5,540.4c-12.4-1.2-25.7-2.9-37.3-7.7c-0.9-6.1-3.1-12.1-3.4-18.3c-0.1-1.7-2.3-0.8-2.7,0.2c-3.3,7.5-3.5,15.5-3.9,23.7
	c-0.1,1.1,0.8,2.4,1.7,2.9c14.8,7.6,32.3,9.8,48.7,11.3c12.5,1.2,31.8,3.8,42.3-5.1c9.3-8,2.6-16.6-5.1-22.2
	c-5-3.6-10.8-6.3-16.5-8.6c-5.8-2.4-13.3-6.1-19.5-3.6c-3.6,1.4-6.8,5.4-4.4,9.1c2.3,3.5,8,3.9,11.8,5.2c4.7,1.5,9.2,3.5,13.5,5.7
	c3.6,1.8,7.2,3.8,10.2,6.5c0.2,0.2,0.5,0.5,0.8,0.8c0,0,0,0,0,0C540.4,543.5,526.9,541.5,515.5,540.4z"/>
<path class="st0" d="M171.7,439.1c21.6,3.4,40.3-7.7,55.2-22.4c14.7-14.5,27.4-31.1,38.5-48.4c23.4-36.4,40-76.4,57.8-115.7
	c10.5-23.1,21.5-46,34.5-67.8c4-6.6-6.4-12.7-10.4-6.1C305.6,249,285.1,332.3,230.8,395c-13.7,15.9-32.6,36.2-55.9,32.5
	C167.4,426.3,164.1,437.9,171.7,439.1L171.7,439.1z"/>
</svg>
