<?xml version="1.0" encoding="utf-8"?>
<!-- Generator: Adobe Illustrator 23.0.1, SVG Export Plug-In . SVG Version: 6.00 Build 0)  -->
<svg version="1.1" xmlns="http://www.w3.org/2000/svg" xmlns:xlink="http://www.w3.org/1999/xlink" x="0px" y="0px"
	 viewBox="0 0 566.93 566.93" enable-background="new 0 0 566.93 566.93" xml:space="preserve">
<g id="Layer_2">
	<g>
		<g>
			<path d="M48.33,556.615c-5.885-41.584-4.036-84.603-2.896-126.441c1.37-50.254,4.073-100.457,6.273-150.679
				c0.941-21.476,1.899-42.973,1.995-64.473c0.022-4.95-4.921-9.978-8.96-12.186c-3.211-1.755-8.286-2.439-8.309,2.571
				c-0.191,42.496-2.954,85.005-4.891,127.445c-2.286,50.084-4.571,100.252-4.117,150.401c0.192,21.244,0.655,42.681,3.636,63.747
				c0.725,5.12,4.464,9.728,8.96,12.186C42.674,560.636,49.064,561.8,48.33,556.615L48.33,556.615z"/>
		</g>
	</g>
	<g>
		<g>
			<path d="M40.841,554.58c64.571,8.293,129.711,8.175,194.687,7.02c65.734-1.169,131.465-2.53,197.196-3.8
				c37.256-0.72,74.512-1.44,111.767-2.16c5.076-0.098-1.404-5.852-4.251-5.797c-65.863,1.273-131.726,2.546-197.589,3.819
				c-64.548,1.247-129.184,3.525-193.747,2.545c-36.87-0.559-73.763-2.473-110.355-7.173
				C32.647,548.277,37.525,554.154,40.841,554.58L40.841,554.58z"/>
		</g>
	</g>
	<g>
		<g>
			<path d="M39.138,215.611c128.195,7.067,256.774,3.131,385.06,1.235c36.498-0.539,72.996-1.079,109.494-1.618
				c4.761-0.07,10.495-1.997,13.948-5.379c2.759-2.701,2.192-5.476-2.087-5.413c-64.369,0.951-128.738,1.903-193.107,2.854
				c-64.14,0.948-128.292,1.951-192.439,1.104c-36.356-0.48-72.703-1.573-109.008-3.575c-4.623-0.255-10.655,2.154-13.948,5.379
				C34.104,213.083,35.03,215.384,39.138,215.611L39.138,215.611z"/>
		</g>
	</g>
	<g>
		<g>
			<path d="M546.98,572.828c-0.75-15.526-0.464-31.138-0.44-46.674c0.041-26.999,0.253-53.998,0.497-80.996
				c0.537-59.424,1.283-118.846,2.132-178.265c0.262-18.335,0.508-36.67,0.852-55.004c0.13-6.915-20.689-9.774-20.796-4.114
				c-0.8,42.585-1.293,85.177-1.826,127.766c-0.744,59.41-1.461,118.824-1.636,178.239c-0.054,18.282-0.461,36.666,0.422,54.936
				C526.526,575.781,547.237,578.147,546.98,572.828L546.98,572.828z"/>
		</g>
	</g>
	<g>
		<g>
			<path d="M85.774,385.99c-4.033,55.937-2.667,112.064-6.042,168.027c-0.145,2.399,9.956,1.886,10.147-1.278
				c3.375-55.963,2.009-112.09,6.042-168.026C96.091,382.343,86.003,382.812,85.774,385.99L85.774,385.99z"/>
		</g>
	</g>
	<g>
		<g>
			<path d="M182.225,385.99c-4.033,55.937-2.667,112.064-6.042,168.027c-0.145,2.399,9.956,1.886,10.147-1.278
				c3.375-55.963,2.009-112.09,6.042-168.026C192.543,382.343,182.454,382.812,182.225,385.99L182.225,385.99z"/>
		</g>
	</g>
	<g>
		<g>
			<path d="M86.56,389.271c32.628-0.16,65.26-1.077,97.881,0c2.112,0.07,5.238-0.804,6.682-2.443
				c1.193-1.355,1.185-2.573-0.967-2.644c-32.621-1.077-65.254-0.16-97.881,0c-2.145,0.011-5.201,0.762-6.682,2.443
				C84.447,387.928,84.367,389.282,86.56,389.271L86.56,389.271z"/>
		</g>
	</g>
	<path d="M1562.749,13.908c-0.209-0.243-3.075-3.091-3.075-3.091s-5.189-3.661-8.074-3.482c-55.54,3.44-112.987,5.285-167.694-6.547
		c-4.537-0.981-2.241,4.703-1.029,6.512c0.76,1.135,1.68,2.274,2.716,3.34c-0.551,25.071,12.604,49.033,22.249,71.506
		c4.693,10.935,10.588,20.907,21.09,27.115c8.469,5.007,17.919,8.471,27.592,10.45c4.142,29.804,6.29,59.881,6.631,89.967
		c-8.594-2.405-18.59-2.246-26.462,0.938c-9.123,3.691-14.211,13.107-16.782,22.472c-2.799,0.465-6.254,4.321-3.536,7.331
		c0.597,0.661,16.223,0.777,16.267,0.776c0.692-0.014,1.384-0.04,2.077-0.056c3.606-0.083,7.214-0.096,10.821-0.097
		c9.142-0.003,18.284,0.108,27.425,0.211c13.303,0.151,55.351,3.165,54.601-5.085c-0.36-7.778,0.403-8.557-6.375-13
		c-6.975-4.571-12.175-8.106-20.25-7.938c-0.237,0.005-13.875-0.875-13.875-25.375c0.309-8.82,3.892-18.389,4.201-27.208
		c0.526-15.03,1.052-30.061,1.579-45.091c8.192-3.011,16.454-6.005,24.253-9.746c10.113-4.85,30.176-24.499,38.92-56.511
		c2.776-9.369,4.252-19.031,5.451-28.712c1.06-0.064,2.121-0.128,3.179-0.194C1568.747,22.142,1563.596,14.891,1562.749,13.908z
		 M1551.525,23.398c-1.058,9.09-1.98,18.338-4.352,27.2c-2.187,8.173-5.977,15.243-10.859,22.12
		c-5.19,7.312-9.794,14.67-18.338,18.237c-9.593,4.005-19.399,7.561-29.086,11.334c-4.07,1.585-6.365,6.322-7.512,10.307
		c-0.281,0.976-1.196,6.367,0.15,8.119c-0.682,19.492-1.365,38.984-2.047,58.476c-0.358,10.229-1.271,20.613-0.867,30.844
		c0.287,7.263,18.589,11.591,18.589,11.591s12.489,1.138,15.239,3.419c2.654,2.202,5.181,4.847,5.875,7.849
		c-0.373,0.012-7.843-0.112-8.216-0.102c-1.456,0.039-2.913,0.059-4.37,0.074c-3.847,0.04-7.695,0.031-11.543,0.012
		c-9.32-0.046-18.64-0.17-27.96-0.274c-12.505-0.139-25.385-0.918-37.988-0.227c1.721-5.587,13.038-12.54,13.038-12.54
		s15.359-4.436,22.162-0.917c1.204,0.623,10.097-4.201,10.01-8.587c-0.594-29.963-3.081-59.815-7.292-89.492
		c5.049-1.979,0.957-18.229-5.061-18.943c-10.26-1.217-20.264-3.999-29.471-8.739c-3.7-1.905-7.494-4.036-10.203-7.267
		c-2.842-3.389-4.511-7.712-6.236-11.732c-4.174-9.726-8.362-19.46-12.366-29.257c-3.556-8.703-6.859-17.914-6.012-27.458
		c0.03-0.341,0.03-0.697,0.041-1.048c50.46,10.485,103.295,9.657,154.705,6.771C1551.548,23.244,1551.533,23.325,1551.525,23.398z"
		/>
	<g>
		<path d="M1640.295,30.972c-0.887-22.507-10.178-42.203-20.447-62.068c-8.735-16.898-23.171-39.524-47.582-40.904l-0.004,0.057
			c-7.139-1.712-54.349-7.353-74.689,1.47c-22.433,9.729-23.702,32.215-21.985,52.927c0.048,0.573,0.132,1.086,0.253,1.531
			c-0.024,2.059,2.54,4.692,4.415,5.292c6.854,2.197,12.779,3.107,19.427,0.407c7.644-3.108,14.891-7.513,21.898-11.773l2.068-1.255
			c8.576-5.194,15.597-8.628,24.082-9.701c4.016-0.508,9.013-1.138,13.409-0.398c3.304,0.557,8.719,3.64,16.093,9.162
			c0.139,0.103,0.255,0.19,0.354,0.264c0.3,0.741,0.96,1.941,2.216,4.224c3.51,6.381,10.813,19.66,11.861,28.197
			c1.216,9.888-0.032,20.936-3.814,33.773c-3.036,10.307-6.615,20.968-13.973,28.133c-8.837,8.605-21.778,9.725-33.215,10.099
			c-4.277,0.14-7.175,2.781-7.101,5.064c0.037,1.117,0.89,2.32,2.631,2.236c13.271-0.432,31.038-2.083,40.314-7.495
			c11.124-6.491,16.343-18.441,20.325-30.388c4.749-14.246,6.583-26.737,5.605-38.188c-1.237-14.502-8.314-25.819-15.777-35.887
			c-0.392-0.528-1.297-1.288-3.127-2.778c-0.554-0.451-1.085-0.883-1.487-1.227c-6.311-5.4-13.216-10.66-20.945-12.564
			c-8.409-2.071-18.902-0.072-24.407,1.306c-7.637,1.91-14.291,5.942-20.728,9.841c-1.422,0.862-2.846,1.724-4.28,2.564
			c-0.956,0.561-1.913,1.132-2.87,1.704c-8.869,5.296-17.269,10.317-27.037,8.099c0.209-0.781,0.288-1.601,0.224-2.391
			c-0.906-10.919-1.933-23.295,5.423-32.234c5.062-6.151,13.129-10.093,25.389-12.404c15.188-2.863,43.729,0.313,54.474,1.509
			c2.519,0.28,3.945,0.439,4.799,0.464c0.337,0.141,0.664,0.214,0.992,0.221c27.412,0.607,40.752,30.774,50.492,52.802l0.803,1.814
			c5.773,13.03,8.605,26.117,8.655,40.007l0.017,2.858c0.082,12.186,0.176,25.996-6.194,36.505
			c-11.063,18.252-30.86,32.351-52.958,37.714c-15.768,3.827-45.653,4.477-65.429,4.906c-18.295,0.397-19.619,0.565-20.454,1.555
			l-0.463,0.597l0.1,0.67c0.045,0.307-0.022,1.071-0.076,1.687c-0.162,1.844-0.33,3.75,0.79,4.802
			c0.424,0.397,0.971,0.607,1.57,0.607c0.134,0,0.27-0.011,0.408-0.031c11.652-1.77,25.566-1.729,39.022-1.684
			c14.403,0.048,29.305,0.094,41.852-2.048c20.237-3.452,39.017-13.737,52.879-28.961c5.342-5.866,12.676-14.973,14.676-26.275
			C1640.857,53.579,1640.682,40.793,1640.295,30.972z"/>
		<path d="M1524.253,189.553c-1.46-10.091-9.366-16.842-23.499-20.067c-9.105-2.077-18.193-4.354-26.982-6.557
			c-9.48-2.376-19.284-4.832-29.135-7.045c-11.249-2.526-18.678-6.603-20.955-19.096c-1.678-9.204,2.022-22.408,6.355-30.159
			c0.269-0.48,0.604-1.479-0.17-2.777c-0.886-1.487-3.255-3.13-5.124-3.13c-0.015,0-0.029,0-0.043,0
			c-0.929,0.013-1.699,0.443-2.111,1.182c-5.785,10.347-10.702,27.216-5.518,40.707c4.738,12.329,13.438,19.831,26.598,22.932
			c11.991,2.826,24.243,5.443,36.091,7.975c5.94,1.27,11.881,2.539,17.812,3.837c0.727,0.159,1.455,0.314,2.185,0.469
			c3.271,0.693,6.652,1.41,9.791,2.554c3.702,1.349,6.83,4.607,7.276,7.58c0.285,1.9-0.522,3.583-2.4,5.003
			c-6.79,5.133-19.847,5.089-27.03,4.602c-0.972-0.059-2.049,0.55-2.15,2.05c-0.142,2.089,2.013,6.854,4.648,7.034
			c1.268,0.085,3.228,0.182,5.584,0.182c7.863,0,20.145-1.078,25.867-7.257C1523.844,196.868,1524.824,193.498,1524.253,189.553z"/>
		<path d="M1523.108,152.152c-9.169-5.207-31.381-15.698-33.342-16.083c-1.812-0.356-4.305-0.813-7.161-1.337
			c-9.338-1.713-28.767-5.276-30.787-7.023c-1.71-1.479-3.017-2.758-2.994-4.615c0.039-3.321,3.411-4.847,7.164-6.239
			c2.259-0.84,4.326-3.32,3.605-5.26c-0.262-0.706-1.223-2.217-4.463-1.013c-7.071,2.627-15.206,6.668-15.35,14.673
			c-0.068,3.786,2.27,6.277,4.807,8.405c3.436,2.883,20.29,6.265,37.259,9.481c1.78,0.338,3.331,0.632,4.554,0.872
			c1.805,0.616,24.696,9.49,32.569,13.786l1.583,0.86c8.4,4.556,17.086,9.268,20.92,17.766c3.088,6.844,3.118,14.461,0.084,21.447
			c-3.403,7.835-10.393,14.197-18.696,17.019c-0.323,0.109-1.89,0.785-1.027,3.32c0.627,1.846,3.02,5.685,5.661,5.685
			c0.289,0,0.581-0.046,0.874-0.146c10.151-3.448,17.67-10.77,21.173-20.617c3.665-10.306,2.301-21.747-3.744-31.391
			C1540.048,162.571,1531.101,156.693,1523.108,152.152z"/>
		<path d="M1467.584,196.3c-1.368-0.791-11.053-2.038-14.356-1.306c-22.072-0.158-43.635-7.933-60.725-21.898
			c-0.653-0.534-1.513-0.597-2.19-0.161c-2.349,1.51-1.554,11.739-1.441,12.167c4.184,15.931,24.004,37.813,43.295,37.812
			c1.286,0,2.57-0.097,3.847-0.3c0.803-0.128,1.917-0.689,2.665-2.641c0.693-1.809,1.043-5.129-0.352-6.849
			c-0.639-0.788-1.577-1.147-2.582-0.99c-13.887,2.209-31.163-12.732-37.909-25.557c17,11.718,36.756,17.921,57.478,17.998
			c0.879,0.195,2.846,0.252,7.854-0.156c7.602-0.618,8.369-1.274,8.738-1.591c0.633-0.542,0.774-1.433,0.337-2.117
			C1471.121,198.955,1469.466,197.388,1467.584,196.3z"/>
	</g>
	<g>
		<g>
			<path d="M-83.791,570.505c100.548,1.057,201.094,2.407,301.634,4.053s201.076,3.589,301.605,5.827
				c56.589,1.26,113.176,2.614,169.761,4.06c9.982,0.255,15.048-27.141,6.987-27.347c-100.521-2.569-201.05-4.846-301.584-6.825
				s-201.075-3.663-301.619-5.052c-56.598-0.781-113.197-1.468-169.797-2.063c-5.805-0.061-8.681,7.292-9.894,12.038
				C-87.351,557.751-89.253,570.447-83.791,570.505L-83.791,570.505z"/>
		</g>
	</g>
	<path fill="#FFFFFF" d="M1497.6,147.26c-7.855-3.007-13.948-4.928-22.464-5.483c-1.485-0.392-8.177-1.563-8.177-1.563
		s-5.062-0.899-7.648-1.476c-2.377-0.53-6.183,0.598-8.12,2.289c-0.478,0.417-0.806,0.871-0.987,1.322
		c-0.943,0.86-1.48,2.98-1.571,5.279c-2.663-0.056-2.184,3.071-1.394,4.81c1.284,2.828,4.132,5.399,7.263,6.165
		c11.402,2.79,23.225,4.784,34.628,7.574c1.76,0.43,1.937,0.22,2.003-1.036c0.638,0.155,1.276,0.31,1.913,0.465
		c1.253,0.339,2.191-0.285,2.828-1.419c0.036-0.062,0.068-0.131,0.102-0.196c0.032-0.064,0.067-0.123,0.097-0.19
		c1.137-2.408,1.102-6.576,0.019-9.197c1.088,0.287,2.175,0.574,3.263,0.862C1502.907,156.405,1500.349,148.313,1497.6,147.26z"/>
	<path d="M1480.439-14.897c-0.434-0.288-0.964-0.455-1.247-0.255c-2.304,1.628-5.675,2.095-8.42,2.492
		c-4.228,0.612-6.984-0.751-10.44-2.98c-1.175-0.758-1.762,0.23-0.59,0.985c3.096,1.997,5.797,3.949,9.633,3.82
		c1.639-0.055,3.551-0.227,5.436-0.587c-1.036,1.048-1.985,2.154-2.808,3.125c-2.841,3.356-2.891,6.384-2.978,10.628
		c-0.016,0.776,2.066,1.726,2.083,0.891c0.083-4.004,0.177-7.115,2.893-10.323c1.981-2.34,4.552-5.365,7.529-6.45
		C1482.051-13.741,1481.207-14.6,1480.439-14.897z"/>
	<path d="M1504.539-53.526c-0.83-0.508-1.996-0.353-3.119-0.064c-0.192-0.293-0.419-0.529-0.653-0.576
		c-1.998-0.398-4.302-0.784-5.967,0.693c-1.062,0.942-1.354,2.277-0.944,3.621c0.86,2.815,3.718,4.569,6.601,4.28
		c2.567-0.257,5.553-2.206,5.538-5.06C1505.989-51.693,1505.485-52.946,1504.539-53.526z M1503.481-49.659
		c-0.969,1.101-2.423,1.772-3.866,1.927c-1.451,0.156-5.476-0.445-4.125-3.11c0.644-1.271,2.026-1.57,3.427-1.528
		c0.108,0.668,0.736,1.68,1.323,1.542c0.559-0.132,3.232-1.089,3.629-0.837C1504.781-51.086,1503.915-50.153,1503.481-49.659z"/>
</g>
<g id="Layer_3">
	<path d="M1196.548-79.701c-7.313,0.036-14.625,0.073-21.938,0.109c-14.958,0.075-29.915,0.149-44.873,0.224
		c-29.583,0.148-59.166,0.295-88.749,0.443c-1.869,0.009-4.726,0.794-5.951,2.318c-0.435,0.54-1.799,2.752-1.835,3.38
		c-1.214,21.224,22.94,41.71,30.227,47.024s23.936,9.727,36.129,11.074c0.371,0.041,0.744,0.077,1.116,0.117
		c1.528,0.197,3.074,0.351,4.642,0.455c3.599,0.321,7.224,0.575,10.864,0.747c9.364,0.602,22.311,0.792,38.287-0.953
		s28.001-7.172,39.428-17.364c12.759-11.381,17.63-29.737,24.022-45.047C1218.54-78.671,1202.744-79.732,1196.548-79.701z
		 M1187.215-35.014c-10.008,10.532-36.981,14.778-37.997,14.916c-11.919,1.626-24.212,0.324-36.147-0.469
		c-12.585-0.836-23.623-4.696-35.415-8.887c-17.192-8.06-35.257-28.066-35.395-44.851c26.813-0.134,53.626-0.267,80.439-0.401
		c14.293-0.071,28.586-0.143,42.879-0.214c7.313-0.036,14.625-0.073,21.938-0.109c6.98-0.035,14.834-1.063,21.546,1.135
		c-2.85,6.828-5.693,13.66-8.553,20.484C1197.685-46.674,1192.315-40.381,1187.215-35.014z"/>
	<path d="M1178.069-4.499c-1.292-1.396-1.467-5.521-2.045-7.324c-0.948-2.955-2.682-5.408-4.121-8.123
		c-0.73-1.377-3.006-3.921-4.828-3.383c-1.973,0.582-0.876,3.154-0.256,4.325c0.839,1.583,1.966,3.044,2.642,4.705
		c0.681,1.673,0.934,3.518,1.416,5.253c0.433,1.559,0.983,2.977,1.662,4.314c-0.319-0.033-0.628-0.051-0.92-0.053
		c-17.016-0.11-34.033-0.22-51.049-0.291c-8.148-0.034-16.38-0.374-24.511,0.259c-8.026,0.625-15.226,1.093-23.279-0.186
		c1.793-4.338,5.069-11.33,6.937-15.636c1.237-2.853-6.292-6.263-8.109-2.071c-2.259,5.211-4.464,10.444-6.615,15.7
		c-0.969,2.368-0.415,6.591,4.717,7.679s89.932,0.616,107.603,0.73C1180.298,0.944,1179.095-3.391,1178.069-4.499z"/>
	<g>
		<g>
			<path d="M1152.285-78.358c10.208-9.788,20.268-19.727,30.18-29.815c1.648-1.677-1.277-2.387-2.445-2.44
				c-2.228-0.103-5.072,0.677-6.675,2.309c-9.912,10.088-19.972,20.027-30.18,29.815c-1.713,1.642,1.331,2.389,2.445,2.44
				C1147.896-75.944,1150.613-76.755,1152.285-78.358L1152.285-78.358z"/>
		</g>
	</g>
	<g>
		<g>
			<path d="M1183.89-77.432c5.314-5.092,10.32-10.427,15.468-15.682c1.642-1.676-1.271-2.391-2.445-2.44
				c-2.229-0.094-5.071,0.671-6.675,2.309c-5.148,5.255-10.154,10.59-15.468,15.682c-1.711,1.64,1.328,2.393,2.445,2.44
				C1179.506-75.026,1182.213-75.825,1183.89-77.432L1183.89-77.432z"/>
		</g>
	</g>
	<g>
		<g>
			<path d="M1184.651-110.9c-4.479-1.962-8.373-5.531-8.684-10.699c-0.07-1.172,0.43-2.243,0.427-3.335
				c0.589-1.3,0.491-1.453-0.294-0.458c-0.886,0.494-0.858,0.818,0.083,0.972c0.385,0.572,2.885,1.609,3.419,1.996
				c1.152,0.835,2.177,1.84,3.199,2.823c3.591,3.453,7.048,7.073,10.509,10.656c4.135,4.282,8.512,8.572,12.023,13.397
				c1.357,1.865,1.725,3.474,2.469,5.576c0.428-0.037,0.855-0.073,1.283-0.11c-0.682,0.005-1.365,0.011-2.048,0.016
				c-1.163-0.13-2.419-0.55-3.457-1.095c-3.801-1.994-5.151-6.425-8.523-8.962c-1.996-1.501-9.194,3.683-6.818,5.47
				c2.624,1.973,3.711,5.209,6.182,7.343c2.354,2.033,5.372,3.043,8.467,3.043c4.577,0.001,10.992-2.817,12.477-7.575
				c1.477-4.734-2.766-9.134-5.607-12.398c-3.491-4.009-7.191-7.84-10.903-11.642c-5.039-5.161-13.326-16.641-21.398-14.612
				c-4.904,1.232-8.602,5.431-9.283,10.45c-0.918,6.765,3.823,12.054,9.66,14.611C1180.315-104.342,1186.987-109.876,1184.651-110.9
				L1184.651-110.9z"/>
		</g>
	</g>
	<path d="M454.326,438.026c-5.26-9.194-13.206-18.748-24.308-19.932c-4.972-0.531-10.172-0.097-15.156-0.017
		c-8,0.128-15.998,0.313-23.996,0.506c-0.075-3.503-0.154-7.007-0.22-10.51c-0.12-6.454-0.576-13.067-0.08-19.515
		c0.832-10.808-8.346-23.585-16.551-29.778c-5.748-4.338-16.972-9.307-17.841,1.989c-1.197,15.542,0.319,31.655,0.702,47.209
		c0.094,3.818,0.193,7.635,0.291,11.453c-13.873,0.357-27.747,0.704-41.622,0.962c-6.454,0.12-13.067,0.576-19.515,0.08
		c-3.772-0.29-5.455,4.422-5.651,7.18c-0.345,4.844,2.12,10.993,4.433,15.036c5.124,8.956,13.277,19.083,24.308,19.932
		c12.857,0.99,26.104,0.125,39.103-0.421c0.103,4.692,0.204,9.385,0.289,14.078c0.11,6.068,0.686,12.426,0.04,18.479
		c-0.51,4.783,2.27,11.055,4.433,15.036c2.864,5.272,7.281,11.091,12.118,14.742c5.983,4.515,16.651,9.168,17.841-1.989
		c0.531-4.972,0.097-10.172,0.017-15.156c-0.164-10.207-0.413-20.413-0.663-30.619c-0.127-5.169-0.259-10.337-0.393-15.506
		c14.24-0.368,28.481-0.726,42.724-0.984c6.068-0.11,12.426-0.686,18.479-0.04c3.76,0.401,5.463-4.527,5.651-7.18
		C459.104,448.218,456.64,442.069,454.326,438.026z"/>
	<path d="M548.399,285.356c-2.923-8.665-4.057-17.629-4.55-26.732c-1.047-19.327-1.686-37.955-6.573-56.829
		c-1.841-7.111-17.562,3.465-15.917,9.818c3.184,12.3,5.187,24.742,5.856,37.433c0.649,12.318,0.246,24.767,2.744,36.913
		c1.898,9.229,12.115,25.487,4.06,33.627c-4.299,4.344-12.192,4.717-17.93,4.976c-7.688,0.347-13.517,0.053-19.348-5.181
		c1.068-2.104,1.97-4.312,2.636-6.638c1.365-4.765-10.668-15.374-11.996-10.74c-2.727,9.518-8.763,17.883-17.725,22.463
		c-7.064,3.61-25.039,8.549-33.079,2.864c1.32-2.332,2.515-4.987,3.644-8.043c2.541-6.878-14.77-15.682-17.037-9.547
		c-3.16,8.553-6.51,16.108-16.295,17.578c-9.193,1.381-18.763,0.485-27.432-2.908c2.061-3.454,3.535-7.49,4.208-12.186
		c0.707-4.929-19.243-7.392-20.006-2.067c-1.153,8.039-5.252,14.951-12.144,19.403c-9.106,5.882-16.861,1.816-23.829-5.209
		c-0.835-0.842-2.565-1.458-4.642-1.846c1.338-3.857,1.862-8.232,1.413-13.224c-0.197-2.185-0.918-9.883-4.405-9.641
		c-3.386,0.235-3.199,8.278-3.03,10.157c0.292,3.249-8.426,8.016-10.689,9.333c-4.57,2.66-9.532,4.77-14.739,5.795
		c-7.179,1.414-15.308,0.852-21.589-2.908c1.786-3.99,3.104-8.229,4.039-12.452c0.938-4.236,1.066-10.238-1.897-13.822
		c-2.177-2.633-5.627-3.492-6.6,0.906c-2.583,11.672-7.956,22.541-20.149,26.326c-9.955,3.09-22.68,4.963-32.271,0.447
		c1.336-4.327,1.83-9.101,1.304-14.179c-0.6-5.791-13.784-16.345-12.741-6.277c1.138,10.979-5.461,20.848-15.533,24.913
		c-4.954,1.999-10.262,2.57-15.576,2.447c-2.7-0.062-5.364-0.316-8.031-0.741c-2.505-0.4-6.28-2.999-6.119,0.989
		c-0.105-2.598-1.105-5.318-2.708-7.547c2.085-3.824,3.719-7.888,4.813-12.065c0.969-3.701-1.598-4.932-4.725-3.908
		c-3.726,1.221-6.999,5.985-7.948,9.611c-0.146,0.557-0.324,1.092-0.51,1.623c-1.115,0.161-1.93,0.885-1.858,2.662
		c0.016,0.385,0.054,0.754,0.084,1.128c-9.739,16.129-39.963,15.406-43.981-5.215c-0.11-0.564-0.369-0.912-0.701-1.143
		c0.595-1.852,1.057-3.78,1.363-5.788c0.638-4.188-4.419-1.065-5.681-0.053c-3.163,2.536-5.664,6.838-6.273,10.838
		c-0.815,5.351-14.94,10.06-19.449,10.226c-5.933,0.219-11.864-3.026-16.484-6.501c-12.788-9.62-13.783-22.933-10.813-37.662
		c2.578-12.786,6.837-25.267,8.442-38.243c0.817-6.609,0.481-13.271,1.764-19.821c1.427-7.283,4.096-14.217,5.387-21.545
		c1.617-9.179-10.63,3.229-11.412,7.669c-1.614,9.163-5.191,17.864-6.441,27.1c-1.484,10.966-1.665,21.53-4.352,32.388
		c-4.213,17.03-12.657,38.92-2.19,55.19c8.959,13.925,24.033,19.892,39.224,13.272c5.979-2.605,11.528-6.083,16.132-10.415
		c5.612,14.834,24.706,18.216,39.13,13.534c7.756-2.518,14.476-7.259,19.793-13.293c7.162,11.023,23.755,13.969,37.055,12.886
		c8.365-0.681,15.457-3.841,20.708-8.731c0.193,0.26,0.394,0.5,0.611,0.695c5.174,4.649,10.135,7.821,17.266,8.032
		c9.11,0.269,19.993-0.692,28.503-4.039c4.162-1.637,7.671-4.08,10.62-7.068c9.663,12.572,26.754,13.117,40.46,7.379
		c6.116-2.56,11.218-5.772,15.011-9.82c16.216,10.299,40.775,11.795,55.169,0.441c12.965,6.028,26.5,9.429,40.939,8.285
		c8.744-0.693,14.59-3.015,18.983-7.57c14.538,13.61,36.979,11.9,52.18,0.572c21.295,14.976,63.669,0.555,68.116-26.201
		C553.959,299.662,550.843,292.6,548.399,285.356z"/>
</g>
</svg>
