<?xml version="1.0" encoding="utf-8"?>
<!-- Generator: Adobe Illustrator 23.0.1, SVG Export Plug-In . SVG Version: 6.00 Build 0)  -->
<svg version="1.1" id="Layer_3" xmlns="http://www.w3.org/2000/svg" xmlns:xlink="http://www.w3.org/1999/xlink" x="0px" y="0px"
	 viewBox="0 0 566.9 566.9" style="enable-background:new 0 0 566.9 566.9;" xml:space="preserve">
<path d="M96.3,199.6c-18.3-10.4-37.5,4.3-45.8,22.1c-1.8,3.9-3.2,8-4.1,12.1c-15.3-9.5-24.2-26.9-29.2-44.4
	c-1.3-4.7-4.7-6.2-8.2-2.1c-3.4,4-6,12.1-4.5,17.4c5.7,20.2,14.9,40.7,32.5,52c2.4,1.5,4.8,2.8,7.3,3.9c0,0.5,0,1,0.1,1.5
	c0.5,11,9.4,36.1,21.9,37.8c8.5,1.1,19.5-15.4,11.7-16.4l-1.5-6c-4.6-0.6-9.1-6.2-12.5-12.9c8.9-0.1,17.8-3.1,25.5-9.6
	C104.4,242.5,117.3,211.6,96.3,199.6z M90.9,230.7c-9,9.3-21.8,11.1-33.2,8c0.7-5,2.6-9.2,7.1-12.8c5.8-4.8,13.4-6,20.3-3.9
	c1.9,0.6,3.7,1.4,5.3,2.6c0.4,0.3,1.7,1.9,2.7,3.1C92.3,228.7,91.7,229.8,90.9,230.7z"/>
<path d="M545.9,341.5c-0.5-2.4-1.9-6.8-5-6.8c-10.6,0-21.8,0.2-32-3.3c-10.1-3.4-15.4-10.4-22.4-18c-6.1-6.7-13.5-11-21.5-15
	c-4.1-2.1-8.4-4.1-12.3-6.6c3.8-4.3,7.6-8.8,10.1-13.9c3.7-7.2,5.7-15.5,7.8-23.3c2.5-9.1,3-18.4,0.5-27.5
	c-1.9-6.9-5.5-15.4-11.8-19.5c-6.2-4-14.2-1.3-19.8,2.4c-13.4,8.7-25.4,21-35.6,33.2c-2.9,3.4-5.8,6.9-7.2,11.2
	c-1.1,3.3-1,6.2-0.7,9.1c-37.8-12.1-75.4-25-114.1-33.9c-38.9-8.9-80-13.9-119.5-5.7c-19.6,4.1-39,10.2-55.6,21.6
	c-14.9,10.3-27.2,23.6-36.8,38.9c-22.2,35.1-27.3,79.4-20.2,119.8c4,22.9,12,44.7,19.4,66.7c7.1,21.2,13.7,42.9,13.1,65.5
	c-0.1,3.3,1,10.9,5.5,11c0.9,0,1.6-0.3,2.3-0.8c0.7,0.7,1.6,1.2,2.6,1.3c14.2,1.5,28.4,2.1,42.7,1.9c0.3,0.2,0.6,0.3,0.9,0.4
	c1,0.2,1.8,0,2.5-0.4c5.6-0.4,6.9-12.4,4.2-18.5c0.2-9.7-0.1-19.6,3.3-28.5c4.7-12.1,12.6-23.5,19.6-34.4c3.2-4.9,6.2-9.7,8.9-14.6
	c25.3,5.8,50.9,11.2,76.8,13.9c24,2.5,50.9,4.4,74.3-3.2c0.8,2.3,1.5,4.5,2.3,6.8c6.7,19.4,10.4,39.3,10.8,59.7
	c-3,6.1-1.6,18.8,4.2,18.8c17.3,0,34.3-0.4,51-5c5.2-1.4,5.7-15.2,1.5-19.8c-6.2-24.3-6.4-49.5-0.4-73.8c23.5-9.6,47-18,71.6-24.2
	c11.2-2.8,23-7.1,34.6-7.7c11.4-0.6,22.4,3.5,33.3-1.6c3-1.4,4.2-6.6,4-11.6c2.5-8.4,3.3-17.1,3.5-26c0.2-8.7-0.7-18.3,2.7-26.5
	C546.4,349.8,546.9,345.5,545.9,341.5z M498.7,397.5c-12,1.3-24,5.5-35.6,8.4c-24,6.1-46.8,14.2-69.7,23.6c-2.9-1.6-5.4,1.9-6.3,4.9
	c-8.4,29.6-9.6,60.8-3.5,90.9c-11.1,2.1-22.5,2.4-33.8,2.5c-0.5-19.8-3.6-39.6-9.3-58.6c-3.1-10.4-7.7-20.4-9.8-31.1
	c-2.1-10.4-1.8-20.8,0.2-31.2c0.7-3.7,0.3-11.6-3.8-13.5c-4.4-2-6.2,4.8-6.8,7.7c-2.3,11.9-2.6,24-1.2,36c0.3,2.3,0.7,4.7,1.1,6.9
	c-10.3,2.8-21.2,3.3-31.8,3.4c-13,0.2-25.9-0.5-38.8-1.9c-22.7-2.5-45.1-7-67.4-12c0.1-0.4,0.2-0.8,0.2-1.2
	c2.3-13.8,1.5-28.2,0.4-42.1c-0.2-3.2-2.5-9.5-6.8-7.7c-4.3,1.8-4.1,10-3.8,13.5c0.8,11,2,23.9-1.4,34.6c-0.2,0.5-0.4,1.1-0.6,1.6
	c-1.1,1.1-1.9,3.1-2.4,5.4c-4.3,8.6-10.8,16.6-15.6,24.6c-6.5,10.6-13.5,21.6-16.7,33.7c-2.6,9.7-2.5,19.5-2.9,29.3
	c-0.2,0.9-0.4,1.8-0.5,2.6c-13,0.1-26-0.6-39-1.9c-1.7-36.6-17.2-70.5-27.4-105.4c-10.6-36.4-11.7-75.6,6-110
	c7.5-14.6,18-27.9,30.7-38.3c15-12.2,32.7-19.7,51.4-24.3c37.6-9.4,76.5-6.7,114.2,0.7c42.5,8.4,83.5,22.8,124.7,36
	c-0.2,2.8-0.1,5.6,0.4,8.3c0.6,3.1,2.3,9.6,6.8,7.7c4-1.7,4.5-9.9,3.9-13.4c0.2-0.5,0.3-1.1,0.5-1.6c0.5-1.4,1-2.8,1.4-4.3
	c1.3-4.1,2.1-8.4,2-12.7c0-1.3-0.1-2.5-0.3-3.7c2.4-2.9,4.9-5.8,7.4-8.6c5.4-5.9,11.1-11.5,17.1-16.7c5.1-4.4,11.5-10.7,18.4-11.8
	c6.7-1.1,10.7,5.3,11.7,11.3c0,0.3,0,0.5,0,0.6c-0.1,0.7-0.2,1.4-0.3,2.1c-0.3,1.7-0.9,3.4-1.4,5.1c-1.1,3.8-2.1,7.7-3.4,11.4
	c-2.3,6.8-7.4,11.8-12,17.1c-5.4,6.2-11,12.2-17.6,17.1c-3.9,3-4.5,9-3.8,13.5c0.3,2.2,2.8,10.6,6.8,7.7c3.5-2.6,6.8-5.4,9.9-8.4
	c12.5,12.4,31.3,15.7,43,29.3c6.9,8,13.5,14.9,23.9,18.2c8.2,2.7,16.8,3.5,25.3,3.7c-0.6,4.4-0.9,8.8-0.9,13.3
	c-0.2,8.7,0.8,18.4-2.4,26.6c-0.1,0.4-0.3,0.7-0.4,1.1C518.9,400.3,508.3,396.4,498.7,397.5z"/>
<path d="M461.7,338.8c-1.4-8.6-8-15.2-16.5-16.5c-0.9-0.1-1.5,0.4-2,1.4c-18.3,3.4-11.9,42.4,3.1,34.3c4.2-2.3,9.2-5.4,12.8-8.6
	C462.1,346.8,462.3,342.6,461.7,338.8z M448.9,344.6c-3.2,2.1-8.4,6.5-11,0.7c-2.1-4.7,1-10.1,5.9-10.7c0.7-0.1,1.3-0.5,1.7-1.2
	c1.9,0.3,3.7,0.9,5.4,2c2,1.2,2.9,3,4.5,4.4c0,0.1,0.1,0.2,0.1,0.4c-0.1,0.1-0.3,0.2-0.4,0.4C453,341.5,450.9,343.3,448.9,344.6z"/>
</svg>
