<?xml version="1.0" encoding="utf-8"?>
<!-- Generator: Adobe Illustrator 23.0.1, SVG Export Plug-In . SVG Version: 6.00 Build 0)  -->
<svg version="1.1" id="Layer_3" xmlns="http://www.w3.org/2000/svg" xmlns:xlink="http://www.w3.org/1999/xlink" x="0px" y="0px"
	 viewBox="0 0 566.9 566.9" style="enable-background:new 0 0 566.9 566.9;" xml:space="preserve">
<path d="M385.7,387.2c0.3-4.2,1.2-9.7,0-13.8c0.7-5.4-1-11.9-5.1-12.5c-7.4-1.2-15.7-0.3-23.2-0.4c-7.7-0.1-15.4-0.2-23.2-0.3
	c-16.2-0.2-32.4-0.5-48.6-0.7c-32.2-0.5-64.5-0.9-96.7-1.4c-2.7,0-4.3,3-4.9,6.6c-1.4,3-1.5,7.5-1.1,9.7c1.6,9,1.3,17.2-0.9,25.9
	c-2.8,4.9-1.6,14,2.5,16.7c0.9,0.6,1.7,0.5,2.5,0.1c0,0,0.1,0,0.1,0c1,0.1,1.9,0,2.9,0c3.5,0.1,7,0.2,10.5,0.3
	c11.2,0.4,22.5,0.9,33.7,1.2c27.9,0.8,55.9,1.4,83.7-0.5c21-1.5,41.4-3.8,62.5-0.8c5.7,0.8,5.3-12.3,4.3-15
	c-0.2-0.6-0.4-1.1-0.6-1.7c0.1-0.6,0.2-1.1,0.4-1.7C385.3,395.1,385.4,391.1,385.7,387.2z M186.7,417.2
	C186.1,417.4,186,417.2,186.7,417.2L186.7,417.2z M319.1,398.1c-14.9,1.1-29.9,1.3-44.9,1.3c-26.4-0.1-52.8-1.2-79.2-2.1
	c-0.6,0-1.2-0.1-1.7-0.1c0.8-6.4,1-12.8,0.5-19.2c30.6,0.5,61.3,0.9,91.9,1.3c16.2,0.2,32.4,0.5,48.6,0.7c7.7,0.1,15.4,0.2,23.2,0.3
	c6,0.1,12.5-0.5,18.6-0.1c0,3.6-0.3,7.3-0.8,10.8c-0.3,1.8-0.5,3.7-0.7,5.5C356,394.9,337.8,396.8,319.1,398.1z M384.6,365.9
	C384.6,365.9,384.6,365.9,384.6,365.9C384,364.4,384,364.4,384.6,365.9z M383.9,401.9C383.9,401.9,383.9,401.9,383.9,401.9
	C383.7,402.6,383.7,402.6,383.9,401.9z"/>
<path d="M357.2,397c-8.3,0-9.9,14.5-10,20c0,1.1-0.1,2.3-0.1,3.4c0,0.4-0.1,0.9-0.1,1.3c-0.4,4.3-0.9,8.5-1.4,12.8
	c-1.2,9.9-2.7,19.8-4.1,29.7c-2.7,18.5-5.9,36.9-8.1,55.4c-6.3,0.4-12.7,0.4-18.9,0.5c-9.1,0.2-18.3,0.4-27.4,0.6
	c-9.1,0.2-18.3,0.4-27.4,0.6c-4.6,0.1-9.1,0.2-13.7,0.3c-2.6,0.1-5.2,0.1-7.8,0.2c-0.5,0-1,0-1.6,0c-0.1-0.9-0.2-1.9-0.4-2.8
	c-0.7-5.2-1.4-10.5-2.1-15.7c-1.3-9.8-2.8-19.6-4.3-29.4c-3.1-20.2-6.5-40.4-10.3-60.5c-1-5.2-4.4-18-12.3-14
	c-7.3,3.7-8.2,17.9-7,24.6c3.9,20.7,7.4,41.5,10.6,62.4c1.6,10.4,3.1,20.9,4.5,31.3c1.4,10.7,1.5,22.6,4.9,32.8
	c2.4,7.3,6.2,11.3,13.9,11.2c5.2-0.1,10.5-0.2,15.7-0.4c10.5-0.2,20.9-0.5,31.4-0.7c10.5-0.2,20.9-0.5,31.4-0.7
	c9.9-0.2,19.9,0.1,29.7-1.5c9.3-1.6,10.9-14.9,9.8-24.3c0.3-2,0.7-3.9,0.7-4.3c1-8.3,2.3-16.7,3.6-25c3-19.8,6.2-39.6,8.6-59.5
	c1.2-9.5,2.3-19.1,2.4-28.6C367.3,411.2,365.4,397,357.2,397z M351.8,537.3c0,0.8-0.1,1.5-0.1,1.5c-0.2-0.1-0.2-1.2,0-2.6
	C351.7,536.8,351.7,537.2,351.8,537.3z"/>
<path d="M279.6,172.3c0.5,1,1,2,1.5,3c1.1,2.5,0.9,2-0.4-1.5c0.9,0.2,1.4,5.6,1.9,6.3c-0.8-4.2-1.1-5.3-0.7-3.1
	c0.2,0.8,0.3,1.6,0.4,2.5c0.2,1.1,0.3,2.2,0.4,3.3c-0.3-5.2-0.4-6.2-0.2-3c0,2.1,0.5,4.7,0,6.7c0.1-1.5,0.2-3.1,0.3-4.6
	c-0.1,1.1-0.2,2.2-0.3,3.4c-0.2,2.2-0.6,4.4-0.9,6.7c-1.1,6.6,0.4-0.1,0.2-0.3c1.3,0.7-6.8,24-7.6,26.5c-2.7,8.6-5.4,17.2-7.7,25.9
	c-5.1,19.7-9.1,39.4-10.1,59.8c-1,20.7,2.4,41.5,7.8,61.4c2.3,8.6,12,21.2,20.5,10.8c8.8-10.8,8.8-28.3,5.4-41
	c-0.7-2.5-1.3-5-1.9-7.5c-0.7-3-0.6-2.4,0.3,1.8c-0.2-1.2-0.5-2.3-0.7-3.5c-0.7-3.9-1.1-7.8-1.6-11.7c-0.3-3.2-0.2-2.2,0.2,3.2
	c-0.1-1.1-0.1-2.1-0.1-3.2c-0.1-2.1-0.1-4.2,0-6.3c0-1.6,0.2-3.1,0.2-4.7c0.1,10.1-0.2,2.7,0.1,0.2c0.4-3.7,1-7.4,1.6-11.1
	c0.4-2.2,2.8-9,0.1-1.1c0.7-2.2,1-4.6,1.6-6.8c2.1-8.8,4.4-17.5,7.1-26.2c5.8-18.7,12.3-37.3,14.4-56.9c2.6-24,0.8-49.5-10.6-71.3
	c-2-3.8-5.7-8.8-10.6-8.8c-4.8,0-8.8,5-10.6,8.8C273.7,142.1,273.1,160,279.6,172.3L279.6,172.3z"/>
<path d="M283.5,211.6c-6.3-1.4-14-4.7-20.5-7.4c-6.4-2.6-13.2-5.1-19.2-8.6c-8.8-11.3-17.1-25-29.9-32c-13-7.1-27.4-13.3-42-16.3
	c-15.7-3.3-32.1-4-48.1-4.4c-15-0.4-30.1,0-45.1,1.1c-2-0.5-4-0.9-6-1.3c-5.8-1-7.1,15.9-1.5,19.4c0.9,1.4,2,2.3,3.5,2.2
	c1.3-0.1,2.6-0.2,3.9-0.3c11.6,3.1,22,9.2,32.1,15.6c12.2,7.7,24.3,15.3,37.6,21.1c26.9,11.7,56.4,17.4,85.8,16.5
	c2.2-0.1,3.6-2,4.4-4.6c0.2,0.3,0.5,0.6,0.7,1c0.5,0.7,1.1,1.1,1.6,1.2c6.5,3.8,13.7,6.5,20.7,9.3c7.1,2.9,14.4,5.9,22,7.6
	C289.4,232.9,290.7,213.2,283.5,211.6z M147.7,179.8c-10.5-4.8-20.4-11.2-30.3-17.4c17.1,0.1,34.2,1.3,50.8,4.2
	c14.6,2.5,28.4,8.8,41.5,15.5c6.8,3.5,12.3,9,17.2,15.1C199.6,197,172.6,191.2,147.7,179.8z"/>
<path d="M423.5,56c-10.4-0.4-20.8-0.2-31.2,0.4c-15.1,0.9-31.6,2.3-44.6,10.9c-17.4,11.5-31.9,29.2-31.2,51.1c0,1.1,0.4,2.3,0.6,3.5
	c-0.9,0.6-1.7,1.5-2.6,2c-3.8,2.4-8.7,3.5-12,6.6c-1.4,1.3-2.2,3.5-3.8,4.6c-1.2,0.9-2.9,0.9-4.2,1.9c-3.3,2.5-4.7,6.8-5.2,10.7
	c-0.5,4.3,0.1,10.6,4.1,13.3c4.1,2.7,9.1-0.6,12.2-3.2c3.8-3.2,8.3-5.7,12.1-9c2.7-2.3,5.2-4.9,7.6-7.6c13.8,1.5,26.5-0.2,39.4-5.6
	c12.1-5,23.8-11.6,32.3-21.7c11.2-13.1,20.3-28.4,28.3-43.6C428.5,67.2,428,56.2,423.5,56z M317.2,121.7
	C317.3,120.7,317.4,121.4,317.2,121.7L317.2,121.7z M391.8,102.5c-9.1,10.1-22.9,16.7-35.6,21c-7.8,2.6-16.1,4.1-24.3,3.4
	c-3-0.2-5.5-1-7.7-0.4c0.1-1,0.2-2,0.3-3c0-1.8-0.1-3.6-0.4-5.4c0-0.2-0.1-1.7-0.2-1.8c0-0.6,0.1-1.2,0.2-1.9
	c1-6.9,4.6-13.2,9.1-18.5c7.9-9.4,18.7-17.4,30.6-20.6c16-4.2,33.3-5,50.1-4.6C407.6,82,400.4,93,391.8,102.5z"/>
<path d="M285.4,141.2c-6.1-0.1-11.9-2.5-17.5-4.7c-4.2-1.6-8.4-3-12.6-4.5c-2.1-0.7-4.1-1.5-6.2-2.3c-0.4-0.2-1.4-0.7-2-1
	c-5.4-23.2-41-30.6-61.6-30.1c-1.6,0-2.7,1.5-3.3,3.5c-1.8-0.8-3.5,1.8-4.1,3.5c-1,3.1-0.8,7.7,1.3,10.3c7,8.5,15.9,15.5,25.8,20.5
	c10.2,5.2,22.7,9.4,34.2,8.4c0.4,0,0.8-0.2,1.1-0.3c0.3,0.7,0.7,1.2,1.2,1.7c2.7,2.5,6.6,3.5,10,4.8c4.5,1.6,9.1,3.1,13.6,4.9
	c6.3,2.5,13.2,5.2,20.2,5.4C292.3,161.4,292.5,141.4,285.4,141.2z M194.3,113.8c7.8,0.5,15.6,2,23,4.7c4.5,1.7,8.9,3.7,13.1,6.2
	c2.2,1.3,4.3,2.7,6.2,4.4c0.3,0.3,0.5,0.5,0.8,0.8C222.3,130.6,206.5,123.6,194.3,113.8z"/>
<path d="M507.5,211.3c0,0-16.7-19.7-27.8-26.5c-14.1-8.7-32.8-12-49.1-12.8c-16.8-0.9-33.6,1.4-49.7,6.4
	c-15.2,4.8-31.4,12.1-41.9,24.5c-7.4,1.3-15,1.7-22.4,2.7c-4.3,0.6-8.6,1.2-12.8,2.1c-4.6,1.1-7.3,2.8-11.3,5.5
	c-3.6,2.5-4.1,8.3-3.5,12.3c0.3,2.1,2.5,9.5,6.2,7c3.2-2.2,5.7-4.1,9.4-5c4.3-1,8.8-1.5,13.1-2.1c6.5-0.8,13.1-1.3,19.5-2.3
	c0.6,1.7,1.5,3.3,3,4.2c11.6,7.6,25.5,9.7,39,10.9c15.5,1.4,31,2.9,46.5,3.8c27.4,1.6,81.1-10.1,81.1-10.1s8.7-3.4,9.4-5.9
	S507.5,211.3,507.5,211.3z M425.7,222.1c-15-0.9-29.9-2.4-44.8-3.7c-9.9-0.9-19.8-2-29-5.7c9.5-7.3,21.5-11.9,32.5-15.3
	c15.4-4.7,31.8-6.4,47.9-5.3c15.5,1,33,4.1,46.2,12.9c5,3.3,9,7.7,12.9,12.1C470.2,223,447.7,223.4,425.7,222.1z"/>
</svg>
