<?xml version="1.0" encoding="utf-8"?>
<!-- Generator: Adobe Illustrator 23.0.1, SVG Export Plug-In . SVG Version: 6.00 Build 0)  -->
<svg version="1.1" id="Layer_3" xmlns="http://www.w3.org/2000/svg" xmlns:xlink="http://www.w3.org/1999/xlink" x="0px" y="0px"
	 viewBox="0 0 566.9 566.9" style="enable-background:new 0 0 566.9 566.9;" xml:space="preserve">
<path d="M183.3,537.6c9,10.7,22.5,2.2,30.4-5c5.4-4.9,10.9-10.3,18.7-10.3c8.2,0,9.4,7.9,14.7,12.4c4.7,4,11.2,6.1,17.4,5.1
	c7.1-1.2,12.4-6.3,18.9-8.9c3.7-1.5,8.2-2.4,11.9-0.3c2.9,1.6,5,4.5,7.9,6.3c5.4,3.3,12.3,4.1,18.4,3.1c7-1.2,13.3-4.6,18.8-9
	c2.2-1.8,4.6-5.3,7.5-5.1c2.8,0.2,5.7,3,7.6,4.7c4,3.8,7.6,8.4,12.6,10.9c6.4,3.2,13.7,2.2,20-0.6c3.4-1.5,6.5-3.6,9.5-5.7
	c3-2.1,7.4-6.7,11-5.1c2.8,1.2,5.6,4.5,8.2,6.2c3.2,2,6.5,3.7,10.1,4.8c6.1,1.9,12.6,2.1,18.6-0.1c6.7-2.5,9.4-8.3,14.4-12.7
	c7.8-6.8,16.1,1.6,22,6.6c4.9,4.1,10.4,7.3,17,5.7c11.6-2.7,18.6-16.7,31.2-16.3c3.8,0.1,3.9-10.9,0-11
	c-10.8-0.3-17.8,9.1-26.4,14.1c-5.4,3.2-10.8,3.6-16.2,0.1c-5.7-3.6-9.7-9.4-16.2-11.7c-6.1-2.3-11.4-0.1-15.7,4.5
	c-5.1,5.5-8.7,10.4-16.8,11.2c-7.2,0.8-14-1.7-20-5.4c-5.5-3.4-9.9-10.2-16.6-5.9c-6.7,4.3-12.9,10-20.8,11.8
	c-7.3,1.6-13.2-0.9-18.4-5.9c-3.8-3.7-7.5-8.3-12.5-10.4c-2.1-0.8-4.2-1.6-6.2-0.4c-3.2,1.9-5.8,5.4-8.9,7.5
	c-6.1,4.2-13.1,7-20.6,6.5c-3.4-0.2-6.7-1.1-9.7-2.7c-3-1.7-5.1-4.4-8-6.2c-13.3-8.4-25.2,10.4-38.5,8.6c-3.9-0.5-7.7-2.3-10.5-5.1
	c-2.7-2.7-3.8-6.5-6.6-9.1c-4.6-4.2-11.3-4-16.8-1.9c-7.7,2.9-12.6,9.9-19.1,14.7c-5.5,4-14.6,6.8-19.8,0.7
	C182.9,524.4,181,534.9,183.3,537.6L183.3,537.6z"/>
<path d="M167.9,533.5c-0.3,0-0.5,0-0.8,0.1c-0.7-81.6-1.7-163.1-2.9-244.7c0-1.6-0.5-5.5-2.8-5.5c-0.2,0-0.4,0-0.6,0.1
	c-0.2-0.1-0.5-0.1-0.7-0.1c-22.5,0.3-45.1,0.5-67.6,0.8c-10.8,0.1-21.7,0.3-32.5,0.4c-10.9,0.1-22,0-32.5-3c-2-0.5-3.2,1.6-3.5,4
	c0,0.1-0.1,0.3-0.1,0.4c-3.8,15-1.8,30.2-0.9,45.4c0.9,16.3,0.3,32.2-1.3,48.3c-3.4,32.7-2.1,65.9-1.2,98.7
	c0.5,19.1,1.2,38.1,2.1,57.1c0.1,1.6,0.4,5.4,2.8,5.5c7,0.3,13.8,0,20.7-0.8c2.7-0.3,3-5.1,2.7-7c-1-5-1.6-10.1-1.3-15.2
	c0.1-3.1-0.7-4.1,2.3-4.3c1.9-0.2,3.9-0.2,5.8-0.3c9.5-0.5,19-0.8,28.5-0.8c17.7,0,35.4,1.1,53,3c0,4.8,0,9.7,0.1,14.5
	c0.1,3.9-0.9,11.2,2.1,14.4c2.2,2.4,7.4,1.3,10.2,1.2c4.8-0.1,9.7-0.4,14.5-0.7c0.2,0,0.3,0,0.5,0c1.2-0.1,2.4-0.2,3.6-0.4
	C171.8,544.1,171.6,533.2,167.9,533.5z M153.5,534.5c-1.7,0.1-3.4,0.1-5,0.2c-1.3,0-4.6-0.5-5.8,0c0-0.9-0.1-1.8-0.1-2.7
	c-0.1-2-0.1-3.9-0.1-5.9c-0.1-5.3-0.1-10.5-0.1-15.8c0-1.8-0.5-5.2-2.8-5.5c-22.1-2.6-44.3-3.7-66.6-3.2c-5.6,0.1-11.2,0.4-16.8,0.6
	c-3.9,0.2-10.2-1-12.5,2.9c-2.2,3.7-2,9.6-2.1,13.8c-0.1,3.6,0.1,7.1,0.5,10.7c-4.8,0.5-9.7,0.6-14.5,0.5
	c-1.9-39.7-3.3-79.6-2.6-119.4c0.4-19.9,3.8-39.5,3.9-59.4c0-10-0.6-20-1.3-30c-0.7-9.5-1.6-19.2,0.5-28.7
	c20.1,4.9,41.8,2.7,62.3,2.4c22.7-0.3,45.5-0.5,68.2-0.8c1.2,79.9,2.1,159.8,2.8,239.7C158.9,534.2,156.2,534.4,153.5,534.5z"/>
<g>
	<path d="M393.7,71c0.7-13.9-1.6-27.6-2.1-41.5c0-0.2,0-0.4,0-0.6c2.5-2.5,1.5-11.5-2.2-10.1c-74.5,27.9-148.1,58.2-221.4,89
		c-19.6,8.2-39.1,16.5-58.7,24.7c-4.8,0.2-9.6,0.3-14.4,0.5c-18.9,0.7-37.8,1.4-56.6,0.3c-2.4-0.1-3.3,4.4-2.6,7.7
		c-2.3,6.8-4.4,13.8-5.2,21c-0.8,7.3-0.1,14.6,0.6,21.9c0.8,8.3,1.6,16.5,2.5,24.8c0.8,8,0.8,16.6,2.6,24.4c1.2,5.4,4.6,8,9.9,8.9
		c8.1,1.3,16.4,1.6,24.6,2.3c1.7,0.1,3.4,0.3,5.2,0.4c-8.9,12.4-15.9,25.9-21,40.3c-1.4,3.9,2.4,12.3,4.7,5.6
		c4.8-13.6,20.2-38,20.2-38l3.9-7.1c0,0,15.4,1.1,24.2,1.6c0.3,0,1.7,4.3,1.7,4.3s10.2,25,16.8,36.8c3.4,6,6.3-5.3,4.4-8.7
		c-5.8-10.3-10.8-21-15-32.1c1.7,0.1,3.5,0.1,5.2,0.2c19.1,0.6,38.2,0.3,57.2-1.4c1.1-0.1,5.7-4.2,5.9-5.9
		c1.8-15.1,1.9-30.2,1.1-45.4c34.6-19.3,72.8-40.8,107.3-60.1c31.6-17.7,63-37.1,96.6-50.8c0.1,0,4.3-1.7,5.2-2.1
		C397.4,80.5,397,71.1,393.7,71z M179,235.1c-0.3-0.1-0.5-0.2-0.8-0.1c-38.2,3.5-76.4,0.9-114.5-2.4c-4.6-0.4-9.2-0.8-13.8-1.2
		c-2.5-0.2-7.2-0.1-8.8-2.5c-0.9-1.5-0.6-5.5-0.7-7.3c-0.2-2.3-0.5-4.6-0.7-6.9c-0.5-5-1-9.9-1.5-14.9c-0.9-9.1-2.2-18.2-2.6-27.3
		c-0.5-9.7,2.3-18.6,5.4-27.8c0-0.1,0-0.2,0.1-0.2c21.1,1.1,67.9-0.6,68.9-1c14.2-0.4,28.3-0.6,42.5,0.4c7,0.5,20.5-0.6,23.1,7.8
		c1.2,3.8,1.1,8.4,1.5,12.3c0.5,4.6,1,9.1,1.4,13.7C178.3,178.8,180.8,218.7,179,235.1z M168.6,134.6c-7.7-1.7-16.1-1.9-24-2.2
		c-2.7-0.1-5.4-0.2-8.1-0.2c19.8-8.3,39.5-16.6,59.3-24.9c0,1.8,0.3,3.6,1.2,4.5c-1.1,11.7-5.9,22.9-10.1,33.8
		c-1.7,4.5-3.3,8.9-4.6,13.4c-0.4-4.9-1-9.8-2.5-14.3C178,139.1,174.2,135.8,168.6,134.6z M184.5,183.6c-0.2-2-0.3-4.1-0.5-6.1
		c1.4-11.3,6.1-22,10.1-32.6c3.6-9.5,6.7-19,8-29c15,12.1,31.2,22.4,48.5,30.7C229.6,158.4,205.6,171.8,184.5,183.6z M260.1,139.7
		c-20.7-9-40.2-20.8-57.6-35.2c25.6-10.7,51.3-21.2,77-31.6c0,1.5,0.2,3,0.8,4c-7.1,20.8-13.8,41.8-19.9,63
		C260.2,139.8,260.2,139.7,260.1,139.7z M291.1,124c-7.9,4.4-15.7,8.8-23.6,13.2c5.6-19.1,11.7-38,18.1-56.8
		c15.3,7.9,31.2,14.5,47.6,19.7C319.1,107.9,305.1,116.1,291.1,124z M341.6,91.5c-18.9-5.4-37.1-12.7-54.6-21.8
		c13.5-5.4,27-10.8,40.5-16.1c18.4-7.2,36.8-14.3,55.2-21.3c-4.7,9.5-10.8,18.2-17.2,26.7c-7.7,10.4-15.5,20.7-23.2,31.1
		C342.1,90.5,341.8,91,341.6,91.5z M387.9,73.1c-12,4.9-23.7,10.5-35.3,16.5c5.6-7.5,11.2-15,16.8-22.5c6.4-8.6,12.6-17.5,17.3-27.1
		C387.7,51,389.1,62.1,387.9,73.1z"/>
	<path d="M99.3,260.8c-1.8-6.8-7.1-5.2-8.1-3c-4.3,9.1-8.4,18.3-12.2,27.6c-0.9,2.2-1.4,5.6,0,7.8c1.1,1.7,2.9,2.3,3.9,0
		c3.8-9,7.7-17.8,11.8-26.6c1.5,7.1,3.5,14,6,20.9c0.7,1.8,1.9,3.6,3.8,2c1.7-1.5,1.7-5.6,1-7.5C102.8,275,100.8,267.9,99.3,260.8z"
		/>
</g>
<path d="M388.6,179.8c-4.1-0.3-8.3-0.3-12.4-0.3c0.3-1.1,0.4-2.2,0.4-2.8c-0.8-27.9-0.3-55.9,1.4-83.8c0.1-1.6-0.5-5.5-2.8-5.5
	c-2.3,0-2.7,4-2.8,5.5c-1.7,27.9-2.1,55.8-1.4,83.8c0,0.7,0.1,1.9,0.4,3c-5.6,0.2-11.2,0.5-16.7,0.4c-2.5,0,2.2,7.9,5.3,7.9
	c3,0,6.1,0,9.2-0.1c0.1,1.4-0.1,2.9-0.8,4.1c-1.3,2.4-4,3.2-6.1,4.8c-3.3,2.4-5.4,5.7-6.7,9.5c-2.5,7.7-2.3,18.9,4.6,24.4
	c5.8,4.6,16.2,2.4,22.1-0.9c7.9-4.3,10.7-13.6,7.8-22.1c-1.1-3.1-11.1-0.7-10.2,2c2,5.8,1.6,17.8-6.6,18.6
	c-6.8,0.7-9.3-10.3-9.1-15.2c0.1-3.3,0.8-6.9,2.2-9.9c1.7-3.7,4.4-5.2,7.7-7.2c3.2-2,4.8-5.1,5.2-8.5c4.4-0.1,8.9-0.2,13.2,0.2
	C396.5,187.9,391.4,180,388.6,179.8z"/>
<path d="M546.8,503.6c-2-16.3-4.1-32.6-6.1-48.9c-2.1-16.6-3.9-33.4-2.5-50.1c0.2-1.7,0.3-6.1-1.9-6.8c0,0,0,0,0,0
	c-0.4-0.5-1-0.9-1.6-0.9c-0.5,0-1.1,0-1.6,0c0.5-1.3,0.7-2.8,0.7-3.7c-1.1-35.3-1.4-70.7-1.1-106c3.5-0.5,3.5-10.9-0.3-11
	c-15.9-0.3-31.9-0.7-47.8-1c-8-0.2-15.9-0.3-23.9-0.5c-5.6-0.1-10.7-1-11.9,5.7c-1.3,7-0.8,14.6-1.2,21.7c-0.2,3.9-0.4,7.7-0.6,11.6
	c-0.2,3.1-0.6,6.5,0.4,9.4c2.2,6.1,8,4.2,13.2,3.8c5.3-0.4,10.5-0.8,15.8-1.3c0.9,23.6,2.6,47.2,5.1,70.7c-67.5-0.4-135,0-202.5,1.5
	c-24,0.5-47.9,1.2-71.9,1.9c-0.7,0-1.2,0.4-1.7,1c-1.7,0.1-2.5,2.4-2.6,3.9c-1.6,22.8,5.7,44.9,19.7,62.9
	c14.8,19.1,36.1,31.8,58.9,38.9c25.2,7.9,51.7,9.5,77.9,8.9c28.5-0.7,57-3.2,85.5-4.3c32.3-1.3,64.6-2.2,96.8-4.8c0,0,0,0,0,0.1
	c0.2,1.7,1.2,4.5,3.4,3.8C547,509.7,547,505.2,546.8,503.6z M481.8,325.3c1.1-0.1,2.1-0.2,3.2-0.3c3.9-0.3,3.7-11.3,0-11
	c-5.9,0.5-11.7,0.9-17.6,1.4c-2.6,0.2-5.2,0.4-7.8,0.6c-1.6,0.1-5.4,1.1-7.5,0.3c-0.2-4,0.6-8.5,0.8-12.3c0.2-4.5,0.5-9,0.7-13.5
	c0.1-1.3,0.1-2.6,0.2-3.9c0.1-0.5,0.1-0.9,0.2-1.2c1.4-0.3,3.4,0.1,4.7,0.2c5,0.1,10,0.2,14.9,0.3c17.8,0.4,35.7,0.7,53.5,1.1
	c-0.3,35.4,0,70.7,1.1,106.1c0,0.9,0.2,2.4,0.6,3.6c-13.9-0.2-27.8-0.3-41.8-0.4C484.5,372.8,482.7,349.1,481.8,325.3z M461.4,499.6
	c-27.2,1-54.4,2.5-81.6,4c-47.8,2.6-102.3,2-140.8-30.9c-17.8-15.2-31.5-38-31.1-61.9c84.9-2.7,169.9-3.8,254.8-3.5
	c7.2,0,14.4,0.1,21.6,0.1c0.3,0.1,0.7,0.1,1.1,0c15.7,0.1,31.4,0.3,47,0.5c-0.8,15.3,0.6,30.5,2.4,45.8c1.7,13.9,3.5,27.9,5.2,41.8
	C513.9,497.7,487.7,498.7,461.4,499.6z"/>
<g>
	<path d="M273.9,317.9c-22.9,1.1-45.8,1.9-68.7,2.5c-3.9,0.1-3.8,11.1,0,11c1.6,0,3.2-0.1,4.9-0.1c0,0.5,0,1,0.1,1.3
		c2.4,18.7,3.3,37.6,2.7,56.4c-2.5,0.1-5.1,0.1-7.6,0.2c-3.9,0.1-3.8,11.1,0,11c22.9-0.6,45.8-1.4,68.7-2.5c3.9-0.2,3.8-11.2,0-11
		c-2.4,0.1-4.8,0.2-7.1,0.3c-0.5-18.2,0.4-36.4,2.7-54.5c0.1-0.8,0.2-2.2,0-3.5c1.5-0.1,3-0.1,4.5-0.2
		C277.8,328.7,277.7,317.7,273.9,317.9z M264.2,329.7c-2.5,19.1-3.4,38.4-2.9,57.7c-14.3,0.6-28.6,1.1-42.9,1.6
		c0.6-19.3-0.3-38.6-2.7-57.8c16.2-0.5,32.4-1,48.5-1.8C264.2,329.5,264.2,329.6,264.2,329.7z"/>
	<path d="M353.3,317.9c-22.9,1.1-45.8,1.9-68.7,2.5c-3.9,0.1-3.8,11.1,0,11c1.6,0,3.2-0.1,4.9-0.1c0,0.5,0,1,0.1,1.3
		c2.4,18.7,3.3,37.6,2.7,56.4c-2.5,0.1-5.1,0.1-7.6,0.2c-3.9,0.1-3.8,11.1,0,11c22.9-0.6,45.8-1.4,68.7-2.5c3.9-0.2,3.8-11.2,0-11
		c-2.4,0.1-4.8,0.2-7.1,0.3c-0.5-18.2,0.4-36.4,2.7-54.5c0.1-0.8,0.2-2.2,0-3.5c1.5-0.1,3-0.1,4.5-0.2
		C357.2,328.7,357.1,317.7,353.3,317.9z M343.6,329.7c-2.5,19.1-3.4,38.4-2.9,57.7c-14.3,0.6-28.6,1.1-42.9,1.6
		c0.6-19.3-0.3-38.6-2.7-57.8c16.2-0.5,32.4-1,48.5-1.8C343.6,329.5,343.6,329.6,343.6,329.7z"/>
	<path d="M432.3,386.8c-2.4,0.1-4.8,0.2-7.1,0.3c-0.5-18.2,0.4-36.4,2.7-54.5c0.1-0.8,0.2-2.2,0-3.5c1.5-0.1,3-0.1,4.5-0.2
		c3.9-0.2,3.8-11.2,0-11c-22.9,1.1-45.8,1.9-68.7,2.5c-3.9,0.1-3.8,11.1,0,11c1.6,0,3.2-0.1,4.9-0.1c0,0.5,0,1,0.1,1.3
		c2.4,18.7,3.3,37.6,2.7,56.4c-2.5,0.1-5.1,0.1-7.6,0.2c-3.9,0.1-3.8,11.1,0,11c22.9-0.6,45.8-1.4,68.7-2.5
		C436.2,397.6,436.1,386.6,432.3,386.8z M374.1,331.1c16.2-0.5,32.4-1,48.5-1.8c0,0.1,0,0.2,0,0.3c-2.5,19.1-3.4,38.4-2.9,57.7
		c-14.3,0.6-28.6,1.1-42.9,1.6C377.4,369.6,376.5,350.3,374.1,331.1z"/>
</g>
</svg>
