<?xml version="1.0" encoding="utf-8"?>
<!-- Generator: Adobe Illustrator 23.0.1, SVG Export Plug-In . SVG Version: 6.00 Build 0)  -->
<svg version="1.1" id="Layer_3" xmlns="http://www.w3.org/2000/svg" xmlns:xlink="http://www.w3.org/1999/xlink" x="0px" y="0px"
	 viewBox="0 0 566.93 566.93" enable-background="new 0 0 566.93 566.93" xml:space="preserve">
<g>
	<g>
		<path d="M163.174,565.682c-26.704-16.128-49.739-40.469-68.049-65.445c-20.682-28.211-39.509-64.977-31.217-100.949
			c4.293-18.62,16.664-33.997,30.528-46.623c14.405-13.119,31.107-23.435,48.516-32.064c37.548-18.611,78.316-29.738,118.425-41.309
			c18.935-5.463,37.899-10.934,56.46-17.583c13.696-4.906,31.582-10.089,40.629-22.408c16.106-21.931-25.639-35.651-39.574-40.716
			c-12.335-4.484-24.945-8.16-37.29-12.609c-11.555-4.164-22.991-8.732-34.508-13.012c-16.088-5.979-32.143-12.155-47.679-19.472
			c-12.468-5.873-27.28-12.552-36.224-23.477c-2.342-2.861-4.892-6.827-3.52-10.657c1.087-3.033,4.96-5.823,7.694-7.71
			c11.373-7.849,25.019-12.659,38.004-17.065c25.01-8.486,50.797-14.874,76.639-20.265c1.55-0.323,3.101-0.645,4.655-0.95
			c2.748-0.538,5.047-7.484,1.271-6.744c-20.606,4.037-41.086,9.086-61.245,14.941c-15.094,4.384-30.178,9.248-44.498,15.781
			c-9.336,4.26-20.726,9.698-26.05,19.012c-5.543,9.697,0.608,18.568,8.061,24.936c11.829,10.105,26.763,16.787,40.893,22.967
			c15.831,6.923,32.042,12.925,48.251,18.892c10.735,3.952,21.316,8.338,32.171,11.948c13.555,4.508,27.227,8.722,40.457,14.142
			c6.477,2.653,12.93,5.557,18.877,9.274c4.044,2.527,8.632,5.659,10.84,10.062c1.813,3.616,0.706,6.499-2.031,9.234
			c-5.997,5.991-14.717,9.491-22.434,12.583c-18.157,7.274-36.951,12.923-55.707,18.417
			c-40.594,11.891-81.794,22.626-120.534,39.903c-34.079,15.198-70.906,37.566-88.827,71.724
			c-17.337,33.047-8.347,70.498,8.901,101.559c17.054,30.711,41.725,58.201,69.403,79.75c4.798,3.736,9.752,7.284,14.96,10.43
			C162.035,573.755,165.825,567.284,163.174,565.682L163.174,565.682z"/>
	</g>
</g>
<g>
	<g>
		<path d="M454.332,559.682c-14.38-8.126-28.577-16.589-42.708-25.136c-30.294-18.324-60.223-37.304-89.325-57.475
			c-27.703-19.202-56.157-39.257-79.293-63.972c-6.784-7.247-14.514-15.759-17.214-25.579c-0.453-1.647-0.725-3.157-0.648-4.876
			c0.044-0.986,0.529-2.606,0.666-2.881c0.607-1.218,1.044-1.708,2.357-2.74c1.586-1.247,3.767-2.467,5.719-3.56
			c12.897-7.221,26.923-12.5,40.722-17.697c18.596-7.005,37.387-13.488,56.14-20.057c39.544-13.852,79.575-27.454,117.261-45.924
			c14.134-6.927,28.424-14.615,40.38-24.977c8.062-6.987,16.185-16.393,16.577-27.614c0.446-12.785-10.823-23.392-19.847-30.877
			c-15.579-12.923-34.277-21.99-52.788-29.876c-40.749-17.359-83.67-28.758-125.937-41.688c-13.109-4.01-27.414-7.607-39.371-14.538
			c-3.411-1.977-7.057-4.564-9.117-7.979c-2.375-3.938,0.218-5.737,3.609-7.824c11.607-7.141,25.845-10.358,38.625-14.749
			c7.45-2.56,14.741-5.44,22.372-7.442c8.619-2.26,17.36-4.011,25.747-7.079c2.585-0.945,4.721-8.006,1.271-6.744
			c-8.386,3.067-17.128,4.819-25.747,7.079c-8.375,2.196-16.389,5.415-24.577,8.193c-12.557,4.26-26.374,7.597-37.796,14.558
			c-6.399,3.9-12.969,11.167-8.579,18.97c3.31,5.884,9.987,9.599,15.977,12.278c14.619,6.539,30.367,10.782,45.674,15.36
			c21.685,6.485,43.425,12.791,64.923,19.883c22.004,7.259,43.903,15.189,64.784,25.285c16.943,8.192,34.684,17.958,47.091,32.458
			c6.923,8.091,11.167,16.981,5.152,26.596c-6.919,11.06-19.558,18.663-30.561,25.028c-35.568,20.576-75.27,34.157-113.85,47.838
			c-35.892,12.729-72.845,23.892-107.455,39.921c-8.507,3.94-20.053,8.355-23.675,17.864c-3.153,8.277,0.778,16.962,5.268,23.908
			c7.06,10.924,16.703,20.187,26.272,28.884c12.808,11.641,26.467,22.338,40.364,32.641c30.187,22.38,61.722,42.943,93.635,62.761
			c20.16,12.519,40.51,24.75,61.106,36.541c1.014,0.58,2.027,1.16,3.044,1.735C453.259,567.69,457.01,561.195,454.332,559.682
			L454.332,559.682z"/>
	</g>
</g>
<g>
	<g>
		<path d="M309.445,555.094c-33.36-23.875-66.721-47.749-100.081-71.623c-3.657-2.617-9.467,6.993-5.625,9.742
			c33.36,23.875,66.721,47.749,100.081,71.623C307.476,567.453,313.286,557.843,309.445,555.094L309.445,555.094z"/>
	</g>
</g>
<g>
	<g>
		<path d="M148.558,423.097c-3.296-5.788-5.507-13.137-6.439-19.951c-2.118-15.482,3.717-28.901,16.591-37.876
			c2.243-1.564,4.025-4.029,3.978-6.889c-0.038-2.225-2.077-3.82-4.134-2.387c-16.061,11.196-25.886,27.933-24.908,47.795
			c0.467,9.488,3.211,19.511,7.934,27.806C143.963,435.78,150.738,426.924,148.558,423.097L148.558,423.097z"/>
	</g>
</g>
<g>
	<g>
		<path d="M221.997,322.893c24.313-7.185,48.627-14.37,72.94-21.556c2.666-0.788,4.872-7.808,1.271-6.744
			c-24.313,7.185-48.627,14.37-72.94,21.556C220.602,316.937,218.396,323.957,221.997,322.893L221.997,322.893z"/>
	</g>
</g>
<g>
	<g>
		<path d="M352.101,277.784c7.063-1.863,14.061-4.039,20.961-6.434c9.38-3.257,20.098-6.708,27.64-13.44
			c2.376-2.121,2.187-8.487-1.472-5.221c-7.258,6.479-18.047,9.616-27.08,12.665c-6.193,2.09-12.456,4.02-18.777,5.687
			C350.675,271.751,348.439,278.75,352.101,277.784L352.101,277.784z"/>
	</g>
</g>
<g>
	<g>
		<path d="M428.669,229.411c-0.856-10.857-10.368-19.349-19.274-24.182c-2.713-1.472-6.441,5.035-3.75,6.495
			c6.134,3.329,11.709,7.698,15.154,13.88c0.877,1.574,1.582,3.241,2.057,4.981c0.22,0.805,0.409,1.872,0.405,1.827
			C423.611,236.844,428.896,232.296,428.669,229.411L428.669,229.411z"/>
	</g>
</g>
<g>
	<g>
		<path d="M371.84,186.051c-11.778-4.667-23.555-9.333-35.333-14c-2.928-1.16-6.479,5.414-3.75,6.495
			c11.778,4.667,23.555,9.333,35.333,14C371.018,193.706,374.569,187.132,371.84,186.051L371.84,186.051z"/>
	</g>
</g>
<g>
	<g>
		<path d="M296.51,160.237c-10.713-3.743-21.425-7.486-32.138-11.229c-1.492-0.521-3.236,2.772-1.875,3.248
			c10.713,3.743,21.425,7.486,32.138,11.229C296.127,164.006,297.871,160.713,296.51,160.237L296.51,160.237z"/>
	</g>
</g>
<g>
	<g>
		<path d="M236.153,139.341c-6.631-3.167-13.261-6.333-19.892-9.5c-1.408-0.672-3.234,2.598-1.875,3.248
			c6.631,3.167,13.261,6.333,19.892,9.5C235.685,143.261,237.512,139.99,236.153,139.341L236.153,139.341z"/>
	</g>
</g>
<g>
	<g>
		<path d="M204.215,118.847c-0.377-1.7-0.268-3.773,1.009-5.092c0.487-0.503,0.986-1.76,0.473-2.39
			c-0.574-0.704-1.409-0.017-1.853,0.442c-2.311,2.389-2.934,6.1-2.231,9.277c0.194,0.874,1.178,0.585,1.669,0.187
			C203.953,120.727,204.405,119.707,204.215,118.847L204.215,118.847z"/>
	</g>
</g>
<g>
	<g>
		<path d="M216.147,103.651c4.5-1.81,9-3.62,13.5-5.43c1.268-0.51,2.318-4.049,0.636-3.372c-4.5,1.81-9,3.62-13.5,5.43
			C215.515,100.789,214.465,104.328,216.147,103.651L216.147,103.651z"/>
	</g>
</g>
<g>
	<g>
		<path d="M249.015,90.184c4.864-2,9.729-4,14.593-6c1.101-0.453,0.863-2.935-0.347-2.437c-4.864,2-9.729,4-14.593,6
			C247.567,88.199,247.805,90.681,249.015,90.184L249.015,90.184z"/>
	</g>
</g>
<g>
	<g>
		<path d="M288.777,78.558c3.301-1.153,6.602-2.306,9.902-3.458c1.454-0.508-0.308-2.077-1.429-1.685
			c-3.301,1.153-6.602,2.306-9.902,3.458C285.895,77.38,287.656,78.949,288.777,78.558L288.777,78.558z"/>
	</g>
</g>
<path d="M1.723,70.596c39.495-4.409,77.815,8.41,116.904,11.304c19.838,1.469,39.525-0.599,59.223-2.82
	c20.223-2.28,40.484-3.992,60.81-5.039c82.795-4.264,166.031-0.689,248.872,0.63c46.793,0.745,93.586,1.49,140.378,2.235
	c1.722,0.027,1.758-4.972,0-5c-82.948-1.32-165.895-2.658-248.843-3.96c-41.533-0.652-83.092-1.177-124.612,0.393
	c-20.407,0.771-40.799,2.051-61.122,4.074c-20.164,2.007-40.304,5.113-60.613,5.048C88.686,77.319,45.957,60.657,1.723,65.596
	C-0.069,65.796,0.078,70.78,1.723,70.596L1.723,70.596z"/>
</svg>
