<?xml version="1.0" encoding="UTF-8" standalone="no"?>
<!DOCTYPE svg PUBLIC "-//W3C//DTD SVG 1.1//EN" "http://www.w3.org/Graphics/SVG/1.1/DTD/svg11.dtd">
<svg width="100%" height="100%" viewBox="0 0 1024 1024" version="1.1" xmlns="http://www.w3.org/2000/svg" xmlns:xlink="http://www.w3.org/1999/xlink" xml:space="preserve" xmlns:serif="http://www.serif.com/" style="fill-rule:evenodd;clip-rule:evenodd;stroke-linejoin:round;stroke-miterlimit:1.41421;">
    <g id="Layer_2">
        <g>
            <path d="M695.385,579.051L575.437,908.019C575.437,908.019 578.31,935.208 613.016,922.776C647.729,910.342 730.089,592.88 730.089,592.88L695.385,579.051Z" style="fill:rgb(35,31,32);fill-rule:nonzero;"/>
            <path d="M695.505,579.317C693.196,586.166 690.85,593.001 688.483,599.828L681.321,620.511L666.781,661.797C656.983,689.283 647.135,716.751 637.081,744.144C632.053,757.84 626.932,771.502 621.76,785.146L606.286,826.092C601.113,839.735 596.036,853.413 591.015,867.112C585.969,880.801 581.088,894.551 576.118,908.268L576.158,907.944C576.757,911.853 578.467,915.763 581.099,918.75C583.724,921.777 587.372,923.773 591.291,924.558C595.219,925.367 599.337,925.124 603.327,924.368C605.328,923.985 607.308,923.472 609.263,922.862C610.24,922.555 611.21,922.225 612.174,921.875C612.674,921.7 613.094,921.529 613.474,921.327C613.882,921.117 614.281,920.867 614.669,920.59C616.23,919.479 617.622,918.013 618.909,916.464C620.196,914.907 621.382,913.241 622.508,911.531C624.755,908.103 626.77,904.496 628.675,900.83C632.468,893.484 635.883,885.917 639.101,878.266C651.815,847.573 662.427,815.979 672.551,784.277C682.717,752.576 692.309,720.682 701.782,688.751C706.507,672.781 711.119,656.776 715.682,640.758C720.3,624.755 724.828,608.721 729.261,592.668L729.773,593.678L695.505,579.317ZM695.271,578.794L730.406,592.085L731.102,592.349L730.917,593.095C726.92,609.281 722.741,625.412 718.519,641.536C714.232,657.642 709.823,673.717 705.339,689.771C696.381,721.882 686.852,753.84 676.587,785.576C671.402,801.426 666.049,817.225 660.399,832.927C654.744,848.624 648.817,864.24 642.112,879.557C638.745,887.207 635.24,894.813 631.215,902.183C629.198,905.865 627.067,909.496 624.668,912.986C623.465,914.727 622.195,916.434 620.791,918.058C619.382,919.674 617.857,921.235 615.991,922.508C615.525,922.824 615.034,923.119 614.51,923.375C613.964,923.649 613.408,923.85 612.922,924.009C611.921,924.348 610.912,924.667 609.895,924.961C607.861,925.553 605.793,926.048 603.695,926.408C599.509,927.118 595.14,927.306 590.9,926.35C586.671,925.428 582.67,923.138 579.887,919.792C578.483,918.138 577.367,916.265 576.504,914.299C575.646,912.318 575.016,910.293 574.718,908.095L574.697,907.938L574.758,907.771C579.782,894.074 584.898,880.41 589.848,866.685C594.822,852.969 599.741,839.234 604.563,825.462L619.077,784.166C623.901,770.395 628.775,756.644 633.743,742.925C643.681,715.49 653.823,688.13 664.017,660.788L679.463,619.832L687.294,599.394C689.902,592.581 692.53,585.774 695.198,578.982L695.271,578.794Z" style="fill-rule:nonzero;"/>
        </g>
        <path d="M844.949,214.604C839.962,212.256 834.822,210.253 829.543,208.698C824.258,207.175 818.858,206.042 813.399,205.456C802.486,204.249 791.393,205.046 780.824,207.736C775.533,209.06 770.356,210.794 765.34,212.895C760.333,215.023 755.485,217.496 750.807,220.25C741.444,225.755 732.797,232.394 724.774,239.676C716.716,246.933 709.351,254.929 702.424,263.269C698.972,267.451 695.621,271.718 692.421,276.102C689.182,280.455 686.099,284.927 683.097,289.453C671.112,307.575 660.82,326.848 652.093,346.837C647.715,356.827 643.758,367.016 640.272,377.377C636.761,387.73 633.751,398.266 631.301,408.941C626.447,430.275 623.829,452.295 625.144,474.205C625.807,485.14 627.418,496.038 630.346,506.57C633.278,517.082 637.345,527.313 643.064,536.547C645.898,541.171 649.094,545.559 652.638,549.631C656.208,553.681 660.133,557.399 664.353,560.726C668.567,564.06 673.086,566.992 677.834,569.479C682.562,571.962 687.586,574.055 692.652,575.909C702.802,579.583 713.349,581.997 723.975,582.859C729.287,583.296 734.614,583.338 739.907,583.007C745.2,582.699 750.463,582.003 755.645,580.935C766.005,578.772 776.08,575.275 785.586,570.539C795.097,565.813 804.095,560.004 812.465,553.352C820.844,546.707 828.611,539.254 835.808,531.268C843.016,523.289 849.643,514.756 855.721,505.837C867.843,487.972 877.992,468.715 886.137,448.641C894.311,428.575 900.482,407.669 904.421,386.357C905.404,381.029 906.282,375.68 906.967,370.306C907.699,364.937 908.273,359.546 908.661,354.141C909.398,343.333 909.609,332.468 908.862,321.643C908.144,310.823 906.591,300.027 903.858,289.497C902.497,284.233 900.851,279.036 898.897,273.949C896.918,268.872 894.609,263.919 891.982,259.132C886.757,249.541 880.044,240.715 872.078,233.154C868.106,229.362 863.79,225.93 859.259,222.812C854.711,219.717 849.912,216.99 844.949,214.604ZM845.504,213.428C850.549,215.786 855.424,218.518 860.082,221.583C864.759,224.622 869.183,228.048 873.369,231.749C881.742,239.161 888.974,247.855 895.034,257.322C898.055,262.063 900.75,267.018 903.153,272.114C905.583,277.2 907.709,282.437 909.549,287.777C913.224,298.46 915.826,309.525 917.454,320.728C919.05,331.936 919.799,343.278 919.603,354.603C919.526,360.265 919.26,365.925 918.818,371.571C918.329,377.212 917.687,382.84 916.843,388.438C915.159,399.634 912.751,410.711 909.77,421.626C906.812,432.55 903.17,443.283 899.021,453.814C890.642,474.839 880.014,495.035 866.877,513.585C853.771,532.116 838.284,549.199 819.989,563.065C810.852,569.978 801.033,576.098 790.546,580.924C780.071,585.74 768.966,589.375 757.525,591.195C751.813,592.127 746.036,592.645 740.259,592.739C734.482,592.81 728.71,592.445 723.011,591.676C711.605,590.14 700.514,586.956 690.052,582.532C684.823,580.308 679.71,577.871 674.767,574.946C669.853,572.017 665.179,568.692 660.845,564.98C656.509,561.269 652.533,557.16 648.94,552.762C645.324,548.381 642.096,543.699 639.268,538.803C633.644,528.99 629.411,518.459 626.526,507.608C623.63,496.757 621.854,485.654 620.96,474.497C619.212,452.17 620.623,429.672 624.261,407.557C626.084,396.494 628.509,385.523 631.464,374.687C634.446,363.859 637.986,353.174 642.072,342.691C650.293,321.751 660.751,301.62 673.546,283.002C686.325,264.403 701.599,247.334 719.441,233.337C728.365,226.364 737.952,220.209 748.115,215.233C753.197,212.749 758.428,210.575 763.78,208.775C769.121,206.952 774.582,205.486 780.12,204.475C785.659,203.468 791.265,202.891 796.87,202.742C802.476,202.622 808.084,202.92 813.618,203.712C819.15,204.507 824.62,205.699 829.942,207.366C835.274,208.997 840.484,211.03 845.504,213.428Z" style="fill-rule:nonzero;"/>
        <path d="M699.541,583.202C704.741,585.385 710.018,587.344 715.39,588.96C720.763,590.571 726.229,591.814 731.731,592.748C737.238,593.656 742.795,594.186 748.353,594.338C753.913,594.483 759.47,594.197 764.98,593.561C770.49,592.917 775.944,591.848 781.301,590.426C786.663,589.024 791.927,587.241 797.056,585.129C807.314,580.892 817.067,575.448 826.25,569.138C835.465,562.866 844.102,555.689 852.117,547.848C856.127,543.93 859.985,539.847 863.695,535.626C867.38,531.385 870.908,527.002 874.265,522.488C880.956,513.444 887.001,503.918 892.386,494.037C897.804,484.172 902.465,473.909 906.659,463.488C910.816,453.046 914.351,442.375 917.414,431.589C920.458,420.797 922.999,409.871 924.913,398.841C926.821,387.811 928.091,376.677 928.617,365.521C929.133,354.366 929.034,343.187 927.991,332.094C927.032,320.997 925.095,309.996 922.145,299.281C919.171,288.577 915.074,278.175 909.673,268.466C904.266,258.773 897.589,249.736 889.561,241.977C885.545,238.107 881.273,234.481 876.718,231.216C872.162,227.952 867.348,225.032 862.358,222.418L862.573,221.966C867.778,224.186 872.811,226.841 877.62,229.878C882.429,232.911 887.027,236.316 891.282,240.124C899.811,247.715 907.191,256.655 913.081,266.493C916.031,271.409 918.647,276.525 920.932,281.784C923.2,287.05 925.148,292.45 926.801,297.935C930.118,308.908 932.146,320.228 933.3,331.596C934.367,342.977 934.534,354.428 933.821,365.806C933.113,377.186 931.649,388.5 929.542,399.679C927.438,410.859 924.678,421.907 921.26,432.74C917.86,443.578 913.766,454.183 909.184,464.55C904.637,474.937 899.438,485.015 893.871,494.865C888.267,504.697 882.194,514.261 875.575,523.446C872.275,528.045 868.848,532.556 865.268,536.951C861.712,541.366 857.995,545.657 854.106,549.799C846.326,558.073 837.871,565.778 828.654,572.538C819.416,579.254 809.385,584.983 798.721,589.233C793.393,591.362 787.924,593.149 782.354,594.543C776.778,595.917 771.1,596.875 765.388,597.416C759.676,597.974 753.923,598.039 748.208,597.695C742.49,597.364 736.811,596.567 731.232,595.364C725.648,594.187 720.179,592.539 714.85,590.574C709.519,588.612 704.326,586.305 699.328,583.657L699.541,583.202Z" style="fill-rule:nonzero;"/>
        <path d="M646.134,460.899C644.635,467.321 643.312,473.722 642.23,480.152C641.951,481.757 641.708,483.368 641.471,484.977C641.218,486.583 640.991,488.194 640.792,489.807C640.4,493.034 640.02,496.255 639.682,499.489C638.996,505.941 638.384,512.493 638.955,519.019C639.239,522.275 639.745,525.513 640.514,528.686C641.253,531.867 642.338,534.955 643.53,537.969C646.023,543.967 649.218,549.591 653.022,554.718C656.863,559.829 661.493,564.271 666.546,568.152C671.58,572.076 677.151,575.326 682.987,578.121C688.836,580.896 694.966,583.182 701.244,585.217L701.158,585.608C694.585,584.838 688.054,583.344 681.768,581.026C675.473,578.737 669.443,575.567 663.973,571.557C661.271,569.514 658.686,567.291 656.359,564.817C654.029,562.348 651.885,559.706 649.966,556.916C648.04,554.131 646.342,551.193 644.93,548.134C643.505,545.078 642.396,541.896 641.46,538.691C639.597,532.265 638.507,525.718 637.664,519.156C636.862,512.593 636.163,505.94 636.359,499.267C636.463,495.936 636.769,492.611 637.282,489.322C637.534,487.677 637.814,486.037 638.121,484.402C638.442,482.77 638.81,481.148 639.192,479.531C639.971,476.301 640.885,473.103 641.969,469.965C643.048,466.827 644.252,463.73 645.757,460.761L646.134,460.899Z" style="fill-rule:nonzero;"/>
        <path d="M882.162,367.906C884.207,361.229 886.044,354.549 887.622,347.821C888.025,346.142 888.392,344.455 888.749,342.768C889.122,341.084 889.469,339.396 889.786,337.703C890.414,334.315 891.024,330.929 891.585,327.53C892.717,320.745 893.752,313.851 893.566,306.912C893.474,303.45 893.15,299.991 892.549,296.583C891.978,293.17 891.044,289.83 889.987,286.559C887.762,280.042 884.763,273.87 881.073,268.189C877.345,262.52 872.737,257.503 867.635,253.066C862.555,248.585 856.861,244.787 850.858,241.466C844.84,238.163 838.493,235.37 831.977,232.846L832.086,232.461C838.976,233.74 845.77,235.769 852.253,238.642C858.744,241.487 864.901,245.233 870.41,249.827C873.131,252.159 875.714,254.674 878.012,257.435C880.315,260.19 882.408,263.117 884.257,266.185C886.111,269.249 887.717,272.458 889.017,275.779C890.33,279.095 891.306,282.524 892.096,285.97C893.665,292.873 894.406,299.865 894.861,306.857C895.275,313.847 895.543,320.923 894.885,327.959C894.551,331.471 894.009,334.963 893.257,338.407C892.884,340.13 892.483,341.845 892.054,343.553C891.611,345.258 891.119,346.949 890.614,348.634C889.586,351.999 888.421,355.321 887.083,358.571C885.75,361.822 884.289,365.024 882.526,368.073L882.162,367.906Z" style="fill-rule:nonzero;"/>
    </g>
    <g id="Layer_3">
        <g>
            <path d="M816.788,447.188C816.788,447.188 845.586,364.483 781.036,344.775C733.896,402.664 816.788,447.188 816.788,447.188Z" style="fill:rgb(35,31,32);fill-rule:nonzero;"/>
            <path d="M816.657,446.857C819.009,437.056 820.586,427.117 821.22,417.164C821.383,414.654 821.47,412.143 821.475,409.634C821.502,407.127 821.448,404.622 821.297,402.126C821.139,399.631 820.9,397.146 820.59,394.673C820.253,392.205 819.85,389.748 819.339,387.313C818.294,382.454 816.859,377.66 814.771,373.124C812.708,368.58 809.941,364.33 806.542,360.626C804.843,358.774 802.969,357.085 801.002,355.518C799.01,353.98 796.908,352.582 794.717,351.343C790.328,348.864 785.581,347.08 780.736,345.759L781.835,345.425C778.666,349.568 775.919,354.007 773.719,358.656C771.531,363.308 769.883,368.183 769.076,373.192C768.261,378.195 768.314,383.308 769.218,388.275C770.141,393.236 771.754,398.082 774.025,402.646C778.461,411.849 785.078,419.993 792.436,427.328C796.139,430.989 800.067,434.446 804.147,437.735C808.162,440.957 812.322,444.036 816.657,446.857ZM816.694,447.364C807.168,442.709 798.298,436.699 790.264,429.652C782.264,422.596 775.103,414.296 770.177,404.537C767.794,399.642 765.947,394.405 765.14,388.954C764.297,383.518 764.387,377.932 765.412,372.548C766.422,367.159 768.356,361.989 770.95,357.248C773.536,352.493 776.754,348.16 780.238,344.125L780.711,343.577L781.337,343.79C791.091,347.115 800.269,352.322 807.518,359.696C814.79,367.009 820.055,376.433 822.622,386.538C823.27,389.061 823.786,391.617 824.129,394.194C824.496,396.767 824.725,399.356 824.82,401.945C824.926,404.534 824.939,407.123 824.856,409.705C824.749,412.287 824.556,414.861 824.287,417.424C823.73,422.548 822.842,427.623 821.63,432.61C820.415,437.595 818.945,442.516 816.979,447.251L816.892,447.459L816.694,447.364Z" style="fill-rule:nonzero;"/>
        </g>
        <path d="M784.784,368.304C783.797,368.997 782.693,369.44 781.557,369.762C780.42,370.098 779.237,370.269 778.042,370.315C775.667,370.381 773.175,370.002 771.038,368.826C768.888,367.643 767.265,365.799 765.684,364.176C764.102,362.527 762.539,360.89 761.019,359.114C760.278,358.218 759.54,357.295 758.935,356.295C758.315,355.303 757.81,354.251 757.341,353.188C756.413,351.06 755.637,348.86 755.215,346.599C754.803,344.337 754.623,342.048 754.674,339.767C754.729,337.486 754.945,335.214 755.53,332.965L755.93,332.948C756.706,335.129 757.241,337.282 757.803,339.406L759.391,345.698C759.901,347.771 760.311,349.854 760.893,351.895C761.186,352.914 761.517,353.918 761.841,354.932C762.176,355.94 762.479,356.977 762.889,357.976C763.669,359.987 764.87,361.873 766.556,363.226C768.235,364.608 770.381,365.223 772.325,365.748L775.237,366.561C776.214,366.813 777.208,367.029 778.226,367.206C780.267,367.56 782.381,367.769 784.664,367.922L784.784,368.304Z" style="fill-rule:nonzero;"/>
        <path d="M791.729,364.099C793.031,362.357 794.264,360.761 795.43,359.15C796.012,358.347 796.574,357.545 797.121,356.739C797.655,355.923 798.2,355.127 798.786,354.339C799.952,352.779 801.306,351.147 801.919,349.188C802.554,347.249 802.563,345.144 802.154,343.157C801.97,342.159 801.676,341.19 801.425,340.232C801.158,339.275 800.904,338.327 800.601,337.39C799.993,335.515 799.198,333.716 798.464,331.878C797.739,330.033 796.967,328.182 796.189,326.283C795.414,324.382 794.577,322.477 793.881,320.401L794.201,320.162C795.999,321.434 797.513,322.985 798.889,324.661C800.263,326.339 801.439,328.19 802.381,330.173C803.317,332.16 803.897,334.319 804.276,336.501C804.462,337.594 804.599,338.697 804.608,339.81C804.631,340.921 804.497,342.037 804.344,343.126C804.001,345.312 803.551,347.392 803.171,349.503C802.775,351.596 802.566,353.873 801.703,355.961C801.276,356.999 800.692,357.962 799.998,358.835C799.318,359.718 798.551,360.529 797.721,361.262C796.889,361.993 795.996,362.654 795.026,363.191C794.067,363.739 793.052,364.201 791.938,364.442L791.729,364.099Z" style="fill-rule:nonzero;"/>
        <g>
            <path d="M813.178,366.861C813.178,366.861 818.982,360.307 826.42,362.456" style="fill:rgb(35,31,32);fill-rule:nonzero;"/>
            <path d="M813.029,366.728C812.956,366.226 813.004,365.811 813.098,365.434C813.18,365.044 813.33,364.713 813.511,364.41C813.888,363.829 814.336,363.277 815.041,363.117C815.747,362.953 816.634,363.17 817.248,362.987C817.875,362.815 818.349,362.366 818.836,361.78C819.086,361.508 819.338,361.193 819.633,360.976C819.921,360.734 820.247,360.592 820.575,360.44C821.231,360.142 821.941,359.88 822.677,359.906C823.409,359.934 824.144,360.144 824.804,360.531C825.466,360.903 826.057,361.469 826.476,362.264L826.365,362.649C825.608,363.11 824.998,363.425 824.444,363.661C823.889,363.907 823.398,364.082 822.909,364.175C822.424,364.268 821.918,364.174 821.38,364.135C820.857,364.146 820.268,364 819.604,363.833C818.948,363.678 818.303,363.729 817.848,364.128C817.38,364.514 817.217,365.361 816.91,365.883C816.601,366.408 816.073,366.594 815.514,366.799C815.225,366.889 814.918,366.963 814.554,366.991C814.202,367.033 813.814,367.046 813.328,366.996L813.029,366.728Z" style="fill-rule:nonzero;"/>
        </g>
        <g>
            <path d="M818.705,404.948C818.705,404.948 825.899,393.729 836.109,397.896" style="fill:rgb(35,31,32);fill-rule:nonzero;"/>
            <path d="M818.537,404.839C818.393,403.687 818.682,402.746 819.097,401.909C819.309,401.492 819.565,401.105 819.864,400.757C820.148,400.395 820.505,400.097 820.93,399.884C821.787,399.455 822.887,399.396 823.672,398.998C824.472,398.608 825.104,397.997 825.76,397.252C826.407,396.496 827.217,395.877 828.141,395.523C829.046,395.125 830.04,394.815 831.057,394.84C833.082,394.923 835.078,395.864 836.185,397.71L836.035,398.08C833.998,398.647 832.591,398.891 831.215,399.109C830.534,399.202 829.838,399.144 829.101,399.179C828.383,399.26 827.592,399.238 826.712,399.223C825.837,399.215 825.004,399.474 824.409,400.056C823.798,400.627 823.573,401.638 823.175,402.351C822.971,402.709 822.716,403.002 822.405,403.246C822.109,403.504 821.786,403.74 821.439,403.962C820.736,404.404 819.961,404.794 818.874,405.054L818.537,404.839Z" style="fill-rule:nonzero;"/>
        </g>
        <g>
            <path d="M787.803,416.908C787.803,416.908 776.201,417.405 770.397,425.221" style="fill:rgb(35,31,32);fill-rule:nonzero;"/>
            <path d="M787.812,417.108C787.055,417.913 786.328,418.371 785.587,418.732C785.218,418.908 784.848,419.053 784.471,419.161C784.099,419.289 783.712,419.341 783.301,419.309C782.484,419.242 781.535,418.845 780.725,418.987C779.913,419.113 779.213,419.597 778.644,420.268C778.079,420.95 777.528,421.554 776.924,422.02C776.342,422.53 775.812,423.062 775.186,423.448C773.899,424.2 772.561,424.807 770.557,425.34L770.237,425.102C770.21,422.977 771.266,421.248 772.633,420.024C773.333,419.42 774.195,419.05 775.049,418.738C775.883,418.384 776.815,418.246 777.765,418.263C778.71,418.268 779.559,418.16 780.317,417.763C781.077,417.383 781.72,416.528 782.51,416.068C782.904,415.84 783.325,415.711 783.763,415.674C784.198,415.617 784.642,415.613 785.089,415.657C785.983,415.755 786.9,416.001 787.795,416.709L787.812,417.108Z" style="fill-rule:nonzero;"/>
        </g>
        <g>
            <path d="M771.053,381.718C771.053,381.718 755.795,380.069 752.007,388.893" style="fill:rgb(35,31,32);fill-rule:nonzero;"/>
            <path d="M771.031,381.916C770.083,382.589 769.211,382.92 768.344,383.153C767.912,383.266 767.485,383.348 767.057,383.393C766.631,383.458 766.204,383.447 765.768,383.349C764.9,383.152 763.958,382.61 763.064,382.63C762.172,382.636 761.332,383.017 760.61,383.618C759.889,384.227 759.216,384.774 758.533,385.19C757.865,385.653 757.281,386.154 756.644,386.524C755.337,387.26 754.076,387.871 752.19,388.97L751.823,388.812C751.346,386.58 752.537,384.36 754.181,383.033C755.018,382.362 756.026,381.996 757.006,381.73C757.974,381.421 759.009,381.374 760.027,381.506C761.044,381.624 761.97,381.638 762.859,381.355C763.745,381.092 764.598,380.348 765.528,380.02C765.991,379.858 766.466,379.8 766.94,379.835C767.414,379.85 767.887,379.919 768.357,380.036C769.295,380.281 770.227,380.673 771.074,381.516L771.031,381.916Z" style="fill-rule:nonzero;"/>
        </g>
    </g>
    <g id="girl_2_">
        <path d="M311.699,258.151C308.912,258.417 311.01,262.257 312.673,262.685C331.652,267.591 349.407,276.035 364.365,288.771C388.446,309.286 406.115,337.211 418.471,366.105C431.279,396.061 439.649,428.975 439.663,461.704C439.675,492.703 432.301,520.991 411.562,544.649C382.834,577.415 338.965,601.131 295.228,604.827C254.445,608.268 214.917,588.429 189.267,556.871C167.538,530.136 162.833,492.309 163.79,458.946C164.831,422.666 171.709,385.145 188.112,352.48C207.104,314.656 239.186,287.144 275.514,266.753C283.243,262.415 273.131,253.342 267.537,253.646C231.473,255.607 203.311,286.45 183.393,313.913C166.778,336.819 156.061,362.574 149.759,390.121C141.301,427.112 138.317,466.428 145.865,503.869C149.282,520.802 154.74,537.5 163.698,552.349C173.963,569.369 189.094,583.686 205.003,595.453C239.594,621.029 280.414,632.008 322.899,621.964C364.941,612.024 407.624,588.927 433.65,553.593C472,501.528 460.647,428.822 437.547,372.648C425.115,342.414 407.887,313.406 384.116,290.687C364.943,272.362 339.306,255.518 311.699,258.151Z" style="fill:rgb(1,1,1);fill-rule:nonzero;"/>
        <path d="M299.684,212.948C305.727,217.984 316.646,232.265 309.993,240.313C306.948,243.999 302.692,248.128 297.843,249.255C294.048,250.141 291.553,249.603 289.51,248.41C287.705,247.356 285.007,244.755 284.052,243.026C281.215,237.892 279.791,230.473 284.161,227.366C294.288,220.165 306.691,229.747 317.425,225.605C319.786,224.692 319.087,221.114 317.831,219.664C308.527,208.914 280.206,203.77 270.439,217.476C263.189,227.652 266.997,241.918 274.631,250.847C283.278,260.964 297.682,267.49 310.22,259.962C318.353,255.077 325.459,246.238 323.137,236.206C320.382,224.302 311.381,215.69 300.394,211.116C299.105,210.58 298.877,212.274 299.684,212.948Z" style="fill:rgb(1,1,1);fill-rule:nonzero;"/>
        <path d="M271.253,221.191C272.977,222.752 275.015,221.207 273.755,219.203C250.501,182.054 211.705,158.52 170.85,145.01C149.174,137.842 125.99,133.68 103.102,133.861C96.074,133.917 89.019,134.571 81.988,134.388C77.643,134.276 72.448,132.332 68.943,133.429C71.359,134.221 73.775,135.014 76.191,135.806C77.035,137.034 77.883,138.261 78.73,139.488C78.18,136.092 74.902,134.022 71.817,133.422C69.851,133.042 67.404,133.359 66.065,135.035C63.309,138.477 65.589,142.82 68.293,145.443C72.85,149.857 79.357,149.134 85.146,148.754C91.737,148.32 98.327,147.797 104.922,147.404C125.789,146.161 147.451,149.226 167.342,155.531C187.634,161.957 207.371,170.04 225.049,182.036C241.789,193.394 256.291,207.667 271.253,221.191Z" style="fill:rgb(1,1,1);fill-rule:nonzero;"/>
        <path d="M315.592,219.507C324.984,217.474 331.16,208.404 337.352,201.643C344.205,194.157 351.185,186.689 358.808,179.976C370.897,169.328 383.972,160.251 398.143,152.576C412.981,144.538 428.752,137.557 445.371,134.189C459.838,131.254 471.323,132.335 485.242,136.537C493.236,138.95 495.528,129.344 489.739,124.982C462.258,104.28 418.038,122.047 391.718,136.264C376.986,144.221 363.388,153.87 350.963,165.087C341.898,173.274 333.884,182.377 326.169,191.83C320.393,198.904 312.499,206.529 311.577,215.987C311.392,217.906 313.726,219.907 315.592,219.507Z" style="fill:rgb(1,1,1);fill-rule:nonzero;"/>
        <path d="M482.271,136.873C493.353,149.157 499.93,167.714 503.654,183.56C507.436,199.646 509.77,216.595 507.403,233.054C508.279,231.613 509.156,230.172 510.032,228.73C453.06,265.004 381.639,251.514 318.266,249.151C314.104,248.997 315.043,254.273 317.904,255.604C341.476,266.573 367.568,268.638 393.343,269.115C422.28,269.652 452.155,268.173 480.198,260.486C492.103,257.225 504.187,253.156 514.643,246.447C521.335,242.157 523.26,240.047 522.574,231.91C521.991,225.016 521.738,218.11 520.746,211.25C516.522,182.109 506.798,155.109 485.362,134.423C483.401,132.534 480.247,134.635 482.271,136.873Z" style="fill:rgb(1,1,1);fill-rule:nonzero;"/>
        <path d="M77.819,138.693C73.144,141.694 69.283,143.501 65.368,147.805C61.957,151.555 59.111,155.418 56.503,159.768C50.67,169.503 46.041,179.899 42.945,190.833C37.293,210.793 35.159,232.658 42.476,252.469C43.879,256.271 50.973,261.215 54.989,258.156C58.533,255.458 59.126,254.203 59.975,249.823C60.769,245.714 55.329,242.188 51.813,242.66C49.892,242.889 47.98,243.17 46.071,243.502C49.665,245.597 53.26,247.691 56.856,249.787C50.654,232.011 52.843,211.613 57.873,193.817C60.514,184.458 63.827,175.139 68.227,166.451C72.218,158.572 76.089,149.405 81.054,142.168C82.237,140.446 79.645,137.518 77.819,138.693Z" style="fill:rgb(1,1,1);fill-rule:nonzero;"/>
        <path d="M271.759,246.844C264.773,248.677 258.244,252.315 251.214,254.315C243.894,256.396 236.368,257.838 228.808,258.74C212.208,260.72 195.447,260.738 178.752,260.485C136.543,259.853 95.74,260.124 54.737,248.328C55.167,253.447 55.594,258.564 56.023,263.682C61.059,263.982 66.67,265.462 71.228,262.715C73.331,261.444 72.841,258.852 71.609,257.145C67.156,250.971 60.049,248.387 52.644,247.908C41.921,247.212 46.727,261.224 53.93,263.262C97.412,275.544 141.054,273.852 185.693,272.882C203.186,272.501 220.929,271.592 238.055,267.759C249.497,265.198 268.159,260.659 273.48,248.678C273.873,247.786 272.633,246.62 271.759,246.844Z" style="fill:rgb(1,1,1);fill-rule:nonzero;"/>
        <path d="M311.401,262.05C325.101,272.501 336.883,287.318 343.342,303.331C346.733,311.74 349.229,320.972 349.054,330.118C348.904,337.994 345.928,345.846 346.753,353.608C346.965,355.614 350.491,358.475 352.467,356.929C359.544,351.393 360.142,339.384 359.569,331.021C358.87,320.861 356.528,310.93 352.182,301.68C343.65,283.526 330.598,268.933 313.568,258.439C310.844,256.762 309.056,260.268 311.401,262.05Z" style="fill:rgb(1,1,1);fill-rule:nonzero;"/>
        <path d="M295.061,265.434C292.707,265.391 292.158,267.769 293.465,269.439C298.044,275.314 303.531,278.878 305.832,286.465C307.902,293.289 308.521,300.361 307.602,307.448C306.579,315.338 304.524,323.01 301.01,330.179C298.25,335.812 294.622,340.797 291.741,346.304C290.796,348.109 293.541,350.408 295.218,350.011C312.673,345.844 319.737,320.796 319.461,305.338C319.299,296.242 317.688,287.455 313.079,279.514C309.591,273.499 302.596,265.574 295.061,265.434Z" style="fill:rgb(1,1,1);fill-rule:nonzero;"/>
        <path d="M278.577,267.39C277.622,266.028 274.256,265.64 274.905,268.082C278.502,281.735 280.571,295.031 275.642,308.725C273.114,315.754 269.633,322.206 265.012,328.097C261.343,332.772 257.111,337.011 254.738,342.511C253.603,345.133 257.294,348.969 259.973,348.093C275.022,343.166 284.349,324.325 287.411,309.801C290.48,295.239 287.111,279.551 278.577,267.39Z" style="fill:rgb(1,1,1);fill-rule:nonzero;"/>
        <path d="M326.503,398.887C328.324,405.994 329.016,415.362 328.488,422.662C328.348,424.588 328.278,426.746 327.294,428.478C326.914,429.148 326.995,428.267 328.012,428.977C329.982,430.348 328.225,428.639 327.782,427.43C327.227,425.919 326.867,424.291 326.615,422.704C325.975,418.645 325.782,414.418 326.475,410.344C326.705,408.967 327.039,407.539 327.67,406.279C328.406,404.825 328.742,405.695 327.398,405.424C323.867,404.716 326.515,406.03 326.529,409.094C326.536,411.28 326.437,413.47 326.007,415.623C325.379,418.762 324.367,422.324 322.16,424.727C326.08,425.541 329.998,426.353 333.918,427.17C329.291,421.765 329.231,415.549 332.49,409.387C328.176,409.038 323.866,408.689 319.554,408.341C327.739,417.548 319.843,428.634 324.614,438.66C325.564,440.659 327.938,442.379 330.238,441.939C346.586,438.817 338.175,410.215 330.946,402.184C327.67,398.55 320.994,395.386 318.007,401.139C312.588,411.589 314.862,424.638 322.807,433.178C325.413,435.98 331.191,439.727 334.565,435.623C344.023,424.11 342.968,400.867 328.881,393.603C312.877,385.35 311.816,411.193 313.366,420.256C314.577,427.353 317.106,434.707 323.308,438.927C327.873,442.031 335.243,442.197 338.117,436.781C343.881,425.917 336.081,407.388 329.787,398.266C328.932,397.03 325.941,396.709 326.503,398.887Z" style="fill:rgb(1,1,1);fill-rule:nonzero;"/>
        <path d="M292.453,398.075C290.898,396.641 286.643,395.987 286.701,399.199C286.874,408.91 289.235,423.494 280.163,430.319C283.771,431.96 287.381,433.6 290.989,435.241C287.059,428.353 282.535,413.371 285.551,405.728C286.403,403.57 283.827,403.667 283.657,402.88C284.225,405.554 284.08,408.277 283.654,410.974C283.002,415.112 281.33,421.676 279.694,424.356C284.263,425.857 288.833,427.354 293.403,428.852C291.943,425.17 289.972,421.46 290.826,417.387C285.903,416.386 280.985,415.383 276.059,414.38C279.206,419.564 281.364,425.407 283.874,430.922C285.192,433.817 290.3,436.381 292.153,432.609C295.667,425.463 294.234,418.421 290.364,411.714C287.211,406.253 277.048,401.438 275.227,410.489C273.701,418.074 276.425,424.564 279.243,431.497C281.573,437.221 290.258,440.516 293.867,434.476C298.35,426.969 300.201,415.205 298.81,406.659C297.3,397.395 287.414,386.131 277.014,391.331C268.599,395.534 270.112,407.946 271.52,415.518C273.018,423.561 275.094,432.258 279.552,439.226C281.874,442.852 287.238,444.402 290.592,441.518C301.078,432.494 303.021,407.827 292.453,398.075Z" style="fill:rgb(1,1,1);fill-rule:nonzero;"/>
        <path d="M399.839,482.613C398.102,484.838 392.611,479.461 395.797,482.721C395.435,482.316 395.443,482.342 395.834,482.799C396.159,483.327 396.572,483.779 396.945,484.277C396.609,482.711 396.274,481.143 395.937,479.579C395.3,481.778 395.806,483.65 397.175,485.475C399.222,483.142 401.266,480.813 403.314,478.48C400.886,477.253 398.38,476.264 395.854,475.263C393.881,474.481 391.415,473.83 389.746,472.647C386.957,470.668 381.955,470.918 380.588,474.489C379.084,478.405 382.24,482.272 385.311,484.241C389.583,486.984 395.92,488.042 400.142,486.964C404.972,485.731 403.767,480.049 400.743,477.494C401.314,478.46 400.9,478.071 399.504,476.318C398.739,475.663 397.908,475.114 397.01,474.67C395.652,473.935 394.239,473.561 392.76,473.195C391.11,472.784 389.513,472.315 387.885,471.824C388.267,476.362 388.647,480.899 389.026,485.437C390.912,485.39 393.325,486.45 395.218,486.963C397.718,487.639 400.183,488.28 402.739,488.704C408.507,489.663 408.043,481.964 404.722,479.487C402.892,478.125 400.816,476.907 398.442,477.566C399.683,477.818 400.923,478.071 402.166,478.323C401.78,478.077 401.401,477.824 401.017,477.578C399.705,477.023 399.415,476.889 400.15,477.173C400.013,477.106 399.876,477.038 399.74,476.968C398.767,476.526 397.767,476.007 396.662,476.054C394.444,476.147 392.94,477.308 393.396,479.719C393.826,481.986 397.875,485.122 399.839,482.613Z" style="fill:rgb(1,1,1);fill-rule:nonzero;"/>
        <path d="M222.685,470.861C223.206,468.456 222.403,466.332 220.532,464.695C218.878,463.243 216.24,462.238 214.139,463.364C211.059,465.016 208.409,467.921 205.81,470.26C210.031,472.687 214.253,475.113 218.473,477.538C218.581,475.761 218.838,478.067 217.563,479.288C216.095,479.811 214.633,480.333 213.166,480.857C213.202,480.858 213.239,480.86 213.275,480.862C212.088,480.481 210.906,480.102 209.718,479.717C209.266,479.397 208.817,479.078 208.365,478.757C207.555,477.694 206.744,476.631 205.931,475.569C205.966,475.654 205.995,475.742 206.028,475.831C207.57,480.012 214.875,483.97 218.445,479.903C222.103,475.733 217.046,469.278 212.794,468.122C214.16,468.729 214.551,468.893 213.961,468.627C212.858,467.987 211.673,467.606 210.406,467.483C208.816,467.356 206.959,467.758 205.901,469.056C204.929,470.251 204.62,471.618 204.698,473.121C204.868,476.411 206.598,479.169 209.489,480.819C211.836,482.157 215.379,482.69 217.364,480.398C218.658,478.905 219.662,477.014 220.628,475.312C221.448,473.859 222.327,472.498 222.685,470.861Z" style="fill:rgb(1,1,1);fill-rule:nonzero;"/>
        <path d="M390.654,479.521C384.922,483.335 381.263,489.832 375.557,493.892C369.459,498.236 362.65,501.533 355.395,503.442C339.198,507.709 322.029,507.837 305.48,505.801C274.415,501.98 244.445,491.923 218.267,474.758C217.488,478.501 216.712,482.246 215.936,485.988C220.143,487.586 224.917,487.81 229.399,487.862C233.435,487.911 231.929,483.507 229.725,482.025C225.996,479.519 222.218,476.884 218.264,474.758C211.016,470.861 206.719,479.213 212.659,484.104C224.873,494.164 240.896,500.674 255.704,505.772C273.814,512.007 292.84,516.402 311.981,517.787C329.571,519.061 347.819,518.32 364.408,511.757C376.076,507.143 393.935,496.685 394.522,482.301C394.588,480.691 392.298,478.427 390.654,479.521Z" style="fill:rgb(1,1,1);fill-rule:nonzero;"/>
        <path d="M440.077,401.644C446.28,410.805 456.495,408.078 465.449,405.55C472.87,403.456 478.603,403.11 484.452,409.114C488.754,413.534 490.883,419.586 489.938,425.74C488.167,437.292 478.655,448.17 466.319,447.499C461.381,447.23 456.49,446.511 451.754,445.043C450.054,444.513 448.343,443.968 446.665,443.365C446.133,443.165 445.595,442.982 445.049,442.822C442.243,442.114 442.855,442.57 446.882,444.191C447.716,445.933 448.554,447.677 449.388,449.419C448.478,451.137 448.367,451.578 449.059,450.748C451.201,448.446 448.741,444.746 446.561,443.573C442.137,441.192 435.994,443.317 438.922,449.175C441.723,454.766 448.692,456.729 454.344,458.027C470.209,461.67 487.751,461.538 497.227,445.795C507.272,429.103 503.216,409.85 487.454,398.285C480.424,393.131 472.432,390.639 463.804,393.103C456.361,395.23 449.45,399.178 441.488,398.108C439.241,397.807 439.169,400.301 440.077,401.644Z" style="fill:rgb(1,1,1);fill-rule:nonzero;"/>
        <path d="M150.92,397.636C151.892,398.347 154.58,399.406 155.04,397.416C156.451,391.342 149.814,385.297 144.91,382.742C137.469,378.868 129.139,377.051 120.751,378.056C103.94,380.071 89.397,393.605 88.916,411.229C88.444,428.271 98.041,445.229 111.617,455.282C118.437,460.328 125.827,464.451 134.272,465.959C140.507,467.072 151.287,468.019 154.322,461.06C155.66,457.985 152.394,454.165 149.567,453.421C144.051,451.97 138.845,454.454 133.216,453.489C128.097,452.611 122.868,450.356 118.759,447.148C109.982,440.294 102.552,430.548 101.519,419.098C100.441,407.156 108.104,393.13 120.244,389.98C125.925,388.505 132.392,387.827 138.143,389.456C143.841,391.072 146.405,394.327 150.92,397.636Z" style="fill:rgb(1,1,1);fill-rule:nonzero;"/>
        <path d="M128.423,411.7C123.743,414.381 120.375,417.836 120.516,423.588C120.672,430.066 126.029,435.751 132.389,436.492C134.554,436.747 136.53,435.279 136.646,433.059C136.759,430.972 135.555,429.426 134.22,427.996C132.846,426.53 131.488,426.141 131.647,424.163C131.861,421.513 132.602,418.775 133.794,416.413C135.128,413.772 130.812,410.333 128.423,411.7Z" style="fill:rgb(1,1,1);fill-rule:nonzero;"/>
        <path d="M469.306,421.11C467.818,419.211 462.925,418.401 463.834,422.145C464.474,424.793 464.71,427.269 464.572,429.982C465.184,428.97 465.802,427.959 466.416,426.945C464.495,427.686 462.197,427.918 460.385,428.899C458.097,430.138 458.328,433.12 459.633,434.94C462.848,439.421 469.363,438.863 473.674,436.528C475.355,435.618 475.628,433.89 475.408,432.17C474.859,427.852 471.888,424.401 469.306,421.11Z" style="fill:rgb(1,1,1);fill-rule:nonzero;"/>
        <path d="M453.091,456.202C451.73,464.697 457.075,474.994 460.734,482.288C466.456,493.704 473.284,504.888 481.975,514.31C489.194,522.134 497.775,530.113 508.556,532.33C519.787,534.639 527.754,528.818 534.585,520.526C536.484,518.216 535.428,515.425 534.022,513.212C533.795,512.851 533.565,512.488 533.334,512.128C531.442,509.151 527.313,507.736 524.096,509.06C521.503,510.126 520.089,513.239 519.809,515.853C519.571,518.066 521.379,520.071 523.101,521.143C523.464,521.371 523.831,521.598 524.196,521.825C525.84,522.848 528.396,523.344 530.164,522.307C530.537,522.084 534.442,519.952 531.353,520.989C528.746,519.801 526.136,518.616 523.525,517.428C523.819,517.757 524.112,518.086 524.405,518.411C523.972,516.382 523.537,514.355 523.102,512.328C502.277,549.284 463.856,470.005 455.72,456.412C455.185,455.525 453.349,454.582 453.091,456.202Z" style="fill:rgb(1,1,1);fill-rule:nonzero;"/>
        <path d="M450.271,491.063C449.965,489.65 447.024,487.643 446.276,489.777C442.85,499.548 446.45,511.048 449.334,520.515C453.539,534.328 459.372,547.936 467.263,560.062C480.099,579.791 503.368,598.012 523.85,576.725C527.328,573.108 522.492,566.686 518.636,565.853C518.027,565.717 517.418,565.585 516.809,565.457C514.964,565.054 512.222,564.711 510.938,566.603C508.858,569.67 508.889,572.202 510.24,575.606C510.889,577.233 512.716,578.445 514.417,578.616C515.026,578.677 518.645,578.01 517.983,577.871C516.246,574.245 514.505,570.623 512.768,566.997C482.205,599.222 454.462,510.557 450.271,491.063Z" style="fill:rgb(1,1,1);fill-rule:nonzero;"/>
        <path d="M146.954,471.462C144.603,511.178 78.162,528.633 60.182,491.365C57.571,493.464 54.957,495.561 52.342,497.661C54.985,498.901 57.556,500.056 60.358,500.865C62.588,501.507 65.374,500.185 64.582,497.453C63.201,492.678 60.395,489.967 56.326,487.251C51.638,484.128 45.82,488.173 48.487,493.547C59.969,516.687 86.037,527.58 111.006,522.18C135.412,516.898 153.735,498.734 151.664,472.969C151.485,470.748 147.145,468.269 146.954,471.462Z" style="fill:rgb(1,1,1);fill-rule:nonzero;"/>
        <path d="M150.096,507.281C149.416,531.076 119.875,541.119 100.799,545.149C88.005,547.852 74.829,549.152 61.766,548.062C53.147,547.339 42.552,546.219 36.164,539.708C35.944,543.183 35.725,546.657 35.504,550.134C40.637,548.774 46.32,548.944 50.811,545.853C53.438,544.044 51.805,540.218 49.349,539.033C42.86,535.899 36.516,535.668 29.567,537.545C24.013,539.046 25.901,544.929 28.908,547.972C47.477,566.733 85.181,562.406 108.03,556.519C129.289,551.042 163.741,535.937 154.703,508.214C154.159,506.552 150.183,504.195 150.096,507.281Z" style="fill:rgb(1,1,1);fill-rule:nonzero;"/>
        <path d="M163.078,544.07C162.16,541.379 156.542,539.378 157.341,543.601C160.454,560.1 138.364,567.394 126.248,570.224C111.719,573.616 97.392,574.313 82.58,573.391C83.995,577.537 85.416,581.681 86.832,585.828C89.995,585.273 92.634,584.96 94.086,581.895C94.887,580.204 93.58,578.175 92.405,577.074C89.578,574.421 86.29,573.985 82.574,573.394C74.428,572.101 77.595,584.271 83.595,585.567C107.213,590.669 175.584,580.72 163.078,544.07Z" style="fill:rgb(1,1,1);fill-rule:nonzero;"/>
        <path d="M264.848,228.307C258.409,219.574 246.859,213.678 237.228,209.303C225.393,203.928 212.922,199.511 199.988,197.719C188.485,196.127 177.622,196.707 166.765,201C161.23,203.191 152.866,206.537 152.162,213.506C150.74,227.52 173.412,234.314 183.413,236.919C192.438,239.27 201.759,241.191 211.071,241.96C218.046,242.536 225.426,243.335 231.31,238.987C234.757,236.44 230.921,232.319 227.901,231.784C215.532,229.594 202.851,229.581 190.492,226.874C183.924,225.435 177.242,223.849 170.987,221.326C168.87,220.473 166.38,219.547 164.605,218.075C163.236,216.939 163.885,216.804 163.532,217.796C165.292,212.875 173.522,210.69 177.824,209.179C186.995,205.965 197.392,206.717 206.77,208.567C227.191,212.596 243.638,222.934 262.198,231.329C264.505,232.368 266.511,230.564 264.848,228.307Z" style="fill:rgb(1,1,1);fill-rule:nonzero;"/>
        <path d="M332.021,227.194C353.104,229.951 369.725,212.531 389.129,207.637C395.054,206.141 401.517,206.202 407.575,206.845C410.509,207.158 419.383,207.527 420.662,211.056C422.845,217.086 414.893,222.011 410.335,223.327C403.512,225.297 396.345,226.122 389.251,226.202C377.486,226.336 364.523,223.063 353.062,225.581C349.092,226.453 351.391,231.091 353.626,232.477C367.42,241.028 389.937,240.119 405.458,237.804C418.908,235.797 438.754,227.72 432.175,210.118C426.62,195.256 405.888,194.355 392.667,195.094C381.691,195.71 372.137,200.588 362.73,206.011C351.956,212.219 341.246,217.679 329.724,222.346C326.95,223.469 330.375,226.98 332.021,227.194Z" style="fill:rgb(1,1,1);fill-rule:nonzero;"/>
        <path d="M382.498,612.718C380.542,611.256 376.105,610.922 377.005,614.672C378.77,622.047 383.299,629.308 386.589,636.123C390.517,644.256 394.11,652.578 397.285,661.033C404.085,679.134 409.44,697.824 413.493,716.729C421.122,752.336 425.583,788.539 425.439,824.984C425.401,835.097 444.939,843.622 444.925,831.23C444.916,825.34 444.075,820.445 440.18,815.839C438.153,813.443 433.993,810.679 430.768,812.712C426.165,815.606 425.446,819.81 425.441,824.983C431.936,827.064 438.431,829.144 444.928,831.226C444.555,792.434 439.894,753.134 430.261,715.531C425.282,696.098 419.291,676.828 411.232,658.431C404.578,643.25 396.195,622.959 382.498,612.718Z" style="fill:rgb(1,1,1);fill-rule:nonzero;"/>
        <path d="M198.035,601.824C198.853,598.908 194.195,594.402 191.786,597.366C179.569,612.474 170.499,630.077 161.459,647.19C152.057,664.991 143.272,683.185 135.622,701.811C127.671,721.164 120.841,741.089 116.562,761.604C114.629,770.873 112.888,780.177 112.033,789.62C111.222,798.56 109.48,809.169 112.256,817.838C113.769,822.553 117.533,826.62 122.747,827.042C125.975,827.305 130.043,825.155 129.777,821.376C129.651,819.639 129.474,817.971 129.171,816.255C128.617,813.105 125.51,810.812 122.501,810.401C121.378,810.173 120.247,810.053 119.105,810.035C122.528,814.473 125.947,818.913 129.369,823.349C132.06,814.815 130.536,804.754 131.401,795.828C132.362,785.873 133.702,775.89 135.848,766.114C140.161,746.478 146.213,727.23 153.321,708.432C160.476,689.523 168.64,671.034 177.045,652.651C184.659,636.005 193.057,619.508 198.035,601.824Z" style="fill:rgb(1,1,1);fill-rule:nonzero;"/>
        <path d="M445.344,834.637C445.304,831.848 442.43,829.741 439.811,830.662C431.03,833.723 423.727,840.01 414.605,842.835C403.806,846.174 392.598,848.189 381.364,849.359C359.092,851.677 336.784,851.756 314.42,851.632C282.696,851.457 251.452,849.029 220.437,841.994C186.369,834.262 153.221,823.237 120.048,812.404C120.556,818.489 121.065,824.57 121.576,830.655C128.353,830.842 135.415,832.714 142.122,831.28C149.993,829.597 145.129,820.68 141.027,817.909C134.138,813.256 125.701,812.119 117.555,811.899C104.631,811.551 110.703,827.42 119.084,830.149C155.143,841.902 191.185,853.877 228.375,861.57C259.807,868.07 291.181,870.209 323.207,870.264C347.899,870.305 373.16,869.622 397.41,864.615C411.824,861.642 445.635,854.468 445.344,834.637Z" style="fill:rgb(1,1,1);fill-rule:nonzero;"/>
        <path d="M378.207,858.627C377.825,857.709 375.397,856.747 375.478,858.401C376.689,882.063 374.382,905.142 368.213,928.036C362.52,949.161 355.887,969.981 353.045,991.743C352.465,996.194 358.257,1001.15 362.551,1000.08C368.07,998.707 374.919,997.863 380.439,999.672C380.89,999.819 382.7,1000.95 382.183,1000.13C381.414,998.929 381.316,1001.62 380.929,1002.34C379.126,1005.68 376.379,1009.36 372.456,1010.3C357.959,1013.8 342.281,1006.93 328.553,1002.76C330.095,1003.87 331.634,1004.98 333.178,1006.09C333.157,1006.06 333.14,1006.03 333.119,1006.01C331.923,1009.01 330.727,1012.01 329.532,1015.01C332.922,1015.43 335.068,1015.19 337.58,1012.87C339.427,1011.17 337.804,1007.72 336.216,1006.51C333.728,1004.61 331.54,1003.5 328.498,1002.68C322.161,1000.99 320.336,1006.65 323.228,1011.35C325.791,1015.51 333.004,1016.45 337.325,1017.78C343.77,1019.76 350.27,1021.64 356.92,1022.81C368.659,1024.87 383.431,1025.47 390.835,1014.2C406.111,990.96 374.037,982.901 356.678,987.616C359.846,990.394 363.013,993.176 366.182,995.955C371.138,950.668 396.913,903.64 378.207,858.627Z" style="fill:rgb(1,1,1);fill-rule:nonzero;"/>
        <path d="M348.736,863.39C348.139,862.452 345.914,861.906 345.848,863.536C345.196,881.126 344.419,898.267 340.591,915.552C338.748,923.887 338.047,932.441 336.803,940.873C335.707,948.307 335.508,958.271 331.31,964.711C325.648,973.393 316.25,983.013 314.797,993.664C313.725,1001.51 325.993,1015.37 332.737,1006.26C334.426,1003.98 333.208,1001.02 331.253,999.327C329.957,998.2 328.719,997.195 327.068,996.624C324.609,995.482 324.905,996.305 327.958,999.094C328.195,997.346 328.951,995.625 329.749,994.065C332.292,989.096 335.531,984.564 338.692,979.98C341.32,976.165 344.684,972.125 345.725,967.541C347.204,961.006 348.319,954.417 349.138,947.771C351.001,932.6 353.412,917.273 354.616,902.052C355.652,888.967 356.021,874.805 348.736,863.39Z" style="fill:rgb(1,1,1);fill-rule:nonzero;"/>
        <path d="M209.273,846.911C208.923,845.647 206.133,843.542 205.425,845.666C201.967,856.147 202.364,867.77 201.684,878.695C200.933,890.823 199.962,902.937 198.801,915.031C196.448,939.577 193.068,964.01 188.572,988.256C187.745,992.724 194.013,997.772 198.184,996.69C210.617,993.464 223.459,997.649 221.439,1012.48C222.664,1011.08 223.889,1009.69 225.113,1008.29C203.969,1014.54 182.502,1005.08 161.076,1008.28C156.609,1008.95 156.707,1014.55 159.058,1017.32C163.884,1023 168.861,1025.24 175.818,1022.17C178.11,1021.16 177.598,1017.68 176.227,1016.18C174.723,1014.51 173.477,1013.29 171.393,1012.38C170.782,1012.12 167.7,1010.21 169.066,1011.91C168.391,1014.93 167.721,1017.94 167.048,1020.95C188.495,1017.74 209.667,1027.28 231.072,1020.94C233.273,1020.28 234.433,1019.06 234.745,1016.75C237.995,992.784 213.573,978.442 192.238,984.08C195.445,986.891 198.644,989.702 201.851,992.514C205.93,968.084 208.919,943.504 210.49,918.784C211.271,906.524 211.759,894.226 211.795,881.941C211.833,870.287 212.399,858.235 209.273,846.911Z" style="fill:rgb(1,1,1);fill-rule:nonzero;"/>
        <path d="M172.95,841.194C172.158,839.354 168.275,838.565 168.827,841.386C177.433,885.181 161.901,930.439 153.08,972.706C151.324,981.14 150.855,989.719 148.837,998.09C147.662,1002.98 146.269,1007.9 147.134,1012.94C147.937,1017.63 153.125,1022.46 158,1022.36C164.821,1022.22 168.749,1019.55 172.603,1014.1C174.91,1010.83 170.73,1007.02 167.455,1007.36C163.372,1007.77 160.047,1008.7 156.089,1009.38C152.781,1009.95 159.718,1016.43 160.151,1012.45C160.225,1011.57 160.341,1010.7 160.497,1009.84C161.395,1005.14 162.858,1000.55 163.538,995.804C166.289,976.629 171.413,958.346 175.368,939.415C181.92,908.061 185.864,871.23 172.95,841.194Z" style="fill:rgb(1,1,1);fill-rule:nonzero;"/>
        <path d="M375.118,600.366C372.846,601.809 375.104,604.529 376.785,605.215C384.659,608.422 393.345,609.202 401.342,612.128C409.083,614.962 416.742,618.939 423.173,624.155C436.23,634.741 445.025,647.742 451.444,663.173C452.185,659.86 452.923,656.548 453.664,653.236C445.26,656.719 436.68,659.784 428.015,662.555C420.614,664.918 407.416,668.038 414.34,678.92C416.756,682.711 421.363,684.278 425.594,684.032C432.238,683.644 439.497,680.029 445.73,677.824C452.661,675.37 459.548,672.81 466.31,669.926C470.171,668.282 469.942,663.116 468.53,659.991C459.819,640.769 445.599,623.165 427.989,611.426C415.117,602.848 390.218,590.769 375.118,600.367L375.118,600.366Z" style="fill:rgb(1,1,1);fill-rule:nonzero;"/>
        <path d="M202.785,590.315C206.186,588.902 202.424,584.603 200.574,583.893C182.609,577.016 161.681,589.263 148.389,600.628C133.4,613.449 120.339,630.146 115.094,649.437C113.323,655.958 118.231,660.972 123.782,663.39C130.764,666.434 137.44,670.137 144.369,673.303C147.404,674.691 153.075,676.433 155.478,672.709C158.791,667.568 155.948,660.376 150.29,657.814C141.723,653.932 133.456,649.462 124.728,645.924C127.623,650.574 130.518,655.227 133.414,659.877C137.494,642.703 147.919,626.737 160.488,614.514C166.95,608.23 173.994,602.695 181.962,598.436C188.669,594.853 195.826,593.215 202.785,590.315Z" style="fill:rgb(1,1,1);fill-rule:nonzero;"/>
        <path d="M447.075,667.797C444.266,666.266 441.889,668.875 443.846,671.475C453.535,684.386 463.995,696.773 472.08,710.815C479.018,722.867 489.025,739.319 488.63,753.738C488.454,760.009 494.124,765.039 500.001,765.822C506.184,766.646 517.941,772.815 523.689,768.333C528.797,764.35 527.186,757.679 522.564,753.783C520.142,751.742 517.74,750.639 514.7,749.986C505.309,747.965 501.967,758.261 509.311,763.837C510.2,764.511 511.077,765.194 511.942,765.894C510.998,761.495 510.056,757.096 509.114,752.698C512.518,749.907 512.949,751.144 509.251,750.264C507.873,749.938 506.496,749.609 505.121,749.284C502.171,748.612 499.151,747.77 496.116,747.703C499.578,750.198 503.04,752.695 506.504,755.19C499.4,737.419 493.326,720.467 482.554,704.359C473.222,690.395 462.074,675.981 447.075,667.797Z" style="fill:rgb(1,1,1);fill-rule:nonzero;"/>
        <path d="M500.156,768.627C501.556,774.745 502.73,781.329 503.11,787.601C503.302,790.74 502.724,793.023 504.002,796.259C505.413,799.834 509.532,802.673 513.388,802.177C521.606,801.125 515.538,790.113 514.116,786.249C511.849,780.103 509.25,774.086 506.08,768.35C504.804,766.045 499.195,764.404 500.156,768.627Z" style="fill:rgb(1,1,1);fill-rule:nonzero;"/>
        <path d="M491.051,775.173C489.569,772.306 482.84,770.529 483.982,775.504C484.862,779.33 485.111,784.55 483.665,788.295C482.249,791.955 479.045,795.715 479.371,799.654C479.742,804.03 483.901,809.189 488.888,808.001C495.724,806.374 496.649,798.303 496.182,792.209C495.704,785.926 493.929,780.735 491.051,775.173Z" style="fill:rgb(1,1,1);fill-rule:nonzero;"/>
        <path d="M126.822,675.948C128.762,673.175 124.145,669.034 121.693,671.447C106.507,686.375 93.966,703.675 79.58,719.328C67.968,731.965 51.578,749.825 32.599,747.238C29.96,746.879 27.631,748.281 26.53,750.624C26.411,750.882 26.287,751.145 26.165,751.402C23.337,757.429 31.845,764.671 37.479,763.461C39.639,762.999 40.703,761.877 42.537,760.827C44.725,759.565 44.344,756.599 42.943,754.886C40.483,751.874 37.918,749.856 34.258,748.448C36.385,752.879 38.505,757.303 40.63,761.733C40.777,761.489 40.925,761.25 41.072,761.004C38.671,761.475 36.271,761.944 33.869,762.416C55.861,767.178 73.655,750.092 86.695,734.554C102.071,716.226 113.189,695.439 126.822,675.948Z" style="fill:rgb(1,1,1);fill-rule:nonzero;"/>
        <path d="M71.937,769.715C70.487,765.861 62.259,762.954 61.803,768.894C61.638,771.017 61.824,773.146 61.506,775.263C61.395,776 61.139,776.784 60.833,777.474C60.844,777.446 59.799,779.294 60.416,778.453C59.189,780.131 59.637,779.467 57.775,780.358C55.782,781.31 54.275,782.39 53.651,784.649C52.938,787.238 54.021,789.913 56.077,791.61C59.265,794.242 64.688,796.488 68.535,793.52C70.602,791.922 72.425,790.219 73.293,787.65C75.198,782.017 73.983,775.146 71.937,769.715Z" style="fill:rgb(1,1,1);fill-rule:nonzero;"/>
        <path d="M51.338,772.448C52.657,769.65 48.359,766.39 45.867,767.652C44.387,768.394 42.854,768.904 41.364,769.716C39.641,770.656 38.031,772.075 36.676,773.488C33.517,776.783 31.066,780.158 31.786,784.926C32.383,788.859 38.29,793.435 42.196,790.974C45.569,788.849 46.451,785.022 48.036,781.596C48.838,779.864 49.557,778.11 50.162,776.306C50.58,775.079 50.796,773.6 51.338,772.448Z" style="fill:rgb(1,1,1);fill-rule:nonzero;"/>
        <path d="M348.187,608.883C347.682,608.451 346.621,608.163 346.309,608.987C344.055,614.805 346.493,622.047 344.49,628.212C342.592,634.055 339.111,639.37 334.627,643.569C324.158,653.369 309.544,658.563 295.484,660.248C282.234,661.835 266.92,660.87 255.598,653.035C243.475,644.649 243.209,629.075 246.57,616.073C244.908,617.001 243.243,617.928 241.58,618.856C245.029,619.174 248.198,620.26 251.668,620.252C256.733,620.243 256.681,614.671 253.452,611.968C249.119,608.339 244.475,606.558 238.835,606.039C236.956,605.867 234.384,606.747 233.848,608.821C229.073,627.347 231.156,647.977 247.249,660.509C261.449,671.564 279.777,674.822 297.403,672.955C314.283,671.166 332.535,664.884 344.242,652.01C353.595,641.724 360.959,619.825 348.187,608.883Z" style="fill:rgb(1,1,1);fill-rule:nonzero;"/>
        <path d="M438.161,693.94C449.85,704.137 458.943,715.586 465.425,729.755C468.681,736.872 471.416,744.149 473.818,751.597C475.482,756.756 476.811,762.348 480.286,766.605C481.251,767.789 484.565,769.452 485.276,767.008C487.165,760.517 483.537,752.665 481.335,746.565C478.255,738.026 474.859,729.422 470.224,721.589C462.766,708.969 453.499,696.26 439.317,690.971C437.183,690.177 436.87,692.812 438.161,693.94Z" style="fill:rgb(1,1,1);fill-rule:nonzero;"/>
        <path d="M129.065,693.5C129.503,692.318 127.381,690.474 126.535,691.692C118.186,703.723 108.45,714.323 99.065,725.517C90.66,735.542 82.223,746.17 80.735,759.589C80.563,761.106 83.201,763.205 84.386,761.689C93.063,750.578 99.702,737.981 108.342,726.77C116.3,716.45 124.503,705.831 129.065,693.5Z" style="fill:rgb(1,1,1);fill-rule:nonzero;"/>
        <path d="M314.835,460.346C312.945,458.974 311.159,457.879 309.004,456.97C309.042,456.986 307.559,456.328 308.303,456.678C307.974,456.532 307.653,456.373 307.328,456.209C306.202,455.654 305.186,455.299 303.928,455.185C302.157,455.022 300.55,456.145 300.451,457.991C300.368,459.588 301.277,461.1 302.434,462.125C305.279,464.643 309.193,464.862 312.713,465.802C316.429,466.797 317.684,462.422 314.835,460.346Z" style="fill:rgb(1,1,1);fill-rule:nonzero;"/>
    </g>
</svg>
