<?xml version="1.0" encoding="UTF-8" standalone="no"?>
<!DOCTYPE svg PUBLIC "-//W3C//DTD SVG 1.1//EN" "http://www.w3.org/Graphics/SVG/1.1/DTD/svg11.dtd">
<svg width="100%" height="100%" viewBox="0 0 567 567" version="1.1" xmlns="http://www.w3.org/2000/svg" xmlns:xlink="http://www.w3.org/1999/xlink" xml:space="preserve" xmlns:serif="http://www.serif.com/" style="fill-rule:evenodd;clip-rule:evenodd;stroke-linejoin:round;stroke-miterlimit:1.41421;">
    <g id="Layer_1">
        <path d="M364.68,214.781C355.495,215.719 346.043,215.028 340.506,206.832C340.05,206.158 339.043,207.115 339.055,207.664C339.305,219.236 354.75,220.879 363.371,220.885C368.518,220.888 373.678,220.05 378.69,218.937C380.487,218.539 381.91,218.519 383.294,217.383C385.453,219.202 387.585,221.051 389.645,222.986C389.719,223.056 389.792,223.13 389.866,223.201C389.013,224.681 388.992,226.344 390.691,227.207C403.525,233.727 421.67,237.423 433.871,227.799C444.498,219.42 447.5,203.469 452.334,191.565C458.277,176.924 466.089,160.769 462.937,144.556C461.773,138.566 458.982,134.66 453.484,132.049C448.71,129.78 441.393,129.279 438.817,124.07C438.463,123.354 437.441,123.761 437.141,124.371C436.803,124.18 436.328,124.149 435.69,124.401L435.69,124.4C425.246,128.36 416.045,135.859 408.231,143.673C404.069,147.835 400.386,152.4 397.336,157.435C396.44,158.915 395.242,160.967 394.393,163.115C392.875,157.32 391.454,151.531 390.379,145.632C389.511,140.866 389.936,135.15 387.863,130.763C387.847,130.729 387.825,130.708 387.803,130.681C389.054,130.337 390.3,129.64 391.14,129.1C393.048,127.871 394.866,125.904 394.933,123.528C394.959,122.604 393.631,122.955 393.32,123.449C392.377,124.95 391.415,126.13 389.857,127.027C388.699,127.696 387.356,128.038 386.161,128.632C370.897,124.548 362.094,139.408 356.445,151.16C352.332,159.719 349.665,168.844 346.135,177.635C343.128,185.127 338.713,193.465 337.914,201.66C337.836,201.992 337.788,202.331 337.808,202.682C337.81,202.729 337.813,202.777 337.816,202.824C337.816,202.826 337.817,202.828 337.817,202.83C337.727,204.54 338.562,205.294 339.731,205.399C342.253,205.95 346.346,203.219 346.175,200.147C346.175,200.146 346.176,200.145 346.176,200.143C346.179,200.094 346.182,200.045 346.184,199.997C346.189,199.905 346.17,199.836 346.169,199.75C345.937,192.683 350.054,185.237 352.57,178.834C355.381,171.685 357.57,164.314 360.394,157.168C362.909,150.807 365.935,144.35 369.912,138.757C372.061,135.731 374.816,134.134 378.266,132.952C381.508,131.842 383.961,132.724 386.542,130.888C386.632,130.885 386.724,130.878 386.814,130.869C386.789,130.907 386.764,130.946 386.75,130.988C384.982,136.005 386.017,141.643 386.679,146.815C387.446,152.812 388.765,158.765 390.118,164.661C390.171,165.054 390.254,165.428 390.402,165.912C390.859,167.379 392.442,167.015 393.519,166.028C393.263,167.406 393.275,168.736 393.736,169.888C394.008,170.569 394.889,170.028 395.108,169.61C397.212,165.582 398.09,161.27 400.615,157.344C403.544,152.787 407.28,148.735 411.151,144.974C418.035,138.288 426.605,131.228 435.899,128.286C436.438,128.114 436.86,127.764 437.17,127.341C438.628,134.392 449.481,135.381 453.993,140.194C458.483,144.984 457.357,154.59 456.384,160.398C455.131,167.867 452.335,175.005 449.474,181.978C444.827,193.302 441.064,205.561 435.151,216.288C431.848,222.279 427.465,225.469 420.643,226.12C414.046,226.75 407.258,225.38 401.032,222.962C400.029,221.369 398.452,220.027 396.941,218.596C393.348,215.186 389.278,212.137 385.24,209.283C377.322,203.688 369.011,197.787 360.459,193.217C359.369,192.635 357.836,194.206 358.567,195.246C363.404,202.125 370.984,207.39 377.574,212.663C377.422,212.699 377.268,212.736 377.118,212.774C373.041,213.798 368.856,214.355 364.68,214.781Z" style="fill:rgb(1,1,1);fill-rule:nonzero;"/>
        <path d="M365.756,180.094C375.721,187.742 388.812,188.087 400.315,192.648C409.667,196.355 418.698,201.718 421.648,211.563C421.669,211.878 421.73,212.195 421.868,212.511C421.917,212.625 421.966,212.739 422.014,212.853C423.627,216.582 429.481,212.939 429.095,209.72C428.545,205.141 425.973,201.27 422.518,198.088C423,197.61 423.346,197.012 423.421,196.351C424.332,188.304 428.43,181.325 431.374,173.913C432.629,170.754 433.395,167.475 433.868,164.119C434.233,161.539 432.581,159.231 431.94,156.839C431.796,156.294 431.038,156.88 431.025,157.243C430.606,170.535 421.25,181.202 418.559,193.803C418.313,194.018 418.107,194.278 417.973,194.569C414.525,192.296 410.76,190.53 407.411,189.267C398.189,185.789 388.292,184.837 378.72,182.802C379.545,181.883 379.964,180.719 379.414,179.679C375.995,173.224 376.001,164.207 379.248,157.655C379.65,156.84 378.671,156.652 378.156,157.058C371.442,162.335 370.167,173.405 372.771,181.342C370.625,180.737 368.504,180.047 366.427,179.207C365.942,179.011 365.262,179.714 365.756,180.094Z" style="fill:rgb(1,1,1);fill-rule:nonzero;"/>
        <path d="M448.457,385.297C448.495,388.905 454.163,386.424 454.116,383.483L454.117,383.483C454.117,383.475 454.116,383.469 454.116,383.462C454.068,380.288 454.172,372.778 451.695,368.997C452.87,367.134 453.174,364.717 453.806,362.639C455.066,358.503 456.619,354.457 458.146,350.415C460.642,343.8 463.089,337.181 464.919,330.345C468.972,315.212 468.968,298.47 467.306,283.001C465.841,269.372 462.921,255.263 453.926,244.511C449.593,239.331 445.605,234.435 445.71,227.325C445.806,220.878 448.024,213.896 451.216,208.345C451.443,207.95 450.89,207.764 450.635,208.028C444.321,214.606 439.749,227.232 441.739,236.263C442.516,239.793 444.88,242.963 447.355,245.918C445.742,246.651 443.983,248.645 442.817,249.297C439.296,251.268 435.178,252.276 431.24,252.975C423.742,254.301 416.08,253.993 408.514,254.619C408.278,254.639 407.974,255.134 408.327,255.165C415.465,255.8 422.628,255.769 429.754,254.942C433.379,254.522 437.01,253.755 440.442,252.515C441.812,252.021 443.129,251.371 444.411,250.69C444.812,250.476 446.94,248.927 447.603,248.348C448.021,248.249 448.431,248.078 448.747,247.936C448.823,247.902 448.89,247.851 448.958,247.803C449.859,248.856 450.734,249.885 451.508,250.895C452.183,251.776 452.8,252.688 453.372,253.623C452.673,253.437 451.796,253.626 450.874,254.46C442.517,262.023 427.698,261.036 417.246,261.667C416.792,261.693 415.992,262.607 416.664,262.897C427.973,267.756 442.927,264.018 453.157,258.266C454.154,257.705 454.655,256.944 454.809,256.196C457.53,261.575 458.97,267.571 460.178,273.458C463.559,289.941 463.659,307.377 460.94,323.957C459.679,331.644 456.985,339.028 454.246,346.287C452.842,350.011 451.428,353.729 450.097,357.48C449.631,358.794 449.194,360.122 448.751,361.444C448.443,362.372 448.225,363.914 447.881,365.237C447.058,365.93 446.431,366.884 446.365,367.857C445.983,368.351 445.808,368.952 446.071,369.529C447.516,372.7 448.102,375.968 448.329,379.324C447.596,379.497 446.903,379.749 446.196,380.07C429.999,383.653 413.493,383.757 396.94,383.049C389.594,382.735 382.243,382.93 374.894,382.742C369.198,382.597 363.58,381.446 357.95,380.885C358.033,380.68 358.095,380.471 358.122,380.259C358.924,374.042 358.757,367.837 358.573,361.586C358.364,354.424 358.902,347.369 359.658,340.249C361.202,325.728 363.887,311.342 366.998,297.083C369.533,285.465 372.469,273.937 375.52,262.443C375.718,262.625 375.928,262.799 376.166,262.964C377.59,263.948 379.293,264.758 381.006,265.059C383.358,265.472 386.057,261.468 383.1,260.616C381.819,260.246 380.532,260.059 379.299,259.519C378.413,259.131 377.515,258.643 376.67,258.125C376.816,257.575 376.961,257.025 377.108,256.477C377.446,255.218 377.789,253.96 378.129,252.702C380.959,253.995 384.206,254.339 387.282,254.386C388.098,254.399 388.651,252.935 387.595,252.929C384.45,252.911 381.39,252.526 378.441,251.543C379.776,246.605 381.116,241.671 382.443,236.731C383.862,231.445 376.402,228.131 378.269,222.478C378.896,220.582 376.135,221.354 375.547,222.352C373.567,225.714 374.847,229.63 376.125,233.017C377.395,236.383 377.174,237.127 376.17,240.716C375.167,244.302 374.172,247.89 373.191,251.483C369.358,265.523 365.662,279.601 362.413,293.791C359.146,308.045 356.472,322.431 354.628,336.938C353.74,343.911 352.968,350.978 352.855,358.01C352.754,364.202 353.246,370.366 352.905,376.535C352.592,376.476 352.282,376.417 351.95,376.365C350.584,376.157 348.248,377.863 349.07,379.434C349.797,380.82 350.742,381.512 351.905,382.158C351.91,382.355 351.968,382.547 352.134,382.707C353.294,383.825 354.698,384.686 356.248,385.354C356.015,385.561 355.832,385.798 355.792,386.003C352.601,402.232 364.801,415.06 374.763,426.186C386.871,439.71 400.333,451.939 411.611,466.184C411.421,466.634 411.355,467.122 411.52,467.604C412.194,469.568 413.441,470.048 415.438,470.312C417.182,470.541 419.357,468.958 419.567,467.193C419.78,470.815 419.978,474.439 420.125,478.065C420.346,483.566 420.432,489.074 420.387,494.579C420.346,499.359 420.778,505.137 419.218,509.702C417.891,513.587 423.214,513.746 424.279,510.645C427.133,502.339 426.178,492.281 426.03,483.624C425.842,472.525 424.922,461.436 424.114,450.369C422.608,429.732 420.66,409.119 420.771,388.444C430.03,388.025 439.233,386.977 448.442,384.769C448.446,384.946 448.459,385.121 448.457,385.297ZM416.501,414.013C416.586,415.78 416.685,417.547 416.774,419.315C414.774,415.596 412.237,412.132 410.033,409.477C405.083,403.515 396.036,397.862 388.014,399.998C387.5,400.135 386.76,401.155 387.494,401.512C390.553,402.998 393.979,403.442 397.06,405.002C400.674,406.832 403.588,409.809 406.103,412.924C408.744,416.194 410.582,420.004 412.304,423.809C413.748,426.997 414.348,431.081 416.761,433.682C416.987,433.925 417.264,434.053 417.561,434.1C417.761,437.667 417.961,441.235 418.168,444.801C418.586,451.991 419.087,459.178 419.516,466.367C419.442,466.078 419.307,465.791 419.099,465.513C408.37,451.143 395.267,438.85 382.83,426.001C376.581,419.547 370.588,412.825 365.222,405.614C360.629,399.443 359.676,393.147 357.953,385.99C362.314,387.428 367.443,387.674 371.469,387.936C378.94,388.424 386.428,388.196 393.905,388.416C402.16,388.659 410.322,388.821 418.438,388.543C415.75,396.6 416.098,405.654 416.501,414.013Z" style="fill:rgb(1,1,1);fill-rule:nonzero;"/>
        <path d="M455.409,445.096C456.843,434.315 457.401,422.507 454.944,411.837C453.672,406.305 451.793,401.076 449.036,396.108C447.092,392.601 443.598,390.526 441.878,387.011C441.566,386.382 440.572,386.878 440.516,387.451C440.221,390.423 440.717,391.688 442.78,393.818C445.831,396.967 447.321,403.52 448.641,407.605C452.315,418.977 451.763,432.013 450.422,443.736C449.192,454.482 446.482,465.03 443.121,475.292C441.342,480.73 439.243,486.063 437.041,491.341C435.907,494.052 434.697,496.73 433.473,499.399C433.013,500.399 432.741,501.758 432.387,503C431.743,503.528 431.222,504.201 431.055,504.75C430.737,505.799 430.381,506.834 430.909,507.867C431.93,509.864 434.684,509.035 435.743,507.475C438.057,504.067 439.022,499.346 440.704,495.536C443.104,490.099 445.264,484.557 447.223,478.946C451.062,467.954 453.873,456.639 455.409,445.096Z" style="fill:rgb(1,1,1);fill-rule:nonzero;"/>
        <path d="M458.658,51.403C458.539,46.311 457.035,41.085 454.329,35.995C448.825,25.643 435.834,18.097 424.521,23.035C423.875,19.12 418.763,15.64 415.544,14.142C408.481,10.857 400.009,11.404 393.04,14.686C384.793,18.571 377.039,26.857 373.047,36.266C367.127,37.253 362.934,42.563 359.996,47.497C355.528,54.999 354.017,63.174 355.295,71.816C356.246,78.244 359.578,83.674 364.96,87.278C365.765,87.817 366.667,88.319 367.63,88.776C363.843,93.919 366.438,99.99 371.036,103.844C374.685,106.902 383.794,111.651 387.873,107.028C388.337,106.503 388.302,105.768 387.759,105.351C386.436,104.332 384.003,104.756 382.411,104.475C379.888,104.029 377.566,102.877 375.39,101.571C370.88,98.864 367.907,94.519 368.957,89.362C372.899,90.96 377.623,91.731 381.449,90.843C383.515,98.923 387.793,106.19 394.867,111.025C394.55,111.272 394.302,111.64 394.302,111.975C394.3,114.568 394.894,117.201 395.117,119.787C395.261,121.447 395.294,123.13 395.087,124.787C394.941,125.97 394.187,126.78 393.937,127.906C393.62,129.336 395.119,129.615 396.113,129.123C400.76,126.815 398.271,116.539 396.519,112.079C396.725,112.201 396.923,112.33 397.134,112.448C404.058,116.348 412.696,116.971 420.027,113.935C420.414,113.775 420.779,113.595 421.148,113.418C420.426,115.104 420.002,116.919 419.998,118.748C419.993,120.571 420.227,122.352 420.477,124.155C420.564,124.789 420.64,125.419 420.761,126.046C420.791,126.207 421.248,127.653 421.016,126.494C421.379,128.307 423.281,127.624 424.185,126.647C425.56,125.165 424.801,123.261 424.384,121.544C423.543,118.083 423.94,114.942 424.3,111.565C430.257,107.32 433.339,100.443 434.617,93.07C435.06,90.514 435.391,87.876 435.631,85.199C435.747,85.196 435.862,85.181 435.965,85.148C440.719,83.585 443.622,75.519 443.791,71.028C443.868,68.931 442.625,65.717 440.757,64.559C438.9,63.41 437.168,64.143 435.578,65.282C435.389,63.224 435.161,61.187 434.857,59.208C433.968,53.416 432.081,47.869 429.393,42.675C426.511,37.105 423.039,33.985 417.854,30.756C416.858,30.136 415.082,31.852 415.965,32.781C421.651,38.76 425.933,45.431 428.551,53.07C428.458,53.049 428.363,53.028 428.275,53.006C425.843,52.36 423.567,51.11 421.439,49.797C417.582,47.413 414.46,44.269 413.505,39.771C413.498,39.738 413.479,39.723 413.469,39.694C414.177,39.431 414.894,39.181 415.628,38.959C416.068,38.824 416.71,37.731 415.901,37.674C407.251,37.049 399.288,44.877 394.248,50.984C390.812,55.146 388.093,59.936 386.072,64.927C385.811,65.571 385.544,66.254 385.284,66.961C385.353,66.523 385.428,66.088 385.505,65.657C386.845,58.25 389.76,51.008 394.293,44.981C396.38,42.208 398.977,39.895 401.921,38.069C403.347,37.185 410.545,33.734 411.221,36.142C411.433,36.905 412.477,36.149 412.584,35.704C412.714,35.173 412.844,34.641 412.973,34.109C413.077,33.681 412.84,33.224 412.387,33.15C395.742,30.421 385.152,50.47 381.782,63.548C379.872,70.965 379.332,79.258 380.653,87.062C377.466,86.295 373.994,86.237 370.899,85.008C365.869,83.009 362.485,79.021 360.594,74.049C356.31,62.778 360.614,44.637 372.065,38.823C369.704,45.708 369.43,53.018 372.477,59.548C372.948,60.557 374.298,59.53 374.311,58.735C374.442,50.958 374.487,43.676 377.36,36.311C380.004,29.536 384.826,23.679 390.963,19.803C396.657,16.207 403.899,14.959 410.412,16.658C413.125,17.366 415.592,18.628 417.955,20.102C420.967,21.982 421.226,24.372 422.041,27.466C422.189,28.034 422.958,27.629 423.172,27.377C424.03,26.366 424.461,25.347 424.567,24.345C435.728,22.944 445.952,29.779 450.911,39.563C453.538,44.747 455.28,50.408 454.432,56.235C453.649,61.606 450.223,66.255 448.335,71.25C447.962,72.235 449.032,72.673 449.727,72.013C454.722,67.258 457.51,61.791 458.373,56.034C461.119,61.763 462.42,67.384 460.635,74.29C459.59,78.327 457.193,82.037 454.308,84.996C451.377,88 447.468,89.233 444.289,91.809C443.779,92.222 443.379,93.598 444.407,93.679C447.454,93.92 450.459,92.687 453.18,90.681C451.906,95.474 450.146,99.261 445.746,102.732C441.321,106.222 435.383,107.314 431.113,110.826C430.636,111.218 430.235,112.548 431.225,112.615C437.127,113.016 444.454,108.006 448.738,104.351C453.134,100.602 456.925,94.348 455.843,88.396C459.532,84.77 462.413,79.963 463.683,76.212C466.494,67.906 465.508,57.4 458.658,51.403ZM439.218,76.313C438.485,77.946 436.975,79.563 435.904,81.255C436.161,76.308 436.081,71.295 435.683,66.421C441.553,64.264 440.567,73.307 439.218,76.313ZM385.779,77.093C387.051,73.269 387.396,69.254 388.821,65.44C390.475,61.017 392.971,56.947 395.799,53.186C399.954,47.657 405.062,43.365 411.192,40.62C409.962,44.827 413.823,48.871 416.874,51.25C419.504,53.301 425.554,57.689 429.697,56.892C429.795,57.269 429.896,57.644 429.986,58.026C432.174,67.288 431.552,77.244 431.036,86.668C430.541,95.689 428.8,105.04 420.236,109.725C413.601,113.355 405.265,111.553 399.039,108.043C388.328,102.006 384.613,89.824 384.466,77.945C384.922,78.139 385.646,77.497 385.779,77.093Z" style="fill:rgb(1,1,1);fill-rule:nonzero;"/>
        <path d="M391.127,114.77C388.493,115.187 385.145,115.314 382.981,113.426C382.593,113.088 381.705,113.648 381.994,114.131C382.996,115.803 384.107,117.033 386.06,117.65C387.867,118.218 390.571,118.822 392.025,117.286C392.504,116.779 392.927,116.054 392.428,115.4C392.37,115.324 392.312,115.249 392.254,115.171C392.016,114.859 391.501,114.71 391.127,114.77Z" style="fill:rgb(1,1,1);fill-rule:nonzero;"/>
        <path d="M437.6,508.503C437.296,508.515 436.959,508.873 437.074,509.186C437.547,510.466 438.271,511.014 439.153,512.068C441.028,514.31 441.341,517.513 441.483,520.297C441.757,525.651 440.099,531.113 439.011,536.305C437.987,541.19 436.591,548.617 437.99,553.531C438.829,556.478 442.852,553.553 443.278,551.827C443.885,549.359 443.346,546.413 443.272,543.902C443.122,538.882 444.092,534.053 444.691,529.082C445.279,524.196 445.652,508.169 437.6,508.503Z" style="fill:rgb(1,1,1);fill-rule:nonzero;"/>
        <path d="M419.631,516.918C419.867,516.138 418.753,516.273 418.453,516.696C408.469,530.718 396.515,541.615 382.247,551.177C380.657,552.242 378.978,555.428 381.841,556.139C389.806,558.118 399.112,557.175 407.192,556.619C411.464,556.325 425.632,556.513 426.421,550.146C426.715,547.778 423.984,547.212 422.507,548.75C423.658,547.553 422.247,548.876 421.552,549.127C420.191,549.618 418.736,549.853 417.314,550.088C413.278,550.757 409.169,551.033 405.087,551.261C400.198,551.532 394.855,551.973 389.766,551.562C395.212,547.455 400.369,542.952 405.187,538.135C411.171,532.157 417.146,525.146 419.631,516.918Z" style="fill:rgb(1,1,1);fill-rule:nonzero;"/>
        <path d="M479.288,509.893C485.433,506.222 475.854,497.517 473.533,494.326C470.91,490.722 472.489,483.751 468.718,480.943C464.298,477.655 458.449,477.116 453.509,474.839C452.823,474.522 451.695,475.493 452.265,476.172C454.639,478.992 457.812,480.186 461.075,481.74C466.789,484.466 465.938,489.469 467.34,494.715C468.823,500.268 474.221,504.19 476.53,509.339C477.022,510.436 478.365,510.443 479.288,509.893Z" style="fill:rgb(1,1,1);fill-rule:nonzero;"/>
        <path d="M449.389,539.932C454.86,537.609 463.957,536.624 466.992,530.763C471.786,521.503 466.49,510.633 464.837,501.281C464.681,500.407 463.424,500.886 463.353,501.58C462.425,510.518 466.546,519.709 463.033,528.413C462.205,530.465 459.868,530.881 457.974,531.448C454.675,532.439 451.443,533.503 448.394,535.131C445.895,536.465 445.963,541.387 449.389,539.932Z" style="fill:rgb(1,1,1);fill-rule:nonzero;"/>
        <path d="M398.939,254.014C399.751,253.56 400.293,251.653 398.818,251.857C392.64,252.713 390.807,259.546 390.897,264.839C390.91,265.5 391.417,266.057 392.06,266.164C395.243,266.692 398.463,266.695 401.664,266.311C404.489,265.973 408.211,265.506 409.487,262.616C409.822,261.858 409.711,261.201 409.059,260.695C407.397,259.403 404.802,261.009 403.043,261.471C400.425,262.159 397.647,262.291 394.939,262.203C394.65,258.799 395.745,255.813 398.939,254.014Z" style="fill:rgb(1,1,1);fill-rule:nonzero;"/>
        <path d="M432.69,120.371C430.001,120.359 427.415,119.932 425.561,117.84C425.155,117.381 424.283,118.005 424.358,118.53C424.725,121.086 426.89,122.211 429.212,122.831C431.644,123.478 435.945,124.083 438.035,122.417C438.428,122.104 438.605,121.546 438.313,121.118C437.323,119.664 434.198,120.377 432.69,120.371Z" style="fill:rgb(1,1,1);fill-rule:nonzero;"/>
    </g>
    <g id="Layer_2">
        <g>
            <path d="M166.515,266.593C131.467,209.477 25.551,159.918 70.233,89.212C108.336,34.804 154.06,74.656 165.284,90.136C172.349,78.122 223.406,33.995 261.509,88.404C298.215,155.715 220.967,183.977 166.515,266.593Z" style="fill:rgb(35,31,32);fill-rule:nonzero;"/>
            <path d="M166.132,266.829C158.103,255.517 148.412,245.657 138.45,236.096C133.446,231.332 128.33,226.672 123.226,221.978C118.111,217.296 112.926,212.665 107.858,207.88C102.775,203.112 97.712,198.289 92.789,193.285C87.901,188.247 83.132,183.049 78.631,177.564C74.124,172.089 69.909,166.291 66.307,160.037C62.699,153.797 59.767,147.051 57.928,139.93C56.082,132.818 55.549,125.297 56.449,117.997C57.364,110.689 59.7,103.676 62.944,97.268C63.755,95.664 64.618,94.091 65.532,92.555C65.987,91.785 66.456,91.026 66.935,90.274L67.657,89.149L68.459,87.937C70.552,85.129 72.823,82.348 75.229,79.752C80.041,74.544 85.486,69.807 91.748,66.328C97.955,62.794 104.985,60.596 112.15,60.214C119.326,59.769 126.488,61.208 133.144,63.685C139.822,66.179 146.005,69.794 151.727,73.981C154.585,76.086 157.303,78.379 159.907,80.808C162.505,83.251 164.975,85.827 167.219,88.731L163.221,88.922C164.604,86.522 166.196,84.625 167.862,82.737C169.534,80.875 171.299,79.126 173.133,77.458C176.806,74.126 180.76,71.112 184.967,68.443C189.172,65.77 193.664,63.493 198.397,61.709C203.125,59.922 208.123,58.658 213.267,58.174C218.402,57.674 223.679,57.937 228.786,59.079C233.895,60.213 238.801,62.212 243.278,64.831C252.264,70.105 259.449,77.646 265.25,85.779L265.375,85.954L265.519,86.212C267.806,90.318 269.863,94.602 271.545,99.087C273.228,103.567 274.538,108.26 275.222,113.102C275.927,117.935 276.049,122.901 275.524,127.795C274.996,132.688 273.861,137.501 272.184,142.053C268.831,151.188 263.694,159.265 258.064,166.637C252.423,174.031 246.187,180.755 239.911,187.331C233.635,193.911 227.155,200.21 220.787,206.583C214.428,212.964 208.032,219.278 201.86,225.802C189.431,238.766 177.665,252.355 166.889,266.836L166.505,267.353L166.132,266.829ZM166.531,265.708C175.529,250.276 186.241,235.828 197.72,222.104C209.366,208.184 221.887,195.05 233.854,181.72C239.83,175.056 245.588,168.259 250.748,161.188C253.319,157.649 255.711,154.022 257.815,150.291C259.933,146.569 261.756,142.735 263.142,138.8C264.525,134.866 265.53,130.849 265.967,126.767C266.415,122.689 266.329,118.564 265.744,114.468C264.57,106.274 261.572,98.206 257.497,90.591L257.766,91.024C252.601,83.516 246.405,76.742 238.912,72.116C231.461,67.461 222.726,65.246 213.897,65.86C209.489,66.158 205.075,67.064 200.772,68.455C196.468,69.852 192.288,71.755 188.26,73.974C184.239,76.209 180.386,78.807 176.788,81.711C174.991,83.164 173.258,84.696 171.633,86.309C170.029,87.91 168.447,89.644 167.345,91.347L165.356,94.421L163.348,91.538C159.574,86.122 154.713,81.186 149.458,76.918C144.19,72.629 138.338,69.025 132.06,66.477C125.794,63.917 119.018,62.609 112.297,62.931C105.569,63.254 99,65.404 93.219,68.868C87.449,72.371 82.392,77.01 78.066,82.238C75.897,84.869 73.917,87.593 72.019,90.467L70.826,92.573C70.421,93.316 70.027,94.063 69.648,94.816C68.886,96.321 68.178,97.848 67.525,99.392C64.914,105.567 63.246,112.067 62.87,118.603C62.433,125.139 63.331,131.666 65.184,137.936C67.022,144.223 69.912,150.22 73.284,155.976C76.677,161.729 80.608,167.233 84.823,172.562C89.053,177.883 93.602,183.003 98.309,188.007C102.984,193.043 107.806,197.984 112.7,202.88L127.402,217.632C132.312,222.564 137.152,227.592 141.863,232.757C146.596,237.898 151.137,243.24 155.418,248.787C159.52,254.156 163.323,259.777 166.531,265.708Z" style="fill:rgb(35,31,32);fill-rule:nonzero;"/>
        </g>
    </g>
</svg>
