<?xml version="1.0" encoding="utf-8"?>
<!-- Generator: Adobe Illustrator 23.0.1, SVG Export Plug-In . SVG Version: 6.00 Build 0)  -->
<svg version="1.1" id="Layer_3" xmlns="http://www.w3.org/2000/svg" xmlns:xlink="http://www.w3.org/1999/xlink" x="0px" y="0px"
	 viewBox="0 0 566.9 566.9" style="enable-background:new 0 0 566.9 566.9;" xml:space="preserve">
<path d="M225.2,404.3"/>
<path d="M151.6,501.2c73.2,46.7,138.8-80.3,138.8-80.3c10.3-17.5,3.6-38.9,0.9-63c-2.7-24.1-1.2-28,5-37.7
	c6.2-9.7,49.5-80.3,75.3-120.2c13.5-21,27-41.9,40.1-63.1c6.7-10.8,13.3-21.7,19.8-32.7c5.7-9.7,11.5-19.7,12.8-30.6
	c0.1-0.9-7.5-7.7-12.7-11.2c-5.4-3.3-14.7-7.3-15.5-6.8c-9.3,5.8-16,15.3-22.4,24.5c-7.2,10.5-14.3,21.1-21.3,31.8
	c-13.7,20.8-27,41.9-40.3,63c-25.3,40.2-71.1,109.2-77.3,119c-6.2,9.7-9.1,12.8-32.1,20.5s-44.5,11.1-56,27.8
	C166.7,342,78.4,454.5,151.6,501.2z"/>
</svg>
