<?xml version="1.0" encoding="utf-8"?>
<!-- Generator: Adobe Illustrator 15.1.0, SVG Export Plug-In . SVG Version: 6.00 Build 0)  -->
<!DOCTYPE svg PUBLIC "-//W3C//DTD SVG 1.1//EN" "http://www.w3.org/Graphics/SVG/1.1/DTD/svg11.dtd">
<svg version="1.1" id="Layer_3" xmlns="http://www.w3.org/2000/svg" xmlns:xlink="http://www.w3.org/1999/xlink" x="0px" y="0px"
	 width="566.93px" height="566.93px" viewBox="0 0 566.93 566.93" enable-background="new 0 0 566.93 566.93" xml:space="preserve">
<path d="M263.255,459.365c-11.623-0.378-23.245-0.756-34.867-1.135c-6.699-0.218-13.397-0.436-20.096-0.653
	c-3.021-0.099-4.825-0.177-7.627,1.035c-6.181,2.674-12.467,6.698-15.325,13.029c-1.579,3.497-1.473,7.213-0.418,10.842
	c1.474,5.068,5.615,7.062,10.287,8.419c17.781,5.165,38.174,2.982,56.279,1.067c11.403-1.206,22.749-2.929,34.054-4.838
	c5.755-0.972,11.861-2.77,17.719-2.922c2.1-0.054-0.618-3.9-0.961-4.303c-1.339-1.57-3.419-3.493-5.633-3.436
	c-4.717,0.122-9.619,1.526-14.248,2.328c-10.055,1.74-20.137,3.316-30.263,4.589c-11.364,1.428-22.797,2.428-34.253,2.602
	c-10.021,0.152-20.78-0.185-30.319-3.589c1.896,1.99,3.791,3.979,5.687,5.97c-3.867-10.625,5.18-18.075,13.986-22.02
	c0.937-0.42,1.894-0.798,2.864-1.136c-0.565,0.197-0.534-0.064,0.463-0.032c3.167,0.104,6.333,0.206,9.5,0.31
	c16.113,0.524,32.227,1.049,48.34,1.573C272.365,467.194,265.931,459.451,263.255,459.365L263.255,459.365z"/>
<path d="M285.578,224.432c0.632-0.125-0.304,0.052,0.138-0.026c0.645-0.114,1.291-0.216,1.938-0.315
	c2.282-0.347,4.575-0.615,6.872-0.839c7.75-0.758,15.561-0.906,23.336-0.527c22.102,1.076,44.479,6.987,62.445,20.313
	c26.309,19.516,35.723,51.736,37.497,83.171c0.976,17.286-0.099,34.958-1.235,52.235c-1.048,15.93-2.97,31.88-6.951,47.364
	c-3.706,14.42-9.641,28.78-19.799,39.885c-10.49,11.467-25.383,16.438-40.66,16.141c-4.522-0.088-9.024-0.684-13.47-1.487
	c-4.901-0.887-10.33-3.534-15.236-3.484c-6.149,0.063-12.301-0.148-18.411-0.863c-13.238-1.55-25.79-6.17-35.925-14.986
	c-9.775-8.503-15.82-20.404-20.102-32.423c-3.235-9.083-5.32-18.612-6.89-28.11c-1.396-8.445-2.043-16.817-4.639-25.019
	c-5.318-16.795-14.611-32.093-23.347-47.273c-10.327-17.944-20.373-36.067-26.948-55.778c-1.283-3.845-6.4-6.229-4.452-0.389
	c8.444,25.313,22.428,47.961,35.435,71.083c5.568,9.898,10.903,19.987,14.489,30.795c3.787,11.414,4.008,23.932,6.595,35.667
	c7.205,32.684,24.632,64.61,59.254,72.972c6.092,1.472,12.362,2.123,18.611,2.417c2.921,0.138,5.846,0.164,8.769,0.151
	c4.896-0.021,9.957,2.261,14.76,3.248c15.779,3.242,32.73,2.298,46.629-6.453c25.728-16.199,32.732-51.649,36.058-79.512
	c1.758-14.73,2.349-29.569,2.779-44.388c0.598-20.582,0.254-40.846-4.817-60.933c-7.11-28.166-23.566-53.291-49.052-67.863
	c-25.48-14.569-59.172-18.499-87.897-12.816C279.195,216.815,282.527,225.036,285.578,224.432L285.578,224.432z"/>
<path d="M289.117,214.967c-14.683-0.385-25.523-16.784-33.592-27.062c-11.312-14.407-22.713-29.685-38.839-39.026
	c-3.813-2.209-7.908-3.878-12.132-5.111c-5.034-1.469-9.972-1.132-15.144-0.637c-9.104,0.872-18.045,3.417-26.283,7.371
	c-14.52,6.969-25.781,19.002-34.245,32.473c-9.499,15.119-15.258,32.757-17.619,50.402c-2.667,19.938,10.511,36.012,29.189,41.461
	c12.53,3.656,25.272,2.736,38.119,2.383c11.335-0.313,22.613-2.101,33.294-5.963c23.528-8.508,36.892-30.658,35.329-55.351
	c-0.154-2.425-2.553-0.593-3.372,0.308c-1.527,1.681-3.237,4.422-3.086,6.807c0.635,10.023-0.614,20.135-7.606,27.796
	c-6.208,6.802-15.423,10.677-24.107,13.121c-9.211,2.592-18.867,3.527-28.405,3.716c-11.481,0.227-22.472,0.92-33.741-1.964
	c-12.151-3.109-22.856-10.46-27.353-22.476c-1.321-3.531-1.944-7.252-2.076-11.009c-0.042-1.179-0.015-2.36,0.063-3.537
	c-0.076,1.155,0.053-0.43,0.113-0.811c2.818-17.872,8.25-35.672,19.823-49.972c10.827-13.378,25.985-21.662,42.883-24.506
	c4.723-0.795,10.782-1.917,15.531-0.987c4.707,0.921,9.209,2.694,13.471,4.859c8.28,4.207,15.357,10.521,21.734,17.184
	c9.87,10.313,17.958,22.151,27.204,32.997c6.817,7.998,15.31,16.859,26.544,17.154C287.8,224.665,292.077,215.044,289.117,214.967
	L289.117,214.967z"/>
<path d="M171.506,220.531c2.518-5.277,13.979-26.06,21.813-18.545c0.927,0.89-0.198-1.171,0.354,0.629
	c0.137,0.444,0.242,1,0.253,1.814c0.027,2.032-0.738,3.975-2.171,5.419c-5.993,6.042-18.202,3.372-25.365,1.981
	c-2.492-0.484,1.01,8.66,4.148,9.27c8.455,1.642,21.855,4.147,28.019-3.942c3.717-4.879,1.214-12.235-1.274-17.011
	c-2.072-3.976-6.004-7.681-10.445-8.627c-3.907-0.832-7.766,2.174-10.356,4.672c-4.651,4.485-8.288,10.397-11.059,16.207
	C164.08,215.216,170.265,223.134,171.506,220.531z"/>
<path d="M208.403,153.644c2.649-4.548,5.68-8.899,8.934-13.031c4.025-5.111,10.629-13.805,18.007-13.382
	c3.629,0.208,5.564,3.878,6.716,6.854c3.081,7.964,3.082,17.292,3.235,25.691c0.166,9.082-0.217,18.104,1.708,27.051
	c0.52,2.414,1.178,5.481,2.717,7.52c2.376,3.147,4.41-5.578,2.763-7.759c-0.44-0.583-0.134-0.052-0.623-1.321
	c-0.857-2.22-1.214-4.62-1.562-6.959c-1.613-10.866-0.362-21.998-1.297-32.934c-0.675-7.891-2.148-26.7-13.37-27.343
	c-7.878-0.452-15.084,8.602-19.449,14.002c-3.778,4.676-7.272,9.692-10.3,14.891c-1.058,1.817-1.232,4.531-0.498,6.489
	C206.038,155.156,207.484,155.221,208.403,153.644L208.403,153.644z"/>
<path d="M166.406,150.879c3.376-11.685,9.274-26.519,20.31-32.799c-0.927-0.302-1.854-0.604-2.782-0.906
	c3.105,2.664,2.74,10.351,2.75,14.008c0.011,4.21-0.222,8.976-1.988,12.867c-1.204,2.652,4.816,9.526,6.039,6.832
	c2.663-5.865,2.586-13.489,2.026-19.751c-0.657-7.338-2.806-14.909-8.594-19.874c-0.684-0.587-1.832-1.447-2.782-0.906
	c-11.349,6.458-17.552,21.696-21.019,33.696C159.539,146.91,165.676,153.406,166.406,150.879L166.406,150.879z"/>
<path d="M377.616,485.321c12.386,0.039,25.269-3.507,36.679-7.992c25.371-9.975,45.641-28.756,58.544-52.669
	c9.605-17.804,14.67-37.757,17.246-57.714c2.89-22.387,1.321-45.26-0.405-67.706c-1.276-16.594-3.591-33.352-9.944-48.847
	c-6.098-14.869-16.302-27.42-28.313-37.938c-7.752-6.789-16.252-12.699-24.931-18.229c-2.407-1.534-4.847-3.017-7.293-4.486
	c-3.55-2.133-5.484-3.4-7.741-7.058c-2.966-4.807-5.52-10.022-6.645-15.587c-1.369-6.775,1.527-11.344,8.321-11.566
	c8.564-0.28,18.771,2.212,26.388,6.061c13.821,6.983,31.033,7.516,45.854,4.126c10.032-2.294,19.441-7.244,27.199-13.96
	c4.362-3.776,8.076-8.171,11.366-12.896c1.244-1.786-0.823-6.523-1.35-8.49c-9.25-34.552-32.712-64.267-68.026-74.219
	c-13.403-3.777-27.074-3.324-40.831-2.259c-14.313,1.108-28.485,3.899-41.823,9.307c-31.595,12.809-52.266,39.896-63.854,71.23
	c-3.292,8.903-6.239,17.401-4.438,26.926c1.578,8.344,5.999,16.022,10.732,22.947c4.83,7.066,10.697,13.476,17.113,19.126
	c3.957,3.484,8.805,7.578,14.047,8.897c2.28,0.574,4.807,0.058,6.864-1.039c0.889-0.473,3.347-2.588,1.042-3.168
	c-6.442-1.621-12.151-7.408-16.769-11.853c-7.377-7.099-13.811-15.353-18.532-24.445c-4.656-8.964-6.791-18.432-3.877-28.246
	c3.48-11.722,8.136-23.104,14.106-33.78c9.032-16.15,22.016-30.155,38.253-39.178c12.254-6.809,25.918-10.186,39.769-11.698
	c12.839-1.401,26.376-2.071,38.952,1.082c19.814,4.969,36.659,16.962,48.832,33.212c9.241,12.337,15.426,26.957,19.231,41.832
	c0.337,1.315,0.643,2.639,0.937,3.964c0.433,1.951-2.85,4.811-4.03,6.223c-3.938,4.709-8.701,8.727-14.004,11.812
	c-8.002,4.656-17.313,6.384-26.493,5.898c-16.044-0.85-29.696-9.92-45.602-11.786c-13.836-1.623-33.001,2.786-28.693,20.496
	c1.31,5.383,4.221,10.381,7.101,15.049c1.747,2.832,3.331,4.112,6.195,5.802c2.882,1.7,5.73,3.457,8.561,5.242
	c8.714,5.496,17.126,11.497,24.931,18.229c12.342,10.645,22.307,23.469,28.369,38.658c6.255,15.673,8.201,32.783,9.438,49.484
	c1.726,23.291,2.972,46.69-0.478,69.866c-5.015,33.686-19.063,67.164-47.007,88.009c-10.821,8.071-23.228,13.566-35.778,16.543
	c-4.937,1.171-10.473,2.092-15.183,2.076c-2.124-0.007-5.052,0.78-6.492,2.46C373.65,484.825,376.424,485.317,377.616,485.321
	L377.616,485.321z"/>
<g>
	<path fill="#FFFFFF" d="M370.632,333.298c0,0-76.387,2.364-48.054,148.031c-11.946,0.97-49.613,0.151-49.613,0.151
		s-18,10.485-14,19.818s12.333,10.333,20,9.333s41.667-13.334,67-13s26.667-19,26.667-19"/>
	<path d="M368.65,329.319c-9.137,0.307-18.513,4.94-25.633,10.327c-20.438,15.46-27.337,42.489-29.146,66.805
		c-1.81,24.321,1.333,48.96,5.921,72.81c0.269-0.637,0.536-1.273,0.804-1.91c-15.913,1.206-32.085,0.492-48.026,0.184
		c-4.346-0.084-8.414,4.392-11.311,7.213c-6.921,6.741-7.147,14.809-0.865,22.311c6.037,7.21,14.254,9.087,23.271,7.019
		c8.977-2.06,17.779-4.888,26.723-7.093c12.266-3.023,24.885-5.424,37.56-5.371c8.596,0.035,17.72-2.104,23.164-9.277
		c2.358-3.106,4.085-6.903,4.393-10.838c0.185-2.355-5.484-9.048-5.744-5.729c-0.252,3.213-2.171,7.137-4.367,9.816
		c-6.767,8.256-17.414,7.755-27.061,8.188c-20.921,0.939-40.131,8.708-60.41,12.729c-4.42,0.876-9.235,0.699-13.354-1.186
		c-6.066-2.775-2.125-8.745,0.893-12.085c2.406-2.662,5.359-4.867,8.332-6.853c1.775-1.186,0.959-0.92,3.205-0.876
		c15.787,0.305,31.803,1.001,47.563-0.192c1.013-0.077,0.95-1.15,0.804-1.91c-7.084-36.823-12.528-80.956,5.701-115.664
		c7.437-14.16,20.074-25.609,35.781-29.548c1.865-0.468,3.838-0.845,5.768-0.909C375.111,337.194,371.248,329.232,368.65,329.319
		L368.65,329.319z"/>
</g>
<path d="M107.742,348.877c5.373-3.939,11.117-7.422,16.999-10.538c4.735-2.508,9.637-4.668,14.773-6.209
	c3.37-1.011,4.313-1.728,6.546,0.127c4.941,4.102,7.452,11.173,9.538,17.007c2.848,7.963,4.811,16.25,6.512,24.523
	c1.464,7.122,2.646,14.31,3.536,21.525c0.375,3.036,0.951,6.796,0.419,8.727c-1.821,6.613-6.938,12.685-12.503,16.478
	c-4.606,3.14-8.849,3.83-14.497,3.014c-10.061-1.455-19.312-8.351-26.74-14.824c-5.771-5.029-10.968-10.703-15.912-16.534
	c-1.555-1.834-3.056-3.715-4.55-5.599c-1.293-1.629-4.406-4.499-4.344-6.748c0.096-3.5,1.426-6.982,2.838-10.135
	C93.964,361.64,100.746,354.21,107.742,348.877c1.683-1.283,1.53-2.963-0.602-3.578c-2.299-0.663-5.523-0.217-7.452,1.254
	c-4.99,3.804-9.465,8.413-13.354,13.316c-3.011,3.795-5.531,8.021-7.357,12.507c-0.949,2.33-1.491,4.786-1.82,7.272
	c-0.519,3.91,1.266,5.443,3.613,8.497c12.325,16.034,27.983,33.438,48.053,39.426c18.809,5.611,41.473-4.255,47.56-23.652
	c0.649-2.068,0.441-4.163,0.249-6.288c-0.458-5.08-1.227-10.138-2.054-15.168c-2.278-13.863-5.233-28.017-10.785-40.979
	c-1.957-4.568-4.341-9.414-8.235-12.647c-5.012-4.16-11.271-3.226-17.197-1.76c-13.876,3.435-27.195,11.06-38.672,19.476
	c-1.721,1.262-1.498,2.972,0.602,3.578C102.622,350.804,105.771,350.323,107.742,348.877z"/>
<path d="M88.885,303.936c-2.333,0.491-4.667,0.983-7,1.476c-0.424,0.183-0.631,0.505-0.622,0.967
	c0.432,8.776,0.934,20.494,6.196,27.864c2.46,3.446,8.203,6.868,12.283,4.368c2.576-1.577,4.421-4.632,5.777-7.254
	c0.369-0.712-0.068-1.581-0.507-2.143c-4.289-5.487-7.941-12.522-7.344-19.638c0.259-3.094-9.136-7.873-9.404-4.674
	c-0.681,8.125,3.771,16.498,8.656,22.747c-0.169-0.714-0.338-1.429-0.507-2.143c-1.104,2.134-2.471,4.138-4.128,5.879
	c-0.566,0.596-1.178,0.931-1.916,1.249c1.54,0.757,3.08,1.514,4.62,2.271c-0.312-0.707-0.593-1.426-0.844-2.156
	c-1.108-3.021-1.657-6.242-2.18-9.403c-0.637-3.847-1.016-7.747-1.26-11.637c-0.076-1.202,0.14,0.142-0.495,0.275
	c0.647-0.136,1.293-0.272,1.94-0.409c1.632-0.344,3.264-0.688,4.896-1.032c2.18-0.459-1.299-3.921-1.743-4.28
	C93.586,304.873,91.17,303.453,88.885,303.936z"/>
<g>
	<path fill="#FFFFFF" d="M217.215,288.715c0,0,13.5,37.5-18.75,65s-49.5,38-53.75,45s-1.5,25,14,27.75s35.75-35.5,36-37
		s69.25,7.25,107.75-47.75"/>
	<path d="M212.592,286.676c4.073,11.475,3.629,25.061,0.183,36.556c-3.525,11.757-11.119,21.342-20.348,29.192
		c-10.142,8.628-20.55,16.93-31.047,25.119c-9.196,7.175-23.441,14.615-23.058,27.882c0.261,9.042,6.193,16.365,13.728,20.727
		c7.485,4.333,14.96,4.535,21.98-0.465c10.788-7.683,19.131-20.9,24.823-32.691c0.675-1.398-0.434-0.62,0.082-0.658
		c1.217-0.092,2.45-0.052,3.669-0.058c4.676-0.022,9.344-0.166,14.008-0.509c35.622-2.621,69.337-17.845,90.393-47.488
		c1.439-2.027-7.38-7.522-9.076-5.135c-22.415,31.557-58.822,45.853-96.537,46.955c-3.203,0.094-6.489-0.152-9.679,0.168
		c-2.639,0.265-4.246,5.984-5.391,7.954c-4.251,7.311-23.479,39.021-34.54,26.85c-4.229-4.654-5.407-12.746-3.17-18.527
		c1.306-3.376,4.713-6.021,7.358-8.302c13.169-11.354,27.4-21.507,40.754-32.657c8.029-6.704,15.401-13.43,20.615-22.625
		c3.889-6.859,6-14.561,6.925-22.35c0.997-8.397,0.432-17.815-2.424-25.859c-0.744-2.095-2.99-3.451-4.932-4.308
		C216.547,286.288,211.911,284.758,212.592,286.676L212.592,286.676z"/>
</g>
<g>
	<path fill="#FFFFFF" d="M90.715,324.965c0,0,45-37.25,62.25-3.75c-22.952,11.461-67.5,27-75.75,58.75
		C62.965,369.715,51.465,354.965,90.715,324.965z"/>
	<path d="M92.003,326.485c0.342-0.282,1.974-1.533,0.853-0.684c1.542-1.169,3.128-2.278,4.732-3.361
		c4.966-3.354,10.267-6.246,15.852-8.428c13.983-5.463,27.967-3.426,35.506,10.611c1.646-2.146,3.292-4.294,4.937-6.44
		c-15.486,7.681-31.424,14.203-46.102,23.444c-15.085,9.499-29.804,22.771-34.687,40.514c2.713-1.861,5.427-3.723,8.141-5.584
		c-6.077-4.409-12.332-9.919-13.076-17.856C66.882,345.084,82.793,333.599,92.003,326.485c0.87-0.672,3.91-3.537,2.732-4.928
		c-1.221-1.439-4.433,1.213-5.308,1.889c-11.523,8.901-27.878,21.737-29.603,37.531c-1.08,9.897,5.961,17.021,13.371,22.396
		c2.518,1.826,7.54-3.399,8.141-5.584c4.245-15.425,16.838-25.557,30.06-33.427c13.025-7.753,27.103-13.396,40.652-20.115
		c1.622-0.805,6.184-4.119,4.937-6.44c-14.779-27.518-49.952-8.864-67.558,5.639c-0.85,0.7-3.925,3.521-2.732,4.928
		C87.901,329.795,91.152,327.186,92.003,326.485z"/>
</g>
<path d="M119.499,237.114c5.583,0,11.167,0,16.75,0c-2.046-1.855-4.092-3.71-6.138-5.565c0.016-1.409-0.108,0.787-0.15,1.116
	c-0.175,1.375-0.514,2.723-0.883,4.056c-1.339,4.83-3.96,9.118-7.042,13.022c-2.073,2.626,5.159,8.915,7.108,6.445
	c4.612-5.843,8.585-13.168,8.675-20.806c0.029-2.448-3.85-5.565-6.138-5.565c-5.583,0-11.167,0-16.75,0
	C110.703,229.817,116.562,237.114,119.499,237.114L119.499,237.114z"/>
<path d="M162.265,249.111c-6.094,8.708-16.199,14.778-26.728,15.892c-2.021,0.214,0.677,10.012,3.856,9.676
	c10.844-1.147,21.257-7.656,27.522-16.608C168.586,255.682,163.726,247.023,162.265,249.111L162.265,249.111z"/>
<path d="M183.174,281.622c-3.499,20.474-16.15,40.09-30.125,54.888c-0.157,0.269-0.171,0.548-0.045,0.84
	c3.19,7.381,6.181,15.645,10.812,22.311c0.75,1.08,3.8,4.368,5.361,3.01c13.879-12.073,28.59-25.698,37.829-41.75
	c1.065-1.851-4.721-5.906-5.582-4.41c-9.24,16.051-23.95,29.676-37.829,41.75c1.787,1.003,3.574,2.006,5.361,3.01
	c-2.281-3.283-3.92-7.141-5.611-10.735c-1.096-2.327-2.142-4.679-3.182-7.032c-1.774-4.011,2.202-6.609,4.604-9.478
	c3.915-4.677,7.38-9.72,10.553-14.923c6.178-10.131,11.667-21.977,13.687-33.794C189.342,283.344,183.51,279.656,183.174,281.622
	L183.174,281.622z"/>
</svg>
