<?xml version="1.0" encoding="utf-8"?>
<!-- Generator: Adobe Illustrator 15.1.0, SVG Export Plug-In . SVG Version: 6.00 Build 0)  -->
<!DOCTYPE svg PUBLIC "-//W3C//DTD SVG 1.1//EN" "http://www.w3.org/Graphics/SVG/1.1/DTD/svg11.dtd">
<svg version="1.1" id="Layer_3" xmlns="http://www.w3.org/2000/svg" xmlns:xlink="http://www.w3.org/1999/xlink" x="0px" y="0px"
	 width="566.93px" height="566.93px" viewBox="0 0 566.93 566.93" enable-background="new 0 0 566.93 566.93" xml:space="preserve">
<g>
	<g>
		<path d="M276.637,48.754c22.122,44.824,44.244,89.647,66.366,134.471c3.95,8.005,7.901,16.01,11.853,24.016
			c2.291,4.643,6.351,4.842,11.018,5.52c25.845,3.755,51.689,7.511,77.534,11.267c31.385,4.56,62.77,9.121,94.154,13.681
			c0.738-8.055,1.477-16.11,2.216-24.165c-35.794,34.89-71.588,69.781-107.382,104.671c-6.393,6.231-12.785,12.463-19.178,18.694
			c-5.858,5.71-10.794,12.439-9.297,21.172c0.246,1.432,0.491,2.864,0.737,4.296c4.271,24.905,8.543,49.811,12.814,74.716
			c5.586,32.567,11.172,65.135,16.758,97.702c5.971-7.312,11.94-14.624,17.91-21.936c-44.244-23.261-88.487-46.521-132.731-69.781
			c-7.901-4.154-15.803-8.309-23.704-12.463c-3.358-1.766-6.029-2.64-10.03-0.536c-1.581,0.831-3.161,1.662-4.742,2.493
			c-22.934,12.057-45.868,24.114-68.802,36.171c-28.366,14.913-56.731,29.826-85.097,44.739c3.574,3.231,7.149,6.464,10.724,9.696
			c8.45-49.266,16.899-98.532,25.349-147.798c1.509-8.799,3.018-17.597,4.527-26.396c0.605-3.528,1.937-8.533-0.827-11.226
			c-1.278-1.247-2.557-2.493-3.836-3.739c-18.554-18.086-37.107-36.172-55.662-54.257c-22.948-22.369-45.896-44.738-68.845-67.107
			c-3.949,8.273-7.897,16.545-11.846,24.818c49.466-7.188,98.932-14.375,148.397-21.563c8.834-1.284,17.669-2.567,26.503-3.851
			c7.736-1.124,11.896-7.39,15.105-13.89c11.374-23.046,22.748-46.092,34.122-69.139c14.33-29.036,28.66-58.071,42.99-87.107
			c2.276-4.612,5.848-13.944-0.294-17.49c-5.741-3.315-13.019,3.88-15.294,8.49c-22.122,44.824-44.244,89.647-66.365,134.471
			c-4.328,8.77-8.656,17.539-12.984,26.309c3.446-2.996,6.891-5.992,10.336-8.988c-49.466,7.188-98.932,14.375-148.397,21.563
			c-9.678,1.406-19.356,2.813-29.034,4.219c-4.396,0.639-8.3,5.461-10.336,8.988c-2.074,3.593-5.327,12.109-1.51,15.83
			c35.794,34.891,71.588,69.781,107.381,104.671c7.003,6.826,14.006,13.652,21.009,20.479c-0.404-2.887-0.808-5.772-1.211-8.659
			c-8.45,49.266-16.899,98.532-25.349,147.798c-1.653,9.639-3.306,19.277-4.959,28.916c-1.251,7.293,3.041,13.735,10.724,9.696
			c44.244-23.26,88.487-46.521,132.731-69.781c8.656-4.551,17.312-9.102,25.968-13.652c-2.569,0.208-5.139,0.416-7.708,0.623
			c44.244,23.261,88.487,46.521,132.731,69.781c8.655,4.551,17.312,9.102,25.968,13.652c4.789,2.519,10.137-1.682,13.022-5.197
			c3.898-4.752,5.932-10.651,4.888-16.738c-8.45-49.267-16.9-98.532-25.351-147.798c-1.653-9.639-3.306-19.277-4.959-28.916
			c-2.488,6.462-4.978,12.925-7.466,19.388c35.794-34.891,71.588-69.781,107.382-104.672c7.003-6.826,14.006-13.652,21.009-20.479
			c3.727-3.632,6.594-7.906,7.571-13.113c0.828-4.413-0.003-10.274-5.355-11.052c-49.466-7.188-98.932-14.375-148.397-21.563
			c-9.678-1.406-19.355-2.813-29.033-4.219c1.381,0.797,2.763,1.595,4.144,2.393c-22.121-44.824-44.243-89.647-66.365-134.471
			c-4.328-8.77-8.656-17.539-12.984-26.309c-3.184-6.452-12.322,0.487-14.826,3.538C276.072,34.929,273.467,42.329,276.637,48.754z"
			/>
	</g>
</g>
</svg>
