<?xml version="1.0" encoding="utf-8"?>
<!-- Generator: Adobe Illustrator 23.0.1, SVG Export Plug-In . SVG Version: 6.00 Build 0)  -->
<svg version="1.1" id="Layer_2_copy" xmlns="http://www.w3.org/2000/svg" xmlns:xlink="http://www.w3.org/1999/xlink" x="0px"
	 y="0px" viewBox="0 0 566.93 566.93" enable-background="new 0 0 566.93 566.93" xml:space="preserve">
<path d="M288.505,536.265c0-24.414,0-48.829,0-73.243c0-3.222-9.08-4.441-9.08-1.759c0,24.414,0,48.829,0,73.243
	C279.425,537.728,288.505,538.947,288.505,536.265L288.505,536.265z"/>
<path d="M286.908,367.484c0.216-17.716,0.432-35.432,0.648-53.148c0.029-2.412-6.51-0.697-6.534,1.304
	c-0.216,17.716-0.432,35.432-0.648,53.148C280.344,371.2,286.884,369.485,286.908,367.484L286.908,367.484z"/>
<path d="M281.447,192.063c-0.843-9.162-1.159-18.327-0.951-27.525c0.031-1.375-4.491-1.698-4.519-0.429
	c-0.208,9.198,0.108,18.363,0.951,27.525C277.06,193.078,281.553,193.214,281.447,192.063L281.447,192.063z"/>
<path d="M282.996,263.872c-0.843-9.162-1.159-18.327-0.951-27.525c0.031-1.375-4.491-1.698-4.519-0.429
	c-0.208,9.198,0.108,18.363,0.951,27.525C278.609,264.887,283.102,265.023,282.996,263.872L282.996,263.872z"/>
<path d="M575.842,565.21c-3.116-3.42-7.604-5.64-12.233-6.738c-1.463-2.232-2.91-4.475-4.339-6.729
	c-6.449-10.169-12.716-20.453-18.959-30.749c-18.811-31.023-37.286-62.251-55.74-93.488
	c-21.955-37.164-43.818-74.383-65.693-111.594c-19.412-33.022-38.812-66.051-58.358-98.994
	c-11.349-19.128-22.431-38.516-34.592-57.147c-0.402-0.616-0.815-1.224-1.227-1.834c0.169-0.002-1.362-2.289-2.55-2.27
	c-1.995-0.955-4.56-1.418-4.052,0.071c-29.372,0.551-58.724,1.827-88.033,3.845c-0.5,0.034-1.03,0.963-1.154,1.637
	c-0.618,0.595-1.19,1.375-1.619,2.386c-0.808,1.902-1.821,3.76-3.212,6.234c-1.897,3.375-3.896,6.694-5.918,9.995
	c-5.943,9.704-12.133,19.257-18.355,28.784c-18.055,27.643-36.529,55.013-54.958,82.408c-21.742,32.319-43.513,64.62-65.06,97.07
	c-19.686,29.648-39.263,59.384-58.092,89.585c-12.154,19.495-25.056,39.243-34.274,60.361c-0.623,1.428-1.215,2.87-1.753,4.333
	c-0.437,1.19-0.238,3.079,0.273,4.423c-0.582,1.402-1.146,2.808-1.669,4.225c-0.547,1.48-0.107,4.038,0.693,5.287
	c-0.55-0.005-1.101-0.007-1.651-0.013c-5.694-0.057-6.996,4.597-3.462,8.475c4.479,4.915,11.965,7.481,18.474,7.546
	c75.171,0.758,150.354,0.307,225.509-1.45c37.229-0.871,74.427-2.456,111.647-3.571c37.197-1.114,74.54,0.271,111.709,1.701
	c41.729,1.606,83.438,3.748,125.19,4.683C578.102,573.813,579.34,569.048,575.842,565.21z M334.364,551.089
	c-37.19,0.312-74.4,2.47-111.584,3.42c-37.557,0.959-75.121,1.593-112.689,1.91c-41.071,0.347-82.144,0.303-123.214-0.091
	c0.166-0.263,0.331-0.603,0.491-1.037c5.648-15.294,15.373-29.513,23.884-43.298c14.349-23.242,29.364-46.073,44.465-68.83
	c31.59-47.609,64.023-94.657,95.475-142.358c5.859-8.886,11.696-17.793,17.302-26.842c3.14-5.068,6.491-10.201,8.841-15.703
	c0.654-1.531,0.224-4.21-0.638-5.391c6.921-10.364,13.825-20.739,20.672-31.152c10.816-16.449,22.524-32.887,31.432-50.492
	c0.557-1.101,3.93-8.414,4.424-9.573c28.738-1.912,57.515-3.12,86.312-3.622c10.695,15.634,19.953,32.409,29.625,48.664
	c9.157,15.388,18.271,30.802,27.366,46.226c-0.404,1.391-0.18,3.208,0.183,4.337c5.065,15.756,14.113,30.624,22.044,45.04
	c13.309,24.191,27.312,48.001,41.4,71.744c29.926,50.431,60.731,100.337,90.555,150.828c5.487,9.29,10.95,18.598,16.198,28.026
	c0.843,1.514,1.707,3.036,2.561,4.568C477.758,555.603,406.127,550.486,334.364,551.089z"/>
<path d="M96.728,375.52c-1.968-48.772-3.183-97.574-3.618-146.384c-0.435-48.898,0.406-97.798-0.175-146.695
	c-0.312-26.246-1.129-52.486-2.896-78.676c1.627-1.045,3.111-2.313,4.343-3.72c1.353-1.545,4.276-6.923-0.271-6.512
	c-1.839,0.166-3.679,0.333-5.518,0.499c-0.657-1.381-1.677-2.286-3.273-1.67c-0.86,0.332-1.507,1.122-1.997,2.146
	C68.361-4.138,53.399-2.786,38.436-1.433C20.81,0.16,2.374,3.483-15.316,1.596c-4.157-0.443-9.217,3.511-11.765,6.42
	c-1.844,2.106-3.967,6.06,0.271,6.512c17.692,1.887,36.123-1.436,53.752-3.029C45.341,9.836,63.74,8.173,82.14,6.51
	c3.312,47.781,3.321,95.69,3.131,143.562c-0.195,49.055-0.038,98.1,1.069,147.145c0.625,27.692,1.505,55.378,2.621,83.055
	c0.091,2.253,0.917,8.365,4.426,7.011C96.735,385.99,96.833,378.134,96.728,375.52z"/>
<path d="M186.136,234.944c-2.146-35.208-3.261-70.481-3.216-105.756c0.044-34.076,0.976-68.229-2.488-102.182
	c0.831-0.531,1.576-1.176,2.129-1.878c0.649-0.824,2.163-3.393-0.135-3.256c-1.017,0.061-2.034,0.121-3.05,0.182
	c-0.486-0.596-1.084-0.469-1.625,0.097c-14.161,0.844-28.323,1.688-42.484,2.532c-15.071,0.898-30.434,2.729-45.53,1.692
	c-2.627-0.181-9.483,6.209-5.747,6.466c15.097,1.038,30.458-0.794,45.53-1.692c15.642-0.932,31.284-1.864,46.926-2.797
	c3.636,34.748,2.559,69.686,2.586,104.562c0.027,34.828,1.102,69.643,3.22,104.406c0.076,1.248,0.413,4.03,2.213,3.505
	C186.116,240.344,186.206,236.108,186.136,234.944z"/>
<path d="M250,49.853c-0.037-1.525-0.773-2.576-2.275-1.987c-0.415,0.162-0.75,0.512-1.021,0.958
	c-9.092-2.8-18.293-5.422-27.79-6.328c-11.195-1.068-24.014,3.258-34.655-0.91c-1.272-0.498-4.152-1.423-5.335-0.263
	c-1.093,1.072-0.494,2.142,0.94,2.704c10.145,3.973,19.928,2.678,30.523,2.088c12.192-0.679,23.843,2.773,35.358,6.348
	c-0.009,0.174-0.014,0.338-0.012,0.478c0.263,16.95,0.525,33.901,0.788,50.851c0.262,16.91,1.305,34.04-0.293,50.903
	c-0.501,5.288,3.847,2.619,4.201-1.119c1.598-16.861,0.656-33.932,0.394-50.837c-0.257-16.57-0.513-33.141-0.77-49.711
	C252.213,52.573,253.367,50.97,250,49.853z"/>
<g>
	<path d="M67.85,68.72c-0.13-0.942-0.592-1.699-1.8-1.13c-0.024,0.011-0.049,0.022-0.073,0.034c-0.78-0.268-1.366-0.144-1.508,0.592
		c-0.007,0.038-0.013,0.076-0.02,0.113c-15.557,7.172-31.846,12.418-48.76,15.276c-2.061,0.348-4.238,4.399-4.496,6.733
		c-0.12,0.029-0.243,0.069-0.369,0.127c-1.829,0.844-1.169,4.896-0.889,6.252c3.171,15.384,1.555,31.308,4.161,46.785
		c-0.268,2.959,2.423,7.634,4.436,6.422c14.222-8.567,29.466-15.02,45.646-18.811c0.305-0.071,0.531-0.243,0.713-0.465
		c0.722,1.452,1.885,2.755,3.157,3.588c1.022,0.67,3.839,1.766,3.557-0.62c-2.331-19.734-3.674-39.033,0.118-58.698
		C72.069,73.13,69.907,70.323,67.85,68.72z M60.78,122.752c-14.965,3.507-29.128,9.294-42.424,16.922
		c-2.098-15.328-1.033-30.916-4.173-46.15c-0.114-0.552-0.348-1.218-0.686-1.802c17.239-3.033,33.855-8.352,49.72-15.751
		c-2.125,16.151-1.28,32.134,0.503,48.376C62.901,123.23,61.86,122.499,60.78,122.752z"/>
	<path d="M67.85,191.159c-0.13-0.942-0.592-1.699-1.8-1.13c-0.024,0.011-0.049,0.022-0.073,0.034
		c-0.78-0.268-1.366-0.144-1.508,0.592c-0.007,0.038-0.013,0.076-0.02,0.113c-15.557,7.172-31.846,12.418-48.76,15.276
		c-2.061,0.348-4.238,4.399-4.496,6.733c-0.12,0.029-0.243,0.069-0.369,0.127c-1.829,0.844-1.169,4.896-0.889,6.252
		c3.171,15.384,1.555,31.308,4.161,46.785c-0.268,2.959,2.423,7.634,4.436,6.422c14.222-8.567,29.466-15.02,45.646-18.811
		c0.305-0.071,0.531-0.243,0.713-0.465c0.722,1.452,1.885,2.755,3.157,3.588c1.022,0.67,3.839,1.766,3.557-0.62
		c-2.331-19.734-3.674-39.033,0.118-58.698C72.069,195.569,69.907,192.762,67.85,191.159z M60.78,245.191
		c-14.965,3.507-29.128,9.294-42.424,16.922c-2.098-15.328-1.033-30.916-4.173-46.15c-0.114-0.552-0.348-1.218-0.686-1.802
		c17.239-3.033,33.855-8.352,49.72-15.751c-2.125,16.151-1.28,32.134,0.503,48.376C62.901,245.669,61.86,244.938,60.78,245.191z"/>
	<path d="M154.184,58.173c-0.121-0.063-0.291-0.058-0.529,0.054c-12.908,6.06-26.401,10.452-40.469,12.848
		c-1.495,0.255-3.112,4.406-1.744,4.173c14.295-2.435,28.028-6.834,41.152-12.996c0.216-0.101,0.44-0.318,0.654-0.596
		c-2.386,14.961-1.436,29.702,0.342,44.763c0.17,1.438,3.943,4.567,3.712,2.609c-1.873-15.866-2.901-31.338,0.12-47.153
		C157.676,60.55,155.181,58.115,154.184,58.173z"/>
	<path d="M111.549,117.5c-2.185-13.012-1.055-26.301-3.681-39.266c-0.664-3.276-2.575-0.628-2.124,1.597
		c2.533,12.505,1.318,25.402,3.43,37.972C109.659,120.691,112.046,120.457,111.549,117.5z"/>
	<path d="M115.472,121.597c11.394-6.841,23.55-11.984,36.495-15.04c1.46-0.345-0.041-4.572-1.699-4.181
		c-12.946,3.056-25.101,8.199-36.495,15.04C112.322,118.287,114.176,122.375,115.472,121.597z"/>
	<path d="M154.184,156.065c-0.121-0.063-0.291-0.058-0.529,0.054c-12.908,6.06-26.401,10.452-40.469,12.849
		c-1.495,0.255-3.112,4.406-1.744,4.173c14.295-2.435,28.028-6.834,41.152-12.996c0.216-0.101,0.44-0.318,0.654-0.596
		c-2.386,14.961-1.436,29.702,0.342,44.763c0.17,1.438,3.943,4.568,3.712,2.609c-1.873-15.866-2.901-31.338,0.12-47.153
		C157.676,158.442,155.181,156.007,154.184,156.065z"/>
	<path d="M150.268,200.268c-12.337,2.912-23.948,7.739-34.875,14.105c-1.965-12.687-0.968-25.621-3.525-38.248
		c-0.664-3.276-2.575-0.627-2.124,1.597c2.533,12.505,1.318,25.402,3.43,37.972c0.027,0.161,0.062,0.31,0.1,0.451
		c-0.234,1.466,1.159,3.967,2.198,3.343c11.394-6.841,23.55-11.984,36.495-15.04C153.427,204.104,151.926,199.877,150.268,200.268z"
		/>
	<path d="M205.286,68.716c8.899-1.547,17.396-4.271,25.585-8.084c0.303-0.141,0.638-0.718,0.804-1.227
		c-1.719,9.757-1.176,19.326-0.021,29.138c0.085,0.719,1.971,2.284,1.856,1.304c-1.17-9.945-1.769-19.492,0.08-29.409
		c0.148-0.796-1.68-2.392-1.814-1.676c-0.001,0.008-0.002,0.016-0.004,0.023c-0.024-0.188-0.133-0.278-0.371-0.167
		c-8.088,3.766-16.444,6.48-25.243,8.01C205.41,66.759,204.604,68.834,205.286,68.716z"/>
	<path d="M206.403,95.453c0.023,0.143,0.061,0.258,0.101,0.37c-0.19,0.715,0.539,2.078,1.081,1.755
		c7.136-4.253,14.643-7.426,22.727-9.366c0.731-0.175-0.022-2.289-0.849-2.09c-7.777,1.866-15.017,4.885-21.909,8.897
		c-1.245-7.996-0.688-16.126-2.239-24.09c-0.32-1.641-1.278-0.313-1.062,0.799C205.776,79.554,205.135,87.588,206.403,95.453z"/>
	<path d="M231.776,119.723c-0.001,0.008-0.002,0.016-0.004,0.023c-0.024-0.188-0.133-0.278-0.371-0.167
		c-8.088,3.766-16.444,6.48-25.243,8.01c-0.747,0.13-1.553,2.205-0.872,2.087c8.899-1.547,17.396-4.271,25.585-8.084
		c0.303-0.141,0.638-0.718,0.804-1.227c-1.719,9.757-1.176,19.326-0.021,29.138c0.085,0.719,1.971,2.284,1.856,1.304
		c-1.17-9.945-1.769-19.492,0.08-29.409C233.738,120.603,231.91,119.007,231.776,119.723z"/>
	<path d="M225.461,147.082c-6.389,1.533-12.414,3.848-18.184,6.846c-0.883-7.332-0.545-14.755-1.964-22.039
		c-0.32-1.641-1.278-0.313-1.062,0.799c1.403,7.202,0.99,14.577,1.899,21.835c-1.147,0.618-2.288,1.253-3.416,1.925
		c-0.726,0.433,0.199,2.478,0.849,2.09c0.973-0.58,1.954-1.135,2.941-1.674c0.373,0.936,1.25,0.701,1.067-0.563
		c5.932-3.135,12.131-5.548,18.718-7.128C227.042,148.997,226.289,146.883,225.461,147.082z"/>
</g>
<path d="M581.106,1.86c-17.692,1.887-36.123-1.436-53.752-3.029c-18.558-1.678-37.117-3.355-55.675-5.033
	c-4.192-0.379-9.184,3.473-11.765,6.42c-1.803,2.059-4,6.126,0.271,6.512c1.698,0.154,3.397,0.307,5.095,0.461
	c-1.273,2.359-1.638,6.201-1.734,7.543c-3.473,48.458-3.475,97.104-3.34,145.66c0.141,50.525,0.187,101.032-0.89,151.549
	c-0.632,29.672-1.555,59.336-2.751,88.99c-0.092,2.281,1.775,1.157,4.275,4.157c2.226,2.671,3.418-1.737,3.499-3.748
	c2.127-52.728,3.373-105.49,3.708-158.26c0.312-49.157-0.512-98.318,0.169-147.473c0.371-26.842,1.185-53.687,3.104-80.466
	c0.105-1.463,0.119-5.052-0.813-7.479c15.117,1.367,30.235,2.733,45.352,4.1c17.626,1.593,36.062,4.916,53.752,3.029
	c4.504-0.48,8.789-3.021,11.765-6.42C582.691,6.871,585.668,1.373,581.106,1.86z"/>
<path d="M470.307,26.637c-15.097,1.038-30.458-0.794-45.53-1.692c-15.72-0.937-31.44-1.874-47.159-2.81
	c-0.086-0.005-0.178-0.002-0.273,0.006c-0.154-0.197-0.339-0.351-0.567-0.435c-1.122-0.417-1.821,0.585-2.207,1.677
	c-2.699,1.836-5.325,5.062-2.701,5.218c0.655,0.039,1.31,0.078,1.965,0.117c-3.313,33.752-2.494,67.637-2.458,101.511
	c0.037,35.378-1.067,70.752-3.219,106.064c-0.069,1.138-0.069,4.848,1.689,4.941c1.751,0.092,2.137-3.731,2.198-4.736
	c2.112-34.659,3.208-69.375,3.219-104.099c0.011-34.48-1.144-69.093,2.436-103.45c13.776,0.821,27.552,1.642,41.328,2.463
	c15.071,0.898,30.434,2.729,45.53,1.692c2.156-0.148,4.545-1.513,5.883-3.21C471.08,29.083,472.61,26.479,470.307,26.637z"/>
<path d="M369.758,41.326c-10.905,4.271-22.663,0.557-34.007,1.24c-9.465,0.57-18.662,3.081-27.708,5.843
	c-0.386-0.432-0.976-0.585-1.756-0.28c-0.489,0.192-0.865,0.626-1.151,1.174c-0.611,0.189-1.221,0.379-1.83,0.569
	c-2.405,0.748-1.001,2.08,1.007,2.896c-0.01,0.158-0.017,0.307-0.019,0.437c-0.268,17.283-0.535,34.565-0.803,51.848
	c-0.262,16.908-1.255,34.008,0.344,50.87c0.486,5.128,4.548-0.122,4.271-3.047c-1.598-16.863-0.606-33.962-0.344-50.87
	c0.252-16.242,0.503-32.483,0.755-48.725c11.361-3.536,23.039-7.293,35.07-7c10.577,0.258,20.932,2.526,31.127-1.467
	C378.71,43.249,371.964,40.461,369.758,41.326z"/>
<g>
	<g>
		<path d="M482.649,192.565c3.723,19.307,2.416,38.413,0.126,57.793c-0.263,2.225,1.235,4.355,2.822,5.801
			c0.547,0.499,4.178,3.051,4.432,0.901c2.431-20.579,3.672-40.598-0.279-61.088C489.195,193.095,481.601,187.134,482.649,192.565
			L482.649,192.565z"/>
	</g>
</g>
<g>
	<path d="M485.597,133.721c0.547,0.499,4.178,3.051,4.432,0.901c0.206-1.748,0.4-3.49,0.587-5.23c0.619,1.048,1.4,1.867,2.263,2.069
		c15.946,3.736,30.946,10.159,44.958,18.6c1.845,1.111,2.395-1.451,2.352-2.703c-0.011-0.323-0.062-0.653-0.131-0.983
		c0.037-0.154,0.07-0.31,0.098-0.471c2.735-15.991,1.167-32.391,4.447-48.303c0.545-2.643-1.681-7.401-3.367-6.887
		c1.939-2.301,3.219-6.446,0.858-6.845c-17.535-2.963-34.384-8.446-50.462-16.018c-1.282-0.604-2.888,0.73-4.026,2.486
		c-2.351-2.311-5.674-3.924-4.958-0.21c3.723,19.307,2.416,38.413,0.126,57.793C482.512,130.144,484.01,132.275,485.597,133.721z
		 M538.607,92.216c0.571,0.097,1.195-0.183,1.798-0.675c-0.206,0.391-0.389,0.919-0.535,1.626
		c-3.251,15.773-1.747,32.002-4.376,47.846c-13.83-8.131-28.618-14.244-44.245-17.96c1.376-15.245,1.665-30.285-0.798-45.551
		C505.843,84.412,521.943,89.4,538.607,92.216z"/>
	<path d="M541.984,205.081c-18.574-3.132-36.431-8.941-53.458-16.967c-2.839-1.338-7.292,6.814-4.652,8.058
		c17.384,8.194,35.666,14.059,54.623,17.255C541.294,213.899,545.359,205.65,541.984,205.081z"/>
	<path d="M544.603,219.244c0.724-3.508-3.43-10.743-4.733-4.434c-3.46,16.752-1.831,33.992-4.658,50.817
		c-14.808-8.722-30.659-15.261-47.418-19.185c-3.084-0.722-0.966,7.806,2.126,8.53c16.895,3.955,32.795,10.759,47.638,19.704
		c1.845,1.112,2.395-1.452,2.352-2.703c-0.012-0.333-0.066-0.672-0.138-1.012c0.048-0.187,0.09-0.379,0.124-0.578
		C542.798,253.453,541.124,236.09,544.603,219.244z"/>
	<path d="M397.036,106.312c-0.19,1.613,3.467,4.708,3.627,3.351c1.862-15.776,2.825-31.128,0.068-46.82
		c12.888,5.978,26.364,10.282,40.379,12.669c1.397,0.238,3.432-3.886,1.744-4.173c-14.088-2.4-27.593-6.781-40.52-12.85
		c-0.79-0.371-1.827,0.725-2.366,1.877c-1.081-1.426-3.475-2.949-3.056-0.754C399.898,75.247,398.888,90.617,397.036,106.312z"/>
	<path d="M442.307,78.187c-2.58,12.739-1.407,25.829-3.555,38.619c-0.026,0.154-0.027,0.326-0.018,0.503
		c-11.283-6.68-23.309-11.695-36.087-14.712c-1.539-0.363-0.482,3.9,1.063,4.265c12.831,3.029,24.862,8.157,36.151,14.934
		c0.934,0.56,1.102-0.509,0.856-1.704c0.167-0.186,0.309-0.52,0.402-1.07c2.148-12.791,0.976-25.888,3.555-38.619
		C445.028,78.65,442.946,75.03,442.307,78.187z"/>
	<path d="M400.731,160.736c12.888,5.978,26.364,10.282,40.379,12.669c1.397,0.238,3.432-3.886,1.744-4.173
		c-14.088-2.4-27.593-6.781-40.52-12.85c-0.79-0.371-1.827,0.725-2.366,1.877c-1.081-1.426-3.475-2.949-3.056-0.754
		c2.987,15.635,1.977,31.005,0.124,46.7c-0.19,1.613,3.467,4.708,3.627,3.351C402.525,191.78,403.487,176.427,400.731,160.736z"/>
	<path d="M442.307,176.079c-2.58,12.739-1.407,25.829-3.555,38.619c-0.026,0.154-0.027,0.326-0.018,0.503
		c-11.283-6.68-23.309-11.695-36.087-14.712c-1.539-0.363-0.482,3.9,1.063,4.265c12.831,3.029,24.862,8.157,36.151,14.934
		c0.934,0.56,1.102-0.509,0.856-1.704c0.167-0.186,0.309-0.52,0.402-1.07c2.148-12.791,0.976-25.888,3.555-38.619
		C445.028,176.543,442.946,172.922,442.307,176.079z"/>
	<path d="M320.807,88.621c-0.095,0.806,1.734,2.354,1.814,1.676c1.166-9.91,1.729-19.528-0.014-29.388
		c8.172,3.803,16.651,6.527,25.531,8.07c0.697,0.121,1.717-1.94,0.872-2.087c-8.808-1.531-17.172-4.24-25.268-8.011
		c-0.468-0.218-1.098,0.583-1.295,1.248c-0.335-0.754-1.958-1.957-1.722-0.691C322.555,69.253,321.968,78.762,320.807,88.621z"/>
	<path d="M348.922,71.037c-1.547,7.945-0.928,16.073-2.214,24.049c-0.024,0.152-0.011,0.333,0.028,0.52
		c-7.088-4.187-14.578-7.32-22.591-9.242c-0.767-0.184-0.24,1.947,0.531,2.133c8.03,1.926,15.471,5.091,22.555,9.313
		c0.512,0.305,0.565-0.361,0.389-1.019c0.116-0.063,0.214-0.241,0.271-0.595c1.285-7.974,0.668-16.11,2.214-24.049
		C350.276,71.269,349.23,69.456,348.922,71.037z"/>
	<path d="M348.138,129.94c0.697,0.121,1.717-1.94,0.872-2.087c-8.808-1.531-17.172-4.24-25.268-8.011
		c-0.468-0.218-1.098,0.583-1.295,1.248c-0.335-0.754-1.958-1.957-1.722-0.691c1.83,9.815,1.242,19.324,0.082,29.183
		c-0.095,0.806,1.734,2.354,1.814,1.676c1.166-9.91,1.729-19.528-0.014-29.388C330.779,125.672,339.258,128.396,348.138,129.94z"/>
	<path d="M348.922,131.997c-1.547,7.945-0.928,16.073-2.214,24.049c-0.024,0.152-0.011,0.333,0.028,0.52
		c-7.088-4.187-14.578-7.32-22.591-9.242c-0.767-0.184-0.24,1.947,0.531,2.133c8.03,1.927,15.471,5.091,22.555,9.313
		c0.512,0.305,0.565-0.361,0.389-1.019c0.116-0.063,0.214-0.241,0.271-0.595c1.285-7.974,0.668-16.11,2.214-24.049
		C350.276,132.229,349.23,130.417,348.922,131.997z"/>
</g>
</svg>
