<?xml version="1.0" encoding="utf-8"?>
<!-- Generator: Adobe Illustrator 23.0.1, SVG Export Plug-In . SVG Version: 6.00 Build 0)  -->
<svg version="1.1" id="Layer_3" xmlns="http://www.w3.org/2000/svg" xmlns:xlink="http://www.w3.org/1999/xlink" x="0px" y="0px"
	 viewBox="0 0 566.93 566.93" enable-background="new 0 0 566.93 566.93" xml:space="preserve">
<g>
	<g>
		<path d="M297.846,36.071c28.157,18.196,58.001,37.142,91.994,41.363c17.598,2.186,35.684,0.649,53.304-0.626
			c17.827-1.29,35.616-3.69,52.312-10.365c4.05-1.619-4.031-6.931-6.808-5.821c-15.544,6.214-32.061,8.771-48.673,10.05
			c-16.87,1.299-34.371,2.927-51.25,1.173c-32.106-3.336-60.103-21.59-86.556-38.686c-1.227-0.793-4.923-2.604-6.259-1.169
			C294.498,33.507,296.607,35.271,297.846,36.071L297.846,36.071z"/>
	</g>
</g>
<g>
	<g>
		<path d="M293.746,32.45c-0.283,20.24-0.567,40.48-0.85,60.72c-0.274,19.583-0.739,39.193,0.471,58.755
			c2.186,35.338,11.31,71.84,31.335,101.512c8.013,11.874,18.456,23.028,31.921,28.617c14.643,6.078,31.562,4.633,45.118-3.564
			c14.815-8.958,25.543-25.215,35.188-39.185c10.653-15.43,18.468-32.251,25.338-49.641c7.86-19.897,16.576-39.965,22.544-60.523
			c5.946-20.477,6.456-42.092,12.919-62.45c0.834-2.627-3.973-10.24-5.164-6.487c-5.337,16.808-6.617,34.425-10.232,51.61
			c-3.648,17.345-10.757,33.759-17.082,50.25c-6.503,16.953-12.673,34.173-21.17,50.261c-8.051,15.243-18.423,29.452-29.486,42.644
			c-10.815,12.895-24.848,22.363-42.24,22.229c-15.286-0.118-28.634-8.178-38.441-19.495
			c-21.746-25.093-31.464-60.874-34.513-93.245c-1.987-21.094-1.443-42.335-1.147-63.489c0.297-21.235,0.594-42.471,0.892-63.706
			c0.028-1.987-0.883-4.817-2.579-6.02C295.168,30.247,293.774,30.4,293.746,32.45L293.746,32.45z"/>
	</g>
</g>
<g>
	<g>
		<path d="M368.441,76.628c-6,8.628-11.589,18.593-21.353,23.457c-10.797,5.379-20.185,0.041-29.034-6.336
			c-2.78-2.004-4.584,8.102-1.765,10.133c9.158,6.6,18.929,11.946,30.217,7.125c11.118-4.748,17.441-15.662,24.035-25.144
			c1.394-2.004,1.829-4.819,1.207-7.191C371.43,77.462,369.893,74.54,368.441,76.628L368.441,76.628z"/>
	</g>
</g>
<g>
	<g>
		<path d="M409.673,97.648c6.572,9.45,12.904,20.463,23.988,25.196c11.33,4.839,20.993-0.362,30.217-7.01
			c2.806-2.022,1.762-12.145-0.87-10.249c-8.791,6.335-18.279,11.811-29.034,6.452c-9.803-4.884-15.374-14.741-21.399-23.405
			c-1.388-1.996-2.99,0.396-3.474,1.747C408.336,92.516,408.325,95.71,409.673,97.648L409.673,97.648z"/>
	</g>
</g>
<g>
	<g>
		<path d="M311.92,129.029c0.357,13.95,6.904,25.125,20.713,29.184c12.362,3.633,28.082,3.918,38.689-4.329
			c3.406-2.648-5.444-5.449-7.816-3.604c-7.771,6.043-18.431,6.577-27.666,3.835c-10.473-3.109-14.194-13.616-14.45-23.63
			C321.301,127.014,311.844,126.04,311.92,129.029L311.92,129.029z"/>
	</g>
</g>
<g>
	<g>
		<path d="M319.892,133.097c6.239-5.954,20.498-2.614,27.396,0.345c4.012,1.721,7.764,4.075,10.999,7.01
			c1.591,1.443,3.64,3.258,4.602,5.25c1.185,2.453,0.591,5.771,0.817,8.456c0.194,2.312,2.696,0.567,3.476-0.218
			c1.563-1.573,2.496-4.146,2.312-6.342c-0.24-2.856,0.33-5.782-0.728-8.527c-0.956-2.478-2.961-4.447-4.845-6.253
			c-3.93-3.768-8.526-6.717-13.605-8.692c-8.505-3.307-22.787-5.576-30.081,1.384c-1.546,1.475-3.274,3.92-3.117,6.189
			C317.232,133.372,318.292,134.624,319.892,133.097L319.892,133.097z"/>
	</g>
</g>
<g>
	<g>
		<path d="M449.173,145.781c-2.657,9.606-8.681,18.913-19.53,19.617c-9.598,0.623-20.025-2.287-26.118-10.047
			c-1.832-2.333-11.167-2.258-8.537,1.091c8.302,10.573,23.313,14.215,36.216,13.87c14.508-0.387,23.679-9.485,27.438-23.076
			C459.463,144.269,450.09,142.466,449.173,145.781L449.173,145.781z"/>
	</g>
</g>
<g>
	<g>
		<path d="M453.357,141.288c-5.805-9.166-22.643-9.471-31.927-7.413c-5.522,1.224-10.926,3.48-15.496,6.845
			c-5.234,3.855-6.096,8.599-8.075,14.417c-0.445,1.308-1.12,4.017,0.875,4.272c1.837,0.236,3.66-3.453,4.082-4.693
			c0.541-1.59,0.7-4.205,1.638-5.557c1.07-1.544,4.049-2.686,5.722-3.494c4.207-2.034,8.745-3.232,13.394-3.649
			c7.335-0.657,20.086,0.226,24.495,7.187C449.729,151.833,455.017,143.909,453.357,141.288L453.357,141.288z"/>
	</g>
</g>
<g>
	<g>
		<path d="M335.987,241.33c3.748-5.48,7.676-11.142,13.611-14.451c6.015-3.353,13.194-4.373,19.898-5.419
			c7.45-1.163,14.564-1.497,20.385,4.053c4.93,4.7,10.483,12.549,11.64,19.312c0.605,3.534,9.175,9.125,8.129,3.009
			c-1.468-8.582-7.792-17.029-13.311-23.552c-5.54-6.547-13.042-11.948-21.852-12.447c-8.296-0.47-18.04,1.4-25.856,4.103
			c-9.098,3.146-14.727,9.608-20.027,17.357C326.282,236.69,334.04,244.177,335.987,241.33L335.987,241.33z"/>
	</g>
</g>
<g>
	<g>
		<path d="M333.048,245.851c10.505-6.392,23.271-5.73,35.112-5.153c12.549,0.611,25.93,2.865,34.599,12.835
			c2.126,2.446,7.06-5.821,5.177-7.987c-8.848-10.177-21.852-12.957-34.777-13.724c-12.87-0.764-26.844-1.454-38.272,5.5
			c-1.856,1.129-3.309,3.545-3.638,5.683C331.08,244.098,331.061,247.06,333.048,245.851L333.048,245.851z"/>
	</g>
</g>
<g>
	<g>
		<path d="M396.54,155.912c-3.654,7.802-12.397,13.769-12.28,23.087c0.096,7.699,6.89,14.877,13.136,18.611
			c7.034,4.205,13.624,2.08,14.383-6.743c0.84-9.766-6.313-18.433-3.9-28.21c0.651-2.638-6.683-8.482-7.288-6.029
			c-1.467,5.946,0.23,11.475,1.967,17.172c1.445,4.741,4.356,14.264-0.926,17.828c-4.362,2.944-9.394-1.823-9.969-6.144
			c-0.464-3.482,1.121-6.894,2.902-9.79c2.932-4.766,6.863-8.629,9.263-13.754C404.876,159.704,397.777,153.271,396.54,155.912
			L396.54,155.912z"/>
	</g>
</g>
<g>
	<g>
		<path d="M77.103,64.341c33.982,8.936,69.972,18.178,105.011,9.537c16.14-3.98,31.832-10.665,47.145-17.054
			c15.403-6.426,30.346-13.985,43.203-24.755c2.694-2.257-5.773-7.278-8.195-5.249c-11.958,10.017-25.73,17.277-40.007,23.404
			c-14.696,6.307-29.867,12.586-45.289,16.868c-34.143,9.48-69.048,0.819-102.354-7.94C70.113,57.441,72.595,63.155,77.103,64.341
			L77.103,64.341z"/>
	</g>
</g>
<g>
	<g>
		<path d="M71.14,62.775c11.531,36.942,21.752,74.663,35.672,110.795c12.532,32.531,31.251,63.656,58.119,86.387
			c11.765,9.954,25.952,18.485,41.614,19.868c15.077,1.331,29.877-4.709,40.301-15.568c11.858-12.353,16.979-30.79,21.951-46.735
			c5.743-18.421,8.393-37.221,9.615-56.435c1.369-21.523,3.241-43.439,2.782-65.01c-0.467-21.974-7.009-43.299-7.215-65.274
			c-0.019-2.003-0.857-4.798-2.579-6.02c-1.367-0.97-2.842-0.86-2.822,1.209c0.168,17.894,4.404,35.26,6.371,52.968
			c2.031,18.287,0.152,36.881-0.761,55.193c-0.93,18.645-1.507,37.461-5.116,55.828c-3.377,17.188-8.868,35.07-16.38,50.924
			c-6.606,13.941-17.9,24.914-33.043,28.96c-15.621,4.173-31.509-1.102-44.622-9.71c-28.069-18.426-48.11-49.431-60.845-79.869
			c-7.507-17.943-13.155-36.582-18.944-55.129c-6.427-20.59-12.854-41.179-19.28-61.768c-0.41-1.314-1.789-4.81-3.637-4.639
			C70.431,58.925,70.731,61.464,71.14,62.775L71.14,62.775z"/>
	</g>
</g>
<g>
	<g>
		<path d="M110.555,137.387c5.483-8.899,10.525-19.119,20.149-24.232c10.303-5.474,19.729-0.66,28.645,5.041
			c2.996,1.916,4.666-8.278,1.765-10.133c-9.748-6.234-20.116-11.052-31.28-5.157c-10.687,5.643-16.378,16.991-22.455,26.854
			C105.714,132.461,107.498,142.348,110.555,137.387L110.555,137.387z"/>
	</g>
</g>
<g>
	<g>
		<path d="M265.89,98.607c-8.946-7.705-17.952-16.838-30.265-18.355c-11.738-1.446-19.797,6.526-26.716,14.842
			c-1.519,1.826-1.792,4.958-1.207,7.191c0.364,1.387,1.722,3.949,3.307,2.045c6.807-8.181,14.221-15.369,25.73-13.266
			c11.009,2.012,19.261,10.679,27.386,17.677C266.553,110.833,268.544,100.893,265.89,98.607L265.89,98.607z"/>
	</g>
</g>
<g>
	<g>
		<path d="M117.636,146.894c4.649,13.055,14.726,21.936,28.964,22.148c12.792,0.191,27.899-4.277,35.353-15.33
			c1.973-2.926-7.168-5.268-8.941-2.64c-5.462,8.1-14.85,11.765-24.278,12.854c-11.614,1.342-18.177-6.756-21.777-16.866
			C125.893,144.074,116.473,143.629,117.636,146.894L117.636,146.894z"/>
	</g>
</g>
<g>
	<g>
		<path d="M127.356,146.475c1.559-2.907,9.35-4.581,12.133-5.167c4.28-0.902,8.725-1.132,13.073-0.638
			c4.396,0.5,8.722,1.776,12.69,3.735c2.204,1.088,4.581,2.305,5.929,4.419c1.218,1.91,1.614,4.526,2.507,6.636
			c1.06,2.507,6.529-4.994,5.294-7.915c-1.226-2.897-1.574-6.024-3.854-8.349c-1.843-1.879-4.497-3.148-6.866-4.2
			c-5.109-2.27-10.767-3.435-16.35-3.53c-10.404-0.177-23.25,3.28-28.48,13.032c-0.606,1.129-1.927,4.516-0.242,5.365
			C124.901,150.724,126.802,147.507,127.356,146.475L127.356,146.475z"/>
	</g>
</g>
<g>
	<g>
		<path d="M253.209,119.444c0.438,9.372-1.808,19.678-10.619,24.623c-8.514,4.777-21.649,6.499-30.058,0.909
			c-1.723-1.146-4.708-1.894-6.696-1.029c-1.653,0.72-2.285,2.106-0.505,3.289c11.268,7.491,26.099,7.335,38.623,3.208
			c13.487-4.444,19.37-15.763,18.725-29.545C262.516,117.415,253.071,116.499,253.209,119.444L253.209,119.444z"/>
	</g>
</g>
<g>
	<g>
		<path d="M256.716,115.59c-4.291-3.539-11.325-3.17-16.532-2.469c-5.889,0.793-11.648,2.838-16.725,5.921
			c-4.811,2.921-9.045,6.69-12.47,11.158c-1.622,2.115-3.126,4.414-3.898,6.994c-1.031,3.448-0.341,6.534-0.381,10.049
			c-0.06,5.279,5.86-1.972,5.892-4.791c0.027-2.335-0.634-5.131,0.467-7.304c0.872-1.722,3.029-3.347,4.469-4.561
			c3.199-2.697,6.871-4.786,10.77-6.292c6.603-2.551,18.007-4.894,24,0.049C254.34,126.018,259.332,117.748,256.716,115.59
			L256.716,115.59z"/>
	</g>
</g>
<g>
	<g>
		<path d="M241.356,210.44c-1.898,6.724-3.912,13.434-8.951,18.533c-4.87,4.928-11.304,8.232-17.42,11.323
			c-7.056,3.566-13.908,5.403-21.463,1.978c-3.43-1.555-6.438-3.799-9.38-6.122c-2.584-2.039-5.805-4.137-7.378-7.109
			c-1.003-1.896-3.343-4.902-5.788-4.819c-2.345,0.08-2.433,2.245-1.49,4.027c4.003,7.565,11.192,12.964,18.118,17.745
			c7.471,5.156,16.441,8.799,25.564,6.292c7.88-2.165,16.633-7.204,23.072-12.177c7.592-5.863,10.795-13.952,13.33-22.928
			C250.589,213.569,242.436,206.612,241.356,210.44L241.356,210.44z"/>
	</g>
</g>
<g>
	<g>
		<path d="M241.981,207.275c-7.568,9.019-20.052,12.262-30.954,15.292c-12.14,3.373-25.145,5.211-36.535-1.435
			c-2.434-1.42-7.003,7.235-4.33,8.794c12.868,7.508,27.686,4.591,41.201,0.601c11.8-3.484,23.53-7.494,31.685-17.212
			c1.064-1.268,3.167-4.601,2.287-6.349C244.448,205.206,243.154,205.876,241.981,207.275L241.981,207.275z"/>
	</g>
</g>
<g>
	<path d="M558.084,566.43c3.2-1.7,4.5-8.2,3.7-13.5c0-19.3,0-38.5,0-57.8c0-32.6,0-65.3,0-97.9c0-7.5,0-14.9,0-22.4
		c0-3-0.9-10.7-5.4-10.7c-20.4,0-40.7,0-61.1,0c-32.6,0-65.3,0-97.9,0c-5.7,0-11.4,0-17.1,0c0-7.8,0-15.6,0-23.4
		c0-10.1,0-20.1,0-30.2c0-3-0.9-10.7-5.4-10.7c-20.4,0-40.7,0-61.1,0c-32.6,0-65.3,0-97.9,0c-7.5,0-14.9,0-22.4,0
		c-4.4,0-5.4,7.8-5.4,10.7c0,17.9,0,35.7,0,53.6c-18.6,0-37.1,0-55.7,0c-32.6,0-65.3,0-97.9,0c-7.5,0-14.9,0-22.4,0
		c-4.4,0-5.4,7.8-5.4,10.7c0,20.4,0,40.7,0,61.1c0,32.6,0,65.3,0,97.9c0,7.5,0,14.9,0,22.4c0,3,0.9,10.7,5.4,10.7
		c20.4,0,40.7,0,61.1,0c32.6,0,65.3,0,97.9,0c7.5,0,14.9,0,22.4,0c13.8,0,27.5,0,41.3,0c6.6,0,13.2,0,19.8,0c9.9,0,19.8,0,29.6,0
		c16.5,0,32.9,0,49.4,0c6.3,0,12.6,0,18.9,0c7.5,0,14.9,0,22.4,0c20.4,0,40.7,0,61.1,0c32.6,0,65.3,0,97.9,0c7.5,0,14.9,0,22.4,0
		c0.5,0,0.9-0.1,1.2-0.2h0.1C557.784,566.63,557.884,566.53,558.084,566.43z M132.384,545.53c-32.6,0-65.3,0-97.9,0
		c-5.7,0-11.4,0-17.1,0c0-16.8,0-33.6,0-50.4c0-32.6,0-65.3,0-97.9c0-3.9,0-7.8,0-11.7c18.6,0,37.1,0,55.7,0c32.6,0,65.3,0,97.9,0
		c5.7,0,11.4,0,17.1,0c0,2.7,0,5.4,0,8.1c0,14.1,0,28.2,0,42.2c0,30.1,0,60.1,0,90.2c0,2.6,0,5.2,0,7.8c0,3.9,0,7.8,0,11.7
		C169.584,545.53,150.984,545.53,132.384,545.53z M240.184,545.53c0-22.9,0-45.8,0-68.6c0-0.2,0-0.4,0-0.7c12.9,0,25.8,0,38.7,0
		c0,22.9,0,45.8,0,68.6c0,0.2,0,0.4,0,0.7C265.984,545.53,253.084,545.53,240.184,545.53z M289.584,545.53c0-22.9,0-45.8,0-68.6
		c0-0.2,0-0.4,0-0.7c12.9,0,25.8,0,38.7,0c0,22.9,0,45.8,0,68.6c0,0.2,0,0.4,0,0.7c-4.8,0-9.6,0-14.4,0
		C305.784,545.53,297.684,545.53,289.584,545.53z M338.984,545.53c0-22.9,0-45.8,0-68.6c0-3.8,0-7.6,0-11.4c0-3-0.9-10.7-5.4-10.7
		c-16.5,0-32.9,0-49.4,0s-32.9,0-49.4,0c-4.4,0-5.4,7.8-5.4,10.7c0,26.4,0,52.9,0,79.3c0,0.2,0,0.4,0,0.7c-4.5,0-9,0-13.5,0
		c-5.7,0-11.4,0-17.1,0c0-16.8,0-33.6,0-50.4c0-7.4,0-14.7,0-22.1c0-25.3,0-50.6,0-75.9c0-7.5,0-14.9,0-22.4c0-11.4,0-22.7,0-34.1
		c0-6.5,0-13,0-19.5c18.6,0,37.1,0,55.7,0c32.6,0,65.3,0,97.9,0c5.7,0,11.4,0,17.1,0c0,17.9,0,35.7,0,53.6c0,6.3,0,12.6,0,18.8
		c0,14.1,0,28.2,0,42.2c0,30.1,0,60.1,0,90.2c0,2.6,0,5.2,0,7.8c0,3.9,0,7.8,0,11.7C359.384,545.53,349.184,545.53,338.984,545.53z
		 M495.284,545.53c-32.6,0-65.3,0-97.9,0c-5.7,0-11.4,0-17.1,0c0-16.8,0-33.6,0-50.4c0-7.4,0-14.7,0-22.1c0-25.3,0-50.6,0-75.9
		c0-3.9,0-7.8,0-11.7c18.6,0,37.1,0,55.7,0c32.6,0,65.3,0,97.9,0c5.7,0,11.4,0,17.1,0c0,16.8,0,33.6,0,50.4c0,32.6,0,65.3,0,97.9
		c0,3.9,0,7.8,0,11.7C532.384,545.53,513.884,545.53,495.284,545.53z"/>
	<path d="M80.884,433.33c0-3-0.9-10.7-5.4-10.7c-12.5,0-25,0-37.5,0c-4.4,0-5.4,7.8-5.4,10.7c0,18.6,0,37.2,0,55.8
		c0,3,0.9,10.7,5.4,10.7c12.5,0,25,0,37.5,0c0.5,0,0.9-0.1,1.2-0.2h0.1c0.1-0.1,0.2-0.1,0.4-0.2c3.2-1.7,4.5-8.2,3.7-13.5
		C80.884,468.33,80.884,450.83,80.884,433.33z M70.184,478.43c-8.9,0-17.9,0-26.8,0c0-11.5,0-22.9,0-34.4c8.9,0,17.9,0,26.8,0
		C70.184,455.53,70.184,466.93,70.184,478.43z"/>
	<path d="M164.484,433.33c0-3-0.9-10.7-5.4-10.7c-12.5,0-25,0-37.5,0c-4.4,0-5.4,7.8-5.4,10.7c0,18.6,0,37.2,0,55.8
		c0,3,0.9,10.7,5.4,10.7c12.5,0,25,0,37.5,0c0.5,0,0.9-0.1,1.2-0.2h0.1c0.1-0.1,0.2-0.1,0.4-0.2c3.2-1.7,4.5-8.2,3.7-13.5
		C164.484,468.33,164.484,450.83,164.484,433.33z M153.784,478.43c-8.9,0-17.9,0-26.8,0c0-11.5,0-22.9,0-34.4c8.9,0,17.9,0,26.8,0
		C153.784,455.53,153.784,466.93,153.784,478.43z"/>
	<path d="M447.984,433.33c0-3-0.9-10.7-5.4-10.7c-12.5,0-25,0-37.5,0c-4.4,0-5.4,7.8-5.4,10.7c0,18.6,0,37.2,0,55.8
		c0,3,0.9,10.7,5.4,10.7c12.5,0,25,0,37.5,0c0.5,0,0.9-0.1,1.2-0.2h0.1c0.1-0.1,0.2-0.1,0.4-0.2c3.2-1.7,4.5-8.2,3.7-13.5
		C447.984,468.33,447.984,450.83,447.984,433.33z M437.284,478.43c-8.9,0-17.9,0-26.8,0c0-11.5,0-22.9,0-34.4c8.9,0,17.9,0,26.8,0
		C437.284,455.53,437.284,466.93,437.284,478.43z"/>
	<path d="M531.484,433.33c0-3-0.9-10.7-5.4-10.7c-12.5,0-25,0-37.5,0c-4.4,0-5.4,7.8-5.4,10.7c0,18.6,0,37.2,0,55.8
		c0,3,0.9,10.7,5.4,10.7c12.5,0,25,0,37.5,0c0.5,0,0.9-0.1,1.2-0.2h0.1c0.1-0.1,0.2-0.1,0.4-0.2c3.2-1.7,4.5-8.2,3.7-13.5
		C531.484,468.33,531.484,450.83,531.484,433.33z M520.784,478.43c-8.9,0-17.9,0-26.8,0c0-11.5,0-22.9,0-34.4c8.9,0,17.9,0,26.8,0
		C520.784,455.53,520.784,466.93,520.784,478.43z"/>
</g>
</svg>
