<?xml version="1.0" encoding="utf-8"?>
<!-- Generator: Adobe Illustrator 23.0.1, SVG Export Plug-In . SVG Version: 6.00 Build 0)  -->
<svg version="1.1" id="Layer_3" xmlns="http://www.w3.org/2000/svg" xmlns:xlink="http://www.w3.org/1999/xlink" x="0px" y="0px"
	 viewBox="0 0 566.9 566.9" style="enable-background:new 0 0 566.9 566.9;" xml:space="preserve">
<path d="M488,209c2.3-38.8,2.5-76-7.2-113.6c-3.9-15.1-9.4-31.6-21-42.6c-12.2-11.6-28.4-14.6-44.7-15.3c-38.3-1.7-76.7-1.6-115-1.6
	c-39.2,0-78.3,0.5-117.5,1.6c-9.6,0.3-19.2,0.6-28.9,0.9c-2.3,0.1-25.4,7.8-34.4,12.5C105.1,58.3,97,71.3,93.5,86.6
	c-8.5,36.9-14,73.7-13.4,111.6c0.3,18.4,1.4,36.9,0,55.3C79,270,76,288.3,73.8,305.5c-4.5,35.7-6.6,75.1,9.1,108.7
	c1.9,4,4.4,7.9,8.1,10.6c3.5,2.5,8,3.3,12.1,4.2c8.8,1.8,17.6,3.4,26.5,4.9c9.7,1.6,24.5,3,34.2,4.2c-0.8,4.5,0.8,20.6,0.7,21.2
	c-0.2,3.1-0.5,6.2-0.5,9.3c-2.8,27.3,30.9,29.4,46.1,30.6c38.9,3,78.1,3,117.1,4.2c19.3,0.6,38.6,1.2,57.9,1.8
	c18.3,0.6,36.9,2.1,55.2,1.4c42.3,0.2,40.1-47.7,41.3-66c2.5-38.6,2.9-76.8,1.2-115.4c-0.8-19.1-1.4-38.2-0.2-57.3
	C483.6,249.9,486.9,227.8,488,209z M159.6,457.7C159.6,458.7,159.6,458.2,159.6,457.7L159.6,457.7z M473,399
	c-0.6,17.4-1.7,35.6-2.9,52.4c-0.3,4-0.5,8.1-0.9,12.1c-0.2,1.6-0.3,3.1-0.6,4.7c-0.1,0.9-0.3,1.7-0.4,2.6c-0.1,0.2-0.3,1-0.4,1.3
	c-1.6,4.9-4.8,9.1-10.5,11.8c-13.1,6.2-30.4,3.4-44.3,2.9c-18.3-0.6-36.6-1.1-54.9-1.7c-37.3-1.1-74.6-2.3-111.8-3.4
	c-17.9-0.6-35.9-1.1-53.8-3.5c-5.6-0.7-12.7-1.6-16.8-5.9c-0.2-0.2-1.2-1.7-1.2-1.8c0-1.1,0-2.3,0-3.4c0-0.3,0-0.6,0-0.8
	c0.1-0.9,0.1-1.7,0.2-2.6c0.6-8.1,0.7-16.1-0.8-24c3,0.3,6,0.6,9,0.9c36,3.3,72.3,3.8,108.5,1.7c17.9-1.1,35.8-2.8,53.6-5.2
	c8.9-1.2,17.8-2.6,26.6-4.1c3.9-0.7,8.1-0.9,10.9-4c3.6-3.9,4.4-9.7,5.2-14.7c3-18.3,5.8-36.6,8.7-54.8c1.5-9.7,2.9-19.4,3-29.3
	c0.1-9.4-1.4-18.6-3.2-27.8c-3.1-15.9-2.6-29-0.7-44.8c2.1-16.6,5.1-33,6.4-49.7c1.4-19.4,0-37.9-4.4-56.9c-0.8-3.3-1.4-6-1.8-9.6
	c0-0.2-0.2-1.8-0.3-2.4c0-0.4,0-1,0-1c0,0,0-0.5,0-0.9c0.1-0.5,0.2-1.6,0.3-2.2c0.1-0.2,0.5-1.5,0.5-1.6c0.4-1,0.9-1.9,1.5-2.7
	c1.8-2.5,4.2-4.2,7.1-5.1c4.5-1.5,10.1-1,13.2,2.7c4.6,5.4,9.3-1.1,10.6-5.6c1.9-6.4,1.8-15.8-2.8-21.2c-6.4-7.5-16.1-9.2-25.2-5.8
	c-9.9,3.7-15.8,14.2-18.4,23.9c-3.4,12.5-2.6,25.5,0,38.1c1.2,6,2.9,12.1,3.8,17.6c1,6.4,1.2,8.9,1.2,15.2c0,2.4,0,4.7-0.1,7.1
	c-0.1,3.5-0.1,2.9-0.4,6.5c-0.5,5.9-1.3,11.8-2.1,17.7c-1.6,11.5-3.5,23-4.7,34.6c-1.3,13.1-1.8,26.1-0.7,39.2
	c0.5,5.4,1.3,10.7,2.4,16c1,5.3,2.4,11.6,2.5,15.8c0.2,12.2-2.9,26.4-4.9,39.5c-1.1,7.2-2.3,14.4-3.4,21.5c-0.5,3.3-1,6.5-1.5,9.8
	c-0.2,1.3-0.4,2.6-0.6,3.9c-3,0.7-8.6,1.1-10.3,1.4c-6,1-12,1.8-18.1,2.7c-10.8,1.4-21.6,2.7-32.5,3.6c-22.7,2-45.4,2.9-68.1,2.8
	c-44.8-0.3-89.7-4.6-133.7-13.2c-4.3-0.8-10.4-1.1-14.2-3.7c-3-2.1-4.1-7-5.1-10.3c-2.8-8.5-4.5-19.2-5-26.7c-1.2-22,2-42,5-64.3
	c3.2-23.3,5.2-46.4,4.9-69.9c-0.3-22-1.6-44.5,0.7-65.7c1.4-12.6,3.6-25.2,6.1-37.6c1.2-6,2.5-12.6,3.7-18.1c0.7-3.1,2-8.3,3.6-11
	c9.2-15.1,31.5-18.2,47.4-20.4c1.8-0.2,146.7-5.3,218-4c17.1,0.3,34.6-0.4,51.6,1.9c13.6,1.8,25.8,7.7,32.5,20.2
	c6.6,12.2,9.6,27.6,12.2,41.9c3.1,17.2,4.9,34.1,5.2,50.8c0.7,35.7-5.8,70.8-6,106.9C471,325.9,474.3,362.3,473,399z"/>
<g>
	<path d="M89,136c-16.3,0-32.7,0-49,0c-10.7,0-10.8,31,0,31c16.3,0,32.7,0,49,0C99.8,167,99.8,136,89,136z"/>
	<path d="M551.7,139.6c-0.1-4.3-1.3-15.6-7.8-15.5c-47.5,1.1-94.9,1.7-142.4,1.9c-10.8,0-10.8,31,0,31c47.5-0.2,94.9-0.8,142.4-1.9
		C550.3,154.9,551.8,144.2,551.7,139.6z"/>
</g>
</svg>
