<?xml version="1.0" encoding="utf-8"?>
<!-- Generator: Adobe Illustrator 23.0.1, SVG Export Plug-In . SVG Version: 6.00 Build 0)  -->
<svg version="1.1" id="Layer_5" xmlns="http://www.w3.org/2000/svg" xmlns:xlink="http://www.w3.org/1999/xlink" x="0px" y="0px"
	 viewBox="0 0 566.93 566.93" enable-background="new 0 0 566.93 566.93" xml:space="preserve">
<g>
	<path d="M397.301,242.402c-9.964,0-9.964,0-22.629,0c0.263-10.378,0-34.356,0-37.963s-12.32-3.766-12.32,0
		c0,3.766,0,37.963,0,37.963s-14.92-0.018-23.913,0c-4.36-0.615-4.911,14.157,0,14.157s23.913,0,23.913,0s-0.904,38.9,0,56.67
		c0.112,2.196,12.424,2.052,12.32,0c-0.867-17.039,0-56.67,0-56.67s10.002,0.478,22.629,0
		C402.039,256.38,401.943,242.227,397.301,242.402z"/>
	<path d="M634.709,469.224c-5.574-4.963-14.406-7.716-21.804-7.537c-18.28,0.442-36.563,0.79-54.846,1.092V355.594
		c1.18,2.17,2.358,4.341,3.536,6.51c2.265,4.168,6.793,7.202,11.275,8.573c2.129,0.651,8.467,1.131,6.172-3.094
		c-10.064-18.523-20.118-37.118-31.702-54.749c-5.187-7.894-10.712-15.573-16.792-22.807c-6.004-7.143-11.897-13.939-15.637-22.599
		c-1.821-4.215-7.07-7.286-11.275-8.573c-0.668-0.204-1.561-0.381-2.472-0.451c-2.091-0.746-4.188-0.867-4.72,0.34
		c-2.292,5.197-5.355,9.839-8.667,14.344c-0.51-1.028-1.289-1.991-1.916-2.651c-0.072-0.076-0.203-0.202-0.368-0.35
		c-0.074-0.521-0.364-0.885-0.947-0.978c-0.134-0.021-0.268-0.03-0.402-0.046c-0.742-0.452-1.502-0.693-1.821-0.097
		c-1.723,0.006-3.443,0.201-5.167-0.034c-2.45-0.334-4.617-0.495-7.099-0.249c-0.902,0.089-1.719,0.484-2.445,1.033
		c-0.173-0.144-0.362-0.262-0.577-0.33c-2.213-0.703-2.954,2.157-3.226,3.786c-1.763,10.548-3.814,20.827-1.42,31.441
		c0.178,0.789,0.546,1.515,1.035,1.986c-3.603,5.376-7.106,10.818-10.507,16.323c-2.291-2.297-4.395-4.759-6.034-7.603
		c-2.388-4.144-6.719-7.179-11.275-8.572c-0.941-0.288-2.84-0.539-4.379-0.319c-1.144-0.251-2.103-0.132-2.512,0.578
		c-2.483,4.31-5.596,7.926-9.023,11.316c0.285-1.181,0.197-1.896-0.326-2.065c-0.355-7.838-0.813-15.669-1.125-23.526
		c-0.577-14.547,0.984-28.863,2.875-43.203c0.027,0.048,0.054,0.097,0.081,0.145c0.015,1.221,6.351,7.736,8.94,9.984
		c1.114,0.968,2.192-9.919,1.062-10.9c-2.087-1.813-50.284-69.855-60.547-80.267c-0.574-0.582-1.032-0.613-1.604,0
		c-5.272,5.646-69.103,89.922-70.556,91.172c-1.13,0.972,3.297,7.368,4.42,6.401c2.638-2.27,10.321-12.618,10.912-13.168
		c0.456,2.14,0.015,27.868-0.563,60.902c-1.058,0.982-2.131,1.956-3.224,2.928c-2.914,2.591-5.737,5.264-8.488,8.009
		c-5.258-8.589-10.729-17.045-16.477-25.319c-4.732-6.811-9.628-13.508-14.686-20.081c-5.163-6.709-10.331-13.268-13.771-21.069
		c-1.761-3.994-8.338-6.394-12.275-7.079c-2.786-0.484-6.825-0.293-6.015,2.947c-3.666,8.075-8.95,14.78-14.68,21.515
		c-6.228,7.319-11.939,15.028-17.259,23.029c-5.677,8.539-10.957,17.328-16.046,26.231c-1.146-1.245-2.305-2.478-3.482-3.692
		c2.264-10.48,0.237-20.654-1.506-31.076c-0.12-0.72-0.331-1.652-0.708-2.424c0.301-1.112,0.135-1.964-0.799-2.057
		c-2.574-0.255-4.838-0.055-7.377,0.255c-2.607,0.318-5.187-0.175-7.804,0.241c-0.606,0.096-1.308,0.591-1.989,1.275
		c-0.518-0.546-1.083-1.018-1.669-1.341c-1.498-0.825-2.439-0.258-1.991,1.5c0.405,1.588,0.647,3.178,0.832,4.77
		c-0.078,0.483-0.045,0.891,0.133,1.177c0.069,0.699,0.13,1.398,0.189,2.097c-2.02-1.506-4.336-2.65-6.62-3.349
		c-0.882-0.27-2.443-0.503-3.834-0.404c-1.399-0.429-2.615-0.398-3.057,0.432c-3.772,7.085-9.159,12.592-14.893,18.092
		c-6.156,5.906-11.904,12.164-17.304,18.769c-6.742,8.247-12.988,16.878-19.033,25.649c-1.788-1.466-3.593-2.911-5.437-4.303
		c-5.351-4.04-11.185-7.46-15.13-13.002c-2.656-3.732-7.893-6.988-12.47-7.506c-1.554-0.176-2.733,0.074-3.45,0.644
		c-0.562,0.046-1.022,0.25-1.312,0.658c-4.439,6.237-10.535,10.356-16.603,14.847c-0.311,0.23-0.612,0.473-0.921,0.705
		c0.203-2.229,0.464-4.458,1.032-6.687c0.295-1.158-0.308-2.484-1.079-3.604c1.635-2.191,2.544-4.958,0.771-5.241
		c-2.468-0.393-4.924,0.159-7.39-0.178c-2.45-0.334-4.617-0.495-7.099-0.249c-0.902,0.089-1.719,0.484-2.445,1.033
		c-0.173-0.144-0.362-0.262-0.577-0.33c-2.213-0.703-2.954,2.157-3.226,3.786c-1.71,10.228-3.677,20.203-1.613,30.477
		c-8.702,8.683-16.852,17.915-24.981,27.13c-1.728,1.959,6.619,7.8,8.818,5.308c3.609-4.091,7.223-8.186,10.885-12.237v71.664
		c0,0.933,0.221,1.829,0.582,2.684c-10.86,0.307-21.715,0.687-32.556,1.214c-0.551,0.027-1.104,0.036-1.656,0.055
		c-6.274,0.212-7.535,4.699-3.015,8.723c5.531,4.924,14.442,7.786,21.804,7.537c28.72-0.971,57.451-1.682,86.18-2.289
		c53.463-1.13,106.969-1.935,160.441-1.069c6.002,0.097,12.004,0.22,18.005,0.38c1.349,0.036,2.698,0.074,4.047,0.113
		c0.296,0.009,2.014,0.062,2.809,0.086c0.496,0.017,1.041,0.035,1.109,0.038c0.638,0.023,1.277,0.046,1.915,0.069
		c1.409,0.052,2.818,0.107,4.227,0.166c9.26,0.382,18.498,0.968,27.738,1.675c21.495,1.644,43.09,2.155,64.638,2.575
		c52.875,1.029,105.78,0.652,158.657,0.001c32.644-0.402,65.387-0.392,98.012-1.706c0.518-0.021,1.037-0.024,1.555-0.037
		C637.998,477.794,639.193,473.216,634.709,469.224z M172.288,293.829c2.348-0.299,4.436-0.479,6.821-0.243
		c0.386,0.038,0.804-0.07,1.23-0.278c1.247,7.313,3.56,15.458,1.901,22.818c-0.027,0.12-0.051,0.262-0.078,0.392
		c-4.188-4.037-8.406-7.967-11.614-12.802c-0.126-1.806-0.115-3.596-0.286-5.453c-0.135-1.472-0.418-2.927-0.749-4.37
		C170.438,293.93,171.364,293.947,172.288,293.829z M29.081,338.736c1.186,0.049,2.367,0.172,3.622,0.343
		c1.846,0.252,3.687,0.007,5.531,0.032c-0.366,3.433-0.475,6.862-1.201,10.297c-0.182,0.859,0.076,1.778,0.514,2.641
		c-2.909,2.417-5.751,4.915-8.522,7.49c-0.619,0.575-1.224,1.166-1.837,1.748C25.576,354.021,27.832,345.964,29.081,338.736z
		 M106.228,455.39H33.152v-64.009h73.076V455.39z M106.228,374.406v4.16H24.122c4.436-4.708,8.977-9.314,13.719-13.719
		c5.613-5.214,11.528-10.01,17.727-14.505c4.273-3.098,8.396-6.222,11.902-10.064c8.544,9.232,19.975,15.654,29.206,24.166
		c3.315,3.057,6.527,6.217,9.679,9.437C106.32,374.058,106.283,374.235,106.228,374.406z M196.019,457.771h-73.076v-65.943
		c1.975,2.224,3.945,4.452,5.911,6.68c2.633,2.984,8.683,6.7,12.853,5.952c4.536-0.814,1.731-4.765-0.155-6.902
		c-6.362-7.212-12.732-14.439-19.372-21.404v-7.262h73.839V457.771z M198.773,356.078h-87.714
		c5.172-7.375,10.518-14.623,16.22-21.598c5.399-6.604,11.148-12.864,17.304-18.769c4.22-4.048,8.246-8.105,11.584-12.785
		c8.054,10.98,19.115,19.673,27.778,30.198c6.177,7.505,11.934,15.336,17.498,23.306
		C200.511,356.208,199.604,356.078,198.773,356.078z M468.797,276.514c1.186,0.049,2.367,0.172,3.622,0.343
		c2.466,0.337,4.922-0.215,7.39,0.178c0.404,0.064,0.849-0.048,1.305-0.268c-0.168,1.965-0.319,3.929-0.605,5.894
		c-4.291,5.658-8.47,11.4-12.521,17.232c-0.259,0.373-0.509,0.753-0.767,1.128c-0.073-0.705-0.184-1.359-0.302-1.88
		C465.275,291.855,467.544,283.767,468.797,276.514z M299.456,357.836c3.446-4.367,6.976-8.667,10.655-12.844
		c2.696-3.061,5.473-6.042,8.337-8.935c0.422-0.07,0.842-0.153,1.265-0.221c0.006-0.346,0.012-0.691,0.018-1.037
		c2.396-2.376,4.839-4.704,7.366-6.95c3.551-3.156,6.981-6.284,10.017-9.784c6.773,6.828,14.306,13.029,20.73,20.18
		c6.42,7.145,12.368,14.704,18.121,22.413c-0.229-0.016-0.459-0.036-0.679-0.036h-75.83V357.836z M274.106,387.613v0.154
		c0.236-0.03,0.478-0.052,0.734-0.052c0.456,0,0.875,0.055,1.266,0.148v-0.256c0.923-0.154,1.686-0.546,2.193-1.249
		c1.479-2.056,2.959-4.113,4.443-6.169v77.005c0,0.195,0.031,0.385,0.049,0.578h-70.819v-85.868c1.492,2.233,2.982,4.467,4.47,6.7
		c0.578,0.868,1.32,1.705,2.165,2.489v0.303c1.013,0.269,1.802,0.829,2.366,1.554c2.478,1.671,5.369,2.869,7.939,3.16
		c4.039,0.458,5.363-1.785,3.11-5.166c-2.088-3.133-4.179-6.268-6.279-9.397c-0.711-0.615-1.194-1.435-1.449-2.332h-0.117
		c-4.711-6.987-9.504-13.92-14.511-20.694v-2.665H282.9c-6.066,7.613-11.836,15.465-17.535,23.359h-0.292
		c-0.237,0.831-0.666,1.598-1.293,2.195c-1.04,1.444-2.079,2.888-3.117,4.331C258.098,379.308,267.849,386.803,274.106,387.613z
		 M286.257,333.041h-76.858c4.65-8.053,9.473-16.003,14.623-23.748c5.18-7.79,10.719-15.327,16.775-22.46
		c3.568-4.202,6.99-8.378,9.983-12.858c0.536,0.697,1.073,1.394,1.611,2.093c5.058,6.572,9.954,13.27,14.686,20.081
		c8.542,12.294,16.523,24.963,24.003,37.927C289.411,333.418,287.723,333.041,286.257,333.041z M378.288,454.562
		c-1.87,0.187-3.78,0.12-5.756,0.081v0.208h-73.076v-81.413h71.786c-2.227,3.071-4.443,6.15-6.656,9.228
		c-1.657,2.303,6.962,7.888,8.818,5.308c1.626-2.26,3.254-4.521,4.885-6.78V454.562z M374.344,341.602
		c-5.458-6.268-11.13-12.34-17.297-17.921c-5.117-4.631-10.723-8.977-14.345-14.954c-1.076-5.489-15.253-13.253-17.907-8.647
		c-0.034,0.059-0.072,0.113-0.107,0.172c-0.054,0.073-0.104,0.148-0.143,0.23c-1.301,2.2-2.762,4.224-4.348,6.128
		c0.487-31.125,0.765-56.053,0.51-61.156c2.584-2.926,4.854-6.208,7.005-9.598c4.226-6.662,8.372-13.167,13.375-19.149
		c5.174-6.185,10.49-12.15,15.131-18.863c4.324-6.254,8.411-12.711,13.435-18.295c9.2,11.151,41.473,59.542,45.94,65.252
		c-1.824,13.542-3.579,27.159-3.528,40.884c0.048,12.75,1.22,25.466,1.621,38.212c-6.117,5.459-11.869,11.248-17.289,17.403
		c-3.867,4.391-7.572,8.915-11.184,13.513C381.696,350.326,378.092,345.906,374.344,341.602z M470.303,459.042h-75.667v-81.413
		h75.667V459.042z M473.124,364.814h-80.281c-0.402-0.54-0.806-1.077-1.209-1.616c4.364-5.662,8.854-11.224,13.581-16.59
		c5.328-6.049,10.962-11.787,16.986-17.142c4.414-3.924,8.649-7.797,12.16-12.406c4.101,5.217,8.906,9.846,13.8,14.407
		c0.393,0.421,0.791,0.836,1.197,1.243c0.066,0.013,0.132,0.039,0.198,0.056c4.397,4.082,8.814,8.153,12.802,12.591
		c6.06,6.745,11.701,13.857,17.154,21.117C477.355,365.425,475.053,364.814,473.124,364.814z M542.107,461.962H486.65v-85.797
		c2.631,3.631,5.24,7.274,7.851,10.905c2.68,3.726,7.877,6.986,12.47,7.506c3.91,0.443,5.528-1.803,3.11-5.166
		c-9.644-13.408-19.312-26.832-30.088-39.364h62.115V461.962z M544.86,337.232h-76.623c-2.173-2.198-4.381-4.362-6.677-6.439
		c-0.324-0.293-0.654-0.583-0.981-0.874c5.358-8.782,10.956-17.416,16.828-25.867c4.732-6.811,9.628-13.508,14.686-20.081
		c3.427-4.453,6.845-8.849,9.769-13.577c3.098,5.107,6.75,9.828,10.686,14.447c6.176,7.248,11.924,14.788,17.242,22.689
		c6.593,9.795,12.62,19.947,18.421,30.23C547.041,337.421,545.895,337.232,544.86,337.232z"/>
	<path d="M169.662,277.168c-2.322,1.596,6.463,6.642,9.048,4.865c3.844-2.642,3.862-7.199,1.829-11.057
		c-2.749-5.217-9.357-8.757-7.924-15.488c1.339-6.293,7.034-8.906,10.488-13.688c3.438-4.76-0.793-8.627-3.262-12.7
		c-1.442-2.379-11.284-4.795-9.27-1.472c1.218,2.009,3.635,4.202,3.967,6.585c0.414,2.972-2.767,5.007-4.622,6.831
		c-3.387,3.33-6.798,7.029-7.364,11.961c-0.485,4.227,1.684,7.569,4.259,10.678C169.705,267.177,175.317,273.282,169.662,277.168z"
		/>
	<path d="M476.687,237.821c-0.404,5.941-6.443,8.949-8.657,14.077c-1.958,4.533-0.085,8.733,3.794,11.399
		c1.569,1.078,5.037,2.928,6.998,2.023c1.954-0.903,0.727-2.399-0.685-3.37c-4.453-3.06,3.038-10.75,4.796-12.873
		c2.912-3.514,4.587-7.315,3.251-11.885c-1.254-4.289-4.319-7.6-7.432-10.661c-2.149-2.113-4.801-3.897-3.738-7.267
		c0.679-2.153,2.696-3.979,3.854-5.89c1.346-2.221-8.117-6.779-9.817-3.975c-2.653,4.377-6.487,8.112-2.491,12.958
		C470.481,227.113,477.168,230.755,476.687,237.821z"/>
	<path d="M36.971,300.043c-0.404,5.941-6.443,8.949-8.657,14.077c-1.958,4.533-0.085,8.733,3.794,11.399
		c1.569,1.078,5.037,2.928,6.998,2.023c1.954-0.903,0.727-2.399-0.685-3.37c-4.453-3.06,3.038-10.75,4.796-12.873
		c2.912-3.514,4.587-7.315,3.251-11.885c-1.254-4.289-4.319-7.6-7.432-10.661c-2.149-2.113-4.801-3.897-3.738-7.267
		c0.679-2.153,2.696-3.979,3.854-5.89c1.346-2.221-8.117-6.779-9.817-3.975c-2.653,4.377-6.487,8.112-2.491,12.958
		C30.764,289.335,37.451,292.977,36.971,300.043z"/>
	<path d="M89.589,395.782c-9.054-0.142-18.018,0.73-27.056,0.22c-0.39-0.022-0.849,0.261-1.259,0.664
		c-0.944-0.201-1.947-0.088-1.96,0.616c-0.253,13.147-0.506,26.295-0.76,39.442c-0.004,0.199,0.13,0.384,0.334,0.551
		c-0.152,0.867,0.044,1.796,0.614,1.743c5.181-0.478,10.296-0.817,15.491-0.279c4.871,0.504,9.513,1.322,14.412,0.621
		c0.159-0.023,0.299-0.118,0.42-0.252c1.005,1.343,2.937,0.633,3.019-2.265c0.373-13.226,1.357-26.583-0.057-39.781
		c-0.105-0.985-0.647-2.789-2.15-2.366C90.138,394.836,89.807,395.257,89.589,395.782z M73.808,418.216
		c0.693-0.015,1.386-0.043,2.077-0.079c-0.222,5.798-1.517,11.514-1.571,17.321c-0.098-0.008-0.195-0.018-0.293-0.026
		c-3.96-0.322-7.892-0.114-11.831,0.217c0.118-6.118,0.236-12.237,0.353-18.355C66.268,417.869,70.001,418.301,73.808,418.216z
		 M89.242,436.269c-4.494,0.615-8.837-0.162-13.267-0.648c0.154-5.792,1.453-11.499,1.584-17.294c0.002-0.097,0-0.195,0.002-0.292
		c4.101-0.279,8.183-0.757,12.31-0.749c0.003,0,0.006-0.002,0.009-0.002C89.763,423.622,89.428,429.964,89.242,436.269z
		 M89.278,399.128c0.586,5.676,0.701,11.388,0.618,17.107c-4.13,0.06-8.213,0.537-12.328,0.787
		c0.025-5.675-0.543-11.328,0.07-16.999c0.028-0.259-0.283-0.635-0.642-0.894H89.278z M76,399.128c0,0.003-0.002,0.005-0.002,0.008
		c-0.648,5.994,0.028,11.966-0.077,17.967c-4.523,0.173-8.929-0.353-13.353-1.058c0.108-5.627,0.217-11.254,0.325-16.882
		c3.341,0.106,6.674,0.06,10.008-0.036H76z"/>
	<path d="M148.098,385.944c-0.142,9.054,0.73,18.018,0.22,27.056c-0.022,0.39,0.261,0.849,0.664,1.259
		c-0.201,0.944-0.088,1.947,0.616,1.96c13.147,0.253,26.295,0.506,39.442,0.76c0.199,0.004,0.384-0.13,0.551-0.334
		c0.867,0.152,1.796-0.044,1.743-0.614c-0.478-5.181-0.817-10.297-0.279-15.491c0.504-4.871,1.322-9.513,0.621-14.412
		c-0.023-0.159-0.118-0.299-0.252-0.42c1.343-1.005,0.633-2.937-2.265-3.019c-13.226-0.373-26.583-1.357-39.781,0.057
		c-0.985,0.105-2.789,0.647-2.366,2.15C147.152,385.395,147.573,385.726,148.098,385.944z M170.532,401.725
		c-0.015-0.693-0.043-1.386-0.079-2.077c5.798,0.222,11.514,1.517,17.321,1.571c-0.008,0.098-0.018,0.195-0.026,0.293
		c-0.322,3.96-0.114,7.892,0.217,11.831c-6.118-0.118-12.237-0.236-18.355-0.353C170.185,409.265,170.617,405.532,170.532,401.725z
		 M188.585,386.291c0.615,4.494-0.162,8.837-0.648,13.267c-5.792-0.154-11.499-1.453-17.294-1.584c-0.097-0.002-0.195,0-0.292-0.002
		c-0.279-4.101-0.757-8.183-0.749-12.31c0-0.003-0.002-0.006-0.002-0.009C175.938,385.771,182.28,386.106,188.585,386.291z
		 M151.444,386.255c5.676-0.586,11.388-0.701,17.107-0.618c0.06,4.13,0.537,8.213,0.787,12.328
		c-5.675-0.025-11.328,0.543-16.999-0.07c-0.259-0.028-0.635,0.283-0.894,0.642V386.255z M151.444,399.534
		c0.003,0,0.005,0.002,0.008,0.002c5.994,0.648,11.966-0.028,17.967,0.077c0.173,4.523-0.353,8.929-1.058,13.353
		c-5.627-0.108-11.254-0.217-16.882-0.325c0.106-3.341,0.06-6.674-0.036-10.008V399.534z"/>
	<path d="M226.501,372.429c-0.147,9.329,0.753,18.566,0.227,27.879c-0.023,0.402,0.27,0.875,0.685,1.297
		c-0.208,0.973-0.09,2.006,0.636,2.02c13.576,0.261,27.153,0.522,40.729,0.783c0.205,0.004,0.397-0.134,0.569-0.344
		c0.895,0.156,1.854-0.045,1.8-0.633c-0.493-5.339-0.844-10.61-0.288-15.962c0.521-5.019,1.365-9.803,0.641-14.851
		c-0.024-0.164-0.122-0.308-0.261-0.433c1.387-1.036,0.654-3.026-2.339-3.11c-13.657-0.385-27.45-1.398-41.079,0.059
		c-1.017,0.109-2.88,0.666-2.444,2.215C225.523,371.863,225.958,372.204,226.501,372.429z M249.666,388.69
		c-0.016-0.714-0.045-1.428-0.081-2.14c5.987,0.229,11.889,1.564,17.886,1.619c-0.009,0.101-0.019,0.201-0.027,0.302
		c-0.333,4.081-0.118,8.132,0.224,12.19c-6.318-0.121-12.636-0.243-18.954-0.364C249.307,396.459,249.753,392.613,249.666,388.69z
		 M268.308,372.786c0.635,4.631-0.168,9.106-0.669,13.67c-5.981-0.159-11.874-1.497-17.859-1.632c-0.101-0.002-0.201,0-0.302-0.002
		c-0.288-4.226-0.782-8.432-0.773-12.685c0-0.003-0.002-0.007-0.002-0.009C255.249,372.25,261.798,372.595,268.308,372.786z
		 M229.956,372.749c5.861-0.604,11.76-0.722,17.665-0.637c0.062,4.256,0.555,8.462,0.812,12.703
		c-5.86-0.026-11.698,0.56-17.554-0.072c-0.267-0.029-0.655,0.292-0.923,0.662V372.749z M229.956,386.432
		c0.003,0,0.005,0.002,0.009,0.002c6.19,0.668,12.356-0.029,18.553,0.079c0.179,4.661-0.364,9.2-1.092,13.759
		c-5.811-0.112-11.622-0.223-17.432-0.335c0.109-3.442,0.062-6.877-0.037-10.312V386.432z"/>
	<path d="M323.829,380.343c-6.042-0.095-12.024,0.487-18.054,0.147c-0.26-0.015-0.567,0.174-0.84,0.443
		c-0.63-0.134-1.299-0.058-1.308,0.411c-0.169,8.773-0.338,17.547-0.507,26.32c-0.003,0.133,0.087,0.256,0.223,0.367
		c-0.101,0.578,0.029,1.198,0.41,1.163c3.457-0.319,6.871-0.545,10.337-0.186c3.25,0.337,6.348,0.882,9.617,0.414
		c0.106-0.015,0.199-0.079,0.28-0.168c0.671,0.896,1.96,0.423,2.014-1.511c0.249-8.825,0.905-17.739-0.038-26.546
		c-0.07-0.657-0.432-1.861-1.434-1.579C324.195,379.711,323.975,379.992,323.829,380.343z M313.299,395.312
		c0.463-0.01,0.925-0.029,1.386-0.053c-0.148,3.869-1.013,7.683-1.048,11.559c-0.065-0.006-0.13-0.012-0.196-0.018
		c-2.643-0.215-5.267-0.076-7.894,0.145c0.079-4.083,0.157-8.166,0.236-12.249C308.267,395.081,310.758,395.369,313.299,395.312z
		 M323.597,407.359c-2.999,0.41-5.897-0.108-8.853-0.432c0.103-3.865,0.969-7.673,1.057-11.541c0.001-0.065,0-0.13,0.001-0.195
		c2.737-0.186,5.46-0.505,8.215-0.5c0.002,0,0.004-0.001,0.006-0.001C323.945,398.92,323.721,403.152,323.597,407.359z
		 M323.622,382.575c0.391,3.788,0.468,7.6,0.413,11.415c-2.756,0.04-5.48,0.358-8.227,0.525c0.017-3.787-0.362-7.559,0.047-11.344
		c0.019-0.173-0.189-0.424-0.428-0.597H323.622z M314.761,382.575c0,0.002-0.001,0.003-0.001,0.006
		c-0.432,4,0.019,7.985-0.051,11.989c-3.018,0.115-5.958-0.235-8.91-0.706c0.072-3.755,0.145-7.51,0.217-11.265
		c2.229,0.071,4.454,0.04,6.678-0.024H314.761z"/>
	<path d="M450.006,385.671c-10.039-0.157-19.98,0.809-30,0.244c-0.433-0.024-0.941,0.29-1.396,0.736
		c-1.047-0.223-2.158-0.097-2.173,0.683c-0.281,14.578-0.562,29.157-0.842,43.735c-0.004,0.22,0.144,0.426,0.37,0.611
		c-0.168,0.961,0.049,1.991,0.681,1.933c5.745-0.53,11.417-0.906,17.177-0.31c5.401,0.559,10.549,1.466,15.981,0.688
		c0.177-0.025,0.331-0.131,0.466-0.28c1.115,1.489,3.256,0.702,3.347-2.511c0.414-14.665,1.505-29.477-0.063-44.11
		c-0.117-1.092-0.717-3.092-2.384-2.624C450.614,384.621,450.248,385.088,450.006,385.671z M432.507,410.546
		c0.769-0.017,1.536-0.048,2.303-0.087c-0.247,6.429-1.683,12.767-1.742,19.207c-0.108-0.009-0.217-0.02-0.325-0.029
		c-4.391-0.357-8.751-0.126-13.118,0.24c0.131-6.784,0.261-13.569,0.392-20.353C424.146,410.16,428.286,410.64,432.507,410.546z
		 M449.621,430.564c-4.983,0.681-9.799-0.18-14.71-0.718c0.171-6.422,1.611-12.75,1.756-19.177c0.002-0.108,0-0.216,0.002-0.324
		c4.548-0.309,9.073-0.84,13.65-0.831c0.003,0,0.007-0.002,0.01-0.002C450.198,416.54,449.827,423.573,449.621,430.564z
		 M449.661,389.381c0.65,6.294,0.777,12.628,0.686,18.969c-4.579,0.066-9.107,0.595-13.67,0.872
		c0.028-6.293-0.602-12.561,0.078-18.85c0.031-0.287-0.314-0.704-0.712-0.991H449.661z M434.937,389.381
		c0,0.004-0.002,0.006-0.002,0.009c-0.719,6.647,0.032,13.268-0.085,19.922c-5.015,0.192-9.901-0.391-14.806-1.173
		c0.12-6.24,0.24-12.479,0.361-18.719c3.704,0.117,7.401,0.067,11.097-0.039H434.937z"/>
	<path d="M530.123,368.173c-8.81-0.138-17.532,0.71-26.325,0.214c-0.38-0.021-0.826,0.254-1.225,0.646
		c-0.919-0.196-1.894-0.085-1.907,0.6c-0.246,12.792-0.493,25.585-0.739,38.377c-0.004,0.193,0.126,0.374,0.325,0.536
		c-0.147,0.843,0.043,1.747,0.597,1.696c5.041-0.465,10.018-0.795,15.073-0.272c4.739,0.491,9.256,1.286,14.023,0.604
		c0.155-0.022,0.291-0.115,0.409-0.246c0.978,1.307,2.857,0.616,2.937-2.204c0.363-12.869,1.32-25.865-0.055-38.707
		c-0.103-0.958-0.629-2.713-2.092-2.302C530.657,367.253,530.336,367.662,530.123,368.173z M514.769,390.001
		c0.675-0.015,1.348-0.042,2.021-0.077c-0.216,5.641-1.477,11.203-1.529,16.854c-0.095-0.008-0.19-0.018-0.285-0.026
		c-3.853-0.313-7.679-0.111-11.511,0.211c0.115-5.953,0.229-11.907,0.344-17.86C507.432,389.663,511.064,390.084,514.769,390.001z
		 M529.786,407.567c-4.373,0.598-8.598-0.158-12.908-0.63c0.15-5.635,1.414-11.188,1.541-16.827c0.002-0.095,0-0.19,0.002-0.284
		c3.99-0.271,7.962-0.737,11.978-0.729c0.003,0,0.006-0.002,0.009-0.002C530.292,395.261,529.966,401.432,529.786,407.567z
		 M529.821,371.429c0.57,5.523,0.682,11.081,0.602,16.645c-4.018,0.058-7.991,0.523-11.995,0.765
		c0.025-5.522-0.528-11.022,0.068-16.54c0.027-0.252-0.276-0.618-0.625-0.87H529.821z M516.901,371.429
		c0,0.003-0.002,0.005-0.002,0.008c-0.63,5.832,0.028,11.643-0.075,17.482c-4.401,0.168-8.688-0.343-12.992-1.029
		c0.105-5.475,0.211-10.951,0.316-16.426c3.251,0.103,6.494,0.058,9.737-0.035H516.901z"/>
	<path d="M365.268,380.343c-6.042-0.095-12.024,0.487-18.054,0.147c-0.26-0.015-0.567,0.174-0.84,0.443
		c-0.63-0.134-1.299-0.058-1.308,0.411c-0.169,8.773-0.338,17.547-0.507,26.32c-0.003,0.133,0.087,0.256,0.223,0.367
		c-0.101,0.578,0.029,1.198,0.41,1.163c3.457-0.319,6.871-0.545,10.337-0.186c3.25,0.337,6.348,0.882,9.617,0.414
		c0.106-0.015,0.199-0.079,0.28-0.168c0.671,0.896,1.96,0.423,2.014-1.511c0.249-8.825,0.905-17.739-0.038-26.546
		c-0.07-0.657-0.431-1.861-1.434-1.579C365.635,379.711,365.414,379.992,365.268,380.343z M354.738,395.312
		c0.463-0.01,0.925-0.029,1.386-0.053c-0.148,3.869-1.013,7.683-1.048,11.559c-0.065-0.006-0.13-0.012-0.196-0.018
		c-2.643-0.215-5.267-0.076-7.894,0.145c0.079-4.083,0.157-8.166,0.236-12.249C349.706,395.081,352.197,395.369,354.738,395.312z
		 M365.037,407.359c-2.999,0.41-5.897-0.108-8.853-0.432c0.103-3.865,0.969-7.673,1.057-11.541c0.001-0.065,0-0.13,0.001-0.195
		c2.737-0.186,5.46-0.505,8.215-0.5c0.002,0,0.004-0.001,0.006-0.001C365.384,398.92,365.161,403.152,365.037,407.359z
		 M365.061,382.575c0.391,3.788,0.468,7.6,0.413,11.415c-2.756,0.04-5.48,0.358-8.227,0.525c0.017-3.787-0.362-7.559,0.047-11.344
		c0.019-0.173-0.189-0.424-0.428-0.597H365.061z M356.2,382.575c0,0.002-0.001,0.003-0.001,0.006c-0.432,4,0.019,7.985-0.051,11.989
		c-3.018,0.115-5.958-0.235-8.91-0.706c0.072-3.755,0.145-7.51,0.217-11.265c2.229,0.071,4.454,0.04,6.678-0.024H356.2z"/>
</g>
</svg>
