<?xml version="1.0" encoding="utf-8"?>
<!-- Generator: Adobe Illustrator 23.0.1, SVG Export Plug-In . SVG Version: 6.00 Build 0)  -->
<svg version="1.1" id="Layer_3" xmlns="http://www.w3.org/2000/svg" xmlns:xlink="http://www.w3.org/1999/xlink" x="0px" y="0px"
	 viewBox="0 0 566.9 566.9" style="enable-background:new 0 0 566.9 566.9;" xml:space="preserve">
<g>
	<path d="M262.5,281.3v3.2c0.6,1.2,0.5,2.5,0,3.6v11.7c0,3.9-3.7,5.5-6.6,4.6c-0.4,0.3-0.9,0.6-1.5,0.7c0,0,0,0,0,0v142.4
		c-48.2,7.4-96.4,14.8-144.6,22.1c-3,0.5-5.9,0.9-8.9,1.4c0.3-44.3,0.5-88.7,0.8-133c0-5.6,0.1-11.2,0.1-16.8
		c48.3-6.4,96.5-12.9,144.8-19.3l1.7-0.2c0,0,0,0,0,0c-0.4-2.3-0.8-4.6-1-6.9c-1.6,0.7-3.5,0.5-4.9-1.3c-2.3-2.9-4.5-6-6.7-9
		c-0.5-0.1-1-0.4-1.5-0.7c-0.4-0.3-0.8-0.5-1.2-0.8c-41.1,5.5-82.2,10.9-123.2,16.4c-6.3,0.8-12.6,1.7-18.9,2.5
		c-3,0.4-3.8,3-3.3,6.2c-0.3,49.4-0.6,98.9-0.9,148.3c0,7.2-0.1,14.3-0.1,21.5c0,4.5,5.1,15.6,11.1,14.7
		c49.3-7.5,98.6-15.1,147.9-22.6c6.7-1,13.4-2,20.1-3.1c2.7-0.4,3.3-2.6,3.3-5.1V294.2C268.7,290.9,266.1,284.5,262.5,281.3z"/>
	<path d="M262.5,281.9v2.6c0.6,1.2,0.5,2.5,0,3.6v11.6c1-0.1,1.9-0.3,2.9-0.4C273.2,298.3,266.6,286.2,262.5,281.9z"/>
	<path d="M248.2,301.6c-0.4-2.3-0.8-4.6-1-6.9c-1.6,0.7-3.5,0.5-4.9-1.3c-2.3-2.9-4.5-6-6.7-9c-0.5-0.1-1-0.4-1.5-0.7
		c-0.4-0.3-0.8-0.5-1.2-0.8c-41.1,5.5-82.2,10.9-123.2,16.4c-5.8,0.8-11.6,1.5-17.4,2.3c-16-11.4-32.1-22.8-48.1-34.2
		c42.8-5.8,85.7-11.6,128.5-17.4c3.8-0.5,7.7-1,11.5-1.6c11.3,7.2,22.6,14.4,33.8,21.6c-0.4-0.6-0.8-1.3-1.2-1.9
		c-0.5-0.9-0.6-1.8-0.6-2.6c-7-4.6-13.4-9.9-18.4-17.1c-2-2.8-0.4-5.6,2-6.7c-0.4-0.3-0.8-0.5-1.3-0.8c-4.6-3-9.3-5.9-13.9-8.9
		c-1.9-1.2-5-3.7-7.2-3.4c-6.9,0.9-13.9,1.9-20.8,2.8c-46.2,6.3-92.4,12.5-138.6,18.8c-8.9,1.2,0.9,16.2,4.2,18.5
		c23.5,16.7,47,33.4,70.5,50.1c1.8,1.9,3.8,3.1,5.8,2.8c49.4-6.6,98.7-13.1,148.1-19.7L248.2,301.6
		C248.2,301.6,248.2,301.6,248.2,301.6z"/>
	<path d="M20.3,421.4c23.9,22.8,47.8,45.6,71.8,68.3c3.7,3.5,8.6,3.8,8.7-2.3c0.3-49.8,0.6-99.6,0.9-149.4c0-7,0.1-14,0.1-21
		c0.1-11-12.1-17.1-19.9-22.7c-20.2-14.3-40.3-28.6-60.5-42.9c-3.8-2.7-6.8-0.4-6.8,3.8c0,48.8,0,97.5,0,146.3c0,2.7,0,5.3,0,8
		c0,5,3.5,10.7,7.6,13.5c3.8,2.6,6.8,0.5,6.8-3.8c0-48.8,0-97.5,0-146.3c0-2.7,0-5.3,0-8c-2.3,1.3-4.6,2.6-6.8,3.8
		c24.3,17.2,48.5,34.4,72.8,51.7c-2.5-4.5-5-9-7.6-13.5c-0.3,49.8-0.6,99.6-0.9,149.4c0,7.2-0.1,14.3-0.1,21.5
		c2.9-0.8,5.8-1.6,8.7-2.3c-23.9-22.8-47.8-45.6-71.8-68.3c-2.4-2.3-7.5-4.7-8.5,0.3C13.7,412.3,16.9,418.1,20.3,421.4z"/>
</g>
<g>
	<path d="M379.8,362.7c49.4-6.6,98.7-13.1,148.1-19.7c6.3-0.8,12.6-1.7,18.9-2.5c-3.7-4.9-7.4-9.8-11.1-14.7c0,49.7,0,99.4,0,149
		c0,6.1,0,12.3,0,18.5c1.1-1.7,2.2-3.4,3.3-5.1c-49.3,7.5-98.6,15.1-147.9,22.6c-6.7,1-13.4,2-20.1,3.1c3.7,4.9,7.4,9.8,11.1,14.7
		c0.3-49.8,0.6-99.6,0.9-149.4c0-7.2,0.1-14.3,0.1-21.5c0-5-3.5-10.8-7.6-13.5c-3.9-2.6-6.8-0.5-6.8,3.8
		c-0.3,49.8-0.6,99.6-0.9,149.4c0,7.2-0.1,14.3-0.1,21.5c0,4.5,5.1,15.6,11.1,14.7c49.3-7.5,98.6-15.1,147.9-22.6
		c6.7-1,13.4-2,20.1-3.1c2.7-0.4,3.3-2.6,3.3-5.1c0-49.7,0-99.4,0-149c0-6.1,0-12.3,0-18.5c0-4.6-5.1-15.5-11.1-14.7
		c-49.4,6.6-98.7,13.1-148.1,19.7c-6.3,0.8-12.6,1.7-18.9,2.5C363.5,344,372.6,363.7,379.8,362.7z"/>
	<path d="M542.5,321.9c-20.9-13.3-41.8-26.7-62.7-40c-4.6-3-9.3-5.9-13.9-8.8c-1.9-1.2-5-3.7-7.2-3.4c-6.9,0.9-13.9,1.9-20.8,2.8
		c-3.2,0.4-6.5,0.9-9.7,1.3c0.4,1.2,0.4,2.6,0,3.8c1.3,2.4,0.3,5.2-1.9,6.7c-3.9,2.8-8.3,4.8-12.8,6.8c-2.5,1.1-5.4,0.7-6.8-1.8
		c-0.3-0.6-0.5-1.2-0.6-1.9c-4.5,1.5-9.2,2.7-13.9,3.6c-10.6,2-21.2,3.4-31.9,4.8c-11.4,1.5-22.7,3.1-34,5.4
		c-8.4,1.7-17,4.6-25.6,5.6c1.1,1.4,2.1,2.5,2.8,3.1c23.5,16.7,47,33.4,70.5,50.1c1.8,1.9,3.8,3.1,5.8,2.8
		c49.3-6.6,98.7-13.1,148.1-19.7c6.3-0.8,12.6-1.7,18.9-2.5C555.5,339.3,546.1,324.2,542.5,321.9z M391,340.4
		c-5.8,0.8-11.6,1.5-17.4,2.3c-16-11.4-32.1-22.8-48.1-34.2c42.8-5.8,85.7-11.6,128.5-17.4c3.8-0.5,7.7-1,11.5-1.6
		c17.7,11.3,35.4,22.6,53.1,33.8C476,329.1,433.5,334.7,391,340.4z"/>
	<path d="M363.3,335.4c-15.2-10.8-30.3-21.5-45.5-32.3c-6.9,1.8-13.8,3.6-20.8,3.8c-0.4,0-0.7,0-1-0.1v142.6
		c-0.2,1.6,0.1,3.2,0.6,4.8c1,3.3,3.1,6.5,5.6,8.7c23.8,22.6,47.5,45.3,71.3,67.9c3.7,3.5,8.6,3.8,8.7-2.3
		c0.3-49.8,0.6-99.6,0.9-149.4c0-7,0.1-14,0.1-21C383.2,347.1,371,341,363.3,335.4z M368.7,356c-0.3,47.1-0.6,94.3-0.8,141.4
		c0,3.7,0,7.3-0.1,11c-19.1-18.2-38.3-36.5-57.4-54.7V314.6C329.8,328.4,349.2,342.2,368.7,356z"/>
</g>
<path d="M462.2,362.6c6.9,13.3,13.9,26.6,20.8,39.9c0.4,0.7,0.9,1.5,1.8,1.5c14.6,0.5,29.2,1.1,43.9,1.6c-0.4-3.3-0.9-6.6-1.3-9.9
	c-10.5,11.8-20.9,23.6-31.4,35.5c-2.3,2.6-0.9,7.2-0.4,10.3c0.9,5,1.7,10,2.6,15.1c1.4,8.1,2.8,16.1,4.2,24.2c1-2.2,2-4.4,3-6.6
	c-7.9-2.8-15.8-5.6-23.7-8.3c-4.7-1.6-9.3-3.3-14-4.9c-1.7-0.6-3.5-1.7-5.1-0.6c-14.4,9.8-28.8,19.6-43.3,29.5
	c1,2.2,2.1,4.4,3.1,6.5c2.9-16.4,5.8-32.9,8.7-49.3c0.4-2.1,0-5.1-1.8-6.5c-12.5-9.8-25-19.7-37.6-29.5c-0.2,3.5-0.4,7-0.6,10.5
	c17.1-4.3,34.2-8.5,51.3-12.8c2-0.5,3.2-4.5,4-6.2c2.5-5.1,5-10.3,7.5-15.4c4-8.2,7.9-16.3,11.9-24.5c1.1-2.2,1-5.4,0-7.5
	c-0.9-2-2.6-1.9-3.5,0c-7.2,14.8-14.4,29.7-21.6,44.5c0.6-0.5,1.2-1,1.8-1.6c-17.1,4.3-34.2,8.5-51.3,12.8c-3.7,0.9-3,8.6-0.6,10.5
	c12.5,9.8,25,19.7,37.6,29.5c-0.6-2.2-1.2-4.4-1.8-6.5c-2.9,16.4-5.8,32.9-8.7,49.3c-0.2,1.1,0.4,8.4,3.1,6.5
	c14.2-9.7,28.5-19.4,42.7-29.1c1.5-1,1.2-0.4,0-0.8c1,0.4,2,0.7,3,1.1c4.7,1.6,9.3,3.3,14,4.9c7.9,2.8,15.8,5.6,23.7,8.3
	c3,1.1,3.3-4.9,3-6.6c-2.5-14.5-5-29-7.6-43.6c-0.4,2-0.7,4-1.1,6c10.5-11.8,20.9-23.6,31.4-35.5c1.5-1.8,2.2-9.8-1.3-9.9
	c-14.6-0.5-29.2-1.1-43.9-1.6c0.6,0.5,1.2,1,1.8,1.5c-6.9-13.3-13.9-26.6-20.8-39.9c-1-1.9-2.6-2-3.5,0
	C461.2,357.3,461.1,360.5,462.2,362.6z"/>
<path d="M252,423.7c-43.7,6.5-87.3,13-131,19.5c0.4,2.7,0.8,5.3,1.2,8c16.2-41.1,32.4-82.1,48.6-123.2c-3.3,2.5-6.5,5-9.8,7.5
	c27.5,34.6,54.9,69.1,82.4,103.7c3.9,4.9,13.9-10.2,10.5-14.5c-27.5-34.6-54.9-69.1-82.4-103.7c-3.4-4.3-8.9,5.1-9.8,7.5
	c-16.2,41.1-32.4,82.1-48.6,123.2c-0.5,1.4-2.7,8.6,1.2,8c43.7-6.5,87.3-13,131-19.5c3.9-0.6,6.6-5.3,8-8.5
	C253.8,430.3,255.9,423.1,252,423.7z"/>
<path d="M392.8,225.4c-0.1,10.3-3.4,20.5-10.4,28.2c-6,6.6-16.4,9.5-25.4,10.1c-22.7,1.5-43.6-15-49.6-36.4
	c-5.6-19.6,1.6-42.1,21.2-49.4c21.5-8,45.5,3,57.2,21.7C390.6,207.4,392.7,216.4,392.8,225.4c0.1,4,7.4-0.5,8.4-1.2
	c3-2.2,7.3-6.1,7.2-10.3c-0.3-22.6-14.5-42.1-35.6-50c-23.2-8.6-48.6,1.7-64.9,18.8c-16.1,16.9-23,41.5-13.5,63.5
	c9,21,30.1,32.8,52.5,31.9c32.5-1.3,61-32.4,61.5-64.3c0.1-4-7.5,0.5-8.4,1.2C396.9,217.4,392.9,221.2,392.8,225.4z"/>
<g>
	<path d="M439.5,128.3c-1-4.6-4.7-11.4-9.1-12.3c-20.3-12.9-40.6-25.9-60.9-38.8c-4.6-3-9.3-5.9-13.9-8.9c-1.9-1.2-5-3.7-7.2-3.4
		c-6.9,0.9-13.9,1.9-20.8,2.8C281.4,74,235.2,80.2,189,86.5c-3.5,0.5-4.1,3.1-3.3,6.3c0,48.4,0,96.7,0,145.1c0,2.3,0,4.6,0,6.9
		c-0.1,1.6,0.1,3.2,0.6,4.8c1,3.3,3.1,6.5,5.6,8.7c23.1,22,46.2,44,69.3,66c2,2.9,4.6,5.1,7.3,4.6c49.3-7.5,98.6-15.1,147.9-22.6
		c6.7-1,13.4-2,20.1-3.1c2.7-0.4,3.3-2.6,3.3-5.1c0-49.7,0-99.3,0-149c0-5.2,0-10.5,0-15.7C440.3,132,440.1,130.2,439.5,128.3z
		 M200.1,109.9c19.4,13.8,38.9,27.6,58.3,41.4c-0.3,47.1-0.6,94.3-0.8,141.4c0,3.7,0,7.3-0.1,11c-19.1-18.2-38.3-36.5-57.4-54.7
		C200.1,202.6,200.1,156.3,200.1,109.9z M355.1,84.8c17.7,11.3,35.4,22.6,53.1,33.8c-42.5,5.7-85,11.3-127.5,17
		c-5.8,0.8-11.5,1.5-17.3,2.3c-3.5-2.7-7.3-5-10.5-7.3c-12.6-9-25.2-17.9-37.9-26.9C258,98,300.8,92.2,343.6,86.4
		C347.5,85.9,351.3,85.4,355.1,84.8z M425.4,270c0,4.6,0,9.2,0,13.9c-48.2,7.4-96.4,14.8-144.6,22.1c-3,0.5-5.9,0.9-8.9,1.4
		c0.3-44.3,0.5-88.7,0.8-133c0-5.6,0.1-11.2,0.1-16.8c48.3-6.4,96.5-12.9,144.8-19.3c2.6-0.3,5.2-0.7,7.8-1
		C425.4,181.5,425.4,225.8,425.4,270z"/>
</g>
</svg>
