<?xml version="1.0" encoding="utf-8"?>
<!-- Generator: Adobe Illustrator 23.0.1, SVG Export Plug-In . SVG Version: 6.00 Build 0)  -->
<svg version="1.1" id="Layer_3" xmlns="http://www.w3.org/2000/svg" xmlns:xlink="http://www.w3.org/1999/xlink" x="0px" y="0px"
	 viewBox="0 0 566.9 566.9" style="enable-background:new 0 0 566.9 566.9;" xml:space="preserve">
<g>
	<path d="M476.4,493.2c0-0.1-0.1-0.2-0.1-0.3c-0.1-0.4-0.1-0.7-0.2-1c-1.9-7.6-3.4-15.2-4.3-23c-0.2-1.8-1.2-5.3-3.4-4.3
		c-2.1,1-2.2,5.6-1.9,7.5c1.1,8.8,2.7,17.4,4.9,26c0.1,0.5,0.3,1.1,0.6,1.5c0.2,0.8,0.4,1.6,0.6,2.3c4.1,11.7,8.3,22.9,9.9,35.5
		c0.2,1.9,1.1,5.1,3.4,4.3c2.1-0.7,2.1-5.8,1.9-7.5C485.8,519.6,481.1,506.7,476.4,493.2z"/>
	<path d="M524,528.5c-1.8-14.5-6.5-27.3-11.3-40.9c0-0.1-0.1-0.2-0.1-0.3c-0.1-0.4-0.1-0.7-0.2-1c-1.9-7.6-3.4-15.2-4.3-23
		c-0.2-1.8-1.2-5.3-3.4-4.3c-2.1,1-2.2,5.6-1.9,7.5c1.1,8.8,2.7,17.4,4.9,26c0.1,0.5,0.3,1.1,0.6,1.5c0.2,0.8,0.4,1.6,0.6,2.3
		c4.1,11.7,8.3,22.9,9.9,35.5c0.2,1.9,1.1,5.1,3.4,4.3C524.1,535.3,524.2,530.3,524,528.5z"/>
</g>
<path d="M562.4,523.7c-19.2-37.3-33.9-78.1-49.1-118.5c-15.1-40.1-30.3-80.1-44.8-120.5c0-3.6-1-7.2-2.9-7.2
	c-10.7,0.1-21.4,0.1-32.1,0c0.3-19.1,1-38.2,2.2-57.2c0.1-2.3,0.3-8.1-1.9-9.1c-1-0.4-1.7,0.1-2.3,1.1c-0.1,0-0.2,0-0.3,0
	c-4.5,0.2-8.9-0.3-13.2-1.7c-0.8-0.3-1.5,0.5-2,1.9c-1.4,1.3-1.7,5.3-1.7,6.9c-0.2,19.3-0.4,38.6-0.6,57.9
	c-55.3-1.2-110.7-4.1-166-0.3c-0.2,0-0.4,0.1-0.6,0.2c-2.8-17.2-2-35-0.8-52.4c1.1-17.6,2.3-35.1,3.4-52.7c0-0.5,0.1-1.1,0.1-1.7
	c1.1-4.3,0.3-11.5-2.4-11.6c-16.2-0.4-32.4-2.5-48.5-3.4c-16.4-0.9-32.9-1.2-49.3-1.2c-32.9,0-65.8,1.4-98.7,2.9
	c-3.9,0.2-3.8,14.9,0,14.8c10.8-0.5,21.6-0.9,32.4-1.3c-4,85.5-1.6,171.4-0.9,257c-2.1,3.1-1.8,13.4,1.5,13.9
	c45.6,7.4,91.6,8.6,137.5,8.2c45.9-0.4,91.9-1.8,137.8-3c25.1-0.7,50.3-1.5,75.4-2.5c1.2,11.7,3,23.2,5.4,34.5
	c0.1,0.7,0.4,1.4,0.6,1.9c0.2,1.1,0.4,2.1,0.6,3c4.5,15.4,9,30,10.9,46.3c-3.8,1.4-3.2,15.5,0.2,14.7c17.5-4.3,35.3-0.2,52.9-1.8
	c18-1.6,35.9-4.1,53.9-6.3c0.2,0,0.4-0.1,0.5-0.2c0.1,0.1,0.1,0.3,0.2,0.4c1.5,2.9,3.3-0.8,3.8-2.6
	C564.2,530.6,563.8,526.5,562.4,523.7z M419.7,232.1c0.3,0.3,0.7,0.5,1.1,0.5c2.9,0.1,5.8,0.3,8.7,0.4c-0.7,14.8-1.2,29.6-1.4,44.4
	c-3,0-5.9-0.1-8.9-0.1C419.3,262.2,419.5,247.2,419.7,232.1z M505,527.7c-15.8,1.4-31.7-1.7-47.4,0.7c0-0.4,0-0.7-0.1-1
	c-2-19.4-7.2-36.5-12.5-54.6c-0.1-0.2-0.1-0.4-0.2-0.6c-0.1-0.5-0.1-1-0.2-1.4c-2.1-9.8-3.6-19.7-4.7-29.8
	c1.3-4.3,0.6-12.2-2.2-12.1c-46.4,1.9-92.9,3.1-139.4,4.1c-45.7,1.1-91.5,2.6-137.1,0.8c-24.5-1-49-3.1-73.4-6.9
	c-0.7-85.5-3.3-171.6,0.9-257c20.3-0.7,40.5-1.3,60.8-1.3c16.5,0,32.9,0.4,49.3,1.2c15.1,0.8,30.1,2.7,45.2,3.2
	c-1.2,18.4-2.5,36.7-3.5,55.1c-1.1,19.4-1.2,38.6,2.1,57.6c0.4,2.2,1.5,4,2.9,3.3c0.5,1.5,1.2,2.4,2.2,2.3c72-4.9,144,1.5,216,0.7
	c0,0.1,0,0.2,0.1,0.2c15.1,42.1,30.9,83.8,46.6,125.4c13.3,35.4,26.3,70.9,42.2,104.3C536.7,524.2,520.9,526.3,505,527.7z"/>
<path d="M231.2,206.5c-0.3-0.1-0.6-0.1-0.8-0.1c-0.2-0.1-0.5-0.2-0.8-0.2c-20.4-0.6-40.8-1.5-61.3-0.2c-20.7,1.3-41.5-0.5-62.2-1.5
	c-0.6,0-1.1,0.2-1.5,0.7c-1.8-0.1-3.6,3.5-2.9,7.3c4.3,23.6,2.7,48.3,2.5,72.2c-1.2,3.6-0.4,10,2.3,9.8c10-0.5,19.9-2,29.8-2.8
	c9.8-0.7,19.6-0.8,29.3-0.9c20.1-0.1,40.1-0.3,60.2-0.4c0.4,1.3,1.1,2.5,2.2,2.5c2.2,0,2.8-4.5,2.8-6.1c-1-24.3-0.3-48.6,2.2-72.8
	C233.3,212.2,233.4,207.3,231.2,206.5z M136.4,279.5c-8.9,0.6-17.7,1.9-26.6,2.6c0.3-21.6,1.3-43.8-1.6-65.2c20,1,40.1,2.7,60.1,1.4
	c19.6-1.3,39.2-0.5,58.8,0.1c-1.8,19.9-2.5,39.9-2,59.9c-19.8,0.1-39.6,0.3-59.4,0.4C156,278.7,146.2,278.8,136.4,279.5z"/>
<path d="M413.3,131.3c-5.9-10.9-17.2-18.4-29.2-23.8c-10.3-4.6-23.7-8.1-30.2-17.1c-4.2-5.7-3.2-12.7-3.1-19.2
	c0.2-5.8-0.3-11.4-1.9-17c-3.2-10.7-10.9-20.6-22.7-25.3c-5.4-2.1-11.6-3.2-17.5-2.5c-6.9,0.8-12.9,3.8-19.1,6.4
	c-13.2,5.5-28.5,6.8-42.6,2.8c-6.9-1.9-13-5.5-20.1-6.9c-7.5-1.5-15.7-0.5-23.4-0.2c-7.4,0.3-15.3,0-22.6,1.2
	c-6.4,1.1-11.3,4.1-15.4,8.3c-8.1,8.3-16.1,18.9-15.9,30.3c0.3,10.6,7,19.7,19.8,20.5c6.5,0.4,12.9-0.4,19.2,1.1
	c5.9,1.3,11.4,3.9,16.1,7.3c9.7,7,14.5,16.3,14.9,27.1c0.2,5.8,2.2,10.1,7.8,13.4c5.2,3.1,11.2,4.9,17.3,6.3
	c13.1,2.9,27.2,3.1,39.6,8.2c7,2.8,11.1,6.7,11.8,13.6c0.5,5.2,1.3,10.3,3,15.2c3,8.7,9,17.5,19.7,20.1c13.6,3.2,26.2-4.7,37.3-10.4
	c12-6.1,24.9-8.9,37.4-2.1c2.1,1.1,4,2.5,5.7,4c0.7,4.3,2.4,8.2,5.6,11.6c1.6,1.6,2.8-0.6,3-3.1c0.2-0.2,0.5-0.4,0.7-0.7
	c1.1-1.5,0.8-4,0-5.5c-1.4-2.6-3.1-5.1-5.2-7.2c0.2-7.9,6.3-16.3,9.6-23C418.2,153.5,419.2,142.2,413.3,131.3z M399.3,183.8
	c-4.3-3.3-9.6-5.7-15.3-6.8c-12.9-2.6-24.2,3.4-34.8,9c-10.8,5.7-25.6,12-37.1,3.9c-8.9-6.3-10.6-17.1-11.6-26.4
	c-0.5-5.3-2.1-10.3-6.5-14.1c-4.3-3.7-9.9-5.8-15.6-7.3c-12.5-3.3-25.7-3.7-38.1-7.2c-4.9-1.4-14.7-4.3-16-9.3
	c-0.7-2.6-0.1-5.6-0.4-8.3c-0.3-2.4-0.9-4.9-1.8-7.2c-3.2-9.1-10-17-19-22.4c-4.5-2.7-9.6-4.7-14.9-5.8c-6.2-1.3-12.4-0.6-18.7-1
	c-6.7-0.4-12.4-3.2-14.5-9c-1.9-5.3,0.4-10.7,3.4-15.3c3.2-5,7.3-10.2,12.1-14.2c5.3-4.5,11.8-5.3,18.9-5.5c8-0.3,15.9-0.6,23.9-0.9
	c8-0.3,14.7,0.4,22.1,3.4c12.6,5,25.3,7.8,39.2,5.7c6.4-1,12.4-2.9,18.2-5.5c6.3-2.7,12.5-5.5,19.7-5.5c13.3,0,24.8,7.7,30.2,18
	c6,11.4,1.8,23.3,4.5,35.2c2.3,10.3,10.7,16.8,21,21.5c11.7,5.3,24.1,9.4,33.6,17.7c4.9,4.3,9,9.6,10.7,15.5
	c1.8,6.3-0.2,12.2-3.1,17.9C405.2,167.9,400.6,175.4,399.3,183.8z"/>
<g>
	<path d="M160,503.2c-0.7-21.3-11-41.8-29.6-49.5c-18.1-7.5-38.9-0.7-50.5,16.5c-11.8,17.5-13.3,43-3.5,62.1
		c9.5,18.7,29,29.3,48,24.5c21.8-5.5,34.8-27.5,35.6-51.5c0-0.4,0-0.8,0-1C160.1,503.9,160.1,503.6,160,503.2z M86,530
		c-10.7-12.9-12.8-31.4-3.8-46.1c8.6-14.2,24.2-21.3,39.2-18.7c17.2,2.9,32.1,19.3,32.4,39.1C153.1,542.3,107.8,556.1,86,530z"/>
	<path d="M252,503.2c-0.7-21.3-11-41.8-29.6-49.5c-18.1-7.5-38.9-0.7-50.5,16.5c-11.8,17.5-13.3,43-3.5,62.1
		c9.5,18.7,29,29.3,48,24.5c21.8-5.5,34.8-27.5,35.6-51.5c0-0.4,0-0.8,0-1C252.1,503.9,252.1,503.6,252,503.2z M178,530
		c-10.7-12.9-12.8-31.4-3.8-46.1c8.6-14.2,24.2-21.3,39.2-18.7c17.2,2.9,32.1,19.3,32.4,39.1C245.1,542.3,199.8,556.1,178,530z"/>
	<path d="M344.4,503.2c-0.7-21.3-11-41.8-29.6-49.5c-18.1-7.5-38.9-0.7-50.5,16.5c-11.8,17.5-13.3,43-3.5,62.1
		c9.5,18.7,29,29.3,48,24.5c21.8-5.5,34.8-27.5,35.6-51.5c0-0.4,0-0.8,0-1C344.5,503.9,344.5,503.6,344.4,503.2z M270.4,530
		c-10.7-12.9-12.8-31.4-3.8-46.1c8.6-14.2,24.2-21.3,39.2-18.7c17.2,2.9,32.1,19.3,32.4,39.1C337.5,542.3,292.2,556.1,270.4,530z"/>
	<path d="M437.3,493.6c-3.9-24.3-21.8-42.6-44.2-43.1c-19.7,0.4-36.4,14.8-42.5,35.6c-6,20.6-1.2,45,13.5,59.5
		c14.6,14.4,36.8,16.4,53.1,4.3C433.5,537.7,440.7,514.8,437.3,493.6z M417.3,534.9c-12.5,10.5-29.7,12-43.4,3.6
		c-13-7.9-22-24.4-18.9-41.1c3.7-19.7,20.7-32.4,38.1-32.8c15.4,0.3,30.1,9.9,36.2,26.1C435.3,506.7,429.5,524.6,417.3,534.9z"/>
</g>
<path d="M111.8,478.9c34,15.6,71.1,16.3,107.2,20.4c38.2,4.3,76.3,9,114.4,14.1c21.5,2.9,43,5.9,64.5,9c8.1,1.2,9.1-26.8,0-28.1
	c-47.8-7-95.8-13.3-143.7-19c-23.8-2.8-47.6-5.5-71.4-8c-23.2-2.4-45.7-5.5-67.5-15.4C106.2,447.7,104.1,475.4,111.8,478.9
	L111.8,478.9z"/>
</svg>
