<?xml version="1.0" encoding="utf-8"?>
<!-- Generator: Adobe Illustrator 15.1.0, SVG Export Plug-In . SVG Version: 6.00 Build 0)  -->
<!DOCTYPE svg PUBLIC "-//W3C//DTD SVG 1.1//EN" "http://www.w3.org/Graphics/SVG/1.1/DTD/svg11.dtd">
<svg version="1.1" id="Layer_3" xmlns="http://www.w3.org/2000/svg" xmlns:xlink="http://www.w3.org/1999/xlink" x="0px" y="0px"
	 width="566.93px" height="566.93px" viewBox="0 0 566.93 566.93" enable-background="new 0 0 566.93 566.93" xml:space="preserve">
<g>
	<g>
		<path d="M154.555,176.967c-0.901,49.534-1.803,99.069-2.704,148.604c-0.098,5.375-0.196,10.749-0.293,16.124
			c-0.029,1.608,0.895,3.848,2.827,3.859c35.781,0.214,71.562,0.428,107.342,0.641c63.741,0.381,127.481,0.762,191.221,1.143
			c27.313,0.163,54.624,0.326,81.937,0.489c4.66,0.027,7.987-5.705,7.987-9.863c0-49.777,0-99.555,0-149.332
			c0-6.556,0-13.112,0-19.668c0-1.591-0.873-3.87-2.827-3.859c-35.924,0.19-71.849,0.381-107.772,0.571
			c-63.592,0.337-127.185,0.674-190.776,1.011c-26.318,0.14-52.636,0.279-78.954,0.418c-5.873,0.031-11.583,13.757-5.16,13.723
			c35.924-0.19,71.848-0.381,107.772-0.571c63.592-0.337,127.184-0.674,190.777-1.011c26.317-0.14,52.636-0.279,78.953-0.418
			c-0.942-1.287-1.885-2.573-2.827-3.859c0,49.777,0,99.555,0,149.332c0,6.556,0,13.112,0,19.668
			c2.662-3.288,5.325-6.575,7.987-9.863c-35.781-0.214-71.562-0.428-107.343-0.641c-63.74-0.381-127.48-0.762-191.221-1.143
			c-27.312-0.163-54.624-0.326-81.936-0.489c0.942,1.286,1.885,2.573,2.827,3.859c0.901-49.534,1.803-99.069,2.704-148.604
			c0.098-5.375,0.196-10.749,0.293-16.124c0.06-3.269-2.765-4.706-5.511-3.182C156.68,169.546,154.62,173.389,154.555,176.967z"/>
	</g>
</g>
<g>
	<g>
		<path d="M156.879,233.551c-25.557-0.211-51.224,0.083-76.722,1.898c-6.96,0.496-13.946,1.096-20.831,2.262
			c-4.287,0.726-9.15,1.692-12.5,4.676c-6.497,5.788-9.025,15.343-11.245,23.406c-2.186,7.939-3.641,16.094-4.872,24.229
			c-2.958,19.554-4.818,39.311-7.178,58.944c2.176-2.692,4.353-5.386,6.529-8.079c-5.264,1.688-8.608,6.987-10.598,11.815
			c-4.979,12.083-1.518,27.051,1.631,39.067c0.313,1.195,1.302,2.339,2.625,2.389c13.991,0.522,28.093,0.833,42.082,0
			c3.572-0.213,6.133-3.227,7.335-6.418c0.701-1.862,1.414-7.519-2.175-7.305c-13.989,0.833-28.091,0.522-42.082,0
			c0.875,0.796,1.75,1.593,2.625,2.389c-2.371-9.047-5.011-19.311-2.778-28.664c-0.343,1.437,0.171-0.37,0.247-0.571
			c0.656-1.755-0.794,1.458,0.008-0.034c0.656-1.22-0.181,0.135-0.625,0.581c0.549-0.552,0.141-0.074-0.837,0.239
			c3.284-1.053,6.117-4.649,6.529-8.079c2.514-20.918,4.404-42.003,7.784-62.803c1.349-8.299,2.932-16.664,5.594-24.653
			c1.084-3.255,2.049-5.545,3.214-6.903c-0.937,1.091-2.337,1.626-0.458,0.767c-1.495,0.684,1.42-0.392,1.99-0.542
			c13.393-3.535,28.131-3.467,41.873-4.023c19.206-0.778,38.455-1.025,57.676-0.866
			C157.592,247.323,163.339,233.605,156.879,233.551L156.879,233.551z"/>
	</g>
</g>
<g>
	<g>
		<path d="M143.052,386.16c48.105-0.883,96.209-1.766,144.314-2.648c24.563-0.45,49.124-0.901,73.687-1.352
			c5.87-0.107,11.545-13.84,5.16-13.723c-48.104,0.883-96.209,1.766-144.314,2.648c-24.563,0.45-49.125,0.901-73.687,1.352
			C142.342,372.545,136.667,386.278,143.052,386.16L143.052,386.16z"/>
	</g>
</g>
<g>
	<g>
		<path d="M440.403,385.483c8.076-3.984,16.819-6.758,25.813-9.357c22.284-6.44,45.489-9.363,68.669-8.632
			c4.654,0.146,7.987-5.796,7.987-9.863c0-7.041,0-14.082,0-21.123c0-3.249-2.725-4.729-5.511-3.182
			c-3.137,1.741-5.304,5.626-5.304,9.186c0,1.374,0,2.749,0,4.123c0,3.249,2.725,4.729,5.511,3.182
			c3.137-1.741,5.304-5.626,5.304-9.186c0-1.374,0-2.748,0-4.123c0-3.249-2.725-4.729-5.511-3.182
			c-3.137,1.741-5.304,5.626-5.304,9.186c0,7.041,0,14.082,0,21.123c2.662-3.288,5.325-6.575,7.987-9.863
			c-33.315-1.052-69.636,4.438-99.852,19.345c-3.132,1.545-5.36,5.772-5.303,9.186C434.948,385.656,437.551,386.89,440.403,385.483
			L440.403,385.483z"/>
	</g>
</g>
<g>
	<g>
		<path d="M67.11,253.25c-13.765-1.623-17.063,14.99-19.047,24.814c-1.012,5.013-2.527,10.996,0.047,15.777
			c3.562,6.616,15.086,3.065,20.287,1.56c8.802-2.548,18.684-0.981,27.002-5.328c7.12-3.722,7.06-11.615,7.609-18.56
			c0.483-6.107,1.575-13.178-4.765-16.572c-4.454-2.385-10.31-1.863-15.145-1.823c-4.51,0.038-9.021,0.075-13.531,0.112
			C68.749,253.236,67.929,253.243,67.11,253.25c-1.468,0.012-2.894,3.444-1.29,3.431c1.942-0.016,3.885-0.032,5.827-0.048
			c4.613-0.038,9.226-0.076,13.839-0.114c4.371-0.036,9.887,0.056,13.234,3.314c4.041,3.936,1.728,14.463,1.243,19.394
			c-0.91,9.25-10.599,9.988-17.973,10.901c-4.338,0.537-8.664,1.067-12.957,1.902c-4.711,0.915-9.001,2.564-13.898,1.897
			c-6.226-0.848-6.008-7.326-5.272-12.115c1.401-9.121,3.1-26.648,15.958-25.132C67.27,256.851,68.779,253.447,67.11,253.25z"/>
	</g>
</g>
<g>
	<g>
		<path d="M134.576,393.882c-0.328,15.389-13.638,25.099-28.409,24.153c-14.919-0.955-26.501-14.009-26.813-28.655
			c-0.329-15.423,14.144-25.067,28.408-24.153C122.682,366.182,134.264,379.236,134.576,393.882c0.052,2.42,2.007,3.567,4.134,2.387
			c2.315-1.285,4.034-4.236,3.978-6.889c-0.422-19.795-16.423-35.732-36.52-34.445c-19.997,1.279-34.514,19.663-34.925,38.947
			c-0.422,19.837,17.058,35.69,36.52,34.444c19.997-1.279,34.514-19.662,34.925-38.946c0.052-2.454-2.08-3.527-4.134-2.387
			C136.164,388.32,134.634,391.198,134.576,393.882z"/>
	</g>
</g>
<g>
	<g>
		<path d="M428.905,390.994c-0.327,15.389-13.638,25.099-28.408,24.153c-14.92-0.955-26.502-14.009-26.813-28.655
			c-0.329-15.423,14.144-25.067,28.408-24.153C417.011,363.294,428.593,376.348,428.905,390.994c0.053,2.42,2.008,3.567,4.135,2.387
			c2.314-1.285,4.033-4.236,3.977-6.889c-0.422-19.795-16.422-35.732-36.52-34.445c-19.996,1.279-34.514,19.663-34.925,38.947
			c-0.423,19.837,17.058,35.69,36.52,34.444c19.997-1.279,34.515-19.662,34.925-38.946c0.053-2.454-2.079-3.527-4.133-2.387
			C430.492,385.432,428.963,388.31,428.905,390.994z"/>
	</g>
</g>
</svg>
