<?xml version="1.0" encoding="UTF-8" standalone="no"?>
<!DOCTYPE svg PUBLIC "-//W3C//DTD SVG 1.1//EN" "http://www.w3.org/Graphics/SVG/1.1/DTD/svg11.dtd">
<svg width="100%" height="100%" viewBox="0 0 1024 1024" version="1.1" xmlns="http://www.w3.org/2000/svg" xmlns:xlink="http://www.w3.org/1999/xlink" xml:space="preserve" xmlns:serif="http://www.serif.com/" style="fill-rule:evenodd;clip-rule:evenodd;stroke-linejoin:round;stroke-miterlimit:1.41421;">
    <g id="girl_1_">
        <path d="M207.539,506.219C205.648,506.4 207.072,509.006 208.2,509.296C221.078,512.626 233.126,518.355 243.276,526.998C259.616,540.918 271.606,559.867 279.99,579.474C288.681,599.801 294.361,622.135 294.371,644.344C294.379,665.378 289.375,684.573 275.302,700.628C255.809,722.86 226.04,738.954 196.362,741.461C168.689,743.797 141.867,730.334 124.461,708.921C109.716,690.778 106.523,665.11 107.173,642.472C107.879,617.854 112.547,592.394 123.677,570.229C136.564,544.563 158.334,525.894 182.985,512.058C188.23,509.114 181.368,502.958 177.572,503.164C153.1,504.495 133.991,525.424 120.475,544.059C109.201,559.602 101.929,577.079 97.652,595.771C91.912,620.872 89.887,647.549 95.01,672.955C97.328,684.446 101.032,695.777 107.111,705.852C114.076,717.401 124.343,727.117 135.139,735.101C158.611,752.456 186.31,759.906 215.139,753.091C243.667,746.345 272.63,730.673 290.29,706.696C316.314,671.366 308.609,622.031 292.935,583.913C284.499,563.397 272.809,543.714 256.679,528.298C243.669,515.863 226.273,504.433 207.539,506.219Z" style="fill:rgb(1,1,1);fill-rule:nonzero;"/>
        <path d="M199.387,475.547C203.488,478.964 210.897,488.655 206.382,494.116C204.316,496.616 201.428,499.418 198.137,500.183C195.562,500.784 193.869,500.419 192.483,499.61C191.258,498.895 189.428,497.13 188.779,495.956C186.854,492.472 185.888,487.438 188.853,485.33C195.725,480.444 204.141,486.946 211.425,484.135C213.028,483.516 212.553,481.088 211.7,480.103C205.387,472.808 186.17,469.318 179.542,478.618C174.622,485.524 177.207,495.204 182.386,501.263C188.254,508.128 198.028,512.556 206.535,507.448C212.054,504.133 216.876,498.135 215.3,491.328C213.43,483.25 207.323,477.407 199.867,474.303C198.994,473.94 198.839,475.089 199.387,475.547Z" style="fill:rgb(1,1,1);fill-rule:nonzero;"/>
        <path d="M180.095,481.14C181.264,482.199 182.648,481.15 181.793,479.79C166.014,454.582 139.688,438.613 111.965,429.445C97.256,424.581 81.525,421.757 65.994,421.88C61.225,421.918 56.437,422.362 51.667,422.238C48.719,422.161 45.194,420.843 42.815,421.587C44.454,422.125 46.093,422.663 47.733,423.2C48.306,424.033 48.881,424.866 49.456,425.699C49.082,423.394 46.858,421.99 44.766,421.583C43.432,421.325 41.771,421.541 40.863,422.677C38.992,425.013 40.54,427.96 42.375,429.74C45.467,432.735 49.882,432.245 53.81,431.986C58.283,431.692 62.755,431.337 67.23,431.07C81.39,430.227 96.088,432.306 109.586,436.585C123.356,440.945 136.748,446.43 148.744,454.571C160.101,462.278 169.942,471.963 180.095,481.14Z" style="fill:rgb(1,1,1);fill-rule:nonzero;"/>
        <path d="M210.181,479.997C216.554,478.617 220.745,472.463 224.947,467.874C229.597,462.794 234.333,457.728 239.506,453.172C247.71,445.947 256.581,439.788 266.197,434.58C276.266,429.125 286.967,424.388 298.244,422.103C308.061,420.112 315.853,420.846 325.3,423.696C330.724,425.334 332.279,418.815 328.351,415.856C309.704,401.808 279.698,413.864 261.838,423.511C251.841,428.91 242.614,435.458 234.183,443.069C228.032,448.625 222.594,454.801 217.359,461.215C213.44,466.016 208.083,471.19 207.458,477.608C207.331,478.911 208.915,480.269 210.181,479.997Z" style="fill:rgb(1,1,1);fill-rule:nonzero;"/>
        <path d="M323.284,423.925C330.803,432.26 335.266,444.853 337.793,455.606C340.359,466.522 341.943,478.022 340.337,489.191C340.931,488.212 341.526,487.234 342.12,486.256C303.462,510.87 254.998,501.716 211.995,500.112C209.171,500.008 209.808,503.588 211.75,504.491C227.745,511.934 245.45,513.336 262.94,513.659C282.575,514.023 302.847,513.02 321.877,507.804C329.955,505.592 338.155,502.829 345.25,498.278C349.791,495.367 351.098,493.936 350.632,488.414C350.236,483.736 350.065,479.05 349.391,474.395C346.525,454.621 339.927,436.299 325.381,422.264C324.051,420.981 321.91,422.406 323.284,423.925Z" style="fill:rgb(1,1,1);fill-rule:nonzero;"/>
        <path d="M48.838,425.16C45.666,427.196 43.046,428.422 40.389,431.343C38.075,433.887 36.144,436.509 34.374,439.461C30.416,446.066 27.275,453.121 25.174,460.541C21.339,474.085 19.891,488.922 24.856,502.365C25.808,504.945 30.621,508.3 33.347,506.223C35.751,504.392 36.154,503.541 36.73,500.569C37.269,497.781 33.578,495.388 31.192,495.709C29.888,495.864 28.591,496.055 27.296,496.28C29.734,497.701 32.174,499.122 34.614,500.545C30.406,488.482 31.891,474.641 35.304,462.566C37.096,456.215 39.344,449.892 42.33,443.996C45.038,438.65 47.665,432.43 51.034,427.519C51.835,426.349 50.076,424.363 48.838,425.16Z" style="fill:rgb(1,1,1);fill-rule:nonzero;"/>
        <path d="M180.437,498.548C175.697,499.792 171.267,502.26 166.496,503.618C161.529,505.031 156.422,506.009 151.292,506.62C140.028,507.963 128.655,507.975 117.326,507.804C88.684,507.375 60.997,507.558 33.174,499.554C33.466,503.028 33.756,506.5 34.047,509.972C37.464,510.175 41.272,511.18 44.364,509.316C45.791,508.454 45.459,506.694 44.623,505.536C41.602,501.347 36.779,499.593 31.754,499.268C24.478,498.796 27.739,508.305 32.627,509.686C62.132,518.021 91.746,516.873 122.036,516.214C133.907,515.955 145.946,515.339 157.567,512.737C165.332,510.999 177.994,507.919 181.604,499.79C181.873,499.187 181.031,498.395 180.437,498.548Z" style="fill:rgb(1,1,1);fill-rule:nonzero;"/>
        <path d="M207.337,508.865C216.634,515.956 224.629,526.011 229.011,536.876C231.312,542.582 233.006,548.847 232.887,555.053C232.785,560.398 230.765,565.725 231.325,570.993C231.469,572.354 233.862,574.295 235.203,573.246C240.005,569.49 240.411,561.342 240.022,555.666C239.548,548.772 237.959,542.033 235.009,535.757C229.219,523.438 220.363,513.536 208.807,506.415C206.959,505.278 205.746,507.657 207.337,508.865Z" style="fill:rgb(1,1,1);fill-rule:nonzero;"/>
        <path d="M196.25,511.162C194.653,511.133 194.28,512.747 195.167,513.88C198.274,517.866 201.998,520.285 203.559,525.434C204.964,530.064 205.383,534.863 204.761,539.672C204.066,545.026 202.672,550.232 200.287,555.097C198.415,558.919 195.953,562.302 193.998,566.039C193.356,567.264 195.219,568.824 196.357,568.554C208.201,565.726 212.995,548.73 212.808,538.241C212.698,532.069 211.604,526.106 208.477,520.719C206.109,516.635 201.363,511.258 196.25,511.162Z" style="fill:rgb(1,1,1);fill-rule:nonzero;"/>
        <path d="M185.064,512.489C184.416,511.565 182.132,511.301 182.572,512.959C185.012,522.223 186.416,531.245 183.072,540.537C181.357,545.308 178.995,549.685 175.859,553.683C173.369,556.855 170.498,559.732 168.887,563.463C168.117,565.242 170.621,567.846 172.439,567.25C182.65,563.906 188.98,551.123 191.058,541.267C193.141,531.386 190.855,520.741 185.064,512.489Z" style="fill:rgb(1,1,1);fill-rule:nonzero;"/>
        <path d="M217.585,601.719C218.82,606.541 219.29,612.898 218.932,617.851C218.837,619.159 218.789,620.622 218.121,621.798C217.863,622.252 217.918,621.654 218.609,622.136C219.945,623.067 218.754,621.907 218.452,621.086C218.075,620.061 217.831,618.955 217.66,617.879C217.225,615.125 217.095,612.257 217.565,609.492C217.722,608.557 217.948,607.589 218.377,606.734C218.876,605.748 219.105,606.337 218.192,606.153C215.796,605.674 217.593,606.564 217.602,608.644C217.607,610.127 217.539,611.614 217.248,613.075C216.822,615.205 216.135,617.622 214.637,619.252C217.297,619.805 219.956,620.356 222.616,620.91C219.476,617.242 219.436,613.024 221.647,608.843C218.72,608.607 215.795,608.369 212.869,608.133C218.423,614.381 213.065,621.904 216.302,628.706C216.947,630.062 218.558,631.229 220.118,630.932C231.211,628.813 225.504,609.406 220.599,603.955C218.376,601.49 213.846,599.343 211.819,603.246C208.142,610.337 209.686,619.192 215.077,624.987C216.845,626.888 220.766,629.43 223.055,626.645C229.472,618.833 228.757,603.061 219.199,598.132C208.339,592.532 207.619,610.068 208.672,616.218C209.494,621.033 211.209,626.025 215.418,628.887C218.516,630.994 223.516,631.107 225.466,627.432C229.378,620.06 224.085,607.488 219.814,601.297C219.234,600.458 217.203,600.24 217.585,601.719Z" style="fill:rgb(1,1,1);fill-rule:nonzero;"/>
        <path d="M194.48,601.167C193.425,600.194 190.538,599.75 190.576,601.93C190.693,608.52 192.295,618.416 186.139,623.047C188.587,624.16 191.037,625.274 193.486,626.387C190.819,621.713 187.749,611.547 189.796,606.361C190.375,604.897 188.627,604.963 188.512,604.428C188.898,606.242 188.799,608.09 188.51,609.92C188.067,612.728 186.933,617.182 185.822,619C188.923,620.019 192.023,621.034 195.124,622.051C194.133,619.553 192.796,617.035 193.376,614.272C190.035,613.592 186.698,612.912 183.355,612.231C185.491,615.749 186.955,619.713 188.659,623.457C189.554,625.421 193.019,627.161 194.277,624.602C196.661,619.753 195.689,614.974 193.063,610.423C190.923,606.717 184.026,603.45 182.792,609.592C181.756,614.738 183.605,619.143 185.517,623.848C187.098,627.732 192.992,629.967 195.439,625.869C198.482,620.775 199.738,612.793 198.793,606.994C197.769,600.708 191.061,593.064 184.002,596.594C178.293,599.446 179.319,607.868 180.274,613.006C181.29,618.463 182.699,624.364 185.724,629.092C187.3,631.553 190.939,632.605 193.215,630.649C200.333,624.523 201.651,607.784 194.48,601.167Z" style="fill:rgb(1,1,1);fill-rule:nonzero;"/>
        <path d="M267.348,658.531C266.169,660.041 262.443,656.392 264.605,658.605C264.359,658.33 264.365,658.347 264.629,658.657C264.85,659.016 265.13,659.323 265.383,659.66C265.155,658.597 264.927,657.534 264.699,656.472C264.267,657.964 264.611,659.235 265.539,660.472C266.928,658.89 268.315,657.309 269.704,655.726C268.057,654.893 266.356,654.222 264.642,653.543C263.303,653.013 261.63,652.571 260.497,651.768C258.604,650.424 255.21,650.594 254.283,653.017C253.262,655.675 255.404,658.298 257.487,659.635C260.386,661.496 264.686,662.215 267.551,661.483C270.828,660.646 270.011,656.792 267.958,655.056C268.346,655.711 268.065,655.448 267.117,654.259C266.598,653.814 266.034,653.442 265.425,653.14C264.503,652.641 263.545,652.387 262.542,652.139C261.422,651.86 260.338,651.541 259.234,651.209C259.493,654.287 259.751,657.366 260.008,660.445C261.288,660.414 262.925,661.133 264.21,661.48C265.907,661.94 267.579,662.374 269.314,662.662C273.228,663.312 272.913,658.088 270.66,656.407C269.419,655.483 268.01,654.657 266.399,655.104C267.241,655.275 268.083,655.447 268.926,655.619C268.664,655.452 268.407,655.28 268.147,655.113C267.256,654.737 267.06,654.645 267.558,654.839C267.465,654.792 267.372,654.747 267.28,654.7C266.62,654.399 265.942,654.047 265.192,654.079C263.687,654.142 262.666,654.931 262.976,656.566C263.268,658.106 266.016,660.233 267.348,658.531Z" style="fill:rgb(1,1,1);fill-rule:nonzero;"/>
        <path d="M147.138,650.556C147.492,648.924 146.947,647.484 145.677,646.373C144.555,645.387 142.765,644.705 141.339,645.469C139.249,646.591 137.451,648.562 135.687,650.149C138.551,651.795 141.416,653.442 144.28,655.087C144.353,653.882 144.528,655.446 143.662,656.275C142.666,656.629 141.675,656.983 140.679,657.339C140.703,657.339 140.728,657.341 140.753,657.342C139.948,657.083 139.146,656.826 138.34,656.566C138.033,656.349 137.728,656.132 137.422,655.915C136.872,655.193 136.322,654.472 135.77,653.752C135.794,653.81 135.814,653.869 135.836,653.929C136.882,656.766 141.838,659.451 144.261,656.693C146.743,653.863 143.312,649.482 140.427,648.698C141.354,649.11 141.619,649.221 141.219,649.041C140.47,648.606 139.666,648.349 138.807,648.265C137.728,648.179 136.468,648.453 135.75,649.332C135.09,650.143 134.881,651.07 134.934,652.091C135.049,654.323 136.223,656.195 138.185,657.315C139.777,658.222 142.182,658.584 143.529,657.03C144.407,656.016 145.089,654.733 145.744,653.578C146.299,652.592 146.895,651.668 147.138,650.556Z" style="fill:rgb(1,1,1);fill-rule:nonzero;"/>
        <path d="M261.115,656.433C257.226,659.021 254.743,663.43 250.871,666.185C246.733,669.132 242.112,671.37 237.189,672.665C226.199,675.561 214.548,675.646 203.319,674.266C182.239,671.673 161.903,664.848 144.139,653.202C143.61,655.741 143.084,658.283 142.557,660.822C145.411,661.907 148.652,662.058 151.693,662.093C154.431,662.126 153.41,659.138 151.914,658.132C149.383,656.432 146.82,654.645 144.136,653.201C139.218,650.555 136.303,656.222 140.333,659.543C148.621,666.368 159.494,670.786 169.542,674.246C181.832,678.476 194.742,681.459 207.73,682.399C219.666,683.264 232.049,682.76 243.305,678.307C251.222,675.175 263.341,668.08 263.739,658.319C263.785,657.227 262.231,655.691 261.115,656.433Z" style="fill:rgb(1,1,1);fill-rule:nonzero;"/>
        <path d="M294.652,603.589C298.861,609.806 305.793,607.955 311.868,606.239C316.904,604.818 320.794,604.584 324.763,608.658C327.682,611.657 329.127,615.764 328.486,619.939C327.285,627.778 320.83,635.16 312.459,634.704C309.107,634.521 305.789,634.034 302.575,633.038C301.422,632.679 300.261,632.309 299.122,631.899C298.76,631.763 298.395,631.64 298.025,631.531C296.122,631.051 296.536,631.36 299.269,632.461C299.834,633.643 300.403,634.826 300.969,636.008C300.351,637.174 300.276,637.473 300.745,636.91C302.198,635.347 300.529,632.838 299.051,632.041C296.049,630.425 291.88,631.868 293.868,635.843C295.768,639.637 300.497,640.969 304.332,641.849C315.098,644.321 327.001,644.232 333.431,633.548C340.247,622.222 337.495,609.157 326.799,601.31C322.029,597.813 316.606,596.122 310.751,597.794C305.701,599.237 301.012,601.916 295.608,601.19C294.085,600.985 294.036,602.677 294.652,603.589Z" style="fill:rgb(1,1,1);fill-rule:nonzero;"/>
        <path d="M98.441,600.869C99.101,601.351 100.925,602.07 101.237,600.72C102.194,596.599 97.691,592.496 94.362,590.764C89.313,588.135 83.661,586.902 77.969,587.584C66.562,588.95 56.693,598.134 56.366,610.094C56.046,621.658 62.557,633.165 71.77,639.988C76.397,643.411 81.412,646.21 87.143,647.233C91.374,647.987 98.689,648.629 100.748,643.908C101.656,641.822 99.44,639.229 97.521,638.725C93.778,637.739 90.246,639.426 86.426,638.77C82.952,638.175 79.404,636.644 76.616,634.467C70.66,629.817 65.618,623.203 64.918,615.434C64.187,607.33 69.386,597.813 77.624,595.675C81.479,594.675 85.868,594.214 89.77,595.32C93.637,596.415 95.377,598.624 98.441,600.869Z" style="fill:rgb(1,1,1);fill-rule:nonzero;"/>
        <path d="M83.176,610.413C80,612.231 77.715,614.576 77.81,618.479C77.915,622.875 81.551,626.733 85.867,627.235C87.336,627.409 88.677,626.413 88.756,624.906C88.832,623.49 88.015,622.441 87.11,621.47C86.178,620.476 85.256,620.211 85.364,618.869C85.509,617.071 86.012,615.214 86.821,613.611C87.725,611.818 84.797,609.485 83.176,610.413Z" style="fill:rgb(1,1,1);fill-rule:nonzero;"/>
        <path d="M314.486,616.797C313.476,615.509 310.156,614.959 310.773,617.5C311.208,619.297 311.368,620.977 311.273,622.817C311.689,622.131 312.108,621.444 312.525,620.757C311.221,621.259 309.662,621.417 308.432,622.082C306.88,622.923 307.036,624.946 307.922,626.181C310.104,629.222 314.525,628.843 317.449,627.258C318.59,626.642 318.775,625.469 318.626,624.302C318.253,621.373 316.238,619.031 314.486,616.797Z" style="fill:rgb(1,1,1);fill-rule:nonzero;"/>
        <path d="M303.483,640.61C302.559,646.374 306.187,653.362 308.669,658.311C312.552,666.056 317.185,673.646 323.082,680.04C327.98,685.35 333.804,690.764 341.118,692.268C348.739,693.835 354.146,689.885 358.781,684.258C360.071,682.691 359.353,680.797 358.398,679.295C358.244,679.05 358.088,678.804 357.932,678.559C356.647,676.539 353.847,675.579 351.663,676.477C349.903,677.201 348.944,679.313 348.753,681.087C348.592,682.588 349.818,683.948 350.986,684.676C351.234,684.83 351.482,684.985 351.729,685.138C352.845,685.833 354.58,686.169 355.778,685.466C356.031,685.316 358.682,683.868 356.586,684.571C354.816,683.765 353.045,682.961 351.273,682.156C351.473,682.379 351.672,682.601 351.871,682.822C351.576,681.446 351.281,680.071 350.987,678.695C336.856,703.772 310.785,649.976 305.263,640.754C304.904,640.15 303.658,639.51 303.483,640.61Z" style="fill:rgb(1,1,1);fill-rule:nonzero;"/>
        <path d="M301.57,664.265C301.363,663.306 299.367,661.944 298.859,663.392C296.535,670.023 298.977,677.827 300.934,684.25C303.787,693.623 307.746,702.856 313.1,711.085C321.81,724.472 337.6,736.837 351.498,722.392C353.858,719.938 350.577,715.58 347.959,715.014C347.546,714.922 347.134,714.833 346.72,714.746C345.469,714.472 343.607,714.239 342.736,715.524C341.325,717.605 341.345,719.322 342.262,721.632C342.703,722.736 343.943,723.558 345.097,723.674C345.51,723.716 347.965,723.263 347.517,723.168C346.338,720.708 345.157,718.25 343.977,715.79C323.24,737.658 304.413,677.493 301.57,664.265Z" style="fill:rgb(1,1,1);fill-rule:nonzero;"/>
        <path d="M95.75,650.965C94.155,677.915 49.07,689.759 36.87,664.471C35.098,665.896 33.325,667.319 31.55,668.743C33.343,669.584 35.088,670.368 36.989,670.917C38.503,671.352 40.393,670.455 39.856,668.602C38.918,665.363 37.015,663.522 34.253,661.68C31.071,659.56 27.124,662.306 28.933,665.951C36.725,681.653 54.413,689.046 71.356,685.38C87.918,681.796 100.351,669.471 98.945,651.987C98.824,650.48 95.88,648.798 95.75,650.965Z" style="fill:rgb(1,1,1);fill-rule:nonzero;"/>
        <path d="M97.883,675.27C97.421,691.416 77.376,698.231 64.431,700.964C55.749,702.799 46.808,703.681 37.945,702.942C32.096,702.453 24.906,701.692 20.572,697.274C20.423,699.631 20.274,701.99 20.125,704.348C23.607,703.424 27.464,703.54 30.511,701.443C32.294,700.216 31.185,697.62 29.519,696.815C25.115,694.689 20.811,694.531 16.096,695.805C12.327,696.824 13.608,700.816 15.648,702.88C28.249,715.61 53.833,712.674 69.337,708.68C83.762,704.963 107.14,694.713 101.008,675.902C100.639,674.775 97.941,673.177 97.883,675.27Z" style="fill:rgb(1,1,1);fill-rule:nonzero;"/>
        <path d="M106.691,700.234C106.068,698.407 102.256,697.049 102.798,699.916C104.91,711.112 89.921,716.061 81.7,717.981C71.841,720.283 62.119,720.755 52.068,720.13C53.028,722.943 53.993,725.755 54.953,728.568C57.099,728.191 58.891,727.979 59.876,725.9C60.419,724.752 59.532,723.376 58.735,722.628C56.817,720.828 54.585,720.532 52.064,720.132C46.536,719.254 48.685,727.512 52.757,728.392C68.783,731.854 115.177,725.103 106.691,700.234Z" style="fill:rgb(1,1,1);fill-rule:nonzero;"/>
        <path d="M175.748,485.969C171.379,480.043 163.541,476.042 157.006,473.073C148.975,469.426 140.513,466.429 131.736,465.213C123.931,464.132 116.56,464.526 109.192,467.439C105.436,468.926 99.76,471.196 99.283,475.925C98.318,485.434 113.702,490.045 120.489,491.812C126.613,493.408 132.938,494.711 139.257,495.233C143.989,495.624 148.998,496.167 152.99,493.215C155.329,491.487 152.726,488.691 150.677,488.328C142.284,486.843 133.679,486.833 125.293,484.996C120.836,484.019 116.301,482.943 112.058,481.231C110.622,480.652 108.932,480.024 107.727,479.025C106.798,478.254 107.238,478.163 106.999,478.836C108.193,475.496 113.778,474.014 116.697,472.989C122.92,470.807 129.975,471.318 136.339,472.573C150.195,475.307 161.356,482.322 173.95,488.019C175.516,488.724 176.877,487.5 175.748,485.969Z" style="fill:rgb(1,1,1);fill-rule:nonzero;"/>
        <path d="M221.329,485.213C235.635,487.084 246.913,475.263 260.08,471.943C264.101,470.928 268.486,470.969 272.597,471.405C274.588,471.618 280.61,471.868 281.477,474.262C282.958,478.354 277.563,481.696 274.47,482.589C269.84,483.925 264.977,484.485 260.163,484.54C252.18,484.63 243.384,482.41 235.606,484.118C232.912,484.71 234.472,487.857 235.989,488.798C245.349,494.6 260.628,493.984 271.16,492.413C280.286,491.051 293.753,485.57 289.289,473.626C285.519,463.541 271.451,462.929 262.48,463.431C255.032,463.849 248.549,467.16 242.166,470.839C234.855,475.052 227.588,478.756 219.77,481.924C217.889,482.687 220.212,485.068 221.329,485.213Z" style="fill:rgb(1,1,1);fill-rule:nonzero;"/>
        <path d="M255.581,746.816C254.254,745.824 251.243,745.597 251.853,748.141C253.05,753.145 256.124,758.073 258.356,762.697C261.022,768.217 263.46,773.863 265.615,779.6C270.229,791.882 273.863,804.565 276.613,817.394C281.79,841.555 284.817,866.121 284.719,890.852C284.693,897.714 297.951,903.498 297.942,895.089C297.936,891.093 297.365,887.772 294.722,884.647C293.347,883.02 290.524,881.145 288.335,882.525C285.212,884.488 284.724,887.34 284.72,890.85C289.127,892.262 293.534,893.674 297.943,895.087C297.69,868.764 294.527,842.097 287.991,816.58C284.613,803.394 280.547,790.316 275.078,777.834C270.564,767.533 264.876,753.765 255.581,746.816Z" style="fill:rgb(1,1,1);fill-rule:nonzero;"/>
        <path d="M130.411,739.424C130.966,737.445 127.806,734.387 126.171,736.399C117.881,746.651 111.727,758.596 105.592,770.209C99.212,782.288 93.252,794.634 88.06,807.272C82.665,820.404 78.03,833.925 75.127,847.845C73.815,854.134 72.634,860.449 72.053,866.856C71.503,872.922 70.321,880.12 72.205,886.002C73.231,889.202 75.785,891.962 79.324,892.248C81.514,892.427 84.275,890.968 84.094,888.403C84.008,887.224 83.888,886.092 83.683,884.927C83.307,882.789 81.199,881.234 79.157,880.955C78.395,880.8 77.627,880.719 76.853,880.706C79.176,883.717 81.496,886.73 83.818,889.741C85.644,883.95 84.609,877.123 85.196,871.065C85.848,864.31 86.758,857.536 88.215,850.903C91.141,837.579 95.248,824.518 100.071,811.762C104.926,798.931 110.466,786.385 116.169,773.91C121.336,762.617 127.034,751.423 130.411,739.424Z" style="fill:rgb(1,1,1);fill-rule:nonzero;"/>
        <path d="M298.226,897.402C298.199,895.508 296.248,894.08 294.472,894.705C288.513,896.782 283.558,901.049 277.368,902.965C270.04,905.232 262.435,906.598 254.812,907.393C239.699,908.965 224.562,909.02 209.386,908.935C187.859,908.817 166.658,907.169 145.613,902.396C122.496,897.149 100.004,889.668 77.493,882.317C77.839,886.447 78.183,890.573 78.531,894.702C83.129,894.829 87.922,896.099 92.473,895.126C97.814,893.984 94.513,887.934 91.73,886.054C87.055,882.897 81.331,882.124 75.803,881.976C67.033,881.74 71.153,892.507 76.841,894.359C101.309,902.335 125.766,910.461 151.002,915.68C172.331,920.09 193.62,921.542 215.351,921.58C232.106,921.607 249.247,921.143 265.703,917.746C275.481,915.727 298.424,910.857 298.226,897.402Z" style="fill:rgb(1,1,1);fill-rule:nonzero;"/>
        <path d="M252.67,913.68C252.411,913.057 250.763,912.404 250.818,913.527C251.64,929.583 250.074,945.244 245.888,960.779C242.025,975.113 237.524,989.242 235.596,1004.01C235.202,1007.03 239.132,1010.39 242.046,1009.67C245.791,1008.73 250.438,1008.16 254.184,1009.39C254.49,1009.49 255.719,1010.25 255.368,1009.7C254.847,1008.88 254.779,1010.71 254.516,1011.2C253.292,1013.46 251.429,1015.96 248.766,1016.6C238.929,1018.97 228.29,1014.31 218.975,1011.49C220.021,1012.24 221.065,1012.99 222.113,1013.74C222.099,1013.72 222.087,1013.71 222.073,1013.69C221.261,1015.72 220.45,1017.76 219.639,1019.8C221.939,1020.08 223.395,1019.91 225.1,1018.34C226.353,1017.19 225.252,1014.85 224.175,1014.03C222.487,1012.74 221.002,1011.98 218.937,1011.43C214.637,1010.28 213.399,1014.12 215.361,1017.31C217.1,1020.14 221.995,1020.77 224.927,1021.68C229.301,1023.02 233.711,1024.29 238.223,1025.09C246.189,1026.49 256.213,1026.89 261.237,1019.25C271.603,1003.48 249.838,998.007 238.059,1001.21C240.209,1003.09 242.358,1004.98 244.508,1006.86C247.872,976.135 265.363,944.224 252.67,913.68Z" style="fill:rgb(1,1,1);fill-rule:nonzero;"/>
        <path d="M232.671,916.912C232.266,916.276 230.756,915.906 230.712,917.012C230.269,928.948 229.742,940.579 227.144,952.308C225.894,957.963 225.418,963.768 224.574,969.491C223.831,974.534 223.696,981.296 220.847,985.666C217.005,991.557 210.628,998.085 209.642,1005.31C208.915,1010.63 217.239,1020.04 221.815,1013.86C222.961,1012.31 222.135,1010.31 220.808,1009.15C219.928,1008.39 219.089,1007.71 217.968,1007.32C216.3,1006.55 216.501,1007.11 218.572,1009C218.733,1007.81 219.246,1006.64 219.787,1005.58C221.514,1002.21 223.711,999.138 225.856,996.026C227.64,993.437 229.921,990.696 230.628,987.586C231.632,983.151 232.388,978.681 232.944,974.17C234.209,963.877 235.844,953.476 236.662,943.148C237.364,934.268 237.615,924.658 232.671,916.912Z" style="fill:rgb(1,1,1);fill-rule:nonzero;"/>
        <path d="M138.037,905.73C137.8,904.873 135.907,903.444 135.427,904.885C133.08,911.996 133.349,919.884 132.888,927.298C132.378,935.527 131.72,943.747 130.931,951.953C129.335,968.609 127.041,985.188 123.99,1001.64C123.429,1004.67 127.682,1008.1 130.512,1007.36C138.949,1005.18 147.663,1008.01 146.293,1018.08C147.124,1017.13 147.956,1016.18 148.786,1015.24C134.438,1019.48 119.871,1013.06 105.332,1015.23C102.301,1015.68 102.368,1019.48 103.963,1021.36C107.238,1025.22 110.615,1026.73 115.336,1024.65C116.891,1023.97 116.543,1021.61 115.613,1020.59C114.592,1019.46 113.747,1018.63 112.333,1018.01C111.918,1017.83 109.827,1016.54 110.753,1017.69C110.295,1019.74 109.841,1021.78 109.384,1023.83C123.938,1021.65 138.303,1028.12 152.829,1023.82C154.322,1023.37 155.11,1022.54 155.322,1020.98C157.528,1004.72 140.956,994.985 126.478,998.81C128.654,1000.72 130.825,1002.62 133.001,1004.53C135.769,987.956 137.797,971.277 138.863,954.503C139.392,946.184 139.723,937.839 139.748,929.502C139.774,921.593 140.158,913.414 138.037,905.73Z" style="fill:rgb(1,1,1);fill-rule:nonzero;"/>
        <path d="M113.39,901.851C112.853,900.603 110.218,900.067 110.593,901.982C116.433,931.699 105.894,962.41 99.908,991.09C98.717,996.813 98.398,1002.63 97.029,1008.32C96.232,1011.63 95.286,1014.97 95.873,1018.39C96.418,1021.57 99.938,1024.85 103.246,1024.78C107.874,1024.69 110.54,1022.88 113.156,1019.18C114.721,1016.96 111.885,1014.38 109.662,1014.61C106.892,1014.89 104.636,1015.51 101.95,1015.98C99.705,1016.36 104.413,1020.76 104.706,1018.06C104.757,1017.46 104.835,1016.87 104.94,1016.29C105.55,1013.1 106.543,1009.98 107.004,1006.76C108.871,993.752 112.348,981.346 115.031,968.5C119.476,947.225 122.153,922.232 113.39,901.851Z" style="fill:rgb(1,1,1);fill-rule:nonzero;"/>
        <path d="M250.573,738.434C249.031,739.413 250.564,741.258 251.704,741.723C257.047,743.9 262.941,744.429 268.367,746.415C273.619,748.337 278.817,751.036 283.181,754.575C292.04,761.759 298.008,770.582 302.365,781.052C302.867,778.804 303.368,776.556 303.87,774.31C298.168,776.673 292.346,778.752 286.466,780.632C281.444,782.236 272.489,784.354 277.187,791.737C278.826,794.31 281.952,795.373 284.823,795.206C289.331,794.944 294.258,792.49 298.487,790.994C303.189,789.329 307.863,787.592 312.452,785.635C315.072,784.519 314.917,781.014 313.958,778.894C308.047,765.851 298.398,753.905 286.448,745.94C277.715,740.119 260.819,731.923 250.573,738.434Z" style="fill:rgb(1,1,1);fill-rule:nonzero;"/>
        <path d="M133.635,731.614C135.942,730.655 133.389,727.738 132.134,727.256C119.944,722.59 105.743,730.902 96.724,738.612C86.553,747.312 77.69,758.642 74.131,771.732C72.929,776.156 76.26,779.559 80.026,781.2C84.764,783.266 89.294,785.779 93.996,787.927C96.056,788.869 99.904,790.051 101.535,787.525C103.783,784.038 101.854,779.156 98.014,777.419C92.2,774.784 86.591,771.751 80.669,769.351C82.633,772.506 84.597,775.664 86.562,778.819C89.331,767.166 96.405,756.332 104.934,748.037C109.319,743.772 114.099,740.017 119.505,737.128C124.056,734.693 128.913,733.581 133.635,731.614Z" style="fill:rgb(1,1,1);fill-rule:nonzero;"/>
        <path d="M299.401,784.19C297.495,783.15 295.882,784.921 297.209,786.685C303.784,795.447 310.882,803.851 316.368,813.379C321.076,821.557 327.867,832.721 327.598,842.505C327.479,846.761 331.326,850.174 335.314,850.705C339.509,851.264 347.488,855.45 351.388,852.409C354.854,849.706 353.762,845.179 350.625,842.535C348.981,841.151 347.352,840.402 345.289,839.959C338.916,838.588 336.648,845.574 341.633,849.358C342.236,849.814 342.831,850.278 343.417,850.753C342.777,847.769 342.138,844.783 341.499,841.799C343.809,839.905 344.103,840.745 341.592,840.148C340.657,839.927 339.723,839.704 338.79,839.483C336.788,839.027 334.74,838.456 332.68,838.41C335.029,840.103 337.379,841.798 339.729,843.491C334.908,831.432 330.787,819.929 323.477,808.998C317.143,799.524 309.579,789.743 299.401,784.19Z" style="fill:rgb(1,1,1);fill-rule:nonzero;"/>
        <path d="M335.419,852.609C336.369,856.761 337.165,861.229 337.423,865.484C337.554,867.614 337.162,869.164 338.028,871.36C338.985,873.786 341.781,875.712 344.397,875.376C349.973,874.662 345.855,867.188 344.89,864.567C343.352,860.396 341.589,856.314 339.437,852.421C338.573,850.857 334.767,849.744 335.419,852.609Z" style="fill:rgb(1,1,1);fill-rule:nonzero;"/>
        <path d="M329.241,857.051C328.236,855.107 323.67,853.901 324.445,857.277C325.042,859.873 325.211,863.415 324.229,865.957C323.269,868.439 321.095,870.992 321.316,873.665C321.566,876.634 324.389,880.135 327.773,879.328C332.413,878.224 333.04,872.747 332.724,868.613C332.399,864.347 331.194,860.826 329.241,857.051Z" style="fill:rgb(1,1,1);fill-rule:nonzero;"/>
        <path d="M82.089,789.721C83.405,787.839 80.272,785.029 78.608,786.666C68.304,796.796 59.794,808.535 50.031,819.156C42.152,827.731 31.03,839.851 18.151,838.095C16.36,837.851 14.78,838.802 14.033,840.392C13.952,840.567 13.868,840.745 13.785,840.92C11.866,845.01 17.639,849.924 21.462,849.102C22.928,848.789 23.65,848.028 24.895,847.316C26.379,846.46 26.121,844.447 25.17,843.284C23.501,841.241 21.76,839.871 19.276,838.916C20.72,841.923 22.158,844.924 23.6,847.931C23.7,847.765 23.8,847.603 23.9,847.437C22.271,847.755 20.642,848.075 19.012,848.395C33.935,851.625 46.01,840.033 54.857,829.489C65.294,817.052 72.838,802.947 82.089,789.721Z" style="fill:rgb(1,1,1);fill-rule:nonzero;"/>
        <path d="M44.846,853.347C43.862,850.733 38.279,848.76 37.97,852.789C37.858,854.229 37.984,855.675 37.768,857.112C37.693,857.612 37.518,858.144 37.311,858.611C37.318,858.592 36.61,859.846 37.027,859.276C36.195,860.415 36.499,859.963 35.235,860.568C33.882,861.215 32.86,861.948 32.437,863.48C31.953,865.237 32.688,867.051 34.083,868.204C36.246,869.989 39.926,871.514 42.537,869.5C43.94,868.416 45.176,867.26 45.766,865.517C47.058,861.696 46.234,857.034 44.846,853.347Z" style="fill:rgb(1,1,1);fill-rule:nonzero;"/>
        <path d="M30.868,855.203C31.763,853.305 28.847,851.093 27.156,851.948C26.152,852.452 25.112,852.798 24.1,853.349C22.931,853.987 21.838,854.95 20.919,855.909C18.775,858.145 17.112,860.435 17.601,863.671C18.006,866.34 22.014,869.444 24.664,867.775C26.953,866.334 27.552,863.736 28.627,861.412C29.171,860.236 29.659,859.047 30.07,857.822C30.354,856.987 30.5,855.984 30.868,855.203Z" style="fill:rgb(1,1,1);fill-rule:nonzero;"/>
        <path d="M232.299,744.214C231.956,743.921 231.237,743.726 231.025,744.284C229.495,748.232 231.15,753.145 229.791,757.33C228.503,761.294 226.141,764.901 223.098,767.75C215.994,774.399 206.077,777.925 196.537,779.068C187.546,780.144 177.154,779.489 169.471,774.172C161.245,768.482 161.065,757.915 163.346,749.092C162.219,749.722 161.089,750.351 159.96,750.981C162.301,751.197 164.451,751.934 166.806,751.928C170.243,751.922 170.208,748.141 168.016,746.306C165.076,743.844 161.925,742.636 158.098,742.285C156.823,742.169 155.077,742.764 154.714,744.173C151.474,756.743 152.887,770.742 163.807,779.246C173.442,786.748 185.88,788.958 197.84,787.692C209.294,786.477 221.679,782.214 229.623,773.478C235.969,766.499 240.966,751.638 232.299,744.214Z" style="fill:rgb(1,1,1);fill-rule:nonzero;"/>
        <path d="M293.352,801.93C301.284,808.849 307.454,816.618 311.853,826.234C314.062,831.062 315.917,836 317.547,841.054C318.676,844.555 319.579,848.349 321.936,851.238C322.591,852.041 324.84,853.17 325.323,851.511C326.604,847.107 324.143,841.779 322.649,837.639C320.559,831.845 318.254,826.006 315.109,820.692C310.047,812.129 303.76,803.504 294.136,799.915C292.689,799.377 292.476,801.165 293.352,801.93Z" style="fill:rgb(1,1,1);fill-rule:nonzero;"/>
        <path d="M83.611,801.631C83.908,800.83 82.468,799.578 81.894,800.404C76.229,808.569 69.623,815.76 63.255,823.357C57.551,830.16 51.826,837.371 50.817,846.477C50.701,847.505 52.49,848.931 53.295,847.902C59.183,840.362 63.688,831.815 69.55,824.208C74.949,817.205 80.515,809.999 83.611,801.631Z" style="fill:rgb(1,1,1);fill-rule:nonzero;"/>
        <path d="M209.667,643.423C208.385,642.491 207.172,641.748 205.711,641.131C205.737,641.142 204.73,640.695 205.235,640.933C205.011,640.833 204.794,640.727 204.573,640.615C203.809,640.238 203.119,639.998 202.266,639.92C201.064,639.811 199.974,640.572 199.907,641.824C199.85,642.907 200.468,643.934 201.253,644.629C203.184,646.338 205.839,646.486 208.229,647.124C210.75,647.799 211.601,644.83 209.667,643.423Z" style="fill:rgb(1,1,1);fill-rule:nonzero;"/>
    </g>
    <g id="boy">
        <path d="M498.764,511.251C494.737,511.923 498.366,516.929 500.827,517.277C515.074,519.29 529.236,521.923 541.648,529.633C570.578,547.601 585.678,580.658 594.857,612.182C604.232,644.386 609.027,680.016 604.93,713.5C602.546,732.975 595.884,752.391 583.028,767.497C571.16,781.44 555.159,791.259 537.391,795.718C516.63,800.93 494.255,800.552 473.462,795.598C452.087,790.506 426.165,781.148 413.493,761.858C400.656,742.319 404.279,715.031 405.344,692.955C406.668,665.521 411.931,638.204 419.64,611.874C422.646,601.603 425.654,591.138 430.526,581.566C434.916,572.941 440.166,564.772 446.032,557.077C452.397,548.724 459.392,540.661 467.51,533.953C473.083,529.349 481.307,524.476 487.513,523.077C497.62,520.798 489.034,507.979 482.138,507.368C464.232,505.782 449.108,520.452 438.226,533.002C426.674,546.325 415.895,561.812 409.35,578.285C399.529,603.001 393.711,630.267 389.871,656.511C387.949,669.648 387.023,682.752 386.494,696.008C385.989,708.627 385.488,721.316 387.025,733.89C388.561,746.466 392.395,758.844 399.703,769.313C407.07,779.864 417.498,788.353 428.551,794.819C450.18,807.469 475.359,814.534 500.313,816.116C540.251,818.648 582.662,805.799 604.603,770.059C624.513,737.625 624.889,698.485 620.46,661.777C616.068,625.37 605.702,588.22 584.72,557.718C566.117,530.675 533.593,505.454 498.764,511.251Z" style="fill:rgb(1,1,1);fill-rule:nonzero;"/>
        <path d="M576.604,688.722C581.502,688.637 579.666,683.54 577.001,681.649C578.419,682.656 575.123,680.469 575.942,680.888C575.476,680.65 575.009,680.417 574.543,680.18C573.472,679.641 572.404,679.099 571.333,678.562C569.648,677.718 567.988,676.822 566.295,676C563.262,674.53 558.424,674.479 558.185,678.96C557.972,682.965 561.873,686.585 565.681,686.927C568.027,687.139 568.519,687.286 570.643,687.733C572.604,688.145 574.596,688.758 576.604,688.722Z" style="fill:rgb(1,1,1);fill-rule:nonzero;"/>
        <path d="M561.702,684.287C554.252,690.849 547.234,696.237 537.181,698.327C525.399,700.775 513.215,700.416 501.344,698.755C489.025,697.028 476.83,693.982 465.195,689.567C460.58,687.817 456.048,685.882 451.721,683.496C447.277,681.046 445.758,680.047 442.813,677.31C443.787,680.106 444.763,682.902 445.736,685.699C446.241,683.998 446.188,681.613 447.128,680.085C450.997,673.782 442.727,664.846 436.018,668.163C433.191,669.561 429.426,671.352 428.507,674.665C427.575,678.023 429.194,681.001 431.573,683.265C433.498,684.643 433.498,684.643 431.573,683.265C432.446,684.037 433.433,684.605 434.537,684.971C435.372,685.166 435.736,685.403 436.852,685.492C440.337,685.775 443.008,682.724 445.83,681.117C441.844,677.618 437.854,674.117 433.866,670.617C432.573,673.047 432.621,675.305 432.025,677.884C431.28,681.091 432.406,684.124 434.949,686.273C443.649,693.629 454.794,698.314 465.496,701.88C478.555,706.232 492.242,709.211 505.969,710.368C518.625,711.436 532.26,711.495 544.416,707.317C554.002,704.023 564.859,697.86 565.681,686.57C565.815,684.69 563.216,682.954 561.702,684.287Z" style="fill:rgb(1,1,1);fill-rule:nonzero;"/>
        <path d="M608.822,633.234C608.786,634.618 611.687,636.585 612.122,634.693C614.832,622.878 633.326,626.313 640.308,631.114C646.913,635.657 648.829,643.987 646.926,651.515C644.985,659.194 640.733,667.186 633.988,671.707C628.899,675.12 622.856,676.669 618.878,672.324C617.842,674.924 616.808,677.521 615.773,680.119C618.495,680.426 623.817,680.074 622.927,675.92C622.05,671.836 617.055,669.593 613.423,669.157C608.898,668.613 607.709,674.067 610.318,676.951C618.369,685.86 630.385,689.244 640.833,682.022C650.314,675.469 657.069,664.4 658.139,652.851C659.346,639.833 652.649,627.182 640.613,621.558C634.188,618.554 625.965,616.602 618.984,618.957C616.013,619.96 612.79,621.196 611.063,623.995C609.025,627.295 608.916,629.51 608.822,633.234Z" style="fill:rgb(1,1,1);fill-rule:nonzero;"/>
        <path d="M400.771,629.935C401.261,631.226 404.03,631.66 403.56,629.807C401.762,622.746 398.735,617.567 392.541,613.313C386.438,609.124 378.454,606.839 371.05,608.006C357.157,610.195 343.257,623.719 341.984,637.984C340.773,651.562 348.757,664.086 359.302,671.981C365.184,676.385 372.122,679.85 379.356,681.331C384.664,682.417 396.365,685.23 399.352,679.194C400.518,676.841 398.144,674.14 396.356,673.005C391.509,669.928 384.35,672.043 378.796,670.683C373.835,669.467 369.165,667.585 364.955,664.66C358.144,659.929 352.145,651.924 352.382,643.27C352.688,632.147 361.65,621.981 371.789,617.998C382.141,613.93 396.635,619.044 400.771,629.935Z" style="fill:rgb(1,1,1);fill-rule:nonzero;"/>
        <path d="M383.115,640.853C384.197,640.918 384.904,640.108 384.698,639.044C383.933,635.059 378.179,631.951 374.343,632.725C370.865,633.427 368.514,636.292 367.658,639.641C366.606,643.759 366.72,647.95 368.273,651.934C369.893,656.089 374.342,661.414 379.214,661.387C385.654,661.351 383.667,654.167 379.753,651.783C378.853,651.233 377.88,650.999 376.935,650.595C377.249,650.729 378.41,651.708 377.561,650.842C378.765,652.07 376.96,649.616 377.526,650.729C377.282,650.25 377.04,649.77 376.856,649.263C376.41,648.041 376.127,645.408 376.407,643.51C376.615,642.11 377.279,640.18 378.169,639.727C379.464,639.069 381.472,640.752 383.115,640.853Z" style="fill:rgb(1,1,1);fill-rule:nonzero;"/>
        <path d="M627.519,642.499C630.076,644.362 633.239,645.592 633.706,649.147C634.128,652.353 632.059,654.297 629.373,655.567C623.566,658.308 631.938,668.698 636.6,665.106C641.956,660.978 644.345,654.419 641.318,648.003C639.132,643.37 633.522,637.313 627.771,638.528C625.781,638.95 626.196,641.535 627.519,642.499Z" style="fill:rgb(1,1,1);fill-rule:nonzero;"/>
        <path d="M533.018,615.618C531.779,613.039 525.736,609.398 524.27,613.838C520.943,623.913 527.003,636.127 520.387,645.569C524.979,647.627 529.571,649.687 534.16,651.745C531.216,642.842 527.144,628.465 535.636,621.402C533.913,622.016 532.19,622.631 530.466,623.244C530.108,623.143 529.751,623.042 529.395,622.94C526.891,618.917 524.386,614.894 521.883,610.872C520.437,617.435 519.787,625.869 521.672,632.371C522.779,636.195 525.526,639.344 529.395,640.58C532.403,641.541 536.536,640.968 537.721,637.543C539.89,631.272 539.215,622.501 537.94,616.045C537.002,611.3 531.177,606.192 526.086,607.499C529.203,606.699 523.51,608.151 523.363,608.231C522.584,608.814 521.834,609.431 521.111,610.082C519.69,611.551 518.49,613.232 517.581,615.072C515.778,618.712 514.875,622.969 514.797,627.029C514.627,635.763 516.409,644.429 519.955,652.408C522.223,657.512 530.676,661.433 533.967,655.262C537.318,648.979 537.64,641.819 537.09,634.858C536.592,628.568 535.777,621.363 533.018,615.618Z" style="fill:rgb(1,1,1);fill-rule:nonzero;"/>
        <path d="M492.871,613.232C491.2,611.974 487.768,611.234 487.528,614.277C487.071,620.049 488.949,626.006 488.779,631.876C488.622,637.33 488.411,644.594 485.282,649.331C489.915,650.851 494.548,652.37 499.179,653.89C496.889,648.312 495.14,642.504 494.439,636.491C493.906,631.893 493.477,625.189 497.382,621.898C492.265,620.219 487.149,618.543 482.033,616.864C482.865,618.784 483.463,620.77 484.508,622.581C487.693,628.103 498.414,633.293 500.131,623.848C500.754,620.413 499.342,616.98 497.887,613.909C495.834,609.58 486.65,603.003 482.537,608.874C473.077,622.386 477.172,642.942 484.824,656.568C487.258,660.905 496.726,667.098 499.649,659.588C502.733,651.654 502.717,642.805 501.617,634.472C500.677,627.345 499.001,617.844 492.871,613.232Z" style="fill:rgb(1,1,1);fill-rule:nonzero;"/>
        <path d="M570.978,798.836C569.934,796.877 565.233,795.582 566.05,799.065C573.049,828.876 571.293,861.479 562.568,890.688C564.684,889.505 566.801,888.325 568.92,887.142C541.801,885.211 515.257,893.807 488.197,893.45C474.529,893.268 460.929,891.976 447.358,890.399C440.573,889.609 433.795,888.771 427.007,888.017C420.126,887.251 413.091,886.083 406.169,886.594C410.101,891.746 414.033,896.9 417.964,902.052C419.474,899.926 420.199,898.076 420.249,895.476C420.334,890.774 416.24,887.349 411.918,886.625C408.803,886.102 407.176,886.225 404.195,887.278C400.424,888.615 400.742,894.027 402.063,896.838C403.447,899.779 406.529,902.931 409.824,903.647C416.719,905.148 423.877,905.368 430.889,906.139C437.673,906.886 444.449,907.709 451.231,908.475C464.781,910.008 478.401,911.406 492.053,911.45C519.136,911.538 545.368,903.763 572.416,903.47C575.856,903.433 578.95,901.875 579.161,898.03C580.939,865.448 587.028,828.943 570.978,798.836Z" style="fill:rgb(1,1,1);fill-rule:nonzero;"/>
        <path d="M423.157,787.519C422.817,784.035 417.363,781.682 415.407,785.021C412.286,790.348 410.79,799.952 409.279,806.852C406.657,818.825 404.138,830.824 401.931,842.88C399.885,854.069 397.893,865.338 396.903,876.681C396.153,885.273 394.588,897.523 403.765,902.344C408.016,904.576 414.427,904.269 414.901,898.281C414.971,897.379 414.848,896.242 414.598,895.309C414.344,894.363 413.985,893.447 413.651,892.526C414.188,894.172 414.323,894.554 414.058,893.678C413.829,892.845 413.25,888.904 413.397,891.078C413.122,887.006 413.187,882.915 413.364,878.841C413.867,867.331 415.084,855.852 416.462,844.418C417.87,832.733 419.432,821.067 421.148,809.424C422.19,802.334 423.854,794.681 423.157,787.519Z" style="fill:rgb(1,1,1);fill-rule:nonzero;"/>
        <path d="M565.696,897.774C564.269,895.051 558.03,893.339 558.995,898.087C561.917,912.455 560.375,925.866 559.337,940.304C560.984,938.977 562.633,937.648 564.279,936.32C541.4,932.433 518.639,938.825 495.728,936.863C498.429,939.735 501.131,942.606 503.832,945.475C504.887,936.587 502.238,927.742 496.154,921.116C493.925,918.69 489.86,915.765 486.414,917.882C477.178,923.55 465.773,930.317 462.754,941.505C465.129,940.638 467.504,939.772 469.88,938.905C459.526,936.771 449.272,937.332 438.801,938.227C429.907,938.988 420.375,940.306 411.653,937.77C413.895,940.152 416.134,942.535 418.377,944.917C417.85,938.766 417.796,928.889 418.762,921.455C419.234,917.825 419.867,914.1 421.489,910.775C422.55,908.598 424.653,906.579 425.694,905.932C430.553,902.919 426.208,895.625 421.824,894.678C399.373,889.826 403.056,930.847 404.216,943.769C404.503,946.965 408.045,950.086 410.941,950.917C430.198,956.438 449.893,947.93 469.18,951.825C471.641,952.324 475.459,952.42 476.305,949.226C478.72,940.116 488.119,934.689 495.553,929.94C492.773,929.363 489.993,928.785 487.213,928.206C490.493,931.681 490.868,936.677 490.394,941.167C489.942,945.426 494.544,949.481 498.498,949.779C521.368,951.498 544.028,944.776 566.846,948.28C569.136,948.632 571.936,946.828 571.786,944.296C570.894,929.262 572.912,911.558 565.696,897.774Z" style="fill:rgb(1,1,1);fill-rule:nonzero;"/>
        <path d="M526.06,813.688C525.813,812.918 523.72,811.236 523.366,812.82C521.501,821.196 516.056,824.257 508.19,826.275C501.764,827.922 492.742,829.013 486.354,826.773C484.228,826.028 486.471,827.315 485.944,826.65C485.481,826.099 485.051,825.52 484.657,824.917C483.826,823.577 483.103,821.96 482.683,820.439C481.857,817.452 482.387,814.122 481.721,811.725C479.773,804.712 469.324,803.25 469.481,812.02C469.613,819.422 473.601,828.424 479.218,833.288C485.198,838.465 493.493,838.475 500.994,837.837C508.282,837.215 515.516,835.492 521.549,831.159C527.668,826.758 528.233,820.451 526.06,813.688Z" style="fill:rgb(1,1,1);fill-rule:nonzero;"/>
        <path d="M570.111,802.099C575.307,806.482 581.334,809.667 586.225,814.501C591.101,819.319 594.851,824.822 597.89,830.941C598.006,829.102 598.122,827.265 598.238,825.425C593.787,829.408 586.929,830.785 581.848,833.882C576.443,837.178 571.985,843.928 578.831,848.869C580.551,850.111 584.149,851.873 585.846,849.437C591.207,841.747 601.813,840.709 608.482,834.416C609.886,833.093 609.66,830.437 608.832,828.9C604.589,821.036 598.67,813.866 591.81,808.135C586.218,803.467 578.745,797.651 571.095,797.517C568.262,797.47 568.365,800.63 570.111,802.099Z" style="fill:rgb(1,1,1);fill-rule:nonzero;"/>
        <path d="M416.332,780.827C413.217,777.921 409.142,785.053 407.352,786.765C402.961,790.968 397.993,794.529 393.004,797.981C382.93,804.953 372.039,811.688 364.023,821.11C360.149,825.663 366.45,831.368 370.734,832.013C377.2,832.987 383.159,834.887 388.94,837.983C391.848,839.542 394.704,841.188 397.505,842.931C400.351,844.702 402.849,846.711 406.347,846.666C409.901,846.618 412.087,843.576 410.298,840.204C406.7,833.422 396.877,829.041 390.09,825.882C383.162,822.657 375.801,819.977 368.089,819.66C370.572,822.884 373.058,826.107 375.542,829.332C381.346,818.91 393.5,811.778 402.409,804.273C406.553,800.781 423.403,787.419 416.332,780.827Z" style="fill:rgb(1,1,1);fill-rule:nonzero;"/>
        <path d="M543.599,942.489C542.731,941.139 539.308,940.873 540.055,943.159C545.71,960.471 546.232,979.113 538.354,995.793C536.533,999.651 541.889,1003.7 545.305,1003.2C547.971,1002.82 550.916,1002.64 553.507,1003.56C554.508,1003.91 555.255,1005.05 554.82,1003.84C554.474,1003.43 554.278,1003.73 554.228,1004.72C551.615,1008.05 548.601,1010.14 544.346,1010.6C540.61,1011 528.308,1010.56 528.19,1004.77C527.998,995.519 532.313,986.9 533.004,977.757C533.841,966.672 533.818,954.868 529.576,944.455C526.322,945.061 523.068,945.669 519.814,946.274C520.513,947.744 521.394,948.938 522.302,950.274C523.853,952.552 528.683,954.332 530.056,950.902C530.973,948.614 530.615,946.636 529.576,944.455C526.922,938.88 516.747,938.841 519.814,946.274C525.843,960.891 521.611,977.258 518.71,991.992C517.647,997.382 516.781,1003.21 519.372,1008.31C521.887,1013.26 527.082,1016.71 532.189,1018.52C542.683,1022.25 557.018,1021.94 563.372,1011.25C566.552,1005.9 563.978,1000.2 559.184,996.882C553.903,993.223 547.027,992.8 540.863,993.777C543.18,996.246 545.499,998.715 547.815,1001.18C552.142,982.123 554.763,959.843 543.599,942.489Z" style="fill:rgb(1,1,1);fill-rule:nonzero;"/>
        <path d="M449.061,948.594C448.777,947.29 445.652,945.114 445.099,947.321C442.933,955.95 443.092,965.417 442.291,974.265C441.44,983.688 439.714,992.729 437.909,1001.98C437.306,1005.08 441.232,1008.34 444.007,1008.46C445.081,1008.51 450.217,1008.58 449.284,1010.5C447.869,1013.42 444.546,1014.85 441.458,1015.01C435.186,1015.34 428.358,1012.95 423.123,1009.61C424.267,1011.97 425.41,1014.33 426.553,1016.69C429.752,1002.3 433.984,988.504 434.113,973.638C434.151,969.238 434.189,964.837 434.227,960.438C434.25,957.719 434.752,954.341 433.965,951.695C433.104,948.801 430.692,946.318 427.548,946.063C424.899,945.847 422.541,948.082 423.36,950.834C423.488,951.262 423.615,951.692 423.743,952.12C424.696,955.319 431.538,960.618 433.455,955.249C433.578,954.901 433.701,954.554 433.827,954.207C435.756,948.799 425.649,942.299 423.5,948.321C422.574,950.914 423.076,954.174 423.1,956.869C423.136,961.053 423.172,965.235 423.208,969.418C423.332,983.797 419.483,997.001 416.471,1010.94C415.816,1013.97 417.351,1016.41 419.902,1018.02C429.282,1023.95 444.957,1028.81 454.773,1021.56C459.452,1018.1 461.276,1012.36 458.178,1007.19C454.76,1001.5 448.348,998.937 441.924,998.738C443.957,1000.9 445.989,1003.06 448.022,1005.22C449.257,995.881 449.721,986.197 450.147,976.777C450.563,967.58 451.034,957.635 449.061,948.594Z" style="fill:rgb(1,1,1);fill-rule:nonzero;"/>
        <path d="M599.946,838.699C597.759,840.766 600.044,845.668 600.882,847.998C602.412,852.249 604.327,856.322 606.331,860.367C608.481,864.713 610.649,869.044 612.705,873.435C614.28,876.797 617.603,881.784 617.805,885.541C618.06,890.342 626.725,895.411 627.733,888.724C628.468,883.857 624.781,879.734 620.077,878.995C615.104,878.216 617.576,886.012 618.323,887.962C621.049,887.015 623.771,886.067 626.496,885.12C624.074,881.658 622.55,877.112 620.522,873.378C618.18,869.065 615.754,864.801 613.478,860.452C611.339,856.362 609.234,852.243 607.322,848.042C606.003,845.141 605.115,840.897 602.502,838.905C601.745,838.33 600.728,837.96 599.946,838.699Z" style="fill:rgb(1,1,1);fill-rule:nonzero;"/>
        <path d="M630.827,900.461C632.156,900.98 629.275,899.445 631.642,900.921C632.021,901.183 632.433,901.39 632.871,901.536C633.551,901.796 634.237,902.038 634.908,902.323C636.429,902.969 637.945,903.636 639.422,904.377C640.271,904.801 641.117,905.231 641.921,905.733C642.214,905.911 642.502,906.094 642.785,906.288C642.325,905.954 642.317,905.962 642.763,906.309C643.224,906.735 643.167,906.654 642.597,906.068C642.93,906.532 643.31,906.956 643.738,907.339C645.103,908.333 641.825,904.973 642.626,903.765C640.999,906.217 643.54,909.846 646.367,909.839C649.248,909.834 651.59,908.185 650.967,905.002C650.371,901.95 647.311,899.84 644.637,898.636C640.056,896.576 634.264,894.295 629.419,896.361C627.255,897.284 629.645,900.001 630.827,900.461Z" style="fill:rgb(1,1,1);fill-rule:nonzero;"/>
        <path d="M623.445,905.037C625.767,907.161 628.04,909.575 629.746,912.233C631.411,914.828 630.146,916.324 630.181,919.104C630.211,921.572 632.672,923.952 635.21,923.517C641.36,922.464 639.584,915.001 637.243,911.268C634.461,906.831 630.21,903.761 625.575,901.487C622.745,900.1 621.289,903.065 623.445,905.037Z" style="fill:rgb(1,1,1);fill-rule:nonzero;"/>
        <path d="M614.094,907.773C613.743,910.869 614.5,914.445 614.559,917.61C614.61,920.375 613.586,923.5 614.131,926.163C614.644,928.677 617.971,931.257 620.527,929.88C623.775,928.127 623.344,922.355 622.722,919.26C621.948,915.397 620.965,910.748 618.549,907.555C617.474,906.134 614.38,905.245 614.094,907.773Z" style="fill:rgb(1,1,1);fill-rule:nonzero;"/>
        <path d="M611.471,904.198C612.756,902.699 610.703,900.11 609.002,900.185C601.77,900.507 596.632,908.789 598.672,915.587C599.481,918.284 604.1,921.637 605.935,917.927C607.193,915.382 606.968,912.515 607.959,909.877C608.811,907.608 609.905,906.027 611.471,904.198Z" style="fill:rgb(1,1,1);fill-rule:nonzero;"/>
        <path d="M593.608,852.618C592.501,850.82 589.394,851.389 590.346,853.752C592.879,860.029 595.966,866.059 598.694,872.252C601.081,877.673 604.786,885.147 603.746,891.257C602.92,896.115 612.163,900.313 613.188,894.282C613.373,893.196 613.148,892.016 612.946,890.952C612.388,888.015 605.134,883.217 604.106,888.103C603.792,889.595 603.605,890.872 603.842,892.392C604.622,897.396 614.106,899.645 613.092,893.142C610.723,877.967 601.473,865.374 593.608,852.618Z" style="fill:rgb(1,1,1);fill-rule:nonzero;"/>
        <path d="M390.938,844.849C391.485,843.857 389.671,842.595 388.882,843.379C383.396,848.814 378.173,854.308 373.293,860.305C370.665,863.536 368.051,866.784 365.605,870.157C363.824,872.611 361.745,877.282 358.935,878.655C357.913,879.154 357.275,880.327 357.243,881.438C357.017,889.219 356.896,897.002 356.79,904.789C360.437,905.96 364.085,907.129 367.732,908.298C367.422,904.045 366.424,900.123 363.173,897.188C362.071,896.195 360.298,895.566 358.895,896.299C354.972,898.345 356.541,902.506 356.901,906.109C357.384,910.978 367.82,914.82 367.732,908.298C367.651,902.315 367.611,896.332 367.44,890.353C367.348,887.106 366.779,883.656 368.395,880.678C369.949,877.82 371.608,875.02 373.369,872.282C379.265,863.112 385.672,854.412 390.938,844.849Z" style="fill:rgb(1,1,1);fill-rule:nonzero;"/>
        <path d="M347.743,891.978C346.192,896.383 343.666,900.462 340.619,903.995C337.861,907.192 334.355,909.187 331.464,912.107C328.333,915.271 333.948,920.582 337.328,919.794C342.065,918.695 346.169,913.285 348.565,909.345C351.552,904.434 353.584,899.236 352.316,893.45C351.963,891.839 348.605,889.533 347.743,891.978Z" style="fill:rgb(1,1,1);fill-rule:nonzero;"/>
        <path d="M337.044,888.953C332.981,891.332 329.284,894.808 325.976,898.132C324.149,899.967 322.287,901.768 320.472,903.615C318.511,905.611 317.735,906.501 318.175,909.347C318.452,911.152 320.344,912.583 322.074,912.767C326.938,913.288 329.927,907.325 332.496,903.853C335.215,900.177 338.064,896.677 340.934,893.124C342.586,891.082 339.182,887.704 337.044,888.953Z" style="fill:rgb(1,1,1);fill-rule:nonzero;"/>
        <path d="M334.418,880.329C331.305,880.641 327.67,882.226 325.209,884.154C322.533,886.249 319.188,888.652 319.018,892.328C318.872,895.439 322.55,898.145 325.421,896.932C328.131,895.79 329.959,892.291 332.034,890.241C333.931,888.368 336.127,886.92 338.096,885.152C340.344,883.133 336.33,880.139 334.418,880.329Z" style="fill:rgb(1,1,1);fill-rule:nonzero;"/>
        <path d="M386.691,833.081C387.497,831.184 384.524,829.136 383.017,830.459C373.732,838.607 364.357,846.698 355.287,855.09C350.792,859.25 346.099,863.48 342.443,868.424C339.398,872.538 337.085,876.03 340.458,880.805C342.07,883.089 346.767,884.853 348.211,881.434C347.748,882.53 348.989,880.359 349.205,879.922C349.522,879.281 349.317,878.222 349.579,877.682C350.523,875.739 351.765,873.976 353.083,872.265C356.927,867.279 361.185,862.619 365.499,858.036C370.016,853.238 374.655,848.555 379.03,843.624C381.922,840.362 384.965,837.139 386.691,833.081Z" style="fill:rgb(1,1,1);fill-rule:nonzero;"/>
        <path d="M514.362,520.052C516.919,523.062 520.426,525.008 522.994,528.03C525.191,530.616 527.267,533.431 528.71,536.521C531.853,543.248 531.701,550.174 532.967,557.327C533.861,562.39 542.324,567.176 545.318,561.306C550.076,551.982 545.047,539.347 539.883,531.209C535.512,524.321 525.637,514.041 516.672,514.256C513.43,514.335 512.265,517.587 514.362,520.052Z" style="fill:rgb(1,1,1);fill-rule:nonzero;"/>
        <path d="M501.386,524.045C496.258,522.733 496.961,528.466 500.031,530.579C505.01,534.005 508.031,541.475 509.322,547.117C510.824,553.68 510.231,561.304 513.515,567.29C515.261,570.477 520.161,573.855 523.424,570.539C529.713,564.15 524.915,549.96 521.895,542.981C517.901,533.747 511.258,526.566 501.386,524.045Z" style="fill:rgb(1,1,1);fill-rule:nonzero;"/>
        <path d="M484.526,538.408C485.385,545.924 483.979,553.407 484.959,560.828C485.786,567.114 498.464,572.402 499.161,563.697C499.836,555.252 495.828,545.843 492.973,538.013C491.476,533.906 483.878,532.749 484.526,538.408Z" style="fill:rgb(1,1,1);fill-rule:nonzero;"/>
    </g>
    <g id="Search_copy">
        <path d="M808.379,518.207C807.336,522.04 805.795,525.793 803.633,529.206C802.529,530.9 801.304,532.529 799.918,534.019C798.529,535.503 797.025,536.882 795.452,538.161C793.871,539.428 792.233,540.611 790.593,541.756L785.69,545.113C782.462,547.328 779.444,549.679 776.835,552.281C771.568,557.474 768.328,563.907 766.228,570.826C765.147,574.346 764.361,577.754 764.182,580.957C764.11,582.559 764.126,584.092 764.354,585.525C764.587,586.955 764.949,588.284 765.485,589.511C766.576,591.943 768.32,594.067 770.773,595.888C771.98,596.81 773.346,597.642 774.823,598.392C776.293,599.165 777.863,599.847 779.554,600.488L782.213,601.498C783.066,601.817 783.88,602.105 784.694,602.361C786.315,602.881 787.918,603.297 789.528,603.547C792.741,604.07 795.964,604.006 799.119,603.206C805.446,601.631 811.307,596.889 815.768,590.91C820.277,584.916 823.616,577.846 826.157,570.545L826.25,570.278L826.368,570.09C827.633,568.084 828.909,566.083 830.232,564.105C831.539,562.116 832.87,560.135 834.277,558.192C837.04,554.296 840.174,550.462 843.673,547.094C845.385,545.392 847.09,543.832 848.619,542.159C850.158,540.496 851.596,538.76 852.972,536.947C855.732,533.33 858.153,529.386 860.531,525.412C862.883,521.414 865.109,517.318 867.317,513.207L870.582,507.006L872.192,503.921C872.56,503.175 872.939,502.249 873.255,501.335C873.896,499.482 874.351,497.527 874.615,495.563C874.907,493.601 875.005,491.616 874.927,489.643C874.797,485.694 873.929,481.783 872.448,478.044C869.47,470.543 864.035,463.851 857.628,458.06C854.412,455.16 850.956,452.441 847.322,449.908L845.959,448.955L844.551,447.996C843.649,447.395 842.714,446.777 841.775,446.181C839.895,444.994 838.008,443.848 836.116,442.757C832.321,440.602 828.455,438.722 824.625,437.319C820.796,435.959 816.975,435.104 813.586,435.182C810.185,435.286 807.355,436.224 804.807,438.229C803.516,439.217 802.333,440.509 801.218,442.018C800.657,442.773 800.124,443.585 799.599,444.471C799.335,444.916 799.076,445.376 798.794,445.884L798.333,446.703C798.156,447.013 797.986,447.326 797.659,447.854L798.231,446.506C797.358,448.774 796.854,451.31 796.723,454.038C796.592,456.766 796.864,459.651 797.321,462.593C798.259,468.494 800.14,474.518 802.075,480.561C804.042,486.603 806.239,492.657 807.809,498.924C808.59,502.055 809.196,505.253 809.409,508.501C809.579,511.741 809.394,515.063 808.385,518.196L808.379,518.207ZM807.043,517.785C807.887,514.84 808.098,511.713 807.72,508.645C807.385,505.567 806.569,502.546 805.538,499.603C803.442,493.711 800.504,488.127 797.53,482.492C794.521,476.862 791.463,471.151 789.103,464.784C787.929,461.6 787.003,458.22 786.518,454.609C786.027,451.01 786.046,447.135 786.912,443.294L787.18,442.106L787.485,441.945C787.451,441.963 787.54,441.747 787.621,441.528L787.917,440.752C788.138,440.195 788.385,439.593 788.647,438.986C789.176,437.767 789.778,436.515 790.469,435.277C791.85,432.799 793.641,430.381 795.865,428.232C798.089,426.089 800.803,424.298 803.725,423.048C806.653,421.796 809.762,421.143 812.762,420.912C818.804,420.464 824.37,421.621 829.426,423.283C834.505,424.942 839.144,427.195 843.536,429.676C845.736,430.91 847.867,432.222 849.935,433.597C850.972,434.279 851.99,434.975 853.035,435.698L854.526,436.751L856.039,437.846C860.032,440.828 863.906,444.05 867.525,447.627C871.136,451.206 874.528,455.111 877.468,459.44C880.409,463.759 882.916,468.503 884.644,473.62C886.378,478.724 887.291,484.205 887.127,489.676C887.037,492.41 886.683,495.131 886.077,497.79C885.443,500.446 884.566,503.03 883.414,505.53C882.828,506.789 882.202,507.996 881.39,509.288C880.713,510.328 880.077,511.284 879.398,512.275L875.345,518.151C872.617,522.056 869.794,525.909 866.869,529.708C863.962,533.521 860.89,537.239 857.601,540.841C855.951,542.633 854.205,544.372 852.38,546.001C850.553,547.632 848.705,549.163 846.958,550.653C845.221,552.157 843.605,553.714 842.068,555.392C840.549,557.081 839.103,558.864 837.719,560.711C836.35,562.569 835.024,564.475 833.742,566.418C832.478,568.372 831.241,570.351 830.038,572.354L830.249,571.899C827.834,579.518 825.026,587.104 820.874,594.29C818.787,597.868 816.334,601.345 813.279,604.468C810.233,607.577 806.508,610.302 802.212,612.088C797.933,613.906 793.144,614.677 788.524,614.464C786.213,614.355 783.935,614.038 781.75,613.558C780.66,613.315 779.59,613.034 778.57,612.746L777.111,612.329C776.643,612.194 776.128,612.052 775.626,611.89C773.596,611.253 771.495,610.494 769.42,609.552C767.355,608.587 765.303,607.434 763.334,606.027C759.432,603.232 755.838,599.169 753.943,594.285C752.972,591.873 752.397,589.338 752.203,586.856C752.005,584.375 752.094,581.948 752.465,579.638C753.158,575.002 754.741,570.825 756.513,567.02C758.329,563.156 760.578,559.418 763.332,556.064C766.08,552.709 769.321,549.77 772.799,547.383C779.778,542.534 787.441,540.143 793.897,536.019C797.134,533.979 800.022,531.402 802.235,528.269C804.477,525.152 805.991,521.544 807.038,517.804L807.043,517.785Z" style="fill-rule:nonzero;"/>
        <path d="M831.187,397.081C830.601,399.412 830.157,401.787 829.729,404.367C829.495,405.648 829.27,406.992 828.929,408.354C828.578,409.707 828.142,411.095 827.524,412.453C826.285,415.141 824.242,417.736 821.168,419.367C819.644,420.179 817.881,420.748 816,420.926C814.125,421.112 812.144,420.875 810.356,420.221C808.565,419.565 806.954,418.521 805.71,417.257C804.459,415.995 803.53,414.593 802.854,413.184C801.523,410.339 801.016,407.616 800.527,405.054C800.06,402.482 799.701,399.988 799.417,397.429C799.166,394.879 798.88,392.252 798.87,389.533C798.848,386.824 799.09,383.993 799.916,381.249C800.725,378.495 802.133,375.886 803.987,373.427C805.849,370.981 808.224,368.626 811.47,366.924C814.72,365.248 818.895,364.368 823.263,365.541L823.769,365.694C824.068,365.784 824.399,365.889 824.62,365.973C825.11,366.149 825.586,366.362 826.053,366.585C826.988,367.029 827.856,367.576 828.656,368.171C830.252,369.371 831.552,370.784 832.518,372.288C834.456,375.314 835.024,378.618 834.896,381.614C834.761,384.637 833.964,387.383 833.225,389.893C832.455,392.408 831.772,394.733 831.19,397.077L831.187,397.081ZM829.824,396.757C830.312,394.498 830.213,392.1 829.448,389.887C829.092,388.78 828.547,387.727 827.941,386.761C827.349,385.792 826.642,384.916 825.933,384.149C824.519,382.605 823.061,381.526 822.01,380.878C821.477,380.556 821.039,380.329 820.661,380.225C820.474,380.17 820.306,380.14 820.155,380.116L819.932,380.095C819.873,380.08 819.92,380.108 819.935,380.114L819.583,380.044C819.855,380.111 819.654,380.063 819.714,380.078L819.707,380.078L819.694,380.078L819.668,380.078L819.615,380.078L819.513,380.072C819.446,380.066 819.376,380.071 819.307,380.072C819.168,380.058 819.02,380.081 818.849,380.079C818.513,380.101 818.073,380.144 817.546,380.29C816.484,380.56 815.105,381.239 813.805,382.294C812.495,383.35 811.297,384.739 810.019,386.224C808.755,387.722 807.431,389.384 806.33,391.277C805.251,393.162 804.38,395.257 804.125,397.435C803.836,399.601 804.043,401.847 804.857,403.827C805.654,405.804 807.17,407.464 808.83,408.294C809.652,408.711 810.462,408.951 811.185,408.991C811.908,409.038 812.497,408.953 813.007,408.838L816.024,408.063C817.258,407.722 818.97,407.283 820.893,406.469C821.858,406.073 822.864,405.578 823.821,404.963C824.787,404.355 825.74,403.644 826.547,402.803C828.208,401.141 829.33,399.023 829.823,396.752L829.824,396.757Z" style="fill-rule:nonzero;"/>
        <path d="M855.609,409.821C855.184,411.441 854.977,413.173 854.858,415.108C854.778,416.071 854.731,417.109 854.586,418.177C854.432,419.236 854.211,420.343 853.83,421.439C853.063,423.604 851.58,425.746 849.146,427.08C847.942,427.744 846.526,428.215 844.994,428.345C843.467,428.481 841.847,428.263 840.402,427.692C839.967,427.58 840.271,427.655 840.171,427.628L840.153,427.617L840.118,427.596L840.049,427.555L839.911,427.472C839.807,427.407 839.782,427.371 839.516,427.249C839.1,427.043 838.651,426.809 838.376,426.605C837.759,426.164 837.199,425.684 836.724,425.147C835.765,424.081 835.102,422.921 834.649,421.787C833.761,419.492 833.555,417.424 833.258,415.539L832.43,410.009C832.163,408.164 831.807,406.245 831.628,404.212C831.511,403.309 831.492,402.116 831.541,401.102C831.58,400.045 831.706,398.973 831.968,397.921C832.467,395.801 833.482,393.788 834.864,391.854C836.254,389.931 838.069,388.029 840.676,386.623C841.98,385.942 843.478,385.382 845.14,385.157C846.793,384.918 848.582,385.004 850.26,385.448L850.553,385.524L850.572,385.53L850.608,385.543L850.682,385.569L850.828,385.62L851.283,385.776C851.789,385.954 852.348,386.184 852.682,386.362C853.459,386.73 854.164,387.198 854.822,387.693C856.128,388.696 857.161,389.867 857.904,391.098C859.4,393.576 859.666,396.225 859.344,398.542C859.181,399.71 858.865,400.812 858.529,401.836C858.178,402.864 857.755,403.822 857.395,404.726C856.632,406.535 856.026,408.153 855.611,409.811L855.609,409.821ZM854.248,409.491C854.568,407.919 854.393,406.228 853.622,404.72C853.263,403.967 852.741,403.266 852.181,402.651C851.635,402.032 850.997,401.503 850.384,401.075C849.162,400.209 848.006,399.784 847.402,399.69C846.778,399.546 846.7,399.887 846.861,400.018C846.923,400.093 847.032,400.106 847.041,400.072C847.057,400.047 846.954,399.992 846.75,399.992C846.334,399.963 845.514,400.188 844.687,400.721C843.849,401.251 843.043,402.047 842.077,402.897C841.605,403.332 841.085,403.789 840.577,404.297C840.077,404.846 839.594,405.246 839.093,405.956C838.179,407.154 837.392,408.543 837.133,410.015C836.856,411.475 836.967,413.013 837.594,414.313C838.198,415.612 839.413,416.618 840.627,416.895C841.226,417.038 841.773,417.039 842.202,416.882C842.423,416.79 842.581,416.733 842.73,416.608C842.831,416.585 842.777,416.475 842.751,416.411C842.678,416.365 842.855,416.375 842.951,416.367L843.112,416.366L843.254,416.366C843.165,416.342 843.482,416.42 843.06,416.311C843.376,415.882 843.367,415.812 844.01,415.775C844.6,415.732 845.751,415.748 847.201,415.457C847.93,415.322 848.72,415.109 849.48,414.787C850.251,414.473 851.026,414.068 851.678,413.545C853.034,412.51 853.906,411.085 854.251,409.482L854.248,409.491Z" style="fill-rule:nonzero;"/>
        <path d="M875.74,423.506L875.734,423.522C875.284,424.79 875.072,426.194 874.969,427.832C874.897,428.645 874.861,429.54 874.733,430.462C874.596,431.376 874.4,432.338 874.052,433.288C873.355,435.159 871.985,436.987 869.764,438.011C868.666,438.522 867.38,438.842 866.006,438.843C864.639,438.85 863.206,438.526 861.969,437.891C861.545,437.745 861.845,437.845 861.746,437.809L861.733,437.799L861.708,437.778L861.656,437.736L861.554,437.653C861.474,437.587 861.473,437.556 861.236,437.422C860.876,437.201 860.484,436.947 860.263,436.743C859.755,436.292 859.303,435.817 858.937,435.293C858.196,434.255 857.738,433.171 857.47,432.139C856.955,430.053 857.032,428.29 856.949,426.711C856.891,425.127 856.768,423.658 856.612,422.117C856.467,420.586 856.195,418.969 856.08,417.243C855.985,416.486 856.002,415.453 856.064,414.595C856.121,413.696 856.255,412.783 856.515,411.897C857.008,410.104 857.977,408.442 859.272,406.853C860.571,405.272 862.252,403.71 864.652,402.628C865.851,402.107 867.225,401.706 868.736,401.62C869.49,401.568 870.262,401.598 871.042,401.7C871.43,401.749 871.815,401.833 872.199,401.92C872.391,401.961 872.58,402.017 872.769,402.071L873.598,402.344L874.209,402.617C874.662,402.818 875.162,403.075 875.445,403.259C876.117,403.651 876.715,404.126 877.265,404.621C878.356,405.624 879.182,406.748 879.732,407.898C880.838,410.215 880.776,412.562 880.208,414.523C879.921,415.513 879.5,416.421 879.075,417.252C878.637,418.085 878.142,418.84 877.724,419.548C876.849,420.963 876.186,422.201 875.74,423.506ZM874.405,423.081C874.75,421.854 874.639,420.481 873.966,419.247C873.653,418.632 873.187,418.058 872.685,417.564C872.198,417.068 871.623,416.654 871.078,416.341C869.993,415.704 868.991,415.505 868.584,415.634C868.374,415.697 868.308,415.817 868.348,416.007C868.37,416.101 868.422,416.193 868.501,416.284C868.497,416.299 868.689,416.432 868.84,416.495C868.991,416.551 868.824,416.499 868.761,416.484L868.52,416.419C869.057,416.602 868.671,416.472 868.792,416.514L868.797,416.517L868.807,416.524L868.828,416.537L868.869,416.559C868.898,416.57 868.929,416.575 868.957,416.589C869.015,416.613 869.077,416.621 869.134,416.641C869.255,416.645 869.361,416.671 869.452,416.641C869.634,416.61 869.7,416.511 869.65,416.438C869.548,416.264 868.991,416.233 868.364,416.473C867.729,416.711 867.066,417.177 866.199,417.662C865.779,417.916 865.3,418.184 864.82,418.5C864.344,418.855 863.889,419.065 863.385,419.572C862.477,420.38 861.651,421.378 861.302,422.496C860.936,423.601 860.912,424.81 861.37,425.833C861.805,426.854 862.82,427.636 863.82,427.737C864.31,427.792 864.745,427.712 865.055,427.488C865.217,427.364 865.311,427.273 865.396,427.122C865.462,427.086 865.379,426.956 865.321,426.873C865.233,426.812 865.39,426.831 865.467,426.823L865.599,426.824L865.665,426.825L865.714,426.825C865.626,426.793 865.935,426.897 865.521,426.754C865.556,426.251 865.206,426.204 865.542,426.333C865.822,426.449 866.691,426.746 867.921,426.797C868.538,426.834 869.232,426.807 869.914,426.676C870.606,426.553 871.317,426.348 871.926,426.02C873.186,425.379 874.033,424.334 874.405,423.081Z" style="fill-rule:nonzero;"/>
        <path d="M886.42,439.032C885.813,439.941 885.424,441.051 885.111,442.437C884.935,443.119 884.78,443.894 884.535,444.682C884.283,445.458 883.967,446.275 883.513,447.051C882.607,448.573 881.08,449.93 878.932,450.368C877.869,450.588 876.672,450.593 875.462,450.29C874.858,450.139 874.261,449.918 873.692,449.62C873.409,449.474 873.135,449.303 872.871,449.124C872.739,449.035 872.613,448.936 872.487,448.838L872.301,448.689L872.211,448.612L872.166,448.573L872.144,448.553C872.052,448.493 872.316,448.66 871.934,448.413L871.814,448.229C871.767,448.155 871.785,448.132 871.599,447.955C871.327,447.673 871.034,447.352 870.89,447.123C870.554,446.605 870.271,446.083 870.081,445.536C869.688,444.451 869.563,443.402 869.596,442.453C869.687,440.541 870.211,439.105 870.497,437.805C870.809,436.506 870.989,435.3 871.127,434.007C871.189,433.361 871.239,432.694 871.284,431.999L871.351,430.931L871.394,430.384L871.423,430.11L871.439,429.972L871.447,429.903L871.451,429.868L871.453,429.851C871.47,429.821 871.42,429.894 871.49,429.778C871.498,429.464 871.481,429.178 871.594,428.729C871.684,428.3 871.749,427.958 871.858,427.572C872.05,426.812 872.315,426.053 872.691,425.345C873.421,423.902 874.561,422.679 875.979,421.572C877.399,420.472 879.164,419.449 881.5,419C882.663,418.795 883.966,418.732 885.329,418.985C886.687,419.223 888.081,419.764 889.284,420.563C889.77,420.874 889.425,420.654 889.535,420.725L889.565,420.749L889.682,420.845C889.749,420.899 889.727,420.887 889.976,421.074C890.343,421.358 890.741,421.71 890.949,421.933C891.461,422.433 891.885,422.99 892.262,423.553C893.002,424.689 893.475,425.865 893.687,426.995C894.117,429.272 893.465,431.278 892.456,432.794C891.945,433.56 891.335,434.216 890.749,434.796C890.147,435.375 889.52,435.868 888.984,436.336C887.872,437.258 887.042,438.074 886.426,439.019L886.42,439.032ZM885.233,438.29C885.732,437.397 885.843,436.265 885.405,435.145C885.21,434.593 884.86,434.046 884.467,433.571C884.088,433.097 883.613,432.683 883.153,432.375C882.241,431.749 881.344,431.572 881.007,431.836C880.664,432.048 880.845,432.834 881.462,433.319C881.746,433.561 882.121,433.714 882.426,433.74C882.735,433.779 882.949,433.7 883.045,433.605C883.239,433.384 882.947,433.131 882.501,433.089C882.048,433.043 881.492,433.176 880.713,433.26C880.333,433.316 879.887,433.366 879.423,433.458C879.203,433.497 878.944,433.584 878.735,433.601C878.538,433.59 878.236,433.761 877.956,433.9C878.021,433.791 877.968,433.872 877.979,433.849L877.968,433.853L877.947,433.862L877.903,433.88L877.816,433.915L877.64,433.988L877.291,434.145C877.05,434.249 876.838,434.378 876.63,434.516C876.214,434.791 875.865,435.126 875.588,435.499C875.048,436.244 874.788,437.163 874.999,438.012C875.187,438.855 875.957,439.601 876.814,439.702C877.232,439.755 877.613,439.669 877.889,439.427C878.036,439.297 878.109,439.182 878.179,439.015C878.23,438.973 878.155,438.81 878.092,438.695C878.01,438.605 878.143,438.652 878.206,438.653L878.422,438.693C878.047,438.45 878.318,438.622 878.234,438.566L878.233,438.559L878.232,438.545L878.229,438.517L878.219,438.467L878.192,438.37C878.171,438.304 878.138,438.255 878.109,438.197C878.039,438.103 877.965,438.014 877.886,437.975C877.73,437.887 877.62,437.908 877.625,438.018C877.618,438.227 878.148,438.815 879.109,439.28C879.589,439.526 880.165,439.737 880.759,439.851C881.361,439.976 882.006,440.032 882.585,439.949C883.788,439.809 884.71,439.198 885.235,438.281L885.233,438.29Z" style="fill-rule:nonzero;"/>
        <path d="M907.565,457.417C907.258,458.23 907.233,459.194 907.371,460.423C907.419,461.03 907.514,461.728 907.53,462.464C907.537,463.19 907.497,463.975 907.319,464.759C906.96,466.299 905.984,467.848 904.21,468.703C903.334,469.13 902.282,469.39 901.147,469.376C900.018,469.367 898.828,469.067 897.822,468.499C897.397,468.351 897.7,468.453 897.603,468.418L897.595,468.41L897.58,468.393L897.55,468.359L897.49,468.291C897.436,468.234 897.469,468.214 897.259,468.092C896.953,467.895 896.617,467.661 896.448,467.486C896.049,467.088 895.697,466.679 895.427,466.226C894.878,465.332 894.585,464.427 894.457,463.589C894.223,461.895 894.474,460.59 894.488,459.479C894.528,458.363 894.427,457.375 894.239,456.309C894.062,455.253 893.696,454.104 893.443,452.832C893.278,452.302 893.214,451.492 893.182,450.852C893.145,450.17 893.172,449.471 893.314,448.79C893.569,447.407 894.251,446.131 895.205,444.875C896.163,443.625 897.448,442.345 899.402,441.435C900.379,440.999 901.519,440.657 902.792,440.587C904.057,440.503 905.427,440.687 906.678,441.148C907.216,441.334 906.832,441.202 906.954,441.245L906.982,441.259L907.017,441.278L907.088,441.315C907.154,441.348 907.112,441.335 907.387,441.452C907.784,441.629 908.229,441.868 908.459,442.021C909.024,442.361 909.522,442.77 909.976,443.195C910.874,444.056 911.537,445.003 911.945,445.96C912.782,447.885 912.514,449.781 911.859,451.269C911.193,452.783 910.107,453.925 909.291,454.857C908.465,455.795 907.864,456.557 907.568,457.408L907.565,457.417ZM906.237,456.974C906.457,456.204 906.218,455.293 905.531,454.534C904.857,453.772 903.716,453.199 902.727,453.04C901.748,452.861 900.886,453.124 900.759,453.643C900.6,454.116 901.149,454.989 902.069,455.382C902.508,455.584 903.023,455.659 903.438,455.609C903.859,455.57 904.161,455.418 904.336,455.265C904.685,454.929 904.531,454.623 904.25,454.534C903.963,454.443 903.592,454.524 902.97,454.597C902.672,454.645 902.302,454.7 901.918,454.795C901.539,454.931 901.168,454.916 900.736,455.193C899.969,455.542 899.24,456.067 898.925,456.707C898.594,457.335 898.549,458.063 898.911,458.619C899.25,459.174 900.096,459.503 900.824,459.215C901.179,459.076 901.455,458.817 901.577,458.447C901.645,458.252 901.642,458.091 901.622,457.886C901.637,457.82 901.498,457.667 901.386,457.559C901.271,457.484 901.405,457.496 901.45,457.477L901.54,457.464L901.585,457.458L901.607,457.455L901.619,457.454C901.528,457.421 901.837,457.526 901.419,457.379C901.001,456.729 900.15,456.712 900.039,457.005C899.87,457.286 900.334,457.86 901.214,458.24C901.656,458.443 902.19,458.596 902.725,458.656C903.269,458.724 903.846,458.719 904.332,458.598C905.353,458.371 906.014,457.766 906.239,456.965L906.237,456.974Z" style="fill-rule:nonzero;"/>
        <g>
            <path d="M743.496,669.76L627.906,986.777C627.906,986.777 630.675,1012.98 664.12,1001C697.572,989.017 776.939,683.088 776.939,683.088L743.496,669.76Z" style="fill:rgb(35,31,32);fill-rule:nonzero;"/>
            <path d="M743.617,670.026C741.398,676.626 739.142,683.211 736.867,689.789L729.976,709.725L715.981,749.518C706.546,776.008 697.06,802.48 687.371,828.877C682.524,842.074 677.585,855.238 672.595,868.384L657.666,907.836C652.674,920.982 647.779,934.161 642.938,947.362C638.074,960.553 633.375,973.805 628.585,987.024L628.624,986.7C629.201,990.46 630.849,994.225 633.383,997.097C635.909,1000.01 639.419,1001.93 643.191,1002.68C646.97,1003.46 650.933,1003.22 654.776,1002.49C656.702,1002.12 658.609,1001.63 660.491,1001.04C661.431,1000.74 662.366,1000.43 663.295,1000.09C663.776,999.919 664.178,999.755 664.542,999.562C664.933,999.361 665.316,999.12 665.689,998.853C667.186,997.786 668.526,996.374 669.763,994.883C671.002,993.384 672.143,991.779 673.226,990.132C675.39,986.83 677.33,983.355 679.162,979.821C682.813,972.743 686.103,965.451 689.202,958.078C701.442,928.5 711.668,898.054 721.418,867.503C731.213,836.954 740.457,806.221 749.596,775.452C754.154,760.064 758.602,744.642 763.004,729.208C767.462,713.788 771.832,698.339 776.111,682.871L776.623,683.881C765.621,679.263 754.598,674.697 743.617,670.026ZM743.571,669.573C754.821,673.758 766.028,678.052 777.257,682.292L777.952,682.555L777.768,683.302C773.924,698.903 769.904,714.449 765.841,729.99C761.715,745.512 757.47,761.004 753.154,776.476C744.529,807.424 735.348,838.222 725.455,868.805C720.455,884.079 715.295,899.304 709.848,914.435C704.396,929.563 698.681,944.611 692.215,959.372C688.967,966.744 685.588,974.074 681.704,981.177C679.759,984.725 677.702,988.225 675.389,991.589C674.228,993.269 673.002,994.914 671.647,996.48C670.288,998.04 668.815,999.544 667.012,1000.77C666.561,1001.08 666.086,1001.37 665.579,1001.61C665.05,1001.88 664.512,1002.07 664.043,1002.23C663.078,1002.55 662.105,1002.86 661.123,1003.14C659.162,1003.71 657.168,1004.19 655.144,1004.53C651.107,1005.22 646.892,1005.4 642.799,1004.48C638.718,1003.58 634.857,1001.37 632.172,998.142C630.818,996.544 629.742,994.737 628.909,992.839C628.081,990.927 627.473,988.976 627.186,986.853L627.165,986.696L627.226,986.529C632.07,973.33 637.003,960.164 641.771,946.937C646.564,933.719 651.3,920.481 655.941,907.208L669.91,867.405C674.553,854.133 679.246,840.879 684.031,827.659C693.606,801.22 703.386,774.855 713.217,748.51L728.119,709.048L735.678,689.356C738.196,682.792 740.732,676.235 743.309,669.692L743.383,669.504L743.571,669.573Z" style="fill-rule:nonzero;"/>
        </g>
        <path d="M887.618,318.575C882.807,316.312 877.859,314.384 872.772,312.888C867.679,311.428 862.479,310.329 857.219,309.769C846.705,308.618 836.02,309.387 825.844,311.996C820.75,313.278 815.766,314.949 810.939,316.983C806.121,319.038 801.453,321.424 796.954,324.086C787.945,329.401 779.629,335.804 771.914,342.83C764.166,349.828 757.085,357.538 750.422,365.574C747.102,369.603 743.879,373.716 740.801,377.939C737.685,382.133 734.719,386.44 731.828,390.799C720.297,408.256 710.377,426.81 701.96,446.056C697.737,455.675 693.913,465.484 690.547,475.46C687.151,485.427 684.244,495.574 681.869,505.854C677.172,526.4 674.623,547.61 675.885,568.716C676.518,579.25 678.069,589.749 680.892,599.892C683.717,610.015 687.634,619.871 693.148,628.757C695.874,633.212 698.963,637.427 702.371,641.351C705.817,645.242 709.59,648.826 713.659,652.02C717.718,655.226 722.067,658.048 726.642,660.431C731.193,662.818 736.032,664.831 740.912,666.61C750.688,670.136 760.843,672.449 771.068,673.267C776.179,673.682 781.305,673.717 786.396,673.393C791.489,673.093 796.55,672.419 801.536,671.386C811.5,669.296 821.189,665.928 830.333,661.366C839.48,656.814 848.137,651.221 856.188,644.815C864.25,638.419 871.722,631.241 878.645,623.551C885.582,615.867 891.958,607.651 897.806,599.063C909.469,581.859 919.241,563.319 927.086,543.992C934.959,524.673 940.908,504.545 944.713,484.027C945.664,478.898 946.514,473.748 947.177,468.574C947.889,463.406 948.447,458.215 948.826,453.011C949.547,442.606 949.767,432.143 949.063,421.719C948.388,411.299 946.909,400.901 944.293,390.756C942.989,385.684 941.413,380.677 939.538,375.775C937.639,370.883 935.42,366.11 932.895,361.496C927.875,352.251 921.415,343.745 913.747,336.455C909.923,332.798 905.766,329.492 901.402,326.485C897.022,323.503 892.399,320.875 887.618,318.575ZM888.169,317.397L888.173,317.399C893.037,319.671 897.735,322.303 902.225,325.256C906.735,328.183 911,331.485 915.038,335.049C923.114,342.189 930.094,350.565 935.947,359.686C938.867,364.254 941.47,369.029 943.794,373.941C946.144,378.842 948.201,383.89 949.983,389.037C953.541,399.334 956.068,410.002 957.654,420.806C959.207,431.613 959.946,442.553 959.767,453.474C959.699,458.935 959.449,464.394 959.027,469.84C958.559,475.28 957.945,480.709 957.135,486.109C955.517,496.908 953.198,507.592 950.327,518.121C947.478,528.657 943.968,539.009 939.969,549.167C931.89,569.445 921.64,588.924 908.962,606.813C896.315,624.684 881.369,641.159 863.712,654.531C854.893,661.198 845.415,667.102 835.292,671.755C825.18,676.398 814.459,679.903 803.415,681.651C797.901,682.546 792.324,683.043 786.749,683.13C781.173,683.193 775.603,682.836 770.103,682.088C759.097,680.597 748.4,677.515 738.312,673.237C733.27,671.089 728.342,668.73 723.576,665.902C718.834,663.078 714.33,659.861 710.152,656.278C705.966,652.7 702.144,648.723 698.673,644.485C695.194,640.254 692.073,635.743 689.353,631.016C683.935,621.549 679.851,611.396 677.073,600.934C674.283,590.471 672.566,579.768 671.701,569.012C670.007,547.487 671.348,525.799 674.83,504.472C676.579,493.805 678.899,483.223 681.74,472.773C684.602,462.329 688.01,452.025 691.939,441.913C699.851,421.715 709.937,402.303 722.278,384.351C734.607,366.418 749.356,349.97 766.582,336.493C775.197,329.777 784.455,323.858 794.263,319.071C799.166,316.679 804.215,314.592 809.379,312.865C814.53,311.109 819.799,309.706 825.141,308.737C830.482,307.765 835.89,307.227 841.293,307.081C846.698,306.968 852.104,307.267 857.439,308.026C862.771,308.795 868.043,309.952 873.173,311.557C878.31,313.128 883.335,315.087 888.169,317.397Z" style="fill-rule:nonzero;"/>
        <path d="M747.506,673.752C752.521,675.846 757.606,677.729 762.783,679.279C767.963,680.826 773.23,682.016 778.53,682.912C783.836,683.781 789.189,684.287 794.542,684.431C799.896,684.566 805.249,684.287 810.555,683.673C815.862,683.051 821.114,682.018 826.272,680.647C831.436,679.295 836.504,677.579 841.444,675.543C851.322,671.46 860.715,666.22 869.565,660.147C878.445,654.111 886.771,647.205 894.499,639.657C898.366,635.885 902.087,631.954 905.664,627.89C909.218,623.806 912.619,619.583 915.855,615.236C922.305,606.524 928.129,597.343 933.315,587.821C938.533,578.314 943.014,568.422 947.05,558.378C951.048,548.315 954.446,538.029 957.39,527.637C960.317,517.237 962.762,506.71 964.603,496.083C966.438,485.457 967.659,474.731 968.163,463.983C968.655,453.238 968.561,442.469 967.557,431.785C965.667,410.454 960.329,389.251 949.941,370.495C944.739,361.157 938.317,352.446 930.589,344.966C926.724,341.236 922.612,337.737 918.228,334.587C913.843,331.438 909.207,328.619 904.402,326.092L904.617,325.64C909.638,327.772 914.492,330.327 919.129,333.248C923.768,336.166 928.206,339.443 932.311,343.113C940.54,350.426 947.665,359.039 953.349,368.522C956.196,373.26 958.722,378.192 960.927,383.262C963.115,388.339 964.996,393.545 966.592,398.833C969.795,409.412 971.751,420.326 972.867,431.286C973.896,442.259 974.058,453.298 973.367,464.268C972.68,475.239 971.266,486.145 969.232,496.92C967.201,507.696 964.538,518.345 961.237,528.785C957.954,539.23 953.999,549.449 949.575,559.438C945.187,569.446 940.167,579.154 934.8,588.648C929.395,598.122 923.542,607.338 917.165,616.193C913.986,620.626 910.686,624.976 907.237,629.214C903.814,633.471 900.233,637.61 896.488,641.606C888.995,649.588 880.85,657.022 871.968,663.545C863.064,670.024 853.394,675.551 843.11,679.647C837.972,681.7 832.698,683.421 827.326,684.764C821.949,686.087 816.473,687.008 810.965,687.529C805.457,688.064 799.91,688.124 794.4,687.788C788.887,687.466 783.413,686.694 778.036,685.528C772.652,684.39 767.383,682.795 762.248,680.894C757.111,678.997 752.108,676.768 747.296,674.207L747.506,673.752Z" style="fill-rule:nonzero;"/>
        <path d="M697.428,539.269C696.01,545.466 694.748,551.636 693.714,557.832C693.447,559.379 693.214,560.931 692.988,562.481C692.746,564.029 692.527,565.58 692.336,567.134C691.963,570.241 691.594,573.345 691.264,576.458C690.594,582.672 689.981,588.983 690.528,595.272C690.799,598.409 691.286,601.529 692.03,604.585C692.744,607.648 693.798,610.621 694.95,613.523C697.364,619.294 700.45,624.703 704.115,629.636C707.817,634.552 712.276,638.824 717.139,642.56C721.983,646.339 727.344,649.473 732.958,652.175C738.587,654.859 744.488,657.073 750.531,659.059L750.445,659.45C744.105,658.731 737.805,657.304 731.739,655.08C725.665,652.884 719.845,649.83 714.566,645.964C711.959,643.994 709.464,641.85 707.221,639.46C704.974,637.076 702.908,634.525 701.059,631.832C699.204,629.144 697.568,626.31 696.209,623.355C694.839,620.407 693.776,617.334 692.88,614.242C691.095,608.043 690.054,601.732 689.235,595.406C688.458,589.082 687.76,582.668 687.941,576.234C688.038,573.021 688.331,569.816 688.827,566.645C689.071,565.058 689.343,563.478 689.638,561.902C689.951,560.329 690.307,558.765 690.677,557.207C691.432,554.094 692.318,551.013 693.371,547.99C694.418,544.967 695.589,541.984 697.052,539.127L697.428,539.269Z" style="fill-rule:nonzero;"/>
        <path d="M923.482,466.282C925.427,459.838 927.184,453.398 928.696,446.915C929.083,445.297 929.433,443.671 929.776,442.046C930.135,440.424 930.468,438.797 930.773,437.166C931.375,433.902 931.965,430.641 932.509,427.367C933.608,420.833 934.629,414.193 934.455,407.507C934.369,404.172 934.057,400.839 933.475,397.556C932.922,394.268 932.014,391.052 930.993,387.904C928.836,381.631 925.938,375.694 922.383,370.227C918.79,364.772 914.351,359.949 909.441,355.676C904.553,351.36 899.075,347.699 893.299,344.49C887.508,341.299 881.4,338.594 875.127,336.139L875.236,335.754C881.882,336.964 888.437,338.905 894.693,341.666C900.959,344.399 906.9,348.008 912.216,352.437C914.84,354.687 917.333,357.112 919.548,359.778C921.768,362.438 923.785,365.262 925.567,368.223C927.353,371.18 928.901,374.277 930.149,377.481C931.412,380.681 932.345,383.991 933.101,387.314C934.603,393.974 935.307,400.712 935.75,407.452C936.153,414.189 936.435,421.011 935.811,427.795C935.493,431.182 934.972,434.549 934.245,437.868C933.886,439.529 933.497,441.182 933.083,442.828C932.654,444.471 932.179,446.1 931.689,447.724C930.694,450.967 929.565,454.167 928.268,457.298C926.976,460.429 925.559,463.511 923.847,466.445L923.482,466.282Z" style="fill-rule:nonzero;"/>
    </g>
</svg>
