<?xml version="1.0" encoding="UTF-8" standalone="no"?>
<!DOCTYPE svg PUBLIC "-//W3C//DTD SVG 1.1//EN" "http://www.w3.org/Graphics/SVG/1.1/DTD/svg11.dtd">
<svg width="100%" height="100%" viewBox="0 0 1024 1024" version="1.1" xmlns="http://www.w3.org/2000/svg" xmlns:xlink="http://www.w3.org/1999/xlink" xml:space="preserve" xmlns:serif="http://www.serif.com/" style="fill-rule:evenodd;clip-rule:evenodd;stroke-linejoin:round;stroke-miterlimit:1.41421;">
    <g id="Layer_7_copy">
        <path d="M748.904,644.357C748.895,692.204 739.958,740.075 722.299,784.749C713.48,807.082 702.546,828.637 689.578,848.965C676.6,869.283 661.638,888.404 644.875,905.879C628.078,923.312 609.582,939.201 589.567,952.983C579.573,959.89 569.198,966.255 558.546,972.127C547.866,977.944 536.907,983.271 525.685,987.983C503.242,997.414 479.82,1004.55 455.919,1009.2C432.012,1013.86 407.675,1016.05 383.33,1015.78C359.069,1015.5 334.778,1012.81 311.074,1007.73C287.366,1002.62 264.203,995.161 242.043,985.51C197.684,966.244 157.415,938.281 123.607,904.1C89.782,869.916 62.507,829.334 43.765,785.014C39.077,773.938 34.934,762.625 31.36,751.131C27.748,739.649 24.684,727.986 22.211,716.192C17.291,692.595 14.549,668.531 14.219,644.342C13.498,596.076 22.135,547.363 40.344,502.279C58.428,457.15 85.827,415.745 120.085,381.09C137.211,363.756 156.036,348.074 176.237,334.388C196.445,320.714 218.011,309.021 240.531,299.559C263.04,290.065 286.539,282.905 310.507,278.122C334.479,273.354 358.928,271.01 383.351,271.06C432.195,271.154 481.056,280.99 525.937,300.121C537.159,304.895 548.114,310.271 558.785,316.142C569.431,322.057 579.794,328.471 589.779,335.413C609.769,349.273 628.257,365.2 645.029,382.678C661.782,400.184 676.73,419.33 689.706,439.661C702.671,460.004 713.602,481.569 722.419,503.912C740.073,548.609 748.98,596.506 748.904,644.357ZM747.304,644.355C747.264,632.443 746.671,620.534 745.466,608.686C744.223,596.843 742.449,585.055 740.011,573.407C735.169,550.104 727.93,527.322 718.436,505.565C699.489,462.007 671.547,422.689 637.511,390.197C603.482,357.655 563.336,331.914 520,314.44C498.329,305.706 475.845,299.034 452.928,294.64C430.008,290.274 406.683,288.059 383.352,288.148C336.689,288.196 290.124,297.348 246.936,315.002C203.744,332.646 164.067,358.933 130.78,391.784C97.479,424.637 70.662,464.072 52.207,507.198C47.584,517.976 43.492,528.989 39.952,540.184C36.385,551.37 33.354,562.738 30.897,574.238C25.978,597.245 23.341,620.748 22.98,644.371C22.241,691.517 30.82,739.055 48.786,782.934C66.584,826.87 93.525,867.126 127.259,900.452C160.96,933.83 201.53,960.082 245.426,977.356C267.374,986.001 290.137,992.457 313.275,996.61C324.846,998.669 336.495,1000.25 348.195,1001.21C359.902,1002.19 371.609,1002.54 383.374,1002.44C430.23,1001.96 476.928,992.628 520.254,974.883C563.579,957.16 603.672,931.289 637.668,898.673C671.677,866.115 699.614,826.778 718.559,783.199C728.05,761.431 735.281,738.636 740.104,715.325C742.534,703.672 744.292,691.879 745.522,680.033C746.709,668.179 747.282,656.272 747.304,644.355Z" style="fill-rule:nonzero;"/>
        <g>
            <circle cx="381.974" cy="648.316" r="9.341" style="fill:rgb(1,1,1);"/>
            <path d="M391.364,648.317C391.36,650.761 390.517,653.263 388.801,655.142C387.12,657.044 384.532,658.152 381.974,658.072C379.404,658.009 376.974,656.823 375.255,655.035C373.512,653.258 372.439,650.847 372.36,648.308C372.249,645.803 373.229,643.206 375.037,641.378C376.825,639.527 379.369,638.414 381.988,638.441C384.548,638.444 387.132,639.575 388.812,641.477C390.522,643.367 391.371,645.867 391.364,648.317ZM391.264,648.315C391.28,645.866 390.114,643.504 388.346,641.944C386.577,640.368 384.3,639.483 381.96,639.508C379.681,639.512 377.363,640.414 375.701,642.043C374.031,643.663 372.994,645.927 372.906,648.321C372.804,650.682 373.748,653.133 375.483,654.804C377.213,656.493 379.644,657.325 381.973,657.239C384.314,657.182 386.588,656.275 388.356,654.698C390.119,653.13 391.292,650.77 391.264,648.315Z" style="fill-rule:nonzero;"/>
        </g>
        <path d="M38.199,649.297C39.892,648.411 41.584,647.827 43.277,647.335C44.97,646.85 46.663,646.5 48.356,646.242C50.048,645.984 51.741,645.813 53.434,645.744C55.126,645.625 56.819,645.702 58.512,645.994C61.898,646.575 65.283,648.027 68.668,648.299C72.054,648.6 75.439,648.153 78.825,647.283C80.518,646.872 82.21,646.429 83.903,646.126C85.596,645.81 87.289,645.665 88.982,645.494C92.367,645.148 95.753,644.798 99.138,644.937C102.524,645.084 105.909,645.522 109.294,646.191C112.68,646.882 116.065,647.769 119.451,649.296L119.451,650.196C116.066,651.723 112.68,652.61 109.294,653.301C105.909,653.97 102.523,654.407 99.138,654.555C95.752,654.695 92.367,654.344 88.982,653.998C87.289,653.827 85.596,653.683 83.903,653.366C82.21,653.063 80.518,652.62 78.825,652.209C75.44,651.34 72.054,650.893 68.668,651.193C65.283,651.464 61.897,652.917 58.512,653.498C56.819,653.79 55.126,653.867 53.434,653.748C51.741,653.679 50.048,653.508 48.356,653.25C46.663,652.992 44.97,652.643 43.277,652.157C41.584,651.665 39.892,651.081 38.199,650.195L38.199,649.297Z" style="fill-rule:nonzero;"/>
        <path d="M78.59,508.866C80.595,507.903 82.227,507.757 83.747,507.859C84.508,507.908 85.219,508.066 85.903,508.283C86.59,508.494 87.222,508.827 87.742,509.405C88.798,510.525 89.493,512.438 90.678,513.276C91.846,514.15 93.336,514.317 94.99,514.124C95.809,514.045 96.641,513.936 97.416,513.956C98.196,513.964 98.904,514.128 99.624,514.268C101.064,514.544 102.511,514.806 103.746,515.535C104.982,516.259 106.098,517.248 107.118,518.447C107.625,519.053 108.111,519.706 108.544,520.475C108.989,521.218 109.399,522.037 109.722,523.046L109.349,523.864C108.375,524.283 107.489,524.51 106.636,524.663C105.771,524.843 104.96,524.903 104.17,524.919C102.596,524.937 101.117,524.744 99.759,524.287C98.399,523.834 97.252,522.914 96.098,522.009C95.52,521.558 94.931,521.131 94.414,520.548C93.891,519.977 93.426,519.277 92.948,518.609C92.008,517.233 90.904,516.219 89.478,515.912C88.068,515.568 86.169,516.3 84.631,516.238C83.854,516.224 83.189,515.967 82.578,515.587C81.965,515.214 81.379,514.781 80.843,514.239C79.769,513.159 78.807,511.832 78.218,509.687L78.59,508.866Z" style="fill-rule:nonzero;"/>
        <path d="M209.969,361.864C211.128,362.065 212.029,362.422 212.851,362.827C213.667,363.236 214.368,363.714 214.989,364.242C215.622,364.762 216.153,365.345 216.628,365.961C217.109,366.573 217.475,367.255 217.612,368.077C217.919,369.701 217.481,371.777 218.052,373.239C218.589,374.722 219.79,375.802 221.33,376.676C222.083,377.123 222.864,377.553 223.524,378.057C224.196,378.553 224.721,379.14 225.269,379.711C226.364,380.855 227.476,381.989 228.154,383.387C228.832,384.784 229.261,386.333 229.493,388.002C229.704,389.683 229.751,391.464 229.249,393.58L228.479,394.048C226.37,393.52 224.81,392.659 223.416,391.697C222.041,390.723 220.864,389.629 219.935,388.384C219.006,387.139 218.512,385.63 218,384.131C217.745,383.381 217.466,382.646 217.335,381.82C217.192,381.002 217.169,380.111 217.119,379.237C217.052,377.467 216.646,375.904 215.577,374.745C214.542,373.565 212.497,372.998 211.197,371.978C210.53,371.478 210.094,370.839 209.771,370.13C209.442,369.425 209.17,368.686 209,367.884C208.818,367.09 208.716,366.247 208.729,365.334C208.748,364.418 208.845,363.454 209.201,362.333L209.969,361.864Z" style="fill-rule:nonzero;"/>
        <path d="M535.263,355.693C535.91,357.821 535.806,359.457 535.474,360.943C535.31,361.688 535.045,362.366 534.727,363.009C534.414,363.656 533.989,364.23 533.338,364.655C532.07,365.529 530.074,365.924 529.067,366.968C528.025,367.989 527.632,369.436 527.573,371.101C527.526,371.922 527.506,372.761 527.369,373.523C527.243,374.293 526.973,374.967 526.725,375.657C526.233,377.039 525.754,378.428 524.846,379.538C523.942,380.649 522.794,381.601 521.453,382.427C520.777,382.836 520.059,383.218 519.232,383.528C518.43,383.854 517.559,384.135 516.511,384.301L515.759,383.808C515.492,382.782 515.403,381.87 515.382,381.005C515.337,380.123 515.4,379.313 515.505,378.529C515.727,376.97 516.142,375.538 516.8,374.266C517.455,372.991 518.539,371.997 519.61,370.995C520.144,370.493 520.655,369.976 521.31,369.554C521.954,369.124 522.715,368.771 523.451,368.401C524.953,367.681 526.123,366.744 526.644,365.381C527.198,364.04 526.764,362.052 527.059,360.541C527.191,359.775 527.547,359.157 528.015,358.611C528.477,358.062 528.994,357.548 529.611,357.101C530.842,356.204 532.3,355.455 534.51,355.2L535.263,355.693Z" style="fill-rule:nonzero;"/>
        <path d="M660.558,507.916C660.183,509.03 659.693,509.867 659.167,510.617C658.639,511.362 658.059,511.982 657.443,512.515C656.833,513.062 656.176,513.497 655.495,513.873C654.816,514.255 654.087,514.514 653.254,514.523C651.603,514.579 649.617,513.83 648.085,514.172C646.537,514.477 645.287,515.499 644.189,516.888C643.632,517.565 643.088,518.271 642.491,518.846C641.898,519.435 641.239,519.865 640.591,520.32C639.293,521.228 638.004,522.155 636.519,522.612C635.035,523.069 633.439,523.258 631.754,523.232C630.06,523.186 628.292,522.961 626.278,522.142L625.932,521.31C626.775,519.306 627.864,517.895 629.027,516.664C630.199,515.453 631.46,514.456 632.832,513.727C634.204,512.998 635.77,512.74 637.33,512.462C638.109,512.324 638.879,512.161 639.715,512.157C640.545,512.14 641.429,512.254 642.301,512.337C644.06,512.54 645.666,512.377 646.975,511.497C648.299,510.654 649.171,508.719 650.376,507.589C650.972,507.006 651.67,506.672 652.42,506.461C653.167,506.244 653.939,506.086 654.757,506.041C655.57,505.982 656.418,506.009 657.318,506.161C658.221,506.319 659.159,506.562 660.213,507.084L660.558,507.916Z" style="fill-rule:nonzero;"/>
        <path d="M669.485,804.152C667.48,805.116 665.847,805.261 664.328,805.16C663.567,805.111 662.856,804.953 662.172,804.735C661.485,804.524 660.854,804.191 660.333,803.614C659.277,802.494 658.582,800.582 657.397,799.744C656.229,798.869 654.739,798.702 653.084,798.895C652.266,798.974 651.433,799.083 650.659,799.063C649.879,799.055 649.171,798.891 648.451,798.751C647.011,798.475 645.563,798.213 644.329,797.485C643.093,796.76 641.977,795.771 640.957,794.572C640.45,793.966 639.964,793.313 639.532,792.544C639.087,791.801 638.677,790.982 638.353,789.973L638.726,789.155C639.7,788.736 640.586,788.509 641.439,788.356C642.304,788.176 643.115,788.116 643.905,788.1C645.479,788.082 646.958,788.275 648.316,788.732C649.675,789.185 650.823,790.105 651.977,791.01C652.554,791.461 653.143,791.888 653.661,792.471C654.183,793.042 654.648,793.742 655.127,794.411C656.066,795.786 657.171,796.8 658.597,797.107C660.007,797.451 661.907,796.719 663.445,796.782C664.221,796.795 664.887,797.053 665.498,797.432C666.11,797.805 666.697,798.238 667.233,798.78C668.307,799.86 669.269,801.187 669.858,803.333L669.485,804.152Z" style="fill-rule:nonzero;"/>
        <path d="M538.105,951.152C536.947,950.952 536.045,950.594 535.224,950.189C534.408,949.781 533.706,949.302 533.085,948.775C532.451,948.254 531.921,947.672 531.446,947.056C530.966,946.444 530.598,945.761 530.463,944.94C530.155,943.316 530.594,941.24 530.023,939.778C529.486,938.295 528.286,937.215 526.746,936.341C525.993,935.894 525.212,935.463 524.552,934.96C523.88,934.464 523.355,933.878 522.807,933.307C521.712,932.162 520.6,931.029 519.922,929.631C519.244,928.233 518.816,926.685 518.583,925.016C518.371,923.335 518.325,921.553 518.827,919.438L519.597,918.971C521.705,919.498 523.266,920.36 524.66,921.322C526.035,922.296 527.212,923.39 528.14,924.635C529.07,925.88 529.564,927.389 530.076,928.888C530.331,929.638 530.609,930.373 530.74,931.199C530.884,932.016 530.906,932.908 530.956,933.782C531.022,935.552 531.429,937.114 532.498,938.274C533.533,939.455 535.578,940.021 536.878,941.041C537.545,941.54 537.982,942.18 538.304,942.889C538.632,943.594 538.906,944.333 539.075,945.135C539.257,945.929 539.359,946.772 539.346,947.684C539.327,948.601 539.229,949.565 538.874,950.686L538.105,951.152Z" style="fill-rule:nonzero;"/>
        <path d="M212.81,957.323C212.163,955.195 212.268,953.559 212.599,952.073C212.763,951.329 213.028,950.65 213.347,950.007C213.66,949.361 214.085,948.787 214.735,948.361C216.003,947.487 217.999,947.091 219.007,946.048C220.049,945.027 220.441,943.579 220.501,941.915C220.548,941.094 220.568,940.255 220.705,939.492C220.83,938.722 221.101,938.048 221.348,937.358C221.84,935.976 222.319,934.587 223.227,933.477C224.131,932.366 225.278,931.414 226.619,930.588C227.295,930.179 228.014,929.798 228.84,929.487C229.642,929.161 230.513,928.88 231.56,928.714L232.313,929.208C232.579,930.234 232.668,931.145 232.689,932.011C232.734,932.893 232.671,933.703 232.566,934.487C232.344,936.046 231.929,937.477 231.27,938.75C230.615,940.025 229.532,941.019 228.461,942.021C227.927,942.523 227.416,943.04 226.76,943.462C226.116,943.892 225.355,944.245 224.62,944.615C223.118,945.335 221.947,946.271 221.427,947.635C220.872,948.975 221.306,950.964 221.011,952.474C220.88,953.241 220.524,953.859 220.055,954.404C219.593,954.954 219.076,955.467 218.459,955.914C217.228,956.811 215.77,957.56 213.561,957.816L212.81,957.323Z" style="fill-rule:nonzero;"/>
        <path d="M87.517,805.101C87.892,803.987 88.382,803.151 88.907,802.4C89.435,801.656 90.015,801.036 90.631,800.502C91.241,799.956 91.898,799.52 92.579,799.145C93.257,798.763 93.987,798.504 94.82,798.495C96.471,798.438 98.457,799.188 99.989,798.846C101.536,798.541 102.786,797.519 103.885,796.129C104.442,795.453 104.986,794.747 105.584,794.171C106.177,793.582 106.835,793.152 107.484,792.698C108.781,791.79 110.071,790.863 111.556,790.406C113.041,789.948 114.637,789.76 116.322,789.785C118.015,789.832 119.783,790.056 121.798,790.875L122.143,791.707C121.301,793.711 120.212,795.122 119.049,796.353C117.877,797.564 116.617,798.561 115.245,799.29C113.873,800.019 112.306,800.277 110.747,800.555C109.967,800.693 109.198,800.857 108.362,800.861C107.531,800.878 106.648,800.764 105.776,800.681C104.017,800.477 102.411,800.64 101.102,801.521C99.778,802.365 98.907,804.299 97.701,805.429C97.106,806.011 96.407,806.346 95.658,806.556C94.911,806.774 94.139,806.931 93.321,806.977C92.508,807.037 91.66,807.009 90.759,806.858C89.857,806.7 88.918,806.457 87.864,805.935L87.517,805.101Z" style="fill-rule:nonzero;"/>
        <path d="M719.554,650.197C717.862,651.083 716.168,651.667 714.476,652.159C712.784,652.644 711.09,652.994 709.398,653.252C707.705,653.51 706.012,653.681 704.32,653.75C702.627,653.869 700.934,653.792 699.241,653.5C695.856,652.919 692.47,651.467 689.085,651.195C685.7,650.894 682.314,651.341 678.929,652.211C677.237,652.622 675.543,653.065 673.851,653.368C672.158,653.684 670.465,653.829 668.773,654C665.387,654.346 662.002,654.696 658.617,654.557C655.231,654.41 651.846,653.972 648.46,653.303C645.074,652.612 641.689,651.725 638.304,650.198L638.304,649.298C641.69,647.771 645.075,646.884 648.46,646.193C651.846,645.524 655.231,645.087 658.617,644.939C662.002,644.799 665.388,645.15 668.773,645.496C670.465,645.667 672.158,645.811 673.851,646.128C675.543,646.431 677.237,646.874 678.929,647.285C682.315,648.154 685.7,648.601 689.085,648.301C692.471,648.03 695.856,646.577 699.241,645.996C700.934,645.704 702.627,645.627 704.32,645.746C706.012,645.815 707.705,645.986 709.398,646.244C711.09,646.502 712.784,646.851 714.476,647.337C716.168,647.829 717.862,648.413 719.554,649.299L719.554,650.197Z" style="fill-rule:nonzero;"/>
        <path d="M382.809,298.623C383.694,300.316 384.279,302.009 384.771,303.701C385.256,305.394 385.606,307.087 385.863,308.779C386.121,310.472 386.292,312.165 386.362,313.858C386.48,315.551 386.404,317.243 386.112,318.936C385.531,322.321 384.078,325.707 383.807,329.093C383.506,332.478 383.953,335.864 384.823,339.249C385.234,340.942 385.677,342.635 385.98,344.327C386.297,346.02 386.441,347.713 386.612,349.405C386.958,352.791 387.308,356.176 387.168,359.562C387.022,362.947 386.584,366.333 385.915,369.719C385.223,373.104 384.337,376.49 382.81,379.875L381.91,379.875C380.382,376.489 379.496,373.104 378.805,369.719C378.136,366.333 377.698,362.948 377.552,359.562C377.411,356.177 377.762,352.791 378.108,349.405C378.279,347.713 378.423,346.02 378.74,344.327C379.043,342.635 379.486,340.942 379.897,339.249C380.766,335.863 381.213,332.478 380.913,329.093C380.642,325.707 379.189,322.322 378.608,318.936C378.316,317.243 378.24,315.551 378.358,313.858C378.428,312.165 378.599,310.472 378.857,308.779C379.114,307.087 379.464,305.394 379.949,303.701C380.441,302.009 381.026,300.316 381.911,298.623L382.809,298.623Z" style="fill-rule:nonzero;"/>
        <path d="M381.908,979.979C381.023,978.287 380.438,976.593 379.946,974.901C379.461,973.209 379.111,971.515 378.854,969.823C378.596,968.13 378.425,966.437 378.355,964.745C378.237,963.052 378.313,961.359 378.605,959.666C379.186,956.281 380.639,952.895 380.91,949.51C381.211,946.125 380.764,942.739 379.894,939.354C379.483,937.662 379.04,935.968 378.737,934.276C378.42,932.583 378.276,930.89 378.105,929.198C377.759,925.812 377.409,922.427 377.549,919.042C377.695,915.656 378.133,912.271 378.802,908.885C379.494,905.499 380.38,902.114 381.907,898.729L382.807,898.729C384.335,902.115 385.221,905.5 385.912,908.885C386.581,912.271 387.019,915.656 387.165,919.042C387.306,922.427 386.955,925.813 386.609,929.198C386.438,930.89 386.294,932.583 385.977,934.276C385.674,935.968 385.231,937.662 384.82,939.354C383.951,942.74 383.504,946.125 383.804,949.51C384.075,952.896 385.528,956.281 386.109,959.666C386.401,961.359 386.477,963.052 386.359,964.745C386.289,966.437 386.118,968.13 385.86,969.823C385.603,971.515 385.253,973.209 384.768,974.901C384.276,976.593 383.691,978.287 382.806,979.979L381.908,979.979Z" style="fill-rule:nonzero;"/>
    </g>
    <g id="Layer_2_copy">
        <path d="M384.32,386.465C386.407,391.703 387.738,396.941 388.898,402.178C390.03,407.416 390.847,412.653 391.447,417.891C392.079,423.129 392.431,428.367 392.631,433.604C392.851,438.842 392.743,444.08 392.037,449.317C390.664,459.793 387.286,470.268 386.649,480.744C386.463,483.363 386.384,485.982 386.443,488.6C386.453,489.91 386.484,491.219 386.557,492.528C386.601,493.838 386.702,495.147 386.803,496.456C387.184,501.694 388.082,506.932 389.018,512.169C389.498,514.788 390.015,517.407 390.457,520.026C390.925,522.644 391.374,525.263 391.719,527.882C392.458,533.119 392.794,538.358 393.194,543.595C393.99,554.071 394.834,564.546 394.491,575.022C394.335,580.259 393.989,585.498 393.476,590.735C393.001,595.973 392.356,601.211 391.566,606.448C390.778,611.686 389.835,616.924 388.667,622.162C387.479,627.399 386.169,632.638 384.319,637.875L382.219,637.875C380.369,632.638 379.059,627.399 377.871,622.162C376.703,616.924 375.76,611.686 374.972,606.448C374.182,601.211 373.537,595.973 373.062,590.735C372.549,585.498 372.203,580.259 372.047,575.022C371.704,564.546 372.547,554.071 373.344,543.595C373.744,538.358 374.08,533.119 374.819,527.882C375.164,525.263 375.613,522.644 376.081,520.026C376.523,517.407 377.04,514.788 377.52,512.169C378.456,506.931 379.354,501.693 379.735,496.456C379.837,495.147 379.937,493.837 379.981,492.528C380.054,491.219 380.085,489.909 380.095,488.6C380.154,485.981 380.075,483.362 379.889,480.744C379.252,470.268 375.874,459.793 374.501,449.317C373.795,444.08 373.687,438.842 373.907,433.604C374.107,428.366 374.458,423.128 375.091,417.891C375.691,412.653 376.508,407.416 377.64,402.178C378.8,396.94 380.131,391.702 382.218,386.465L384.32,386.465Z" style="fill-rule:nonzero;"/>
        <path d="M539.452,491.71C537.599,496.32 535.258,500.453 532.805,504.478C530.337,508.489 527.649,512.286 524.851,515.974C522.038,519.649 519.074,523.176 515.994,526.591C512.931,530.023 509.656,533.247 505.993,536.095C498.692,541.814 490.092,546.268 483.268,552.452C476.386,558.579 470.68,565.849 465.573,573.705C464.281,575.654 463.014,577.627 461.698,579.552C460.399,581.494 459.087,583.424 457.709,585.288C454.982,589.047 451.995,592.552 449.049,596.098C443.155,603.187 437.291,610.305 430.658,616.674C427.351,619.868 423.922,622.943 420.384,625.911C416.871,628.904 413.248,631.791 409.53,634.585C405.814,637.381 401.997,640.078 398.035,642.635C394.059,645.178 390.005,647.644 385.6,649.77L384.239,648.444C386.245,643.984 388.601,639.864 391.036,635.822C393.484,631.792 396.078,627.904 398.772,624.114C401.465,620.322 404.252,616.623 407.15,613.03C410.022,609.413 413.003,605.902 416.108,602.51C422.296,595.708 429.254,589.655 436.18,583.572C439.645,580.532 443.068,577.451 446.752,574.624C448.579,573.195 450.472,571.832 452.378,570.481C454.267,569.113 456.205,567.793 458.119,566.45C465.834,561.134 472.948,555.232 478.888,548.188C484.886,541.2 489.106,532.483 494.626,525.031C497.374,521.292 500.508,517.93 503.856,514.777C507.187,511.606 510.633,508.548 514.231,505.636C517.843,502.739 521.565,499.949 525.508,497.375C529.465,494.814 533.533,492.361 538.092,490.385L539.452,491.71Z" style="fill-rule:nonzero;"/>
    </g>
    <g id="Layer_3_copy">
        <path d="M915.372,317.677C908.947,322.429 902.29,326.797 895.499,330.962C888.713,335.134 881.769,339.047 874.711,342.785C860.574,350.217 845.938,356.839 830.52,362.085C826.666,363.404 822.757,364.624 818.775,365.694C814.795,366.771 810.756,367.771 806.619,368.554C798.337,370.064 789.724,371.156 780.343,370.208C775.67,369.7 770.717,368.73 765.771,366.436C763.31,365.292 760.861,363.823 758.599,361.981C756.329,360.154 754.287,357.927 752.654,355.48C751.006,353.04 749.752,350.412 748.857,347.794C747.952,345.174 747.456,342.55 747.159,340.022C746.572,334.951 746.921,330.211 747.627,325.744C749.089,316.814 751.996,308.842 755.344,301.263C758.728,293.702 762.563,286.536 766.631,279.577C774.805,265.684 783.663,252.498 792.357,239.26L818.513,199.692C822.85,193.103 827.242,186.472 831.468,179.879C835.707,173.271 839.744,166.535 843.755,159.805C847.73,153.051 851.581,146.236 855.376,139.422C859.147,132.592 862.813,125.731 866.398,118.876C869.972,112.014 873.422,105.131 876.691,98.24C879.93,91.34 882.959,84.4 885.438,77.444C887.912,70.517 889.893,63.492 890.678,57.017C891.07,53.807 891.124,50.741 890.748,48.268C890.37,45.769 889.627,44.071 888.819,43.122C888.408,42.625 887.961,42.238 887.35,41.85C886.742,41.468 885.951,41.101 884.965,40.761C882.99,40.085 880.234,39.696 877.204,39.675C874.168,39.67 870.851,39.873 867.458,40.368C864.056,40.834 860.581,41.583 857.058,42.372C842.947,45.702 828.598,50.989 814.477,56.818C800.347,62.722 786.343,69.31 772.518,76.331C758.7,83.37 745.033,90.83 731.647,98.785C724.972,102.784 718.314,106.846 711.902,111.239C708.694,113.431 705.492,115.643 702.435,118.023C699.376,120.396 696.368,122.849 693.727,125.634L691.854,124.3C692.821,122.487 693.954,120.785 695.14,119.136C696.329,117.488 697.57,115.879 698.878,114.339C701.488,111.254 704.204,108.267 707.037,105.413C712.72,99.725 718.644,94.303 724.783,89.157C737.054,78.854 749.992,69.406 763.389,60.615C776.799,51.837 790.676,43.708 805.172,36.49C812.41,32.855 819.828,29.504 827.453,26.44C835.068,23.34 842.943,20.693 851.18,18.522C855.3,17.428 859.545,16.589 863.935,15.929C868.33,15.305 872.885,14.844 877.722,14.995C882.548,15.148 887.708,15.745 893.17,17.7C895.89,18.679 898.668,20.057 901.285,21.936C903.9,23.801 906.324,26.184 908.237,28.865C910.164,31.542 911.569,34.466 912.514,37.327C913.469,40.194 913.963,43.008 914.213,45.683C914.69,51.047 914.218,55.905 913.443,60.47C911.809,69.572 908.903,77.623 905.684,85.355C892.585,116.034 873.745,141.881 854.15,166.908C849.283,173.181 844.28,179.336 839.354,185.53L831.991,194.784C829.596,197.894 827.171,200.982 824.844,204.142C815.469,216.728 806.606,229.699 798.647,243.191C790.688,256.67 783.706,270.749 778.033,285.145C775.206,292.336 772.651,299.585 770.654,306.823C769.676,310.445 768.754,314.033 768.09,317.595C767.364,321.137 766.917,324.654 766.675,327.999C766.464,331.342 766.574,334.537 767.056,337.274C767.579,340.018 768.434,342.207 769.609,343.789C770.802,345.349 772.255,346.634 774.499,347.668C776.708,348.69 779.533,349.491 782.668,349.881C788.967,350.658 796.194,350.278 803.422,349.263C810.695,348.305 818.069,346.689 825.465,344.901C840.251,341.217 855.048,336.481 869.825,331.466C884.614,326.442 899.369,321.019 914.278,315.655L915.372,317.677Z" style="fill-rule:nonzero;"/>
        <path d="M885.815,430.756C885.715,433.588 884.741,436.417 883.342,438.901C881.933,441.403 880.146,443.686 878.201,445.862C874.29,450.191 869.689,454.149 864.639,457.349C859.579,460.523 854.046,462.798 848.359,463.891C842.674,464.997 836.867,465.127 831.188,464.313C825.5,463.534 819.949,461.725 814.623,459.702C809.292,457.619 804.175,455.359 799.095,453.163C794.022,450.922 788.962,448.714 784.02,445.49C782.805,444.657 781.55,443.808 780.378,442.779C779.169,441.791 778.025,440.645 776.93,439.345C775.848,438.035 774.853,436.531 774.06,434.809C773.282,433.087 772.716,431.145 772.515,429.12C772.07,425.046 773.157,420.806 774.95,417.458C776.723,414.058 779.041,411.287 781.525,408.999C786.516,404.399 792.147,401.582 797.743,399.28C803.362,397.005 809.081,395.333 814.871,394.27C820.653,393.176 826.508,392.751 832.316,392.989C838.12,393.239 843.924,394.029 849.593,395.544C855.254,397.091 860.712,399.709 865.69,403.103C870.659,406.522 875.175,410.623 878.976,415.113C880.863,417.368 882.581,419.747 883.87,422.35C885.154,424.944 885.941,427.831 885.816,430.724L885.815,430.75L885.815,430.756ZM883.517,430.653C883.562,428.273 882.59,425.964 881.04,424.157C879.485,422.333 877.42,420.956 875.172,419.989C872.915,419.022 870.497,418.411 868.032,418.064C865.571,417.703 863.08,417.569 860.61,417.534C855.672,417.451 850.862,417.648 846.149,417.573C841.437,417.469 836.743,417.438 832.043,417.569C827.349,417.691 822.689,417.856 818.058,418.152C813.441,418.492 808.834,418.983 804.461,419.956C800.093,420.915 795.978,422.371 792.443,423.944C791.572,424.356 790.724,424.746 789.964,425.187C789.176,425.604 788.474,426.04 787.842,426.493C786.617,427.424 785.673,428.272 785.102,429.474C784.539,430.652 784.427,432.3 785.11,434.126C785.77,435.942 787.096,437.8 788.781,439.387C790.454,441.001 792.469,442.383 794.636,443.515C796.804,444.656 799.134,445.554 801.551,446.181C806.387,447.462 811.536,447.623 816.582,447.162C821.635,446.757 826.582,445.77 831.398,445.11C836.222,444.412 840.93,443.951 845.658,443.667C850.378,443.357 855.17,443.469 860.103,443.395C862.575,443.375 865.07,443.266 867.547,442.949C870.028,442.644 872.475,442.089 874.775,441.174C877.064,440.255 879.184,438.922 880.81,437.127C882.426,435.338 883.481,433.089 883.517,430.653Z" style="fill-rule:nonzero;"/>
    </g>
</svg>
