<?xml version="1.0" encoding="utf-8"?>
<!-- Generator: Adobe Illustrator 15.1.0, SVG Export Plug-In . SVG Version: 6.00 Build 0)  -->
<!DOCTYPE svg PUBLIC "-//W3C//DTD SVG 1.1//EN" "http://www.w3.org/Graphics/SVG/1.1/DTD/svg11.dtd">
<svg version="1.1" xmlns="http://www.w3.org/2000/svg" xmlns:xlink="http://www.w3.org/1999/xlink" x="0px" y="0px" width="1024px"
	 height="1024px" viewBox="0 0 1024 1024" enable-background="new 0 0 1024 1024" xml:space="preserve">
<g id="Layer_7_copy">
	<g>
		<path d="M789.574,627.631c-0.07,47.974-8.475,95.97-25.213,141.4c-4.191,11.352-8.861,22.561-14.117,33.522
			c-5.205,10.988-10.986,21.731-17.24,32.227c-12.541,20.971-27.189,40.832-43.768,59.107c-8.307,9.119-17.08,17.854-26.34,26.081
			c-9.234,8.253-18.924,16.037-29.035,23.263c-20.199,14.483-42.037,26.81-64.986,36.628c-22.943,9.828-46.982,17.158-71.506,21.848
			c-24.546,4.695-49.483,6.721-74.446,6.115l-4.607-0.142l-4.663-0.2c-3.104-0.164-6.205-0.366-9.303-0.606
			c-6.194-0.479-12.374-1.107-18.531-1.887c-12.306-1.638-24.53-3.798-36.566-6.697c-24.083-5.738-47.508-13.849-69.808-24.16
			c-44.624-20.639-84.755-49.627-118.601-84.377c-16.925-17.39-32.261-36.272-45.833-56.358c-3.386-5.026-6.649-10.136-9.785-15.323
			c-3.155-5.176-6.202-10.419-9.109-15.741c-5.794-10.654-11.155-21.555-15.972-32.703c-19.254-44.591-30.439-92.892-32.054-142.034
			c-1.743-48.959,6.105-98.89,24.053-145.289c4.473-11.6,9.527-22.993,15.203-34.083c2.831-5.548,5.791-11.035,8.9-16.438
			c3.125-5.394,6.383-10.713,9.771-15.951c13.544-20.958,29.24-40.552,46.671-58.493c34.864-35.868,76.915-65.026,123.243-84.693
			c46.257-19.797,96.75-29.88,147.041-29.546c50.283,0.242,100.586,10.705,146.486,30.882
			c45.934,20.149,87.041,50.347,120.135,87.021c16.557,18.344,31.172,38.264,43.705,59.267
			c12.521,21.014,22.992,43.093,31.355,65.826c16.705,45.489,25.049,93.538,24.92,141.527V627.631z M785.875,627.625
			c-0.049-23.757-2.625-47.506-7.74-70.653c-5.105-23.148-12.736-45.69-22.691-67.054c-4.936-10.701-10.518-21.077-16.531-31.151
			c-6.07-10.045-12.6-19.781-19.635-29.108c-14.031-18.679-29.879-35.828-47.086-51.251
			c-34.414-30.884-74.148-54.902-116.471-71.293c-21.17-8.188-43.025-14.474-65.28-18.552c-22.25-4.095-44.859-6.04-67.468-5.918
			c-22.608,0.139-45.168,2.351-67.322,6.662c-22.146,4.336-43.902,10.711-64.873,19.144c-41.927,16.872-80.716,41.93-113.36,73.621
			c-32.679,31.667-59.056,69.847-77.77,111.639c-4.647,10.464-8.892,21.132-12.544,32.025c-3.702,10.874-6.892,21.944-9.52,33.17
			c-5.238,22.466-8.389,45.458-9.236,68.752c-0.775,23.156,0.563,46.596,4.469,69.631c1.921,11.528,4.5,22.957,7.612,34.25
			c3.188,11.269,6.854,22.426,11.217,33.32c4.328,10.906,9.202,21.609,14.682,32.003c2.73,5.201,5.579,10.342,8.571,15.4
			c3.011,5.046,6.147,10.02,9.402,14.913c12.992,19.597,28.119,37.783,44.96,54.16c33.662,32.809,74.371,58.036,118.001,73.938
			c21.81,7.983,44.31,13.784,67.073,17.31c11.385,1.735,22.813,3.047,34.272,3.722c5.725,0.376,11.455,0.612,17.184,0.71
			c2.865,0.049,5.729,0.063,8.593,0.043l4.289-0.037l4.346-0.087c22.789-0.607,45.61-3.189,67.911-7.768
			c22.323-4.574,44.208-11.154,65.374-19.622c21.164-8.468,41.621-18.807,61.1-30.893c9.729-6.059,19.229-12.529,28.441-19.434
			c9.189-6.931,18.123-14.253,26.701-22.017c17.188-15.491,33.002-32.699,47.025-51.41c7.027-9.345,13.559-19.093,19.627-29.151
			c6.018-10.085,11.582-20.479,16.537-31.184c9.934-21.396,17.549-43.962,22.609-67.134c5.07-23.174,7.576-46.933,7.529-70.701
			V627.625z"/>
	</g>
</g>
<g id="Layer_3">
	<g>
		<path d="M352.625,364.803c11.683-0.853,23.365-1.344,35.047-1.697c12-0.383,24-0.536,36-0.626c12-0.078,24,0.199,36,0.708
			c12,0.503,24,0.997,36,1.039l-0.582,1.662c-3.686-3.06-7.391-6.063-11.032-9.158c-3.683-3.043-7.313-6.149-10.968-9.23
			c-7.285-6.193-14.511-12.479-21.479-19.083c-6.941-6.63-13.609-13.593-19.65-21.211c-3.011-3.817-5.892-7.783-8.372-12.125
			c-1.231-2.175-2.364-4.448-3.277-6.895c-0.901-2.444-1.616-5.087-1.663-8.027h6.354c0.008,2.824-0.598,5.424-1.376,7.857
			c-0.796,2.432-1.806,4.712-2.918,6.904c-2.213,4.392-4.939,8.371-7.756,12.224c-5.657,7.695-12.036,14.679-18.603,21.418
			c-3.312,3.345-6.684,6.618-10.104,9.832c-3.448,3.188-6.927,6.332-10.469,9.402c-3.553,3.059-7.128,6.086-10.795,9.002
			C359.573,359.525,356.144,362.219,352.625,364.803z M351.481,364.929c6.75-6.46,13.381-13.031,19.914-19.67
			c3.266-3.32,6.513-6.652,9.69-10.046c3.202-3.368,6.354-6.778,9.426-10.247c6.178-6.901,12.102-14.021,17.402-21.457
			c2.635-3.723,5.033-7.583,7.08-11.505c1.996-3.9,3.604-8.092,3.656-11.844h6.354c-0.021,1.841,0.428,3.9,1.135,5.932
			c0.707,2.04,1.654,4.076,2.727,6.073c2.156,3.999,4.763,7.868,7.554,11.615c5.621,7.485,11.903,14.58,18.329,21.547
			c6.428,6.976,13.101,13.769,20.006,20.322c6.907,6.546,14.068,12.857,21.501,18.781l2.074,1.652l-2.656,0.01
			c-12,0.042-24,0.536-36,1.039c-12,0.509-24,0.786-36,0.708c-12-0.091-24-0.243-36-0.626c-12-0.362-24-0.857-36-1.754l-0.692-0.052
			L351.481,364.929z"/>
	</g>
	<g>
		<path fill="#010101" d="M379.293,613.836l69.529,47.134c0,0,58.208-162.637,99.572-223.656
			C505.838,500.093,379.293,613.836,379.293,613.836z"/>
		<path d="M379.798,613.799c11.853,7.229,23.575,14.651,35.246,22.149l17.628,11.421l17.544,11.545l-3.731,1.219
			c3.361-9.684,6.91-19.267,10.454-28.866l5.503-14.322l5.725-14.236c3.947-9.438,7.959-18.85,12.037-28.23l6.175-14.047
			l3.125-7.006l3.088-7.02c8.258-18.711,16.484-37.426,25.034-56.023c4.277-9.299,8.715-18.53,13.387-27.666
			c4.682-9.129,9.637-18.146,15.303-26.813l4.162,2.822c-5.691,8.615-11.928,16.791-18.371,24.771
			c-6.445,7.981-13.104,15.768-19.881,23.441c-13.551,15.351-27.752,30.081-42.247,44.492
			c-14.495,14.412-29.328,28.466-44.392,42.262C410.626,587.401,395.379,600.796,379.798,613.799z M378.835,613.866l22.048-21.754
			l21.729-21.538c14.456-14.38,28.813-28.849,43.026-43.439c14.201-14.603,28.245-29.342,41.989-44.33
			c13.686-15.017,27.038-30.417,38.688-46.902l4.162,2.822c-11.471,16.627-21.33,34.586-30.568,52.76
			c-9.225,18.21-17.584,36.865-25.325,55.766l-2.875,7.1l-2.781,7.139l-5.474,14.309c-3.619,9.551-7.175,19.124-10.68,28.715
			l-5.367,14.342l-5.419,14.32c-3.674,9.521-7.256,19.09-10.827,28.632l-1.135,3.031l-2.597-1.813l-17.221-12.021l-17.137-12.146
			c-11.395-8.142-22.738-16.356-33.947-24.773L378.835,613.866z"/>
	</g>
	<g>
		<path d="M494.72,882.517c-11.683,0.853-23.366,1.344-35.048,1.696c-12,0.384-24,0.536-36,0.627c-12,0.077-24-0.199-36-0.709
			c-12-0.503-24-0.996-36-1.039l0.583-1.661c3.687,3.059,7.39,6.063,11.032,9.157c3.682,3.044,7.312,6.148,10.968,9.23
			c7.285,6.192,14.51,12.478,21.478,19.083c6.942,6.63,13.609,13.593,19.65,21.212c3.011,3.816,5.892,7.783,8.372,12.124
			c1.231,2.176,2.364,4.447,3.277,6.895c0.901,2.444,1.616,5.088,1.663,8.027h-6.354c-0.008-2.824,0.598-5.424,1.376-7.856
			c0.796-2.433,1.806-4.713,2.918-6.904c2.213-4.393,4.939-8.371,7.756-12.224c5.657-7.695,12.036-14.679,18.603-21.419
			c3.312-3.345,6.684-6.617,10.104-9.831c3.448-3.188,6.928-6.332,10.47-9.402c3.553-3.059,7.128-6.086,10.795-9.003
			C487.773,887.796,491.201,885.101,494.72,882.517z M495.863,882.39c-6.75,6.461-13.38,13.031-19.913,19.671
			c-3.266,3.319-6.514,6.652-9.69,10.046c-3.202,3.367-6.354,6.777-9.426,10.247c-6.178,6.901-12.102,14.021-17.402,21.457
			c-2.635,3.723-5.033,7.583-7.08,11.505c-1.996,3.899-3.604,8.092-3.656,11.844h-6.354c0.021-1.841-0.428-3.899-1.135-5.932
			c-0.707-2.04-1.654-4.077-2.727-6.074c-2.156-3.998-4.763-7.868-7.554-11.614c-5.621-7.485-11.903-14.58-18.329-21.548
			c-6.427-6.976-13.1-13.768-20.005-20.322c-6.908-6.546-14.068-12.857-21.503-18.781l-2.074-1.652l2.656-0.009
			c12-0.043,24-0.536,36-1.039c12-0.51,24-0.786,36-0.709c12,0.091,24,0.243,36,0.627c12,0.362,24,0.856,36,1.754l0.693,0.052
			L495.863,882.39z"/>
	</g>
	<g>
		<path d="M684.53,561.612c0.854,11.683,1.344,23.365,1.697,35.048c0.383,12,0.535,24,0.627,36c0.076,12-0.199,24-0.709,36
			c-0.504,12-0.996,24-1.039,36l-1.662-0.582c3.059-3.687,6.063-7.391,9.158-11.032c3.043-3.683,6.148-7.313,9.23-10.968
			c6.191-7.285,12.477-14.511,19.082-21.479c6.631-6.942,13.594-13.609,21.213-19.65c3.816-3.011,7.783-5.892,12.123-8.372
			c2.176-1.232,4.447-2.364,6.895-3.277c2.445-0.9,5.088-1.616,8.027-1.664v6.355c-2.824,0.006-5.424-0.598-7.855-1.377
			c-2.434-0.796-4.713-1.806-6.904-2.918c-4.393-2.213-8.371-4.939-12.225-7.756c-7.695-5.658-14.678-12.036-21.418-18.603
			c-3.346-3.312-6.617-6.684-9.832-10.104c-3.188-3.447-6.332-6.928-9.402-10.47c-3.059-3.552-6.086-7.128-9.002-10.795
			C689.809,568.559,687.114,565.132,684.53,561.612z M684.403,560.469c6.461,6.75,13.031,13.381,19.672,19.913
			c3.318,3.266,6.652,6.514,10.045,9.689c3.367,3.203,6.777,6.354,10.248,9.427c6.9,6.178,14.021,12.103,21.457,17.402
			c3.723,2.635,7.582,5.034,11.504,7.081c3.9,1.995,8.092,3.604,11.844,3.654v6.355c-1.84-0.022-3.898,0.428-5.932,1.135
			c-2.039,0.706-4.076,1.653-6.074,2.726c-3.998,2.156-7.867,4.763-11.613,7.554c-7.486,5.621-14.58,11.903-21.549,18.329
			c-6.975,6.428-13.768,13.101-20.322,20.006c-6.545,6.907-12.857,14.067-18.781,21.502l-1.652,2.074l-0.008-2.656
			c-0.043-12-0.537-24-1.039-36c-0.51-12-0.787-24-0.709-36c0.09-12,0.242-24,0.627-36c0.361-12,0.855-24,1.754-36l0.051-0.692
			L684.403,560.469z"/>
	</g>
	<g>
		<path d="M166.816,703.708c-0.853-11.683-1.344-23.365-1.697-35.048c-0.383-12-0.536-24-0.626-36c-0.078-12,0.199-24,0.708-36
			c0.503-12,0.997-24,1.039-36l1.662,0.583c-3.06,3.686-6.063,7.39-9.158,11.031c-3.043,3.682-6.149,7.313-9.23,10.968
			c-6.193,7.284-12.479,14.511-19.083,21.479c-6.63,6.942-13.593,13.609-21.211,19.649c-3.817,3.012-7.783,5.893-12.125,8.373
			c-2.175,1.232-4.448,2.364-6.895,3.277c-2.444,0.901-5.087,1.616-8.027,1.663v-6.354c2.824-0.006,5.424,0.598,7.857,1.377
			c2.432,0.796,4.712,1.806,6.904,2.918c4.392,2.213,8.371,4.939,12.224,7.756c7.695,5.657,14.679,12.036,21.418,18.603
			c3.345,3.312,6.618,6.684,9.832,10.104c3.188,3.448,6.332,6.928,9.402,10.47c3.059,3.553,6.086,7.128,9.002,10.795
			C161.537,696.76,164.231,700.188,166.816,703.708z M166.942,704.851c-6.46-6.75-13.031-13.381-19.67-19.913
			c-3.32-3.266-6.652-6.514-10.046-9.69c-3.368-3.202-6.778-6.354-10.247-9.426c-6.901-6.178-14.021-12.102-21.457-17.402
			c-3.723-2.635-7.583-5.033-11.505-7.08c-3.9-1.996-8.092-3.604-11.844-3.656v-6.354c1.841,0.022,3.9-0.428,5.932-1.135
			c2.04-0.706,4.077-1.653,6.073-2.727c3.999-2.156,7.868-4.762,11.615-7.553c7.485-5.621,14.58-11.902,21.547-18.329
			c6.976-6.428,13.769-13.101,20.322-20.005c6.546-6.908,12.857-14.068,18.781-21.503l1.652-2.074l0.01,2.656
			c0.042,12,0.536,24,1.039,36c0.509,12,0.786,24,0.708,36c-0.091,12-0.243,24-0.626,36c-0.362,12-0.857,24-1.754,36l-0.052,0.692
			L166.942,704.851z"/>
	</g>
	<g>
		<path d="M558.276,395.61c8.482,8.078,16.697,16.399,24.809,24.814c8.35,8.628,16.525,17.413,24.658,26.238
			c8.121,8.834,15.98,17.907,23.668,27.135c7.691,9.224,15.391,18.442,23.422,27.357l-1.621,0.686
			c-0.213-4.786-0.477-9.547-0.633-14.324c-0.221-4.772-0.359-9.547-0.535-14.325c-0.309-9.556-0.51-19.131-0.303-28.73
			c0.246-9.596,0.922-19.213,2.504-28.806c0.803-4.795,1.803-9.593,3.352-14.348c0.783-2.374,1.705-4.74,2.902-7.061
			c1.205-2.31,2.682-4.616,4.828-6.626l4.27,4.706c-2.086,1.903-4.418,3.202-6.744,4.261c-2.334,1.044-4.703,1.83-7.072,2.479
			c-4.74,1.313-9.52,1.968-14.266,2.471c-9.5,0.982-18.957,0.951-28.361,0.618c-4.701-0.204-9.393-0.502-14.07-0.875
			c-4.678-0.411-9.344-0.875-13.998-1.435c-4.652-0.575-9.297-1.188-13.922-1.944C566.854,397.207,562.555,396.479,558.276,395.61z
			 M557.414,394.847c9.32,0.657,18.643,1.151,27.947,1.527c4.654,0.188,9.305,0.353,13.953,0.425
			c4.645,0.108,9.287,0.15,13.922,0.094c9.262-0.063,18.516-0.46,27.584-1.532c4.527-0.55,8.998-1.368,13.277-2.488
			c4.23-1.143,8.414-2.769,11.227-5.252l4.271,4.706c-1.379,1.221-2.6,2.937-3.631,4.827c-1.035,1.894-1.906,3.964-2.664,6.101
			c-1.514,4.284-2.627,8.814-3.525,13.399c-1.766,9.192-2.799,18.612-3.639,28.054c-0.848,9.448-1.393,18.954-1.605,28.471
			c-0.205,9.515-0.068,19.059,0.541,28.545l0.172,2.646l-1.793-1.961c-8.096-8.858-16.525-17.413-24.963-25.961
			c-8.441-8.544-16.709-17.245-24.717-26.183c-7.996-8.948-15.947-17.936-23.729-27.081c-7.795-9.129-15.494-18.348-22.895-27.837
			l-0.426-0.547L557.414,394.847z"/>
	</g>
	<g>
		<path d="M270.381,848.749c-8.482-8.078-16.697-16.399-24.809-24.814c-8.348-8.628-16.525-17.412-24.657-26.237
			c-8.122-8.834-15.98-17.906-23.667-27.135c-7.692-9.225-15.391-18.442-23.423-27.357l1.622-0.686
			c0.212,4.786,0.476,9.547,0.632,14.323c0.22,4.772,0.36,9.547,0.535,14.325c0.309,9.556,0.51,19.131,0.302,28.729
			c-0.245,9.596-0.921,19.213-2.503,28.806c-0.803,4.795-1.804,9.594-3.352,14.348c-0.783,2.374-1.705,4.74-2.903,7.061
			c-1.205,2.311-2.681,4.615-4.826,6.626l-4.271-4.705c2.087-1.903,4.419-3.203,6.743-4.261c2.336-1.045,4.704-1.83,7.074-2.479
			c4.74-1.313,9.519-1.968,14.265-2.472c9.5-0.981,18.958-0.951,28.362-0.617c4.703,0.204,9.392,0.502,14.071,0.875
			c4.677,0.411,9.344,0.875,13.999,1.435c4.652,0.575,9.297,1.188,13.921,1.944C261.803,847.15,266.102,847.879,270.381,848.749z
			 M271.243,849.51c-9.321-0.657-18.643-1.151-27.949-1.527c-4.653-0.188-9.303-0.353-13.951-0.425
			c-4.646-0.108-9.289-0.15-13.923-0.094c-9.262,0.063-18.516,0.46-27.584,1.532c-4.527,0.551-8.998,1.368-13.278,2.488
			c-4.229,1.143-8.414,2.77-11.227,5.252l-4.271-4.705c1.378-1.222,2.601-2.938,3.63-4.827c1.036-1.894,1.908-3.964,2.666-6.101
			c1.512-4.283,2.626-8.813,3.525-13.398c1.766-9.192,2.798-18.612,3.64-28.054c0.847-9.447,1.392-18.953,1.605-28.471
			c0.205-9.515,0.067-19.059-0.542-28.545l-0.17-2.646l1.792,1.961c8.096,8.857,16.525,17.412,24.962,25.961
			c8.441,8.544,16.71,17.244,24.717,26.183c7.997,8.947,15.948,17.937,23.728,27.08c7.796,9.13,15.494,18.349,22.894,27.838
			l0.427,0.547L271.243,849.51z"/>
	</g>
	<g>
		<path d="M635.578,773.655c-8.078,8.482-16.4,16.697-24.814,24.809c-8.629,8.349-17.412,16.525-26.238,24.657
			c-8.834,8.122-17.906,15.981-27.135,23.668c-9.225,7.691-18.443,15.391-27.357,23.423l-0.686-1.621
			c4.785-0.212,9.547-0.477,14.322-0.633c4.773-0.221,9.549-0.36,14.326-0.535c9.557-0.31,19.131-0.511,28.73-0.302
			c9.596,0.244,19.211,0.92,28.805,2.503c4.795,0.803,9.594,1.804,14.348,3.352c2.375,0.783,4.74,1.705,7.061,2.904
			c2.311,1.204,4.615,2.681,6.627,4.825l-4.705,4.271c-1.904-2.086-3.203-4.418-4.262-6.743c-1.045-2.335-1.83-4.703-2.479-7.073
			c-1.313-4.739-1.967-9.519-2.471-14.265c-0.982-9.5-0.951-18.958-0.617-28.362c0.203-4.702,0.502-9.392,0.875-14.071
			c0.412-4.677,0.875-9.344,1.436-13.998c0.574-4.652,1.188-9.297,1.943-13.921C633.981,782.232,634.709,777.934,635.578,773.655z
			 M636.34,772.793c-0.656,9.32-1.152,18.643-1.527,27.949c-0.188,4.653-0.354,9.303-0.424,13.951
			c-0.109,4.646-0.15,9.289-0.096,13.923c0.063,9.262,0.461,18.516,1.533,27.584c0.551,4.527,1.367,8.998,2.488,13.278
			c1.143,4.229,2.77,8.414,5.252,11.228l-4.705,4.27c-1.223-1.378-2.938-2.6-4.828-3.63c-1.893-1.036-3.963-1.907-6.1-2.665
			c-4.285-1.513-8.814-2.627-13.4-3.525c-9.191-1.766-18.611-2.798-28.053-3.64c-9.447-0.847-18.953-1.392-28.471-1.605
			c-9.516-0.205-19.059-0.067-28.545,0.542l-2.646,0.171l1.961-1.793c8.857-8.096,17.412-16.525,25.961-24.962
			c8.543-8.441,17.244-16.71,26.184-24.717c8.947-7.997,17.936-15.948,27.08-23.729c9.131-7.796,18.35-15.494,27.838-22.894
			l0.547-0.428L636.34,772.793z"/>
	</g>
	<g>
		<path d="M182.438,485.761c8.078-8.482,16.399-16.697,24.814-24.809c8.628-8.349,17.413-16.525,26.238-24.657
			c8.834-8.122,17.907-15.981,27.135-23.668c9.224-7.692,18.442-15.391,27.357-23.423l0.686,1.622
			c-4.786,0.212-9.547,0.477-14.324,0.632c-4.772,0.22-9.547,0.36-14.325,0.536c-9.556,0.309-19.131,0.51-28.73,0.302
			c-9.596-0.245-19.213-0.92-28.806-2.503c-4.795-0.803-9.593-1.804-14.348-3.352c-2.374-0.783-4.74-1.705-7.061-2.903
			c-2.31-1.205-4.616-2.681-6.626-4.826l4.706-4.271c1.903,2.087,3.202,4.418,4.261,6.743c1.045,2.336,1.83,4.704,2.479,7.074
			c1.313,4.739,1.968,9.519,2.471,14.265c0.981,9.5,0.951,18.958,0.618,28.362c-0.205,4.703-0.502,9.392-0.876,14.071
			c-0.411,4.677-0.875,9.344-1.435,13.999c-0.575,4.652-1.188,9.297-1.944,13.921C184.036,477.184,183.308,481.483,182.438,485.761z
			 M181.676,486.624c0.657-9.321,1.152-18.643,1.527-27.949c0.188-4.653,0.353-9.303,0.425-13.951
			c0.108-4.646,0.15-9.289,0.094-13.923c-0.063-9.262-0.461-18.516-1.533-27.584c-0.55-4.527-1.368-8.998-2.488-13.278
			c-1.143-4.229-2.769-8.414-5.252-11.227l4.706-4.271c1.221,1.378,2.937,2.601,4.827,3.63c1.894,1.036,3.964,1.907,6.101,2.665
			c4.284,1.512,8.814,2.627,13.399,3.525c9.192,1.766,18.612,2.798,28.054,3.639c9.448,0.847,18.954,1.392,28.471,1.605
			c9.515,0.205,19.059,0.067,28.545-0.542l2.646-0.17l-1.961,1.792c-8.858,8.096-17.413,16.525-25.961,24.962
			c-8.544,8.442-17.245,16.711-26.183,24.718c-8.948,7.997-17.936,15.948-27.081,23.729c-9.129,7.796-18.348,15.494-27.837,22.894
			l-0.547,0.427L181.676,486.624z"/>
	</g>
</g>
<g id="Layer_3_copy">
	<g>
		<path d="M946.871,340.175c-6.426,4.752-13.082,9.12-19.873,13.285c-6.787,4.172-13.73,8.085-20.789,11.823
			c-14.137,7.432-28.773,14.054-44.191,19.3c-3.854,1.319-7.762,2.539-11.744,3.609c-3.98,1.077-8.02,2.077-12.156,2.86
			c-8.283,1.51-16.895,2.602-26.277,1.654c-4.672-0.508-9.625-1.478-14.572-3.772c-2.461-1.144-4.91-2.613-7.172-4.455
			c-2.27-1.827-4.311-4.054-5.945-6.501c-1.648-2.44-2.902-5.068-3.797-7.686c-0.904-2.62-1.4-5.244-1.697-7.772
			c-0.588-5.071-0.238-9.811,0.467-14.278c1.463-8.93,4.369-16.902,7.717-24.481c3.385-7.561,7.219-14.727,11.287-21.686
			c8.174-13.893,17.033-27.079,25.727-40.317l26.156-39.568c4.336-6.589,8.729-13.22,12.955-19.813
			c4.238-6.608,8.275-13.344,12.287-20.074c3.975-6.754,7.826-13.569,11.621-20.383c3.77-6.83,7.436-13.691,11.021-20.546
			c3.574-6.862,7.025-13.745,10.293-20.636c3.24-6.9,6.268-13.84,8.748-20.796c2.473-6.927,4.455-13.952,5.24-20.427
			c0.391-3.21,0.445-6.276,0.07-8.749c-0.379-2.499-1.121-4.197-1.93-5.146c-0.41-0.497-0.857-0.884-1.469-1.272
			c-0.607-0.382-1.398-0.749-2.385-1.089c-1.975-0.676-4.73-1.065-7.76-1.086c-3.037-0.005-6.354,0.198-9.746,0.693
			c-3.402,0.466-6.877,1.215-10.4,2.004c-14.111,3.33-28.461,8.617-42.582,14.446c-14.129,5.904-28.133,12.492-41.959,19.513
			c-13.818,7.039-27.484,14.499-40.871,22.454c-6.674,3.999-13.332,8.061-19.744,12.454c-3.209,2.192-6.41,4.404-9.467,6.784
			c-3.059,2.373-6.068,4.826-8.709,7.611l-1.873-1.334c0.967-1.813,2.1-3.515,3.287-5.164c1.189-1.648,2.43-3.257,3.738-4.797
			c2.609-3.085,5.326-6.072,8.158-8.926c5.684-5.688,11.607-11.11,17.746-16.256c12.271-10.303,25.209-19.751,38.607-28.542
			c13.41-8.778,27.287-16.907,41.783-24.125c7.238-3.635,14.656-6.986,22.281-10.05c7.615-3.1,15.49-5.747,23.727-7.918
			c4.119-1.094,8.365-1.933,12.754-2.593c4.395-0.624,8.951-1.085,13.787-0.934c4.826,0.153,9.986,0.75,15.449,2.705
			c2.719,0.979,5.498,2.357,8.115,4.236c2.615,1.865,5.039,4.248,6.951,6.929c1.928,2.677,3.332,5.601,4.277,8.462
			c0.955,2.867,1.449,5.681,1.699,8.356c0.477,5.364,0.006,10.222-0.77,14.787c-1.633,9.102-4.539,17.153-7.758,24.885
			c-13.1,30.679-31.939,56.526-51.535,81.553c-4.867,6.273-9.869,12.428-14.795,18.622l-7.363,9.254
			c-2.395,3.11-4.82,6.198-7.148,9.358c-9.375,12.586-18.238,25.557-26.197,39.049c-7.959,13.479-14.941,27.558-20.613,41.954
			c-2.828,7.191-5.383,14.44-7.379,21.678c-0.979,3.622-1.9,7.21-2.564,10.772c-0.727,3.542-1.174,7.059-1.416,10.404
			c-0.211,3.343-0.1,6.538,0.381,9.275c0.523,2.744,1.379,4.933,2.553,6.515c1.193,1.56,2.646,2.845,4.891,3.879
			c2.209,1.022,5.033,1.823,8.168,2.213c6.299,0.777,13.527,0.397,20.754-0.618c7.273-0.958,14.648-2.574,22.043-4.362
			c14.787-3.684,29.584-8.42,44.361-13.435c14.789-5.024,29.543-10.447,44.453-15.811L946.871,340.175z"/>
	</g>
	<g>
		<path d="M917.313,453.255c-0.1,2.832-1.074,5.661-2.473,8.145c-1.408,2.502-3.195,4.785-5.141,6.961
			c-3.91,4.329-8.512,8.287-13.561,11.487c-5.061,3.174-10.594,5.449-16.281,6.542c-5.684,1.106-11.492,1.236-17.17,0.422
			c-5.688-0.779-11.24-2.588-16.566-4.611c-5.33-2.083-10.447-4.343-15.527-6.539c-5.074-2.241-10.133-4.449-15.076-7.673
			c-1.215-0.833-2.469-1.682-3.641-2.711c-1.209-0.988-2.354-2.134-3.449-3.434c-1.082-1.31-2.076-2.814-2.869-4.536
			c-0.779-1.722-1.344-3.664-1.545-5.689c-0.445-4.074,0.641-8.314,2.434-11.662c1.773-3.4,4.092-6.171,6.576-8.459
			c4.99-4.6,10.621-7.417,16.217-9.719c5.619-2.275,11.338-3.947,17.129-5.01c5.781-1.094,11.637-1.519,17.445-1.281
			c5.803,0.25,11.607,1.04,17.277,2.555c5.66,1.547,11.119,4.165,16.096,7.559c4.969,3.419,9.486,7.52,13.287,12.01
			c1.887,2.255,3.605,4.634,4.893,7.237c1.285,2.594,2.072,5.481,1.947,8.374l-0.002,0.026V453.255z M915.016,453.152
			c0.045-2.38-0.928-4.689-2.477-6.496c-1.555-1.824-3.621-3.201-5.869-4.168c-2.256-0.967-4.674-1.578-7.139-1.925
			c-2.461-0.361-4.953-0.495-7.422-0.53c-4.939-0.083-9.748,0.114-14.461,0.039c-4.713-0.104-9.406-0.135-14.107-0.004
			c-4.693,0.122-9.354,0.287-13.984,0.583c-4.617,0.34-9.225,0.831-13.598,1.804c-4.367,0.959-8.482,2.415-12.018,3.988
			c-0.871,0.412-1.719,0.802-2.479,1.243c-0.787,0.417-1.49,0.853-2.121,1.306c-1.225,0.931-2.17,1.779-2.74,2.981
			c-0.563,1.178-0.676,2.826,0.008,4.652c0.66,1.816,1.986,3.674,3.67,5.261c1.674,1.614,3.688,2.996,5.855,4.128
			c2.168,1.141,4.498,2.039,6.916,2.666c4.836,1.281,9.984,1.442,15.031,0.981c5.053-0.405,10-1.392,14.816-2.052
			c4.824-0.698,9.531-1.159,14.26-1.443c4.719-0.31,9.512-0.198,14.445-0.272c2.471-0.02,4.967-0.129,7.443-0.446
			c2.482-0.305,4.928-0.86,7.229-1.775c2.289-0.919,4.408-2.252,6.035-4.047C913.924,457.837,914.979,455.588,915.016,453.152z"/>
	</g>
</g>
</svg>
