<?xml version="1.0" encoding="utf-8"?>
<!-- Generator: Adobe Illustrator 23.0.1, SVG Export Plug-In . SVG Version: 6.00 Build 0)  -->
<svg version="1.1" id="Layer_6" xmlns="http://www.w3.org/2000/svg" xmlns:xlink="http://www.w3.org/1999/xlink" x="0px" y="0px"
	 viewBox="0 0 566.93 566.93" enable-background="new 0 0 566.93 566.93" xml:space="preserve">
<path stroke="#000000" stroke-width="13" stroke-miterlimit="10" d="M554.698,508.649c2.855-52.059,1.438-104.298-4.234-156.126
	c-0.685-6.255-10.686-8.312-9.857-0.737c5.574,50.932,6.991,102.202,4.186,153.361C544.471,511.012,554.298,515.941,554.698,508.649
	L554.698,508.649z"/>
<path stroke="#000000" stroke-width="13" stroke-miterlimit="10" d="M520.251,518.132c2.855-52.059,1.438-104.298-4.234-156.126
	c-0.685-6.255-10.686-8.312-9.857-0.737c5.574,50.932,6.991,102.202,4.186,153.361C510.024,520.495,519.851,525.424,520.251,518.132
	L520.251,518.132z"/>
<path stroke="#000000" stroke-width="13" stroke-miterlimit="10" d="M481.293,529.136c2.855-52.059,1.438-104.298-4.234-156.126
	c-0.685-6.255-10.686-8.312-9.857-0.737c5.574,50.932,6.991,102.202,4.186,153.361C471.066,531.499,480.893,536.428,481.293,529.136
	L481.293,529.136z"/>
<path stroke="#000000" stroke-width="13" stroke-miterlimit="10" d="M442.907,538.641c2.855-52.059,1.438-104.298-4.234-156.126
	c-0.685-6.255-10.686-8.312-9.857-0.737c5.574,50.932,6.991,102.202,4.186,153.361C432.68,541.004,442.507,545.933,442.907,538.641
	L442.907,538.641z"/>
<path stroke="#000000" stroke-width="13" stroke-miterlimit="10" d="M401.672,544.881c2.855-52.059,1.438-104.298-4.234-156.126
	c-0.685-6.255-10.686-8.312-9.857-0.737c5.574,50.932,6.991,102.202,4.186,153.361C391.445,547.244,401.272,552.174,401.672,544.881
	L401.672,544.881z"/>
<path stroke="#000000" stroke-width="13" stroke-miterlimit="10" d="M361.19,552.096c2.855-52.059,1.438-104.298-4.234-156.126
	c-0.685-6.255-10.686-8.312-9.857-0.737c5.574,50.932,6.991,102.202,4.186,153.361C350.963,554.459,360.79,559.388,361.19,552.096
	L361.19,552.096z"/>
<path stroke="#000000" stroke-width="13" stroke-miterlimit="10" d="M317.803,556.096c2.855-52.059,1.438-104.298-4.234-156.126
	c-0.685-6.255-10.686-8.312-9.857-0.737c5.574,50.932,6.991,102.202,4.186,153.361C307.576,558.459,317.403,563.388,317.803,556.096
	L317.803,556.096z"/>
<path stroke="#000000" stroke-width="13" stroke-miterlimit="10" d="M274.165,557.255c2.855-52.059,1.438-104.298-4.234-156.126
	c-0.685-6.255-10.686-8.312-9.857-0.737c5.574,50.932,6.991,102.202,4.186,153.361C263.938,559.619,273.765,564.548,274.165,557.255
	L274.165,557.255z"/>
<path stroke="#000000" stroke-width="13" stroke-miterlimit="10" d="M232.137,557.255c2.855-52.059,1.438-104.298-4.234-156.126
	c-0.685-6.255-10.686-8.312-9.857-0.737c5.574,50.932,6.991,102.202,4.186,153.361C221.91,559.619,231.737,564.548,232.137,557.255
	L232.137,557.255z"/>
<path stroke="#000000" stroke-width="13" stroke-miterlimit="10" d="M187.012,555.255c2.855-52.059,1.438-104.298-4.234-156.126
	c-0.685-6.255-10.686-8.312-9.857-0.737c5.574,50.932,6.991,102.202,4.186,153.361C176.785,557.619,186.612,562.548,187.012,555.255
	L187.012,555.255z"/>
<path stroke="#000000" stroke-width="13" stroke-miterlimit="10" d="M144.794,545.638c2.855-52.059,1.438-104.298-4.234-156.126
	c-0.685-6.255-10.686-8.312-9.857-0.737c5.574,50.932,6.991,102.202,4.186,153.361C134.567,548.002,144.394,552.931,144.794,545.638
	L144.794,545.638z"/>
<path stroke="#000000" stroke-width="13" stroke-miterlimit="10" d="M104.528,535.912c2.855-52.059,1.438-104.298-4.234-156.126
	c-0.685-6.255-10.686-8.312-9.857-0.737c5.574,50.932,6.991,102.202,4.186,153.361C94.301,538.275,104.128,543.204,104.528,535.912
	L104.528,535.912z"/>
<path stroke="#000000" stroke-width="13" stroke-miterlimit="10" d="M63.043,526.946c2.855-52.059,1.438-104.298-4.234-156.126
	c-0.685-6.255-10.686-8.312-9.857-0.737c5.574,50.932,6.991,102.202,4.186,153.361C52.816,529.309,62.643,534.239,63.043,526.946
	L63.043,526.946z"/>
<path stroke="#000000" stroke-width="13" stroke-miterlimit="10" d="M21.94,507.251c2.855-52.059,1.438-104.298-4.234-156.126
	c-0.685-6.255-10.686-8.312-9.857-0.737c5.574,50.932,6.991,102.202,4.186,153.361C11.713,509.614,21.54,514.543,21.94,507.251
	L21.94,507.251z"/>
<path d="M564.298,382.298c0.012-0.418,0.068-0.808,0.157-1.171c-64.536,19.131-129.98,32.024-197.268,38.896
	c-79.623,8.132-162.013,7.263-242.368-2.69c-41.237-5.108-82.153-12.564-122.514-22.416c-0.021,5.998,0.882,11.891,1.628,17.813
	c71.975,16.156,145.417,25.198,219.202,27.089c84.436,2.163,169.294-5.09,252.101-21.76c29.944-6.028,59.622-13.18,88.966-21.547
	C564.109,391.782,564.16,387.044,564.298,382.298z"/>
<path d="M567.017,458.538c-65.366,19.552-131.651,32.703-199.83,39.666c-79.623,8.132-162.013,7.263-242.368-2.69
	c-40.384-5.002-80.461-12.255-120.009-21.806c0.026,5.756-0.121,11.508-0.638,17.255c71.898,16.122,145.259,25.148,218.963,27.036
	c84.436,2.163,169.294-5.09,252.101-21.76c30.895-6.219,61.506-13.639,91.759-22.352
	C567.685,468.733,568.227,463.568,567.017,458.538z"/>
<path d="M417.956,231.699c-0.304-0.291-0.96-0.904-1.57-1.1c-0.366-0.274-0.765-0.475-1.165-0.523
	c-1.676-0.201-3.507,0.402-4.322,1.976c-1.14,2.199,1.024,4.754,3.012,5.537c1.476,0.581,3.786,0.472,4.926-0.764
	C420.293,235.245,419.292,232.978,417.956,231.699z"/>
<g>
	<g>
		<path d="M482.074,232.321c-1.457-0.606-5.499-1.735-6.287,0.41c-0.844,2.297,2.21,4.355,3.892,5.198
			c0.417,0.209,0.863,0.381,1.315,0.498c-1.683-0.437-0.346-0.042,0.068,0.112c0.608,0.227,1.248,0.395,1.899,0.427
			c0.957,0.048,1.907-0.228,2.572-0.936c1.978-2.107-1.11-4.488-2.784-5.41c-0.598-0.329-2.482-1.136-2.973-0.262
			c-0.493,0.877,1.491,1.988,1.964,2.248c-1.329-0.731-0.459-0.618-0.651,0.169c-0.076,0.311-0.296,0.565-0.546,0.746
			c0.002-0.001-0.599,0.281-0.59,0.253c1.178,0.351,1.273,0.331,0.284-0.06c-1.066-0.352-0.861-0.248,0.615,0.312
			c0.004-0.028-0.146-0.226-0.146-0.323c0.001-0.247-0.038-0.467,0.117-0.691c0.313-0.456,1.155-0.289,1.591-0.108
			c0.579,0.241,2.316,0.727,2.345-0.345C484.786,233.513,482.789,232.618,482.074,232.321z"/>
	</g>
</g>
<g>
	<g>
		<path d="M479.165,237.458c1.556,0,4.846-3.987,2.599-3.987C480.209,233.472,476.919,237.458,479.165,237.458L479.165,237.458z"/>
	</g>
</g>
<g>
	<path d="M103.496,268.312c-0.142,4.312-0.886,8.529,1.75,12.21c1.935,2.702,4.884,5.966,8.068,7.253
		c3.512,1.419,4.383-0.456,5.276-3.706c1.021-3.72,2.402-10.379,0.629-13.996c-0.38-0.775-1.017-1.329-1.736-1.813
		c-2.336-1.575-4.697-2.237-6.803-4.363c-0.874-0.883-5.047-1.922-4.59-0.746C103.336,263.242,103.574,265.957,103.496,268.312z"/>
	<path d="M129.626,251.44c-0.68,2.835-1.324,5.881-2.999,8.321c-1.426,2.077-3.588,2.334-5.226,3.881
		c-2.361,2.23-0.663,7.862-0.476,10.753c0.306,4.743,1.122,5.106,5.897,5.39c2.807,0.167,5.81-0.046,8.449,1.115
		c2.525,1.11,3.238,3.298,5.122,4.96c1.737,1.533,3.995,1.829,6.04,0.652c3.042-1.75,1.371-5.502,0.999-8.433
		c-0.698-5.507-0.856-11.48-3.738-16.381c-2.341-3.981-5.974-7.023-9.477-9.941c0.123-0.453,0.243-0.918,0.358-1.401
		C134.945,248.812,130.009,249.842,129.626,251.44z"/>
	<path d="M126.184,316.371c0.08-6.234,7.496-11.778,11.909-15.49c2.638-2.22,6.12-4.156,6.299-8.004
		c0.432-9.324-14.407-6.61-19.965-7.084c-1.776-0.152-3.942-0.997-5.346,0.421c-0.948,0.958-1.575,4.035-1.994,4.96
		c-1.985,4.376-2.878,8.128-3.477,12.953c-0.384,3.09-1.916,8.086,0.125,10.978c1.985,2.812,7.466,2.589,10.853,2.69
		C125.303,318.43,126.159,318.259,126.184,316.371z"/>
	<path d="M110.192,291.034c-1.449-1.123-3.779-1.346-5.417-2.182c-2.3-1.174-2.935-2.39-4.539-4.137
		c-0.467-0.509-0.294-0.893-0.984-1.213c-1.45-0.671-3.437,0.522-4.925,0.859c-3.76,0.851-7.338,1.189-11.113,0.214
		c-0.584-0.151-1.129,0.333-1.529,1.042c-0.635,0.375-1.31,1.267-1.498,2.303c-0.874,4.834-2.657,10.322-1.954,15.274
		c0.519,3.651,3.367,8.853,7.366,9.561c4.115,0.729,6.281-3.139,7.956-6.218c0.501-0.92,0.884-1.935,1.414-2.837
		c0.3-0.954,0.846-1.74,1.637-2.358c0.904-1.683,1.656-1.453,2.256,0.691c1.638,1.769,3.163,1.672,5.604,1.883
		c3.359,0.29,5.681,1.325,6.972-2.223C112.495,298.79,112.92,293.148,110.192,291.034z"/>
	<path d="M83.152,337.941c0.392,0.927,0.935,1.66,1.719,1.726c0.22,0.018,0.451-0.049,0.683-0.172
		c3.027,1.399,7.112,1.821,9.613,1.027c1.7-0.54,2.177-1.071,1.921-2.759c-0.273-1.801-2.186-3.756-2.956-5.409
		c-0.852-1.831-1.43-3.712-1.635-5.723c-0.271-2.66,0.293-3.449-1.846-5.055c-3.232-2.426-10.092-3.058-9.99-8.322
		c0.034-1.74-5.163-3.183-5.204-1.024c-0.013,0.683,0.098,1.32,0.298,1.919c-0.358,0.136-0.547,0.389-0.423,0.796
		c1.297,4.24,2.593,8.479,3.889,12.719c0.879,2.874,1.384,7.097,3.272,9.57C82.682,337.482,82.91,337.715,83.152,337.941z"/>
	<path d="M107.865,305.921c-5.317-2.176-11.555,2.899-15.094,6.094c-1.758,1.587-1.688,3.703-0.903,5.879
		c-0.03,0.897,0.036,1.775,0.218,2.737c0.038,0.201,0.098,0.35,0.17,0.467c0.253,2.469,1.256,4.726,2.215,7.1
		c0.318,0.787,1.751,0.416,2.859-0.354c0.027-0.012,0.047-0.01,0.074-0.025c0.059-0.03,0.117-0.052,0.176-0.08
		c0.228,0.101,0.449,0.127,0.625-0.011c0.097-0.076,0.138-0.184,0.158-0.303c1.131-0.371,2.265-0.447,3.446-0.759
		c1.195-0.315,2.283-0.999,3.362-1.584c1.097-0.595,2.071-1.132,2.945-2.035c0.052-0.053,0.088-0.09,0.129-0.132
		c0.242-0.101,0.503-0.164,0.743-0.347c0.327-0.248,0.582-0.532,0.807-0.83c0.559-0.426,0.94-1.075,1.042-2.113
		c0.031-0.317,0.022-0.633-0.001-0.948c0.057-0.631,0.068-1.273,0.065-1.899c-0.012-2.47,0.209-6.546-1.316-8.664
		C109.33,307.166,108.853,306.326,107.865,305.921z M108.502,322.664C108.523,322.644,108.523,322.645,108.502,322.664
		L108.502,322.664z"/>
	<path d="M153.218,340.328c1.171-3.207-0.209-9.169-1.678-11.987c-1.55-2.972-5.179-2.679-8.272-2.884
		c-0.109-0.156-0.221-0.299-0.334-0.431c6.031-3.438,15.058-8.622,14.7-16.765c-0.251-5.703-6.174-4.612-10.173-3.21
		c-5.275,1.85-15.871,4.067-19.565,9.665c-0.096,0.036-0.173,0.105-0.213,0.23c-0.039,0.123-0.093,0.231-0.137,0.349
		c-0.192,0.348-0.36,0.707-0.497,1.08c-2.289,4.099-7.666,5.013-9.877,9.3c-1.857,3.601,0.085,7.978,1.817,11.275
		c0.266,0.507,1.89,3.004,2.762,2.222c1.91-1.713,3.401-3.402,5.099-4.875c1.215-0.721,2.368-1.535,3.319-2.041
		c1.007-0.535,2.009-1.073,3-1.625c2.692-1.228,5.142-2.846,7.676-4.381c-2.326,4.457-6.256,8.009-10.611,10.498
		c-4.644,2.654-7.379,1.715-6.908,7.829c0.349,4.524,0.847,19.202,9.229,15.118c1.806-0.88,2.816-2.945,3.99-4.447
		c1.95-2.494,4.281-4.526,6.853-6.354C146.639,346.593,151.75,344.347,153.218,340.328z"/>
	<path d="M82.349,280.55c5.539,2.583,11.239,3.962,15.331-1.537c2.029-2.726,2.251-6.627,3.25-9.776
		c1.217-3.834,2.885-7.33,5.517-10.417c0.969-1.136-1.006-3.327-2.039-3.722c-4.371-1.674-8.311,0.463-12.65,0.295
		c-0.755-0.781-1.686-1.269-2.215-0.785c-4.939,4.515-8.476,10.306-9.783,16.916C79.044,275.15,78.515,278.762,82.349,280.55z"/>
	<path d="M108.307,245.081c-0.492,0.932-0.048,2.432,0.073,3.412c0.246,1.992-0.602,2.795-0.809,4.46
		c-0.239,1.922,1.034,3.016,2.385,4.247c1.638,1.492,3.715,3.676,5.869,4.424c2.351,0.816,4.111-1.237,5.741-2.711
		c4.254-3.846,9.688-9.672,9.813-15.735c0.026-1.276-2.322-3.135-3.713-3.587c-0.917-0.641-1.887-0.971-2.42-0.487
		c-2.806,2.545-6.133,3.402-9.78,4.001C113.563,243.417,109.362,243.081,108.307,245.081z"/>
	<path d="M102.104,247.672c0.02,0.228,0.028,0.448,0.055,0.682c0.205,1.798,5.141,2.186,5.304,0.324
		c0.047-0.534-0.013-0.981-0.117-1.393c-0.191-3.433,0.474-6.181,2.132-9.466c0.503-0.996-0.9-1.68-2.371-1.817
		c-1.284-1.2-2.353-2.487-3.273-4.03c-0.683-1.145-4.502-1.884-5.114-0.312c-1.055,2.709-2.935,6.59-2.333,9.524
		C96.985,244.094,101.561,245.218,102.104,247.672z"/>
	<path d="M102.181,230.449c2.372,0.51,4.083,0.068,4.779-2.156c0.729-2.33,0.854-4.761,1.859-7.028
		c1.134-2.558,2.885-4.787,4.587-6.984c0.252-0.325,0.146-0.887-0.143-1.456c-0.536-1.152-1.798-2.346-2.526-1.821
		c-2.24,1.615-5.314,1.098-7.917,1.59c-2.026,0.383-1.974,0.586-2.024,2.589c-0.081,3.278-0.37,6.342-1.18,9.536
		c-0.353,1.391-0.745,2.396-0.01,3.757C100.156,229.493,101.072,230.21,102.181,230.449z"/>
	<path d="M118.609,216.596c-1.347-0.999-5.105-0.873-5.294,0.785c-0.634,5.558-2.117,10.934-2.87,16.449
		c-0.587,4.3,0.573,6.839,5.19,6.535c3.695-0.243,6.831-0.703,7.599-4.64c1.136-5.819-0.086-11.905-1.146-17.638
		C121.881,216.964,120.131,216.508,118.609,216.596z"/>
	<path d="M113.507,151.304c0.944-0.539,1.542-1.295,2.147-2.183c0.751-1.103,1.472-1.912,2.488-2.773
		c1.866-1.58,2.389-4.021,1.841-6.366c-0.403-1.729-1.277-2.461-2.448-2.222c-0.291-1.002-0.855-1.778-1.538-1.405
		c-2.134,1.166-4.558,3.113-5.335,5.526c-0.848,2.632,0.516,5.516,1.327,7.991C112.182,150.465,112.649,151.793,113.507,151.304z"/>
	<path d="M105.223,167.887c0.269,3.069-0.116,7.702,2.826,9.647c0.634,0.419,2.033,1.061,2.814,0.873
		c1.749-0.422,1.227-1.845,1.09-3.256c-0.594-6.089-1.421-12.164-2.131-18.24c-0.055-0.47-0.527-0.971-1.126-1.386
		c-0.469-0.672-1.32-1.406-1.987-1.592c-0.054-0.015-0.108-0.03-0.162-0.045c-0.438-0.122-1.074-0.28-1.41,0.144
		c-0.962,1.215-0.556,4.021-0.493,5.436C104.77,162.276,104.978,165.088,105.223,167.887z"/>
	<path d="M111.531,159.916c-0.194,0.235-0.337,0.499-0.375,0.801c-0.119,0.963,0.021,1.946,0.373,2.85
		c0.135,0.345,0.643,0.449,0.951,0.466c0.202,0.011,0.421-0.015,0.639-0.056c0.714,2.137,1.043,4.203,0.954,6.491
		c-0.055,1.425-0.348,2.992,0.529,4.251c1.807,2.595,4.458,1.066,5.798-1.076c0.685-1.094,0.901-2.103,0.916-3.363
		c0.032-2.732-0.108-5.421,0.055-8.156c0.079-1.322,0.415-2.414-0.659-3.298c-1.481-1.218-3.828-1.831-5.451-2.987
		C114.116,155.022,111.197,158.607,111.531,159.916z"/>
	<path d="M108.708,206.643c1.495,2.247,2.378,4.644,5.875,3.929c1.83-0.374,5.564-1.938,6.68-3.457c1.2-1.633,0.658-3.9,0.489-5.783
		c-0.439-4.915-0.143-12.144-2.792-16.479c-2.615-4.28-9.786-2.77-13.985-2.673c-0.451,0.01-0.642,0.334-0.659,0.794
		c-0.224-0.009-0.381,0.143-0.409,0.546c-0.241,3.561-0.76,6.834-1.561,10.305c-0.566,2.451-0.784,4.452,0.044,6.913
		C103.346,203.581,105.504,206.751,108.708,206.643z"/>
	<path d="M160.176,273.137c0.269,0.542,0.566,1.056,0.876,1.555c2.038,6.384-2.482,12.869-0.36,19.054
		c1.288,3.754,5.847,3.907,9.053,5.793c0.216,0.394,0.432,0.497,0.641,0.416c0.393,0.282,0.763,0.594,1.088,0.961
		c0.66,0.746,1.19,0.596,1.39-0.391c0.947-4.681,2.543-12.959,0.483-17.554c-0.742-1.655-2.303-2.659-3.658-3.791
		c-2.631-2.198-5.393-4.281-7.352-7.073c-0.308-0.752-0.662-1.495-1.064-2.233c-0.909-1.668-1.35-0.85-1.415,0.388
		C159.744,271.185,159.857,272.496,160.176,273.137z"/>
	<path d="M148.832,277.391c0.71,1.854,1.795,3.782,2.695,5.552c0.758,1.491,1.376,2.185,2.985,2.69
		c1.109,0.348,4.447-0.449,4.63-1.912c0.597-4.762-0.2-9.282-1.636-13.837c-0.502-1.593-0.899-4.505-2.159-5.659
		c-0.91-0.833-2.105-0.074-2.979-0.609c-0.363-0.222-0.934-0.224-1.562-0.094c-0.081-0.133-0.146-0.265-0.234-0.398
		c-0.977-1.477-5.876,0.739-5.163,1.817C148.054,268.939,147.204,273.141,148.832,277.391z"/>
	<path d="M179.896,293.213c0.07-1.779-4.471-5.353-4.574-2.733c-0.023,0.581,0.009,1.105,0.064,1.608
		c-0.198,0.066-0.338,0.232-0.373,0.558c-0.724,6.627-3.334,12.564-1.946,19.316c0.694,3.378,3.576,7.906,7.532,7.447
		c0.278-0.07,0.458-0.242,0.54-0.516c1.495-4.298,1.962-10.547,2.174-15.088C183.507,299.643,179.739,297.235,179.896,293.213z"/>
	<path d="M169.226,309.76c-0.323-1.653,0.096-3.337-0.643-4.931c-1.348-2.913-5.202-3.949-7.864-5.191
		c-1.126-0.525-1.25,0.155-0.932,1.063c-0.547,0.002-0.838,0.417-0.397,1.532c1.821,4.606-1.351,12.226-3.005,16.63
		c-1.177,3.133-2.742,5.393-0.736,8.389c1.73,2.585,4.648,6.955,7.53,8.376c2.721,1.342,4.076-1.491,5.824-3.377
		c1.219-1.315,2.417-2.822,3.946-3.796c1.253-0.798,2.366-0.785,3.002-2.145c1.223-2.616-1.723-7.036-2.919-9.192
		C171.701,314.721,169.767,312.529,169.226,309.76z"/>
	<path d="M88.324,354.885c0.866,1.988,1.66,4.585,3.564,5.863c2.208,1.481,6.43,0.987,8.845,0.495
		c2.665-0.543,1.907-2.942,1.934-5.292c0.037-3.207,0.089-6.215-1.321-9.181c-1-2.105-2.719-4.379-5.037-5.119
		c-1.012-0.323-1.932-0.274-2.938-0.009c-0.828,0.218-1.546,0.828-2.427,0.918c-1.189,0.122-2.621-0.46-3.707-0.851
		c-0.392-0.141-0.632-0.068-0.763,0.128c-0.308-0.136-0.604-0.145-0.846,0.052c-2.004,1.632-3.467,3.547-2.526,6.219
		C84.11,350.974,87.114,352.108,88.324,354.885z"/>
	<path d="M93.984,368.822c-0.101-1.862-0.834-3.742-1.149-5.542c-0.299-1.712-1.499-1.87-3.058-2.564
		c-1.428-0.635-4.694,2.934-3.388,3.905c-0.405,0.657-0.556,1.319-0.189,1.756c2.862,3.406-1.847,11.707,3.001,13.647
		c0.594,0.238,1.5-0.33,1.927-0.667C94.024,377.075,94.171,372.252,93.984,368.822z"/>
	<path d="M94.559,377.367c0.957,2.678,3.978,3.798,6.523,4.316c0.448,0.091,0.968,0.012,1.044-0.509
		c0.564-3.893,0.33-7.547,1.603-11.324c0.798-2.369,0.631-4.321-1.638-5.804c-2.312-1.51-3.676-0.993-4.471,0.483
		c-1.118-0.604-2.326-0.843-2.255-0.118c0.235,2.422-0.07,4.679-0.46,7.07C94.607,373.3,93.91,375.552,94.559,377.367z"/>
	<path d="M96.814,397.158c0.224-0.354,0.612-1.013,1.007-1.171c0.251-0.1,0.599,0.078,0.854-0.001
		c0.601-0.186,0.684-0.537,0.868-1.087c0.438-1.312,0.643-2.921,0.368-4.286c-0.295-1.464-1.229-3.17-2.515-3.99
		c-0.212-0.135-0.599-0.419-0.86-0.402c-0.432,0.03-0.257,0.376-0.122,0.516c-0.307-0.275-1.305-1.428-1.677-1.607
		c-0.194-0.108-0.39-0.117-0.588-0.029c-0.303,0.289-0.623,0.791-0.905,1.321c-0.801-1.042-1.806-1.756-1.985-0.725
		c-0.598,3.442-1.983,7.906-0.155,11.145c0.62,1.098,1.697,2.546,3.041,2.772C95.77,399.887,96.132,398.235,96.814,397.158z"/>
	<path d="M103.321,396.231c-2.862-0.758-4.588,0.714-5.506,3.338c-0.353,1.008-0.805,2.31-0.66,3.377
		c0.176,1.292,1.376,2.366,2.057,3.506c0.864,2.113,3.308,2.929,5.428,3.13c0.404,0.038,2.436,0.067,2.379-0.78
		c-0.115-1.707-0.334-3.451-0.346-5.162c-0.006-0.831,0.111-0.647,0.396-1.238c0.146-0.303,0.318-0.373,0.367-0.797
		c0.119-1.025-0.704-2.527-1.204-3.396C105.581,397.077,104.572,396.563,103.321,396.231z"/>
	<path d="M101.854,410.829c-0.499-2.051-3.651-1.945-5.285-1.984c-1.251-0.03-3.995,2.949-3.401,4.388
		c-0.214,0.501-0.298,0.971-0.15,1.316c1.239,2.892,0.706,5.958,1.56,8.891c0.742,2.549,3.042,0.858,4.131-0.563
		c0.644-0.841,1.051-1.836,1.398-2.839c0.071-0.18,0.133-0.361,0.182-0.545c0.04-0.121,0.082-0.242,0.121-0.362
		c0.42-1.283,1.151-3.049,1.104-4.424c-0.008-0.228-0.059-0.46-0.137-0.694C101.659,413.005,102.097,411.829,101.854,410.829z"/>
	<path d="M173.625,335.974c-0.207-0.105-0.381-0.136-0.535-0.126c-0.366-0.455-0.799-0.708-1.202-0.266
		c-1.591,1.749-3.418,3.575-4.55,5.669c-1.087,2.01-0.908,4.274-0.584,6.462c0.109,0.733,0.592,2.737,1.591,2.785
		c0.148,0.007,0.27-0.022,0.379-0.067c0.315,0.865,0.793,1.592,1.487,1.926c1.786,0.858,3.705-2.422,4.234-3.806
		c1.147-2.999,0.46-6.242,0.473-9.352C174.923,338.244,174.585,336.461,173.625,335.974z"/>
	<path d="M163.518,370.599c-1.307-0.307-2.164-1.69-3.251-2.689c0.503,0.152,1.04,0.211,1.621,0.123
		c1.47-0.222,1.763-1.05,1.894-2.365c0.344-3.445,0.273-6.758,0.797-10.233c0.187-1.235,0.079-2.262-0.242-3.152
		c-0.169-0.884-0.625-1.805-0.992-2.31c-0.516-0.711-1.156-1.215-1.94-1.603c-0.25-0.124-0.733-0.194-1.218-0.254
		c-0.56-0.328-1.148-0.649-1.757-0.974c-0.204-0.109-0.503-0.215-0.821-0.286c-0.056-0.086-0.112-0.173-0.168-0.259
		c-0.43-0.666-4.153-3.124-3.719-0.854c0.039,0.206,0.071,0.412,0.109,0.617c-0.011,0.022-0.022,0.044-0.033,0.065
		c-0.399,0.002-0.714,0.17-0.837,0.595c-0.07,0.242-0.138,0.485-0.206,0.728c-0.269,0.13-0.32,0.42-0.211,0.792
		c-0.077,0.298-0.147,0.597-0.213,0.897c-2.857,0.068-2.351,4.353-1.304,7.023c-0.066,0.305-0.058,0.671,0.046,1.202
		c0.573,2.934,3.422,6.349,6.061,7.587c0.004,0.002,0.008,0.003,0.012,0.005c0.413,0.623,0.881,1.193,1.406,1.661
		c-2.436-0.725-5.117-0.566-7.599-1.39c-1.26-0.418-2.11-1.074-2.718,0.29c-0.422,0.946-0.169,2.648-0.207,3.679
		c-0.043,1.15-0.157,2.326-0.092,3.477c0.13,2.328,2.206,6.945,5.085,7.036c0.8,0.025,1.815-0.979,2.498-1.331
		c1.037-0.535,2.155-0.887,3.261-1.243c2.252-0.726,4.413-1.35,6.361-2.745c0.026-0.019,0.042-0.047,0.065-0.07
		C166.555,374.538,164.57,370.846,163.518,370.599z"/>
	<path d="M172.954,358.254c-0.266,0.019-0.519,0.151-0.761,0.34c0.001-0.191-0.019-0.376-0.087-0.541
		c-0.299-0.727-0.875-0.212-1.165,0.282c-0.049,0.014-0.094,0.023-0.151,0.05c-0.598,0.288-0.943,1.394-1.097,2.151
		c-0.659,1.16-1.287,2.353-1.612,3.58c-0.214,0.809-0.325,1.603,0.251,2.263c0.539,0.617,1.412,1.024,2.156,1.299
		c0.655,0.242,1.261-1.35,1.378-1.688C172.211,365,175.301,358.084,172.954,358.254z"/>
	<path d="M161.293,379.826c-0.037,0.048-0.076,0.094-0.113,0.141c-0.287-0.108-0.567-0.14-0.824-0.044
		c-0.73,0.272-1.459,0.543-2.189,0.815c-0.599,0.223-1.483,0.364-1.985,0.753c-1.382,1.07,0.933,3.859,1.696,4.71
		c0.894,0.996,2.52,2.484,3.961,1.647c1.162-0.675,2.163-2.218,2.965-3.263C165.951,383.091,162.065,378.821,161.293,379.826z"/>
	<path d="M132.827,368.983c-0.344-0.617-0.67-1.242-0.928-1.894c-0.296-0.745-3.34-3.061-4.172-2.3
		c-0.407-0.17-0.809-0.248-1.15-0.124c-0.944,0.343-0.765,1.108-0.088,1.789c-0.069,0.051-0.132,0.11-0.183,0.185
		c-1.563,2.261-1.782,5-1.469,7.751c-0.036,0.085-0.07,0.165-0.106,0.251c-0.672,1.594-0.968,2.96-0.368,4.66
		c0.823,2.33,3.735,7.006,6.691,6.99c1.744-0.009,1.899-1.337,2.641-2.852c1.13-2.303,2.691-4.778,3.345-7.25
		C137.688,373.74,135.216,371.125,132.827,368.983z"/>
	<path d="M127.93,390.468c-0.343,0.079-0.641,0.392-0.872,0.812c-0.26-0.057-0.57,0.066-0.872,0.357
		c-1.465,1.412-3.03,3.328-2.445,5.508c0.405,1.509,2.14,2.137,3.458,1.337c0.766-0.465,1.261-1.307,1.569-2.126
		c0.2-0.53,0.319-1.065,0.42-1.621c0.031-0.172,0.057-0.345,0.087-0.517c0.04-0.09,0.095-0.216,0.18-0.416
		c0.094-0.221,0.166-0.463,0.227-0.696c0.16-0.612,0.234-1.429-0.056-2.025C129.303,390.413,128.588,390.317,127.93,390.468z
		 M129.323,394.005C129.331,393.979,129.332,393.975,129.323,394.005L129.323,394.005z"/>
	<path d="M89.919,75.583c0.142,0.083,0.445,0.247,0.742,0.34c0.286,0.39,0.703,0.667,1.273,0.875c0.15,0.055,0.881,0.256,0.95-0.055
		c0.01-0.044,0.012-0.087,0.021-0.131c0.66-0.096,1.18-0.548,1.222-1.527c0.039-0.896-0.254-2.012-0.991-2.579
		c-0.055-0.042-0.116-0.084-0.178-0.125c-0.081-0.417-0.18-0.833-0.315-1.248c-0.067-0.206-0.59-0.604-1.094-0.85
		c-0.399-0.452-1.009-0.732-1.623-0.605c-1.015,0.21-1.915,1.899-2.06,2.792C87.623,73.979,88.736,74.893,89.919,75.583z"/>
	<path d="M136.904,77.382c1.528-0.281,1.498-2.159,1.286-3.393c-0.266-1.549-1.209-2.792-2.476-3.686
		c-0.263-0.185-1.189-0.86-1.5-0.448c-0.211,0.279,0.182,0.739,0.512,1.042c-0.347-0.153-0.639-0.157-0.722,0.177
		c-0.024,0.094-0.039,0.195-0.06,0.292c-0.372,0.489-0.291,1.547-0.317,2.068c-0.033,0.666-0.162,1.503,0.051,2.141
		C134.084,76.787,135.686,77.605,136.904,77.382z"/>
</g>
<g>
	<path d="M107.288,110.28c-0.037,1.721,4.876,2.814,4.902,1.636c0.081-3.71-1.044-7.129-3.406-10.007
		c-0.741-0.903-2.087-1.412-3.232-1.484c-0.583-0.036-2.106,0.169-1.344,1.098C106.255,104.016,107.358,107.039,107.288,110.28z"/>
	<path d="M130.9,524.075c-0.944-8.492-1.78-16.996-2.453-25.514c-0.666-8.431-1.718-17.211-0.428-25.632
		c1.128-7.362,4.891-14.099,5.197-21.613c0.337-8.272-1.932-16.479-1.781-24.805c0.265-14.616,4.009-28.859,8.23-42.812
		c0.317,6.54,0.638,13.08,0.94,19.621c0.455,9.859-0.412,18.715-2.457,28.376c-3.188,15.057-3.004,29.572,2.418,44.009
		c-0.934-0.811-1.943,0.115-1.306,2.331c4.597,15.994,4.013,32.643,2.722,49.063c-0.607,7.728-1.352,15.446-1.757,23.189
		c-0.228,4.356-0.913,9.154-0.119,13.55c-0.054,0.087-0.093,0.185-0.094,0.31c-0.004,0.679-0.042,1.342-0.069,1.98
		c1.515-0.05,3.03-0.088,4.545-0.12c0.004-0.188,0.01-0.376,0.011-0.563c0.003-0.638-1.022-1.313-2.093-1.677
		c-0.635-3.385,0.342-8.43,0.502-11.302c0.215-3.869,0.515-7.733,0.83-11.595c0.625-7.673,1.33-15.34,1.669-23.033
		c0.593-13.45-0.106-26.872-3.753-39.877c1.173,1.401,3.408,2.778,2.4,0.251c-3.139-7.873-4.885-16.135-4.907-24.629
		c-0.022-8.563,2.119-16.716,3.702-25.065c3.086-16.276,0.586-33.571-0.202-50.003c-0.021-0.435-0.371-1.085-0.839-1.716
		c2.525-7.546,5.662-14.881,7.677-22.596c0.343-1.313-2.392-4.159-2.706-2.959c-2.396,9.171-6.388,17.802-9.037,26.894
		c-0.132,0.454,0.117,1.098,0.508,1.694c-4.565,14.785-8.924,29.789-9.84,45.308c-0.514,8.715,1.199,16.982,1.595,25.62
		c0.41,8.934-4.266,16.785-5.299,25.522c-0.888,7.517-0.154,15.159,0.418,22.671c0.698,9.175,1.589,18.335,2.606,27.48
		c1.484,13.349,3.238,26.665,5.056,39.972c1.158-0.05,2.316-0.099,3.474-0.145C134.335,552.215,132.466,538.163,130.9,524.075z"/>
	<path d="M169.251,36.306c-1.007-8.581-8.581-3.688-13.375-1.574c-4.306,1.898-9.32,1.832-13.47,3.768
		c-3.47,1.619-4.991,5.848-8.178,8.139c-2.186-3.738-3.478-7.57-3.57-12.296c-0.154-7.926,3.059-17.041,0.754-24.812
		c-1.467-4.944-6.579-7.974-11.676-7.876c-6.44,0.124-7.56,7.089-6.918,12.169c0.534,4.217,2.44,9.174-0.371,12.982
		c-1.272,1.723-3.445,2.64-5.45,3.147c-0.733,0.185-1.724,0.453-2.469,0.395c-2.996-0.233-3.328-3.282-3.519-5.837
		c-0.476-6.359,2.634-13.405-1.076-19.281C97.275,1.018,89.7,0.014,87.828,5.155c-3.324,9.128-3.48,20.401-3.264,30.002
		c0.011,0.49,0.4,1.318,0.89,2.058c0.074,2.903-0.054,5.772-0.469,8.618c-5.054-0.7-4.656-5.067-7.313-8.204
		c-1.066-1.259-2.345-1.351-3.894-1.729c-3.407-0.832-6.944-1.211-10.272-2.359c-3.163-1.091-5.373-2.982-7.936-5.042
		c-0.544-0.438-1.061-0.332-1.338,0.272c-2.006,4.368-2.714,7.72-1.387,12.506c1.234,4.449,3.288,8.867,5.765,12.754
		c4.448,6.981,11.523,12.508,19.921,12.265c-0.266,3.872,1.561,6.893,3.7,10.912c3.847,7.226,7.959,14.31,12.319,21.239
		c0.041,0.065,0.086,0.132,0.129,0.198c-0.26,0.448-0.392,0.898-0.305,1.295c7.115,32.424,5.568,65.687,1.837,98.443
		c-0.907,7.96-1.937,15.904-2.998,23.845c-1.028,7.698-1.487,16.086-4.657,23.277c-3,6.806-8.984,11.522-13.025,17.657
		c-3.479,5.281-5.852,11.2-7.485,17.289c-1.994,7.43-2.858,15.106-3.438,22.759c-0.658,8.68-1.386,17.49,0.802,26.013
		c0.191,0.746,0.901,0.822,1.721,0.534c-0.117,0.178-0.166,0.363-0.097,0.549c2.392,6.501,4.783,13.002,7.175,19.503
		c2.171,5.903,4.79,11.831,6.118,17.997c1.238,5.75,1.05,11.662,1.445,17.499c0.436,6.453,1.537,12.828,2.795,19.165
		c2.458,12.38,5.549,24.807,5.277,37.52c-0.077,3.576-0.429,7.169-1.152,10.675c-0.568,2.754-2.016,5.656-2.232,8.437
		c-0.389,4.992,4.516,11.107,6.947,15.412c-0.387,16.126-2.438,32.241-4.65,48.198c-1.875,13.527-5.775,26.75-7.691,40.257
		c0.238,0.041,0.48,0.094,0.73,0.172c1.156,0.362,2.325,0.595,3.501,0.747c1.951-13.24,5.713-26.22,7.552-39.489
		c2.293-16.541,4.426-33.251,4.697-49.966c0.336-0.263,0.501-0.552,0.357-0.812c-2.887-5.237-8.034-11.308-6.516-17.439
		c1.437-5.804,2.699-11.3,2.814-17.331c0.241-12.722-2.817-25.128-5.277-37.52c-1.198-6.034-2.261-12.104-2.725-18.245
		c-0.464-6.139-0.223-12.367-1.514-18.419c-1.248-5.847-3.718-11.474-5.776-17.068c-2.505-6.811-5.011-13.621-7.516-20.432
		c-0.256-0.696-1.5-0.707-2.599-0.388c0.97-0.802,1.716-1.874,1.504-2.699c-2.113-8.233-1.426-16.692-0.793-25.079
		c0.516-6.844,1.262-13.699,2.844-20.389c1.779-7.523,4.747-14.799,9.649-20.843c4.241-5.229,8.921-9.803,11.468-16.173
		c2.513-6.285,3.239-13.123,4.134-19.777c1.11-8.252,2.203-16.507,3.175-24.777c1.903-16.2,3.358-32.478,3.539-48.798
		c0.082-7.386-0.112-14.766-0.63-22.117c5.196,4.624,12.641,6.776,18.611,3.156c9.068-5.499,11.338-16.678,8.091-26.035
		c0.004-0.015,0.014-0.023,0.016-0.04c0.112-0.924,0.273-1.832,0.455-2.733c0.026-0.058,0.058-0.116,0.076-0.174
		c0.086-0.27,0.16-0.542,0.244-0.812c0.168,0.247,0.344,0.473,0.514,0.661c0.501,0.555,1.577,1.306,1.814,0.134
		c0.305-1.51,0.388-3.031,0.317-4.569c-0.013-0.279-0.069-0.571-0.154-0.862c0.585-1.152,1.103-2.351,1.541-3.612
		c0.303-0.874,0.27-1.42,0.06-1.715c0.719-1.562,1.619-3.051,2.741-4.479c2.395-3.048,5.228-5.657,6.338-9.507
		c0.911-3.162,1.034-6.55,0.559-9.868C159.529,65.964,170.952,50.814,169.251,36.306z M60.894,53.413
		c-1.708-2.414-3.041-5.102-4.171-7.83c-1.96-4.734-2.168-8.438-0.335-12.969c2.419,1.948,4.616,3.652,7.699,4.706
		c3.29,1.125,6.847,1.28,10.127,2.354c3.483,1.14,3.546,4.346,5.902,6.889c1.229,1.326,2.616,2.25,4.2,2.782
		c-0.071,0.3-0.136,0.601-0.214,0.901c-1.092,4.186-3.11,7.91-4.59,11.929C71.935,63.304,65.233,59.546,60.894,53.413z
		 M83.106,69.952c0.062,0.028,0.135,0.046,0.235,0.041c2.609-0.146,5.535-0.339,7.817,1.18c1.451,0.966,2.317,2.744,2.556,4.55
		c-1.04-0.096-2.169-0.441-2.803-0.759c-1.129-0.566-3.128,1.356-3.97,2.792C85.531,75.195,84.232,72.596,83.106,69.952z
		 M133.95,84.648c-0.385,0.588-0.725,1.192-1.041,1.804c-0.508-0.231-0.94-0.248-1.099,0.128c-2.079,4.92-4.048,9.832-4.803,15.137
		c-0.006,0.006-0.011,0.012-0.018,0.017c-0.225,0.206-0.469,0.509-0.688,0.853c-0.245-1.23-4.547-2.146-5.305-0.97
		c-1.573,2.439-2.342,5.151-2.13,8.056c0.129,1.768,5.606,2.171,5.51,0.861c-0.172-2.355,0.261-4.632,1.364-6.687
		c-0.111,0.461-0.111,0.917,0.095,1.292c3.551,6.487,4.738,15.438-1.36,20.931c-5.399,4.864-12.431,2.223-17.642-1.541
		c-1.597-1.153-2.843-2.426-3.788-3.796c-0.411-4.041-0.932-8.07-1.566-12.084c0.073-0.277,0.144-0.553,0.229-0.833
		c1.131-3.719,0.401-5.533-1.684-8.939c-0.165-0.269-0.333-0.538-0.5-0.807c-0.09-0.423-0.174-0.847-0.267-1.27
		c-0.111-0.508-0.475-0.701-0.954-0.684c-3.41-5.401-7.084-10.862-10.313-16.491c4.46,1.297,10.48-1.131,10.204-6.426
		c-0.13-2.493-0.872-4.987-3.101-6.363c-2.464-1.52-5.333-1.442-8.122-1.286c-1.253,0.07-2.361,1.096-3.115,2.032
		c-0.128,0.159-0.865,1.286-0.931,1.942c-0.116-0.279-0.239-0.555-0.351-0.835c-2.408-5.992,2.335-12.049,4.037-17.765
		c0.106-0.358,0.197-0.718,0.294-1.077c0.751,0.018,0.8-0.933,0.477-1.909c1.013-4.454,1.385-9.004,1.213-13.592
		c-0.039-1.026-0.514-1.189-1.084-0.917c0.103-6.765,0.792-13.488,2.18-20.131c0.734-3.516,2.084-8.408,6.917-6.603
		c3.944,1.473,1.703,9.404,1.524,12.862c-0.23,4.416-0.001,10.343,3.195,13.829c2.851,3.109,8.45,1.86,11.638-0.273
		c4.311-2.884,4.248-8.191,3.518-12.774c-0.632-3.973-2.365-10.196,1.878-12.978c3.577-2.346,9.94-0.256,10.632,3.891
		c0.62,3.715-0.485,8.261-0.835,12.003c-0.314,3.36-0.593,6.761-0.395,10.138c0.313,5.336,1.938,10.259,4.689,14.785
		c-0.174,0.413,0.06,0.703,0.514,0.849c3.622,5.611,8.236,11.251,9.155,17.599c-0.212,0.216-0.358,0.42-0.425,0.599
		c-0.726-0.644-1.684-1.131-2.627-1.213c-2.501-0.215-4.704-0.139-6.669,1.58c-1.999,1.749-2.626,4.271-1.966,6.857
		c0.72,2.817,4.38,5.929,7.424,5.399C136.519,81.426,135.072,82.934,133.95,84.648z M140.585,75.91
		c-0.29,0.596-0.638,1.155-1.006,1.7c-0.925-1.066-2.997-2.27-3.738-1.52c-0.283,0.381-0.647,0.593-1.092,0.638
		c-0.024,0.004-0.035,0.006-0.057,0.01c0.017-0.339-0.241-1.277-0.259-1.521c-0.096-1.285,0.133-2.748,0.9-3.795
		c1.7-2.322,4.104-2.542,6.753-2.314c0.081,0.007,0.132-0.008,0.193-0.014C142.246,71.27,141.742,73.533,140.585,75.91z
		 M145.695,64.679c-0.324,0.007-0.788,0.163-1.285,0.396c-0.587-2.464-1.486-4.843-2.618-7.009c-1.473-2.818-3.4-5.349-5.259-7.916
		c-0.342-0.472-0.659-0.94-0.974-1.409c0.171-0.076,0.34-0.16,0.501-0.26c1.625-1.009,3.199-2.065,4.592-3.388
		c1.634-1.552,2.747-3.722,4.715-4.613c2.214-1.001,5.13-1.181,7.468-1.996c2.41-0.841,4.665-2.241,7.063-3.021
		c1.537-0.5,2.109-1.411,3.447,0.35c0.765,1.007,0.662,2.979,0.701,4.163c0.095,2.846-0.148,5.822-0.925,8.57
		C161.014,55.991,153.975,64.512,145.695,64.679z"/>
	<path d="M209.551,319.304c-0.143-0.254-0.293-0.378-0.443-0.419c-1.135-4.093-3.737-7.085-6.708-10.043
		c-0.804-0.801-1.569-1.615-2.3-2.443c-0.353-0.211-0.693-0.447-1.003-0.731c-0.555-0.509-0.916-1.165-1.149-1.867
		c-4.135-5.328-7.064-11.165-9.667-17.491c0.222-0.01,0.319-0.172,0.185-0.592c-1.818-5.67-6.325-8.948-11.445-11.102
		c-3.049-2.268-6.333-4.278-9.352-6.465c-12.699-9.201-24.649-20.315-33.498-33.341c-9.901-14.576-9.311-32.588-10.874-49.539
		c-0.799-8.67-2.038-17.469-1.354-26.186c0.659-8.396,2.884-16.504,2.589-24.982c-0.073-2.079-2.216-4.24-2.103-0.995
		c0.309,8.857-2.276,17.401-2.682,26.21c-0.346,7.503,0.509,15,1.197,22.461c0.78,8.463,1.557,16.926,2.341,25.389
		c0.688,7.437,1.503,14.805,4.559,21.701c5.856,13.21,16.783,24.624,27.506,34.041c5.267,4.626,10.849,8.867,16.625,12.833
		c3.006,2.064,6.164,4.05,8.782,6.615c0.091,0.17,0.191,0.336,0.307,0.493c8.507,11.534,2.302,27.489,0.412,40.124
		c-1.021,6.824-1.015,13.718-1.525,20.586c-0.573,7.717-2.274,14.734-5.24,21.888c-5.166,12.461-9.091,25.259-12.792,38.222
		c-3.727,13.051-6.783,26.274-7.234,39.873c-0.582-0.195-1.491-0.383-1.408,0.259c0.093,0.714,0.186,1.428,0.279,2.142
		c-0.834-0.347-1.473-0.3-1.306,0.571c1.92,10.028,0.711,20.06-3.607,29.316c-0.106,0.227-0.118,0.479-0.065,0.743
		c-0.025,0.066-0.034,0.139-0.008,0.23c2.35,8.295,2.168,16.902,2.286,25.449c0.118,8.511,0.178,17.026-0.107,25.535
		c-0.29,8.666-1.217,17.269,0.373,25.866c0.717,3.878,2.399,8.325,2.265,12.314c1.445,0.019,2.889,0.053,4.332,0.104
		c-0.009-0.071-0.018-0.142-0.026-0.214c-0.671-5.883-2.552-11.534-2.94-17.465c-0.765-11.694,0.733-23.651,0.685-35.385
		c-0.047-11.342,0.752-23.438-2.268-34.478c4.005-9.026,5.274-18.602,3.696-28.331c0.37,0.03,0.67-0.053,0.621-0.431l-0.082-0.627
		c0.593,0.37,1.052,0.345,1.067-0.453c0.289-15.734,4.182-30.922,8.593-45.938c2.303-7.841,4.56-15.719,7.394-23.388
		c2.487-6.731,5.802-13.174,7.563-20.157c1.924-7.635,1.888-15.542,2.37-23.351c0.453-7.343,1.897-14.395,3.254-21.606
		c1.075-5.709,1.659-11.423,1.172-16.947c2.09,3.927,4.563,7.629,7.733,10.893c3.384,3.486,7.167,6.617,8.557,11.468
		c0.11,0.383,0.185,0.773,0.272,1.16c-3.59,7.174-2.146,15.371,3.218,21.24c0.186,1.342,0.709,2.337,1.485,1.47
		c0.055-0.062,0.097-0.128,0.151-0.19c0.272-0.012,0.429-0.253,0.488-0.612C216.154,335.756,213.54,326.399,209.551,319.304z"/>
	<path d="M122.808,379.315c0.503-16.311-1.307-33.238-10.601-47.105c-0.401-0.599-0.741-0.726-1.011-0.565
		c-1.115-0.892-2.94-1.437-3.19-0.316c-3.518,15.76-4.271,31.806-2.272,47.83c0.975,7.811,2.384,15.583,2.81,23.454
		c0.422,7.796-0.604,15.314-2.033,22.958c-1.383,7.4-2.885,14.922-2.172,22.486c0.75,7.956,4.135,15.235,0.355,22.943
		c-3.066,6.253-3.025,12.493-3.451,19.378c-0.51,8.247-1.01,16.495-1.466,24.745c-0.924,16.724-1.623,33.458-1.94,50.204
		c1.365-0.17,2.727-0.334,4.082-0.45c0.037-2.005,0.069-4.011,0.123-6.016c1.978,0.054,3.956,0.108,5.934,0.162
		c1.166,0.032,3.05-0.768,3.334-2.063c2.761-12.57-0.407-26.145,0.199-38.942c0.544-11.495,1.715-22.993,2.761-34.47
		c0.654,4.524,1.274,9.053,1.674,13.596c1.721,19.557,1.681,39.143,0.294,58.717c-0.266,3.747-0.531,7.494-0.63,11.248
		c0.798-0.029,1.597-0.058,2.395-0.088c0.309-9.054,1.246-18.074,1.514-27.134c0.528-17.836-0.233-35.718-2.32-53.44
		c-1.034-8.779-3.039-17.555-3.579-26.374c-0.593-9.697,1.973-19.379,3.538-28.882C119.974,414.086,122.273,396.658,122.808,379.315
		z M113.174,475.928c-1.063,0.417-2.231,1.29-2.3,2.115c-1.11,13.275-2.467,26.556-3.296,39.852
		c-0.394,6.317-0.251,12.638,0.047,18.955c0.298,6.321,1.085,12.77,0.139,19.056c-1.201-0.033-2.403-0.066-3.604-0.098
		c-0.545-0.015-1.366,0.438-2.055,0.997c0.314-10.998,0.77-21.991,1.342-32.979c0.43-8.252,0.911-16.501,1.412-24.748
		c0.456-7.501-0.412-16.776,2.697-23.737c2.736-6.125,3.606-10.409,2.303-17.16c-1.64-8.494-1.889-15.997-0.458-24.536
		c1.264-7.544,3.067-15.002,3.284-22.68c0.223-7.874-0.927-15.69-2.02-23.465c-2.404-17.117-2.644-33.858,0.628-50.768
		c9.514,14.739,9.924,32.515,8.729,49.522c-1.381,19.641-4.884,38.814-7.809,58.24C110.623,455.038,111.711,465.482,113.174,475.928
		z"/>
</g>
<g>
	<path d="M359.507,83.99c-1.212-0.059-2.425-0.06-3.625-0.044c-1.187,0.038-2.39,0.052-3.543,0.11l-3.39,0.165
		c0.56,1.914,1.354,3.651,2.426,5.305c0.533,0.821,1.158,1.6,1.92,2.264c0.742,0.664,1.718,1.224,2.822,1.241
		c1.102,0.024,2.095-0.507,2.85-1.16c0.763-0.664,1.374-1.456,1.872-2.296c0.993-1.687,1.715-3.477,2.378-5.293l0.06-0.166
		l-0.182-0.001C361.91,84.107,360.717,84.036,359.507,83.99z"/>
	<path d="M375.264,57.508c-9.39-8.039-27.58-9.109-37.09-0.836c-7.686,6.686-12.422,22.739-7.888,32.225
		c4.782,10.004,14.321,18.482,22.618,25.61c1.164,1,3.055,1.706,4.613,1.516c0.228-0.028,0.651-0.101,1.053-0.229
		c0.273-0.052,0.52-0.132,0.712-0.262c8.538-5.778,17.385-13.375,22.212-22.612C386.763,82.835,384.087,65.062,375.264,57.508z
		 M374.593,91.434c-4.158,7.886-11.53,14.576-18.89,19.886c-4.854-4.404-9.479-9.133-13.572-14.213
		c-2.887-3.584-6.217-7.835-6.409-12.625c-0.217-5.392,0.793-11.275,2.712-16.306c2.093-5.485,5.883-10.336,11.489-12.493
		c6.257-2.407,14.978-1.979,20.041,2.804C377.67,65.767,379.391,82.334,374.593,91.434z"/>
	<path d="M344.358,68.398c-1.757,0-3.132,0.965-3.132,2.196s1.376,2.196,3.132,2.196c1.754,0,3.127-0.965,3.127-2.196
		S346.111,68.398,344.358,68.398z"/>
	<path d="M366.656,70.594c0,1.231,1.374,2.196,3.127,2.196c1.757,0,3.132-0.965,3.132-2.196s-1.376-2.196-3.132-2.196
		C368.03,68.398,366.656,69.363,366.656,70.594z"/>
	<path d="M400.021,57.342c1.494-7.428,2.987-14.857,4.481-22.285c0.413-2.052-5.222-1.966-6.152-1.747
		c-6.148,1.449-12.296,2.898-18.444,4.347c-0.48,0.113-0.857,0.237-1.147,0.369c-14.9-8.359-36.07-8.173-49.498,2.01
		c-0.697-1.78-2.067-3.707-3.4-3.902c-4.982-0.727-9.964-1.453-14.946-2.18c-1.302-0.19-1.084,1.988-0.916,2.617
		c1.759,6.575,3.519,13.151,5.279,19.726c0.165,0.616,0.525,1.49,1.012,2.288c-1.565,4.228-2.64,8.652-3.354,13.013
		c-0.321,1.964-0.607,3.92-0.821,5.866c-0.586-0.313-1.137-0.526-1.543-0.554c-17.576-1.206-35.832-1.304-53.242,1.536
		c-7.466,1.218-19.328,3.061-23.429,10.492c-0.738,1.337-1.031,2.833-1.212,4.346c-4.186-1.315-8.908,0.865-12.199,3.711
		c-6.59,5.697-10.931,14.032-14.56,21.783c-1.528,3.263-2.931,6.585-4.253,9.936c-1.354,3.431-2.299,10.028-5.314,12.307
		c-2.279,1.723-8.331,3.501-11.267,2.612c-3.23-0.978-5.571-5.262-7.62-7.689c-4.954-5.87-10.463-11.167-16.362-16.08
		c-3.448-2.872-2.312,2.941-0.408,4.526c5.476,4.561,10.545,9.472,15.141,14.919c2.311,2.738,4.455,5.826,7.29,8.066
		c2.135,1.687,4.521,2.583,7.259,2.39c3.115-0.22,9.257-1.754,11.391-3.929c1.216-1.239,1.606-4.65,2.231-6.367
		c0.707-1.941,1.435-3.874,2.193-5.795c1.323-3.351,2.728-6.672,4.253-9.936c2.272-4.862,4.799-9.651,7.875-14.058
		c2.926-4.191,7.044-9.353,12.33-10.592c0.531-0.124,0.998-0.166,1.451-0.178c-0.386,4.046-0.633,8.116-0.484,12.175
		c0.214,5.856,1.316,11.881,4.958,16.635c1.084,1.415,1.91,1.526,1.106,3.117c-0.784,1.55-3.642,2.664-5.065,3.465
		c-4.325,2.434-8.905,4.697-12.362,8.352c-4.43,4.683-3.888,9.282-2.277,15.1c1.572,5.68,2.067,13.094,5.734,17.941
		c3.127,4.134,8.373,5.683,13.365,5.556c4.31-0.109,10.547-1.751,6.363-6.801c-2.213-2.671-6.243-4.651-9.784-4.44
		c-0.078,0.005-0.143,0.007-0.208,0.01c-0.172-1.529-0.357-2.412,0.016-4.036c0.865-3.768,3.014-7.921,5.814-10.6
		c3.961-3.79,9.278-4.554,14.427-5.628c-0.347,2.543-0.87,5.015-1.58,7.419c-0.49,1.659-1.057,3.291-1.708,4.899
		c-0.605,1.622-1.343,3.21-2.041,4.854c-0.69,1.668-1.459,3.28-1.903,5.448c-0.124,0.508-0.145,1.197-0.14,1.844
		c0.046,0.372,0.105,0.748,0.187,1.114c0.122,0.379,0.314,0.772,0.503,1.137c0.219,0.351,0.513,0.665,0.795,0.971
		c0.294,0.265,0.613,0.467,0.933,0.681c0.622,0.332,1.254,0.554,1.817,0.668c1.144,0.246,2.18,0.288,3.155,0.262
		c0.987-0.01,1.918-0.107,2.84-0.202l5.297-0.673l1.413-0.179l0.178-1.158c0.102-0.665,0.235-1.31,0.242-2.039
		c0.019-0.711-0.013-1.499-0.341-2.399c-0.166-0.447-0.462-0.945-0.919-1.329c-0.454-0.397-1.04-0.616-1.541-0.673
		c-0.51-0.065-0.958-0.013-1.355,0.082c-0.086,0.02-0.158,0.047-0.237,0.07c-0.176-0.337-0.322-0.768-0.392-1.231
		c-0.114-0.841-0.099-1.748,0.027-2.657c0.239-1.825,0.867-3.63,1.664-5.341c0.793-1.719,1.816-3.333,2.975-4.84
		c1.063-1.399,2.272-2.683,3.494-3.937c2.702-0.855,4.871-2.774,6.435-4.87c1.607-2.201,2.728-4.621,3.609-7.068
		c0.88-2.453,1.504-4.959,1.93-7.486c0.3-1.826,0.505-3.663,0.569-5.509c6.135,1.487,12.267,1.475,18.321,0.223
		c0.167,8.953,0.357,18.285,3.513,26.612c1.581,4.172,5.307,7.344,6.728,11.41c1.076,3.079-1.552,5.808-0.654,8.545
		c0.902,2.749,4.994,3.81,7.482,3.968c2.381,0.151,9.949,0.837,11.917-1.134c1.689-1.692-0.664-4.508-1.856-5.863
		c-1.408-1.6-2.863-2.164-4.463-2.47c-1.254-2.687-2.216-5.547-2.839-8.406c-0.716-3.288-1.056-6.77-0.377-10.092
		c0.361-1.764,0.962-3.445,1.901-4.992c1.057-1.741,2.866-2.733,3.989-4.308c1.462-2.05,2.051-5.329,3.362-7.89
		c0.514,1.802,1.025,3.6,1.51,5.396c1.13,4.155,2.084,8.345,2.587,12.459c0.229,2.095,0.236,3.906,0.203,6.253
		c0.011,2.235,0.194,4.492,0.584,6.725c0.406,2.227,0.982,4.445,1.926,6.505c0.92,2.07,2.149,3.963,3.497,5.729l0.17,0.223
		l0.294,0.015c1.509,0.079,3.018,0.237,4.511,0.392l1.117,0.156c0.431,0.058,0.825,0.072,1.203,0.096l1.16,0.063
		c0.232-0.004,0.459,0.002,0.699-0.018c0.252-0.048,0.495-0.068,0.758-0.159c0.52-0.164,1.1-0.526,1.475-1.122
		c0.361-0.608,0.415-1.286,0.337-1.863c-0.198-1.147-0.779-2.085-1.838-2.748c-0.141-0.076-0.285-0.148-0.431-0.216
		c-0.17-0.058-0.351-0.107-0.531-0.149c-0.224-0.051-0.237-0.044-0.349-0.064l-0.271-0.043c-0.355-0.062-0.739-0.102-1.05-0.195
		c-0.657-0.143-1.29-0.318-1.772-0.585c-0.531-0.231-0.834-0.58-1.15-0.909c-0.244-0.406-0.483-0.842-0.608-1.433
		c-0.286-1.146-0.365-2.536-0.303-3.964c0.086-2.851,0.495-5.835,0.87-8.802c0.38-2.951,0.812-5.93,1.134-8.983
		c0.319-3.049,0.542-6.177,0.275-9.399c-0.158-1.606-0.434-3.245-1.015-4.833c-0.232-0.609-0.525-1.204-0.849-1.781
		c4.191,3.955,8.476,7.725,12.661,11.319c0.825,0.941,2.061,1.768,3.112,1.991c0.507,0.141,0.983,0.13,1.34-0.165
		c14.453-9.755,29.507-22.563,37.904-38.032c5.548-10.22,5.035-21.293,3.512-32.539c-0.625-4.61-1.647-9.225-3.247-13.598
		C397.955,58.982,399.784,58.522,400.021,57.342z M315.554,41.162c3.535,0.516,7.07,1.031,10.605,1.547
		c-0.172,0.169-0.353,0.328-0.522,0.5c-2.818,2.885-5.088,6.214-6.914,9.795C317.666,49.057,316.61,45.11,315.554,41.162z
		 M276.771,132.523c-0.849,2.33-1.733,4.627-2.74,6.83c-1,2.206-2.142,4.31-3.448,6.207c-1.324,1.866-2.779,3.585-4.691,4.594
		l-0.451,0.238l-0.104,0.16c-1.081,1.66-2.129,3.327-3.079,5.049c-0.998,1.689-1.884,3.438-2.749,5.198
		c-0.85,1.769-1.609,3.595-2.12,5.556c-0.267,0.979-0.423,2.003-0.467,3.09c0.03,1.074,0.117,2.333,1.154,3.501l0.408,0.46
		l0.95-0.245c0.31-0.08,0.849-0.124,0.98-0.017c0.139,0.123-0.03,0.025,0.047,0.263c0.032,0.234,0.035,0.664-0.056,1.135
		c-0.01,0.065-0.029,0.138-0.041,0.205c-1.395,0.064-2.761,0.159-4.083,0.209c-0.859,0.029-1.712,0.049-2.512,0.016
		c-0.809-0.017-1.569-0.118-2.161-0.284c-0.311-0.075-0.511-0.196-0.677-0.277c-0.037-0.053-0.108-0.08-0.144-0.111
		c0.005-0.043-0.029-0.044-0.045-0.068c0.014-0.044-0.008-0.05-0.03-0.089c0.009-0.075-0.004-0.14-0.03-0.208
		c0.026-0.239-0.016-0.457,0.076-0.818c0.238-1.344,0.879-3.045,1.449-4.712c0.583-1.69,1.157-3.428,1.644-5.208
		c0.454-1.787,0.871-3.596,1.082-5.441c0.356-2.752,0.39-5.549,0.022-8.266c0.712-0.159,1.42-0.328,2.117-0.519
		c7.035-1.926,9.956-5.798,12.02-12.563c0.74-2.427,1.908-3.359,3.732-5.115c0.983-0.946,2.255-2.243,2.606-3.62
		c0.198-0.774,0.358-1.1,0.371-1.252c0.828,0.244,1.676,0.62,2.457,0.838c0.107,0.03,0.214,0.054,0.321,0.083
		C277.984,129.085,277.388,130.817,276.771,132.523z M320.83,173.061c-0.322,0.614-2.468,0.483-2.997,0.526
		c-0.796,0.065-1.598,0.106-2.4,0.138c0.418-1.61,0.068-3.517-0.587-5.305c1.443,2.369,3.251,3.74,5.934,4.3
		C320.846,172.86,320.873,172.98,320.83,173.061z M323.181,126.033c-2.17,1.317-3.318,3.984-4.3,6.189
		c-1.086,2.439-1.969,4.44-3.714,6.506c-1.379,1.632-2.694,3.107-3.533,5.115c-2.832,6.78-1.042,14.675,1.626,21.267
		c-0.365-0.616-0.729-1.163-1.051-1.594c-8.091-10.806-7.174-25.3-7.571-38.161c-0.07-2.252-4.601-4.086-6.409-3.459
		c-7.808,2.71-15.594,3.125-23.494,0.723c-1.105-0.336-3.044-1.322-4.231-0.935c-1.48,0.482-1.348,1.733-2.005,3.037
		c-1.439,2.857-4.731,3.833-5.831,6.515c-1.438,3.509-1.13,6.718-3.975,9.63c-3.629,3.713-9.171,4.141-13.972,5.199
		c-5.077,1.119-9.9,2.863-13.283,7.026c-2.967,3.652-6.779,10.822-4.326,15.601c1.773,3.456,6.078,5.11,9.676,5.727
		c0.375,0.064,0.772,0.147,1.168,0.204c-0.142,0.481-0.417,1.102-0.501,1.19c-1.121,1.188-5.357,1.252-6.67,0.889
		c-3.88-1.074-4.583-11.002-5.579-14.744c-1.559-5.856-3.082-10.531,1.434-15.427c3.359-3.642,8.095-5.808,12.335-8.217
		c2.067-1.175,6.051-2.946,6.021-5.813c-0.016-1.59-1.519-2.735-2.39-3.87c-1.698-2.211-2.711-4.785-3.316-7.492
		c-1.748-7.826-0.871-16.43,0.147-24.291c1.154-8.911,10.753-11.461,18.405-13.078c17.457-3.691,36.141-3.647,53.968-2.522
		c-0.291,5.841,0.38,11.553,3.274,17.013c5.158,9.729,12.551,18.613,20.634,26.754c-0.328,0.008-0.658,0.013-0.986,0.018
		c-0.03-0.01-0.06-0.024-0.09-0.034c-1.526-0.496-3.088-0.691-4.625-0.738l-0.062,0.399c0.396,0.118,0.788,0.247,1.177,0.383
		c-0.615-0.004-1.229-0.007-1.848-0.013C327.237,125.008,324.999,124.929,323.181,126.033z M341.162,173.068
		c0.902,0.35,1.773,0.476,2.607,0.562c0.433,0.056,0.808,0.04,1.206,0.055l0.295,0.006c0.076,0.002,0.255,0.003,0.214,0.008
		c0,0,0.008-0.006,0.021-0.017c0.026,0.012,0.053,0.019,0.084,0.022c0.266,0.065,0.655,0.47,0.756,0.804
		c0.072,0.35,0.155,0.365-0.205,0.61c-0.086,0.053-0.226,0.077-0.339,0.127c-0.134,0.03-0.287,0.044-0.432,0.071
		c-0.335,0.039-0.745,0.055-1.111,0.075c-0.379,0.018-0.743,0.042-1.066,0.033l-1.147-0.035c-1.432-0.057-2.853-0.061-4.272-0.122
		c-1.274-1.593-2.372-3.324-3.029-5.229c-0.727-1.978-0.987-4.093-1.021-6.198c-0.031-2.112,0.18-4.231,0.419-6.351
		c0.137-1.064,0.282-2.079,0.326-3.318l0.046-0.892l-0.038-0.87c-0.035-0.577-0.045-1.164-0.115-1.734
		c-0.554-4.553-1.861-8.839-3.465-12.962c-0.864-2.207-1.825-4.368-2.89-6.477c0.646-0.689,1.427-1.233,2.426-1.531
		c1.716-0.512,3.833-0.133,5.593-0.101c0.532,0.01,1.061,0.006,1.592,0.006c1.271,2.043,1.624,4.551,1.584,7.116
		c-0.028,2.837-0.492,5.756-0.943,8.708c-0.471,2.953-0.974,5.96-1.293,9.026c-0.17,1.521-0.276,3.053-0.382,4.596l-0.112,2.332
		c0.002,0.796-0.032,1.571,0.006,2.381c0.037,1.593,0.175,3.264,0.73,5.027c0.268,0.876,0.77,1.785,1.429,2.591
		C339.364,172.143,340.254,172.787,341.162,173.068z M391.012,99.459c-7.694,15.432-22.446,28.289-36.605,38.012
		c-3.034-2.665-6.034-5.399-8.964-8.216c0.349-0.032-4.37-4.557-4.587-4.537c-5.006-5.096-9.756-10.434-14.069-16.04
		c-5.441-7.073-9.43-13.648-9.041-22.737c0.41-9.59,2.01-19.503,6.263-28.192c4.496-9.185,12.028-16.292,22.03-19.003
		c10.618-2.878,24.983-2.139,34.25,4.334c7.896,5.515,11.155,15.281,12.725,24.366C394.838,77.992,395.92,89.615,391.012,99.459z
		 M387.154,44.367c-1.237-1.259-2.587-2.414-4.015-3.486c0.297-0.006,0.571-0.035,0.809-0.091c3.872-0.913,7.745-1.825,11.617-2.738
		c-0.925,4.599-1.849,9.198-2.774,13.797C391.239,49.156,389.383,46.634,387.154,44.367z"/>
	<path d="M237.888,174.077c0.138-0.075,0.165,0.037,0.139,0.224C237.827,174.235,237.732,174.161,237.888,174.077z"/>
	<path d="M233.42,170.021C232.377,170.057,233.189,169.821,233.42,170.021L233.42,170.021z"/>
</g>
<g>
	<path d="M391.712,193.369c0.133,0.108,0.262,0.221,0.383,0.341c0.67-1.139,1.328-2.285,1.977-3.436
		C393.286,191.306,392.499,192.337,391.712,193.369z"/>
	<path d="M352.511,254.683c-4.289,2.594-7.073,6.423-9.799,10.551c-3.531,5.346-7.017,10.722-10.525,16.082
		c-0.761,1.162,3.792,3.987,4.617,2.728c3.158-4.825,6.313-9.651,9.473-14.474c2.929-4.471,5.728-8.958,10.412-11.791
		C357.941,257.021,353.795,253.907,352.511,254.683z"/>
	<path d="M385.969,159.197c0.509-0.85,1.18-1.573,1.954-2.197c-0.097,0.028-0.194,0.054-0.29,0.082
		c-1.218,0.352-2.416,0.74-3.607,1.143c-0.111,0.008-0.205,0.042-0.282,0.098c-6.499,2.225-12.646,5.114-19.014,7.794
		c-16.186,6.811-34.619,8.577-51.903,10.828c-18.708,2.437-37.166,1.945-55.966,1.492c-16.165-0.39-32.48,0.08-48.09,4.712
		c-7.827,2.323-15.338,5.665-22.126,10.224c-0.555,0.373-1.165,0.8-1.798,1.273c-0.482-0.125-0.893-0.177-1.08-0.112
		c-2.664,0.931-5.046,2.203-7.303,3.897c-0.467,0.35,0.04,1.009,0.809,1.541c-0.642,1.338-0.874,2.63-0.708,4.069
		c-0.043,0.222-0.086,0.444-0.12,0.665c-0.417,2.705-0.237,4.312,0.792,5.448c0.23,0.831,0.696,1.911,1.262,1.005
		c0.006-0.009,0.01-0.018,0.015-0.027c0.691,0.385,1.552,0.72,2.61,1.054c0.395,0.125,0.705,0.177,0.947,0.181
		c6.528,2.726,13.166,6.083,17.752,11.541c4.948,5.888,8.383,13.323,11.548,20.274c6.44,14.143,10.662,29.151,12.859,44.523
		c0.043,0.3,0.248,0.704,0.53,1.119c0.816,6.216,1.167,12.507,0.665,19.054c-0.988,12.906-3.025,25.75-4.637,38.545
		c-0.786,0.303-1.509,0.759-2.026,1.402c-1.057,1.313-1.159,2.762,0.581,3.124c1.026,0.213,3.078,0.637,3.078,0.637
		s2.796,0.805,2.825,0.575c14.699,2.963,29.524,5.389,44.417,4.126c8.039-0.682,15.871-2.651,23.565-5.725
		c4.682-1.871,8.686-2.795,13.614-2.208c0.356,0.042,0.708,0.078,1.06,0.115c-0.053,0.351,5.214,0.242,5.214,0.242
		s3.791-0.282,5.745-0.8c0.999-0.265,3.865-1.526,3.509-3.441c-0.364-1.959-3.424-1.216-4.33-0.976
		c-0.957,0.253-1.926,0.351-2.902,0.356c2.394-15.851,5.116-31.82,10.749-46.326c0.786-2.024-5.786-0.81-7.853,4.991
		c-4.588,12.875-7.16,26.753-9.32,40.628c-0.923-0.121-1.842-0.214-2.75-0.226c-3.634-0.048-7.218,0.819-10.703,2.101
		c-7.622,2.804-14.944,5.446-22.892,6.225c-15.517,1.521-31.075-1.627-46.368-4.808c1.576-11.609,3.347-23.306,3.981-35.016
		c0.472-8.703-0.421-17.065-1.882-25.359c-0.013-0.01-0.028-0.018-0.04-0.029c-0.65-0.496-1.167-1.23-1.507-2.113
		c-0.021,0.08-0.037,0.162-0.059,0.241c-0.005,0.019-0.014,0.034-0.019,0.053c-2.805-15.92-7.796-31.398-14.988-45.902
		c-3.337-6.73-6.938-13.724-12.107-19.254c-4.033-4.315-16.791-13.094-16.667-14.59c0.103-1.242,34.225-19.074,39.012-19.753
		c15.74-2.233,31.753-1.048,47.574-0.67c16.542,0.395,32.788-0.926,49.146-3.33c15.287-2.247,31.032-4.089,45.42-10.031
		c7.049-2.911,13.796-6.185,21.028-8.516c1.251,4.086,2.061,8.267,2.421,12.554c0.088,1.048,0.774,2.276,1.714,2.808
		c0.504,0.285,1.881,0.845,1.782-0.332c-0.516-6.149-1.842-12.067-3.997-17.849C386.669,159.955,386.351,159.55,385.969,159.197z"/>
</g>
<g>
	<path d="M553.685,228.639c-0.252-8.21-2.673-14.863-6.644-21.984c-7.394-13.258-17.025-23.924-30.768-30.754
		c-13.748-6.831-32.158-11.818-44.606-0.113c-0.964,0.907-1.689,2.569-2.014,4.15c-0.807-0.737-1.643-1.429-2.539-2.02
		c-3.999-2.638-8.548-3.022-13.224-2.684c-0.406,0.029-0.724,0.175-0.982,0.388c-0.005-0.001-0.009-0.003-0.014-0.004
		c-5.948-0.612-12.142-1.135-18.098-0.317c-1.328,0.182-2.531,0.513-3.645,0.965c-0.058-0.702-0.29-1.315-0.76-1.757
		c-10.811-10.166-28.091-5.238-40.086,0.095c-13.268,5.898-24.368,15.472-32.063,27.781c-3.953,6.323-8.084,13.06-10.107,20.29
		c-2.062,7.373-2.08,15.922-1.155,23.492c0.98,8.026,6.17,13.324,11.358,19.087c5.665,6.291,11.448,12.477,17.344,18.552
		c4.458,4.594,8.969,9.148,13.561,13.616c0.451,1.24,1.188,2.431,1.796,3.106c1.194,1.327,0.888,5.239,1.121,7.021
		c0.367,2.808,0.572,5.697,1.17,8.466c0.558,2.585,1.612,5.266,3.422,7.195c-0.96,2.747-1.901,5.5-2.82,8.262
		c-0.27,0.812,0.641,1.931,1.764,2.687c-2.785-0.083-5.551-0.507-8.167-1.266c-13.961-4.052-25.476-14.554-33.969-26.003
		c-8.57-11.553-17.156-24.344-23.107-37.454c-2.82-6.213-5.152-13.02-6.64-19.689c-0.969-4.344-0.006-7.658,1.69-11.696
		c0.173-0.411,0.145-0.857-0.024-1.312c1.079-0.511,1.85-1.331,0.531-2.379c-2.958-2.349-6.441-3.982-10.096-4.909
		c-1.304-0.331-2.905-0.597-4.451-0.555c-2.518-0.838-4.988-0.994-5.183,0.139c-2.859,16.645-2.984,32.375,3.558,48.173
		c7.098,17.142,16.443,33.988,28.577,48.071c12.262,14.231,27.115,26.157,43.715,34.968c3.968,2.106,8.161,4.147,12.503,5.976
		c-0.93,2.745-1.186,5.702-2.711,8.236c-0.637,1.059-1.712,2.829-2.919,4.327c-0.004-0.96-0.009-1.83-0.01-1.993
		c-0.005-1.235,0.045-2.472,0.157-3.702c0.246-2.699,0.95-5.315,0.672-8.038c-0.167-1.634-5.288-1.9-5.169-0.731
		c0.489,4.791-4.779,19.91,4.106,19.103c3.293-0.299,5.801-4.367,7.491-6.846c1.785-2.618,2.243-5.586,3.13-8.467
		c1.354,0.505,2.721,0.982,4.096,1.432c5.295,25.716,7.65,51.856,6.991,78.114c-0.009,0.371-0.005,1.036,0.059,1.78
		c-1.477,2.268-2.482,5.827-0.358,5.13c4.986-1.636,11.96-0.212,17.114,0.278c5.597,0.531,11.154,1.352,16.681,2.375
		c1.912,0.354,4.905-5.26,3.904-6.757c-1.276-1.907-1.681-4.439-1.623-7.171c9.218-0.212,18.436-0.424,27.654-0.636
		c1.284-0.03,9.825-2.622,5.897-4.586c-0.286-0.143-0.442-0.573-0.516-1.163c1.593-1.351,3.736-4.471,3.314-6.148
		c-0.595-2.363-1.096-4.741-1.515-7.13c0.379-1.732,0.815-3.453,1.295-5.167c0.299-1.065-0.755-1.577-2.265-1.661
		c-0.944-8.494-0.957-17.09-0.416-25.638c0.393-6.224,0.901-12.514,1.87-18.678c1.081-6.88,4.518-12.139,8.522-17.663
		c0.113-0.155,0.263-0.371,0.429-0.623c3.48,3.806,7.874,5.966,13.673,5.832c0.067,0.121,0.132,0.244,0.2,0.366
		c0.338,0.607,1.007,0.259,1.642-0.481c0.109-0.011,0.211-0.012,0.321-0.025c0.901-0.103,0.971-0.718,0.619-1.439
		c0.49-1.015,0.746-2.127,0.385-2.776c-2.966-5.331-5.703-10.78-8.038-16.396c0.007-0.039,0.029-0.064,0.03-0.108
		c0.177-11.346,0.893-22.656,2.147-33.934c0.042-0.38-0.123-0.806-0.405-1.243c5.906-4.976,11.276-10.815,16.687-16.285
		c6.174-6.242,12.229-12.602,18.158-19.077c4.965-5.423,10.753-10.859,14.245-17.407
		C553.866,244.311,553.92,236.299,553.685,228.639z M375.733,269.369c-5.868-6.199-11.906-12.39-17.29-19.019
		c-5.671-6.982-5.794-15.741-5.05-24.405c0.734-8.549,6.226-17.146,11.295-23.896c4.629-6.164,10.688-11.236,17.362-15.066
		c11.418-6.554,29.552-13.399,41.414-4.856c-0.207,0.225-0.415,0.443-0.622,0.674c-8.003,8.918-18.667,16.792-25.13,26.935
		c-10.384,16.299,4.107,34.571,14.99,46.938c-2.214,11.828-8.44,22.768-5.828,35.182c0.4,1.902,0.938,3.718,1.574,5.475
		c-0.918-0.423-1.764-0.489-2.006,0.112c-0.116,0.288-0.226,0.578-0.342,0.866c-4.568-1.969-8.697-7.042-11.894-10.167
		C387.927,282.006,381.768,275.745,375.733,269.369z M415.916,310.643c-3.902,6.716-6.614,13.909-8.078,21.567
		c-2.785,1.051-5.779,1.672-8.816,1.881c2.877-8.643,5.96-17.211,9.244-25.704c1.58-0.255,3.178-0.857,4.782-1.835
		C413.944,307.952,414.903,309.313,415.916,310.643z M421.753,317.489c-1.307,4.931-4.143,8.725-7.83,11.444
		c1.243-4.941,3.015-9.667,5.343-14.193C420.075,315.668,420.906,316.583,421.753,317.489z M398.639,316.959
		c-0.128-1.402-0.367-2.81-0.55-4.207c-0.33-2.522-0.61-5.057-0.99-7.573c-0.023-0.154-0.053-0.303-0.078-0.456
		c1.727,1.394,3.52,2.461,5.361,3.105c-1.183,3.102-2.336,6.214-3.466,9.336c-0.09-0.056-0.18-0.105-0.271-0.145
		C398.643,316.997,398.641,316.981,398.639,316.959z M398.647,317.045c0.082,0.092,0.133,0.254,0.161,0.417
		c-0.027,0.075-0.054,0.15-0.081,0.224C398.703,317.547,398.676,317.339,398.647,317.045z M321.361,282.344
		c-4.973-11.447-6.574-22.675-6.028-34.375c0.916,3.758,2.319,7.512,3.49,11.042c4.416,13.308,12.597,24.987,20.221,36.607
		c13.985,21.314,34.979,43.81,62.411,44.975c13.377,0.568,26.787-6.686,29.517-20.543c0.251-1.273-1.508-2.934-3.527-4.023
		c-0.43-0.866-0.984-1.656-1.557-2.234c-1.294-1.303-2.602-2.616-3.876-3.964c0.158-0.424-0.311-0.824-1.035-1.114
		c-1.561-1.708-4.353-5.371-4.353-5.371s-3.134-5.659-3.212-5.852c-3.074-7.605-1.462-14.809,0.918-22.33
		c1.72-5.435,5.804-14.083,3.65-19.824c-1.027-2.736-3.674-4.899-5.538-7.06c-2.063-2.391-4.076-4.827-5.946-7.374
		c-3.806-5.185-7.921-11.666-6.558-18.408c1.505-7.445,9.087-13.412,14.178-18.527c5.412-5.437,10.386-11.883,16.174-16.87
		c6.347-5.468,16.866-3.656,24.525-2.868c0.501,0.052,0.867-0.109,1.138-0.393c3.358-0.238,6.997-0.329,10.087,1.229
		c2.82,1.421,4.64,4.216,6.725,6.506c5.182,5.693,10.782,10.978,16.115,16.525c5.65,5.878,10.06,10.696,7.392,19.189
		c-1.954,6.218-5.972,11.663-10.048,16.654c-1.778,2.178-3.634,4.29-5.499,6.394c-2.338,2.638-2.47,3.561-1.915,7.13
		c1.078,6.938,3.849,13.366,5.529,20.146c3.684,14.872-5.158,25.959-15.002,35.875c-0.729,0.734-0.76,2.149-0.388,3.6
		c-0.805,0.044-1.357,0.292-1.449,0.804c-3.172,17.756-11.299,35.481-27.679,44.596c-10.275,5.718-21.502,5.942-32.343,3.355
		c-0.271-1.35-0.543-2.699-0.829-4.046c-0.349-1.639-1.168-3.551-2.787-2.022c-0.958,0.905-1.195,2.925-1.146,4.753
		c-5.608-1.76-11.055-4.184-16.15-6.888C355.886,341.358,335,313.742,321.361,282.344z M414.591,447.144
		c0.602-25.524-1.442-51.02-6.107-76.102c10.465,2.801,21.312,3.654,31.654,0.73c1.581-0.447,3.104-0.979,4.582-1.574
		c1.587,21.751,1.232,43.558-1.186,65.251c-0.28,1.359-0.535,2.722-0.769,4.09c-0.709,0.354-1.273,0.814-1.517,1.403
		c-0.531,1.285-0.022,1.959,0.958,2.243c-0.13,0.963-0.26,1.925-0.359,2.894c-0.103,1.004-0.205,2.016-0.26,3.021
		c-4.314-0.681-8.646-1.231-13.002-1.599C424.111,447.122,419.116,446.339,414.591,447.144z M478.53,368.174
		c-2.584,7.141-2.97,15.076-3.587,22.58c-0.747,9.086-0.986,18.167-0.304,27.18c-0.977,0.49-1.71,1.116-1.913,1.843
		c-1.376,4.911-2.353,9.884-2.744,14.974c-0.082,1.068-0.239,2.168-0.262,3.209c-6.851,0.158-13.702,0.315-20.552,0.473
		c2.468-23.487,2.709-47.121,0.621-70.653c14.937-8.34,23.741-24.531,27.55-41.257c2.344,7.211,5.189,14.266,8.656,20.991
		c0.725,1.407,1.504,2.709,2.334,3.915C484.533,356.67,480.748,362.043,478.53,368.174z M497.019,355.827
		c-2.426-0.739-3.948-2.408-5.169-4.314c0.19-0.675,0.207-1.298-0.137-1.708c-0.317-0.378-0.691-0.462-1.075-0.375
		c-0.039-0.071-0.079-0.143-0.117-0.214c-1.778-3.303-3.298-6.781-4.744-10.238c-3.032-7.25-5.432-14.714-7.328-22.337
		c-0.03-0.121-0.09-0.248-0.164-0.377c2.172-2.419,4.204-4.925,5.971-7.585c3.876,6.736,5.317,14.346,7.34,21.786
		c-0.039,1.415-0.095,2.83-0.117,4.246c-0.015,0.961,1.057,2.125,2.412,3.099c2.225,6.272,5.027,12.317,8.128,18.205
		C500.351,356.193,498.553,356.294,497.019,355.827z M489.509,308.568c1.122,0.098,2.249,0.03,3.364-0.183
		c-0.244,2.72-0.453,5.442-0.635,8.166C491.468,313.837,490.605,311.161,489.509,308.568z M544.289,250.916
		c-5.076,6.881-11.585,13.049-17.456,19.252c-6.035,6.376-12.194,12.636-18.472,18.773c-5.344,5.223-11.285,13.152-18.901,8.764
		c0.364-1.264,0.665-2.563,0.887-3.907c2.016-12.235-4.46-22.953-6.33-34.661c11.133-12.54,24.717-28.764,15.489-46.157
		c-4.931-9.295-14.45-16.561-21.676-24.024c-1.787-1.846-3.467-3.985-5.25-6.006c0.158-0.13,0.322-0.272,0.493-0.434
		c11.378-10.699,33.477-0.783,44.454,6.107c6.426,4.034,12.126,9.116,16.659,15.214c4.652,6.259,9.78,14.224,11.805,21.793
		C547.856,232.601,548.74,244.883,544.289,250.916z"/>
	<path d="M410.897,223.561c-1.69-0.437-1.997,0.179-1.584,0.886c-1.252-0.662-2.966-0.919-2.936,0.035
		c0.164,5.129,2.307,9.746,5.633,13.604c2.171,2.519,6.17,6.739,9.986,5.713c4.695-1.262,1.063-8.953-0.367-11.612
		C419.335,227.916,415.613,224.78,410.897,223.561z M417.688,240.337c-2.081-1.027-4.024-4.455-5.05-6.441
		c-1.327-2.57-1.951-5.208-2.043-8.087c-0.003-0.094-0.03-0.188-0.07-0.282c0.216,0.112,0.449,0.205,0.692,0.268
		c3.602,0.931,5.721,3.943,7.152,7.165C419.163,234.75,421.823,242.378,417.688,240.337z"/>
	<path d="M477.074,243.346c3.901,1.744,6.942-1.316,9.362-4.093c3.342-3.835,5.332-8.34,5.495-13.445
		c0.038-1.173-3.256-2.516-4.044-1.736c-0.786-0.462-1.705-0.791-2.221-0.658c-5.104,1.319-8.323,5.215-10.226,9.979
		C474.039,236.9,472.862,241.463,477.074,243.346z M478.998,236.894c0.461-1.42,1.044-2.81,1.751-4.125
		c1.562-2.906,3.779-5.242,6.802-6.412c-0.335,2.547-1.175,4.957-2.493,7.214c-0.885,1.515-1.955,2.945-3.153,4.226
		c-0.65,0.695-2.497,2.992-3.467,3.043c-0.107,0.006-0.172,0.048-0.211,0.089c0.047-0.13,0.121-0.444,0.176-1.109
		C478.489,238.767,478.674,237.893,478.998,236.894z"/>
</g>
</svg>
