<?xml version="1.0" encoding="utf-8"?>
<!-- Generator: Adobe Illustrator 23.0.1, SVG Export Plug-In . SVG Version: 6.00 Build 0)  -->
<svg version="1.1" xmlns="http://www.w3.org/2000/svg" xmlns:xlink="http://www.w3.org/1999/xlink" x="0px" y="0px"
	 viewBox="0 0 566.9 566.9" style="enable-background:new 0 0 566.9 566.9;" xml:space="preserve">
<style type="text/css">
	.st0{display:none;}
</style>
<g id="Layer_2" class="st0">
	
		<image style="display:inline;overflow:visible;" width="512" height="512" xlink:href="../References/Beach 2.png"  transform="matrix(1 0 0 1 27.465 27.465)">
	</image>
</g>
<g id="Layer_3">
	<g>
		<path d="M786.7,596.8C737.2,561.5,682,534.6,624,516.4c-47.2-14.8-96.2-24-145.6-27.6c0.7-4.7,1.1-9.4,1.1-14.1
			c0-4,0.2-8.2-2-11.7c-2.1-3.3-5.1-6.4-7.9-9.2c-2.7-2.8-5.8-5.1-8.7-7.7c-3.8-3.4-2.7-10-2-14.6c1.4-8.8,6.6-15.7,12.7-21.9
			c3.2-3.2,6.6-6.3,9.7-9.5c1.9-1.9,5.8-5,6.4-7.9c1.1-5.8-10.7-8.2-14.5-9.3c-14.1-4.2-36.3-7.6-44.9-7.6s-9.7,7.3-9.6,9.1
			c0.5,5.7,2.9,11.2,5.3,16.4c2.7,5.8,5.9,11.5,7.3,17.8c0.8,3.8,0.8,7.6,0.4,11.4c-0.3,3-0.2,8.8-2.7,10.7
			c-1.7,1.3-5.9,1.6-8.1,2.2c-2.6,0.8-5.3,1.7-7.8,2.9c-5.2,2.5-9.4,6.3-12.1,11.4c-5.1,9.7-4.7,20.8-6.5,31.4
			c-32.8,2.2-65.4,6.7-97.9,12.1c0.8-4,0.3-8.5-0.6-12c-13.1-55.8-25.4-112-41.3-167.1c-3.5-12-6.9-24.3-12.1-35.6
			c-0.1-0.3-0.3-0.6-0.5-0.9c1.9-0.4,3.9-0.9,5.9-1.2c16.5-3.1,33.5-2.8,50.1,0c14.7,2.4,28.9,7.3,40.6,16.7c0.3,0.3,0.6,0.6,1,0.8
			c0.6,0.4,1.1,0.3,1.6-0.2c0.9-0.6,1.4-2,1.6-3.3c0-0.2,0.1-0.3,0.1-0.4c0.1-0.5,0.1-1.1,0.1-1.7c0.4-8.7,7.8-16,12.7-22.7
			c2.9-4,5.8-7.8,10.2-10.1c4.3-2.3,9.1-3.3,13.8-4.5c19.1-4.7,40-8.9,58.2,1.1c2.5,1.4,8.1-1,9.2-2.7c1.3-2.1,1-5.6,0-7.8
			c-8.8-19.4-15-39.9-23.8-59.3c-9.1-20.1-21.5-37.1-38-51.7c-16.2-14.4-33.3-30-53.9-37.6c-10.2-3.8-20.9-5.9-31.6-7.8
			c-11.7-2.1-23.5-4.1-35.4-5.2c-23-2.1-45.2,2-67.1,8.5c0.1-0.5,0.1-1,0.1-1.5c0-7.2-5.8-13-13-13s-13,5.8-13,13
			c0,3.4,1.3,6.5,3.5,8.8c-12.6,4.5-25,9.7-37,15.6c-35.2,17.5-67.2,42.7-86.3,77.8c-23.3,42.9-25.6,93.3-27.7,141
			c0,0.6,0,1.5,0.2,2.4c-0.7,1.8-1.3,3.7-1.8,5.7c-0.5,2.1-0.9,5.9,1,7.5c1.8,1.5,3.3,0,3.8-2c3.7-15.3,17.3-24.8,31.2-30
			c15-5.6,32.9-9.4,49.1-7.9c8.7,0.8,17.4,3.5,25.6,6.3c4.9,1.7,9.8,3.5,14.4,5.8c1.8,0.9,5.6,2.7,7.2,4.4c0.3,0.6,0.6,1.2,1,1.8
			c0.1,0.3,0.3,0.6,0.5,0.9c0.6,0.9,1.3,1.1,1.8,0.8c0.4-0.1,0.7-0.2,1.1-0.6c1.3-1.1,1.5-3.5,1.3-5.4c0-0.8-0.1-1.5-0.3-2.1
			c-1.7-7.1,11.6-12.6,16.3-14.7c7.3-3.4,14.7-6.8,22-10c11.1-4.8,16-7.4,27.6-10.8c5.1,5.1,4.9,10.3,7.2,15.4
			c0.4,0.8,0.7,1.6,1,2.4c0.1,0.3,0.2,0.6,0.3,0.8c0.8,2.2,1.6,4.4,2.3,6.7c1.9,5.5,3.5,11.1,5.2,16.7c4.3,14.7,8.2,29.5,12,44.3
			c8.1,31.3,15.5,62.8,22.9,94.3c2.5,10.7,4.9,21.4,7.4,32.1c0,0.1,0.1,0.3,0.1,0.4c-12.1,2.1-24.3,4.2-36.4,6.4
			c-28.5,5.1-57.1,10-85.8,13.3c14.8-11.9,23.7-30.6,24.1-50.5c0-0.3,0-0.5,0-0.7c0-0.2,0-0.4,0-0.7c-0.6-26-15.5-50.6-40.4-59.9
			c-24.6-9.1-52.8-1.2-69,19.5c-16.3,20.8-18.5,51.4-5.3,74.4c5.3,9.3,12.9,16.9,21.8,22.3c-15.8,0-31.7-0.7-47.6-2.4
			c-63-6.9-124.4-27.3-179-59.6c-6.7-4-13.4-8.2-19.9-12.5c-3.2-2.1-4.6,8.5-1.5,10.6c52.3,34.7,111.7,58.2,173.6,68.8
			c66.8,11.4,133.6,4.8,199.9-6.5c59.3-10.1,118.2-22.5,178.3-26c0.8,0.3,1.5,0.3,1.9-0.1c6.2-0.3,12.4-0.6,18.7-0.7
			c17-0.4,58,1.3,58,1.3s83.9,9.8,124.6,20.9c58.6,16.1,114.9,40.8,165.8,74c6.3,4.1,12.6,8.4,18.8,12.8
			C788.3,609.5,789.8,599,786.7,596.8z M283.6,100.7c11,1.7,22.1,3.5,33,6.1c10.6,2.6,20.9,6.4,30.2,12.1
			c9.2,5.7,17.5,12.8,25.8,19.7c9.4,7.8,18.7,15.8,26.6,25.1c7.7,9,13.7,19.2,18.8,29.9c8.6,18.1,14.7,37.2,22.4,55.7
			c-0.2-0.2-0.4-0.4-0.6-0.5c-20.7-11.4-45.4-5.6-66.9,0.4c-4.9,1.4-9.4,3.3-13.2,6.8c-4,3.6-6.9,8.4-10.1,12.7
			c-3.3,4.3-6.2,8.6-8.2,13.1c-3.1-11.1-6.4-22.3-11.1-32.8c-3.6-7.9-8.6-15.3-13.3-22.5c-5.4-8.4-11-16.6-16.8-24.6
			c-11.9-16.3-24.7-31.9-37.9-47.1c-6.7-7.7-13.5-15.4-20.4-23c-6.3-6.9-12.4-14.5-19.6-20.5c-4-3.3-8.5-5.7-13.3-7.7
			c13.3-3.5,26.9-5.9,40.6-6C260.9,97.4,272.3,98.9,283.6,100.7z M136.9,309.7c-9.3-3.3-19.4-6.6-29.3-7.5
			C90,300.6,70,305,53.9,311.8c-9.4,4-17.9,10.1-23.9,18.1c1.7-38.9,4.3-79.2,20.5-115c16.2-35.9,45.9-62.2,80-80.8
			c11.2-6.1,22.9-11.4,34.8-16.1c-13.8,18.9-21,43.6-25.8,65.3c-7.4,33.4-6.9,67.1,0.1,100.5c2.1,10.2,4.7,20.4,8.3,30.2
			C144.1,312.2,140.2,310.9,136.9,309.7z M181.8,296.7c-7.5,3.5-16.4,6.5-21.9,13.1c-1.7,2.1-3,4.4-3.9,6.8
			c-10.4-22.3-14.8-48.3-16.4-72.5c-2.1-32.7,4.5-66.6,17.6-96.6c6.1-14,14.3-27.3,26.8-36.4c2.4-0.8,4.9-1.6,7.3-2.4
			c4.1,0.5,8.6,2.6,11.7,3.8c5.2,2,10.5,4.1,15.1,7.4c7.4,5.4,13.4,13.3,19.6,20.1c6.3,6.9,12.5,13.9,18.7,20.9
			c25.1,28.7,50,59,68.2,92.7c5.5,10.2,8.7,21.9,11.8,33.3c-12.4-8.5-27.1-12.6-41.9-14.6c-19.6-2.7-39.1-1.7-58.3,3.4
			C217.3,280.6,199.5,288.6,181.8,296.7z M144.1,521.5c-4.4,1.6-8.9,2.5-13.4,3c5.7-4,11-8.6,15.7-12.8c11.9-10.6,24-25.2,23.2-42.1
			c0-0.5-0.1-1.3-0.2-2.2c3.6,0,7.2-0.3,10.6-0.5c0.3,0,0.6-0.1,0.9-0.4c0.2,1.5,0.3,3.1,0.3,4.7
			C180.9,494.1,165.3,513.9,144.1,521.5z M180.3,463.1c-11.8,0.7-25.1,1.3-33.7-8.1c-7.6-8.3-12.7-24.1-2-32.3
			c0.4-0.3,0.7-0.6,0.9-1C163.3,428.5,177,444.3,180.3,463.1z M77.3,443.4c12.6-19.2,36.1-28.7,58.6-24.5c2.5,0.5,4.9,1.1,7.3,1.9
			c-4.6,3.9-7.3,8.9-8.2,14.3c-0.3,0.1-0.7,0.3-1,0.6c-7.7,6.9-19.2,11.2-28.9,14.6c-8.5,3-23.9,8.2-32.5,2.2
			C73.8,449.3,75.3,446.3,77.3,443.4z M69.8,462c9.6,7.2,24.2,3,34.5-0.4c10.7-3.5,22.6-8.2,31.4-15.6c0.6,2.1,1.5,4.2,2.7,6.3
			c1.5,2.7,3.5,5.3,5.7,7.5c-7.3,9.5-18.9,16.9-29,23c-9.8,5.8-26.2,15.3-37.7,8.8c-1.4-0.8-2.5,0.6-3,2.6
			C69.4,484.1,67.8,472.9,69.8,462z M82,505.4c-0.4-0.4-0.8-0.9-1.1-1.3c11.5,2.7,25.4-4.7,34.6-10.1c11.1-6.5,24-14.8,31.8-25.3
			c1.1-1.4,1.5-3.4,1.4-5.2c1.7,1,3.5,1.9,5.4,2.4c3.3,0.9,6.7,1.3,10.3,1.5c-0.2,0.9-0.2,1.7-0.2,2.2c0.7,13.6-13,26.2-22.3,34.2
			c-5.5,4.7-11.4,9-17.6,12.8c-3.9,2.4-8.3,5.2-12.9,6.3c-0.1,0-0.1,0-0.2,0.1C100,520.2,89.7,514.2,82,505.4z M401.7,488.2
			c1.1-9.4,1.4-19.2,6.2-27.4c3.1-5.2,7.7-8.5,13.2-10.7c2.8-1.1,5.8-2,8.7-2.8c1.9-0.5,4.9-0.7,6.1-2.3c1.6-2,1.6-6.7,2-9.2
			c0.4-3.1,0.6-6.2,0.5-9.3c-0.3-5.8-2.2-11.2-4.6-16.4c-2.5-5.5-5.5-10.8-7.3-16.5c-0.8-2.7-2.1-6.4-1.2-9.2
			c0.9-2.9,2.6-3.7,5.9-4.7s15,0.4,21.8,2.3c7.6,2.1,15.9,3.7,23.1,7.1c1.1,0.5,4.1,1.7,4.4,3.1c0.3,1.6-2.4,3.9-3.3,4.9
			c-2.8,3.1-6,6-9,9c-5,4.8-9.9,9.9-13.1,16.1c-3.2,6-4.3,12.9-4,19.7c0.3,6.8,7.2,10,11.6,14.5c2.4,2.4,4.8,5,6.8,7.8
			c2.7,3.8,2.6,7.8,2.6,12.3c0,4-0.3,8-0.8,12c-9-0.5-18-0.9-27-1.1C430,487,415.8,487.4,401.7,488.2z"/>
		<path d="M460.4,406.5c2.8-2.1,7.3-7.1,7.8-10.8c0.7-4.6-4.8-6.2-8.2-7.2c-0.3-0.1-15.3-2.4-21.1,0.2c-3.1,1.4-5.6,4.1-5.1,7.7
			c0.4,3,2.8,9.9,5.6,11.5c1.4,0.8,9.8,1.5,12.2,1.5C454.7,409.4,457.9,408.3,460.4,406.5z M448.7,407.1c-1.7-0.3-4.7,0-6.3-0.8
			c-1.9-1-2.5-4.6-3.2-6.4c-0.5-1.2-1.2-2.4-1.4-3.7c-0.6-3.2,0.1-3.6,3-5.3c3.1-1.9,4.5-1.8,7.9-1.6c1.2,0.1,2.5,0.1,3.7,0.2
			c3,0.4,5.8,1.5,8.6,2.4c0.2,0.1,2.3,1.1,2.7,1.9c1.6,2.9-0.9,5.4-2.6,7.7c-0.9,1.2-1.7,3-3,3.8
			C455.8,407.1,451.6,407.6,448.7,407.1z"/>
	</g>
</g>
</svg>
