<?xml version="1.0" encoding="utf-8"?>
<!-- Generator: Adobe Illustrator 23.0.1, SVG Export Plug-In . SVG Version: 6.00 Build 0)  -->
<svg version="1.1" id="Layer_3" xmlns="http://www.w3.org/2000/svg" xmlns:xlink="http://www.w3.org/1999/xlink" x="0px" y="0px"
	 viewBox="0 0 566.9 566.9" style="enable-background:new 0 0 566.9 566.9;" xml:space="preserve">
<style type="text/css">
	.st0{fill:#FFFFFF;}
</style>
<path d="M373.2,69.9c-7.2-0.3-14.4-0.3-21.6,0.3c-6.4,0.5-12.9,0.8-18.4,4.2c-10.4,6.3-19.7,15.3-27.2,24.8c-3.2,4-3.4,10.3-2,15.1
	c0.9,3,4.3,8,7.5,3.9c6.9-8.7,15-16.8,24.6-22.6c5-3,10.8-3.1,16.5-3.5c6.9-0.5,13.7-0.5,20.6-0.2C380.6,92.2,381,70.2,373.2,69.9
	L373.2,69.9z"/>
<path d="M198.5,91.9c6.5-0.3,13.1-0.3,19.6,0.1c6,0.4,12.3,0.4,17.5,3.5c9.5,5.8,17.7,13.9,24.6,22.6c3.1,4,6.6-0.9,7.5-3.9
	c1.4-4.7,1.2-11.1-2-15.1c-7.5-9.5-16.8-18.4-27.2-24.8c-5.6-3.4-12.1-3.7-18.4-4.2c-7.2-0.5-14.4-0.6-21.6-0.3
	C190.8,70.2,191,92.2,198.5,91.9L198.5,91.9z"/>
<path d="M370.4,297.4c-3.2-18.2-14-32.8-25.8-46.4c5.9-10.6,9.8-22.2,9.6-34.5c-0.1-7.8-1.8-15.5-5.3-22.5c-2.1-4.3-4.7-7.3-8-9.8
	c0.5-0.5,0.9-1,1.4-1.5c9.4-9.6,11.5-21.9,9.8-34.9c-1.5-11.6-6.3-23.7-15.6-31.2c-5.9-4.8-13-6.6-20.2-8.3
	c-0.8-3.3-41.1-4.2-58.8-1.6C242.3,109,230,115,225,130.4c-4.3,13.4-3.6,27.8,2.2,40.6c1.3,2.9,2.9,6,4.7,9.1
	c-8.8,5.2-15.5,10.9-17.8,20.4c-2.9,11.9-1.1,25.5,3.6,36.6c2.2,5.1,5.3,9.7,8.9,13.9c-8.6,6.1-16.3,14.2-20.9,23.1
	c-4.4,8.5-8.1,17.8-10.1,27.2c-2.1,10.2-1.6,20.6-0.1,30.9c0.9,5.9,1.9,11.9,3.2,17.8c0.2,2.3,0.7,4.5,1.4,6.3
	c0.5,1.9,0.9,3.9,1.5,5.8c2.3,8.7,19.2,45.1,24.4,54.9c2.7,5,5.2,10.2,8.8,14.7c5,6.4,11.9,11.6,19.1,15.3
	c5.2,2.6,10.6,4.5,16.1,5.7c0.1,0.9,0.3,1.7,0.5,2.4c3.7,16,6.8,32.2,9.2,48.4c0.4,2.6,1.5,7.2,4.6,7.9c3.1,0.7,4.6-2.9,5.5-5.3
	c3-8.1,4.2-17.1,5.9-25.6c1.9-9.1,2.9-16,5.4-24.7c0.4-1.3,0.7-2.8,0.8-4.4c1.1-0.3,2.2-0.7,3.3-1.1c16.2-5.9,28.3-18.2,36.5-33
	c4.4-7.8,7.8-16.2,11.4-24.4c4.1-9.3,8.5-18.6,11.6-28.4c0.4-1.4,5.4-28.8,5.7-33.4C371.3,320.2,372.3,308.6,370.4,297.4z
	 M224.4,209.2c4.1-9,16.4-8.8,24.7-9.6c1.5-0.2,2.8-1.1,3.7-2.6c2.9-2.5,3.2-10.1,1.1-14.9c-2.6-2-4.1-1-4.8-4.5c0,0,0,0,0,0
	c-6.8-3.8-10.1-13.8-13.3-20.5c-0.7-1.5-1.7-3.7-1.9-4.4c-0.1-0.3-0.2-0.6-0.3-0.8c0.3-1.9,0-6.4,0.2-7.6c0.4-2.1,1.1-4,2.3-5.9
	c6.3-9.1,20.5-9.6,30.4-10.8c10.7-1.3,33.4-1.7,34-1.5c15.3,5.4,35.2,5.3,40.2,24.1c0.5,1.8,0.8,3.6,0.9,5.4c0,0.6-2,9.3-4.4,11.6
	c-4.4,4.2-16.9,19.8-23.3,20c-7.7,0.3-1.6,13.3,6,13c2.8-0.1,5.4-1.2,7.8-2.9c0.6,1.6,1.6,2.9,2.8,3.5c3.7,1.9,7.5,3.5,9.7,7.2
	c1.8,3.1,3.1,6.4,2.9,10c-0.4,9-6,17.9-11.1,24.9c-1.3,1.8-2.1,3.9-2.5,6.2c-27.7-0.1-55.4,0.4-83.1,0.1c-0.6-2.6-1.7-4.8-3.2-5.8
	c-5.4-5.2-11.1-10.5-15-16.8C225.4,222.4,222.1,214.4,224.4,209.2z M227.9,273.7c0.9,0.8,1.9,1.3,3.2,1.3
	c35.4,0.9,70.8-0.2,106.2,0.2c1.8,0,3.2-1,4.2-2.6c4.8,5.4,9.4,11.1,12.9,17.2c-46.7,0.2-93.5-0.1-140.2-0.7
	C217.8,283.3,222.5,278.1,227.9,273.7z M285.8,471.5c-1.1-5.7-2.3-11.4-3.5-17.1c2.3,0.1,4.7,0,7-0.2
	C288,459.9,287,465.7,285.8,471.5z M311.6,425.1c-22.2,12.5-54.7,8.7-70.8-11.8c4.2,0.1,8.4,0.1,12.6,0.1c9.3,0,18.6-0.1,27.9-0.1
	c14.9,0,29.8-0.1,44.7-0.1C322,417.8,317.3,421.9,311.6,425.1z M340.6,388.6c-0.9-0.9-2-1.5-3.3-1.5c-18.6,0.1-37.3,0.1-55.9,0.2
	c-9.3,0-18.6,0.1-27.9,0.1c-8.7,0-17.5,0.4-26.1-1.7c-0.7-0.2-1.2-0.1-1.8,0.1c-1.1-2.1-2.2-4.2-3.2-6.2c-1.7-3.2-3.6-6.4-5.2-9.7
	c-1.3-2.5-2.3-5.1-3.1-7.9c7.9,0.5,15.9,0.3,23.8,0.3c13.1,0,26.2,0,39.3-0.1c25.1,0,50.2-0.1,75.3-0.1
	C349,371.2,344.7,380,340.6,388.6z M360.1,321.8c-0.3,4.8-0.7,9.6-1.3,14.3c-27.2,0-54.5,0.1-81.7,0.1c-13.1,0-26.2,0.1-39.3,0.1
	c-10,0-20.2,0.2-30.2-0.9c-1.1-5.5-1.9-11.1-2.2-16.6c-0.1-1.3-0.1-2.5,0-3.7c51.7,0.7,103.4,1,155.1,0.8
	C360.4,317.9,360.2,319.8,360.1,321.8z"/>
<path d="M453.7,276.3c-1.4-10.4-5.5-19.2-12.5-26.9c-3.1-3.4-6.4-6.4-9.6-9.7c-3.5-3.5-26.2-21.2-35.1-25.3
	c-7.9-3.7-15.7-7.7-23.4-11.9c-8.5-4.7-17-9.5-25.3-14.6c-5.6-3.4-14.1-11.4-21-9c-7.1,2.4-14.1,7-20.8,10.3
	c-5.7,2.8-11.4,5.6-17,8.4c-0.2-0.3-0.5-0.5-0.9-0.7c-13.9-6.9-27.7-13.7-41.6-20.6c-2.9-1.4-3.4-2.3-6.4-0.4
	c-6.5,4.1-100.3,51.4-114.7,85.4c-8,21.8-5,49.5,16.6,62c10.2,5.8,21.9,7.5,33.5,6.9c12.9-0.6,26.5-2.7,38.7-7
	c20.5-7.1,38-21.9,50.2-39.7c10-14.5,16.6-30.9,20.7-48c6.3,24.8,18.7,47.9,38.7,64.6c13.9,11.6,29.8,19,47.5,22.6
	c18.4,3.8,38.7,6.4,56.6-0.9C447.1,314.2,455.8,296.4,453.7,276.3z"/>
<path class="st0" d="M445,275.2c-1.3-9.2-4.9-17-11.1-23.9c-2.7-3-5.7-5.7-8.6-8.6c-3.1-3.2-23.3-18.8-31.2-22.5
	c-7.1-3.3-14-6.9-20.8-10.6c-7.6-4.1-15.1-8.5-22.5-13c-5-3-12.5-10.1-18.7-8c-6.3,2.1-12.5,6.2-18.5,9.1c-5,2.5-15.6,7-15.9,6.9
	l-2.6,34.4c5.6,22.1,16.6,42.6,34.4,57.5c12.3,10.3,26.5,16.9,42.2,20.1c16.3,3.4,34.4,5.7,50.3-0.8
	C439.2,308.9,447,293.1,445,275.2z"/>
<path class="st0" d="M139.2,254.1c6.6-7.8,76-53,83.4-57.5c5-3,12.5-10.1,18.7-8c6.3,2.1,12.5,6.2,18.5,9.1c5,2.5,15.6,7,15.9,6.9
	l2.6,34.4c-5.6,22.1-16.6,42.6-34.4,57.5c-12.3,10.3-26.5,16.9-42.2,20.1c-16.3,3.4-34.4,5.7-50.3-0.8
	C118.8,302,132.6,261.9,139.2,254.1z"/>
</svg>
