<?xml version="1.0" encoding="utf-8"?>
<!-- Generator: Adobe Illustrator 23.0.1, SVG Export Plug-In . SVG Version: 6.00 Build 0)  -->
<svg version="1.1" xmlns="http://www.w3.org/2000/svg" xmlns:xlink="http://www.w3.org/1999/xlink" x="0px" y="0px"
	 viewBox="0 0 566.9 566.9" style="enable-background:new 0 0 566.9 566.9;" xml:space="preserve">
<g id="Layer_3">
	<g>
		<g>
			<path d="M373.2,69.9c-7.2-0.3-14.4-0.3-21.6,0.3c-6.4,0.5-12.9,0.8-18.4,4.2c-10.4,6.3-19.7,15.3-27.2,24.8
				c-3.2,4-3.4,10.3-2,15.1c0.9,3,4.3,8,7.5,3.9c6.9-8.7,15-16.8,24.6-22.6c5-3,10.8-3.1,16.5-3.5c6.9-0.5,13.7-0.5,20.6-0.2
				C380.6,92.2,381,70.2,373.2,69.9L373.2,69.9z"/>
		</g>
	</g>
	<g>
		<g>
			<path d="M198.5,91.9c6.5-0.3,13.1-0.3,19.6,0.1c6,0.4,12.3,0.4,17.5,3.5c9.5,5.8,17.7,13.9,24.6,22.6c3.1,4,6.6-0.9,7.5-3.9
				c1.4-4.7,1.2-11.1-2-15.1c-7.5-9.5-16.8-18.4-27.2-24.8c-5.6-3.4-12.1-3.7-18.4-4.2c-7.2-0.5-14.4-0.6-21.6-0.3
				C190.8,70.2,191,92.2,198.5,91.9L198.5,91.9z"/>
		</g>
	</g>
	<path d="M352,147.9c-1.5-11.6-6.3-23.7-15.6-31.2c-5.9-4.8-13-6.6-20.2-8.3c-0.8-3.3-2.6-5.8-5.1-5.8c-17.9,0.4-35.9,1.6-53.7,4.2
		C242.3,109,230,115,225,130.4c-4.3,13.4-3.6,27.8,2.2,40.6c1.3,2.8,2.8,5.9,4.6,8.9c1.4,1.2,1.9,3.1,1.6,4.9
		c0.3,0.2,0.6,0.5,0.9,0.8c1.8,2.4,3.7,4.7,5.9,6.7c1.5-0.6,2.9-1.1,4.3-1.5c0.7-0.2,1.5-0.5,2.3-0.7c1.9-2.6,4.1-5,6.4-7.3
		c-0.5-0.3-1-0.7-1.3-1.2c0,0,0,0,0,0c-1.3-0.4-2.3-1.2-2.9-2.3c0,0,0,0,0,0c-0.2-0.4-0.4-0.9-0.5-1.3c0,0,0,0,0-0.1
		c0-0.2-0.1-0.5-0.1-0.7c0,0,0,0,0,0c-6.3-4.1-9.5-13.6-12.7-20.1c-0.7-1.5-1.7-3.7-1.9-4.4c-0.1-0.3-0.2-0.6-0.3-0.8
		c0.3-1.9,0-6.4,0.2-7.6c0.4-2.1,1.1-4,2.3-5.9c6.3-9.1,20.5-9.6,30.4-10.8c10.7-1.3,21.5-2.1,32.3-2.6c0.5,0.5,1,0.9,1.7,1.1
		c15.3,5.4,35.2,5.3,40.2,24.1c0.5,1.8,0.8,3.6,0.9,5.4c0,0.6,0,1.1-0.1,1.4c-1.5,2.9-1.9,8-4.3,10.2c-3.8,3.6-13.6,15.6-20.3,19.1
		c-0.1,0.5-0.2,0.9-0.4,1.3c0.5,0.4,1,0.9,1.4,1.7c1.2,2.3,2.4,4.6,3.6,6.8c4.2-1.6,9.2-2.1,13.8-1.5c2.5-2.9,4.9-5.8,6.3-9.3
		c0-0.1,0.1-0.2,0.1-0.3c-0.3-0.3-0.6-0.5-1-0.8c0.5-0.5,0.9-1,1.4-1.5C351.6,173.2,353.8,160.8,352,147.9z"/>
	<path d="M370.7,327.4c-2.2-0.7-4.3-1.5-6.4-2.5c-0.8-0.1-1.7-0.2-2.5-0.3c-0.6-0.1-1.3-0.2-1.9-0.3c-0.3,3.9-0.6,7.9-1.1,11.8
		c-27.2,0-54.5,0.1-81.7,0.1c-13.1,0-26.2,0.1-39.3,0.1c-10,0-20.2,0.2-30.2-0.9c-0.3-1.7-0.6-3.4-0.9-5c-3.5,1.7-7,3.1-10.7,4.2
		c0.8,5.2,1.8,10.4,2.9,15.6c0.2,2.3,0.7,4.5,1.4,6.3c0.5,1.9,0.9,3.9,1.5,5.8c2.3,8.7,4.6,17.6,9,25.5c5.3,9.7,10.3,19.6,15.4,29.4
		c2.7,5,5.2,10.2,8.8,14.7c5,6.4,11.9,11.6,19.1,15.3c5.2,2.6,10.6,4.5,16.1,5.7c0.1,0.9,0.3,1.7,0.5,2.4c3.7,16,6.8,32.2,9.2,48.4
		c0.4,2.6,1.5,7.2,4.6,7.9c3.1,0.7,4.6-2.9,5.5-5.3c3-8.1,4.2-17.1,5.9-25.6c1.9-9.1,2.9-16,5.4-24.7c0.4-1.3,0.7-2.8,0.8-4.4
		c1.1-0.3,2.2-0.7,3.3-1.1c16.2-5.9,28.3-18.2,36.5-33c4.4-7.8,7.8-16.2,11.4-24.4c4.1-9.3,8.5-18.6,11.6-28.4
		c0.4-1.4,0.8-2.8,1.2-4.3c2.9-3,3.9-9.8,3-15.4c0.6-4.6,1.1-9.2,1.5-13.7C370.5,330.1,370.6,328.7,370.7,327.4z M285.8,471.5
		c-1.1-5.7-2.3-11.4-3.5-17.1c2.3,0.1,4.7,0,7-0.2C288,459.9,287,465.7,285.8,471.5z M311.6,425.1c-22.2,12.5-54.7,8.7-70.8-11.8
		c4.2,0.1,8.4,0.1,12.6,0.1c9.3,0,18.6-0.1,27.9-0.1c14.9,0,29.8-0.1,44.7-0.1C322,417.8,317.3,421.9,311.6,425.1z M340.6,388.6
		c-0.9-0.9-2-1.5-3.3-1.5c-18.6,0.1-37.3,0.1-55.9,0.2c-9.3,0-18.6,0.1-27.9,0.1c-8.7,0-17.5,0.4-26.1-1.7c-0.7-0.2-1.2-0.1-1.8,0.1
		c-1.1-2.1-2.2-4.2-3.2-6.2c-1.7-3.2-3.6-6.4-5.2-9.7c-1.3-2.5-2.3-5.1-3.1-7.9c7.9,0.5,15.9,0.3,23.8,0.3c13.1,0,26.2,0,39.3-0.1
		c25.1,0,50.2-0.1,75.3-0.1C349,371.2,344.7,380,340.6,388.6z"/>
	<path d="M326.8,312.2c-5.7-4.6-8.8-11.5-13-17.4c-1.1-1.6-2.2-3.2-3.2-4.9c-15.9,0-31.8-0.1-47.8-0.2c-0.2,0.3-0.4,0.7-0.5,1
		c-3.4,6.2-7.5,12.1-12.5,17.1c-2,2.8-4.3,5.4-6.8,7.7c29.8,0.3,59.6,0.4,89.5,0.4C330.5,314.9,328.6,313.6,326.8,312.2z"/>
	<path d="M275.6,264.5c-2.5,3.4-4.4,7.1-6.1,10.9c10.7,0,21.5-0.1,32.2-0.2c-0.6-0.9-1.3-1.8-2-2.7c-2.1-2.7-3.8-5.2-4.7-8.5
		c-0.7-2.8-0.8-5.7-1.2-8.6c-3.6,0.2-7.2,0.3-10.8,0.3c-1.1,0-2-0.3-2.8-0.9c-1.1,2.4-2.3,4.7-3.7,6.9
		C276.5,262.6,276.3,263.6,275.6,264.5z"/>
</g>
<g id="Layer_2">
	<path d="M172.5,344.9c-12.3,0-23.1-2.6-32.2-7.8l0,0c-25.2-14.4-27.5-45.7-19-68.6c4.2-11.4,11.9-19.2,19.3-26.8
		c1.3-1.3,28.2-23.9,33.8-26.3c0,0,32.5-16.3,44.2-23.2c7.1-4.1,13.5-8,19.6-11.9c4.9-3.1,7.8-2,10.9-0.4c0.3,0.1,0.6,0.3,1,0.5
		l40.2,19.9l14.4-7.1c2.1-1,4.3-2.2,6.5-3.5c4.8-2.6,9.8-5.3,15-7.1c8.1-2.7,16.1,2.9,22,7.1c1.3,0.9,2.6,1.8,3.7,2.5
		c8.5,5.2,17,10.1,25,14.5c8.7,4.7,53.7,31.5,55.7,33.7c1.4,1.6,2.7,3,4.1,4.4c1.2,1.2,7.8,7.6,9.8,9.8c7.7,8.5,12.3,18.3,13.9,29.9
		c0,0.1,0,0.1,0,0.2c2.5,23.7-8.4,42.9-29.1,51.4c-19.4,7.9-41.1,5-59.8,1.2c-18.9-3.9-35.7-11.9-49.9-23.8
		c-15.2-12.7-27.1-29.8-35-50.1c-4.2,11.9-9.7,22.7-16.4,32.4c-13.6,19.9-32.4,34.7-53,41.8c-11.7,4.1-25.6,6.6-40.2,7.3
		C175.3,344.9,173.9,344.9,172.5,344.9z M244,189.7c-6.2,3.9-12.7,7.9-19.8,12c-12,7-27.9,15.9-44.9,23.5l-0.4,0.2
		c-5.2,2.3-20.1,13-23,16.1c-1.1,1.3-2.3,2.5-3.5,3.8c-1.3,1.4-2.6,2.7-3.9,4.1c-7.2,7.4-13.4,13.7-16.8,22.9
		c-6.9,18.7-5.4,44,14.2,55.3l0,0c8.2,4.7,18.5,6.8,30.5,6.2c13.6-0.6,26.4-2.9,37.2-6.7c18.3-6.3,35.2-19.7,47.5-37.6
		c9-13.2,15.7-28.7,19.9-46.2c0.6-2.5,2.8-4.2,5.3-4.2c0,0,0,0,0,0c2.5,0,4.7,1.7,5.3,4.1c6.6,25.7,19.3,47.1,36.9,61.8
		c12.8,10.7,28,17.9,45.1,21.4c17.1,3.5,36.8,6.2,53.4-0.6c15.9-6.5,24.3-21.4,22.3-40c-1.3-9.3-4.9-17.1-11.1-23.9
		c-1.8-1.9-3.6-3.8-5.6-5.7c-1.3-1.2-2.6-2.5-3.9-3.8c-1.5-1.6-48.3-31.3-57.2-36.2c-8.2-4.5-16.8-9.4-25.5-14.7
		c-1.4-0.8-2.8-1.8-4.3-2.9c-3.7-2.6-9.3-6.6-12.1-5.6c-4.3,1.4-8.8,3.9-13.2,6.3c-2.3,1.2-4.6,2.5-6.9,3.7l-17,8.4
		c-2,1-4.5,0.6-6.1-0.9l-41.2-20.4C244.7,190,244.3,189.8,244,189.7z"/>
</g>
<g id="Layer_4">
</g>
</svg>
