<?xml version="1.0" encoding="utf-8"?>
<!-- Generator: Adobe Illustrator 23.0.1, SVG Export Plug-In . SVG Version: 6.00 Build 0)  -->
<svg version="1.1" id="Layer_3" xmlns="http://www.w3.org/2000/svg" xmlns:xlink="http://www.w3.org/1999/xlink" x="0px" y="0px"
	 viewBox="0 0 566.93 566.93" enable-background="new 0 0 566.93 566.93" xml:space="preserve">
<path d="M541.847,355.332c17.729-48.904-1.246-109.468-55.82-125.1c-52.11-14.925-101.776,10.367-126.884,56.958
	c-25.656,47.613,2.599,114.078,54.366,128.911c51.34,14.703,100.309-9.623,125.757-54.919c0.458-0.661,0.838-1.34,1.12-2.033
	C541.178,357.68,541.649,356.414,541.847,355.332z M384.204,285.533c18.439-45.289,73.696-43.682,107.597-20.391
	c30.662,21.064,36.648,63.45,23.531,95.666C468.173,448.321,350.825,367.51,384.204,285.533z"/>
<path d="M214.379,356.387c17.729-48.906-1.245-109.475-55.825-125.109c-52.107-14.923-101.773,10.368-126.881,56.959
	c-25.656,47.613,2.6,114.079,54.363,128.911c51.348,14.706,100.319-9.622,125.767-54.92c0.457-0.66,0.837-1.338,1.118-2.029
	C213.71,358.732,214.18,357.467,214.379,356.387z M56.734,286.58c18.44-45.288,73.697-43.682,107.593-20.392
	c30.662,21.064,36.651,63.452,23.532,95.666C140.704,449.368,23.356,368.558,56.734,286.58z"/>
<path d="M388.836,197.104c-2.72-6.517-11.409-13.969-13.538-13.805c-29.005,2.173-143.494,5.326-164.333,15.215
	c-19.503,9.257-37.618,32.093-49.751,48.393c-15.21,20.432-50.52,55.39-50.52,72.099s19.75,20.216,26.022,20.949
	c21.966,2.569,123.451,23.023,138.975,7.955c41.797-40.549,75.196-94.386,111.447-140.022
	C389.782,204.556,390.434,200.934,388.836,197.104z M368.215,210.465c-3.896,4.906-88.785,107.748-92.886,117.91
	c-0.75,1.859-22.174,12.577-24.165,12.34c-40.533-4.825-73.827-7.879-114.449-12.75c-3.335-0.4-8.187-13.756-6.25-16.5
	c26.162-37.069,69.004-88.347,73.974-99.601c0.655-1.484,2.084-2.475,3.702-2.596c27.883-2.089,55.762-4.171,83.649-6.259
	c18.251-1.367,36.504-2.734,54.755-4.101C367.478,197.34,375.262,201.597,368.215,210.465z"/>
<path d="M145.962,175.176c25.626-0.39,51.256-0.787,76.879-1.18c11.662-0.177,28.476-23.17,10.326-22.895
	c-25.626,0.39-51.256,0.787-76.879,1.18C144.626,152.458,127.812,175.451,145.962,175.176L145.962,175.176z"/>
<path d="M270.008,336.636c-24.772-57.659-49.544-115.309-74.319-172.961c-5.541-12.89-19.795,4.456-15.206,15.132
	c24.773,57.658,47.523,100.012,72.298,157.664C258.321,349.361,274.597,347.311,270.008,336.636L270.008,336.636z"/>
<path d="M332.756,125.5c9.248,0.361,18.492,0.719,27.739,1.07c4.728,0.185,11.969-0.355,16.452-0.357
	c-4.115,4.041-8.232,8.089-12.346,12.139c-2.324,2.281-6.595,7.563-5.099,11.302c23.106,57.68,32.912,146.21,89.402,180.51
	c10.141,6.166,21.298-6.487,9.674-13.544c-35.243-21.408-40.454-65.728-54.78-101.487c-7.258-18.117-11.405-37.215-18.667-55.333
	c-2.233-5.586-5.933-11.914-8.167-17.5c-1.416-4.736,14.401-11.517,16.417-12c3.989-0.955,4.5-8.417-1.75-8.833
	c-19.794-1.32-20.694-3.488-49.083-4.583C330.807,116.424,314.556,124.795,332.756,125.5L332.756,125.5z"/>
<path fill="none" stroke="#000000" stroke-miterlimit="10" d="M447.758,327.45"/>
<path fill="none" stroke="#000000" stroke-miterlimit="10" d="M380.725,208.062"/>
<path fill="none" stroke="#000000" stroke-miterlimit="10" d="M502.391,174.863"/>
</svg>
