<?xml version="1.0" encoding="utf-8"?>
<!-- Generator: Adobe Illustrator 23.0.1, SVG Export Plug-In . SVG Version: 6.00 Build 0)  -->
<svg version="1.1" id="Layer_1" xmlns="http://www.w3.org/2000/svg" xmlns:xlink="http://www.w3.org/1999/xlink" x="0px" y="0px"
	 viewBox="0 0 566.93 566.93" enable-background="new 0 0 566.93 566.93" xml:space="preserve">
<path d="M148.895,305.336c-0.788-26.793-22.627-48.325-49.84-46.82c-27.272,1.507-47.412,26.359-47.896,52.737
	c-0.498,27.097,23.213,48.851,49.864,47.378c27.272-1.508,47.412-26.36,47.896-52.738
	C148.923,305.7,148.913,305.514,148.895,305.336z M99.053,346.378c-21.224-1.173-37.855-19.6-38.239-40.485
	c-0.401-21.837,19.726-36.257,40.207-35.124c21.224,1.173,37.856,19.598,38.239,40.484
	C138.86,333.053,120.151,347.544,99.053,346.378z"/>
<path d="M525.122,306.526c-0.789-26.793-22.627-48.324-49.84-46.819c-27.272,1.507-47.411,26.359-47.896,52.737
	c-0.499,27.097,23.213,48.851,49.864,47.378c27.272-1.508,47.411-26.36,47.896-52.738C525.15,306.89,525.14,306.705,525.122,306.526
	z M475.28,347.569c-21.224-1.173-37.856-19.6-38.239-40.485c-0.402-21.837,19.726-36.257,40.207-35.124
	c21.224,1.173,37.856,19.598,38.239,40.484C515.087,334.243,496.378,348.734,475.28,347.569z"/>
<path d="M526.447,337.225c6.068-0.349,12.981,0.754,17.431-3.898c4.262-4.455,7.133-10.411,9.526-16.005
	c5.161-12.062,7.075-25.367,7.99-38.353c0.48-6.826,1.785-14.32-2.919-19.903c-2.893-3.431-7.055-6.124-10.996-8.201
	c0.493,1.041,0.987,2.08,1.48,3.119c-0.46-7.097-0.918-14.195-1.378-21.294c-0.364-5.622-5.292-9.559-8.768-13.719
	c-8.568-10.259-17.265-20.414-26.197-30.359c-4.513-5.024-8.631-10.89-15.043-13.508c-12.161-4.965-26.281-5.927-39.207-7.139
	c-19.889-1.866-39.888-2.592-59.852-3.088c-39.299-0.977-78.627-0.625-117.927,0.06c-10.638,0.185-22.059-0.681-32.479,1.761
	c-19.733,4.623-38.587,15.128-56.302,24.633c-14.455,7.757-28.663,16.004-42.624,24.617c-1.192,0.736-2.886,1.072-0.743,0.695
	c-1.051,0.185-2.104,0.373-3.154,0.561c-5.693,1.02-11.382,2.075-17.065,3.148c-18.808,3.55-37.579,7.333-56.236,11.608
	c-15.38,3.524-31.747,6.744-46.095,13.551c-7.253,3.442-10.183,9.935-11.848,17.541c-3.029,13.848-1.829,28.899-1.412,42.945
	c0.1,3.372,0.205,6.742,0.293,10.114c0.08,3.036-0.763,7.696,0.318,10.545c2.205,5.815,5.646,10.441,11.233,13.348
	c6.459,3.36,15.073,3.509,22.045,1.776c4.852-1.205,8.895-13.689,2.269-12.043c-6.105,1.516-13.049,1.043-18.642-1.866
	c-5.697-2.963-7.389-7.913-7.495-13.92c-0.129-7.35-0.429-14.697-0.6-22.046c-0.157-6.736-0.185-13.478,0.118-20.21
	c0.206-4.589,0.217-10.536,2.338-14.748c-0.504,1-0.573,0.737-0.993,1.019c0.808-0.544,1.688-0.982,2.56-1.413
	c2.52-1.243,5.197-2.139,7.866-3.037c33.421-11.238,69.151-16.974,103.762-23.307c2.841-0.52,5.683-1.036,8.528-1.533
	c3.254-0.57,7.033-4.077,9.746-5.716c16.843-10.166,33.997-19.869,51.592-28.678c14.339-7.18,31.092-16.483,47.546-16.721
	c12.217-0.176,24.432-0.448,36.65-0.625c41.277-0.598,82.603-0.761,123.858,0.891c18.182,0.727,36.437,1.735,54.47,4.264
	c6.127,0.86,12.271,1.922,18.21,3.687c5.818,1.73,7.732,3.934,11.526,8.032c12.639,13.655,24.642,27.922,36.486,42.27
	c0.493,0.598,0.986,1.198,1.479,1.797c1.157,1.408,0.176,0.88,0.025-1.454c0.15,2.311,0.3,4.622,0.449,6.933
	c0.345,5.33,0.689,10.659,1.035,15.99c0.193,2.979,2.493,3.631,4.699,5c3.572,2.217,8.103,5.067,8.097,9.637
	c-0.015,11.15-1.187,22.284-3.943,33.096c-1.414,5.549-3.574,10.984-6.568,15.869c-0.986,1.61-0.065,0.185-0.585,0.91
	c-0.41,0.57-0.849,1.12-1.298,1.662c-1.443,1.736,0.571-0.435-0.164,0.223c1.207-0.488,2.412-0.976,3.619-1.464
	c-4.036,0.232-8.07,0.464-12.106,0.695C525.829,325.271,520.859,337.545,526.447,337.225L526.447,337.225z"/>
<path d="M151.912,347.366c33.956,0.745,67.948,1.033,101.909,0.481c18.27-0.298,36.323-1.68,54.529-2.871
	c22.225-1.454,44.586-1.316,66.847-1.228c16.454,0.065,32.912,0.26,49.361,0.641c4.453,0.104,4.322-8.823-0.168-8.927
	c-35.683-0.829-71.496-1.345-107.165,0.118c-17.661,0.724-35.196,2.654-52.887,3.116c-22.93,0.598-45.878,0.547-68.814,0.363
	c-14.593-0.117-29.189-0.3-43.779-0.62C147.291,338.341,147.424,347.269,151.912,347.366L151.912,347.366z"/>
<path d="M163.092,248.168c57.973-4.316,115.948-8.631,173.922-12.945c20.464-1.524,40.799-4.504,61.162-7.008
	c16.874-2.074,33.747-4.149,50.62-6.223c5.508-0.677,10.983-0.511,12.213-7.027c2.999-15.899-22.074-22.058-32.652-24.582
	c-25.102-5.989-51.56-6.792-77.237-7.165c-31.53-0.458-63.241,1.064-94.314,6.696c-25.763,4.668-52.498,12.392-74.213,27.544
	c-6.046,4.218-11.726,9.046-16.353,14.817c-2.038,2.543-11.287,18.112-2.368,15.825c3.227-0.827,5.912-9.158,1.513-8.029
	c2.293-0.588,0.211,3.168,1.316,1.085c0.308-0.582,0.649-1.147,0.997-1.706c0.551-0.888,1.367-1.997,2.675-3.569
	c2.837-3.409,6.208-6.361,9.812-9.166c12.004-9.344,26.472-15.492,40.811-20.226c24.562-8.108,50.513-11.856,76.23-13.778
	c32.7-2.443,66.023-2.126,98.656,1.17c12.575,1.27,25.226,3.148,37.352,6.804c6.118,1.844,12.429,4.394,17.387,8.525
	c1.233,1.026,2.286,2.303,3.124,3.667c0.596,0.969,0.31,0.438,0.617,1.268c0.139,0.376,0.506,2.22,0.348,1.06
	c0.06,0.431,0.071,0.868,0.06,1.302c-0.014,0.543,0.188-0.963-0.064,0.267c-0.192,0.935,0.4-1.204,0.096-0.33
	c-0.156,0.445-0.546,1.148,0.392-0.782c1.025-0.892,2.051-1.784,3.077-2.675c-47.799,5.877-94.038,12.274-140.303,15.717
	c-50.601,3.767-101.203,7.533-151.804,11.3C162.689,240.258,159.403,248.442,163.092,248.168z"/>
<path d="M218.881,239.272c-0.398-6.605-0.679-13.406,0.069-19.992c0.095-0.838,0.225-1.672,0.4-2.498
	c0.096-0.455,0.129-0.536,0.171-0.67c0.182-0.575,0.095-0.316,0.132-0.389c0.018-0.033-0.727,0.504-0.626,0.521
	c0.033,0.005,0.642,0.581,0.947,0.991c1.648,2.211,2.604,5.003,3.568,7.553c1.948,5.158,3.522,10.459,5.054,15.75
	c0.632,2.187,3.562-1.062,3.099-2.662c-1.637-5.655-3.341-11.306-5.455-16.804c-0.988-2.568-2.039-5.378-3.765-7.561
	c-2.959-3.746-5.63,1.307-6.254,4.068c-1.687,7.479-1.017,15.877-0.558,23.481C215.821,243.713,218.983,240.976,218.881,239.272
	L218.881,239.272z"/>
<path d="M351.233,190.21c-0.662,12.799-1.323,25.598-1.985,38.398c-0.021,0.392,0.15,0.829,0.493,1.041
	c4.441,2.741,6.663,8.556,7.826,13.322c1.467,6.008,0.41,12.049,0.475,18.118c0.07,6.345-0.744,12.683-1.743,18.936
	c-2.56,16.048-7.095,32.055-12.811,47.269c-1.048,2.788,2.026,2.403,2.83,0.263c4.104-10.925,7.364-22.22,10.103-33.557
	c2.259-9.343,3.91-18.829,4.623-28.419c0.675-9.102,1.5-18.963-1.06-27.83c-1.231-4.266-3.621-8.266-6.97-11.188
	c-1.643-1.435-0.576,0.76-0.513-0.468c0.102-1.982,0.205-3.966,0.307-5.948c0.547-10.575,1.093-21.15,1.639-31.725
	C354.585,185.814,351.318,188.55,351.233,190.21L351.233,190.21z"/>
<path d="M321.123,251.083c9.057-4.154,19.759,1.844,28.971-2.381c1.56-0.716,2.361-4.792-0.063-3.681
	c-9.057,4.154-19.758-1.843-28.971,2.381C319.5,248.118,318.699,252.195,321.123,251.083L321.123,251.083z"/>
</svg>
