<?xml version="1.0" encoding="utf-8"?>
<!-- Generator: Adobe Illustrator 23.0.1, SVG Export Plug-In . SVG Version: 6.00 Build 0)  -->
<svg version="1.1" id="Layer_1" xmlns="http://www.w3.org/2000/svg" xmlns:xlink="http://www.w3.org/1999/xlink" x="0px" y="0px"
	 viewBox="0 0 566.93 566.93" enable-background="new 0 0 566.93 566.93" xml:space="preserve">
<g id="Layer_3">
	<path d="M558.341,155.601c2.385-3.138,2.593-6.924,2.624-10.694c0.157-19.226,0-38.459,0-57.686V66.965c0-2.837-0.873-10-5-10
		h-43.864c-4.13,0-5,7.304-5,10v28.6h-15.214c0.217-9.533,0.433-19.067,0.65-28.6c0.064-2.835-0.919-10-5-10h-38.6
		c-4.13,0-5,7.304-5,10v28.6h-18.073v-28.6c0-2.837-0.873-10-5-10h-41.232c-4.13,0-5,7.304-5,10v78.476c0,1.616-0.049,3.241,0,4.857
		c0.193,6.347,2.516,8.681,6.512,12.563c6.279,6.1,12.558,12.199,18.837,18.299c-0.642,8.56-1.285,17.121-1.927,25.681
		c-1.88,25.061-3.761,50.122-5.641,75.183h-50.372c-4.13,0-5,7.303-5,10v23.801h-21.099v-23.801c0-2.837-0.873-10-5-10h-47.497
		c-4.13,0-5,7.303-5,10v23.801h-19.968v-23.801c0-2.837-0.873-10-5-10h-53.952c-1.559-22.726-3.118-45.452-4.677-68.179
		c-0.79-11.52-1.182-23.171-2.174-34.708c4.509-5.177,9.019-10.355,13.528-15.533c2.306-2.648,4.845-5.207,6.971-8.003
		c2.385-3.138,2.593-6.924,2.624-10.694c0.157-19.226,0-38.459,0-57.686V66.965c0-2.837-0.873-10-5-10h-43.864c-4.13,0-5,7.304-5,10
		v28.6h-15.214c0.217-9.533,0.433-19.067,0.65-28.6c0.064-2.835-0.919-10-5-10h-38.6c-4.13,0-5,7.304-5,10v28.6h-18.07v-28.6
		c0-2.837-0.873-10-5-10H14.467c-4.13,0-5,7.304-5,10v78.476c0,1.616-0.049,3.241,0,4.857c0.193,6.347,2.516,8.681,6.512,12.563
		c6.279,6.1,12.558,12.199,18.838,18.299c-0.642,8.56-1.285,17.121-1.927,25.681c-2.05,27.328-4.101,54.656-6.151,81.984
		c-2.482,33.083-4.964,66.166-7.447,99.249c-2.157,28.754-4.315,57.508-6.472,86.263c-1.008,13.433-2.044,26.864-3.024,40.299
		c-1.487,5.925,0.053,14.659,4.672,14.659H248.18c4.13,0,5-7.304,5-10v-83.731c0-1.531,0.106-3.129,0.092-4.697
		c0.125-0.263,0.25-0.525,0.386-0.785c0.086-0.164,0.107-0.23,0.099-0.247c0.084-0.092,0.206-0.232,0.391-0.452
		c1.485-1.761,2.642-2.951,4.446-4.142c6.026-3.981,13.234-5.414,20.329-5.947c12.995-0.977,30.63-0.012,39.818,10.322
		c0.578,0.65,1.104,1.332,1.622,2.03c0.031,0.042,0.055,0.072,0.076,0.1c0.045,0.091,0.112,0.221,0.206,0.396v87.154
		c0,2.837,0.873,10,5,10h230.32c5.173,0,5.024-9.699,4.821-12.658c-0.785-11.444-1.57-22.889-2.355-34.333
		c-1.885-27.484-3.771-54.968-5.656-82.453c-2.281-33.253-4.562-66.505-6.843-99.758c-1.972-28.749-3.944-57.499-5.916-86.248
		c-0.79-11.52-1.182-23.171-2.174-34.708c4.509-5.177,9.019-10.355,13.528-15.533C553.676,160.957,556.215,158.398,558.341,155.601z
		 M550.965,141.005c-3.337,3.832-6.675,7.664-10.012,11.496c-4.027,4.623-10.203,9.665-12.601,15.432
		c-2.093,5.035-0.584,13.247-0.207,18.748c1.681,24.501,3.361,49.003,5.042,73.504c2.481,36.168,4.962,72.336,7.443,108.504
		c2.322,33.845,4.643,67.69,6.965,101.535c0.887,12.935,1.256,26.075,2.307,39.072H375.359h-44.714v-76.95
		c0-5.632-0.667-10.647-3.649-15.556c-7.036-11.583-20.461-16.146-33.356-17.368c-14.498-1.374-33.469-0.144-43.77,11.753
		c-9.692,11.195-6.69,28.466-6.69,42.031v56.09h-58.444H20.238c0.724-9.654,1.449-19.308,2.173-28.962
		c2.418-32.225,4.836-64.45,7.253-96.674c2.749-36.635,5.497-73.269,8.246-109.904c1.994-26.575,3.988-53.15,5.982-79.726
		c0.388-5.165,0.788-10.33,1.163-15.497c0.495-6.832-1.043-10.612-5.517-14.958c-6.081-5.908-12.162-11.815-18.244-17.722
		l-1.828-1.775V76.965h31.232v28.6c0,2.837,0.873,10,5,10h28.073c4.13,0,5-7.304,5-10v-28.6h28.373
		c-0.217,9.533-0.433,19.067-0.65,28.6c-0.064,2.834,0.919,10,5,10h25.441c4.13,0,5-7.304,5-10v-28.6h33.864v64.04
		c-3.337,3.832-6.675,7.664-10.012,11.495c-4.027,4.623-10.203,9.665-12.601,15.432c-2.093,5.035-0.584,13.247-0.207,18.748
		c1.681,24.501,3.361,49.003,5.042,73.504c0.747,10.889,1.494,21.778,2.241,32.667c0.19,3.058,0.575,9.172,0.575,9.172h10.061h47.58
		v23.801c0,2.837,0.873,10,5,10h29.968c4.13,0,5-7.304,5-10v-23.801h37.497v23.801c0,2.837,0.873,10,5,10h31.099
		c4.13,0,5-7.304,5-10v-23.801h43.872c2.27,0,6.654-0.005,10.058,0.044c0.272-3.227,0.929-9.763,0.837-11.416
		c0.423-5.632,0.845-11.264,1.268-16.896c1.994-26.575,3.988-53.15,5.982-79.726c0.388-5.165,0.788-10.33,1.163-15.497
		c0.495-6.832-1.043-10.612-5.517-14.958c-6.081-5.908-12.162-11.815-18.244-17.722c-0.609-0.592-1.218-1.184-1.828-1.775V76.965
		h31.232v28.6c0,2.837,0.873,10,5,10h28.073c4.13,0,5-7.304,5-10v-28.6h28.373c-0.217,9.533-0.433,19.067-0.65,28.6
		c-0.064,2.834,0.919,10,5,10h25.441c4.13,0,5-7.304,5-10v-28.6h33.864L550.965,141.005L550.965,141.005z"/>
	<path d="M-116.035,604.965"/>
</g>
</svg>
