<?xml version="1.0" encoding="utf-8"?>
<!-- Generator: Adobe Illustrator 23.0.1, SVG Export Plug-In . SVG Version: 6.00 Build 0)  -->
<svg version="1.1" id="Layer_1" xmlns="http://www.w3.org/2000/svg" xmlns:xlink="http://www.w3.org/1999/xlink" x="0px" y="0px"
	 viewBox="0 0 566.9 566.9" style="enable-background:new 0 0 566.9 566.9;" xml:space="preserve">
<g id="Layer_4">
	<g>
		<path d="M249.9,150.6c-19.5,0-19.5,0-44.2,0c0.5-18.1,0-60,0-66.3s-24.1-6.6-24.1,0s0,66.3,0,66.3s-29.2,0-46.7,0
			c-8.5-1.1-9.6,24.7,0,24.7s46.7,0,46.7,0s-1.8,68,0,99c0.2,3.8,24.3,3.6,24.1,0c-1.7-29.8,0-99,0-99s19.5,0.8,44.2,0
			C259.2,175,259,150.2,249.9,150.6z"/>
		<path d="M464.2,534.5c6.3-39.6-3.6-148.6-0.1-189.6c0.2-1.9-154.1-60.5-171.1-65.4c-0.7-13.7-1.6-27.4-2.2-41.1
			c-1.1-25.4,1.9-50.4,5.6-75.5c0.1,0.1,0.1,0.2,0.2,0.3c0,2.1,12.4,13.5,17.5,17.4c2.2,1.7,4.3-17.3,2.1-19
			c-4.1-3.2-98.3-122-118.3-140.2c-1.1-1-2-1.1-3.1,0c-10.3,9.9-135,157.1-137.9,159.3c-2.2,1.7,6.4,12.9,8.6,11.2
			c5.2-4,20.2-22,21.3-23c2.6,11-9.9,378.8,0.2,378.8s347.9,0,371.2,0C479.2,547.7,476.8,538.4,464.2,534.5z M150.1,528.7
			c2-20.2-12.9-148.7,35.8-148.7s37.6,84.7,37.6,148.1C215.1,528.2,166.3,528.4,150.1,528.7z M244.5,528.6c-2.4,0-4.8-0.1-7.2-0.2
			c0-95.1-5.2-161.4-50.3-161.4s-49.3,82.4-49.3,161.8c-7.5,0.2-44,0-44,0s8.1-346,6.6-373c5.1-5.1,9.5-10.8,13.7-16.8
			c8.3-11.6,16.4-23,26.1-33.5c10.1-10.8,20.5-21.2,29.6-33c8.5-10.9,16.4-22.2,26.3-32c18,19.5,81,104,89.8,114
			c-3.6,23.7-7,47.4-6.9,71.4c0.1,25,3,49.8,3.4,74.8c0.8,49.1-2.8,98.2-4.6,147.3c-0.9,25.4-1.4,54.5-0.6,79.9
			C271.8,528.4,252.1,528.7,244.5,528.6z M288.8,528.2c-1.5-46.3,1.3-96.2,3.4-142.4c1.1-24.5,2-49.1,1.9-73.6
			c0-6.7-0.2-3.9-0.4-10.5c15.9,4.2,150.9,57.4,150.9,57.4s6.3,149.7-2,169.7C431.5,528.7,290.1,528.1,288.8,528.2z"/>
	</g>
	<g>
		<g>
			<path d="M-46,551.4c89.1-1.5,178.1-2.5,267.2-3c89.4-0.6,178.8-0.6,268.2-0.3c50.2,0.2,100.4,0.6,150.6,1.1
				c4.6,0-1.3-14-5.9-14.1c-89.1-0.9-178.2-1.3-267.2-1.3c-89.4,0-178.8,0.5-268.2,1.5c-50.2,0.5-100.4,1.2-150.6,2
				C-56.6,537.4-50.6,551.5-46,551.4L-46,551.4z"/>
		</g>
	</g>
</g>
</svg>
