<?xml version="1.0" encoding="utf-8"?>
<!-- Generator: Adobe Illustrator 23.0.1, SVG Export Plug-In . SVG Version: 6.00 Build 0)  -->
<svg version="1.1" id="Layer_3" xmlns="http://www.w3.org/2000/svg" xmlns:xlink="http://www.w3.org/1999/xlink" x="0px" y="0px"
	 viewBox="0 0 566.93 566.93" enable-background="new 0 0 566.93 566.93" xml:space="preserve">
<g>
	<path d="M248.15,456.2c-1.006,1.791-2.964,3.082-5.514,2.586c-4.048-0.786-8.14-1.14-12.246-1.336
		c-0.532,0.103-1.064,0.215-1.595,0.336c-1.433,0.327-2.674,0.073-3.667-0.526c-3.557-0.087-7.118-0.13-10.663-0.295
		c-2.288-0.107-3.815-1.368-4.474-2.99c-1.839-0.178-3.684-0.311-5.526-0.51c-3.454-0.373-5.084-3.314-4.767-5.912h-26.915V264.824
		h4.459c1.888,0,4.293,0.032,4.343-2.46l0.519-25.933h49.327c0.031,0.575,0.051,1.163,0.051,1.781v15.045
		c0,2.248,1.973,4.417,4.541,6.145v132.314c5.816-2.167,11.703-3.643,17.942-4.251c0.251-0.024,0.49-0.023,0.723-0.01
		c0.048-0.019,0.099-0.031,0.148-0.049V260.661c0-2.248-1.973-4.417-4.541-6.145v-8.9c0-4.314-0.785-7.435-1.989-11.644
		c-1.492-5.215-9.177-9.863-14.47-9.863h-66.152c-0.269,0-0.524,0.012-0.769,0.031c-2.082-0.051-3.538,0.644-3.573,2.429
		l-0.519,25.933h-4.508c-1.844,0-4.343-0.034-4.343,2.46v195.052c0,5.141,10.318,9.863,14.47,9.863h82.053
		c1.844,0,4.343,0.034,4.343-2.46v-1.278C252.613,456.185,250.383,456.19,248.15,456.2z"/>
	<path d="M94.44,454.284c-3.698-0.001-7.431,0.238-11.144,0.55v3.821H27.542V293.718h3.655c1.888,0,4.293,0.032,4.343-2.46
		c0.156-7.78,0.311-15.561,0.467-23.341h43.145c0.005,0.226,0.016,0.444,0.016,0.676v13.712c0,2.126,1.766,4.179,4.129,5.857v85.586
		c0.5-0.496,1.011-0.981,1.528-1.458c0.198-0.233,0.398-0.466,0.594-0.7c-0.047-1.2,0.382-2.438,1.511-3.494
		c2.906-2.72-0.807-4.842,2.658-6.663c0.353-0.234,0.704-0.416,1.049-0.539c1.467-0.739,2.964-1.426,4.472-2.092v-69.092
		c0-2.126-1.766-4.179-4.129-5.857v-7.855c0-3.893,1.278-6.746,0.194-10.54c-1.49-5.215-4.178-9.863-9.47-9.863H21.586
		c-0.269,0-0.523,0.012-0.769,0.031c-2.083-0.051-3.538,0.644-3.574,2.429c-0.156,7.78-0.311,15.561-0.467,23.341h-3.704
		c-1.844,0-4.343-0.034-4.343,2.46v177.26c0,5.141,10.318,9.863,14.47,9.863h74.568c1.844,0,4.343,0.034,4.343-2.46V453.92
		C99.632,454.338,97.081,454.285,94.44,454.284z"/>
</g>
<path d="M275.965,390.715c0.46,0,0.891,0.081,1.307,0.197v-97.823h0.397c4.477,0,7.535-10.467,7.6-13.698
	c0.081-4.034,0.162-8.068,0.243-12.102h51.186c0.368,1.377,0.737,2.757,1.193,4.098c-0.009,1.101,0,2.203,0,3.304v13.284
	c0,1.724,0.142,3.567,2.222,3.567h1.906v40.207c0.552-0.5,1.204-0.895,1.952-1.105c2.593-0.729,5.222-0.73,7.87-0.789v-52.011
	c0-1.724-0.142-3.567-2.222-3.567h-1.906v-10.576c0-4.242-0.715-7.622-1.891-11.733c-0.379-1.326-0.718-1.944-2.139-1.944h-60.117
	c-2.273,0-4.76,3.662-6.246,7.612c-0.817,2.054-1.317,4.215-1.354,6.086c-0.081,4.034-0.162,8.068-0.243,12.102h-0.672
	c-4.432,0-7.6,10.472-7.6,13.698v101.65c0.633-0.29,1.319-0.457,2.015-0.457H275.965z"/>
<path d="M337.89,271.384c-0.323-1.044,0.014-1.661,0-0.002C337.89,271.383,337.89,271.383,337.89,271.384z"/>
<path d="M198.829,293.059c-6.485,0-12.969,0-19.454,0c0.54,0.518,1.079,1.035,1.619,1.553c0-3.115,0-6.229,0-9.343
	c0-2.259,0-4.519,0-6.778c0-0.436-0.184-3.106-0.061-3.229c0.103-0.103,2.535,0.064,2.944,0.064c2.227,0,4.455,0,6.682,0
	c3.242,0,6.485,0,9.727,0c-0.54-0.518-1.079-1.035-1.619-1.553c0,6.485,0,12.969,0,19.454c0,0.686,1.78,1.867,1.78,1.385
	c0-6.485,0-12.969,0-19.454c0-0.678-0.96-1.553-1.619-1.553c-6.485,0-12.969,0-19.454,0c-0.094,0.018-0.147,0.073-0.161,0.168
	c0,6.485,0,12.969,0,19.454c0,0.678,0.96,1.553,1.619,1.553c6.485,0,12.969,0,19.454,0
	C200.73,294.78,199.53,293.059,198.829,293.059z"/>
<path d="M229.702,294.919h-21.454v-21.454h21.454V294.919z M210.248,292.919h17.454v-17.454h-17.454V292.919z"/>
<path d="M200.558,323.153h-21.455v-21.454h21.455V323.153z M181.104,321.153h17.455v-17.454h-17.455V321.153z"/>
<path d="M200.558,351.387h-21.455v-21.454h21.455V351.387z M181.104,349.387h17.455v-17.454h-17.455V349.387z"/>
<path d="M229.702,323.153h-21.454v-21.454h21.454V323.153z M210.248,321.153h17.454v-17.454h-17.454V321.153z"/>
<path d="M229.702,351.387h-21.454v-21.454h21.454V351.387z M210.248,349.387h17.454v-17.454h-17.454V349.387z"/>
<path d="M50.903,317.559c-6.485,0-12.969,0-19.454,0c0.54,0.518,1.079,1.035,1.619,1.553c0-3.115,0-6.229,0-9.343
	c0-2.259,0-4.519,0-6.778c0-0.436-0.184-3.106-0.061-3.229c0.103-0.103,2.535,0.064,2.944,0.064c2.227,0,4.455,0,6.682,0
	c3.242,0,6.485,0,9.727,0c-0.54-0.518-1.079-1.035-1.619-1.553c0,6.485,0,12.969,0,19.454c0,0.686,1.78,1.867,1.78,1.385
	c0-6.485,0-12.969,0-19.454c0-0.678-0.96-1.553-1.619-1.553c-6.485,0-12.969,0-19.454,0c-0.094,0.018-0.147,0.073-0.161,0.168
	c0,6.485,0,12.969,0,19.454c0,0.678,0.96,1.553,1.619,1.553c6.485,0,12.969,0,19.454,0C52.804,319.28,51.604,317.559,50.903,317.559
	z"/>
<path d="M81.776,319.419H60.322v-21.454h21.454V319.419z M62.322,317.419h17.454v-17.454H62.322V317.419z"/>
<path d="M52.632,347.653H31.177v-21.454h21.454V347.653z M33.177,345.653h17.454v-17.454H33.177V345.653z"/>
<path d="M52.632,375.887H31.177v-21.454h21.454V375.887z M33.177,373.887h17.454v-17.454H33.177V373.887z"/>
<path d="M52.632,404.12H31.177v-21.454h21.454V404.12z M33.177,402.12h17.454v-17.454H33.177V402.12z"/>
<path d="M81.776,347.653H60.322v-21.454h21.454V347.653z M62.322,345.653h17.454v-17.454H62.322V345.653z"/>
<path d="M139.082,341.642c-1.733,0-3.466,0-5.198,0c-2.236-3.449-5.448-6.233-9.111-6.233c-10.717,0-21.434,0-32.152,0
	c-3.096,0-3.882,3.119-3.882,5.429c0,0.941,0,1.881,0,2.822c-3.786,0-7.572,0-11.358,0c-3.096,0-3.882,3.119-3.882,5.429
	c0,1.526,0,3.052,0,4.577c-1.184,0-2.368,0-3.552,0c-3.115,0-3.855,3.12-3.882,5.429c-0.325,28.428-0.651,56.857-0.976,85.285
	c-0.046,4.043-0.093,8.086-0.139,12.129c-0.06,5.273,3.748,11.516,8.388,14.361c0.317,0.194,0.627,0.356,0.934,0.501
	c1.002,0.526,2.027,0.833,3.044,0.833c23.416,0,46.833,0,70.249,0c3.096,0,3.882-3.119,3.882-5.429c0-31.944,0-63.888,0-95.832
	c0-4.535,0-9.071,0-13.606C151.448,351.739,146.068,341.642,139.082,341.642z M89.747,369.361c0-1.526,0-3.052,0-4.577
	c3.786,0,7.572,0,11.358,0c3.096,0,3.882-3.119,3.882-5.429c0-0.941,0-1.881,0-2.822c6.386,0,12.773,0,19.159,0
	c2.236,3.449,5.448,6.233,9.111,6.233c0.648,0,1.296,0,1.944,0c0,26.712,0,53.425,0,80.137c0,2.726,0,5.452,0,8.178
	c-17.941,0-35.882,0-53.822,0c0.265-23.197,0.531-46.393,0.796-69.59c0.026-2.233,0.051-4.467,0.077-6.7c1.205,0,2.41,0,3.614,0
	C88.962,374.789,89.747,371.67,89.747,369.361z"/>
<path d="M280.838,378.566c-26.153,0-52.306,0-78.459,0c-3.777,0-7.554,0-11.332,0c-1.185,0-2.753,1.012-2.753,2.343
	c0,1.225,0,2.451,0,3.676c0,24.383,0,48.765,0,73.148c0,5.863,8.001,10.472,13.199,10.472c26.153,0,52.306,0,78.459,0
	c3.777,0,7.554,0,11.332,0c1.185,0,2.753-1.012,2.753-2.343c0-25.608,0-51.216,0-76.824
	C294.037,383.175,286.036,378.566,280.838,378.566z M204.246,392.714c0-0.444,0-0.889,0-1.333c24.613,0,49.226,0,73.839,0
	c0,21.336,0,42.673,0,64.009c-24.613,0-49.226,0-73.839,0C204.246,434.498,204.246,413.606,204.246,392.714z"/>
<g>
	<path d="M519.524,336.556c-0.811-2.643-2.667-5.346-4.967-7.396c0-0.331,0-0.662,0-0.993c0-5.889-7.027-13.548-12.984-13.548
		c-4.195,0-8.39,0-12.585,0c-2.565-3.813-6.816-6.967-10.636-6.967c-14.363,0-28.727,0-43.09,0c-1.821,0-2.267,1.317-2.105,2.965
		c-0.003,0.066-0.015,0.121-0.017,0.19c-0.065,3.249-0.13,6.498-0.194,9.746c-0.862,0-1.724,0-2.586,0
		c-1.573,0-2.122,2.006-2.122,3.155c0,3.764,0,7.529,0,11.293c-1.443,0-2.887,0-4.33,0c-1.573,0-2.122,2.006-2.122,3.155
		c0,34.547,0,69.093,0,103.64c0,4.844,0,9.689,0,14.533c0,5.889,7.027,13.548,12.984,13.548c25.915,0,51.831,0,77.746,0
		c3.671,0,7.342,0,11.013,0c1.573,0,2.121-2.006,2.121-3.155c0-33.726,0-67.451,0-101.177c0-6.095,0-12.191,0-18.286
		C525.652,343.625,522.973,339.322,519.524,336.556z M510.547,453.175c-24.551,0-49.103,0-73.654,0c0-30.031,0-60.061,0-90.092
		c0-3.793,0-7.585,0-11.378c1.443,0,2.887,0,4.33,0c1.573,0,2.122-2.006,2.122-3.155c0-3.764,0-7.529,0-11.293
		c0.841,0,1.682,0,2.523,0c1.592,0,2.099-2.006,2.121-3.155c0.065-3.249,0.13-6.498,0.194-9.746c10.132,0,20.264,0,30.396,0
		c2.565,3.813,6.816,6.967,10.636,6.967c3.536,0,7.073,0,10.609,0c0.805,2.856,2.869,5.805,5.403,7.95
		c0.785,2.833,2.816,5.765,5.319,7.914c0,27.695,0,55.39,0,83.085C510.547,437.905,510.547,445.54,510.547,453.175z"/>
	<path d="M406.985,345.283c0-1.54,0-3.081,0-4.621c0-2.551-3.143-4.731-6.708-6.258c0-1.655,0-3.31,0-4.965
		c0-5.017-12.149-8.601-15.777-8.601c-22.104,0-44.208,0-66.312,0c-1.967,0-4.048,0.133-4.048,2.499c0,2.908,0,5.816,0,8.724
		c-0.629,0-1.257,0-1.886,0c-1.967,0-4.048,0.133-4.048,2.499c0,3.438,0,6.876,0,10.315c-0.307,0.011-0.614,0.025-0.92,0.034
		c-0.916,0.026-1.836,0.058-2.752,0.053c-0.24-0.001-0.465-0.014-0.68-0.03c0.05,0.013,0.099,0.025,0.152,0.038
		c-0.137-0.021-0.296-0.043-0.465-0.066c-0.135-0.015-0.261-0.031-0.378-0.049c-2.152-0.262-5.816-0.409-5.407,2.349
		c0.004,0.03,0.009,0.061,0.013,0.091c0.049,0.329,0.161,0.647,0.298,0.961c0.663,3.028-0.103,7.499-0.088,10.253
		c0.047,8.826,0.039,17.653,0.029,26.479c-0.024,19.622-0.098,39.243-0.187,58.865c-0.02,4.52-0.041,9.039-0.065,13.559
		c-0.026,5.01,12.169,8.601,15.777,8.601c29.198,0,58.397,0,87.595,0c4.129,0,8.259,0,12.388,0c0.299,0,0.576-0.017,0.841-0.041
		c1.917-0.135,3.207-0.873,3.207-2.458c0-32.301,0-64.601,0-96.902c0-4.564,0-9.127,0-13.691
		C417.564,349.453,411.766,346.672,406.985,345.283z M325.838,355.714c1.542-0.08,2.193-1.07,2.193-2.409c0-3.381,0-6.763,0-10.144
		c0.629,0,1.257,0,1.886,0c1.967,0,4.048-0.133,4.048-2.499c0-2.908,0-5.816,0-8.724c15.496,0,30.991,0,46.487,0
		c0,0.874,0,1.748,0,2.622c0,2.551,3.143,4.731,6.708,6.258c0,2,0,4,0,5.999c0,3.466,5.798,6.247,10.579,7.636
		c0,29.755,0,59.51,0,89.266c0,3.731,0,7.461,0,11.192c-26.704,0-53.408,0-80.112,0c0.167-30.511,0.358-61.026,0.169-91.536
		c-0.015-2.4,0.101-4.877-0.036-7.293C320.46,356.064,323.173,355.852,325.838,355.714z M317.338,353.391
		c-0.026-0.076-0.049-0.153-0.077-0.228c0.081,0.057,0.162,0.113,0.243,0.169C317.448,353.352,317.393,353.372,317.338,353.391z
		 M310.473,344.791C311.698,344.728,311.262,344.757,310.473,344.791L310.473,344.791z"/>
	<path d="M303.853,344.932c-1.993-0.499-1.785-0.244-0.691-0.077c0.133,0.016,0.257,0.032,0.378,0.049
		C303.64,344.915,303.745,344.923,303.853,344.932z"/>
</g>
<g>
	<path d="M81.364,368.212c0.38,0.474,0.674,1.037,0.871,1.674v-10.559C81.668,362.322,81.243,365.316,81.364,368.212z"/>
	<path d="M160.976,290.939l0.472-47.261c0.024-2.371-3.932-6.318-6.312-6.258c-4.691,0.119-9.382,0.237-14.073,0.356v-47.25
		c0-2.419-3.905-6.258-6.312-6.258H93.727c-1.218,0-1.629,0.434-1.629,1.643v21.578H75.924c-1.218,0-1.629,0.434-1.629,1.643v56.99
		c1.069-0.48,2.299-0.629,3.44-0.39c0.566-1.057,1.505-1.889,2.901-2.257c0.499-0.132,1.045-0.167,1.599-0.124v-47.961h16.174
		c1.218,0,1.629-0.434,1.629-1.643V192.17h33.084v47.409c0,2.375,3.914,6.318,6.312,6.258c4.669-0.118,9.339-0.236,14.009-0.354
		c-0.299,29.975-0.599,59.951-0.898,89.926c-0.273,27.396,0.344,54.814,0.582,82.209c0.122,13.979,0.243,27.958,0.365,41.936
		c-23.752-0.309-47.505-0.619-71.257-0.928v-76.61c-0.851,0.016-1.717-0.054-2.599-0.23c-2.356-0.469-3.458-2.104-3.589-3.904
		c-0.617-0.137-1.214-0.385-1.753-0.724v83.029c0,2.442,3.9,6.226,6.312,6.258c26.404,0.344,52.808,0.688,79.213,1.032
		c1.211,0.016,1.64-0.446,1.629-1.643c-0.283-32.554-0.567-65.109-0.85-97.663C160.374,342.422,160.719,316.689,160.976,290.939z"/>
	<path d="M434.298,462.298c0.052-0.907,0.11-1.816,0.164-2.724c-18.768-0.245-37.536-0.49-56.303-0.734
		c-0.367,1.496-1.436,2.835-3.365,3.447c-3.803,1.207-7.529,2.516-11.314,3.597c24.715,0.322,49.43,0.645,74.146,0.967
		C435.717,466.197,434.166,464.615,434.298,462.298z"/>
	<path d="M196.337,405.987v15.795c0.084-0.856,0.346-1.59,0.746-2.191c-0.01-3.647,0.071-7.294,0.305-10.938
		c0.035-0.549,0.079-1.096,0.117-1.645C197.059,406.76,196.666,406.417,196.337,405.987z"/>
	<path d="M329.965,458.465c-1.583,0.017-2.821-0.684-3.656-1.72c-3.335,1.216-6.762,2.128-10.344,2.22
		c-4.232,0.109-5.676-4.162-4.352-7.157H203.89v-5.734c-2.297,0.238-4.874-0.912-5.746-3.446c-1.167-3.391-1.634-6.854-1.806-10.352
		v21.11c0,2.945,3.514,6.774,6.492,6.774h129.568c0.69,2.441,3.455,5.364,5.839,5.395c2.889,0.038,5.778,0.075,8.667,0.113
		c0.686-1.769,1.408-3.518,2.191-5.233c-0.001-1.176,0.382-2.363,1.202-3.336C343.529,457.621,336.767,458.391,329.965,458.465z"/>
	<path d="M541.046,146.748h-82.369c0.048-4.845,0.097-9.69,0.145-14.535c0.025-2.476-3.29-6.536-6.005-6.467
		c-8.216,0.208-16.432,0.416-24.647,0.624V52.285c0-2.527-3.262-6.467-6.005-6.467h-61.692c-0.48,0-1.47,0.067-1.47,0.828V80.74
		h-25.302c-0.48,0-1.47,0.067-1.47,0.828v106.035h-24.525v-6.51c0-2.945-3.514-6.774-6.492-6.774h-82.166
		c-0.483,0-0.736,0.237-0.836,0.608c-0.135,0.23-0.216,0.547-0.224,0.969c-0.153,7.675-0.306,15.349-0.459,23.024h-7.826
		c-0.787,0-1.061,1.003-1.061,1.578v25.974h-11.243c-0.787,0-1.061,1.003-1.061,1.578v6.808c2.763-0.209,5.534-0.302,8.294-0.56
		c0.839-0.078,1.626,0.132,2.317,0.525h8.184c0.787,0,1.061-1.003,1.061-1.578v-25.974h7.794c0.796,0,1.049-1.003,1.061-1.578
		c0.153-7.675,0.306-15.349,0.459-23.024h74.645v6.51c0,2.945,3.514,6.774,6.492,6.774h37.788v14.383
		c0,2.945,3.514,6.774,6.492,6.774h3.84v8.477c0,2.945,3.514,6.774,6.492,6.774h4.329v95.765c2.535-0.32,5.054-0.783,7.549-1.484
		c0.001,0,0.002,0,0.003-0.001v-95.858c0-2.945-3.514-6.774-6.492-6.774h-4.329v-8.477c0-2.945-3.514-6.774-6.492-6.774h-3.84
		v-14.383c0-2.945-3.514-6.774-6.492-6.774h-5.788V92.979c0-1.063,0.505-3.847,0.052-4.944h25.249c0.48,0,1.47-0.067,1.47-0.828
		V53.112h54.218v74.237c0,2.476,3.273,6.536,6.005,6.467c8.194-0.207,16.388-0.415,24.581-0.622
		c-0.045,4.518-0.09,9.036-0.135,13.553h-6.858c-1.16,0-1.867,0.343-2.253,0.885c-0.338,0.367-0.535,0.868-0.535,1.541v168.659
		c5.712-2.51,12.515-3.326,16.207,2.966c0.455,0.776,0.824,1.583,1.138,2.411V160.048h79.413v297.098h-78.159
		c-0.101,0.716-0.195,1.433-0.312,2.149c-0.429,2.642-2.789,3.745-5.084,3.537c-0.253,0.329-0.508,0.656-0.754,0.99
		c-1.698,2.312-4.109,2.737-6.037,1.983c-0.247,0.233-0.489,0.47-0.745,0.696c-0.236,0.208-0.48,0.388-0.73,0.548
		c3.045,2.1,6.871,3.397,9.618,3.397h96.758c1.287,0,2.789-1.021,2.789-2.425V157.622
		C555.602,151.474,546.317,146.748,541.046,146.748z"/>
	<path d="M441.5,341.057c0.651-3.551,1.275-7.107,1.91-10.662c-0.643-0.089-1.287-0.315-1.91-0.697V341.057z"/>
</g>
<path d="M633.044,478.347c-3.977-6.945-11.74-12.697-17.899-12.574c-68.981,1.374-273.893-4.022-277.144-4.06
	c-22.519-0.262-44.956-3.205-67.441-4.724c-22.854-1.544-45.738-2.305-68.612-2.685c-45.952-0.764-91.907,0.36-137.843,2.125
	c-25.851,0.993-51.698,2.188-77.545,3.363c-5.813,0.264-1.869,14.918-0.559,18.649c2.326,6.623,7.574,17.867,13.372,17.603
	c91.972-4.182,184.035-8.59,276.03-3.287c25.145,1.45,50.238,4.915,75.411,5.208c3.39,0.039,151.36-4.574,220.225-6.464
	c19.471-0.534,38.943-1.049,58.416-1.436C634.782,489.958,636.648,484.641,633.044,478.347z"/>
<path d="M492.977,190.631c-6.485,0-12.969,0-19.454,0c0.54,0.518,1.079,1.036,1.619,1.553c0-3.114,0-6.229,0-9.343
	c0-2.259,0-4.519,0-6.778c0-0.436-0.184-3.106-0.061-3.229c0.103-0.103,2.535,0.064,2.944,0.064c2.227,0,4.455,0,6.682,0
	c3.242,0,6.485,0,9.727,0c-0.54-0.518-1.079-1.035-1.619-1.553c0,6.485,0,12.969,0,19.454c0,0.686,1.78,1.867,1.78,1.385
	c0-6.485,0-12.969,0-19.454c0-0.678-0.96-1.553-1.619-1.553c-6.485,0-12.969,0-19.454,0c-0.094,0.018-0.147,0.074-0.161,0.168
	c0,6.485,0,12.969,0,19.454c0,0.678,0.96,1.553,1.619,1.553c6.485,0,12.969,0,19.454,0
	C494.878,192.352,493.678,190.631,492.977,190.631z"/>
<path d="M523.85,192.491h-21.454v-21.454h21.454V192.491z M504.396,190.491h17.454v-17.454h-17.454V190.491z"/>
<path d="M494.706,220.725h-21.454v-21.454h21.454V220.725z M475.252,218.725h17.454v-17.454h-17.454V218.725z"/>
<path d="M494.706,248.958h-21.454v-21.454h21.454V248.958z M475.252,246.958h17.454v-17.454h-17.454V246.958z"/>
<path d="M523.85,220.725h-21.454v-21.454h21.454V220.725z M504.396,218.725h17.454v-17.454h-17.454V218.725z"/>
<path d="M523.85,248.958h-21.454v-21.454h21.454V248.958z M504.396,246.958h17.454v-17.454h-17.454V246.958z"/>
<path d="M365.653,124.436c-6.485,0-12.969,0-19.454,0c0.54,0.518,1.079,1.035,1.619,1.553c0-3.114,0-6.229,0-9.343
	c0-2.259,0-4.519,0-6.778c0-0.436-0.184-3.106-0.061-3.229c0.103-0.103,2.535,0.064,2.944,0.064c2.227,0,4.455,0,6.682,0
	c3.242,0,6.485,0,9.727,0c-0.54-0.518-1.079-1.036-1.619-1.553c0,6.485,0,12.969,0,19.454c0,0.686,1.78,1.867,1.78,1.385
	c0-6.485,0-12.969,0-19.454c0-0.678-0.96-1.553-1.619-1.553c-6.485,0-12.969,0-19.454,0c-0.094,0.018-0.147,0.073-0.161,0.168
	c0,6.485,0,12.969,0,19.454c0,0.678,0.96,1.553,1.619,1.553c6.485,0,12.969,0,19.454,0
	C367.555,126.157,366.354,124.436,365.653,124.436z"/>
<path d="M396.527,126.297h-21.454v-21.454h21.454V126.297z M377.073,124.297h17.454v-17.454h-17.454V124.297z"/>
<path d="M367.382,154.531h-21.454v-21.455h21.454V154.531z M347.928,152.531h17.454v-17.455h-17.454V152.531z"/>
<path d="M367.382,182.764h-21.454V161.31h21.454V182.764z M347.928,180.764h17.454V163.31h-17.454V180.764z"/>
<path d="M367.382,210.998h-21.454v-21.454h21.454V210.998z M347.928,208.998h17.454v-17.454h-17.454V208.998z"/>
<path d="M396.527,154.531h-21.454v-21.455h21.454V154.531z M377.073,152.531h17.454v-17.455h-17.454V152.531z"/>
<path d="M396.527,182.764h-21.454V161.31h21.454V182.764z M377.073,180.764h17.454V163.31h-17.454V180.764z"/>
<path d="M396.527,210.998h-21.454v-21.454h21.454V210.998z M377.073,208.998h17.454v-17.454h-17.454V208.998z"/>
</svg>
