<?xml version="1.0" encoding="utf-8"?>
<!-- Generator: Adobe Illustrator 23.0.1, SVG Export Plug-In . SVG Version: 6.00 Build 0)  -->
<svg version="1.1" id="Layer_3" xmlns="http://www.w3.org/2000/svg" xmlns:xlink="http://www.w3.org/1999/xlink" x="0px" y="0px"
	 viewBox="0 0 566.9 566.9" style="enable-background:new 0 0 566.9 566.9;" xml:space="preserve">
<path d="M84.4,39.7c103.1,4.4,206.2,4.3,309.3-0.4c29.6-1.3,59.1-3.1,88.7-5.2c4.9-0.3,4.8-20.3,0-20c-103,7.3-206.1,10.1-309.3,8.3
	c-29.6-0.5-59.2-1.4-88.7-2.7C79.6,19.6,79.4,39.5,84.4,39.7L84.4,39.7z"/>
<path d="M276.3,495.3c0.1-0.1,0.1-0.2,0.2-0.3c1.4-1.9,1.6-5.9,0.8-8.6c-1.3-10.7,0.6-21.9,0.4-32.7c-0.1-10.3-0.6-20.5-0.2-30.7
	c0.6-2.8,0.2-6.4-1.3-8c-0.4-0.5-1-0.9-1.7-0.9c-20.8-1.4-41.9-0.2-62.7,0c-8.7,0.1-17.5,0.3-26.2,0c-7.5-0.2-14.9-0.2-22.4-0.1
	c-10.8,0.2-21.5,1.7-32.2,0c-2.6-0.4-3.8,4.8-2.9,8.7c2.6,21.7,0.1,43.3-0.2,65.1c-0.5,3.4,0.3,7.7,2.6,8.2c0,0,0.1,0,0.1,0
	c0.1,0,0.3,0,0.4,0c47.8,0,95.7-0.9,143.5,0c0.6,0,1.1-0.2,1.6-0.7c0,0,0.1-0.1,0.1-0.1C276.2,495.4,276.3,495.4,276.3,495.3z
	 M134.2,483.7c0.4-18.9,2-37.6,0.6-56.4c9.4,0.9,18.9-0.3,28.4-0.5c7.5-0.1,14.9-0.2,22.4,0.1c8.7,0.3,17.5,0,26.2,0
	c19.7-0.2,39.7-1.3,59.3-0.2c-0.2,9.8,0.2,19.5,0.3,29.3c0.1,9.2-1.1,18.5-0.7,27.7C225.2,482.9,179.7,483.6,134.2,483.7z"/>
<path d="M249.9,228.6c0,0,0-0.1,0-0.1c0-0.7-0.1-1.9-0.4-3.1c-1.1-5.8-3.8-11.9-7.9-16.2c-3.5-3.6-8.7-4.1-13.4-4.1
	c-4.3,0-8.2-0.5-11.7,2.4c-4.9,4.1-6.3,10.9-6.6,16.9c-0.6,12.9,1.5,28.8,17.3,29.7c5.8,0.3,12.3-1,16.1-5.6
	c4.1-5,6.2-12.6,6.5-19.1C249.9,229.2,249.9,228.9,249.9,228.6z M226.2,241.6c-5-0.5-8.7-2.7-9.7-7.7c-0.7-3.2-1-8.8,0.3-11.8
	c2.2-5.3,7.7-4.4,12.4-4.3c7.3,0.1,12.9,4.2,14.4,11.6C242.9,238.6,234.7,242.5,226.2,241.6z"/>
<path d="M289.3,396c45.5,2.4,147.1-2.5,147.5-4.4c5.4-22.3-0.9-153.1-0.6-163.6c0.2-10.6-0.1-53.4-0.4-64.2c-0.2-11-0.8-22-0.4-33.1
	c0.3-10.6,1-21,0.6-31.7c-0.4-10.5-0.8-20.9-0.2-31.4c0.5-3.6-7.4-8.1-10.1-8.3c-45.7-2.1-91.5-3.2-137.3-3.1
	c-4,0-4.3,10.2-1.2,12.2c0.7,22.5,1.3,45,1.8,67.4c1.8,82.5,2,165.1,0.7,247.6c-0.2,0-0.3,0-0.5,0C285,383.2,284.9,395.8,289.3,396z
	 M302.2,376.2c0.4-22.8,0.6-38.1,0.8-60.9c0.5-82.2-0.6-157.8-3.2-239.9c43,0,79.8,1,122.7,3c-0.4,10.5,0.2,14.5,0.5,25
	c0.3,11.7-0.8,23.3-0.8,35c0,10.3,0.6,20.6,0.6,31c0,10.8,0.1,83.2,0.2,93.4c0.2,20.8,6,92.7,2.3,111.6
	C382.2,377.5,345.2,378.2,302.2,376.2z"/>
<path d="M273.7,383.5c-0.2,0-0.3,0-0.5,0c-1.3-82.5-1.1-165.1,0.7-247.6c0.5-22.5,1.1-45,1.8-67.4c3.1-2,2.8-12.2-1.2-12.2
	c-45.8-0.1-91.6,1-137.3,3.1c-2.7,0.1-10.6,4.7-10.1,8.3c0.7,10.5,0.2,20.9-0.2,31.4c-0.4,10.6,0.3,21.1,0.6,31.7
	c0.3,11-0.2,22-0.4,33.1c-0.2,10.8-0.6,53.6-0.4,64.2c0.2,10.5-6,141.4-0.6,163.6c0.5,2,102,6.8,147.5,4.4
	C278.1,395.8,278,383.2,273.7,383.5z M137.8,374.3c-3.7-18.8,2.2-90.7,2.3-111.6c0.1-10.2,0.2-82.5,0.2-93.4c0-10.3,0.6-20.6,0.6-31
	c0-11.7-1.1-23.3-0.8-35c0.3-10.5,0.9-14.5,0.5-25c42.9-1.9,79.8-3,122.7-3c-2.6,82.1-3.7,157.7-3.2,239.9
	c0.1,22.8,0.4,38.1,0.8,60.9C217.8,378.2,180.8,377.5,137.8,374.3z"/>
<path d="M312.8,229.6c0.3,6.5,2.4,14.1,6.5,19.1c3.8,4.6,10.3,6,16.1,5.6c15.8-0.9,17.9-16.9,17.3-29.7c-0.3-6-1.7-12.8-6.6-16.9
	c-3.5-2.9-7.4-2.4-11.7-2.4c-4.7,0-9.9,0.4-13.4,4.1c-4.1,4.3-6.8,10.4-7.9,16.2c-0.3,1.1-0.4,2.3-0.4,3.1c0,0,0,0.1,0,0.1
	C312.8,228.9,312.8,229.2,312.8,229.6z M319.1,229.3c1.5-7.4,7.1-11.5,14.4-11.6c4.7-0.1,10.2-1,12.4,4.3c1.3,3.1,1,8.6,0.3,11.8
	c-1.1,5.1-4.8,7.2-9.7,7.7C328,242.5,319.7,238.6,319.1,229.3z"/>
<path d="M182.4,448.6c13.6-0.4,27.2,0.2,40.8,0.5c4.3,0.1,4.4-12.4,0-12.5c-13.6-0.3-27.2-0.9-40.8-0.5
	C178,436.2,178,448.7,182.4,448.6L182.4,448.6z"/>
<path d="M436.9,495.3c0.1-0.1,0.1-0.2,0.2-0.3c1.4-1.9,1.6-5.9,0.8-8.6c-1.3-10.7,0.6-21.9,0.4-32.7c-0.1-10.3-0.6-20.5-0.2-30.7
	c0.6-2.8,0.2-6.4-1.3-8c-0.4-0.5-1-0.9-1.7-0.9c-20.8-1.4-41.9-0.2-62.7,0c-8.7,0.1-17.5,0.3-26.2,0c-7.5-0.2-14.9-0.2-22.4-0.1
	c-10.8,0.2-21.5,1.7-32.2,0c-2.6-0.4-3.8,4.8-2.9,8.7c2.6,21.7,0.1,43.3-0.2,65.1c-0.5,3.4,0.3,7.7,2.6,8.2c0,0,0.1,0,0.1,0
	c0.1,0,0.3,0,0.4,0c47.8,0,95.7-0.9,143.5,0c0.6,0,1.1-0.2,1.6-0.7c0,0,0.1-0.1,0.1-0.1C436.8,495.4,436.8,495.4,436.9,495.3z
	 M294.8,483.7c0.4-18.9,2-37.6,0.6-56.4c9.4,0.9,18.9-0.3,28.4-0.5c7.5-0.1,14.9-0.2,22.4,0.1c8.7,0.3,17.5,0,26.2,0
	c19.7-0.2,39.7-1.3,59.3-0.2c-0.2,9.8,0.2,19.5,0.3,29.3c0.1,9.2-1.1,18.5-0.7,27.7C385.8,482.9,340.3,483.6,294.8,483.7z"/>
<path d="M342.9,448.6c13.6-0.4,27.2,0.2,40.8,0.5c4.3,0.1,4.4-12.4,0-12.5c-13.6-0.3-27.2-0.9-40.8-0.5
	C338.5,436.2,338.6,448.7,342.9,448.6L342.9,448.6z"/>
<path d="M464.4,523.5c3-1.6,4.2-7.7,3.4-12.6c0-14.8,0-29.6,0-44.4c0-37.9,0-75.9,0-113.8c0-45.7,0-91.4,0-137.1
	c0-39.7,0-79.3,0-119c0-19.2,0.3-38.5,0-57.8c0-0.3,0-0.5,0-0.8c0-2.8-0.9-10-5-10c-11.9,0-23.7,0-35.6,0c-28.6,0-57.3,0-85.9,0
	c-34.5,0-69,0-103.5,0c-29.8,0-59.7,0-89.5,0c-9.9,0-19.9,0-29.8,0c-4.5,0-9.5-0.6-14,0c-0.2,0-0.4,0-0.6,0c-4.1,0-5,7.3-5,10
	c0,15.8,0,31.6,0,47.4c0,37.9-2.1,68.2,0,113.8s0,91.4,0,137.1c0,39.7,0,79.3,0,119c0,19.2-0.3,38.5,0,57.8c0,0.3,0,0.5,0,0.8
	c0,2.8,0.9,10,5,10c11.9,0,23.7,0,35.6,0c28.6,0,57.3,0,85.9,0c34.5,0,69,0,103.5,0c29.8,0,59.7,0,89.5,0c9.9,0,19.9,0,29.8,0
	c4.5,0,9.5,0.6,14,0c0.2,0,0.4,0,0.6,0c0.4,0,0.8-0.1,1.2-0.2c0,0,0.1,0,0.1,0C464.2,523.6,464.3,523.5,464.4,523.5z M427.3,503.9
	c-28.6,0-57.3,0-85.9,0c-34.5,0-69,0-103.5,0c-29.8,0-59.7,0-89.5,0c-9.9,0-19.9,0-29.8,0c-3.1,0-6.4-0.3-9.6-0.3
	c0-12.4,0-24.7,0-37.1c0-37.9,0-75.9,0-113.8c0-45.7,0-91.4,0-137.1c0-39.7,0-79.3,0-119c0-13,0-26.1,0-39.1c0-3.1,0.1-6.3,0.2-9.5
	c10.1,0,20.3,0,30.4,0c28.6,0,57.3,0,85.9,0c34.5,0,69,0,103.5,0c29.8,0,59.7,0,89.5,0c9.9,0,19.9,0,29.8,0c3.1,0,6.4,0.3,9.6,0.3
	c0,12.4,0,24.7,0,37.1c0,37.9,0,75.9,0,113.8c0,45.7,0,91.4,0,137.1c0,39.7,0,79.3,0,119c0,16.2-0.2,32.4-0.1,48.6
	C447.6,503.9,437.4,503.9,427.3,503.9z"/>
<path d="M131.3,554.7l38.5,0.8c0,0,5.1-40.8-3-35.7c-5.7,3.5-11.6,1-17.4-0.4c-6.1-1.4-11.7-0.8-17.1,3.9
	C125.6,529.2,131.3,554.7,131.3,554.7z"/>
<path d="M398.2,554.7l38.5,0.8c0,0,5.1-40.8-3-35.7c-5.7,3.5-11.6,1-17.4-0.4c-6.1-1.4-11.7-0.8-17.1,3.9
	C392.6,529.2,398.2,554.7,398.2,554.7z"/>
</svg>
