<?xml version="1.0" encoding="utf-8"?>
<!-- Generator: Adobe Illustrator 15.1.0, SVG Export Plug-In . SVG Version: 6.00 Build 0)  -->
<!DOCTYPE svg PUBLIC "-//W3C//DTD SVG 1.1//EN" "http://www.w3.org/Graphics/SVG/1.1/DTD/svg11.dtd">
<svg version="1.1" xmlns="http://www.w3.org/2000/svg" xmlns:xlink="http://www.w3.org/1999/xlink" x="0px" y="0px"
	 width="566.93px" height="566.93px" viewBox="0 0 566.93 566.93" enable-background="new 0 0 566.93 566.93" xml:space="preserve">
<g id="Layer_2" display="none">
	
		<image display="inline" overflow="visible" width="714" height="514" xlink:href="../Sources/Coffee bean vector.jpg"  transform="matrix(1 0 0 1 -62.0251 23.469)">
	</image>
</g>
<g id="Layer_3">
	<g>
		<path fill="#231F20" d="M469.983,358.455c2.325-4.62,3.912-9.625,5.213-14.621c1.297-5.168,2.128-10.435,2.574-15.715
			c0.844-10.57,0.02-21.209-2.317-31.478c-2.35-10.27-6.069-20.198-10.953-29.533c-4.855-9.349-10.704-18.188-17.313-26.441
			c-6.626-8.238-13.826-16.045-21.571-23.312c-3.861-3.643-7.846-7.163-11.924-10.577c-4.056-3.441-8.197-6.789-12.428-10.029
			c-8.485-6.444-17.15-12.695-26.107-18.542c-8.896-5.94-18.036-11.538-27.296-16.957l-0.169-0.099l-0.029-0.02
			c-16.793-11.563-34.375-22.112-53.038-30.419c-4.663-2.073-9.372-4.05-14.159-5.82c-4.79-1.761-9.632-3.376-14.524-4.822
			c-9.774-2.928-19.801-4.972-29.904-6.22c-10.109-1.187-20.327-1.438-30.427-0.526c-10.096,0.92-20.07,2.977-29.588,6.292
			c-9.521,3.289-18.59,7.795-26.874,13.401c-4.14,2.803-8.086,5.88-11.771,9.217c-1.838,1.671-3.622,3.396-5.32,5.185
			c-0.848,0.895-1.674,1.805-2.469,2.729c-0.397,0.462-0.786,0.928-1.163,1.395c-0.362,0.45-0.771,0.974-1.032,1.342l-2.077-5.576
			c24.957,5.556,49.513,12.303,73.795,20.439c12.124,4.104,24.146,8.619,35.899,14.096c5.868,2.762,11.678,5.75,17.288,9.361
			c2.794,1.823,5.542,3.8,8.168,6.092c1.312,1.149,2.593,2.38,3.813,3.742c0.608,0.684,1.204,1.395,1.772,2.155l1.389,1.89
			c3.505,4.578,7.949,8.701,12.699,12.544c4.773,3.832,9.816,7.49,15.004,11.011c10.375,7.057,21.192,13.761,31.783,20.925
			c10.575,7.187,20.999,14.768,30.778,23.215c9.75,8.465,18.829,17.839,26.585,28.271l-0.504-0.528
			c6.454,5.651,13.345,10.931,20.392,16.002c7.064,5.054,14.249,9.985,21.56,14.737c7.315,4.744,14.664,9.463,22.121,14.014
			c3.725,2.282,7.468,4.537,11.229,6.764C462.709,354.194,466.332,356.355,469.983,358.455z M469.973,359.492
			c-7.929-3.74-15.732-7.716-23.481-11.812c-7.743-4.104-15.467-8.265-23.05-12.687c-7.584-4.417-15.125-8.936-22.482-13.78
			c-7.36-4.841-14.616-9.886-21.555-15.491l-0.238-0.191l-0.268-0.337c-7.721-9.715-16.718-18.384-26.37-26.275
			c-9.634-7.93-19.951-15.074-30.536-21.905c-10.562-6.882-21.398-13.453-32.119-20.527c-5.344-3.563-10.694-7.219-15.796-11.37
			c-5.093-4.147-10.052-8.698-14.273-14.217l-1.427-1.948c-0.381-0.512-0.804-1.02-1.249-1.522
			c-0.896-1.004-1.903-1.981-2.977-2.925c-2.152-1.888-4.562-3.642-7.079-5.289c-5.036-3.314-10.489-6.247-16.07-8.958
			c-11.192-5.41-22.924-9.979-34.766-14.237c-11.859-4.235-23.891-8.081-36.003-11.671c-12.095-3.617-24.331-6.964-36.518-10.093
			l-5.313-1.364l3.235-4.212c0.507-0.66,0.91-1.131,1.369-1.667c0.447-0.518,0.898-1.022,1.354-1.519
			c0.912-0.992,1.845-1.952,2.794-2.889c1.899-1.874,3.871-3.654,5.911-5.345c4.075-3.386,8.382-6.458,12.866-9.224
			c8.968-5.533,18.649-9.814,28.667-12.828c20.081-6.028,41.303-6.925,61.791-4.194c10.276,1.292,20.381,3.601,30.324,6.389
			c4.967,1.417,9.884,3.005,14.747,4.741c4.861,1.737,9.7,3.545,14.468,5.528c19.079,7.917,37.428,17.573,55.003,28.458
			l-0.197-0.119c9.646,4.963,19.115,10.292,28.403,15.955c9.227,5.752,18.324,11.771,26.99,18.408
			c4.346,3.298,8.619,6.701,12.795,10.229c4.149,3.558,8.208,7.229,12.148,11.032c7.861,7.617,15.349,15.688,21.972,24.475
			c6.633,8.765,12.592,18.106,17.327,28.085c4.706,9.976,8.333,20.525,10.224,31.415c1.916,10.871,2.207,22.035,0.587,32.9
			c-0.781,5.434-2.057,10.784-3.787,15.968c-0.862,2.593-1.844,5.144-2.978,7.626c-1.138,2.482-2.355,4.912-3.853,7.224l-0.221,0.34
			L469.973,359.492z"/>
	</g>
	<g>
		<path fill="#231F20" d="M120.422,152.958c-18.067,25.963-25.366,58.911-19.146,89.28c3.074,15.241,9.162,29.785,17.356,43.037
			c8.17,13.283,18.207,25.436,29.356,36.482c11.099,11.116,23.252,21.206,35.878,30.696c12.666,9.451,25.852,18.258,39.429,26.513
			c13.556,8.245,27.505,15.906,41.917,22.586c7.208,3.335,14.55,6.376,21.986,9.163c7.441,2.774,15.024,5.155,22.688,7.217
			c7.66,2.076,15.448,3.653,23.287,4.801c3.921,0.567,7.856,1.024,11.803,1.329c3.946,0.289,7.9,0.443,11.852,0.448
			c15.797,0.094,31.592-2.601,46.179-8.265c14.597-5.65,27.805-14.531,38.591-25.683c5.386-5.582,10.251-11.663,14.416-18.182
			c2.084-3.256,3.997-6.616,5.729-10.042c0.431-0.857,0.847-1.719,1.249-2.587l0.597-1.312l0.313-0.702l0.113-0.242
			c0.333,0.438-0.198-2.132-0.089,2.903c0.822,1.65,1.068,1.387,1.21,1.619c0.135,0.098,0.184,0.124,0.212,0.141
			c0.069,0.039-0.111-0.048-0.265-0.106l-0.572-0.217l-1.311-0.45l-2.783-0.89c-30.533-9.16-61.175-19.516-90.25-33.641
			c-14.546-7.048-28.656-15.225-41.747-25.101c-3.266-2.479-6.457-5.073-9.547-7.81c-3.071-2.755-6.035-5.655-8.853-8.718
			c-5.623-6.124-10.685-12.94-14.504-20.567l0.288,0.49c-4.681-7.03-10.411-13.489-16.554-19.572
			c-6.171-6.069-12.836-11.715-19.765-17.053c-13.876-10.672-28.721-20.227-43.981-29.085c-7.625-4.447-15.367-8.711-23.196-12.823
			c-7.821-4.13-15.717-8.133-23.691-11.987c-7.966-3.871-15.979-7.663-24.071-11.291c-4.044-1.817-8.105-3.6-12.183-5.345
			C128.401,156.279,124.423,154.578,120.422,152.958z M120.407,151.976c4.24,1.363,8.446,2.797,12.643,4.276
			c4.186,1.502,8.358,3.045,12.518,4.623c8.315,3.165,16.595,6.439,24.796,9.913c8.192,3.491,16.336,7.113,24.399,10.922
			c8.053,3.829,16.037,7.82,23.928,12.01c7.893,4.188,15.656,8.637,23.303,13.31c7.637,4.686,15.157,9.61,22.41,14.955
			c7.259,5.335,14.304,11.025,20.939,17.262c6.637,6.229,12.832,13.064,18.102,20.757l0.143,0.209l0.146,0.282
			c3.414,6.621,8.016,12.707,13.247,18.264c2.619,2.78,5.4,5.433,8.297,7.975c2.88,2.561,5.88,5.01,8.968,7.362
			c12.366,9.418,26.059,17.23,40.077,24.385c14.067,7.1,28.636,13.316,43.438,18.962c7.403,2.822,14.87,5.496,22.385,8.059
			c7.522,2.569,15.061,4.983,22.693,7.521l2.898,0.994l1.508,0.556l0.82,0.332c0.306,0.135,0.584,0.246,1.089,0.527
			c0.137,0.079,0.293,0.17,0.528,0.34c0.241,0.307,0.59,0.122,1.465,1.887c0.155,5.161-0.502,2.693-0.204,3.246l-0.048,0.095
			l-0.311,0.657l-0.673,1.399c-0.457,0.933-0.929,1.857-1.414,2.772c-1.933,3.665-4.099,7.177-6.425,10.572
			c-4.661,6.78-9.974,13.102-15.927,18.753c-5.94,5.661-12.468,10.694-19.449,14.959c-6.98,4.266-14.412,7.753-22.092,10.452
			c-7.685,2.692-15.624,4.572-23.643,5.698c-4.009,0.563-8.038,0.943-12.07,1.152c-4.03,0.241-8.067,0.31-12.096,0.226
			c-4.029-0.083-8.052-0.319-12.058-0.691c-4.008-0.357-8.002-0.833-11.975-1.438c-7.95-1.197-15.801-2.928-23.578-4.902
			c-7.777-1.988-15.43-4.414-23.013-7.025c-7.588-2.602-15.06-5.531-22.454-8.638c-14.795-6.211-29.223-13.272-43.322-20.965
			c-14.074-7.689-27.863-16.038-41.001-25.386c-13.162-9.311-25.664-19.654-37.114-31.146
			c-11.362-11.554-21.776-24.226-30.051-38.33c-8.24-14.075-14.448-29.561-17.045-45.775c-1.313-8.085-1.842-16.308-1.369-24.469
			c0.453-8.159,1.763-16.25,3.921-24.083c2.185-7.825,5.124-15.416,8.829-22.592c3.713-7.167,8.046-14.005,13.345-20.087
			l0.201-0.231L120.407,151.976z"/>
	</g>
	<g>
		<path fill="#231F20" d="M464.69,360.894c-0.357-0.313,1.061,0.299,0.666,0.521c-0.018,0.072-0.031,0.101-0.042,0.128l-0.052,0.115
			l-0.091,0.18l-0.182,0.324l-0.376,0.619c-0.257,0.404-0.526,0.798-0.799,1.188c-0.548,0.779-1.117,1.541-1.703,2.291
			c-1.178,1.493-2.435,2.921-3.73,4.316c-2.586,2.797-5.427,5.351-8.374,7.783c-5.944,4.798-12.475,8.936-19.431,12.222
			c-3.475,1.645-7.025,3.158-10.672,4.403c-3.645,1.252-7.354,2.319-11.106,3.209c-3.75,0.899-7.549,1.595-11.372,2.085
			c-3.821,0.513-7.666,0.824-11.513,0.966c-7.694,0.316-15.399-0.121-22.98-1.213c-7.583-1.087-15.034-2.85-22.309-5.049
			c-14.563-4.434-28.382-10.586-41.899-17.118l-0.155-0.075l-0.108-0.086c-10.788-8.542-22.253-16.287-34.426-22.56
			c-6.078-3.144-12.368-5.826-18.771-8.032c-6.409-2.224-12.954-3.797-19.627-5.074c-6.663-1.287-13.594-2.269-20.62-4.4
			c-7.022-2.104-13.762-5.615-19.637-9.911c-5.918-4.279-11.125-9.242-16.015-14.373c-4.892-5.139-9.399-10.549-13.703-16.075
			l0.999,0.96c-0.684-0.499-1.194-0.898-1.767-1.35l-1.64-1.327c-1.078-0.891-2.132-1.797-3.17-2.717
			c-2.063-1.854-4.06-3.765-6.002-5.725c-3.896-3.91-7.507-8.083-10.924-12.402c-3.395-4.337-6.526-8.879-9.407-13.57
			c-2.891-4.687-5.468-9.565-7.709-14.592c-4.527-10.026-7.681-20.677-9.185-31.505c-1.53-10.824-1.364-21.821,0.465-32.429
			l0.896,0.083c-0.068,5.342,0.17,10.655,0.725,15.909c0.28,2.626,0.639,5.238,1.102,7.828c0.436,2.592,0.965,5.164,1.578,7.711
			c1.251,5.088,2.771,10.092,4.639,14.957c1.883,4.858,4.011,9.61,6.442,14.202c4.893,9.165,10.736,17.809,17.475,25.698
			c3.329,3.977,6.903,7.742,10.595,11.364c1.853,1.805,3.754,3.556,5.696,5.243c0.965,0.85,1.941,1.683,2.926,2.491l1.481,1.19
			c0.478,0.375,1.024,0.794,1.421,1.081l0.577,0.419l0.422,0.542c4.183,5.374,8.471,10.636,12.954,15.648
			c4.493,4.997,9.25,9.693,14.391,13.712c5.146,4.03,10.731,7.173,16.88,9.283c6.126,2.165,12.875,3.446,19.666,5.267
			c6.804,1.757,13.556,4.076,20.012,6.9c6.473,2.812,12.646,6.164,18.652,9.714c11.996,7.148,23.246,15.282,34.351,23.581
			l-0.264-0.161c13.543,6.166,27.805,10.683,42.229,13.648c7.211,1.496,14.467,2.596,21.724,3.341
			c7.258,0.736,14.526,1.095,21.779,0.953c3.625-0.084,7.244-0.313,10.848-0.675c3.602-0.381,7.188-0.896,10.749-1.553
			c7.119-1.344,14.105-3.372,20.886-5.991c6.752-2.682,13.314-5.944,19.47-9.934c3.101-1.962,6.062-4.145,8.942-6.447
			c1.437-1.155,2.829-2.368,4.184-3.624c0.681-0.625,1.349-1.265,1.995-1.924c0.323-0.328,0.64-0.664,0.949-1.002l0.456-0.509
			l0.213-0.255l0.093-0.119l0.03-0.04c0.001,0.001-0.001,0.003-0.011,0.047c-0.377,0.183,1,0.786,0.619,0.497L464.69,360.894z"/>
	</g>
</g>
</svg>
