<?xml version="1.0" encoding="utf-8"?>
<!-- Generator: Adobe Illustrator 23.0.1, SVG Export Plug-In . SVG Version: 6.00 Build 0)  -->
<svg version="1.1" id="Layer_3" xmlns="http://www.w3.org/2000/svg" xmlns:xlink="http://www.w3.org/1999/xlink" x="0px" y="0px"
	 viewBox="0 0 566.9 566.9" enable-background="new 0 0 566.9 566.9" xml:space="preserve">
<g>
	<path d="M547.1,308.3c-4,7.6-17.4,16.2-25.5,9.1c-3.6-3.2-3.7-7.5-3.4-11.8c0.9-12.3,3.2-24.4,4.8-36.6c3.6-27.8,9-61.8-10.5-85
		c-14.6-17.4-35.7-23.4-57.2-27.7c-0.2,0-0.3,0-0.5,0c-14.4-4-29.9-3.1-44.4-0.3c-17.1,3.3-33.6,9-50.7,12.2
		c-17.8,3.3-36,5.2-54,6.2c-20,1.1-39.1-0.6-57.8-7.9c-14.5-5.5-28.8-12.1-44.2-12.7c4.2-3.9,7.5-8.8,10.5-13.9
		c2.5-4.3,5-8.7,7.5-13.1c1.2-2.1,2.4-4.1,3.3-6.2c1.1,0.2,2.2,0.4,3.3,0.7c3.8,0.8,1.5-6.9,1-8.2c-1.4-3.4-4.1-8.3-8-9.1
		c-12.5-2.7-25.5-3.9-38-0.3c-11.9,3.3-22.3,11.3-32.4,18.2c-3.8-4-7.7-8.1-11.6-12.1c-4.4-4.5-9.3-5.5-15.5-5.9
		c-10.4-0.7-20.4,1.8-29.4,6.7c-9.3-6.5-21.6-8.7-32.7-8.8c-13.6-0.2-26.8,3.5-38.8,9.5c-0.7-0.7-1.5-1.3-2.4-1.8
		c-3-1.6-6.2-0.4-5.4,3.5c0.2,0.9,0.4,1.8,0.6,2.7c-1.5,1.5-2.6,3.3-1,4.7c0.6,0.6,1.5,0.8,2.5,0.8c5.9,18.3,19.4,34,37.3,40.7
		c0.1,8.6,0.3,17.3,0.4,25.9c0.1,4.8,0.5,9.8-0.7,14.5c-1,3.9-3.5,7.1-5.9,10.3c-5.4,7.5-10.9,15.1-15.6,23
		c-4.1,6.8-6.1,13.8-3,21.5c2.9,7.1,9,12.4,15.6,16.1c7.1,4.1,15.2,8,23.4,8.7c8.4,0.8,16.1-2.3,23.2-6.4c6.8-3.9,13.4-8,20.1-12.1
		c1.4,1,3,1.7,4.5,2.1c0.9,0.3,1.9,0.4,2.9,0.6c-1.7,30.2,1,61,12.3,89.3c4.7,11.8,10.8,25.5,25.2,26.7c4,0.3,8-0.1,11.9-0.9
		c-0.3,6.1-0.1,12.3,0.3,18.4c0.6,9.2,3.7,17.2,7.1,25.7c4.3,10.4,5.7,20.5,4.1,31.7c-1.5,10.3-1.9,20.5-1.9,30.9
		c0,0.2,0.1,0.5,0.2,0.8c-0.4,0-0.9,0-1.3,0c-1.8,0,1.2,6.3,3.2,6.2c12.5-0.3,25-0.4,37.5-0.2c1.1,0,0.3-2.6-1-4.4
		c1.1-10.5,2.2-21.1,3.2-31.6c1-10.2,2.1-19-3.1-28.2c-2.6-4.5-5.9-8.6-7.6-13.5c-1.9-5.2-2.8-10.8-3.5-16.3
		c-1.2-9.7-0.8-19.5,0.8-29.2c2.2,1.9,3.7,5,4.9,7.5c2.5,5.3,4.8,10.7,6.3,16.4c1.4,5.8,1.4,11.4,1.1,17.4c-0.2,4.9-0.1,10,2.5,14.3
		c2.5,4.1,6.9,5,7.2,10.2c0.4,6.1,0.3,12.2,0.5,18.2c0.3,12.7,0.9,25.4-0.7,38c-0.1,0.8,0.1,1.2,0.6,1.5c0.2,0.5,0.8,0.8,1.9,0.8
		c11.5-0.4,22.9-1.8,34.2-4.3c0.2,0,0.3-0.1,0.5-0.1c0.7,0.9,1.4,1.6,2.1,2.3c1.6,1.3,5.3,3.4,5.5-0.3c0.1-2.6,0.3-5.2,0.4-7.8
		c0.2-0.3,0.4-0.5,0.5-0.8c1-1.8,0.8-3.1-0.3-3.6c2.1-37.7,4.9-75.5,4-113.2c15.2,6.9,31.9,9.2,48.6,6.8c9.8-1.4,19.8-3.8,29.5-7
		c1.7,8.8,4.9,18,10.5,25c2.8,3.5,7.1,5.6,11.7,6.8c-1.1,5.6-3.8,22.9,5.8,20.9c8.3-1.7,11-10.9,11.4-18.7c0.9,0,1.7,0,2.6,0
		c0.1,3.6-0.5,7.3,0.2,10.8c0.6,3.1,2.2,6.1,4.7,8.2c0,0.1,0.1,0.2,0.1,0.3c10.4,22,8.8,46.7,6.9,70.3c-0.1,1.1,0.6,4.2,2.1,4.2
		c8.9,0,17.7-0.2,26.6-0.5h0.1c0.5,0,1,0,1.5-0.1c1.3-0.1,1.3-1.9,0.7-3.3l0,0c0.6-15.8,2.2-32,1.8-47.8c-0.1-2.3-0.4-4.4-1.7-6.4
		c-1.8-2.5-3.9-4-5.2-7c-1.9-4.7-2.2-9.7-4.4-14.2c1.5-6.4-1.1-15.2-3.3-20.8c2.7-1.2,5.3-2.6,7.6-4.3c0.1,0.7,0.2,1.3,0.3,2
		c1,9-1.8,19.3,1.4,27.9c1.8,5.1,6.6,6.8,9.4,11.1c3.3,4.9,2.4,11.8,2.4,17.4c-0.2,12.5-0.4,25.1-0.5,37.6c-1.6,0.1-3.1,0.5-3.4,1.6
		c-0.6,2,2.5,2.5,3.9,2.6c6.8,0.3,13.6,0.6,20.4,0.9c5.8,0.3,12.2,1.4,17.9,0.3c5.1-1,4.9-3.9,5-8.5c0.1-7,0.2-14,0.3-21
		c0.3-27.4,0.3-54.7-0.1-82.1c11.6-32.6,15.2-67.1,17.4-101.4c1.1-17.3,2.7-35-0.3-52.2c-2.7-15.3-8.9-29.8-17.8-42.5
		c-3.3-4.7-7.1-9.2-11.2-13.3c10.2,4.1,19.6,9.8,27.2,18.7c11.2,13,13.7,28.5,13.4,45.1c-0.2,15.8-2.4,31.5-4.6,47.1
		c-1.5,10.4-4.5,22-3.4,32.5c0.8,7.7,6.5,12.8,14.3,12.3c9.6-0.7,17.5-7.6,21.8-15.8C551.4,308.3,549.7,303.3,547.1,308.3z
		 M206,422.6c2.9,4.6,6.1,9,7.4,14.4c1.4,5.7,0.1,12-0.5,17.6c-1.2,11.2-2.3,22.5-3.5,33.7c-10-0.1-14-0.1-24,0.1
		c0.1-10,0.7-19.7,2-29.6c1.1-8.7,0.6-17.3-2.2-25.7c-3.1-9.5-8.1-18.1-9.1-28.1c-0.8-8.2-1.1-16.8-0.2-25c1.3-0.3-0.4-0.7,0.9-1.1
		c8.2-2.4,13.4-4.9,21.6-7.3c0.1,0,0.2-0.1,0.3-0.1C196.4,388.6,197.1,408.3,206,422.6z M387.5,410.4c0,0.2-0.7,3.1-1,3.9
		c0-0.5-0.7-2-0.8-2.2c-1.2-3.3-1.1-7.4-0.7-11.2c1.1,0.2,2.1,0.3,3.2,0.4c-0.2,0.4-0.4,0.8-0.3,1.2
		C388.1,405.2,388,407.8,387.5,410.4z M406,412c-0.1,1.2-0.7,2.3-1,3.4c0-0.4-0.1-0.8-0.1-1.2c-0.1-1.4,0-2.8,0-4.1
		c0-2.8,0.3-5.7-0.4-8.4c0.8-0.1,1.6-0.1,2.3-0.2c-0.2,1.8-0.5,3.5-0.6,5.3C406.2,408.6,406.2,410.3,406,412z M430,432.9
		c0.9,2.9,2.2,4.9,4.2,7.1c2.8,3.1,3.2,5.7,3.1,10c-0.5,13.3-1,26.7-1.6,40c-8.4,0.3-10.8,0.5-19.1,0.6c1.7-22.8,2.2-45.8-6.5-67.2
		c4.4-1.3,3-9.8,3.2-12.5c0.1-3,0.9-6,0.9-9c0-0.4-0.2-0.9-0.4-1.3c0.7-0.1,1.3-0.3,2-0.5c0,0.1,0,0.2,0,0.3c0.1,5.7,0,12.8,2.7,18
		c1.6,3,5.2,6.6,8.7,4.6c1-0.5,1.7-1.2,2.4-2C431.2,424.7,428.7,428.9,430,432.9z M422.6,404.2c0.7,1.9,1.2,3.8,1.6,5.8
		c0.1,0.6,0.2,1.2,0.4,1.9C423.5,409.8,422.9,407,422.6,404.2z M434.3,383.7c-2.7,4.9-7.2,8.1-12.6,10.2c-0.8-0.5-2.3,0.1-3,0.7
		c-0.2,0.1-0.4,0.3-0.6,0.5c-3.1,0.8-6.3,1.3-9.5,1.5c-0.6-0.2-1-0.2-1.3,0.1c-5.6,0.3-11-0.1-15.5-0.9c-8.2-1.4-14.3-3.4-18.6-10.9
		c-3.7-6.4-6-13.4-7.4-20.6c6.7-2.7,13.1-5.9,19-9.4c3.9-2.3,7.7-5,11.2-7.9c3.9-3.2,8.6-10,13.9-10.4c5.2-0.4,8.4,4.6,10.4,8.5
		c2.6,5,4.7,10.3,6.8,15.5c3,7.4,5.6,15,7.3,22.8C434.4,383.5,434.3,383.6,434.3,383.7z M495.7,221.1c4.5,16.3,4.2,33.2,3.3,50
		c-2.1,36.5-5.1,73.4-16.8,108.3c-0.3,0.3-0.5,0.7-0.5,1.1c0,0.2,0,0.3,0,0.5c-0.5,1.4-1,2.8-1.5,4.2c-0.3,0.8,0.4,1.3,1.5,1.4
		c0.3,21.6,0.3,43.2,0.2,64.8c0,5.7-0.1,11.3-0.2,17c0,3-0.1,6-0.1,9c0,2.8-0.7,6.3-0.2,9c0,0.7,0,1.3,0,2c0.7,0.1,1.3,0.3,2,0.4
		c-0.2,0.3-4.4-0.2-4.9-0.2c-2.6-0.1-5.2-0.2-7.8-0.4c-4.4-0.2-8.8-0.4-13.2-0.6c0.3-0.4,0.4-0.7,0.4-1.1c0.2-12,0.3-24,0.5-35.9
		c0.1-5,0.5-10.2-0.1-15.2s-2.7-8.2-6.4-11.4c-8.4-7.3-6-16.5-6.1-26.5c-0.2-11-2.7-21.8-6.2-32.1c-1.7-5-3.7-9.9-5.8-14.8
		c-2.1-4.9-4-10.3-7.4-14.5c-5.8-6.9-15-5.4-22.2-1.6c-8.7,4.7-14.9,13-23.5,18.1c-9.2,5.5-19.5,9.1-29.7,12.2
		c-12.6,3.9-25.8,6.5-39.1,5.3c-12.6-1.2-24.5-5.4-35.2-12c-0.3-0.2-0.7-0.3-1.1-0.3c-0.8-1.2-1.7-2.3-2.8-3.2
		c-1.4-1.2-5.6-3.5-5.5,0.3c1.2,42.7-2.3,85.5-4.6,128.1c-6.3,1-12.7,1.7-19.1,2.1c0.1-0.2,0.1-0.5,0.1-0.7
		c1.7-13.2,1-26.6,0.7-39.9c-0.2-5.9,0.5-12.4-0.6-18.3c-1-5.4-6.3-6.9-8.5-11.6c-2.5-5.5-0.8-12.1-0.8-17.9
		c-0.1-6-1.5-11.8-3.5-17.4c-3.3-9.2-7.4-22.7-19.2-22.6c-0.6,0-1.2,0.1-1.8,0.2c-0.6-0.6-1.4-0.8-2.7-0.4
		c-7.6,2.3-15.1,4.5-22.7,6.8c-5.9,1.8-12.2,3.9-18.5,3.6c-14.2-0.6-19.2-15.8-23.4-27c-9-24-11.5-49.5-10.8-74.9
		c7.5-2.1,15-5.9,21-8.7c4.9-2.3,9.9-4.8,14.6-7.5c6.5-3.7,9-11.5,11.5-18.3c1.8-4.7-10.9-12.3-12.2-9c-1.8,4.7-3.7,10.1-6.6,14.2
		c-1.5,2.1-1.3,1.8-3.5,3c-4.4,2.5-9,4.8-13.7,7c-6,2.9-12.1,5.5-18.4,7.6c-3,1-6.7,2.3-10.2,2.7c-1.8-0.7-3.9-0.9-5.8-0.4
		c-0.5,0-0.9,0.1-1.1,0.3c-0.4,0.2-0.8,0.3-1.1,0.5c-7.3,4.5-14.7,8.9-22,13.4c-7,4.2-13,7.6-21.1,4.5C51,269.5,34.4,258.5,41.2,243
		c2.9-6.6,7.6-12.6,11.6-18.5c4.1-5.9,9.6-11.7,12.1-18.6c2.4-6.6,1.5-14,1.4-20.9c-0.1-6.8-0.2-13.6-0.3-20.3
		c5.4-1.2-1.3-15-6.6-15.9c-15.7-2.6-29.3-12.2-32.3-28.4c-0.2-0.9-0.4-1.7-0.7-2.6c16.6-9,42.1-7.2,55.7,6.4c0.9,0.9,2.7,1,4.7,0.6
		c0.4,0.7,1,0.9,2,0.3c9.4-6.2,20.9-9.2,32.2-8.1c6.1,0.6,9.7,1.8,14,6.2c4.7,4.9,9.3,9.7,14,14.6c0.6,0.7,1.4,0.5,2.2-0.3
		c2,2.4,4.2,3.9,5.8,2.9c10.6-6.9,21.2-15.4,33.4-19.4c7.6-2.5,15.6-2.8,23.5-2.1c-1,2.9-2.7,5.5-4.3,8.1c-2.1,3.7-4.1,7.3-6.3,11
		c-3.9,6.8-8.1,13.5-15.3,17.2c-2,1-1.6,2.6-0.2,3.6c0.3,0.3,0.7,0.5,1.2,0.6c1.6,0.5,3.5,0.4,5.2-0.1c14.7-0.3,28.5,6.4,41.9,11.6
		c15.5,6,31.2,9,47.7,9.3c33.6,0.5,68.3-4.5,100.7-13.3c15.8-4.3,31.9-9,48.5-7.7c16.2,1.3,29.6,8.9,40.3,20.9
		C484.1,192,491.6,206.1,495.7,221.1z"/>
	<path d="M161.1,168.6c-5.1-2-10.5-4.3-16-5c-5.2-0.7-10,0.6-14.8,2.4c-3.5,1.3-7.1,2.5-7.6,6.6c-0.1,1.3,2.3,4.5,2.5,2.2
		c0.3-3.1,5.2-4.3,7.6-5.2c3.8-1.3,7.7-2.4,11.7-2.2s7.9,1.6,11.7,2.9c1.4,0.5,8.5,2.2,9,3.6c0.6,1.8,3.1,3,2.2,0.3
		C166.3,170.9,164.2,169.9,161.1,168.6z"/>
	<path d="M95.3,162.5c-5.2-0.5-10.1,1-15,2.7c-3.6,1.3-10.2,2.3-11.6,6.4c-0.4,1.2,1.8,4.7,2.4,2.9c1-2.9,6.7-4,9.2-4.8
		c3.1-1.1,6.2-2.3,9.4-2.9c3.4-0.6,6.8-0.5,10.2,0.2c1.7,0.4,11,2.5,11.2,5c0.1,1.5,2.7,4,2.4,1.3
		C112.8,165.6,101.5,163.1,95.3,162.5z"/>
	<path d="M139.5,173.9c-5.8,0-11.7,2-11.7,5.9s5.9,5.9,11.7,5.9s11.7-2,11.7-5.9S145.3,173.9,139.5,173.9z"/>
	<path d="M91.9,170.4c-5.8,0-11.7,2-11.7,5.9s5.9,5.9,11.7,5.9s11.7-2,11.7-5.9S97.8,170.4,91.9,170.4z"/>
	<path d="M410.6,249.8c3.3-4.2,4.8-9,5.5-14.2c1-7.4,4.3-11.6,11.2-14.3c8.1-3.2,19.7-3,24.8-11.3c4.2-6.8,1-14.3-5.1-18.6
		c-10.3-7.2-23.2-3.5-34.8-4.8c-7.2-0.8-14-3.4-21.1-4.6c-3.8-0.7-8.4-0.3-8.9,4.4c-6.1,9.8-18.5,13.9-27.8,20.2
		c-7.4,5-17.1,11.1-14.9,21.4c1.5,7.3,7.7,12.1,15,12.6c5.9,0.4,11.7-1.3,17.6-0.8c7.7,0.7,14.8,4.2,20.9,8.7
		c2.7,1.9,5.6,5.5,8.9,6.4C405.5,256,408.5,252.4,410.6,249.8z"/>
	<path d="M338,271.3c-2.3-4.2-6.9-5.2-11.1-6.2c-12.2-3-23.1-2.2-33.8,4.6c-12.3,8-25.3,12.3-40.1,9.9c-7.9-1.3-14.6-4.6-21.2-9
		c-4.1-2.7-8.8-5.3-13.9-3.8c-5.4,1.5-9.3,6.8-10.1,12.2c-1.1,7,2.2,13.8,5.9,19.5c0.5,0.7,3.3,1.5,2.9,0.6l0.3,0.1
		c0.3,0.5,1.2,1.1,1.7,1.2c3.8,0.6,5.3,5.6,7.2,8.4c1.2,1.8,2.6,3.5,4.3,4.8c3.1,2.5,7.1,4.3,11.1,3.7c6.3-0.9,10.4-7,16.5-8.8
		c10.3-3,14.2,4.9,18.7,12.1c5.3,8.4,12.6,12.5,22.5,12.8c4.7,0.1,11.9,0.3,16.2-1.8c1.3-0.7,2.3-1.4,2.7-2.8
		c0.4-1.3-0.2-2.6-0.2-3.9c0-2.9,1.1-5.1,2.6-7.5c3.3-5.3,6.9-10.5,11-15.2c2.6-3,5.4-5.6,8.4-8.1c1.9-1.5,3.5-2.8,3.6-5.4
		c0.1-3.1-1.7-6.9-2.5-9.9C339.7,276.4,339.3,273.6,338,271.3z"/>
	<path d="M456.8,283.4c-2.1,2.1-3.6,4.5-6.9,4.9c-3,0.4-5.7-0.9-8-2.6c-3.6-2.7-5.4-7-8.8-9.8c-6.9-5.7-11.4,2.7-17.2,5.1
		c-0.3,0.1-0.6,0.7-0.7,1.2c-0.1,0.2-0.1,0.4-0.1,0.5c0.7,4.2-0.3,8.4-3.4,11.5c-1.8,1.8-4.1,2.6-6.1,4c-1.9,1.3-3.2,2.9-4.1,5
		c-2.2,5.2-0.8,11.9,1,17c2.8,7.9,13.2,8.5,20.4,9.8c4.4,0.8,8.9,1.3,13.4,1.5c4,0.2,9.1,1,12.9-0.6c6-2.6,3.8-9.9,5.7-14.7
		c1.8-4.6,5.6-5.1,9.5-7.5c2.5-1.5,4.4-3.6,5.8-6.2c2.6-4.9,2.6-10.7-0.3-15.4C466.9,282.1,461.3,278.7,456.8,283.4z"/>
	<path d="M224.3,234.2c1.5,2.9,3.2,7.2,5.9,9.2c1.6,1.2,3,1.1,4.8,0.4c4.6-1.7,8.4-4.8,13.2-6.2c3.4-1,7.1-1.4,10.5-0.1
		c2.8,1.1,4.7,3.2,7.1,4.9c2.7,2,5.6,3.5,9,3.9c6.7,0.8,16.5-2.1,21.8-6.2c4.6-3.6,1.5-11.6-1.1-15.6c-3.1-4.7-8-8.2-13.6-9.4
		c-2.3-0.5-4.7-0.4-6.9-0.9c-5.5-1.2-6.6-5-8.1-9.2c-1-2.8-2.7-5.2-5-7c-6.3-4.8-14.2-4.1-20.9-0.5c-9.8,6-21.8,12.8-20.2,25.9
		C221,227.2,222.5,230.8,224.3,234.2z"/>
	<path d="M388.1,270.5c-0.6-5.2-4.4-8.7-9.1-9.9c-4.5-6.7-14.3-8-19.4-0.9c-3.8,5.3,0.5,11.2-0.7,16.9c-1.3,6.2-7.1,9.4-6.9,16.4
		c0.1,4.7,1.4,11.7,4.6,15.4c3.6,4.2,10.3,2.5,14.9,1.3c4.5-1.1,11.4-2.8,14.6-6.4c3.4-3.8-2.4-8.5-3.5-12.4
		C380.3,282.7,389.1,278.6,388.1,270.5z"/>
	<path d="M470.7,239c-3.2-1-4.2-4.1-6.8-5.6c-4.4-2.4-8.8,3.4-11.6,7.3c-5.6-1.6-12.9-1.1-12.2,6.4c0.7,7.4,7.1,15.2,11.4,21.1
		c0.2,0.2,0.4,0.4,0.7,0.2c7.1-4.1,14.8-0.8,22.1,0.7c3.7,0.7,12.1,2.1,13.8-2.7c0.5-1.5,0-3.5-0.2-5c-0.5-3.5-0.9-7-1.4-10.4
		c-0.8-5.4-2-10.4-5.3-14.8c-0.1-0.2-0.5-0.4-0.7-0.2C478,238.8,474.3,240.1,470.7,239z"/>
	<path d="M286.1,191.3c0,0.1,0.1,0.3,0.1,0.4c1.6,3.9,3.7,8.3,6.8,11.3c1.9,1.8,4,2.5,6.4,3.4c3,1.1,5.2,2.6,8.3,3.2
		c5.2,1,7.4,5,11.2,8.3c1.8,1.5,3.9,3.3,6.3,3.4c6.2,0.3,12.4-9.8,14.8-14.6c2.6-5.2,3.4-12.3-0.5-17.2c-3.5-4.3-9.1-3.1-13,0.1
		c-3.1,2.6-5.3,6.3-8.8,8.4c-6.1,3.6-9.6-0.2-13.7-4.5c-5.1-5.3-11.1-4.5-17.8-2.6c-0.1,0-0.1,0.1-0.1,0.1l0,0v0.1
		C286.1,191.2,286.1,191.2,286.1,191.3z"/>
	<path d="M192,283.4c-2-1.1-4.5-2.1-6.8-2.2c-1.7,0-1.8,0.1-3.3,0.9c-2.9,1.4-4.5,2.6-7.8,2.4c-4.7-0.3-13.4-4.4-15.4,2
		c0,0.1,0,0.2,0.1,0.3c0.9,5.1,2,10.1,2.8,15.3c0.6,4.1,0.5,8.2-0.1,12.3c-0.4,2.9-1.6,6.1-0.7,8.9c1.9,6,15.5,13.4,17.7,4.3
		c0.8-3.4,0.8-7.2,1.1-10.6c0.2-1.8,0.1-5.3,1.8-6.4c1.9-1.2,6.1-0.1,7.9,0.3c4,1,9.9,6.5,12.2,0.3
		C205.3,301.1,201.7,288.6,192,283.4z"/>
</g>
</svg>
