<?xml version="1.0" encoding="utf-8"?>
<!-- Generator: Adobe Illustrator 23.0.1, SVG Export Plug-In . SVG Version: 6.00 Build 0)  -->
<svg version="1.1" id="Layer_3" xmlns="http://www.w3.org/2000/svg" xmlns:xlink="http://www.w3.org/1999/xlink" x="0px" y="0px"
	 viewBox="0 0 566.93 566.93" enable-background="new 0 0 566.93 566.93" xml:space="preserve">
<g>
	<g>
		<path d="M47.777,307.922c2.761-2.517,4.648-5.569,6.732-8.633c0.424-0.623,0.848-1.457,1.409-1.965
			c1.199-1.088,1.514-0.652,2.845-0.453c1.322,0.198,1.15,0.947,1.874,2.713c0.742,1.809,3.225,6.483,5.702,6.229
			c2.617-0.268,1.111-4.348,0.558-5.697c-2.642-6.44-6.366-13.027-13.366-15.278c-3.177-1.022-4.127,0.396-5.957,2.943
			c-2.089,2.908-3.743,6.068-6.418,8.506C38.014,299.153,45.425,310.067,47.777,307.922L47.777,307.922z"/>
	</g>
</g>
<g>
	<g>
		<path d="M70.569,306.324c1.663-3.099,4.941-5.694,7.266-8.344c2.561-2.919,5.161-5.572,8.514-7.578
			c-2.701-1.535-5.403-3.069-8.104-4.604c2.501,3.415,5.259,5.606,8.568,8.097c1.952,1.469,3.668,4.252,6.051,6.726
			c1.536,1.594,5.516,5.045,7.297,2.016c1.669-2.839-2.313-8.231-4.03-10.013c-1.962-2.036-3.292-4.634-5.31-6.675
			c-1.272-1.287-2.689-2.364-4.192-3.367c-0.406-0.271-2.987-2.334-2.226-1.295c-1.422-1.942-5.239-6.317-8.104-4.604
			c-3.809,2.279-6.635,5.431-9.53,8.746c-2.525,2.891-5.699,5.457-7.528,8.865C56.789,298.864,67.828,311.43,70.569,306.324
			L70.569,306.324z"/>
	</g>
</g>
<g>
	<g>
		<path d="M99.478,301.986c2.909-3.146,4.831-6.735,6.906-10.454c0.951-1.703,1.955-4.75,4.293-3.977
			c1.74,0.575,1.894,2.32,2.444,3.932c0.868,2.543,2.596,6.487,5.367,7.483c2.657,0.955,2.618-2.107,2.005-3.904
			c-2.591-7.593-6.259-16.591-14.515-19.436c-3.744-1.29-4.815,1.213-6.595,4.286c-2.049,3.537-3.72,7.402-6.525,10.435
			C89.885,293.565,97.515,304.109,99.478,301.986L99.478,301.986z"/>
	</g>
</g>
<g>
	<g>
		<path d="M123.687,299.881c1.758-3.929,5.221-7.333,7.755-10.823c2.684-3.696,5.407-7.178,9.164-9.838
			c-3.11-2.169-6.22-4.338-9.329-6.508c2.598,4.254,5.522,7.575,9.41,10.669c2.248,1.789,3.699,5.32,5.903,8.013
			c1.415,1.729,5.363,6.611,8.104,4.604c2.592-1.899-0.659-7.544-1.945-9.115c-2.165-2.646-3.545-5.859-5.678-8.562
			c-1.188-1.505-2.496-2.869-3.958-4.115c-0.567-0.483-3.289-2.302-3.225-2.197c-1.179-1.931-6.006-8.861-9.329-6.508
			c-3.891,2.756-6.717,6.43-9.51,10.243c-2.86,3.905-6.703,7.675-8.686,12.107C110.199,292.68,121.418,304.95,123.687,299.881
			L123.687,299.881z"/>
	</g>
</g>
<g>
	<g>
		<path d="M157.136,296.248c1.394-3.699,4.435-6.875,6.621-10.159c2.47-3.711,4.9-7.166,8.428-9.951
			c-2.219-0.954-4.439-1.907-6.658-2.861c2.889,3.012,5.824,5.002,9.541,6.778c3.452,1.649,5.469,4.779,8.461,7.158
			c2.077,1.651,5.503,3.014,6.016-0.625c0.497-3.527-3.259-8.198-5.77-10.194c-2.482-1.974-4.292-4.666-6.854-6.6
			c-2.353-1.777-6.133-2.436-8.127-4.514c-1.2-1.251-4.626-4.465-6.658-2.861c-3.624,2.861-6.282,6.498-8.829,10.309
			c-2.466,3.689-5.934,7.342-7.498,11.491C143.92,289.231,155.257,301.235,157.136,296.248L157.136,296.248z"/>
	</g>
</g>
<g>
	<g>
		<path d="M189.244,286.313c2.985-4.234,4.401-9.132,6.42-13.845c0.955-2.228,1.06-4.112,3.645-3.382
			c3.077,0.87,4.053,2.781,5.388,5.469c0.886,1.784,3.126,6.493,5.702,6.229c2.546-0.261,1.216-4.373,0.558-5.697
			c-3.654-7.353-8.455-16.823-17.576-18.1c-3.991-0.558-4.889,3.776-6.137,6.93c-1.628,4.117-3.054,8.234-5.625,11.882
			C179.463,278.858,186.885,289.659,189.244,286.313L189.244,286.313z"/>
	</g>
</g>
<g>
	<g>
		<path d="M214.923,281.308c1.282-4.612,4.609-8.719,6.878-12.914c2.469-4.566,4.87-9.051,8.733-12.605
			c-2.701-1.535-5.403-3.069-8.104-4.604c3.381,4.297,6.994,7.303,11.732,9.983c3.594,2.033,6.076,6.702,9.27,9.65
			c1.997,1.843,5.522,2.877,6.016-0.625c0.524-3.719-3.342-7.953-5.77-10.194c-2.444-2.255-4.27-5.807-7.025-8.153
			c-2.122-1.807-6.644-3.367-8.064-5.172c-1.148-1.459-5.68-6.834-8.104-4.604c-3.972,3.654-6.716,8.228-9.277,12.93
			c-2.49,4.571-6.217,9.258-7.612,14.278c-0.983,3.537,1.71,7.563,4.03,10.013C208.635,280.358,213.958,284.782,214.923,281.308
			L214.923,281.308z"/>
	</g>
</g>
<g>
	<g>
		<path d="M251.013,271.876c1.886-3.543,5.62-6.561,8.273-9.588c2.809-3.205,5.659-6.13,9.338-8.333
			c-2.701-1.535-5.403-3.069-8.104-4.604c2.511,3.404,5.407,6.358,9.058,8.533c3.093,1.842,4.599,5.138,7.133,7.751
			c1.541,1.588,5.514,5.049,7.297,2.016c1.666-2.833-2.309-8.238-4.03-10.013c-2.202-2.27-3.689-5.155-5.949-7.426
			c-1.97-1.98-5.784-3.249-7.351-5.372c-1.429-1.937-5.235-6.321-8.104-4.604c-4.15,2.484-7.241,5.924-10.379,9.542
			c-2.842,3.276-6.462,6.221-8.51,10.069C237.246,264.43,248.295,276.982,251.013,271.876L251.013,271.876z"/>
	</g>
</g>
<g>
	<g>
		<path d="M283.517,266.941c3.211-3.496,5.323-7.493,7.607-11.621c1.153-2.083,2.188-5.299,5.018-4.511
			c2.286,0.637,2.718,3.272,3.39,5.22c0.851,2.466,2.602,6.602,5.367,7.483c2.64,0.841,2.658-2.01,2.005-3.904
			c-2.815-8.157-6.713-17.765-15.617-20.781c-4.052-1.373-5.183,1.42-7.096,4.748c-2.289,3.982-4.154,8.313-7.294,11.732
			C273.932,258.533,281.57,269.061,283.517,266.941L283.517,266.941z"/>
	</g>
</g>
<g>
	<g>
		<path d="M310.241,264.485c1.846-4.368,5.706-8.075,8.48-11.923c3.042-4.221,6.095-8.26,10.384-11.289
			c-3.11-2.169-6.22-4.338-9.329-6.508c2.916,4.888,6.337,8.156,10.655,11.739c3.013,2.5,5.087,7.331,7.796,10.57
			c1.435,1.716,5.569,4.955,7.297,2.016c1.736-2.953-2.413-8.08-4.03-10.013c-1.523-1.82-3.43-6.158-5.644-8.658
			c-1.394-1.574-2.896-2.992-4.555-4.292c-0.597-0.468-3.076-2.344-2.909-2.064c-1.162-1.948-6.015-8.849-9.329-6.508
			c-4.422,3.123-7.61,7.38-10.758,11.72c-3.068,4.229-7.339,8.347-9.383,13.182C296.845,257.351,308.108,269.531,310.241,264.485
			L310.241,264.485z"/>
	</g>
</g>
<g>
	<g>
		<path d="M345.523,260.184c2.326-3.163,6.691-5.638,9.685-8.193c3.242-2.766,6.484-5.25,10.443-6.898
			c-3.11-2.169-6.22-4.338-9.329-6.508c2.184,4.087,5.03,6.727,8.111,10.02c2.177,2.327,3.522,5.512,5.608,8.4
			c1.304,1.807,5.438,6.557,8.104,4.604c2.662-1.95-0.754-7.465-1.945-9.115c-1.852-2.565-2.87-5.647-4.815-8.207
			c-1.675-2.204-5.603-4.817-6.452-6.406c-1.456-2.723-5.578-8.07-9.329-6.508c-4.465,1.86-8.021,4.817-11.648,7.944
			c-3.342,2.88-7.133,5.265-9.759,8.837C331.29,252.106,341.861,265.164,345.523,260.184L345.523,260.184z"/>
	</g>
</g>
<g>
	<g>
		<path d="M378.345,260.329c3.461-2.817,6.032-6.377,8.702-9.915c1.094-1.45,2.928-4.846,4.691-4.608
			c2.232,0.301,2.212,3.788,2.552,5.582c0.564,2.972,2.15,6.414,4.682,8.227c1.922,1.376,3.822,0.876,3.3-1.878
			c-1.691-8.915-4.69-18.462-13.188-23.128c-4.014-2.204-5.364-0.14-7.94,3.052c-3.063,3.795-5.596,7.921-9.421,11.034
			C368.502,251.316,375.736,262.452,378.345,260.329L378.345,260.329z"/>
	</g>
</g>
<g>
	<g>
		<path d="M427.323,257.993c20.119-3.925,40.53-6.187,60.595-10.413c9.111-1.919,20.773-3.386,27.794-10.013
			c1.942-1.833,3.586-4.012,4.064-6.674c0.411-2.283-0.262-3.203,1.246-4.993c3.108-3.69,7.58-4.678,11.035-0.69
			c4.024,4.644,17.997-5.7,14.305-9.96c-6.641-7.665-17.602-4.924-25.189-0.242c-4.503,2.778-8.765,6.423-12.145,10.512
			c-3.348,4.05-4.086,7.399-4.266,12.459c0.257-0.939,0.513-1.878,0.77-2.817c4.457-2.935,5.303-3.891,2.537-2.869
			c-0.644,0.192-1.29,0.379-1.938,0.558c-1.422,0.4-2.848,0.777-4.283,1.129c-2.899,0.712-5.818,1.341-8.741,1.943
			c-6.739,1.386-13.521,2.559-20.309,3.671c-12.932,2.119-25.924,3.922-38.79,6.432c-3.88,0.757-8.294,3.403-10.115,7.043
			C422.41,256.033,423.658,258.708,427.323,257.993L427.323,257.993z"/>
	</g>
</g>
<g>
	<g>
		<path d="M425.628,250.382c-3.375-7.831-13.947-12.85-21.786-7.754c-8.374,5.444-8.683,15.258-4.391,23.377
			c0.929,1.757,2.786,3.062,4.024,1.013c1.293-2.139-0.381-6.098-1.378-7.985c0.487,0.922,3.098-2.986,3.521-3.45
			c1.195-1.311,2.282-2.283,4.019-2.836c2.644-0.843,10.642-1.196,12.045,2.06c0.603,1.399,2.392,4.567,4.244,3.032
			C427.681,256.385,426.3,251.941,425.628,250.382L425.628,250.382z"/>
	</g>
</g>
<g>
	<g>
		<path d="M533.708,241.467c2.283,1.603,3.824,4.052,4.356,6.811c0.198,1.028,0.052,2.04,0.137,3.067
			c-0.054,0.441-0.109,0.883-0.163,1.324c9.133-4.498,11.595-6.446,7.388-5.843c-3.546-0.373-7.723-0.279-11.247,0.13
			c-5.301,0.615-9.08,3.113-13.452,5.89c-5.237,3.327-11.573,5.314-17.291,7.625c-12.903,5.215-25.985,9.969-39.176,14.4
			c-10.38,3.487-16.672,8.186-18.813,19.168c-0.546,2.802-1.242,6.172-0.828,9.055c0.605,4.217,4.86,4.95,8.513,5.018
			c14.279,0.265,28.553-0.317,42.845,0.152c7.137,0.234,14.274,0.565,21.401,1.019c2.92,0.186,6.329,0.102,9.027,1.384
			c3.887,1.846,4.048,4.035,3.759,7.658c-0.13,1.628-1.267,1.064,0.372,0.338c-0.902,0.399-1.993,0.529-2.96,0.705
			c-2.888,0.525-5.853,0.703-8.774,0.938c-7.399,0.596-14.814,0.967-22.235,1.124c-33.097,0.704-66.125-2.26-99.054-5.209
			c-3.792-0.34-8.236,2.153-10.935,4.637c-1.481,1.363-4.392,5.169-0.503,5.517c32.274,2.891,64.635,5.788,97.074,5.246
			c13.844-0.231,29.176,0.341,42.54-3.679c8.013-2.411,28.455-14.407,17.547-24.727c-4.686-4.434-12.323-3.978-18.309-4.318
			c-7.779-0.443-15.564-0.762-23.353-0.956c-7.789-0.194-15.581-0.263-23.372-0.208c-3.246,0.023-6.492,0.068-9.738,0.134
			c-1.919,0.039-7.126,1.038-8.389-1.233c-1.175-2.112,0.57-7.956,1.046-10.112c0.34-1.541,1.902-4.037,1.914-5.464
			c-0.038,4.257-8.695,4.298-3.622,3.092c2.431-0.578,4.854-1.641,7.217-2.457c14.47-4.996,28.832-10.313,42.949-16.24
			c3.88-1.629,7.77-3.264,11.517-5.185c1.453-0.745,2.855-1.537,4.251-2.383c1.126-0.666,2.226-1.37,3.302-2.114
			c2.851-1.979,1.596-1.533-3.766,1.339c1.817,0.408,4.691-0.129,6.595-0.106c2.129,0.025,4.305,0.062,6.419-0.23
			c5.602-0.775,13.571-4.148,15.422-10.008c1.769-5.6-1.356-11.713-5.873-14.886C543.554,229.147,529.571,238.561,533.708,241.467
			L533.708,241.467z"/>
	</g>
</g>
<g>
	<g>
		<path d="M461.98,280.192c0.399,1.312,0.872,2.606,1.435,3.858c0.325,0.724,0.99,2.878,2.032,2.709
			c0.843-0.137,1.512-2.124,1.855-2.796c0.653-1.278,1.237-2.587,1.769-3.92c0.399-0.998,0.129-2.333-0.309-3.276
			c-0.233-0.501-1.045-1.597-1.449-0.584c-0.42,1.052-0.87,2.09-1.365,3.109c-0.215,0.442-1.053,2.715-1.542,2.792
			c0.179,0.075,0.358,0.15,0.536,0.225c0.508,0.613-0.152-0.44-0.203-0.549c-0.157-0.334-0.305-0.671-0.448-1.011
			c-0.297-0.707-0.535-1.433-0.758-2.166c-0.161-0.528-0.725-1.945-1.48-1.407C461.338,277.687,461.794,279.578,461.98,280.192
			L461.98,280.192z"/>
	</g>
</g>
<g>
	<g>
		<path d="M470.562,277.025c0.399,1.312,0.872,2.606,1.435,3.858c0.325,0.724,0.99,2.878,2.032,2.709
			c0.843-0.137,1.512-2.124,1.855-2.796c0.653-1.278,1.237-2.587,1.769-3.92c0.398-0.998,0.129-2.333-0.309-3.276
			c-0.233-0.501-1.045-1.597-1.449-0.584c-0.42,1.052-0.87,2.09-1.365,3.109c-0.215,0.442-1.053,2.715-1.542,2.792
			c0.179,0.075,0.358,0.15,0.536,0.225c0.508,0.613-0.152-0.44-0.203-0.549c-0.157-0.334-0.305-0.671-0.448-1.011
			c-0.297-0.707-0.535-1.433-0.758-2.166c-0.161-0.528-0.725-1.945-1.48-1.407C469.92,274.521,470.376,276.412,470.562,277.025
			L470.562,277.025z"/>
	</g>
</g>
<g>
	<g>
		<path d="M479.772,273.859c0.399,1.312,0.872,2.606,1.435,3.858c0.325,0.724,0.99,2.878,2.032,2.709
			c0.843-0.137,1.512-2.124,1.855-2.796c0.653-1.278,1.237-2.587,1.769-3.92c0.399-0.998,0.129-2.333-0.309-3.276
			c-0.233-0.501-1.045-1.597-1.449-0.584c-0.42,1.052-0.87,2.09-1.365,3.109c-0.215,0.442-1.053,2.715-1.542,2.792
			c0.179,0.075,0.358,0.15,0.537,0.225c0.508,0.613-0.152-0.44-0.203-0.549c-0.157-0.334-0.305-0.671-0.448-1.011
			c-0.297-0.707-0.535-1.433-0.758-2.166c-0.161-0.528-0.725-1.945-1.48-1.407C479.13,271.354,479.586,273.245,479.772,273.859
			L479.772,273.859z"/>
	</g>
</g>
<g>
	<g>
		<path d="M489.215,270.348c0.399,1.312,0.872,2.606,1.435,3.858c0.325,0.724,0.99,2.878,2.032,2.709
			c0.843-0.137,1.512-2.124,1.855-2.796c0.653-1.278,1.237-2.587,1.769-3.92c0.398-0.998,0.129-2.333-0.309-3.276
			c-0.233-0.501-1.045-1.597-1.449-0.584c-0.42,1.052-0.87,2.09-1.365,3.109c-0.215,0.442-1.053,2.715-1.542,2.792
			c0.179,0.075,0.358,0.15,0.536,0.225c0.508,0.613-0.152-0.44-0.203-0.549c-0.157-0.334-0.305-0.671-0.448-1.011
			c-0.297-0.707-0.535-1.433-0.758-2.166c-0.161-0.528-0.725-1.945-1.48-1.407C488.573,267.843,489.028,269.735,489.215,270.348
			L489.215,270.348z"/>
	</g>
</g>
<g>
	<g>
		<path d="M498.425,267.182c0.399,1.312,0.872,2.606,1.435,3.858c0.325,0.724,0.99,2.878,2.032,2.709
			c0.843-0.137,1.512-2.124,1.855-2.796c0.653-1.278,1.237-2.587,1.769-3.92c0.399-0.998,0.129-2.333-0.309-3.276
			c-0.233-0.501-1.045-1.597-1.449-0.584c-0.42,1.052-0.87,2.09-1.365,3.109c-0.215,0.442-1.053,2.715-1.542,2.792
			c0.179,0.075,0.358,0.15,0.537,0.225c0.508,0.613-0.152-0.44-0.203-0.549c-0.157-0.334-0.305-0.671-0.448-1.011
			c-0.297-0.707-0.535-1.433-0.758-2.166c-0.161-0.528-0.725-1.945-1.48-1.407C497.783,264.677,498.238,266.568,498.425,267.182
			L498.425,267.182z"/>
	</g>
</g>
<g>
	<g>
		<path d="M509.328,262.479c0.399,1.312,0.872,2.606,1.435,3.858c0.325,0.724,0.99,2.878,2.032,2.709
			c0.843-0.137,1.512-2.124,1.855-2.796c0.653-1.278,1.237-2.587,1.769-3.92c0.398-0.998,0.129-2.333-0.309-3.276
			c-0.233-0.501-1.045-1.597-1.449-0.584c-0.42,1.052-0.87,2.09-1.365,3.109c-0.215,0.442-1.053,2.715-1.542,2.792
			c0.179,0.075,0.358,0.15,0.537,0.225c0.508,0.613-0.152-0.44-0.203-0.549c-0.157-0.334-0.305-0.671-0.448-1.011
			c-0.297-0.707-0.535-1.433-0.758-2.166c-0.161-0.528-0.725-1.945-1.48-1.407C508.686,259.974,509.141,261.866,509.328,262.479
			L509.328,262.479z"/>
	</g>
</g>
<g>
	<g>
		<path d="M518.538,259.313c0.399,1.312,0.872,2.606,1.435,3.858c0.325,0.724,0.99,2.878,2.032,2.709
			c0.843-0.137,1.512-2.124,1.855-2.796c0.653-1.278,1.237-2.587,1.769-3.92c0.399-0.998,0.129-2.333-0.309-3.276
			c-0.233-0.501-1.045-1.597-1.449-0.584c-0.42,1.052-0.87,2.09-1.365,3.109c-0.215,0.442-1.053,2.715-1.542,2.792
			c0.179,0.075,0.358,0.15,0.536,0.225c0.508,0.613-0.152-0.44-0.203-0.549c-0.157-0.334-0.305-0.671-0.448-1.011
			c-0.297-0.707-0.535-1.433-0.758-2.166c-0.161-0.528-0.725-1.945-1.48-1.407C517.896,256.808,518.352,258.699,518.538,259.313
			L518.538,259.313z"/>
	</g>
</g>
<g>
	<g>
		<path d="M535.258,304.398c0.045-1.484,0.005-2.977-0.158-4.453c-0.128-1.156-0.196-3.764-1.492-4.335
			c-0.856-0.378-2.14,1.304-2.662,1.811c-1.051,1.022-2.045,2.098-2.995,3.215c-0.638,0.75-0.344,2.174-0.074,3.016
			c0.113,0.351,0.863,2.133,1.48,1.407c0.777-0.914,1.581-1.802,2.426-2.653c0.774-0.78,1.594-1.739,2.536-2.307
			c-0.166,0.033-0.332,0.067-0.497,0.1c0.065,0.011,0.131,0.022,0.196,0.034c-0.259-0.322-0.517-0.644-0.776-0.966
			c-0.578-1.504-0.232-0.547-0.176-0.004c0.035,0.339,0.062,0.678,0.084,1.017c0.044,0.692,0.037,1.381,0.016,2.074
			c-0.029,0.945,0.175,2.509,0.98,3.141C534.956,306.132,535.238,305.06,535.258,304.398L535.258,304.398z"/>
	</g>
</g>
<g>
	<g>
		<path d="M525.519,302.137c0.045-1.484,0.005-2.977-0.158-4.453c-0.128-1.156-0.196-3.764-1.492-4.335
			c-0.856-0.378-2.14,1.304-2.661,1.811c-1.051,1.022-2.045,2.098-2.995,3.215c-0.638,0.75-0.344,2.174-0.074,3.016
			c0.113,0.351,0.862,2.133,1.48,1.407c0.777-0.914,1.581-1.802,2.426-2.653c0.774-0.78,1.594-1.739,2.536-2.307
			c-0.166,0.033-0.332,0.067-0.497,0.1c0.065,0.011,0.131,0.022,0.196,0.034c-0.259-0.322-0.517-0.644-0.776-0.966
			c-0.578-1.504-0.232-0.547-0.176-0.004c0.035,0.339,0.062,0.678,0.084,1.017c0.044,0.692,0.037,1.381,0.016,2.074
			c-0.029,0.945,0.175,2.509,0.98,3.141C525.217,303.871,525.499,302.799,525.519,302.137L525.519,302.137z"/>
	</g>
</g>
<g>
	<g>
		<path d="M516.375,302.396c0.045-1.484,0.005-2.977-0.158-4.453c-0.128-1.156-0.196-3.764-1.492-4.335
			c-0.856-0.378-2.14,1.304-2.661,1.811c-1.051,1.022-2.045,2.098-2.995,3.215c-0.638,0.75-0.344,2.174-0.074,3.016
			c0.113,0.351,0.863,2.133,1.48,1.407c0.777-0.914,1.581-1.802,2.426-2.653c0.774-0.78,1.594-1.739,2.536-2.307
			c-0.166,0.033-0.332,0.067-0.497,0.1c0.065,0.011,0.131,0.022,0.196,0.034c-0.258-0.322-0.517-0.644-0.776-0.966
			c-0.578-1.504-0.232-0.547-0.176-0.004c0.035,0.339,0.062,0.678,0.084,1.017c0.044,0.692,0.037,1.381,0.016,2.074
			c-0.029,0.945,0.175,2.509,0.98,3.141C516.073,304.13,516.355,303.058,516.375,302.396L516.375,302.396z"/>
	</g>
</g>
<g>
	<g>
		<path d="M506.636,302.455c0.045-1.484,0.005-2.977-0.158-4.453c-0.128-1.156-0.196-3.764-1.492-4.335
			c-0.856-0.378-2.14,1.304-2.661,1.811c-1.051,1.022-2.045,2.098-2.995,3.215c-0.638,0.75-0.344,2.174-0.074,3.016
			c0.113,0.351,0.863,2.133,1.48,1.407c0.777-0.914,1.581-1.802,2.426-2.653c0.774-0.78,1.594-1.739,2.536-2.307
			c-0.166,0.033-0.332,0.067-0.497,0.1c0.065,0.011,0.131,0.022,0.196,0.034c-0.259-0.322-0.517-0.644-0.776-0.966
			c-0.578-1.504-0.232-0.547-0.176-0.004c0.035,0.339,0.062,0.678,0.084,1.017c0.044,0.692,0.037,1.381,0.016,2.074
			c-0.029,0.945,0.175,2.509,0.98,3.141C506.334,304.189,506.616,303.117,506.636,302.455L506.636,302.455z"/>
	</g>
</g>
<g>
	<g>
		<path d="M496.567,302.764c0.045-1.484,0.005-2.977-0.158-4.453c-0.128-1.156-0.196-3.764-1.492-4.335
			c-0.856-0.378-2.14,1.304-2.662,1.811c-1.051,1.022-2.045,2.098-2.995,3.215c-0.638,0.75-0.344,2.174-0.074,3.016
			c0.113,0.351,0.863,2.133,1.48,1.407c0.777-0.914,1.581-1.802,2.426-2.653c0.774-0.78,1.594-1.739,2.536-2.307
			c-0.166,0.033-0.332,0.067-0.497,0.1c0.065,0.011,0.131,0.022,0.196,0.034c-0.259-0.322-0.517-0.644-0.776-0.966
			c-0.578-1.504-0.232-0.547-0.176-0.004c0.035,0.339,0.062,0.678,0.084,1.017c0.044,0.692,0.037,1.381,0.016,2.074
			c-0.029,0.945,0.175,2.509,0.98,3.141C496.265,304.499,496.547,303.427,496.567,302.764L496.567,302.764z"/>
	</g>
</g>
<g>
	<g>
		<path d="M486.828,302.823c0.045-1.484,0.005-2.977-0.158-4.453c-0.128-1.156-0.196-3.764-1.492-4.335
			c-0.856-0.378-2.14,1.304-2.661,1.811c-1.051,1.022-2.045,2.098-2.995,3.215c-0.638,0.75-0.344,2.174-0.074,3.016
			c0.113,0.351,0.863,2.133,1.48,1.407c0.777-0.914,1.581-1.802,2.426-2.653c0.774-0.78,1.594-1.739,2.536-2.307
			c-0.166,0.033-0.332,0.067-0.497,0.1c0.065,0.011,0.131,0.022,0.196,0.034c-0.259-0.322-0.517-0.644-0.776-0.966
			c-0.578-1.504-0.232-0.547-0.176-0.004c0.035,0.339,0.062,0.678,0.084,1.017c0.044,0.692,0.037,1.381,0.016,2.074
			c-0.029,0.945,0.175,2.509,0.98,3.141C486.526,304.557,486.807,303.485,486.828,302.823L486.828,302.823z"/>
	</g>
</g>
<g>
	<g>
		<path d="M474.994,303.796c0.045-1.484,0.005-2.977-0.158-4.453c-0.128-1.156-0.196-3.764-1.492-4.335
			c-0.856-0.378-2.14,1.304-2.662,1.811c-1.051,1.022-2.045,2.098-2.995,3.215c-0.638,0.75-0.344,2.174-0.074,3.016
			c0.113,0.351,0.863,2.133,1.48,1.407c0.777-0.914,1.581-1.802,2.426-2.653c0.774-0.78,1.594-1.739,2.536-2.307
			c-0.166,0.033-0.332,0.067-0.497,0.1c0.065,0.011,0.131,0.022,0.196,0.034c-0.259-0.322-0.517-0.644-0.776-0.966
			c-0.578-1.504-0.232-0.547-0.176-0.004c0.035,0.339,0.062,0.678,0.084,1.017c0.044,0.692,0.037,1.381,0.016,2.074
			c-0.029,0.945,0.175,2.509,0.98,3.141C474.692,305.53,474.974,304.458,474.994,303.796L474.994,303.796z"/>
	</g>
</g>
<g>
	<g>
		<path d="M465.255,303.854c0.045-1.484,0.005-2.977-0.158-4.453c-0.128-1.156-0.196-3.764-1.492-4.335
			c-0.856-0.378-2.14,1.304-2.661,1.811c-1.051,1.022-2.045,2.098-2.995,3.215c-0.638,0.75-0.344,2.174-0.074,3.016
			c0.113,0.351,0.863,2.133,1.48,1.407c0.777-0.914,1.581-1.802,2.426-2.653c0.774-0.78,1.594-1.739,2.536-2.307
			c-0.166,0.033-0.332,0.067-0.497,0.1c0.065,0.011,0.131,0.022,0.196,0.034c-0.259-0.322-0.517-0.644-0.776-0.966
			c-0.578-1.504-0.232-0.547-0.176-0.004c0.035,0.339,0.062,0.678,0.084,1.017c0.044,0.692,0.037,1.381,0.016,2.074
			c-0.029,0.945,0.175,2.509,0.98,3.141C464.953,305.588,465.235,304.516,465.255,303.854L465.255,303.854z"/>
	</g>
</g>
<g>
	<g>
		<path d="M537.814,225.289c-6.102-5.213-3.282-5.236-2.93-2.512c0.125,0.966,0.333,1.922,0.43,2.897
			c0.266,2.675,0.217,5.364,0.163,8.048c-0.097,4.866,5.254,10.446,8.851,13.118c2.634,1.956,7.333,4.126,7.432-0.84
			c0.114-5.708-0.12-11.328-2.123-16.744c-2.669-7.214-7.452-12.979-13.242-17.925c-2.356-2.013-7.56-3.987-7.432,0.84
			C529.097,217.258,534.291,222.28,537.814,225.289L537.814,225.289z"/>
	</g>
</g>
<g>
	<g>
		<path d="M40.163,299.014c-6.598,0.036-11.673-4.934-10.125-11.817c1.253-5.574,5.096-10.949,8.815-15.155
			c8.369-9.465,19.95-15.309,31.936-18.789c13.481-3.914,27.8-5.146,41.759-6.023c15.08-0.947,30.192-0.893,45.27,0.049
			c2.896,0.181,0.49-3.144-0.318-3.933c-2.046-1.997-4.992-3.381-7.84-3.559c-19.013-1.188-38.085-0.943-57.05,0.891
			c-16.254,1.572-33.168,3.994-47.722,11.873c-10.914,5.909-25.132,17.627-26.278,31.028c-0.552,6.462,4.914,12.433,9.695,16.008
			c5.814,4.348,12.73,6.957,20.014,6.917c2.842-0.015,0.595-3.042-0.318-3.933C46.07,300.685,42.934,298.999,40.163,299.014
			L40.163,299.014z"/>
	</g>
</g>
<g>
	<g>
		<path d="M388.282,317.011c-38.603-9.701-79.077-8.378-118.513-6.266c-39.323,2.106-78.404,7.198-117.616,10.651
			c-38.647,3.403-77.721,5.456-116.359,0.844c-9.858-1.177-18.754-3.075-21.982-13.75c-1.713-5.663-0.912-11.758,0.613-17.365
			c3.468-12.753,11.013-26.52,21.662-34.669c15.127-11.573,38.827-9.323,56.697-9.331c23.667-0.01,47.335-0.021,71.002-0.031
			c2.068-0.001,7.029-0.885,7.64-3.39c0.657-2.698-3.481-2.885-5.136-2.885c-22.352,0.01-44.705,0.02-67.057,0.03
			c-19.346,0.009-39.482-0.803-58.046,5.594c-14.689,5.062-24.677,14.757-32.322,28.131c-6.07,10.619-12.232,25.796-7.354,37.987
			c3.458,8.64,10.416,12.955,19.328,14.572c9.876,1.792,20.027,2.547,30.035,3.172c20.46,1.278,40.997,1.069,61.463,0.031
			c41.721-2.117,83.164-7.621,124.768-11.174c23.234-1.984,46.545-3.201,69.864-3.481c24.467-0.294,49.021,1.053,72.831,7.037
			c2.861,0.719,6.76,0.275,9.177-1.524C390.98,319.701,390.959,317.683,388.282,317.011L388.282,317.011z"/>
	</g>
</g>
<g>
	<g>
		<path d="M329.134,314.25c-5.309,9.174-15.983,33.336-1.705,39.77c7.297,3.288,16.853,3.78,24.728,4.717
			c9.406,1.119,18.861,1.626,28.333,1.635c2.859,0.003,5.78-1.578,7.57-3.799c0.979-1.215,2.476-4.633-0.466-4.636
			c-15.464-0.014-30.922-1.404-46.092-4.445c-3.355-0.673-6.944-1.36-8.841-4.532c-1.59-2.66-1.44-6.068-1.117-9.034
			c0.81-7.442,3.432-14.557,7.164-21.006c1.28-2.212-0.003-3.702-2.37-3.52C333.611,309.609,330.477,311.929,329.134,314.25
			L329.134,314.25z"/>
	</g>
</g>
<g>
	<g>
		<path d="M345.506,311.662c-1.851,5.672-5.175,12.466-4.064,18.6c1.03,5.687,6.052,9.869,10.919,12.384
			c5.583,2.884,11.493,3.807,17.732,3.663c0.379-0.009,7.405-0.408,7.453,0.013c-1.972-1.466-2.835-1.453-2.59,0.04
			c0.05,1.096-0.127,2.166-0.532,3.212c-0.501,1.733-1.304,3.318-2.171,4.891c-2.098,3.806,11.042,10.723,13.252,6.714
			c2.584-4.687,4.504-10.586,1.063-15.326c-3.164-4.357-8.826-6.873-13.965-7.901c-2.382-0.477-4.751-0.516-7.168-0.464
			c-2.221,0.048-8.352,1.161-10.116-0.378c0.996,0.868-0.343-2.122-0.435-2.731c-0.265-1.753,0.042-3.536,0.453-5.244
			c0.875-3.639,2.261-7.205,3.421-10.759C360.245,313.818,346.757,307.828,345.506,311.662L345.506,311.662z"/>
	</g>
</g>
<g>
	<g>
		<path d="M145.267,316.632c-5.309,9.174-15.983,33.336-1.705,39.77c7.297,3.288,16.853,3.78,24.728,4.717
			c9.407,1.119,18.861,1.626,28.333,1.635c2.859,0.003,5.78-1.578,7.57-3.799c0.979-1.215,2.476-4.633-0.466-4.636
			c-15.464-0.014-30.922-1.404-46.092-4.445c-3.355-0.673-6.944-1.36-8.841-4.532c-1.59-2.66-1.44-6.068-1.117-9.034
			c0.81-7.442,3.432-14.557,7.164-21.006c1.28-2.212-0.003-3.702-2.37-3.52C149.745,311.991,146.61,314.31,145.267,316.632
			L145.267,316.632z"/>
	</g>
</g>
<g>
	<g>
		<path d="M161.639,314.044c-1.851,5.672-5.175,12.466-4.064,18.6c1.03,5.687,6.052,9.869,10.919,12.384
			c5.583,2.884,11.493,3.807,17.732,3.663c0.379-0.009,7.405-0.408,7.453,0.013c-1.972-1.466-2.835-1.453-2.59,0.04
			c0.05,1.096-0.127,2.166-0.532,3.212c-0.501,1.733-1.304,3.318-2.171,4.891c-2.098,3.806,11.042,10.723,13.252,6.714
			c2.584-4.687,4.504-10.586,1.063-15.326c-3.164-4.357-8.825-6.873-13.965-7.901c-2.382-0.477-4.751-0.516-7.168-0.464
			c-2.221,0.048-8.352,1.161-10.116-0.378c0.996,0.868-0.343-2.122-0.435-2.731c-0.265-1.753,0.042-3.536,0.453-5.244
			c0.875-3.639,2.261-7.205,3.421-10.759C176.379,316.2,162.89,310.21,161.639,314.044L161.639,314.044z"/>
	</g>
</g>
<ellipse transform="matrix(0.9442 -0.3293 0.3293 0.9442 -62.6743 150.7136)" fill="none" stroke="#000000" stroke-width="3" stroke-miterlimit="10" cx="413.64" cy="260.401" rx="6.267" ry="3.8"/>
<g>
	<g>
		<path d="M0.544,362.986c73.428-0.993,146.791,2.798,220.188,4.194c74.07,1.409,148.128-0.534,222.146-3.255
			c41.534-1.527,83.06-3.263,124.596-4.715c1.823-0.064,0.413-4.723-1.087-4.671c-73.764,2.579-147.5,6.067-221.297,7.645
			c-73.958,1.581-147.754-0.147-221.678-2.29c-41.307-1.198-82.629-2.138-123.955-1.579C-2.352,358.34-0.971,363.007,0.544,362.986
			L0.544,362.986z"/>
	</g>
</g>
</svg>
