<?xml version="1.0" encoding="utf-8"?>
<!-- Generator: Adobe Illustrator 23.0.1, SVG Export Plug-In . SVG Version: 6.00 Build 0)  -->
<svg version="1.1" xmlns="http://www.w3.org/2000/svg" xmlns:xlink="http://www.w3.org/1999/xlink" x="0px" y="0px"
	 viewBox="0 0 566.9 566.9" style="enable-background:new 0 0 566.9 566.9;" xml:space="preserve">
<style type="text/css">
	.st0{display:none;}
</style>
<g id="Layer_2" class="st0">
	
		<image style="display:inline;overflow:visible;" width="200" height="200" xlink:href="../References/cup.png"  transform="matrix(1.7925 0 0 1.7925 21 104.215)">
	</image>
</g>
<g id="Layer_3">
	<path d="M548,215.5c-5.5-26.3-20.3-52.8-49.7-55.6c-25.9-2.4-50.6,10.3-71.5,25.5c3.1-11.6,6.7-23.2,10.7-34.7
		c3.7-10.3,7.8-20.4,12.2-30.4c1.3-1.5,2-3.7,2.5-5.8c1.8-5.4,1.7-11.9-0.9-16.9c-0.6-1.1-1.3-2-2.1-2.6c-0.4-1-1-1.7-1.8-2
		c-20.4-8.2-43.6-11.1-65.2-14.2c-28.6-4.2-57.5-7.3-86.4-9.2c-11.6-0.8-23.2-1.4-34.9-1.5c-11.8-0.1-23.6,0.8-35.5,1
		c-32.6,0.7-65.3,0.3-97.9,2.7c-15.8,1.1-31.6,2.8-47,6.7c-11.4,2.9-23,6.8-31.6,15.2c-0.3,0.3-0.5,0.7-0.7,1.1
		c-1.6,1.2-2.8,3.4-3.4,5.5c-1.5,5.1-1.8,14.3,2.4,18.5c1.1,1.1,2.2,2.3,3.2,3.6c0.5,0.6,0.9,1.2,1.4,1.9c0.2,0.3,0.4,0.6,0.6,0.9
		c2.1,3.6,4,7.2,5.6,10.9c0.5,1,0.9,2.1,1.3,3.2c0.1,0.4,0.3,0.7,0.4,1.1c0.9,2.4,1.8,4.9,2.6,7.3c1.7,5.3,3.3,10.6,4.7,16
		c1.5,5.8,2.9,11.6,4.1,17.4c0,0,0,0.1,0,0.1c0.1,0.6,0.3,1.3,0.4,1.9c0.3,1.6,0.6,3.2,1,4.9c0.6,3.3,1.3,6.7,1.9,10
		c2.5,14.3,4.6,28.7,6.5,43.1c7.6,59,11.5,118.4,15.7,177.7c1.4,20.1,2.7,40.3,5.2,60.3c2.1,16,5,34.1,15.7,46.9
		c6.8,8.2,16.4,11.7,26.8,12.4c12.5,0.9,25.3,0.1,37.8-0.1c52.7-0.7,105.4-2.4,158-5.1c12.9-0.7,25.8-1.4,38.7-2.2
		c5.3-0.3,10.8-0.3,14.5-4.8c4.1-5.1,4.7-12,5.2-18.3c1.9-24.8,3.1-49.6,3.9-74.4c0.3-10.8,0.6-21.7,1-32.6c0.1,0,0.2,0,0.3,0
		c28.6-4.5,56.5-13.8,80.1-31c22.3-16.2,40.2-38.2,51.9-63.1C549,278.6,554.5,246.2,548,215.5z M120.3,85.9
		c31.9-2.8,63.9-2.6,95.8-3.1c23.7-0.4,47.2-1.6,70.9-0.3c27.9,1.6,55.8,4.4,83.6,8.1c14.7,2,29.4,4.2,43.9,7.1c2.5,0.5,5,1,7.5,1.5
		c-93.1,13.1-187.7,14.8-281.2,5c-23.3-2.4-46.5-5.6-69.6-9.5c2.6-0.9,5.2-1.7,7.8-2.4C92.5,88.8,106.5,87.1,120.3,85.9z
		 M390.5,384.6c-0.7,23.6-1.2,47.1-2.2,70.7c-0.5,12.1-1.1,24.2-1.9,36.3c-0.1,2.1-0.3,4.3-0.5,6.4c0,0.4-0.5,3.3-0.7,5.4
		c-0.8,0.1-2,0.3-2.1,0.3c-3.3,0.3-6.6,0.4-9.9,0.6c-52.3,3.1-104.6,5.2-157,6.4c-12.6,0.3-25.2,0.5-37.8,0.6
		c-12.2,0.2-24.9,1.3-37.1-0.3c-19.4-2.5-23.4-19.8-25.7-35.3c-2.7-18.3-3.8-36.9-5.1-55.3c-4.3-58.1-7.9-116.3-14.8-174.1
		c-3.4-28.2-7.5-56.3-13.8-84c-3.1-13.6-6.6-27.7-12-40.8c95.5,16,193,20,289.6,11.8c23.7-2,47.4-4.8,70.9-8.3
		c-14.4,37.7-24,77-29.8,117C393.7,289.2,391.8,337,390.5,384.6z M527.7,284.7c-9.6,21.9-24.7,41.8-43.6,56.5
		c-23.2,18-50.9,28-79.6,32.7c1.7-51.6,4.6-103.1,14.4-153.5c18.8-15.2,40.4-29.7,64.7-33c11.9-1.6,24.2-0.5,34.2,6.7
		c7.9,5.7,12.9,15,15.8,24.1C540.5,239.9,537,263.5,527.7,284.7z"/>
</g>
</svg>
