<?xml version="1.0" encoding="utf-8"?>
<!-- Generator: Adobe Illustrator 23.0.1, SVG Export Plug-In . SVG Version: 6.00 Build 0)  -->
<svg version="1.1" xmlns="http://www.w3.org/2000/svg" xmlns:xlink="http://www.w3.org/1999/xlink" x="0px" y="0px"
	 viewBox="0 0 566.9 566.9" style="enable-background:new 0 0 566.9 566.9;" xml:space="preserve">
<g id="Layer_2">
</g>
<g id="Layer_3">
	<g>
		<path d="M521.5,274.9C521.5,274.9,521.6,274.9,521.5,274.9c0.1,0,0.2-0.2,0.2-0.3C521.7,274.7,521.6,274.8,521.5,274.9z"/>
		<path d="M565.4,416c-22.5-0.9-44.6,0.6-66.7,3.5c0.3-1.7,0.4-3.2,0.3-4.2c-1.1-25.2-2.1-50.5-2.9-75.8c7.1,0.1,14.3,0.1,21.4-0.3
			c8.4-0.5,21.7,1.3,27.9-5.7c3.9-4.4,3.9-10.8,4.2-16.3c0.2-4.9,0.5-9.9,1-14.8c0.1-1.3,0.3-2.6,0.5-3.9c0-0.3,0.3-1.6,0.3-1.8
			c0.2-0.9,0.5-1.8,0.7-2.6c1.1-4.9,1.1-10,1.1-15c0-9.2,0.3-18.8-1.3-27.9c-0.6-3.5-1.4-7.4-3.5-10.3c-2.9-4-6.6-2.6-10.8-1.4
			c-5.4,1.5-9.8,4-12.9,8.8c-3,4.6-3.8,10-6.4,14.7c-1.8,3.4-3.2,5.8-3.4,9.9c-0.3,5.2,0.4,10.5,1,15.6c0,0,0,0.3,0.1,0.7
			c-1.4,1.8-1.3,4.9-2.5,6.9c-3.5,6-12.2,1.1-17.9,2.4c-0.2,0.1-0.4,0.1-0.6,0.2c-0.8-31.4-1.2-62.9-1.3-94.3
			c-0.1-35.4,0.7-70.7,1-106.1c0.1-12.9-1.2-29.4-11.5-38.6c-10.8-9.5-26.1-3.9-33.5,7c-11,16-9.2,37-9.4,55.6
			c-0.2,16.6-0.5,33.2-0.8,49.8c-0.2,10.3-0.3,20.6-0.5,30.9c-4.8-0.8-10.8,2.4-15.1,0.2c-5.7-2.9-4.1-15.8-3.6-20.9
			c1.3-13.6,2.8-26.6,0.9-40.2c-1.5-11.1-3.9-27.5-13.8-34.6c-3.6-2.6-10.2-5.2-14.7-4.8c-3.3,0.3-5,3.9-6,6.7
			c-3,8.4-2.6,17.9-2.8,26.7c-0.2,10.5-0.4,21-0.3,31.4c0,9.1,0.3,18.3,0.7,27.4c0.2,5.1,0.4,10.3,0.7,15.4c0.3,6.6,0,13.5,1.2,20
			c2.8,14.1,16.7,12.8,28.1,13.4c8,0.5,16,0.5,24.1,0.4c-0.2,13.2-0.4,26.4-0.5,39.6c-0.1,9.4-0.2,18.8-0.1,28.3
			c0.3,30.8-3,61.2-7.2,91.8c-1,7.3-2.1,14.6-3.2,21.9c-0.3,1.8-0.4,4.4-0.1,7c-24.4,5.3-48.7,10.8-73.1,15.2
			c-36.6,6.6-73.4,9.6-110.6,7.8c-38.1-1.8-76-7.6-113.6-13.8c-40.3-6.6-81.7-13.2-121.8-2c-4.1,1.1-3.4,14.5,1.8,13
			c35.6-9.9,73-5.1,108.9,0.7c37.5,6,75,12.3,112.9,14.9c37.1,2.5,73.9,0.9,110.6-5.1c35-5.7,69.4-14.2,104-21.4
			c39.2-8.1,79-14.3,119.1-12.6C570,429.7,570.2,416.2,565.4,416z M546.3,286.7C546.3,287.2,546.3,287,546.3,286.7L546.3,286.7z
			 M521.3,275.3C521.5,275.2,521.6,275.2,521.3,275.3C521.3,275.3,521.3,275.3,521.3,275.3z M516,289.6c0.1,0.5,0.1,1,0.1,1
			C515.8,290.6,515.9,290.1,516,289.6z M495.7,312c4.8-1.1,9.2,1.1,14,0.6c4.9-0.5,7.5-4.1,9.2-8.3c2.7-6.5,4.4-12.3,3.5-19.3
			c-0.3-2.2-0.5-4.3-0.7-6.5c-0.1-1.1,0-2.2-0.2-3.3c0,0,0-0.1,0-0.1c0,0-0.1,0.1-0.1,0.1c0,0,0.1-0.1,0.1-0.1
			c-0.2-1.7,0.3-0.9,0.2-0.3c0.3-0.4,0.5-0.8,0.5-0.8c1-1.6,1.7-3.3,2.4-5.1c2-5.1,3.1-10.5,8-13.7c2.2-1.4,9.9-4.9,11.9-3
			c1.4,1.4,1.3,6.3,1.4,8.1c0.3,3.9,0.3,7.8,0.3,11.7c0.1,3.7,0.1,7.4,0.1,11.1c0,1.1,0,2.3-0.1,3.4c0,0.4-0.1,0.8-0.1,1.2
			c0,0.2,0,0.4,0,0.5c0,0.1-0.1,0.3-0.2,0.8c-0.4,1.6-0.8,3.2-1.1,4.9c-1.3,7.2-1.5,14.5-1.9,21.8c-0.1,2.8,0.3,5.6-2.1,7.4
			c-2.1,1.7-5.5,1.9-8,2.1c-5.1,0.4-10.2,0.5-15.3,0.8c-7.3,0.4-14.5,0.4-21.8,0.3c-0.1-4.7-0.3-9.4-0.4-14
			C495.5,312,495.6,312,495.7,312z M419.8,230.6c-3.7-0.2-7.3-0.4-11-0.6c-4.4-0.2-11.7,0.5-15.2-2.9c-2.9-2.8-1.7-12-1.9-15.9
			c-0.2-5.4-0.5-10.8-0.7-16.3c-0.3-8-0.6-15.9-0.6-23.9c-0.1-8.8,0-17.7,0.2-26.5c0.1-8.2-0.5-17,1.2-25.1c0.7-3.6,0.9-3.4,4.7-2.6
			c6,1.3,10.8,3.6,13.4,9.5c4.8,10.8,6.1,24.1,5.6,35.8c-0.6,14-4.3,27.9-0.8,41.8c1.2,4.9,3.3,11,8.6,12.7
			c5.1,1.7,10.3-1.1,15.5-0.2c-0.1,4.7-0.1,9.5-0.2,14.2C432.3,230.9,426,230.9,419.8,230.6z M440.8,429.8
			c4.4-29.1,7.9-58.3,9.5-87.7c0.9-15,0.7-29.9,0.8-44.9c0.3-32.9,0.9-65.8,1.3-98.7c0.5-30.2,1-60.5,1.4-90.7
			c0.1-8-0.4-17.2,7.2-22.8c4.4-3.2,10.6-4.7,15.4-1.5c1.7,1.1,2.7,2.4,3.4,3.9c-0.1-0.3,0.3,1,0.6,1.7c0,0.1,0.5,2.5,0.5,3
			c0,0.2,0.1,1.1,0.2,1.6c0,0.3,0,0.7,0,0.8c0,1.3,0,2.6,0,3.9c0,4.1-0.2,8.1-0.2,12.2c-0.2,8.9-0.3,17.8-0.4,26.7
			c-0.2,16.9-0.3,33.8-0.3,50.8c0,67.2,1.6,134.4,4.3,201.6c0.3,8.6,0.7,17.2,1.1,25.8c0.1,1.5,0.2,3.8,0.7,6
			C471.1,423.7,455.9,426.6,440.8,429.8z"/>
		<path d="M77.5,156.3c15.1,9.7,32.1,16.3,49.8,19.5c17.6,3.2,36.4,3.2,53.7-1.3c16.9-4.4,29.6-14.5,36.1-30.9
			c6.3-15.9,8-35.1,4.4-51.8c-3.8-17.9-15.4-29.8-31.3-38.2c-9.7-5.1-19.9-9.5-30-13.8c-9.1-3.9-19.9-10-30.1-9.9
			c-10,0.1-19.5,7.3-27.4,12.8c-0.4,0.3-0.8,0.6-1.3,0.9C91.1,46.9,82.1,55.1,75.7,64C70.3,71.6,65.7,80,61.4,88.3
			c-4.3,8.3-7.8,17.1-8.5,26.5C51.5,133.5,62.5,146.6,77.5,156.3z M63.4,103.5c3.7-8.2,8.3-16.3,13.1-23.9c0.9-1.4,1.8-2.7,2.8-4.1
			c0.7,0.4,1.5,0.3,2.5-0.6c6.3-6.3,13.1-12.6,20.5-18c5-1.7,10.4-2.2,16.2-0.9c3,0.7,4.2-6.3,2.7-10.5c7.9-3.5,15-1.8,22.8,1.3
			c8.4,3.3,16.8,6.9,25.1,10.6c13.5,6,29.1,12,38.7,23.8c9.7,11.9,9.9,28.6,7.2,43c-2.8,14.9-10.9,27.3-25,33.6
			c-13.8,6.2-30.2,7.2-45.2,6.5c-15.6-0.8-31.1-4.3-45.5-10.4c-12.8-5.4-28-13.1-36.1-24.8C57.6,120.9,59.6,112,63.4,103.5z"/>
		<path d="M27.5,241.7c12.3-20.2,24.7-40.4,37-60.6c2.3-3.7-0.8-16-4.8-9.5c-12.3,20.2-24.7,40.4-37,60.6
			C20.5,235.9,23.6,248.2,27.5,241.7z"/>
		<path d="M96.6,187c-6.4,37-12.7,74-19.1,111c-0.4,2.2-0.2,7.2,2.4,8.3c2.7,1.1,3.8-2.9,4.2-4.7c6.4-37,12.7-74,19.1-111
			c0.4-2.2,0.2-7.2-2.4-8.3C98,181.1,97,185.1,96.6,187z"/>
		<path d="M139.5,185c-2.7,0-3.5,4.9-3.4,6.8c3.1,50.6,10.2,100.8,21.4,150.2c0.5,2.4,2.5,4.3,4.6,2.4c2.3-2,1.8-6.7,1.2-9.2
			c-10.7-47.1-17.6-95.2-20.5-143.4C142.8,189.8,142.4,185,139.5,185z"/>
		<path d="M178.9,185.3c-2.2,1.9-1.8,6.8-1.2,9.2c10,39.7,25.3,78,45.5,113.7c1.4,2.4,3.4,2.4,4.8,0c1.4-2.5,1.4-7,0-9.5
			c-19.7-34.9-34.6-72.1-44.4-111C183,185.4,181.1,183.5,178.9,185.3z"/>
		<path d="M294.1,242.7c2.4,1.8,3.9-3.3,4.2-4.7c0.4-2.8,0-6.5-2.4-8.3c-24.2-18.2-45.2-40.7-61.6-66.2c-4.1-6.4-7.1,5.9-4.8,9.5
			C246.9,199.9,268.6,223.4,294.1,242.7z"/>
		<path d="M249.1,125.5c24,2.1,48,3.4,72,3.9c4.6,0.1,4.8-13.4,0-13.5c-24-0.5-48.1-1.8-72-3.9C244.7,111.6,244.3,125,249.1,125.5z"
			/>
		<path d="M232.9,68.5c11.9-7.1,23.8-14.2,35.8-21.3c11.1-6.5,22.5-12.9,35.1-15.9c4.9-1.2,4-14.5,0-13.5
			c-12.7,3.1-24.2,8.9-35.4,15.5c-12.5,7.3-24.9,14.8-37.3,22.2C227.2,57.8,228.7,71,232.9,68.5z"/>
	</g>
</g>
</svg>
