<?xml version="1.0" encoding="utf-8"?>
<!-- Generator: Adobe Illustrator 23.0.1, SVG Export Plug-In . SVG Version: 6.00 Build 0)  -->
<svg version="1.1" xmlns="http://www.w3.org/2000/svg" xmlns:xlink="http://www.w3.org/1999/xlink" x="0px" y="0px"
	 viewBox="0 0 566.9 566.9" style="enable-background:new 0 0 566.9 566.9;" xml:space="preserve">
<style type="text/css">
	.st0{display:none;}
	.st1{stroke:#000000;stroke-width:0.25;stroke-miterlimit:10;}
</style>
<g id="Layer_2" class="st0">
	
		<image style="display:inline;overflow:visible;" width="256" height="256" xlink:href="../../References/dish.png"  transform="matrix(1.6292 0 0 1.6292 74.93 74.93)">
	</image>
</g>
<g id="Layer_3">
	<path d="M557.9,265.9c0-0.8,0-1.7-0.1-2.7c0-0.1,0-0.1,0-0.2c0-0.1,0-0.3,0-0.4c-12.8-22.4-27.3-27.2-51.5-37.3
		c-40.3-16.9-85-24.3-128.3-28.9c-55.7-6-112.1-6.4-167.9-1.7c-45.4,3.8-92.8,9.5-135.8,24.9c-24,8.6-40.4,11.9-60.8,33.9
		c-10.1,10.9-0.8,29.6,8.1,41.5c7.8,10.5,19.9,17.8,31.5,23.5c36.7,18.2,79.1,26,119.4,31.4c55.1,7.4,111.1,8.8,166.5,5.6
		c48-2.8,96.5-9.1,142.6-23.3c15.7-4.8,31.4-10.7,45.5-19.2c10.6-6.4,20.9-14.7,26.3-26.1c2.8-5.9,4.2-12.3,4.5-18.9
		C557.9,267.1,557.9,266.5,557.9,265.9z M535,275.2c-0.4,0.4-0.8,0.7-1.2,1.1c-0.2,0.2-0.3,0.3-0.4,0.3c-0.1,0.1-0.2,0.2-0.4,0.3
		c-10.9,8.6-23.7,14.6-36.6,19.6c-38.9,15-81,21.7-122.3,25.9c-53.1,5.4-106.9,5.9-160.2,1.7c-43.4-3.4-87.5-9.5-128.9-23.3
		C70.8,296,56.5,290.3,43.8,282c-5.5-3.5-7.9-5.3-11.9-9.7c-1.2-1.3-2.3-2.7-3.3-4.1c-0.1-0.2-1-1.7-1.3-2.2c0-0.1-0.1-0.1-0.1-0.1
		c0-0.1,0-0.1,0.1-0.2c0.1-0.3,0.7-1.2,1-1.7c0.4-0.6,1-1.5,1.2-1.7c0.8-1.1,1.7-2.1,2.7-3.1c0.8-0.9,1.7-1.7,2.5-2.5
		c0.5-0.5,1-0.9,1.5-1.4c0.1,0,0.1-0.1,0.1-0.1c0.1-0.1,0.2-0.2,0.4-0.3c2.4-1.9,4.9-3.7,7.5-5.3c5.9-3.8,12.1-7,18.4-9.8
		c36.3-16.4,76.9-23.5,116.1-28.4c52.3-6.5,105.5-7.8,158.1-4.9c45.3,2.6,91.4,8,135.1,20.7c15.7,4.5,31.2,10,45.6,17.8
		c5.4,2.9,10.6,6.2,15.4,10c0.1,0.1,0.3,0.2,0.4,0.3c0,0,0.1,0.1,0.1,0.1c0.5,0.5,1,0.9,1.5,1.4c1,0.9,1.9,1.8,2.8,2.8
		c0.7,0.7,1.3,1.5,2,2.3c0.6,0.7,2.5,3.9,1.6,2.2c0.4,0.6,0.7,1.3,1.1,2c-0.5,0.8-1.4,2.4-1.3,2.3c-1.1,1.5-2.2,2.9-3.4,4.2
		C536.9,273.3,536,274.3,535,275.2z"/>
	<path class="st1" d="M496.5,270.2c0,0.4,0,0.9-0.1,1.4c0,0,0,0.1,0,0.1c0,0.1,0,0.1,0,0.2c-9.9,11.5-21.1,14-39.8,19.3
		c-31.1,8.7-65.6,12.5-98.9,14.9c-42.9,3.1-86.5,3.3-129.5,0.9c-35-2-71.6-4.9-104.8-12.9c-18.5-4.4-31.2-6.1-46.9-17.5
		c-7.8-5.6-0.6-15.3,6.2-21.4c6-5.4,15.4-9.2,24.3-12.1c28.3-9.4,61-13.4,92.1-16.2c42.5-3.8,85.7-4.6,128.4-2.9
		c37,1.5,74.5,4.7,110,12c12.1,2.5,24.2,5.5,35.1,9.9c8.2,3.3,16.1,7.6,20.3,13.5c2.2,3.1,3.2,6.4,3.5,9.7
		C496.4,269.6,496.5,270,496.5,270.2z M478.8,265.5c-0.3-0.2-0.6-0.4-0.9-0.6c-0.1-0.1-0.2-0.1-0.3-0.2c-0.1,0-0.2-0.1-0.3-0.2
		c-8.4-4.5-18.3-7.6-28.2-10.1c-30-7.8-62.5-11.2-94.3-13.4c-41-2.8-82.5-3-123.6-0.9c-33.5,1.8-67.5,4.9-99.5,12.1
		c-11,2.5-22,5.4-31.8,9.7c-4.2,1.8-6.1,2.7-9.2,5c-0.9,0.7-1.8,1.4-2.5,2.1c-0.1,0.1-0.8,0.9-1,1.1c0,0,0,0-0.1,0.1
		c0,0,0,0.1,0.1,0.1c0.1,0.1,0.5,0.6,0.7,0.9c0.3,0.3,0.8,0.8,0.9,0.9c0.6,0.6,1.3,1.1,2.1,1.6c0.6,0.4,1.3,0.9,1.9,1.3
		c0.4,0.2,0.8,0.5,1.2,0.7c0,0,0.1,0,0.1,0.1c0.1,0,0.2,0.1,0.3,0.2c1.9,1,3.8,1.9,5.8,2.8c4.5,1.9,9.3,3.6,14.2,5.1
		c28,8.5,59.3,12.2,89.6,14.7c40.4,3.4,81.3,4.1,122,2.5c35-1.3,70.5-4.1,104.2-10.7c12.1-2.3,24.1-5.2,35.2-9.2
		c4.2-1.5,8.2-3.2,11.9-5.2c0.1-0.1,0.2-0.1,0.3-0.2c0,0,0.1,0,0.1-0.1c0.4-0.2,0.8-0.5,1.2-0.7c0.7-0.5,1.5-0.9,2.1-1.4
		c0.5-0.4,1-0.8,1.5-1.2c0.4-0.4,2-2,1.2-1.1c0.3-0.3,0.6-0.7,0.8-1c-0.4-0.4-1.1-1.2-1-1.2c-0.8-0.8-1.7-1.5-2.6-2.2
		C480.3,266.4,479.5,265.9,478.8,265.5z"/>
	<path d="M149.9,345.5c20.8,17.8,51.1,24.1,77.3,27.8c31.9,4.5,64.7,4.6,96.8,1.9c21.8-1.8,43.9-5.1,64.5-12.5
		c10.2-3.7,20.5-8.6,28.5-16.1c2.5-2.4,0.9-13-2.8-9.5c-5.7,5.4-14.4,9.9-22.3,13.1c-18.5,7.5-38.6,11-58.4,13.1
		c-31.4,3.4-63.5,3.6-94.9,0.4c-20.9-2.2-42-6-61.6-13.9c-6-2.4-11.8-5.2-17.2-8.6c-1.7-1.1-3.4-2.2-5-3.4c-0.5-0.4-1-0.8-1.6-1.2
		c-0.9-0.7-0.6-0.5-0.7-0.5C148.8,332.7,147.3,343.2,149.9,345.5L149.9,345.5z"/>
</g>
</svg>
