<?xml version="1.0" encoding="utf-8"?>
<!-- Generator: Adobe Illustrator 23.0.1, SVG Export Plug-In . SVG Version: 6.00 Build 0)  -->
<svg version="1.1" id="Layer_1" xmlns="http://www.w3.org/2000/svg" xmlns:xlink="http://www.w3.org/1999/xlink" x="0px" y="0px"
	 viewBox="0 0 566.93 566.93" enable-background="new 0 0 566.93 566.93" xml:space="preserve">
<path d="M385.876,209.295c0.05-0.039,0.101-0.078,0.154-0.119c-0.471,0.142-0.762,0.306-0.87,0.412
	C385.397,209.479,385.635,209.38,385.876,209.295z"/>
<path d="M530.6,278.075c-1.097,0.051-2.194,0.103-3.291,0.154c-1.529,0.071-3.148,1.504-4.093,3.121
	c-3.457,2.146-6.735,4.775-10.08,6.822c-6.826,4.176-14.774,6.918-22.309,9.513c-14.242,4.905-29.004,7.685-43.535,11.501
	c-30.553,8.026-63.194,14.306-94.848,14.988c-15.544,0.335-31.12-0.368-46.672-0.265c-15.687,0.104-31.375,0.142-47.061-0.123
	c-31.58-0.532-62.714-3.4-93.88-8.429c-26.985-4.354-54.669-4.199-81.098-11.771c-8.832-2.53-17.589-5.781-26.082-9.266
	c-8.495-3.485-17.642-7.543-24.622-13.645c-1.407-1.229-4.546,0.768-3.563,2.543c4.595,8.3,14.164,12.667,22.518,16.368
	c9.31,4.125,18.998,7.343,28.632,10.611c14.179,4.811,29.626,6.38,44.423,8.047c15.21,1.713,30.318,3.401,45.423,5.91
	c30.494,5.063,61.604,6.099,92.459,6.501c31.399,0.41,62.772-0.294,94.154-1.163c15.382-0.425,30.685-2.425,45.835-5.033
	c15.292-2.633,30.3-6.799,45.611-9.266c12.591-2.029,25.215-5.127,37.413-9.015c-1.418,0.983-2.659,2.467-3.718,3.623
	c-3.945,4.307-7.306,9.045-10.323,14.04c-3.192,5.284-5.963,10.756-8.471,16.395c-1.193,2.684-6.231,14.973-8.2,23.422
	c-5.114,4.759-13.236,8.041-15.955,9.265c-6.664,3-13.008,6.08-20.124,7.762c-31.234,7.385-62.771,12.282-94.798,14.435
	c-32.428,2.18-65.413,3.015-97.807,0.059c-16.096-1.469-32.096-3.932-47.997-6.801c-14.649-2.643-30.29-4.146-44.363-9.154
	c-8.007-2.85-18.872-3.536-25.399-9.378c-0.312-0.279-0.663-0.454-1.031-0.545c-0.365-0.828-0.855-1.492-1.464-1.951
	c-4.961-10.101-7.214-21.378-12.253-31.495c-2.453-4.925-5.663-9.482-8.904-13.909c-3.039-4.152-6.031-9.009-10.335-11.929
	c-1.046-0.71-2.967,0.794-2.729,1.962c0.89,4.365,3.524,7.952,5.922,11.645c3.387,5.216,6.558,10.507,9.091,16.195
	c4.98,11.18,6.737,23.395,10.407,35.006c0.182,0.574,0.581,1.064,1.076,1.43c6.836,2.888,23.446,7.288,31.068,10.437
	c13.543,5.595,28.664,7.117,42.948,9.924c31.589,6.207,63.415,9.312,95.603,9.186c32.267-0.126,64.561-1.501,96.547-5.94
	c15.358-2.131,30.565-5.146,45.704-8.47c5.186-1.139,11.006-1.739,15.918-3.765c3.043-1.255,6.069-2.554,9.096-3.849
	c5.418-2.318,10.775-5.023,16.32-7.007c3.401-1.217,8.526-2.381,10.597-5.671c1.082-1.718,1.52-3.775,1.023-5.349
	c3.121-7.337,6.698-19.885,7.659-22.649c1.648-4.74,3.715-9.327,5.947-13.817c2.092-4.208,4.508-8.225,7.207-12.069
	c1.345-1.916,2.833-3.72,4.375-5.479c0.755-0.861,5.595-6.741,8.363-9.386c4.632-1.78,9.187-3.757,13.667-5.89
	c6.714-3.197,12.467-7.585,19.337-10.476C533.199,284.613,536.445,277.801,530.6,278.075z M454.929,365.001
	c0,0.002-0.001,0.004-0.001,0.006c-0.006,0.004-0.009,0.007-0.015,0.011C454.918,365.011,454.923,365.008,454.929,365.001z"/>
<path stroke="#000000" stroke-width="4" stroke-miterlimit="10" d="M546.696,224.833c-2.036-7.369-11.233-9.3-20.28-12.696
	c-10.421-3.912-22.22-6.162-33.557-8.428c-15.15-3.028-30.563-5.419-46.065-7.424c-30.996-4.009-62.644-7.08-94.049-8.865
	c-28.417-1.615-56.796-2.871-85.319-3.017c-14.868-0.076-29.739,0.209-44.582,0.794c-14.729,0.581-29.505,1.065-44.098,2.661
	c-1.261,0.138-21.228,2.489-28.081,3.363c-7.93,1.012-15.837,2.115-23.712,3.313c-15.701,2.388-31.189,5.388-46.316,9.139
	c-15.302,3.794-31.001,7.499-44.798,13.53c-12.142,5.307-16.315,6.263-16.723,34.856c2.036,10.738,10.233,17.923,19.28,22.872
	c10.421,5.7,22.22,8.979,33.557,12.281c15.15,4.413,30.563,7.896,46.065,10.818c30.996,5.842,62.644,8.86,94.049,11.461
	c28.417,2.354,56.796,4.184,85.319,4.397c14.868,0.111,29.739-0.304,44.582-1.157c14.729-0.847,29.505-1.552,44.098-3.877
	c1.261-0.201,20.228-2.169,27.081-3.443c7.93-1.474,15.837-3.082,23.712-4.828c15.701-3.48,31.189-7.851,46.316-13.317
	c15.302-5.528,31.001-10.928,44.798-19.716C553.004,252,547.617,228.166,546.696,224.833z M536.761,248.454
	c-2.598,5.901-9.05,9.919-14.35,13.086c-12.909,7.713-27.463,12.412-41.562,17.429c-13.921,4.954-28.232,8.764-42.622,12.08
	c-7.638,1.76-15.324,3.3-23.025,4.756c-7.084,1.339-25.492,3.696-27.174,3.876c-16.058,1.722-32.043,4.042-48.172,5.049
	c-16.159,1.009-32.356,1.361-48.544,1.238c-32.087-0.244-64.291-3.368-96.219-6.424c-31.422-3.008-62.53-7.446-93.313-14.5
	c-14.407-3.302-28.793-7.187-42.742-12.094c-10.162-3.574-20.855-8.377-28.024-16.683c-4.952-5.736-4.535-22.477-3.71-29.341
	s9.797-8.428,15.097-10.601c12.909-5.293,27.463-8.518,41.562-11.961c13.921-3.4,28.232-6.014,42.622-8.29
	c7.638-1.208,15.324-2.265,23.025-3.264c7.084-0.919,25.492-2.536,27.174-2.66c16.058-1.182,32.043-2.774,48.172-3.465
	c16.159-0.692,32.356-0.934,48.544-0.85c32.087,0.167,64.291,2.311,96.219,4.409c31.422,2.064,62.53,5.11,93.313,9.951
	c14.407,2.266,28.793,4.932,42.742,8.3c10.162,2.453,25.873,6.68,33.042,12.38C542.924,224.141,537.982,245.682,536.761,248.454z"/>
<path d="M-439.247,126.279"/>
<path d="M492.362,222.056c-9.013-5.947-26.527-9.177-40.096-11.544c-21.344-3.725-44.164-5.417-66.456-7.021
	c-30.326-2.181-60.856-3.125-91.441-3.809c-51.728-1.158-104.879-0.901-154.654,7.073c-12.031,1.927-23.734,4.365-34.952,7.269
	c-1.188,0.308-9.655,1.976-21.524,5.986c-1.782,0.59-3.534,1.201-5.223,1.857c-19.158,8.799-10.689,24.045-7.267,28.56
	c9.013,11.893,26.527,18.353,40.096,23.089c21.344,7.45,44.164,10.834,66.456,14.041c30.326,4.362,60.856,6.25,91.441,7.619
	c51.728,2.315,104.879,1.801,154.654-14.146c12.031-3.854,23.734-8.731,34.952-14.539c9.165-4.745,18.569-9.332,26.747-15.687
	c6.52-5.067,12.751-13.89,11.336-22.267C495.554,225.763,492.718,222.291,492.362,222.056z M456.297,252.107
	c-23.286,13.466-50.105,20.603-76.512,24.658c-27.512,4.225-55.487,4.958-83.273,4.427c-29.079-0.556-58.282-2.084-87.207-5.133
	c-22.586-2.381-45.048-5.957-67.34-10.284c-10.372-2.013-20.311-4.503-30.264-8.081c-10.265-3.69-29.999-14.93-29.999-14.93
	s-4.46-3.411-4.164-7.314c0-0.017,0.002-0.035,0.002-0.053c0,0-0.028-3.731,6.387-6.844c3.904-2.154,15.811-5.292,22.887-7.338
	c23.286-6.733,50.105-10.302,76.512-12.329c27.512-2.112,55.487-2.479,83.273-2.214c29.079,0.278,58.282,1.042,87.207,2.567
	c22.586,1.19,45.048,2.979,67.34,5.142c10.372,1.007,20.311,2.252,30.264,4.041c9.039,1.625,18.76,3.51,26.817,6.286
	c0.371,1.084,1.923,4.876,1.718,8.964C470.816,243.125,463.35,248.029,456.297,252.107z"/>
</svg>
