<?xml version="1.0" encoding="utf-8"?>
<!-- Generator: Adobe Illustrator 23.0.1, SVG Export Plug-In . SVG Version: 6.00 Build 0)  -->
<svg version="1.1" id="Layer_3" xmlns="http://www.w3.org/2000/svg" xmlns:xlink="http://www.w3.org/1999/xlink" x="0px" y="0px"
	 viewBox="0 0 566.9 566.9" style="enable-background:new 0 0 566.9 566.9;" xml:space="preserve">
<g>
	<path d="M544.4,129.6c-6.7-25-25-45.6-47.7-57.5c-29.5-15.5-63.4-13.7-95.2-7.3c-1.3,0.3-2.1,1.5-2.5,3.1
		c-6.4-11.8-14.3-22.7-24.9-31.5c-20.3-16.9-47.4-25.9-73.7-23.9c-6.1,0.5-12.2,1.6-18.1,3.2c0,0,0,0,0,0
		c-35.3-0.4-75.7,1.4-105,23.7c-7.1,5.4-13.7,10.7-19.1,18.1c-1.7,2.3-3.3,4.7-4.9,7.2c-31.7-6.5-65.5-8.2-95,7.3
		c-22.7,11.9-41,32.6-47.7,57.5c-0.4,1.6-0.7,4.2,0,6c-0.4,1.6-0.4,3.6-0.3,4.6c0.7,5.7,3.7,10,7,14.6c3.7,5.1,7.5,10,11.5,14.7
		c8.1,9.6,17,18.5,26.5,26.7c0.1,0.2,0.2,0.3,0.4,0.4c0.5,0.4,1,0.6,1.4,0.6c0.1,0,0.1,0,0.2,0c0,0,0,0,0,0c0.8,0,1.5-0.8,1.9-1.9
		c0,0,0,0,0-0.1c0,0,0,0,0,0c0.1-0.2,0.2-0.4,0.2-0.6c3.4-10.6,7.2-21.1,12.1-31c3.4-6.8,7.6-12.7,14.1-16.9
		c15.2-9.9,32.8-7.2,47.5,2.2c1.2,0.8,2.2-0.2,2.7-1.9c3.1,15,9.6,29.1,17.3,42.3c7.9,13.5,16.6,27.1,27.2,38.6
		c6.7,7.3,14.4,13.1,22.9,17.5c-1.5,4.8-3.2,9.6-5,14.3c-0.2-2.9-1.4-5.6-3.5-4.7c-18.2,7.7-36.5,15.1-54.5,23.3
		c-9.2,4.2-18.3,8.7-27.3,13.5c-7.6,4.1-15.2,8.3-21.6,14.1c-10.8,9.8-16.7,27.5-8.3,40.7c9.6,15.2,29.9,11.3,44.3,7
		c14.9-4.4,28.8-11.4,41.3-20.4c-0.2,0.5-0.4,1-0.6,1.6c-10.8,30.5-19.5,61.7-26.1,93.3c-2.1,4.5-2.9,10.1-1.7,14.8
		c0.6,2.5,1.8,4.3,4.4,4.9c1.6,0.4,3.2,0.6,4.8,0.6c12.5,0.6,25,1.3,37.4,1.9c-3,17.4-5.9,34.9-8.1,52.4
		c-1.9,14.5-6.8,35.3,4.4,47.3c8.9,9.6,24.3,9.2,34.8,2.5c13-8.3,20.7-23.7,26.2-37.6c7.4-18.4,11-38.1,11-58c0-1-0.2-2.9-0.9-4.2
		c15,0.2,30.1,0.2,45.1-0.1c-0.8,1.3-1,3.3-1,4.3c0,17.6,2.8,35.2,8.6,51.8c5.2,14.5,12.2,30.4,24.3,40.5
		c9.7,8.2,24.6,11.6,35.6,3.7c13.4-9.6,10.4-28.4,8.8-42.5c-2.4-20.4-5.7-40.6-9.2-60.8c17.8-1.2,35.6-2.8,53.3-4.7
		c3.9-0.4,3.6-11.4,0-11c-0.6,0.1-1.3,0.1-1.9,0.2c-0.1-0.7-0.2-1.4-0.3-2c-7.4-34.6-15.9-68.9-25.5-103c11.8,9.4,25,16.9,39.3,22
		c14.7,5.2,35,11.4,48-0.4c11.3-10.3,8.5-29.3-0.2-40.2c-5.2-6.5-12.4-11.1-19.5-15.2c-8.5-4.9-17.3-9.4-26.1-13.6
		c-20.4-9.7-41.4-18.2-62.2-26.9c-0.8-0.4-1.5-0.1-2.1,0.5c-1.3-3.9-2.6-7.8-4-11.7c-2.3-6.8-6.1,1.7-4.7,5.6
		c20.9,60.8,38.2,122.7,51.7,185.6c-67.9,7-136.2,8.8-204.3,5.6c-18.1-0.9-36.2-1.8-54.3-2.7c-0.4-0.4-0.9-0.6-1.4-0.5
		c-0.8,0.2-1.7,0.3-2.5,0.3c-0.5,0-1.1-0.1-1.6-0.1c-0.4-0.1-1.2-0.3-1.9-0.4c0-0.1,0.1-0.2,0.1-0.4c0.1-0.7,0.3-1.5,0.5-2.2
		c0,0,0-0.1,0-0.1c0.7-1.2,0.9-2.7,0.9-4.2c6.6-31.1,15.3-61.7,26-91.6c1.6-4.4,3.2-8.7,5-13.1c0.2-0.2,0.4-0.3,0.5-0.5
		c0.9-0.7,1.3-2.4,1.3-4.1c9.8-24.2,21.2-48,28.6-73.1c3.2,1.3,6.5,2.4,10,3.3c16,4.2,33.1,5.5,49.6,6.3c17.6,0.9,35.1-0.2,52.3-3.7
		c16.3-3.4,32.2-8.7,47.2-15.9c7.9-3.8,15.6-8.2,23.1-12.8c6.9-4.2,14.3-8.2,20.6-13.2c11.9-9.5,12.5-28.5,13.1-42.6
		c0.3-7.4,0-14.7-0.8-22c14.1-8.2,30.6-10,45-0.7c6.2,4,10.4,9.6,13.7,16.1c5.1,10.2,9,21,12.5,31.8c0.1,0.2,0.1,0.4,0.2,0.6
		c0.5,1.3,1.2,2.1,2.2,2c0.4,0,0.8-0.2,1.3-0.6c0.1-0.1,0.3-0.3,0.4-0.4c9.5-8.2,18.4-17.1,26.5-26.7c4-4.8,7.9-9.7,11.5-14.7
		c3.3-4.6,6.3-8.9,7-14.6c0.1-1,0.2-3.1-0.3-4.6C545,133.7,544.8,131.1,544.4,129.6z M459.7,307c9.6,5.6,29.9,20.1,18.5,32.9
		c-10.8,12.2-31.7,5.6-44.5,1.1c-16-5.6-31-14.2-43.8-25.4c-0.7-0.6-1.3-0.7-1.9-0.6c-4.7-16.1-9.7-32.2-14.9-48.1
		C402.4,279.2,432.3,290.9,459.7,307z M360.9,450.2c3.4,19.8,6.7,39.5,9.1,59.5c1,8.6,4.4,20.9-0.6,28.8c-4,6.2-12,8.5-19,8.1
		c-17.5-1-27.8-18.4-34.3-32.7C308,496,304,476.6,304,457.1c0-1-0.2-3.1-1-4.3c19-0.4,37.9-1.2,56.9-2.4
		C360.2,450.3,360.6,450.2,360.9,450.2z M250.7,452.8c-0.7,1.3-0.9,3.3-0.9,4.2c0,19.6-4,39-12.2,56.8
		c-6.5,14.2-16.8,31.7-34.3,32.7c-7,0.4-15-1.8-19-8.1c-5-7.8-1.6-20.2-0.6-28.8c2.4-19.7,5.7-39.3,9.1-58.9
		C212.1,451.7,231.4,452.5,250.7,452.8z M175,316.8c-11,9.3-23.5,16.8-36.9,22.2c-13,5.2-31.7,12-45.1,4.8
		c-6.6-3.5-9.7-9.8-7.1-16.9c2.6-7.1,8.9-12.3,14.9-16.4c13.6-9,28.8-16,43.6-22.7c17-7.7,34.3-14.8,51.6-22
		c-3,7.6-6.2,15.1-9.4,22.6C182.6,297.7,178.7,307.2,175,316.8z M355.1,35.3c10.8,5.7,20.6,13.4,28.5,22.7C393,69.1,399,82.4,404,96
		c-38.9-20.2-91.4-30.2-113.5-71C312.4,20.8,335.5,24.9,355.1,35.3z M177.5,51.1c23.7-17.8,52.6-22.6,81.7-23.9
		c5.4-0.2,10.7-0.4,16.1-0.4c-14.3,22.1-34.8,39.5-56.9,53.6c-12.3,7.8-25.1,14.7-38.1,21.2c-12.7,6.3-24.8,12.3-39.1,9.1
		c2.7-13,8.1-25.5,15.1-36.8C162.2,64.7,168.9,57.6,177.5,51.1z M83.5,136.7c-6.5,4.5-11.2,10.6-14.8,17.6
		c-5,9.7-8.9,20.2-12.4,30.6c-7.4-6.5-14.4-13.5-21-20.9c-3.5-4-7-8.1-10.2-12.3c-3-3.9-8.7-9.4-9.3-14.4c-0.1-0.5-0.2-1.1-0.4-1.7
		c0-0.1,0.1-0.3,0.1-0.4c6.4-24,25.1-43.1,47.1-53.8c26.7-13,56.6-11.9,85.1-6.7c-4.1,7.9-7.4,16.1-9.7,24.6
		c-3.4,12.6-4.7,25.9-3.3,38.9C118.9,128.1,99.4,125.7,83.5,136.7z M419.6,170.3c-0.4,7.8-0.9,17.1-4.1,24.3
		c-2.9,6.8-10.1,10.2-16,14c-6.9,4.3-13.9,8.6-21,12.6c-13.7,7.6-28.1,13.8-43.1,18.2c-31.3,9-63.3,8.6-95.4,4.7
		c-10.2-1.2-20.4-3.1-30-6.9c-0.2-0.4-0.4-0.7-0.7-0.9c-0.9-0.8-1.7-0.8-2.3-0.3c-3.5-1.6-6.9-3.4-10.2-5.7
		c-11.8-8.1-20.7-19.8-28.7-31.6c-15.7-23.2-30.3-48.8-28.3-77.4c0,0,0.1,0,0.1,0c14.7,3.9,27.3-1.9,40.3-8.3
		c14.1-7,28.1-14.4,41.3-23c23.9-15.4,45.4-34.7,60.1-59.2c0.5-0.9,0.7-2.4,0.6-4c0.1,0,0.1,0,0.2,0c0.4,0,0.7-0.1,1-0.3
		c0.1,0,0.2,0,0.3-0.1c21.7,50.3,82.6,58.9,125.3,83.6c0.1,0,0.1,0.1,0.2,0.1c4,11.5,7.6,23.1,9.3,35.2
		C419.6,153.6,420,162,419.6,170.3z M530.6,151c-3.4,4.5-7,8.8-10.8,13c-6.6,7.4-13.6,14.3-21,20.9c-3.4-10.2-7.2-20.3-12-29.9
		c-3.7-7.3-8.4-13.7-15.2-18.4c-15.2-10.4-33.5-8.7-48.8,0.2c-1.2-6.7-2.9-13.4-4.9-19.9c-4.2-13.8-8.8-28-15-41.3
		c29.8-6,61.6-7.9,89.7,5.8c22,10.7,40.6,29.8,47.1,53.8c0,0.1,0.1,0.3,0.1,0.4c-0.2,0.6-0.3,1.2-0.4,1.7
		C538.7,142.1,533.5,147.3,530.6,151z"/>
	<path d="M321.4,315.2c-14.9-10.6-33.9-10.4-51.2-7.6c-9,1.6-17.6,5.6-24.7,11.4c-9.5,7.8-14,18.1-15.1,30.2
		c-1.3,13.6,0.2,26.8,5.4,39.5c2,4.8,4.1,10.1,7.5,14.1c3.2,3.7,7.1,7,11,10c3.5,2.8,6.8,4.9,11.2,5.9c6.1,1.4,12.4,1.8,18.7,1.8
		c11.4-0.1,24.4-1.5,34.5-7.3c8.9-5.2,13.1-15.8,16.2-25.1c3.4-9.8,6.2-20.7,5.6-31.1C339.8,341,335,324.9,321.4,315.2z
		 M331.9,376.9c-2.3,8-5.4,18.7-12.3,24.1c-7.3,5.7-18.1,7.3-27,8.1c-9.1,0.8-21.2,1.6-29.8-2.1c-6.4-2.8-14.1-9.5-18-15.2
		c-5.5-8.1-8.8-19.2-9.3-29c-0.8-12.6,1.4-24.4,11.3-33c6.5-5.6,15-9.7,23.4-11.2c13.9-2.3,28.7-3.1,41.8,2.7
		c12.3,5.4,20.1,15.6,22.3,28.9C335.8,359.6,334.5,367.9,331.9,376.9z"/>
	<path d="M292.3,360.5c3.3-3.7,6.5-7.4,9.6-11.2c1.6-1.9,1.7-5.2,1-7.5c-0.5-1.5-2.1-4-3.8-2c-4.1,5-8.3,9.9-12.7,14.6
		c-5.9-6.3-11.6-13-16.8-19.9c-1.6-2.1-3.3,0.5-3.8,2c-0.8,2.3-0.5,5.5,1,7.5c4.4,5.8,9,11.3,13.8,16.6
		c-6.3,6.6-12.9,12.9-19.8,18.9c-2.6,2.3-1,12.9,2.8,9.5c8-7,15.6-14.4,22.9-22.2c6,6.2,12.4,12.1,19,17.7c1.9,1.6,3.2-2.8,3.4-3.8
		c0.4-2.4,0-5.2-1.9-6.8C301.9,369.6,297,365.2,292.3,360.5z"/>
	<path d="M232.7,157c2.7-3.2,2.4-8.3,2.4-12.2c0.1-6.3-0.8-18.3-8.7-19.2c-0.5-1.3-1.2-2.1-2.3-2.2c-3.4,0-6.4-0.6-7.8,3.2
		c-1.5,4.1-1.2,9.5-2,13.9c-1.4,7.8-1.6,18.2,8.3,19.1C226.1,160,230.2,160,232.7,157z M229.2,148.2c-0.8,0.8-3.9,0.6-4.8,0.6
		c-1.9,0-4.5,0.2-5.3-2.1c-0.4-1.1,0.7-3.8,0.9-4.8c0.4-2.3,0.4-5,0.7-7.4c0.3,0,0.7,0,1.1,0c0.5,1.5,1.3,2.5,2.4,2.3
		c4.8-0.7,5.5,3.4,5.5,7.2C229.6,144.9,229.9,147.4,229.2,148.2z"/>
	<path d="M345.2,125.7c-0.5-1.3-1.2-2.1-2.3-2.2c-3.4,0-6.4-0.6-7.8,3.2c-1.5,4.1-1.2,9.5-2,13.9c-1.4,7.8-1.6,18.2,8.3,19.1
		c3.5,0.3,7.6,0.3,10.1-2.7c2.7-3.2,2.4-8.3,2.4-12.2C354,138.6,353.1,126.6,345.2,125.7z M348,148.2c-0.8,0.8-3.9,0.6-4.8,0.6
		c-1.9,0-4.5,0.2-5.3-2.1c-0.4-1.1,0.7-3.8,0.9-4.8c0.4-2.3,0.4-5,0.7-7.4c0.3,0,0.7,0,1.1,0c0.5,1.5,1.3,2.5,2.4,2.3
		c4.8-0.7,5.5,3.4,5.5,7.2C348.4,144.9,348.8,147.4,348,148.2z"/>
	<path d="M338.7,188c-15.6,10.7-33.7,17.2-52.6,18.4c-10.2,0.6-19.1-0.8-28.2-5.3c-4.4-2.2-8.8-4.4-13.2-6.7
		c-3.9-1.9-9.3-3.7-11.1-8c-1-2.2-2.8-1.7-3.9,0c-1.4,2.1-0.9,5.6,0,7.8c3.6,8.4,15.4,11.7,22.8,15.5c9.9,5,18.9,8.2,30.1,7.9
		c20.5-0.5,40.6-7.3,57.5-18.9C343.2,196.5,341.8,185.9,338.7,188z"/>
</g>
</svg>
