<?xml version="1.0" encoding="utf-8"?>
<!-- Generator: Adobe Illustrator 23.0.1, SVG Export Plug-In . SVG Version: 6.00 Build 0)  -->
<svg version="1.1" id="Layer_2" xmlns="http://www.w3.org/2000/svg" xmlns:xlink="http://www.w3.org/1999/xlink" x="0px" y="0px"
	 viewBox="0 0 566.93 566.93" enable-background="new 0 0 566.93 566.93" xml:space="preserve">
<path d="M447.978,236.381c0.874,1.655,1.572,3.434,2.336,5.048c1.919,4.052,3.773,8.134,5.565,12.244
	c3.582,8.214,6.917,16.535,10.029,24.938c15.555,42.006,26.378,86.166,30.517,130.805c1.727,19.569,2.143,39.285,1.205,58.912
	c-0.938,19.617-6.83,38.679-20.975,52.864c-14.624,14.666-33.765,16.643-53.546,16.256c-22.549-0.441-45.092-0.906-67.635-1.627
	c-20.156-0.645-40.311-1.355-60.464-2.084c-11.464-0.414-22.927-0.841-34.39-1.28c-11.518-0.441-23.191-0.391-34.618-2.018
	c-39.099-5.566-76.859-23.537-106.403-49.62c-53.894-47.58-73.634-119.507-75.779-189.118c-0.179-5.803-0.176-11.61-0.09-17.415
	c0.069-4.606,1.368-9.33,2.11-13.944c1.672-10.391,4.216-20.658,7.263-30.728c2.802-9.259,6.166-18.406,10.962-26.836
	c4.432-7.79,10.617-16.638,19.852-18.826c9.36-2.217,18.814,2.837,26.4,7.812c8.376,5.493,15.779,12.352,22.616,19.639
	c13.696,14.597,26.779,31.573,34.21,50.146c7.86,19.647,15.983,39.25,22.481,59.409c6.792,21.07,10.846,42.66,14.855,64.39
	c3.609,19.562,7.7,39.063,14.606,57.766c5.099,13.811,11.877,28.405,23.24,38.208c5.214,4.498,11.373,7.62,18.145,8.913
	c3.143,0.6,6.974-3.971,6.539-6.894c-5.636-37.876-5.618-77.423-0.934-115.398c4.202-34.075,12.996-67.879,27.855-98.913
	c4.349-9.083,9.387-17.801,14.847-26.265l-0.187-0.141l-5.145-2.12c-1.904,3.079-3.525,6.308-5.061,8.88
	c-19.101,31.991-30.852,68.08-37.214,104.666c-7.149,41.114-8.119,84.354-2.911,125.913c-12.054-5.472-20.214-17.336-25.943-29.18
	c-8.332-17.225-13.282-36.107-17.141-54.765c-4.722-22.832-7.918-45.979-14.257-68.456c-6.267-22.223-14.903-43.671-23.577-65.038
	c-1.778-4.379-3.543-8.748-5.314-13.128c-1.852-4.579-4.638-8.239-7.204-12.445c-5.745-9.414-12.343-18.268-19.588-26.579
	c-6.921-7.939-14.335-15.55-22.738-21.935c-7.275-5.527-16.177-11.358-25.42-12.619c-18.664-2.546-32.289,14.477-40.252,29.099
	c-9.647,17.715-14.935,38.332-18.312,58.1c-0.784,4.587-2.183,9.293-2.381,13.907c-0.26,6.066-0.17,12.21,0.019,18.276
	c0.259,8.315,0.653,16.618,1.371,24.908c1.513,17.459,4.174,34.829,8.37,51.851c8.971,36.39,25.195,71.246,50.236,99.396
	c26.888,30.226,63.27,51.852,102.276,62.274c22.374,5.978,44.966,6.19,67.956,7.056c21.829,0.822,43.661,1.594,65.493,2.341
	c24.22,0.828,48.444,1.597,72.675,2.021c20.574,0.36,41.672,2.108,60.206-8.538c15.268-8.771,26.763-23.288,33.569-39.367
	c7.729-18.259,7.509-38.356,7.413-57.865c-0.057-11.471-0.655-22.928-1.663-34.353c-3.919-42.265-13.62-83.917-27.655-123.949
	c-3.287-9.376-6.844-18.658-10.693-27.817c-3.068-7.3-6.001-15.161-9.88-22.171L447.978,236.381z"/>
<g>
	<g>
		<path d="M520.44,193.277c-14.975-48.33-29.112-110.883-80.843-132.672c-26.135-11.008-57.942-11.252-85.702-7.525
			c-26.257,3.526-50.139,14.324-67.988,34.249c-18.2,20.317-28.718,46.137-37.657,71.551c-4.924,14-9.472,28.168-13.726,42.386
			c-0.488,1.632-1.488,3.929-0.539,5.604c1.125,1.985,4.626,1.964,6.611,2.452c6.914,1.701,13.7,3.923,20.27,6.671
			c12.92,5.405,24.903,12.938,35.564,22.005c10.675,9.079,20,19.587,29.869,29.502c10.232,10.28,21.134,19.819,34.051,26.594
			c4.469,2.344,10.253,6.456,15.214,4.398c5.966-2.474,11.762-5.522,17.213-8.983c22.731-14.432,39.133-36.084,59.318-53.506
			c11.697-10.095,24.77-17.896,39.395-22.984c4.17-1.451,8.423-2.67,12.711-3.717c3.056-0.747,6.226-1.083,8.887-2.88
			C517.185,203.656,521.295,198.494,520.44,193.277c-0.396-2.414-7.788,3.137-7.317,6.008c0.418,2.547-2.383,2.158-4.394,2.65
			c-1.715,0.42-3.424,0.868-5.124,1.346c-3.663,1.03-7.29,2.207-10.865,3.512c-7.505,2.739-14.748,6.177-21.617,10.258
			c-11.429,6.791-21.507,15.591-31.021,24.813c-9.668,9.371-18.754,19.36-28.79,28.349c-5.114,4.581-10.461,8.925-16.215,12.681
			c-5.902,3.852-12.363,6.315-18.437,9.772c0.795-0.267,1.59-0.535,2.386-0.802c-4.646,0.029-10.155-3.759-14.117-5.961
			c-4.245-2.358-8.327-5.004-12.221-7.905c-8.197-6.106-15.526-13.299-22.654-20.597c-13.787-14.118-27.129-28.5-44.054-38.955
			c-7.53-4.652-15.532-8.567-23.814-11.689c-4.1-1.546-8.279-2.891-12.509-4.035c-2.143-0.58-4.311-1.047-6.463-1.589
			c-3.592-0.905-1.711-3.572-0.849-6.348c6.416-20.659,12.873-41.364,21.156-61.369c7.197-17.381,16.022-34.686,29.514-48.07
			c13.924-13.813,32.36-20.995,51.447-24.166c19.673-3.269,40.453-3.403,60.2-0.696c18.931,2.595,36.855,9.012,51.55,21.479
			c16.027,13.597,26.323,32.197,34.47,51.283c9.139,21.41,15.539,43.839,22.418,66.039
			C513.939,201.922,521.265,195.94,520.44,193.277z"/>
	</g>
</g>
<path d="M281.666,96.754c-4.176-12.883-6.648-28.459-3.009-41.683c0.926-3.363,3.184-10.868,7.019-11.465
	c2.283-0.355,6.619,1.812,8.901,2.598c2.132,0.734,4.262,1.533,6.285,2.533c7.089,3.505,11.151,9.963,15.624,16.205
	c0.875,1.222,3.331,4.12,5.172,3.313c1.848-0.81,0.893-3.243,0.007-4.479c-5.719-7.981-11.252-16.151-20.053-21.013
	c-4.911-2.713-10.247-4.442-15.634-5.935c-3.438-0.953-5.913-2.539-8.441,0.447c-1.535,1.814-2.838,3.872-3.871,6.009
	c-7.237,14.967-4.005,35.356,0.948,50.636c0.648,1.999,2.349,4.48,4.493,5.091C280.802,99.496,282.337,98.824,281.666,96.754
	L281.666,96.754z"/>
<path d="M483.606,42.431c-3.229-4.455-6.69-7.155-12.215-5.731c-5.348,1.379-10.742,2.925-15.706,5.389
	c-8.61,4.276-13.75,11.846-19.198,19.45c-1.712,2.39,6.755,8.175,8.574,5.637c3.914-5.463,7.67-11.527,13.133-15.603
	c5.603-4.181,12.534-6.344,19.313-8.099c5.437,9.527,4.03,23.547,2.749,33.556c-1.068,8.339-2.734,16.746-5.243,24.782
	c-1.018,3.259,7.852,7.948,8.574,5.637c4.041-12.941,6.655-26.921,6.501-40.49C489.99,58.524,488.678,49.428,483.606,42.431z"/>
<path d="M392.629,239.225c-0.551-4.647-3.296-5.449-7.549-6.916c-9.388-3.238-16.388-1.275-25.147,2.649
	c-0.327,0.146-0.42,0.526-0.353,1.003c-1.282,8.541,1.584,15.532,10.142,18.106c7.004,2.107,16.67,1.455,21.322-4.982
	C393.114,246.219,393.029,242.594,392.629,239.225z"/>
<g>
	<path d="M327.96,185.339c0,6.518-5.283,11.801-11.802,11.801h-6.1c-6.518,0-11.801-5.283-11.801-11.801l0,0
		c0-6.518,5.283-11.801,11.801-11.801h6.1C322.677,173.537,327.96,178.821,327.96,185.339L327.96,185.339z"/>
</g>
<g>
	<path d="M450.4,185.339c0,6.518-5.284,11.801-11.801,11.801h-6.102c-6.517,0-11.801-5.283-11.801-11.801l0,0
		c0-6.518,5.284-11.801,11.801-11.801h6.102C445.115,173.537,450.4,178.821,450.4,185.339L450.4,185.339z"/>
</g>
<g>
	<path d="M363.161,384.626c-1.913-7.524-5.944-20.42-15.577-20.732c-15.182,0.064-19.509,16.811-21.414,29.042
		c-4.03,25.873-2.419,52.757-2.024,78.823c0.301,19.84,0.534,39.68,0.236,59.522c-0.016,1.049,0.933,3.684,2.269,3.733
		c11.285,0.416,22.643,1.164,33.942,1.058c0.359-0.003,0.625-0.219,0.671-0.599c2.384-19.681,3.992-39.488,5.14-59.276
		c0.965-16.629,1.539-33.306,1.169-49.963C367.265,412.369,366.593,398.123,363.161,384.626z"/>
</g>
<g>
	<path d="M436.497,386.036c-1.913-7.524-5.944-20.42-15.577-20.732c-15.182,0.064-19.509,16.811-21.414,29.042
		c-4.03,25.873-2.419,52.757-2.024,78.823c0.301,19.84,0.534,39.68,0.236,59.522c-0.016,1.049,0.933,3.684,2.269,3.733
		c11.285,0.416,22.643,1.164,33.942,1.058c0.359-0.003,0.625-0.219,0.671-0.599c2.384-19.681,3.992-39.488,5.14-59.276
		c0.965-16.629,1.539-33.306,1.169-49.963C440.601,413.78,439.929,399.533,436.497,386.036z"/>
</g>
<path stroke="#FFFFFF" stroke-miterlimit="10" d="M410.958,253.262c2.188-1.889,7.022-2.142,10.031-2.655
	c4.176-0.711,8.398-1.262,12.646-1.611c7.264-0.597,14.599-0.645,21.865-0.04c14.483,1.207,28.182,5.284,40.19,11.843
	c0.938,0.512,3.026,1.199,3.546,0.001c0.512-1.18-2.141-2.729-3.038-3.219c-12.907-7.05-27.626-11.489-43.143-13.016
	c-8.798-0.866-17.71-0.751-26.497,0.144c-3.996,0.407-7.966,0.955-11.9,1.649c-3.346,0.59-7.477,0.844-9.91,2.945
	C403.112,250.716,409.173,254.802,410.958,253.262L410.958,253.262z"/>
<path stroke="#FFFFFF" stroke-miterlimit="10" d="M425.909,233.937c2.335-2.016,8.178-2.227,11.388-2.736
	c3.128-0.497,6.282-0.9,9.449-1.202c7.652-0.729,15.379-0.82,23.046-0.182c13.984,1.165,27.426,5.015,39.042,11.36
	c0.987,0.539,3.608,1.831,4.798,0.963c1.18-0.861-0.216-2.15-1.202-2.689c-13.302-7.266-28.277-11.923-44.292-13.499
	c-8.708-0.857-17.559-0.755-26.265,0.075c-4.439,0.423-8.847,1.048-13.205,1.842c-3.377,0.616-7.067,0.91-9.496,3.007
	C417.611,232.224,423.973,235.608,425.909,233.937L425.909,233.937z"/>
<path stroke="#FFFFFF" stroke-miterlimit="10" d="M417.039,242.896c2.298-1.984,6.764-2.199,9.967-2.746
	c3.122-0.533,6.27-0.976,9.434-1.318c7.66-0.829,15.421-1.041,23.126-0.512c14.478,0.994,28.388,4.842,40.395,11.401
	c0.999,0.546,3.424,1.772,4.696,1.22c1.204-0.523,0.74-1.279-0.359-1.879c-13.209-7.215-28.172-11.938-44.08-13.531
	c-8.319-0.833-16.705-0.844-25.041-0.159c-4.443,0.365-8.859,0.936-13.226,1.68c-3.446,0.587-8.39,0.841-10.913,3.019
	C409.445,241.446,415.714,244.04,417.039,242.896L417.039,242.896z"/>
<path stroke="#FFFFFF" stroke-miterlimit="10" d="M340.396,253.262c-2.188-1.889-7.022-2.142-10.031-2.655
	c-4.176-0.711-8.398-1.262-12.646-1.611c-7.264-0.597-14.599-0.645-21.865-0.04c-14.483,1.207-28.182,5.284-40.19,11.843
	c-0.938,0.512-3.026,1.199-3.546,0.001c-0.512-1.18,2.141-2.729,3.038-3.219c12.907-7.05,27.626-11.489,43.143-13.016
	c8.798-0.866,17.71-0.751,26.497,0.144c3.996,0.407,7.966,0.955,11.9,1.649c3.346,0.59,7.477,0.844,9.91,2.945
	C348.242,250.716,342.18,254.802,340.396,253.262L340.396,253.262z"/>
<path stroke="#FFFFFF" stroke-miterlimit="10" d="M325.444,233.937c-2.335-2.016-8.178-2.227-11.388-2.736
	c-3.128-0.497-6.282-0.9-9.449-1.202c-7.652-0.729-15.379-0.82-23.046-0.182c-13.984,1.165-27.426,5.015-39.041,11.36
	c-0.987,0.539-3.609,1.831-4.798,0.963c-1.18-0.861,0.216-2.15,1.202-2.689c13.302-7.266,28.277-11.923,44.292-13.499
	c8.708-0.857,17.559-0.755,26.265,0.075c4.439,0.423,8.847,1.048,13.205,1.842c3.377,0.616,7.067,0.91,9.496,3.007
	C333.743,232.224,327.381,235.608,325.444,233.937L325.444,233.937z"/>
<path stroke="#FFFFFF" stroke-miterlimit="10" d="M334.315,242.896c-2.298-1.984-6.764-2.199-9.967-2.746
	c-3.122-0.533-6.27-0.976-9.434-1.318c-7.66-0.829-15.421-1.041-23.126-0.512c-14.478,0.994-28.388,4.842-40.395,11.401
	c-0.999,0.546-3.424,1.772-4.696,1.22c-1.204-0.523-0.74-1.279,0.359-1.879c13.209-7.215,28.172-11.938,44.08-13.531
	c8.319-0.833,16.705-0.844,25.041-0.159c4.443,0.365,8.859,0.936,13.226,1.68c3.446,0.587,8.39,0.841,10.913,3.019
	C341.909,241.446,335.64,244.04,334.315,242.896L334.315,242.896z"/>
<g>
	<g>
		<path d="M38.149,279.659c4.163,8.262,10.595,17.2,20.712,17.897c10.974,0.756,17.898-8.297,20.911-17.757
			c-2.465-1.409-4.93-2.818-7.395-4.227c0.946,2.993,0.447,5.9,2.228,8.609c1.492,2.268,3.881,4.115,6.332,5.248
			c5.943,2.749,14.003,2.677,20.38,2.417c11.99-0.49,26.867-7.706,23.046-22.134c-0.53-2.002-7.673-6.303-7.395-4.227
			c1.791,13.36,17.402,20.359,29.358,16.29c13.228-4.503,27.121-17.263,23.684-32.393c-0.525-2.312-8.042-6.874-7.3-3.607
			c2.215,9.753-4.257,18.084-11.644,23.602c-5.705,4.261-24.838,14.168-26.609,0.956c-2.465-1.409-4.93-2.818-7.395-4.227
			c2.665,10.063-6.973,17.157-15.709,18.786c-4.807,0.897-9.813,0.728-14.664,0.304c-1.21-0.106-2.423-0.229-3.627-0.394
			c-0.898-0.087-1.786-0.231-2.664-0.432c-1.011-0.117-1.145-0.193-0.402-0.228c0.346,0.662,0.316-2.055,0.289-2.248
			c-0.143-1.037-0.275-1.654-0.61-2.714c-0.476-1.505-6.434-7.242-7.395-4.227c-1.95,6.122-5.549,12.256-11.686,14.928
			c-3.078,1.34-7.581,2.243-10.6,0.194c-2.428-1.648-3.929-5.715-5.216-8.27C43.746,279.752,36.022,275.437,38.149,279.659
			L38.149,279.659z"/>
	</g>
</g>
</svg>
