<?xml version="1.0" encoding="utf-8"?>
<!-- Generator: Adobe Illustrator 15.1.0, SVG Export Plug-In . SVG Version: 6.00 Build 0)  -->
<!DOCTYPE svg PUBLIC "-//W3C//DTD SVG 1.1//EN" "http://www.w3.org/Graphics/SVG/1.1/DTD/svg11.dtd">
<svg version="1.1" id="Layer_3" xmlns="http://www.w3.org/2000/svg" xmlns:xlink="http://www.w3.org/1999/xlink" x="0px" y="0px"
	 width="566.93px" height="566.93px" viewBox="0 0 566.93 566.93" enable-background="new 0 0 566.93 566.93" xml:space="preserve">
<g>
	<g>
		<path d="M294.588,474.534c-29.527-0.51-59.097-3.396-88.41-6.804c-34.913-4.06-70.058-9.134-104.047-18.272
			c-12.214-3.283-24.681-7.112-35.72-13.418c-5.216-2.979-13.082-8.478-11.647-14.894c0.101-0.45,0.863-1.923,1.524-2.791
			c1.238-1.625,4.668-2.379,6.581-3.254c3.994-1.827,8.052-3.506,12.146-5.092c10.019-3.88,20.37-6.876,30.919-8.907
			c6.077-1.17,12.243-1.746,18.328-2.852c3.773-0.685,7.446-2.081,9.509-5.526c3.867-6.454,1.674-16.782-5.789-19.248
			c-10.646-3.519-23.741-0.767-34.51,0.757c-14.703,2.079-29.322,4.989-44.128,6.272c-6.232,0.54-22.852,2.903-26.231-4.838
			c-1.044-2.393-0.136-5.002,0.764-7.286c0.826-2.096,1.029-2.483,2.504-5.005c2.442-4.172,5.721-8.25,9.688-12.401
			c10.699-11.195,25.307-20.329,39.599-27.306c54.847-26.774,119.775-30.786,179.731-28.758
			c50.362,1.703,100.473,8.822,149.849,18.648c28.137,5.6,56.935,11.201,84.299,19.909c13.994,4.453,27.772,10.841,39.022,20.42
			c8.143,6.933,14.968,16.521,15.903,27.437c0.991,11.544-5.227,21.695-12.814,29.832c-12.67,13.585-30.213,22.613-46.978,30.007
			c-12.247,5.401-24.943,9.765-37.74,13.658c-7.106,2.162-14.136,4.222-21.496,5.249c-7.637,1.064-15.273,2.131-22.91,3.196
			C366.808,468.254,330.788,475.122,294.588,474.534c-2.937-0.048-5.821,6.809-2.58,6.861c16.42,0.267,32.473-1.063,48.765-3.126
			c19.118-2.422,38.199-5.147,57.286-7.81c14.922-2.081,29.747-3.665,44.235-7.888c12.627-3.68,25.059-7.99,37.226-12.983
			c26.993-11.077,63.246-29.618,69.741-61.352c5.086-24.854-16.361-43.395-36.296-53.372c-19.444-9.732-41.372-13.938-62.364-18.87
			c-28.474-6.69-57.171-12.452-86.049-17.105c-45.741-7.37-92.115-11.826-138.481-11.174c-54.763,0.771-113.5,8.107-161.845,35.761
			c-13.105,7.495-25.576,16.779-35.25,28.461c-5.594,6.755-17.049,22.465-9.355,31.022c6.328,7.038,20.384,5.029,28.598,4.279
			c14.753-1.349,29.329-4.16,43.982-6.262c6.624-0.95,13.282-1.785,19.976-2.003c4.467-0.145,9.515-0.203,13.69,1.619
			c3.538,1.543,4.029,4.84,4.159,8.407c0.014,0.378-0.166,1.644-0.046,1.256c-0.128,0.418,0.651-0.626,0.099-0.147
			c-0.488,0.424-2.759,1.036-4.05,1.303c-5.892,1.215-11.938,1.696-17.86,2.767c-10.375,1.876-20.502,4.863-30.382,8.52
			c-6.27,2.319-12.41,4.986-18.466,7.811c-3.646,1.7-5.564,3.272-7.624,6.603c-1.964,3.176-2.976,7.044-2.334,10.752
			c1.35,7.799,9.568,12.767,15.961,16.131c11.521,6.063,24.367,9.738,36.9,13.036c33.495,8.814,68.097,13.692,102.454,17.687
			c28.951,3.366,58.168,6.175,87.33,6.679C294.944,481.447,297.83,474.59,294.588,474.534z"/>
	</g>
</g>
<g>
	<g>
		<path d="M182.495,366.559c-11.623,3.615-29.599,10.744-30.858,24.841c-0.383,4.284,1.247,7.527,5.637,7.889
			c5.302,0.435,10.566-1.411,15.364-3.425c4.721-1.98,9.025-4.855,13.163-7.834c2.13-1.532,4.906-3.312,6.483-5.491
			c1.268-1.751,2.462-4.035,1.833-6.276c-0.496-1.764-2.503-2.322-3.982-1.283c-4.834,3.397-8.764,8.847-11.995,13.696
			c-4.708,7.065-8.762,15.939-6.396,24.554c1.218,4.433,3.756,6.5,8.28,6.48c4.007-0.018,7.697-2.031,10.484-4.796
			c6.26-6.209,8.765-15.231,10.417-23.639c0.629-3.202,1.05-6.438,1.561-9.66c0.674-4.25-0.788,10.807-6.766,4.041
			c-0.547-0.619-0.244-0.604-0.048-0.029c0.344,1.011,0.563,2.071,0.813,3.107c1.548,6.427,3.201,12.728,6.024,18.733
			c2.593,5.518,7.256,10.82,13.9,10.04c8.129-0.954,12.708-8.997,11.378-16.681c-1.893-10.941-10.193-21.143-17.094-29.467
			C204.177,363.497,191.504,364.418,182.495,366.559c-4.088,0.971-7.5,11.444-1.906,10.115c6.399-1.52,14.22-2.194,20.256,0.805
			c2.973,1.478,5.085,5.068,7.041,7.637c2.827,3.715,5.448,7.585,7.797,11.618c1.831,3.144,3.806,6.803,4.237,10.479
			c0.233,1.987,1.095-0.415,0.816-0.309c-1.401,0.535-3.02,0.579-4.421,0.041c-5.741-2.203-8.065-10.496-9.653-15.738
			c-1.333-4.399-1.584-10.053-3.963-14.05c-1.865-3.134-5.834,0.944-6.801,2.638c-1.517,2.655-1.621,5.993-2.078,8.945
			c-0.882,5.704-1.7,16.223-7.099,19.737c-1.433,0.933-3.063,0.994-4.711,0.872c-1.839-0.137-2.279-2.181-2.705-3.731
			c-1.024-3.73,1.214-7.859,3.016-10.959c1.664-2.862,3.765-5.452,5.931-7.945c0.371-0.427,1.964-2.147,1.712-1.89
			c0.425-0.434,2.282-1.943,0.329-0.57c-0.716-2.52-1.433-5.04-2.149-7.56c1.222-1.688,0.714-0.73,0.11-0.194
			c-0.808,0.717-1.653,1.391-2.499,2.063c-2.748,2.182-5.695,4.067-8.749,5.789c-3.386,1.909-6.946,3.315-10.73,4.195
			c-2.103,0.489-4.193,0.525-6.333,0.35c-0.284-0.022-0.016-1.938-0.374-0.706c0.927-3.19,8.188-6.234,11.286-7.709
			c3.14-1.493,6.412-2.774,9.734-3.808C184.573,375.436,187.879,364.884,182.495,366.559z"/>
	</g>
</g>
<g>
	<path fill="#FFFFFF" d="M185.299,302.139c0,0-61.15-60.237-97.909-27.372c-12.425,26.198,15.576,66.198,61.909,84.198
		c46.333,17.667,61.333,27.334,111.333,21.334C214.965,369.299,185.299,302.139,185.299,302.139z"/>
	<g>
		<path d="M189.95,296.474c-18.499-18.168-43.949-36.157-70.441-38.26c-8.727-0.693-17.425,1.159-25.124,5.292
			c-4.632,2.487-9.536,5.95-11.75,10.818c-1.815,3.991-2.951,8.29-3.351,12.655c-1.824,19.914,9.889,38.087,23.6,51.442
			c21.442,20.887,50.151,30.5,77.695,40.572c11.359,4.154,22.965,7.533,34.99,9.038c14.535,1.818,29.304,0.708,43.791-0.988
			c4.833-0.566,10.254-11.994,3.851-13.605c-22.415-5.64-39.6-23.959-52.719-42.009c-5.546-7.63-10.51-15.688-15.02-23.97
			c-1.399-2.568-2.738-5.17-4.022-7.798c-0.347-0.711-0.687-1.425-1.021-2.141c0.747,1.599,0.246,0.533,0.074,0.146
			c-3.18-7.171-12.684,3.818-10.41,8.945c5.648,12.737,12.98,24.852,21.095,36.147c14.101,19.631,32.76,38.337,56.863,44.401
			c1.284-4.535,2.567-9.07,3.851-13.605c-19.538,2.288-38.958,2.459-58.099-2.513c-8.466-2.198-16.674-5.325-24.826-8.467
			c-10.635-4.1-21.424-8.012-31.867-12.575c-17.955-7.846-34.491-19.869-46.149-35.725c-7.924-10.777-14.798-25.919-8.817-39.066
			c-1.094,1.593-2.188,3.186-3.283,4.778c17.237-14.998,41.365-6.43,58.896,3.406c8.42,4.725,16.321,10.379,23.808,16.461
			c3.54,2.875,6.646,5.559,9.081,7.949C185.606,312.674,193.997,300.448,189.95,296.474z"/>
	</g>
</g>
<g>
	<g>
		<path d="M381.19,377.34c-1.68-0.521-0.088-0.019,0.265,0.1c1.009,0.337,2.008,0.702,3.005,1.074
			c3.097,1.154,6.122,2.49,9.07,3.984c1.87,0.947,13.239,7.032,11.396,10.259c1.292-1.123,2.584-2.247,3.876-3.37
			c-7.282,1.082-14.409-2.311-20.518-5.907c-2.676-1.576-5.211-3.393-7.663-5.294c-0.807-0.627-2.742-2.327-2.679-2.24
			c-2.101,3.04-4.201,6.08-6.302,9.12c-0.352-0.246,1.685,1.71,2.354,2.435c1.998,2.16,3.829,4.468,5.544,6.857
			c2.745,3.826,8.742,12.734,5.016,17.415c1.008-0.712,2.016-1.424,3.023-2.136c-14.938,3.321-15.663-21.213-17.686-30.492
			c-0.493-2.262-2.432-2.921-4.43-1.893c-2.713,1.398-3.784,4.564-4.521,7.299c-1.363,5.05-2.388,10.134-4.2,15.058
			c-1.656,4.499-3.623,9.082-9.105,8.016c-6.886-1.34,0.209-11.948,1.906-14.773c1.935-3.22,4.133-6.265,6.406-9.251
			c2.016-2.648,3.73-5.443,6.995-6.55C368.561,375.145,375.506,375.99,381.19,377.34c4.177,0.993,8.911-9.094,3.869-10.291
			c-6.503-1.545-13.736-1.905-20.21-0.115c-7.947,2.197-12.87,10.279-17.292,16.669c-4.865,7.031-10.437,15.374-10.921,24.188
			c-0.401,7.29,5.341,11.552,12.357,10.075c13.293-2.798,16.851-23.201,19.486-33.978c0.39-1.595-0.192,0.212,0.368-1.233
			c-2.188,1.175-4.376,2.351-6.563,3.525c-0.273-0.668-0.341-0.777-0.2-0.327c0.118,0.422,0.165,0.879,0.233,1.309
			c0.581,3.668,1.1,7.337,1.854,10.976c1.54,7.439,4.177,16.06,10.885,20.427c5.164,3.361,11.821,1.936,15.135-2.991
			c3.623-5.386,4.163-11.74,2.423-17.885c-2.197-7.764-8.597-17.626-15.349-22.365c-3.69-2.59-8.451,6.159-6.302,9.12
			c1.291,1.778,3.707,3.25,5.424,4.551c4.002,3.032,8.331,5.616,12.906,7.681c4.821,2.176,10.129,3.527,15.431,3.092
			c5.016-0.411,7.674-5.029,8.241-9.725c1.605-13.275-17.973-19.903-27.906-22.993C381.033,365.796,376.193,375.786,381.19,377.34z"
			/>
	</g>
</g>
<g>
	<path fill="#FFFFFF" d="M373.405,302.139c0,0,61.15-60.238,97.909-27.373c12.425,26.199-15.576,66.199-61.909,84.199
		c-46.332,17.666-61.332,27.334-111.332,21.334C343.739,369.299,373.405,302.139,373.405,302.139z"/>
	<g>
		<path d="M374.877,307.36c9.606-9.435,20.752-17.612,32.422-24.277c18.652-10.653,42.318-17.436,60.265-1.821
			c-0.485-0.674-0.97-1.348-1.455-2.022c5.55,12.2,1.542,25.219-5.754,35.791c-11.023,15.975-27.632,27.396-45.116,35.282
			c-9.922,4.476-20.341,8.081-30.491,12.015c-8.539,3.309-17.146,6.453-25.996,8.833c-19.087,5.134-38.622,4.56-58.099,2.278
			c-1.284,4.535-2.567,9.07-3.852,13.605c24.51-6.167,43.64-25.401,58.173-45.158c8.98-12.209,17.032-25.425,23.186-39.303
			c0.996-2.246,1.236-6.984-2.175-7.305c-3.574-0.336-6.117,3.671-7.335,6.418c-0.095,0.215-0.192,0.428-0.29,0.641
			c-0.96,2.091,0.684-1.406-0.172,0.369c-1.226,2.541-2.525,5.047-3.858,7.533c-4.08,7.608-8.587,15.026-13.586,22.067
			c-12.712,17.902-29.383,35.709-51.399,41.249c-4.133,1.04-10.8,12.792-3.852,13.605c23.521,2.754,46.351,2.265,69.034-4.964
			c11.425-3.64,22.526-8.283,33.683-12.65c12.588-4.928,24.839-9.817,36.224-17.221c18.39-11.958,35.27-29.2,42.369-50.37
			c2.854-8.507,3.778-17.598,1.638-26.37c-1.119-4.588-3.085-7.333-6.863-10.108c-3.726-2.736-7.937-4.451-12.323-5.797
			c-19.475-5.979-41.269,4.16-57.515,14.221c-10.591,6.559-20.898,14.268-29.807,23.017c-2.432,2.388-4.738,6.111-3.732,9.693
			C369.121,309.893,372.897,309.305,374.877,307.36z"/>
	</g>
</g>
<g>
	<path fill="#FFFFFF" d="M372.965,302.139c0,0,42.266-138.674-71.367-158.174c-29.633-1.5-42.633,2-42.633,2s-106,9.848-72,156.174
		c14,30.326,19.5,70.826,86,84.326C356.965,386.465,372.965,302.139,372.965,302.139z"/>
	<g>
		<path d="M377.72,302.582c4.538-14.942,6.826-30.654,7.899-46.193c1.916-27.733-1.709-57.4-17.341-81.037
			c-8.792-13.293-21.635-23.496-36.098-30c-8.885-3.995-18.432-6.56-28.003-8.248c-6.403-1.129-13.735-0.446-20.227-0.294
			c-4.962,0.116-9.917,0.466-14.852,0.989c-10.062,1.066-20.265,3.27-29.661,7.018c-21.594,8.613-39.462,24.313-50.488,44.853
			c-18.907,35.224-16.018,77.598-7.559,115.334c1.596,7.119,5.75,14.446,8.512,21.234c2.983,7.332,6.217,14.583,10.148,21.461
			c9.223,16.136,23.242,28.392,40.062,36.157c10.758,4.968,23.886,9.819,35.803,9.347c10.343-0.411,20.605-2.197,30.405-5.538
			c16.778-5.719,31.286-16.119,43.004-29.31c13.955-15.708,24.915-36.764,28.898-57.552c0.512-2.672-0.559-6.283-3.986-5.408
			c-3.456,0.882-5.898,4.786-6.529,8.08c-0.288,1.506-0.68,2.995-1.078,4.475c-0.432,1.605,0.438-1.452-0.25,0.868
			c-0.265,0.893-0.545,1.78-0.83,2.666c-0.742,2.307-1.566,4.587-2.438,6.848c-4.327,11.224-10.382,21.827-18.708,31.542
			c-10.787,12.585-25.154,21.47-41.045,26.029c-10.333,2.964-22.253,5.027-32.81,2.61c-11.613-2.659-22.859-6.872-33.098-12.992
			c-15.076-9.01-25.462-22.734-32.904-38.399c-3.2-6.735-5.789-13.76-8.596-20.663c-1.384-3.402-3.33-6.828-4.15-10.4
			c-1.513-6.59-2.762-13.238-3.801-19.919c-3.058-19.648-3.562-40.05,0.688-59.555c0.744-3.414,1.695-6.754,2.811-10.064
			c1.006-2.984,2.866-7.568,3.757-9.42c3.016-6.272,5.8-10.573,9.638-15.354c10.813-13.472,26.416-22.792,43.584-27.252
			c3.01-0.782,6.114-1.491,9.218-1.785c4.137-0.392,8.23-1.423,12.411-1.749c11.969-0.931,24.546-1.308,36.286,1.346
			c16.55,3.741,32.5,11.62,44.301,23.973c9.996,10.464,16.444,23.547,20.228,37.41c6.541,23.967,5.147,49.26,0.696,73.029
			c-0.75,4.005-1.617,7.987-2.605,11.939c-0.285,1.137-0.583,2.271-0.896,3.399c-0.258,0.931,0.64-2.151,0.096-0.361
			c-0.698,2.298-1.445,6.964,2.175,7.305C373.704,309.313,376.865,305.398,377.72,302.582z"/>
	</g>
</g>
<g>
	<circle fill="#FFFFFF" cx="224.895" cy="155.535" r="34.07"/>
	<g>
		<path d="M253.558,158.537c-0.316,15.626-14.028,24.997-28.877,24.094c-15.71-0.956-28.135-14.606-28.449-30.098
			c-0.317-15.658,14.525-24.967,28.877-24.094C240.819,129.395,253.244,143.046,253.558,158.537
			c0.065,3.227,2.679,4.754,5.511,3.182c3.089-1.715,5.375-5.647,5.303-9.186c-0.436-21.539-17.743-39.151-39.692-37.817
			c-22.477,1.367-38.825,22.157-39.263,43.821c-0.437,21.582,18.398,39.111,39.692,37.817c22.477-1.367,38.825-22.157,39.263-43.821
			c0.066-3.271-2.77-4.704-5.511-3.182C255.677,151.119,253.63,154.958,253.558,158.537z"/>
	</g>
</g>
<g>
	<circle fill="#FFFFFF" cx="335.668" cy="155.535" r="34.07"/>
	<g>
		<path d="M364.331,158.537c-0.316,15.626-14.028,24.997-28.877,24.094c-15.71-0.956-28.136-14.606-28.449-30.098
			c-0.316-15.658,14.525-24.967,28.877-24.094C351.592,129.395,364.018,143.046,364.331,158.537
			c0.065,3.227,2.679,4.754,5.511,3.182c3.09-1.715,5.375-5.647,5.304-9.186c-0.436-21.539-17.742-39.151-39.691-37.817
			c-22.478,1.367-38.825,22.157-39.264,43.821c-0.437,21.581,18.398,39.111,39.691,37.817c22.478-1.367,38.825-22.157,39.264-43.821
			c0.066-3.271-2.77-4.704-5.511-3.182C366.451,151.119,364.404,154.958,364.331,158.537z"/>
	</g>
</g>
<g>
	<g>
		<path d="M348.464,155.92c-0.34,7.168-6.802,10.234-13.261,9.307c-5.981-0.859-10.061-6.602-10.331-12.309
			c-0.345-7.232,7.308-10.162,13.261-9.307C344.115,144.469,348.194,150.213,348.464,155.92c0.212,4.456,5.544-0.144,5.408-3.002
			c-0.445-9.367-7.992-17.736-17.965-16.305c-9.698,1.392-15.993,9.836-16.443,19.307c-0.449,9.453,8.665,17.64,17.965,16.305
			c9.698-1.392,15.993-9.836,16.443-19.307C354.08,148.531,348.597,153.126,348.464,155.92z"/>
	</g>
</g>
<g>
	<g>
		<path d="M236.691,155.905c-0.341,7.168-6.802,10.234-13.262,9.307c-5.981-0.859-10.06-6.602-10.331-12.309
			c-0.344-7.232,7.308-10.162,13.262-9.307C232.341,144.454,236.42,150.198,236.691,155.905c0.212,4.456,5.543-0.144,5.407-3.002
			c-0.445-9.367-7.992-17.736-17.964-16.305c-9.698,1.392-15.993,9.836-16.443,19.307c-0.449,9.453,8.665,17.64,17.964,16.305
			c9.698-1.392,15.993-9.836,16.443-19.307C242.307,148.515,236.824,153.111,236.691,155.905z"/>
	</g>
</g>
<g>
	<g>
		<path d="M227.987,150.317c-0.484,9-13.351,6.371-13.775-1.501c-0.237-4.402,4.429-6.167,8.01-5.583
			C225.612,143.785,227.814,147.107,227.987,150.317c0.12,2.229,2.781-0.071,2.704-1.501c-0.282-5.235-4.538-10.044-10.171-9.126
			c-5.34,0.87-8.729,5.375-9.012,10.627c-0.285,5.296,4.964,9.976,10.172,9.127c5.34-0.87,8.728-5.376,9.011-10.628
			C230.808,146.626,228.062,148.923,227.987,150.317z"/>
	</g>
</g>
<g>
	<g>
		<path d="M339.296,150.317c-0.485,9-13.353,6.371-13.776-1.501c-0.236-4.402,4.431-6.167,8.012-5.583
			C336.921,143.785,339.123,147.106,339.296,150.317c0.12,2.229,2.78-0.071,2.703-1.501c-0.281-5.235-4.537-10.044-10.171-9.126
			c-5.34,0.87-8.729,5.375-9.012,10.627c-0.285,5.296,4.964,9.975,10.172,9.127c5.34-0.87,8.729-5.376,9.011-10.628
			C342.117,146.626,339.371,148.923,339.296,150.317z"/>
	</g>
</g>
<g>
	<g>
		<path d="M239.597,254.476c26.567,6.661,57.736,6.659,83.3-3.512c3.421-1.361,5.845-4.432,6.529-8.08
			c0.432-2.302-0.579-6.765-3.986-5.409c-24.905,9.909-54.816,9.763-80.683,3.277C239.22,239.365,232.881,252.792,239.597,254.476
			L239.597,254.476z"/>
	</g>
</g>
<g>
	<g>
		<path d="M200.551,255.184c3.189,17.362,10.253,38.181,26.486,47.153c7.504,4.148,15.932,5.856,24.198,7.751
			c4.374,1.002,24.854,4.453,20.894,12.146c-3.815,7.411-14.98-0.965-19.154-3.879c-1.461-1.021-9.605-8.465-10.901-3.611
			c-0.454,1.699,2.089,4.455,2.853,5.7c2.655,4.332,5.126,8.826,6.469,13.753c0.665,2.439,0.617,12.913-4.33,10.469
			c-3.72-1.839-5.133-6.611-5.952-10.328c-0.996-4.515-1.718-10.605-0.558-15.194c-1.649-0.243-3.297-0.487-4.946-0.73
			c-0.095,2.588-1.246,5.461-1.958,7.917c-1.434,4.945-3.292,9.888-6.154,14.194c-0.84,1.264-2.875,4.158-4.581,2.676
			c-1.418-1.232,0.629-5.521,1.084-6.712c2.064-5.404,4.295-10.609,4.674-16.458c0.862-13.29-12.438-14.633-19.76-22.811
			c-5.279-5.894-8.367-15.265-11.116-22.566c-1.44-3.824-2.76-7.724-3.828-11.67c-0.625-2.312-5.607-2.273-4.915,0.282
			c3.312,12.235,8.128,26.031,15.975,36.061c4.381,5.601,11.662,7.541,16.721,12.264c5.408,5.048,0.18,16.799-1.99,22.232
			c-1.469,3.677-3.495,7.977-0.729,11.484c3.041,3.857,8.285,2.17,11.15-0.663c3.878-3.834,5.912-9.739,7.548-14.801
			c1.059-3.275,2.698-7.209,2.826-10.7c0.092-2.513-4.327-3.179-4.946-0.73c-1.175,4.648-0.362,10.68,0.413,15.299
			c1.098,6.543,4.564,13.728,11.691,15.161c3.477,0.699,6.427-2.271,8.046-5.083c2.067-3.591,1.078-8.356-0.086-12.036
			c-1.307-4.132-3.476-7.983-5.68-11.689c-0.895-1.504-1.835-2.981-2.744-4.477c-1.445-2.377,2.406,4.114-3.583,1.092
			c0.468,0.236,0.898,0.572,1.325,0.872c7.294,5.117,26.78,20.129,32.395,4.939c4.826-13.057-30.497-16.925-37.739-19.104
			c-5.676-1.707-11.192-4.194-15.805-7.962c-5.123-4.183-8.196-10.708-10.879-16.606c-3.43-7.537-6.001-15.76-7.5-23.917
			C205.033,252.546,200.066,252.547,200.551,255.184L200.551,255.184z"/>
	</g>
</g>
<g>
	<g>
		<path d="M356.213,252.702c-1.419,7.725-3.9,15.313-6.924,22.542c-2.381,5.693-5.33,11.61-9.539,16.174
			c-4.118,4.467-10.015,7.201-15.646,9.194c-8.247,2.919-17.037,4.061-25.406,6.589c-5.51,1.665-15.204,4.644-14.688,11.925
			c0.482,6.817,8.863,8.458,14.07,7.312c6.594-1.451,12.422-6.109,17.741-10.024c0.743-0.547,1.483-1.1,2.28-1.567
			c-6.005,3.528-2.236-3.999-3.697-1.459c-0.393,0.684-0.825,1.349-1.24,2.019c-2.504,4.045-4.873,8.146-6.614,12.584
			c-2.354,6.004-2.997,17.777,5.991,19.082c7.521,1.092,11.724-8.552,12.973-14.215c1.052-4.772,1.783-11.353,0.556-16.207
			c-0.591-2.339-5.014-2.4-4.914,0.293c0.117,3.185,1.585,6.754,2.52,9.754c1.671,5.366,3.801,10.731,7.34,15.15
			c2.7,3.371,7.559,5.277,11.233,2.083c3.593-3.123,1.064-8.271-0.354-11.87c-2.43-6.166-6.269-14.945-2.634-21.383
			c1.539-2.725,5.675-4.394,8.241-5.933c3.017-1.809,5.885-3.795,8.389-6.276c6.003-5.949,9.307-15.803,12.292-23.525
			c1.698-4.392,3.243-8.892,4.474-13.44c0.644-2.374-4.29-3.148-4.947-0.719c-3.078,11.37-7.758,22.558-13.831,32.641
			c-3.38,5.613-10.049,8.216-15.246,11.761c-4.473,3.05-5.945,7.246-5.596,12.646c0.391,6.013,2.753,11.367,4.873,16.919
			c1.484,3.888,1.302,9.811-3.014,4.981c-3.408-3.813-5.108-9.485-6.595-14.258c-0.842-2.703-2.125-5.955-2.23-8.823
			c-1.638,0.098-3.276,0.195-4.914,0.293c2.008,7.943,0.216,24.563-9.36,26.49c0.832,0.12,1.664,0.241,2.497,0.362
			c-9.46-5.126-1.882-17.73,1.996-24.252c1.068-1.796,2.974-3.849,3.36-5.962c0.36-1.967-2.517-2.706-3.898-2.198
			c-4.659,1.714-8.741,6.172-13.059,8.658c-2.878,1.657-6.392,3.445-9.812,3.064c-4.041-0.45-4.77-5.256-2.218-7.666
			c5.899-5.571,17.284-6.67,24.866-8.388c7.941-1.799,15.704-4.153,22.619-8.579c8.991-5.756,13.69-15.993,17.406-25.62
			c2.415-6.255,4.394-12.829,5.606-19.432C361.612,250.967,356.667,250.231,356.213,252.702L356.213,252.702z"/>
	</g>
</g>
</svg>
