<?xml version="1.0" encoding="utf-8"?>
<!-- Generator: Adobe Illustrator 23.0.1, SVG Export Plug-In . SVG Version: 6.00 Build 0)  -->
<svg version="1.1" id="Layer_3" xmlns="http://www.w3.org/2000/svg" xmlns:xlink="http://www.w3.org/1999/xlink" x="0px" y="0px"
	 viewBox="0 0 566.9 566.9" style="enable-background:new 0 0 566.9 566.9;" xml:space="preserve">
<g>
	<path d="M521.7,254.7c-1.3-16.7-8-31.5-17.8-44.9c-4.2-5.7-8.6-11.8-13.8-16.6c-4.4-4.1-9.7-7.4-14.8-10.5
		c-12.3-7.3-42.6-13.5-42.9-12.7c-10,0.2-19.5,2.8-28.7,6.6c-7.6,3.1-14.8,6.9-22.7,9c-15.4,3.9-31.7,4.6-47.6,4.9
		c-15.1,0.4-30.3,0.2-45.5,0c-20.7-0.3-42.2-1.7-61.3-10.3c-19.8-8.9-34.5-25.6-45.5-43.9c1.3-4.1,2-8.5,2.9-12.4
		c1.8-8.2,2.8-16.5,2.1-24.9c-0.3-3.2-2.1-6.3-4.6-8.3c-0.9-0.7-3.4-2-4.4-1.2c-12.1-2.9-22.6,7.6-30.4,16.3
		c-0.2-0.1-0.5-0.1-0.7-0.2c1.4-5,5.4-9.7,8.3-13.6c3.8-4.9,7.8-9.6,11.9-14.3c3.8-4.3,7.4-9,11.6-12.9c5.1-4.8,11.6-8.2,17.5-11.9
		c2.1-1.3-1.2-8.7-2.7-7.7c-1.7,1.1-3.4,2.1-5.2,3.2c-0.3,0.1-0.6,0.1-0.8,0.2c-16,4.1-30.6,9.4-40.9,22.9
		c-8.6,11.2-19.1,21.5-26.4,33.7c-0.7,0.1-1.4,0.2-2.1,0.3c1.7-3.2,3.9-6.3,5.6-8.9c3.4-5.2,7.1-10.2,10.8-15.1
		c3.5-4.6,6.7-9.5,10.6-13.8c4.5-4.9,10.5-8.7,15.8-12.6c2-1.5-1.4-8.7-2.7-7.7c-1.6,1.2-3.3,2.4-5,3.7c-0.3,0.1-0.6,0.2-0.8,0.2
		c-15.6,5.4-29.9,11.5-39.2,25.8c-9,13.8-18.2,26.2-24.1,41.7c-0.2,2.3-1.8,4.8-1.8,4.8s-5.7,8.2-7.9,12.2
		c-5.4,9.6-5.7,19.3-6.7,29.9c-0.5,6.1-5,10.3-9,14.6c-3.4,3.7-7.1,7.2-10.8,10.7c-6.1,5.9-12.2,13.3-11.3,22.4
		c1.8,17.8,23.3,24,39.3,23.5c-4,10.7-7.1,22-17.1,28.6c-0.9,0.6-0.7,2,0.1,3.6c-1.9,1.3-2.7,3-0.7,4c14.8,7.6,31.1-2.7,41.6-13
		c10.5-10.3,18.7-23.5,19.8-38.3c3.1-0.6,6.2-0.6,9.6,0.9c5,2.1,10.4,4.9,12,10.5c0.3,0.9,1.1,1.2,2.1,1c0.5,0.6,1,1.1,1.4,1.4
		c5.2,4.8,8,12,11.4,18c4.8,8.4,11,15.1,18.4,21.3c6.9,5.7,13.1,12.2,19.9,18c2.3,2,6.5,6.1,10.9,9c0.2,23.1-0.6,46.3-1.1,69.4
		c-0.3,12.8-0.5,25.7-0.4,38.5c0.1,12.4-0.7,25.7,2.4,37.8c0,0.2,0.1,0.3,0.1,0.5c-2.6,3.2-5.8,5.8-8.1,9.3c-2.2,3.4-3,7.3-4.2,11.1
		c-0.3,0-0.6-0.1-0.9-0.1c-6.8-0.8-0.5,12,4.2,12.6c11,1.2,21.9,1.6,32.9,1c1.8-0.1,2.2-1.7,1.7-3.8c2-0.1,3.6-0.8,4.1-2.1
		c1.1-2.8,3.2-8.5,3.2-8.5l2.6,0.1c0,0,20.7,4.5,29.1,3.1c1.3-0.2,1-1.2-0.1-2.3c-1-10.1,4.3-16.7,11.2-23.3c1.1-1-1.7-3.9-3.8-4.4
		c-1.1-6.7-2.6-13.2-2.4-20c0.3-8.8,2.1-17.7,4.1-26.3c3.7-16.2,9.2-32,16.3-47c1.2-0.3,2.4-0.5,3.5-0.8c0.7,0.1,1.3,0.1,1.8-0.1
		c1.2-0.4,2.3-0.7,3.5-1c4.1-0.8,8.2-1.5,12.3-1.9c0.3,0,0.6-0.1,0.9-0.2c3.7-0.4,7.3-0.7,11-1.1c8.7-1,17.2-0.8,25.7,0.2
		c0.1,0,0.2,0.1,0.3,0.1c2.4,0.7,4.7,1.3,7.1,2c3,4.4,6.7,8.5,10,12.3c7.5,8.6,15.5,16.7,23.3,25c0,0,0.1,0.1,0.1,0.1
		c0,12.2-0.9,24.5-3.1,36.5c-1,5.5-2.1,10.9-2.4,16.5c-0.3,5.8,0.4,12.9-2.6,18.1c-0.2,0.4-0.2,0.8,0,1.3c-3,2.3-5.8,4.9-8.1,8
		c-1.2,1.6-2.3,3.4-3.2,5.2c-0.6,1.2-2.9,5.6-3.1,5.8c-1.1,0.8-1.8,1.6-0.5,2.4c0.9,0.5,12.6,1.1,16.9,0.5c3.9-0.5,7.7-0.9,11.6-1.1
		c0,0,0.1,0,0.1,0c1.3-0.1,2.6-0.1,3.9-0.1c0.6,0,0.8-0.5,0.5-1c-0.2-0.3-0.3-0.6-0.5-0.8c0,0,0,0,0-0.1c0.5-0.5,0.9-1,1.1-1.5
		c4.6-18.1,10-36.3,13.5-54.7c1.7-8.9,0.9-17.7,1.3-26.7c0.3-6.5,1.3-13,2.8-19.3c5.8,6,9.8,13.6,16.6,18.4
		c-0.1,0.4-0.2,0.7-0.2,1.1c1,17.2,0.4,34.3-0.5,51.5c-0.2,4-0.4,7.9-0.7,11.9c-0.1,1.6,0.1,3.9-0.7,5.3c-0.8,1.5-2.8,2.3-4.2,3.3
		c-3.8,2.7-7,5.8-9.9,9.2c-0.6,0.2-0.9,0.5-0.8,1c-0.2,0.2-0.4,0.5-0.6,0.7c-1.2,0.9-2.2,2.1-2.6,3.5c-0.1,0.4-0.2,0.8-0.3,1.1
		c-0.8,2.8,4.5,2.3,5.6,2c1.6-0.3,3.2-0.9,4.7-1.8c10.9,0.8,21.7-1.6,32.6-0.7c2.5,0.2,2.5-1.2,1.4-2.7c0.7-0.4,1.2-0.9,1.4-1.4
		c4.2-16.9,8.1-33.9,12.8-50.6c2.3-8.1,4.9-16.2,8-24.1c2.9-7.3,6.1-13.9,5.8-21.9c-0.7-15.5-5.2-31.5-10.9-45.9
		c-1.4-3.6-3-7.2-4.7-10.7c-1.5-3.1-4.6-6.7-3.1-10c1.5-3.4,4-6.6,5.8-9.9c2-3.6,3.9-7.2,5.6-11c4.8-10.6,7.5-21.6,7.1-32.7
		c1.3,3.5,2.6,7.1,3.6,10.7c2.9,9.8,4.7,19.8,4.4,30c-0.1,2.5,4.3,9.1,7.3,7.1c6.5-4.3,10-11.6,9.3-19.4c0.2-1.8,0.4-3.6,0.5-5.3
		C522,271.6,522.4,263.1,521.7,254.7z M152.8,75c4.5-6,8.8-11.6,15.7-15.1c2-1,4.1-1.9,6.2-2.6c-4.8,4.4-8.9,9.8-13.2,14.7
		c-4.7,5.3-9.3,10.7-13.4,16.5c-3.4,4.8-6.7,9.7-6.8,15.8c0,0.2,0,0.3,0,0.5c-3.9-0.6-7.8-0.8-11.8-0.7
		C136.1,93.5,145.4,84.8,152.8,75z M119.7,80.8c4-6.3,7.8-12.2,14.2-16.4c2-1.3,4.2-2.4,6.4-3.4c-4.6,5-8.4,10.8-12.4,16.2
		c-6.2,8.3-15.4,18.7-16.9,29.6c-4.2,1.1-8.3,2.6-11.9,4.7C104.7,100.5,113.1,91.2,119.7,80.8z M100.5,253.1
		C94.7,260,86.3,269,77,268.8c7.8-9,10.1-21.9,15.2-32.5c0.2-0.5,0.2-1.1,0.1-1.7c7.1-2.4,13.7-6.5,20.7-9.4
		C111.8,235.6,107.2,245.1,100.5,253.1z M244,407.4c0.2-15.1,4.1-29.4,10.9-42.6c1,10.6,0.2,21.4,0.7,32c0.6,13.6,1.9,27.1,1,40.7
		c-5.1,2.8-8.8,6.1-10.9,11.6c-0.9,2.4-2.3,4.9-3.1,7.3c0,0-0.1,0-0.1,0c0.3-3.2,1.1-6.5,1.3-9.1c0.3-4.5,0.3-9.1,0.3-13.6
		C244,425,243.8,416.2,244,407.4z M279.8,392c-1.7,8-3.3,16.2-3.7,24.3c-0.4,9,2.3,17.5,3.1,26.4c0,0,0,0.1,0,0.1
		c-6.4,6.5-10.6,13-9.8,22.7c-0.1,0-0.3,0-0.4,0c-4.3,0.7-8.3-0.3-12.6-0.9c-3.4-0.5-6.9-0.7-10.3-0.9c0.1-0.6,0.2-1.1,0.3-1.7
		c0.4-0.6,0.7-1.2,0.9-1.9c0.1-0.3,0.1-0.7-0.1-1c0.7-2.1,1.7-4.2,2.5-6.3c1.5-3.7,4.3-6.3,7.5-8.3c0.2,0.1,2.8-1.6,3-1.7
		c0.5-0.2,0.4-1,0.1-1.9c0.1-0.6,0.2-1.2,0.2-1.6c1.5-15.5,0-31-0.7-46.5c-0.5-11.4,0.3-23.1-1-34.5c0.9,0.2,1.8,0.2,2.7-0.1
		c10.7-2.9,21.3-6.3,32.1-9.1C287.7,363,283,377.3,279.8,392z M418.1,419.6c-3.3,17.5-8.3,34.7-12.8,52c-0.5,0-12.2,1.4-13.8,1.6
		c-2.6,0.4-5,0.1-7.5-0.3c1.8-2.1,2.6-4.5,4-7.2c1.7-3.1,3.8-5.9,6.4-8.3c0.8,0.5,1.7,0.5,2.1-0.2c0.4-0.8,0.8-1.6,1.1-2.4
		c0.5-0.5,0.8-0.9,0.4-1.4c1-4,0.9-8.6,1-12.5c0.3-6.8,1.6-13.4,2.7-20.1c2.2-12.9,3.2-26,2.9-39.2c0-1.9-4.4-5.3-4.7-3.2
		c-6-6.3-12-12.6-17.8-19c-3.7-4.1-8.1-8.5-11.6-13.4c8.9,2.5,17.9,5,26.8,7.5c9,2.5,20.1,4.1,28.4,9.1c-2.2,1.6-3.6,3.6-2.2,4.6
		c0,0,0.1,0.1,0.1,0.1c-2.4,8.3-4,16.8-4.4,25.5C419,401.8,419.8,410.7,418.1,419.6z M492.9,238.6c0-0.1,0-0.1-0.1-0.2
		c-0.2-0.6-0.8-1-1.5-1.3c-1.4-1.2-3-2.1-4.8-2.9c-3-1.2-4.8,5-4.5,5.9c5.5,15.6,4.3,31.5-2.1,46.7c-2.9,7.1-6.7,13.7-10.6,20.3
		c-1.4,2.4-3.6,4.9-3,7.8c0.7,3.5,3.7,7.2,5.2,10.5c6.6,14.4,11.1,29.7,13.3,45.4c1.2,8.5,0.7,15.4-2.6,23.4
		c-3.3,7.8-6.1,15.8-8.6,23.9c-5.3,17.4-9.4,35.2-13.7,52.9c-6.5-0.2-13,0.5-19.5,0.9c1.4-1.7,3-3.4,4.8-4.8
		c2.9-2.3,6.3-3.9,8.8-6.6c4.7-5.2,3.5-13.8,3.9-20.3c1-17.8,1.6-35.6,0.6-53.5c0-0.3-0.1-0.6-0.2-0.8c0.1-0.5,0-0.9-0.5-1.2
		c-8.6-4.5-13-13.5-19.6-20.3c-0.8-2-3.1-4-4.1-4.9c-10.3-8.8-23.8-11.6-36.5-15.2c-10.3-2.9-20.6-5.8-31-8.7
		c-0.9-0.7-1.8-1.3-2.7-1.7c-1.1-0.9-2.3-1.5-2.6-0.8c-12.1-2.1-24.1-3-36.3-1.6c-8.8,1-17.6,1.4-26.2,3.5c-15.3,3-30.2,7.8-45.2,12
		c-1.2-0.6-2.3-0.7-2.8,0.1c-0.2,0.3-0.4,0.6-0.6,0.9c-0.3,0.3-0.5,0.6-0.6,1c-9.4,15.4-15,32-15.4,50.2c-0.2,9.7,0,19.4,0,29.1
		c0,5.2-0.1,10.4-0.5,15.6c-0.4,4.3-1.6,8.6-0.6,12.8c-0.4,0.3-0.7,0.7-0.9,1.1c-0.8,2.3-2.7,4.1-3.6,6.4c-0.7,1.6-1.3,3.3-1.9,4.9
		c-6.7,0.3-13.3,0.3-19.9,0c0.8-2.2,1.7-4.3,3.2-6.2c2.1-2.7,4.5-4.9,6.7-7.5c1.6,0.4,2.7-0.4,2.1-2.6c0-0.1,0-0.2-0.1-0.2
		c0.5-0.8,0.1-2.1-0.7-3.4c-2-10.9-1.2-22.9-1.3-33.8c-0.1-12.8,0.2-25.7,0.5-38.5c0.6-24,1.3-48,1-72c0.9-0.1,1.7-0.4,2.5-0.9
		c4.8-3.2-5.7-17.3-11.7-15.5c-1.8-1-4.6-3.6-6.2-4.9c-3-2.5-5.8-5.2-8.7-7.9c-5.8-5.4-12.4-10.2-17.9-15.9
		c-4.3-4.5-6.9-10.6-9.9-15.9c-3.2-5.7-6.9-11.1-11.4-15.8c0.1-0.4,0.1-0.7,0-1.1c-2.1-7.3-8.9-10.9-15.6-13.3
		c-7.8-2.9-17.2,1.6-24.4,4.5c-8.9,3.6-17.3,9.9-27.2,10.2c-0.3,0-0.5,0-0.8,0c-1.3-0.6-2.5-0.8-3.2,0c-7.5-0.2-15.5-1.7-21.9-5.2
		c-7.7-4.2-14.3-13.7-10.6-22.6c1.5-3.7,4.5-6.4,7.3-9.1c3.5-3.3,7-6.7,10.3-10.3c5.9-6.5,11.8-12.6,12.4-21.7
		c0.8-10.9,1.5-20.4,7.8-29.7c2.7-4,6.3-10.3,10.7-12.6c3.5-1.9,12.2-3.5,12.2-3.5s10.8-0.9,11.8-1.3c8.1-0.3,16,1,23.4,4.6
		c1.8,2.1,3.9,3.4,4.9,2.2c5.9-6.6,15-17.5,24.8-18.6c-0.3,4.5-0.9,8.9-1.9,13.3c-1.3,5.8-2.1,14.7-6.1,19.4c-3,3.6,5.8,13.9,8,11.3
		c0.5-0.6,1-1.3,1.5-2c9.1,13.4,20,25.5,33.3,34.9c17.6,12.4,38.3,17.9,59.4,19.8c17.8,1.6,35.8,1.4,53.7,1.3
		c17.5,0,35-0.4,52.3-3.1c8.5-1.3,16.4-3.5,24.3-7c10.4-4.6,20.8-9,32.1-10.2c0.5,0.7,1.1,1.1,1.9,1.2c12.3,1.1,25.2,5.6,36,11.5
		c9.7,5.3,17.5,11.5,24.5,20.1c8.3,10.3,16.2,21.6,19.1,34.8c1.7,7.5,1.8,15.2,1.5,22.8c-0.1,2.4,0.4,5.4-0.2,9.5s-4.8,9.2-5,9.8
		c-1.2-8.4-3.6-16.7-6.4-24.8C502.1,255.2,499.2,244.9,492.9,238.6z"/>
</g>
<ellipse transform="matrix(0.8432 -0.5376 0.5376 0.8432 -62.9348 84.2254)" cx="112.9" cy="150" rx="12.6" ry="6.5"/>
</svg>
