<?xml version="1.0" encoding="UTF-8" standalone="no"?>
<!DOCTYPE svg PUBLIC "-//W3C//DTD SVG 1.1//EN" "http://www.w3.org/Graphics/SVG/1.1/DTD/svg11.dtd">
<svg width="100%" height="100%" viewBox="0 0 1024 1024" version="1.1" xmlns="http://www.w3.org/2000/svg" xmlns:xlink="http://www.w3.org/1999/xlink" xml:space="preserve" xmlns:serif="http://www.serif.com/" style="fill-rule:evenodd;clip-rule:evenodd;stroke-linejoin:round;stroke-miterlimit:1.41421;">
    <g id="Layer_2_copy">
        <g id="figs_2_">
            <path d="M119.933,777.778C112.179,766.217 109.828,744.576 113.206,731.511C116.734,717.869 124.347,705.799 134.758,696.379C148.66,683.798 167.302,675.949 185.73,673.246C193.563,672.098 201.495,671.018 209.013,668.437C214.575,666.528 221.145,663.11 221.489,656.49C221.552,655.273 219.755,655.252 219.454,656.314C216.936,665.205 202.969,666.871 195.454,668.062C190.537,668.842 185.59,669.399 180.667,670.138C175.477,670.916 170.471,672.396 165.513,674.099C152.625,678.524 140.501,685.378 130.452,694.612C120.337,703.906 113.343,715.907 109.451,729.024C106.534,738.853 104.781,764.013 107.08,774.029" style="fill:rgb(1,1,1);fill-rule:nonzero;"/>
            <path d="M302.165,776.797C303.236,768.943 303.486,763.143 301.475,748.635C299.977,737.827 297.347,727.796 290.806,718.894C284.813,710.735 276.79,704.343 268.864,698.168C260.548,691.689 251.364,685.402 244.888,676.955C242.303,673.583 240.894,669.889 242.019,665.691C243.151,661.473 246.038,657.337 248.114,653.53C248.501,652.818 247.474,652.054 246.944,652.695C243.635,656.693 240.256,660.433 238.53,665.433C236.953,670.001 238.591,674.595 241.136,678.442C244.676,683.79 249.803,688.199 254.66,692.31C259.487,696.396 264.543,700.203 269.496,704.133C279.212,711.846 288.7,720.472 293.354,732.269C295.971,738.899 296.915,746.318 297.681,753.361C298.518,761.047 298.802,768.612 297.612,776.26" style="fill:rgb(1,1,1);fill-rule:nonzero;"/>
            <path d="M245.834,648.572C236.517,645.024 219.697,647.347 216.517,658.381C216.217,659.423 217.01,660.488 218.003,660.729C223.175,661.977 228.79,661.617 233.961,660.589C238.83,659.622 244.273,657.215 246.297,652.348C246.732,651.301 246.532,650.018 245.42,649.464C242.392,647.958 239.793,647.21 236.686,648.834C235.878,649.256 236.128,650.642 237.022,650.773C239.192,651.095 241.447,652.267 243.413,653.225C243.121,652.264 242.828,651.302 242.536,650.34C240.842,654.518 236.09,655.938 232.041,656.784C227.771,657.676 223.148,657.671 218.865,656.892C219.36,657.674 219.855,658.457 220.35,659.24C222.539,649.616 237.891,649.638 245.5,650.049C246.255,650.092 246.553,648.846 245.834,648.572Z" style="fill:rgb(1,1,1);fill-rule:nonzero;"/>
            <path d="M147.419,788.041C132.159,782.687 129.8,778.804 124.662,767.158C120.008,756.609 116.574,737.758 120.212,726.968C124.721,713.6 133.741,702.82 145.515,695.221C157.047,687.778 170.432,683.448 183.69,680.271C197.356,676.997 218.748,677.713 225.132,662.198C225.385,661.585 224.51,661.09 224.21,661.706C218.754,672.881 205.194,674.794 194.161,676.534C181.914,678.467 169.86,681.474 158.402,686.275C146.319,691.338 135.021,698.734 127.117,709.337C120.136,718.701 115.654,730.55 115.344,742.259C114.823,761.953 125.644,788.4 146.348,790.184" style="fill:rgb(1,1,1);fill-rule:nonzero;"/>
            <path d="M292.527,778.671C292.906,773.185 293.22,758.467 292.849,753.003C292.519,748.126 292.522,742.641 289.758,738.399C289.67,738.258 289.435,738.36 289.494,738.519C291.306,743.381 291.134,748.794 291.208,753.91C291.281,758.884 290.868,773.03 290.567,778.018" style="fill:rgb(1,1,1);fill-rule:nonzero;"/>
            <path d="M235.85,662.663C228.481,680.252 246.476,695.188 258.531,704.728C265.89,710.554 273.594,716.109 279.955,723.063C283.202,726.614 285.746,730.547 287.377,735.084C289.999,742.368 290.565,750.372 291.077,758.038C291.116,758.611 292.056,758.738 292.119,758.129C293.306,746.603 291.23,733.892 284.009,724.554C278.433,717.342 270.941,711.738 263.789,706.199C256.346,700.434 248.621,694.678 242.686,687.29C240.036,683.991 237.925,680.295 236.701,676.234C235.375,671.838 235.697,667.313 236.29,662.827C236.325,662.579 235.962,662.398 235.85,662.663Z" style="fill:rgb(1,1,1);fill-rule:nonzero;"/>
        </g>
        <path d="M229.151,669.712C230.755,672.117 232.003,674.669 233.138,677.263C234.264,679.86 235.23,682.515 236.076,685.203C236.915,687.894 237.621,690.622 238.222,693.373C238.799,696.126 239.328,698.895 239.567,701.703C240.11,707.317 239.544,713.021 239.313,718.615C239.085,724.215 239.286,729.752 239.622,735.347C239.99,740.936 240.488,746.612 240.178,752.27C240.029,755.097 239.725,757.915 239.383,760.732L239.111,762.873C239.005,763.622 238.891,764.327 238.766,765.055C238.506,766.495 238.208,767.933 237.819,769.348C237.075,772.187 236.025,774.946 234.727,777.589C233.446,780.239 231.897,782.768 230.122,785.141C228.337,787.504 226.308,789.721 223.913,791.576C222.713,792.495 221.44,793.348 220.022,793.983C218.632,794.615 217.032,795.097 215.461,794.866L215.381,794.069C216.582,793.514 217.483,792.59 218.333,791.633C219.161,790.648 219.913,789.595 220.599,788.492C221.967,786.283 223.154,783.959 224.229,781.588C226.393,776.844 228.022,771.906 229.62,766.962C230.002,765.719 230.406,764.479 230.76,763.222L231.281,761.343L231.534,760.373L231.764,759.403C232.372,756.767 232.878,754.108 233.402,751.442C234.434,746.113 235.73,740.736 236.398,735.26C237.034,729.79 237.035,724.25 236.154,718.801C235.272,713.344 233.594,708.027 232.603,702.679C232.073,700.006 231.728,697.309 231.322,694.616L230.196,686.509C229.499,681.075 228.796,675.63 228.397,669.977L229.151,669.712Z" style="fill-rule:nonzero;"/>
        <path d="M-96.012,766.784C-92.891,766.028 -89.774,765.462 -86.636,764.92C-83.502,764.385 -80.36,763.892 -77.21,763.474C-70.911,762.632 -64.596,761.895 -58.268,761.32C-45.612,760.188 -32.924,759.395 -20.228,759.004C-13.88,758.79 -7.531,758.638 -1.181,758.541C5.169,758.468 11.518,758.485 17.867,758.53C30.564,758.631 43.261,758.895 55.943,759.433C62.285,759.678 68.624,759.985 74.96,760.343C78.037,760.5 81.519,760.717 84.82,761.154C88.148,761.579 91.463,762.163 94.734,762.934C101.28,764.466 107.659,766.669 113.747,769.376C119.847,772.069 125.627,775.308 131.168,778.721C142.266,785.518 152.335,793.317 162.727,799.024C167.92,801.854 173.205,804.06 178.591,805.152C181.273,805.702 184.032,805.944 186.715,805.93C189.769,805.904 192.7,805.742 195.722,805.463C207.748,804.385 219.819,801.528 231.8,798.098C243.797,794.667 255.726,790.579 267.713,786.524C279.709,782.486 291.726,778.328 303.963,774.778C316.178,771.178 328.588,768.068 341.222,766.045C347.537,765.035 353.908,764.325 360.306,763.948C366.685,763.549 373.187,763.714 379.46,763.902C392.101,764.223 404.74,764.583 417.383,764.691L436.344,764.876L455.3,764.825C461.615,764.794 467.93,764.704 474.23,764.541C477.379,764.462 480.526,764.368 483.658,764.24L488.33,764.011L490.622,763.856L491.725,763.756L492.234,763.699L492.45,763.669L492.525,763.655C492.499,763.661 492.644,763.63 492.384,763.678L492.78,763.604L493.191,763.593L513.746,763.08L524.023,762.823C527.794,762.758 531.259,762.997 534.756,763.241C541.714,763.765 548.569,764.478 555.41,765.293C562.249,766.099 569.067,766.96 575.878,767.845C589.49,769.67 603.065,771.621 616.628,773.567C630.186,775.535 643.735,777.504 657.267,779.335C664.031,780.248 670.793,781.126 677.522,781.902C680.883,782.294 684.239,782.66 687.551,782.956C690.849,783.238 694.166,783.502 696.989,783.413C700.027,783.317 703.377,783.013 706.677,782.67C709.996,782.32 713.345,781.91 716.698,781.472C723.408,780.599 730.138,779.581 736.878,778.591C763.821,774.464 790.852,769.994 817.774,765.377L816.67,765.668C819.59,764.698 822.323,763.865 825.152,763.028C827.96,762.2 830.773,761.408 833.595,760.648C839.24,759.133 844.916,757.733 850.645,756.503C862.109,754.086 873.739,752.185 885.668,751.464C888.651,751.29 891.654,751.198 894.679,751.215C897.712,751.232 900.74,751.385 903.672,751.59C909.565,752.011 915.341,752.693 921.096,753.422C932.596,754.908 943.978,756.71 955.332,758.633C978.014,762.612 1000.55,767.046 1023.01,771.96L1024.07,772.19L1024.6,772.306C1024.66,772.318 1024.31,772.261 1024.49,772.29L1024.56,772.301L1024.69,772.323L1024.95,772.367L1027.08,772.72L1031.32,773.435L1039.8,774.889L1056.76,777.8L1073.72,780.794L1090.65,783.881L1090.47,785.268L1073.32,783.746L1056.18,782.131L1039.05,780.434L1030.49,779.583L1026.21,779.145L1024.07,778.921L1023.8,778.894L1023.67,778.88L1023.6,778.872L1023.36,778.836L1022.83,778.754L1021.77,778.588C1010.47,776.82 999.119,775.217 987.792,773.573C976.462,771.943 965.123,770.399 953.783,768.994C942.454,767.539 931.115,766.195 919.816,765.188C914.171,764.684 908.528,764.286 902.971,764.055C900.179,763.941 897.474,763.882 894.773,763.945C892.065,764.007 889.336,764.167 886.601,764.405C875.65,765.377 864.63,767.482 853.733,770.11C848.279,771.421 842.84,772.852 837.441,774.421C834.741,775.203 832.049,776.018 829.374,776.863C826.721,777.703 823.986,778.598 821.481,779.484L820.97,779.665L820.376,779.775C806.844,782.273 793.352,784.722 779.796,786.979L759.451,790.302C752.656,791.354 745.853,792.375 739.032,793.349C732.213,794.335 725.369,795.206 718.476,796.002C715.029,796.395 711.569,796.762 708.068,797.073C704.548,797.376 701.065,797.652 697.253,797.714C693.221,797.751 689.7,797.373 686.18,797.025C682.672,796.653 679.223,796.219 675.785,795.761C668.917,794.829 662.109,793.795 655.312,792.734C641.724,790.605 628.194,788.349 614.672,786.097L574.162,779.28C560.691,777.003 547.169,774.752 533.795,773C530.474,772.596 527.107,772.213 524.022,772.117L513.745,771.86L493.19,771.347L493.998,771.262C493.64,771.329 493.688,771.312 493.564,771.33L493.344,771.354L492.97,771.385L492.298,771.427L491.034,771.478L488.588,771.526L483.777,771.529C480.585,771.506 477.408,771.447 474.234,771.374L455.221,770.825L417.264,769.479C404.619,768.968 391.972,768.617 379.329,768.17C376.162,768.076 373.001,767.91 369.904,767.899C366.788,767.896 363.671,767.997 360.557,768.193C354.329,768.568 348.124,769.373 341.969,770.47C329.651,772.667 317.565,776.125 305.682,780.186C293.81,784.303 282.091,788.919 270.38,793.699C258.657,798.449 246.894,803.26 234.779,807.491C228.726,809.62 222.56,811.523 216.276,813.177C209.988,814.81 203.574,816.206 197.003,817.036C193.74,817.451 190.358,817.75 187.09,817.889C183.45,818.044 179.871,817.769 176.339,817.148C169.267,815.916 162.725,813.209 156.798,810.058C150.84,806.911 145.428,803.267 140.148,799.708C134.868,796.145 129.773,792.555 124.574,789.292C114.217,782.74 103.444,777.386 91.92,774.507C89.045,773.786 86.14,773.187 83.205,772.739C80.244,772.276 77.414,772.026 74.181,771.777L55.327,770.329C42.753,769.445 30.176,768.586 17.588,767.94C11.295,767.611 4.999,767.351 -1.298,767.105C-7.595,766.835 -13.894,766.619 -20.194,766.464C-32.793,766.195 -45.401,766.003 -58.006,766.218C-64.308,766.322 -70.613,766.452 -76.91,766.762C-83.199,767.072 -89.521,767.421 -95.748,768.156L-96.012,766.784Z" style="fill-rule:nonzero;"/>
        <path d="M442.422,840.132C445.345,837.13 448.225,834.016 451.646,831.569C455.572,828.757 460.082,826.821 461.407,821.703C462.67,816.821 459.972,811.496 457.305,807.547C454.784,803.815 451.043,800.674 446.622,801.357C442.278,800.299 437.504,800.135 433.311,800.321C427.254,800.589 421.466,802.223 416.145,805.118C406.732,810.236 399.187,820.469 399.094,831.459C399.004,842.193 407.638,850.714 417.989,852.36C428.148,853.976 435.868,846.862 442.422,840.132ZM426.536,847.398C416.582,851.166 405.143,842.299 403.637,832.545C401.774,820.486 411.001,810.061 421.423,805.701C426.034,803.771 431.046,803.136 436.01,803.133C438.377,803.131 440.72,803.398 443.06,803.69C442.826,804.36 442.954,805.012 443.883,805.263C449.181,806.696 453.703,812.055 455.689,816.992C456.735,819.59 456.912,822.347 454.885,824.457C453.011,826.409 450.23,827.483 448.083,829.136C440.78,834.76 435.397,844.045 426.536,847.398Z" style="fill:rgb(1,1,1);fill-rule:nonzero;"/>
        <path d="M345.768,854.847C339.682,848.836 329.526,851.876 323.166,855.792C322.956,855.921 322.815,856.144 322.767,856.357C322.605,856.383 322.436,856.421 322.258,856.491C319.196,857.691 315.972,860.373 315.436,863.826C314.957,866.899 317.518,868.427 320.043,869.253C323.417,870.356 327.194,869.868 330.679,869.949C334.719,870.044 338.846,870.19 342.709,868.811C349.254,866.474 350.599,859.616 345.768,854.847ZM333.723,865.629C331.391,865.408 329.049,865.281 326.72,865.05C325.051,864.883 322.782,864.654 321.418,863.549C320.182,862.55 323.407,860.472 324.138,859.583C324.905,858.652 324.795,857.359 324.096,856.72C329.867,855.071 336.073,851.961 341.815,855.318C343.776,856.464 345.394,858.624 345.849,860.852C346.407,863.582 344.147,864.955 341.855,865.588C339.295,866.296 336.319,865.874 333.723,865.629Z" style="fill:rgb(1,1,1);fill-rule:nonzero;"/>
        <path d="M-10.156,801.357C-13.232,807.093 -11.101,814.324 -5.132,816.913C-2.465,818.071 0.451,818.412 3.293,818.877C7.018,819.487 9.791,820.701 12.735,823.113C18.543,827.874 23.154,833.032 31.13,833.571C42.548,834.343 48.391,821.365 45.728,811.76C43.864,805.039 36.735,800.069 31.436,796.157C26.263,792.338 20.487,788.703 14.192,787.108C9.904,786.022 4.313,786.295 2.588,791.115C2.575,791.151 2.57,791.182 2.564,791.215C-2.603,792.894 -7.792,796.945 -10.156,801.357ZM23.319,794.032C29.501,797.94 36.369,803.187 40.324,809.474C42.808,813.423 42.468,819.002 40.731,823.157C38.079,829.503 32.088,831.197 26.154,827.89C19.883,824.396 16.351,817.68 9.242,815.355C3.884,813.603 -4.273,814.844 -5.183,807.573C-6.276,798.855 4.141,797.736 8.187,792.414C9.183,791.103 7.04,790.369 6.14,790.452C5.614,790.501 5.079,790.593 4.54,790.701C9.483,785.403 18.514,790.995 23.319,794.032Z" style="fill:rgb(1,1,1);fill-rule:nonzero;"/>
        <path d="M462.386,973.221C464.259,967.098 460.139,962.084 453.764,962.886C453.466,962.924 453.144,963.067 452.831,963.277C451.215,963.378 449.55,964.044 448.122,964.705C444.95,966.174 442.287,968.774 440.54,971.769C436.608,978.514 443.248,983.784 449.691,983.856C455.775,983.924 460.721,978.667 462.386,973.221ZM451.437,979.923C446.896,980.695 441.182,977.342 443.572,972.335C445.048,969.246 448.031,967.345 451.26,966.437C451.433,966.733 451.777,966.947 452.353,967.018C455.79,967.441 458.828,968.835 458.287,972.809C457.818,976.252 454.853,979.341 451.437,979.923Z" style="fill:rgb(1,1,1);fill-rule:nonzero;"/>
        <path d="M247.833,886.627C251.422,886.196 255.028,886.041 258.641,886.092C262.284,886.143 265.974,886.977 269.605,886.51C274.404,885.893 278.23,882.355 279.027,877.573C279.897,872.349 276.847,867.232 273.082,863.887C268.712,860.008 262.715,858.631 257.02,858.526C251.34,858.421 245.809,860.069 240.962,862.97C237.366,865.123 231.905,869.498 231.682,874.239C229.29,877.343 229.296,881.726 232.912,884.362C237.268,887.539 242.779,887.233 247.833,886.627ZM236.216,878.344C235.363,876.907 236.204,875.053 236.362,873.533C236.467,872.508 235.806,871.864 234.979,871.857C236.441,869.306 238.954,867.208 241.275,865.742C245.172,863.28 249.527,862.138 254.103,861.92C262.861,861.505 273.882,866.417 274.742,876.263C275.066,879.97 272.794,882 269.25,882.105C266.624,882.183 263.84,881.408 261.215,881.175C258.384,880.925 255.542,880.895 252.703,880.989C248.307,881.135 243.879,882.264 239.613,880.691C238.404,880.247 236.904,879.505 236.216,878.344Z" style="fill:rgb(1,1,1);fill-rule:nonzero;"/>
        <path d="M64.517,872.634C68.583,875.225 75.008,873.433 77.339,869.354C79.356,865.826 76.706,861.815 73.963,859.684C70.792,857.222 62.77,856.939 61.755,861.931C61.659,862.399 61.789,862.941 62.25,863.174C62.492,863.296 62.73,863.365 62.966,863.41C61.971,864.292 61.276,865.39 61.19,866.98C61.059,869.438 62.523,871.363 64.517,872.634ZM69.368,863.454C71.156,864.175 73.212,865.533 73.583,867.598C73.964,869.716 70.605,870.033 68.881,869.827C65.573,869.434 62.809,865.65 65.9,863.107C67.1,862.951 68.23,862.995 69.368,863.454Z" style="fill:rgb(1,1,1);fill-rule:nonzero;"/>
        <path d="M351.294,816.194C353.027,819.495 356.882,819.721 359.861,818.027C362.65,816.441 365.349,812.654 362.713,809.764C360.721,807.579 355.846,806.265 353.204,807.836C352.482,808.266 351.244,809.796 351.959,810.71C350.635,812.152 350.249,814.205 351.294,816.194ZM357.655,812.389C358.426,812.658 359.253,812.973 359.74,813.501C359.908,813.687 359.885,813.651 359.904,813.898C359.901,813.857 359.552,814.407 359.408,814.586C358.197,816.081 356.125,816.199 354.72,814.942C353.83,814.146 353.091,812.585 353.997,811.71C355.206,811.982 356.555,812.007 357.655,812.389Z" style="fill:rgb(1,1,1);fill-rule:nonzero;"/>
        <path d="M274.409,913.997C273.93,913.732 273.452,913.65 272.916,913.651C273.215,913.659 273.228,913.647 272.955,913.616C272.617,913.564 272.277,913.548 271.94,913.608C271.08,913.764 270.31,914.16 269.773,914.817C266.504,914.046 262.901,915.876 262.929,919.608C262.954,922.802 267.06,925.067 269.908,924.635C272.967,924.171 275.295,921.777 276.234,918.926C276.644,917.686 276.424,916.249 275.749,915.162C275.439,914.661 274.917,914.279 274.409,913.997ZM271.276,919.293C271.276,918.992 271.222,919.522 271.18,919.739C271.172,919.757 271.165,919.772 271.156,919.795C271.135,919.844 271.089,919.933 271.05,920.006C270.994,920.083 270.943,920.163 270.885,920.238C270.879,920.245 270.876,920.25 270.871,920.256C270.853,920.274 270.838,920.288 270.826,920.302C270.708,920.369 270.382,920.53 270.608,920.436C270.162,920.623 270.062,920.609 269.361,920.462C268.544,920.29 267.654,919.638 267.064,918.967C265.78,917.507 267.725,916.501 269.145,916.194C269.055,916.859 269.276,917.5 269.906,917.913C270.038,918.012 270.187,918.078 270.344,918.129C270.429,918.183 270.541,918.254 270.695,918.351C270.758,918.39 270.819,918.431 270.881,918.47C270.901,918.495 271.033,918.606 271.093,918.677C271.109,918.697 271.114,918.699 271.126,918.713C271.182,918.817 271.225,918.928 271.264,919.039C271.274,919.123 271.276,919.208 271.276,919.293Z" style="fill:rgb(1,1,1);fill-rule:nonzero;"/>
        <path d="M203.794,987.607C207.393,989.693 212.209,990.12 216.277,989.927C222.243,989.646 227.741,986.236 233.426,984.723C239.05,983.227 244.079,985.517 249.637,985.689C254.404,985.836 257.828,983.265 259.213,978.733C260.94,973.084 258.411,967.454 254.422,963.499C245.527,954.681 230.825,953.533 219.361,956.995C213.928,958.636 209.321,962.086 205.698,966.389C202.829,969.798 200.555,974.314 201.492,978.685C198.925,981.823 200.24,985.548 203.794,987.607ZM210.952,964.207C216.21,959.707 223.098,958.267 229.861,958.201C236.259,958.139 242.453,959.682 247.799,963.222C252.972,966.65 257.248,972.733 254.971,979.135C253.582,983.037 247.793,980.607 244.943,979.994C238.382,978.583 232.44,980.059 226.296,982.406C221.396,984.278 217.222,985.503 212.004,984.648C210.021,984.323 208.112,983.739 206.419,982.64C204.93,981.672 204.919,980.018 204.761,978.437C204.676,977.584 204.001,977.311 203.314,977.406C203.087,972.207 207.158,967.453 210.952,964.207Z" style="fill:rgb(1,1,1);fill-rule:nonzero;"/>
        <path d="M322.135,993.677C325.414,992.135 326.901,987.567 324.163,984.856C323.436,984.137 322.405,983.541 321.249,983.114C321.276,982.665 321.046,982.313 320.403,982.426C320.109,982.476 319.818,982.548 319.529,982.63C317.479,982.213 315.318,982.331 313.855,983.227C313.409,983.501 312.759,984.241 313.081,984.826C313.436,985.471 313.979,985.864 314.61,986.13C313.833,987.291 313.382,988.656 313.436,990.136C313.597,994.643 319.038,995.134 322.135,993.677ZM321.549,989.821C321.322,991.493 318.474,990.738 317.708,990.096C316.558,989.132 316.704,987.872 317.385,986.787C317.526,986.813 317.665,986.842 317.802,986.872C319.221,987.191 321.81,987.876 321.549,989.821Z" style="fill:rgb(1,1,1);fill-rule:nonzero;"/>
        <path d="M371.762,936.662C375.773,935.547 379.735,933.034 381.682,929.248C383.693,925.339 381.654,921.223 377.765,919.902C378.406,919.493 378.715,918.748 377.845,918.221C371.554,914.421 364.942,911.4 357.654,910.173C352.44,909.297 346.754,909.098 342.016,911.754C334.704,915.853 330.381,925.222 338.478,930.984C343.787,934.763 349.632,930.745 355.269,932.842C360.861,934.924 365.536,938.394 371.762,936.662ZM368.763,933.444C366.485,933.777 364.093,932.536 362.107,931.599C359.54,930.387 357.047,929.169 354.223,928.695C349.942,927.976 345.212,930.926 341.351,928.339C334.77,923.926 339.198,916.336 344.8,913.554C349.055,911.44 354.556,912.251 359.02,913.125C364.917,914.279 370.496,916.809 375.693,919.771C374.847,920.053 374.158,920.74 374.595,921.676C375.888,924.444 377.793,926.201 375.949,929.215C374.5,931.585 371.412,933.055 368.763,933.444Z" style="fill:rgb(1,1,1);fill-rule:nonzero;"/>
        <path d="M435.992,896.157C435.458,896.109 434.989,896.015 434.47,895.885C433.65,895.676 432.812,896.383 432.465,897.053C431.774,898.386 431.615,900.241 432.887,901.299C434.149,902.348 435.852,902.452 437.405,902.126C439.168,901.756 440.903,900.626 441.755,899.01C442.151,898.257 442.361,897.325 442.215,896.478C442.013,895.313 441.056,894.283 439.854,894.382C439.163,894.44 438.478,894.942 438.198,895.576C437.893,896.269 437.928,896.833 438.003,897.489C438.025,897.692 438.026,897.901 438.038,898.105C437.957,898.157 437.811,898.255 437.729,898.302C437.606,898.349 437.482,898.392 437.358,898.431C437.302,898.449 437.026,898.515 436.941,898.539C436.739,898.569 436.535,898.589 436.332,898.598C436.281,898.6 436.26,898.602 436.247,898.606C436.219,898.599 436.166,898.59 436.058,898.576C435.966,898.563 435.875,898.545 435.785,898.523C435.759,898.517 435.748,898.516 435.729,898.511C435.712,898.503 435.701,898.497 435.673,898.486C435.64,898.472 435.563,898.421 435.495,898.376C436.416,897.986 437.34,896.28 435.992,896.157ZM438.011,898.207C437.972,898.323 437.933,898.405 438.011,898.207ZM438.058,898.092C438.063,898.078 438.066,898.071 438.072,898.057C438.067,898.07 438.063,898.079 438.058,898.092ZM435.464,898.39L435.464,898.39Z" style="fill:rgb(1,1,1);fill-rule:nonzero;"/>
        <path d="M118.573,820.303C119.654,819.414 118.844,817.727 117.529,818.562C112.535,821.733 115.277,827.012 119.927,828.735C126.463,831.158 132.866,825.337 132.02,818.557C131.938,817.899 131.592,817.536 130.965,817.355C128.004,816.501 127.908,821.64 127.262,823.281C126.633,824.877 125.282,825.672 123.575,825.586C121.66,825.49 115.562,822.78 118.573,820.303Z" style="fill:rgb(1,1,1);fill-rule:nonzero;"/>
        <path d="M10.328,945.042C11.907,940.563 6.237,937.568 2.715,936.606C-1.41,935.479 -7.598,938.333 -5.553,943.487C-5.058,944.735 -3.417,943.561 -3.203,942.73C-2.933,941.682 -3.008,940.042 -1.795,939.629C-0.653,939.238 0.846,939.703 1.916,940.111C3.108,940.566 7.164,942.722 6.544,944.336C5.438,947.211 9.514,947.348 10.328,945.042Z" style="fill:rgb(1,1,1);fill-rule:nonzero;"/>
        <path d="M56.552,982.709C60.103,983.386 63.586,984.33 67.014,985.472C70.47,986.624 73.734,988.536 77.336,989.192C82.097,990.057 86.814,987.844 89.022,983.529C91.434,978.814 90.077,973.013 87.501,968.685C84.512,963.665 79.213,960.536 73.818,958.71C68.437,956.89 62.666,956.786 57.169,958.083C53.089,959.045 46.561,961.561 44.911,966.012C41.692,968.244 40.37,972.425 43.017,976.033C46.206,980.378 51.551,981.756 56.552,982.709ZM47.988,971.297C47.611,969.67 48.974,968.157 49.585,966.757C49.996,965.812 49.561,964.997 48.775,964.74C50.941,962.752 53.971,961.513 56.627,960.819C61.087,959.654 65.584,959.883 70.01,961.062C78.482,963.318 87.498,971.338 85.336,980.982C84.523,984.612 81.741,985.86 78.333,984.885C75.807,984.165 73.388,982.582 70.957,981.567C68.335,980.47 65.635,979.582 62.901,978.812C58.668,977.62 54.106,977.355 50.516,974.563C49.496,973.772 48.292,972.61 47.988,971.297Z" style="fill:rgb(1,1,1);fill-rule:nonzero;"/>
        <path d="M156.426,920.038C151.217,913.253 140.741,914.878 133.906,917.888C133.68,917.988 133.51,918.189 133.434,918.395C133.269,918.398 133.098,918.413 132.911,918.458C129.714,919.229 126.154,921.444 125.151,924.792C124.257,927.771 126.586,929.634 128.974,930.797C132.165,932.351 135.974,932.384 139.415,932.94C143.404,933.586 147.472,934.294 151.488,933.457C158.29,932.032 160.56,925.422 156.426,920.038ZM143.02,929.073C140.741,928.536 138.437,928.091 136.162,927.543C134.531,927.149 132.316,926.613 131.115,925.333C130.027,924.174 133.506,922.556 134.351,921.775C135.238,920.958 135.306,919.663 134.701,918.933C140.643,918.086 147.216,915.855 152.446,919.963C154.232,921.365 155.54,923.727 155.686,925.996C155.865,928.777 153.44,929.828 151.082,930.142C148.449,930.495 145.558,929.671 143.02,929.073Z" style="fill:rgb(1,1,1);fill-rule:nonzero;"/>
        <path d="M204.281,852.847C207.79,850.607 210.844,847.045 211.598,842.855C212.377,838.528 209.223,835.189 205.118,835.064C205.611,834.485 205.689,833.682 204.703,833.434C197.576,831.641 190.368,830.685 183.04,831.645C177.798,832.333 172.302,833.806 168.549,837.732C162.756,843.791 161.363,854.015 170.792,857.156C176.974,859.218 181.388,853.665 187.392,854.021C193.348,854.374 198.834,856.326 204.281,852.847ZM200.472,850.647C198.391,851.632 195.741,851.145 193.567,850.83C190.758,850.423 188.018,849.987 185.179,850.36C180.875,850.925 177.215,855.131 172.766,853.785C165.182,851.49 167.195,842.937 171.738,838.638C175.189,835.371 180.686,834.538 185.21,834.068C191.187,833.447 197.262,834.234 203.098,835.546C202.372,836.063 201.913,836.921 202.605,837.689C204.652,839.958 206.987,841.081 206.106,844.502C205.413,847.191 202.891,849.501 200.472,850.647Z" style="fill:rgb(1,1,1);fill-rule:nonzero;"/>
        <path d="M949.309,848.132C952.233,845.13 955.112,842.016 958.533,839.569C962.46,836.757 966.969,834.821 968.294,829.703C969.558,824.821 966.858,819.496 964.192,815.547C961.671,811.815 957.93,808.674 953.509,809.357C949.165,808.299 944.391,808.135 940.198,808.321C934.141,808.589 928.353,810.223 923.033,813.118C913.619,818.236 906.075,828.469 905.982,839.459C905.892,850.193 914.525,858.714 924.877,860.36C935.035,861.976 942.755,854.862 949.309,848.132ZM933.422,855.398C923.469,859.166 912.029,850.299 910.524,840.545C908.661,828.486 917.887,818.061 928.309,813.701C932.92,811.771 937.932,811.136 942.897,811.133C945.263,811.131 947.607,811.398 949.947,811.69C949.713,812.36 949.841,813.012 950.77,813.263C956.068,814.696 960.59,820.055 962.576,824.992C963.622,827.59 963.8,830.347 961.772,832.457C959.897,834.409 957.116,835.483 954.969,837.136C947.666,842.76 942.283,852.045 933.422,855.398Z" style="fill:rgb(1,1,1);fill-rule:nonzero;"/>
        <path d="M852.655,862.847C846.569,856.836 836.413,859.876 830.053,863.792C829.843,863.921 829.702,864.144 829.655,864.357C829.493,864.383 829.324,864.421 829.145,864.491C826.082,865.691 822.86,868.373 822.323,871.826C821.844,874.899 824.405,876.427 826.93,877.253C830.303,878.356 834.081,877.868 837.566,877.949C841.606,878.044 845.733,878.19 849.596,876.811C856.141,874.474 857.487,867.616 852.655,862.847ZM840.61,873.629C838.278,873.408 835.936,873.281 833.607,873.05C831.938,872.883 829.669,872.654 828.305,871.549C827.069,870.55 830.294,868.472 831.026,867.583C831.792,866.652 831.682,865.359 830.984,864.72C836.755,863.071 842.961,859.961 848.704,863.318C850.665,864.464 852.282,866.624 852.737,868.852C853.295,871.582 851.036,872.955 848.743,873.588C846.182,874.296 843.205,873.874 840.61,873.629Z" style="fill:rgb(1,1,1);fill-rule:nonzero;"/>
        <path d="M484.391,861.496C483.167,867.889 487.359,874.154 493.829,874.844C496.721,875.153 499.604,874.609 502.456,874.203C506.194,873.674 509.202,874.005 512.733,875.429C519.697,878.24 525.636,881.786 533.41,879.92C544.539,877.249 546.242,863.119 540.834,854.747C537.049,848.889 528.76,846.272 522.535,844.121C516.46,842.019 509.861,840.274 503.378,840.631C498.961,840.874 493.707,842.804 493.499,847.918C493.497,847.956 493.502,847.987 493.505,848.021C489.074,851.165 485.33,856.58 484.391,861.496ZM514.155,844.514C521.221,846.399 529.343,849.357 534.993,854.177C538.542,857.205 539.883,862.631 539.466,867.115C538.828,873.964 533.616,877.368 526.965,875.984C519.938,874.52 514.562,869.165 507.082,869.067C501.446,868.994 494.031,872.613 490.993,865.944C487.348,857.95 496.956,853.773 499.229,847.486C499.789,845.938 497.524,845.877 496.689,846.224C496.201,846.428 495.718,846.675 495.237,846.939C498.373,840.408 508.662,843.05 514.155,844.514Z" style="fill:rgb(1,1,1);fill-rule:nonzero;"/>
        <path d="M969.274,981.221C971.147,975.098 967.026,970.084 960.651,970.886C960.353,970.924 960.032,971.067 959.718,971.277C958.102,971.378 956.437,972.044 955.009,972.705C951.837,974.174 949.174,976.774 947.428,979.769C943.496,986.514 950.136,991.784 956.578,991.856C962.661,991.924 967.608,986.667 969.274,981.221ZM958.324,987.923C953.783,988.695 948.068,985.342 950.459,980.335C951.934,977.246 954.918,975.345 958.147,974.437C958.32,974.733 958.664,974.947 959.24,975.018C962.677,975.441 965.715,976.835 965.174,980.809C964.704,984.252 961.74,987.341 958.324,987.923Z" style="fill:rgb(1,1,1);fill-rule:nonzero;"/>
        <path d="M754.72,894.627C758.309,894.196 761.915,894.041 765.528,894.092C769.171,894.143 772.861,894.977 776.492,894.51C781.292,893.893 785.117,890.355 785.914,885.573C786.784,880.349 783.734,875.232 779.969,871.887C775.599,868.008 769.602,866.631 763.907,866.526C758.227,866.421 752.696,868.069 747.849,870.97C744.252,873.123 738.792,877.498 738.569,882.239C736.176,885.343 736.183,889.726 739.799,892.362C744.155,895.539 749.666,895.233 754.72,894.627ZM743.102,886.344C742.25,884.907 743.09,883.053 743.248,881.533C743.353,880.508 742.693,879.864 741.865,879.857C743.328,877.306 745.841,875.208 748.162,873.742C752.058,871.28 756.414,870.138 760.989,869.92C769.747,869.505 780.768,874.417 781.629,884.263C781.953,887.97 779.68,890 776.137,890.105C773.511,890.183 770.727,889.408 768.102,889.175C765.272,888.925 762.429,888.895 759.59,888.989C755.195,889.135 750.767,890.264 746.5,888.691C745.29,888.247 743.79,887.505 743.102,886.344Z" style="fill:rgb(1,1,1);fill-rule:nonzero;"/>
        <path d="M571.405,880.634C575.471,883.225 581.895,881.433 584.226,877.354C586.243,873.826 583.592,869.815 580.85,867.684C577.678,865.222 569.657,864.939 568.642,869.931C568.545,870.399 568.676,870.941 569.137,871.174C569.379,871.296 569.616,871.365 569.852,871.41C568.858,872.292 568.163,873.39 568.077,874.98C567.946,877.438 569.41,879.363 571.405,880.634ZM576.255,871.454C578.043,872.175 580.099,873.533 580.47,875.598C580.852,877.716 577.492,878.033 575.768,877.827C572.46,877.434 569.697,873.65 572.788,871.107C573.987,870.951 575.116,870.995 576.255,871.454Z" style="fill:rgb(1,1,1);fill-rule:nonzero;"/>
        <path d="M781.295,921.997C780.816,921.732 780.338,921.65 779.803,921.651C780.102,921.659 780.116,921.647 779.842,921.616C779.504,921.564 779.164,921.548 778.826,921.608C777.967,921.764 777.196,922.16 776.66,922.817C773.39,922.046 769.787,923.876 769.816,927.608C769.841,930.802 773.947,933.067 776.795,932.635C779.854,932.171 782.182,929.777 783.121,926.926C783.531,925.686 783.31,924.249 782.636,923.162C782.325,922.661 781.803,922.279 781.295,921.997ZM778.162,927.293C778.162,926.992 778.108,927.522 778.066,927.739C778.058,927.757 778.05,927.772 778.042,927.795C778.021,927.844 777.975,927.933 777.936,928.006C777.881,928.083 777.829,928.163 777.772,928.238C777.765,928.245 777.762,928.25 777.758,928.256C777.739,928.274 777.725,928.288 777.712,928.302C777.594,928.369 777.268,928.53 777.494,928.436C777.049,928.623 776.948,928.609 776.247,928.462C775.43,928.29 774.541,927.638 773.949,926.967C772.666,925.507 774.61,924.501 776.03,924.194C775.939,924.859 776.162,925.5 776.791,925.913C776.924,926.012 777.072,926.078 777.229,926.129C777.314,926.183 777.425,926.254 777.58,926.351C777.643,926.39 777.704,926.431 777.767,926.47C777.787,926.495 777.918,926.606 777.979,926.677C777.996,926.697 778,926.699 778.012,926.713C778.068,926.817 778.112,926.928 778.151,927.039C778.16,927.123 778.162,927.208 778.162,927.293Z" style="fill:rgb(1,1,1);fill-rule:nonzero;"/>
        <path d="M710.68,995.607C714.28,997.693 719.095,998.12 723.164,997.927C729.129,997.646 734.627,994.236 740.312,992.723C745.937,991.227 750.966,993.517 756.523,993.689C761.291,993.836 764.714,991.265 766.099,986.733C767.827,981.084 765.298,975.454 761.309,971.499C752.414,962.681 737.712,961.533 726.247,964.995C720.815,966.636 716.208,970.086 712.585,974.389C709.716,977.798 707.441,982.314 708.378,986.685C705.812,989.823 707.127,993.548 710.68,995.607ZM717.839,972.207C723.097,967.707 729.985,966.267 736.748,966.201C743.146,966.139 749.34,967.682 754.686,971.222C759.86,974.65 764.135,980.733 761.858,987.135C760.469,991.037 754.68,988.607 751.83,987.994C745.268,986.583 739.327,988.059 733.183,990.406C728.284,992.278 724.11,993.503 718.891,992.648C716.908,992.323 714.999,991.739 713.306,990.64C711.818,989.672 711.806,988.018 711.648,986.437C711.563,985.584 710.888,985.311 710.202,985.406C709.974,980.207 714.045,975.453 717.839,972.207Z" style="fill:rgb(1,1,1);fill-rule:nonzero;"/>
        <path d="M829.022,1001.68C832.3,1000.13 833.788,995.567 831.049,992.856C830.322,992.137 829.291,991.541 828.135,991.114C828.162,990.665 827.932,990.313 827.289,990.426C826.995,990.476 826.704,990.548 826.416,990.63C824.365,990.213 822.205,990.331 820.742,991.227C820.296,991.501 819.645,992.241 819.968,992.826C820.322,993.471 820.866,993.864 821.496,994.13C820.719,995.291 820.269,996.656 820.322,998.136C820.485,1002.64 825.925,1003.13 829.022,1001.68ZM828.436,997.821C828.209,999.493 825.362,998.738 824.595,998.096C823.446,997.132 823.59,995.872 824.272,994.787C824.413,994.813 824.552,994.842 824.688,994.872C826.108,995.191 828.697,995.876 828.436,997.821Z" style="fill:rgb(1,1,1);fill-rule:nonzero;"/>
        <path d="M878.649,944.662C882.66,943.547 886.622,941.034 888.569,937.248C890.581,933.339 888.542,929.223 884.653,927.902C885.294,927.493 885.602,926.748 884.733,926.221C878.442,922.421 871.829,919.4 864.542,918.173C859.327,917.297 853.642,917.098 848.903,919.754C841.591,923.853 837.268,933.222 845.366,938.984C850.675,942.763 856.52,938.745 862.156,940.842C867.748,942.924 872.423,946.394 878.649,944.662ZM875.651,941.444C873.372,941.777 870.981,940.536 868.995,939.599C866.428,938.387 863.934,937.169 861.11,936.695C856.829,935.976 852.099,938.926 848.239,936.339C841.659,931.926 846.086,924.336 851.688,921.554C855.943,919.44 861.444,920.251 865.907,921.125C871.805,922.279 877.384,924.809 882.581,927.771C881.735,928.053 881.046,928.74 881.483,929.676C882.776,932.444 884.68,934.201 882.837,937.215C881.387,939.585 878.299,941.055 875.651,941.444Z" style="fill:rgb(1,1,1);fill-rule:nonzero;"/>
        <path d="M942.879,904.157C942.344,904.109 941.875,904.015 941.356,903.885C940.537,903.676 939.698,904.383 939.352,905.053C938.661,906.386 938.501,908.241 939.774,909.299C941.036,910.348 942.739,910.452 944.292,910.126C946.056,909.756 947.79,908.626 948.642,907.01C949.038,906.257 949.249,905.325 949.103,904.478C948.901,903.313 947.944,902.283 946.742,902.382C946.051,902.44 945.365,902.942 945.086,903.576C944.781,904.269 944.816,904.833 944.891,905.489C944.912,905.692 944.914,905.901 944.926,906.105C944.844,906.157 944.699,906.255 944.617,906.302C944.494,906.349 944.37,906.392 944.246,906.431C944.19,906.449 943.914,906.515 943.829,906.539C943.627,906.569 943.424,906.589 943.22,906.598C943.168,906.6 943.148,906.602 943.135,906.606C943.108,906.599 943.054,906.59 942.946,906.576C942.854,906.563 942.763,906.545 942.674,906.523C942.648,906.517 942.637,906.516 942.618,906.511C942.6,906.503 942.59,906.497 942.562,906.486C942.53,906.472 942.452,906.421 942.383,906.376C943.303,905.986 944.227,904.28 942.879,904.157ZM944.899,906.207C944.86,906.323 944.82,906.405 944.899,906.207ZM944.945,906.092C944.95,906.078 944.954,906.071 944.96,906.057C944.953,906.07 944.949,906.079 944.945,906.092ZM942.351,906.39C942.35,906.39 942.35,906.39 942.351,906.39C942.35,906.39 942.35,906.39 942.351,906.39Z" style="fill:rgb(1,1,1);fill-rule:nonzero;"/>
        <path d="M625.459,828.303C626.54,827.414 625.73,825.727 624.415,826.562C619.422,829.733 622.162,835.012 626.812,836.735C633.349,839.158 639.751,833.337 638.906,826.557C638.824,825.899 638.478,825.536 637.85,825.355C634.889,824.501 634.792,829.64 634.147,831.281C633.518,832.877 632.168,833.672 630.46,833.586C628.547,833.49 622.449,830.78 625.459,828.303Z" style="fill:rgb(1,1,1);fill-rule:nonzero;"/>
        <path d="M517.215,953.042C518.794,948.563 513.123,945.568 509.602,944.606C505.477,943.479 499.289,946.333 501.334,951.487C501.829,952.735 503.47,951.561 503.684,950.73C503.954,949.682 503.879,948.042 505.092,947.629C506.234,947.238 507.733,947.703 508.803,948.111C509.995,948.566 514.051,950.722 513.431,952.336C512.325,955.211 516.401,955.348 517.215,953.042Z" style="fill:rgb(1,1,1);fill-rule:nonzero;"/>
        <path d="M563.438,990.709C566.989,991.386 570.473,992.33 573.901,993.472C577.356,994.624 580.621,996.536 584.223,997.192C588.983,998.057 593.701,995.844 595.909,991.529C598.32,986.814 596.964,981.013 594.388,976.685C591.399,971.665 586.1,968.536 580.704,966.71C575.323,964.89 569.553,964.786 564.056,966.083C559.976,967.045 553.447,969.561 551.798,974.012C548.578,976.244 547.257,980.425 549.903,984.033C553.092,988.378 558.438,989.756 563.438,990.709ZM554.874,979.297C554.496,977.67 555.859,976.157 556.471,974.757C556.882,973.812 556.448,972.997 555.66,972.74C557.826,970.752 560.857,969.513 563.513,968.819C567.973,967.654 572.469,967.883 576.896,969.062C585.368,971.318 594.384,979.338 592.221,988.982C591.408,992.612 588.627,993.86 585.219,992.885C582.692,992.165 580.274,990.582 577.842,989.567C575.221,988.47 572.52,987.582 569.786,986.812C565.553,985.62 560.991,985.355 557.4,982.563C556.383,981.772 555.179,980.61 554.874,979.297Z" style="fill:rgb(1,1,1);fill-rule:nonzero;"/>
        <path d="M663.313,928.038C658.104,921.253 647.627,922.878 640.793,925.888C640.566,925.988 640.397,926.189 640.32,926.395C640.156,926.398 639.984,926.413 639.797,926.458C636.6,927.229 633.041,929.444 632.037,932.792C631.143,935.771 633.472,937.634 635.86,938.797C639.051,940.351 642.86,940.384 646.3,940.94C650.29,941.586 654.358,942.294 658.373,941.457C665.177,940.032 667.448,933.422 663.313,928.038ZM649.906,937.073C647.627,936.536 645.324,936.091 643.049,935.543C641.418,935.149 639.203,934.613 638.002,933.333C636.913,932.174 640.393,930.556 641.238,929.775C642.125,928.958 642.193,927.663 641.588,926.933C647.529,926.086 654.103,923.855 659.332,927.963C661.119,929.365 662.426,931.727 662.572,933.996C662.752,936.777 660.327,937.828 657.968,938.142C655.336,938.495 652.446,937.671 649.906,937.073Z" style="fill:rgb(1,1,1);fill-rule:nonzero;"/>
        <path d="M711.167,860.847C714.676,858.607 717.73,855.045 718.484,850.855C719.263,846.528 716.109,843.189 712.004,843.064C712.497,842.485 712.574,841.682 711.59,841.434C704.462,839.641 697.254,838.685 689.927,839.645C684.685,840.333 679.189,841.806 675.436,845.732C669.643,851.791 668.25,862.015 677.679,865.156C683.862,867.218 688.276,861.665 694.279,862.021C700.235,862.374 705.721,864.326 711.167,860.847ZM707.359,858.647C705.278,859.632 702.628,859.145 700.454,858.83C697.645,858.423 694.905,857.987 692.065,858.36C687.762,858.925 684.101,863.131 679.653,861.785C672.069,859.49 674.083,850.937 678.626,846.638C682.076,843.371 687.573,842.538 692.098,842.068C698.076,841.447 704.15,842.234 709.986,843.546C709.26,844.063 708.802,844.921 709.494,845.689C711.541,847.958 713.876,849.081 712.996,852.502C712.3,855.191 709.778,857.501 707.359,858.647Z" style="fill:rgb(1,1,1);fill-rule:nonzero;"/>
        <g id="boy">
            <path d="M824.537,104.841C829.591,105.695 825.037,112.054 821.948,112.496C804.061,115.053 786.281,118.398 770.698,128.192C734.378,151.017 715.421,193.01 703.896,233.053C692.125,273.962 686.107,319.222 691.25,361.758C694.242,386.497 702.606,411.161 718.748,430.35C733.648,448.062 753.735,460.535 776.043,466.199C802.107,472.82 830.197,472.34 856.303,466.047C883.138,459.579 915.682,447.691 931.59,423.187C947.707,398.366 943.159,363.703 941.822,335.659C940.159,300.81 933.552,266.109 923.874,232.662C920.101,219.614 916.324,206.321 910.207,194.162C904.695,183.206 898.105,172.829 890.739,163.054C882.748,152.444 873.966,142.201 863.775,133.68C856.778,127.83 846.452,121.642 838.662,119.864C825.972,116.968 836.752,100.685 845.408,99.908C867.889,97.892 886.876,116.529 900.537,132.471C915.041,149.395 928.573,169.068 936.79,189.994C949.119,221.391 956.424,256.027 961.246,289.364C963.657,306.052 964.821,322.698 965.484,339.537C966.119,355.567 966.747,371.685 964.818,387.658C962.888,403.633 958.076,419.357 948.901,432.656C939.653,446.058 926.561,456.843 912.684,465.056C885.529,481.126 853.919,490.099 822.59,492.109C772.45,495.326 719.204,479.003 691.659,433.603C666.663,392.403 666.19,342.683 671.751,296.053C677.264,249.805 690.279,202.614 716.621,163.868C739.979,129.514 780.811,97.477 824.537,104.841Z" style="fill:rgb(1,1,1);fill-rule:nonzero;"/>
            <path d="M726.814,330.282C720.664,330.174 722.969,323.699 726.314,321.297C724.535,322.576 728.671,319.799 727.643,320.33C728.229,320.028 728.814,319.733 729.4,319.431C730.745,318.746 732.085,318.057 733.43,317.375C735.545,316.303 737.629,315.165 739.755,314.121C743.563,312.254 749.637,312.19 749.938,317.881C750.206,322.968 745.306,327.567 740.527,328.001C737.583,328.271 736.964,328.458 734.298,329.024C731.835,329.549 729.334,330.326 726.814,330.282Z" style="fill:rgb(1,1,1);fill-rule:nonzero;"/>
            <path d="M745.521,324.648C754.875,332.983 763.685,339.828 776.307,342.482C791.098,345.592 806.394,345.135 821.297,343.025C836.765,340.832 852.072,336.962 866.682,331.353C872.476,329.13 878.165,326.673 883.597,323.641C889.177,320.528 891.084,319.26 894.782,315.784C893.558,319.336 892.335,322.887 891.112,326.44C890.477,324.279 890.545,321.25 889.364,319.309C884.508,311.302 894.89,299.951 903.313,304.164C906.862,305.94 911.588,308.216 912.743,312.423C913.914,316.689 911.882,320.472 908.894,323.347C906.477,325.097 906.477,325.097 908.894,323.347C907.798,324.328 906.56,325.049 905.171,325.514C904.123,325.763 903.669,326.063 902.267,326.177C897.892,326.537 894.538,322.661 890.996,320.619C896.001,316.174 901.01,311.727 906.016,307.281C907.639,310.367 907.579,313.236 908.329,316.511C909.263,320.585 907.85,324.438 904.658,327.167C893.735,336.512 879.743,342.462 866.306,346.993C849.912,352.521 832.727,356.306 815.495,357.776C799.605,359.133 782.487,359.207 767.226,353.9C755.191,349.716 741.559,341.887 740.529,327.545C740.359,325.16 743.621,322.954 745.521,324.648Z" style="fill:rgb(1,1,1);fill-rule:nonzero;"/>
            <path d="M686.365,259.795C686.41,261.553 682.768,264.051 682.222,261.648C678.82,246.639 655.601,251.003 646.837,257.102C638.542,262.873 636.139,273.454 638.528,283.018C640.964,292.772 646.302,302.925 654.77,308.668C661.158,313.004 668.744,314.971 673.739,309.452C675.041,312.754 676.339,316.054 677.639,319.353C674.221,319.743 667.539,319.296 668.657,314.019C669.758,308.831 676.028,305.981 680.589,305.428C686.271,304.737 687.762,311.666 684.486,315.329C674.38,326.646 659.294,330.945 646.176,321.771C634.274,313.447 625.793,299.386 624.45,284.715C622.935,268.179 631.343,252.108 646.454,244.964C654.519,241.148 664.843,238.668 673.607,241.66C677.337,242.934 681.383,244.504 683.552,248.06C686.11,252.25 686.246,255.065 686.365,259.795Z" style="fill:rgb(1,1,1);fill-rule:nonzero;"/>
            <path d="M947.564,255.605C946.947,257.245 943.471,257.795 944.06,255.442C946.318,246.473 950.119,239.893 957.894,234.489C965.556,229.167 975.581,226.266 984.875,227.748C1002.32,230.529 1019.77,247.708 1021.37,265.829C1022.88,283.077 1012.86,298.986 999.622,309.015C992.239,314.61 983.528,319.011 974.447,320.892C967.782,322.271 953.093,325.846 949.342,318.178C947.879,315.189 950.861,311.759 953.104,310.316C959.19,306.407 968.175,309.094 975.151,307.366C981.378,305.822 987.241,303.431 992.526,299.715C1001.08,293.704 1008.61,283.536 1008.31,272.544C1007.93,258.414 996.676,245.5 983.946,240.44C970.951,235.274 952.753,241.769 947.564,255.605Z" style="fill:rgb(1,1,1);fill-rule:nonzero;"/>
            <path d="M969.73,269.474C968.372,269.557 967.484,268.528 967.742,267.177C968.702,262.114 975.926,258.167 980.743,259.15C985.108,260.042 988.058,263.681 989.134,267.935C990.456,273.166 990.313,278.489 988.363,283.551C986.328,288.829 980.744,295.593 974.629,295.559C966.543,295.513 969.038,286.388 973.951,283.36C975.081,282.661 976.303,282.364 977.489,281.852C977.093,282.022 975.637,283.266 976.703,282.165C975.192,283.724 977.457,280.608 976.747,282.021C977.052,281.413 977.356,280.802 977.588,280.159C978.149,278.607 978.505,275.261 978.152,272.851C977.891,271.072 977.056,268.621 975.94,268.046C974.313,267.207 971.79,269.345 969.73,269.474Z" style="fill:rgb(1,1,1);fill-rule:nonzero;"/>
            <path d="M662.893,271.564C659.682,273.931 655.712,275.492 655.124,280.009C654.596,284.082 657.193,286.551 660.565,288.164C667.854,291.646 657.344,304.844 651.491,300.282C644.767,295.038 641.768,286.706 645.569,278.557C648.313,272.671 655.356,264.976 662.578,266.521C665.073,267.056 664.553,270.34 662.893,271.564Z" style="fill:rgb(1,1,1);fill-rule:nonzero;"/>
            <path d="M781.532,237.418C783.089,234.142 790.675,229.517 792.514,235.156C796.693,247.955 789.083,263.47 797.39,275.465C791.624,278.078 785.86,280.696 780.097,283.31C783.792,272 788.906,253.737 778.245,244.766C780.407,245.546 782.572,246.326 784.735,247.105C785.184,246.977 785.632,246.848 786.08,246.719C789.224,241.608 792.369,236.498 795.511,231.389C797.327,239.725 798.142,250.44 795.777,258.7C794.385,263.557 790.939,267.557 786.081,269.127C782.305,270.348 777.117,269.62 775.629,265.269C772.904,257.304 773.753,246.162 775.354,237.96C776.533,231.932 783.844,225.444 790.238,227.104C786.323,226.088 793.47,227.933 793.655,228.034C794.634,228.775 795.574,229.559 796.482,230.385C798.266,232.251 799.772,234.387 800.914,236.724C803.179,241.348 804.311,246.756 804.41,251.913C804.624,263.008 802.385,274.017 797.934,284.152C795.087,290.636 784.474,295.617 780.343,287.777C776.135,279.796 775.731,270.7 776.421,261.857C777.045,253.868 778.07,244.716 781.532,237.418Z" style="fill:rgb(1,1,1);fill-rule:nonzero;"/>
            <path d="M831.935,234.387C834.034,232.789 838.341,231.849 838.643,235.714C839.216,243.047 836.859,250.613 837.073,258.069C837.27,264.997 837.534,274.224 841.462,280.242C835.647,282.172 829.83,284.102 824.016,286.033C826.891,278.948 829.086,271.57 829.967,263.931C830.636,258.09 831.174,249.574 826.272,245.393C832.697,243.261 839.12,241.131 845.543,238.998C844.499,241.437 843.748,243.96 842.436,246.26C838.438,253.275 824.976,259.867 822.823,247.869C822.042,243.507 823.813,239.144 825.639,235.243C828.217,229.744 839.746,221.389 844.91,228.847C856.787,246.011 851.646,272.124 842.039,289.433C838.982,294.942 827.096,302.809 823.428,293.268C819.555,283.19 819.575,271.949 820.958,261.363C822.134,252.315 824.24,240.245 831.935,234.387Z" style="fill:rgb(1,1,1);fill-rule:nonzero;"/>
            <path d="M733.875,470.158C735.187,467.67 741.089,466.025 740.063,470.45C731.276,508.318 733.482,549.735 744.435,586.838C741.778,585.336 739.122,583.837 736.46,582.334C770.508,579.882 803.83,590.801 837.804,590.347C854.963,590.116 872.037,588.475 889.075,586.472C897.592,585.468 906.102,584.404 914.624,583.446C923.264,582.474 932.095,580.99 940.786,581.638C935.849,588.183 930.912,594.73 925.978,601.275C924.082,598.575 923.171,596.225 923.11,592.921C923.004,586.948 928.144,582.597 933.568,581.678C937.48,581.013 939.521,581.17 943.264,582.508C947.996,584.206 947.599,591.082 945.94,594.652C944.203,598.388 940.333,602.392 936.197,603.3C927.541,605.207 918.554,605.487 909.75,606.467C901.232,607.415 892.728,608.461 884.212,609.434C867.2,611.382 850.102,613.157 832.963,613.212C798.962,613.323 766.028,603.447 732.072,603.074C727.752,603.027 723.868,601.049 723.603,596.164C721.371,554.775 713.727,508.404 733.875,470.158Z" style="fill:rgb(1,1,1);fill-rule:nonzero;"/>
            <path d="M919.458,455.783C919.884,451.357 926.731,448.368 929.188,452.61C933.106,459.377 934.983,471.577 936.88,480.342C940.171,495.55 943.334,510.793 946.105,526.109C948.673,540.323 951.175,554.636 952.418,569.046C953.359,579.96 955.324,595.522 943.803,601.646C938.467,604.482 930.418,604.09 929.823,596.486C929.735,595.34 929.889,593.895 930.204,592.711C930.522,591.509 930.973,590.346 931.392,589.176C930.718,591.266 930.548,591.752 930.881,590.639C931.168,589.581 931.895,584.575 931.711,587.337C932.056,582.164 931.975,576.968 931.752,571.792C931.121,557.172 929.593,542.589 927.863,528.064C926.095,513.221 924.134,498.402 921.981,483.611C920.671,474.602 918.581,464.881 919.458,455.783Z" style="fill:rgb(1,1,1);fill-rule:nonzero;"/>
            <path d="M740.508,595.84C742.299,592.381 750.131,590.207 748.921,596.236C745.252,614.488 747.189,631.525 748.491,649.864C746.423,648.178 744.352,646.49 742.286,644.802C771.01,639.865 799.585,647.984 828.349,645.491C824.957,649.14 821.566,652.788 818.175,656.431C816.852,645.142 820.176,633.905 827.816,625.488C830.614,622.407 835.716,618.692 840.043,621.381C851.639,628.58 865.957,637.176 869.747,651.388C866.767,650.286 863.784,649.186 860.802,648.086C873.8,645.376 886.674,646.087 899.819,647.226C910.985,648.192 922.953,649.867 933.902,646.645C931.088,649.671 928.277,652.697 925.461,655.724C926.124,647.911 926.19,635.364 924.978,625.921C924.386,621.31 923.591,616.576 921.554,612.354C920.223,609.589 917.581,607.024 916.274,606.203C910.174,602.376 915.63,593.111 921.134,591.907C949.32,585.744 944.696,637.852 943.239,654.266C942.878,658.328 938.432,662.291 934.798,663.348C910.621,670.361 885.895,659.553 861.681,664.5C858.593,665.135 853.799,665.256 852.737,661.2C849.706,649.626 837.904,642.733 828.572,636.701C832.062,635.967 835.552,635.232 839.044,634.497C834.925,638.911 834.454,645.258 835.051,650.962C835.617,656.371 829.841,661.524 824.876,661.902C796.164,664.085 767.716,655.546 739.07,659.998C736.195,660.444 732.679,658.152 732.867,654.936C733.983,635.84 731.448,613.35 740.508,595.84Z" style="fill:rgb(1,1,1);fill-rule:nonzero;"/>
            <path d="M790.269,489.026C790.579,488.048 793.207,485.911 793.651,487.923C795.994,498.563 802.828,502.451 812.704,505.015C820.772,507.108 832.099,508.493 840.119,505.647C842.788,504.701 839.972,506.336 840.633,505.491C841.215,504.791 841.755,504.056 842.25,503.289C843.293,501.587 844.201,499.533 844.727,497.601C845.765,493.806 845.1,489.576 845.935,486.532C848.382,477.624 861.498,475.767 861.302,486.907C861.136,496.31 856.13,507.745 849.079,513.923C841.571,520.499 831.155,520.512 821.738,519.702C812.588,518.911 803.507,516.723 795.933,511.219C788.248,505.627 787.54,497.616 790.269,489.026Z" style="fill:rgb(1,1,1);fill-rule:nonzero;"/>
            <path d="M734.965,474.304C728.443,479.872 720.875,483.918 714.734,490.059C708.614,496.18 703.905,503.17 700.089,510.944C699.943,508.608 699.798,506.274 699.653,503.937C705.241,508.998 713.85,510.747 720.229,514.68C727.015,518.867 732.613,527.442 724.015,533.719C721.857,535.296 717.338,537.534 715.21,534.441C708.479,524.671 702.226,515.585 693.856,507.59C692.091,505.909 692.377,502.535 693.417,500.584C698.744,490.594 699.11,489.254 707.724,481.975C714.745,476.046 724.127,468.657 733.73,468.487C737.285,468.424 737.158,472.437 734.965,474.304Z" style="fill:rgb(1,1,1);fill-rule:nonzero;"/>
            <path d="M928.027,447.282C931.937,443.59 937.053,452.649 939.3,454.824C944.812,460.163 951.049,464.686 957.314,469.071C969.96,477.927 983.634,486.483 993.698,498.452C998.562,504.235 990.651,511.482 985.273,512.302C977.155,513.538 969.673,515.953 962.415,519.886C958.767,521.865 955.18,523.957 951.663,526.171C948.09,528.42 944.954,530.973 940.562,530.916C936.099,530.855 933.354,526.991 935.602,522.707C940.119,514.092 952.451,508.526 960.971,504.514C969.67,500.418 978.911,497.013 988.593,496.611C985.476,500.706 982.355,504.801 979.238,508.897C971.952,495.659 956.692,486.599 945.508,477.065C940.302,472.63 919.149,455.656 928.027,447.282Z" style="fill:rgb(1,1,1);fill-rule:nonzero;"/>
            <path d="M768.249,652.64C769.34,650.926 773.637,650.587 772.699,653.492C765.597,675.482 764.943,699.164 774.833,720.352C777.12,725.253 770.395,730.39 766.107,729.762C762.759,729.274 759.063,729.045 755.81,730.216C754.551,730.667 753.614,732.117 754.162,730.57C754.596,730.052 754.843,730.428 754.905,731.694C758.185,735.925 761.968,738.574 767.311,739.158C772,739.674 787.445,739.104 787.594,731.75C787.835,720.004 782.417,709.055 781.549,697.441C780.498,683.359 780.527,668.366 785.853,655.138C789.937,655.908 794.023,656.68 798.108,657.449C797.231,659.316 796.125,660.833 794.984,662.53C793.038,665.425 786.974,667.685 785.25,663.328C784.1,660.422 784.548,657.91 785.854,655.139C789.186,648.056 801.96,648.007 798.109,657.45C790.54,676.018 795.852,696.809 799.496,715.525C800.83,722.372 801.918,729.77 798.665,736.252C795.508,742.543 788.985,746.923 782.574,749.228C769.399,753.959 751.402,753.568 743.426,739.986C739.434,733.192 742.664,725.957 748.684,721.738C755.314,717.09 763.947,716.551 771.685,717.793C768.776,720.929 765.865,724.066 762.957,727.202C757.524,702.987 754.233,674.684 768.249,652.64Z" style="fill:rgb(1,1,1);fill-rule:nonzero;"/>
            <path d="M886.936,660.395C887.293,658.739 891.216,655.973 891.911,658.777C894.629,669.739 894.431,681.764 895.436,693.005C896.503,704.975 898.67,716.46 900.936,728.212C901.694,732.149 896.764,736.283 893.281,736.443C891.931,736.505 885.483,736.59 886.655,739.03C888.43,742.739 892.604,744.563 896.48,744.766C904.354,745.177 912.926,742.142 919.498,737.896C918.062,740.896 916.628,743.897 915.194,746.897C911.176,728.611 905.865,711.093 905.701,692.209C905.653,686.619 905.606,681.028 905.559,675.44C905.529,671.987 904.899,667.695 905.886,664.334C906.968,660.658 909.996,657.504 913.944,657.18C917.27,656.907 920.229,659.744 919.202,663.242C919.04,663.785 918.882,664.333 918.722,664.876C917.526,668.939 908.935,675.671 906.528,668.851C906.374,668.41 906.22,667.968 906.062,667.528C903.64,660.658 916.328,652.4 919.026,660.05C920.188,663.344 919.558,667.486 919.528,670.908C919.484,676.223 919.438,681.536 919.394,686.849C919.238,705.115 924.068,721.887 927.85,739.594C928.673,743.439 926.746,746.546 923.542,748.594C911.768,756.125 892.088,762.297 879.765,753.085C873.889,748.694 871.599,741.401 875.49,734.836C879.782,727.598 887.831,724.348 895.896,724.094C893.343,726.838 890.792,729.58 888.241,732.326C886.69,720.465 886.109,708.165 885.574,696.197C885.05,684.513 884.46,671.882 886.936,660.395Z" style="fill:rgb(1,1,1);fill-rule:nonzero;"/>
            <path d="M718.301,481.872C715.344,484.258 709.538,480.614 706.738,479.19C701.631,476.589 696.808,473.54 692.036,470.385C686.909,466.997 681.802,463.59 676.601,460.313C672.622,457.803 666.875,452.85 662.173,451.988C656.167,450.886 651.18,439.269 659.767,439.108C666.017,438.986 670.616,444.252 670.786,450.229C670.966,456.548 661.546,452.197 659.209,450.949C660.842,447.709 662.475,444.475 664.107,441.237C668.078,444.818 673.558,447.458 677.934,450.592C682.992,454.213 687.97,457.927 693.08,461.473C697.888,464.804 702.736,468.099 707.721,471.164C711.163,473.282 716.367,475.079 718.452,478.658C719.057,479.693 719.359,481.019 718.301,481.872Z" style="fill:rgb(1,1,1);fill-rule:nonzero;"/>
            <path d="M645.483,433.336C645.044,431.597 646.512,435.435 645.034,432.246C644.766,431.732 644.572,431.184 644.457,430.616C644.24,429.728 644.047,428.833 643.796,427.951C643.229,425.951 642.632,423.954 641.938,421.995C641.541,420.87 641.134,419.745 640.632,418.663C640.455,418.267 640.271,417.878 640.072,417.496C640.419,418.123 640.408,418.132 640.042,417.519C639.58,416.875 639.673,416.961 640.319,417.766C639.787,417.275 639.316,416.733 638.901,416.138C637.87,414.277 641.575,418.906 643.226,418.106C639.873,419.731 635.711,415.976 636.177,412.457C636.649,408.87 639.105,406.225 643.012,407.52C646.76,408.76 648.926,412.916 650.012,416.442C651.866,422.481 653.805,430.064 650.42,435.76C648.907,438.303 645.871,434.884 645.483,433.336Z" style="fill:rgb(1,1,1);fill-rule:nonzero;"/>
            <path d="M638.526,441.78C636.225,438.541 633.55,435.319 630.477,432.761C627.477,430.263 625.389,431.594 621.891,431.097C618.788,430.657 616.187,427.203 617.143,424.115C619.462,416.63 628.578,420.061 632.903,423.584C638.044,427.772 641.224,433.566 643.342,439.709C644.631,443.457 640.661,444.786 638.526,441.78Z" style="fill:rgb(1,1,1);fill-rule:nonzero;"/>
            <path d="M633.569,452.977C629.613,452.905 625.23,451.38 621.253,450.789C617.778,450.275 613.676,451.039 610.409,449.925C607.324,448.878 604.612,444.312 606.76,441.356C609.492,437.597 616.694,439.077 620.492,440.357C625.234,441.953 630.931,443.935 634.564,447.464C636.181,449.035 636.799,453.032 633.569,452.977Z" style="fill:rgb(1,1,1);fill-rule:nonzero;"/>
            <path d="M637.65,456.825C639.745,455.471 642.675,458.448 642.306,460.554C640.733,469.506 629.47,474.55 621.236,470.9C617.968,469.452 614.491,463.153 619.46,461.475C622.869,460.325 626.444,461.074 629.928,460.269C632.924,459.58 635.091,458.477 637.65,456.825Z" style="fill:rgb(1,1,1);fill-rule:nonzero;"/>
            <path d="M699.743,487.489C701.829,489.162 700.611,492.937 697.789,491.366C690.289,487.187 683.192,482.359 675.83,477.953C669.386,474.094 660.569,468.261 652.705,468.558C646.451,468.792 642.656,456.597 650.417,456.307C651.814,456.255 653.267,456.728 654.573,457.153C658.182,458.326 663.056,468.142 656.735,468.624C654.804,468.772 653.167,468.795 651.29,468.252C645.111,466.463 643.81,454.289 651.84,456.613C670.573,462.042 684.945,475.614 699.743,487.489Z" style="fill:rgb(1,1,1);fill-rule:nonzero;"/>
            <path d="M959.906,528.609C959.22,527.348 961.498,525.747 962.488,526.742C969.376,533.646 975.934,540.626 982.06,548.243C985.36,552.347 988.639,556.474 991.71,560.758C993.946,563.876 996.557,569.809 1000.08,571.553C1001.37,572.188 1002.17,573.677 1002.21,575.088C1002.49,584.973 1002.64,594.86 1002.78,604.75C998.199,606.237 993.618,607.723 989.041,609.207C989.43,603.805 990.682,598.823 994.766,595.094C996.147,593.833 998.373,593.034 1000.13,593.965C1005.06,596.565 1003.09,601.851 1002.64,606.427C1002.03,612.612 988.931,617.492 989.041,609.207C989.143,601.607 989.192,594.007 989.408,586.412C989.521,582.287 990.237,577.904 988.209,574.122C986.258,570.491 984.175,566.934 981.965,563.456C974.562,551.808 966.519,540.757 959.906,528.609Z" style="fill:rgb(1,1,1);fill-rule:nonzero;"/>
            <path d="M1014.14,588.477C1016.08,594.072 1019.25,599.254 1023.08,603.742C1026.54,607.803 1030.94,610.338 1034.57,614.047C1038.51,618.066 1031.45,624.812 1027.21,623.812C1021.26,622.416 1016.11,615.543 1013.1,610.538C1009.35,604.3 1006.8,597.696 1008.39,590.348C1008.84,588.3 1013.05,585.371 1014.14,588.477Z" style="fill:rgb(1,1,1);fill-rule:nonzero;"/>
            <path d="M1027.57,584.634C1032.67,587.656 1037.31,592.072 1041.46,596.294C1043.76,598.624 1046.1,600.912 1048.37,603.26C1050.84,605.795 1051.81,606.926 1051.26,610.542C1050.91,612.834 1048.54,614.651 1046.36,614.886C1040.26,615.548 1036.5,607.973 1033.28,603.562C1029.86,598.894 1026.29,594.447 1022.68,589.934C1020.61,587.338 1024.88,583.047 1027.57,584.634Z" style="fill:rgb(1,1,1);fill-rule:nonzero;"/>
            <path d="M965.239,513.66C964.225,511.249 967.96,508.648 969.852,510.33C981.509,520.68 993.28,530.958 1004.67,541.617C1010.31,546.902 1016.2,552.275 1020.79,558.556C1024.61,563.782 1027.52,568.218 1023.28,574.283C1021.26,577.184 1015.36,579.425 1013.55,575.082C1014.13,576.474 1012.57,573.717 1012.3,573.162C1011.9,572.349 1012.16,571.001 1011.83,570.315C1010.64,567.846 1009.09,565.608 1007.43,563.435C1002.61,557.1 997.261,551.18 991.845,545.358C986.175,539.264 980.351,533.315 974.858,527.051C971.226,522.909 967.406,518.815 965.239,513.66Z" style="fill:rgb(1,1,1);fill-rule:nonzero;"/>
            <path d="M804.954,116.021C801.744,119.844 797.341,122.316 794.118,126.154C791.358,129.439 788.753,133.016 786.942,136.941C782.998,145.486 783.185,154.285 781.597,163.37C780.476,169.801 769.85,175.881 766.091,168.425C760.118,156.581 766.432,140.53 772.914,130.194C778.401,121.444 790.799,108.385 802.054,108.658C806.125,108.758 807.587,112.888 804.954,116.021Z" style="fill:rgb(1,1,1);fill-rule:nonzero;"/>
            <path d="M821.244,121.092C827.682,119.426 826.799,126.708 822.944,129.393C816.695,133.745 812.901,143.235 811.281,150.401C809.396,158.737 810.14,168.422 806.016,176.026C803.823,180.073 797.672,184.366 793.577,180.153C785.68,172.038 791.703,154.011 795.495,145.147C800.511,133.417 808.851,124.295 821.244,121.092Z" style="fill:rgb(1,1,1);fill-rule:nonzero;"/>
            <path d="M842.411,139.338C841.332,148.885 843.099,158.391 841.868,167.818C840.831,175.803 824.913,182.521 824.039,171.463C823.189,160.735 828.224,148.784 831.808,138.838C833.687,133.619 843.225,132.149 842.411,139.338Z" style="fill:rgb(1,1,1);fill-rule:nonzero;"/>
        </g>
    </g>
    <g id="Layer_7">
        <path d="M417.896,207.86C417.861,231.807 413.622,255.782 405.136,278.386C400.891,289.682 395.628,300.655 389.309,311.057C382.978,321.448 375.638,331.295 367.322,340.322C358.973,349.306 349.751,357.574 339.664,364.709C334.633,368.292 329.385,371.577 323.999,374.627C318.584,377.624 313.031,380.39 307.327,382.815C284.503,392.565 259.61,397.303 234.812,396.767L232.576,396.707L230.227,396.617C228.676,396.534 227.141,396.439 225.6,396.322C222.521,396.089 219.449,395.78 216.389,395.398C210.27,394.62 204.185,393.598 198.194,392.182C186.206,389.39 174.533,385.415 163.408,380.342C141.131,370.217 121.084,355.82 104.166,338.543C87.244,321.248 73.536,300.889 63.935,278.651C61.535,273.093 59.407,267.411 57.565,261.634C55.686,255.868 54.069,250.009 52.756,244.074C50.157,232.191 48.566,220.095 48.234,207.826C47.877,195.672 48.696,183.345 50.73,171.233C51.748,165.171 53.059,159.148 54.682,153.201C56.332,147.263 58.28,141.398 60.514,135.639C69.457,112.591 83.289,91.41 100.645,73.644C109.324,64.758 118.874,56.698 129.148,49.659C139.429,42.634 150.414,36.612 161.898,31.723C184.849,21.881 209.906,16.963 234.856,17.07C259.806,17.191 284.768,22.328 307.581,32.285C313.284,34.771 318.834,37.587 324.239,40.638C329.62,43.732 334.855,47.065 339.877,50.684C349.94,57.897 359.154,66.202 367.479,75.232C375.783,84.291 383.109,94.163 389.438,104.567C392.599,109.772 395.498,115.122 398.121,120.589C400.772,126.042 403.13,131.622 405.257,137.273C413.737,159.9 417.945,183.898 417.896,207.855L417.896,207.86ZM416.296,207.855C416.279,184.096 411.115,160.369 401.274,138.925C391.467,117.448 377.093,98.354 359.96,82.75C342.819,67.112 322.897,54.937 301.643,46.604C291.007,42.447 280.014,39.256 268.816,37.18C257.616,35.134 246.24,34.071 234.856,34.158C212.088,34.233 189.421,38.686 168.302,47.166C157.746,51.415 147.6,56.716 138.056,62.964C128.503,69.196 119.532,76.355 111.339,84.338C78.54,116.272 58.346,161.145 56.995,207.882C56.283,231.106 60.163,254.765 68.955,276.57C77.612,298.424 90.986,318.458 107.817,334.894C124.63,351.37 144.976,364.054 166.791,372.187C177.704,376.254 188.977,379.23 200.394,381.065C206.105,381.964 211.836,382.678 217.591,383.056C220.467,383.251 223.346,383.376 226.224,383.431C227.662,383.458 229.107,383.467 230.537,383.462L232.661,383.454L234.898,383.423C257.817,382.92 280.648,378.286 301.895,369.714C323.139,361.132 343.008,348.828 360.115,333.114C368.669,325.269 376.547,316.595 383.488,307.159C390.442,297.736 396.503,287.578 401.396,276.835C411.232,255.368 416.365,231.62 416.297,207.85L416.297,207.855L416.296,207.855Z" style="fill-rule:nonzero;"/>
        <path d="M235,47.833C235.984,51.201 236.633,54.569 237.18,57.937C237.719,61.305 238.108,64.673 238.394,68.041C238.681,71.409 238.871,74.777 238.948,78.145C239.067,81.513 238.996,84.881 238.67,88.249C238.026,94.985 236.406,101.721 236.112,108.457C235.77,115.193 236.273,121.929 237.237,128.665C237.69,132.033 238.196,135.401 238.513,138.769C238.886,142.137 239.031,145.505 239.226,148.873C239.608,155.609 240.003,162.345 239.84,169.081C239.666,175.817 239.204,182.553 238.451,189.289C238.072,192.657 237.637,196.025 237.057,199.393C236.511,202.761 235.872,206.129 235,209.497L234,209.497C233.128,206.129 232.489,202.761 231.943,199.393C231.363,196.025 230.928,192.657 230.549,189.289C229.797,182.553 229.334,175.817 229.16,169.081C228.996,162.345 229.391,155.609 229.774,148.873C229.969,145.505 230.114,142.137 230.487,138.769C230.804,135.401 231.31,132.033 231.763,128.665C232.726,121.929 233.229,115.192 232.888,108.457C232.595,101.721 230.974,94.985 230.33,88.249C230.004,84.881 229.933,81.513 230.052,78.145C230.129,74.777 230.32,71.409 230.606,68.041C230.892,64.673 231.281,61.305 231.82,57.937C232.367,54.569 233.016,51.201 234,47.833L235,47.833Z" style="fill-rule:nonzero;"/>
        <path d="M308.964,134.429C308.134,136.706 307.047,138.731 305.902,140.7C304.747,142.66 303.484,144.515 302.148,146.298C300.812,148.082 299.407,149.798 297.921,151.435C296.474,153.111 294.872,154.635 293.098,155.992C289.553,158.709 285.313,160.75 282.014,163.706C278.692,166.641 275.966,170.154 273.575,173.995C272.361,175.897 271.173,177.825 269.872,179.643C268.583,181.472 267.156,183.166 265.751,184.883C262.943,188.318 260.14,191.757 256.945,194.815C253.746,197.868 250.314,200.696 246.699,203.345C243.065,205.975 239.277,208.456 234.978,210.439L234.261,209.742C236.127,205.39 238.505,201.537 241.036,197.834C243.586,194.148 246.321,190.642 249.286,187.361C252.257,184.085 255.619,181.19 258.977,178.291C260.655,176.84 262.311,175.368 264.104,174.03C265.887,172.681 267.781,171.441 269.65,170.176C273.424,167.682 276.863,164.862 279.707,161.462C282.574,158.085 284.5,153.792 287.12,150.174C288.429,148.364 289.91,146.722 291.545,145.23C293.142,143.7 294.819,142.249 296.566,140.866C298.312,139.482 300.132,138.17 302.06,136.962C303.997,135.764 305.993,134.622 308.246,133.732L308.964,134.429Z" style="fill-rule:nonzero;"/>
        <g>
            <circle cx="234.167" cy="209.834" r="4.667" style="fill:rgb(1,1,1);"/>
            <path d="M238.884,209.834C238.874,211.053 238.535,212.339 237.689,213.355C236.867,214.387 235.51,214.99 234.157,214.916C232.833,214.847 231.604,214.166 230.753,213.248C229.888,212.33 229.313,211.139 229.228,209.827C229.122,208.548 229.598,207.167 230.536,206.202C231.461,205.222 232.788,204.614 234.182,204.635C235.514,204.645 236.891,205.258 237.701,206.302C238.54,207.327 238.885,208.611 238.884,209.834ZM238.784,209.833C238.794,208.609 238.132,207.464 237.234,206.766C236.321,206.073 235.27,205.678 234.153,205.7C233.099,205.71 231.998,206.108 231.199,206.866C230.399,207.624 229.867,208.672 229.773,209.84C229.676,210.976 230.108,212.214 230.981,213.019C231.853,213.839 233.052,214.165 234.177,214.084C235.271,214.021 236.344,213.618 237.244,212.912C238.137,212.205 238.806,211.062 238.784,209.833Z" style="fill-rule:nonzero;"/>
        </g>
    </g>
    <g id="Layer_4_copy">
        <path d="M536.828,540.924C528.471,528.9 519.004,517.691 508.416,508.145C503.106,503.402 497.459,499.134 491.479,495.727C485.499,492.339 479.171,489.836 472.744,488.814C466.325,487.766 459.853,488.231 453.702,490.14C450.632,491.11 447.618,492.366 444.72,493.944C441.817,495.511 439.033,497.374 436.324,499.394C430.942,503.493 425.906,508.282 421.204,513.491C416.496,518.696 412.017,524.248 407.828,530.07L403.589,535.963L399.468,530.494C396.094,526.016 392.817,521.465 389.572,516.889C387.953,514.597 386.348,512.296 384.763,509.974C383.173,507.642 381.624,505.342 380.057,502.911L379.398,501.889L379.38,500.989C379.361,500.03 379.396,499.318 379.434,498.505C379.476,497.718 379.534,496.941 379.607,496.167C379.754,494.621 379.953,493.09 380.187,491.568C380.664,488.526 381.338,485.526 382.211,482.586C383.971,476.713 386.467,471.054 389.808,465.913C393.149,460.779 397.333,456.196 402.162,452.464C406.988,448.728 412.408,445.824 418.079,443.733C429.456,439.512 441.588,438.292 453.518,438.3C465.482,438.417 477.383,439.812 489.084,442.047L489.069,442.045L489.417,442.14C494.317,443.482 499.269,444.725 504.014,445.422C506.341,445.765 508.744,445.928 510.394,445.719C511.203,445.648 511.682,445.318 511.312,445.481C511.14,445.564 510.86,445.861 510.76,446.054C510.648,446.248 510.663,446.272 510.652,446.085C510.652,445.723 510.519,444.789 510.26,443.79C510.007,442.774 509.656,441.632 509.278,440.443C508.505,438.054 507.677,435.445 507.008,432.589C506.361,429.732 505.847,426.568 506.15,423.003C506.303,421.232 506.69,419.366 507.392,417.553C508.087,415.741 509.098,414.005 510.313,412.514L510.998,411.674L512.096,411.041L542.979,393.239L573.917,375.538L577.283,373.612L580.774,375.378L582.019,376.007L583.151,376.604C583.895,377.005 584.63,377.404 585.352,377.819C586.798,378.647 588.218,379.495 589.623,380.365C592.43,382.105 595.171,383.929 597.856,385.836C603.237,389.636 608.34,393.836 613.187,398.357C618.037,402.876 622.555,407.803 626.653,413.119C630.755,418.428 634.418,424.154 637.393,430.284C640.375,436.402 642.723,442.903 644.148,449.632C645.568,456.359 646.105,463.278 645.747,470.106C645.393,476.937 644.166,483.665 642.25,490.106C640.294,496.541 637.67,502.687 634.602,508.52L633.625,510.376L632.009,511.107C628.234,512.816 624.444,514.49 620.637,516.128C616.826,517.756 612.982,519.308 609.131,520.84C601.428,523.899 593.661,526.799 585.788,529.399C581.856,530.708 577.913,531.983 573.942,533.167C569.965,534.338 565.973,535.448 561.963,536.487C557.957,537.541 553.907,538.441 549.853,539.287C545.788,540.114 541.723,540.84 537.564,541.289L537.114,541.337L536.828,540.924ZM537.832,539.747C545.504,537.565 553.054,534.807 560.504,531.934C564.315,530.462 568.098,528.923 571.857,527.328C575.621,525.747 579.372,524.141 583.094,522.471C590.532,519.112 597.92,515.66 605.233,512.054C608.891,510.254 612.518,508.392 616.147,506.537C619.779,504.69 623.393,502.808 626.991,500.893L624.398,503.48C626.884,498.054 628.902,492.47 630.292,486.797C631.73,481.139 632.534,475.385 632.602,469.662C632.759,458.204 629.823,446.96 624.501,436.772C621.829,431.681 618.614,426.827 614.98,422.247C611.339,417.669 607.266,413.386 602.938,409.334C598.603,405.286 593.939,401.551 589.115,398.034C586.696,396.284 584.222,394.604 581.708,393.013C580.45,392.218 579.182,391.444 577.91,390.7L576.01,389.601L575.072,389.078L574.226,388.623L581.083,388.463L549.673,405.314L518.208,422.064L519.99,420.591C519.11,421.581 518.589,422.65 518.354,424.276C518.121,425.881 518.273,427.926 518.684,430.13C519.081,432.348 519.759,434.705 520.398,437.301C520.721,438.606 521.055,439.965 521.332,441.487C521.589,443.021 521.865,444.675 521.683,446.906C521.581,448.009 521.325,449.323 520.664,450.693C520.02,452.063 518.887,453.389 517.663,454.23C516.442,455.08 515.225,455.536 514.166,455.81C513.095,456.084 512.132,456.197 511.241,456.248C509.458,456.346 507.904,456.203 506.421,456.003C504.942,455.799 503.539,455.524 502.173,455.214C496.734,453.952 491.729,452.231 486.756,450.435L487.089,450.527C481.551,448.962 475.964,447.58 470.326,446.476C464.691,445.363 459.003,444.521 453.289,444.113C441.9,443.222 430.244,443.976 419.546,447.753C414.223,449.651 409.182,452.316 404.805,455.822C400.423,459.312 396.724,463.622 393.936,468.456C391.126,473.279 389.196,478.601 388.096,484.068C387.538,486.801 387.167,489.571 386.978,492.342C386.88,493.727 386.841,495.114 386.857,496.49C386.864,497.178 386.883,497.863 386.918,498.539C386.952,499.189 387.003,499.941 387.071,500.441L386.395,498.519C388.023,500.645 389.767,502.832 391.494,504.969C393.23,507.114 394.984,509.249 396.754,511.372C400.288,515.623 403.908,519.808 407.523,523.993L399.163,524.416C403.006,517.937 407.193,511.579 412.055,505.628C416.931,499.704 422.388,494.08 428.749,489.326C435.076,484.57 442.321,480.614 450.295,478.399C454.275,477.307 458.411,476.652 462.563,476.519C466.716,476.404 470.868,476.81 474.876,477.665C482.91,479.399 490.268,482.915 496.737,487.294C503.233,491.673 508.922,496.907 514.017,502.529C516.576,505.334 518.951,508.278 521.229,511.271C523.477,514.291 525.599,517.383 527.617,520.531C529.651,523.667 531.493,526.919 533.262,530.193C534.15,531.829 534.992,533.489 535.789,535.171C536.507,536.677 537.193,538.196 537.832,539.747Z" style="fill-rule:nonzero;"/>
        <path d="M274.065,554.728C272.603,556.796 270.398,558.523 268.589,560.296C266.562,562.284 264.528,564.273 262.742,566.484C261.204,568.388 259.84,570.657 259.527,573.124C259.29,574.99 259.407,577.834 261.241,578.91C262.905,579.886 265.029,578.442 266.279,577.435C267.924,576.109 269.303,574.35 270.466,572.598C272.223,569.951 273.46,566.923 274.924,564.108C276.719,560.652 279.154,557.08 279.604,553.17C279.743,551.961 278.41,552.225 277.859,552.841C275.557,555.414 274.229,558.537 272.666,561.598C271.173,564.521 269.801,567.502 268.331,570.435C267.613,571.869 266.576,573.173 265.519,574.37C265.101,574.843 264.587,575.348 264.082,575.698C263.547,576.07 263.421,576.105 263.242,576.006C262.823,575.773 262.722,574.655 262.667,574.202C262.533,573.119 262.647,572.125 262.952,571.084C263.56,569.016 265.091,567.16 266.444,565.536C269.366,562.027 272.706,559.072 274.863,555.007C275.164,554.437 274.348,554.329 274.065,554.728Z" style="fill-rule:nonzero;"/>
        <path d="M326.758,555.42C322.204,558.124 317.971,561.36 314.048,564.924C310.38,568.255 305.843,572.746 305.887,578.089C305.906,580.363 306.795,582.667 309.382,582.612C311.606,582.565 313.749,580.648 315.272,579.226C320.199,574.626 323.27,568.342 326.559,562.559C327.233,561.376 327.915,560.197 328.625,559.035C329.38,557.8 330.279,556.528 330.569,555.088C330.88,553.545 329.152,553.67 328.314,554.283C326.788,555.4 325.824,557.206 324.867,558.795C323.804,560.559 322.771,562.341 321.77,564.141C319.945,567.42 318.188,570.826 315.963,573.859C314.766,575.49 313.362,576.987 311.788,578.258C311.234,578.706 310.515,579.135 310.119,579.18C310.14,579.178 310.049,579.221 309.887,579.052C309.637,578.792 309.544,578.35 309.484,578.01C308.665,573.444 313.299,569.15 316.229,566.305C319.82,562.819 324.131,559.909 327.213,555.938C327.488,555.582 327.148,555.188 326.758,555.42Z" style="fill-rule:nonzero;"/>
        <path d="M289.186,595.868C285.575,599.308 281.317,602.023 277.738,605.51C275.92,607.281 274.309,609.304 273.315,611.656C272.458,613.684 271.968,616.539 273.543,618.359C274.802,619.815 277.071,619.63 278.695,619.04C281.11,618.161 282.89,616.314 284.176,614.151C285.885,611.276 286.454,607.828 287.868,604.808C289.257,601.845 291.844,598.723 291.237,595.287C291.044,594.193 289.672,594.43 289.17,595.186C286.054,599.894 283.721,605.118 282.002,610.489C281.38,612.432 280.59,614.438 278.762,615.513C277.995,615.965 276.794,616.264 276.302,615.323C275.45,613.692 276.528,611.479 277.329,610.053C278.358,608.218 279.948,606.67 281.464,605.241C284.432,602.447 288.105,600.025 290.009,596.318C290.308,595.736 289.563,595.509 289.186,595.868Z" style="fill-rule:nonzero;"/>
        <path d="M307.799,629.156C306.337,631.224 304.131,632.951 302.322,634.725C300.295,636.712 298.261,638.701 296.475,640.913C294.938,642.817 293.573,645.086 293.26,647.554C293.023,649.419 293.14,652.263 294.974,653.339C296.638,654.316 298.761,652.871 300.012,651.864C301.657,650.538 303.036,648.779 304.199,647.027C305.956,644.38 307.193,641.353 308.657,638.537C310.452,635.081 312.887,631.51 313.337,627.599C313.476,626.389 312.144,626.653 311.592,627.269C309.29,629.842 307.961,632.965 306.399,636.026C304.906,638.949 303.533,641.93 302.064,644.863C301.345,646.297 300.309,647.601 299.252,648.798C298.834,649.271 298.32,649.776 297.816,650.126C297.281,650.498 297.155,650.533 296.976,650.434C296.557,650.201 296.456,649.083 296.401,648.63C296.267,647.547 296.381,646.554 296.686,645.512C297.294,643.444 298.826,641.588 300.178,639.965C303.1,636.455 306.44,633.5 308.598,629.435C308.898,628.865 308.081,628.758 307.799,629.156Z" style="fill-rule:nonzero;"/>
        <path d="M360.492,629.847C355.938,632.551 351.705,635.787 347.781,639.351C344.114,642.682 339.576,647.173 339.62,652.516C339.639,654.79 340.528,657.094 343.115,657.04C345.339,656.992 347.483,655.075 349.005,653.654C353.932,649.053 357.003,642.769 360.292,636.987C360.965,635.803 361.647,634.624 362.358,633.463C363.113,632.227 364.012,630.955 364.302,629.515C364.613,627.973 362.885,628.097 362.047,628.71C360.522,629.827 359.557,631.633 358.6,633.223C357.537,634.986 356.504,636.768 355.503,638.568C353.679,641.848 351.921,645.253 349.696,648.286C348.498,649.917 347.095,651.414 345.521,652.685C344.966,653.133 344.248,653.562 343.852,653.608C343.873,653.605 343.782,653.649 343.62,653.479C343.37,653.22 343.277,652.778 343.216,652.437C342.397,647.871 347.031,643.577 349.962,640.732C353.553,637.246 357.864,634.336 360.946,630.365C361.222,630.01 360.882,629.617 360.492,629.847Z" style="fill-rule:nonzero;"/>
        <path d="M322.919,670.296C319.308,673.736 315.05,676.451 311.472,679.938C309.653,681.71 308.043,683.732 307.049,686.084C306.192,688.112 305.701,690.967 307.277,692.787C308.536,694.243 310.804,694.058 312.428,693.468C314.843,692.589 316.623,690.742 317.909,688.579C319.618,685.705 320.187,682.256 321.601,679.237C322.99,676.274 325.577,673.151 324.97,669.716C324.777,668.622 323.405,668.859 322.904,669.615C319.787,674.323 317.455,679.547 315.736,684.918C315.113,686.861 314.323,688.867 312.496,689.942C311.729,690.394 310.528,690.693 310.036,689.752C309.183,688.121 310.261,685.908 311.062,684.482C312.091,682.648 313.681,681.099 315.198,679.67C318.166,676.876 321.838,674.455 323.743,670.747C324.042,670.164 323.296,669.936 322.919,670.296Z" style="fill-rule:nonzero;"/>
        <path d="M314.76,592.746C313.298,594.814 311.093,596.541 309.284,598.314C307.257,600.302 305.223,602.29 303.437,604.502C301.899,606.405 300.535,608.674 300.222,611.142C299.985,613.007 300.102,615.852 301.936,616.928C303.6,617.904 305.724,616.46 306.974,615.452C308.62,614.126 309.998,612.367 311.161,610.615C312.918,607.968 314.155,604.941 315.619,602.125C317.414,598.67 319.849,595.098 320.299,591.187C320.438,589.978 319.105,590.242 318.554,590.858C316.251,593.43 314.923,596.554 313.361,599.614C311.868,602.538 310.495,605.518 309.026,608.451C308.307,609.885 307.271,611.19 306.214,612.386C305.796,612.86 305.282,613.364 304.778,613.715C304.243,614.086 304.117,614.122 303.938,614.023C303.519,613.789 303.418,612.671 303.363,612.218C303.229,611.135 303.343,610.142 303.648,609.1C304.256,607.032 305.787,605.176 307.14,603.553C310.062,600.044 313.402,597.089 315.559,593.023C315.859,592.455 315.042,592.346 314.76,592.746Z" style="fill-rule:nonzero;"/>
        <path d="M367.452,593.437C362.898,596.14 358.665,599.377 354.742,602.941C351.075,606.272 346.537,610.763 346.581,616.106C346.6,618.38 347.489,620.684 350.076,620.629C352.3,620.582 354.443,618.664 355.966,617.243C360.893,612.642 363.964,606.358 367.253,600.576C367.927,599.392 368.609,598.214 369.319,597.052C370.074,595.817 370.973,594.544 371.263,593.104C371.574,591.562 369.846,591.686 369.008,592.3C367.483,593.417 366.518,595.222 365.561,596.812C364.498,598.575 363.465,600.358 362.464,602.157C360.64,605.437 358.882,608.843 356.657,611.875C355.459,613.506 354.056,615.004 352.482,616.275C351.928,616.722 351.209,617.151 350.813,617.197C350.834,617.195 350.743,617.238 350.581,617.069C350.331,616.809 350.238,616.367 350.177,616.026C349.358,611.461 353.992,607.166 356.923,604.321C360.514,600.835 364.825,597.925 367.907,593.954C368.182,593.598 367.843,593.206 367.452,593.437Z" style="fill-rule:nonzero;"/>
        <path d="M329.88,633.885C326.269,637.324 322.011,640.04 318.432,643.526C316.614,645.298 315.004,647.321 314.009,649.673C313.152,651.701 312.661,654.555 314.236,656.376C315.495,657.832 317.764,657.647 319.388,657.056C321.803,656.178 323.583,654.33 324.869,652.168C326.578,649.293 327.147,645.845 328.561,642.825C329.95,639.862 332.537,636.74 331.93,633.304C331.737,632.21 330.365,632.447 329.863,633.204C326.747,637.911 324.414,643.136 322.695,648.507C322.073,650.449 321.283,652.456 319.455,653.531C318.688,653.982 317.487,654.281 316.995,653.34C316.142,651.71 317.22,649.497 318.021,648.07C319.05,646.236 320.64,644.687 322.156,643.259C325.124,640.464 328.797,638.043 330.701,634.335C331.003,633.754 330.257,633.525 329.88,633.885Z" style="fill-rule:nonzero;"/>
        <path d="M421.818,586.416L421.792,586.441C420.43,587.721 418.623,588.58 416.812,589.011C414.99,589.492 413.11,589.564 411.262,589.505C407.553,589.351 403.939,588.52 400.397,587.507C393.319,585.425 386.492,582.459 379.98,578.947C373.485,575.405 367.352,571.225 361.752,566.457C356.136,561.69 351.01,556.444 346.311,550.764C341.661,545.154 337.499,539.052 333.634,532.867C329.787,526.65 326.198,520.32 322.788,513.909C319.415,507.477 316.194,500.95 313.88,493.906C312.749,490.378 311.796,486.723 311.58,482.761C311.482,480.783 311.584,478.713 312.125,476.587C312.398,475.528 312.793,474.459 313.346,473.428C313.624,472.914 313.94,472.413 314.289,471.926L314.846,471.218L315.149,470.882L315.302,470.715L315.379,470.632C315.445,470.569 315.34,470.656 315.546,470.469L316.023,469.993C316.271,469.778 316.544,469.553 316.812,469.339C317.304,468.967 317.802,468.633 318.326,468.33C319.371,467.731 320.473,467.284 321.576,466.958C323.788,466.302 325.986,466.122 328.084,466.161C332.295,466.241 336.178,467.173 339.87,468.369C347.266,470.773 353.852,474.488 360.142,478.483C372.679,486.571 383.929,496.238 393.806,507.243C398.665,512.7 403.299,518.499 407.449,524.586C411.603,530.685 415.137,537.231 418.076,544.033C420.987,550.847 423.346,557.915 424.813,565.158C425.516,568.78 426.027,572.463 425.848,576.181C425.741,578.033 425.496,579.905 424.85,581.681C424.245,583.454 423.246,585.148 421.818,586.416ZM421.002,585.536C422.22,584.386 423.075,582.886 423.552,581.261C424.01,579.626 424.177,577.898 424.087,576.173C423.922,572.718 422.979,569.307 421.706,566.061C420.437,562.802 418.789,559.693 416.986,556.689C415.193,553.678 413.192,550.791 411.135,547.96C407.008,542.303 402.561,536.921 398.139,531.552C393.704,526.173 389.144,520.967 384.325,515.867C374.804,505.822 364.792,496.018 353.73,487.84C348.197,483.784 342.369,480.153 336.402,477.354C334.909,476.667 333.402,476.043 331.895,475.542C330.394,475.021 328.889,474.596 327.421,474.348C325.955,474.098 324.53,474.02 323.249,474.172C322.608,474.248 322.004,474.383 321.446,474.583C321.17,474.684 320.898,474.806 320.644,474.93C320.551,474.982 320.463,475.019 320.352,475.072L319.807,475.468C319.973,475.321 319.828,475.447 319.855,475.423L319.813,475.457L319.727,475.525L319.552,475.661L319.223,475.962C319.013,476.176 318.809,476.403 318.617,476.651C318.236,477.15 317.905,477.73 317.629,478.374C317.066,479.66 316.755,481.19 316.641,482.788C316.412,486.002 316.913,489.44 317.757,492.781C319.484,499.496 322.52,505.966 326.156,512.003C329.813,518.051 334.204,523.65 338.934,528.901C343.653,534.18 348.686,539.084 353.713,544.03C358.704,548.895 363.755,553.753 368.829,558.519C373.921,563.277 378.989,568.07 384.304,572.634C386.958,574.917 389.681,577.137 392.533,579.179C395.379,581.228 398.343,583.134 401.488,584.675C404.621,586.218 407.949,587.444 411.39,587.89C413.105,588.12 414.848,588.089 416.519,587.762C418.19,587.405 419.727,586.688 421.002,585.536Z" style="fill-rule:nonzero;"/>
        <path d="M345.761,491.99L345.757,491.994C345.209,492.578 344.35,492.706 343.583,492.701C342.798,492.691 342.002,492.578 341.238,492.363C339.7,491.939 338.348,491.052 337.282,489.923C336.212,488.784 335.439,487.414 334.708,486.085C334.344,485.415 334.009,484.727 333.776,483.969C333.573,483.24 333.377,482.288 334.002,481.409C334.291,481.014 334.799,480.713 335.24,480.595C335.699,480.456 336.154,480.431 336.585,480.457C337.451,480.508 338.24,480.756 338.986,481.057C340.48,481.661 341.811,482.543 342.969,483.603C344.098,484.684 345.121,485.932 345.673,487.444C345.966,488.184 346.163,488.964 346.253,489.747C346.339,490.51 346.302,491.38 345.761,491.99ZM345.614,491.854C346.085,491.313 345.993,490.506 345.725,489.874C345.458,489.217 345.006,488.647 344.544,488.116C343.569,487.086 342.606,486.091 341.543,485.186C340.496,484.274 339.389,483.416 338.194,482.77C337.597,482.453 336.975,482.198 336.372,482.045C335.768,481.898 335.186,481.858 334.817,482.139C334.43,482.411 334.288,483.137 334.437,483.806C334.561,484.488 334.875,485.15 335.266,485.751C336.061,486.964 337.274,487.837 338.397,488.684C339.536,489.527 340.623,490.378 341.773,491.205C342.352,491.607 342.968,491.998 343.652,492.191C344.312,492.389 345.124,492.394 345.614,491.854Z" style="fill-rule:nonzero;"/>
        <path d="M377.094,520.47C376.65,520.956 375.994,521.219 375.332,521.34C374.664,521.454 373.958,521.464 373.273,521.354C371.892,521.146 370.652,520.412 369.745,519.416C368.826,518.413 368.239,517.17 367.73,515.976C367.482,515.37 367.256,514.75 367.161,514.069C367.071,513.405 367.102,512.603 367.594,511.918C368.08,511.24 368.923,510.867 369.675,510.8C370.443,510.714 371.172,510.843 371.851,511.042C373.213,511.455 374.422,512.147 375.445,513.105C376.42,514.018 377.266,515.201 377.6,516.564C377.775,517.24 377.838,517.944 377.794,518.624C377.74,519.299 377.546,519.978 377.094,520.47ZM376.948,520.334C377.347,519.882 377.415,519.228 377.249,518.666C377.103,518.094 376.762,517.589 376.399,517.135C375.642,516.238 374.875,515.438 373.993,514.673C373.152,513.961 372.221,513.258 371.22,512.823C370.227,512.422 369.136,512.152 368.406,512.65C368.045,512.909 367.814,513.443 367.837,514.014C367.845,514.585 368.023,515.174 368.312,515.698C368.895,516.764 369.92,517.504 370.858,518.178C371.815,518.852 372.715,519.513 373.697,520.153C374.191,520.459 374.731,520.744 375.319,520.828C375.898,520.931 376.542,520.793 376.948,520.334Z" style="fill-rule:nonzero;"/>
        <path d="M341.496,516.998C340.977,517.403 340.287,517.552 339.614,517.561C338.936,517.561 338.239,517.453 337.582,517.229C336.255,516.792 335.156,515.86 334.429,514.726C333.691,513.583 333.321,512.259 333.02,510.997C332.877,510.357 332.759,509.708 332.779,509.021C332.801,508.351 332.967,507.566 333.566,506.974C334.159,506.387 335.052,506.161 335.805,506.22C336.576,506.264 337.273,506.513 337.91,506.824C339.18,507.455 340.268,508.357 341.098,509.45C341.924,510.537 342.547,511.827 342.651,513.232C342.711,513.928 342.654,514.632 342.497,515.295C342.331,515.95 342.025,516.589 341.496,516.998ZM341.376,516.838C341.846,516.46 342.022,515.826 341.953,515.245C341.905,514.656 341.653,514.1 341.372,513.593C340.78,512.586 340.145,511.653 339.422,510.774C338.694,509.908 337.907,509.075 336.989,508.474C336.077,507.911 335.048,507.462 334.244,507.831C333.845,508.026 333.527,508.513 333.454,509.081C333.366,509.644 333.442,510.256 333.639,510.82C334.035,511.969 334.922,512.869 335.733,513.693C336.563,514.517 337.339,515.321 338.2,516.116C338.636,516.5 339.12,516.872 339.685,517.054C340.24,517.252 340.899,517.222 341.376,516.838Z" style="fill-rule:nonzero;"/>
        <path d="M361.111,527.775L361.107,527.78C360.559,528.364 359.7,528.492 358.933,528.486C358.148,528.476 357.352,528.363 356.588,528.148C355.05,527.724 353.698,526.836 352.632,525.708C351.562,524.568 350.789,523.199 350.058,521.87C349.694,521.199 349.359,520.512 349.126,519.754C348.923,519.025 348.727,518.072 349.352,517.194C349.641,516.799 350.149,516.499 350.59,516.38C351.049,516.241 351.504,516.216 351.935,516.242C352.801,516.293 353.59,516.541 354.336,516.842C355.834,517.45 357.152,518.321 358.328,519.396C359.44,520.461 360.475,521.72 361.023,523.229C361.316,523.968 361.513,524.75 361.604,525.532C361.689,526.297 361.652,527.167 361.111,527.775ZM360.963,527.64C361.434,527.099 361.342,526.292 361.074,525.661C360.808,525.004 360.356,524.433 359.894,523.903C358.915,522.87 357.965,521.886 356.884,520.965C355.855,520.069 354.735,519.199 353.544,518.557C352.947,518.241 352.325,517.985 351.722,517.832C351.118,517.685 350.536,517.645 350.166,517.926C349.779,518.198 349.637,518.923 349.786,519.592C349.91,520.275 350.224,520.937 350.615,521.537C351.41,522.75 352.623,523.623 353.745,524.47C354.884,525.313 355.972,526.164 357.121,526.991C357.7,527.393 358.316,527.784 359,527.977C359.661,528.175 360.474,528.18 360.963,527.64Z" style="fill-rule:nonzero;"/>
        <path d="M366.711,548.524L366.707,548.529C366.159,549.113 365.299,549.241 364.533,549.235C363.748,549.225 362.952,549.112 362.188,548.897C360.65,548.473 359.298,547.585 358.232,546.457C357.162,545.317 356.39,543.947 355.658,542.619C355.294,541.948 354.959,541.261 354.726,540.503C354.523,539.774 354.327,538.821 354.952,537.943C355.241,537.547 355.749,537.247 356.19,537.129C356.65,536.989 357.104,536.965 357.535,536.99C358.401,537.042 359.19,537.29 359.936,537.591C361.43,538.195 362.761,539.077 363.919,540.137C365.048,541.217 366.071,542.465 366.623,543.978C366.916,544.717 367.113,545.498 367.203,546.281C367.288,547.046 367.251,547.916 366.711,548.524ZM366.563,548.389C367.033,547.848 366.942,547.041 366.674,546.409C366.408,545.753 365.955,545.182 365.493,544.652C364.518,543.622 363.555,542.627 362.492,541.722C361.445,540.809 360.338,539.951 359.143,539.306C358.546,538.989 357.924,538.734 357.321,538.58C356.717,538.433 356.135,538.393 355.766,538.675C355.378,538.946 355.237,539.672 355.386,540.341C355.51,541.024 355.824,541.686 356.215,542.285C357.01,543.499 358.222,544.372 359.345,545.219C360.484,546.062 361.571,546.913 362.721,547.74C363.3,548.142 363.915,548.533 364.6,548.726C365.261,548.924 366.073,548.929 366.563,548.389Z" style="fill-rule:nonzero;"/>
        <path d="M384.649,544.509L384.645,544.513C384.241,544.956 383.619,545.107 383.03,545.172C382.432,545.221 381.811,545.199 381.21,545.081C379.998,544.855 378.932,544.194 378.147,543.309C377.351,542.417 376.841,541.321 376.338,540.296C376.092,539.775 375.85,539.25 375.699,538.661C375.578,538.084 375.439,537.375 375.958,536.647C376.002,536.559 376.216,536.345 376.36,536.244C376.522,536.127 376.695,536.036 376.873,535.963C377.227,535.823 377.588,535.768 377.929,535.762C378.615,535.748 379.242,535.908 379.829,536.114C381.003,536.538 382.046,537.162 382.938,538.004C383.791,538.807 384.546,539.823 384.88,541.018C385.054,541.609 385.141,542.227 385.153,542.83C385.149,543.424 385.063,544.059 384.649,544.509ZM384.501,544.374C384.847,543.981 384.819,543.392 384.618,542.926C384.426,542.443 384.074,542.032 383.718,541.66C382.975,540.926 382.274,540.247 381.492,539.574C380.745,538.945 379.948,538.298 379.093,537.854C378.666,537.632 378.224,537.464 377.809,537.362C377.383,537.281 377.039,537.208 376.731,537.423C376.488,537.537 376.291,538.055 376.367,538.54C376.421,539.036 376.617,539.54 376.902,539.983C377.476,540.885 378.422,541.485 379.26,542.071C380.115,542.654 380.888,543.263 381.706,543.907C382.119,544.215 382.565,544.52 383.068,544.66C383.557,544.809 384.147,544.774 384.501,544.374Z" style="fill-rule:nonzero;"/>
        <path d="M357.073,507.83L357.069,507.834C356.665,508.277 356.043,508.427 355.455,508.493C354.857,508.543 354.236,508.52 353.634,508.402C352.422,508.177 351.356,507.516 350.571,506.63C349.775,505.739 349.265,504.642 348.762,503.617C348.516,503.096 348.274,502.572 348.123,501.983C347.993,501.415 347.883,500.675 348.361,499.99C348.85,499.316 349.693,499.087 350.353,499.082C351.039,499.069 351.666,499.228 352.253,499.434C353.423,499.855 354.479,500.489 355.354,501.315C356.225,502.135 356.967,503.14 357.305,504.337C357.479,504.928 357.566,505.545 357.578,506.148C357.573,506.744 357.487,507.381 357.073,507.83ZM356.925,507.695C357.271,507.302 357.243,506.713 357.041,506.247C356.849,505.764 356.497,505.354 356.141,504.981C355.402,504.251 354.687,503.56 353.925,502.903C353.16,502.258 352.376,501.623 351.516,501.175C350.676,500.762 349.709,500.416 349.175,500.722C348.892,500.879 348.724,501.366 348.791,501.861C348.846,502.358 349.042,502.861 349.326,503.304C349.9,504.207 350.846,504.806 351.684,505.391C352.539,505.975 353.312,506.584 354.13,507.227C354.543,507.535 354.989,507.841 355.493,507.98C355.981,508.131 356.571,508.095 356.925,507.695Z" style="fill-rule:nonzero;"/>
        <path d="M413.563,570.746L413.559,570.75C413.155,571.193 412.533,571.344 411.944,571.409C411.346,571.459 410.725,571.436 410.124,571.318C408.912,571.092 407.846,570.431 407.061,569.546C406.265,568.654 405.755,567.558 405.252,566.533C405.006,566.012 404.764,565.488 404.613,564.899C404.483,564.331 404.373,563.59 404.851,562.906C405.341,562.231 406.183,562.004 406.843,561.998C407.529,561.986 408.155,562.145 408.742,562.351C409.916,562.775 410.959,563.398 411.852,564.241C412.705,565.044 413.46,566.06 413.793,567.255C413.967,567.846 414.054,568.464 414.066,569.067C414.063,569.66 413.977,570.297 413.563,570.746ZM413.415,570.611C413.761,570.217 413.733,569.629 413.531,569.163C413.339,568.68 412.987,568.269 412.631,567.897C411.888,567.163 411.187,566.484 410.405,565.81C409.658,565.182 408.862,564.535 408.006,564.091C407.166,563.678 406.199,563.332 405.665,563.638C405.382,563.795 405.214,564.283 405.281,564.777C405.336,565.273 405.531,565.778 405.816,566.22C406.389,567.122 407.336,567.722 408.174,568.308C409.029,568.892 409.802,569.501 410.62,570.144C411.033,570.452 411.479,570.757 411.983,570.897C412.471,571.047 413.061,571.011 413.415,570.611Z" style="fill-rule:nonzero;"/>
        <path d="M380.278,561.192C379.466,562.067 378.119,562.403 376.834,562.322C375.529,562.24 374.332,561.579 373.494,560.646C372.644,559.703 372.151,558.517 371.769,557.385C371.583,556.811 371.425,556.223 371.398,555.589C371.377,554.966 371.481,554.26 371.906,553.655C372.323,553.054 373.019,552.63 373.717,552.487C374.42,552.329 375.117,552.386 375.767,552.526C377.068,552.813 378.246,553.446 379.182,554.324C380.111,555.197 380.862,556.329 381.068,557.634C381.27,558.913 381.09,560.296 380.278,561.192ZM380.132,561.055C380.497,560.643 380.613,560.064 380.507,559.542C380.418,559.013 380.136,558.539 379.83,558.121C379.524,557.698 379.173,557.326 378.832,556.957C378.488,556.578 378.146,556.247 377.751,555.912C376.987,555.271 376.166,554.677 375.261,554.348C374.364,554.051 373.427,553.904 372.718,554.388C372.371,554.637 372.114,555.09 372.075,555.605C372.025,556.117 372.138,556.662 372.367,557.149C372.828,558.146 373.767,558.821 374.605,559.409C375.467,559.994 376.27,560.561 377.171,561.094C377.623,561.347 378.127,561.576 378.664,561.608C379.2,561.655 379.763,561.475 380.132,561.055Z" style="fill-rule:nonzero;"/>
        <path d="M402.042,553.821C401.591,554.277 400.916,554.26 400.334,554.251C399.736,554.211 399.126,554.125 398.539,553.961C397.357,553.645 396.334,552.965 395.55,552.082C394.759,551.194 394.216,550.119 393.63,549.133C393.342,548.632 393.047,548.136 392.813,547.579C392.701,547.298 392.597,547.003 392.548,546.66C392.51,546.327 392.527,545.889 392.811,545.505C393.081,545.131 393.548,544.932 393.91,544.865C394.29,544.787 394.642,544.799 394.976,544.838C395.64,544.923 396.231,545.139 396.792,545.387C397.912,545.894 398.92,546.539 399.804,547.371C400.653,548.174 401.422,549.144 401.845,550.299C402.064,550.871 402.213,551.471 402.314,552.064C402.383,552.645 402.471,553.317 402.046,553.817L402.046,553.818L402.042,553.821ZM401.899,553.68C402.229,553.281 402.063,552.676 401.797,552.24C401.53,551.777 401.132,551.392 400.736,551.033L398.359,548.945C397.58,548.289 396.778,547.595 395.919,547.063C395.49,546.797 395.045,546.573 394.62,546.403C394.194,546.238 393.793,546.154 393.624,546.237C393.4,546.3 393.302,546.878 393.456,547.359C393.589,547.858 393.842,548.346 394.168,548.776C394.823,549.649 395.801,550.234 396.664,550.844C397.543,551.449 398.33,552.108 399.127,552.83C399.531,553.179 399.957,553.534 400.447,553.749C400.913,553.966 401.533,554.067 401.899,553.68Z" style="fill-rule:nonzero;"/>
        <path d="M400.645,577.216L400.641,577.221C400.093,577.805 399.233,577.933 398.467,577.927C397.682,577.916 396.886,577.804 396.122,577.588C394.584,577.164 393.232,576.277 392.166,575.148C391.096,574.009 390.323,572.639 389.592,571.31C389.227,570.64 388.893,569.952 388.66,569.194C388.457,568.465 388.261,567.512 388.886,566.634C389.175,566.238 389.683,565.939 390.125,565.82C390.584,565.681 391.039,565.657 391.47,565.682C392.336,565.733 393.125,565.982 393.871,566.282C395.365,566.887 396.696,567.769 397.853,568.829C398.983,569.909 400.006,571.157 400.557,572.67C400.85,573.409 401.047,574.191 401.138,574.973C401.223,575.737 401.186,576.607 400.645,577.216ZM400.497,577.081C400.968,576.54 400.876,575.733 400.608,575.102C400.342,574.445 399.89,573.874 399.428,573.344C398.453,572.314 397.49,571.319 396.427,570.414C395.38,569.502 394.272,568.643 393.078,567.998C392.481,567.681 391.859,567.425 391.256,567.272C390.652,567.125 390.07,567.085 389.7,567.366C389.313,567.638 389.171,568.363 389.32,569.032C389.444,569.715 389.758,570.377 390.149,570.977C390.944,572.191 392.157,573.063 393.28,573.91C394.419,574.753 395.506,575.604 396.656,576.431C397.235,576.833 397.851,577.224 398.535,577.417C399.196,577.615 400.008,577.621 400.497,577.081Z" style="fill-rule:nonzero;"/>
        <path d="M394.26,534.447C393.379,535.375 391.915,535.581 390.595,535.435C389.245,535.278 388.025,534.575 387.148,533.605C386.259,532.628 385.711,531.411 385.253,530.243C385.03,529.65 384.833,529.043 384.765,528.381C384.703,527.733 384.769,526.971 385.232,526.32C385.688,525.675 386.469,525.277 387.201,525.177C387.943,525.062 388.659,525.161 389.326,525.336C390.659,525.696 391.863,526.372 392.836,527.284C393.803,528.19 394.601,529.342 394.886,530.683C395.155,531.99 395.117,533.475 394.26,534.447ZM394.114,534.31C394.499,533.874 394.589,533.252 394.448,532.707C394.324,532.152 394.009,531.661 393.67,531.223C392.965,530.359 392.225,529.581 391.406,528.872C390.584,528.178 389.708,527.528 388.744,527.135C387.789,526.777 386.766,526.56 386.045,527.052C385.69,527.309 385.446,527.806 385.443,528.355C385.427,528.901 385.577,529.472 385.841,529.981C386.374,531.018 387.363,531.729 388.259,532.368C389.176,533.005 390.036,533.628 390.984,534.223C391.46,534.506 391.984,534.768 392.551,534.83C393.114,534.911 393.723,534.753 394.114,534.31Z" style="fill-rule:nonzero;"/>
    </g>
</svg>
