<?xml version="1.0" encoding="utf-8"?>
<!-- Generator: Adobe Illustrator 15.1.0, SVG Export Plug-In . SVG Version: 6.00 Build 0)  -->
<!DOCTYPE svg PUBLIC "-//W3C//DTD SVG 1.1//EN" "http://www.w3.org/Graphics/SVG/1.1/DTD/svg11.dtd">
<svg version="1.1" id="Layer_1" xmlns="http://www.w3.org/2000/svg" xmlns:xlink="http://www.w3.org/1999/xlink" x="0px" y="0px"
	 width="1024px" height="1024px" viewBox="0 0 1024 1024" enable-background="new 0 0 1024 1024" xml:space="preserve">
<g id="Layer_2_1_">
	<g>
		<path fill="#231F20" d="M696.361,576.027L580.269,894.422c0,0,2.78,26.315,36.371,14.283
			c33.599-12.033,113.311-319.293,113.311-319.293L696.361,576.027z"/>
		<path d="M696.485,576.3c-2.224,6.628-4.486,13.243-6.77,19.849l-6.913,20.024l-14.046,39.968
			c-9.472,26.607-18.995,53.194-28.729,79.707c-4.868,13.255-9.832,26.475-14.848,39.675l-15.004,39.621
			c-5.016,13.202-9.936,26.438-14.796,39.695c-4.888,13.248-9.604,26.559-14.415,39.836l0.041-0.332
			c0.579,3.772,2.232,7.553,4.776,10.434c2.535,2.921,6.057,4.845,9.842,5.599c3.792,0.779,7.77,0.544,11.628-0.191
			c1.935-0.37,3.848-0.868,5.736-1.459c0.945-0.298,1.883-0.617,2.814-0.957c0.485-0.17,0.886-0.334,1.251-0.527
			c0.392-0.202,0.774-0.444,1.149-0.711c1.5-1.07,2.844-2.487,4.085-3.983c1.245-1.506,2.389-3.116,3.477-4.771
			c2.171-3.314,4.118-6.805,5.958-10.354c3.664-7.11,6.967-14.433,10.077-21.839c12.288-29.706,22.557-60.285,32.346-90.968
			c9.837-30.682,19.122-61.548,28.305-92.449c4.581-15.453,9.051-30.941,13.477-46.443c4.479-15.484,8.873-31,13.177-46.534
			l0.525,1.035C718.578,585.584,707.51,580.996,696.485,576.3z M696.438,575.836c11.301,4.198,22.559,8.507,33.838,12.76l0.713,0.27
			l-0.189,0.767c-3.856,15.668-7.89,31.285-11.967,46.895c-4.141,15.591-8.402,31.149-12.734,46.69
			c-8.655,31.084-17.876,62.018-27.816,92.733c-5.02,15.342-10.206,30.633-15.678,45.828c-5.478,15.193-11.218,30.307-17.717,45.132
			c-3.264,7.404-6.656,14.766-10.561,21.9c-1.956,3.563-4.022,7.079-6.347,10.459c-1.168,1.687-2.398,3.339-3.76,4.912
			c-1.368,1.565-2.848,3.08-4.662,4.316c-0.454,0.309-0.932,0.595-1.442,0.844c-0.533,0.267-1.075,0.461-1.544,0.616
			c-0.972,0.327-1.948,0.636-2.935,0.92c-1.971,0.572-3.974,1.051-6.008,1.397c-4.057,0.688-8.293,0.868-12.405-0.062
			c-4.104-0.896-7.986-3.122-10.683-6.369c-1.361-1.606-2.441-3.424-3.278-5.329c-0.833-1.922-1.442-3.884-1.729-6.019l-0.022-0.16
			l0.063-0.171c4.863-13.258,9.821-26.479,14.61-39.764c4.812-13.274,9.568-26.57,14.225-39.902l14.021-39.979
			c4.66-13.331,9.37-26.644,14.175-39.921c9.615-26.555,19.44-53.034,29.319-79.492l14.975-39.631l7.6-19.773
			c2.53-6.593,5.08-13.178,7.673-19.747l0.074-0.192L696.438,575.836z"/>
	</g>
	<g>
		<path d="M841.104,223.327c-4.831-2.272-9.799-4.208-14.908-5.708c-5.115-1.466-10.337-2.567-15.618-3.128
			c-10.558-1.152-21.287-0.375-31.502,2.252c-5.112,1.291-10.117,2.972-14.962,5.019c-4.836,2.068-9.519,4.467-14.034,7.144
			c-9.038,5.344-17.382,11.779-25.12,18.839c-7.773,7.032-14.877,14.778-21.56,22.849c-3.332,4.046-6.565,8.177-9.652,12.417
			c-3.128,4.212-6.104,8.538-9.004,12.914c-11.574,17.528-21.535,36.154-29.992,55.473c-4.245,9.656-8.091,19.502-11.475,29.517
			c-3.419,10.005-6.344,20.19-8.737,30.512c-4.729,20.626-7.302,41.923-6.04,63.118c0.634,10.578,2.19,21.119,5.023,31.303
			c2.84,10.165,6.771,20.059,12.31,28.977c2.737,4.472,5.841,8.702,9.262,12.641c3.461,3.904,7.249,7.5,11.335,10.703
			c4.076,3.216,8.441,6.046,13.036,8.436c4.569,2.396,9.433,4.405,14.327,6.191c9.814,3.538,20.008,5.85,30.271,6.666
			c5.13,0.413,10.273,0.444,15.382,0.115c5.108-0.306,10.188-0.984,15.188-2.021c20.051-4.12,38.699-13.834,54.831-26.679
			c8.089-6.422,15.586-13.627,22.535-21.349c6.957-7.715,13.357-15.959,19.227-24.583c11.704-17.271,21.51-35.884,29.39-55.284
			c7.907-19.393,13.881-39.598,17.707-60.193c0.958-5.148,1.816-10.318,2.482-15.511c0.716-5.188,1.279-10.398,1.666-15.622
			c0.731-10.445,0.961-20.948,0.262-31.414c-0.668-10.462-2.144-20.901-4.758-31.09c-1.303-5.094-2.884-10.121-4.764-15.045
			c-1.903-4.911-4.127-9.706-6.656-14.342c-5.035-9.284-11.516-17.832-19.215-25.153c-3.84-3.671-8.013-6.993-12.393-10.015
			C850.546,228.277,845.903,225.637,841.104,223.327z M841.674,222.122c9.762,4.578,18.887,10.549,26.986,17.726
			c8.116,7.168,15.128,15.582,21.02,24.739c2.934,4.588,5.552,9.385,7.892,14.316c2.367,4.921,4.439,9.992,6.233,15.162
			c3.581,10.345,6.13,21.062,7.733,31.916c1.567,10.857,2.324,21.85,2.147,32.824c-0.067,5.489-0.314,10.974-0.733,16.446
			c-0.466,5.468-1.084,10.923-1.897,16.348c-1.616,10.854-3.949,21.588-6.828,32.168c-2.861,10.588-6.387,20.989-10.404,31.197
			c-8.12,20.375-18.415,39.949-31.159,57.923c-12.716,17.954-27.733,34.512-45.485,47.945c-8.864,6.699-18.393,12.632-28.572,17.304
			c-10.166,4.66-20.941,8.191-32.046,9.938c-5.544,0.895-11.15,1.392-16.755,1.479c-5.606,0.063-11.204-0.297-16.732-1.053
			c-11.06-1.508-21.811-4.607-31.943-8.915c-5.066-2.167-10.021-4.53-14.807-7.376c-4.764-2.842-9.29-6.077-13.488-9.679
			c-4.203-3.597-8.044-7.596-11.529-11.856c-3.495-4.254-6.631-8.787-9.362-13.537c-5.44-9.514-9.544-19.714-12.332-30.226
			c-2.802-10.511-4.527-21.262-5.399-32.069c-1.706-21.623-0.371-43.409,3.112-64.836c1.749-10.717,4.073-21.351,6.922-31.851
			c2.869-10.493,6.287-20.849,10.231-31.01c7.939-20.296,18.071-39.801,30.476-57.835c12.39-18.017,27.222-34.537,44.539-48.064
			c8.662-6.743,17.971-12.683,27.83-17.486c4.929-2.398,10.005-4.492,15.192-6.222c5.18-1.76,10.473-3.167,15.84-4.137
			c5.366-0.974,10.799-1.51,16.228-1.656c5.43-0.109,10.86,0.192,16.22,0.957c5.356,0.774,10.651,1.937,15.805,3.55
			c5.159,1.58,10.207,3.547,15.062,5.867L841.674,222.122z"/>
	</g>
	<g>
		<path d="M700.389,580.032c5.043,2.098,10.149,3.98,15.352,5.534c5.201,1.551,10.49,2.741,15.813,3.638
			c5.329,0.871,10.702,1.376,16.077,1.52c5.376,0.135,10.75-0.146,16.078-0.766c5.325-0.629,10.6-1.666,15.777-3.04
			c5.187-1.357,10.272-3.087,15.231-5.131c9.919-4.096,19.349-9.358,28.234-15.456c8.918-6.058,17.283-12.987,25.048-20.563
			c3.883-3.785,7.622-7.731,11.217-11.811c3.569-4.1,6.988-8.338,10.239-12.703c6.478-8.751,12.325-17.97,17.534-27.534
			c2.609-4.778,5.06-9.643,7.333-14.587c2.287-4.938,4.438-9.936,6.449-14.987c4.015-10.107,7.415-20.438,10.373-30.876
			c2.933-10.444,5.389-21.016,7.235-31.686c1.838-10.671,3.064-21.441,3.568-32.234c0.491-10.789,0.398-21.602-0.612-32.33
			c-1.892-21.418-7.252-42.704-17.671-61.54c-2.628-4.681-5.519-9.224-8.753-13.523c-3.237-4.295-6.8-8.354-10.664-12.119
			c-3.878-3.749-8.01-7.259-12.407-10.428c-4.402-3.166-9.054-6.002-13.878-8.544l0.22-0.464c5.045,2.138,9.922,4.701,14.581,7.635
			c4.66,2.93,9.126,6.213,13.248,9.899c8.269,7.347,15.435,15.992,21.146,25.52c5.748,9.514,10.117,19.825,13.316,30.448
			c3.22,10.628,5.184,21.594,6.308,32.603c1.033,11.024,1.198,22.114,0.501,33.134c-0.689,11.021-2.115,21.976-4.158,32.8
			s-4.72,21.521-8.038,32.006c-3.305,10.49-7.279,20.754-11.729,30.784c-4.407,10.054-9.46,19.799-14.849,29.336
			c-5.434,9.513-11.31,18.771-17.712,27.665c-3.192,4.453-6.508,8.822-9.97,13.08c-3.438,4.277-7.031,8.436-10.791,12.451
			c-7.523,8.021-15.702,15.492-24.623,22.05c-8.941,6.513-18.656,12.069-28.991,16.18c-5.162,2.06-10.459,3.794-15.857,5.142
			c-5.403,1.327-10.905,2.247-16.439,2.771c-5.532,0.54-11.108,0.595-16.643,0.254c-5.537-0.326-11.038-1.104-16.438-2.277
			c-5.409-1.144-10.701-2.753-15.857-4.665c-5.158-1.909-10.186-4.15-15.016-6.725L700.389,580.032z"/>
	</g>
	<g>
		<path d="M652.758,434.928c-1.536,6.584-2.894,13.149-4.003,19.741c-0.286,1.646-0.536,3.298-0.777,4.948
			c-0.26,1.648-0.493,3.298-0.697,4.952c-0.401,3.308-0.791,6.613-1.137,9.928c-0.705,6.615-1.332,13.334-0.747,20.025
			c0.292,3.338,0.81,6.659,1.599,9.912c0.759,3.262,1.871,6.428,3.093,9.519c2.557,6.15,5.833,11.916,9.733,17.173
			c3.938,5.241,8.685,9.797,13.867,13.774c5.16,4.025,10.873,7.357,16.856,10.223c5.999,2.845,12.284,5.188,18.721,7.276l-0.088,0.4
			c-6.74-0.789-13.437-2.321-19.882-4.698c-6.454-2.348-12.638-5.598-18.246-9.709c-2.771-2.096-5.422-4.374-7.808-6.912
			c-2.39-2.531-4.587-5.24-6.555-8.102c-1.976-2.855-3.716-5.869-5.163-9.005c-1.462-3.132-2.599-6.396-3.56-9.683
			c-1.909-6.588-3.026-13.301-3.892-20.031c-0.822-6.728-1.539-13.551-1.339-20.393c0.108-3.416,0.421-6.825,0.947-10.197
			c0.258-1.687,0.545-3.368,0.859-5.045c0.329-1.673,0.708-3.336,1.099-4.994c0.8-3.312,1.736-6.591,2.848-9.809
			c1.106-3.218,2.34-6.394,3.885-9.438L652.758,434.928z"/>
	</g>
	<g>
		<path d="M877.125,371.662c1.939-6.478,3.695-12.946,5.208-19.458c0.388-1.625,0.738-3.258,1.081-4.891
			c0.361-1.628,0.696-3.263,1.001-4.9c0.604-3.278,1.196-6.552,1.747-9.84c1.107-6.559,2.147-13.226,1.974-19.94
			c-0.085-3.351-0.398-6.696-0.984-9.993c-0.556-3.302-1.474-6.53-2.502-9.69c-2.173-6.295-5.088-12.252-8.656-17.739
			c-3.611-5.473-8.068-10.313-12.995-14.601c-4.905-4.333-10.402-8.012-16.197-11.239c-5.812-3.209-11.943-5.934-18.238-8.413
			l0.112-0.395c6.678,1.203,13.268,3.143,19.556,5.912c6.298,2.739,12.269,6.364,17.613,10.813c2.637,2.261,5.143,4.698,7.368,7.378
			c2.229,2.673,4.256,5.513,6.046,8.49c1.794,2.971,3.348,6.084,4.6,9.306c1.266,3.217,2.2,6.543,2.955,9.884
			c1.503,6.691,2.204,13.462,2.653,20.23c0.407,6.767,0.704,13.62,0.082,20.438c-0.317,3.402-0.839,6.786-1.571,10.121
			c-0.362,1.667-0.752,3.329-1.169,4.982c-0.432,1.65-0.911,3.287-1.403,4.917c-1.001,3.259-2.139,6.473-3.446,9.614
			c-1.302,3.145-2.729,6.238-4.457,9.182L877.125,371.662z"/>
	</g>
</g>
<g id="Layer_3_1_">
	<g>
		<path fill="#231F20" d="M813.864,448.402c0,0,27.872-80.046-34.604-99.122C733.634,405.309,813.864,448.402,813.864,448.402z"/>
		<path d="M813.728,448.06c2.232-9.491,3.738-19.103,4.336-28.725c0.154-2.428,0.236-4.857,0.236-7.282
			c0.025-2.425-0.027-4.847-0.175-7.259c-0.154-2.413-0.388-4.814-0.685-7.205c-0.325-2.387-0.713-4.761-1.204-7.114
			c-1.004-4.698-2.38-9.335-4.386-13.727c-1.982-4.399-4.65-8.513-7.932-12.099c-1.644-1.793-3.454-3.425-5.358-4.943
			c-1.926-1.486-3.957-2.837-6.079-4.035c-4.246-2.394-8.842-4.111-13.53-5.381l1.127-0.342c-3.058,4.012-5.704,8.312-7.822,12.81
			c-2.107,4.5-3.693,9.209-4.468,14.046c-0.783,4.832-0.727,9.766,0.15,14.56c0.897,4.788,2.451,9.466,4.644,13.874
			c4.281,8.891,10.669,16.769,17.772,23.876c3.575,3.547,7.369,6.899,11.308,10.09C805.534,442.329,809.547,445.317,813.728,448.06z
			 M813.766,448.583c-9.241-4.475-17.844-10.273-25.639-17.086c-7.758-6.822-14.706-14.861-19.487-24.32
			c-2.311-4.748-4.105-9.826-4.882-15.116c-0.814-5.275-0.724-10.696,0.275-15.917c0.982-5.227,2.863-10.239,5.386-14.831
			c2.515-4.605,5.641-8.795,9.022-12.697l0.488-0.562l0.639,0.219c9.443,3.24,18.322,8.29,25.35,15.424
			c7.051,7.075,12.188,16.191,14.687,25.984c0.632,2.443,1.132,4.92,1.465,7.418c0.357,2.494,0.579,5.001,0.669,7.51
			c0.101,2.509,0.113,5.018,0.031,7.519c-0.107,2.501-0.297,4.995-0.562,7.476c-0.545,4.962-1.416,9.876-2.6,14.704
			c-1.188,4.823-2.626,9.585-4.551,14.162l-0.09,0.212L813.766,448.583z"/>
	</g>
	<g>
		<path d="M782.891,372.064c-0.952,0.693-2.02,1.136-3.121,1.46c-1.102,0.339-2.251,0.512-3.411,0.563
			c-1.163,0.048-2.338-0.035-3.492-0.264c-1.156-0.211-2.287-0.601-3.319-1.178c-2.088-1.164-3.643-2.985-5.17-4.561
			c-1.528-1.605-3.052-3.183-4.543-4.895c-0.728-0.863-1.455-1.755-2.047-2.723c-0.608-0.959-1.103-1.979-1.562-3.009
			c-0.909-2.063-1.67-4.195-2.074-6.39c-0.396-2.195-0.56-4.416-0.493-6.628c0.069-2.212,0.302-4.415,0.908-6.593l0.409-0.018
			c0.792,2.109,1.328,4.189,1.891,6.24c0.559,2.05,1.062,4.074,1.568,6.075c0.496,2.001,0.881,4.014,1.436,5.986
			c0.277,0.984,0.593,1.956,0.898,2.937c0.316,0.975,0.597,1.982,0.985,2.952c0.732,1.953,1.885,3.785,3.52,5.087
			c1.629,1.33,3.721,1.89,5.595,2.379l2.805,0.776c0.938,0.244,1.896,0.457,2.876,0.632c1.966,0.357,4.004,0.581,6.223,0.772
			L782.891,372.064z"/>
	</g>
	<g>
		<path d="M789.602,367.974l3.523-4.84l1.62-2.333c0.512-0.788,1.039-1.553,1.61-2.309c1.136-1.495,2.48-3.056,3.08-4.948
			c0.621-1.872,0.616-3.909,0.2-5.828c-0.188-0.963-0.484-1.897-0.735-2.82c-0.266-0.922-0.516-1.835-0.812-2.737
			c-0.597-1.808-1.372-3.537-2.074-5.313l-2.168-5.416c-0.732-1.848-1.523-3.701-2.164-5.734l0.328-0.244
			c1.771,1.208,3.256,2.698,4.605,4.314c1.346,1.618,2.497,3.409,3.415,5.332c0.911,1.929,1.466,4.03,1.826,6.148
			c0.177,1.063,0.308,2.135,0.308,3.216c0.015,1.08-0.127,2.162-0.283,3.22c-0.354,2.122-0.802,4.135-1.163,6.182
			c-0.377,2.03-0.547,4.251-1.372,6.289c-0.407,1.01-0.976,1.948-1.651,2.795c-0.662,0.856-1.41,1.643-2.221,2.35
			c-0.813,0.706-1.686,1.342-2.634,1.853c-0.938,0.522-1.932,0.959-3.022,1.174L789.602,367.974z"/>
	</g>
	<g>
		<path fill="#231F20" d="M810.369,370.657c0,0,5.616-6.345,12.815-4.264"/>
		<path d="M810.216,370.52c-0.087-0.501-0.051-0.915,0.034-1.29c0.07-0.387,0.213-0.714,0.384-1.014
			c0.359-0.573,0.79-1.118,1.484-1.263c0.695-0.148,1.574,0.091,2.173-0.08c0.611-0.16,1.065-0.606,1.531-1.194
			c0.238-0.272,0.481-0.591,0.767-0.809c0.278-0.242,0.596-0.384,0.917-0.535c0.639-0.298,1.331-0.561,2.05-0.534
			c0.716,0.03,1.433,0.244,2.074,0.637c0.646,0.379,1.217,0.953,1.611,1.756l-0.114,0.395c-0.743,0.483-1.334,0.813-1.866,1.058
			c-0.534,0.256-1.003,0.438-1.47,0.531c-0.462,0.093-0.945-0.008-1.463-0.055c-0.502,0.002-1.072-0.158-1.72-0.341
			c-0.641-0.171-1.27-0.133-1.704,0.26c-0.45,0.378-0.586,1.228-0.87,1.744c-0.288,0.52-0.802,0.689-1.35,0.876
			c-0.281,0.082-0.583,0.145-0.944,0.161c-0.348,0.03-0.733,0.033-1.219-0.032L810.216,370.52z"/>
	</g>
	<g>
		<path fill="#231F20" d="M815.718,407.52c0,0,6.964-10.86,16.846-6.826"/>
		<path d="M815.546,407.409c-0.174-1.142,0.091-2.067,0.484-2.889c0.201-0.408,0.448-0.788,0.736-1.127
			c0.274-0.354,0.621-0.642,1.041-0.844c0.843-0.407,1.933-0.437,2.698-0.816c0.779-0.373,1.386-0.974,2.015-1.716
			c0.619-0.754,1.403-1.371,2.304-1.722c0.882-0.396,1.852-0.707,2.844-0.678c1.98,0.087,3.928,1.033,4.974,2.889l-0.154,0.379
			c-1.996,0.619-3.343,0.888-4.655,1.108c-0.65,0.093-1.314,0.027-2.024,0.051c-0.688,0.071-1.454,0.031-2.313-0.005
			c-0.853-0.029-1.665,0.211-2.234,0.78c-0.586,0.558-0.781,1.562-1.151,2.261c-0.192,0.353-0.434,0.635-0.736,0.868
			c-0.286,0.248-0.601,0.471-0.941,0.681c-0.688,0.416-1.452,0.778-2.54,1.003L815.546,407.409z"/>
	</g>
	<g>
		<path fill="#231F20" d="M785.81,419.096c0,0-11.229,0.48-16.849,8.044"/>
		<path d="M785.819,419.299c-0.729,0.824-1.427,1.286-2.139,1.648c-0.355,0.178-0.713,0.321-1.074,0.428
			c-0.36,0.127-0.732,0.174-1.129,0.137c-0.794-0.082-1.722-0.501-2.506-0.37c-0.789,0.115-1.46,0.594-2.001,1.263
			c-0.536,0.68-1.059,1.278-1.636,1.731c-0.556,0.498-1.059,1.019-1.662,1.387c-1.245,0.714-2.547,1.269-4.547,1.74l-0.327-0.245
			c-0.085-2.102,0.93-3.807,2.255-5.006c0.678-0.592,1.521-0.943,2.357-1.241c0.814-0.339,1.728-0.46,2.657-0.423
			c0.927,0.024,1.752-0.069,2.484-0.461c0.733-0.375,1.348-1.239,2.113-1.699c0.378-0.229,0.789-0.355,1.214-0.389
			c0.423-0.053,0.854-0.053,1.29-0.004c0.87,0.108,1.761,0.367,2.633,1.096L785.819,419.299z"/>
	</g>
	<g>
		<path fill="#231F20" d="M769.596,385.035c0,0-14.765-1.596-18.433,6.945"/>
		<path d="M769.574,385.239c-0.921,0.695-1.763,1.036-2.6,1.276c-0.416,0.116-0.828,0.2-1.241,0.245
			c-0.411,0.065-0.823,0.052-1.243-0.05c-0.839-0.206-1.752-0.767-2.62-0.754c-0.863-0.002-1.674,0.378-2.363,0.98
			c-0.689,0.611-1.331,1.155-1.983,1.559c-0.638,0.455-1.19,0.942-1.801,1.293c-1.257,0.695-2.479,1.24-4.372,2.272l-0.377-0.162
			c-0.528-2.192,0.621-4.387,2.223-5.689c0.815-0.659,1.803-1.009,2.761-1.26c0.944-0.297,1.957-0.327,2.951-0.178
			c0.99,0.136,1.893,0.161,2.752-0.122c0.857-0.261,1.681-1.02,2.583-1.351c0.45-0.164,0.908-0.224,1.368-0.187
			c0.461,0.018,0.921,0.087,1.376,0.208c0.911,0.25,1.815,0.651,2.631,1.512L769.574,385.239z"/>
	</g>
</g>
<g id="Layer_1_1_">
	<g id="boy">
		<path fill="#010101" d="M291.909,255.347c-5.987,0.998-0.593,8.44,3.066,8.958c21.181,2.992,42.23,6.908,60.685,18.369
			c43.006,26.709,65.453,75.853,79.099,122.715c13.937,47.875,21.064,100.841,14.975,150.618
			c-3.543,28.951-13.447,57.814-32.56,80.271c-17.643,20.729-41.43,35.324-67.843,41.954c-30.862,7.748-64.126,7.186-95.035-0.179
			c-31.777-7.569-70.311-21.481-89.149-50.158c-19.084-29.048-13.698-69.613-12.115-102.431
			c1.967-40.782,9.792-81.393,21.251-120.534c4.469-15.269,8.94-30.827,16.184-45.053c6.526-12.822,14.33-24.966,23.051-36.407
			c9.463-12.417,19.862-24.402,31.931-34.374c8.285-6.846,20.511-14.088,29.735-16.169c15.025-3.388,2.26-22.443-7.989-23.353
			c-26.619-2.358-49.103,19.452-65.278,38.108c-17.174,19.805-33.197,42.828-42.928,67.315
			c-14.599,36.743-23.248,77.278-28.957,116.289c-2.857,19.531-4.233,39.012-5.02,58.717c-0.751,18.76-1.496,37.623,0.79,56.313
			c2.283,18.696,7.982,37.098,18.847,52.66c10.951,15.686,26.454,28.303,42.884,37.916c32.155,18.807,69.583,29.31,106.681,31.66
			c59.37,3.764,122.418-15.338,155.035-68.467c29.599-48.217,30.157-106.4,23.575-160.972c-6.53-54.122-21.94-109.348-53.13-154.691
			C392.035,284.22,343.686,246.729,291.909,255.347L291.909,255.347z"/>
		<path fill="#010101" d="M407.624,519.173c7.282-0.125,4.552-7.704,0.593-10.515c2.107,1.497-2.794-1.754-1.576-1.13
			c-0.693-0.355-1.387-0.701-2.081-1.053c-1.593-0.802-3.179-1.608-4.772-2.407c-2.504-1.253-4.972-2.586-7.49-3.807
			c-4.509-2.185-11.702-2.26-12.055,4.4c-0.318,5.954,5.482,11.333,11.142,11.842c3.488,0.315,4.218,0.533,7.375,1.199
			C401.677,518.314,404.638,519.224,407.624,519.173L407.624,519.173z"/>
		<path fill="#010101" d="M385.471,512.58c-11.075,9.754-21.508,17.765-36.452,20.871c-17.515,3.64-35.629,3.105-53.275,0.637
			c-18.313-2.567-36.442-7.097-53.739-13.661c-6.86-2.601-13.598-5.477-20.031-9.024c-6.606-3.642-8.865-5.126-13.243-9.195
			c1.45,4.155,2.899,8.313,4.347,12.47c0.751-2.528,0.671-6.074,2.068-8.346c5.752-9.37-6.543-22.654-16.518-17.721
			c-4.201,2.077-9.798,4.74-11.167,9.664c-1.383,4.993,1.022,9.421,4.559,12.786c2.863,2.046,2.863,2.046,0,0
			c1.298,1.147,2.765,1.991,4.408,2.534c1.241,0.29,1.78,0.642,3.44,0.775c5.181,0.421,9.152-4.113,13.347-6.504
			c-5.926-5.201-11.857-10.406-17.787-15.608c-1.92,3.613-1.848,6.969-2.736,10.803c-1.107,4.767,0.568,9.276,4.347,12.471
			c12.934,10.936,29.501,17.899,45.41,23.201c19.412,6.47,39.76,10.898,60.167,12.619c18.814,1.587,39.082,1.675,57.153-4.535
			c14.25-4.897,30.393-14.06,31.611-30.841C391.584,513.179,387.723,510.598,385.471,512.58z"/>
		<path fill="#010101" d="M455.517,436.684c-0.053,2.059,4.262,4.981,4.906,2.169c4.03-17.564,31.522-12.458,41.9-5.321
			c9.82,6.755,12.67,19.137,9.838,30.329c-2.885,11.414-9.207,23.295-19.232,30.019c-7.565,5.073-16.549,7.377-22.464,0.917
			c-1.539,3.863-3.078,7.726-4.617,11.588c4.046,0.454,11.958-0.069,10.635-6.244c-1.302-6.071-8.729-9.406-14.127-10.054
			c-6.729-0.808-8.495,7.3-4.617,11.588c11.97,13.244,29.832,18.273,45.364,7.537c14.094-9.741,24.136-26.196,25.725-43.364
			c1.796-19.353-8.161-38.161-26.053-46.52c-9.552-4.465-21.776-7.367-32.154-3.866c-4.417,1.49-9.208,3.328-11.775,7.49
			C455.821,427.855,455.659,431.15,455.517,436.684L455.517,436.684z"/>
		<path fill="#010101" d="M146.234,431.781c0.728,1.919,4.846,2.563,4.146-0.191c-2.674-10.495-7.172-18.196-16.38-24.519
			c-9.072-6.229-20.942-9.625-31.948-7.889c-20.652,3.254-41.317,23.357-43.208,44.565c-1.801,20.185,10.068,38.8,25.745,50.539
			c8.744,6.546,19.058,11.697,29.812,13.898c7.89,1.615,25.285,5.797,29.727-3.177c1.732-3.497-1.798-7.513-4.454-9.199
			c-7.207-4.576-17.848-1.431-26.105-3.453c-7.374-1.808-14.317-4.606-20.577-8.956c-10.123-7.033-19.042-18.934-18.69-31.796
			c0.455-16.537,13.778-31.65,28.851-37.571C118.539,407.988,140.086,415.589,146.234,431.781L146.234,431.781z"/>
		<path fill="#010101" d="M119.985,448.01c1.608,0.099,2.66-1.107,2.355-2.687c-1.138-5.925-9.691-10.545-15.395-9.394
			c-5.17,1.042-8.665,5.302-9.937,10.281c-1.564,6.122-1.396,12.352,0.914,18.273c2.409,6.178,9.022,14.095,16.265,14.054
			c9.575-0.054,6.619-10.733,0.801-14.277c-1.337-0.816-2.784-1.166-4.19-1.765c0.467,0.199,2.192,1.655,0.932,0.368
			c1.788,1.825-0.894-1.822-0.052-0.168c-0.362-0.711-0.723-1.427-0.997-2.18c-0.664-1.816-1.085-5.731-0.668-8.553
			c0.309-2.082,1.296-4.951,2.619-5.624C114.558,445.359,117.545,447.86,119.985,448.01L119.985,448.01z"/>
		<path fill="#010101" d="M483.312,450.458c3.803,2.77,8.504,4.598,9.197,9.883c0.626,4.767-2.449,7.657-6.441,9.544
			c-8.632,4.075,3.813,19.52,10.742,14.18c7.962-6.136,11.514-15.886,7.013-25.424c-3.249-6.889-11.588-15.894-20.137-14.084
			C480.729,445.182,481.345,449.024,483.312,450.458z"/>
		<path fill="#010101" d="M342.829,410.497c-1.84-3.834-10.825-9.246-13.003-2.647c-4.945,14.978,4.063,33.134-5.772,47.172
			c6.825,3.058,13.651,6.122,20.476,9.18c-4.376-13.236-10.431-34.608,2.194-45.108c-2.562,0.915-5.124,1.827-7.687,2.739
			c-0.532-0.151-1.063-0.302-1.593-0.451c-3.724-5.982-7.445-11.96-11.167-17.941c-2.149,9.757-3.115,22.295-0.314,31.96
			c1.646,5.685,5.731,10.365,11.481,12.203c4.471,1.43,10.615,0.577,12.377-4.514c3.224-9.321,2.22-22.361,0.325-31.958
			c-1.395-7.054-10.053-14.647-17.621-12.704c4.634-1.189-3.831,0.97-4.048,1.088c-1.158,0.867-2.272,1.785-3.347,2.75
			c-2.112,2.184-3.896,4.684-5.247,7.418c-2.68,5.411-4.023,11.741-4.141,17.775c-0.25,12.986,2.4,25.867,7.669,37.728
			c3.37,7.589,15.938,13.418,20.831,4.243c4.98-9.341,5.458-19.986,4.643-30.332C348.143,429.748,346.93,419.037,342.829,410.497
			L342.829,410.497z"/>
		<path fill="#010101" d="M283.148,406.95c-2.483-1.869-7.584-2.97-7.942,1.554c-0.679,8.581,2.112,17.435,1.86,26.161
			c-0.234,8.109-0.545,18.908-5.197,25.948c6.886,2.261,13.773,4.519,20.66,6.778c-3.403-8.293-6.004-16.925-7.047-25.865
			c-0.793-6.837-1.43-16.802,4.373-21.695c-7.606-2.494-15.21-4.988-22.816-7.484c1.237,2.854,2.125,5.807,3.68,8.499
			c4.734,8.209,20.673,15.923,23.225,1.883c0.924-5.106-1.172-10.21-3.336-14.777c-3.053-6.436-16.705-16.213-22.818-7.485
			c-14.063,20.086-7.976,50.645,3.399,70.9c3.62,6.449,17.694,15.656,22.037,4.49c4.587-11.794,4.562-24.95,2.927-37.337
			C294.753,427.93,292.261,413.806,283.148,406.95L283.148,406.95z"/>
		<path fill="#010101" d="M399.261,682.867c-1.553-2.915-8.542-4.838-7.325,0.341c10.402,44.315,7.793,92.783-5.179,136.204
			c3.146-1.758,6.294-3.514,9.442-5.27c-40.313-2.871-79.773,9.907-120,9.375c-20.32-0.27-40.538-2.189-60.712-4.534
			c-10.085-1.175-20.162-2.42-30.254-3.542c-10.23-1.138-20.686-2.874-30.978-2.114c5.846,7.659,11.69,15.319,17.536,22.979
			c2.242-3.16,3.322-5.91,3.394-9.776c0.129-6.99-5.959-12.081-12.382-13.158c-4.63-0.776-7.051-0.593-11.482,0.973
			c-5.605,1.986-5.133,10.033-3.169,14.21c2.058,4.373,6.639,9.059,11.538,10.123c10.25,2.23,20.89,2.557,31.316,3.704
			c10.085,1.108,20.158,2.335,30.24,3.474c20.145,2.278,40.39,4.355,60.685,4.421c40.26,0.13,79.257-11.427,119.467-11.865
			c5.114-0.055,9.714-2.37,10.027-8.087C414.069,781.89,423.12,727.623,399.261,682.867L399.261,682.867z"/>
		<path fill="#010101" d="M179.512,666.044c-0.505-5.179-8.613-8.677-11.521-3.714c-4.641,7.919-6.864,22.195-9.111,32.454
			c-3.896,17.798-7.643,35.635-10.922,53.559c-3.042,16.635-6.003,33.387-7.476,50.248c-1.113,12.772-3.44,30.983,10.202,38.15
			c6.318,3.318,15.849,2.86,16.554-6.04c0.105-1.34-0.078-3.029-0.451-4.417c-0.377-1.408-0.911-2.768-1.409-4.137
			c0.8,2.445,1,3.015,0.605,1.711c-0.338-1.237-1.2-7.096-0.982-3.865c-0.409-6.052-0.311-12.133-0.048-18.19
			c0.747-17.109,2.556-34.175,4.603-51.171c2.094-17.371,4.417-34.713,6.967-52.022C178.076,688.067,180.55,676.69,179.512,666.044
			L179.512,666.044z"/>
		<path fill="#010101" d="M391.407,829.947c-2.12-4.047-11.396-6.594-9.962,0.463c4.344,21.36,2.052,41.297,0.509,62.76
			c2.448-1.974,4.897-3.949,7.347-5.923c-34.011-5.777-67.849,3.725-101.905,0.808c4.014,4.269,8.03,8.536,12.045,12.805
			c1.568-13.215-2.369-26.364-11.415-36.213c-3.313-3.606-9.356-7.955-14.478-4.81c-13.73,8.426-30.685,18.485-35.173,35.119
			c3.531-1.29,7.062-2.578,10.593-3.866c-15.39-3.17-30.637-2.337-46.202-1.006c-13.222,1.131-27.391,3.091-40.357-0.681
			c3.332,3.541,6.662,7.085,9.995,10.626c-0.783-9.146-0.863-23.827,0.573-34.878c0.702-5.397,1.644-10.936,4.054-15.876
			c1.577-3.236,4.703-6.239,6.251-7.2c7.224-4.48,0.764-15.323-5.754-16.73c-33.374-7.212-27.9,53.769-26.174,72.977
			c0.427,4.752,5.691,9.392,9.997,10.626c28.626,8.209,57.904-4.44,86.575,1.352c3.661,0.74,9.336,0.883,10.593-3.864
			c3.591-13.541,17.563-21.609,28.612-28.67c-4.132-0.856-8.264-1.717-12.398-2.578c4.876,5.165,5.435,12.594,4.729,19.267
			c-0.672,6.334,6.17,12.361,12.045,12.805c33.998,2.555,67.686-7.438,101.604-2.228c3.405,0.522,7.566-2.161,7.345-5.924
			C399.135,876.756,402.136,850.437,391.407,829.947L391.407,829.947z"/>
		<path fill="#010101" d="M332.485,704.945c-0.367-1.145-3.479-3.645-4.005-1.29c-2.772,12.45-10.866,17.002-22.56,20
			c-9.554,2.45-22.965,4.071-32.461,0.74c-3.162-1.107,0.172,0.807-0.611-0.183c-0.688-0.818-1.326-1.679-1.913-2.575
			c-1.235-1.992-2.31-4.396-2.934-6.656c-1.227-4.442-0.441-9.391-1.43-12.955c-2.896-10.426-18.43-12.599-18.197,0.438
			c0.197,11.006,6.125,24.388,14.475,31.616c8.891,7.696,21.222,7.71,32.373,6.762c10.834-0.923,21.59-3.484,30.554-9.927
			C334.877,724.375,335.717,714.999,332.485,704.945L332.485,704.945z"/>
		<path fill="#010101" d="M397.97,687.717c7.725,6.517,16.683,11.252,23.955,18.438c7.25,7.164,12.824,15.343,17.341,24.44
			c0.174-2.733,0.346-5.466,0.518-8.198c-6.617,5.922-16.811,7.968-24.364,12.57c-8.036,4.9-14.663,14.936-4.485,22.282
			c2.557,1.845,7.906,4.465,10.428,0.844c7.969-11.434,23.735-12.976,33.649-22.33c2.087-1.968,1.75-5.916,0.519-8.198
			c-6.307-11.691-15.106-22.352-25.306-30.869c-8.312-6.939-19.421-15.587-30.794-15.785
			C395.223,680.836,395.376,685.532,397.97,687.717z"/>
		<path fill="#010101" d="M169.366,656.093c-4.631-4.318-10.689,6.283-13.349,8.828c-6.527,6.248-13.914,11.541-21.329,16.675
			c-14.977,10.362-31.167,20.375-43.084,34.381c-5.759,6.769,3.608,15.249,9.978,16.21c9.611,1.448,18.471,4.272,27.064,8.873
			c4.324,2.318,8.568,4.765,12.735,7.357c4.231,2.631,7.943,5.618,13.144,5.552c5.283-0.07,8.532-4.592,5.873-9.607
			c-5.348-10.081-19.952-16.595-30.041-21.289c-10.301-4.795-21.243-8.78-32.708-9.251c3.692,4.793,7.387,9.584,11.08,14.378
			c8.628-15.493,26.695-26.093,39.939-37.25C154.83,685.758,179.879,665.892,169.366,656.093L169.366,656.093z"/>
		<path fill="#010101" d="M358.559,896.419c-1.291-2.008-6.377-2.403-5.267,0.996c8.406,25.734,9.181,53.449-2.529,78.243
			c-2.708,5.737,5.256,11.75,10.335,11.014c3.963-0.572,8.338-0.84,12.192,0.53c1.488,0.53,2.599,2.224,1.952,0.416
			c-0.515-0.606-0.808-0.167-0.881,1.313c-3.884,4.954-8.366,8.053-14.689,8.738c-5.554,0.602-23.842-0.063-24.019-8.67
			c-0.285-13.747,6.13-26.56,7.157-40.15c1.245-16.479,1.211-34.025-5.095-49.506c-4.838,0.901-9.674,1.805-14.512,2.703
			c1.04,2.185,2.349,3.961,3.699,5.946c2.306,3.388,9.485,6.033,11.527,0.935c1.362-3.402,0.83-6.342-0.714-9.584
			c-3.947-8.29-19.071-8.347-14.513,2.703c8.963,21.73,2.671,46.06-1.642,67.964c-1.579,8.012-2.867,16.67,0.986,24.256
			c3.736,7.362,11.459,12.488,19.052,15.185c15.6,5.538,36.911,5.078,46.355-10.813c4.726-7.952,0.9-16.419-6.227-21.357
			c-7.852-5.439-18.07-6.068-27.236-4.617c3.446,3.671,6.891,7.343,10.336,11.013C371.259,955.339,375.156,922.216,358.559,896.419
			L358.559,896.419z"/>
		<path fill="#010101" d="M218.021,905.492c-0.422-1.936-5.069-5.173-5.891-1.893c-3.218,12.828-2.982,26.901-4.171,40.055
			c-1.268,14.009-3.833,27.449-6.515,41.203c-0.898,4.605,4.941,9.445,9.065,9.632c1.598,0.073,9.232,0.171,7.847,3.026
			c-2.104,4.341-7.044,6.476-11.635,6.714c-9.324,0.481-19.475-3.069-27.257-8.04c1.699,3.511,3.399,7.022,5.1,10.533
			c4.756-21.399,11.044-41.9,11.237-64c0.057-6.541,0.114-13.083,0.17-19.623c0.034-4.042,0.782-9.064-0.39-12.997
			c-1.28-4.304-4.867-7.993-9.539-8.372c-3.939-0.318-7.444,3.001-6.227,7.094c0.189,0.636,0.379,1.275,0.569,1.911
			c1.416,4.756,11.588,12.632,14.438,4.651c0.184-0.517,0.368-1.034,0.555-1.551c2.869-8.038-12.157-17.701-15.351-8.749
			c-1.377,3.855-0.63,8.703-0.596,12.709c0.054,6.219,0.107,12.436,0.161,18.654c0.185,21.377-5.536,41.006-10.014,61.728
			c-0.973,4.498,1.308,8.134,5.1,10.531c13.945,8.813,37.247,16.036,51.839,5.255c6.957-5.137,9.668-13.672,5.063-21.355
			c-5.082-8.471-14.613-12.277-24.164-12.571c3.021,3.211,6.043,6.421,9.064,9.633c1.838-13.878,2.527-28.274,3.159-42.279
			C220.254,933.719,220.953,918.935,218.021,905.492L218.021,905.492z"/>
		<path fill="#010101" d="M442.323,742.125c-3.251,3.074,0.146,10.36,1.392,13.823c2.275,6.319,5.12,12.374,8.1,18.389
			c3.198,6.459,6.422,12.898,9.477,19.427c2.341,4.999,7.282,12.411,7.581,17.997c0.379,7.137,13.259,14.673,14.759,4.73
			c1.092-7.235-4.389-13.365-11.382-14.462c-7.391-1.159-3.718,10.432-2.607,13.33c4.051-1.408,8.099-2.816,12.148-4.225
			c-3.601-5.146-5.867-11.904-8.88-17.455c-3.481-6.412-7.086-12.752-10.47-19.216c-3.18-6.079-6.309-12.204-9.152-18.449
			c-1.962-4.313-3.282-10.62-7.166-13.582C444.999,741.577,443.488,741.025,442.323,742.125z"/>
		<path fill="#010101" d="M488.23,833.94c1.976,0.771-2.306-1.51,1.214,0.682c0.564,0.392,1.175,0.697,1.828,0.918
			c1.01,0.386,2.03,0.744,3.027,1.169c2.261,0.959,4.514,1.953,6.71,3.053c1.26,0.631,2.519,1.271,3.714,2.017
			c0.434,0.265,0.863,0.538,1.285,0.824c-0.684-0.496-0.694-0.484-0.032,0.032c0.684,0.632,0.6,0.513-0.247-0.357
			c0.496,0.688,1.061,1.318,1.697,1.889c2.03,1.479-2.845-3.517-1.654-5.313c-2.418,3.646,1.359,9.04,5.561,9.031
			c4.283-0.009,7.765-2.462,6.838-7.193c-0.886-4.535-5.435-7.673-9.41-9.462c-6.811-3.063-15.421-6.453-22.622-3.383
			C482.921,829.218,486.473,833.256,488.23,833.94z"/>
		<path fill="#010101" d="M477.258,840.742c3.451,3.157,6.829,6.747,9.366,10.699c2.475,3.856,0.594,6.082,0.645,10.214
			c0.047,3.668,3.704,7.206,7.478,6.562c9.143-1.564,6.501-12.66,3.021-18.21c-4.136-6.597-10.454-11.16-17.345-14.54
			C476.219,833.404,474.053,837.812,477.258,840.742z"/>
		<path fill="#010101" d="M463.356,844.809c-0.52,4.604,0.604,9.919,0.692,14.624c0.075,4.111-1.446,8.756-0.637,12.715
			c0.764,3.737,5.71,7.574,9.509,5.524c4.83-2.604,4.188-11.187,3.263-15.788c-1.15-5.74-2.613-12.651-6.202-17.398
			C468.381,842.374,463.781,841.052,463.356,844.809z"/>
		<path fill="#010101" d="M459.457,839.496c1.911-2.229-1.142-6.078-3.669-5.966c-10.752,0.479-18.389,12.792-15.358,22.897
			c1.203,4.01,8.07,8.993,10.797,3.479c1.872-3.783,1.536-8.045,3.01-11.967C455.504,844.564,457.128,842.215,459.457,839.496
			L459.457,839.496z"/>
		<path fill="#010101" d="M432.901,762.817c-1.646-2.672-6.263-1.826-4.848,1.687c3.764,9.332,8.354,18.294,12.409,27.501
			c3.548,8.06,9.056,19.169,7.512,28.251c-1.229,7.224,12.511,13.463,14.036,4.5c0.273-1.616-0.058-3.368-0.359-4.952
			c-0.829-4.364-11.612-11.497-13.141-4.233c-0.468,2.218-0.745,4.115-0.393,6.376c1.161,7.438,15.257,10.782,13.75,1.115
			C458.344,800.501,444.594,781.779,432.901,762.817L432.901,762.817z"/>
		<path fill="#010101" d="M131.616,751.269c0.813-1.475-1.883-3.351-3.056-2.185c-8.156,8.078-15.92,16.246-23.174,25.161
			c-3.909,4.803-7.793,9.633-11.43,14.646c-2.647,3.646-5.738,10.592-9.916,12.632c-1.52,0.742-2.467,2.485-2.515,4.138
			c-0.336,11.569-0.515,23.139-0.674,34.713c5.422,1.74,10.846,3.479,16.266,5.215c-0.461-6.321-1.944-12.151-6.777-16.514
			c-1.637-1.479-4.273-2.411-6.36-1.323c-5.831,3.041-3.498,9.229-2.965,14.583c0.719,7.239,16.232,12.949,16.101,3.253
			c-0.119-8.893-0.18-17.786-0.434-26.676c-0.136-4.828-0.982-9.956,1.421-14.383c2.31-4.251,4.776-8.412,7.394-12.483
			C114.263,778.418,123.787,765.483,131.616,751.269L131.616,751.269z"/>
		<path fill="#010101" d="M67.403,821.33c-2.307,6.549-6.061,12.612-10.59,17.864c-4.1,4.752-9.312,7.72-13.611,12.061
			c-4.653,4.702,3.693,12.596,8.719,11.427c7.042-1.635,13.144-9.678,16.705-15.535c4.439-7.302,7.462-15.028,5.577-23.629
			C73.677,821.123,68.684,817.695,67.403,821.33z"/>
		<path fill="#010101" d="M51.498,816.832c-6.04,3.536-11.535,8.706-16.453,13.646c-2.715,2.729-5.485,5.405-8.182,8.151
			c-2.916,2.968-4.069,4.29-3.416,8.521c0.413,2.683,3.227,4.812,5.796,5.086c7.23,0.773,11.673-8.094,15.493-13.254
			c4.043-5.465,8.278-10.666,12.545-15.948C59.738,819.998,54.676,814.975,51.498,816.832z"/>
		<path fill="#010101" d="M47.594,804.012c-4.628,0.464-10.032,2.82-13.69,5.687c-3.979,3.115-8.95,6.687-9.203,12.151
			c-0.216,4.624,5.25,8.647,9.519,6.845c4.029-1.697,6.747-6.899,9.832-9.947c2.82-2.785,6.084-4.938,9.01-7.564
			C56.405,808.18,50.437,803.731,47.594,804.012z"/>
		<path fill="#010101" d="M125.303,733.775c1.199-2.821-3.221-5.865-5.462-3.898c-13.804,12.113-27.739,24.141-41.224,36.616
			c-6.682,6.184-13.659,12.472-19.095,19.822c-4.526,6.116-7.965,11.307-2.95,18.405c2.396,3.396,9.379,6.019,11.525,0.934
			c-0.689,1.63,1.157-1.598,1.479-2.246c0.471-0.953,0.166-2.527,0.554-3.33c1.405-2.89,3.25-5.509,5.21-8.052
			c5.714-7.414,12.043-14.344,18.457-21.154c6.714-7.133,13.612-14.095,20.115-21.425
			C118.214,744.599,122.737,739.808,125.303,733.775L125.303,733.775z"/>
		<path fill="#010101" d="M315.094,268.431c3.801,4.475,9.016,7.368,12.832,11.859c3.268,3.844,6.353,8.03,8.498,12.623
			c4.673,9.999,4.447,20.297,6.328,30.929c1.329,7.526,13.91,14.643,18.36,5.917c7.072-13.86-0.404-32.642-8.079-44.741
			c-6.499-10.239-21.177-25.522-34.505-25.202C313.711,259.931,311.978,264.764,315.094,268.431z"/>
		<path fill="#010101" d="M295.806,274.365c-7.624-1.949-6.578,6.571-2.013,9.713c7.401,5.093,11.893,16.199,13.811,24.585
			c2.233,9.756,1.352,21.091,6.232,29.988c2.597,4.738,9.883,9.761,14.733,4.832c9.348-9.499,2.215-30.593-2.274-40.967
			C320.355,288.789,310.483,278.113,295.806,274.365L295.806,274.365z"/>
		<path fill="#010101" d="M270.743,295.717c1.276,11.174-0.813,22.298,0.642,33.33c1.229,9.344,20.077,17.206,21.114,4.266
			c1.004-12.555-4.956-26.541-9.2-38.181C281.074,289.026,269.781,287.304,270.743,295.717z"/>
	</g>
</g>
</svg>
