<?xml version="1.0" encoding="utf-8"?>
<!-- Generator: Adobe Illustrator 23.0.1, SVG Export Plug-In . SVG Version: 6.00 Build 0)  -->
<svg version="1.1" id="Layer_3" xmlns="http://www.w3.org/2000/svg" xmlns:xlink="http://www.w3.org/1999/xlink" x="0px" y="0px"
	 viewBox="0 0 566.9 566.9" enable-background="new 0 0 566.9 566.9" xml:space="preserve">
<path d="M556.8,162.1c-7.9-3.4-12.3-9.9-18.9-14.9c-7.2-5.4-12.2-12.6-14.9-21.3c-2.2-7.2-3.7-13.8-8.6-19.8c-3.7-4.6-8.5-8-14-10.2
	c-0.5-0.9-1.1-1.5-1.7-1.6c-4.1-1.1-8.2-6.1-7.7-10.5c1.1-2,2-4,2.7-5.7c1.5-3.9-8.6-9.8-9.8-6.7c-1.5,4-3.6,7.8-6.4,11
	c-1.3,1.4-2.7,2.9-4.4,3.9c-2,1.2-1.7,1-3.4,0.3c-1.7-0.7-3.2-2.7-4.8-3.7c-1.7-1.1-3.5-2.1-5.4-2.8c-3.1-1.1-6.5-1.6-9.7-1
	c-3.5,0.6-6.1,2.5-9,4.2c-4.2,2.6-8.8,4.5-13.4,6.3c-8.7,3.3-19.7,7.4-29.1,5.9c-2.5-0.4-3.1,1.2-2.2,3.2c0.3,0.7,0.8,1.3,1.5,1.9
	c0.2,1.3,0.7,2.6,1.3,3.4c1.2,1.5,2.6,2.8,4.1,3.9c-0.3,0-0.7,0.1-1,0.1c-3.7,0.5-7.3,1.4-10.9,2.5c-8.5,2.6-16.9,5.6-25.2,8.8
	c-0.4,0.2-0.8,0.6-1,1.2c-1,0.2-1.9,0.6-2.7,1.1c-1.7,1.1-1.6,2.5,0.4,3.1c0.5,0.1,1.1,0.3,1.6,0.4c0.1,0.8,0.4,1.3,1,1.1
	c0.5-0.2,1-0.4,1.5-0.6c0.9,0.2,1.9,0.3,2.8,0.4c-10.4,7-20,16.7-32.4,17.5c-1.3-0.1-2.5-0.3-3.8-0.4c-3-0.3,0.2,9.6,3.4,9.9
	c10.4,1,20.6,2.8,30.6,5.4c-8.8,10.4-22.9,15.3-35.8,18.6c-16.1,4.1-33.6,7-50.2,6.4c-29.5-1-56.3-23.4-86.4-16.8
	c-14.5,3.2-26.8,11.9-37.3,22.1c-12-0.2-24.1,0.5-35.3,5.3c-12.1,5.2-21.8,14.3-29.2,25.1c-8,11.7-13.4,24.7-19.4,37.4
	c-3.1,6.5-6.1,13.2-10.2,19.1c-4.5,6.6-10.4,8.4-18,10.1c-2.7,0.6-5.6,2-7.4,4.1c-0.8,1-2.5,3.6,0.2,3.6c8.1-0.2,15.8-2.4,22.9-6.2
	c-5.8,10.6-14.4,19.8-25.9,23.9c-1.3,0.5-11.1,6.4-5.9,7.3c4.4,0.8,8.7,0.8,13,0.1c-3,7.9-6,15.9-9.1,23.7
	c-2.3,5.9-5.9,18.4-14.3,15.4c-1.2-0.4-2.5-0.2-3.8,0.3c-0.3-0.2-3.2,1.4-3.1,1.6c-0.3,0.2-0.6,0.4-0.8,0.6c-0.7,0.5-4.7,4-2.4,4.9
	c2.9,1,5.8,1.1,8.7,0.7c13.1,8,25.6-3.7,34-16.5c-0.7,2.2-1.5,4.4-2.4,6.5c-0.9,2,4,9.6,5.9,7.8c11.6-11.3,25.1-20.1,38-29.9
	c12-9.2,23.7-19.2,29.7-33.4c10.4-24.5,12.6-52.4,26.7-75.1c0.5,5.2,1,10.4,0.7,15.7c-0.5,10-2.3,19.9-5,29.5
	c-2.5,9.2-5.8,18.2-9.5,26.9c-2.9,6.7-6.3,13.2-11.5,18.3c-0.9-0.7-1.9-0.9-2.5,0.5c-3.5,7.6-6.7,15.2-8.2,23.5
	c-1.6,8.7-2.6,17.5-3.9,26.2c-1.3,9.1-2.7,18.2-4.1,27.2c-0.7,4.5-1.4,9.1-2.1,13.6c-0.4,2.4-0.8,4.8-1.2,7.2
	c-0.1,0.6-0.6,3.1-0.6,4.2c-0.1,0.1-0.3,0.3-0.4,0.5c-0.1,0.1-0.1,0.2-0.2,0.3c-0.4,0.6-0.6,1.3-0.7,2.2c-0.6,0.8-0.7,1.6,0,1.9
	c0.2,1.9,0.8,3.8,1.7,4.8c0.1,0.1,0.2,0.2,0.3,0.3c0.7,0.8,1.8,2,2.9,1c0.4-0.4,0.7-0.9,1-1.3c1.1,1.9,1.8,4,2,5.5
	c0.5,4-0.3,7.8,1.5,11.6c0.7,1.4,3.4,0.7,5.5-0.7c1,0.7,2.1,1.2,2.8,1.2c5.5-0.3,10.7,0.2,16,1.7c3.6,1,6.7,2.3,10.4,1.5
	c2.5-0.5-2.6-4.5-4.4-4.2c-4.4,0.9-9.5-1.8-13.9-2.6c-2.7-0.5-5.5-0.7-8.2-0.7c0.1-0.4,0.1-0.8-0.1-1.1c-2.2-4.7-0.3-10.1-2.4-14.9
	c-1.4-3.2-3.7-6.6-7.1-7.7c0.5-3.2,1-6.5,1.6-9.7c1.5-9.4,2.9-18.8,4.3-28.2c1.4-9.3,2.7-18.7,4-28s4.1-17.5,8.1-26.1
	c0.2-0.5,0.4-1,0.5-1.6c6.4-4.8,10.4-11.7,13.7-18.9c4.2-9,7.6-18.5,10.3-28.1s4.7-19.5,5.4-29.5c0.3-4.4,0.4-8.8,0.1-13.2
	c-0.3-5.5-1.4-10.9-1.4-16.4c0.2-0.3,0.5-0.6,0.7-0.9c2-2.5-4.2-9.9-5.6-8.2c-19.1,23.3-21.8,53.8-32.1,81.1
	c-5.8,15.4-17.5,25.9-30.3,35.7c-9.1,6.9-18.5,13.4-27.3,20.5c0.6-4.4,0.6-8.9,0.3-13.4c-0.1-1.4-5-9.8-6.4-6.6
	c-3.7,8.7-8.6,17-15.1,24c-0.1,0.1-0.2,0.2-0.3,0.3c3-4.9,5-10.3,7.1-15.7c2.8-7.4,5.7-14.8,8.5-22.2c0.7-1.8-0.7-2.4-2.4-2
	c-2,0.5-3.9,0.7-5.9,0.9c13.3-8.3,23.7-20.6,29.8-35.3c0.9-2.2-0.7-2.2-2.9-1.6c8.1-11.1,13.1-24.6,19-37
	c5.7-11.9,12.1-24.8,22.6-33.3c11-8.9,26.7-8,40-7.6c1.7,0.1,3.6-0.6,5.2-1.5c1.7,0.7,3.4,1,4.3,0.2c10.5-10.6,23.4-20.3,38.4-23.4
	c15.3-3.1,29.9,2.3,44.1,7.5s28.3,9.5,43.6,9.5c16.4,0.1,33.3-2.6,49.1-6.7c14.8-3.9,30.6-9.4,39.4-22.7c0.9-1.4-3.2-4.3-6.1-4.8
	c-0.8-2.2-2.1-4.3-3.5-4.7c-4.5-1.3-9.1-2.4-13.7-3.4c10-5.4,18.6-14.6,28.9-18.7c1-0.4,0.9-1.5,0.4-2.6c0.4-0.3,0.6-0.6,0.8-1
	c0.5-1.6-1.6-2-3.1-2.1c-0.7-0.6-1.5-1.1-2.1-1.2c4.6-1.6,9.3-3.1,14-4.4c6.9-1.8,14.2-1.3,19.5-5.9c0.8-0.2,1.7-0.4,2.5-0.7
	c1.5-0.6,1.2-4,0.2-6.4c0-0.1,0-0.2,0-0.3c5-0.9,10-2.4,14.6-3.9c4.7-1.5,9.4-3.3,13.9-5.5c4.1-2,8-5.7,12.5-6.5
	c5-0.8,7.4,2.8,11.3,5.2c3,1.9,6.5,3.5,10.1,2.9s6.6-3,9.1-6.1c0.4,1.1,0.9,2.2,1.4,3.3c0.7,1.5,1.5,3.1,2.4,4.6
	c-1.5,1-1.9,2.3,0.5,3.1c0.8,0.3,1.6,0.6,2.4,1c1.7,1.9,3.7,3.3,6.2,4c3,2.6,5.6,5.8,7.5,9.2c3.7,6.6,4.3,14.2,7.7,20.9
	c1.8,3.5,3.6,7.2,6.2,10.1c2.6,3,6,4.8,9,7.4c5.9,5.2,10.1,10.5,17.5,13.8c0.1,0,0.2,0.1,0.4,0.1c0.5,1.2,1.3,2.7,1.3,3.4
	c0,1.5-1.5,2.8-2.4,3.8c-1,1.2-2.5,4-3.7,4.8c-1.5,1-7,0.4-8.8,0.5c-3.9,0.1-7.4,0.8-8.5-3.7c-0.5-2.1-0.5-4.2-1.6-6.1
	c-1.1-2-3.1-3.1-4.8-4.7c-3.8-3.5-6.5-6.1-11.6-7.5c-5.6-1.5-11.6-2.2-17.5-2c-3,0.1-6.5,1.1-9.4,0.9c-2.5-0.2-4.6-2.1-6.8-3.2
	c-3.4-1.6-7.7-3.6-11.5-2.1c-2.9,1.1-4.8,4.7-6.4,8.1c-2-0.4-3.9-0.2-4.3,1c-3.4,10.9-6.7,21.8-10.2,32.6
	c-1.7,5.2-3.2,10.1-6.4,14.7c-3,4.3-5.7,8.7-8.1,13.3c-4.9,9.3-6.6,18.6-7.7,29c-1.2,11.1-3.2,21.6-10.6,30.3
	c-2,2.3,6.2,5.5,8.3,3.7c6.5,5.3,13.1,10.6,20.7,14.3c7.7,3.7,17.8,6.3,21.8,14.4c-2.1,20.4-0.4,41.1,0.2,61.6
	c0.2,5.2,0.3,9.4-1.7,14.3c-1.8,4.6-4.1,8.6-8.1,11.5s-8.5,4.8-12.8,7.1c0.6-6,1.6-11.9,3-17.7c0-0.1,0-0.2,0-0.3
	c1.7,1.4,3.6,2.5,5.7,2.9c5,1,7.7-3.4,8.8-7.8c1.7-6.8,0.4-14.2-0.4-21c-0.9-7.4-1.6-14.8-2.8-22.2c-1.9-11.8-8.8-20.3-20.2-24.2
	c-12.1-4.2-26-5.8-38.7-3.5c-0.7-0.1-1.3-0.1-2,0.1c-6.3,1.8-13.6-1-19.8-2.3c-7-1.5-11.8-3.7-17.3-8.4c-1.2-1-4.9-3.3-6.5-2
	c-1.7,1.4,0.4,3.5,1.6,4.5c2.3,2,4.7,3.7,7,5.2c-20.3,5.2-40.2,4-60.4-2.6c-10.4-3.4-20.4-7.6-30.5-11.7c-4.8-2-9.8-3.7-14-6.8
	c-2.1-1.5-3.9-3.3-5.7-5.1c-0.3-2.6-0.7-5.2-1.4-7.9c0-0.1,0-0.2-0.1-0.2c4.7-4.4,8.9-9.3,11.1-15.1c1-2.6-6-6.3-6.8-4.2
	c-2.4,6.1-6.8,11.2-11.8,15.7c-1.6-0.1-2.8,0.2-2.6,1.1c0.1,0.3,0.1,0.6,0.2,0.9c-3.8,3.2-7.7,6.2-11.2,9.2
	c-4.3,3.7-8.6,7.5-13.5,10.3c-5.8,3.2-12.4,4.8-18.8,6.4c-0.6,0.2-0.9,0.4-1,0.8c-8,3.1-15.3,8-21.3,14.2c-4.8,5-9,9.2-14.8,13.1
	c-5.9,3.9-10.2,9-14.1,14.9c-15.2,23.1-22.7,51.3-20.3,78.9c0.1,1,0.8,1.5,1.7,1.6c2.6,3.2,5.6,5.4,8.8,8.1
	c3.6,2.9,4.2,8.2,7.4,11.7c1.4,1.5,7.5,0.6,6.4-0.6c-1.4-1.6-2.6-3.2-3.6-5.2c-1-2.1-1.4-4.3-3.1-6c-1.3-1.4-3-2.3-4.5-3.4
	c-2.3-1.9-4.3-4-6-6.4l0,0c1.7-1.2,3.1-2.7,2.9-4.1c-2-24.1,3.5-48.7,15.6-69.7c2.9-5,6.1-10.7,10.7-14.3c4.5-3.6,9.5-6.1,13.7-10.3
	c3.9-3.9,7.2-8.3,11.6-11.6c4.7-3.4,9.9-5.5,15.6-6.3c0.6,8.6,6,15.9,8.4,24.2c3.5,11.9-4.4,22-3.2,33.7c0.5,5.3,3.6,9.8,6.3,14.3
	c3.5,5.9,7,11.8,10.4,17.7c6,10.2,11.5,21.9,19.9,30.5c0,0.6,0.3,1.1,1.2,1.2c0.1,0.1,0.1,0.1,0.2,0.2c0.4,0.4,1.2,0.6,2.2,0.7
	c2.9,1.9,4.9,6.5,5.4,9.3c0.6,3.8,0,7.5,1.9,11.1c0.7,1.4,3.4,0.7,5.5-0.7c1,0.7,2.1,1.2,2.7,1.1c5.7-0.6,11.3-0.4,17,1
	c3.5,0.8,6.4,1.6,10,0.7c1.4-0.4-3.3-4.5-5.3-4c-4.3,1.1-10-1.5-14.4-2c-2.4-0.3-4.9-0.3-7.3-0.2c0-0.3,0-0.5-0.2-0.8
	c-2.3-4.4-0.7-9.6-2.7-14.2c-1.6-3.7-4.8-7.9-9.1-8.2c-0.9-0.1-1.8,0.1-2.7,0.5c-6.5-7.9-11.2-17.6-16.3-26.2
	c-3.3-5.6-6.6-11.3-9.9-16.9c-3.1-5.3-6.9-10.5-7-16.8c-0.2-11.2,6.7-20.7,3.3-32.1c-2.6-8.9-8.6-16.8-8.4-26.2
	c3.1-0.9,6.2-1.9,9.2-3.3c5.9-2.8,10.9-7.2,15.8-11.5c2-1.8,4.3-3.5,6.5-5.3c1.7,22.2-8,43.9-9.3,66.1c-0.6,11.1,0.5,23.1,7.2,32.3
	c3.5,4.8,7.8,9,11.3,13.8c3.8,5.1,7.2,10.5,10.3,16c0.2,0.4,0.7,0.8,1.3,1.2c0.6,3.3,1.8,6.3,3.7,9.2c0.4,0.6,1,1.3,1.8,2
	c-1.7,0.2-3.1,0.7-2.6,1.4c3,3.7,6.3,6.1,10.1,8.8c2.4,1.7,2.8,3.9,4.1,6.3c1.1,2,2.5,3.7,4.1,5.3c1.3,1.3,7.7,0.6,5.8-1.3
	c-3.2-3.2-3.9-8.2-7.3-11c-3.2-2.6-6.4-4.5-9.2-7.5c1.6-0.4,0.5-2.4-0.2-3.5c-1.3-2.1-1.8-4.8-1.9-7.2c0-0.4-0.1-0.7-0.2-1.1
	c0.4-0.3,0.4-0.7,0-1.4c-2.9-5.3-6.2-10.4-9.7-15.3c-3.5-4.8-7.7-9.1-11.3-13.8c-7.6-10.1-8-24.1-6.7-36.1c2.2-19.7,9.8-39.1,9-58.9
	c4.2,3.8,8.8,7,14.3,9.3c11.1,4.7,22.4,9.3,33.8,13.3c11.4,3.9,23.2,7,35.2,7.6c10.9,0.5,21.6-1,32.1-3.9c1.5,2.4,2,6.2,2.6,8.5
	c0.6,2.7,1.2,5.4,1.7,8.2c1.2,5.8,2.2,11.5,3.6,17.2c1.3,5.3,3,10.4,5,15.4c2.2,5.6,3.1,11.1,3.9,17c1.6,11.8,3.1,23.6,4.7,35.5
	c0.5,4,0.2,9.5,2.9,12.8c2.7,3.3,6,2.3,9.3,3.2c2.1,3.5,3.8,7.1,6.1,10.5c2,3.1,4.2,6.9,7.6,8.7c3.5,1.8,8.3,1,12,1
	c4.8,0,9.5,0.2,13.8-2.3c1.4-0.8,0.7-2.6-0.6-4.2c1.4-1.3,2.2-2.8,1.1-3.3c-8.6-3.7-12.5-14.1-18.7-20.6c-3.7-3.9-6.9-7.8-9-12.8
	c-2.5-6.1-3.2-12.6-3.9-19.1c-2.6-23.2-6.1-46.8-4.1-70.2c9.2-1.8,18.5-1.2,27.7,0.7c3.7,0.8,8.8,1.3,11.9,3.5
	c3.4,2.4,4.1,8,4.7,11.8c1.3,8.6,2.3,17.4,3.2,26.1c0.4,4.1,0.8,8.3,0.3,12.4c-0.3,2.3-0.7,4.6-1.9,6.6c-0.4,0.8-1,1.4-1.7,2
	c0.4,2.5,0.1,2.7-0.9,0.8c-1.1-1.7-3-3.8-5.1-4.6c-1.2-0.9-2.7-1.4-3.2,0.6c-2.5,10.7-3.9,21.5-4.1,32.4c0,2.3,2.5,11.1,6.2,8.3
	c6.4-4.9,14.5-6.9,20.7-12.1c6.6-5.5,10.4-15.6,10.2-24c-0.5-22.7-2.8-45.8-0.2-68.4c0.3-2.6-1-6.2-3-7.8c-1.1-0.9-2-1.1-2.7-0.6
	c-3.1-5.5-8-9.5-14.1-12.3c-5.6-2.6-11.2-4.7-16.4-8c-3.7-2.3-7.1-5-10.5-7.7c11.1-16.4,6.5-37.8,15.6-55.3
	c4.9-9.5,11.5-17.3,14.7-27.6c3.5-11,6.9-22,10.3-33c0.4-0.3,0.7-0.5,0.9-0.9c1.4-2.6,2.6-5.5,4.2-8.1c3.4,1.5,6.4,4.5,10.1,5.1
	c2.2,0.4,4.5-0.3,6.7-0.5c3.8-0.5,7.6-0.5,11.3-0.2c6.9,0.6,12.4,2.1,17.3,6.9c1.9,1.9,4.8,3.6,5.9,6.1c1,2.1,0.7,4.6,1.6,6.8
	c1.5,3.9,5,4.2,8.6,4.1c5.7-0.1,11.9,0.3,17.5-0.8c4.6-0.9,4.8-3.6,7.4-6.7c1.4-1.6,4.1-2.9,4.7-5.1c0.5-1.6-0.3-3.5-1.1-5.2
	C557.5,164.3,558.5,162.9,556.8,162.1z M400.1,414.3c2.2,5.4,5.7,9.2,9.6,13.4c5.2,5.5,8.7,13.4,14.8,18.2c-2.9,0.5-5.9,0.3-8.9,0.3
	c-1.6,0-5.3,0.7-6.6-0.1c-1.7-0.9-3.8-5.6-4.7-7.3c-2-3.3-3.4-7.7-6.4-10.3c-2.2-1.9-4.8-1.9-7.4-2.3c-0.2-1.5-0.1-3.2-0.3-4.5
	c-0.3-2.6-0.7-5.1-1-7.7c-0.8-5.8-1.5-11.5-2.3-17.3c-1.3-10.1-2-20.5-5.6-30.1c-3.9-10.2-6.3-20.4-8.4-31.1
	c-1.3-6.5-2.1-14.6-5.6-20.7c1.9,0.7,3.9,1.2,6,1.7c6.2,1.4,12.6,3.4,19,3.5c-2.9,25.8,1,52.2,4.2,77.8
	C397,403.5,398,409.1,400.1,414.3z"/>
<ellipse transform="matrix(0.2162 -0.9763 0.9763 0.2162 269.0693 573.4484)" fill="none" stroke="#000000" stroke-width="6" stroke-miterlimit="10" cx="491.7" cy="119.138" rx="2.5" ry="4.5"/>
</svg>
