<?xml version="1.0" encoding="utf-8"?>
<!-- Generator: Adobe Illustrator 23.0.1, SVG Export Plug-In . SVG Version: 6.00 Build 0)  -->
<svg version="1.1" id="Layer_1" xmlns="http://www.w3.org/2000/svg" xmlns:xlink="http://www.w3.org/1999/xlink" x="0px" y="0px"
	 viewBox="0 0 612 792" enable-background="new 0 0 612 792" xml:space="preserve">
<g id="hospital">
	<path fill="#010101" d="M203.585,178.521c8.88,3.402,19.86,2.807,29.275,3.099c11.597,0.359,23.203,0.34,34.805,0.482
		c22.483,0.272,44.944,1.308,67.422,1.784c13.621,0.287,27.095,0.129,40.691-0.448c6.031-0.257,12.068-0.434,18.105-0.371
		c2.331,0.025,4.501,0.158,6.783,0.626c0.285,0.059,3.24,0.882,2.01,0.444c2.007,0.716,0.145,0.198-0.408-1.104
		c5.484-3.915,10.969-7.83,16.452-11.744c-2.154-2.65-5.318-2.398-8.379-2.51c-7.643-0.276-14.282,10.91-7.611,16.084
		c1.94,1.505,3.829,2.34,6.405,2.002c4.339-0.567,8.23-3.29,10.111-7.289c1.381-2.935,1.579-8.07-2.136-9.567
		c-4.183-1.689-8.785-1.701-13.236-1.529c-6.179,0.237-12.359,0.083-18.545,0.429c-12.741,0.712-25.238,1.576-38.016,1.544
		c-23.305-0.058-46.593-1.045-69.897-1.252c-11.629-0.103-23.262-0.104-34.892-0.083c-11.758,0.02-24.977-0.912-36.413,2.065
		C203.819,171.778,199.832,177.083,203.585,178.521L203.585,178.521z"/>
	<path fill="#010101" d="M198.254,175.912c-2.931,8.188-2.025,16.958-1.753,25.517c0.321,10.106,0.603,20.201,0.103,30.307
		c-0.444,8.982-1.732,17.851-2.45,26.809c-0.368,4.589-2.79,10.307-1.891,14.802c2.144,10.725,16.427,4.564,17.91-3.619
		c0.725-4.001-0.77-7.734-1.254-11.68c-1.128-9.224,0.729-18.881,0.603-28.171c-0.125-9.212-0.487-18.328-1.242-27.514
		c-0.722-8.793,0.056-19.615-3.715-27.737C203.267,171.829,199.079,173.606,198.254,175.912L198.254,175.912z"/>
	<path fill="#010101" d="M13.415,285.546c6.156,2.555,13.083,2.325,19.656,2.622c7.598,0.344,15.204,0.464,22.809,0.504
		c16.061,0.088,32.237-1.043,48.261-2.014c16.095-0.977,32.182-1.993,48.298-2.556c7.636-0.267,15.279-0.458,22.918-0.432
		c7.798,0.026,16.038,2.555,23.33-0.84c4.1-1.908,7.649-7.728,5.923-12.232c-1.904-4.967-7.687-4.125-11.484-2.308
		c-1.341,0.64-2.391,1.625-3.44,2.631c-2.138,2.048-4.425,5.579-3.028,8.687c0.77,1.709,1.588,2.862,3.198,3.939
		c7.995,5.353,21.267-10.042,12.099-15.973c-2.626-1.7-6.316-1.396-9.212-0.888c-3.849,0.675-7.72,0.642-11.628,0.79
		c-7.697,0.291-15.393,0.674-23.08,1.142c-16.191,0.984-32.364,2.351-48.535,3.633c-15.416,1.222-30.821,2.535-46.263,3.406
		c-7.727,0.438-15.445,0.982-23.178,1.33c-8.079,0.364-16.485-0.176-24.35,1.881C13.572,279.427,10.054,284.151,13.415,285.546
		L13.415,285.546z"/>
	<path fill="#010101" d="M405.812,287.172c13.617-0.582,27.488,1.955,41.172,1.908c17.365-0.058,34.721-0.408,52.086-0.273
		c17.68,0.136,35.363-0.301,53.044-0.374c8.146-0.033,16.257,0.346,24.39,0.71c3.285,0.146,7.355-0.703,10.473,0.151
		c2.863,0.783,5.17,0.729,8.065,0.005c4.972-1.248,11.069-8.292,8.532-13.71c-1.475-3.15-4.063-4.095-7.301-4.311
		c-7.281-0.486-19.081,10.485-9.912,16.284c0.639,0.401,1.276,0.805,1.908,1.213c-0.913-1.04-1.825-2.08-2.739-3.122
		c0.017,0.064,0.032,0.126,0.049,0.19c3.646-4.731,7.293-9.463,10.94-14.195c1.81,0.129,1.389,0.122-1.264-0.025
		c-1.179,0.183-2.361,0.34-3.544,0.504c-3.853,0.534-7.803,0.575-11.687,0.593c-8.971,0.039-17.922,0.034-26.897,0.205
		c-17.748,0.334-35.488,0.964-53.239,1.146c-17.422,0.178-34.833,0.867-52.251,1.238c-7.269,0.154-14.482,0.473-21.753,0.291
		c-6.566-0.165-13.038-0.307-19.272,2.029C402.468,279.185,398.905,287.467,405.812,287.172L405.812,287.172z"/>
	<path fill="#010101" d="M411.403,176.077c-3.555,7.116-3.543,15.356-4.416,23.134c-1.014,9.059-2.143,18.11-2.953,27.188
		c-0.797,8.926-1.288,17.842-1.409,26.803c-0.063,4.538,0.027,9.074,0.2,13.609c0.165,4.367,1.354,9.402,0.468,13.71
		c5.277-3.066,10.553-6.133,15.831-9.199c-0.344-0.161-0.689-0.321-1.034-0.482c-5.898-2.743-13.408,2.422-14.563,8.464
		c-0.077,0.406-0.155,0.812-0.232,1.217c-1.196,6.246,4.22,9.824,9.917,8.002c6.58-2.103,11.451-9.514,7.605-15.857
		c-1.575-2.596-1.241-8.13-1.563-11.119c-0.482-4.433-0.788-8.886-1.046-13.336c-0.474-8.166-0.565-16.365-0.648-24.54
		c-0.083-8.133-0.101-16.258,0.021-24.391c0.114-7.594,1.9-17.135-1.689-24.112C414.833,173.111,412.176,174.528,411.403,176.077z"
		/>
	<path fill="#010101" d="M12.546,284.289c-1.908,12.93-1.674,26.15-1.458,39.185c0.241,14.595,0.496,29.195,0.825,43.791
		c0.642,28.341,0.119,56.485-1.758,84.767c-1.77,26.696-3.009,53.441-4.078,80.173c-0.514,12.831-0.941,25.667-1.344,38.501
		c-0.197,6.316-0.368,12.631-0.518,18.948c-0.14,5.882-1.301,11.83-0.682,17.676c1.136,10.768,17.019,4.484,17.827-3.601
		c0.542-5.415-0.097-10.454-0.317-15.861c-0.249-6.154-0.071-12.361-0.075-18.521c-0.008-13.331,0.138-26.659,0.383-39.988
		c0.493-26.682,1.451-53.339,3.023-79.981c1.66-28.144,2.085-56.108,1.286-84.296c-0.391-13.801-1.14-27.593-1.751-41.386
		c-0.606-13.672-0.693-27.584-2.901-41.118C20.179,277.483,13.114,280.438,12.546,284.289L12.546,284.289z"/>
	<path fill="#010101" d="M4.181,620.621c18.84,1.552,37.891,1.225,56.783,1.274c19.381,0.051,38.759,0.063,58.138-0.153
		c38.825-0.432,77.65-1.123,116.473-1.755c38.514-0.629,77.031-1.702,115.542-0.431c38.727,1.277,77.367,2.935,116.122,3.244
		c44.051,0.351,88.103,0.241,132.154,0.744c5.567,0.064,11.075-5.539,12.179-10.689c1.071-4.999-2.57-9.826-7.949-9.058
		c-3.1,0.444-6.135,1.177-9.187,1.868c-6.916,1.567-12.803,13.923-3.507,16.364c1.991,0.524,3.945,1.081,5.98,1.4
		c2.238-6.543,4.476-13.087,6.714-19.631c-38.832,0.46-77.658,1.377-116.486,2.065c-38.893,0.689-77.573-0.113-116.441-1.529
		c-77.385-2.82-154.896,1.547-232.275,3.187c-21.784,0.463-43.572,0.926-65.358,1.286c-21.72,0.358-43.567-0.162-65.253,1.207
		C3.136,610.307-2.599,620.063,4.181,620.621L4.181,620.621z"/>
	<path fill="#010101" d="M596.806,277.414c-3.781,16.332-2.998,33.866-2.913,50.532c0.089,17.187,0.2,34.374,0.44,51.559
		c0.487,35.071-0.954,70.03-1.273,105.084c-0.242,26.505,0.894,52.985,0.987,79.484c0.031,8.99-0.03,17.964-0.657,26.934
		c-0.255,3.646-0.572,7.337-1.326,10.915c-0.173,0.823-0.383,1.637-0.598,2.448c-0.632,2.392,0.665-1.56-0.119,0.39
		c-0.581,1.451-0.702,1.913-0.853,3.151c-0.34,2.792,4.515-5.993,2.728-4.24c2.001-0.897,4.001-1.793,6.001-2.691
		c-0.09,0-0.18-0.001-0.27-0.002c-8.572-0.088-14.389,15.203-3.283,15.317c-7.858-0.081,1.283-0.017,2.823-0.393
		c2.717-0.665,4.888-2.829,6.68-4.822c3.015-3.357,3.444-7.484,3.766-11.747c0.683-9.071,0.568-18.126,0.519-27.217
		c-0.13-25.406-1.461-50.794-1.773-76.199c-0.457-37.133,1.133-74.194,0.165-111.339c-0.484-18.581-1.381-37.139-2.195-55.709
		c-0.76-17.346-0.043-35.975-4.539-52.844C600.478,273.624,597.132,276.002,596.806,277.414L596.806,277.414z"/>
	<path fill="#010101" d="M197.05,445.66c15.671,5.477,33.068,4.96,49.462,4.222c17.839-0.803,35.628-2.718,53.504-2.454
		c20.175,0.299,40.34,0.865,60.518,1.027c10.134,0.081,20.267,0.128,30.402,0.166c9.711,0.037,19.355,0.816,29.034,0.96
		c6.303,0.092,9.783-11.696,2.307-10.767c-1.946,0.242-3.712,0.646-5.569,1.269c-2.429,0.816-6.966,6.323-2.777,8.073
		c1.556,0.65,3.009,1.137,4.682,1.362c6.865,0.922,11.895-10.825,3.663-10.704c-8.254,0.122-16.464,0.916-24.747,0.932
		c-10.151,0.019-20.302,0.024-30.453,0.006c-20.335-0.033-40.671-0.164-61.003-0.473c-17.258-0.263-34.388,1.339-51.586,2.539
		c-18.318,1.279-36.269,1.129-54.517-0.958C197.909,440.621,194.148,444.647,197.05,445.66L197.05,445.66z"/>
	<path fill="#010101" d="M196.364,443.742c-0.975,2.665-1.006,5.291-0.683,8.092c0.133,1.156,0.426,2.312,0.701,3.44
		c0.305,1.244,1.21,2.514,1.301,3.775c0.223,3.077,3.64,3.378,5.831,2.128c2.022-1.155,5.136-5.985,1.601-7.471
		c-1.428-0.601-1.923-3.668-2.271-5.038c-0.503-1.974-0.554-4.104-1.459-5.949C200.307,440.528,197.045,441.877,196.364,443.742
		L196.364,443.742z"/>
	<path fill="#010101" d="M199.035,461.191c5.934,3.533,15.021,2.928,21.763,3.169c9.376,0.336,18.81-0.321,28.156-1.015
		c18.299-1.36,36.473-3.149,54.842-3.251c19.653-0.109,39.269,0.827,58.9,1.614c9.43,0.377,18.861,0.774,28.292,1.121
		c9.973,0.365,20.086,0.053,29.948,1.371c7.311,0.977,12.929-11.445,3.952-11.552c-1.739-0.021-3.233,0.501-4.86,1.047
		c-2.811,0.943-8.063,7.32-3.213,9.345c1.931,0.807,3.467,1.254,5.583,1.228c6.757-0.079,10.575-12.622,2.491-11.62
		c-18.207,2.255-37.123,0.377-55.445-0.231c-19.687-0.654-39.383-1.06-59.081-0.962c-18.636,0.094-36.92,2.002-55.424,4.002
		c-8.723,0.943-17.461,1.714-26.229,2.065c-4.296,0.173-8.602,0.165-12.901,0.084c-4.917-0.09-10.023-1.186-14.89-0.391
		C199.403,457.462,196.952,459.952,199.035,461.191L199.035,461.191z"/>
	<path fill="#010101" d="M423.999,441.351c-3.136,4.176-5.095,9.613-7.49,14.257c-1.25,2.421-0.446,5.675,2.494,6.221
		c3.508,0.651,7.238-2.383,7.951-5.733c-2.2,1.932-4.403,3.864-6.604,5.796c3.065-0.419,5.94-2.675,6.604-5.796
		c0.948-4.442,3.945-10.685,1.951-15.143C427.935,438.788,425.073,439.919,423.999,441.351L423.999,441.351z"/>
	<path fill="#010101" d="M213.943,463.692c-1.599,7.043-1.235,14.469-1.542,21.656c-0.329,7.734-0.868,15.458-1.356,23.181
		c-0.811,12.84-1.239,25.646-0.771,38.505c0.417,11.482,1.067,22.952,1.062,34.446c-0.004,5.514-0.173,11.022-0.944,16.486
		c-0.658,4.665-3.123,9.454-2.927,14.14c0.24,5.772,7.584,3.297,9.79,0.474c5.682-7.271,4.448-20.659,4.527-29.376
		c0.11-12.029-0.867-24.057-1.609-36.052c-0.81-13.076-0.709-26.069-0.361-39.164c0.203-7.643,0.466-15.285,0.598-22.929
		c0.129-7.503,0.848-15.74-1.59-22.941C217.928,459.488,214.327,462.002,213.943,463.692z"/>
	<path fill="#010101" d="M406.318,461.222c-1.474,4.859-1.266,10.055-1.41,15.097c-0.178,6.249-0.391,12.496-0.543,18.745
		c-0.305,12.528-0.72,25.051-1.146,37.574c-0.427,12.578-0.919,25.154-1.434,37.728c-0.521,12.746,0.043,26.233-2.249,38.798
		c3.627-2.108,7.253-4.215,10.88-6.323c-2.742-1.943-5.248-3.16-8.669-2.767c-1.646,0.189-3.423,1.321-4.046,2.917
		c-1.711,4.381-0.141,7.091,2.771,10.521c4.076,4.802,12.835-1.772,12.177-6.996c-1.537-12.177-0.057-25.119,0.216-37.37
		c0.279-12.5,0.524-25.001,0.722-37.503c0.198-12.439,0.301-24.88,0.344-37.321c0.021-6.179-0.031-12.354-0.127-18.533
		c-0.084-5.448,0.451-11.328-1.441-16.511C411.143,455.938,406.923,459.228,406.318,461.222L406.318,461.222z"/>
	<path fill="#010101" d="M228.864,474.782c9.503,2.079,20.154,0.981,29.829,0.908c8.707-0.066,17.412-0.525,26.117-0.568
		c4.454-0.023,8.893-0.044,13.347,0.042c2.216,0.042-1.602-1.197,0.925,0.172c1.15,0.623,2.731,0.789,3.952,0.318
		c1.982-0.766,3.776-1.851,4.738-3.842c2.173-4.492-3.472-6.501-6.417-3.515c-1.066,1.08-2.242,2.537-2.014,4.199
		c2.147-1.885,4.292-3.768,6.44-5.652c2.048,0.185-2.383-0.497-3.234-0.165c-1.082,0.422-2.001,0.834-2.919,1.574
		c2.645-2.13,1.498-0.846-0.837-0.604c-4.19,0.435-8.376,0.726-12.582,0.942c-7.973,0.409-15.948,0.672-23.928,0.848
		c-10.485,0.231-21.679-0.791-31.998,1.196C228.639,470.951,226.055,474.168,228.864,474.782L228.864,474.782z"/>
	<path fill="#010101" d="M316.922,474.322c4.879,1.697,11.088,1.283,16.229,1.804c7.867,0.798,15.702,1.895,23.564,2.739
		c7.158,0.766,14.389,1.42,21.594,1.196c2.823-0.088,5.693-0.459,8.446-1.091c3.326-0.765-1.034-0.165,1.838-0.397
		c1.816-0.147,3.162-1.155,4.545-2.231c3.641-2.835,2.396-10.168-3.064-7.875c-1.182,0.497-2.289,0.914-3.275,1.781
		c-2.94,2.58,2.594-0.733-1.413,0.56c-2.414,0.779-5.193,0.779-7.702,0.903c-7.288,0.353-14.598-0.361-21.842-1.064
		c-7.304-0.71-14.593-1.615-21.913-2.147c-5.203-0.377-11.142-1.028-16.009,1.164C316.628,470.243,314.73,473.559,316.922,474.322
		L316.922,474.322z"/>
	<path fill="#010101" d="M231.158,473.367c-6,7.106-3.952,21.507-3.998,30.06c-0.056,10.479,0.487,21.188,1.056,31.662
		c0.593,10.935,1.483,21.848,1.676,32.801c0.088,4.978-0.006,9.976-0.563,14.926c-0.382,3.39-3.004,7.607-2.525,10.85
		c0.384,2.607,3.106,2.103,4.693,0.918c5.451-4.069,4.61-16.645,4.698-22.636c0.162-10.984-0.88-21.979-1.729-32.917
		c-0.777-10.001-0.96-20.016-1.672-30.018c-0.473-6.647-1.105-13.265-1.184-19.931c-0.058-4.919,1.643-11.117,0.359-15.784
		C231.858,472.897,231.315,473.182,231.158,473.367L231.158,473.367z"/>
	<path fill="#010101" d="M304.197,474.228c0.069-1.238-0.154-3.228,0.663-4.247c1.829-2.283-2.784-3.069-2.784-0.135
		c0,3.763-0.981,7.924-1.168,11.747c-0.261,5.341-0.595,10.677-0.875,16.015c-0.556,10.604-1.159,21.207-1.806,31.806
		c-0.654,10.647-1.288,21.294-1.773,31.95c-0.244,5.37-0.432,10.743-0.584,16.116c-0.134,4.766-1.117,9.876-0.676,14.601
		c1.996-1.752,3.991-3.502,5.987-5.254c-0.61-0.195-1.184-0.562-1.862-0.718c-2.686-0.618-6.446,3.238-4.372,5.73
		c0.17,0.38,0.315,0.767,0.438,1.165c1.352,4.014,6.44,0.519,7.648-1.557c1.863-3.207,0.332-8.22,0.289-11.76
		c-0.064-5.359,0.157-10.735,0.3-16.09c0.284-10.617,0.75-21.23,1.213-31.842c0.461-10.536,0.919-21.071,1.245-31.612
		c0.162-5.253,0.193-10.5,0.177-15.754c-0.017-5.182-1-10.483-1-15.562c0-2.459-5.015,0.23-2.644,1.901
		c0.708,0.499,0.477,3.033,0.523,3.842C303.178,475.278,304.169,474.74,304.197,474.228L304.197,474.228z"/>
	<path fill="#010101" d="M315.605,472.842c-1.6,9.02-0.585,18.667-0.504,27.793c0.1,11.11-0.123,22.228-1.152,33.295
		c-1.845,19.85-3.374,39.285-1.716,59.216c0.441,5.313,9.118,1.383,7.853-3.474c-0.139-1.034-0.505-1.979-1.099-2.835
		c-0.537-0.997-1.439-1.63-2.632-1.468c-4.239,0.572-4.171,4.367-4.123,7.777c2.618-1.158,5.235-2.315,7.853-3.474
		c-4.691-19.05-1.471-39.885-0.001-59.18c0.742-9.752,0.593-19.477,0.241-29.24c-0.342-9.469,0.164-19.719-1.717-29.015
		C318.245,470.441,315.849,471.463,315.605,472.842L315.605,472.842z"/>
	<path fill="#010101" d="M391.315,474.471c0.401-1.014,0.946-1.943,1.637-2.784c-0.914-0.173-1.83-0.345-2.745-0.518
		c-1.923,9.679-1.307,19.983-1.752,29.811c-0.484,10.664-1.147,21.323-1.834,31.976c-0.668,10.358-1.414,20.711-2.064,31.07
		c-0.324,5.188-0.597,10.379-0.821,15.573c-0.19,4.365-1.008,9.25,0.238,13.465c1.2,4.066,6.667,0.021,7.279-2.346
		c0.982-3.794,0.47-7.932,0.508-11.838c0.046-5.107,0.19-10.212,0.343-15.315c0.307-10.236,0.776-20.464,1.251-30.693
		c0.49-10.578,0.951-21.158,1.174-31.746c0.212-10.034,1.356-21.156-1.255-30.946c-0.465-1.741-3.844,0.148-3.028,1.726
		c0.394,0.83,0.476,1.672,0.246,2.526C390.411,474.984,391.175,474.869,391.315,474.471L391.315,474.471z"/>
	<path fill="#010101" d="M227.496,595.59c1.368,2.603,7.681,1.271,9.968,1.114c6.319-0.434,12.606-1.59,18.901-2.3
		c11.871-1.338,27.808-3.697,38.518,2.977c1.273-2.69,2.545-5.379,3.818-8.069c-3.055-0.017-4.97,0.544-7.574,2.141
		c-1.099,0.675-2.703,2.746-1.395,4.005c2.249,2.161,4.106,2.316,7.159,2.3c3.155-0.018,8.038-6.1,3.818-8.069
		c-11.698-5.458-25.623-4.334-38.077-2.889c-7.119,0.826-14.186,2.039-21.216,3.415c-3.884,0.76-11.178,1.337-13.777,4.716
		C227.512,595.092,227.389,595.388,227.496,595.59z"/>
	<path fill="#010101" d="M314.073,594.594c10.941,3.477,23.739,1.83,35.041,1.471c12.732-0.406,25.358-0.584,38.08,0.139
		c0.608-2.838,1.216-5.675,1.824-8.513c-3.131,0.899-5.966,1.402-8.357,3.714c-1.477,1.428-2.601,4.806,0.339,5.378
		c2.849,0.555,5.691-0.083,8.47-0.761c4.254-1.04,6.566-8.542,0.716-8.566c-12.385-0.047-24.825,0.665-37.191,1.315
		c-12.69,0.668-26.158,0.371-38.479,3.749C313.63,592.765,312.912,594.225,314.073,594.594L314.073,594.594z"/>
	<path fill="#010101" d="M48.451,317.956c5.312,1.679,11.193,1.353,16.719,1.455c6.252,0.116,12.502,0.287,18.753,0.394
		c12.52,0.215,25.041,0.364,37.561,0.527c-1.241-1-2.48-2.001-3.721-3c-0.076,9.13,0.276,18.26,0.179,27.393
		c-0.056,5.277-0.178,10.578-0.665,15.837c-0.199,2.153-0.501,4.295-0.944,6.411c-0.208,0.987-0.015,0.436-0.363,1.25
		c-1.803,4.212,0.151-0.027,1.665-0.822c-3.55,1.862-5.06,8.58,0.471,8.392c11.174-0.38,9.835-19.47,9.934-26.633
		c0.162-11.627-0.703-23.213-0.91-34.832c-0.037-2.091-1.88-3.024-3.721-3c-12.596,0.164-25.19,0.355-37.785,0.527
		c-11.702,0.16-24.926-1.097-36.282,1.939C47.553,314.271,46.124,317.22,48.451,317.956z"/>
	<path fill="#010101" d="M51.065,316.81c-3.99,21.435-2.436,45.371,0.06,66.918c0.229,1.976,1.883,3.601,4.004,3.228
		c12.496-2.198,25.33-0.457,37.932-0.371c7.76,0.053,16.249,1.044,23.994,0.095c7.269-0.89,9.372-12.867,0.881-10.53
		c-1.773,0.487-3.144,1.25-4.516,2.486c-1.174,1.058-2.592,3.273-1.719,4.933c1.009,1.923,1.995,2.396,3.991,3.048
		c5.898,1.929,11.967-9.779,5.041-10.693c-8.179-1.08-17.202-0.024-25.396,0.032c-13.209,0.088-26.437-1.511-39.419,1.568
		c1.762,0.99,3.526,1.981,5.29,2.97c-1.98-10.239-3.212-20.54-3.909-30.942c-0.744-11.087-0.463-22.543-2.708-33.455
		C54.16,313.987,51.365,315.197,51.065,316.81L51.065,316.81z"/>
	<path fill="#010101" d="M492.66,321.223c23.308-2.086,46.863,0.427,70.081-2.355c-1.3-1.047-2.597-2.096-3.896-3.142
		c-0.657,20.775-0.028,41.289-4.025,61.802c2.709-1.952,5.417-3.907,8.127-5.859c-2.339-0.344-3.791-0.543-6.094,0.26
		c-1.977,0.688-3.663,2.513-3.628,4.693c0.04,2.533,1.001,4.372,3.398,5.437c3.88,1.727,8.491-1.536,9.351-5.433
		c4.569-20.72,3.417-42.985,2.684-64.045c-0.069-1.978-1.949-3.445-3.896-3.141c-23.681,3.685-48.596-1.351-71.632,6.188
		C490.627,316.442,488.686,321.578,492.66,321.223L492.66,321.223z"/>
	<path fill="#010101" d="M491.732,315.954c-3.028,18.977-0.678,38.786,1.331,57.77c0.165,1.561,1.181,3.138,2.898,3.302
		c19.009,1.813,38.046,1.472,56.813,5.541c0.767-3.583,1.536-7.166,2.303-10.749c-2.595,0.642-4.111,1.923-6.073,3.633
		c-1.824,1.592-2.591,4.312-0.458,5.922c1.733,1.308,3.514,1.358,5.624,1.26c4.983-0.234,10.772-9.516,3.78-11.047
		c-19.098-4.181-39.068-4.775-58.561-4.584c1.389,1.118,2.778,2.24,4.167,3.36c-3.264-18.29-5.315-36.785-8.704-55.036
		C494.507,313.457,491.961,314.525,491.732,315.954L491.732,315.954z"/>
	<path fill="#010101" d="M48.984,413.414c10.485,2.038,21.917,1.191,32.555,1.256c12.439,0.077,25.302-1.142,37.682,0.192
		c-0.981-1.118-1.962-2.237-2.943-3.354c-1.587,24.41,6.191,49.483-1.039,73.407c3.636-1.172,7.274-2.345,10.91-3.517
		c-1.593-2.971-3-5.21-6.252-6.298c-2.321-0.778-4.699,1.854-5.251,3.785c-0.83,2.909-0.317,5.842,0.737,8.649
		c2.246,5.987,9.813,0.125,10.91-3.517c7.511-24.932-0.631-50.586,0.643-75.93c0.114-2.243-2.253-3.619-4.232-3.413
		c-23.696,2.455-48.269-0.978-71.812,3.151C48.671,408.215,45.204,412.679,48.984,413.414L48.984,413.414z"/>
	<path fill="#010101" d="M47.62,410.784c-3.603,14.28-2.041,30.414-2.114,45.028c-0.031,6.003-0.203,11.968-0.635,17.954
		c-0.244,3.384-0.393,7.171,1.696,10.061c5.242,7.256,19.423,6.054,27.044,5.719c7.049-0.31,14.063-1.389,21.071-2.155
		c3.459-0.378,6.923-0.625,10.399-0.764c3.109-0.123,6.702,0.716,9.421-1.197c2.233-1.57,4.669-4.273,3.52-7.27
		c-1.021-2.666-4.741-2.839-6.826-1.372c-2.867,2.016-5.648,4.933-2.894,8.312c3.785,4.647,12.907-3.298,9.093-7.981
		c-2.613-3.209-10.501-1.607-14.07-1.371c-6.341,0.42-12.644,1.398-18.952,2.137c-6.465,0.758-12.974,1.238-19.473,0.663
		c-1.906-0.172-7.945-0.056-9.179-2.121c-1.333-2.231-0.611-6.004-0.543-8.454c0.159-5.824-0.108-11.653-0.313-17.47
		c-0.465-13.169,0.157-28.183-3.625-40.885C50.642,407.603,47.919,409.597,47.62,410.784L47.62,410.784z"/>
	<path fill="#010101" d="M491.445,409.906c12.27,2.028,25.413,1.415,37.83,1.733c13.443,0.343,26.94,0.537,40.361,1.381
		c-0.993-1.626-1.987-3.251-2.979-4.876c-2.868,23.812-3.64,47.912-2.788,71.876c2.778-2.439,5.557-4.875,8.333-7.313
		c-1.296-0.358-2.239-1.379-3.766-1.651c-3.422-0.607-8.438,3.519-6.788,7.235c1.269,2.86,2.263,4.489,5.399,5.353
		c4.011,1.105,8.473-3.508,8.333-7.313c-0.839-23.01-0.147-46.17,2.249-69.074c0.319-3.048-1.203-4.932-4.333-4.938
		c-13.158-0.027-26.327-0.649-39.482-0.925c-13.019-0.275-26.784-1.216-39.697,0.701
		C490.954,402.561,486.202,409.041,491.445,409.906L491.445,409.906z"/>
	<path fill="#010101" d="M494.932,405.879c-3.971,2.915-4.033,8.547-4.486,13.043c-0.623,6.203-0.65,12.413-0.496,18.639
		c0.335,13.574,1.693,27.102,2.106,40.672c0.074,2.396,2.148,3.524,4.299,3.468c9.801-0.25,19.616-0.355,29.422-0.35
		c5.317,0.002,10.635,0.085,15.951,0.202c2.265,0.049,4.531,0.12,6.796,0.19c1.778,0.056,5.622-0.491,7.202,0.269
		c-0.452-2.023-0.904-4.047-1.356-6.07c-0.039,0.1-0.078,0.199-0.119,0.299c1.145-1.219,2.288-2.439,3.431-3.657
		c-1.236,0.707-2.412,1.405-3.458,2.388c-3.512,3.296-2.68,9.369,3.066,7.881c3.424-0.887,5.725-1.496,7.512-4.965
		c0.996-1.933,0.893-5.011-1.354-6.07c-3.702-1.746-8.524-1.091-12.541-1.2c-6.069-0.165-12.14-0.224-18.212-0.24
		c-11.386-0.028-22.744,0.298-34.113,0.918c1.434,1.156,2.867,2.312,4.299,3.468c-0.75-12.184-2.481-24.281-3.59-36.433
		c-0.588-6.432-0.968-12.902-1.072-19.36c-0.058-3.55,1.91-10.673-1.107-13.268C496.408,405.091,495.614,405.377,494.932,405.879z"
		/>
	<path fill="#010101" d="M142.705,314.347c-2.226,10.587-1.569,21.811-1.615,32.574c-0.05,11.571-0.061,23.27-1.334,34.783
		c-0.251,2.28,0.476,4.182,2.901,4.749c12.808,2.986,26.661,3.284,39.728,4.285c7.512,0.576,15.033,1.072,22.561,1.37
		c5.244,0.208,12.829,0.614,14.261-6.068c0.218-1.019-0.967-4.154-0.151-2.296c-0.422-0.963-0.945-1.725-1.901-2.242
		c-1.902-1.029-5.227-0.422-7.365-0.466c-6.994-0.14-13.988-0.689-20.963-1.199c-13.723-1.003-27.665-1.722-41.286-3.75
		c1.003,1.145,2.008,2.289,3.011,3.434c0.357-11.124,0.314-22.18-0.172-33.301c-0.479-11.004-0.349-22.655-2.951-33.398
		C146.796,310.2,143.031,312.786,142.705,314.347z"/>
	<path fill="#010101" d="M143.964,315.722c21.999,4.559,44.872-3.877,66.833-0.129c-0.929-1.06-1.859-2.118-2.788-3.179
		c-0.374,12.848-1.064,25.719-1.859,38.547c-0.452,7.314-0.88,14.632-1.698,21.917c-0.272,2.42-0.605,4.833-1.072,7.222
		c-0.081,0.412-0.89,3.073-0.326,1.556c-0.215,0.578-0.409,1.16-0.584,1.749c-1.058,3.48,2.833-3.674,4.462-4.314
		c-3.002,1.179-7.695,6.72-3.168,9.216c6.133,3.38,10.186-5.257,11.052-9.773c1.407-7.34,1.745-14.955,2.225-22.397
		c1.011-15.599,1.473-31.328,1.066-46.958c-0.052-2.027-2.02-3.559-4.009-3.234c-22.549,3.689-45.838,2.047-68.475,4.932
		C143.582,311.136,140.772,315.061,143.964,315.722L143.964,315.722z"/>
	<path fill="#010101" d="M399.6,315.883c10.491,0.278,20.98-0.493,31.49-0.114c11.757,0.423,23.633,0.96,35.347,2.031
		c-1.032-1.175-2.064-2.351-3.096-3.527c-0.648,21.265,0.607,42.543-0.174,63.818c2.791-2.448,5.579-4.896,8.369-7.344
		c-1.309-0.223-2.439-0.631-3.774-0.786c-3.194-0.371-8.766,3.451-6.788,7.235c1.358,2.597,2.459,3.858,5.386,4.534
		c4.263,0.986,8.222-3.436,8.369-7.344c0.798-21.183,0.543-42.522-0.174-63.706c-0.081-2.39-2.218-3.765-4.451-3.589
		c-22.938,1.802-47.97-4.614-70.082,3.794C397.753,311.743,396.029,315.788,399.6,315.883z"/>
	<path fill="#010101" d="M402.193,311.237c-4.213,1.902-4.945,8.12-5.616,12.132c-1.043,6.229-1.135,12.659-1.07,18.955
		c0.136,13.317,1.655,26.597,1.517,39.916c-0.033,3.304,3.445,3.887,5.921,3.324c20.348-4.632,42.22-3.889,62.554,0.4
		c0.773-3.61,1.548-7.221,2.321-10.831c-3.557,0.747-5.375,2.634-7.301,5.597c-1.05,1.617-1.347,4.065,1.031,4.615
		c2.004,0.464,3.234,0.865,5.359,0.684c4.868-0.412,10.99-9.627,3.808-11.131c-22.034-4.613-46.465-5.532-68.327,0.4
		c1.974,1.109,3.947,2.217,5.921,3.324c-0.343-13.781-2.59-27.424-3.491-41.169c-0.423-6.484-0.593-13.007,0.051-19.482
		C405.042,316.24,405.948,309.542,402.193,311.237L402.193,311.237z"/>
	<path fill="#010101" d="M314.685,200.011c-27.769-6.662-57.809,9.819-73.012,32.561c-13.045,19.513-16.471,45.039-5.813,66.379
		c23.503,47.068,92.947,39.767,126.972,9.67c22.24-19.673,29.157-54.664,14.676-80.937c-6.562-11.907-17.264-20.745-29.485-26.427
		c-13.322-6.194-29.627-10.008-43.899-5.493c-1.91,0.606-5.831,5.417-2.288,6.656c11.564,4.044,23.908,3.955,35.409,8.529
		c10.555,4.199,19.682,10.983,26.365,20.183c13.955,19.213,11.813,49.669-4.424,66.789c-31.986,33.723-104.268,32.43-116.667-19.153
		c-4.054-16.863,1.825-34.7,12.104-48.099c14.73-19.204,37.258-21.916,59.23-26.783C315.468,203.526,316.91,200.545,314.685,200.011
		L314.685,200.011z"/>
	<path fill="#010101" d="M48.408,511.794c-4.785,10.233-5.051,23.218-6.291,34.335c-1.321,11.865-1.378,23.391-0.917,35.298
		c0.287,7.425,10.642,3.507,12.424-1.007c0.769-1.948,1.404-3.532,1.047-5.646c-0.216-1.275-0.67-2.896-2.074-3.412
		c-0.264-0.097-0.528-0.195-0.793-0.292c-2.166-0.796-4.191-0.259-5.946,1.237c-1.964,1.675-3.002,3.58-3.972,5.923
		c4.04-0.823,8.081-1.646,12.12-2.468c-2.514-10.848-2.003-22.869-1.618-33.919c0.333-9.569,3.182-21.682-0.431-30.773
		C51.273,509.347,48.937,510.665,48.408,511.794L48.408,511.794z"/>
	<path fill="#010101" d="M48.455,515.552c3.884,0.541,7.973-0.176,11.903-0.121c5.075,0.075,10.15,0.614,15.19,1.198
		c6.521,0.755,13.01,0.924,19.561,1.091c6.275,0.162,12.579,0.348,18.761,1.518c0.951,0.18,1.504,0.31,2.153,0.639
		c0.703,0.356,4.89,0.629,3.051,0.524c3.616,0.205,6.897-1.577,8.478-4.941c5.994-12.741-24.341-9.263-30.015-9.074
		c-6.819,0.224-13.579,0.348-20.406,0.184c-8.702-0.208-20.583-2.002-28.207,3.241C47.337,510.905,44.944,515.061,48.455,515.552
		L48.455,515.552z"/>
	<path fill="#010101" d="M118.217,510.751c-2.172,4.838-1.738,10.214-1.73,15.408c0.009,7.44,0.515,14.873,0.669,22.312
		c0.134,6.463,0.196,13.001-0.525,19.435c-0.218,1.952-0.844,5.394-1.248,6.42c-0.941,2.395-2.575,4.641-1.41,7.346
		c0.565,1.309,1.762,2.453,3.247,2.606c15.515,1.608,13.242-25.17,12.786-34.203c-0.398-7.907-1.196-15.797-2.003-23.672
		c-0.578-5.629-0.833-12.699-3.836-17.602C122.715,506.432,118.933,509.159,118.217,510.751L118.217,510.751z"/>
	<path fill="#010101" d="M45.211,581.641c2.882,2.021,6.547,2.325,9.954,2.932c4.111,0.733,8.191,1.604,12.31,2.302
		c8.101,1.376,16.193,2.157,24.414,2.027c6.662-0.108,13.05-0.569,19.703-0.208c6.101,0.333,12.642-2.647,13.017-9.486
		c0.075-1.359-0.925-2.907-2.125-3.495c-0.102-0.051-0.204-0.101-0.307-0.152c-4.819-2.365-9.887,2.712-10.155,7.301
		c-0.007,0.129-0.015,0.26-0.024,0.388c1.461-2.347,2.924-4.697,4.384-7.044c-0.075,0.04-0.149,0.079-0.223,0.12
		c1.623-0.33,3.244-0.661,4.868-0.99c1.135,0.361,0.829,0.246-0.919-0.343c-1.199-0.223-2.619-0.084-3.832,0.015
		c-2.295,0.189-4.621,0.193-6.922,0.176c-6.996-0.055-14.007,1.395-21.031,1.554c-7.388,0.168-14.85-0.786-22.211-1.303
		c-6.619-0.466-13.826-1.095-19.95,1.784C44.54,577.978,43.53,580.464,45.211,581.641L45.211,581.641z"/>
	<path fill="#010101" d="M492.36,516.521c4.043,2.421,9.154,1.786,13.667,1.639c6.843-0.222,13.66-0.98,20.502-1.257
		c11.211-0.453,23.388-2.121,33.991,2.258c2.908,1.201,6.363,0.446,8.627-1.794c1.088-1.077,1.714-1.949,2.484-3.255
		c1.466-2.487,0.852-5.937-1.657-7.431c-4.414-2.627-10.054-2.442-14.989-2.64c-7.123-0.286-14.239,0.187-21.333,0.801
		c-7.557,0.654-15.098,1.752-22.639,2.589c-5.934,0.659-12.018,1.212-17.497,3.693C491.658,511.968,490.181,515.218,492.36,516.521
		L492.36,516.521z"/>
	<path fill="#010101" d="M494.05,513.319c-3.032,5.928-2.73,13.176-2.801,19.691c-0.075,6.808-0.568,13.648-0.396,20.45
		c0.136,5.429,0.699,10.823,1.098,16.235c0.272,3.676-0.77,8.081,0.346,11.56c1.07,3.334,5.72,3.199,8.124,1.633
		c9.512-6.19,5.381-20.133,3.687-29.401c-1.043-5.704-1.39-11.425-2.066-17.176c-0.86-7.313-0.417-17.243-3.797-23.844
		C497.256,510.533,494.783,511.886,494.05,513.319z"/>
	<path fill="#010101" d="M496.161,583.144c10.116,4.678,24.511,2.65,35.36,2.27c12.986-0.454,25.97-0.999,38.966-0.656
		c8.479,0.223,12.437-15.634,3.007-14.029c-2.444,0.417-4.369,0.909-6.501,2.219c-2.538,1.561-6.221,6.315-3.212,9.223
		c1.561,1.509,2.81,2.099,4.942,2.505c1.591-4.649,3.181-9.299,4.77-13.948c-12.376,0.396-24.737,1.169-37.096,1.895
		c-12.264,0.718-26.477,0.064-38.112,4.343C496.397,577.663,492.992,581.679,496.161,583.144L496.161,583.144z"/>
	<path fill="#010101" d="M568.176,510.762c-4.272,10.148-3.241,23.432-3.925,34.222c-0.397,6.281-0.795,12.57-1.359,18.838
		c-0.359,4.001-1.717,8.457-1.377,12.449c0.594,6.956,9.281,4.343,12.114,0.587c3.039-4.028,2.763-9.084,3.008-13.893
		c0.331-6.498,0.382-13.01,0.375-19.514c-0.007-6.943-0.097-13.871-0.396-20.807c-0.173-4.003-0.247-9.539-2.203-13.152
		C572.952,506.791,569.154,508.438,568.176,510.762L568.176,510.762z"/>
</g>
<path d="M328.902,222.378c-1.214,12.058-2.516,24.121-3.642,36.199c-0.734-0.336-1.593-0.529-2.579-0.523
	c-6.446,0.035-12.882,0.313-19.3,0.927c-5.805,0.555-12.199,2.309-18.055,1.465c-0.527-10.241-0.825-20.494-0.869-30.756
	c-0.034-7.72-12.034-7.735-12,0c0.111,25.406,1.699,50.763,4.76,75.984c0.919,7.57,12.93,7.662,12,0
	c-1.343-11.064-2.385-22.155-3.16-33.264c5.142,0.2,10.163-0.683,15.401-1.235c7.053-0.744,14.132-1.081,21.223-1.119
	c0.574-0.003,1.099-0.079,1.588-0.204c-0.996,12.147-1.731,24.311-1.933,36.501c-0.128,7.725,11.872,7.727,12,0
	c0.466-28.091,3.756-56.045,6.567-83.972C341.675,214.701,329.67,214.755,328.902,222.378z"/>
</svg>
