<?xml version="1.0" encoding="utf-8"?>
<!-- Generator: Adobe Illustrator 23.0.1, SVG Export Plug-In . SVG Version: 6.00 Build 0)  -->
<svg version="1.1" id="Layer_1" xmlns="http://www.w3.org/2000/svg" xmlns:xlink="http://www.w3.org/1999/xlink" x="0px" y="0px"
	 viewBox="0 0 612 792" enable-background="new 0 0 612 792" xml:space="preserve">
<g id="island">
	<path fill="#010101" d="M86.267,457.683c4.371-15.919,20.136-26.633,33.57-34.411c14.423-8.35,30.064-14.728,45.869-19.936
		c24.5-8.072,49.489-13.817,75.081-17.104c25.816-3.317,52.474-5.089,78.247-0.875c-1.261-1.437-2.523-2.875-3.783-4.312
		c0.017,0.257,0.028,0.511,0.037,0.768c0.117,2.799,2.725,4.827,5.482,4.421c0.258-0.036,0.516-0.075,0.773-0.118
		c3.261-0.511,6.137-2.407,7.573-5.459c1.406-2.99,0.657-7.036-3.079-7.68c-2.895-0.498-5.307-0.158-8.074,0.816
		c-3.967,1.397-9.498,10.057-2.417,11.284c1.469,0.255,2.892,0.588,4.335,0.963c1.498-4.379,2.996-8.76,4.494-13.138
		c-0.254,0.019-0.508,0.04-0.762,0.065c1.827,1.474,3.655,2.948,5.482,4.421c-0.052-0.243-0.1-0.488-0.144-0.732
		c-0.363-1.942-1.43-4.201-3.783-4.312c-13.905-0.652-27.582-1.365-41.51-0.829c-14.236,0.546-28.435,1.935-42.538,3.923
		c-26.923,3.795-53.256,10.368-78.816,19.604c-17.888,6.463-35.552,14.118-51.572,24.447c-13.93,8.982-29.714,21.692-30.639,39.443
		C79.889,462.895,85.622,460.033,86.267,457.683L86.267,457.683z"/>
	<path fill="#010101" d="M80.82,460.545c-3.53,8.335,14.859,13.083,19.767,14.473c5.144,1.457,10.419,2.489,15.712,3.22
		c2.246,0.309,4.53,0.452,6.794,0.525c2.9,0.09,1.719,0.841-0.369-1.081c1.309,1.207,2.7,1.605,4.469,1.391
		c8.274-1.005,10.756-14.632,1.007-12.028c-1.307,0.35-2.619,1.008-3.613,1.945c2.281-2.149,4.351-1.536,1.668-1.415
		c-1.63,0.073-3.271,0.024-4.898-0.066c-5.071-0.278-10.104-0.86-15.112-1.711c-4.572-0.778-9.186-1.846-13.565-3.388
		c-2.741-0.965-6.601-3.867-9.531-3.545C82.182,458.972,81.206,459.632,80.82,460.545L80.82,460.545z"/>
	<path fill="#010101" d="M130.565,470.701c-7.882,4.671-7.332,13.808,0.603,17.798c3.795,1.909,8.299,2.676,12.444,3.374
		c2.037,0.343,4.086,0.604,6.127,0.912c0.972,0.146,1.944,0.295,2.914,0.452c1.793,0.291-1.14-1.412,0.156-0.173
		c8.594,8.232,18.98-13.999,5.272-10.991c-1.271,0.278,0.115,0.097-1.623,0.042c-1.59-0.051-3.182-0.053-4.771-0.076
		c-3.396-0.048-6.802-0.32-10.166-0.793c-2.539-0.355-5.98-0.822-8.06-2.496c-2.044-1.645-0.727-4.508-0.393-6.651
		C133.308,470.554,131.774,469.985,130.565,470.701L130.565,470.701z"/>
	<path fill="#010101" d="M160.587,485.768c-6.542,7.536-2.673,17.96,5.706,21.681c4.591,2.039,9.958,2.062,14.883,2.278
		c7.63,0.333,15.275,0.068,22.876-0.632c14.095-1.298,28.344-4.829,41.146-10.921c4.788-2.278,9.39-4.948,14.069-7.435
		c1.803-0.958,3.621-1.945,5.506-2.739c-0.161,0.068,5.937-2.099,3.695-1.143c2.823-1.202,8.683-6.617,4.788-9.984
		c-5.802-5.014-15.934,2.903-21.281,5.942c-9.884,5.616-19.478,10.003-30.56,12.931c-13.206,3.489-27.261,4.321-40.875,4.023
		c-4.226-0.093-9.173-0.525-12.887-2.677c-4.243-2.459-2.165-7.902-3.413-11.619C163.644,483.695,161.348,484.891,160.587,485.768
		L160.587,485.768z"/>
	<path fill="#010101" d="M266.857,479.439c-2.456,5.56,3.557,10.575,7.794,13.018c5.981,3.446,13.768,4.076,20.504,4.234
		c6.505,0.153,13.507-0.718,19.537-3.255c3.241-1.364,6.01-3.137,8.383-5.749c-1.478,1.626,2.101-2.776,2.344-3.272
		c0.884-1.797,1.303-3.731,0.47-5.634c-2.151-4.904-8.762-2.38-11.145,0.903c-0.778,1.07-1.657,2.32-1.835,3.677
		c-0.168,1.275,2.547-2.861,0.993-1.41c-0.61,0.569,0.039,0.065-1.414,0.858c-0.743,0.404-1.475,0.644-2.342,0.955
		c-4.773,1.705-9.892,2.241-14.928,2.4c-5.296,0.166-10.35-0.652-15.4-2.195c-3.968-1.21-6.227-5.173-9.857-6.338
		C268.775,477.248,267.301,478.435,266.857,479.439L266.857,479.439z"/>
	<path fill="#010101" d="M320.345,477.688c2.498,11.434,16.984,16.325,26.77,19.638c15.63,5.291,31.981,7.611,48.414,8.362
		c14.498,0.663,30.106,0.085,43.839-5.069c10.634-3.991,21.201-12.763,19.673-25.288c-1.14-9.34-15.426-2.196-13.542,5.989
		c0.17,0.745,0.195,1.668-0.123,3.015c0.036-0.154-0.58,1.179-0.039,0.293c-0.257,0.42-2.105,2.484-0.914,1.3
		c-2.539,2.523-6.46,4.08-11.024,5.488c-12.804,3.954-26.874,4.22-40.155,3.798c-14.14-0.451-28.619-2.339-42.272-6.072
		c-9.509-2.6-20.384-6.662-27.683-13.555C321.973,474.345,320.026,476.224,320.345,477.688z"/>
	<path fill="#010101" d="M450.255,473.974c4.84,6.291,12.717,8.903,20.001,11.184c9.727,3.046,20.074,4.597,30.248,4.954
		c18.655,0.655,41.271-2.484,53.733-18.055c4.004-5.003,0.505-10.581-5.582-9.18c-1.168,0.162-2.269,0.535-3.298,1.115
		c0.292-0.166-4.552,3.648-2.451,2.173c-1.747,1.227-3.784,3.763-2.049,5.887c-0.023-0.241-0.044-0.479-0.067-0.721
		c0.235,2.232,1.494,3.564,3.628,4.135c0.486,0.129,0.971,0.26,1.457,0.389c-0.705-3.153-1.408-6.307-2.113-9.46
		c-10.292,11.038-28.136,12.344-42.283,12.419c-9.097,0.049-18.099-0.938-27.049-2.508c-7.54-1.323-14.897-3.547-22.492-4.538
		C450.896,471.634,449.46,472.94,450.255,473.974L450.255,473.974z"/>
	<path fill="#010101" d="M99.362,475.821c4.433,13.129,11.194,25.622,16.115,38.621c5.074,13.405,9.111,27.13,10.736,41.391
		c0.872,7.648,13.324,1.779,11.142-4.929c-0.882-2.715-2.501-3.749-5.125-4.559c-2.442-0.754-5.415,1.951-5.825,4.199
		c-0.336,1.842-0.251,3.43-0.192,5.288c3.714-1.643,7.428-3.286,11.142-4.929c-3.331-14.075-8.077-27.792-13.826-41.052
		c-5.417-12.499-11.572-26.213-19.892-37.083C102.089,470.746,98.685,473.816,99.362,475.821z"/>
	<path fill="#010101" d="M534.761,476.854c-10.327,9.183-14.028,24.991-17.657,37.761c-2.019,7.103-3.648,14.409-5.021,21.663
		c-0.417,2.202-0.45,4.521-0.618,6.752c-0.04,0.546,0.025,1.792-0.173,2.273c-1.223,2.969-0.89,1.184,0.43-0.279
		c2.263-0.752,4.526-1.503,6.789-2.255c-0.207-0.079-0.411-0.16-0.618-0.24c-3.271-1.259-7.701,1.633-7.42,5.335
		c0.035-0.106,0.072-0.211,0.107-0.313c-1.196,5.677,5.267,5.242,8.327,2.966c3.481-2.587,3.099-7.035,3.136-10.879
		c0.065-6.58,1.319-13.026,2.48-19.495c1.325-7.396,3.026-14.768,5.114-21.983c2.007-6.943,5.455-13.607,6.836-20.697
		C536.689,476.356,535.389,476.296,534.761,476.854L534.761,476.854z"/>
	<path fill="#010101" d="M129.822,555.948c0.433,5.626,5.233,9.66,9.492,12.877c-0.509-1.28-1.017-2.559-1.528-3.839
		c-2.013,9.944,4.847,14.673,13.421,17.33c2.984,0.924,6.055,1.754,9.118,2.396c1.423,0.297,2.849,0.573,4.269,0.88
		c1.24,0.268,2.313,0.268,3.548-0.095c0.791-0.234,3.44-1.204,0.828-0.317c-1.804-1.456-3.608-2.91-5.414-4.368
		c-1.936,6.041,14.293,1.179,9.25-5.044c-1.722-2.126-6.692-1.858-9.166-2.219c-2.557-0.372-5.039-0.921-8.826-1.805
		c-3.916-0.914-8.256-2.818-7.578-7.523c0.265-1.845-0.43-3.922-2.566-4.199c-5.184-0.674-8.11-3.582-12.628-5.67
		C131.076,553.903,129.742,554.891,129.822,555.948z"/>
	<path fill="#010101" d="M167.67,580.935c2.34,9.891,13.186,13.265,22.071,14.963c9.994,1.91,20.383,1.699,30.506,1.339
		c8.314-0.296,16.601-1.323,24.796-2.732c3.839-0.66,7.651-1.489,11.442-2.378c1.976-0.462,3.933-1.003,5.89-1.543
		c3.508-0.97-0.891,0.325,1.585-0.643c3.736-1.459,7.477-3.045,11.296-4.259c3.658-1.163,7.998-3.008,8.795-7.284
		c0.384-2.059-0.55-4.563-2.94-4.811c-3.048-0.317-5.455,1.21-7.261,3.56c-1.084,1.41-1.716,3.683-0.399,5.174
		c0.438,0.496,2.012,2.254,0.552,0.581c0.537-2.504,1.073-5.007,1.61-7.511c2.705-1.217,3.429-1.679,2.173-1.39
		c-0.856,0.174-1.685,0.699-2.441,1.135c-1.054,0.605-2.148,1.234-3.27,1.701c-3.054,1.265-6.137,2.468-9.197,3.727
		c-12.458,5.128-27.305,6.387-40.651,7.419c-15.781,1.221-39.146,3.708-50.625-9.854
		C170.017,576.252,167.238,579.107,167.67,580.935L167.67,580.935z"/>
	<path fill="#010101" d="M275.659,578.379c2.39,8.079,13.635,8.517,20.525,8.73c4.577,0.142,9.237-0.488,13.749-1.181
		c3.788-0.582,7.856-2.179,11.648-2.278c8.725-0.226,7.599-14.373-0.534-9.485c-5.335,3.206-14.169,3.646-20.203,4.223
		c-8.095,0.774-15.057-0.714-22.845-2.505C276.688,575.584,275.288,577.122,275.659,578.379L275.659,578.379z"/>
	<path fill="#010101" d="M322.682,578.328c4.652,16.45,30.846,18.181,44.543,19.439c24.347,2.238,47.57-0.41,70.793-8.106
		c2.782-0.923,6.058-4.022,5.618-7.271c-0.018-0.244-0.052-0.486-0.104-0.726c-0.59-2.862-3.118-4.652-6.092-3.42
		c-1.016,0.42-1.994,1.009-2.992,1.417c-4.115,1.68-7.719,9.488-0.796,9.507c0.964,0.002,1.915-0.072,2.878-0.064
		c-1.496-1.705-2.996-3.413-4.493-5.119c-0.049,0.253-0.083,0.508-0.102,0.766c1.833-1.948,3.666-3.898,5.499-5.845
		c-10.912,4.368-21.931,7.99-33.6,9.639c-10.36,1.464-20.792,1.211-31.214,0.903c-15.938-0.471-34.982-1.551-47.118-13.136
		C324.29,575.156,322.279,576.909,322.682,578.328L322.682,578.328z"/>
	<path fill="#010101" d="M441.275,569.388c4.7,12.766,24.902,9.867,34.757,7.173c13.28-3.632,26.735-11.241,35.884-21.61
		c3.661-4.15,0.315-9.342-4.847-7.972c-1.766,0.469-3.052,1.324-4.493,2.418c-2.028,1.536-2.995,4.603-1.447,6.749
		c0.937,1.299,2.054,1.64,3.524,2.103c-0.611-2.739-1.223-5.476-1.835-8.215c-6.596,7.836-16.446,13.256-25.887,16.844
		c-5.408,2.056-11.091,3.246-16.868,3.504c-5.887,0.26-10.722-2.229-16.214-3.739C442.475,566.267,440.782,568.049,441.275,569.388
		L441.275,569.388z"/>
	<path fill="#010101" d="M155.593,511.17c4.596,16.586,7.816,34.021,10.126,51.082c0.54,3.991,1.953,30.727,10.275,25.978
		c4.19-2.39,1.437-6.722,0.308-9.976c-2.171-6.255-3.083-13.035-4.321-19.517c-3.212-16.815-9.717-32.103-15.297-48.189
		C156.459,509.896,155.435,510.601,155.593,511.17L155.593,511.17z"/>
	<path fill="#010101" d="M137.44,521.002c3.37,13.719,7.194,28.091,8.432,42.177c0.252,2.874-1.398,17.946,4.891,15.4
		c1.325-0.537,3.221-2.031,2.883-3.729c-0.349,1.349-0.385,1.632-0.109,0.841c0.321-0.841,0.396-1.518,0.346-2.407
		c-0.084-1.506-0.707-3.116-0.962-4.608c-0.537-3.144-0.931-6.294-1.632-9.409c-3.013-13.414-8.298-25.947-12.788-38.869
		C138.28,519.757,137.306,520.456,137.44,521.002z"/>
	<path fill="#010101" d="M324.385,498.926c-0.253,13.621-1.081,27.21-1.025,40.869c0.051,12.718,0.059,25.43-0.09,38.148
		c-0.01,0.892,0.559,1.767,1.328,2.185c0.277,0.151,0.554,0.303,0.832,0.453c1.387,0.754,2.898-0.26,3.799-1.263
		c3.524-3.922,1.588-10.553,1.335-15.402c-0.386-7.35-0.939-14.679-1.539-22.013c-1.174-14.344-3.198-28.97-3.527-43.334
		C325.482,497.845,324.395,498.364,324.385,498.926L324.385,498.926z"/>
	<path fill="#010101" d="M451.565,501.063c-4.373,13.6-4.631,28.221-6.087,42.345c-0.864,8.374-1.741,16.79-3.367,25.055
		c-0.726,3.682-2.315,11.333-4.764,12.844c-3.179,1.961-3.56,7.693,1.323,6.378c5.775-1.554,8.079-8.095,9.516-13.238
		c2.231-7.989,2.849-16.563,3.379-24.807c0.606-9.441,0.665-18.938,0.796-28.396c0.09-6.534-0.829-13.834,0.296-20.27
		C452.796,500.174,451.733,500.541,451.565,501.063L451.565,501.063z"/>
	<path fill="#010101" d="M463.13,227.639c-14.082,8.041-23.5,20.396-31.93,34.014c-9.591,15.498-17.718,31.984-25.529,48.431
		c-8.73,18.383-16.393,37.214-22.78,56.54c-3.275,9.911-6.056,19.987-8.303,30.18c-1.033,4.686-1.603,9.463-2.195,14.221
		c-0.48,3.858-1.654,9.793,0.072,13.408c3.068,6.423,13.732-0.657,11.35-6.47c-0.528-1.288-1.479-2.198-2.223-3.332
		c-2.522-3.851-9.283,0.987-9.585,4.298c-0.166,1.825-0.346,3.78,0.459,5.505c3.783-2.156,7.567-4.314,11.35-6.47
		c-1.535-2.851,0.137-8.918,0.534-11.952c0.623-4.773,1.415-9.431,2.456-14.133c1.953-8.821,4.39-17.523,7.077-26.145
		c5.738-18.41,13.112-36.329,20.918-53.948c6.695-15.108,13.739-30.156,21.414-44.792c7.108-13.551,16.049-27.811,27.851-37.796
		C465.03,228.381,464.338,226.951,463.13,227.639L463.13,227.639z"/>
	<path fill="#010101" d="M461.306,253.145c-3.981,6.046-8.772,11.416-12.533,17.674c-4.286,7.135-8.032,14.574-11.6,22.092
		c-6.818,14.375-12.302,29.261-16.902,44.483c-9.224,30.53-13.873,62.525-14.283,94.394c4.001-1.282,8.003-2.565,12.004-3.848
		c-0.157-2.744-0.673-4.747-1.928-7.211c-1.763-3.46-6.739-1.303-7.898,1.609c-1.276,3.201-1.988,6.005-2.178,9.449
		c-0.403,7.344,12.049,2.621,12.004-3.848c-0.21-30.27,4.208-60.25,11.814-89.509c3.9-14.999,8.859-29.781,14.607-44.17
		c2.805-7.022,6.033-13.835,9.16-20.713c2.957-6.499,5.488-13.791,9.145-19.913C463.293,252.677,461.792,252.406,461.306,253.145
		L461.306,253.145z"/>
	<path fill="#010101" d="M325.531,241.212c1.74-16.331,18.042-27.79,31.088-35.356c12.061-6.995,25.703-10.321,39.477-11.794
		c14.506-1.551,29.963-0.763,43.662,4.602c6.281,2.458,12.012,6.069,16.8,10.817c5.87,5.824,8.761,13.606,13.222,20.428
		c2.094-3.401,4.186-6.8,6.279-10.201c-1.551-0.07-3.011-0.427-4.51-0.799c-3.369-0.838-7.622,3.415-6.354,6.772
		c1.259,3.331,3.397,5.03,6.932,5.517c5.063,0.697,10.999-5.291,7.733-10.135c-4.863-7.213-8.01-14.933-14.377-21.08
		c-5.81-5.61-13.07-9.48-20.649-12.098c-16.182-5.593-33.858-5.614-50.628-3.051c-15.843,2.421-30.684,7.507-44.137,16.288
		c-12.987,8.478-31.001,23.485-28.789,40.949C321.604,244.629,325.324,243.15,325.531,241.212L325.531,241.212z"/>
	<path fill="#010101" d="M323.82,243.922c10.312-5.934,19.912-12.455,31.016-16.971c12.391-5.04,25.619-8.114,38.898-9.53
		c25.487-2.719,52.858,1.157,74.022,16.417c5.184,3.738,13.957-6.369,8.067-10.649c-3.146-2.286-5.17-1.058-8.6-1.118
		c-2.659-0.048-5.515,3.682-3.713,6.033c1.254,1.633,1.403,3.317,3.178,4.888c3.045-3.268,6.089-6.534,9.135-9.801
		c-22.738-16.393-52.727-19.649-79.868-16.141c-14.247,1.839-28.246,5.716-41.325,11.66c-11.699,5.316-24.919,12.626-32.17,23.666
		C321.745,243.461,322.588,244.63,323.82,243.922L323.82,243.922z"/>
	<path fill="#010101" d="M479.651,231.546c12.947-7.81,30.859-7.19,45.203-5.267c12.208,1.635,23.356,5.756,34.252,11.408
		c20.635,10.704,44.639,31.256,39.4,57.149c2.794-2.014,5.59-4.03,8.384-6.045c-1.874-0.607-3.604-0.72-5.56-0.681
		c-2.336,0.045-5.426,2.807-5.006,5.321c0.486,2.909,1.694,4.343,4.043,6.08c3.594,2.657,8.95-2.282,9.648-5.607
		c6.36-30.27-19.453-53.243-43.897-65.472c-12.723-6.365-26.47-9.774-40.609-10.799c-16.874-1.223-33.915,0.773-46.669,12.558
		C478.055,230.914,478.591,232.185,479.651,231.546L479.651,231.546z"/>
	<path fill="#010101" d="M483.002,235.992c4.969-0.436,10.195,1.149,15.114,1.628c5.238,0.51,10.407,1.567,15.52,2.792
		c11.504,2.758,22.601,7.129,33.105,12.543c19.35,9.973,37.315,24.553,46.443,44.707c2.34-3.037,4.681-6.075,7.022-9.111
		c-0.89-0.129-1.768-0.072-2.632,0.177c-2.482,0.441-6.529,3.394-4.981,6.462c0.104,0.374,0.209,0.747,0.312,1.12
		c0.621,8.104,14.652,1.863,11.829-5.232c-8.817-22.158-29.629-38.089-50.637-47.833c-11.133-5.163-23.062-8.775-35.197-10.592
		c-5.7-0.855-11.474-1.182-17.234-1.208c-6.461-0.03-12.153,2.038-18.38,3.218C482.616,234.789,482.004,236.078,483.002,235.992
		L483.002,235.992z"/>
	<path fill="#010101" d="M330.863,297.284c10.537-48.63,72.27-68.332,116.275-62.283c1.314-3.843,2.629-7.686,3.943-11.528
		c-3.192,0.612-6.069,1.261-8.422,3.656c-1.018,1.037-1.975,2.489-1.398,4.009c1.005,2.65,3.297,3.301,5.877,3.863
		c6.396,1.395,12.832-10.527,5.402-11.461c-27.407-3.448-56.129,2.367-80.807,14.464c-23.197,11.369-45.144,32.219-43.659,59.843
		C328.171,299.618,330.614,298.43,330.863,297.284L330.863,297.284z"/>
	<path fill="#010101" d="M330.202,304.27c9.269-7.033,17.482-15.491,26.713-22.637c9.559-7.402,20.168-13.529,30.897-19.049
		c21.896-11.265,45.39-19.2,69.139-25.513c5.388-1.433,8.845-12,0.953-11.374c-3.766,0.3-7.249,1.662-9.907,4.396
		c-2.104,2.166-3.549,6.429,0.472,7.471c2.341,0.605,4.554,0.019,6.931-0.183c0.317-3.791,0.636-7.581,0.953-11.374
		c-24.824,6.733-49.289,15.3-72.074,27.334c-11.698,6.179-22.747,13.505-32.998,21.868c-8.894,7.258-18.961,16.985-22.973,28.02
		C327.787,304.667,329.213,305.021,330.202,304.27L330.202,304.27z"/>
	<path fill="#010101" d="M474.317,237.906c5.846,0.302,13.095,3.521,18.538,5.653c5.967,2.338,11.749,5.139,17.167,8.566
		c11.126,7.035,20.808,17.237,27.271,28.702c6.15,10.91,9.096,23.2,8.38,35.699c-0.85,14.858-9.668,25.495-17.07,37.54
		c-2.013,3.276,0.344,7.211,4.203,4.792c26.838-16.825,29.843-55.608,16.429-81.746c-6.89-13.428-17.487-24.32-30.26-32.242
		c-6.151-3.815-13.095-6.888-20.143-8.556c-3.48-0.824-7.099-1.447-10.675-1.585c-4.494-0.171-8.679,0.898-13.104,1.033
		C474.067,235.793,472.984,237.837,474.317,237.906L474.317,237.906z"/>
	<path fill="#010101" d="M469.477,249.654c9.233,8.323,19.005,15.628,27.546,24.763c7.154,7.651,13.526,15.943,19.13,24.788
		c5.93,9.362,10.704,19.624,13.406,30.389c1.191,4.739,1.524,9.846,0.694,14.663c-0.679,3.942-4.821,8.442-3.052,12.417
		c0.593,1.333,1.971,2.131,3.444,1.921c11.645-1.652,12.727-19.687,11.69-28.63c-1.423-12.254-7.056-23.796-13.338-34.237
		c-6.163-10.242-13.35-19.407-21.679-27.962c-9.868-10.137-22.025-19.797-36.843-19.729
		C469.873,248.037,468.848,249.086,469.477,249.654L469.477,249.654z"/>
	<path fill="#010101" d="M432.686,170.529c13.003,1.876,23.666,12.939,30.477,23.469c3.714,5.742,6.647,12.442,8.03,19.149
		c0.644,3.122,0.931,6.455,0.624,9.633c-0.274,2.851-1.592,5.507-1.467,8.385c0.151,3.459,4.658,3.125,6.487,1.269
		c11.143-11.296,1.72-33.005-5.481-43.798c-8.219-12.321-22.482-24.178-38.227-20.178
		C432.347,168.657,431.429,170.347,432.686,170.529L432.686,170.529z"/>
	<path fill="#010101" d="M431.951,171.714c7.984-3.915,18.628-1.713,26.666,0.857c8.777,2.808,15.731,7.553,20.892,15.276
		c4.278,6.402,5.876,14.816,4.754,22.361c-1.402,9.431-8.351,14.169-13.062,21.708c-0.911,1.457-0.959,4.169,1.526,3.832
		c11.193-1.521,18.192-13.94,20.815-23.949c2.703-10.317,0.037-20.99-5.464-29.855c-6.092-9.817-16.104-14.695-26.919-17.357
		c-9.034-2.224-24.415-2.822-30.173,6.027C430.458,171.426,431.072,172.145,431.951,171.714L431.951,171.714z"/>
	<path fill="#010101" d="M485.946,217.765c6.578-6.245,14.213-11.705,22.55-15.33c4.296-1.869,8.804-2.893,13.462-2.053
		c5.503,0.993,7.341,6.639,12.226,7.946c1.977,0.528,3.739-1.638,3.847-3.376c0.318-5.154-6.095-9.202-10.571-10.525
		c-5.624-1.665-11.295-0.797-16.726,1.162c-10.52,3.797-19.533,12.301-26.047,21.175
		C483.969,217.745,485.124,218.543,485.946,217.765z"/>
	<path fill="#010101" d="M501.402,216.861c3.174-3.799,8.56-5.503,13.111-6.969c3.329-1.072,11.945-3.831,15.26-1.568
		c-0.116-1.68-0.229-3.362-0.345-5.042c-0.024,0.039-0.05,0.077-0.074,0.118c1.254-0.729,2.507-1.457,3.761-2.185
		c-0.198,0.033-0.397,0.067-0.594,0.1c-2.802,0.469-6.583,4.496-3.234,6.833c0.137,0.095,0.274,0.192,0.411,0.287
		c1.769,1.234,4.505-0.427,5.558-1.846c0.027-0.037,0.057-0.075,0.083-0.114c0.782-1.055,1.683-3.421,0.347-4.494
		c-4.895-3.93-14.796-0.042-19.988,1.957c-6.491,2.499-11.987,6.301-15.989,12.007C498.744,217.318,500.502,217.938,501.402,216.861
		z"/>
	<path fill="#010101" d="M281.744,402.423c1.105,5.612,19.591-2.306,22.157-3.18c7.255-2.472,14.446-4.718,21.999-6.068
		c17.579-3.141,35.489-4.343,53.31-3.327c4.139,0.236,7.969-1.846,9.78-5.701c1.877-3.99-0.193-8.635-5.021-8.211
		c-3.382,0.296-6.498,1.219-8.9,3.739c-1.571,1.648-2.946,3.719-2.126,6.098c0.979,2.837,3.454,3.815,6.266,4.075
		c1.586-4.637,3.174-9.275,4.759-13.913c-20.406,1.254-41.053,2.988-61.012,7.602c-9.19,2.124-17.788,5.875-26.511,9.374
		C292.797,394.375,280.587,396.542,281.744,402.423L281.744,402.423z"/>
	<path fill="#010101" d="M413.495,389.948c9.851,2.827,19.557,4.997,28.955,9.284c9.982,4.553,19.737,9.556,29.391,14.764
		c9.431,5.086,18.341,10.22,27.149,16.322c10.25,7.096,20.42,14.461,29.824,22.659c3.655,3.186,7.234,6.507,10.393,10.194
		c1.397,1.632,1.709,2.163,1.99,3.041c-0.125-0.387-0.339-3.636-0.134,0.225c0.036,0.698,0.191,1.363,0.46,1.992
		c1.608,3.998-0.12-1.654,0.024-2.445c-0.611,3.363,1.63,6.495,5.288,6.028c5.793-0.739,12.55-7.576,8.953-13.617
		c-2.409-4.046-5.748-7.319-9.263-10.412c-10.485-9.22-22.188-17.235-33.783-24.975c-9.696-6.471-19.4-12.467-29.989-17.354
		c-10.961-5.057-21.979-10.109-33.394-14.07c-10.719-3.72-22.174-8.028-33.64-8.131
		C412.614,383.423,409.572,388.822,413.495,389.948L413.495,389.948z"/>
	<path fill="#010101" d="M368.961,425.499c-1.909,8.383,14.985,11.405,20.244,12.31c5.636,0.97,11.405,1.255,17.116,1.3
		c4.2,0.033,10.585,0.71,14.177-1.776c6.503-4.5,4.814-14.02-3.885-10.156c-0.975,0.434-1.761,1.118-2.506,1.864
		c-2.084,2.086-4.767,8.869,0.58,9.187c0.341,0.007,0.679,0.033,1.015,0.082c-0.952-2.373-1.903-4.746-2.854-7.119
		c-0.084,0.228-0.168,0.456-0.253,0.686c1.719-1.507,3.435-3.015,5.154-4.521c-7.462,2.593-16.715,2.32-24.483,1.845
		c-4.282-0.262-8.517-0.946-12.634-2.153c-2.889-0.847-5.616-3.561-8.531-3.811C370.676,423.112,369.285,424.077,368.961,425.499
		L368.961,425.499z"/>
	<path fill="#010101" d="M420.358,428.98c2.741-17.9,19.47-32.216,37.534-32.153c0.261-3.12,0.523-6.243,0.785-9.363
		c-9.625,3.303-17.745,9.334-24.698,16.675c-3.369,3.557-6.229,7.363-9.009,11.383c-1.172,1.694-2.37,3.369-3.602,5.02
		c-0.493,0.661-3.562,3.851-2.89,3.236c-4.374,4.004-3.092,10.921,3.653,9.389c6.886-1.566,10.849-11.352,14.045-16.802
		c5.01-8.542,13.933-15.972,22.991-19.794c3.853-1.624,7.707-9.7,0.785-9.363c-20.17,0.98-49.041,19.526-42.664,42.763
		C417.741,431.611,420.192,430.069,420.358,428.98z"/>
	<path fill="#010101" d="M329.324,379.451c0.446,0.841,0.765,1.67,1.306,2.475c0.59,0.878,1.259,1.591,2.282,1.971
		c1.162,0.433,2.143,0.55,3.356,0.162c1.309-0.418,2.479-1.284,3.305-2.374c0.733-0.97,1.242-2.19,1.176-3.426
		c-0.066-1.226-0.662-1.913-1.588-2.614c-1.663-1.256-3.972-1.309-5.963-1.222c-1.247,0.056-2.462,0.889-3.194,1.855
		C329.412,377.062,328.806,378.472,329.324,379.451L329.324,379.451z"/>
	<path fill="#010101" d="M93.553,548.336c-11.991-0.528-24.582,3.699-35.395,8.465c-9.324,4.111-22.068,11.008-23.51,22.337
		c-0.103,0.806,0.177,1.483,1.026,1.68c25.642,6.002,55.996-8.136,79.675,6.108c0.083-1.075,0.166-2.153,0.25-3.228
		c-8.57,9.088-22.959,10.145-34.631,11.729c-11.87,1.61-24.483,2.626-35.251,8.317c-1.164,0.617-2.331,2.758-0.78,3.639
		c8.514,4.836,18.434,5.606,28.017,6.178c12.162,0.728,24.171,2.403,36.308,3.431c26.219,2.221,52.897,2.391,79.124,0.497
		c1.23-0.089,2.763-2.677,0.962-2.811c-25.171-1.868-50.437-0.704-75.634-2.394c-11.379-0.763-22.669-2.464-34.061-2.979
		c-10.696-0.485-22.2-0.423-31.829-5.733c-0.26,1.213-0.52,2.426-0.78,3.639c11.757-6.365,26.128-6.832,39.099-8.733
		c10.976-1.608,23.761-3.731,31.815-12.095c0.825-0.858,1.575-2.411,0.25-3.229c-24.195-14.949-54.675,0.006-80.801-6.005
		c0.343,0.56,0.685,1.12,1.026,1.68c1.327-10.724,14.926-16.621,23.633-20.214c9.672-3.991,20.518-7.291,31.005-8.026
		C94.31,550.503,95.204,548.408,93.553,548.336L93.553,548.336z"/>
	<path fill="#010101" d="M255.425,617.668c15.394,7.067,33.07,8.607,49.704,5.061c8.889-1.894,19.342-6.589,28.407-3.308
		c3.48,1.26,6.662,3.532,9.927,5.248c4.046,2.123,8.367,2.579,12.849,3.137c20.631,2.565,42.089,0.772,62.702-1.158
		c22.994-2.152,46.174-3.462,69.091-5.959c1.326-0.144,3.154-2.831,1.078-3.153c-20.389-3.166-41.921,0.756-62.312,2.869
		c-21.886,2.267-44.331,4.527-66.341,3.055c-4.817-0.321-9.65-0.716-14.066-2.755c-3.42-1.579-6.607-3.581-10.095-5.027
		c-6.502-2.693-14.112-0.987-20.674,0.508c-9.505,2.163-18.353,4.119-28.155,4.192c-9.951,0.074-21.447-0.858-30.852-4.383
		C255.784,615.658,254.379,617.188,255.425,617.668L255.425,617.668z"/>
	<path fill="#010101" d="M435.248,604.938c30.871-1.344,61.268-5.555,92.033-0.592c13.279,2.143,26.765,0.698,39.906-1.646
		c13.399-2.389,26.936-4.874,40.225-7.777c2.346-0.512,3.655-4.935,0.4-4.761c-13.258,0.708-26.508,4.849-39.509,7.334
		c-14.493,2.768-28.506,3.308-43.16,1.618c-29.829-3.438-59.752,2.023-89.478,3.874C434.588,603.057,433.831,605,435.248,604.938z"
		/>
	<path fill="#010101" d="M276.278,349.882c13.941,0.3,27.887,0.363,41.828,0.672c14.086,0.309,28.105,2.254,42.17,2.471
		c1.09,0.017,2.097-1.821,0.768-2.242c-12.641-3.998-26.769-3.836-39.919-3.964c-14.813-0.143-29.607,0.685-44.411,1.039
		C275.584,347.885,274.805,349.851,276.278,349.882L276.278,349.882z"/>
	<path fill="#010101" d="M305.399,331.244c2.399,2.021,6.278,1.634,9.221,1.766c5.809,0.259,11.643,0,17.457,0.074
		c9.215,0.118,18.439,0.129,27.649,0.554c9.24,0.426,18.343,2.052,27.568,2.608c0.789,0.048,2.353-1.388,1.171-1.923
		c-14.028-6.358-31.872-4.941-46.924-4.665c-11.638,0.213-23.578,1.326-35.196,0.349
		C305.871,329.964,304.799,330.737,305.399,331.244L305.399,331.244z"/>
	<path fill="#010101" d="M447.405,342.066c12.184-0.191,24.339-0.735,36.517-1.095c13.087-0.388,26.037,0.488,39.109,0.661
		c1.067,0.015,2.005-1.732,0.74-2.165c-11.754-4.027-24.629-3.296-36.855-2.593c-13.1,0.752-26.08,2.992-39.184,3.665
		C446.888,340.581,446.29,342.083,447.405,342.066z"/>
	<path fill="#010101" d="M521.314,370.578c12.846-0.09,26.049-0.593,38.781-2.337c0.974-0.133,2.418-2.178,0.82-2.393
		c-12.732-1.721-25.931,0.607-38.731,0.679C519.918,366.539,518.376,370.597,521.314,370.578z"/>
	<path fill="#010101" d="M265.196,498.391c4.089,13.503,6.593,27.686,8.846,41.592c2.118,13.065,3.218,26.637,6.571,39.456
		c0.991,3.789,7.72,0.093,7.07-3.128c-2.599-12.908-5.617-25.781-8.325-38.68c-2.932-13.962-6.361-27.245-12.758-40.041
		C266.198,496.788,264.977,497.664,265.196,498.391L265.196,498.391z"/>
</g>
<path fill="#010101" d="M163.276,342.571c2.399,2.021,6.278,1.634,9.221,1.766c5.809,0.259,11.643,0,17.457,0.074
	c9.215,0.118,18.439,0.129,27.649,0.554c9.24,0.426,18.343,2.052,27.568,2.608c0.789,0.048,2.353-1.388,1.171-1.923
	c-14.028-6.358-31.872-4.941-46.924-4.665c-11.638,0.213-23.578,1.326-35.196,0.349
	C163.747,341.292,162.675,342.065,163.276,342.571L163.276,342.571z"/>
<path fill="#010101" d="M65.788,366.352c2.399,2.021,6.278,1.634,9.221,1.766c5.809,0.259,11.643,0,17.457,0.074
	c9.215,0.118,18.439,0.129,27.649,0.554c9.24,0.426,18.343,2.052,27.568,2.608c0.789,0.048,2.353-1.387,1.171-1.923
	c-14.028-6.358-31.872-4.941-46.924-4.666c-11.638,0.213-23.578,1.326-35.196,0.349C66.26,365.072,65.188,365.846,65.788,366.352
	L65.788,366.352z"/>
<path fill="#010101" d="M23.953,351.481c2.399,2.021,6.278,1.634,9.221,1.766c5.809,0.259,11.643,0,17.457,0.074
	c9.215,0.118,18.439,0.129,27.649,0.554c9.24,0.426,18.343,2.052,27.568,2.608c0.789,0.048,2.353-1.387,1.171-1.923
	c-14.028-6.358-31.872-4.941-46.924-4.665c-11.638,0.213-23.578,1.326-35.196,0.349C24.424,350.201,23.352,350.974,23.953,351.481
	L23.953,351.481z"/>
</svg>
