<?xml version="1.0" encoding="utf-8"?>
<!-- Generator: Adobe Illustrator 23.0.1, SVG Export Plug-In . SVG Version: 6.00 Build 0)  -->
<svg version="1.1" id="Layer_4" xmlns="http://www.w3.org/2000/svg" xmlns:xlink="http://www.w3.org/1999/xlink" x="0px" y="0px"
	 viewBox="0 0 566.93 566.93" enable-background="new 0 0 566.93 566.93" xml:space="preserve">
<g>
	<g>
		<path d="M173.753,17.836C188.6,86.648,180,157.794,148.88,220.99c-9.868,20.039-21.776,38.991-35.144,56.872
			c-3.127,4.182,9.898,9.741,11.537,10.322c39.751,14.096,82.096,20.754,124.015,24.019c47.595,3.707,95.768,2.35,143.038-4.393
			c26.112-3.725,51.982-9.262,77.15-17.192c4.735-1.492,1.689-5.805-1.081-7.848c-36.26-26.744-54.349-70.941-61.914-114.702
			c-6.731-38.938-6.333-79.038-2.087-118.232c1.07-9.876,2.572-19.68,3.987-29.508c0.167-1.156,0.557-2.642,0.471-3.778
			c-0.355-4.656-6.474-7.478-10.261-8.931c-4.093-1.571-8.086-1.588-12.358-1.605c-33.626-0.131-67.284,0.728-100.892,1.686
			c-20.366,0.581-40.734,1.281-61.08,2.384c-14.303,0.775-28.888,1.281-43.033,3.692c-1.636,0.279-3.273,0.586-4.861,1.073
			c-4.816,1.478-1.527,5.791,1.081,7.848c3.529,2.783,10.523,6.314,15.27,4.858c3.486-1.069,7.201-1.474,10.807-1.907
			c2.817-0.339,5.64-0.617,8.466-0.87c0.68-0.061,1.36-0.12,2.04-0.178c0.909-0.078-0.191,0.014-0.312,0.024
			c0.48-0.039,0.961-0.078,1.441-0.115c1.762-0.136,3.524-0.269,5.286-0.393c17.071-1.202,34.177-1.919,51.277-2.538
			c35.56-1.288,71.146-2.052,106.727-2.412c5.926-0.06,11.852-0.111,17.778-0.109c1.791,0.001,3.582-0.003,5.372,0.029
			c0.546,0.01,1.105,0.055,1.651,0.036c0.149-0.005,0.317,0.043,0.464,0.02c-0.869,0.136-7.384-1.838-7.658-1.975
			c-2.732-2.103-5.463-4.207-8.195-6.31c-0.772-1.216-0.37-2.534-0.614-0.969c-0.226,1.448-0.431,2.9-0.652,4.349
			c-0.786,5.174-1.539,10.353-2.21,15.544c-2.245,17.358-3.763,34.816-4.335,52.312c-1.528,46.669,3.087,95.017,22.282,138.072
			c11.515,25.829,29.048,48.763,51.872,65.596c-0.36-2.616-0.721-5.232-1.081-7.848c-43.751,13.785-89.639,20.555-135.394,22.572
			c-44.417,1.958-89.229-0.232-133.057-7.886c-20.999-3.667-41.062-8.458-61.2-15.599c3.846,3.441,7.691,6.881,11.537,10.322
			c44.47-59.485,70.058-131.17,67.499-205.83c-0.657-19.155-3.139-38.194-7.18-56.924c-1.022-4.737-7.564-7.684-11.688-8.958
			C181.701,15.01,172.746,13.17,173.753,17.836L173.753,17.836z"/>
	</g>
</g>
<g>
	<g>
		<path d="M408.965,306.653c0,32.077,0,64.154,0,96.231c0,4.59,0,9.179,0,13.769c0,3.003,0.848,9.878,5,10c4.111,0.121,5-7.38,5-10
			c0-32.077,0-64.154,0-96.231c0-4.59,0-9.179,0-13.769c0-3.003-0.848-9.878-5-10C409.854,296.532,408.965,304.033,408.965,306.653
			L408.965,306.653z"/>
	</g>
</g>
<path d="M247.456,306.653h88.893c0,0,0-21.638,0,27.068c114.72,155.084,0,214.088,0,214.088s23.077-0.121,23.077,11.429
	c0,8.723-11.665,7.593-23.077,7.593c-36.938,0-50.453,0-88.893,0c-8.609,0-21.322,1.454-21.322-6.781
	c0-13.534,21.322-12.241,21.322-12.241s-110.515-59.489,0-215.057C247.456,293.496,247.456,306.653,247.456,306.653z"/>
</svg>
