<?xml version="1.0" encoding="utf-8"?>
<!-- Generator: Adobe Illustrator 15.1.0, SVG Export Plug-In . SVG Version: 6.00 Build 0)  -->
<!DOCTYPE svg PUBLIC "-//W3C//DTD SVG 1.1//EN" "http://www.w3.org/Graphics/SVG/1.1/DTD/svg11.dtd">
<svg version="1.1" id="Layer_2" xmlns="http://www.w3.org/2000/svg" xmlns:xlink="http://www.w3.org/1999/xlink" x="0px" y="0px"
	 width="566.93px" height="566.93px" viewBox="0 0 566.93 566.93" enable-background="new 0 0 566.93 566.93" xml:space="preserve">
<g>
	<path fill="#231F20" d="M330.348,550.143c-2.086-7.6-4.969-14.902-8.415-21.925c-3.426-7.032-7.439-13.759-11.778-20.261
		c-8.643-13.04-18.744-25.068-29.251-36.707c-10.562-11.606-21.747-22.673-33.099-33.592c-11.367-10.908-22.994-21.585-34.63-32.296
		c-23.307-21.384-46.804-42.768-69.111-65.643c-11.138-11.448-21.988-23.265-32.14-35.771c-5.072-6.255-9.945-12.696-14.604-19.319
		c-4.616-6.652-9.014-13.491-13.03-20.586c-8.033-14.168-14.587-29.417-18.41-45.522c-3.838-16.071-4.565-33.04-1.625-49.301
		c2.883-16.292,9.325-31.642,17.723-45.466c1.051-1.732,2.139-3.438,3.249-5.127l0.309-0.459l0.222-0.298l0.442-0.596l0.907-1.209
		l1.838-2.396c2.478-3.17,5.027-6.287,7.671-9.325c5.306-6.058,10.996-11.807,17.161-17.033c6.179-5.2,12.79-9.946,19.931-13.809
		c7.106-3.909,14.713-6.97,22.613-8.94c7.891-2.01,16.068-2.855,24.201-2.662c8.138,0.204,16.218,1.5,24.053,3.595
		c7.836,2.111,15.416,5.077,22.668,8.653c7.264,3.559,14.239,7.683,20.872,12.296c6.628,4.621,12.951,9.674,18.942,15.126
		c5.973,5.484,11.627,11.302,16.705,17.904l-7.478,0.358c1.379-2.435,2.889-4.525,4.459-6.562c1.573-2.024,3.212-3.95,4.9-5.817
		c3.377-3.732,6.942-7.235,10.648-10.578c7.417-6.675,15.397-12.706,23.882-18.038c8.495-5.308,17.532-9.853,27.042-13.408
		c9.5-3.569,19.54-6,29.834-6.974c10.282-0.974,20.837-0.442,31.037,1.881c10.207,2.287,20.009,6.289,28.952,11.548
		c8.959,5.257,17.072,11.727,24.36,18.87c7.299,7.146,13.759,14.995,19.598,23.185l0.2,0.281l0.236,0.415
		c5.015,8.804,9.429,18.016,13.038,27.591c3.622,9.567,6.406,19.515,8.142,29.678c3.574,20.32,2.778,41.428-1.863,61.407
		c-2.316,9.997-5.515,19.735-9.399,29.126c-3.914,9.382-8.505,18.416-13.575,27.111c-5.054,8.707-10.656,17.035-16.581,25.07
		c-5.926,8.036-12.192,15.773-18.696,23.265c-12.981,15.015-27.077,28.882-41.537,42.206c-3.621,3.327-7.271,6.616-10.945,9.872
		c-3.688,3.24-7.405,6.441-11.138,9.619c-7.467,6.353-15.007,12.595-22.577,18.778c-7.569,6.185-15.227,12.241-22.826,18.344
		l-11.378,9.162c-3.786,3.055-7.567,6.111-11.306,9.211c-7.47,6.203-14.835,12.517-21.771,19.229
		c-3.455,3.365-6.769,6.866-9.792,10.58c-2.982,3.723-5.739,7.708-7.257,12.176l-1.543-0.422c0.56-2.471,1.5-4.826,2.625-7.06
		c1.124-2.238,2.421-4.373,3.806-6.438c2.767-4.136,5.917-7.961,9.154-11.683c6.496-7.431,13.511-14.32,20.598-21.086
		c7.086-6.771,14.318-13.354,21.567-19.893l21.699-19.604c28.842-26.092,57.074-52.798,81.414-82.458
		c12.165-14.8,23.195-30.43,32.406-46.906c4.598-8.239,8.69-16.713,12.127-25.396c3.476-8.665,6.279-17.55,8.268-26.575
		c1.983-9.023,3.22-18.175,3.491-27.354c0.274-9.176-0.316-18.366-1.816-27.437c-1.52-9.065-3.872-18.017-7-26.743
		c-3.13-8.726-7.025-17.223-11.531-25.435l0.437,0.695c-5.254-7.637-11.039-14.843-17.413-21.371
		c-6.379-6.517-13.39-12.321-21.019-17.012c-7.622-4.693-15.866-8.25-24.49-10.373c-8.62-2.123-17.593-2.881-26.572-2.26
		c-17.984,1.26-35.786,7.55-51.976,16.719c-8.123,4.563-15.898,9.857-23.154,15.769c-3.623,2.958-7.119,6.074-10.395,9.355
		c-1.636,1.64-3.216,3.324-4.696,5.046c-1.471,1.716-2.873,3.501-3.962,5.225l-3.686,5.834l-3.792-5.476
		c-4.28-6.181-9.428-12.029-14.864-17.511c-5.453-5.491-11.316-10.606-17.521-15.26c-6.202-4.656-12.721-8.907-19.576-12.522
		c-6.862-3.592-14.03-6.595-21.438-8.784c-7.399-2.208-15.056-3.525-22.75-3.803c-7.693-0.299-15.413,0.529-22.881,2.379
		c-7.466,1.873-14.656,4.819-21.39,8.593c-6.717,3.809-13.014,8.384-18.786,13.563c-5.79,5.162-11.106,10.864-15.991,16.92
		c-2.452,3.021-4.797,6.132-7.031,9.325l-1.662,2.4l-0.818,1.208l-0.413,0.617l-0.207,0.309c-0.057,0.083,0.118-0.175,0,0.009
		l-0.093,0.156c-0.992,1.665-1.961,3.342-2.891,5.038c-3.714,6.783-6.938,13.81-9.389,21.069c-2.465,7.251-4.218,14.703-5.16,22.228
		c-1.938,15.063-0.424,30.341,3.728,44.892c4.096,14.596,10.801,28.447,18.703,41.606c3.966,6.581,8.245,13.006,12.789,19.268
		c4.508,6.289,9.29,12.408,14.211,18.435c9.85,12.05,20.336,23.676,31.171,35.027c21.681,22.712,44.669,44.396,67.369,66.531
		c22.677,22.144,45.341,44.603,65.618,69.356c10.155,12.34,19.581,25.376,27.602,39.285c3.978,6.97,7.526,14.197,10.489,21.656
		c2.939,7.462,5.239,15.202,6.57,23.07L330.348,550.143z"/>
</g>
</svg>
