<?xml version="1.0" encoding="utf-8"?>
<!-- Generator: Adobe Illustrator 23.0.1, SVG Export Plug-In . SVG Version: 6.00 Build 0)  -->
<svg version="1.1" id="Layer_3" xmlns="http://www.w3.org/2000/svg" xmlns:xlink="http://www.w3.org/1999/xlink" x="0px" y="0px"
	 viewBox="0 0 566.93 566.93" enable-background="new 0 0 566.93 566.93" xml:space="preserve">
<g>
	<path d="M364.987,112.122c0.423,0,0.839-0.028,1.249-0.074c0.262,0.044,0.527,0.074,0.798,0.074c1.398,0,2.682-0.605,3.7-1.61
		c3.243-1.957,5.423-5.504,5.423-9.56c0-6.159-5.011-11.17-11.17-11.17s-11.17,5.011-11.17,11.17
		C353.816,107.111,358.828,112.122,364.987,112.122z M364.987,93.132c4.311,0,7.819,3.508,7.819,7.819c0,0.478-0.05,0.945-0.132,1.4
		c-0.798-2.92-3.022-5.03-5.639-5.03c-3.285,0-5.957,3.32-5.957,7.4c0,1.196,0.235,2.323,0.642,3.324
		c-2.682-1.241-4.552-3.95-4.552-7.094C357.167,96.64,360.676,93.132,364.987,93.132z"/>
	<path d="M415.712,111.466c0.745,0.418,1.57,0.656,2.439,0.656c0.195,0,0.388-0.013,0.578-0.036
		c0.238,0.015,0.475,0.036,0.718,0.036c6.159,0,11.17-5.011,11.17-11.17c0-6.159-5.011-11.17-11.17-11.17
		c-6.159,0-11.17,5.011-11.17,11.17C408.277,105.8,411.387,109.924,415.712,111.466z M419.447,93.132
		c4.311,0,7.819,3.508,7.819,7.819c0,2.759-1.44,5.183-3.605,6.576c0.287-0.866,0.448-1.813,0.448-2.806c0-4.08-2.673-7.4-5.958-7.4
		c-3.074,0-5.611,2.909-5.924,6.627c-0.385-0.923-0.599-1.935-0.599-2.996C411.628,96.64,415.136,93.132,419.447,93.132z"/>
	<path d="M546.64,361.507c-3.131-4.71-7.767-11.668-12.799-14.359c-5.251-2.809-11.491-4.247-16.958-6.661
		c-11.469-5.065-22.692-12.066-29.61-22.818c-3.926-6.102-6.3-13.088-8.911-19.812c-2.9-7.468-5.801-14.935-8.701-22.403
		c-5.487-14.128-10.281-28.833-16.863-42.495c-1.118-2.321-2.328-4.601-3.699-6.783c-0.921-1.466-3.534-3.78-4.107-5.244
		c-0.353-0.902-0.127-2.39-0.206-3.361c-0.44-5.372-1.334-10.714-2.682-15.933c-3.564-13.798-10.738-26.798-22.689-33.952
		c6.071-2.619,11.754-6.214,16.989-10.709c7.665-6.581,12.155-15.727,12.601-25.448c0.652-0.078,1.368-0.438,2.146-1.168
		c6.23-5.847,6.652-14.355,8.013-22.24c1.481-8.577,6.943-15.174,7.178-24.197c0.182-6.973-2.12-17.708-10.254-19.238
		c-5.604-1.054-11.329,1.076-15.634,4.692c-2.572-6.411-8.547-10.748-15.406-13.903c-10.448-4.806-20.245-7.865-31.829-6.05
		c-20.442,3.203-40.612,12.94-51.98,30.506c-3.331-4.215-8.062-7.339-13.45-8.282c-6.247-1.093-17.428,1.18-14.988,9.553
		c1.023,3.512,3.698,6.507,6.242,8.998c2.966,2.904,5.117,5.414,7.066,9.179c2.361,4.562,4.385,9.008,4.535,14.241
		c0.119,4.151-0.203,7.683,1.474,11.562c1.192,2.757,6.455,5.756,9.972,6.17c0.079,1.25,0.177,2.509,0.294,3.772
		c-1.257-0.218-2.404-0.105-3.213,0.493c-5.997,4.43-13.842,3.534-20.85,2.837c-7.646-0.761-15.349-2.096-23.046-1.217
		c-9.659,1.102-19.35,6.568-28.335,10.084c-10.774,4.216-21.571,8.38-32.317,12.668c-20.082,8.012-38.39,18.252-56.402,30.159
		c-8.794,5.814-17.512,11.748-26.48,17.295c-4.472,2.766-9.002,5.441-13.625,7.948c-3.094,1.678-8.174,3.067-10.459,5.993
		c-9.958,8.522-18.354,18.594-24.716,30.105c-6.413,11.604-9.795,24.321-14.955,36.457c-2.409,5.665-5.295,11.141-9.374,15.8
		c-1.927,2.201-4.175,4.468-6.761,5.905c-4.66,2.59-8.743,1.178-13.402-0.625c-13.211-5.112-23.781-13.442-25.172-28.442
		c-0.725-7.816,1.071-15.769,2.956-23.302c1.96-7.836,4.062-15.736,7.178-23.204c5.308-12.723,14.451-22.346,26.007-29.676
		c22.67-14.38,49.715-18.78,73.722-30.241c13.097-6.253,25.384-14.82,33.731-26.902c5.717-8.276,11.02-19.827,12.107-30.97
		c1.621-2.08,1.549-7.094,1.449-8.562c-0.532-7.807-2.741-17.327-9.894-21.811c-6.353-3.983-14.382-1.781-17.948,4.668
		c-1.856,3.357-2.676,7.186-4.39,10.615c-1.872,3.745-4.23,7.265-6.979,10.423c-5.453,6.267-12.249,11.354-19.372,15.568
		c-16.107,9.529-34.418,14.182-51.633,21.211c-17.74,7.244-33.22,17.649-46.161,31.843c-12.903,14.151-20.89,30.04-24.757,48.785
		c-3.981,19.295-6.457,39.27-3.332,58.867c2.758,17.295,9.63,34.087,20.178,48.098c9.544,12.677,23.606,27.131,40.921,24.727
		c19.94-2.769,31.564-20.914,38.062-38.263c3.904-10.423,6.322-21.327,10.041-31.812c2.015-5.682,4.555-11.128,7.33-16.46
		c1.475,13.112,3.8,26.118,7.056,38.928c1.222,4.81,2.569,9.589,4.038,14.33c1.599,5.161,3.747,9.329,1.161,14.513
		c-4.074,8.167-10.409,11.16-18.552,14.049c-8.749,3.105-16.351,7.481-22.688,14.34c-6.154,6.66-9.588,15.03-14.573,22.492
		c-4.764,7.131-10.571,13.454-17.143,18.952c-3.244,2.714-6.648,5.173-10.159,7.524c-3.191,2.136-6.783,4.351-8.204,8.128
		c-3.08,8.187,5.67,17.645,10.892,23.072c3.194,3.32,6.716,6.215,10.488,8.742c-0.079,2.77,0.43,5.334,1.82,6.508
		c7.226,6.1,17.095,5.902,24.967,10.677c4.804,2.914,8.474,7.074,11.396,11.76c-0.226,0.594-0.303,1.362-0.196,2.253
		c0.457,3.783,3.521,7.927,6.505,10.151c5.881,4.384,15.004,4.446,21.729,1.885c6.54-2.49,10.062-6.718,9.562-12.285
		c0.557-0.239,0.999-0.832,1.216-1.974c2.597-13.699-0.948-27.8-7.778-39.767c-3.329-5.833-7.53-11.311-12.652-15.692
		c-2.231-1.908-4.646-3.657-7.178-5.143c-0.206-0.121-0.418-0.238-0.625-0.358c-0.093-2.325-1.234-5.379-2.795-8.024
		c3.933,1.898,8.793,3.025,10.924,1.423c11.031-8.291,21.843-17.44,33.934-24.17c10.982-6.113,23.72-7.096,34.766-12.907
		c12.101-6.365,14.555-18.985,16.571-31.409c1.833-11.299,3.098-22.671,3.86-34.084c2.956,1.513,6.243,2.684,9.844,3.522
		c9.483,2.207,19.208,3.472,28.957,3.961c0.897,1.875,2.334,3.669,3.679,4.64c1.679,1.213-13.781,24.517-15.091,27.109
		c-4.784,9.467-8.425,19.478-10.992,29.765c-1.245,4.99-2.208,10.051-2.886,15.149c-0.618,4.65-1.542,9.443,0.276,13.903
		c3.6,8.832,13.276,10.561,20.842,5.266c0.941-0.658,1.09-1.997,0.752-3.538c12.349-7.259,27.81-5.855,41.918-3.474
		c-0.431,0.633-0.241,1.429,0.986,2.257c13.936,9.409,27.954,2.1,41.518-3.978c5.725-2.566,11.829-3.903,13.769-10.41
		c1.831-6.139,3.891-11.506-3.22-14.236c-0.69-0.265-2.131-0.693-3.575-0.881c-6.264-8.848-13.301-20.159-25.399-18.284
		c-6.267,0.971-11.46,4.583-17.005,7.363c-3.185,1.597-6.637,3.123-10.264,3.152c-0.679,0.054-1.353,0.022-2.022-0.078
		c0.679-1.522,1.406-2.77,2.402-4.231c8.031-11.781,19.194-20.961,30.402-29.569c3.801-2.919,7.542-5.641,8.501-10.492
		c10.778,15.031,17.403,33.056,29.971,46.927c7.791,8.6,17.198,15.887,27.459,21.307c5.438,2.873,11.256,4.732,16.795,7.35
		c2.73,1.29,5.13,2.967,7.365,4.849c-0.585,0.505-0.766,1.139-0.145,1.939c4.833,6.233,12.203,8.791,19.92,9.389
		c6.92,0.536,18.191-0.548,23.801-5.169c2.58-2.125,2.705-5.945,3.372-9.053c0.847-3.944,3.047-9.255,2.167-13.324
		c-0.755-3.492-4.411-6.801-6.574-9.577c-2.539-3.259-4.88-6.815-8.401-9.099c-6.355-4.122-14.59-5.696-21.456-8.898
		c-6.951-3.242-13.577-7.293-19.035-12.727c-6.196-6.168-9.623-13.969-12.761-21.994c-3.569-9.124-7.095-18.264-10.642-27.397
		c-4.067-10.47-8.116-20.947-12.2-31.41c-3.105-7.954-6.474-15.481-11.576-22.259c6.392-4.716,13.262-8.481,20.651-11.132
		c0.447,0.186,0.854,0.323,1.123,0.388c3.332,0.805,7.202,0.424,10.248-1.128c2.595-1.322,5.284-2.798,7.982-4.42
		c8.036,14.627,16.071,29.254,24.107,43.881c1.324,2.41,2.484,5.083,4.04,7.354c1.197,1.748,3.027,3.073,4.459,4.663
		c3.279,3.64,6.14,7.632,8.758,11.766c10.14,16.015,17.324,33.338,31.159,46.762c7.469,7.247,16.077,13.299,25.456,17.815
		c5.013,2.414,10.427,3.979,15.332,6.601c3.003,1.605,5.634,3.685,8.094,5.972c-1.026,1.057-1.766,2.483-1.141,3.289
		c6.413,8.271,21.074,6.721,28.936,1.22c3.751-2.624,3.953-7.406,4.841-11.542C547.503,371.877,549.936,366.465,546.64,361.507z
		 M346.866,125.88c-0.083-1.547-0.612-4.585-2.363-4.782c0.056-0.812,0.097-1.58,0.06-2.218c-0.139-2.408-0.479-4.763-1.192-7.072
		c-1.309-4.242-3.37-8.313-5.486-12.196c-2.059-3.778-4.404-7.175-7.474-10.197c-0.616-0.606-3.816-2.786-3.819-3.629
		c0.402-1.412,1.341-2.174,2.817-2.285c1.353,0.081,2.166-0.043,2.448-0.368c1.305,2.248,3.36,4.1,5.719,5.238
		c0.209,0.72,0.866,1.196,2.284,1.174c0.331-0.005,0.676-0.076,1.028-0.181c2.087,0.192,4.683-0.267,4.078-2.686
		c1.722-1.644,3.209-3.627,3.889-4.914c3.475-6.576,8.225-10.236,15.127-12.932c8.214-3.208,17.254-6.464,26.147-6.765
		c8.693-0.295,16.898,2.988,24.603,6.705c6.795,3.278,14.759,8.801,14.372,17.344c-0.137,3.024,2.717,2.218,5.752,0.067
		c0.009,0.036,0.013,0.075,0.023,0.111c0.684,2.579,3.662,7.585,6.586,3.85c2.663-3.401,6.296-5.635,10.72-5.74
		c1.232-0.053,2.444,0.083,3.639,0.404c-0.587,1.199-1.238,2.48-1.346,2.709c-2.249,4.754-3.721,9.735-4.588,14.921
		c-0.62,3.71-0.114,7.795-3.007,10.509c-1.236,1.16-1.963,3.447-2.238,6.03c-0.027,0.025-0.052,0.042-0.08,0.069
		c-1.83,1.787-1.467,7.037-0.934,9.215c2.432,9.947-12.023,18.815-19.053,22.91c-4.843,2.821-9.628,5.685-15.205,6.74
		c-5.424,1.026-11.056,1.395-16.57,1.381c-10.89-0.026-22.034-1.907-31.851-6.775c-5.221-2.589-8.465-5.899-10.523-9.851
		c0.582-1.23-0.239-2.797-1.7-4.194C347.582,134.72,347.114,130.514,346.866,125.88z M105.288,290.496
		c-4.528,15.406-8.903,32.431-21.567,43.369c-5.696,4.919-12.779,8.153-20.342,8.563c-8.147,0.442-14.828-3.102-20.944-8.192
		c-11.62-9.671-20.794-22.776-25.988-36.972c-5.394-14.742-5.275-29.537-2.91-44.888c2.651-17.206,6.635-32.727,17.229-46.849
		c9.811-13.079,22.806-24.373,37.141-32.231c15.162-8.312,31.981-12.798,47.945-19.237c14.691-5.926,29.05-13.647,39.417-25.923
		c5.233-6.196,8.253-12.822,11.266-20.255c1.591-3.924,4.818-5.898,9.101-5.392c1.526,0.18,3.609,1.028,5.21,2.222
		c-0.025,2.007,0.292,4.022,0.727,5.272c0.929,2.668-0.974,7.31-1.831,9.899c-1.227,3.702-2.876,7.327-4.884,10.669
		c-3.994,6.648-9.258,12.365-15.366,17.12c-10.777,8.389-23.504,13.861-36.253,18.498c-24.815,9.027-52.038,15.483-71.109,35.032
		c-10.39,10.651-15.627,24.178-19.649,38.253c-4.483,15.687-8.402,32.203-5.577,48.569c2.37,13.733,9.196,26.026,21.785,32.654
		c5.404,2.844,13.392,7.06,19.709,6.292c6.32-0.768,11.529-6.23,15.323-10.938c9.572-11.876,13.104-27.19,18.709-41.055
		c4.791-11.853,11.76-22.542,20.514-31.683c-1.093,3.211-1.834,6.515-2.109,9.895C114.506,265.145,109.169,277.289,105.288,290.496z
		 M317.368,331.603c-1.65,2.802-4.987,4.713-7.508,6.658c-5.222,4.03-10.346,8.194-15.167,12.7
		c-4.483,4.191-8.737,8.641-12.446,13.54c-3.092,4.083-6.821,8.887-5.511,14.351c2.997,12.501,15.951,9.429,24.428,4.937
		c5.855-3.103,12.38-7.581,19.375-6.396c5.457,0.924,9.609,6.773,13.063,11.919c0.106,0.344,0.334,0.659,0.632,0.944
		c0.226,0.338,0.448,0.667,0.669,0.994c0.231,2.628-1.156,6.126-1.847,8.278c-1.482,4.613-4.534,5.22-8.801,7.132
		c-3.793,1.7-7.585,3.403-11.38,5.099c-3.17,1.417-9.536,5.092-13.556,4.092c4.355-1.396,10.537-8.126,5.531-9.042
		c-21.148-3.868-42.685-6.14-61.567,5.318c-1.464-1.769-3.139-2.834-4.289-2.03c-1.652,1.156-4.468,2.59-7.116,2.912
		c1.424-16.976,7.713-34.263,15.649-48.925c2.143-3.959,4.487-7.803,7.004-11.535c2.565-3.802,5.643-7.532,6.579-12.148
		c1.028-5.069-0.572-10.334-3.541-14.595c2.31,0.016,4.618,0.005,6.921-0.063c0.275-0.008,0.533-0.031,0.782-0.061
		c0.315-0.005,0.631,0.006,0.942-0.025c10.714-1.067,21.218-3.731,31.856-5.336c5.005-0.755,10.099-1.464,15.172-1.21
		c0.661,0.033,1.477,0.052,2.314,0.111c0.016,0.031,0.026,0.059,0.042,0.091c0.105,0.2,0.211,0.401,0.317,0.602
		c-1.88,1.16-2.77,2.551-1.481,3.761c1.415,1.328,2.75,2.713,4.03,4.138C318.433,329.07,318.115,330.335,317.368,331.603z
		 M541.865,380.217c-1.035,4.82-0.294,5.335-4.974,6.787c-4.773,1.48-9.939,2.236-14.357,0.676c0.115-0.536,0.084-1.009-0.169-1.282
		c-6.692-7.199-13.163-12.224-22.384-15.87c-9.159-3.621-17.728-8.37-25.461-14.492c-15.993-12.66-24.616-29.613-34.57-46.894
		c-4.485-7.787-9.668-14.368-15.568-21.074c-1.63-1.852-2.649-3.898-3.856-6.095c-5.163-9.398-10.326-18.797-15.49-28.196
		c-3.024-5.504-6.048-11.009-9.072-16.513c10.46-6.821,20.487-15.801,25.143-26.567c1.71-3.953-12.872-5.059-14.477-1.348
		c-5.001,11.563-16.11,20.756-27.281,27.484c-2.012-0.044-4.081,0.246-5.322,0.531c-11.429,2.628-22.177,7.176-31.829,13.72
		c-5.178-0.274-10.22,1.003-7.529,4.237c5.657,6.798,8.877,15.185,12.053,23.33c3.704,9.499,7.383,19.009,11.074,28.513
		c3.691,9.504,7.366,19.015,11.074,28.513c3.283,8.408,6.824,16.311,12.954,23.068c10.795,11.9,26.42,18.41,41.212,23.758
		c4.579,1.655,6.767,5.428,9.675,9.16c1.212,1.555,3.302,3.4,4.007,5.242c0.919,2.402,0.07,4.534-0.444,6.93
		c-0.712,3.315-0.988,11.167-3.61,13.101c-1.086,0.801-2.66,1.082-4.152,1.384c-0.073-0.108-0.152-0.215-0.251-0.321
		c-3.941-4.24-7.977-8.47-12.879-11.62c-5.214-3.35-11.327-4.973-16.906-7.595c-11.183-5.256-21.19-12.673-29.486-21.829
		c-14.029-15.485-20.653-36.147-33.917-52.04c-13.774-29.083-55.014-13.77-80.362-11.074c-9.418,0.223-18.849-0.203-28.176-1.581
		c-2.531-0.374-5.051-0.824-7.558-1.335c-1.167-0.238-4.048-0.366-5.114-1.07c0.266,0.005-0.384-1.565-0.416-1.764
		c-0.342-2.121-1.331-4.341-1.823-6.464c-1.271-5.489-18.307-12.045-16.411-3.856c0.021,0.089,0.048,0.172,0.07,0.26
		c-0.714,0.243-1.148,0.649-1.168,1.243c-0.52,15.341-1.92,30.633-4.332,45.795c-2.037,12.798-4.044,25.768-17.082,31.669
		c-10.845,4.909-22.621,6.261-33.184,12.141c-12.091,6.73-22.902,15.877-33.934,24.17c-0.22,0.166-0.369,0.35-0.466,0.547
		c-0.855-0.218-1.647-0.037-2.295,0.695c-4.503,5.087-0.96,14.076,2.099,18.986c3.852,6.184,9.372,8.362,15.097,12.27
		c10.045,6.857,13.18,17.828,10.979,29.437c-0.135,0.709-0.158,1.455-0.103,2.216c-1.841,0.548-1.611,2.803-1.005,4.749
		c-1.245,3.567-7.277,6.182-10.376,6.742c-1.261,0.228-2.785,0.469-4.366,0.595c-0.128-0.73-0.294-1.43-0.538-2.04
		c-3.763-9.391-8.724-18.906-16.942-25.169c-1.54-1.173-3.187-2.109-4.898-2.901c-0.196-0.498-0.683-0.96-1.584-1.341
		c-7.595-3.218-14.462-7.909-20.263-13.779c-4.222-4.272-15.295-15.767-8.714-21.452c6.466-5.585,13.854-9.745,20.019-15.836
		c5.789-5.719,10.947-11.97,15.105-18.978c4.401-7.418,8.077-15.494,14.845-21.136c6.633-5.529,16.125-6.403,23.545-10.769
		c6.708-3.948,12.292-9.591,15.812-16.552c4.244-8.394-0.813-17.083-3.143-25.47c-5.986-21.548-9.376-43.713-10.334-66.049
		c-0.066-1.55-2.573-1.998-5.652-1.639c0.097-5.384,2.232-10.287,5.469-14.742c0.185-0.254,0.401-0.553,0.63-0.877
		c0.58-0.166,1.105-0.482,1.508-1.044c0.111-0.155,0.223-0.31,0.334-0.465c0.401-0.558,0.477-1.188,0.318-1.841
		c1.456-0.845,3.359-1.452,4.468-2.027c2.333-1.21,4.642-2.468,6.931-3.76c4.582-2.586,9.077-5.322,13.523-8.133
		c8.914-5.636,17.616-11.596,26.436-17.376c18.196-11.923,36.855-21.604,57.12-29.557c10.785-4.232,21.577-8.444,32.365-12.666
		c7.987-3.126,16.31-7.763,25.053-7.787c11.672-0.032,26.223,4.833,37.739,0.54c1.898,6.919,5.361,13.151,11.94,17.235
		c12.339,7.659,28.069,9.73,42.307,8.924c4.669-0.264,9.176-1.043,13.514-2.287c11.963,5.476,19.689,16.629,23.946,29.267
		c1.824,5.416,3.073,11.025,3.845,16.685c0.319,2.339,0.01,5.348,0.684,7.59c0.412,1.372,1.655,2.47,2.518,3.642
		c2.105,2.861,3.822,5.987,5.359,9.182c2.659,5.528,4.756,11.324,6.975,17.037c5.142,13.238,10.283,26.476,15.425,39.714
		c4.31,11.097,7.819,23.344,15.456,32.71c6.572,8.059,15.594,13.612,24.915,17.963c5.502,2.569,11.229,4.447,16.849,6.707
		c5.84,2.349,11.522,9.635,14.609,15.057C545.123,370.225,542.857,375.6,541.865,380.217z"/>
</g>
<path d="M3.989,508.256c18.348-4.544,37.137-6.703,55.7-10.138c18.637-3.449,37.026-8.134,55.181-13.558
	c35.844-10.708,70.742-24.257,105.858-37.084c71.446-26.098,144.679-45.307,220.013-56.154c42.652-6.142,85.623-9.76,128.683-11.263
	c8.55-0.299,2.116-21.326-4.988-21.078c-76.486,2.67-152.829,12.007-227.329,29.705c-37.066,8.805-73.517,19.806-109.395,32.602
	c-35.53,12.671-70.632,26.569-106.57,38.076c-20.114,6.44-40.489,12.125-61.187,16.364c-21.237,4.349-42.881,6.53-63.943,11.746
	C-10.881,489.181-3.764,510.176,3.989,508.256L3.989,508.256z"/>
<g>
	<g>
		<path fill="#FFFFFF" d="M101.625,464.035c7.334,5.691,9.296,14.999,11.903,23.42c0.427,1.38,4.947,3.529,4.34,1.57
			c-2.992-9.661-5.547-19.523-13.898-26.003C102.192,461.642,98.832,461.868,101.625,464.035L101.625,464.035z"/>
	</g>
</g>
<g>
	<g>
		<path fill="#FFFFFF" d="M124.2,455.116c1.32,6.308,2.673,12.715,2.278,19.196c-0.212,3.482-0.515,6.037-3.572,8.105
			c-2.047,1.385-4.5,3.447-7.121,3.093c-3.01-0.407,0.465,3.571,2.085,3.79c4.612,0.623,11.416-3.056,12.728-7.666
			c2.198-7.723-0.194-17.066-1.782-24.656C128.485,455.398,123.723,452.84,124.2,455.116L124.2,455.116z"/>
	</g>
</g>
<g>
	<g>
		<path fill="#FFFFFF" d="M372.412,379.5c5.649,2.553,9.003,8.693,14.098,12.182c5.06,3.464,10.943,5.545,16.682,7.567
			c1.838,0.648,6.703-0.679,3.191-1.916c-6.676-2.352-13.635-4.752-18.916-9.661c-3.955-3.676-6.818-7.807-11.864-10.088
			C373.774,376.757,368.997,377.956,372.412,379.5L372.412,379.5z"/>
	</g>
</g>
<g>
	<g>
		<path fill="#FFFFFF" d="M372.236,379.081c10.026,7.625,20.564,14.489,31.594,20.572c-0.18-0.763-0.36-1.526-0.54-2.288
			c-11.278-0.683-21.882-10.834-28.494-19.301c-0.776-0.993-4.975-2.257-3.495-0.362c7.981,10.219,20.469,21.671,34.07,22.494
			c2.01,0.122,0.243-1.856-0.54-2.288c-10.681-5.891-20.873-12.526-30.581-19.91C372.629,376.766,369.779,377.212,372.236,379.081
			L372.236,379.081z"/>
	</g>
</g>
<g>
	<path fill="#FFFFFF" d="M128.314,457.465c0.132-1.988-2.924-4.649-4.894-4.011c-6.328,2.051-12.632,4.172-18.913,6.364
		c-0.576,0.201-0.689,0.626-0.572,1.115c-0.077-0.044-0.145-0.093-0.224-0.136c-3.853-2.122-3.369,2.011-0.63,3.52
		c3.014,1.66,4.959,4.367,6.398,7.457c0.041,0.26,0.17,0.538,0.359,0.821c1.639,3.81,2.616,8.092,3.91,11.689
		c0.529,1.469,3.024,3.532,4.694,2.924c3.405-1.24,11.824-2.257,11.801-6.717c-0.016-3.128-1.384-6.628-1.733-9.788
		C128.024,466.289,128.02,461.893,128.314,457.465z"/>
	<path fill="#FFFFFF" d="M433.835,391.313c-2.009-0.839-4.017-1.678-6.026-2.517c-0.62-0.259-0.959-0.12-1.125,0.215
		c-3.262-2.23-6.524-4.46-9.786-6.69c-3.968-2.712-7.736-5.388-12.354-6.752c-1.784-1.392-3.744-2.49-6.099-3.146
		c-0.014-0.007-0.029-0.014-0.043-0.021c0.001,0.003,0.001,0.006,0.002,0.008c-0.139-0.038-0.267-0.089-0.408-0.124
		c-0.655-0.162-0.881,0.266-0.856,0.925c-0.77,0.062-1.54,0.186-2.403,0.387c-0.478,0.111-0.665,0.463-0.682,0.921
		c-2.342-0.725-4.707-1.388-7.103-1.975c-0.914-0.224-0.972,0.997-0.575,2.294c-0.624-0.155-1.248-0.28-1.871-0.38
		c-1.612-1.083-3.225-2.166-4.838-3.246c-1.535-1.028-2.078,0.686-1.608,1.999c0.303,0.846,0.583,1.743,0.863,2.659
		c-0.526-0.389-1.059-0.766-1.581-1.162c-2.399-1.818-1.625,3.19-0.237,4.242c1.27,0.962,2.552,1.903,3.845,2.828
		c0.396,0.902,0.843,1.76,1.367,2.542c1.818,2.711,5.227,4.499,7.77,6.435c6.463,4.92,13.309,9.387,21.783,8.536
		c0.646-0.065,0.926-0.461,0.98-0.998c1.254,0.517,2.513,1.022,3.78,1.509c1.912,0.735,1.24-2.046,0.278-3.71
		c1.47,0.857,2.99,1.627,4.588,2.266c0.882,0.353,1.217-0.137,1.216-0.923c0.267,0.176,0.535,0.349,0.798,0.533
		c0.328,0.229,0.594,0.342,0.81,0.369c0.587,0.393,1.189,0.772,1.826,1.12c2.19,1.196,0.772-3.476,0.229-4.104
		c-0.274-0.317-0.563-0.613-0.841-0.924c1.539,0.59,3.078,1.187,4.585,1.864c0.402,0.267,0.803,0.536,1.205,0.805
		c0.894,0.679,1.859,1.305,2.896,1.925c1.344,0.805,1.304-1.215,0.78-2.833C436.966,395.93,434.951,391.779,433.835,391.313z"/>
</g>
<g>
	<g>
		<path fill="#FFFFFF" d="M369.601,137.664c-0.084,10.511,8.599,16.721,18.292,17.96c11.221,1.434,24.93,1.209,32.847-8.07
			c1.018-1.193-1.259-5.417-2.389-4.093c-5.401,6.33-13.364,8.005-21.37,8.087c-7.727,0.079-24.62,0.05-24.529-11.345
			C372.463,138.755,369.622,135.023,369.601,137.664L369.601,137.664z"/>
	</g>
</g>
<path d="M423.699,130.821c-4.902,9.645-17.512,16.053-27.913,15.93c-10.474-0.124-22.34-2.199-29.67-10.358
	c-1.744-1.941-5.516-1.866-2.982,0.954c8.231,9.162,19.676,12.953,31.751,13.673c6.663,0.397,12.917-0.046,18.779-3.518
	c5.554-3.29,11.492-7.64,14.462-13.485C428.948,132.402,424.727,128.799,423.699,130.821z"/>
</svg>
