<?xml version="1.0" encoding="utf-8"?>
<!-- Generator: Adobe Illustrator 23.0.1, SVG Export Plug-In . SVG Version: 6.00 Build 0)  -->
<svg version="1.1" id="Layer_3" xmlns="http://www.w3.org/2000/svg" xmlns:xlink="http://www.w3.org/1999/xlink" x="0px" y="0px"
	 viewBox="0 0 566.9 566.9" enable-background="new 0 0 566.9 566.9" xml:space="preserve">
<g>
	<g>
		<path d="M747.4,225.9c-0.2,0.2-0.4,0.4-0.7,0.7c-0.5,0.5,0.4,1.5,0.7,1.9c0.2,0.3,1.3,1.4,1.8,1c0.2-0.2,0.4-0.4,0.7-0.7
			c0.5-0.5-0.4-1.5-0.7-1.9C748.9,226.6,747.9,225.5,747.4,225.9L747.4,225.9z"/>
	</g>
</g>
<path d="M549.6,384.8c0-0.4,0-1,0-1.5c-0.9-28.5-16.1-56.5-43.8-66.8c-15.2-5.7-31.8-5.3-46.3,0.3c-6.7-9.1-13.7-18-21-26.7
	c4.1-1.7,8.3-3.3,12.5-4.7c9-3,18.1-5.4,27.3-7.8c8.7-2.2,19.5-3.4,25.9-10.3c13.7-15,4.5-38.1-2.4-54.1
	c-8.1-18.6-19.3-36.4-34-50.3c-22.3-21.1-51-31.4-81.6-29.1c-1.4,0.1-2.5,0.8-3.4,1.9c-6.3,0.2-7.8,19.9-1.3,23.2
	c18.7,9.6,34.8,23.2,47.1,40.3c2.8,3.9,5.5,8.1,7.6,12.4c1.6,3.2,3.6,7,2.7,10.6c-2.3,9-13.9,14.7-21.5,18.1
	c-2.8,1.3-5.7,2.5-8.6,3.7c1.7-7.3,1.4-15-2.9-20.5c-3.8-4.9-10.7-7-16.3-8.9c-9.8-3.2-20-5.6-30.2-7.6c-21.1-4.2-43.8-8.7-65.5-7.7
	c-16.2-0.2-33.7,2.3-46.9,12.6c-11.6,9.1-18.6,22.4-22.9,36.3c-16.7-2.6-33.6-1.5-50.5-2.9c-8.4-0.7-17.5-1.1-23.9-7.1
	c-2.6-2.5-5.2-5.2-7.3-8.1c-1-1.4-2-2.8-2.7-4.3c-0.5-1-1-4.5-1.2-2.7c0.4-4,0.5-11.8-3.7-14.3c-1-2.8-2.6-4.6-4.8-4.2
	c-16.1,3.5-32.7,5-49.2,4.1c-8.2-0.5-16.4-1.5-24.5-3c-3.9-0.8-7.9-1.7-11.7-2.7c-4-1.1-8.2-2.8-12.3-2.9
	c-7.9-0.1-12.9,6.1-14.2,13.4c-1.6,8.7,1.2,17.6,5.5,25.2c3.4,6,7.6,9.8,13,13.8c13.6,10.2,27.7,19.8,41.8,29.3
	c13.9,9.3,27.8,18.9,42.5,26.9c11.3,6.2,24.3,9.7,36.3,14.2c9.3,3.5,18.5,6.9,27.8,10.4c-9.3,4.8-18.6,9.7-27.8,14.7
	c-7.4-13.4-18.8-24.3-33.9-29.9c-26.4-9.9-56.7-1.4-74.1,20.9c-18.8,24-21.2,60-6.1,86.3c14,24.4,42.1,38.7,70.1,32.6
	c33-7.3,52.7-37.4,53.6-70c0-0.5,0-0.9,0-1.3s0-1,0-1.5c-0.2-5.6-0.9-11.2-2.2-16.6c15.5-8.3,30.9-16.6,47-23.6
	c0.1,0.3,0.2,0.5,0.2,0.6c0.1,0.3,0.2,0.8,0.4,2.4c0.1,0.5,0.5,4.5,0.4,3.4c0.4,7.2,0.1,8.1-2.2,14.7c-5.4,15.7-9.7,33-20.4,46.1
	c-7.9,1.7-7.2,24.2,0.5,23.5c0.3,0,0.6-0.1,0.9-0.1c0.4,0.1,0.9,0,1.3-0.1c33-3.1,66.1-5.3,99.2-6.5c16.9-0.6,33.9-1,50.9-1.1
	c8.1-0.1,16.3-0.1,24.4,0c8.4,0.1,16.4,0.3,24.5-2.1c0,0,0,0,0.1,0c1.2-0.3,2.3-1.3,3.2-3c2.4-4.6,2.5-12,0-16.7
	c-8.1-15.1-13.3-31.2-11.3-48.5c1.9-16.2,8.8-31.6,19.7-43.8c5.4-6.1,11.8-11.1,18.6-15.3c7.6,8.7,15,17.6,22.2,26.7
	c-4.7,3.4-8.9,7.5-12.6,12.3c-18.6,23.9-21,59.9-5.9,86.1c14,24.4,42.1,38.7,70.1,32.6c33-7.3,52.7-37.4,53.6-70
	C549.6,385.6,549.6,385.2,549.6,384.8z M155.1,386.6c-0.3,21-16.7,39.2-36.5,46.1c-21.2,7.4-46,0.9-60.9-15.8
	c-14-15.7-16.6-36.3-5.1-54c12.4-19.1,35.8-28.3,57.9-24.5c12,2.1,23.4,8.5,31.7,17.5c-13.9,7.2-28,13.9-42.8,19.3
	c-7.2,2.6-5.6,25.9,3.1,22.8c17.5-6.4,34.2-14.7,50.6-23.4C154.3,378.4,155,382.5,155.1,386.6z M499.1,246.2L499.1,246.2
	C499.4,246.5,498.8,247.4,499.1,246.2z M128.7,288.5c-11.7-5-22.6-13-33.2-19.9c-14.6-9.6-29-19.4-43.3-29.5
	c-4.9-3.5-9.9-7-14.7-10.7c-0.8-0.6-1.5-1.2-2.3-1.8c0,0,0,0-0.1,0c0,0,0,0,0-0.1c-0.7-0.8-1.5-1.7-2.1-2.5c0.3,0,0.7,0,1,0.1
	c2.4,0.3,4.7,1.2,7.1,1.8c4,1.1,8.1,2.1,12.1,3c8.4,1.8,16.9,2.9,25.5,3.5c16.3,1.1,32.7-0.2,48.7-3.4c2.7,17.4,14.2,34.6,31.8,38.3
	c21.8,4.6,44.3,1.3,66.2,5c3.1,1.7,5.9-2,6.8-5.3c3.3-13.1,8.9-26.3,20.5-34.1c12.1-8.2,26.8-9.9,41-9.7c17.3-0.8,35.2,2.3,52.1,5.2
	c16,2.7,34.2,5.1,48.9,12.5c-5.2,7.4-13.4,12.7-21.1,17.1c-9.1,3.4-18.1,6.9-27.1,10.4c-22.9,9-45.7,18-68.6,27
	c-9.8,3.9-19.7,7.7-29.5,11.6c-11.5,4.2-23,8.5-34.3,13.4c-0.4-0.2-0.7-0.3-1-0.3c-14-5.2-28-10.5-42-15.7
	C156.9,299.1,142.5,294.4,128.7,288.5z M390.8,301.9c-20.9,30.5-24,68.5-12.1,102.4c-4.9,0.2-9.8-0.2-14.5-0.2c-8.1,0-16.3,0-24.4,0
	c-16.6,0.2-33.2,0.5-49.8,1.2c-27,1-54,2.7-80.9,5c0.9-2.2,1.8-4.4,2.7-6.6c4-10.6,8.5-21.7,11.1-32.8c2.2-9.3,2.2-19.3,0.9-28.7
	c-0.1-0.5-0.1-1-0.2-1.6c9.3-3.6,18.6-7.3,27.8-10.9c6.2-2.2,12.3-4.4,18.5-6.5c17.6-6.1,35.9-11.3,52.9-19
	c9.2-4.1,18.3-7.9,27.7-11.4c9.5-3.6,18.9-7.8,27.6-12.9c5.9-2.3,11.9-4.7,17.8-7c11.9-4.7,25-8.5,35.5-15.9
	c23.4-16.2,23-45.8,9.2-68.4c-6.5-10.7-14.4-20.4-23.4-29c14.6,3.3,28.4,9.9,40.3,20c15.4,13.1,26,29.1,34.2,47
	c0.8,1.7,1.5,3.4,2.3,5.2c0.3,0.8,1.6,3.9,1.5,3.8c0.8,2.2,1.6,4.4,2.3,6.6c0.3,0.9,0.5,2.6,0.9,3.6c-0.3,0.4-0.6,1-0.7,1.2
	c-3,3.4-9,4.3-13.1,5.4C450.1,261.2,412.4,270.4,390.8,301.9z M501.3,430.9c-21.2,7.4-46,0.9-60.9-15.8c-14-15.7-16.6-36.3-5.1-54
	c5.4-8.4,13.1-14.9,21.7-19.2c12.1,16.6,23.3,33.8,33.6,51.6c2.3,4,6.1,4.4,8.3,0c2.3-4.5,2.6-12.2,0-16.7
	c-7.9-13.7-16.4-27.2-25.3-40.3c6.4-1.1,13-1.1,19.6,0c23.3,4,44.4,24.5,44.7,48.2C537.5,405.8,521,424,501.3,430.9z"/>
</svg>
