<?xml version="1.0" encoding="utf-8"?>
<!-- Generator: Adobe Illustrator 23.0.1, SVG Export Plug-In . SVG Version: 6.00 Build 0)  -->
<svg version="1.1" id="Layer_3" xmlns="http://www.w3.org/2000/svg" xmlns:xlink="http://www.w3.org/1999/xlink" x="0px" y="0px"
	 viewBox="0 0 566.9 566.9" style="enable-background:new 0 0 566.9 566.9;" xml:space="preserve">
<path d="M60,218.9c17.1,0.8,34.2,0.6,51.3,0.8c32.4,0.3,64.8,0.4,97.3,0.4c38.8,0.1,77.7,0,116.5-0.1c36.4-0.1,72.7-0.3,109.1-0.8
	c25-0.3,50-0.6,75-1.6c1.9-0.1,3.8-0.2,5.7-0.3c7.2-0.4,6.9-20.6,0-20.3c-22.9,1.2-45.9,1.4-68.8,1.8c-35.4,0.5-70.9,0.7-106.3,0.9
	c-39,0.2-78.1,0.2-117.1,0.2c-33.7,0-67.4-0.1-101.2-0.4c-19.5-0.1-39-0.1-58.5-0.7c-1,0-2-0.1-3-0.1
	C53.1,198.3,52.8,218.5,60,218.9L60,218.9z"/>
<path d="M60,494.3c17.1,0.8,34.2,0.6,51.3,0.8c32.4,0.3,64.8,0.4,97.3,0.4c38.8,0.1,77.7,0,116.5-0.1c36.4-0.1,72.7-0.3,109.1-0.8
	c25-0.3,50-0.6,75-1.6c1.9-0.1,3.8-0.2,5.7-0.3c7.2-0.4,6.9-20.6,0-20.3c-22.9,1.2-45.9,1.4-68.8,1.8c-35.4,0.5-70.9,0.7-106.3,0.9
	c-39,0.2-78.1,0.2-117.1,0.2c-33.7,0-67.4-0.1-101.2-0.4c-19.5-0.1-39-0.1-58.5-0.7c-1,0-2-0.1-3-0.1C53.1,473.8,52.8,494,60,494.3
	L60,494.3z"/>
<path d="M31.5,556c19.2,1.4,38.6,1.2,57.8,1.4c36.5,0.5,73.1,0.7,109.6,0.8c43.8,0.1,87.5,0.1,131.3-0.2
	c40.8-0.2,81.6-0.6,122.4-1.5c28.1-0.6,56.4-1,84.4-3.1c2.1-0.2,4.2-0.3,6.3-0.5c11.1-1,13.7-18.4,13.5-27c-0.1-6.4-0.8-13.5-4-19.1
	c-1.9-3.4-5-8.3-9.5-7.9c-25.7,2.3-51.7,2.7-77.5,3.3c-39.9,0.9-79.8,1.4-119.8,1.6c-44,0.3-87.9,0.4-131.9,0.3
	c-37.8-0.1-75.6-0.3-113.4-0.7c-22-0.3-44-0.2-65.9-1.4c-1.1-0.1-2.2-0.1-3.4-0.2c-4.3-0.3-7.9,4.8-9.5,7.9c-2.8,5.5-4.1,13-4,19.1
	C18.2,537.4,20.1,555.2,31.5,556L31.5,556z"/>
<path d="M516.6,161.6c-22.9-21.3-50-37.6-74.4-57c-28.6-22.7-58.9-43-89.1-63.5C334.5,28.5,314.8,17.7,295,7
	c-0.4-0.7-0.9-1.3-1.3-1.7c-1.2-1.2-2.7-1.7-4.4-0.4c-26,17.4-52.1,34.9-78.1,52.3c-41.5,27.8-83,55.6-124.5,83.4
	c-9.6,6.4-19.1,12.8-28.7,19.2c-4.1,2.7-5.1,8.6-5,13.6c0,0.1,0,0.2,0,0.3c-0.7,7.5,1.6,16.2,6.9,16.2c17.1,0.8,34.2,0.6,51.3,0.8
	c32.4,0.3,64.8,0.4,97.3,0.4c38.8,0.1,77.7,0,116.5-0.1c36.4-0.1,72.7-0.3,109.1-0.8c25-0.3,50-0.6,75-1.6c1.6-0.1,3.3-0.2,4.9-0.2
	c1.1,0.4,2.2,0,3.1-0.8C523.6,183.5,523.4,164.4,516.6,161.6z M290.7,32.6c25.1,17.5,50.2,35,75.3,52.5
	c36.4,25.4,72.8,50.8,109.3,76.2c-1.9,0-3.8,0-5.7,0c-36.3,0.1-72.6,0.3-108.8,0.4c-43.7,0.2-87.4,0.3-131.1,0.5
	c-37.8,0.1-75.6,0.3-113.4,0.4c-4.3,0-8.7,0-13,0c27.8-15.9,55.3-32.5,81.4-50.9c28-19.9,55.3-40.5,82.7-61.2
	C275,44.6,282.9,38.6,290.7,32.6z"/>
<path d="M488.6,447.4c0.2-64.2,1.4-128.5,0.7-192.7c-0.1-4.9-0.1-9.8-0.3-14.7c-0.1-2.4,0-5-0.7-7.3c-0.3-1.6-1-3.4-2.5-3.4
	c-0.3,0-0.6,0.1-0.8,0.2c-0.2-0.1-0.5-0.2-0.8-0.2c-0.5,0-1,0-1.5,0c-11.9-0.4-23.8-0.8-35.7-1.2c-0.9,0-1.6,0.5-2,1.4
	c-0.2-0.1-0.5-0.2-0.8-0.2c-1.1,0-1.8,1-2.2,2.1c-0.6,1.2-0.7,2.7-0.5,4.1c0,23.7,0,47.4,0,71.1c0,38.2,0,76.3,0,114.5
	c0,8.7,0,17.5,0,26.2c0,3.3,0,6.6,0,9.9c-1.2,2.9-0.6,8.4,1.9,9c0.3,0.1,0.5,0.2,0.9,0.2c0.3,0,0.5-0.1,0.8-0.2
	c13.8,0.1,27.5,0.1,41.3,0.2c2.7,0,3.5-5.6,2.3-8.8C488.6,454.3,488.6,450.8,488.6,447.4z"/>
<path d="M134,447.4c0.2-64.2,1.4-128.5,0.7-192.7c-0.1-4.9-0.1-9.8-0.3-14.7c-0.1-2.4,0-5-0.7-7.3c-0.3-1.6-1-3.4-2.5-3.4
	c-0.3,0-0.6,0.1-0.8,0.2c-0.2-0.1-0.5-0.2-0.8-0.2c-0.5,0-1,0-1.5,0c-11.9-0.4-23.8-0.8-35.7-1.2c-0.9,0-1.6,0.5-2,1.4
	c-0.2-0.1-0.5-0.2-0.8-0.2c-1.1,0-1.8,1-2.2,2.1c-0.6,1.2-0.7,2.7-0.5,4.1c0,23.7,0,47.4,0,71.1c0,38.2,0,76.3,0,114.5
	c0,8.7,0,17.5,0,26.2c0,3.3,0,6.6,0,9.9c-1.2,2.9-0.6,8.4,1.9,9c0.3,0.1,0.5,0.2,0.9,0.2c0.3,0,0.5-0.1,0.8-0.2
	c13.8,0.1,27.5,0.1,41.3,0.2c2.7,0,3.5-5.6,2.3-8.8C134,454.3,134,450.8,134,447.4z"/>
<path d="M254,447.4c0.2-64.2,1.4-128.5,0.7-192.7c-0.1-4.9-0.1-9.8-0.3-14.7c-0.1-2.4,0-5-0.7-7.3c-0.3-1.6-1-3.4-2.5-3.4
	c-0.3,0-0.6,0.1-0.8,0.2c-0.2-0.1-0.5-0.2-0.8-0.2c-0.5,0-1,0-1.5,0c-11.9-0.4-23.8-0.8-35.7-1.2c-0.9,0-1.6,0.5-2,1.4
	c-0.2-0.1-0.5-0.2-0.8-0.2c-1.1,0-1.8,1-2.2,2.1c-0.6,1.2-0.7,2.7-0.5,4.1c0,23.7,0,47.4,0,71.1c0,38.2,0,76.3,0,114.5
	c0,8.7,0,17.5,0,26.2c0,3.3,0,6.6,0,9.9c-1.2,2.9-0.6,8.4,1.9,9c0.3,0.1,0.5,0.2,0.9,0.2c0.3,0,0.5-0.1,0.8-0.2
	c13.8,0.1,27.5,0.1,41.3,0.2c2.7,0,3.5-5.6,2.3-8.8C254,454.3,254,450.8,254,447.4z"/>
<path d="M371.3,447.4c0.2-64.2,1.4-128.5,0.7-192.7c-0.1-4.9-0.1-9.8-0.3-14.7c-0.1-2.4,0-5-0.7-7.3c-0.3-1.6-1-3.4-2.5-3.4
	c-0.3,0-0.6,0.1-0.8,0.2c-0.2-0.1-0.5-0.2-0.8-0.2c-0.5,0-1,0-1.5,0c-11.9-0.4-23.8-0.8-35.7-1.2c-0.9,0-1.6,0.5-2,1.4
	c-0.2-0.1-0.5-0.2-0.8-0.2c-1.1,0-1.8,1-2.2,2.1c-0.6,1.2-0.7,2.7-0.5,4.1c0,23.7,0,47.4,0,71.1c0,38.2,0,76.3,0,114.5
	c0,8.7,0,17.5,0,26.2c0,3.3,0,6.6,0,9.9c-1.2,2.9-0.6,8.4,1.9,9c0.3,0.1,0.5,0.2,0.9,0.2c0.3,0,0.5-0.1,0.8-0.2
	c13.8,0.1,27.5,0.1,41.3,0.2c2.7,0,3.5-5.6,2.3-8.8C371.3,454.3,371.3,450.8,371.3,447.4z"/>
</svg>
