<?xml version="1.0" encoding="UTF-8" standalone="no"?>
<!DOCTYPE svg PUBLIC "-//W3C//DTD SVG 1.1//EN" "http://www.w3.org/Graphics/SVG/1.1/DTD/svg11.dtd">
<svg width="100%" height="100%" viewBox="0 0 567 567" version="1.1" xmlns="http://www.w3.org/2000/svg" xmlns:xlink="http://www.w3.org/1999/xlink" xml:space="preserve" xmlns:serif="http://www.serif.com/" style="fill-rule:evenodd;clip-rule:evenodd;stroke-linejoin:round;stroke-miterlimit:1.41421;">
    <g id="Layer_1">
        <path d="M364.68,214.781C355.495,215.719 346.043,215.028 340.506,206.832C340.05,206.158 339.043,207.115 339.055,207.664C339.305,219.236 354.75,220.879 363.371,220.885C368.518,220.888 373.678,220.05 378.69,218.937C380.487,218.539 381.91,218.519 383.294,217.383C385.453,219.202 387.585,221.051 389.645,222.986C389.719,223.056 389.792,223.13 389.866,223.201C389.013,224.681 388.992,226.344 390.691,227.207C403.525,233.727 421.67,237.423 433.871,227.799C444.498,219.42 447.5,203.469 452.334,191.565C458.277,176.924 466.089,160.769 462.937,144.556C461.773,138.566 458.982,134.66 453.484,132.049C448.71,129.78 441.393,129.279 438.817,124.07C438.463,123.354 437.441,123.761 437.141,124.371C436.803,124.18 436.328,124.149 435.69,124.401L435.69,124.4C425.246,128.36 416.045,135.859 408.231,143.673C404.069,147.835 400.386,152.4 397.336,157.435C396.44,158.915 395.242,160.967 394.393,163.115C392.875,157.32 391.454,151.531 390.379,145.632C389.511,140.866 389.936,135.15 387.863,130.763C387.847,130.729 387.825,130.708 387.803,130.681C389.054,130.337 390.3,129.64 391.14,129.1C393.048,127.871 394.866,125.904 394.933,123.528C394.959,122.604 393.631,122.955 393.32,123.449C392.377,124.95 391.415,126.13 389.857,127.027C388.699,127.696 387.356,128.038 386.161,128.632C370.897,124.548 362.094,139.408 356.445,151.16C352.332,159.719 349.665,168.844 346.135,177.635C343.128,185.127 338.713,193.465 337.914,201.66C337.836,201.992 337.788,202.331 337.808,202.682C337.81,202.729 337.813,202.777 337.816,202.824C337.816,202.826 337.817,202.828 337.817,202.83C337.727,204.54 338.562,205.294 339.731,205.399C342.253,205.95 346.346,203.219 346.175,200.147C346.175,200.146 346.176,200.145 346.176,200.143C346.179,200.094 346.182,200.045 346.184,199.997C346.189,199.905 346.17,199.836 346.169,199.75C345.937,192.683 350.054,185.237 352.57,178.834C355.381,171.685 357.57,164.314 360.394,157.168C362.909,150.807 365.935,144.35 369.912,138.757C372.061,135.731 374.816,134.134 378.266,132.952C381.508,131.842 383.961,132.724 386.542,130.888C386.632,130.885 386.724,130.878 386.814,130.869C386.789,130.907 386.764,130.946 386.75,130.988C384.982,136.005 386.017,141.643 386.679,146.815C387.446,152.812 388.765,158.765 390.118,164.661C390.171,165.054 390.254,165.428 390.402,165.912C390.859,167.379 392.442,167.015 393.519,166.028C393.263,167.406 393.275,168.736 393.736,169.888C394.008,170.569 394.889,170.028 395.108,169.61C397.212,165.582 398.09,161.27 400.615,157.344C403.544,152.787 407.28,148.735 411.151,144.974C418.035,138.288 426.605,131.228 435.899,128.286C436.438,128.114 436.86,127.764 437.17,127.341C438.628,134.392 449.481,135.381 453.993,140.194C458.483,144.984 457.357,154.59 456.384,160.398C455.131,167.867 452.335,175.005 449.474,181.978C444.827,193.302 441.064,205.561 435.151,216.288C431.848,222.279 427.465,225.469 420.643,226.12C414.046,226.75 407.258,225.38 401.032,222.962C400.029,221.369 398.452,220.027 396.941,218.596C393.348,215.186 389.278,212.137 385.24,209.283C377.322,203.688 369.011,197.787 360.459,193.217C359.369,192.635 357.836,194.206 358.567,195.246C363.404,202.125 370.984,207.39 377.574,212.663C377.422,212.699 377.268,212.736 377.118,212.774C373.041,213.798 368.856,214.355 364.68,214.781Z" style="fill:rgb(1,1,1);fill-rule:nonzero;"/>
        <path d="M365.756,180.094C375.721,187.742 388.812,188.087 400.315,192.648C409.667,196.355 418.698,201.718 421.648,211.563C421.669,211.878 421.73,212.195 421.868,212.511C421.917,212.625 421.966,212.739 422.014,212.853C423.627,216.582 429.481,212.939 429.095,209.72C428.545,205.141 425.973,201.27 422.518,198.088C423,197.61 423.346,197.012 423.421,196.351C424.332,188.304 428.43,181.325 431.374,173.913C432.629,170.754 433.395,167.475 433.868,164.119C434.233,161.539 432.581,159.231 431.94,156.839C431.796,156.294 431.038,156.88 431.025,157.243C430.606,170.535 421.25,181.202 418.559,193.803C418.313,194.018 418.107,194.278 417.973,194.569C414.525,192.296 410.76,190.53 407.411,189.267C398.189,185.789 388.292,184.837 378.72,182.802C379.545,181.883 379.964,180.719 379.414,179.679C375.995,173.224 376.001,164.207 379.248,157.655C379.65,156.84 378.671,156.652 378.156,157.058C371.442,162.335 370.167,173.405 372.771,181.342C370.625,180.737 368.504,180.047 366.427,179.207C365.942,179.011 365.262,179.714 365.756,180.094Z" style="fill:rgb(1,1,1);fill-rule:nonzero;"/>
        <path d="M448.457,385.297C448.495,388.905 454.163,386.424 454.116,383.483L454.117,383.483C454.117,383.475 454.116,383.469 454.116,383.462C454.068,380.288 454.172,372.778 451.695,368.997C452.87,367.134 453.174,364.717 453.806,362.639C455.066,358.503 456.619,354.457 458.146,350.415C460.642,343.8 463.089,337.181 464.919,330.345C468.972,315.212 468.968,298.47 467.306,283.001C465.841,269.372 462.921,255.263 453.926,244.511C449.593,239.331 445.605,234.435 445.71,227.325C445.806,220.878 448.024,213.896 451.216,208.345C451.443,207.95 450.89,207.764 450.635,208.028C444.321,214.606 439.749,227.232 441.739,236.263C442.516,239.793 444.88,242.963 447.355,245.918C445.742,246.651 443.983,248.645 442.817,249.297C439.296,251.268 435.178,252.276 431.24,252.975C423.742,254.301 416.08,253.993 408.514,254.619C408.278,254.639 407.974,255.134 408.327,255.165C415.465,255.8 422.628,255.769 429.754,254.942C433.379,254.522 437.01,253.755 440.442,252.515C441.812,252.021 443.129,251.371 444.411,250.69C444.812,250.476 446.94,248.927 447.603,248.348C448.021,248.249 448.431,248.078 448.747,247.936C448.823,247.902 448.89,247.851 448.958,247.803C449.859,248.856 450.734,249.885 451.508,250.895C452.183,251.776 452.8,252.688 453.372,253.623C452.673,253.437 451.796,253.626 450.874,254.46C442.517,262.023 427.698,261.036 417.246,261.667C416.792,261.693 415.992,262.607 416.664,262.897C427.973,267.756 442.927,264.018 453.157,258.266C454.154,257.705 454.655,256.944 454.809,256.196C457.53,261.575 458.97,267.571 460.178,273.458C463.559,289.941 463.659,307.377 460.94,323.957C459.679,331.644 456.985,339.028 454.246,346.287C452.842,350.011 451.428,353.729 450.097,357.48C449.631,358.794 449.194,360.122 448.751,361.444C448.443,362.372 448.225,363.914 447.881,365.237C447.058,365.93 446.431,366.884 446.365,367.857C445.983,368.351 445.808,368.952 446.071,369.529C447.516,372.7 448.102,375.968 448.329,379.324C447.596,379.497 446.903,379.749 446.196,380.07C429.999,383.653 413.493,383.757 396.94,383.049C389.594,382.735 382.243,382.93 374.894,382.742C369.198,382.597 363.58,381.446 357.95,380.885C358.033,380.68 358.095,380.471 358.122,380.259C358.924,374.042 358.757,367.837 358.573,361.586C358.364,354.424 358.902,347.369 359.658,340.249C361.202,325.728 363.887,311.342 366.998,297.083C369.533,285.465 372.469,273.937 375.52,262.443C375.718,262.625 375.928,262.799 376.166,262.964C377.59,263.948 379.293,264.758 381.006,265.059C383.358,265.472 386.057,261.468 383.1,260.616C381.819,260.246 380.532,260.059 379.299,259.519C378.413,259.131 377.515,258.643 376.67,258.125C376.816,257.575 376.961,257.025 377.108,256.477C377.446,255.218 377.789,253.96 378.129,252.702C380.959,253.995 384.206,254.339 387.282,254.386C388.098,254.399 388.651,252.935 387.595,252.929C384.45,252.911 381.39,252.526 378.441,251.543C379.776,246.605 381.116,241.671 382.443,236.731C383.862,231.445 376.402,228.131 378.269,222.478C378.896,220.582 376.135,221.354 375.547,222.352C373.567,225.714 374.847,229.63 376.125,233.017C377.395,236.383 377.174,237.127 376.17,240.716C375.167,244.302 374.172,247.89 373.191,251.483C369.358,265.523 365.662,279.601 362.413,293.791C359.146,308.045 356.472,322.431 354.628,336.938C353.74,343.911 352.968,350.978 352.855,358.01C352.754,364.202 353.246,370.366 352.905,376.535C352.592,376.476 352.282,376.417 351.95,376.365C350.584,376.157 348.248,377.863 349.07,379.434C349.797,380.82 350.742,381.512 351.905,382.158C351.91,382.355 351.968,382.547 352.134,382.707C353.294,383.825 354.698,384.686 356.248,385.354C356.015,385.561 355.832,385.798 355.792,386.003C352.601,402.232 364.801,415.06 374.763,426.186C386.871,439.71 400.333,451.939 411.611,466.184C411.421,466.634 411.355,467.122 411.52,467.604C412.194,469.568 413.441,470.048 415.438,470.312C417.182,470.541 419.357,468.958 419.567,467.193C419.78,470.815 419.978,474.439 420.125,478.065C420.346,483.566 420.432,489.074 420.387,494.579C420.346,499.359 420.778,505.137 419.218,509.702C417.891,513.587 423.214,513.746 424.279,510.645C427.133,502.339 426.178,492.281 426.03,483.624C425.842,472.525 424.922,461.436 424.114,450.369C422.608,429.732 420.66,409.119 420.771,388.444C430.03,388.025 439.233,386.977 448.442,384.769C448.446,384.946 448.459,385.121 448.457,385.297ZM416.501,414.013C416.586,415.78 416.685,417.547 416.774,419.315C414.774,415.596 412.237,412.132 410.033,409.477C405.083,403.515 396.036,397.862 388.014,399.998C387.5,400.135 386.76,401.155 387.494,401.512C390.553,402.998 393.979,403.442 397.06,405.002C400.674,406.832 403.588,409.809 406.103,412.924C408.744,416.194 410.582,420.004 412.304,423.809C413.748,426.997 414.348,431.081 416.761,433.682C416.987,433.925 417.264,434.053 417.561,434.1C417.761,437.667 417.961,441.235 418.168,444.801C418.586,451.991 419.087,459.178 419.516,466.367C419.442,466.078 419.307,465.791 419.099,465.513C408.37,451.143 395.267,438.85 382.83,426.001C376.581,419.547 370.588,412.825 365.222,405.614C360.629,399.443 359.676,393.147 357.953,385.99C362.314,387.428 367.443,387.674 371.469,387.936C378.94,388.424 386.428,388.196 393.905,388.416C402.16,388.659 410.322,388.821 418.438,388.543C415.75,396.6 416.098,405.654 416.501,414.013Z" style="fill:rgb(1,1,1);fill-rule:nonzero;"/>
        <path d="M455.409,445.096C456.843,434.315 457.401,422.507 454.944,411.837C453.672,406.305 451.793,401.076 449.036,396.108C447.092,392.601 443.598,390.526 441.878,387.011C441.566,386.382 440.572,386.878 440.516,387.451C440.221,390.423 440.717,391.688 442.78,393.818C445.831,396.967 447.321,403.52 448.641,407.605C452.315,418.977 451.763,432.013 450.422,443.736C449.192,454.482 446.482,465.03 443.121,475.292C441.342,480.73 439.243,486.063 437.041,491.341C435.907,494.052 434.697,496.73 433.473,499.399C433.013,500.399 432.741,501.758 432.387,503C431.743,503.528 431.222,504.201 431.055,504.75C430.737,505.799 430.381,506.834 430.909,507.867C431.93,509.864 434.684,509.035 435.743,507.475C438.057,504.067 439.022,499.346 440.704,495.536C443.104,490.099 445.264,484.557 447.223,478.946C451.062,467.954 453.873,456.639 455.409,445.096Z" style="fill:rgb(1,1,1);fill-rule:nonzero;"/>
        <path d="M458.658,51.403C458.539,46.311 457.035,41.085 454.329,35.995C448.825,25.643 435.834,18.097 424.521,23.035C423.875,19.12 418.763,15.64 415.544,14.142C408.481,10.857 400.009,11.404 393.04,14.686C384.793,18.571 377.039,26.857 373.047,36.266C367.127,37.253 362.934,42.563 359.996,47.497C355.528,54.999 354.017,63.174 355.295,71.816C356.246,78.244 359.578,83.674 364.96,87.278C365.765,87.817 366.667,88.319 367.63,88.776C363.843,93.919 366.438,99.99 371.036,103.844C374.685,106.902 383.794,111.651 387.873,107.028C388.337,106.503 388.302,105.768 387.759,105.351C386.436,104.332 384.003,104.756 382.411,104.475C379.888,104.029 377.566,102.877 375.39,101.571C370.88,98.864 367.907,94.519 368.957,89.362C372.899,90.96 377.623,91.731 381.449,90.843C383.515,98.923 387.793,106.19 394.867,111.025C394.55,111.272 394.302,111.64 394.302,111.975C394.3,114.568 394.894,117.201 395.117,119.787C395.261,121.447 395.294,123.13 395.087,124.787C394.941,125.97 394.187,126.78 393.937,127.906C393.62,129.336 395.119,129.615 396.113,129.123C400.76,126.815 398.271,116.539 396.519,112.079C396.725,112.201 396.923,112.33 397.134,112.448C404.058,116.348 412.696,116.971 420.027,113.935C420.414,113.775 420.779,113.595 421.148,113.418C420.426,115.104 420.002,116.919 419.998,118.748C419.993,120.571 420.227,122.352 420.477,124.155C420.564,124.789 420.64,125.419 420.761,126.046C420.791,126.207 421.248,127.653 421.016,126.494C421.379,128.307 423.281,127.624 424.185,126.647C425.56,125.165 424.801,123.261 424.384,121.544C423.543,118.083 423.94,114.942 424.3,111.565C430.257,107.32 433.339,100.443 434.617,93.07C435.06,90.514 435.391,87.876 435.631,85.199C435.747,85.196 435.862,85.181 435.965,85.148C440.719,83.585 443.622,75.519 443.791,71.028C443.868,68.931 442.625,65.717 440.757,64.559C438.9,63.41 437.168,64.143 435.578,65.282C435.389,63.224 435.161,61.187 434.857,59.208C433.968,53.416 432.081,47.869 429.393,42.675C426.511,37.105 423.039,33.985 417.854,30.756C416.858,30.136 415.082,31.852 415.965,32.781C421.651,38.76 425.933,45.431 428.551,53.07C428.458,53.049 428.363,53.028 428.275,53.006C425.843,52.36 423.567,51.11 421.439,49.797C417.582,47.413 414.46,44.269 413.505,39.771C413.498,39.738 413.479,39.723 413.469,39.694C414.177,39.431 414.894,39.181 415.628,38.959C416.068,38.824 416.71,37.731 415.901,37.674C407.251,37.049 399.288,44.877 394.248,50.984C390.812,55.146 388.093,59.936 386.072,64.927C385.811,65.571 385.544,66.254 385.284,66.961C385.353,66.523 385.428,66.088 385.505,65.657C386.845,58.25 389.76,51.008 394.293,44.981C396.38,42.208 398.977,39.895 401.921,38.069C403.347,37.185 410.545,33.734 411.221,36.142C411.433,36.905 412.477,36.149 412.584,35.704C412.714,35.173 412.844,34.641 412.973,34.109C413.077,33.681 412.84,33.224 412.387,33.15C395.742,30.421 385.152,50.47 381.782,63.548C379.872,70.965 379.332,79.258 380.653,87.062C377.466,86.295 373.994,86.237 370.899,85.008C365.869,83.009 362.485,79.021 360.594,74.049C356.31,62.778 360.614,44.637 372.065,38.823C369.704,45.708 369.43,53.018 372.477,59.548C372.948,60.557 374.298,59.53 374.311,58.735C374.442,50.958 374.487,43.676 377.36,36.311C380.004,29.536 384.826,23.679 390.963,19.803C396.657,16.207 403.899,14.959 410.412,16.658C413.125,17.366 415.592,18.628 417.955,20.102C420.967,21.982 421.226,24.372 422.041,27.466C422.189,28.034 422.958,27.629 423.172,27.377C424.03,26.366 424.461,25.347 424.567,24.345C435.728,22.944 445.952,29.779 450.911,39.563C453.538,44.747 455.28,50.408 454.432,56.235C453.649,61.606 450.223,66.255 448.335,71.25C447.962,72.235 449.032,72.673 449.727,72.013C454.722,67.258 457.51,61.791 458.373,56.034C461.119,61.763 462.42,67.384 460.635,74.29C459.59,78.327 457.193,82.037 454.308,84.996C451.377,88 447.468,89.233 444.289,91.809C443.779,92.222 443.379,93.598 444.407,93.679C447.454,93.92 450.459,92.687 453.18,90.681C451.906,95.474 450.146,99.261 445.746,102.732C441.321,106.222 435.383,107.314 431.113,110.826C430.636,111.218 430.235,112.548 431.225,112.615C437.127,113.016 444.454,108.006 448.738,104.351C453.134,100.602 456.925,94.348 455.843,88.396C459.532,84.77 462.413,79.963 463.683,76.212C466.494,67.906 465.508,57.4 458.658,51.403ZM439.218,76.313C438.485,77.946 436.975,79.563 435.904,81.255C436.161,76.308 436.081,71.295 435.683,66.421C441.553,64.264 440.567,73.307 439.218,76.313ZM385.779,77.093C387.051,73.269 387.396,69.254 388.821,65.44C390.475,61.017 392.971,56.947 395.799,53.186C399.954,47.657 405.062,43.365 411.192,40.62C409.962,44.827 413.823,48.871 416.874,51.25C419.504,53.301 425.554,57.689 429.697,56.892C429.795,57.269 429.896,57.644 429.986,58.026C432.174,67.288 431.552,77.244 431.036,86.668C430.541,95.689 428.8,105.04 420.236,109.725C413.601,113.355 405.265,111.553 399.039,108.043C388.328,102.006 384.613,89.824 384.466,77.945C384.922,78.139 385.646,77.497 385.779,77.093Z" style="fill:rgb(1,1,1);fill-rule:nonzero;"/>
        <path d="M391.127,114.77C388.493,115.187 385.145,115.314 382.981,113.426C382.593,113.088 381.705,113.648 381.994,114.131C382.996,115.803 384.107,117.033 386.06,117.65C387.867,118.218 390.571,118.822 392.025,117.286C392.504,116.779 392.927,116.054 392.428,115.4C392.37,115.324 392.312,115.249 392.254,115.171C392.016,114.859 391.501,114.71 391.127,114.77Z" style="fill:rgb(1,1,1);fill-rule:nonzero;"/>
        <path d="M437.6,508.503C437.296,508.515 436.959,508.873 437.074,509.186C437.547,510.466 438.271,511.014 439.153,512.068C441.028,514.31 441.341,517.513 441.483,520.297C441.757,525.651 440.099,531.113 439.011,536.305C437.987,541.19 436.591,548.617 437.99,553.531C438.829,556.478 442.852,553.553 443.278,551.827C443.885,549.359 443.346,546.413 443.272,543.902C443.122,538.882 444.092,534.053 444.691,529.082C445.279,524.196 445.652,508.169 437.6,508.503Z" style="fill:rgb(1,1,1);fill-rule:nonzero;"/>
        <path d="M419.631,516.918C419.867,516.138 418.753,516.273 418.453,516.696C408.469,530.718 396.515,541.615 382.247,551.177C380.657,552.242 378.978,555.428 381.841,556.139C389.806,558.118 399.112,557.175 407.192,556.619C411.464,556.325 425.632,556.513 426.421,550.146C426.715,547.778 423.984,547.212 422.507,548.75C423.658,547.553 422.247,548.876 421.552,549.127C420.191,549.618 418.736,549.853 417.314,550.088C413.278,550.757 409.169,551.033 405.087,551.261C400.198,551.532 394.855,551.973 389.766,551.562C395.212,547.455 400.369,542.952 405.187,538.135C411.171,532.157 417.146,525.146 419.631,516.918Z" style="fill:rgb(1,1,1);fill-rule:nonzero;"/>
        <path d="M479.288,509.893C485.433,506.222 475.854,497.517 473.533,494.326C470.91,490.722 472.489,483.751 468.718,480.943C464.298,477.655 458.449,477.116 453.509,474.839C452.823,474.522 451.695,475.493 452.265,476.172C454.639,478.992 457.812,480.186 461.075,481.74C466.789,484.466 465.938,489.469 467.34,494.715C468.823,500.268 474.221,504.19 476.53,509.339C477.022,510.436 478.365,510.443 479.288,509.893Z" style="fill:rgb(1,1,1);fill-rule:nonzero;"/>
        <path d="M449.389,539.932C454.86,537.609 463.957,536.624 466.992,530.763C471.786,521.503 466.49,510.633 464.837,501.281C464.681,500.407 463.424,500.886 463.353,501.58C462.425,510.518 466.546,519.709 463.033,528.413C462.205,530.465 459.868,530.881 457.974,531.448C454.675,532.439 451.443,533.503 448.394,535.131C445.895,536.465 445.963,541.387 449.389,539.932Z" style="fill:rgb(1,1,1);fill-rule:nonzero;"/>
        <path d="M398.939,254.014C399.751,253.56 400.293,251.653 398.818,251.857C392.64,252.713 390.807,259.546 390.897,264.839C390.91,265.5 391.417,266.057 392.06,266.164C395.243,266.692 398.463,266.695 401.664,266.311C404.489,265.973 408.211,265.506 409.487,262.616C409.822,261.858 409.711,261.201 409.059,260.695C407.397,259.403 404.802,261.009 403.043,261.471C400.425,262.159 397.647,262.291 394.939,262.203C394.65,258.799 395.745,255.813 398.939,254.014Z" style="fill:rgb(1,1,1);fill-rule:nonzero;"/>
        <path d="M432.69,120.371C430.001,120.359 427.415,119.932 425.561,117.84C425.155,117.381 424.283,118.005 424.358,118.53C424.725,121.086 426.89,122.211 429.212,122.831C431.644,123.478 435.945,124.083 438.035,122.417C438.428,122.104 438.605,121.546 438.313,121.118C437.323,119.664 434.198,120.377 432.69,120.371Z" style="fill:rgb(1,1,1);fill-rule:nonzero;"/>
    </g>
    <g id="Layer_2">
        <path d="M242.89,198.939C236.244,189.865 228.323,181.968 220.189,174.286C216.103,170.46 211.928,166.715 207.77,162.932C203.602,159.16 199.37,155.432 195.245,151.56C191.104,147.706 186.977,143.804 182.958,139.75C178.969,135.67 175.053,131.469 171.398,126.986C167.731,122.518 164.288,117.788 161.345,112.671C158.417,107.557 155.968,102.041 154.513,96.171C153.038,90.318 152.625,84.129 153.403,78.135C154.196,72.135 156.153,66.4 158.844,61.18C159.517,59.873 160.232,58.594 160.987,57.345C161.363,56.72 161.751,56.102 162.146,55.491L162.741,54.577L163.413,53.574C165.129,51.303 166.998,49.043 168.972,46.941C172.929,42.726 177.392,38.897 182.497,36.048C187.571,33.175 193.316,31.388 199.169,31.072C205.031,30.699 210.876,31.879 216.312,33.88C221.765,35.898 226.811,38.83 231.495,42.216C233.834,43.92 236.056,45.78 238.194,47.748C240.326,49.728 242.354,51.817 244.211,54.19L240.212,54.381C241.36,52.368 242.652,50.815 244.009,49.257C245.369,47.723 246.803,46.284 248.295,44.911C251.281,42.168 254.497,39.685 257.927,37.48C261.353,35.269 265.026,33.387 268.905,31.904C272.78,30.417 276.888,29.359 281.129,28.949C285.362,28.524 289.726,28.725 293.951,29.66C298.179,30.588 302.239,32.232 305.94,34.387C313.37,38.726 319.29,44.914 324.053,51.569L324.176,51.741L324.322,52.003C328.057,58.704 331.158,66.081 332.342,74.095C332.932,78.083 333.066,82.195 332.606,86.241C332.167,90.289 331.206,94.26 329.824,98.012C327.052,105.539 322.824,112.152 318.209,118.157C313.591,124.186 308.485,129.63 303.368,134.955C293.069,145.545 282.43,155.491 272.328,165.975C262.174,176.399 252.546,187.319 243.647,198.95L243.263,199.451L242.89,198.939ZM243.291,197.797C250.416,185.223 258.988,173.451 268.189,162.273C277.564,150.9 287.67,140.174 297.312,129.341C302.129,123.927 306.756,118.409 310.893,112.704C314.999,106.992 318.575,101.021 320.783,94.755C323.022,88.501 323.746,81.969 322.835,75.461C321.931,68.955 319.557,62.501 316.302,56.379L316.57,56.812C312.443,50.782 307.509,45.361 301.575,41.67C295.672,37.959 288.783,36.183 281.761,36.635C278.256,36.859 274.731,37.56 271.282,38.651C267.831,39.748 264.471,41.256 261.221,43.013C257.978,44.784 254.863,46.852 251.952,49.167C250.498,50.325 249.096,51.547 247.782,52.832C246.488,54.103 245.205,55.495 244.339,56.81L242.314,59.881L240.337,57C237.347,52.639 233.445,48.617 229.225,45.156C224.995,41.669 220.281,38.746 215.227,36.675C210.183,34.591 204.724,33.543 199.316,33.792C193.901,34.048 188.617,35.787 183.969,38.59C179.316,41.404 175.262,45.18 171.808,49.428C170.071,51.565 168.493,53.769 166.972,56.106L166.035,57.793C165.714,58.394 165.401,58.999 165.101,59.608C164.497,60.825 163.938,62.06 163.423,63.306C161.365,68.292 160.075,73.515 159.821,78.743C159.516,83.971 160.263,89.174 161.788,94.174C164.856,104.206 170.851,113.375 177.62,121.961C181.046,126.241 184.687,130.408 188.48,134.472C192.246,138.562 196.135,142.578 200.085,146.561C204.052,150.526 207.992,154.553 211.945,158.586C215.908,162.608 219.808,166.721 223.601,170.947C227.416,175.15 231.062,179.53 234.499,184.072C237.751,188.433 240.776,192.986 243.291,197.797Z" style="fill:rgb(35,31,32);fill-rule:nonzero;"/>
        <g id="girl">
            <path d="M150.406,269.348C139.535,268.311 129.441,274.943 121.891,282.159C112.531,291.105 105.747,302.527 100.852,314.431C91.756,336.55 87.286,365.178 102.387,385.679C112.635,399.591 129.441,408.686 145.995,412.6C162.724,416.555 178.796,412.233 192.417,402.162C198.681,397.529 204.639,391.891 208.681,385.189C212.207,379.342 214.357,372.768 215.702,366.1C218.674,351.358 217.499,335.877 214.169,321.312C211.687,310.465 207.468,300.324 200.926,291.305C193.083,280.491 181.994,268.347 167.794,267.575C165.591,267.456 161.609,271.028 164.652,272.736C178.957,280.765 191.589,291.598 199.068,306.491C205.526,319.353 208.235,334.127 208.644,348.413C209.021,361.55 207.168,376.443 198.612,386.972C188.512,399.397 172.948,407.209 156.889,405.854C139.668,404.399 122.394,395.06 111.082,382.16C102.916,372.844 100.012,361.706 100.017,349.5C100.022,336.612 103.319,323.652 108.362,311.857C113.227,300.48 120.185,289.484 129.666,281.406C135.556,276.391 142.547,273.066 150.02,271.135C150.677,270.965 151.503,269.453 150.406,269.348Z" style="fill:rgb(1,1,1);fill-rule:nonzero;"/>
            <path d="M154.857,250.828C150.53,252.629 146.986,256.02 145.901,260.707C144.987,264.657 147.785,268.137 150.987,270.061C155.924,273.025 161.595,270.456 165.001,266.472C168.006,262.956 169.506,257.339 166.651,253.332C162.805,247.936 151.654,249.96 147.99,254.193C147.495,254.764 147.22,256.173 148.15,256.532C152.377,258.163 157.26,254.39 161.248,257.226C162.968,258.449 162.408,261.37 161.29,263.392C160.914,264.073 159.852,265.097 159.142,265.513C158.337,265.982 157.355,266.194 155.861,265.846C153.951,265.402 152.276,263.776 151.076,262.325C148.457,259.157 152.756,253.533 155.136,251.55C155.455,251.284 155.365,250.617 154.857,250.828Z" style="fill:rgb(1,1,1);fill-rule:nonzero;"/>
            <path d="M166.331,254.795C172.223,249.47 177.933,243.85 184.524,239.377C191.484,234.653 199.256,231.471 207.246,228.941C215.079,226.458 223.607,225.252 231.824,225.741C234.422,225.896 237.016,226.101 239.612,226.272C241.891,226.422 244.454,226.707 246.248,224.968C247.312,223.936 248.21,222.225 247.125,220.871C246.597,220.211 245.634,220.086 244.86,220.236C243.646,220.472 242.354,221.287 242.138,222.624C242.471,222.141 242.805,221.658 243.138,221.175C244.089,220.862 245.04,220.55 245.992,220.238C244.611,219.806 242.566,220.571 240.856,220.615C238.087,220.687 235.309,220.429 232.542,220.407C223.53,220.336 214.402,221.974 205.867,224.797C189.78,230.117 174.504,239.383 165.347,254.011C164.85,254.802 165.653,255.41 166.331,254.795Z" style="fill:rgb(1,1,1);fill-rule:nonzero;"/>
            <path d="M150.454,252.745C150.091,249.021 146.982,246.019 144.708,243.233C141.67,239.511 138.515,235.927 134.945,232.703C130.053,228.286 124.699,224.487 118.898,221.354C108.534,215.756 91.123,208.76 80.302,216.912C78.023,218.63 78.925,222.412 82.073,221.462C87.554,219.808 92.076,219.382 97.773,220.537C104.316,221.864 110.526,224.612 116.369,227.777C121.949,230.799 127.097,234.374 131.857,238.566C134.858,241.209 137.607,244.149 140.306,247.097C142.744,249.759 145.176,253.33 148.874,254.131C149.608,254.29 150.527,253.502 150.454,252.745Z" style="fill:rgb(1,1,1);fill-rule:nonzero;"/>
            <path d="M82.026,220.63C73.585,228.775 69.756,239.407 68.093,250.881C67.702,253.582 67.603,256.301 67.373,259.016C67.102,262.22 67.861,263.051 70.496,264.74C74.613,267.381 79.371,268.984 84.059,270.267C95.101,273.294 106.865,273.876 118.258,273.665C128.407,273.477 138.681,272.664 147.963,268.345C149.089,267.821 149.459,265.743 147.82,265.804C122.866,266.734 94.744,272.046 72.312,257.763C72.657,258.331 73.002,258.898 73.347,259.466C72.415,252.986 73.334,246.312 74.824,239.978C76.29,233.739 78.88,226.432 83.243,221.595C84.039,220.714 82.798,219.886 82.026,220.63Z" style="fill:rgb(1,1,1);fill-rule:nonzero;"/>
            <path d="M241.222,223.68C243.177,226.53 244.701,230.139 246.273,233.242C248.005,236.663 249.31,240.332 250.35,244.017C252.331,251.024 253.193,259.056 250.751,266.056C252.167,265.231 253.583,264.406 254.997,263.581C254.246,263.45 253.492,263.339 252.737,263.249C251.352,263.063 249.211,264.452 249.523,266.07C249.857,267.794 250.091,268.288 251.486,269.351C253.068,270.556 255.861,268.609 256.413,267.112C259.294,259.311 258.454,250.702 256.228,242.842C255.009,238.537 253.186,234.444 250.89,230.61C249.863,228.897 248.742,227.377 247.399,225.9C245.857,224.205 244.336,223.494 242.497,222.313C241.778,221.849 240.757,223.001 241.222,223.68Z" style="fill:rgb(1,1,1);fill-rule:nonzero;"/>
            <path d="M165.455,265.618C167.55,270.335 174.898,272.123 179.403,273.131C186.146,274.641 193.132,274.998 200.02,275.149C217.597,275.531 234.781,276.197 251.903,271.361C254.739,270.559 256.632,265.041 252.409,265.315C249.493,265.504 246.695,266.521 244.941,268.952C244.456,269.624 244.264,270.645 245.092,271.145C246.886,272.227 249.095,271.644 251.079,271.526C251.247,269.511 251.416,267.496 251.585,265.48C235.44,270.125 219.374,270.019 202.754,270.267C196.18,270.367 189.58,270.36 183.044,269.58C180.067,269.225 177.104,268.657 174.222,267.837C171.453,267.049 168.883,265.617 166.132,264.895C165.788,264.808 165.3,265.267 165.455,265.618Z" style="fill:rgb(1,1,1);fill-rule:nonzero;"/>
            <path d="M149.67,269.462C142.964,273.595 137.825,279.34 134.466,286.489C132.755,290.132 131.832,294.042 131.557,298.042C131.331,301.335 131.566,306.063 134.353,308.243C135.131,308.851 136.52,307.725 136.603,306.935C136.928,303.878 135.757,300.787 135.697,297.686C135.628,294.084 136.612,290.45 137.947,287.138C140.49,280.833 145.129,274.998 150.524,270.884C151.447,270.182 150.742,268.802 149.67,269.462Z" style="fill:rgb(1,1,1);fill-rule:nonzero;"/>
            <path d="M156.957,272.216C153.99,272.271 151.236,275.392 149.862,277.761C148.048,280.887 147.413,284.348 147.349,287.929C147.241,294.016 150.022,303.878 156.895,305.52C157.555,305.676 158.636,304.77 158.264,304.06C157.13,301.891 155.701,299.928 154.615,297.71C153.232,294.887 152.423,291.865 152.019,288.76C151.658,285.969 151.901,283.184 152.716,280.497C153.622,277.51 155.782,276.106 157.585,273.792C158.1,273.135 157.884,272.199 156.957,272.216Z" style="fill:rgb(1,1,1);fill-rule:nonzero;"/>
            <path d="M163.448,272.986C160.088,277.775 158.761,283.952 159.969,289.685C161.175,295.405 164.847,302.823 170.773,304.763C171.828,305.108 173.281,303.598 172.835,302.565C171.9,300.4 170.234,298.731 168.789,296.89C166.969,294.571 165.599,292.03 164.603,289.262C162.663,283.87 163.477,278.635 164.893,273.259C165.149,272.298 163.824,272.45 163.448,272.986Z" style="fill:rgb(1,1,1);fill-rule:nonzero;"/>
            <path d="M143.283,324.52C140.805,328.112 137.734,335.408 140.004,339.685C141.135,341.818 144.037,341.752 145.835,340.53C148.277,338.869 149.273,335.972 149.75,333.178C150.36,329.61 149.942,319.434 143.641,322.684C138.095,325.543 137.68,334.696 141.403,339.228C142.732,340.844 145.007,339.37 146.033,338.266C149.161,334.903 150.057,329.766 147.923,325.651C146.747,323.385 144.118,324.631 142.828,326.062C139.982,329.225 136.67,340.486 143.107,341.715C144.012,341.888 144.947,341.211 145.321,340.424C147.199,336.477 144.091,332.111 147.314,328.486C145.616,328.623 143.919,328.76 142.22,328.897C143.503,331.324 143.48,333.771 141.657,335.9C143.2,335.578 144.743,335.257 146.287,334.937C145.418,333.992 145.019,332.589 144.772,331.353C144.603,330.505 144.563,329.642 144.566,328.782C144.571,327.575 145.614,327.058 144.223,327.338C143.694,327.443 143.826,327.102 144.116,327.674C144.365,328.17 144.496,328.733 144.587,329.275C144.86,330.879 144.784,332.544 144.532,334.141C144.433,334.766 144.291,335.408 144.073,336.002C143.899,336.478 143.207,337.151 143.982,336.611C144.382,336.332 144.415,336.678 144.265,336.415C143.877,335.732 143.85,334.883 143.795,334.125C143.587,331.25 143.859,327.562 144.576,324.764C144.798,323.906 143.62,324.032 143.283,324.52Z" style="fill:rgb(1,1,1);fill-rule:nonzero;"/>
            <path d="M157.984,324.444C153.822,328.284 154.588,337.997 158.717,341.55C160.038,342.685 162.15,342.074 163.064,340.647C164.819,337.904 165.637,334.479 166.227,331.313C166.782,328.331 167.377,323.444 164.064,321.789C159.968,319.741 156.076,324.177 155.481,327.825C154.933,331.19 155.662,335.821 157.427,338.777C158.848,341.156 162.267,339.858 163.185,337.604C164.295,334.874 165.368,332.319 164.766,329.333C164.05,325.769 160.048,327.665 158.806,329.815C157.283,332.456 156.718,335.228 158.102,338.042C158.831,339.527 160.842,338.518 161.361,337.378C162.35,335.206 163.199,332.905 164.439,330.864C162.5,331.259 160.563,331.654 158.625,332.049C158.961,333.653 158.186,335.112 157.61,336.564C159.409,335.973 161.209,335.384 163.008,334.793C162.363,333.737 161.705,331.153 161.448,329.522C161.28,328.461 161.223,327.389 161.447,326.336C161.38,326.646 160.366,326.607 160.701,327.457C161.889,330.467 160.108,336.366 158.56,339.078C159.981,338.432 161.402,337.786 162.823,337.14C159.251,334.453 160.181,328.71 160.248,324.887C160.271,323.621 158.596,323.879 157.984,324.444Z" style="fill:rgb(1,1,1);fill-rule:nonzero;"/>
            <path d="M118.238,356.591C118.418,355.642 117.825,355.185 116.952,355.148C116.517,355.129 116.123,355.334 115.74,355.507C115.686,355.535 115.633,355.562 115.579,355.589C115.868,355.477 115.754,355.529 115.237,355.747C115.086,355.844 114.937,355.944 114.784,356.041C115.274,355.941 115.762,355.842 116.251,355.742C115.316,355.483 114.499,355.963 113.778,356.499C112.47,357.474 112.288,360.506 114.559,360.128C115.566,359.962 116.536,359.709 117.52,359.442C118.266,359.241 119.216,358.823 119.959,358.841C120.108,357.055 120.257,355.268 120.408,353.481C119.767,353.675 119.138,353.86 118.488,354.021C117.906,354.166 117.35,354.312 116.815,354.601C116.461,354.777 116.135,354.994 115.834,355.251C115.284,355.94 115.121,356.094 115.346,355.714C114.155,356.721 113.68,358.957 115.582,359.442C117.245,359.868 119.74,359.451 121.422,358.371C122.631,357.596 123.874,356.073 123.281,354.531C122.743,353.125 120.774,353.026 119.676,353.805C119.019,354.272 118.048,354.528 117.271,354.835C116.276,355.229 115.29,355.618 114.334,356.102C115.14,357.021 115.945,357.938 116.751,358.857C117.29,358.138 117.489,357.401 117.238,356.536C117.106,357.151 116.974,357.769 116.842,358.386C116.988,358.19 117.152,358.012 117.28,357.804C117.433,357.623 117.437,357.614 117.294,357.773C118.548,356.49 116.387,358.607 115.703,357.731C116.474,358.718 118.068,357.484 118.238,356.591Z" style="fill:rgb(1,1,1);fill-rule:nonzero;"/>
            <path d="M185.455,353.104C185.596,353.749 185.942,354.284 186.265,354.856C186.645,355.526 187.04,356.271 187.55,356.859C188.332,357.761 189.727,357.551 190.651,357.024C191.789,356.375 192.47,355.289 192.537,353.993C192.568,353.401 192.446,352.863 192.063,352.392C191.646,351.881 190.916,351.722 190.289,351.773C189.79,351.821 189.324,351.972 188.889,352.223C188.657,352.328 188.811,352.264 189.349,352.024C187.674,352.48 185.683,355.021 187.124,356.664C188.53,358.266 191.406,356.707 192.013,355.06C192.026,355.026 192.037,354.991 192.051,354.957C191.731,355.375 191.412,355.793 191.093,356.212C190.915,356.338 190.738,356.465 190.56,356.591C190.092,356.741 189.627,356.891 189.159,357.041C189.174,357.04 189.188,357.039 189.202,357.038C188.624,356.832 188.049,356.627 187.471,356.421C186.969,355.942 187.07,355.033 187.113,355.733C188.775,354.778 190.437,353.823 192.099,352.868C191.076,351.946 190.032,350.803 188.82,350.153C187.992,349.709 186.954,350.104 186.302,350.676C185.567,351.321 185.25,352.156 185.455,353.104Z" style="fill:rgb(1,1,1);fill-rule:nonzero;"/>
            <path d="M117.794,357.609C118.024,363.273 125.057,367.39 129.651,369.207C136.183,371.791 143.368,372.084 150.294,371.582C157.831,371.036 165.322,369.306 172.453,366.851C178.284,364.844 184.593,362.281 189.403,358.319C191.741,356.393 190.049,353.105 187.195,354.639C185.638,355.477 184.151,356.513 182.682,357.5C181.814,358.084 181.221,359.817 182.81,359.799C184.574,359.778 186.455,359.691 188.111,359.061C187.805,357.588 187.5,356.114 187.194,354.639C176.886,361.398 165.085,365.358 152.853,366.864C146.337,367.664 139.577,367.614 133.199,365.934C130.343,365.182 127.661,363.883 125.26,362.173C123.014,360.574 121.573,358.017 119.316,356.515C118.67,356.083 117.768,356.974 117.794,357.609Z" style="fill:rgb(1,1,1);fill-rule:nonzero;"/>
            <path d="M99.302,324.457C96.166,324.878 93.446,323.324 90.515,322.486C87.118,321.515 83.971,322.496 81.202,324.526C74.995,329.08 73.399,336.661 77.354,343.233C81.084,349.433 87.992,349.484 94.239,348.049C96.464,347.538 99.208,346.766 100.311,344.564C101.464,342.257 99.045,341.42 97.303,342.359C96.445,342.82 95.477,344.277 96.32,345.184C96.592,345.51 96.549,345.336 96.191,344.661C96.519,343.974 96.849,343.288 97.177,342.602C98.763,341.963 99.004,341.784 97.899,342.063C97.684,342.126 97.472,342.198 97.262,342.277C96.601,342.514 95.928,342.729 95.259,342.937C93.394,343.515 91.468,343.798 89.524,343.904C84.667,344.169 80.921,339.885 80.224,335.337C79.852,332.914 80.69,330.531 82.384,328.791C84.687,326.426 86.945,326.562 89.866,327.387C93.391,328.383 97.414,329.456 99.856,325.849C100.214,325.321 100.186,324.338 99.302,324.457Z" style="fill:rgb(1,1,1);fill-rule:nonzero;"/>
            <path d="M213.712,324.271C215.49,322.968 216.501,321.686 218.743,321.051C221.008,320.408 223.554,320.676 225.791,321.257C230.571,322.496 233.589,328.02 233.164,332.723C232.758,337.231 229.832,341.069 226.376,343.767C224.758,345.031 222.699,345.918 220.683,346.264C218.467,346.644 216.417,345.665 214.245,346.238C213.131,346.53 211.846,348.035 212.372,349.246C213.567,351.985 217.811,351.612 220.267,351.175C223.593,350.581 226.502,348.957 229.188,346.971C234.534,343.012 238.313,336.335 238.127,329.624C237.938,322.685 232.211,317.355 225.591,316.561C222.288,316.165 219.008,316.881 216.079,318.407C214.148,319.413 211.534,321.794 212.09,324.184C212.272,324.968 213.33,324.551 213.712,324.271Z" style="fill:rgb(1,1,1);fill-rule:nonzero;"/>
            <path d="M220.456,331.665C220.926,332.595 221.217,333.673 221.301,334.717C221.364,335.494 220.829,335.649 220.288,336.226C219.762,336.789 219.288,337.397 219.332,338.219C219.378,339.093 220.156,339.671 221.009,339.571C223.513,339.28 225.623,337.041 225.683,334.491C225.739,332.225 224.412,330.865 222.57,329.809C221.63,329.27 219.931,330.624 220.456,331.665Z" style="fill:rgb(1,1,1);fill-rule:nonzero;"/>
            <path d="M88.347,333.514C87.33,334.81 86.161,336.168 85.944,337.868C85.858,338.546 85.965,339.225 86.627,339.584C88.324,340.503 90.89,340.724 92.156,338.959C92.67,338.243 92.76,337.068 91.86,336.58C91.146,336.194 90.241,336.102 89.485,335.81C89.727,336.209 89.97,336.608 90.212,337.006C90.157,335.939 90.25,334.963 90.503,333.92C90.86,332.447 88.933,332.766 88.347,333.514Z" style="fill:rgb(1,1,1);fill-rule:nonzero;"/>
            <path d="M93.698,347.414C90.494,352.767 75.366,383.982 67.166,369.431C66.995,370.23 66.824,371.028 66.653,371.827C66.769,371.699 66.884,371.569 67,371.44C65.972,371.907 64.944,372.375 63.917,372.84C62.701,372.433 64.239,373.273 64.386,373.361C65.082,373.769 66.088,373.574 66.736,373.171C66.88,373.081 67.023,372.992 67.167,372.902C67.845,372.48 68.557,371.691 68.463,370.82C68.353,369.79 67.796,368.564 66.775,368.144C65.508,367.623 63.883,368.18 63.138,369.353C63.047,369.495 62.956,369.637 62.867,369.779C62.313,370.651 61.896,371.751 62.644,372.659C65.334,375.925 68.471,378.217 72.894,377.307C77.138,376.435 80.518,373.293 83.36,370.211C86.782,366.502 89.47,362.098 91.723,357.603C93.164,354.732 95.269,350.676 94.732,347.332C94.631,346.694 93.907,347.065 93.698,347.414Z" style="fill:rgb(1,1,1);fill-rule:nonzero;"/>
            <path d="M95.843,361.058C94.193,368.734 83.269,403.647 71.235,390.958C70.55,392.386 69.865,393.812 69.181,395.239C68.921,395.294 70.346,395.556 70.585,395.533C71.255,395.465 71.975,394.988 72.23,394.346C72.762,393.006 72.774,392.01 71.956,390.802C71.45,390.057 70.37,390.192 69.643,390.351C69.403,390.401 69.164,390.453 68.924,390.506C67.405,390.834 65.502,393.362 66.871,394.787C74.935,403.169 84.098,395.994 89.152,388.225C92.258,383.45 94.556,378.092 96.212,372.653C97.347,368.926 98.764,364.398 97.416,360.549C97.121,359.711 95.963,360.502 95.843,361.058Z" style="fill:rgb(1,1,1);fill-rule:nonzero;"/>
            <path d="M213.421,353.934C212.605,364.08 219.82,371.231 229.43,373.31C239.262,375.437 249.526,371.148 254.047,362.037C255.098,359.921 252.806,358.328 250.96,359.558C249.358,360.627 248.253,361.696 247.709,363.576C247.397,364.652 248.494,365.172 249.373,364.92C250.476,364.602 251.489,364.146 252.529,363.657C251.499,362.831 250.47,362.005 249.442,361.178C242.361,375.852 216.201,368.98 215.275,353.341C215.199,352.082 213.49,353.058 213.421,353.934Z" style="fill:rgb(1,1,1);fill-rule:nonzero;"/>
            <path d="M212.223,367.81C208.664,378.727 222.229,384.674 230.6,386.831C239.597,389.149 254.443,390.853 261.755,383.467C262.939,382.269 263.682,379.951 261.496,379.361C258.76,378.622 256.262,378.714 253.706,379.948C252.739,380.414 252.096,381.921 253.131,382.633C254.899,383.851 257.137,383.783 259.158,384.319C259.071,382.951 258.985,381.583 258.899,380.215C256.384,382.779 252.212,383.22 248.818,383.504C243.674,383.934 238.486,383.422 233.449,382.358C225.937,380.771 214.305,376.816 214.038,367.447C214.003,366.23 212.437,367.156 212.223,367.81Z" style="fill:rgb(1,1,1);fill-rule:nonzero;"/>
            <path d="M208.926,381.93C204.002,396.362 230.923,400.278 240.222,398.269C242.584,397.759 243.832,392.967 240.624,393.476C239.161,393.708 237.866,393.88 236.753,394.925C236.29,395.359 235.775,396.157 236.091,396.823C236.663,398.029 237.702,398.152 238.948,398.372C239.505,396.739 240.065,395.107 240.622,393.475C234.789,393.838 229.149,393.564 223.427,392.228C218.656,391.114 209.958,388.242 211.184,381.746C211.499,380.082 209.287,380.87 208.926,381.93Z" style="fill:rgb(1,1,1);fill-rule:nonzero;"/>
            <path d="M169.896,258.787C177.205,255.482 183.68,251.411 191.721,249.824C195.414,249.095 199.508,248.8 203.119,250.065C204.813,250.66 208.053,251.52 208.746,253.458C208.607,253.068 208.862,253.121 208.324,253.568C207.625,254.148 206.645,254.512 205.811,254.848C203.348,255.842 200.717,256.466 198.131,257.033C193.264,258.099 188.271,258.104 183.401,258.966C182.212,259.177 180.701,260.799 182.059,261.802C184.375,263.514 187.282,263.199 190.028,262.972C193.695,262.669 197.365,261.913 200.919,260.987C204.857,259.961 213.785,257.286 213.225,251.768C212.948,249.024 209.655,247.706 207.475,246.844C203.2,245.154 198.922,244.925 194.393,245.552C189.3,246.258 184.39,247.997 179.73,250.114C175.938,251.837 171.39,254.158 168.855,257.597C168.198,258.486 168.988,259.197 169.896,258.787Z" style="fill:rgb(1,1,1);fill-rule:nonzero;"/>
            <path d="M143.309,255.25C138.772,253.412 134.555,251.262 130.312,248.818C126.608,246.683 122.846,244.762 118.524,244.52C113.318,244.228 105.155,244.583 102.968,250.436C100.377,257.367 108.192,260.547 113.488,261.337C119.599,262.249 128.466,262.607 133.897,259.239C134.776,258.694 135.682,256.867 134.119,256.524C129.606,255.532 124.502,256.821 119.869,256.768C117.076,256.737 114.254,256.412 111.568,255.636C109.773,255.118 106.642,253.179 107.502,250.804C108.006,249.415 111.5,249.27 112.655,249.146C115.04,248.894 117.585,248.87 119.918,249.459C127.559,251.386 134.103,258.245 142.405,257.16C143.052,257.074 144.401,255.693 143.309,255.25Z" style="fill:rgb(1,1,1);fill-rule:nonzero;"/>
            <path d="M122.529,408.96C117.135,412.992 113.835,420.981 111.215,426.959C108.042,434.203 105.683,441.791 103.722,449.442C99.929,464.249 98.094,479.723 97.947,494.998C100.505,494.178 103.063,493.359 105.62,492.54C105.618,490.503 105.334,488.848 103.522,487.708C102.252,486.907 100.614,487.996 99.816,488.939C98.282,490.752 97.951,492.68 97.947,494.999C97.942,499.879 105.635,496.522 105.62,492.54C105.563,478.189 107.32,463.935 110.324,449.915C111.92,442.47 114.029,435.111 116.706,427.983C117.956,424.655 119.371,421.378 120.917,418.175C122.212,415.491 123.996,412.632 124.69,409.729C125.046,408.252 123.298,408.384 122.529,408.96Z" style="fill:rgb(1,1,1);fill-rule:nonzero;"/>
            <path d="M195.161,404.67C197.12,411.634 200.428,418.129 203.425,424.683C206.735,431.922 209.949,439.202 212.767,446.648C215.565,454.049 217.948,461.628 219.646,469.36C220.491,473.21 221.019,477.14 221.397,481.06C221.738,484.575 221.138,488.537 222.197,491.897C223.545,490.15 224.891,488.401 226.239,486.654C225.789,486.662 225.344,486.709 224.902,486.799C223.717,486.96 222.494,487.863 222.275,489.105C222.157,489.78 222.087,490.437 222.037,491.122C221.933,492.609 223.535,493.456 224.805,493.351C226.858,493.185 228.34,491.584 228.936,489.727C230.029,486.314 229.344,482.137 229.024,478.618C228.687,474.899 228.002,471.235 227.241,467.586C225.556,459.508 222.866,451.663 219.736,444.043C216.724,436.708 213.265,429.544 209.563,422.535C206.003,415.797 202.432,408.866 197.622,402.917C196.673,401.748 194.839,403.523 195.161,404.67Z" style="fill:rgb(1,1,1);fill-rule:nonzero;"/>
            <path d="M97.783,496.341C97.668,504.15 110.981,506.975 116.656,508.146C126.205,510.118 136.151,510.386 145.874,510.371C158.484,510.35 170.837,509.507 183.214,506.947C197.858,503.919 212.049,499.203 226.248,494.575C229.548,493.501 231.938,487.253 226.85,487.389C223.643,487.476 220.32,487.923 217.608,489.755C215.993,490.847 214.077,494.358 217.176,495.021C219.817,495.585 222.598,494.848 225.266,494.774C225.468,492.378 225.668,489.984 225.868,487.588C212.806,491.854 199.754,496.193 186.34,499.238C174.128,502.008 161.826,502.965 149.334,503.033C140.528,503.083 131.745,503.051 122.975,502.138C118.552,501.676 114.139,500.883 109.886,499.569C106.294,498.457 103.419,495.981 99.961,494.776C98.93,494.414 97.799,495.242 97.783,496.341Z" style="fill:rgb(1,1,1);fill-rule:nonzero;"/>
            <path d="M124.218,505.787C116.852,523.511 127.002,542.028 128.954,559.86C130.202,558.765 131.449,557.671 132.696,556.576C125.861,554.72 113.231,557.893 119.246,567.046C122.161,571.483 127.977,571.246 132.6,570.435C135.218,569.974 137.777,569.235 140.315,568.456C142.017,567.932 144.857,567.563 145.866,565.924C147.005,564.073 146.286,561.845 143.791,562.51C142.593,562.831 141.732,563.268 140.752,564.016C140.127,564.495 139.488,565.852 140.215,566.522C141.204,567.434 142.049,567.53 143.384,567.365C142.913,566.184 142.442,565.001 141.971,563.82C141.963,563.832 141.956,563.841 141.948,563.851C142.556,563.415 143.161,562.979 143.769,562.541C138.364,564.182 132.19,566.887 126.482,565.511C124.937,565.139 123.856,563.69 123.146,562.374C122.994,562.092 122.955,561.032 122.652,561.507C122.448,561.827 123.161,561.383 123.339,561.325C125.512,560.613 128.209,560.945 130.382,561.487C132.073,561.909 134.353,559.956 134.125,558.203C133.005,549.635 130.394,541.436 128.152,533.118C125.723,524.103 124.814,515.016 125.291,505.699C125.324,505.048 124.368,505.426 124.218,505.787Z" style="fill:rgb(1,1,1);fill-rule:nonzero;"/>
            <path d="M135.823,507.662C132.954,512.157 133.1,517.733 133.507,522.886C133.982,528.878 134.931,534.914 135.664,540.888C135.987,543.504 136.425,546.099 137.008,548.672C137.418,550.477 138.742,552.068 139.777,553.57C141.023,555.375 142.297,557.159 143.299,559.116C143.613,559.73 143.91,560.408 144.004,561.095C145.206,559.997 145.322,559.674 144.355,560.123C143.705,560.348 143.217,560.743 142.707,561.187C141.937,561.855 141.457,563.018 142.123,563.916C144.778,567.503 149.609,562.046 149.187,558.958C148.615,554.764 144.915,550.976 142.685,547.557C141.033,545.022 140.954,541.098 140.522,538.171C140.032,534.851 139.756,531.483 139.031,528.201C137.524,521.394 137.218,514.644 136.961,507.72C136.933,507.078 136.058,507.294 135.823,507.662Z" style="fill:rgb(1,1,1);fill-rule:nonzero;"/>
            <path d="M190.737,501.174C189.506,505.633 189.729,510.379 189.744,514.968C189.758,519.805 189.951,524.648 190.258,529.474C190.877,539.208 192.054,548.887 193.659,558.506C194.922,557.4 196.182,556.292 197.445,555.186C189.044,552.966 179.428,558.613 180.707,568.048C180.83,568.957 181.288,569.44 182.154,569.696C190.583,572.193 198.919,568.437 207.364,569.702C207.098,568.515 206.835,567.331 206.569,566.143C207.107,565.474 205.893,566.224 205.653,566.328C204.832,566.685 204.341,567.168 203.749,567.822C203.209,568.417 203.008,569.786 203.911,570.182C206.65,571.389 208.609,570.508 210.51,568.271C211.436,567.181 211.474,564.975 209.716,564.711C201.279,563.451 192.827,567.179 184.501,564.717C184.983,565.267 185.465,565.816 185.948,566.365C185.153,560.526 190.21,558.879 195.105,560.148C196.748,560.575 199.215,558.587 198.89,556.827C197.12,547.281 195.789,537.66 194.862,527.995C194.404,523.233 194.022,518.464 193.727,513.688C193.459,509.386 193.616,504.809 192.253,500.682C191.972,499.848 190.874,500.676 190.737,501.174Z" style="fill:rgb(1,1,1);fill-rule:nonzero;"/>
            <path d="M205.039,498.923C199.954,510.749 201.506,525.252 204.086,537.598C205.643,545.052 207.661,552.251 208.744,559.801C209.012,561.668 209.587,563.478 209.941,565.326C210.003,565.667 210.048,566.009 210.077,566.353C210.247,567.921 212.979,565.37 211.677,565.145C210.118,564.876 208.809,564.514 207.201,564.35C205.912,564.218 204.266,565.718 205.174,567.004C206.692,569.151 208.239,570.201 210.925,570.257C212.844,570.297 214.887,568.393 215.203,566.549C215.544,564.563 214.995,562.624 214.533,560.7C213.738,557.404 213.553,554.026 212.862,550.705C209.389,534.062 203.273,516.242 206.662,498.998C206.879,497.888 205.35,498.198 205.039,498.923Z" style="fill:rgb(1,1,1);fill-rule:nonzero;"/>
            <path d="M125.434,404.097C119.489,400.318 109.684,405.075 104.616,408.452C97.681,413.073 92.083,420.005 88.653,427.574C88.096,428.804 88.007,430.839 89.527,431.486C92.19,432.622 94.902,433.63 97.631,434.596C100.085,435.464 102.944,436.887 105.56,437.039C107.226,437.136 109.04,436.519 109.991,435.026C112.718,430.742 107.521,429.512 104.606,428.582C101.194,427.491 97.816,426.284 94.507,424.913C94.799,426.217 95.09,427.521 95.381,428.825C97.909,422.75 101.372,417.631 106.513,413.463C109.045,411.408 112.061,409.842 115.109,408.727C118.257,407.575 121.678,407.268 124.778,406.004C125.44,405.736 126.328,404.664 125.434,404.097Z" style="fill:rgb(1,1,1);fill-rule:nonzero;"/>
            <path d="M193.291,400.14C196.031,401.281 198.85,401.926 201.49,403.337C204.628,405.014 207.401,407.192 209.946,409.668C214.894,414.481 219,420.767 220.606,427.529C221.747,425.698 222.886,423.866 224.026,422.035C220.589,423.429 217.334,425.188 213.961,426.717C211.733,427.726 210.614,430.558 211.918,432.581C212.864,434.048 215.098,433.361 216.293,432.815C219.022,431.569 221.649,430.111 224.399,428.913C226.584,427.96 228.517,425.985 227.819,423.418C225.754,415.822 220.611,409.248 214.709,404.199C209.476,399.724 201.235,394.902 194.161,397.61C193.433,397.89 191.952,399.583 193.291,400.14Z" style="fill:rgb(1,1,1);fill-rule:nonzero;"/>
            <path d="M97.101,430.648C91.195,433.871 86.806,439.546 83.131,445.044C78.89,451.387 76.498,458.062 73.701,465.06C75.064,464.077 76.428,463.093 77.791,462.112C76.596,462.137 75.408,462.469 74.246,462.734C73.704,462.862 73.163,462.991 72.62,463.12C71.163,463.467 71.333,462.979 72.674,464.079C72.303,465.81 71.932,467.542 71.561,469.274C71.902,468.999 72.247,468.729 72.597,468.464C75.489,466.269 74.173,462.214 70.475,463.01C69.278,463.268 68.332,463.702 67.378,464.505C65.558,466.039 64.923,468.666 66.936,470.234C69.199,471.999 73.829,469.57 76.263,469.245C78.577,468.937 80.809,466.956 80.741,464.487C80.585,458.809 84.526,452.331 87.258,447.586C90.442,442.057 94.56,437.18 98.375,432.096C99.142,431.072 98.207,430.044 97.101,430.648Z" style="fill:rgb(1,1,1);fill-rule:nonzero;"/>
            <path d="M73.869,470.24C72.62,472.499 71.597,474.868 70.704,477.288C70.144,478.809 67.755,483.145 70.99,483.559C72.509,483.754 74.131,482.636 74.686,481.229C75.189,479.955 74.961,479.055 75.037,477.82C75.187,475.351 75.649,472.757 76.2,470.349C76.579,468.687 74.37,469.333 73.869,470.24Z" style="fill:rgb(1,1,1);fill-rule:nonzero;"/>
            <path d="M79.785,472.927C78.652,475.117 77.952,477.16 77.764,479.635C77.581,482.034 77.945,485.212 80.637,485.853C82.6,486.322 84.239,484.29 84.384,482.567C84.512,481.016 83.251,479.536 82.694,478.093C82.125,476.618 82.222,474.564 82.569,473.057C83.018,471.099 80.369,471.798 79.785,472.927Z" style="fill:rgb(1,1,1);fill-rule:nonzero;"/>
            <path d="M223.202,433.857C228.57,441.533 232.948,449.717 239.003,456.933C244.137,463.051 251.144,469.78 259.802,467.904C258.857,467.718 257.912,467.533 256.966,467.348C257.025,467.445 257.082,467.538 257.14,467.635C257.977,465.891 258.812,464.148 259.649,462.405C258.208,462.959 257.198,463.754 256.23,464.94C255.678,465.614 255.528,466.782 256.39,467.279C257.112,467.693 257.531,468.134 258.382,468.316C260.6,468.793 263.95,465.941 262.837,463.567C262.789,463.465 262.74,463.363 262.693,463.261C262.259,462.338 261.342,461.786 260.303,461.928C252.83,462.947 246.377,455.913 241.804,450.938C236.139,444.775 231.201,437.963 225.221,432.084C224.256,431.135 222.437,432.765 223.202,433.857Z" style="fill:rgb(1,1,1);fill-rule:nonzero;"/>
            <path d="M244.812,470.779C244.007,472.917 243.528,475.623 244.278,477.84C244.62,478.853 245.338,479.523 246.152,480.152C247.667,481.321 249.802,480.437 251.058,479.4C251.868,478.732 252.294,477.679 252.013,476.66C251.768,475.77 251.174,475.346 250.39,474.971C249.657,474.619 249.833,474.881 249.35,474.22C249.593,474.551 249.181,473.824 249.185,473.835C249.064,473.564 248.963,473.254 248.919,472.964C248.794,472.131 248.868,471.293 248.802,470.456C248.623,468.116 245.384,469.261 244.812,470.779Z" style="fill:rgb(1,1,1);fill-rule:nonzero;"/>
            <path d="M252.924,471.854C253.138,472.308 253.222,472.89 253.386,473.374C253.624,474.085 253.907,474.774 254.223,475.457C254.847,476.807 255.194,478.313 256.522,479.15C258.06,480.119 260.386,478.317 260.621,476.768C260.904,474.89 259.939,473.562 258.695,472.265C258.162,471.708 257.528,471.15 256.85,470.78C256.263,470.46 255.659,470.259 255.077,469.967C254.096,469.469 252.404,470.753 252.924,471.854Z" style="fill:rgb(1,1,1);fill-rule:nonzero;"/>
            <path d="M136.038,407.45C131.009,411.758 133.909,420.381 137.591,424.431C142.2,429.5 149.387,431.974 156.034,432.678C162.974,433.413 170.191,432.13 175.783,427.778C182.12,422.843 182.939,414.72 181.059,407.425C180.848,406.609 179.835,406.262 179.095,406.33C176.874,406.533 175.046,407.234 173.34,408.664C172.068,409.728 172.048,411.923 174.042,411.926C175.408,411.929 176.656,411.502 178.014,411.376C177.359,411.011 176.704,410.645 176.049,410.28C177.373,415.399 177.268,421.532 172.495,424.834C168.037,427.919 162.007,428.299 156.789,427.674C151.253,427.011 145.498,424.965 141.376,421.107C139.61,419.454 138.24,417.36 137.492,415.06C136.703,412.632 137.663,409.781 136.776,407.49C136.655,407.166 136.238,407.28 136.038,407.45Z" style="fill:rgb(1,1,1);fill-rule:nonzero;"/>
            <path d="M100.156,439.772C94.572,441.856 90.923,446.86 87.986,451.83C86.161,454.913 84.824,458.302 83.611,461.664C82.744,464.065 81.316,467.157 82.059,469.713C82.339,470.675 83.644,470.021 84.024,469.555C85.392,467.878 85.915,465.677 86.57,463.646C87.516,460.713 88.593,457.848 89.875,455.045C92.428,449.466 96.008,444.957 100.61,440.942C101.119,440.497 100.996,439.459 100.156,439.772Z" style="fill:rgb(1,1,1);fill-rule:nonzero;"/>
            <path d="M222.318,440.768C224.114,445.623 227.344,449.805 230.478,453.869C233.88,458.283 236.494,463.244 239.911,467.618C240.377,468.216 241.415,467.389 241.349,466.792C240.764,461.508 237.441,457.324 234.132,453.376C230.436,448.968 226.603,444.795 223.316,440.057C222.982,439.576 222.146,440.303 222.318,440.768Z" style="fill:rgb(1,1,1);fill-rule:nonzero;"/>
            <path d="M150.006,351.112C151.392,350.741 152.933,350.655 154.053,349.663C154.509,349.26 154.867,348.665 154.834,348.036C154.795,347.309 154.162,346.867 153.465,346.932C152.969,346.977 152.569,347.117 152.126,347.335C151.999,347.399 151.872,347.462 151.742,347.52C152.035,347.382 151.451,347.641 151.466,347.635C150.618,347.993 149.914,348.424 149.17,348.965C148.049,349.781 148.543,351.503 150.006,351.112Z" style="fill:rgb(1,1,1);fill-rule:nonzero;"/>
        </g>
    </g>
</svg>
