<?xml version="1.0" encoding="utf-8"?>
<!-- Generator: Adobe Illustrator 23.0.1, SVG Export Plug-In . SVG Version: 6.00 Build 0)  -->
<svg version="1.1" id="Layer_3" xmlns="http://www.w3.org/2000/svg" xmlns:xlink="http://www.w3.org/1999/xlink" x="0px" y="0px"
	 viewBox="0 0 566.9 566.9" style="enable-background:new 0 0 566.9 566.9;" xml:space="preserve">
<path d="M531.3,181.1c-0.3-2.1-0.8-4.2-1.4-6.2c-1-3.4-4.1-7.8-7.4-6.2c-36.9-47.1-79.9-89.1-127.7-125c-6.9-5.2-13.9-10.2-21-15.1
	c-5.9-4.1-13.8-9.4-19.8-2.3c-1.6,2-2.6,4.5-3.1,7.2c-33.8,37.4-66.8,75.5-99,114.3c-16.9,20.3-33.6,40.7-50,61.4
	c-8.3,10.5-14.3,21.5-14,35.2c0.3,14,7.9,24.2,16.6,34.4c16.4,19.1,33.6,37.5,51.5,55.2c8.9,8.7,17.9,17.3,27.1,25.6
	c8.4,7.6,17.5,16.5,29.5,17.1c11.6,0.5,23-7,32-13.5c9.3-6.7,17.8-14.4,26-22.4c17.4-16.9,34.6-33.7,53.7-48.8
	c21.6-17,44.3-32.5,66.7-48.5c10.6-7.5,22.8-14.8,30.8-25.2c4.6-6,7.7-13,9.1-20.3c0.3-0.7,0.6-1.3,0.8-1.9
	C533.1,191.3,533.2,185.7,531.3,181.1z M201.2,244.6c-0.1-0.1,0.2-0.9,0.4-1.4C201.9,244.4,202.4,246,201.2,244.6z M506,203.8
	c-8.3,6.7-17.3,12.7-26,18.8c-18.4,13.1-37,26-54.9,39.8c-17.7,13.7-34.5,28.3-50.3,44c-14.8,14.7-29.8,30.6-49,39.8
	c-4.4,2.1-9,3.6-14,3.2c-5.4-0.5-10.2-3.6-14.4-6.8c-8.7-6.7-16.6-14.8-24.5-22.4c-16.6-15.9-32.6-32.4-48-49.5
	c-7.3-8.1-15.5-16.2-21.5-25.2c-0.3-0.4-1.1-1.9-1.6-2.8c2.7-4.4,5.5-8.5,8.8-12.6c14.9-18.6,29.9-37.1,45.1-55.4
	c34.3-41.4,69.6-82,105.6-121.9c0.8-0.8,1.4-1.8,1.9-2.9c7,3.2,27,19,29.4,20.8c11.8,8.9,23.4,18.3,34.6,28
	c22.4,19.5,43.4,40.4,63.1,62.6c9,10.2,17.7,20.8,26.1,31.5c0,0-0.1,0.1-0.1,0.1C513.7,197.2,509.9,200.7,506,203.8z"/>
<path d="M441.8,154.9c-2.9-6.9-6.2-13.8-9.8-20.4c-8.1-14.9-18.6-29.2-34.3-36.5c-3.5-1.7-6.1,1.3-7.4,5.7
	c-25.9,17.3-45.5,41.6-66,64.7c-21.8,24.6-48.1,45.2-68.3,71.3c-3.8,5-4.2,12.6-2.4,18.5c1.1,3.7,5.4,9.9,9.2,4.8
	c18-23.3,41.1-42.2,61.3-63.6c12.5,11.2,26.5,20.4,42.1,26.7c14.9,6,34,12.5,49.3,4.7c15.9-8.1,23.1-26.4,27-42.7
	C445.3,176.6,446.5,166.1,441.8,154.9z M422.7,195.3c-4.6,6.4-11.2,11.1-19.1,11.9c-9.3,0.9-18.8-1.8-27.5-4.8
	c-13.2-4.6-25.9-11.2-37.1-19.7c17.1-19.7,34.3-39.6,56.3-54c1.1-0.7,1.9-1.6,2.6-2.7c11.8,6.9,19.7,18.1,25.9,30.2
	c1.8,3.5,3.5,7.1,5.2,10.7c0.8,1.7,1.5,3.6,2.4,5.3C429.7,180.1,427.5,188.6,422.7,195.3z"/>
<path d="M290.9,384.3c0-1.3-0.1-2.5-0.3-3.7c-0.4-2.5-3.6-13.2-8.3-9.4c-0.4,0.3-0.8,0.6-1.1,0.9c-33.8-29.6-67.5-59.5-98.3-92.2
	c0.7-8.4-2.4-18.4-8.5-15.7c-17.6,7.8-27,26.9-33.4,44c-7.6,20.4-9.9,43.7-3.5,64.7c11,36.4,55.1,62.9,92.6,55.5
	c21.6-4.3,39-17.7,55.8-31.2c3.7-2.9,5-7.8,5-12.5C290.9,384.5,290.9,384.4,290.9,384.3z M272.4,379c-4.5,3.5-9.1,6.8-13.9,9.8
	c-37-23.3-63.6-58-91-91.5c3.1-2.9,6.5-5.4,10.5-7.2c0.1,0,0.1-0.1,0.2-0.1C207.8,321.7,240,350.5,272.4,379z M193.8,398.3
	c-14.7-5.3-30.6-14.7-39.4-28c-8-12-8.5-25.5-4.8-39c2.4-8.8,6-18.2,11.4-26.2c26.6,32.2,52,65.8,86,90.2c-2,1-4,1.9-6,2.7
	C225.9,404.1,209.1,403.8,193.8,398.3z"/>
<g>
	<path d="M214.3,378.2c-0.2-0.6-0.5-1.2-0.9-1.7c-1.5-2.4-4.4-3.5-6.9-1.9c-3.5,2.2-4.7,7.1-4.2,11c0.1,0.8,0.3,1.5,0.5,2.1
		c0.4,1.8,1.1,3.5,2.4,4.7c0.9,0.9,1.9,1.2,2.9,1.2c0.4,0.4,0.7,0.7,1.1,1.1c1.7,1.8,3.4,0.4,4.2-1.4c1.9-0.7,2.8-3,3.2-4.9
		C217.3,384.8,216.7,380.9,214.3,378.2z"/>
	<path d="M190.7,370.3c-0.1-2.2-0.8-5.4-2.9-6.6c-0.6-0.4-1.3-0.5-1.9-0.4c-0.3-0.3-0.6-0.7-1-0.9c-1.4-1-2.9-0.6-4.2,0.4
		c-0.2,0-0.4,0.1-0.7,0.1c-5.6,1.3-5.7,9.8-3.9,14.1c0.4,1.8,1.2,3.5,2.5,4.8c1.3,1.2,2.8,1.7,4.3,1.6c1,0.3,2.1,0.3,3.3-0.1
		c2.3-0.9,3.3-3.7,3.7-5.9c0-0.1,0-0.2,0-0.3C190.5,374.9,190.8,372.5,190.7,370.3z"/>
	<path d="M172.1,335.6c-1.6-1.7-3.8-2.8-6-1.4c-3.3,2.1-4.3,7.2-4.4,10.8c0,3.1,1,10.5,5.4,10.3c3.5-0.1,6.2-3.6,7.2-6.6
		c1.3-3.9,1-9.6-1.9-12.8C172.3,335.7,172.2,335.7,172.1,335.6z"/>
</g>
<g>
	<path d="M138.8,493.7c-0.4-0.1-0.8-0.3-1.2-0.4c-0.5-0.2-1.2,0.2-1.6,0.4c-0.7,0.3-1.4,0.9-2,1.5c-0.4,0.4-1.9,2.2-0.7,2.6
		c0.4,0.1,0.8,0.3,1.2,0.4c0.5,0.2,1.2-0.2,1.6-0.4c0.7-0.3,1.4-0.9,2-1.5C138.5,495.9,140,494,138.8,493.7z"/>
	<path d="M108.9,500.4c-0.7,0-1.5,0-2.2,0.3c-0.3,0.1-1,0.4-0.9,0.8c0,0.2,0.1,0.4,0.1,0.6c0.2,1.1,2.2,1.3,3,1.3
		c0.7,0,1.5,0,2.2-0.3c0.3-0.1,1-0.4,0.9-0.8c0-0.2-0.1-0.4-0.1-0.6C111.8,500.5,109.8,500.4,108.9,500.4z"/>
	<path d="M129.7,519.8c-0.4-0.4-2.2-1.8-2.6-0.6c-0.1,0.4-0.3,0.8-0.4,1.2c-0.2,0.5,0.1,1.2,0.3,1.6c0.3,0.7,0.9,1.4,1.4,1.9
		c0.4,0.4,2.2,1.8,2.6,0.6c0.1-0.4,0.3-0.8,0.4-1.2c0.2-0.5-0.1-1.2-0.3-1.6C130.8,521,130.3,520.3,129.7,519.8z"/>
	<path d="M107.3,464.7c0.5-0.6,1-1.3,1.3-2c0.2-0.6,0.5-1.3,0.4-1.9c0-0.2-0.1-0.4-0.1-0.6c-0.1-0.4-0.2-0.8-0.7-0.8
		c-0.5,0-1.1,0.6-1.4,0.9c-0.5,0.6-1,1.3-1.3,2c-0.2,0.6-0.5,1.3-0.4,1.9c0,0.2,0.1,0.4,0.1,0.6c0.1,0.4,0.2,0.8,0.7,0.8
		C106.5,465.6,107.1,465,107.3,464.7z"/>
	<path d="M101.5,489c-0.6-0.3-1.2-0.6-1.9-0.8c-1.1-0.5-2.3,0.9-2.9,1.7c-0.4,0.6-0.8,1.3-0.9,2c0,0.4-0.1,1.1,0.3,1.3
		c0.6,0.3,1.2,0.6,1.9,0.8c1.1,0.5,2.3-0.9,2.9-1.7c0.4-0.6,0.8-1.3,0.9-2C101.9,489.9,102,489.2,101.5,489z"/>
	<path d="M119.4,417.7c-0.1-0.4-0.2-1-0.7-1.1c-0.4-0.1-0.9,0.4-1.1,0.7c-0.8,1.2-1.2,2.9-1,4.3c0.1,0.4,0.1,0.7,0.2,1.1
		c0.1,0.4,0.2,1,0.7,1.1c0.4,0.1,0.9-0.4,1.1-0.7c0.8-1.2,1.2-2.9,1-4.3C119.5,418.5,119.4,418.1,119.4,417.7z"/>
	<path d="M76.6,500.5c-0.8-0.6-2-1-3-0.8c-0.2,0-0.4,0.1-0.6,0.1c-0.3,0-0.7,0.2-0.8,0.5c-0.1,0.3,0.2,0.6,0.4,0.8
		c0.8,0.6,2,1,3,0.8c0.2,0,0.4-0.1,0.6-0.1c0.3,0,0.7-0.2,0.8-0.5C77.1,501,76.8,500.7,76.6,500.5z"/>
</g>
<g>
	<path d="M93.9,476.4c0.2-0.4,0.4-0.7,0.7-1.1c0.3-0.4,0.2-1.2,0.1-1.6c-0.2-0.8-0.5-1.6-0.9-2.3c-0.3-0.5-1.7-2.4-2.3-1.4
		c-0.2,0.4-0.4,0.7-0.7,1.1c-0.3,0.4-0.2,1.2-0.1,1.6c0.2,0.8,0.5,1.6,0.9,2.3C91.8,475.5,93.2,477.4,93.9,476.4z"/>
	<path d="M94.9,445.7c0.2-0.7,0.4-1.5,0.3-2.2c0-0.3-0.1-1.1-0.6-1.1c-0.2,0-0.4,0-0.6-0.1c-1.1-0.1-1.8,1.8-2,2.6
		c-0.2,0.7-0.4,1.5-0.3,2.2c0,0.3,0.1,1.1,0.6,1.1c0.2,0,0.4,0,0.6,0.1C94.1,448.4,94.7,446.5,94.9,445.7z"/>
	<path d="M70.9,461c0.5-0.3,2.3-1.7,1.3-2.4c-0.4-0.2-0.7-0.4-1.1-0.7c-0.4-0.3-1.2-0.2-1.6-0.1c-0.7,0.1-1.6,0.5-2.2,0.9
		c-0.5,0.3-2.3,1.7-1.3,2.4c0.4,0.2,0.7,0.4,1.1,0.7c0.4,0.3,1.2,0.2,1.6,0.1C69.5,461.7,70.3,461.4,70.9,461z"/>
	<path d="M129.8,453.2c0.4,0.7,1,1.3,1.6,1.8c0.5,0.4,1.1,0.9,1.8,0.9c0.2,0,0.4,0,0.6,0.1c0.4,0,0.8,0,0.9-0.5
		c0.1-0.5-0.3-1.2-0.5-1.6c-0.4-0.7-1-1.3-1.6-1.8c-0.5-0.4-1.1-0.9-1.8-0.9c-0.2,0-0.4,0-0.6-0.1c-0.4,0-0.8,0-0.9,0.5
		C129.2,452.1,129.6,452.8,129.8,453.2z"/>
	<path d="M107.8,441.4c0.4-0.5,0.9-1.1,1.3-1.6c0.8-0.9-0.3-2.5-1-3.2c-0.5-0.5-1-1.1-1.7-1.4c-0.3-0.1-1-0.4-1.3,0
		c-0.4,0.5-0.9,1.1-1.3,1.6c-0.8,0.9,0.3,2.5,1,3.2c0.5,0.5,1,1.1,1.7,1.4C106.8,441.5,107.5,441.8,107.8,441.4z"/>
	<path d="M172.2,476.7c0.4,0,1,0,1.2-0.4c0.2-0.4-0.2-0.9-0.4-1.2c-0.9-1.1-2.5-1.9-3.9-2c-0.4,0-0.8-0.1-1.1-0.1
		c-0.4,0-1,0-1.2,0.4c-0.2,0.4,0.2,0.9,0.4,1.2c0.9,1.1,2.5,1.9,3.9,2C171.5,476.6,171.9,476.6,172.2,476.7z"/>
	<path d="M103,414.4c0.8-0.6,1.4-1.7,1.5-2.7c0-0.2,0-0.4,0.1-0.6c0-0.3,0-0.7-0.3-0.9c-0.3-0.2-0.7,0.1-0.9,0.2
		c-0.8,0.6-1.4,1.7-1.5,2.7c0,0.2,0,0.4-0.1,0.6c0,0.3,0,0.7,0.3,0.9C102.4,414.7,102.8,414.5,103,414.4z"/>
</g>
<g>
	<path d="M176.7,514.3c-0.4-0.1-0.8-0.3-1.2-0.4c-0.5-0.2-1.2,0.2-1.6,0.4c-0.7,0.3-1.4,0.9-2,1.5c-0.4,0.4-1.9,2.2-0.7,2.6
		c0.4,0.1,0.8,0.3,1.2,0.4c0.5,0.2,1.2-0.2,1.6-0.4c0.7-0.3,1.4-0.9,2-1.5C176.4,516.5,177.9,514.7,176.7,514.3z"/>
	<path d="M146.8,521c-0.7,0-1.5,0-2.2,0.3c-0.3,0.1-1,0.4-0.9,0.8c0,0.2,0.1,0.4,0.1,0.6c0.2,1.1,2.2,1.3,3,1.3c0.7,0,1.5,0,2.2-0.3
		c0.3-0.1,1-0.4,0.9-0.8c0-0.2-0.1-0.4-0.1-0.6C149.7,521.2,147.7,521,146.8,521z"/>
	<path d="M167.6,540.4c-0.4-0.4-2.2-1.8-2.6-0.6c-0.1,0.4-0.3,0.8-0.4,1.2c-0.2,0.5,0.1,1.2,0.3,1.6c0.3,0.7,0.9,1.4,1.4,1.9
		c0.4,0.4,2.2,1.8,2.6,0.6c0.1-0.4,0.3-0.8,0.4-1.2c0.2-0.5-0.1-1.2-0.3-1.6C168.7,541.6,168.2,540.9,167.6,540.4z"/>
	<path d="M145.2,485.4c0.5-0.6,1-1.3,1.3-2c0.2-0.6,0.5-1.3,0.4-1.9c0-0.2-0.1-0.4-0.1-0.6c-0.1-0.4-0.2-0.8-0.7-0.8
		c-0.5,0-1.1,0.6-1.4,0.9c-0.5,0.6-1,1.3-1.3,2c-0.2,0.6-0.5,1.3-0.4,1.9c0,0.2,0.1,0.4,0.1,0.6c0.1,0.4,0.2,0.8,0.7,0.8
		C144.3,486.2,144.9,485.7,145.2,485.4z"/>
	<path d="M139.4,509.7c-0.6-0.3-1.2-0.6-1.9-0.8c-1.1-0.5-2.3,0.9-2.9,1.7c-0.4,0.6-0.8,1.3-0.9,2c0,0.4-0.1,1.1,0.3,1.3
		c0.6,0.3,1.2,0.6,1.9,0.8c1.1,0.5,2.3-0.9,2.9-1.7c0.4-0.6,0.8-1.3,0.9-2C139.8,510.6,139.9,509.8,139.4,509.7z"/>
	<path d="M157.2,438.4c-0.1-0.4-0.2-1-0.7-1.1c-0.4-0.1-0.9,0.4-1.1,0.7c-0.8,1.2-1.2,2.9-1,4.3c0.1,0.4,0.1,0.7,0.2,1.1
		c0.1,0.4,0.2,1,0.7,1.1c0.4,0.1,0.9-0.4,1.1-0.7c0.8-1.2,1.2-2.9,1-4.3C157.4,439.1,157.3,438.8,157.2,438.4z"/>
	<path d="M114.4,521.1c-0.8-0.6-2-1-3-0.8c-0.2,0-0.4,0.1-0.6,0.1c-0.3,0-0.7,0.2-0.8,0.5c-0.1,0.3,0.2,0.6,0.4,0.8
		c0.8,0.6,2,1,3,0.8c0.2,0,0.4-0.1,0.6-0.1c0.3,0,0.7-0.2,0.8-0.5C115,521.6,114.7,521.3,114.4,521.1z"/>
</g>
<g>
	<path d="M131.7,497c0.2-0.4,0.4-0.7,0.7-1.1c0.3-0.4,0.2-1.2,0.1-1.6c-0.2-0.8-0.5-1.6-0.9-2.3c-0.3-0.5-1.7-2.4-2.3-1.4
		c-0.2,0.4-0.4,0.7-0.7,1.1c-0.3,0.4-0.2,1.2-0.1,1.6c0.2,0.8,0.5,1.6,0.9,2.3C129.7,496.1,131.1,498.1,131.7,497z"/>
	<path d="M132.8,466.4c0.2-0.7,0.4-1.5,0.3-2.2c0-0.3-0.1-1.1-0.6-1.1c-0.2,0-0.4,0-0.6-0.1c-1.1-0.1-1.8,1.8-2,2.6
		c-0.2,0.7-0.4,1.5-0.3,2.2c0,0.3,0.1,1.1,0.6,1.1c0.2,0,0.4,0,0.6,0.1C131.9,469.1,132.6,467.2,132.8,466.4z"/>
	<path d="M108.8,481.6c0.5-0.3,2.3-1.7,1.3-2.4c-0.4-0.2-0.7-0.4-1.1-0.7c-0.4-0.3-1.2-0.2-1.6-0.1c-0.7,0.1-1.6,0.5-2.2,0.9
		c-0.5,0.3-2.3,1.7-1.3,2.4c0.4,0.2,0.7,0.4,1.1,0.7c0.4,0.3,1.2,0.2,1.6,0.1C107.3,482.4,108.2,482,108.8,481.6z"/>
	<path d="M167.7,473.8c0.4,0.7,1,1.3,1.6,1.8c0.5,0.4,1.1,0.9,1.8,0.9c0.2,0,0.4,0,0.6,0.1c0.4,0,0.8,0,0.9-0.5
		c0.1-0.5-0.3-1.2-0.5-1.6c-0.4-0.7-1-1.3-1.6-1.8c-0.5-0.4-1.1-0.9-1.8-0.9c-0.2,0-0.4,0-0.6-0.1c-0.4,0-0.8,0-0.9,0.5
		C167.1,472.7,167.5,473.5,167.7,473.8z"/>
	<path d="M145.7,462.1c0.4-0.5,0.9-1.1,1.3-1.6c0.8-0.9-0.3-2.5-1-3.2c-0.5-0.5-1-1.1-1.7-1.4c-0.3-0.1-1-0.4-1.3,0
		c-0.4,0.5-0.9,1.1-1.3,1.6c-0.8,0.9,0.3,2.5,1,3.2c0.5,0.5,1,1.1,1.7,1.4C144.7,462.2,145.4,462.5,145.7,462.1z"/>
	<path d="M210.1,497.3c0.4,0,1,0,1.2-0.4c0.2-0.4-0.2-0.9-0.4-1.2c-0.9-1.1-2.5-1.9-3.9-2c-0.4,0-0.8-0.1-1.1-0.1
		c-0.4,0-1,0-1.2,0.4c-0.2,0.4,0.2,0.9,0.4,1.2c0.9,1.1,2.5,1.9,3.9,2C209.4,497.2,209.8,497.3,210.1,497.3z"/>
	<path d="M140.9,435c0.8-0.6,1.4-1.7,1.5-2.7c0-0.2,0-0.4,0.1-0.6c0-0.3,0-0.7-0.3-0.9c-0.3-0.2-0.7,0.1-0.9,0.2
		c-0.8,0.6-1.4,1.7-1.5,2.7c0,0.2,0,0.4-0.1,0.6c0,0.3,0,0.7,0.3,0.9C140.2,435.4,140.6,435.2,140.9,435z"/>
</g>
</svg>
