<?xml version="1.0" encoding="utf-8"?>
<!-- Generator: Adobe Illustrator 23.0.1, SVG Export Plug-In . SVG Version: 6.00 Build 0)  -->
<svg version="1.1" id="Layer_3" xmlns="http://www.w3.org/2000/svg" xmlns:xlink="http://www.w3.org/1999/xlink" x="0px" y="0px"
	 viewBox="0 0 566.9 566.9" style="enable-background:new 0 0 566.9 566.9;" xml:space="preserve">
<path d="M162.6,551.7c1.7,1.2,3.5,2.4,5.3,3.4c3.1,1.7,8.4,2.6,9.7-0.8c59.3,7.2,119.5,6.6,178.7-1.9c8.5-1.2,17.1-2.6,25.6-4.1
	c7.1-1.3,16.4-3.2,15.6-12.3c-0.2-2.6-1.3-5-2.9-7.3c-2.6-50.3-6.2-100.6-10.8-150.8c-2.4-26.3-5-52.6-8.1-78.8
	c-1.6-13.2-5.1-25.3-15-34.8c-10.1-9.6-22.7-11.6-36.1-12.6c-25.1-1.9-50.3-2.8-75.4-2.6c-12.4,0.1-24.9,0.4-37.3,1
	c-11.3,0.5-24,0.7-32.9,8.8c-8.6,7.8-11.3,21.2-13.1,32.1c-1.8,11.3-2.4,22.8-2.5,34.2c-0.3,24.3-0.6,48.3-3.5,72.5
	c-3.3,27.3-8.3,54.3-12.9,81.4c-2.1,12.8-5.6,26.6-3.9,39.6c1,7.5,3.8,14.7,7.9,20.8c0.2,0.7,0.5,1.3,0.8,1.9
	C154,545.7,158,549.7,162.6,551.7z M351.1,273.3c0.1,0,0.5,0.8,0.7,1.3C350.7,273.9,349.2,273.1,351.1,273.3z M164.4,517.7
	c1.2-10.6,3.3-21.2,5.1-31.7c3.8-22.3,7.8-44.5,10.7-66.9c2.9-22.2,4.4-44.4,4.4-66.7c0.1-20.9-0.6-42.8,6.5-62.8
	c1.6-4.6,3.8-8.9,7.7-12.1c4.1-3.5,9.7-4.7,15-5.3c10.9-1.4,22.2-1.3,33.2-1.5c23-0.5,46-0.2,69,1.1c10.8,0.6,22.4,0.5,33.1,2.6
	c0.5,0.1,2.1,0.6,3.1,0.8c1.2,5.1,2.2,9.9,2.7,15.1c2.7,23.7,5.1,47.4,7.3,71.1c5,53.5,8.8,107.2,11.5,160.9
	c0.1,1.1,0.3,2.3,0.7,3.4c-7.2,2.7-32.6,5.7-35.5,6.1c-14.7,2.1-29.5,3.6-44.3,4.7c-29.6,2.1-59.3,2.2-88.9,0.3
	c-13.6-0.9-27.2-2.2-40.8-3.8c0-0.1,0-0.1,0-0.2C163.6,527.9,163.9,522.6,164.4,517.7z"/>
<path d="M303.5,319.2c-7-2.9-14.1-5.4-21.3-7.5c-16.2-4.8-33.8-7.5-50.1-1.6c-3.7,1.3-3.4,5.2-1.2,9.3c-6.1,30.5-2.8,61.6-0.9,92.4
	c2,32.8-2.1,66,2.1,98.7c0.8,6.2,6,11.9,11.3,14.8c3.4,1.8,10.8,3.2,10-3.1c-3.7-29.2-0.8-58.9-1.6-88.3
	c16.8-0.9,33.2-4.3,48.6-10.9c14.8-6.3,32.9-15.2,38.2-31.5c5.5-16.9-2.3-35-11.1-49.3C321.3,332,314.8,323.9,303.5,319.2z
	 M318.5,361.3c1.3,7.7,0,15.8-5.1,22c-5.9,7.2-14.6,12-22.8,16c-12.6,6.1-26.2,10.3-40.1,12.3c-1.8-26-3.8-52.3,1.6-78
	c0.3-1.2,0.2-2.5-0.1-3.7c13.2-3.5,26.7-1.1,39.7,3c3.8,1.2,7.5,2.5,11.3,3.9c1.8,0.7,3.6,1.5,5.4,2
	C312.8,345.6,317.2,353.2,318.5,361.3z"/>
<path d="M188.8,238c0.9,0.9,1.9,1.7,2.8,2.5c2,1.5,11.9,6.8,12.5,0.8c0.1-0.5,0.1-1,0.2-1.4c44.8-3,89.8-5.7,134.7-4.3
	c5.5,6.4,14.7,11.3,17.1,5.1c6.9-18,0.1-38.1-7.5-54.7c-9-19.8-23.9-37.8-43.3-48.3c-33.5-18-83.4-5.6-104.7,26.3
	c-12.2,18.3-15.1,40.1-17.4,61.5c-0.5,4.7,2,9,5.3,12.4C188.7,237.8,188.7,237.9,188.8,238z M205.7,228.7c0.7-5.6,1.6-11.2,2.8-16.8
	c42.6-9.7,86-3.9,129,0.3c-0.1,4.2-0.8,8.4-2.4,12.5c0,0.1,0,0.1,0,0.2C292,223.5,248.8,225.8,205.7,228.7z M247.6,159.4
	c14.1-6.6,32.1-11.2,47.6-8.1c14.2,2.9,24,12,31,24.2c4.5,7.9,8.7,17.1,10.4,26.6c-41.5-4-83.3-9.8-124.6-2.9
	c0.7-2.1,1.5-4.1,2.4-6.2C220.9,178,232.9,166.3,247.6,159.4z"/>
<g>
	<path d="M247.4,188.1c0.6,0.3,1.2,0.5,1.8,0.6c2.7,0.6,5.6-0.7,6.2-3.6c0.9-4.1-1.7-8.4-4.8-10.7c-0.6-0.5-1.2-0.8-1.9-1.1
		c-1.5-1-3.2-1.7-5-1.6c-1.3,0-2.2,0.5-2.9,1.2c-0.5,0-1,0-1.5,0c-2.5,0-2.7,2.1-2,4c-0.9,1.9,0.1,4,1.2,5.7
		C240.6,185.6,243.8,187.9,247.4,188.1z"/>
	<path d="M269.6,177c1.7,1.4,4.4,3.3,6.7,2.7c0.7-0.2,1.2-0.6,1.7-1.1c0.4,0.1,0.9,0.1,1.3,0c1.7-0.3,2.5-1.6,2.7-3.3
		c0.1-0.2,0.3-0.3,0.4-0.5c3.1-4.9-2.9-10.9-7.2-12.8c-1.6-1-3.3-1.6-5.1-1.6c-1.7,0-3.2,0.7-4.2,1.9c-0.9,0.5-1.7,1.2-2.2,2.4
		c-1,2.3,0.2,4.9,1.6,6.8c0.1,0.1,0.1,0.1,0.2,0.2C266.5,173.7,268,175.5,269.6,177z"/>
	<path d="M307.4,188.4c2.3,0.1,4.7-0.7,5.2-3.3c0.8-3.8-2.1-8.2-4.6-10.7c-2.1-2.2-8.1-6.7-11.1-3.5c-2.4,2.5-1.8,7-0.4,9.8
		c1.9,3.7,6.1,7.5,10.4,7.7C307.1,188.4,307.2,188.4,307.4,188.4z"/>
</g>
</svg>
