<?xml version="1.0" encoding="utf-8"?>
<!-- Generator: Adobe Illustrator 23.0.1, SVG Export Plug-In . SVG Version: 6.00 Build 0)  -->
<svg version="1.1" xmlns="http://www.w3.org/2000/svg" xmlns:xlink="http://www.w3.org/1999/xlink" x="0px" y="0px"
	 viewBox="0 0 566.93 566.93" enable-background="new 0 0 566.93 566.93" xml:space="preserve">
<g id="Layer_2">
	<g>
		<g>
			<path d="M40.841,554.58c64.571,8.293,129.711,8.175,194.687,7.02c65.734-1.169,131.465-2.53,197.196-3.8
				c37.256-0.72,74.512-1.44,111.767-2.16c5.076-0.098-1.404-5.852-4.251-5.797c-65.863,1.273-131.726,2.546-197.589,3.819
				c-64.548,1.247-129.184,3.525-193.747,2.545c-36.87-0.559-73.763-2.473-110.355-7.173
				C32.647,548.277,37.525,554.154,40.841,554.58L40.841,554.58z"/>
		</g>
	</g>
	<path d="M527.875,169.959c-0.162,18.485-0.318,36.97-0.477,55.454c-0.744,86.649-1.461,173.306-1.636,259.962
		c-0.054,26.665-0.461,53.477,0.422,80.124c0.341,10.306,21.052,13.757,20.796,6c-0.75-22.644-0.464-45.414-0.44-68.075
		c0.041-39.379,0.253-78.757,0.497-118.134c0.445-71.779,1.033-143.556,1.704-215.331"/>
	<path d="M33.134,173.971c-0.546,15.846-1.096,31.688-1.591,47.522c-2.286,73.048-4.571,146.217-4.117,219.36
		c0.192,30.984,0.655,62.25,3.636,92.975c0.725,7.467,4.464,14.188,8.96,17.774c2.653,2.115,9.043,3.813,8.309-3.75
		c-5.885-60.65-4.036-123.394-2.896-184.415c1.171-62.686,3.318-125.316,5.291-187.956"/>
	<path d="M184.138,384.028c-29.462-0.761-58.931-0.06-88.398,0.13c-1.338-1.711-9.757-1.069-9.966,1.832
		c-0.012,0.166-0.021,0.332-0.033,0.498c-0.046,0.048-0.104,0.089-0.148,0.139c-0.927,1.052-1.133,2.126-0.027,2.498
		c-3.763,54.899-2.522,109.974-5.834,164.892c-0.145,2.399,9.956,1.886,10.147-1.278c3.285-54.465,2.093-109.085,5.744-163.534
		c28.797-0.244,57.597-0.861,86.389,0.004c-3.756,54.871-2.518,109.918-5.829,164.808c-0.145,2.399,9.956,1.886,10.147-1.278
		c3.375-55.963,2.009-112.09,6.042-168.026C192.497,382.976,187.113,382.766,184.138,384.028z"/>
	<path d="M1295.976,538.69c-0.198-0.23-2.916-2.931-2.916-2.931s-4.92-3.472-7.657-3.302c-52.666,3.262-107.141,5.011-159.018-6.208
		c-4.302-0.93-2.125,4.459-0.975,6.175c0.721,1.076,1.593,2.156,2.576,3.167c-0.522,23.774,11.952,46.496,21.098,67.806
		c4.45,10.37,10.04,19.825,19.999,25.712c8.031,4.748,16.992,8.033,26.165,9.909c3.928,28.262,5.965,56.783,6.288,85.312
		c-8.149-2.281-17.628-2.13-25.093,0.89c-8.651,3.5-13.476,12.428-15.914,21.309c-2.654,0.441-5.931,4.097-3.353,6.952
		c0.567,0.627,15.384,0.737,15.426,0.736c0.656-0.013,1.313-0.038,1.969-0.053c3.42-0.079,6.841-0.091,10.261-0.092
		c8.669-0.003,17.338,0.102,26.006,0.2c12.615,0.143,52.488,3.002,51.776-4.822c-0.342-7.376,0.382-8.115-6.045-12.327
		c-6.614-4.335-11.545-7.687-19.202-7.527c-0.225,0.005-13.157-0.83-13.157-24.062c0.293-8.363,3.691-17.437,3.984-25.801
		c0.499-14.253,0.998-28.505,1.497-42.758c7.768-2.856,15.602-5.694,22.998-9.242c9.59-4.599,28.614-23.231,36.906-53.587
		c2.633-8.885,4.032-18.047,5.169-27.226c1.005-0.061,2.011-0.122,3.015-0.184C1301.664,546.497,1296.78,539.622,1295.976,538.69z
		 M1285.333,547.688c-1.004,8.62-1.878,17.389-4.127,25.793c-2.074,7.75-5.668,14.454-10.297,20.975
		c-4.922,6.933-9.288,13.911-17.389,17.294c-9.096,3.798-18.395,7.17-27.581,10.748c-3.86,1.503-6.036,5.995-7.123,9.774
		c-0.266,0.926-1.134,6.037,0.142,7.699c-0.647,18.484-1.294,36.967-1.941,55.451c-0.34,9.699-1.205,19.547-0.822,29.248
		c0.272,6.887,17.628,10.991,17.628,10.991s11.843,1.079,14.45,3.242c2.517,2.089,4.913,4.597,5.571,7.443
		c-0.354,0.012-7.437-0.106-7.791-0.097c-1.381,0.037-2.762,0.056-4.143,0.07c-3.648,0.038-7.297,0.03-10.946,0.012
		c-8.838-0.044-17.676-0.161-26.513-0.26c-11.858-0.132-24.071-0.871-36.022-0.215c1.632-5.298,12.364-11.892,12.364-11.892
		s14.565-4.206,21.016-0.869c1.142,0.591,9.575-3.984,9.492-8.143c-0.563-28.413-2.921-56.721-6.915-84.862
		c4.787-1.877,0.907-17.286-4.799-17.963c-9.729-1.154-19.216-3.792-27.946-8.286c-3.509-1.806-7.106-3.827-9.675-6.891
		c-2.695-3.214-4.278-7.313-5.914-11.125c-3.958-9.223-7.929-18.453-11.726-27.743c-3.372-8.252-6.504-16.987-5.701-26.037
		c0.029-0.324,0.029-0.661,0.039-0.994c47.849,9.943,97.951,9.158,146.701,6.421
		C1285.355,547.543,1285.341,547.619,1285.333,547.688z"/>
	<g>
		<path d="M1369.51,554.871c-0.841-21.343-9.651-40.019-19.389-58.857c-8.283-16.024-21.972-37.479-45.12-38.788l-0.004,0.054
			c-6.769-1.624-51.537-6.973-70.825,1.394c-21.272,9.226-22.476,30.548-20.848,50.189c0.045,0.544,0.125,1.03,0.24,1.452
			c-0.023,1.953,2.409,4.449,4.187,5.019c6.499,2.084,12.118,2.947,18.422,0.386c7.248-2.947,14.12-7.124,20.765-11.164l1.961-1.19
			c8.132-4.925,14.79-8.182,22.836-9.199c3.808-0.482,8.546-1.079,12.715-0.378c3.133,0.528,8.268,3.451,15.26,8.688
			c0.131,0.098,0.242,0.18,0.335,0.25c0.284,0.702,0.91,1.841,2.101,4.006c3.328,6.051,10.253,18.643,11.248,26.738
			c1.153,9.376-0.031,19.852-3.617,32.026c-2.879,9.773-6.273,19.883-13.25,26.677c-8.38,8.16-20.651,9.221-31.496,9.576
			c-4.056,0.132-6.804,2.637-6.733,4.802c0.035,1.059,0.844,2.2,2.495,2.121c12.585-0.409,29.432-1.975,38.229-7.107
			c10.548-6.155,15.497-17.487,19.274-28.815c4.503-13.509,6.242-25.354,5.315-36.212c-1.173-13.752-7.884-24.483-14.961-34.03
			c-0.371-0.501-1.23-1.221-2.965-2.634c-0.525-0.427-1.029-0.837-1.41-1.164c-5.984-5.121-12.532-10.109-19.862-11.914
			c-7.974-1.964-17.924-0.068-23.144,1.238c-7.242,1.811-13.552,5.634-19.655,9.332c-1.348,0.817-2.698,1.635-4.059,2.432
			c-0.906,0.532-1.814,1.073-2.722,1.615c-8.41,5.022-16.375,9.783-25.638,7.68c0.198-0.741,0.273-1.518,0.212-2.267
			c-0.859-10.354-1.833-22.09,5.142-30.567c4.8-5.833,12.45-9.571,24.075-11.762c14.403-2.715,41.467,0.297,51.655,1.431
			c2.388,0.266,3.741,0.416,4.551,0.44c0.32,0.134,0.63,0.203,0.941,0.21c25.994,0.576,38.644,29.182,47.88,50.07l0.761,1.721
			c5.475,12.356,8.16,24.766,8.208,37.937l0.016,2.711c0.078,11.555,0.167,24.651-5.874,34.616
			c-10.49,17.308-29.264,30.677-50.218,35.763c-14.952,3.629-43.291,4.245-62.044,4.652c-17.348,0.377-18.604,0.536-19.396,1.474
			l-0.439,0.566l0.094,0.635c0.043,0.291-0.021,1.016-0.072,1.599c-0.154,1.748-0.313,3.556,0.749,4.553
			c0.402,0.377,0.92,0.576,1.489,0.576c0.127,0,0.256-0.01,0.387-0.03c11.049-1.678,24.244-1.639,37.004-1.596
			c13.658,0.045,27.788,0.089,39.686-1.942c19.19-3.274,36.998-13.027,50.143-27.463c5.065-5.563,12.02-14.198,13.917-24.916
			C1370.044,576.308,1369.877,564.183,1369.51,554.871z"/>
		<path d="M1259.472,705.247c-1.384-9.569-8.882-15.97-22.283-19.029c-8.634-1.97-17.252-4.129-25.586-6.217
			c-8.99-2.253-18.286-4.582-27.627-6.68c-10.667-2.396-17.712-6.261-19.871-18.108c-1.591-8.728,1.917-21.249,6.026-28.599
			c0.255-0.456,0.572-1.403-0.161-2.634c-0.84-1.41-3.087-2.968-4.859-2.968c-0.014,0-0.028,0-0.041,0
			c-0.881,0.012-1.611,0.42-2.002,1.12c-5.486,9.811-10.148,25.808-5.233,38.601c4.493,11.691,12.743,18.805,25.222,21.745
			c11.371,2.68,22.989,5.162,34.224,7.562c5.633,1.204,11.266,2.408,16.89,3.638c0.689,0.151,1.38,0.298,2.072,0.445
			c3.101,0.657,6.308,1.337,9.284,2.422c3.511,1.279,6.477,4.369,6.9,7.188c0.27,1.802-0.495,3.398-2.276,4.744
			c-6.439,4.867-18.82,4.826-25.632,4.364c-0.921-0.056-1.943,0.521-2.039,1.944c-0.134,1.981,1.909,6.5,4.408,6.67
			c1.202,0.081,3.061,0.172,5.295,0.172c7.456,0,19.102-1.022,24.529-6.881C1259.084,712.183,1260.014,708.987,1259.472,705.247z"/>
		<path d="M1258.387,669.781c-8.695-4.938-29.757-14.886-31.617-15.251c-1.718-0.338-4.082-0.771-6.791-1.268
			c-8.855-1.624-27.278-5.003-29.194-6.66c-1.621-1.402-2.86-2.615-2.839-4.376c0.037-3.149,3.235-4.596,6.793-5.917
			c2.142-0.796,4.102-3.148,3.419-4.988c-0.248-0.67-1.159-2.102-4.232-0.96c-6.705,2.491-14.419,6.323-14.555,13.914
			c-0.065,3.59,2.152,5.953,4.558,7.97c3.258,2.734,19.24,5.94,35.331,8.991c1.688,0.32,3.159,0.599,4.318,0.827
			c1.711,0.584,23.419,8.999,30.884,13.073l1.501,0.816c7.966,4.32,16.202,8.788,19.838,16.846c2.928,6.49,2.957,13.713,0.08,20.338
			c-3.227,7.43-9.855,13.463-17.729,16.138c-0.307,0.104-1.792,0.745-0.974,3.148c0.594,1.75,2.863,5.39,5.368,5.39
			c0.274,0,0.551-0.044,0.829-0.138c9.626-3.27,16.756-10.212,20.077-19.551c3.475-9.772,2.182-20.622-3.55-29.767
			C1274.45,679.661,1265.966,674.087,1258.387,669.781z"/>
		<path d="M1205.735,711.645c-1.297-0.75-10.481-1.933-13.614-1.238c-20.93-0.15-41.378-7.522-57.583-20.765
			c-0.62-0.507-1.435-0.566-2.077-0.153c-2.228,1.432-1.473,11.132-1.367,11.537c3.968,15.106,22.762,35.856,41.055,35.855
			c1.22,0,2.437-0.092,3.648-0.284c0.761-0.121,1.818-0.654,2.527-2.504c0.657-1.715,0.989-4.864-0.333-6.494
			c-0.606-0.747-1.495-1.088-2.448-0.939c-13.168,2.095-29.55-12.074-35.948-24.234c16.121,11.112,34.854,16.994,54.504,17.067
			c0.833,0.185,2.698,0.239,7.448-0.148c7.208-0.586,7.936-1.208,8.286-1.508c0.6-0.514,0.734-1.359,0.319-2.008
			C1209.089,714.162,1207.519,712.677,1205.735,711.645z"/>
	</g>
	<path d="M-83.791,570.505c100.548,1.057,201.094,2.407,301.634,4.053s201.076,3.589,301.605,5.827
		c56.589,1.26,113.176,2.614,169.761,4.06c9.982,0.255,15.048-27.141,6.987-27.347c-100.521-2.569-201.05-4.846-301.584-6.825
		s-201.075-3.663-301.619-5.052c-56.598-0.781-113.197-1.468-169.797-2.063c-5.805-0.061-8.681,7.292-9.894,12.038
		C-87.351,557.751-89.253,570.447-83.791,570.505L-83.791,570.505z"/>
	<path d="M30.326,59.825c68.865-1.356,137.737-2.431,206.615-3.219c68.879-0.788,137.764-1.291,206.655-1.509
		c38.779-0.123,77.561-0.154,116.343-0.097c6.842,0.01,9.398-26.509,3.874-26.518c-68.896-0.101-137.788,0.079-206.673,0.546
		c-68.886,0.467-137.766,1.219-206.638,2.256c-38.769,0.584-77.537,1.259-116.301,2.022c-3.976,0.078-5.7,7.232-6.372,11.834
		C27.466,47.619,26.586,59.899,30.326,59.825L30.326,59.825z"/>
	<path fill="#FFFFFF" d="M1234.198,665.143c-7.449-2.852-13.226-4.673-21.302-5.199c-1.408-0.372-7.754-1.482-7.754-1.482
		s-4.8-0.853-7.252-1.4c-2.254-0.503-5.864,0.567-7.7,2.17c-0.453,0.396-0.764,0.826-0.936,1.254
		c-0.894,0.815-1.404,2.826-1.49,5.006c-2.525-0.053-2.071,2.912-1.322,4.561c1.217,2.681,3.919,5.12,6.888,5.846
		c10.812,2.645,22.024,4.537,32.836,7.182c1.668,0.408,1.837,0.209,1.899-0.982c0.605,0.147,1.21,0.294,1.814,0.441
		c1.188,0.321,2.078-0.271,2.682-1.345c0.034-0.059,0.064-0.124,0.096-0.186c0.031-0.06,0.063-0.117,0.092-0.18
		c1.079-2.283,1.045-6.236,0.018-8.721c1.031,0.272,2.063,0.545,3.094,0.817C1239.23,673.814,1236.805,666.14,1234.198,665.143z"/>
	<path d="M1217.925,511.375c-0.411-0.273-0.915-0.431-1.183-0.242c-2.185,1.543-5.382,1.986-7.984,2.363
		c-4.01,0.58-6.623-0.712-9.9-2.826c-1.114-0.719-1.671,0.218-0.559,0.935c2.936,1.893,5.497,3.745,9.135,3.623
		c1.554-0.052,3.367-0.215,5.154-0.557c-0.982,0.993-1.883,2.042-2.663,2.964c-2.694,3.183-2.741,6.054-2.824,10.078
		c-0.015,0.736,1.959,1.636,1.975,0.845c0.078-3.797,0.168-6.747,2.743-9.789c1.879-2.219,4.317-5.087,7.139-6.116
		C1219.453,512.471,1218.653,511.657,1217.925,511.375z"/>
	<path d="M1240.778,474.745c-0.787-0.482-1.893-0.334-2.958-0.061c-0.182-0.278-0.397-0.502-0.619-0.546
		c-1.895-0.378-4.079-0.744-5.659,0.657c-1.007,0.894-1.284,2.16-0.895,3.434c0.815,2.669,3.526,4.332,6.26,4.059
		c2.434-0.244,5.265-2.092,5.251-4.799C1242.153,476.483,1241.675,475.294,1240.778,474.745z M1239.775,478.411
		c-0.918,1.044-2.298,1.68-3.666,1.827c-1.376,0.148-5.193-0.422-3.911-2.95c0.611-1.205,1.921-1.488,3.25-1.449
		c0.102,0.634,0.698,1.593,1.255,1.462c0.53-0.125,3.065-1.033,3.442-0.793C1241.008,477.058,1240.186,477.943,1239.775,478.411z"/>
</g>
<g id="Layer_3">
	<path d="M466.743,284.103c-10.557,0.053-21.113,0.105-31.67,0.158c-21.593,0.108-43.186,0.215-64.78,0.323
		c-42.707,0.213-85.413,0.426-128.12,0.639c-2.699,0.013-6.822,1.147-8.592,3.346c-0.628,0.78-2.597,3.972-2.649,4.879
		c-1.753,30.639,33.116,60.213,43.636,67.885c10.52,7.673,34.554,14.042,52.156,15.987c0.535,0.059,1.074,0.111,1.611,0.168
		c2.206,0.284,4.438,0.506,6.701,0.657c5.195,0.464,10.429,0.83,15.684,1.078c13.518,0.869,32.209,1.143,55.271-1.375
		c23.062-2.518,40.423-10.353,56.919-25.068c18.418-16.429,25.45-42.929,34.679-65.03
		C498.491,285.592,475.689,284.059,466.743,284.103z M453.27,348.615c-14.448,15.205-53.386,21.333-54.853,21.533
		c-17.206,2.348-34.953,0.468-52.182-0.677c-18.168-1.207-34.103-6.779-51.125-12.83c-24.818-11.636-50.898-40.517-51.097-64.747
		c38.708-0.193,77.415-0.386,116.123-0.579c20.634-0.103,41.267-0.206,61.901-0.309c10.557-0.053,21.113-0.105,31.67-0.158
		c10.077-0.05,21.415-1.535,31.104,1.638c-4.114,9.858-8.218,19.72-12.348,29.571C468.385,331.782,460.633,340.867,453.27,348.615z"
		/>
	<path d="M440.067,392.666c-1.866-2.015-2.117-7.97-2.952-10.573c-1.368-4.266-3.872-7.807-5.949-11.727
		c-1.053-1.987-4.339-5.66-6.97-4.884c-2.848,0.841-1.265,4.553-0.37,6.243c1.211,2.285,2.838,4.394,3.814,6.793
		c0.983,2.415,1.348,5.079,2.044,7.584c0.625,2.25,1.419,4.298,2.399,6.228c-0.461-0.048-0.907-0.074-1.328-0.077
		c-24.565-0.159-49.13-0.318-73.696-0.42c-11.762-0.049-23.646-0.541-35.384,0.374c-11.587,0.902-21.981,1.579-33.606-0.268
		c2.588-6.262,7.318-16.356,10.014-22.572c1.786-4.118-9.083-9.041-11.706-2.99c-3.262,7.522-6.445,15.077-9.549,22.665
		c-1.398,3.418-0.599,9.515,6.809,11.086s129.828,0.889,155.338,1.054C443.285,400.525,441.548,394.266,440.067,392.666z"/>
	<path d="M485.813,248.684c-5.039-5.788-10.38-11.317-15.74-16.807c-7.274-7.45-19.237-24.023-30.89-21.094
		c-7.079,1.779-12.418,7.841-13.402,15.086c-0.952,7.011,2.317,12.914,7.35,17.058c-14.272,14.523-28.756,28.832-43.453,42.925
		c-2.472,2.371,1.921,3.449,3.53,3.523c3.299,0.152,7.222-1.018,9.636-3.333c13.438-12.886,26.676-25.975,39.759-39.221
		c4.175-1.367,9.632-6.588,6.965-7.757c-6.466-2.833-12.088-7.984-12.536-15.445c-0.081-1.348,0.347-2.604,0.528-3.856
		c0.925,0.849,4.009,2.152,4.719,2.666c1.664,1.206,3.142,2.656,4.619,4.076c5.185,4.985,10.175,10.21,15.17,15.383
		c5.97,6.182,12.288,12.374,17.357,19.34c1.927,2.648,2.475,4.943,3.515,7.906c-0.351,0.003-0.703,0.005-1.054,0.008
		c-1.679-0.187-3.492-0.794-4.991-1.58c-5.487-2.879-7.436-9.276-12.304-12.937c-2.881-2.167-13.273,5.316-9.842,7.897
		c0.948,0.713,1.758,1.541,2.494,2.429c-7.294,7.456-14.403,15.015-21.938,22.237c-2.47,2.367,1.918,3.455,3.53,3.523
		c3.306,0.14,7.215-1.013,9.636-3.333c5.024-4.814,9.856-9.781,14.681-14.765c0.176,0.169,0.336,0.349,0.522,0.51
		c3.398,2.936,7.755,4.392,12.224,4.394c6.607,0.002,15.869-4.067,18.011-10.936C496.04,259.747,489.916,253.395,485.813,248.684z"
		/>
	<path d="M1103.931,151.183c-3.753-6.559-9.422-13.375-17.343-14.221c-3.547-0.379-7.257-0.069-10.813-0.012
		c-5.707,0.092-11.414,0.223-17.12,0.361c-0.054-2.5-0.11-4.999-0.157-7.499c-0.086-4.605-0.411-9.323-0.057-13.923
		c0.594-7.711-5.954-16.827-11.809-21.245c-4.101-3.095-12.109-6.64-12.729,1.419c-0.854,11.089,0.227,22.585,0.501,33.681
		c0.067,2.724,0.138,5.447,0.208,8.171c-9.898,0.255-19.796,0.502-29.695,0.687c-4.605,0.086-9.323,0.411-13.923,0.057
		c-2.691-0.207-3.892,3.155-4.032,5.122c-0.246,3.456,1.513,7.843,3.163,10.728c3.656,6.39,9.472,13.615,17.343,14.221
		c9.173,0.706,18.624,0.089,27.898-0.3c0.074,3.348,0.146,6.696,0.206,10.044c0.078,4.329,0.49,8.865,0.029,13.184
		c-0.364,3.412,1.62,7.887,3.163,10.728c2.043,3.761,5.195,7.913,8.646,10.517c4.268,3.221,11.88,6.541,12.729-1.419
		c0.379-3.547,0.069-7.257,0.012-10.813c-0.117-7.282-0.295-14.564-0.473-21.845c-0.09-3.688-0.185-7.375-0.28-11.063
		c10.16-0.263,20.32-0.518,30.481-0.702c4.329-0.078,8.865-0.489,13.184-0.029c2.683,0.286,3.897-3.23,4.032-5.122
		C1107.34,158.454,1105.582,154.067,1103.931,151.183z"/>
	<path d="M568.568,126.844c-3.155-9.353-4.379-19.028-4.911-28.854c-1.13-20.861-1.82-40.967-7.095-61.339
		c-1.987-7.675-18.956,3.74-17.18,10.597c3.437,13.276,5.599,26.706,6.321,40.404c0.701,13.296,0.266,26.733,2.962,39.843
		c2.049,9.962,13.076,27.51,4.382,36.296c-4.64,4.689-13.16,5.092-19.353,5.371c-8.298,0.374-14.59,0.058-20.884-5.593
		c1.153-2.271,2.126-4.654,2.846-7.165c1.474-5.143-11.515-16.594-12.948-11.592c-2.944,10.274-9.458,19.302-19.132,24.246
		c-7.625,3.897-27.026,9.228-35.704,3.091c1.425-2.517,2.715-5.383,3.933-8.681c2.743-7.423-15.943-16.926-18.389-10.305
		c-3.411,9.231-7.027,17.387-17.589,18.973c-9.923,1.491-20.253,0.524-29.609-3.139c2.225-3.728,3.815-8.084,4.542-13.153
		c0.763-5.32-20.77-7.978-21.594-2.231c-1.244,8.677-5.669,16.138-13.108,20.943c-9.829,6.348-18.2,1.96-25.72-5.622
		c-0.901-0.909-2.769-1.574-5.01-1.992c1.445-4.164,2.01-8.886,1.525-14.273c-0.212-2.358-0.991-10.667-4.755-10.406
		c-3.655,0.254-3.453,8.935-3.27,10.963c0.315,3.506-9.095,8.653-11.537,10.074c-4.933,2.871-10.289,5.148-15.909,6.255
		c-7.749,1.527-16.523,0.92-23.303-3.139c1.928-4.306,3.351-8.882,4.36-13.44c1.012-4.572,1.15-11.051-2.048-14.919
		c-2.35-2.842-6.073-3.769-7.124,0.978c-2.789,12.598-8.587,24.33-21.748,28.416c-10.745,3.335-24.481,5.357-34.832,0.482
		c1.442-4.671,1.976-9.823,1.408-15.304c-0.648-6.251-14.879-17.643-13.752-6.775c1.228,11.851-5.895,22.503-16.766,26.89
		c-5.348,2.158-11.077,2.774-16.812,2.641c-2.914-0.067-5.79-0.341-8.669-0.8c-2.704-0.431-6.779-3.237-6.605,1.067
		c-0.113-2.804-1.193-5.74-2.923-8.146c2.25-4.127,4.014-8.514,5.195-13.022c1.046-3.994-1.725-5.324-5.101-4.218
		c-4.022,1.318-7.554,6.461-8.579,10.374c-0.158,0.601-0.35,1.179-0.551,1.751c-1.204,0.174-2.083,0.955-2.006,2.874
		c0.017,0.416,0.058,0.814,0.091,1.218c-10.512,17.41-43.135,16.629-47.472-5.628c-0.119-0.609-0.398-0.984-0.756-1.234
		c0.643-1.999,1.141-4.08,1.471-6.247c0.688-4.521-4.77-1.15-6.132-0.057c-3.414,2.737-6.114,7.381-6.771,11.698
		c-0.879,5.776-16.126,10.858-20.993,11.037c-6.404,0.236-12.806-3.266-17.792-7.017c-13.803-10.383-14.877-24.753-11.671-40.651
		c2.783-13.801,7.38-27.273,9.112-41.278c0.882-7.134,0.519-14.324,1.904-21.394c1.54-7.861,4.421-15.345,5.814-23.256
		c1.745-9.908-11.473,3.485-12.317,8.277c-1.742,9.891-5.603,19.282-6.952,29.251c-1.602,11.837-1.798,23.239-4.697,34.959
		C9.815,133.322,0.701,156.95,12,174.512c9.67,15.03,25.941,21.471,42.337,14.326c6.454-2.812,12.443-6.566,17.413-11.241
		c6.058,16.011,26.667,19.662,42.236,14.608c8.372-2.717,15.625-7.835,21.364-14.348c7.73,11.898,25.64,15.078,39.996,13.909
		c9.029-0.735,16.684-4.146,22.352-9.424c0.208,0.281,0.425,0.54,0.659,0.75c5.584,5.018,10.94,8.442,18.637,8.669
		c9.833,0.29,21.58-0.747,30.766-4.36c4.492-1.767,8.28-4.403,11.463-7.629c10.43,13.57,28.877,14.158,43.672,7.965
		c6.601-2.764,12.109-6.231,16.202-10.6c17.503,11.117,44.012,12.731,59.548,0.476c13.994,6.506,28.603,10.178,44.188,8.943
		c9.439-0.748,15.748-3.255,20.49-8.171c15.692,14.69,39.915,12.845,56.322,0.618c22.986,16.164,68.723,0.599,73.522-28.28
		C574.569,142.284,571.206,134.662,568.568,126.844z"/>
</g>
</svg>
