<?xml version="1.0" encoding="utf-8"?>
<!-- Generator: Adobe Illustrator 23.0.1, SVG Export Plug-In . SVG Version: 6.00 Build 0)  -->
<svg version="1.1" id="Layer_3" xmlns="http://www.w3.org/2000/svg" xmlns:xlink="http://www.w3.org/1999/xlink" x="0px" y="0px"
	 viewBox="0 0 566.9 566.9" style="enable-background:new 0 0 566.9 566.9;" xml:space="preserve">
<path d="M497.2,453.1c-3-12.4-8.1-23.9-14-36.5c-6.5-13.8-11.5-25.6-15.7-36.9c-1.7-4.4-3.3-8.8-4.9-13.1c-3.3-8.8-6.6-18-10.3-26.9
	c-1.6-4-3.5-7.9-5.4-11.8c-2.2-4.5-4.4-9.1-6.2-13.8c-4.2-11.1-7.9-22.6-11.5-33.8c-5.8-18.1-11.9-36.8-20.1-54.4c1.4-2,3-4.1,5-6.6
	c4.8-6.2,9.8-12.3,14.5-18.1c5.3-6.5,10.6-12.9,15.9-19.3c5.3-6.4,10.6-12.9,15.9-19.3c1.5-1.8,3-3.6,4.5-5.5
	c5.6-6.6,11.3-13.5,15.7-21c6.9-11.6,10.7-25.2,14.4-38.3c0.7-2.4,12.4-42.8,3.3-59.7c-1.4-2.6-2.2-4.5-5.9-7.5
	c-3.8-3-5.8-3.3-8.7-4c-18.6-4.8-55.1,16.2-57.2,17.4c-11.9,6.7-24.2,13.6-33.8,23.1c-6.3,6.1-11.5,13.3-16.7,20.3
	c-1.4,1.9-2.8,3.8-4.2,5.7c-5,6.7-10,13.4-15,20c-5,6.7-10,13.4-15,20c-4.5,5.9-9.3,12.2-14.1,18.4c-2,2.5-3.7,4.6-5.3,6.4
	c-19.1-3.8-38.6-5.2-57.6-6.6c-11.7-0.8-23.8-1.7-35.5-3.1c-4.9-0.6-10-1.7-14.9-2.7c-4.1-0.9-8.4-1.8-12.7-2.4
	c-9.5-1.4-19.2-2.5-28.6-3.6c-4.6-0.5-9.3-1.1-13.9-1.6c-12-1.5-24.6-3.6-39.6-6.5c-13.7-2.7-26.1-5-38.8-5
	c-30.4,0.1-55.7,15-66.2,38.9c-1.2,2.6-1.1,5.4,0.3,7.3c0.1,0.2,0.3,0.4,0.4,0.5c0.3,1.3,0.9,2.3,1.9,3.1c0.7,0.5,1.6,0.9,2.5,1.1
	l0,0c30.4,5.3,60.6,15.7,89.7,25.8c3.3,1.1,6.5,2.3,9.8,3.4c38,13.1,76,27.1,104.8,38c2.8,1,5.5,2.1,8.3,3.2
	c4.8,1.9,9.8,3.8,14.8,5.6c-0.4,0.7-0.7,1.3-1.1,2l-2.1,3.8c-2.2,3.9-4.4,7.9-6.5,11.8c-0.7,1.3-1.5,2.7-2.2,4
	c-3.1,5.6-63.6,92.7-86.4,132.6c-2.6-0.4-22,0.1-27.8,0.4c-2.5,0.2-35.6,2.1-36,2.3c-4.3,2.1-6.4,3.2-14.6,13.7
	c-8.2,10.5-11.2,19.5-10.8,20.5c1.8,4.4,5.2,7.9,8.2,11.1c0,0,24.9,22.4,27.6,24.6c8,6.3,27.4,21.5,27.4,21.5s19.4,15.2,27.4,21.5
	c2.7,2.1,30.4,21,30.4,21c3.8,2.2,8,4.7,12.7,5.3c1,0.2,9.1-4.9,17.3-15.4s8.8-12.7,9.8-17.4c0.1-0.4-5.9-33.1-6.3-35.5
	c-1-5.8-5.2-24.7-6.2-27.1c33.4-31.6,103.6-111.1,108.3-115.4c1.1-1,2.3-2.1,3.4-3.1c3.3-3,6.6-6.1,9.9-9.1l3.2-2.9
	c0.6-0.5,1.1-1,1.7-1.6c2.9,4.4,6,8.8,8.9,13.1c1.7,2.4,3.4,4.9,5.1,7.3c17.3,25.4,40,58.9,61.8,92.7c1.9,2.9,3.7,5.8,5.6,8.7
	c16.7,25.9,34,52.8,46.3,81l0,0c0.4,0.9,1,1.7,1.7,2.2c1,0.7,2.1,1.1,3.4,1.1c0.2,0.1,0.4,0.2,0.6,0.3c2.2,0.8,4.8,0.3,7.1-1.5
	C495.9,510.8,504.4,482.6,497.2,453.1z M453.2,466.1c-19.5-32.8-40.2-64.3-65.2-101.5c-5.1-7.6-10.4-15.2-15.5-22.6
	c-8.4-12-17-24.5-25-37c-0.7-1.1-1.7-2-3-2.4c-0.6-0.8-1.5-1.4-2.5-1.8c-2.2-0.8-4.9-0.2-7.1,1.6c-4.9,4-9.6,8.3-14,12.6
	c-1.9,1.8-130.1,135.7-130.1,135.7s12,67.7,12.8,70c-0.8,1.6-6.7,8.2-7.1,8.7c-1.7-0.8-3.4-1.8-5-2.8c-0.5-0.3-1-0.6-1.4-0.9
	c-5.5-3.2-19.1-13-20-13.6c-8.8-6.5-34.1-27.4-34.1-27.4S109.6,465,101.2,458c-0.9-0.7-13.5-11.7-18-16.2c-0.4-0.4-0.8-0.8-1.2-1.2
	c-1.4-1.4-2.8-2.8-3.9-4.2c0.4-0.5,5.4-7.8,6.8-9c2.4,0.3,71-4.2,71-4.2s99.6-156.3,100.9-158.6c3-5.4,6.2-10.9,8.9-16.6
	c1.2-2.6,1.2-5.3-0.2-7.3c-0.6-0.9-1.4-1.5-2.3-2c-0.8-1.1-1.9-1.9-3.1-2.4c-14-4.8-28.2-10.2-41.9-15.5c-8.4-3.2-17-6.5-25.6-9.7
	c-42.1-15.4-77.6-28-114.1-39.2c-15.8-4.8-30.2-9.1-44.9-12.1c13.5-17.4,43.7-15.8,53.4-14.7c9,1,18.1,2.8,27,4.6
	c2.6,0.5,5.2,1,7.8,1.5c13.5,2.6,27.2,4.3,38.8,5.7l5.4,0.6c11,1.3,22.4,2.6,33.5,4.4c3.1,0.5,6.2,1.2,9.3,1.9c4.5,1,9.1,2,13.8,2.5
	c8.8,1,17.7,1.7,26.3,2.3c4.9,0.4,10.1,0.8,15.1,1.2l4.9,0.4c16.3,1.4,33.1,2.9,49.1,6.3c1.5,0.3,3.2,0,4.8-0.8
	c1-0.3,1.9-0.8,2.8-1.6l0,0c6.6-5.4,11.8-12.4,16.9-19.1c1.1-1.5,2.2-3,3.4-4.5c7.4-9.6,14.7-19.4,21.8-29c2.1-2.9,4.3-5.7,6.4-8.6
	c1.4-1.8,2.8-3.7,4.1-5.6c6.4-8.6,13-17.4,19.9-25.7c0.5-0.7,2.1-2.5,2.2-2.6c1.5-1.4,3.1-2.7,4.7-3.8c6.6-4.8,13.6-9.1,20.2-13.1
	c1.7-1,3.4-2.1,5.2-3.2c13.9-8.7,33.4-15.6,48.8-11.6c7.6,14.1,5.4,34.6,0.3,50.2c-0.7,2-1.3,3.9-1.9,5.8c-2.3,7.4-4.8,15.2-8,22.7
	c-0.7,1.8-1.6,3.7-2.6,5.4c-0.1,0.1-1.5,2-2,2.7c-6.4,8.7-13.5,17.2-20.3,25.4c-1.5,1.8-2.9,3.6-4.4,5.3c-2.3,2.8-4.6,5.5-6.8,8.3
	c-7.6,9.2-15.4,18.6-23,28c-1.2,1.4-2.3,2.9-3.5,4.3c-5.4,6.5-10.9,13.2-14.6,20.9l0,0c-0.5,1-0.8,2.1-0.9,3.1
	c-0.4,1.8-0.3,3.4,0.4,4.8c7.1,14.7,12.5,30.7,17.8,46.2l1.6,4.7c1.6,4.8,3.2,9.6,4.7,14.3c2.7,8.2,5.5,16.7,8.5,25
	c1.6,4.4,3.7,8.7,5.7,12.8c1.4,2.8,2.8,5.7,4,8.6c4.4,10.3,8.4,21.1,12.2,31.5l1.9,5.1c4.1,11,9,23.9,14.7,36.3
	c1.1,2.4,2.2,4.8,3.3,7.2c3.8,8.1,7.8,16.6,10.8,25.1c3.3,9.2,12.1,38.1-1.6,55.4C469.2,493.3,461.6,480.3,453.2,466.1z"/>
<path d="M193.4,157.5l-62.5-17.3l7.8-7.9c1.3-1.4,32.8-33,39.5-39c11.5-11,34.9-2.2,45.5,8.5c9.5,9.6,7.1,18.8,2.1,23.7L193.4,157.5
	z M155.8,133.6l33.8,9.4l27.1-26.7c0.6-0.6,0.6-0.8,0.5-1.1c-0.1-0.4-0.5-1.9-2.7-4.1c-7.5-7.7-23.1-12.3-27.3-8.2L187,103
	C182.8,106.7,165.9,123.5,155.8,133.6z"/>
<path d="M279,170.8l-62.5-17.3l7.8-7.9c1.3-1.4,32.8-33,39.5-39c5.3-5.1,13.9-6.4,24.1-3.6c11.6,3.2,24.8,11.8,27.4,21.9
	c1.3,5.1-0.1,10-3.9,13.8L279,170.8z M241.4,146.9l33.8,9.4l27.1-26.7c0.6-0.6,0.6-0.8,0.5-1.3c-1-3.9-9-10.1-18.3-12.7
	c-5.3-1.5-9.9-1.3-11.7,0.5l-0.3,0.3C268.4,120,251.5,136.7,241.4,146.9z"/>
<path d="M463.5,408.2l-27-59l26.5-37.1c3.1-4.4,7.8-6.6,13-6.1c10.5,1,21,12.6,26,23.6c4.4,9.7,4.5,18.3,0.3,24.4
	c-4.8,7.6-31.1,43.7-32.2,45.2L463.5,408.2z M451.4,350.7l14.6,31.9c8.4-11.6,22.3-30.9,25.3-35.6l0.2-0.3c1.5-2,0.9-6.6-1.4-11.6
	c-4-8.7-11.4-15.6-15.4-16c-0.5,0-0.7-0.1-1.2,0.7L451.4,350.7z"/>
<path d="M436.8,325.8l-27-59l26.5-37.1c4-5.7,12.7-9.5,23.7-1.7c12.3,8.7,24.7,30.5,15.6,43.6c-4.8,7.6-31.1,43.7-32.2,45.2
	L436.8,325.8z M424.8,268.3l14.6,31.9c8.4-11.6,22.3-30.9,25.3-35.6l0.2-0.3c3.4-4.8-3.7-19.4-12.4-25.6c-2.6-1.8-4.1-2-4.5-2
	c-0.3,0-0.6,0-1.1,0.7L424.8,268.3z"/>
</svg>
