<?xml version="1.0" encoding="utf-8"?>
<!-- Generator: Adobe Illustrator 15.1.0, SVG Export Plug-In . SVG Version: 6.00 Build 0)  -->
<!DOCTYPE svg PUBLIC "-//W3C//DTD SVG 1.1//EN" "http://www.w3.org/Graphics/SVG/1.1/DTD/svg11.dtd">
<svg version="1.1" id="Layer_2" xmlns="http://www.w3.org/2000/svg" xmlns:xlink="http://www.w3.org/1999/xlink" x="0px" y="0px"
	 width="1024px" height="1024px" viewBox="0 0 1024 1024" enable-background="new 0 0 1024 1024" xml:space="preserve">
<g>
	<path d="M585.102,920.534c-42.125,2.264-84.249,3.682-126.374,4.801c-42.125,1.116-84.249,1.825-126.374,2.287
		c-21.063,0.195-42.125,0.379-63.187,0.449c-21.062,0.13-42.125,0.071-63.187-0.116c-21.062-0.195-42.125-0.605-63.187-1.109
		c-21.063-0.513-42.125-1.179-63.187-1.774l-7.688-0.218l2.465-6.95c4.689-13.224,9.381-26.447,13.982-39.7l6.938-19.867
		l6.824-19.903c9.042-26.558,17.765-53.217,26.273-79.944c17.088-53.435,33.064-107.226,48.843-161.08
		c15.762-53.86,31.851-107.616,48.602-161.158c16.636-53.579,33.164-107.193,50.216-160.638l2.25-7.054l7.446-0.012
		c38.815-0.065,77.631,0.056,116.447,0.488c38.815,0.361,77.631,0.924,116.446,1.651c38.815,0.716,77.632,1.661,116.447,2.774
		l29.111,0.881l29.111,1.015c19.408,0.691,38.815,1.485,58.224,2.426v1.9c-19.408,0.941-38.815,1.735-58.224,2.426l-29.111,1.015
		l-29.111,0.881c-38.815,1.113-77.632,2.058-116.447,2.774c-38.815,0.727-77.631,1.291-116.446,1.651
		c-38.815,0.432-77.631,0.553-116.447,0.488l9.696-7.066c-17.306,53.364-35.136,106.559-52.859,159.788
		c-17.607,53.267-35.877,106.321-54.474,159.269c-18.579,52.954-36.962,105.971-54.232,159.347
		c-8.67,26.676-17.127,53.421-25.265,80.269l-6.061,20.149l-5.947,20.186c-3.988,13.45-7.886,26.929-11.787,40.407l-5.224-7.168
		c21.063-0.596,42.125-1.262,63.187-1.774c21.062-0.504,42.125-0.914,63.187-1.109c21.063-0.188,42.125-0.246,63.187-0.116
		c21.063,0.07,42.125,0.254,63.187,0.449c42.125,0.462,84.249,1.171,126.374,2.287c42.125,1.119,84.249,2.537,126.374,4.801V920.534
		z"/>
</g>
<g>
	<path d="M750.91,278.023c3.322-3.519,6.715-6.959,10.07-10.441l10.181-10.317c6.787-6.878,13.656-13.665,20.528-20.449
		c13.763-13.545,27.664-26.937,41.643-40.242c13.98-13.303,28.074-26.48,42.229-39.587l21.299-19.587l21.416-19.458l20.296-18.44
		l-6.276,26.774c-3.559,15.181-7.22,30.338-11.113,45.44c-3.896,15.102-7.96,30.164-12.146,45.196l-12.638,45.08
		c-4.139,15.044-8.311,30.081-12.221,45.179c-7.856,30.188-14.939,60.559-21.614,91.026c-1.646,7.622-3.293,15.244-4.857,22.885
		c-1.571,7.64-3.21,15.264-4.724,22.917l-9.15,45.905c-12.016,61.25-25.897,122.059-39.408,182.955
		c-13.594,60.877-28.719,121.392-44.492,181.753l-1.158,4.433l-3.912,1.459c-14.023,5.23-28.059,10.432-42.117,15.574
		l-42.248,15.246c-14.13,4.966-28.229,10.009-42.411,14.842l-10.623,3.66l-10.653,3.585c-7.097,2.402-14.217,4.748-21.353,7.054
		l-0.709-1.764c6.749-3.271,13.514-6.501,20.301-9.675l10.174-4.779l10.203-4.704c13.586-6.319,27.256-12.429,40.896-18.615
		l41.058-18.211c13.711-6.01,27.444-11.961,41.19-17.883l-5.07,5.892c12.937-61.032,26.522-121.911,41.64-182.428
		c15.2-60.497,30.029-121.081,46.724-181.225l12.383-45.14c2.074-7.521,4.024-15.071,6.043-22.605
		c2.024-7.533,3.966-15.085,5.909-22.637c7.68-30.229,14.952-60.556,21.451-91.064c3.267-15.25,6.273-30.562,9.313-45.866
		l8.895-45.965c2.991-15.315,6.105-30.602,9.387-45.849c3.284-15.247,6.801-30.438,10.42-45.605l14.02,8.334l-21.693,19.148
		l-21.81,19.018c-14.583,12.63-29.229,25.19-43.987,37.624c-14.761,12.432-29.599,24.777-44.574,36.969
		c-7.498,6.084-14.998,12.167-22.581,18.157l-11.373,8.986c-3.829,2.953-7.622,5.946-11.484,8.861L750.91,278.023z"/>
</g>
<g>
	<path d="M586.5,919.458c2.518-13.598,5.353-27.113,8.312-40.597l2.22-10.112l2.307-10.089c1.547-6.725,3.064-13.456,4.701-20.157
		l4.841-20.12l5.026-20.072c3.313-13.391,6.878-26.717,10.652-39.988c7.563-26.539,16.054-52.837,23.28-79.464
		c7.248-26.621,13.694-53.45,19.717-80.389l4.549-20.196l2.276-10.098l2.344-10.08c3.132-13.438,6.427-26.834,9.712-40.232
		l9.921-40.179c3.302-13.395,6.771-26.745,10.29-40.083c3.553-13.329,7.154-26.646,10.881-39.929l5.575-19.93l5.707-19.896
		c1.886-6.636,3.857-13.25,5.807-19.869c1.936-6.623,3.925-13.232,5.932-19.837c3.997-13.214,8.082-26.404,12.394-39.536
		l0.969,0.251c-2.624,13.57-5.474,27.082-8.412,40.571c-1.46,6.747-2.938,13.488-4.471,20.216
		c-1.518,6.731-3.014,13.469-4.596,20.184l-4.695,20.158l-4.828,20.124c-3.208,13.418-6.542,26.804-9.925,40.178
		c-3.416,13.365-6.881,26.716-10.515,40.024l-10.885,39.929c-3.649,13.304-7.29,26.609-11.093,39.874l-2.858,9.946l-2.925,9.929
		l-5.854,19.857c-7.848,26.465-15.271,53.04-21.895,79.824c-6.643,26.777-12.022,53.884-18.329,80.749
		c-3.161,13.431-6.532,26.808-10.154,40.118l-5.376,19.981l-5.562,19.933c-1.83,6.65-3.781,13.27-5.701,19.897l-2.895,9.937
		l-2.981,9.914c-3.977,13.22-8.077,26.406-12.494,39.511L586.5,919.458z"/>
</g>
<g>
	<path d="M800.357,160.624c-3.094-6.673-5.944-13.166-8.911-19.478c-2.96-6.307-5.928-12.452-9.128-18.328
		c-3.178-5.88-6.527-11.516-10.191-16.749c-3.695-5.22-7.526-10.089-11.557-14.803c-4.062-4.663-8.452-9.258-13.86-12.887
		c-5.349-3.678-11.7-6.264-18.406-7.17c-6.703-0.933-13.641-0.337-20.282,1.33c-6.669,1.632-13.028,4.458-19.052,7.791
		c-3.017,1.669-5.95,3.482-8.86,5.305c-1.452,0.919-2.888,1.863-4.315,2.817l-4.286,2.835c-5.682,3.821-11.401,7.547-16.97,11.557
		c-11.139,8.028-21.691,16.906-32.731,25.278c-5.512,4.204-11.078,8.386-16.708,12.546c-5.602,4.194-11.268,8.364-16.992,12.521
		c-5.725,4.158-11.517,8.293-17.444,12.343c-5.942,4.035-11.939,8.063-18.334,11.766l-1.654-1.598
		c3.493-6.531,7.497-12.627,11.685-18.585c4.203-5.943,8.67-11.671,13.353-17.218c4.681-5.548,9.573-10.923,14.696-16.081
		c5.098-5.188,10.428-10.164,16.015-14.865c11.157-9.43,23.596-17.409,36.562-24.521c6.486-3.551,13.102-6.946,20.085-9.616
		c1.734-0.688,3.508-1.293,5.274-1.906c1.78-0.584,3.574-1.132,5.372-1.66c3.592-1.067,7.247-1.95,10.908-2.736
		c7.329-1.572,14.691-2.718,22.036-3.593c7.356-0.84,14.73-1.267,22.223-1.088c7.477,0.188,15.166,0.905,22.875,2.905
		c7.662,2.018,15.284,5.407,21.735,10.326c6.503,4.866,11.739,11.115,15.812,17.809c4.107,6.692,7.255,13.783,9.568,21.026
		c2.286,7.256,3.808,14.649,4.492,22.096c0.33,3.725,0.504,7.452,0.405,11.188c-0.109,3.736-0.362,7.459-1.125,11.196
		L800.357,160.624z"/>
</g>
<g>
	<path d="M532.146,44.42c1.95,5.54,3.479,11.131,4.88,16.739c1.392,5.609,2.596,11.241,3.674,16.889
		c1.09,5.646,2.023,11.312,2.85,16.99c0.867,5.673,1.544,11.371,1.862,17.112c0.713,11.473,0.036,23.118,0.922,34.57
		c0.831,11.459,2.752,22.783,5.315,34.028l-3.934-2.824c6.096-1.846,12.176-3.772,18.288-5.542
		c6.108-1.789,12.27-3.322,18.436-4.828c12.325-3.051,24.641-6.144,37.098-8.553c12.464-2.375,25.017-4.319,37.638-5.927
		c12.628-1.577,25.316-2.855,38.195-3.212l0.262,1.273c-11.976,4.751-24.14,8.582-36.365,12.114
		c-12.232,3.501-24.534,6.666-36.924,9.399c-12.396,2.7-24.935,4.716-37.464,6.774c-6.26,1.048-12.526,2.069-18.845,2.835
		c-6.314,0.786-12.661,1.413-18.991,2.122l-3.864,0.433l-0.07-3.257c-0.25-11.531-1.143-22.982-3.123-34.299
		c-1.928-11.323-5.417-22.454-7.518-33.756c-1.088-5.646-1.818-11.337-2.356-17.051c-0.581-5.709-1.054-11.431-1.371-17.173
		c-0.328-5.74-0.53-11.496-0.545-17.275c-0.007-5.78,0.116-11.576,0.66-17.424L532.146,44.42z"/>
</g>
<g>
	<path d="M318.5,358.1c7.458-0.785,14.917-1.309,22.375-1.729c3.729-0.221,7.458-0.42,11.188-0.558
		c3.729-0.154,7.458-0.333,11.188-0.414l11.188-0.301l11.188-0.158c7.458-0.095,14.917-0.039,22.375,0.222
		c14.917,0.519,29.833,1.805,44.75,2.046c14.917,0.258,29.833-0.146,44.75-0.899c7.458-0.336,14.917-0.773,22.375-1.021
		c7.458-0.277,14.917-0.419,22.375-0.57c14.917-0.294,29.833-0.617,44.75-0.491c7.458,0.07,14.917,0.181,22.375,0.396l11.188,0.308
		l11.188,0.418c14.917,0.631,29.833,1.385,44.75,2.75v0.8c-14.917,1.365-29.833,2.119-44.75,2.75l-11.188,0.418l-11.188,0.308
		c-7.458,0.214-14.917,0.325-22.375,0.396c-14.917,0.126-29.833-0.197-44.75-0.491c-7.458-0.151-14.917-0.293-22.375-0.57
		c-7.458-0.247-14.917-0.684-22.375-1.021c-14.917-0.754-29.833-1.158-44.75-0.899c-14.917,0.241-29.833,1.527-44.75,2.046
		c-7.458,0.261-14.917,0.317-22.375,0.222l-11.188-0.158L363.25,361.6c-3.729-0.08-7.458-0.259-11.188-0.414
		c-3.729-0.138-7.458-0.336-11.188-0.558c-7.458-0.42-14.917-0.944-22.375-1.729V358.1z"/>
</g>
<g>
	<path d="M285.5,414.1c7.458-0.785,14.917-1.309,22.375-1.729c3.729-0.221,7.458-0.42,11.188-0.558
		c3.729-0.154,7.458-0.333,11.188-0.414l11.188-0.301l11.188-0.158c7.458-0.095,14.917-0.039,22.375,0.222
		c14.917,0.519,29.833,1.805,44.75,2.046c14.917,0.258,29.833-0.146,44.75-0.899c7.458-0.336,14.917-0.773,22.375-1.021
		c7.458-0.277,14.917-0.419,22.375-0.57c14.917-0.294,29.833-0.617,44.75-0.491c7.458,0.07,14.917,0.181,22.375,0.396l11.188,0.308
		l11.188,0.418c14.917,0.631,29.833,1.385,44.75,2.75v0.8c-14.917,1.365-29.833,2.119-44.75,2.75l-11.188,0.418l-11.188,0.308
		c-7.458,0.214-14.917,0.325-22.375,0.396c-14.917,0.126-29.833-0.197-44.75-0.491c-7.458-0.151-14.917-0.293-22.375-0.57
		c-7.458-0.247-14.917-0.684-22.375-1.021c-14.917-0.754-29.833-1.158-44.75-0.899c-14.917,0.241-29.833,1.527-44.75,2.046
		c-7.458,0.261-14.917,0.317-22.375,0.222l-11.188-0.158L330.25,417.6c-3.729-0.08-7.458-0.259-11.188-0.414
		c-3.729-0.138-7.458-0.336-11.188-0.558c-7.458-0.42-14.917-0.944-22.375-1.729V414.1z"/>
</g>
<g>
	<path d="M260.5,474.1c7.458-0.785,14.917-1.309,22.375-1.729c3.729-0.221,7.458-0.42,11.188-0.558
		c3.729-0.154,7.458-0.333,11.188-0.414l11.188-0.301l11.188-0.158c7.458-0.095,14.917-0.039,22.375,0.222
		c14.917,0.519,29.833,1.805,44.75,2.046c14.917,0.258,29.833-0.146,44.75-0.899c7.458-0.336,14.917-0.773,22.375-1.021
		c7.458-0.277,14.917-0.419,22.375-0.57c14.917-0.294,29.833-0.617,44.75-0.491c7.458,0.07,14.917,0.181,22.375,0.396l11.188,0.308
		l11.188,0.418c14.917,0.631,29.833,1.385,44.75,2.75v0.8c-14.917,1.365-29.833,2.119-44.75,2.75l-11.188,0.418l-11.188,0.308
		c-7.458,0.214-14.917,0.325-22.375,0.396c-14.917,0.126-29.833-0.197-44.75-0.491c-7.458-0.151-14.917-0.293-22.375-0.57
		c-7.458-0.247-14.917-0.684-22.375-1.021c-14.917-0.754-29.833-1.158-44.75-0.899c-14.917,0.241-29.833,1.527-44.75,2.046
		c-7.458,0.261-14.917,0.317-22.375,0.222l-11.188-0.158L305.25,477.6c-3.729-0.08-7.458-0.259-11.188-0.414
		c-3.729-0.138-7.458-0.336-11.188-0.558c-7.458-0.42-14.917-0.944-22.375-1.729V474.1z"/>
</g>
<g>
	<path d="M251.5,541.099c7.458-0.785,14.917-1.309,22.375-1.729c3.729-0.221,7.458-0.42,11.188-0.558
		c3.729-0.154,7.458-0.333,11.188-0.413l11.188-0.301l11.188-0.158c7.458-0.096,14.917-0.039,22.375,0.223
		c14.917,0.519,29.833,1.805,44.75,2.045c14.917,0.259,29.833-0.145,44.75-0.898c7.458-0.337,14.917-0.773,22.375-1.021
		c7.458-0.276,14.917-0.419,22.375-0.57c14.917-0.293,29.833-0.617,44.75-0.49c7.458,0.07,14.917,0.181,22.375,0.395l11.188,0.309
		l11.188,0.418c14.917,0.631,29.833,1.386,44.75,2.75v0.801c-14.917,1.364-29.833,2.119-44.75,2.75l-11.188,0.418l-11.188,0.309
		c-7.458,0.214-14.917,0.324-22.375,0.395c-14.917,0.127-29.833-0.197-44.75-0.49c-7.458-0.151-14.917-0.294-22.375-0.57
		c-7.458-0.248-14.917-0.685-22.375-1.021c-14.917-0.754-29.833-1.157-44.75-0.898c-14.917,0.24-29.833,1.526-44.75,2.045
		c-7.458,0.262-14.917,0.318-22.375,0.223l-11.188-0.158l-11.188-0.301c-3.729-0.08-7.458-0.259-11.188-0.413
		c-3.729-0.138-7.458-0.337-11.188-0.558c-7.458-0.42-14.917-0.943-22.375-1.729V541.099z"/>
</g>
<g>
	<path d="M218.5,597.099c7.458-0.785,14.917-1.309,22.375-1.729c3.729-0.221,7.458-0.42,11.188-0.558
		c3.729-0.154,7.458-0.333,11.188-0.413l11.188-0.301l11.188-0.158c7.458-0.096,14.917-0.039,22.375,0.223
		c14.917,0.519,29.833,1.805,44.75,2.045c14.917,0.259,29.833-0.145,44.75-0.898c7.458-0.337,14.917-0.773,22.375-1.021
		c7.458-0.276,14.917-0.419,22.375-0.57c14.917-0.293,29.833-0.617,44.75-0.49c7.458,0.07,14.917,0.181,22.375,0.395l11.188,0.309
		l11.188,0.418c14.917,0.631,29.833,1.386,44.75,2.75v0.801c-14.917,1.364-29.833,2.119-44.75,2.75l-11.188,0.418l-11.188,0.309
		c-7.458,0.214-14.917,0.324-22.375,0.395c-14.917,0.127-29.833-0.197-44.75-0.49c-7.458-0.151-14.917-0.294-22.375-0.57
		c-7.458-0.248-14.917-0.685-22.375-1.021c-14.917-0.754-29.833-1.157-44.75-0.898c-14.917,0.24-29.833,1.526-44.75,2.045
		c-7.458,0.262-14.917,0.318-22.375,0.223l-11.188-0.158l-11.188-0.301c-3.729-0.08-7.458-0.259-11.188-0.413
		c-3.729-0.138-7.458-0.337-11.188-0.558c-7.458-0.42-14.917-0.943-22.375-1.729V597.099z"/>
</g>
<g>
	<path d="M193.5,657.099c7.458-0.785,14.917-1.309,22.375-1.729c3.729-0.221,7.458-0.42,11.188-0.558
		c3.729-0.154,7.458-0.333,11.188-0.413l11.188-0.301l11.188-0.158c7.458-0.096,14.917-0.039,22.375,0.223
		c14.917,0.519,29.833,1.805,44.75,2.045c14.917,0.259,29.833-0.145,44.75-0.898c7.458-0.337,14.917-0.773,22.375-1.021
		c7.458-0.276,14.917-0.419,22.375-0.57c14.917-0.293,29.833-0.617,44.75-0.49c7.458,0.07,14.917,0.181,22.375,0.395l11.188,0.309
		l11.188,0.418c14.917,0.631,29.833,1.386,44.75,2.75v0.801c-14.917,1.364-29.833,2.119-44.75,2.75l-11.188,0.418l-11.188,0.309
		c-7.458,0.214-14.917,0.324-22.375,0.395c-14.917,0.127-29.833-0.197-44.75-0.49c-7.458-0.151-14.917-0.294-22.375-0.57
		c-7.458-0.248-14.917-0.685-22.375-1.021c-14.917-0.754-29.833-1.157-44.75-0.898c-14.917,0.24-29.833,1.526-44.75,2.045
		c-7.458,0.262-14.917,0.318-22.375,0.223l-11.188-0.158l-11.188-0.301c-3.729-0.08-7.458-0.259-11.188-0.413
		c-3.729-0.138-7.458-0.337-11.188-0.558c-7.458-0.42-14.917-0.943-22.375-1.729V657.099z"/>
</g>
<g>
	<path d="M182.5,724.099c7.458-0.785,14.917-1.309,22.375-1.729c3.729-0.221,7.458-0.42,11.188-0.558
		c3.729-0.154,7.458-0.333,11.188-0.413l11.188-0.301l11.188-0.158c7.458-0.096,14.917-0.039,22.375,0.223
		c14.917,0.519,29.833,1.805,44.75,2.045c14.917,0.259,29.833-0.145,44.75-0.898c7.458-0.337,14.917-0.773,22.375-1.021
		c7.458-0.276,14.917-0.419,22.375-0.57c14.917-0.293,29.833-0.617,44.75-0.49c7.458,0.07,14.917,0.181,22.375,0.395l11.188,0.309
		l11.188,0.418c14.917,0.631,29.833,1.386,44.75,2.75v0.801c-14.917,1.364-29.833,2.119-44.75,2.75l-11.188,0.418l-11.188,0.309
		c-7.458,0.214-14.917,0.324-22.375,0.395c-14.917,0.127-29.833-0.197-44.75-0.49c-7.458-0.151-14.917-0.294-22.375-0.57
		c-7.458-0.248-14.917-0.685-22.375-1.021c-14.917-0.754-29.833-1.157-44.75-0.898c-14.917,0.24-29.833,1.526-44.75,2.045
		c-7.458,0.262-14.917,0.318-22.375,0.223l-11.188-0.158l-11.188-0.301c-3.729-0.08-7.458-0.259-11.188-0.413
		c-3.729-0.138-7.458-0.337-11.188-0.558c-7.458-0.42-14.917-0.943-22.375-1.729V724.099z"/>
</g>
<g>
	<path d="M149.5,780.099c7.458-0.785,14.917-1.309,22.375-1.729c3.729-0.221,7.458-0.42,11.188-0.558
		c3.729-0.154,7.458-0.333,11.188-0.413l11.188-0.301l11.188-0.158c7.458-0.096,14.917-0.039,22.375,0.223
		c14.917,0.519,29.833,1.805,44.75,2.045c14.917,0.259,29.833-0.145,44.75-0.898c7.458-0.337,14.917-0.773,22.375-1.021
		c7.458-0.276,14.917-0.419,22.375-0.57c14.917-0.293,29.833-0.617,44.75-0.49c7.458,0.07,14.917,0.181,22.375,0.395l11.188,0.309
		l11.188,0.418c14.917,0.631,29.833,1.386,44.75,2.75v0.801c-14.917,1.364-29.833,2.119-44.75,2.75l-11.188,0.418l-11.188,0.309
		c-7.458,0.214-14.917,0.324-22.375,0.395c-14.917,0.127-29.833-0.197-44.75-0.49c-7.458-0.151-14.917-0.294-22.375-0.57
		c-7.458-0.248-14.917-0.685-22.375-1.021c-14.917-0.754-29.833-1.157-44.75-0.898c-14.917,0.24-29.833,1.526-44.75,2.045
		c-7.458,0.262-14.917,0.318-22.375,0.223l-11.188-0.158l-11.188-0.301c-3.729-0.08-7.458-0.259-11.188-0.413
		c-3.729-0.138-7.458-0.337-11.188-0.558c-7.458-0.42-14.917-0.943-22.375-1.729V780.099z"/>
</g>
<g>
	<path d="M124.5,840.099c7.458-0.785,14.917-1.309,22.375-1.729c3.729-0.221,7.458-0.42,11.188-0.558
		c3.729-0.154,7.458-0.333,11.188-0.413l11.188-0.301l11.188-0.158c7.458-0.096,14.917-0.039,22.375,0.223
		c14.917,0.519,29.833,1.805,44.75,2.045c14.917,0.259,29.833-0.145,44.75-0.898c7.458-0.337,14.917-0.773,22.375-1.021
		c7.458-0.276,14.917-0.419,22.375-0.57c14.917-0.293,29.833-0.617,44.75-0.49c7.458,0.07,14.917,0.181,22.375,0.395l11.188,0.309
		l11.188,0.418c14.917,0.631,29.833,1.386,44.75,2.75v0.801c-14.917,1.364-29.833,2.119-44.75,2.75l-11.188,0.418l-11.188,0.309
		c-7.458,0.214-14.917,0.324-22.375,0.395c-14.917,0.127-29.833-0.197-44.75-0.49c-7.458-0.151-14.917-0.294-22.375-0.57
		c-7.458-0.248-14.917-0.685-22.375-1.021c-14.917-0.754-29.833-1.157-44.75-0.898c-14.917,0.24-29.833,1.526-44.75,2.045
		c-7.458,0.262-14.917,0.318-22.375,0.223l-11.188-0.158l-11.188-0.301c-3.729-0.08-7.458-0.259-11.188-0.413
		c-3.729-0.138-7.458-0.337-11.188-0.558c-7.458-0.42-14.917-0.943-22.375-1.729V840.099z"/>
</g>
</svg>
