<?xml version="1.0" encoding="utf-8"?>
<!-- Generator: Adobe Illustrator 15.1.0, SVG Export Plug-In . SVG Version: 6.00 Build 0)  -->
<!DOCTYPE svg PUBLIC "-//W3C//DTD SVG 1.1//EN" "http://www.w3.org/Graphics/SVG/1.1/DTD/svg11.dtd">
<svg version="1.1" id="Layer_2" xmlns="http://www.w3.org/2000/svg" xmlns:xlink="http://www.w3.org/1999/xlink" x="0px" y="0px"
	 width="566.93px" height="566.93px" viewBox="0 0 566.93 566.93" enable-background="new 0 0 566.93 566.93" xml:space="preserve">
<path d="M-50.963,103.385c11.294,6.926,22.019,14.898,32.511,22.963c11.345,8.719,22.335,17.897,32.986,27.45
	c1.458,1.308,2.907,2.627,4.352,3.951c-3.042-2.786,1.678,1.577,2.438,2.291c3.275,3.077,6.503,6.204,9.7,9.361
	c6.478,6.399,12.771,12.984,18.898,19.719c13.158,14.463,25.4,29.761,36.521,45.843c5.811,8.404,11.252,17.061,16.347,25.916
	c2.48,4.312,4.844,8.689,7.13,13.105c1.15,2.221,2.262,4.462,3.36,6.709c0.55,1.127,1.087,2.26,1.625,3.394
	c0.735,1.568,0.71,1.516-0.073-0.158c0.348,0.763,0.693,1.527,1.036,2.293c8.735,19.45,15.27,39.876,19.239,60.828
	c0.486,2.568,0.912,5.147,1.316,7.729c0.117,0.744,0.727,5.171,0.136,0.789c0.176,1.307,0.331,2.616,0.485,3.926
	c0.68,5.766,1.077,11.554,1.368,17.351c0.646,12.878,2.281,25.714,4.398,38.426c7.773,46.671,26.187,91.206,49.008,132.426
	c19.719,35.616,43.506,68.949,69.65,100.114c18.577,22.145,38.377,43.736,60.07,62.902c2.968,2.623,8.763,0.62,11.563-0.934
	c4.822-2.678,8.651-7.078,11.379-11.802c4.7-8.141,7.368-19.336-0.441-26.235c-0.766-0.677-1.52-1.368-2.272-2.06
	c4.903,4.501,1.039,0.952-0.145-0.159c-1.301-1.221-2.591-2.451-3.877-3.688c-7.831-7.527-15.422-15.306-22.849-23.232
	c-24.381-26.026-46.844-53.896-66.972-83.336c-12.375-18.1-23.762-36.878-33.983-56.277c-2.549-4.839-5.001-9.729-7.39-14.648
	c-0.601-1.238-1.191-2.48-1.782-3.724c-0.139-0.293-2.057-4.434-0.672-1.426c-1.352-2.935-2.659-5.89-3.948-8.852
	c-4.644-10.674-8.817-21.548-12.553-32.57c-3.771-11.127-6.975-22.442-9.653-33.881c-1.292-5.52-2.411-11.079-3.417-16.657
	c-0.504-2.797-0.953-5.604-1.381-8.413c-0.09-0.588-0.734-5.316-0.187-1.225c-0.252-1.884-0.473-3.771-0.689-5.66
	c-1.313-11.456-1.493-22.993-2.781-34.451c-1.333-11.854-3.348-23.619-6.167-35.21C144.312,228.137,91.32,162.481,32.038,110.39
	c-18.917-16.622-38.982-32.781-60.5-45.976c-8.762-5.373-19.197,6.25-22.941,12.735C-55.37,84.02-59.748,97.998-50.963,103.385
	L-50.963,103.385z"/>
<g>
	<path d="M98.724,5.9c3.593,2.112,7.119,4.342,10.622,6.606c3.499,2.27,6.971,4.585,10.405,6.956l-0.763,1.051
		c-3.309-2.525-6.639-5.024-10.012-7.467C105.601,10.605,102.201,8.197,98.724,5.9z"/>
	<rect x="143.624" y="37.378" transform="matrix(-0.7809 -0.6247 0.6247 -0.7809 231.6182 158.615)" width="0.009" height="2.611"/>
	<path d="M144.459,37.676c13.394,10.561,26.401,21.662,38.752,33.477l-3.043,3.104c-11.957-12.017-24.379-23.601-37.362-34.559
		L144.459,37.676z"/>
	
		<rect x="202.908" y="92.181" transform="matrix(-0.6805 -0.7328 0.7328 -0.6805 271.5276 307.9752)" width="0.009" height="5.209"/>
	<path d="M202.916,97.393v-5.209V97.393z"/>
	<path d="M204.854,93.048c2.887,3.111,5.799,6.303,8.602,9.521c2.818,3.223,5.592,6.485,8.321,9.787
		c5.456,6.604,10.728,13.369,15.784,20.298l-5.14,3.672c-4.839-6.921-9.899-13.694-15.152-20.321
		c-2.626-3.313-5.301-6.59-8.021-9.831c-2.735-3.246-5.448-6.441-8.269-9.644L204.854,93.048z"/>
	<rect x="248.359" y="160.089" width="6.864" height="0.01"/>
	<path d="M251.794,163.53v-6.864V163.53z"/>
	<path d="M254.746,158.349c1.096,1.812,2.193,3.655,3.286,5.528c1.079,1.859,2.144,3.726,3.193,5.603
		c2.094,3.755,4.117,7.552,6.065,11.389c3.896,7.674,7.491,15.51,10.737,23.497l-6.955,2.778
		c-3.069-7.821-6.483-15.514-10.201-23.064c-1.859-3.775-3.793-7.515-5.799-11.218c-1.005-1.851-2.025-3.693-3.061-5.527
		c-1.03-1.815-2.086-3.642-3.171-5.485L254.746,158.349z"/>
	<rect x="280.474" y="234.764" width="7.725" height="0.01"/>
	<path d="M284.338,238.636v-7.725V238.636z"/>
	<path d="M288.066,233.76c2.304,8.3,4.213,16.758,5.673,25.276c1.463,8.522,2.482,17.126,3.034,25.764l-7.917,0.49
		c-0.501-8.354-1.453-16.684-2.836-24.945c-1.384-8.267-3.193-16.443-5.409-24.556L288.066,233.76z"/>
	<rect x="291.602" y="315.538" width="7.942" height="0.012"/>
	<path d="M295.573,319.521v-7.941V319.521z"/>
	<path d="M299.503,314.974l0.456,3.159l0.479,3.094c0.336,2.074,0.688,4.146,1.06,6.215c0.748,4.136,1.579,8.259,2.487,12.365
		c1.818,8.213,3.949,16.362,6.358,24.433l-7.405,2.228c-2.494-8.229-4.707-16.552-6.602-24.951c-0.947-4.199-1.815-8.418-2.6-12.654
		c-0.39-2.119-0.76-4.241-1.112-6.366l-0.512-3.213l-0.469-3.156L299.503,314.974z"/>
	<rect x="312.87" y="394.303" width="7.511" height="0.012"/>
	<path d="M316.627,398.071v-7.511V398.071z"/>
	<path d="M320.123,392.944l2.303,5.909l2.385,5.862c1.619,3.896,3.296,7.771,5.025,11.624c3.46,7.704,7.134,15.316,10.997,22.836
		l-6.101,3.183c-4.01-7.572-7.832-15.249-11.442-23.03c-1.805-3.891-3.557-7.808-5.252-11.75l-2.5-5.933l-2.406-5.957
		L320.123,392.944z"/>
	
		<rect x="352.729" y="464.331" transform="matrix(-0.5369 -0.8437 0.8437 -0.5369 147.6971 1016.0821)" width="0.013" height="6.342"/>
	<path d="M352.74,470.679v-6.342V470.679z"/>
	<path d="M355.457,465.875c2.151,3.688,4.302,7.284,6.521,10.907c2.212,3.61,4.464,7.197,6.753,10.762
		c4.574,7.131,9.318,14.154,14.141,21.128l-4.256,3.046c-5.083-6.87-9.979-13.881-14.75-20.979c-2.384-3.55-4.731-7.125-7.04-10.727
		c-2.301-3.588-4.595-7.252-6.806-10.873L355.457,465.875z"/>
	
		<rect x="399.127" y="532.512" transform="matrix(-0.6247 -0.7809 0.7809 -0.6247 230.9436 1180.3875)" width="0.013" height="4.366"/>
	<path d="M399.138,536.883v-4.366V536.883z"/>
	<path d="M400.852,533.349c5.161,6.742,10.418,13.404,15.773,19.995c5.363,6.584,10.846,13.075,16.44,19.47l-1.942,1.764
		c-5.844-6.212-11.58-12.527-17.205-18.944c-5.634-6.409-11.136-12.942-16.495-19.582L400.852,533.349z"/>
	<rect x="452.523" y="595.915" width="1.305" height="0.007"/>
	<path d="M453.648,595.468c5.728,6.044,11.53,12.024,17.578,17.76c-3.179-2.697-6.283-5.481-9.365-8.291
		c-3.077-2.814-6.129-5.66-9.138-8.549L453.648,595.468z"/>
</g>
<path d="M244.037-9.714c11.294,6.926,22.019,14.898,32.511,22.963c11.345,8.719,22.335,17.897,32.986,27.45
	c1.459,1.308,2.907,2.627,4.352,3.951c-3.042-2.786,1.678,1.577,2.438,2.291c3.275,3.077,6.503,6.204,9.7,9.361
	c6.479,6.399,12.771,12.984,18.898,19.719c13.157,14.463,25.4,29.761,36.521,45.843c5.811,8.404,11.252,17.061,16.347,25.916
	c2.48,4.312,4.844,8.689,7.13,13.105c1.15,2.221,2.262,4.462,3.36,6.709c0.55,1.127,1.087,2.26,1.624,3.394
	c0.735,1.568,0.711,1.516-0.072-0.158c0.348,0.763,0.693,1.527,1.035,2.293c8.735,19.45,15.27,39.876,19.239,60.828
	c0.486,2.568,0.912,5.147,1.316,7.729c0.116,0.744,0.727,5.171,0.137,0.789c0.176,1.307,0.33,2.617,0.484,3.926
	c0.681,5.766,1.077,11.554,1.368,17.351c0.646,12.877,2.281,25.714,4.398,38.426c7.772,46.67,26.187,91.206,49.008,132.426
	c19.719,35.616,43.507,68.949,69.65,100.114c18.576,22.145,38.377,43.736,60.07,62.902c2.968,2.623,8.763,0.62,11.563-0.934
	c4.822-2.678,8.651-7.078,11.379-11.802c4.7-8.141,7.368-19.336-0.441-26.235c-0.766-0.677-1.52-1.368-2.272-2.06
	c4.903,4.501,1.039,0.952-0.145-0.159c-1.301-1.221-2.591-2.451-3.877-3.688c-7.831-7.527-15.422-15.306-22.849-23.232
	c-24.381-26.026-46.844-53.896-66.973-83.336c-12.375-18.1-23.761-36.878-33.982-56.277c-2.55-4.839-5.002-9.729-7.391-14.648
	c-0.601-1.238-1.191-2.48-1.781-3.724c-0.14-0.293-2.058-4.434-0.672-1.426c-1.352-2.935-2.659-5.89-3.948-8.852
	c-4.644-10.674-8.817-21.548-12.554-32.57c-3.771-11.127-6.975-22.442-9.653-33.881c-1.292-5.52-2.41-11.079-3.417-16.657
	c-0.504-2.797-0.952-5.604-1.381-8.413c-0.09-0.588-0.734-5.316-0.187-1.225c-0.252-1.884-0.473-3.771-0.689-5.66
	c-1.312-11.457-1.492-22.994-2.78-34.452c-1.333-11.854-3.348-23.62-6.168-35.21C439.312,115.039,386.32,49.383,327.037-2.708
	c-18.917-16.622-38.981-32.781-60.5-45.976c-8.762-5.373-19.197,6.25-22.941,12.735C239.63-29.079,235.252-15.1,244.037-9.714
	L244.037-9.714z"/>
</svg>
