<?xml version="1.0" encoding="utf-8"?>
<!-- Generator: Adobe Illustrator 23.0.1, SVG Export Plug-In . SVG Version: 6.00 Build 0)  -->
<svg version="1.1" id="Layer_3" xmlns="http://www.w3.org/2000/svg" xmlns:xlink="http://www.w3.org/1999/xlink" x="0px" y="0px"
	 viewBox="0 0 566.9 566.9" style="enable-background:new 0 0 566.9 566.9;" xml:space="preserve">
<path d="M548.7,333.6c-0.4-5.1-2.4-9.7-6-9.8c-0.2,0-0.4,0-0.7,0c-25.3-25.8-50.5-51.9-75.7-77.8c-21.4-22-43.7-43.1-60.9-68.5
	c0.2-6.1-1.8-12.5-6.1-12.5c-20.6,0-41.2,0.5-61.9,0.5c-8.1,0-8.1,23.3,0,23.3c18.7,0,37.3-0.4,56-0.5c18,28.7,41.8,51.9,65.3,76.1
	c19,19.5,37.9,39,56.9,58.5c-24.3-0.6-48.5-1-72.8-1c-15.7,0-31.2,0.3-46.8,2c-15.9,1.7-31.9,3.8-47.6,0.2
	c-16.1-3-28.9-11.9-39.1-24.3c-8-9.7-16-19.4-24-29.1c-22.5-27.1-45.1-54.2-69.3-79.8c-0.7-0.8-1.5-1.6-2.2-2.4
	c12-0.1,24-0.3,36.1-0.3c8.1,0,8.2-23.3,0-23.3c-20.5,0-41,0.5-61.5,0.5c-0.4-0.2-8.8,6.8-9.2,7.2c-26.8,26.6-53.3,53.6-80.3,79.9
	c-12.4,12.1-26.9,21.4-39,33.8c-13,13.3-25.7,27-38.6,40.5c-2.7,2.8-3.3,7.7-2.9,12c-1.1,3.4-1,7.8-0.8,10.1
	c2,17.2,2.2,34.5,0.7,51.7c-0.4,4.1-0.5,12.2,4.1,14.3c4.5,2.1,6.9-5,7.2-8.1c1.8-19.7,1.7-39.3-0.2-58.9c0.2,0,0.4,0,0.6,0
	c41.6-1.7,83.2-1.4,124.8-1.8c41.2-0.4,82.4-1.9,123.5,1.8c16.9,1.5,33.8,3.2,50.7,2.5c0.6,16.3,0.1,32.5-1.8,48.8
	c-0.5,4.1-0.5,12.3,4.1,14.3c4.6,2.1,6.8-5,7.2-8.1c2.2-18.5,3-37.2,2.2-55.8c2.7-0.3,5.3-0.6,8-1.1c0.7-0.1,31.5,0.3,46.3-1.3
	c16-1.8,31.9-2.1,47.9-2.1c30.9,0,61.8,0.5,92.7,1.6c0,0.3,0,0.6,0,0.9c0.7,22.7-5.5,44.8-2.9,67.7c0.4,3.4,2.6,10.1,7.2,8.1
	c4.5-1.9,4.5-10.6,4.1-14.3c-2.3-20.4,4-41,3.3-61.5c0-0.5,0-1-0.1-1.6c0.4-0.8,0.8-1.6,1-2.4C548.9,341.1,549.3,337.1,548.7,333.6z
	 M226.2,322.4c-41.6-0.1-83.2,0.7-124.8,1.1c-17.5,0.2-35,0.2-52.5,0.6c5.6-5.9,11.2-11.8,16.9-17.6c12.1-12.4,26.6-21.7,39-33.8
	c27-26.4,82-82.2,82.5-83.6c7.5,5.1,13.9,12.5,20.7,19.6c11.9,12.5,23.3,25.4,34.6,38.4c20.4,23.6,40.3,47.8,60.2,71.9
	c2.4,2.9,4.9,5.6,7.4,8.1c-7.6-0.3-15.1-0.9-22.7-1.6C267,323.8,246.7,322.5,226.2,322.4z"/>
<path d="M338.2,223.2c0-0.3,0-0.5,0-0.7c1-24.7,0.4-49.4-1.6-74.1c2-2.7,1.6-10.4-1.8-10.7c-26.2-2.4-52.5-2.1-78.7,0.7
	c-3.1,0.3-3.7,7-2.2,10.1c-3.2,17.1-4,34.2-2.3,51.6c0.2,2,1.3,5.4,3.3,6.2c12.6,9.3,24.7,19.2,36.2,29.9c0.8,0.7,1.4,0.8,2,0.6
	c0.6,0.6,1.3,1,2.2,1c0.8,0,1.4-0.3,1.9-0.8c13-1,26-2,39.1-3C339.6,233.6,340.2,226,338.2,223.2z M290.9,188.9
	c-0.4,11.3-0.4,22.7-0.1,34c-9.8-8.9-20-17.3-30.6-25.2c0-0.9-0.1-1.7-0.1-2.4c-1.5-14.3-0.7-28.8,2.3-42.8c0.2-1,0.4-2.1,0.5-3.2
	c9.4-0.9,18.9-1.4,28.4-1.6c-0.1,1.4,0,2.7,0.2,3.5C294,163.4,291.3,176.7,290.9,188.9z M299.8,186.7c0.5-12.8,2.8-26.3,0.4-39
	c9.3,0,18.6,0.4,27.9,1c0,1.1,0,2.1,0.1,2.9c1.9,23.6,2.3,47.2,1.4,70.8c0,0.1,0,0.2,0,0.2c-10,0.8-19.9,1.5-29.9,2.3
	C299.2,212.2,299.3,199.4,299.8,186.7z"/>
<path d="M206.4,379.2c0.7-3.2-0.1-7.7-2.6-7.8c-24-0.9-48-0.8-72,0.3c-2.9,0.1-3.6,6.4-2.1,9.4c1.9,19,1.5,38-1,56.9
	c-0.1,1-0.2,3,0.3,4.6c-0.7,3.2,0.1,7.7,2.6,7.8c24,0.9,48,0.8,72-0.3c2.9-0.1,3.6-6.4,2.1-9.4c-1.9-19-1.5-38,1-56.9
	C206.8,382.7,206.8,380.8,206.4,379.2z M170.2,381.8c10.3,0,20.7,0.2,31,0.5c-1.1,8.9-1.9,17.8-2.1,26.8c-10.3,1.2-20.7,1.8-31,1.6
	C168.2,401,168.9,391.4,170.2,381.8z M167.3,381.8c-1.2,9.6-1.9,19.2-2,28.8c-9.7-0.3-19.4-1.2-29-2.7c0.1-8.5-0.3-17-1-25.4
	C146,382.1,156.7,381.8,167.3,381.8z M134.1,439.4c1.1-8.6,1.8-17.3,2.1-26c9.7,1.5,19.4,2.4,29.1,2.7c0,7.9,0.5,15.9,1.2,23.8
	C155.7,440,144.9,439.8,134.1,439.4z M169.3,439.9c-0.8-7.9-1.2-15.8-1.3-23.7c10.3,0.2,20.6-0.4,30.9-1.6c-0.1,8.2,0.3,16.4,1,24.6
	C189.7,439.6,179.5,439.9,169.3,439.9z"/>
</svg>
