<?xml version="1.0" encoding="utf-8"?>
<!-- Generator: Adobe Illustrator 23.0.1, SVG Export Plug-In . SVG Version: 6.00 Build 0)  -->
<svg version="1.1" id="Layer_4" xmlns="http://www.w3.org/2000/svg" xmlns:xlink="http://www.w3.org/1999/xlink" x="0px" y="0px"
	 viewBox="0 0 566.9 566.9" style="enable-background:new 0 0 566.9 566.9;" xml:space="preserve">
<path d="M181.3,352.4c-6.5,4.4-14.1,6-21.7,7.6c-8.5,1.8-17,3.2-25.6,4.3c-16.9,2.2-33.9,3.3-50.9,4.3c-0.4,0-0.7,0.2-1,0.4
	c-46.4,5.3-84.6,35.2-118.4,65.5c-2.6,2.3-1,12.9,2.8,9.5C1.2,413,40.7,382.4,89,379.4c0.2,0,0.5-0.1,0.7-0.2
	c15.5-1,31-2.1,46.4-4.2c8.6-1.1,17.1-2.6,25.6-4.4c7.4-1.6,14.9-3.3,21.2-7.6C185.9,360.9,184.5,350.2,181.3,352.4z"/>
<path d="M619.4,440.6c-33.8-30.3-72-60.2-118.4-65.5c-0.3-0.2-0.7-0.3-1-0.4c-17-1.1-34-2.2-50.9-4.3c-8.3-1.1-16.5-2.4-24.7-4.1
	c-7.9-1.6-15.8-3.3-22.6-7.8c-3.2-2.1-4.6,8.5-1.5,10.6c6.4,4.3,13.8,6,21.2,7.6c8.5,1.9,17,3.3,25.6,4.4
	c15.4,2.1,30.9,3.2,46.4,4.2c0.2,0.1,0.4,0.1,0.7,0.2c48.3,3,87.8,33.6,122.4,64.6C620.4,453.5,622,443,619.4,440.6z"/>
<g>
	<path d="M461.4,77c0-0.6-0.1-1.4-0.2-2.2c0.8-21.2-1.7-43.2-16.8-59.3c-3.4-3.6-5.2,6.9-2.8,9.5c15.7,16.8,15.2,40.2,13.2,61.7
		c-0.1,1.3-0.2,4,0.7,5.6c-3.9,59.4-35,116.9-83.6,151.6c-3,2.2-1.6,12.8,1.5,10.6c42.7-30.4,72.3-77.9,83.3-129
		C460.1,109.6,461.7,93.3,461.4,77z"/>
	<path d="M264.9,266.4c-31.1-8-58.8-27.8-78.5-52.9c-21.3-27.2-32.7-61.3-37.2-95.2c-2.3-17.2-2.7-35.2,2.3-51.9
		c0.6-0.8,0.9-2.1,1.1-3.2c0-0.1,0.1-0.2,0.1-0.3c0.4-1,0.4-2.3,0.2-3.5c0.8-9.1,3.9-17.7,8.8-25.6c0.3-0.5,0.5-1.2,0.6-2
		c1-0.8,1.5-2.7,1.7-3.7c0.6-3.5,2.9-6.7,5.7-8.8c2-1.5,2.2-4.5,1.9-6.8c-0.2-1.1-1.4-5.3-3.4-3.8c-5.4,4-8.4,9.7-9.5,16.2
		c-0.3,0.2-0.6,0.6-0.9,1.1c-6.2,10.1-9.6,21.3-10.4,33.1c-5.4,16.4-5.9,34-4.6,51.1c1.4,19.1,5.5,38.2,11.4,56.3
		c8.4,25.6,21.6,49.1,39.9,68.4c0.1,1.1,0.4,2.2,0.8,3.1c3.7,8.4,5.4,17.5,4.7,26.7c-0.1,1.7-0.3,6.1,1.9,6.8
		c2.2,0.7,3.3-2.1,3.4-3.8c0.6-8.1,0.1-16.1-1.7-23.8c2.5,2.2,5,4.4,7.6,6.4c16.1,12.7,34.3,22.1,54.2,27.3
		C268.1,278.2,268.9,267.4,264.9,266.4z"/>
	<path d="M353,189.7c-30.9,10.4-64.9,17-96.7,6.9c-4.1-1.3-4.8,9.5-1.5,10.6c33,10.4,67.6,3.8,99.6-6.9
		C357.8,199.2,357.2,188.4,353,189.7z"/>
	<path d="M284.9,157.3c12.1-6.1,31.2-9.2,42.6,0.1c1.9,1.6,3.2-2.8,3.4-3.8c0.4-2.3,0-5.2-1.9-6.8c-12.2-9.9-32.6-6.6-45.6-0.1
		C280.2,148.3,281.3,159.1,284.9,157.3z"/>
	<path d="M232.9,81.9c13.7,0.4,27.3-2.1,40-7.1c3.3-1.3,2.5-12.1-1.5-10.6c-11.8,4.5-24.2,6.8-36.8,6.7c-11.4-0.1-26.2-1.2-35.2-9.1
		c-3.8-3.3-5.4,7.2-2.8,9.5C206.3,79.7,220.6,81.5,232.9,81.9z"/>
	<path d="M376.4,81.9c13.7,0.4,27.3-2.1,40-7.1c3.3-1.3,2.5-12.1-1.5-10.6c-11.8,4.5-24.2,6.8-36.8,6.7c-11.4-0.1-26.2-1.2-35.2-9.1
		c-3.8-3.3-5.4,7.2-2.8,9.5C349.8,79.7,364.1,81.5,376.4,81.9z"/>
</g>
<g>
	<path d="M439.4,521.4c-9.1-9-12.9-20.6-15.7-32c-3.4-13.7-6.4-27.4-9.5-41.1c-3.9-17.6-10.5-61.5-13.4-79.2c9.1,0,19,0.6,26.7-4.2
		c9.5-5.9,8.5-18.1,6.8-27.8c-1.1-6.4-2.6-52.2-5.7-58c0.1-2.2-0.6-4.5-2.2-5.2c-0.5-0.2-1-0.4-1.5-0.5c-0.1-0.1-12-0.9-16.3-1
		c-2.1,0-8.1-0.1-10.1-0.1c-0.1-0.2-4.5-14.2-11.1-19.8s-23.1-9.6-32.7-9.9c-11.7-0.4-23.4-0.3-35.1-0.1c-8.2,0.2-16.9-0.2-24.7,2.4
		c-6.5,2.1-13.7,4.6-19.2,8.3c-6.5,4.3-17.4,10.1-19.4,17c-20.2-1.4-33.7-5.7-53.8-7.3c-11.5-0.9-23.2-1.2-34.7-0.9
		c-1.5,0-2.5,1.4-2.9,3.1c-4.3,12.8-6.1,65.7-5.2,79c0.9,13.1,23.6,19.2,27.1,19.8c7.8,1.4,64.3,7.6,72.1,8.8
		c6.7,1.1,13.4,1.8,20.2,2c1,19.1-1.6,67.1-2.8,86.1c-0.6,10.2,8.5,7.1,10.8,6.8c3.1-0.4,6.1-0.7,9.2-0.7c6.2-0.1,12.4,0.4,18.4,1.8
		c0.1,3.3,0,56.1-0.2,59.4c-0.6,1.4-0.6,3.2-0.3,4.8c-0.4,9-0.6,17.9,3,26.5c0.7,1.6,2.2,3.4,4.1,1.8c1.8-1.5,1.8-5.1,1.1-6.9
		c-2.6-6.1-2.7-12.4-2.4-18.8c5.7-1.3,11.5-2.6,17.3-3.8c1.3,9.8,2.2,20.3,8.4,28.8c1.3,1.7,3,1.9,4.2,0c1.2-1.9,1.4-5.3,0-7.2
		c-4.9-6.7-5.8-14.9-6.7-22.8c7.2-1.4,14.4-2.7,21.6-3.8c1.5,10.6,2.5,20.9,7.1,31c0.9,2,3.2,1.6,4.2,0c1.4-2.2,1-5,0-7.2
		c-3.6-7.9-4.3-16.4-5.3-24.8c1.1-0.2,2.2-0.3,3.3-0.5c5.4-0.8,10.9-1.6,16.4-2.2c-0.1,0.9,0,1.8,0.1,2.4c1.5,9.1,1.6,18.3,6.1,26.9
		c1,1.9,3.2,1.7,4.2,0c1.3-2.1,1.1-5.1,0-7.2c-3.6-7-3.3-15-4.5-22.4c0-0.1,0-0.2,0-0.2c2-0.2,4-0.3,6-0.4c2.5-0.1,4.9-0.3,7.4-0.4
		c0,0.3,0.1,0.6,0.1,0.8c1.3,7.7,3.8,15.2,7.7,22.2c1.1,1.9,3.1,1.7,4.2,0c1.3-2,1.1-5.1,0-7.2c-2.9-5.2-4.8-10.8-5.9-16.5
		c3.9-0.5,7.8-1.3,11.5-2.7c2.4,4.2,5.3,8.1,8.9,11.7c1.8,1.8,3.6-0.4,4.1-1.8C441.2,526.3,441.1,523.2,439.4,521.4z M415.5,282.6
		c2.3,0,4.8,0,7,0.4c3.9,5.4,5.5,47.7,6.6,55.9c0.4,3.4,1.5,7.1,1,10.6c-0.4,3.1-3.4,5.3-6.5,6.8c-7.4,3.5-16.3,2.6-24.5,2.7
		c-1.2-7.7-2.3-15.4-3.3-23.1c-1.7-13.3,0-40.1-1.2-53.5c4.3,0.1,8.7,0.1,13,0.2C410.3,282.6,412.9,282.6,415.5,282.6z M201.4,355.6
		c-6.8-0.5-26.8-3.6-31.3-7.4c-4.6-3.9-4.4-63.9-0.6-76.1c20-0.4,39.9,1,59.5,4.2c10.2,1.7,20.2,3.4,30.5,4.1
		c9.1,0.7,18.3,1.1,27.4,1.6c9.6,0.5,19.2,1.1,28.9,1.6c0,1.6,0,3.3-0.1,4.9c0,1.5-0.1,42.6-0.2,44.1c-0.1,1.7,0.1-3.3-0.1,0.8
		c0,0.1,0,0.1,0,0.2c-0.1,3.6-0.1,7.1-0.1,10.7c-0.2,15.7-0.4,2.5-0.7,18.2c-15.1,1.2-30.4,3-45.6,1.4
		C253.8,362.5,209,356.2,201.4,355.6z M281,272.2c0-3.3,8-5.6,8.9-5.9c4.3-1.5,12.2-0.2,14.3,0.1c2.1,0.3,8.6,2.4,8.6,7
		C305.6,275.3,281,275.6,281,272.2z M298.4,456.8c-3.1,0-6.2,0.1-9.3,0.5c-1.4,0.2-5.7,1.8-6.8,0.7c-1.1-1.1,3.6-65.1,2.6-83.2
		c0.3,0,0.5,0,0.8,0c9.5-0.3,19-1.3,28.4-2c-0.4,19.1-2,77.6-0.7,85.6C308.6,457.4,303.6,456.8,298.4,456.8z M400.3,512.1
		c-9.5,0.6-19,2-28.4,3.4c-17.3,2.6-34.3,5.9-51.2,9.8c0.2-5.2-0.6-64.9-0.6-64.9s-0.4-68.8,0.1-89.5c0.4-18.4,0.8-7.8,1-26.2
		c0-3.6,0.4-7.4,0.1-11.1c0,0,0,0,0,0c0-0.2,0-0.3,0-0.5c0.1-1.7,0.2-42.9,0.3-44.5c0.2-5.4,0.2-11-1.3-16.3c-0.7-2.6-2.2-4.9-4-7.1
		c-1.7-2.1-4.6-3.5-7.4-4.5c-5.3-2-11.6-2.1-16.8-0.4c-5,1.7-12.1,5.7-15.6,10.9c-1.8,0.9-3.9,0.3-5.7,0.3
		c-7.7,0,19.1-14.6,24.5-16.4c6.9-2.4,14.8-2.2,22.5-2.3c11.1-0.3,22.1-0.3,33.2-0.1c8.5,0.2,16.2,0.9,24.3,3.3
		c6.2,1.9,10.1,7.2,12.7,17.5c2.6,10.3,1.9,76.2,11.1,130.2c5,29.4,11.5,58.5,18.5,87.6c1.5,6.1,3.2,12.3,5.5,18.2
		C415.8,511.6,408,511.6,400.3,512.1z"/>
</g>
</svg>
