<?xml version="1.0" encoding="utf-8"?>
<!-- Generator: Adobe Illustrator 15.1.0, SVG Export Plug-In . SVG Version: 6.00 Build 0)  -->
<!DOCTYPE svg PUBLIC "-//W3C//DTD SVG 1.1//EN" "http://www.w3.org/Graphics/SVG/1.1/DTD/svg11.dtd">
<svg version="1.1" id="Layer_3" xmlns="http://www.w3.org/2000/svg" xmlns:xlink="http://www.w3.org/1999/xlink" x="0px" y="0px"
	 width="566.93px" height="566.93px" viewBox="0 0 566.93 566.93" enable-background="new 0 0 566.93 566.93" xml:space="preserve">
<path d="M-7.648,226.56c3.624-0.925,7.529-1.125,11.233-1.461c15.41-1.396,30.929-1.722,46.393-1.936
	c91.005-1.256,181.991,4.625,272.833,9.109c71.025,3.506,142.649,7.428,213.783,4.522c8.322-0.34,16.682-0.761,24.947-1.839
	c1.901-0.248,3.981-0.415,5.811-1.049c0.645-0.224-0.191-2.594-0.844-2.368c-2.968,1.03-6.443,1.16-9.528,1.483
	c-14.171,1.482-28.489,1.764-42.724,1.983c-89.477,1.377-178.975-4.656-268.287-9.05c-73.07-3.596-146.64-7.294-219.817-4.6
	c-11.206,0.413-23.659,0.034-34.644,2.838C-9.11,224.35-8.355,226.74-7.648,226.56L-7.648,226.56z"/>
<path d="M144.286,184.982c1.382-1.313,7.77-8.53,8.8-8.199c4.354,1.397,8.709,2.794,13.063,4.191
	c0.221,0.033,0.389-0.046,0.505-0.236c3.145-3.54,6.289-7.079,9.434-10.618c0.982-1.105,1.173-0.793,0.454-1.179
	c0.95,0.509,1.899,1.018,2.849,1.526c2.126,1.14,4.253,2.279,6.38,3.418c1.722,0.923,0.278-3.852-0.944-4.507
	c-3.111-1.667-6.222-3.333-9.333-5c-0.345-0.185-0.581-0.188-0.842,0.105c-3.472,3.908-6.944,7.815-10.416,11.723
	c0.01-0.012,0.134-0.053-0.87-0.375c-1.537-0.493-3.075-0.987-4.612-1.48c-2.532-0.813-5.064-1.625-7.597-2.438
	c-0.098,0.012-0.195,0.023-0.292,0.034c-2.927,2.778-5.854,5.556-8.78,8.333C140.83,181.471,143.479,185.748,144.286,184.982
	L144.286,184.982z"/>
<path d="M167.421,177.73c-0.112,0.349,0.245-0.176-0.075,0.04c-0.209,0.141-0.478,0.128-0.72,0.126
	c-0.231-0.002-0.413-0.091-0.616-0.193c-0.161-0.11-0.205-0.137-0.134-0.08c-0.391-0.366,0.188,0.479,0.21,0.665
	c0.021,0.461,0.042,0.923,0.063,1.384c-0.034,0.298-0.113,0.582-0.238,0.849c-0.083,0.091-0.053,0.078,0.091-0.038
	c0.21-0.142,0.479-0.129,0.72-0.126c0.231,0.002,0.413,0.091,0.616,0.193c0.161,0.11,0.206,0.137,0.134,0.08
	c0.391,0.366-0.188-0.48-0.211-0.665c-0.021-0.461-0.042-0.923-0.063-1.384c0.021-0.105,0.041-0.21,0.062-0.315
	c-0.188,1.122-0.203,2.615,0.587,3.542c0.757,0.889,1.456-0.288,1.577-1.007c0.316-1.89,0.07-4.411-1.855-5.384
	c-1.403-0.709-3.013,0.045-3.484,1.502c-0.631,1.954-0.356,4.882,1.695,5.918c1.402,0.708,3.014-0.044,3.483-1.501
	c0.376-1.169,0.404-2.561-0.168-3.681C168.651,176.786,167.749,176.712,167.421,177.73z"/>
<path d="M121.819,118.143c1.943-0.981,3.886-1.962,5.829-2.942c1.248-0.63,2.495-1.259,3.742-1.889
	c1.084-0.547,0.912-0.51,0.875-0.535c3.768,2.591,7.536,5.182,11.305,7.772c0.196,0.137,0.406,0.169,0.629,0.097
	c4.03-2.485,8.06-4.969,12.09-7.454c1.345-0.829,1.452-0.399,0.617-1.231c0.763,0.76,1.526,1.521,2.289,2.281
	c1.709,1.703,3.418,3.406,5.127,5.109c1.902,1.896,0.71-3.029-0.216-3.952c-2.5-2.492-5-4.983-7.5-7.474
	c-0.191-0.191-0.679-0.567-0.994-0.374c-4.449,2.744-8.899,5.487-13.349,8.23c-0.079,0.048,0.439,0.315-0.647-0.432
	c-1.33-0.915-2.661-1.83-3.991-2.744c-2.191-1.507-4.383-3.014-6.574-4.52c-0.196-0.137-0.406-0.169-0.629-0.097
	c-3.602,1.818-7.204,3.637-10.807,5.455C118.255,114.13,120.509,118.804,121.819,118.143L121.819,118.143z"/>
<path d="M145.001,117.843c-0.105,0.145-0.112,0.162-0.021,0.049c-0.08,0.059-0.165,0.107-0.256,0.146
	c-0.081,0.04-0.473-0.002-0.635-0.025c-0.052-0.047-0.115-0.077-0.188-0.089c0.027,0.012-0.422-0.277-0.28-0.149
	c-0.078-0.076-0.149-0.157-0.214-0.244c0.515,0.64,0.38,2.182,0.19,2.72c-0.022,0.097-0.068,0.178-0.138,0.245
	c0.024-0.021,0.3-0.141,0.238-0.126c0.209-0.051,0.473-0.043,0.673,0.022c0.271,0.089,0.44,0.212,0.561,0.34
	c0.132,0.169,0.134,0.167,0.005-0.007c-0.072-0.24-0.145-0.479-0.217-0.719c0.365-1.85,0.384-2.432,0.059-1.746
	c-0.519,1.031-0.341,2.684,0.168,3.681c0.162,0.317,0.456,0.743,0.872,0.724c0.439-0.02,0.638-0.474,0.802-0.8
	c0.858-1.704,0.526-4.602-0.937-5.914c-1.084-0.972-2.742-1.17-3.645,0.153c-1.16,1.698-0.803,4.749,0.592,6.219
	c1.042,1.098,2.848,1.31,3.77-0.041c0.667-0.979,0.603-2.501,0.262-3.581C146.454,118.039,145.678,116.851,145.001,117.843z"/>
<path d="M215.807,115.594c1.799-1.226,3.598-2.451,5.397-3.676c1.155-0.787,2.31-1.573,3.465-2.359
	c0.934-0.636,0.905-0.676,0.806-0.727c4.073,2.079,8.146,4.158,12.22,6.236c0.196,0.137,0.406,0.169,0.629,0.097
	c3.672-2.988,7.345-5.976,11.018-8.963c1.111-0.904,1.508-0.656,0.492-1.434c0.855,0.655,1.71,1.31,2.566,1.964
	c1.916,1.467,3.832,2.933,5.748,4.399c2.191,1.677,0.856-3.132-0.216-3.952c-2.803-2.145-5.605-4.291-8.408-6.436
	c-0.182-0.14-0.698-0.614-0.994-0.374c-4.055,3.299-8.11,6.598-12.165,9.896c-0.137,0.111,0.525,0.366-0.705-0.262
	c-1.438-0.734-2.876-1.468-4.314-2.202c-2.369-1.208-4.738-2.417-7.106-3.626c-0.196-0.137-0.406-0.169-0.629-0.097
	c-3.335,2.271-6.67,4.543-10.005,6.814C212.255,111.812,214.714,116.338,215.807,115.594L215.807,115.594z"/>
<path d="M239.113,112.426c0.135-0.263,0.117-0.166-0.033-0.116c-0.227,0.075-0.475,0.063-0.708,0.044
	c-0.202-0.016-0.401-0.147-0.572-0.247c-0.165-0.099-0.199-0.128-0.104-0.086c-0.035-0.042-0.07-0.085-0.106-0.128
	c0.584,0.752,0.652,1.685,0.204,2.798c-0.09,0.261-0.155,0.178,0.034,0.115c0.227-0.075,0.475-0.063,0.709-0.045
	c0.202,0.016,0.401,0.147,0.572,0.247c0.165,0.099,0.199,0.128,0.104,0.086c0.036,0.042,0.071,0.085,0.106,0.128
	C238.732,114.471,238.664,113.539,239.113,112.426c-0.397,1.153-0.396,2.577,0.168,3.681c0.451,0.883,1.329,0.926,1.674-0.076
	c0.707-2.051,0.408-4.525-1.301-5.967c-0.492-0.415-1.273-0.569-1.897-0.499c-0.909,0.104-1.42,0.769-1.806,1.522
	c-0.564,1.102-0.438,2.742-0.091,3.882c0.266,0.874,0.706,1.503,1.393,2.083c0.492,0.415,1.273,0.569,1.896,0.499
	c0.909-0.103,1.419-0.767,1.805-1.521c0.524-1.024,0.339-2.689-0.168-3.681c-0.162-0.317-0.456-0.743-0.872-0.724
	C239.474,111.645,239.279,112.1,239.113,112.426z"/>
<path d="M417.143,104.23c2.037-0.766,4.074-1.532,6.111-2.298c1.309-0.492,2.616-0.983,3.924-1.475
	c1.486-0.559,0.829-0.407,0.549-0.647c3.468,2.981,6.936,5.962,10.402,8.944c0.24,0.206,0.637,0.544,0.994,0.374
	c4.814-2.294,9.628-4.587,14.442-6.881c-0.455-0.26-0.91-0.52-1.365-0.78c2.218,2.746,4.435,5.492,6.652,8.238
	c2.113,2.617,1.525-1.904,0.527-3.141c-2.218-2.746-4.435-5.492-6.652-8.238c-0.259-0.321-0.854-1.023-1.365-0.78
	c-4.72,2.249-9.438,4.497-14.158,6.746c-0.038,0.018,1.148,0.887-0.219-0.289c-1.224-1.052-2.448-2.105-3.673-3.158
	c-2.017-1.734-4.033-3.467-6.049-5.201c-0.265-0.228-0.613-0.517-0.994-0.374c-3.776,1.42-7.553,2.84-11.33,4.26
	C413.615,100.028,415.674,104.781,417.143,104.23L417.143,104.23z"/>
<path d="M439.721,106.593c0.117-0.104,0.106-0.104-0.03,0.001c-0.193,0.137,0.023,0.031-0.216,0.073
	c-0.219,0.038-0.409,0.008-0.592-0.061c-0.104-0.044-0.205-0.096-0.302-0.157c-0.322-0.184,0.025,0.07-0.204-0.18
	c-0.263-0.286,0.072,0.186,0.104,0.271c0.2,0.548,0.273,1.848-0.116,2.446c-0.117,0.104-0.106,0.104,0.03-0.002
	c0.193-0.137-0.024-0.031,0.215-0.073c0.22-0.039,0.41-0.008,0.593,0.06c0.104,0.044,0.205,0.096,0.301,0.156
	c0.322,0.184-0.024-0.069,0.205,0.18c0.263,0.286-0.072-0.186-0.103-0.271C439.406,108.491,439.332,107.19,439.721,106.593
	c-0.652,1.001-0.608,2.482-0.262,3.581c0.203,0.643,1.001,1.873,1.662,0.86c1.18-1.81,0.89-4.61-0.423-6.274
	c-0.477-0.604-1.146-0.903-1.877-1.045c-0.74-0.144-1.405,0.297-1.857,0.832c-0.666,0.789-0.771,2.164-0.689,3.14
	c0.095,1.146,0.392,2.22,1.112,3.133c0.477,0.604,1.146,0.903,1.877,1.045c0.74,0.145,1.405-0.297,1.857-0.831
	c0.733-0.868,0.573-2.594,0.262-3.581C441.141,106.687,440.467,105.711,439.721,106.593z"/>
<path d="M331.965,31.056c1.829-1.18,3.657-2.36,5.486-3.54c1.174-0.758,2.348-1.515,3.521-2.272c0.964-0.622,0.909-0.643,0.821-0.69
	c4.02,2.179,8.04,4.359,12.06,6.538c0.197,0.137,0.406,0.169,0.63,0.097c3.746-2.896,7.492-5.791,11.239-8.687
	c1.155-0.893,1.501-0.604,0.518-1.396c0.839,0.676,1.678,1.352,2.517,2.027c1.879,1.514,3.757,3.027,5.636,4.541
	c2.142,1.725,0.831-3.109-0.215-3.952c-2.749-2.214-5.497-4.428-8.245-6.642c-0.186-0.149-0.694-0.605-0.994-0.374
	c-4.136,3.197-8.272,6.394-12.409,9.591c-0.127,0.098,0.508,0.358-0.695-0.294c-1.42-0.77-2.839-1.539-4.259-2.309
	c-2.338-1.268-4.675-2.535-7.013-3.802c-0.197-0.137-0.406-0.169-0.63-0.097c-3.39,2.188-6.78,4.375-10.171,6.563
	C328.406,27.231,330.828,31.789,331.965,31.056L331.965,31.056z"/>
<path d="M355.458,28.1c-0.04,0.09-0.092,0.172-0.155,0.248c0.094-0.109,0.071-0.108-0.068,0.001
	c-0.163,0.103-0.397,0.083-0.621,0.074c-0.203-0.007-0.366-0.099-0.544-0.188c-0.15-0.119-0.195-0.142-0.134-0.069
	c-0.268-0.236-0.029,0.094,0.029,0.241c-0.621,2.471-0.647,3.294-0.079,2.468c-0.095,0.108-0.071,0.108,0.068-0.002
	c0.163-0.103,0.397-0.083,0.621-0.075c0.259,0.01,0.485,0.152,0.699,0.285c-0.057-0.072-0.024-0.04,0.096,0.096
	c-0.5-0.529,0.18-3.503-0.133-2.662c-0.421,1.132-0.387,2.596,0.168,3.681c0.162,0.317,0.456,0.743,0.872,0.724
	c0.409-0.019,0.679-0.469,0.802-0.8c0.707-1.9,0.487-4.682-1.261-5.98c-1.086-0.806-2.794-0.751-3.488,0.542
	c-1.023,1.907-0.81,5.023,1.04,6.397c1.086,0.806,2.793,0.752,3.488-0.541c0.583-1.086,0.633-2.407,0.262-3.581
	C356.944,28.399,356.047,27.004,355.458,28.1z"/>
<g>
	<path fill="#FFFFFF" d="M328.965,160.715c1.25-0.25,21,9.5,21,9.5l54,54.016l7.75,15.484l-15.25-8.25l-18.5,15.5l-0.75,16l-20,4.5
		l-10.693-9.486l-24.846-11.559l-15.961-3.705l-5.5-32.75l6.5-21.25L328.965,160.715z"/>
	<path d="M331.254,164.685c0.494,0.011,3.815,1.602,5.096,2.182c3.203,1.452,6.372,2.975,9.539,4.503
		c1.621,0.783,3.24,1.572,4.855,2.368c-2.662-1.312-1.582-1.278-0.237,0.067c7.717,7.719,15.434,15.438,23.15,23.157
		c8.636,8.639,17.271,17.277,25.907,25.915c0.936,0.936,1.871,1.872,2.807,2.808c2.133,2.132-1.588-2.918-0.264-0.272
		c2.419,4.833,4.838,9.665,7.257,14.498c0.507-1.248,1.014-2.496,1.521-3.743c-5.083-2.75-10.166-5.5-15.25-8.25
		c-0.517-0.28-1.438-0.699-2.001-0.227c-5.859,4.909-11.719,9.818-17.578,14.728c-1.985,1.664-1.478,4.175-1.594,6.643
		c-0.176,3.757-0.353,7.515-0.528,11.272c0.331-0.446,0.661-0.892,0.992-1.338c-6.667,1.5-13.334,3-20,4.5
		c0.764,0.331,1.527,0.661,2.291,0.992c-3.564-3.162-7.129-6.324-10.693-9.486c-1.174-1.042-2.998-1.577-4.387-2.223
		c-3.251-1.513-6.503-3.025-9.755-4.538c-3.944-1.835-8.333-4.781-12.604-5.773c-5.224-1.212-10.447-2.425-15.671-3.638
		c1.595,1.892,3.188,3.784,4.782,5.676c-1.391-8.278-2.78-16.557-4.171-24.835c-0.317-1.889-0.635-3.778-0.951-5.667
		c-0.093-0.55-0.186-1.101-0.278-1.652c-0.256-1.528-0.222,1.312-0.038,0.712c1.252-4.093,2.504-8.187,3.756-12.279
		c0.655-2.143,1.311-4.285,1.966-6.427c0.19-0.622,0.381-1.243,0.57-1.864c0.288-0.941-0.452,0.32,0.002-0.251
		c2.232-2.81,4.465-5.619,6.697-8.428c5.118-6.44,10.236-12.881,15.354-19.322c2.023-2.546-4.149-9.452-5.662-7.549
		c-5.309,6.68-10.616,13.36-15.925,20.04c-2.078,2.616-4.157,5.232-6.236,7.848c-1.822,2.294-2.269,6.594-3.107,9.336
		c-1.252,4.093-2.504,8.186-3.756,12.279c-0.684,2.235,0.616,5.81,0.983,7.996c1.482,8.829,2.966,17.657,4.448,26.485
		c0.354,2.106,2.603,5.17,4.782,5.676c3.447,0.8,6.895,1.601,10.342,2.401c1.662,0.386,3.323,0.771,4.984,1.157
		c1.197,0.278-0.234-0.233,0.02-0.115c0.404,0.188,0.809,0.376,1.213,0.564c7.364,3.426,14.729,6.852,22.093,10.278
		c1.271,0.592,1.299,0.74,0.794,0.292c1.456,1.292,2.913,2.584,4.37,3.877c1.366,1.212,6.066,6.897,8.365,6.38
		c6.667-1.5,13.334-3,20-4.5c0.732-0.165,0.958-0.614,0.992-1.338c0.162-3.456,0.324-6.912,0.486-10.368
		c0.078-1.666,0.155-3.331,0.233-4.996c0.063-1.353-0.505,0.578-0.264,0.376c0.382-0.32,0.764-0.64,1.146-0.96
		c5.732-4.803,11.466-9.606,17.198-14.409c-0.667-0.075-1.334-0.151-2.001-0.227c5.083,2.75,10.166,5.5,15.25,8.25
		c3.162,1.711,2.332-2.123,1.521-3.743c-3.698-7.39-6.582-14.818-12.446-20.684c-8.99-8.993-17.981-17.986-26.972-26.979
		c-7.696-7.699-15.393-15.397-23.089-23.096c-2.521-2.521-5.761-3.732-8.947-5.266c-3.164-1.522-6.341-3.021-9.546-4.456
		c-1.929-0.864-4.213-2.248-6.39-2.294C323.973,156.687,328.262,164.621,331.254,164.685z"/>
</g>
<g>
	<polygon fill="#FFFFFF" points="396.715,215.578 419.715,198.215 464.965,237.715 463.715,253.965 447.465,250.215 
		437.465,258.965 408.965,240.715 	"/>
	<path d="M401.338,217.885c7.666-5.788,15.333-11.576,23-17.363c-2.917-0.627-5.833-1.253-8.749-1.88
		c15.083,13.167,30.166,26.333,45.25,39.5c-0.298-0.724-0.596-1.448-0.894-2.172c-0.416,5.417-0.833,10.833-1.25,16.25
		c1.491-0.328,2.981-0.656,4.473-0.983c-5.394-1.245-10.786-2.489-16.18-3.734c-5.309-1.225-10.565,6.022-14.146,9.155
		c2.621,0.387,5.241,0.773,7.861,1.16c-9.244-5.919-18.488-11.839-27.731-17.758c-1.419-0.909,0.041-0.457,0.719,0.935
		c-0.296-0.607-0.592-1.213-0.887-1.82c-1.448-2.972-2.897-5.944-4.346-8.917c-2.332-4.786-4.665-9.572-6.997-14.358
		c-1.388-2.848-11.536-4.837-9.492-0.643c2.333,4.786,4.665,9.572,6.997,14.358c1.765,3.62,3.443,10.123,7.045,12.429
		c9.405,6.023,18.811,12.045,28.216,18.068c1.821,1.166,5.851,2.918,7.861,1.16c3.333-2.917,6.666-5.833,10-8.75
		c-1.359,0.14-2.718,0.281-4.076,0.421c5.417,1.25,10.833,2.5,16.25,3.75c0.831,0.192,4.349,0.623,4.473-0.983
		c0.245-3.194,0.491-6.387,0.736-9.581c0.166-2.157,1.538-7.167-0.396-8.855c-4.054-3.539-8.106-7.077-12.16-10.615
		c-11.024-9.624-22.049-19.248-33.074-28.871c-1.95-1.703-6.293-3.734-8.749-1.88c-7.666,5.788-15.333,11.576-23,17.363
		C389.323,215.363,398.565,219.979,401.338,217.885z"/>
</g>
<g>
	<polygon fill="#FFFFFF" points="434.215,274.34 425.465,254.09 390.965,229.09 373.215,243.09 365.715,260.84 363.715,275.59 
		388.465,279.09 410.215,288.84 	"/>
	<path d="M439.19,272.278c-2.309-5.342-4.617-10.684-6.925-16.025c-1.796-4.156-2.852-5.208-6.496-7.849
		c-10.09-7.312-20.18-14.623-30.27-21.935c-2.188-1.585-6.102,0.193-7.896,1.608c-4.227,3.333-8.452,6.667-12.678,10
		c-3.628,2.861-6.096,4.629-7.9,8.9c-1.348,3.189-2.695,6.378-4.043,9.567c-0.717,1.696-2.073,3.787-2.326,5.652
		c-0.666,4.917-1.333,9.833-2,14.75c-0.183,1.348,1.255,1.644,2.238,1.783c7.307,1.033,14.614,2.067,21.921,3.1
		c0.927,0.131,1.853,0.262,2.778,0.393c-2.066-0.292,1.224,0.813,1.818,1.079c4.182,1.874,8.363,3.749,12.545,5.623
		c2.516,1.128,5.705,3.358,8.599,3.01c3.099-0.374,5.893-2.534,8.496-4.106c6.479-3.915,12.957-7.829,19.436-11.743
		c1.057-0.638,4.131-2.927,2.262-4.365c-1.796-1.381-5.157-0.121-6.807,0.876c-8,4.833-16,9.667-24,14.5
		c2.023-0.412,4.047-0.824,6.07-1.236c-3.625-1.625-7.25-3.25-10.875-4.875c-3.633-1.628-7.867-4.47-11.853-5.034
		c-8.25-1.167-16.5-2.333-24.75-3.5c0.746,0.594,1.492,1.188,2.238,1.783c0.652-4.812,1.305-9.623,1.957-14.435
		c0.024-0.177-0.38,0.832,0.166-0.459c0.442-1.049,0.886-2.099,1.329-3.148c1.354-3.205,2.709-6.41,4.063-9.615
		c0.443-1.049,0.886-2.098,1.329-3.147c0.82-1.94-0.761,0.451-0.864,0.533c1.874-1.479,3.748-2.957,5.623-4.436
		c3.983-3.142,7.966-6.283,11.949-9.425c-2.632,0.536-5.264,1.072-7.896,1.608c9.703,7.031,19.406,14.063,29.109,21.094
		c1.667,1.208,3.335,2.417,5.003,3.625c0.854,0.618-0.265-0.77,0.141,0.167c0.44,1.02,0.881,2.04,1.322,3.06
		c2.411,5.582,4.823,11.163,7.234,16.745C430.686,279.747,440.615,275.577,439.19,272.278z"/>
</g>
<g>
	<path fill="#FFFFFF" d="M243.411,221.315c0,0-14.88,18.375-14.166,18.147c0.715-0.227,6.627,6.813,6.627,6.813l-2.676,16.329
		l20.279,10.34l17.984,0.677l12.818-14.796l21.461-16.409l-4.73-23.942l-10.784-9.162L243.411,221.315z"/>
	<path d="M241.831,220.048c-2.463,3.042-4.913,6.096-7.351,9.159c-2.696,3.386-6.524,7.1-8.232,11.144
		c-0.351,0.832-1.041,2.262-0.214,3.062c1.35,1.307,2.938,2.601,4.268,4.083c0.78,0.87,1.541,1.758,2.297,2.65
		c-0.79-0.931-0.286-1.019-0.554,0.619c-0.799,4.877-1.599,9.754-2.398,14.631c-0.074,0.46,0.046,0.854,0.362,1.182
		c6.744,3.438,13.487,6.876,20.23,10.315c2.732,1.393,8.081,0.502,11.067,0.614c4.767,0.179,8.361,1.271,11.774-2.668
		c2.755-3.18,5.51-6.36,8.265-9.54c1.296-1.496,2.593-2.993,3.889-4.489c1.767-2.04-2.988,2.48,0.043,0.163
		c6.739-5.153,13.478-10.306,20.217-15.458c1.732-1.325,4.211-4.194,3.736-6.595c-1.525-7.721-3.051-15.442-4.576-23.163
		c-0.521-2.642-4.675-4.839-6.585-6.462c-1.828-1.553-3.934-4.557-6.521-3.894c-15.395,3.948-30.79,7.895-46.184,11.843
		c-2.609,0.669-7.589,9.085-3.908,8.142c15.083-3.868,30.167-7.735,45.25-11.603c1.95-0.5,1.091,0.147,0.396-0.442
		c1.291,1.097,2.582,2.193,3.873,3.29c1.81,1.538,3.619,3.075,5.429,4.612c1.365,1.16,1.071,0.519,1.266,1.505
		c1.525,7.721,3.051,15.442,4.577,23.164c1.245-2.199,2.49-4.397,3.736-6.595c-6.86,5.246-13.721,10.491-20.581,15.736
		c-5.977,4.57-10.617,11.639-15.522,17.302c1.411-0.968,2.821-1.935,4.232-2.902c-5.901-0.222-11.802-0.444-17.703-0.666
		c0.155,0.006,0.031,0.071-0.871-0.389c-1.464-0.747-2.929-1.494-4.394-2.24c-3.581-1.826-7.161-3.651-10.742-5.477
		c-1.096-0.559-2.191-1.117-3.287-1.675c-1.334-0.681-0.451,1.293-0.265,0.158c0.593-3.618,1.186-7.236,1.779-10.855
		c0.312-1.898,1.479-4.769,0.099-6.396c-1.807-2.13-5.131-5.295-6.321-6.447c-0.071,1.021-0.143,2.042-0.214,3.062
		c-0.229,0.544-0.814,1.27-0.24,0.497c0.561-0.756,1.14-1.498,1.715-2.242c1.508-1.948,3.043-3.875,4.577-5.802
		c2.236-2.809,4.486-5.608,6.745-8.399c0.708-0.875,3.05-4.084,1.607-5.241C245.149,216.179,242.539,219.173,241.831,220.048z"/>
</g>
<g>
	<polygon fill="#FFFFFF" points="302.965,241.465 289.965,255.965 305.715,284.965 330.965,299.965 360.215,295.465 
		369.715,281.062 351.127,262.065 	"/>
	<path d="M303.249,237.946c-4.333,4.833-8.666,9.667-13,14.5c-1.375,1.534-3.827,5.189-2.629,7.396
		c4.971,9.151,9.94,18.303,14.911,27.454c1.392,2.564,3.792,3.442,6.295,4.929c5.653,3.358,11.307,6.717,16.959,10.075
		c3.145,1.867,3.758,1.93,7.372,1.373c6.549-1.007,13.098-2.015,19.646-3.022c4.272-0.657,6.509-0.446,9.021-4.256
		c2.965-4.495,5.93-8.99,8.895-13.485c0.631-0.956,2.469-4.57,1.341-5.723c-5.229-5.343-10.456-10.686-15.684-16.029
		c-3.296-3.368-5.864-4.434-10.273-6.32c-13.716-5.866-27.431-11.732-41.146-17.598c-2.382-1.019-6.242,7.488-3.984,8.454
		c13.487,5.769,26.976,11.538,40.464,17.307c4.934,2.11,7.106,2.697,10.251,5.91c5.228,5.343,10.455,10.686,15.683,16.029
		c0.447-1.908,0.894-3.816,1.341-5.724c-3.167,4.801-6.333,9.603-9.5,14.403c0.834-0.81,1.668-1.619,2.503-2.429
		c-8.287,1.275-16.574,2.55-24.861,3.825c-1.339,0.206-2.678,0.412-4.017,0.617c-0.713,0.11,0.229,0.17-0.023,0.02
		c-0.499-0.296-0.999-0.593-1.498-0.89c-4.359-2.59-8.718-5.179-13.077-7.769c-3.403-2.021-6.806-4.043-10.208-6.064
		c-0.161-0.096-0.035,0.039-0.596-0.994c-0.926-1.704-1.852-3.408-2.776-5.111c-4.116-7.579-8.232-15.157-12.348-22.736
		c-0.877,2.465-1.753,4.93-2.629,7.396c4.333-4.833,8.666-9.667,13-14.5c1.465-1.635,2.638-3.747,2.817-5.978
		C305.634,237.337,304.486,236.568,303.249,237.946z"/>
</g>
<g>
	<polygon fill="#FFFFFF" points="318.632,307.632 270.632,317.298 219.299,313.965 213.632,303.965 240.119,282.965 245.632,277.62 
		283.465,257.632 298.632,265.632 318.632,303.965 	"/>
	<path d="M315.958,305.314c-8,1.61-16,3.222-24,4.833c-5.62,1.132-11.241,2.264-16.862,3.396c-1.727,0.348-3.454,0.695-5.181,1.043
		c-0.792,0.159-2.924,0.252-1.077,0.372c-17.078-1.108-34.156-2.218-51.233-3.326c1.926,0.858,3.852,1.717,5.778,2.576
		c-1.889-3.334-3.778-6.667-5.667-10c-0.007,0.532-0.014,1.065-0.02,1.598c5.821-4.614,11.641-9.229,17.462-13.844
		c2.854-2.264,5.708-4.526,8.563-6.789c0.676-0.536,1.272-1.151,1.892-1.752c0.885-0.858,1.77-1.716,2.654-2.574
		c0.162-0.157,2.014-1.691,0.871-1.087c12.602-6.658,25.205-13.316,37.807-19.974c-1.74-0.232-3.481-0.464-5.222-0.696
		c4.869,2.568,9.738,5.137,14.607,7.705c1.92,1.012-2.45-2.683-1.564-0.986c0.352,0.675,0.704,1.35,1.057,2.025
		c1.349,2.586,2.698,5.172,4.048,7.759c3.517,6.74,7.033,13.48,10.55,20.22c1.16,2.225,2.321,4.449,3.481,6.674
		c0.854,1.637,0.348,1.907,0.348,4.313c0,2.586,8.766,4.912,8.766,1.668c0-4.624-1.902-7.333-4.05-11.45
		c-3.643-6.98-7.284-13.96-10.926-20.94c-1.971-3.776-3.681-9.798-7.665-11.9c-5.034-2.655-10.067-5.31-15.102-7.965
		c-4.72-2.49-9.054,1.26-13.095,3.395c-6.91,3.651-13.82,7.302-20.73,10.952c-3.409,1.801-7.935,3.337-10.741,6.059
		c-3.504,3.397-7.014,6.383-10.836,9.413c-6.768,5.365-13.535,10.731-20.303,16.097c-0.584,0.464-0.313,1.08-0.02,1.598
		c2.302,4.063,4.314,10.604,9.152,12.135c3.289,1.041,7.296,0.767,10.687,0.986c12.857,0.835,25.714,1.67,38.571,2.505
		c7.439,0.482,14.379-1.551,21.686-3.022c10.555-2.125,21.108-4.25,31.663-6.376C326.2,308.965,318.453,304.811,315.958,305.314z"/>
</g>
<g>
	<polygon fill="#FFFFFF" points="157.299,281.132 129.299,289.298 117.965,304.465 118.799,311.132 182.632,313.298 
		225.132,313.298 229.299,297.215 247.965,273.62 259.632,249.798 244.605,241.465 224.965,238.965 202.299,243.298 
		187.965,264.632 167.299,279.465 	"/>
	<path d="M153.79,277.892c-9.319,2.718-18.638,5.436-27.958,8.154c-1.554,0.453-2.43,2.277-3.356,3.517
		c-2.036,2.725-4.072,5.449-6.108,8.175c-0.718,0.961-3.413,3.418-3.24,4.799c0.278,2.223,0.556,4.445,0.833,6.667
		c0.351,2.805,4.887,5.095,7.385,5.18c35.49,1.204,70.827,2.166,106.333,2.166c0.518,0,1.958,0.1,2.163-0.689
		c0.736-2.842,1.472-5.683,2.208-8.523c0.525-2.026,0.741-6.021,2.061-7.689c4.454-5.629,8.907-11.258,13.36-16.887
		c3.139-3.968,5.517-7.216,7.724-11.723c3.049-6.226,6.098-12.451,9.147-18.677c0.913-1.864-2.403-3.933-3.604-4.598
		c-4.825-2.675-9.649-5.351-14.474-8.026c-4.813-2.668-11.606-2.463-16.936-3.142c-4.609-0.587-7.852-0.873-12.368-0.009
		c-6.04,1.154-12.079,2.309-18.119,3.463c-1.406,0.269-2.087,1.926-2.818,3.014c-1.96,2.917-3.92,5.834-5.88,8.752
		c-1.891,2.814-3.781,5.628-5.671,8.442c-0.397,0.591-0.794,1.183-1.192,1.774c0.64-0.953-0.442,0.221-0.882,0.537
		c-5.519,3.96-11.038,7.921-16.556,11.882c-0.815,0.585-1.63,1.17-2.445,1.755c-0.417,0.299-0.478,0.167,0.279,0.041
		c-0.483,0.081-0.967,0.161-1.45,0.242C159.415,276.955,156.602,277.424,153.79,277.892c-4.214,0.703,4.052,6.973,7.018,6.479
		c3.87-0.645,8.798-0.502,12.056-2.84c5.324-3.821,10.647-7.641,15.97-11.462c7.861-5.642,12.416-15.637,17.754-23.583
		c0.823-1.225-0.528,0.003-0.567,0.01c0.933-0.178,1.865-0.356,2.798-0.535c3.578-0.684,7.156-1.368,10.734-2.052
		c2.7-0.516,5.401-1.032,8.101-1.548c1.685-0.322-0.815-0.231,0.41-0.075c1.23,0.157,2.461,0.313,3.692,0.47
		c3.436,0.438,6.871,0.875,10.306,1.312c1.379,0.176,2.759,0.351,4.138,0.527c3.16,0.402-4.399-2.035-2.147-0.786
		c4.824,2.675,9.649,5.351,14.473,8.026c-1.201-1.533-2.402-3.065-3.604-4.598c-5.024,10.258-9.233,20.746-16.327,29.713
		c-4.593,5.806-9.186,11.611-13.778,17.416c-1.264,1.599-1.439,4.963-1.938,6.89c-0.819,3.16-1.638,6.321-2.457,9.481
		c0.721-0.229,1.442-0.46,2.163-0.689c-35.507,0-70.844-0.962-106.333-2.166c2.461,1.727,4.923,3.453,7.385,5.18
		c-0.271-2.171-0.542-4.342-0.814-6.512c0.089,0.712,0.314-0.139,0.749-0.72c0.74-0.99,1.479-1.979,2.219-2.97
		c1.875-2.508,3.749-5.017,5.623-7.524c0.67-0.896,1.34-1.793,2.01-2.689c1.157-1.549-0.98-0.001-0.242-0.217
		c9.209-2.686,18.418-5.371,27.627-8.058C165.105,283.118,156.665,277.054,153.79,277.892z"/>
</g>
<g>
	<polygon fill="#FFFFFF" points="533.715,304.215 515.715,285.465 497.965,277.84 483.965,258.965 471.312,249.465 456.965,256.465 
		439.465,245.215 432.715,260.715 411.715,277.715 418.215,301.965 426.74,312.215 	"/>
	<path d="M537.759,303.716c-5.49-5.719-10.979-11.437-16.469-17.155c-5.14-5.354-13.737-7.491-20.433-10.367
		c-0.574-0.247-1.149-0.493-1.724-0.74c-1.57-0.674,3.84,3.188,2.6,1.516c-0.949-1.28-1.898-2.559-2.848-3.838
		c-3.037-4.095-6.073-8.189-9.11-12.283c-3.91-5.271-10.036-8.722-15.245-12.633c-1.656-1.243-4.819-2.557-6.888-1.547
		c-4.782,2.333-9.564,4.667-14.347,7c1.945,0.29,3.892,0.58,5.837,0.87c-5.833-3.75-11.667-7.5-17.5-11.25
		c-1.527-0.981-5.937-2.206-6.959,0.143c-1.508,3.462-3.016,6.923-4.522,10.385c-0.705,1.618-1.409,3.236-2.114,4.854
		c-0.267,0.613,0.72-0.674-0.017-0.078c-0.589,0.476-1.177,0.953-1.766,1.429c-6.305,5.104-12.609,10.208-18.913,15.311
		c-0.393,0.356-0.558,0.798-0.493,1.324c1.579,5.893,3.158,11.785,4.738,17.678c0.582,2.175,1.165,4.349,1.748,6.523
		c0.657,2.452,3.538,4.855,5.099,6.731c3.424,4.118,6.019,8.023,12.003,7.576c3.777-0.282,7.555-0.564,11.332-0.848
		c28.888-2.16,57.774-4.32,86.662-6.48c2.672-0.2,5.344-0.399,8.017-0.6C538.589,307.077,539.115,305.215,537.759,303.716
		c-1.648-1.823-4.372-2.703-6.776-2.523c-35.658,2.667-71.316,5.333-106.976,8c2.259,0.841,4.518,1.682,6.776,2.523
		c-2.397-2.883-4.795-5.766-7.192-8.648c-0.424-0.51-0.847-1.019-1.271-1.527c1.064,1.28,0.878,1.92,0.561,0.733
		c-0.445-1.659-0.89-3.318-1.335-4.978c-1.215-4.534-2.431-9.068-3.646-13.603c-0.401-1.497-0.803-2.994-1.204-4.49
		c-0.291-1.087-0.812,1.059-0.463,0.777c0.357-0.29,0.715-0.579,1.072-0.868c6.407-5.187,12.814-10.374,19.222-15.561
		c1.726-1.397,2.354-4.211,3.206-6.167c1.508-3.461,3.016-6.923,4.522-10.385c-2.319,0.048-4.64,0.095-6.959,0.143
		c5.768,3.708,11.536,7.416,17.304,11.124c3.644,2.342,6.435,0.801,9.753-0.818c3.542-1.728,7.085-3.457,10.627-5.185
		c-2.296-0.516-4.592-1.032-6.888-1.547c3.124,2.346,6.248,4.691,9.373,7.037c0.78,0.586,1.562,1.173,2.343,1.759
		c0.667,0.5,1.134,1.33,0.145-0.004c0.719,0.969,1.438,1.938,2.155,2.906c2.897,3.905,5.794,7.811,8.69,11.716
		c1.992,2.686,3.287,4.933,6.48,6.305c3.928,1.688,7.856,3.375,11.784,5.062c1.731,0.744,3.462,1.487,5.193,2.231
		c1.493,0.641-4.291-3.54-1.438-0.568c5.617,5.852,11.235,11.703,16.853,17.555c1.66,1.729,4.37,2.82,6.776,2.523
		C538.485,306.986,539.235,305.253,537.759,303.716z"/>
</g>
<g>
	<polygon fill="#FFFFFF" points="290.965,317.298 386.465,313.298 424.965,312.215 409.215,278.715 376.965,278.715 
		355.465,282.715 320.205,293.573 	"/>
	<path d="M289.898,319.999c44.62-1.869,89.224-3.824,133.866-5.079c0.044-0.002,0.089-0.003,0.134-0.004
		c1.857-0.053,7.363-0.897,5.919-3.97c-5.25-11.166-10.5-22.333-15.75-33.5c-0.54-1.149-2.734-1.433-3.784-1.433
		c-10.75,0-21.5,0-32.25,0c-6.371,0-13.262,2.274-19.493,3.433c-3.799,0.707-7.261,1.66-10.961,2.799
		c-7.345,2.262-14.689,4.524-22.035,6.786c-3.477,1.07-7.514,1.747-10.384,4.076c-9.342,7.58-18.684,15.159-28.025,22.739
		c-4.586,3.721,5.028,5.038,7.662,2.9c9.095-7.379,18.189-14.758,27.284-22.137c0.573-0.466,1.147-0.932,1.722-1.397
		c1.104-0.896-3.206,1.136-1.431,0.59c2.159-0.665,4.317-1.33,6.477-1.995c7.093-2.184,14.186-4.368,21.279-6.553
		c9.32-2.87,18.84-4.357,28.432-6.142c-5.664,1.054,0.477,0.302,2.194,0.302c3.592,0,7.184,0,10.776,0c5.539,0,11.078,0,16.618,0
		c-1.262-0.478-2.522-0.955-3.784-1.433c5.25,11.167,10.5,22.333,15.75,33.5c1.973-1.323,3.946-2.646,5.919-3.97
		c-44.668,1.257-89.298,3.211-133.945,5.081c-0.019,0.001-0.036,0.002-0.055,0.002c-1.937,0.081-5.221,0.386-6.08,2.566
		C285.131,319.245,288.532,320.056,289.898,319.999z"/>
</g>
<path d="M580.281,380.622c-0.329,2.878-1.671,6.036-3.461,9.381c-4.462,8.335-11.671,14.768-19.613,19.716
	c-14.748,9.19-32.336,12.986-49.396,14.863c-27.9,3.071-56.076-0.359-84.08,1.462c-40.475,2.632-82.682,11.402-118.147,31.889
	c-5.204,3.006-10.226,6.353-14.912,10.118c-4.155,3.339-7.564,7.419-11.632,10.844c-14.431,12.15-34.189,16.601-52.508,18.286
	c-20.613,1.898-41.637-0.15-61.883-4.141c-18.752-3.696-36.679-10.528-54.588-17.029c-16.614-6.03-33.394-11.563-51.035-13.547
	c-19.86-2.233-39.439,1.729-57.597,9.799c-2.871,1.276,2.297,9.977,5.647,8.488c24.846-11.042,50.488-12.234,76.641-5.496
	c24.256,6.25,47.087,17.014,71.272,23.556c25.708,6.953,53.536,9.777,80.054,6.859c17.731-1.95,36.427-7.158,50.311-18.848
	c4.003-3.37,7.354-7.38,11.449-10.671c4.742-3.811,9.89-7.108,15.151-10.147c15.218-8.791,31.867-15.063,48.736-19.845
	c23.568-6.679,47.988-10.133,72.414-11.512c27.705-1.563,55.479,1.808,83.083-1.628c21.485-2.673,45.058-9.339,60.158-25.85
	c5.049-5.519,10.002-12.925,10.878-20.593C587.577,383.485,580.784,376.223,580.281,380.622L580.281,380.622z"/>
<path d="M128.066,298.851c-9.313,0.369-18.656,1.335-27.833,2.951c-5.75,1.013-19.438,2.514-20.913,9.941
	c-1.33,6.698,11.635,10.37,15.838,11.616c16.129,4.781,33.816,4.308,50.318,2.215c0.763-0.097,1.511-2.325,0.751-2.229
	c-15.172,1.925-30.709,2.202-45.72-1.069c-5.668-1.235-17.44-3.792-19.683-10.313c-2.496-7.255,40.806-10.659,46.49-10.885
	C128.069,301.049,128.875,298.819,128.066,298.851L128.066,298.851z"/>
<path d="M130.874,332.244c0.469,3.517,2.384,6.846,5.013,9.171c7.882,6.972,20.697,1.341,28.53-2.586
	c0.578-0.289,0.291-2.555-0.352-2.232c-8.978,4.5-30.162,11.227-32.329-5.013C131.526,330.005,130.744,331.266,130.874,332.244
	L130.874,332.244z"/>
<path d="M177.798,338.256c6.113,0.637,12.265,0.982,18.406,1.197c10.426,0.364,21.75,0.694,31.81-2.489
	c0.727-0.23,1.251-2.53,0.645-2.338c-9.357,2.961-19.737,2.758-29.443,2.556c-6.834-0.142-13.688-0.538-20.489-1.246
	C177.906,335.851,177.232,338.198,177.798,338.256L177.798,338.256z"/>
<path d="M234.107,323.946c14.744,3.038,29.743,5.081,44.708,6.625c24.865,2.566,51.782,4.351,76.098-2.659
	c0.589-0.17-0.387-2.19-1.156-1.969c-24.235,6.987-51.044,5.08-75.82,2.591c-14.963-1.503-29.97-3.589-44.708-6.625
	C232.607,321.781,233.384,323.797,234.107,323.946L234.107,323.946z"/>
<path d="M446.725,324.054c14.338-0.983,28.658-2.413,42.927-4.123c11.564-1.386,23.112-3.024,34.546-5.258
	c8.273-1.617,16.968-3.372,24.562-7.175c0.483-0.242-0.915-2.141-1.617-1.789c-7.821,3.917-16.838,5.606-25.353,7.27
	c-11.086,2.167-22.299,3.695-33.508,5.056c-14.265,1.73-28.591,3.14-42.928,4.123C444.742,322.199,445.999,324.104,446.725,324.054
	L446.725,324.054z"/>
<path d="M358.651,333.229c24.395-0.123,49.828-1.543,73.469-7.82c0.695-0.185-0.706-2.073-1.371-1.896
	c-23.64,6.277-49.073,7.697-73.469,7.82C356.707,331.335,357.916,333.233,358.651,333.229L358.651,333.229z"/>
<path d="M405.733,337.988c9.764-0.243,19.529-0.933,29.249-1.86c14.291-1.364,29.592-2.909,42.926-8.588
	c1.134-0.482,1.473-2.114-0.115-1.438c-13.676,5.823-29.494,7.124-44.146,8.479c-8.936,0.826-17.919,1.415-26.892,1.639
	C405.915,336.24,404.265,338.024,405.733,337.988L405.733,337.988z"/>
<path d="M410.184,352.889c1.841-0.571,6.06-1.233,8.564-1.694c15.484-2.849,31.035-5.339,46.573-7.872
	c11.564-1.886,24.217-3.008,35.283-7.163c3.503-1.315,6.426-3.684,10.003-4.975c0.983-0.355-1.17-1.441-1.879-1.186
	c-3.586,1.295-6.509,3.602-10.002,4.976c-3.627,1.427-7.588,2.115-11.39,2.889c-9.051,1.841-18.182,3.294-27.295,4.776
	c-14.638,2.381-29.283,4.759-43.867,7.456c-2.601,0.48-5.333,0.822-7.87,1.607C407.329,352.006,409.468,353.11,410.184,352.889
	L410.184,352.889z"/>
<path d="M129.484,459.18c1.826,0.166,3.858,1.253,5.578,1.83c4.569,1.534,9.168,2.972,13.797,4.315
	c14.608,4.241,29.545,7.438,44.667,9.139c32.589,3.665,70.507-0.477,90.251-30.034c0.456-0.683-0.554-2.868-0.959-2.262
	c-20.122,30.122-58.753,33.504-91.746,29.627c-14.415-1.693-28.648-4.887-42.584-8.898c-4.631-1.333-9.227-2.786-13.797-4.315
	c-1.721-0.576-3.751-1.664-5.578-1.831C128.206,456.668,128.722,459.11,129.484,459.18L129.484,459.18z"/>
<path d="M203.546,455.992c20.294,8.149,46.337,6.797,60.393-11.672c0.41-0.539-1.525-1.972-1.946-1.418
	c-13.693,17.99-39.074,19.681-58.941,11.703C201.604,454.025,202.865,455.719,203.546,455.992L203.546,455.992z"/>
<path d="M480.727,413.908c30.091,7.197,67.369,0.149,80.725-30.789c0.304-0.704-1.959-1.678-2.264-0.973
	c-13.026,30.178-49.433,37.532-78.65,30.543C478.917,412.303,479.646,413.65,480.727,413.908L480.727,413.908z"/>
<path d="M505.561,399.483c12.536,3.705,31.609,4.257,36.215-10.963c0.188-0.622-2.082-1.19-2.289-0.506
	c-4.247,14.034-21.319,14.186-33.117,10.699C505.41,398.43,504.025,399.029,505.561,399.483L505.561,399.483z"/>
</svg>
