<?xml version="1.0" encoding="UTF-8" standalone="no"?>
<!DOCTYPE svg PUBLIC "-//W3C//DTD SVG 1.1//EN" "http://www.w3.org/Graphics/SVG/1.1/DTD/svg11.dtd">
<svg width="100%" height="100%" viewBox="0 0 1024 1024" version="1.1" xmlns="http://www.w3.org/2000/svg" xmlns:xlink="http://www.w3.org/1999/xlink" xml:space="preserve" xmlns:serif="http://www.serif.com/" style="fill-rule:evenodd;clip-rule:evenodd;stroke-linejoin:round;stroke-miterlimit:1.41421;">
    <g id="Layer_2">
        <g>
            <path d="M476.523,555.327L325.907,968.407C325.907,968.407 329.514,1002.55 373.095,986.937C416.682,971.324 520.1,572.693 520.1,572.693L476.523,555.327Z" style="fill:rgb(35,31,32);fill-rule:nonzero;"/>
            <path d="M476.642,555.593C473.695,564.195 470.71,572.781 467.704,581.362L458.625,607.301L440.251,659.102L421.622,710.809C415.414,728.045 409.209,745.283 402.884,762.476C396.578,779.677 390.179,796.843 383.729,813.992L364.422,865.452C361.185,874.022 358.004,882.612 354.844,891.21L345.334,916.992C342.141,925.578 339.038,934.196 335.926,942.812L326.585,968.656L326.625,968.332C327.383,973.292 329.534,978.218 332.86,982.015C336.176,985.857 340.802,988.401 345.763,989.403C350.735,990.437 355.937,990.141 360.973,989.196C363.497,988.718 365.995,988.076 368.46,987.312C369.691,986.929 370.915,986.516 372.13,986.079C372.756,985.861 373.3,985.642 373.799,985.38C374.325,985.11 374.839,984.79 375.336,984.437C377.334,983.022 379.1,981.167 380.732,979.214C382.363,977.251 383.863,975.154 385.287,973.003C388.128,968.691 390.673,964.158 393.079,959.553C397.871,950.325 402.172,940.819 406.232,931.211C410.292,921.602 414.098,911.878 417.793,902.112C421.496,892.347 425.056,882.526 428.523,872.671C435.452,852.957 442.014,833.108 448.365,813.192C461.142,773.381 473.178,733.326 485.009,693.207C490.911,673.143 496.676,653.037 502.372,632.912C508.121,612.802 513.762,592.655 519.271,572.481L519.783,573.491L476.642,555.593ZM476.408,555.069L520.417,571.898L521.114,572.165L520.927,572.908C515.853,593.215 510.561,613.459 505.208,633.69C499.79,653.903 494.228,674.078 488.567,694.226C477.252,734.525 465.279,774.646 452.402,814.491C445.909,834.395 439.206,854.235 432.131,873.951C425.047,893.661 417.625,913.267 409.245,932.502C405.036,942.108 400.647,951.654 395.621,960.905C393.103,965.526 390.441,970.083 387.449,974.457C385.948,976.64 384.364,978.778 382.616,980.809C380.863,982.83 378.965,984.778 376.661,986.355C376.085,986.748 375.48,987.112 374.838,987.428C374.173,987.762 373.492,988.011 372.88,988.212C371.628,988.64 370.365,989.041 369.093,989.412C366.549,990.157 363.965,990.782 361.342,991.236C356.111,992.133 350.657,992.377 345.372,991.196C342.741,990.602 340.174,989.64 337.835,988.264C335.493,986.895 333.396,985.117 331.649,983.057C329.896,980.999 328.5,978.667 327.42,976.215C326.347,973.746 325.558,971.208 325.186,968.483L325.165,968.326L325.227,968.159L334.712,942.368C337.876,933.771 341.048,925.179 344.131,916.553L353.448,890.7C356.565,882.087 359.659,873.465 362.698,864.823L381.045,813.012C387.147,795.737 393.299,778.481 399.544,761.257C405.771,744.028 412.117,726.842 418.461,709.655L437.486,658.092L456.767,606.622L466.515,580.927C469.762,572.361 473.029,563.802 476.335,555.258L476.408,555.069Z" style="fill-rule:nonzero;"/>
        </g>
        <path d="M664.4,97.549C658.133,94.594 651.671,92.075 645.035,90.113C638.394,88.182 631.605,86.752 624.741,85.989C611.017,84.426 597.055,85.368 583.719,88.658C577.044,90.28 570.507,92.423 564.167,95.026C557.836,97.656 551.697,100.723 545.772,104.147C533.912,110.992 522.935,119.267 512.745,128.371C502.52,137.452 493.149,147.459 484.362,157.934C479.979,163.183 475.735,168.55 471.675,174.059C467.575,179.538 463.668,185.161 459.874,190.86C444.721,213.679 431.776,237.989 420.883,263.211C415.422,275.818 410.507,288.676 406.194,301.746C401.857,314.808 398.151,328.093 395.155,341.548C389.215,368.437 386.083,396.147 387.789,423.713C388.651,437.472 390.695,451.183 394.367,464.448C398.043,477.691 403.171,490.577 410.34,502.246C413.898,508.087 417.916,513.634 422.375,518.787C426.861,523.917 431.796,528.635 437.109,532.862C442.416,537.096 448.11,540.828 454.094,544.008C460.058,547.183 466.379,549.855 472.761,552.23C485.548,556.939 498.86,560.069 512.303,561.238C519.022,561.829 525.768,561.924 532.475,561.541C539.184,561.183 545.858,560.331 552.433,559.007C565.58,556.335 578.363,551.926 590.424,545.969C602.49,540.024 613.895,532.689 624.502,524.302C635.121,515.924 644.963,506.528 654.075,496.457C663.201,486.393 671.589,475.633 679.282,464.389C694.634,441.868 707.437,417.568 717.696,392.24C727.978,366.917 735.717,340.534 740.595,313.636C741.813,306.911 742.885,300.159 743.719,293.377C744.602,286.6 745.282,279.796 745.731,272.977C746.587,259.34 746.73,245.636 745.683,231.994C744.666,218.358 742.58,204.768 739.03,191.526C737.259,184.906 735.132,178.376 732.617,171.988C730.078,165.611 727.129,159.391 723.779,153.385C717.112,141.357 708.616,130.293 698.561,120.817C693.546,116.067 688.113,111.758 682.405,107.853C676.677,103.967 670.643,100.542 664.4,97.549ZM664.954,96.373C677.594,102.317 689.411,110.065 699.85,119.408C705.081,124.066 709.94,129.146 714.454,134.52C718.941,139.916 723.082,145.614 726.829,151.571C730.573,157.53 733.907,163.752 736.87,170.149C739.859,176.535 742.468,183.107 744.718,189.802C749.211,203.197 752.346,217.056 754.273,231.075C756.168,245.099 756.986,259.281 756.671,273.434C756.534,280.511 756.161,287.583 755.568,294.638C754.929,301.687 754.093,308.718 753.016,315.713C750.864,329.703 747.828,343.546 744.073,357.185C740.342,370.834 735.783,384.25 730.578,397.41C720.086,423.689 706.803,448.928 690.437,472.133C674.099,495.31 654.798,516.671 632.025,534.012C620.649,542.659 608.424,550.306 595.381,556.352C582.352,562.39 568.538,566.936 554.311,569.266C547.207,570.453 540.018,571.127 532.827,571.272C525.635,571.395 518.443,570.978 511.336,570.054C497.114,568.211 483.257,564.312 470.159,558.853C463.615,556.108 457.205,553.091 451.026,549.475C444.876,545.855 439.027,541.728 433.6,537.117C428.171,532.506 423.185,527.395 418.676,521.918C414.144,516.457 410.096,510.614 406.544,504.502C399.47,492.254 394.175,479.069 390.546,465.487C386.907,451.902 384.698,437.986 383.604,424.005C381.465,396.022 383.391,367.833 388.115,340.163C390.485,326.321 393.604,312.6 397.386,299.056C401.196,285.52 405.694,272.166 410.862,259.066C421.25,232.893 434.361,207.725 450.323,184.41C466.273,161.124 485.237,139.684 507.413,122.033C518.503,113.238 530.42,105.447 543.08,99.131C549.41,95.978 555.93,93.209 562.605,90.908C569.27,88.584 576.09,86.709 583.013,85.399C589.936,84.093 596.951,83.327 603.97,83.112C610.991,82.925 618.019,83.278 624.958,84.246C631.895,85.218 638.755,86.707 645.434,88.782C652.121,90.82 658.655,93.367 664.954,96.373Z" style="fill-rule:nonzero;"/>
        <path d="M481.714,560.598C488.218,563.398 494.832,565.903 501.573,567.976C508.315,570.044 515.178,571.658 522.098,572.861C529.022,574.04 536.015,574.738 543.014,574.953C550.015,575.159 557.019,574.829 563.963,574.041C570.908,573.245 577.785,571.917 584.539,570.138C591.3,568.378 597.935,566.14 604.401,563.485C617.334,558.163 629.615,551.292 641.155,543.316C652.725,535.377 663.548,526.297 673.582,516.397C678.602,511.448 683.429,506.294 688.066,500.97C692.68,495.625 697.098,490.104 701.306,484.426C709.699,473.052 717.293,461.084 724.082,448.684C730.904,436.298 736.826,423.435 742.138,410.354C752.62,384.126 760.447,356.883 765.328,329.149C767.75,315.28 769.369,301.277 770.054,287.239C770.726,273.204 770.593,259.131 769.281,245.165C768.058,231.194 765.596,217.345 761.871,203.851C758.129,190.366 752.937,177.261 746.051,165.074C742.594,158.993 738.789,153.102 734.541,147.53C730.297,141.958 725.628,136.701 720.567,131.834C715.495,126.983 710.088,122.458 704.337,118.388C698.584,114.319 692.511,110.686 686.217,107.453L686.432,107.001C692.941,109.839 699.233,113.208 705.238,117.049C711.244,120.887 716.977,125.191 722.289,129.981C732.931,139.538 742.124,150.766 749.435,163.115C756.763,175.459 762.373,188.783 766.501,202.513C770.646,216.251 773.161,230.43 774.592,244.667C777.315,273.2 775.182,301.972 769.958,329.987C764.725,358.029 756.107,385.382 744.664,411.415C738.999,424.461 732.539,437.14 725.567,449.512C718.558,461.864 710.936,473.868 702.616,485.384C698.466,491.148 694.149,496.796 689.64,502.295C685.156,507.813 680.469,513.175 675.571,518.347C665.771,528.682 655.132,538.288 643.558,546.715C631.964,555.096 619.406,562.254 606.067,567.589C599.402,570.26 592.561,572.504 585.592,574.255C578.619,575.986 571.519,577.203 564.371,577.897C557.225,578.606 550.025,578.716 542.869,578.31C535.711,577.917 528.595,576.952 521.599,575.478C514.597,574.032 507.731,572.014 501.033,569.591C494.333,567.171 487.802,564.32 481.5,561.054L481.714,560.598Z" style="fill-rule:nonzero;"/>
        <path d="M416.437,385.276C412.291,401.278 409.439,417.432 407.959,433.722C407.161,441.852 406.56,450.092 407.306,458.291C407.678,462.383 408.313,466.454 409.258,470.45C410.175,474.453 411.483,478.353 412.951,482.162C415.995,489.748 419.956,496.89 424.744,503.382C429.566,509.86 435.392,515.512 441.788,520.404C448.165,525.342 455.22,529.414 462.606,532.858C470.007,536.285 477.756,539.052 485.676,541.447L485.591,541.838C477.374,540.709 469.226,538.732 461.387,535.763C453.542,532.825 446.029,528.833 439.217,523.809C435.843,521.259 432.623,518.482 429.707,515.408C426.787,512.339 424.1,509.052 421.689,505.579C419.273,502.111 417.136,498.453 415.341,494.644C413.532,490.84 412.095,486.881 410.883,482.881C408.467,474.867 407.036,466.661 406.018,458.427C405.04,450.192 404.33,441.849 404.639,433.498C404.801,429.328 405.194,425.166 405.822,421.044C406.132,418.982 406.477,416.927 406.855,414.877C407.248,412.831 407.694,410.795 408.16,408.766C409.109,404.712 410.218,400.696 411.523,396.746C412.824,392.797 414.271,388.892 416.065,385.134L416.437,385.276Z" style="fill-rule:nonzero;"/>
        <path d="M711.102,290.218C716.605,273.596 720.701,256.692 723.31,239.551C724.669,230.999 725.803,222.32 725.541,213.599C725.411,209.247 725.004,204.9 724.27,200.611C723.565,196.317 722.448,192.103 721.152,187.974C718.448,179.742 714.738,171.915 710.096,164.726C705.419,157.548 699.625,151.174 693.169,145.579C686.735,139.938 679.526,135.176 671.927,131.066C664.311,126.973 656.283,123.565 648.054,120.554L648.163,120.169C656.767,121.935 665.24,124.579 673.321,128.242C681.411,131.875 689.083,136.586 695.945,142.34C709.625,153.918 719.394,170.091 723.259,187.384C725.31,196.004 726.304,204.771 726.835,213.543C727.325,222.314 727.494,231.175 726.609,239.978C726.16,244.374 725.471,248.745 724.543,253.061C724.082,255.22 723.584,257.371 723.054,259.512C722.508,261.65 721.907,263.773 721.285,265.888C720.024,270.113 718.599,274.288 716.974,278.382C715.354,282.476 713.584,286.514 711.464,290.38L711.102,290.218Z" style="fill-rule:nonzero;"/>
    </g>
    <g id="Layer_6_copy">
        <path d="M560.862,357.792C559.504,362.772 557.499,367.64 554.671,372.042C553.234,374.23 551.627,376.321 549.819,378.233C548.007,380.139 546.044,381.9 543.987,383.527C541.923,385.144 539.78,386.646 537.628,388.096L531.178,392.351C526.918,395.163 522.882,398.146 519.352,401.508C512.221,408.204 507.625,416.696 504.67,425.839C503.157,430.468 502.012,435.025 501.701,439.417C501.561,441.61 501.567,443.744 501.86,445.77C502.158,447.793 502.661,449.707 503.425,451.485C504.968,455.025 507.521,458.087 510.937,460.608C512.625,461.883 514.509,463.016 516.523,464.025C518.529,465.059 520.656,465.96 522.912,466.794L526.42,468.086C527.557,468.497 528.656,468.871 529.759,469.203C531.956,469.875 534.148,470.402 536.353,470.705C540.752,471.341 545.188,471.149 549.47,469.953C553.75,468.763 557.842,466.553 561.541,463.622C565.26,460.704 568.546,457.062 571.453,453.087C577.307,445.117 581.554,435.812 584.852,426.254L584.942,425.992L585.063,425.799C586.702,423.186 588.359,420.581 590.074,418.007C591.772,415.422 593.507,412.852 595.335,410.333C598.935,405.284 602.998,400.356 607.555,396.031C609.791,393.845 612.034,391.817 614.072,389.644C616.122,387.482 618.042,385.219 619.875,382.86C623.552,378.15 626.805,373.045 629.983,367.89C633.137,362.713 636.152,357.428 639.096,352.094C640.567,349.426 642.02,346.746 643.457,344.056L645.611,340.049C646.157,338.995 646.689,337.745 647.14,336.502C648.052,333.99 648.709,331.347 649.11,328.683C649.539,326.021 649.704,323.323 649.628,320.636C649.503,315.26 648.365,309.926 646.397,304.847C642.441,294.651 635.199,285.655 626.756,277.878C622.514,273.983 617.922,270.393 613.13,267.028L611.331,265.765L609.482,264.5C608.286,263.699 607.055,262.881 605.816,262.092C603.337,260.517 600.843,258.999 598.331,257.555C593.295,254.698 588.14,252.192 582.961,250.326C577.785,248.508 572.542,247.348 567.724,247.506C562.9,247.677 558.66,249.153 555.055,252.124C553.232,253.587 551.599,255.441 550.105,257.554C549.354,258.611 548.65,259.736 547.965,260.941C547.62,261.545 547.283,262.166 546.927,262.835L546.352,263.896C546.136,264.286 545.927,264.679 545.556,265.284L546.127,263.936C544.991,267.129 544.408,270.637 544.33,274.324C544.255,278.012 544.707,281.847 545.411,285.718C546.849,293.477 549.478,301.279 552.162,309.091C554.877,316.902 557.852,324.719 559.978,332.829C561.034,336.881 561.854,341.02 562.15,345.226C562.403,349.423 562.158,353.72 560.868,357.776L560.862,357.792ZM559.528,357.365C560.652,353.498 560.924,349.395 560.463,345.37C560.044,341.334 559.014,337.37 557.708,333.507C555.058,325.773 551.341,318.425 547.618,311.021C543.86,303.622 540.055,296.133 537.196,287.908C535.774,283.796 534.667,279.467 534.128,274.895C533.582,270.337 533.681,265.491 534.81,260.724L536.187,254.902L535.382,259.376C535.393,259.316 535.521,259.021 535.64,258.721L536.051,257.704C536.348,256.986 536.671,256.223 537.015,255.456C537.703,253.919 538.477,252.353 539.357,250.812C541.117,247.73 543.359,244.751 546.115,242.126C548.87,239.507 552.197,237.331 555.783,235.818C559.374,234.301 563.19,233.506 566.903,233.235C574.374,232.707 581.362,234.169 587.764,236.288C594.193,238.412 600.12,241.29 605.752,244.474C608.572,246.06 611.312,247.745 613.979,249.508C615.316,250.384 616.629,251.279 617.968,252.202L619.9,253.559L621.848,254.964C626.994,258.786 631.954,262.936 636.617,267.481C641.271,272.031 645.638,276.987 649.404,282.48C653.175,287.959 656.381,293.962 658.594,300.419C660.816,306.863 661.998,313.767 661.829,320.666C661.738,324.113 661.314,327.547 660.573,330.906C659.803,334.262 658.725,337.533 657.301,340.693C656.578,342.281 655.8,343.812 654.809,345.412C653.952,346.758 653.132,348.022 652.268,349.317C650.561,351.893 648.838,354.46 647.095,357.017C643.608,362.129 640.043,367.2 636.322,372.183C632.614,377.175 628.71,382.054 624.506,386.749C622.397,389.088 620.17,391.354 617.834,393.482C615.499,395.612 613.113,397.613 610.842,399.586C608.58,401.574 606.462,403.638 604.457,405.855C602.471,408.083 600.585,410.428 598.78,412.851C596.99,415.285 595.261,417.779 593.588,420.318C591.933,422.868 590.315,425.45 588.737,428.06L588.948,427.605C585.79,437.49 582.028,447.281 576.594,456.484C573.85,461.06 570.615,465.45 566.678,469.375C562.744,473.28 557.991,476.653 552.566,478.832C549.862,479.925 547.011,480.719 544.109,481.183C541.205,481.633 538.256,481.775 535.351,481.62C532.446,481.456 529.58,481.029 526.817,480.396C525.439,480.077 524.083,479.71 522.779,479.331L520.896,478.774C520.287,478.592 519.629,478.402 518.987,478.192C516.392,477.36 513.736,476.383 511.124,475.181C508.521,473.956 505.952,472.503 503.502,470.743C501.055,468.984 498.762,466.871 496.751,464.44C494.732,462.017 493.076,459.218 491.887,456.254C490.687,453.292 489.97,450.171 489.712,447.097C489.448,444.022 489.547,440.995 489.986,438.094C490.812,432.27 492.754,426.944 494.958,422.029C497.209,417.054 500,412.245 503.434,407.91C506.857,403.571 510.918,399.75 515.317,396.607C524.136,390.22 534.036,386.895 542.434,381.382C546.638,378.647 550.397,375.227 553.274,371.101C556.184,366.993 558.161,362.269 559.524,357.381L559.528,357.365Z" style="fill-rule:nonzero;"/>
        <path d="M590.578,199.972C589.829,203.001 589.147,206.056 588.402,209.279C588.01,210.882 587.607,212.538 587.069,214.197C586.52,215.848 585.865,217.521 585.007,219.145C583.288,222.363 580.676,225.418 576.949,227.348C575.098,228.307 572.989,228.983 570.753,229.205C568.523,229.437 566.178,229.183 564.041,228.448C561.902,227.71 559.957,226.521 558.416,225.057C556.866,223.598 555.673,221.947 554.77,220.262C552.986,216.861 552.171,213.473 551.488,210.223C550.827,206.961 550.382,203.749 550.098,200.474C549.847,197.207 549.65,193.865 549.802,190.449C549.944,187.042 550.422,183.531 551.565,180.144C552.69,176.748 554.494,173.533 556.828,170.541C559.17,167.564 562.113,164.749 566.013,162.749C569.911,160.775 574.831,159.779 579.901,161.12L580.537,161.307C580.879,161.41 581.253,161.527 581.516,161.626C582.092,161.83 582.651,162.076 583.2,162.334C584.3,162.849 585.324,163.484 586.273,164.177C588.169,165.574 589.733,167.236 590.925,169.017C593.317,172.6 594.191,176.568 594.257,180.251C594.317,183.964 593.607,187.428 592.865,190.653L590.579,199.966L590.578,199.972ZM589.216,199.649C589.866,196.692 589.856,193.579 589.092,190.649C588.737,189.184 588.168,187.773 587.518,186.451C586.881,185.127 586.105,183.898 585.297,182.787C583.688,180.556 581.924,178.812 580.42,177.608C579.66,177.009 578.959,176.533 578.282,176.232C577.946,176.078 577.62,175.961 577.304,175.866C577.145,175.822 576.989,175.781 576.831,175.749C576.73,175.719 576.733,175.735 576.706,175.728L576.224,175.624C576.495,175.69 576.29,175.642 576.347,175.656L576.332,175.655L576.302,175.652L576.243,175.645L576.125,175.631C576.046,175.623 575.969,175.608 575.891,175.604C575.735,175.585 575.577,175.583 575.417,175.579C575.1,175.556 574.771,175.588 574.423,175.608C573.731,175.675 572.944,175.824 572.092,176.118C570.378,176.686 568.429,177.825 566.651,179.411C564.861,180.999 563.268,182.994 561.674,185.122C560.094,187.263 558.531,189.605 557.268,192.195C556.026,194.778 555.067,197.588 554.81,200.483C554.52,203.365 554.813,206.329 555.823,208.999C556.814,211.665 558.637,213.988 560.751,215.374C561.8,216.068 562.872,216.556 563.895,216.794C564.916,217.039 565.838,217.1 566.699,217.067C568.405,216.979 569.88,216.668 571.81,216.045C573.697,215.405 575.978,214.507 578.379,213.163C579.585,212.5 580.808,211.722 581.963,210.807C583.128,209.901 584.259,208.878 585.224,207.716C587.202,205.412 588.56,202.612 589.217,199.645L589.216,199.649Z" style="fill-rule:nonzero;"/>
        <path d="M622.406,216.557L622.404,216.565C621.865,218.698 621.488,220.878 621.149,223.275C620.961,224.464 620.786,225.72 620.503,226.997C620.208,228.265 619.834,229.571 619.284,230.854C618.18,233.391 616.3,235.856 613.412,237.401C610.55,238.952 606.72,239.523 603.088,238.157L602.901,238.066C602.833,238.033 602.806,238.015 602.654,237.955C602.411,237.852 602.143,237.738 601.965,237.64C601.566,237.439 601.183,237.215 600.812,236.982C600.083,236.486 599.406,235.952 598.83,235.341C597.664,234.135 596.809,232.804 596.198,231.474C594.996,228.787 594.576,226.254 594.142,223.887C593.73,221.511 593.395,219.222 593.111,216.867C592.859,214.521 592.548,212.097 592.492,209.577C592.424,207.065 592.598,204.429 593.334,201.868C594.053,199.297 595.349,196.861 597.066,194.553C598.793,192.258 601.006,190.033 604.067,188.416C605.598,187.63 607.345,187.001 609.255,186.741C611.156,186.465 613.203,186.566 615.125,187.07C617.047,187.564 618.869,188.469 620.375,189.612C621.887,190.756 623.113,192.098 624.014,193.524C625.824,196.393 626.303,199.507 626.119,202.307C625.929,205.134 625.107,207.675 624.368,209.981C623.598,212.291 622.941,214.412 622.406,216.557ZM621.041,216.239C621.482,214.179 621.357,211.986 620.593,209.977C620.237,208.972 619.697,208.021 619.105,207.156C618.526,206.288 617.839,205.511 617.158,204.843C615.799,203.495 614.429,202.605 613.507,202.115C612.566,201.59 612.057,201.614 611.724,201.641C611.393,201.69 611.054,201.587 610.145,201.783C609.27,201.968 608.051,202.516 606.889,203.42C605.715,204.324 604.629,205.541 603.442,206.843C602.268,208.158 601.01,209.627 599.957,211.32C598.924,213.007 598.078,214.898 597.823,216.872C597.534,218.834 597.717,220.876 598.476,222.66C599.217,224.441 600.647,225.912 602.177,226.583C602.935,226.921 603.669,227.09 604.307,227.075C604.632,227.058 604.903,227.052 605.165,226.984C605.291,226.962 605.409,226.94 605.524,226.903C605.599,226.895 605.593,226.852 605.609,226.826C605.586,226.807 605.69,226.819 605.753,226.82L605.959,226.828C605.749,226.775 605.906,226.811 605.862,226.798L605.872,226.794L605.892,226.787L605.93,226.773L606.004,226.749L606.148,226.697L606.419,226.598C606.595,226.54 606.766,226.472 606.949,226.424C607.313,226.319 607.737,226.217 608.271,226.097C609.319,225.841 610.869,225.533 612.655,224.87C613.552,224.549 614.496,224.136 615.396,223.605C616.306,223.082 617.208,222.46 617.97,221.71C619.54,220.233 620.594,218.309 621.041,216.239Z" style="fill-rule:nonzero;"/>
        <path d="M648.634,234.392L648.631,234.4C648.056,236.074 647.682,237.822 647.374,239.816C647.2,240.802 647.049,241.862 646.797,242.943C646.536,244.015 646.203,245.127 645.71,246.214C644.721,248.361 643.012,250.421 640.415,251.585C639.129,252.166 637.639,252.524 636.066,252.538C634.499,252.559 632.861,252.206 631.433,251.509C631.006,251.362 631.305,251.461 631.205,251.426L631.187,251.414L631.153,251.39L631.084,251.343L630.946,251.247C630.842,251.172 630.819,251.134 630.559,250.989C630.153,250.747 629.714,250.474 629.45,250.244C628.852,249.748 628.317,249.214 627.871,248.63C626.971,247.469 626.377,246.233 625.994,245.035C625.25,242.617 625.183,240.469 625.022,238.496L624.624,232.7C624.51,230.767 624.321,228.754 624.326,226.645C624.327,224.542 624.535,222.326 625.252,220.2C625.953,218.063 627.173,216.081 628.757,214.212C630.348,212.356 632.367,210.562 635.143,209.339C636.53,208.749 638.109,208.308 639.818,208.21C641.52,208.096 643.337,208.332 645.008,208.921L645.295,209.02L645.314,209.028L645.425,209.076L645.574,209.141L646.027,209.337C646.525,209.558 647.073,209.835 647.399,210.044C648.162,210.482 648.842,211.015 649.473,211.57C650.723,212.696 651.685,213.972 652.349,215.288C653.686,217.936 653.766,220.668 653.277,223.024C653.029,224.212 652.631,225.32 652.215,226.352C651.786,227.386 651.287,228.343 650.855,229.252C649.948,231.068 649.2,232.704 648.634,234.392ZM647.299,233.968C647.765,232.357 647.738,230.587 647.095,228.951C646.799,228.135 646.336,227.359 645.824,226.665C645.327,225.968 644.729,225.353 644.144,224.844C642.981,223.812 641.836,223.228 641.2,223.026C640.549,222.774 640.384,223.058 640.465,223.179C640.542,223.335 640.664,223.172 640.145,223.148C639.662,223.115 638.766,223.317 637.846,223.833C636.916,224.346 636.002,225.129 634.935,225.965C633.88,226.813 632.684,227.784 631.63,228.975C630.602,230.167 629.692,231.561 629.313,233.08C628.916,234.586 628.907,236.202 629.443,237.619C629.956,239.034 631.114,240.202 632.343,240.634C632.948,240.853 633.518,240.926 633.988,240.825C634.23,240.762 634.407,240.728 634.582,240.623C634.691,240.612 634.654,240.501 634.642,240.439C634.577,240.389 634.761,240.417 634.86,240.417L635.027,240.431L635.111,240.438L635.173,240.444C635.086,240.413 635.398,240.517 634.983,240.374C635.401,240.002 635.477,239.915 636.188,239.911C636.849,239.887 638.056,239.951 639.578,239.726C640.342,239.624 641.171,239.448 641.978,239.159C642.793,238.879 643.621,238.508 644.33,238.006C645.791,237.025 646.82,235.587 647.299,233.968Z" style="fill-rule:nonzero;"/>
        <path d="M662.585,254.558L662.576,254.572C661.797,255.757 661.21,257.129 660.667,258.745C660.377,259.542 660.101,260.427 659.728,261.315C659.348,262.191 658.896,263.1 658.3,263.956C657.112,265.642 655.274,267.115 652.8,267.585C651.575,267.822 650.213,267.824 648.844,267.489C648.16,267.322 647.484,267.08 646.84,266.751C646.518,266.592 646.208,266.401 645.907,266.207C645.756,266.11 645.613,266 645.469,265.893L645.257,265.729L645.153,265.644L645.101,265.602L645.076,265.581C644.984,265.52 645.246,265.686 644.863,265.44L644.693,265.222C644.629,265.137 644.629,265.103 644.427,264.913C644.122,264.606 643.797,264.261 643.624,264.003C643.226,263.432 642.889,262.849 642.647,262.238C642.154,261.025 641.952,259.83 641.926,258.73C641.901,256.513 642.388,254.747 642.689,253.121C643.015,251.496 643.262,249.969 643.502,248.367L643.842,245.906L644.019,244.621C644.052,244.405 644.081,244.183 644.122,243.967L644.183,243.64L644.214,243.475L644.23,243.393L644.238,243.352L644.242,243.331C644.259,243.299 644.21,243.373 644.281,243.255C644.333,242.872 644.359,242.517 644.519,242.002C644.655,241.505 644.769,241.099 644.927,240.648C645.219,239.759 645.592,238.878 646.082,238.055C647.044,236.384 648.439,234.956 650.139,233.684C651.841,232.424 653.918,231.285 656.579,230.801C657.903,230.579 659.371,230.518 660.893,230.804C662.412,231.074 663.959,231.674 665.302,232.557C665.786,232.868 665.444,232.649 665.555,232.721L665.568,232.731L665.594,232.752L665.75,232.875L666.094,233.139C666.493,233.448 666.924,233.824 667.161,234.076C667.734,234.63 668.212,235.248 668.64,235.874C669.482,237.138 670.032,238.459 670.302,239.742C670.847,242.324 670.233,244.66 669.208,246.502C668.69,247.431 668.06,248.248 667.441,248.989C666.809,249.728 666.138,250.378 665.552,251.001C664.341,252.227 663.368,253.337 662.585,254.558ZM661.391,253.826C662.057,252.655 662.31,251.23 661.974,249.802C661.83,249.095 661.524,248.391 661.161,247.756C660.813,247.123 660.359,246.547 659.906,246.076C659.009,245.125 658.075,244.618 657.623,244.577C657.166,244.485 657.143,244.996 657.479,245.309C657.624,245.466 657.844,245.56 657.99,245.555C658.138,245.561 658.189,245.48 658.123,245.402C657.993,245.216 657.39,245.079 656.66,245.197C655.921,245.309 655.108,245.647 654.102,245.966C653.608,246.138 653.054,246.311 652.491,246.531C652.221,246.635 651.914,246.787 651.658,246.871C651.414,246.927 651.069,247.166 650.744,247.374C650.809,247.266 650.756,247.349 650.766,247.326L650.753,247.334L650.728,247.349L650.677,247.38L650.574,247.442L650.367,247.567C650.225,247.65 650.096,247.742 649.959,247.831C649.678,248.007 649.43,248.208 649.188,248.419C648.703,248.841 648.293,249.327 647.964,249.855C647.321,250.909 646.994,252.15 647.19,253.325C647.365,254.493 648.171,255.57 649.144,255.975C649.621,256.18 650.079,256.239 650.457,256.125C650.655,256.058 650.781,256.005 650.913,255.892C650.992,255.879 650.951,255.739 650.921,255.65C650.855,255.573 651.004,255.63 651.085,255.644L651.352,255.718C650.979,255.477 651.249,255.648 651.167,255.593L651.17,255.588L651.176,255.578L651.187,255.558L651.204,255.523L651.23,255.455C651.247,255.406 651.249,255.376 651.258,255.33L651.27,255.176C651.274,255.121 651.329,255.143 651.496,255.238C651.812,255.41 652.655,255.881 653.899,256.188C654.521,256.354 655.231,256.473 655.954,256.487C656.684,256.511 657.451,256.458 658.145,256.259C659.574,255.886 660.693,255.016 661.391,253.826Z" style="fill-rule:nonzero;"/>
        <path d="M690.106,278.572C689.719,279.63 689.589,280.831 689.593,282.28C689.574,282.998 689.596,283.802 689.532,284.638C689.46,285.465 689.332,286.346 689.06,287.219C688.513,288.935 687.32,290.632 685.302,291.573C684.306,292.043 683.126,292.332 681.863,292.323C680.605,292.319 679.285,292.003 678.156,291.396C677.728,291.247 678.032,291.35 677.933,291.313L677.923,291.304L677.902,291.285L677.861,291.247L677.779,291.17C677.71,291.107 677.727,291.083 677.503,290.954C677.169,290.743 676.802,290.497 676.606,290.306C676.149,289.878 675.745,289.432 675.424,288.939C674.774,287.966 674.395,286.963 674.194,286.02C673.813,284.112 673.974,282.561 673.94,281.197C673.931,279.828 673.822,278.579 673.655,277.257C673.499,275.944 673.188,274.542 673.013,273.025C672.888,272.372 672.869,271.442 672.892,270.684C672.908,269.885 672.995,269.071 673.203,268.28C673.591,266.676 674.432,265.195 675.573,263.762C676.719,262.337 678.222,260.908 680.42,259.911C681.518,259.433 682.786,259.062 684.188,258.987C685.582,258.898 687.082,259.099 688.455,259.598C688.994,259.785 688.611,259.653 688.734,259.696L688.746,259.702L688.769,259.713L688.817,259.735L688.911,259.78L689.253,259.935C689.68,260.125 690.155,260.376 690.414,260.547C691.036,260.917 691.586,261.362 692.091,261.826C693.092,262.766 693.84,263.811 694.321,264.874C695.294,267.015 695.143,269.15 694.525,270.895C694.212,271.776 693.774,272.574 693.341,273.292C692.894,274.013 692.399,274.657 691.987,275.253C691.12,276.444 690.496,277.465 690.11,278.56L690.106,278.572ZM688.778,278.13C689.063,277.113 688.913,275.953 688.226,274.934C687.909,274.427 687.441,273.96 686.946,273.574C686.467,273.186 685.906,272.878 685.383,272.671C684.343,272.243 683.418,272.251 683.135,272.56C682.83,272.819 683.172,273.52 683.844,273.832C684.161,273.996 684.545,274.054 684.832,274.009C685.124,273.975 685.298,273.851 685.353,273.742C685.459,273.493 685.087,273.334 684.619,273.421C684.143,273.506 683.613,273.793 682.858,274.087C682.493,274.245 682.064,274.414 681.628,274.627C681.195,274.88 680.778,274.985 680.307,275.386C679.462,275.981 678.678,276.759 678.342,277.657C677.989,278.542 677.953,279.53 678.364,280.339C678.752,281.147 679.687,281.723 680.562,281.648C680.991,281.615 681.352,281.454 681.577,281.164C681.696,281.008 681.745,280.884 681.782,280.709C681.825,280.659 681.716,280.518 681.633,280.424C681.532,280.357 681.683,280.374 681.743,280.36L681.855,280.355L681.912,280.353L681.939,280.352L681.954,280.351C681.864,280.318 682.175,280.424 681.756,280.277C681.584,279.707 681.005,279.673 681.135,279.878C681.209,280.072 681.891,280.499 682.959,280.703C683.496,280.817 684.115,280.875 684.73,280.833C685.354,280.8 686.004,280.688 686.557,280.457C687.71,280.01 688.476,279.167 688.783,278.121L688.778,278.13Z" style="fill-rule:nonzero;"/>
    </g>
</svg>
