<?xml version="1.0" encoding="UTF-8" standalone="no"?>
<!DOCTYPE svg PUBLIC "-//W3C//DTD SVG 1.1//EN" "http://www.w3.org/Graphics/SVG/1.1/DTD/svg11.dtd">
<svg width="100%" height="100%" viewBox="0 0 1024 1024" version="1.1" xmlns="http://www.w3.org/2000/svg" xmlns:xlink="http://www.w3.org/1999/xlink" xml:space="preserve" xmlns:serif="http://www.serif.com/" style="fill-rule:evenodd;clip-rule:evenodd;stroke-linejoin:round;stroke-miterlimit:1.41421;">
    <g id="girl_1_">
        <path d="M739.886,377.877C742.177,378.101 740.45,381.342 739.084,381.701C723.485,385.842 708.892,392.966 696.599,403.711C676.804,421.018 662.282,444.578 652.126,468.955C641.6,494.228 634.719,521.997 634.707,549.609C634.696,575.761 640.758,599.627 657.804,619.588C681.416,647.23 717.475,667.239 753.423,670.357C786.945,673.261 819.434,656.522 840.517,629.899C858.377,607.342 862.245,575.429 861.457,547.281C860.603,516.674 854.948,485.019 841.467,457.46C825.858,425.55 799.488,402.338 769.628,385.136C763.274,381.475 771.585,373.822 776.185,374.077C805.828,375.732 828.974,401.753 845.345,424.923C859.003,444.247 867.811,465.976 872.991,489.217C879.944,520.425 882.395,553.593 876.191,585.18C873.382,599.468 868.896,613.556 861.534,626.082C853.097,640.44 840.661,652.52 827.584,662.448C799.152,684.026 765.602,693.288 730.683,684.816C696.124,676.427 661.042,656.943 639.652,627.132C608.13,583.204 617.462,521.866 636.448,474.473C646.668,448.965 660.826,424.492 680.365,405.325C696.123,389.867 717.195,375.656 739.886,377.877Z" style="fill:rgb(1,1,1);fill-rule:nonzero;"/>
        <path d="M749.761,339.741C744.792,343.99 735.82,356.039 741.287,362.828C743.791,365.937 747.288,369.421 751.274,370.372C754.393,371.119 756.444,370.665 758.124,369.659C759.606,368.77 761.823,366.576 762.61,365.116C764.941,360.784 766.11,354.526 762.518,351.905C754.195,345.83 744,353.914 735.176,350.42C733.238,349.65 733.813,346.63 734.843,345.407C742.49,336.337 765.769,331.997 773.797,343.56C779.758,352.146 776.625,364.182 770.352,371.715C763.244,380.25 751.406,385.756 741.101,379.405C734.415,375.283 728.575,367.826 730.483,359.363C732.749,349.32 740.145,342.054 749.176,338.195C750.236,337.743 750.424,339.172 749.761,339.741Z" style="fill:rgb(1,1,1);fill-rule:nonzero;"/>
        <path d="M773.129,346.696C771.713,348.013 770.038,346.709 771.072,345.018C790.185,313.677 822.074,293.822 855.654,282.424C873.471,276.376 892.527,272.865 911.338,273.017C917.115,273.064 922.915,273.617 928.693,273.462C932.263,273.367 936.533,271.728 939.415,272.653C937.43,273.321 935.445,273.99 933.459,274.659C932.764,275.695 932.067,276.73 931.372,277.765C931.823,274.9 934.518,273.154 937.053,272.647C938.67,272.326 940.681,272.594 941.782,274.008C944.049,276.912 942.173,280.576 939.951,282.789C936.206,286.513 930.857,285.903 926.099,285.581C920.682,285.215 915.264,284.774 909.844,284.442C892.693,283.394 874.889,285.979 858.538,291.298C841.859,296.719 825.637,303.539 811.107,313.66C797.349,323.244 785.427,335.285 773.129,346.696Z" style="fill:rgb(1,1,1);fill-rule:nonzero;"/>
        <path d="M736.686,345.274C728.966,343.559 723.89,335.908 718.799,330.202C713.167,323.887 707.431,317.587 701.165,311.923C691.227,302.94 680.482,295.282 668.834,288.807C656.638,282.025 643.676,276.135 630.016,273.294C618.124,270.818 608.686,271.731 597.244,275.275C590.673,277.311 588.791,269.206 593.549,265.526C616.137,248.06 652.483,263.05 674.115,275.044C686.224,281.756 697.401,289.898 707.614,299.361C715.065,306.269 721.651,313.948 727.992,321.923C732.74,327.892 739.23,334.325 739.986,342.304C740.138,343.925 738.22,345.612 736.686,345.274Z" style="fill:rgb(1,1,1);fill-rule:nonzero;"/>
        <path d="M599.686,275.558C590.578,285.921 585.173,301.578 582.11,314.947C579.003,328.519 577.085,342.817 579.03,356.704C578.311,355.487 577.59,354.271 576.869,353.056C623.696,383.659 682.399,372.278 734.489,370.284C737.909,370.154 737.137,374.605 734.786,375.728C715.411,384.982 693.966,386.724 672.779,387.126C648.995,387.579 624.44,386.332 601.39,379.846C591.605,377.096 581.673,373.661 573.077,368.003C567.578,364.384 565.995,362.604 566.559,355.738C567.037,349.922 567.247,344.096 568.061,338.308C571.533,313.723 579.527,290.943 597.144,273.492C598.757,271.899 601.35,273.671 599.686,275.558Z" style="fill:rgb(1,1,1);fill-rule:nonzero;"/>
        <path d="M932.12,277.094C935.963,279.625 939.137,281.15 942.353,284.782C945.158,287.945 947.496,291.204 949.641,294.874C954.433,303.087 958.239,311.858 960.784,321.083C965.43,337.923 967.184,356.37 961.17,373.084C960.018,376.291 954.187,380.463 950.886,377.881C947.972,375.605 947.485,374.547 946.786,370.851C946.133,367.385 950.604,364.41 953.493,364.809C955.073,365.002 956.646,365.239 958.215,365.518C955.261,367.285 952.305,369.052 949.35,370.82C954.448,355.823 952.649,338.613 948.515,323.6C946.343,315.704 943.621,307.842 940.003,300.512C936.723,293.865 933.54,286.131 929.46,280.026C928.49,278.573 930.62,276.103 932.12,277.094Z" style="fill:rgb(1,1,1);fill-rule:nonzero;"/>
        <path d="M772.715,368.338C778.456,369.885 783.822,372.954 789.601,374.642C795.618,376.398 801.803,377.614 808.017,378.375C821.661,380.045 835.438,380.06 849.161,379.846C883.853,379.313 917.391,379.541 951.094,369.589C950.74,373.908 950.39,378.225 950.037,382.543C945.898,382.795 941.285,384.044 937.539,381.729C935.81,380.655 936.212,378.469 937.226,377.028C940.884,371.819 946.727,369.639 952.813,369.235C961.627,368.649 957.677,380.47 951.756,382.189C916.017,392.552 880.146,391.124 843.456,390.306C829.077,389.984 814.492,389.218 800.416,385.984C791.011,383.823 775.674,379.993 771.3,369.886C770.976,369.134 771.995,368.149 772.715,368.338Z" style="fill:rgb(1,1,1);fill-rule:nonzero;"/>
        <path d="M740.131,381.168C728.869,389.984 719.186,402.485 713.876,415.994C711.09,423.089 709.038,430.877 709.182,438.594C709.306,445.239 711.752,451.862 711.073,458.412C710.899,460.104 708.002,462.518 706.377,461.213C700.561,456.544 700.069,446.413 700.541,439.356C701.113,430.785 703.039,422.406 706.611,414.603C713.626,399.286 724.353,386.976 738.349,378.122C740.588,376.707 742.058,379.665 740.131,381.168Z" style="fill:rgb(1,1,1);fill-rule:nonzero;"/>
        <path d="M753.561,384.022C755.496,383.986 755.949,385.993 754.874,387.401C751.109,392.358 746.598,395.365 744.707,401.766C743.007,407.522 742.497,413.489 743.251,419.468C744.096,426.124 745.783,432.598 748.672,438.646C750.94,443.398 753.922,447.604 756.289,452.251C757.066,453.774 754.81,455.714 753.432,455.377C739.084,451.86 733.278,430.729 733.505,417.688C733.639,410.015 734.964,402.601 738.751,395.902C741.618,390.826 747.368,384.141 753.561,384.022Z" style="fill:rgb(1,1,1);fill-rule:nonzero;"/>
        <path d="M767.111,385.672C767.895,384.523 770.662,384.195 770.129,386.256C767.174,397.774 765.473,408.991 769.524,420.545C771.602,426.476 774.462,431.919 778.26,436.889C781.278,440.833 784.754,444.41 786.705,449.05C787.638,451.262 784.604,454.499 782.403,453.758C770.034,449.6 762.367,433.707 759.848,421.452C757.326,409.168 760.097,395.932 767.111,385.672Z" style="fill:rgb(1,1,1);fill-rule:nonzero;"/>
        <path d="M727.717,496.613C726.222,502.609 725.653,510.512 726.087,516.67C726.202,518.295 726.259,520.115 727.068,521.578C727.38,522.142 727.312,521.398 726.476,521.998C724.858,523.154 726.301,521.713 726.665,520.692C727.12,519.418 727.417,518.044 727.624,516.705C728.15,513.281 728.31,509.715 727.739,506.277C727.551,505.116 727.274,503.911 726.757,502.848C726.152,501.622 725.874,502.355 726.981,502.126C729.883,501.53 727.707,502.638 727.696,505.224C727.689,507.068 727.772,508.916 728.125,510.732C728.642,513.38 729.474,516.385 731.288,518.413C728.066,519.099 724.845,519.784 721.624,520.475C725.427,515.914 725.475,510.67 722.798,505.471C726.342,505.178 729.886,504.882 733.43,504.589C726.701,512.357 733.192,521.71 729.271,530.168C728.491,531.854 726.538,533.305 724.648,532.935C711.211,530.301 718.126,506.171 724.066,499.394C726.758,496.33 732.248,493.66 734.702,498.514C739.156,507.329 737.287,518.339 730.756,525.544C728.614,527.908 723.866,531.068 721.093,527.606C713.319,517.894 714.186,498.284 725.764,492.157C738.917,485.195 739.79,506.997 738.515,514.643C737.52,520.629 735.442,526.835 730.343,530.394C726.591,533.014 720.534,533.154 718.172,528.585C713.435,519.419 719.846,503.788 725.019,496.091C725.719,495.046 728.18,494.774 727.717,496.613Z" style="fill:rgb(1,1,1);fill-rule:nonzero;"/>
        <path d="M755.704,495.927C756.98,494.719 760.48,494.165 760.432,496.875C760.292,505.069 758.351,517.373 765.807,523.131C762.842,524.515 759.873,525.9 756.908,527.283C760.138,521.472 763.857,508.832 761.378,502.384C760.678,500.564 762.795,500.646 762.936,499.981C762.467,502.237 762.588,504.534 762.938,506.81C763.475,510.301 764.848,515.838 766.194,518.099C762.438,519.367 758.682,520.628 754.926,521.892C756.126,518.787 757.745,515.657 757.042,512.22C761.089,511.375 765.131,510.529 769.181,509.682C766.594,514.056 764.821,518.986 762.757,523.64C761.673,526.081 757.476,528.245 755.951,525.063C753.064,519.034 754.242,513.093 757.423,507.434C760.015,502.826 768.368,498.765 769.864,506.401C771.119,512.799 768.88,518.275 766.562,524.126C764.648,528.955 757.509,531.734 754.543,526.639C750.857,520.305 749.336,510.381 750.48,503.171C751.72,495.356 759.846,485.852 768.396,490.24C775.311,493.786 774.069,504.258 772.911,510.646C771.681,517.43 769.974,524.768 766.309,530.646C764.401,533.706 759.992,535.013 757.234,532.582C748.616,524.967 747.019,504.155 755.704,495.927Z" style="fill:rgb(1,1,1);fill-rule:nonzero;"/>
        <path d="M667.441,567.249C668.867,569.126 673.381,564.59 670.762,567.342C671.061,566.999 671.054,567.021 670.733,567.405C670.465,567.853 670.127,568.233 669.819,568.652C670.095,567.332 670.371,566.009 670.649,564.689C671.171,566.544 670.755,568.124 669.63,569.663C667.946,567.695 666.267,565.73 664.585,563.762C666.581,562.726 668.64,561.893 670.717,561.048C672.337,560.39 674.365,559.84 675.738,558.841C678.029,557.17 682.139,557.382 683.262,560.395C684.499,563.699 681.905,566.96 679.382,568.623C675.868,570.937 670.661,571.831 667.192,570.921C663.221,569.88 664.212,565.088 666.698,562.931C666.228,563.744 666.569,563.417 667.717,561.94C668.345,561.385 669.029,560.923 669.766,560.548C670.884,559.927 672.045,559.612 673.259,559.303C674.615,558.955 675.929,558.56 677.265,558.148C676.952,561.975 676.64,565.803 676.329,569.631C674.777,569.593 672.794,570.487 671.237,570.918C669.183,571.489 667.158,572.029 665.057,572.388C660.316,573.197 660.698,566.7 663.426,564.611C664.929,563.463 666.636,562.435 668.587,562.991C667.566,563.204 666.548,563.418 665.526,563.632C665.843,563.424 666.154,563.21 666.47,563.003C667.549,562.535 667.786,562.421 667.184,562.661C667.296,562.602 667.407,562.547 667.52,562.488C668.32,562.115 669.142,561.676 670.049,561.717C671.872,561.795 673.11,562.776 672.733,564.809C672.383,566.72 669.054,569.365 667.441,567.249Z" style="fill:rgb(1,1,1);fill-rule:nonzero;"/>
        <path d="M813.051,557.334C812.62,555.305 813.282,553.515 814.82,552.134C816.178,550.908 818.347,550.06 820.075,551.009C822.606,552.405 824.784,554.855 826.921,556.827C823.451,558.875 819.981,560.922 816.513,562.968C816.423,561.469 816.213,563.415 817.261,564.444C818.467,564.886 819.668,565.325 820.875,565.768C820.845,565.768 820.815,565.771 820.785,565.772C821.761,565.451 822.733,565.13 823.708,564.806C824.08,564.537 824.449,564.267 824.82,563.996C825.486,563.099 826.152,562.201 826.822,561.307C826.792,561.378 826.769,561.453 826.741,561.527C825.474,565.055 819.47,568.393 816.535,564.963C813.529,561.445 817.684,555.998 821.181,555.024C820.058,555.537 819.736,555.674 820.221,555.45C821.128,554.91 822.101,554.59 823.143,554.484C824.45,554.378 825.976,554.717 826.845,555.811C827.645,556.82 827.899,557.973 827.834,559.243C827.693,562.018 826.272,564.345 823.896,565.737C821.967,566.865 819.053,567.314 817.422,565.383C816.358,564.123 815.533,562.527 814.739,561.091C814.068,559.864 813.343,558.715 813.051,557.334Z" style="fill:rgb(1,1,1);fill-rule:nonzero;"/>
        <path d="M674.99,564.641C679.701,567.858 682.709,573.339 687.399,576.765C692.411,580.429 698.006,583.21 703.971,584.823C717.284,588.424 731.395,588.53 744.995,586.812C770.53,583.589 795.164,575.103 816.681,560.623C817.322,563.78 817.958,566.941 818.597,570.098C815.139,571.447 811.213,571.635 807.531,571.679C804.215,571.72 805.452,568.005 807.263,566.754C810.328,564.64 813.434,562.418 816.685,560.623C822.641,557.334 826.173,564.381 821.29,568.509C811.251,576.994 798.082,582.488 785.91,586.788C771.024,592.049 755.387,595.757 739.654,596.927C725.196,598.002 710.198,597.375 696.562,591.839C686.971,587.945 672.292,579.124 671.809,566.987C671.755,565.628 673.639,563.718 674.99,564.641Z" style="fill:rgb(1,1,1);fill-rule:nonzero;"/>
        <path d="M634.367,498.938C629.268,506.667 620.873,504.366 613.513,502.233C607.412,500.467 602.7,500.175 597.894,505.241C594.357,508.97 592.607,514.076 593.383,519.266C594.837,529.012 602.656,538.19 612.797,537.623C616.857,537.396 620.876,536.79 624.77,535.552C626.166,535.105 627.571,534.647 628.951,534.137C629.39,533.968 629.831,533.815 630.28,533.678C632.586,533.081 632.083,533.467 628.773,534.835C628.088,536.303 627.399,537.774 626.713,539.244C627.463,540.694 627.552,541.065 626.984,540.366C625.224,538.423 627.246,535.303 629.035,534.312C632.674,532.302 637.723,534.097 635.313,539.04C633.011,543.756 627.285,545.412 622.638,546.507C609.598,549.579 595.179,549.469 587.391,536.186C579.134,522.104 582.469,505.861 595.425,496.104C601.203,491.755 607.772,489.653 614.863,491.732C620.982,493.527 626.662,496.857 633.206,495.954C635.055,495.701 635.115,497.805 634.367,498.938Z" style="fill:rgb(1,1,1);fill-rule:nonzero;"/>
        <path d="M872.036,495.556C871.236,496.156 869.026,497.05 868.649,495.371C867.49,490.247 872.945,485.147 876.976,482.992C883.091,479.724 889.937,478.19 896.831,479.039C910.649,480.737 922.603,492.156 922.999,507.025C923.385,521.404 915.498,535.711 904.339,544.193C898.735,548.448 892.659,551.928 885.719,553.201C880.593,554.138 871.733,554.936 869.238,549.067C868.138,546.472 870.822,543.25 873.147,542.623C877.681,541.396 881.96,543.495 886.586,542.679C890.794,541.94 895.093,540.035 898.469,537.33C905.683,531.547 911.79,523.324 912.639,513.665C913.526,503.59 907.227,491.756 897.248,489.099C892.579,487.855 887.262,487.283 882.536,488.657C877.856,490.018 875.746,492.765 872.036,495.556Z" style="fill:rgb(1,1,1);fill-rule:nonzero;"/>
        <path d="M890.527,507.423C894.375,509.684 897.142,512.599 897.026,517.452C896.899,522.918 892.496,527.715 887.268,528.338C885.488,528.554 883.865,527.316 883.768,525.442C883.676,523.682 884.664,522.378 885.762,521.171C886.891,519.935 888.008,519.607 887.877,517.938C887.701,515.703 887.093,513.393 886.112,511.402C885.017,509.17 888.564,506.269 890.527,507.423Z" style="fill:rgb(1,1,1);fill-rule:nonzero;"/>
        <path d="M610.341,515.359C611.565,513.757 615.587,513.075 614.841,516.233C614.314,518.467 614.12,520.556 614.234,522.845C613.73,521.992 613.224,521.137 612.717,520.283C614.298,520.908 616.185,521.104 617.676,521.931C619.555,522.976 619.366,525.492 618.292,527.027C615.65,530.807 610.295,530.337 606.753,528.367C605.37,527.599 605.147,526.141 605.327,524.69C605.781,521.049 608.22,518.137 610.341,515.359Z" style="fill:rgb(1,1,1);fill-rule:nonzero;"/>
        <path d="M623.671,544.968C624.79,552.134 620.397,560.823 617.389,566.976C612.685,576.606 607.075,586.042 599.93,593.992C593.998,600.595 586.944,607.325 578.084,609.195C568.852,611.143 562.303,606.233 556.689,599.236C555.125,597.287 555.994,594.933 557.152,593.066C557.338,592.761 557.527,592.455 557.716,592.149C559.273,589.639 562.665,588.445 565.31,589.561C567.442,590.461 568.603,593.087 568.834,595.293C569.029,597.159 567.543,598.851 566.128,599.755C565.828,599.947 565.528,600.139 565.229,600.329C563.877,601.193 561.776,601.612 560.323,600.737C560.016,600.55 556.806,598.751 559.346,599.625C561.491,598.624 563.633,597.623 565.782,596.623C565.538,596.898 565.298,597.176 565.057,597.451C565.413,595.74 565.77,594.03 566.126,592.319C583.243,623.498 614.823,556.612 621.511,545.146C621.949,544.395 623.457,543.6 623.671,544.968Z" style="fill:rgb(1,1,1);fill-rule:nonzero;"/>
        <path d="M625.988,574.378C626.24,573.186 628.655,571.492 629.271,573.293C632.086,581.537 629.128,591.24 626.758,599.228C623.301,610.881 618.506,622.361 612.022,632.591C601.471,649.236 582.344,664.61 565.51,646.649C562.653,643.598 566.626,638.18 569.797,637.477C570.296,637.362 570.796,637.251 571.297,637.143C572.812,636.803 575.068,636.513 576.123,638.112C577.832,640.699 577.807,642.834 576.697,645.707C576.163,647.079 574.661,648.101 573.262,648.245C572.761,648.297 569.787,647.733 570.33,647.616C571.759,644.557 573.189,641.502 574.616,638.443C599.739,665.629 622.543,590.824 625.988,574.378Z" style="fill:rgb(1,1,1);fill-rule:nonzero;"/>
        <path d="M875.296,557.842C877.228,591.35 931.837,606.074 946.617,574.634C948.763,576.405 950.911,578.174 953.06,579.946C950.887,580.992 948.775,581.967 946.472,582.65C944.639,583.189 942.348,582.075 942.999,579.77C944.135,575.743 946.44,573.455 949.785,571.164C953.639,568.529 958.42,571.942 956.228,576.476C946.79,595.998 925.365,605.19 904.842,600.631C884.782,596.176 869.722,580.852 871.423,559.114C871.573,557.239 875.138,555.147 875.296,557.842Z" style="fill:rgb(1,1,1);fill-rule:nonzero;"/>
        <path d="M872.713,588.061C873.272,608.135 897.552,616.609 913.232,620.006C923.749,622.288 934.579,623.384 945.316,622.466C952.4,621.858 961.108,620.911 966.358,615.418C966.54,618.35 966.719,621.281 966.901,624.213C962.682,623.065 958.01,623.21 954.319,620.602C952.16,619.078 953.503,615.849 955.52,614.848C960.855,612.204 966.068,612.008 971.781,613.593C976.345,614.859 974.794,619.822 972.324,622.389C957.06,638.217 926.069,634.566 907.289,629.601C889.816,624.98 861.498,612.235 868.927,588.846C869.373,587.446 872.642,585.458 872.713,588.061Z" style="fill:rgb(1,1,1);fill-rule:nonzero;"/>
        <path d="M862.043,619.099C862.797,616.828 867.415,615.139 866.757,618.703C864.198,632.624 882.356,638.777 892.314,641.165C904.257,644.027 916.033,644.614 928.207,643.837C927.046,647.334 925.876,650.83 924.713,654.328C922.113,653.86 919.944,653.597 918.75,651.011C918.093,649.584 919.166,647.873 920.132,646.944C922.456,644.706 925.158,644.339 928.212,643.84C934.908,642.748 932.305,653.016 927.372,654.109C907.96,658.414 851.763,650.019 862.043,619.099Z" style="fill:rgb(1,1,1);fill-rule:nonzero;"/>
        <path d="M778.395,352.699C783.687,345.331 793.18,340.357 801.096,336.666C810.824,332.131 821.075,328.406 831.705,326.893C841.159,325.549 850.087,326.039 859.012,329.661C863.561,331.51 870.437,334.332 871.014,340.212C872.185,352.035 853.549,357.767 845.327,359.964C837.91,361.948 830.247,363.569 822.595,364.217C816.862,364.703 810.795,365.379 805.96,361.709C803.125,359.561 806.278,356.084 808.762,355.633C818.928,353.786 829.351,353.775 839.508,351.491C844.906,350.276 850.4,348.939 855.539,346.81C857.28,346.09 859.327,345.309 860.784,344.067C861.911,343.109 861.378,342.995 861.668,343.832C860.222,339.679 853.456,337.837 849.92,336.562C842.383,333.85 833.837,334.485 826.129,336.046C809.344,339.445 795.826,348.167 780.57,355.25C778.675,356.125 777.027,354.603 778.395,352.699Z" style="fill:rgb(1,1,1);fill-rule:nonzero;"/>
        <path d="M723.183,351.76C705.855,354.087 692.193,339.389 676.245,335.261C671.373,333.999 666.061,334.051 661.082,334.592C658.671,334.857 651.377,335.168 650.325,338.145C648.531,343.232 655.067,347.387 658.813,348.498C664.421,350.16 670.311,350.856 676.142,350.924C685.811,351.036 696.467,348.276 705.887,350.4C709.15,351.135 707.261,355.048 705.423,356.218C694.087,363.432 675.579,362.665 662.82,360.712C651.766,359.018 635.455,352.204 640.861,337.355C645.426,324.816 662.467,324.055 673.335,324.679C682.356,325.2 690.208,329.315 697.941,333.89C706.796,339.128 715.6,343.734 725.07,347.672C727.35,348.618 724.534,351.579 723.183,351.76Z" style="fill:rgb(1,1,1);fill-rule:nonzero;"/>
        <path d="M681.695,677.015C683.302,675.782 686.948,675.499 686.209,678.662C684.76,684.884 681.036,691.011 678.333,696.76C675.104,703.622 672.151,710.643 669.54,717.777C663.952,733.048 659.549,748.815 656.217,764.767C649.948,794.806 646.28,825.349 646.399,856.098C646.43,864.629 630.372,871.822 630.383,861.367C630.39,856.398 631.082,852.269 634.283,848.384C635.948,846.361 639.367,844.03 642.018,845.745C645.801,848.185 646.392,851.732 646.397,856.096C641.058,857.852 635.719,859.608 630.38,861.365C630.686,828.636 634.518,795.481 642.435,763.756C646.527,747.362 651.452,731.103 658.076,715.583C663.543,702.773 670.435,685.655 681.695,677.015Z" style="fill:rgb(1,1,1);fill-rule:nonzero;"/>
        <path d="M833.311,667.824C832.638,665.364 836.466,661.561 838.448,664.062C848.489,676.808 855.943,691.661 863.374,706.099C871.102,721.117 878.323,736.466 884.61,752.179C891.145,768.507 896.759,785.319 900.275,802.626C901.864,810.444 903.296,818.296 903.999,826.262C904.665,833.805 906.097,842.752 903.814,850.067C902.57,854.046 899.477,857.478 895.192,857.833C892.539,858.056 889.195,856.242 889.414,853.054C889.518,851.588 889.662,850.18 889.912,848.733C890.368,846.075 892.921,844.14 895.394,843.795C896.316,843.602 897.247,843.501 898.185,843.485C895.372,847.228 892.562,850.975 889.748,854.719C887.535,847.519 888.79,839.03 888.078,831.498C887.288,823.1 886.186,814.677 884.422,806.43C880.878,789.864 875.902,773.626 870.062,757.766C864.18,741.814 857.471,726.215 850.562,710.704C844.303,696.662 837.402,682.743 833.311,667.824Z" style="fill:rgb(1,1,1);fill-rule:nonzero;"/>
        <path d="M630.038,864.242C630.071,861.888 632.433,860.111 634.585,860.888C641.804,863.47 647.807,868.775 655.303,871.157C664.18,873.975 673.393,875.674 682.625,876.663C700.932,878.617 719.267,878.685 737.649,878.58C763.723,878.434 789.404,876.385 814.897,870.45C842.899,863.926 870.144,854.625 897.411,845.485C896.991,850.62 896.574,855.75 896.153,860.883C890.584,861.04 884.779,862.62 879.265,861.409C872.796,859.99 876.794,852.467 880.165,850.13C885.827,846.204 892.763,845.244 899.457,845.059C910.08,844.766 905.09,858.154 898.2,860.455C868.562,870.371 838.938,880.475 808.37,886.965C782.534,892.448 756.749,894.253 730.424,894.301C710.128,894.335 689.367,893.758 669.434,889.533C657.588,887.025 629.797,880.97 630.038,864.239L630.038,864.242Z" style="fill:rgb(1,1,1);fill-rule:nonzero;"/>
        <path d="M685.22,884.48C685.534,883.707 687.53,882.893 687.462,884.291C686.466,904.253 688.363,923.725 693.434,943.039C698.113,960.861 703.566,978.429 705.901,996.787C706.379,1000.54 701.619,1004.73 698.088,1003.82C693.551,1002.66 687.924,1001.95 683.387,1003.48C683.014,1003.6 681.527,1004.55 681.951,1003.87C682.584,1002.85 682.666,1005.12 682.984,1005.72C684.464,1008.54 686.723,1011.65 689.948,1012.44C701.862,1015.39 714.751,1009.6 726.032,1006.08C724.766,1007.02 723.502,1007.95 722.232,1008.89C722.249,1008.87 722.262,1008.84 722.28,1008.82C723.263,1011.35 724.247,1013.89 725.228,1016.42C722.442,1016.77 720.68,1016.56 718.614,1014.61C717.095,1013.17 718.43,1010.27 719.733,1009.24C721.78,1007.64 723.578,1006.7 726.079,1006.02C731.288,1004.59 732.785,1009.36 730.41,1013.33C728.304,1016.84 722.375,1017.63 718.823,1018.76C713.526,1020.43 708.183,1022.01 702.718,1023C693.069,1024.74 680.929,1025.24 674.841,1015.74C662.285,996.126 688.651,989.327 702.918,993.303C700.314,995.648 697.709,997.993 695.105,1000.34C691.031,962.132 669.844,922.457 685.22,884.48Z" style="fill:rgb(1,1,1);fill-rule:nonzero;"/>
        <path d="M709.445,888.499C709.935,887.708 711.765,887.248 711.818,888.622C712.354,903.462 712.993,917.925 716.139,932.507C717.654,939.538 718.229,946.756 719.252,953.87C720.153,960.141 720.315,968.547 723.769,973.981C728.421,981.304 736.146,989.42 737.34,998.407C738.22,1005.02 728.138,1016.72 722.595,1009.03C721.204,1007.11 722.206,1004.62 723.814,1003.19C724.879,1002.23 725.898,1001.38 727.255,1000.9C729.276,999.942 729.032,1000.64 726.523,1002.99C726.329,1001.51 725.706,1000.06 725.05,998.745C722.959,994.553 720.296,990.73 717.7,986.861C715.538,983.643 712.775,980.235 711.919,976.368C710.702,970.853 709.787,965.295 709.114,959.687C707.581,946.889 705.601,933.958 704.61,921.116C703.761,910.078 703.456,898.129 709.445,888.499Z" style="fill:rgb(1,1,1);fill-rule:nonzero;"/>
        <path d="M824.073,874.596C824.36,873.531 826.653,871.753 827.235,873.545C830.077,882.387 829.751,892.194 830.31,901.412C830.927,911.642 831.726,921.863 832.68,932.066C834.614,952.775 837.392,973.387 841.087,993.843C841.768,997.613 836.614,1001.87 833.188,1000.96C822.968,998.236 812.414,1001.77 814.073,1014.28C813.066,1013.1 812.059,1011.92 811.054,1010.75C828.432,1016.02 846.077,1008.03 863.689,1010.73C867.359,1011.3 867.279,1016.02 865.347,1018.36C861.379,1023.15 857.289,1025.04 851.572,1022.46C849.688,1021.61 850.109,1018.67 851.235,1017.4C852.471,1016 853.496,1014.96 855.209,1014.2C855.712,1013.97 858.243,1012.37 857.122,1013.8C857.676,1016.34 858.227,1018.88 858.78,1021.43C841.152,1018.72 823.751,1026.76 806.156,1021.41C804.347,1020.86 803.394,1019.83 803.136,1017.88C800.464,997.664 820.537,985.567 838.074,990.321C835.439,992.692 832.808,995.064 830.173,997.436C826.82,976.826 824.363,956.088 823.071,935.233C822.429,924.889 822.03,914.514 822,904.148C821.97,894.318 821.504,884.149 824.073,874.596Z" style="fill:rgb(1,1,1);fill-rule:nonzero;"/>
        <path d="M853.93,869.773C854.578,868.221 857.771,867.554 857.317,869.936C850.244,906.883 863.009,945.067 870.259,980.725C871.702,987.84 872.088,995.079 873.747,1002.14C874.713,1006.26 875.856,1010.42 875.146,1014.67C874.486,1018.62 870.222,1022.7 866.215,1022.62C860.61,1022.5 857.379,1020.25 854.211,1015.65C852.316,1012.89 855.751,1009.68 858.443,1009.96C861.798,1010.31 864.532,1011.09 867.785,1011.66C870.504,1012.14 864.801,1017.61 864.447,1014.25C864.384,1013.51 864.289,1012.78 864.162,1012.05C863.424,1008.09 862.221,1004.21 861.662,1000.21C859.401,984.033 855.188,968.608 851.939,952.637C846.557,926.188 843.315,895.113 853.93,869.773Z" style="fill:rgb(1,1,1);fill-rule:nonzero;"/>
        <path d="M687.76,666.594C689.627,667.812 687.77,670.106 686.388,670.683C679.918,673.39 672.779,674.047 666.206,676.517C659.843,678.907 653.546,682.263 648.261,686.663C637.53,695.594 630.301,706.564 625.024,719.581C624.415,716.786 623.808,713.991 623.201,711.199C630.107,714.137 637.16,716.721 644.282,719.059C650.365,721.054 661.212,723.686 655.522,732.866C653.535,736.066 649.75,737.387 646.272,737.179C640.811,736.854 634.843,733.802 629.72,731.943C624.025,729.872 618.363,727.713 612.805,725.28C609.631,723.891 609.819,719.534 610.981,716.897C618.139,700.681 629.828,685.828 644.303,675.925C654.882,668.688 675.35,658.499 687.76,666.594Z" style="fill:rgb(1,1,1);fill-rule:nonzero;"/>
        <path d="M829.406,658.114C826.611,656.922 829.702,653.296 831.223,652.695C845.99,646.894 863.191,657.228 874.116,666.815C886.435,677.631 897.172,691.719 901.481,707.994C902.938,713.494 898.904,717.725 894.342,719.765C888.602,722.334 883.114,725.458 877.42,728.128C874.924,729.3 870.263,730.77 868.287,727.628C865.565,723.292 867.902,717.222 872.554,715.063C879.595,711.788 886.391,708.016 893.564,705.031C891.183,708.954 888.805,712.88 886.424,716.802C883.07,702.314 874.501,688.843 864.171,678.531C858.859,673.228 853.069,668.559 846.522,664.968C841.009,661.942 835.125,660.56 829.406,658.114Z" style="fill:rgb(1,1,1);fill-rule:nonzero;"/>
        <path d="M628.615,723.483C630.922,722.19 632.877,724.393 631.269,726.586C623.305,737.48 614.706,747.928 608.062,759.775C602.359,769.942 594.133,783.823 594.459,795.988C594.603,801.28 589.942,805.522 585.112,806.184C580.029,806.878 570.366,812.082 565.64,808.301C561.443,804.941 562.765,799.312 566.565,796.025C568.558,794.305 570.532,793.374 573.029,792.823C580.749,791.118 583.495,799.803 577.459,804.509C576.729,805.077 576.008,805.654 575.299,806.243C576.072,802.532 576.847,798.82 577.622,795.11C574.823,792.756 574.468,793.8 577.508,793.057C578.641,792.783 579.773,792.504 580.904,792.229C583.328,791.663 585.809,790.953 588.304,790.895C585.459,793 582.614,795.107 579.766,797.212C585.607,782.22 590.598,767.918 599.453,754.326C607.124,742.549 616.287,730.387 628.615,723.483Z" style="fill:rgb(1,1,1);fill-rule:nonzero;"/>
        <path d="M584.987,808.551C583.835,813.713 582.872,819.268 582.56,824.558C582.401,827.205 582.875,829.133 581.825,831.864C580.666,834.88 577.281,837.275 574.111,836.856C567.358,835.968 572.345,826.677 573.514,823.418C575.376,818.232 577.512,813.156 580.118,808.317C581.165,806.371 585.777,804.987 584.987,808.551Z" style="fill:rgb(1,1,1);fill-rule:nonzero;"/>
        <path d="M592.47,814.072C593.689,811.655 599.218,810.155 598.279,814.352C597.557,817.58 597.352,821.984 598.542,825.143C599.705,828.23 602.338,831.404 602.069,834.727C601.765,838.417 598.345,842.771 594.248,841.769C588.63,840.396 587.87,833.586 588.252,828.447C588.646,823.144 590.106,818.765 592.47,814.072Z" style="fill:rgb(1,1,1);fill-rule:nonzero;"/>
        <path d="M891.843,730.361C890.248,728.02 894.045,724.526 896.06,726.562C908.541,739.157 918.849,753.752 930.674,766.958C940.218,777.619 953.69,792.688 969.29,790.505C971.458,790.201 973.373,791.384 974.277,793.361C974.375,793.579 974.477,793.799 974.577,794.017C976.901,799.102 969.91,805.212 965.279,804.19C963.503,803.801 962.628,802.854 961.121,801.968C959.323,800.904 959.636,798.402 960.788,796.955C962.809,794.415 964.918,792.712 967.926,791.524C966.177,795.261 964.435,798.993 962.688,802.732C962.568,802.525 962.447,802.324 962.325,802.117C964.299,802.513 966.271,802.911 968.246,803.308C950.17,807.325 935.544,792.912 924.826,779.802C912.187,764.342 903.048,746.804 891.843,730.361Z" style="fill:rgb(1,1,1);fill-rule:nonzero;"/>
        <path d="M936.955,809.468C938.146,806.218 944.908,803.765 945.284,808.775C945.419,810.567 945.267,812.363 945.529,814.151C945.619,814.772 945.831,815.434 946.081,816.014C946.073,815.992 946.933,817.549 946.427,816.841C947.434,818.256 947.066,817.695 948.596,818.447C950.235,819.252 951.473,820.162 951.986,822.067C952.572,824.251 951.681,826.507 949.992,827.94C947.372,830.16 942.913,832.055 939.751,829.551C938.052,828.202 936.555,826.765 935.84,824.598C934.276,819.847 935.274,814.051 936.955,809.468Z" style="fill:rgb(1,1,1);fill-rule:nonzero;"/>
        <path d="M953.887,811.774C952.801,809.414 956.333,806.665 958.382,807.728C959.599,808.354 960.86,808.784 962.082,809.47C963.499,810.263 964.822,811.46 965.936,812.653C968.533,815.433 970.547,818.28 969.954,822.303C969.464,825.62 964.609,829.48 961.399,827.405C958.626,825.612 957.901,822.383 956.597,819.493C955.94,818.032 955.348,816.552 954.849,815.029C954.509,813.992 954.333,812.746 953.887,811.774Z" style="fill:rgb(1,1,1);fill-rule:nonzero;"/>
        <path d="M709.895,673.78C710.31,673.415 711.182,673.173 711.438,673.867C713.292,678.776 711.288,684.885 712.933,690.088C714.495,695.017 717.355,699.501 721.04,703.043C729.644,711.311 741.656,715.693 753.212,717.115C764.104,718.453 776.691,717.637 785.997,711.028C795.961,703.954 796.179,690.815 793.416,679.845C794.782,680.629 796.15,681.41 797.519,682.194C794.684,682.462 792.08,683.379 789.227,683.372C785.064,683.365 785.107,678.663 787.762,676.382C791.323,673.321 795.139,671.819 799.774,671.382C801.318,671.237 803.434,671.979 803.874,673.73C807.799,689.358 806.088,706.763 792.859,717.336C781.188,726.663 766.122,729.411 751.635,727.837C737.762,726.327 722.759,721.027 713.136,710.165C705.449,701.487 699.397,683.01 709.895,673.78Z" style="fill:rgb(1,1,1);fill-rule:nonzero;"/>
        <path d="M635.943,745.54C626.335,754.143 618.861,763.802 613.533,775.757C610.856,781.761 608.609,787.9 606.637,794.184C605.268,798.537 604.176,803.253 601.32,806.846C600.527,807.844 597.801,809.247 597.217,807.186C595.665,801.709 598.647,795.085 600.456,789.939C602.989,782.735 605.781,775.475 609.589,768.868C615.72,758.221 623.337,747.499 634.993,743.035C636.745,742.365 637.003,744.589 635.943,745.54Z" style="fill:rgb(1,1,1);fill-rule:nonzero;"/>
        <path d="M890,745.167C889.64,744.172 891.384,742.615 892.078,743.643C898.94,753.794 906.943,762.736 914.656,772.18C921.564,780.639 928.501,789.604 929.722,800.926C929.864,802.204 927.695,803.978 926.721,802.698C919.588,793.323 914.133,782.696 907.031,773.238C900.49,764.531 893.748,755.572 890,745.167Z" style="fill:rgb(1,1,1);fill-rule:nonzero;"/>
        <path d="M737.309,548.465C738.862,547.307 740.331,546.382 742.1,545.615C742.07,545.628 743.288,545.074 742.677,545.368C742.948,545.245 743.21,545.111 743.477,544.972C744.404,544.503 745.239,544.205 746.274,544.107C747.729,543.972 749.049,544.92 749.131,546.475C749.198,547.822 748.451,549.099 747.5,549.962C745.162,552.087 741.945,552.271 739.051,553.065C735.996,553.905 734.966,550.215 737.309,548.465Z" style="fill:rgb(1,1,1);fill-rule:nonzero;"/>
    </g>
    <path id="Stick" d="M587.299,837.237C578.942,829.212 571.1,820.795 563.374,812.288C555.668,803.767 548.176,795.083 540.833,786.286C533.488,777.49 526.281,768.589 519.236,759.564C512.132,750.585 505.298,741.4 498.832,731.935C485.886,713.016 474.338,693.032 460.89,674.495C454.204,665.198 447.198,656.143 439.988,647.246C432.794,638.335 425.247,629.692 417.675,621.07L406.293,608.154C402.506,603.842 398.733,599.521 395.031,595.146C387.593,586.42 380.43,577.486 373.223,568.585C358.807,550.784 344.373,532.997 330.739,514.603C317.12,496.196 303.914,477.475 291.124,458.436C284.727,448.918 278.436,439.32 272.299,429.605C266.186,419.872 260.138,410.088 254.462,400.022L255.895,398.932C264.086,407.083 271.908,415.516 279.663,424C287.393,432.502 294.971,441.121 302.443,449.821C317.389,467.217 331.919,484.931 346.037,502.958C360.139,520.997 373.442,539.646 386.763,558.279C393.424,567.595 400.129,576.879 406.559,586.371C409.791,591.104 412.952,595.892 416.1,600.689L425.52,615.098C431.816,624.694 438.138,634.268 444.812,643.575C451.47,652.894 458.332,662.057 465.514,670.977C479.803,688.874 495.991,705.325 510.782,722.84C518.184,731.593 525.219,740.624 531.983,749.863C538.806,759.055 545.467,768.371 551.991,777.793C558.516,787.213 564.893,796.746 571.055,806.442C577.198,816.153 583.224,825.953 588.735,836.145L587.299,837.237Z" style="fill-rule:nonzero;"/>
    <path id="Board_copy" d="M675.227,415.229C670.281,423.182 665.415,431.198 660.688,439.277C655.948,447.424 651.301,455.629 646.993,463.953C644.856,468.118 642.796,472.324 641.041,476.565C640.177,478.677 639.371,480.824 638.85,482.868C638.166,485.467 636.98,488.027 635.325,490.244C633.67,492.466 631.574,494.322 629.302,495.758C627.026,497.199 624.585,498.254 622.113,499.027C619.636,499.8 617.123,500.304 614.603,500.61C613.342,500.763 612.08,500.866 610.811,500.918C610.177,500.944 609.541,500.959 608.901,500.958C608.24,500.956 607.66,500.949 606.886,500.901L608.695,500.552C604.219,503.267 599.73,505.955 595.224,508.613L597.569,505.833L589.126,536.923L588.078,540.779L583.836,540.848C518.287,541.909 452.738,542.716 387.19,543.255C321.641,543.784 256.092,544.155 190.544,544.276C124.996,544.453 59.447,544.172 -6.102,543.348C-38.876,542.973 -71.651,542.435 -104.425,541.895L-202.748,540.276L-207.784,540.193L-207.704,535.32C-206.948,489.065 -206.346,442.811 -206.035,396.556C-205.726,350.301 -205.708,304.047 -205.847,257.792C-205.999,211.537 -206.313,165.283 -206.909,119.028L-207.313,84.337L-207.809,49.646L-208.841,-19.736L-208.93,-25.734L-202.75,-25.827C-123.742,-27.016 -44.734,-28.134 34.273,-28.633L271.297,-30.071C350.305,-30.474 429.313,-30.604 508.32,-30.347C587.328,-30.112 666.336,-29.558 745.343,-28.805L754.392,-28.719L754.411,-19.848L754.603,70.032L754.549,159.915L754.461,204.857L754.312,249.8C754.14,279.763 754.076,309.724 753.797,339.689L753.787,340.8L753.339,341.608L731.75,380.513L731.34,381.251L730.749,381.61L702.932,398.527L675.227,415.229ZM673.787,413.778L700.736,395.136L727.586,376.72L726.585,377.818L746.184,337.873L745.726,339.791C744.711,309.843 743.911,279.892 743.001,249.942L741.747,205.016L740.555,160.089L738.292,70.235L736.274,-19.622L745.341,-10.666C666.333,-9.913 587.325,-9.359 508.318,-9.124C429.311,-8.866 350.303,-8.997 271.295,-9.4L34.271,-10.837C-44.737,-11.336 -123.745,-12.453 -202.752,-13.643L-196.661,-19.734L-197.693,49.648L-198.189,84.339L-198.593,119.03C-199.189,165.285 -199.503,211.539 -199.655,257.794C-199.794,304.048 -199.776,350.303 -199.467,396.558C-199.155,442.812 -198.553,489.067 -197.798,535.322L-202.754,530.366L-104.431,528.747C-71.657,528.207 -38.882,527.669 -6.108,527.294C59.441,526.471 124.99,526.19 190.538,526.366C256.087,526.487 321.636,526.858 387.184,527.387C452.733,527.926 518.282,528.734 583.83,529.794L578.54,533.72L588.763,503.168L589.464,501.072L591.108,500.388C595.936,498.378 600.781,496.401 605.638,494.449L606.68,494.03L607.448,494.1C607.852,494.137 608.454,494.164 608.973,494.177C609.513,494.19 610.058,494.191 610.605,494.181C611.697,494.16 612.793,494.105 613.88,494C616.055,493.795 618.201,493.42 620.252,492.839C624.347,491.686 628.068,489.643 630.485,486.552C631.696,485.012 632.592,483.239 633.168,481.286C633.935,478.781 634.911,476.54 635.933,474.325C637.994,469.922 640.29,465.736 642.655,461.596C647.391,453.33 652.468,445.324 657.669,437.407C662.872,429.491 668.182,421.663 673.667,413.944L673.787,413.778Z" style="fill-rule:nonzero;"/>
    <g id="Layer_6">
        <path d="M649.663,66.42C646.547,63.917 643.073,61.992 639.405,60.682C632.949,57.108 625.236,54.6 617.758,54.385C615.347,54.022 612.889,53.869 610.513,54.045C607.111,54.297 602.01,54.272 599.129,56.594C598.897,56.688 598.65,56.858 598.467,57.06C592.778,56.1 586.536,57.252 581.343,59.198C573.66,62.077 566.92,67.583 561.578,73.711C550.295,86.651 543.351,103.395 539.336,119.937C536.754,130.569 535.426,141.585 533.965,152.413C532.162,165.788 531.124,179.288 532.211,192.771C533.99,214.818 541.893,237.675 556.727,254.425C564.506,263.208 574.523,269.341 585.716,272.698C591.805,274.525 598.147,275.244 604.484,275.441C607.856,275.546 611.233,275.406 614.594,275.129C615.674,275.041 616.725,274.903 617.76,274.731C617.975,274.74 618.189,274.759 618.405,274.765C618.966,274.781 619.69,274.568 620.432,274.208C622.395,273.77 624.334,273.231 626.339,272.665C627.334,272.384 628.387,271.874 629.093,271.076C629.401,271.224 629.821,271.278 630.364,271.175C649.485,267.544 663.122,252.774 670.968,235.711C678.872,218.524 680.984,198.83 681.601,180.125C682.036,166.997 681.288,153.859 679.692,140.826C677.813,125.473 674.695,110.165 669.152,95.688C664.965,84.758 658.901,73.837 649.663,66.42ZM628.041,267.46C625.098,266.856 622.139,266.944 619.176,267.175C615.067,265.863 610.713,265.175 606.571,264.027C601.973,262.752 597.484,261.074 593.199,258.972C583.69,254.305 575.8,246.822 569.479,238.408C556.252,220.797 552.434,197.883 552.262,176.381C552.172,165.147 553.161,153.934 554.578,142.798C555.597,134.808 556.838,126.875 558.766,119.051C562.71,103.051 568.472,86.53 578.208,73.074C580.635,69.719 583.489,66.566 586.817,64.239C589.923,62.066 593.63,60.939 597.422,60.143C597.438,60.14 597.454,60.133 597.47,60.129C598.133,60.141 598.795,60.163 599.457,60.189C599.652,60.453 600.004,60.664 600.562,60.778C602.556,61.188 604.58,61.458 606.599,61.754C607.969,62.336 609.32,62.959 610.613,63.707C614.438,65.919 618.045,68.207 621.35,71.166C628.184,77.285 633.482,84.764 637.853,92.789C642.439,101.208 645.903,110.21 648.925,119.291C652.344,129.567 655.232,139.962 656.988,150.66C660.068,169.42 660.222,188.351 659.618,207.301C659.334,216.214 658.754,225.187 656.285,233.8C655.098,237.938 653.433,241.901 651.209,245.586C650.129,247.374 648.795,248.984 647.684,250.747C646.963,251.889 646.719,253.31 646.079,254.463C645.931,254.664 645.783,254.865 645.636,255.071C645.564,255.174 645.484,255.272 645.407,255.374C645.384,255.398 645.362,255.423 645.337,255.447C645.131,255.643 644.988,255.841 644.89,256.034C643.495,257.72 641.778,259.184 640.085,260.53C637.835,262.318 635.413,263.853 632.921,265.275C631.525,266.072 630.03,266.783 628.659,267.66C628.467,267.573 628.258,267.505 628.041,267.46Z" style="fill-rule:nonzero;"/>
        <path d="M160.5,170C162.208,169.016 163.917,168.367 165.625,167.82C167.333,167.281 169.042,166.892 170.75,166.606C172.458,166.315 174.167,166.139 175.875,166.043C177.583,165.94 179.292,165.985 181,166.33C184.417,166.976 187.833,168.59 191.25,168.892C194.667,169.226 198.083,168.729 201.5,167.764C203.208,167.307 204.917,166.814 206.625,166.478C208.333,166.126 210.042,165.966 211.75,165.775C215.167,165.396 218.583,164.994 222,165.157C225.417,165.32 228.833,165.806 232.25,166.55C235.667,167.319 239.083,168.303 242.5,170.001L242.5,171.001C239.083,172.699 235.667,173.683 232.25,174.452C228.833,175.195 225.417,175.681 222,175.845C218.583,176.009 215.167,175.607 211.75,175.227C210.042,175.036 208.333,174.876 206.625,174.524C204.917,174.188 203.208,173.695 201.5,173.238C198.083,172.273 194.667,171.776 191.25,172.11C187.833,172.411 184.417,174.026 181,174.672C179.292,175.017 177.583,175.062 175.875,174.959C174.167,174.863 172.458,174.687 170.75,174.396C169.042,174.11 167.333,173.721 165.625,173.182C163.917,172.635 162.208,171.986 160.5,171.002L160.5,170Z" style="fill-rule:nonzero;"/>
        <path d="M396.5,188C398.563,187.006 400.625,186.373 402.688,185.82C404.751,185.281 406.813,184.892 408.876,184.606C410.939,184.319 413.001,184.129 415.064,184.052C417.127,183.921 419.189,184.005 421.252,184.33C425.377,184.976 429.502,186.59 433.627,186.892C437.752,187.226 441.877,186.729 446.002,185.764C448.065,185.307 450.127,184.814 452.19,184.478C454.253,184.126 456.315,183.966 458.378,183.775C462.503,183.391 466.628,183.002 470.753,183.157C474.878,183.32 479.003,183.806 483.128,184.55C487.253,185.319 491.378,186.303 495.503,188.001L495.503,189.001C491.378,190.699 487.253,191.683 483.128,192.452C479.003,193.195 474.878,193.681 470.753,193.845C466.628,194.001 462.503,193.611 458.378,193.227C456.315,193.036 454.253,192.876 452.19,192.524C450.127,192.188 448.065,191.695 446.002,191.238C441.877,190.273 437.752,189.776 433.627,190.11C429.502,190.411 425.377,192.026 421.252,192.672C419.189,192.997 417.127,193.081 415.064,192.95C413.001,192.873 410.939,192.682 408.876,192.396C406.813,192.11 404.751,191.721 402.688,191.182C400.625,190.629 398.563,189.995 396.5,189.002L396.5,188Z" style="fill-rule:nonzero;"/>
        <path d="M396.5,154C398.563,153.006 400.625,152.373 402.688,151.82C404.751,151.281 406.813,150.892 408.876,150.606C410.939,150.319 413.001,150.129 415.064,150.052C417.127,149.921 419.189,150.005 421.252,150.33C425.377,150.976 429.502,152.59 433.627,152.892C437.752,153.226 441.877,152.729 446.002,151.764C448.065,151.307 450.127,150.814 452.19,150.478C454.253,150.126 456.315,149.966 458.378,149.775C462.503,149.391 466.628,149.002 470.753,149.157C474.878,149.32 479.003,149.806 483.128,150.55C487.253,151.319 491.378,152.303 495.503,154.001L495.503,155.001C491.378,156.699 487.253,157.683 483.128,158.452C479.003,159.195 474.878,159.681 470.753,159.845C466.628,160.001 462.503,159.611 458.378,159.227C456.315,159.036 454.253,158.876 452.19,158.524C450.127,158.188 448.065,157.695 446.002,157.238C441.877,156.273 437.752,155.776 433.627,156.11C429.502,156.411 425.377,158.026 421.252,158.672C419.189,158.997 417.127,159.081 415.064,158.95C413.001,158.873 410.939,158.682 408.876,158.396C406.813,158.11 404.751,157.721 402.688,157.182C400.625,156.629 398.563,155.995 396.5,155.002L396.5,154Z" style="fill-rule:nonzero;"/>
        <path d="M289.727,265.386C292.496,266.212 295.362,266.697 298.256,266.974C299.355,267.25 300.432,267.316 301.481,267.204C303.874,267.319 306.268,267.326 308.63,267.295C315.504,267.206 322.368,266.661 329.225,266.218C344.404,265.239 359.872,267.325 374.931,264.773C376.854,264.447 379.898,262.176 378.742,259.829C376.325,254.921 369.62,255.094 364.459,254.997C364.108,254.935 363.729,254.898 363.309,254.898C362.892,254.898 362.474,254.901 362.057,254.902C361.113,254.832 360.183,254.674 359.265,254.456C357.938,253.29 356.837,251.801 355.701,250.46C355.333,250.024 354.977,249.576 354.624,249.124C354.01,237.954 352.804,226.822 351.941,215.669C350.914,202.375 350.541,189.017 350.24,175.689C349.634,148.901 350.05,122.153 350.582,95.37C350.727,88.062 351.066,80.771 351.342,73.467C351.354,73.132 351.304,72.825 351.21,72.544C351.723,71.669 352.022,70.681 352,69.652C352,69.634 352.001,69.616 352.001,69.599C352.004,69.463 351.998,69.334 351.988,69.209C351.981,68.921 351.975,68.633 351.965,68.345C351.879,65.528 349.13,65.064 346.941,65.525C337.212,67.57 328.596,73.799 320.575,79.357C316.137,82.433 311.649,85.424 307.367,88.718C304.913,90.605 302.424,92.531 300.323,94.774C300.144,94.941 299.962,95.105 299.785,95.274C297.913,97.048 296.336,98.886 294.942,100.862C294.239,101.713 293.616,102.622 293.109,103.608C292.823,103.966 292.538,104.326 292.268,104.702C291.658,105.553 290.816,106.817 290.518,108.055C290.308,108.3 290.103,108.565 289.895,108.858C288.33,111.068 290.209,113.338 292.639,111.985C293.047,111.758 293.449,111.52 293.848,111.279C295.82,110.622 297.83,109.152 299.378,108.237C302.346,106.482 305.053,105.088 308.216,104.057C309.932,103.498 311.484,103.161 312.905,103.363C312.956,103.894 312.996,104.427 313.022,104.96C313.298,110.601 313.465,116.162 313.289,121.814C312.935,133.157 312.617,144.496 312.103,155.834C311.499,169.16 310.901,182.479 311.092,195.821C311.322,211.872 312.233,227.958 311.37,243.985C310.755,246.452 309.995,248.848 309.128,251.014C308.816,251.793 308.473,252.559 308.105,253.313C302.982,256.983 296.901,258.335 290.781,260.477C288.83,261.161 286.845,264.526 289.727,265.386Z" style="fill-rule:nonzero;"/>
        <path d="M43.727,265.386C46.496,266.212 49.362,266.697 52.256,266.974C53.355,267.25 54.432,267.316 55.481,267.204C57.874,267.319 60.268,267.326 62.63,267.295C69.504,267.206 76.368,266.661 83.225,266.218C98.404,265.239 113.872,267.325 128.931,264.773C130.854,264.447 133.898,262.176 132.742,259.829C130.325,254.921 123.62,255.094 118.459,254.997C118.108,254.935 117.729,254.898 117.309,254.898C116.892,254.898 116.474,254.901 116.057,254.902C115.113,254.832 114.183,254.674 113.265,254.456C111.938,253.29 110.837,251.801 109.701,250.46C109.333,250.024 108.977,249.576 108.624,249.124C108.01,237.954 106.804,226.822 105.941,215.669C104.914,202.375 104.541,189.017 104.24,175.689C103.634,148.901 104.05,122.153 104.582,95.37C104.727,88.062 105.066,80.771 105.342,73.467C105.354,73.132 105.304,72.825 105.21,72.544C105.723,71.669 106.022,70.681 106,69.652C106,69.634 106.001,69.616 106.001,69.599C106.004,69.463 105.998,69.334 105.988,69.209C105.981,68.921 105.975,68.633 105.965,68.345C105.879,65.528 103.13,65.064 100.941,65.525C91.212,67.57 82.596,73.799 74.575,79.357C70.137,82.433 65.649,85.424 61.367,88.718C58.913,90.605 56.424,92.531 54.323,94.774C54.144,94.941 53.962,95.105 53.785,95.274C51.913,97.048 50.336,98.886 48.942,100.862C48.239,101.713 47.616,102.622 47.109,103.608C46.823,103.966 46.538,104.326 46.268,104.702C45.658,105.553 44.816,106.817 44.518,108.055C44.308,108.3 44.103,108.565 43.895,108.858C42.33,111.068 44.209,113.338 46.639,111.985C47.047,111.758 47.449,111.52 47.848,111.279C49.82,110.622 51.83,109.152 53.378,108.237C56.346,106.482 59.053,105.088 62.216,104.057C63.932,103.498 65.484,103.161 66.905,103.363C66.956,103.894 66.996,104.427 67.022,104.96C67.298,110.601 67.465,116.162 67.289,121.814C66.935,133.157 66.617,144.496 66.103,155.834C65.499,169.16 64.901,182.479 65.092,195.821C65.322,211.872 66.233,227.958 65.37,243.985C64.755,246.452 63.995,248.848 63.128,251.014C62.816,251.793 62.473,252.559 62.105,253.313C56.982,256.983 50.901,258.335 44.781,260.477C42.83,261.161 40.845,264.526 43.727,265.386Z" style="fill-rule:nonzero;"/>
    </g>
</svg>
