<?xml version="1.0" encoding="UTF-8" standalone="no"?>
<!DOCTYPE svg PUBLIC "-//W3C//DTD SVG 1.1//EN" "http://www.w3.org/Graphics/SVG/1.1/DTD/svg11.dtd">
<svg width="100%" height="100%" viewBox="0 0 1024 1024" version="1.1" xmlns="http://www.w3.org/2000/svg" xmlns:xlink="http://www.w3.org/1999/xlink" xml:space="preserve" xmlns:serif="http://www.serif.com/" style="fill-rule:evenodd;clip-rule:evenodd;stroke-linejoin:round;stroke-miterlimit:1.41421;">
    <g id="girl_1_">
        <path d="M676.517,342.971C680.085,343.32 677.396,348.368 675.268,348.928C650.971,355.378 628.239,366.474 609.09,383.212C578.256,410.171 555.635,446.87 539.817,484.839C523.421,524.206 512.702,567.461 512.684,610.472C512.666,651.208 522.109,688.383 548.661,719.477C585.441,762.534 641.608,793.702 697.603,798.557C749.82,803.081 800.426,777.007 833.266,735.537C861.086,700.401 867.111,650.691 865.884,606.846C864.553,559.169 855.745,509.862 834.746,466.934C810.432,417.229 769.355,381.073 722.845,354.277C712.949,348.574 725.894,336.653 733.058,337.05C779.232,339.628 815.287,380.161 840.787,416.251C862.062,446.351 875.781,480.198 883.85,516.399C894.681,565.011 898.499,616.676 888.835,665.878C884.46,688.134 877.472,710.078 866.004,729.59C852.862,751.955 833.49,770.772 813.12,786.236C768.834,819.847 716.572,834.274 662.181,821.078C608.35,808.012 553.704,777.661 520.384,731.226C471.283,662.801 485.82,567.257 515.394,493.435C531.313,453.702 553.367,415.581 583.802,385.725C608.349,361.648 641.171,339.512 676.517,342.971Z" style="fill:rgb(211,211,211);fill-rule:nonzero;"/>
        <path d="M691.899,283.569C684.16,290.187 670.183,308.956 678.7,319.531C682.6,324.374 688.048,329.8 694.257,331.281C699.116,332.445 702.311,331.739 704.927,330.171C707.236,328.787 710.689,325.369 711.915,323.095C715.546,316.348 717.367,306.599 711.771,302.517C698.806,293.054 682.927,305.646 669.182,300.203C666.162,299.004 667.058,294.3 668.663,292.395C680.575,278.267 716.835,271.507 729.34,289.519C738.625,302.893 733.746,321.641 723.974,333.375C712.902,346.67 694.462,355.246 678.411,345.353C667.997,338.933 658.899,327.317 661.872,314.134C665.401,298.49 676.922,287.173 690.99,281.162C692.638,280.457 692.932,282.682 691.899,283.569Z" style="fill:rgb(211,211,211);fill-rule:nonzero;"/>
        <path d="M728.299,294.401C726.093,296.452 723.485,294.421 725.095,291.788C754.867,242.969 804.539,212.042 856.846,194.287C884.599,184.866 914.282,179.398 943.582,179.634C952.581,179.708 961.615,180.568 970.615,180.327C976.177,180.18 982.827,177.626 987.316,179.068C984.223,180.109 981.132,181.151 978.039,182.193C976.956,183.806 975.871,185.419 974.788,187.031C975.491,182.568 979.689,179.848 983.637,179.059C986.157,178.559 989.288,178.977 991.002,181.179C994.533,185.703 991.61,191.41 988.15,194.857C982.316,200.657 973.985,199.708 966.574,199.207C958.136,198.637 949.697,197.95 941.254,197.434C914.538,195.801 886.806,199.828 861.337,208.114C835.358,216.558 810.088,227.181 787.456,242.946C766.025,257.871 747.454,276.627 728.299,294.401Z" style="fill:rgb(211,211,211);fill-rule:nonzero;"/>
        <path d="M671.531,292.187C659.507,289.515 651.599,277.598 643.67,268.71C634.898,258.873 625.963,249.06 616.203,240.237C600.724,226.245 583.986,214.316 565.842,204.23C546.844,193.667 526.654,184.492 505.376,180.065C486.853,176.209 472.151,177.63 454.328,183.152C444.092,186.323 441.161,173.698 448.572,167.967C483.756,140.761 540.371,164.11 574.067,182.793C592.929,193.249 610.339,205.932 626.248,220.671C637.854,231.431 648.113,243.393 657.99,255.814C665.386,265.111 675.495,275.132 676.673,287.562C676.909,290.085 673.922,292.713 671.531,292.187Z" style="fill:rgb(211,211,211);fill-rule:nonzero;"/>
        <path d="M458.132,183.593C443.944,199.736 435.526,224.124 430.755,244.948C425.915,266.089 422.927,288.361 425.957,309.991C424.837,308.095 423.713,306.201 422.591,304.308C495.532,351.977 586.972,334.249 668.111,331.143C673.438,330.941 672.236,337.874 668.573,339.623C638.393,354.039 604.989,356.751 571.988,357.378C534.939,358.083 496.692,356.141 460.788,346.038C445.546,341.755 430.076,336.405 416.686,327.59C408.121,321.953 405.655,319.18 406.534,308.486C407.278,299.426 407.605,290.351 408.874,281.336C414.282,243.04 426.734,207.557 454.175,180.375C456.685,177.892 460.724,180.653 458.132,183.593Z" style="fill:rgb(211,211,211);fill-rule:nonzero;"/>
        <path d="M975.953,185.986C981.939,189.929 986.883,192.303 991.893,197.961C996.262,202.888 999.904,207.965 1003.25,213.682C1010.71,226.475 1016.64,240.138 1020.6,254.507C1027.84,280.738 1030.57,309.472 1021.2,335.507C1019.41,340.503 1010.33,347.001 1005.18,342.979C1000.64,339.434 999.885,337.785 998.797,332.029C997.779,326.631 1004.75,321.995 1009.24,322.617C1011.71,322.917 1014.16,323.287 1016.6,323.722C1012,326.474 1007.39,329.227 1002.79,331.981C1010.73,308.621 1007.93,281.814 1001.49,258.428C998.105,246.128 993.866,233.882 988.23,222.464C983.121,212.11 978.163,200.064 971.807,190.554C970.298,188.29 973.617,184.442 975.953,185.986Z" style="fill:rgb(211,211,211);fill-rule:nonzero;"/>
        <path d="M727.654,328.113C736.597,330.523 744.956,335.302 753.957,337.933C763.328,340.668 772.964,342.562 782.643,343.747C803.895,346.349 825.356,346.372 846.731,346.039C900.77,345.208 953.011,345.564 1005.51,330.062C1004.96,336.79 1004.41,343.514 1003.86,350.239C997.416,350.633 990.23,352.578 984.394,348.97C981.702,347.298 982.327,343.892 983.908,341.648C989.606,333.534 998.707,330.139 1008.19,329.509C1021.92,328.595 1015.76,347.01 1006.54,349.686C950.871,365.829 894.996,363.604 837.847,362.33C815.45,361.829 792.731,360.635 770.805,355.597C756.155,352.231 732.265,346.265 725.451,330.522C724.945,329.352 726.532,327.819 727.654,328.113Z" style="fill:rgb(211,211,211);fill-rule:nonzero;"/>
        <path d="M676.899,348.097C659.357,361.829 644.273,381.302 636.003,402.344C631.663,413.395 628.467,425.527 628.69,437.548C628.883,447.899 632.694,458.214 631.635,468.418C631.364,471.054 626.851,474.814 624.32,472.78C615.26,465.508 614.495,449.726 615.23,438.734C616.121,425.384 619.121,412.333 624.685,400.177C635.612,376.319 652.322,357.143 674.123,343.351C677.611,341.148 679.9,345.756 676.899,348.097Z" style="fill:rgb(211,211,211);fill-rule:nonzero;"/>
        <path d="M697.818,352.543C700.832,352.487 701.538,355.613 699.864,357.807C694,365.528 686.972,370.212 684.027,380.183C681.379,389.149 680.585,398.443 681.759,407.757C683.074,418.125 685.703,428.209 690.202,437.63C693.734,445.032 698.38,451.584 702.067,458.821C703.278,461.194 699.762,464.217 697.616,463.691C675.267,458.213 666.222,425.298 666.577,404.984C666.786,393.031 668.849,381.484 674.749,371.049C679.215,363.141 688.172,352.728 697.818,352.543Z" style="fill:rgb(211,211,211);fill-rule:nonzero;"/>
        <path d="M718.924,355.114C720.145,353.324 724.454,352.814 723.624,356.024C719.02,373.965 716.371,391.438 722.681,409.434C725.918,418.672 730.372,427.151 736.289,434.892C740.989,441.036 746.404,446.607 749.444,453.834C750.896,457.279 746.172,462.321 742.743,461.168C723.476,454.691 711.533,429.936 707.61,410.847C703.683,391.712 707.998,371.094 718.924,355.114Z" style="fill:rgb(211,211,211);fill-rule:nonzero;"/>
        <path d="M647.073,509.024C643.985,521.406 642.809,537.728 643.707,550.446C643.945,553.802 644.061,557.562 645.734,560.583C646.378,561.749 646.238,560.212 644.511,561.451C641.169,563.839 644.151,560.861 644.903,558.754C645.842,556.122 646.456,553.285 646.882,550.52C647.97,543.449 648.299,536.082 647.12,528.984C646.731,526.586 646.161,524.097 645.091,521.903C643.842,519.373 643.269,520.885 645.554,520.411C651.547,519.182 647.052,521.47 647.03,526.808C647.016,530.618 647.188,534.433 647.916,538.184C648.983,543.655 650.701,549.861 654.448,554.046C647.796,555.463 641.141,556.878 634.49,558.305C642.344,548.885 642.441,538.056 636.914,527.317C644.233,526.712 651.552,526.101 658.871,525.496C644.973,541.54 658.379,560.854 650.281,578.322C648.671,581.802 644.636,584.801 640.734,584.035C612.984,578.596 627.264,528.763 639.532,514.767C645.092,508.438 656.428,502.925 661.497,512.948C670.696,531.154 666.835,553.892 653.348,568.772C648.925,573.655 639.119,580.181 633.392,573.029C617.335,552.972 619.126,512.474 643.038,499.819C670.203,485.441 672.006,530.466 669.371,546.258C667.316,558.62 663.024,571.438 652.495,578.786C644.746,584.198 632.238,584.486 627.36,575.053C617.575,556.122 630.817,523.841 641.5,507.945C642.946,505.788 648.028,505.228 647.073,509.024Z" style="fill:rgb(1,1,1);fill-rule:nonzero;"/>
        <path d="M704.872,507.608C707.508,505.111 714.737,503.97 714.636,509.566C714.348,526.489 710.337,551.9 725.737,563.792C719.614,566.649 713.483,569.509 707.357,572.367C714.029,560.367 721.709,534.261 716.589,520.943C715.143,517.184 719.515,517.353 719.805,515.98C718.836,520.64 719.086,525.384 719.809,530.083C720.918,537.294 723.754,548.729 726.533,553.398C718.777,556.016 711.02,558.621 703.263,561.231C705.742,554.818 709.085,548.353 707.633,541.256C715.99,539.511 724.339,537.763 732.702,536.014C727.359,545.048 723.697,555.229 719.435,564.841C717.197,569.883 708.528,574.352 705.38,567.779C699.418,555.328 701.851,543.058 708.419,531.372C713.772,521.855 731.023,513.467 734.113,529.238C736.704,542.451 732.079,553.759 727.294,565.842C723.341,575.816 708.599,581.555 702.474,571.031C694.862,557.95 691.719,537.455 694.082,522.564C696.643,506.423 713.425,486.797 731.082,495.857C745.362,503.18 742.798,524.807 740.406,538.001C737.864,552.012 734.342,567.167 726.772,579.305C722.831,585.624 713.724,588.325 708.029,583.304C690.234,567.582 686.935,524.6 704.872,507.608Z" style="fill:rgb(1,1,1);fill-rule:nonzero;"/>
        <path d="M563.671,637.949C565.893,640.873 572.924,633.807 568.844,638.094C569.311,637.56 569.299,637.594 568.799,638.193C568.382,638.891 567.854,639.483 567.375,640.136C567.806,638.079 568.234,636.02 568.668,633.963C569.482,636.853 568.834,639.313 567.082,641.71C564.459,638.645 561.843,635.584 559.223,632.518C562.332,630.904 565.539,629.606 568.775,628.29C571.298,627.265 574.458,626.408 576.597,624.852C580.165,622.249 586.568,622.58 588.317,627.272C590.245,632.418 586.203,637.499 582.274,640.087C576.8,643.692 568.69,645.084 563.286,643.667C557.1,642.045 558.643,634.581 562.516,631.221C561.784,632.488 562.315,631.978 564.102,629.677C565.081,628.813 566.145,628.093 567.293,627.509C569.035,626.541 570.844,626.052 572.734,625.57C574.846,625.028 576.892,624.413 578.973,623.77C578.487,629.732 577.999,635.695 577.516,641.658C575.099,641.598 572.009,642.992 569.585,643.663C566.386,644.553 563.231,645.393 559.958,645.952C552.573,647.212 553.168,637.092 557.418,633.838C559.759,632.049 562.418,630.448 565.458,631.315C563.868,631.646 562.281,631.979 560.69,632.313C561.184,631.989 561.668,631.656 562.161,631.333C563.842,630.604 564.212,630.427 563.272,630.801C563.448,630.71 563.62,630.623 563.795,630.532C565.041,629.95 566.322,629.267 567.735,629.33C570.575,629.452 572.502,630.978 571.915,634.145C571.369,637.127 566.184,641.246 563.671,637.949Z" style="fill:rgb(211,211,211);fill-rule:nonzero;"/>
        <path d="M790.484,622.505C789.813,619.344 790.844,616.556 793.239,614.405C795.354,612.496 798.733,611.174 801.425,612.652C805.367,614.828 808.76,618.642 812.088,621.715C806.683,624.904 801.276,628.093 795.875,631.279C795.735,628.944 795.408,631.976 797.04,633.578C798.919,634.267 800.79,634.95 802.67,635.641C802.623,635.641 802.577,635.646 802.53,635.647C804.05,635.147 805.565,634.648 807.083,634.143C807.663,633.725 808.237,633.303 808.815,632.882C809.853,631.484 810.89,630.086 811.934,628.693C811.886,628.804 811.851,628.921 811.807,629.035C809.834,634.531 800.481,639.73 795.91,634.387C791.228,628.908 797.7,620.423 803.146,618.905C801.397,619.704 800.895,619.919 801.651,619.568C803.064,618.727 804.579,618.228 806.202,618.064C808.237,617.898 810.615,618.427 811.969,620.131C813.215,621.702 813.611,623.498 813.51,625.476C813.291,629.799 811.078,633.423 807.377,635.592C804.372,637.349 799.833,638.048 797.293,635.039C795.635,633.077 794.351,630.59 793.114,628.353C792.067,626.446 790.939,624.656 790.484,622.505Z" style="fill:rgb(211,211,211);fill-rule:nonzero;"/>
        <path d="M575.43,633.887C582.768,638.898 587.453,647.436 594.759,652.773C602.566,658.48 611.281,662.812 620.573,665.324C641.309,670.932 663.29,671.098 684.475,668.423C724.25,663.403 762.621,650.185 796.137,627.628C797.134,632.546 798.126,637.471 799.121,642.387C793.734,644.488 787.619,644.782 781.883,644.85C776.718,644.913 778.645,639.127 781.467,637.178C786.241,633.885 791.078,630.424 796.143,627.628C805.42,622.505 810.922,633.482 803.317,639.912C787.679,653.129 767.167,661.685 748.207,668.385C725.02,676.579 700.662,682.356 676.156,684.178C653.635,685.853 630.273,684.876 609.033,676.252C594.094,670.188 571.229,656.446 570.476,637.542C570.392,635.424 573.326,632.449 575.43,633.887Z" style="fill:rgb(211,211,211);fill-rule:nonzero;"/>
        <path d="M512.154,531.544C504.212,543.583 491.135,539.999 479.671,536.677C470.169,533.926 462.827,533.471 455.342,541.363C449.832,547.172 447.107,555.125 448.316,563.21C450.581,578.391 462.761,592.687 478.557,591.805C484.88,591.452 491.141,590.507 497.206,588.578C499.38,587.882 501.569,587.168 503.718,586.374C504.403,586.111 505.089,585.872 505.788,585.659C509.379,584.729 508.596,585.33 503.441,587.462C502.375,589.748 501.3,592.04 500.233,594.33C501.401,596.589 501.54,597.167 500.656,596.077C497.915,593.051 501.064,588.19 503.851,586.647C509.518,583.517 517.384,586.313 513.63,594.011C510.045,601.357 501.125,603.937 493.887,605.642C473.575,610.427 451.115,610.255 438.984,589.565C426.123,567.629 431.317,542.329 451.498,527.13C460.499,520.357 470.73,517.081 481.775,520.32C491.307,523.116 500.153,528.303 510.347,526.897C513.225,526.502 513.318,529.779 512.154,531.544Z" style="fill:rgb(211,211,211);fill-rule:nonzero;"/>
        <path d="M882.363,526.276C881.118,527.211 877.675,528.602 877.088,525.987C875.282,518.007 883.78,510.061 890.06,506.705C899.585,501.615 910.248,499.226 920.988,500.548C942.512,503.194 961.133,520.981 961.749,544.142C962.351,566.539 950.065,588.824 932.683,602.037C923.954,608.665 914.491,614.087 903.679,616.068C895.695,617.527 881.894,618.771 878.007,609.63C876.294,605.588 880.474,600.568 884.096,599.592C891.159,597.681 897.823,600.95 905.031,599.678C911.586,598.527 918.281,595.561 923.54,591.347C934.777,582.339 944.29,569.531 945.612,554.485C946.993,538.792 937.181,520.358 921.638,516.218C914.366,514.28 906.083,513.389 898.722,515.53C891.428,517.65 888.142,521.929 882.363,526.276Z" style="fill:rgb(211,211,211);fill-rule:nonzero;"/>
        <path d="M911.164,544.76C917.157,548.281 921.469,552.823 921.287,560.383C921.09,568.897 914.23,576.368 906.088,577.339C903.316,577.675 900.787,575.746 900.637,572.829C900.493,570.088 902.033,568.056 903.742,566.175C905.501,564.249 907.241,563.738 907.037,561.139C906.764,557.657 905.816,554.06 904.289,550.957C902.582,547.481 908.107,542.964 911.164,544.76Z" style="fill:rgb(211,211,211);fill-rule:nonzero;"/>
        <path d="M474.729,557.123C476.635,554.628 482.9,553.564 481.738,558.484C480.917,561.964 480.615,565.218 480.792,568.784C480.007,567.456 479.219,566.123 478.43,564.794C480.893,565.768 483.832,566.073 486.155,567.361C489.082,568.989 488.788,572.908 487.115,575.299C483,581.188 474.658,580.454 469.141,577.386C466.987,576.191 466.639,573.919 466.92,571.659C467.625,565.985 471.425,561.45 474.729,557.123Z" style="fill:rgb(211,211,211);fill-rule:nonzero;"/>
        <path d="M495.493,603.243C497.236,614.405 490.392,627.94 485.707,637.523C478.38,652.523 469.641,667.222 458.512,679.604C449.273,689.889 438.284,700.373 424.484,703.286C410.103,706.321 399.902,698.673 391.159,687.773C388.722,684.737 390.076,681.071 391.88,678.163C392.169,677.688 392.464,677.211 392.759,676.734C395.184,672.825 400.468,670.964 404.588,672.703C407.908,674.105 409.717,678.196 410.078,681.633C410.382,684.539 408.067,687.174 405.863,688.583C405.396,688.883 404.929,689.181 404.462,689.478C402.357,690.824 399.083,691.476 396.82,690.114C396.342,689.823 391.342,687.019 395.299,688.382C398.64,686.822 401.977,685.263 405.323,683.705C404.943,684.135 404.569,684.566 404.195,684.995C404.75,682.33 405.305,679.667 405.861,677.002C432.524,725.567 481.715,621.382 492.132,603.523C492.811,602.351 495.16,601.113 495.493,603.243Z" style="fill:rgb(211,211,211);fill-rule:nonzero;"/>
        <path d="M499.101,649.053C499.493,647.196 503.255,644.558 504.215,647.364C508.601,660.205 503.993,675.319 500.301,687.761C494.916,705.912 487.447,723.794 477.346,739.73C460.911,765.656 431.118,789.604 404.896,761.626C400.445,756.874 406.635,748.435 411.574,747.34C412.351,747.16 413.13,746.988 413.91,746.819C416.269,746.29 419.785,745.838 421.428,748.328C424.09,752.357 424.051,755.682 422.322,760.158C421.49,762.296 419.151,763.887 416.972,764.111C416.192,764.192 411.56,763.314 412.406,763.132C414.631,758.368 416.86,753.609 419.082,748.844C458.214,791.192 493.736,674.672 499.101,649.053Z" style="fill:rgb(211,211,211);fill-rule:nonzero;"/>
        <path d="M887.441,623.296C890.45,675.49 975.513,698.426 998.536,649.452C1001.88,652.212 1005.22,654.967 1008.57,657.725C1005.19,659.355 1001.9,660.872 998.31,661.938C995.456,662.777 991.886,661.042 992.901,657.452C994.671,651.179 998.262,647.615 1003.47,644.046C1009.48,639.942 1016.92,645.259 1013.51,652.32C998.808,682.729 965.434,697.047 933.466,689.945C902.22,683.006 878.761,659.135 881.41,625.276C881.641,622.357 887.195,619.099 887.441,623.296Z" style="fill:rgb(211,211,211);fill-rule:nonzero;"/>
        <path d="M883.417,670.368C884.287,701.638 922.107,714.836 946.531,720.129C962.912,723.684 979.782,725.391 996.508,723.96C1007.54,723.013 1021.11,721.539 1029.28,712.982C1029.57,717.548 1029.85,722.115 1030.13,726.681C1023.56,724.892 1016.28,725.118 1010.53,721.056C1007.17,718.681 1009.26,713.653 1012.4,712.093C1020.71,707.975 1028.83,707.669 1037.73,710.138C1044.84,712.11 1042.42,719.842 1038.58,723.839C1014.8,748.494 966.527,742.807 937.273,735.073C910.056,727.875 865.946,708.022 877.517,671.591C878.215,669.41 883.306,666.312 883.417,670.368Z" style="fill:rgb(211,211,211);fill-rule:nonzero;"/>
        <path d="M866.797,718.715C867.971,715.177 875.165,712.547 874.14,718.098C870.155,739.783 898.437,749.367 913.949,753.086C932.553,757.544 950.894,758.459 969.857,757.248C968.048,762.695 966.226,768.141 964.415,773.59C960.365,772.861 956.987,772.45 955.127,768.422C954.103,766.2 955.774,763.535 957.279,762.087C960.899,758.6 965.108,758.028 969.865,757.252C980.296,755.552 976.24,771.545 968.556,773.247C938.321,779.954 850.783,766.878 866.797,718.715Z" style="fill:rgb(211,211,211);fill-rule:nonzero;"/>
        <path d="M736.5,303.753C744.743,292.276 759.531,284.528 771.861,278.778C787.013,271.715 802.981,265.911 819.54,263.555C834.267,261.462 848.173,262.224 862.075,267.866C869.16,270.745 879.871,275.141 880.77,284.301C882.593,302.717 853.565,311.646 840.758,315.068C829.205,318.159 817.269,320.683 805.349,321.693C796.418,322.45 786.969,323.502 779.438,317.786C775.022,314.439 779.933,309.024 783.802,308.321C799.637,305.445 815.872,305.427 831.694,301.869C840.103,299.977 848.66,297.893 856.666,294.577C859.378,293.456 862.566,292.239 864.836,290.305C866.592,288.813 865.761,288.636 866.213,289.938C863.96,283.469 853.421,280.601 847.913,278.614C836.173,274.389 822.861,275.378 810.854,277.81C784.708,283.104 763.653,296.691 739.889,307.724C736.937,309.089 734.369,306.718 736.5,303.753Z" style="fill:rgb(211,211,211);fill-rule:nonzero;"/>
        <path d="M650.499,302.289C623.507,305.914 602.227,283.02 577.384,276.589C569.795,274.624 561.522,274.704 553.766,275.547C550.01,275.959 538.649,276.443 537.01,281.081C534.215,289.006 544.397,295.477 550.232,297.207C558.968,299.796 568.142,300.881 577.225,300.985C592.286,301.159 608.885,296.86 623.558,300.169C628.64,301.314 625.698,307.409 622.835,309.231C605.178,320.469 576.349,319.273 556.475,316.231C539.256,313.592 513.849,302.978 522.27,279.848C529.381,260.316 555.926,259.132 572.853,260.103C586.906,260.914 599.135,267.324 611.182,274.451C624.976,282.61 638.689,289.784 653.44,295.919C656.99,297.395 652.604,302.008 650.499,302.289Z" style="fill:rgb(211,211,211);fill-rule:nonzero;"/>
        <path d="M672.502,608.69C674.921,606.885 677.21,605.445 679.965,604.251C679.918,604.272 681.817,603.408 680.864,603.866C681.287,603.675 681.694,603.467 682.109,603.25C683.553,602.521 684.854,602.057 686.466,601.902C688.733,601.692 690.789,603.168 690.916,605.591C691.021,607.689 689.857,609.678 688.376,611.023C684.734,614.333 679.724,614.619 675.215,615.856C670.458,617.164 668.853,611.416 672.502,608.69Z" style="fill:rgb(211,211,211);fill-rule:nonzero;"/>
    </g>
    <g id="Layer_5">
        <path d="M384.915,216.877C384.88,240.823 380.641,264.799 372.155,287.403C367.91,298.699 362.647,309.672 356.328,320.074C349.998,330.465 342.657,340.312 334.342,349.339C325.992,358.323 316.771,366.592 306.684,373.727C301.653,377.31 296.405,380.595 291.02,383.645C285.605,386.642 280.051,389.408 274.347,391.833C251.524,401.583 226.63,406.321 201.832,405.785L199.596,405.725L197.247,405.635C195.696,405.553 194.161,405.457 192.619,405.34C189.541,405.107 186.469,404.799 183.408,404.416C177.289,403.638 171.204,402.615 165.213,401.199C153.225,398.407 141.553,394.432 130.428,389.359C108.151,379.234 88.104,364.837 71.186,347.559C54.264,330.264 40.556,309.906 30.955,287.667C28.555,282.108 26.427,276.427 24.585,270.649C22.706,264.883 21.089,259.024 19.776,253.09C17.177,241.206 15.586,229.111 15.254,216.842C14.897,204.688 15.716,192.361 17.75,180.248C18.768,174.186 20.079,168.163 21.702,162.216C23.352,156.278 25.3,150.413 27.534,144.654C36.477,121.606 50.309,100.425 67.665,82.659C76.344,73.773 85.894,65.713 96.168,58.674C106.449,51.649 117.434,45.627 128.918,40.738C151.869,30.896 176.927,25.978 201.876,26.085C226.825,26.206 251.788,31.343 274.601,41.3C280.304,43.786 285.854,46.602 291.259,49.653C296.64,52.747 301.874,56.08 306.897,59.699C316.96,66.912 326.173,75.217 334.5,84.247C342.804,93.306 350.13,103.178 356.459,113.582C359.62,118.787 362.52,124.137 365.143,129.604C367.793,135.057 370.151,140.637 372.279,146.288C380.758,168.915 384.967,192.913 384.918,216.87L384.918,216.877L384.915,216.877ZM383.316,216.872C383.299,193.112 378.135,169.386 368.294,147.942C358.487,126.465 344.112,107.371 326.98,91.767C309.839,76.129 289.917,63.954 268.664,55.621C258.027,51.464 247.034,48.273 235.837,46.197C224.637,44.151 213.261,43.088 201.877,43.175C179.109,43.25 156.441,47.703 135.322,56.183C124.765,60.432 114.62,65.733 105.076,71.981C95.523,78.213 86.552,85.372 78.359,93.355C45.559,125.289 25.365,170.163 24.014,216.9C23.302,240.125 27.182,263.784 35.974,285.588C44.631,307.442 58.005,327.477 74.836,343.912C91.649,360.388 111.995,373.072 133.81,381.205C144.723,385.273 155.996,388.249 167.413,390.084C173.125,390.982 178.856,391.696 184.61,392.074C187.486,392.269 190.365,392.394 193.243,392.449C194.681,392.476 196.126,392.485 197.556,392.48L199.68,392.472L201.917,392.441C224.836,391.938 247.666,387.304 268.914,378.732C290.158,370.15 310.027,357.846 327.135,342.132C335.689,334.287 343.567,325.612 350.507,316.177C357.461,306.754 363.522,296.597 368.414,285.853C378.25,264.386 383.383,240.638 383.315,216.868L383.315,216.872L383.316,216.872Z" style="fill-rule:nonzero;"/>
        <path d="M202.02,56.85C203.004,60.218 203.653,63.586 204.2,66.954C204.739,70.322 205.129,73.69 205.415,77.058C205.701,80.426 205.892,83.794 205.969,87.162C206.088,90.53 206.017,93.898 205.691,97.266C205.047,104.002 203.427,110.738 203.134,117.474C202.792,124.21 203.294,130.946 204.258,137.682C204.711,141.05 205.217,144.418 205.534,147.786C205.907,151.154 206.052,154.522 206.247,157.89C206.629,164.626 207.024,171.363 206.86,178.099C206.686,184.834 206.223,191.571 205.471,198.306C205.092,201.675 204.657,205.042 204.076,208.411C203.53,211.778 202.891,215.146 202.019,218.515L201.019,218.515C200.147,215.147 199.508,211.779 198.962,208.411C198.382,205.042 197.946,201.675 197.567,198.306C196.815,191.571 196.352,184.834 196.178,178.099C196.014,171.363 196.409,164.626 196.791,157.89C196.986,154.522 197.131,151.154 197.504,147.786C197.821,144.418 198.327,141.05 198.78,137.682C199.744,130.946 200.246,124.209 199.904,117.474C199.611,110.738 197.991,104.002 197.347,97.266C197.021,93.898 196.95,90.53 197.069,87.162C197.146,83.794 197.337,80.426 197.623,77.058C197.909,73.69 198.299,70.322 198.838,66.954C199.385,63.586 200.033,60.218 201.018,56.85L202.02,56.85Z" style="fill-rule:nonzero;"/>
        <path d="M275.983,143.446C275.154,145.723 274.067,147.748 272.921,149.717C271.766,151.677 270.503,153.532 269.166,155.315C267.83,157.099 266.426,158.815 264.939,160.452C263.492,162.128 261.89,163.652 260.116,165.009C256.57,167.726 252.331,169.767 249.032,172.723C245.711,175.658 242.984,179.171 240.593,183.011C239.379,184.913 238.191,186.841 236.891,188.659C235.602,190.487 234.174,192.182 232.77,193.899C229.961,197.335 227.159,200.772 223.963,203.831C220.764,206.885 217.332,209.712 213.717,212.361C210.084,214.991 206.295,217.471 201.996,219.455L201.279,218.758C203.145,214.406 205.523,210.553 208.054,206.85C210.605,203.164 213.339,199.658 216.304,196.377C219.276,193.101 222.638,190.206 225.995,187.307C227.673,185.857 229.329,184.384 231.122,183.046C232.905,181.697 234.8,180.457 236.669,179.192C240.442,176.698 243.882,173.878 246.726,170.478C249.593,167.101 251.519,162.808 254.138,159.19C255.448,157.38 256.928,155.738 258.564,154.246C260.161,152.716 261.838,151.265 263.585,149.882C265.331,148.498 267.151,147.186 269.079,145.978C271.017,144.78 273.012,143.638 275.265,142.748L275.983,143.446Z" style="fill-rule:nonzero;"/>
        <g>
            <circle cx="201.187" cy="218.851" r="4.667" style="fill:rgb(1,1,1);"/>
            <path d="M205.903,218.851C205.893,220.071 205.555,221.357 204.709,222.372C203.887,223.403 202.53,224.007 201.177,223.933C199.853,223.865 198.624,223.183 197.773,222.265C196.908,221.347 196.334,220.156 196.248,218.843C196.143,217.564 196.617,216.183 197.557,215.218C198.481,214.238 199.809,213.63 201.203,213.651C202.534,213.662 203.912,214.274 204.722,215.318C205.559,216.344 205.905,217.628 205.903,218.851ZM205.803,218.851C205.814,217.626 205.152,216.482 204.254,215.784C203.34,215.091 202.289,214.696 201.173,214.718C200.119,214.728 199.018,215.126 198.219,215.884C197.419,216.642 196.887,217.69 196.793,218.858C196.695,219.995 197.129,221.232 198.001,222.038C198.873,222.857 200.072,223.184 201.197,223.102C202.291,223.039 203.363,222.637 204.263,221.93C205.156,221.222 205.825,220.079 205.803,218.851Z" style="fill-rule:nonzero;"/>
        </g>
    </g>
    <g id="Layer_3">
        <path d="M570.653,579.217C564.786,584.83 558.563,589.82 552.259,594.666C545.943,599.489 539.478,604.053 532.912,608.435C526.348,612.82 519.685,617.037 512.914,621.056C509.539,623.086 506.149,625.088 502.677,626.946C500.947,627.884 499.195,628.787 497.427,629.659C495.672,630.555 493.888,631.399 492.096,632.231C477.763,638.879 462.473,643.842 448.479,651.09C441.454,654.663 434.672,658.666 428.007,662.875C421.338,667.076 414.912,671.706 408.504,676.367C405.305,678.708 402.124,681.079 398.908,683.388C395.704,685.719 392.491,688.034 389.229,690.262C382.728,694.76 376.038,698.924 369.378,703.141C356.061,711.58 342.749,720.03 328.899,727.531C321.978,731.288 314.967,734.886 307.878,738.347C300.807,741.839 293.655,745.191 286.436,748.422C279.218,751.655 271.926,754.76 264.529,757.679C257.127,760.587 249.652,763.368 241.941,765.735L240.954,763.995C246.94,758.59 253.161,753.599 259.455,748.736C265.754,743.883 272.159,739.215 278.637,734.677C285.114,730.137 291.659,725.718 298.284,721.439C304.89,717.127 311.576,712.955 318.351,708.94C331.893,700.898 345.974,693.803 360.049,686.7C367.086,683.146 374.091,679.538 381.287,676.264C384.873,674.607 388.508,673.035 392.152,671.481C395.784,669.904 399.451,668.389 403.1,666.844C410.388,663.734 417.659,660.591 424.685,657.021C431.717,653.459 438.632,649.691 445.302,645.493C458.701,637.197 470.803,626.617 483.863,617.722C485.495,616.611 487.136,615.512 488.805,614.465C490.461,613.395 492.133,612.354 493.827,611.35C497.202,609.322 500.66,607.438 504.133,605.582C511.058,601.83 518.093,598.275 525.224,594.889C532.355,591.499 539.586,588.291 546.967,585.342C554.36,582.418 561.835,579.635 569.665,577.477L570.653,579.217Z" style="fill-rule:nonzero;"/>
        <path d="M279.572,704.035C276.885,710.805 273.401,716.998 269.701,723.036C267.829,726.039 265.892,728.995 263.871,731.89C261.87,734.799 259.678,737.571 257.301,740.209C254.935,742.855 252.397,745.377 249.959,747.972C247.515,750.562 245.206,753.248 243.103,756.085C240.999,758.92 239.017,761.844 237.195,764.882C235.365,767.915 233.662,771.041 231.948,774.158L229.45,769.548C232.658,769.007 235.868,768.505 239.084,768.122C242.3,767.756 245.521,767.47 248.739,767.145C255.176,766.496 261.617,765.951 268.081,765.851C274.543,765.738 281.017,765.858 287.502,766.219C293.99,766.634 300.481,767.136 307.005,768.306L307.048,769.204C300.665,770.99 294.251,772.108 287.832,773.141C281.411,774.118 274.978,774.855 268.535,775.358C262.092,775.875 255.627,775.946 249.158,775.913C245.923,775.897 242.691,775.919 239.454,775.861C236.216,775.786 232.973,775.592 229.728,775.36L223.372,774.905L227.231,770.75C229.652,768.144 232.084,765.545 234.388,762.854C236.701,760.169 238.853,757.37 240.884,754.481C242.916,751.594 244.742,748.557 246.432,745.423C248.129,742.294 249.725,739.092 251.495,736.015C253.253,732.93 255.196,729.978 257.329,727.163C259.443,724.335 261.641,721.567 263.904,718.847C268.473,713.438 273.258,708.184 278.841,703.506L279.572,704.035Z" style="fill-rule:nonzero;"/>
        <path d="M678.647,600.216C672.78,605.829 666.557,610.819 660.254,615.665C653.938,620.488 647.473,625.052 640.908,629.434C634.342,633.819 627.681,638.036 620.91,642.055C617.535,644.085 614.144,646.087 610.672,647.945C608.942,648.883 607.19,649.786 605.422,650.658C603.666,651.554 601.883,652.398 600.092,653.23C585.758,659.878 570.469,664.841 556.475,672.089C549.45,675.662 542.667,679.665 536.002,683.874C529.334,688.075 522.908,692.705 516.5,697.366C513.301,699.707 510.12,702.078 506.903,704.387C503.699,706.718 500.486,709.033 497.224,711.261C490.723,715.759 484.033,719.923 477.373,724.14C464.056,732.579 450.744,741.029 436.894,748.53C429.973,752.287 422.962,755.885 415.873,759.346C408.802,762.838 401.65,766.19 394.431,769.421C387.213,772.654 379.921,775.759 372.524,778.678C365.122,781.586 357.647,784.367 349.936,786.734L348.949,784.994C354.935,779.589 361.156,774.598 367.45,769.735C373.749,764.882 380.154,760.214 386.632,755.676C393.109,751.136 399.654,746.717 406.279,742.438C412.885,738.126 419.571,733.954 426.346,729.939C439.888,721.897 453.969,714.802 468.044,707.699C475.081,704.145 482.086,700.537 489.282,697.263C492.868,695.606 496.503,694.034 500.147,692.48C503.779,690.903 507.446,689.388 511.095,687.843C518.383,684.733 525.654,681.59 532.68,678.02C539.712,674.458 546.626,670.69 553.297,666.492C566.696,658.196 578.798,647.616 591.859,638.721C593.49,637.61 595.13,636.511 596.8,635.464C598.456,634.394 600.128,633.353 601.821,632.349C605.196,630.321 608.655,628.437 612.128,626.581C619.052,622.829 626.089,619.274 633.22,615.888C640.351,612.498 647.581,609.29 654.962,606.341C662.355,603.417 669.829,600.634 677.659,598.476L678.647,600.216Z" style="fill-rule:nonzero;"/>
        <path d="M387.567,725.034C384.88,731.804 381.396,737.997 377.696,744.035C375.824,747.038 373.887,749.994 371.866,752.889C369.865,755.798 367.673,758.57 365.296,761.208C362.93,763.854 360.392,766.376 357.954,768.971C355.51,771.561 353.201,774.247 351.098,777.084C348.994,779.919 347.012,782.843 345.19,785.881C343.36,788.914 341.657,792.04 339.943,795.157L337.445,790.547C340.653,790.006 343.863,789.504 347.079,789.121C350.295,788.755 353.516,788.469 356.734,788.144C363.171,787.495 369.612,786.95 376.076,786.85C382.538,786.737 389.012,786.857 395.497,787.218C401.985,787.633 408.476,788.135 415,789.305L415.043,790.203C408.66,791.989 402.246,793.107 395.827,794.14C389.406,795.117 382.973,795.854 376.53,796.357C370.087,796.874 363.622,796.945 357.153,796.912C353.918,796.896 350.686,796.918 347.449,796.86C344.211,796.785 340.968,796.591 337.723,796.359L331.367,795.904L335.226,791.749C337.647,789.143 340.079,786.544 342.383,783.853C344.696,781.168 346.848,778.369 348.879,775.48C350.911,772.593 352.737,769.556 354.427,766.422C356.124,763.293 357.72,760.091 359.49,757.014C361.248,753.929 363.191,750.977 365.324,748.162C367.438,745.334 369.636,742.566 371.899,739.846C376.468,734.437 381.253,729.183 386.836,724.505L387.567,725.034Z" style="fill-rule:nonzero;"/>
    </g>
</svg>
