<?xml version="1.0" encoding="utf-8"?>
<!-- Generator: Adobe Illustrator 23.0.1, SVG Export Plug-In . SVG Version: 6.00 Build 0)  -->
<svg version="1.1" id="Layer_3" xmlns="http://www.w3.org/2000/svg" xmlns:xlink="http://www.w3.org/1999/xlink" x="0px" y="0px"
	 viewBox="0 0 566.9 566.9" style="enable-background:new 0 0 566.9 566.9;" xml:space="preserve">
<path d="M333.3,80.6c-1.2-6.6-7.1-29.7-15.2-35.8c-4.9-3.7-11.1-5.4-17.1-6.7c-10.7-2.3-21.8-2.8-32.7-3.1
	c-41.4-1-103.6,7.3-133.7,51.1c-9.8,14.3-17.2,29.9-20.7,46.8c-4.5,22-19.5,342.1-2.6,409.9c0.5,1.9,25.3,2.4,24.8,0.4
	c-14.4-57.7,0-364.5,1.1-387.2c0.8-16,4.5-32.1,11.9-46.4c17.7-34.3,54.1-50,91.1-53.1c13.9-1.2,28.1-0.9,42,0.1
	c9.1,0.7,11.5-0.6,20.1,2.7c4.5,1.7,9.1,5.7,10.5,10.3c1.5,5,2.4,12.8,2.4,12.8s-22.9-0.5-48.4,24.6c-29.4,29.4-22,67.8-19.8,67.7
	c12.9-0.4,33.3,0.7,46.1,1.3c13.5,0.7,27,1,40.5,0.9c26.7-0.2,53.3-1.9,79.8-5C409,90.8,340.5,85.1,333.3,80.6z M294.1,155.1
	c-12.2-0.6-24.4-1.6-36.6-1.4c1.7-6.6,7.2-17.8,22.8-33c29-19.7,71.3-24.9,97.5,1.3c16.5,18,19,25.5,20.8,30.5
	c-25,2.8-40,3.3-65.2,3.4C320.4,156,307.2,155.8,294.1,155.1z"/>
<path d="M400.4,209.1c-0.7-4.4-1.7-9.6-4.2-13.2c-0.7-1.1-1.6-1.8-2.4-2.2c-0.5-0.8-1.2-1.3-1.9-1.2c-3.2,0.5-7.8,0.3-10.1,3.2
	c-2.5,3.2-2,8.3-1.4,12.3c0.7,4.4,1,9.7,2.9,13.6c1.7,3.6,4.9,4.9,8.2,5.2c2.9,0.2,7.5-0.8,9.1-3.9
	C402.5,219.3,401.1,213,400.4,209.1z"/>
<path d="M411.2,258.5c-0.7-4.4-1.7-9.6-4.2-13.2c-0.7-1.1-1.6-1.8-2.4-2.2c-0.5-0.8-1.2-1.3-1.9-1.2c-3.2,0.5-7.8,0.3-10.1,3.2
	c-2.5,3.2-2,8.3-1.4,12.3c0.7,4.4,1,9.7,2.9,13.6c1.7,3.6,4.9,4.9,8.2,5.2c2.9,0.2,7.5-0.8,9.1-3.9
	C413.2,268.8,411.8,262.4,411.2,258.5z"/>
<path d="M424.1,308c-0.7-4.4-1.7-9.6-4.2-13.2c-0.7-1.1-1.6-1.8-2.4-2.2c-0.5-0.8-1.2-1.3-1.9-1.2c-3.2,0.5-7.8,0.3-10.1,3.2
	c-2.5,3.2-2,8.3-1.4,12.3c0.7,4.4,1,9.7,2.9,13.6c1.7,3.6,4.9,4.9,8.2,5.2c2.9,0.2,7.5-0.8,9.1-3.9
	C426.2,318.3,424.7,311.9,424.1,308z"/>
<path d="M437.7,357.5c-0.7-4.4-1.7-9.6-4.2-13.2c-0.7-1.1-1.6-1.8-2.4-2.2c-0.5-0.8-1.2-1.3-1.9-1.2c-3.2,0.5-7.8,0.3-10.1,3.2
	c-2.5,3.2-2,8.3-1.4,12.3c0.7,4.4,1,9.7,2.9,13.6c1.7,3.6,4.9,4.9,8.2,5.2c2.9,0.2,7.5-0.8,9.1-3.9
	C439.8,367.8,438.4,361.5,437.7,357.5z"/>
<path d="M452.7,407.1c-0.7-4.4-1.7-9.6-4.2-13.2c-0.7-1.1-1.6-1.8-2.4-2.2c-0.5-0.8-1.2-1.3-1.9-1.2c-3.2,0.5-7.8,0.3-10.1,3.2
	c-2.5,3.2-2,8.3-1.4,12.3c0.7,4.4,1,9.7,2.9,13.6c1.7,3.6,4.9,4.9,8.2,5.2c2.9,0.2,7.5-0.8,9.1-3.9
	C454.7,417.3,453.3,411,452.7,407.1z"/>
<path d="M282.4,222.9c1.7,3.1,6.2,4.2,9.1,3.9c3.3-0.3,6.4-1.6,8.2-5.2c1.9-3.9,2.2-9.2,2.9-13.6c0.7-4,1.1-9.1-1.4-12.3
	c-2.3-2.9-6.9-2.7-10.1-3.2c-0.7-0.1-1.4,0.4-1.9,1.2c-0.9,0.4-1.7,1.1-2.4,2.2c-2.5,3.5-3.5,8.8-4.2,13.2
	C281.9,213,280.5,219.3,282.4,222.9z"/>
<path d="M271.7,272.3c1.7,3.1,6.2,4.2,9.1,3.9c3.3-0.3,6.4-1.6,8.2-5.2c1.9-3.9,2.2-9.2,2.9-13.6c0.7-4,1.1-9.1-1.4-12.3
	c-2.3-2.9-6.9-2.7-10.1-3.2c-0.7-0.1-1.4,0.4-1.9,1.2c-0.9,0.4-1.7,1.1-2.4,2.2c-2.5,3.5-3.5,8.8-4.2,13.2
	C271.2,262.4,269.8,268.8,271.7,272.3z"/>
<path d="M258.7,321.8c1.7,3.1,6.2,4.2,9.1,3.9c3.3-0.3,6.4-1.6,8.2-5.2c1.9-3.9,2.2-9.2,2.9-13.6c0.7-4,1.1-9.1-1.4-12.3
	c-2.3-2.9-6.9-2.7-10.1-3.2c-0.7-0.1-1.4,0.4-1.9,1.2c-0.9,0.4-1.7,1.1-2.4,2.2c-2.5,3.5-3.5,8.8-4.2,13.2
	C258.2,311.9,256.8,318.3,258.7,321.8z"/>
<path d="M245.1,371.3c1.7,3.1,6.2,4.2,9.1,3.9c3.3-0.3,6.4-1.6,8.2-5.2c1.9-3.9,2.2-9.2,2.9-13.6c0.7-4,1.1-9.1-1.4-12.3
	c-2.3-2.9-6.9-2.7-10.1-3.2c-0.7-0.1-1.4,0.4-1.9,1.2c-0.9,0.4-1.7,1.1-2.4,2.2c-2.5,3.5-3.5,8.8-4.2,13.2
	C244.6,361.5,243.2,367.8,245.1,371.3z"/>
<path d="M230.1,420.9c1.7,3.1,6.2,4.2,9.1,3.9c3.3-0.3,6.4-1.6,8.2-5.2c1.9-3.9,2.2-9.2,2.9-13.6c0.7-4,1.1-9.1-1.4-12.3
	c-2.3-2.9-6.9-2.7-10.1-3.2c-0.7-0.1-1.4,0.4-1.9,1.2c-0.9,0.4-1.7,1.1-2.4,2.2c-2.5,3.5-3.5,8.8-4.2,13.2
	C229.7,411,228.2,417.3,230.1,420.9z"/>
<path d="M334.9,230.8c2.3,2.7,7,2.7,9.8,1.8c3.1-1,5.9-3,6.8-6.9c1-4.3,0.1-9.5-0.2-13.9c-0.2-4.1-0.9-9.1-4.1-11.7
	c-2.9-2.4-7.4-1.1-10.6-0.9c-0.8,0-1.3,0.7-1.6,1.6c-0.8,0.6-1.4,1.5-1.9,2.7c-1.7,4-1.5,9.4-1.2,13.8
	C332.3,221.3,332.3,227.7,334.9,230.8z"/>
<path d="M335.4,281.3c2.3,2.7,7,2.7,9.8,1.8c3.1-1,5.9-3,6.8-6.9c1-4.3,0.1-9.5-0.2-13.9c-0.2-4.1-0.9-9.1-4.1-11.7
	c-2.9-2.4-7.4-1.1-10.6-0.9c-0.8,0-1.3,0.7-1.6,1.6c-0.8,0.6-1.4,1.5-1.9,2.7c-1.7,4-1.5,9.4-1.2,13.8
	C332.8,271.8,332.8,278.3,335.4,281.3z"/>
<path d="M333.8,332.5c2.3,2.7,7,2.7,9.8,1.8c3.1-1,5.9-3,6.8-6.9c1-4.3,0.1-9.5-0.2-13.9c-0.2-4.1-0.9-9.1-4.1-11.7
	c-2.9-2.4-7.4-1.1-10.6-0.9c-0.8,0-1.3,0.7-1.6,1.6c-0.8,0.6-1.4,1.5-1.9,2.7c-1.7,4-1.5,9.4-1.2,13.8
	C331.2,323,331.2,329.4,333.8,332.5z"/>
<path d="M331.6,383.8c2.3,2.7,7,2.7,9.8,1.8c3.1-1,5.9-3,6.8-6.9c1-4.3,0.1-9.5-0.2-13.9c-0.2-4.1-0.9-9.1-4.1-11.7
	c-2.9-2.4-7.4-1.1-10.6-0.9c-0.8,0-1.3,0.7-1.6,1.6c-0.8,0.6-1.4,1.5-1.9,2.7c-1.7,4-1.5,9.4-1.2,13.8
	C328.9,374.3,328.9,380.7,331.6,383.8z"/>
<path d="M328.1,435.4c2.3,2.7,7,2.7,9.8,1.8c3.1-1,5.9-3,6.8-6.9c1-4.3,0.1-9.5-0.2-13.9c-0.2-4.1-0.9-9.1-4.1-11.7
	c-2.9-2.4-7.4-1.1-10.6-0.9c-0.8,0-1.3,0.7-1.6,1.6c-0.8,0.6-1.4,1.5-1.9,2.7c-1.7,4-1.5,9.4-1.2,13.8
	C325.4,425.9,325.4,432.4,328.1,435.4z"/>
</svg>
