<?xml version="1.0" encoding="utf-8"?>
<!-- Generator: Adobe Illustrator 15.1.0, SVG Export Plug-In . SVG Version: 6.00 Build 0)  -->
<!DOCTYPE svg PUBLIC "-//W3C//DTD SVG 1.1//EN" "http://www.w3.org/Graphics/SVG/1.1/DTD/svg11.dtd">
<svg version="1.1" id="Layer_3" xmlns="http://www.w3.org/2000/svg" xmlns:xlink="http://www.w3.org/1999/xlink" x="0px" y="0px"
	 width="1024px" height="1024px" viewBox="0 0 1024 1024" enable-background="new 0 0 1024 1024" xml:space="preserve">
<g id="boy">
	<path fill="#010101" d="M233.663,355.583c-42.405-7.058-82.003,23.647-104.653,56.572c-25.545,37.136-38.165,82.364-43.512,126.691
		c-5.393,44.69-4.935,92.344,19.306,131.832c26.712,43.511,78.348,59.155,126.97,56.073c30.384-1.927,61.037-10.527,87.37-25.93
		c13.458-7.873,26.154-18.206,35.123-31.053c8.898-12.745,13.565-27.816,15.436-43.126c1.872-15.309,1.262-30.757,0.647-46.122
		c-0.644-16.138-1.771-32.094-4.111-48.087c-4.677-31.95-11.76-65.147-23.716-95.24c-7.969-20.055-21.092-38.91-35.157-55.13
		c-13.249-15.28-31.662-33.142-53.462-31.209c-8.394,0.745-18.848,16.351-6.543,19.125c7.556,1.704,17.569,7.636,24.354,13.242
		c9.883,8.167,18.4,17.983,26.15,28.152c7.141,9.37,13.532,19.315,18.877,29.817c5.933,11.653,9.595,24.393,13.255,36.898
		c9.385,32.056,15.794,65.314,17.405,98.715c1.296,26.877,5.708,60.1-9.922,83.89c-15.429,23.485-46.988,34.88-73.013,41.08
		c-25.314,6.03-52.557,6.491-77.832,0.146c-21.633-5.43-41.114-17.383-55.563-34.36c-15.653-18.391-23.764-42.029-26.665-65.74
		c-4.988-40.768,0.849-84.146,12.264-123.354c11.176-38.38,29.559-78.628,64.78-100.503c15.114-9.386,32.354-12.593,49.699-15.043
		C234.148,362.496,238.566,356.401,233.663,355.583L233.663,355.583z"/>
	<path fill="#010101" d="M138.893,571.653c2.446,0.042,4.871-0.704,7.258-1.205c2.586-0.544,3.185-0.723,6.041-0.98
		c4.637-0.418,9.386-4.823,9.126-9.7c-0.29-5.455-6.182-5.393-9.874-3.603c-2.063,0.999-4.083,2.09-6.134,3.117
		c-1.304,0.653-2.604,1.313-3.908,1.971c-0.568,0.287-1.137,0.571-1.704,0.863c0.997-0.512-3.016,2.15-1.29,0.924
		C135.165,565.343,132.929,571.549,138.893,571.653L138.893,571.653z"/>
	<path fill="#010101" d="M152.196,569.031c0.999,13.744,14.218,21.249,25.889,25.259c14.8,5.085,31.399,5.015,46.808,3.715
		c16.713-1.409,33.378-5.036,49.276-10.335c13.03-4.342,26.598-10.046,37.19-19.001c3.096-2.617,4.467-6.31,3.561-10.213
		c-0.727-3.142-0.668-5.889-2.241-8.85c-4.857,4.262-9.713,8.524-14.568,12.784c3.438,1.959,6.689,5.673,10.932,5.327
		c1.36-0.11,1.802-0.397,2.818-0.636c1.345-0.444,2.547-1.137,3.61-2.075c-2.345,1.675-2.345,1.675,0,0
		c2.896-2.756,4.866-6.383,3.731-10.472c-1.119-4.032-5.703-6.213-9.145-7.915c-8.168-4.039-18.238,6.84-13.527,14.515
		c1.144,1.86,1.079,4.764,1.694,6.836c1.187-3.406,2.373-6.811,3.561-10.215c-3.587,3.334-5.435,4.55-10.846,7.53
		c-5.269,2.907-10.787,5.263-16.405,7.394c-14.166,5.375-29.014,9.085-44.012,11.187c-14.452,2.024-29.285,2.46-43.631-0.521
		c-12.239-2.544-20.784-9.104-29.854-17.094C155.193,564.629,152.029,566.743,152.196,569.031z"/>
	<path fill="#010101" d="M99.67,504.095c-0.117-4.533-0.249-7.23-2.728-11.245c-2.102-3.408-6.026-4.914-9.643-6.134
		c-8.5-2.869-18.511-0.492-26.334,3.165c-14.653,6.847-22.808,22.25-21.337,38.1c1.301,14.061,9.526,27.536,21.068,35.515
		c12.72,8.792,27.35,4.674,37.153-6.174c3.175-3.512,1.729-10.151-3.782-9.489c-4.421,0.529-10.504,3.262-11.57,8.234
		c-1.083,5.057,5.397,5.485,8.71,5.111c-1.26-3.162-2.521-6.326-3.781-9.489c-4.844,5.29-12.202,3.403-18.397-0.752
		c-8.21-5.506-13.387-15.236-15.75-24.584c-2.318-9.166,0.015-19.307,8.058-24.838c8.5-5.846,31.014-10.028,34.315,4.358
		C96.179,508.175,99.713,505.781,99.67,504.095L99.67,504.095z"/>
	<path fill="#010101" d="M352.969,500.08c5.035-13.261,22.682-19.487,35.283-14.536c12.345,4.849,23.256,17.226,23.628,30.77
		c0.289,10.535-7.016,20.281-15.307,26.039c-5.126,3.564-10.813,5.854-16.853,7.337c-6.762,1.654-15.477-0.922-21.379,2.826
		c-2.174,1.383-5.065,4.671-3.647,7.536c3.638,7.348,17.883,3.921,24.346,2.6c8.808-1.801,17.253-6.021,24.415-11.382
		c12.84-9.613,22.561-24.86,21.085-41.391c-1.549-17.369-18.473-33.833-35.388-36.498c-9.013-1.421-18.735,1.36-26.164,6.461
		c-7.542,5.178-11.226,11.484-13.416,20.081C349,502.179,352.372,501.651,352.969,500.08L352.969,500.08z"/>
	<path fill="#010101" d="M374.466,513.371c1.998-0.123,4.444-2.172,6.021-1.369c1.084,0.552,1.893,2.901,2.146,4.606
		c0.342,2.311-0.003,5.516-0.546,7.003c-0.225,0.617-0.52,1.204-0.816,1.787c0.688-1.356-1.508,1.632-0.042,0.138
		c-1.033,1.054,0.379-0.138,0.763-0.303c-1.151,0.491-2.335,0.777-3.432,1.446c-4.764,2.903-7.185,11.648,0.657,11.691
		c5.931,0.034,11.348-6.449,13.319-11.509c1.892-4.85,2.03-9.951,0.749-14.965c-1.042-4.079-3.904-7.566-8.138-8.42
		c-4.67-0.942-11.676,2.842-12.607,7.693C372.287,512.465,373.149,513.452,374.466,513.371L374.466,513.371z"/>
	<path fill="#010101" d="M76.598,510.543c-7.001-1.48-13.831,5.893-16.492,11.536c-3.686,7.812-0.777,15.795,5.744,20.821
		c5.674,4.373,15.866-8.276,8.797-11.613c-3.27-1.546-5.789-3.913-5.275-7.816c0.568-4.329,4.418-5.827,7.533-8.095
		C78.516,514.202,79.021,511.055,76.598,510.543z"/>
	<path fill="#010101" d="M191.96,482.648c-3.358,6.994-4.353,15.767-4.958,23.424c-0.668,8.473-0.276,17.191,3.802,24.841
		c4.007,7.513,14.3,2.74,17.06-3.475c4.315-9.714,6.486-20.263,6.281-30.898c-0.097-4.942-1.197-10.127-3.391-14.558
		c-1.107-2.24-2.567-4.287-4.297-6.076c-0.881-0.792-1.793-1.542-2.741-2.252c-0.18-0.098-7.111-1.866-3.316-0.892
		c-6.198-1.591-13.29,4.627-14.431,10.405c-1.554,7.86-2.375,18.54,0.266,26.173c1.443,4.17,6.474,4.869,10.137,3.698
		c4.709-1.506,8.054-5.338,9.403-9.995c2.293-7.916,1.501-18.185-0.258-26.174c-3.048,4.898-6.096,9.795-9.145,14.693
		c-0.434,0.124-0.869,0.247-1.305,0.37c-2.099-0.747-4.197-1.495-6.294-2.243c10.339,8.599,5.38,26.103,1.796,36.942
		c5.589-2.505,11.181-5.013,16.771-7.518c-8.057-11.497-0.678-26.368-4.728-38.633C200.825,475.075,193.468,479.508,191.96,482.648
		L191.96,482.648z"/>
	<path fill="#010101" d="M240.838,479.743c-7.464,5.615-9.505,17.182-10.65,25.856c-1.339,10.145-1.359,20.919,2.396,30.579
		c3.557,9.144,15.084,1.605,18.048-3.677c9.316-16.59,14.302-41.616,2.785-58.066c-5.008-7.148-16.188,0.859-18.689,6.129
		c-1.771,3.739-3.489,7.92-2.732,12.102c2.09,11.499,15.144,5.181,19.021-1.542c1.273-2.206,2-4.623,3.013-6.96
		c-6.229,2.043-12.457,4.085-18.687,6.128c4.753,4.008,4.232,12.169,3.583,17.767c-0.854,7.323-2.983,14.393-5.772,21.185
		c5.64-1.851,11.28-3.701,16.92-5.552c-3.81-5.766-4.065-14.61-4.257-21.25c-0.206-7.147,2.08-14.398,1.524-21.426
		C247.049,477.311,242.871,478.213,240.838,479.743L240.838,479.743z"/>
	<path fill="#010101" d="M211.861,359.242c-10.915-0.262-22.937,12.254-28.259,20.64c-6.286,9.908-12.409,25.291-6.617,36.643
		c3.646,7.146,13.949,1.318,15.038-4.846c1.54-8.708,1.355-17.141,5.182-25.33c1.756-3.762,4.284-7.19,6.96-10.339
		c3.125-3.678,7.395-6.047,10.509-9.712C217.226,363.295,215.807,359.337,211.861,359.242z"/>
	<path fill="#010101" d="M230.469,371.158c-12.019,3.07-20.104,11.813-24.969,23.056c-3.677,8.496-9.519,25.771-1.863,33.551
		c3.972,4.037,9.939-0.077,12.066-3.958c3.997-7.287,3.276-16.569,5.104-24.56c1.57-6.869,5.25-15.964,11.311-20.135
		C235.857,376.54,236.714,369.562,230.469,371.158L230.469,371.158z"/>
	<path fill="#010101" d="M240.713,388.166c-3.475,9.532-8.356,20.987-7.534,31.27c0.849,10.599,16.285,4.16,17.292-3.494
		c1.192-9.034-0.519-18.146,0.526-27.296C251.786,381.756,242.536,383.165,240.713,388.166z"/>
</g>
<path fill="#010101" d="M754.708,362.56"/>
<path fill="#010101" d="M738.065,472.704c9.493-25.002,42.765-36.74,66.523-27.405c23.274,9.142,43.848,32.477,44.549,58.013
	c0.544,19.862-13.228,38.237-28.859,49.096c-9.666,6.719-20.387,11.037-31.773,13.829c-12.748,3.122-29.181-1.734-40.309,5.331
	c-4.101,2.605-9.551,8.807-6.877,14.206c6.859,13.856,33.718,7.397,45.902,4.904c16.605-3.397,32.529-11.352,46.032-21.461
	c24.207-18.124,42.535-46.869,39.754-78.038c-2.92-32.747-34.83-63.788-66.72-68.812c-16.993-2.679-35.323,2.564-49.33,12.182
	c-14.219,9.762-21.165,21.651-25.295,37.859C730.583,476.662,736.94,475.666,738.065,472.704L738.065,472.704z"/>
<path fill="#010101" d="M747.791,504.05c3.768-0.232,8.38-4.095,11.353-2.582c2.044,1.041,3.568,5.472,4.045,8.685
	c0.645,4.356-0.006,10.4-1.03,13.205c-0.424,1.163-0.979,2.269-1.54,3.367c1.3-2.555-2.843,3.077-0.079,0.261
	c-1.948,1.986,0.716-0.261,1.438-0.57c-2.17,0.926-4.403,1.465-6.47,2.727c-8.982,5.473-13.547,21.962,1.237,22.045
	c11.184,0.063,21.395-12.161,25.113-21.7c3.565-9.146,3.827-18.763,1.412-28.216c-1.965-7.689-7.361-14.265-15.345-15.876
	c-8.806-1.776-22.014,5.357-23.77,14.506C743.684,502.341,745.309,504.202,747.791,504.05L747.791,504.05z"/>
<path fill="#010101" d="M739.114,202.761c-73.847-12.365-142.804,41.423-182.246,99.101
	c-44.486,65.054-66.463,144.284-75.775,221.933c-9.391,78.29-8.593,161.767,33.621,230.942
	c46.517,76.223,136.439,103.626,221.113,98.228c52.91-3.374,106.291-18.44,152.149-45.422
	c23.437-13.792,45.545-31.894,61.164-54.398c15.495-22.327,23.623-48.727,26.88-75.548c3.259-26.816,2.197-53.88,1.127-80.793
	c-1.122-28.272-3.086-56.222-7.161-84.239c-8.143-55.97-20.478-114.123-41.299-166.838c-13.878-35.132-36.73-68.162-61.224-96.577
	c-23.071-26.767-55.137-58.056-93.1-54.671c-14.619,1.305-32.824,28.643-11.395,33.503c13.156,2.986,30.595,13.376,42.41,23.198
	c17.212,14.306,32.043,31.503,45.539,49.316c12.438,16.413,23.567,33.835,32.875,52.232c10.331,20.414,16.709,42.731,23.082,64.638
	c16.343,56.154,27.505,114.417,30.311,172.927c2.256,47.082,9.939,105.281-17.279,146.956c-26.868,41.14-81.826,61.1-127.147,71.962
	c-44.085,10.564-91.525,11.37-135.541,0.254c-37.671-9.51-71.597-30.45-96.761-60.19c-27.256-32.216-41.382-73.628-46.435-115.162
	c-8.687-71.415,1.479-147.405,21.356-216.088c19.462-67.233,51.476-137.738,112.813-176.059
	c26.318-16.442,56.342-22.059,86.547-26.352C739.958,214.871,747.652,204.194,739.114,202.761L739.114,202.761z"/>
<path fill="#010101" d="M595.383,414.978c-11.679,8.786-14.873,26.885-16.664,40.458c-2.096,15.875-2.127,32.733,3.75,47.848
	c5.566,14.306,23.604,2.51,28.24-5.754c14.577-25.959,22.379-65.118,4.359-90.857c-7.837-11.186-25.332,1.343-29.244,9.59
	c-2.771,5.851-5.46,12.392-4.274,18.936c3.269,17.992,23.694,8.107,29.762-2.414c1.993-3.451,3.131-7.234,4.716-10.891
	c-9.746,3.198-19.491,6.393-29.24,9.59c7.438,6.271,6.622,19.041,5.605,27.799c-1.336,11.459-4.668,22.521-9.031,33.147
	c8.825-2.896,17.649-5.79,26.476-8.686c-5.96-9.023-6.36-22.862-6.661-33.251c-0.322-11.183,3.255-22.53,2.385-33.525
	C605.103,411.172,598.565,412.583,595.383,414.978L595.383,414.978z"/>
<path fill="#010101" d="M502.531,675.469c26.15-2.205,52.228-7.881,77.104-16.172c20.388-6.793,41.619-15.718,58.192-29.731
	c4.843-4.094,6.989-9.872,5.571-15.98c-1.138-4.914-1.045-9.214-3.507-13.846c-7.601,6.667-15.198,13.338-22.795,20.003
	c5.379,3.064,10.467,8.876,17.105,8.335c2.127-0.172,2.819-0.621,4.409-0.994c2.104-0.695,3.985-1.778,5.648-3.247
	c-3.667,2.621-3.667,2.621,0,0c4.531-4.313,7.615-9.988,5.84-16.386c-1.752-6.309-8.923-9.721-14.309-12.385
	c-12.781-6.319-28.537,10.702-21.166,22.712c1.789,2.91,1.688,7.454,2.651,10.695c1.855-5.329,3.712-10.656,5.569-15.982
	c-5.611,5.216-8.505,7.119-16.97,11.783c-8.245,4.548-16.88,8.234-25.672,11.567c-22.164,8.411-45.397,14.217-68.866,17.506"/>
<path fill="#010101" d="M675.899,244.926c-21.56,0.512-38.668,12.166-51.299,29.314c-9.545,12.957-26.183,39.943-16.251,56.11
	c5.155,8.39,16.87,3.749,21.988-1.994c9.613-10.786,12.015-26.791,18.232-39.613c5.339-11.024,15.123-24.995,27.018-29.696
	C682.924,256.147,687.1,244.661,675.899,244.926L675.899,244.926z"/>
<path fill="#010101" d="M689.175,255.579c-8.826,15.271-20.642,33.408-22.34,51.259c-1.746,18.401,26.624,12.038,30.658-0.761
	c4.769-15.106,4.59-31.222,9.143-46.573C710.067,247.947,693.806,247.568,689.175,255.579z"/>
</svg>
