<?xml version="1.0" encoding="utf-8"?>
<!-- Generator: Adobe Illustrator 23.0.1, SVG Export Plug-In . SVG Version: 6.00 Build 0)  -->
<svg version="1.1" id="Layer_3" xmlns="http://www.w3.org/2000/svg" xmlns:xlink="http://www.w3.org/1999/xlink" x="0px" y="0px"
	 viewBox="0 0 566.9 566.9" style="enable-background:new 0 0 566.9 566.9;" xml:space="preserve">
<path d="M395.1,119.9c0-0.2,0-0.3,0-0.5c-0.4-5.1,0.3,3.4-0.1-1.7c-0.4-4.8,0-3.7-1.5-8.3c-1.9-6-10.1-4.9-15.8-4.7
	c-1.4-20.3-5.5-43.5-20.8-57.3C348.7,40,336.2,35,325.1,33c-12.4-2.2-25.1,3.4-36.4,8.2c-10.3,4.4-20.4,9.8-26.6,19.5
	c-6,9.3-8.1,20.6-8.9,31.5c-2.2,28.2-1.8,56.9-1.6,85.3c0.3,31,1.6,62,4.1,92.9c-5.7-0.1-11.4-0.1-17.1-0.2c-4.3,0-4.4,12.4,0,12.5
	c19.1,0.2,59.7,0.9,60.1,0.6c7.7,0.1,15.4,0.1,23.1,0.2c4.3,0,4.4-12.4,0-12.5c-7-0.1-19.7-0.1-26.7-0.2
	c1.7-41.7,6.6-83.6,4.5-125.3c-0.6-10.9-0.6-21.7-0.9-32.6c-0.2-8.8,1.6-21.5,10-26.8c5.5-3.5,17.2-6.7,23.4-3.2
	c4.5,2.6,4,8.1,4.2,12.6c0.2,3.5,0.4,7.1,0.5,10.6c-5.6-0.1-6.5-1.6-11.8,1.1c-7.7,3.8-6.9,7.5-6,13.1c0.9,5.6,5.7,7.5,9,7.8
	c5.4,0.6,7.5,0.9,13,1.1c11.7,0.4,23.4,0,35-1.3c4.6-0.5,11.7-0.2,15.7-2.6C394.9,123.4,395.2,120.4,395.1,119.9z M330.5,63.7
	c-6.6-1.7-18.2,0.2-24.4,2.6c-7.3,2.8-18.4,14.7-20.5,22c-5.2,18.4-4.8,38.4-3.9,57.2c1,20.5,0.1,41-0.2,61.5
	c-0.3,21.3-1.1,42.5-2,63.7c-10.8-0.1,5-0.2-5.9-0.3c-4.2-50.3-5-100.8-3.7-151.2c0.5-20.6-1.6-46.1,18.1-58.9
	c18.8-12.1,32.4-15.3,51.2-7.2c20.5,8.8,20.8,30.5,22.9,51.8c-9.4,0.1-4.3-0.3-13.7,0c-0.2-7.2-0.3-14.5-1.4-21.5
	C345.8,75.3,343.1,66.9,330.5,63.7z M378.1,120.9c-4.3,0.5-8.7,0.9-13.1,1.2c-8.7,0.6-17.5,0.6-26.3,0.2c-4.4-0.2-5.4-0.5-9.7-0.9
	c-3.9-0.4-4.1,0.7-3.9-3.2c0.3-4.9,0.4-4.3,4.9-4.8c4.1-0.5,10.8,0.5,11.1,0.4c3.5-0.2,7-0.4,10.6-0.5c6.1-0.3,12.2-0.4,18.3-0.5
	c0.7,0,9.4,0,10.2,0c2,0,5.9-0.4,8.4,0.2c0.5,3.7,0.4,7.5,0.4,7.5S380.3,120.6,378.1,120.9z"/>
<g>
	<path d="M462.2,423.4c0.2-0.4,0.4-0.9,0.6-1.3C462.6,422.3,462.4,422.8,462.2,423.4C462.2,423.5,462.2,423.4,462.2,423.4z"/>
	<path d="M495.1,289.5c-0.8-13-10.1-11.5-10.1-11.5s-51-2.6-75.3-1c-26.3,1.7-52.7,2.8-79.1,3c-52.9,0.4-105.7-1.6-158.6-1.2
		c-29.5,0.2-59,1.2-88.4,3.8c-6.8,0.6-8.4,11.3-8.3,16.5c0,1.2-1.8,60.2,2.3,87.3c4.1,27.6,10,57.4,30.9,77.6
		c17.9,17.4,42.5,26.7,66.6,31.4c16.7,3.3,34.9,2.4,51.8,2.1c8.4-0.1,16.6-1,25-1.4c0.1,14.3,0.1,28.6-0.1,42.9c0,2.9,1,11.3,5.5,11
		c19.7-1.1,39.5-0.9,59.2,0.6c5.6,0.4,6.9-10.6,4.4-17.2c0,0.2,0,0.5,0,0.8c0,0,0,0,0,0c0-0.3,0-0.5,0-0.8c0,0,0-0.1,0-0.1
		c0-0.5,0-0.8,0-0.4c0-1.4-0.1-2.9-0.1-4.3c0-5.3,0.1-10.6,0.3-15.9c0.2-5.8,0.4-11.6,0.7-17.3c6.4,0,12.7-0.1,19.1-0.1
		c24.9-0.1,49.2,1.3,73.2-6.8c18-6.1,34.3-16.2,48.5-28.7c4.2-3.7,8.2-7.5,11-12.3c8.8-15.1,15.2-31.2,17.5-48.6
		c2.4-17.8,2.4-36.1,3.2-54.1C495.3,326.4,496.7,307.9,495.1,289.5z M309.9,519.8c-0.1,2.8-0.1,5.6-0.1,8.5
		c-15.6-1-31.3-1.1-46.9-0.4c0.1-10.7,0.1-21.3,0-32c9.4-0.2,18.9-0.1,28.3-0.2c6.5,0,13-0.1,19.5-0.1
		C310.5,503.6,310.1,511.7,309.9,519.8z M477.1,362.2c-0.2,3.2-0.3,6.4-0.5,9.7c-0.1,1.9-0.2,3.8-0.3,5.7c0-0.1-0.2,3.4-0.2,3.6
		c-1,13.6-4.1,24.1-10.6,36.5c-0.7,1.3-1.8,2.9-2.7,4.5c0.4-0.5,0.5,0.1-0.4,1.1c-0.1,0.1-0.1,0.2-0.2,0.2c-0.1,0.3-0.2,0.5-0.3,0.8
		c0.1-0.3,0.2-0.5,0.2-0.7c-1.2,1.3-2.4,2.6-3.6,3.9c-1,1-2,2-3.1,2.9c-0.3,0.3-1.9,1.6-2.2,1.9c-2.9,2.4-5.9,4.7-9,6.9
		c-7.3,5.1-15,9.5-23.1,13.2c-9.7,4.4-19.9,7.5-30.5,9c-12.1,1.7-24.5,1.1-36.7,1.1c-17,0-33.9,0.1-50.9,0.2
		c-21.5,0.1-43-0.1-64.4,1.6c-15.6,1.2-31.5,0.7-47.1-0.1c-18.9-1-37.3-5.9-54.3-14.6c-11.1-5.6-21-13-28.3-23.1
		c-3.6-4.9-6.6-11.3-8.3-16.3c-2.1-6.2-3.7-12.6-4.6-17.4c-2.8-14.7-4.8-29.5-6.1-44.4c-0.1-0.7-0.1-1.2-0.1-1.5
		c0-0.3,0-0.8-0.1-1.4c-0.1-2.4-0.2-4.9-0.2-7.3c0-3.4,0-6.8,0.2-10.2c0,0.1,0.4-3.8,0.3-3.6c0.2-1.8,0.4-3.6,0.7-5.4
		c0.2-1.4,0.4-2.6,0.7-3.8c101.5-7.8,203.5,2.3,305.1-4.1c27.4-1.7,56.2-5,83,2.7c-0.2,9.1-1,18.7-1.4,27.4
		C477.7,348,477.4,355.1,477.1,362.2z"/>
	<path d="M321,533.5c0-0.2,0-0.4,0-0.5C320.9,533.2,320.9,533.3,321,533.5C321,533.5,321,533.5,321,533.5z"/>
</g>
<path d="M435.9,225.3c-5.4-7.1-15.5-4-23.2-3.6c-9.6,0.6-19.1,0.9-28.7,1c-5.8,0.1-16.5-2-19.5,4.7c-1.7,3.8-1.4,8.9-1.7,13.1
	c-0.5,5.2-1,10.3-1.4,15.5c-0.1,0.9-0.2,2.6,0.1,4c-0.2,1.2-0.3,2.3-0.6,3.4c-0.5,2.4-1.3,4.9-1.1,7.4c-3.1,0.2-6.2,0.4-9.3,0.7
	c-3.9,0.4-3.6,11.4,0,11c15.1-1.5,30.2-1.5,45.3,0c3.6,0.4,4-10.6,0-11c-5.7-0.6-11.3-0.9-17-1.1c0.1-0.3,0.1-0.5,0.1-0.8
	c0.3-2.5,0.7-5,1-7.4c0.3-2.2,1.3-5.2,1-7.4c0.2-0.5,0.3-0.8,0.3-1.1c0.9,0,1.8,0,2.8,0c2.6,0,5.1-0.1,7.7-0.1
	c9.6-0.2,19.2-0.3,28.8-0.5c6-0.1,18.8,2.4,20.5-5.5C442.5,240.7,440,230.7,435.9,225.3z M426.3,241.8c-3.8,0.1-7.7,0.1-11.5,0.2
	c-7.7,0.1-15.4,0.3-23,0.4c-4.7,0.1-13.2-2-15.1,3.6c-2,5.8-2.1,12.9-2.8,19.1c-2.4-0.1-4.9-0.1-7.4-0.3c0.4-2.1,0.6-4.1,0.7-6.2
	c0.1-1.1,0.1-2.7-0.2-4.1c0.3-3.1,0.6-6.2,0.9-9.2c0.2-2.3,0.4-4.5,0.6-6.8c0.1-1,0.2-1.9,0.3-2.9c0-0.4,0.1-0.7,0.1-0.9
	c3.6-1.9,9.3-0.9,13.2-1c4.1,0,8.3-0.1,12.4-0.2c8.6-0.2,17.2-0.7,25.8-1.3c4.1-0.3,9.5-1.6,12.4,2c1.3,1.6,2.4,4.6,2.9,7.1
	C432.7,242.1,429.1,241.8,426.3,241.8z"/>
<path d="M212.1,270.4c-3.9-0.4-7.9-0.7-11.8-0.9c0.2-2.3-0.5-4.5-1-6.7c-0.3-1.3-0.5-2.7-0.7-4c0.3-1.5,0.2-3.1,0.1-3.9
	c-0.5-5.2-1-10.3-1.4-15.5c-0.4-4.1,0-9.2-1.7-13.1c-3-6.7-13.7-4.6-19.5-4.7c-9.6-0.1-19.2-0.4-28.7-1c-7.7-0.5-17.8-3.5-23.2,3.6
	c-4.1,5.5-6.5,15.5-5.1,22.1c1.7,7.9,14.4,5.4,20.5,5.5c9.6,0.2,19.2,0.3,28.8,0.5c2.6,0,5.1,0.1,7.7,0.1c0.9,0,1.8,0,2.8,0
	c0.1,0.3,0.2,0.7,0.3,1.1c-0.3,2.2,0.7,5.2,1,7.4c0.3,2.5,0.7,5,1,7.4c0,0.3,0.1,0.6,0.2,0.9c-4.8,0.2-9.7,0.5-14.5,1
	c-3.9,0.4-3.6,11.4,0,11c15.1-1.5,30.2-1.5,45.3,0C215.7,281.8,216.1,270.8,212.1,270.4z M168.3,241.4c-7.7-0.1-15.4-0.3-23-0.4
	c-3.5-0.1-7-0.1-10.6-0.2c-3.1-0.1-7.1,0.3-10.3-0.5c0.4-2.6,1.6-5.5,2.9-7.1c2.9-3.7,8.4-2.3,12.4-2c8.6,0.6,17.2,1.1,25.8,1.3
	c4.1,0.1,8.3,0.2,12.4,0.2c3.9,0,9.6-0.9,13.2,1c0,0.3,0.1,0.6,0.1,0.9c0.1,0.6,0.1,1.3,0.2,1.9c0.2,2.6,0.5,5.2,0.7,7.7
	c0.3,3.1,0.6,6.2,0.9,9.3c-0.3,1.4-0.2,3.1-0.2,4c0.2,2.1,0.4,4.2,0.7,6.2c-2.4,0.2-5,0.2-7.4,0.3c-0.7-6.2-0.8-13.4-2.8-19.1
	C181.5,239.4,173.1,241.5,168.3,241.4z"/>
</svg>
