<?xml version="1.0" encoding="utf-8"?>
<!-- Generator: Adobe Illustrator 23.0.1, SVG Export Plug-In . SVG Version: 6.00 Build 0)  -->
<svg version="1.1" id="Layer_3" xmlns="http://www.w3.org/2000/svg" xmlns:xlink="http://www.w3.org/1999/xlink" x="0px" y="0px"
	 viewBox="0 0 566.9 566.9" style="enable-background:new 0 0 566.9 566.9;" xml:space="preserve">
<style type="text/css">
	.st0{fill:none;}
	.st1{fill:#FFFFFF;}
</style>
<path d="M431.6,422.8c-20.8-23.1-26-52.6-29.9-82.3c-0.4-2.9-2.2-8.6-6.2-7c-3.8,1.6-3.9,9.1-3.5,12.3c4.4,33.8,10.9,68.1,34.5,94.3
	c3,3.4,5.9-0.6,6.8-3.6C434.6,432.5,434.6,426.2,431.6,422.8L431.6,422.8z"/>
<path d="M121,499.2c23.8-20.2,33.3-49.6,40.7-78.9c1-4,1.4-10.4-1.8-13.7c-3.1-3.1-6,0.3-6.8,3.6c-6.8,27.1-15,53-37.1,71.7
	C111.2,486,113.9,505.2,121,499.2L121,499.2z"/>
<g>
	<path d="M549.4,371.2c-12.4-22.6-26.9-44-39.5-66.5c-1-1.8-2-3.6-3-5.5l-53.6-130.1c-0.1-0.3-0.2-0.6-0.2-1c-0.2-1-0.5-2.1-0.7-3.1
		c-0.1-0.6-0.3-1.3-0.3-1.7c-1.1-5.8-2.1-11.7-2.8-17.6c-0.3-2.7-0.6-5.3-0.8-8c0-0.1,0-0.1,0-0.2c-0.1-1.7-0.2-3.4-0.2-5
		c-0.1-2.3-0.3-5.8-1.1-9.3c0-0.2,0-0.4,0-0.6c6.4-21.5,4.6-46-7.1-65.1c-0.3-0.6-0.7-1-1.1-1.4c-0.9-2.4-2.3-4-4.2-3.8
		c-38.1,3.4-75.8-4.8-113.9-5.7c-38.3-0.9-76.3,4.4-114.5,5.9c-21.4,0.9-42.8,0.4-64-2.7c-0.6-0.1-1.2,0-1.7,0.3
		c-0.9,0.3-1.8,1.2-2.5,2.5c-10.1,20.5-12.2,44.3-6.6,66.3c-0.1,3.3,0.5,6.6,1.8,8.6c-3.6,12.5-8.4,24.6-12.9,36.7
		c-0.9,2.4-1.8,4.8-2.7,7.2c-0.4,1.2-2.1,5.3-0.2,0.6c-0.6,1.4-1.1,2.9-1.7,4.3c-2.1,5.4-4.3,10.9-6.4,16.3
		c-4.6,11.6-9.3,23.1-14,34.7C78.4,268,61.4,308.7,43.1,348.8c-2.6,5.6-5.1,11.3-8.1,16.7c-10.4,19.3-23.7,36.3-30.3,57.5
		c-2.5,8.1-2.4,20.7,3.6,27.4c0.5,0.5,1,1,1.4,1.3c21.4,34.1,61.1,45.5,98.7,51.7c33.8,5.6,68.2-3.6,100.2-14
		c34.3-11.1,67.9-25.3,103.4-32.5c18.2-3.7,36-3.9,54.5-3.9c22.5,0,45-0.5,67.3-3.4c20.4-2.6,41.2-6.8,60.5-14.3
		c17.9-6.9,33.7-17.5,48-30.2c3.2,0,5.8-3.3,7-5.9C553.2,391.4,553.8,379.2,549.4,371.2z M255.3,69.2c19.2-1.5,38.5-2.8,57.8-2.7
		c19.1,0.1,38,2,56.9,3.9c21,2.1,42.2,3.8,63.3,2.1c7.4,12.5,8.9,26.7,5.1,40.2c-0.1,0-0.1,0-0.2,0c-1.1,0-2.1,0.3-3,0.7
		c-77.5-2.8-155-6-232.5-8.4c-21.1-0.6-41.9,0.2-62.7,3.7c-2.9-12.9-1.6-26.4,3.7-38.7C180.8,75.2,218.2,72,255.3,69.2z
		 M446.3,427.9c-21.5,3.7-43.3,4.9-65.1,5.2c-19,0.3-38-0.9-56.9,1.8c-34.3,5-67,17.9-99.6,29.1c-31.9,11-65.4,22.2-99.6,21.2
		c-20.6-0.6-42.5-5.5-61.7-12.8c-15.7-6-31-15-41.7-28.1c0.1-0.3,0.2-0.7,0.3-1c0.1-0.4,1.8-5,1.5-4.5c0.8-1.9,1.6-3.7,2.5-5.5
		c2-4.2,4.3-8.3,6.7-12.3c4.7-7.9,9.8-15.5,14.4-23.4c3.2-5.6,6-11.3,8.6-17.2c7.6-16.6,14.9-33.3,22.1-50.1
		c19.8-45.9,39-92.1,56.9-138.8c6.3-16.6,13.3-33.4,17.5-50.6c1-4.2,1.7-9.3,1.3-14.2c33.4-3.8,67.2-1.2,100.8,0
		c39.9,1.4,79.8,2.9,119.7,4.3c18.1,0.7,36.1,1.3,54.2,2c1.6,46.6,16.1,91.7,34.6,134.2c15.4,35.4,34.2,69.3,54.2,102.4
		c4.8,7.8,9.8,15.5,14.4,23.4c-10.8,8.7-22.5,16-35.3,21.4C480.3,421.1,463.3,424.9,446.3,427.9z"/>
	<path d="M266.4,320.1c-4.2-0.1-4.9,7.4-5,10c-1.8,34.7-5.9,68.9-28.5,96.8c-2.9,3.6-3.1,9.4-1.8,13.7c0.8,2.8,3.9,7.2,6.8,3.6
		c26.6-32.7,31.3-73.4,33.5-114C271.6,327.1,270.5,320.2,266.4,320.1z"/>
</g>
<g>
	<path class="st0" d="M420.5,71.1c0,0,0,0.2,0.1,0.5C420.6,71.3,420.6,71.1,420.5,71.1z"/>
	<path class="st1" d="M414.9,72.1c0,0,0.1,0,0.1,0C414.9,72.1,414.9,72.1,414.9,72.1z"/>
	<path class="st1" d="M432.4,280.5c-0.2-1.4-0.2-2.8-0.3-4.3c-0.4-6.1-0.4-12.3-0.5-18.5c-0.6-41.7-0.8-83.6-5.6-125.1
		c-1.1-9.9-2.5-19.7-4.6-29.4c-1.8-8.5-5.2-16.4-7.4-24.6c-0.7-2.7-1-5.6-0.8-8.4c0,0,0,0-0.1,0c-0.3-0.1-0.7,0.1-0.9,0
		c-1.4-0.3-3.2,0-4.6,0c-3.4,0-6.7,0-10.1,0c4,9.3,5.5,19.6,6.7,30c7.5,66.9,7,134.7,8.1,202c5.6-5.1,11.1-10.3,16.7-15.4
		C431.6,284.6,432.7,284,432.4,280.5z"/>
	<path d="M439.9,279c-0.1-1.1-0.3-2.2-0.4-3.3c0-0.5-0.1-1-0.1-1.5c-0.1-2.8-0.2-5.6-0.2-8.4c-0.4-18.9-0.4-37.9-1-56.8
		c-0.7-24.4-1.8-48.9-4.3-73.2c-2.1-20.3-4.7-41.4-12-60.6c0-0.1-0.7-1.6-1.1-2.8c1.1-2.8,0.9-6.5,0-9.3c-1.2-4-4.9-7.7-9.2-7.8
		c-8.3-0.3-16.6,0-24.8,0c-4.7,0-5.2,12.2-1.4,14.6c8.7,10.3,10.2,22.4,11.6,35.4c1.8,16.7,3.1,33.5,4,50.3
		c1.8,33.6,2.2,67.3,2.8,100.9c0.4,19.1,0.7,38.2,1.1,57.3c0.1,2.7,1.7,10.1,5.6,6.5c6.9-6.4,13.8-12.8,20.7-19.2
		c2.6-2.4,5.5-4.7,7.1-8C440.6,288.8,440.5,283.7,439.9,279z M429,286.9c-5.6,5.1-11.1,10.3-16.7,15.4c-1.1-67.3-0.6-135.1-8.1-202
		c-1.2-10.5-2.7-20.7-6.7-30c3.4,0,6.7,0,10.1,0c1.4,0,3.2-0.3,4.6,0c0.3,0.1,0.7-0.1,0.9,0c0,0,0,0,0.1,0c-0.2,2.8,0.1,5.7,0.8,8.4
		c2.2,8.2,5.6,16.1,7.4,24.6c2.1,9.7,3.4,19.6,4.6,29.4c4.8,41.5,5,83.4,5.6,125.1c0.1,6.2,0.1,12.3,0.5,18.5
		c0.1,1.4,0.2,2.8,0.3,4.3C432.7,284,431.6,284.6,429,286.9z M415,72.1c0,0-0.1,0-0.1,0C414.9,72.1,414.9,72.1,415,72.1z
		 M420.5,71.1c0.1-0.1,0.2,0.2,0.1,0.5C420.5,71.4,420.4,71.2,420.5,71.1z"/>
</g>
<g>
	<path class="st0" d="M444.2,71.2c0,0.1-0.1,0.2-0.1,0.2C444.2,71.4,444.2,71.3,444.2,71.2z"/>
	<path class="st1" d="M460.2,285.5c-0.3-6-0.2-11.9-0.3-17.9c-0.3-44.6-1-89.5-7.3-133.8c-1.6-10.8-3.5-21.6-6.2-32.2
		c-1.3-4.9-2.7-9.7-4.4-14.4c-1.8-4.8-4.4-9.4-5-14.6c-0.2-1.4-0.2-3-0.1-4.5c-0.1-0.1-0.2-0.1-0.3-0.2c-2-0.9-5.7-0.3-8.1-0.3
		c-3.5,0-7.1-0.1-10.6-0.1c4.5,9.4,6.5,19.9,7.9,30.8c4.9,37.5,6.8,75.3,8.1,113.1c1.1,33.9,2,67.8,3,101.6
		c6.8-5.8,13.7-11.6,20.5-17.5c1.3-1.1,3.4-2.3,3.6-3.4c0.2-0.9-0.3-1.9-0.4-2.8C460.3,288.1,460.3,286.8,460.2,285.5z"/>
	<path class="st1" d="M438.9,70c0,0-0.1,0-0.1,0C438.8,70,438.9,70,438.9,70z"/>
	<path d="M468,287.4c-0.1-0.5-0.4-4.7-0.3-1.1c0-0.9-0.1-1.7-0.1-2.6c-0.1-2.6-0.1-5.3-0.1-7.9c-0.2-19.8-0.3-39.6-0.9-59.4
		c-0.9-26.3-2.4-52.6-5.7-78.7c-1.6-12.4-3.6-24.7-6.4-36.9c-2.3-10-5-20.7-9.6-29.9c-0.1-0.3-0.2-0.5-0.3-0.7
		c0.2-0.7,0.4-1.5,0.4-1.5c0.7-3.5,0.5-7.4-1.5-10.5c-2.5-3.9-6-5.5-10.3-5.5c-8.9-0.1-17.8-0.1-26.7-0.2c-4.7,0-5.2,12.4-1.3,14.6
		c9.6,10.4,11.8,22.5,13.6,36.2c2.3,17.6,3.9,35.3,5.1,53c2.4,35.4,3.1,70.9,4.1,106.4c0.6,20.4,1.2,40.9,1.8,61.3
		c0.1,2.8,1.6,9.9,5.6,6.5c7.9-6.7,15.7-13.4,23.6-20.1c3.4-2.9,6.7-5.4,8.3-9.7C468.8,296.4,468.7,291.8,468,287.4z M460.9,292.1
		c-0.2,1-2.3,2.2-3.6,3.4c-6.8,5.8-13.7,11.7-20.5,17.5c-1-33.9-1.9-67.8-3-101.6c-1.3-37.8-3.2-75.6-8.1-113.1
		c-1.4-10.9-3.4-21.3-7.9-30.8c3.5,0,7.1,0.1,10.6,0.1c2.4,0,6-0.5,8.1,0.3c0.1,0,0.2,0.1,0.3,0.2c-0.1,1.6,0,3.2,0.1,4.5
		c0.6,5.2,3.2,9.7,5,14.6c1.7,4.7,3.2,9.6,4.4,14.4c2.8,10.6,4.7,21.4,6.2,32.2c6.4,44.2,7,89.2,7.3,133.8c0,6,0,11.9,0.3,17.9
		c0.1,1.3,0.1,2.6,0.3,3.8C460.6,290.3,461.1,291.3,460.9,292.1z M438.9,70c0,0-0.1,0-0.1,0C438.8,70,438.9,70,438.9,70z
		 M444.2,71.3c0,0,0-0.1,0.1-0.2C444.2,71.3,444.2,71.4,444.2,71.3z"/>
</g>
<path class="st1" d="M535.3,70.5c-0.5-7.3-1.1-14.6-3-21.7c-3.3-12.4-10.7-23-21.9-30.2c-1.7-1.1-28.5,4.4-39.8,8.5
	c-11.3,4-22.4,8.4-33.1,13.7c-4.8-4.3-11.6-5.6-18.1-6.2c-5.6-0.5-10.5,0.4-14.5,3.3c-8.8-4.1-18-7.5-27.1-10.8
	c-11.3-4.1-38.1-9.6-39.8-8.5c-11.2,7.2-18.7,17.8-21.9,30.2c-1.8,7.1-2.5,14.4-3,21.7c-0.4,5.6,2.4,21.5,4.2,22
	c16,4.8,32.6,7.9,49.5,7c13.9-0.7,31.2-3.8,42.2-12.7c3,2,6.4,3.5,9.6,4.1c7.1,1.5,13.8-1.6,18.5-6.7c0.2,0.5,0.5,1,0.9,1.3
	c10.9,9.8,29.2,13.2,43.7,13.9c16.8,0.9,33.5-2.2,49.5-7c1.7-0.5,2.7-3,2.8-5.6C535.6,81.6,535.7,76.2,535.3,70.5z"/>
<path d="M539.9,71.5c-0.5-8-1.2-16-3.1-23.8c-3.4-13.6-11.2-25.3-22.8-33.1c-1.8-1.2-29.7,4.8-41.4,9.3c-11.7,4.4-23.4,9.2-34.4,15
	c-5-4.7-12-6.1-18.8-6.7c-5.8-0.5-11,0.5-15.1,3.6c-9.2-4.5-18.7-8.3-28.2-11.9c-11.7-4.5-39.7-10.5-41.4-9.3
	c-11.6,7.9-19.5,19.5-22.8,33.1c-1.9,7.8-2.6,15.8-3.1,23.8c-0.4,6.2,2.5,23.6,4.3,24.1c16.6,5.2,34,8.7,51.5,7.7
	c14.5-0.8,32.5-4.2,44-13.9c3.1,2.2,6.6,3.8,10,4.5c7.4,1.6,14.4-1.8,19.3-7.3c0.2,0.6,0.5,1.1,0.9,1.4
	c11.4,10.8,30.4,14.4,45.5,15.3c17.5,1,34.8-2.4,51.5-7.7c1.8-0.6,2.8-3.2,2.9-6.2C540.2,83.7,540.2,77.7,539.9,71.5z M399.4,79.7
	c-4.3,2.2-9.1,3.7-13.4,5c-7.6,2.3-15.5,3.4-23.4,3.7c-15.7,0.6-27.6-1.1-42.6-5.7c-1.4-4.1-4.9-10.3,0-27.6
	c4.8-17.3,18.4-23,20-22.9c12.5,0.6,23.8,2.2,35.5,6.8c8,3.1,16,6.3,23.7,9.9c0.1,0.4,0.2,0.8,0.3,1.2
	C395.3,59.4,395.2,71.9,399.4,79.7z M434,73.5c-7.2,8.3-17.2,6.6-25.1,0.2c-3.8-3-5.8-6-4.4-10.8c1.4-4.5,2.5-13,11.5-16.2
	s17.9,0,20.5,7.5C439.2,61.7,436.4,70.7,434,73.5z M532.1,81.7c-15,4.6-30.6,7.4-46.3,6.8c-7.9-0.3-15.8-1.4-23.4-3.7
	c-6.1-1.8-13.2-4.1-18.4-8.2c3.5-8.2,4.1-17.4,1.2-25.8c9-4.4,18.3-8.2,27.6-11.8c11.7-4.5,39-10,39.1-9.9
	c8.1,5.5,14.4,13.3,17.4,22.7c1.6,5,2.2,10.1,2.7,15.3C532.4,71.5,533.6,77.3,532.1,81.7z"/>
</svg>
