<?xml version="1.0" encoding="utf-8"?>
<!-- Generator: Adobe Illustrator 15.1.0, SVG Export Plug-In . SVG Version: 6.00 Build 0)  -->
<!DOCTYPE svg PUBLIC "-//W3C//DTD SVG 1.1//EN" "http://www.w3.org/Graphics/SVG/1.1/DTD/svg11.dtd">
<svg version="1.1" id="Layer_3" xmlns="http://www.w3.org/2000/svg" xmlns:xlink="http://www.w3.org/1999/xlink" x="0px" y="0px"
	 width="566.93px" height="566.93px" viewBox="0 0 566.93 566.93" enable-background="new 0 0 566.93 566.93" xml:space="preserve">
<path d="M238.105,475.865c12.676,1.066,25.389,1.837,38.102,2.268c7.993,0.271,16.067,0.486,24.042-0.229
	c5.532-0.496,9.496-1.938,9.518-8.237c0.022-6.526-3.893-12.326-5.634-18.434c-2.555-8.957,6.218-13.906,13.73-16.047
	c8.137-2.317,17.092-1.457,25.336-0.28c10.441,1.49,20.703,4.248,30.873,6.98c17.635,4.737,36.448,11.66,54.961,10.959
	c5.455-0.207,12.151-1.66,15.17-6.699c2.935-4.899,1.429-11.648-0.705-16.527c-2.465-5.637-6.291-10.573-9.946-15.471
	c-1.596-2.138-3.189-4.277-4.646-6.513c-0.458-0.704-1.065-1.684-1.349-2.289c-0.818-1.752,0.395,1.544-0.534,2.55
	c1.184-1.282,4.009-0.856,5.514-0.748c6.038,0.432,12.071,1.649,18.032,2.655c13.086,2.209,26.188,4.276,39.503,3.847
	c21.064-0.681,54.083-11.148,53.357-37.113c-0.283-10.151-5.284-19.399-10.635-27.747c-5.841-9.114-16.887-19.317-14.865-30.931
	c2.282-13.108,14.854-24.444,23.738-33.378c7.418-7.459,15.142-14.122,13.985-25.624c-2.17-21.574-26.382-33.782-45.471-36.62
	c-24.67-3.667-48.6,7.16-70.252,17.52c-2.53,1.211-0.96,10.31,2.137,8.829c22.034-10.542,45.55-20.571,70.571-16.852
	c11.806,1.755,23.689,7.61,32.169,15.98c2.892,2.855,6.4,7.1,6.568,11.387c0.23,5.918-5.703,10.439-9.434,14.145
	c-15.699,15.598-38.072,38.019-25.029,62.019c5.357,9.857,12.929,18.36,18.264,28.27c2.173,4.036,3.978,8.504,3.882,13.148
	c-0.12,5.781-4.869,10.618-9.024,14.006c-22.613,18.438-53.998,14.306-80.508,9.827c-5.738-0.97-11.478-1.923-17.262-2.581
	c-2.344-0.267-4.738-0.345-6.881,0.763c-4.306,2.226-1.916,9.932-0.338,13.072c2.442,4.86,6.143,9.089,9.329,13.465
	c1.734,2.383,3.391,4.82,4.867,7.371c0.95,1.644,2.14,4.314,2.136,5.273c-0.019,4.306-10.295,5.497-13.388,5.678
	c-8.694,0.509-17.541-1.473-25.95-3.424c-20.012-4.643-39.522-11.429-59.884-14.516c-14.74-2.234-38.404-2.362-42.662,15.973
	c-1.67,7.186,1.307,14.934,3.975,21.479c0.561,1.374,1.115,2.748,1.616,4.146c0.702,1.96-0.114,1.019,0.525-0.304
	c-0.77,1.591-4.969,1.561-6.404,1.706c-16.456,1.672-33.551-0.021-49.998-1.132c-4.05-0.273-8.101-0.567-12.146-0.907
	C234.405,466.355,234.855,475.592,238.105,475.865L238.105,475.865z"/>
<g>
	<path fill="#FFFFFF" d="M203.771,154.926c0,0-174.444,69.621-176.008,114.21c0,0-11.734,84.482,10.169,106.386
		c18.774,14.863,140.807,94.653,140.807,94.653s49.282,13.298,82.919-11.733c33.638-25.032,260.493-190.089,260.493-190.089
		s12.515-104.822-17.993-120.467c-30.509-15.645-107.952-70.404-107.952-70.404s-36.765-25.814-113.427,32.073
		C224.891,141.628,203.771,154.926,203.771,154.926z"/>
	<path d="M205.282,151.134c-17,6.79-33.741,14.291-50.32,22.043c-30.701,14.357-61.363,29.835-89.239,49.223
		c-17.657,12.281-39.327,28.031-42.213,50.909c-1.607,12.734-2.512,25.577-2.831,38.406c-0.432,17.349-0.144,35.591,5.099,52.285
		c1.747,5.563,4.492,12.274,9.248,15.954c3.567,2.76,7.274,5.345,10.965,7.936c12.341,8.662,24.863,17.069,37.383,25.469
		c26.653,17.879,53.444,35.553,80.276,53.161c3.946,2.59,8.518,6.935,13.227,8.049c15.605,3.69,32.328,4.25,48.141,1.764
		c16.666-2.621,30.284-10.292,43.61-20.119c8.341-6.151,16.703-12.273,25.066-18.396c53.802-39.386,107.709-78.627,161.608-117.879
		c19.497-14.199,38.997-28.396,58.499-42.588c2.965-2.158,5.931-4.316,8.896-6.473c3.479-2.532,3.574-5.598,3.942-9.325
		c0.504-5.106,0.896-10.223,1.222-15.343c1.01-15.923,1.259-31.943,0.191-47.869c-1.001-14.945-2.948-31.003-10.44-44.252
		c-3.024-5.349-7.071-8.549-12.388-11.392c-7.042-3.766-13.866-7.946-20.646-12.159c-16.685-10.365-33.012-21.309-49.251-32.353
		c-11.151-7.583-22.245-15.25-33.276-23.003c-2.877-2.022-5.777-3.585-9.139-4.742c-30.096-10.36-65.109,6.689-89.968,22.213
		c-7.267,4.538-13.919,10.448-21.385,14.587c-7.311,4.053-14.609,8.13-21.895,12.228c-10.673,6.002-21.313,12.063-31.903,18.211
		c-7.874,4.571-15.776,9.127-23.484,13.976c-1.929,1.213-4.167,3.372-4.538,5.746c-0.371,2.381,2.388,1.512,3.525,0.797
		c25.683-16.153,52.488-30.67,79.008-45.371c6.347-3.518,12.076-8.761,18.215-12.714c5.88-3.786,11.952-7.298,18.188-10.463
		c9.211-4.674,18.888-8.545,28.913-11.065c11.739-2.951,24.296-3.967,36.11-0.868c3.785,0.993,6.724,2.11,9.661,4.18
		c9.921,6.991,19.905,13.894,29.924,20.744c16.199,11.076,32.506,22.008,49.089,32.501c7.16,4.53,14.383,8.971,21.763,13.136
		c5.344,3.016,10.286,5.292,14.039,10.341c6.088,8.189,8.316,19.211,9.93,29.062c2.049,12.512,2.57,25.291,2.557,37.951
		c-0.018,15.058-0.765,30.235-2.541,45.197c1.161-1.667,2.323-3.333,3.484-5c-36.194,26.334-72.378,52.683-108.555,79.042
		c-48.547,35.372-97.166,70.65-145.515,106.293c-3.807,2.807-7.541,5.693-11.606,8.126c-10.23,6.121-22.261,8.811-34.013,9.907
		c-9.437,0.881-18.984,0.398-28.36-0.882c-2.77-0.378-5.525-0.862-8.262-1.429c-0.685-0.141-3.889-1.195-2.827-0.501
		c-18.625-12.179-37.207-24.425-55.76-36.712c-26.3-17.419-52.795-34.66-78.442-53.036c-3.729-2.672-7.226-5.062-9.827-8.926
		c-4.224-6.275-6.018-14.209-7.354-21.537c-3.21-17.602-2.805-35.894-1.726-53.68c0.554-9.123,1.616-18.18,2.544-27.264
		c0.976-9.545,9.516-17.455,16.29-23.434c24.572-21.688,55.068-37.195,84.241-51.651c22.847-11.322,46.139-21.967,69.826-31.427
		c2.247-0.897,4.39-3.117,5.282-5.355C208.319,151.412,207.198,150.369,205.282,151.134z"/>
</g>
<path d="M491.196,181.049c-45.614,29.536-92.242,57.652-139.525,84.424c-34.256,19.396-69.015,38.267-105.112,54.042
	c-13.723,5.997-28.729,13.336-43.798,14.751c-18.396,1.728-37.329-4.59-54.147-11.336c-33.054-13.258-62.182-33.396-91.852-52.67
	c-0.538-0.349-3.731-2.11-3.782-0.342c-0.051,1.802,2.38,3.555,3.67,4.394c26.171,17.001,51.81,34.366,80.13,47.75
	c17.294,8.173,35.6,15.199,54.641,17.829c8.008,1.105,16.24,1.146,24.188-0.417c7.168-1.409,14.218-4.44,21.008-7.074
	c35.183-13.646,68.76-31.638,101.763-49.815c34.392-18.941,68.209-38.926,101.703-59.406c19.548-11.953,39.031-24.035,58.265-36.489
	C499.772,185.768,493.621,179.478,491.196,181.049L491.196,181.049z"/>
<path d="M206.962,419.877c1.219-13.663,0.873-27.681-0.761-41.282c-2.034-16.934-7.308-41.456-26.854-45.876
	c-1.526-0.345-3.778,3.906-1.911,4.328c19.082,4.314,23.687,29.159,25.643,45.442c1.559,12.981,1.791,26.383,0.628,39.419
	C203.466,424.617,206.828,421.382,206.962,419.877L206.962,419.877z"/>
<path d="M114.448,264.651c24.661,12.772,50.079,30.09,78.195,33.818c31.299,4.149,61.628-12.865,87.558-28.165
	c45.83-27.042,87.494-60.383,133.917-86.516c9.98-5.618,20.115-11.036,30.548-15.772c0.939-0.426,3.228-1.011,3.346-2.206
	c0.337-3.401-0.832-6.751-2.254-9.785c-8.058-17.195-27.162-25.68-42.603-34.646c-12.563-7.296-27.117-10.157-41.517-10.334
	c-46.369-0.572-91.554,22.722-129.749,46.761c-21.402,13.469-42.292,27.746-63.722,41.184c-14.539,9.117-29.299,17.967-43.38,27.789
	c-6.975,4.865-15.179,10.312-19.129,18.132c-3.52,6.967,1.766,13.871,6.702,18.436c0.804,0.743,4.167,2.881,4.721,0.718
	c0.574-2.242-1.969-4.651-3.384-5.96c0.609,0.563-0.774-0.974-0.381-0.466c-0.176-0.229-0.119-0.065-0.263-0.41
	c-0.32-0.765-0.46-1.814-0.166-3.215c0.76-3.615,3.675-6.554,6.224-9.027c10.708-10.394,24.45-18.05,36.992-25.942
	c22.395-14.095,44.858-28.063,66.909-42.696c24.448-16.223,49.516-31.262,76.816-42.223c30.53-12.257,71.635-23.269,102.8-6.697
	c9.293,4.941,19.003,9.93,27.238,16.541c4.327,3.474,8.34,7.71,9.806,13.039c-0.052-0.189,0.182,3.109,0.244,2.007
	c-0.058,1.023,1.599-0.792,0.395-0.271c-2.517,1.088-4.995,2.265-7.465,3.456c-38.189,18.417-72.938,42.552-107.802,66.455
	c-21.837,14.972-43.982,29.705-67.288,42.319c-14.49,7.842-29.815,14.925-46.066,18.149c-36.429,7.225-69.347-16.408-100.08-32.325
	c-1.97-1.02-3.108,0.455-2.434,2.318C110.068,261.586,112.176,263.474,114.448,264.651z"/>
<g>
	<path fill="#FFFFFF" d="M388.314,394.811c0,0,18.242-0.017,18.242-4.526c1.026-15.4-7.628-22.881-19.068-22.881
		s-22.147,14.374-15.4,25.228C380.57,395.75,388.314,394.811,388.314,394.811z"/>
	<path d="M389.973,396.541c4.7-0.018,17.783,0.574,20.111-4.718c2.002-4.547-0.632-12.461-3.021-16.403
		c-2.781-4.591-7.629-7.308-12.663-8.725c-11.83-3.331-24.258,2.015-27.742,14.304c-0.729,2.571-0.469,5.269,0.122,7.828
		c0.845,3.651,2.543,4.681,5.831,5.789C377.984,396.428,384.319,397.154,389.973,396.541c4.961-0.537-0.854-3.728-3.318-3.461
		c-4.516,0.489-9.022-0.389-13.288-1.827c0.813,0.531,1.626,1.063,2.438,1.594c-8.479-15.175,14.389-33.432,24.398-16.909
		c1.916,3.163,2.5,6.982,2.652,10.604c0.151,3.609-0.357,4.502-3.78,5.374c-3.985,1.016-8.32,1.148-12.421,1.164
		c-1.011,0.004-2.924,0.742-1.746,1.967C386.155,396.345,388.293,396.548,389.973,396.541z"/>
</g>
<path fill="none" stroke="#000000" stroke-miterlimit="10" d="M429.843,384.127"/>
<g>
	
		<ellipse transform="matrix(0.568 -0.823 0.823 0.568 -140.1787 484.3505)" fill="#FFFFFF" cx="391.321" cy="375.715" rx="2.151" ry="2.835"/>
	<path d="M392.168,374.461c1.516,1.132-0.095,3.52-1.695,2.507C388.866,375.95,390.578,373.45,392.168,374.461
		c0.305,0.193,1.146,0.735,1.476,0.28c0.313-0.432-0.425-1.121-0.728-1.313c-1.454-0.925-3.732-1.758-5.031-0.122
		c-1.273,1.604,0.63,3.79,1.84,4.695c1.375,1.03,3.792,1.684,5.031,0.12c1.272-1.605-0.627-3.788-1.84-4.693
		c-0.288-0.216-1.157-0.721-1.476-0.28C391.117,373.594,391.88,374.246,392.168,374.461z"/>
</g>
<g>
	<path fill="#FFFFFF" d="M362.286,402.478c0,0,13.556-0.013,13.556-3.364c0.763-11.445-5.668-17.004-14.17-17.004
		s-16.459,10.682-11.445,18.748C356.531,403.175,362.286,402.478,362.286,402.478z"/>
	<path d="M363.946,404.208c3.096-0.016,14.746,0.313,15.584-3.97c1.805-9.223-4.468-17.184-13.171-19.188
		c-9.365-2.158-19.137,1.827-21.319,11.895C342.692,403.77,356.319,405.005,363.946,404.208c4.963-0.519-0.856-3.719-3.318-3.461
		c-3.12,0.326-6.166-0.295-9.121-1.268c0.813,0.531,1.626,1.063,2.438,1.594c-5.617-10.432,9.427-24.367,16.404-12.343
		c1.425,2.456,1.726,5.42,1.776,8.189c0.044,2.461-0.941,2.645-3.155,3.141c-2.692,0.602-5.589,0.673-8.343,0.687
		c-1.01,0.005-2.925,0.741-1.746,1.967C360.127,404.011,362.266,404.217,363.946,404.208z"/>
</g>
<g>
	
		<ellipse transform="matrix(0.5678 -0.8232 0.8232 0.5678 -162.1735 469.4357)" fill="#FFFFFF" cx="365.964" cy="389.158" rx="1.599" ry="2.107"/>
	<path d="M366.497,388.359c0.361,0.271,0.302,0.858,0.1,1.198c-0.228,0.383-0.977,0.521-1.167,0.4
		c-0.379-0.24-0.288-0.882-0.1-1.199C365.559,388.375,366.305,388.237,366.497,388.359c0.305,0.194,1.146,0.735,1.476,0.28
		c0.313-0.432-0.425-1.121-0.728-1.313c-1.168-0.743-3.058-1.5-4.118-0.161c-1.037,1.309,0.583,3.099,1.555,3.826
		c1.105,0.828,3.103,1.439,4.118,0.16c1.038-1.307-0.585-3.1-1.555-3.825c-0.288-0.216-1.157-0.721-1.476-0.28
		C365.447,387.491,366.209,388.143,366.497,388.359z"/>
</g>
<g>
	<path fill="#FFFFFF" d="M384.794,403.053c0,0,8.064-0.008,8.064-2.002c0.453-6.809-3.373-10.116-8.431-10.116
		c-5.057,0-9.791,6.355-6.809,11.154C381.37,403.468,384.794,403.053,384.794,403.053z"/>
	<path d="M386.453,404.783c2.165-0.011,9.553,0.154,10.129-2.792c1.184-6.052-3.247-10.885-8.791-12.231
		c-6.15-1.493-13.04,0.341-14.749,7.135C371.179,404.303,381.402,405.303,386.453,404.783c0.956-0.098,2.975-0.689,1.746-1.967
		c-1.166-1.214-3.458-1.659-5.064-1.494c-1.473,0.151-2.837-0.155-4.236-0.611c0.813,0.531,1.626,1.063,2.438,1.594
		c-1.629-3.048-0.594-5.999,1.783-8.3c2.204-2.134,3.916-1.253,5.16,1.181c0.917,1.796,1.948,5.225-0.51,5.775
		c-1.494,0.334-3.108,0.354-4.636,0.361c-1.01,0.005-2.925,0.741-1.746,1.967C382.635,404.586,384.775,404.792,386.453,404.783z"/>
</g>
<g>
	<path fill="#FFFFFF" d="M486.061,310.543c0,0,15.637-0.014,15.637-3.88c0.88-13.202-6.537-19.614-16.346-19.614
		c-9.807,0-18.984,12.321-13.201,21.625C479.422,311.349,486.061,310.543,486.061,310.543z"/>
	<path d="M487.721,312.274c4.301-0.019,15.12,0.479,17.47-4.086c2.048-3.979-0.674-11.443-2.93-14.823
		c-2.555-3.829-6.783-6.047-11.129-7.199c-10.245-2.715-20.755,1.585-24.086,12.099c-0.811,2.56-0.485,5.292,0.244,7.814
		c0.881,3.047,2.601,3.647,5.382,4.572C477.335,312.2,482.823,312.793,487.721,312.274c4.961-0.526-0.856-3.723-3.32-3.461
		c-3.742,0.396-7.429-0.339-10.971-1.517c0.813,0.531,1.626,1.063,2.438,1.594c-6.985-12.733,11.968-28.498,20.111-14.079
		c1.641,2.906,1.982,6.366,2.007,9.632c0.02,2.592-1.01,2.893-3.378,3.464c-3.284,0.792-6.837,0.892-10.208,0.906
		c-1.01,0.004-2.923,0.741-1.745,1.967C483.902,312.076,486.04,312.281,487.721,312.274z"/>
</g>
<g>
	
		<ellipse transform="matrix(0.5681 -0.8229 0.8229 0.5681 -30.5839 532.0782)" fill="#FFFFFF" cx="491.656" cy="295.178" rx="1.844" ry="2.431"/>
	<path d="M492.329,294.178c1.106,0.829-0.18,2.741-1.347,2.001c-0.519-0.329-0.503-1.118-0.227-1.584
		c0.409-0.688,1.31-0.583,1.88-0.224c0.262,0.166,1.174,0.492,1.229-0.079c0.057-0.595-0.676-1.077-1.095-1.341
		c-1.237-0.781-3.398-1.328-4.314,0.212c-0.917,1.541,0.8,3.429,1.988,4.183c1.248,0.791,3.229,1.378,4.313,0.01
		c1.142-1.44-0.603-3.404-1.681-4.211c-0.288-0.216-1.157-0.721-1.476-0.28C491.279,293.311,492.041,293.963,492.329,294.178z"/>
</g>
<g>
	<path fill="#FFFFFF" d="M466.767,318.121c0,0,11.621-0.011,11.621-2.885c0.654-9.811-4.858-14.575-12.146-14.575
		c-7.29,0-14.11,9.156-9.812,16.07C461.833,318.719,466.767,318.121,466.767,318.121z"/>
	<path d="M468.426,319.852c2.77-0.014,12.917,0.259,13.662-3.555c1.588-8.116-4.011-14.887-11.565-16.721
		c-8.195-1.99-16.821,1.205-19.024,9.966C449.039,319.322,461.635,320.55,468.426,319.852c4.964-0.51-0.857-3.714-3.318-3.461
		c-2.543,0.261-4.987-0.252-7.398-1.037c0.813,0.531,1.626,1.063,2.438,1.594c-4.654-8.705,7.84-20.72,13.283-10.066
		c0.99,1.938,1.185,4.188,1.231,6.319c0.047,2.082-0.639,2.197-2.518,2.618c-2.271,0.508-4.716,0.561-7.037,0.572
		c-1.01,0.005-2.925,0.741-1.746,1.967C464.608,319.655,466.746,319.861,468.426,319.852z"/>
</g>
<g>
	<path fill="#FFFFFF" d="M475.321,324.019c0,0,7.163-0.006,7.163-1.777c0.403-6.048-2.996-8.985-7.488-8.985
		s-8.695,5.645-6.046,9.907C472.28,324.388,475.321,324.019,475.321,324.019z"/>
	<path d="M476.981,325.749c2.009-0.01,8.7,0.127,9.232-2.598c1.081-5.526-3.055-9.871-8.088-11.093
		c-5.624-1.366-12.084,0.128-13.664,6.416C462.75,325.281,472.367,326.225,476.981,325.749c0.955-0.099,2.974-0.689,1.745-1.967
		c-1.166-1.214-3.458-1.66-5.065-1.494c-1.201,0.124-2.286-0.13-3.432-0.503c0.813,0.531,1.626,1.063,2.438,1.594
		c-1.431-2.678-0.522-5.255,1.565-7.276c1.787-1.73,2.69-1.205,3.769,0.905c0.587,1.146,0.709,2.459,0.737,3.722
		c0.024,1.105-0.049,1.027-1.05,1.251c-1.298,0.29-2.702,0.301-4.028,0.308c-1.009,0.005-2.924,0.741-1.745,1.967
		C473.161,325.552,475.3,325.758,476.981,325.749z"/>
</g>
<g>
	
		<ellipse transform="matrix(0.5675 -0.8234 0.8234 0.5675 -48.8476 520.4176)" fill="#FFFFFF" cx="470.925" cy="306.703" rx="1.37" ry="1.806"/>
	<path d="M471.328,306.092c0.227,0.17,0.094,0.65-0.019,0.84c-0.103,0.171-0.301,0.293-0.495,0.33
		c-0.166,0.032-0.563-0.118-0.293,0.053c-0.235-0.149-0.085-0.668,0.019-0.842c0.103-0.171,0.301-0.293,0.495-0.33
		C471.203,306.111,471.596,306.263,471.328,306.092c0.305,0.194,1.146,0.735,1.476,0.28c0.313-0.432-0.425-1.121-0.728-1.313
		c-1.047-0.667-2.778-1.394-3.739-0.18c-0.94,1.187,0.563,2.814,1.437,3.469c0.991,0.743,2.819,1.339,3.739,0.178
		c0.94-1.186-0.563-2.814-1.437-3.467c-0.288-0.216-1.157-0.721-1.476-0.28C470.278,305.225,471.04,305.877,471.328,306.092z"/>
</g>
<g>
	<path fill="#FFFFFF" d="M454.043,326.905c0,0,10.015-0.01,10.015-2.486c0.563-8.455-4.188-12.561-10.468-12.561
		c-6.281,0-12.159,7.892-8.455,13.851C449.79,327.42,454.043,326.905,454.043,326.905z"/>
	<path d="M455.703,328.635c2.496-0.013,11.396,0.212,12.065-3.211c1.405-7.185-3.665-13.078-10.313-14.692
		c-7.275-1.767-15.112,0.811-17.093,8.688C438.173,328.129,449.698,329.253,455.703,328.635c0.955-0.099,2.973-0.689,1.745-1.967
		c-1.166-1.214-3.458-1.659-5.065-1.494c-2.058,0.212-4.016-0.208-5.969-0.844c0.813,0.531,1.626,1.063,2.438,1.594
		c-3.674-6.874,5.926-17.528,10.419-8.736c0.844,1.652,1.013,3.565,1.054,5.383c0.039,1.727-0.427,1.776-1.989,2.126
		c-1.92,0.43-3.989,0.468-5.953,0.478c-1.009,0.005-2.924,0.741-1.745,1.967C451.883,328.438,454.024,328.644,455.703,328.635z"/>
</g>
<g>
	
		<ellipse transform="matrix(0.5679 -0.8231 0.8231 0.5679 -63.2344 513.676)" fill="#FFFFFF" cx="457.626" cy="317.065" rx="1.181" ry="1.557"/>
	<path d="M457.922,316.61c-0.095-0.07-0.067-0.076-0.021,0.091c0.044,0.158-0.018,0.319-0.096,0.452
		c-0.078,0.131-0.23,0.234-0.38,0.263c-0.203,0.039-0.455-0.123-0.097,0.104c0.094,0.059,0.073,0.092,0.021-0.092
		c-0.044-0.158,0.018-0.318,0.097-0.451c0.078-0.131,0.23-0.235,0.38-0.264C458.033,316.673,458.278,316.837,457.922,316.61
		c0.304,0.194,1.146,0.735,1.476,0.28c0.313-0.432-0.425-1.12-0.728-1.313c-0.948-0.606-2.546-1.303-3.426-0.193
		c-0.859,1.083,0.546,2.578,1.337,3.17c0.898,0.673,2.584,1.257,3.428,0.193c0.859-1.083-0.548-2.58-1.339-3.17
		c-0.288-0.216-1.157-0.721-1.476-0.28C456.871,315.742,457.634,316.395,457.922,316.61z"/>
</g>
<g>
	<path fill="#FFFFFF" d="M486.061,318.614c0,0,6.912-0.007,6.912-1.716c0.391-5.836-2.891-8.672-7.225-8.672
		c-4.336,0-8.395,5.447-5.838,9.562C483.125,318.97,486.061,318.614,486.061,318.614z"/>
	<path d="M487.721,320.344c1.966-0.01,8.463,0.117,8.983-2.545c1.053-5.38-3.001-9.589-7.892-10.776
		c-5.478-1.331-11.819,0.07-13.365,6.216C473.777,319.878,483.23,320.807,487.721,320.344c0.955-0.099,2.974-0.689,1.745-1.967
		c-1.165-1.214-3.458-1.66-5.065-1.494c-1.127,0.116-2.135-0.123-3.211-0.474c0.813,0.531,1.626,1.063,2.438,1.594
		c-1.376-2.575-0.501-5.049,1.507-6.992c1.674-1.619,2.349-1.197,3.384,0.828c0.563,1.103,0.682,2.362,0.708,3.576
		c0.023,1.053-0.015,0.961-0.968,1.175c-1.242,0.277-2.588,0.286-3.858,0.293c-1.009,0.005-2.924,0.741-1.745,1.967
		C483.901,320.147,486.041,320.353,487.721,320.344z"/>
</g>
</svg>
