<?xml version="1.0" encoding="utf-8"?>
<!-- Generator: Adobe Illustrator 23.0.1, SVG Export Plug-In . SVG Version: 6.00 Build 0)  -->
<svg version="1.1" id="Layer_3" xmlns="http://www.w3.org/2000/svg" xmlns:xlink="http://www.w3.org/1999/xlink" x="0px" y="0px"
	 viewBox="0 0 566.9 566.9" style="enable-background:new 0 0 566.9 566.9;" xml:space="preserve">
<path d="M151.3,490.7"/>
<path d="M386.6,465.1c-8-43.4-46.5-68.3-75.3-97.8c-17.3-17.7-40-38.6-48.4-62.4c-8.8-24.9-15.2-53.5-16.5-79.8
	C244.1,180,253,134.6,235.9,92c0-9.8,0.7-25.9-7.2-25.6c-24.8,0.9-49.7,2.1-74.5,3.6c-16.9,1-44.2-3.6-52.4,15
	c-8.2,18.7-8.5,42.7-9.2,62.8c-0.8,23.5,0.8,47,1.6,70.5c0.8,23.6,1.1,47.5-3.5,70.7c-4.2,21.6-13.8,42-11.4,64.5
	c4.6,43.8,50.3,45.6,79,68.5c29.9,23.8,44.8,60.7,69.4,89.2c25.8,29.9,66.2,47.2,105.9,38.6C373.7,541.2,393.8,504.1,386.6,465.1z
	 M357,506.1c-29.3,22.8-77.8,13.9-105.2-7.9c-24.6-19.6-38.9-49.3-57.2-74.2c-20.5-27.9-44.7-43.5-75.8-57.3
	c-6.3-2.8-13.9-5.9-18.5-11.3c-7.4-8.8-3.7-18.2-1-28c5.4-19.3,9.5-38.2,10.9-58.3c3.1-44.3-4-88.8-0.4-133.1
	c0.7-9.1,0.1-27.8,10.1-30.9c10.1-3.1,23.6-1.6,34.3-2.3c21.2-1.3,42.4-2.3,63.7-3.1c0.5,2.1,1.1,4,1.9,5.6
	c17.6,34.7,9.3,74.9,9.8,112.2c0.5,36.7,7.7,78.1,22,112.1c13.8,32.9,44.9,61.1,70.6,84.8C345.1,435.6,395.8,476,357,506.1z"/>
<path d="M101.3,158.8c40.5,1.9,80.5,7.8,120.9,1.7c3.9-0.6,18-3.3,18.2-8.4c0.2-5.5-8.9-4.5-12.8-4c-35.3,5.4-70.9-0.6-106.3-2.3
	c-6.9-0.3-16.7,0.8-22.2,5.4C95.2,154.5,94.2,158.4,101.3,158.8L101.3,158.8z"/>
<path d="M167.8,322.4c-3.7-7.8-19.7-15.1-43.7-25.2c-5.8-2.5-11.3-4.8-16.1-7c-1.7-0.8-3.5-0.7-4.9,0.3c-2,1.4-2.5,4.1-2.4,6.1
	c0.2,2.4,1.4,4.3,3.3,5.1c4.7,2.2,10.4,4.4,16.5,6.8c14.8,5.8,35,13.8,37.3,20.4c3.2,9.2-1.7,39.9-8.3,61.2
	c-0.4,1.1-0.3,2.3,0.4,3.2c0.8,1.1,2,1.6,3.8,1.6c0.3,0,0.6,0,0.9,0c0.9-0.1,5.3-0.7,6.7-3.7C170.1,371.8,172.7,333,167.8,322.4z"/>
<path d="M506.4,363.8c-6.2-33.5-35.9-52.7-58.2-75.5c-13.3-13.6-30.9-29.8-37.4-48.2c-6.8-19.2-11.7-41.3-12.7-61.6
	c-1.7-34.8,5.2-69.9-8-102.8c0-7.6,0.6-20-5.6-19.8c-19.2,0.7-38.3,1.6-57.5,2.8c-13.1,0.8-34.2-2.8-40.4,11.6
	c-6.3,14.5-6.6,32.9-7.1,48.5c-0.6,18.2,0.6,36.3,1.2,54.5c0.6,18.2,0.8,36.6-2.7,54.6c-3.3,16.7-10.6,32.4-8.8,49.8
	c3.5,33.8,38.9,35.2,61,52.9c23.1,18.4,34.6,46.9,53.6,68.8c19.9,23.1,51.1,36.4,81.7,29.8C496.5,422.6,512,393.9,506.4,363.8z
	 M483.6,395.5c-22.6,17.6-60.1,10.7-81.2-6.1c-19-15.1-30-38.1-44.2-57.3c-15.8-21.5-34.5-33.6-58.6-44.3
	c-4.9-2.2-10.8-4.5-14.3-8.7c-5.7-6.8-2.9-14.1-0.8-21.6c4.2-14.9,7.3-29.5,8.4-45c2.4-34.2-3.1-68.5-0.3-102.7
	c0.6-7,0-21.5,7.8-23.9c7.8-2.4,18.3-1.3,26.5-1.8c16.4-1,32.8-1.8,49.1-2.4c0.3,1.6,0.8,3.1,1.5,4.3c13.6,26.8,7.2,57.8,7.6,86.6
	c0.4,28.3,5.9,60.3,17,86.6c10.7,25.4,34.7,47.2,54.5,65.5C474.4,341,513.5,372.3,483.6,395.5z"/>
<path d="M286.2,134.7c31.2,1.4,62.2,6,93.3,1.3c3-0.5,13.9-2.5,14.1-6.5c0.2-4.3-6.9-3.5-9.8-3.1c-27.3,4.1-54.8-0.5-82.1-1.7
	c-5.4-0.2-12.9,0.7-17.1,4.2C281.5,131.4,280.7,134.4,286.2,134.7L286.2,134.7z"/>
<path d="M336.8,254c-2.9-6.2-18.4-12.8-33.3-19.1c-4.5-1.9-8.7-3.7-12.4-5.4c-1.1-0.5-2.1-0.4-3,0.2c-1.1,0.7-1.6,2.3-1.5,3.9
	c0.1,1.5,0.9,2.8,2,3.3c3.6,1.7,8,3.4,12.7,5.2c12.2,4.8,27.3,10.8,29.3,16.2c2.7,7.9-1.9,33.1-6.4,47.8c-0.4,0.9,0.1,1.9,1,2.4
	c0.4,0.2,0.9,0.3,1.5,0.3c1.9,0,4.4-0.9,5.1-2.4C338.5,291.6,340.5,262.1,336.8,254z"/>
<path d="M126.6,97.6c-0.9,9-1.7,18-2.6,26.9c-0.8,8.4-2.3,17-0.8,25.3c0.3,1.7,1.1,4.6,3.4,3.8c2.1-0.7,2.2-5.2,1.9-6.8
	c-1.4-7.5,0.4-15.8,1.1-23.3c0.7-7.7,1.5-15.4,2.2-23.1c0.2-1.7,0.3-6.1-1.9-6.8C127.8,93,126.8,95.8,126.6,97.6L126.6,97.6z"/>
<path d="M150.2,100.5c-1.8,17.9-3.7,35.8-5.5,53.7c-0.2,1.7-0.3,6.1,1.9,6.8c2.2,0.7,3.2-2.1,3.4-3.8c1.8-17.9,3.7-35.8,5.5-53.7
	c0.2-1.7,0.3-6.1-1.9-6.8C151.4,96,150.4,98.8,150.2,100.5L150.2,100.5z"/>
<path d="M171.7,100c-1,17.6-2.2,35.3-3.7,52.9c-0.1,1.7-0.3,6.1,1.9,6.8c2.2,0.7,3.2-2.1,3.4-3.8c1.6-18.6,2.8-37.2,3.9-55.8
	c0.1-1.6-0.5-5.5-2.8-5.5C172.1,94.5,171.8,98.5,171.7,100L171.7,100z"/>
<path d="M190.3,96.2c-1.3,9.2-2.1,18.4-2.2,27.7c-0.1,9.7,1.8,19.9-0.4,29.4c-0.5,2.1-0.9,5.9,1,7.5c1.7,1.5,3.3,0,3.8-2
	c2.2-9.8,1.4-19.4,1.2-29.3c-0.3-10.2,0.4-20.3,1.9-30.4c0.2-1.7,0.2-6.1-1.9-6.8C191.5,91.6,190.6,94.5,190.3,96.2L190.3,96.2z"/>
<path d="M209,94.9c-1.5,9.7-2.2,19.6-1.8,29.4c0.3,9.6,3,19.4,2.4,29c-0.1,1.6,0.5,5.5,2.8,5.5c2.3,0,2.7-4,2.8-5.5
	c0.5-9.1-1.8-18.1-2.3-27.1c-0.5-9.5,0.1-19,1.6-28.4c0.3-1.7,0.2-6.1-1.9-6.8C210.2,90.3,209.3,93.2,209,94.9L209,94.9z"/>
<path d="M304.8,83.9c-2.9,15-4.8,30.1-5.8,45.4c-0.1,1.6,0.5,5.5,2.8,5.5c2.3,0,2.7-4,2.8-5.5c0.9-14.3,2.9-28.5,5.6-42.5
	c0.3-1.7,0.2-6.1-1.9-6.8C305.8,79.3,305.1,82.2,304.8,83.9L304.8,83.9z"/>
<path d="M321.2,79.5c-3.5,16-5.3,32.2-5.1,48.5c0,1.6,0.5,5.5,2.8,5.5c2.3,0,2.8-4,2.8-5.5c-0.1-14.5,1.3-28.8,4.4-43
	c0.5-2.1,0.9-5.9-1-7.5C323.3,76,321.7,77.5,321.2,79.5L321.2,79.5z"/>
<path d="M338.1,80.2c-4,17.6-5.3,34.9-3.3,52.9c0.2,1.8,1.2,4.5,3.4,3.8c2.1-0.7,2.1-5.2,1.9-6.8c-1.6-15.1-0.6-29.6,2.8-44.4
	c0.5-2.1,0.9-5.9-1-7.5C340.1,76.7,338.6,78.2,338.1,80.2L338.1,80.2z"/>
<path d="M353,80.1c-3.1,17-4.7,34-4.4,51.2c0,1.6,0.5,5.5,2.8,5.5c2.3,0,2.8-4,2.8-5.5c-0.2-16.3,1.3-32.3,4.2-48.3
	c0.3-1.7,0.2-6.1-1.9-6.8C354.1,75.6,353.3,78.4,353,80.1L353,80.1z"/>
<path d="M364,83.5c-1.2,16.9,0.2,32.7,3.4,49.3c0.3,1.7,1.1,4.6,3.4,3.8c2.1-0.7,2.2-5.2,1.9-6.8c-2.8-14.6-4.5-28.5-3.4-43.4
	c0.1-1.7,0.3-6.1-1.9-6.8C365.2,79,364.1,81.8,364,83.5L364,83.5z"/>
</svg>
