<?xml version="1.0" encoding="UTF-8" standalone="no"?>
<!DOCTYPE svg PUBLIC "-//W3C//DTD SVG 1.1//EN" "http://www.w3.org/Graphics/SVG/1.1/DTD/svg11.dtd">
<svg width="100%" height="100%" viewBox="0 0 567 567" version="1.1" xmlns="http://www.w3.org/2000/svg" xmlns:xlink="http://www.w3.org/1999/xlink" xml:space="preserve" xmlns:serif="http://www.serif.com/" style="fill-rule:evenodd;clip-rule:evenodd;stroke-linejoin:round;stroke-miterlimit:1.41421;">
    <rect id="Background" x="0" y="0" width="567" height="567" style="fill:white;"/>
    <g id="Layer_3">
        <path d="M100.993,141.284C93.087,135.325 81.197,141.665 74.479,146.554C66.193,152.585 58.395,162.586 55.486,172.483C49.46,192.987 67.749,207.942 86.7,209.327C108.268,210.903 126.679,196.039 129.966,174.675C131.471,164.893 128.483,155.25 122.23,147.687C119.262,144.098 115.295,141.24 111.245,139.007C108.924,137.727 106.262,136.899 103.693,136.287C100.499,135.526 98.306,136.238 95.134,136.561C93.072,136.771 89.45,140.68 92.488,142.156C94.181,142.979 95.077,144.29 96.862,144.942C98.543,145.555 100.177,146.362 101.791,147.131C105.396,148.85 108.688,150.922 111.584,153.681C116.876,158.725 119.669,165.558 119.89,172.799C120.113,180.116 116.749,187.91 111.549,192.987C106.1,198.304 98.677,199.855 91.309,199.849C77.425,199.838 61.035,190.096 63.377,174.432C64.6,166.257 70.455,158.607 76.174,152.946C79.147,150.005 82.619,147.576 86.447,145.886C90.727,143.996 95.226,144.273 99.771,143.871C100.922,143.767 102.161,142.164 100.993,141.284Z" style="fill-rule:nonzero;"/>
        <path d="M61.407,222.968C59.351,229.058 59.887,236.815 59.771,243.193C59.639,250.413 60.239,257.501 62.181,264.468C62.648,266.142 65.038,266.643 66.447,266.025C76.893,261.442 89.326,265.073 100.352,264.855C106.569,264.732 112.764,264.235 118.987,264.302C124.278,264.36 131.065,267.742 135.585,264.271C138.546,261.996 138.169,257.424 134.08,257.282C133.6,257.217 133.128,257.26 132.664,257.411C129.682,257.997 125.868,261.977 129.286,264.55C129.349,264.622 129.411,264.695 129.474,264.767C131.01,262.272 132.545,259.778 134.08,257.283C132.481,257.51 128.803,256.175 126.944,255.986C123.79,255.667 120.588,255.669 117.423,255.7C111.261,255.762 105.116,256.325 98.952,256.39C87.235,256.512 76.063,253.596 64.942,258.77C66.725,259.128 68.509,259.487 70.294,259.846C67.876,253.813 67.411,247.269 67.125,240.836C66.859,234.864 68.23,227.101 65.958,221.503C64.945,219.007 61.917,221.458 61.407,222.968Z" style="fill-rule:nonzero;"/>
        <path d="M63.29,222.997C68.04,224.854 73.478,224.558 78.514,224.928C84.331,225.357 90.16,225.683 95.979,226.096C107.898,226.941 119.779,227.536 131.726,227.687C130.914,226.36 130.104,225.034 129.292,223.707C124.257,233.635 131.618,246.388 127.074,255.978C125.549,259.199 128.823,261.173 131.572,259.589C142.516,253.283 132.107,234.427 135.612,224.885C136.353,222.866 135.643,220.786 133.178,220.905C121.061,221.485 108.885,220.759 96.784,220.129C86.483,219.593 74.115,217.388 64.148,220.497C63.4,220.731 61.987,222.488 63.29,222.997Z" style="fill-rule:nonzero;"/>
        <path d="M66.248,262.382C59.907,266.891 56.727,275.604 53.894,282.575C50.22,291.622 47.387,300.988 43.881,310.099C36.028,330.509 27.068,351.089 24.816,373.079C27.642,371.812 30.468,370.545 33.295,369.277C33.019,368.698 32.599,368.247 32.033,367.923C29.345,365.706 26.126,368.258 25.195,370.989C24.796,372.162 24.661,372.977 24.72,374.203C24.995,379.838 33.489,376.443 33.953,372.338C36.296,351.662 42.415,332.13 49.78,312.734C53.026,304.183 55.488,295.353 58.505,286.722C59.923,282.661 61.489,278.65 63.237,274.72C64.901,270.976 67.369,267.551 68.325,263.541C68.622,262.305 67.165,261.73 66.248,262.382Z" style="fill-rule:nonzero;"/>
        <path d="M128.731,259.647C128.702,270.192 133.162,280.751 136.527,290.704C140.134,301.373 143.306,312.093 146.102,323.001C148.965,334.176 151.922,345.326 154.797,356.498C155.977,361.08 157.144,365.38 157.705,370.08C157.83,371.124 158.289,372.43 159.391,372.853C159.455,372.877 159.519,372.902 159.582,372.926C161.628,373.713 163.62,373.163 165.27,371.743C170.023,367.648 166.11,360.24 164.673,355.32C161.807,345.505 158.932,335.683 156.087,325.857C152.608,313.839 149.125,301.909 144.844,290.146C140.97,279.503 137.771,267.414 131.705,257.936C130.794,256.514 128.734,258.563 128.731,259.647Z" style="fill-rule:nonzero;"/>
        <path d="M24.883,376.406C33.011,383.037 44.438,384.421 54.553,385.48C65.707,386.65 76.99,386.414 88.188,386.433C114.262,386.478 139.622,386.494 164.429,377.473C169.939,375.47 171.522,366.221 163.912,367.948C160.517,368.718 157.763,370.025 155.699,372.923C155.011,373.889 154.396,375.589 155.417,376.592C158.033,379.164 161.205,378.355 164.429,377.474C163.811,374.496 163.194,371.518 162.575,368.539C152.02,373.566 139.578,375.087 128.072,376.113C115.907,377.197 103.662,377.107 91.461,377.16C81.041,377.204 70.645,377.35 60.232,376.834C49.396,376.296 39.163,374.074 28.693,371.412C26.618,370.884 22.634,374.572 24.883,376.406Z" style="fill-rule:nonzero;"/>
        <path d="M62.258,222.445C54.287,226.879 48.877,235.519 43.814,242.822C38.603,250.339 33.913,258.179 29.213,266.019C20.643,280.316 10.507,296.947 11.256,314.251C11.315,315.608 12.321,316.876 13.714,317.052C25.758,318.579 33.965,301.619 38.75,293.144C41.93,287.513 44.887,281.875 48.456,276.472C54.72,266.99 61.435,257.847 67.249,248.069C69.957,243.515 63.478,241.364 60.552,244.4C59.165,245.838 57.992,247.152 57.257,249.033C56.27,251.56 57.918,254.116 60.811,253.083C62.743,252.394 64.188,251.691 65.632,250.188C63.4,248.965 61.167,247.742 58.935,246.519C51.119,259.71 41.327,271.637 34.042,285.15C31.42,290.014 28.797,294.878 25.778,299.51C24.636,301.26 20.381,308.881 17.699,308.597C18.519,309.531 19.338,310.464 20.158,311.398C19.146,295.752 28.882,280.374 36.412,267.362C40.613,260.102 44.835,252.879 49.445,245.866C54.195,238.64 60.633,231.899 64.124,223.944C64.716,222.594 63.427,221.795 62.258,222.445Z" style="fill-rule:nonzero;"/>
        <path d="M53.589,189.358C46.715,186.367 41.626,177.58 39.238,170.748C38.279,168.007 37.95,164.856 38.392,161.986C38.567,160.848 39.281,160.411 38.459,160.547C40.015,160.29 41.685,161.971 42.792,162.8C46.205,165.357 51.108,159.362 49.012,156.126C45.007,149.944 44.537,139.371 46.394,132.438C47.269,129.17 50.292,127.701 53.442,128.102C57.223,128.583 59.293,131.862 60.134,135.251C61.36,140.19 68.417,134.889 68.498,131.551C68.607,127.053 69.237,122.59 70.298,118.219C70.844,115.965 72.711,108.642 76.087,108.818C81.778,109.114 83.423,123.651 84.272,127.732C85.256,132.463 93.151,127.732 92.827,123.948C92.186,116.459 97.404,107.043 105.876,111.746C112.672,115.518 114.524,126.383 114.216,133.363C117.16,132.06 120.105,130.758 123.049,129.455C122.463,126.836 124.343,125.556 126.553,124.836C129.753,123.794 132.646,126.547 133.924,129.184C136.689,134.883 132.606,142.449 129.749,147.297C128.591,149.263 129.474,152.017 131.815,152.451C134.533,152.955 136.721,150.963 138.013,148.838C138.025,148.818 139.906,150.175 140.28,150.592C141.928,152.434 140.637,155.413 139.802,157.248C138.028,161.148 135.633,164.538 134.265,168.639C133.447,171.087 135.693,172.974 137.949,172.838C142.039,172.589 142.318,180.142 141.174,182.753C138.842,188.075 132.53,192.149 127.54,194.663C123.534,196.682 123.697,203.218 129.042,201.906C138.314,199.63 148.54,190.608 150.928,181.177C152.917,173.323 149.211,163.042 139.91,163.685C141.139,165.084 142.366,166.484 143.595,167.884C146.29,159.592 154.013,152.652 148.096,143.735C143.039,136.115 133.211,141.521 129.749,147.298C132.504,147.812 135.259,148.325 138.014,148.839C143.809,138.86 147.685,124.939 136.38,117.349C131.864,114.317 125.131,116.269 120.996,118.931C115.62,122.391 112.864,128.133 114.424,134.372C115.727,139.578 123.184,134.002 123.258,130.464C123.488,119.429 118.697,105.119 106.778,102.222C93.125,98.904 82.986,114.921 84.071,126.755C86.923,125.494 89.774,124.233 92.626,122.971C90.684,113.914 88.082,98.022 75.405,100.917C62.381,103.892 59.884,123.583 59.937,134.296C62.725,133.063 65.513,131.829 68.301,130.596C64.66,117.475 49.719,117.37 41.552,126.249C33.708,134.777 36.105,153.401 42.067,162.222C44.14,159.997 46.213,157.773 48.287,155.548C43.689,153.275 39.188,152.46 34.886,155.652C31.322,158.297 30.767,163.671 30.955,167.71C31.443,178.128 39.94,192.075 50.252,194.842C52.802,195.527 56.653,190.692 53.589,189.358Z" style="fill-rule:nonzero;"/>
        <path d="M480.142,89.019C470.563,84.767 459.326,88.255 450.739,93.265C441.082,98.9 433.712,108.308 429.379,118.493C422.215,135.328 425.917,153.493 442.147,163.033C455.911,171.124 474.653,170.678 488.218,162.495C503.864,153.058 507.141,135.608 503.067,118.893C499.072,102.506 482.671,81.43 464.444,93.708C462.805,94.812 461.101,99.493 464.731,98.818C472.375,97.395 479.335,99.141 484.791,104.752C490.745,110.876 494.081,119.624 495.409,127.936C496.644,135.667 496.13,143.976 491.205,150.342C486.612,156.28 478.976,159.122 471.753,159.988C456.518,161.814 439.043,154.612 434.59,138.896C431.668,128.588 436.403,116.751 442.384,108.498C450.032,97.943 460.696,93.695 473.124,91.912C475.012,91.641 477.006,91.735 478.911,91.625C479.878,91.567 481.554,89.646 480.142,89.019Z" style="fill-rule:nonzero;"/>
        <path d="M134.206,225.547C134.294,234.106 138.782,241.679 142.869,248.939C147.061,256.386 150.777,263.941 154.683,271.531C162.206,286.148 173.313,302.455 172.826,319.547C174.548,318.036 176.268,316.526 177.99,315.015C174.6,314.374 173.271,311.735 170.644,309.891C169.164,308.852 166.6,310.779 166.456,312.325C165.958,317.672 169.782,320.853 174.796,321.793C177.423,322.285 179.894,319.759 179.96,317.261C180.409,300.489 169.997,284.595 162.284,270.421C158.427,263.334 155.036,256.062 150.82,249.171C145.851,241.049 140.546,233.198 137.435,224.12C136.801,222.269 134.192,224.197 134.206,225.547Z" style="fill-rule:nonzero;"/>
        <path d="M128.48,250.519C132.987,264.136 141.057,276.558 148.639,288.681C152.472,294.809 156.314,300.932 159.799,307.267C161.211,309.833 162.487,312.468 163.658,315.153C164.75,317.654 164.816,319.813 167.725,320.467C169.136,320.784 170.472,319.645 171.093,318.504C173.563,313.973 168.644,307.449 166.451,303.474C163.232,297.638 159.53,292.079 155.841,286.536C147.485,273.976 139.862,260.908 130.362,249.175C129.656,248.301 128.186,249.629 128.48,250.519Z" style="fill-rule:nonzero;"/>
        <path d="M179.846,329.631C179.715,328.054 179.051,327.493 177.728,326.619C176.618,325.886 175.229,327.1 174.721,327.985C169.172,337.654 173.218,348.346 178.367,357.221C181.322,362.315 184.786,367.099 188.162,371.916C191.352,376.47 193.83,381.099 196.475,385.939C198.353,389.377 203.886,385.212 201.921,382.05C201.721,381.704 201.522,381.359 201.321,381.012C199.906,378.454 196.416,380.939 196.394,383.192C196.401,383.882 196.38,384.572 196.333,385.261C198.312,384.385 200.292,383.509 202.271,382.634C201.119,378.777 198.117,375.065 195.839,371.8C192.638,367.21 189.17,362.812 185.952,358.233C179.987,349.745 173.704,339.119 178.176,328.629C177.467,329.14 176.759,329.65 176.051,330.16C177.1,329.983 178.134,330.008 179.155,330.234C179.481,330.291 179.875,329.972 179.846,329.631Z" style="fill-rule:nonzero;"/>
        <path d="M175.966,329.349C179.334,331.508 181.253,337.48 182.994,340.883C185.447,345.676 188.033,349.766 191.442,353.987C194.377,357.62 197.047,361.435 199.858,365.159C201.615,367.487 203.596,369.839 204.509,372.608C204.736,371.549 204.962,370.491 205.19,369.434C205.165,369.471 205.138,369.509 205.113,369.548C206.165,368.938 207.217,368.327 208.268,367.716C206.848,367.901 204.94,368.26 204.206,370.145C203.858,371.035 203.645,372.152 204.383,372.938C207.275,376.017 212.907,371.493 210.548,368.064C208.107,364.517 205.667,361.052 202.852,357.773C197.97,352.091 192.371,346.327 188.405,339.971C185.628,335.521 182.325,329.034 176.541,328.405C176.106,328.357 175.448,329.017 175.966,329.349Z" style="fill-rule:nonzero;"/>
        <path d="M209.431,369.579C203.47,368.902 201.29,376.901 200.954,381.417C200.451,388.191 201.25,395.182 202.959,401.753C203.295,403.047 204.895,403.597 206.068,403.489C215.094,402.66 224.55,402.11 233.27,402.797C238.326,403.195 245.672,405.059 248.581,399.565C249.12,398.546 249.262,396.857 248.353,395.975C248.332,395.954 248.31,395.933 248.289,395.912C247.348,394.998 246.072,394.823 244.842,395.236C244.082,395.491 243.324,395.869 242.717,396.402C242.244,396.814 241.872,397.301 241.6,397.865C240.526,400.148 241.958,397.373 242.036,397.287C243.624,396.565 245.213,395.844 246.802,395.122C248.234,395.494 245.436,394.89 244.902,394.919C243.947,394.971 242.986,394.928 242.031,394.877C239.58,394.747 237.134,394.523 234.685,394.351C225.861,393.727 216.508,394.063 207.783,395.496C208.82,396.075 209.857,396.653 210.894,397.232C209.343,393.135 208.56,388.762 207.974,384.438C207.509,381.007 206.38,374.645 209.601,372.252C210.399,371.658 210.848,369.74 209.431,369.579Z" style="fill-rule:nonzero;"/>
        <path d="M205.426,371.1C210.697,372.685 217.302,371.587 222.727,371.529C226.256,371.49 229.774,371.55 233.29,371.865C235.519,372.064 239.381,372.204 241.168,373.727C244.708,376.743 245.518,382.818 245.66,387.127C245.723,389.011 245.621,391.481 244.443,393.048C243.562,394.221 242.785,396.045 243.857,397.337C244.783,398.451 246.487,398.14 247.588,397.536C256.075,392.879 253.194,374.196 246.368,369.287C241.497,365.784 233.875,366.284 228.188,366.341C221.053,366.411 212.959,366.393 206.032,368.261C204.831,368.586 203.82,370.618 205.426,371.1Z" style="fill-rule:nonzero;"/>
        <path d="M205.117,400.994C192.725,411.647 187.264,430.054 181.597,444.814C180.685,447.189 182.181,448.96 184.681,448.329C189.065,447.221 194.664,447.105 199.425,446.752C207.875,446.123 216.348,445.757 224.817,445.504C232.624,445.27 240.438,445.139 248.246,445.318C250.901,445.379 253.556,445.499 256.198,445.777C257.063,445.869 257.923,445.999 258.773,446.179C260.763,446.601 258.722,446.383 258.697,444.79C258.766,449.052 265.421,446.108 265.365,442.651C265.298,438.406 257.873,438.831 255.127,438.686C246.933,438.254 238.706,438.41 230.507,438.626C221.215,438.871 211.923,439.35 202.653,440.036C196.602,440.484 190.239,440.746 184.36,442.388C185.387,443.56 186.417,444.731 187.444,445.903C190.069,438.526 192.731,431.168 195.81,423.965C199.045,416.399 203.373,409.369 206.694,401.857C207.204,400.703 205.883,400.336 205.117,400.994Z" style="fill-rule:nonzero;"/>
        <path d="M243.121,398.623C244.983,406.943 251.816,414.518 255.981,421.803C258.23,425.736 260.227,429.755 261.748,434.028C263.106,437.845 262.473,442.327 264.03,445.889C265.162,448.477 268.729,446.625 269.549,444.765C272.973,436.998 266.818,426.166 262.986,419.592C258.493,411.881 252.672,402.457 245.658,396.813C244.479,395.865 242.821,397.282 243.121,398.623Z" style="fill-rule:nonzero;"/>
        <path d="M335.857,294.785C319.253,286.673 301.237,307.098 298.298,321.853C295.394,336.435 309.065,352.941 323.808,353.274C347.204,353.804 375.161,317.455 352.186,299.215C343.95,292.676 331.373,289.723 322.43,296.229C320.897,297.344 336.955,295.322 335.857,294.785Z" style="fill-rule:nonzero;"/>
        <path d="M244.054,369.667C247.002,374.491 251.657,378.302 255.565,382.348C258.921,385.819 262.576,388.956 266.154,392.197C269.9,395.585 273.563,399.111 276.419,403.299C277.646,405.098 278.274,407.184 278.845,409.258C279.496,411.62 281.116,409.634 280.684,409.471C280.025,409.223 279.418,408.796 278.83,408.421C273.046,404.724 268.482,398.957 263.545,394.262C260.693,391.549 252.409,381.553 247.808,384.751C247.009,385.306 246.245,386.202 246.598,387.249C247.505,389.934 252.376,392.199 254.508,394.036C258.091,397.126 261.536,400.409 264.821,403.815C267.696,406.797 276.573,417.216 281.599,413.93C289,409.091 278.75,397.702 275.046,393.961C270.839,389.715 266.099,386.026 261.66,382.033C256.405,377.303 251.754,371.693 245.821,367.771C244.797,367.094 243.481,368.727 244.054,369.667Z" style="fill-rule:nonzero;"/>
        <path d="M304.414,359.141C313.67,360.392 323.451,359.349 332.771,359.13C337.685,359.015 342.6,358.907 347.516,358.836C351.69,358.775 356.394,359.871 359.84,357.198C360.935,356.348 361.449,354.731 360.62,353.556C360.474,353.348 360.328,353.141 360.182,352.934C359.731,352.293 358.678,352.049 357.952,352.139C340.795,354.272 323.109,352.254 305.961,354.618C304.123,354.873 301.39,358.733 304.414,359.141Z" style="fill-rule:nonzero;"/>
        <path d="M300.71,358.398C298.928,364.083 300.267,371.048 301.209,376.807C302.339,383.718 304.129,390.521 305.962,397.273C307.721,403.75 309.648,410.177 311.311,416.679C312.154,419.977 312.872,423.299 313.461,426.651C313.998,429.706 313.865,432.595 315.526,435.257C317.255,438.03 343.943,433.173 344.463,431.358C345.904,426.323 348.481,418.683 347.168,413.755C345.472,407.39 356.118,387.72 354.05,381.468C351.936,375.082 359.399,363.158 357.743,356.634C356.857,353.144 305.051,360.409 303.994,357.339C303.362,355.5 301.04,357.345 300.71,358.398Z" style="fill-rule:nonzero;"/>
        <path d="M357.891,354.863C355.467,360.661 354.721,367.456 353.494,373.592C351.901,381.559 350.343,389.53 348.727,397.492C347.335,404.353 345.829,411.21 344.233,418.025C343.217,422.367 342.053,426.768 339.957,430.723C337.607,435.156 343.158,436.154 345.914,433.987C349.309,431.322 350.234,425.47 351.263,421.559C353.075,414.669 354.248,407.555 355.589,400.566C357.24,391.951 358.622,383.249 360.003,374.586C361.008,368.292 362.956,360.473 361.441,354.141C361,352.307 358.314,353.853 357.891,354.863Z" style="fill-rule:nonzero;"/>
        <path d="M315.598,437.822C323.702,440.365 334.242,437.956 341.884,437.584C344.42,437.461 346.635,434.743 345.977,432.274C344.939,428.375 338.775,430.373 336.115,430.807C329.477,431.89 322.769,432.709 316.29,434.598C314.93,434.995 313.773,437.25 315.598,437.822Z" style="fill-rule:nonzero;"/>
        <path d="M300.658,355.573C299.691,356.685 299.478,358.093 299.134,359.499C298.503,362.076 297.355,364.537 296.235,366.929C293.871,371.978 290.978,376.785 288.151,381.584C283.863,388.86 278.919,396.264 277.776,404.833C277.447,407.306 277.716,410.724 280.738,411.284C284.953,412.065 289.228,407.523 291.715,404.814C299.36,396.486 302.524,384.168 306.013,373.686C303.588,373.882 301.581,363.449 303.044,363.4C306.093,363.299 287.935,380.395 285.796,385.534C284.284,389.167 283.897,405.864 282.272,406.961C281.477,407.327 286.233,396.939 287.469,393.876C289.602,388.597 309.57,358.508 302.783,354.866C302.01,354.454 301.154,355.002 300.658,355.573Z" style="fill-rule:nonzero;"/>
        <path d="M54.09,511.979C54.622,508.552 53.194,505.318 53.717,501.844C54.484,496.753 59.941,493.665 64.717,494.336C72.588,495.44 78.016,504.969 80.411,511.642C81.886,509.273 83.361,506.904 84.836,504.534C75.403,506.582 65.885,504.185 56.49,505.35C52.485,505.848 46.758,514.066 53.179,515.029C63.39,516.558 75.354,516.084 85.318,513.433C87.971,512.727 90.962,509.202 89.743,506.324C84.98,495.074 74.816,483.871 61.535,486.702C55.474,487.995 49.364,493.815 47.797,499.78C46.616,504.271 46.654,512.12 52.471,513.148C53.159,513.268 53.983,512.672 54.09,511.979Z" style="fill-rule:nonzero;"/>
        <path d="M109.684,509.432C111.047,505.718 111.585,501.593 114.425,498.617C116.972,495.947 120.406,494.614 124.029,494.318C132.913,493.591 137.661,501.3 136.753,509.395C138.807,507.593 140.86,505.791 142.914,503.989C136.226,503.786 129.634,502.821 122.923,503.203C117.724,503.499 106.023,506.098 107.142,513.498C107.437,515.443 108.73,516.404 110.679,516.352C112.939,516.289 114.494,514.793 116.523,514.112C119.004,513.276 121.881,513.367 124.464,513.341C129.905,513.289 135.33,514.005 140.774,513.978C144.27,513.959 146.803,510.463 147.041,507.318C148.03,494.22 139.218,484.459 125.856,485.797C119.934,486.39 114.123,489.32 110.057,493.639C106.147,497.793 102.409,504.657 104.71,510.447C105.63,512.759 109.057,511.142 109.684,509.432Z" style="fill-rule:nonzero;"/>
        <path d="M56.328,381.382C54.688,390.724 55.824,400.88 56.034,410.329C56.274,421.128 55.88,431.959 56.452,442.744C57.014,453.296 58.285,463.82 59.093,474.356C59.381,478.11 60.146,481.796 60.692,485.514C61.064,488.046 61.748,490.602 64.898,490.301C67.214,490.079 69.946,487.772 69.669,485.231C69.658,485.137 69.648,485.043 69.639,484.951C69.368,482.468 66.658,482.042 64.785,483.179C64.693,483.236 64.6,483.292 64.508,483.349C66.168,483.682 67.827,484.016 69.487,484.349C67.266,479.396 66.93,470.873 66.434,464.831C65.657,455.384 64.178,446.023 63.603,436.551C63.031,427.134 63.002,417.681 62.504,408.255C62.026,399.192 62.512,389.385 60.738,380.49C60.212,377.855 56.682,379.361 56.328,381.382Z" style="fill-rule:nonzero;"/>
        <path d="M83.807,382.71C80.399,391.711 79.716,401.539 78.922,411.061C78.057,421.439 77.622,431.85 76.828,442.234C76.064,452.208 74.872,462.151 74.863,472.168C74.86,475.242 74.861,478.315 74.786,481.389C74.746,483.004 74.567,484.594 74.321,486.189C74.162,487.219 72.619,490.546 74.066,487.904C75.26,486.856 76.454,485.809 77.647,484.762C77.579,484.79 77.509,484.819 77.441,484.848C75.192,485.802 71.125,490.322 74.901,492.237C77.414,493.512 80.42,491.768 81.813,489.615C83.521,486.973 83.22,483.832 83.156,480.809C82.969,472.005 82.748,463.215 83.181,454.414C83.786,442.145 84.714,429.897 85.246,417.621C85.757,405.845 87.225,394.145 87.749,382.391C87.856,380.027 84.332,381.322 83.807,382.71Z" style="fill-rule:nonzero;"/>
        <path d="M100.929,383.507C102.067,392.167 104.2,400.673 105.395,409.329C106.661,418.487 107.21,427.74 107.608,436.97C108.374,454.796 108.004,472.865 109.975,490.611C110.084,491.589 110.512,492.697 111.501,493.121C111.795,493.247 112.09,493.373 112.384,493.499C114.135,494.249 116.214,493.395 117.284,491.871C119.842,488.228 118.459,485.154 117.974,481.018C117.466,476.676 117.123,472.318 116.816,467.958C116.111,457.952 115.678,447.93 115.013,437.922C114.333,427.688 113.276,417.464 111.578,407.348C110.118,398.638 108.337,389.564 103.515,382.021C102.78,380.867 100.794,382.484 100.929,383.507Z" style="fill-rule:nonzero;"/>
        <path d="M128.942,381.966C126.866,390.495 127.655,399.799 127.733,408.514C127.822,418.38 127.958,428.295 127.286,438.144C126.656,447.367 126.421,456.612 125.815,465.835C125.532,470.148 125.559,474.481 125.486,478.802C125.45,480.929 125.378,483.058 125.427,485.185C125.504,486.052 125.549,486.92 125.562,487.79C125.325,489.636 125.645,489.405 126.524,487.096C128.025,486.225 129.525,485.354 131.025,484.483C130.811,484.479 130.598,484.475 130.385,484.472C127.322,484.421 124.549,488.086 125.389,490.953C125.448,491.156 125.508,491.36 125.567,491.563C125.879,492.626 126.948,493.249 127.949,493.474C128.025,493.491 128.101,493.508 128.178,493.526C130.643,494.083 133.962,492.034 134.773,489.682C135.725,486.92 135.201,484.967 134.902,482.147C134.433,477.714 134.698,473.097 134.621,468.642C134.455,458.959 134.849,449.209 135.068,439.526C135.291,429.711 135.338,419.962 134.932,410.147C134.539,400.632 135.115,390.029 132.477,380.827C131.913,378.862 129.223,380.807 128.942,381.966Z" style="fill-rule:nonzero;"/>
        <path d="M414.539,183.495C421.54,186.493 430.126,185.502 437.603,185.398C446.433,185.275 455.258,184.85 464.081,184.49C482.273,183.75 501.308,182.452 519.171,186.56C520.291,183.284 521.412,180.007 522.533,176.73C519.72,177.289 517.686,178.301 515.897,180.612C514.12,182.908 514.78,186.443 518.151,186.269C516.224,186.369 518.58,186.467 519.171,186.56C524.822,187.455 529.902,177.097 523.776,176.788C505.614,175.869 487.684,175.661 469.514,176.693C460.641,177.197 451.774,177.797 442.895,178.201C433.983,178.606 424.489,177.592 415.815,179.783C414.602,180.088 412.691,182.703 414.539,183.495Z" style="fill-rule:nonzero;"/>
        <path d="M411.472,181.932C408.678,192.132 413.733,203.363 415.618,213.365C417.772,224.81 419.703,236.292 421.605,247.782C425.536,271.521 428.274,295.141 429.624,319.168C429.968,325.285 440.259,321.13 439.249,316.082C438.839,314.035 438.597,313.03 437.325,311.386C435.585,309.135 432.27,311.647 431.35,313.346C430.411,315.08 430.074,316.067 429.722,318.007C432.897,317.365 436.073,316.724 439.248,316.082C436.839,293.099 433.387,270.098 429.11,247.391C427.037,236.381 425.007,225.361 422.631,214.411C420.194,203.185 416.49,192.308 414.152,181.069C413.831,179.522 411.692,181.127 411.472,181.932Z" style="fill-rule:nonzero;"/>
        <path d="M526.907,180.472C523.485,184.301 521.923,190.08 520.244,194.859C518.243,200.554 516.492,206.333 514.873,212.148C511.424,224.539 508.931,237.2 506.903,249.896C502.99,274.404 500.674,299.188 496.094,323.586C496.83,322.389 497.568,321.191 498.305,319.993C498.09,320.161 497.876,320.329 497.662,320.497C499.361,319.939 501.06,319.382 502.76,318.824C501.867,318.63 501.016,318.589 500.098,318.605C497.653,318.652 494.886,321.369 495.131,323.883C495.159,323.911 495.187,323.94 495.214,323.969C494.932,325.703 495.38,326.977 496.818,327.997C496.901,328.057 496.984,328.116 497.068,328.175C498.941,329.505 501.79,328.102 503.268,326.887C507.485,323.417 507.165,316.246 507.922,311.216C508.855,305.013 509.679,298.792 510.485,292.57C512.132,279.844 513.576,267.094 515.306,254.378C517.029,241.718 519.001,229.106 521.411,216.558C522.584,210.451 523.986,204.39 525.57,198.377C527.008,192.921 530.424,186.273 530.069,180.625C529.95,178.714 527.666,179.623 526.907,180.472Z" style="fill-rule:nonzero;"/>
        <path d="M434.985,328.544C439.222,329.993 444.406,328.956 448.792,328.6C454.558,328.13 460.339,327.871 466.116,327.618C476.878,327.145 488.249,328.31 498.891,326.799C497.588,325.316 496.287,323.831 494.985,322.348C494.928,322.534 494.871,322.719 494.814,322.904C494.297,324.589 495.418,326.296 497.088,326.628C497.282,326.667 497.476,326.705 497.67,326.743C502.924,327.79 508.496,318.12 502.19,317.154C491.316,315.486 479.169,317.089 468.227,317.766C462.388,318.128 456.571,318.715 450.762,319.405C445.578,320.02 440.014,320.602 435.42,323.223C433.387,324.382 432.201,327.59 434.985,328.544Z" style="fill-rule:nonzero;"/>
        <path d="M446.623,354.65C448.229,355.72 451.541,355.042 453.339,354.924C457.098,354.678 460.855,354.332 464.61,354.033C470.873,353.535 477.009,353.786 483.242,353.828C486.931,353.853 490.013,349.206 488.026,346.056C485.077,341.378 471.855,344.646 467.588,345.202C461.686,345.971 449.578,346.576 446.134,352.46C445.687,353.223 445.906,354.172 446.623,354.65Z" style="fill-rule:nonzero;"/>
        <path d="M525.952,185.18C525.883,188.965 527.599,192.847 528.739,196.382C530.704,202.481 532.63,208.624 534.332,214.801C537.082,224.779 538.755,235.033 542.143,244.824C547.484,260.261 553.591,275.84 556.429,291.984C556.885,294.58 557.363,297.435 557.089,300.079C556.959,301.339 556.381,301.729 557.446,300.658C558.071,300.027 559.01,299.793 559.874,299.872C559.459,299.834 560.361,300.171 559.54,299.672C556.852,298.039 554.056,291.97 552.379,288.633C545.051,274.052 539.586,258.445 534.232,243.059C530.382,231.996 526.267,220.785 523.515,209.379C520.92,210.858 518.325,212.338 515.73,213.817C516.108,215.381 516.534,216.444 517.421,217.775C519.438,220.801 523.445,216.385 523.602,214.224C523.746,212.236 523.983,211.331 523.515,209.378C522.419,204.8 514.73,209.635 515.73,213.816C518.46,225.234 522.568,236.447 526.384,247.531C531.697,262.957 537.245,278.484 544.495,293.125C547.6,299.397 556.37,315.571 563.779,303.353C566.608,298.688 564.908,291.757 563.88,286.829C562.118,278.396 559.488,270.163 556.746,262.007C553.697,252.938 550.03,244.049 547.195,234.912C543.835,224.078 541.516,213.054 537.379,202.45C536.053,199.051 534.934,195.565 533.643,192.146C532.629,189.46 531.1,186.531 530.576,183.698C530.01,180.649 525.995,182.876 525.952,185.18Z" style="fill-rule:nonzero;"/>
        <path d="M409.903,184.124C407.518,190.563 405.982,197.273 403.979,203.834C401.538,211.836 398.659,219.703 395.832,227.575C390.6,242.146 385.567,257.385 378.686,271.272C374.255,280.212 368.255,289.68 367.842,299.935C367.634,305.095 370.204,314.54 377.237,313.232C383.796,312.012 387.51,305.322 390.348,299.917C393.937,293.08 396.58,285.737 399.173,278.48C401.923,270.786 404.893,263.41 408.45,256.021C411.714,249.243 415.152,242.612 417.958,235.626C419.716,231.25 421.715,226.397 421.296,221.555C421.298,221.434 421.301,221.313 421.304,221.192C420.617,222.622 419.933,224.051 419.245,225.481C419.276,225.451 419.308,225.421 419.339,225.391C417.255,225.56 415.17,225.729 413.085,225.898C413.085,225.93 413.084,225.962 413.083,225.995C415.229,230.598 421.333,225.897 421.418,222.308C421.478,221.911 421.466,221.518 421.384,221.129C421.029,218.868 418.878,217.538 416.648,218.47C412.844,220.058 412.013,223.008 411.636,226.755C411.108,232.016 408.134,237.667 405.832,242.359C401.286,251.627 396.321,260.782 392.823,270.517C390.595,276.716 388.429,282.932 385.972,289.045C383.989,293.978 381.274,301.14 377.932,304.354C377.296,304.965 378.433,304.235 379.201,304.278C379.058,304.27 378.866,304.087 378.168,303.12C375.89,299.97 376.705,295.623 377.497,292.146C379.82,281.948 385.853,272.414 389.772,262.771C395.146,249.548 399.993,236.222 404.487,222.679C408.495,210.6 414.36,196.783 413.487,183.835C413.346,181.73 410.406,182.764 409.903,184.124Z" style="fill-rule:nonzero;"/>
        <path d="M420.543,514.584C420.633,511.068 420.522,507.431 422.831,504.564C424.92,501.973 428.93,501.306 432.019,501.137C440.4,500.679 448.92,506.374 450.307,514.898C451.576,513.256 452.845,511.615 454.114,509.973C443.768,512.188 433.346,509.951 422.925,510.077C418.227,510.135 415.014,518.295 421.122,518.492C432.28,518.85 443.552,519.935 454.509,517.258C456.908,516.672 458.845,513.849 458.131,511.439C454.578,499.456 443.118,493.1 430.926,495.27C422.375,496.791 410.266,506.79 418.418,515.805C419.213,516.683 420.52,515.461 420.543,514.584Z" style="fill-rule:nonzero;"/>
        <path d="M443.305,321.064C434.937,320.184 432.32,334.421 431.067,340.124C428.536,351.65 427.832,363.773 427.352,375.542C425.723,415.551 433.61,454.721 435.205,494.503C437.911,493.637 440.616,492.77 443.322,491.901C443.208,489.994 442.814,488.746 441.333,487.496C439.382,485.85 435.737,487.533 435.507,490.107C435.376,491.574 435.235,493.03 435.205,494.503C435.102,499.703 443.161,496.021 443.322,491.901C443.66,483.254 441.925,474.292 440.811,465.743C439.522,455.842 438.35,445.922 437.263,435.996C435.127,416.504 433.992,397.059 434.02,377.451C434.034,367.973 434.676,358.443 435.758,349.033C436.371,343.706 437.192,338.357 438.472,333.146C438.994,331.021 439.977,325.917 442.454,325.038C443.768,324.57 445.854,321.332 443.305,321.064Z" style="fill-rule:nonzero;"/>
        <path d="M453.727,353.359C450.846,367.573 451.536,382.911 451.251,397.365C450.943,412.992 450.871,428.615 451.456,444.236C452.039,459.807 453.615,475.337 455.928,490.744C456.51,494.628 456.69,498.513 456.712,502.438C456.723,504.421 456.66,506.382 456.383,508.346C456.397,508.249 456.054,510.075 456.104,509.937C455.079,512.789 454.343,508.033 459.951,507.591C456.795,507.84 452.61,512.185 455.212,515.292C458.105,518.747 463.918,515.68 465.251,512.173C466.799,508.099 466.562,503.63 466.377,499.34C465.768,485.154 462.339,471.142 461.104,456.972C459.588,439.582 459.06,422.123 458.818,404.675C458.693,395.624 458.633,386.572 458.537,377.523C458.448,369.137 458.704,360.573 456.856,352.351C456.465,350.616 453.936,352.328 453.727,353.359Z" style="fill-rule:nonzero;"/>
        <path d="M478.081,353.301C482.763,362.87 483.815,374.402 484.418,384.878C485.146,397.516 486.502,410.079 487.269,422.71C488.199,438.027 488.234,453.398 487.898,468.736C487.726,476.587 487.564,484.427 486.798,492.247C486.462,495.667 486.046,499.078 485.775,502.505C485.573,505.057 484.561,509.02 485.739,511.379C487.97,515.852 493.77,511.311 493.918,507.762C493.937,507.316 493.897,505.634 493.75,507.042C494.193,502.807 489.2,503.145 487.268,505.819C486.467,506.926 485.864,508.074 485.631,509.435C488.168,508.298 490.704,507.161 493.241,506.025C493.257,506.046 493.628,502.115 493.638,501.803C493.7,499.952 493.837,498.105 493.964,496.258C494.219,492.555 494.568,488.858 494.818,485.154C495.323,477.665 495.173,470.094 495.201,462.59C495.258,447.307 494.946,432.033 493.661,416.797C492.631,404.573 491.355,392.284 490.025,380.086C488.923,369.986 487.489,359.352 479.745,352.111C479.085,351.497 477.674,352.469 478.081,353.301Z" style="fill-rule:nonzero;"/>
        <path d="M491.824,512.834C494.155,508.855 495.13,505.112 499.233,502.439C503.285,499.797 508.254,498.965 513.008,499.003C522.922,499.081 531.478,505.763 529.194,516.258C530.845,514.808 532.497,513.359 534.148,511.909C531.247,512.029 529.325,512.118 526.9,513.748C525.723,514.539 524.606,515.894 525.127,517.411C525.256,517.786 525.385,518.162 525.514,518.539C525.966,519.854 527.417,520.432 528.706,520.32C529.95,520.23 531.19,520.104 532.428,519.94C534.618,519.685 537.035,517.901 537.382,515.592C539.64,500.568 528.64,492.135 514.428,492.38C507.822,492.495 501.388,494.807 496.077,498.668C492.348,501.379 486.74,508.385 489.493,513.307C490.093,514.383 491.364,513.62 491.824,512.834Z" style="fill-rule:nonzero;"/>
        <path d="M488.357,516.297C493.051,517.781 498.781,516.594 503.742,516.383C509.915,516.117 516.93,515.639 522.897,517.566C524.745,518.163 526.909,516.577 527.974,515.259C531.999,510.282 523.739,508.966 520.698,508.804C516.823,508.598 512.943,508.703 509.074,508.956C502.408,509.393 493.276,509.72 488.25,514.589C487.719,515.102 487.481,516.019 488.357,516.297Z" style="fill-rule:nonzero;"/>
        <path d="M497.976,320.408C503.78,350.547 508.298,380.665 510.962,411.279C512.239,425.959 513.233,440.709 513.297,455.45C513.319,460.712 513.145,465.969 512.777,471.218C512.522,474.881 512.14,478.535 511.604,482.168C511.388,483.631 511.076,485.068 510.701,486.498C510.665,486.795 510.574,487.067 510.429,487.318C509.06,490.813 510.248,486.495 512.725,485.956C509.68,486.619 507.018,492.198 511.168,493.217C522.397,495.974 521.077,465.929 521.221,460.291C521.58,446.116 520.692,431.914 519.614,417.787C518.198,399.22 516.136,380.67 513.199,362.279C510.907,347.924 508.998,331.57 501.843,318.697C500.819,316.857 497.617,318.543 497.976,320.408Z" style="fill-rule:nonzero;"/>
        <path d="M207.412,444.013C205.241,452.945 209.886,463.345 211.235,472.158C212.008,477.202 212.516,482.287 213.564,487.287C214.011,489.422 214.056,493.802 215.376,495.62C217.121,498.025 220.619,494.898 221.11,493.049C221.369,492.078 221.22,491.453 220.739,490.596C219.726,488.789 217.62,489.69 216.537,490.936C216.199,491.264 215.905,491.625 215.653,492.02C217.323,491.673 218.994,491.326 220.665,490.979C219.683,489.663 219.313,485.685 218.943,484.221C217.652,479.116 216.954,473.855 215.948,468.689C215.148,464.586 214.028,460.586 212.895,456.566C211.664,452.194 211.073,447.594 209.579,443.316C209.168,442.142 207.593,443.267 207.412,444.013Z" style="fill-rule:nonzero;"/>
        <path d="M226.463,441.949C223.318,449.781 223.235,458.873 223.039,467.201C222.818,476.588 223.623,485.873 224.665,495.186C225.005,498.224 229.644,496.121 229.391,493.67C229.215,491.976 228.891,490.8 227.75,489.513C226.954,488.617 225.317,489.479 224.98,490.421C224.334,492.23 224.366,493.239 224.665,495.186C226.204,494.505 227.742,493.824 229.281,493.144C227.552,484.817 227.107,476.102 226.873,467.623C226.634,459.005 227.816,450.438 227.658,441.852C227.645,441.133 226.634,441.524 226.463,441.949Z" style="fill-rule:nonzero;"/>
        <path d="M240.903,441.257C237.106,449.339 236.981,459.402 235.859,468.118C234.72,476.966 234.018,486.126 231.185,494.614C230.966,495.27 231.14,496.351 231.664,496.841C232.268,497.438 232.242,496.701 231.585,494.636C231.336,495.086 231.178,495.923 231.439,496.407C231.647,496.79 231.846,497.186 232.288,497.359C234.618,498.275 236.599,496.531 237.721,494.616C240.048,490.642 239.884,483.843 240.395,479.432C241.824,467.082 244.238,453.523 242.894,441.094C242.764,439.898 241.24,440.539 240.903,441.257Z" style="fill-rule:nonzero;"/>
        <path d="M212.778,508.201C212.596,505.408 212.153,502.89 214.86,501.209C217.499,499.569 220.958,500.475 222.993,502.573C223.98,503.59 225.674,503.527 226.812,502.777C230.262,500.504 232.509,500.382 235.198,503.632C237.226,506.087 238.083,509.721 238.45,512.79C240.386,511.093 242.321,509.394 244.257,507.695C233.913,506.624 217.087,501.074 209.073,510.44C206.062,513.961 209.805,517.379 213.489,515.471C221.491,511.328 232.11,514.672 240.665,515.315C243.985,515.563 246.997,512.695 246.286,509.326C245.133,503.862 242.915,498.755 238.254,495.451C233.663,492.195 227.707,494.916 223.967,498.031C225.51,497.906 227.053,497.781 228.595,497.656C223.906,493.888 218.336,493.675 213.049,496.47C208.041,499.119 205.017,505.773 208.337,510.75C209.684,512.772 212.89,509.916 212.778,508.201Z" style="fill-rule:nonzero;"/>
        <path d="M315.631,432.867C312.985,437.885 313.26,444.547 313.312,450.067C313.377,457.037 313.621,464.017 313.76,470.986C313.883,477.211 314.031,483.401 313.88,489.626C313.817,492.249 312.6,497.645 313.899,499.98C315.507,502.872 320.577,499.507 319.17,496.977C317.904,494.701 314.906,496.04 314.06,498.016C312.471,501.729 317.759,501.861 319.009,498.94C320.123,496.336 343.46,504.314 343.392,501.54C343.256,496 345.019,466.484 344.691,460.951C344.271,453.891 346.044,438.152 345.576,431.09C345.148,424.629 317.766,439.124 317.543,432.714C317.501,431.507 315.952,432.261 315.631,432.867Z" style="fill-rule:nonzero;"/>
        <path d="M345.012,427.384C343.042,434.145 343.454,441.593 343.43,448.569C343.402,456.469 343.18,464.258 342.376,472.125C341.828,477.486 341.225,482.843 340.726,488.208C340.531,490.298 340.358,492.389 340.16,494.479C340.079,495.331 339.984,496.18 339.883,497.03C339.731,498.3 338.896,499.267 340.239,497.371C341.739,496.872 343.24,496.374 344.741,495.875C344.827,495.914 344.912,495.953 344.997,495.991C343.079,493.36 339.585,497.169 339.434,499.187C339.403,499.613 339.483,499.977 339.59,500.394C339.92,501.682 341.738,501.98 342.785,501.56C346.438,500.094 346.24,496.532 346.51,493.196C346.91,488.227 347.302,483.258 347.668,478.288C348.304,469.64 349.106,461.127 348.864,452.441C348.637,444.312 348.831,434.768 346.068,427.045C345.86,426.463 345.114,427.035 345.012,427.384Z" style="fill-rule:nonzero;"/>
        <path d="M311.782,511.655C312.871,509.676 310.735,507.4 311.031,505.182C311.302,503.154 313.001,501.856 314.688,500.975C316.531,500.013 318.749,499.865 320.742,500.327C323.393,500.941 324.168,503.153 324.606,505.52C325.324,509.391 331.126,506.717 330.686,503.571C329.428,494.567 319.364,493.607 312.79,497.449C309.713,499.248 307.077,502.387 306.791,506.039C306.64,507.97 307.187,509.705 308.305,511.274C309.09,512.378 310.939,513.188 311.782,511.655Z" style="fill-rule:nonzero;"/>
        <path d="M330.375,505.74C330.764,504.156 331.116,502.012 332.832,501.406C334.591,500.785 336.741,501.469 338.364,502.171C340.398,503.049 342.263,504.603 343.315,506.568C344.877,509.486 343.244,512.1 343.974,515.005C344.61,517.526 348.049,515.703 348.988,514.599C351.797,511.292 350.916,505.473 348.656,502.081C346.576,498.958 343.221,497.01 339.583,496.272C334.154,495.172 323.628,499.767 328.745,506.47C329.25,507.133 330.242,506.288 330.375,505.74Z" style="fill-rule:nonzero;"/>
        <path d="M308.139,512.069C310.754,517.013 319.669,516.543 324.42,516.611C328.125,516.665 331.834,516.449 335.531,516.249C338.697,516.078 342.248,516.417 345.342,515.807C347.887,515.305 349.6,513.29 347.439,509.676C339.671,496.683 332.446,496.872 327.262,497.206C323.225,497.465 316.224,500.871 312.184,500.647C309.242,500.485 311.976,509.889 309.076,510.563C308.55,510.685 307.833,511.492 308.139,512.069Z" style="fill-rule:nonzero;"/>
        <path d="M358.082,355.658C358.36,357.494 359.593,355.148 351.87,361.184C348.119,364.116 357.708,382.46 361.381,379.479C370.66,371.947 374.854,358.523 377.851,347.452C381.048,335.64 383.539,321.577 379.676,309.63C378.815,306.967 376.425,304.135 373.415,306.051C370.062,308.186 368.628,312.379 367.336,315.938C365.576,320.783 364.253,325.78 362.935,330.757C360.822,338.73 356.809,347.258 358.082,355.658Z" style="fill-rule:nonzero;"/>
        <path d="M234.235,306.828C225.703,305.798 217.101,311.202 211.073,316.697C204.34,322.836 199.842,331.341 199.292,340.461C198.312,356.742 213.636,369.945 229.265,367.318C243.589,364.911 255.484,352.363 257.873,338.199C259.186,330.415 257.192,322.013 252.459,315.727C246.744,308.136 236.87,303.258 227.872,307.298C226.632,307.856 226.145,310.398 228.035,310.197C244.062,308.498 254.962,325.199 252.572,339.592C250.716,350.771 241.32,359.739 230.543,362.387C217.688,365.546 206.181,355.091 203.952,342.856C202.464,334.681 206.439,326.572 211.554,320.486C217.267,313.688 224.929,310.47 233.466,309.077C234.349,308.932 235.758,307.012 234.235,306.828Z" style="fill-rule:nonzero;"/>
        <path d="M207.538,278.456C202.993,286.03 200.391,294.301 199.889,303.125C199.681,306.778 199.785,312.421 203.8,314.11C207.189,315.535 211.306,313.403 214.308,311.964C219.196,309.617 223.805,306.819 229.172,305.681C230.392,305.421 231.923,303.765 231.682,302.432C229.919,292.667 223.841,283.025 214.152,279.602C212.994,279.192 211.836,279.425 210.91,280.275C209.425,281.64 208.512,282.803 208,284.75C207.644,286.11 209.268,286.662 210.24,286.001C211.441,285.188 212.671,284.477 213.842,283.615C212.762,283.84 211.681,284.065 210.6,284.289C219.044,287.272 224.799,295.486 226.403,304.124C227.239,303.041 228.077,301.958 228.913,300.875C221.444,302.494 215.49,307.636 208.227,309.603C199.901,311.859 208.405,281.73 209.292,278.536C209.64,277.28 207.918,277.821 207.538,278.456Z" style="fill-rule:nonzero;"/>
        <path d="M238.865,302.162C242.044,295.062 253.011,277.531 261.386,288.511C266.419,295.11 265.247,307.388 263.09,314.826C264.553,313.974 266.017,313.125 267.48,312.274C258.086,306.722 247.441,296.42 235.591,301.119C233.736,301.855 231.967,305.794 235.219,305.561C241.034,305.145 245.333,305.589 250.563,308.38C255.232,310.872 259.381,314.263 263.937,316.951C265.745,318.018 267.86,316.013 268.327,314.4C271.033,305.059 272.307,287.004 262.101,281.464C251.274,275.586 236.305,292.23 236.416,302.359C236.432,303.864 238.495,302.99 238.865,302.162Z" style="fill-rule:nonzero;"/>
        <path d="M234.869,294.898C232.662,294.521 230.54,295.196 229.168,297.026C227.972,298.621 227.504,301.045 227.192,302.978C226.962,304.401 227.37,306.055 229.039,306.291C230.651,306.52 232.073,305.587 233.309,304.685C235.497,303.086 237.542,300.451 237.761,297.686C237.864,296.401 237.055,295.12 235.833,294.694C234.931,294.38 234.065,294.271 233.111,294.416C232.907,294.447 232.7,294.464 232.497,294.495C232.523,294.491 230.699,295.108 231.433,294.819C230.724,295.098 230.066,295.269 229.428,295.718C228.382,296.457 227.281,298.47 229.16,298.985C229.558,299.094 229.932,299.188 230.356,299.156C230.518,299.142 230.68,299.132 230.842,299.123C230.683,299.081 230.525,299.038 230.366,298.996C230.719,299.174 231.092,299.245 231.486,299.206C231.622,299.199 231.757,299.194 231.894,299.192C231.607,299.169 231.583,299.176 231.825,299.213C232.075,299.259 232.334,299.269 232.585,299.317C232.773,299.353 233.331,299.551 232.632,299.286C232.871,299.376 233.245,299.747 232.686,299.245C233.094,299.612 232.618,299.044 232.677,299.183C232.878,299.649 232.634,298.609 232.655,299.134C232.671,299.501 232.761,298.443 232.659,299.008C232.534,299.688 232.785,298.738 232.679,299.015C232.607,299.205 232.515,299.389 232.421,299.57C232.098,300.195 232.78,299.036 232.383,299.641C232.155,299.989 231.897,300.316 231.628,300.634C231.1,301.259 231.777,300.492 231.571,300.703C231.412,300.865 231.247,301.019 231.079,301.17C230.95,301.286 230.817,301.396 230.683,301.504C230.125,301.955 231.277,301.117 230.704,301.494C230.584,301.573 230.46,301.643 230.334,301.712C230.026,301.879 231.088,301.444 230.455,301.649C230.699,301.57 231.141,301.533 231.426,301.704C231.761,302.002 231.861,302.075 231.725,301.922C232.067,302.321 231.969,302.383 231.885,302.146C232.111,302.784 231.933,302.428 231.934,302.135C231.936,301.813 231.853,302.692 231.959,302.068C232.029,301.652 232.091,301.24 232.131,300.819C232.207,300.005 232.276,299.191 232.47,298.395C232.504,298.272 232.539,298.149 232.576,298.027C232.501,298.249 232.508,298.252 232.597,298.035C232.358,298.561 233.074,297.583 232.693,297.939C233.01,297.642 234.064,297.149 234.712,296.827C235.37,296.498 235.954,295.084 234.869,294.898Z" style="fill-rule:nonzero;"/>
        <path d="M232.867,498.643C233.377,499.466 234.71,499.989 235.481,500.576C236.621,501.443 237.689,502.455 238.651,503.515C239.594,504.556 240.405,505.645 240.957,506.939C241.432,508.054 241.34,507.836 240.866,508.605C240.157,509.752 239.522,511.279 240.567,512.47C241.505,513.537 243.341,513.417 244.439,512.677C249.182,509.478 248.16,504.138 244.85,500.325C242.372,497.471 236.912,494.132 233.275,496.739C232.659,497.181 232.481,498.022 232.867,498.643Z" style="fill-rule:nonzero;"/>
        <path d="M183.997,448.194C191.714,449.188 199.616,448.564 207.331,447.844C215.112,447.116 225.022,447.698 231.994,443.897C233.038,443.328 234.211,441.296 232.722,440.501C229.864,438.977 227.202,439.329 224.049,439.624C219.505,440.049 214.974,440.667 210.439,441.184C202.204,442.12 193.994,442.807 185.713,443.18C183.482,443.279 180.793,447.783 183.997,448.194Z" style="fill-rule:nonzero;"/>
        <path d="M183.993,446.463C196.604,449.618 211.03,448.686 223.96,448.931C237.663,449.191 251.388,448.936 264.978,447.021C269.433,446.393 271.039,439.143 265.534,440.389C264.75,440.528 263.983,440.733 263.234,441.001C261.71,441.483 258.792,445.088 261.472,446.127C262.359,446.471 263.198,446.739 264.12,446.981C264.893,444.722 265.665,442.464 266.438,440.206C252.83,442.072 239.085,442.387 225.367,442.36C211.998,442.334 197.784,440.689 184.63,443.494C183.375,443.76 182.303,446.041 183.993,446.463Z" style="fill-rule:nonzero;"/>
        <path d="M176.642,331.004C176.896,332.179 177.698,333.425 178.226,334.499C178.586,335.23 178.928,336.167 179.45,336.797C179.709,337.109 179.959,337.439 180.35,337.589C180.225,337.435 180.227,337.424 180.358,337.557C180.624,337.803 180.824,337.882 181.169,337.977C182.077,338.224 183.164,337.4 183.508,336.615C184.177,335.08 183.621,333.603 182.743,331.926C182.149,330.792 181.067,328.746 179.755,328.273C178.073,327.664 176.264,329.26 176.642,331.004Z" style="fill-rule:nonzero;"/>
        <path d="M196.057,379.719C195.594,383.217 197.159,386.613 198.88,389.59C200.361,392.153 202.943,396.839 206.535,394.882C207.483,394.366 208.252,393.298 208.211,392.191C208.168,391.028 207.328,390.507 206.573,389.785C205.468,388.727 204.534,387.428 203.631,386.2C201.963,383.935 199.885,381.406 198.656,378.882C198.059,377.653 196.2,378.644 196.057,379.719Z" style="fill-rule:nonzero;"/>
        <path d="M200.296,385.306C201.063,386.036 201.668,386.887 202.512,387.536C202.744,387.715 203.119,387.289 202.953,387.061C202.346,386.229 201.813,385.353 201.118,384.585C200.748,384.176 199.91,384.939 200.296,385.306Z" style="fill-rule:nonzero;"/>
    </g>
</svg>
