<?xml version="1.0" encoding="utf-8"?>
<!-- Generator: Adobe Illustrator 15.1.0, SVG Export Plug-In . SVG Version: 6.00 Build 0)  -->
<!DOCTYPE svg PUBLIC "-//W3C//DTD SVG 1.1//EN" "http://www.w3.org/Graphics/SVG/1.1/DTD/svg11.dtd">
<svg version="1.1" xmlns="http://www.w3.org/2000/svg" xmlns:xlink="http://www.w3.org/1999/xlink" x="0px" y="0px"
	 width="566.93px" height="566.93px" viewBox="0 0 566.93 566.93" enable-background="new 0 0 566.93 566.93" xml:space="preserve">
<g id="Layer_1">
	<path stroke="#000000" stroke-width="0.25" stroke-miterlimit="10" d="M269.955,374.277c-4.206-4.246-8.947-7.935-13.386-11.928
		c-5.248-4.722-9.846-10.408-15.768-14.323c-0.54-0.356-1.154-0.065-1.536,0.421c-3.307-1.522-7.385-1.809-11.221-1.823
		c12.557-3.779,22.578-15.307,24.748-28.166c1.311-7.769-0.682-16.156-5.406-22.431c-5.519-7.329-14.938-12.123-23.682-8.745
		c-15.302,2.289-28.487,18.782-29.369,33.413c-0.752,12.479,8.089,23.138,19.295,26.235c-2.891,0.152-5.779,0.411-8.595,0.842
		c-2.303-3.333-4.62-6.592-7.273-9.681c-4.882-5.684-10.48-11.447-14.446-17.803c-2.198-3.524-4.689-8.358-8.507-10.532
		c-0.159-1.49-0.795-2.037-2.157-2.808c-1.109-0.628-2.355,0.401-2.876,1.308c-5.537,9.649-1.486,20.32,3.651,29.176
		c2.952,5.087,6.413,9.867,9.785,14.679c3.195,4.56,5.677,9.192,8.322,14.04c0.988,1.812,3.015,1.446,4.365,0.249
		c0.063,5.239,0.829,10.52,2.139,15.553c0.081,0.311,0.237,0.576,0.442,0.8c-11.195,10.785-16.448,28.314-21.83,42.331
		c-0.888,2.313,0.569,4.041,3.006,3.425c4.475-1.132,9.982-1.227,14.766-1.582c2.529-0.188,5.06-0.348,7.593-0.492
		c-1.022,8.363,3.054,17.924,4.284,25.951c0.772,5.038,1.277,10.116,2.324,15.109c0.442,2.115,0.488,6.463,1.784,8.289
		c-0.786,0.278-1.57,0.615-2.348,1.026c-4.952,2.619-7.938,9.199-4.656,14.12c0.099,0.146,0.208,0.258,0.324,0.353
		c-2.135,3.227,1.308,6.123,4.708,4.361c8.035-4.161,18.664-0.82,27.254-0.174c3.233,0.243,6.166-2.552,5.474-5.833
		c-1.15-5.445-3.354-10.545-8.001-13.84c-0.267-0.189-0.538-0.354-0.813-0.504c0.096-0.144,0.189-0.288,0.276-0.437
		c2.323-3.966,2.157-10.762,2.666-15.164c0.854-7.381,1.562-14.799,2.105-22.209c0.292-3.974,0.733-8.041,0.698-12.063
		c1.716,0.011,3.431,0.029,5.146,0.069c2.661,0.062,5.322,0.182,7.972,0.46c0.865,0.091,1.725,0.222,2.575,0.402
		c0.175,0.037,0.31,0.066,0.427,0.095c0.958,1.173,3.229,0.544,4.702-0.831c0.06,0.158,0.103,0.324,0.17,0.479
		c1.099,2.514,4.565,0.715,5.363-1.093c3.411-7.739-2.752-18.564-6.568-25.113c-3.866-6.633-8.705-14.444-14.381-20.173
		c0.383-0.779,0.529-1.904,0.166-2.764c1.437-1.152,2.459-2.782,3.114-4.694c1.055,0.696,2.057,1.351,2.772,1.968
		c3.584,3.09,7.028,6.373,10.313,9.779c2.837,2.941,11.715,13.358,16.682,10.109 M198.871,323.131
		c-2.841-15.6,10.714-28.761,24.747-32.781c15.736-1.236,26.363,15.245,23.998,29.491c-1.861,11.206-11.284,20.204-22.089,22.857
		C212.639,345.867,201.106,335.404,198.871,323.131z M217.727,351.703c3.535-0.039,7.061,0.021,10.583,0.336
		c2.247,0.2,6.11,0.346,7.911,1.88c3.549,3.022,4.362,9.115,4.506,13.436c0.063,1.908-0.046,4.396-1.238,5.981
		c-0.41,0.547-0.795,1.241-0.976,1.954c-0.517-0.011-1.033-0.032-1.548-0.06c-2.452-0.13-4.898-0.354-7.347-0.525
		c-8.034-0.568-16.503-0.328-24.539,0.801c-0.994-3.165-1.608-6.458-2.086-9.728c-0.41-2.804-1.634-9.001,0.245-11.968
		c0.871-0.364,1.646-1.013,2.156-1.796C209.506,352.21,213.818,351.745,217.727,351.703z M196.171,360.437
		c-1.435-2.949-3.642-5.771-5.418-8.317c-3.202-4.591-6.669-8.988-9.887-13.567c-5.615-7.99-11.491-17.853-8.491-27.731
		c2.528,2.675,4.206,7.386,5.683,10.271c2.45,4.788,5.032,8.871,8.438,13.087c2.934,3.633,5.604,7.45,8.416,11.173
		c1.451,1.924,3.048,3.869,4.08,6.047c-0.055,0.358-0.049,0.72,0.056,1.056C197.38,354.662,196.509,357.844,196.171,360.437z
		 M207.797,436.865c-0.98-3.479-1.509-7.117-2.431-10.61c4.814-0.245,9.633-0.434,14.45-0.577c0.154-0.005,0.31-0.008,0.463-0.013
		c-1.968,6.96-2.027,14.688-2.194,21.771c-0.206,8.759,0.483,17.43,1.423,26.117c0.016,0.552,0.091,1.145,0.202,1.868
		c0.017,0.147,0.051,0.274,0.087,0.398c-1.54-0.608-3.134-0.899-4.75-0.887c0.475-0.543,0.831-1.128,0.962-1.622
		c0.255-0.958,0.105-1.566-0.37-2.415c-0.167-0.298-0.367-0.515-0.586-0.672c-0.614-1.743-0.912-4.523-1.21-5.702
		c-1.292-5.113-1.991-10.379-2.999-15.552C210.047,444.872,208.928,440.88,207.797,436.865z M207.612,487.85
		c-0.186-2.59-0.352-4.885,2.199-6.47c2.676-1.663,6.186-0.762,8.253,1.371c0.956,0.984,2.597,0.924,3.699,0.196
		c3.484-2.296,5.791-2.421,8.505,0.863c0.763,0.922,1.36,2.01,1.829,3.172C223.909,485.592,214.244,483.993,207.612,487.85z
		 M230.924,448.366c-1.126,8.75-1.833,17.805-4.589,26.214c-0.814,0.173-1.622,0.425-2.406,0.749
		c0.274-0.421,0.432-0.894,0.381-1.385c-0.078-0.752-0.189-1.396-0.385-1.999c-1.488-7.88-1.911-16.065-2.132-24.049
		c-0.207-7.458,0.692-14.873,0.839-22.294c3.915-0.104,7.83-0.169,11.747-0.183C232.075,432.684,231.863,441.068,230.924,448.366z
		 M253.763,425.018c0.002,0.124,0.027,0.221,0.04,0.332C253.781,425.245,253.765,425.137,253.763,425.018z M256.81,414.236
		c0.644,1.81,0.839,3.768,1.033,5.706c-2.43-0.966-6.051-0.83-7.772-0.92c-8.188-0.43-16.407-0.274-24.599-0.058
		c-9.292,0.246-18.584,0.723-27.854,1.41c-4.495,0.333-9.163,0.563-13.677,1.333c2.122-5.886,4.314-11.743,6.776-17.5
		c3.017-7.056,7.029-13.622,10.251-20.563c0.034-0.002,0.071,0.001,0.104-0.002c9.026-0.829,18.433-1.383,27.228-0.691
		c3.363,0.266,7.802,1.199,11.211,0.106c2.828,6.679,8.076,12.908,11.533,18.953C253.293,405.944,255.29,409.964,256.81,414.236z
		 M258.456,374.577c-1.988-1.892-6.592-7.295-10.752-9.324c-0.072-2.203-0.428-4.45-1.017-6.558c1.336,1.282,2.675,2.551,3.93,3.845
		c3.361,3.467,7.01,6.608,10.589,9.848c3.745,3.39,7.408,6.914,10.264,11.103c0.537,0.789,0.947,1.638,1.301,2.51
		c-0.041,0.7-0.018,1.435,0.104,2.133C267.503,384.43,263.142,379.032,258.456,374.577z"/>
	<path d="M198.824,294.311c3.364,1.415,7.466-0.713,10.445-2.143c4.582-2.199,8.927-4.776,13.872-6.034
		c0.249,0.171,0.543,0.301,0.908,0.353c1.588,0.227,2.991-0.696,4.207-1.585c0.073-0.053,0.144-0.116,0.217-0.172
		c0.087,0.649,0.586,1.11,1.742,1.027c5.824-0.417,10.134,0.028,15.372,2.825c4.668,2.493,8.818,5.882,13.374,8.571
		c1.766,1.042,3.831-0.917,4.287-2.49c2.698-9.321,3.98-27.356-6.206-32.888c-9.389-5.097-20.635,6.037-24.38,15.624
		c-0.134-1.064-0.858-2.035-1.889-2.394c-0.893-0.312-1.75-0.417-2.692-0.273c-0.204,0.031-0.41,0.049-0.615,0.079
		c0.033-0.005-1.733,0.591-1.048,0.321c-0.629,0.248-1.216,0.419-1.785,0.77c-2.871-7.145-8.152-13.379-15.542-15.99
		c-1.13-0.399-2.262-0.173-3.166,0.658c-1.471,1.354-2.376,2.501-2.882,4.432c-0.343,1.311,1.22,1.843,2.159,1.206
		c0.596-0.404,1.198-0.782,1.798-1.166c6.969,3.039,11.899,9.707,13.9,17.002c-6.131,2.122-11.425,6.178-17.691,7.875
		c-8.5,2.302,0.172-27.919,1.063-31.125c0.351-1.258-1.373-0.717-1.753-0.082c-4.515,7.526-7.087,15.893-7.586,24.649
		C194.726,286.998,194.822,292.627,198.824,294.311z M227.427,279.899c-0.007,0.011-0.008,0.012-0.015,0.022
		c-0.085,0.13-0.189,0.246-0.282,0.371c0.029-0.278,0.072-0.554,0.115-0.829c0.117,0.013,0.234,0.025,0.352,0.048
		c0.003,0.001,0.008,0.002,0.012,0.003c-0.05,0.107-0.095,0.216-0.148,0.32C227.443,279.867,227.439,279.876,227.427,279.899z
		 M226.865,282.554c-0.002-0.015-0.005-0.029-0.006-0.044C226.882,282.558,226.885,282.579,226.865,282.554z M226.89,282.682
		C226.931,282.812,226.914,282.781,226.89,282.682L226.89,282.682z M256.42,268.718c4.118,5.397,4.093,14.583,2.769,21.83
		c-7.423-4.892-15.586-11.267-24.456-10.18C238.567,272.322,248.875,258.827,256.42,268.718z"/>
	<path fill="none" stroke="#000000" stroke-width="8" stroke-miterlimit="10" d="M437.684,144.698
		c13.734,8.072,32.434,7.636,45.971-0.529c15.592-9.405,18.84-26.808,14.779-43.46c-2.77-11.367-11.539-25.03-22.746-28.148
		c0.521-0.619,0.746-1.419-0.076-1.783c-7.463-3.313-16.094-1.793-23.568,1.411c-5.281,1.674-10.129,4.964-14.127,9.189
		c-5.596,5.281-10,11.903-12.975,18.892C417.793,117.064,421.496,135.183,437.684,144.698z"/>
	<path stroke="#000000" stroke-width="7" stroke-miterlimit="10" d="M477.063,335.448c0.289,0.405,0.564,0.823,0.813,1.263
		c0.074,0.128,0.137,0.263,0.207,0.393c-0.422-0.566-0.867-1.121-1.344-1.658C476.846,335.446,476.955,335.446,477.063,335.448z"/>
</g>
<g id="Layer_4">
	<g>
		<path d="M322.907,273.823c-14.682-1.565-28.975,15.876-31.544,28.778c-2.895,14.536,10.745,31.016,25.444,31.348
			c23.322,0.528,51.215-35.715,28.305-53.903C339.019,275.206,330.526,272.326,322.907,273.823z"/>
		<g>
			<path d="M322.877,274.171c-3.983,0.277-7.532,1.706-10.676,3.722c-3.128,2.052-5.886,4.625-8.313,7.475
				c-2.422,2.854-4.521,5.989-6.234,9.272c-1.661,3.282-3.061,6.762-3.662,10.095c-0.609,3.373-0.327,7.07,0.761,10.644
				c1.099,3.568,3.037,7,5.684,9.796c2.637,2.794,5.936,5.021,9.551,6.213c3.61,1.27,7.443,1.276,11.036,0.331
				c3.612-0.909,6.951-2.68,10.048-4.728c3.087-2.079,5.951-4.504,8.473-7.238c5.017-5.461,8.758-12.146,10.055-18.947
				c0.645-3.396,0.543-6.802-0.449-9.974c-0.502-1.584-1.239-3.107-2.204-4.523c-0.942-1.433-2.095-2.778-3.419-4
				c-1.352-1.228-2.78-2.368-4.351-3.375c-1.567-0.993-3.224-1.882-4.96-2.614c-3.478-1.444-7.272-2.301-11.241-2.153l-0.047,0.002
				L322.877,274.171z M322.891,273.463c3.872-1.371,8.235-1.428,12.361-0.571c2.082,0.423,4.129,1.071,6.089,1.941
				c1.957,0.856,3.885,1.908,5.642,3.181c1.782,1.279,3.478,2.771,4.94,4.524c1.451,1.759,2.673,3.759,3.577,5.909
				c1.836,4.313,2.184,9.157,1.469,13.608c-0.727,4.475-2.4,8.643-4.649,12.353c-2.237,3.724-4.975,7.065-8.073,9.999
				c-3.091,2.935-6.541,5.5-10.351,7.44c-3.793,1.954-7.971,3.231-12.239,3.651c-1.067,0.103-2.142,0.142-3.213,0.116
				c-0.521-0.013-1.119-0.048-1.59-0.09c-0.565-0.044-1.078-0.104-1.614-0.183c-2.116-0.338-4.157-0.934-6.091-1.731
				c-3.862-1.626-7.295-4.01-10.307-6.838c-2.993-2.842-5.667-6.107-7.651-9.903c-1.982-3.772-3.248-8.161-3.005-12.745
				c0.307-4.618,1.913-8.699,3.987-12.438c2.081-3.736,4.698-7.122,7.758-10.067c3.06-2.929,6.593-5.454,10.577-7.045
				C314.418,272.953,318.914,272.345,322.891,273.463z"/>
		</g>
	</g>
	<g>
		<path d="M338.403,482.476c0.401-4.969,0.792-18.439,1.158-23.409c0.637-8.647,1.439-17.16,1.197-25.845
			c-0.179-6.375-0.057-13.681-1.333-20.256c2.105-2.973,2.875-7.465,3.711-10.646c1.811-6.889,2.985-14.003,4.326-20.992
			c1.283-6.696,2.384-13.444,3.477-20.183c0.741-0.025,1.558-0.304,2.373-0.965c9.261-7.518,13.443-20.92,16.433-31.968
			c2.982-11.019,5.35-23.999,2.508-35.387l-10.019-2.578c-1.248,2-2.075,4.343-2.842,6.457c-1.757,4.837-3.077,9.827-4.394,14.799
			c-1.826,6.893-5.051,14.211-5.137,21.497c-17.142,2.123-34.81,0.112-51.941,2.474c-0.693,0.096-1.515,0.729-2.083,1.483
			c-0.212-0.567-0.557-1.027-1.074-1.336c-0.735-0.439-1.663,0.147-2.124,0.706c-0.954,1.153-1.072,2.49-1.421,3.917
			c-0.633,2.586-1.785,5.056-2.909,7.456c-2.365,5.049-5.257,9.856-8.084,14.655c-3.263,5.537-6.903,11.149-8.959,17.292
			l4.612,11.983c3.059-1.072,5.898-4.107,7.734-6.107c5.289-5.762,8.43-13.437,11.019-21.09c0.998,4.545,2.191,9.052,3.408,13.534
			c1.76,6.477,3.687,12.903,5.349,19.407c0.845,3.305,1.563,6.636,2.155,9.994c0.464,2.636,0.426,5.153,1.485,7.501
			c-2.018,4.855-1.704,10.821-1.655,15.922c0.064,6.971,0.309,13.95,0.447,20.918c0.124,6.225,0.271,20.915,0.12,27.141
			c-0.045,1.842-0.657,5.057-0.565,7.613"/>
		<path d="M338.054,482.448c0.066-2.893,0.013-5.799,0.009-8.701l-0.016-8.717c0.01-2.891,0.079-5.858,0.188-8.752l0.31-8.686
			c0.082-2.884,0.131-5.76,0.083-8.619c-0.01-2.87-0.17-5.665-0.308-8.618c-0.267-5.799-0.489-11.514-1.592-16.866l-0.225-1.092
			l0.68-1.02c1.854-2.78,2.446-7.372,3.558-11.688c0.999-4.202,1.792-8.527,2.57-12.882l2.345-13.07l2.249-13.084l0.565-3.29
			l2.362,0.711c0.045,0.014,0.203-0.001,0.478-0.185c0.018-0.012,0.104-0.075,0.067-0.041l0.227-0.186l0.454-0.371
			c0.306-0.25,0.508-0.446,0.77-0.67c1.027-0.931,2.013-1.974,2.92-3.08c1.81-2.227,3.434-4.689,4.825-7.325
			c2.785-5.28,4.88-11.065,6.724-16.978c1.876-5.905,3.463-11.867,4.311-17.948c0.441-3.035,0.648-6.097,0.604-9.146
			c-0.058-3.046-0.333-6.097-1.058-9.044l0.816,0.822l-10.002-2.644l1.169-0.468c-0.93,1.472-1.612,3.146-2.237,4.872
			c-0.638,1.747-1.237,3.476-1.782,5.238c-1.108,3.521-2.03,7.111-2.92,10.728c-0.91,3.682-2.143,7.217-3.07,10.771
			c-0.938,3.54-1.685,7.106-1.618,10.601l0.026,1.394l-1.472,0.222c-9.156,1.383-18.384,1.621-27.468,1.955
			c-4.545,0.176-9.063,0.342-13.533,0.671c-2.235,0.164-4.457,0.385-6.664,0.642c-1.104,0.127-2.204,0.268-3.298,0.432l-0.693,0.102
			c0.21-0.04,0.278-0.085,0.244-0.06c-0.057,0.038-0.269,0.236-0.386,0.412l-2.157,3.263l-3.121-4.029
			c-0.046-0.06,0.049,0.138,0.181,0.223l0.214,0.118l-0.093-0.045l-0.047-0.022l0.146,0.073c0.104,0.048,0.217,0.085,0.325,0.111
			c0.242,0.072,0.49,0.075,0.662,0.062c0.359-0.039,0.479-0.12,0.541-0.148c0.061-0.033,0.055-0.024,0.109-0.075l0.009-0.011
			c-0.052,0.064,0.073-0.092,0.057-0.071l-0.007,0.011l-0.016,0.021l-0.063,0.082c-0.04,0.054-0.097,0.128-0.07,0.102
			c0.006,0,0.013-0.01,0.01-0.006l-0.028,0.056c-0.076,0.15-0.162,0.383-0.254,0.775l-0.327,1.542l-0.222,0.898l-0.264,0.925
			c-0.363,1.182-0.789,2.31-1.237,3.385c-1.766,4.214-3.821,8.247-6.007,12.136l-3.277,5.754l-3.299,5.685
			c-2.142,3.731-4.067,7.434-5.294,11.209l-0.055-2.476c1.587,3.976,3.142,7.963,4.675,11.959l-4.712-2.179
			c0.733-0.258,1.65-0.814,2.547-1.538c0.905-0.725,1.806-1.597,2.709-2.552l0.686-0.735l0.675-0.747
			c0.391-0.452,0.788-0.924,1.178-1.432c0.774-1.001,1.499-2.057,2.175-3.159c2.756-4.39,4.782-9.443,6.604-14.671l4.282-12.285
			l2.648,12.667c0.867,4.148,1.928,8.293,2.992,12.474c1.052,4.185,2.173,8.327,3.278,12.549c1.087,4.225,2.204,8.429,3.044,12.822
			c0.21,1.088,0.409,2.177,0.592,3.269c0.183,1.104,0.365,2.143,0.507,3.372c0.244,2.315,0.348,4.207,0.944,5.605l0.487,1.14
			l-0.455,1.021c-1.014,2.279-1.472,5.007-1.679,7.84c-0.202,2.823-0.174,5.855-0.244,8.847l-0.209,17.944
			c-0.087,6.006-0.229,11.993-0.409,17.986c-0.095,2.997-0.188,5.992-0.342,8.993c-0.073,3.08-0.92,5.998-0.932,8.928l-0.699,0.025
			c-0.213-3.073,0.438-6.055,0.252-8.975c-0.067-2.985-0.164-5.976-0.276-8.965c-0.23-5.977-0.48-11.961-0.816-17.924
			c-0.327-5.97-0.768-11.943-1.01-17.96c-0.103-2.993-0.312-5.948-0.276-9.108c0.048-3.128,0.342-6.441,1.619-9.718l0.032,2.161
			c-0.597-1.27-0.941-2.583-1.162-3.778c-0.221-1.196-0.349-2.302-0.51-3.294c-0.146-0.917-0.382-2.005-0.602-3.03
			c-0.224-1.036-0.462-2.068-0.71-3.098c-0.999-4.076-2.197-8.228-3.422-12.353c-1.227-4.123-2.509-8.307-3.709-12.489
			c-1.196-4.184-2.328-8.425-3.323-12.74l6.931,0.382c-1.807,5.462-3.864,11.042-7.046,16.301c-0.805,1.305-1.685,2.581-2.644,3.813
			c-0.472,0.612-0.984,1.223-1.522,1.836l-0.748,0.823l-0.762,0.813c-1.043,1.094-2.172,2.198-3.477,3.239
			c-1.31,1.031-2.797,2.04-4.733,2.734l-3.4,1.219l-1.312-3.397c-1.542-3.993-3.061-7.994-4.549-12.008l-0.473-1.274l0.417-1.202
			c1.583-4.555,3.844-8.627,6.135-12.458l3.426-5.633l3.375-5.606c2.208-3.708,4.229-7.464,5.951-11.307
			c0.42-0.938,0.789-1.859,1.094-2.768l0.205-0.653l0.19-0.694c0.113-0.441,0.22-0.994,0.401-1.668
			c0.181-0.668,0.454-1.482,0.923-2.287l0.182-0.297l0.239-0.349l0.174-0.229l0.064-0.08l0.175-0.209
			c0.413-0.466,0.834-0.812,1.359-1.135c0.53-0.31,1.169-0.609,2.076-0.703c0.445-0.047,0.969-0.015,1.479,0.114
			c0.174,0.048,0.351,0.107,0.521,0.177l0.242,0.107l0.046,0.023l0.091,0.048l0.215,0.12l0.024,0.016l0.049,0.031l0.098,0.064
			c1.059,0.68,1.824,1.813,2.157,2.781l-5.278-0.767c0.573-0.728,1.19-1.338,2.104-1.898c0.452-0.268,1.045-0.561,1.817-0.697
			l0.236-0.036l0.109-0.012l0.218-0.025l0.437-0.05c1.164-0.137,2.327-0.248,3.489-0.345c2.324-0.193,4.646-0.295,6.959-0.364
			c4.627-0.14,9.22-0.083,13.782,0.025c9.12,0.197,18.157,0.49,27.1-0.358l-1.445,1.615c0.163-3.974,1.121-7.738,2.256-11.335
			c1.148-3.6,2.425-7.088,3.414-10.61c1.017-3.583,2.007-7.193,3.15-10.774c0.572-1.789,1.21-3.575,1.866-5.319
			c0.664-1.763,1.405-3.553,2.43-5.258l0.396-0.661l0.772,0.193l10.035,2.513l0.644,0.161l0.173,0.661
			c1.63,6.246,1.756,12.735,1.233,19.07c-0.538,6.348-1.781,12.604-3.259,18.731c-1.489,6.118-3.174,12.315-5.938,18.252
			c-1.387,2.958-2.995,5.884-5.064,8.561c-1.03,1.344-2.152,2.62-3.4,3.83c-0.319,0.298-0.679,0.647-0.971,0.9l-0.44,0.386
			l-0.221,0.192l-0.398,0.314c-0.978,0.739-2.321,1.367-3.848,1.428l2.928-2.579c-0.655,4.392-1.384,8.782-2.13,13.183
			c-0.734,4.431-1.675,8.754-2.495,13.114c-0.853,4.369-1.726,8.768-2.848,13.187l-1.743,6.494c-0.666,2.248-1.462,4.636-3.09,6.938
			l0.455-2.11c1.071,6.073,0.982,12.03,0.943,17.821c-0.015,2.85,0.016,5.857-0.142,8.791c-0.151,2.944-0.399,5.866-0.681,8.774
			c-0.53,5.834-1.412,11.534-1.814,17.309c-0.517,5.78-0.946,11.576-1.677,17.365L338.054,482.448z"/>
	</g>
	<g>
		<path d="M323.87,486.531c-0.427-10.517-0.178-29.566-0.137-40.089c0.022-5.655,0.006-11.311-0.188-16.963
			c-0.115-3.328-0.028-6.834-0.354-10.232"/>
		<path d="M323.67,486.538c-0.804-2.779-1.191-5.593-1.484-8.399c-0.253-2.81-0.409-5.62-0.339-8.429
			c0.072-2.81,0.609-5.614,0.931-8.418c0.343-2.803,0.358-5.607,0.183-8.413c-0.197-2.806-0.551-5.609-0.882-8.411
			c-0.227-2.797-0.394-5.592-0.521-8.378c-0.087-2.803,0.028-5.541,0.244-8.401c0.26-2.854,0.684-5.574,1.19-8.423l0.398-0.039
			c1.024,2.738,1.445,5.634,1.807,8.386c0.35,2.746,0.675,5.612,0.642,8.419c-0.05,2.82-0.2,5.635-0.438,8.445
			c-0.342,2.806-0.734,5.611-0.969,8.413c-0.213,2.802-0.235,5.606,0.08,8.411c0.294,2.805,0.814,5.607,0.89,8.406
			c0.064,5.604-0.254,11.177-1.331,16.815L323.67,486.538z"/>
	</g>
	<path stroke="#000000" stroke-width="7" stroke-miterlimit="10" d="M332.225,483.726"/>
	<g>
		<path d="M302.709,497.048h42.731c0,0,0.326-22.529-21.855-11.641C311.082,476.021,292.815,487.849,302.709,497.048z"/>
		<path d="M302.847,496.72c3.515-0.873,7.03-1.365,10.545-1.74c3.562-0.355,7.122-0.553,10.683-0.617
			c3.562-0.098,7.122,0.187,10.684,0.71c3.561,0.496,7.121,1.001,10.683,1.059l-0.917,0.903c0.006-2.473-0.541-5.113-1.693-7.287
			c-1.122-2.207-2.943-3.857-4.912-4.449c-1.975-0.61-4.127-0.414-6.352,0.131c-2.225,0.563-4.449,1.585-6.613,2.766l-1.542,0.842
			l-1.69-1.146c-2.029-1.376-4.282-2.255-6.667-2.631c-2.379-0.37-4.909-0.222-7.272,0.512c-2.342,0.717-4.589,2.052-5.755,3.969
			c-0.604,0.948-0.859,2.064-0.711,3.312C301.475,494.259,302.054,495.523,302.847,496.72z M302.505,497.268
			c-1.328-0.781-2.589-1.896-3.381-3.471c-0.834-1.554-0.984-3.579-0.483-5.381c0.526-1.797,1.548-3.379,2.799-4.631
			c1.259-1.252,2.699-2.275,4.258-3.039c3.111-1.529,6.648-2.162,10.146-1.801c3.497,0.345,6.908,1.786,9.606,3.979l-3.232-0.304
			c2.59-1.138,5.333-2.091,8.314-2.546c1.488-0.223,3.051-0.296,4.632-0.078c1.574,0.223,3.179,0.717,4.567,1.588
			c1.397,0.851,2.557,2.01,3.412,3.275c0.857,1.271,1.448,2.627,1.888,3.979c0.84,2.739,1.23,5.407,1.327,8.222l0.031,0.89
			l-0.948,0.015c-3.562,0.058-7.122,0.563-10.683,1.059c-3.562,0.523-7.122,0.808-10.684,0.71
			c-3.561-0.064-7.121-0.262-10.683-0.617c-3.561-0.38-7.122-0.873-10.683-1.769l-0.118-0.029L302.505,497.268z"/>
	</g>
</g>
<g id="Layer_3">
	<path d="M117.106,128.033c-2.962-3.583-6.92-6.435-10.963-8.663c-2.313-1.276-4.965-2.102-7.523-2.711
		c-3.189-0.761-5.36-0.048-8.528,0.274c-1.013,0.104-2.414,1.139-3.152,2.314c-6.308,0.568-13.021,4.445-17.408,7.638
		c-8.258,6.01-16.038,15.977-18.938,25.84c-6.013,20.456,12.248,35.354,31.146,36.733c21.492,1.569,39.811-13.24,43.086-34.522
		C126.324,145.187,123.338,135.571,117.106,128.033z M106.598,173.318c-5.473,5.343-12.932,6.91-20.335,6.904
		c-13.953-0.01-30.383-9.793-28.029-25.527c1.229-8.21,7.109-15.891,12.853-21.574c2.99-2.959,6.484-5.396,10.336-7.097
		c2.957-1.306,6.016-1.521,9.119-1.662c0.415,0.277,0.858,0.53,1.386,0.723c1.68,0.613,3.316,1.421,4.928,2.189
		c3.614,1.724,6.913,3.802,9.815,6.568c5.305,5.057,8.104,11.912,8.325,19.17C115.22,160.377,111.832,168.21,106.598,173.318z"/>
	<path d="M124.018,182.046c9.217-2.263,19.395-11.228,21.77-20.604c1.574-6.22-0.446-13.994-6.026-16.548
		c3.202-6.892,8.311-13.13,3.212-20.812c-1.651-2.487-3.815-3.568-6.098-3.703c2.767-8.26,2.627-17.146-5.597-22.666
		c-4.302-2.89-10.618-1.215-14.749,1.26c-2.252-7.607-6.989-14.473-14.826-16.377c-7.298-1.773-13.569,2.018-17.644,7.725
		c-2.388-6-6.322-10.713-13.666-9.035c-8.64,1.974-12.604,11.377-14.272,20.574c-6.026-2.99-14.187-1.074-19.492,4.693
		c-5.85,6.359-5.968,18.378-3.164,27.697c-1.19,0.317-2.367,0.873-3.528,1.733c-3.525,2.616-4.062,7.946-3.875,11.938
		c0.487,10.376,8.957,24.296,19.228,27.053c2.443,0.656,6.132-3.976,3.197-5.254c-6.889-2.999-11.992-11.805-14.387-18.653
		c-0.965-2.76-1.294-5.93-0.849-8.818c0.149-0.974,0.862-1.678,0.218-1.57c1.583-0.262,3.26,1.418,4.39,2.265
		c3.31,2.479,8.064-3.333,6.031-6.471c-4.021-6.208-4.5-16.807-2.636-23.771c0.896-3.348,3.996-4.879,7.228-4.468
		c3.81,0.484,5.907,3.784,6.755,7.2c1.19,4.794,8.04-0.351,8.118-3.591c0.11-4.508,0.739-8.981,1.802-13.362
		c0.572-2.358,2.467-9.714,5.971-9.53c5.324,0.276,7.126,12.774,8.044,17.889c0.004,0.042,0.004,0.085,0.008,0.127
		c0.005-0.002,0.009-0.004,0.014-0.006c0.065,0.358,0.126,0.681,0.184,0.955c0.956,4.595,8.623,0,8.308-3.676
		c-0.648-7.585,4.692-17.105,13.258-12.352c5.527,3.068,7.803,10.796,8.304,17.349c-0.25,1.7-0.177,3.486,0.281,5.318
		c1.266,5.062,8.516-0.36,8.587-3.799c0.022-1.038-0.001-2.104-0.07-3.188c0.543-1.3,1.932-2.088,3.484-2.594
		c3.257-1.061,6.194,1.704,7.498,4.395c2.778,5.728-1.31,13.327-4.183,18.202c-1.127,1.912-0.268,4.592,2.01,5.014
		c2.645,0.489,4.773-1.447,6.029-3.515c0.261-0.429,2.313,1.491,2.485,1.684c1.68,1.875,0.382,4.896-0.472,6.769
		c-1.769,3.89-4.162,7.271-5.526,11.36c-0.795,2.383,1.39,4.221,3.587,4.087c4.188-0.254,4.485,7.375,3.311,10.058
		c-2.347,5.356-8.685,9.458-13.709,11.989C118.674,176.977,118.833,183.319,124.018,182.046z"/>
	<path d="M80.104,397.915c0.454-10.483,1.76-20.901,2.414-31.349c0.227,0,0.452,0,0.678,0c4.396,0.007,8.769,0.012,13.123-0.025
		c1.208,7.697,3.117,15.273,4.186,23.004c1.265,9.158,1.815,18.41,2.212,27.64c0.766,17.827,0.396,35.895,2.368,53.641
		c0.061,0.553,0.231,1.145,0.549,1.626c-5.18,4.316-8.502,10.473-6.941,17.367c0.345,1.52,1.604,1.457,2.803,0.822
		c-0.146,0.635-0.194,1.313-0.12,2.047c0.198,1.962,1.613,2.743,3.437,2.772c2.118,0.033,3.802-1.414,5.736-2.045
		c2.455-0.799,5.269-0.737,7.82-0.784c5.808-0.104,11.603,0.624,17.41,0.585c3.419-0.023,5.845-3.418,6.099-6.481
		c0.793-9.562-4.085-16.681-11.726-19.43c0.085-1.563-0.201-3.032-0.396-4.862c-0.469-4.433-0.205-9.05-0.281-13.505
		c-0.166-9.682,0.228-19.433,0.447-29.117c0.223-9.814,0.269-19.563-0.136-29.378c-0.34-8.208,0.125-17.396-1.456-25.654
		c10.46-1.275,20.814-3.444,31.073-7.175c4.338-1.576,6.179-7.749,2.833-9.195c0.846-4.021-1.637-9.124-2.702-12.772
		c-2.866-9.814-5.741-19.637-8.586-29.464c-3.478-12.018-6.962-23.948-11.242-35.711c-1.581-4.344-3.25-8.653-4.896-12.972
		c2.897,4.185,5.896,8.286,8.826,12.342c4.02,5.563,8.036,11.128,11.835,16.846c2.019,3.039,3.877,6.171,5.552,9.412
		c0.273,0.527,0.495,1.049,0.71,1.549c0.892,3.563,4.08,5.779,8.081,6.546c2.564,0.491,4.979-1.994,5.043-4.425
		c0.445-16.748-9.559-32.69-17.153-46.946c-3.926-7.366-7.342-14.959-11.625-22.129c-5.066-8.479-10.798-16.761-13.662-26.32
		c-0.026-0.088-0.063-0.161-0.099-0.232c0.011-0.029,0.027-0.062,0.036-0.09c0.016-0.046,0.03-0.092,0.045-0.139
		c0.513-1.577-0.313-3.074-1.569-3.945c-3.454-2.396-10.852-2.256-14.776-2.548c-8.05-0.601-16.079-0.663-24.15-0.569
		c-6.564,0.076-13.123,0.214-19.643,1.043c-2.417,0.307-5.551,0.857-8.376,1.917c-1.569,0.174-3.113,0.452-4.604,0.905
		c-0.007,0.001-0.014,0.004-0.021,0.005c-0.042,0.013-0.087,0.021-0.129,0.034c-0.008,0.003-0.019,0.008-0.027,0.011
		c-1.172,0.332-2.473,1.568-2.709,2.445c-7.431,4.53-12.679,12.96-17.504,19.92c-5.204,7.507-9.889,15.337-14.583,23.167
		c-8.558,14.276-18.69,30.889-17.944,48.171c0.058,1.319,1.036,2.55,2.39,2.722c11.953,1.516,20.123-15.407,24.867-23.81
		c3.185-5.642,6.147-11.288,9.724-16.702c4.109-6.22,8.408-12.295,12.524-18.498c0.36,2.17,0.817,4.33,1.415,6.476
		c0.114,0.409,0.347,0.744,0.652,1.011c-4.175,4.778-6.689,11.636-8.945,17.188c-3.674,9.047-6.507,18.413-10.013,27.524
		c-7.68,19.963-16.404,40.092-18.885,61.543c-0.184,0.663-0.266,1.262-0.269,1.96c-0.606,0.926-0.75,1.96,0.146,2.688
		c8.111,6.616,19.53,7.989,29.622,9.047c0.395,0.042,0.791,0.068,1.186,0.106c-0.748,8.136,0.187,16.801,0.365,24.821
		c0.241,10.799-0.155,21.63,0.418,32.416c0.562,10.553,1.832,21.076,2.641,31.612c0.287,3.754,1.053,7.439,1.598,11.158
		c0.072,0.493,0.157,0.986,0.269,1.46c-5.851,1.465-11.651,7.074-13.166,12.834c-0.991,3.775-1.123,10.214,2.505,12.573
		c0.033,1.256,0.825,2.268,2.813,2.564c10.188,1.527,22.132,1.057,32.075-1.589c2.585-0.688,5.498-4.123,4.311-6.926
		c-2.22-5.245-5.625-10.494-9.978-14.3c2.841-2.124,3.444-8.4,3.385-11.244c-0.188-8.804-0.408-17.593,0.026-26.394
		C78.643,422.438,79.572,410.192,80.104,397.915z M116.827,482.762c-3.36,0.212-9.048,1.243-12.517,3.861
		c2.217-7.313,6.766-11.911,15.028-12.216c6.254-0.229,10.717,3.51,12.146,8.749C126.609,482.828,121.745,482.45,116.827,482.762z
		 M122.842,388.729c0.089,9.866,0.225,19.781-0.447,29.63c-0.63,9.223-0.865,18.468-1.471,27.692
		c-0.283,4.312-0.256,8.646-0.329,12.966c-0.036,2.127-0.108,4.255-0.059,6.383c0.022,0.252,0.021,0.506,0.039,0.759
		c-0.087,0.007-0.171,0.011-0.258,0.02c-2.198,0.208-4.471,0.765-6.683,1.61c0.071-2.015-0.521-4.067-0.803-6.475
		c-0.508-4.342-0.852-8.7-1.158-13.06c-0.706-10.006-1.137-20.028-1.803-30.036c-0.681-10.234-1.738-20.458-3.436-30.575
		c-1.196-7.133-2.533-14.561-5.632-21.16c7.556-0.126,15.053-0.437,22.497-1.146C122.073,372.947,122.773,381.134,122.842,388.729z
		 M64.233,237.518c-0.977-3.187-1.505-6.484-1.821-9.811c0.539-1.239,0.357-2.262-0.237-3.003c-0.076-1.192-0.141-2.385-0.194-3.573
		c-0.205-4.619,0.274-9.661-0.159-14.421c0.623-0.144,1.249-0.304,1.891-0.44c3.196-0.688,6.499-0.792,9.752-1.004
		c0.519-0.034,1.039-0.056,1.559-0.081c5.326,0.378,10.659,0.69,15.985,1.068c9.432,0.668,18.841,1.17,28.277,1.429
		c1.184,0.342,2.385,0.693,3.576,0.942c-1.338,7.673,1.896,16.315,0.509,23.787c-0.211-0.232-0.411-0.474-0.623-0.704
		c-0.728-0.793-2.261,0.426-1.884,1.344c0.426,1.033,0.879,2.055,1.344,3.072c-0.021,0.043-0.036,0.086-0.057,0.129
		c-0.022,0.049-0.036,0.096-0.057,0.145c-0.072-0.01-0.157-0.027-0.224-0.035c-3.144-0.318-6.335-0.315-9.49-0.284
		c-6.162,0.061-12.309,0.625-18.471,0.688C83.72,236.871,73.927,234.667,64.233,237.518z M138.73,231.123
		c4.133,7.463,7.679,15.098,11.53,22.697c5.666,11.181,13.186,23.334,16.253,36.034c-0.993-1.575-2.069-3.058-2.861-4.334
		c-3.863-6.23-8.365-12.049-12.822-17.859c-6.356-8.289-12.385-16.848-18.863-25.037c1.036-2.222,0.119-4.858-2.93-4.966
		c-0.025-0.004-0.051,0.001-0.075-0.003c2.6-3.322,2.306-8.252,2.006-12.445c-0.332-4.646-1.682-10.392-1.36-15.487
		C130.914,217.4,134.972,224.336,138.73,231.123z M29.138,265.426c-2.628,4.874-5.257,9.747-8.283,14.39
		c-0.885,1.358-3.463,5.921-5.874,8.05c0.603-14.337,9.374-28.301,16.302-40.27c4.207-7.271,8.435-14.504,13.051-21.526
		c3.284-4.996,7.453-9.783,10.857-14.891c-0.295,4.104-0.239,8.299-0.312,12.229c-0.013,0.706-0.013,1.41-0.011,2.113
		c-1.043,1.137-1.926,2.276-2.517,3.789c-0.064,0.167-0.116,0.333-0.158,0.499C44.723,241.823,35.863,252.948,29.138,265.426z
		 M28.712,353.039c0.037-0.145,0.085-0.287,0.101-0.434c2.345-20.687,8.47-40.229,15.838-59.636
		c3.246-8.55,5.708-17.381,8.725-26.011c1.419-4.062,2.984-8.072,4.731-12.002c1.4-3.148,3.439-6.069,4.623-9.297
		c10.181-3.771,22.044-0.462,32.629-0.671c6.219-0.122,12.413-0.619,18.637-0.552c3.101,0.033,6.77,1.232,10.173,1.487
		c1.24,8.494,4.771,17.014,7.461,24.967c3.606,10.67,6.78,21.389,9.576,32.298c2.862,11.175,5.819,22.325,8.694,33.497
		c1.183,4.591,2.353,8.9,2.914,13.61c0.021,0.18,0.059,0.369,0.102,0.559c-9.469,3.5-20.017,4.755-29.888,5.635
		c-12.164,1.086-24.408,0.995-36.609,1.048c-10.431,0.044-20.837,0.189-31.26-0.328C46.085,356.758,37.434,355.12,28.712,353.039z
		 M51.448,485.726c-0.852,0.104-1.782,0.569-2.653,1.24c-0.244-1.587-0.469-3.186-0.217-4.857c0.778-5.17,6.326-8.319,11.18-7.637
		c5.672,0.796,10.073,5.939,12.999,11.259C65.642,485.981,58.511,484.85,51.448,485.726z M68.95,468.558
		c0.01-0.019,0.023-0.043,0.034-0.063c-0.012,0.021-0.02,0.043-0.03,0.064C68.952,468.559,68.951,468.559,68.95,468.558z
		 M69.041,468.394c0.04-0.072,0.075-0.133,0.121-0.217c0.01-0.009,0.021-0.02,0.03-0.028
		C69.142,468.23,69.088,468.312,69.041,468.394z M74.031,391.274c-0.864,10.378-1.3,20.788-2.095,31.173
		c-0.763,9.975-1.956,19.917-1.965,29.935c-0.003,3.073-0.001,6.146-0.077,9.22c-0.04,1.625-0.219,3.226-0.467,4.83
		c-0.07,0.456-0.43,1.406-0.659,2.046c-1.413-0.657-2.892-1.153-4.43-1.466c0.166-0.476,0.241-0.975,0.185-1.485
		c-0.01-0.094-0.021-0.188-0.03-0.281c-0.043-0.39-0.165-0.709-0.319-0.996c-2.105-5.093-2.401-13.223-2.886-19.124
		c-0.777-9.446-2.256-18.807-2.83-28.279c-0.572-9.417-0.601-18.871-1.099-28.296c-0.381-7.225-0.093-15.024-0.858-22.388
		c7.013,0.413,14.059,0.421,21.087,0.408C75.252,374.523,74.714,383.085,74.031,391.274z"/>
</g>
<g id="Layer_2">
	<path fill="none" stroke="#000000" stroke-width="7" stroke-miterlimit="10" d="M375.739,293.829
		c4.619-2.34,7.557-7.605,9.881-12.028c0.117-0.212,0.221-0.419,0.316-0.621c3.465-6.703,6.053-13.873,8.588-20.963
		c2.75-7.693,5.719-15.071,9.277-22.46c3.262-6.778,6.703-13.409,9.508-20.396c0.43-1.07,0.873-2.169,1.293-3.29
		c0.881,5.14,1.742,10.282,2.594,15.427c3.932,23.739,6.668,47.36,8.02,71.387c0.23,4.109,2.793,7.95,4.777,9.065
		c-1.994,4.505-2.984,10.001-3.555,12.924c-2.203,11.289-3.049,22.911-3.518,34.39c-1.629,40.01,6.256,79.18,7.852,118.963
		c-0.004,0.181,0.023,0.326,0.039,0.484c-1.461,0.015-2.945,0.149-4.443,0.415c-8.217,1.462-19.99,11.034-13.01,19.806
		c-0.148,1.669,0.736,3.135,3.248,3.216c11.148,0.358,22.414,1.447,33.359-1.229c0.701-0.171,1.357-0.54,1.92-1.032
		c3,1.736,7.563-0.944,8.715-3.978c1.539-4.052,1.295-8.506,1.113-12.771c-0.609-14.187-4.039-28.198-5.275-42.368
		c-1.516-17.39-2.045-34.849-2.285-52.298c-0.125-9.05-0.184-18.103-0.281-27.152c-0.08-7.646,0.209-15.497-1.143-23.054
		c2.457-0.194,4.914-0.4,7.369-0.596c4.574-0.364,9.08-0.328,13.605-0.267c4.563,9.544,5.682,20.793,6.279,31.197
		c0.729,12.637,2.086,25.203,2.852,37.833c0.93,15.318,0.965,30.688,0.629,46.025c-0.172,7.86-0.336,15.709-1.104,23.537
		c-0.334,3.412-0.75,6.814-1.02,10.232c-0.201,2.542-1.213,6.5-0.041,8.851c0.832,1.667,2.174,2.043,3.52,1.686
		c0.049,0.1,0.078,0.204,0.135,0.301c0.037,0.065,0.084,0.105,0.125,0.159c-0.482,0.347-0.945,0.712-1.369,1.122
		c-0.529,0.514-0.768,1.431,0.107,1.708c4.623,1.461,10.523,0.192,15.408-0.018c6.182-0.265,13.205-0.745,19.18,1.186
		c0.734,0.236,1.518,0.109,2.264-0.198c0.008,0.029,0.008,0.058,0.018,0.087c0.129,0.376,0.258,0.752,0.389,1.129
		c0.441,1.283,1.855,1.847,3.113,1.737c1.244-0.089,2.484-0.216,3.723-0.379c2.135-0.25,4.49-1.988,4.83-4.238
		c2.057-13.69-6.943-21.877-19.324-22.99c-0.758-0.179-1.527-0.348-2.303-0.496c6.24-5.309,5.346-27.134,5.463-31.793
		c0.359-14.174-0.529-28.377-1.607-42.503c-1.416-18.566-3.477-37.116-6.416-55.508c-1.957-12.253-3.803-25.417-8.385-37.175
		c2.59-3.753,2.449-9.634,3.092-13.912c0.943-6.204,1.766-12.424,2.572-18.646c1.646-12.727,3.09-25.478,4.82-38.192
		c1.262-9.263,2.66-18.5,4.262-27.706c2.193,6.993,4.672,13.918,7.039,20.794c5.313,15.426,10.861,30.953,18.111,45.595
		c3.045,6.15,11.764,22.35,19.09,10.267c2.814-4.642,1.117-11.548,0.094-16.45c-1.76-8.432-4.391-16.665-7.133-24.821
		c-3.051-9.075-6.615-17.982-9.553-27.096c-3.477-10.795-5.676-21.854-9.814-32.462c-1.326-3.399-2.445-6.885-3.736-10.304
		c-1.016-2.688-2.559-5.636-3.039-8.483c-0.086-0.514-0.283-0.865-0.541-1.096c0.1-0.657,0.146-1.321,0.107-1.999
		c-0.109-1.913-2.412-1.002-3.164-0.154c-0.328,0.371-0.381-3.423-3.186-3.564c-0.404-0.021-0.809-0.036-1.215-0.056
		c0,0,0,0,0-0.001h-0.002c-17.738-0.865-35.262-1.046-53.016-0.038c-8.873,0.504-17.74,1.104-26.619,1.509
		c-8.859,0.402-18.422-0.654-27.055,1.46c-0.535,0.131-1.209,0.723-1.635,1.408c-0.01-0.041-0.018-0.082-0.027-0.122
		c-0.322-1.546-2.461,0.06-2.682,0.864c-0.084,0.309-0.139,0.621-0.209,0.932c-0.615,0.267-1.168,0.738-1.359,1.26
		c-2.377,6.416-3.805,13.157-5.801,19.7c-0.813,2.66-1.684,5.303-2.574,7.938c-2.188,4.427-3.842,9.028-5.016,13.02
		c-0.225,0.77-0.309,1.435-0.281,2.014c-0.096,0.267-0.191,0.534-0.287,0.8c-5.232,14.571-10.264,29.813-17.146,43.698
		c-4.42,8.917-10.42,18.372-10.832,28.601c-0.109,2.733,0.566,6.702,2.287,9.6L375.739,293.829z"/>
</g>
</svg>
