<?xml version="1.0" encoding="utf-8"?>
<!-- Generator: Adobe Illustrator 23.0.1, SVG Export Plug-In . SVG Version: 6.00 Build 0)  -->
<svg version="1.1" id="Layer_3" xmlns="http://www.w3.org/2000/svg" xmlns:xlink="http://www.w3.org/1999/xlink" x="0px" y="0px"
	 viewBox="0 0 566.9 566.9" style="enable-background:new 0 0 566.9 566.9;" xml:space="preserve">
<g>
	<path d="M549,463.7c-0.2-12.3-0.5-24.6-1.2-36.9c-0.4-8.1-0.4-16.5-1.7-24.5c1.2-6.2-0.2-6.9-5.2-7.7c-12.8-2.2-24.3-8.4-35.6-14.7
		c-11-6.2-22.1-12.4-33.1-18.7c-1.9-15.8-2.5-39.6-1.4-55.5c5.4-3,3.8-14.7-3.4-15.4c-14.6-1.4-27.3-9.2-39.9-16.2
		c-11.9-6.6-23.9-13.2-35.8-19.8c0.7-7.6,2.4-21.5,2.3-29.2c-0.1-6.9-1-13.8-1-20.8c0.4,0,2.1-13-4-14.4c-17.2-4-26-10.6-38.3-18.7
		c-10.8-7.1-20.8-13.2-33-17.3c-1.3-8.1,3-24.1,4-32c0.7-6,1.3-18.1,1.3-18.1s1.1-11.1-5-13.2c-36.8-12.5-67.3-33-98.7-55.8
		c-3.6-2.6-61.5,20.2-89.4,31.2c-28.1,11.2-55.2,24.7-81.3,39.8c-0.3,0.1-0.6,0.3-0.9,0.5c-0.2,0.1-0.4,0.2-0.5,0.3
		c-1,0.6-1.5,1.9-1.7,3.5c-0.8,2.4-1,5-1,6.4c0.4,33.8,0.1,67.7,1.3,101.6c0.5,14.1,0.6,28.1,0.3,42.3c-1,38.8-2.9,77.6-3.2,116.4
		c-0.1,13.1-0.7,26.8,0.9,39.9c-2.5,6.4-1,18,4.6,17.9c9.2-0.2,18.1,3.7,26.7,6.8c13.9,5.1,27.6,11,41.1,17.1
		c24.2,10.9,48,22.5,71.6,34.6c34.8,17.7,70.4,34.2,106.6,49.1c14.6,6,29.3,11.8,44.4,16.4c9.1,2.8,20.5,7,30.2,5.2c0,0,0,0,0.1,0
		c0.7,0.2,1.5,0.1,2.4-0.4c27.5-16,55.1-31.9,84.8-43.6c30.8-12.3,62.2-23.3,93.3-34.9C555.3,482.8,554.8,465.6,549,463.7z
		 M530.4,406c-27.5,10.1-55.1,20-82.3,30.8c-26.9,10.7-52.2,24.8-77.2,39.3c-0.9-2.5-2.4-4.4-4.6-4.8c-12.8-2.2-24.3-8.4-35.6-14.7
		c-9.3-5.2-18.5-10.4-27.8-15.7c23.6-13.6,47.4-26.6,72.7-36.6c29.3-11.6,59.1-22.2,88.6-33.2c0.4,0.6,0.9,1,1.5,1.3
		c12.8,7.2,25.5,14.5,38.3,21.6C512.5,398.7,521.2,403.1,530.4,406z M461.9,360.8c-29.3,10.8-58.7,21.3-87.7,32.8
		c-26.9,10.7-52.1,24.7-77.1,39.2c-1.5-14.1-1.8-28.3-0.9-42.5c2.9-1.6,4.2-7.4,3.7-12.7c22.6-13,45.5-25.3,69.8-35
		c29.8-11.8,60-22.5,90-33.7C459,326.3,459.7,343.6,461.9,360.8z M450.3,301.4c-27.4,10.1-55,20-82.1,30.8
		c-25.4,10.1-49.4,23.2-73,36.8c-0.3-0.1-0.6-0.2-0.9-0.2c-14.6-1.4-27.3-9.2-39.9-16.2c-9.5-5.2-18.9-10.4-28.4-15.7
		c22.9-13.2,46.2-25.8,70.8-35.6c29.8-11.9,60.1-22.6,90.3-33.8c13.6,7.5,27.1,15,40.7,22.5C435.2,294.1,442.6,298.3,450.3,301.4z
		 M383,221.3c0.4,9.8,0,19.5-1.2,29.2c0,0.4-0.1,0.8-0.1,1.3c-0.4,2.2-0.5,4.6-0.3,6.8c-28.7,10.6-57.5,20.9-86,32.2
		c-26.7,10.6-51.7,24.5-76.6,38.9c0.5-6.6,0.7-13.1,0.6-19.7c-0.2-7.7-1.2-15.5-1-23.2c1.5-2.1,2.2-5.7,2.2-9.3
		c51.3-28.6,106.9-47.8,161.8-68.1C382.6,213.3,382.8,217.3,383,221.3z M376.9,200.2c-54.2,20-109,39.1-159.5,67.5
		c-0.7-0.6-1.5-1-2.5-1.1c-14.4-1.5-26.3-9.4-37.8-17.5c-8.4-5.9-16.7-11.5-25.8-15.5c22.9-13.2,46.1-25.7,70.7-35.5
		c29.4-11.7,59.2-22.3,88.9-33.2c0.8,1,1.7,1.6,2.8,1.9C337.3,172.4,354.8,191.3,376.9,200.2z M309.9,124.9
		c-0.9,8-1.3,15.8-0.7,23.6c-0.6,1.7-1,3.9-1,6.1c-29.3,10.8-58.7,21.3-87.7,32.8c-26.3,10.5-51,24.1-75.5,38.3
		c-0.1-6.4,1.2-12.9,2-19.1c1.2-9.8,2-19.7,0.6-29.5c0-0.2,0-0.3,0-0.5c25.7-14.9,51.5-29.4,79.2-40.4
		c28.2-11.2,56.8-21.4,85.2-31.9C311.9,111.3,310.8,118.1,309.9,124.9z M131.4,76.7c27.7-11,55.7-21,83.7-31.3
		c0.6,1.4,1.5,2.6,2.8,3.5c26.1,19,54.5,35.7,84.4,48c-25.7,9.4-51.5,18.7-77,28.9c-28.4,11.3-54.9,26.3-81.2,41.6
		c-0.2-0.1-0.5-0.3-0.7-0.4c0,0,0,0-0.1,0c-0.2-0.1-0.4-0.2-0.7-0.2c-32.2-11.2-59.9-31.1-87.2-51.1c0-0.6-0.1-1.3-0.2-2
		C79.8,99.6,105.2,87.1,131.4,76.7z M306,524.7c-27.4-10.9-54.3-23.1-80.9-35.8c-32.5-15.4-64.4-32.3-97.1-47.4
		c-15.3-7.1-30.8-14-46.6-19.9c-8.2-3.1-17.5-7.2-26.6-8.5c-0.1-0.8-0.2-1.5-0.2-2.3c0-0.3,0-0.6-0.1-0.8c0,0.6,0,0.5,0-0.5
		c0-0.1,0-0.3,0-0.4c0,0.1,0,0.2,0,0.4c0,0,0,0,0-0.1c-0.1-1.6-0.2-3.1-0.2-4.7c-0.3-7.5-0.3-15.1-0.3-22.6
		c0.1-19.2,0.6-38.5,1.2-57.7c0.6-19.3,1.3-38.6,1.8-57.9c0.4-12.9,1-25.9,0.4-38.8c-1.4-29.5-1.4-59-1.6-88.6
		c25.6,18.7,51.6,37.1,81.6,48c0.3,7.5-1.1,15-2,22.5c-0.9,7.7-1.3,15.3-0.7,22.9c-0.4,1-0.7,2.2-0.7,3.5c-1,6.1,0.4,14.2,5.1,15.4
		c25.8,6.3,43,29.7,68.6,35.9c0,6.2,0.5,12.4,0.7,18.7c0.4,9.8,0,19.5-1.2,29.2c0,0.4-0.1,0.8-0.1,1.3c-1,5.6-0.1,12.7,3.4,14.7
		c14.3,7.9,28.5,15.8,42.8,23.6c10.3,5.7,20.7,11.5,32.1,14.4c-1.1,18.8-0.5,37.6,2,56.3c0,0.2,0.1,0.5,0.1,0.8
		c-0.1,4.6,1,9.3,3.8,10.8c12.8,7.2,25.5,14.5,38.3,21.6c10.1,5.6,20.4,10.7,31.5,13.5c0.7,3.1,0.6,6.5,0.7,9.5
		c0.3,5.3,0.6,10.5,0.8,15.8c0.4,8.3,0.6,16.6,0.8,24.9c-6.3-0.2-12.9-2.2-18.5-3.9C331.5,534.6,318.7,529.7,306,524.7z
		 M453.2,498.6c-27.6,11-53.4,25.4-79,40.3c-0.2-9.2-0.5-18.3-1-27.5c-0.4-8-0.4-16.3-1.7-24.3c25.3-14.7,50.8-28.9,78-39.7
		c28.7-11.4,57.8-21.7,86.7-32.4c0,0.7,0,1.3,0.1,1.9c0.3,5.3,0.6,10.5,0.8,15.8c0.5,10.5,0.8,21.1,0.9,31.7c0,0.7,0.1,1.5,0.2,2.4
		C509.8,477.3,481.3,487.5,453.2,498.6z"/>
	<path d="M54.4,409.4c0,0.2,0,0.4,0,0.5C54.4,409.8,54.4,409.6,54.4,409.4C54.4,409.4,54.4,409.4,54.4,409.4z"/>
</g>
</svg>
