<?xml version="1.0" encoding="utf-8"?>
<!-- Generator: Adobe Illustrator 23.0.1, SVG Export Plug-In . SVG Version: 6.00 Build 0)  -->
<svg version="1.1" id="Layer_3" xmlns="http://www.w3.org/2000/svg" xmlns:xlink="http://www.w3.org/1999/xlink" x="0px" y="0px"
	 viewBox="0 0 566.9 566.9" style="enable-background:new 0 0 566.9 566.9;" xml:space="preserve">
<g>
	<path d="M546.7,388.7c-1.6-10.5-3.3-21-4.9-31.5c-3.3-21-6.5-42-9.8-63c-1.3-8.5-3.3-16.2-8.8-23c-5.3-6.6-12.1-12.5-18.7-17.8
		c-13.3-10.7-19.3-19.5-36.2-21.7c-2.9-0.4-9.5-2.6-10.2-2.9c-4.5-1.6-14.8-3.6-16.3-8.4c-1.4-4.5-2.1-9.9-3.5-14.5
		c-2.8-9.3-10.2-15.9-16.9-22.5c-1.1-1.1-26.3-25.8-38.7-38.2c-5.6-5.5-14.1-15.6-22.1-16c-8.7-0.4-17.4-0.5-26.1-0.8
		c-17.7-0.5-35.7-0.3-53.3-2.3c-17.3-2-57.3-4.8-70.9,0.7s-34.2,33.3-48,49.7c-7,8.2-14.3,16.4-23.4,22.3
		c-10.1,6.5-21.9,8.8-33,12.9C94.5,216.1,72,222.2,63,230.3c-9,8.1-11.3,18.3-12.8,29.9c-2,14.4-5.7,25-5.7,43.3s6.4,27,12,34.3
		c-1.2,1.5-9,13.5-14.3,21.9c-4.9,7.6-18.2,19.6-18.2,36.6c0,17,26.3,47.6,32.3,52c7.6,5.5,56.5,26.2,72.6,30.9
		c34.9,10.3,73.6,8.6,109.2,4.1c19.8-2.5,39.3-6.6,58.5-11.9c6.4-1.8,12.7-3.4,19-4.8c0.6,1.3,1.4,1.9,2.4,1.2
		c1.1-0.7,2.1-1.5,3.1-2.3c11.3-2,22.7-2.7,34.7-0.3c9.8,1.9,19.2,4,29.2,4.1c9.9,0.1,19.7-1,29.5-2c17-1.7,34-3.7,50.7-7.1
		c15.9-3.2,31.6-7.8,46.3-14.8c7.3-3.5,14.3-7.6,20.8-12.5c5.7-4.2,13.5-9.4,16.1-16.3C551.7,408.3,548,397.3,546.7,388.7z
		 M521.3,409.6c-3.9,12.9-35.6,16-49.9,20.3c-15.3,4.6-20.2,8.6-36.1,10.7c-16.5,2.2-32.4,10.3-49,10.7c-18.3,0.4-33.2,0.3-51.5,1.3
		c1-1.2-48.9,3.2-62.2,6.4c-35.8,8.5-124.8,0.5-140-5c-15.5-5.6-84.7-45.3-85.6-52.7c-1-8.8,11-25.1,24.5-49
		c13.5-23.8,49.6-18,58.5-16.8c9.6,1.3,19,3.5,28.2,6.5c4.1,1.3,5.4-18.8,2-19.9c-18.5-6.1-37.9-9-57.4-8.3
		c-8.6,0.3-17.7,0.9-25.8,4c-3.6,1.4-7,2.8-9.4,5.8c-7.6-4.5-6.2-18.3-5-27c1.6-12.1,3.2-24.2,4.9-36.2c0.8-5.7-2.2-5.7,5.4-15.8
		s30.2-16.8,40.6-20.1c10-3.1,32-4.8,40.5-11c7.3-5.3,13.5-11.9,19.3-18.7c12.6-14.7,24.1-30.6,42.1-39.1
		c21.4-10.1,60.5-9.4,61.1-10c15,2.2,30.3,2.1,45.3,2.5c8.8,0.3,17.5,0.5,26.3,0.8c8,0.2,17.8-1.1,24.5,4.1
		c7.6,5.9,14.2,14.1,20.8,21.1c6.9,7.3,23,21.9,23,21.9s7.3,7,10.9,10.7c4.3,4.5,0.1,26.5-3.2,26.6s-38.4,5-63.8,0.5
		c-8.2-1.5-16-4.1-23.3-8c-3.5-1.9-4.8,20.3-1.5,22c27.4,14.6,59.2,9.7,88.8,8c15.4-0.9,33.4,0.6,48.5,4.5
		c16.2,4.2,46.3,24.3,48,33.5C522.5,303.3,521.7,407.4,521.3,409.6z"/>
	<path d="M510.6,340.6c-7.5,2.3-14.6,5.5-21.2,9.7c-6.2,3.9-12.1,8.2-19,10.6c-13.2,4.7-28,2.7-39.8-4.6c-3.3-2-4.7,8.6-1.5,10.6
		c11.9,7.3,26.3,9.3,39.7,5.5c7.5-2.2,13.9-6.4,20.5-10.6c7.2-4.6,14.6-8.2,22.7-10.7C515.4,350.1,514.8,339.3,510.6,340.6z"/>
</g>
<path d="M5.1,487.9c18.2-7.3,36.4-14.1,55-13.4c17.5,0.6,34.6,6.4,51.4,12.7c17,6.3,33.9,13.3,51.4,16.3c18.2,3.2,36.6,1.2,54.9-2.5
	c18.8-3.8,37.6-9.2,56.5-12.4c18.6-3.2,37.4-4.9,56-5c18.7-0.1,37.2,1.7,55.8,4c18.4,2.3,35.9,1.7,54-6.3c10-4.4,19.8-10,29.9-13.5
	c10-3.4,20.2-4.7,30.4-4.5c20.9,0.4,41.4,6.9,61.7,13.4c3.4,1.1,4.6-16.6,0.6-17.9c-18.1-5.8-36.4-11.6-55-13
	c-18.2-1.4-35.6,2.6-53.2,11c-8.7,4.2-18.3,3.6-27.2,6.3c-9.2,2.8-17.5,4-26.8,3.5c-18.9-1.1-36.6-4.9-55.5-5.5
	c-37.8-1.1-76.3,10.6-113.9,19.4c-18.7,4.3-38.9,0-57.7-1.3c-17.9-1.3-34,0.4-51.3-6.1c-18.9-7.1-38-14.7-57.6-16.2
	c-20.4-1.5-40.3,5.8-60.2,13.8C0.8,472,0.8,489.7,5.1,487.9L5.1,487.9z"/>
</svg>
