<?xml version="1.0" encoding="utf-8"?>
<!-- Generator: Adobe Illustrator 23.0.1, SVG Export Plug-In . SVG Version: 6.00 Build 0)  -->
<svg version="1.1" id="Layer_3" xmlns="http://www.w3.org/2000/svg" xmlns:xlink="http://www.w3.org/1999/xlink" x="0px" y="0px"
	 viewBox="0 0 566.9 566.9" style="enable-background:new 0 0 566.9 566.9;" xml:space="preserve">
<path d="M484.2,169.9c-1.3-10.3-1.2-20.5-1-29.1c0.5-20.9-1.4-41.3-5.8-60.5c-0.2-1-0.5-2.1-0.7-3.2c-1.7-8.2-3.7-17.4-9.6-23.7
	c-5.6-5.9-13.6-7.6-20.8-9l-1.5-0.3c-17.2-3.6-51.2-3.8-65-3.7c-0.4,0-0.6,0-0.7,0c-49.3-0.8-98.9-0.6-147.5,0.8
	c-24.1,0.7-48.6,1.7-72.7,2.9c-2.8,0.1-5.6,0.2-8.4,0.3c-8.2,0.3-16.7,0.6-24.9,1.9c-11.1,1.8-18.9,6-23.7,12.7
	c-7,9.7-7.6,22.4-8.2,33.6c-0.1,1.6-0.2,3.2-0.3,4.7c-0.9,13.5-1.1,27.3-0.8,41.1c0,0.6,0.1,1.5,0.2,2.5c-1.8,3.3-2.1,7.7-2.1,9.3
	l0.6,19.8c0.4,14,0.9,28.1,1.3,42.1c0.3,10.4,0.7,20.5,2,30.6c1.2,9,2.2,17.5,0.7,26.6c-1.6,9.3-3,19.4-2.5,30.1
	c0.2,4,0.5,8,0.8,11.9c0.4,5.6,0.9,11.5,0.9,17.2c0,8.5-0.6,17.2-1.2,25.6c-0.8,11.3-1.6,22.9-1,34.6c0.4,9,0.3,29.9-2.7,78.6
	c-0.1,1.6-0.2,2.6-0.2,2.9c-0.8,17.1,0.6,34.2,4.1,50.7l0,0.2c0.9,4.1,1.8,8.7,5.3,12.2c2.8,2.9,6.6,4.5,10,6
	c6.3,2.7,13.7,4.6,21.9,5.8c13.7,1.9,27.7,1.7,41.3,1.5c2,0,4-0.1,5.9-0.1c16-0.2,31.7-0.6,50.5-1.3l10.5-0.4
	c29.9-1,60.8-2.1,91.1-1.6c13.3,0.2,26.8,1.2,39.9,2.1c15.4,1.1,31.1,2.2,46.8,2.2c4.5,0,9-0.1,13.4-0.3c23.8-1.1,38.1-9,42.4-23.4
	c1.3-4.5,5-22.5,5-26.1c0.1-11,0.8-21.9,1.5-32.4c0.6-9.4,1.2-19,1.4-28.7c0.4-22.7-0.3-45.2-1-64.3c-0.3-6.9-0.6-13.7-0.9-20.5
	c-0.6-13.9-1.2-28.3-1.5-42.4c-0.2-9.6-0.3-19.9,0.5-30.2c0.5-6.3,1.3-12.7,2.1-18.9c0.5-4,1.1-8.2,1.5-12.3c0.9-8,2.3-24.9,3.2-36
	c0.4-5,0.8-9.3,0.8-9.9C486.5,191,485.4,180.1,484.2,169.9z M458,512.3c-0.9,1.8-3.8,4.4-12.7,6.9c-6.5,1.8-13.3,2.2-19.8,2.3
	c-17.5,0.3-35.4-0.9-52.7-2.1c-12.7-0.8-25.8-1.7-38.8-2c-6.8-0.2-13.5-0.2-20.3-0.2c-24.6,0-49.3,0.9-73.4,1.7
	c-28.7,1-58.5,2.1-87.7,1.6c-14.5-0.2-29.6-1-42.6-7.7c-1.8-0.9-1.8-1-2.2-3.8c-0.1-0.4-0.1-0.9-0.2-1.4c-0.8-4.4-1.4-8.8-1.8-13.2
	c-0.6-5.7,1.3-21,3.1-32.4c3.1-20,1.6-40.2,0.2-59.7l-0.3-4c-0.6-8.2-1.2-19-0.8-29.8c0.2-5.4,0.7-10.9,1.1-16.2
	c0.3-4.3,0.7-8.7,0.9-13.1c0.5-8.3-0.1-16.7-0.6-24.8c-0.8-11.5-1.5-22.3,0.4-33.2c1.7-9.8,3.1-20.4,2-31.6
	c-0.3-3.6-0.8-7.2-1.2-10.7c-0.7-6-1.5-12.2-1.8-18.3c-0.7-16-1.1-32.3-1.6-48.1c-0.2-7.5-0.4-15-0.7-22.4c0-0.6-0.1-1.5-0.2-2.4
	c1.8-3.2,2.1-7.7,2.1-9.3c-0.3-11.5-0.2-22.9,0.4-33.8c0.3-5.4,0.7-10.7,1.1-15.6l0.1-1.2c0.3-3.2,0.6-6.3,2.1-8.6
	c3.6-5.3,11.6-6.8,19.8-7.5c8-0.7,16.1-1.1,24-1.4c2.7-0.1,5.4-0.2,8-0.4c45.5-2.2,91.7-3.5,137.3-3.9c25.4-0.2,51.5,0,77.6,0.4
	c0,0,0.2,0,0.6,0c9.4-0.1,41.4-0.3,56.6,2.2c1.1,0.2,2.3,0.4,3.6,0.5c6.2,0.9,13.2,1.9,17.4,5.2c1.5,1.2,2,2.8,2.7,5.5l0.3,0.9
	c1.2,4.4,2.2,8.3,3,12.2c3.2,14.9,4.4,30.8,3.9,51.5c-0.2,7.8,0,14.8,0.5,21.4c-0.6,2.3-0.7,8-0.6,27.7c0,14.8,0,31.5-0.7,42
	c-0.4,6.3-1.3,12.7-2.1,18.9c-0.6,4.3-1.2,8.7-1.6,13.1c-1,10-1.5,20.6-1.5,32.2c0,20.5,1,41.4,1.8,61.5c1,22.8,2,46.3,1.8,69.5
	c-0.1,6.1-0.3,12.3-0.5,18.4c-0.1,3.3-0.2,6.6-0.3,9.9c-0.8,2.8-1.4,9.5-2.9,26.3C459.9,495.8,458.5,510.1,458,512.3z M458,512.2
	L458,512.2C458,512.2,458,512.2,458,512.2C458,512.2,458,512.2,458,512.2z"/>
<path d="M440.8,234c-0.2-0.5-0.4-0.9-0.6-1.4c-1.4-3.7-3-7.8-7.7-10.6c-4.5-2.7-11-3.4-16.8-4.1l-1.2-0.1
	c-13.9-1.6-41.4-1.7-52.5-1.7c-0.3,0-0.5,0-0.6,0c-39.8-0.4-79.9-0.2-119.2,0.4c-19.5,0.3-39.2,0.7-58.7,1.3
	c-2.2,0.1-4.5,0.1-6.8,0.2c-6.6,0.1-13.5,0.3-20.2,0.9c-9,0.8-15.2,2.7-19.2,5.7c-5.6,4.3-6.2,10.1-6.6,15.1
	c-0.1,0.7-0.1,1.4-0.2,2.1c-0.7,6.1-0.9,54.3-0.6,60.5c0,0.3,1.6,46.9,1.6,46.9l0.6,12c0,0-0.7,24-0.7,26.6c0,3.8-3.6,79.1-0.8,86.5
	l0,0.1c0.7,1.8,1.5,3.9,4.2,5.5c2.3,1.3,5.3,2,8.1,2.7c5.1,1.2,11,2.1,17.7,2.6c11.1,0.9,22.4,0.8,33.4,0.7c1.6,0,3.2,0,4.8,0
	c12.9-0.1,25.6-0.3,40.8-0.6l8.5-0.2c24.1-0.5,49.1-1,73.6-0.7c10.7,0.1,21.7,0.5,32.3,1c12.4,0.5,25.1,1,37.8,1
	c3.6,0,7.2,0,10.8-0.1c19.3-0.5,30.8-4,34.3-10.5c1.1-2,4.7-21.6,5.3-26.3c0.5-4.2,1-8.6,1.2-12.9c0.3-10.2,0.2-83,0.6-84.8
	C444.6,347.9,444.3,242.7,440.8,234z M425.1,470.2c-0.7,0.8-3.1,2-10.3,3.1c-5.2,0.8-10.8,1-16,1c-14.2,0.1-28.6-0.4-42.6-0.9
	c-10.3-0.4-20.9-0.8-31.3-0.9c-5.5-0.1-10.9-0.1-16.4-0.1c-19.9,0-39.8,0.4-59.3,0.8c-23.2,0.5-47.2,0.9-70.8,0.7
	c-11.7-0.1-23.9-0.5-34.4-3.5c-3.9-1.2-3.1-6.3-3.4-8.3c-0.5-2.6,1.4-51.8,1.8-56.6c0.2-2.4,0.5-4.9,0.9-7.3
	c0.3-1.9,0-56.4-0.2-59.2c-0.6-7.2-0.9-14.5-1.3-21.6c-0.2-3.4-0.3-6.7-0.5-10.1c0-0.3-0.7-68.2-0.7-68.2c0.2-1.5,4.1-4.6,5.3-5.7
	c2.9-2.4,9.4-3,16-3.4c6.4-0.3,13-0.5,19.4-0.6c2.2-0.1,4.3-0.1,6.5-0.2c36.8-1,74-1.6,110.9-1.7c20.5-0.1,41.6,0,62.7,0.2
	c0,0,0.2,0,0.5,0c7.6-0.1,33.4-0.1,45.7,1c0.9,0.1,1.9,0.2,2.9,0.2c5,0.4,10.6,0.9,14.1,2.4c1.2,0.5,1.6,1.2,2.2,2.5l0.2,0.4
	c1,2,1.8,3.8,2.5,5.5c2.6,6.7,3.5,55.9,3.1,65.1c-0.1,3.5,0,6.6,0.4,9.6c-0.5,1-0.5,3.6-0.5,12.5c0,6.6,0,14.2-0.5,18.9
	c-0.3,2.8-1.1,77.3-1.3,87.7c-0.1,2.7-0.2,5.6-0.4,8.3c-0.1,1.5-0.2,3-0.2,4.4c-0.6,1.3-1.1,4.3-2.4,11.8
	C426.7,462.8,425.6,469.3,425.1,470.2z M425.2,470.2L425.2,470.2C425.2,470.2,425.2,470.2,425.2,470.2
	C425.2,470.2,425.2,470.2,425.2,470.2z"/>
<path d="M158,123.7c0.6,4.4,0.6,8.4-0.1,12.9c-0.6,4.1-0.3,11.8,4,14c4.5,2.3,6.6-5.1,7-8c1.3-8.3,1.3-16.7,0.1-25
	c-0.4-3-2.6-10.2-7-8C157.7,111.8,157.4,119.8,158,123.7L158,123.7z"/>
<path d="M389.7,255.8c-67.7,2.6-135.5,2.9-203.3,0.8c-3.4-0.1-3.5,9.9,0,10c67.7,2.1,135.6,1.8,203.3-0.8
	C393.2,265.6,393.1,255.6,389.7,255.8L389.7,255.8z"/>
<path d="M242.3,123.7c0.6,4.4,0.6,8.4-0.1,12.9c-0.6,4.1-0.3,11.8,4,14c4.5,2.3,6.6-5.1,7-8c1.3-8.3,1.3-16.7,0.1-25
	c-0.4-3-2.6-10.2-7-8C242,111.8,241.8,119.8,242.3,123.7L242.3,123.7z"/>
<path d="M328.2,123.7c0.6,4.4,0.6,8.4-0.1,12.9c-0.6,4.1-0.3,11.8,4,14c4.5,2.3,6.6-5.1,7-8c1.3-8.3,1.3-16.7,0.1-25
	c-0.4-3-2.6-10.2-7-8C327.9,111.8,327.7,119.8,328.2,123.7L328.2,123.7z"/>
<path d="M412.6,123.7c0.6,4.4,0.6,8.4-0.1,12.9c-0.6,4.1-0.3,11.8,4,14c4.5,2.3,6.6-5.1,7-8c1.3-8.3,1.3-16.7,0.1-25
	c-0.4-3-2.6-10.2-7-8C412.3,111.8,412.1,119.8,412.6,123.7L412.6,123.7z"/>
<g>
	<path d="M183.3,96.5c-7.9-3.5-19.6-4.5-27.9-2.3c-9,2.5-14.6,9.8-19.7,17.1c-1,1.4-1.5,3.3-1.4,5.1c-1.4,1.1-1.8,4.1-1.8,5.3
		c0.4,9.2-0.9,20.6,3.3,29.1c3.9,7.8,12.1,12,19.6,15.4c9.2,4.2,17.9,5.3,26.3-1.1c6.6-5,13.1-11.8,15.1-20.1
		c2.2-9.1,4.1-19.9,0.9-29C195.3,109.2,190.4,99.6,183.3,96.5z M193.6,128.1c-0.2,3.6-0.8,7.4-1.6,10.9c-1.5,6.4-7.9,12.5-13.2,16.1
		c-7.2,4.9-14.3,3.5-21.9,0.1c-5.4-2.5-11.8-5.2-15.5-10c-4.5-5.8-3-16.5-3.2-23.5c0,0,0-0.1,0-0.1c0.1-0.1,0.3-0.3,0.4-0.4
		c3.8-5.4,7.9-11.4,14.1-14.4c6.8-3.2,14.5-2.4,21.7-1.1c7.9,1.4,11.9,4.1,15.9,11.1C192.3,120.5,193.8,123.6,193.6,128.1z"/>
	<path d="M266.3,96.5c-7.9-3.5-19.6-4.5-27.9-2.3c-9,2.5-14.6,9.8-19.7,17.1c-1,1.4-1.5,3.3-1.4,5.1c-1.4,1.1-1.8,4.1-1.8,5.3
		c0.4,9.2-0.9,20.6,3.3,29.1c3.9,7.8,12.1,12,19.6,15.4c9.2,4.2,17.9,5.3,26.3-1.1c6.6-5,13.1-11.8,15.1-20.1
		c2.2-9.1,4.1-19.9,0.9-29C278.3,109.2,273.3,99.6,266.3,96.5z M276.5,128.1c-0.2,3.6-0.8,7.4-1.6,10.9c-1.5,6.4-7.9,12.5-13.2,16.1
		c-7.2,4.9-14.3,3.5-21.9,0.1c-5.4-2.5-11.8-5.2-15.5-10c-4.5-5.8-3-16.5-3.2-23.5c0,0,0-0.1,0-0.1c0.1-0.1,0.3-0.3,0.4-0.4
		c3.8-5.4,7.9-11.4,14.1-14.4c6.8-3.2,14.5-2.4,21.7-1.1c7.9,1.4,11.9,4.1,15.9,11.1C275.2,120.5,276.8,123.6,276.5,128.1z"/>
	<path d="M351.4,96.5c-7.9-3.5-19.6-4.5-27.9-2.3c-9,2.5-14.6,9.8-19.7,17.1c-1,1.4-1.5,3.3-1.4,5.1c-1.4,1.1-1.8,4.1-1.8,5.3
		c0.4,9.2-0.9,20.6,3.3,29.1c3.9,7.8,12.1,12,19.6,15.4c9.2,4.2,17.9,5.3,26.3-1.1c6.6-5,13.1-11.8,15.1-20.1
		c2.2-9.1,4.1-19.9,0.9-29C363.4,109.2,358.4,99.6,351.4,96.5z M361.7,128.1c-0.2,3.6-0.8,7.4-1.6,10.9c-1.5,6.4-7.9,12.5-13.2,16.1
		c-7.2,4.9-14.3,3.5-21.9,0.1c-5.4-2.5-11.8-5.2-15.5-10c-4.5-5.8-3-16.5-3.2-23.5c0,0,0-0.1,0-0.1c0.1-0.1,0.3-0.3,0.4-0.4
		c3.8-5.4,7.9-11.4,14.1-14.4c6.8-3.2,14.5-2.4,21.7-1.1c7.9,1.4,11.9,4.1,15.9,11.1C360.4,120.5,361.9,123.6,361.7,128.1z"/>
	<path d="M450.6,116.1c-2.4-6.9-7.4-16.5-14.4-19.6c-7.9-3.5-19.6-4.5-27.9-2.3c-9,2.5-14.6,9.8-19.7,17.1c-1,1.4-1.5,3.3-1.4,5.1
		c-1.4,1.1-1.8,4.1-1.8,5.3c0.4,9.2-0.9,20.6,3.3,29.1c3.9,7.8,12.1,12,19.6,15.4c9.2,4.2,17.9,5.3,26.3-1.1
		c6.6-5,13.1-11.8,15.1-20.1C451.9,135.9,453.8,125.1,450.6,116.1z M446.4,128.1c-0.2,3.6-0.8,7.4-1.6,10.9
		c-1.5,6.4-7.9,12.5-13.2,16.1c-7.2,4.9-14.3,3.5-21.9,0.1c-5.4-2.5-11.8-5.2-15.5-10c-4.5-5.8-3-16.5-3.2-23.5c0,0,0-0.1,0-0.1
		c0.1-0.1,0.3-0.3,0.4-0.4c3.8-5.4,7.9-11.4,14.1-14.4c6.8-3.2,14.5-2.4,21.7-1.1c7.9,1.4,11.9,4.1,15.9,11.1
		C445.2,120.5,446.7,123.6,446.4,128.1z"/>
</g>
<path d="M253.7,24.9c-10.6-3.5-22.8-2.3-33.6-1.9c-6.1,0.2-12.3,0.6-18.4,1.3c-3.6,0.5-8.2,0.6-11.5,2.9c-5.9,4.1-3.9,29.6,2.7,25.1
	c1.4-0.9,0.9-0.6,2.8-1c2.3-0.5,4.7-0.8,7-1.1c6.2-0.7,12.4-1.1,18.6-1.2c10.4-0.3,22.2-1.5,32.4,1.9
	C259.5,52.9,261,27.3,253.7,24.9L253.7,24.9z"/>
<path d="M396.4,24.9c-10.6-3.5-22.8-2.3-33.6-1.9c-6.1,0.2-12.3,0.6-18.4,1.3c-3.6,0.5-8.2,0.6-11.5,2.9c-5.9,4.1-3.9,29.6,2.7,25.1
	c1.4-0.9,0.9-0.6,2.8-1c2.3-0.5,4.7-0.8,7-1.1c6.2-0.7,12.4-1.1,18.6-1.2c10.4-0.3,22.2-1.5,32.4,1.9
	C402.2,52.9,403.6,27.3,396.4,24.9L396.4,24.9z"/>
<path d="M198,544.5c-14.7,0.2-29.3,0.1-44-0.2c-3.2-0.1-3.5,8.6-0.7,9.8c-1.2,2.9-0.5,8.3,2,8.2c14.1-0.6,28.2-0.5,42.3,0.1
	c2.7,0.1,3.3-6,1.8-8.7C201.4,551.4,200.9,544.4,198,544.5z"/>
<path d="M424.7,544.5c-14.7,0.2-29.3,0.1-44-0.2c-3.2-0.1-3.5,8.6-0.7,9.8c-1.2,2.9-0.5,8.3,2,8.2c14.1-0.6,28.2-0.5,42.3,0.1
	c2.7,0.1,3.3-6,1.8-8.7C428.1,551.4,427.6,544.4,424.7,544.5z"/>
<path d="M142.7,402.1c75.4-0.8,150.8-1.8,226.2-3.1c21.6-0.4,43.2-0.8,64.8-1.2c1.7,0,1.7-5,0-5c-75.4,1.4-150.8,2.6-226.2,3.5
	c-21.6,0.3-43.2,0.5-64.8,0.7C140.9,397.1,140.9,402.1,142.7,402.1L142.7,402.1z"/>
<path d="M361.2,341c-0.1-0.3-0.3-0.5-0.5-0.7c-0.4-1-1.1-1.7-2-1.8c-42.4-1.5-84.9,0.2-127.3,1.3c-5.8,0.1-11.6,0.4-17.4,0.4
	c-0.8,0-1.4,0.5-1.8,1.4c-2.5,1.6-3.7,9.4-1.9,12.4c8.6,13.8,17.2,27.7,25.8,41.5c0.2,2.1,1.1,4,2.6,4c0,0,0,0,0,0
	c1.3,1.4,2.5,1.1,3.4,0c30.6-0.4,61.1-3.1,91.7-1.8c1,0.9,2.1,0.9,3.1,0.1c0.3,0,0.5,0,0.8,0c1.8,0.1,2.7-2.8,2.6-5.5
	c7.4-13.3,15.2-26.5,20.9-40.6C362.5,348.4,362.9,344.1,361.2,341z M243.8,389.3c-0.1-0.6-0.3-1.2-0.6-1.6
	c-7.8-12.5-15.6-25-23.4-37.5c35.4-0.3,70.8-1.9,106.2-2c8.9,0,17.7,0,26.6,0.2c-5.9,12.8-13.3,24.9-19.9,37.3
	c-0.3,0.6-0.5,1.2-0.7,1.9C302.6,386.4,273.2,388.8,243.8,389.3z"/>
</svg>
