<?xml version="1.0" encoding="UTF-8" standalone="no"?><!DOCTYPE svg PUBLIC "-//W3C//DTD SVG 1.1//EN" "http://www.w3.org/Graphics/SVG/1.1/DTD/svg11.dtd"><svg width="100%" height="100%" viewBox="0 0 567 567" version="1.1" xmlns="http://www.w3.org/2000/svg" xmlns:xlink="http://www.w3.org/1999/xlink" xml:space="preserve" xmlns:serif="http://www.serif.com/" style="fill-rule:evenodd;clip-rule:evenodd;stroke-linejoin:round;stroke-miterlimit:1.41421;"><g id="Layer_4"><g><path d="M314.6,277.4c0.1,0.3 0.4,1 0.6,1.4c-0.2,-0.4 -0.4,-0.9 -0.6,-1.4Z" style="fill-rule:nonzero;"/><path d="M341.2,343.3c-0.6,-9.2 -1.6,-18.3 -2.8,-27.4c-0.6,-4.6 -1.2,-9.1 -1.7,-13.7c-0.2,-2.1 -0.3,-7.3 -0.1,-8.9c0.4,-4.5 0.6,-11.8 -2.1,-16.6c-10.4,-30.1 -22.8,-60.2 -42.9,-85.2c-12.3,-15.3 -28.8,-29.2 -49.1,-31.2c-24.6,-2.3 -47.7,10.3 -62.7,29.2c-16.1,20.3 -24.3,44.9 -34.4,68.4c-0.4,0.9 -0.8,1.9 -1.1,2.9c-4.7,4.2 -4.6,14 -4.1,19.2c-0.3,-2.8 -0.1,2.6 0,2.8c0,0.3 -0.1,0.6 -0.1,1.1c-0.1,1.2 -0.3,2.4 -0.5,3.6c-0.5,3.6 -1.2,7.2 -1.8,10.8c-1.6,9.6 -2,19.2 -1.3,28.9c0.6,7.5 1.7,15.9 1.9,21.7c0.3,8.2 0,16.4 -0.2,24.6c-0.1,2.8 0.4,7.8 2.2,11.6c-1.4,6.3 0.2,15.3 5.2,15.9c15.2,1.8 30.4,2.9 45.7,3c15.4,0.1 30.9,-1.1 46.3,-0.6c14.9,0.5 29.8,2.7 44.7,4.4c15.9,1.7 31.8,3.5 47.7,5.2c0.9,0.1 1.6,-0.1 2.3,-0.6c5.4,1 8.4,-8.2 8.7,-12c1.3,-19.1 1.5,-38 0.2,-57.1Zm-103.6,38.1c-15.1,-0.5 -30.2,0.7 -45.4,0.6c-12.8,-0.1 -25.6,-0.8 -38.3,-2.1c0.5,-2.5 0.6,-4.9 0.7,-6.4c0.2,-8.8 0.5,-17.7 0.1,-26.5c-0.4,-8.8 -1.7,-17.5 -2.3,-26.3c0.1,0.8 0,-3.5 0,-3.4c0,-1 0.1,-1.6 0.1,-1.8c0.1,-0.7 0.1,-1.3 0.2,-2c0.5,-3.9 1.2,-7.8 1.9,-11.8c1.1,-6.4 1.8,-12.8 1.9,-19.3c0.2,-0.3 0.4,-0.7 0.5,-1.1c4,-9.3 7.6,-18.8 11.6,-28.1c2.2,-5.1 4.5,-10.1 7,-15c1.2,-2.4 2.5,-4.8 3.8,-7.1c0.6,-1 1.1,-2 1.7,-3c0.2,-0.3 1.8,-2.9 1.6,-2.7c12.1,-18.4 29.1,-31.2 52.1,-32.2c9.7,-0.4 16.5,1.2 24.8,5.8c8.5,4.7 13.3,9.2 19.9,16.7c3.2,3.6 6.1,7.4 8.9,11.3c0.7,1 1.4,2 2.1,3c0.3,0.4 1.2,1.7 1.5,2.2c0.3,0.5 1.1,1.8 1.4,2.2c0.7,1.2 1.4,2.4 2.1,3.6c4.8,8.1 9.1,16.6 13,25.2c1.9,4.2 3.7,8.5 5.4,12.7c0.2,0.5 0.4,0.9 0.6,1.4l0,-0.1c0.3,0.3 0.4,1.1 0.6,1.6l0,0.1c0.6,1.6 1.2,3.3 1.8,4.9c1.1,3.2 2.2,6.3 3.3,9.5c-0.2,16.7 2.8,33 4.3,49.8c0.6,6.9 1,15.4 1.1,23.7c0,4.5 0,9.1 -0.2,13.6c-0.1,3.5 -0.3,7.3 -0.5,10c-13.9,-1.5 -27.9,-3.1 -41.8,-4.6c-15,-1.6 -30.3,-3.8 -45.5,-4.4Zm77.7,-102.4c0.1,0.3 0.1,0.3 0,0Z" style="fill-rule:nonzero;"/></g><path d="M501.2,172c0.3,-9.4 0.5,-18.8 0.4,-28.2c-0.2,-15.6 -1.9,-31.1 -1.7,-46.6c0.6,-4.1 0.1,-8.8 -1.5,-11.6c-1.2,-3.6 -3.3,-6.5 -6.7,-6.5c-3.2,0 -5.2,2.6 -6.4,5.8c-6.1,1.3 -12.2,2.9 -18.2,4.7c-5,-0.1 -10,-0.2 -14.9,-0.3c-18.1,-0.5 -36.4,-1 -54.4,-3.2c-4.8,-0.6 -11.6,-0.6 -15.8,-3.5c-3.1,-2.1 -4.6,8.5 -1.5,10.6c3.4,2.4 8.9,2.8 12.9,3.3c8.1,1.2 16.3,1.8 24.5,2.3c5.7,0.4 11.3,0.7 17,0.9c-7.6,2.4 -15.2,4.8 -22.7,7.3c-7.6,2.5 -16.6,7.2 -24.9,7.4c-1.7,-2.3 -3.9,-3.6 -6.8,-2.2c-0.7,0.3 -1.3,0.8 -1.8,1.3c-1,0.3 -1.8,1 -2.5,2.1c-35.6,0.6 -71.3,-0.1 -106.8,-2.3c-18.3,-1.1 -36.6,-2.6 -54.9,-4.5c-17.8,-1.8 -35.5,-3.4 -53.4,-3c-10.6,0.2 -21.4,0.9 -32.1,0.6c4.5,-2.2 9,-4.4 13.5,-6.6c15.1,-7.3 32.8,-10.7 49.3,-13.1c3.4,2 8.4,2.4 12.2,2.9c8.1,1.2 16.3,1.8 24.5,2.3c19,1.2 38,1.7 57,1.8c7.4,0 14.8,0.1 22.2,-0.3c3.9,-0.2 3.7,-11.2 0,-11c-14.9,0.8 -29.9,0.4 -44.9,0c-18.1,-0.5 -36.4,-1 -54.4,-3.2c-3.8,-0.4 -8.9,-0.6 -12.9,-2c-0.5,-1.1 -1.2,-1.8 -2.2,-1.7c-0.3,0 -0.6,0.1 -0.9,0.1c-0.6,-0.4 -1.2,-0.2 -1.6,0.2c-16.5,2.4 -34,6 -49.1,13c-11,5.2 -21.7,10.7 -32.7,15.6c-2.3,-0.4 -4.6,-0.9 -6.9,-1.6c-4.5,-1.2 -6.3,4 -6.8,7.7c-0.3,2.1 -0.4,7.5 1.1,10.8c0.2,34.4 0.2,68.8 0.3,103.1c0.1,37.1 0.7,74.2 0.3,111.3c-0.4,35.2 -8.1,70.6 -1.7,105.7c0.3,1.7 1,4.5 2.3,6.3c0.6,3.7 2.3,6.9 5.1,7.6c17.3,4.2 35.1,5 52.9,5.3c18.3,0.3 36.5,0.8 54.7,2.9c36.5,4.2 72.9,10 109.2,15.6c17.3,2.7 34.6,5.7 51.6,9.8c0.7,5.3 2.7,11.9 7.9,11.9c1.6,0 2.9,-0.7 4,-1.8c18.7,-8.3 37,-17.4 55.5,-26.2c17.1,-8 34.3,-16.6 52.1,-22.8c1.9,0.5 3.4,-0.3 4.7,-1.6c2.3,-1.1 4,-5.5 4.6,-7.5c1.2,-3.9 1.5,-8.7 0.8,-12.7c-0.1,-0.4 -0.1,-0.8 -0.2,-1.2c0.5,-13.7 -1.5,-27.3 -3.5,-40.9c-0.7,-4.5 -1.2,-9 -1.6,-13.5c0,-0.3 0,-0.5 -0.1,-0.8c0,-0.5 -0.1,-1.2 -0.1,-1.7c-0.1,-2.1 -0.2,-4.3 -0.3,-6.4c-0.8,-19.9 -0.3,-39.8 0.4,-59.7c1.5,-44 4.6,-88 5.9,-132Zm-225.9,278.5c-37,-5.4 -73.7,-11.3 -111.1,-11.9c-19.6,-0.3 -39.3,-0.5 -58.6,-4.7c-5,-29.9 1.4,-60.3 2.2,-90.3c0.5,-18.8 0.1,-37.6 0.1,-56.5c-0.1,-39.2 -0.2,-78.4 -0.3,-117.6c0,-14.6 -0.1,-29.2 -0.1,-43.8c14.3,2.7 28.7,2.6 43.4,2.1c18.1,-0.6 35.9,-0.1 54,1.7c36.8,3.6 73.7,6.5 110.7,7.5c19.8,0.5 39.7,0.6 59.6,0.3c0.2,3.4 0.3,6.8 0.4,10.2c0.3,9.1 0.4,18.1 0.4,27.2c0.1,21.1 -0.1,42.2 -0.5,63.3c-0.7,44 -3.3,87.8 -4.5,131.7c-0.8,32.3 -1,64.6 -0.5,97c-31.4,-7.5 -63.4,-11.6 -95.2,-16.2Zm158.7,-9.5c-15.7,7.4 -31.3,15.2 -47.2,22.4c-0.6,-55.2 1.2,-110.3 3.5,-165.5c1.6,-39.1 2.1,-78.2 2,-117.3c0,-15.1 0,-30.2 -0.9,-45.3c7,-1.1 13.9,-4.1 20.7,-6.4c9.2,-3.1 18.5,-6 27.8,-8.9c14.2,-4.4 28.7,-9.6 43.4,-12.9c0.3,19.1 2,38.1 1.5,57.2c-0.5,20.4 -1.5,40.8 -2.6,61.2c-2.2,43.4 -5.1,86.9 -4.2,130.4c0.2,10.1 0.7,20.2 1.7,30.2c0.8,7.3 2.1,14.6 3.1,21.9c0.3,1.9 0.5,3.7 0.7,5.6c0.1,1.2 0.2,2.3 0.3,3.5c0,0.3 0,0.8 0.1,1.5c0,0.1 0,0.1 0,0.2c-16.9,6.2 -33.5,14.4 -49.9,22.2Z" style="fill-rule:nonzero;"/><path d="M388.8,489.3c-0.6,4.3 -1.1,8.7 -1.7,13c-0.2,1.9 -0.2,5.8 1.9,6.8c2.2,1 3.2,-2.4 3.4,-3.8c0.6,-4.3 1.1,-8.7 1.7,-13c0.2,-1.9 0.2,-5.8 -1.9,-6.8c-2.2,-1 -3.2,2.3 -3.4,3.8Z" style="fill-rule:nonzero;"/><path d="M390.7,-133.6c-4.3,-2 -6.5,4.7 -6.8,7.7c-6.7,68.4 -4,137.2 -10.3,205.6c-0.2,2.3 -0.3,5.9 0.5,8.9c-6,11.7 -20.5,13.4 -32.6,12.5c-7.5,-0.6 -22.7,-1.4 -29.3,-8c2.3,-1.4 3.5,-5.4 3.7,-7.5c4.8,-68.4 7.9,-137 9.1,-205.5c0.1,-3.3 -1,-10.9 -5.5,-11c-4.6,-0.1 -5.4,8.1 -5.5,11c-1.2,66.6 -4.1,133.2 -8.7,199.7c-0.1,1 -0.1,2.2 -0.1,3.5c-0.5,0.2 -1,0.4 -1.4,0.7c-2.6,1.7 -5.3,5.1 -5.4,8.4c-0.9,19.3 28.3,21 41.9,20.9c16,-0.1 30.6,-6.8 39.3,-19.6c2.9,-0.7 4.4,-5.6 4.6,-8c0,-0.2 0,-0.5 0.1,-0.7c0.4,-1.1 0.5,-2.2 0.3,-3.1c5.9,-67.1 3.4,-134.7 10,-201.8c0.3,-4 0.5,-11.7 -3.9,-13.7Z" style="fill-rule:nonzero;"/><g><path d="M230.7,228.3c-1.4,-3.8 -4.4,-5.5 -7.9,-6.7c-3,-1 -6,-1 -8.9,-2.3c-2.8,-1.3 -5.1,-3.6 -6.2,-6.6c-0.7,-1.8 -2.9,0.9 -2.5,2.2l0,0.1c1.7,4.4 4.1,8.1 7.4,11.3c2.6,2.5 5.2,4.7 6.6,8.2c0.5,1.3 0.7,2 0.4,3.4c-0.3,1.3 -0.6,2.6 -0.9,3.9c-0.5,2.3 -0.8,4.6 -0.9,7c0,4.6 2.1,8.4 5,11.6c0.3,0.4 0.7,0.4 1.1,0.1c0.8,0.1 2.2,-2.1 1.8,-3.2c0.3,0.6 0,-0.1 -0.1,-0.3c-0.2,-0.6 -0.2,-1 -0.2,-1.7c-0.1,-2.3 0.6,-4.6 1.5,-6.6c0.8,-1.7 1.8,-3.3 2.8,-4.8c0.6,-0.9 1.6,-1.7 2,-2.8c0.3,-1 0.2,-2.2 0.2,-3.2c0.1,-3.1 -0.1,-6.5 -1.2,-9.6Zm-7.7,26c0,0.2 -0.1,0.4 -0.1,0.6c-1.7,-2.6 -2.7,-5.4 -2.5,-8.8c0.1,-2.3 0.7,-4.7 1.2,-6.9c0.3,-1.3 0.9,-2.8 0.9,-4.1c0,-1.1 -0.6,-2.3 -0.9,-3.3c-1.3,-3.4 -3.6,-5.7 -6.2,-8c-0.1,-0.1 -0.2,-0.2 -0.4,-0.4c1.4,0.4 2.8,0.7 4.2,0.8c1.2,0.1 2.4,0.6 3.5,1.1c2.1,0.8 3.9,2 5.1,4.1c1.8,3.3 1.7,7.6 1.6,11.3c-3,4.1 -5.7,8.6 -6.4,13.6Z" style="fill-rule:nonzero;"/><path d="M193.9,296.8c-0.9,-1 -1.8,-2 -2.7,-2.9c-0.9,-1 -1.2,-1.8 -1.4,-3.1c-0.6,-3.8 0.6,-6.9 1.6,-10.4c1.3,-4.5 1.4,-8.9 0.7,-13.5l0,-0.1c-0.2,-1.3 -3.5,-2.6 -3.2,-0.7c0.6,3.2 -0.3,6.3 -2.1,8.9c-1.8,2.6 -4.5,4.2 -6.5,6.5c-2.5,2.8 -4.2,5.7 -3.5,9.8c0.6,3.2 2.1,6.2 3.8,9c0.5,0.9 1,2 1.8,2.6c0.9,0.7 2.1,1 3.1,1.4c1.7,0.8 3.4,1.7 4.9,2.7c1.8,1.3 3.6,2.9 4.6,4.9c0.3,0.5 0.5,0.9 0.6,1.5c0,0.2 0.2,1 0.1,0.3c0.1,1.2 2.4,2.3 3.1,1.9c0.4,0 0.8,-0.2 0.9,-0.7c0.9,-4.3 0.8,-8.6 -1.5,-12.5c-1.2,-2 -2.7,-3.9 -4.3,-5.6Zm-9.7,4.5c-2,-3.1 -4.2,-6.9 -4.3,-10.6c-0.1,-2.4 0.9,-4.3 2.3,-6.1c0.8,-0.9 1.5,-2 2.5,-2.7c1.2,-0.8 2.3,-1.8 3.3,-2.8c0,0.2 -0.1,0.3 -0.1,0.5c-1.1,3.3 -1.9,6.5 -1.4,10c0.2,1 0.3,2.4 0.8,3.3c0.6,1.1 1.9,2.1 2.8,3.1c1.6,1.7 3.2,3.4 4.5,5.4c1.8,2.9 2.4,5.8 2.2,8.8c-0.1,-0.2 -0.3,-0.3 -0.4,-0.5c-3.1,-3.9 -7.6,-6.5 -12.2,-8.4Z" style="fill-rule:nonzero;"/><path d="M321.2,310c-2.1,-2.3 -4.7,-3.9 -6.5,-6.5c-1.8,-2.5 -2.6,-5.7 -2.1,-8.9c0.3,-1.9 -3,-0.7 -3.2,0.7l0,0.1c-0.7,4.7 -0.6,9.1 0.7,13.5c1,3.5 2.2,6.7 1.6,10.4c-0.2,1.3 -0.5,2.1 -1.4,3.1c-0.9,1 -1.8,1.9 -2.7,2.9c-1.6,1.7 -3.1,3.6 -4.2,5.6c-2.3,3.9 -2.4,8.3 -1.5,12.5c0.1,0.5 0.5,0.7 0.9,0.7c0.7,0.5 3,-0.7 3.1,-1.9c-0.1,0.7 0.1,-0.1 0.1,-0.3c0.2,-0.6 0.4,-1 0.6,-1.5c1.1,-2 2.8,-3.7 4.6,-4.9c1.5,-1.1 3.2,-2 4.9,-2.7c1,-0.5 2.2,-0.7 3.1,-1.4c0.8,-0.7 1.3,-1.8 1.8,-2.6c1.7,-2.8 3.2,-5.8 3.8,-9c0.6,-4.1 -1.1,-7 -3.6,-9.8Zm-4,20c-4.6,1.9 -9.1,4.4 -12.3,8.4c-0.1,0.2 -0.3,0.3 -0.4,0.5c-0.2,-3.1 0.4,-6 2.2,-8.8c1.3,-2 2.9,-3.7 4.5,-5.4c0.9,-0.9 2.2,-1.9 2.8,-3.1c0.5,-0.9 0.7,-2.3 0.8,-3.3c0.6,-3.6 -0.3,-6.7 -1.4,-10c-0.1,-0.2 -0.1,-0.3 -0.1,-0.5c1,1 2.1,2 3.3,2.8c1,0.7 1.7,1.8 2.5,2.7c1.5,1.8 2.4,3.7 2.3,6.1c0,3.7 -2.2,7.4 -4.2,10.6Z" style="fill-rule:nonzero;"/><path d="M284.2,240.3c-0.8,0.4 -1.2,1.4 -1.2,2.3c-0.1,2.7 -0.7,3.5 -2.9,4.9c-3.6,2.4 -8.1,4.7 -10.6,8.4c-3.3,4.9 -1.3,10.8 2.8,14.4c0.1,0.1 0.2,0.2 0.3,0.2c0.5,0.2 1,-0.1 1.4,-0.7c0.5,-0.6 0.8,-1.3 1.2,-2c1.2,-2.7 1.7,-5.7 2.3,-8.6c1.7,-1.6 3.4,-3.2 5,-4.9c1.1,-1.1 2.2,-2.3 2.8,-3.8c0.5,-1.1 0.5,-2.3 0.5,-3.4c0,-2 -0.2,-4 -0.1,-6c-0.2,-0.9 -0.9,-1.2 -1.5,-0.8Zm-1.2,9.4c0,0.3 -0.1,0.4 0,0.3c-0.2,0.5 -0.1,0.3 -0.5,0.8c-0.8,1.1 -1.9,2 -2.9,2.9c-0.7,0.7 -1.4,1.3 -2.1,2c-0.8,0.8 -2,1.7 -2.4,2.8c-0.7,2.1 -0.9,4.5 -1.5,6.6c-0.1,0.4 -0.3,0.9 -0.4,1.3c-0.9,-1 -1.8,-2.3 -2.3,-3.5c-0.6,-1.2 -0.9,-2.8 -0.5,-4.1c0.6,-2.3 3,-3.7 4.8,-5c2.5,-1.8 5.5,-3.2 7.7,-5.5c0.1,-0.1 0.1,-0.2 0.2,-0.2c0,0.6 0,1.1 -0.1,1.6Z" style="fill-rule:nonzero;"/><path d="M209.8,274.3c-0.8,-2.8 -2.3,-5.6 -3.7,-8.2c0.3,-2.3 0.6,-4.6 0.8,-6.9c0.1,-1.6 0.2,-3.1 -0.2,-4.7c-0.3,-1.1 -1,-2.1 -1.8,-3c-1.3,-1.5 -2.6,-3 -3.8,-4.6c-0.5,-0.6 -1.2,-0.5 -1.5,0.2c-0.3,0.8 -0.1,1.8 0.5,2.6c1.7,2.2 1.6,3.2 0.8,5.7c-1.3,4.1 -3.3,8.7 -2.9,13.2c0.6,5.9 5.8,9.2 11.2,9.4c0.1,0 0.2,0 0.3,0c0.5,-0.1 0.7,-0.7 0.6,-1.5c0.1,-0.6 -0.1,-1.4 -0.3,-2.2Zm-9.2,-4c-1,-2.2 0,-4.8 0.6,-6.9c0.8,-3 2.3,-6 2.6,-9.1c0,-0.1 0,-0.2 0,-0.3c0.4,0.4 0.7,0.9 0.9,1.3c0.1,0.2 0.2,0.4 0.1,0.2c0.1,0.5 0.1,0.3 0.1,0.9c0,1.4 -0.2,2.7 -0.4,4.1c-0.1,0.9 -0.2,1.9 -0.3,2.8c-0.1,1.2 -0.5,2.6 -0.1,3.7c0.7,2.1 2.1,4 3,6.1c0.2,0.4 0.3,0.9 0.5,1.3c-1.4,-0.2 -2.8,-0.7 -4,-1.2c-1.3,-0.7 -2.5,-1.7 -3,-2.9Z" style="fill-rule:nonzero;"/></g><path d="M294.7,300.3c-2.4,-7.7 -5.9,-15.6 -11.3,-21.6c-1.3,-1.4 -2.7,-2.8 -4.2,-3.9c-1.5,-1.1 -3.3,2.4 -2.8,3.6c1.8,4.4 2.7,9 2.5,13.8c-0.2,3.8 -0.9,7.5 -1.9,11.2c-1.1,-4.6 -3.3,-8.8 -5.7,-12.9c-4,-6.7 -8.1,-13.1 -9.7,-20.9c-2.2,-10.5 2.7,-20.3 4.8,-30.4c1.1,-5.2 1.7,-10.5 2.2,-15.8c0.1,-1.5 -1.4,-1.4 -2.2,-0.7c-12.4,10 -24.3,21.8 -31.6,36.6c-5.1,10.4 -7.1,21.8 -7.8,33.4c-0.1,1.6 -0.2,3.2 -0.2,4.8c-0.8,-1.3 -1.4,-2.7 -1.9,-3.9c-1.3,-2.9 -2.2,-6.1 -2.8,-9.2c-0.3,-1.5 -2,-0.5 -2.5,0.2c-7.9,10.8 -14.5,23.5 -14.9,37.5c-0.3,9.6 3,18.8 8.5,26.3c7.3,9.9 18.3,17.5 29.4,22c0.1,0 0.2,0.1 0.4,0.1c1.6,0.6 3.9,-2.7 2.6,-4c-4.9,-5.3 -9.3,-11.6 -10.9,-18.9c-1,-4.7 -0.2,-9.6 1.8,-13.4c3,-5.9 8.3,-10.5 14,-13.7c0.1,-0.1 0.2,-0.1 0.4,-0.2c4.7,1.3 8.9,3.9 11.3,8.4c2.2,4 2.4,8.8 2.1,13.3c-0.3,4.7 -1.6,9.3 -3,13.7c-0.7,2 -1.4,4 -2.2,6c-0.3,0.8 -0.7,1.6 -1,2.4c-0.1,0.2 -0.2,0.4 -0.2,0.5l0,0.1c-0.2,0.4 -0.3,0.7 -0.5,1.1c-0.5,1 -1,2 -1.5,3c-0.5,1 -0.9,3.2 0.8,3c11.4,-1.9 22.3,-6.6 30.3,-15.6c6.5,-7.4 10,-17.2 11,-27c0.8,-9.9 -0.4,-19.7 -3.3,-28.9Zm-1.5,37.5c-1.1,4.3 -2.9,8.6 -5.3,12c-6.2,9.3 -16.2,14.3 -26.6,16.7c-0.5,0.1 -1,0.2 -1.5,0.3c2.1,-4.3 3.8,-8.8 5.1,-13.4c2.7,-9.1 4.7,-20.1 0,-28.8c-2.7,-4.9 -7.5,-7.6 -12.5,-9l-0.1,0l-0.1,0c-0.5,-0.1 -0.9,0.1 -1.3,0.5c-4.7,2.4 -9,6.1 -12.5,10.1c-7,8.1 -9.5,18.9 -5.5,29.1c0.9,2.2 2,4.3 3.2,6.3c-6.4,-3.7 -12.5,-8.2 -17.4,-13.9c-5.8,-6.6 -9.9,-14.9 -10.5,-24c-0.8,-12.3 4.6,-24 11.3,-33.8c0.6,2.6 1.5,5.1 2.6,7.5c1.2,2.7 2.7,5.7 5.1,7.4c1.5,1 2.8,-2.1 2.9,-3.1c0.4,-10.8 0.7,-21.8 3.9,-32.1c4.2,-13.7 13.1,-24.9 23.1,-34.4c2.6,-2.4 5.2,-4.7 7.9,-7c-0.7,6.8 -1.9,13.5 -3.8,20c-1.3,4.7 -3,9.4 -3.4,14.4c-0.6,6.2 0.8,12.4 3.2,18.1c3,7 7.6,12.9 10.8,19.7c1.9,3.9 2.9,8.1 2.6,12.5c0,0.8 0.5,1.4 1.3,1.2c0.9,-0.2 1.6,-1.2 1.9,-2.1c2.2,-6.8 4.2,-13.8 4.7,-21c0.2,-2.3 0.1,-4.7 -0.3,-6.9c3,3.7 5.3,8.2 7.1,12.5c3.6,8.5 5.6,17.8 5.7,27.1c0,4.8 -0.5,9.5 -1.6,14.1Z" style="fill-rule:nonzero;"/><g><path d="M206.1,332.9c-1.9,2.5 -5.1,4.3 -7.6,6.2c-2.5,1.9 -5,4 -7.7,5.7l-0.1,0c-3.9,1.6 -7.9,3.1 -11.4,5.4c-3.3,2.1 -6.3,4.6 -9.8,6.5c-7.6,4.3 -15.5,8.2 -23.2,12.3c-3.3,1.7 -2.1,12.5 1.5,10.6c7.7,-4.1 15.6,-8 23.2,-12.3c3.4,-1.9 6.4,-4.4 9.8,-6.5c3.2,-2 6.7,-3.5 10.2,-4.9c0.3,0 0.6,0 0.9,-0.3c0.1,-0.1 0.3,-0.2 0.4,-0.3c0.2,-0.1 0.4,-0.2 0.5,-0.4c2.6,-1.8 5.1,-3.8 7.6,-5.8c2.7,-2.1 6.3,-4.2 8.3,-6.9c1.5,-2 1.7,-5.2 1,-7.5c-0.3,-1.3 -2,-3.8 -3.6,-1.8Z" style="fill-rule:nonzero;"/><path d="M304.9,330.3c-2.8,-0.8 -5.7,-1.3 -8.6,-1.6c-0.9,-0.1 -1,2.7 0,2.8c2.8,0.3 5.5,0.8 8.2,1.5c1.1,0.3 1.2,-2.4 0.4,-2.7Z" style="fill-rule:nonzero;"/><path d="M328.4,334.3c-4.7,-1.5 -9.5,-2.2 -14.4,-2c-1,0 -0.9,2.8 0,2.8c4.8,-0.2 9.5,0.5 14.1,1.9c1,0.3 1.1,-2.4 0.3,-2.7Z" style="fill-rule:nonzero;"/></g><g><path d="M257.8,354.1c0,0 -19.2,-11.6 -22,17.7c-24,-13.8 -36.4,-26 -36.4,-26c0,0 1.1,-24.8 17.8,-13.4c16.8,11.5 40.6,21.7 40.6,21.7Z" style="fill:#fff;fill-rule:nonzero;"/><path d="M258.4,353.2c-3.1,-1.9 -7.1,-2.7 -10.6,-2.1c-9.3,1.6 -11.9,13.2 -12.6,20.9c0.4,-0.4 0.8,-0.7 1.3,-1.1c-11.3,-6.5 -22.3,-13.8 -32.3,-22.3c-1,-0.9 -2,-1.8 -3,-2.7c-0.2,-0.2 -0.5,-0.4 -0.7,-0.7c-0.3,-0.3 -0.1,-0.2 -0.1,0.1c0.1,-1.7 0.4,-3.7 0.8,-5.6c0.7,-2.9 1.8,-6.2 4.2,-8.2c3.4,-2.7 8,-0.6 11.2,1.5c11.2,7.3 22.9,13.6 35,19.2c1.9,0.9 3.9,1.8 5.9,2.6c0.6,0.5 1.6,-1.3 0.9,-1.6c-8.3,-3.6 -16.4,-7.6 -24.4,-11.9c-3.2,-1.8 -6.4,-3.6 -9.6,-5.5c-2.9,-1.8 -5.7,-3.9 -8.7,-5.5c-3.3,-1.8 -7.3,-2.6 -10.6,-0.3c-4.7,3.4 -6,10.3 -6.4,15.7c-0.1,1.2 1.1,1.9 2,2.7c3,2.7 6.2,5.3 9.4,7.8c8,6.1 16.4,11.6 25.2,16.6c0.6,0.3 1.2,-0.6 1.3,-1.1c0.7,-7.2 2.7,-17.7 11.5,-18.8c3.1,-0.4 6.6,0.6 9.3,2.2c0.6,0.3 1.7,-1.5 1,-1.9Z" style="fill-rule:nonzero;"/></g><g><path d="M257.3,352.9c0,0 5.9,30.5 -22.3,17.7c0,0 1.5,-26.6 22.3,-17.7Z" style="fill:#fff;fill-rule:nonzero;"/><path d="M256.5,353.5c0.7,3.7 0.7,8 -0.2,11.8c-0.6,2.7 -2,5.1 -4.5,6.4c-3.8,2 -8.6,0.8 -12.4,-0.4c-1.3,-0.5 -2.7,-1 -4,-1.6c0.1,0.2 0.2,0.3 0.2,0.5c0,-0.4 0,-0.3 0.1,-0.9c0.1,-0.9 0.2,-1.8 0.4,-2.7c0.5,-2.6 1.3,-5.3 2.5,-7.7c1.4,-2.6 3.3,-4.9 6.1,-6.1c3.8,-1.7 8.3,-0.6 12,0.9c0.8,0.3 1.8,-1.5 1.1,-1.8c-4,-1.7 -8.5,-2.7 -12.6,-1c-3.2,1.3 -5.6,3.9 -7.2,6.8c-2.2,3.9 -3.5,8.7 -3.7,13.2c0,0.2 0.1,0.4 0.2,0.5c7,3.1 16.8,5.8 21.6,-2.1c2.7,-4.5 2.8,-10.4 2.2,-15.4c-0.1,-0.6 -0.1,-1.1 -0.3,-1.7c-0.2,-1 -1.6,0.5 -1.5,1.3Z" style="fill-rule:nonzero;"/></g><g><path d="M261,349.5c0,0 5.4,27.8 -20.3,16.1c0,0 1.4,-24.2 20.3,-16.1Z" style="fill:#fff;fill-rule:nonzero;"/><path d="M260.5,349.9c1,5.3 1.1,13.5 -4,16.7c-2.1,1.3 -4.7,1.4 -7.1,1.1c-1.7,-0.2 -3.4,-0.7 -5.1,-1.3c-0.6,-0.2 -3.2,-1 -3.1,-1.2c0.3,-3.3 1.1,-6.8 2.6,-9.8c1.2,-2.5 3,-4.7 5.6,-6c3.6,-1.7 7.8,-0.7 11.3,0.7c0.5,0.2 1.2,-1 0.7,-1.2c-3.6,-1.5 -7.6,-2.4 -11.3,-0.9c-2.8,1.1 -5,3.4 -6.5,6c-2,3.5 -3.2,7.9 -3.4,12c0,0.1 0,0.3 0.2,0.3c4.3,1.9 9.6,3.9 14.4,2.4c3,-0.9 5,-3.4 6.1,-6.2c1.6,-4.1 1.5,-9 0.7,-13.3c-0.2,-0.8 -1.2,0.2 -1.1,0.7Z" style="fill-rule:nonzero;"/></g><g><path d="M257.4,353.2c0,0 3.4,17.4 -12.7,10.1c0,0 0.9,-15.2 12.7,-10.1Z" style="fill:#fff;fill-rule:nonzero;"/><path d="M256.9,353.6c0.4,1.9 0.4,3.9 0.1,5.7c-0.6,4.2 -3.7,5.6 -7.7,4.8c-0.4,-0.1 -4.2,-1.2 -4.2,-1.2c0,-0.3 0.1,-0.5 0.1,-0.8c0.2,-1.4 0.5,-2.8 1,-4.1c0.6,-1.8 1.7,-3.4 3.3,-4.5c2.3,-1.5 5.2,-0.8 7.5,0.1c0.5,0.2 1.2,-1 0.7,-1.2c-4.4,-1.8 -8.6,-1.1 -11.2,3.1c-1.4,2.3 -2.2,5.2 -2.3,7.9c0,0.1 0,0.3 0.2,0.3c4.7,2.1 10.7,3.2 13,-2.5c1.1,-2.6 1.1,-5.9 0.5,-8.7c-0.1,-0.4 -1,0.6 -1,1.1Z" style="fill-rule:nonzero;"/></g><path d="M209.3,335.9c3.6,2.4 7.3,4.7 11.1,6.8c6.1,3.5 12.6,7.2 19.4,9c0.4,0.1 0.8,-0.8 0.4,-1c-6.8,-1.8 -13.2,-5.5 -19.3,-9c-3.8,-2.2 -7.5,-4.4 -11.1,-6.8c-0.3,-0.2 -0.8,0.7 -0.5,1Z" style="fill-rule:nonzero;"/><path d="M210.4,347.9c0.7,-0.2 2.1,0.5 2.8,0.8c1.5,0.7 2.9,1.5 4.3,2.4c1.1,0.7 2.1,1.4 3.1,2.1c1.2,0.9 2.6,1.5 4,2.2c2.8,1.5 5.6,2.9 8.4,4.4c0.4,0.2 0.9,-0.7 0.5,-0.9c-3.1,-1.6 -6.2,-3.2 -9.2,-4.8c-3.8,-2 -7.1,-4.7 -11,-6.4c-0.7,-0.3 -1.9,-0.9 -2.7,-0.7c-0.4,0 -0.7,1 -0.2,0.9Z" style="fill-rule:nonzero;"/><g><path d="M276.2,334c16.6,-11.4 17.7,13.3 17.7,13.3c0,0 -12.3,12.1 -36.2,25.8c-2.8,-29.2 -21.9,-17.6 -21.9,-17.6c0,0 23.8,-10.1 40.4,-21.5Z" style="fill:#fff;fill-rule:nonzero;"/><path d="M236.4,356.4c2.6,-1.6 6.2,-2.5 9.2,-2.1c8.7,1.1 10.7,11.5 11.4,18.7c0,0.5 0.7,1.4 1.2,1.1c8.7,-5 17.1,-10.4 25,-16.5c3.2,-2.5 6.4,-5 9.4,-7.7c0.9,-0.8 2.1,-1.4 2,-2.6c-0.4,-5.4 -1.8,-12.3 -6.4,-15.6c-3.2,-2.4 -7.2,-1.6 -10.5,0.3c-3,1.7 -5.7,3.7 -8.6,5.5c-3.1,1.9 -6.3,3.7 -9.5,5.5c-7.9,4.3 -16,8.3 -24.2,11.9c-0.8,0.1 0.2,1.9 1,1.5c2,-0.8 3.9,-1.7 5.8,-2.6c12,-5.6 23.7,-11.8 34.8,-19.1c3.1,-2 7.7,-4.2 11.1,-1.5c2.4,2 3.5,5.2 4.2,8.1c0.4,1.8 0.8,3.8 0.8,5.6c0,-0.4 0.2,-0.4 -0.1,-0.1c-0.2,0.2 -0.5,0.4 -0.7,0.7c-1,0.9 -2,1.8 -3,2.7c-9.9,8.4 -20.8,15.7 -32.1,22.2c0.4,0.4 0.8,0.7 1.2,1.1c-0.8,-7.7 -3.3,-19.2 -12.5,-20.8c-3.5,-0.6 -7.5,0.3 -10.6,2.1c-0.7,0.3 0.4,2.1 1.1,1.6Z" style="fill-rule:nonzero;"/></g><g><path d="M257.7,373.1c-27.6,12.5 -21.8,-17.3 -21.8,-17.3c20.3,-8.7 21.8,17.3 21.8,17.3Z" style="fill:#fff;fill-rule:nonzero;"/><path d="M235.2,355.2c-0.1,0.6 -0.2,1.1 -0.2,1.7c-0.6,4.9 -0.5,10.7 2.1,15.1c4.7,7.7 14.3,5.1 21.2,2.1c0.2,-0.1 0.2,-0.3 0.2,-0.5c-0.3,-4.4 -1.5,-9.1 -3.6,-12.9c-1.6,-2.9 -3.9,-5.4 -7.1,-6.7c-4.1,-1.6 -8.5,-0.7 -12.4,1c-0.8,0.3 0.2,2.1 1,1.8c3.6,-1.5 8,-2.6 11.7,-0.9c2.7,1.2 4.6,3.4 5.9,6c1.2,2.3 2,4.9 2.5,7.5c0.2,0.9 0.3,1.7 0.4,2.6c0.1,0.5 0.1,0.4 0.1,0.8c0.1,-0.2 0.2,-0.3 0.2,-0.5c-1.3,0.6 -2.6,1.1 -3.9,1.6c-3.7,1.3 -8.4,2.4 -12.1,0.4c-2.4,-1.3 -3.8,-3.7 -4.4,-6.3c-0.9,-3.7 -0.9,-7.9 -0.2,-11.5c0.2,-0.8 -1.2,-2.3 -1.4,-1.3Z" style="fill-rule:nonzero;"/></g><g><path d="M253.6,370.4c-19.2,8.7 -15.1,-12 -15.1,-12c14.1,-6.1 15.1,12 15.1,12Z" style="fill:#fff;fill-rule:nonzero;"/><path d="M238.1,358c-0.6,3.2 -0.6,6.9 0.5,9.9c0.8,2.1 2.3,3.9 4.5,4.6c3.6,1.1 7.5,-0.3 10.7,-1.8c0.1,0 0.1,-0.2 0.1,-0.2c-0.2,-3 -1,-6.3 -2.5,-8.9c-1.1,-1.9 -2.7,-3.7 -4.8,-4.5c-2.8,-1.1 -5.8,-0.4 -8.4,0.7c-0.4,0.2 0.1,1.1 0.5,0.9c2.6,-1.1 5.7,-1.8 8.4,-0.5c1.9,0.9 3.3,2.6 4.2,4.4c1.1,2.2 1.7,4.8 1.9,7.3c0,0.2 -1.9,0.8 -2.3,0.9c-1.2,0.4 -2.5,0.8 -3.8,1c-1.8,0.2 -3.7,0.2 -5.3,-0.8c-3.8,-2.4 -3.7,-8.5 -3,-12.4c0.1,-0.3 -0.6,-1.1 -0.7,-0.6Z" style="fill-rule:nonzero;"/></g><g><path d="M250.6,368.6c-12,5.4 -9.5,-7.5 -9.5,-7.5c8.9,-3.8 9.5,7.5 9.5,7.5Z" style="fill:#fff;fill-rule:nonzero;"/><path d="M240.8,360.8c-0.4,2.1 -0.4,4.5 0.4,6.4c1.8,4.2 6.2,3.4 9.7,1.8c0.1,0 0.1,-0.2 0.1,-0.2c-0.1,-2 -0.7,-4.2 -1.7,-5.9c-1.9,-3.1 -5.1,-3.6 -8.4,-2.3c-0.4,0.2 0.1,1.1 0.5,0.9c1.7,-0.7 3.9,-1.2 5.6,-0.1c1.2,0.8 2,2 2.4,3.3c0.4,1 0.6,2 0.7,3.1c0,0.2 0.1,0.4 0.1,0.6c0,0 -2.8,0.8 -3.1,0.9c-3,0.6 -5.2,-0.5 -5.7,-3.6c-0.2,-1.4 -0.2,-2.9 0.1,-4.3c0.1,-0.4 -0.6,-1.1 -0.7,-0.6Z" style="fill-rule:nonzero;"/></g><path d="M284.1,337.4c0.4,-0.2 -0.2,-1.1 -0.5,-0.9c-3.6,2.4 -7.3,4.6 -11,6.8c-6,3.5 -12.4,7.1 -19.1,8.9c-0.5,0.1 0,1.1 0.4,0.9c6.8,-1.8 13.2,-5.5 19.3,-9c3.6,-2 7.3,-4.3 10.9,-6.7Z" style="fill-rule:nonzero;"/><path d="M283,349.3c0.5,0.1 0.2,-0.8 -0.2,-0.9c-0.8,-0.2 -2,0.4 -2.7,0.7c-3.9,1.7 -7.2,4.4 -10.9,6.4c-3.1,1.6 -6.1,3.2 -9.2,4.8c-0.4,0.2 0.1,1.1 0.5,0.9c2.8,-1.5 5.6,-2.9 8.4,-4.4c1.3,-0.7 2.7,-1.3 3.9,-2.1c1,-0.7 2,-1.4 3.1,-2.1c1.4,-0.9 2.8,-1.7 4.3,-2.4c0.8,-0.3 2.1,-1 2.8,-0.9Z" style="fill-rule:nonzero;"/><path d="M394.8,544.6c-0.7,-20.5 -0.4,-41 0.9,-61.5c0.1,-1.6 -0.5,-5.5 -2.8,-5.5c-2.3,0 -2.7,4 -2.8,5.5c0,0.3 0,0.6 -0.1,0.9c-2,-2.7 -4,-3.8 -6.2,-1.1c-4.3,-1.5 -8.2,-4.3 -13.2,-2.3c-0.1,-0.4 -0.2,-0.7 -0.3,-1.1c-0.5,-1.9 -2,-3.5 -3.8,-2c-1.8,1.5 -1.5,5.5 -1,7.5c4.2,14.9 7.4,30.1 9.5,45.5c0.9,6.3 1.1,13.1 3.9,19c2.7,5.7 8.6,5.1 14.1,5.3c3.4,0.1 4,-7.8 1.8,-10.2Z" style="fill-rule:nonzero;"/><path d="M482.1,496.9c4.4,-0.8 9.1,-1 10.5,-5.8c1.5,-4.9 0.9,-10.3 0.8,-15.4c-0.2,-12.4 0.6,-24.7 2.1,-37c0.2,-1.6 -0.1,-4.8 -1.7,-5.8c-1.6,-1 -2.5,0.4 -2.7,2c0,0.3 -0.1,0.6 -0.1,0.9c-4.1,-1 -6.9,1.7 -10.1,3.4c-2,-1.9 -3.5,-0.8 -4.7,1.6c-0.1,-0.2 -0.1,-0.5 -0.2,-0.7c-0.3,-1.2 -1,-4.3 -2.8,-4c-1.7,0.3 -1.8,3.4 -1.5,4.7c3.4,16 6.1,32.1 8,48.3c-1.4,2.1 -0.1,8.2 2.4,7.8Z" style="fill-rule:nonzero;"/><path d="M124.5,450.3c-0.9,0.4 -17.5,-4 -19.8,-4c-2.3,0 -2.7,4 -2.8,5.5c-0.1,18.6 1.2,37.2 3.9,55.6c-0.2,1.9 0,5.6 2,6.3c0.7,0.2 1.3,0.1 1.7,-0.2c2,-0.4 4.1,1 4.2,-0.4c0.1,-1.6 0.8,-8 1,-9.6c0.3,-1.8 0.3,-3.6 0.6,-5.4c0.5,-2.7 1.4,-6.9 1.4,-7.1c0.5,-2.4 1.5,-5.1 2.2,-7.5c1.1,-4.3 2.7,-7.5 4,-11.7c1.2,-3.8 1.9,-7.2 3,-10.8c1.1,-3.6 2.3,-12.5 -1.4,-10.7Z" style="fill-rule:nonzero;"/></g></svg>