<?xml version="1.0" encoding="utf-8"?>
<!-- Generator: Adobe Illustrator 23.0.1, SVG Export Plug-In . SVG Version: 6.00 Build 0)  -->
<svg version="1.1" id="Layer_2_copy" xmlns="http://www.w3.org/2000/svg" xmlns:xlink="http://www.w3.org/1999/xlink" x="0px"
	 y="0px" viewBox="0 0 566.93 566.93" enable-background="new 0 0 566.93 566.93" xml:space="preserve">
<path d="M288.505,543.381c0-19.772,0-39.544,0-59.316c0-2.609-9.08-3.596-9.08-1.425c0,19.772,0,39.544,0,59.316
	C279.425,544.565,288.505,545.552,288.505,543.381L288.505,543.381z"/>
<path d="M286.908,406.692c0.216-14.348,0.432-28.695,0.648-43.043c0.029-1.953-6.51-0.564-6.534,1.056
	c-0.216,14.348-0.432,28.695-0.648,43.043C280.344,409.701,286.884,408.313,286.908,406.692L286.908,406.692z"/>
<path d="M281.447,264.626c-0.843-7.42-1.159-14.842-0.951-22.291c0.031-1.113-4.491-1.375-4.519-0.347
	c-0.208,7.449,0.108,14.871,0.951,22.291C277.06,265.449,281.553,265.559,281.447,264.626L281.447,264.626z"/>
<path d="M282.996,322.781c-0.843-7.42-1.159-14.842-0.951-22.291c0.031-1.113-4.491-1.375-4.519-0.347
	c-0.208,7.449,0.108,14.871,0.951,22.291C278.609,323.604,283.102,323.714,282.996,322.781L282.996,322.781z"/>
<path d="M575.842,566.822c-3.116-2.77-7.604-4.567-12.233-5.456c-1.463-1.808-2.91-3.624-4.339-5.449
	c-6.449-8.235-12.716-16.564-18.959-24.902c-18.811-25.125-37.286-50.414-55.74-75.712c-21.955-30.098-43.818-60.239-65.693-90.375
	c-19.412-26.743-38.812-53.492-58.358-80.171c-11.349-15.491-22.431-31.192-34.592-46.281c-0.402-0.499-0.815-0.992-1.227-1.485
	c0.169-0.002-1.362-1.854-2.55-1.838c-1.995-0.774-4.56-1.148-4.052,0.058c-29.372,0.446-58.724,1.48-88.033,3.114
	c-0.5,0.028-1.03,0.78-1.154,1.326c-0.618,0.482-1.19,1.113-1.619,1.933c-0.808,1.54-1.821,3.045-3.212,5.048
	c-1.897,2.734-3.896,5.421-5.918,8.095c-5.943,7.859-12.133,15.596-18.355,23.311c-18.055,22.387-36.529,44.553-54.958,66.738
	c-21.742,26.174-43.513,52.333-65.06,78.613c-19.686,24.01-39.263,48.092-58.092,72.551C9.541,511.727-3.361,527.72-12.578,544.823
	c-0.623,1.157-1.215,2.324-1.753,3.509c-0.437,0.964-0.238,2.493,0.273,3.582c-0.582,1.135-1.146,2.274-1.669,3.421
	c-0.547,1.199-0.107,3.27,0.693,4.282c-0.55-0.004-1.101-0.006-1.651-0.01c-5.694-0.046-6.996,3.723-3.462,6.864
	c4.479,3.98,11.965,6.058,18.474,6.111c75.171,0.614,150.354,0.249,225.509-1.174c37.229-0.705,74.427-1.989,111.647-2.892
	c37.197-0.902,74.54,0.22,111.709,1.378c41.729,1.3,83.438,3.035,125.19,3.793C578.102,573.789,579.34,569.931,575.842,566.822z
	 M334.364,555.386c-37.19,0.253-74.4,2.001-111.584,2.769c-37.557,0.777-75.121,1.29-112.689,1.547
	c-41.071,0.281-82.144,0.245-123.214-0.073c0.166-0.213,0.331-0.489,0.491-0.84c5.648-12.386,15.373-23.901,23.884-35.065
	c14.349-18.822,29.364-37.312,44.465-55.743c31.59-38.557,64.023-76.659,95.475-115.29c5.859-7.197,11.696-14.41,17.302-21.738
	c3.14-4.105,6.491-8.262,8.841-12.717c0.654-1.24,0.224-3.409-0.638-4.366c6.921-8.393,13.825-16.796,20.672-25.229
	c10.816-13.321,22.524-26.634,31.432-40.892c0.557-0.891,3.93-6.814,4.424-7.753c28.738-1.548,57.515-2.527,86.312-2.934
	c10.695,12.662,19.953,26.247,29.625,39.411c9.157,12.462,18.271,24.945,27.366,37.437c-0.404,1.126-0.18,2.598,0.183,3.512
	c5.065,12.76,14.113,24.801,22.044,36.476c13.309,19.591,27.312,38.874,41.4,58.102c29.926,40.842,60.731,81.258,90.555,122.149
	c5.487,7.523,10.95,15.062,16.198,22.697c0.843,1.226,1.707,2.458,2.561,3.7C477.758,559.042,406.127,554.898,334.364,555.386z"/>
<path d="M96.728,413.201c-1.968-39.499-3.183-79.021-3.618-118.55c-0.435-39.6,0.406-79.203-0.175-118.801
	c-0.312-21.255-1.129-42.506-2.896-63.716c1.627-0.847,3.111-1.873,4.343-3.013c1.353-1.251,4.276-5.607-0.271-5.274
	c-1.839,0.135-3.679,0.269-5.518,0.404c-0.657-1.119-1.677-1.851-3.273-1.352c-0.86,0.269-1.507,0.909-1.997,1.738
	c-14.963,1.095-29.925,2.191-44.888,3.286c-17.626,1.29-36.062,3.981-53.752,2.453c-4.157-0.359-9.217,2.843-11.765,5.199
	c-1.844,1.705-3.967,4.908,0.271,5.274c17.692,1.528,36.123-1.163,53.752-2.453c18.399-1.347,36.798-2.694,55.198-4.041
	c3.312,38.696,3.321,77.495,3.131,116.264c-0.195,39.728-0.038,79.447,1.069,119.166c0.625,22.427,1.505,44.848,2.621,67.262
	c0.091,1.824,0.917,6.774,4.426,5.678C96.735,421.68,96.833,415.317,96.728,413.201z"/>
<path d="M186.136,299.354c-2.146-28.514-3.261-57.08-3.216-85.647c0.044-27.597,0.976-55.256-2.488-82.753
	c0.831-0.43,1.576-0.952,2.129-1.521c0.649-0.667,2.163-2.748-0.135-2.637c-1.017,0.049-2.034,0.098-3.05,0.147
	c-0.486-0.483-1.084-0.38-1.625,0.078c-14.161,0.683-28.323,1.367-42.484,2.05c-15.071,0.727-30.434,2.21-45.53,1.37
	c-2.627-0.146-9.483,5.029-5.747,5.237c15.097,0.84,30.458-0.643,45.53-1.37c15.642-0.755,31.284-1.51,46.926-2.265
	c3.636,28.141,2.559,56.436,2.586,84.68c0.027,28.205,1.102,56.401,3.22,84.554c0.076,1.011,0.413,3.264,2.213,2.839
	C186.116,303.727,186.206,300.297,186.136,299.354z"/>
<path d="M250,149.457c-0.037-1.235-0.773-2.086-2.275-1.609c-0.415,0.132-0.75,0.415-1.021,0.776
	c-9.092-2.268-18.293-4.391-27.79-5.125c-11.195-0.865-24.014,2.638-34.655-0.737c-1.272-0.403-4.152-1.153-5.335-0.213
	c-1.093,0.868-0.494,1.735,0.94,2.19c10.145,3.218,19.928,2.168,30.523,1.691c12.192-0.55,23.843,2.246,35.358,5.141
	c-0.009,0.141-0.014,0.274-0.012,0.387c0.263,13.727,0.525,27.455,0.788,41.182c0.262,13.694,1.305,27.568-0.293,41.224
	c-0.501,4.283,3.847,2.121,4.201-0.906c1.598-13.655,0.656-27.48,0.394-41.171c-0.257-13.42-0.513-26.839-0.77-40.259
	C252.213,151.66,253.367,150.362,250,149.457z"/>
<g>
	<path d="M67.85,164.737c-0.13-0.763-0.592-1.376-1.8-0.915c-0.024,0.009-0.049,0.018-0.073,0.027
		c-0.78-0.217-1.366-0.117-1.508,0.479c-0.007,0.031-0.013,0.061-0.02,0.092c-15.557,5.808-31.846,10.057-48.76,12.372
		c-2.061,0.282-4.238,3.563-4.496,5.453c-0.12,0.023-0.243,0.056-0.369,0.103c-1.829,0.684-1.169,3.965-0.889,5.063
		c3.171,12.459,1.555,25.355,4.161,37.889c-0.268,2.397,2.423,6.183,4.436,5.201c14.222-6.938,29.466-12.164,45.646-15.234
		c0.305-0.058,0.531-0.197,0.713-0.376c0.722,1.176,1.885,2.231,3.157,2.906c1.022,0.542,3.839,1.43,3.557-0.502
		c-2.331-15.982-3.674-31.611,0.118-47.537C72.069,168.308,69.907,166.035,67.85,164.737z M60.78,208.495
		c-14.965,2.84-29.128,7.527-42.424,13.704c-2.098-12.413-1.033-25.037-4.173-37.375c-0.114-0.447-0.348-0.986-0.686-1.459
		c17.239-2.456,33.855-6.764,49.72-12.756c-2.125,13.08-1.28,26.024,0.503,39.177C62.901,208.882,61.86,208.29,60.78,208.495z"/>
	<path d="M67.85,263.895c-0.13-0.763-0.592-1.376-1.8-0.915c-0.024,0.009-0.049,0.018-0.073,0.027
		c-0.78-0.217-1.366-0.117-1.508,0.479c-0.007,0.031-0.013,0.061-0.02,0.092c-15.557,5.808-31.846,10.057-48.76,12.372
		c-2.061,0.282-4.238,3.563-4.496,5.453c-0.12,0.023-0.243,0.056-0.369,0.103c-1.829,0.684-1.169,3.965-0.889,5.063
		c3.171,12.459,1.555,25.355,4.161,37.889c-0.268,2.397,2.423,6.183,4.436,5.201c14.222-6.938,29.466-12.164,45.646-15.234
		c0.305-0.058,0.531-0.197,0.713-0.376c0.722,1.176,1.885,2.231,3.157,2.906c1.022,0.542,3.839,1.43,3.557-0.502
		c-2.331-15.982-3.674-31.611,0.118-47.537C72.069,267.466,69.907,265.192,67.85,263.895z M60.78,307.653
		c-14.965,2.84-29.128,7.527-42.424,13.704c-2.098-12.413-1.033-25.037-4.173-37.375c-0.114-0.447-0.348-0.986-0.686-1.459
		c17.239-2.456,33.855-6.764,49.72-12.756c-2.125,13.08-1.28,26.024,0.503,39.177C62.901,308.04,61.86,307.448,60.78,307.653z"/>
	<path d="M154.184,156.195c-0.121-0.051-0.291-0.047-0.529,0.044c-12.908,4.908-26.401,8.465-40.469,10.405
		c-1.495,0.206-3.112,3.569-1.744,3.38c14.295-1.972,28.028-5.535,41.152-10.525c0.216-0.082,0.44-0.258,0.654-0.483
		c-2.386,12.116-1.436,24.054,0.342,36.252c0.17,1.164,3.943,3.699,3.712,2.113c-1.873-12.849-2.901-25.38,0.12-38.187
		C157.676,158.12,155.181,156.148,154.184,156.195z"/>
	<path d="M111.549,204.241c-2.185-10.538-1.055-21.3-3.681-31.8c-0.664-2.653-2.575-0.508-2.124,1.293
		c2.533,10.127,1.318,20.572,3.43,30.752C109.659,206.826,112.046,206.636,111.549,204.241z"/>
	<path d="M115.472,207.559c11.394-5.54,23.55-9.705,36.495-12.18c1.46-0.279-0.041-3.703-1.699-3.386
		c-12.946,2.475-25.101,6.64-36.495,12.18C112.322,204.879,114.176,208.189,115.472,207.559z"/>
	<path d="M154.184,235.474c-0.121-0.051-0.291-0.047-0.529,0.044c-12.908,4.908-26.401,8.465-40.469,10.405
		c-1.495,0.206-3.112,3.569-1.744,3.38c14.295-1.972,28.028-5.535,41.152-10.525c0.216-0.082,0.44-0.258,0.654-0.483
		c-2.386,12.116-1.436,24.054,0.342,36.252c0.17,1.164,3.943,3.699,3.712,2.113c-1.873-12.849-2.901-25.38,0.12-38.187
		C157.676,237.398,155.181,235.426,154.184,235.474z"/>
	<path d="M150.268,271.272c-12.337,2.359-23.948,6.268-34.875,11.423c-1.965-10.275-0.968-20.749-3.525-30.976
		c-0.664-2.653-2.575-0.508-2.124,1.293c2.533,10.127,1.318,20.572,3.43,30.752c0.027,0.131,0.062,0.251,0.1,0.366
		c-0.234,1.188,1.159,3.212,2.198,2.707c11.394-5.54,23.55-9.705,36.495-12.18C153.427,274.378,151.926,270.955,150.268,271.272z"/>
	<path d="M205.286,164.733c8.899-1.253,17.396-3.459,25.585-6.547c0.303-0.114,0.638-0.582,0.804-0.993
		c-1.719,7.902-1.176,15.652-0.021,23.597c0.085,0.582,1.971,1.85,1.856,1.056c-1.17-8.054-1.769-15.786,0.08-23.817
		c0.148-0.645-1.68-1.937-1.814-1.357c-0.001,0.006-0.002,0.013-0.004,0.019c-0.024-0.152-0.133-0.225-0.371-0.135
		c-8.088,3.05-16.444,5.248-25.243,6.487C205.41,163.148,204.604,164.829,205.286,164.733z"/>
	<path d="M206.403,186.386c0.023,0.115,0.061,0.209,0.101,0.3c-0.19,0.579,0.539,1.683,1.081,1.421
		c7.136-3.444,14.643-6.014,22.727-7.585c0.731-0.142-0.022-1.854-0.849-1.693c-7.777,1.511-15.017,3.956-21.909,7.205
		c-1.245-6.475-0.688-13.06-2.239-19.51c-0.32-1.329-1.278-0.253-1.062,0.647C205.776,173.511,205.135,180.017,206.403,186.386z"/>
	<path d="M231.776,206.042c-0.001,0.006-0.002,0.013-0.004,0.019c-0.024-0.152-0.133-0.225-0.371-0.135
		c-8.088,3.05-16.444,5.248-25.243,6.487c-0.747,0.105-1.553,1.786-0.872,1.69c8.899-1.253,17.396-3.459,25.585-6.547
		c0.303-0.114,0.638-0.582,0.804-0.993c-1.719,7.902-1.176,15.652-0.021,23.597c0.085,0.582,1.971,1.85,1.856,1.056
		c-1.17-8.054-1.769-15.786,0.08-23.817C233.738,206.754,231.91,205.462,231.776,206.042z"/>
	<path d="M225.461,228.198c-6.389,1.241-12.414,3.116-18.184,5.545c-0.883-5.938-0.545-11.95-1.964-17.849
		c-0.32-1.329-1.278-0.253-1.062,0.647c1.403,5.832,0.99,11.805,1.899,17.683c-1.147,0.5-2.288,1.015-3.416,1.559
		c-0.726,0.351,0.199,2.007,0.849,1.693c0.973-0.47,1.954-0.919,2.941-1.356c0.373,0.758,1.25,0.567,1.067-0.456
		c5.932-2.539,12.131-4.493,18.718-5.773C227.042,229.749,226.289,228.038,225.461,228.198z"/>
</g>
<path d="M581.106,110.59c-17.692,1.528-36.123-1.163-53.752-2.453c-18.558-1.359-37.117-2.717-55.675-4.076
	c-4.192-0.307-9.184,2.812-11.765,5.199c-1.803,1.667-4,4.961,0.271,5.274c1.698,0.124,3.397,0.249,5.095,0.373
	c-1.273,1.911-1.638,5.022-1.734,6.109c-3.473,39.244-3.475,78.64-3.34,117.964c0.141,40.918,0.187,81.821-0.89,122.733
	c-0.632,24.03-1.555,48.054-2.751,72.069c-0.092,1.848,1.775,0.937,4.275,3.367c2.226,2.163,3.418-1.407,3.499-3.036
	c2.127-42.702,3.373-85.432,3.708-128.168c0.312-39.81-0.512-79.623,0.169-119.432c0.371-21.738,1.185-43.478,3.104-65.166
	c0.105-1.185,0.119-4.092-0.813-6.057c15.117,1.107,30.235,2.213,45.352,3.32c17.626,1.29,36.062,3.981,53.752,2.453
	c4.504-0.389,8.789-2.447,11.765-5.199C582.691,114.648,585.668,110.196,581.106,110.59z"/>
<path d="M470.307,130.656c-15.097,0.84-30.458-0.643-45.53-1.37c-15.72-0.759-31.44-1.517-47.159-2.276
	c-0.086-0.004-0.178-0.002-0.273,0.005c-0.154-0.16-0.339-0.284-0.567-0.353c-1.122-0.338-1.821,0.474-2.207,1.358
	c-2.699,1.487-5.325,4.099-2.701,4.226c0.655,0.032,1.31,0.063,1.965,0.095c-3.313,27.335-2.494,54.776-2.458,82.209
	c0.037,28.651-1.067,57.299-3.219,85.897c-0.069,0.922-0.069,3.927,1.689,4.001c1.751,0.075,2.137-3.021,2.198-3.836
	c2.112-28.069,3.208-56.184,3.219-84.305c0.011-27.924-1.144-55.955,2.436-83.78c13.776,0.665,27.552,1.33,41.328,1.995
	c15.071,0.727,30.434,2.21,45.53,1.37c2.156-0.12,4.545-1.225,5.883-2.6C471.08,132.636,472.61,130.527,470.307,130.656z"/>
<path d="M369.758,142.551c-10.905,3.459-22.663,0.451-34.007,1.004c-9.465,0.462-18.662,2.495-27.708,4.732
	c-0.386-0.35-0.976-0.474-1.756-0.226c-0.489,0.155-0.865,0.507-1.151,0.951c-0.611,0.153-1.221,0.307-1.83,0.461
	c-2.405,0.606-1.001,1.685,1.007,2.345c-0.01,0.128-0.017,0.249-0.019,0.354c-0.268,13.997-0.535,27.993-0.803,41.99
	c-0.262,13.693-1.255,27.541,0.344,41.197c0.486,4.153,4.548-0.099,4.271-2.468c-1.598-13.656-0.606-27.505-0.344-41.197
	c0.252-13.153,0.503-26.307,0.755-39.46c11.361-2.863,23.039-5.906,35.07-5.669c10.577,0.209,20.932,2.046,31.127-1.188
	C378.71,144.108,371.964,141.851,369.758,142.551z"/>
<g>
	<g>
		<path d="M482.649,264.709c3.687,15.576,2.412,30.814,0.126,46.491c-0.321,2.2,1.267,4.384,2.822,5.801
			c0.578,0.527,4.12,3.041,4.432,0.901c2.455-16.841,3.682-33.054-0.279-49.785C489.08,265.287,481.383,259.362,482.649,264.709
			L482.649,264.709z"/>
	</g>
</g>
<g>
	<path d="M485.597,217.378c0.547,0.404,4.178,2.471,4.432,0.73c0.206-1.415,0.4-2.826,0.587-4.236
		c0.619,0.848,1.4,1.512,2.263,1.676c15.946,3.026,30.946,8.228,44.958,15.063c1.845,0.9,2.395-1.175,2.352-2.189
		c-0.011-0.262-0.062-0.528-0.131-0.796c0.037-0.124,0.07-0.251,0.098-0.382c2.735-12.951,1.167-26.232,4.447-39.118
		c0.545-2.141-1.681-5.994-3.367-5.577c1.939-1.863,3.219-5.221,0.858-5.544c-17.535-2.399-34.384-6.84-50.462-12.972
		c-1.282-0.489-2.888,0.592-4.026,2.013c-2.351-1.872-5.674-3.178-4.958-0.17c3.723,15.636,2.416,31.109,0.126,46.804
		C482.512,214.481,484.01,216.207,485.597,217.378z M538.607,183.765c0.571,0.078,1.195-0.148,1.798-0.546
		c-0.206,0.317-0.389,0.745-0.535,1.317c-3.251,12.774-1.747,25.917-4.376,38.748c-13.83-6.585-28.618-11.535-44.245-14.545
		c1.376-12.346,1.665-24.526-0.798-36.889C505.843,177.445,521.943,181.484,538.607,183.765z"/>
	<path d="M541.984,275.169c-18.574-2.537-36.431-7.241-53.458-13.741c-2.839-1.084-7.292,5.518-4.652,6.526
		c17.384,6.636,35.666,11.385,54.623,13.974C541.294,282.311,545.359,275.63,541.984,275.169z"/>
	<path d="M544.603,286.639c0.724-2.841-3.43-8.7-4.733-3.591c-3.46,13.567-1.831,27.528-4.658,41.154
		c-14.808-7.063-30.659-12.36-47.418-15.537c-3.084-0.585-0.966,6.322,2.126,6.908c16.895,3.203,32.795,8.713,47.638,15.958
		c1.845,0.9,2.395-1.176,2.352-2.189c-0.012-0.269-0.066-0.544-0.138-0.82c0.048-0.151,0.09-0.307,0.124-0.468
		C542.798,314.343,541.124,300.282,544.603,286.639z"/>
	<path d="M397.036,195.181c-0.19,1.306,3.467,3.813,3.627,2.714c1.862-12.776,2.825-25.209,0.068-37.917
		c12.888,4.841,26.364,8.327,40.379,10.26c1.397,0.193,3.432-3.147,1.744-3.38c-14.088-1.943-27.593-5.492-40.52-10.407
		c-0.79-0.3-1.827,0.587-2.366,1.52c-1.081-1.155-3.475-2.388-3.056-0.611C399.898,170.023,398.888,182.47,397.036,195.181z"/>
	<path d="M442.307,172.403c-2.58,10.317-1.407,20.918-3.555,31.276c-0.026,0.125-0.027,0.264-0.018,0.407
		c-11.283-5.41-23.309-9.472-36.087-11.914c-1.539-0.294-0.482,3.159,1.063,3.454c12.831,2.453,24.862,6.606,36.151,12.095
		c0.934,0.454,1.102-0.412,0.856-1.38c0.167-0.151,0.309-0.421,0.402-0.867c2.148-10.359,0.976-20.966,3.555-31.276
		C445.028,172.779,442.946,169.847,442.307,172.403z"/>
	<path d="M400.731,239.256c12.888,4.841,26.364,8.327,40.379,10.26c1.397,0.193,3.432-3.147,1.744-3.38
		c-14.088-1.943-27.593-5.492-40.52-10.407c-0.79-0.3-1.827,0.587-2.366,1.52c-1.081-1.155-3.475-2.388-3.056-0.611
		c2.987,12.662,1.977,25.109,0.124,37.821c-0.19,1.306,3.467,3.813,3.627,2.714C402.525,264.398,403.487,251.964,400.731,239.256z"
		/>
	<path d="M442.307,251.682c-2.58,10.317-1.407,20.918-3.555,31.276c-0.026,0.125-0.027,0.264-0.018,0.407
		c-11.283-5.41-23.309-9.471-36.087-11.914c-1.539-0.294-0.482,3.159,1.063,3.454c12.831,2.453,24.862,6.606,36.151,12.095
		c0.934,0.454,1.102-0.412,0.856-1.38c0.167-0.151,0.309-0.421,0.402-0.867c2.148-10.359,0.976-20.966,3.555-31.276
		C445.028,252.058,442.946,249.125,442.307,251.682z"/>
	<path d="M320.807,180.853c-0.095,0.653,1.734,1.906,1.814,1.357c1.166-8.025,1.729-15.815-0.014-23.8
		c8.172,3.08,16.651,5.286,25.531,6.536c0.697,0.098,1.717-1.571,0.872-1.69c-8.808-1.24-17.172-3.434-25.268-6.488
		c-0.468-0.176-1.098,0.472-1.295,1.011c-0.335-0.611-1.958-1.585-1.722-0.56C322.555,165.168,321.968,172.869,320.807,180.853z"/>
	<path d="M348.922,166.613c-1.547,6.434-0.928,13.017-2.214,19.477c-0.024,0.123-0.011,0.27,0.028,0.421
		c-7.088-3.391-14.578-5.928-22.591-7.485c-0.767-0.149-0.24,1.577,0.531,1.727c8.03,1.56,15.471,4.123,22.555,7.542
		c0.512,0.247,0.565-0.293,0.389-0.826c0.116-0.051,0.214-0.195,0.271-0.482c1.285-6.458,0.668-13.047,2.214-19.477
		C350.276,166.801,349.23,165.333,348.922,166.613z"/>
	<path d="M348.138,214.316c0.697,0.098,1.717-1.571,0.872-1.69c-8.808-1.24-17.172-3.434-25.268-6.488
		c-0.468-0.176-1.098,0.472-1.295,1.011c-0.335-0.611-1.958-1.585-1.722-0.56c1.83,7.949,1.242,15.65,0.082,23.634
		c-0.095,0.653,1.734,1.906,1.814,1.357c1.166-8.025,1.729-15.815-0.014-23.8C330.779,210.859,339.258,213.066,348.138,214.316z"/>
	<path d="M348.922,215.982c-1.547,6.434-0.928,13.017-2.214,19.477c-0.024,0.123-0.011,0.27,0.028,0.421
		c-7.088-3.391-14.578-5.928-22.591-7.485c-0.767-0.149-0.24,1.577,0.531,1.727c8.03,1.56,15.471,4.123,22.555,7.542
		c0.512,0.247,0.565-0.293,0.389-0.826c0.116-0.051,0.214-0.195,0.271-0.482c1.285-6.458,0.668-13.047,2.214-19.477
		C350.276,216.17,349.23,214.702,348.922,215.982z"/>
</g>
</svg>
