<?xml version="1.0" encoding="utf-8"?>
<!-- Generator: Adobe Illustrator 15.1.0, SVG Export Plug-In . SVG Version: 6.00 Build 0)  -->
<!DOCTYPE svg PUBLIC "-//W3C//DTD SVG 1.1//EN" "http://www.w3.org/Graphics/SVG/1.1/DTD/svg11.dtd">
<svg version="1.1" id="Layer_3" xmlns="http://www.w3.org/2000/svg" xmlns:xlink="http://www.w3.org/1999/xlink" x="0px" y="0px"
	 width="566.93px" height="566.93px" viewBox="0 0 566.93 566.93" enable-background="new 0 0 566.93 566.93" xml:space="preserve">
<path d="M158.051,279.037c-11.386,55.928-41.466,107.976-40.24,166.284c0.31,14.724,2.626,29.314,7.228,43.315
	c2.017,6.137,3.888,13.086,9.013,17.24c4.114,3.334,8.417,6.429,12.918,9.217c13.87,8.591,30.288,12.229,43.752,0.977
	c8.239-6.886,13.494-17.241,17.592-26.938c1.313-3.105,3.021-6.517,3.477-9.876c0.411-3.02-0.003-6.11-0.262-9.13
	c-0.417-4.875-0.998-9.733-1.664-14.581c-1.873-13.637-5.077-27.026-9.596-40.028c-4.397-12.651-9.089-23.546-13.316-35.525
	c-6.184-17.524-10.875-35.493-14.619-53.687c-3.106-15.097-5.568-30.321-7.733-45.579c-0.193-1.363-2.09-8.477-4.818-6.117
	c-2.852,2.467-1.947,8.434-1.499,11.594c5.713,40.266,14.118,79.791,28.669,117.826c1.078,2.816,2.169,5.628,3.26,8.439
	c1.313,3.385,1.455,3.733,2.638,6.9c2.005,5.364,3.862,10.782,5.476,16.278c3.635,12.381,5.531,25.376,6.586,39.468
	c0.161-2.211,0.322-4.422,0.483-6.634c-5.405,14.677-14.205,33.682-31.627,36.235c-15.355,2.25-30.324-9.434-41.369-18.52
	c0.578,0.752,1.155,1.504,1.733,2.256c-14.139-31.638-9.31-65.087-0.207-97.407c9.744-34.594,23.72-67.837,30.909-103.153
	c0.764-3.754,0.102-9.441-2.29-12.57C159.938,271.913,158.44,277.122,158.051,279.037z"/>
<path fill="#010101" d="M186.151,99.893c-10.625,11.749-21.535,25.539-29.373,40.083c-5.358-4.138-10.301-8.7-14.082-13.663
	c-1.198-1.571-4.455,0.912-3.534,2.521c4.072,7.118,8.46,13.511,13.579,19.354c-0.773,1.74-1.513,3.484-2.178,5.237
	c-0.732,1.936,1.575,2.151,2.561,0.893c0.807-1.028,1.594-2.07,2.387-3.106c3.371,3.537,7.05,6.874,11.154,10.039
	c6.58,5.073,14.813,10.797,23.471,14.712c-2.866,2.137-5.749,4.252-8.631,6.384c-3.931,2.908-7.624,5.279-10.95,8.245
	c-1.018,0.47-2.047,0.921-3.121,1.304c-3.739,1.336-7.618,1.967-11.257,3.631c-6.82,3.11-11.3,8.531-15.076,14.85
	c-4.676,7.816-3.642,16.724,4.56,21.332c8.575,4.817,20.121,4.445,29.591,3.928c4.132-0.225,9.29-0.54,14.176-1.604
	c-0.31,0.633-0.322,1.294,0.264,1.767c6.265,5.045,13.448,8.519,19.727,13.612c6.863,5.569,13.033,12.098,19.333,18.28
	c13.183,12.931,27.359,24.288,42.965,34.188c31.596,20.045,68.03,32.955,104.788,39.324c33.871,5.867,69.277,5.826,103.454,3.129
	c34.473-2.719,68.743-9.352,101.743-19.662c30.186-9.428,59.395-22.447,86.445-38.838c25.942-15.721,54.209-35.712,71.015-61.449
	c4.244-6.501-2.379-10.656-7.907-6.271c-13.318,10.568-25.519,22.409-38.936,32.889c-13.22,10.327-27.427,19.391-42.062,27.567
	c-29.869,16.688-62.209,28.551-95.354,36.829c-66.644,16.641-141.199,19.592-207.388-0.354
	c-29.642-8.93-57.848-22.443-83.205-40.233c-11.909-8.353-22.945-17.923-34.565-26.669c-9.857-7.419-21.935-14.72-34.457-15.875
	c2.794-1.141,5.267-2.689,7.091-4.817c1.012-1.182,1.449-3.755-0.311-4.553c-2.827-1.282-5.74-0.572-8.684-0.193
	c-3.977,0.508-8.049,0.762-12.052,1.165c-8.281,0.841-16.909,1.027-25.037-1.002c-6.82-1.703-8.616-5.77-5.438-11.861
	c3.345-6.414,8.89-8.673,15.277-11.258c0.139-0.056,0.284-0.113,0.424-0.171c11.79,1.407,23.964-7.783,33.434-13.965
	c2.484-1.621,4.925-3.306,7.346-5.021c0.535,0.028,1.071,0.072,1.604,0.073c3.616,0.008,8.502-4.395,9.836-8.591
	c5.503-4.279,10.904-8.69,16.274-13.106c10.517-8.649,20.642-18.018,31.774-25.885c4.24,0.037,8.356-2.708,10.119-6.606
	c7.828-4.754,15.984-8.976,24.237-12.907c2.491-1.188,5.009-2.324,7.542-3.428c-1.949,11.122-1.86,22.828-1.165,32.899
	c1.856,26.92,9.008,51.386,23.714,74.11c17.761,27.438,45.253,48.397,75.751,59.75c31.234,11.627,64.382,11.477,96.89,5.98
	c27.655-4.676,55.144-13.51,78.934-28.613c16.521-10.491,28.587-23.704,39.145-39.905c11.03-16.928,20.869-35.11,26.362-54.645
	c1.14-4.054,1.997-8.499,2.306-12.939c25.754,13.125,52.053,25.396,80.35,31.876c8.164,1.868,16.197,3.267,24.562,2.374
	c3.354-0.355,5.997-0.527,8.515-2.19c0.028-0.011,0.055-0.017,0.085-0.029c10.908-0.224,21.647-2.613,31.773-8.023
	c3.126-1.671,4.643-7.904-0.427-7.61c-10.605,0.613-21.007,1.46-31.416,1.069c-0.815-0.401-1.659-0.759-2.521-1.087
	c0.363-0.292,0.723-0.578,1.077-0.861c6.418-5.101,12.119-11.049,17.449-17.257c10.207-11.89,17.93-26.322,19.67-42.033
	c0.343-3.088-3.846-2.499-4.637-0.216c-4.664,13.469-14.224,25.026-24.184,34.995c-4.684,4.685-9.833,9.114-15.23,12.958
	c-3.545,2.522-7.414,4.491-11.174,6.616c-2.192-0.795-4.388-1.592-6.582-2.36c-8.145-2.855-16.139-6.149-24.03-9.653
	c15.375-15.358,27.675-33.179,35.689-53.036c0.452,0.273,0.898,0.556,1.352,0.828c3.24,1.94,9.091-3.59,6.141-6.588
	c-1.298-1.318-2.633-2.604-3.969-3.886c2.003-6.207,3.599-12.592,4.742-19.149c0.343-1.968-2.243-1.354-2.823-0.132
	c-2.233,4.715-4.568,9.605-7.034,14.55c-15.724-14.037-33.735-25.767-52.474-35.912c1.418-10.781,1.527-21.649,0.168-32.268
	c-0.351-2.749-4.143-0.735-4.155,1.333c-0.065,8.972-1.424,18.021-3.652,26.903c-8.045-4.143-16.179-8.024-24.285-11.69
	c-13.488-6.1-27.323-11.417-41.402-15.986c0.093-7.171-0.718-14.365-2.603-21.723c-0.673-2.641-5.302-0.06-4.899,2.167
	c1.007,5.587,0.884,11.398,0.067,17.213c-16.866-5.125-34.06-9.183-51.423-12.192c-8.421-1.459-16.909-2.669-25.444-3.648
	c-1.879-11.136-5.071-22.042-10.435-31.783c-0.92-1.669-3.661-0.129-3.435,1.519c1.341,9.682,2.569,19.422,3.411,29.189
	c-35.479-3.264-71.655-2.543-107.264,1.595c-1.884-13.866-2.676-27.89-3.052-41.5c-0.064-2.377-3.326-0.71-3.687,0.747
	c-3.425,13.79-4.697,27.957-4.294,42.142c-20.294,2.765-40.356,6.625-59.954,11.477c-14.094,3.49-28.019,7.819-41.638,12.967
	c-7.006-15.062-12.039-31.968-11.938-48.201c0.014-2.201-3.288-0.795-3.545,0.712c-3.069,17.931-0.764,34.929,5.141,51.575
	c-22.902,9.493-44.788,21.414-64.884,35.88c-7.546,5.43-14.767,11.217-21.71,17.311c-6.72-8.3-12.627-17.301-17.728-26.565
	c-0.786-1.428-2.982-0.093-2.869,1.269c0.987,11.866,5.288,23.119,11.754,33.363C196.409,88.971,191.186,94.324,186.151,99.893z
	 M523.194,84.924c2.022,4.315,2.725,8.797,2.546,13.312c-0.882,2.211-2.074,4.544-2.747,5.508c-2.547,3.646-6.18,6.123-10.77,7.987
	c-10.515,4.268-22.744,4.545-33.708,1.182c-8.776-2.691-14.862-9.839-12.757-19.059c4.026-17.633,27.676-22.931,43.521-22.455
	C515.334,74.189,520.341,78.84,523.194,84.924z M551.344,78.688c-0.063-0.141-0.129-0.281-0.193-0.422
	c0.954,0.342,1.906,0.678,2.856,1.028C553.116,79.113,552.231,78.907,551.344,78.688z M249.142,125.985
	c-1.08,0.875-2.154,1.756-3.226,2.647c0.965-0.945,1.941-1.876,2.923-2.805C248.939,125.881,249.04,125.933,249.142,125.985z
	 M621.905,182.775c-4.942,10.274-10.773,20.103-17.19,29.519c-2.433,3.57-4.985,7.064-7.674,10.443
	c-0.705,0.886-1.454,1.738-2.197,2.593c-0.373,0.364-1.721,1.797-1.676,1.756c-1.804,1.771-3.718,3.424-5.64,5.062
	c-25.047,21.327-59.896,30.825-91.864,34.958c-32.807,4.242-64.67,1.093-94.418-14.065c-32.892-16.761-61.3-46.809-72.245-82.493
	c-4.666-15.203-6.838-31.241-7.512-47.099c-0.238-5.614-0.355-12.156,0.33-18.62c16.845-6.352,34.316-11.225,51.74-15.372
	c10.876-2.589,21.79-4.574,32.741-6.277c-3.649,7.545-6.185,15.726-7.303,23.769c-3.368,24.189,7.076,46.067,26.614,60.116
	c42.018,30.21,110.624,14.876,130.262-34.492c3.642-9.156,4.423-18.585,3.257-27.993c2.101,0.513,3.857,0.917,4.826,1.239
	c7.994,2.647,15.861,6.276,23.567,9.673c12.854,5.67,25.445,11.897,37.949,18.301C640.835,143.956,628.26,169.563,621.905,182.775z
	 M694.215,57.439c16.601,9.563,32.349,20.501,48.565,30.657c-9.473,17.588-21.006,34.817-36.354,46.331
	c-2.415,0.928-4.604,2.477-6.711,4.339c-11.066-5.343-21.932-11.099-32.779-16.884c-2.002-1.327-4.002-2.656-6.001-3.987
	c15.301-17.16,26.4-38.656,31.888-61.243C693.285,56.917,693.753,57.173,694.215,57.439z M637.406,29.943
	c15.923,6.208,31.388,13.539,46.401,21.692c-2.404,6.877-5.216,13.573-8.245,19.955c-6.701,14.12-15.665,27.282-26.775,38.293
	c-11.61-7.567-23.388-14.866-35.791-21.195c-3.967-2.023-7.956-4.006-11.969-5.942c0.09-0.233,0.181-0.466,0.26-0.705
	c5.14-15.612,12.61-30.292,17.059-46.194c1.117-3.993,2.014-7.943,2.665-11.873C626.514,25.848,631.985,27.83,637.406,29.943z
	 M611.953,21.013c-1.634,5.692-3.652,11.228-5.647,16.378c-4.522,11.685-9.737,23.521-15.947,34.561
	c-0.298,0.123-0.599,0.269-0.904,0.444c-1.396,0.795-2.701,1.923-3.808,3.243c-15.994-7.063-32.367-13.202-49.199-17.813
	c3.493-13.647,4.327-27.996,3.795-42.003c-0.134-3.507-0.342-7.056-0.65-10.621C564.123,8.329,588.369,13.596,611.953,21.013z
	 M517.942,2.993c3.468,0.264,6.932,0.585,10.392,0.934c0.143,3.198,0.248,6.396,0.267,9.596c0.079,13.074-0.575,28.137-5.275,41.052
	c-4.723-1.046-9.478-1.972-14.276-2.75c-23.038-3.738-46.842-4.068-70.456-2.716c-0.737-1.236-1.776-2.244-3.248-2.998
	c-6.337-12.984-10.467-26.977-13.173-41.326C453.961,1.41,486.063,0.57,517.942,2.993z M408.707,6.365
	c0.411-0.052,0.821-0.098,1.23-0.15c1.409,15.039,4.558,29.979,8.892,44.388c-7.009,0.648-13.977,1.403-20.88,2.223
	c-19.353,2.294-38.699,5.916-57.484,11.326c-2.912-2.6-5.744-5.299-8.406-8.263c-7.467-8.311-13.873-17.387-19.264-27.162
	c-0.112-0.205-0.221-0.417-0.333-0.622C343.55,16.925,375.961,10.577,408.707,6.365z M219.802,79.622
	c24.408-19.869,52.171-35.506,81.357-47.209c0.05,0.113,0.095,0.227,0.145,0.34c4.594,10.386,10.438,20.346,16.722,29.796
	c1.584,2.382,3.229,4.824,4.938,7.255c-16.284,5.847-31.993,13.213-46.711,22.504c-8.429,5.321-16.167,11.271-23.464,17.701
	c-13.897-6.524-26.012-16.165-36.392-27.559C217.527,81.504,218.657,80.553,219.802,79.622z M240.912,121.289
	c-4.585,4.679-9.029,9.537-13.351,14.601c-7.304,8.559-14.227,17.442-21.547,25.997c-0.547,0.639-1.106,1.265-1.663,1.895
	c-2.605-0.349-5.212-0.803-7.895-1.596c-7.255-2.147-14.055-5.923-20.582-9.68c-4.67-2.689-9.665-5.751-14.498-9.146
	c7.274-9.946,14.317-20.02,22.536-29.333c7.177-8.131,14.814-15.848,22.829-23.147C215.945,102.959,228.053,113.346,240.912,121.289
	z"/>
<path fill="#010101" d="M762.512,210.836c0.626-2.889-3.361-1.577-3.99,0.32c-17.62,53.116-61.77,87.959-111.196,110.27
	c-50.63,22.854-106.953,34.104-162.153,37.957c-58.111,4.053-119.318,0.766-175.127-16.801
	c-25.763-8.104-49.737-21.094-72.438-35.574c-11.344-7.236-22.386-15.064-32.739-23.664c-8.584-7.131-17.688-15.314-22.768-25.443
	c-0.84-1.678-3.555,0.16-2.979,1.703c4.31,11.539,13.792,20.677,22.773,28.735c11.2,10.043,23.597,18.729,36.22,26.871
	c27.407,17.686,56.502,31.236,88.129,39.453c35.675,9.268,72.898,12.141,109.644,12.729c27.872,0.443,55.596-0.99,83.229-4.67
	c51.767-6.893,103.698-20.564,150.015-45.113C711.739,295.03,751.904,259.74,762.512,210.836z"/>
</svg>
