<?xml version="1.0" encoding="utf-8"?>
<!-- Generator: Adobe Illustrator 23.0.1, SVG Export Plug-In . SVG Version: 6.00 Build 0)  -->
<svg version="1.1" id="Layer_3" xmlns="http://www.w3.org/2000/svg" xmlns:xlink="http://www.w3.org/1999/xlink" x="0px" y="0px"
	 viewBox="0 0 566.9 566.9" style="enable-background:new 0 0 566.9 566.9;" xml:space="preserve">
<path d="M474.4,227.2c-5.5-36.9-13.8-73.8-41-101.1c-58.9-59.3-156.1-36.7-222.8,0.8c-1.7,1.2-14.7,10.2-16.7,12.2
	c-53,46.8-94.7,109.6-78.5,183.8c7.9,36.4,22.3,76.7,48.2,104.4c11.6,12.4,26,22.8,42.2,28.1c17.9,5.9,34.5,3.2,52.9,1.9
	c20.7-1.5,41.7-0.4,61.9-5.8c18.9-5,34.9-15.9,50-28.2c29-23.6,53.8-51.7,73.7-83.4C466.5,304.2,480.7,269.7,474.4,227.2z
	 M444.8,296c-15,28.3-34.5,54.1-57.2,76.6c-24.5,24.3-52,46.3-87.3,50c-15.6,1.7-31.3,1.2-46.8,2.6c-16.5,1.5-31.6,3.3-47.5-2.6
	c-29.7-11.1-48.7-37.9-60.6-66c-15.8-37.4-23.6-74.1-6.3-112.4c14.7-32.5,40.3-58.5,67.5-81c27.3-16.6,57-28.9,88.4-35.3
	c31.6-6.5,66.9-9.6,97.1,3.8c26.6,11.8,48.4,34,57.6,61.8c5.1,15.4,8,32.1,9.9,48.2C461.9,261.8,454.2,278.4,444.8,296z"/>
<path d="M455.8,211.8c-9.7,3.2-19.3,6.7-29,10.1c-0.9-0.5-1.8-0.9-2.7-1.2c-13.3-10.7-24.8-24.2-36.3-36.6
	c-12.8-13.7-25.9-25.9-40.1-38.1c-0.1-0.1-0.2-0.2-0.4-0.2c0.2-0.6,0.3-1.2,0.3-1.8c0.1-4.4,0.1-8.8,0.2-13.2
	c0.1-3.6,1.2-7.7,0.3-11.1c-0.8-3.3-5.8,2.4-5.2,4.7c0.8,3.3-0.3,7.7-0.3,11.1c-0.1,2.9-0.1,5.9-0.1,8.8c-1.2-0.1-2.1,0-1.8,0.6
	c-0.3,0-0.7,0-1,0.1c-8.4,2.5-17.1,4.1-25.7,5.7c-9.3,1.8-19.4,5.5-28.9,5.5c-0.1,0-0.2,0-0.3-0.1c-0.6-0.1-1.4,0.2-2.2,0.8
	c-2.8-4-5.6-7.9-9.2-11.4c-4.3-4.3-10.2-7-14.7-11c-1.3-1.2-6.8,3.6-5.2,5c4.5,4.1,10.4,6.8,14.7,11c4,3.9,7.1,8.4,10.2,12.8
	c-0.1,0.7-0.2,1.3,0,1.9c4.7,18.2,2.5,37,3.4,55.5c0,0.9-8.3,2.6-8.5,2.7c-7.2,2.2-14.6,3.5-22,4.9c-8,1.5-16.6,4.8-24.7,4.7
	c-0.1,0-0.1,0-0.2-0.1c-0.4-0.1-0.8,0-1.3,0.3c-11.4-1.8-23-3.5-34.2-6.4c-12.3-3.2-23.3-9.9-35.7-13c-2.1-0.5-8.7,3.4-5.7,4.2
	c12.4,3,23.4,9.8,35.7,13c11.8,3.1,24.1,4.7,36.1,6.7c-0.5,1.1-0.7,2.2-0.5,3.1c4.2,16.2,2,32.8,3,49.3c-1.2-0.8-5.3-1.7-4.8-0.7
	c-0.2,0-0.5,0-0.7,0c-5.9,1.8-12.1,2.9-18.1,4c-6.6,1.3-13.7,3.9-20.4,3.9c-0.1,0-0.1,0-0.2,0c-0.3-0.1-0.7,0-1,0.2
	c-17.7,0.9-35.3,1.6-53,2.2c-3.2,0.1-3.9,9.7-1.2,9.6c17.2-0.6,34.3-1.3,51.5-2.1c2.3,11.8,1.1,23.9,1.6,35.8
	c-5.8,4.3-12.3,7.4-18.8,10.8c-4.5,2.4-10.3,4.7-12.4,9.7c-0.9,2.3,1.9,10.4,3.2,7.3c2.3-5.5,11.5-8.5,16.4-11.1
	c5.2-2.7,10.3-5.5,15-9.1c0.1-0.1,0.3-0.2,0.4-0.4c3.8,4.6,9.6,11.1,12.7,14.9c8,9.8,16.6,18.5,25.6,27.5c0.1,0.1,0.1,0.1,0.2,0.2
	c-1.8,12.6-4.2,25.1-7.1,37.6c-0.6,2.6,4.7,9.5,5.6,5.8c3.1-13,5.5-26.1,7.4-39.4c0.1-0.8-0.3-1.9-0.9-3c7.2,0.5,14.1,1.7,21.3,1
	c8.7-0.8,17.4-2,26.1-3.2c0,0.6,0.1,1.1,0.3,1.6c5.2,12.9,10.5,25.8,15.7,38.7c2.6,6.3,6.8-5,5.4-8.4c-4.5-11-8.9-21.9-13.4-32.9
	c0,0,0-0.1,0-0.1c0.1-13,5.6-27.3,3.6-40.3c7.7,0.7,15.3,1.7,23.2,1c11.7-1.1,23.4-2.8,35.1-4.3c12.8,13.7,25.6,27.4,38.3,41.1
	c1.5,1.6,8.2-1.7,6.4-3.6c-12.8-13.7-25.6-27.4-38.3-41.1c0.8-16.3,7.5-34,3.5-49.9c-0.1-0.4-0.4-0.8-0.7-1.2
	c9.3,0.8,18.3,2.1,27.8,1.2c14.4-1.4,28.8-3.5,43.2-5.3c1.2,0.5,2.4,0.8,3.4,0.8c4.5,1.1,9,2.4,12.5,5.8c3.1,3,6.3,5.7,9.4,8.6
	c1.8,1.7,5.7-5.2,3.6-7.3c-1.7-1.6-3.6-2.8-5.4-4.3c-1.9-1.7-3.3-4-5.4-5.5c-3.7-2.9-8.3-4-12.7-5c1.4-16.9,7.5-35,4.6-51.6
	c10.2-3.7,20.4-7.3,30.6-10.7C465.7,217.8,458.9,210.8,455.8,211.8z M246.5,390c-9,1.1-17-0.1-25.7-0.6
	c-8.2-8.1-16.1-16.2-23.4-25.1c-4.9-6-11.6-12.3-15.1-19.3c-0.2-0.5,0-4-0.1-4.8c-0.7-10.6-0.7-29.5-0.4-35.6
	c0.2-0.6,0.4-1.3,0.5-1.9c7.2,0.5,14.2-2.4,21.2-3.8c6.6-1.2,13.3-2.4,19.8-4.4c0.4-0.1,0.6-0.4,0.6-0.7c2.4,2.2,4.8,4.3,7.2,6.5
	c4.3,5.1,9.6,11.2,12.7,14.9c9.7,11.9,20.2,22.5,31.1,33.3c0.4,0.4,0.8,0.7,1.1,0.9c1.1,12-3.9,25.4-4,37.2c0,0,0,0.1,0,0.1
	C263.4,387.9,255,389,246.5,390z M307.5,345.3c-9.2,1.1-17.6,0.3-26.4-0.4c-1-0.7-2.2-1.3-3.2-1.6c-9.4-7.6-17.5-17.2-25.7-26
	c-4.4-4.7-8.9-9.2-13.4-13.6c-3.5-4.1-6.9-8.4-9.1-12.9c-0.3-0.6,0-4.8-0.1-5.8c-1-15.5-0.8-45.5-0.3-45.5c8.8,0.7,17.4-2.9,26-4.5
	c8-1.5,16.2-2.9,24-5.3c0.5-0.1,21.9,18.8,31.9,29.6c8,8.6,15.9,17.7,24.7,25.6c1.8,1.8,3.7,3.6,5.5,5.4c0.3,0.3,0.6,0.5,0.9,0.8
	c3.7,15.9-3.9,34.2-4,50.3c0,0.1,0,0.1,0,0.2C328,342.8,317.8,344.1,307.5,345.3z M415.6,282c-12,1.5-23.9,3-35.9,4.4
	c-12.7,1.5-24-0.1-36.4-0.8c-11.6-11.4-22.8-22.8-33.2-35.3c-7-8.5-16.4-17.3-21.3-27.2c-0.3-0.7,0-5.6-0.1-6.7
	c-1.2-18-0.9-52.8-0.3-52.8c10.3,0.8,20.3-3.4,30.3-5.3c9.4-1.7,18.9-3.4,28-6.1c0.6-0.2,0.8-0.5,0.8-1
	c12.8,11.3,24.7,22.8,36.5,35.4c11.4,12.2,22.8,25.4,36.1,35.8c0,0.1,0,0.2,0,0.3c4.8,18.6-4.4,40.2-4.5,59.1
	C415.6,281.9,415.6,282,415.6,282z"/>
<path d="M517.4,43.5c-0.5-0.7-2.1-1.6-2.5-1.8c-7.1-3.5-14.3-6-21.6-7.6c-17.9-3.7-36-1.8-52.1,4.9c-24.8,10.3-44.9,31.8-51.5,60.7
	c-0.4,1.6,2.9,7.8,4.1,5.4c0.9-1.9,1.9-3.7,2.8-5.5c0.3-0.1,7.4-18.2,8.8-22c22.7-34.9,69.5-49.4,109.7-29.8
	c14.3,23,12.8,60.1-0.3,83c-6.3,11-24,25.7-26.6,27.6c-2.6,1.9-24,10.7-25.7,11.6c-2.3,1.2,0.6,7.2,3,6.5
	c27.6-7.5,51.9-28.8,60.3-56.4C532.8,97.1,530.5,64.2,517.4,43.5z"/>
<g>
	<g>
		<path d="M467.7,171.3c-2.3,0.1-4.4,0.8-6.4,2c-0.4,0.2-1.3,1-0.7,1.5c0.5,0.5,1.8-0.2,2.3-0.4c0.9-0.5,1.9-0.8,3-0.8
			c0.8,0,1.8-0.4,2.4-1.1C468.6,171.8,468.5,171.3,467.7,171.3L467.7,171.3z"/>
	</g>
</g>
<path d="M291.3,94.3c-0.2-2.1-0.4-4.2-0.5-6.3c-1.2-14.1-2.4-28.7-6.7-41.9c-4.4-13.5-17-21.2-35.5-21.7
	c-15.4-0.4-30.1,4.6-44.4,9.5c-13.1,4.5-28.2,10.4-40.7,20.4c-6.8,5.4-13.3,11.6-15.1,19.5c-2.5,10.6,2.6,24.5,13.2,27.4
	c10.8,2.9,22.7-0.3,34.2-3.5c5.6-1.5,10.8-3,15.7-3.6c16.7-2.2,27.1,5.3,35.7,25.9c0.4,1,1.3,1.7,2.4,1.9c0.1,0,0.3,0,0.4,0
	c1.3,0,2.6-0.8,3.8-2.4c0.6-0.8,2.6-3.7,1.5-6.1c-7.4-17.7-18-33.5-44.8-29.2c-4.7,0.8-9.5,2-14,3.2c-6.9,1.8-14.1,3.7-21.2,3.8
	c-9.9,0.1-15-1-16.8-7.8c-3.3-12.1,2.9-17.3,13.3-24.3c20.5-13.8,50.8-24,72.2-24.2c18.9-0.2,29.4,6.7,32.8,21.6
	c3.2,13.7,4.6,27.8,5.9,42.2c0.2,2.1,1.8,3.1,3.2,2.9C288.5,101.3,291.5,96.9,291.3,94.3z"/>
<path d="M540.4,314.5c-0.5-8.3-3.4-28.5-19.4-35.2c-12.4-5.3-29-5.2-43.7-5.1c-3.4,0-6.7,0-9.7,0c-1.6,0-3.1,1-4.2,2.9
	c-0.5,0.8-2,3.7-0.8,5.8c0.6,1,1.6,1.6,2.8,1.7c12.7,0.2,26.3,0.7,39.9,2.6c9.5,1.3,14.8,2.1,20.1,9.7c4.3,6.2,6.6,15.5,6.5,26.1
	c-0.4,22.9-9,62.6-26.9,79c-6.6,6-14.9,6.9-21.9,2.3c-5.7-3.8-4.6-14.6-3.8-21.8c0.1-0.8,0.2-1.5,0.2-2.2c0.4-4.2,1.2-8.6,2-12.8
	c1.2-6.6,2.5-13.4,2.3-20.3c-0.5-21.7-16-30-32.7-35.6c-2.8-0.9-5.3,1.7-6.4,4.6c-1,2.9,0.2,4.8,1.8,5.3c18,6.1,29.6,14.4,28.1,34.7
	c-0.4,4.8-1.4,10-2.5,15.4c-2.2,11.2-4.5,22.7-1.2,33.4c1.3,4.2,4.5,7.8,9.1,10.1c3.6,1.8,7.6,2.7,11.5,2.7c2.5,0,4.9-0.4,7.2-1.1
	c10.1-3.5,17.1-15.7,20.8-22.2C533.5,370.4,541.8,338.3,540.4,314.5z"/>
<path d="M119.7,234.6c-25.4-0.5-55.2-9.6-77.3,7.7c-18.9,14.8-23.7,39.7-25.9,62.1c-1.2,11.9-0.9,35.3,17.3,28.5
	c13.8-5.2,25.5-14.9,38.7-21.3c17-8.2,32.8-7.8,50.7-3.4c3.4,0.8,0.5-9.3-3.1-10.2c-21-5.2-37.5-4.2-56.8,6
	c-9.2,4.9-17.7,10.9-27,15.6c-5.9,3-11.2,6.7-13.9-2c-1.7-5.5,1.6-17,2.5-22.1c3.4-19.6,12-40,31.1-48.8c20.8-9.5,44.9-2.4,66.7-1.9
	C126.8,244.9,123.3,234.6,119.7,234.6L119.7,234.6z"/>
<path d="M328,445.6c0.1,23.2,8.1,50.8-6,71.4c-12.5,18.3-35.6,24-56.3,26.1c-4.8,0.5-10,1.4-14.8,1.1c-12.3-0.8-4.7-7.3-0.6-14.6
	c5.1-9.1,11.3-17.5,16-26.8c9.3-18.3,9.3-34.6,4.8-54.3c-0.8-3.7-8.1-10-6.5-3.1c4.6,20.3,2.8,37.1-7.7,55.3
	c-6.4,11-16.1,22.2-19.6,34.6c-5.3,19.1,16.2,19.5,28.9,18.4c22-2,46.2-7.1,60.3-25.8c16.5-22,8.2-51.4,8.2-76.6
	C334.7,447.8,328,439.6,328,445.6L328,445.6z"/>
<path d="M465.4,37c-0.5,0.7-1.1,1.2-1.7,1.8c-1.5-2.6-3.8-4.8-5-3.9c-5.4,3.7-11.5,5.5-18,5.1c-1.7-0.1-0.9,3.5,0.8,6.5
	c-1.6-0.2-3.2-0.5-4.7-0.9c-1.9-0.5-2.7,6.6-0.3,7.3c11.5,3.2,23,0,30.4-9.6C468.2,41.7,467.2,34.7,465.4,37z"/>
<path d="M524.1,102.9c0.2-0.2,0.4-0.4,0.6-0.5c1.8-1.5,1-8.4-0.6-7.1c-10.5,8.5-14.8,21.6-10.9,34.6c1.3,4.2,3.8-2.1,4.1-1.8
	c0.9,0.9,3.6,2.9,3.6,0.3c0.1-6.5,2.4-12.4,6.4-17.4C528.6,109.5,526.4,105.2,524.1,102.9z"/>
</svg>
