<?xml version="1.0" encoding="utf-8"?>
<!-- Generator: Adobe Illustrator 15.1.0, SVG Export Plug-In . SVG Version: 6.00 Build 0)  -->
<!DOCTYPE svg PUBLIC "-//W3C//DTD SVG 1.1//EN" "http://www.w3.org/Graphics/SVG/1.1/DTD/svg11.dtd">
<svg version="1.1" id="Layer_1" xmlns="http://www.w3.org/2000/svg" xmlns:xlink="http://www.w3.org/1999/xlink" x="0px" y="0px"
	 width="1024px" height="1024px" viewBox="0 0 1024 1024" enable-background="new 0 0 1024 1024" xml:space="preserve">
<g id="girl">
	<path fill="#010101" d="M746.319,316.167c-25.513-2.433-49.205,13.133-66.924,30.067c-21.968,20.995-37.889,47.803-49.378,75.744
		c-21.347,51.913-31.841,119.104,3.603,167.22c24.051,32.654,63.496,53.998,102.35,63.186c39.262,9.281,76.985-0.864,108.953-24.501
		c14.702-10.874,28.686-24.105,38.172-39.834c8.277-13.723,13.322-29.154,16.479-44.803c6.977-34.602,4.219-70.934-3.599-105.119
		c-5.824-25.458-15.728-49.259-31.082-70.427c-18.408-25.379-44.434-53.883-77.762-55.695c-5.17-0.28-14.515,8.104-7.372,12.113
		c33.572,18.845,63.222,44.27,80.772,79.225c15.158,30.187,21.515,64.861,22.477,98.39c0.884,30.831-3.463,65.789-23.545,90.497
		c-23.705,29.164-60.234,47.498-97.923,44.317c-40.42-3.415-80.962-25.332-107.51-55.612c-19.166-21.864-25.981-48.006-25.97-76.654
		c0.013-30.246,7.749-60.663,19.586-88.346c11.418-26.702,27.747-52.51,50.001-71.468c13.823-11.771,30.231-19.574,47.771-24.107
		C746.955,319.962,748.894,316.413,746.319,316.167L746.319,316.167z"/>
	<path fill="#010101" d="M756.766,272.7c-10.154,4.227-18.472,12.186-21.019,23.187c-2.146,9.271,4.421,17.439,11.938,21.954
		c11.587,6.957,24.898,0.926,32.89-8.423c7.055-8.251,10.574-21.435,3.874-30.84c-9.027-12.666-35.199-7.913-43.797,2.022
		c-1.161,1.34-1.808,4.647,0.374,5.491c9.921,3.828,21.383-5.027,30.741,1.628c4.038,2.871,2.723,9.727,0.101,14.472
		c-0.882,1.598-3.375,4.002-5.043,4.976c-1.888,1.102-4.193,1.599-7.701,0.781c-4.481-1.042-8.414-4.857-11.229-8.264
		c-6.148-7.437,3.942-20.636,9.527-25.29C758.168,273.77,757.957,272.205,756.766,272.7z"/>
	<path fill="#010101" d="M783.697,282.01c13.827-12.499,27.229-25.688,42.7-36.186c16.336-11.086,34.576-18.556,53.329-24.495
		c18.383-5.827,38.401-8.659,57.685-7.511c6.096,0.363,12.186,0.846,18.277,1.248c5.35,0.352,11.363,1.02,15.574-3.06
		c2.498-2.423,4.605-6.438,2.059-9.618c-1.238-1.549-3.499-1.843-5.316-1.491c-2.851,0.555-5.88,2.468-6.388,5.606
		c0.782-1.134,1.565-2.268,2.346-3.402c2.233-0.731,4.466-1.464,6.698-2.197c-3.24-1.014-8.041,0.783-12.056,0.887
		c-6.497,0.169-13.018-0.436-19.513-0.488c-21.152-0.167-42.576,3.679-62.609,10.304c-37.756,12.486-73.608,34.235-95.099,68.565
		C780.22,282.025,782.104,283.453,783.697,282.01L783.697,282.01z"/>
	<path fill="#010101" d="M746.431,277.2c-0.852-8.74-8.146-15.787-13.485-22.324c-7.13-8.735-14.535-17.148-22.912-24.714
		c-11.483-10.366-24.049-19.284-37.664-26.637c-24.324-13.138-65.189-29.558-90.586-10.426c-5.35,4.031-3.232,12.909,4.156,10.679
		c12.864-3.883,23.477-4.882,36.847-2.17c15.358,3.112,29.933,9.564,43.646,16.992c13.096,7.093,25.178,15.481,36.352,25.322
		c7.045,6.204,13.494,13.104,19.828,20.023c5.722,6.249,11.43,14.63,20.109,16.509C744.446,280.824,746.602,278.975,746.431,277.2z"
		/>
	<path fill="#010101" d="M585.828,201.825c-19.811,19.116-28.797,44.068-32.699,70.999c-0.918,6.339-1.151,12.721-1.69,19.093
		c-0.635,7.52,1.146,9.469,7.33,13.434c9.662,6.199,20.83,9.96,31.832,12.974c25.917,7.104,53.525,8.47,80.267,7.975
		c23.82-0.44,47.933-2.35,69.717-12.486c2.644-1.23,3.512-6.106-0.334-5.964c-58.566,2.184-124.569,14.651-177.219-18.872
		c0.809,1.332,1.619,2.664,2.428,3.996c-2.188-15.21-0.029-30.873,3.465-45.739c3.441-14.644,9.52-31.794,19.761-43.146
		C590.556,202.02,587.641,200.079,585.828,201.825z"/>
	<path fill="#010101" d="M959.467,208.982c4.588,6.688,8.166,15.16,11.854,22.44c4.067,8.029,7.129,16.641,9.569,25.291
		c4.649,16.445,6.672,35.296,0.94,51.724c3.322-1.937,6.645-3.872,9.966-5.809c-1.764-0.306-3.531-0.566-5.306-0.777
		c-3.25-0.437-8.276,2.823-7.543,6.62c0.784,4.048,1.333,5.207,4.607,7.701c3.713,2.827,10.269-1.742,11.564-5.255
		c6.763-18.309,4.79-38.514-0.433-56.961c-2.861-10.104-7.14-19.712-12.53-28.708c-2.41-4.021-5.04-7.59-8.192-11.056
		c-3.618-3.978-7.187-5.647-11.507-8.421C960.771,204.685,958.375,207.39,959.467,208.982z"/>
	<path fill="#010101" d="M781.64,307.412c4.917,11.072,22.163,15.267,32.737,17.634c15.826,3.542,32.224,4.382,48.39,4.734
		c41.254,0.897,81.585,2.461,121.769-8.891c6.656-1.882,11.099-14.832,1.188-14.189c-6.843,0.443-13.411,2.831-17.526,8.537
		c-1.139,1.578-1.591,3.974,0.353,5.147c4.212,2.539,9.397,1.17,14.051,0.894c0.396-4.729,0.791-9.458,1.188-14.189
		c-37.893,10.901-75.601,10.651-114.607,11.235c-15.429,0.234-30.919,0.218-46.259-1.612c-6.987-0.833-13.942-2.166-20.707-4.089
		c-6.497-1.849-12.53-5.21-18.986-6.905C782.421,305.51,781.275,306.589,781.64,307.412z"/>
	<path fill="#010101" d="M744.592,316.433c-15.738,9.699-27.801,23.184-35.686,39.961c-4.017,8.549-6.182,17.727-6.826,27.115
		c-0.53,7.729,0.021,18.827,6.563,23.943c1.826,1.428,5.084-1.215,5.281-3.069c0.763-7.174-1.988-14.43-2.127-21.708
		c-0.162-8.453,2.146-16.984,5.279-24.755c5.969-14.798,16.856-28.492,29.518-38.149
		C748.761,318.124,747.11,314.884,744.592,316.433z"/>
	<path fill="#010101" d="M761.695,322.898c-6.963,0.13-13.428,7.453-16.651,13.014c-4.259,7.338-5.748,15.459-5.898,23.865
		c-0.254,14.285,6.274,37.433,22.405,41.284c1.549,0.367,4.086-1.758,3.212-3.426c-2.662-5.089-6.015-9.697-8.565-14.902
		c-3.247-6.626-5.146-13.716-6.092-21.007c-0.849-6.55-0.277-13.085,1.636-19.391c2.126-7.011,7.197-10.306,11.429-15.735
		C764.377,325.056,763.87,322.858,761.695,322.898L761.695,322.898z"/>
	<path fill="#010101" d="M776.929,324.705c-7.887,11.238-11.001,25.737-8.164,39.193c2.83,13.423,11.45,30.834,25.357,35.388
		c2.476,0.811,5.887-2.735,4.838-5.158c-2.194-5.083-6.104-9-9.495-13.32c-4.271-5.444-7.488-11.407-9.824-17.903
		c-4.555-12.655-2.643-24.942,0.682-37.559C780.922,323.089,777.811,323.446,776.929,324.705L776.929,324.705z"/>
	<path fill="#010101" d="M729.602,445.655c-5.816,8.43-13.024,25.554-7.697,35.593c2.656,5.005,9.466,4.853,13.686,1.982
		c5.731-3.898,8.068-10.695,9.188-17.254c1.434-8.376,0.452-32.259-14.338-24.632c-13.018,6.713-13.992,28.193-5.252,38.832
		c3.117,3.793,8.457,0.331,10.865-2.259c7.343-7.893,9.444-19.951,4.437-29.609c-2.76-5.316-8.93-2.393-11.957,0.965
		c-6.681,7.422-14.454,33.854,0.654,36.739c2.125,0.406,4.318-1.183,5.197-3.03c4.409-9.265-2.889-19.51,4.676-28.019
		c-3.985,0.322-7.968,0.645-11.954,0.966c3.011,5.695,2.957,11.439-1.32,16.434c3.623-0.755,7.244-1.505,10.866-2.258
		c-2.039-2.221-2.975-5.512-3.556-8.413c-0.397-1.99-0.489-4.014-0.482-6.034c0.013-2.833,2.46-4.046-0.803-3.392
		c-1.243,0.25-0.933-0.553-0.253,0.791c0.584,1.164,0.893,2.483,1.105,3.756c0.64,3.765,0.462,7.671-0.13,11.422
		c-0.232,1.466-0.564,2.971-1.078,4.367c-0.41,1.117-2.033,2.697-0.213,1.43c0.94-0.656,1.016,0.158,0.664-0.46
		c-0.909-1.601-0.974-3.595-1.104-5.375c-0.487-6.746,0.152-15.403,1.835-21.971C733.157,444.215,730.392,444.511,729.602,445.655z"
		/>
	<path fill="#010101" d="M764.105,445.477c-9.767,9.012-7.971,31.809,1.721,40.147c3.1,2.665,8.057,1.233,10.202-2.119
		c4.12-6.438,6.039-14.476,7.423-21.909c1.301-6.997,2.699-18.467-5.076-22.352c-9.612-4.806-18.749,5.604-20.144,14.165
		c-1.286,7.897,0.424,18.769,4.568,25.707c3.334,5.582,11.36,2.537,13.514-2.752c2.604-6.408,5.122-12.406,3.711-19.416
		c-1.682-8.365-11.074-3.915-13.988,1.132c-3.576,6.198-4.9,12.706-1.653,19.31c1.713,3.486,6.432,1.116,7.65-1.559
		c2.321-5.097,4.313-10.498,7.223-15.288c-4.552,0.927-9.097,1.854-13.646,2.779c0.789,3.764-1.031,7.192-2.382,10.595
		c4.225-1.384,8.446-2.768,12.67-4.155c-1.513-2.478-3.058-8.543-3.66-12.367c-0.395-2.492-0.529-5.009-0.004-7.48
		c-0.156,0.728-2.536,0.638-1.749,2.632c2.787,7.064-1.394,20.909-5.025,27.274c3.334-1.516,6.671-3.032,10.005-4.548
		c-8.384-6.307-6.201-19.785-6.042-28.76C769.474,443.548,765.541,444.152,764.105,445.477L764.105,445.477z"/>
	<path fill="#010101" d="M670.819,520.927c0.422-2.228-0.969-3.301-3.018-3.388c-1.021-0.043-1.945,0.437-2.845,0.845
		c-0.126,0.064-0.253,0.127-0.379,0.19c0.679-0.264,0.411-0.139-0.802,0.373c-0.354,0.229-0.704,0.462-1.062,0.689
		c1.148-0.234,2.295-0.468,3.442-0.701c-2.195-0.609-4.114,0.517-5.805,1.775c-3.068,2.289-3.497,9.404,1.833,8.518
		c2.362-0.392,4.64-0.983,6.95-1.608c1.75-0.474,3.98-1.453,5.723-1.41c0.351-4.193,0.701-8.387,1.055-12.58
		c-1.504,0.453-2.98,0.887-4.506,1.267c-1.365,0.339-2.671,0.685-3.926,1.363c-0.83,0.412-1.598,0.919-2.305,1.523
		c-1.291,1.619-1.673,1.979-1.146,1.087c-2.796,2.362-3.908,7.612,0.556,8.751c3.901,0.998,9.758,0.02,13.705-2.516
		c2.838-1.82,5.754-5.394,4.364-9.013c-1.263-3.3-5.886-3.531-8.463-1.702c-1.542,1.094-3.821,1.695-5.644,2.418
		c-2.336,0.925-4.651,1.839-6.895,2.973c1.892,2.156,3.781,4.309,5.672,6.465c1.266-1.686,1.732-3.416,1.145-5.448
		c-0.311,1.445-0.621,2.895-0.932,4.342c0.345-0.459,0.727-0.878,1.027-1.365c0.359-0.423,0.367-0.447,0.033-0.072
		c2.944-3.014-2.131,1.955-3.736-0.102C666.68,525.921,670.421,523.023,670.819,520.927z"/>
	<path fill="#010101" d="M828.58,512.742c0.331,1.514,1.144,2.771,1.9,4.112c0.893,1.572,1.82,3.32,3.017,4.7
		c1.834,2.118,5.109,1.625,7.277,0.389c2.672-1.524,4.271-4.073,4.428-7.113c0.072-1.391-0.213-2.654-1.111-3.757
		c-0.978-1.199-2.694-1.572-4.163-1.453c-1.171,0.113-2.267,0.465-3.285,1.057c-0.546,0.246-0.184,0.094,1.078-0.467
		c-3.93,1.068-8.604,7.034-5.223,10.888c3.3,3.758,10.051,0.101,11.476-3.763c0.03-0.082,0.058-0.164,0.09-0.242
		c-0.752,0.981-1.501,1.964-2.249,2.946c-0.418,0.297-0.833,0.592-1.25,0.887c-1.098,0.355-2.19,0.705-3.287,1.058
		c0.033-0.001,0.067-0.003,0.101-0.005c-1.356-0.483-2.707-0.966-4.063-1.449c-1.179-1.127-0.941-3.259-0.842-1.616
		c3.899-2.24,7.802-4.483,11.703-6.726c-2.402-2.162-4.852-4.846-7.697-6.373c-1.942-1.041-4.38-0.112-5.908,1.23
		C828.842,508.557,828.1,510.519,828.58,512.742L828.58,512.742z"/>
	<path fill="#010101" d="M669.779,523.315c0.542,13.294,17.046,22.957,27.829,27.222c15.331,6.064,32.195,6.751,48.451,5.572
		c17.688-1.279,35.271-5.342,52.008-11.104c13.685-4.712,28.492-10.729,39.78-20.025c5.489-4.52,1.518-12.238-5.181-8.637
		c-3.654,1.966-7.146,4.4-10.592,6.716c-2.037,1.369-3.429,5.439,0.301,5.395c4.142-0.048,8.555-0.254,12.442-1.731
		c-0.718-3.458-1.435-6.919-2.154-10.379c-24.192,15.863-51.889,25.158-80.598,28.689c-15.294,1.881-31.161,1.762-46.128-2.181
		c-6.705-1.765-12.998-4.812-18.634-8.826c-5.272-3.752-8.654-9.756-13.951-13.28C671.834,519.734,669.717,521.827,669.779,523.315z
		"/>
	<path fill="#010101" d="M626.375,445.508c-7.358,0.989-13.744-2.659-20.623-4.625c-7.974-2.277-15.359,0.026-21.855,4.789
		c-14.568,10.688-18.315,28.48-9.033,43.906c8.757,14.55,24.969,14.672,39.631,11.305c5.223-1.199,11.663-3.012,14.251-8.18
		c2.708-5.413-2.97-7.377-7.06-5.177c-2.014,1.084-4.285,4.503-2.307,6.631c0.639,0.766,0.537,0.359-0.305-1.229
		c0.771-1.61,1.545-3.221,2.315-4.832c3.722-1.498,4.286-1.919,1.694-1.265c-0.504,0.149-1.002,0.317-1.494,0.502
		c-1.551,0.558-3.132,1.061-4.701,1.55c-4.379,1.356-8.897,2.021-13.462,2.27c-11.399,0.621-20.191-9.433-21.827-20.108
		c-0.873-5.687,1.096-11.28,5.07-15.364c5.404-5.549,10.703-5.229,17.562-3.294c8.274,2.336,17.715,4.856,23.447-3.61
		C628.518,447.534,628.451,445.23,626.375,445.508z"/>
	<path fill="#010101" d="M894.902,445.072c4.173-3.058,6.543-6.066,11.808-7.558c5.314-1.505,11.291-0.878,16.541,0.484
		c11.22,2.911,18.301,15.873,17.305,26.909c-0.954,10.582-7.82,19.588-15.932,25.922c-3.797,2.964-8.63,5.048-13.36,5.86
		c-5.202,0.892-10.014-1.405-15.11-0.063c-2.613,0.687-5.631,4.217-4.395,7.059c2.805,6.431,12.767,5.556,18.528,4.527
		c7.805-1.393,14.635-5.204,20.938-9.867c12.546-9.291,21.414-24.962,20.979-40.712c-0.444-16.288-13.885-28.795-29.42-30.657
		c-7.752-0.93-15.45,0.75-22.326,4.33c-4.532,2.361-10.666,7.947-9.362,13.561C891.519,446.707,894.003,445.729,894.902,445.072
		L894.902,445.072z"/>
	<path fill="#010101" d="M910.729,462.426c1.102,2.183,1.786,4.713,1.984,7.162c0.147,1.827-1.108,2.188-2.379,3.542
		c-1.232,1.321-2.346,2.75-2.241,4.679c0.107,2.051,1.934,3.408,3.935,3.172c5.877-0.685,10.828-5.938,10.973-11.924
		c0.129-5.316-2.983-8.51-7.308-10.987C913.484,456.805,909.495,459.983,910.729,462.426z"/>
	<path fill="#010101" d="M600.667,466.764c-2.386,3.042-5.132,6.231-5.64,10.222c-0.203,1.589,0.049,3.186,1.604,4.027
		c3.982,2.158,10.004,2.674,12.975-1.468c1.207-1.681,1.42-4.437-0.694-5.582c-1.675-0.906-3.799-1.121-5.573-1.806
		c0.566,0.936,1.139,1.871,1.704,2.807c-0.128-2.507,0.09-4.796,0.682-7.243C606.564,464.26,602.041,465.01,600.667,466.764
		L600.667,466.764z"/>
	<path fill="#010101" d="M613.226,499.39c-7.521,12.561-43.026,85.827-62.271,51.673c-0.401,1.874-0.804,3.747-1.204,5.622
		c0.271-0.301,0.542-0.605,0.814-0.908c-2.414,1.097-4.826,2.192-7.236,3.289c-2.854-0.958,0.756,1.014,1.101,1.219
		c1.633,0.958,3.995,0.5,5.515-0.446c0.338-0.21,0.676-0.419,1.012-0.63c1.592-0.99,3.262-2.844,3.043-4.888
		c-0.26-2.417-1.566-5.294-3.963-6.278c-2.974-1.224-6.788,0.085-8.537,2.835c-0.214,0.334-0.426,0.669-0.636,1.003
		c-1.3,2.046-2.277,4.625-0.521,6.759c6.312,7.664,13.675,13.042,24.055,10.908c9.961-2.048,17.893-9.421,24.563-16.651
		c8.031-8.708,14.341-19.044,19.63-29.594c3.38-6.741,8.32-16.257,7.063-24.108C615.413,497.698,613.717,498.569,613.226,499.39z"/>
	<path fill="#010101" d="M618.258,531.411c-3.873,18.016-29.512,99.956-57.758,70.176c-1.605,3.351-3.215,6.698-4.82,10.049
		c-0.611,0.128,2.733,0.745,3.296,0.689c1.573-0.159,3.262-1.278,3.861-2.782c1.249-3.146,1.276-5.485-0.645-8.319
		c-1.187-1.75-3.722-1.433-5.427-1.061c-0.563,0.119-1.124,0.24-1.688,0.365c-3.564,0.771-8.033,6.705-4.818,10.049
		c18.928,19.672,40.432,2.832,52.295-15.4c7.291-11.206,12.684-23.781,16.568-36.547c2.666-8.749,5.992-19.377,2.826-28.406
		C621.258,528.251,618.54,530.106,618.258,531.411L618.258,531.411z"/>
	<path fill="#010101" d="M894.216,514.69c-1.915,23.811,15.019,40.597,37.573,45.478c23.075,4.992,47.165-5.075,57.776-26.46
		c2.465-4.966-2.912-8.705-7.245-5.818c-3.761,2.51-6.354,5.016-7.63,9.428c-0.731,2.524,1.843,3.746,3.904,3.153
		c2.589-0.748,4.965-1.815,7.407-2.961c-2.416-1.94-4.831-3.879-7.245-5.818c-16.616,34.44-78.018,18.31-80.19-18.395
		C898.39,510.346,894.38,512.637,894.216,514.69z"/>
	<path fill="#010101" d="M891.406,547.26c-8.353,25.619,23.486,39.579,43.133,44.641c21.115,5.439,55.96,9.439,73.12-7.898
		c2.778-2.813,4.523-8.249-0.609-9.636c-6.421-1.735-12.284-1.521-18.281,1.375c-2.27,1.096-3.779,4.632-1.352,6.303
		c4.15,2.856,9.402,2.699,14.146,3.957c-0.204-3.213-0.407-6.425-0.609-9.636c-5.903,6.018-15.694,7.053-23.66,7.72
		c-12.072,1.008-24.249-0.193-36.072-2.691c-17.629-3.724-44.93-13.004-45.558-34.995
		C895.583,543.548,891.908,545.725,891.406,547.26z"/>
	<path fill="#010101" d="M883.665,580.398c-11.557,33.871,51.628,43.063,73.454,38.349c5.545-1.197,8.472-12.443,0.943-11.249
		c-3.434,0.545-6.473,0.948-9.085,3.4c-1.086,1.018-2.294,2.893-1.554,4.456c1.342,2.832,3.781,3.121,6.704,3.634
		c1.309-3.831,2.622-7.662,3.93-11.493c-13.689,0.852-26.929,0.208-40.356-2.927c-11.196-2.615-31.611-9.356-28.734-24.604
		C889.705,576.062,884.514,577.911,883.665,580.398L883.665,580.398z"/>
	<path fill="#010101" d="M792.063,291.379c17.152-7.758,32.352-17.313,51.224-21.036c8.666-1.71,18.274-2.405,26.75,0.566
		c3.976,1.396,11.582,3.415,13.208,7.963c-0.326-0.916,0.273-0.792-0.991,0.258c-1.641,1.36-3.942,2.216-5.898,3.004
		c-5.779,2.332-11.955,3.797-18.025,5.128c-11.421,2.501-23.141,2.513-34.57,4.537c-2.791,0.494-6.337,4.303-3.15,6.657
		c5.437,4.019,12.259,3.28,18.703,2.747c8.605-0.71,17.22-2.485,25.561-4.659c9.243-2.407,30.195-8.686,28.881-21.636
		c-0.65-6.44-8.38-9.532-13.495-11.557c-10.033-3.968-20.072-4.503-30.703-3.032c-11.952,1.657-23.478,5.739-34.415,10.706
		c-8.899,4.043-19.573,9.492-25.524,17.563C788.078,290.672,789.933,292.34,792.063,291.379z"/>
	<path fill="#010101" d="M729.661,283.077c-10.648-4.313-20.546-9.359-30.503-15.096c-8.693-5.012-17.523-9.52-27.666-10.089
		c-12.219-0.683-31.377,0.15-36.512,13.885c-6.08,16.266,12.261,23.73,24.691,25.586c14.343,2.139,35.151,2.979,47.899-4.923
		c2.065-1.281,4.19-5.568,0.521-6.373c-10.592-2.327-22.571,0.697-33.443,0.574c-6.556-0.073-13.179-0.836-19.484-2.657
		c-4.213-1.215-11.561-5.767-9.543-11.34c1.182-3.261,9.383-3.602,12.094-3.892c5.6-0.593,11.57-0.649,17.047,0.733
		c17.933,4.522,33.292,20.621,52.776,18.073C729.06,287.361,732.225,284.117,729.661,283.077z"/>
	<path fill="#010101" d="M680.891,643.839c-12.658,9.464-20.406,28.216-26.556,42.245c-7.447,17.001-12.984,34.811-17.585,52.769
		c-8.902,34.751-13.211,71.07-13.555,106.92c6.004-1.924,12.006-3.847,18.009-5.771c-0.005-4.78-0.671-8.665-4.923-11.339
		c-2.981-1.879-6.826,0.675-8.699,2.89c-3.6,4.256-4.377,8.78-4.385,14.223c-0.014,11.452,18.043,3.574,18.008-5.771
		c-0.133-33.682,3.99-67.138,11.04-100.043c3.746-17.472,8.695-34.744,14.979-51.473c2.935-7.813,6.254-15.504,9.885-23.021
		c3.041-6.299,7.227-13.009,8.857-19.823C686.798,642.178,682.698,642.487,680.891,643.839L680.891,643.839z"/>
	<path fill="#010101" d="M851.361,633.77c4.601,16.343,12.361,31.589,19.397,46.971c7.767,16.989,15.312,34.076,21.924,51.551
		c6.568,17.372,12.161,35.16,16.146,53.307c1.983,9.034,3.223,18.26,4.11,27.46c0.8,8.249-0.609,17.547,1.878,25.434
		c3.163-4.101,6.321-8.204,9.485-12.305c-1.055,0.018-2.101,0.128-3.138,0.339c-2.781,0.379-5.652,2.498-6.164,5.41
		c-0.28,1.585-0.443,3.127-0.561,4.732c-0.245,3.492,3.514,5.479,6.497,5.236c4.818-0.391,8.297-4.149,9.695-8.507
		c2.565-8.011,0.956-17.814,0.206-26.076c-0.79-8.726-2.398-17.326-4.186-25.892c-3.954-18.958-10.266-37.372-17.613-55.257
		c-7.07-17.213-15.188-34.027-23.877-50.478c-8.355-15.815-16.737-32.083-28.026-46.045
		C854.909,626.912,850.605,631.076,851.361,633.77L851.361,633.77z"/>
	<path fill="#010101" d="M622.813,848.924c-0.271,18.326,30.976,24.957,44.295,27.706c22.411,4.628,45.756,5.259,68.575,5.221
		c29.596-0.051,58.59-2.028,87.638-8.035c34.369-7.108,67.678-18.176,101.001-29.037c7.745-2.521,13.356-17.187,1.413-16.865
		c-7.528,0.203-15.324,1.254-21.691,5.555c-3.791,2.56-8.286,10.801-1.012,12.355c6.198,1.325,12.725-0.405,18.987-0.577
		c0.473-5.623,0.942-11.243,1.413-16.866c-30.657,10.012-61.29,20.199-92.774,27.345c-28.662,6.501-57.536,8.745-86.854,8.906
		c-20.668,0.115-41.282,0.042-61.866-2.1c-10.381-1.083-20.739-2.944-30.719-6.03c-8.43-2.61-15.179-8.421-23.295-11.25
		C625.505,844.399,622.849,846.346,622.813,848.924L622.813,848.924z"/>
	<path fill="#010101" d="M684.856,871.094c-17.287,41.599,6.533,85.059,11.115,126.911c2.928-2.569,5.854-5.14,8.783-7.707
		c-16.043-4.357-45.686,3.091-31.566,24.571c6.841,10.414,20.492,9.859,31.342,7.953c6.145-1.081,12.152-2.815,18.107-4.645
		c3.993-1.231,10.659-2.097,13.028-5.944c2.672-4.344,0.986-9.573-4.87-8.011c-2.812,0.752-4.833,1.776-7.133,3.534
		c-1.467,1.121-2.967,4.307-1.261,5.881c2.322,2.139,4.306,2.365,7.438,1.979c-1.105-2.773-2.21-5.55-3.315-8.323
		c-0.02,0.027-0.035,0.05-0.055,0.075c1.427-1.023,2.849-2.047,4.273-3.072c-12.686,3.849-27.175,10.197-40.571,6.968
		c-3.627-0.874-6.164-4.275-7.831-7.362c-0.358-0.661-0.449-3.147-1.159-2.033c-0.479,0.75,1.194-0.292,1.611-0.429
		c5.102-1.671,11.431-0.891,16.531,0.381c3.968,0.99,9.32-3.594,8.784-7.707c-2.627-20.111-8.756-39.353-14.018-58.875
		c-5.701-21.157-7.833-42.485-6.714-64.353C687.451,869.357,685.208,870.246,684.856,871.094L684.856,871.094z"/>
	<path fill="#010101" d="M712.092,875.496c-6.734,10.549-6.393,23.637-5.436,35.729c1.113,14.065,3.342,28.23,5.063,42.249
		c0.757,6.142,1.786,12.231,3.154,18.271c0.962,4.237,4.069,7.97,6.499,11.496c2.922,4.236,5.914,8.425,8.266,13.017
		c0.737,1.442,1.436,3.032,1.655,4.647c2.82-2.576,3.095-3.336,0.822-2.281c-1.526,0.527-2.67,1.456-3.868,2.497
		c-1.807,1.569-2.933,4.299-1.371,6.406c6.232,8.418,17.569-4.39,16.579-11.639c-1.343-9.844-10.027-18.734-15.261-26.758
		c-3.879-5.951-4.063-15.16-5.076-22.029c-1.149-7.793-1.797-15.698-3.5-23.4c-3.538-15.974-4.256-31.814-4.859-48.07
		C714.699,874.125,712.643,874.63,712.092,875.496L712.092,875.496z"/>
	<path fill="#010101" d="M840.975,860.266c-2.888,10.466-2.365,21.604-2.33,32.374c0.034,11.354,0.484,22.719,1.206,34.048
		c1.452,22.846,4.215,45.563,7.983,68.138c2.964-2.598,5.921-5.195,8.884-7.793c-19.717-5.211-42.286,8.043-39.283,30.188
		c0.289,2.133,1.361,3.266,3.396,3.87c19.782,5.859,39.348-2.956,59.168,0.013c-0.622-2.784-1.241-5.567-1.865-8.354
		c1.262-1.568-1.586,0.19-2.15,0.436c-1.926,0.838-3.077,1.97-4.468,3.506c-1.267,1.394-1.739,4.607,0.378,5.539
		c6.43,2.833,11.029,0.767,15.489-4.485c2.172-2.56,2.263-7.736-1.865-8.354c-19.801-2.957-39.64,5.791-59.18,0.013
		c1.131,1.291,2.263,2.58,3.395,3.87c-1.866-13.705,10.002-17.573,21.492-14.592c3.854,1,9.646-3.664,8.883-7.794
		c-4.155-22.406-7.279-44.985-9.454-67.67c-1.073-11.176-1.971-22.371-2.664-33.579c-0.629-10.097-0.262-20.838-3.458-30.524
		C843.876,857.154,841.298,859.098,840.975,860.266L840.975,860.266z"/>
	<path fill="#010101" d="M874.543,854.984c-11.935,27.757-8.29,61.795-2.236,90.77c3.654,17.495,8.391,34.392,10.933,52.111
		c0.629,4.382,1.98,8.63,2.811,12.969c0.144,0.799,0.251,1.603,0.319,2.412c0.399,3.68,6.812-2.312,3.754-2.837
		c-3.657-0.631-6.73-1.48-10.503-1.865c-3.027-0.31-6.89,3.213-4.758,6.23c3.562,5.04,7.192,7.502,13.495,7.634
		c4.505,0.094,9.3-4.376,10.042-8.702c0.799-4.663-0.488-9.212-1.574-13.727c-1.865-7.736-2.298-15.665-3.921-23.459
		c-8.151-39.061-22.506-80.886-14.552-121.358C878.863,852.554,875.274,853.284,874.543,854.984L874.543,854.984z"/>
	<path fill="#010101" d="M687.71,632.425c-13.954-8.87-36.964,2.293-48.86,10.221c-16.275,10.849-29.416,27.117-37.465,44.881
		c-1.307,2.889-1.518,7.662,2.051,9.182c6.249,2.666,12.614,5.031,19.019,7.299c5.761,2.038,12.469,5.379,18.608,5.737
		c3.91,0.227,8.168-1.221,10.4-4.725c6.398-10.057-5.797-12.94-12.637-15.124c-8.009-2.562-15.938-5.394-23.703-8.612
		c0.684,3.061,1.365,6.122,2.05,9.183c5.934-14.259,14.062-26.274,26.128-36.058c5.942-4.82,13.021-8.496,20.175-11.115
		c7.39-2.704,15.417-3.426,22.693-6.389C687.723,636.27,689.809,633.758,687.71,632.425L687.71,632.425z"/>
	<path fill="#010101" d="M846.971,623.135c6.431,2.679,13.046,4.193,19.244,7.506c7.363,3.936,13.873,9.05,19.845,14.858
		c11.615,11.296,21.25,26.051,25.021,41.923c2.676-4.299,5.352-8.598,8.026-12.896c-8.064,3.27-15.705,7.4-23.622,10.987
		c-5.229,2.367-7.856,9.015-4.795,13.765c2.221,3.442,7.462,1.832,10.267,0.549c6.403-2.925,12.572-6.348,19.025-9.16
		c5.129-2.235,9.665-6.869,8.028-12.896c-4.847-17.827-16.917-33.257-30.77-45.106c-12.283-10.503-31.623-21.821-48.226-15.466
		C847.305,617.856,843.828,621.829,846.971,623.135L846.971,623.135z"/>
	<path fill="#010101" d="M621.211,694.739c-13.861,7.563-24.164,20.884-32.788,33.787c-9.955,14.888-15.567,30.553-22.134,46.976
		c3.201-2.306,6.4-4.613,9.6-6.92c-2.805,0.063-5.595,0.841-8.321,1.462c-1.271,0.301-2.543,0.604-3.815,0.905
		c-3.42,0.813-3.02-0.33,0.126,2.25c-0.871,4.064-1.741,8.129-2.612,12.194c0.799-0.646,1.607-1.277,2.43-1.899
		c6.787-5.153,3.699-14.669-4.98-12.801c-2.809,0.604-5.027,1.623-7.267,3.509c-4.272,3.6-5.761,9.766-1.04,13.446
		c5.312,4.143,16.178-1.559,21.892-2.32c5.432-0.724,10.671-5.372,10.509-11.168c-0.365-13.325,8.883-28.529,15.295-39.667
		c7.471-12.977,17.137-24.423,26.092-36.355C626.003,695.735,623.807,693.324,621.211,694.739L621.211,694.739z"/>
	<path fill="#010101" d="M566.685,787.665c-2.932,5.302-5.332,10.86-7.427,16.541c-1.314,3.57-6.922,13.748,0.672,14.72
		c3.563,0.458,7.371-2.165,8.674-5.469c1.181-2.99,0.646-5.101,0.824-8.002c0.352-5.795,1.436-11.879,2.729-17.534
		C573.045,784.018,567.862,785.535,566.685,787.665z"/>
	<path fill="#010101" d="M580.572,793.969c-2.659,5.142-4.3,9.938-4.743,15.745c-0.43,5.631,0.424,13.09,6.742,14.593
		c4.607,1.099,8.453-3.669,8.793-7.713c0.303-3.641-2.658-7.115-3.967-10.498c-1.336-3.461-1.105-8.284-0.293-11.82
		C588.158,789.678,581.942,791.321,580.572,793.969L580.572,793.969z"/>
	<path fill="#010101" d="M917.172,702.272c12.599,18.013,22.873,37.224,37.084,54.159c12.051,14.36,28.495,30.15,48.818,25.75
		c-2.219-0.436-4.438-0.871-6.656-1.306c0.137,0.227,0.272,0.447,0.408,0.674c1.964-4.095,3.923-8.183,5.889-12.277
		c-3.381,1.301-5.752,3.167-8.025,5.949c-1.295,1.584-1.647,4.325,0.375,5.491c1.695,0.971,2.678,2.007,4.675,2.434
		c5.207,1.118,13.069-5.573,10.456-11.144c-0.112-0.238-0.228-0.481-0.338-0.72c-1.018-2.165-3.17-3.461-5.609-3.128
		c-17.539,2.391-32.686-14.116-43.417-25.794c-13.295-14.465-24.885-30.453-38.919-44.249
		C919.647,695.883,915.379,699.71,917.172,702.272L917.172,702.272z"/>
	<path fill="#010101" d="M967.894,788.927c-1.891,5.019-3.013,11.369-1.254,16.573c0.803,2.375,2.487,3.948,4.397,5.425
		c3.556,2.743,8.568,0.667,11.514-1.766c1.9-1.568,2.901-4.039,2.242-6.432c-0.575-2.088-1.969-3.086-3.811-3.966
		c-1.721-0.824-1.307-0.21-2.44-1.761c0.569,0.777-0.396-0.93-0.386-0.904c-0.283-0.637-0.521-1.361-0.623-2.043
		c-0.293-1.957-0.122-3.925-0.274-5.887C976.837,782.678,969.234,785.365,967.894,788.927L967.894,788.927z"/>
	<path fill="#010101" d="M986.93,791.452c0.501,1.065,0.7,2.431,1.085,3.566c0.56,1.668,1.224,3.288,1.965,4.89
		c1.466,3.166,2.28,6.702,5.397,8.666c3.61,2.274,9.068-1.954,9.62-5.588c0.666-4.407-1.599-7.526-4.519-10.571
		c-1.251-1.307-2.739-2.618-4.332-3.486c-1.377-0.752-2.794-1.223-4.161-1.908C989.683,785.854,985.711,788.867,986.93,791.452
		L986.93,791.452z"/>
	<path fill="#010101" d="M712.598,640.295c-11.803,10.112-4.998,30.35,3.646,39.856c10.818,11.897,27.687,17.704,43.286,19.357
		c16.288,1.724,33.227-1.286,46.35-11.503c14.873-11.581,16.797-30.646,12.384-47.768c-0.495-1.917-2.872-2.729-4.608-2.571
		c-5.212,0.479-9.504,2.125-13.508,5.479c-2.984,2.499-3.032,7.648,1.648,7.656c3.207,0.008,6.136-0.996,9.323-1.29
		c-1.538-0.857-3.076-1.715-4.611-2.572c3.105,12.016,2.86,26.408-8.343,34.158c-10.464,7.24-24.615,8.132-36.861,6.666
		c-12.992-1.557-26.499-6.358-36.173-15.414c-4.144-3.881-7.361-8.793-9.116-14.192c-1.85-5.698,0.403-12.39-1.68-17.767
		C714.045,639.629,713.065,639.894,712.598,640.295L712.598,640.295z"/>
	<path fill="#010101" d="M628.382,716.156c-13.107,4.889-21.671,16.634-28.563,28.296c-4.283,7.238-7.422,15.19-10.268,23.08
		c-2.035,5.639-5.387,12.895-3.643,18.893c0.658,2.259,3.72,0.722,4.612-0.372c3.21-3.934,4.439-9.102,5.978-13.868
		c2.219-6.885,4.746-13.609,7.756-20.186c5.99-13.095,14.394-23.676,25.195-33.099C630.643,717.857,630.353,715.422,628.382,716.156
		z"/>
	<path fill="#010101" d="M915.099,718.492c4.216,11.396,11.797,21.21,19.15,30.748c7.985,10.36,14.12,22.001,22.139,32.27
		c1.096,1.401,3.533-0.539,3.374-1.94c-1.374-12.401-9.171-22.222-16.939-31.487c-8.672-10.346-17.67-20.141-25.385-31.26
		C916.656,715.696,914.695,717.401,915.099,718.492L915.099,718.492z"/>
	<path fill="#010101" d="M745.38,508.066c3.254-0.87,6.87-1.071,9.5-3.398c1.07-0.947,1.91-2.345,1.833-3.82
		c-0.091-1.706-1.576-2.744-3.213-2.593c-1.163,0.105-2.102,0.433-3.143,0.946c-0.3,0.152-0.597,0.298-0.9,0.434
		c0.688-0.324-0.684,0.284-0.648,0.27c-1.99,0.84-3.642,1.852-5.388,3.12C740.787,504.943,741.947,508.986,745.38,508.066z"/>
</g>
<g id="girl_1_">
	<path fill="#010101" d="M292.312,316.167c-2.575,0.246-0.637,3.795,0.899,4.19c17.54,4.534,33.948,12.337,47.771,24.107
		c22.254,18.958,38.583,44.766,50.001,71.468c11.837,27.684,19.573,58.1,19.586,88.346c0.012,28.648-6.804,54.79-25.97,76.654
		c-26.548,30.28-67.09,52.197-107.51,55.612c-37.688,3.181-74.218-15.153-97.923-44.317c-20.082-24.708-24.429-59.666-23.545-90.497
		c0.962-33.529,7.318-68.203,22.477-98.39c17.551-34.955,47.2-60.38,80.772-79.225c7.143-4.009-2.202-12.393-7.372-12.113
		c-33.328,1.813-59.354,30.316-77.762,55.695c-15.354,21.168-25.258,44.969-31.082,70.427
		c-7.817,34.185-10.575,70.518-3.599,105.119c3.157,15.648,8.202,31.08,16.479,44.803c9.486,15.729,23.47,28.96,38.172,39.834
		c31.968,23.637,69.691,33.782,108.953,24.501c38.854-9.188,78.299-30.531,102.35-63.186c35.443-48.116,24.949-115.307,3.603-167.22
		c-11.489-27.94-27.41-54.749-49.378-75.744C341.517,329.3,317.824,313.734,292.312,316.167L292.312,316.167z"/>
	<path fill="#010101" d="M281.208,274.393c5.585,4.654,15.676,17.853,9.527,25.29c-2.814,3.406-6.747,7.222-11.229,8.264
		c-3.508,0.818-5.813,0.321-7.701-0.781c-1.668-0.974-4.161-3.377-5.043-4.976c-2.622-4.745-3.938-11.601,0.101-14.472
		c9.358-6.655,20.82,2.2,30.741-1.628c2.182-0.843,1.535-4.15,0.374-5.491c-8.598-9.935-34.77-14.688-43.797-2.022
		c-6.7,9.405-3.181,22.589,3.874,30.84c7.991,9.349,21.303,15.38,32.89,8.423c7.517-4.514,14.083-12.683,11.938-21.954
		c-2.547-11.001-10.864-18.96-21.019-23.187C280.673,272.205,280.462,273.77,281.208,274.393z"/>
	<path fill="#010101" d="M254.934,282.01c1.593,1.442,3.477,0.015,2.313-1.837c-21.49-34.331-57.343-56.08-95.099-68.565
		c-20.033-6.625-41.457-10.47-62.609-10.304c-6.495,0.052-13.016,0.657-19.513,0.488c-4.015-0.104-8.815-1.9-12.056-0.887
		c2.232,0.733,4.465,1.466,6.698,2.197c0.78,1.135,1.563,2.269,2.346,3.402c-0.508-3.138-3.537-5.051-6.388-5.606
		c-1.817-0.352-4.078-0.058-5.316,1.491c-2.547,3.18-0.439,7.194,2.059,9.618c4.211,4.08,10.225,3.412,15.574,3.06
		c6.092-0.401,12.182-0.884,18.277-1.248c19.283-1.148,39.302,1.684,57.685,7.511c18.753,5.938,36.993,13.408,53.329,24.495
		C227.704,256.323,241.107,269.512,254.934,282.01L254.934,282.01z"/>
	<path fill="#010101" d="M295.909,280.454c8.68-1.879,14.388-10.26,20.109-16.509c6.334-6.918,12.783-13.819,19.828-20.023
		c11.174-9.84,23.256-18.229,36.352-25.322c13.713-7.428,28.287-13.88,43.646-16.992c13.37-2.712,23.982-1.713,36.847,2.17
		c7.389,2.23,9.506-6.648,4.156-10.679c-25.396-19.132-66.262-2.712-90.586,10.426c-13.615,7.353-26.181,16.271-37.664,26.637
		c-8.377,7.566-15.782,15.979-22.912,24.714c-5.339,6.538-12.634,13.584-13.485,22.324
		C292.029,278.975,294.185,280.824,295.909,280.454z"/>
	<path fill="#010101" d="M449.946,204.088c10.241,11.352,16.319,28.502,19.761,43.146c3.494,14.866,5.652,30.529,3.465,45.739
		c0.809-1.332,1.619-2.664,2.428-3.996c-52.649,33.522-118.652,21.056-177.219,18.872c-3.846-0.143-2.978,4.734-0.334,5.964
		c21.784,10.136,45.896,12.045,69.717,12.486c26.741,0.496,54.35-0.871,80.267-7.975c11.002-3.013,22.17-6.774,31.832-12.974
		c6.185-3.964,7.965-5.914,7.33-13.434c-0.539-6.372-0.772-12.753-1.69-19.093c-3.902-26.93-12.889-51.883-32.699-70.999
		C450.99,200.079,448.074,202.02,449.946,204.088z"/>
	<path fill="#010101" d="M76.173,205.77c-4.32,2.773-7.889,4.443-11.507,8.421c-3.152,3.465-5.782,7.035-8.192,11.056
		c-5.391,8.996-9.669,18.604-12.53,28.708c-5.223,18.447-7.195,38.652-0.433,56.961c1.296,3.514,7.852,8.083,11.564,5.255
		c3.274-2.494,3.823-3.653,4.607-7.701c0.733-3.797-4.293-7.056-7.543-6.62c-1.774,0.211-3.542,0.472-5.306,0.777
		c3.321,1.937,6.644,3.872,9.966,5.809c-5.731-16.428-3.709-35.279,0.94-51.724c2.44-8.649,5.502-17.261,9.569-25.291
		c3.688-7.281,7.266-15.752,11.854-22.44C80.255,207.39,77.86,204.685,76.173,205.77z"/>
	<path fill="#010101" d="M255.401,305.718c-6.456,1.694-12.489,5.056-18.986,6.905c-6.765,1.923-13.72,3.256-20.707,4.089
		c-15.34,1.83-30.83,1.846-46.259,1.612c-39.007-0.583-76.715-0.334-114.607-11.235c0.397,4.73,0.792,9.459,1.188,14.189
		c4.653,0.277,9.839,1.646,14.051-0.894c1.943-1.174,1.491-3.57,0.353-5.147c-4.115-5.706-10.684-8.094-17.526-8.537
		c-9.91-0.643-5.468,12.307,1.188,14.189c40.184,11.352,80.515,9.788,121.769,8.891c16.166-0.352,32.563-1.191,48.39-4.734
		c10.574-2.367,27.82-6.562,32.737-17.634C257.356,306.589,256.209,305.51,255.401,305.718z"/>
	<path fill="#010101" d="M292.036,319.77c12.661,9.658,23.549,23.351,29.518,38.149c3.134,7.771,5.441,16.303,5.279,24.755
		c-0.139,7.279-2.89,14.534-2.127,21.708c0.197,1.854,3.455,4.497,5.281,3.069c6.541-5.116,7.093-16.214,6.563-23.943
		c-0.645-9.389-2.81-18.566-6.826-27.115c-7.885-16.778-19.947-30.263-35.686-39.961
		C291.521,314.884,289.869,318.124,292.036,319.77z"/>
	<path fill="#010101" d="M276.936,322.898c-2.176-0.04-2.683,2.158-1.475,3.701c4.231,5.43,9.303,8.724,11.429,15.735
		c1.913,6.306,2.484,12.841,1.636,19.391c-0.946,7.292-2.845,14.381-6.092,21.007c-2.551,5.206-5.903,9.813-8.565,14.902
		c-0.874,1.668,1.663,3.793,3.212,3.426c16.131-3.852,22.659-27,22.405-41.284c-0.15-8.406-1.64-16.527-5.898-23.865
		C290.364,330.351,283.899,323.028,276.936,322.898L276.936,322.898z"/>
	<path fill="#010101" d="M261.701,324.705c-0.882-1.259-3.993-1.616-3.394,0.64c3.324,12.617,5.236,24.904,0.682,37.559
		c-2.336,6.496-5.553,12.458-9.824,17.903c-3.391,4.32-7.301,8.238-9.495,13.32c-1.049,2.423,2.362,5.969,4.838,5.158
		c13.907-4.554,22.527-21.965,25.357-35.388C272.702,350.442,269.588,335.943,261.701,324.705L261.701,324.705z"/>
	<path fill="#010101" d="M305.992,446.228c1.683,6.568,2.322,15.225,1.835,21.971c-0.13,1.78-0.194,3.774-1.104,5.375
		c-0.352,0.619-0.276-0.196,0.664,0.46c1.82,1.267,0.197-0.313-0.213-1.43c-0.514-1.396-0.846-2.901-1.078-4.367
		c-0.592-3.751-0.77-7.658-0.13-11.422c0.213-1.273,0.521-2.592,1.105-3.756c0.68-1.344,0.99-0.541-0.253-0.791
		c-3.263-0.654-0.815,0.56-0.803,3.392c0.007,2.02-0.085,4.044-0.482,6.034c-0.581,2.901-1.517,6.192-3.556,8.413
		c3.622,0.752,7.243,1.503,10.866,2.258c-4.277-4.995-4.331-10.739-1.32-16.434c-3.986-0.322-7.969-0.645-11.954-0.966
		c7.564,8.508,0.267,18.754,4.676,28.019c0.879,1.847,3.072,3.437,5.197,3.03c15.108-2.885,7.335-29.317,0.654-36.739
		c-3.027-3.358-9.197-6.281-11.957-0.965c-5.008,9.658-2.906,21.716,4.437,29.609c2.408,2.589,7.748,6.052,10.865,2.259
		c8.74-10.639,7.766-32.119-5.252-38.832c-14.79-7.627-15.771,16.256-14.338,24.632c1.119,6.559,3.456,13.355,9.188,17.254
		c4.22,2.87,11.029,3.023,13.686-1.982c5.327-10.039-1.881-27.163-7.697-35.593C308.239,444.511,305.473,444.215,305.992,446.228z"
		/>
	<path fill="#010101" d="M274.526,445.477c-1.437-1.325-5.369-1.93-5.316,1.039c0.159,8.975,2.342,22.453-6.042,28.76
		c3.334,1.516,6.671,3.033,10.005,4.548c-3.632-6.365-7.813-20.21-5.025-27.274c0.787-1.994-1.593-1.904-1.749-2.632
		c0.525,2.471,0.391,4.988-0.004,7.48c-0.603,3.824-2.147,9.89-3.66,12.367c4.224,1.387,8.445,2.771,12.67,4.155
		c-1.351-3.403-3.171-6.832-2.382-10.595c-4.55-0.926-9.095-1.852-13.646-2.779c2.909,4.79,4.901,10.191,7.223,15.288
		c1.219,2.675,5.938,5.045,7.65,1.559c3.247-6.604,1.923-13.112-1.653-19.31c-2.914-5.047-12.307-9.497-13.988-1.132
		c-1.411,7.01,1.106,13.007,3.711,19.416c2.153,5.289,10.18,8.334,13.514,2.752c4.145-6.938,5.854-17.809,4.568-25.707
		c-1.395-8.562-10.531-18.971-20.144-14.165c-7.775,3.884-6.377,15.355-5.076,22.352c1.384,7.433,3.303,15.47,7.423,21.909
		c2.146,3.352,7.103,4.784,10.202,2.119C282.496,477.286,284.292,454.49,274.526,445.477L274.526,445.477z"/>
	<path fill="#010101" d="M373.767,523.601c-1.605,2.057-6.681-2.912-3.736,0.102c-0.334-0.375-0.326-0.351,0.033,0.072
		c0.301,0.487,0.683,0.906,1.027,1.365c-0.311-1.447-0.621-2.896-0.932-4.342c-0.588,2.032-0.121,3.763,1.145,5.448
		c1.891-2.156,3.78-4.309,5.672-6.465c-2.243-1.134-4.559-2.048-6.895-2.973c-1.822-0.723-4.102-1.324-5.644-2.418
		c-2.577-1.829-7.2-1.598-8.463,1.702c-1.39,3.619,1.526,7.192,4.364,9.013c3.947,2.535,9.804,3.514,13.705,2.516
		c4.464-1.139,3.352-6.389,0.556-8.751c0.527,0.893,0.146,0.532-1.146-1.087c-0.707-0.604-1.475-1.111-2.305-1.523
		c-1.255-0.679-2.561-1.024-3.926-1.363c-1.525-0.38-3.002-0.813-4.506-1.267c0.354,4.193,0.704,8.387,1.055,12.58
		c1.742-0.043,3.973,0.937,5.723,1.41c2.311,0.625,4.588,1.217,6.95,1.608c5.33,0.887,4.901-6.229,1.833-8.518
		c-1.69-1.259-3.609-2.385-5.805-1.775c1.147,0.233,2.294,0.467,3.442,0.701c-0.357-0.228-0.707-0.461-1.062-0.689
		c-1.213-0.512-1.48-0.637-0.802-0.373c-0.126-0.063-0.253-0.126-0.379-0.19c-0.899-0.408-1.823-0.888-2.845-0.845
		c-2.049,0.087-3.439,1.16-3.018,3.388C368.209,523.023,371.95,525.921,373.767,523.601z"/>
	<path fill="#010101" d="M210.05,512.742c0.48-2.223-0.262-4.185-1.99-5.698c-1.528-1.342-3.966-2.271-5.908-1.23
		c-2.846,1.527-5.295,4.211-7.697,6.373c3.901,2.242,7.804,4.485,11.703,6.726c0.1-1.643,0.337,0.489-0.842,1.616
		c-1.356,0.483-2.707,0.966-4.063,1.449c0.033,0.002,0.067,0.004,0.101,0.005c-1.097-0.353-2.189-0.702-3.287-1.058
		c-0.417-0.295-0.832-0.59-1.25-0.887c-0.748-0.982-1.497-1.965-2.249-2.946c0.032,0.078,0.06,0.16,0.09,0.242
		c1.425,3.863,8.176,7.521,11.476,3.763c3.381-3.854-1.293-9.82-5.223-10.888c1.262,0.562,1.624,0.713,1.078,0.467
		c-1.019-0.592-2.114-0.944-3.285-1.057c-1.469-0.119-3.186,0.254-4.163,1.453c-0.898,1.104-1.184,2.367-1.111,3.757
		c0.157,3.04,1.756,5.589,4.428,7.113c2.168,1.236,5.443,1.729,7.277-0.389c1.196-1.38,2.124-3.128,3.017-4.7
		C208.906,515.512,209.719,514.256,210.05,512.742L210.05,512.742z"/>
	<path fill="#010101" d="M365.278,520.746c-5.297,3.524-8.679,9.528-13.951,13.28c-5.636,4.015-11.929,7.062-18.634,8.826
		c-14.967,3.942-30.834,4.062-46.128,2.181c-28.709-3.531-56.405-12.826-80.598-28.689c-0.72,3.46-1.437,6.921-2.154,10.379
		c3.888,1.478,8.301,1.684,12.442,1.731c3.729,0.045,2.338-4.025,0.301-5.395c-3.446-2.315-6.938-4.75-10.592-6.716
		c-6.698-3.602-10.67,4.117-5.181,8.637c11.288,9.297,26.096,15.313,39.78,20.025c16.737,5.762,34.32,9.824,52.008,11.104
		c16.256,1.179,33.12,0.492,48.451-5.572c10.783-4.265,27.287-13.928,27.829-27.222
		C368.913,521.827,366.796,519.734,365.278,520.746z"/>
	<path fill="#010101" d="M410.951,448.776c5.732,8.466,15.173,5.946,23.447,3.61c6.858-1.936,12.157-2.255,17.562,3.294
		c3.975,4.084,5.943,9.678,5.07,15.364c-1.636,10.676-10.428,20.729-21.827,20.108c-4.564-0.249-9.083-0.913-13.462-2.27
		c-1.569-0.489-3.15-0.993-4.701-1.55c-0.492-0.185-0.99-0.353-1.494-0.502c-2.592-0.654-2.027-0.233,1.694,1.265
		c0.771,1.61,1.544,3.222,2.315,4.832c-0.842,1.588-0.943,1.995-0.305,1.229c1.979-2.127-0.293-5.547-2.307-6.631
		c-4.09-2.201-9.768-0.236-7.06,5.177c2.588,5.168,9.028,6.981,14.251,8.18c14.662,3.367,30.874,3.246,39.631-11.305
		c9.282-15.425,5.535-33.218-9.033-43.906c-6.496-4.763-13.882-7.066-21.855-4.789c-6.879,1.966-13.265,5.614-20.623,4.625
		C410.179,445.23,410.113,447.534,410.951,448.776z"/>
	<path fill="#010101" d="M143.729,445.072c0.898,0.657,3.383,1.636,3.808-0.204c1.304-5.613-4.83-11.2-9.362-13.561
		c-6.876-3.58-14.574-5.26-22.326-4.33c-15.535,1.861-28.976,14.369-29.42,30.657c-0.436,15.75,8.433,31.421,20.979,40.712
		c6.303,4.663,13.133,8.474,20.938,9.867c5.762,1.028,15.724,1.903,18.528-4.527c1.236-2.842-1.781-6.372-4.395-7.059
		c-5.097-1.342-9.908,0.954-15.11,0.063c-4.73-0.812-9.563-2.896-13.36-5.86c-8.111-6.334-14.978-15.34-15.932-25.922
		c-0.996-11.036,6.085-23.999,17.305-26.909c5.25-1.363,11.227-1.99,16.541-0.484C137.186,439.005,139.556,442.013,143.729,445.072
		L143.729,445.072z"/>
	<path fill="#010101" d="M122.938,458.069c-4.324,2.477-7.437,5.67-7.308,10.987c0.145,5.986,5.096,11.24,10.973,11.924
		c2.001,0.235,3.827-1.121,3.935-3.172c0.104-1.929-1.009-3.357-2.241-4.679c-1.271-1.354-2.526-1.714-2.379-3.542
		c0.198-2.449,0.883-4.979,1.984-7.162C129.135,459.983,125.147,456.805,122.938,458.069z"/>
	<path fill="#010101" d="M437.963,466.764c-1.374-1.754-5.896-2.504-5.057,0.957c0.592,2.447,0.81,4.735,0.682,7.243
		c0.565-0.936,1.138-1.871,1.704-2.807c-1.774,0.685-3.898,0.899-5.573,1.806c-2.114,1.145-1.901,3.901-0.694,5.582
		c2.971,4.142,8.992,3.625,12.975,1.468c1.555-0.841,1.807-2.438,1.604-4.027C443.095,472.995,440.349,469.806,437.963,466.764
		L437.963,466.764z"/>
	<path fill="#010101" d="M422.978,499.195c-1.258,7.851,3.683,17.367,7.063,24.108c5.289,10.55,11.599,20.886,19.63,29.594
		c6.671,7.23,14.603,14.604,24.563,16.651c10.38,2.134,17.743-3.244,24.055-10.908c1.757-2.134,0.779-4.713-0.521-6.759
		c-0.21-0.334-0.422-0.669-0.636-1.003c-1.749-2.75-5.563-4.059-8.537-2.835c-2.396,0.984-3.703,3.861-3.963,6.278
		c-0.219,2.044,1.451,3.897,3.043,4.888c0.336,0.211,0.674,0.42,1.012,0.63c1.52,0.946,3.882,1.404,5.515,0.446
		c0.345-0.205,3.954-2.177,1.101-1.219c-2.41-1.097-4.822-2.192-7.236-3.289c0.272,0.303,0.544,0.607,0.814,0.908
		c-0.4-1.875-0.803-3.748-1.204-5.622c-19.245,34.153-54.751-39.112-62.271-51.673C424.913,498.569,423.217,497.698,422.978,499.195
		z"/>
	<path fill="#010101" d="M420.372,531.411c-0.282-1.305-3-3.16-3.691-1.188c-3.166,9.029,0.16,19.657,2.826,28.406
		c3.885,12.766,9.277,25.341,16.568,36.547c11.863,18.232,33.367,35.072,52.295,15.4c3.215-3.344-1.254-9.278-4.818-10.049
		c-0.563-0.125-1.125-0.246-1.688-0.365c-1.705-0.372-4.24-0.689-5.427,1.061c-1.921,2.834-1.894,5.173-0.645,8.319
		c0.6,1.504,2.288,2.623,3.861,2.782c0.563,0.056,3.907-0.562,3.296-0.689c-1.605-3.351-3.215-6.698-4.82-10.049
		C449.884,631.367,424.245,549.427,420.372,531.411L420.372,531.411z"/>
	<path fill="#010101" d="M140.064,513.297c-2.173,36.704-63.574,52.835-80.19,18.395c-2.414,1.939-4.829,3.878-7.245,5.818
		c2.442,1.146,4.818,2.213,7.407,2.961c2.062,0.593,4.636-0.629,3.904-3.153c-1.276-4.412-3.869-6.918-7.63-9.428
		c-4.333-2.887-9.71,0.853-7.245,5.818c10.611,21.385,34.701,31.452,57.776,26.46c22.555-4.881,39.488-21.667,37.573-45.478
		C144.25,512.637,140.24,510.346,140.064,513.297z"/>
	<path fill="#010101" d="M142.967,546.399c-0.628,21.991-27.929,31.271-45.558,34.995c-11.823,2.498-24,3.699-36.072,2.691
		c-7.966-0.667-17.757-1.702-23.66-7.72c-0.202,3.211-0.405,6.423-0.609,9.636c4.744-1.258,9.996-1.101,14.146-3.957
		c2.428-1.671,0.918-5.207-1.352-6.303c-5.997-2.896-11.86-3.11-18.281-1.375c-5.133,1.387-3.388,6.823-0.609,9.636
		c17.16,17.338,52.005,13.338,73.12,7.898c19.646-5.062,51.485-19.021,43.133-44.641
		C146.722,545.725,143.047,543.548,142.967,546.399z"/>
	<path fill="#010101" d="M154.965,580.398c-0.849-2.487-6.04-4.336-5.302-0.434c2.877,15.247-17.538,21.988-28.734,24.604
		c-13.428,3.135-26.667,3.778-40.356,2.927c1.308,3.831,2.621,7.662,3.93,11.493c2.923-0.513,5.362-0.802,6.704-3.634
		c0.74-1.563-0.468-3.438-1.554-4.456c-2.612-2.452-5.651-2.855-9.085-3.4c-7.528-1.194-4.602,10.052,0.943,11.249
		C103.337,623.462,166.522,614.269,154.965,580.398L154.965,580.398z"/>
	<path fill="#010101" d="M249.015,288.587c-5.951-8.071-16.625-13.52-25.524-17.563c-10.938-4.967-22.463-9.048-34.415-10.706
		c-10.631-1.471-20.67-0.936-30.703,3.032c-5.115,2.025-12.845,5.117-13.495,11.557c-1.314,12.951,19.638,19.229,28.881,21.636
		c8.341,2.173,16.955,3.949,25.561,4.659c6.444,0.533,13.267,1.272,18.703-2.747c3.187-2.354-0.359-6.163-3.15-6.657
		c-11.43-2.023-23.149-2.035-34.57-4.537c-6.07-1.331-12.246-2.796-18.025-5.128c-1.956-0.788-4.258-1.644-5.898-3.004
		c-1.265-1.05-0.665-1.174-0.991-0.258c1.626-4.548,9.232-6.567,13.208-7.963c8.476-2.971,18.084-2.276,26.75-0.566
		c18.872,3.723,34.071,13.277,51.224,21.036C248.698,292.34,250.552,290.672,249.015,288.587z"/>
	<path fill="#010101" d="M311.092,287.558c19.484,2.548,34.844-13.551,52.776-18.073c5.477-1.382,11.447-1.326,17.047-0.733
		c2.711,0.29,10.912,0.63,12.094,3.892c2.018,5.573-5.33,10.125-9.543,11.34c-6.306,1.82-12.929,2.583-19.484,2.657
		c-10.872,0.124-22.852-2.901-33.443-0.574c-3.67,0.805-1.545,5.092,0.521,6.373c12.748,7.902,33.557,7.062,47.899,4.923
		c12.431-1.855,30.771-9.32,24.691-25.586c-5.135-13.735-24.293-14.568-36.512-13.885c-10.143,0.569-18.973,5.078-27.666,10.089
		c-9.957,5.737-19.854,10.783-30.503,15.096C306.406,284.117,309.571,287.361,311.092,287.558z"/>
	<path fill="#010101" d="M357.74,643.839c-1.808-1.352-5.908-1.66-5.077,1.806c1.631,6.814,5.816,13.524,8.857,19.823
		c3.631,7.517,6.95,15.208,9.885,23.021c6.284,16.729,11.233,34.001,14.979,51.473c7.05,32.905,11.173,66.361,11.04,100.043
		c-0.035,9.346,18.021,17.224,18.008,5.771c-0.008-5.442-0.785-9.967-4.385-14.223c-1.873-2.215-5.718-4.769-8.699-2.89
		c-4.252,2.674-4.918,6.559-4.923,11.339c6.003,1.924,12.005,3.847,18.009,5.771c-0.344-35.85-4.652-72.169-13.555-106.92
		c-4.601-17.958-10.138-35.768-17.585-52.769C378.146,672.054,370.398,653.302,357.74,643.839L357.74,643.839z"/>
	<path fill="#010101" d="M187.27,633.77c0.756-2.694-3.549-6.858-5.775-4.119c-11.289,13.962-19.671,30.229-28.026,46.045
		c-8.688,16.45-16.807,33.265-23.877,50.478c-7.348,17.885-13.659,36.299-17.613,55.257c-1.787,8.565-3.396,17.166-4.186,25.892
		c-0.75,8.262-2.359,18.065,0.206,26.076c1.398,4.357,4.877,8.116,9.695,8.507c2.983,0.243,6.742-1.744,6.497-5.236
		c-0.117-1.605-0.28-3.147-0.561-4.732c-0.512-2.912-3.383-5.031-6.164-5.41c-1.037-0.211-2.083-0.321-3.138-0.339
		c3.164,4.101,6.322,8.204,9.485,12.305c2.487-7.887,1.078-17.185,1.878-25.434c0.888-9.2,2.127-18.426,4.11-27.46
		c3.985-18.146,9.578-35.935,16.146-53.307c6.612-17.475,14.157-34.562,21.924-51.551
		C174.908,665.359,182.669,650.113,187.27,633.77L187.27,633.77z"/>
	<path fill="#010101" d="M415.818,848.925c-0.036-2.578-2.692-4.525-5.111-3.674c-8.116,2.829-14.865,8.64-23.295,11.25
		c-9.979,3.086-20.338,4.947-30.719,6.03c-20.584,2.142-41.198,2.215-61.866,2.1c-29.317-0.161-58.191-2.405-86.854-8.906
		c-31.484-7.146-62.117-17.333-92.774-27.345c0.471,5.623,0.94,11.243,1.413,16.866c6.263,0.172,12.789,1.902,18.987,0.577
		c7.274-1.555,2.779-9.796-1.012-12.355c-6.367-4.301-14.163-5.352-21.691-5.555c-11.943-0.321-6.332,14.344,1.413,16.865
		c33.323,10.861,66.632,21.929,101.001,29.037c29.048,6.007,58.042,7.984,87.638,8.035c22.819,0.038,46.164-0.593,68.575-5.221
		C384.842,873.881,416.089,867.25,415.818,848.925L415.818,848.925z"/>
	<path fill="#010101" d="M353.775,871.094c-0.353-0.848-2.596-1.736-2.521-0.208c1.119,21.867-1.013,43.195-6.714,64.353
		c-5.262,19.522-11.391,38.764-14.018,58.875c-0.536,4.113,4.816,8.697,8.784,7.707c5.101-1.271,11.43-2.052,16.531-0.381
		c0.417,0.137,2.09,1.179,1.611,0.429c-0.71-1.114-0.801,1.372-1.159,2.033c-1.667,3.087-4.204,6.488-7.831,7.362
		c-13.396,3.229-27.886-3.119-40.571-6.968c1.425,1.025,2.847,2.049,4.273,3.072c-0.02-0.025-0.035-0.048-0.055-0.075
		c-1.105,2.773-2.21,5.55-3.315,8.323c3.133,0.387,5.116,0.16,7.438-1.979c1.706-1.574,0.206-4.76-1.261-5.881
		c-2.3-1.758-4.321-2.782-7.133-3.534c-5.856-1.563-7.542,3.667-4.87,8.011c2.369,3.848,9.035,4.713,13.028,5.944
		c5.955,1.829,11.963,3.563,18.107,4.645c10.85,1.906,24.501,2.461,31.342-7.953c14.119-21.48-15.523-28.929-31.566-24.571
		c2.929,2.567,5.855,5.138,8.783,7.707C347.241,956.152,371.062,912.692,353.775,871.094L353.775,871.094z"/>
	<path fill="#010101" d="M326.538,875.496c-0.551-0.866-2.607-1.371-2.668,0.135c-0.604,16.256-1.321,32.097-4.859,48.07
		c-1.703,7.702-2.351,15.607-3.5,23.4c-1.013,6.869-1.197,16.078-5.076,22.029c-5.233,8.023-13.918,16.914-15.261,26.758
		c-0.99,7.249,10.347,20.057,16.579,11.639c1.562-2.107,0.436-4.837-1.371-6.406c-1.198-1.041-2.342-1.97-3.868-2.497
		c-2.272-1.055-1.998-0.295,0.822,2.281c0.22-1.615,0.918-3.205,1.655-4.647c2.352-4.592,5.344-8.78,8.266-13.017
		c2.43-3.526,5.537-7.259,6.499-11.496c1.368-6.039,2.397-12.129,3.154-18.271c1.722-14.019,3.95-28.184,5.063-42.249
		C332.931,899.133,333.273,886.045,326.538,875.496L326.538,875.496z"/>
	<path fill="#010101" d="M197.656,860.266c-0.323-1.168-2.901-3.112-3.556-1.15c-3.196,9.687-2.829,20.428-3.458,30.524
		c-0.693,11.208-1.591,22.403-2.664,33.579c-2.175,22.685-5.299,45.264-9.454,67.67c-0.764,4.13,5.029,8.794,8.883,7.794
		c11.49-2.981,23.358,0.887,21.492,14.592c1.132-1.29,2.264-2.579,3.395-3.87c-19.54,5.778-39.379-2.97-59.18-0.013
		c-4.128,0.617-4.037,5.794-1.865,8.354c4.46,5.252,9.06,7.318,15.489,4.485c2.117-0.932,1.645-4.146,0.378-5.539
		c-1.391-1.536-2.542-2.668-4.468-3.506c-0.564-0.245-3.412-2.004-2.15-0.436c-0.624,2.786-1.243,5.569-1.865,8.354
		c19.82-2.969,39.386,5.847,59.168-0.013c2.034-0.604,3.106-1.737,3.396-3.87c3.003-22.146-19.566-35.399-39.283-30.188
		c2.963,2.598,5.92,5.195,8.884,7.793c3.769-22.575,6.531-45.292,7.983-68.138c0.722-11.329,1.172-22.694,1.206-34.048
		C200.021,881.87,200.543,870.732,197.656,860.266L197.656,860.266z"/>
	<path fill="#010101" d="M164.087,854.984c-0.73-1.7-4.319-2.43-3.81,0.178c7.954,40.473-6.4,82.298-14.552,121.358
		c-1.623,7.794-2.056,15.723-3.921,23.459c-1.086,4.515-2.373,9.063-1.574,13.727c0.742,4.326,5.537,8.796,10.042,8.702
		c6.303-0.132,9.934-2.594,13.495-7.634c2.132-3.018-1.73-6.54-4.758-6.23c-3.772,0.385-6.846,1.234-10.503,1.865
		c-3.058,0.525,3.354,6.517,3.754,2.837c0.068-0.81,0.176-1.613,0.319-2.412c0.83-4.339,2.182-8.587,2.811-12.969
		c2.542-17.72,7.278-34.616,10.933-52.111C172.377,916.779,176.022,882.741,164.087,854.984L164.087,854.984z"/>
	<path fill="#010101" d="M350.92,632.424c-2.099,1.334-0.013,3.847,1.541,4.48c7.276,2.963,15.304,3.685,22.693,6.389
		c7.153,2.619,14.232,6.295,20.175,11.115c12.066,9.783,20.194,21.799,26.128,36.058c0.685-3.061,1.366-6.122,2.05-9.183
		c-7.766,3.219-15.694,6.051-23.703,8.612c-6.84,2.184-19.035,5.067-12.637,15.124c2.232,3.504,6.49,4.951,10.4,4.725
		c6.14-0.358,12.848-3.699,18.608-5.737c6.404-2.268,12.77-4.633,19.019-7.299c3.568-1.52,3.357-6.293,2.051-9.182
		c-8.049-17.764-21.189-34.032-37.465-44.881C387.884,634.718,364.874,623.554,350.92,632.424L350.92,632.424z"/>
	<path fill="#010101" d="M191.659,623.135c3.143-1.307-0.334-5.279-2.044-5.936c-16.603-6.355-35.942,4.963-48.226,15.466
		c-13.853,11.85-25.923,27.279-30.77,45.106c-1.637,6.026,2.899,10.66,8.028,12.896c6.453,2.813,12.622,6.235,19.025,9.16
		c2.805,1.283,8.046,2.894,10.267-0.549c3.062-4.75,0.435-11.397-4.795-13.765c-7.917-3.587-15.558-7.718-23.622-10.987
		c2.675,4.298,5.351,8.597,8.026,12.896c3.771-15.872,13.405-30.627,25.021-41.923c5.972-5.809,12.481-10.923,19.845-14.858
		C178.614,627.329,185.229,625.814,191.659,623.135L191.659,623.135z"/>
	<path fill="#010101" d="M417.419,694.739c-2.596-1.415-4.792,0.996-2.984,3.398c8.955,11.933,18.621,23.379,26.092,36.355
		c6.412,11.138,15.66,26.342,15.295,39.667c-0.162,5.796,5.077,10.444,10.509,11.168c5.714,0.762,16.58,6.463,21.892,2.32
		c4.721-3.681,3.232-9.847-1.04-13.446c-2.239-1.886-4.458-2.904-7.267-3.509c-8.68-1.868-11.768,7.647-4.98,12.801
		c0.822,0.622,1.631,1.254,2.43,1.899c-0.871-4.065-1.741-8.13-2.612-12.194c3.146-2.58,3.546-1.437,0.126-2.25
		c-1.272-0.301-2.544-0.604-3.815-0.905c-2.727-0.621-5.517-1.399-8.321-1.462c3.199,2.307,6.398,4.614,9.6,6.92
		c-6.566-16.423-12.179-32.088-22.134-46.976C441.583,715.623,431.281,702.302,417.419,694.739L417.419,694.739z"/>
	<path fill="#010101" d="M466.473,787.921c1.294,5.655,2.378,11.739,2.729,17.534c0.178,2.901-0.356,5.012,0.824,8.002
		c1.303,3.304,5.111,5.927,8.674,5.469c7.594-0.972,1.986-11.149,0.672-14.72c-2.095-5.681-4.495-11.239-7.427-16.541
		C470.769,785.535,465.585,784.018,466.473,787.921z"/>
	<path fill="#010101" d="M458.059,793.969c-1.37-2.648-7.587-4.291-6.532,0.307c0.813,3.536,1.043,8.359-0.293,11.82
		c-1.309,3.383-4.27,6.857-3.967,10.498c0.34,4.044,4.186,8.812,8.793,7.713c6.318-1.503,7.172-8.962,6.742-14.593
		C462.359,803.907,460.718,799.111,458.059,793.969L458.059,793.969z"/>
	<path fill="#010101" d="M121.458,702.272c1.793-2.563-2.475-6.39-4.74-4.16c-14.034,13.796-25.624,29.784-38.919,44.249
		c-10.731,11.678-25.878,28.185-43.417,25.794c-2.439-0.333-4.592,0.963-5.609,3.128c-0.11,0.238-0.226,0.481-0.338,0.72
		c-2.613,5.57,5.249,12.262,10.456,11.144c1.997-0.427,2.979-1.463,4.675-2.434c2.022-1.166,1.67-3.907,0.375-5.491
		c-2.273-2.782-4.645-4.648-8.025-5.949c1.966,4.095,3.925,8.183,5.889,12.277c0.136-0.227,0.271-0.447,0.408-0.674
		c-2.219,0.435-4.438,0.87-6.656,1.306c20.323,4.4,36.768-11.39,48.818-25.75C98.585,739.496,108.86,720.285,121.458,702.272
		L121.458,702.272z"/>
	<path fill="#010101" d="M70.737,788.927c-1.34-3.562-8.943-6.248-9.365-0.76c-0.152,1.962,0.019,3.93-0.274,5.887
		c-0.103,0.682-0.34,1.406-0.623,2.043c0.01-0.025-0.955,1.682-0.386,0.904c-1.134,1.551-0.72,0.937-2.44,1.761
		c-1.842,0.88-3.235,1.878-3.811,3.966c-0.659,2.393,0.342,4.863,2.242,6.432c2.945,2.433,7.958,4.509,11.514,1.766
		c1.91-1.477,3.595-3.05,4.397-5.425C73.749,800.296,72.627,793.945,70.737,788.927L70.737,788.927z"/>
	<path fill="#010101" d="M51.7,791.452c1.219-2.585-2.753-5.598-5.056-4.432c-1.367,0.686-2.784,1.156-4.161,1.908
		c-1.593,0.868-3.081,2.18-4.332,3.486c-2.92,3.045-5.185,6.164-4.519,10.571c0.552,3.634,6.01,7.862,9.62,5.588
		c3.117-1.964,3.932-5.5,5.397-8.666c0.741-1.602,1.405-3.222,1.965-4.89C51,793.883,51.199,792.517,51.7,791.452L51.7,791.452z"/>
	<path fill="#010101" d="M326.032,640.295c-0.467-0.4-1.447-0.666-1.736,0.096c-2.083,5.377,0.17,12.068-1.68,17.767
		c-1.755,5.399-4.973,10.312-9.116,14.192c-9.674,9.056-23.181,13.857-36.173,15.414c-12.246,1.466-26.397,0.574-36.861-6.666
		c-11.203-7.75-11.448-22.143-8.343-34.158c-1.535,0.857-3.073,1.715-4.611,2.572c3.188,0.294,6.116,1.298,9.323,1.29
		c4.681-0.008,4.633-5.157,1.648-7.656c-4.004-3.354-8.296-4.999-13.508-5.479c-1.736-0.158-4.113,0.654-4.608,2.571
		c-4.413,17.121-2.489,36.187,12.384,47.768c13.123,10.217,30.062,13.227,46.35,11.503c15.6-1.653,32.468-7.46,43.286-19.357
		C331.031,670.644,337.835,650.407,326.032,640.295L326.032,640.295z"/>
	<path fill="#010101" d="M409.181,718.9c10.802,9.423,19.205,20.004,25.195,33.099c3.01,6.576,5.537,13.301,7.756,20.186
		c1.538,4.767,2.768,9.935,5.978,13.868c0.893,1.094,3.954,2.631,4.612,0.372c1.744-5.998-1.607-13.254-3.643-18.893
		c-2.846-7.89-5.984-15.842-10.268-23.08c-6.893-11.662-15.456-23.407-28.563-28.296C408.278,715.422,407.988,717.857,409.181,718.9
		z"/>
	<path fill="#010101" d="M123.531,718.492c0.404-1.091-1.557-2.796-2.339-1.67c-7.715,11.119-16.713,20.914-25.385,31.26
		c-7.769,9.266-15.565,19.086-16.939,31.487c-0.159,1.401,2.278,3.342,3.374,1.94c8.019-10.269,14.153-21.909,22.139-32.27
		C111.735,739.702,119.316,729.888,123.531,718.492L123.531,718.492z"/>
	<path fill="#010101" d="M295.209,503.025c-1.746-1.268-3.397-2.28-5.388-3.12c0.035,0.014-1.336-0.594-0.648-0.27
		c-0.304-0.136-0.601-0.282-0.9-0.434c-1.041-0.513-1.979-0.841-3.143-0.946c-1.637-0.151-3.122,0.887-3.213,2.593
		c-0.077,1.476,0.763,2.874,1.833,3.82c2.63,2.327,6.246,2.528,9.5,3.398C296.684,508.986,297.843,504.943,295.209,503.025z"/>
</g>
</svg>
