<?xml version="1.0" encoding="utf-8"?>
<!-- Generator: Adobe Illustrator 15.1.0, SVG Export Plug-In . SVG Version: 6.00 Build 0)  -->
<!DOCTYPE svg PUBLIC "-//W3C//DTD SVG 1.1//EN" "http://www.w3.org/Graphics/SVG/1.1/DTD/svg11.dtd">
<svg version="1.1" id="Layer_1" xmlns="http://www.w3.org/2000/svg" xmlns:xlink="http://www.w3.org/1999/xlink" x="0px" y="0px"
	 width="1024px" height="1024px" viewBox="0 0 1024 1024" enable-background="new 0 0 1024 1024" xml:space="preserve">
<g id="boy">
	<path fill="#010101" d="M751.023,288.445c-49.839-8.296-96.378,27.792-122.999,66.489c-30.023,43.646-44.855,96.803-51.141,148.9
		c-6.337,52.527-5.799,108.533,22.691,154.944c31.395,51.14,92.083,69.526,149.229,65.903c35.71-2.263,71.736-12.372,102.687-30.475
		c15.816-9.253,30.738-21.398,41.279-36.497c10.458-14.979,15.943-32.691,18.142-50.687c2.199-17.992,1.482-36.149,0.76-54.206
		c-0.757-18.968-2.082-37.72-4.832-56.519c-5.496-37.55-13.82-76.567-27.873-111.935c-9.366-23.571-24.789-45.731-41.32-64.796
		c-15.57-17.958-37.212-38.951-62.834-36.681c-9.865,0.875-22.152,19.217-7.689,22.479c8.88,2.003,20.648,8.975,28.623,15.564
		c11.616,9.598,21.626,21.136,30.734,33.087c8.394,11.012,15.905,22.701,22.188,35.044c6.973,13.695,11.276,28.669,15.578,43.367
		c11.03,37.675,18.563,76.765,20.456,116.021c1.523,31.588,6.708,70.635-11.662,98.596c-18.133,27.602-55.224,40.993-85.812,48.28
		c-29.752,7.088-61.771,7.629-91.477,0.171c-25.425-6.381-48.321-20.43-65.304-40.383c-18.396-21.615-27.93-49.398-31.34-77.265
		c-5.861-47.914,0.998-98.898,14.414-144.979c13.135-45.108,34.741-92.412,76.137-118.122c17.763-11.031,38.025-14.8,58.412-17.68
		C751.593,296.57,756.785,289.406,751.023,288.445L751.023,288.445z"/>
	<path fill="#010101" d="M639.64,542.392c2.874,0.05,5.725-0.826,8.53-1.415c3.039-0.64,3.743-0.851,7.1-1.153
		c5.449-0.49,11.031-5.669,10.726-11.399c-0.341-6.411-7.265-6.339-11.604-4.235c-2.424,1.175-4.799,2.457-7.209,3.664
		c-1.533,0.769-3.061,1.544-4.594,2.316c-0.668,0.338-1.336,0.672-2.002,1.014c1.172-0.601-3.545,2.528-1.517,1.088
		C635.258,534.977,632.63,542.271,639.64,542.392L639.64,542.392z"/>
	<path fill="#010101" d="M655.274,539.312c1.174,16.153,16.711,24.973,30.428,29.687c17.395,5.978,36.903,5.894,55.014,4.365
		c19.643-1.656,39.229-5.919,57.914-12.146c15.313-5.103,31.261-11.806,43.71-22.332c3.638-3.075,5.25-7.415,4.185-12.004
		c-0.854-3.69-0.785-6.921-2.634-10.398c-5.708,5.008-11.416,10.018-17.121,15.024c4.039,2.301,7.861,6.666,12.848,6.261
		c1.598-0.129,2.117-0.467,3.312-0.747c1.581-0.522,2.993-1.335,4.243-2.439c-2.756,1.97-2.756,1.97,0,0
		c3.403-3.239,5.72-7.501,4.387-12.307c-1.316-4.74-6.703-7.303-10.748-9.303c-9.601-4.748-21.436,8.039-15.898,17.059
		c1.344,2.187,1.269,5.6,1.991,8.033c1.394-4.002,2.788-8.003,4.184-12.004c-4.215,3.917-6.388,5.347-12.747,8.852
		c-6.192,3.415-12.678,6.184-19.281,8.688c-16.649,6.318-34.1,10.679-51.728,13.148c-16.985,2.378-34.42,2.892-51.28-0.612
		c-14.385-2.99-24.427-10.701-35.087-20.09C658.796,534.138,655.078,536.623,655.274,539.312z"/>
	<path fill="#010101" d="M593.54,462.992c-0.138-5.327-0.293-8.498-3.206-13.216c-2.471-4.006-7.082-5.775-11.334-7.21
		c-9.989-3.371-21.756-0.577-30.95,3.72c-17.222,8.047-26.806,26.15-25.077,44.779c1.529,16.525,11.195,32.364,24.762,41.74
		c14.95,10.334,32.145,5.493,43.666-7.255c3.731-4.128,2.031-11.932-4.445-11.153c-5.196,0.623-12.346,3.833-13.599,9.677
		c-1.272,5.944,6.343,6.447,10.237,6.01c-1.481-3.718-2.962-7.436-4.443-11.154c-5.693,6.218-14.341,4-21.623-0.883
		c-9.649-6.472-15.734-17.907-18.512-28.894c-2.725-10.773,0.018-22.692,9.471-29.193c9.989-6.871,36.451-11.786,40.331,5.122
		C589.438,467.787,593.59,464.973,593.54,462.992L593.54,462.992z"/>
	<path fill="#010101" d="M891.243,458.274c5.918-15.586,26.658-22.903,41.469-17.084c14.509,5.699,27.333,20.246,27.771,36.164
		c0.339,12.382-8.246,23.836-17.99,30.605c-6.025,4.188-12.708,6.88-19.807,8.621c-7.947,1.946-18.19-1.081-25.127,3.323
		c-2.557,1.624-5.954,5.49-4.287,8.855c4.276,8.638,21.019,4.611,28.614,3.058c10.352-2.118,20.278-7.076,28.695-13.378
		c15.09-11.299,26.515-29.218,24.781-48.646c-1.82-20.414-21.712-39.764-41.591-42.896c-10.594-1.67-22.02,1.598-30.752,7.593
		c-8.863,6.085-13.193,13.498-15.768,23.601C886.579,460.74,890.542,460.12,891.243,458.274L891.243,458.274z"/>
	<path fill="#010101" d="M916.509,473.894c2.349-0.145,5.224-2.553,7.077-1.609c1.273,0.648,2.225,3.41,2.521,5.414
		c0.401,2.716-0.004,6.484-0.643,8.232c-0.264,0.725-0.61,1.414-0.96,2.099c0.811-1.592-1.771,1.918-0.05,0.163
		c-1.214,1.239,0.446-0.163,0.896-0.355c-1.353,0.577-2.745,0.913-4.033,1.699c-5.6,3.412-8.444,13.69,0.771,13.742
		c6.972,0.039,13.337-7.581,15.655-13.527c2.223-5.701,2.386-11.696,0.88-17.588c-1.225-4.794-4.589-8.893-9.565-9.897
		c-5.489-1.107-13.723,3.34-14.817,9.042C913.948,472.829,914.961,473.989,916.509,473.894L916.509,473.894z"/>
	<path fill="#010101" d="M566.424,470.57c-8.229-1.74-16.256,6.927-19.383,13.558c-4.332,9.181-0.914,18.566,6.751,24.472
		c6.669,5.139,18.648-9.727,10.34-13.65c-3.843-1.816-6.804-4.599-6.2-9.187c0.668-5.087,5.192-6.848,8.854-9.513
		C568.678,474.871,569.272,471.172,566.424,470.57z"/>
	<path fill="#010101" d="M702.009,437.785c-3.947,8.221-5.116,18.531-5.827,27.531c-0.785,9.959-0.324,20.205,4.469,29.196
		c4.71,8.831,16.807,3.221,20.051-4.084c5.072-11.417,7.623-23.815,7.382-36.315c-0.113-5.808-1.406-11.902-3.985-17.11
		c-1.302-2.632-3.018-5.038-5.051-7.141c-1.035-0.93-2.108-1.813-3.223-2.647c-0.21-0.114-8.357-2.193-3.896-1.048
		c-7.285-1.87-15.62,5.439-16.962,12.229c-1.825,9.237-2.791,21.79,0.313,30.761c1.696,4.901,7.609,5.722,11.914,4.346
		c5.535-1.77,9.466-6.274,11.051-11.747c2.696-9.303,1.766-21.373-0.302-30.763c-3.583,5.756-7.165,11.512-10.749,17.269
		c-0.51,0.145-1.021,0.29-1.533,0.435c-2.467-0.878-4.933-1.756-7.398-2.637c12.152,10.106,6.324,30.679,2.111,43.418
		c6.569-2.944,13.141-5.892,19.71-8.836c-9.468-13.512-0.796-30.99-5.557-45.405C712.428,428.885,703.781,434.094,702.009,437.785
		L702.009,437.785z"/>
	<path fill="#010101" d="M759.456,434.372c-8.772,6.599-11.172,20.194-12.518,30.389c-1.573,11.923-1.598,24.586,2.817,35.939
		c4.181,10.747,17.729,1.886,21.213-4.321c10.948-19.499,16.809-48.912,3.272-68.246c-5.886-8.402-19.026,1.009-21.965,7.204
		c-2.082,4.395-4.102,9.309-3.211,14.224c2.456,13.515,17.798,6.09,22.355-1.813c1.496-2.592,2.352-5.434,3.542-8.18
		c-7.321,2.402-14.642,4.802-21.963,7.203c5.586,4.71,4.974,14.302,4.21,20.881c-1.004,8.606-3.507,16.916-6.784,24.897
		c6.629-2.175,13.258-4.349,19.887-6.524c-4.478-6.777-4.777-17.172-5.003-24.977c-0.242-8.399,2.444-16.922,1.791-25.182
		C766.756,431.513,761.846,432.573,759.456,434.372L759.456,434.372z"/>
	<path fill="#010101" d="M647.69,699.958c-22.966,43.079-14.254,95.315-11.709,141.937c0.302,5.503,4.729,7.731,9.651,7.784
		c38.704,0.421,76.242,11.546,114.994,11.42c19.535-0.063,39.023-2.063,58.413-4.255c9.704-1.097,19.399-2.275,29.107-3.344
		c10.035-1.104,20.277-1.419,30.144-3.565c4.715-1.024,9.125-5.535,11.105-9.744c1.891-4.021,2.345-11.766-3.051-13.678
		c-4.266-1.508-6.594-1.685-11.052-0.937c-6.183,1.037-12.043,5.937-11.919,12.666c0.07,3.721,1.108,6.368,3.268,9.41
		c5.626-7.374,11.252-14.747,16.878-22.119c-9.905-0.731-19.971,0.939-29.817,2.035c-9.713,1.08-19.412,2.278-29.12,3.408
		c-19.419,2.258-38.88,4.105-58.439,4.365c-38.72,0.513-76.702-11.787-115.507-9.024c3.03,1.691,6.062,3.381,9.089,5.072
		c-12.486-41.795-14.998-88.448-4.984-131.104C655.911,695.301,649.184,697.153,647.69,699.958L647.69,699.958z"/>
	<path fill="#010101" d="M859.211,683.763c-0.999,10.248,1.382,21.199,2.876,31.346c2.454,16.662,4.689,33.354,6.705,50.074
		c1.972,16.36,3.713,32.787,4.432,49.256c0.253,5.83,0.347,11.684-0.047,17.511c0.209-3.111-0.619,2.528-0.945,3.72
		c-0.38,1.254-0.188,0.706,0.583-1.647c-0.479,1.317-0.993,2.627-1.356,3.981c-0.358,1.335-0.535,2.962-0.434,4.252
		c0.679,8.566,9.852,9.008,15.934,5.813c13.133-6.898,10.893-24.428,9.82-36.722c-1.417-16.23-4.268-32.355-7.195-48.367
		c-3.156-17.251-6.763-34.421-10.514-51.553c-2.162-9.875-4.303-23.616-8.769-31.239
		C867.502,675.411,859.698,678.778,859.211,683.763L859.211,683.763z"/>
	<path fill="#010101" d="M655.249,841.53c-10.327,19.724-7.438,45.057-8.712,66.569c-0.213,3.623,3.793,6.205,7.07,5.702
		c32.648-5.015,65.075,4.604,97.8,2.145c5.655-0.426,12.241-6.229,11.595-12.324c-0.679-6.424-0.142-13.574,4.552-18.545
		c-3.979,0.828-7.956,1.656-11.934,2.481c10.636,6.796,24.086,14.562,27.541,27.596c1.21,4.57,6.674,4.433,10.196,3.72
		c27.598-5.575,55.779,6.601,83.334-1.301c4.145-1.188,9.211-5.655,9.622-10.229c1.661-18.489,6.931-77.187-25.194-70.245
		c-6.273,1.355-12.492,11.792-5.539,16.104c1.49,0.925,4.5,3.815,6.018,6.93c2.32,4.756,3.227,10.087,3.902,15.282
		c1.382,10.637,1.306,24.769,0.552,33.571c3.208-3.409,6.414-6.819,9.621-10.229c-12.481,3.631-26.12,1.744-38.847,0.655
		c-14.982-1.281-29.657-2.083-44.472,0.969c3.399,1.239,6.798,2.479,10.196,3.721c-4.32-16.011-20.639-25.693-33.855-33.804
		c-4.931-3.027-10.747,1.158-13.937,4.63c-8.707,9.479-12.496,22.138-10.987,34.856c3.865-4.107,7.73-8.216,11.595-12.324
		c-32.782,2.808-65.353-6.339-98.09-0.777c2.356,1.9,4.714,3.802,7.071,5.702c-1.485-20.66-3.692-39.85,0.49-60.41
		C666.219,835.183,657.289,837.635,655.249,841.53L655.249,841.53z"/>
	<path fill="#010101" d="M711.965,721.209c-3.11,9.678-2.303,18.701,6.456,24.999c8.63,6.2,18.982,8.667,29.411,9.555
		c10.733,0.913,22.604,0.9,31.16-6.509c8.038-6.958,13.743-19.839,13.933-30.432c0.226-12.549-14.727-10.457-17.515-0.422
		c-0.952,3.43-0.194,8.193-1.376,12.469c-0.602,2.177-1.636,4.49-2.824,6.407c-0.564,0.863-1.18,1.691-1.842,2.479
		c-0.753,0.952,2.456-0.89-0.588,0.177c-9.141,3.205-22.05,1.645-31.246-0.714c-11.256-2.886-19.046-7.267-21.715-19.252
		C715.313,717.701,712.318,720.108,711.965,721.209L711.965,721.209z"/>
	<path fill="#010101" d="M647.524,698.072c-10.947,0.192-21.64,8.515-29.641,15.194c-9.817,8.199-18.287,18.46-24.358,29.713
		c-1.185,2.197-1.509,5.998,0.5,7.892c9.543,9.006,24.719,10.489,32.39,21.495c2.428,3.485,7.577,0.964,10.038-0.813
		c9.797-7.071,3.419-16.73-4.317-21.447c-7.27-4.43-17.083-6.4-23.451-12.1c0.165,2.631,0.331,5.261,0.498,7.892
		c4.348-8.757,9.714-16.631,16.691-23.525c7-6.917,15.623-11.475,23.059-17.747C651.43,702.523,651.576,698.002,647.524,698.072z"/>
	<path fill="#010101" d="M868.977,674.186c-10.118,9.432,13.992,28.554,19.926,33.551c12.748,10.739,30.139,20.943,38.443,35.855
		c3.555-4.614,7.11-9.226,10.664-13.839c-11.036,0.453-21.568,4.29-31.483,8.904c-9.711,4.519-23.768,10.789-28.916,20.492
		c-2.561,4.827,0.567,9.18,5.653,9.247c5.005,0.063,8.579-2.813,12.651-5.344c4.01-2.496,8.096-4.851,12.258-7.082
		c8.271-4.429,16.799-7.148,26.051-8.541c6.131-0.925,15.146-9.088,9.604-15.604c-11.471-13.481-27.055-23.118-41.471-33.094
		c-7.138-4.94-14.247-10.036-20.53-16.05C879.266,680.233,873.435,670.029,868.977,674.186L868.977,674.186z"/>
	<path fill="#010101" d="M686.867,905.514c-15.976,24.83-12.225,56.712-6.033,83.988c3.315-3.533,6.632-7.067,9.948-10.601
		c-8.821-1.396-18.658-0.792-26.216,4.444c-6.86,4.753-10.543,12.903-5.993,20.558c9.091,15.297,29.604,15.739,44.619,10.408
		c7.309-2.595,14.743-7.529,18.34-14.615c3.708-7.302,2.469-15.637,0.948-23.348c-4.151-21.084-10.208-44.502-1.58-65.419
		c4.389-10.637-10.17-10.582-13.969-2.603c-1.486,3.121-1.998,5.951-0.688,9.226c1.966,4.907,8.877,2.361,11.096-0.9
		c1.3-1.91,2.56-3.62,3.561-5.723c-4.656-0.865-9.312-1.735-13.969-2.603c-6.07,14.901-6.103,31.79-4.904,47.652
		c0.989,13.082,7.163,25.415,6.89,38.646c-0.17,8.284-17.773,8.926-23.119,8.347c-6.087-0.659-10.4-3.643-14.14-8.411
		c-0.071-1.425-0.353-1.848-0.848-1.265c-0.623,1.741,0.446,0.11,1.879-0.399c3.708-1.319,7.92-1.062,11.735-0.511
		c4.888,0.708,12.555-5.079,9.947-10.602c-11.272-23.866-10.525-50.543-2.435-75.313C693.007,903.2,688.111,903.582,686.867,905.514
		L686.867,905.514z"/>
	<path fill="#010101" d="M822.144,914.248c-2.822,12.938-2.149,27.168-1.555,40.33c0.608,13.479,1.271,27.337,3.041,40.695
		c2.908-3.091,5.816-6.182,8.725-9.271c-9.193,0.283-18.368,3.947-23.259,12.101c-4.434,7.395-1.823,15.61,4.873,20.556
		c14.046,10.377,36.475,3.425,49.897-5.059c3.65-2.308,5.846-5.807,4.909-10.138c-4.311-19.945-9.817-38.84-9.64-59.415
		c0.051-5.985,0.103-11.971,0.154-17.956c0.033-3.856,0.752-8.521-0.573-12.232c-3.075-8.618-17.538,0.684-14.776,8.422
		c0.18,0.496,0.356,0.994,0.533,1.492c2.742,7.682,12.534,0.1,13.896-4.479c0.183-0.612,0.365-1.228,0.548-1.84
		c1.172-3.939-2.202-7.135-5.993-6.827c-4.498,0.364-7.95,3.917-9.183,8.058c-1.126,3.786-0.406,8.621-0.374,12.512
		c0.054,6.296,0.108,12.592,0.163,18.889c0.186,21.271,6.239,41.006,10.816,61.604c1.637-3.38,3.273-6.76,4.909-10.139
		c-7.491,4.784-17.262,8.202-26.236,7.739c-4.418-0.229-9.174-2.286-11.199-6.463c-1.333-2.748,6.016-2.843,7.553-2.914
		c3.971-0.18,9.59-4.838,8.726-9.271c-2.581-13.238-5.051-26.175-6.271-39.66c-1.145-12.66-0.918-26.207-4.016-38.555
		C827.023,909.267,822.55,912.383,822.144,914.248L822.144,914.248z"/>
	<path fill="#010101" d="M602.584,757.294c-3.739,2.851-5.01,8.923-6.898,13.073c-2.736,6.013-5.748,11.907-8.809,17.758
		c-3.258,6.223-6.729,12.325-10.079,18.497c-2.9,5.343-5.081,11.848-8.548,16.802c3.898,1.355,7.796,2.711,11.694,4.066
		c1.069-2.79,4.605-13.947-2.51-12.831c-6.73,1.057-12.007,6.957-10.956,13.921c1.443,9.569,13.842,2.316,14.207-4.554
		c0.288-5.377,5.043-12.512,7.297-17.323c2.94-6.284,6.043-12.482,9.121-18.7c2.868-5.789,5.606-11.616,7.797-17.699
		c1.199-3.335,4.469-10.348,1.34-13.307C605.119,755.938,603.664,756.469,602.584,757.294z"/>
	<path fill="#010101" d="M564.065,839.507c-6.932-2.956-15.221,0.309-21.775,3.256c-3.826,1.723-8.205,4.743-9.058,9.108
		c-0.893,4.554,2.46,6.916,6.583,6.924c4.044,0.008,7.68-5.184,5.352-8.692c1.146,1.728-3.546,6.536-1.592,5.113
		c0.611-0.549,1.156-1.154,1.633-1.817c-0.816,0.839-0.896,0.953-0.238,0.344c0.637-0.497,0.627-0.508-0.031-0.031
		c0.406-0.274,0.818-0.538,1.236-0.793c1.15-0.718,2.363-1.334,3.575-1.941c2.114-1.059,4.283-2.015,6.46-2.938
		c0.959-0.409,1.941-0.754,2.914-1.126c0.629-0.211,1.217-0.506,1.76-0.882c3.387-2.11-0.734,0.084,1.168-0.657
		C563.743,844.715,567.162,840.828,564.065,839.507z"/>
	<path fill="#010101" d="M569.567,846.843c-6.633,3.254-12.714,7.647-16.695,13.995c-3.35,5.343-5.893,16.022,2.908,17.528
		c3.632,0.622,7.152-2.784,7.197-6.314c0.049-3.978-1.762-6.119,0.621-9.832c2.441-3.805,5.693-7.259,9.016-10.298
		C575.698,849.101,573.614,844.858,569.567,846.843z"/>
	<path fill="#010101" d="M579.618,855.525c-3.455,4.569-4.862,11.221-5.97,16.747c-0.89,4.43-1.508,12.689,3.141,15.197
		c3.656,1.972,8.418-1.721,9.152-5.318c0.779-3.811-0.686-8.281-0.613-12.238c0.085-4.528,1.166-9.645,0.666-14.076
		C585.584,852.22,581.157,853.491,579.618,855.525z"/>
	<path fill="#010101" d="M589.747,850.722c2.241,2.616,3.806,4.878,5.025,8.126c1.419,3.774,1.096,7.877,2.897,11.519
		c2.625,5.309,9.234,0.513,10.393-3.347c2.918-9.729-4.434-21.58-14.783-22.041C590.846,844.871,587.908,848.577,589.747,850.722
		L589.747,850.722z"/>
	<path fill="#010101" d="M615.309,776.914c-11.254,18.253-24.49,36.272-27.88,57.989c-1.451,9.305,12.118,6.086,13.235-1.073
		c0.339-2.177,0.072-4.004-0.378-6.139c-1.472-6.991-11.851-0.125-12.648,4.076c-0.29,1.523-0.61,3.211-0.347,4.766
		c1.468,8.628,14.692,2.622,13.51-4.33c-1.486-8.743,3.814-19.437,7.23-27.193c3.901-8.863,8.32-17.489,11.943-26.472
		C621.338,775.156,616.893,774.343,615.309,776.914L615.309,776.914z"/>
	<path fill="#010101" d="M905.314,765.799c7.535,13.682,16.703,26.132,25.141,39.251c2.52,3.919,4.894,7.925,7.116,12.017
		c2.313,4.261,1.499,9.197,1.367,13.844c-0.244,8.557-0.302,17.117-0.417,25.677c-0.127,9.332,14.806,3.837,15.498-3.132
		c0.514-5.154,2.76-11.11-2.854-14.037c-2.009-1.048-4.546-0.149-6.122,1.273c-4.652,4.199-6.08,9.811-6.523,15.896
		c5.218-1.672,10.438-3.346,15.657-5.02c-0.152-11.142-0.325-22.277-0.648-33.413c-0.046-1.591-0.958-3.269-2.421-3.982
		c-4.021-1.964-6.996-8.649-9.544-12.16c-3.501-4.824-7.24-9.474-11.002-14.096c-6.982-8.582-14.456-16.444-22.307-24.22
		C907.126,762.573,904.531,764.38,905.314,765.799L905.314,765.799z"/>
	<path fill="#010101" d="M960.577,835.343c-1.814,8.278,1.094,15.716,5.367,22.743c3.43,5.64,9.302,13.381,16.08,14.953
		c4.837,1.126,12.872-6.473,8.392-10.999c-4.137-4.178-9.154-7.034-13.101-11.608c-4.359-5.056-7.974-10.892-10.193-17.195
		C965.889,829.737,961.084,833.037,960.577,835.343z"/>
	<path fill="#010101" d="M976.865,834.878c4.107,5.083,8.185,10.09,12.075,15.351c3.676,4.967,7.953,13.502,14.913,12.757
		c2.474-0.264,5.182-2.313,5.579-4.896c0.629-4.073-0.481-5.346-3.288-8.202c-2.596-2.644-5.262-5.22-7.876-7.847
		c-4.733-4.755-10.023-9.73-15.837-13.134C979.372,827.119,974.501,831.953,976.865,834.878z"/>
	<path fill="#010101" d="M980.927,823.469c2.817,2.528,5.959,4.601,8.674,7.281c2.97,2.934,5.586,7.94,9.463,9.574
		c4.108,1.735,9.371-2.138,9.162-6.589c-0.243-5.26-5.029-8.698-8.858-11.696c-3.521-2.758-8.723-5.027-13.178-5.473
		C983.453,816.297,977.709,820.579,980.927,823.469z"/>
	<path fill="#010101" d="M911.391,748.959c2.47,5.808,6.824,10.419,10.964,15.084c6.26,7.056,12.898,13.757,19.361,20.623
		c6.173,6.557,12.266,13.226,17.766,20.362c1.887,2.447,3.663,4.969,5.015,7.75c0.374,0.773,0.08,2.289,0.534,3.206
		c0.309,0.625,2.086,3.731,1.423,2.163c2.066,4.894,8.788,2.368,11.095-0.899c4.826-6.833,1.517-11.829-2.84-17.717
		c-5.232-7.074-11.948-13.127-18.38-19.079c-12.979-12.009-26.394-23.586-39.681-35.245
		C914.491,743.313,910.237,746.243,911.391,748.959L911.391,748.959z"/>
	<path fill="#010101" d="M725.4,292.745c-12.829-0.308-26.959,14.403-33.214,24.259c-7.388,11.645-14.584,29.724-7.776,43.065
		c4.284,8.399,16.394,1.549,17.673-5.695c1.811-10.234,1.594-20.146,6.091-29.771c2.064-4.421,5.034-8.45,8.18-12.15
		c3.673-4.323,8.692-7.107,12.352-11.415C731.704,297.509,730.036,292.857,725.4,292.745z"/>
	<path fill="#010101" d="M747.27,306.75c-14.126,3.608-23.629,13.884-29.347,27.098c-4.321,9.985-11.188,30.29-2.189,39.434
		c4.669,4.745,11.682-0.09,14.182-4.651c4.697-8.564,3.851-19.474,5.999-28.865c1.846-8.073,6.171-18.763,13.294-23.665
		C753.602,313.076,754.609,304.875,747.27,306.75L747.27,306.75z"/>
	<path fill="#010101" d="M759.31,326.739c-4.085,11.204-9.821,24.667-8.855,36.752c0.998,12.456,19.14,4.889,20.323-4.106
		c1.4-10.618-0.61-21.327,0.618-32.082C772.323,319.205,761.451,320.862,759.31,326.739z"/>
</g>
<g id="boy_1_">
	<path fill="#010101" d="M278.304,288.445c-5.763,0.961-0.57,8.125,2.952,8.623c20.387,2.88,40.649,6.649,58.412,17.68
		c41.396,25.71,63.002,73.013,76.137,118.122c13.416,46.081,20.275,97.065,14.414,144.979c-3.41,27.866-12.943,55.649-31.34,77.265
		c-16.982,19.953-39.879,34.002-65.304,40.383c-29.706,7.458-61.725,6.917-91.477-0.171c-30.588-7.287-67.679-20.679-85.812-48.28
		c-18.37-27.961-13.186-67.008-11.662-98.596c1.894-39.256,9.426-78.346,20.456-116.021c4.302-14.697,8.605-29.671,15.578-43.367
		c6.282-12.343,13.794-24.032,22.188-35.044c9.108-11.951,19.118-23.489,30.734-33.087c7.975-6.589,19.743-13.561,28.623-15.564
		c14.463-3.261,2.176-21.603-7.689-22.479c-25.622-2.271-47.264,18.722-62.834,36.681c-16.531,19.064-31.954,41.225-41.32,64.796
		c-14.053,35.367-22.377,74.384-27.873,111.935c-2.75,18.799-4.075,37.551-4.832,56.519c-0.723,18.057-1.439,36.214,0.76,54.206
		c2.198,17.995,7.684,35.707,18.142,50.687c10.541,15.099,25.463,27.244,41.279,36.497c30.95,18.103,66.977,28.212,102.687,30.475
		c57.146,3.623,117.835-14.764,149.229-65.903c28.49-46.411,29.028-102.417,22.691-154.944
		c-6.285-52.097-21.117-105.254-51.141-148.9C374.682,316.237,328.143,280.149,278.304,288.445L278.304,288.445z"/>
	<path fill="#010101" d="M389.687,542.392c7.01-0.121,4.382-7.415,0.57-10.121c2.028,1.44-2.688-1.688-1.517-1.088
		c-0.666-0.342-1.334-0.676-2.002-1.014c-1.533-0.772-3.061-1.548-4.594-2.316c-2.41-1.207-4.785-2.489-7.209-3.664
		c-4.34-2.104-11.264-2.176-11.604,4.235c-0.306,5.73,5.276,10.909,10.726,11.399c3.356,0.303,4.061,0.514,7.1,1.153
		C383.962,541.566,386.813,542.442,389.687,542.392L389.687,542.392z"/>
	<path fill="#010101" d="M368.364,536.046c-10.66,9.389-20.702,17.1-35.087,20.09c-16.86,3.504-34.295,2.99-51.28,0.612
		c-17.628-2.47-35.078-6.83-51.728-13.148c-6.604-2.504-13.089-5.272-19.281-8.688c-6.359-3.505-8.532-4.935-12.747-8.852
		c1.396,4.001,2.79,8.002,4.184,12.004c0.723-2.434,0.647-5.847,1.991-8.033c5.537-9.02-6.298-21.806-15.898-17.059
		c-4.045,2-9.432,4.563-10.748,9.303c-1.333,4.806,0.983,9.067,4.387,12.307c2.756,1.97,2.756,1.97,0,0
		c1.25,1.104,2.662,1.917,4.243,2.439c1.194,0.28,1.714,0.618,3.312,0.747c4.986,0.405,8.809-3.96,12.848-6.261
		c-5.705-5.007-11.413-10.017-17.121-15.024c-1.849,3.478-1.779,6.708-2.634,10.398c-1.065,4.589,0.547,8.929,4.185,12.004
		c12.449,10.526,28.396,17.229,43.71,22.332c18.686,6.228,38.271,10.49,57.914,12.146c18.11,1.528,37.619,1.612,55.014-4.365
		c13.717-4.714,29.254-13.533,30.428-29.687C374.248,536.623,370.531,534.138,368.364,536.046z"/>
	<path fill="#010101" d="M435.786,462.992c-0.05,1.981,4.103,4.795,4.723,2.089c3.88-16.907,30.342-11.992,40.331-5.122
		c9.453,6.501,12.195,18.42,9.471,29.193c-2.777,10.987-8.862,22.422-18.512,28.894c-7.282,4.883-15.93,7.101-21.623,0.883
		c-1.481,3.719-2.962,7.437-4.443,11.154c3.895,0.438,11.51-0.065,10.237-6.01c-1.253-5.844-8.402-9.054-13.599-9.677
		c-6.477-0.778-8.177,7.025-4.445,11.153c11.521,12.748,28.716,17.589,43.666,7.255c13.566-9.376,23.232-25.215,24.762-41.74
		c1.728-18.628-7.856-36.731-25.078-44.779c-9.194-4.297-20.961-7.091-30.95-3.72c-4.252,1.435-8.863,3.204-11.334,7.21
		C436.079,454.494,435.924,457.665,435.786,462.992L435.786,462.992z"/>
	<path fill="#010101" d="M138.083,458.274c0.701,1.846,4.664,2.467,3.991-0.185c-2.574-10.103-6.904-17.515-15.768-23.601
		c-8.732-5.995-20.158-9.263-30.752-7.593c-19.879,3.132-39.771,22.482-41.591,42.896c-1.733,19.429,9.691,37.348,24.781,48.646
		c8.417,6.302,18.344,11.26,28.695,13.378c7.596,1.554,24.338,5.58,28.614-3.058c1.667-3.365-1.73-7.231-4.287-8.855
		c-6.937-4.404-17.18-1.377-25.127-3.323c-7.099-1.74-13.781-4.432-19.807-8.621c-9.744-6.769-18.329-18.223-17.99-30.605
		c0.438-15.918,13.262-30.465,27.771-36.164C111.425,435.371,132.165,442.687,138.083,458.274L138.083,458.274z"/>
	<path fill="#010101" d="M112.818,473.894c1.548,0.095,2.561-1.065,2.267-2.587c-1.095-5.702-9.328-10.149-14.817-9.042
		c-4.977,1.004-8.341,5.103-9.565,9.897c-1.506,5.892-1.343,11.887,0.88,17.588c2.318,5.946,8.684,13.566,15.655,13.527
		c9.216-0.052,6.371-10.331,0.771-13.742c-1.288-0.786-2.681-1.122-4.033-1.699c0.45,0.192,2.11,1.594,0.896,0.355
		c1.722,1.756-0.86-1.755-0.05-0.163c-0.35-0.685-0.696-1.374-0.96-2.099c-0.639-1.748-1.044-5.516-0.643-8.232
		c0.297-2.003,1.248-4.765,2.521-5.414C107.594,471.341,110.469,473.749,112.818,473.894L112.818,473.894z"/>
	<path fill="#010101" d="M462.541,476.25c3.661,2.666,8.186,4.426,8.854,9.513c0.604,4.588-2.357,7.37-6.2,9.187
		c-8.309,3.923,3.671,18.789,10.34,13.65c7.665-5.906,11.083-15.291,6.751-24.472c-3.127-6.631-11.154-15.298-19.383-13.558
		C460.055,471.172,460.649,474.871,462.541,476.25z"/>
	<path fill="#010101" d="M327.318,437.785c-1.771-3.69-10.419-8.899-12.517-2.547c-4.761,14.416,3.911,31.894-5.557,45.405
		c6.569,2.945,13.141,5.893,19.71,8.836c-4.213-12.739-10.041-33.313,2.111-43.418c-2.466,0.88-4.932,1.759-7.398,2.637
		c-0.513-0.145-1.023-0.29-1.533-0.435c-3.584-5.757-7.166-11.513-10.749-17.269c-2.067,9.39-2.998,21.459-0.302,30.763
		c1.585,5.472,5.516,9.977,11.051,11.747c4.305,1.376,10.218,0.555,11.914-4.346c3.104-8.972,2.138-21.524,0.313-30.761
		c-1.342-6.79-9.677-14.099-16.962-12.229c4.461-1.145-3.687,0.934-3.896,1.048c-1.114,0.835-2.188,1.717-3.223,2.647
		c-2.033,2.103-3.749,4.509-5.051,7.141c-2.579,5.208-3.872,11.302-3.985,17.11c-0.241,12.5,2.31,24.898,7.382,36.315
		c3.244,7.305,15.341,12.915,20.051,4.084c4.793-8.992,5.254-19.237,4.469-29.196C332.434,456.316,331.265,446.006,327.318,437.785
		L327.318,437.785z"/>
	<path fill="#010101" d="M269.87,434.372c-2.39-1.799-7.3-2.859-7.645,1.495c-0.653,8.26,2.033,16.782,1.791,25.182
		c-0.226,7.805-0.525,18.199-5.003,24.977c6.629,2.175,13.258,4.349,19.887,6.524c-3.277-7.982-5.78-16.291-6.784-24.897
		c-0.764-6.58-1.376-16.171,4.21-20.881c-7.321-2.401-14.642-4.801-21.963-7.203c1.19,2.747,2.046,5.588,3.542,8.18
		c4.558,7.903,19.899,15.328,22.355,1.813c0.891-4.915-1.129-9.829-3.211-14.224c-2.938-6.194-16.079-15.605-21.965-7.204
		c-13.536,19.334-7.676,48.747,3.272,68.246c3.484,6.207,17.032,15.068,21.213,4.321c4.415-11.353,4.391-24.016,2.817-35.939
		C281.042,454.566,278.643,440.971,269.87,434.372L269.87,434.372z"/>
	<path fill="#010101" d="M381.637,699.958c-1.494-2.805-8.222-4.657-7.051,0.328c10.014,42.655,7.502,89.309-4.984,131.104
		c3.027-1.691,6.059-3.381,9.089-5.072c-38.805-2.763-76.787,9.537-115.507,9.024c-19.56-0.26-39.021-2.107-58.439-4.365
		c-9.708-1.13-19.407-2.328-29.12-3.408c-9.847-1.096-19.912-2.767-29.817-2.035c5.626,7.372,11.252,14.745,16.878,22.119
		c2.159-3.042,3.197-5.689,3.268-9.41c0.124-6.729-5.736-11.629-11.919-12.666c-4.458-0.748-6.786-0.571-11.052,0.937
		c-5.396,1.912-4.941,9.657-3.051,13.678c1.98,4.209,6.391,8.72,11.105,9.744c9.866,2.146,20.108,2.461,30.144,3.565
		c9.708,1.068,19.403,2.247,29.107,3.344c19.39,2.192,38.878,4.192,58.413,4.255c38.752,0.126,76.29-10.999,114.994-11.42
		c4.922-0.053,9.35-2.281,9.651-7.784C395.891,795.273,404.603,743.037,381.637,699.958L381.637,699.958z"/>
	<path fill="#010101" d="M170.115,683.763c-0.486-4.985-8.291-8.353-11.09-3.575c-4.466,7.623-6.606,21.364-8.769,31.239
		c-3.751,17.132-7.357,34.302-10.514,51.553c-2.928,16.012-5.778,32.137-7.195,48.367c-1.072,12.294-3.313,29.823,9.82,36.722
		c6.082,3.194,15.255,2.753,15.934-5.813c0.102-1.29-0.075-2.917-0.434-4.252c-0.363-1.354-0.877-2.664-1.356-3.981
		c0.771,2.354,0.963,2.901,0.583,1.647c-0.326-1.191-1.154-6.831-0.945-3.72c-0.394-5.827-0.3-11.681-0.047-17.511
		c0.719-16.469,2.46-32.896,4.432-49.256c2.016-16.72,4.251-33.412,6.705-50.074C168.734,704.963,171.115,694.011,170.115,683.763
		L170.115,683.763z"/>
	<path fill="#010101" d="M374.077,841.53c-2.04-3.896-10.97-6.347-9.589,0.446c4.183,20.561,1.976,39.75,0.49,60.41
		c2.357-1.9,4.715-3.802,7.071-5.702c-32.737-5.562-65.308,3.585-98.09,0.777c3.864,4.108,7.729,8.217,11.595,12.324
		c1.509-12.719-2.28-25.377-10.987-34.856c-3.189-3.472-9.006-7.657-13.937-4.63c-13.217,8.11-29.535,17.793-33.855,33.804
		c3.398-1.241,6.797-2.481,10.196-3.721c-14.814-3.052-29.489-2.25-44.472-0.969c-12.727,1.089-26.365,2.976-38.847-0.655
		c3.207,3.409,6.413,6.819,9.621,10.229c-0.754-8.803-0.83-22.935,0.552-33.571c0.676-5.195,1.582-10.526,3.902-15.282
		c1.518-3.114,4.527-6.005,6.018-6.93c6.953-4.313,0.734-14.749-5.539-16.104c-32.125-6.941-26.855,51.756-25.194,70.245
		c0.411,4.573,5.478,9.04,9.622,10.229c27.555,7.901,55.736-4.274,83.334,1.301c3.522,0.713,8.986,0.851,10.196-3.72
		c3.455-13.034,16.905-20.8,27.541-27.596c-3.978-0.825-7.955-1.653-11.934-2.481c4.693,4.971,5.23,12.121,4.552,18.545
		c-0.646,6.096,5.939,11.898,11.595,12.324c32.725,2.459,65.151-7.159,97.8-2.145c3.277,0.503,7.283-2.079,7.07-5.702
		C381.516,886.587,384.405,861.254,374.077,841.53L374.077,841.53z"/>
	<path fill="#010101" d="M317.362,721.209c-0.353-1.101-3.348-3.508-3.854-1.242c-2.669,11.985-10.459,16.366-21.715,19.252
		c-9.196,2.358-22.105,3.919-31.246,0.714c-3.044-1.066,0.165,0.775-0.588-0.177c-0.662-0.788-1.277-1.616-1.842-2.479
		c-1.188-1.917-2.223-4.23-2.824-6.407c-1.182-4.275-0.424-9.039-1.376-12.469c-2.788-10.035-17.74-12.127-17.515,0.422
		c0.189,10.593,5.895,23.474,13.933,30.432c8.557,7.409,20.427,7.422,31.16,6.509c10.429-0.888,20.781-3.354,29.411-9.555
		C319.664,739.91,320.472,730.886,317.362,721.209L317.362,721.209z"/>
	<path fill="#010101" d="M380.395,704.626c7.436,6.272,16.059,10.83,23.059,17.747c6.978,6.895,12.344,14.769,16.691,23.525
		c0.167-2.631,0.333-5.261,0.498-7.892c-6.368,5.699-16.182,7.67-23.451,12.1c-7.736,4.717-14.114,14.376-4.317,21.447
		c2.461,1.776,7.61,4.298,10.038,0.813c7.671-11.006,22.847-12.489,32.39-21.495c2.009-1.894,1.685-5.694,0.5-7.892
		c-6.071-11.253-14.541-21.514-24.358-29.713c-8.001-6.68-18.693-15.002-29.641-15.194
		C377.75,698.002,377.897,702.523,380.395,704.626z"/>
	<path fill="#010101" d="M160.35,674.186c-4.458-4.157-10.289,6.047-12.85,8.497c-6.283,6.014-13.393,11.109-20.53,16.05
		c-14.416,9.976-30,19.612-41.471,33.094c-5.543,6.516,3.473,14.679,9.604,15.604c9.252,1.393,17.779,4.112,26.051,8.541
		c4.162,2.231,8.248,4.586,12.258,7.082c4.072,2.531,7.646,5.407,12.651,5.344c5.086-0.067,8.214-4.42,5.653-9.247
		c-5.148-9.703-19.205-15.974-28.916-20.492c-9.915-4.614-20.447-8.451-31.483-8.904c3.554,4.613,7.109,9.225,10.664,13.839
		c8.305-14.912,25.695-25.116,38.443-35.855C146.358,702.74,170.468,683.618,160.35,674.186L160.35,674.186z"/>
	<path fill="#010101" d="M342.459,905.513c-1.243-1.932-6.14-2.313-5.07,0.959c8.091,24.771,8.838,51.447-2.435,75.313
		c-2.607,5.522,5.06,11.31,9.947,10.602c3.815-0.551,8.027-0.809,11.735,0.511c1.433,0.51,2.502,2.141,1.879,0.399
		c-0.495-0.583-0.776-0.16-0.848,1.265c-3.739,4.769-8.053,7.752-14.14,8.411c-5.346,0.579-22.949-0.063-23.119-8.347
		c-0.273-13.231,5.9-25.564,6.89-38.646c1.198-15.862,1.166-32.751-4.904-47.652c-4.657,0.867-9.313,1.737-13.969,2.603
		c1.001,2.103,2.261,3.813,3.561,5.723c2.219,3.262,9.13,5.808,11.096,0.9c1.311-3.274,0.799-6.104-0.688-9.226
		c-3.799-7.979-18.357-8.034-13.969,2.603c8.628,20.917,2.571,44.335-1.58,65.419c-1.521,7.711-2.76,16.046,0.948,23.348
		c3.597,7.086,11.031,12.021,18.34,14.615c15.016,5.331,35.528,4.889,44.619-10.408c4.55-7.654,0.867-15.805-5.993-20.558
		c-7.558-5.236-17.395-5.841-26.216-4.444c3.316,3.533,6.633,7.067,9.948,10.601C354.684,962.226,358.435,930.344,342.459,905.513
		L342.459,905.513z"/>
	<path fill="#010101" d="M207.183,914.248c-0.406-1.865-4.879-4.98-5.67-1.822c-3.098,12.348-2.871,25.895-4.016,38.555
		c-1.22,13.485-3.689,26.422-6.271,39.66c-0.864,4.434,4.755,9.092,8.726,9.271c1.537,0.071,8.886,0.166,7.553,2.914
		c-2.025,4.177-6.781,6.233-11.199,6.463c-8.975,0.463-18.745-2.955-26.236-7.739c1.636,3.379,3.272,6.759,4.909,10.139
		c4.577-20.598,10.631-40.332,10.816-61.604c0.055-6.297,0.109-12.593,0.163-18.889c0.032-3.891,0.752-8.726-0.374-12.512
		c-1.232-4.141-4.685-7.693-9.183-8.058c-3.791-0.308-7.165,2.888-5.993,6.827c0.183,0.612,0.365,1.228,0.548,1.84
		c1.362,4.578,11.154,12.16,13.896,4.479c0.177-0.498,0.354-0.996,0.533-1.492c2.762-7.738-11.701-17.04-14.776-8.422
		c-1.325,3.711-0.606,8.376-0.573,12.232c0.052,5.985,0.104,11.971,0.154,17.956c0.178,20.575-5.329,39.47-9.64,59.415
		c-0.937,4.331,1.259,7.83,4.909,10.138c13.423,8.483,35.852,15.436,49.897,5.059c6.696-4.945,9.307-13.161,4.873-20.556
		c-4.891-8.153-14.065-11.817-23.259-12.101c2.908,3.09,5.816,6.181,8.725,9.271c1.77-13.358,2.433-27.216,3.041-40.695
		C209.332,941.416,210.005,927.186,207.183,914.248L207.183,914.248z"/>
	<path fill="#010101" d="M423.086,756.997c-3.129,2.959,0.141,9.972,1.34,13.307c2.19,6.083,4.929,11.91,7.797,17.699
		c3.078,6.218,6.181,12.416,9.121,18.7c2.254,4.812,7.009,11.946,7.297,17.323c0.365,6.87,12.764,14.123,14.207,4.554
		c1.051-6.964-4.226-12.864-10.956-13.921c-7.115-1.116-3.579,10.041-2.51,12.831c3.898-1.355,7.796-2.711,11.694-4.066
		c-3.467-4.954-5.647-11.459-8.548-16.802c-3.351-6.172-6.821-12.274-10.079-18.497c-3.061-5.851-6.072-11.745-8.809-17.758
		c-1.889-4.15-3.159-10.223-6.898-13.073C425.662,756.469,424.207,755.938,423.086,756.997z"/>
	<path fill="#010101" d="M467.276,845.374c1.902,0.741-2.219-1.453,1.168,0.657c0.543,0.376,1.131,0.671,1.76,0.882
		c0.973,0.372,1.955,0.717,2.914,1.126c2.177,0.923,4.346,1.879,6.46,2.938c1.212,0.607,2.425,1.224,3.575,1.941
		c0.418,0.255,0.83,0.519,1.236,0.793c-0.658-0.477-0.668-0.466-0.031,0.031c0.658,0.609,0.578,0.495-0.238-0.344
		c0.477,0.663,1.021,1.269,1.633,1.817c1.954,1.423-2.738-3.386-1.592-5.113c-2.328,3.509,1.308,8.7,5.352,8.692
		c4.123-0.008,7.476-2.37,6.583-6.924c-0.853-4.365-5.231-7.386-9.058-9.108c-6.555-2.947-14.844-6.212-21.775-3.256
		C462.164,840.828,465.583,844.715,467.276,845.374z"/>
	<path fill="#010101" d="M456.713,851.922c3.322,3.039,6.574,6.493,9.016,10.298c2.383,3.713,0.572,5.854,0.621,9.832
		c0.045,3.53,3.565,6.937,7.197,6.314c8.801-1.506,6.258-12.186,2.908-17.528c-3.981-6.348-10.063-10.741-16.695-13.995
		C455.713,844.858,453.629,849.101,456.713,851.922z"/>
	<path fill="#010101" d="M443.332,855.837c-0.5,4.432,0.581,9.548,0.666,14.076c0.072,3.957-1.393,8.428-0.613,12.238
		c0.734,3.598,5.496,7.29,9.152,5.318c4.648-2.508,4.03-10.768,3.141-15.197c-1.107-5.526-2.515-12.178-5.97-16.747
		C448.169,853.491,443.742,852.22,443.332,855.837z"/>
	<path fill="#010101" d="M439.579,850.722c1.839-2.146-1.099-5.852-3.532-5.743c-10.35,0.461-17.701,12.313-14.783,22.041
		c1.158,3.859,7.768,8.655,10.393,3.347c1.802-3.642,1.479-7.744,2.897-11.519C435.774,855.6,437.338,853.339,439.579,850.722
		L439.579,850.722z"/>
	<path fill="#010101" d="M414.018,776.914c-1.584-2.571-6.029-1.758-4.666,1.624c3.623,8.982,8.042,17.608,11.943,26.472
		c3.416,7.757,8.717,18.45,7.23,27.193c-1.183,6.952,12.042,12.958,13.51,4.33c0.264-1.555-0.057-3.242-0.347-4.766
		c-0.798-4.201-11.177-11.067-12.648-4.076c-0.45,2.135-0.717,3.962-0.378,6.139c1.117,7.159,14.687,10.378,13.235,1.073
		C438.508,813.186,425.272,795.167,414.018,776.914L414.018,776.914z"/>
	<path fill="#010101" d="M124.013,765.799c0.782-1.419-1.813-3.226-2.941-2.103c-7.851,7.775-15.324,15.638-22.307,24.22
		c-3.762,4.622-7.501,9.271-11.002,14.096c-2.548,3.511-5.522,10.196-9.544,12.16c-1.463,0.714-2.375,2.392-2.421,3.982
		c-0.323,11.136-0.496,22.271-0.648,33.413c5.219,1.674,10.439,3.348,15.657,5.02c-0.443-6.085-1.871-11.696-6.523-15.896
		c-1.576-1.423-4.113-2.321-6.122-1.273c-5.613,2.927-3.367,8.883-2.854,14.037c0.692,6.969,15.625,12.464,15.498,3.132
		c-0.115-8.56-0.173-17.12-0.417-25.677c-0.132-4.646-0.946-9.583,1.367-13.844c2.223-4.092,4.597-8.098,7.116-12.017
		C107.31,791.93,116.478,779.48,124.013,765.799L124.013,765.799z"/>
	<path fill="#010101" d="M62.204,833.236c-2.22,6.304-5.834,12.14-10.193,17.195c-3.946,4.574-8.964,7.431-13.101,11.608
		c-4.48,4.526,3.555,12.125,8.392,10.999c6.778-1.572,12.65-9.313,16.08-14.953c4.273-7.027,7.182-14.465,5.367-22.743
		C68.242,833.037,63.438,829.737,62.204,833.236z"/>
	<path fill="#010101" d="M46.895,828.907c-5.813,3.403-11.104,8.379-15.837,13.134c-2.614,2.627-5.28,5.203-7.876,7.847
		c-2.807,2.856-3.917,4.129-3.288,8.202c0.397,2.582,3.105,4.632,5.579,4.896c6.96,0.745,11.237-7.79,14.913-12.757
		c3.891-5.261,7.968-10.268,12.075-15.351C54.825,831.953,49.954,827.119,46.895,828.907z"/>
	<path fill="#010101" d="M43.137,816.567c-4.455,0.445-9.656,2.715-13.178,5.473c-3.829,2.998-8.615,6.437-8.858,11.696
		c-0.209,4.451,5.054,8.324,9.162,6.589c3.877-1.634,6.493-6.641,9.463-9.574c2.715-2.681,5.856-4.753,8.674-7.281
		C51.617,820.579,45.873,816.297,43.137,816.567z"/>
	<path fill="#010101" d="M117.936,748.959c1.154-2.716-3.101-5.646-5.257-3.752c-13.287,11.659-26.701,23.236-39.681,35.245
		c-6.432,5.952-13.147,12.005-18.38,19.079c-4.356,5.888-7.666,10.884-2.84,17.717c2.307,3.268,9.028,5.793,11.095,0.899
		c-0.663,1.568,1.114-1.538,1.423-2.163c0.454-0.917,0.16-2.433,0.534-3.206c1.352-2.781,3.128-5.303,5.015-7.75
		c5.5-7.137,11.593-13.806,17.766-20.362c6.463-6.866,13.102-13.567,19.361-20.623C111.112,759.378,115.466,754.766,117.936,748.959
		L117.936,748.959z"/>
	<path fill="#010101" d="M300.622,301.038c3.659,4.308,8.679,7.092,12.352,11.415c3.146,3.7,6.115,7.729,8.18,12.15
		c4.497,9.625,4.28,19.537,6.091,29.771c1.279,7.244,13.389,14.094,17.673,5.695c6.808-13.341-0.389-31.42-7.776-43.065
		c-6.255-9.856-20.385-24.566-33.214-24.259C299.29,292.857,297.622,297.509,300.622,301.038z"/>
	<path fill="#010101" d="M282.057,306.75c-7.339-1.875-6.332,6.326-1.938,9.35c7.123,4.902,11.448,15.592,13.294,23.665
		c2.148,9.391,1.302,20.3,5.999,28.865c2.5,4.561,9.513,9.396,14.182,4.651c8.998-9.144,2.132-29.448-2.189-39.434
		C305.686,320.634,296.183,310.359,282.057,306.75L282.057,306.75z"/>
	<path fill="#010101" d="M257.931,327.303c1.229,10.755-0.782,21.464,0.618,32.082c1.184,8.995,19.325,16.562,20.323,4.106
		c0.966-12.085-4.771-25.548-8.855-36.752C267.875,320.862,257.004,319.205,257.931,327.303z"/>
</g>
</svg>
