<?xml version="1.0" encoding="utf-8"?>
<!-- Generator: Adobe Illustrator 15.1.0, SVG Export Plug-In . SVG Version: 6.00 Build 0)  -->
<!DOCTYPE svg PUBLIC "-//W3C//DTD SVG 1.1//EN" "http://www.w3.org/Graphics/SVG/1.1/DTD/svg11.dtd">
<svg version="1.1" id="Layer_1" xmlns="http://www.w3.org/2000/svg" xmlns:xlink="http://www.w3.org/1999/xlink" x="0px" y="0px"
	 width="1024px" height="1024px" viewBox="0 0 1024 1024" enable-background="new 0 0 1024 1024" xml:space="preserve">
<g id="bed">
	<path fill="#010101" d="M35.576,328.294c-1.676,0.717-3.353,1.435-5.032,2.152c-1.245-5.583-2.491-11.162-3.736-16.741
		c-8.632,21.547-1.843,43.755-1.019,65.986c1.066,28.836-1.817,58.03-3.158,86.822c-1.383,29.693-1.391,59.435-1.311,89.152
		c0.039,15.155,0.111,30.309,0.072,45.466c-0.016,5.622-1.144,12.934,1.278,18.133c9.147,19.612,42.659-2.348,34.564-19.703
		c-0.226-0.483-0.451-0.968-0.678-1.45c-6.683-14.332-27.871-5.14-32.196,6.555c-0.212,0.574-0.423,1.147-0.636,1.723
		c-3.008,8.131-2.242,18.315,8.113,20.234c9.355,1.736,21.048-5.283,24.339-14.183c2.677-7.242,2.364-14.214,2.339-21.781
		c-0.042-13.573-0.178-27.144-0.309-40.714c-0.288-29.635-0.47-59.27,0.464-88.893c0.896-28.405,2.688-56.748,2.854-85.178
		c0.064-10.708-1.233-21.117-2.616-31.716c-1.208-9.257-3.449-21.337-1.983-29.043c1.561-8.204-3.917-14.851-12.427-14.162
		c-9.282,0.75-16.553,8.114-19.045,16.71c-0.003,0.015-0.008,0.029-0.011,0.042c2.689-3.491,5.377-6.98,8.066-10.472
		c-0.695,0.352-1.392,0.702-2.088,1.052C20.632,313.718,20.84,332.837,35.576,328.294L35.576,328.294z"/>
	<path fill="#010101" d="M360.02,370.302c0.616,0.294,1.228,0.589,1.842,0.882c-1.125-1.278-2.247-2.562-3.372-3.843
		c0.611,1.001,1.08,2.063,1.413,3.189c0.297-3.625,0.596-7.255,0.893-10.881c-5.371,14.535-5.324,28.887-4.252,44.15
		c1.004,14.247,1.646,28.054,0.852,42.35c-1.559,28.115-1.995,56.331-4.041,84.41c-1.999,27.452-5.54,54.771-7.41,82.239
		c-0.898,13.209-0.956,26.442-1.762,39.654c-0.817,13.465-1.713,26.977,0.746,40.326c12-5.306,24.001-10.615,36.004-15.925
		c-0.83-3.089-2.702-6.141-5.748-7.547c-1.147-0.531-13.007-3.593-7.33-2.085c-8.833-2.347-16.931,5.463-20.938,12.203
		c-3.405,5.725-2.795,11.328-1.137,17.467c2.095,7.761,12.218,8.747,18.482,6.744c8.328-2.661,19.359-12.758,17.52-22.671
		c-2.134-11.512-1.764-23.125-1.125-34.762c0.717-13.105,1.003-26.21,1.688-39.313c1.435-27.448,4.942-54.769,7.196-82.159
		c2.305-27.992,2.197-56.104,3.768-84.147c0.789-14.115,1.014-28.132-0.537-42.2c-1.526-13.837-3.117-27.123-2.958-41.083
		c0.098-8.363-9.406-11.361-16.064-9.018c-2.458,0.864-4.763,2.207-7.204,3.04C360.505,353.375,350.492,365.727,360.02,370.302
		L360.02,370.302z"/>
	<path fill="#010101" d="M36.142,558.572c8.025,7.313,22.53,9.702,32.857,12.008c14.078,3.144,27.87,7.521,41.541,12.077
		c25.922,8.637,51.687,17.54,78.075,24.675c51.99,14.061,106.808,20.257,156.332,42.374c6.818-11.201,13.637-22.405,20.455-33.605
		c-6.187-1.127-11.338-0.638-17.423,0.686c-12.765,2.783-21.474,20.674-10.162,29.552c2.285,1.792,4.404,2.408,7.13,3.367
		c9.866,3.476,19.697-0.3,26.027-8.646c4.684-6.174,7.965-19.568-1.61-23.583c-52.102-21.845-108.701-28.493-163.374-41.07
		c-27.628-6.354-54.444-15.267-81.729-22.856c-14.039-3.906-28.191-7.392-42.541-9.956c-13.22-2.362-29.382-2.894-41.575,3.483
		C36.911,548.767,32.412,555.174,36.142,558.572L36.142,558.572z"/>
	<path fill="#010101" d="M31.998,402.824c10.046,8.027,22.201,10.785,34.287,14.72c13.659,4.444,27.219,9.205,40.672,14.231
		c26.519,9.916,53.434,18.784,80.467,27.16c55.678,17.25,112.309,31.579,167.333,50.895c5.378-11.365,10.759-22.735,16.137-34.103
		c-3.361-0.116-6.4,0.618-9.615,1.553c-10.519,3.045-21.386,17.516-13.34,27.816c2.95,3.776,6.263,5.063,10.815,6.123
		c18.874,4.389,39.454-27.497,16.633-35.284c-55.724-19.02-112.841-33.334-169.478-49.28c-27.126-7.637-53.695-16.814-80.67-24.913
		c-14.19-4.261-28.554-8.252-43.102-11.085c-14.72-2.866-29.167-5.101-43.816-1.016C34.383,390.738,26.971,398.807,31.998,402.824
		L31.998,402.824z"/>
	<path fill="#010101" d="M57.101,412.158c-12.237,26.448-11.976,57.78-10.907,86.361c0.517,13.808,2.472,27.285,5.432,40.769
		c2.585,11.774,8.918,23.59,23.322,19.104c21.935-6.834,22.749-36.032,24.589-54.814c0.475-4.828,0.872-9.666,1.278-14.502
		c0.15-1.783,0.098-1.163-0.158,1.858c0.207-2.433,0.872-4.932,1.317-7.327c0.794-4.265,1.636-8.515,2.444-12.776
		c3.464-18.266,6.611-37.615,2.938-56.078c-11.62,5.139-23.238,10.279-34.859,15.418c3.03,12.446,14.146,15.398,25.165,17.477
		c1.807,0.486,1.912,0.448,0.316-0.109c1.552,0.9,1.672,0.846,0.362-0.163c-0.516-0.57-0.729-1.236-0.642-1.989
		c0.353,1.722,0.331,3.526,0.345,5.271c0.035,4.38-1.588,10.81-2.739,16.057c-6.804,30.993-4.674,64.436-3.23,95.991
		c0.335,7.343,7.3,13.151,14.693,11.852c17.089-3.001,29.225-12.021,37.958-26.901c6.902-11.759,7.883-26.991,8.303-40.247
		c0.423-13.24-0.662-26.504-1.267-39.719c-0.29-6.381-0.456-12.77-0.264-19.157c0.042-1.438,0.136-2.869,0.233-4.304
		c-0.288,4.233,0.103-0.146,0.203-0.873c0.326-2.377,0.869-4.713,1.56-7.004c-10.135,5.892-20.272,11.778-30.407,17.669
		c4.268,2.981,9.618,4.318,14.575,5.719c2.511,0.711,5.054,1.319,7.579,1.979c1.211,0.32,2.416,0.659,3.614,1.022
		c-1.211-0.464-0.977-0.352,0.705,0.336c2.834,1.197-1.128-3.381,0.217-0.16c-0.194-1.479-0.183-1.187,0.032,0.876
		c0.057,1.262,0.046,2.515-0.035,3.773c-0.094,2.529-1.917,9.427-2.814,13.458c-6.878,30.904-6.122,63.225-9.915,94.563
		c-1.229,10.145,4.111,16.229,14.328,16.328c15.532,0.153,28.875-0.445,39.72-13.548c9.563-11.558,10.344-25.292,8.824-39.568
		c-0.556-5.231-1.862-10.844-1.413-16.124c0.685-8.053,2.389-16.02,4.082-23.912c3.778-17.618,7.607-35.107,7.06-53.25
		c-11.353,6.522-22.703,13.044-34.057,19.565c2.817,4.333,7.033,7.593,11.879,9.382c3.012,1.111,5.946,1.972,9.058,2.68
		c1.998,0.451,4.165,1.911,1.762-0.073c2.399,1.981,0.102-1.743,0.256,1.162c0.104,1.941-0.104,2.308-0.602,5.261
		c-0.851,5.072-2.223,10.054-3.368,15.063c-3.092,13.51-4.113,27.954-5.775,41.708c-1.944,16.074-3.185,32.28-2.579,48.474
		c0.206,5.537,4.461,11.082,10.235,11.662c14.016,1.412,28.294,0.346,39.111-9.836c10.172-9.575,12.678-22.03,12.25-35.458
		c-0.982-30.756-1.344-61.144,4.838-91.496c-11.235,5.036-22.47,10.075-33.705,15.111c3.886,3.989,8.213,6.907,13.445,8.754
		c3.177,1.12,6.341,2.106,9.577,3.021c0.864,0.244,3.128,1.611,1.972,0.577c-0.746-0.666-0.728-2.548-0.486-0.259
		c0.248,2.344,0.172,4.73,0.131,7.08c-0.093,5.283-0.494,8.793-0.828,12.675c-2.461,28.576-4.588,59.389-3.272,89.325
		c0.27,6.133,4.48,10.316,10.243,11.672c7.24,1.703,14.401,2.476,21.833,2.687c7.915,0.227,17.791-7.503,20.43-14.727
		c7.727-21.156,4.569-41.218,3.317-63.088c-1.218-21.287,4.591-42.322,3.582-63.67c-10.285,7.395-20.569,14.79-30.854,22.185
		c9.791,3.925,19.612,6.087,30.013,7.582c-3.416-3.891-6.832-7.785-10.247-11.678c6.017,41.349-5.941,82.511-4.964,123.912
		c0.14,5.878,4.546,10.663,10.251,11.68c16.664,2.966,33.923-2.615,43.729-17.003c8.887-13.035,10.115-28.719,9.395-44.061
		c-0.7-14.935-3.369-29.738-5.438-44.522c-0.902-6.434-1.699-12.888-2.108-19.373c-0.168-2.699-0.204-5.402-0.117-8.104
		c0.104-3.263-0.592,4.194,0.093-0.433c0.166-1.127,0.45-2.229,0.772-3.321c-8.835,6.373-17.67,12.742-26.504,19.11
		c5.363,0.483,10.759,0.4,16.11,0.932c0.377,0.036,4.361,1.214,3.777,0.932c-0.339-0.763,0.114-0.231,1.359,1.595
		c-0.97-1.486-1.056-1.331-0.256,0.47c-0.903-2.593,0.224,2.719,0.231,2.833c0.202,2.684,0.033,5.396-0.114,8.079
		c-0.161,2.892-1.033,8.106-1.582,11.863c-3.874,26.567-4.994,54.997-3.764,81.81c8.963-7.867,17.928-15.732,26.891-23.599
		c-1.682-0.348-3.275-0.894-4.957-1.242c-18.965-3.91-40.07,30.455-16.634,35.287c1.682,0.348,3.275,0.894,4.957,1.242
		c12.969,2.674,27.484-10.67,26.891-23.599c-1.308-28.438,1.503-56.785,4.595-84.983c1.385-12.604,1.733-24.388-5.126-35.482
		c-7.382-11.937-23.957-10.353-35.751-11.412c-12.568-1.126-23.018,7.282-26.504,19.111c-2.937,9.971-1.689,21.31-0.521,31.47
		c1.464,12.745,3.686,25.393,5.224,38.131c0.72,5.976,1.247,11.973,1.47,17.989c0.102,2.75,0.075,5.497-0.03,8.243
		c-0.164,4.443,0.433-3.66-0.021,0.61c-0.165,1.582-0.445,3.145-0.751,4.7c-0.214,1.093-0.514,2.164-0.818,3.232
		c1.482-5.194,0.655-1.964,0.09-0.693c-1.556,3.494,2.847-4.166,0.751-1.092c-1.948,2.856,4.532-3.993,0.623-0.724
		c5.16-4.313-0.432-0.701,5.207-3.039c-1.294,0.537-4.564,0.943,0.818,0.036c-1.111,0.186-2.248,0.201-3.369,0.223
		c4.807-0.095-0.857-0.274-1.999-0.479c3.418,3.894,6.833,7.788,10.251,11.684c-0.983-41.409,10.977-82.521,4.951-123.908
		c-0.835-5.738-4.003-10.779-10.248-11.677c-7.413-1.066-15.037-2.002-22.028-4.804c-13.866-5.561-31.572,6.999-30.854,22.185
		c0.925,19.526-3.466,38.735-3.715,58.235c-0.204,15.995,6.366,34.918,0.702,50.431c6.81-4.911,13.622-9.817,20.43-14.729
		c-2.783-0.08-8.926-1.345-12.862-2.271c3.414,3.891,6.829,7.782,10.243,11.675c-0.705-16.021-0.549-32.024,0.236-48.038
		c0.369-7.522,0.908-15.043,1.582-22.549c0.29-3.253,0.583-6.494,0.734-9.756c0.056-0.961,0.123-1.923,0.202-2.881
		c-0.27,3.583,0.222-2.527,0.225-2.562c0.886-10.316,3.42-23.845-1.361-33.583c-3.319-6.761-9.309-9.926-16.117-12.242
		c-4.618-1.572-8.984-1.81-12.044-4.95c-11.415-11.71-31.046,2.048-33.705,15.11c-5.497,27.001-7.098,55.233-6.514,82.751
		c0.092,4.262,0.409,8.518,0.675,12.773c0.134,2.154,0.237,4.31,0.306,6.468c0.028,0.854-0.252,7.178,0.163,2.597
		c-0.138,1.508-1.813,6.449,0.176,1.205c-0.927,1.889-0.569,1.336,1.075-1.654c1.355-1.81,3.006-3.29,4.951-4.444
		c2.948-1.179,3.359-1.413,1.232-0.705c2.386-0.437,2.463-0.51,0.227-0.221c-2.539,0.266-3.403,0.086-5.569-0.131
		c3.413,3.888,6.824,7.776,10.235,11.661c-0.572-15.267,0.648-30.32,2.552-45.46c1.795-14.294,3.353-28.74,6.689-42.763
		c2.819-11.848,5.548-24.974-1.091-35.937c-3.418-5.652-9.038-7.896-15.019-9.917c-6.203-2.097-6.591-0.073-9.763-4.953
		c-4.383-6.736-15.641-4.288-21.176-1.133c-7.287,4.16-13.143,12.04-12.88,20.701c0.797,26.382-9.558,51.768-11.15,78.061
		c-0.259,4.295,0.685,8.842,1.185,13.094c0.336,2.844,0.619,5.689,0.841,8.546c0.065,0.836,0.054,7.215,0.256,5.296
		c-0.502,4.776,1.625-2.332-0.345,1.204c2.141-3.842,6.249-6.479,10.567-7.172c-4.825,0.771-10.09-0.049-14.948-0.099
		c4.777,5.44,9.552,10.887,14.328,16.328c4.045-33.443,3.951-67.357,11.193-100.366c2.51-11.441,5.569-28.936-4.794-37.683
		c-5.251-4.435-11.336-6.26-17.906-8.054c-6.174-1.685-10.136-2.097-14.187-4.925c-5.044-3.522-13.159-1.261-17.912,1.453
		c-6.399,3.65-10.406,9.284-12.495,16.218c-6.284,20.849-1.957,44.968-1.277,66.323c0.18,5.652,0.183,11.307-0.054,16.96
		c-0.052,1.077-0.116,2.155-0.192,3.232c0.239-3.663-0.199,1.395-0.244,1.767c-0.298,2.447-0.764,4.864-1.297,7.27
		c-0.213,0.909-0.447,1.815-0.704,2.713c-1.227,4.495,1.473-3.687-0.209,0.493c-0.332,0.785-0.689,1.56-1.077,2.319
		c-1.939,3.989,2.616-3.766,0.109-0.234c-1.413,1.742-0.936,1.3,1.431-1.332c-1.087,1.142-4.432,3.303,0.802-0.246
		c-1.175,0.797-4.804,2.112,0.327,0.08c-0.969,0.384-5.08,1.165-0.447,0.351c4.898,3.952,9.796,7.902,14.693,11.852
		c-0.824-18.003-1.089-36.017-0.793-54.042c0.118-7.23-0.233-15.7,0.775-22.298c0.862-5.633,2.164-11.207,3.125-16.827
		c1.912-11.179,4.877-29.018-4.913-37.569c-4.781-4.176-10.37-5.924-16.553-6.943c-0.635-0.104-6.363-1.462-3.222-0.333
		c-1.55-0.885-1.647-0.797-0.286,0.265c1.529,1.328-0.307-0.781-0.687-2.319c-1.873-7.554-11.951-8.431-17.896-6.528
		c-7.936,2.536-18.901,12.405-16.96,21.946c5.232,25.735-4.329,50.673-6.403,76.153c-0.204,2.491,0.293-3.308-0.127,1.463
		c-0.156,1.758-0.323,3.516-0.493,5.271c-0.412,4.269-0.895,8.531-1.448,12.782c-0.464,3.565-1.026,7.118-1.672,10.651
		c-0.275,1.492-0.608,2.97-0.966,4.443c-1.178,4.842,1.53-3.152-0.189,0.587c4.545-9.081,13.51-11.902,26.892-8.47
		c-0.89-1.065-0.61-0.5,0.844,1.69c-0.731-1.242-1.192-2.661-1.673-4.006c-1.179-3.296-2.693-9.834-3-11.375
		c-2.248-11.207-3.628-22.683-4.734-34.051c-2.144-22.057-2.974-46.324,2.165-68.06c1.186-5.011-1.521-10.063-6.742-11.034
		C67.205,400.952,59.922,406.066,57.101,412.158L57.101,412.158z"/>
	<path fill="#010101" d="M140.786,566.151c2.618,0,5.458-1.636,7.351-3.296c2.036-1.786,3.648-4.185,4.221-6.861
		c0.477-2.216,0.164-4.646-1.378-6.407c-1.643-1.87-3.831-2.196-6.172-2.196c-2.618,0-5.457,1.633-7.351,3.292
		c-2.036,1.79-3.648,4.185-4.222,6.862c-0.475,2.219-0.163,4.648,1.38,6.406C136.256,565.821,138.445,566.151,140.786,566.151
		L140.786,566.151z"/>
	<path fill="#010101" d="M366.461,651.14c7.553,1.038,13.245-3.955,19.545-7.454c7.716-4.284,15.281-8.835,22.878-13.324
		c16.524-9.775,33.387-18.931,50.167-28.256c33.677-18.718,67.844-36.538,101.718-54.893
		c33.843-18.336,67.162-37.589,100.377-57.029c18.13-10.615,36.149-21.432,54.451-31.75c18.139-10.227,36.761-19.193,55.211-28.767
		c8.488-4.404,12.279-20.996-1.139-20.286c-4.788,0.253-8.368,1.85-12.382,4.371c-3.601,2.261-8.66,8.758-4.503,12.927
		c2.848,2.854,5.23,4.532,9.342,4.755c0.552-6.718,1.101-13.438,1.651-20.156c-17.73,8.618-34.853,19.223-51.908,29.108
		c-18.192,10.542-36.3,21.221-54.419,31.884c-33.227,19.555-66.581,38.882-100.432,57.344
		c-33.843,18.456-67.932,36.468-101.608,55.235c-16.852,9.392-33.415,19.331-49.809,29.498c-7.55,4.678-15.162,9.394-22.337,14.637
		c-6.686,4.89-15.803,9.351-18.648,17.548C363.998,648.307,364.043,650.807,366.461,651.14L366.461,651.14z"/>
	<path fill="#010101" d="M68.098,392.579c2.983-10.923,5.311-19.749,14.098-27.566c7.846-6.979,17.859-11.403,27.468-15.354
		c28.897-11.882,59.071-21.009,88.537-31.378c68.552-24.12,136.813-49.055,205.457-72.895c4.458-1.548,8.387-5.264,9.401-9.994
		c1.089-5.082-2.544-9.44-7.818-8.909c-6.413,0.65-11.681,2.998-16.318,7.511c-3.22,3.135-5.686,10.487,0.744,11.753
		c3.82,0.75,7.555,0.398,11.416,0.159c0.527-6.302,1.055-12.601,1.583-18.903c-36.922,12.582-73.215,27.152-109.618,41.142
		c-37.344,14.352-75.431,26.873-113.07,40.439c-28.727,10.354-59.125,19.132-86.018,33.89
		c-10.089,5.537-19.487,12.604-26.626,21.694c-6.357,8.095-11.32,20.928-6.226,30.663C62.916,398.289,67.357,395.291,68.098,392.579
		L68.098,392.579z"/>
	<path fill="#010101" d="M401.445,213.112c2.751-6.479,4.229-13.382,9.245-18.648c4.69-4.926,11.135-7.462,17.585-9.145
		c16.495-4.298,34.541-2.478,51.191-0.173c17.404,2.411,34.554,6.513,51.497,11.101c16.685,4.521,34.373,8.524,47.75,20.077
		c2.162-2.835,4.326-5.671,6.489-8.505c-2.271-0.427-3.729-0.116-5.976,0.448c-2.151,0.541-5.569,4.548-3.198,6.667
		c1.626,1.453,2.506,2.069,4.654,2.472c3.493,0.654,10.353-5.174,6.489-8.505c-14.748-12.718-33.348-17.198-51.705-22.204
		c-19.572-5.334-39.526-9.601-59.719-11.723c-18.039-1.897-38.031-2.328-54.993,5.033c-12.08,5.243-26.727,19.021-22.212,33.696
		C398.99,215.16,401.071,213.988,401.445,213.112L401.445,213.112z"/>
	<path fill="#010101" d="M391.978,215.573c3.477,3.427,5.08,7.913,8.066,11.698c2.925,3.711,6.942,7.041,10.688,9.897
		c8.093,6.173,16.974,10.362,26.557,13.678c23.771,8.227,50.312,16.506,75.593,17.222c20.247,0.571,36.604-4.307,52.51-16.552
		c7.303-5.622,28.631-22.655,21.386-33.794c-2.137-3.285-7.234,0.986-7.728,3.466c-2.374,11.897-14.576,21.036-24.008,27.54
		c-16.219,11.182-36.357,10.788-55.154,7.972c-21.349-3.198-43.886-9.414-64.142-16.862c-8.651-3.18-16.559-8.05-23.741-13.781
		c-5.508-4.396-10.646-12.103-17.853-13.327C392.933,212.52,390.764,214.374,391.978,215.573z"/>
	<path fill="#010101" d="M556.11,274.579c10.858,10.583,28.931,14.105,43.23,17.31c17.544,3.93,35.312,6.564,52.79,10.819
		c14.59,3.55,29.834,7.833,44.991,6.365c11.982-1.157,30.602-9.77,33.152-22.838c0.785-4.019-3.614-5.824-6.702-3.743
		c-5.417,3.649-8.44,9.306-14.197,12.725c-5.387,3.201-11.873,3.827-17.989,4.095c-13.966,0.607-28.289-3.982-41.813-6.909
		c-15.44-3.343-31.194-5.093-46.724-7.957c-15.456-2.847-29.228-8.54-44.015-13.438C557.256,270.485,554.69,273.198,556.11,274.579
		L556.11,274.579z"/>
	<path fill="#010101" d="M559.61,271.808c15.938-9.027,27.182-25.111,40.42-37.448c6.902-6.434,14.57-12.184,23.781-14.742
		c8.38-2.325,18.524-1.806,27.104-1.29c34.298,2.063,76.025,14.54,98.421,42.227c0.194-2.523,0.39-5.047,0.583-7.573
		c-4.604,5.229-9.567,10.071-14.896,14.561c-5.03,4.238-11.749,6.39-16.259,11.096c-1.725,1.802-3.744,5.691-0.567,7.344
		c7.064,3.676,15.256-3.356,20.675-7.294c7.851-5.701,14.712-12.984,21.007-20.327c1.724-2.008,2.392-5.414,0.583-7.572
		c-24.701-29.449-69.07-41.491-106.035-42.728c-18.938-0.632-35.032,3.223-50.104,14.884
		c-17.164,13.284-30.378,31.658-46.064,46.603C556.967,270.783,557.814,272.827,559.61,271.808L559.61,271.808z"/>
	<path fill="#010101" d="M380.693,252.119c13.588,2.855,27.369,4.605,40.945,7.612c13.801,3.055,27.461,6.693,41.055,10.558
		c27.835,7.91,55.546,16.427,83.173,25.032c22.539,7.022,45.308,15.98,68.593,20.118c16.029,2.847,35.422,2.646,48.113,13.887
		c0.179-2.35,0.36-4.698,0.542-7.044c-0.044,0.069-0.09,0.143-0.135,0.216c1.946-1.13,3.89-2.257,5.833-3.387
		c-2.902,0.103-5.69,1.102-7.283,3.705c-2.795,4.572,0.461,9.984,5.84,6.657c0.137-0.084,0.273-0.167,0.411-0.253
		c-1.831,0.15-3.663,0.295-5.495,0.445c0.429,0.177,0.84,0.391,1.228,0.647c1.748,1.028,4.272,0.525,5.901-0.479
		c0.07-0.043,0.142-0.087,0.211-0.132c3.273-2.015,5.574-5.892,3.294-9.458c-3.495-5.468-11.788-7.618-17.649-9.223
		c-9.316-2.548-19.112-3.5-28.664-4.761c-24.193-3.187-47.532-11.386-70.848-18.33c-28.701-8.548-57.519-16.857-86.415-24.714
		c-27.91-7.587-57.734-16.05-86.836-16.408C380.041,246.775,377.394,251.427,380.693,252.119L380.693,252.119z"/>
	<path fill="#010101" d="M670.543,327.769c2.561,9.777,2.881,20.583,3.153,30.615c0.42,15.484,0.173,30.958-0.521,46.431
		c-0.656,14.591-1.76,29.204-3.869,43.664c-0.725,4.969-1.612,9.943-2.894,14.806c-0.408,1.544-0.552,1.755-1.239,3.509
		c-0.351,0.891-2.413,7.346-0.396,2.377c-0.964,2.375-0.551,5.14,2.311,5.768c10.608,2.337,13.196-14.619,14.313-21.499
		c2.444-15.056,3.198-30.464,3.648-45.691c0.505-17.042,0.186-34.093-1.286-51.083c-0.863-9.95-1.264-24.478-8.38-32.351
		C673.397,322.112,669.937,325.456,670.543,327.769L670.543,327.769z"/>
	<path fill="#010101" d="M437.84,103.458c-1.456,11.684-0.29,23.764-0.294,35.517c-0.003,6.968-0.231,13.975-0.919,20.909
		c-0.439,4.444-3.209,10.523,0.567,13.997c2.098,1.928,4.979,1.123,6.973-0.564c7.958-6.736,5.442-23.516,4.894-32.891
		c-0.731-12.501-1.651-26.796-6.611-38.452C441.488,99.711,438.07,101.621,437.84,103.458z"/>
	<path fill="#010101" d="M780.831,186.494c-2.783,12.493-2.171,25.827-2.712,38.573c-0.573,13.474-0.896,26.974-1.276,40.458
		c-0.789,27.941-1.769,55.882-2.128,83.835c-0.694,53.796,2.317,107.469,1.958,161.244c4.124-2.369,8.246-4.736,12.367-7.105
		c-1.779-2.827-4.267-4.871-6.245-7.544c-2.919-3.946-10.224,1.517-9.543,5.484c0.678,3.961,1.833,7.138,3.733,10.667
		c3.68,6.836,13.185,0.196,13.145-5.815c-0.366-53.676-3.412-107.216-2.974-160.918c0.219-26.785,0.525-53.565,0.85-80.349
		c0.163-13.363,0.177-26.727,0.156-40.089c-0.021-13.062,0.938-27.343-2.258-40.073C785.193,182.038,781.2,184.836,780.831,186.494
		L780.831,186.494z"/>
	<path fill="#010101" d="M759.126,430.017c-4.536,11.659-3.823,26.055-4.414,38.422c-0.712,14.896-0.624,29.729,1.176,44.55
		c0.251,2.06,1.429,3.663,3.561,4.057c7.586,1.4,15.399-0.218,20.529-6.394c4.328-5.21,7.535-14.006,3.127-19.93
		c-2.588-3.474-8.476,0.211-9.645,3.165c-2.328,5.888,0.129,12.25-8.239,10.913c1.188,1.352,2.374,2.704,3.56,4.057
		c-1.996-13.618-2.444-27.34-2.679-41.083c-0.201-11.777,2.358-27.752-2.909-38.583
		C762.316,427.385,759.701,428.538,759.126,430.017L759.126,430.017z"/>
	<path fill="#010101" d="M766.828,428.595c-9.764,22.815-5.147,50.151-6.601,74.282c3.882-1.242,7.765-2.488,11.646-3.733
		c-4.447-23.936,1.037-48.3,6.097-71.704c-3.815,0.308-7.635,0.617-11.45,0.928c-4.721,24.253-4.135,48.806-4.209,73.395
		c-0.024,7.963,12.336,2.386,12.435-3.986c0.389-24.97,7.243-49.302,7.325-74.307c-4.071,1.303-8.144,2.609-12.217,3.916
		c0.177,27.297-1.392,54.585-1.566,81.881c4.289-1.373,8.58-2.75,12.869-4.126c0.079-16.521,0.043-33.042,0.003-49.565
		c-4.292,1.377-8.583,2.753-12.876,4.127c0.869,6.106,1.486,12.242,1.867,18.393c0.208,3.343,0.233,6.681,0.111,10.026
		c-0.049,1.37-0.231,2.703-0.443,4.059c-0.134,0.754-0.309,1.502-0.53,2.235c-0.947,2.625,0.427,1.767,4.124-2.57
		c-4.534,0.635-10.855,9.254-3.705,10.832c19.828,4.371,12.7-38.025,11.452-47.102c-1.167-8.505-12.859-2.302-12.875,4.127
		c-0.039,16.523-0.079,33.043,0.003,49.564c0.039,8.216,12.892,2.53,12.869-4.126c-0.087-27.221,0.658-54.451,0.914-81.672
		c0.073-7.806-12.096-2.351-12.217,3.916c-0.479,24.996-7.394,49.321-7.542,74.378c4.144-1.328,8.289-2.655,12.434-3.986
		c-0.159-23.491-1.539-47.172,3.226-70.336c1.65-8.015-10.086-5.082-11.451,0.928c-5.603,24.633-11.557,50.635-6.024,75.809
		c1.479,6.724,11.245-0.51,11.378-5.033c0.69-23.571-1.705-46.747,1.113-70.26C773.49,424.673,768.049,425.742,766.828,428.595
		L766.828,428.595z"/>
	<path fill="#010101" d="M755.069,428.093c-2.215,9.535-1.704,19.404-1.366,29.119c0.197,5.649,0.222,11.304,0.05,16.957
		c-0.137,4.569-1.566,9.434,0.896,13.529c1.221,2.03,3.595,1.117,4.876-0.394c6.089-7.182,4.875-18.831,4.511-27.666
		c-0.455-10.964-1.367-22.432-4.41-33.014C758.901,424.103,755.419,426.578,755.069,428.093z"/>
	<path fill="#010101" d="M761.955,510.198c-0.097,2.347-1.149,4.598,0.368,6.721c1.537,2.154,3.224,3.094,5.787,3.784
		c6.315,1.7,12.886-2.039,16.814-6.68c1.083-1.278,2.163-4.042,1.218-5.684c-0.057-0.1-0.113-0.199-0.171-0.295
		c-0.928-1.614-2.072-2.267-3.962-2.213c-4.456,0.128-5.737,4.035-9.025,4.975c-2.893,0.827-5.573-0.94-8.41-0.781
		c0.473,0.167,0.944,0.335,1.415,0.503c-0.492-0.314-0.76-0.769-0.802-1.364C764.86,507.001,762.021,508.625,761.955,510.198
		L761.955,510.198z"/>
	<path fill="#010101" d="M438.835,106.11c28.119,7.912,55.877,17.272,83.898,25.572c29.12,8.627,58.984,14.949,88.389,22.561
		c29.044,7.515,58.096,16.769,87.574,22.35c26.858,5.085,54.854,5.746,80.255,16.8c-0.195-2.861-0.391-5.724-0.586-8.586
		c-0.387,0.502-0.771,1.009-1.158,1.514c1.54-1.108,3.085-2.216,4.625-3.324c-1.433,0.587-2.766,1.159-4.065,2.006
		c-4.941,3.219-5.861,13.905,2.222,10.71c3.663-1.447,5.676-2.491,8.438-5.47c1.992-2.148,2.671-7.144-0.586-8.586
		c-23.948-10.601-50.099-12.416-75.693-16.195c-30.199-4.461-59.961-14.002-89.53-21.467c-30.571-7.722-61.563-13.939-92.009-22.097
		c-29.604-7.932-58.473-18.572-89.097-21.474C438.597,100.147,434.941,105.014,438.835,106.11L438.835,106.11z"/>
	<path fill="#010101" d="M445.551,110.917c-0.69,13.368-1.986,26.908-1.986,40.289c0,8.354,12.968,2.511,13.045-4.185
		c0.159-13.664,1.34-27.412-1.018-40.958c-1.574-9.038-13.148-2.247-13.484,4.323c-0.989,19.309,3.014,38.646,0.702,57.902
		c-0.255,2.127-0.009,4.938,2.353,5.912c4.747,1.959,10.029,2.927,15.145,3.214c4.925,0.273,9.753-2.805,10.871-7.841
		c2.489-11.22,2.727-23.347,2.104-34.774c-0.476-8.684-1.749-23.055-12.321-25.197c-1.021,4.762-2.041,9.522-3.062,14.284
		c8.188-1.651,9.089,2.783,8.307,9.99c-0.913,8.396-3.239,16.663-2.841,25.169c0.48,10.224,15.423,2.792,15.575-4.989
		c0.157-8.112,1.211-16.115,2.305-24.145c-5.128,1.038-10.257,2.074-15.389,3.11c0.65,7.951,0.305,13.458-5.98,18.563
		c-6.05,4.911-11.904,9.319-16.856,15.447c-3.136,3.875-2.208,11.621,4.228,10.617c12.659-1.975,24.143-2.094,36.094,3.058
		c6.712,2.897,16.545-5.841,11.681-12.532c-9.307-12.799-3.916-32.913-3.762-47.553c0.105-9.879-15.243-2.939-15.437,4.949
		c-0.144,5.8-1.063,11.536-1.204,17.337c-0.243,9.806,15.083,2.911,15.376-4.929c0.247-6.674,2.147-13.123,2.44-19.814
		c-3.075,3.269-6.152,6.538-9.226,9.806c18.933-1.263,7.048,37.032,4.967,46.555c5.229-1.057,10.455-2.112,15.684-3.167
		c-2.365-15.86-1.938-31.841-5.38-47.58c-1.843-8.416-16.137-0.086-15.364,6.797c1.511,13.404,5.567,26.974,1.32,40.238
		c-1.023,3.199,1.186,6.198,4.227,6.916c10.212,2.415,19.817,5.988,29.23,10.609c6.887,3.385,16.893-6.202,12.015-12.892
		c-9.329-12.796-16.796-28.054-14.913-44.314c-3.839,2.768-7.68,5.537-11.519,8.307c3.129,0.186,10.22-0.052,12.077,3.378
		c1.438,2.652,0.211,6.497-0.326,9.213c-1.736,8.787-3.595,17.756,0.215,26.288c3.939,8.823,15.789-0.215,15.886-7.027
		c0.134-9.516,1.147-18.989,1.269-28.508c0.033-2.622-2.076-4.64-4.506-5.133c-5.531-1.133-9.607-3.922-14.342-6.84
		c-3.615,4.771-7.228,9.54-10.842,14.311c13.167,7.483,27.919,10.32,42.657,12.99c6.733,1.217,17.742-11.717,9.066-14.896
		c-7.027-2.572-12.928-6.19-17.16-12.485c-1.452,4.166-2.902,8.329-4.353,12.495c1.044-0.564,4.073-1.786,4.145-1.78
		c-0.749-0.084-0.191-0.336,0.364,1.379c1.201,3.705-0.14,8.927-0.771,12.602c-1.703,9.888-5.491,19.715-5.818,29.796
		c5.511-1.764,11.02-3.532,16.529-5.299c-2.35-11.691-2.656-23.657-5.336-35.298c-2.165-9.41-14.482,0.605-15.978,5.147
		c-3.643,11.076-2.689,22.723-2.627,34.205c0.021,3.555,3.338,5.481,6.545,5.277c8.167-0.519,14.577,4.908,20.973,9.265
		c5.671,3.863,14.34-4.148,13.818-9.935c-1.483-16.456-2.877-35.988-13.649-49.369c-2.927,4.758-5.854,9.517-8.783,14.273
		c9.566-1.479,12.137,2.192,12.403,11.341c0.273,9.311-1.644,18.576-1.76,27.885c5.623-1.801,11.244-3.604,16.865-5.408
		c-0.753-12.063,3.542-23.481,6.019-35.137c-5.561,1.124-11.12,2.248-16.682,3.371c0.01,4.955,0.016,9.909,0.024,14.862
		c0.017,10.715,16.821,3.309,16.807-5.386c-0.013-7.847-0.023-15.689-0.033-23.534c-4.04,3.546-8.077,7.088-12.115,10.633
		c17.926,4.22,1.188,33.7-0.755,44.757c-0.552,3.132,0.811,6.923,4.461,7.304c2.488,0.262,4.579,0.845,6.863,1.861
		c4.807,2.136,11.231-1.114,13.092-5.949c2.987-7.782,3.484-16.167,3.922-24.416c0.345-6.551,1.323-14.877-0.914-21.229
		c-3.312-9.401-19.083,0.736-16.105,9.18c0.465,1.325-0.23-2.026,0.059,0.638c0.127,1.159,0.163,2.333,0.216,3.497
		c0.146,3.221,0.097,6.449,0.029,9.668c-0.131,6.276,0.023,13.901-2.251,19.854c4.364-1.981,8.729-3.964,13.092-5.949
		c-3.388-1.497-6.785-2.715-10.485-3.094c1.487,2.433,2.975,4.867,4.461,7.304c3.375-19.43,21.998-52.119-8.189-59.325
		c-6.016-1.436-12.105,4.976-12.115,10.632c-0.013,7.851-0.023,15.703-0.034,23.553c-0.016,10.71,16.794,3.306,16.808-5.386
		c0.008-4.96,0.014-9.92,0.023-14.878c0.016-10.552-15.215-3.428-16.681,3.371c-2.813,13.052-7.232,25.67-6.374,39.206
		c0.701,11.095,16.767,3.028,16.865-5.409c0.137-11.576,3.267-23.499,1-35c-2.518-12.779-12.967-16.861-25.046-14.987
		c-5.749,0.892-13.681,8.202-8.783,14.273c9.032,11.204,9.824,28.575,11.135,42.322c4.605-3.312,9.213-6.623,13.818-9.936
		c-9.024-6.076-17.297-11.33-28.598-10.562c2.183,1.761,4.363,3.519,6.545,5.28c-0.106-10.257-0.967-20.346,2.336-30.231
		c-5.325,1.716-10.65,3.43-15.978,5.148c2.47,10.998,2.656,22.397,4.953,33.454c1.974,9.504,15.978-0.686,16.146-7.141
		c0.076-2.939,2.021-10.288,3.044-14.785c1.661-7.293,3.074-14.59,3.504-22.071c0.313-5.459-0.565-12.565-5.749-15.659
		c-6.414-3.831-14.339-0.353-20.219,2.822c-4.396,2.372-7.357,8.018-4.352,12.495c4.779,7.121,12.054,11.854,20.012,14.774
		c3.022-4.966,6.043-9.93,9.066-14.896c-13.563-2.462-27-4.892-39.125-11.793c-7.502-4.272-19.159,9.178-10.841,14.311
		c5.844,3.61,11.057,6.653,17.874,8.03c-1.502-1.711-3.003-3.421-4.507-5.133c-0.1,9.511-1.091,18.979-1.206,28.487
		c5.296-2.341,10.589-4.685,15.886-7.026c-4.018-8.942,0.943-19.05,1.362-28.332c0.563-12.449-11.298-16.45-21.613-17.042
		c-4.8-0.275-10.91,2.93-11.519,8.307c-2.321,20.47,5.366,38.528,17.304,54.809c4.005-4.297,8.011-8.597,12.015-12.894
		c-10.492-5.117-21.347-9.068-32.725-11.695c1.407,2.308,2.819,4.611,4.227,6.919c4.647-14.739,0.319-29.177-1.161-44.019
		c-5.121,2.264-10.243,4.528-15.363,6.794c3.017,14.518,2.276,29.487,4.534,44.111c1.502,9.724,14.231,3.626,15.684-3.167
		c3.977-18.605,14.709-62.031-17.338-60.005c-5.06,0.32-8.997,4.956-9.226,9.807c-0.317,6.668-2.241,13.125-2.513,19.836
		c5.125-1.642,10.25-3.288,15.375-4.929c0.163-5.805,1.104-11.546,1.268-17.356c-5.146,1.65-10.291,3.299-15.437,4.949
		c-0.253,17.975-5.266,38.347,6.153,54.053c3.893-4.179,7.787-8.357,11.681-12.533c-14.204-6.126-28.057-6.809-43.206-4.375
		c1.409,3.54,2.821,7.077,4.229,10.618c5.55-6.926,13.645-10.926,19.392-17.625c6.736-7.852,8.023-17.653,7.333-27.669
		c-0.655-9.5-14.392-3.608-15.389,3.109c-1.378,9.272-2.546,18.514-2.649,27.899c5.191-1.663,10.383-3.327,15.575-4.989
		c-0.583-10.526,3.496-20.772,2.719-31.343c-1.01-13.76-13.45-15.032-24.517-12.801c-5.863,1.185-11.354,12.604-3.061,14.286
		c3.984,0.808,3.953,17.239,4.042,20.688c0.221,8.594-0.217,17.446-1.866,25.899c3.01-2.639,6.019-5.282,9.029-7.923
		c-3.216-0.095-7.257-0.512-10.276-1.661c0.785,1.972,1.569,3.941,2.354,5.912c1.919-20.471-2.669-40.597-1.774-61.046
		c-4.494,1.441-8.989,2.881-13.483,4.322c2.455,13.471,1.45,27.204,1.458,40.82c4.347-1.395,8.696-2.79,13.045-4.185
		c0-12.951-1.295-26.074-1.986-39.014C454.3,101.957,445.778,106.51,445.551,110.917L445.551,110.917z"/>
	<path fill="#010101" d="M451.864,122.111c-1.536,4.975-1.749,9.846-1.901,15.046c-0.135,4.588-1.566,10.926-0.222,15.3
		c2.419,7.858,12.651-0.068,13.937-4.493c1.139-3.91-0.913-9.257-1.688-13.162c-1.009-5.076-1.93-9.938-3.854-14.713
		C456.767,116.687,452.522,119.978,451.864,122.111z"/>
	<path fill="#010101" d="M415.463,237.174c-4.07,0.295-7.685,1.4-11.54,2.716c-5.591,1.911-9.544,11.998-1.01,12.074
		c-0.297-0.003,2.635,1.4,3.36,1.58c3.675,0.911,7.421,1.393,11.113,2.217c4.252,0.949,8.444-2.981,9.437-6.805
		c0.43-1.655,0.859-3.308,1.29-4.963c0.646-2.494-0.807-5.462-3.544-5.795c-8.59-1.044-16.675,0.749-25.106,2.184
		c1.25,3.138,2.5,6.275,3.748,9.41c1.247-1.679,3.817-2.519,5.635-3.418c-2.664-0.144-5.324-0.288-7.987-0.427
		c20.77,17.739,50.183,26.58,76.328,32.446c26.103,5.856,60.151,10.214,82.673-7.73c4.595-3.66,5.374-13.93-2.775-12.897
		c-9.505,1.205-18.995,2.52-28.499,3.722c-8.278,1.05-14.964,16.036-3.352,15.635c17.805-0.613,33.574-10.355,48.755-18.693
		c-2.856-3.257-5.713-6.513-8.57-9.766c-6.022,9.699-19.107,12.687-28.998,16.978c-4.646,2.014-10.615,8.072-6.404,13.349
		c7.707,9.661,19.971,12.578,31.677,14.112c6.58,0.865,17.474-10.233,8.994-14.776c-5.063-2.714-9.814-5.947-14.878-8.66
		c-3.573,4.716-7.144,9.43-10.718,14.146c16.539,5.796,32.575,12.904,49.02,18.946c15.436,5.674,31.071,9.292,47.118,12.666
		c10.192,2.145,21.205,4.886,29.492,11.576c9.628,7.771,13.936,19.988,16.262,31.743c5.498-2.43,10.992-4.861,16.489-7.293
		c-2.361-8.719-3.651-17.754-7.437-26.02c-4.266-9.314-16.074,0.41-16.485,7.292c-1.14,19.059,0.032,38.083,2.482,56.997
		c1.354,10.453,15.159,3.739,16.695-3.372c2.907-13.478,8.137-26.202,8.96-40.094c0.337-5.646-0.277-12.303-3.685-17.021
		c-3.569-4.939-8.536-8.349-11.694-13.707c-3.259,4.226-6.515,8.451-9.773,12.678c9.183-0.147,18.15-1.435,26.933-4.151
		c5.547-1.718,13.149-14.421,3.356-15.667c-9.32-1.186-18.673-1.325-28.058-1.33c-1.155,5.396-2.312,10.791-3.47,16.19
		c12.51-1.29,25.055-1.822,36.843-6.635c3.696-1.507,6.957-4.236,7.836-8.325c0.866-4.047-2.104-8.124-6.517-7.426
		c-9.564,1.515-18.865,3.977-28.17,6.631c-6.217,1.775-12.595,13.423-3.353,15.655c21.19,5.118,41.201-7.517,59.612-16.161
		c-2.96-3.373-5.92-6.745-8.879-10.118c-11.089,13.03-26.741,21.093-35.93,35.934c-3.288,5.313-1.417,14.4,6.728,11.063
		c11.676-4.787,21.253-12.199,30.182-21.022c-3.617-2.869-7.236-5.739-10.854-8.609c-9.646,11.854-20.91,22.158-31.711,32.921
		c3.983,2.185,7.968,4.368,11.951,6.549c6.272-11.332,12.39-22.697,17.287-34.704c4.192-10.274-8.332-11.112-13.53-4.708
		c-6.012,7.408-11.528,15.249-14.839,24.26c-3.33,9.053,5.695,11.131,11.889,6.514c6.038-4.5,10.863-9.214,14.045-16.148
		c4.526-9.867-8.843-11.813-13.606-4.734c-3.995,5.937-6.345,11.968-8.112,18.88c-0.924,3.608,1.178,6.154,4.409,7.218
		c17.689,5.818,36.42,2.769,54.482,6.272c2.499-5.302,4.997-10.599,7.495-15.901c-13.827-1.104-27.492,5.191-32.343,18.935
		c4.86-1.594,9.722-3.188,14.581-4.783c-7.546-11.99-2.287-30.201,0.979-42.786c-5.354,0.433-10.706,0.867-16.059,1.3
		c-4.931,22.716-11.957,44.991-14.722,68.136c5.31-1.074,10.621-2.146,15.93-3.219c0.05-18.211,1.076-36.536-2.51-54.509
		c-1.486-7.453-10.438-5.771-14.031-0.681c-13.499,19.114-14.173,44.099-15.835,66.601c5.481-1.758,10.964-3.516,16.443-5.271
		c0.138-15.709,1.242-31.39,1.287-47.103c0.012-3.528-3.371-5.558-6.567-5.299c-4.814,0.391-8.474,4.185-9.805,8.607
		c-6.209,20.609-8.648,42.033-12.285,63.185c5.386-1.088,10.775-2.179,16.161-3.265c-0.032-16.385-0.068-33.181-5.396-48.871
		c-3.018-8.885-14.014,0.166-15.659,5.046c-6.481,19.241-6.348,40.093-6.307,60.173c0.021,10.289,16.048,3.128,16.091-5.158
		c0.078-14.876,1.06-29.735-0.033-44.595c-0.724-9.836-14.747-3.657-15.858,3.205c-2.377,14.622-1.462,29.314-1.368,44.049
		c5.318-1.703,10.636-3.41,15.953-5.111c-1.175-10.28-1.253-20.636-1.266-30.971c-0.011-9.507-15.05-3.884-15.738,3.18
		c-2.177,22.254,1.172,44.825-2.595,66.921c5.325-1.077,10.651-2.155,15.979-3.229c0.073-14.32-0.736-28.606,2.47-42.673
		c-5.433,1.099-10.864,2.194-16.298,3.292c1.018,17.823-2.268,35.473-2.453,53.276c5.031-2.894,10.06-5.783,15.093-8.674
		c-2.24-2.862-0.67-8.527,0.022-11.814c1.431-6.815,3.932-13.386,6.453-19.856c4.699-12.05,10.531-23.708,14.472-36.044
		c-5.393,1.09-10.783,2.18-16.178,3.27c0.92,19.115-3.468,37.899-3.688,56.987c-0.121,10.358,16.187,3.189,16.285-5.223
		c0.228-19.398,4.744-38.341,7.24-57.509c1.464-11.25-14.52-7.269-15.896,1.288c-3.742,23.308-8.623,46.402-8.822,70.104
		c5.274-2.335,10.548-4.666,15.821-6.999c-3.324-6.174-4.435-12.296-4.588-19.258c-0.229-10.377-14.405-3.019-16.023,3.235
		c-1.762,6.821-1.572,14.916-0.16,21.776c1.49,7.252,10.726,6.161,14.16,0.689c14.871-23.711,20.203-50.936,24.141-78.269
		c-5.325,1.077-10.652,2.155-15.98,3.228c1.005,19.891-2.292,39.608-2.468,59.475c-0.084,9.517,12.928,3.696,15.278-1.239
		c8.84-18.563,10.452-38.882,13.059-58.982c1.469-11.335-13.886-6.897-15.771,1.276c-4.229,18.353-8.675,37.624-5.111,56.457
		c1.502,7.929,10.204,5.191,14.068,0.685c17.063-19.902,14.424-52.037,14.383-76.459c-0.018-10.266-15.979-3.103-16.042,5.143
		c-0.171,21.717-5.619,47.919,8.738,66.518c3.752,4.858,12.271-0.156,13.894-4.557c8.813-23.919,6.918-48.909,9.346-73.843
		c-5.288,1.069-10.576,2.137-15.862,3.205c-0.101,21.345-2.354,43.03,4.079,63.747c2.764,8.899,13.939-0.274,15.51-4.999
		c7.563-22.747,5.227-47.187,8.691-70.627c-5.306,1.074-10.609,2.145-15.915,3.217c-0.976,26.288,4.805,52.036,7.416,78.069
		c1.039,10.371,16.867,3.187,16.115-5.167c-2.446-27.196-1.269-54.528-1.219-81.787c0.019-10.295-16.136-3.174-16.154,5.178
		c-0.054,24.38-1.166,48.803,1.227,73.11c1.023,10.411,16.931,3.205,16.18-5.185c-3.66-40.805-1.284-81.788-1.218-122.678
		c0.018-10.365-16.148-3.147-16.222,5.2c-0.204,23.645-4.763,46.982-4.97,70.632c5.416-1.736,10.831-3.473,16.246-5.207
		c0.003-23.546,0.008-47.089,0.011-70.632c0.001-3.471-3.309-5.466-6.459-5.209c-4.832,0.391-8.2,4.133-9.644,8.463
		c-7.562,22.677-15.104,45.356-22.312,68.147c-1.002,3.168,1.159,6.5,4.33,7.09c4.572,0.849,8.962-2.511,10.94-6.375
		c11.512-22.484,15.231-47.815,18.012-72.631c1.043-9.292-9.832-8.283-14.058-2.651c-9.536,12.715-15.784,27.24-20.438,42.353
		c-2.923,9.489,10.398,7.378,14.037,2.646c11.086-14.399,17.206-31.486,22.913-48.54c2.239-6.685-6.135-8.197-10.406-5.813
		c-11.697,6.535-17.663,17.955-25.907,27.954c4.049,2.188,8.099,4.377,12.146,6.564c7.181-8.795,12.576-17.868,13.166-29.415
		c0.225-4.377-5.105-6.045-8.485-4.764c-14.886,5.652-25.03,17.87-31.618,32.027c-4.58,9.843,8.408,11.051,13.296,4.627
		c5.444-7.153,9.669-14.96,11.76-23.744c1.932-8.111-7.972-8.134-12.325-4.392c-7.32,6.296-13.742,13.534-21.061,19.831
		c2.94,3.352,5.883,6.702,8.822,10.057c14.211-13.908,31.508-24.278,44.999-38.937c4.138-4.496,1.66-11.002-4.383-11.001
		c-1.654,0.001-3.304,0.001-4.957,0.001c-0.421,5.018-0.839,10.039-1.262,15.059c12.866-4.249,23.548-14.14,26.089-27.788
		c-5.321,1.075-10.644,2.149-15.966,3.226c-0.101,14.884-1.206,29.738-1.302,44.626c5.419-1.736,10.837-3.473,16.254-5.209
		c-2.073-12.229-0.178-24.256,1.127-36.456c-5.398,1.089-10.796,2.181-16.195,3.271c-0.014,8.909-0.137,17.833-1.009,26.706
		c-0.541,5.491-1.945,20.467-5.733,22.289c-9.559,4.596-5.832,18.483,5.063,13.243c10.807-5.197,14.121-18.748,15.875-29.513
		c2.04-12.499,2.181-25.335,2.165-37.971c-0.013-9.802-15.44-3.97-16.195,3.272c-1.4,13.426-3.674,26.922-1.352,40.369
		c1.848,10.694,16.227,2.935,16.254-5.21c0.054-14.873,1.118-29.718,1.178-44.589c0.038-9.949-14.734-3.487-15.966,3.225
		c-1.156,6.304-5.127,9.903-11.082,11.864c-7.005,2.312-11.879,15.056-1.262,15.059c1.652,0,3.303,0,4.954,0.001
		c-1.461-3.667-2.921-7.335-4.383-11c-12.328,13.38-28.723,22.68-41.739,35.409c-7.943,7.768,0.258,17.417,8.822,10.057
		c7.324-6.296,13.746-13.529,21.068-19.824c-4.107-1.463-8.216-2.926-12.324-4.392c-1.427,5.975-4.369,11.054-8.065,15.91
		c4.432,1.541,8.863,3.083,13.296,4.624c3.798-8.149,9.149-16.676,17.945-20.013c-2.83-1.589-5.657-3.177-8.484-4.765
		c-0.363,7-4.899,12.473-9.141,17.666c-2.391,2.927-3.18,8.262,0.708,10.367c4.075,2.208,8.858-0.674,11.438-3.802
		c5.921-7.172,10.354-16.951,18.7-21.608c-3.47-1.936-6.938-3.874-10.405-5.811c-4.769,14.22-9.981,28.682-19.218,40.673
		c4.679,0.881,9.358,1.764,14.037,2.646c3.784-12.263,9.001-24.172,16.735-34.473c-4.686-0.884-9.371-1.768-14.058-2.652
		c-2.635,23.4-5.811,47.419-16.679,68.625c5.091,0.237,10.18,0.476,15.27,0.714c7.218-22.787,14.739-45.473,22.294-68.147
		c-5.367,1.083-10.734,2.167-16.103,3.253c0.003,23.539,0.008,47.082,0.011,70.623c0.003,10.388,16.177,3.147,16.245-5.207
		c0.196-23.641,4.746-46.979,4.944-70.625c-5.409,1.733-10.813,3.467-16.222,5.2c-0.052,40.885-2.413,81.864,1.261,122.663
		c5.393-1.727,10.785-3.458,16.18-5.185c-2.4-24.306-1.294-48.729-1.252-73.104c-5.385,1.726-10.77,3.451-16.154,5.178
		c-0.036,27.257-1.2,54.583,1.26,81.775c5.372-1.725,10.743-3.446,16.115-5.167c-2.624-26.027-8.416-51.771-7.454-78.057
		c0.354-9.671-14.89-3.731-15.915,3.215c-3.452,23.432-1.114,47.912-8.656,70.627c5.17-1.666,10.34-3.333,15.51-4.999
		c-6.018-19.345-3.45-40.225-3.354-60.161c0.045-9.566-15.169-3.924-15.862,3.205c-2.252,23.128,0.162,47.741-7.998,69.895
		c4.63-1.521,9.262-3.04,13.894-4.557c-12.227-15.838-6.283-41.408-6.132-59.87c-5.348,1.715-10.694,3.43-16.042,5.142
		c0.015,11.387,0.216,22.805-0.82,34.158c-0.952,10.444-2.521,22.411-9.581,30.638c4.688,0.228,9.378,0.455,14.067,0.684
		c-3.342-17.698,0.825-35.348,4.805-52.582c-5.256,0.425-10.513,0.852-15.769,1.277c-2.42,18.59-3.543,37.844-11.727,55.013
		c5.093-0.412,10.187-0.823,15.277-1.236c0.184-19.872,3.487-39.59,2.492-59.483c-0.492-9.858-14.975-3.736-15.98,3.229
		c-3.471,24.003-7.338,49.51-20.467,70.424c4.72,0.229,9.439,0.458,14.16,0.686c-1.162-5.664-1.622-12.229-0.161-17.875
		c-5.341,1.08-10.683,2.158-16.022,3.238c0.173,8.05,1.482,15.726,5.328,22.875c4.461,8.299,15.757,0.17,15.822-7
		c0.198-22.38,4.982-44.196,8.521-66.2c-5.3,0.43-10.597,0.861-15.896,1.288c-2.699,20.487-7.367,40.695-7.63,61.441
		c5.429-1.739,10.857-3.479,16.286-5.222c0.24-19.097,4.647-37.854,3.745-57.004c-0.162-3.474-3.199-5.5-6.488-5.234
		c-4.815,0.39-8.293,4.144-9.688,8.501c-4.445,13.875-11.494,26.983-16.4,40.741c-3.838,10.768-10.382,27.407-2.302,37.755
		c5.229,6.696,15.029-2.776,15.093-8.671c0.197-17.807,3.502-35.454,2.5-53.29c-0.584-10.408-14.782-3.334-16.298,3.292
		c-3.521,15.385-2.718,30.894-2.483,46.539c0.148,9.859,14.937,3.683,15.979-3.225c3.349-22.194,0.121-44.644,2.359-66.9
		c-5.246,1.061-10.493,2.119-15.738,3.178c-0.007,10.34,0.055,20.702,1.212,30.987c1.183,10.512,15.99,2.881,15.953-5.111
		c-0.063-13.423-1.074-26.897,1.11-40.209c-5.285,1.069-10.574,2.136-15.858,3.205c1.066,14.873,0.042,29.732-0.033,44.617
		c5.363-1.718,10.728-3.439,16.091-5.158c0.045-18.922-0.055-38.171,6.084-56.299c-5.221,1.682-10.439,3.362-15.659,5.046
		c4.889,14.482,4.538,30.193,4.518,45.3c-0.014,10.041,14.962,3.583,16.163-3.267c3.707-21.157,6.219-42.59,12.496-63.199
		c-5.458,1.101-10.917,2.203-16.375,3.306c-0.099,15.699-1.17,31.371-1.19,47.07c-0.005,4.564,5.005,6,8.627,4.844
		c4.557-1.459,7.506-5.45,7.816-10.114c1.169-17.599,0.813-39.832,11.423-54.83c-4.677-0.227-9.354-0.453-14.031-0.682
		c3.566,17.984,2.518,36.31,2.449,54.53c-0.038,9.682,15.079,3.834,15.929-3.22c2.79-23.158,9.69-45.517,15.015-68.159
		c0.984-4.188-2.14-7.569-6.344-7.229c-4.698,0.379-8.497,4.136-9.718,8.528c-4.817,17.339-9.281,37.667,0.98,53.858
		c3.486,5.502,13.091-0.524,14.58-4.783c1.694-4.839,4.618-6.238,9.787-5.841c8.098,0.622,18.516-13.797,7.496-15.901
		c-18.089-3.452-36.849-0.358-54.557-6.123c1.472,2.407,2.941,4.813,4.411,7.218c0.987-3.904,2.002-7.462,4.276-10.859
		c-4.535-1.578-9.071-3.156-13.605-4.733c-1.832,4.016-4.79,6.036-8.259,8.633c3.963,2.174,7.927,4.343,11.889,6.517
		c2.801-7.679,7.262-14.064,12.417-20.347c-4.511-1.571-9.021-3.139-13.53-4.708c-4.938,12.004-11.096,23.36-17.404,34.683
		c-4.627,8.307,6.613,11.841,11.951,6.549c12.009-11.901,24.471-23.357,35.201-36.465c6.679-8.162-3.974-15.37-10.854-8.61
		c-6.49,6.378-13.322,12.657-21.859,16.151c2.244,3.688,4.485,7.377,6.728,11.064c9-14.537,24.936-23.013,35.936-35.931
		c6.188-7.272-1.51-13.578-8.88-10.118c-14.382,6.751-30.389,17.577-46.946,13.576c-1.119,5.219-2.238,10.438-3.354,15.655
		c7.89-2.249,15.758-4.477,23.872-5.763c0.439-5.249,0.88-10.5,1.319-15.751c-10.471,4.272-21.438,4.621-32.543,5.763
		c-8.709,0.894-15.456,16.181-3.471,16.19c8.037,0.004,15.998,0.127,23.982,1.144c1.119-5.222,2.238-10.444,3.356-15.665
		c-7.432,2.298-14.873,3.158-22.631,3.281c-4.84,0.077-12.927,7.325-9.773,12.681c3.018,5.124,6.317,9.36,10.626,13.45
		c4.027,3.827,3.988,8.185,3.971,13.52c-0.037,12.12-6.091,24.297-8.626,36.03c5.566-1.127,11.131-2.249,16.695-3.374
		c-2.447-18.914-3.614-37.938-2.474-56.998c-5.495,2.43-10.989,4.859-16.485,7.291c3.785,8.267,5.075,17.302,7.434,26.021
		c2.394,8.848,17.97,0.198,16.488-7.294c-2.571-13.017-6.521-25.68-15.673-35.648c-8.063-8.783-19.455-13.118-30.691-16.132
		c-15.551-4.175-31.396-6.283-46.791-11.25c-18.6-6-36.476-14.121-54.896-20.637c-7.489-2.651-19.603,9.363-10.718,14.146
		c5.06,2.722,9.801,5.963,14.86,8.687c2.998-4.925,5.996-9.853,8.995-14.778c-9.336-1.239-19.137-2.908-25.321-10.669
		c-2.135,4.45-4.268,8.902-6.403,13.352c14.373-6.227,31.612-11.031,40.39-25.152c4.33-6.968-0.647-14.115-8.57-9.766
		c-12.627,6.932-25.633,15.498-40.455,16.001c-1.117,5.212-2.234,10.422-3.352,15.635c9.504-1.203,18.994-2.511,28.496-3.713
		c-0.926-4.299-1.851-8.599-2.775-12.896c-7.384,5.879-18.264,6.66-27.299,7.089c-13.91,0.663-27.93-1.473-41.512-4.278
		c-23.216-4.791-50.818-12.312-69.568-27.66c-2.507-2.052-5.163-1.886-7.987-0.427c-4.432,2.291-8.755,4.855-11.711,8.971
		c-2.418,3.364-2.184,10.524,3.749,9.41c7.226-1.36,14.567-3.528,21.979-2.771c-1.181-1.931-2.363-3.864-3.544-5.795
		c-0.397,1.651-0.796,3.301-1.192,4.953c3.145-2.27,6.29-4.538,9.436-6.805c-3.726-0.756-7.5-1.169-11.21-2.011
		c-2.569-0.583-3.791-1.655-6.527-1.63c-0.337,4.025-0.674,8.05-1.01,12.074c2.815-1.012,5.262-1.965,8.284-2.241
		C419.531,248.783,424.331,236.525,415.463,237.174L415.463,237.174z"/>
	<path fill="#010101" d="M694.574,324.294c-0.604,3.9-1.186,7.947-0.39,11.826c1.393,6.778,9.752,5.513,13.011,0.631
		c14.103-21.117-11.774-33.819-29.23-37.926c-7.06-1.661-16.569,9.836-8.946,14.701c27.149,17.317,30.754,56.095,32.106,85.352
		c0.584,12.672-14.289,57.113,12.161,50.562c6.464-1.602,12.347-6.41,17.577-10.25c5.436-3.992,11.041-7.948,14.908-13.59
		c7.907-11.543,3.258-26.836,1.146-39.454c-3.477-20.75-8.525-41.271-8.562-62.421c-0.017-10.384,3.419-17.528,8.619-26.142
		c4.448-7.364,6.559-14.821,6.155-23.456c-2.581,3.339-5.164,6.681-7.746,10.02c24.918-6.17,30.51-39.914,32.385-61.338
		c-5.39,1.088-10.781,2.178-16.172,3.268c-0.005,10.327-0.01,20.653-0.012,30.98c-0.001,10.433,16.343,3.208,16.359-5.246
		c0.013-6.608,0.411-12.728,2.314-19.09c-5.399,1.088-10.799,2.181-16.2,3.271c1.147,15.045-7.055,19.375-18.902,25.809
		c-11.575,6.283-21.044,15.826-19.521,29.955c0.262,2.437,1.844,4.909,4.524,5.158c37.604,3.525,53.665-48.963,54.011-78.567
		c-5.474,1.755-10.949,3.51-16.424,5.265c-0.004,7.022-0.009,14.046-0.012,21.07c5.481-1.758,10.966-3.515,16.446-5.273
		c-2.486-15.901-2.247-33.285-10.263-47.695c-4.272-7.682-14.264-1.249-15.96,5.142c-1.449,5.47-1.401,11.239-1.416,16.863
		c-0.009,4.588,5.035,6.029,8.672,4.867c4.616-1.477,7.492-5.472,7.855-10.166c0.258-3.352,1.734-6.482,2.86-9.599
		c-4.781,1.565-9.56,3.135-14.342,4.703c2.477,2.479,4.954,4.96,7.428,7.441c5.817,5.838,15.232-2.097,15.222-8.748
		c-0.009-5.491-0.619-10.432-2.817-15.501c-3.743-8.634-16.99-0.153-16.267,7.194c0.886,9.002,1.589,19.234-4.824,26.46
		c-6.616,7.456,3.403,13.123,9.88,7.838c12.098-9.876,13.121-25.105,11.595-39.634c-5.422,2.396-10.845,4.795-16.267,7.194
		c1.766,3.999,2.104,7.438,2.14,11.758c5.073-2.916,10.147-5.832,15.221-8.747c-2.483-2.475-4.963-4.951-7.442-7.429
		c-4.335-4.33-12.485-0.448-14.342,4.704c-2.136,5.933-4.091,11.329-4.574,17.663c5.509-1.768,11.019-3.532,16.526-5.299
		c0.004-4.354-0.058-8.636,1.063-12.875c-5.319,1.716-10.641,3.43-15.96,5.142c7.47,13.387,7.23,29.218,9.562,43.998
		c1.709,10.832,16.453,2.966,16.447-5.274c-0.003-7.019-0.008-14.041-0.013-21.063c-0.007-10.519-16.326-3.16-16.423,5.264
		c-0.133,11.759-3.443,24.01-7.735,34.875c-3.671,9.29-10.388,23.99-22.513,22.857c1.508,1.722,3.018,3.439,4.525,5.158
		c-1.13-10.445,10.255-12.267,18.889-17.688c13.719-8.611,20.755-21.824,19.512-38.065c-0.818-10.661-14.354-2.91-16.2,3.272
		c-2.266,7.582-2.63,15.171-2.641,23.039c5.452-1.749,10.905-3.497,16.358-5.246c-0.001-10.322-0.006-20.647-0.011-30.971
		c-0.003-9.735-15.537-4.038-16.171,3.267c-0.749,8.621-2.08,17.156-4.274,25.532c-1.847,7.057-4.906,17.702-12.907,19.689
		c-4.171,1.037-7.95,5.687-7.745,10.022c0.357,7.508-2.639,12.392-6.448,18.547c-4.685,7.573-7.26,14.981-8.101,23.869
		c-1.781,18.803,2.248,37.439,5.676,55.81c1.646,8.808,3.153,17.628,4.596,26.468c0.701,4.294,2.479,10.603,0.823,14.867
		c-1.466,3.778-6.583,6.544-9.662,8.812c-2.717,1.999-5.459,3.904-8.375,5.604c-1.521,0.888-3.445,0.634-1.806,1.422
		c1.159,0.555,0.46,0.339,0.314-0.925c-0.19-1.658-0.129-3.419,0.015-5.078c0.489-5.623,1.497-11.204,2.24-16.792
		c1.681-12.617,0.934-24.618-0.44-37.228c-3.088-28.329-10.371-59.021-35.973-75.3c-2.981,4.902-5.963,9.799-8.946,14.701
		c6.741,1.578,29.514,8.127,24.208,18.367c4.583-0.933,9.163-1.864,13.747-2.798c-0.819-2.609-1.895-5.072-2.4-7.774
		C704.993,314.924,695.411,318.894,694.574,324.294L694.574,324.294z"/>
	<path fill="#010101" d="M585.078,157.27c-0.758-0.285-1.519-0.564-2.277-0.849c-1.189,3.455-2.377,6.91-3.563,10.365
		c7.38-2.167,14.948-3.561,22.328-5.729c4.911-1.444,9.217-9.706,2.518-11.752c-3.744-1.141-7.534-0.503-11.381-0.348
		c0.75,3.49,1.503,6.983,2.255,10.471c1.268-1.205,2.533-2.415,3.801-3.622c4.653-4.432,3.523-12.149-4.031-10.365
		c-0.293,0.069-0.584,0.137-0.874,0.208c2.269,0.827,4.538,1.655,6.807,2.483c-0.003,0.01-0.006,0.02-0.009,0.032
		c-0.389-8.178-10.732-3.045-12.95,1.051c-0.744,1.639-1.698,3.134-2.87,4.486c-4.374,5.646,1.117,12.614,7.41,8.444
		c4.035-2.67,8.063-5.351,11.658-8.604c2.896-2.619,5.549-10.53-0.705-11.173c-10.135-1.04-18.384,2.821-25.724,9.671
		c-3.227,3.013-5.425,10.143,0.719,11.38c12.151,2.447,24.126,1.438,35.819-2.616c-0.874-4.211-1.747-8.424-2.621-12.635
		c-5.801,3.372-11.729,6.452-17.938,9.002c-3.717,1.528-7.352,4.808-7.119,9.213c0.223,4.179,4.381,5.434,7.857,4.41
		c9.148-2.692,18.028-6.18,27.261-8.603c-0.892-4.304-1.784-8.608-2.678-12.909c-10.061,4.774-20.908,7.577-30.989,12.357
		c-4.253,2.017-8.775,12.655-1.087,13.287c11.482,0.944,21.776-2.052,32.282-6.469c-0.902-4.348-1.804-8.696-2.705-13.043
		c-11.399,5.632-22.539,11.153-32.886,18.611c-4.593,3.311-4.945,13.361,2.642,12.266c10.635-1.534,20.598-4.848,30.48-8.991
		c-0.924-4.454-1.849-8.909-2.772-13.362c-10.566,5.363-20.607,11.678-29.187,19.911c-4.786,4.593-4.194,15.639,4.7,12.082
		c6.197-2.475,12.392-4.953,18.589-7.428c-0.932-4.487-1.861-8.973-2.791-13.456c-8.614,5.663-17.418,10.983-25.458,17.47
		c-5.983,4.829-3.744,14.295,4.706,12.098c12.839-3.343,23.584-11.448,35.472-16.994c-1.604-4.197-3.208-8.389-4.813-12.583
		c-12.176,6.77-23.833,13.737-33.261,24.15c-5.037,5.564-0.236,11.826,6.319,10.392c7.886-1.725,14.781-5.911,22.302-8.669
		c-0.933-4.498-1.864-8.993-2.798-13.492c-8.28,4.15-16.2,8.604-22.981,14.998c-6.306,5.949-1.694,17.225,6.737,11.233
		c4.726-3.356,9.698-6.073,14.872-8.67c-2.247-3.747-4.493-7.492-6.739-11.237c-11.8,10.817-18.004,23.074-19.504,39.014
		c-1.037,11.012,13.975,7.026,15.449-1.251c0.813-4.56,1.674-8.469,4.378-12.29c-4.318-1.502-8.635-3.005-12.954-4.508
		c-6.38,12.331-15.133,23.158-23.652,34.048c-6.093,7.788,3.729,14.557,10.232,8.114c12.194-12.079,24.981-23.837,32.569-39.514
		c1.361-2.814,1.188-6.668-1.856-8.316c-4.127-2.235-8.591,0.766-11.277,3.747c-4.161,4.624-7.046,10.001-9.829,15.531
		c-4.278,8.497,6.105,10.739,11.508,6.305c12.9-10.586,23.642-23.447,35.93-34.697c-3.832-2.101-7.665-4.201-11.499-6.299
		c-5.529,9.302-15.132,15.54-23.241,22.383c3.446,2.735,6.892,5.466,10.338,8.201c10.452-11.344,25.161-22.656,40.704-25.319
		c-0.904-4.205-1.81-8.41-2.714-12.613c-8.729,7.98-21.836,9.232-31.524,15.972c-4.507,3.133-9.246,15.462,0.786,13.987
		c11.028-1.623,21.367-5.191,31.77-9.085c3.979-1.489,7.806-5.204,7.562-9.787c-0.228-4.26-4.686-6.011-8.346-4.686
		c-11.059,4.004-22.353,6.986-33.009,12.052c-7.433,3.535-7.071,16.805,2.813,13.57c14.901-4.88,30.212-8.557,44.608-14.87
		c5.635-2.472,12.009-11.845,3.167-14.786c-13.605-4.525-28.643-2.828-41.626-9.357c-2.315,4.895-4.634,9.789-6.948,14.683
		c13.648-1.145,27.35-1.4,40.88-3.678c6.637-1.118,15.162-12.334,5.254-15.357c-15.565-4.752-32.413-2.646-47.801-8.118
		c-2.342,4.95-4.687,9.901-7.027,14.851c18.855-1.226,37.757-2.19,56.255,2.444c1.776-5.191,3.55-10.38,5.325-15.569
		c-14.42,1.655-26.55-7.108-39.615-11.732c-8.02-2.837-19.773,11.02-10.861,14.34c16.334,6.088,33.417,9.274,50.08,14.254
		c1.789-5.227,3.576-10.452,5.364-15.68c-12.557-0.302-24.757-5.007-35.903-10.439c-3.035,4.987-6.07,9.975-9.104,14.961
		c32.124,5.154,62.876,17.018,95.416,19.808c1.783-5.21,3.564-10.42,5.348-15.632c-23.304,0.708-44.571-10.776-67.413-13.536
		c-6.618-0.8-17.665,10.27-9.083,14.925c17.918,9.721,38.89,10.627,56.998,19.826c3.028-4.975,6.057-9.949,9.083-14.924
		c-24.738-2.285-49.632-0.077-74.343-2.482c-1.785,5.212-3.566,10.423-5.349,15.633c22.706,0.159,45.263,3.747,67.399,8.604
		c2.449-5.194,4.897-10.389,7.347-15.584c-25.48-1.278-50.979-2.45-76.332,1.166c-3.874,0.553-7.323,2.901-9.016,6.498
		c-1.575,3.35-0.871,8.661,3.666,9.141c22.344,2.363,44.875,2.73,66.927,7.397c1.775-5.188,3.549-10.377,5.324-15.565
		c-16.771-0.112-33.383-2.347-50.087-3.599c-1.767,5.17-3.537,10.34-5.305,15.51c28.957,0.049,56.875,3.199,84.307,12.876
		c7.555,2.665,19.592-9.907,10.676-14.095c-14.977-7.035-28.617-17.12-45.125-20.368c-6.449-1.271-14.984,7.405-10.277,13.468
		c7.16,9.228,18.319,15.376,28.43,20.796c10.816,5.802,22.15,10.695,33.574,15.159c7.121,2.783,17.276-5.93,12.248-13.141
		c-11.382-16.325-35.389-15.584-52.222-22.219c-6.247-2.462-19.304,7.496-12.278,13.176c16.308,13.177,40.323,16.319,53.296,33.437
		c5.01,6.61,15.16-2.698,15.001-8.616c-0.781-28.897-26.146-47.259-47.327-62.803c-3.037,4.993-6.076,9.986-9.114,14.979
		c17.838,5.386,33.968,15.379,50.24,24.213c6.567,3.563,18.568-7.238,12.401-13.306c-12.341-12.141-26.38-22.747-42.307-29.693
		c-2.407,5.085-4.813,10.169-7.219,15.254c13.756-2.309,27.585-2.386,41.343-0.052c8.441,1.432,18.105-13.627,7.474-15.861
		c-13.493-2.834-26.163,4.355-26.692,18.995c-0.43,11.89,5.055,22.988,7.51,34.391c2.047,9.51,14.793-0.547,16.24-5.232
		c2.495-8.088,3.614-16.451,4.968-24.784c-5.551,1.123-11.102,2.244-16.648,3.362c0,10.74,0,21.478,0,32.217
		c5.153-2.961,10.308-5.921,15.461-8.882c-6.915-10.884-3.505-25.7,0.481-37.015c1.176-3.338,1.229-9.092-3.766-9.393
		c-14.932-0.901-28.17,3.919-42.563,7.013c-7.31,1.572-11.013,16.475-1.235,14.742c11.95-2.116,23.996-6.52,36.27-5.778
		c-1.257-3.131-2.512-6.262-3.767-9.394c-6.019,17.083-9.805,36.007,0.482,52.197c4.703,7.404,15.46-3.25,15.46-8.884
		c0-10.737,0-21.477,0-32.213c0-10.292-15.491-3.776-16.648,3.362c-1.35,8.327-2.465,16.693-4.945,24.779
		c5.413-1.743,10.827-3.488,16.24-5.232c-1.497-6.887-4.023-13.52-5.702-20.367c-0.717-2.922-1.44-6.374-1.155-9.393
		c0.184-1.986-0.158-0.592-1.842,0.567c-0.042,0.032,3.657,0.647,4.387,0.8c2.49-5.289,4.983-10.576,7.474-15.86
		c-15.008-2.517-30.387-2.597-45.396-0.054c-5.072,0.861-16,11.444-7.218,15.254c14.881,6.455,27.921,15.989,39.474,27.307
		c4.135-4.435,8.268-8.87,12.402-13.306c-17.498-9.451-34.686-19.589-53.845-25.349c-7.479-2.249-16.243,9.762-9.115,14.979
		c17.919,13.115,41.194,29.131,41.89,53.667c4.999-2.873,9.999-5.746,15.001-8.618c-13.483-17.739-36.696-20.033-53.264-33.471
		c-4.094,4.393-8.187,8.784-12.279,13.176c15.099,5.985,39.278,5.609,49.386,19.908c4.083-4.38,8.166-8.759,12.248-13.142
		c-10.812-4.147-21.438-8.756-31.781-13.968c-9.84-4.958-20.781-10.57-27.643-19.462c-3.425,4.489-6.853,8.979-10.277,13.468
		c15.162,3.027,27.84,12.77,41.606,19.282c3.559-4.7,7.118-9.397,10.676-14.095c-29.989-10.67-59.928-14.294-91.642-14.384
		c-7.22-0.021-14.911,14.781-5.305,15.511c18.012,1.37,35.907,3.696,54,3.836c7.225,0.058,14.994-13.509,5.323-15.565
		c-22.037-4.694-44.562-5.085-66.895-7.471c-1.782,5.213-3.565,10.426-5.349,15.639c24.03-3.403,48.196-2.508,72.355-1.312
		c4.669,0.231,8.965-2.057,11.02-6.421c1.744-3.708,0.713-8.204-3.674-9.162c-23.479-5.133-47.305-8.591-71.377-8.744
		c-7.248-0.045-15.074,14.691-5.349,15.634c24.729,2.391,49.619,0.19,74.346,2.474c6.411,0.592,17.929-10.433,9.084-14.925
		c-18.132-9.211-39.147-10.142-56.999-19.826c-3.027,4.976-6.054,9.951-9.082,14.927c24.318,2.939,46.459,14.471,71.364,13.722
		c7.082-0.212,15.193-14.784,5.348-15.632c-32.534-2.801-63.281-14.676-95.401-19.841c-6.687-1.076-17.731,10.753-9.105,14.961
		c13.684,6.674,28.077,11.488,43.396,11.863c7.574,0.186,14.725-12.877,5.364-15.68c-15.441-4.621-31.424-7.397-46.567-13.004
		c-3.619,4.78-7.242,9.559-10.861,14.34c15.756,5.541,29.704,15.083,47.122,13.05c6.756-0.788,15.392-13.066,5.325-15.568
		c-19.709-4.895-40.141-3.856-60.222-2.51c-5.232,0.35-15.396,11.895-7.027,14.849c16.708,5.902,34.52,4.138,51.329,9.232
		c1.75-5.121,3.502-10.24,5.253-15.359c-13.535,2.303-27.245,2.583-40.898,3.756c-5.534,0.475-14.791,10.759-6.947,14.683
		c14.284,7.144,30.243,5.558,45.108,10.466c1.057-4.927,2.113-9.857,3.168-14.786c-14.383,6.34-29.709,9.995-44.608,14.87
		c0.938,4.523,1.876,9.046,2.814,13.57c9.262-4.403,19.332-6.774,28.949-10.253c-0.262-4.824-0.523-9.647-0.785-14.472
		c-9.041,3.384-18.112,6.852-27.706,8.261c0.262,4.663,0.522,9.328,0.786,13.987c11.145-7.747,25.121-9.341,35.385-18.723
		c3.88-3.547,5.62-14.039-2.715-12.613c-22.09,3.779-41.056,18.007-55.942,34.157c-7.01,7.603,3.595,13.887,10.337,8.197
		c10.803-9.11,21.464-17.32,28.802-29.657c4.794-8.063-6.366-10.998-11.499-6.299c-12.29,11.247-23.035,24.105-35.938,34.689
		c3.837,2.104,7.672,4.202,11.508,6.305c2.147-4.264,4.308-8.162,7.519-11.726c-4.378-1.524-8.756-3.046-13.132-4.569
		c-6.205,12.815-16.983,22.436-26.908,32.348c3.411,2.707,6.82,5.412,10.232,8.114c9.383-12.097,18.83-24.177,25.912-37.813
		c4.821-9.284-8.361-10.981-12.954-4.508c-4.389,6.183-6.677,12.488-8.015,19.926c5.148-0.419,10.301-0.836,15.45-1.252
		c1.103-11.5,4.078-19.978,12.713-27.899c6.771-6.211,2.208-15.732-6.739-11.236c-5.173,2.6-10.145,5.319-14.868,8.677
		c2.245,3.744,4.49,7.49,6.737,11.234c5.658-5.338,12.242-8.802,19.146-12.263c7.209-3.615,6.983-17.08-2.798-13.49
		c-7.512,2.756-14.44,6.955-22.303,8.677c2.106,3.464,4.213,6.929,6.32,10.392c7.133-7.883,17.051-12.879,26.213-17.977
		c8.792-4.894,5.614-17.452-4.813-12.583c-10.541,4.922-20.072,12.26-31.437,15.22c1.568,4.033,3.138,8.066,4.707,12.097
		c6.81-5.5,14.329-9.939,21.627-14.744c2.978-1.959,5.688-4.986,5.485-8.812c-0.221-4.126-4.669-6.087-8.275-4.646
		c-6.196,2.479-12.391,4.958-18.586,7.438c1.565,4.027,3.133,8.054,4.7,12.082c7.501-7.202,16.118-12.526,25.335-17.262
		c7.08-3.637,6.694-17.387-2.771-13.362c-8.566,3.647-17.271,6.971-26.521,8.357c0.881,4.089,1.762,8.178,2.642,12.269
		c8.973-6.538,19.175-11.158,29.07-16.084c7.008-3.488,6.507-16.94-2.704-13.045c-7.876,3.331-15.992,6.62-24.717,5.924
		c-0.361,4.429-0.727,8.857-1.087,13.285c10.052-4.793,20.894-7.621,30.963-12.424c7.201-3.437,6.79-15.415-2.679-12.907
		c-9.24,2.445-18.111,5.985-27.255,8.743c0.247,4.54,0.491,9.083,0.739,13.624c7.49-3.134,14.717-6.7,21.711-10.826
		c6.254-3.69,6.84-15.984-2.62-12.634c-9.47,3.353-18.719,4.203-28.613,2.342c0.24,3.793,0.479,7.586,0.719,11.381
		c3.392-3.229,6.483-5.646,11.449-5.198c-0.234-3.724-0.47-7.451-0.704-11.172c-2.551,2.356-5.296,4.319-8.168,6.266
		c2.469,2.813,4.939,5.631,7.41,8.444c1.896-2.469,3.223-5.097,4.563-7.905c-4.316,0.351-8.632,0.7-12.948,1.05
		c0.11,1.044,0.332,1.999,0.725,2.969c1.133,2.799,4.211,3.241,6.808,2.485c0.291-0.086,0.58-0.17,0.871-0.255
		c-1.343-3.456-2.688-6.911-4.031-10.366c-1.212,1.27-2.424,2.542-3.636,3.812c-3.104,3.26-4.82,11.148,2.256,10.471
		c2.834-0.268,5.614-1.028,8.443-0.348c0.84-3.916,1.679-7.835,2.518-11.751c-7.358,2.463-14.923,4.197-22.279,6.66
		c-3.81,1.277-8.232,7.355-3.563,10.366c2.464,1.589,4.762,1.625,7.635,1.63C588.864,168.224,593.007,157.606,585.078,157.27
		L585.078,157.27z"/>
	<path fill="#010101" d="M23.055,316.362c11.113-0.807,21.83-5.437,33.011-6.603c-1.546-1.761-3.092-3.525-4.639-5.286
		c-2.185,12.476-1.95,25.053-1.694,37.67c0.133,6.562,0.151,13.11-0.036,19.67c-0.146,5.085-1.344,10.203,1.792,14.493
		c1.653,2.258,5.05,0.164,6.313-1.313c6.776-7.935,5.035-21.54,4.824-31.297c-0.29-13.417-1.144-26.809,0.547-40.176
		c0.364-2.885-1.307-5.78-4.638-5.284c-11.96,1.78-25.709,4.46-35.86,11.372C20.303,311.225,18.284,316.707,23.055,316.362z"/>
	<path fill="#010101" d="M376.21,357.941c-4.305,13.411-2.477,29.324-3.035,43.315c-0.628,15.693-2.156,31.344-2.969,47.028
		c-1.55,29.872-2.766,59.758-4.633,89.616c-1.855,29.623-2.986,59.285-3.42,88.967c-0.209,14.325-0.253,28.654-0.477,42.98
		c-0.059,3.747,0.035,7.481,0.1,11.229c0.036,2.133-0.013,4.264-0.12,6.394c0.156-1.914,0.098-1.984-0.169-0.217
		c1.092-2.591,1.222-3.122,0.387-1.596c2.111-2.765,4.221-5.529,6.333-8.296c1.073-0.756,2.147-1.511,3.22-2.264
		c3.097-0.999,6.196-1.996,9.293-2.99c-1.827,0.131-3.622,0.463-5.391,1.001c-1.55,0.684-3.1,1.37-4.651,2.054
		c3.264-1.188,3.876-1.466,1.84-0.83c-6.287,1.856-13.189,8.194-14.096,14.985c-0.271,2.026-0.738,4.159-0.406,6.193
		c1.205,7.406,6.483,12.599,14.46,11.664c31.765-3.729,24.782-40.615,24.574-62.8c-0.299-31.871-0.204-63.705,0.612-95.569
		c0.832-32.543,1.432-65.127,1.795-97.68c0.18-16.222-0.453-32.394-1.416-48.585c-0.481-8.085-0.961-16.17-1.489-24.252
		c-0.558-8.569-0.211-17.746-4.145-25.563C388.225,344.419,378.125,351.98,376.21,357.941L376.21,357.941z"/>
	<path fill="#010101" d="M412.247,484.302c9.038-1.652,17.176-8.671,24.985-13.267c9.623-5.668,19.391-11.076,29.235-16.347
		c20.577-11.021,41.687-20.945,62.524-31.444c20.931-10.545,41.123-22.514,61.743-33.645c9.857-5.319,19.844-10.357,30.024-15.028
		c10.747-4.928,22.256-10.493,34.174-11.299c0.528-6.3,1.057-12.602,1.585-18.902c-2.844,0.861-5.375,1.986-8.059,3.256
		c-2.678,1.271-3.875,3.913-6.094,5.666c-2.842,2.244-4.823,9.539,0.635,10.061c2.29,0.222,3.957,1.95,6.425,1.466
		c2.821-0.552,5.382-1.082,8.088-2.067c5.064-1.844,9.915-6.645,9.607-12.431c-0.374-7.029-8.314-7.546-13.186-4.812
		c-9.653,5.423-20.062,9.157-30.152,13.69c-11.046,4.96-21.793,10.6-32.456,16.329c-20.722,11.136-40.854,23.32-61.487,34.611
		c-20.474,11.21-41.294,21.788-61.795,32.956c-10.676,5.818-21.267,11.784-31.707,18.012c-8.505,5.076-20.188,10.372-25.858,18.761
		C409.399,481.468,409.407,484.822,412.247,484.302L412.247,484.302z"/>
	<path fill="#010101" d="M424.144,221.594c16.045,9.792,36.322,14.94,54.613,18.565c20.298,4.025,40.487,3.81,60.899,0.943
		c4.275-0.601,12.859-9.28,5.859-12.385c-3.705-1.645-7.292-0.52-10.536,1.588c-2.356,1.53-5.501,5.534-2.894,8.303
		c2.529,2.683,5.752,3.397,9.291,2.149c-0.224-4.091-0.442-8.18-0.666-12.272c-37.236,16.21-78.186-1.568-114.89-9.649
		C424.515,218.548,422.682,220.699,424.144,221.594z"/>
	<path fill="#010101" d="M589.437,269.659c16.388,0.433,33.218,2.709,49.465,4.983c15.731,2.202,33.924,4.8,47.794,12.98
		c-0.148-2.165-0.295-4.328-0.443-6.491c-1.166,1.719-2.485,2.994-3.432,4.841c-0.63,1.227-0.319,3.415,1.411,3.522
		c3.669,0.227,5.885-0.689,8.597-3.147c2.103-1.905,3.936-7.454-0.503-7.976c-17.098-2.017-33.89-6.657-51.025-8.817
		c-17.352-2.185-34.098-1.875-51.511-1.538C588.874,268.036,588.244,269.625,589.437,269.659L589.437,269.659z"/>
	<path fill="#010101" d="M22.465,626.904c3.572,1.38,6.997,2.687,10.222,4.791c2.89,1.886,4.263,4.861,7.893,4.944
		c3.297,0.076,4.88-2.799,7.4-4.358c2.347-1.447,5.069-1.911,7.12-3.858c2.057-1.953,3.455-6.424-0.458-7.255
		c-5.729-1.214-12.839,4.851-16.156,8.851c1.547-0.899,3.092-1.797,4.641-2.698c-0.396,0.009-4.85-3.036-6.502-3.626
		c-3.489-1.248-7.108-2.053-10.803-2.305C23.566,621.24,19.041,625.586,22.465,626.904z"/>
	<path fill="#010101" d="M337.787,700.293c3.762,4.995,9.138,8.296,14.596,11.197c4.519,2.402,12.903,3.644,16.342,7.267
		c2.377,2.503,6.994,0.842,8.607-1.786c4.046-6.593,12.585-6.363,19.389-8.173c3.8-1.009,8.582-9.629,2.219-10.353
		c-4.694-0.531-8.76,0.817-12.197,4.141c-1.081,1.047-2.587,3.529-1.051,4.909c3.108,2.792,4.494,0.922,8.262,1.526
		c0.74-3.448,1.478-6.901,2.219-10.35c-11.218,2.859-21.526,4.307-27.756,15.197c3.13-1.026,6.261-2.054,9.391-3.081
		c-3.401-3.237-8.728-3.484-13.13-4.821c-8.077-2.457-15.162-6.475-22.65-10.222C339.621,694.542,336.026,697.958,337.787,700.293
		L337.787,700.293z"/>
	<path fill="#010101" d="M749.578,516.907c3.784,2.478,7.833,4.303,11.928,6.205c3.666,1.7,6.935,3.83,10.145,3.873
		c3.573,0.049,6.201-3.967,5.521-7.162c-0.287-1.355-1.363-2.527-3.07-3.404c-1.835-0.945-3.979-1.425-5.925-2.112
		c-4.837-1.703-9.633-3.221-14.755-3.711C750.515,510.315,746.127,514.645,749.578,516.907z"/>
</g>
<g>
	<path d="M957.399,412.546c1.027,13.846,1.096,27.682,0.826,41.502c-0.294,13.82-1.058,27.622-2.204,41.394
		s-2.666,27.517-4.608,41.209c-1.869,13.703-4.301,27.338-7.446,40.829c-6.293,27.004-15.28,53.325-23.621,79.623
		c-4.231,13.146-8.508,26.271-13.197,39.302c-4.716,13.015-9.655,26.022-15.666,38.715c-2.999,6.346-6.253,12.622-9.941,18.709
		c-1.841,3.045-3.769,6.058-5.823,9.006c-2.077,2.931-4.262,5.81-6.581,8.609c-4.618,5.611-9.842,10.873-15.751,15.489
		c-5.893,4.626-12.492,8.604-19.663,11.538c-7.16,2.94-14.898,4.763-22.7,5.288c-7.805,0.526-15.628-0.187-23.08-1.894
		c-7.476-1.662-14.578-4.304-21.299-7.457c-6.713-3.185-13.042-6.927-19.034-11.019c-5.97-4.129-11.671-8.525-17.041-13.237
		c-5.39-4.687-10.546-9.57-15.458-14.65c-9.856-10.127-18.875-20.884-27.31-31.996c-8.43-11.118-16.289-22.591-23.594-34.379
		c-7.35-11.754-14.213-23.779-20.458-36.135l1.504-0.988c8.855,10.608,17.555,21.245,26.394,31.701
		c8.888,10.418,17.827,20.718,27.055,30.663c9.221,9.945,18.709,19.559,28.585,28.567c9.895,8.976,20.185,17.376,31.036,24.492
		c10.813,7.122,22.245,12.985,34.043,16.108c5.897,1.523,11.869,2.361,17.799,2.221c5.926-0.12,11.805-1.172,17.468-3.173
		c11.376-3.964,21.639-11.686,30.79-20.831c2.293-2.293,4.504-4.702,6.646-7.195c2.162-2.476,4.262-5.034,6.291-7.667
		c4.049-5.271,7.886-10.785,11.476-16.497c7.158-11.438,13.419-23.593,18.668-36.185c5.265-12.59,9.682-25.562,13.277-38.76
		c7.271-26.414,10.504-53.76,14.436-80.756c1.954-13.516,4.1-26.985,6.367-40.452l6.522-40.483l6.514-40.592
		c2.22-13.549,4.477-27.116,6.984-40.714L957.399,412.546z"/>
</g>
<g>
	<path d="M623.687,884.516c-1.235-10.178-1.788-20.313-2.177-30.438c-0.346-10.123-0.449-20.229-0.317-30.322
		c0.143-10.092,0.452-20.174,0.961-30.243c0.464-10.072,1.412-20.114,2.8-30.129c0.672-5.008,1.484-10.008,2.29-15.009l2.4-15.002
		c1.552-10.004,2.756-20.03,3.462-30.087c0.709-10.058,1.111-20.133,1.131-30.232c0.042-10.099-0.268-20.219-0.5-30.334
		l-0.114-4.997l5.962-0.498c9.188-0.768,18.374-1.487,27.562-1.911c9.187-0.414,18.374-0.681,27.561-1.021
		c9.188-0.331,18.374-0.611,27.562-0.783c4.594-0.039,9.188-0.139,13.78-0.093l6.891,0.025l6.891,0.128
		c18.374,0.392,36.748,1.254,55.122,2.592c9.187,0.676,18.374,1.468,27.561,2.437c9.188,1.005,18.374,2.062,27.562,3.584v1.801
		c-9.188,1.522-18.374,2.579-27.562,3.584c-9.187,0.969-18.374,1.761-27.561,2.437c-18.374,1.338-36.748,2.2-55.122,2.592
		l-6.891,0.128l-6.891,0.025c-4.593,0.046-9.187-0.054-13.78-0.093c-9.188-0.172-18.374-0.452-27.562-0.783
		c-9.187-0.34-18.374-0.606-27.561-1.021c-9.188-0.424-18.374-1.144-27.562-1.911l5.848-5.495
		c-1.482,10.009-3.042,20.013-4.25,30.038c-1.23,10.024-2.078,20.073-2.619,30.141c-0.543,10.066-0.59,20.165-0.287,30.284
		l0.525,15.184c0.181,5.062,0.368,10.124,0.415,15.178c0.138,10.109-0.164,20.191-0.95,30.243
		c-0.74,10.055-1.682,20.097-2.789,30.129c-1.117,10.031-2.471,20.049-4.066,30.05c-1.639,9.999-3.441,19.988-5.927,29.935
		L623.687,884.516z"/>
</g>
</svg>
