<?xml version="1.0" encoding="utf-8"?>
<!-- Generator: Adobe Illustrator 15.1.0, SVG Export Plug-In . SVG Version: 6.00 Build 0)  -->
<!DOCTYPE svg PUBLIC "-//W3C//DTD SVG 1.1//EN" "http://www.w3.org/Graphics/SVG/1.1/DTD/svg11.dtd">
<svg version="1.1" xmlns="http://www.w3.org/2000/svg" xmlns:xlink="http://www.w3.org/1999/xlink" x="0px" y="0px"
	 width="566.93px" height="566.93px" viewBox="0 0 566.93 566.93" enable-background="new 0 0 566.93 566.93" xml:space="preserve">
<g id="Layer_2">
	<g id="meat">
		<path fill="#010101" d="M227.813,101.098c-5.502,0.731-9.915,4.262-11.969,9.42c-2.063,5.18-2.154,11.209-1.146,16.632
			c0.772,4.155,2.591,8.042,4.139,11.947c1.627,4.105,2.482,8.354,3.807,12.546c1.174,3.712,2.886,7.129,5.375,10.135
			c2.256,2.723,5.122,4.977,8.066,6.907c11.85,7.766,27.713,10.148,41.021,4.887c5.663-2.239,11.24-6.024,13.459-11.948
			c1.874-5.002,1.134-10.311-0.818-15.171c-2.052-5.112-5.161-9.708-8.601-13.982c-4.181-5.193-8.84-10.076-13.797-14.53
			c-5.515-4.958-11.57-9.27-18.195-12.618c-3.322-1.679-6.809-3.021-10.398-4.002c-1.726-0.471-3.48-0.824-5.247-1.099
			c-0.926-0.144-1.851-0.218-2.786-0.273c-1.101-0.063-2.225,0.354-3.276,0.646c-1.15,0.318-2.229,2.337-0.769,2.973
			c0.757,0.329,1.524,0.82,2.34,0.94c0.88,0.131,1.756,0.292,2.636,0.429c1.913,0.297,3.8,0.743,5.661,1.27
			c3.583,1.014,7.032,2.469,10.339,4.17c6.657,3.423,12.656,8.162,18.121,13.237c4.728,4.39,9.204,9.139,13.13,14.266
			c3.251,4.245,6.249,8.936,7.747,14.111c1.336,4.619,0.895,9.012-2.129,12.483c-4.084,4.691-11.499,6.69-17.459,7.321
			c-7.127,0.755-14.386-0.416-21.056-2.971c-6.638-2.541-13.205-6.812-17.23-12.771c-3.472-5.139-4.052-11.373-6.297-17.024
			c-2.169-5.46-4.973-10.625-5.808-16.51c-0.587-4.133-0.362-8.475,1.254-12.365c1.793-4.315,5.079-6.983,9.707-7.806
			C228.192,102.249,228.539,101.001,227.813,101.098L227.813,101.098z"/>
		<path fill="#010101" d="M223.574,103.226c1.366-2.337,3.761-4.021,5.996-5.451c2.764-1.77,5.714-3.292,8.706-4.636
			c6.021-2.703,12.181-5.263,18.382-7.519c7.4-2.692,15.526-4.75,23.395-3.056c3.158,0.679,6.33,2.832,9.626,2.143
			c1.754-0.366,3.513-1.705,4.78-2.905c1.307-1.235,2.161-2.802,2.521-4.559c0.272-1.331,0.336-2.667,0.895-3.926
			c0.401-0.904,1.138-1.404,2.18-1.908c1.975-0.955,4.734-0.588,6.582,0.488c1.068,0.622,1.854,1.469,2.458,2.537
			c0.648,1.149,0.345,2.668,0.261,3.921c-0.094,1.38-0.223,2.818,0.114,4.178c0.352,1.415,1.651,1.973,2.92,2.362
			c2.594,0.794,5.511,0.689,7.896,2.067c2.29,1.324,4.88,3.603,4.942,6.464c0.061,2.872-3.339,4.302-5.502,5.322
			c-3.395,1.6-6.887,3.617-8.137,7.406c-0.703,2.136-0.313,4.423-0.409,6.626c-0.147,3.306-0.4,6.618-0.897,9.892
			c-0.887,5.86-2.74,11.399-5.162,16.792c-2.393,5.317-5.359,10.352-8.973,14.93c-1.715,2.175-3.599,4.195-5.642,6.066
			c-1.038,0.949-2.128,1.838-3.245,2.691c-1.258,0.961-2.303,2.044-3.476,3.094c-0.691,0.618-1.405,2.997,0.302,2.813
			c0.807-0.087,1.619-0.173,2.385-0.454c0.979-0.359,1.713-1.127,2.543-1.734c1.641-1.201,3.179-2.536,4.652-3.934
			c2.93-2.783,5.541-5.894,7.875-9.188c4.65-6.567,8.135-13.879,10.752-21.472c2.652-7.693,3.488-16.148,3.364-24.248
			c-0.017-1.091,0.086-1.8,0.86-2.598c1.229-1.267,3.087-1.935,4.652-2.673c3.255-1.534,6.395-3.708,7.822-7.15
			c2.533-6.106-2.522-12.675-8.489-14.172c-1.366-0.343-2.772-0.541-4.153-0.82c-0.652-0.133-1.299-0.291-1.937-0.486
			c-0.26-0.08-0.508-0.182-0.755-0.291c-0.213-0.093,0.262,0.58,0.135,0.071c-0.272-1.096,0.068-2.75,0.137-3.954
			c0.093-1.644-0.034-3.111-0.719-4.617c-2.486-5.47-9.922-6.417-14.754-3.854c-3.002,1.592-4.877,4.602-5.51,7.875
			c-0.18,0.93-0.268,2.433-0.631,2.95c-0.607,0.866-2.1,1.941-3.221,1.721c-1.356-0.267-2.649-0.953-3.978-1.338
			c-1.714-0.496-3.403-0.926-5.179-1.157c-3.529-0.459-7.006-0.218-10.506,0.366c-7.23,1.208-14.12,4.203-20.748,7.227
			c-5.073,2.315-10.119,4.712-14.989,7.432c-4.382,2.448-9.381,5.533-11.75,10.151C221.27,104.038,222.954,104.285,223.574,103.226
			L223.574,103.226z"/>
		<path fill="#010101" d="M238.689,134.475c0.133-0.043,0.322-0.091,0.381-0.237c0.051-0.123,0.03-0.273-0.051-0.38
			c-0.06-0.078-0.175,0-0.19,0.079c-0.014,0.073,0,0.148-0.014,0.219c0.017-0.084,0.113-0.087,0.054-0.08
			c-0.041,0.005-0.083,0.006-0.125,0.008C238.483,134.097,238.433,134.559,238.689,134.475L238.689,134.475z"/>
		<path fill="#010101" d="M237.875,132.248c-0.856,3.509,2.272,7.164,4.405,9.583c2.877,3.264,6.445,6.511,10.612,7.993
			c3.616,1.286,6.975-0.62,7.4-4.536c0.264-2.422-1.377-4.938-2.7-6.809c-1.745-2.467-3.891-4.686-6.129-6.706
			c-2.701-2.438-5.533-4.196-9.169-4.817c-1.727-0.295-3.458-0.271-4.897,0.84c-1.593,1.23-1.945,4.338,0.163,5.146
			c0.771,0.296,1.68-0.583,1.816-1.283c0.136-0.692,0.16-1.236,0.055-1.936c-0.06-0.4-0.112,0.375-0.449,0.579
			c0.502-0.303,1.882-0.158,2.647-0.07c1.912,0.218,3.738,0.874,5.323,1.949c2.298,1.56,4.355,3.569,6.239,5.596
			c1.856,1.998,3.792,4.374,4.544,7.044c1.229,4.352-3.883,2.873-6.055,1.699c-4.051-2.187-7.606-5.572-10.366-9.225
			c-0.991-1.312-2.614-3.427-2.565-5.172C238.769,131.5,237.974,131.84,237.875,132.248L237.875,132.248z"/>
		<path fill="#010101" d="M309.143,71.522c3.043-2.133,5.811-4.61,8.528-7.141c2.72-2.531,5.524-5.207,7.737-8.194
			c2.193-2.962,3.666-6.19,4.994-9.606c0.355-0.915,0.792-2.703,1.695-3.25c0.988-0.6,3.227,2.413,3.73,2.958
			c2.049,2.208,4.229,4.36,6.832,5.908c2.801,1.665,5.939,2.529,9.145,2.979c2.721,0.381,5.729,0.69,8.129,2.137
			c2.619,1.579,3.01,4.643,2.143,7.382c-0.906,2.873-3.801,4.894-6.367,6.144c-3.826,1.863-8.285,1.667-12.406,2.252
			c-4.219,0.599-7.643,2.131-10.643,5.17c-2.475,2.509-4.539,5.517-7.906,6.894c-1.541,0.63-1.819,3.899,0.349,3.292
			c3.437-0.961,5.829-3.796,8.138-6.345c1.104-1.22,2.245-2.386,3.572-3.372c1.675-1.243,4.027-1.671,6.045-1.956
			c4.088-0.579,8.258-0.515,12.162-2.024c3.155-1.22,5.98-3.19,8.12-5.818c2.146-2.636,3.153-6.011,2.727-9.38
			c-0.38-3-2.271-5.005-4.931-6.251c-2.624-1.229-5.684-1.472-8.517-1.86c-3.071-0.421-6.192-1.503-8.781-3.217
			c-1.586-1.049-3.011-2.334-4.407-3.616c-1.576-1.447-3.229-3.316-5.297-4.023c-4.065-1.387-5.674,5.205-6.664,7.721
			c-1.808,4.597-4.767,8.834-8.17,12.394c-3.38,3.534-7.256,6.549-10.551,10.16C308.106,71.345,308.617,71.89,309.143,71.522
			L309.143,71.522z"/>
		<path fill="#010101" d="M224.641,107.772c-4.929,0.943-5.196,7.318-4.881,11.309c0.528,6.699,4.793,12.096,6.322,18.544
			c0.898,3.792,1.179,7.662,2.643,11.315c1.45,3.619,3.963,6.299,6.884,8.799c5.557,4.759,12.304,8.276,19.486,9.749
			c4.388,0.901,8.787,0.838,13.229,0.492c4.522-0.353,9.09-1.395,12.224-4.914c2.676-3.004,3.747-6.946,2.739-10.859
			c-0.972-3.769-3.865-7.137-7.68-8.092c-0.75-0.188-1.936,0.974-1.324,1.7c2.059,2.438,4.489,4.791,5.509,7.892
			c0.985,2.997,0.092,5.892-2.214,7.986c-2.696,2.449-7.132,2.573-10.557,2.795c-3.748,0.245-7.408,0.167-11.098-0.597
			c-7.328-1.52-13.853-5.357-19.46-10.214c-3.019-2.615-4.919-5.727-5.99-9.562c-1.069-3.831-1.452-7.768-2.994-11.471
			c-1.93-4.633-4.757-8.715-5.782-13.694c-0.663-3.22-1.361-9.57,2.93-10.649C224.905,108.231,225.011,107.701,224.641,107.772
			L224.641,107.772z"/>
		<path fill="#010101" d="M228.359,109.313c4.233,0.983,8.116,2.535,11.918,4.63c3.583,1.974,7.005,4.26,10.465,6.441
			c6.811,4.292,14.22,9.142,18.239,16.34c0.718,1.288,2.785-0.635,2.103-1.796c-4.296-7.31-11.797-12.138-18.874-16.428
			c-3.571-2.165-7.174-4.309-10.893-6.211c-3.954-2.024-8.31-3.648-12.807-3.381C228.348,108.918,228.126,109.259,228.359,109.313z"
			/>
		<path fill="#010101" d="M278.906,88.142c3.02,1.122,6.15,1.984,9.14,3.187c3.135,1.259,5.896,3.345,8.221,5.775
			c4.49,4.695,7.337,11.094,7.832,17.563c0.557,7.253-1.703,14.752-4.577,21.321c-1.386,3.17-2.591,6.519-4.641,9.34
			c-1.013,1.392-2.452,2.562-3.63,3.82c-0.34,0.362-0.619,0.793-0.908,1.196c-0.172,0.239-0.343,0.477-0.518,0.712
			c-0.255,0.343-0.523,0.436,0.156,0.004c0.384,0.002,0.767,0.004,1.15,0.005c-0.013-0.01-0.025-0.019-0.037-0.028
			c0.11,0.26,0.221,0.521,0.331,0.783c-0.013-0.099-0.007-0.196,0.019-0.294c0.066-0.499-0.363-0.935-0.848-0.931
			c-0.721,0.003-1.236,0.632-1.445,1.259c-0.124,0.372-0.229,0.901,0.048,1.237c0.247,0.303,0.632,0.501,1.032,0.343
			c0.95-0.375,1.455-1.206,2.029-2.004c0.98-1.363,2.239-2.456,3.391-3.668c2.682-2.827,4.131-6.707,5.604-10.252
			c3.029-7.292,5.516-15.019,5.122-23.024c-0.332-6.738-3.146-13.337-7.79-18.223c-2.369-2.492-5.292-4.581-8.455-5.936
			c-3.549-1.522-7.393-1.581-11.088-2.459C278.902,87.833,278.745,88.083,278.906,88.142z"/>
		<path fill="#010101" d="M317.879,88.895c2.141,0.959,2.444,3.153,1.232,4.978c-1.032,1.556-2.891,2.061-4.102,3.375
			c-0.22,0.24-0.317,0.749-0.021,0.973c0.974,0.732,2.444-0.205,3.245-0.803c1.139-0.851,1.972-2.117,2.555-3.395
			c0.49-1.073,0.686-2.284,0.347-3.426c-0.418-1.409-1.782-1.807-3.05-2.122C317.872,88.423,317.644,88.788,317.879,88.895
			L317.879,88.895z"/>
		<path fill="#010101" d="M323.377,82.757c2.396-2.616,5.019-5.063,7.748-7.328c1.406-1.167,2.876-2.26,4.383-3.293
			c0.844-0.579,2.109-1.523,2.882-1.809c2.855-1.052,6.005-1.405,8.952-2.121c3.26-0.792,6.833-1.626,9.623-3.579
			c2.133-1.493,3.242-4.744,0.152-5.844c-0.722-0.256-1.36,0.776-1.068,1.373c0.219,0.448,0.436,0.925,0.594,1.398
			c0.049,0.147,0.063,0.395,0.083,0.262c-0.036,0.236-0.089,0.269-0.017,0.159c-0.428,0.649-1.684,1.242-2.6,1.643
			c-3.06,1.337-6.414,1.988-9.629,2.832c-2.38,0.623-5.238,0.995-7.311,2.402c-5.438,3.687-10.551,8.077-14.26,13.541
			C322.629,82.806,323.045,83.122,323.377,82.757L323.377,82.757z"/>
	</g>
	<g>
		<path d="M415.994,83.063c0.656,3.337,0.96,6.769,0.953,10.183c0.035,3.422-0.32,6.839-0.89,10.219
			c-1.171,6.764-3.477,13.32-6.506,19.534c-1.531,3.099-3.216,6.136-5.094,9.058c-1.851,2.94-3.87,5.782-6.025,8.521
			c-4.317,5.474-9.146,10.57-14.36,15.242c-10.457,9.318-22.461,16.897-35.256,22.527c-12.796,5.648-26.336,9.486-40.072,11.595
			c-13.742,2.13-27.715,2.427-41.469,1.327c-13.76-1.15-27.33-3.671-40.441-7.683c-13.071-4.056-25.815-9.684-36.902-18.165
			c-2.752-2.131-5.416-4.412-7.883-6.922c-2.489-2.488-4.813-5.179-6.883-8.087c-4.119-5.814-7.362-12.452-9.051-19.59
			c-1.748-7.112-2.021-14.668-0.853-21.966c0.574-3.651,1.47-7.245,2.646-10.73c1.204-3.474,2.663-6.846,4.339-10.086
			c3.334-6.498,7.563-12.443,12.297-17.844c4.732-5.412,9.976-10.295,15.506-14.759c11.089-8.904,23.363-16.12,36.257-21.768
			c12.905-5.678,26.408-9.697,40.255-12.251c6.832-1.213,13.837-2.161,20.824-2.604c6.995-0.479,14.021-0.591,21.032-0.214
			c14.017,0.73,27.964,3.525,41.124,8.389c13.133,4.888,25.539,11.886,35.813,21.212c5.112,4.67,9.674,9.933,13.246,15.809
			c1.771,2.941,3.351,5.999,4.57,9.2c1.252,3.185,2.215,6.482,2.821,9.845L415.994,83.063z M414.422,83.355
			c-0.66-3.242-1.629-6.419-2.933-9.455c-1.341-3.018-2.937-5.922-4.851-8.604c-3.801-5.386-8.63-9.982-13.987-13.736
			c-5.352-3.781-11.242-6.715-17.314-9.049c-6.073-2.349-12.372-4.034-18.72-5.301c-12.719-2.519-25.66-3.273-38.521-3.113
			c-6.436,0.104-12.869,0.458-19.271,1.156c-6.412,0.732-12.742,1.651-19.12,2.961c-12.567,2.503-25.001,6.145-36.892,10.901
			c-11.879,4.795-23.288,10.796-33.53,18.299c-10.216,7.497-19.252,16.534-25.861,26.952c-1.644,2.607-3.098,5.315-4.34,8.104
			c-1.259,2.782-2.311,5.649-3.09,8.586c-1.555,5.869-2.073,12.017-1.272,18.119c0.816,6.084,2.855,12.096,6.124,17.514
			c1.617,2.716,3.486,5.312,5.573,7.75c2.117,2.409,4.403,4.706,6.894,6.785c9.951,8.385,22.226,14.036,34.945,17.397
			c12.768,3.371,26.086,4.4,39.205,3.819c13.142-0.548,26.103-2.696,38.779-5.608c12.677-2.949,25.074-6.772,37.073-11.558
			c11.978-4.813,23.659-10.45,34.531-17.54c5.433-3.54,10.648-7.462,15.429-11.896c4.782-4.423,9.176-9.335,12.757-14.837
			c3.595-5.478,6.382-11.549,7.91-17.973c0.782-3.207,1.179-6.502,1.298-9.805c0.076-3.309-0.213-6.609-0.816-9.878L414.422,83.355z
			"/>
	</g>
	<g>
		<path d="M128.225,3.538c7.739,3.557,15.308,7.394,22.811,11.341c7.526,3.908,14.947,7.987,22.328,12.134
			c7.378,4.151,14.707,8.384,21.976,12.714c7.291,4.294,14.483,8.75,21.543,13.425c14.121,9.346,27.744,19.511,42.046,28.561
			c14.278,9.088,29.02,17.415,43.959,25.414l11.195,6.017l5.596,3.011l5.56,3.069c7.409,4.1,14.731,8.343,22.058,12.578
			c7.335,4.222,14.646,8.483,21.947,12.762c7.317,4.25,14.545,8.647,21.747,13.089c7.184,4.471,14.341,8.985,21.431,13.609
			l10.644,6.923l10.572,7.041c3.533,2.332,7.02,4.74,10.519,7.128c3.506,2.376,6.984,4.799,10.451,7.238
			c6.945,4.863,13.843,9.804,20.619,14.945l-0.52,0.854c-7.683-3.65-15.243-7.501-22.756-11.43
			c-3.762-1.957-7.514-3.929-11.236-5.949c-3.73-2.007-7.473-3.995-11.169-6.059l-11.115-6.147l-11.044-6.264
			c-7.369-4.167-14.67-8.445-21.944-12.766c-7.257-4.351-14.487-8.744-21.628-13.286c-7.157-4.514-14.305-9.044-21.428-13.613
			c-7.131-4.557-14.268-9.105-21.317-13.797l-5.284-3.524l-5.248-3.583l-10.492-7.17c-13.977-9.584-28.152-18.841-42.791-27.336
			c-14.615-8.534-29.909-15.952-44.704-24.189c-7.398-4.117-14.665-8.453-21.832-12.95c-7.189-4.462-14.319-9.02-21.399-13.661
			c-7.078-4.645-14.115-9.356-21.047-14.241c-6.956-4.845-13.845-9.8-20.564-15.034L128.225,3.538z"/>
	</g>
	<g>
		<path d="M438.134,10.242c-6.714,5.24-13.6,10.201-20.552,15.052c-6.928,4.89-13.961,9.608-21.034,14.259
			c-7.076,4.647-14.202,9.211-21.388,13.679c-7.164,4.504-14.426,8.846-21.82,12.969c-14.789,8.25-30.076,15.682-44.684,24.228
			c-14.631,8.508-28.799,17.776-42.767,27.373l-10.487,7.179l-5.245,3.587l-5.281,3.529c-7.045,4.697-14.178,9.252-21.305,13.815
			c-7.12,4.576-14.263,9.112-21.417,13.632c-7.136,4.548-14.363,8.948-21.616,13.305c-7.271,4.327-14.568,8.611-21.933,12.784
			l-11.039,6.274l-11.11,6.157c-3.694,2.067-7.435,4.058-11.164,6.069c-3.721,2.023-7.471,3.999-11.23,5.958
			c-7.51,3.936-15.067,7.792-22.747,11.449l-0.521-0.854c6.771-5.147,13.665-10.094,20.606-14.963
			c3.465-2.442,6.941-4.868,10.445-7.247c3.497-2.392,6.981-4.803,10.513-7.138l10.566-7.049l10.638-6.933
			c7.086-4.631,14.239-9.151,21.419-13.628c7.198-4.448,14.422-8.852,21.736-13.107c7.297-4.285,14.604-8.552,21.936-12.781
			c7.323-4.241,14.642-8.491,22.047-12.597l5.558-3.074l5.593-3.016l11.189-6.027c14.934-8.012,29.667-16.352,43.938-25.452
			c14.293-9.061,27.908-19.238,42.021-28.596c7.055-4.681,14.244-9.143,21.531-13.443c7.266-4.336,14.59-8.576,21.965-12.733
			c7.377-4.153,14.795-8.239,22.316-12.153c7.5-3.953,15.065-7.797,22.802-11.36L438.134,10.242z"/>
	</g>
</g>
<g id="Layer_4">
	<g>
		<path d="M341.433,264.196c0.183,0.822,0.311,1.705,0.31,2.688c-0.001,0.979-0.145,2.083-0.568,3.103
			c-0.421,1.014-1.119,1.909-1.998,2.502c-0.876,0.601-1.903,0.93-2.936,0.994c-1.006,0.064-2.104-0.166-3.038-0.494
			c-0.957-0.343-1.82-0.758-2.655-1.149c-0.829-0.408-1.653-0.806-2.446-1.389c-0.778-0.579-1.59-1.333-2.132-2.38
			c-0.55-1.03-0.781-2.344-0.577-3.556c0.193-1.221,0.773-2.29,1.459-3.198c1.374-1.824,3.321-3.113,5.44-3.553
			c0.425-0.087,1.107-0.184,1.608-0.181c0.542-0.013,1.086,0.007,1.624,0.106c1.079,0.185,2.114,0.713,2.966,1.43
			c0.857,0.72,1.507,1.635,1.975,2.505c0.471,0.879,0.767,1.722,0.967,2.561L341.433,264.196z M340.849,264.333
			c-0.193-0.728-0.784-1.307-1.49-1.526c-0.715-0.229-1.506-0.113-2.17,0.083c-0.673,0.192-1.247,0.462-1.779,0.612l-0.789,0.228
			c-0.299,0.098-0.41,0.146-0.768,0.253c-0.998,0.349-2.013,0.637-2.838,1.185c-0.408,0.273-0.72,0.587-1.049,0.895
			c-0.314,0.313-0.655,0.671-0.812,1.207c-0.147,0.52-0.072,1.187,0.326,1.707c0.389,0.517,1.006,0.917,1.698,1.034
			c0.689,0.134,1.437-0.023,2.09-0.331c0.328-0.152,0.638-0.326,0.926-0.516c0.32-0.196,0.484-0.354,0.826-0.533
			c1.05-0.7,1.965-0.956,3.344-1.242c0.669-0.162,1.418-0.442,1.939-0.991c0.518-0.541,0.754-1.33,0.543-2.075L340.849,264.333z"/>
	</g>
	<g>
		<path d="M377.774,238.756c0.333,1.398,0.514,2.871,0.475,4.424c-0.034,1.55-0.309,3.215-0.997,4.772
			c-0.685,1.55-1.786,2.953-3.182,3.946c-1.413,1.008-2.975,1.623-4.748,1.871c-0.177,0.019-0.354,0.032-0.532,0.041l-0.66,0.037
			c-0.441,0-0.843-0.004-1.264-0.053c-0.83-0.084-1.643-0.237-2.426-0.458c-1.568-0.448-3.004-1.096-4.349-1.831
			c-2.661-1.485-5.101-3.499-6.521-6.729c-0.652-1.454-0.994-3.332-0.769-5.084c0.182-1.785,0.901-3.473,1.865-4.953
			c1.953-2.982,4.953-5.163,8.511-5.95l0.521-0.096l0.688-0.108c0.461-0.065,0.877-0.093,1.32-0.103
			c0.873-0.024,1.75,0.021,2.609,0.177c1.722,0.299,3.348,1.083,4.683,2.149c1.343,1.069,2.371,2.417,3.137,3.774
			c0.771,1.363,1.297,2.749,1.638,4.164L377.774,238.756z M377.19,238.893c-0.342-1.322-1.181-2.492-2.272-3.245
			c-1.092-0.766-2.396-1.106-3.605-1.227c-1.221-0.127-2.372-0.043-3.459,0.033c-0.545,0.045-1.083,0.098-1.613,0.194
			c-0.26,0.046-0.542,0.116-0.776,0.164l-0.352,0.086l-0.511,0.139c-1.9,0.584-3.964,1.548-5.394,3.098
			c-0.725,0.775-1.262,1.677-1.715,2.641c-0.415,0.992-0.753,2.011-0.715,3.293c-0.006,1.083,0.362,2.393,1.11,3.393
			c0.74,1.024,1.811,1.841,3.021,2.288c1.211,0.458,2.552,0.511,3.793,0.285c0.622-0.11,1.223-0.27,1.797-0.475
			c0.282-0.104,0.579-0.206,0.833-0.318l0.379-0.159c0.165-0.069,0.331-0.134,0.498-0.193c0.959-0.445,2.024-0.949,2.983-1.465
			c0.975-0.53,1.989-1.056,2.993-1.765c1-0.698,1.983-1.623,2.583-2.821c0.602-1.191,0.777-2.616,0.419-3.953L377.19,238.893z"/>
	</g>
	<g>
		<path d="M403.225,188.891c0.556,2.228,0.224,4.623-0.606,6.827c-0.83,2.215-2.112,4.318-3.715,6.141
			c-3.209,3.684-7.769,5.936-12.439,6.705c-4.719,0.767-9.498,0.112-13.945-0.957c-2.233-0.562-4.443-1.297-6.502-2.521
			c-1.02-0.62-2.015-1.352-2.88-2.284c-0.85-0.936-1.598-2.056-2.046-3.332c-0.938-2.557-0.64-5.548,0.452-7.934
			c1.057-2.439,2.752-4.406,4.582-6.077c3.694-3.331,8.158-5.583,12.857-6.676c2.35-0.535,4.766-0.823,7.189-0.777
			c2.423,0.05,4.851,0.544,7.129,1.409c2.277,0.87,4.403,2.126,6.188,3.693c1.778,1.56,3.2,3.529,3.735,5.776L403.225,188.891z
			 M402.642,189.031c-0.523-2.089-2.164-3.719-4.053-4.579c-1.907-0.883-4.031-1.124-6.077-1.129
			c-2.058-0.005-4.076,0.233-6.065,0.489c-1.992,0.259-3.967,0.645-5.903,1.185c-3.851,1.076-7.648,2.538-10.802,4.83
			c-1.565,1.144-2.908,2.504-3.946,3.97c-0.997,1.479-1.697,3.107-1.519,4.872c0.143,1.749,1.223,3.524,2.863,4.738
			c1.632,1.227,3.673,1.988,5.762,2.302c2.098,0.326,4.258,0.162,6.328-0.245c2.078-0.407,4.07-1.079,6.015-1.754
			c1.944-0.687,3.834-1.417,5.697-2.203c1.856-0.796,3.72-1.599,5.521-2.597c1.794-0.992,3.55-2.216,4.814-3.905
			c1.258-1.663,1.924-3.887,1.363-5.98L402.642,189.031z"/>
	</g>
</g>
<g id="Layer_3">
	<g id="boy_6_">
		<path fill="#010101" d="M464.588,275.637c-18.842-3.287-36.432,11.008-46.497,26.335c-11.349,17.288-16.956,38.343-19.331,58.979
			c-2.397,20.806-2.193,42.987,8.577,61.371c11.867,20.256,34.81,27.538,56.411,26.104c13.499-0.896,27.117-4.9,38.817-12.07
			c5.979-3.666,11.62-8.476,15.604-14.456c3.954-5.934,6.025-12.948,6.857-20.077c0.831-7.127,0.56-14.317,0.286-21.47
			c-0.285-7.514-0.786-14.94-1.825-22.386c-2.078-14.874-5.225-30.328-10.538-44.336c-3.541-9.338-9.371-18.115-15.619-25.666
			c-5.887-7.112-14.067-15.428-23.753-14.528c-3.729,0.347-8.374,7.61-2.907,8.902c3.357,0.794,7.806,3.555,10.821,6.165
			c4.391,3.802,8.174,8.372,11.616,13.106c3.174,4.36,6.015,8.991,8.39,13.879c2.636,5.426,4.262,11.356,5.888,17.177
			c4.17,14.924,7.019,30.406,7.733,45.956c0.576,12.511,2.536,27.977-4.407,39.053c-6.855,10.932-20.877,16.236-32.44,19.123
			c-11.248,2.807-23.35,3.021-34.578,0.067c-9.612-2.528-18.268-8.092-24.688-15.995c-6.954-8.562-10.558-19.566-11.846-30.604
			c-2.217-18.979,0.376-39.174,5.448-57.425c4.965-17.866,13.133-36.603,28.782-46.787c6.715-4.369,14.374-5.862,22.079-7.003
			C464.805,278.855,466.766,276.018,464.588,275.637L464.588,275.637z"/>
		<path fill="#010101" d="M422.484,376.223c1.087,0.02,2.163-0.327,3.225-0.561c1.149-0.255,1.415-0.336,2.683-0.455
			c2.061-0.196,4.171-2.246,4.056-4.516c-0.128-2.54-2.747-2.511-4.387-1.679c-0.917,0.465-1.813,0.973-2.726,1.451
			c-0.579,0.304-1.156,0.612-1.736,0.918c-0.252,0.134-0.505,0.266-0.758,0.402c0.443-0.238-1.339,1-0.573,0.431
			C420.827,373.287,419.833,376.175,422.484,376.223L422.484,376.223z"/>
		<path fill="#010101" d="M428.393,375.004c0.444,6.397,6.317,9.891,11.503,11.759c6.576,2.368,13.95,2.334,20.796,1.728
			c7.426-0.654,14.83-2.344,21.895-4.81c5.788-2.022,11.817-4.677,16.522-8.846c1.376-1.219,1.983-2.937,1.582-4.755
			c-0.322-1.461-0.296-2.742-0.997-4.119c-2.156,1.984-4.314,3.969-6.472,5.951c1.526,0.911,2.972,2.641,4.856,2.479
			c0.604-0.052,0.802-0.186,1.253-0.297c0.599-0.207,1.132-0.528,1.604-0.967c-1.041,0.78-1.041,0.78,0,0
			c1.287-1.283,2.161-2.97,1.658-4.875c-0.498-1.877-2.535-2.892-4.063-3.685c-3.629-1.879-8.103,3.185-6.011,6.757
			c0.51,0.866,0.481,2.218,0.754,3.182c0.526-1.585,1.054-3.17,1.583-4.755c-1.595,1.553-2.416,2.118-4.821,3.506
			c-2.339,1.354-4.793,2.449-7.288,3.441c-6.293,2.503-12.889,4.229-19.553,5.208c-6.422,0.942-13.013,1.146-19.387-0.242
			c-5.438-1.186-9.233-4.239-13.263-7.958C429.726,372.954,428.32,373.939,428.393,375.004z"/>
		<path fill="#010101" d="M405.057,344.773c-0.051-2.11-0.111-3.366-1.211-5.235c-0.935-1.586-2.679-2.286-4.286-2.855
			c-3.775-1.335-8.225-0.228-11.7,1.475c-6.508,3.187-10.131,10.357-9.478,17.736c0.576,6.544,4.231,12.818,9.358,16.532
			c5.653,4.093,12.151,2.176,16.508-2.873c1.41-1.636,0.768-4.727-1.681-4.419c-1.964,0.249-4.666,1.52-5.141,3.834
			c-0.48,2.354,2.397,2.553,3.87,2.382c-0.562-1.474-1.12-2.945-1.68-4.419c-2.151,2.463-5.422,1.584-8.173-0.351
			c-3.648-2.563-5.948-7.093-6.998-11.444c-1.031-4.267,0.006-8.988,3.581-11.563c3.774-2.721,13.777-4.668,15.244,2.028
			C403.506,346.672,405.075,345.558,405.057,344.773L405.057,344.773z"/>
		<path fill="#010101" d="M517.595,342.906c2.237-6.175,10.077-9.071,15.675-6.768c5.485,2.257,10.334,8.02,10.498,14.323
			c0.129,4.904-3.115,9.441-6.8,12.122c-2.277,1.661-4.804,2.728-7.487,3.417c-3.006,0.771-6.876-0.429-9.498,1.315
			c-0.967,0.644-2.251,2.176-1.621,3.508c1.615,3.421,7.943,1.826,10.816,1.211c3.913-0.84,7.666-2.803,10.847-5.3
			c5.705-4.476,10.023-11.572,9.369-19.269c-0.688-8.085-8.208-15.75-15.723-16.99c-4.005-0.661-8.323,0.633-11.625,3.008
			c-3.35,2.411-4.987,5.346-5.961,9.348C515.831,343.882,517.329,343.636,517.595,342.906L517.595,342.906z"/>
		<path fill="#010101" d="M527.146,349.092c0.888-0.06,1.976-1.012,2.676-0.638c0.48,0.257,0.841,1.352,0.953,2.146
			c0.152,1.074-0.003,2.567-0.244,3.261c-0.099,0.287-0.231,0.559-0.361,0.83c0.305-0.631-0.671,0.762-0.02,0.064
			c-0.458,0.491,0.169-0.064,0.339-0.141c-0.51,0.229-1.037,0.363-1.523,0.674c-2.117,1.352-3.192,5.423,0.29,5.442
			c2.635,0.016,5.042-3.003,5.919-5.357c0.84-2.259,0.9-4.634,0.332-6.968c-0.463-1.897-1.734-3.521-3.616-3.919
			c-2.074-0.439-5.188,1.323-5.602,3.581C526.178,348.669,526.561,349.129,527.146,349.092L527.146,349.092z"/>
		<path fill="#010101" d="M394.807,347.776c-3.111-0.689-6.146,2.743-7.328,5.37c-1.637,3.636-0.344,7.354,2.553,9.692
			c2.521,2.037,7.048-3.853,3.907-5.405c-1.451-0.721-2.57-1.821-2.342-3.639c0.251-2.015,1.961-2.713,3.347-3.769
			C395.658,349.479,395.883,348.014,394.807,347.776z"/>
		<path fill="#010101" d="M446.06,334.789c-1.491,3.256-1.935,7.341-2.203,10.905c-0.298,3.944-0.121,8.003,1.69,11.563
			c1.779,3.497,6.352,1.276,7.58-1.619c1.916-4.521,2.881-9.432,2.791-14.383c-0.043-2.301-0.532-4.715-1.509-6.777
			c-0.49-1.042-1.14-1.995-1.908-2.828c-0.391-0.368-0.798-0.718-1.219-1.048c-0.079-0.045-3.159-0.869-1.473-0.416
			c-2.754-0.74-5.905,2.155-6.412,4.844c-0.689,3.658-1.056,8.631,0.118,12.185c0.641,1.941,2.876,2.268,4.504,1.722
			c2.093-0.702,3.577-2.485,4.176-4.653c1.02-3.684,0.669-8.465-0.114-12.186c-1.353,2.28-2.708,4.561-4.062,6.841
			c-0.193,0.058-0.386,0.115-0.581,0.172c-0.933-0.348-1.864-0.694-2.797-1.044c4.594,4.003,2.392,12.152,0.799,17.198
			c2.482-1.167,4.968-2.334,7.45-3.501c-3.578-5.352-0.301-12.274-2.101-17.984C449.999,331.264,446.73,333.327,446.06,334.789
			L446.06,334.789z"/>
		<path fill="#010101" d="M467.778,333.438c-3.316,2.613-4.224,7.999-4.732,12.036c-0.595,4.725-0.604,9.74,1.063,14.235
			c1.582,4.257,6.701,0.747,8.019-1.711c4.141-7.724,6.357-19.374,1.238-27.032c-2.226-3.327-7.193,0.4-8.303,2.854
			c-0.788,1.74-1.55,3.688-1.215,5.635c0.929,5.352,6.729,2.411,8.45-0.719c0.566-1.027,0.889-2.152,1.34-3.24
			c-2.768,0.951-5.533,1.901-8.302,2.854c2.11,1.865,1.879,5.665,1.592,8.271c-0.38,3.409-1.327,6.7-2.565,9.863
			c2.506-0.862,5.011-1.723,7.518-2.586c-1.692-2.685-1.806-6.802-1.891-9.893c-0.092-3.327,0.924-6.703,0.679-9.974
			C470.536,332.305,468.679,332.726,467.778,333.438L467.778,333.438z"/>
		<path fill="#010101" d="M425.526,438.632c-8.681,17.063-5.388,37.754-4.425,56.221c0.112,2.181,1.787,3.063,3.648,3.084
			c14.631,0.166,28.822,4.571,43.471,4.523c7.383-0.026,14.751-0.817,22.081-1.686c3.668-0.434,7.334-0.9,11.002-1.324
			c3.793-0.438,7.666-0.563,11.396-1.412c1.782-0.407,3.45-2.193,4.198-3.86c0.715-1.593,0.886-4.659-1.153-5.418
			c-1.611-0.597-2.491-0.665-4.177-0.371c-2.337,0.413-4.553,2.353-4.507,5.018c0.027,1.474,0.42,2.523,1.237,3.727
			c2.125-2.921,4.251-5.84,6.377-8.76c-3.744-0.29-7.548,0.372-11.27,0.807c-3.672,0.428-7.338,0.902-11.008,1.35
			c-7.341,0.895-14.698,1.626-22.091,1.729c-14.637,0.203-28.995-4.668-43.664-3.574c1.145,0.671,2.291,1.339,3.435,2.008
			c-4.719-16.554-5.669-35.033-1.884-51.928C428.634,436.789,426.091,437.521,425.526,438.632L425.526,438.632z"/>
		<path fill="#010101" d="M505.487,432.219c-0.379,4.059,0.521,8.397,1.086,12.416c0.927,6.6,1.772,13.212,2.535,19.834
			c0.746,6.479,1.404,12.987,1.676,19.51c0.095,2.309,0.131,4.628-0.019,6.936c0.081-1.232-0.234,1.001-0.357,1.473
			c-0.144,0.497-0.071,0.28,0.221-0.652c-0.182,0.522-0.376,1.041-0.513,1.577c-0.135,0.529-0.203,1.172-0.164,1.683
			c0.256,3.394,3.724,3.568,6.022,2.304c4.964-2.732,4.118-9.674,3.713-14.546c-0.535-6.428-1.614-12.815-2.72-19.156
			c-1.195-6.833-2.557-13.634-3.976-20.419c-0.817-3.911-1.626-9.354-3.313-12.374C508.62,428.91,505.668,430.243,505.487,432.219
			L505.487,432.219z"/>
		<path fill="#010101" d="M428.384,494.708c-3.903,7.813-2.812,17.847-3.293,26.368c-0.081,1.435,1.434,2.458,2.673,2.259
			c12.341-1.985,24.601,1.822,36.97,0.85c2.136-0.17,4.627-2.468,4.384-4.882c-0.257-2.545-0.055-5.377,1.722-7.345
			c-1.507,0.328-3.01,0.655-4.512,0.981c4.019,2.692,9.104,5.768,10.41,10.932c0.458,1.81,2.522,1.756,3.854,1.474
			c10.431-2.208,21.086,2.614,31.502-0.516c1.567-0.471,3.482-2.239,3.638-4.053c0.629-7.323,2.622-30.572-9.522-27.821
			c-2.373,0.534-4.724,4.671-2.096,6.378c0.564,0.366,1.701,1.512,2.275,2.745c0.878,1.884,1.221,3.995,1.478,6.053
			c0.52,4.213,0.492,9.813,0.206,13.298c1.212-1.349,2.425-2.701,3.637-4.052c-4.719,1.439-9.872,0.692-14.686,0.26
			c-5.664-0.507-11.212-0.825-16.81,0.384c1.284,0.49,2.569,0.981,3.854,1.474c-1.633-6.342-7.801-10.178-12.797-13.39
			c-1.866-1.199-4.063,0.459-5.269,1.835c-3.292,3.754-4.725,8.768-4.154,13.807c1.462-1.627,2.922-3.256,4.385-4.883
			c-12.395,1.112-24.705-2.51-37.081-0.308c0.89,0.754,1.782,1.507,2.672,2.26c-0.56-8.184-1.396-15.785,0.187-23.93
			C432.531,492.194,429.155,493.165,428.384,494.708L428.384,494.708z"/>
		<path fill="#010101" d="M449.823,447.05c-1.175,3.833-0.869,7.408,2.442,9.902c3.263,2.456,7.176,3.433,11.117,3.785
			c4.057,0.361,8.546,0.355,11.779-2.58c3.038-2.754,5.194-7.856,5.267-12.052c0.086-4.971-5.565-4.143-6.62-0.169
			c-0.361,1.36-0.075,3.246-0.52,4.939c-0.229,0.862-0.62,1.779-1.069,2.538c-0.213,0.342-0.445,0.67-0.697,0.981
			c-0.284,0.378,0.93-0.352-0.222,0.069c-3.455,1.271-8.334,0.652-11.812-0.282c-4.255-1.143-7.2-2.878-8.208-7.625
			C451.091,445.66,449.957,446.614,449.823,447.05L449.823,447.05z"/>
		<path fill="#010101" d="M425.464,437.886c-4.139,0.077-8.181,3.373-11.205,6.019c-3.713,3.248-6.914,7.313-9.208,11.77
			c-0.448,0.87-0.571,2.375,0.188,3.126c3.606,3.567,9.344,4.154,12.243,8.514c0.919,1.38,2.865,0.382,3.796-0.322
			c3.703-2.801,1.292-6.627-1.632-8.494c-2.747-1.755-6.459-2.535-8.866-4.792c0.062,1.041,0.126,2.081,0.188,3.125
			c1.644-3.469,3.672-6.587,6.31-9.318c2.645-2.74,5.905-4.546,8.716-7.03C426.94,439.65,426.995,437.859,425.464,437.886z"/>
		<path fill="#010101" d="M509.177,428.424c-3.824,3.736,5.289,11.311,7.531,13.289c4.82,4.254,11.395,8.297,14.533,14.203
			c1.346-1.828,2.688-3.655,4.031-5.481c-4.172,0.18-8.153,1.699-11.901,3.526c-3.671,1.792-8.985,4.273-10.931,8.119
			c-0.968,1.912,0.213,3.636,2.138,3.661c1.891,0.025,3.241-1.113,4.782-2.115c1.515-0.989,3.059-1.922,4.633-2.806
			c3.126-1.755,6.35-2.831,9.847-3.383c2.318-0.367,5.728-3.6,3.631-6.181c-4.335-5.34-10.227-9.156-15.676-13.108
			c-2.699-1.955-5.386-3.974-7.763-6.356C513.067,430.821,510.863,426.78,509.177,428.424L509.177,428.424z"/>
		<path fill="#010101" d="M440.338,520.052c-6.039,9.836-4.622,22.464-2.282,33.268c1.254-1.399,2.508-2.799,3.761-4.199
			c-3.335-0.554-7.055-0.313-9.909,1.761c-2.594,1.882-3.985,5.111-2.266,8.143c3.437,6.059,11.19,6.233,16.866,4.122
			c2.763-1.028,5.572-2.981,6.932-5.789c1.401-2.892,0.934-6.193,0.36-9.247c-1.569-8.353-3.858-17.627-0.598-25.912
			c1.66-4.213-3.845-4.193-5.281-1.031c-0.562,1.235-0.753,2.356-0.259,3.655c0.743,1.942,3.356,0.934,4.193-0.357
			c0.493-0.757,0.969-1.435,1.347-2.267c-1.76-0.343-3.521-0.688-5.281-1.031c-2.295,5.902-2.306,12.592-1.853,18.875
			c0.373,5.182,2.707,10.065,2.604,15.308c-0.065,3.281-6.719,3.536-8.74,3.306c-2.301-0.261-3.932-1.442-5.345-3.332
			c-0.026-0.564-0.133-0.731-0.32-0.5c-0.236,0.689,0.169,0.044,0.71-0.158c1.4-0.523,2.993-0.42,4.435-0.204
			c1.848,0.282,4.747-2.011,3.761-4.198c-4.262-9.453-3.979-20.02-0.919-29.83C442.657,519.136,440.807,519.287,440.338,520.052
			L440.338,520.052z"/>
		<path fill="#010101" d="M491.474,523.512c-1.066,5.124-0.812,10.76-0.589,15.974c0.232,5.34,0.481,10.828,1.15,16.118
			c1.102-1.225,2.201-2.448,3.301-3.672c-3.477,0.111-6.944,1.563-8.793,4.793c-1.677,2.93-0.69,6.184,1.842,8.143
			c5.309,4.11,13.79,1.356,18.861-2.003c1.38-0.915,2.211-2.3,1.856-4.016c-1.629-7.9-3.711-15.385-3.645-23.534
			c0.02-2.37,0.039-4.741,0.058-7.111c0.015-1.527,0.285-3.377-0.215-4.846c-1.163-3.414-6.63,0.271-5.586,3.336
			c0.067,0.197,0.133,0.394,0.202,0.591c1.036,3.043,4.735,0.04,5.252-1.774c0.069-0.241,0.139-0.485,0.209-0.728
			c0.441-1.562-0.833-2.827-2.266-2.706c-1.701,0.146-3.007,1.553-3.472,3.192c-0.427,1.5-0.155,3.415-0.142,4.956
			c0.021,2.494,0.042,4.988,0.061,7.482c0.07,8.426,2.359,16.242,4.09,24.401c0.618-1.339,1.236-2.678,1.855-4.017
			c-2.832,1.895-6.524,3.248-9.918,3.064c-1.67-0.09-3.469-0.904-4.233-2.559c-0.505-1.087,2.275-1.126,2.854-1.155
			c1.502-0.071,3.627-1.917,3.301-3.672c-0.977-5.244-1.908-10.368-2.371-15.708c-0.432-5.016-0.346-10.382-1.519-15.273
			C493.32,521.538,491.628,522.773,491.474,523.512L491.474,523.512z"/>
		<path fill="#010101" d="M408.475,461.344c-1.413,1.128-1.894,3.534-2.608,5.178c-1.033,2.381-2.171,4.716-3.329,7.033
			c-1.231,2.465-2.544,4.882-3.811,7.327c-1.097,2.116-1.922,4.692-3.231,6.655c1.474,0.537,2.946,1.074,4.421,1.609
			c0.403-1.104,1.741-5.522-0.949-5.081c-2.544,0.418-4.538,2.755-4.141,5.515c0.545,3.79,5.231,0.918,5.37-1.803
			c0.108-2.13,1.906-4.957,2.759-6.862c1.112-2.488,2.284-4.943,3.449-7.405c1.083-2.294,2.119-4.604,2.946-7.014
			c0.454-1.32,1.689-4.096,0.507-5.27C409.433,460.806,408.882,461.017,408.475,461.344z"/>
		<path fill="#010101" d="M393.915,493.907c-2.621-1.171-5.755,0.123-8.232,1.289c-1.447,0.682-3.102,1.879-3.424,3.609
			c-0.338,1.802,0.929,2.738,2.49,2.741c1.527,0.003,2.902-2.053,2.021-3.443c0.435,0.685-1.34,2.589-0.603,2.025
			c0.232-0.217,0.438-0.456,0.619-0.72c-0.309,0.333-0.339,0.376-0.09,0.137c0.24-0.196,0.236-0.202-0.013-0.013
			c0.153-0.108,0.31-0.214,0.467-0.313c0.436-0.285,0.894-0.528,1.351-0.77c0.801-0.419,1.621-0.799,2.443-1.164
			c0.361-0.162,0.734-0.298,1.103-0.446c0.236-0.084,0.459-0.201,0.664-0.35c1.28-0.835-0.277,0.033,0.441-0.259
			C393.792,495.97,395.085,494.43,393.915,493.907z"/>
		<path fill="#010101" d="M395.993,496.814c-2.507,1.288-4.807,3.028-6.312,5.542c-1.266,2.116-2.227,6.348,1.101,6.944
			c1.372,0.245,2.703-1.104,2.72-2.502c0.019-1.575-0.667-2.424,0.235-3.895c0.922-1.507,2.15-2.874,3.407-4.078
			C398.312,497.707,397.524,496.026,395.993,496.814z"/>
		<path fill="#010101" d="M399.793,500.253c-1.305,1.809-1.836,4.444-2.255,6.633c-0.337,1.754-0.57,5.025,1.188,6.019
			c1.382,0.782,3.182-0.681,3.459-2.105c0.295-1.511-0.26-3.28-0.23-4.847c0.031-1.795,0.439-3.82,0.251-5.576
			C402.049,498.943,400.376,499.447,399.793,500.253z"/>
		<path fill="#010101" d="M403.623,498.35c0.848,1.036,1.438,1.933,1.9,3.218c0.536,1.496,0.414,3.121,1.095,4.564
			c0.993,2.102,3.49,0.202,3.928-1.326c1.104-3.853-1.675-8.548-5.588-8.729C404.039,496.031,402.928,497.5,403.623,498.35
			L403.623,498.35z"/>
		<path fill="#010101" d="M413.286,469.115c-4.255,7.229-9.259,14.368-10.539,22.969c-0.549,3.686,4.58,2.411,5.002-0.424
			c0.129-0.863,0.027-1.587-0.142-2.433c-0.557-2.771-4.48-0.05-4.782,1.614c-0.108,0.604-0.23,1.271-0.131,1.888
			c0.555,3.418,5.553,1.038,5.107-1.716c-0.563-3.462,1.441-7.698,2.733-10.771c1.475-3.51,3.145-6.927,4.515-10.485
			C415.565,468.418,413.885,468.096,413.286,469.115L413.286,469.115z"/>
		<path fill="#010101" d="M522.912,464.712c2.849,5.42,6.316,10.351,9.506,15.548c0.952,1.553,1.849,3.139,2.689,4.761
			c0.874,1.687,0.568,3.642,0.517,5.483c-0.094,3.387-0.114,6.779-0.158,10.169c-0.048,3.696,5.597,1.52,5.859-1.24
			c0.192-2.041,1.042-4.402-1.078-5.561c-0.759-0.416-1.718-0.059-2.315,0.505c-1.759,1.663-2.297,3.887-2.467,6.296
			c1.974-0.662,3.947-1.324,5.918-1.987c-0.056-4.413-0.122-8.825-0.245-13.234c-0.017-0.631-0.36-1.296-0.914-1.578
			c-1.521-0.778-2.646-3.427-3.607-4.816c-1.323-1.911-2.737-3.753-4.16-5.583c-2.639-3.399-5.465-6.514-8.432-9.594
			C523.598,463.435,522.618,464.151,522.912,464.712L522.912,464.712z"/>
		<path fill="#010101" d="M543.805,492.258c-0.686,3.278,0.414,6.225,2.029,9.009c1.295,2.232,3.516,5.3,6.079,5.922
			c1.828,0.446,4.864-2.563,3.173-4.357c-1.564-1.653-3.462-2.786-4.954-4.598c-1.647-2.003-3.014-4.314-3.853-6.811
			C545.813,490.037,543.996,491.345,543.805,492.258z"/>
		<path fill="#010101" d="M549.961,492.073c1.553,2.013,3.095,3.996,4.564,6.08c1.39,1.967,3.007,5.348,5.639,5.052
			c0.936-0.104,1.959-0.916,2.108-1.938c0.238-1.613-0.18-2.117-1.241-3.25c-0.982-1.048-1.989-2.068-2.979-3.107
			c-1.791-1.884-3.789-3.854-5.985-5.203C550.91,489.001,549.069,490.915,549.961,492.073z"/>
		<path fill="#010101" d="M551.497,487.555c1.064,1.001,2.252,1.822,3.278,2.884c1.124,1.162,2.112,3.145,3.579,3.792
			c1.551,0.688,3.54-0.847,3.462-2.608c-0.094-2.083-1.901-3.446-3.349-4.634c-1.333-1.092-3.297-1.991-4.981-2.167
			C552.452,484.715,550.281,486.41,551.497,487.555z"/>
		<path fill="#010101" d="M525.21,458.041c0.934,2.302,2.581,4.128,4.145,5.976c2.366,2.794,4.876,5.448,7.318,8.168
			c2.334,2.597,4.638,5.239,6.717,8.065c0.712,0.97,1.385,1.968,1.896,3.07c0.141,0.306,0.03,0.905,0.202,1.269
			c0.116,0.248,0.788,1.479,0.539,0.857c0.78,1.938,3.322,0.937,4.194-0.356c1.823-2.708,0.573-4.686-1.074-7.018
			c-1.979-2.803-4.517-5.199-6.949-7.559c-4.906-4.757-9.978-9.342-15-13.959C526.383,455.806,524.776,456.966,525.21,458.041
			L525.21,458.041z"/>
		<path fill="#010101" d="M454.903,277.34c-4.85-0.121-10.19,5.705-12.556,9.609c-2.793,4.611-5.513,11.772-2.939,17.058
			c1.62,3.326,6.197,0.613,6.68-2.256c0.686-4.053,0.603-7.979,2.302-11.791c0.782-1.752,1.905-3.348,3.093-4.813
			c1.389-1.711,3.287-2.815,4.669-4.522C457.286,279.228,456.655,277.385,454.903,277.34z"/>
		<path fill="#010101" d="M463.17,282.888c-5.339,1.429-8.934,5.5-11.095,10.734c-1.633,3.955-4.228,11.997-0.827,15.619
			c1.765,1.878,4.416-0.036,5.363-1.843c1.773-3.393,1.453-7.714,2.266-11.433c0.699-3.198,2.333-7.433,5.025-9.373
			C465.563,285.394,465.943,282.144,463.17,282.888L463.17,282.888z"/>
		<path fill="#010101" d="M467.722,290.806c-1.546,4.438-3.714,9.77-3.347,14.558c0.376,4.933,7.233,1.937,7.681-1.627
			c0.529-4.206-0.231-8.447,0.233-12.707C472.64,287.822,468.531,288.478,467.722,290.806z"/>
	</g>
	<g id="boy_2_">
		<path fill="#010101" d="M282.392,275.637c-18.47-3.287-35.716,11.008-45.582,26.335c-11.126,17.288-16.623,38.343-18.952,58.979
			c-2.35,20.806-2.149,42.987,8.409,61.371c11.634,20.256,34.125,27.538,55.301,26.104c13.233-0.896,26.584-4.9,38.055-12.07
			c5.861-3.666,11.391-8.476,15.295-14.456c3.878-5.934,5.909-12.948,6.724-20.077c0.814-7.127,0.549-14.317,0.28-21.47
			c-0.278-7.514-0.771-14.94-1.789-22.386c-2.037-14.874-5.121-30.328-10.33-44.336c-3.472-9.338-9.188-18.115-15.313-25.666
			c-5.77-7.112-13.789-15.428-23.285-14.528c-3.655,0.347-8.208,7.61-2.849,8.902c3.291,0.794,7.651,3.555,10.606,6.165
			c4.305,3.802,8.014,8.372,11.39,13.106c3.111,4.36,5.896,8.991,8.223,13.879c2.585,5.426,4.18,11.356,5.773,17.177
			c4.088,14.924,6.879,30.406,7.58,45.956c0.565,12.511,2.487,27.977-4.321,39.053c-6.72,10.932-20.465,16.236-31.801,19.123
			c-11.024,2.807-22.889,3.021-33.898,0.067c-9.421-2.528-17.907-8.092-24.2-15.995c-6.818-8.562-10.35-19.566-11.613-30.604
			c-2.173-18.979,0.37-39.174,5.342-57.425c4.867-17.866,12.874-36.603,28.215-46.787c6.583-4.369,14.091-5.862,21.646-7.003
			C282.605,278.855,284.528,276.018,282.392,275.637L282.392,275.637z"/>
		<path fill="#010101" d="M241.116,376.223c1.064,0.02,2.121-0.327,3.161-0.561c1.127-0.255,1.387-0.336,2.63-0.455
			c2.02-0.196,4.088-2.246,3.976-4.516c-0.126-2.54-2.693-2.511-4.301-1.679c-0.898,0.465-1.778,0.973-2.671,1.451
			c-0.568,0.304-1.134,0.612-1.703,0.918c-0.247,0.134-0.495,0.266-0.742,0.402c0.435-0.238-1.313,1-0.562,0.431
			C239.492,373.287,238.518,376.175,241.116,376.223L241.116,376.223z"/>
		<path fill="#010101" d="M246.909,375.004c0.436,6.397,6.194,9.891,11.277,11.759c6.447,2.368,13.675,2.334,20.387,1.728
			c7.279-0.654,14.537-2.344,21.462-4.81c5.675-2.022,11.587-4.677,16.197-8.846c1.35-1.219,1.946-2.937,1.552-4.755
			c-0.314-1.461-0.291-2.742-0.975-4.119c-2.117,1.984-4.232,3.969-6.345,5.951c1.496,0.911,2.911,2.641,4.76,2.479
			c0.592-0.052,0.785-0.186,1.229-0.297c0.585-0.207,1.107-0.528,1.572-0.967c-1.021,0.78-1.021,0.78,0,0
			c1.26-1.283,2.118-2.97,1.625-4.875c-0.487-1.877-2.484-2.892-3.984-3.685c-3.557-1.879-7.942,3.185-5.891,6.757
			c0.497,0.866,0.471,2.218,0.738,3.182c0.518-1.585,1.032-3.17,1.552-4.755c-1.564,1.553-2.369,2.118-4.726,3.506
			c-2.294,1.354-4.699,2.449-7.146,3.441c-6.169,2.503-12.636,4.229-19.168,5.208c-6.295,0.942-12.756,1.146-19.005-0.242
			c-5.33-1.186-9.052-4.239-13.001-7.958C248.215,372.954,246.837,373.939,246.909,375.004z"/>
		<path fill="#010101" d="M224.032,344.773c-0.049-2.11-0.108-3.366-1.187-5.235c-0.916-1.586-2.625-2.286-4.201-2.855
			c-3.702-1.335-8.063-0.228-11.47,1.475c-6.381,3.187-9.932,10.357-9.292,17.736c0.565,6.544,4.148,12.818,9.176,16.532
			c5.541,4.093,11.912,2.176,16.181-2.873c1.383-1.636,0.753-4.727-1.646-4.419c-1.926,0.249-4.575,1.52-5.041,3.834
			c-0.471,2.354,2.351,2.553,3.794,2.382c-0.549-1.474-1.098-2.945-1.646-4.419c-2.108,2.463-5.314,1.584-8.012-0.351
			c-3.576-2.563-5.831-7.093-6.86-11.444c-1.01-4.267,0.005-8.988,3.509-11.563c3.702-2.721,13.508-4.668,14.947,2.028
			C222.512,346.672,224.051,345.558,224.032,344.773L224.032,344.773z"/>
		<path fill="#010101" d="M334.355,342.906c2.194-6.175,9.88-9.071,15.367-6.768c5.378,2.257,10.131,8.02,10.291,14.323
			c0.127,4.904-3.054,9.441-6.665,12.122c-2.233,1.661-4.71,2.728-7.342,3.417c-2.945,0.771-6.74-0.429-9.311,1.315
			c-0.945,0.644-2.206,2.176-1.588,3.508c1.583,3.421,7.788,1.826,10.603,1.211c3.836-0.84,7.515-2.803,10.634-5.3
			c5.594-4.476,9.826-11.572,9.184-19.269c-0.675-8.085-8.045-15.75-15.412-16.99c-3.926-0.661-8.16,0.633-11.396,3.008
			c-3.284,2.411-4.891,5.346-5.844,9.348C332.626,343.882,334.095,343.636,334.355,342.906L334.355,342.906z"/>
		<path fill="#010101" d="M343.718,349.092c0.87-0.06,1.937-1.012,2.623-0.638c0.472,0.257,0.824,1.352,0.936,2.146
			c0.148,1.074-0.003,2.567-0.238,3.261c-0.099,0.287-0.228,0.559-0.355,0.83c0.299-0.631-0.657,0.762-0.019,0.064
			c-0.451,0.491,0.165-0.064,0.331-0.141c-0.501,0.229-1.017,0.363-1.493,0.674c-2.075,1.352-3.13,5.423,0.284,5.442
			c2.582,0.016,4.942-3.003,5.802-5.357c0.823-2.259,0.885-4.634,0.325-6.968c-0.452-1.897-1.699-3.521-3.545-3.919
			c-2.033-0.439-5.085,1.323-5.49,3.581C342.769,348.669,343.146,349.129,343.718,349.092L343.718,349.092z"/>
		<path fill="#010101" d="M213.983,347.776c-3.048-0.689-6.024,2.743-7.182,5.37c-1.605,3.636-0.338,7.354,2.501,9.692
			c2.47,2.037,6.91-3.853,3.831-5.405c-1.423-0.721-2.52-1.821-2.296-3.639c0.247-2.015,1.923-2.713,3.28-3.769
			C214.818,349.479,215.04,348.014,213.983,347.776z"/>
		<path fill="#010101" d="M264.229,334.789c-1.462,3.256-1.896,7.341-2.16,10.905c-0.292,3.944-0.119,8.003,1.657,11.563
			c1.745,3.497,6.228,1.276,7.431-1.619c1.879-4.521,2.824-9.432,2.736-14.383c-0.042-2.301-0.521-4.715-1.477-6.777
			c-0.482-1.042-1.119-1.995-1.872-2.828c-0.383-0.368-0.782-0.718-1.194-1.048c-0.078-0.045-3.097-0.869-1.445-0.416
			c-2.699-0.74-5.789,2.155-6.285,4.844c-0.677,3.658-1.035,8.631,0.115,12.185c0.628,1.941,2.82,2.268,4.416,1.722
			c2.051-0.702,3.506-2.485,4.094-4.653c1-3.684,0.654-8.465-0.111-12.186c-1.327,2.28-2.656,4.561-3.982,6.841
			c-0.19,0.058-0.379,0.115-0.57,0.172c-0.914-0.348-1.827-0.694-2.741-1.044c4.504,4.003,2.343,12.152,0.782,17.198
			c2.434-1.167,4.869-2.334,7.304-3.501c-3.508-5.352-0.294-12.274-2.059-17.984C268.09,331.264,264.885,333.327,264.229,334.789
			L264.229,334.789z"/>
		<path fill="#010101" d="M285.518,333.438c-3.251,2.613-4.14,7.999-4.639,12.036c-0.583,4.725-0.592,9.74,1.044,14.235
			c1.55,4.257,6.568,0.747,7.859-1.711c4.06-7.724,6.231-19.374,1.214-27.032c-2.182-3.327-7.051,0.4-8.141,2.854
			c-0.771,1.74-1.518,3.688-1.188,5.635c0.909,5.352,6.595,2.411,8.284-0.719c0.554-1.027,0.868-2.152,1.312-3.24
			c-2.712,0.951-5.423,1.901-8.138,2.854c2.069,1.865,1.843,5.665,1.561,8.271c-0.373,3.409-1.301,6.7-2.515,9.863
			c2.457-0.862,4.913-1.723,7.37-2.586c-1.66-2.685-1.771-6.802-1.854-9.893c-0.089-3.327,0.906-6.703,0.665-9.974
			C288.223,332.305,286.403,332.726,285.518,333.438L285.518,333.438z"/>
		<path fill="#010101" d="M244.099,438.632c-8.51,17.063-5.282,37.754-4.339,56.221c0.111,2.181,1.752,3.063,3.577,3.084
			c14.343,0.166,28.255,4.571,42.615,4.523c7.237-0.026,14.461-0.817,21.646-1.686c3.596-0.434,7.188-0.9,10.786-1.324
			c3.719-0.438,7.515-0.563,11.17-1.412c1.749-0.407,3.382-2.193,4.116-3.86c0.701-1.593,0.868-4.659-1.13-5.418
			c-1.579-0.597-2.441-0.665-4.095-0.371c-2.292,0.413-4.462,2.353-4.418,5.018c0.026,1.474,0.412,2.523,1.212,3.727
			c2.084-2.921,4.169-5.84,6.254-8.76c-3.671-0.29-7.4,0.372-11.05,0.807c-3.599,0.428-7.193,0.902-10.79,1.35
			c-7.197,0.895-14.408,1.626-21.656,1.729c-14.349,0.203-28.425-4.668-42.805-3.574c1.122,0.671,2.246,1.339,3.368,2.008
			c-4.627-16.554-5.558-35.033-1.848-51.928C247.146,436.789,244.653,437.521,244.099,438.632L244.099,438.632z"/>
		<path fill="#010101" d="M322.485,432.219c-0.371,4.059,0.512,8.397,1.065,12.416c0.909,6.6,1.737,13.212,2.485,19.834
			c0.73,6.479,1.376,12.987,1.645,19.51c0.09,2.309,0.127,4.628-0.02,6.936c0.078-1.232-0.23,1.001-0.352,1.473
			c-0.141,0.497-0.068,0.28,0.217-0.652c-0.178,0.522-0.369,1.041-0.503,1.577c-0.132,0.529-0.198,1.172-0.16,1.683
			c0.252,3.394,3.65,3.568,5.904,2.304c4.865-2.732,4.038-9.674,3.64-14.546c-0.526-6.428-1.582-12.815-2.666-19.156
			c-1.173-6.833-2.507-13.634-3.896-20.419c-0.802-3.911-1.596-9.354-3.25-12.374C325.558,428.91,322.665,430.243,322.485,432.219
			L322.485,432.219z"/>
		<path fill="#010101" d="M246.901,494.708c-3.827,7.813-2.756,17.847-3.229,26.368c-0.079,1.435,1.406,2.458,2.621,2.259
			c12.099-1.985,24.115,1.822,36.243,0.85c2.093-0.17,4.535-2.468,4.297-4.882c-0.252-2.545-0.055-5.377,1.686-7.345
			c-1.475,0.328-2.948,0.655-4.421,0.981c3.94,2.692,8.926,5.768,10.205,10.932c0.449,1.81,2.473,1.756,3.778,1.474
			c10.228-2.208,20.672,2.614,30.882-0.516c1.537-0.471,3.414-2.239,3.567-4.053c0.616-7.323,2.569-30.572-9.336-27.821
			c-2.326,0.534-4.631,4.671-2.055,6.378c0.553,0.366,1.667,1.512,2.231,2.745c0.861,1.884,1.195,3.995,1.447,6.053
			c0.512,4.213,0.483,9.813,0.203,13.298c1.188-1.349,2.376-2.701,3.564-4.052c-4.625,1.439-9.678,0.692-14.396,0.26
			c-5.553-0.507-10.991-0.825-16.479,0.384c1.261,0.49,2.52,0.981,3.778,1.474c-1.601-6.342-7.649-10.178-12.545-13.39
			c-1.83-1.199-3.984,0.459-5.165,1.835c-3.228,3.754-4.632,8.768-4.072,13.807c1.433-1.627,2.864-3.256,4.298-4.883
			c-12.15,1.112-24.219-2.51-36.351-0.308c0.872,0.754,1.746,1.507,2.619,2.26c-0.549-8.184-1.368-15.785,0.182-23.93
			C250.966,492.194,247.656,493.165,246.901,494.708L246.901,494.708z"/>
		<path fill="#010101" d="M267.918,447.05c-1.152,3.833-0.853,7.408,2.393,9.902c3.198,2.456,7.035,3.433,10.898,3.785
			c3.977,0.361,8.379,0.355,11.548-2.58c2.978-2.754,5.094-7.856,5.162-12.052c0.085-4.971-5.455-4.143-6.489-0.169
			c-0.354,1.36-0.073,3.246-0.511,4.939c-0.224,0.862-0.606,1.779-1.047,2.538c-0.208,0.342-0.438,0.67-0.683,0.981
			c-0.279,0.378,0.91-0.352-0.219,0.069c-3.387,1.271-8.168,0.652-11.579-0.282c-4.17-1.143-7.057-2.878-8.046-7.625
			C269.159,445.66,268.049,446.614,267.918,447.05L267.918,447.05z"/>
		<path fill="#010101" d="M244.037,437.886c-4.057,0.077-8.019,3.373-10.984,6.019c-3.639,3.248-6.777,7.313-9.026,11.77
			c-0.439,0.87-0.559,2.375,0.185,3.126c3.536,3.567,9.159,4.154,12.001,8.514c0.901,1.38,2.81,0.382,3.721-0.322
			c3.63-2.801,1.267-6.627-1.599-8.494c-2.694-1.755-6.332-2.535-8.691-4.792c0.061,1.041,0.123,2.081,0.184,3.125
			c1.611-3.469,3.6-6.587,6.186-9.318c2.594-2.74,5.789-4.546,8.545-7.03C245.485,439.65,245.539,437.859,244.037,437.886z"/>
		<path fill="#010101" d="M326.103,428.424c-3.749,3.736,5.187,11.311,7.384,13.289c4.725,4.254,11.17,8.297,14.246,14.203
			c1.319-1.828,2.637-3.655,3.954-5.481c-4.091,0.18-7.994,1.699-11.669,3.526c-3.599,1.792-8.809,4.273-10.716,8.119
			c-0.948,1.912,0.21,3.636,2.096,3.661c1.854,0.025,3.178-1.113,4.689-2.115c1.484-0.989,2.999-1.922,4.541-2.806
			c3.064-1.755,6.225-2.831,9.652-3.383c2.272-0.367,5.615-3.6,3.56-6.181c-4.249-5.34-10.024-9.156-15.368-13.108
			c-2.646-1.955-5.279-3.974-7.608-6.356C329.916,430.821,327.756,426.78,326.103,428.424L326.103,428.424z"/>
		<path fill="#010101" d="M258.618,520.052c-5.92,9.836-4.532,22.464-2.235,33.268c1.228-1.399,2.457-2.799,3.686-4.199
			c-3.269-0.554-6.915-0.313-9.714,1.761c-2.543,1.882-3.907,5.111-2.222,8.143c3.37,6.059,10.971,6.233,16.535,4.122
			c2.708-1.028,5.462-2.981,6.795-5.789c1.375-2.892,0.915-6.193,0.353-9.247c-1.539-8.353-3.782-17.627-0.585-25.912
			c1.627-4.213-3.768-4.193-5.177-1.031c-0.55,1.235-0.739,2.356-0.254,3.655c0.729,1.942,3.29,0.934,4.112-0.357
			c0.482-0.757,0.948-1.435,1.319-2.267c-1.725-0.343-3.451-0.688-5.177-1.031c-2.25,5.902-2.26,12.592-1.817,18.875
			c0.367,5.182,2.654,10.065,2.554,15.308c-0.063,3.281-6.586,3.536-8.568,3.306c-2.256-0.261-3.854-1.442-5.24-3.332
			c-0.027-0.564-0.131-0.731-0.314-0.5c-0.231,0.689,0.165,0.044,0.696-0.158c1.373-0.523,2.935-0.42,4.349-0.204
			c1.811,0.282,4.652-2.011,3.686-4.198c-4.177-9.453-3.9-20.02-0.901-29.83C260.893,519.136,259.079,519.287,258.618,520.052
			L258.618,520.052z"/>
		<path fill="#010101" d="M308.747,523.512c-1.044,5.124-0.796,10.76-0.574,15.974c0.226,5.34,0.47,10.828,1.126,16.118
			c1.078-1.225,2.156-2.448,3.235-3.672c-3.409,0.111-6.809,1.563-8.621,4.793c-1.642,2.93-0.675,6.184,1.808,8.143
			c5.204,4.11,13.518,1.356,18.49-2.003c1.352-0.915,2.166-2.3,1.818-4.016c-1.596-7.9-3.638-15.385-3.571-23.534
			c0.019-2.37,0.039-4.741,0.056-7.111c0.015-1.527,0.281-3.377-0.21-4.846c-1.141-3.414-6.5,0.271-5.476,3.336
			c0.065,0.197,0.13,0.394,0.195,0.591c1.018,3.043,4.645,0.04,5.151-1.774c0.067-0.241,0.137-0.485,0.204-0.728
			c0.433-1.562-0.816-2.827-2.221-2.706c-1.669,0.146-2.948,1.553-3.403,3.192c-0.418,1.5-0.152,3.415-0.142,4.956
			c0.023,2.494,0.043,4.988,0.063,7.482c0.067,8.426,2.312,16.242,4.008,24.401c0.606-1.339,1.214-2.678,1.819-4.017
			c-2.775,1.895-6.396,3.248-9.724,3.064c-1.635-0.09-3.399-0.904-4.148-2.559c-0.495-1.087,2.23-1.126,2.798-1.155
			c1.472-0.071,3.555-1.917,3.234-3.672c-0.956-5.244-1.871-10.368-2.323-15.708c-0.425-5.016-0.34-10.382-1.489-15.273
			C310.557,521.538,308.9,522.773,308.747,523.512L308.747,523.512z"/>
		<path fill="#010101" d="M227.383,461.344c-1.385,1.128-1.857,3.534-2.556,5.178c-1.014,2.381-2.129,4.716-3.265,7.033
			c-1.207,2.465-2.493,4.882-3.735,7.327c-1.074,2.116-1.883,4.692-3.167,6.655c1.444,0.537,2.889,1.074,4.334,1.609
			c0.395-1.104,1.706-5.522-0.932-5.081c-2.493,0.418-4.448,2.755-4.058,5.515c0.534,3.79,5.128,0.918,5.264-1.803
			c0.106-2.13,1.869-4.957,2.704-6.862c1.091-2.488,2.24-4.943,3.381-7.405c1.063-2.294,2.078-4.604,2.89-7.014
			c0.445-1.32,1.656-4.096,0.497-5.27C228.323,460.806,227.783,461.017,227.383,461.344z"/>
		<path fill="#010101" d="M213.11,493.907c-2.569-1.171-5.641,0.123-8.07,1.289c-1.419,0.682-3.041,1.879-3.356,3.609
			c-0.332,1.802,0.911,2.738,2.439,2.741c1.498,0.003,2.846-2.053,1.982-3.443c0.426,0.685-1.313,2.589-0.59,2.025
			c0.227-0.217,0.43-0.456,0.606-0.72c-0.303,0.333-0.332,0.376-0.088,0.137c0.237-0.196,0.233-0.202-0.011-0.013
			c0.149-0.108,0.302-0.214,0.458-0.313c0.426-0.285,0.875-0.528,1.324-0.77c0.784-0.419,1.589-0.799,2.395-1.164
			c0.354-0.162,0.719-0.298,1.08-0.446c0.233-0.084,0.451-0.201,0.652-0.35c1.255-0.835-0.272,0.033,0.432-0.259
			C212.989,495.97,214.257,494.43,213.11,493.907z"/>
		<path fill="#010101" d="M215.148,496.814c-2.459,1.288-4.712,3.028-6.188,5.542c-1.241,2.116-2.183,6.348,1.078,6.944
			c1.346,0.245,2.649-1.104,2.667-2.502c0.018-1.575-0.653-2.424,0.23-3.895c0.904-1.507,2.109-2.874,3.34-4.078
			C217.42,497.707,216.648,496.026,215.148,496.814z"/>
		<path fill="#010101" d="M218.873,500.253c-1.28,1.809-1.8,4.444-2.211,6.633c-0.329,1.754-0.559,5.025,1.164,6.019
			c1.355,0.782,3.119-0.681,3.392-2.105c0.289-1.511-0.254-3.28-0.227-4.847c0.03-1.795,0.432-3.82,0.246-5.576
			C221.084,498.943,219.444,499.447,218.873,500.253z"/>
		<path fill="#010101" d="M222.627,498.35c0.831,1.036,1.41,1.933,1.862,3.218c0.526,1.496,0.407,3.121,1.075,4.564
			c0.973,2.102,3.421,0.202,3.85-1.326c1.083-3.853-1.643-8.548-5.479-8.729C223.035,496.031,221.945,497.5,222.627,498.35
			L222.627,498.35z"/>
		<path fill="#010101" d="M232.1,469.115c-4.171,7.229-9.077,14.368-10.332,22.969c-0.539,3.686,4.49,2.411,4.903-0.424
			c0.127-0.863,0.027-1.587-0.139-2.433c-0.545-2.771-4.392-0.05-4.687,1.614c-0.108,0.604-0.226,1.271-0.129,1.888
			c0.545,3.418,5.444,1.038,5.007-1.716c-0.551-3.462,1.414-7.698,2.68-10.771c1.445-3.51,3.083-6.927,4.426-10.485
			C234.334,468.418,232.687,468.096,232.1,469.115L232.1,469.115z"/>
		<path fill="#010101" d="M339.57,464.712c2.792,5.42,6.191,10.351,9.316,15.548c0.935,1.553,1.813,3.139,2.638,4.761
			c0.857,1.687,0.556,3.642,0.506,5.483c-0.092,3.387-0.111,6.779-0.154,10.169c-0.048,3.696,5.485,1.52,5.744-1.24
			c0.188-2.041,1.021-4.402-1.059-5.561c-0.742-0.416-1.684-0.059-2.269,0.505c-1.724,1.663-2.251,3.887-2.418,6.296
			c1.934-0.662,3.869-1.324,5.802-1.987c-0.057-4.413-0.119-8.825-0.241-13.234c-0.016-0.631-0.354-1.296-0.896-1.578
			c-1.49-0.778-2.594-3.427-3.536-4.816c-1.298-1.911-2.684-3.753-4.079-5.583c-2.587-3.399-5.356-6.514-8.265-9.594
			C340.24,463.435,339.28,464.151,339.57,464.712L339.57,464.712z"/>
		<path fill="#010101" d="M360.05,492.258c-0.673,3.278,0.405,6.225,1.987,9.009c1.271,2.232,3.447,5.3,5.961,5.922
			c1.792,0.446,4.77-2.563,3.109-4.357c-1.533-1.653-3.394-2.786-4.854-4.598c-1.616-2.003-2.955-4.314-3.777-6.811
			C362.018,490.037,360.238,491.345,360.05,492.258z"/>
		<path fill="#010101" d="M366.085,492.073c1.521,2.013,3.034,3.996,4.475,6.08c1.362,1.967,2.947,5.348,5.528,5.052
			c0.917-0.104,1.919-0.916,2.066-1.938c0.232-1.613-0.178-2.117-1.218-3.25c-0.963-1.048-1.95-2.068-2.92-3.107
			c-1.755-1.884-3.714-3.854-5.867-5.203C367.014,489.001,365.21,490.915,366.085,492.073z"/>
		<path fill="#010101" d="M367.591,487.555c1.044,1.001,2.208,1.822,3.213,2.884c1.101,1.162,2.07,3.145,3.509,3.792
			c1.521,0.688,3.473-0.847,3.395-2.608c-0.091-2.083-1.865-3.446-3.283-4.634c-1.305-1.092-3.231-1.991-4.883-2.167
			C368.527,484.715,366.398,486.41,367.591,487.555z"/>
		<path fill="#010101" d="M341.821,458.041c0.915,2.302,2.53,4.128,4.063,5.976c2.32,2.794,4.778,5.448,7.175,8.168
			c2.287,2.597,4.546,5.239,6.584,8.065c0.698,0.97,1.357,1.968,1.857,3.07c0.139,0.306,0.03,0.905,0.199,1.269
			c0.113,0.248,0.772,1.479,0.528,0.857c0.766,1.938,3.256,0.937,4.112-0.356c1.787-2.708,0.561-4.686-1.055-7.018
			c-1.938-2.803-4.428-5.199-6.811-7.559c-4.811-4.757-9.781-9.342-14.705-13.959C342.969,455.806,341.396,456.966,341.821,458.041
			L341.821,458.041z"/>
		<path fill="#010101" d="M272.896,277.34c-4.753-0.121-9.99,5.705-12.308,9.609c-2.737,4.611-5.404,11.772-2.882,17.058
			c1.588,3.326,6.076,0.613,6.549-2.256c0.671-4.053,0.59-7.979,2.257-11.791c0.766-1.752,1.867-3.348,3.031-4.813
			c1.361-1.711,3.222-2.815,4.577-4.522C275.233,279.228,274.615,277.385,272.896,277.34z"/>
		<path fill="#010101" d="M281.002,282.888c-5.234,1.429-8.757,5.5-10.876,10.734c-1.601,3.955-4.145,11.997-0.811,15.619
			c1.73,1.878,4.329-0.036,5.255-1.843c1.739-3.393,1.427-7.714,2.223-11.433c0.685-3.198,2.288-7.433,4.925-9.373
			C283.348,285.394,283.719,282.144,281.002,282.888L281.002,282.888z"/>
		<path fill="#010101" d="M285.463,290.806c-1.514,4.438-3.641,9.77-3.28,14.558c0.368,4.933,7.092,1.937,7.53-1.627
			c0.519-4.206-0.227-8.447,0.228-12.707C290.284,287.822,286.257,288.478,285.463,290.806z"/>
	</g>
	<g id="boy_1_">
		<path fill="#010101" d="M98.635,272.791c18.241-3.286,35.272,11.008,45.016,26.335c10.987,17.288,16.416,38.344,18.716,58.979
			c2.321,20.806,2.123,42.988-8.304,61.372c-11.49,20.255-33.701,27.537-54.615,26.104c-13.069-0.896-26.254-4.9-37.581-12.071
			c-5.79-3.665-11.25-8.476-15.107-14.456c-3.828-5.934-5.834-12.947-6.64-20.076c-0.804-7.127-0.542-14.318-0.277-21.471
			c0.277-7.513,0.761-14.94,1.768-22.386c2.011-14.874,5.058-30.328,10.201-44.335c3.428-9.338,9.073-18.115,15.123-25.667
			c5.699-7.112,13.62-15.428,22.997-14.528c3.61,0.346,8.107,7.61,2.814,8.902c-3.251,0.794-7.558,3.555-10.476,6.165
			c-4.251,3.802-7.913,8.373-11.247,13.106c-3.073,4.36-5.823,8.991-8.122,13.88c-2.553,5.425-4.126,11.355-5.701,17.176
			c-4.037,14.924-6.794,30.407-7.487,45.956c-0.558,12.512-2.455,27.978,4.268,39.053c6.636,10.932,20.211,16.236,31.406,19.123
			c10.888,2.807,22.605,3.021,33.478,0.068c9.305-2.529,17.685-8.093,23.9-15.996c6.733-8.562,10.222-19.566,11.469-30.604
			c2.145-18.979-0.366-39.173-5.276-57.424c-4.806-17.867-12.714-36.604-27.864-46.788c-6.502-4.369-13.917-5.861-21.378-7.003
			C98.427,276.009,96.527,273.172,98.635,272.791L98.635,272.791z"/>
		<path fill="#010101" d="M139.399,373.377c-1.053,0.02-2.095-0.327-3.123-0.561c-1.113-0.255-1.37-0.337-2.597-0.456
			c-1.995-0.195-4.038-2.246-3.926-4.516c0.125-2.54,2.659-2.511,4.247-1.679c0.888,0.466,1.756,0.973,2.639,1.451
			c0.561,0.304,1.12,0.612,1.682,0.918c0.244,0.134,0.489,0.267,0.733,0.402c-0.429-0.238,1.297,1.001,0.555,0.431
			C141.003,370.441,141.965,373.328,139.399,373.377L139.399,373.377z"/>
		<path fill="#010101" d="M133.678,372.157c-0.43,6.397-6.117,9.891-11.137,11.759c-6.366,2.368-13.505,2.334-20.132,1.729
			c-7.19-0.655-14.359-2.345-21.198-4.811c-5.604-2.022-11.441-4.677-15.996-8.846c-1.332-1.218-1.921-2.936-1.532-4.755
			c0.312-1.461,0.287-2.742,0.965-4.119c2.088,1.984,4.177,3.97,6.265,5.951c-1.479,0.912-2.877,2.641-4.702,2.479
			c-0.585-0.052-0.775-0.186-1.213-0.297c-0.578-0.206-1.095-0.527-1.553-0.966c1.008,0.78,1.008,0.78,0,0
			c-1.246-1.283-2.093-2.971-1.606-4.876c0.482-1.877,2.454-2.892,3.935-3.685c3.513-1.879,7.843,3.185,5.819,6.757
			c-0.492,0.867-0.465,2.218-0.73,3.183c-0.509-1.586-1.02-3.17-1.532-4.756c1.543,1.554,2.339,2.118,4.666,3.507
			c2.267,1.353,4.64,2.448,7.057,3.44c6.093,2.503,12.479,4.23,18.931,5.208c6.217,0.942,12.597,1.146,18.768-0.242
			c5.265-1.186,8.94-4.239,12.84-7.958C132.388,370.108,133.749,371.092,133.678,372.157z"/>
		<path fill="#010101" d="M156.271,341.926c0.049-2.109,0.107-3.366,1.173-5.234c0.904-1.587,2.592-2.287,4.148-2.856
			c3.656-1.335,7.963-0.228,11.328,1.475c6.301,3.188,9.809,10.357,9.177,17.737c-0.559,6.544-4.097,12.817-9.063,16.532
			c-5.472,4.092-11.764,2.175-15.98-2.874c-1.367-1.636-0.744-4.726,1.625-4.418c1.902,0.248,4.519,1.52,4.977,3.833
			c0.465,2.354-2.321,2.554-3.746,2.382c0.542-1.473,1.083-2.945,1.625-4.419c2.084,2.463,5.25,1.585,7.914-0.35
			c3.532-2.563,5.758-7.093,6.775-11.445c0.997-4.267-0.006-8.988-3.467-11.563c-3.655-2.722-13.339-4.668-14.76,2.027
			C157.772,343.825,156.253,342.712,156.271,341.926L156.271,341.926z"/>
		<path fill="#010101" d="M47.318,340.059c-2.167-6.174-9.757-9.071-15.177-6.768c-5.31,2.258-10.004,8.02-10.163,14.324
			c-0.125,4.904,3.017,9.441,6.583,12.122c2.205,1.66,4.65,2.727,7.25,3.416c2.908,0.771,6.656-0.429,9.194,1.315
			c0.936,0.645,2.18,2.176,1.569,3.508c-1.563,3.421-7.69,1.826-10.471,1.211c-3.789-0.839-7.423-2.803-10.502-5.3
			c-5.523-4.475-9.704-11.572-9.069-19.269c0.666-8.085,7.945-15.75,15.22-16.99c3.877-0.661,8.059,0.633,11.256,3.008
			c3.243,2.411,4.829,5.347,5.77,9.348C49.024,341.035,47.575,340.789,47.318,340.059L47.318,340.059z"/>
		<path fill="#010101" d="M38.071,346.245c-0.859-0.059-1.912-1.012-2.591-0.637c-0.465,0.256-0.813,1.351-0.923,2.145
			c-0.147,1.075,0.002,2.567,0.236,3.261c0.096,0.287,0.224,0.559,0.35,0.83c-0.295-0.63,0.65,0.762,0.019,0.064
			c0.445,0.491-0.164-0.064-0.328-0.141c0.494,0.229,1.004,0.363,1.476,0.674c2.05,1.352,3.091,5.423-0.281,5.442
			c-2.552,0.016-4.881-3.003-5.729-5.357c-0.814-2.259-0.873-4.634-0.322-6.968c0.448-1.897,1.679-3.521,3.501-3.919
			c2.008-0.439,5.021,1.324,5.423,3.581C39.008,345.823,38.636,346.282,38.071,346.245L38.071,346.245z"/>
		<path fill="#010101" d="M166.195,344.929c3.011-0.689,5.95,2.744,7.094,5.37c1.584,3.636,0.334,7.354-2.471,9.693
			c-2.44,2.036-6.824-3.853-3.784-5.406c1.406-0.721,2.49-1.821,2.269-3.639c-0.244-2.015-1.899-2.713-3.24-3.769
			C165.37,346.632,165.152,345.167,166.195,344.929z"/>
		<path fill="#010101" d="M116.573,331.943c1.443,3.256,1.873,7.341,2.133,10.905c0.287,3.944,0.118,8.003-1.637,11.563
			c-1.723,3.498-6.149,1.276-7.338-1.618c-1.856-4.522-2.79-9.432-2.702-14.383c0.041-2.301,0.514-4.716,1.459-6.778
			c0.476-1.041,1.104-1.995,1.848-2.828c0.378-0.368,0.773-0.718,1.18-1.048c0.077-0.045,3.058-0.869,1.426-0.416
			c2.666-0.74,5.718,2.155,6.208,4.845c0.668,3.657,1.022,8.631-0.114,12.184c-0.62,1.941-2.785,2.268-4.361,1.722
			c-2.025-0.701-3.463-2.485-4.043-4.653c-0.987-3.684-0.646-8.465,0.111-12.185c1.31,2.28,2.623,4.561,3.933,6.841
			c0.188,0.057,0.374,0.114,0.563,0.171c0.903-0.348,1.805-0.693,2.708-1.043c-4.448,4.003-2.314,12.151-0.773,17.197
			c-2.404-1.166-4.809-2.334-7.213-3.5c3.465-5.352,0.292-12.275,2.034-17.984C112.76,328.418,115.925,330.482,116.573,331.943
			L116.573,331.943z"/>
		<path fill="#010101" d="M95.549,330.592c3.211,2.612,4.088,7.999,4.582,12.035c0.575,4.725,0.583,9.74-1.031,14.236
			c-1.53,4.256-6.487,0.746-7.762-1.712c-4.008-7.724-6.153-19.374-1.199-27.032c2.154-3.327,6.964,0.4,8.039,2.854
			c0.763,1.739,1.5,3.688,1.174,5.634c-0.899,5.352-6.512,2.412-8.181-0.719c-0.547-1.026-0.859-2.152-1.296-3.24
			c2.678,0.951,5.357,1.902,8.036,2.854c-2.042,1.865-1.819,5.665-1.54,8.271c0.369,3.41,1.284,6.701,2.483,9.863
			c-2.426-0.861-4.851-1.723-7.278-2.586c1.639-2.685,1.748-6.801,1.831-9.892c0.09-3.327-0.894-6.704-0.657-9.975
			C92.877,329.458,94.675,329.879,95.549,330.592L95.549,330.592z"/>
		<path fill="#010101" d="M136.453,435.785c8.405,17.064,5.217,37.754,4.285,56.221c-0.11,2.181-1.729,3.063-3.532,3.084
			c-14.165,0.167-27.904,4.571-42.085,4.523c-7.148-0.026-14.283-0.817-21.378-1.686c-3.551-0.434-7.1-0.9-10.652-1.324
			c-3.672-0.438-7.42-0.563-11.032-1.412c-1.726-0.406-3.34-2.192-4.065-3.859c-0.691-1.593-0.858-4.66,1.117-5.419
			c1.56-0.597,2.413-0.665,4.043-0.37c2.263,0.412,4.408,2.353,4.363,5.017c-0.025,1.474-0.406,2.523-1.197,3.727
			c-2.059-2.92-4.117-5.84-6.176-8.759c3.625-0.29,7.309,0.371,10.912,0.806c3.554,0.428,7.104,0.902,10.656,1.35
			c7.107,0.895,14.229,1.626,21.388,1.729c14.171,0.203,28.071-4.669,42.272-3.575c-1.108,0.671-2.218,1.339-3.325,2.008
			c4.568-16.554,5.488-35.033,1.824-51.927C133.444,433.943,135.906,434.674,136.453,435.785L136.453,435.785z"/>
		<path fill="#010101" d="M59.04,429.373c0.367,4.058-0.504,8.396-1.052,12.415c-0.898,6.6-1.716,13.212-2.455,19.834
			c-0.722,6.479-1.359,12.987-1.623,19.51c-0.091,2.309-0.127,4.629,0.018,6.936c-0.078-1.232,0.227,1.002,0.346,1.474
			c0.14,0.496,0.068,0.279-0.213-0.652c0.176,0.521,0.364,1.04,0.497,1.577c0.13,0.528,0.197,1.172,0.159,1.683
			c-0.249,3.393-3.606,3.567-5.831,2.303c-4.806-2.732-3.987-9.674-3.594-14.546c0.518-6.427,1.562-12.814,2.632-19.156
			c1.157-6.833,2.476-13.633,3.849-20.419c0.792-3.911,1.575-9.354,3.209-12.374C56.006,426.064,58.864,427.398,59.04,429.373
			L59.04,429.373z"/>
		<path fill="#010101" d="M133.686,491.862c3.78,7.813,2.721,17.847,3.188,26.368c0.078,1.436-1.388,2.458-2.588,2.259
			c-11.948-1.985-23.816,1.822-35.792,0.85c-2.069-0.17-4.48-2.467-4.244-4.882c0.248-2.544,0.052-5.377-1.667-7.345
			c1.458,0.329,2.913,0.656,4.367,0.982c-3.891,2.691-8.814,5.768-10.079,10.931c-0.443,1.81-2.441,1.756-3.731,1.474
			c-10.098-2.208-20.414,2.614-30.499-0.516c-1.517-0.471-3.371-2.239-3.521-4.053c-0.608-7.323-2.538-30.572,9.22-27.821
			c2.297,0.535,4.573,4.671,2.028,6.379c-0.547,0.366-1.647,1.511-2.204,2.744c-0.849,1.884-1.181,3.995-1.429,6.053
			c-0.503,4.214-0.478,9.813-0.2,13.298c-1.174-1.349-2.348-2.7-3.521-4.052c4.568,1.439,9.558,0.692,14.217,0.26
			c5.484-0.507,10.854-0.824,16.275,0.385c-1.243,0.49-2.488,0.981-3.732,1.473c1.582-6.342,7.554-10.178,12.391-13.39
			c1.805-1.198,3.934,0.459,5.1,1.835c3.187,3.755,4.574,8.768,4.021,13.807c-1.416-1.627-2.829-3.255-4.245-4.882
			c11.999,1.111,23.918-2.51,35.899-0.308c-0.861,0.753-1.724,1.506-2.587,2.259c0.543-8.184,1.352-15.785-0.18-23.929
			C129.672,489.347,132.94,490.32,133.686,491.862L133.686,491.862z"/>
		<path fill="#010101" d="M112.93,444.204c1.138,3.832,0.842,7.407-2.363,9.901c-3.16,2.457-6.948,3.434-10.764,3.785
			c-3.927,0.361-8.273,0.355-11.404-2.579c-2.941-2.755-5.029-7.857-5.099-12.053c-0.083-4.97,5.388-4.143,6.41-0.169
			c0.349,1.36,0.071,3.246,0.503,4.939c0.221,0.863,0.6,1.779,1.034,2.538c0.206,0.342,0.433,0.67,0.674,0.982
			c0.276,0.377-0.898-0.353,0.215,0.069c3.345,1.271,8.069,0.651,11.437-0.283c4.119-1.142,6.97-2.877,7.946-7.625
			C111.703,442.815,112.8,443.768,112.93,444.204L112.93,444.204z"/>
		<path fill="#010101" d="M136.513,435.039c4.007,0.077,7.92,3.373,10.849,6.02c3.594,3.247,6.692,7.312,8.914,11.769
			c0.434,0.87,0.552,2.376-0.183,3.126c-3.492,3.567-9.046,4.155-11.853,8.515c-0.89,1.379-2.774,0.382-3.675-0.323
			c-3.585-2.801-1.25-6.626,1.579-8.494c2.661-1.755,6.253-2.535,8.584-4.792c-0.06,1.041-0.122,2.082-0.183,3.125
			c-1.59-3.469-3.554-6.587-6.108-9.318c-2.562-2.739-5.717-4.546-8.438-7.029C135.084,436.804,135.031,435.013,136.513,435.039z"/>
		<path fill="#010101" d="M55.467,425.577c3.703,3.737-5.121,11.311-7.292,13.29c-4.666,4.254-11.03,8.296-14.069,14.203
			c-1.302-1.828-2.604-3.655-3.904-5.481c4.04,0.18,7.894,1.699,11.523,3.526c3.554,1.792,8.7,4.273,10.583,8.118
			c0.938,1.912-0.207,3.636-2.07,3.662c-1.83,0.024-3.138-1.114-4.629-2.116c-1.467-0.989-2.962-1.921-4.487-2.805
			c-3.026-1.755-6.146-2.832-9.532-3.383c-2.244-0.367-5.545-3.6-3.515-6.182c4.198-5.34,9.9-9.156,15.177-13.107
			c2.613-1.956,5.214-3.975,7.514-6.357C51.702,427.974,53.835,423.933,55.467,425.577L55.467,425.577z"/>
		<path fill="#010101" d="M122.114,517.206c5.847,9.835,4.475,22.463,2.208,33.268c-1.213-1.4-2.428-2.8-3.641-4.199
			c3.228-0.555,6.829-0.314,9.593,1.76c2.511,1.882,3.859,5.111,2.195,8.143c-3.328,6.059-10.835,6.234-16.331,4.122
			c-2.674-1.028-5.395-2.981-6.711-5.789c-1.357-2.892-0.904-6.193-0.348-9.246c1.519-8.354,3.735-17.628,0.578-25.913
			c-1.606-4.213,3.722-4.192,5.113-1.031c0.543,1.236,0.73,2.357,0.25,3.655c-0.719,1.943-3.249,0.934-4.061-0.356
			c-0.476-0.758-0.936-1.436-1.303-2.268c1.704-0.343,3.408-0.688,5.113-1.031c2.221,5.903,2.232,12.592,1.794,18.876
			c-0.362,5.181-2.622,10.064-2.522,15.307c0.063,3.281,6.504,3.536,8.462,3.307c2.228-0.262,3.806-1.443,5.173-3.333
			c0.027-0.564,0.129-0.731,0.312-0.499c0.228,0.688-0.164,0.043-0.688-0.159c-1.355-0.523-2.897-0.419-4.294-0.203
			c-1.788,0.281-4.595-2.011-3.64-4.198c4.125-9.454,3.851-20.021,0.89-29.83C119.868,516.289,121.659,516.441,122.114,517.206
			L122.114,517.206z"/>
		<path fill="#010101" d="M72.606,520.665c1.033,5.124,0.787,10.761,0.569,15.974c-0.223,5.34-0.466,10.829-1.113,16.118
			c-1.064-1.225-2.13-2.447-3.195-3.672c3.367,0.111,6.723,1.563,8.512,4.793c1.625,2.93,0.668,6.185-1.783,8.143
			c-5.14,4.11-13.35,1.356-18.261-2.003c-1.335-0.914-2.14-2.3-1.796-4.016c1.577-7.899,3.592-15.385,3.527-23.534
			c-0.019-2.37-0.039-4.741-0.056-7.111c-0.014-1.527-0.276-3.376,0.209-4.845c1.126-3.414,6.418,0.271,5.408,3.335
			c-0.065,0.198-0.129,0.395-0.195,0.592c-1.005,3.043-4.586,0.04-5.086-1.774c-0.067-0.242-0.134-0.485-0.201-0.729
			c-0.428-1.562,0.806-2.827,2.193-2.705c1.647,0.146,2.911,1.553,3.361,3.191c0.412,1.5,0.149,3.415,0.138,4.956
			c-0.021,2.494-0.041,4.988-0.06,7.483c-0.068,8.425-2.284,16.242-3.96,24.4c-0.599-1.339-1.197-2.678-1.796-4.016
			c2.742,1.894,6.317,3.247,9.602,3.063c1.616-0.09,3.357-0.904,4.099-2.559c0.488-1.087-2.203-1.126-2.763-1.154
			c-1.454-0.071-3.511-1.917-3.195-3.672c0.945-5.244,1.849-10.368,2.295-15.709c0.419-5.016,0.335-10.381,1.47-15.273
			C70.82,518.692,72.458,519.926,72.606,520.665L72.606,520.665z"/>
		<path fill="#010101" d="M152.962,458.498c1.368,1.127,1.833,3.533,2.525,5.177c1.001,2.382,2.102,4.717,3.224,7.034
			c1.191,2.464,2.462,4.882,3.688,7.327c1.061,2.116,1.86,4.691,3.128,6.655c-1.427,0.536-2.854,1.073-4.28,1.609
			c-0.391-1.104-1.686-5.523,0.919-5.081c2.462,0.418,4.394,2.754,4.009,5.515c-0.527,3.789-5.065,0.917-5.2-1.803
			c-0.105-2.131-1.846-4.957-2.67-6.862c-1.077-2.489-2.212-4.944-3.339-7.406c-1.049-2.294-2.052-4.603-2.853-7.013
			c-0.44-1.32-1.636-4.097-0.491-5.271C152.032,457.959,152.566,458.171,152.962,458.498z"/>
		<path fill="#010101" d="M167.057,491.062c2.538-1.172,5.571,0.122,7.971,1.288c1.4,0.683,3.002,1.88,3.314,3.609
			c0.327,1.802-0.9,2.739-2.41,2.741c-1.479,0.003-2.811-2.053-1.958-3.442c-0.42,0.684,1.297,2.589,0.583,2.025
			c-0.224-0.217-0.423-0.457-0.598-0.72c0.299,0.332,0.328,0.376,0.087,0.136c-0.234-0.196-0.23-0.202,0.011-0.012
			c-0.148-0.108-0.299-0.215-0.452-0.314c-0.421-0.284-0.865-0.528-1.308-0.769c-0.774-0.419-1.569-0.799-2.365-1.165
			c-0.35-0.162-0.711-0.298-1.066-0.445c-0.23-0.085-0.445-0.201-0.645-0.351c-1.239-0.835,0.269,0.033-0.426-0.259
			C167.177,493.124,165.924,491.584,167.057,491.062z"/>
		<path fill="#010101" d="M165.045,493.967c2.428,1.288,4.654,3.029,6.111,5.543c1.225,2.116,2.156,6.347-1.065,6.943
			c-1.328,0.245-2.617-1.104-2.633-2.502c-0.019-1.575,0.645-2.424-0.228-3.895c-0.893-1.506-2.083-2.874-3.299-4.078
			C162.801,494.862,163.564,493.18,165.045,493.967z"/>
		<path fill="#010101" d="M161.366,497.406c1.264,1.809,1.778,4.444,2.184,6.633c0.325,1.754,0.552,5.025-1.15,6.02
			c-1.338,0.781-3.081-0.682-3.35-2.106c-0.286-1.511,0.251-3.28,0.224-4.847c-0.03-1.795-0.426-3.82-0.243-5.576
			C159.182,496.096,160.802,496.6,161.366,497.406z"/>
		<path fill="#010101" d="M157.658,495.503c-0.82,1.036-1.393,1.933-1.839,3.218c-0.52,1.497-0.401,3.122-1.061,4.564
			c-0.961,2.103-3.378,0.203-3.802-1.326c-1.068-3.853,1.623-8.547,5.411-8.729C157.257,493.185,158.332,494.654,157.658,495.503
			L157.658,495.503z"/>
		<path fill="#010101" d="M148.303,466.268c4.119,7.23,8.963,14.368,10.203,22.969c0.532,3.687-4.435,2.411-4.842-0.424
			c-0.125-0.862-0.028-1.586,0.137-2.433c0.539-2.77,4.337-0.05,4.629,1.614c0.106,0.604,0.224,1.271,0.127,1.888
			c-0.537,3.418-5.376,1.038-4.944-1.715c0.544-3.463-1.397-7.699-2.646-10.772c-1.428-3.51-3.044-6.927-4.371-10.484
			C146.097,465.573,147.724,465.249,148.303,466.268L148.303,466.268z"/>
		<path fill="#010101" d="M42.169,461.865c-2.758,5.42-6.115,10.351-9.202,15.548c-0.923,1.553-1.791,3.14-2.604,4.761
			c-0.847,1.688-0.55,3.643-0.5,5.483c0.09,3.388,0.111,6.779,0.152,10.17c0.047,3.695-5.417,1.52-5.671-1.241
			c-0.188-2.041-1.01-4.401,1.043-5.56c0.734-0.416,1.663-0.06,2.241,0.505c1.702,1.663,2.224,3.886,2.388,6.296
			c-1.91-0.663-3.82-1.325-5.729-1.987c0.054-4.414,0.118-8.826,0.237-13.235c0.017-0.631,0.35-1.295,0.886-1.578
			c1.471-0.778,2.562-3.426,3.493-4.815c1.281-1.912,2.649-3.754,4.028-5.584c2.554-3.399,5.29-6.514,8.163-9.594
			C41.506,460.588,42.454,461.305,42.169,461.865L42.169,461.865z"/>
		<path fill="#010101" d="M21.942,489.412c0.665,3.278-0.4,6.225-1.964,9.008c-1.254,2.232-3.403,5.3-5.886,5.923
			c-1.77,0.445-4.709-2.563-3.071-4.358c1.514-1.653,3.351-2.786,4.795-4.597c1.595-2.004,2.917-4.315,3.729-6.812
			C19.999,487.192,21.757,488.498,21.942,489.412z"/>
		<path fill="#010101" d="M15.982,489.227c-1.503,2.013-2.996,3.996-4.419,6.08c-1.346,1.967-2.912,5.348-5.459,5.053
			c-0.906-0.104-1.896-0.917-2.042-1.938c-0.23-1.613,0.175-2.117,1.202-3.25c0.95-1.048,1.926-2.067,2.884-3.107
			c1.733-1.884,3.668-3.854,5.795-5.202C15.064,486.155,16.845,488.069,15.982,489.227z"/>
		<path fill="#010101" d="M14.495,484.709c-1.032,1-2.181,1.821-3.175,2.883c-1.086,1.162-2.044,3.146-3.465,3.793
			c-1.501,0.688-3.429-0.847-3.352-2.609c0.091-2.083,1.841-3.446,3.243-4.634c1.29-1.092,3.191-1.991,4.821-2.167
			C13.571,481.868,15.673,483.564,14.495,484.709z"/>
		<path fill="#010101" d="M39.945,455.195c-0.904,2.302-2.499,4.128-4.012,5.976c-2.292,2.794-4.721,5.449-7.086,8.168
			c-2.259,2.598-4.489,5.239-6.501,8.066c-0.691,0.969-1.341,1.968-1.835,3.069c-0.137,0.306-0.03,0.906-0.197,1.27
			c-0.113,0.247-0.763,1.478-0.521,0.856c-0.755,1.938-3.216,0.938-4.061-0.356c-1.767-2.707-0.555-4.686,1.04-7.018
			c1.916-2.803,4.373-5.199,6.727-7.558c4.75-4.757,9.66-9.343,14.521-13.96C38.81,452.96,40.365,454.12,39.945,455.195
			L39.945,455.195z"/>
		<path fill="#010101" d="M108.013,274.494c4.695-0.122,9.866,5.705,12.155,9.609c2.704,4.611,5.336,11.773,2.846,17.058
			c-1.568,3.327-6,0.614-6.468-2.256c-0.664-4.053-0.583-7.979-2.228-11.791c-0.757-1.751-1.844-3.348-2.995-4.813
			c-1.344-1.711-3.182-2.815-4.52-4.521C105.705,276.381,106.317,274.538,108.013,274.494z"/>
		<path fill="#010101" d="M100.009,280.042c5.169,1.429,8.648,5.499,10.741,10.733c1.581,3.955,4.094,11.997,0.801,15.619
			c-1.708,1.878-4.275-0.036-5.191-1.843c-1.718-3.392-1.409-7.714-2.196-11.433c-0.675-3.197-2.258-7.432-4.865-9.373
			C97.693,282.548,97.325,279.298,100.009,280.042L100.009,280.042z"/>
		<path fill="#010101" d="M95.602,287.959c1.496,4.438,3.596,9.77,3.241,14.559c-0.364,4.932-7.004,1.936-7.438-1.628
			c-0.512-4.206,0.224-8.447-0.227-12.707C90.84,284.975,94.818,285.631,95.602,287.959z"/>
	</g>
</g>
</svg>
