<?xml version="1.0" encoding="utf-8"?>
<!-- Generator: Adobe Illustrator 15.1.0, SVG Export Plug-In . SVG Version: 6.00 Build 0)  -->
<!DOCTYPE svg PUBLIC "-//W3C//DTD SVG 1.1//EN" "http://www.w3.org/Graphics/SVG/1.1/DTD/svg11.dtd">
<svg version="1.1" id="Layer_1" xmlns="http://www.w3.org/2000/svg" xmlns:xlink="http://www.w3.org/1999/xlink" x="0px" y="0px"
	 width="566.93px" height="566.93px" viewBox="0 0 566.93 566.93" enable-background="new 0 0 566.93 566.93" xml:space="preserve">
<path fill="#010101" d="M453.142,176.26C453.065,176.374,453.095,176.372,453.142,176.26L453.142,176.26z"/>
<path fill="#010101" d="M455.326,175.808c-0.011-0.033-0.021-0.069-0.035-0.111c-0.133-0.414-0.192-0.847-0.319-1.262
	c-0.321-1.051-0.821-1.829-1.602-2.595c-0.174-0.169-0.651,0.076-0.503,0.312c0.472,0.744,0.421,1.842,0.424,2.7
	c0.002,0.426,0.004,0.851-0.102,1.266c-0.015,0.061-0.031,0.106-0.048,0.143c0.029-0.042,0.07-0.097,0.136-0.169
	c-0.219,0.248-0.305,0.543-0.276,0.869c0.12,1.329,2.262,0.601,2.452-0.376c0.041-0.21,0.06-0.406-0.038-0.605
	C455.373,175.892,455.345,175.84,455.326,175.808z"/>
<path fill="#010101" d="M427.777,171.721c-0.198-0.128-0.626,0.139-0.496,0.381c0.7,1.306,1.438,3.69,0.667,5.109
	c-0.777,1.427,2.132,1.595,2.247,0.146C430.372,175.143,429.732,172.98,427.777,171.721z"/>
<path fill="#010101" d="M464.826,165.796c-0.293-0.332-0.639-0.618-0.991-0.885c-0.382-0.29-0.819-0.397-1.239-0.614
	c-0.433-0.222-1.225,0.333-0.831,0.79c0.164,0.19,0.25,0.449,0.346,0.678c0.116,0.276,0.315,0.536,0.444,0.812
	c0.206,0.436,0.338,0.908,0.388,1.384c0.028,0.267,0.211,0.549,0.471,0.645c0.035,0.014,0.071,0.027,0.105,0.04
	c0.619,0.23,1.193,0.002,1.646-0.443C465.887,167.491,465.401,166.447,464.826,165.796z"/>
<path fill="#010101" d="M400.263,158.172c1.548,1.813,3.392,3.478,5.566,4.498c2.17,1.018,5.219,1.208,7.036-0.554
	c0.612-0.593,0.403-1.804-0.548-1.877c-0.896-0.068-1.704,0.209-2.593,0.234c-0.862,0.025-1.756-0.284-2.542-0.611
	c-2.113-0.88-3.898-2.439-5.511-4.026c-3.019-2.972-5.94-6.525-7.812-10.349c-0.184-0.376-0.909-0.015-0.752,0.369
	C394.92,150.265,397.154,154.529,400.263,158.172z"/>
<path fill="#010101" d="M506.997,87.595c-0.946-2.39-2.509-4.528-4.231-6.415c-3.581-3.924-8.342-6.736-13.219-8.735
	c-2.645-1.084-5.414-1.968-8.24-2.503c-0.383-1.258-1.761-2.487-2.571-3.232c-1.613-1.485-3.527-2.504-5.606-3.164
	c-1.713-0.544-3.57-0.626-5.322-0.235c0.211-0.468,0.409-0.938,0.59-1.416c0.487-1.293,0.868-2.597,0.441-3.958
	c-0.535-1.708-2.886-1.549-4.105-0.917c-0.004,0.002-0.008,0.004-0.011,0.006c-0.002-0.017-0.001-0.033-0.003-0.049
	c-0.036-0.494-0.791-0.254-0.932,0.043c-0.392,0.828-0.782,1.641-1.199,2.434c-3.634-1.581-7.937-2.419-11.71-0.931
	c-2.129-1.126-4.371-2.048-6.661-2.759c-3.15-0.979-6.43-1.541-9.735-1.409c-1.447,0.058-2.954,0.266-4.323,0.749
	c-0.673,0.238-1.305,0.538-1.926,0.887c-0.541,0.304-0.879,0.723-1.306,1.097c-0.963-0.131-1.933-0.225-2.904-0.28
	c-4.441-0.252-8.905,0.1-13.195,1.323c-3.614,1.029-8.513,3.1-9.907,6.938c-0.134,0.371,0.322,0.427,0.616,0.341
	c-3.075,1.544-5.911,3.57-8.536,5.998c-5.003,4.627-9.128,10.229-11.104,16.813c-1.699,5.667-1.219,12.651,2.04,17.74
	c-0.543,0.526-1.066,1.074-1.571,1.639c-5.333,0.779-10.858,2.4-14.545,6.512c-2.183,2.436-3.222,5.677-3.68,8.857
	c-0.254,1.771-0.281,3.58-0.262,5.367c0.019,1.589-0.056,3.303,0.196,4.904c-2.279-0.303-4.539,0.904-5.799,2.815
	c-2.819,4.272-1.445,10.738,1.162,14.771c3.722,5.759,9.769,9.802,15.707,12.991c5.37,2.882,11.224,5.147,17.142,6.604
	c2.916,0.717,6.226,1.318,9.261,0.767c4.167,1.009,8.509,1.233,12.839,0.445c1.347-0.245,2.595-0.737,3.833-1.317
	c0.035-0.016,0.067-0.034,0.1-0.051c0.646,0.22,1.35,0.361,1.949,0.504c0.374,0.089,0.794,0.185,1.236,0.275
	c-1.319,0.405-2.641,0.811-3.96,1.214c-3.066,0.932-6.154,1.792-9.282,2.484c-2.982,0.66-5.979,0.874-8.981,1.315
	c-0.071-0.024-0.158-0.032-0.267-0.016c-1.051,0.156-2.771,0.583-2.882,1.914c-0.104,1.244,1.356,2.018,2.287,2.513
	c3.275,1.742,7.121,2.666,10.708,3.53c1.772,0.427,3.516,0.652,5.334,0.86c4.212,0.486,8.434,0.877,12.663,1.179
	c8.253,0.589,16.475,0.542,24.739,0.454c6.151-0.065,12.274-0.607,17.825-3.462c2.091-1.075,4.165-2.333,5.935-3.885
	c0.708-0.621,1.57-1.436,2.119-2.351c2.292-0.57,4.571-1.22,6.885-1.695c1.615-0.332,3.246-0.591,4.896-0.655
	c1.041-0.041,3.134,0.563,3.377-1.001c0.078-0.508-0.22-0.896-0.721-0.992c-2.665-0.518-5.88,0.414-8.453,1.025
	c-1.774,0.421-3.648,0.902-5.442,1.542c-0.007-0.37-0.096-0.747-0.29-1.124c-0.015-0.027-0.031-0.05-0.046-0.076
	c0.744-1.078,0.581-2.264-0.039-3.408c0.611-0.176,1.217-0.379,1.817-0.549c1.417-0.397,2.845-0.755,4.274-1.093
	c2.852-0.672,5.816-1.369,8.74-1.6c1.55-0.124,1.836-2.332,0.115-1.914c-2.98,0.722-6.034,1.144-9.021,1.86
	c-2.137,0.511-4.704,1.004-6.788,2.036c-0.936-1.14-2.179-2.171-3.216-2.924c1.938-0.839,3.846-1.769,5.796-2.567
	c3.059-1.251,6.148-2.75,9.293-3.752c1.633-0.52,0.892-2.536-0.478-1.688c-2.362,1.463-5.019,2.431-7.678,3.397
	c0.603-0.31,1.026-0.928,0.814-1.654c-0.265-0.903-0.822-1.447-0.697-2.479c0.113-0.934,0.803-1.795,1.643-2.166
	c0.639-0.282,0.461-1.156-0.273-0.962c-1.192,0.315-2.18,0.943-2.921,1.864c-1.472,0.196-2.864,0.56-4.397,0.558
	c-2.107,0-4.204-0.339-6.247-0.84c-1.995-0.49-3.977-1.275-5.725-2.359c-1.101-0.683-1.884-1.579-2.681-2.5
	c0.211-0.264,0.421-0.531,0.622-0.808c0.093-0.128,0.183-0.258,0.276-0.388c1.844,1.892,3.834,3.673,6.29,4.717
	c3.131,1.331,6.618,1.111,9.897,0.589c6.159-0.983,11.659-4.133,13.292-10.491c1.436-5.592-0.274-12.491-5.128-15.91
	c-3.969-2.796-9.582-3.977-13.597-0.917c-1.65-0.607-3.185-1.787-4.911-1.977c-0.385-1.017-0.902-1.966-1.575-2.808
	c1.811-0.423,3.896,0.018,5.438,0.89c0.521,0.294,1.159-0.053,1.532-0.413c5.825-5.658,15.169,1.173,18.703,6.304
	c2.102,3.05,2.535,6.928,2.652,10.546c0.121,3.723-0.364,8.788-3.991,10.803c-0.575,0.321-0.86,0.763-0.923,1.182
	c-1.479,0.284-2.88,0.821-3.985,1.698c-0.348,0.275-0.014,0.677,0.35,0.474c1.229-0.691,2.802-0.942,4.351-0.961
	c0.237,0.082,0.523,0.095,0.846,0.01c0.777,0.031,1.532,0.111,2.217,0.217c1.173,0.18,2.396,0.556,3.313,1.334
	c1.082,0.919,0.845,1.922,0.407,3.085c-0.361,0.959,0.426,1.675,1.406,1.375c3.2-0.985,3.926,3.35,2.354,5.355
	c-0.692,0.88-0.189,1.779,0.887,1.807c4.16,0.109,1.994,5.924,0.868,7.981c-0.925,1.691-2.006,2.71-3.905,3.237
	c-2.667,0.742-6.004,0.029-8.245-1.552c-1.672-1.18-4.563,1.4-2.587,2.458c3.406,1.824,7.299,2.601,11.089,1.638
	c2.867-0.729,4.894-2.553,6.344-5.044c1.224-2.107,2.083-4.692,1.895-7.149c-0.155-2.061-1.427-3.3-3.133-3.806
	c0.672-1.577,0.73-3.346,0.085-5.008c-0.697-1.792-2.365-2.521-4.089-2.488c0.084-2.639-2.606-4.259-5.125-4.688
	c-0.474-0.082-0.975-0.14-1.485-0.176c1.53-1.361,2.503-3.196,3.099-5.187c4.164,0.548,7.711-5.353,9.428-8.35
	c2.504-4.376,4.375-9.23,5.714-14.086c1.777-6.447,2.018-13.207,0.615-19.749c-0.77-3.595-2.002-7.228-3.706-10.601
	C508.697,92.134,507.808,89.64,506.997,87.595z M486.913,75.024c4.498,1.929,8.759,4.615,12.165,8.148
	c0.118,0.125,0.231,0.252,0.348,0.378c-5.382-4.327-12.219-6.851-18.951-7.976c-4.454-0.745-8.856-0.691-13.315-0.002
	c-2.578,0.397-5.123,0.95-7.653,1.585c-1.241,0.31-2.45,0.765-3.676,1.1c0.104-0.065,0.207-0.13,0.311-0.197
	c1.592-1.036,3.049-2.411,4.374-3.899c1.05-0.19,2.093-0.429,3.133-0.659c2.813-0.625,5.61-1.285,8.489-1.504
	C477.205,71.612,482.294,73.043,486.913,75.024z M448.467,75.049c0.3-0.096,0.676-0.624,0.282-0.773
	c1.802-2.741,5.784-3.878,8.443-5.461c1.994-1.187,3.548-2.772,4.895-4.656c0.964-1.347,1.862-2.858,2.326-4.468
	c0.011,0.006,0.158,0.042,0.594,0.138c0.014,0.081,0.029,0.171,0.029,0.22c0.004,0.441-0.522,1.78-0.852,2.498
	c-1.043,2.274-2.402,4.445-3.844,6.417c-1.233,1.69-2.614,3.374-4.133,4.852c-0.297,0.073-0.594,0.139-0.897,0.188
	c-0.306,0.048-0.42,0.548-0.031,0.52c0.062-0.004,0.123-0.006,0.185-0.01c-0.138,0.123-0.271,0.248-0.411,0.366
	c-0.888,0.761-1.981,1.6-3.182,1.743c-1.391,0.166-2.562-0.614-3.533-1.535C448.381,75.073,448.423,75.062,448.467,75.049z
	 M467.758,65.243c1.583-0.324,3.301,0.179,4.729,0.828c1.474,0.672,2.792,1.669,3.94,2.801c0.16,0.158,0.313,0.343,0.466,0.542
	c-1.131-0.051-2.264-0.041-3.396,0.05c-3,0.243-5.968,0.992-8.847,1.835c-0.775,0.227-1.55,0.454-2.326,0.678
	c0.433-0.557,0.85-1.115,1.248-1.663c1.098-1.512,2.171-3.103,3.1-4.764C467.021,65.422,467.379,65.321,467.758,65.243z
	 M464.413,59.69c0.003-0.013,0.007-0.026,0.011-0.04c0.056,0.018,0.107,0.038,0.169,0.053
	C465.026,59.803,464.447,59.688,464.413,59.69z M455.742,59.692c1.647,0.244,4.093,0.583,5.299,1.868
	c0.068,0.073,0.142,0.132,0.218,0.181c-0.581,0.885-1.232,1.731-1.991,2.526c-0.084,0.088-0.174,0.168-0.261,0.252
	c-0.479-0.658-1.188-1.223-1.721-1.687c-1.214-1.054-2.54-1.977-3.892-2.843c-0.234-0.151-0.476-0.295-0.716-0.44
	C453.716,59.484,454.765,59.548,455.742,59.692z M430.643,56.904c1.341-0.278,2.659-0.425,4.03-0.42
	c2.955,0.01,5.93,0.758,8.693,1.757c2.833,1.023,5.525,2.431,8.033,4.092c1.146,0.758,2.226,1.623,3.25,2.537
	c0.577,0.514,1.114,1.132,1.728,1.624c-0.73,0.427-1.494,0.808-2.287,1.17c-1.532,0.701-3.157,1.404-4.65,2.273
	c-1.007-1.581-2.621-2.926-3.91-4.113c-1.922-1.768-4.066-3.286-6.32-4.599c-3.303-1.924-6.937-3.198-10.683-3.879
	C429.245,57.162,430.01,57.034,430.643,56.904z M406.191,61.963c1.738-0.96,3.645-1.577,5.566-2.045
	c3.864-0.944,7.906-1.035,11.848-0.622c4.754,0.497,9.339,2.042,13.456,4.456c2.038,1.195,3.904,2.668,5.659,4.246
	c1.343,1.208,2.497,2.808,3.882,4.029c-0.411,0.397-0.788,0.827-1.126,1.295c-2.076-0.869-4.063-2.166-5.758-3.417
	c-2.779-2.054-5.646-3.912-8.885-5.152c-6.257-2.401-13.168-3.362-19.818-2.359c-3.327,0.502-6.417,1.506-9.299,2.931
	C403.153,64.106,404.531,62.881,406.191,61.963z M417.251,100.078c3.412,0.404,6.675,1.371,9.753,2.766
	c-3.602-0.489-7.426-0.05-10.762,0.835c-3.067,0.814-6.289,2.339-8.106,5.049c-1.396,2.078-1.4,4.422-0.632,6.614
	c-4.727-0.208-8.996,2.715-10.615,7.465c-1.043,3.057-0.955,6.178,0.27,9.164c1.188,2.898,3.424,5.336,5.558,7.569
	c2.965,3.106,5.733,6.153,7.998,9.837c1.911,3.11,4.782,8.054,3.377,11.864c-0.76,2.062-3.003,2.785-4.837,3.63
	c-0.405,0.187-0.636,0.521-0.672,0.839c-0.062-0.008-0.123-0.017-0.186-0.026c-1.215-0.184-2.398-0.519-3.547-0.953
	c-2.205-0.833-4.226-2.042-6.076-3.494c-3.936-3.095-6.973-7.232-9.415-11.562c-2.15-3.815-3.931-7.902-4.711-12.227
	c-0.694-3.854-1.003-9.469,2.619-12.063c0.259-0.185,0.005-0.486-0.248-0.337c-1.79,1.053-2.935,2.309-3.743,4.231
	c-0.902,2.142-1.161,4.603-1.12,6.908c0.094,4.96,1.743,9.753,3.85,14.192c2.349,4.952,5.579,9.601,9.741,13.196
	c0.968,0.836,2.006,1.607,3.095,2.294c-3.689-1.566-7.111-3.83-10.121-6.421c-7.74-6.664-13.859-16.966-12.629-27.501
	c0.717-6.132,2.979-12.338,6.083-17.648c1.554-2.655,3.508-5.129,5.84-7.141c2.379-2.052,5.182-3.387,8.117-4.458
	C402.827,100.259,410.158,99.236,417.251,100.078z M464.007,126.655c0.989,2.271,1.045,4.907,0.759,7.329
	c-0.609,5.205-2.915,10.371-5.973,14.592c-3.562,4.918-8.864,8.262-14.346,10.719c-0.088-0.209-0.191-0.414-0.313-0.612
	c0.697-0.383,1.164-1.011,0.695-1.744c-0.259-0.402-0.646-0.695-1.096-0.913c2.674-2.692,4.084-6.884,5.199-10.266
	c0.877-2.659,1.37-5.493,1.828-8.251c0.429-2.581,0.745-5.175,0.747-7.794c0.004-6.445-2.154-12.224-5.667-17.138
	c2.261-0.045,4.394,0.374,6.409,1.783c2.473,1.728,3.214,4.936,5.524,6.847c1.13,0.934,2.6,1.335,3.8,2.164
	C462.736,124.17,463.454,125.387,464.007,126.655z M447.747,133.423c-0.179,4.219-1.003,8.354-1.847,12.476
	c-0.644,3.148-1.883,7.155-4.36,9.58c-0.261-0.026-0.515-0.043-0.751-0.054c-1.546-0.075-3.077,0.227-4.553,0.676
	c2.041-2.658,3.671-5.631,4.798-8.787c2.145-6.007,2.416-12.405,1.158-18.635c-0.596-2.952-1.438-5.975-2.893-8.629
	c-1.455-2.657-3.423-4.536-5.885-6.25c-0.146-0.101-0.472,0.1-0.308,0.237c1.976,1.649,3.308,4.177,4.364,6.486
	c1.213,2.65,2.072,5.445,2.515,8.328c0.87,5.688,0.426,11.538-1.287,17.03c-1.768,5.672-5.351,10.653-10.012,14.303
	c-2.501,1.958-5.349,3.457-8.272,4.677c-0.722,0.302-1.461,0.561-2.208,0.792c0.926-0.611,1.793-1.312,2.585-2.083
	c2.627-2.559,4.364-5.887,5.245-9.428c1.823-7.325,0.01-15.441-4.179-21.618c-0.108-0.158-0.446-0.003-0.353,0.174
	c3.258,6.105,3.94,13.703,2.349,20.379c-0.76,3.185-2.2,6.191-4.438,8.597c-1.387,1.491-3.029,2.401-4.759,3.176
	c1.887-1.525,3.042-3.924,2.998-6.559c-0.075-4.541-2.827-9.013-5.338-12.615c-1.275-1.827-2.662-3.581-4.157-5.232
	c-1.525-1.685-3.234-3.187-4.764-4.871c-2.117-2.332-3.917-5.019-4.297-8.21c-0.348-2.925,0.725-6.333,2.974-8.296
	c2.017-1.761,4.693-1.797,7.145-1.074c0.769,0.228,2.36-0.77,1.792-1.685c-1.316-2.123-2.239-4.828-0.68-7.086
	c1.488-2.152,4.211-3.201,6.633-3.867c3.063-0.842,6.34-1.058,9.498-0.763c1.687,0.158,3.687,0.387,5.492,0.948
	c1.086,0.696,2.145,1.442,3.17,2.234C443.178,114.006,448.184,123.116,447.747,133.423z M369.413,116.03
	c2.468-3.351,6.452-4.586,10.417-5.233c-1.01,1.433-1.925,2.928-2.744,4.455c-2.882,5.376-5.034,11.72-5.598,17.818
	c-0.028,0.304-0.049,0.608-0.066,0.913c-0.993,0.623-1.851,0.889-3.131,0.579c-0.905-0.218-1.763-0.598-2.644-0.909
	c0.935-2.791,0.598-6.045,0.88-8.931C366.822,121.702,367.588,118.508,369.413,116.03z M368.698,155.826
	c-2.716-2.06-5.224-4.486-7.051-7.378c-1.34-2.121-1.879-4.671-2.071-7.141c-0.168-2.158,0.268-5.852,3.028-6.187
	c2.391-0.291,4.538,1.62,7.006,1.223c0.649-0.105,1.248-0.34,1.771-0.684c0.047,9.99,5.598,19.403,12.826,26.044
	c2.037,1.872,4.269,3.557,6.642,5.001c-1.72-0.529-3.416-1.142-5.085-1.769C379.721,162.668,373.855,159.738,368.698,155.826z
	 M426.635,169.111c-0.666-0.185-1.514-0.007-2.203-0.018c-0.951-0.014-1.897-0.104-2.84-0.225c-0.717-0.09-1.429-0.192-2.134-0.341
	c-0.014-0.211-0.073-0.414-0.177-0.594c0.318-0.115,0.632-0.231,0.935-0.349c3.268-1.261,6.4-2.918,9.257-4.946
	c1.349-0.956,2.615-2.02,3.792-3.175c0.738-0.343,1.493-0.651,2.255-0.914c1.222-0.424,2.474-0.68,3.769-0.701
	c0.155,0.343,0.621,0.55,1.238,0.313c0.063-0.024,0.126-0.052,0.188-0.078c0.59,0.219,0.853,0.69,1.433,0.912
	c0.127,0.048,0.28,0.075,0.448,0.081c0.125,2.071-0.088,4.323-2.188,5.299c-0.541,0.251-0.816,0.605-0.888,0.954
	c-0.104,0.034-0.209,0.069-0.313,0.103c-4.041,1.332-8.095,2.622-12.154,3.893C426.946,169.235,426.81,169.159,426.635,169.111z
	 M475.088,172.276c0.024,0.119,0.017,0.23,0.012,0.295c-0.094,0.089-0.388,0.505-0.283,0.416c-0.584,0.501-0.727,1.086-0.586,1.558
	c-0.167,0.368-0.192,0.776,0.002,1.19c0.018,0.038,0.03,0.065,0.041,0.086c-0.016,0.127-0.038,0.25-0.07,0.376
	c-0.017,0.066-0.323,0.485-0.5,0.677c-0.813,0.883-1.889,1.57-2.885,2.223c-0.641,0.421-1.305,0.814-1.983,1.182
	c0.206-0.476,0.313-1.012,0.333-1.498c0.061-1.479-0.527-2.696-1.476-3.785c-0.295-0.339-1.169,0.151-0.903,0.562
	c0.57,0.877,0.583,2.05,0.391,3.048c-0.083,0.433-0.228,0.885-0.496,1.24c-0.264,0.347-0.644,0.658-0.521,1.15
	c0.043,0.176,0.123,0.327,0.241,0.438c-0.631,0.259-1.272,0.496-1.919,0.698c-3.575,1.118-7.373,1.294-11.092,1.386
	c-3.152,0.077-6.305,0.191-9.458,0.255c0.15-0.538,0.152-1.172,0.195-1.671c0.084-0.992-0.227-1.791-0.383-2.744
	c-0.048-0.291-0.57-0.122-0.528,0.137c0.147,0.893-0.48,1.95-0.837,2.734c-0.253,0.553-0.762,1.03-0.991,1.584
	c-6.782,0.061-13.558-0.339-20.314-0.901c1.124-1.113,0.935-2.997-0.022-4.181c-0.273-0.336-0.938,0.071-0.908,0.444
	c0.083,1.032-0.079,2.033-0.893,2.713c-0.241,0.202-0.462,0.51-0.507,0.824c-1.014-0.09-2.026-0.182-3.039-0.275
	c-3.731-0.348-7.297-1.101-10.909-2.108c-1.859-0.519-3.766-1.083-5.495-1.956c-0.427-0.215-0.892-0.492-1.104-0.806
	c0.237-0.192,0.522-0.333,0.8-0.465c3.373,0.31,7.054-0.563,10.318-1.278c0.598-0.13,1.194-0.271,1.789-0.414
	c0,0.044,0.002,0.09,0.019,0.134c0.128,0.402,0.125,0.827,0.254,1.227c0.121,0.373,0.26,0.758,0.458,1.098
	c0.658,1.125,2.725-0.37,1.832-1.14c-0.536-0.461-1.176-0.929-1.465-1.59c2.922-0.743,5.811-1.612,8.693-2.491
	c1.437-0.438,2.872-0.868,4.311-1.296c0.478-0.047,0.928-0.143,1.323-0.308c0.114-0.047,0.218-0.109,0.311-0.179
	c5.185-1.539,10.374-3.051,15.537-4.669c0.384-0.121,0.768-0.239,1.153-0.356c0.866,0.636,1.26,1.64,1.976,2.4
	c0.631,0.668,2.097-0.342,1.489-1.151c-0.303-0.403-0.894-0.694-1.314-0.957c-0.352-0.22-0.711-0.423-1.075-0.617
	c6.346-1.881,13.001-3.271,19.552-1.729c1.617,0.38,3.383,1.521,4.86,2.454c1.884,1.19,3.754,2.62,5.187,4.338
	C474.595,171.044,474.974,171.676,475.088,172.276z M461.402,154.657c1.714,1.34,3.694,2.177,5.753,2.823
	c2.188,0.687,4.476,1.003,6.76,1.113c1.301,0.063,2.904,0.121,4.344-0.134c-0.238,1.139-0.123,2.417,0.775,3.084
	c0.374,0.278,0.846,0.332,1.284,0.232c-2.709,0.986-5.403,1.998-7.78,3.556c-1.505-0.995-3.084-1.889-4.712-2.656
	c-2.26-1.065-4.703-1.354-7.181-1.476c-5.603-0.276-11.112,1.008-16.466,2.64c0.206-0.397,0.363-0.818,0.474-1.251
	c0.244-0.047,0.476-0.131,0.669-0.245c4.98-2.957,10.012-5.723,13.885-9.999C459.77,153.26,460.62,154.049,461.402,154.657z
	 M467.794,128.094c1.136,0.648,2.255,1.263,3.505,1.667c0.444,0.144,0.968,0.114,1.336-0.217c3.361-3.038,8.525-1.106,11.629,1.38
	c3.968,3.179,4.956,9.206,3.74,13.893c-1.329,5.127-6.01,7.117-10.855,7.697c-2.635,0.314-5.256,0.352-7.706-0.778
	c-2.439-1.124-4.315-3.252-6.083-5.209c-0.006-0.007-0.014-0.012-0.021-0.02c0.216-0.376,0.424-0.756,0.627-1.139
	c0.477,2.227,2.089,3.986,4.553,4.5c0.99,0.208,2.269,0.401,3.252,0.075c1.533-0.507,2.646-2.399,0.804-3.315
	c-0.777-0.386-1.693-0.078-2.354,0.385c-0.032,0.022-0.059,0.046-0.089,0.07c-0.375,0.004-0.753-0.002-1.125-0.041
	c-1.537-0.158-3.625-2.355-3.986-3.818c0.585-1.292,1.097-2.616,1.525-3.961c0.176,0.085,0.381,0.126,0.577,0.121
	c0.782-0.024,1.455-0.44,2.239-0.229c0.58,0.157,1.429-0.565,0.961-1.127c-0.771-0.924-2.163-1.136-3.243-0.627
	c0.217-0.851,0.404-1.707,0.552-2.568c0.073-0.442,0.134-0.892,0.182-1.346c0.074,0.034,0.154,0.065,0.242,0.092
	c0.947,0.291,1.945-0.293,2.879-0.428c0.692-0.1,1.358-0.387,1.697-1.044c0.338-0.657,0.01-1.442-0.758-1.547
	c-1.251-0.169-2.717-0.152-3.949,0.326c-0.021-0.977-0.119-1.95-0.307-2.894C467.676,128.026,467.734,128.06,467.794,128.094z
	 M508.747,117.688c-0.54,5.635-2.396,11.134-4.716,16.269c-1.152,2.55-2.471,5.075-4.171,7.306c-1.044,1.37-2.19,2.315-3.48,3.157
	c0.166-1.112,0.247-2.232,0.268-3.308c0.085-4.43-0.716-9.279-3.39-12.908c-0.593-0.805-1.272-1.598-2.022-2.357
	c0.051-0.019,0.102-0.04,0.151-0.068c2.719-1.447,3.84-4.588,4.784-7.352c0.759-2.218,1.065-4.573,1.036-6.911
	c-0.057-4.523-1.832-8.873-4.395-12.537c-5.834-8.339-15.416-13.638-24.956-16.598c-5.272-1.636-10.638-2.493-16.149-2.087
	c-0.26,0.019-0.43,0.391-0.089,0.41c10.105,0.529,20.3,4.232,28.544,10.047c7.359,5.192,14.54,13.23,13.933,22.852
	c-0.243,3.831-1.72,7.896-3.921,11.01c-0.035,0.049-0.063,0.098-0.089,0.146c-3.882-3.441-9.153-5.875-13.921-4.946
	c0.609-3.303,0.629-6.384-0.172-9.708c-0.937-3.884-2.681-7.536-4.83-10.887c-2.159-3.365-4.797-6.553-7.928-9.055
	c-2.73-2.183-5.414-4.05-8.869-4.793c-0.206-0.045-0.563,0.314-0.279,0.414c6.728,2.372,11.859,8.302,15.424,14.245
	c1.912,3.192,3.46,6.666,4.357,10.281c0.752,3.022,1.284,6.925-0.07,9.857c-0.083,0.179-0.115,0.336-0.11,0.473
	c-0.751,0.365-1.479,0.834-2.176,1.416c-2.161-0.734-4.914-0.944-7.051-0.02c-0.636-0.577-1.376-1.077-2.226-1.48
	c-1.466-0.695-2.766-1.311-3.889-2.522c-1.051-1.132-1.718-2.586-2.722-3.767c-2.049-2.409-5.466-3.418-8.528-3.354
	c-0.729,0.016-1.485,0.159-2.185,0.429c-3.119-3.978-7.13-7.342-11.566-9.978c0.857-3.111,2.262-5.975,4.154-8.629
	c1.948-2.734,5.069-5.782,8.483-6.54c0.368-0.082,0.509-0.619,0.037-0.626c-4.114-0.06-7.132,2.881-9.731,5.801
	c-2.157,2.422-4.229,5.445-5.472,8.603c-8.682-4.342-18.879-4.879-28.42-2.798c-0.36-1.161-0.579-2.244-0.339-3.555
	c0.299-1.631,1.173-3.131,2.146-4.447c2.267-3.064,5.405-5.543,8.697-7.423c8.823-5.041,19.146-1.994,28.664-1.59
	c0.276,0.01,0.549-0.429,0.187-0.515c-10.063-2.364-21.248-4.16-30.7,1.144c-3.716,2.083-7.277,4.865-9.734,8.379
	c-1.686,2.411-3.066,5.891-2.057,8.79c-2.985,0.843-5.878,1.938-8.61,3.248c-0.976,0.468-1.904,1.008-2.798,1.597
	c-1.168-2.498-2.055-4.922-2.261-7.815c-0.217-3.055,0.414-6.173,1.534-9.008c2.408-6.088,7.034-11.394,12.178-15.354
	c5.152-3.969,11.646-5.393,18.047-5.14c3.339,0.131,6.657,0.868,9.849,1.819c3.379,1.007,6.27,2.695,9.231,4.565
	c2.4,1.518,5.119,3.066,7.955,3.479c-0.008,0.02-0.017,0.038-0.023,0.058c-0.216,0.589-0.271,1.075,0.181,1.574
	c1.529,1.689,3.453,2.932,5.781,3.027c0.816,0.034,1.603-0.078,2.363-0.291c0.891,0.294,1.855,0.364,2.785,0.156
	c1.891-0.424,3.729-0.999,5.635-1.377c3.945-0.787,8.063-1.394,12.096-1.228c6.466,0.266,12.901,2.051,18.594,5.114
	c2.869,1.546,5.475,3.529,7.729,5.883c2.357,2.462,4.014,5.419,5.463,8.48C508.066,103.25,509.433,110.512,508.747,117.688z"/>
<path fill="#010101" d="M475.195,132.504c0.355-0.154,0.585-0.406,0.976-0.414c0.495-0.01,1.16,0.226,1.629,0.378
	c1.115,0.362,2.202,0.844,3.141,1.552c1.684,1.275,2.808,3.093,3.187,5.17c0.695,3.81-1.253,7.629-5.245,8.095
	c-1.032,0.12-2.166,0.712-2.402,1.822c-0.218,1.011,0.72,1.722,1.665,1.634c6.5-0.604,11.468-6.533,9.809-13.103
	c-0.775-3.072-2.843-5.557-5.685-6.942c-1.556-0.757-3.674-1.396-5.402-1.072c-1.172,0.219-3.143,1.213-2.683,2.69
	C474.308,132.719,474.922,132.623,475.195,132.504z"/>
<path fill="#010101" d="M478.199,135.036c0.006-0.005,0.013-0.011,0.019-0.017c0.561-0.333,0.605-1.122-0.119-1.192
	c-0.424-0.128-0.996,0.098-1.352,0.279c-0.561,0.283-1.259,0.862-1.325,1.527c-0.135,1.341,1.739,1.289,2.344,0.435
	C478.011,135.725,478.106,135.418,478.199,135.036z"/>
<path fill="#010101" d="M480.065,136.759c-0.23,0.033-0.456,0.066-0.677,0.139c-0.461,0.155-0.799,0.401-1.132,0.751
	c-0.32,0.341-0.422,0.927-0.057,1.273c0.497,0.473,1.284,0.242,1.774-0.1c0.001,0,0.003-0.002,0.005-0.004
	c0.05-0.031,0.116-0.072,0.203-0.126c0.078-0.054,0.149-0.117,0.227-0.175c0.021-0.011,0.042-0.023,0.063-0.035
	c0.156-0.084,0.286-0.18,0.412-0.289c0.038-0.029,0.076-0.062,0.112-0.093c0-0.001,0.004-0.002,0.005-0.002
	c0.233-0.141,0.454-0.312,0.514-0.596c0.067-0.314-0.15-0.562-0.45-0.62c-0.03-0.006-0.054-0.012-0.073-0.019
	c-0.005-0.002-0.01-0.006-0.015-0.01c-0.259-0.091-0.296-0.098-0.109-0.021C480.602,136.733,480.341,136.721,480.065,136.759z
	 M481.157,136.977c-0.034-0.022-0.068-0.046-0.103-0.068C481.084,136.927,481.117,136.948,481.157,136.977z M480.969,136.857
	C480.93,136.843,480.928,136.836,480.969,136.857L480.969,136.857z"/>
<path fill="#010101" d="M477.903,141.531c0.006,0.078,0.014,0.152,0.012,0.231c-0.007,0.223,0.055,0.435,0.147,0.638
	c0.173,0.377,0.458,0.795,0.791,1.039c0.678,0.495,1.551,0.379,2.202-0.124c0.302-0.233,0.556-0.563,0.638-0.942
	c0.109-0.506-0.142-0.854-0.546-1.113c-0.277-0.179-0.6-0.282-0.886-0.449c-0.027-0.018-0.046-0.03-0.058-0.037
	c-0.094-0.063-0.174-0.11-0.275-0.164c-0.001-0.009-0.009-0.024-0.035-0.057c-0.068-0.08-0.164-0.127-0.266-0.162
	c-0.211-0.158-0.497-0.183-0.769-0.112c-0.335,0.086-0.813,0.394-0.843,0.783C478.002,141.253,477.885,141.305,477.903,141.531z"/>
<path fill="#010101" d="M478.218,145.282c0.134-0.153,0.223-0.328,0.271-0.524c0.056-0.266-0.018-0.464-0.163-0.666
	c0.022,0.031,0.045,0.062,0.068,0.092c-0.033-0.048-0.065-0.094-0.101-0.138c-0.008-0.009-0.012-0.018-0.019-0.026
	c-0.016-0.019-0.029-0.037-0.043-0.057c0.017,0.024,0.034,0.048,0.052,0.071c-0.101-0.127-0.211-0.23-0.377-0.293
	c-0.007-0.002-0.012-0.007-0.02-0.01c-0.007-0.007-0.017-0.014-0.023-0.022c-0.013-0.021-0.026-0.042-0.037-0.064
	c-0.015-0.031-0.023-0.063-0.034-0.096c-0.012-0.04-0.032-0.074-0.058-0.107c-0.093-0.32-0.499-0.463-0.802-0.45
	c-0.43,0.02-0.861,0.267-1.073,0.646c-0.34,0.399-0.472,0.962-0.254,1.459c0.239,0.542,0.851,0.823,1.416,0.771
	C477.481,145.827,477.915,145.638,478.218,145.282z M477.906,143.781c-0.001,0-0.001-0.002-0.003-0.002
	c0.029,0.039,0.058,0.076,0.087,0.116C477.962,143.856,477.933,143.82,477.906,143.781z"/>
<path fill="#010101" d="M471.362,135.944c0.285-0.221,0.5-0.6,0.34-0.959c0.004,0.108-0.015,0.049-0.06-0.177
	c-0.053-0.106-0.163-0.217-0.243-0.31c-0.082-0.095-0.172-0.184-0.262-0.273c-0.134-0.133-0.298-0.233-0.459-0.329
	c-0.188-0.111-0.392-0.156-0.61-0.146c-0.101,0.016-0.202,0.031-0.302,0.046c-0.362,0.138-0.407,0.153-0.132,0.044
	c-0.415,0.093-0.743,0.407-0.867,0.808c0.013-0.04,0.025-0.081,0.037-0.121c-0.18,0.278-0.14,0.705,0.106,0.93
	c0.369,0.337,0.882,0.531,1.297,0.675C470.609,136.274,471.02,136.208,471.362,135.944z"/>
<path fill="#010101" d="M468.669,141.663c-0.625,0.294-1.232,0.928-1.582,1.501c-0.293,0.479-0.107,1.108,0.394,1.349
	c0.698,0.336,1.587-0.006,2.067-0.558c0.335-0.384,0.698-0.95,0.865-1.436c-0.034,0.097,0.139-0.231,0.158-0.281
	c0.092-0.244,0.154-0.454,0.113-0.716c-0.064-0.397-0.456-0.446-0.784-0.392C469.432,141.209,469.085,141.466,468.669,141.663z"/>
<path fill="#010101" d="M469.723,144.521c-0.155,0.196-0.282,0.403-0.418,0.613c-0.279,0.43-0.088,1.019,0.359,1.233
	c0.298,0.143,0.651,0.143,0.966,0.062c0.384-0.1,0.646-0.306,0.926-0.571c0.375-0.356,0.666-1.028,0.388-1.527
	c0.009,0.034,0.019,0.067,0.027,0.101c-0.057-0.188-0.124-0.327-0.266-0.447c-0.144-0.183-0.428-0.249-0.64-0.24
	c-0.206,0.009-0.396,0.079-0.567,0.181c-0.229,0.105-0.403,0.251-0.584,0.432C470.356,143.914,469.658,144.602,469.723,144.521z"/>
<g>
	<path d="M562.895,138.645c-0.479,3.367-1.322,6.707-2.452,9.93c-1.094,3.243-2.554,6.352-4.204,9.356
		c-3.333,6.001-7.667,11.434-12.573,16.304c-2.466,2.422-5.057,4.735-7.791,6.876c-2.716,2.167-5.558,4.186-8.495,6.063
		c-5.878,3.748-12.114,6.97-18.576,9.666c-12.942,5.356-26.771,8.562-40.707,9.667c-13.954,1.119-27.965,0.292-41.683-2.246
		c-13.625-2.504-26.954-6.829-39.567-12.394c-12.614-5.615-24.6-12.462-35.659-20.567c-11.007-8.132-21.188-17.642-28.865-29.299
		c-1.897-2.918-3.663-5.948-5.166-9.131c-1.53-3.169-2.839-6.475-3.837-9.902c-1.977-6.846-2.854-14.181-2.1-21.478
		c0.691-7.291,2.92-14.517,6.426-21.022c1.744-3.259,3.772-6.357,6.03-9.261c2.28-2.885,4.769-5.588,7.417-8.096
		c5.288-5.039,11.237-9.26,17.485-12.802c6.25-3.552,12.809-6.438,19.501-8.832c13.401-4.758,27.367-7.532,41.401-8.62
		c14.04-1.116,28.162-0.458,42.012,1.677c6.917,1.114,13.796,2.517,20.553,4.4c6.764,1.85,13.436,4.057,19.932,6.721
		c12.995,5.304,25.244,12.533,36.071,21.458c10.791,8.938,20.202,19.63,26.834,31.818c3.29,6.093,5.865,12.563,7.305,19.288
		c0.704,3.361,1.188,6.767,1.287,10.191c0.134,3.42-0.043,6.851-0.577,10.226L562.895,138.645z M561.314,138.404
		c0.443-3.278,0.574-6.598,0.343-9.893c-0.272-3.291-0.823-6.558-1.748-9.722c-1.816-6.337-4.863-12.267-8.687-17.575
		c-3.81-5.332-8.406-10.041-13.371-14.244c-4.961-4.217-10.354-7.881-15.933-11.167c-11.18-6.565-23.152-11.538-35.35-15.619
		c-6.111-2.02-12.302-3.804-18.577-5.252c-6.28-1.417-12.608-2.64-18.995-3.493c-12.758-1.783-25.649-2.43-38.458-1.854
		c-12.796,0.618-25.544,2.529-37.686,6.243c-12.114,3.716-23.622,9.275-33.292,16.938c-2.41,1.92-4.674,3.999-6.766,6.225
		c-2.105,2.212-4.042,4.573-5.744,7.09c-3.4,5.03-5.914,10.665-7.166,16.69c-1.231,6.014-1.285,12.362,0.018,18.554
		c0.633,3.097,1.544,6.163,2.711,9.153c1.207,2.972,2.609,5.893,4.277,8.676c6.637,11.193,16.366,20.569,27.271,27.931
		c10.946,7.385,23.184,12.741,35.763,16.51c12.602,3.811,25.51,6.042,38.489,7.473c12.89,1.38,25.892,1.856,38.786,1.286
		c12.895-0.602,25.779-2.08,38.38-5.196c6.295-1.555,12.512-3.542,18.485-6.155c5.972-2.603,11.738-5.795,16.93-9.811
		c5.198-3.99,9.827-8.805,13.386-14.368c1.794-2.771,3.252-5.752,4.453-8.831c1.16-3.1,1.974-6.311,2.48-9.597L561.314,138.404z"/>
</g>
<g id="meat">
	<path fill="#010101" d="M76.813,117.098c-5.502,0.731-9.915,4.262-11.969,9.42c-2.063,5.18-2.154,11.209-1.146,16.632
		c0.772,4.155,2.591,8.042,4.139,11.947c1.627,4.105,2.482,8.354,3.807,12.546c1.174,3.712,2.886,7.129,5.375,10.135
		c2.256,2.723,5.122,4.977,8.066,6.907c11.85,7.766,27.713,10.148,41.021,4.887c5.663-2.239,11.24-6.024,13.459-11.948
		c1.874-5.002,1.133-10.311-0.818-15.171c-2.052-5.112-5.161-9.708-8.601-13.982c-4.181-5.193-8.84-10.076-13.797-14.53
		c-5.515-4.958-11.57-9.27-18.195-12.618c-3.322-1.679-6.809-3.021-10.398-4.002c-1.726-0.471-3.48-0.824-5.247-1.099
		c-0.926-0.144-1.851-0.218-2.786-0.273c-1.101-0.063-2.225,0.354-3.276,0.646c-1.15,0.318-2.229,2.337-0.769,2.973
		c0.757,0.329,1.524,0.82,2.34,0.94c0.88,0.131,1.756,0.292,2.636,0.429c1.913,0.297,3.8,0.743,5.661,1.27
		c3.583,1.014,7.032,2.469,10.339,4.17c6.657,3.423,12.656,8.162,18.121,13.237c4.728,4.39,9.204,9.139,13.13,14.266
		c3.251,4.245,6.25,8.936,7.747,14.111c1.336,4.619,0.895,9.012-2.128,12.483c-4.084,4.691-11.499,6.69-17.459,7.321
		c-7.127,0.755-14.386-0.416-21.056-2.971c-6.638-2.541-13.205-6.812-17.23-12.771c-3.472-5.139-4.052-11.373-6.297-17.024
		c-2.169-5.46-4.973-10.625-5.808-16.51c-0.587-4.133-0.362-8.475,1.254-12.365c1.793-4.315,5.079-6.983,9.707-7.806
		C77.192,118.249,77.539,117.001,76.813,117.098L76.813,117.098z"/>
	<path fill="#010101" d="M72.574,119.226c1.366-2.337,3.761-4.021,5.996-5.451c2.764-1.77,5.714-3.292,8.706-4.636
		c6.021-2.703,12.181-5.263,18.382-7.519c7.4-2.692,15.526-4.75,23.395-3.056c3.158,0.679,6.33,2.832,9.626,2.143
		c1.754-0.366,3.512-1.705,4.78-2.905c1.306-1.235,2.161-2.802,2.521-4.559c0.272-1.331,0.336-2.667,0.895-3.926
		c0.401-0.904,1.137-1.404,2.179-1.908c1.975-0.955,4.734-0.588,6.583,0.488c1.068,0.622,1.854,1.469,2.458,2.537
		c0.648,1.149,0.345,2.668,0.26,3.921c-0.093,1.38-0.223,2.818,0.115,4.178c0.352,1.415,1.652,1.973,2.92,2.362
		c2.594,0.794,5.511,0.689,7.896,2.067c2.291,1.324,4.88,3.603,4.942,6.464c0.061,2.872-3.338,4.302-5.501,5.322
		c-3.396,1.6-6.888,3.617-8.137,7.406c-0.704,2.136-0.313,4.423-0.41,6.626c-0.147,3.306-0.4,6.618-0.897,9.892
		c-0.887,5.86-2.741,11.399-5.163,16.792c-2.392,5.317-5.359,10.352-8.972,14.93c-1.716,2.175-3.599,4.195-5.642,6.066
		c-1.038,0.949-2.128,1.838-3.245,2.691c-1.258,0.961-2.303,2.044-3.476,3.094c-0.691,0.618-1.405,2.997,0.302,2.813
		c0.807-0.087,1.62-0.173,2.385-0.454c0.979-0.359,1.712-1.127,2.543-1.734c1.641-1.201,3.178-2.536,4.651-3.934
		c2.93-2.783,5.541-5.894,7.875-9.188c4.651-6.567,8.135-13.879,10.752-21.472c2.652-7.693,3.488-16.148,3.365-24.248
		c-0.017-1.091,0.086-1.8,0.86-2.598c1.229-1.267,3.087-1.935,4.652-2.673c3.255-1.534,6.394-3.708,7.822-7.15
		c2.533-6.106-2.522-12.675-8.489-14.172c-1.367-0.343-2.772-0.541-4.153-0.82c-0.653-0.133-1.299-0.291-1.937-0.486
		c-0.26-0.08-0.508-0.182-0.755-0.291c-0.213-0.093,0.261,0.58,0.134,0.071c-0.272-1.096,0.069-2.75,0.137-3.954
		c0.093-1.644-0.034-3.111-0.718-4.617c-2.487-5.47-9.921-6.417-14.753-3.854c-3.003,1.592-4.877,4.602-5.511,7.875
		c-0.18,0.93-0.267,2.433-0.63,2.95c-0.608,0.866-2.101,1.941-3.222,1.721c-1.356-0.267-2.649-0.953-3.977-1.338
		c-1.714-0.496-3.403-0.926-5.179-1.157c-3.529-0.459-7.006-0.218-10.506,0.366c-7.23,1.208-14.12,4.203-20.748,7.227
		c-5.073,2.315-10.119,4.712-14.989,7.432c-4.382,2.448-9.381,5.533-11.75,10.151C70.27,120.038,71.954,120.285,72.574,119.226
		L72.574,119.226z"/>
	<path fill="#010101" d="M87.689,150.475c0.133-0.043,0.322-0.091,0.381-0.237c0.051-0.123,0.03-0.273-0.051-0.38
		c-0.06-0.078-0.175,0-0.19,0.079c-0.014,0.073,0,0.148-0.014,0.219c0.017-0.084,0.113-0.087,0.054-0.08
		c-0.041,0.005-0.083,0.006-0.125,0.008C87.483,150.097,87.433,150.559,87.689,150.475L87.689,150.475z"/>
	<path fill="#010101" d="M86.875,148.248c-0.856,3.509,2.272,7.164,4.405,9.583c2.877,3.264,6.445,6.511,10.612,7.993
		c3.616,1.286,6.975-0.62,7.4-4.536c0.264-2.422-1.377-4.938-2.7-6.809c-1.745-2.467-3.891-4.686-6.129-6.706
		c-2.701-2.438-5.533-4.196-9.169-4.817c-1.727-0.295-3.458-0.271-4.897,0.84c-1.593,1.23-1.945,4.338,0.163,5.146
		c0.771,0.296,1.68-0.583,1.816-1.283c0.136-0.692,0.16-1.236,0.055-1.936c-0.06-0.4-0.112,0.375-0.449,0.579
		c0.502-0.303,1.882-0.158,2.647-0.07c1.912,0.218,3.738,0.874,5.323,1.949c2.298,1.56,4.355,3.569,6.239,5.596
		c1.856,1.998,3.792,4.374,4.544,7.044c1.229,4.352-3.883,2.873-6.055,1.699c-4.051-2.187-7.606-5.572-10.366-9.225
		c-0.991-1.312-2.614-3.427-2.565-5.172C87.769,147.5,86.974,147.84,86.875,148.248L86.875,148.248z"/>
	<path fill="#010101" d="M158.143,87.522c3.042-2.133,5.81-4.61,8.528-7.141c2.72-2.531,5.524-5.207,7.737-8.194
		c2.193-2.962,3.667-6.19,4.994-9.606c0.355-0.915,0.792-2.703,1.695-3.25c0.989-0.6,3.227,2.413,3.731,2.958
		c2.048,2.208,4.229,4.36,6.831,5.908c2.802,1.665,5.94,2.529,9.145,2.979c2.721,0.381,5.729,0.69,8.128,2.137
		c2.62,1.579,3.01,4.643,2.144,7.382c-0.907,2.873-3.801,4.894-6.367,6.144c-3.827,1.863-8.285,1.667-12.406,2.252
		c-4.219,0.599-7.644,2.131-10.643,5.17c-2.476,2.509-4.54,5.517-7.906,6.894c-1.542,0.63-1.82,3.899,0.348,3.292
		c3.436-0.961,5.829-3.796,8.137-6.345c1.105-1.22,2.246-2.386,3.572-3.372c1.675-1.243,4.028-1.671,6.045-1.956
		c4.088-0.579,8.258-0.515,12.162-2.024c3.156-1.22,5.98-3.19,8.121-5.818c2.146-2.636,3.154-6.011,2.727-9.38
		c-0.38-3-2.271-5.005-4.931-6.251c-2.624-1.229-5.683-1.472-8.516-1.86c-3.071-0.421-6.193-1.503-8.781-3.217
		c-1.586-1.049-3.01-2.334-4.408-3.616c-1.575-1.447-3.228-3.316-5.296-4.023c-4.065-1.387-5.674,5.205-6.664,7.721
		c-1.808,4.597-4.767,8.834-8.17,12.394c-3.379,3.534-7.256,6.549-10.55,10.16C157.106,87.345,157.618,87.89,158.143,87.522
		L158.143,87.522z"/>
	<path fill="#010101" d="M73.641,123.772c-4.929,0.943-5.196,7.318-4.881,11.309c0.528,6.699,4.793,12.096,6.322,18.544
		c0.898,3.792,1.179,7.662,2.643,11.315c1.45,3.619,3.963,6.299,6.884,8.799c5.557,4.759,12.304,8.276,19.486,9.749
		c4.388,0.901,8.787,0.838,13.229,0.492c4.522-0.353,9.09-1.395,12.224-4.914c2.676-3.004,3.747-6.946,2.739-10.859
		c-0.972-3.769-3.865-7.137-7.68-8.092c-0.75-0.188-1.936,0.974-1.324,1.7c2.059,2.438,4.489,4.791,5.509,7.892
		c0.985,2.997,0.092,5.892-2.214,7.986c-2.696,2.449-7.132,2.573-10.557,2.795c-3.748,0.245-7.408,0.167-11.098-0.597
		c-7.328-1.52-13.853-5.357-19.46-10.214c-3.019-2.615-4.919-5.727-5.99-9.562c-1.069-3.831-1.452-7.768-2.994-11.471
		c-1.93-4.633-4.757-8.715-5.782-13.694c-0.663-3.22-1.361-9.57,2.93-10.649C73.905,124.231,74.011,123.701,73.641,123.772
		L73.641,123.772z"/>
	<path fill="#010101" d="M77.359,125.313c4.233,0.983,8.116,2.535,11.918,4.63c3.583,1.974,7.005,4.26,10.465,6.441
		c6.811,4.292,14.22,9.142,18.239,16.34c0.718,1.288,2.785-0.635,2.103-1.796c-4.296-7.31-11.797-12.138-18.874-16.428
		c-3.571-2.165-7.174-4.309-10.893-6.211c-3.954-2.024-8.31-3.648-12.807-3.381C77.348,124.918,77.126,125.259,77.359,125.313z"/>
	<path fill="#010101" d="M127.906,104.142c3.02,1.122,6.15,1.984,9.14,3.187c3.134,1.259,5.896,3.345,8.22,5.775
		c4.491,4.695,7.337,11.094,7.833,17.563c0.556,7.253-1.704,14.752-4.578,21.321c-1.386,3.17-2.591,6.519-4.641,9.34
		c-1.013,1.392-2.452,2.562-3.63,3.82c-0.34,0.362-0.619,0.793-0.908,1.196c-0.171,0.239-0.342,0.477-0.517,0.712
		c-0.255,0.343-0.523,0.436,0.156,0.004c0.384,0.002,0.767,0.004,1.15,0.005c-0.013-0.01-0.025-0.019-0.037-0.028
		c0.11,0.26,0.221,0.521,0.331,0.783c-0.013-0.099-0.007-0.196,0.018-0.294c0.067-0.499-0.363-0.935-0.847-0.931
		c-0.722,0.003-1.237,0.632-1.446,1.259c-0.124,0.372-0.228,0.901,0.048,1.237c0.248,0.303,0.632,0.501,1.033,0.343
		c0.95-0.375,1.455-1.206,2.028-2.004c0.981-1.363,2.24-2.456,3.391-3.668c2.682-2.827,4.131-6.707,5.604-10.252
		c3.03-7.292,5.516-15.019,5.123-23.024c-0.332-6.738-3.146-13.337-7.79-18.223c-2.37-2.492-5.292-4.581-8.455-5.936
		c-3.55-1.522-7.394-1.581-11.089-2.459C127.902,103.833,127.745,104.083,127.906,104.142z"/>
	<path fill="#010101" d="M166.879,104.895c2.141,0.959,2.444,3.153,1.233,4.978c-1.033,1.556-2.891,2.061-4.102,3.375
		c-0.22,0.24-0.318,0.749-0.021,0.973c0.974,0.732,2.444-0.205,3.245-0.803c1.139-0.851,1.972-2.117,2.555-3.395
		c0.49-1.073,0.685-2.284,0.347-3.426c-0.418-1.409-1.782-1.807-3.05-2.122C166.872,104.423,166.644,104.788,166.879,104.895
		L166.879,104.895z"/>
	<path fill="#010101" d="M172.378,98.757c2.396-2.616,5.018-5.063,7.747-7.328c1.406-1.167,2.876-2.26,4.384-3.293
		c0.844-0.579,2.109-1.523,2.881-1.809c2.855-1.052,6.005-1.405,8.953-2.121c3.26-0.792,6.833-1.626,9.622-3.579
		c2.133-1.493,3.243-4.744,0.152-5.844c-0.721-0.256-1.36,0.776-1.068,1.373c0.219,0.448,0.436,0.925,0.594,1.398
		c0.049,0.147,0.063,0.395,0.083,0.262c-0.036,0.236-0.089,0.269-0.017,0.159c-0.427,0.649-1.683,1.242-2.6,1.643
		c-3.059,1.337-6.414,1.988-9.629,2.832c-2.379,0.623-5.238,0.995-7.31,2.402c-5.438,3.687-10.551,8.077-14.26,13.541
		C171.629,98.806,172.045,99.122,172.378,98.757L172.378,98.757z"/>
</g>
<g>
	<path d="M264.995,99.063c0.656,3.337,0.959,6.769,0.953,10.183c0.035,3.422-0.321,6.839-0.89,10.219
		c-1.171,6.764-3.477,13.32-6.506,19.534c-1.531,3.099-3.216,6.136-5.094,9.058c-1.851,2.94-3.87,5.782-6.025,8.521
		c-4.317,5.474-9.145,10.57-14.36,15.242c-10.458,9.318-22.461,16.897-35.256,22.527c-12.796,5.648-26.336,9.486-40.073,11.595
		c-13.742,2.13-27.714,2.427-41.468,1.327c-13.76-1.15-27.33-3.671-40.441-7.683c-13.071-4.056-25.815-9.684-36.902-18.165
		c-2.752-2.131-5.416-4.412-7.883-6.922c-2.489-2.488-4.813-5.179-6.883-8.087c-4.119-5.814-7.362-12.452-9.051-19.59
		c-1.748-7.112-2.021-14.668-0.853-21.966c0.574-3.651,1.47-7.245,2.646-10.73c1.204-3.474,2.663-6.846,4.339-10.086
		c3.334-6.498,7.563-12.443,12.297-17.844c4.732-5.412,9.976-10.295,15.506-14.759c11.089-8.904,23.363-16.12,36.257-21.768
		c12.905-5.678,26.408-9.697,40.255-12.251c6.832-1.213,13.838-2.161,20.823-2.604c6.996-0.479,14.022-0.591,21.033-0.214
		c14.017,0.73,27.963,3.525,41.125,8.389c13.132,4.888,25.538,11.886,35.813,21.212c5.112,4.67,9.674,9.933,13.246,15.809
		c1.771,2.941,3.35,5.999,4.569,9.2c1.252,3.185,2.215,6.482,2.822,9.845L264.995,99.063z M263.422,99.355
		c-0.66-3.242-1.629-6.419-2.933-9.455c-1.34-3.018-2.936-5.922-4.851-8.604c-3.801-5.386-8.63-9.982-13.987-13.736
		c-5.352-3.781-11.242-6.715-17.314-9.049c-6.073-2.349-12.372-4.034-18.72-5.301c-12.718-2.519-25.66-3.273-38.521-3.113
		c-6.436,0.104-12.869,0.458-19.271,1.156c-6.412,0.732-12.742,1.651-19.12,2.961c-12.567,2.503-25.001,6.145-36.892,10.901
		c-11.879,4.795-23.288,10.796-33.53,18.299c-10.216,7.497-19.252,16.534-25.861,26.952c-1.644,2.607-3.098,5.315-4.34,8.104
		c-1.259,2.782-2.311,5.649-3.09,8.586c-1.555,5.869-2.073,12.017-1.272,18.119c0.816,6.084,2.855,12.096,6.124,17.514
		c1.617,2.716,3.486,5.312,5.573,7.75c2.117,2.409,4.403,4.706,6.894,6.785c9.951,8.385,22.226,14.036,34.945,17.397
		c12.768,3.371,26.086,4.4,39.205,3.819c13.142-0.548,26.104-2.696,38.778-5.608c12.677-2.949,25.074-6.772,37.074-11.558
		c11.978-4.813,23.659-10.45,34.531-17.54c5.432-3.54,10.648-7.462,15.429-11.896c4.782-4.423,9.176-9.335,12.757-14.837
		c3.595-5.478,6.382-11.549,7.91-17.973c0.783-3.207,1.178-6.502,1.298-9.805c0.076-3.309-0.214-6.609-0.816-9.878L263.422,99.355z"
		/>
</g>
<g>
	<path d="M-22.775,19.538c7.739,3.557,15.308,7.394,22.811,11.341c7.526,3.908,14.947,7.987,22.328,12.134
		c7.378,4.151,14.707,8.384,21.976,12.714c7.291,4.294,14.483,8.75,21.543,13.425c14.121,9.346,27.744,19.511,42.046,28.561
		c14.278,9.088,29.019,17.415,43.959,25.414l11.194,6.017l5.596,3.011l5.56,3.069c7.409,4.1,14.731,8.343,22.058,12.578
		c7.334,4.222,14.646,8.483,21.946,12.762c7.318,4.25,14.546,8.647,21.748,13.089c7.184,4.471,14.341,8.985,21.431,13.609
		l10.644,6.923l10.572,7.041c3.533,2.332,7.02,4.74,10.519,7.128c3.506,2.376,6.984,4.799,10.451,7.238
		c6.945,4.863,13.843,9.804,20.619,14.945l-0.52,0.854c-7.683-3.65-15.243-7.501-22.756-11.43
		c-3.762-1.957-7.514-3.929-11.236-5.949c-3.73-2.007-7.473-3.995-11.169-6.059l-11.115-6.147l-11.044-6.264
		c-7.369-4.167-14.669-8.445-21.944-12.766c-7.257-4.351-14.487-8.744-21.627-13.286c-7.158-4.514-14.305-9.044-21.429-13.613
		c-7.131-4.557-14.268-9.105-21.317-13.797l-5.284-3.524l-5.248-3.583l-10.493-7.17c-13.976-9.584-28.152-18.841-42.791-27.336
		c-14.615-8.534-29.909-15.952-44.704-24.189c-7.398-4.117-14.665-8.453-21.832-12.95c-7.189-4.462-14.319-9.02-21.399-13.661
		C11.239,45.023,4.202,40.311-2.73,35.427c-6.956-4.845-13.845-9.8-20.564-15.034L-22.775,19.538z"/>
</g>
<g>
	<path d="M287.134,26.242c-6.714,5.24-13.6,10.201-20.551,15.052c-6.928,4.89-13.961,9.608-21.035,14.259
		c-7.076,4.647-14.203,9.211-21.388,13.679c-7.163,4.504-14.425,8.846-21.82,12.969c-14.789,8.25-30.076,15.682-44.683,24.228
		c-14.631,8.508-28.799,17.776-42.767,27.373l-10.487,7.179l-5.245,3.587l-5.281,3.529c-7.045,4.697-14.178,9.252-21.305,13.815
		c-7.12,4.576-14.263,9.112-21.417,13.632c-7.136,4.548-14.363,8.948-21.616,13.305c-7.271,4.327-14.568,8.611-21.933,12.784
		l-11.039,6.274l-11.11,6.157c-3.694,2.067-7.435,4.058-11.164,6.069c-3.721,2.023-7.471,3.999-11.23,5.958
		c-7.51,3.936-15.067,7.792-22.747,11.449l-0.521-0.854c6.771-5.147,13.665-10.094,20.606-14.963
		c3.465-2.442,6.941-4.868,10.445-7.247c3.497-2.392,6.981-4.803,10.513-7.138l10.566-7.049l10.638-6.933
		c7.086-4.631,14.239-9.151,21.419-13.628c7.198-4.448,14.422-8.852,21.736-13.107c7.297-4.285,14.604-8.552,21.936-12.781
		c7.323-4.241,14.642-8.491,22.047-12.597l5.558-3.074l5.593-3.016l11.189-6.027c14.934-8.012,29.667-16.352,43.938-25.452
		c14.294-9.061,27.908-19.238,42.021-28.596c7.056-4.681,14.244-9.143,21.532-13.443c7.266-4.336,14.59-8.576,21.964-12.733
		c7.377-4.153,14.795-8.239,22.317-12.153c7.499-3.953,15.065-7.797,22.801-11.36L287.134,26.242z"/>
</g>
<g>
	<path d="M114.015,293.977c-0.024,0.684-0.094,1.422-0.297,2.23c-0.197,0.809-0.537,1.709-1.087,2.472
		c-1.09,1.573-3.006,2.202-4.666,1.789c-0.348-0.094-0.851-0.249-1.21-0.448c-0.385-0.201-0.752-0.425-1.096-0.674
		c-0.688-0.502-1.287-1.02-1.88-1.485c-0.59-0.474-1.194-0.91-1.769-1.507c-0.564-0.583-1.165-1.356-1.438-2.388
		c-0.285-1.014-0.171-2.243,0.299-3.211c0.458-0.989,1.199-1.719,1.962-2.298c1.533-1.155,3.348-1.79,5.131-1.697
		c0.352,0.019,0.921,0.085,1.324,0.185c0.436,0.103,0.868,0.231,1.281,0.425c0.829,0.374,1.558,1.032,2.102,1.814
		c0.548,0.785,0.887,1.694,1.086,2.512c0.207,0.822,0.267,1.564,0.257,2.271V293.977z M113.416,293.966
		c-0.012-0.584-0.411-1.11-0.968-1.322c-0.558-0.226-1.23-0.155-1.791-0.019c-0.568,0.132-1.053,0.326-1.472,0.393
		c-0.212,0.038-0.415,0.055-0.618,0.083c-0.236,0.026-0.31,0.056-0.602,0.071c-0.783,0.099-1.567,0.039-2.266,0.18
		c-0.345,0.069-0.616,0.18-0.915,0.233c-0.293,0.065-0.64,0.104-0.926,0.381c-0.271,0.259-0.412,0.754-0.212,1.204
		c0.183,0.447,0.59,0.85,1.108,1.024c0.518,0.184,1.133,0.131,1.693-0.063c0.281-0.094,0.549-0.205,0.803-0.332
		c0.279-0.126,0.419-0.244,0.715-0.335c0.907-0.42,1.59-0.365,2.732-0.088c0.558,0.115,1.229,0.176,1.79-0.059
		c0.56-0.226,0.95-0.756,0.928-1.362V293.966z"/>
</g>
<g>
	<path d="M275.265,296.559c-0.024,0.842-0.115,1.729-0.355,2.683c-0.239,0.95-0.647,1.985-1.307,2.871
		c-0.655,0.881-1.55,1.579-2.548,1.939c-0.996,0.37-2.073,0.438-3.09,0.249c-0.431-0.094-1.04-0.258-1.48-0.474
		c-0.472-0.219-0.923-0.465-1.345-0.745c-0.845-0.566-1.582-1.18-2.295-1.762c-0.705-0.598-1.407-1.185-2.034-1.943
		c-0.614-0.751-1.217-1.681-1.488-2.828c-0.282-1.132-0.187-2.464,0.307-3.589c0.484-1.137,1.308-2.033,2.194-2.746
		c1.776-1.435,3.979-2.211,6.142-2.121c0.435,0.02,1.12,0.092,1.605,0.217c0.528,0.12,1.051,0.271,1.549,0.499
		c1,0.442,1.876,1.207,2.527,2.11c0.656,0.906,1.063,1.952,1.304,2.91c0.243,0.968,0.324,1.857,0.314,2.72V296.559z
		 M274.665,296.549c-0.01-0.753-0.442-1.458-1.074-1.844c-0.637-0.396-1.433-0.476-2.125-0.447c-0.7,0.021-1.323,0.144-1.876,0.16
		l-0.82,0.028c-0.313,0.021-0.435,0.042-0.806,0.059c-1.053,0.096-2.108,0.128-3.042,0.458c-0.462,0.165-0.841,0.394-1.235,0.612
		c-0.38,0.227-0.798,0.49-1.081,0.974c-0.271,0.468-0.36,1.133-0.1,1.734c0.251,0.596,0.752,1.135,1.395,1.416
		c0.636,0.299,1.399,0.328,2.107,0.188c0.355-0.068,0.698-0.161,1.024-0.275c0.358-0.112,0.555-0.225,0.931-0.315
		c1.188-0.424,2.139-0.447,3.545-0.39c0.688,0.006,1.483-0.083,2.123-0.488c0.633-0.398,1.056-1.106,1.032-1.88V296.549z"/>
</g>
<g>
	<path d="M324.931,299.309c-0.023,0.842-0.114,1.729-0.355,2.683c-0.238,0.95-0.646,1.985-1.307,2.871
		c-0.654,0.881-1.55,1.579-2.547,1.939c-0.996,0.37-2.074,0.438-3.09,0.249c-0.432-0.094-1.04-0.258-1.48-0.474
		c-0.473-0.219-0.924-0.465-1.346-0.745c-0.845-0.566-1.581-1.18-2.295-1.762c-0.705-0.598-1.407-1.185-2.034-1.943
		c-0.614-0.751-1.218-1.681-1.487-2.828c-0.283-1.132-0.188-2.464,0.307-3.589c0.484-1.137,1.308-2.033,2.193-2.746
		c1.777-1.435,3.98-2.211,6.143-2.121c0.434,0.02,1.119,0.092,1.604,0.217c0.528,0.12,1.052,0.271,1.55,0.499
		c1,0.442,1.875,1.207,2.527,2.11c0.656,0.906,1.063,1.952,1.304,2.91c0.243,0.968,0.323,1.857,0.313,2.72V299.309z
		 M324.331,299.299c-0.01-0.753-0.441-1.458-1.073-1.844c-0.638-0.396-1.433-0.476-2.124-0.447c-0.7,0.021-1.324,0.144-1.877,0.16
		l-0.82,0.028c-0.313,0.021-0.434,0.042-0.805,0.059c-1.054,0.096-2.108,0.128-3.042,0.458c-0.462,0.165-0.841,0.394-1.235,0.612
		c-0.381,0.227-0.799,0.49-1.08,0.974c-0.271,0.468-0.36,1.133-0.101,1.734c0.251,0.596,0.753,1.135,1.396,1.416
		c0.636,0.299,1.398,0.328,2.107,0.188c0.355-0.068,0.697-0.161,1.023-0.275c0.359-0.112,0.556-0.225,0.932-0.315
		c1.188-0.424,2.139-0.447,3.545-0.39c0.688,0.006,1.483-0.083,2.123-0.488c0.633-0.398,1.055-1.106,1.031-1.88V299.299z"/>
</g>
<g>
	<path d="M473.932,281.225c-0.024,0.842-0.114,1.729-0.355,2.683c-0.239,0.95-0.647,1.985-1.307,2.871
		c-0.655,0.881-1.55,1.579-2.548,1.939c-0.996,0.37-2.073,0.438-3.09,0.249c-0.431-0.094-1.039-0.258-1.48-0.474
		c-0.472-0.219-0.923-0.465-1.345-0.745c-0.845-0.566-1.581-1.18-2.296-1.762c-0.705-0.598-1.406-1.185-2.033-1.943
		c-0.615-0.751-1.218-1.681-1.488-2.828c-0.282-1.132-0.187-2.464,0.307-3.589c0.484-1.137,1.309-2.033,2.194-2.746
		c1.776-1.435,3.979-2.211,6.142-2.121c0.435,0.02,1.119,0.092,1.605,0.217c0.527,0.12,1.051,0.271,1.549,0.499
		c1,0.442,1.876,1.207,2.527,2.11c0.656,0.906,1.063,1.952,1.305,2.91c0.242,0.968,0.323,1.857,0.313,2.72V281.225z
		 M473.332,281.215c-0.011-0.753-0.442-1.458-1.073-1.844c-0.638-0.396-1.434-0.476-2.125-0.447
		c-0.699,0.021-1.323,0.144-1.876,0.16l-0.82,0.028c-0.313,0.021-0.435,0.042-0.806,0.059c-1.053,0.096-2.107,0.128-3.041,0.458
		c-0.463,0.165-0.842,0.394-1.236,0.612c-0.38,0.227-0.798,0.49-1.08,0.974c-0.271,0.468-0.359,1.133-0.1,1.734
		c0.251,0.596,0.752,1.135,1.395,1.416c0.637,0.299,1.399,0.328,2.107,0.188c0.355-0.068,0.697-0.161,1.024-0.275
		c0.358-0.112,0.556-0.225,0.931-0.315c1.188-0.424,2.139-0.447,3.545-0.39c0.689,0.006,1.484-0.083,2.123-0.488
		c0.633-0.398,1.056-1.106,1.032-1.88V281.215z"/>
</g>
<g>
	<path d="M88.598,266.892c-0.02,1.305-0.261,2.647-0.752,3.987c-0.49,1.336-1.242,2.693-2.286,3.83
		c-1.042,1.131-2.364,2.016-3.807,2.496c-1.44,0.486-2.978,0.617-4.455,0.43c-1.451-0.186-2.922-0.732-4.191-1.398
		c-1.289-0.689-2.454-1.484-3.554-2.32c-1.095-0.842-2.132-1.76-3.014-2.902c-0.864-1.137-1.613-2.521-1.884-4.131
		c-0.28-1.592-0.044-3.384,0.709-4.889c0.725-1.531,1.899-2.743,3.168-3.709c2.551-1.937,5.685-2.948,8.766-2.855
		c0.665,0.033,1.58,0.1,2.294,0.26c0.756,0.149,1.506,0.345,2.226,0.633c1.444,0.564,2.748,1.512,3.785,2.667
		c1.042,1.158,1.792,2.525,2.284,3.871c0.491,1.354,0.722,2.698,0.71,4.023V266.892z M87.999,266.882
		c-0.012-1.214-0.588-2.375-1.471-3.147c-0.888-0.784-2.027-1.184-3.104-1.408c-1.085-0.229-2.137-0.291-3.134-0.397
		c-0.501-0.046-0.999-0.092-1.498-0.105c-0.542-0.002-0.892-0.017-1.494,0.011c-1.972,0.102-3.957,0.361-5.666,1.196
		c-0.849,0.416-1.564,0.971-2.22,1.569c-0.62,0.62-1.191,1.335-1.472,2.281c-0.271,0.93-0.213,2.049,0.297,3.038
		c0.499,0.988,1.352,1.836,2.374,2.377c1.022,0.549,2.214,0.762,3.366,0.744c0.578-0.006,1.146-0.057,1.701-0.141l1.62-0.27
		c2.108-0.418,3.988-0.684,6.169-1.127c1.073-0.244,2.212-0.656,3.102-1.447c0.883-0.785,1.448-1.949,1.429-3.184V266.882z"/>
</g>
<g>
	<path d="M304.598,274.891c-0.021,1.305-0.262,2.646-0.752,3.986c-0.49,1.337-1.242,2.693-2.287,3.83
		c-1.041,1.132-2.363,2.015-3.807,2.496c-1.439,0.486-2.977,0.617-4.455,0.43c-1.451-0.184-2.922-0.73-4.19-1.398
		c-1.289-0.688-2.454-1.484-3.554-2.319c-1.096-0.842-2.133-1.76-3.014-2.902c-0.863-1.137-1.613-2.522-1.885-4.132
		c-0.279-1.592-0.043-3.384,0.709-4.889c0.725-1.531,1.9-2.743,3.168-3.709c2.552-1.937,5.686-2.948,8.766-2.855
		c0.665,0.033,1.58,0.1,2.295,0.26c0.756,0.149,1.506,0.345,2.226,0.633c1.444,0.564,2.748,1.512,3.785,2.667
		c1.042,1.158,1.792,2.525,2.284,3.87c0.491,1.354,0.723,2.699,0.711,4.023V274.891z M303.998,274.882
		c-0.013-1.214-0.588-2.375-1.471-3.146c-0.889-0.784-2.027-1.185-3.104-1.408c-1.085-0.229-2.138-0.291-3.134-0.397
		c-0.502-0.046-0.998-0.092-1.498-0.105c-0.541-0.002-0.892-0.017-1.494,0.011c-1.971,0.102-3.957,0.361-5.665,1.196
		c-0.849,0.416-1.564,0.971-2.22,1.568c-0.621,0.621-1.191,1.336-1.473,2.281c-0.27,0.93-0.213,2.05,0.297,3.038
		c0.499,0.987,1.353,1.836,2.375,2.376c1.021,0.55,2.213,0.763,3.365,0.745c0.578-0.007,1.146-0.057,1.701-0.141l1.619-0.271
		c2.109-0.417,3.988-0.684,6.17-1.126c1.073-0.245,2.212-0.656,3.102-1.448c0.883-0.785,1.449-1.949,1.43-3.184V274.882z"/>
</g>
<g>
	<path d="M80.098,229.968c-0.014,2.136-0.497,4.287-1.41,6.327c-0.907,2.041-2.244,3.991-3.958,5.599
		c-1.713,1.604-3.793,2.838-6.028,3.549c-2.234,0.718-4.6,0.966-6.904,0.775c-2.309-0.183-4.556-0.844-6.633-1.742
		c-2.083-0.907-3.997-2.067-5.772-3.368c-1.767-1.313-3.396-2.83-4.697-4.68c-1.293-1.85-2.281-4.012-2.54-6.489
		c-0.267-2.348,0.179-4.985,1.355-7.177c1.138-2.235,2.9-4.049,4.842-5.489c3.918-2.886,8.681-4.358,13.477-4.261
		c2.302,0.054,4.715,0.445,6.939,1.239c2.237,0.796,4.298,2.095,6.006,3.721c1.71,1.629,3.046,3.59,3.955,5.639
		C79.643,225.661,80.116,227.822,80.098,229.968z M79.498,229.963c-0.006-2.038-0.826-4.018-2.139-5.495
		c-1.313-1.494-3.052-2.493-4.805-3.185c-1.763-0.699-3.571-1.103-5.352-1.435c-1.799-0.329-3.563-0.48-5.436-0.429
		c-3.534,0.098-7.207,0.8-10.256,2.563c-1.521,0.88-2.833,2.027-3.918,3.334c-1.051,1.336-1.897,2.839-2.152,4.676
		c-0.271,1.707,0.034,3.685,0.967,5.363c0.921,1.692,2.368,3.135,4.063,4.144c1.696,1.024,3.651,1.566,5.586,1.788
		c1.945,0.224,3.876,0.106,5.742-0.074c1.871-0.194,3.683-0.489,5.471-0.893c1.783-0.417,3.571-0.885,5.33-1.606
		c1.749-0.713,3.487-1.723,4.802-3.225C78.715,234,79.524,232.011,79.498,229.963z"/>
</g>
<g>
	<path d="M271.431,247.982c-0.02,1.719-0.377,3.47-1.07,5.167c-0.691,1.696-1.73,3.356-3.107,4.738
		c-1.375,1.377-3.079,2.447-4.923,3.05c-1.865,0.607-3.754,0.8-5.749,0.613c-0.412-0.047-0.827-0.124-1.352-0.213
		c-0.493-0.105-0.937-0.203-1.396-0.352c-0.908-0.277-1.79-0.615-2.634-1.014c-1.688-0.81-3.23-1.79-4.667-2.869
		c-1.43-1.087-2.761-2.314-3.846-3.82c-1.073-1.522-1.936-3.24-2.199-5.364c-0.282-1.89,0.064-4.158,1.014-5.998
		c0.922-1.89,2.387-3.414,3.991-4.629c3.253-2.438,7.151-3.692,11.199-3.599l0.63,0.035l0.757,0.06
		c0.525,0.046,0.985,0.115,1.475,0.212c0.965,0.18,1.921,0.422,2.842,0.77c1.846,0.688,3.531,1.822,4.901,3.222
		c1.373,1.404,2.411,3.075,3.104,4.779c0.693,1.71,1.04,3.464,1.028,5.203V247.982z M270.832,247.972
		c-0.012-1.631-0.706-3.209-1.799-4.345c-1.097-1.15-2.539-1.859-3.954-2.326c-1.425-0.472-2.856-0.711-4.246-0.935
		c-0.699-0.103-1.396-0.192-2.097-0.235c-0.342-0.024-0.721-0.026-1.034-0.038l-0.502-0.005l-0.631,0.01
		c-2.662,0.104-5.56,0.586-7.916,1.902c-1.184,0.655-2.199,1.512-3.068,2.475c-0.835,1.007-1.531,2.07-1.813,3.55
		c-0.264,1.245-0.086,2.859,0.627,4.184c0.706,1.348,1.854,2.501,3.212,3.284c1.359,0.793,2.932,1.187,4.48,1.288
		c0.776,0.05,1.547,0.046,2.305-0.01c0.373-0.027,0.768-0.054,1.113-0.101c0.314-0.028,0.74-0.091,1.169-0.125
		c2.829-0.419,5.601-0.907,8.443-1.838c1.412-0.488,2.852-1.208,3.952-2.365c1.093-1.149,1.777-2.729,1.757-4.381V247.972z"/>
</g>
<g>
	<path d="M244.598,214.634c-0.014,2.136-0.497,4.287-1.41,6.327c-0.907,2.041-2.244,3.991-3.958,5.599
		c-1.713,1.604-3.793,2.838-6.028,3.549c-2.234,0.718-4.6,0.966-6.904,0.775c-2.309-0.183-4.556-0.844-6.633-1.742
		c-2.083-0.907-3.997-2.067-5.772-3.368c-1.767-1.313-3.396-2.83-4.697-4.68c-1.293-1.85-2.281-4.012-2.54-6.489
		c-0.267-2.348,0.179-4.985,1.355-7.177c1.138-2.235,2.9-4.049,4.842-5.489c3.918-2.886,8.681-4.358,13.477-4.261
		c2.302,0.054,4.715,0.445,6.939,1.239c2.237,0.796,4.298,2.095,6.006,3.721c1.71,1.629,3.046,3.59,3.955,5.639
		C244.143,210.327,244.616,212.488,244.598,214.634z M243.999,214.629c-0.006-2.038-0.826-4.018-2.139-5.495
		c-1.313-1.494-3.052-2.493-4.805-3.185c-1.763-0.699-3.571-1.103-5.352-1.435c-1.799-0.329-3.563-0.48-5.436-0.429
		c-3.534,0.098-7.207,0.8-10.256,2.563c-1.521,0.88-2.833,2.027-3.918,3.334c-1.051,1.336-1.897,2.839-2.152,4.676
		c-0.271,1.707,0.034,3.685,0.967,5.363c0.921,1.692,2.368,3.135,4.063,4.144c1.696,1.024,3.651,1.566,5.586,1.788
		c1.945,0.224,3.876,0.106,5.742-0.074c1.871-0.194,3.683-0.489,5.471-0.893c1.783-0.417,3.571-0.885,5.33-1.606
		c1.749-0.713,3.487-1.723,4.802-3.225C243.215,218.667,244.025,216.677,243.999,214.629z"/>
</g>
<g>
	<path d="M347.415,246.487c0.061,1.689-0.207,3.426-0.805,5.128c-0.597,1.701-1.536,3.387-2.822,4.815
		c-1.285,1.423-2.91,2.559-4.696,3.239c-1.785,0.684-3.705,0.963-5.58,0.865c-1.851-0.098-3.736-0.615-5.412-1.315
		c-1.695-0.723-3.256-1.618-4.716-2.614c-1.455-1.003-2.82-2.147-3.958-3.576c-1.127-1.446-2.06-3.093-2.422-5.173
		c-0.369-1.846-0.138-4.099,0.711-5.956c0.817-1.906,2.188-3.476,3.71-4.748c3.088-2.554,6.865-3.973,10.854-4.067l0.62,0.005
		l0.748,0.023c0.52,0.021,0.976,0.068,1.462,0.141c0.959,0.133,1.91,0.328,2.833,0.629c1.849,0.594,3.557,1.636,4.967,2.956
		c1.413,1.323,2.506,2.923,3.262,4.569c0.757,1.652,1.176,3.359,1.244,5.068V246.487z M346.816,246.506
		c-0.087-1.6-0.844-3.115-1.973-4.174c-1.134-1.073-2.585-1.694-3.996-2.078c-1.421-0.39-2.835-0.551-4.204-0.702
		c-0.688-0.066-1.375-0.121-2.063-0.129c-0.335-0.008-0.707,0.008-1.013,0.012l-0.491,0.019l-0.619,0.04
		c-2.596,0.227-5.41,0.828-7.655,2.218c-1.129,0.692-2.082,1.575-2.89,2.552c-0.773,1.02-1.411,2.086-1.623,3.548
		c-0.207,1.228,0.037,2.803,0.795,4.068c0.753,1.29,1.932,2.368,3.301,3.071c1.37,0.713,2.932,1.022,4.455,1.044
		c0.764,0.01,1.519-0.032,2.26-0.125c0.774-0.092,1.383-0.206,2.176-0.333c2.845-0.553,5.464-1.15,8.233-2.18
		c1.364-0.537,2.749-1.302,3.778-2.485c1.023-1.174,1.625-2.755,1.528-4.375V246.506z"/>
</g>
<g>
	<path d="M394.975,216.928c0.083,2.067-0.281,4.169-1.063,6.191c-0.777,2.022-1.974,3.984-3.557,5.631
		c-1.581,1.643-3.541,2.943-5.677,3.738c-2.145,0.802-4.395,1.148-6.687,1.064c-2.199-0.079-4.443-0.626-6.484-1.411
		c-2.059-0.793-3.962-1.837-5.739-3.019c-1.77-1.193-3.417-2.586-4.765-4.318c-1.341-1.733-2.405-3.78-2.778-6.176
		c-0.374-2.266-0.069-4.854,0.969-7.041c0.998-2.228,2.627-4.072,4.444-5.563c3.67-2.987,8.225-4.642,12.886-4.764
		c2.235-0.052,4.598,0.22,6.791,0.893c2.207,0.675,4.264,1.851,5.989,3.36c1.729,1.513,3.104,3.363,4.069,5.312
		c0.971,1.951,1.521,4.02,1.602,6.097V216.928L394.975,216.928z M394.375,216.95c-0.1-1.968-0.987-3.843-2.33-5.201
		c-1.344-1.376-3.077-2.247-4.803-2.821c-1.736-0.581-3.499-0.875-5.228-1.107c-1.747-0.229-3.449-0.292-5.251-0.155
		c-3.393,0.258-6.895,1.091-9.749,2.917c-1.425,0.912-2.635,2.068-3.624,3.368c-0.954,1.326-1.711,2.8-1.883,4.579
		c-0.193,1.65,0.181,3.547,1.154,5.125c0.962,1.592,2.423,2.92,4.106,3.813c1.685,0.909,3.601,1.334,5.479,1.449
		c1.898,0.117,3.72-0.096,5.557-0.363c1.744-0.276,3.509-0.646,5.202-1.112c1.697-0.479,3.401-1,5.07-1.765
		c1.66-0.755,3.301-1.795,4.511-3.3C393.796,220.886,394.493,218.927,394.375,216.95z"/>
</g>
<g>
	<path d="M517.564,260.799c-0.018,1.438-0.202,2.909-0.618,4.406c-0.411,1.495-1.083,3.043-2.13,4.385
		c-1.041,1.337-2.451,2.43-4.047,3.053c-1.615,0.634-3.28,0.849-5.061,0.658c-0.176-0.024-0.352-0.056-0.526-0.09l-0.648-0.126
		c-0.429-0.106-0.816-0.209-1.213-0.358c-0.785-0.284-1.536-0.63-2.241-1.036c-1.412-0.816-2.646-1.794-3.771-2.835
		c-2.22-2.089-4.095-4.636-4.686-8.114c-0.279-1.569-0.152-3.474,0.492-5.118c0.611-1.687,1.721-3.148,3.016-4.35
		c2.622-2.417,6.063-3.801,9.705-3.696l0.527,0.034l0.693,0.063c0.463,0.048,0.873,0.123,1.306,0.222
		c0.854,0.189,1.692,0.446,2.487,0.808c1.598,0.709,2.983,1.865,4.019,3.225c1.042,1.363,1.711,2.922,2.123,4.425
		c0.414,1.509,0.587,2.981,0.573,4.438V260.799z M516.964,260.79c-0.01-1.366-0.539-2.704-1.413-3.701
		c-0.873-1.008-2.055-1.655-3.199-2.067c-1.152-0.421-2.289-0.62-3.362-0.811c-0.54-0.09-1.074-0.17-1.612-0.205
		c-0.263-0.019-0.553-0.021-0.793-0.031l-0.361-0.002l-0.529,0.011c-1.985,0.104-4.222,0.536-5.986,1.69
		c-0.891,0.575-1.632,1.319-2.307,2.144c-0.645,0.861-1.22,1.768-1.495,3.02c-0.27,1.049-0.231,2.409,0.251,3.562
		c0.467,1.173,1.307,2.227,2.372,2.955c1.063,0.739,2.351,1.117,3.609,1.2c0.63,0.045,1.252,0.036,1.858-0.023
		c0.299-0.032,0.611-0.058,0.886-0.105l0.406-0.062c0.177-0.026,0.354-0.05,0.53-0.066c1.038-0.197,2.193-0.427,3.25-0.694
		c1.074-0.276,2.187-0.539,3.333-0.982c1.14-0.434,2.318-1.091,3.192-2.107c0.874-1.009,1.392-2.348,1.37-3.731V260.79z"/>
</g>
<g>
	<path d="M554.397,218.638c-0.004,2.297-0.91,4.539-2.252,6.474c-1.345,1.946-3.101,3.673-5.099,5.05
		c-4.01,2.792-8.981,3.866-13.699,3.473c-4.764-0.406-9.239-2.206-13.292-4.327c-2.029-1.088-3.993-2.34-5.691-4.028
		c-0.837-0.851-1.624-1.803-2.236-2.917c-0.597-1.115-1.048-2.384-1.173-3.73c-0.286-2.709,0.731-5.537,2.372-7.585
		c1.619-2.108,3.742-3.603,5.925-4.777c4.394-2.33,9.272-3.426,14.096-3.342c2.41,0.054,4.823,0.363,7.162,0.999
		c2.338,0.639,4.572,1.709,6.571,3.104c1.996,1.398,3.752,3.135,5.101,5.089c1.345,1.946,2.244,4.202,2.216,6.513V218.638z
		 M553.797,218.632c0.001-2.153-1.193-4.134-2.815-5.428c-1.635-1.322-3.636-2.072-5.619-2.576c-1.994-0.506-4.01-0.767-6.002-1.003
		c-1.995-0.235-4.004-0.341-6.014-0.289c-3.997,0.105-8.037,0.597-11.653,2.052c-1.797,0.728-3.431,1.72-4.795,2.888
		c-1.327,1.192-2.402,2.601-2.659,4.355c-0.288,1.73,0.327,3.717,1.622,5.293c1.284,1.588,3.078,2.823,5.027,3.637
		c1.955,0.827,4.09,1.193,6.197,1.304c2.114,0.112,4.211-0.055,6.261-0.235c2.053-0.193,4.064-0.44,6.063-0.748
		c1.994-0.32,3.996-0.645,5.988-1.174c1.98-0.525,3.982-1.285,5.62-2.615c1.625-1.306,2.813-3.301,2.779-5.467V218.632z"/>
</g>
<g id="boy">
	<path fill="#010101" d="M399.25,259.913c-20.807-3.464-40.234,11.603-51.349,27.757c-12.533,18.222-18.726,40.413-21.35,62.162
		c-2.646,21.929-2.421,45.309,9.473,64.685c13.106,21.349,38.442,29.024,62.299,27.513c14.907-0.944,29.947-5.165,42.868-12.723
		c6.604-3.863,12.832-8.933,17.232-15.236c4.367-6.254,6.655-13.646,7.573-21.16c0.917-7.512,0.618-15.091,0.316-22.629
		c-0.315-7.919-0.868-15.747-2.017-23.595c-2.295-15.677-5.77-31.965-11.637-46.729c-3.91-9.842-10.35-19.093-17.25-27.052
		c-6.501-7.496-15.535-16.261-26.231-15.313c-4.118,0.365-9.248,8.021-3.21,9.383c3.708,0.837,8.62,3.747,11.949,6.498
		c4.85,4.007,9.027,8.824,12.83,13.813c3.505,4.596,6.642,9.477,9.264,14.629c2.911,5.718,4.707,11.969,6.503,18.104
		c4.604,15.729,7.75,32.048,8.54,48.437c0.637,13.187,2.801,29.487-4.868,41.161c-7.569,11.521-23.055,17.112-35.824,20.155
		c-12.421,2.958-25.786,3.185-38.188,0.071c-10.614-2.665-20.173-8.529-27.263-16.859c-7.681-9.023-11.66-20.622-13.083-32.255
		c-2.447-20.003,0.417-41.288,6.018-60.524c5.483-18.831,14.503-38.579,31.785-49.313c7.416-4.604,15.875-6.178,24.385-7.381
		C399.49,263.305,401.656,260.315,399.25,259.913L399.25,259.913z"/>
	<path fill="#010101" d="M352.752,365.929c1.2,0.021,2.39-0.345,3.562-0.591c1.27-0.269,1.563-0.354,2.963-0.48
		c2.275-0.206,4.605-2.367,4.479-4.759c-0.143-2.678-3.033-2.646-4.845-1.77c-1.013,0.49-2.003,1.025-3.01,1.529
		c-0.64,0.32-1.277,0.646-1.918,0.968c-0.278,0.141-0.558,0.28-0.836,0.424c0.489-0.251-1.479,1.055-0.633,0.454
		C350.923,362.834,349.825,365.878,352.752,365.929L352.752,365.929z"/>
	<path fill="#010101" d="M359.279,364.644c0.49,6.743,6.978,10.425,12.703,12.394c7.263,2.496,15.405,2.46,22.966,1.821
		c8.2-0.69,16.378-2.471,24.18-5.069c6.392-2.132,13.051-4.93,18.246-9.323c1.52-1.284,2.191-3.095,1.747-5.012
		c-0.355-1.54-0.327-2.891-1.101-4.342c-2.382,2.092-4.766,4.184-7.146,6.272c1.687,0.961,3.281,2.783,5.363,2.613
		c0.667-0.055,0.885-0.195,1.383-0.313c0.66-0.218,1.249-0.557,1.771-1.019c-1.149,0.822-1.149,0.822,0,0
		c1.421-1.353,2.388-3.131,1.832-5.139c-0.55-1.979-2.799-3.048-4.487-3.884c-4.008-1.98-8.948,3.356-6.638,7.122
		c0.562,0.913,0.53,2.337,0.832,3.354c0.581-1.671,1.164-3.341,1.747-5.012c-1.761,1.637-2.668,2.232-5.322,3.695
		c-2.585,1.426-5.293,2.581-8.05,3.627c-6.949,2.638-14.234,4.458-21.594,5.489c-7.092,0.993-14.37,1.207-21.409-0.256
		c-6.005-1.249-10.197-4.468-14.646-8.388C360.749,362.484,359.198,363.521,359.279,364.644z"/>
	<path fill="#010101" d="M333.507,332.781c-0.057-2.224-0.122-3.548-1.338-5.518c-1.031-1.672-2.957-2.41-4.732-3.01
		c-4.17-1.407-9.083-0.24-12.921,1.554c-7.188,3.359-11.189,10.917-10.469,18.694c0.638,6.897,4.674,13.51,10.337,17.425
		c6.242,4.313,13.419,2.293,18.229-3.028c1.558-1.725,0.848-4.981-1.854-4.657c-2.17,0.262-5.154,1.602-5.678,4.04
		c-0.531,2.481,2.647,2.691,4.273,2.511c-0.619-1.553-1.236-3.104-1.854-4.657c-2.376,2.596-5.987,1.67-9.026-0.369
		c-4.028-2.701-6.568-7.476-7.729-12.063c-1.138-4.497,0.007-9.474,3.954-12.188c4.17-2.868,15.217-4.92,16.837,2.138
		C331.794,334.782,333.528,333.609,333.507,332.781L333.507,332.781z"/>
	<path fill="#010101" d="M457.788,330.813c2.472-6.508,11.13-9.562,17.313-7.133c6.057,2.379,11.411,8.452,11.593,15.097
		c0.143,5.169-3.441,9.951-7.51,12.776c-2.516,1.75-5.305,2.874-8.27,3.601c-3.317,0.813-7.593-0.451-10.488,1.387
		c-1.067,0.679-2.486,2.293-1.79,3.697c1.784,3.605,8.773,1.925,11.944,1.276c4.321-0.885,8.467-2.954,11.979-5.586
		c6.301-4.717,11.069-12.197,10.346-20.309c-0.76-8.521-9.063-16.601-17.362-17.907c-4.423-0.697-9.192,0.667-12.839,3.17
		c-3.699,2.541-5.508,5.635-6.582,9.853C455.842,331.842,457.495,331.582,457.788,330.813L457.788,330.813z"/>
	<path fill="#010101" d="M468.336,337.333c0.98-0.063,2.182-1.066,2.955-0.672c0.531,0.271,0.929,1.424,1.053,2.261
		c0.168,1.133-0.002,2.706-0.269,3.437c-0.109,0.303-0.256,0.589-0.399,0.875c0.337-0.664-0.741,0.803-0.021,0.068
		c-0.507,0.518,0.187-0.068,0.374-0.148c-0.563,0.241-1.146,0.383-1.684,0.71c-2.338,1.425-3.525,5.716,0.321,5.736
		c2.91,0.017,5.567-3.165,6.535-5.646c0.929-2.381,0.996-4.884,0.367-7.344c-0.511-2-1.915-3.712-3.993-4.131
		c-2.291-0.463-5.729,1.396-6.186,3.774C467.268,336.888,467.692,337.372,468.336,337.333L468.336,337.333z"/>
	<path fill="#010101" d="M322.187,335.946c-3.435-0.727-6.787,2.892-8.092,5.66c-1.808,3.832-0.381,7.75,2.818,10.216
		c2.783,2.146,7.784-4.061,4.316-5.697c-1.604-0.76-2.84-1.92-2.588-3.835c0.278-2.124,2.167-2.859,3.696-3.973
		C323.127,337.74,323.376,336.197,322.187,335.946z"/>
	<path fill="#010101" d="M378.789,322.258c-1.647,3.432-2.137,7.737-2.434,11.494c-0.328,4.157-0.135,8.435,1.866,12.188
		c1.966,3.687,7.016,1.346,8.371-1.706c2.117-4.766,3.182-9.94,3.082-15.159c-0.047-2.425-0.587-4.97-1.664-7.144
		c-0.543-1.098-1.26-2.103-2.108-2.98c-0.432-0.389-0.881-0.757-1.346-1.104c-0.088-0.048-3.488-0.916-1.627-0.438
		c-3.041-0.78-6.521,2.271-7.081,5.105c-0.762,3.855-1.166,9.097,0.13,12.842c0.708,2.046,3.177,2.39,4.975,1.814
		c2.311-0.739,3.95-2.619,4.612-4.904c1.126-3.883,0.737-8.922-0.126-12.843c-1.495,2.403-2.991,4.807-4.486,7.21
		c-0.214,0.061-0.427,0.121-0.642,0.181c-1.029-0.366-2.059-0.731-3.088-1.1c5.073,4.219,2.64,12.808,0.881,18.126
		c2.742-1.229,5.486-2.46,8.229-3.689c-3.952-5.641-0.332-12.938-2.32-18.955C383.139,318.543,379.53,320.718,378.789,322.258
		L378.789,322.258z"/>
	<path fill="#010101" d="M402.773,320.834c-3.663,2.754-4.664,8.431-5.227,12.686c-0.656,4.979-0.666,10.266,1.176,15.004
		c1.746,4.486,7.4,0.787,8.854-1.804c4.572-8.141,7.02-20.42,1.367-28.491c-2.457-3.507-7.943,0.422-9.17,3.008
		c-0.869,1.834-1.711,3.887-1.34,5.938c1.025,5.641,7.43,2.542,9.332-0.758c0.625-1.082,0.98-2.269,1.479-3.415
		c-3.056,1.003-6.11,2.005-9.168,3.008c2.331,1.966,2.076,5.971,1.758,8.717c-0.42,3.594-1.465,7.063-2.832,10.396
		c2.768-0.908,5.533-1.815,8.302-2.726c-1.869-2.829-1.994-7.168-2.089-10.426c-0.102-3.507,1.021-7.065,0.749-10.513
		C405.82,319.64,403.769,320.083,402.773,320.834L402.773,320.834z"/>
	<path fill="#010101" d="M356.113,431.706c-9.587,17.985-5.95,39.792-4.888,59.256c0.125,2.298,1.974,3.228,4.029,3.25
		c16.158,0.176,31.83,4.818,48.007,4.768c8.153-0.027,16.291-0.861,24.386-1.776c4.051-0.457,8.099-0.949,12.15-1.396
		c4.188-0.462,8.465-0.593,12.584-1.488c1.969-0.429,3.81-2.312,4.637-4.068c0.789-1.679,0.979-4.911-1.273-5.711
		c-1.779-0.629-2.752-0.701-4.612-0.391c-2.582,0.435-5.028,2.479-4.978,5.288c0.029,1.553,0.464,2.659,1.365,3.928
		c2.348-3.078,4.696-6.155,7.045-9.232c-4.135-0.306-8.337,0.392-12.447,0.85c-4.055,0.451-8.104,0.951-12.156,1.423
		c-8.107,0.942-16.231,1.714-24.396,1.822c-16.164,0.214-32.021-4.921-48.221-3.768c1.265,0.707,2.53,1.411,3.794,2.116
		c-5.212-17.447-6.261-36.925-2.081-54.73C359.545,429.764,356.737,430.535,356.113,431.706L356.113,431.706z"/>
	<path fill="#010101" d="M444.416,424.948c-0.418,4.277,0.576,8.851,1.2,13.086c1.024,6.956,1.958,13.925,2.8,20.904
		c0.823,6.829,1.551,13.688,1.851,20.563c0.104,2.433,0.145,4.878-0.021,7.31c0.089-1.299-0.259,1.056-0.395,1.553
		c-0.159,0.523-0.078,0.295,0.243-0.688c-0.2,0.55-0.415,1.097-0.566,1.662c-0.148,0.558-0.224,1.235-0.181,1.773
		c0.283,3.576,4.112,3.761,6.65,2.428c5.482-2.88,4.549-10.196,4.101-15.331c-0.591-6.774-1.781-13.507-3.003-20.19
		c-1.319-7.202-2.824-14.369-4.391-21.521c-0.902-4.122-1.796-9.858-3.66-13.042C447.878,421.46,444.618,422.865,444.416,424.948
		L444.416,424.948z"/>
	<path fill="#010101" d="M359.269,490.81c-4.312,8.234-3.104,18.81-3.638,27.791c-0.089,1.513,1.584,2.591,2.952,2.381
		c13.63-2.093,27.167,1.921,40.828,0.896c2.359-0.179,5.11-2.601,4.841-5.146c-0.283-2.682-0.06-5.667,1.9-7.741
		c-1.662,0.347-3.322,0.691-4.981,1.035c4.438,2.837,10.055,6.079,11.497,11.521c0.506,1.907,2.785,1.851,4.256,1.553
		c11.521-2.327,23.287,2.756,34.79-0.543c1.73-0.496,3.846-2.36,4.018-4.271c0.693-7.719,2.895-32.223-10.518-29.323
		c-2.62,0.563-5.216,4.923-2.313,6.723c0.623,0.386,1.879,1.593,2.514,2.893c0.969,1.985,1.347,4.211,1.63,6.38
		c0.575,4.44,0.545,10.342,0.229,14.016c1.339-1.422,2.678-2.847,4.017-4.271c-5.211,1.517-10.902,0.729-16.218,0.273
		c-6.255-0.534-12.382-0.869-18.564,0.405c1.419,0.517,2.838,1.034,4.257,1.553c-1.804-6.685-8.616-10.728-14.134-14.112
		c-2.06-1.264-4.487,0.483-5.817,1.934c-3.636,3.957-5.218,9.241-4.588,14.552c1.614-1.715,3.227-3.431,4.842-5.146
		c-13.688,1.172-27.283-2.646-40.95-0.324c0.982,0.794,1.968,1.588,2.951,2.381c-0.619-8.625-1.542-16.637,0.205-25.221
		C363.848,488.159,360.12,489.184,359.269,490.81L359.269,490.81z"/>
	<path fill="#010101" d="M382.946,440.579c-1.299,4.039-0.961,7.808,2.695,10.437c3.604,2.589,7.925,3.618,12.278,3.989
		c4.479,0.381,9.437,0.375,13.008-2.719c3.355-2.903,5.737-8.281,5.816-12.703c0.095-5.238-6.146-4.366-7.312-0.178
		c-0.398,1.434-0.082,3.421-0.574,5.206c-0.252,0.909-0.684,1.875-1.18,2.675c-0.235,0.36-0.493,0.706-0.77,1.035
		c-0.314,0.397,1.025-0.371-0.245,0.073c-3.815,1.339-9.204,0.687-13.045-0.298c-4.698-1.204-7.95-3.033-9.064-8.037
		C384.344,439.115,383.093,440.119,382.946,440.579L382.946,440.579z"/>
	<path fill="#010101" d="M356.043,430.92c-4.57,0.081-9.034,3.555-12.374,6.344c-4.1,3.423-7.635,7.707-10.169,12.404
		c-0.494,0.917-0.63,2.504,0.209,3.295c3.983,3.76,10.318,4.379,13.521,8.974c1.015,1.454,3.164,0.402,4.191-0.34
		c4.09-2.952,1.427-6.984-1.802-8.953c-3.034-1.85-7.133-2.672-9.791-5.051c0.068,1.098,0.139,2.194,0.208,3.294
		c1.814-3.656,4.055-6.942,6.968-9.821c2.922-2.888,6.521-4.791,9.626-7.409C357.674,432.78,357.735,430.892,356.043,430.92z"/>
	<path fill="#010101" d="M448.492,420.948c-4.224,3.938,5.842,11.921,8.318,14.007c5.322,4.483,12.582,8.744,16.049,14.97
		c1.485-1.927,2.97-3.853,4.453-5.777c-4.608,0.189-9.005,1.791-13.145,3.717c-4.055,1.889-9.923,4.504-12.071,8.557
		c-1.069,2.016,0.235,3.832,2.36,3.859c2.089,0.026,3.58-1.174,5.281-2.229c1.673-1.043,3.379-2.025,5.117-2.957
		c3.452-1.85,7.012-2.984,10.874-3.565c2.56-0.387,6.325-3.794,4.01-6.515c-4.788-5.628-11.294-9.65-17.313-13.815
		c-2.98-2.062-5.947-4.188-8.571-6.7C452.788,423.473,450.355,419.214,448.492,420.948L448.492,420.948z"/>
	<path fill="#010101" d="M372.469,517.522c-6.669,10.366-5.104,23.676-2.519,35.063c1.384-1.476,2.769-2.95,4.152-4.426
		c-3.683-0.584-7.79-0.331-10.943,1.855c-2.864,1.983-4.401,5.387-2.503,8.582c3.796,6.386,12.359,6.57,18.628,4.345
		c3.051-1.084,6.153-3.143,7.655-6.102c1.548-3.048,1.03-6.528,0.396-9.746c-1.732-8.804-4.261-18.579-0.659-27.312
		c1.832-4.44-4.245-4.419-5.832-1.087c-0.62,1.303-0.833,2.484-0.286,3.853c0.82,2.048,3.706,0.984,4.632-0.376
		c0.543-0.798,1.068-1.513,1.486-2.39c-1.943-0.361-3.888-0.725-5.832-1.087c-2.534,6.222-2.547,13.271-2.047,19.895
		c0.413,5.461,2.99,10.608,2.877,16.134c-0.072,3.458-7.42,3.727-9.652,3.484c-2.541-0.275-4.342-1.521-5.902-3.513
		c-0.03-0.595-0.147-0.771-0.354-0.526c-0.26,0.727,0.187,0.046,0.784-0.167c1.547-0.552,3.306-0.442,4.898-0.215
		c2.04,0.297,5.241-2.119,4.152-4.425c-4.706-9.964-4.394-21.101-1.016-31.44C375.031,516.556,372.988,516.715,372.469,517.522
		L372.469,517.522z"/>
	<path fill="#010101" d="M428.942,521.168c-1.178,5.4-0.896,11.341-0.648,16.836c0.255,5.628,0.531,11.413,1.27,16.988
		c1.215-1.291,2.43-2.58,3.645-3.87c-3.84,0.117-7.669,1.647-9.711,5.052c-1.852,3.088-0.762,6.518,2.034,8.582
		c5.863,4.332,15.229,1.43,20.83-2.111c1.523-0.964,2.441-2.424,2.05-4.232c-1.799-8.326-4.098-16.215-4.023-24.805
		c0.021-2.498,0.043-4.997,0.063-7.495c0.016-1.609,0.314-3.559-0.238-5.106c-1.284-3.599-7.321,0.286-6.169,3.516
		c0.074,0.208,0.147,0.415,0.223,0.623c1.146,3.207,5.231,0.042,5.802-1.87c0.076-0.255,0.152-0.512,0.229-0.768
		c0.487-1.646-0.92-2.979-2.502-2.852c-1.88,0.153-3.32,1.637-3.834,3.364c-0.471,1.581-0.171,3.6-0.157,5.224
		c0.023,2.629,0.047,5.258,0.068,7.887c0.077,8.88,2.604,17.119,4.517,25.718c0.683-1.411,1.365-2.822,2.049-4.232
		c-3.128,1.996-7.206,3.423-10.953,3.229c-1.844-0.095-3.83-0.953-4.675-2.697c-0.558-1.146,2.512-1.187,3.151-1.217
		c1.658-0.075,4.005-2.021,3.645-3.87c-1.078-5.527-2.108-10.928-2.618-16.557c-0.478-5.286-0.383-10.941-1.677-16.098
		C430.98,519.088,429.112,520.389,428.942,521.168L428.942,521.168z"/>
	<path fill="#010101" d="M337.281,455.645c-1.561,1.188-2.092,3.725-2.88,5.457c-1.143,2.51-2.398,4.971-3.678,7.413
		c-1.359,2.598-2.809,5.146-4.208,7.723c-1.21,2.23-2.121,4.945-3.568,7.015c1.628,0.565,3.255,1.132,4.883,1.696
		c0.445-1.164,1.922-5.821-1.049-5.355c-2.809,0.44-5.012,2.903-4.572,5.813c0.602,3.994,5.777,0.967,5.931-1.9
		c0.12-2.245,2.105-5.225,3.046-7.232c1.229-2.623,2.523-5.211,3.809-7.806c1.196-2.418,2.341-4.852,3.255-7.392
		c0.501-1.392,1.865-4.317,0.56-5.555C338.341,455.077,337.733,455.3,337.281,455.645z"/>
	<path fill="#010101" d="M321.202,489.966c-2.895-1.234-6.354,0.129-9.092,1.358c-1.598,0.719-3.425,1.98-3.78,3.804
		c-0.373,1.899,1.026,2.887,2.749,2.89c1.688,0.003,3.206-2.164,2.233-3.629c0.479,0.721-1.479,2.729-0.665,2.135
		c0.256-0.229,0.483-0.481,0.683-0.759c-0.341,0.351-0.374,0.396-0.1,0.144c0.267-0.207,0.263-0.213-0.013-0.013
		c0.169-0.114,0.341-0.226,0.516-0.331c0.48-0.3,0.986-0.557,1.492-0.811c0.883-0.441,1.789-0.842,2.697-1.228
		c0.399-0.171,0.811-0.313,1.217-0.47c0.263-0.089,0.508-0.212,0.734-0.369c1.414-0.88-0.307,0.035,0.486-0.272
		C321.067,492.14,322.495,490.517,321.202,489.966z"/>
	<path fill="#010101" d="M323.498,493.029c-2.77,1.357-5.309,3.192-6.971,5.842c-1.397,2.23-2.459,6.689,1.215,7.318
		c1.516,0.259,2.985-1.163,3.004-2.637c0.021-1.66-0.735-2.555,0.26-4.104c1.019-1.588,2.376-3.029,3.763-4.299
		C326.058,493.971,325.188,492.198,323.498,493.029z"/>
	<path fill="#010101" d="M327.695,496.654c-1.441,1.906-2.028,4.685-2.491,6.991c-0.371,1.849-0.63,5.297,1.312,6.344
		c1.526,0.824,3.514-0.718,3.821-2.22c0.325-1.592-0.287-3.457-0.256-5.108c0.034-1.892,0.486-4.026,0.277-5.877
		C330.186,495.273,328.338,495.804,327.695,496.654z"/>
	<path fill="#010101" d="M331.924,494.648c0.936,1.092,1.588,2.037,2.098,3.392c0.593,1.577,0.458,3.29,1.21,4.811
		c1.097,2.216,3.854,0.214,4.338-1.397c1.219-4.061-1.851-9.009-6.172-9.2C332.383,492.204,331.156,493.752,331.924,494.648
		L331.924,494.648z"/>
	<path fill="#010101" d="M342.595,463.834c-4.698,7.62-10.225,15.144-11.639,24.209c-0.606,3.885,5.059,2.541,5.524-0.447
		c0.143-0.909,0.03-1.672-0.157-2.563c-0.614-2.92-4.947-0.053-5.28,1.701c-0.121,0.637-0.255,1.34-0.146,1.989
		c0.613,3.603,6.133,1.095,5.641-1.808c-0.621-3.649,1.593-8.114,3.019-11.354c1.628-3.699,3.473-7.301,4.986-11.051
		C345.112,463.101,343.256,462.761,342.595,463.834L342.595,463.834z"/>
	<path fill="#010101" d="M463.661,459.195c3.146,5.712,6.976,10.909,10.497,16.387c1.053,1.637,2.042,3.309,2.971,5.018
		c0.966,1.778,0.627,3.839,0.57,5.779c-0.103,3.57-0.126,7.146-0.174,10.719c-0.054,3.896,6.18,1.602,6.47-1.308
		c0.214-2.151,1.152-4.64-1.19-5.86c-0.838-0.438-1.897-0.063-2.557,0.532c-1.941,1.753-2.537,4.096-2.724,6.636
		c2.179-0.698,4.358-1.396,6.536-2.095c-0.063-4.651-0.135-9.302-0.271-13.949c-0.019-0.665-0.398-1.365-1.01-1.663
		c-1.679-0.82-2.922-3.611-3.984-5.076c-1.461-2.015-3.021-3.956-4.594-5.885c-2.914-3.583-6.035-6.865-9.312-10.111
		C464.418,457.848,463.337,458.603,463.661,459.195L463.661,459.195z"/>
	<path fill="#010101" d="M486.735,488.228c-0.758,3.455,0.456,6.561,2.24,9.494c1.431,2.354,3.883,5.586,6.714,6.242
		c2.019,0.47,5.372-2.701,3.503-4.593c-1.728-1.743-3.822-2.937-5.47-4.846c-1.819-2.111-3.328-4.548-4.255-7.179
		C488.951,485.887,486.946,487.265,486.735,488.228z"/>
	<path fill="#010101" d="M493.533,488.032c1.714,2.121,3.417,4.212,5.04,6.408c1.535,2.073,3.321,5.637,6.228,5.325
		c1.033-0.109,2.163-0.966,2.328-2.043c0.264-1.7-0.199-2.231-1.371-3.425c-1.084-1.104-2.197-2.18-3.289-3.275
		c-1.978-1.985-4.185-4.063-6.61-5.483C494.58,484.794,492.548,486.812,493.533,488.032z"/>
	<path fill="#010101" d="M495.23,483.271c1.176,1.055,2.487,1.92,3.62,3.039c1.24,1.225,2.333,3.314,3.952,3.997
		c1.714,0.725,3.911-0.893,3.823-2.75c-0.103-2.195-2.1-3.632-3.698-4.884c-1.471-1.15-3.641-2.099-5.5-2.284
		C496.283,480.277,493.886,482.064,495.23,483.271z"/>
	<path fill="#010101" d="M466.199,452.163c1.031,2.426,2.85,4.351,4.576,6.298c2.614,2.945,5.385,5.743,8.083,8.609
		c2.577,2.737,5.121,5.521,7.417,8.501c0.787,1.021,1.529,2.074,2.093,3.235c0.156,0.322,0.034,0.955,0.225,1.338
		c0.128,0.261,0.87,1.558,0.595,0.903c0.861,2.043,3.669,0.987,4.632-0.376c2.015-2.854,0.633-4.938-1.187-7.396
		c-2.186-2.954-4.988-5.479-7.674-7.966c-5.418-5.014-11.019-9.847-16.564-14.713C467.493,449.808,465.719,451.031,466.199,452.163
		L466.199,452.163z"/>
	<path fill="#010101" d="M388.554,261.708c-5.355-0.128-11.254,6.013-13.865,10.128c-3.084,4.86-6.088,12.408-3.247,17.979
		c1.789,3.506,6.845,0.646,7.378-2.378c0.757-4.271,0.665-8.41,2.542-12.428c0.862-1.846,2.104-3.528,3.415-5.073
		c1.533-1.804,3.63-2.967,5.156-4.766C391.187,263.698,390.49,261.755,388.554,261.708z"/>
	<path fill="#010101" d="M397.685,267.556c-5.896,1.506-9.865,5.796-12.252,11.313c-1.804,4.168-4.67,12.645-0.914,16.462
		c1.949,1.979,4.877-0.038,5.922-1.942c1.959-3.575,1.606-8.13,2.504-12.05c0.771-3.37,2.576-7.833,5.549-9.879
		C400.326,270.197,400.746,266.772,397.685,267.556L397.685,267.556z"/>
	<path fill="#010101" d="M402.711,275.901c-1.706,4.678-4.102,10.297-3.696,15.344c0.415,5.198,7.989,2.041,8.482-1.715
		c0.585-4.434-0.255-8.903,0.259-13.394C408.143,272.755,403.605,273.447,402.711,275.901z"/>
</g>
<g id="boy_1_">
	<path fill="#010101" d="M195.916,259.913c-20.807-3.464-40.234,11.603-51.349,27.757c-12.533,18.222-18.726,40.413-21.35,62.162
		c-2.646,21.929-2.421,45.309,9.473,64.685c13.106,21.349,38.442,29.024,62.299,27.513c14.907-0.944,29.947-5.165,42.868-12.723
		c6.604-3.863,12.832-8.933,17.232-15.236c4.367-6.254,6.655-13.646,7.573-21.16c0.917-7.512,0.618-15.091,0.316-22.629
		c-0.315-7.919-0.868-15.747-2.017-23.595c-2.295-15.677-5.77-31.965-11.637-46.729c-3.91-9.842-10.35-19.093-17.25-27.052
		c-6.501-7.496-15.535-16.261-26.231-15.313c-4.118,0.365-9.248,8.021-3.21,9.383c3.708,0.837,8.62,3.747,11.949,6.498
		c4.85,4.007,9.027,8.824,12.83,13.813c3.505,4.596,6.642,9.477,9.264,14.629c2.911,5.718,4.707,11.969,6.503,18.104
		c4.604,15.729,7.75,32.048,8.54,48.437c0.637,13.187,2.801,29.487-4.868,41.161c-7.569,11.521-23.055,17.112-35.824,20.155
		c-12.421,2.958-25.786,3.185-38.188,0.071c-10.614-2.665-20.173-8.529-27.263-16.859c-7.681-9.023-11.66-20.622-13.083-32.255
		c-2.447-20.003,0.417-41.288,6.018-60.524c5.483-18.831,14.503-38.579,31.785-49.313c7.416-4.604,15.875-6.178,24.385-7.381
		C196.156,263.305,198.323,260.315,195.916,259.913L195.916,259.913z"/>
	<path fill="#010101" d="M149.418,365.929c1.2,0.021,2.39-0.345,3.562-0.591c1.27-0.269,1.563-0.354,2.963-0.48
		c2.275-0.206,4.605-2.367,4.479-4.759c-0.143-2.678-3.033-2.646-4.845-1.77c-1.013,0.49-2.003,1.025-3.01,1.529
		c-0.64,0.32-1.277,0.646-1.918,0.968c-0.278,0.141-0.558,0.28-0.836,0.424c0.489-0.251-1.479,1.055-0.633,0.454
		C147.589,362.834,146.491,365.878,149.418,365.929L149.418,365.929z"/>
	<path fill="#010101" d="M155.945,364.644c0.49,6.743,6.978,10.425,12.703,12.394c7.263,2.496,15.405,2.46,22.966,1.821
		c8.2-0.69,16.378-2.471,24.18-5.069c6.392-2.132,13.051-4.93,18.246-9.323c1.52-1.284,2.191-3.095,1.747-5.012
		c-0.355-1.54-0.327-2.891-1.101-4.342c-2.382,2.092-4.766,4.184-7.146,6.272c1.687,0.961,3.281,2.783,5.363,2.613
		c0.667-0.055,0.885-0.195,1.383-0.313c0.66-0.218,1.249-0.557,1.771-1.019c-1.149,0.822-1.149,0.822,0,0
		c1.421-1.353,2.388-3.131,1.832-5.139c-0.55-1.979-2.799-3.048-4.487-3.884c-4.008-1.98-8.948,3.356-6.638,7.122
		c0.562,0.913,0.53,2.337,0.832,3.354c0.581-1.671,1.164-3.341,1.747-5.012c-1.761,1.637-2.668,2.232-5.322,3.695
		c-2.585,1.426-5.293,2.581-8.05,3.627c-6.949,2.638-14.234,4.458-21.594,5.489c-7.092,0.993-14.37,1.207-21.409-0.256
		c-6.005-1.249-10.197-4.468-14.646-8.388C157.415,362.484,155.864,363.521,155.945,364.644z"/>
	<path fill="#010101" d="M130.173,332.781c-0.057-2.224-0.122-3.548-1.338-5.518c-1.031-1.672-2.957-2.41-4.732-3.01
		c-4.17-1.407-9.083-0.24-12.921,1.554c-7.188,3.359-11.189,10.917-10.469,18.694c0.638,6.897,4.674,13.51,10.337,17.425
		c6.242,4.313,13.419,2.293,18.229-3.028c1.558-1.725,0.848-4.981-1.854-4.657c-2.17,0.262-5.154,1.602-5.678,4.04
		c-0.531,2.481,2.647,2.691,4.273,2.511c-0.619-1.553-1.236-3.104-1.854-4.657c-2.376,2.596-5.987,1.67-9.026-0.369
		c-4.028-2.701-6.568-7.476-7.729-12.063c-1.138-4.497,0.007-9.474,3.954-12.188c4.17-2.868,15.217-4.92,16.837,2.138
		C128.46,334.782,130.194,333.609,130.173,332.781L130.173,332.781z"/>
	<path fill="#010101" d="M254.454,330.813c2.472-6.508,11.13-9.562,17.313-7.133c6.057,2.379,11.411,8.452,11.593,15.097
		c0.143,5.169-3.441,9.951-7.51,12.776c-2.516,1.75-5.305,2.874-8.27,3.601c-3.317,0.813-7.593-0.451-10.488,1.387
		c-1.067,0.679-2.486,2.293-1.79,3.697c1.784,3.605,8.773,1.925,11.944,1.276c4.321-0.885,8.467-2.954,11.979-5.586
		c6.301-4.717,11.069-12.197,10.346-20.309c-0.76-8.521-9.063-16.601-17.362-17.907c-4.423-0.697-9.192,0.667-12.839,3.17
		c-3.699,2.541-5.508,5.635-6.582,9.853C252.508,331.842,254.161,331.582,254.454,330.813L254.454,330.813z"/>
	<path fill="#010101" d="M265.002,337.333c0.98-0.063,2.182-1.066,2.955-0.672c0.531,0.271,0.929,1.424,1.053,2.261
		c0.168,1.133-0.002,2.706-0.269,3.437c-0.109,0.303-0.256,0.589-0.399,0.875c0.337-0.664-0.741,0.803-0.021,0.068
		c-0.507,0.518,0.187-0.068,0.374-0.148c-0.563,0.241-1.146,0.383-1.684,0.71c-2.338,1.425-3.525,5.716,0.321,5.736
		c2.91,0.017,5.567-3.165,6.535-5.646c0.929-2.381,0.996-4.884,0.367-7.344c-0.511-2-1.915-3.712-3.993-4.131
		c-2.291-0.463-5.729,1.396-6.186,3.774C263.934,336.888,264.358,337.372,265.002,337.333L265.002,337.333z"/>
	<path fill="#010101" d="M118.853,335.946c-3.435-0.727-6.787,2.892-8.092,5.66c-1.808,3.832-0.381,7.75,2.818,10.216
		c2.783,2.146,7.784-4.061,4.316-5.697c-1.604-0.76-2.84-1.92-2.588-3.835c0.278-2.124,2.167-2.859,3.696-3.973
		C119.793,337.74,120.042,336.197,118.853,335.946z"/>
	<path fill="#010101" d="M175.455,322.258c-1.647,3.432-2.137,7.737-2.434,11.494c-0.328,4.157-0.135,8.435,1.866,12.188
		c1.966,3.687,7.016,1.346,8.371-1.706c2.117-4.766,3.182-9.94,3.082-15.159c-0.047-2.425-0.587-4.97-1.664-7.144
		c-0.543-1.098-1.26-2.103-2.108-2.98c-0.432-0.389-0.881-0.757-1.346-1.104c-0.088-0.048-3.488-0.916-1.627-0.438
		c-3.041-0.78-6.521,2.271-7.081,5.105c-0.762,3.855-1.166,9.097,0.13,12.842c0.708,2.046,3.177,2.39,4.975,1.814
		c2.311-0.739,3.95-2.619,4.612-4.904c1.126-3.883,0.737-8.922-0.126-12.843c-1.495,2.403-2.991,4.807-4.486,7.21
		c-0.214,0.061-0.427,0.121-0.642,0.181c-1.029-0.366-2.059-0.731-3.088-1.1c5.073,4.219,2.64,12.808,0.881,18.126
		c2.742-1.229,5.486-2.46,8.229-3.689c-3.952-5.641-0.332-12.938-2.32-18.955C179.805,318.543,176.196,320.718,175.455,322.258
		L175.455,322.258z"/>
	<path fill="#010101" d="M199.439,320.834c-3.663,2.754-4.664,8.431-5.227,12.686c-0.656,4.979-0.666,10.266,1.176,15.004
		c1.746,4.486,7.4,0.787,8.854-1.804c4.572-8.141,7.02-20.42,1.367-28.491c-2.457-3.507-7.943,0.422-9.17,3.008
		c-0.869,1.834-1.711,3.887-1.34,5.938c1.025,5.641,7.43,2.542,9.332-0.758c0.625-1.082,0.98-2.269,1.479-3.415
		c-3.056,1.003-6.11,2.005-9.168,3.008c2.331,1.966,2.076,5.971,1.758,8.717c-0.42,3.594-1.465,7.063-2.832,10.396
		c2.768-0.908,5.533-1.815,8.302-2.726c-1.869-2.829-1.994-7.168-2.089-10.426c-0.102-3.507,1.021-7.065,0.749-10.513
		C202.486,319.64,200.435,320.083,199.439,320.834L199.439,320.834z"/>
	<path fill="#010101" d="M152.779,431.706c-9.587,17.985-5.95,39.792-4.888,59.256c0.125,2.298,1.974,3.228,4.029,3.25
		c16.158,0.176,31.83,4.818,48.007,4.768c8.153-0.027,16.291-0.861,24.386-1.776c4.051-0.457,8.099-0.949,12.15-1.396
		c4.188-0.462,8.465-0.593,12.584-1.488c1.969-0.429,3.81-2.312,4.637-4.068c0.789-1.679,0.979-4.911-1.273-5.711
		c-1.779-0.629-2.752-0.701-4.612-0.391c-2.582,0.435-5.028,2.479-4.978,5.288c0.029,1.553,0.464,2.659,1.365,3.928
		c2.348-3.078,4.696-6.155,7.045-9.232c-4.135-0.306-8.337,0.392-12.447,0.85c-4.055,0.451-8.104,0.951-12.156,1.423
		c-8.107,0.942-16.231,1.714-24.396,1.822c-16.164,0.214-32.021-4.921-48.221-3.768c1.265,0.707,2.53,1.411,3.794,2.116
		c-5.212-17.447-6.261-36.925-2.081-54.73C156.211,429.764,153.403,430.535,152.779,431.706L152.779,431.706z"/>
	<path fill="#010101" d="M241.082,424.948c-0.418,4.277,0.576,8.851,1.2,13.086c1.024,6.956,1.958,13.925,2.8,20.904
		c0.823,6.829,1.551,13.688,1.851,20.563c0.104,2.433,0.145,4.878-0.021,7.31c0.089-1.299-0.259,1.056-0.395,1.553
		c-0.159,0.523-0.078,0.295,0.243-0.688c-0.2,0.55-0.415,1.097-0.566,1.662c-0.148,0.558-0.224,1.235-0.181,1.773
		c0.283,3.576,4.112,3.761,6.65,2.428c5.482-2.88,4.549-10.196,4.101-15.331c-0.591-6.774-1.781-13.507-3.003-20.19
		c-1.319-7.202-2.824-14.369-4.391-21.521c-0.902-4.122-1.796-9.858-3.66-13.042C244.544,421.46,241.284,422.865,241.082,424.948
		L241.082,424.948z"/>
	<path fill="#010101" d="M155.935,490.81c-4.312,8.234-3.104,18.81-3.638,27.791c-0.089,1.513,1.584,2.591,2.952,2.381
		c13.63-2.093,27.167,1.921,40.828,0.896c2.359-0.179,5.11-2.601,4.841-5.146c-0.283-2.682-0.06-5.667,1.9-7.741
		c-1.662,0.347-3.322,0.691-4.981,1.035c4.438,2.837,10.055,6.079,11.497,11.521c0.506,1.907,2.785,1.851,4.256,1.553
		c11.521-2.327,23.287,2.756,34.79-0.543c1.73-0.496,3.846-2.36,4.018-4.271c0.693-7.719,2.895-32.223-10.518-29.323
		c-2.62,0.563-5.216,4.923-2.313,6.723c0.623,0.386,1.879,1.593,2.514,2.893c0.969,1.985,1.347,4.211,1.63,6.38
		c0.575,4.44,0.545,10.342,0.229,14.016c1.339-1.422,2.678-2.847,4.017-4.271c-5.211,1.517-10.902,0.729-16.218,0.273
		c-6.255-0.534-12.382-0.869-18.564,0.405c1.419,0.517,2.838,1.034,4.257,1.553c-1.804-6.685-8.616-10.728-14.134-14.112
		c-2.06-1.264-4.487,0.483-5.817,1.934c-3.636,3.957-5.218,9.241-4.588,14.552c1.614-1.715,3.227-3.431,4.842-5.146
		c-13.688,1.172-27.283-2.646-40.95-0.324c0.982,0.794,1.968,1.588,2.951,2.381c-0.619-8.625-1.542-16.637,0.205-25.221
		C160.514,488.159,156.786,489.184,155.935,490.81L155.935,490.81z"/>
	<path fill="#010101" d="M179.612,440.579c-1.299,4.039-0.961,7.808,2.695,10.437c3.604,2.589,7.925,3.618,12.278,3.989
		c4.479,0.381,9.437,0.375,13.008-2.719c3.355-2.903,5.737-8.281,5.816-12.703c0.095-5.238-6.146-4.366-7.312-0.178
		c-0.398,1.434-0.082,3.421-0.574,5.206c-0.252,0.909-0.684,1.875-1.18,2.675c-0.235,0.36-0.493,0.706-0.77,1.035
		c-0.314,0.397,1.025-0.371-0.245,0.073c-3.815,1.339-9.204,0.687-13.045-0.298c-4.698-1.204-7.95-3.033-9.064-8.037
		C181.01,439.115,179.759,440.119,179.612,440.579L179.612,440.579z"/>
	<path fill="#010101" d="M152.709,430.92c-4.57,0.081-9.034,3.555-12.374,6.344c-4.1,3.423-7.635,7.707-10.169,12.404
		c-0.494,0.917-0.63,2.504,0.209,3.295c3.983,3.76,10.318,4.379,13.521,8.974c1.015,1.454,3.164,0.402,4.191-0.34
		c4.09-2.952,1.427-6.984-1.802-8.953c-3.034-1.85-7.133-2.672-9.791-5.051c0.068,1.098,0.139,2.194,0.208,3.294
		c1.814-3.656,4.055-6.942,6.968-9.821c2.922-2.888,6.521-4.791,9.626-7.409C154.34,432.78,154.401,430.892,152.709,430.92z"/>
	<path fill="#010101" d="M245.158,420.948c-4.224,3.938,5.842,11.921,8.318,14.007c5.322,4.483,12.582,8.744,16.049,14.97
		c1.485-1.927,2.97-3.853,4.453-5.777c-4.608,0.189-9.005,1.791-13.145,3.717c-4.055,1.889-9.923,4.504-12.071,8.557
		c-1.069,2.016,0.235,3.832,2.36,3.859c2.089,0.026,3.58-1.174,5.281-2.229c1.673-1.043,3.379-2.025,5.117-2.957
		c3.452-1.85,7.012-2.984,10.874-3.565c2.56-0.387,6.325-3.794,4.01-6.515c-4.788-5.628-11.294-9.65-17.313-13.815
		c-2.98-2.062-5.947-4.188-8.571-6.7C249.454,423.473,247.021,419.214,245.158,420.948L245.158,420.948z"/>
	<path fill="#010101" d="M169.135,517.522c-6.669,10.366-5.104,23.676-2.519,35.063c1.384-1.476,2.769-2.95,4.152-4.426
		c-3.683-0.584-7.79-0.331-10.943,1.855c-2.864,1.983-4.401,5.387-2.503,8.582c3.796,6.386,12.359,6.57,18.628,4.345
		c3.051-1.084,6.153-3.143,7.655-6.102c1.548-3.048,1.03-6.528,0.396-9.746c-1.732-8.804-4.261-18.579-0.659-27.312
		c1.832-4.44-4.245-4.419-5.832-1.087c-0.62,1.303-0.833,2.484-0.286,3.853c0.82,2.048,3.706,0.984,4.632-0.376
		c0.543-0.798,1.068-1.513,1.486-2.39c-1.943-0.361-3.888-0.725-5.832-1.087c-2.534,6.222-2.547,13.271-2.047,19.895
		c0.413,5.461,2.99,10.608,2.877,16.134c-0.072,3.458-7.42,3.727-9.652,3.484c-2.541-0.275-4.342-1.521-5.902-3.513
		c-0.03-0.595-0.147-0.771-0.354-0.526c-0.26,0.727,0.187,0.046,0.784-0.167c1.547-0.552,3.306-0.442,4.898-0.215
		c2.04,0.297,5.241-2.119,4.152-4.425c-4.706-9.964-4.394-21.101-1.016-31.44C171.698,516.556,169.654,516.715,169.135,517.522
		L169.135,517.522z"/>
	<path fill="#010101" d="M225.608,521.168c-1.178,5.4-0.896,11.341-0.648,16.836c0.255,5.628,0.531,11.413,1.27,16.988
		c1.215-1.291,2.43-2.58,3.645-3.87c-3.84,0.117-7.669,1.647-9.711,5.052c-1.852,3.088-0.762,6.518,2.034,8.582
		c5.863,4.332,15.229,1.43,20.83-2.111c1.523-0.964,2.441-2.424,2.05-4.232c-1.799-8.326-4.098-16.215-4.023-24.805
		c0.021-2.498,0.043-4.997,0.063-7.495c0.016-1.609,0.314-3.559-0.238-5.106c-1.284-3.599-7.321,0.286-6.169,3.516
		c0.074,0.208,0.147,0.415,0.223,0.623c1.146,3.207,5.231,0.042,5.802-1.87c0.076-0.255,0.152-0.512,0.229-0.768
		c0.487-1.646-0.92-2.979-2.502-2.852c-1.88,0.153-3.32,1.637-3.834,3.364c-0.471,1.581-0.171,3.6-0.157,5.224
		c0.023,2.629,0.047,5.258,0.068,7.887c0.077,8.88,2.604,17.119,4.517,25.718c0.683-1.411,1.365-2.822,2.049-4.232
		c-3.128,1.996-7.206,3.423-10.953,3.229c-1.844-0.095-3.83-0.953-4.675-2.697c-0.558-1.146,2.512-1.187,3.151-1.217
		c1.658-0.075,4.005-2.021,3.645-3.87c-1.078-5.527-2.108-10.928-2.618-16.557c-0.478-5.286-0.383-10.941-1.677-16.098
		C227.646,519.088,225.778,520.389,225.608,521.168L225.608,521.168z"/>
	<path fill="#010101" d="M133.948,455.645c-1.561,1.188-2.092,3.725-2.88,5.457c-1.143,2.51-2.398,4.971-3.678,7.413
		c-1.359,2.598-2.809,5.146-4.208,7.723c-1.21,2.23-2.121,4.945-3.568,7.015c1.628,0.565,3.255,1.132,4.883,1.696
		c0.445-1.164,1.922-5.821-1.049-5.355c-2.809,0.44-5.012,2.903-4.572,5.813c0.602,3.994,5.777,0.967,5.931-1.9
		c0.12-2.245,2.105-5.225,3.046-7.232c1.229-2.623,2.523-5.211,3.809-7.806c1.196-2.418,2.341-4.852,3.255-7.392
		c0.501-1.392,1.865-4.317,0.56-5.555C135.007,455.077,134.399,455.3,133.948,455.645z"/>
	<path fill="#010101" d="M117.868,489.966c-2.895-1.234-6.354,0.129-9.092,1.358c-1.598,0.719-3.425,1.98-3.78,3.804
		c-0.373,1.899,1.026,2.887,2.749,2.89c1.688,0.003,3.206-2.164,2.233-3.629c0.479,0.721-1.479,2.729-0.665,2.135
		c0.256-0.229,0.483-0.481,0.683-0.759c-0.341,0.351-0.374,0.396-0.1,0.144c0.267-0.207,0.263-0.213-0.013-0.013
		c0.169-0.114,0.341-0.226,0.516-0.331c0.48-0.3,0.986-0.557,1.492-0.811c0.883-0.441,1.789-0.842,2.697-1.228
		c0.399-0.171,0.811-0.313,1.217-0.47c0.263-0.089,0.508-0.212,0.734-0.369c1.414-0.88-0.307,0.035,0.486-0.272
		C117.733,492.14,119.161,490.517,117.868,489.966z"/>
	<path fill="#010101" d="M120.164,493.029c-2.77,1.357-5.309,3.192-6.971,5.842c-1.397,2.23-2.459,6.689,1.215,7.318
		c1.516,0.259,2.985-1.163,3.004-2.637c0.021-1.66-0.735-2.555,0.26-4.104c1.019-1.588,2.376-3.029,3.763-4.299
		C122.724,493.971,121.854,492.198,120.164,493.029z"/>
	<path fill="#010101" d="M124.361,496.654c-1.441,1.906-2.028,4.685-2.491,6.991c-0.371,1.849-0.63,5.297,1.312,6.344
		c1.526,0.824,3.514-0.718,3.821-2.22c0.325-1.592-0.287-3.457-0.256-5.108c0.034-1.892,0.486-4.026,0.277-5.877
		C126.852,495.273,125.004,495.804,124.361,496.654z"/>
	<path fill="#010101" d="M128.59,494.648c0.936,1.092,1.588,2.037,2.098,3.392c0.593,1.577,0.458,3.29,1.21,4.811
		c1.097,2.216,3.854,0.214,4.338-1.397c1.219-4.061-1.851-9.009-6.172-9.2C129.049,492.204,127.822,493.752,128.59,494.648
		L128.59,494.648z"/>
	<path fill="#010101" d="M139.261,463.834c-4.698,7.62-10.225,15.144-11.639,24.209c-0.606,3.885,5.059,2.541,5.524-0.447
		c0.143-0.909,0.03-1.672-0.157-2.563c-0.614-2.92-4.947-0.053-5.28,1.701c-0.121,0.637-0.255,1.34-0.146,1.989
		c0.613,3.603,6.133,1.095,5.641-1.808c-0.621-3.649,1.593-8.114,3.019-11.354c1.628-3.699,3.473-7.301,4.986-11.051
		C141.778,463.101,139.922,462.761,139.261,463.834L139.261,463.834z"/>
	<path fill="#010101" d="M260.327,459.195c3.146,5.712,6.976,10.909,10.497,16.387c1.053,1.637,2.042,3.309,2.971,5.018
		c0.966,1.778,0.627,3.839,0.57,5.779c-0.103,3.57-0.126,7.146-0.174,10.719c-0.054,3.896,6.18,1.602,6.47-1.308
		c0.214-2.151,1.152-4.64-1.19-5.86c-0.838-0.438-1.897-0.063-2.557,0.532c-1.941,1.753-2.537,4.096-2.724,6.636
		c2.179-0.698,4.358-1.396,6.536-2.095c-0.063-4.651-0.135-9.302-0.271-13.949c-0.019-0.665-0.398-1.365-1.01-1.663
		c-1.679-0.82-2.922-3.611-3.984-5.076c-1.461-2.015-3.021-3.956-4.594-5.885c-2.914-3.583-6.035-6.865-9.312-10.111
		C261.084,457.848,260.003,458.603,260.327,459.195L260.327,459.195z"/>
	<path fill="#010101" d="M283.401,488.228c-0.758,3.455,0.456,6.561,2.24,9.494c1.431,2.354,3.883,5.586,6.714,6.242
		c2.019,0.47,5.372-2.701,3.503-4.593c-1.728-1.743-3.822-2.937-5.47-4.846c-1.819-2.111-3.328-4.548-4.255-7.179
		C285.617,485.887,283.612,487.265,283.401,488.228z"/>
	<path fill="#010101" d="M290.199,488.032c1.714,2.121,3.417,4.212,5.04,6.408c1.535,2.073,3.321,5.637,6.228,5.325
		c1.033-0.109,2.163-0.966,2.328-2.043c0.264-1.7-0.199-2.231-1.371-3.425c-1.084-1.104-2.197-2.18-3.289-3.275
		c-1.978-1.985-4.185-4.063-6.61-5.483C291.246,484.794,289.214,486.812,290.199,488.032z"/>
	<path fill="#010101" d="M291.896,483.271c1.176,1.055,2.487,1.92,3.62,3.039c1.24,1.225,2.333,3.314,3.952,3.997
		c1.714,0.725,3.911-0.893,3.823-2.75c-0.103-2.195-2.1-3.632-3.698-4.884c-1.471-1.15-3.641-2.099-5.5-2.284
		C292.949,480.277,290.552,482.064,291.896,483.271z"/>
	<path fill="#010101" d="M262.865,452.163c1.031,2.426,2.85,4.351,4.576,6.298c2.614,2.945,5.385,5.743,8.083,8.609
		c2.577,2.737,5.121,5.521,7.417,8.501c0.787,1.021,1.529,2.074,2.093,3.235c0.156,0.322,0.034,0.955,0.225,1.338
		c0.128,0.261,0.87,1.558,0.595,0.903c0.861,2.043,3.669,0.987,4.632-0.376c2.015-2.854,0.633-4.938-1.187-7.396
		c-2.186-2.954-4.988-5.479-7.674-7.966c-5.418-5.014-11.019-9.847-16.564-14.713C264.159,449.808,262.385,451.031,262.865,452.163
		L262.865,452.163z"/>
	<path fill="#010101" d="M185.22,261.708c-5.355-0.128-11.254,6.013-13.865,10.128c-3.084,4.86-6.088,12.408-3.247,17.979
		c1.789,3.506,6.845,0.646,7.378-2.378c0.757-4.271,0.665-8.41,2.542-12.428c0.862-1.846,2.104-3.528,3.415-5.073
		c1.533-1.804,3.63-2.967,5.156-4.766C187.853,263.698,187.156,261.755,185.22,261.708z"/>
	<path fill="#010101" d="M194.351,267.556c-5.896,1.506-9.865,5.796-12.252,11.313c-1.804,4.168-4.67,12.645-0.914,16.462
		c1.949,1.979,4.877-0.038,5.922-1.942c1.959-3.575,1.606-8.13,2.504-12.05c0.771-3.37,2.576-7.833,5.549-9.879
		C196.992,270.197,197.412,266.772,194.351,267.556L194.351,267.556z"/>
	<path fill="#010101" d="M199.377,275.901c-1.706,4.678-4.102,10.297-3.696,15.344c0.415,5.198,7.989,2.041,8.482-1.715
		c0.585-4.434-0.255-8.903,0.259-13.394C204.809,272.755,200.271,273.447,199.377,275.901z"/>
</g>
</svg>
