<?xml version="1.0" encoding="utf-8"?>
<!-- Generator: Adobe Illustrator 23.0.1, SVG Export Plug-In . SVG Version: 6.00 Build 0)  -->
<svg version="1.1" id="Layer_3" xmlns="http://www.w3.org/2000/svg" xmlns:xlink="http://www.w3.org/1999/xlink" x="0px" y="0px"
	 viewBox="0 0 566.9 566.9" style="enable-background:new 0 0 566.9 566.9;" xml:space="preserve">
<path d="M508.7,484.2c-1.5-0.2-3.1-0.4-4.6-0.6c-0.3-0.6-0.5-1.3-0.9-1.8c-19.1-33.3-51.8-53.2-67.6-89.5c-0.2-0.4-0.3-0.7-0.5-0.9
	c-0.5-3.3-1.8-6-3.9-6.5c-9.3-2.2-18.6-4.1-27.9-5.7c-5.4-21.8-14-42.9-22.2-63.4c-7.8-19.5-16.3-38.6-25.4-57.2
	c0-4.8-1.4-9.6-4.3-9.9c-4.1-0.4-20.4-0.5-24.5-0.4c-1.5-8-3.4-15.7-6-23.3c-2.7-7.8-6.4-14.8-7.6-23.2c-0.2-1.6-0.8-4.1-1.8-5.7
	c-0.7-2.4-1.9-4.1-3.6-4c-23.5,1.1-61.3,0.2-84.7-2.8c-2.5-0.3-4,3.6-4.3,8c-3.7,10.4-6.8,21-9.3,31.8c-2.6,11.5-3.9,23.3-6.4,34.7
	c-2.3,10.7-6.9,20.6-11.2,30.3c-4.5,10.2-9.2,20.2-14.1,30.1c0,0,0,0-0.1,0c-14.1,10.1-28.2,20.1-43,28.7c-0.2,0.1-0.4,0.3-0.6,0.4
	c-0.9-0.5-1.8-0.3-2.7,1.2c-12.4,21.5-23.5,43.9-33.6,67c-10,22.8-24.2,41.5-39,60.1c-1.7,2.1-2.2,5.6-2.1,8.9
	c-0.9,5.9,0.5,13.7,4.1,13.4c27.5-2.3,55.1,0.2,82.5,3.1c27.4,2.9,54.6,5.3,82.1,5.8c54.9,0.9,136.3-2.4,191-6.8
	c30.6-2.5,61.4-6.4,92-1.8C514.1,504.9,514.8,485.1,508.7,484.2z M426.6,485.2c-27.7,2.3-55.5,4.3-83.3,5.7
	c-54.6,2.7-135.5,2.9-189.9-2.8c-26-2.7-52-5.6-78.1-4.9c10.3-13.7,19.9-28,27.1-44.3c10.2-22.8,20.7-45.2,33-66.6
	c0.5,0.1,1,0,1.6-0.3c14.8-8.6,28.9-18.7,43-28.7c0.4-0.3,0.8-0.7,1.1-1.3c0.7-0.4,1.3-1.2,1.9-2.3c5.1-10.1,9.9-20.4,14.6-30.8
	c4.5-10.2,9.2-20.5,12-31.6c2.8-11.1,3.9-22.7,6.3-33.9c2.5-11.6,5.7-23,9.6-34c0-0.1,0-0.1,0.1-0.2c22,2.7,58.4,3.6,80.5,2.6
	c3.2,15.6,10.7,29.4,13.4,45.4c0.3,1.8,1,5,2.4,6.5c0.6,2.3,1.6,4.4,3.5,4.3c3.4-0.2,18.9-0.1,22.3,0.1c0,0,0,0,0,0
	c9.7,19.5,18.7,39.5,26.9,59.9c8,19.9,16.5,40.6,21.7,61.8c0.5,1.9,1.5,4,2.9,4.6c0.7,2.4,1.9,4.1,3.6,4.4
	c8.8,1.6,17.6,3.4,26.4,5.4c0.2,0.7,0.4,1.5,0.7,2.1c13.6,31.2,38.7,50.6,58.1,75.9C467.4,481.5,447,483.5,426.6,485.2z"/>
<path d="M321.9,56.3c4.4-6.9,5.7-17.8-1.3-23.5c-5.4-4.4-13.4-8.5-20.5-8.3c-8.1,0.2-12.7,5.7-19.3,9.2c-6.8,3.6-16.6-4.1-23,1.6
	c-2.7,2.4-3.7,6.6-4.4,10c-0.4,2.1-0.7,4.2-0.7,6.4c-5.1,2.8-11.5,2.8-14,9c-3,7.5,0,16.5,3.6,23.3c1.4,2.7,3.2,5.2,5.4,7.2
	c2.6,2.3,5.1,3.5,6.9,6.3c-0.1,0.6-0.2,1.2-0.3,1.6c-1,4.5-1.6,9.2-1.5,13.9c0.1,3,0.7,6.2,2.2,8.8c-3.8,4.4-5.4,9.6-4.6,16
	c0.5,3.9,2,7.2,4.2,10.3c0.3,0.5,0.9,1.3,1.4,2c-2,6.9-1,17.4,4.2,22.2c0.7,0.6,1.3,1,1.9,1.1c3.6,2.1,8.7,2,12.6,0.6
	c3.3-1.3,4.4-3.7,6.4-6.4c1.9-2.6,4.1-2.8,7.2-3.9c6.8-2.3,11.3-7.6,12.6-14.6c1.3-6.7,0.5-17-6.2-21c-1.6-0.9-3.5-1.1-5.2-1.9
	c-0.1,0-0.1-0.1-0.2-0.1c0.3-0.3,0.6-0.6,0.9-0.9c2.7-3,4.5-6.5,5.9-10.3c1-2.8,1.5-6.7,3.8-8.6c2.9-2.6,6.6-4.4,9.6-6.9
	c3-2.6,5.8-5.3,8.4-8.3c3.8-4.3,3.7-14.8-1.2-18.3c-4.7-3.3-10.2-3-15.5-3.8c1.2-0.2,2.5-0.4,3.7-0.7
	C312.4,66.6,317.9,62.6,321.9,56.3z"/>
<path d="M352.8,133.4C352.7,133.5,352.7,133.5,352.8,133.4c-0.6-0.4-1.2-0.6-1.9-0.4c-2.2,0.5-4.4,1.3-6.4,2.2
	c-0.8-0.5-6.5-2.9-7.5-2.3c-4.5,2.9-3.8,8.6-7.4,12.5c-4,3.8-7.7,8.1-11.3,12.5c-2.9,3.5-3.1,9.2-1.9,13.4c0,4,1.3,7.7,4.8,10.6
	c0.9,0.5,1.8,0.5,2.7,0c2.3-1.4,3.6-3.4,4.6-5.8c0.1-0.2,0.4-1.5,0.7-2.3c0.2,0.2,0.5,0.4,0.7,0.6c2.1,2.7,4.8,0.7,6.1-1.6
	c1.1-1.9,2.1-3.9,3.3-5.8c2.6-0.4,4.5-1.7,6.2-3.4c0.8,0,1.7-0.3,2.6-1.2c3.9-3.6,7-7.6,9.6-12.2
	C359.3,147.2,359.7,129.7,352.8,133.4z"/>
<path d="M362,70.8c-5.1-3.7-12.2-2.7-16.4,1.8c-5.3,5.8-6.1,15-7.6,22.3c-0.9,4.2-1.5,10.3,1.8,13.7c0.4,0.4,0.8,0.7,1.2,0.9
	c1.2,2.6,4,5.8,6.4,2.4c4.6-6.4,9.9-11.6,15.5-17.1C368.6,88.8,369.2,76.1,362,70.8z"/>
<path d="M207.8,90.6c-0.3-1.5-0.8-2.9-1.5-3.8c-1.3-2.7-2.9-5.3-4.9-7.7c-1.6-1.8-3.2-1.5-4.5-0.4c-0.5-0.4-1-0.8-1.5-1.2
	c-2.2-1.9-4.8-4.6-8-4.6c-8.8,0-8.8,15.3-8.2,20.9c0.4,3.6,1,8,3.4,10.9c2,2.4,5,3.1,7.6,4.5c5.7,3.2,9.7,8,12.1,14
	c0.9,2.4,3.3,3.7,5.5,2.1c2.5-1.9,3.1-6.3,3.1-9.1C211,107.8,210.6,98.7,207.8,90.6z"/>
<path d="M208.9,167.3c-0.2-0.8-0.3-1.6-0.5-2.4c-0.4-1.3-0.9-2.5-1.8-3.6c-0.7-1-1.3-2-2-3c-0.2-0.4-0.5-0.8-0.8-1.2
	c0,0,0-0.1-0.1-0.1c-0.2-0.3-0.5-0.6-0.8-0.8c-0.5-0.4-1.1-0.6-1.7-0.6c-0.2,0-0.5,0.1-0.7,0.1c-0.2,0-0.4,0.1-0.6,0.2
	c-3-2.1-6.1-4-9.3-5.6c-0.2-0.1-0.5-0.2-0.7-0.3c-3.4-1.1-5.8,0.7-7.4,3.9c-2.4,5-2.3,12.3,0.4,17.2c3.5,6.4,10.2,7.4,16.6,5.7
	c0.6,0.5,1.3,1,1.9,1.5c0,0,0.1,0.1,0.1,0.1c0.5,0.7,1.1,1.1,1.9,1.2c0.7,0.3,1.3,0.2,2-0.2c1.5-0.8,2.6-3.1,3-4.6
	C209.1,172.5,209.3,169.8,208.9,167.3z"/>
<path d="M237.3,238.3c1.4,9-1.3,17.6-4.1,26c-2.7,8.1-5.5,16.2-8.2,24.3c-0.7,2-0.8,6,1,7.5c1.9,1.6,3.1-0.1,3.8-2
	c6.3-18.6,15.9-38.7,12.8-58.8c-0.3-1.7-1.1-4.6-3.4-3.8C237.1,232.2,237.1,236.8,237.3,238.3L237.3,238.3z"/>
<path d="M284.2,244.3c6.9,16.3,8,34.4,16.2,50.2c1.1,2.1,2.7,1.8,3.9,0c1.3-2,1.1-5.7,0-7.8c-8.1-15.7-9.3-33.9-16.2-50.2
	c-0.9-2.2-2.8-1.7-3.9,0C282.9,238.6,283.3,242.1,284.2,244.3L284.2,244.3z"/>
<path d="M260.9,241.5c0.3,15.1-0.8,30.1-3.3,45c-0.3,1.7-0.2,6.1,1.9,6.8c2.3,0.7,3.1-2.1,3.4-3.8c2.6-15.8,3.8-31.9,3.5-47.9
	c0-1.6-0.5-5.5-2.8-5.5C261.4,236,260.9,240,260.9,241.5L260.9,241.5z"/>
<path d="M6.6,531.9c71.3-13.6,143.3-18.4,215.2-19.1c72.1-0.7,144.3,2.6,216.4,4.7c40.7,1.2,81.4,2,122.1,1.6
	c5.4-0.1,6.7-13.2,6.6-18.7c-0.1-5.3-1.1-18.8-6.6-18.7c-72.2,0.7-144.3-2.5-216.4-4.6c-72-2.1-144.1-3.2-216,1.9
	c-40.5,2.9-81,7.8-121.2,15.5c-5.5,1-6.7,12.5-6.6,18.7C0.1,517.7,1.2,533,6.6,531.9L6.6,531.9z"/>
</svg>
