<?xml version="1.0" encoding="UTF-8" standalone="no"?>
<!DOCTYPE svg PUBLIC "-//W3C//DTD SVG 1.1//EN" "http://www.w3.org/Graphics/SVG/1.1/DTD/svg11.dtd">
<svg width="100%" height="100%" viewBox="0 0 567 567" version="1.1" xmlns="http://www.w3.org/2000/svg" xmlns:xlink="http://www.w3.org/1999/xlink" xml:space="preserve" xmlns:serif="http://www.serif.com/" style="fill-rule:evenodd;clip-rule:evenodd;stroke-linejoin:round;stroke-miterlimit:1.41421;">
    <g id="Layer_1">
        <path d="M67.314,56.864C67.42,60.3 70.114,67.312 74.38,67.117C75.553,67.062 77.874,64.888 76.461,63.734C75.579,63.014 74.497,62.705 73.624,61.943C72.42,60.895 71.619,59.456 71.039,57.992C70.476,56.572 70.147,54.79 70.655,53.306C71.244,51.588 73.313,51.328 74.729,50.565C75.076,50.378 75.552,49.597 74.99,49.348C70.424,47.328 67.198,53.123 67.314,56.864Z" style="fill-rule:nonzero;"/>
        <path d="M139.227,61.168C138.227,62.452 136.534,62.662 135.959,64.336C135.8,64.803 135.597,65.527 136.061,65.924C136.114,65.969 136.166,66.014 136.219,66.058C137.016,66.738 137.962,66.699 138.865,66.2C145.042,62.778 147.098,53.474 144.826,47.19C144.64,46.676 144.107,46.479 143.603,46.507C141.296,46.637 138.974,46.738 137.111,48.232C136.605,48.638 136.646,49.438 137.376,49.461C138.928,49.51 141.787,48.911 142.03,50.918C142.249,52.73 141.956,54.55 141.575,56.315C141.185,58.12 140.354,59.722 139.227,61.168Z" style="fill-rule:nonzero;"/>
        <path d="M122.199,515.235C124.88,521.924 133.796,522.401 141.172,521.264C141.463,521.487 141.791,521.676 142.163,521.801C146.282,523.18 149.99,519.631 151.973,516.414C154.712,514.978 156.994,511.09 157.225,508.41C157.529,504.885 157.204,501.361 156.987,497.838C156.687,492.963 157.053,488.043 157.258,483.172C158.192,460.836 160.11,438.557 161.471,416.246C162.82,394.148 162.836,372.17 162.834,350.049C162.834,339.088 163.087,328.121 163.55,317.17C163.696,313.678 164.014,310.174 164.354,306.666C169,306.301 173.469,302.432 176.247,299.103C178.883,295.947 179.836,292.433 180.227,288.664C180.676,288.396 181.067,288.098 181.34,287.775C191.755,275.512 197.948,260.304 202.904,245.176C208.094,229.334 212.019,212.905 214.758,196.506C216.852,191.761 213.343,185.561 211.357,181.131C207.383,172.268 202.681,163.726 198.097,155.169C194.615,148.669 190.636,142.182 188.303,135.154C186.724,130.399 183.131,123.05 178.422,123.943C178.279,123.55 176.305,123.108 175.61,122.801C173.725,121.967 171.819,121.179 169.912,120.398C167,119.204 164.067,118.047 161.203,116.736C155.735,114.234 149.905,112.474 144.274,110.381C138.283,108.152 132.373,105.024 126.174,103.443C126.243,100.652 125.604,97.377 125.433,95.333C125.124,91.639 124.873,87.77 124.179,84.079C128.38,79.74 131.475,74.204 132.999,68.242C134.686,61.651 134.858,53.971 133.374,46.707C133.542,46.712 133.72,46.692 133.917,46.614C141.822,43.514 150.266,29.938 140.697,24.149C132.025,18.902 119.141,20.329 112.549,11.62C112.024,10.926 110.741,11.985 111.041,12.696C114.477,20.864 124.613,22.98 132.145,25.656C135.032,26.682 139.247,28.006 140.447,31.148C142.186,35.704 134.925,40.601 132.815,44.317C129.968,33.327 123.169,23.717 111.858,20.975C108.789,20.231 105.812,20.43 102.793,21.238C101.564,21.566 100.398,22.63 99.706,23.857C85.602,27.736 78.933,44.57 77.919,59.157C77.193,69.593 79.731,80.322 86.717,86.887C85.862,92.942 85.69,99.113 84.797,105.177C84.581,105.296 84.383,105.446 84.207,105.623C84.237,105.151 84.203,104.671 84.091,104.178C83.438,101.297 79.364,103.361 78.343,104.643C79.267,103.483 77.739,105.367 77.51,105.645C77.934,105.132 76.835,106.142 76.764,106.191C75.084,107.352 73.24,108.297 71.412,109.197C66.4,111.667 61.169,113.699 55.978,115.754C50.745,117.824 45.481,119.821 40.259,121.921C36.88,123.279 32.756,124.802 30.299,127.62C29.952,128.017 29.792,128.515 29.788,128.989C29.655,129.26 29.55,129.533 29.511,129.805C26.073,153.271 14.77,174.525 7.806,197.065C7.65,197.274 7.515,197.479 7.424,197.669C6.486,199.614 6.203,200.835 6.299,202.989C6.389,205.014 7.556,205.852 9.026,205.921C7.838,220.912 10.63,236.194 14.056,250.724C17.606,265.778 23.182,280.21 29.409,294.334C29.137,295.109 29.067,295.895 29.309,296.57C30.142,298.896 31.368,300.652 33.151,302.367C34.42,303.586 36.328,303.556 38.048,302.83C37.735,305.918 38.292,309.211 39.861,311.719C42.664,316.198 49.554,315.08 51.302,310.158C51.925,308.406 51.368,306.312 49.089,306.539C48.735,306.572 48.39,306.572 48.038,306.615C47.545,306.654 47.076,306.773 46.631,306.972C47.017,306.919 46.979,306.927 46.516,306.993C46.787,306.954 46.416,306.899 46.155,306.749C45.842,306.567 45.479,306.13 45.209,305.837C43.783,304.296 43.455,301.898 43.131,299.792C44.652,298.673 46.002,297.313 46.92,296.267C49.19,293.675 50.878,290.556 51.934,287.251C52.751,287.774 53.605,288.247 54.486,288.681C54.348,288.929 54.244,289.185 54.193,289.449C52.438,298.719 52.71,308.56 52.289,317.965C51.851,327.768 51.459,337.572 51.1,347.379C50.389,366.768 50.184,386.176 50.261,405.576C50.404,441.646 52.161,477.994 56.325,513.875C55.941,514.455 55.666,515.078 55.545,515.697C54.858,519.179 56.069,520.947 57.237,523.654C56.7,534.275 81.552,529.093 87.681,528.142C91.26,527.587 94.519,524.718 94.498,520.896C94.273,479.5 91.859,438.162 92.352,396.746C92.521,382.521 92.259,368.246 92.824,354.033C93.347,340.84 94.544,325.379 102.888,314.527C104.955,311.839 101.562,309.431 99.355,311.726C79.408,332.462 84.294,366.468 83.292,392.726C81.7,434.478 83.205,476.414 83.2,518.206C80.85,518.495 78.496,518.743 76.133,518.921C74.133,519.069 72.098,519.161 70.089,519.054C64.352,480.913 61.718,442.726 60.67,404.173C60.146,384.929 60.178,365.683 60.067,346.435C60.011,336.763 60.015,327.091 60.038,317.421C60.057,308.708 60.819,299.511 59.847,290.784C61.735,291.384 63.66,291.882 65.546,292.345C74.465,294.529 83.817,294.882 92.961,295.099C105.073,295.388 116.842,296.341 128.965,295.126C140.089,294.011 151.323,291.405 161.833,287.522C159.175,296.278 158.555,305.704 157.668,314.764C156.738,324.256 156.042,333.756 155.569,343.28C154.571,363.421 154.65,383.581 153.374,403.71C152.07,424.28 149.952,444.79 148.475,465.349C147.743,475.535 147.167,485.728 146.87,495.935C146.773,499.275 147.052,502.585 147.235,505.917C147.312,507.304 147.422,508.755 147.301,510.142C147.298,510.171 147.29,510.197 147.287,510.224C146.974,510.537 146.696,510.874 146.469,511.234C140.637,513.33 135.624,513.552 130.217,512.015C131.124,510.884 131.68,509.554 131.587,508.142C131.572,504.316 130.874,500.429 130.811,496.568C130.715,490.757 130.879,484.943 131.062,479.134C131.561,463.363 132.407,447.605 133.026,431.837C134.301,399.355 135.93,365.233 129.63,333.153C127.688,323.262 123.348,304.608 110.369,303.999C107.145,303.847 102.805,309.157 107.319,310.466C115.347,312.79 117.759,323.417 119.488,330.517C122.907,344.564 123.308,359.507 123.587,373.892C124.245,407.976 121.61,442.062 120.062,476.091C119.732,483.325 119.441,490.568 119.404,497.81C119.387,501.138 119.754,504.468 119.963,507.781C119.753,508.76 119.641,509.728 120.013,510.701C120.042,510.777 120.064,510.828 120.091,510.896C120.096,511.205 120.106,511.513 120.105,511.822C119.976,513.824 120.866,514.883 122.199,515.235ZM168.613,298.137C167.477,298.78 166.247,299.067 165.034,299.407C165.427,294.921 165.699,290.436 165.555,285.971C166.303,285.532 166.983,284.994 167.559,284.364C169.332,286.085 171.918,287.821 174.421,288.44C174.666,289.161 175.293,289.54 176.098,289.653C174.462,293.119 171.691,296.393 168.613,298.137ZM159.641,232.484C162.371,222.91 164.492,213.176 166.516,203.432C167.56,198.402 168.596,193.371 169.61,188.335C169.885,186.972 170.221,185.587 170.548,184.191C171.888,187.345 173.617,190.355 174.623,192.576C176.132,195.905 176.931,199.686 178.073,203.168C178.651,204.928 179.006,208.444 179.981,210.65C179.271,213.123 178.597,215.605 177.822,218.015C175.801,224.306 173.034,230.369 170.366,236.403C167.752,242.316 164.974,248.139 162.345,254.036C160.434,247.988 158.829,241.725 157.527,235.46C158.546,234.583 159.348,233.511 159.641,232.484ZM211.5,199.6C205.747,213.036 202.291,227.337 197.664,241.218C192.942,255.384 186.976,268.924 178.185,280.95C175.772,280.423 173.678,279.603 171.659,277.903C170.597,277.009 169.727,276.046 168.938,275.034C168.834,274.042 168.504,273.018 167.997,271.824C166.783,268.962 165.994,265.881 165.145,262.841C165.401,262.647 165.645,262.438 165.856,262.197C167.929,259.853 168.917,256.428 170.008,253.554C172.06,248.15 174.484,242.928 176.714,237.587C179.84,230.099 184.117,220.873 185.506,211.96C185.923,211.654 186.298,211.295 186.6,210.903C188.277,208.736 187.821,205.622 186.66,202.44C191.686,199.573 198.765,199.524 203.73,202.331C205.972,203.598 208.663,201.751 209.685,199.593C210.248,199.76 210.888,199.75 211.5,199.6ZM184.319,144.207C187.053,150.601 190.426,156.739 193.569,162.936C197.139,169.975 200.686,177.037 203.844,184.271C205.114,187.18 206.295,190.135 207.219,193.173C207.418,193.827 207.523,194.496 207.614,195.166C207.419,195.103 207.224,195.04 207.03,194.977C206.335,194.751 205.561,194.861 204.825,195.191C200.57,194.978 196.616,194.319 192.218,195.324C189.483,195.949 187.143,197.326 185.302,199.233C184.049,196.58 182.633,194.09 181.924,192.309C179.735,186.804 175.574,182.153 172.779,176.91C173.298,176.068 173.592,175.172 173.524,174.324C173.422,173.03 173.061,171.711 172.42,170.669C170.291,163.639 170.239,156.227 171.046,148.917C171.732,142.694 174.109,137.118 175.929,131.313C176.378,131.489 176.877,131.578 177.385,131.555C177.723,131.541 179.023,131.611 180.216,130.748C180.832,132.187 181.154,134.054 181.514,135.446C182.281,138.429 183.107,141.373 184.319,144.207ZM84.224,62.946C83.164,49.039 86.85,33.079 99.347,27.212C99.661,27.818 100.249,28.316 101.219,28.587C104.996,29.639 108.788,29.6 112.404,31.294C115.805,32.887 118.537,35.812 120.433,39.006C124.505,45.863 125.484,54.378 125.485,62.202C125.488,74.363 117.859,84.954 105.233,85.452C92.529,85.955 85.091,74.324 84.224,62.946ZM100.265,93.003C108.37,93.998 115.781,91.303 121.587,86.475C121.463,89.116 121.598,91.813 121.584,94.381C121.569,96.841 121.511,99.299 121.379,101.756C121.272,103.755 120.454,105.532 120.366,107.459C120.357,107.637 120.369,107.792 120.386,107.938C119.826,107.981 119.266,108.148 118.893,108.334C114.929,110.313 110.705,112.94 107.951,116.537C106.804,115.126 105.268,114.621 103.436,114.633C102.551,114.638 101.424,115.425 100.832,116.383C100.252,116.587 99.7,116.873 99.233,117.166C98.761,117.462 98.326,117.806 97.925,118.184C98.018,117.934 98.038,117.676 97.946,117.448C97.041,115.194 95.645,113.486 93.904,111.817C92.682,110.647 91.371,109.007 89.644,108.707C89.464,108.676 89.275,108.674 89.085,108.686C89.145,108.371 89.155,108.061 89.095,107.776C87.824,101.696 90.007,95.325 89.588,89.176C92.53,91.136 96.066,92.487 100.265,93.003ZM115.815,124.213C113.593,123.703 110.78,123.229 108.59,122.115C108.712,121.84 108.835,121.563 108.932,121.278C109.187,120.527 109.222,119.726 109.083,118.956C111.868,117.23 114.464,115.455 117.353,114.018C117.56,115.795 117.749,117.572 117.853,119.361C117.931,120.676 117.982,122.028 117.865,123.342C117.83,123.742 117.755,124.135 117.669,124.526C117.051,124.404 116.404,124.347 115.815,124.213ZM103.565,121.934C103.55,122.008 103.534,122.056 103.525,122.079C103.286,122.448 103.217,122.478 102.701,122.755C103.279,122.444 102.05,122.913 102.529,122.818C102.155,122.891 102.111,122.887 101.845,122.856C100.98,122.753 100.3,122.092 99.984,121.292C99.689,120.547 100.546,119.854 101.503,119.304C102.012,119.726 102.56,120.121 102.943,120.468C103.04,120.554 103.394,121.069 103.409,121.044C103.485,121.263 103.643,121.885 103.581,121.468C103.674,122.083 103.634,121.59 103.565,121.934ZM95.958,121.303C95.399,121.042 94.72,121.002 94.104,121.256C91.636,122.276 89.129,123.13 86.493,123.216C87.131,120.102 88.176,117.18 89.472,114.291C90.225,114.859 91.028,115.585 91.439,115.892C92.938,117.011 94.452,118.099 95.987,119.168C96.307,119.391 96.696,119.345 97.049,119.161C96.566,119.802 96.195,120.521 95.958,121.303ZM83.312,108.25C83.281,109.269 83.59,110.109 84.416,111.117C84.77,111.55 85.174,111.775 85.592,111.846C83.164,116.227 81.499,120.996 80.753,125.964C80.596,127.007 81.001,128.179 82.203,128.337C86.48,128.9 90.391,127.894 94.386,126.418C95.15,126.136 95.889,125.613 96.403,124.942C97.531,126.718 99.888,127.773 102.012,127.452C104.032,127.145 105.757,126.068 107.041,124.583C108.133,125.751 109.416,126.716 110.804,127.624C112.863,128.97 116.469,131.497 118.696,129.206C118.794,129.105 118.892,128.995 118.989,128.878C126.751,129.058 123.144,113.146 122.275,109.056C123.507,108.788 124.958,107.796 125.388,107.052C125.606,106.676 125.768,106.242 125.89,105.771C128.669,108.31 132.186,110.099 135.707,111.652C135.672,111.722 135.642,111.793 135.619,111.862C132.814,120.638 131.306,129.885 128.492,138.723C125.666,147.606 123.195,156.559 120.551,165.494C118.095,173.787 114.594,181.719 112.278,190.043C110.91,194.96 109.855,200.258 107.891,205.084C106.201,201.228 104.582,196.856 102.956,193.23C98.556,183.414 94.147,173.603 89.899,163.719C85.779,154.135 81.792,144.488 78.19,134.695C76.356,129.709 72.437,121.874 73.361,116.358C73.439,115.895 73.396,115.553 73.281,115.296C77.47,113.446 81.552,111.094 83.312,108.25ZM13.052,204.584C14.325,203.691 15.316,202.454 15.469,201.139C18.268,176.993 32.785,155.822 35.201,131.51C35.889,131.235 36.561,130.899 37.244,130.522C37.384,134.153 38.427,137.741 39.321,141.264C40.639,146.453 41.577,151.604 41.76,156.962C41.896,160.917 41.535,164.917 41.185,168.852C40.93,171.705 40.08,174.606 40.667,177.429C41.061,179.319 42.312,179.77 43.755,179.453C40.742,183.93 38.869,189.13 37.104,194.187C36.125,196.994 35.265,199.843 34.417,202.691C34.083,203.813 33.597,204.931 33.249,206.071C32.893,205.982 32.533,205.904 32.165,205.839C30.454,205.536 28.672,205.419 26.941,205.257C24.034,204.984 20.664,204.395 17.843,205.424C17.115,205.69 15.889,207.157 17.05,207.731C19.105,208.745 21.604,208.738 23.826,209.103C25.35,209.353 26.933,209.631 28.365,210.23C28.931,210.468 29.475,210.751 30.009,211.059C30.07,211.094 30.112,211.129 30.158,211.164C30.213,212.831 31.397,214.126 33.715,213.387C33.256,220.908 35.099,228.673 36.955,235.823C39.538,245.777 42.968,255.594 46.226,265.344C46.593,266.441 47.27,266.967 48.07,267.09C47.135,270.4 46.182,273.704 45.209,277.002C44.48,278.268 44.21,279.495 44.173,281.317C44.142,282.882 44.769,283.73 45.698,284.084C45.758,287.697 43.568,291.928 40.626,294.615C32.81,280.54 26.867,265.406 22.246,250.007C17.75,235.022 15.62,219.887 13.052,204.584ZM63.133,236.058C67.793,236.778 72.558,237.052 77.214,237.845C76.817,240.16 76.515,242.366 73.78,243.553C70.22,245.099 65.474,245.177 61.634,244.108C62.299,241.419 62.857,238.71 63.133,236.058ZM56.823,230.351C56.877,231.595 57.383,232.387 58.127,232.818C57.68,233.486 57.509,234.214 57.936,234.722C55.152,240.81 53.576,247.789 51.771,254.043C51.671,254.389 51.574,254.735 51.475,255.082C48.988,248.006 46.294,241.002 44.021,233.848C41.556,226.087 40.452,217.919 38.282,210.106C38.936,209.617 39.483,209.042 39.791,208.481C41.729,204.95 41.918,199.737 42.956,195.836C43.829,192.554 44.813,189.294 45.76,186.023C46.928,191.033 48.636,196.013 49.961,200.624C52.717,210.226 56.397,220.308 56.823,230.351ZM30.342,211.329C30.521,211.545 30.442,211.65 30.342,211.329ZM98.314,287.451C82.682,286.99 67.465,287.988 53.043,281.993C53.1,281.46 53.155,280.928 53.179,280.394C53.18,280.362 53.172,280.339 53.172,280.308C53.308,280.021 53.419,279.73 53.473,279.437C54.959,271.34 56.831,263.333 58.695,255.315C58.966,254.156 59.273,252.964 59.597,251.752C67.651,253.023 76.315,251.521 81.778,244.975C84.01,242.299 86.293,235.816 83.513,232.895C81.786,231.081 75.832,231.489 73.419,231.249C70.578,230.967 67.666,230.693 64.785,230.762C65.8,229.567 66.328,228.036 65.796,226.383C65.706,226.104 65.599,225.861 65.482,225.631C62.069,217.652 59.619,209.164 56.631,201.018C54.933,196.388 53.324,191.729 51.818,187.035C50.68,183.486 49.89,179.698 48.619,176.16C49.057,175.606 49.372,175.059 49.489,174.586C50.149,171.929 49.51,168.689 49.459,165.966C49.388,162.211 49.226,158.452 48.733,154.727C48.149,150.3 46.816,146.024 45.412,141.804C43.894,137.251 42.75,132.091 40.586,127.769C41.817,127.244 43.024,126.724 44.176,126.29C50.283,123.987 56.421,121.763 62.5,119.383C63.987,118.8 66.587,117.954 69.479,116.852C67.855,122.165 70.792,129.224 72.319,134.189C75.417,144.252 79.315,154.067 83.217,163.837C87.289,174.031 91.527,184.16 95.693,194.316C97.308,198.254 98.922,202.193 100.49,206.149C101.26,208.086 102.469,210.587 102.927,212.562C102.982,212.875 103.039,213.195 103.097,213.539C103.181,214.465 103.535,215.087 104.043,215.466C105.276,217.271 108.746,217.073 110.418,214.57C114.599,208.315 116.41,201.088 118.18,193.863C120.289,185.256 123.43,177.033 125.883,168.525C128.595,159.116 130.554,149.513 133.228,140.088C135.561,131.863 139.521,121.827 138.817,112.992C139.157,113.137 139.501,113.282 139.836,113.427C145.691,115.955 151.584,118.382 157.36,121.091C159.991,122.324 162.589,123.656 165.207,124.924C167.062,125.821 168.915,126.724 170.761,127.643C171.313,127.918 171.857,128.209 172.403,128.497C167.933,134.308 165.946,142.71 164.404,149.455C162.274,158.769 161.104,169.193 164.303,178.404C164.626,179.336 165.151,179.923 165.787,180.239C162.853,187.213 161.451,195.288 159.62,202.328C157.454,210.656 155.344,219.028 152.57,227.181C151.356,227.995 150.402,229.219 150.111,230.563C143.663,230.157 137.076,231.877 130.578,231.565C127.636,231.424 125.159,233.484 124.981,236.477C124.627,242.398 127.294,247.499 133.52,248.427C136.181,248.823 138.936,248.378 141.552,247.906C142.577,247.721 143.599,247.508 144.624,247.316C144.952,247.266 145.278,247.204 145.603,247.139C146.499,247.716 147.779,247.743 148.888,246.958C153.492,243.703 152.604,237.935 146.388,239.088C143.573,239.609 140.832,240.3 137.963,240.478C135.677,240.621 134.401,239.719 133.671,238.3C139.33,237.442 145.141,235.957 150.281,233.961C150.297,234.096 150.314,234.232 150.329,234.367C150.555,236.382 151.55,237.25 152.812,237.381C153.241,243.664 154.605,249.983 155.682,256.03C156.99,263.378 158.785,270.652 159.767,278.03C150.815,281.059 142.193,284.179 132.667,285.654C121.354,287.405 109.74,287.787 98.314,287.451ZM144.467,245.052C144.467,245.069 144.469,245.086 144.47,245.103C144.469,245.085 144.467,245.068 144.467,245.052Z" style="fill-rule:nonzero;"/>
        <path d="M70.081,544.889C68.287,543.426 66.515,541.977 65.682,539.784C64.713,537.233 65.286,534.059 63.016,532.198C62.3,531.612 61.317,531.95 60.796,532.659C60.762,532.753 60.727,532.847 60.692,532.938C57.842,535.288 58.426,543.512 58.294,546.293C58.012,552.158 64.17,556.383 69.44,557.072C80.45,558.517 92.649,547.166 89.238,535.91C88.477,533.4 86.236,530.594 83.559,530.097C80.262,529.486 76.809,531.999 75.987,535.115C75.142,538.318 77.427,539.517 78.435,542.07C78.931,543.324 78.309,544.306 77.778,545.015C77.294,545.599 77.249,545.652 77.645,545.173C77.586,545.23 76.185,546.241 76.817,545.845C75.904,546.429 76.044,546.273 74.845,546.589C73.67,546.901 71.379,545.948 70.081,544.889Z" style="fill-rule:nonzero;"/>
        <path d="M151.948,539.639C144.008,538.848 135.452,537.743 127.989,534.69C127.392,530.752 126.01,526.901 125.772,522.94C125.709,521.877 124.286,522.456 124.013,523.083C121.909,527.933 121.756,533.075 121.511,538.306C121.476,539.038 121.998,539.827 122.634,540.156C132.165,545.068 143.395,546.429 153.931,547.427C161.989,548.191 174.406,549.884 181.096,544.132C187.054,539.009 182.754,533.45 177.787,529.874C174.558,527.548 170.873,525.823 167.204,524.323C163.494,522.805 158.647,520.43 154.669,521.989C152.385,522.884 150.265,525.464 151.85,527.866C153.35,530.141 157.011,530.399 159.433,531.179C162.424,532.142 165.329,533.449 168.145,534.833C170.444,535.966 172.769,537.272 174.677,538.997C174.796,539.104 175.001,539.29 175.217,539.499C175.204,539.505 175.196,539.507 175.185,539.511C167.975,541.615 159.288,540.369 151.948,539.639Z" style="fill-rule:nonzero;"/>
        <path d="M75.908,19.17C72.426,22.291 72.289,27.864 72.194,32.248C72.078,37.717 73.14,43.236 76.242,47.766C76.628,48.329 77.656,47.545 77.562,47.007C76.808,42.676 76.348,38.218 76.201,33.823C76.11,31.167 76.402,28.529 76.9,25.926C77.079,24.995 77.389,24.126 77.694,23.263C77.842,23.243 78,23.198 78.173,23.096C82.812,20.357 87.429,17.619 92.434,15.583C94.948,14.56 97.659,13.748 100.398,13.988C102.252,14.151 103.061,15.041 104.914,14.509C105.693,14.285 106.189,13.564 106.245,12.787C106.264,12.521 106.281,12.257 106.301,11.993C106.337,11.488 105.963,11.006 105.555,10.765C97.368,5.935 85.099,15.086 78.466,20.557C78.511,20.272 78.545,19.984 78.557,19.687C78.619,18.187 76.606,18.544 75.908,19.17Z" style="fill-rule:nonzero;"/>
    </g>
    <g id="Layer_2">
        <g>
            <path d="M310.727,206.762C281.813,159.642 194.432,118.755 231.295,60.422C262.73,15.535 300.453,48.413 309.712,61.184C315.541,51.272 357.663,14.868 389.098,59.755C419.38,115.288 355.651,138.604 310.727,206.762Z" style="fill:rgb(35,31,32);fill-rule:nonzero;"/>
            <path d="M310.344,206.999C303.595,197.759 295.543,189.716 287.275,181.895C283.121,177.999 278.876,174.187 274.648,170.336C270.409,166.497 266.106,162.702 261.912,158.763C257.701,154.841 253.505,150.871 249.419,146.747C245.362,142.597 241.381,138.323 237.666,133.764C233.937,129.221 230.437,124.411 227.446,119.21C224.469,114.012 221.979,108.406 220.499,102.443C218.998,96.496 218.575,90.209 219.362,84.118C220.164,78.022 222.15,72.191 224.882,66.884C225.565,65.555 226.291,64.254 227.058,62.984C227.44,62.348 227.833,61.72 228.235,61.099L228.839,60.169L229.521,59.15C231.265,56.839 233.164,54.54 235.169,52.402C239.19,48.113 243.728,44.218 248.916,41.321C254.074,38.4 259.915,36.582 265.864,36.26C271.824,35.882 277.766,37.081 283.292,39.117C288.837,41.17 293.967,44.153 298.728,47.598C301.106,49.332 303.364,51.224 305.537,53.226C307.704,55.241 309.765,57.365 311.649,59.778L307.65,59.969C308.816,57.927 310.13,56.349 311.51,54.766C312.894,53.208 314.352,51.746 315.869,50.351C318.906,47.564 322.177,45.042 325.664,42.802C329.148,40.556 332.882,38.646 336.824,37.14C340.762,35.631 344.936,34.557 349.244,34.142C353.545,33.711 357.975,33.917 362.266,34.868C366.558,35.811 370.682,37.482 374.441,39.671C381.985,44.079 387.999,50.367 392.84,57.131L392.963,57.303L393.109,57.565C396.905,64.377 400.053,71.873 401.255,80.012C401.854,84.062 401.989,88.238 401.523,92.347C401.077,96.458 400.1,100.491 398.698,104.302C395.883,111.948 391.588,118.669 386.897,124.775C382.203,130.905 377.014,136.443 371.811,141.862C361.339,152.637 350.521,162.761 340.251,173.434C329.929,184.046 320.143,195.163 311.104,207.006L310.72,207.508L310.344,206.999ZM310.745,205.859C318.009,193.073 326.739,181.103 336.109,169.735C345.653,158.174 355.937,147.269 365.752,136.251C370.654,130.745 375.365,125.132 379.578,119.326C383.76,113.513 387.401,107.434 389.653,101.048C391.936,94.675 392.674,88.014 391.745,81.381C390.821,74.75 388.4,68.176 385.085,61.943L385.354,62.376C381.149,56.236 376.124,50.715 370.073,46.955C364.054,43.174 357.03,41.365 349.873,41.83C346.302,42.059 342.711,42.776 339.197,43.889C335.683,45.008 332.263,46.545 328.956,48.337C325.655,50.143 322.485,52.25 319.523,54.608C318.044,55.788 316.617,57.033 315.28,58.341C313.963,59.637 312.658,61.053 311.774,62.397L309.752,65.468L307.774,62.588C304.726,58.149 300.753,54.059 296.457,50.538C292.15,46.991 287.352,44.018 282.208,41.912C277.073,39.792 271.516,38.724 266.011,38.979C260.499,39.24 255.119,41.01 250.388,43.861C245.651,46.724 241.523,50.565 238.006,54.887C236.237,57.06 234.629,59.303 233.08,61.68L232.124,63.398C231.796,64.01 231.478,64.625 231.172,65.245C230.557,66.484 229.986,67.74 229.462,69.009C227.363,74.083 226.045,79.401 225.782,84.726C225.468,90.05 226.224,95.352 227.775,100.446C230.895,110.667 236.998,120.002 243.889,128.739C247.376,133.095 251.083,137.334 254.942,141.468C258.775,145.628 262.734,149.713 266.754,153.763C270.792,157.796 274.801,161.889 278.825,165.991C282.859,170.081 286.828,174.262 290.689,178.557C294.572,182.829 298.284,187.282 301.784,191.897C305.096,196.333 308.179,200.965 310.745,205.859Z" style="fill:rgb(35,31,32);fill-rule:nonzero;"/>
        </g>
    </g>
    <g id="Layer_3">
        <path d="M445.296,219.781C436.111,220.719 426.659,220.028 421.122,211.832C420.666,211.158 419.659,212.115 419.671,212.664C419.921,224.236 435.366,225.879 443.987,225.885C449.134,225.888 454.294,225.05 459.306,223.937C461.103,223.539 462.526,223.519 463.91,222.383C466.069,224.202 468.201,226.051 470.261,227.986C470.335,228.056 470.408,228.13 470.482,228.201C469.629,229.681 469.608,231.344 471.307,232.207C484.141,238.727 502.286,242.423 514.487,232.799C525.114,224.42 528.116,208.469 532.95,196.565C538.893,181.924 546.705,165.769 543.553,149.556C542.389,143.566 539.598,139.66 534.1,137.049C529.326,134.78 522.009,134.279 519.433,129.07C519.079,128.354 518.057,128.761 517.757,129.371C517.419,129.18 516.944,129.149 516.306,129.401L516.306,129.4C505.862,133.36 496.661,140.859 488.847,148.673C484.685,152.835 481.002,157.4 477.952,162.435C477.056,163.915 475.858,165.967 475.009,168.115C473.491,162.32 472.07,156.531 470.995,150.632C470.127,145.866 470.552,140.15 468.479,135.763C468.463,135.729 468.441,135.708 468.419,135.681C469.67,135.337 470.916,134.64 471.756,134.1C473.664,132.871 475.482,130.904 475.549,128.528C475.575,127.604 474.247,127.955 473.936,128.449C472.993,129.95 472.031,131.13 470.473,132.027C469.315,132.696 467.972,133.038 466.777,133.632C451.513,129.548 442.71,144.408 437.061,156.16C432.948,164.719 430.281,173.844 426.751,182.635C423.744,190.127 419.329,198.465 418.53,206.66C418.452,206.992 418.404,207.331 418.424,207.682C418.426,207.729 418.429,207.777 418.432,207.824C418.432,207.826 418.433,207.828 418.433,207.83C418.343,209.54 419.178,210.294 420.347,210.399C422.869,210.95 426.962,208.219 426.791,205.147C426.791,205.146 426.792,205.145 426.792,205.143C426.795,205.094 426.798,205.045 426.8,204.997C426.805,204.905 426.786,204.836 426.785,204.75C426.553,197.683 430.67,190.237 433.186,183.834C435.997,176.685 438.186,169.314 441.01,162.168C443.525,155.807 446.551,149.35 450.528,143.757C452.677,140.731 455.432,139.134 458.882,137.952C462.124,136.842 464.577,137.724 467.158,135.888C467.248,135.885 467.34,135.878 467.43,135.869C467.405,135.907 467.38,135.946 467.366,135.988C465.598,141.005 466.633,146.643 467.295,151.815C468.062,157.812 469.381,163.765 470.734,169.661C470.787,170.054 470.87,170.428 471.018,170.912C471.475,172.379 473.058,172.015 474.135,171.028C473.879,172.406 473.891,173.736 474.352,174.888C474.624,175.569 475.505,175.028 475.724,174.61C477.828,170.582 478.706,166.27 481.231,162.344C484.16,157.787 487.896,153.735 491.767,149.974C498.651,143.288 507.221,136.228 516.515,133.286C517.054,133.114 517.476,132.764 517.786,132.341C519.244,139.392 530.097,140.381 534.609,145.194C539.099,149.984 537.973,159.59 537,165.398C535.747,172.867 532.951,180.005 530.09,186.978C525.443,198.302 521.68,210.561 515.767,221.288C512.464,227.279 508.081,230.469 501.259,231.12C494.662,231.75 487.874,230.38 481.648,227.962C480.645,226.369 479.068,225.027 477.557,223.596C473.964,220.186 469.894,217.137 465.856,214.283C457.938,208.688 449.627,202.787 441.075,198.217C439.985,197.635 438.452,199.206 439.183,200.246C444.02,207.125 451.6,212.39 458.19,217.663C458.038,217.699 457.884,217.736 457.734,217.774C453.657,218.798 449.472,219.355 445.296,219.781Z" style="fill:rgb(1,1,1);fill-rule:nonzero;"/>
        <path d="M446.372,185.094C456.337,192.742 469.428,193.087 480.931,197.648C490.283,201.355 499.314,206.718 502.264,216.563C502.285,216.878 502.346,217.195 502.484,217.511C502.533,217.625 502.582,217.739 502.63,217.853C504.243,221.582 510.097,217.939 509.711,214.72C509.161,210.141 506.589,206.27 503.134,203.088C503.616,202.61 503.962,202.012 504.037,201.351C504.948,193.304 509.046,186.325 511.99,178.913C513.245,175.754 514.011,172.475 514.484,169.119C514.849,166.539 513.197,164.231 512.556,161.839C512.412,161.294 511.654,161.88 511.641,162.243C511.222,175.535 501.866,186.202 499.175,198.803C498.929,199.018 498.723,199.278 498.589,199.569C495.141,197.296 491.376,195.53 488.027,194.267C478.805,190.789 468.908,189.837 459.336,187.802C460.161,186.883 460.58,185.719 460.03,184.679C456.611,178.224 456.617,169.207 459.864,162.655C460.266,161.84 459.287,161.652 458.772,162.058C452.058,167.335 450.783,178.405 453.387,186.342C451.241,185.737 449.12,185.047 447.043,184.207C446.558,184.011 445.878,184.714 446.372,185.094Z" style="fill:rgb(1,1,1);fill-rule:nonzero;"/>
        <path d="M529.073,390.297C529.111,393.905 534.779,391.424 534.732,388.483L534.733,388.483C534.733,388.475 534.732,388.469 534.732,388.462C534.684,385.288 534.788,377.778 532.311,373.997C533.486,372.134 533.79,369.717 534.422,367.639C535.682,363.503 537.235,359.457 538.762,355.415C541.258,348.8 543.705,342.181 545.535,335.345C549.588,320.212 549.584,303.47 547.922,288.001C546.457,274.372 543.537,260.263 534.542,249.511C530.209,244.331 526.221,239.435 526.326,232.325C526.422,225.878 528.64,218.896 531.832,213.345C532.059,212.95 531.506,212.764 531.251,213.028C524.937,219.606 520.365,232.232 522.355,241.263C523.132,244.793 525.496,247.963 527.971,250.918C526.358,251.651 524.599,253.645 523.433,254.297C519.912,256.268 515.794,257.276 511.856,257.975C504.358,259.301 496.696,258.993 489.13,259.619C488.894,259.639 488.59,260.134 488.943,260.165C496.081,260.8 503.244,260.769 510.37,259.942C513.995,259.522 517.626,258.755 521.058,257.515C522.428,257.021 523.745,256.371 525.027,255.69C525.428,255.476 527.556,253.927 528.219,253.348C528.637,253.249 529.047,253.078 529.363,252.936C529.439,252.902 529.506,252.851 529.574,252.803C530.475,253.856 531.35,254.885 532.124,255.895C532.799,256.776 533.416,257.688 533.988,258.623C533.289,258.437 532.412,258.626 531.49,259.46C523.133,267.023 508.314,266.036 497.862,266.667C497.408,266.693 496.608,267.607 497.28,267.897C508.589,272.756 523.543,269.018 533.773,263.266C534.77,262.705 535.271,261.944 535.425,261.196C538.146,266.575 539.586,272.571 540.794,278.458C544.175,294.941 544.275,312.377 541.556,328.957C540.295,336.644 537.601,344.028 534.862,351.287C533.458,355.011 532.044,358.729 530.713,362.48C530.247,363.794 529.81,365.122 529.367,366.444C529.059,367.372 528.841,368.914 528.497,370.237C527.674,370.93 527.047,371.884 526.981,372.857C526.599,373.351 526.424,373.952 526.687,374.529C528.132,377.7 528.718,380.968 528.945,384.324C528.212,384.497 527.519,384.749 526.812,385.07C510.615,388.653 494.109,388.757 477.556,388.049C470.21,387.735 462.859,387.93 455.51,387.742C449.814,387.597 444.196,386.446 438.566,385.885C438.649,385.68 438.711,385.471 438.738,385.259C439.54,379.042 439.373,372.837 439.189,366.586C438.98,359.424 439.518,352.369 440.274,345.249C441.818,330.728 444.503,316.342 447.614,302.083C450.149,290.465 453.085,278.937 456.136,267.443C456.334,267.625 456.544,267.799 456.782,267.964C458.206,268.948 459.909,269.758 461.622,270.059C463.974,270.472 466.673,266.468 463.716,265.616C462.435,265.246 461.148,265.059 459.915,264.519C459.029,264.131 458.131,263.643 457.286,263.125C457.432,262.575 457.577,262.025 457.724,261.477C458.062,260.218 458.405,258.96 458.745,257.702C461.575,258.995 464.822,259.339 467.898,259.386C468.714,259.399 469.267,257.935 468.211,257.929C465.066,257.911 462.006,257.526 459.057,256.543C460.392,251.605 461.732,246.671 463.059,241.731C464.478,236.445 457.018,233.131 458.885,227.478C459.512,225.582 456.751,226.354 456.163,227.352C454.183,230.714 455.463,234.63 456.741,238.017C458.011,241.383 457.79,242.127 456.786,245.716C455.783,249.302 454.788,252.89 453.807,256.483C449.974,270.523 446.278,284.601 443.029,298.791C439.762,313.045 437.088,327.431 435.244,341.938C434.356,348.911 433.584,355.978 433.471,363.01C433.37,369.202 433.862,375.366 433.521,381.535C433.208,381.476 432.898,381.417 432.566,381.365C431.2,381.157 428.864,382.863 429.686,384.434C430.413,385.82 431.358,386.512 432.521,387.158C432.526,387.355 432.584,387.547 432.75,387.707C433.91,388.825 435.314,389.686 436.864,390.354C436.631,390.561 436.448,390.798 436.408,391.003C433.217,407.232 445.417,420.06 455.379,431.186C467.487,444.71 480.949,456.939 492.227,471.184C492.037,471.634 491.971,472.122 492.136,472.604C492.81,474.568 494.057,475.048 496.054,475.312C497.798,475.541 499.973,473.958 500.183,472.193C500.396,475.815 500.594,479.439 500.741,483.065C500.962,488.566 501.048,494.074 501.003,499.579C500.962,504.359 501.394,510.137 499.834,514.702C498.507,518.587 503.83,518.746 504.895,515.645C507.749,507.339 506.794,497.281 506.646,488.624C506.458,477.525 505.538,466.436 504.73,455.369C503.224,434.732 501.276,414.119 501.387,393.444C510.646,393.025 519.849,391.977 529.058,389.769C529.062,389.946 529.075,390.121 529.073,390.297ZM497.117,419.013C497.202,420.78 497.301,422.547 497.39,424.315C495.39,420.596 492.853,417.132 490.649,414.477C485.699,408.515 476.652,402.862 468.63,404.998C468.116,405.135 467.376,406.155 468.11,406.512C471.169,407.998 474.595,408.442 477.676,410.002C481.29,411.832 484.204,414.809 486.719,417.924C489.36,421.194 491.198,425.004 492.92,428.809C494.364,431.997 494.964,436.081 497.377,438.682C497.603,438.925 497.88,439.053 498.177,439.1C498.377,442.667 498.577,446.235 498.784,449.801C499.202,456.991 499.703,464.178 500.132,471.367C500.058,471.078 499.923,470.791 499.715,470.513C488.986,456.143 475.883,443.85 463.446,431.001C457.197,424.547 451.204,417.825 445.838,410.614C441.245,404.443 440.292,398.147 438.569,390.99C442.93,392.428 448.059,392.674 452.085,392.936C459.556,393.424 467.044,393.196 474.521,393.416C482.776,393.659 490.938,393.821 499.054,393.543C496.366,401.6 496.714,410.654 497.117,419.013Z" style="fill:rgb(1,1,1);fill-rule:nonzero;"/>
        <path d="M536.026,450.096C537.46,439.315 538.018,427.507 535.561,416.837C534.289,411.305 532.41,406.076 529.653,401.108C527.709,397.601 524.215,395.526 522.495,392.011C522.183,391.382 521.189,391.878 521.133,392.451C520.838,395.423 521.334,396.688 523.397,398.818C526.448,401.967 527.938,408.52 529.258,412.605C532.932,423.977 532.38,437.013 531.039,448.736C529.809,459.482 527.099,470.03 523.738,480.292C521.959,485.73 519.86,491.063 517.658,496.341C516.524,499.052 515.314,501.73 514.09,504.399C513.63,505.399 513.358,506.758 513.004,508C512.36,508.528 511.839,509.201 511.672,509.75C511.354,510.799 510.998,511.834 511.526,512.867C512.547,514.864 515.301,514.035 516.36,512.475C518.674,509.067 519.639,504.346 521.321,500.536C523.721,495.099 525.881,489.557 527.84,483.946C531.678,472.954 534.49,461.639 536.026,450.096Z" style="fill:rgb(1,1,1);fill-rule:nonzero;"/>
        <path d="M539.275,56.403C539.156,51.311 537.652,46.085 534.946,40.995C529.442,30.643 516.451,23.097 505.138,28.035C504.492,24.12 499.38,20.64 496.161,19.142C489.098,15.857 480.626,16.404 473.657,19.686C465.41,23.571 457.656,31.857 453.664,41.266C447.744,42.253 443.551,47.563 440.613,52.497C436.145,59.999 434.634,68.174 435.912,76.816C436.863,83.244 440.195,88.674 445.577,92.278C446.382,92.817 447.284,93.319 448.247,93.776C444.46,98.919 447.055,104.99 451.653,108.844C455.302,111.902 464.411,116.651 468.49,112.028C468.954,111.503 468.919,110.768 468.376,110.351C467.053,109.332 464.62,109.756 463.028,109.475C460.505,109.029 458.183,107.877 456.007,106.571C451.497,103.864 448.524,99.519 449.574,94.362C453.516,95.96 458.24,96.731 462.066,95.843C464.132,103.923 468.41,111.19 475.484,116.025C475.167,116.272 474.919,116.64 474.919,116.975C474.917,119.568 475.511,122.201 475.734,124.787C475.878,126.447 475.911,128.13 475.704,129.787C475.558,130.97 474.804,131.78 474.554,132.906C474.237,134.336 475.736,134.615 476.73,134.123C481.377,131.815 478.888,121.539 477.136,117.079C477.342,117.201 477.54,117.33 477.751,117.448C484.675,121.348 493.313,121.971 500.644,118.935C501.031,118.775 501.396,118.595 501.765,118.418C501.043,120.104 500.619,121.919 500.615,123.748C500.61,125.571 500.844,127.352 501.094,129.155C501.181,129.789 501.257,130.419 501.378,131.046C501.408,131.207 501.865,132.653 501.633,131.494C501.996,133.307 503.898,132.624 504.802,131.647C506.177,130.165 505.418,128.261 505.001,126.544C504.16,123.083 504.557,119.942 504.917,116.565C510.874,112.32 513.956,105.443 515.234,98.07C515.677,95.514 516.008,92.876 516.248,90.199C516.364,90.196 516.479,90.181 516.582,90.148C521.336,88.585 524.239,80.519 524.408,76.028C524.485,73.931 523.242,70.717 521.374,69.559C519.517,68.41 517.785,69.143 516.195,70.282C516.006,68.224 515.778,66.187 515.474,64.208C514.585,58.416 512.698,52.869 510.01,47.675C507.128,42.105 503.656,38.985 498.471,35.756C497.475,35.136 495.699,36.852 496.582,37.781C502.268,43.76 506.55,50.431 509.168,58.07C509.075,58.049 508.98,58.028 508.892,58.006C506.46,57.36 504.184,56.11 502.056,54.797C498.199,52.413 495.077,49.269 494.122,44.771C494.115,44.738 494.096,44.723 494.086,44.694C494.794,44.431 495.511,44.181 496.245,43.959C496.685,43.824 497.327,42.731 496.518,42.674C487.868,42.049 479.905,49.877 474.865,55.984C471.429,60.146 468.71,64.936 466.689,69.927C466.428,70.571 466.161,71.254 465.901,71.961C465.97,71.523 466.045,71.088 466.122,70.657C467.462,63.25 470.377,56.008 474.91,49.981C476.997,47.208 479.594,44.895 482.538,43.069C483.964,42.185 491.162,38.734 491.838,41.142C492.05,41.905 493.094,41.149 493.201,40.704C493.331,40.173 493.461,39.641 493.59,39.109C493.694,38.681 493.457,38.224 493.004,38.15C476.359,35.421 465.769,55.47 462.399,68.548C460.489,75.965 459.949,84.258 461.27,92.062C458.083,91.295 454.611,91.237 451.516,90.008C446.486,88.009 443.102,84.021 441.211,79.049C436.927,67.778 441.231,49.637 452.682,43.823C450.321,50.708 450.047,58.018 453.094,64.548C453.565,65.557 454.915,64.53 454.928,63.735C455.059,55.958 455.104,48.676 457.977,41.311C460.621,34.536 465.443,28.679 471.58,24.803C477.274,21.207 484.516,19.959 491.029,21.658C493.742,22.366 496.209,23.628 498.572,25.102C501.584,26.982 501.843,29.372 502.658,32.466C502.806,33.034 503.575,32.629 503.789,32.377C504.647,31.366 505.078,30.347 505.184,29.345C516.345,27.944 526.569,34.779 531.528,44.563C534.155,49.747 535.897,55.408 535.049,61.235C534.266,66.606 530.84,71.255 528.952,76.25C528.579,77.235 529.649,77.673 530.344,77.013C535.339,72.258 538.127,66.791 538.99,61.034C541.736,66.763 543.037,72.384 541.252,79.29C540.207,83.327 537.81,87.037 534.925,89.996C531.994,93 528.085,94.233 524.906,96.809C524.396,97.222 523.996,98.598 525.024,98.679C528.071,98.92 531.076,97.687 533.797,95.681C532.523,100.474 530.763,104.261 526.363,107.732C521.938,111.222 516,112.314 511.73,115.826C511.253,116.218 510.852,117.548 511.842,117.615C517.744,118.016 525.071,113.006 529.355,109.351C533.751,105.602 537.542,99.348 536.46,93.396C540.149,89.77 543.03,84.963 544.3,81.212C547.111,72.906 546.124,62.4 539.275,56.403ZM519.834,81.313C519.101,82.946 517.591,84.563 516.52,86.255C516.777,81.308 516.697,76.295 516.299,71.421C522.169,69.264 521.183,78.307 519.834,81.313ZM466.395,82.093C467.667,78.269 468.012,74.254 469.437,70.44C471.091,66.017 473.587,61.947 476.415,58.186C480.57,52.657 485.678,48.365 491.808,45.62C490.578,49.827 494.439,53.871 497.49,56.25C500.12,58.301 506.17,62.689 510.313,61.892C510.411,62.269 510.512,62.644 510.602,63.026C512.79,72.288 512.168,82.244 511.652,91.668C511.157,100.689 509.416,110.04 500.852,114.725C494.217,118.355 485.881,116.553 479.655,113.043C468.944,107.006 465.229,94.824 465.082,82.945C465.538,83.139 466.262,82.497 466.395,82.093Z" style="fill:rgb(1,1,1);fill-rule:nonzero;"/>
        <path d="M471.743,119.77C469.109,120.187 465.761,120.314 463.597,118.426C463.209,118.088 462.321,118.648 462.61,119.131C463.612,120.803 464.723,122.033 466.676,122.65C468.483,123.218 471.187,123.822 472.641,122.286C473.12,121.779 473.543,121.054 473.044,120.4C472.986,120.324 472.928,120.249 472.87,120.171C472.632,119.859 472.117,119.71 471.743,119.77Z" style="fill:rgb(1,1,1);fill-rule:nonzero;"/>
        <path d="M518.216,513.503C517.912,513.515 517.575,513.873 517.69,514.186C518.163,515.466 518.887,516.014 519.769,517.068C521.644,519.31 521.957,522.513 522.099,525.297C522.373,530.651 520.715,536.113 519.627,541.305C518.603,546.19 517.207,553.617 518.606,558.531C519.445,561.478 523.468,558.553 523.894,556.827C524.501,554.359 523.962,551.413 523.888,548.902C523.738,543.882 524.708,539.053 525.307,534.082C525.895,529.196 526.268,513.169 518.216,513.503Z" style="fill:rgb(1,1,1);fill-rule:nonzero;"/>
        <path d="M500.247,521.918C500.483,521.138 499.369,521.273 499.069,521.696C489.085,535.718 477.131,546.615 462.863,556.177C461.273,557.242 459.594,560.428 462.457,561.139C470.422,563.118 479.728,562.175 487.808,561.619C492.08,561.325 506.248,561.513 507.037,555.146C507.331,552.778 504.6,552.212 503.123,553.75C504.274,552.553 502.863,553.876 502.168,554.127C500.807,554.618 499.352,554.853 497.93,555.088C493.894,555.757 489.785,556.033 485.703,556.261C480.814,556.532 475.471,556.973 470.382,556.562C475.828,552.455 480.985,547.952 485.803,543.135C491.787,537.157 497.762,530.146 500.247,521.918Z" style="fill:rgb(1,1,1);fill-rule:nonzero;"/>
        <path d="M559.905,514.893C566.05,511.222 556.471,502.517 554.15,499.326C551.527,495.722 553.106,488.751 549.335,485.943C544.915,482.655 539.066,482.116 534.126,479.839C533.44,479.522 532.312,480.493 532.882,481.172C535.256,483.992 538.429,485.186 541.692,486.74C547.406,489.466 546.555,494.469 547.957,499.715C549.44,505.268 554.838,509.19 557.147,514.339C557.638,515.436 558.982,515.443 559.905,514.893Z" style="fill:rgb(1,1,1);fill-rule:nonzero;"/>
        <path d="M530.005,544.932C535.476,542.609 544.573,541.624 547.608,535.763C552.402,526.503 547.106,515.633 545.453,506.281C545.297,505.407 544.04,505.886 543.969,506.58C543.041,515.518 547.162,524.709 543.649,533.413C542.821,535.465 540.484,535.881 538.59,536.448C535.291,537.439 532.059,538.503 529.01,540.131C526.511,541.465 526.579,546.387 530.005,544.932Z" style="fill:rgb(1,1,1);fill-rule:nonzero;"/>
        <path d="M479.555,259.014C480.367,258.56 480.909,256.653 479.434,256.857C473.256,257.713 471.423,264.546 471.513,269.839C471.526,270.5 472.033,271.057 472.676,271.164C475.859,271.692 479.079,271.695 482.28,271.311C485.105,270.973 488.827,270.506 490.103,267.616C490.438,266.858 490.327,266.201 489.675,265.695C488.013,264.403 485.418,266.009 483.659,266.471C481.041,267.159 478.263,267.291 475.555,267.203C475.266,263.799 476.362,260.813 479.555,259.014Z" style="fill:rgb(1,1,1);fill-rule:nonzero;"/>
        <path d="M513.306,125.371C510.617,125.359 508.031,124.932 506.177,122.84C505.771,122.381 504.899,123.005 504.974,123.53C505.341,126.086 507.506,127.211 509.828,127.831C512.26,128.478 516.561,129.083 518.651,127.417C519.044,127.104 519.221,126.546 518.929,126.118C517.939,124.664 514.814,125.377 513.306,125.371Z" style="fill:rgb(1,1,1);fill-rule:nonzero;"/>
    </g>
</svg>
