<?xml version="1.0" encoding="UTF-8" standalone="no"?>
<!DOCTYPE svg PUBLIC "-//W3C//DTD SVG 1.1//EN" "http://www.w3.org/Graphics/SVG/1.1/DTD/svg11.dtd">
<svg width="100%" height="100%" viewBox="0 0 1024 1024" version="1.1" xmlns="http://www.w3.org/2000/svg" xmlns:xlink="http://www.w3.org/1999/xlink" xml:space="preserve" xmlns:serif="http://www.serif.com/" style="fill-rule:evenodd;clip-rule:evenodd;stroke-linejoin:round;stroke-miterlimit:1.41421;">
    <g id="boy">
        <path d="M896.448,428.176C900.585,428.955 896.857,434.759 894.33,435.162C879.691,437.496 865.142,440.549 852.389,449.487C822.664,470.318 807.151,508.641 797.719,545.186C788.087,582.522 783.161,623.828 787.37,662.646C789.818,685.222 796.663,707.732 809.874,725.246C822.067,741.411 838.505,752.794 856.763,757.962C878.093,764.005 901.081,763.567 922.447,757.823C944.407,751.92 971.042,741.07 984.06,718.708C997.249,696.056 993.528,664.421 992.433,638.827C991.073,607.023 985.666,575.354 977.745,544.83C974.656,532.922 971.566,520.79 966.56,509.693C962.049,499.694 956.655,490.224 950.627,481.303C944.087,471.62 936.899,462.272 928.562,454.495C922.834,449.157 914.384,443.509 908.009,441.887C897.624,439.244 906.446,424.384 913.53,423.675C931.928,421.836 947.466,438.844 958.645,453.393C970.516,468.839 981.591,486.792 988.314,505.89C998.403,534.543 1004.38,566.153 1008.33,596.578C1010.3,611.807 1011.25,627 1011.8,642.368C1012.32,656.997 1012.83,671.707 1011.25,686.285C1009.67,700.864 1005.73,715.214 998.226,727.35C990.66,739.581 979.944,749.423 968.587,756.918C946.363,771.584 920.495,779.773 894.857,781.607C853.825,784.544 810.248,769.647 787.707,728.214C767.251,690.613 766.863,645.236 771.414,602.681C775.926,560.474 786.577,517.406 808.134,482.045C827.249,450.694 860.665,421.455 896.448,428.176Z" style="fill:rgb(1,1,1);fill-rule:nonzero;"/>
        <path d="M816.474,633.92C811.441,633.821 813.328,627.912 816.065,625.719C814.61,626.887 817.994,624.354 817.152,624.837C817.632,624.562 818.111,624.292 818.591,624.017C819.691,623.392 820.788,622.764 821.89,622.141C823.619,621.163 825.326,620.124 827.067,619.171C830.182,617.468 835.152,617.409 835.4,622.604C835.617,627.247 831.608,631.443 827.698,631.839C825.288,632.085 824.78,632.257 822.599,632.774C820.582,633.25 818.537,633.96 816.474,633.92Z" style="fill:rgb(1,1,1);fill-rule:nonzero;"/>
        <path d="M831.784,628.778C839.439,636.383 846.649,642.632 856.977,645.053C869.082,647.892 881.599,647.475 893.797,645.55C906.455,643.548 918.983,640.016 930.938,634.898C935.681,632.87 940.337,630.627 944.781,627.86C949.349,625.019 950.91,623.86 953.936,620.689C952.933,623.93 951.932,627.17 950.93,630.412C950.411,628.442 950.467,625.677 949.5,623.905C945.525,616.598 954.022,606.238 960.916,610.084C963.819,611.705 967.688,613.781 968.634,617.622C969.592,621.515 967.929,624.967 965.485,627.592C963.505,629.19 963.505,629.19 965.485,627.592C964.587,628.487 963.574,629.145 962.436,629.569C961.58,629.798 961.208,630.071 960.061,630.174C956.481,630.502 953.737,626.965 950.836,625.102C954.932,621.045 959.03,616.987 963.128,612.929C964.456,615.745 964.406,618.364 965.019,621.353C965.784,625.072 964.629,628.588 962.017,631.079C953.079,639.608 941.627,645.039 930.63,649.173C917.214,654.217 903.149,657.672 889.048,659.014C876.045,660.253 862.035,660.321 849.545,655.477C839.697,651.659 828.539,644.514 827.696,631.425C827.559,629.245 830.228,627.232 831.784,628.778Z" style="fill:rgb(1,1,1);fill-rule:nonzero;"/>
        <path d="M783.372,569.592C783.409,571.196 780.428,573.477 779.982,571.282C777.197,557.586 758.196,561.568 751.022,567.134C744.234,572.401 742.268,582.058 744.224,590.785C746.217,599.687 750.585,608.953 757.516,614.193C762.743,618.151 768.951,619.947 773.04,614.911C774.104,617.924 775.167,620.935 776.229,623.946C773.433,624.302 767.965,623.894 768.88,619.078C769.779,614.344 774.91,611.744 778.643,611.239C783.294,610.608 784.514,616.93 781.833,620.274C773.562,630.603 761.216,634.525 750.482,626.152C740.741,618.556 733.8,605.724 732.702,592.336C731.462,577.243 738.343,562.577 750.709,556.058C757.311,552.576 765.757,550.311 772.931,553.043C775.985,554.205 779.296,555.638 781.071,558.883C783.163,562.705 783.275,565.275 783.372,569.592Z" style="fill:rgb(1,1,1);fill-rule:nonzero;"/>
        <path d="M997.13,565.768C996.626,567.264 993.781,567.767 994.264,565.619C996.111,557.434 999.223,551.429 1005.59,546.497C1011.86,541.641 1020.06,538.992 1027.67,540.346C1041.94,542.884 1056.22,558.562 1057.53,575.1C1058.77,590.84 1050.57,605.359 1039.73,614.512C1033.69,619.618 1026.56,623.635 1019.13,625.351C1013.68,626.61 1001.65,629.872 998.585,622.874C997.389,620.145 999.828,617.015 1001.66,615.698C1006.64,612.131 1014,614.583 1019.71,613.006C1024.8,611.597 1029.6,609.415 1033.93,606.024C1040.92,600.538 1047.09,591.258 1046.84,581.226C1046.53,568.331 1037.32,556.545 1026.9,551.927C1016.27,547.213 1001.38,553.14 997.13,565.768Z" style="fill:rgb(1,1,1);fill-rule:nonzero;"/>
        <path d="M1015.27,578.425C1014.16,578.5 1013.44,577.561 1013.64,576.328C1014.43,571.708 1020.34,568.106 1024.28,569.002C1027.86,569.815 1030.27,573.138 1031.15,577.021C1032.23,581.794 1032.12,586.652 1030.52,591.272C1028.85,596.088 1024.28,602.261 1019.28,602.231C1012.66,602.188 1014.71,593.862 1018.73,591.097C1019.65,590.458 1020.65,590.188 1021.62,589.721C1021.3,589.875 1020.11,591.012 1020.98,590.006C1019.74,591.43 1021.59,588.586 1021.01,589.875C1021.26,589.321 1021.51,588.764 1021.7,588.176C1022.16,586.76 1022.45,583.706 1022.16,581.506C1021.95,579.884 1021.26,577.647 1020.35,577.12C1019.02,576.355 1016.96,578.307 1015.27,578.425Z" style="fill:rgb(1,1,1);fill-rule:nonzero;"/>
        <path d="M764.162,580.332C761.534,582.493 758.285,583.917 757.805,588.04C757.372,591.757 759.497,594.012 762.257,595.482C768.223,598.661 759.622,610.706 754.831,606.543C749.329,601.756 746.875,594.152 749.984,586.715C752.231,581.343 757.995,574.32 763.904,575.731C765.948,576.219 765.521,579.215 764.162,580.332Z" style="fill:rgb(1,1,1);fill-rule:nonzero;"/>
        <path d="M861.256,549.17C862.527,546.18 868.737,541.959 870.244,547.106C873.663,558.787 867.434,572.947 874.231,583.893C869.513,586.278 864.797,588.666 860.081,591.051C863.104,580.73 867.29,564.062 858.565,555.875C860.335,556.587 862.106,557.299 863.877,558.01C864.244,557.894 864.611,557.776 864.977,557.658C867.552,552.993 870.125,548.33 872.697,543.667C874.182,551.275 874.849,561.054 872.914,568.592C871.774,573.025 868.955,576.675 864.977,578.109C861.886,579.223 857.643,578.558 856.424,574.588C854.193,567.317 854.889,557.15 856.199,549.665C857.164,544.163 863.146,538.242 868.378,539.758C865.174,538.83 871.024,540.514 871.176,540.607C871.976,541.283 872.746,541.999 873.488,542.753C874.949,544.456 876.183,546.406 877.117,548.538C878.97,552.758 879.896,557.694 879.978,562.4C880.153,572.525 878.32,582.572 874.678,591.822C872.349,597.74 863.661,602.286 860.282,595.131C856.838,587.846 856.508,579.545 857.072,571.476C857.583,564.182 858.421,555.83 861.256,549.17Z" style="fill:rgb(1,1,1);fill-rule:nonzero;"/>
        <path d="M902.503,546.404C904.22,544.945 907.746,544.087 907.992,547.615C908.461,554.307 906.533,561.212 906.706,568.017C906.87,574.339 907.085,582.759 910.3,588.252C905.54,590.014 900.779,591.774 896.022,593.536C898.376,587.07 900.17,580.337 900.893,573.365C901.439,568.035 901.879,560.263 897.869,556.448C903.127,554.502 908.383,552.557 913.64,550.611C912.785,552.837 912.169,555.14 911.097,557.239C907.825,563.641 896.809,569.658 895.046,558.707C894.406,554.727 895.855,550.745 897.35,547.185C899.46,542.166 908.897,534.541 913.121,541.348C922.842,557.012 918.635,580.843 910.77,596.64C908.27,601.668 898.541,608.848 895.541,600.141C892.372,590.944 892.387,580.684 893.52,571.024C894.482,562.765 896.206,551.75 902.503,546.404Z" style="fill:rgb(1,1,1);fill-rule:nonzero;"/>
        <path d="M822.254,761.575C823.327,759.304 828.156,757.803 827.317,761.841C820.126,796.402 821.93,834.198 830.895,868.061C828.722,866.69 826.546,865.322 824.369,863.95C852.233,861.713 879.504,871.678 907.307,871.263C921.35,871.052 935.324,869.555 949.268,867.727C956.237,866.811 963.204,865.839 970.175,864.965C977.245,864.078 984.472,862.724 991.586,863.316C987.546,869.289 983.505,875.263 979.467,881.236C977.916,878.773 977.17,876.629 977.12,873.613C977.033,868.163 981.24,864.191 985.679,863.352C988.88,862.746 990.551,862.889 993.615,864.111C997.488,865.66 997.162,871.935 995.805,875.192C994.382,878.601 991.215,882.256 987.831,883.086C980.746,884.826 973.393,885.081 966.187,885.977C959.214,886.842 952.255,887.796 945.286,888.684C931.364,890.462 917.371,892.081 903.346,892.132C875.521,892.233 848.567,883.22 820.778,882.88C817.244,882.836 814.065,881.031 813.85,876.574C812.021,838.798 805.765,796.479 822.254,761.575Z" style="fill:rgb(1,1,1);fill-rule:nonzero;"/>
        <path d="M974.131,748.456C974.48,744.417 980.083,741.689 982.093,745.559C985.3,751.736 986.836,762.87 988.388,770.87C991.081,784.75 993.67,798.66 995.938,812.639C998.041,825.611 1000.09,838.673 1001.1,851.824C1001.88,861.785 1003.48,875.987 994.053,881.576C989.687,884.164 983.101,883.805 982.613,876.867C982.541,875.82 982.667,874.502 982.924,873.422C983.186,872.324 983.553,871.263 983.898,870.195C983.346,872.102 983.208,872.546 983.48,871.529C983.714,870.565 984.309,865.994 984.161,868.516C984.441,863.794 984.376,859.053 984.192,854.329C983.676,840.986 982.426,827.677 981.01,814.422C979.564,800.876 977.958,787.352 976.197,773.854C975.123,765.63 973.412,756.758 974.131,748.456Z" style="fill:rgb(1,1,1);fill-rule:nonzero;"/>
        <path d="M827.68,876.275C829.148,873.119 835.558,871.134 834.566,876.637C831.564,893.294 833.15,908.843 834.214,925.578C832.523,924.04 830.827,922.499 829.137,920.959C852.644,916.454 876.029,923.862 899.569,921.589C896.795,924.919 894.017,928.248 891.242,931.573C890.16,921.27 892.88,911.014 899.134,903.333C901.422,900.521 905.599,897.132 909.139,899.586C918.628,906.154 930.346,913.999 933.448,926.97C931.01,925.965 928.569,924.96 926.128,923.957C936.766,921.483 947.303,922.132 958.06,923.171C967.198,924.053 976.992,925.581 985.952,922.642C983.648,925.404 981.349,928.164 979.044,930.927C979.588,923.796 979.641,912.346 978.648,903.729C978.164,899.52 977.514,895.201 975.846,891.346C974.758,888.824 972.596,886.483 971.524,885.733C966.533,882.24 970.999,873.786 975.503,872.687C998.57,867.062 994.786,914.618 993.594,929.596C993.299,933.304 989.66,936.921 986.686,937.885C966.901,944.284 946.665,934.422 926.848,938.937C924.321,939.516 920.399,939.627 919.528,935.925C917.049,925.362 907.39,919.071 899.753,913.567C902.609,912.897 905.465,912.226 908.322,911.556C904.952,915.584 904.565,921.376 905.055,926.581C905.518,931.518 900.79,936.22 896.726,936.566C873.23,938.557 849.949,930.764 826.506,934.828C824.152,935.235 821.276,933.143 821.429,930.208C822.341,912.781 820.266,892.257 827.68,876.275Z" style="fill:rgb(1,1,1);fill-rule:nonzero;"/>
        <path d="M868.405,778.794C868.659,777.901 870.809,775.951 871.173,777.787C873.091,787.497 878.684,791.046 886.765,793.386C893.369,795.296 902.637,796.56 909.201,793.963C911.386,793.101 909.082,794.592 909.622,793.821C910.099,793.181 910.54,792.511 910.946,791.81C911.799,790.257 912.543,788.383 912.973,786.621C913.823,783.157 913.277,779.297 913.96,776.518C915.963,768.388 926.698,766.694 926.536,776.86C926.402,785.442 922.305,795.878 916.533,801.516C910.389,807.517 901.866,807.529 894.158,806.79C886.669,806.067 879.239,804.07 873.041,799.047C866.75,793.944 866.172,786.635 868.405,778.794Z" style="fill:rgb(1,1,1);fill-rule:nonzero;"/>
        <path d="M823.145,765.359C817.808,770.44 811.616,774.131 806.588,779.736C801.579,785.323 797.725,791.702 794.604,798.797C794.483,796.665 794.366,794.534 794.247,792.402C798.82,797.021 805.866,798.617 811.086,802.206C816.64,806.027 821.222,813.853 814.186,819.582C812.42,821.021 808.722,823.064 806.979,820.241C801.471,811.325 796.354,803.032 789.504,795.736C788.059,794.202 788.293,791.123 789.145,789.341C793.505,780.224 793.803,779.001 800.852,772.359C806.597,766.947 814.276,760.204 822.136,760.048C825.043,759.992 824.942,763.655 823.145,765.359Z" style="fill:rgb(1,1,1);fill-rule:nonzero;"/>
        <path d="M981.144,740.697C984.342,737.328 988.53,745.595 990.369,747.58C994.88,752.453 999.984,756.582 1005.11,760.584C1015.46,768.666 1026.65,776.474 1034.89,787.397C1038.87,792.674 1032.39,799.288 1027.99,800.037C1021.35,801.166 1015.23,803.369 1009.28,806.959C1006.3,808.765 1003.36,810.675 1000.49,812.694C997.561,814.747 994.995,817.077 991.401,817.024C987.749,816.969 985.503,813.443 987.341,809.533C991.037,801.671 1001.13,796.592 1008.1,792.929C1015.22,789.191 1022.78,786.083 1030.71,785.716C1028.16,789.454 1025.6,793.19 1023.05,796.927C1017.09,784.846 1004.6,776.578 995.448,767.878C991.19,763.831 973.878,748.34 981.144,740.697Z" style="fill:rgb(1,1,1);fill-rule:nonzero;"/>
        <path d="M850.384,928.113C851.276,926.55 854.792,926.239 854.026,928.89C848.214,948.958 847.678,970.571 855.773,989.909C857.645,994.383 852.141,999.07 848.631,998.497C845.893,998.052 842.868,997.844 840.206,998.912C839.176,999.323 838.407,1000.65 838.856,999.235C839.21,998.763 839.412,999.105 839.463,1000.26C842.149,1004.12 845.242,1006.54 849.616,1007.07C853.454,1007.54 866.092,1007.02 866.215,1000.31C866.413,989.591 861.98,979.599 861.268,969C860.41,956.147 860.432,942.466 864.791,930.394C868.133,931.096 871.477,931.801 874.818,932.502C874.099,934.206 873.196,935.59 872.262,937.139C870.669,939.781 865.706,941.844 864.296,937.868C863.355,935.216 863.722,932.923 864.79,930.394C867.517,923.929 877.972,923.885 874.817,932.502C868.624,949.448 872.972,968.423 875.953,985.503C877.045,991.751 877.934,998.504 875.273,1004.42C872.69,1010.16 867.351,1014.16 862.104,1016.26C851.321,1020.58 836.594,1020.22 830.066,1007.83C826.799,1001.63 829.443,995.022 834.369,991.172C839.795,986.93 846.859,986.439 853.191,987.571C850.812,990.432 848.429,993.297 846.049,996.158C841.607,974.061 838.913,948.23 850.384,928.113Z" style="fill:rgb(1,1,1);fill-rule:nonzero;"/>
        <path d="M947.514,935.19C947.808,933.679 951.018,931.154 951.586,933.713C953.81,943.718 953.647,954.692 954.471,964.95C955.344,975.874 957.117,986.355 958.972,997.081C959.593,1000.67 955.559,1004.45 952.707,1004.59C951.602,1004.65 946.324,1004.73 947.285,1006.95C948.736,1010.34 952.153,1012 955.324,1012.19C961.77,1012.56 968.784,1009.79 974.164,1005.92C972.987,1008.66 971.813,1011.39 970.64,1014.13C967.351,997.445 963.006,981.458 962.871,964.223C962.831,959.122 962.794,954.019 962.756,948.92C962.732,945.769 962.216,941.851 963.024,938.783C963.91,935.429 966.386,932.55 969.618,932.253C972.341,932.005 974.763,934.594 973.922,937.786C973.788,938.281 973.659,938.781 973.527,939.277C972.548,942.985 965.518,949.129 963.548,942.905C963.421,942.502 963.294,942.099 963.165,941.696C961.184,935.427 971.567,927.89 973.775,934.872C974.726,937.878 974.212,941.659 974.185,944.782C974.15,949.633 974.114,954.481 974.076,959.331C973.948,976.001 977.901,991.308 980.998,1007.47C981.671,1010.98 980.094,1013.81 977.472,1015.68C967.835,1022.55 951.731,1028.19 941.645,1019.78C936.837,1015.77 934.963,1009.12 938.148,1003.13C941.661,996.52 948.247,993.555 954.848,993.322C952.757,995.827 950.67,998.329 948.581,1000.84C947.312,990.011 946.838,978.786 946.399,967.863C945.971,957.202 945.489,945.674 947.514,935.19Z" style="fill:rgb(1,1,1);fill-rule:nonzero;"/>
        <path d="M808.156,782.748C808.845,785.928 803.603,788.404 801.338,789.751C797.203,792.203 792.83,794.25 788.393,796.215C783.626,798.324 778.853,800.411 774.148,802.624C770.544,804.316 764.287,806.16 761.694,809.11C758.383,812.881 747.154,811.166 750.51,804.993C752.952,800.495 758.989,799.609 763.795,802.194C768.876,804.926 761.606,809.65 759.667,810.747C757.762,808.12 755.861,805.497 753.958,802.872C758.407,801.669 762.725,798.969 766.981,797.278C771.904,795.322 776.87,793.466 781.752,791.439C786.343,789.527 790.924,787.574 795.374,785.418C798.449,783.93 801.983,781.047 805.669,781.184C806.735,781.223 807.908,781.608 808.156,782.748Z" style="fill:rgb(1,1,1);fill-rule:nonzero;"/>
        <path d="M740.137,812.529C738.58,812.056 742.219,812.748 739.092,812.356C738.574,812.314 738.062,812.204 737.565,812.028C736.773,811.781 735.986,811.512 735.185,811.291C733.368,810.791 731.543,810.311 729.709,809.918C728.656,809.691 727.601,809.472 726.541,809.339C726.154,809.285 725.771,809.239 725.387,809.208C726.028,809.243 726.029,809.257 725.394,809.239C724.696,809.275 724.802,809.249 725.702,809.154C725.098,809.308 724.479,809.398 723.838,809.425C721.942,809.318 727.117,808.778 727.152,807.24C727.08,810.359 722.414,811.618 719.814,809.693C717.165,807.735 716.063,804.794 718.674,802.603C721.177,800.5 725.353,800.841 728.588,801.665C734.125,803.079 740.922,805.135 744.062,810.117C745.464,812.344 741.522,812.955 740.137,812.529Z" style="fill:rgb(1,1,1);fill-rule:nonzero;"/>
        <path d="M744.005,821.295C740.506,821.463 736.866,821.908 733.593,822.934C730.396,823.937 730.603,826.023 728.788,828.284C727.182,830.29 723.388,830.576 721.328,828.499C716.337,823.462 722.755,818.538 727.303,817.059C732.709,815.301 738.591,815.662 744.32,816.937C747.812,817.717 747.255,821.14 744.005,821.295Z" style="fill:rgb(1,1,1);fill-rule:nonzero;"/>
        <path d="M750.867,829.886C749.205,832.665 746.218,835.089 744.135,837.649C742.318,839.885 741.258,843.145 739.052,844.963C736.97,846.681 732.249,846.544 730.778,843.68C728.909,840.035 733.005,835.587 735.56,833.468C738.748,830.821 742.631,827.667 746.904,826.683C748.804,826.246 752.224,827.614 750.867,829.886Z" style="fill:rgb(1,1,1);fill-rule:nonzero;"/>
        <path d="M755.574,828.728C755.351,826.625 758.899,825.889 760.42,827.106C766.876,832.276 766.301,842.562 760.067,846.761C757.593,848.429 751.19,848.048 751.876,843.758C752.348,840.816 754.394,838.613 755.169,835.774C755.838,833.334 755.844,831.292 755.574,828.728Z" style="fill:rgb(1,1,1);fill-rule:nonzero;"/>
        <path d="M805.075,798.476C807.247,797.75 809.745,800.326 807.354,801.619C800.999,805.058 794.292,807.917 787.813,811.154C782.138,813.989 773.937,817.614 770.981,823.338C768.629,827.89 757.424,825.066 760.344,819.419C760.87,818.403 761.834,817.583 762.702,816.849C765.095,814.815 774.851,815.793 772.669,820.505C772.002,821.943 771.356,823.116 770.163,824.206C766.238,827.786 756.062,823.202 761.164,818.546C773.071,807.691 789.659,803.619 805.075,798.476Z" style="fill:rgb(1,1,1);fill-rule:nonzero;"/>
        <path d="M1007.23,814.919C1006.67,813.769 1008.53,812.308 1009.35,813.215C1014.98,819.516 1020.35,825.886 1025.36,832.837C1028.06,836.583 1030.75,840.35 1033.26,844.259C1035.09,847.105 1037.23,852.519 1040.11,854.111C1041.17,854.69 1041.82,856.049 1041.85,857.338C1042.08,866.359 1042.21,875.383 1042.32,884.408C1038.57,885.764 1034.82,887.121 1031.08,888.475C1031.39,883.544 1032.42,878.998 1035.76,875.594C1036.89,874.445 1038.71,873.716 1040.16,874.564C1044.19,876.938 1042.57,881.761 1042.2,885.938C1041.71,891.582 1030.99,896.037 1031.08,888.475C1031.16,881.539 1031.2,874.603 1031.38,867.671C1031.47,863.907 1032.06,859.906 1030.4,856.455C1028.8,853.142 1027.1,849.895 1025.29,846.721C1019.23,836.091 1012.64,826.005 1007.23,814.919Z" style="fill:rgb(1,1,1);fill-rule:nonzero;"/>
        <path d="M1011.6,801.275C1010.77,799.076 1013.82,796.702 1015.37,798.237C1024.91,807.681 1034.54,817.062 1043.86,826.791C1048.48,831.613 1053.3,836.518 1057.06,842.25C1060.19,847.019 1062.57,851.068 1059.1,856.603C1057.44,859.249 1052.62,861.295 1051.13,857.332C1051.61,858.602 1050.33,856.086 1050.11,855.58C1049.79,854.838 1050,853.607 1049.73,852.982C1048.75,850.728 1047.48,848.686 1046.12,846.703C1042.18,840.922 1037.8,835.519 1033.37,830.205C1028.73,824.644 1023.96,819.215 1019.47,813.499C1016.5,809.717 1013.37,805.98 1011.6,801.275Z" style="fill:rgb(1,1,1);fill-rule:nonzero;"/>
        <path d="M880.422,438.38C877.795,441.869 874.193,444.125 871.555,447.628C869.296,450.627 867.165,453.89 865.682,457.472C862.455,465.271 862.607,473.301 861.31,481.592C860.391,487.461 851.695,493.01 848.621,486.206C843.731,475.396 848.899,460.748 854.203,451.315C858.694,443.33 868.84,431.412 878.051,431.661C881.381,431.751 882.576,435.52 880.422,438.38Z" style="fill:rgb(1,1,1);fill-rule:nonzero;"/>
        <path d="M893.753,443.007C899.021,441.486 898.3,448.132 895.145,450.583C890.033,454.554 886.927,463.216 885.601,469.755C884.058,477.364 884.667,486.201 881.292,493.142C879.497,496.836 874.464,500.754 871.112,496.909C864.647,489.503 869.579,473.051 872.682,464.961C876.788,454.256 883.613,445.93 893.753,443.007Z" style="fill:rgb(1,1,1);fill-rule:nonzero;"/>
        <path d="M911.076,459.658C910.192,468.37 911.639,477.047 910.633,485.65C909.783,492.938 896.757,499.069 896.042,488.976C895.347,479.186 899.465,468.278 902.399,459.202C903.937,454.44 911.743,453.098 911.076,459.658Z" style="fill:rgb(1,1,1);fill-rule:nonzero;"/>
    </g>
    <g id="girl_1_">
        <path d="M513.886,377.877C516.177,378.101 514.45,381.342 513.084,381.701C497.485,385.842 482.892,392.966 470.599,403.711C450.804,421.018 436.282,444.578 426.126,468.955C415.6,494.228 408.719,521.997 408.707,549.609C408.696,575.761 414.758,599.627 431.804,619.588C455.416,647.23 491.475,667.239 527.423,670.357C560.945,673.261 593.434,656.522 614.517,629.899C632.377,607.342 636.245,575.429 635.457,547.281C634.603,516.674 628.948,485.019 615.467,457.46C599.858,425.55 573.488,402.338 543.628,385.136C537.274,381.475 545.585,373.822 550.185,374.077C579.828,375.732 602.974,401.753 619.345,424.923C633.003,444.247 641.811,465.976 646.991,489.217C653.944,520.425 656.395,553.593 650.191,585.18C647.382,599.468 642.896,613.556 635.534,626.082C627.097,640.44 614.661,652.52 601.584,662.448C573.152,684.026 539.602,693.288 504.683,684.816C470.124,676.427 435.042,656.943 413.652,627.132C382.13,583.204 391.462,521.866 410.448,474.473C420.668,448.965 434.826,424.492 454.365,405.325C470.123,389.867 491.195,375.656 513.886,377.877Z" style="fill:rgb(1,1,1);fill-rule:nonzero;"/>
        <path d="M523.761,339.741C518.792,343.99 509.82,356.039 515.287,362.828C517.791,365.937 521.288,369.421 525.274,370.372C528.393,371.119 530.444,370.665 532.124,369.659C533.606,368.77 535.823,366.576 536.61,365.116C538.941,360.784 540.11,354.526 536.518,351.905C528.195,345.83 518,353.914 509.176,350.42C507.238,349.65 507.813,346.63 508.843,345.407C516.49,336.337 539.769,331.997 547.797,343.56C553.758,352.146 550.625,364.182 544.352,371.715C537.244,380.25 525.406,385.756 515.101,379.405C508.415,375.283 502.575,367.826 504.483,359.363C506.749,349.32 514.145,342.054 523.176,338.195C524.236,337.743 524.424,339.172 523.761,339.741Z" style="fill:rgb(1,1,1);fill-rule:nonzero;"/>
        <path d="M547.129,346.696C545.713,348.013 544.038,346.709 545.072,345.018C564.185,313.677 596.074,293.822 629.654,282.424C647.471,276.376 666.527,272.865 685.338,273.017C691.115,273.064 696.915,273.617 702.693,273.462C706.263,273.367 710.533,271.728 713.415,272.653C711.43,273.321 709.445,273.99 707.459,274.659C706.764,275.695 706.067,276.73 705.372,277.765C705.823,274.9 708.518,273.154 711.053,272.647C712.67,272.326 714.681,272.594 715.782,274.008C718.049,276.912 716.173,280.576 713.951,282.789C710.206,286.513 704.857,285.903 700.099,285.581C694.682,285.215 689.264,284.774 683.844,284.442C666.693,283.394 648.889,285.979 632.538,291.298C615.859,296.719 599.637,303.539 585.107,313.66C571.349,323.244 559.427,335.285 547.129,346.696Z" style="fill:rgb(1,1,1);fill-rule:nonzero;"/>
        <path d="M510.686,345.274C502.966,343.559 497.89,335.908 492.799,330.202C487.167,323.887 481.431,317.587 475.165,311.923C465.227,302.94 454.482,295.282 442.834,288.807C430.638,282.025 417.676,276.135 404.016,273.294C392.124,270.818 382.686,271.731 371.244,275.275C364.673,277.311 362.791,269.206 367.549,265.526C390.137,248.06 426.483,263.05 448.115,275.044C460.224,281.756 471.401,289.898 481.614,299.361C489.065,306.269 495.651,313.948 501.992,321.923C506.74,327.892 513.23,334.325 513.986,342.304C514.138,343.925 512.22,345.612 510.686,345.274Z" style="fill:rgb(1,1,1);fill-rule:nonzero;"/>
        <path d="M373.686,275.558C364.578,285.921 359.173,301.578 356.11,314.947C353.003,328.519 351.085,342.817 353.03,356.704C352.311,355.487 351.59,354.271 350.869,353.056C397.696,383.659 456.399,372.278 508.489,370.284C511.909,370.154 511.137,374.605 508.786,375.728C489.411,384.982 467.966,386.724 446.779,387.126C422.995,387.579 398.44,386.332 375.39,379.846C365.605,377.096 355.673,373.661 347.077,368.003C341.578,364.384 339.995,362.604 340.559,355.738C341.037,349.922 341.247,344.096 342.061,338.308C345.533,313.723 353.527,290.943 371.144,273.492C372.757,271.899 375.35,273.671 373.686,275.558Z" style="fill:rgb(1,1,1);fill-rule:nonzero;"/>
        <path d="M706.12,277.094C709.963,279.625 713.137,281.15 716.353,284.782C719.158,287.945 721.496,291.204 723.641,294.874C728.433,303.087 732.239,311.858 734.784,321.083C739.43,337.923 741.184,356.37 735.17,373.084C734.018,376.291 728.187,380.463 724.886,377.881C721.972,375.605 721.485,374.547 720.786,370.851C720.133,367.385 724.604,364.41 727.493,364.809C729.073,365.002 730.646,365.239 732.215,365.518C729.261,367.285 726.305,369.052 723.35,370.82C728.448,355.823 726.649,338.613 722.515,323.6C720.343,315.704 717.621,307.842 714.003,300.512C710.723,293.865 707.54,286.131 703.46,280.026C702.49,278.573 704.62,276.103 706.12,277.094Z" style="fill:rgb(1,1,1);fill-rule:nonzero;"/>
        <path d="M546.715,368.338C552.456,369.885 557.822,372.954 563.601,374.642C569.618,376.398 575.803,377.614 582.017,378.375C595.661,380.045 609.438,380.06 623.161,379.846C657.853,379.313 691.391,379.541 725.094,369.589C724.74,373.908 724.39,378.225 724.037,382.543C719.898,382.795 715.285,384.044 711.539,381.729C709.81,380.655 710.212,378.469 711.226,377.028C714.884,371.819 720.727,369.639 726.813,369.235C735.627,368.649 731.677,380.47 725.756,382.189C690.017,392.552 654.146,391.124 617.456,390.306C603.077,389.984 588.492,389.218 574.416,385.984C565.011,383.823 549.674,379.993 545.3,369.886C544.976,369.134 545.995,368.149 546.715,368.338Z" style="fill:rgb(1,1,1);fill-rule:nonzero;"/>
        <path d="M514.131,381.168C502.869,389.984 493.186,402.485 487.876,415.994C485.09,423.089 483.038,430.877 483.182,438.594C483.306,445.239 485.752,451.862 485.073,458.412C484.899,460.104 482.002,462.518 480.377,461.213C474.561,456.544 474.069,446.413 474.541,439.356C475.113,430.785 477.039,422.406 480.611,414.603C487.626,399.286 498.353,386.976 512.349,378.122C514.588,376.707 516.058,379.665 514.131,381.168Z" style="fill:rgb(1,1,1);fill-rule:nonzero;"/>
        <path d="M527.561,384.022C529.496,383.986 529.949,385.993 528.874,387.401C525.109,392.358 520.598,395.365 518.707,401.766C517.007,407.522 516.497,413.489 517.251,419.468C518.096,426.124 519.783,432.598 522.672,438.646C524.94,443.398 527.922,447.604 530.289,452.251C531.066,453.774 528.81,455.714 527.432,455.377C513.084,451.86 507.278,430.729 507.505,417.688C507.639,410.015 508.964,402.601 512.751,395.902C515.618,390.826 521.368,384.141 527.561,384.022Z" style="fill:rgb(1,1,1);fill-rule:nonzero;"/>
        <path d="M541.111,385.672C541.895,384.523 544.662,384.195 544.129,386.256C541.174,397.774 539.473,408.991 543.524,420.545C545.602,426.476 548.462,431.919 552.26,436.889C555.278,440.833 558.754,444.41 560.705,449.05C561.638,451.262 558.604,454.499 556.403,453.758C544.034,449.6 536.367,433.707 533.848,421.452C531.326,409.168 534.097,395.932 541.111,385.672Z" style="fill:rgb(1,1,1);fill-rule:nonzero;"/>
        <path d="M501.717,496.613C500.222,502.609 499.653,510.512 500.087,516.67C500.202,518.295 500.259,520.115 501.068,521.578C501.38,522.142 501.312,521.398 500.476,521.998C498.858,523.154 500.301,521.713 500.665,520.692C501.12,519.418 501.417,518.044 501.624,516.705C502.15,513.281 502.31,509.715 501.739,506.277C501.551,505.116 501.274,503.911 500.757,502.848C500.152,501.622 499.874,502.355 500.981,502.126C503.883,501.53 501.707,502.638 501.696,505.224C501.689,507.068 501.772,508.916 502.125,510.732C502.642,513.38 503.474,516.385 505.288,518.413C502.066,519.099 498.845,519.784 495.624,520.475C499.427,515.914 499.475,510.67 496.798,505.471C500.342,505.178 503.886,504.882 507.43,504.589C500.701,512.357 507.192,521.71 503.271,530.168C502.491,531.854 500.538,533.305 498.648,532.935C485.211,530.301 492.126,506.171 498.066,499.394C500.758,496.33 506.248,493.66 508.702,498.514C513.156,507.329 511.287,518.339 504.756,525.544C502.614,527.908 497.866,531.068 495.093,527.606C487.319,517.894 488.186,498.284 499.764,492.157C512.917,485.195 513.79,506.997 512.515,514.643C511.52,520.629 509.442,526.835 504.343,530.394C500.591,533.014 494.534,533.154 492.172,528.585C487.435,519.419 493.846,503.788 499.019,496.091C499.719,495.046 502.18,494.774 501.717,496.613Z" style="fill:rgb(1,1,1);fill-rule:nonzero;"/>
        <path d="M529.704,495.927C530.98,494.719 534.48,494.165 534.432,496.875C534.292,505.069 532.351,517.373 539.807,523.131C536.842,524.515 533.873,525.9 530.908,527.283C534.138,521.472 537.857,508.832 535.378,502.384C534.678,500.564 536.795,500.646 536.936,499.981C536.467,502.237 536.588,504.534 536.938,506.81C537.475,510.301 538.848,515.838 540.194,518.099C536.438,519.367 532.682,520.628 528.926,521.892C530.126,518.787 531.745,515.657 531.042,512.22C535.089,511.375 539.131,510.529 543.181,509.682C540.594,514.056 538.821,518.986 536.757,523.64C535.673,526.081 531.476,528.245 529.951,525.063C527.064,519.034 528.242,513.093 531.423,507.434C534.015,502.826 542.368,498.765 543.864,506.401C545.119,512.799 542.88,518.275 540.562,524.126C538.648,528.955 531.509,531.734 528.543,526.639C524.857,520.305 523.336,510.381 524.48,503.171C525.72,495.356 533.846,485.852 542.396,490.24C549.311,493.786 548.069,504.258 546.911,510.646C545.681,517.43 543.974,524.768 540.309,530.646C538.401,533.706 533.992,535.013 531.234,532.582C522.616,524.967 521.019,504.155 529.704,495.927Z" style="fill:rgb(1,1,1);fill-rule:nonzero;"/>
        <path d="M441.441,567.249C442.867,569.126 447.381,564.59 444.762,567.342C445.061,566.999 445.054,567.021 444.733,567.405C444.465,567.853 444.127,568.233 443.819,568.652C444.095,567.332 444.371,566.009 444.649,564.689C445.171,566.544 444.755,568.124 443.63,569.663C441.946,567.695 440.267,565.73 438.585,563.762C440.581,562.726 442.64,561.893 444.717,561.048C446.337,560.39 448.365,559.84 449.738,558.841C452.029,557.17 456.139,557.382 457.262,560.395C458.499,563.699 455.905,566.96 453.382,568.623C449.868,570.937 444.661,571.831 441.192,570.921C437.221,569.88 438.212,565.088 440.698,562.931C440.228,563.744 440.569,563.417 441.717,561.94C442.345,561.385 443.029,560.923 443.766,560.548C444.884,559.927 446.045,559.612 447.259,559.303C448.615,558.955 449.929,558.56 451.265,558.148C450.952,561.975 450.64,565.803 450.329,569.631C448.777,569.593 446.794,570.487 445.237,570.918C443.183,571.489 441.158,572.029 439.057,572.388C434.316,573.197 434.698,566.7 437.426,564.611C438.929,563.463 440.636,562.435 442.587,562.991C441.566,563.204 440.548,563.418 439.526,563.632C439.843,563.424 440.154,563.21 440.47,563.003C441.549,562.535 441.786,562.421 441.184,562.661C441.296,562.602 441.407,562.547 441.52,562.488C442.32,562.115 443.142,561.676 444.049,561.717C445.872,561.795 447.11,562.776 446.733,564.809C446.383,566.72 443.054,569.365 441.441,567.249Z" style="fill:rgb(1,1,1);fill-rule:nonzero;"/>
        <path d="M587.051,557.334C586.62,555.305 587.282,553.515 588.82,552.134C590.178,550.908 592.347,550.06 594.075,551.009C596.606,552.405 598.784,554.855 600.921,556.827C597.451,558.875 593.981,560.922 590.513,562.968C590.423,561.469 590.213,563.415 591.261,564.444C592.467,564.886 593.668,565.325 594.875,565.768C594.845,565.768 594.815,565.771 594.785,565.772C595.761,565.451 596.733,565.13 597.708,564.806C598.08,564.537 598.449,564.267 598.82,563.996C599.486,563.099 600.152,562.201 600.822,561.307C600.792,561.378 600.769,561.453 600.741,561.527C599.474,565.055 593.47,568.393 590.535,564.963C587.529,561.445 591.684,555.998 595.181,555.024C594.058,555.537 593.736,555.674 594.221,555.45C595.128,554.91 596.101,554.59 597.143,554.484C598.45,554.378 599.976,554.717 600.845,555.811C601.645,556.82 601.899,557.973 601.834,559.243C601.693,562.018 600.272,564.345 597.896,565.737C595.967,566.865 593.053,567.314 591.422,565.383C590.358,564.123 589.533,562.527 588.739,561.091C588.068,559.864 587.343,558.715 587.051,557.334Z" style="fill:rgb(1,1,1);fill-rule:nonzero;"/>
        <path d="M448.99,564.641C453.701,567.858 456.709,573.339 461.399,576.765C466.411,580.429 472.006,583.21 477.971,584.823C491.284,588.424 505.395,588.53 518.995,586.812C544.53,583.589 569.164,575.103 590.681,560.623C591.322,563.78 591.958,566.941 592.597,570.098C589.139,571.447 585.213,571.635 581.531,571.679C578.215,571.72 579.452,568.005 581.263,566.754C584.328,564.64 587.434,562.418 590.685,560.623C596.641,557.334 600.173,564.381 595.29,568.509C585.251,576.994 572.082,582.488 559.91,586.788C545.024,592.049 529.387,595.757 513.654,596.927C499.196,598.002 484.198,597.375 470.562,591.839C460.971,587.945 446.292,579.124 445.809,566.987C445.755,565.628 447.639,563.718 448.99,564.641Z" style="fill:rgb(1,1,1);fill-rule:nonzero;"/>
        <path d="M408.367,498.938C403.268,506.667 394.873,504.366 387.513,502.233C381.412,500.467 376.7,500.175 371.894,505.241C368.357,508.97 366.607,514.076 367.383,519.266C368.837,529.012 376.656,538.19 386.797,537.623C390.857,537.396 394.876,536.79 398.77,535.552C400.166,535.105 401.571,534.647 402.951,534.137C403.39,533.968 403.831,533.815 404.28,533.678C406.586,533.081 406.083,533.467 402.773,534.835C402.088,536.303 401.399,537.774 400.713,539.244C401.463,540.694 401.552,541.065 400.984,540.366C399.224,538.423 401.246,535.303 403.035,534.312C406.674,532.302 411.723,534.097 409.313,539.04C407.011,543.756 401.285,545.412 396.638,546.507C383.598,549.579 369.179,549.469 361.391,536.186C353.134,522.104 356.469,505.861 369.425,496.104C375.203,491.755 381.772,489.653 388.863,491.732C394.982,493.527 400.662,496.857 407.206,495.954C409.055,495.701 409.115,497.805 408.367,498.938Z" style="fill:rgb(1,1,1);fill-rule:nonzero;"/>
        <path d="M646.036,495.556C645.236,496.156 643.026,497.05 642.649,495.371C641.49,490.247 646.945,485.147 650.976,482.992C657.091,479.724 663.937,478.19 670.831,479.039C684.649,480.737 696.603,492.156 696.999,507.025C697.385,521.404 689.498,535.711 678.339,544.193C672.735,548.448 666.659,551.928 659.719,553.201C654.593,554.138 645.733,554.936 643.238,549.067C642.138,546.472 644.822,543.25 647.147,542.623C651.681,541.396 655.96,543.495 660.586,542.679C664.794,541.94 669.093,540.035 672.469,537.33C679.683,531.547 685.79,523.324 686.639,513.665C687.526,503.59 681.227,491.756 671.248,489.099C666.579,487.855 661.262,487.283 656.536,488.657C651.856,490.018 649.746,492.765 646.036,495.556Z" style="fill:rgb(1,1,1);fill-rule:nonzero;"/>
        <path d="M664.527,507.423C668.375,509.684 671.142,512.599 671.026,517.452C670.899,522.918 666.496,527.715 661.268,528.338C659.488,528.554 657.865,527.316 657.768,525.442C657.676,523.682 658.664,522.378 659.762,521.171C660.891,519.935 662.008,519.607 661.877,517.938C661.701,515.703 661.093,513.393 660.112,511.402C659.017,509.17 662.564,506.269 664.527,507.423Z" style="fill:rgb(1,1,1);fill-rule:nonzero;"/>
        <path d="M384.341,515.359C385.565,513.757 389.587,513.075 388.841,516.233C388.314,518.467 388.12,520.556 388.234,522.845C387.73,521.992 387.224,521.137 386.717,520.283C388.298,520.908 390.185,521.104 391.676,521.931C393.555,522.976 393.366,525.492 392.292,527.027C389.65,530.807 384.295,530.337 380.753,528.367C379.37,527.599 379.147,526.141 379.327,524.69C379.781,521.049 382.22,518.137 384.341,515.359Z" style="fill:rgb(1,1,1);fill-rule:nonzero;"/>
        <path d="M397.671,544.968C398.79,552.134 394.397,560.823 391.389,566.976C386.685,576.606 381.075,586.042 373.93,593.992C367.998,600.595 360.944,607.325 352.084,609.195C342.852,611.143 336.303,606.233 330.689,599.236C329.125,597.287 329.994,594.933 331.152,593.066C331.338,592.761 331.527,592.455 331.716,592.149C333.273,589.639 336.665,588.445 339.31,589.561C341.442,590.461 342.603,593.087 342.834,595.293C343.029,597.159 341.543,598.851 340.128,599.755C339.828,599.947 339.528,600.139 339.229,600.329C337.877,601.193 335.776,601.612 334.323,600.737C334.016,600.55 330.806,598.751 333.346,599.625C335.491,598.624 337.633,597.623 339.782,596.623C339.538,596.898 339.298,597.176 339.057,597.451C339.413,595.74 339.77,594.03 340.126,592.319C357.243,623.498 388.823,556.612 395.511,545.146C395.949,544.395 397.457,543.6 397.671,544.968Z" style="fill:rgb(1,1,1);fill-rule:nonzero;"/>
        <path d="M399.988,574.378C400.24,573.186 402.655,571.492 403.271,573.293C406.086,581.537 403.128,591.24 400.758,599.228C397.301,610.881 392.506,622.361 386.022,632.591C375.471,649.236 356.344,664.61 339.51,646.649C336.653,643.598 340.626,638.18 343.797,637.477C344.296,637.362 344.796,637.251 345.297,637.143C346.812,636.803 349.068,636.513 350.123,638.112C351.832,640.699 351.807,642.834 350.697,645.707C350.163,647.079 348.661,648.101 347.262,648.245C346.761,648.297 343.787,647.733 344.33,647.616C345.759,644.557 347.189,641.502 348.616,638.443C373.739,665.629 396.543,590.824 399.988,574.378Z" style="fill:rgb(1,1,1);fill-rule:nonzero;"/>
        <path d="M649.296,557.842C651.228,591.35 705.837,606.074 720.617,574.634C722.763,576.405 724.911,578.174 727.06,579.946C724.887,580.992 722.775,581.967 720.472,582.65C718.639,583.189 716.348,582.075 716.999,579.77C718.135,575.743 720.44,573.455 723.785,571.164C727.639,568.529 732.42,571.942 730.228,576.476C720.79,595.998 699.365,605.19 678.842,600.631C658.782,596.176 643.722,580.852 645.423,559.114C645.573,557.239 649.138,555.147 649.296,557.842Z" style="fill:rgb(1,1,1);fill-rule:nonzero;"/>
        <path d="M646.713,588.061C647.272,608.135 671.552,616.609 687.232,620.006C697.749,622.288 708.579,623.384 719.316,622.466C726.4,621.858 735.108,620.911 740.358,615.418C740.54,618.35 740.719,621.281 740.901,624.213C736.682,623.065 732.01,623.21 728.319,620.602C726.16,619.078 727.503,615.849 729.52,614.848C734.855,612.204 740.068,612.008 745.781,613.593C750.345,614.859 748.794,619.822 746.324,622.389C731.06,638.217 700.069,634.566 681.289,629.601C663.816,624.98 635.498,612.235 642.927,588.846C643.373,587.446 646.642,585.458 646.713,588.061Z" style="fill:rgb(1,1,1);fill-rule:nonzero;"/>
        <path d="M636.043,619.099C636.797,616.828 641.415,615.139 640.757,618.703C638.198,632.624 656.356,638.777 666.314,641.165C678.257,644.027 690.033,644.614 702.207,643.837C701.046,647.334 699.876,650.83 698.713,654.328C696.113,653.86 693.944,653.597 692.75,651.011C692.093,649.584 693.166,647.873 694.132,646.944C696.456,644.706 699.158,644.339 702.212,643.84C708.908,642.748 706.305,653.016 701.372,654.109C681.96,658.414 625.763,650.019 636.043,619.099Z" style="fill:rgb(1,1,1);fill-rule:nonzero;"/>
        <path d="M552.395,352.699C557.687,345.331 567.18,340.357 575.096,336.666C584.824,332.131 595.075,328.406 605.705,326.893C615.159,325.549 624.087,326.039 633.012,329.661C637.561,331.51 644.437,334.332 645.014,340.212C646.185,352.035 627.549,357.767 619.327,359.964C611.91,361.948 604.247,363.569 596.595,364.217C590.862,364.703 584.795,365.379 579.96,361.709C577.125,359.561 580.278,356.084 582.762,355.633C592.928,353.786 603.351,353.775 613.508,351.491C618.906,350.276 624.4,348.939 629.539,346.81C631.28,346.09 633.327,345.309 634.784,344.067C635.911,343.109 635.378,342.995 635.668,343.832C634.222,339.679 627.456,337.837 623.92,336.562C616.383,333.85 607.837,334.485 600.129,336.046C583.344,339.445 569.826,348.167 554.57,355.25C552.675,356.125 551.027,354.603 552.395,352.699Z" style="fill:rgb(1,1,1);fill-rule:nonzero;"/>
        <path d="M497.183,351.76C479.855,354.087 466.193,339.389 450.245,335.261C445.373,333.999 440.061,334.051 435.082,334.592C432.671,334.857 425.377,335.168 424.325,338.145C422.531,343.232 429.067,347.387 432.813,348.498C438.421,350.16 444.311,350.856 450.142,350.924C459.811,351.036 470.467,348.276 479.887,350.4C483.15,351.135 481.261,355.048 479.423,356.218C468.087,363.432 449.579,362.665 436.82,360.712C425.766,359.018 409.455,352.204 414.861,337.355C419.426,324.816 436.467,324.055 447.335,324.679C456.356,325.2 464.208,329.315 471.941,333.89C480.796,339.128 489.6,343.734 499.07,347.672C501.35,348.618 498.534,351.579 497.183,351.76Z" style="fill:rgb(1,1,1);fill-rule:nonzero;"/>
        <path d="M455.695,677.015C457.302,675.782 460.948,675.499 460.209,678.662C458.76,684.884 455.036,691.011 452.333,696.76C449.104,703.622 446.151,710.643 443.54,717.777C437.952,733.048 433.549,748.815 430.217,764.767C423.948,794.806 420.28,825.349 420.399,856.098C420.43,864.629 404.372,871.822 404.383,861.367C404.39,856.398 405.082,852.269 408.283,848.384C409.948,846.361 413.367,844.03 416.018,845.745C419.801,848.185 420.392,851.732 420.397,856.096C415.058,857.852 409.719,859.608 404.38,861.365C404.686,828.636 408.518,795.481 416.435,763.756C420.527,747.362 425.452,731.103 432.076,715.583C437.543,702.773 444.435,685.655 455.695,677.015Z" style="fill:rgb(1,1,1);fill-rule:nonzero;"/>
        <path d="M607.311,667.824C606.638,665.364 610.466,661.561 612.448,664.062C622.489,676.808 629.943,691.661 637.374,706.099C645.102,721.117 652.323,736.466 658.61,752.179C665.145,768.507 670.759,785.319 674.275,802.626C675.864,810.444 677.296,818.296 677.999,826.262C678.665,833.805 680.097,842.752 677.814,850.067C676.57,854.046 673.477,857.478 669.192,857.833C666.539,858.056 663.195,856.242 663.414,853.054C663.518,851.588 663.662,850.18 663.912,848.733C664.368,846.075 666.921,844.14 669.394,843.795C670.316,843.602 671.247,843.501 672.185,843.485C669.372,847.228 666.562,850.975 663.748,854.719C661.535,847.519 662.79,839.03 662.078,831.498C661.288,823.1 660.186,814.677 658.422,806.43C654.878,789.864 649.902,773.626 644.062,757.766C638.18,741.814 631.471,726.215 624.562,710.704C618.303,696.662 611.402,682.743 607.311,667.824Z" style="fill:rgb(1,1,1);fill-rule:nonzero;"/>
        <path d="M404.038,864.242C404.071,861.888 406.433,860.111 408.585,860.888C415.804,863.47 421.807,868.775 429.303,871.157C438.18,873.975 447.393,875.674 456.625,876.663C474.932,878.617 493.267,878.685 511.649,878.58C537.723,878.434 563.404,876.385 588.897,870.45C616.899,863.926 644.144,854.625 671.411,845.485C670.991,850.62 670.574,855.75 670.153,860.883C664.584,861.04 658.779,862.62 653.265,861.409C646.796,859.99 650.794,852.467 654.165,850.13C659.827,846.204 666.763,845.244 673.457,845.059C684.08,844.766 679.09,858.154 672.2,860.455C642.562,870.371 612.938,880.475 582.37,886.965C556.534,892.448 530.749,894.253 504.424,894.301C484.128,894.335 463.367,893.758 443.434,889.533C431.588,887.025 403.797,880.97 404.038,864.239L404.038,864.242Z" style="fill:rgb(1,1,1);fill-rule:nonzero;"/>
        <path d="M459.22,884.48C459.534,883.707 461.53,882.893 461.462,884.291C460.466,904.253 462.363,923.725 467.434,943.039C472.113,960.861 477.566,978.429 479.901,996.787C480.379,1000.54 475.619,1004.73 472.088,1003.82C467.551,1002.66 461.924,1001.95 457.387,1003.48C457.014,1003.6 455.527,1004.55 455.951,1003.87C456.584,1002.85 456.666,1005.12 456.984,1005.72C458.464,1008.54 460.723,1011.65 463.948,1012.44C475.862,1015.39 488.751,1009.6 500.032,1006.08C498.766,1007.02 497.502,1007.95 496.232,1008.89C496.249,1008.87 496.262,1008.84 496.28,1008.82C497.263,1011.35 498.247,1013.89 499.228,1016.42C496.442,1016.77 494.68,1016.56 492.614,1014.61C491.095,1013.17 492.43,1010.27 493.733,1009.24C495.78,1007.64 497.578,1006.7 500.079,1006.02C505.288,1004.59 506.785,1009.36 504.41,1013.33C502.304,1016.84 496.375,1017.63 492.823,1018.76C487.526,1020.43 482.183,1022.01 476.718,1023C467.069,1024.74 454.929,1025.24 448.841,1015.74C436.285,996.126 462.651,989.327 476.918,993.303C474.314,995.648 471.709,997.993 469.105,1000.34C465.031,962.132 443.844,922.457 459.22,884.48Z" style="fill:rgb(1,1,1);fill-rule:nonzero;"/>
        <path d="M483.445,888.499C483.935,887.708 485.765,887.248 485.818,888.622C486.354,903.462 486.993,917.925 490.139,932.507C491.654,939.538 492.229,946.756 493.252,953.87C494.153,960.141 494.315,968.547 497.769,973.981C502.421,981.304 510.146,989.42 511.34,998.407C512.22,1005.02 502.138,1016.72 496.595,1009.03C495.204,1007.11 496.206,1004.62 497.814,1003.19C498.879,1002.23 499.898,1001.38 501.255,1000.9C503.276,999.942 503.032,1000.64 500.523,1002.99C500.329,1001.51 499.706,1000.06 499.05,998.745C496.959,994.553 494.296,990.73 491.7,986.861C489.538,983.643 486.775,980.235 485.919,976.368C484.702,970.853 483.787,965.295 483.114,959.687C481.581,946.889 479.601,933.958 478.61,921.116C477.761,910.078 477.456,898.129 483.445,888.499Z" style="fill:rgb(1,1,1);fill-rule:nonzero;"/>
        <path d="M598.073,874.596C598.36,873.531 600.653,871.753 601.235,873.545C604.077,882.387 603.751,892.194 604.31,901.412C604.927,911.642 605.726,921.863 606.68,932.066C608.614,952.775 611.392,973.387 615.087,993.843C615.768,997.613 610.614,1001.87 607.188,1000.96C596.968,998.236 586.414,1001.77 588.073,1014.28C587.066,1013.1 586.059,1011.92 585.054,1010.75C602.432,1016.02 620.077,1008.03 637.689,1010.73C641.359,1011.3 641.279,1016.02 639.347,1018.36C635.379,1023.15 631.289,1025.04 625.572,1022.46C623.688,1021.61 624.109,1018.67 625.235,1017.4C626.471,1016 627.496,1014.96 629.209,1014.2C629.712,1013.97 632.243,1012.37 631.122,1013.8C631.676,1016.34 632.227,1018.88 632.78,1021.43C615.152,1018.72 597.751,1026.76 580.156,1021.41C578.347,1020.86 577.394,1019.83 577.136,1017.88C574.464,997.664 594.537,985.567 612.074,990.321C609.439,992.692 606.808,995.064 604.173,997.436C600.82,976.826 598.363,956.088 597.071,935.233C596.429,924.889 596.03,914.514 596,904.148C595.97,894.318 595.504,884.149 598.073,874.596Z" style="fill:rgb(1,1,1);fill-rule:nonzero;"/>
        <path d="M627.93,869.773C628.578,868.221 631.771,867.554 631.317,869.936C624.244,906.883 637.009,945.067 644.259,980.725C645.702,987.84 646.088,995.079 647.747,1002.14C648.713,1006.26 649.856,1010.42 649.146,1014.67C648.486,1018.62 644.222,1022.7 640.215,1022.62C634.61,1022.5 631.379,1020.25 628.211,1015.65C626.316,1012.89 629.751,1009.68 632.443,1009.96C635.798,1010.31 638.532,1011.09 641.785,1011.66C644.504,1012.14 638.801,1017.61 638.447,1014.25C638.384,1013.51 638.289,1012.78 638.162,1012.05C637.424,1008.09 636.221,1004.21 635.662,1000.21C633.401,984.033 629.188,968.608 625.939,952.637C620.557,926.188 617.315,895.113 627.93,869.773Z" style="fill:rgb(1,1,1);fill-rule:nonzero;"/>
        <path d="M461.76,666.594C463.627,667.812 461.77,670.106 460.388,670.683C453.918,673.39 446.779,674.047 440.206,676.517C433.843,678.907 427.546,682.263 422.261,686.663C411.53,695.594 404.301,706.564 399.024,719.581C398.415,716.786 397.808,713.991 397.201,711.199C404.107,714.137 411.16,716.721 418.282,719.059C424.365,721.054 435.212,723.686 429.522,732.866C427.535,736.066 423.75,737.387 420.272,737.179C414.811,736.854 408.843,733.802 403.72,731.943C398.025,729.872 392.363,727.713 386.805,725.28C383.631,723.891 383.819,719.534 384.981,716.897C392.139,700.681 403.828,685.828 418.303,675.925C428.882,668.688 449.35,658.499 461.76,666.594Z" style="fill:rgb(1,1,1);fill-rule:nonzero;"/>
        <path d="M603.406,658.114C600.611,656.922 603.702,653.296 605.223,652.695C619.99,646.894 637.191,657.228 648.116,666.815C660.435,677.631 671.172,691.719 675.481,707.994C676.938,713.494 672.904,717.725 668.342,719.765C662.602,722.334 657.114,725.458 651.42,728.128C648.924,729.3 644.263,730.77 642.287,727.628C639.565,723.292 641.902,717.222 646.554,715.063C653.595,711.788 660.391,708.016 667.564,705.031C665.183,708.954 662.805,712.88 660.424,716.802C657.07,702.314 648.501,688.843 638.171,678.531C632.859,673.228 627.069,668.559 620.522,664.968C615.009,661.942 609.125,660.56 603.406,658.114Z" style="fill:rgb(1,1,1);fill-rule:nonzero;"/>
        <path d="M402.615,723.483C404.922,722.19 406.877,724.393 405.269,726.586C397.305,737.48 388.706,747.928 382.062,759.775C376.359,769.942 368.133,783.823 368.459,795.988C368.603,801.28 363.942,805.522 359.112,806.184C354.029,806.878 344.366,812.082 339.64,808.301C335.443,804.941 336.765,799.312 340.565,796.025C342.558,794.305 344.532,793.374 347.029,792.823C354.749,791.118 357.495,799.803 351.459,804.509C350.729,805.077 350.008,805.654 349.299,806.243C350.072,802.532 350.847,798.82 351.622,795.11C348.823,792.756 348.468,793.8 351.508,793.057C352.641,792.783 353.773,792.504 354.904,792.229C357.328,791.663 359.809,790.953 362.304,790.895C359.459,793 356.614,795.107 353.766,797.212C359.607,782.22 364.598,767.918 373.453,754.326C381.124,742.549 390.287,730.387 402.615,723.483Z" style="fill:rgb(1,1,1);fill-rule:nonzero;"/>
        <path d="M358.987,808.551C357.835,813.713 356.872,819.268 356.56,824.558C356.401,827.205 356.875,829.133 355.825,831.864C354.666,834.88 351.281,837.275 348.111,836.856C341.358,835.968 346.345,826.677 347.514,823.418C349.376,818.232 351.512,813.156 354.118,808.317C355.165,806.371 359.777,804.987 358.987,808.551Z" style="fill:rgb(1,1,1);fill-rule:nonzero;"/>
        <path d="M366.47,814.072C367.689,811.655 373.218,810.155 372.279,814.352C371.557,817.58 371.352,821.984 372.542,825.143C373.705,828.23 376.338,831.404 376.069,834.727C375.765,838.417 372.345,842.771 368.248,841.769C362.63,840.396 361.87,833.586 362.252,828.447C362.646,823.144 364.106,818.765 366.47,814.072Z" style="fill:rgb(1,1,1);fill-rule:nonzero;"/>
        <path d="M665.843,730.361C664.248,728.02 668.045,724.526 670.06,726.562C682.541,739.157 692.849,753.752 704.674,766.958C714.218,777.619 727.69,792.688 743.29,790.505C745.458,790.201 747.373,791.384 748.277,793.361C748.375,793.579 748.477,793.799 748.577,794.017C750.901,799.102 743.91,805.212 739.279,804.19C737.503,803.801 736.628,802.854 735.121,801.968C733.323,800.904 733.636,798.402 734.788,796.955C736.809,794.415 738.918,792.712 741.926,791.524C740.177,795.261 738.435,798.993 736.688,802.732C736.568,802.525 736.447,802.324 736.325,802.117C738.299,802.513 740.271,802.911 742.246,803.308C724.17,807.325 709.544,792.912 698.826,779.802C686.187,764.342 677.048,746.804 665.843,730.361Z" style="fill:rgb(1,1,1);fill-rule:nonzero;"/>
        <path d="M710.955,809.468C712.146,806.218 718.908,803.765 719.284,808.775C719.419,810.567 719.267,812.363 719.529,814.151C719.619,814.772 719.831,815.434 720.081,816.014C720.073,815.992 720.933,817.549 720.427,816.841C721.434,818.256 721.066,817.695 722.596,818.447C724.235,819.252 725.473,820.162 725.986,822.067C726.572,824.251 725.681,826.507 723.992,827.94C721.372,830.16 716.913,832.055 713.751,829.551C712.052,828.202 710.555,826.765 709.84,824.598C708.276,819.847 709.274,814.051 710.955,809.468Z" style="fill:rgb(1,1,1);fill-rule:nonzero;"/>
        <path d="M727.887,811.774C726.801,809.414 730.333,806.665 732.382,807.728C733.599,808.354 734.86,808.784 736.082,809.47C737.499,810.263 738.822,811.46 739.936,812.653C742.533,815.433 744.547,818.28 743.954,822.303C743.464,825.62 738.609,829.48 735.399,827.405C732.626,825.612 731.901,822.383 730.597,819.493C729.94,818.032 729.348,816.552 728.849,815.029C728.509,813.992 728.333,812.746 727.887,811.774Z" style="fill:rgb(1,1,1);fill-rule:nonzero;"/>
        <path d="M483.895,673.78C484.31,673.415 485.182,673.173 485.438,673.867C487.292,678.776 485.288,684.885 486.933,690.088C488.495,695.017 491.355,699.501 495.04,703.043C503.644,711.311 515.656,715.693 527.212,717.115C538.104,718.453 550.691,717.637 559.997,711.028C569.961,703.954 570.179,690.815 567.416,679.845C568.782,680.629 570.15,681.41 571.519,682.194C568.684,682.462 566.08,683.379 563.227,683.372C559.064,683.365 559.107,678.663 561.762,676.382C565.323,673.321 569.139,671.819 573.774,671.382C575.318,671.237 577.434,671.979 577.874,673.73C581.799,689.358 580.088,706.763 566.859,717.336C555.188,726.663 540.122,729.411 525.635,727.837C511.762,726.327 496.759,721.027 487.136,710.165C479.449,701.487 473.397,683.01 483.895,673.78Z" style="fill:rgb(1,1,1);fill-rule:nonzero;"/>
        <path d="M409.943,745.54C400.335,754.143 392.861,763.802 387.533,775.757C384.856,781.761 382.609,787.9 380.637,794.184C379.268,798.537 378.176,803.253 375.32,806.846C374.527,807.844 371.801,809.247 371.217,807.186C369.665,801.709 372.647,795.085 374.456,789.939C376.989,782.735 379.781,775.475 383.589,768.868C389.72,758.221 397.337,747.499 408.993,743.035C410.745,742.365 411.003,744.589 409.943,745.54Z" style="fill:rgb(1,1,1);fill-rule:nonzero;"/>
        <path d="M664,745.167C663.64,744.172 665.384,742.615 666.078,743.643C672.94,753.794 680.943,762.736 688.656,772.18C695.564,780.639 702.501,789.604 703.722,800.926C703.864,802.204 701.695,803.978 700.721,802.698C693.588,793.323 688.133,782.696 681.031,773.238C674.49,764.531 667.748,755.572 664,745.167Z" style="fill:rgb(1,1,1);fill-rule:nonzero;"/>
        <path d="M511.309,548.465C512.862,547.307 514.331,546.382 516.1,545.615C516.07,545.628 517.288,545.074 516.677,545.368C516.948,545.245 517.21,545.111 517.477,544.972C518.404,544.503 519.239,544.205 520.274,544.107C521.729,543.972 523.049,544.92 523.131,546.475C523.198,547.822 522.451,549.099 521.5,549.962C519.162,552.087 515.945,552.271 513.051,553.065C509.996,553.905 508.966,550.215 511.309,548.465Z" style="fill:rgb(1,1,1);fill-rule:nonzero;"/>
    </g>
    <path id="Stick" d="M361.299,837.237C352.942,829.212 345.1,820.795 337.374,812.288C329.668,803.767 322.176,795.083 314.833,786.286C307.488,777.49 300.281,768.589 293.236,759.564C286.132,750.585 279.298,741.4 272.832,731.935C259.886,713.016 248.338,693.032 234.89,674.495C228.204,665.198 221.198,656.143 213.988,647.246C206.794,638.335 199.247,629.692 191.675,621.07L180.293,608.154C176.506,603.842 172.733,599.521 169.031,595.146C161.593,586.42 154.43,577.486 147.223,568.585C132.807,550.784 118.373,532.997 104.739,514.603C91.12,496.196 77.914,477.475 65.124,458.436C58.727,448.918 52.436,439.32 46.299,429.605C40.186,419.872 34.138,410.088 28.462,400.022L29.895,398.932C38.086,407.083 45.908,415.516 53.663,424C61.393,432.502 68.971,441.121 76.443,449.821C91.389,467.217 105.919,484.931 120.037,502.958C134.139,520.997 147.442,539.646 160.763,558.279C167.424,567.595 174.129,576.879 180.559,586.371C183.791,591.104 186.952,595.892 190.1,600.689L199.52,615.098C205.816,624.694 212.138,634.268 218.812,643.575C225.47,652.894 232.332,662.057 239.514,670.977C253.803,688.874 269.991,705.325 284.782,722.84C292.184,731.593 299.219,740.624 305.983,749.863C312.806,759.055 319.467,768.371 325.991,777.793C332.516,787.213 338.893,796.746 345.055,806.442C351.198,816.153 357.224,825.953 362.735,836.145L361.299,837.237Z" style="fill-rule:nonzero;"/>
    <path id="Board_copy" d="M449.227,415.229C444.281,423.182 439.415,431.198 434.688,439.277C429.948,447.424 425.301,455.629 420.993,463.953C418.856,468.118 416.796,472.324 415.041,476.565C414.177,478.677 413.371,480.824 412.85,482.868C412.166,485.467 410.98,488.027 409.325,490.244C407.67,492.466 405.574,494.322 403.302,495.758C401.026,497.199 398.585,498.254 396.113,499.027C393.636,499.8 391.123,500.304 388.603,500.61C387.342,500.763 386.08,500.866 384.811,500.918C384.177,500.944 383.541,500.959 382.901,500.958C382.24,500.956 381.66,500.949 380.886,500.901L382.695,500.552C378.219,503.267 373.73,505.955 369.224,508.613L371.569,505.833L363.126,536.923L362.078,540.779L357.836,540.848C292.287,541.909 226.738,542.716 161.19,543.255C95.641,543.784 30.092,544.155 -35.456,544.276C-101.004,544.453 -166.553,544.172 -232.102,543.348C-264.876,542.973 -297.651,542.435 -330.425,541.895L-428.748,540.276L-433.784,540.193L-433.704,535.32C-432.948,489.065 -432.346,442.811 -432.035,396.556C-431.726,350.301 -431.708,304.047 -431.847,257.792C-431.999,211.537 -432.313,165.283 -432.909,119.028L-433.313,84.337L-433.809,49.646L-434.841,-19.736L-434.93,-25.734L-428.75,-25.827C-349.742,-27.016 -270.734,-28.134 -191.727,-28.633L45.297,-30.071C124.305,-30.474 203.313,-30.604 282.32,-30.347C361.328,-30.112 440.336,-29.558 519.343,-28.805L528.392,-28.719L528.411,-19.848L528.603,70.032L528.549,159.915L528.461,204.857L528.312,249.8C528.14,279.763 528.076,309.724 527.797,339.689L527.787,340.8L527.339,341.608L505.75,380.513L505.34,381.251L504.749,381.61L476.932,398.527L449.227,415.229ZM447.787,413.778L474.736,395.136L501.586,376.72L500.585,377.818L520.184,337.873L519.726,339.791C518.711,309.843 517.911,279.892 517.001,249.942L515.747,205.016L514.555,160.089L512.292,70.235L510.274,-19.622L519.341,-10.666C440.333,-9.913 361.325,-9.359 282.318,-9.124C203.311,-8.866 124.303,-8.997 45.295,-9.4L-191.729,-10.838C-270.737,-11.337 -349.745,-12.454 -428.752,-13.644L-422.661,-19.735L-423.693,49.647L-424.189,84.338L-424.593,119.029C-425.189,165.284 -425.503,211.538 -425.655,257.793C-425.794,304.047 -425.776,350.302 -425.467,396.557C-425.155,442.811 -424.553,489.066 -423.798,535.321L-428.754,530.365L-330.431,528.746C-297.657,528.206 -264.882,527.668 -232.108,527.293C-166.559,526.47 -101.01,526.189 -35.462,526.365C30.087,526.486 95.636,526.857 161.184,527.386C226.733,527.925 292.282,528.733 357.83,529.793L352.54,533.719L362.763,503.167L363.464,501.071L365.108,500.387C369.936,498.377 374.781,496.4 379.638,494.448L380.68,494.029L381.448,494.099C381.852,494.136 382.454,494.163 382.973,494.176C383.513,494.189 384.058,494.19 384.605,494.18C385.697,494.159 386.793,494.104 387.88,493.999C390.055,493.794 392.201,493.419 394.252,492.838C398.347,491.685 402.068,489.642 404.485,486.551C405.696,485.011 406.592,483.238 407.168,481.285C407.935,478.78 408.911,476.539 409.933,474.324C411.994,469.921 414.29,465.735 416.655,461.595C421.391,453.329 426.468,445.323 431.669,437.406C436.872,429.49 442.182,421.662 447.667,413.943L447.787,413.778Z" style="fill-rule:nonzero;"/>
    <g id="Layer_6">
        <path d="M450.814,62.345C448.718,60.661 446.381,59.366 443.914,58.485C439.572,56.081 434.384,54.395 429.354,54.25C427.732,54.006 426.079,53.903 424.48,54.021C422.192,54.19 418.761,54.174 416.823,55.736C416.667,55.799 416.501,55.913 416.378,56.049C412.551,55.403 408.353,56.178 404.86,57.487C399.693,59.424 395.159,63.127 391.566,67.249C383.977,75.953 379.306,87.215 376.606,98.341C374.869,105.492 373.976,112.902 372.993,120.185C371.781,129.181 371.082,138.262 371.813,147.331C373.01,162.16 378.325,177.534 388.302,188.8C393.534,194.708 400.272,198.833 407.801,201.091C411.897,202.32 416.162,202.803 420.425,202.936C422.693,203.007 424.965,202.913 427.225,202.727C427.952,202.667 428.658,202.575 429.354,202.459C429.499,202.465 429.643,202.478 429.788,202.482C430.165,202.493 430.653,202.35 431.152,202.107C432.472,201.813 433.777,201.45 435.125,201.069C435.794,200.88 436.502,200.537 436.978,200C437.185,200.1 437.467,200.136 437.832,200.066C450.693,197.624 459.865,187.689 465.143,176.212C470.459,164.652 471.879,151.405 472.295,138.824C472.587,129.994 472.084,121.157 471.011,112.391C469.747,102.064 467.65,91.768 463.922,82.031C461.106,74.679 457.027,67.333 450.814,62.345ZM436.27,197.567C434.29,197.16 432.3,197.22 430.307,197.376C427.543,196.494 424.615,196.031 421.828,195.258C418.735,194.4 415.716,193.272 412.834,191.858C406.438,188.719 401.131,183.686 396.879,178.026C387.983,166.181 385.415,150.768 385.299,136.306C385.238,128.749 385.904,121.207 386.857,113.718C387.542,108.344 388.377,103.008 389.674,97.745C392.327,86.983 396.202,75.871 402.751,66.82C404.383,64.564 406.303,62.443 408.542,60.877C410.631,59.416 413.124,58.657 415.675,58.123C415.686,58.121 415.697,58.116 415.707,58.113C416.153,58.121 416.599,58.136 417.044,58.154C417.175,58.332 417.412,58.473 417.788,58.55C419.129,58.825 420.49,59.008 421.849,59.206C422.77,59.597 423.679,60.016 424.549,60.519C427.122,62.007 429.548,63.546 431.771,65.536C436.367,69.652 439.931,74.682 442.871,80.08C445.956,85.743 448.286,91.798 450.319,97.906C452.618,104.818 454.561,111.81 455.742,119.005C457.814,131.623 457.917,144.356 457.511,157.102C457.32,163.097 456.929,169.132 455.269,174.925C454.471,177.709 453.351,180.374 451.855,182.852C451.128,184.055 450.231,185.138 449.484,186.324C448.999,187.092 448.835,188.048 448.404,188.824C448.304,188.959 448.205,189.095 448.106,189.233C448.058,189.302 448.003,189.368 447.952,189.437C447.936,189.453 447.922,189.47 447.905,189.486C447.766,189.618 447.67,189.751 447.604,189.881C446.666,191.015 445.51,192 444.372,192.905C442.859,194.107 441.229,195.14 439.553,196.096C438.614,196.632 437.609,197.111 436.687,197.7C436.556,197.643 436.416,197.597 436.27,197.567Z" style="fill-rule:nonzero;"/>
        <path d="M121.796,131.85C122.945,130.866 124.094,130.217 125.243,129.67C126.392,129.131 127.541,128.742 128.69,128.456C129.839,128.155 130.988,127.988 132.137,127.893C133.286,127.79 134.435,127.835 135.584,128.18C137.882,128.826 140.18,130.44 142.479,130.742C144.777,131.088 147.075,130.571 149.373,129.614C150.522,129.157 151.671,128.664 152.82,128.328C153.969,127.976 155.118,127.816 156.267,127.625C158.565,127.246 160.864,126.844 163.162,127.007C165.46,127.17 167.758,127.656 170.057,128.4C172.355,129.169 174.653,130.153 176.951,131.851L176.951,132.851C174.653,134.549 172.355,135.533 170.057,136.302C167.759,137.045 165.46,137.531 163.162,137.695C160.864,137.859 158.566,137.457 156.267,137.077C155.118,136.886 153.969,136.726 152.82,136.374C151.671,136.038 150.522,135.545 149.373,135.088C147.075,134.13 144.777,133.613 142.479,133.96C140.181,134.261 137.882,135.876 135.584,136.522C134.435,136.867 133.286,136.912 132.137,136.809C130.988,136.714 129.839,136.546 128.69,136.246C127.541,135.96 126.392,135.571 125.243,135.032C124.094,134.485 122.945,133.836 121.796,132.852L121.796,131.85Z" style="fill-rule:nonzero;"/>
        <path d="M280.532,143.957C281.919,142.973 283.306,142.324 284.694,141.777C286.081,141.238 287.469,140.849 288.856,140.563C290.243,140.276 291.63,140.086 293.018,140C294.405,139.897 295.792,139.942 297.18,140.287C299.954,140.933 302.729,142.547 305.503,142.849C308.277,143.183 311.052,142.686 313.827,141.721C315.214,141.264 316.601,140.771 317.989,140.434C319.377,140.082 320.764,139.923 322.151,139.732C324.925,139.353 327.7,138.951 330.474,139.114C333.249,139.277 336.023,139.763 338.798,140.507C341.573,141.276 344.347,142.26 347.122,143.958L347.122,144.958C344.348,146.656 341.573,147.64 338.798,148.409C336.024,149.152 333.249,149.638 330.474,149.802C327.7,149.966 324.925,149.564 322.151,149.184C320.764,148.993 319.377,148.833 317.989,148.482C316.602,148.145 315.215,147.652 313.827,147.195C311.053,146.23 308.278,145.733 305.503,146.067C302.729,146.368 299.954,147.983 297.18,148.629C295.792,148.974 294.405,149.019 293.018,148.916C291.631,148.829 290.244,148.64 288.856,148.353C287.469,148.067 286.081,147.678 284.694,147.139C283.307,146.592 281.92,145.943 280.532,144.959L280.532,143.957Z" style="fill-rule:nonzero;"/>
        <path d="M280.532,121.088C281.919,120.104 283.306,119.455 284.694,118.908C286.081,118.369 287.469,117.98 288.856,117.694C290.243,117.407 291.63,117.217 293.018,117.131C294.405,117.028 295.792,117.073 297.18,117.418C299.954,118.064 302.729,119.678 305.503,119.98C308.277,120.314 311.052,119.817 313.827,118.852C315.214,118.395 316.601,117.902 317.989,117.565C319.377,117.213 320.764,117.054 322.151,116.863C324.925,116.484 327.7,116.082 330.474,116.245C333.249,116.408 336.023,116.894 338.798,117.638C341.573,118.407 344.347,119.391 347.122,121.089L347.122,122.089C344.348,123.787 341.573,124.771 338.798,125.54C336.024,126.283 333.249,126.769 330.474,126.933C327.7,127.097 324.925,126.695 322.151,126.315C320.764,126.124 319.377,125.964 317.989,125.613C316.602,125.276 315.215,124.783 313.827,124.326C311.053,123.361 308.278,122.864 305.503,123.198C302.729,123.499 299.954,125.114 297.18,125.76C295.792,126.105 294.405,126.15 293.018,126.047C291.631,125.96 290.244,125.771 288.856,125.484C287.469,125.198 286.081,124.809 284.694,124.27C283.307,123.723 281.92,123.074 280.532,122.09L280.532,121.088Z" style="fill-rule:nonzero;"/>
        <path d="M208.716,196.172C210.579,196.728 212.506,197.054 214.453,197.24C215.192,197.426 215.916,197.47 216.622,197.395C218.231,197.473 219.842,197.477 221.431,197.456C226.054,197.396 230.671,197.03 235.284,196.732C245.494,196.074 255.898,197.477 266.026,195.76C267.319,195.541 269.367,194.013 268.589,192.435C266.964,189.134 262.454,189.25 258.983,189.185C258.747,189.143 258.492,189.119 258.209,189.119C257.928,189.119 257.647,189.121 257.367,189.122C256.732,189.075 256.106,188.968 255.489,188.822C254.596,188.038 253.856,187.036 253.092,186.134C252.844,185.841 252.605,185.539 252.368,185.235C251.955,177.722 251.144,170.235 250.563,162.733C249.872,153.791 249.621,144.806 249.418,135.842C249.011,117.824 249.291,99.833 249.648,81.819C249.745,76.903 249.974,72 250.159,67.087C250.167,66.861 250.133,66.655 250.07,66.466C250.415,65.878 250.616,65.213 250.601,64.521C250.601,64.509 250.602,64.497 250.602,64.486C250.604,64.394 250.6,64.308 250.593,64.224C250.588,64.03 250.584,63.837 250.577,63.643C250.519,61.748 248.67,61.436 247.198,61.746C240.655,63.122 234.859,67.311 229.464,71.05C226.479,73.119 223.46,75.131 220.58,77.346C218.93,78.616 217.256,79.91 215.842,81.42C215.721,81.532 215.599,81.643 215.48,81.756C214.221,82.949 213.161,84.185 212.223,85.514C211.75,86.086 211.331,86.698 210.99,87.361C210.798,87.602 210.606,87.844 210.424,88.097C210.013,88.669 209.447,89.52 209.247,90.352C209.105,90.517 208.968,90.695 208.828,90.893C207.776,92.379 209.039,93.907 210.674,92.996C210.948,92.843 211.219,92.683 211.487,92.521C212.813,92.079 214.166,91.09 215.207,90.475C217.204,89.295 219.024,88.357 221.152,87.664C222.306,87.288 223.35,87.061 224.306,87.197C224.341,87.554 224.368,87.913 224.385,88.271C224.571,92.065 224.683,95.806 224.565,99.607C224.327,107.236 224.113,114.863 223.767,122.489C223.361,131.452 222.959,140.41 223.087,149.385C223.242,160.181 223.855,171.001 223.275,181.781C222.861,183.44 222.35,185.052 221.767,186.509C221.557,187.033 221.327,187.548 221.079,188.055C217.633,190.523 213.543,191.433 209.427,192.873C208.113,193.33 206.777,195.593 208.716,196.172Z" style="fill-rule:nonzero;"/>
        <path d="M43.253,196.172C45.116,196.728 47.043,197.054 48.99,197.24C49.729,197.426 50.453,197.47 51.159,197.395C52.768,197.473 54.379,197.477 55.968,197.456C60.591,197.396 65.208,197.03 69.821,196.732C80.031,196.074 90.435,197.477 100.563,195.76C101.856,195.541 103.904,194.013 103.126,192.435C101.501,189.134 96.991,189.25 93.519,189.185C93.284,189.143 93.028,189.119 92.746,189.119C92.465,189.119 92.184,189.121 91.904,189.122C91.269,189.075 90.643,188.968 90.026,188.822C89.133,188.038 88.393,187.036 87.629,186.134C87.381,185.841 87.142,185.539 86.905,185.235C86.492,177.722 85.681,170.235 85.1,162.733C84.409,153.791 84.158,144.806 83.955,135.842C83.548,117.824 83.828,99.833 84.185,81.819C84.282,76.903 84.511,72 84.696,67.087C84.704,66.861 84.67,66.655 84.607,66.466C84.952,65.878 85.153,65.213 85.138,64.521C85.138,64.509 85.139,64.497 85.139,64.486C85.141,64.394 85.137,64.308 85.13,64.224C85.125,64.03 85.121,63.837 85.114,63.643C85.056,61.748 83.207,61.436 81.735,61.746C75.191,63.12 69.395,67.31 64,71.048C61.015,73.117 57.996,75.129 55.116,77.344C53.466,78.614 51.792,79.908 50.378,81.418C50.257,81.53 50.135,81.641 50.016,81.754C48.757,82.947 47.697,84.183 46.759,85.512C46.286,86.084 45.867,86.696 45.526,87.359C45.334,87.6 45.142,87.842 44.96,88.095C44.549,88.667 43.983,89.518 43.783,90.35C43.641,90.515 43.504,90.693 43.364,90.891C42.312,92.377 43.575,93.905 45.21,92.994C45.484,92.841 45.755,92.681 46.023,92.519C47.349,92.077 48.702,91.088 49.743,90.473C51.74,89.293 53.56,88.355 55.688,87.662C56.842,87.286 57.886,87.059 58.842,87.195C58.877,87.552 58.904,87.911 58.921,88.269C59.107,92.063 59.219,95.804 59.101,99.605C58.863,107.234 58.649,114.861 58.303,122.487C57.897,131.45 57.495,140.408 57.623,149.383C57.778,160.179 58.391,170.999 57.811,181.779C57.397,183.438 56.886,185.05 56.303,186.507C56.093,187.031 55.863,187.546 55.615,188.053C52.169,190.521 48.079,191.431 43.963,192.871C42.65,193.33 41.314,195.593 43.253,196.172Z" style="fill-rule:nonzero;"/>
    </g>
</svg>
