<?xml version="1.0" encoding="UTF-8" standalone="no"?>
<!DOCTYPE svg PUBLIC "-//W3C//DTD SVG 1.1//EN" "http://www.w3.org/Graphics/SVG/1.1/DTD/svg11.dtd">
<svg width="100%" height="100%" viewBox="0 0 567 567" version="1.1" xmlns="http://www.w3.org/2000/svg" xmlns:xlink="http://www.w3.org/1999/xlink" xml:space="preserve" xmlns:serif="http://www.serif.com/" style="fill-rule:evenodd;clip-rule:evenodd;stroke-linejoin:round;stroke-miterlimit:2;">
    <g id="Layer_3_1_">
        <path d="M542.7,143.7C541.2,133.7 540.4,123.6 540.1,113.5C539.7,99.6 541.6,84.7 538.6,71C538.3,69.7 536.8,70.3 536,71.2C535.4,70 533.8,69.5 532.5,69.5C523.6,69.7 514.7,70.1 505.9,70.3C497,70.5 487,69.5 478.5,72.3C477.4,72.6 475.4,75.1 477.3,75.9C484.7,78.9 494.3,77.8 502.1,77.9C510.6,78 519.1,78.4 527.5,78.6C528.9,80.4 532.4,79.7 534.1,78.1C534.2,78.1 534.2,78 534.3,78C534.4,77.9 534.5,77.8 534.5,77.8C532.9,89.6 533.2,102 533.1,113.7C533,123.7 533.2,133.6 534.3,143.6C535.3,153 536.7,162.4 537.6,171.8C538,175.8 538.2,179.7 538.2,183.7C538.2,185.8 537.6,187.6 537.4,189.5C535.4,188.9 533.6,188.7 531.4,188.8C531,188.8 530.6,188.9 530.2,189.1C461.5,184.1 392.6,190.2 323.9,190.4C254.7,190.6 185.4,182.3 116.2,187.2C103.5,188.1 90.8,189.5 78.2,191.7C79,190.7 79.5,189.6 79.5,188.4C79.5,186.1 79.2,184.5 78.1,182.8C76.6,175.6 77,167.7 77.2,160.5C77.4,151.3 78,142.2 77.9,133C77.7,123.1 76.7,113.3 75.1,103.6C73.7,95.2 73.1,86.3 71.3,78C78.7,78.1 86.1,78.2 93.5,78.6C101.5,79 109,78.2 116.8,77.6C117.6,77.6 118.5,77.6 119.3,77.4C121.6,77.1 123.5,75.7 124.5,73.6C125.4,71.7 125,68.5 122.4,68.3C118.6,68.1 115,69.6 111.3,70C106.4,70.6 101.3,70.5 96.4,70.3C98,67.3 99.1,63.8 99.8,62.2C103.8,53.9 108.3,45.9 116.4,41C117.5,40.4 118.3,37.7 116.2,38C107.9,39.4 102.1,48.7 98,55.2C95.7,59 93.6,62.9 91.3,66.7C90.6,67.9 89.7,68.9 89,69.9C80.9,69.6 72.8,69.5 65,72.2C64.7,72.3 64.3,72.5 64,72.8C57.1,73 50.5,72.2 43.9,71.6C41.8,71.4 38.5,74.6 41.1,76.2C42.3,76.9 43.5,77.5 44.8,78C44,78.3 43.3,79 43.2,79.6C35.3,112.3 40.6,147.1 37.2,180.4C33.6,216.2 31.1,252.3 29.5,288.3C28,321.6 29.8,354.5 32.5,387.7C35.1,420.5 37.8,453.6 34.1,486.5C33.3,493.4 32.1,500.1 30.5,506.8C30,508.8 31.1,510.2 32.9,510.8C43.6,514.1 55,512.3 66,512.1C71.1,512 74.6,502.8 68,502.9C58.7,503.1 49.3,504.6 40.1,502.7C50.7,439.6 36.5,376 36.6,312.6C36.7,276.7 39.6,240.7 42.3,204.8C43.6,187.5 45.1,170.3 45.2,153C45.2,136.1 44.7,119.2 45.2,102.3C45.5,94.4 46.2,86.6 46.8,78.8L46.8,78.7C51.6,80.3 56.8,80.9 61.7,81.4C63,81.5 64.3,81.2 65.4,80.5C64.8,88.2 66.5,96.3 67.5,103.8C69,114.4 69.8,124.8 69.9,135.4C70,154.2 67.6,172.4 70.1,191.2C70.5,194.1 72.7,194.6 74.8,193.8C74,195.3 74.2,196.9 76.3,196.7C145.2,189.6 214.1,195.1 283,197.4C354.5,199.8 426.1,192.5 497.6,196C509.6,196.6 521.6,197.6 533.6,198.8C536,199 539.8,196.2 540.8,193.5C541.9,193.3 543,192.7 543.6,192.3C548.9,188.2 547.2,178.5 546.7,172.6C545.8,163 544.1,153.3 542.7,143.7Z" style="fill-rule:nonzero;"/>
        <path d="M155,102C155.4,108 164.7,103.9 164.3,99C164.3,98.4 164.3,97.7 164.2,97C163.3,81.1 164.2,65 158.4,49.9C156.5,44.8 151.2,34.6 144.7,34C135.9,33.3 126.4,31.9 118.9,37.6C117.9,38.3 117.7,40.7 119.5,40.4C120.1,40.3 120.6,40.2 121.2,40.1C120.7,40.7 120.5,41.5 120.9,42.2C125.6,50.2 128.4,59.8 130.3,68.9C132,77.4 134.2,88.9 130.8,97.2C130.1,98.9 130.1,100.8 131.8,101.9C132.8,102.5 133.9,102.4 135,102.1C137,101.5 138.7,99.7 139.2,97.7C141.4,88.4 139.9,77.9 138,68.7C135.9,58.6 132.9,47 125.4,39.5C131.4,38.6 137.7,38.5 142.5,42.6C147.7,47.1 150.3,53 152.1,59.5C155.7,72 155.8,86.1 155.1,99.1C155,100 155,101.1 155,102Z" style="fill-rule:nonzero;"/>
        <path d="M428.8,67.2C419.8,66.9 410.7,64.8 401.6,64.4C391.4,63.9 381.2,64 371.1,64.3C350,64.9 328.9,66.7 307.8,67.4C286.4,68.1 264.9,68.3 243.4,68.5C219.9,68.7 196.7,67 173.2,65.7C170.4,65.5 166.5,70.5 170.5,71.4C192.1,76.2 215.5,75.9 237.5,76.1C259.7,76.3 281.9,76.4 304.1,76C325.2,75.6 346.2,73.7 367.2,73C377.6,72.7 388.1,72.7 398.5,73.3C403.3,73.6 408.2,74.1 413,74.7C415.5,75 418,75.6 420.6,76C421.1,77.3 422.5,78 424.8,77.1C425.5,76.8 426.2,76.6 426.8,76.5L426.9,76.5C428.6,76.1 430,75.8 431.6,73.8C432.4,72.8 432.8,71.7 432.8,70.7C433.6,76.4 434.5,82.3 434.7,88.1C434.8,89.6 434.9,91.1 434.8,92.7L434.8,95.3C434.6,97 434.8,98.5 436.4,99.6C439.1,101.6 443.6,97.9 444,95.2C445,87.2 442.6,77.6 441.4,69.9C440.2,62.5 438.4,55.1 436.4,47.9C434.8,42.3 432.5,35.4 428.2,31.2C430.4,31.3 432.5,31.3 434.7,31.2C438.9,31 444.7,29.5 448,32.7C453.6,38.2 457,45.2 459.2,52.6C463.1,65.7 462.4,79.4 462,93C461,93.8 460.3,94.9 460.4,96C460.8,98.6 461.1,100 463.4,101.5C466.9,103.7 471.5,99.1 471.4,95.7C471.1,79 471.5,61.3 466.1,45.3C463.4,37.4 458.6,30.2 452.2,24.9C451.2,24 450.1,23.8 448.8,24.2C446,25.1 442.7,24.9 439.8,25.2C434.3,25.6 428.9,26 423.5,27.3C423.1,27.4 422.7,27.7 422.5,28C415.2,25.5 407.6,30.4 402.9,35.7C397.2,42.1 393.9,51.8 391.9,60C390.5,65.7 399.1,63.6 400.2,59.3C401.8,53.2 402.9,47.3 405.7,41.6C409.3,34.3 414.7,32.9 422.2,31.5C422.6,31.4 423.2,31 423.7,30.5C424,30.6 424.4,30.6 424.7,30.7C424.1,31.2 423.6,31.9 423.8,32.7C424.7,38 426.9,43.2 428.4,48.4C430.3,55.3 431.7,62.3 432.7,69.4C431.9,68.2 430.7,67.2 428.8,67.2Z" style="fill-rule:nonzero;"/>
        <path d="M151.4,109C152.3,107.3 151.8,104.3 149.5,104.2C144.9,104 141,107.3 136.1,107.1C133.8,107 131.4,106.2 129.7,104.7C127.9,103.2 127.5,100.2 125.3,99.4C124.7,99.2 124.1,99.3 123.7,99.7C118.1,105.5 125.6,112.3 131,114C137.2,116 148.1,115.4 151.4,109Z" style="fill-rule:nonzero;"/>
        <path d="M456.6,100.4C448.3,105 434.7,104.7 429,96.1C428.3,95 426.4,96.4 426.3,97.3C424.4,114.1 449.4,113.2 459.5,108C465,105.2 462.8,97 456.6,100.4Z" style="fill-rule:nonzero;"/>
        <path d="M87.7,175.2C84.6,175.5 80.4,182 85.2,182.5C88.7,182.9 92.3,183 95.8,183.2C99.1,183.4 102.5,184.1 105.9,184C108.8,183.9 114,177.8 109.6,176.1C103.3,173.5 94.4,174.5 87.7,175.2Z" style="fill-rule:nonzero;"/>
        <path d="M127.8,179C131,180.4 134.9,180.4 138.3,180.5C142.9,180.6 147.1,180.8 151.2,178.4C152.6,177.6 155.2,173.8 152.4,172.8C148.9,171.5 145.9,172 142.3,172.2C138.5,172.5 134.7,172.3 130.9,172.6C128.5,172.7 124.3,177.4 127.8,179Z" style="fill-rule:nonzero;"/>
        <path d="M184,171.3C180.6,171.5 177.1,171.8 173.7,172.4C171.2,172.8 167.4,177.8 171.6,178.6C177.6,179.8 186.5,181.5 191.7,177.4C192.9,176.4 193.5,174.6 192.6,173.3C191,170.9 186.5,171.2 184,171.3Z" style="fill-rule:nonzero;"/>
        <path d="M217.8,172.2C215.1,172.7 211,178 215.5,178.9C221.2,180 228,180.6 233.8,180C236,179.8 238,178.3 238.9,176.3C239.8,174.4 239.4,171.4 236.8,171.1C230.7,170.5 223.8,171.1 217.8,172.2Z" style="fill-rule:nonzero;"/>
        <path d="M268.8,171.9C265.2,171.8 261.2,171.9 257.7,172.8C255.2,173.5 253.4,177.4 256.5,178.4C259.4,179.4 262.9,179.7 265.9,180.1C269.1,180.5 272,181.2 275.2,180.4C277.9,179.7 281.3,174.7 277.8,172.9C275.2,171.5 271.8,171.9 268.8,171.9Z" style="fill-rule:nonzero;"/>
        <path d="M312.3,173.1C307.8,173.4 303.4,173.3 298.8,173C296.7,172.9 293.1,176.2 295.9,177.8C302.2,181.5 310.2,180.4 317.2,180.7C319.2,180.8 321,178.9 321.9,177.3C324.5,172.4 315,172.9 312.3,173.1Z" style="fill-rule:nonzero;"/>
        <path d="M353.3,172.4C349.4,172.6 345,172.4 341.3,173.8C339.6,174.4 336.6,178 339.4,179.3C342.4,180.7 346.4,180.5 349.7,180.7C353.3,180.9 358.3,182 361.5,179.8C363.3,178.5 365.5,175.8 363.6,173.6C361.4,171.1 356.2,172.3 353.3,172.4Z" style="fill-rule:nonzero;"/>
        <path d="M380.8,173.3C379.1,173.6 376.3,177.1 379.3,177.7C385.1,178.9 391.1,178.9 397,179.5C401.2,180 407.9,182.2 409,175.9C409.3,174.1 408.5,172.3 406.6,171.9C398,170.4 389.3,171.6 380.8,173.3Z" style="fill-rule:nonzero;"/>
        <path d="M440.4,172.4C435.4,172.6 430.3,173.3 425.5,174.4C423.5,174.9 421.9,178.3 424.5,179C428.7,180.2 433.1,180.6 437.5,180.9C442,181.2 447.1,182.2 450.9,179.5C452.5,178.4 454.4,176 452.8,174.1C450.1,170.7 444.3,172.2 440.4,172.4Z" style="fill-rule:nonzero;"/>
        <path d="M465.4,177.6C472.6,179.2 480.2,179.2 487.5,179.8C493.3,180.3 496.9,170.6 490.5,171.1C482.6,171.8 474.6,171.8 466.9,173.3C465.2,173.7 462.6,177 465.4,177.6Z" style="fill-rule:nonzero;"/>
        <path d="M526.4,180.1C531.9,180.8 536.1,171 529.1,170.9C523.4,170.9 516.9,170.9 511.4,172.7C509.8,173.2 506.7,176.9 509.5,178.1C514.6,180.2 521,180.2 526.4,180.1Z" style="fill-rule:nonzero;"/>
        <path d="M540.8,202.6C540.6,200.4 537.7,202.1 537.6,203.6C532.7,272.7 541.6,342.9 523.9,410.8C516.8,437.9 504.1,462.5 482.2,480.5C469.4,491 453.4,497.8 438.8,505.5C429.8,510.2 421.6,515.8 413.2,521.6C412.1,522.3 411.1,523.1 410,523.8C416.7,515.8 421.5,505.9 425.8,496.4C430.7,485.5 434.8,474.2 438.3,462.8C439,460.6 439.7,458.3 440.5,456C443.3,464.4 451.6,468.9 461.4,469.8C475,471.1 487.2,465.8 496.3,455.9C504.7,446.8 512.1,433.7 513.7,421.3C514,419 511.2,419.2 510.2,420.6C499.7,435 494.4,455.5 475,460.7C472.5,461.4 469.7,461.7 466.8,461.6C468,460 468.8,457.2 466.2,457L465.6,457C467.6,453.2 468.7,448.9 466.3,445.1C462.7,439.4 455.6,443.6 452.5,447.4C451.8,448.3 452.7,449.3 453.6,448.7C456.1,447.2 460.7,444.5 462.3,448.5C463.7,452.1 460.9,457 458.3,459.2C458.1,459.4 457.9,459.6 457.7,459.9C454.6,458.8 451.9,457.1 449.9,454.7C447,451.2 446.8,446 447.7,441.8C448.9,435.7 453.7,432 459.7,431.2C460.6,431.1 461.8,429.5 460.4,429.1C452.9,426.9 446.5,431.2 442.9,437.4C442.6,437 441.8,437.3 441.6,437.8C435,454.6 430.2,472 422.4,488.4C418,497.6 413.5,507 407.4,515.3C405.4,518.1 403.1,520.7 400.4,522.8C398.7,524.1 397.3,524 394.6,524.6C392.8,525 390.3,527.7 390.5,529.9C381.4,527.4 371.9,526.4 362.4,525.6C349.7,524.5 337.1,523.7 324.4,523.1C297.4,522 270.4,522.1 243.5,522.5C217.1,522.9 190.7,523.2 164.4,523C150.6,522.9 136.9,522.7 123.1,523.1C110.9,523.4 97.6,523.4 85.8,527C85.9,526.9 85.9,526.7 86,526.6C87.7,521.5 85.2,515.2 84.6,510.1C83.6,500.8 83.1,491.6 82.9,482.2C82.5,466.3 83.2,450.4 83.2,434.5C83.3,418.7 82.9,403 83.2,387.2C83.8,356.3 85.3,325.4 84.1,294.6C82.9,263.8 79.6,233 77.3,202.3C77.1,199.1 72.7,201.6 72.5,203.8C70.5,234.1 74.9,264.7 76.3,294.9C77.8,325.7 76.2,356.7 75.5,387.5C74.8,418.4 74.9,449.4 74.8,480.4C74.8,490.4 75.2,500.4 76,510.5C76.3,514.5 76.5,518.5 76.4,522.6C76.4,524 76.6,525.6 76.9,526.9C77,527.4 77.3,529.2 77.3,528.5C77.5,529.8 78.2,530.9 79.7,531.1C80.4,531.2 81.1,531.1 81.8,530.9C82,531.2 82.3,531.4 82.8,531.5C94.6,533.1 107.3,531.2 119.2,530.9C132.2,530.6 145.2,530.8 158.2,531.1C184.6,531.6 210.9,531.6 237.3,531.5C263.6,531.4 289.8,531.2 316.1,532.1C328.9,532.6 341.7,533.4 354.4,534.5C364.5,535.3 374.8,536.2 384.6,538.7C386.6,540 388.8,540.6 391.5,540.8C392.2,540.8 392.9,540.7 393.6,540.5C393.6,540.6 393.7,540.8 393.7,540.9C394.9,544.4 399.3,542.9 401.4,540.1L401.5,540.1C402,539.7 402.4,539.4 402.9,539C404.3,538 405.6,536.9 407,535.8C411,532.8 415.1,529.9 419.1,527.1C428.2,520.7 437.2,515.2 447,510C461.2,502.5 475.9,495.3 488.3,484.9C498.6,476.4 507.4,465.9 514.2,454.4C529.2,429.3 535.2,400.2 539,371.6C543.5,337.4 543.9,302.8 543.4,268.4C543.2,246.6 542.5,224.5 540.8,202.6ZM402.4,536C402.4,536.1 402.5,536.2 402.5,536.4C402.4,536.3 402.4,536.1 402.4,536Z" style="fill-rule:nonzero;"/>
        <path d="M126.1,378.6C125.6,373.9 125.6,369.1 125.4,364.3C125.3,361.1 121,362.2 119.8,364C117.5,367.5 114.3,370.1 112.2,373.7C110.4,376.7 114.8,377 116.4,375.2C117.2,374.3 118,373.5 118.8,372.6C118.7,375.1 118.6,377.7 118.4,380.1C117.8,386 126.7,383.3 126.1,378.6Z" style="fill-rule:nonzero;"/>
        <path d="M147.6,379.1C146.2,380 143.5,383.7 146.4,384.8C152,387 159.6,387.8 164.5,383.6C167.4,381.1 166.4,376.5 162.1,377.5C160.3,377.9 158.8,379 156.9,379.3C156.5,379.4 156,379.4 155.6,379.4C159.2,375.6 161.9,370.8 162.2,365.7C162.3,363.3 161.4,360.9 158.8,360.4C155.4,359.8 151.8,362.8 150,365.2C148.3,367.4 150.4,369.7 152.8,368.3C153.8,367.7 154.7,367.1 155.7,366.5C155.8,366.4 155.9,366.4 156,366.4C156,366.8 155.9,367.6 155.8,368.3C154.8,372.8 151.3,376.8 147.6,379.1Z" style="fill-rule:nonzero;"/>
        <path d="M190.4,380C190.5,379.9 190.6,379.8 190.7,379.7C190.7,379.7 190.6,379.8 190.4,380Z" style="fill-rule:nonzero;"/>
        <path d="M189.3,381.2C189.4,381.1 189.4,381 189.5,380.9C189.4,381.1 189.4,381.1 189.3,381.2Z" style="fill-rule:nonzero;"/>
        <path d="M188.3,363.3C186.6,364 184.9,367.5 188,367.4C190.7,367.3 193.5,366.9 196.1,367.9C199,369 197,370.5 195.4,372C192.4,374.7 194.5,379.2 198.4,377C200.2,376 202.6,374.8 203.8,375.5C203.7,375.5 204,376 204,376.3C204.1,376.9 203.9,377.5 203.7,377.9C203,379.6 202.2,380.4 201.3,380.7C199.5,381.4 197.9,380.1 195.6,379C194,378.2 192.1,378.8 190.7,379.8C191,379.7 189.1,381.7 189.3,381.3C188.5,382.6 187.8,384.7 189.1,385.9C196.2,392.5 207.3,386.7 210.2,378.7C211.4,375.5 211.7,371.6 208.7,369.4C207.3,368.4 205.7,368.1 204,368.3C204.1,366.9 203.7,365.6 202.6,364.3C199.5,360.6 192.1,361.7 188.3,363.3Z" style="fill-rule:nonzero;"/>
        <path d="M239.1,387.1C239.1,388.9 239.9,389.7 241.1,389.9C243.7,390.3 247.9,387.5 247.9,384.3L247.9,383.1C247.8,376.8 247.2,370.4 247.2,364.1C247.2,359.5 240.4,362.5 239.8,365.6C239.3,368.1 238.6,371.3 235.5,369.9C232.5,368.5 232.1,364.7 231.2,361.9C230.5,359.8 227.5,361.4 227,362.8C224.8,368.6 227,375.5 233.3,377.2C235.5,377.8 237.5,377.5 239.3,376.5C239.2,379.6 239,382.7 238.9,385.7C239.1,386.2 239.1,386.6 239.1,387.1Z" style="fill-rule:nonzero;"/>
        <path d="M281.2,383.4C281,383.3 280.8,383.2 280.5,383C279.7,382.5 278.8,381.7 277.5,381.4C274.8,380.7 270.9,382.2 271.3,385.6C271.7,388.4 272.7,390 275.3,391.1C284,394.7 290.1,384.8 290,377.3C290,374.7 289,372 287.1,370.2C288.8,370.1 290.6,370 292.3,370C295.9,370 299.9,363.1 295,362.2C288.7,361.1 280.5,363.1 274,365.4C274,365.1 273.9,364.9 273.9,364.6C273.7,362.5 271.1,363.8 270.5,364.9C269.9,366 269.5,367.1 269.3,368.3C269,368.8 268.9,369.4 269,369.8C268.8,371.6 268.8,373.5 268.6,375.4C268.3,378.2 270.9,379.4 273.2,378C276.1,376.3 279.8,374.2 281.7,376.8C282.8,378.4 282.2,381.4 281.2,383.4C281.3,383.3 281.3,383.4 281.2,383.4Z" style="fill-rule:nonzero;"/>
        <path d="M317.5,384.3C318.4,384.8 319.4,385.2 320.3,385.5C321.8,386.1 321.9,386.7 321.6,385.4C321.6,385.6 321.7,385.8 321.7,385.9C322.8,390 329.3,385.6 328.5,382C328.1,380.2 329.8,378.5 328.9,376.4C327.5,373.1 322.5,373.7 319.4,374.4C319.6,370.7 325.3,365.9 327.3,364.2C329.2,362.7 327.8,359.9 325.5,361.2C319.6,364.5 311.9,370.2 312.9,377.9C313.4,380.9 315.2,382.9 317.5,384.3ZM321.6,385.3L321.6,385.2L321.6,385.3Z" style="fill-rule:nonzero;"/>
        <path d="M373.6,381.6C373.4,379.9 373.2,378.2 373.1,376.5C373.5,376.3 374,376 374.4,375.7C376.8,373.9 377,370.3 374,369.3C373.6,369.2 373.2,369.1 372.7,369.1C372.6,366.8 372.5,364.5 372.3,362.2C372.2,361 371.2,360.2 370,360.3C366.5,360.8 363.1,360.8 360,362.7C358.3,363.7 358.2,366.5 360.7,366C362.6,365.6 364.5,365.6 366.4,365.7C366.3,367.1 366.2,368.5 366.2,369.9C365.4,370.1 364.6,370.2 363.9,370.3C360.2,370.7 356.4,370.9 352.8,372C351.5,372.4 349.1,375.5 351.3,376.3C354.8,377.6 358.7,377.6 362.4,377.8C363.4,377.8 364.3,377.9 365.3,377.9C363.9,379 363,381.1 364.1,382.6C364.7,383.5 365,384.3 365.4,385.3C366.8,389.8 374.2,385.3 373.6,381.6Z" style="fill-rule:nonzero;"/>
        <path d="M398.9,381.5C395.9,387.6 400.3,393 405.2,396.2C411.7,400.4 419,397.1 422.3,390.6C424.9,385.4 425.2,378.2 422,373.3C421.1,371.8 419.8,371 418.5,370.5C420,368.6 421.1,366.5 421.3,364C421.5,361.8 419.9,359.8 418,359C415.6,358 413,358.2 410.6,358.9C407.7,359.7 402.7,362.4 403.2,366C403.3,366.4 403.4,366.8 403.6,367.1C403.1,369.1 403.3,371.2 404.5,373.2C404.9,373.8 405.3,374.3 405.8,374.7C402.7,376.1 400.2,378.9 398.9,381.5ZM414.4,366C414.4,366 414.4,366.1 414.4,366ZM413.8,378.4L413.9,378.4L413.8,378.4ZM413.9,378.4L414,378.4L413.9,378.4ZM414.2,390.8C414.2,390.7 414.3,390.7 414.2,390.8L414.2,390.8ZM414.4,390.7L414.4,390.7ZM415.8,387.7C415.8,387.8 415.6,388.4 415.5,388.6C415.4,388.9 415.2,389.3 415.1,389.6C415,389.7 415,389.8 415,389.9L414.9,390C414.8,390.1 414.6,390.4 414.5,390.5C414.4,390.6 414.3,390.7 414.2,390.7C414.1,390.7 414.1,390.7 414.1,390.8L413.7,390.8C413.5,390.8 413.3,390.8 412.6,390.6C410.1,390.1 406.7,387.5 405.5,385C404.8,383.7 404.9,382.5 405.3,381.5C406.1,382 407.1,382.1 408,381.8C409.8,381.2 411.1,380.2 412.6,379C412.7,379 412.7,378.9 412.7,378.9C412.9,378.8 413.1,378.6 413.3,378.5C413.5,378.4 413.6,378.3 413.6,378.3L414.1,378.3C414.2,378.4 414.5,378.5 414.6,378.5C414.6,378.5 414.7,378.7 414.9,378.9C415,379 415,379.1 415.1,379.1C415.1,379.1 415.1,379.2 415.2,379.2C415.4,379.5 415.5,379.9 415.7,380.3C416.1,381.5 416,381.1 416.2,382.2C416.4,384.7 416.3,385.6 415.8,387.7ZM413.8,365.5C413.8,365.5 413.9,365.5 413.9,365.6C414,365.6 414.1,365.7 414.2,365.8C414.2,365.9 414.3,365.9 414.3,365.9C414.3,366 414.3,366.1 414.4,366.1L414.4,366.2C414.3,366.5 414.2,366.9 413.8,367.4C413.4,368.1 412.5,369.1 412.1,369.4C412.1,369.4 411.1,370.2 411.7,369.8C411.6,369.8 411.6,369.9 411.5,369.9C411.5,369.9 411.4,369.9 411.3,370C411.8,369.9 411.2,369.9 411.2,370C411,370 410.8,369.9 410.8,370C410.3,369.8 410,369.5 409.8,369.4C409.2,368.8 408.8,367.9 408.9,367.1C408.9,366.9 409,366.8 409,366.6C409.4,366.4 409.8,366.1 410.2,365.9C409.6,366.2 411.5,365.6 411.3,365.6C411.6,365.5 411.9,365.5 412.2,365.5L412.8,365.5C413,365.5 413.2,365.6 413.5,365.6C413.7,365.5 413.7,365.5 413.8,365.5Z" style="fill-rule:nonzero;"/>
        <path d="M467.7,359.3C459.8,356.5 445.1,360.8 446,371.2C446.7,379 454.8,380.9 461.9,378.9C460.1,379.9 458.1,380.5 456.1,380.7C453.1,381 451.1,379.4 448.3,379.2C447.4,379.1 446.3,379.7 446.2,380.7C445.8,384.9 451.1,387.2 454.7,387.2C459.8,387.2 464.5,385 468.5,381.9C475.6,376.4 478.3,363 467.7,359.3ZM454.7,368C454,366.3 462.8,366.5 464.1,367.1C464.6,367.3 465,367.6 465.3,367.9C461.6,370.3 457,373.7 454.7,368Z" style="fill-rule:nonzero;"/>
        <path d="M108.9,408.5C108.3,412 108.1,415.6 107.8,419.1C107.6,421.8 106.2,426.6 109.7,427.4C110.7,427.7 111.7,427.2 112.6,426.5C112.7,426.4 112.8,426.4 112.8,426.3C114.2,425.2 114.7,423.8 114.8,422.3C115.1,423.3 115.7,424.2 116.6,424.8C119.8,427.1 124.2,423.4 126.2,421.2C128.6,418.5 130.1,414.6 129.3,411.1C128.2,406.4 122.5,405.5 118.5,405.5C116.7,405.5 115,407.1 114.2,408.6C114,408.9 113.9,409.3 113.7,409.6C113.6,408.9 113.5,408.1 113.4,407.4C113,404.8 109.2,406.4 108.9,408.5ZM122.1,413.8C122.3,414 122.3,414.1 122.4,414.1C122.4,414.2 122.6,414.5 122.7,414.6C122.7,414.6 122.7,414.7 122.8,414.8L122.8,415.5C122.8,415.8 122.7,416.1 122.6,416.4L122.6,416.5C122.5,416.8 122.4,417.1 122.2,417.3C122.2,417.4 122,417.6 121.9,417.8C121.8,417.9 121.8,418 121.7,418C121.5,416.8 121.1,415.7 120.9,414.5C120.8,414 120.8,413.7 120.7,413.3C120.9,413.4 121.2,413.4 121.3,413.4C121.5,413.5 121.7,413.6 121.8,413.7C122,413.7 122.1,413.7 122.1,413.8Z" style="fill-rule:nonzero;"/>
        <path d="M155.6,426.2C156.6,425.6 158.5,423.9 157.7,422.5C157.5,422.2 157.4,421.9 157.4,421.8C157.3,421 157.3,420.2 157,419.4C155.7,415.3 157.2,410 155,406.2C154.1,404.6 152,405.6 151.4,406.9C149.6,411 149.5,416.3 149.4,420.7C149.4,422.3 149.3,424.5 150.6,425.6C151.9,426.7 154,427.2 155.6,426.2Z" style="fill-rule:nonzero;"/>
        <path d="M164.8,405.1C164.3,403.2 161.5,405 161.3,406.2C160.6,409.9 160.7,413.6 161,417.3C161.1,418.9 161.3,420.4 161.3,422C161.3,422.4 161.2,423.5 161.2,423.7L161.2,424.3C161.1,424.9 161.2,425.6 161.7,426.2C163.1,428 165.9,427 167.3,425.8C169.3,424 169.9,421.6 169.3,419C168.2,414.3 166,409.9 164.8,405.1Z" style="fill-rule:nonzero;"/>
        <path d="M200.8,422.8C201.3,422 201.4,420.7 201.2,419.8C200.9,418.1 200.8,416.4 200.6,414.7C200.4,412.8 200.4,410.8 200,408.8C199.8,407.6 199.5,406.1 199.6,404.8C199.8,403 197.6,403.5 197,404.7C195.4,408 194.7,411.8 194.2,415.3C193.9,417.3 193.6,419.3 193.2,421.3C193,422.2 192.9,423.3 193.3,424.2C193.5,424.6 193.6,424.9 193.9,425.1C194.1,425.4 194.4,425.7 194.8,426C196.9,427.1 199.5,425.3 200.4,423.5C200.5,423.3 200.7,423.1 200.8,422.8Z" style="fill-rule:nonzero;"/>
        <path d="M200.4,423.5C200.2,423.9 200.3,423.9 200.4,423.5Z" style="fill-rule:nonzero;"/>
        <path d="M215.6,410.8C215.2,404.1 207.9,403 202.7,404.6C201.5,405 200.1,407.3 202,407.8C205.3,408.5 209.3,409.2 208.6,413.4C208.1,416.8 205.5,419.6 202.9,421.5C200.3,423.4 200.7,427.4 204.2,427.5C207.1,427.6 210,427.8 213,427.8C217.4,427.7 220.4,420.1 214.7,419.9L213,419.9C214.7,417.1 215.8,413.9 215.6,410.8Z" style="fill-rule:nonzero;"/>
        <path d="M238.7,424.8C239.9,429.4 246.5,424.5 246.5,421.4C246.5,420.2 245.9,418.3 244.8,417.3C242.8,412.7 241.1,408 238.2,403.9C237.4,402.7 235.3,404.4 235.4,405.5C236.4,411.9 236.9,418.5 238.7,424.8Z" style="fill-rule:nonzero;"/>
        <path d="M254.2,404.2C252.5,401.7 248.4,402.1 246.3,403.5C245.4,404.1 244.5,405.3 245.3,406.4C246.3,407.7 247.8,407.4 248.7,408.5C249.6,409.5 248,413.1 247.7,414.1C247.2,415.6 248.3,416.9 249.6,417.3C250,417.4 250.3,417.5 250.6,417.7C248.3,419.3 246.4,422.5 249.4,424.1C252.4,425.7 256.5,423.9 259.1,422.4C261.2,421.1 263,417.9 260.4,416.1C259.3,415.3 258.9,414 258.1,412.9C257.4,412 256.4,411.4 255.3,411C255.6,408.6 255.6,406.3 254.2,404.2Z" style="fill-rule:nonzero;"/>
        <path d="M280.2,425.7C280.8,427.5 283,428.4 285.3,427.1C288.3,425.4 288.6,422.7 288.3,419.6C287.7,414 286.7,408.4 284.9,403C284.3,401.3 282,403 281.7,404C280.8,407.7 280.7,411.4 280.6,415.2C280.5,417.3 280.5,419.4 280.4,421.5C280.4,422.1 280.2,422.7 280.1,423.3C280,423.7 280,424.2 280,424.6C279.9,425.9 280,426 280.2,425.7ZM285.2,420.1C285.6,420.1 285.7,420.1 285.2,420.1Z" style="fill-rule:nonzero;"/>
        <path d="M299.8,431.4C303.2,430.3 304.2,427.1 304.3,424C304.6,418.1 303.6,412.1 303.5,406.1C303.4,401.5 297.6,404.7 296.4,407.3C296.1,405.8 295.8,404.3 295.4,402.8C294.7,400.3 291.3,402.8 291,404.2C290,408.5 289.8,413 290.5,417.4C290.8,419.1 291.8,419.8 293.5,419.8C294.4,419.8 295.3,419.6 296,419.3L296,420.9C295.9,423.1 295.2,425.9 295.3,428.4C295.3,428.5 295.2,428.7 295.2,428.8C295.1,431.1 297.7,432 299.8,431.4ZM300,423.9L300.5,423.9L300,423.9Z" style="fill-rule:nonzero;"/>
        <path d="M321.4,426.3C321.9,426.5 322.4,426.6 322.9,426.5C324.4,426.5 325.9,425.7 326.7,424.5C326.8,424.4 326.8,424.3 326.9,424.2C327.4,423.6 327.8,422.9 327.9,422.2C328,421.2 328,420.4 327.8,419.4C327.3,417.8 326.9,416.1 326.5,414.4C325.7,411.2 324.6,408.3 323.6,405.2C323,403.4 320.6,405.2 320.4,406.2C319.6,409.4 319.5,412.5 319.3,415.7C319.2,418.5 318.6,423.2 320.4,425.5C320.5,425.8 320.9,426.1 321.4,426.3C321.3,426.2 321.3,426.3 321.4,426.3ZM327.6,421.9L327.6,421.7L327.6,421.9Z" style="fill-rule:nonzero;"/>
        <path d="M341.4,400.5C337.9,398.5 332.3,401.4 329.8,404.5C329,405.1 328.4,405.8 328.5,406.9C328.6,408 329.6,408.5 330.6,408.3C330.7,408.3 330.9,408.3 331,408.4L331,408.5C331.5,410.9 332.1,413.3 332.4,415.7C331.6,416.1 330.9,416.8 330.6,417.6C329.7,420 328,421.8 330,424.5C331.6,426.8 335.4,425.8 337.4,424.9C338.8,424.2 340.3,422.3 340,420.7C339.4,416.7 338.9,411.9 336.6,408.4C337.8,408.2 338.9,408 340,407.3C342.1,405.9 344.2,402.1 341.4,400.5Z" style="fill-rule:nonzero;"/>
        <path d="M363.4,421C362,415.6 361.9,409.9 361.2,404.4C360.9,402.4 358,403.5 357.8,405.1C356.8,412.8 356.8,420.5 358.4,428.1C359.3,432.5 365,429.3 365.1,426C365,424.2 365,422 363.4,421Z" style="fill-rule:nonzero;"/>
        <path d="M383.1,405.3C384.2,404.6 385.2,401.8 382.9,402.1C372.7,403.2 364.7,416.4 369.6,425.6C373.1,432.1 379.7,428.5 382.7,423.6C384.8,420.2 387.2,412.2 381.4,411C379.6,410.6 377.6,411.2 375.7,412.2C377.5,409.4 380.4,407.1 383.1,405.3ZM378.4,417.5C378.4,417.7 378.5,418 378.4,418.5C378.2,419.8 377.7,421 377.1,422.2C377,422.4 376.6,422.9 376.4,423.2C375.9,422.9 375.5,422.3 375.2,421.8C375.3,421.7 375.3,421.5 375.4,421.4C375.7,420.5 376,419.7 376.1,418.7C376.7,418.3 377.4,417.8 378.1,417.5L378.4,417.5Z" style="fill-rule:nonzero;"/>
        <path d="M407.8,425.1C409.2,425.6 410.8,424.4 411.6,423.4C413.6,421 411.8,417.2 411.1,414.5C410.3,411.5 409.4,408.5 408.8,405.4C408.3,403.1 405.1,404.4 404.9,406.2C404.1,411.8 405.9,417.3 405.8,422.8C405.8,424 406.7,424.6 407.7,425C407.7,425.1 407.8,425.1 407.8,425.1Z" style="fill-rule:nonzero;"/>
        <path d="M428.9,413.2C428,407.4 422.4,397.8 415.8,403.9C415.2,404.5 414.4,406.1 415.6,406.6C415.1,406.4 416.7,407.3 417.4,407.3C418.4,407.3 419.1,407.7 419.8,408.3C421.3,409.7 421.9,412 422.3,413.9C422.7,416.1 422.8,418.4 422.4,420.5C422.3,421.2 422.1,421.8 421.8,422.4C421.9,422.1 421.6,422.6 421.6,422.6C421.5,422.7 421.5,422.7 421.4,422.8C420.2,424 418.8,426.8 421,427.9C424.4,429.6 427.7,425.8 428.6,422.8C429.4,419.8 429.4,416.3 428.9,413.2Z" style="fill-rule:nonzero;"/>
        <path d="M479.7,408.5C480.8,406.7 481,404.6 480.4,402.6C479.6,400 476.7,397.8 474,398.9C473.8,399 473.6,399.1 473.4,399.2C469.4,398.8 464.8,401.9 463.3,405.3C463.1,405.9 462.9,406.5 462.8,407.1C462.4,405 461.9,402.9 461.2,400.9C460.6,399.4 458.7,400.9 458.4,401.8C457.5,405 456.9,428.6 464.6,423.7C468.1,421.5 466.1,418.5 464.9,415.6C464.5,414.5 464.1,413.3 463.8,412.1C464.7,413.4 466,414.3 467.7,414.7C467.4,415.3 467.4,416.1 467.9,416.6C468.4,417.1 469,417.4 469.6,417.6C468.8,419.1 468.3,420.7 468.4,422.5C468.6,425.5 470.7,427.9 473.5,428.9C476.5,429.9 479.6,428.8 481.9,426.9C485.3,424.1 486.1,419.3 486,415.1C486,414.5 485.6,413.6 485,413.4C482.9,412.6 480.2,411.7 477.5,411.3C478.3,410.4 479.1,409.5 479.7,408.5ZM467.7,405.9C468,404.2 470.5,403 472.5,402.3C473,403.6 474.2,404.4 475.1,405.5C475.1,405.6 475.4,406.3 475.4,406.3L475.4,406.9C475.4,407 475.3,407.1 475.3,407.2L475.3,407.3L475.2,407.4C475.1,407.5 474.9,407.8 474.8,407.9C474.6,408.1 474.4,408.3 474.2,408.4L474.1,408.5C474.1,408.5 474,408.6 473.8,408.7C472.9,409.3 471.9,409.6 471,409.7C470.1,409.8 469.4,409.6 468.9,409.2C467.9,408.5 467.5,407.1 467.7,405.9ZM479,422.7C479.1,422.5 478.5,423.2 478.6,423.2C478.1,423.6 477.3,423.9 476.1,423.4C473.5,422.4 473.1,420 473.6,417.7L474.3,417.7C476.2,417.8 478,418.1 479.8,418.5C479.8,419.4 479.7,420.4 479.5,421.3C479.5,421.9 479.3,422.3 479,422.7Z" style="fill-rule:nonzero;"/>
        <path d="M116.3,471.8C115.4,469 114.7,466.2 113.9,463.3C113.1,460.3 111.9,456.6 112.4,453.4C112.6,451.9 110.6,452.3 110.2,453.3C108.6,457.2 108.7,461.4 109.1,465.5C109.3,467.7 109.6,470 109.8,472.2C109.8,472.6 109.9,474 110,474.8C110,474.9 110,475 109.9,475C109.3,480.8 118,477.1 116.3,471.8Z" style="fill-rule:nonzero;"/>
        <path d="M124.9,470C121.2,469.6 117.3,476.4 121.7,476.8C133.7,477.6 141.4,467.4 136.1,456.3C135.5,455.1 134.4,454.8 133.3,455.1L133.3,455C132.1,451.9 129.3,447.7 125.4,450.5C122.2,452.8 121.4,457 121.2,460.7C121.1,463.7 121.5,468.1 125.1,468.9C127.7,469.4 130,467.8 131.8,465.5C131.8,466.3 131.6,467.2 131.3,468C130.4,470.4 127.1,470.2 124.9,470ZM127.4,454.2C128.6,454.7 130.1,455.8 131,456.6C130.8,456.9 130.6,457.1 130.5,457.4C129.7,459.1 128.8,460.9 127.6,462.4L127.5,462.5C127.4,462.3 127.3,462.1 127.3,462C126.9,461.1 126.8,460.1 126.7,459.2C126.6,457.6 126.8,455.7 127.4,454.2Z" style="fill-rule:nonzero;"/>
        <path d="M159,448.5C157.2,448.8 155.6,452 158.3,452C158.9,452 165.3,451.7 165.5,452.8C165.6,453.9 162.7,456.4 162,457.1C158.6,460.6 153.8,464.2 152.6,469.2C152.3,470.4 153,471.3 154.1,471.6C158.1,472.6 161.7,472.7 165.7,472.1C167.5,471.8 169.2,470.6 169.6,468.7C170,466.7 168.1,465.1 166.2,466C163.8,467 161.4,467.1 159,466.7C160,465.2 161.5,463.9 162.6,462.8C164.8,460.5 167.3,458.2 169,455.4C170.1,453.6 171.1,450.9 169.3,449.2C166.8,446.9 161.9,448 159,448.5Z" style="fill-rule:nonzero;"/>
        <path d="M182.2,452.8C180.9,451.8 179,451.6 177.5,451.6C176.8,451.6 175.8,451.9 174.9,452.4C174.4,452.1 173.5,452.4 173.1,453C169.9,456.9 169.2,462.6 171.7,467.1C173.6,470.5 177.3,472.1 180.7,469.7C186.1,466.1 187.7,456.9 182.2,452.8ZM179.6,464.1C179.5,464.4 179.2,465 179.1,465.2C178.9,465.5 178.7,465.7 178.6,465.7C177.4,465.9 175.9,462.7 175.5,461.6C175,460.2 174.9,458.7 175,457.2C176,457.4 177.1,457.4 178,457.6C179.2,457.9 179.7,459.2 180,460.2C180.2,461.5 179.9,462.9 179.6,464.1Z" style="fill-rule:nonzero;"/>
        <path d="M202.7,465C201.4,467.3 199.4,472 203,473.4C206.5,474.8 219.3,472 215.8,466.9C215.2,466 213.9,466.1 213,466.4C211,466.9 209.1,467.8 207.1,467.9C207.2,467.7 207.4,467.2 207.6,466.8C208,466 208.4,465.3 208.8,464.6C209.6,463.2 210.7,461.5 211.7,459.7C212.9,457.5 215,453.8 213.5,451.3C211.3,447.5 205.2,449.7 202.2,451.2C200.9,451.8 200.5,454.1 202.4,454.1C204.2,454.1 206.9,453.5 208.3,454.1C208.5,454.2 208.5,454.2 208.6,454.3C208.6,454.5 208.5,455 208.3,455.5C206.9,458.8 204.6,461.6 202.7,465ZM208.6,454.2C208.7,454.2 208.7,454.2 208.6,454.2Z" style="fill-rule:nonzero;"/>
        <path d="M217.3,449.4C217,456.4 218.7,463.3 217.7,470.3C217,475 223.1,472.8 224.1,469.8C226.1,463.6 223.1,453.3 218.9,448.5C218.3,447.8 217.3,448.8 217.3,449.4Z" style="fill-rule:nonzero;"/>
        <path d="M250.3,467.2C249.7,467.4 249.1,467.7 248.4,467.8C248.5,465.6 249.7,463.2 250.5,461.3C251.8,458.3 253.3,455.4 254.2,452.3C254.7,450.7 254.7,448.3 252.9,447.6C250.1,446.6 247,448.8 244.9,450.4C243.7,451.3 244.2,453.1 245.8,452.7C247,452.4 248.2,452 249.4,451.8C249.5,451.8 249.6,451.8 249.7,451.7C249.7,451.7 249.7,451.8 249.6,451.9C249.2,453.9 247.9,456 247,457.8C245,462 241.8,467.3 242.7,472.1C242.9,473.4 243.8,474.1 245.1,474C246.7,473.9 248.2,473.6 249.8,473.3C254.2,472.6 255,465.4 250.3,467.2Z" style="fill-rule:nonzero;"/>
        <path d="M254.4,474C257.2,474.1 260,474.3 262.8,474.4C266.4,474.6 268.8,467.8 264.2,468C263.4,468 262.6,468.1 261.8,468.1C264.2,464.7 265.9,460.6 266.5,456.8C266.9,454.6 266.6,452.2 264.6,450.9C262.3,449.3 258.7,451.4 257.2,453.1C256.8,453.5 256.8,454.4 257.5,454.5C258.3,454.6 261,454.1 261.4,454.9C262.1,456.1 261.1,458.2 260.6,459.3C259.2,462.8 257.1,466.8 254.1,469.3C252.9,470.3 251.8,473.9 254.4,474Z" style="fill-rule:nonzero;"/>
        <path d="M301.1,470C301.3,471.4 302.4,472.3 303.8,472.2C307.6,471.8 312.5,470.1 314.2,466.2C316,462 314.4,458.4 311.5,455.3C311.7,452.5 311.5,449.8 310.8,447.1C310.7,446.6 310.2,446.3 309.7,446.2C309.6,446.2 309.6,446.3 309.5,446.3C308.9,445.2 307.6,446.3 307.5,447.2C307.5,447.2 306.7,448.1 306.6,448.4C306.3,449.6 306.5,451 306.5,452.2C306.4,454 305.6,456 305.7,457.7C305.8,459 307.2,460 307.9,461C311.9,466.2 304.3,464.8 301.7,467.5C302.2,466.3 301.8,464.8 300.4,464.5C298.8,464.1 296.7,464.4 294.7,464.7C297.3,458.7 301.9,454 299.7,446.8C299.5,446.1 298.6,445.7 297.9,445.8C295.7,446.2 293.5,447 291.4,447.9C290.1,448.4 288.8,451.3 291.1,451.1C292.4,451 293.8,450.7 295.1,450.5C295.2,456.7 290.3,461.7 288.1,467.4C287.7,468.6 287.7,470.5 289.4,470.6C293.4,470.9 298,471.4 301,468.3C301.1,468.8 301,469.3 301.1,470Z" style="fill-rule:nonzero;"/>
        <path d="M328.4,469.4C331.2,470.4 334.1,470.3 337,470.7C339.4,471 341.9,471 343.1,468.4C344,466.5 342.5,464.6 340.5,464.8C338.1,465 335.8,465 333.5,464.7C334.4,463.3 335.5,461.9 336.4,460.6C338.4,457.6 340.5,454.5 341.7,451.1C342.4,449.1 343.2,446.1 341.2,444.6C338.8,442.8 334.9,444.9 332.6,446C331.3,446.6 331.4,448.6 333.1,448.2C333.8,448 338.3,446.7 338.1,448.5C337.8,450.7 336.1,453.1 334.9,454.9C332.5,458.7 329,462.3 327.2,466.4C326.5,467.7 326.9,468.9 328.4,469.4Z" style="fill-rule:nonzero;"/>
        <path d="M355.9,461.5C355.7,457.8 355.6,454.1 355.5,450.4C355.4,447.2 350.9,449 350.2,451.2C349.2,449.6 349.4,447.3 348.3,445.2C347.8,444.3 346.6,444.9 346.3,445.6C344,450.8 343.9,456.4 349.8,458.2C349.7,460 349.7,461.8 349.6,463.5C349.5,465.8 349,468.5 349.6,470.9C349.5,471.8 349.9,472.3 350.4,472.5C352.2,474 355.9,471.5 355.8,469C355.9,468.2 356.1,467.2 356.1,466.9C356.2,465.1 356,463.3 355.9,461.5ZM355.7,469.9C355.7,469.8 355.8,469.8 355.8,469.7C355.7,469.9 355.7,470 355.7,469.9Z" style="fill-rule:nonzero;"/>
        <path d="M374.9,470.4C378.3,469.9 381.1,463.4 376.3,463.9C374.8,464 375.1,464.4 375,462.9C374.9,460.9 375.8,458.8 376.3,456.8C377.1,452.9 377.3,447.9 372.8,446.3C371.3,445.8 368.1,448 369.9,449.5C373.5,452.5 371.8,458.6 370,462.4C368.1,466.5 369.8,471.1 374.9,470.4Z" style="fill-rule:nonzero;"/>
        <path d="M388.3,444.4C388.3,444.4 388.2,444.4 388.3,444.4C386.8,444.3 385.4,444.9 384,445.5C382.4,446.2 380.8,446.9 379.1,447.3C377.6,447.6 376.2,450.5 378.3,451C378.9,451.1 379.6,451.2 380.3,451.3C378.9,456.2 379.9,460.3 382.1,464.6C381.4,468.1 382.6,470.7 387,469.2C388.5,468.7 390.5,466.4 389.1,464.8C385.7,461.1 383.6,456.2 383.7,451.2C384.5,451.1 385.3,450.9 386.1,450.7C386.6,450.6 387.4,450.2 387.8,450C387.6,450.1 389.7,448.4 389.1,448.8C390.8,447.5 391.1,444.2 388.3,444.4Z" style="fill-rule:nonzero;"/>
        <path d="M407.9,467C411.1,467.3 414.4,468.2 417.4,469.3C421.3,470.7 425.1,464.1 421,463.4C418.3,462.9 415.5,462.4 412.7,462.1C414.8,458.2 418,454.9 419.6,450.8C420.9,447.4 419,444.2 415.4,446.1C414.9,446.3 414.7,446.8 414.8,447.3C415,448.3 415.9,449 415.5,450C414.9,451.7 413.7,453.2 412.7,454.6C410.6,457.7 408.6,460.8 406.7,464C406.1,465.2 406.5,466.9 407.9,467Z" style="fill-rule:nonzero;"/>
        <path d="M426.7,459.3C425.7,457.8 424.1,456.8 424.4,454.8C424.7,452.6 426.6,451.2 426.9,449C427,448.1 426.3,447.7 425.5,447.9C419.5,449.2 415.8,461 422.7,463.6C425.1,464.5 428.2,461.7 426.7,459.3Z" style="fill-rule:nonzero;"/>
        <path d="M477.6,441.9C477.4,440.6 475.7,441.4 475.2,442.4C473.7,444.2 473.9,447.2 473.7,449.4C473.5,451.5 472.3,455.7 473.9,457.4C475.2,458.8 477.7,457.9 478.6,456.4C479.1,455.6 479.7,454.7 479.6,453.7C479.5,452.3 479.4,450.8 479.2,449.4C479,447.5 479.3,443.3 477.6,441.9Z" style="fill-rule:nonzero;"/>
        <path d="M107.9,514.3C112.4,515.2 116.9,515.4 121.4,515.1C121.7,516.6 123.7,517 125.7,517.1C126.4,517.1 127,517 127.4,516.7C127.6,517.3 128,517.8 128.8,517.9C134.2,518.7 141.7,516.7 142.4,510.2C142.7,507 141.1,504.8 138.8,503.9C139.1,503.5 139.5,503.1 139.7,502.7C141,500.6 141.4,498.3 141.5,495.9C141.5,495.2 141.6,494.1 141.1,493.5C140.4,492.8 139.7,492.3 138.8,491.9C137.4,491.3 135.7,491.3 134.2,491.6C134.1,491.3 133.8,491.1 133.3,491.2C129.5,492.2 126,494.9 125.8,499.1C125.7,501.9 127.9,504.5 130.4,505.5C129.5,506.2 128.8,507.1 128.5,508.2L128.5,508.4C128.3,508.7 128.2,508.9 128.1,509.2C127.7,509.1 127.2,509.1 126.7,509.3C122.9,510.2 119,510.4 115.2,510.2C120,505.9 122.9,499.8 120,493.2C119.7,492.6 119.1,492.3 118.5,492.3C113.7,492.8 112.6,494.6 110.5,498.5C109.8,499.7 111.4,499.9 112.1,499.4C114,498 114.4,496.6 116.4,496.3C117.9,502.6 114.1,507.1 108.6,510C106.8,510.8 105.5,513.9 107.9,514.3ZM136.5,511.6C136.5,511.7 136.4,511.8 136.4,511.8C136.4,511.9 136.3,511.9 136.3,512C136.3,512 136.2,512.1 136.1,512.1C136.1,512.1 136,512.2 135.9,512.2C135.8,512.2 135.8,512.3 135.7,512.3C135.6,512.3 135.6,512.3 135.5,512.4C134.5,512.8 133.5,512.8 132.4,512.8C132.2,511.8 132.1,510.8 132.3,509.9C132.5,509.8 132.8,509.7 133,509.6C133.3,509.5 133.6,509.3 134,509.2C134,509.2 135,509 134.4,509.1C135.4,508.9 135.4,508.9 136.2,509.5C135.7,509.2 136.4,509.9 136.4,509.8C136.5,510.1 136.6,510.5 136.7,510.5L136.7,511.1C136.6,511.3 136.5,511.5 136.5,511.6ZM129.8,497C129.8,496.8 129.9,496.4 129.8,496.7C130,496.2 130,496.1 130.2,495.8C130.3,496.1 130.6,496.3 130.9,496.5C132.6,497.4 134.6,496.2 136.2,497.1C136.3,498.3 136.2,499.2 135.9,500.4C135.9,500.5 135.7,500.8 135.7,500.9C135.7,501 135.6,501 135.6,501.1C135.6,501.1 135.6,501.2 135.5,501.2L135.2,501.5C135.1,501.5 135,501.6 134.9,501.6L134.3,501.6C134.1,501.6 133.9,501.5 133.7,501.5C133.6,501.5 133.3,501.4 133.2,501.4C132.8,501.3 132.5,501.1 132.1,500.9C130.9,500.2 129.8,498.8 129.7,497.5C129.7,497.3 129.8,497.1 129.8,497Z" style="fill-rule:nonzero;"/>
        <path d="M162.7,512.6C162.1,513.7 162.5,515.6 164,515.7C168.5,516 173.7,516.6 178.1,515.1C180.7,514.2 182.7,508.3 178.6,509.1C175.7,509.7 172.7,509.9 169.7,510.1C172.2,506.3 175.3,502.8 176.7,498.4C178.7,492.2 173.7,490.5 168.4,491.8C167.3,492.1 166.1,494.4 167.8,494.7C169.1,494.9 172.2,495 172.3,496.7C172.4,498.3 170.9,500.3 170.1,501.6C167.8,505.4 165,508.8 162.7,512.6Z" style="fill-rule:nonzero;"/>
        <path d="M179.7,495.6C177.4,502.4 184.7,504.6 189.9,504.3C190.6,504.3 191.3,504 191.9,503.5C190.8,507.1 187.7,509.3 183.7,507.7C182.7,507.3 181.3,508.5 182,509.6C186.7,516.4 194.5,510.2 196.8,504.5C199.1,498.8 198,488.9 190.9,487.3C185.6,486.1 181.1,491.3 179.7,495.6ZM188.2,492.6C189.4,492.5 190.4,494.1 191,494.9C191.6,495.7 191.9,496.6 192.2,497.6L191.4,497.6C190,497.8 185,498.7 185.3,495.8C185.4,494.2 186.6,492.7 188.2,492.6Z" style="fill-rule:nonzero;"/>
        <path d="M231.2,499.6C228.9,504 229.4,509.2 233.5,512.3C237.7,515.5 242.7,511.8 244.5,507.8C246.9,502.4 246.4,495.5 241.4,491.9C239.1,490.3 235.9,490.4 233.4,491.2C231,491.9 227.2,494.3 226.7,497.1C226.7,496.7 226.6,496.4 226.5,496C225.4,492.7 221.9,491.1 218.6,491.6C217.3,491.8 215.7,493.6 217.2,494.7C218.6,495.7 220.2,496.1 221.3,497.5C222.8,499.2 220.6,501.9 219.6,503.2C219.1,503.8 218.6,505 219.1,505.7C219.6,506.5 220.3,507.2 220.9,508C220.1,508 219.4,508.2 218.6,508.6C217.4,509.2 216,511.1 216.7,512.5C218.5,516.1 223.2,514.1 225.6,512.4C227.8,510.8 228,509 227.3,506.6C227,505.4 225.9,504.5 224.9,503.6C225.8,502.1 226.6,500.4 226.8,498.7C227,499.8 227.7,500.3 228.8,500.3C231.7,500.3 233.6,496.6 236.6,497.8C239.7,499 240.2,502.9 239.7,505.8C239.4,507.8 239,509.3 237,507.7C234.7,505.9 233.7,502.8 234.2,500C234.4,497.7 231.8,498.4 231.2,499.6Z" style="fill-rule:nonzero;"/>
    </g>
    <g transform="matrix(1,0,0,1,-76.627,-129.729)">
        <g id="name" transform="matrix(160,0,0,160,266.325,470.88)">
            <path d="M0.46,-0.201C0.46,-0.173 0.449,-0.159 0.427,-0.159C0.422,-0.159 0.418,-0.159 0.415,-0.16C0.423,-0.137 0.429,-0.121 0.433,-0.11C0.44,-0.093 0.447,-0.076 0.456,-0.061C0.457,-0.059 0.458,-0.055 0.461,-0.05C0.464,-0.044 0.465,-0.04 0.465,-0.038C0.465,-0.026 0.46,-0.016 0.45,-0.009C0.439,-0.001 0.428,0.003 0.415,0.003C0.382,0.003 0.355,-0.027 0.335,-0.087C0.332,-0.094 0.326,-0.119 0.315,-0.161L0.284,-0.162L0.233,-0.162C0.186,-0.162 0.157,-0.156 0.146,-0.144C0.131,-0.129 0.124,-0.092 0.124,-0.034C0.124,-0.025 0.119,-0.017 0.11,-0.011C0.1,-0.004 0.09,-0.001 0.081,-0.001C0.064,-0.001 0.05,-0.007 0.04,-0.019C0.028,-0.03 0.023,-0.045 0.023,-0.062C0.023,-0.08 0.037,-0.137 0.066,-0.232C0.094,-0.327 0.122,-0.413 0.149,-0.488C0.182,-0.581 0.206,-0.634 0.221,-0.649C0.232,-0.66 0.246,-0.665 0.263,-0.665C0.283,-0.665 0.3,-0.656 0.314,-0.638C0.315,-0.637 0.324,-0.595 0.34,-0.513C0.355,-0.431 0.371,-0.347 0.388,-0.26C0.416,-0.255 0.435,-0.248 0.445,-0.238C0.455,-0.228 0.46,-0.216 0.46,-0.201ZM0.243,-0.458C0.23,-0.424 0.217,-0.391 0.206,-0.358C0.194,-0.325 0.183,-0.289 0.172,-0.251C0.191,-0.254 0.21,-0.256 0.229,-0.257C0.247,-0.258 0.266,-0.259 0.287,-0.259C0.284,-0.28 0.277,-0.312 0.266,-0.357C0.255,-0.402 0.248,-0.435 0.243,-0.458Z" style="fill-rule:nonzero;"/>
        </g>
        <g transform="matrix(160,0,0,160,344.885,470.88)">
            <path d="M0.432,-0.65C0.448,-0.65 0.462,-0.645 0.475,-0.635C0.487,-0.624 0.493,-0.611 0.493,-0.596C0.476,-0.559 0.458,-0.522 0.441,-0.485C0.399,-0.394 0.366,-0.317 0.343,-0.253C0.308,-0.156 0.29,-0.084 0.29,-0.035C0.29,-0.024 0.284,-0.016 0.271,-0.009C0.258,-0.002 0.245,0.001 0.233,0.001C0.206,0.001 0.175,-0.045 0.142,-0.136C0.116,-0.208 0.092,-0.298 0.069,-0.405C0.049,-0.5 0.039,-0.563 0.039,-0.594C0.039,-0.632 0.058,-0.651 0.096,-0.651C0.117,-0.651 0.131,-0.648 0.139,-0.642C0.146,-0.636 0.15,-0.618 0.15,-0.588C0.15,-0.56 0.159,-0.5 0.178,-0.408C0.195,-0.327 0.209,-0.265 0.221,-0.223C0.258,-0.344 0.298,-0.447 0.34,-0.533C0.378,-0.611 0.409,-0.65 0.432,-0.65Z" style="fill-rule:nonzero;"/>
        </g>
        <g transform="matrix(160,0,0,160,421.205,470.88)">
            <path d="M0.033,-0.599C0.033,-0.615 0.039,-0.628 0.051,-0.637C0.062,-0.646 0.076,-0.65 0.092,-0.65C0.105,-0.664 0.118,-0.671 0.133,-0.671C0.149,-0.671 0.164,-0.664 0.179,-0.651C0.24,-0.651 0.295,-0.639 0.344,-0.615C0.407,-0.584 0.438,-0.541 0.438,-0.484C0.438,-0.44 0.416,-0.401 0.371,-0.366C0.338,-0.34 0.295,-0.318 0.243,-0.301C0.274,-0.258 0.305,-0.216 0.336,-0.173C0.371,-0.129 0.41,-0.095 0.452,-0.07C0.453,-0.065 0.455,-0.06 0.457,-0.055C0.457,-0.04 0.45,-0.027 0.437,-0.016C0.423,-0.004 0.408,0.002 0.393,0.002C0.366,0.002 0.332,-0.019 0.291,-0.061C0.248,-0.106 0.2,-0.17 0.148,-0.254L0.146,-0.174C0.146,-0.13 0.152,-0.081 0.163,-0.028C0.159,-0.018 0.152,-0.01 0.143,-0.005C0.134,0 0.123,0.003 0.111,0.003C0.088,0.003 0.07,-0.006 0.059,-0.025C0.046,-0.046 0.039,-0.084 0.039,-0.137L0.039,-0.177C0.039,-0.244 0.042,-0.308 0.047,-0.37C0.051,-0.431 0.059,-0.493 0.07,-0.554C0.057,-0.559 0.049,-0.565 0.044,-0.57C0.037,-0.577 0.033,-0.587 0.033,-0.599ZM0.347,-0.491C0.347,-0.518 0.314,-0.537 0.247,-0.548C0.22,-0.553 0.197,-0.555 0.177,-0.555C0.174,-0.536 0.172,-0.515 0.169,-0.493C0.166,-0.47 0.161,-0.431 0.156,-0.376C0.198,-0.385 0.236,-0.398 0.27,-0.414C0.321,-0.438 0.347,-0.464 0.347,-0.491Z" style="fill-rule:nonzero;"/>
        </g>
    </g>
</svg>
