<?xml version="1.0" encoding="utf-8"?>
<!-- Generator: Adobe Illustrator 15.1.0, SVG Export Plug-In . SVG Version: 6.00 Build 0)  -->
<!DOCTYPE svg PUBLIC "-//W3C//DTD SVG 1.1//EN" "http://www.w3.org/Graphics/SVG/1.1/DTD/svg11.dtd">
<svg version="1.1" id="Layer_2" xmlns="http://www.w3.org/2000/svg" xmlns:xlink="http://www.w3.org/1999/xlink" x="0px" y="0px"
	 width="566.93px" height="566.93px" viewBox="0 0 566.93 566.93" enable-background="new 0 0 566.93 566.93" xml:space="preserve">
<g display="none">
	<path display="inline" fill="#231F20" d="M255.687,509.369c1.793-9.961,5.123-19.682,9.338-28.966
		c4.229-9.293,9.396-18.151,15.152-26.558c5.757-8.411,12.095-16.388,18.828-23.954c6.686-7.613,13.862-14.74,21.451-21.357
		c15.187-13.253,31.888-24.475,47.216-37.169c15.381-12.633,29.979-26.188,43.566-40.683c3.408-3.607,6.762-7.259,10.107-10.899
		l9.928-10.974c6.527-7.363,13.08-14.629,19.21-22.187c12.26-15.109,23.041-31.109,31.539-47.974
		c4.256-8.433,7.838-17.146,10.583-26.133c2.717-8.992,4.595-18.257,5.498-27.712c0.919-9.455,0.865-19.079,0.065-28.771
		c-0.845-9.689-2.516-19.41-4.6-29.191l1.502-0.55c4.735,8.902,8.493,18.398,11.152,28.296c2.719,9.885,4.256,20.201,4.517,30.632
		c0.271,10.431-0.784,20.966-3.086,31.224c-2.285,10.264-5.807,20.237-10.267,29.683c-4.487,9.44-9.888,18.363-15.943,26.705
		c-6.028,8.366-12.647,16.197-19.527,23.69c-6.894,7.482-14.021,14.678-21.568,21.373l-5.674,4.99l-5.788,4.841
		c-3.869,3.208-7.805,6.324-11.741,9.425c-7.861,6.214-15.783,12.3-23.475,18.631c-7.704,6.316-15.29,12.752-22.615,19.479
		c-14.705,13.395-27.903,28.451-41.319,42.863c-6.707,7.217-13.494,14.272-20.215,21.357c-6.67,7.132-13.182,14.373-19.39,21.856
		c-6.206,7.486-12.115,15.206-17.629,23.262c-5.525,8.057-10.57,16.468-15.308,25.302L255.687,509.369z"/>
</g>
<g display="none">
	<path display="inline" fill="#231F20" d="M108.069,86.973c5.143-6.671,11.269-12.622,18.095-17.766
		c6.84-5.117,14.458-9.371,22.633-12.313c4.083-1.471,8.289-2.646,12.573-3.431c4.287-0.761,8.645-1.129,12.983-1.067
		c8.698,0.078,17.206,1.861,25.328,4.239c4.067,1.207,8.064,2.557,12.002,4.043c3.939,1.478,7.851,3.027,11.664,4.802
		c7.667,3.45,15.185,7.313,22.418,11.737c7.242,4.407,14.125,9.458,20.45,15.162c6.311,5.728,12.288,11.824,17.579,18.78
		l-7.834,0.375c1.323-2.27,2.759-4.21,4.248-6.093c1.488-1.875,3.043-3.645,4.646-5.354c3.204-3.415,6.563-6.615,10.055-9.653
		c6.993-6.056,14.462-11.502,22.338-16.31c7.866-4.816,16.154-8.97,24.772-12.342c8.63-3.335,17.602-5.878,26.783-7.339
		c9.18-1.438,18.567-1.725,27.813-0.715c9.244,1.027,18.308,3.444,26.801,7.05c8.478,3.658,16.39,8.455,23.509,14.145
		c7.15,5.655,13.529,12.163,19.224,19.144l-0.666,0.605c-6.379-6.292-13.231-12.049-20.575-16.992
		c-7.358-4.911-15.201-9.023-23.447-11.905c-16.454-5.926-34.304-6.804-51.268-3.399c-8.504,1.638-16.819,4.285-24.823,7.681
		c-8.02,3.369-15.732,7.492-23.118,12.133c-7.369,4.665-14.427,9.856-21.001,15.554c-3.285,2.846-6.464,5.809-9.421,8.921
		c-1.474,1.558-2.903,3.143-4.24,4.755c-1.327,1.607-2.584,3.272-3.55,4.866l-3.755,6.2l-4.079-5.824
		c-4.535-6.475-9.881-12.656-15.575-18.43c-5.713-5.773-11.684-11.351-18.021-16.551c-6.347-5.177-13.153-9.888-20.501-13.602
		c-3.694-1.804-7.462-3.477-11.354-4.798c-3.894-1.312-7.881-2.336-11.917-3.008c-8.075-1.388-16.259-1.354-24.188-0.592
		c-3.971,0.396-7.899,0.969-11.787,1.741c-3.891,0.748-7.747,1.7-11.537,2.908c-7.583,2.408-14.933,5.71-22.001,9.704
		c-7.096,3.968-13.854,8.661-20.63,13.585L108.069,86.973z"/>
</g>
<g display="none">
	<path display="inline" fill="#231F20" d="M329.198,558.041c-6.792-21.498-18.792-40.429-32.333-58.02
		c-6.777-8.813-13.993-17.309-21.417-25.643c-7.458-8.306-15.073-16.498-22.679-24.738c-15.219-16.469-30.468-33.114-46.644-48.796
		c-16.167-15.697-32.946-30.741-49.635-45.981c-4.165-3.818-8.303-7.671-12.41-11.564l-6.13-5.877l-6.021-5.998
		c-7.978-8.054-15.655-16.432-23.03-25.107c-7.385-8.667-14.435-17.669-20.958-27.104c-6.546-9.415-12.446-19.354-17.424-29.809
		c-4.94-10.462-8.955-21.465-11.438-32.876c-1.243-5.701-2.133-11.487-2.615-17.31c-0.444-5.826-0.463-11.684-0.044-17.499
		c0.396-5.817,1.305-11.585,2.618-17.231c1.293-5.652,3.045-11.176,5.171-16.523c4.238-10.703,9.963-20.686,16.733-29.768
		l0.846,0.534c-5.26,9.957-9.684,20.263-12.739,30.888c-1.517,5.313-2.682,10.699-3.504,16.111
		c-0.814,5.417-1.188,10.872-1.255,16.31c-0.057,5.441,0.334,10.872,1.047,16.249c0.694,5.381,1.766,10.713,3.164,15.963
		c2.814,10.499,6.81,20.688,11.64,30.519c9.678,19.667,22.216,38.088,36.061,55.543c6.932,8.729,14.219,17.209,21.6,25.638
		c7.408,8.404,14.869,16.807,22.546,25.026c15.291,16.509,31.383,32.294,47.991,47.52c16.591,15.246,34.08,29.581,50.391,45.309
		c8.15,7.863,15.985,16.081,23.401,24.7c7.443,8.591,14.535,17.531,21.028,26.929c3.26,4.688,6.313,9.528,9.2,14.468
		c1.438,2.474,2.844,4.966,4.17,7.504c1.313,2.545,2.571,5.117,3.762,7.723c4.766,10.394,8.403,21.413,9.882,32.688L329.198,558.041
		z"/>
</g>
<g id="hand" display="none">
	<path display="inline" fill="#010101" d="M224.697,133.382c-3.071-13.049-19.278-5.939-27.53-3.202
		c-7.524,2.495-15.458,2.612-23.323,2.479c-5.065-0.087-10.119-0.343-15.186-0.224c-5.263,0.123-10.368,0.991-15.5,2.105
		c-3.515,0.762,0.87,7.682,3.574,7.608c2.516-0.068,3.702-1,5.114-2.921c0.943-1.284-1.188-4.349-2.539-4.513
		c-0.779-0.095-1.861-0.539-2.637-0.417c-1.191,0.188-2.306,0.305-3.513,0.241c1.383,2.473,2.767,4.945,4.149,7.417
		c8.286-3.294,17.805-2.873,26.564-2.855c7.533,0.015,15.11-0.284,22.384-2.452c4.879-1.455,9.486-3.694,14.38-5.124
		c3.753-1.097,11.027-2.819,13.179,1.759C224.022,133.732,224.904,134.26,224.697,133.382L224.697,133.382z"/>
	<path display="inline" fill="#010101" d="M223.179,130.579c1.534,7.053-6.632,12.002-11.8,14.599
		c-6.392,3.211-13.391,5.151-19.689,8.541c-2.419,1.301,1.487,6.255,3.129,6.618c2.137,0.474,3.64-0.426,4.355-2.517
		c0.592-1.729-0.942-4.269-2.677-4.76c-1.673-0.472-2.689,0.05-4.29,0.486c1.248,2.229,2.494,4.458,3.742,6.687
		c5.51-5.232,13.629-7.341,20.048-11.262c3.043-1.858,6.33-4.457,8.02-7.669c1.804-3.429,1.152-6.945,0.062-10.47
		C223.931,130.355,222.981,129.667,223.179,130.579L223.179,130.579z"/>
	<path display="inline" fill="#010101" d="M194.544,156.352c-1.183,10.659,11.543,16.494,19.001,21.057
		c7.097,4.342,13.525,10.47,19.514,16.184c2.986,2.85,6.336,5.993,8.294,9.675c0.423,0.797,0.497,1.115,0.158,1.911
		c-0.346,0.808-1.076,1.278-1.967,1.468c-2.867,0.611-6.119-0.739-8.739-1.727c-4.099-1.548-8-3.647-11.823-5.774
		c-5.355-2.978-10.572-6.219-15.677-9.606c-3.441-2.284-6.57-5.023-10.076-7.194c-1.011-0.626-2.732-0.602-2.789,0.961
		c-0.49,13.504,9.666,23.919,18.984,32.356c5.077,4.597,10.409,8.903,15.378,13.62c3.881,3.684,8.036,7.979,9.873,13.118
		c0.309-0.937,0.62-1.875,0.929-2.81c-6.347,0.424-12.74,0.477-18.889-1.351c-5.49-1.63-10.183-5.076-14.549-8.664
		c-4.256-3.498-8.435-7.06-12.732-10.509c-1.998-1.601-3.976-3.229-5.901-4.913c-0.67-0.584-1.246-1.192-1.835-1.858
		c-0.269-0.302-0.539-0.602-0.811-0.902c-0.359-0.432-0.302-0.343,0.169,0.261c0.714,1.102,0.947,2.354,0.705,3.755
		c0.749-1.97-0.464-4.248-1.749-5.715c-0.638-0.731-3.484-3.1-4.238-1.122c-1.921,5.04,5.116,9.854,8.325,12.545
		c4.82,4.042,9.908,7.731,14.67,11.845c5.524,4.773,11.384,9.222,18.265,11.827c6.934,2.628,14.623,2.494,21.894,1.874
		c1.325-0.113,1.259-1.918,0.929-2.809c-4.539-12.272-15.103-20.809-24.694-29.124c-7.557-6.549-18.881-14.92-18.364-26.054
		c-0.93,0.319-1.859,0.64-2.789,0.96c5.642,3.563,11.468,6.925,17.179,10.402c7.547,4.596,15.481,9.331,23.98,11.932
		c2.725,0.836,5.705,1.422,8.462,0.479c2.684-0.917,3.115-4.093,2.481-6.45c-1.029-3.825-4.01-7.263-6.606-10.12
		c-3.406-3.746-7.135-7.189-10.95-10.511c-4.57-3.979-9.269-8.156-14.412-11.389c-6.464-4.062-16.739-7.603-17.758-16.325
		C196.319,157.085,194.687,155.075,194.544,156.352L194.544,156.352z"/>
	<path display="inline" fill="#010101" d="M177.15,210.696c-3.205,1.089-1.804,5.551-1.124,7.899
		c1.516,5.223,4.102,10.173,6.615,14.967c2.845,5.43,5.899,10.75,8.847,16.124c1.856,3.386,4.533,7.917,5.343,10.834
		c0.454-0.8,0.909-1.598,1.364-2.396c-9.044-1.369-14.534-7.493-19.635-14.574c-5.485-7.615-10.704-15.716-18.857-20.751
		c-0.933-0.576-2.351-0.511-2.459,0.847c-1.064,13.372,7.783,24.918,10.84,37.438c0.327-0.995,0.657-1.986,0.984-2.976
		c-7.625,0.999-13.227-6.497-17.073-12.002c-5.472-7.832-9.705-16.441-14.181-24.854c-5.026-9.448-11.584-17.964-15.616-27.937
		c-1.593-3.94-2.279-7.821-2.862-11.997c-0.375-2.685-1.161-5.654-1.152-8.365c-0.077,0.525-0.15,1.051-0.224,1.577
		c0.003-0.008,0.007-0.015,0.011-0.023c-1.407-0.373-2.816-0.746-4.224-1.118c-2.193-2.566-1.944-3.905-1.413-2.122
		c0.518,1.738,1.726,3.503,3.322,4.415c1.527,0.873,3.086,0.09,2.752-1.8c-0.259-1.475-0.55-2.814-1.43-4.083
		c-0.926-1.334-3.38-4.082-4.974-2.107c-0.615,0.764-0.257,2.665-0.107,3.568c0.324,1.966,0.66,3.928,1.009,5.889
		c0.843,4.768,1.546,9.27,3.23,13.852c4.212,11.459,11.917,21.376,17.397,31.676c5.166,9.708,10.105,19.657,16.725,28.484
		c5.089,6.792,12.826,15.702,22.33,14.433c1.469-0.197,1.235-1.954,0.983-2.978c-1.422-5.785-3.997-11.26-6.253-16.751
		c-2.233-5.43-4.861-11.491-4.468-17.488c-0.821,0.281-1.638,0.565-2.459,0.848c7.788,4.681,12.455,13.477,17.856,20.493
		c5.583,7.254,12.735,13.923,22.301,14.523c1.198,0.076,1.033-1.81,0.813-2.456c-1.309-3.827-3.437-7.346-5.441-10.838
		c-2.774-4.828-5.667-9.592-8.384-14.457c-2.65-4.743-5.241-9.558-7.276-14.602c-0.916-2.273-2.573-6.486-1.383-8.919
		C179.292,212.123,178.121,210.367,177.15,210.696L177.15,210.696z"/>
	<path display="inline" fill="#010101" d="M72.209,135.029c9.135,7.512,18.704,14.38,28.164,21.469
		c4.786,3.586,9.466,7.333,13.86,11.396c2.063,1.907,4.019,3.927,5.88,6.032c1.695,1.917,3.254,4.364,5.295,5.907
		c0.341,0.257,0.835,0.313,0.772-0.266l0,0c-0.23-2.143-1.693-4.195-2.837-5.967c-1.669-2.583-3.667-4.954-5.716-7.241
		c-4.204-4.696-9.034-8.853-13.9-12.838c-9.777-8.007-20.926-14.833-29.86-23.815c-0.015,2.082-0.031,4.163-0.046,6.245
		c2.195,0.436,4.463-0.599,3.682-3.232"/>
	<path display="inline" fill="#010101" d="M217.624,130.776c-0.118-0.488,0.008,0.424,0.017,0.516
		c0.021,0.21,0.012,0.364,0.004,0.548c-0.017,0.387-0.196,0.736-0.467,1.107c-0.43,0.592-1.494,0.676-2.285,0.62
		c-0.016-0.001-1.177-0.377-0.93-0.26c-0.122-0.058-0.841-0.553-0.325-0.167c-0.109-0.085-0.215-0.174-0.319-0.269
		c0.797,0.698-0.368-0.552,0.397,0.474c-0.203-0.31-0.164-0.225,0.115,0.256c-0.148-0.32-0.13-0.248,0.056,0.215
		c-0.293-0.779-0.012,0.206-0.07-0.305c-0.141-1.229-0.2-2.355-0.791-3.498c-0.513-0.992-1.755-2.927-3.148-2.702
		c-0.051,0.009-0.103,0.017-0.152,0.024c-0.361,0.035-0.63,0.21-0.806,0.528c-0.95,2.748,0.606,6.02,2.487,8.05
		c1.433,1.546,3.298,2.569,5.436,2.56c1.435-0.007,2.915-0.782,3.522-2.116c0.942-2.067-0.356-4.398-1.643-5.951
		C218.188,129.762,217.394,129.825,217.624,130.776L217.624,130.776z"/>
	<path display="inline" fill="#010101" d="M238.579,208.09c2.692,0.989,2.566-2.177,1.886-3.888c-0.825-2.072-2.752-4-4.778-4.908
		c-1.811-0.812-3.914-1.093-5.305,0.594c-0.715,0.869-0.909,2.171-0.96,3.262c-0.119,2.51,0.422,4.961,1.955,6.984
		c0.522,0.689,1.741,1.533,2.438,0.645c0.728-0.926,0.022-3.12-0.041-4.323c-0.038-0.73-0.027,0.396-0.001-0.283
		c0.01-0.255,0.042-0.509,0.079-0.761c0.012-0.083,0.188-0.767,0.05-0.336c0.059-0.185,0.142-0.358,0.223-0.533
		c0.082-0.174,0.553-0.785,0.288-0.513c0.207-0.212,0.466-0.365,0.735-0.483c-0.352,0.154,0.296-0.046,0.476-0.06
		c0.15-0.011,0.3-0.004,0.449,0.005c-0.453-0.029,0.061,0.041,0.165,0.068c0.12,0.031,0.236,0.073,0.354,0.114
		c0.307,0.108-0.358-0.182,0.13,0.056c0.155,0.077,0.305,0.164,0.454,0.253c0.519,0.313-0.224-0.183,0.083,0.048
		c0.105,0.078,0.205,0.165,0.306,0.25c0.493,0.42-0.257-0.283,0.029,0.019c0.136,0.143,0.53,0.662,0.006-0.036
		c0.1,0.134,0.189,0.276,0.275,0.42c-0.632-1.055,0.262,0.862-0.083-0.124c0.178,0.507-0.014-0.23,0.035,0.097
		c0.065,0.433,0.035-0.067,0.017,0.189c-0.055,0.804,0.033,1.42,0.102,2.402C237.968,207.593,238.255,207.97,238.579,208.09z"/>
	<path display="inline" fill="#010101" d="M227.103,238.512c0.979-0.668,2.052-1.248,2.194-2.556
		c0.193-1.759-1.234-3.488-2.567-4.427c-0.629-0.447-1.36-0.735-2.101-0.94c-1.013-0.284-2.043-0.615-2.787,0.314
		c-0.639,0.797-1.042,1.719-1.202,2.729c-0.211,1.35,0.371,2.779,0.83,3.761c0.376,0.807,2.526,3.276,3.036,1.301
		c0.019-0.075,0.039-0.147,0.057-0.221c-0.123,0.22-0.245,0.441-0.367,0.663c0.608-0.451,0.575-1.269,0.639-1.962
		c0.083-0.923,0.447-1.604,0.857-2.417c-0.211,0.139-0.423,0.278-0.635,0.413c0.481-0.111,1.033-0.257,1.531-0.198
		c0.197,0.023,0.388,0.076,0.577,0.132c-0.107-0.063-0.075-0.048,0.096,0.046c-0.095-0.063-0.177-0.136-0.249-0.224
		c-0.067-0.07-0.445-0.917-0.318-0.457c0.056,0.205,0.054,0.405,0.059,0.627c0.017,0.781-0.148,1.64-0.45,2.363
		C226.169,237.789,226.682,238.8,227.103,238.512L227.103,238.512z"/>
	<path display="inline" fill="#010101" d="M192.512,254.166c0.536-0.537,0.831-0.716,0.833-1.578
		c0.004-0.872-0.216-1.648-0.548-2.45c-0.612-1.482-2.125-3.111-3.854-3.016c-1.25,0.069-2.105,1.218-2.688,2.189
		c-0.901,1.508-1.18,3.429-1.154,5.151c0.016,1.034,0.331,2.232,0.773,3.172c0.431,0.913,2.582,3.337,3.034,0.826
		c0.024-0.139,0.254-0.767,0.304-1.088c0.063-0.406,0.141-0.815,0.212-1.223c0.126-0.727,0.333-1.268,0.596-1.96
		c0.227-0.597,0.518-1.164,0.897-1.679c0.061-0.081,0.539-0.591,0.304-0.358c0.098-0.097,0.595-0.351,0.207-0.226
		c0.293-0.095-0.011-0.038-0.214-0.146c-0.201-0.117-0.38-0.26-0.535-0.432c-0.018-0.021-0.532-0.872-0.266-0.335
		c0.417,0.839,0.857,1.704,1.282,2.57C191.774,253.74,192.246,254.432,192.512,254.166L192.512,254.166z"/>
	<path display="inline" fill="#010101" d="M166.902,254.92c-1.208-2.196-2.56-4.163-4.99-5.087c-2.17-0.824-4.179,1.526-4.253,3.513
		c-0.055,1.463,0.191,3.197,1.4,4.217c1.4,1.18,2.467-0.506,3.075-1.544c0.801-1.367,2.131-2.079,3.141-0.559
		c0.282,0.425,0.808,1.043,1.39,0.993C167.379,256.391,167.112,255.296,166.902,254.92L166.902,254.92z"/>
	<path display="inline" fill="#010101" d="M116.947,117.529c4.897,5.843,10.302,11.292,16.647,15.559
		c5.381,3.62,13.402,7.291,20.01,5.507c1.956-0.528-0.482-3.795-1.582-4.122l0,0c-6.996-2.083-13.458-3.782-19.454-8.186
		c-5.8-4.26-10.583-9.677-15.065-15.263c-9.224-11.494-5.244-9.238-16.553-18.893c-2.188-0.494-2.76,1.417-1.344,4.248"/>
</g>
<g id="hand_1_" display="none">
	<path display="inline" fill="#010101" d="M298.981,324.849c4.195,13.116,20.223,4.529,28.453,1.062
		c7.506-3.162,15.624-3.921,23.689-4.416c5.194-0.319,10.392-0.466,15.57-0.994c5.382-0.552,10.541-1.85,15.707-3.406
		c3.538-1.063-1.511-7.797-4.275-7.504c-2.57,0.271-3.71,1.322-5.002,3.403c-0.861,1.39,1.568,4.359,2.965,4.416
		c0.807,0.035,1.95,0.403,2.735,0.217c1.204-0.288,2.337-0.498,3.578-0.53c-1.616-2.422-3.233-4.843-4.848-7.263
		c-8.221,4.04-18.005,4.378-26.977,5.064c-7.716,0.591-15.453,1.508-22.729,4.313c-4.88,1.884-9.419,4.548-14.317,6.407
		c-3.754,1.426-11.066,3.775-13.636-0.741C299.644,324.436,298.698,323.967,298.981,324.849L298.981,324.849z"/>
	<path display="inline" fill="#010101" d="M300.761,327.597c-2.14-7.1,5.824-12.826,10.91-15.903
		c6.287-3.804,13.3-6.355,19.476-10.333c2.374-1.528-2.025-6.287-3.736-6.525c-2.227-0.313-3.694,0.729-4.259,2.929
		c-0.468,1.818,1.309,4.297,3.127,4.66c1.751,0.348,2.75-0.27,4.354-0.845c-1.458-2.182-2.915-4.365-4.371-6.546
		c-5.224,5.801-13.369,8.615-19.627,13.147c-2.966,2.149-6.124,5.075-7.596,8.501c-1.571,3.658-0.622,7.207,0.779,10.729
		C300.009,327.888,301.037,328.514,300.761,327.597L300.761,327.597z"/>
	<path display="inline" fill="#010101" d="M328.011,298.894c0.354-11.013-13.151-15.963-21.155-20.036
		c-7.619-3.876-14.695-9.635-21.29-15.004c-3.288-2.678-6.974-5.628-9.274-9.241c-0.498-0.782-0.598-1.103-0.314-1.944
		c0.287-0.854,0.998-1.396,1.895-1.662c2.889-0.857,6.33,0.263,9.09,1.063c4.322,1.257,8.487,3.093,12.575,4.962
		c5.725,2.619,11.328,5.518,16.828,8.577c3.71,2.061,7.135,4.615,10.901,6.556c1.085,0.56,2.847,0.396,2.778-1.209
		c-0.587-13.87-11.827-23.721-22.05-31.61c-5.57-4.3-11.379-8.281-16.846-12.71c-4.272-3.462-8.874-7.524-11.17-12.641
		c-0.242,0.982-0.483,1.97-0.725,2.953c6.465-0.946,13.01-1.514,19.454-0.139c5.755,1.228,10.838,4.379,15.601,7.702
		c4.64,3.241,9.208,6.552,13.887,9.739c2.174,1.48,4.331,2.987,6.439,4.557c0.733,0.544,1.371,1.119,2.029,1.753
		c0.298,0.29,0.6,0.574,0.903,0.861c0.402,0.413,0.338,0.327-0.195-0.254c-0.817-1.071-1.159-2.334-1.022-3.789
		c-0.611,2.078,0.815,4.314,2.252,5.712c0.712,0.698,3.817,2.894,4.432,0.807c1.559-5.316-6.035-9.681-9.538-12.177
		c-5.263-3.752-10.771-7.119-15.979-10.951c-6.044-4.443-12.402-8.529-19.661-10.642c-7.314-2.134-15.176-1.376-22.573-0.155
		c-1.349,0.222-1.136,2.064-0.725,2.952c5.636,12.203,17.144,20.093,27.636,27.839c8.269,6.099,20.541,13.76,20.908,25.205
		c0.926-0.403,1.853-0.807,2.779-1.209c-6.065-3.194-12.305-6.168-18.433-9.271c-8.101-4.099-16.609-8.31-25.522-10.288
		c-2.859-0.637-5.958-0.998-8.705,0.19c-2.676,1.155-2.862,4.443-2.021,6.806c1.361,3.834,4.691,7.117,7.581,9.831
		c3.79,3.563,7.885,6.79,12.063,9.885c5.001,3.707,10.149,7.607,15.678,10.504c6.946,3.642,17.755,6.439,19.503,15.29
		C326.136,298.286,327.97,300.211,328.011,298.894L328.011,298.894z"/>
	<path display="inline" fill="#010101" d="M341.45,241.833c3.195-1.375,1.4-5.83,0.515-8.182
		c-1.975-5.229-5.021-10.089-7.982-14.797c-3.351-5.333-6.906-10.536-10.358-15.801c-2.175-3.319-5.281-7.744-6.345-10.666
		c-0.401,0.854-0.802,1.708-1.206,2.562c9.374,0.674,15.491,6.504,21.285,13.347c6.231,7.358,12.228,15.233,20.984,19.734
		c1.003,0.515,2.451,0.333,2.45-1.065c0.015-13.784-9.977-24.895-14.117-37.471c-0.254,1.043-0.513,2.086-0.768,3.126
		c7.729-1.635,14.07,5.589,18.452,10.92c6.236,7.577,11.266,16.054,16.526,24.31c5.909,9.272,13.311,17.468,18.244,27.355
		c1.95,3.908,2.965,7.827,3.899,12.056c0.6,2.721,1.646,5.698,1.854,8.475c0.033-0.543,0.068-1.088,0.101-1.633
		c-0.003,0.008-0.006,0.017-0.01,0.025c1.472,0.268,2.945,0.536,4.417,0.804c2.452,2.452,2.306,3.844,1.618,2.059
		c-0.671-1.738-2.049-3.448-3.759-4.252c-1.636-0.772-3.168,0.156-2.676,2.064c0.388,1.491,0.793,2.838,1.795,4.067
		c1.056,1.292,3.791,3.908,5.264,1.757c0.569-0.832,0.049-2.75-0.176-3.663c-0.491-1.987-0.993-3.97-1.51-5.952
		c-1.247-4.816-2.329-9.369-4.424-13.926c-5.236-11.397-13.928-20.933-20.37-31.04c-6.071-9.526-11.934-19.319-19.423-27.827
		c-5.76-6.546-14.402-15.05-24.033-12.986c-1.488,0.323-1.107,2.103-0.767,3.13c1.923,5.81,5.001,11.21,7.755,16.653
		c2.725,5.382,5.901,11.377,5.983,17.551c0.817-0.354,1.632-0.712,2.451-1.065c-8.355-4.167-13.843-12.803-19.94-19.553
		c-6.304-6.979-14.164-13.232-24.012-13.078c-1.231,0.021-0.912,1.937-0.633,2.582c1.648,3.814,4.111,7.247,6.444,10.66
		c3.23,4.724,6.577,9.37,9.752,14.133c3.096,4.644,6.139,9.367,8.63,14.371c1.121,2.254,3.157,6.435,2.135,9.022
		C339.142,240.543,340.482,242.249,341.45,241.833L341.45,241.833z"/>
	<path display="inline" fill="#010101" d="M455.027,310.879c-9.961-6.958-20.315-13.222-30.575-19.72
		c-5.189-3.288-10.287-6.75-15.114-10.555c-2.266-1.787-4.432-3.7-6.508-5.706c-1.892-1.825-3.684-4.207-5.898-5.623
		c-0.369-0.236-0.88-0.254-0.771,0.334l0,0c0.408,2.176,2.072,4.161,3.388,5.883c1.918,2.511,4.153,4.778,6.438,6.957
		c4.684,4.47,9.964,8.339,15.27,12.028c10.659,7.413,22.629,13.507,32.502,21.986c-0.152-2.132-0.304-4.266-0.455-6.398
		c-2.283-0.27-4.524,0.973-3.512,3.605"/>
	<path display="inline" fill="#010101" d="M306.434,326.948c0.16,0.49-0.041-0.434-0.06-0.527c-0.037-0.213-0.04-0.372-0.047-0.559
		c-0.014-0.399,0.142-0.771,0.39-1.172c0.392-0.643,1.476-0.813,2.288-0.819c0.017-0.001,1.236,0.29,0.975,0.19
		c0.13,0.051,0.906,0.498,0.346,0.146c0.12,0.079,0.235,0.162,0.348,0.251c-0.871-0.653,0.423,0.535-0.444-0.453
		c0.232,0.3,0.186,0.218-0.137-0.253c0.176,0.315,0.151,0.243-0.076-0.216c0.364,0.774-0.002-0.212,0.097,0.308
		c0.243,1.245,0.396,2.395,1.093,3.519c0.604,0.975,2.031,2.854,3.443,2.513c0.05-0.013,0.103-0.025,0.154-0.038
		c0.366-0.064,0.627-0.266,0.781-0.605c0.751-2.891-1.104-6.116-3.194-8.044c-1.592-1.467-3.585-2.365-5.774-2.183
		c-1.471,0.122-2.922,1.035-3.435,2.451c-0.802,2.191,0.717,4.475,2.159,5.962C305.939,328.031,306.746,327.903,306.434,326.948
		L306.434,326.948z"/>
	<path display="inline" fill="#010101" d="M278.744,249.449c-2.837-0.794-2.454,2.438-1.62,4.135
		c1.012,2.056,3.144,3.875,5.291,4.641c1.919,0.686,4.095,0.805,5.387-1.036c0.661-0.947,0.755-2.298,0.719-3.417
		c-0.079-2.581-0.832-5.048-2.564-6.996c-0.589-0.666-1.907-1.43-2.55-0.465c-0.671,1.008,0.229,3.198,0.39,4.425
		c0.098,0.744-0.004-0.409,0.024,0.288c0.012,0.264-0.002,0.525-0.019,0.788c-0.005,0.086-0.13,0.799-0.023,0.347
		c-0.046,0.194-0.116,0.379-0.187,0.563c-0.07,0.185-0.501,0.849-0.252,0.549c-0.198,0.236-0.449,0.411-0.717,0.554
		c0.349-0.186-0.299,0.071-0.481,0.1c-0.154,0.023-0.307,0.029-0.462,0.03c0.468-0.007-0.064-0.037-0.173-0.056
		c-0.125-0.022-0.247-0.055-0.372-0.087c-0.323-0.086,0.382,0.157-0.138-0.047c-0.166-0.066-0.327-0.143-0.486-0.223
		c-0.558-0.277,0.245,0.169-0.088-0.042c-0.114-0.072-0.224-0.152-0.334-0.231c-0.538-0.39,0.286,0.268-0.028-0.016
		c-0.154-0.137-0.598-0.635-0.006,0.037c-0.113-0.13-0.217-0.269-0.315-0.407c0.734,1.027-0.338-0.863,0.097,0.119
		c-0.223-0.506,0.033,0.233-0.045-0.097c-0.101-0.438-0.029,0.072-0.031-0.193c-0.008-0.827-0.148-1.451-0.298-2.451
		C279.409,249.909,279.086,249.548,278.744,249.449z"/>
	<path display="inline" fill="#010101" d="M288.047,217.367c-0.949,0.764-2.002,1.443-2.041,2.793
		c-0.055,1.817,1.545,3.476,2.986,4.328c0.681,0.408,1.451,0.644,2.226,0.794c1.061,0.21,2.143,0.466,2.829-0.547
		c0.591-0.866,0.93-1.842,1.011-2.891c0.109-1.399-0.605-2.817-1.151-3.786c-0.451-0.795-2.853-3.151-3.215-1.089
		c-0.015,0.079-0.027,0.155-0.041,0.233c0.109-0.237,0.216-0.473,0.325-0.708c-0.588,0.509-0.489,1.343-0.498,2.058
		c-0.012,0.953-0.331,1.681-0.685,2.546c0.205-0.16,0.411-0.318,0.615-0.475c-0.48,0.151-1.037,0.346-1.552,0.326
		c-0.203-0.008-0.402-0.046-0.601-0.087c0.115,0.054,0.08,0.04-0.102-0.042c0.103,0.059,0.19,0.126,0.272,0.212
		c0.074,0.063,0.529,0.901,0.364,0.44c-0.074-0.207-0.09-0.411-0.112-0.637c-0.08-0.798,0.02-1.692,0.271-2.457
		C289.062,218.032,288.454,217.037,288.047,217.367L288.047,217.367z"/>
	<path display="inline" fill="#010101" d="M322.214,198.549c-0.507,0.592-0.793,0.799-0.726,1.684
		c0.067,0.892,0.355,1.668,0.758,2.465c0.749,1.467,2.428,3.016,4.191,2.779c1.274-0.172,2.057-1.418,2.576-2.46
		c0.801-1.616,0.932-3.607,0.768-5.368c-0.101-1.06-0.52-2.259-1.049-3.188c-0.515-0.899-2.913-3.21-3.174-0.601
		c-0.014,0.145-0.2,0.807-0.224,1.139c-0.032,0.421-0.078,0.848-0.119,1.271c-0.069,0.753-0.238,1.324-0.452,2.055
		c-0.186,0.631-0.437,1.233-0.782,1.792c-0.057,0.087-0.507,0.648-0.283,0.392c-0.094,0.108-0.582,0.407-0.193,0.247
		c-0.293,0.122,0.013,0.039,0.23,0.132c0.216,0.104,0.41,0.237,0.582,0.4c0.021,0.018,0.616,0.85,0.301,0.322
		c-0.496-0.829-1.017-1.677-1.521-2.531C323.005,198.923,322.467,198.254,322.214,198.549L322.214,198.549z"/>
	<path display="inline" fill="#010101" d="M348.386,195.715c1.413,2.149,2.956,4.057,5.52,4.806c2.288,0.669,4.154-1.897,4.07-3.941
		c-0.06-1.503-0.453-3.257-1.772-4.206c-1.527-1.093-2.486,0.718-3.025,1.829c-0.708,1.465-2.014,2.302-3.171,0.825
		c-0.323-0.409-0.911-1.001-1.503-0.902C347.777,194.245,348.14,195.344,348.386,195.715L348.386,195.715z"/>
	<path display="inline" fill="#010101" d="M410.615,332.406c-5.484-5.591-11.46-10.735-18.302-14.594
		c-5.806-3.275-14.314-6.388-20.94-4.029c-1.96,0.699,0.801,3.848,1.955,4.095l0,0c7.33,1.57,14.086,2.789,20.582,6.815
		c6.283,3.897,11.619,9.061,16.658,14.42c10.373,11.029,6.115,9.039,18.477,18.017c2.281,0.328,2.713-1.674,1.036-4.46"/>
</g>
<g>
	<path fill="#231F20" d="M322.161,372.143c-1.558-5.211-3.641-10.19-6.101-14.977c-2.439-4.794-5.285-9.365-8.34-13.786
		c-6.068-8.879-13.154-17.036-20.471-24.972c-14.806-15.748-30.963-30.315-47.136-45.001c-16.202-14.662-32.52-29.395-48.034-45.229
		c-7.744-7.927-15.299-16.123-22.362-24.837c-3.528-4.357-6.911-8.859-10.154-13.488c-3.202-4.657-6.26-9.448-9.042-14.432
		c-5.572-9.948-10.078-20.703-12.678-32.066c-2.604-11.342-2.985-23.331-0.799-34.754c2.151-11.448,6.793-22.158,12.739-31.758
		c0.745-1.203,1.515-2.386,2.301-3.557l0.247-0.363l0.155-0.205l0.311-0.409l0.641-0.836l1.298-1.656
		c1.75-2.188,3.543-4.342,5.4-6.444c3.732-4.188,7.722-8.168,12.041-11.789c4.333-3.597,8.95-6.904,13.952-9.582
		c4.969-2.723,10.291-4.856,15.817-6.232c5.519-1.414,11.241-2.001,16.93-1.883c5.693,0.129,11.343,1.022,16.825,2.452
		c5.482,1.447,10.784,3.491,15.856,5.96c5.083,2.451,9.975,5.282,14.625,8.463c4.646,3.188,9.087,6.672,13.311,10.433
		c4.211,3.791,8.198,7.807,11.83,12.435l-7.478,0.358c0.997-1.793,2.058-3.285,3.159-4.742c1.102-1.445,2.243-2.813,3.418-4.14
		c2.35-2.649,4.824-5.13,7.398-7.5c5.151-4.731,10.698-9.013,16.617-12.817c5.93-3.782,12.265-7.024,18.957-9.588
		c6.686-2.579,13.793-4.334,21.109-5.064c7.308-0.728,14.846-0.395,22.14,1.241c7.299,1.606,14.313,4.441,20.698,8.163
		c6.397,3.721,12.176,8.294,17.353,13.328c5.188,5.035,9.756,10.558,13.882,16.304l0.186,0.259l0.251,0.437
		c3.545,6.176,6.676,12.653,9.243,19.402c2.58,6.742,4.571,13.771,5.803,20.965c2.559,14.379,1.982,29.353-1.315,43.461
		c-1.652,7.06-3.924,13.922-6.672,20.524c-2.778,6.592-6.028,12.922-9.605,19.002c-7.157,12.171-15.728,23.236-24.825,33.626
		c-18.311,20.737-39.161,38.466-60.311,55.313c-5.285,4.223-10.645,8.333-15.95,12.483l-7.945,6.225
		c-2.646,2.071-5.292,4.14-7.905,6.238c-5.221,4.201-10.365,8.476-15.227,13.003c-2.422,2.271-4.737,4.642-6.865,7.143
		c-2.101,2.51-4.037,5.199-5.144,8.211l-1.543-0.422c0.733-3.502,2.468-6.617,4.317-9.532c1.872-2.924,4.025-5.617,6.228-8.244
		c4.422-5.246,9.216-10.097,14.055-14.859c4.834-4.771,9.777-9.396,14.733-13.983l14.822-13.743
		c19.712-18.249,38.979-36.839,55.529-57.295c8.281-10.198,15.731-20.953,21.953-32.197c3.104-5.624,5.856-11.394,8.157-17.287
		c2.339-5.877,4.216-11.886,5.54-17.973c2.709-12.163,3.119-24.642,1.128-36.845c-1.018-6.096-2.576-12.129-4.662-18.029
		c-2.089-5.9-4.701-11.662-7.736-17.246l0.437,0.695c-7.083-10.351-15.548-19.64-25.708-25.96
		c-5.063-3.156-10.521-5.545-16.236-6.987c-5.714-1.437-11.671-1.996-17.676-1.621c-12.015,0.768-24.094,4.862-35.164,10.989
		c-5.559,3.035-10.901,6.58-15.89,10.548c-2.492,1.985-4.897,4.078-7.146,6.277c-1.123,1.098-2.205,2.225-3.214,3.369
		c-1.002,1.137-1.954,2.323-2.662,3.404l-3.803,5.811l-3.675-5.452c-2.835-4.207-6.315-8.253-9.988-12.041
		c-3.686-3.801-7.667-7.346-11.89-10.568c-4.22-3.225-8.655-6.182-13.329-8.689c-4.683-2.485-9.573-4.566-14.626-6.091
		c-10.082-3.106-20.936-3.628-31.131-1.06c-5.093,1.279-9.998,3.298-14.594,5.885c-4.577,2.624-8.881,5.76-12.807,9.336
		c-3.943,3.558-7.561,7.492-10.871,11.677c-1.665,2.085-3.254,4.235-4.76,6.444l-1.121,1.659l-0.551,0.834l-0.281,0.429l-0.14,0.215
		c-0.046,0.068,0.139-0.206,0.032-0.039l-0.062,0.108c-0.667,1.147-1.319,2.301-1.943,3.468c-5.033,9.305-8.438,19.364-9.564,29.588
		c-1.185,10.225-0.017,20.524,2.901,30.345c2.874,9.854,7.53,19.212,12.971,28.15c2.733,4.469,5.672,8.846,8.802,13.113
		c3.093,4.294,6.383,8.474,9.761,12.604c6.761,8.258,13.952,16.263,21.394,24.094c14.887,15.672,30.697,30.703,46.291,46.119
		c15.581,15.416,31.154,31.112,45.023,48.47c6.965,8.636,13.375,17.802,18.821,27.549c2.693,4.889,5.074,9.962,7.051,15.183
		c1.953,5.225,3.452,10.642,4.256,16.121L322.161,372.143z"/>
</g>
<g>
	<path fill="#231F20" d="M249.041,412.479c9.442,1.309,18.833,2.92,28.192,4.817c4.673,0.977,9.337,2.025,13.987,3.209
		c4.652,1.188,9.285,2.49,13.883,4.234l-0.742-0.18c2.407,0.142,4.824-0.153,6.787-1.007c0.974-0.422,1.814-0.986,2.396-1.629
		c0.587-0.645,0.909-1.33,1.011-2.066c0.229-1.461-0.553-3.408-1.929-5.193c-1.373-1.796-3.233-3.442-5.251-4.918
		c-4.071-2.954-8.781-5.305-13.619-7.337c-4.86-2.009-9.875-3.771-14.981-5.292c-10.213-3.063-20.74-5.26-31.319-7.173
		c-10.587-1.902-21.277-3.368-32.007-4.554l1.114-0.01c-18.978,2.724-37.926,5.508-56.715,9.03
		c-9.382,1.803-18.739,3.745-27.939,6.225c-9.188,2.47-18.287,5.413-26.748,9.548c-4.184,2.11-8.24,4.556-11.53,7.665
		c-1.615,1.555-3.053,3.308-3.807,5.22c-0.371,0.943-0.564,1.937-0.484,2.793c0.014,0.192,0.069,0.447,0.087,0.501l0.308,0.845
		l0.619,1.696c3.31,9.041,6.657,18.068,10.068,27.072c3.394,9.01,6.775,18.024,10.26,27.001l5.188,13.479l5.271,13.448l-2.867-1.176
		c16.033-7.793,32.01-15.707,48.009-23.571l23.999-11.8l24.056-11.677l1.158-0.562l1.393,0.236
		c10.92,1.858,21.904,3.592,32.862,5.282c10.963,1.668,21.942,3.246,32.896,4.534c5.47,0.63,10.953,1.209,16.326,1.549
		c2.655,0.156,5.394,0.269,7.675,0.117c2.553-0.198,5.338-0.515,8.033-0.843c10.885-1.35,21.79-3.152,32.647-5.078
		c10.856-1.962,21.666-4.203,32.4-6.727c10.753-2.451,21.418-5.245,32-8.285c21.119-6.176,41.958-13.468,61.546-23.222l-1.297,1.017
		c1.694-1.826,2.8-3.951,2.839-5.493c0.033-0.774-0.124-1.417-0.536-2.122c-0.41-0.698-1.131-1.428-2.072-2.081
		c-1.894-1.32-4.518-2.279-7.246-2.94c-2.748-0.666-5.664-1.062-8.618-1.302c-5.922-0.498-12.016-0.376-18.102,0.023
		c-6.095,0.404-12.198,1.138-18.296,2.002c-12.201,1.74-24.343,4.222-36.436,6.961c-12.085,2.785-24.126,5.864-36.129,9.129
		l-0.303-0.953c11.702-4.258,23.518-8.241,35.491-11.764c11.964-3.556,24.083-6.664,36.401-9.105
		c6.161-1.22,12.384-2.2,18.676-2.913c6.296-0.689,12.662-1.112,19.16-0.857c3.248,0.15,6.528,0.469,9.854,1.15
		c3.314,0.708,6.718,1.687,10.043,3.785c1.644,1.06,3.288,2.452,4.561,4.38c1.282,1.901,2.043,4.369,2.015,6.708
		c-0.006,2.348-0.643,4.486-1.506,6.317c-0.871,1.841-1.975,3.426-3.173,4.849l-0.497,0.59l-0.8,0.427
		c-9.987,5.334-20.302,9.965-30.765,14.149c-10.463,4.192-21.111,7.858-31.854,11.162c-10.738,3.326-21.602,6.193-32.512,8.819
		c-10.929,2.552-21.92,4.804-32.962,6.778c-11.044,1.993-22.134,3.621-33.35,4.852c-2.831,0.3-5.578,0.58-8.575,0.771
		c-3.276,0.155-6.105-0.04-8.999-0.24c-5.726-0.438-11.301-1.129-16.868-1.879c-11.12-1.516-22.139-3.308-33.14-5.188
		c-11.004-1.878-21.951-3.913-32.921-6.038l2.55-0.325l-24.423,10.886l-24.48,10.764c-16.32,7.178-32.662,14.306-48.948,21.555
		l-2.118,0.942l-0.75-2.118l-4.821-13.616l-4.903-13.585c-3.243-9.066-6.589-18.095-9.922-27.127
		c-3.316-9.039-6.696-18.054-10.114-27.056l-0.643-1.687l-0.323-0.847c-0.181-0.515-0.23-0.856-0.283-1.262
		c-0.167-1.547,0.133-2.979,0.606-4.279c0.979-2.604,2.609-4.711,4.38-6.549c3.592-3.657,7.816-6.349,12.103-8.766
		c4.296-2.421,8.749-4.484,13.262-6.357c4.516-1.868,9.083-3.582,13.695-5.147c9.227-3.119,18.578-5.806,28.006-8.112
		c18.851-4.652,37.958-7.991,57.135-10.457l0.586-0.075l0.529,0.065c10.877,1.333,21.735,2.955,32.538,5.029
		c10.8,2.084,21.527,4.722,32.083,8.149c5.27,1.737,10.509,3.66,15.603,6.042c5.087,2.384,10.096,5.097,14.706,8.719
		c2.29,1.829,4.498,3.883,6.34,6.487c0.91,1.306,1.731,2.762,2.277,4.441c0.538,1.669,0.78,3.615,0.377,5.561
		c-0.385,1.946-1.451,3.739-2.786,5.014c-1.337,1.293-2.887,2.146-4.436,2.724c-3.119,1.138-6.274,1.27-9.268,0.948l-0.436-0.047
		l-0.307-0.133c-4.215-1.83-8.665-3.384-13.139-4.85c-4.483-1.452-9.026-2.783-13.592-4.046c-4.56-1.289-9.146-2.509-13.748-3.676
		c-4.599-1.177-9.208-2.347-13.834-3.422L249.041,412.479z"/>
</g>
</svg>
