<?xml version="1.0" encoding="utf-8"?>
<!-- Generator: Adobe Illustrator 15.1.0, SVG Export Plug-In . SVG Version: 6.00 Build 0)  -->
<!DOCTYPE svg PUBLIC "-//W3C//DTD SVG 1.1//EN" "http://www.w3.org/Graphics/SVG/1.1/DTD/svg11.dtd">
<svg version="1.1" xmlns="http://www.w3.org/2000/svg" xmlns:xlink="http://www.w3.org/1999/xlink" x="0px" y="0px" width="1024px"
	 height="1024px" viewBox="0 0 1024 1024" enable-background="new 0 0 1024 1024" xml:space="preserve">
<g id="Layer_4" display="none">
	<g id="boy" display="inline">
		<path fill="#010101" d="M760.407,327.15c5.361,0.905,0.53,7.652-2.746,8.12c-18.974,2.713-37.835,6.261-54.365,16.65
			c-38.528,24.212-58.638,68.758-70.863,111.236c-12.485,43.397-18.87,91.409-13.415,136.529
			c3.174,26.242,12.047,52.406,29.17,72.763c15.807,18.79,37.114,32.021,60.777,38.028c27.649,7.023,57.447,6.515,85.14-0.161
			c28.467-6.862,62.989-19.474,79.864-45.466c17.098-26.33,12.272-63.102,10.855-92.85c-1.765-36.968-8.772-73.778-19.04-109.258
			c-4.003-13.842-8.009-27.943-14.498-40.841c-5.848-11.622-12.838-22.63-20.651-33c-8.478-11.255-17.793-22.121-28.603-31.16
			c-7.423-6.206-18.377-12.77-26.641-14.656c-13.462-3.072-2.026-20.345,7.156-21.169c23.848-2.138,43.988,17.632,58.48,34.542
			c15.386,17.953,29.741,38.822,38.457,61.02c13.078,33.306,20.827,70.047,25.942,105.411c2.558,17.702,3.793,35.36,4.496,53.224
			c0.674,17.004,1.34,34.103-0.706,51.047c-2.047,16.946-7.152,33.625-16.885,47.732c-9.811,14.218-23.698,25.657-38.419,34.369
			c-28.806,17.047-62.337,26.566-95.571,28.698c-53.188,3.413-109.671-13.902-138.89-62.062
			c-26.516-43.705-27.018-96.449-21.119-145.913c5.849-49.06,19.655-99.12,47.599-140.222
			C670.709,353.323,714.024,319.338,760.407,327.15L760.407,327.15z"/>
		<path fill="#010101" d="M656.743,566.297c-6.524-0.115-4.078-6.983-0.53-9.532c-1.888,1.357,2.501-1.588,1.41-1.025
			c0.621-0.32,1.241-0.634,1.863-0.953c1.426-0.727,2.848-1.457,4.275-2.181c2.243-1.137,4.454-2.345,6.71-3.452
			c4.039-1.979,10.482-2.048,10.802,3.989c0.283,5.396-4.914,10.274-9.984,10.735c-3.122,0.286-3.779,0.485-6.607,1.086
			C662.07,565.518,659.417,566.344,656.743,566.297L656.743,566.297z"/>
		<path fill="#010101" d="M676.588,560.32c9.923,8.841,19.269,16.103,32.657,18.918c15.69,3.3,31.916,2.815,47.726,0.577
			c16.408-2.326,32.646-6.432,48.144-12.382c6.146-2.357,12.182-4.965,17.944-8.181c5.919-3.302,7.942-4.648,11.864-8.335
			c-1.298,3.768-2.597,7.534-3.894,11.302c-0.674-2.29-0.602-5.504-1.854-7.563c-5.151-8.493,5.862-20.535,14.798-16.065
			c3.764,1.885,8.778,4.298,10.002,8.762c1.243,4.525-0.913,8.538-4.081,11.589c-2.565,1.856-2.565,1.856,0,0
			c-1.163,1.039-2.477,1.805-3.95,2.298c-1.111,0.265-1.593,0.583-3.08,0.703c-4.641,0.382-8.198-3.729-11.957-5.896
			c5.309-4.715,10.622-9.433,15.933-14.149c1.722,3.273,1.657,6.317,2.453,9.792c0.99,4.322-0.508,8.41-3.894,11.304
			c-11.587,9.914-26.43,16.227-40.684,21.031c-17.391,5.863-35.621,9.879-53.899,11.439c-16.855,1.439-35.015,1.519-51.203-4.112
			c-12.767-4.438-27.228-12.742-28.321-27.956C671.112,560.863,674.573,558.523,676.588,560.32z"/>
		<path fill="#010101" d="M613.836,491.524c0.047,1.865-3.815,4.516-4.395,1.966c-3.609-15.921-28.239-11.292-37.536-4.822
			c-8.8,6.122-11.348,17.347-8.813,27.491c2.584,10.348,8.247,21.117,17.23,27.209c6.775,4.6,14.822,6.688,20.121,0.834
			c1.381,3.502,2.758,7.002,4.137,10.502c-3.625,0.414-10.713-0.061-9.527-5.658c1.167-5.503,7.818-8.525,12.656-9.112
			c6.027-0.733,7.609,6.616,4.135,10.502c-10.721,12.006-26.724,16.564-40.638,6.833c-12.627-8.829-21.623-23.745-23.048-39.307
			c-1.606-17.543,7.313-34.59,23.342-42.168c8.557-4.048,19.507-6.68,28.805-3.504c3.958,1.351,8.249,3.017,10.55,6.789
			C613.565,483.52,613.709,486.508,613.836,491.524L613.836,491.524z"/>
		<path fill="#010101" d="M890.913,487.08c-0.654,1.739-4.341,2.324-3.717-0.173c2.396-9.514,6.428-16.494,14.676-22.227
			c8.128-5.645,18.762-8.723,28.622-7.15c18.501,2.95,37.014,21.173,38.708,40.396c1.612,18.296-9.02,35.172-23.065,45.811
			c-7.831,5.936-17.071,10.604-26.705,12.599c-7.07,1.463-22.652,5.255-26.632-2.879c-1.552-3.171,1.611-6.81,3.99-8.34
			c6.456-4.146,15.988-1.297,23.388-3.13c6.605-1.638,12.825-4.174,18.432-8.116c9.071-6.377,17.061-17.163,16.744-28.824
			c-0.406-14.988-12.342-28.688-25.847-34.055C915.723,465.512,896.419,472.402,890.913,487.08L890.913,487.08z"/>
		<path fill="#010101" d="M914.427,501.792c-1.44,0.087-2.382-1.005-2.109-2.438c1.019-5.37,8.682-9.557,13.792-8.516
			c4.631,0.946,7.76,4.807,8.901,9.32c1.402,5.549,1.25,11.195-0.819,16.565c-2.158,5.598-8.082,12.773-14.569,12.738
			c-8.577-0.05-5.931-9.729-0.718-12.941c1.198-0.742,2.494-1.057,3.753-1.6c-0.42,0.18-1.964,1.5-0.834,0.331
			c-1.604,1.655,0.799-1.65,0.046-0.151c0.323-0.645,0.646-1.292,0.893-1.976c0.595-1.646,0.972-5.195,0.599-7.752
			c-0.276-1.886-1.163-4.486-2.347-5.098C919.289,499.387,916.614,501.656,914.427,501.792L914.427,501.792z"/>
		<path fill="#010101" d="M588.937,504.009c-3.406,2.511-7.618,4.167-8.241,8.958c-0.561,4.32,2.195,6.941,5.772,8.651
			c7.731,3.694-3.416,17.695-9.626,12.855c-7.133-5.563-10.313-14.401-6.282-23.047c2.911-6.244,10.383-14.407,18.043-12.768
			C591.25,499.227,590.698,502.71,588.937,504.009z"/>
		<path fill="#010101" d="M714.789,467.787c1.65-3.476,9.698-8.381,11.65-2.399c4.433,13.576-3.64,30.036,5.171,42.759
			c-6.116,2.772-12.23,5.548-18.344,8.321c3.92-11.997,9.345-31.371-1.964-40.886c2.294,0.828,4.59,1.655,6.885,2.481
			c0.477-0.136,0.952-0.272,1.426-0.41c3.336-5.422,6.672-10.842,10.005-16.262c1.927,8.843,2.791,20.209,0.281,28.971
			c-1.476,5.152-5.132,9.396-10.286,11.062c-4.006,1.295-9.508,0.522-11.087-4.093c-2.891-8.451-1.99-20.269-0.292-28.969
			c1.251-6.396,9.007-13.277,15.788-11.516c-4.153-1.078,3.429,0.879,3.625,0.986c1.038,0.786,2.036,1.618,2.999,2.494
			c1.893,1.979,3.49,4.246,4.701,6.725c2.402,4.904,3.604,10.642,3.709,16.112c0.227,11.769-2.148,23.447-6.87,34.199
			c-3.019,6.879-14.278,12.162-18.66,3.846c-4.463-8.468-4.892-18.116-4.16-27.496C710.029,485.237,711.115,475.529,714.789,467.787
			L714.789,467.787z"/>
		<path fill="#010101" d="M768.255,464.572c2.226-1.695,6.796-2.693,7.116,1.408c0.607,7.779-1.893,15.805-1.666,23.715
			c0.209,7.349,0.489,17.136,4.655,23.521c-6.168,2.048-12.339,4.095-18.507,6.142c3.051-7.516,5.379-15.342,6.313-23.445
			c0.709-6.196,1.28-15.229-3.92-19.665c6.815-2.262,13.629-4.521,20.441-6.784c-1.107,2.587-1.904,5.265-3.296,7.704
			c-4.241,7.442-18.521,14.435-20.806,1.707c-0.829-4.627,1.05-9.255,2.987-13.394c2.735-5.833,14.966-14.696,20.442-6.785
			c12.599,18.208,7.146,45.908-3.046,64.269c-3.242,5.845-15.852,14.19-19.743,4.069c-4.108-10.69-4.087-22.615-2.619-33.844
			C757.859,483.59,760.094,470.786,768.255,464.572L768.255,464.572z"/>
		<path fill="#010101" d="M664.235,714.677c1.391-2.64,7.651-4.385,6.563,0.309c-9.32,40.172-6.98,84.105,4.639,123.465
			c-2.818-1.594-5.637-3.184-8.459-4.778c36.118-2.601,71.465,8.982,107.504,8.5c18.203-0.246,36.315-1.985,54.39-4.11
			c9.034-1.065,18.063-2.194,27.102-3.211c9.165-1.03,18.532-2.604,27.753-1.917c-5.237,6.942-10.475,13.888-15.709,20.83
			c-2.011-2.863-2.977-5.356-3.041-8.861c-0.114-6.335,5.339-10.951,11.093-11.927c4.149-0.705,6.315-0.538,10.286,0.882
			c5.02,1.801,4.598,9.095,2.839,12.881c-1.844,3.963-5.949,8.211-10.336,9.175c-9.183,2.022-18.715,2.319-28.056,3.359
			c-9.035,1.006-18.057,2.115-27.091,3.147c-18.046,2.066-36.183,3.948-54.364,4.008c-36.067,0.117-71.004-10.359-107.024-10.754
			c-4.583-0.051-8.702-2.149-8.982-7.33C650.97,804.437,642.862,755.248,664.235,714.677L664.235,714.677z"/>
		<path fill="#010101" d="M861.1,699.427c0.451-4.694,7.716-7.865,10.321-3.367c4.156,7.18,6.147,20.12,8.16,29.419
			c3.491,16.134,6.847,32.303,9.786,48.55c2.725,15.078,5.378,30.262,6.695,45.547c0.999,11.578,3.084,28.086-9.139,34.582
			c-5.66,3.008-14.197,2.592-14.83-5.474c-0.093-1.217,0.07-2.749,0.404-4.005c0.338-1.275,0.814-2.51,1.261-3.75
			c-0.715,2.217-0.896,2.732-0.542,1.551c0.305-1.121,1.075-6.434,0.881-3.502c0.365-5.488,0.279-10.999,0.043-16.49
			c-0.669-15.509-2.29-30.979-4.125-46.386c-1.875-15.745-3.955-31.466-6.239-47.155C862.386,719.389,860.169,709.078,861.1,699.427
			L861.1,699.427z"/>
		<path fill="#010101" d="M671.27,847.999c1.9-3.669,10.209-5.976,8.925,0.421c-3.892,19.361-1.838,37.435-0.456,56.888
			c-2.193-1.788-4.39-3.579-6.582-5.369c30.471-5.236,60.783,3.375,91.295,0.731c-3.598,3.871-7.196,7.741-10.793,11.605
			c-1.402-11.975,2.123-23.896,10.228-32.824c2.968-3.269,8.38-7.209,12.97-4.356c12.301,7.636,27.489,16.754,31.51,31.83
			c-3.161-1.168-6.325-2.336-9.489-3.502c13.789-2.875,27.445-2.121,41.39-0.913c11.845,1.024,24.54,2.801,36.154-0.616
			c-2.985,3.211-5.967,6.42-8.954,9.631c0.703-8.288,0.773-21.598-0.513-31.614c-0.629-4.892-1.472-9.913-3.633-14.393
			c-1.411-2.933-4.214-5.653-5.602-6.524c-6.471-4.061-0.683-13.888,5.156-15.165c29.899-6.538,24.994,48.738,23.449,66.149
			c-0.383,4.31-5.099,8.514-8.954,9.635c-25.646,7.438-51.877-4.025-77.563,1.223c-3.276,0.673-8.36,0.802-9.488-3.501
			c-3.215-12.278-15.734-19.59-25.634-25.988c3.702-0.779,7.404-1.559,11.108-2.338c-4.369,4.683-4.869,11.415-4.236,17.466
			c0.601,5.737-5.527,11.203-10.794,11.605c-30.457,2.314-60.635-6.743-91.021-2.021c-3.05,0.474-6.779-1.958-6.58-5.369
			C664.348,890.431,661.658,866.575,671.27,847.999L671.27,847.999z"/>
		<path fill="#010101" d="M724.057,734.691c0.328-1.037,3.115-3.305,3.587-1.17c2.485,11.286,9.734,15.411,20.211,18.131
			c8.559,2.22,20.573,3.688,29.081,0.671c2.832-1.003-0.156,0.73,0.546-0.165c0.617-0.743,1.19-1.522,1.716-2.337
			c1.105-1.805,2.069-3.983,2.627-6.032c1.102-4.026,0.395-8.514,1.281-11.742c2.596-9.45,16.51-11.42,16.301,0.396
			c-0.176,9.976-5.485,22.105-12.965,28.659c-7.965,6.976-19.014,6.989-29.004,6.131c-9.707-0.84-19.34-3.161-27.373-9
			C721.912,752.302,721.162,743.804,724.057,734.691L724.057,734.691z"/>
		<path fill="#010101" d="M665.39,719.075c-6.918,5.906-14.945,10.197-21.461,16.712c-6.492,6.493-11.488,13.908-15.535,22.154
			c-0.155-2.478-0.309-4.954-0.462-7.433c5.928,5.369,15.061,7.224,21.827,11.396c7.199,4.441,13.137,13.538,4.017,20.197
			c-2.289,1.673-7.082,4.048-9.34,0.766c-7.142-10.363-13.774-20.003-22.653-28.483c-1.872-1.782-1.569-5.361-0.466-7.432
			c5.651-10.598,6.04-12.019,15.177-19.74c7.446-6.291,17.4-14.129,27.587-14.309C667.852,712.837,667.717,717.094,665.39,719.075z"
			/>
		<path fill="#010101" d="M870.19,690.41c4.146-3.917,9.574,5.693,11.958,8c5.847,5.664,12.463,10.463,19.108,15.114
			c13.415,9.395,27.921,18.47,38.596,31.167c5.16,6.135-3.232,13.821-8.937,14.692c-8.612,1.312-16.548,3.873-24.248,8.045
			c-3.87,2.099-7.675,4.319-11.405,6.667c-3.79,2.386-7.116,5.094-11.775,5.033c-4.734-0.063-7.646-4.163-5.262-8.708
			c4.791-9.139,17.873-15.042,26.911-19.299c9.228-4.345,19.031-7.957,29.302-8.384c-3.307,4.345-6.618,8.687-9.925,13.031
			c-7.729-14.043-23.916-23.652-35.781-33.766C883.211,717.299,860.771,699.293,870.19,690.41L870.19,690.41z"/>
		<path fill="#010101" d="M700.698,908.253c1.157-1.817,5.716-2.178,4.722,0.903c-7.534,23.327-8.229,48.448,2.263,70.926
			c2.427,5.199-4.707,10.648-9.256,9.981c-3.551-0.518-7.472-0.76-10.922,0.482c-1.336,0.478-2.331,2.017-1.749,0.376
			c0.46-0.549,0.722-0.151,0.788,1.192c3.479,4.488,7.492,7.298,13.16,7.917c4.975,0.547,21.357-0.057,21.517-7.858
			c0.256-12.46-5.491-24.075-6.413-36.394c-1.114-14.939-1.084-30.843,4.566-44.875c4.332,0.816,8.666,1.636,12.999,2.451
			c-0.931,1.98-2.104,3.589-3.313,5.39c-2.064,3.07-8.496,5.469-10.326,0.847c-1.221-3.083-0.745-5.748,0.641-8.688
			c3.534-7.514,17.085-7.565,12.999,2.451c-8.029,19.697-2.394,41.752,1.472,61.605c1.415,7.263,2.569,15.111-0.882,21.986
			c-3.349,6.674-10.268,11.32-17.069,13.765c-13.976,5.019-33.066,4.604-41.528-9.805c-4.234-7.206-0.808-14.881,5.578-19.356
			c7.032-4.932,16.19-5.502,24.398-4.186c-3.086,3.326-6.174,6.655-9.258,9.981C689.321,961.661,685.829,931.636,700.698,908.253
			L700.698,908.253z"/>
		<path fill="#010101" d="M826.6,916.479c0.38-1.757,4.541-4.691,5.277-1.717c2.883,11.629,2.672,24.385,3.739,36.309
			c1.133,12.697,3.431,24.881,5.835,37.348c0.804,4.176-4.425,8.562-8.121,8.731c-1.432,0.065-8.271,0.156-7.028,2.744
			c1.883,3.936,6.311,5.869,10.422,6.086c8.354,0.436,17.446-2.784,24.418-7.289c-1.523,3.184-3.045,6.366-4.566,9.549
			c-4.262-19.397-9.896-37.979-10.069-58.014c-0.052-5.929-0.101-11.86-0.15-17.787c-0.032-3.663-0.7-8.217,0.347-11.782
			c1.148-3.898,4.359-7.245,8.548-7.59c3.528-0.289,6.667,2.721,5.577,6.431c-0.172,0.576-0.34,1.157-0.51,1.733
			c-1.27,4.311-10.382,11.451-12.936,4.217c-0.164-0.469-0.327-0.937-0.495-1.404c-2.568-7.287,10.891-16.048,13.753-7.933
			c1.232,3.494,0.564,7.889,0.532,11.519c-0.047,5.639-0.095,11.274-0.143,16.911c-0.165,19.376,4.959,37.168,8.972,55.951
			c0.873,4.078-1.172,7.375-4.57,9.548c-12.49,7.988-33.366,14.536-46.438,4.764c-6.233-4.657-8.663-12.394-4.535-19.358
			c4.553-7.679,13.091-11.125,21.646-11.396c-2.708,2.912-5.414,5.82-8.121,8.733c-1.645-12.583-2.261-25.63-2.829-38.325
			C824.6,942.064,823.974,928.664,826.6,916.479L826.6,916.479z"/>
		<path fill="#010101" d="M647.713,727.104c-3.137,2.528-9.295-1.335-12.266-2.846c-5.419-2.76-10.534-5.993-15.597-9.341
			c-5.438-3.594-10.856-7.209-16.373-10.684c-4.22-2.662-10.317-7.917-15.305-8.832c-6.371-1.169-11.661-13.492-2.553-13.662
			c6.631-0.129,11.509,5.455,11.688,11.797c0.19,6.702-9.802,2.087-12.281,0.763c1.732-3.438,3.465-6.867,5.196-10.302
			c4.212,3.798,10.026,6.6,14.668,9.923c5.365,3.841,10.646,7.782,16.067,11.543c5.1,3.532,10.243,7.029,15.531,10.279
			c3.651,2.247,9.17,4.152,11.383,7.95C648.515,724.791,648.835,726.198,647.713,727.104z"/>
		<path fill="#010101" d="M570.468,675.615c-0.467-1.844,1.092,2.228-0.478-1.155c-0.283-0.546-0.489-1.127-0.611-1.73
			c-0.23-0.941-0.436-1.892-0.701-2.827c-0.602-2.122-1.235-4.24-1.972-6.318c-0.422-1.193-0.853-2.386-1.386-3.532
			c-0.188-0.42-0.383-0.833-0.593-1.239c0.368,0.666,0.356,0.676-0.032,0.025c-0.49-0.684-0.391-0.593,0.295,0.262
			c-0.565-0.521-1.064-1.095-1.505-1.727c-1.094-1.975,2.836,2.937,4.589,2.087c-3.557,1.725-7.973-2.259-7.479-5.993
			c0.501-3.805,3.105-6.61,7.251-5.236c3.976,1.314,6.273,5.724,7.425,9.465c1.967,6.405,4.024,14.45,0.434,20.492
			C574.101,680.885,570.88,677.259,570.468,675.615z"/>
		<path fill="#010101" d="M563.087,684.573c-2.439-3.437-5.277-6.854-8.537-9.566c-3.183-2.65-5.397-1.239-9.108-1.766
			c-3.291-0.466-6.051-4.13-5.037-7.406c2.461-7.941,12.13-4.302,16.718-0.563c5.453,4.442,8.828,10.589,11.074,17.105
			C569.564,686.351,565.354,687.763,563.087,684.573z"/>
		<path fill="#010101" d="M557.83,696.45c-4.197-0.075-8.847-1.693-13.066-2.32c-3.686-0.545-8.037,0.266-11.503-0.915
			c-3.272-1.111-6.149-5.955-3.871-9.091c2.898-3.987,10.538-2.418,14.567-1.06c5.03,1.692,11.074,3.795,14.928,7.539
			C560.601,692.269,561.256,696.51,557.83,696.45z"/>
		<path fill="#010101" d="M562.158,700.533c2.223-1.437,5.331,1.722,4.939,3.956c-1.669,9.496-13.616,14.846-22.352,10.975
			c-3.466-1.535-7.155-8.218-1.884-9.998c3.616-1.221,7.409-0.425,11.104-1.278C557.146,703.455,559.445,702.284,562.158,700.533
			L562.158,700.533z"/>
		<path fill="#010101" d="M628.028,733.061c2.213,1.774,0.92,5.779-2.073,4.112c-7.956-4.433-15.484-9.554-23.294-14.229
			c-6.836-4.093-16.188-10.28-24.53-9.966c-6.635,0.249-10.66-12.688-2.428-12.996c1.482-0.054,3.023,0.447,4.409,0.897
			c3.828,1.244,8.999,11.658,2.293,12.169c-2.048,0.156-3.784,0.181-5.776-0.396c-6.555-1.897-7.935-14.812,0.584-12.346
			C597.084,706.068,612.328,720.465,628.028,733.061L628.028,733.061z"/>
		<path fill="#010101" d="M904.006,776.681c-0.728-1.338,1.688-3.036,2.739-1.981c7.307,7.324,14.263,14.729,20.762,22.809
			c3.501,4.354,6.979,8.731,10.237,13.275c2.372,3.309,5.142,9.602,8.883,11.451c1.363,0.674,2.211,2.254,2.254,3.75
			c0.301,10.485,0.463,20.975,0.605,31.466c-4.859,1.577-9.719,3.153-14.574,4.728c0.413-5.73,1.741-11.015,6.073-14.972
			c1.465-1.336,3.827-2.184,5.696-1.197c5.224,2.759,3.134,8.365,2.655,13.22c-0.645,6.561-14.541,11.738-14.425,2.949
			c0.108-8.062,0.161-16.124,0.391-24.181c0.119-4.375,0.879-9.025-1.272-13.037c-2.069-3.852-4.279-7.624-6.624-11.314
			C919.553,801.291,911.021,789.567,904.006,776.681L904.006,776.681z"/>
		<path fill="#010101" d="M961.533,840.189c2.065,5.935,5.431,11.433,9.486,16.192c3.674,4.308,8.343,6.997,12.193,10.931
			c4.171,4.263-3.307,11.419-7.811,10.359c-6.309-1.481-11.772-8.771-14.965-14.082c-3.978-6.617-6.684-13.622-4.997-21.418
			C955.912,840.001,960.385,836.893,961.533,840.189z"/>
		<path fill="#010101" d="M975.781,836.111c5.412,3.207,10.334,7.892,14.74,12.369c2.432,2.472,4.915,4.899,7.329,7.39
			c2.612,2.689,3.646,3.89,3.061,7.726c-0.369,2.431-2.889,4.358-5.191,4.607c-6.479,0.702-10.46-7.333-13.882-12.013
			c-3.621-4.951-7.416-9.67-11.237-14.457C968.402,838.98,972.934,834.427,975.781,836.111z"/>
		<path fill="#010101" d="M979.279,824.491c4.148,0.421,8.988,2.558,12.265,5.154c3.563,2.821,8.02,6.061,8.245,11.015
			c0.194,4.193-4.702,7.84-8.526,6.204c-3.609-1.538-6.043-6.252-8.809-9.017c-2.525-2.524-5.451-4.475-8.073-6.857
			C971.388,828.268,976.734,824.236,979.279,824.491z"/>
		<path fill="#010101" d="M909.663,760.823c-1.075-2.557,2.886-5.316,4.895-3.532c12.365,10.979,24.851,21.882,36.93,33.189
			c5.985,5.605,12.237,11.306,17.105,17.969c4.056,5.543,7.136,10.25,2.644,16.683c-2.146,3.077-8.402,5.454-10.325,0.848
			c0.616,1.476-1.038-1.448-1.324-2.037c-0.423-0.862-0.149-2.293-0.499-3.02c-1.258-2.619-2.91-4.993-4.666-7.298
			c-5.119-6.721-10.789-13-16.535-19.177c-6.015-6.464-12.193-12.774-18.02-19.419C916.015,770.635,911.963,766.292,909.663,760.823
			L909.663,760.823z"/>
		<path fill="#010101" d="M739.635,339.01c-3.406,4.056-8.076,6.678-11.495,10.749c-2.928,3.485-5.691,7.279-7.612,11.443
			c-4.184,9.064-3.985,18.398-5.669,28.036c-1.189,6.822-12.462,13.272-16.448,5.363c-6.337-12.564,0.361-29.591,7.237-40.556
			c5.821-9.282,18.972-23.135,30.911-22.845C740.876,331.305,742.427,335.687,739.635,339.01z"/>
		<path fill="#010101" d="M756.914,344.389c6.829-1.767,5.893,5.957,1.804,8.806c-6.628,4.616-10.653,14.684-12.372,22.285
			c-1.999,8.844-1.21,19.116-5.584,27.184c-2.327,4.293-8.852,8.847-13.196,4.378c-8.378-8.608-1.987-27.731,2.035-37.135
			C734.921,357.464,743.768,347.787,756.914,344.389L756.914,344.389z"/>
		<path fill="#010101" d="M779.369,363.744c-1.146,10.127,0.729,20.211-0.577,30.211c-1.1,8.471-17.985,15.597-18.912,3.866
			c-0.901-11.379,4.438-24.058,8.24-34.608C770.114,357.678,780.232,356.118,779.369,363.744z"/>
	</g>
</g>
<g id="Writting">
	<g>
		<path d="M21.116,63.713c1.906-1.789,3.813-2.93,5.718-3.924c1.906-0.967,3.813-1.673,5.719-2.197
			c1.906-0.518,3.813-0.837,5.718-1.002c1.906-0.189,3.813-0.096,5.719,0.509c3.812,1.177,7.625,4.072,11.437,4.618
			c1.906,0.319,3.812,0.226,5.718-0.127c1.906-0.349,3.813-1.081,5.718-1.904c1.906-0.83,3.813-1.717,5.719-2.315
			c0.953-0.309,1.906-0.559,2.859-0.75l2.859-0.514c3.813-0.691,7.625-1.414,11.437-1.112c3.813,0.289,7.625,1.156,11.437,2.507
			c1.906,0.675,3.813,1.484,5.719,2.485c1.906,1.011,3.812,2.154,5.718,3.727v1.8c-1.906,1.573-3.813,2.716-5.718,3.727
			c-1.906,1.001-3.813,1.81-5.719,2.485c-3.812,1.351-7.625,2.218-11.437,2.507c-3.812,0.302-7.625-0.421-11.437-1.112l-2.859-0.514
			c-0.953-0.191-1.906-0.442-2.859-0.75c-1.906-0.599-3.813-1.485-5.719-2.315c-1.906-0.823-3.812-1.556-5.718-1.904
			c-1.906-0.353-3.813-0.446-5.718-0.127c-3.813,0.546-7.625,3.441-11.437,4.618c-1.906,0.605-3.813,0.698-5.719,0.509
			c-1.906-0.166-3.812-0.484-5.718-1.002c-1.906-0.524-3.813-1.23-5.719-2.197c-1.906-0.994-3.812-2.135-5.718-3.924V63.713z"/>
	</g>
	<g>
		<path d="M160.5,64.167c4.014-1.987,8.028-3.255,12.042-4.36c4.014-1.074,8.028-1.859,12.042-2.441
			c4.014-0.576,8.028-0.93,12.042-1.114c4.014-0.21,8.028-0.107,12.042,0.566c8.027,1.308,16.055,4.525,24.083,5.131
			c4.014,0.354,8.028,0.251,12.042-0.141c4.014-0.39,8.028-1.2,12.042-2.116c4.014-0.922,8.028-1.907,12.042-2.572
			c4.014-0.704,8.028-1.023,12.042-1.405c4.014-0.378,8.028-0.767,12.042-1.037c4.014-0.251,8.028-0.355,12.042-0.199
			c4.014,0.148,8.028,0.478,12.042,0.967c4.014,0.452,8.028,1.066,12.042,1.818c4.014,0.75,8.028,1.648,12.042,2.761
			c4.014,1.131,8.028,2.379,12.042,4.141v2c-4.014,1.762-8.028,3.01-12.042,4.141c-4.014,1.112-8.028,2.011-12.042,2.761
			c-4.014,0.752-8.028,1.366-12.042,1.818c-4.014,0.489-8.028,0.819-12.042,0.967c-4.014,0.157-8.027,0.052-12.042-0.199
			c-4.014-0.27-8.028-0.659-12.042-1.037c-4.014-0.381-8.028-0.701-12.042-1.405c-4.014-0.665-8.028-1.65-12.042-2.572
			c-4.014-0.917-8.028-1.727-12.042-2.116c-4.014-0.392-8.028-0.495-12.042-0.141c-8.028,0.606-16.056,3.824-24.083,5.131
			c-4.014,0.673-8.028,0.776-12.042,0.566c-4.014-0.184-8.028-0.538-12.042-1.114c-4.014-0.582-8.028-1.367-12.042-2.441
			c-4.014-1.104-8.028-2.373-12.042-4.36V64.167z"/>
	</g>
	<g>
		<path d="M367.599,63.713c1.906-1.789,3.813-2.93,5.718-3.924c1.906-0.967,3.813-1.673,5.719-2.197
			c1.906-0.518,3.813-0.837,5.718-1.002c1.906-0.189,3.813-0.096,5.719,0.509c3.812,1.177,7.625,4.072,11.437,4.618
			c1.906,0.319,3.812,0.226,5.718-0.127c1.906-0.349,3.813-1.081,5.718-1.904c1.906-0.83,3.813-1.717,5.719-2.315
			c0.953-0.309,1.906-0.559,2.859-0.75l2.859-0.514c3.813-0.691,7.625-1.414,11.437-1.112c3.813,0.289,7.625,1.156,11.437,2.507
			c1.906,0.675,3.813,1.484,5.719,2.485c1.906,1.011,3.812,2.154,5.718,3.727v1.8c-1.906,1.573-3.813,2.716-5.718,3.727
			c-1.906,1.001-3.813,1.81-5.719,2.485c-3.812,1.351-7.625,2.218-11.437,2.507c-3.812,0.302-7.625-0.421-11.437-1.112l-2.859-0.514
			c-0.953-0.191-1.906-0.442-2.859-0.75c-1.906-0.599-3.813-1.485-5.719-2.315c-1.906-0.823-3.812-1.556-5.718-1.904
			c-1.906-0.353-3.813-0.446-5.718-0.127c-3.813,0.546-7.625,3.441-11.437,4.618c-1.906,0.605-3.813,0.698-5.719,0.509
			c-1.906-0.166-3.812-0.484-5.718-1.002c-1.906-0.524-3.813-1.23-5.719-2.197c-1.906-0.994-3.812-2.135-5.718-3.924V63.713z"/>
	</g>
	<g>
		<path d="M506.983,64.167c4.014-1.987,8.028-3.255,12.042-4.36c4.015-1.074,8.028-1.859,12.042-2.441
			c4.014-0.576,8.027-0.93,12.041-1.114c4.015-0.21,8.028-0.107,12.043,0.566c8.027,1.308,16.055,4.525,24.082,5.131
			c4.015,0.354,8.028,0.251,12.043-0.141c4.014-0.39,8.027-1.2,12.041-2.116c4.014-0.922,8.027-1.907,12.041-2.572
			c4.015-0.704,8.028-1.023,12.043-1.405c4.014-0.378,8.027-0.767,12.041-1.037c4.014-0.251,8.027-0.355,12.041-0.199
			c4.015,0.148,8.028,0.478,12.043,0.967c4.014,0.452,8.027,1.066,12.041,1.818c4.014,0.75,8.027,1.648,12.042,2.761
			c4.014,1.131,8.028,2.379,12.042,4.141v2c-4.014,1.762-8.028,3.01-12.042,4.141c-4.015,1.112-8.028,2.011-12.042,2.761
			c-4.014,0.752-8.027,1.366-12.041,1.818c-4.015,0.489-8.028,0.819-12.043,0.967c-4.014,0.157-8.027,0.052-12.041-0.199
			c-4.014-0.27-8.027-0.659-12.041-1.037c-4.015-0.381-8.028-0.701-12.043-1.405c-4.014-0.665-8.027-1.65-12.041-2.572
			c-4.014-0.917-8.027-1.727-12.041-2.116c-4.015-0.392-8.028-0.495-12.043-0.141c-8.027,0.606-16.055,3.824-24.082,5.131
			c-4.015,0.673-8.028,0.776-12.043,0.566c-4.014-0.184-8.027-0.538-12.041-1.114c-4.014-0.582-8.027-1.367-12.042-2.441
			c-4.014-1.104-8.028-2.373-12.042-4.36V64.167z"/>
	</g>
	<g>
		<path d="M25.616,120.71c1.906-1.789,3.813-2.93,5.718-3.924c1.906-0.967,3.813-1.673,5.719-2.197
			c1.906-0.518,3.813-0.837,5.718-1.002c1.906-0.189,3.813-0.096,5.719,0.509c3.812,1.177,7.625,4.072,11.437,4.618
			c1.906,0.319,3.812,0.226,5.718-0.127c1.906-0.349,3.813-1.081,5.718-1.904c1.906-0.83,3.813-1.717,5.719-2.315
			c0.953-0.309,1.906-0.559,2.859-0.75l2.859-0.514c3.813-0.691,7.625-1.414,11.437-1.112c3.813,0.289,7.625,1.156,11.437,2.507
			c1.906,0.675,3.813,1.484,5.719,2.485c1.906,1.011,3.812,2.154,5.718,3.727v1.8c-1.906,1.573-3.813,2.716-5.718,3.727
			c-1.906,1.001-3.813,1.81-5.719,2.485c-3.812,1.351-7.625,2.218-11.437,2.507c-3.812,0.302-7.625-0.421-11.437-1.112l-2.859-0.514
			c-0.953-0.191-1.906-0.442-2.859-0.75c-1.906-0.599-3.813-1.485-5.719-2.315c-1.906-0.823-3.812-1.556-5.718-1.904
			c-1.906-0.353-3.813-0.446-5.718-0.127c-3.813,0.546-7.625,3.441-11.437,4.618c-1.906,0.605-3.813,0.698-5.719,0.509
			c-1.906-0.166-3.812-0.484-5.718-1.002c-1.906-0.524-3.813-1.23-5.719-2.197c-1.906-0.994-3.812-2.135-5.718-3.924V120.71z"/>
	</g>
	<g>
		<path d="M90.004,121.164c4.014-1.987,8.028-3.255,12.042-4.36c4.015-1.074,8.028-1.859,12.042-2.441
			c4.014-0.576,8.027-0.93,12.041-1.114c4.015-0.21,8.028-0.107,12.043,0.566c8.027,1.308,16.055,4.525,24.082,5.131
			c4.015,0.354,8.028,0.251,12.043-0.141c4.014-0.39,8.027-1.2,12.041-2.116c4.014-0.922,8.027-1.907,12.041-2.572
			c4.015-0.704,8.028-1.023,12.043-1.405c4.014-0.378,8.027-0.767,12.041-1.037c4.014-0.251,8.027-0.355,12.041-0.199
			c4.015,0.148,8.028,0.478,12.043,0.967c4.014,0.452,8.027,1.066,12.041,1.818c4.014,0.75,8.027,1.648,12.042,2.761
			c4.014,1.131,8.028,2.379,12.042,4.141v2c-4.014,1.762-8.028,3.01-12.042,4.141c-4.015,1.112-8.028,2.011-12.042,2.761
			c-4.014,0.752-8.027,1.366-12.041,1.818c-4.015,0.489-8.028,0.819-12.043,0.967c-4.014,0.157-8.027,0.052-12.041-0.199
			c-4.014-0.27-8.027-0.659-12.041-1.037c-4.015-0.381-8.028-0.701-12.043-1.405c-4.014-0.665-8.027-1.65-12.041-2.572
			c-4.014-0.917-8.027-1.727-12.041-2.116c-4.015-0.392-8.028-0.495-12.043-0.141c-8.027,0.606-16.055,3.824-24.082,5.131
			c-4.015,0.673-8.028,0.776-12.043,0.566c-4.014-0.184-8.027-0.538-12.041-1.114c-4.014-0.582-8.027-1.367-12.042-2.441
			c-4.014-1.104-8.028-2.373-12.042-4.36V121.164z"/>
	</g>
	<g>
		<path d="M292.603,120.71c1.906-1.789,3.813-2.93,5.718-3.924c1.906-0.967,3.813-1.673,5.719-2.197
			c1.906-0.518,3.813-0.837,5.718-1.002c1.906-0.189,3.813-0.096,5.719,0.509c3.812,1.177,7.625,4.072,11.437,4.618
			c1.906,0.319,3.812,0.226,5.718-0.127c1.906-0.349,3.813-1.081,5.718-1.904c1.906-0.83,3.813-1.717,5.719-2.315
			c0.953-0.309,1.906-0.559,2.859-0.75l2.859-0.514c3.813-0.691,7.625-1.414,11.437-1.112c3.813,0.289,7.625,1.156,11.437,2.507
			c1.906,0.675,3.813,1.484,5.719,2.485c1.906,1.011,3.812,2.154,5.718,3.727v1.8c-1.906,1.573-3.813,2.716-5.718,3.727
			c-1.906,1.001-3.813,1.81-5.719,2.485c-3.812,1.351-7.625,2.218-11.437,2.507c-3.812,0.302-7.625-0.421-11.437-1.112l-2.859-0.514
			c-0.953-0.191-1.906-0.442-2.859-0.75c-1.906-0.599-3.813-1.485-5.719-2.315c-1.906-0.823-3.812-1.556-5.718-1.904
			c-1.906-0.353-3.813-0.446-5.718-0.127c-3.813,0.546-7.625,3.441-11.437,4.618c-1.906,0.605-3.813,0.698-5.719,0.509
			c-1.906-0.166-3.812-0.484-5.718-1.002c-1.906-0.524-3.813-1.23-5.719-2.197c-1.906-0.994-3.812-2.135-5.718-3.924V120.71z"/>
	</g>
	<g>
		<path d="M367.599,120.71c1.906-1.789,3.813-2.93,5.718-3.924c1.906-0.967,3.813-1.673,5.719-2.197
			c1.906-0.518,3.813-0.837,5.718-1.002c1.906-0.189,3.813-0.096,5.719,0.509c3.812,1.177,7.625,4.072,11.437,4.618
			c1.906,0.319,3.812,0.226,5.718-0.127c1.906-0.349,3.813-1.081,5.718-1.904c1.906-0.83,3.813-1.717,5.719-2.315
			c0.953-0.309,1.906-0.559,2.859-0.75l2.859-0.514c3.813-0.691,7.625-1.414,11.437-1.112c3.813,0.289,7.625,1.156,11.437,2.507
			c1.906,0.675,3.813,1.484,5.719,2.485c1.906,1.011,3.812,2.154,5.718,3.727v1.8c-1.906,1.573-3.813,2.716-5.718,3.727
			c-1.906,1.001-3.813,1.81-5.719,2.485c-3.812,1.351-7.625,2.218-11.437,2.507c-3.812,0.302-7.625-0.421-11.437-1.112l-2.859-0.514
			c-0.953-0.191-1.906-0.442-2.859-0.75c-1.906-0.599-3.813-1.485-5.719-2.315c-1.906-0.823-3.812-1.556-5.718-1.904
			c-1.906-0.353-3.813-0.446-5.718-0.127c-3.813,0.546-7.625,3.441-11.437,4.618c-1.906,0.605-3.813,0.698-5.719,0.509
			c-1.906-0.166-3.812-0.484-5.718-1.002c-1.906-0.524-3.813-1.23-5.719-2.197c-1.906-0.994-3.812-2.135-5.718-3.924V120.71z"/>
	</g>
	<g>
		<path d="M514.59,120.71c1.906-1.789,3.813-2.93,5.719-3.924c1.906-0.967,3.813-1.673,5.719-2.197
			c1.906-0.518,3.813-0.837,5.719-1.002c1.906-0.189,3.813-0.096,5.719,0.509c3.812,1.177,7.624,4.072,11.437,4.618
			c1.905,0.319,3.812,0.226,5.718-0.127c1.906-0.349,3.813-1.081,5.719-1.904c1.906-0.83,3.813-1.717,5.719-2.315
			c0.953-0.309,1.906-0.559,2.859-0.75l2.859-0.514c3.813-0.691,7.625-1.414,11.437-1.112c3.813,0.289,7.625,1.156,11.437,2.507
			c1.906,0.675,3.813,1.484,5.719,2.485c1.906,1.011,3.813,2.154,5.719,3.727v1.8c-1.906,1.573-3.813,2.716-5.719,3.727
			c-1.906,1.001-3.813,1.81-5.719,2.485c-3.812,1.351-7.624,2.218-11.437,2.507c-3.812,0.302-7.624-0.421-11.437-1.112l-2.859-0.514
			c-0.953-0.191-1.906-0.442-2.859-0.75c-1.906-0.599-3.813-1.485-5.719-2.315c-1.906-0.823-3.813-1.556-5.719-1.904
			c-1.906-0.353-3.813-0.446-5.718-0.127c-3.813,0.546-7.625,3.441-11.437,4.618c-1.906,0.605-3.813,0.698-5.719,0.509
			c-1.906-0.166-3.813-0.484-5.719-1.002c-1.906-0.524-3.813-1.23-5.719-2.197c-1.906-0.994-3.813-2.135-5.719-3.924V120.71z"/>
	</g>
	<g>
		<path d="M561.089,120.71c1.906-1.789,3.813-2.93,5.718-3.924c1.906-0.967,3.813-1.673,5.719-2.197
			c1.906-0.518,3.813-0.837,5.719-1.002c1.906-0.189,3.813-0.096,5.719,0.509c3.813,1.177,7.625,4.072,11.438,4.618
			c1.905,0.319,3.812,0.226,5.718-0.127c1.906-0.349,3.813-1.081,5.718-1.904c1.906-0.83,3.813-1.717,5.719-2.315
			c0.953-0.309,1.906-0.559,2.859-0.75l2.859-0.514c3.813-0.691,7.625-1.414,11.438-1.112c3.813,0.289,7.625,1.156,11.437,2.507
			c1.906,0.675,3.813,1.484,5.719,2.485c1.905,1.011,3.812,2.154,5.718,3.727v1.8c-1.906,1.573-3.813,2.716-5.718,3.727
			c-1.906,1.001-3.813,1.81-5.719,2.485c-3.812,1.351-7.624,2.218-11.437,2.507c-3.813,0.302-7.625-0.421-11.438-1.112l-2.859-0.514
			c-0.953-0.191-1.906-0.442-2.859-0.75c-1.906-0.599-3.813-1.485-5.719-2.315c-1.905-0.823-3.812-1.556-5.718-1.904
			c-1.906-0.353-3.813-0.446-5.718-0.127c-3.813,0.546-7.625,3.441-11.438,4.618c-1.906,0.605-3.813,0.698-5.719,0.509
			c-1.906-0.166-3.813-0.484-5.719-1.002c-1.906-0.524-3.813-1.23-5.719-2.197c-1.905-0.994-3.812-2.135-5.718-3.924V120.71z"/>
	</g>
</g>
<g id="Layer_7" display="none">
	<g display="inline">
		<path d="M145.636,776.861c6.537,3.297,12.375,7.293,18.075,11.426c5.655,4.178,11.053,8.613,16.247,13.253
			c5.168,4.665,10.302,9.365,14.752,14.747c4.489,5.345,8.405,11.262,12.482,17.019h-6.385c12.199-8.468,22.204-19.13,30.926-31.074
			c4.409-5.925,8.682-11.985,13.379-17.621c2.329-2.838,4.779-5.555,7.193-8.307l7.271-8.229c4.864-5.469,9.83-10.837,15.103-15.897
			c5.267-5.066,10.784-9.883,16.413-14.587c5.636-4.697,11.435-9.232,17.434-13.566c6.003-4.33,12.194-8.473,18.836-12.163
			l1.273,1.273c-3.689,6.644-7.833,12.834-12.164,18.837c-4.334,5.999-8.869,11.798-13.566,17.434
			c-4.704,5.63-9.521,11.146-14.587,16.413c-5.061,5.272-10.428,10.238-15.897,15.103l-8.229,7.271
			c-2.752,2.414-5.468,4.865-8.307,7.193c-5.636,4.697-11.697,8.97-17.621,13.379c-11.944,8.723-22.607,18.727-31.074,30.926
			l-2.104,3.032l-4.281-3.032c-5.756-4.077-11.673-7.993-17.018-12.481c-5.383-4.451-10.083-9.585-14.748-14.753
			c-4.639-5.194-9.076-10.591-13.253-16.247c-4.133-5.7-8.128-11.538-11.425-18.074L145.636,776.861z"/>
	</g>
</g>
<g id="Layer_8">
	<g id="girl_1_">
		<path fill="#010101" d="M739.886,377.877c2.291,0.224,0.564,3.465-0.802,3.824c-15.599,4.141-30.192,11.265-42.485,22.01
			c-19.795,17.307-34.317,40.867-44.473,65.244c-10.526,25.273-17.407,53.042-17.419,80.654
			c-0.011,26.152,6.051,50.018,23.097,69.979c23.612,27.642,59.671,47.651,95.619,50.769c33.522,2.904,66.011-13.835,87.094-40.458
			c17.86-22.557,21.728-54.47,20.94-82.618c-0.854-30.607-6.509-62.262-19.99-89.821c-15.609-31.91-41.979-55.122-71.839-72.324
			c-6.354-3.661,1.957-11.314,6.557-11.059c29.643,1.655,52.789,27.676,69.16,50.846c13.658,19.324,22.466,41.053,27.646,64.294
			c6.953,31.208,9.404,64.376,3.2,95.963c-2.809,14.288-7.295,28.376-14.657,40.902c-8.437,14.358-20.873,26.438-33.95,36.366
			c-28.432,21.578-61.982,30.84-96.901,22.368c-34.559-8.389-69.641-27.873-91.031-57.684
			c-31.522-43.928-22.19-105.266-3.204-152.659c10.22-25.508,24.378-49.981,43.917-69.148
			C696.123,389.867,717.195,375.656,739.886,377.877L739.886,377.877z"/>
		<path fill="#010101" d="M749.761,339.741c-4.969,4.249-13.941,16.298-8.474,23.087c2.504,3.109,6.001,6.593,9.987,7.544
			c3.119,0.747,5.17,0.293,6.85-0.713c1.482-0.889,3.699-3.083,4.486-4.543c2.331-4.332,3.5-10.59-0.092-13.211
			c-8.323-6.075-18.518,2.009-27.342-1.485c-1.938-0.77-1.363-3.79-0.333-5.013c7.647-9.07,30.926-13.41,38.954-1.847
			c5.961,8.586,2.828,20.622-3.445,28.155c-7.108,8.535-18.946,14.041-29.251,7.69c-6.686-4.122-12.526-11.579-10.618-20.042
			c2.266-10.043,9.662-17.309,18.693-21.168C750.236,337.743,750.424,339.172,749.761,339.741z"/>
		<path fill="#010101" d="M773.129,346.696c-1.416,1.317-3.091,0.013-2.057-1.678c19.113-31.341,51.002-51.196,84.582-62.594
			c17.817-6.048,36.873-9.559,55.684-9.407c5.777,0.047,11.577,0.6,17.355,0.445c3.57-0.095,7.84-1.734,10.722-0.809
			c-1.985,0.668-3.97,1.337-5.956,2.006c-0.695,1.036-1.392,2.071-2.087,3.106c0.451-2.865,3.146-4.611,5.681-5.118
			c1.617-0.321,3.628-0.053,4.729,1.361c2.267,2.904,0.391,6.568-1.831,8.781c-3.745,3.724-9.094,3.114-13.852,2.792
			c-5.417-0.366-10.835-0.807-16.255-1.139c-17.151-1.048-34.955,1.537-51.306,6.856c-16.679,5.421-32.901,12.241-47.431,22.362
			C797.349,323.244,785.427,335.285,773.129,346.696L773.129,346.696z"/>
		<path fill="#010101" d="M736.686,345.274c-7.72-1.715-12.796-9.366-17.887-15.072c-5.632-6.315-11.368-12.615-17.634-18.279
			c-9.938-8.983-20.683-16.641-32.331-23.116c-12.196-6.782-25.158-12.672-38.818-15.513c-11.892-2.476-21.33-1.563-32.772,1.981
			c-6.571,2.036-8.453-6.069-3.695-9.749c22.588-17.466,58.934-2.476,80.566,9.518c12.109,6.712,23.286,14.854,33.499,24.317
			c7.451,6.908,14.037,14.587,20.378,22.562c4.748,5.969,11.238,12.402,11.994,20.381
			C740.138,343.925,738.22,345.612,736.686,345.274z"/>
		<path fill="#010101" d="M599.686,275.558c-9.108,10.363-14.513,26.02-17.576,39.389c-3.107,13.572-5.025,27.87-3.08,41.757
			c-0.719-1.217-1.44-2.433-2.161-3.648c46.827,30.603,105.53,19.222,157.62,17.228c3.42-0.13,2.648,4.321,0.297,5.444
			c-19.375,9.254-40.82,10.996-62.007,11.398c-23.784,0.453-48.339-0.794-71.389-7.28c-9.785-2.75-19.717-6.185-28.313-11.843
			c-5.499-3.619-7.082-5.399-6.518-12.265c0.478-5.816,0.688-11.642,1.502-17.43c3.472-24.585,11.466-47.365,29.083-64.816
			C598.757,271.899,601.35,273.671,599.686,275.558z"/>
		<path fill="#010101" d="M932.12,277.094c3.843,2.531,7.017,4.056,10.233,7.688c2.805,3.163,5.143,6.422,7.288,10.092
			c4.792,8.213,8.598,16.984,11.143,26.209c4.646,16.84,6.4,35.287,0.386,52.001c-1.152,3.207-6.983,7.379-10.284,4.797
			c-2.914-2.276-3.401-3.334-4.1-7.03c-0.653-3.466,3.818-6.441,6.707-6.042c1.58,0.193,3.153,0.43,4.722,0.709
			c-2.954,1.767-5.91,3.534-8.865,5.302c5.098-14.997,3.299-32.207-0.835-47.22c-2.172-7.896-4.894-15.758-8.512-23.088
			c-3.28-6.647-6.463-14.381-10.543-20.486C928.49,278.573,930.62,276.103,932.12,277.094z"/>
		<path fill="#010101" d="M772.715,368.338c5.741,1.547,11.107,4.616,16.886,6.304c6.017,1.756,12.202,2.972,18.416,3.733
			c13.644,1.67,27.421,1.685,41.144,1.471c34.692-0.533,68.23-0.305,101.933-10.257c-0.354,4.319-0.704,8.636-1.057,12.954
			c-4.139,0.252-8.752,1.501-12.498-0.814c-1.729-1.074-1.327-3.26-0.313-4.701c3.658-5.209,9.501-7.389,15.587-7.793
			c8.814-0.586,4.864,11.235-1.057,12.954c-35.739,10.363-71.61,8.935-108.3,8.117c-14.379-0.322-28.964-1.088-43.04-4.322
			c-9.405-2.161-24.742-5.991-29.116-16.098C770.976,369.134,771.995,368.149,772.715,368.338z"/>
		<path fill="#010101" d="M740.131,381.168c-11.262,8.816-20.945,21.317-26.255,34.826c-2.786,7.095-4.838,14.883-4.694,22.6
			c0.124,6.645,2.57,13.268,1.891,19.818c-0.174,1.692-3.071,4.106-4.696,2.801c-5.816-4.669-6.308-14.8-5.836-21.857
			c0.572-8.571,2.498-16.95,6.07-24.753c7.015-15.317,17.742-27.627,31.738-36.481C740.588,376.707,742.058,379.665,740.131,381.168
			z"/>
		<path fill="#010101" d="M753.561,384.022c1.935-0.036,2.388,1.971,1.313,3.379c-3.765,4.957-8.276,7.964-10.167,14.365
			c-1.7,5.756-2.21,11.723-1.456,17.702c0.845,6.656,2.532,13.13,5.421,19.178c2.268,4.752,5.25,8.958,7.617,13.605
			c0.777,1.523-1.479,3.463-2.857,3.126c-14.348-3.517-20.154-24.648-19.927-37.689c0.134-7.673,1.459-15.087,5.246-21.786
			C741.618,390.826,747.368,384.141,753.561,384.022L753.561,384.022z"/>
		<path fill="#010101" d="M767.111,385.672c0.784-1.149,3.551-1.477,3.018,0.584c-2.955,11.518-4.656,22.735-0.605,34.289
			c2.078,5.931,4.938,11.374,8.736,16.344c3.018,3.944,6.494,7.521,8.445,12.161c0.933,2.212-2.101,5.449-4.302,4.708
			c-12.369-4.158-20.036-20.051-22.555-32.306C757.326,409.168,760.097,395.932,767.111,385.672L767.111,385.672z"/>
		<path fill="#010101" d="M727.717,496.613c-1.495,5.996-2.064,13.899-1.63,20.057c0.115,1.625,0.172,3.445,0.981,4.908
			c0.312,0.564,0.244-0.18-0.592,0.42c-1.618,1.156-0.175-0.285,0.189-1.306c0.455-1.274,0.752-2.648,0.959-3.987
			c0.526-3.424,0.686-6.99,0.115-10.428c-0.188-1.161-0.465-2.366-0.982-3.429c-0.605-1.226-0.883-0.493,0.224-0.722
			c2.902-0.596,0.726,0.512,0.715,3.098c-0.007,1.844,0.076,3.692,0.429,5.508c0.517,2.648,1.349,5.653,3.163,7.681
			c-3.222,0.686-6.443,1.371-9.664,2.062c3.803-4.561,3.851-9.805,1.174-15.004c3.544-0.293,7.088-0.589,10.632-0.882
			c-6.729,7.768-0.238,17.121-4.159,25.579c-0.78,1.686-2.733,3.137-4.623,2.767c-13.437-2.634-6.522-26.764-0.582-33.541
			c2.692-3.064,8.182-5.734,10.636-0.88c4.454,8.815,2.585,19.825-3.946,27.03c-2.142,2.364-6.89,5.524-9.663,2.062
			c-7.774-9.712-6.907-29.322,4.671-35.449c13.153-6.962,14.026,14.84,12.751,22.486c-0.995,5.986-3.073,12.192-8.172,15.751
			c-3.752,2.62-9.809,2.76-12.171-1.809c-4.737-9.166,1.674-24.797,6.847-32.494C725.719,495.046,728.18,494.774,727.717,496.613z"
			/>
		<path fill="#010101" d="M755.704,495.927c1.276-1.208,4.776-1.762,4.728,0.948c-0.14,8.194-2.081,20.498,5.375,26.256
			c-2.965,1.384-5.934,2.769-8.899,4.152c3.23-5.811,6.949-18.451,4.47-24.899c-0.7-1.82,1.417-1.738,1.558-2.403
			c-0.469,2.256-0.348,4.553,0.002,6.829c0.537,3.491,1.91,9.028,3.256,11.289c-3.756,1.268-7.512,2.529-11.268,3.793
			c1.2-3.105,2.819-6.235,2.116-9.672c4.047-0.845,8.089-1.691,12.139-2.538c-2.587,4.374-4.36,9.304-6.424,13.958
			c-1.084,2.441-5.281,4.605-6.806,1.423c-2.887-6.029-1.709-11.97,1.472-17.629c2.592-4.608,10.945-8.669,12.441-1.033
			c1.255,6.398-0.984,11.874-3.302,17.725c-1.914,4.829-9.053,7.608-12.019,2.513c-3.686-6.334-5.207-16.258-4.063-23.468
			c1.24-7.815,9.366-17.319,17.916-12.931c6.915,3.546,5.673,14.018,4.515,20.406c-1.23,6.784-2.937,14.122-6.602,20
			c-1.908,3.06-6.317,4.367-9.075,1.936C748.616,524.967,747.019,504.155,755.704,495.927L755.704,495.927z"/>
		<path fill="#010101" d="M667.441,567.249c1.426,1.877,5.94-2.659,3.321,0.093c0.299-0.343,0.292-0.321-0.029,0.063
			c-0.268,0.448-0.606,0.828-0.914,1.247c0.276-1.32,0.552-2.643,0.83-3.963c0.522,1.855,0.106,3.435-1.019,4.974
			c-1.684-1.968-3.363-3.933-5.045-5.901c1.996-1.036,4.055-1.869,6.132-2.714c1.62-0.658,3.648-1.208,5.021-2.207
			c2.291-1.671,6.401-1.459,7.524,1.554c1.237,3.304-1.357,6.565-3.88,8.228c-3.514,2.314-8.721,3.208-12.19,2.298
			c-3.971-1.041-2.98-5.833-0.494-7.99c-0.47,0.813-0.129,0.486,1.019-0.991c0.628-0.555,1.312-1.017,2.049-1.392
			c1.118-0.621,2.279-0.936,3.493-1.245c1.356-0.348,2.67-0.743,4.006-1.155c-0.313,3.827-0.625,7.655-0.936,11.483
			c-1.552-0.038-3.535,0.856-5.092,1.287c-2.054,0.571-4.079,1.111-6.18,1.47c-4.741,0.809-4.359-5.688-1.631-7.777
			c1.503-1.148,3.21-2.176,5.161-1.62c-1.021,0.213-2.039,0.427-3.061,0.641c0.317-0.208,0.628-0.422,0.944-0.629
			c1.079-0.468,1.316-0.582,0.714-0.342c0.112-0.059,0.223-0.114,0.336-0.173c0.8-0.373,1.622-0.812,2.529-0.771
			c1.823,0.078,3.061,1.059,2.684,3.092C672.383,566.72,669.054,569.365,667.441,567.249z"/>
		<path fill="#010101" d="M813.051,557.334c-0.431-2.029,0.231-3.819,1.769-5.2c1.358-1.226,3.527-2.074,5.255-1.125
			c2.531,1.396,4.709,3.846,6.846,5.818c-3.47,2.048-6.94,4.095-10.408,6.141c-0.09-1.499-0.3,0.447,0.748,1.476
			c1.206,0.442,2.407,0.881,3.614,1.324c-0.03,0-0.06,0.003-0.09,0.004c0.976-0.321,1.948-0.642,2.923-0.966
			c0.372-0.269,0.741-0.539,1.112-0.81c0.666-0.897,1.332-1.795,2.002-2.689c-0.03,0.071-0.053,0.146-0.081,0.22
			c-1.267,3.528-7.271,6.866-10.206,3.436c-3.006-3.518,1.149-8.965,4.646-9.939c-1.123,0.513-1.445,0.65-0.96,0.426
			c0.907-0.54,1.88-0.86,2.922-0.966c1.307-0.106,2.833,0.233,3.702,1.327c0.8,1.009,1.054,2.162,0.989,3.432
			c-0.141,2.775-1.562,5.102-3.938,6.494c-1.929,1.128-4.843,1.577-6.474-0.354c-1.064-1.26-1.889-2.856-2.683-4.292
			C814.068,559.864,813.343,558.715,813.051,557.334L813.051,557.334z"/>
		<path fill="#010101" d="M674.99,564.641c4.711,3.217,7.719,8.698,12.409,12.124c5.012,3.664,10.607,6.445,16.572,8.058
			c13.313,3.601,27.424,3.707,41.024,1.989c25.535-3.223,50.169-11.709,71.686-26.189c0.641,3.157,1.277,6.318,1.916,9.475
			c-3.458,1.349-7.384,1.537-11.066,1.581c-3.316,0.041-2.079-3.674-0.268-4.925c3.065-2.114,6.171-4.336,9.422-6.131
			c5.956-3.289,9.488,3.758,4.605,7.886c-10.039,8.485-23.208,13.979-35.38,18.279c-14.886,5.261-30.523,8.969-46.256,10.139
			c-14.458,1.075-29.456,0.448-43.092-5.088c-9.591-3.894-24.27-12.715-24.753-24.852
			C671.755,565.628,673.639,563.718,674.99,564.641z"/>
		<path fill="#010101" d="M634.367,498.938c-5.099,7.729-13.494,5.428-20.854,3.295c-6.101-1.766-10.813-2.058-15.619,3.008
			c-3.537,3.729-5.287,8.835-4.511,14.025c1.454,9.746,9.273,18.924,19.414,18.357c4.06-0.227,8.079-0.833,11.973-2.071
			c1.396-0.447,2.801-0.905,4.181-1.415c0.439-0.169,0.88-0.322,1.329-0.459c2.306-0.597,1.803-0.211-1.507,1.157
			c-0.685,1.468-1.374,2.939-2.06,4.409c0.75,1.45,0.839,1.821,0.271,1.122c-1.76-1.943,0.262-5.063,2.051-6.054
			c3.639-2.01,8.688-0.215,6.278,4.728c-2.302,4.716-8.028,6.372-12.675,7.467c-13.04,3.072-27.459,2.962-35.247-10.321
			c-8.257-14.082-4.922-30.325,8.034-40.082c5.778-4.349,12.347-6.451,19.438-4.372c6.119,1.795,11.799,5.125,18.343,4.222
			C635.055,495.701,635.115,497.805,634.367,498.938z"/>
		<path fill="#010101" d="M872.036,495.556c-0.8,0.6-3.01,1.494-3.387-0.185c-1.159-5.124,4.296-10.224,8.327-12.379
			c6.115-3.268,12.961-4.802,19.855-3.953c13.818,1.698,25.772,13.117,26.168,27.986c0.386,14.379-7.501,28.686-18.66,37.168
			c-5.604,4.255-11.68,7.735-18.62,9.008c-5.126,0.937-13.986,1.735-16.481-4.134c-1.1-2.595,1.584-5.817,3.909-6.444
			c4.534-1.227,8.813,0.872,13.439,0.056c4.208-0.739,8.507-2.644,11.883-5.349c7.214-5.783,13.321-14.006,14.17-23.665
			c0.887-10.075-5.412-21.909-15.391-24.566c-4.669-1.244-9.986-1.816-14.712-0.442
			C877.856,490.018,875.746,492.765,872.036,495.556L872.036,495.556z"/>
		<path fill="#010101" d="M890.527,507.423c3.848,2.261,6.615,5.176,6.499,10.029c-0.127,5.466-4.53,10.263-9.758,10.886
			c-1.78,0.216-3.403-1.022-3.5-2.896c-0.092-1.76,0.896-3.064,1.994-4.271c1.129-1.236,2.246-1.564,2.115-3.233
			c-0.176-2.235-0.784-4.545-1.765-6.536C885.017,509.17,888.564,506.269,890.527,507.423z"/>
		<path fill="#010101" d="M610.341,515.359c1.224-1.602,5.246-2.284,4.5,0.874c-0.527,2.234-0.721,4.323-0.607,6.612
			c-0.504-0.853-1.01-1.708-1.517-2.562c1.581,0.625,3.468,0.821,4.959,1.648c1.879,1.045,1.69,3.561,0.616,5.096
			c-2.642,3.78-7.997,3.31-11.539,1.34c-1.383-0.768-1.606-2.226-1.426-3.677C605.781,521.049,608.22,518.137,610.341,515.359
			L610.341,515.359z"/>
		<path fill="#010101" d="M623.671,544.968c1.119,7.166-3.274,15.855-6.282,22.008c-4.704,9.63-10.314,19.066-17.459,27.016
			c-5.932,6.603-12.986,13.333-21.846,15.203c-9.232,1.948-15.781-2.962-21.395-9.959c-1.564-1.949-0.695-4.303,0.463-6.17
			c0.186-0.305,0.375-0.611,0.564-0.917c1.557-2.51,4.949-3.704,7.594-2.588c2.132,0.9,3.293,3.526,3.524,5.732
			c0.195,1.866-1.291,3.558-2.706,4.462c-0.3,0.192-0.6,0.384-0.899,0.574c-1.352,0.864-3.453,1.283-4.906,0.408
			c-0.307-0.187-3.517-1.986-0.977-1.112c2.145-1.001,4.287-2.002,6.436-3.002c-0.244,0.275-0.484,0.553-0.725,0.828
			c0.356-1.711,0.713-3.421,1.069-5.132c17.117,31.179,48.697-35.707,55.385-47.173C621.949,544.395,623.457,543.6,623.671,544.968z
			"/>
		<path fill="#010101" d="M625.988,574.378c0.252-1.192,2.667-2.886,3.283-1.085c2.815,8.244-0.143,17.947-2.513,25.935
			c-3.457,11.653-8.252,23.133-14.736,33.363c-10.551,16.645-29.678,32.019-46.512,14.058c-2.857-3.051,1.116-8.469,4.287-9.172
			c0.499-0.115,0.999-0.226,1.5-0.334c1.515-0.34,3.771-0.63,4.826,0.969c1.709,2.587,1.684,4.722,0.574,7.595
			c-0.534,1.372-2.036,2.394-3.435,2.538c-0.501,0.052-3.475-0.512-2.932-0.629c1.429-3.059,2.859-6.114,4.286-9.173
			C599.739,665.629,622.543,590.824,625.988,574.378L625.988,574.378z"/>
		<path fill="#010101" d="M875.296,557.842c1.932,33.508,56.541,48.232,71.321,16.792c2.146,1.771,4.294,3.54,6.443,5.312
			c-2.173,1.046-4.285,2.021-6.588,2.704c-1.833,0.539-4.124-0.575-3.473-2.88c1.136-4.027,3.441-6.315,6.786-8.606
			c3.854-2.635,8.635,0.778,6.443,5.312c-9.438,19.522-30.863,28.714-51.386,24.155c-20.06-4.455-35.12-19.779-33.419-41.517
			C871.573,557.239,875.138,555.147,875.296,557.842z"/>
		<path fill="#010101" d="M872.713,588.061c0.559,20.074,24.839,28.548,40.519,31.945c10.517,2.282,21.347,3.378,32.084,2.46
			c7.084-0.608,15.792-1.555,21.042-7.048c0.182,2.932,0.361,5.863,0.543,8.795c-4.219-1.148-8.891-1.003-12.582-3.611
			c-2.159-1.524-0.816-4.753,1.201-5.754c5.335-2.644,10.548-2.84,16.261-1.255c4.564,1.266,3.013,6.229,0.543,8.796
			c-15.264,15.828-46.255,12.177-65.035,7.212c-17.473-4.621-45.791-17.366-38.362-40.755
			C869.373,587.446,872.642,585.458,872.713,588.061z"/>
		<path fill="#010101" d="M862.043,619.099c0.754-2.271,5.372-3.96,4.714-0.396c-2.559,13.921,15.599,20.074,25.557,22.462
			c11.943,2.862,23.719,3.449,35.893,2.672c-1.161,3.497-2.331,6.993-3.494,10.491c-2.6-0.468-4.769-0.731-5.963-3.317
			c-0.657-1.427,0.416-3.138,1.382-4.067c2.324-2.238,5.026-2.605,8.08-3.104c6.696-1.092,4.093,9.176-0.84,10.269
			C907.96,658.414,851.763,650.019,862.043,619.099L862.043,619.099z"/>
		<path fill="#010101" d="M778.395,352.699c5.292-7.368,14.785-12.342,22.701-16.033c9.728-4.535,19.979-8.26,30.609-9.773
			c9.454-1.344,18.382-0.854,27.307,2.768c4.549,1.849,11.425,4.671,12.002,10.551c1.171,11.823-17.465,17.555-25.687,19.752
			c-7.417,1.984-15.08,3.605-22.732,4.253c-5.733,0.486-11.8,1.162-16.635-2.508c-2.835-2.148,0.318-5.625,2.802-6.076
			c10.166-1.847,20.589-1.858,30.746-4.142c5.398-1.215,10.892-2.552,16.031-4.681c1.741-0.72,3.788-1.501,5.245-2.743
			c1.127-0.958,0.594-1.072,0.884-0.235c-1.446-4.153-8.212-5.995-11.748-7.27c-7.537-2.712-16.083-2.077-23.791-0.516
			c-16.785,3.399-30.303,12.121-45.559,19.204C778.675,356.125,777.027,354.603,778.395,352.699z"/>
		<path fill="#010101" d="M723.183,351.76c-17.328,2.327-30.99-12.371-46.938-16.499c-4.872-1.262-10.184-1.21-15.163-0.669
			c-2.411,0.265-9.705,0.576-10.757,3.553c-1.794,5.087,4.742,9.242,8.488,10.353c5.608,1.662,11.498,2.358,17.329,2.426
			c9.669,0.112,20.325-2.648,29.745-0.524c3.263,0.735,1.374,4.648-0.464,5.818c-11.336,7.214-29.844,6.447-42.603,4.494
			c-11.054-1.694-27.365-8.508-21.959-23.357c4.565-12.539,21.606-13.3,32.474-12.676c9.021,0.521,16.873,4.636,24.606,9.211
			c8.855,5.238,17.659,9.844,27.129,13.782C727.35,348.618,724.534,351.579,723.183,351.76z"/>
		<path fill="#010101" d="M681.695,677.015c1.607-1.233,5.253-1.516,4.514,1.647c-1.449,6.222-5.173,12.349-7.876,18.098
			c-3.229,6.862-6.182,13.883-8.793,21.017c-5.588,15.271-9.991,31.038-13.323,46.99c-6.269,30.039-9.937,60.582-9.818,91.331
			c0.031,8.531-16.027,15.724-16.016,5.269c0.007-4.969,0.699-9.098,3.9-12.983c1.665-2.023,5.084-4.354,7.735-2.639
			c3.783,2.44,4.374,5.987,4.379,10.351c-5.339,1.756-10.678,3.512-16.017,5.269c0.306-32.729,4.138-65.884,12.055-97.609
			c4.092-16.394,9.017-32.653,15.641-48.173C663.543,702.773,670.435,685.655,681.695,677.015L681.695,677.015z"/>
		<path fill="#010101" d="M833.311,667.824c-0.673-2.46,3.155-6.263,5.137-3.762c10.041,12.746,17.495,27.599,24.926,42.037
			c7.728,15.018,14.949,30.367,21.236,46.08c6.535,16.328,12.149,33.14,15.665,50.447c1.589,7.818,3.021,15.67,3.724,23.636
			c0.666,7.543,2.098,16.49-0.185,23.805c-1.244,3.979-4.337,7.411-8.622,7.766c-2.653,0.223-5.997-1.591-5.778-4.779
			c0.104-1.466,0.248-2.874,0.498-4.321c0.456-2.658,3.009-4.593,5.482-4.938c0.922-0.193,1.853-0.294,2.791-0.31
			c-2.813,3.743-5.623,7.49-8.437,11.234c-2.213-7.2-0.958-15.689-1.67-23.221c-0.79-8.398-1.892-16.821-3.656-25.068
			c-3.544-16.566-8.52-32.804-14.36-48.664c-5.882-15.952-12.591-31.551-19.5-47.062
			C844.303,696.662,837.402,682.743,833.311,667.824L833.311,667.824z"/>
		<path fill="#010101" d="M630.038,864.242c0.033-2.354,2.395-4.131,4.547-3.354c7.219,2.582,13.222,7.887,20.718,10.269
			c8.877,2.818,18.09,4.517,27.322,5.506c18.307,1.954,36.642,2.022,55.024,1.917c26.074-0.146,51.755-2.195,77.248-8.13
			c28.002-6.524,55.247-15.825,82.514-24.965c-0.42,5.135-0.837,10.265-1.258,15.398c-5.569,0.157-11.374,1.737-16.888,0.526
			c-6.469-1.419-2.471-8.942,0.9-11.279c5.662-3.926,12.598-4.886,19.292-5.071c10.623-0.293,5.633,13.095-1.257,15.396
			c-29.638,9.916-59.262,20.02-89.83,26.51c-25.836,5.483-51.621,7.288-77.946,7.336c-20.296,0.034-41.057-0.543-60.99-4.768
			c-11.846-2.508-39.637-8.563-39.396-25.294V864.242z"/>
		<path fill="#010101" d="M685.22,884.48c0.314-0.773,2.31-1.587,2.242-0.189c-0.996,19.962,0.901,39.434,5.972,58.748
			c4.679,17.822,10.132,35.39,12.467,53.748c0.478,3.756-4.282,7.94-7.813,7.037c-4.537-1.163-10.164-1.873-14.701-0.349
			c-0.373,0.125-1.86,1.076-1.436,0.391c0.633-1.018,0.715,1.254,1.033,1.857c1.48,2.816,3.739,5.923,6.964,6.721
			c11.914,2.948,24.803-2.849,36.084-6.361c-1.266,0.937-2.53,1.871-3.8,2.805c0.017-0.023,0.03-0.044,0.048-0.069
			c0.983,2.533,1.967,5.067,2.948,7.599c-2.786,0.354-4.548,0.146-6.614-1.807c-1.519-1.437-0.184-4.344,1.119-5.367
			c2.047-1.605,3.845-2.54,6.346-3.228c5.209-1.426,6.706,3.348,4.331,7.313c-2.106,3.513-8.035,4.302-11.587,5.427
			c-5.297,1.67-10.64,3.253-16.105,4.241c-9.649,1.738-21.789,2.246-27.877-7.262c-12.556-19.609,13.81-26.408,28.077-22.432
			c-2.604,2.345-5.209,4.69-7.813,7.035C691.031,962.132,669.844,922.457,685.22,884.48L685.22,884.48z"/>
		<path fill="#010101" d="M709.445,888.499c0.49-0.791,2.32-1.251,2.373,0.123c0.536,14.84,1.175,29.303,4.321,43.885
			c1.515,7.031,2.09,14.249,3.113,21.363c0.901,6.271,1.063,14.677,4.517,20.111c4.652,7.323,12.377,15.439,13.571,24.426
			c0.88,6.618-9.202,18.31-14.745,10.627c-1.391-1.925-0.389-4.416,1.219-5.849c1.065-0.951,2.084-1.8,3.441-2.281
			c2.021-0.962,1.777-0.268-0.732,2.085c-0.194-1.476-0.817-2.927-1.473-4.244c-2.091-4.192-4.754-8.015-7.35-11.884
			c-2.162-3.218-4.925-6.626-5.781-10.493c-1.217-5.515-2.132-11.073-2.805-16.681c-1.533-12.798-3.513-25.729-4.504-38.571
			C703.761,910.078,703.456,898.129,709.445,888.499L709.445,888.499z"/>
		<path fill="#010101" d="M824.073,874.596c0.287-1.065,2.58-2.843,3.162-1.051c2.842,8.842,2.516,18.649,3.075,27.867
			c0.617,10.23,1.416,20.451,2.37,30.654c1.934,20.709,4.712,41.321,8.407,61.777c0.681,3.77-4.473,8.028-7.899,7.115
			c-10.22-2.722-20.774,0.808-19.115,13.32c-1.007-1.178-2.014-2.354-3.019-3.533c17.378,5.275,35.023-2.71,52.635-0.011
			c3.67,0.563,3.59,5.288,1.658,7.626c-3.968,4.794-8.058,6.681-13.775,4.096c-1.884-0.851-1.463-3.786-0.337-5.059
			c1.236-1.401,2.261-2.437,3.974-3.2c0.503-0.224,3.034-1.83,1.913-0.397c0.554,2.544,1.105,5.084,1.658,7.626
			c-17.628-2.711-35.029,5.338-52.624-0.012c-1.809-0.553-2.762-1.585-3.02-3.532c-2.672-20.218,17.401-32.315,34.938-27.561
			c-2.635,2.371-5.266,4.743-7.901,7.115c-3.353-20.61-5.81-41.348-7.102-62.203c-0.642-10.344-1.041-20.719-1.071-31.085
			C821.97,894.318,821.504,884.149,824.073,874.596L824.073,874.596z"/>
		<path fill="#010101" d="M853.93,869.773c0.648-1.552,3.841-2.219,3.387,0.163c-7.073,36.947,5.692,75.131,12.942,110.789
			c1.443,7.115,1.829,14.354,3.488,21.418c0.966,4.121,2.109,8.273,1.399,12.53c-0.66,3.949-4.924,8.03-8.931,7.944
			c-5.605-0.12-8.836-2.369-12.004-6.969c-1.895-2.756,1.54-5.971,4.232-5.688c3.355,0.352,6.089,1.127,9.342,1.702
			c2.719,0.479-2.984,5.949-3.338,2.59c-0.063-0.739-0.158-1.473-0.285-2.202c-0.738-3.961-1.941-7.839-2.5-11.839
			c-2.261-16.178-6.474-31.603-9.723-47.574C846.557,926.188,843.315,895.113,853.93,869.773L853.93,869.773z"/>
		<path fill="#010101" d="M687.76,666.594c1.867,1.218,0.01,3.512-1.372,4.089c-6.47,2.707-13.609,3.364-20.182,5.834
			c-6.363,2.39-12.66,5.746-17.945,10.146c-10.731,8.931-17.96,19.901-23.237,32.918c-0.609-2.795-1.216-5.59-1.823-8.382
			c6.906,2.938,13.959,5.522,21.081,7.86c6.083,1.995,16.93,4.627,11.24,13.807c-1.987,3.2-5.772,4.521-9.25,4.313
			c-5.461-0.325-11.429-3.377-16.552-5.236c-5.695-2.071-11.357-4.23-16.915-6.663c-3.174-1.389-2.986-5.746-1.824-8.383
			c7.158-16.216,18.847-31.069,33.322-40.972C654.882,668.688,675.35,658.499,687.76,666.594L687.76,666.594z"/>
		<path fill="#010101" d="M829.406,658.114c-2.795-1.192,0.296-4.818,1.817-5.419c14.767-5.801,31.968,4.533,42.893,14.12
			c12.319,10.816,23.056,24.904,27.365,41.179c1.457,5.5-2.577,9.731-7.139,11.771c-5.74,2.569-11.228,5.693-16.922,8.363
			c-2.496,1.172-7.157,2.642-9.133-0.5c-2.722-4.336-0.385-10.406,4.267-12.565c7.041-3.275,13.837-7.047,21.01-10.032
			c-2.381,3.923-4.759,7.849-7.14,11.771c-3.354-14.488-11.923-27.959-22.253-38.271c-5.312-5.303-11.102-9.972-17.649-13.563
			C841.009,661.942,835.125,660.56,829.406,658.114L829.406,658.114z"/>
		<path fill="#010101" d="M628.615,723.483c2.307-1.293,4.262,0.91,2.654,3.103c-7.964,10.894-16.563,21.342-23.207,33.189
			c-5.703,10.167-13.929,24.048-13.603,36.213c0.144,5.292-4.517,9.534-9.347,10.196c-5.083,0.694-14.746,5.898-19.472,2.117
			c-4.197-3.36-2.875-8.989,0.925-12.276c1.993-1.72,3.967-2.651,6.464-3.202c7.72-1.705,10.466,6.98,4.43,11.686
			c-0.73,0.568-1.451,1.145-2.16,1.734c0.773-3.711,1.548-7.423,2.323-11.133c-2.799-2.354-3.154-1.31-0.114-2.053
			c1.133-0.274,2.265-0.553,3.396-0.828c2.424-0.566,4.905-1.276,7.4-1.334c-2.845,2.105-5.69,4.212-8.538,6.317
			c5.841-14.992,10.832-29.294,19.687-42.886C607.124,742.549,616.287,730.387,628.615,723.483L628.615,723.483z"/>
		<path fill="#010101" d="M584.987,808.551c-1.152,5.162-2.115,10.717-2.427,16.007c-0.159,2.647,0.315,4.575-0.735,7.306
			c-1.159,3.016-4.544,5.411-7.714,4.992c-6.753-0.888-1.766-10.179-0.597-13.438c1.862-5.186,3.998-10.262,6.604-15.101
			C581.165,806.371,585.777,804.987,584.987,808.551z"/>
		<path fill="#010101" d="M592.47,814.072c1.219-2.417,6.748-3.917,5.809,0.28c-0.722,3.228-0.927,7.632,0.263,10.791
			c1.163,3.087,3.796,6.261,3.527,9.584c-0.304,3.69-3.724,8.044-7.821,7.042c-5.618-1.373-6.378-8.183-5.996-13.322
			C588.646,823.144,590.106,818.765,592.47,814.072L592.47,814.072z"/>
		<path fill="#010101" d="M891.843,730.361c-1.595-2.341,2.202-5.835,4.217-3.799c12.481,12.595,22.789,27.19,34.614,40.396
			c9.544,10.661,23.016,25.73,38.616,23.547c2.168-0.304,4.083,0.879,4.987,2.856c0.098,0.218,0.2,0.438,0.3,0.656
			c2.324,5.085-4.667,11.195-9.298,10.173c-1.776-0.389-2.651-1.336-4.158-2.222c-1.798-1.064-1.485-3.566-0.333-5.013
			c2.021-2.54,4.13-4.243,7.138-5.431c-1.749,3.737-3.491,7.469-5.238,11.208c-0.12-0.207-0.241-0.408-0.363-0.615
			c1.974,0.396,3.946,0.794,5.921,1.191c-18.076,4.017-32.702-10.396-43.42-23.506C912.187,764.342,903.048,746.804,891.843,730.361
			L891.843,730.361z"/>
		<path fill="#010101" d="M936.955,809.468c1.191-3.25,7.953-5.703,8.329-0.693c0.135,1.792-0.017,3.588,0.245,5.376
			c0.09,0.621,0.302,1.283,0.552,1.863c-0.008-0.022,0.852,1.535,0.346,0.827c1.007,1.415,0.639,0.854,2.169,1.606
			c1.639,0.805,2.877,1.715,3.39,3.62c0.586,2.184-0.305,4.44-1.994,5.873c-2.62,2.22-7.079,4.115-10.241,1.611
			c-1.699-1.349-3.196-2.786-3.911-4.953C934.276,819.847,935.274,814.051,936.955,809.468L936.955,809.468z"/>
		<path fill="#010101" d="M953.887,811.774c-1.086-2.36,2.446-5.109,4.495-4.046c1.217,0.626,2.478,1.056,3.7,1.742
			c1.417,0.793,2.74,1.99,3.854,3.183c2.597,2.78,4.611,5.627,4.018,9.65c-0.49,3.317-5.345,7.177-8.555,5.102
			c-2.773-1.793-3.498-5.022-4.802-7.912c-0.657-1.461-1.249-2.941-1.748-4.464C954.509,813.992,954.333,812.746,953.887,811.774
			L953.887,811.774z"/>
		<path fill="#010101" d="M709.895,673.78c0.415-0.365,1.287-0.607,1.543,0.087c1.854,4.909-0.15,11.018,1.495,16.221
			c1.562,4.929,4.422,9.413,8.107,12.955c8.604,8.268,20.616,12.65,32.172,14.072c10.892,1.338,23.479,0.522,32.785-6.087
			c9.964-7.074,10.182-20.213,7.419-31.183c1.366,0.784,2.734,1.565,4.103,2.349c-2.835,0.268-5.439,1.185-8.292,1.178
			c-4.163-0.007-4.12-4.709-1.465-6.99c3.561-3.061,7.377-4.563,12.012-5c1.544-0.145,3.66,0.597,4.1,2.348
			c3.925,15.628,2.214,33.033-11.015,43.606c-11.671,9.327-26.737,12.075-41.224,10.501c-13.873-1.51-28.876-6.81-38.499-17.672
			C705.449,701.487,699.397,683.01,709.895,673.78L709.895,673.78z"/>
		<path fill="#010101" d="M635.943,745.54c-9.608,8.603-17.082,18.262-22.41,30.217c-2.677,6.004-4.924,12.143-6.896,18.427
			c-1.369,4.353-2.461,9.069-5.317,12.662c-0.793,0.998-3.519,2.401-4.103,0.34c-1.552-5.477,1.43-12.101,3.239-17.247
			c2.533-7.204,5.325-14.464,9.133-21.071c6.131-10.647,13.748-21.369,25.404-25.833
			C636.745,742.365,637.003,744.589,635.943,745.54z"/>
		<path fill="#010101" d="M890,745.167c-0.36-0.995,1.384-2.552,2.078-1.524c6.862,10.151,14.865,19.093,22.578,28.537
			c6.908,8.459,13.845,17.424,15.066,28.746c0.142,1.278-2.027,3.052-3.001,1.772c-7.133-9.375-12.588-20.002-19.69-29.46
			C900.49,764.531,893.748,755.572,890,745.167L890,745.167z"/>
		<path fill="#010101" d="M737.309,548.465c1.553-1.158,3.022-2.083,4.791-2.85c-0.03,0.013,1.188-0.541,0.577-0.247
			c0.271-0.123,0.533-0.257,0.8-0.396c0.927-0.469,1.762-0.767,2.797-0.865c1.455-0.135,2.775,0.813,2.857,2.368
			c0.067,1.347-0.68,2.624-1.631,3.487c-2.338,2.125-5.555,2.309-8.449,3.103C735.996,553.905,734.966,550.215,737.309,548.465z"/>
	</g>
</g>
<g id="Stick">
	<g>
		<path d="M587.299,837.237c-8.357-8.025-16.199-16.442-23.925-24.949c-7.706-8.521-15.198-17.205-22.541-26.002
			c-7.345-8.796-14.552-17.697-21.597-26.722c-7.104-8.979-13.938-18.164-20.404-27.629c-12.946-18.919-24.494-38.903-37.942-57.44
			c-6.686-9.297-13.692-18.352-20.902-27.249c-7.194-8.911-14.741-17.554-22.313-26.176l-11.382-12.916
			c-3.787-4.312-7.56-8.633-11.262-13.008c-7.438-8.726-14.601-17.66-21.808-26.561c-14.416-17.801-28.85-35.588-42.484-53.982
			c-13.619-18.407-26.825-37.128-39.615-56.167c-6.397-9.518-12.688-19.116-18.825-28.831c-6.113-9.733-12.161-19.517-17.837-29.583
			l1.433-1.09c8.191,8.151,16.013,16.584,23.768,25.068c7.73,8.502,15.308,17.121,22.78,25.821
			c14.946,17.396,29.476,35.11,43.594,53.137c14.102,18.039,27.405,36.688,40.726,55.321c6.661,9.316,13.366,18.6,19.796,28.092
			c3.232,4.733,6.393,9.521,9.541,14.318l9.42,14.409c6.296,9.596,12.618,19.17,19.292,28.477
			c6.658,9.319,13.52,18.482,20.702,27.402c14.289,17.897,30.477,34.348,45.268,51.863c7.402,8.753,14.437,17.784,21.201,27.023
			c6.823,9.192,13.484,18.508,20.008,27.93c6.525,9.42,12.902,18.953,19.064,28.649c6.143,9.711,12.169,19.511,17.68,29.703
			L587.299,837.237z"/>
	</g>
</g>
<g id="Board" display="none">
	<g display="inline">
		<path d="M645.379,395.034l-6.545,20.525l-6.663,20.708l-13.454,41.37l-0.586,1.8l-2.01,0.417l-53.784,11.166l3.647-3.51
			l-10.093,49.025l-0.872,4.235l-4.52,0.076c-62.771,1.062-125.542,1.869-188.313,2.408c-62.771,0.529-125.542,0.9-188.313,1.021
			c-62.771,0.177-125.542-0.104-188.313-0.928c-31.385-0.375-62.771-0.913-94.156-1.453l-94.157-1.619l-5.036-0.087l0.08-4.869
			c0.756-46.255,1.358-92.509,1.67-138.764c0.309-46.255,0.327-92.509,0.188-138.764c-0.152-46.255-0.466-92.509-1.062-138.764
			l-0.404-34.691l-0.496-34.691l-1.032-69.382l-0.089-5.998l6.18-0.093c79.008-1.189,158.016-2.307,237.023-2.806l237.024-1.438
			c79.008-0.403,158.016-0.533,237.023-0.276c79.008,0.235,158.016,0.789,237.023,1.542l9.163,0.087l-0.095,8.981l-0.913,86.309
			l-1.158,86.309l-0.64,43.154l-0.702,43.154c-0.541,28.77-0.974,57.539-1.619,86.309l-0.069,3.086l-2.804,0.778l-50.165,13.924
			l1.277-0.789l-26.147,26.388L645.379,395.034z M643.635,393.969l24.896-27.856l24.853-27.612l0.476-0.529l0.803-0.26
			l49.518-16.075l-2.873,3.865c-0.646-28.77-1.078-57.539-1.619-86.309l-0.702-43.154l-0.64-43.154l-1.158-86.309l-0.913-86.309
			l9.068,9.068c-79.008,0.753-158.016,1.307-237.023,1.542C429.311-8.866,350.303-8.997,271.295-9.4L34.271-10.837
			c-79.008-0.499-158.016-1.616-237.023-2.806l6.091-6.091l-1.032,69.382l-0.496,34.691l-0.404,34.691
			c-0.596,46.255-0.91,92.509-1.062,138.764c-0.139,46.254-0.121,92.509,0.188,138.764c0.312,46.254,0.914,92.509,1.67,138.764
			l-4.956-4.956l94.157-1.619c31.385-0.54,62.771-1.078,94.156-1.453c62.771-0.823,125.542-1.104,188.313-0.928
			c62.771,0.121,125.542,0.492,188.313,1.021c62.771,0.539,125.542,1.347,188.313,2.408l-5.392,4.312l11.907-48.617l0.743-3.037
			l2.904-0.473l54.216-8.834l-2.596,2.217l15.546-40.63l7.837-20.292L643.635,393.969z"/>
	</g>
</g>
<g id="Board_copy">
	<g>
		<path d="M675.227,415.229c-4.946,7.953-9.812,15.969-14.539,24.048c-4.74,8.147-9.387,16.352-13.695,24.676
			c-2.137,4.165-4.197,8.371-5.952,12.612c-0.864,2.112-1.67,4.259-2.191,6.303c-0.684,2.599-1.87,5.159-3.525,7.376
			c-1.655,2.222-3.751,4.078-6.023,5.514c-2.276,1.441-4.717,2.496-7.189,3.269c-2.477,0.773-4.99,1.277-7.51,1.583
			c-1.261,0.153-2.523,0.256-3.792,0.308c-0.634,0.026-1.27,0.041-1.91,0.04c-0.661-0.002-1.241-0.009-2.015-0.057l1.809-0.349
			c-4.476,2.715-8.965,5.403-13.471,8.061l2.345-2.78l-8.443,31.09l-1.048,3.856l-4.242,0.069
			c-65.549,1.061-131.098,1.868-196.646,2.407c-65.549,0.529-131.098,0.9-196.646,1.021c-65.548,0.177-131.097-0.104-196.646-0.928
			c-32.774-0.375-65.549-0.913-98.323-1.453l-98.323-1.619l-5.036-0.083l0.08-4.873c0.756-46.255,1.358-92.509,1.669-138.764
			c0.309-46.255,0.327-92.509,0.188-138.764c-0.152-46.255-0.466-92.509-1.062-138.764l-0.404-34.691l-0.496-34.691l-1.032-69.382
			l-0.089-5.998l6.18-0.093c79.008-1.189,158.016-2.307,237.023-2.806l237.024-1.438c79.008-0.403,158.016-0.533,237.023-0.276
			c79.008,0.235,158.016,0.789,237.023,1.542l9.049,0.086l0.019,8.871l0.192,89.88l-0.054,89.883l-0.088,44.942l-0.149,44.943
			c-0.172,29.963-0.236,59.924-0.515,89.889l-0.01,1.111l-0.448,0.808l-21.589,38.905l-0.41,0.738l-0.591,0.359l-27.817,16.917
			L675.227,415.229z M673.787,413.778l26.949-18.642l26.85-18.416l-1.001,1.098l19.599-39.945l-0.458,1.918
			c-1.015-29.948-1.815-59.899-2.725-89.849l-1.254-44.926l-1.192-44.927l-2.263-89.854l-2.018-89.857l9.067,8.956
			c-79.008,0.753-158.016,1.307-237.023,1.542C429.311-8.866,350.303-8.997,271.295-9.4L34.271-10.837
			c-79.008-0.499-158.016-1.616-237.023-2.806l6.091-6.091l-1.032,69.382l-0.496,34.691l-0.404,34.691
			c-0.596,46.255-0.91,92.509-1.062,138.764c-0.139,46.254-0.121,92.509,0.188,138.764c0.312,46.254,0.914,92.509,1.669,138.764
			l-4.956-4.956l98.323-1.619c32.774-0.54,65.549-1.078,98.323-1.453c65.549-0.823,131.098-1.104,196.646-0.928
			c65.549,0.121,131.098,0.492,196.646,1.021c65.549,0.539,131.098,1.347,196.646,2.407l-5.29,3.926l10.223-30.552l0.701-2.096
			l1.644-0.684c4.828-2.01,9.673-3.987,14.53-5.939l1.042-0.419l0.768,0.07c0.404,0.037,1.006,0.064,1.525,0.077
			c0.54,0.013,1.085,0.014,1.632,0.004c1.092-0.021,2.188-0.076,3.275-0.181c2.175-0.205,4.321-0.58,6.372-1.161
			c4.095-1.153,7.816-3.196,10.233-6.287c1.211-1.54,2.107-3.313,2.683-5.266c0.767-2.505,1.743-4.746,2.765-6.961
			c2.061-4.403,4.357-8.589,6.722-12.729c4.736-8.266,9.813-16.272,15.014-24.189c5.203-7.916,10.513-15.744,15.998-23.463
			L673.787,413.778z"/>
	</g>
</g>
<g id="Layer_6" display="none">
	<path display="inline" d="M649.663,66.42c-3.116-2.503-6.59-4.428-10.258-5.738c-6.456-3.574-14.169-6.082-21.647-6.297
		c-2.411-0.363-4.869-0.516-7.245-0.34c-3.402,0.252-8.503,0.227-11.384,2.549c-0.232,0.094-0.479,0.264-0.662,0.466
		c-5.689-0.96-11.931,0.192-17.124,2.138c-7.683,2.879-14.423,8.385-19.765,14.513c-11.283,12.94-18.227,29.684-22.242,46.226
		c-2.582,10.632-3.91,21.648-5.371,32.476c-1.803,13.375-2.841,26.875-1.754,40.358c1.779,22.047,9.682,44.904,24.516,61.654
		c7.779,8.783,17.796,14.916,28.989,18.273c6.089,1.827,12.431,2.546,18.768,2.743c3.372,0.105,6.749-0.035,10.11-0.312
		c1.08-0.088,2.131-0.226,3.166-0.398c0.215,0.009,0.429,0.028,0.645,0.034c0.561,0.016,1.285-0.197,2.027-0.557
		c1.963-0.438,3.902-0.977,5.907-1.543c0.995-0.281,2.048-0.791,2.754-1.589c0.308,0.148,0.728,0.202,1.271,0.099
		c19.121-3.631,32.758-18.401,40.604-35.464c7.904-17.187,10.016-36.881,10.633-55.586c0.435-13.128-0.313-26.266-1.909-39.299
		c-1.879-15.353-4.997-30.661-10.54-45.138C664.965,84.758,658.901,73.837,649.663,66.42z M628.041,267.46
		c-2.943-0.604-5.902-0.516-8.865-0.285c-4.109-1.312-8.463-2-12.605-3.148c-4.598-1.275-9.087-2.953-13.372-5.055
		c-9.509-4.667-17.399-12.15-23.72-20.564c-13.227-17.611-17.045-40.525-17.217-62.027c-0.09-11.234,0.899-22.447,2.316-33.583
		c1.019-7.99,2.26-15.923,4.188-23.747c3.944-16,9.706-32.521,19.442-45.977c2.427-3.355,5.281-6.508,8.609-8.835
		c3.106-2.173,6.813-3.3,10.605-4.096c0.016-0.003,0.032-0.01,0.048-0.014c0.663,0.012,1.325,0.034,1.987,0.06
		c0.195,0.264,0.547,0.475,1.105,0.589c1.994,0.41,4.018,0.68,6.037,0.976c1.37,0.582,2.721,1.205,4.014,1.953
		c3.825,2.212,7.432,4.5,10.737,7.459c6.834,6.119,12.132,13.598,16.503,21.623c4.586,8.419,8.05,17.421,11.072,26.502
		c3.419,10.276,6.307,20.671,8.063,31.369c3.08,18.76,3.234,37.691,2.63,56.641c-0.284,8.913-0.864,17.886-3.333,26.499
		c-1.187,4.138-2.852,8.101-5.076,11.786c-1.08,1.788-2.414,3.398-3.525,5.161c-0.721,1.142-0.965,2.563-1.605,3.716
		c-0.148,0.201-0.296,0.402-0.443,0.608c-0.072,0.103-0.152,0.201-0.229,0.303c-0.023,0.024-0.045,0.049-0.07,0.073
		c-0.206,0.196-0.349,0.394-0.447,0.587c-1.395,1.686-3.112,3.15-4.805,4.496c-2.25,1.788-4.672,3.323-7.164,4.745
		c-1.396,0.797-2.891,1.508-4.262,2.385C628.467,267.573,628.258,267.505,628.041,267.46z"/>
	<g display="inline">
		<path d="M160.5,170c1.708-0.984,3.417-1.633,5.125-2.18c1.708-0.539,3.417-0.928,5.125-1.214c1.708-0.291,3.417-0.467,5.125-0.563
			c1.708-0.103,3.417-0.058,5.125,0.287c3.417,0.646,6.833,2.26,10.25,2.562c3.417,0.334,6.833-0.163,10.25-1.128
			c1.708-0.457,3.417-0.95,5.125-1.286c1.708-0.352,3.417-0.512,5.125-0.703c3.417-0.379,6.833-0.781,10.25-0.618
			s6.833,0.649,10.25,1.393c3.417,0.769,6.833,1.753,10.25,3.451v1c-3.417,1.698-6.833,2.682-10.25,3.451
			c-3.417,0.743-6.833,1.229-10.25,1.393s-6.833-0.238-10.25-0.618c-1.708-0.191-3.417-0.351-5.125-0.703
			c-1.708-0.336-3.417-0.829-5.125-1.286c-3.417-0.965-6.833-1.462-10.25-1.128c-3.417,0.301-6.833,1.916-10.25,2.562
			c-1.708,0.345-3.417,0.39-5.125,0.287c-1.708-0.096-3.417-0.272-5.125-0.563c-1.708-0.286-3.417-0.675-5.125-1.214
			c-1.708-0.547-3.417-1.196-5.125-2.18V170z"/>
	</g>
	<g display="inline">
		<path d="M396.5,188c2.063-0.994,4.125-1.627,6.188-2.18c2.063-0.539,4.125-0.928,6.188-1.214c2.063-0.287,4.125-0.477,6.188-0.554
			c2.063-0.131,4.125-0.047,6.188,0.278c4.125,0.646,8.25,2.26,12.375,2.562c4.125,0.334,8.25-0.163,12.375-1.128
			c2.063-0.457,4.125-0.95,6.188-1.286c2.063-0.352,4.125-0.512,6.188-0.703c4.125-0.384,8.25-0.773,12.375-0.618
			c4.125,0.163,8.25,0.649,12.375,1.393c4.125,0.769,8.25,1.753,12.375,3.451v1c-4.125,1.698-8.25,2.682-12.375,3.451
			c-4.125,0.743-8.25,1.229-12.375,1.393c-4.125,0.156-8.25-0.234-12.375-0.618c-2.063-0.191-4.125-0.351-6.188-0.703
			c-2.063-0.336-4.125-0.829-6.188-1.286c-4.125-0.965-8.25-1.462-12.375-1.128c-4.125,0.301-8.25,1.916-12.375,2.562
			c-2.063,0.325-4.125,0.409-6.188,0.278c-2.063-0.077-4.125-0.268-6.188-0.554c-2.063-0.286-4.125-0.675-6.188-1.214
			c-2.063-0.553-4.125-1.187-6.188-2.18V188z"/>
	</g>
	<g display="inline">
		<path d="M396.5,154c2.063-0.994,4.125-1.627,6.188-2.18c2.063-0.539,4.125-0.928,6.188-1.214c2.063-0.287,4.125-0.477,6.188-0.554
			c2.063-0.131,4.125-0.047,6.188,0.278c4.125,0.646,8.25,2.26,12.375,2.562c4.125,0.334,8.25-0.163,12.375-1.128
			c2.063-0.457,4.125-0.95,6.188-1.286c2.063-0.352,4.125-0.512,6.188-0.703c4.125-0.384,8.25-0.773,12.375-0.618
			c4.125,0.163,8.25,0.649,12.375,1.393c4.125,0.769,8.25,1.753,12.375,3.451v1c-4.125,1.698-8.25,2.682-12.375,3.451
			c-4.125,0.743-8.25,1.229-12.375,1.393c-4.125,0.156-8.25-0.234-12.375-0.618c-2.063-0.191-4.125-0.351-6.188-0.703
			c-2.063-0.336-4.125-0.829-6.188-1.286c-4.125-0.965-8.25-1.462-12.375-1.128c-4.125,0.301-8.25,1.916-12.375,2.562
			c-2.063,0.325-4.125,0.409-6.188,0.278c-2.063-0.077-4.125-0.268-6.188-0.554c-2.063-0.286-4.125-0.675-6.188-1.214
			c-2.063-0.553-4.125-1.187-6.188-2.18V154z"/>
	</g>
	<path display="inline" d="M289.727,265.386c2.769,0.826,5.635,1.311,8.529,1.588c1.099,0.276,2.176,0.342,3.225,0.23
		c2.393,0.115,4.787,0.122,7.149,0.091c6.874-0.089,13.738-0.634,20.595-1.077c15.179-0.979,30.647,1.107,45.706-1.445
		c1.923-0.326,4.967-2.597,3.811-4.944c-2.417-4.908-9.122-4.735-14.283-4.832c-0.351-0.062-0.73-0.099-1.15-0.099
		c-0.417,0-0.835,0.003-1.252,0.004c-0.944-0.07-1.874-0.228-2.792-0.446c-1.327-1.166-2.428-2.655-3.564-3.996
		c-0.368-0.436-0.724-0.884-1.077-1.336c-0.614-11.17-1.82-22.302-2.683-33.455c-1.027-13.294-1.4-26.652-1.701-39.98
		c-0.606-26.788-0.19-53.536,0.342-80.319c0.145-7.308,0.484-14.599,0.76-21.903c0.012-0.335-0.038-0.642-0.132-0.923
		c0.513-0.875,0.812-1.863,0.79-2.892c0-0.018,0.001-0.036,0.001-0.053c0.003-0.136-0.003-0.265-0.013-0.39
		c-0.007-0.288-0.013-0.576-0.023-0.864c-0.086-2.817-2.835-3.281-5.024-2.82c-9.729,2.045-18.345,8.274-26.366,13.832
		c-4.438,3.076-8.926,6.067-13.208,9.361c-2.454,1.887-4.943,3.813-7.044,6.056c-0.179,0.167-0.361,0.331-0.538,0.5
		c-1.872,1.774-3.449,3.612-4.843,5.588c-0.703,0.851-1.326,1.76-1.833,2.746c-0.286,0.358-0.571,0.718-0.841,1.094
		c-0.61,0.851-1.452,2.115-1.75,3.353c-0.21,0.245-0.415,0.51-0.623,0.803c-1.565,2.21,0.314,4.48,2.744,3.127
		c0.408-0.227,0.81-0.465,1.209-0.706c1.972-0.657,3.982-2.127,5.53-3.042c2.968-1.755,5.675-3.149,8.838-4.18
		c1.716-0.559,3.268-0.896,4.689-0.694c0.051,0.531,0.091,1.064,0.117,1.597c0.276,5.641,0.443,11.202,0.267,16.854
		c-0.354,11.343-0.672,22.682-1.186,34.02c-0.604,13.326-1.202,26.645-1.011,39.987c0.23,16.051,1.141,32.137,0.278,48.164
		c-0.615,2.467-1.375,4.863-2.242,7.029c-0.312,0.779-0.655,1.545-1.023,2.299c-5.123,3.67-11.204,5.022-17.324,7.164
		C288.83,261.161,286.845,264.526,289.727,265.386z"/>
	<path display="inline" d="M43.727,265.386c2.769,0.826,5.635,1.311,8.529,1.588c1.099,0.276,2.176,0.342,3.225,0.23
		c2.393,0.115,4.787,0.122,7.149,0.091c6.874-0.089,13.738-0.634,20.595-1.077c15.179-0.979,30.647,1.107,45.706-1.445
		c1.923-0.326,4.967-2.597,3.811-4.944c-2.417-4.908-9.122-4.735-14.283-4.832c-0.351-0.062-0.73-0.099-1.15-0.099
		c-0.417,0-0.835,0.003-1.252,0.004c-0.944-0.07-1.874-0.228-2.792-0.446c-1.327-1.166-2.428-2.655-3.564-3.996
		c-0.368-0.436-0.724-0.884-1.077-1.336c-0.614-11.17-1.82-22.302-2.683-33.455c-1.027-13.294-1.4-26.652-1.701-39.98
		c-0.606-26.788-0.19-53.536,0.342-80.319c0.145-7.308,0.484-14.599,0.76-21.903c0.012-0.335-0.038-0.642-0.132-0.923
		c0.513-0.875,0.812-1.863,0.79-2.892c0-0.018,0.001-0.036,0.001-0.053c0.003-0.136-0.003-0.265-0.013-0.39
		c-0.007-0.288-0.013-0.576-0.023-0.864c-0.086-2.817-2.835-3.281-5.024-2.82c-9.729,2.045-18.345,8.274-26.366,13.832
		c-4.438,3.076-8.926,6.067-13.208,9.361c-2.454,1.887-4.943,3.813-7.044,6.056c-0.179,0.167-0.361,0.331-0.538,0.5
		c-1.872,1.774-3.449,3.612-4.843,5.588c-0.703,0.851-1.326,1.76-1.833,2.746c-0.286,0.358-0.571,0.718-0.841,1.094
		c-0.61,0.851-1.452,2.115-1.75,3.353c-0.21,0.245-0.415,0.51-0.623,0.803c-1.565,2.21,0.314,4.48,2.744,3.127
		c0.408-0.227,0.81-0.465,1.209-0.706c1.972-0.657,3.982-2.127,5.53-3.042c2.968-1.755,5.675-3.149,8.838-4.18
		c1.716-0.559,3.268-0.896,4.689-0.694c0.051,0.531,0.091,1.064,0.117,1.597c0.276,5.641,0.443,11.202,0.267,16.854
		c-0.354,11.343-0.672,22.682-1.186,34.02c-0.604,13.326-1.202,26.645-1.011,39.987c0.23,16.051,1.141,32.137,0.278,48.164
		c-0.615,2.467-1.375,4.863-2.242,7.029c-0.312,0.779-0.655,1.545-1.023,2.299c-5.123,3.67-11.204,5.022-17.324,7.164
		C42.83,261.161,40.845,264.526,43.727,265.386z"/>
</g>
<g id="Layer_3" display="none">
	<g id="finger" display="inline">
		<path fill="#010101" d="M583.014,434.872c-1.859,0.138-3.467,0.843-5.377,0.687c-2.266-0.184-4.502-1.059-6.529-2.043
			c-3.455-1.677-7.199-4.234-9.732-6.736c-2.352-2.321-4.283-5.208-5.965-8.033c-0.855-1.436-1.65-2.918-2.17-4.51
			c-0.131-0.404-0.137-0.056,0.033-0.581c-0.418,1.293,0.729-1.299-0.033,0.065c0.264-0.47,0.496-0.956,0.387-1.516
			c-0.199-1.014-0.898-1.893-1.947-2.155c-2.244-0.562-6.188,0.326-5.779,3.438c0.221,1.682,1.389,3.408,2.241,4.822
			c2.352,3.906,5.31,7.79,8.661,10.894c3.627,3.358,8.295,5.946,12.85,7.783c3.668,1.479,11.975,3.606,14.777-0.547
			C585.076,435.485,583.823,434.811,583.014,434.872L583.014,434.872z"/>
		<path fill="#010101" d="M582.588,437.943c2.619,0.142,5.113-3.972,6.615-5.7c2.783-3.206,5.389-6.589,7.949-9.973
			c2.43-3.208,4.781-6.508,6.766-10.012c1.301-2.297,3.76-6.137,1.875-8.579c-1.121-1.451-3.879-0.98-4.838,0.375
			c-0.74,1.043-0.576,2.021-0.887,3.162c-0.398,1.468-1.057,2.862-1.744,4.212c-1.842,3.62-4.135,7.009-6.445,10.342
			c-2.35,3.389-4.865,6.657-7.229,10.035C584.233,432.403,580.084,437.807,582.588,437.943z"/>
		<path fill="#010101" d="M548.45,412.57c2.507-1.088,4.362-4.223,6.024-6.27c2.701-3.326,5.346-6.698,8.1-9.982
			c2.635-3.145,5.273-6.294,8.197-9.18c0.963-0.949,2.293-2.058,3.215-2.646c0.373-0.193,0.375-0.223,0.006-0.092
			c0.254-0.099,0.518-0.169,0.783-0.236c0.814-0.205,1.604-0.746,2.26-1.244c1.691-1.282,0.689-3.453-1.025-4.031
			c-3.607-1.215-6.512,1.483-8.787,3.912c-2.787,2.975-5.311,6.177-7.738,9.448c-2.664,3.587-5.158,7.307-7.713,10.971
			c-1.123,1.611-2.252,3.218-3.41,4.803c-0.77,1.055-1.867,2.168-2.143,3.489C545.955,412.783,547.648,412.918,548.45,412.57z"/>
		<path fill="#010101" d="M604.567,405.997c2.938-1.544,3.23-5.615,2.934-8.557c-0.363-3.583-2.861-7.325-5.041-10.048
			c-4.711-5.889-12.205-11.18-19.969-11.494c-3.818-0.155-8.354,0.837-10.707,4.144c-1.51,2.124,0.148,4.394,2.547,4.315
			c-1.373,0.045,1.404-0.146,1.443-0.163c0.699-0.28,1.295-0.511,1.906-0.966c0.865-0.644,1.012-0.787,1.666-1.148
			c-0.104,0.056,1.258-0.406,0.729-0.314c0.357-0.063,0.721-0.086,1.082-0.109c1.182-0.079-0.75-0.075,0.459,0
			c1.771,0.109,2.836,0.495,4.609,1.224c3.342,1.374,6.434,3.745,9.004,6.261c2.43,2.379,4.561,5.086,5.871,8.24
			c0.588,1.417,1.166,2.698,1.279,4.239c0.1,1.338-0.188,2.648,0.217,3.943C602.826,406.308,604.033,406.277,604.567,405.997
			L604.567,405.997z"/>
		<path fill="#010101" d="M588.117,431.543c7.109,0.666,14.426-2.747,20.074-6.753c7.068-5.015,12.68-11.827,18.299-18.337
			c6.547-7.583,12.676-15.404,18.785-23.334c2.166-2.81,4.486-5.496,6.629-8.324c1.941-2.56,3.242-5.443,5.037-8.056
			c0.77-1.122,0.281-2.475-0.805-3.16c-1.58-0.995-3.592-0.669-5.027,0.39c-0.539,0.398-0.77,0.9-1.051,1.47
			c-1.709,3.457,3.432,4.143,5.5,2.612c0.512-0.378,1.09-0.721,1.383-1.313c-2.242-0.273-4.484-0.546-6.727-0.82
			c0.334,2.214-2.627,5.321-3.842,6.965c-1.992,2.699-4.166,5.259-6.24,7.894c-5.486,6.974-10.746,14.055-16.504,20.821
			c-5.342,6.278-10.627,12.74-16.818,18.213c-2.689,2.375-5.631,4.472-8.813,6.132c-3.227,1.684-6.582,2.289-10.074,3.125
			C586.336,429.451,586.512,431.393,588.117,431.543L588.117,431.543z"/>
		<path fill="#010101" d="M554.838,402.841c-2.926-2.619-1.975-7.101-1.094-10.492c1.729-6.668,4.938-12.953,8.201-18.979
			c7.365-13.596,15.982-26.845,25.711-38.873c1.68-2.079,3.566-4.031,5.572-5.798c0.363-0.32,0.738-0.628,1.121-0.925
			c0.154-0.121,0.699-0.502-0.072,0.022c1.932-1.313-0.396,0.211,0.512-0.324c0.896-0.527-0.393,0.073,0.053-0.059
			c0.482-0.142-1.1,0.131-0.508,0.115c0.607-0.045,1.18-0.208,1.721-0.488c-0.467,0.237-0.961,0.375-1.484,0.414
			c-0.977-0.331-1.955-0.661-2.932-0.99c0.162,0.155,0.324,0.31,0.486,0.466c1.24,1.189,3.898,1.234,4.873-0.379
			c2.262-3.75-2.848-4.956-5.527-3.418c-1.623,0.932-2.875,2.375-4.1,3.757c-3.887,4.381-7.381,9.204-10.773,13.97
			c-9.17,12.881-17.551,26.65-23.537,41.322c-1.977,4.846-8.342,19.604-0.188,22.371
			C553.733,404.843,556.045,403.923,554.838,402.841L554.838,402.841z"/>
		<path fill="#010101" d="M654.403,366.354c3.863-1.182,7.197-4.68,10.096-7.359c3.594-3.321,6.775-7.032,9.838-10.843
			c6.232-7.757,11.803-16.036,17.734-24.018c2.813-3.784-5.449-6.175-7.535-2.602c-0.676,1.157-1.117,2.454-0.348,3.689
			c0.674,1.081,1.869,1.61,3.146,1.472c1.57-0.168,3.033-0.698,4.127-1.872c-2.309-1.097-4.617-2.193-6.926-3.29
			c-4.646,7.896-9.168,15.833-14.379,23.388c-2.633,3.817-5.563,7.359-8.477,10.956c-1.463,1.806-3.092,3.461-4.766,5.067
			c-1.377,1.321-3.078,2.468-4.08,4.111C652.229,366.046,653.633,366.59,654.403,366.354L654.403,366.354z"/>
		<path fill="#010101" d="M594.459,323.21c7.916-6.456,12.885-15.999,18.623-24.36c6.061-8.83,12.543-17.368,20.473-24.611
			c-2.459-1.168-4.92-2.337-7.379-3.505c-0.797,1.114-0.977,1.891-1.105,3.231c-0.277,2.891,4.584,2.945,6.172,2.085
			c1.279-0.694,2.07-1.401,2.963-2.543c2.982-3.812-4.908-6.106-7.379-3.505c-7.25,7.632-13.416,16.089-18.939,25.031
			c-2.748,4.449-5.318,8.999-7.934,13.524c-1.313,2.271-2.727,4.503-3.914,6.842c-1.273,2.504-2.035,4.726-2.729,7.415
			C593.147,323.45,594.127,323.481,594.459,323.21z"/>
		<path fill="#010101" d="M690.283,323.334c3.402-1.628,6.164-4.583,9.098-6.906c3.346-2.649,6.52-5.514,9.658-8.404
			c6.092-5.608,11.566-11.91,16.797-18.317c10.68-13.083,19.979-27.222,30.109-40.72c3.086-4.11-5.766-6.538-8.176-2.824
			c-1.033,1.595-1.822,3.123-1.01,4.986c0.684,1.565,2.719,1.668,4.131,1.378c2.242-0.46,3.623-1.865,5.055-3.54
			c-2.725-0.941-5.449-1.882-8.176-2.824c-10.057,13.527-19.346,27.617-29.846,40.812c-5.139,6.458-10.67,12.649-16.518,18.473
			c-2.688,2.676-5.49,5.244-7.879,8.2c-2.064,2.557-4.906,5.636-5.031,9.083C688.465,323.584,689.787,323.571,690.283,323.334
			L690.283,323.334z"/>
		<path fill="#010101" d="M628.844,274.779c5.732-1.096,7.393-10.435,9.867-14.717c4.342-7.511,9.221-14.752,13.768-22.143
			c9.627-15.65,20.535-30.498,31.535-45.199c1.371-1.831-0.201-3.909-2.004-4.533c-2.152-0.745-4.783-0.146-6.172,1.708
			c-0.875,1.169-1.359,2.153-1.303,3.64c0.115,2.942,4.283,2.903,6.145,2.076c1.475-0.656,2.377-1.613,3.334-2.891
			c-2.725-0.941-5.451-1.883-8.176-2.825c-10.57,14.125-20.641,28.575-29.6,43.782c-4.215,7.153-8.406,14.411-12.139,21.825
			c-1.547,3.07-2.877,6.093-3.842,9.39c-0.877,3.001-1.781,5.64-3.205,8.407C626.432,274.51,627.916,274.955,628.844,274.779
			L628.844,274.779z"/>
		<path fill="#010101" d="M640.666,361.941c-0.563-2.179-2.896-3.449-4.664-4.636c-2.539-1.704-5.346-2.99-7.912-4.653
			c-2.295-1.486-4.59-2.979-6.775-4.623c-2.742-2.063-4.848-4.631-7.234-7.057c-2.139-2.176-8.059-0.182-5.604,2.972
			c3.629,4.663,9.383,8.388,14.623,10.993c2.779,1.381,5.551,2.761,8.289,4.227c2.521,1.35,5.301,3.285,8.213,3.495
			C639.949,362.684,640.805,362.483,640.666,361.941L640.666,361.941z"/>
		<path fill="#010101" d="M640.467,351.728c-0.855-3.452-5.529-6.097-8.23-8.094c-3.668-2.71-7.316-5.849-11.283-8.094
			c-1.371-0.775-3.086-0.827-4.488-0.082c-1.33,0.706-2.371,2.582-1.029,3.843c3.314,3.118,7.617,5.344,11.498,7.677
			c3.533,2.125,7.604,5.394,11.771,5.935C639.295,352.991,640.682,352.6,640.467,351.728z"/>
		<path fill="#010101" d="M684.221,303.726c-2.385-2.707-6.297-4.03-9.367-5.82c-3.563-2.077-6.99-4.435-10.219-7
			c-3.191-2.537-6.029-5.561-8.447-8.838c-2.143-2.906-4.484-7.896-8.76-4.684c-0.521,0.392-1.016,1.257-0.891,1.936
			c0.645,3.469,3.719,6.611,6.068,9.11c2.633,2.798,5.678,5.229,8.799,7.454c3.203,2.282,6.645,4.172,10.17,5.904
			c3.439,1.689,7.109,3.673,11.016,3.782C683.481,305.595,685.209,304.848,684.221,303.726z"/>
		<path fill="#010101" d="M684.289,296.799c-0.92-5.521-6.533-10.28-10.674-13.538c-4.35-3.421-10.586-8.143-16.352-7.842
			c-1.266,0.066-2.371,1.181-1.549,2.365c1.369,1.968,3.832,2.832,5.914,3.986c2.512,1.392,4.963,2.891,7.322,4.528
			c2.412,1.675,4.707,3.506,6.816,5.55c1.91,1.849,3.455,3.963,5.291,5.867C681.85,298.532,684.553,298.387,684.289,296.799
			L684.289,296.799z"/>
		<path fill="#010101" d="M686.051,287.618c-2.186-4.295-4.688-7.62-8.438-10.708c-3.121-2.571-8.666-7.262-13.002-5.812
			c-0.879,0.294-1.453,0.811-1.535,1.752c-0.16,1.816,1.865,2.768,3.205,3.581c1.857,1.127,3.742,2.198,5.576,3.361
			c3.932,2.493,8.004,5.521,10.99,9.109C683.744,289.979,686.879,289.248,686.051,287.618z"/>
		<path fill="#010101" d="M605.985,413.979c5.148-4.741,6.914-13.017,6.174-19.731c-0.754-6.855-4.574-13.364-9.621-17.946
			c-5.004-4.542-11.455-7.069-18.221-6.93c-8.863,0.182-17.381,6.055-21.656,13.66c-0.406,0.726,0.811,1.015,1.244,0.591
			c5.889-5.741,11.977-11.381,20.604-11.794c6.137-0.294,12.127,2.644,16.559,6.713c4.582,4.207,7.539,9.817,8.711,15.891
			c0.615,3.184,0.594,6.486-0.096,9.651c-0.771,3.544-2.617,6.463-4.182,9.666C605.358,414.038,605.807,414.142,605.985,413.979z"/>
	</g>
</g>
</svg>
