<?xml version="1.0" encoding="utf-8"?>
<!-- Generator: Adobe Illustrator 15.1.0, SVG Export Plug-In . SVG Version: 6.00 Build 0)  -->
<!DOCTYPE svg PUBLIC "-//W3C//DTD SVG 1.1//EN" "http://www.w3.org/Graphics/SVG/1.1/DTD/svg11.dtd">
<svg version="1.1" xmlns="http://www.w3.org/2000/svg" xmlns:xlink="http://www.w3.org/1999/xlink" x="0px" y="0px" width="1024px"
	 height="1024px" viewBox="0 0 1024 1024" enable-background="new 0 0 1024 1024" xml:space="preserve">
<g id="Layer_2">
	<g>
		<path fill="#231F20" d="M655.385,665.051L535.437,994.019c0,0,2.873,27.189,37.579,14.757
			c34.713-12.434,117.073-329.896,117.073-329.896L655.385,665.051z"/>
		<path d="M655.505,665.317c-2.309,6.849-4.655,13.684-7.022,20.511l-7.162,20.683l-14.54,41.286
			c-9.798,27.486-19.646,54.954-29.7,82.347c-5.028,13.696-10.149,27.358-15.321,41.002l-15.474,40.946
			c-5.173,13.643-10.25,27.321-15.271,41.02c-5.046,13.689-9.927,27.439-14.897,41.156l0.04-0.324
			c0.599,3.909,2.309,7.819,4.941,10.806c2.625,3.027,6.273,5.023,10.192,5.808c3.928,0.809,8.046,0.566,12.036-0.19
			c2.001-0.383,3.981-0.896,5.936-1.506c0.977-0.307,1.947-0.637,2.911-0.987c0.5-0.175,0.92-0.346,1.3-0.548
			c0.408-0.21,0.807-0.46,1.195-0.737c1.561-1.111,2.953-2.577,4.24-4.126c1.287-1.557,2.473-3.223,3.599-4.933
			c2.247-3.428,4.262-7.035,6.167-10.701c3.793-7.346,7.208-14.913,10.426-22.564c12.714-30.693,23.326-62.287,33.45-93.989
			c10.166-31.701,19.758-63.595,29.231-95.526c4.725-15.97,9.337-31.975,13.9-47.993c4.618-16.003,9.146-32.037,13.579-48.09
			l0.512,1.01L655.505,665.317z M655.271,664.794l35.135,13.291l0.696,0.264l-0.185,0.746c-3.997,16.186-8.176,32.317-12.398,48.441
			c-4.287,16.106-8.696,32.181-13.18,48.235c-8.958,32.111-18.487,64.069-28.752,95.805c-5.185,15.85-10.538,31.649-16.188,47.351
			c-5.655,15.697-11.582,31.313-18.287,46.63c-3.367,7.65-6.872,15.256-10.897,22.626c-2.017,3.682-4.148,7.313-6.547,10.803
			c-1.203,1.741-2.473,3.448-3.877,5.072c-1.409,1.616-2.934,3.177-4.8,4.45c-0.466,0.316-0.957,0.611-1.481,0.867
			c-0.546,0.274-1.102,0.475-1.588,0.634c-1.001,0.339-2.01,0.658-3.027,0.952c-2.034,0.592-4.102,1.087-6.2,1.447
			c-4.186,0.71-8.555,0.898-12.795-0.058c-4.229-0.922-8.23-3.212-11.013-6.558c-1.404-1.654-2.52-3.527-3.383-5.493
			c-0.858-1.981-1.488-4.006-1.786-6.204l-0.021-0.157l0.061-0.167c5.024-13.697,10.14-27.361,15.09-41.086
			c4.974-13.716,9.893-27.451,14.715-41.223l14.514-41.296c4.824-13.771,9.698-27.522,14.666-41.241
			c9.938-27.435,20.08-54.795,30.274-82.137l15.446-40.956l7.831-20.438c2.608-6.813,5.236-13.62,7.904-20.412L655.271,664.794z"/>
	</g>
	<g>
		<path d="M804.949,300.604c-4.987-2.348-10.127-4.351-15.406-5.906c-5.285-1.523-10.685-2.656-16.144-3.242
			c-10.913-1.207-22.006-0.41-32.575,2.28c-5.291,1.324-10.468,3.058-15.484,5.159c-5.007,2.128-9.855,4.601-14.533,7.355
			c-9.363,5.505-18.01,12.144-26.033,19.426c-8.058,7.257-15.423,15.253-22.35,23.593c-3.452,4.182-6.803,8.449-10.003,12.833
			c-3.239,4.353-6.322,8.825-9.324,13.351c-11.985,18.122-22.277,37.395-31.004,57.384c-4.378,9.99-8.335,20.179-11.821,30.54
			c-3.511,10.353-6.521,20.889-8.971,31.564c-4.854,21.334-7.472,43.354-6.157,65.264c0.663,10.935,2.274,21.833,5.202,32.365
			c2.932,10.512,6.999,20.743,12.718,29.977c2.834,4.624,6.03,9.012,9.574,13.084c3.57,4.05,7.495,7.768,11.715,11.095
			c4.214,3.334,8.733,6.266,13.481,8.753c4.728,2.483,9.752,4.576,14.818,6.43c10.15,3.674,20.697,6.088,31.323,6.95
			c5.312,0.437,10.639,0.479,15.932,0.148c5.293-0.308,10.556-1.004,15.738-2.072c10.36-2.163,20.435-5.66,29.941-10.396
			c9.511-4.726,18.509-10.535,26.879-17.187c8.379-6.645,16.146-14.098,23.343-22.084c7.208-7.979,13.835-16.512,19.913-25.431
			c12.122-17.865,22.271-37.122,30.416-57.196c8.174-20.066,14.345-40.972,18.284-62.284c0.983-5.328,1.861-10.677,2.546-16.051
			c0.732-5.369,1.306-10.76,1.694-16.165c0.737-10.808,0.948-21.673,0.201-32.498c-0.718-10.82-2.271-21.616-5.004-32.146
			c-1.361-5.264-3.007-10.461-4.961-15.548c-1.979-5.077-4.288-10.03-6.915-14.817c-5.225-9.591-11.938-18.417-19.904-25.978
			c-3.972-3.792-8.288-7.224-12.819-10.342C814.711,305.717,809.912,302.99,804.949,300.604z M805.504,299.428
			c5.045,2.358,9.92,5.09,14.578,8.155c4.677,3.039,9.101,6.465,13.287,10.166c8.373,7.412,15.605,16.106,21.665,25.573
			c3.021,4.741,5.716,9.696,8.119,14.792c2.43,5.086,4.556,10.323,6.396,15.663c3.675,10.683,6.277,21.748,7.905,32.951
			c1.596,11.208,2.345,22.55,2.149,33.875c-0.077,5.662-0.343,11.322-0.785,16.968c-0.489,5.641-1.131,11.269-1.975,16.867
			c-1.684,11.196-4.092,22.273-7.073,33.188c-2.958,10.924-6.6,21.657-10.749,32.188c-8.379,21.025-19.007,41.221-32.144,59.771
			c-13.106,18.531-28.593,35.614-46.888,49.48c-9.137,6.913-18.956,13.033-29.443,17.859c-10.475,4.816-21.58,8.451-33.021,10.271
			c-5.712,0.932-11.489,1.45-17.266,1.544c-5.777,0.071-11.549-0.294-17.248-1.063c-11.406-1.536-22.497-4.72-32.959-9.144
			c-5.229-2.224-10.342-4.661-15.285-7.586c-4.914-2.929-9.588-6.254-13.922-9.966c-4.336-3.711-8.312-7.82-11.905-12.218
			c-3.616-4.381-6.844-9.063-9.672-13.959c-5.624-9.813-9.857-20.344-12.742-31.195c-2.896-10.851-4.672-21.954-5.566-33.111
			c-1.748-22.327-0.337-44.825,3.301-66.94c1.823-11.063,4.248-22.034,7.203-32.87c2.982-10.828,6.522-21.513,10.608-31.996
			c8.221-20.94,18.679-41.071,31.474-59.689c12.779-18.599,28.053-35.668,45.895-49.665c8.924-6.973,18.511-13.128,28.674-18.104
			c5.082-2.484,10.313-4.658,15.665-6.458c5.341-1.823,10.802-3.289,16.34-4.3c5.539-1.007,11.145-1.584,16.75-1.733
			c5.606-0.12,11.214,0.178,16.748,0.97c5.532,0.795,11.002,1.987,16.324,3.654C795.274,294.997,800.484,297.03,805.504,299.428z"/>
	</g>
	<g>
		<path d="M659.541,669.202c5.2,2.183,10.477,4.142,15.849,5.758c5.373,1.611,10.839,2.854,16.341,3.788
			c5.507,0.908,11.064,1.438,16.622,1.59c5.56,0.145,11.117-0.141,16.627-0.777c5.51-0.644,10.964-1.713,16.321-3.135
			c5.362-1.402,10.626-3.185,15.755-5.297c10.258-4.237,20.011-9.681,29.194-15.991c9.215-6.272,17.852-13.449,25.867-21.29
			c4.01-3.918,7.868-8.001,11.578-12.222c3.685-4.241,7.213-8.624,10.57-13.138c6.691-9.044,12.736-18.57,18.121-28.451
			c5.418-9.865,10.079-20.128,14.273-30.549c4.157-10.442,7.692-21.113,10.755-31.899c3.044-10.792,5.585-21.718,7.499-32.748
			c1.908-11.03,3.178-22.164,3.704-33.32c0.516-11.155,0.417-22.334-0.626-33.427c-0.959-11.097-2.896-22.098-5.846-32.813
			c-2.974-10.704-7.071-21.106-12.472-30.815c-5.407-9.693-12.084-18.73-20.112-26.489c-4.016-3.87-8.288-7.496-12.843-10.761
			c-4.556-3.264-9.37-6.184-14.36-8.798l0.215-0.452c5.205,2.22,10.238,4.875,15.047,7.912c4.809,3.033,9.407,6.438,13.662,10.246
			c8.529,7.591,15.909,16.531,21.799,26.369c2.95,4.916,5.566,10.032,7.851,15.291c2.268,5.266,4.216,10.666,5.869,16.151
			c3.317,10.973,5.345,22.293,6.499,33.661c1.067,11.381,1.234,22.832,0.521,34.21c-0.708,11.38-2.172,22.694-4.279,33.873
			c-2.104,11.18-4.864,22.228-8.282,33.061c-3.4,10.838-7.494,21.443-12.076,31.81c-4.547,10.387-9.746,20.465-15.313,30.315
			c-5.604,9.832-11.677,19.396-18.296,28.581c-3.3,4.599-6.727,9.11-10.307,13.505c-3.556,4.415-7.273,8.706-11.162,12.848
			c-7.78,8.274-16.235,15.979-25.452,22.739c-9.238,6.716-19.269,12.445-29.933,16.695c-5.328,2.129-10.797,3.916-16.367,5.31
			c-5.576,1.374-11.254,2.332-16.966,2.873c-5.712,0.558-11.465,0.623-17.18,0.279c-5.718-0.331-11.397-1.128-16.976-2.331
			c-5.584-1.177-11.053-2.825-16.382-4.79c-5.331-1.962-10.524-4.269-15.522-6.917L659.541,669.202z"/>
	</g>
	<g>
		<path d="M606.134,546.899c-1.499,6.422-2.822,12.823-3.904,19.253c-0.279,1.605-0.522,3.216-0.759,4.825
			c-0.253,1.606-0.48,3.217-0.679,4.83c-0.392,3.227-0.772,6.448-1.11,9.682c-0.686,6.452-1.298,13.004-0.727,19.53
			c0.284,3.256,0.79,6.494,1.559,9.667c0.739,3.181,1.824,6.269,3.016,9.283c2.493,5.998,5.688,11.622,9.492,16.749
			c3.841,5.111,8.471,9.553,13.524,13.434c5.034,3.924,10.605,7.174,16.441,9.969c5.849,2.775,11.979,5.061,18.257,7.096
			l-0.086,0.391c-6.573-0.77-13.104-2.264-19.39-4.582c-6.295-2.289-12.325-5.459-17.795-9.469c-2.702-2.043-5.287-4.266-7.614-6.74
			c-2.33-2.469-4.474-5.111-6.393-7.901c-1.926-2.785-3.624-5.723-5.036-8.782c-1.425-3.056-2.534-6.238-3.47-9.443
			c-1.863-6.426-2.953-12.973-3.796-19.535c-0.802-6.563-1.501-13.216-1.305-19.889c0.104-3.331,0.41-6.656,0.923-9.945
			c0.252-1.645,0.532-3.285,0.839-4.92c0.321-1.632,0.689-3.254,1.071-4.871c0.779-3.23,1.693-6.428,2.777-9.566
			c1.079-3.138,2.283-6.235,3.788-9.204L606.134,546.899z"/>
	</g>
	<g>
		<path d="M842.162,453.906c2.045-6.677,3.882-13.357,5.46-20.085c0.403-1.679,0.77-3.366,1.127-5.053
			c0.373-1.684,0.72-3.372,1.037-5.065c0.628-3.388,1.238-6.774,1.799-10.173c1.132-6.785,2.167-13.679,1.981-20.618
			c-0.092-3.462-0.416-6.921-1.017-10.329c-0.571-3.413-1.505-6.753-2.562-10.024c-2.225-6.517-5.224-12.689-8.914-18.37
			c-3.728-5.669-8.336-10.686-13.438-15.123c-5.08-4.481-10.774-8.279-16.777-11.6c-6.018-3.303-12.365-6.096-18.881-8.62
			l0.109-0.385c6.89,1.279,13.684,3.308,20.167,6.181c6.491,2.845,12.648,6.591,18.157,11.185c2.721,2.332,5.304,4.847,7.602,7.608
			c2.303,2.755,4.396,5.682,6.245,8.75c1.854,3.064,3.46,6.273,4.76,9.594c1.313,3.316,2.289,6.745,3.079,10.191
			c1.569,6.903,2.31,13.895,2.765,20.887c0.414,6.99,0.682,14.066,0.024,21.102c-0.334,3.512-0.876,7.004-1.628,10.448
			c-0.373,1.723-0.774,3.438-1.203,5.146c-0.443,1.705-0.935,3.396-1.44,5.081c-1.028,3.365-2.193,6.687-3.531,9.937
			c-1.333,3.251-2.794,6.453-4.557,9.502L842.162,453.906z"/>
	</g>
</g>
<g id="Layer_3">
	<g>
		<path fill="#231F20" d="M776.788,533.188c0,0,28.798-82.705-35.752-102.413C693.896,488.664,776.788,533.188,776.788,533.188z"/>
		<path d="M776.657,532.857c2.352-9.801,3.929-19.74,4.563-29.693c0.163-2.51,0.25-5.021,0.255-7.53
			c0.027-2.507-0.027-5.012-0.178-7.508c-0.158-2.495-0.397-4.98-0.707-7.453c-0.337-2.468-0.74-4.925-1.251-7.36
			c-1.045-4.859-2.48-9.653-4.568-14.189c-2.063-4.544-4.83-8.794-8.229-12.498c-1.699-1.852-3.573-3.541-5.54-5.108
			c-1.992-1.538-4.094-2.936-6.285-4.175c-4.389-2.479-9.136-4.263-13.981-5.584l1.099-0.334c-3.169,4.143-5.916,8.582-8.116,13.231
			c-2.188,4.652-3.836,9.527-4.643,14.536c-0.815,5.003-0.762,10.116,0.142,15.083c0.923,4.961,2.536,9.807,4.807,14.371
			c4.436,9.203,11.053,17.347,18.411,24.682c3.703,3.661,7.631,7.118,11.711,10.407
			C768.162,526.957,772.322,530.036,776.657,532.857z M776.694,533.364c-9.526-4.655-18.396-10.665-26.43-17.712
			c-8-7.056-15.161-15.356-20.087-25.115c-2.383-4.895-4.23-10.132-5.037-15.583c-0.843-5.436-0.753-11.022,0.272-16.406
			c1.01-5.389,2.944-10.559,5.538-15.3c2.586-4.755,5.804-9.088,9.288-13.123l0.473-0.548l0.626,0.213
			c9.754,3.325,18.932,8.532,26.181,15.906c7.272,7.313,12.537,16.737,15.104,26.842c0.648,2.523,1.164,5.079,1.507,7.656
			c0.367,2.573,0.596,5.162,0.691,7.751c0.106,2.589,0.119,5.178,0.036,7.76c-0.107,2.582-0.3,5.156-0.569,7.719
			c-0.557,5.124-1.445,10.199-2.657,15.186c-1.215,4.985-2.685,9.906-4.651,14.641l-0.087,0.208L776.694,533.364z"/>
	</g>
	<g>
		<path d="M744.784,454.304c-0.987,0.693-2.091,1.136-3.227,1.458c-1.137,0.336-2.32,0.507-3.515,0.553
			c-2.375,0.066-4.867-0.313-7.004-1.489c-2.15-1.183-3.773-3.027-5.354-4.65c-1.582-1.649-3.145-3.286-4.665-5.062
			c-0.741-0.896-1.479-1.819-2.084-2.819c-0.62-0.992-1.125-2.044-1.594-3.107c-0.928-2.128-1.704-4.328-2.126-6.589
			c-0.412-2.262-0.592-4.551-0.541-6.832c0.055-2.281,0.271-4.553,0.856-6.802l0.4-0.017c0.776,2.181,1.311,4.334,1.873,6.458
			l1.588,6.292c0.51,2.073,0.92,4.156,1.502,6.197c0.293,1.019,0.624,2.023,0.948,3.037c0.335,1.008,0.638,2.045,1.048,3.044
			c0.78,2.011,1.981,3.897,3.667,5.25c1.679,1.382,3.825,1.997,5.769,2.522l2.912,0.813c0.977,0.252,1.971,0.468,2.989,0.645
			c2.041,0.354,4.155,0.563,6.438,0.716L744.784,454.304z"/>
	</g>
	<g>
		<path d="M751.729,450.099c1.302-1.742,2.535-3.338,3.701-4.949c0.582-0.803,1.144-1.605,1.691-2.411
			c0.534-0.816,1.079-1.612,1.665-2.4c1.166-1.56,2.52-3.192,3.133-5.151c0.635-1.939,0.644-4.044,0.235-6.031
			c-0.184-0.998-0.478-1.967-0.729-2.925c-0.267-0.957-0.521-1.905-0.824-2.842c-0.608-1.875-1.403-3.674-2.137-5.512
			c-0.725-1.845-1.497-3.696-2.275-5.595c-0.775-1.901-1.612-3.806-2.308-5.882l0.32-0.239c1.798,1.272,3.312,2.823,4.688,4.499
			c1.374,1.678,2.55,3.529,3.492,5.512c0.936,1.987,1.516,4.146,1.895,6.328c0.186,1.093,0.323,2.196,0.332,3.309
			c0.023,1.111-0.111,2.227-0.264,3.316c-0.343,2.186-0.793,4.266-1.173,6.377c-0.396,2.093-0.605,4.37-1.468,6.458
			c-0.427,1.038-1.011,2.001-1.705,2.874c-0.68,0.883-1.447,1.694-2.277,2.427c-0.832,0.731-1.725,1.392-2.695,1.929
			c-0.959,0.548-1.974,1.01-3.088,1.251L751.729,450.099z"/>
	</g>
	<g>
		<path fill="#231F20" d="M773.178,452.861c0,0,5.804-6.554,13.242-4.405"/>
		<path d="M773.029,452.728c-0.073-0.502-0.025-0.917,0.069-1.294c0.082-0.39,0.232-0.721,0.413-1.024
			c0.377-0.581,0.825-1.133,1.53-1.293c0.706-0.164,1.593,0.053,2.207-0.13c0.627-0.172,1.101-0.621,1.588-1.207
			c0.25-0.272,0.502-0.587,0.797-0.804c0.288-0.242,0.614-0.384,0.942-0.536c0.656-0.298,1.366-0.56,2.102-0.534
			c0.732,0.028,1.467,0.238,2.127,0.625c0.662,0.372,1.253,0.938,1.672,1.733l-0.111,0.385c-0.757,0.461-1.367,0.776-1.921,1.012
			c-0.555,0.246-1.046,0.421-1.535,0.514c-0.485,0.093-0.991-0.001-1.529-0.04c-0.523,0.011-1.112-0.135-1.776-0.302
			c-0.656-0.155-1.301-0.104-1.756,0.295c-0.468,0.386-0.631,1.233-0.938,1.755c-0.309,0.525-0.837,0.711-1.396,0.916
			c-0.289,0.09-0.596,0.164-0.96,0.192c-0.352,0.042-0.74,0.055-1.226,0.005L773.029,452.728z"/>
	</g>
	<g>
		<path fill="#231F20" d="M778.705,490.948c0,0,7.194-11.219,17.404-7.052"/>
		<path d="M778.537,490.839c-0.144-1.152,0.145-2.093,0.56-2.93c0.212-0.417,0.468-0.804,0.767-1.152
			c0.284-0.362,0.641-0.66,1.066-0.873c0.857-0.429,1.957-0.488,2.742-0.886c0.8-0.39,1.432-1.001,2.088-1.746
			c0.647-0.756,1.457-1.375,2.381-1.729c0.905-0.398,1.899-0.708,2.916-0.683c2.025,0.083,4.021,1.024,5.128,2.87l-0.15,0.37
			c-2.037,0.567-3.444,0.811-4.82,1.029c-0.681,0.093-1.377,0.035-2.114,0.07c-0.718,0.081-1.509,0.059-2.389,0.044
			c-0.875-0.008-1.708,0.251-2.303,0.833c-0.611,0.571-0.836,1.582-1.234,2.295c-0.204,0.358-0.459,0.651-0.77,0.895
			c-0.296,0.258-0.619,0.494-0.966,0.716c-0.703,0.442-1.478,0.832-2.565,1.092L778.537,490.839z"/>
	</g>
	<g>
		<path fill="#231F20" d="M747.803,502.908c0,0-11.602,0.497-17.406,8.313"/>
		<path d="M747.812,503.108c-0.757,0.805-1.484,1.263-2.225,1.624c-0.369,0.176-0.739,0.321-1.116,0.429
			c-0.372,0.128-0.759,0.18-1.17,0.148c-0.817-0.067-1.766-0.464-2.576-0.322c-0.812,0.126-1.512,0.61-2.081,1.281
			c-0.565,0.682-1.116,1.286-1.72,1.752c-0.582,0.51-1.112,1.042-1.738,1.428c-1.287,0.752-2.625,1.359-4.629,1.892l-0.32-0.238
			c-0.027-2.125,1.029-3.854,2.396-5.078c0.7-0.604,1.562-0.974,2.416-1.286c0.834-0.354,1.766-0.492,2.716-0.475
			c0.945,0.005,1.794-0.103,2.552-0.5c0.76-0.38,1.403-1.235,2.193-1.695c0.394-0.228,0.815-0.357,1.253-0.394
			c0.435-0.057,0.879-0.061,1.326-0.017c0.894,0.098,1.811,0.344,2.706,1.052L747.812,503.108z"/>
	</g>
	<g>
		<path fill="#231F20" d="M731.053,467.718c0,0-15.258-1.649-19.046,7.175"/>
		<path d="M731.031,467.916c-0.948,0.673-1.82,1.004-2.687,1.237c-0.432,0.113-0.859,0.195-1.287,0.24
			c-0.426,0.065-0.853,0.054-1.289-0.044c-0.868-0.197-1.81-0.739-2.704-0.719c-0.892,0.006-1.732,0.387-2.454,0.988
			c-0.721,0.609-1.394,1.156-2.077,1.572c-0.668,0.463-1.252,0.964-1.889,1.334c-1.307,0.736-2.568,1.347-4.454,2.446l-0.367-0.158
			c-0.477-2.232,0.714-4.452,2.358-5.779c0.837-0.671,1.845-1.037,2.825-1.303c0.968-0.309,2.003-0.356,3.021-0.224
			c1.017,0.118,1.943,0.132,2.832-0.151c0.886-0.263,1.739-1.007,2.669-1.335c0.463-0.162,0.938-0.22,1.412-0.185
			c0.474,0.015,0.947,0.084,1.417,0.201c0.938,0.245,1.87,0.637,2.717,1.48L731.031,467.916z"/>
	</g>
</g>
<g id="Layer_1" display="none">
	<g id="girl" display="inline">
		<path fill="#010101" d="M335.857,162.728c-3.141,0.3-0.776,4.628,1.098,5.11c21.391,5.529,41.402,15.046,58.261,29.401
			c27.141,23.121,47.056,54.596,60.981,87.161c14.436,33.763,23.87,70.858,23.886,107.746c0.014,34.938-8.298,66.821-31.672,93.486
			c-32.378,36.929-81.822,63.659-131.117,67.824c-45.965,3.879-90.516-18.481-119.426-54.05
			c-24.491-30.133-29.793-72.767-28.715-110.368c1.173-40.892,8.926-83.18,27.412-119.995c21.405-42.63,57.564-73.639,98.509-96.621
			c8.711-4.89-2.686-15.114-8.991-14.772c-40.646,2.21-72.387,36.973-94.836,67.925c-18.727,25.816-30.805,54.844-37.908,85.892
			c-9.533,41.691-12.896,86.002-4.389,128.201c3.851,19.085,10.003,37.905,20.099,54.641c11.569,19.183,28.623,35.319,46.554,48.582
			c38.987,28.826,84.994,41.2,132.878,29.88c47.385-11.204,95.491-37.235,124.824-77.06c43.225-58.682,30.428-140.626,4.393-203.938
			c-14.012-34.076-33.429-66.771-60.221-92.376C395.866,178.745,366.972,159.761,335.857,162.728L335.857,162.728z"/>
		<path fill="#010101" d="M322.316,111.782c6.812,5.676,19.117,21.772,11.619,30.843c-3.433,4.154-8.229,8.808-13.694,10.078
			c-4.277,0.998-7.09,0.392-9.392-0.952c-2.034-1.188-5.075-4.119-6.151-6.068c-3.197-5.787-4.802-14.148,0.123-17.649
			c11.414-8.116,25.393,2.684,37.491-1.985c2.661-1.028,1.873-5.062,0.457-6.696c-10.486-12.116-42.405-17.913-53.414-2.466
			c-8.172,11.47-3.879,27.549,4.725,37.611c9.746,11.402,25.98,18.758,40.111,10.273c9.167-5.506,17.176-15.468,14.559-26.774
			c-3.105-13.417-13.25-23.123-25.634-28.278C321.662,109.113,321.406,111.021,322.316,111.782z"/>
		<path fill="#010101" d="M290.272,121.072c1.942,1.759,4.24,0.018,2.82-2.241c-26.209-41.869-69.935-68.394-115.981-83.621
			c-24.432-8.079-50.561-12.77-76.357-12.566c-7.921,0.063-15.873,0.801-23.797,0.595c-4.896-0.127-10.752-2.317-14.703-1.081
			c2.723,0.894,5.445,1.787,8.169,2.68c0.951,1.384,1.907,2.767,2.861,4.149c-0.62-3.827-4.314-6.16-7.791-6.837
			c-2.216-0.429-4.974-0.07-6.483,1.818c-3.106,3.879-0.536,8.774,2.511,11.729c5.136,4.976,12.47,4.161,18.994,3.731
			c7.429-0.489,14.856-1.078,22.29-1.521c23.519-1.4,47.933,2.054,70.352,9.16c22.871,7.242,45.116,16.353,65.04,29.873
			C257.063,89.743,273.407,105.829,290.272,121.072L290.272,121.072z"/>
		<path fill="#010101" d="M340.244,119.174c10.586-2.292,17.547-12.514,24.525-20.135c7.725-8.438,15.591-16.854,24.183-24.42
			c13.626-12.001,28.361-22.231,44.334-30.882c16.724-9.06,34.498-16.928,53.229-20.724c16.306-3.308,29.249-2.089,44.938,2.646
			c9.01,2.72,11.592-8.107,5.067-13.023c-30.973-23.333-80.812-3.308-110.477,12.716c-16.604,8.968-31.93,19.844-45.934,32.485
			c-10.217,9.228-19.249,19.487-27.944,30.141c-6.511,7.974-15.407,16.567-16.446,27.227
			C335.511,117.37,338.142,119.625,340.244,119.174z"/>
		<path fill="#010101" d="M528.105,26.039c12.489,13.845,19.902,34.761,24.1,52.62c4.262,18.131,6.894,37.232,4.226,55.783
			c0.986-1.625,1.976-3.249,2.962-4.874c-64.211,40.884-144.707,25.68-216.134,23.016c-4.69-0.174-3.632,5.773-0.407,7.273
			c26.567,12.362,55.975,14.69,85.025,15.228c32.613,0.604,66.284-1.062,97.892-9.726c13.418-3.675,27.038-8.262,38.822-15.822
			c7.543-4.835,9.714-7.213,8.939-16.384c-0.657-7.771-0.942-15.554-2.062-23.285c-4.76-32.844-15.72-63.275-39.88-86.589
			C529.378,21.149,525.823,23.516,528.105,26.039z"/>
		<path fill="#010101" d="M72.257,28.091c-5.269,3.382-9.62,5.418-14.033,10.27c-3.845,4.227-7.052,8.58-9.991,13.483
			c-6.574,10.972-11.792,22.689-15.281,35.013c-6.37,22.497-8.775,47.14-0.528,69.469c1.581,4.285,9.576,9.857,14.104,6.409
			c3.994-3.041,4.663-4.455,5.619-9.392c0.896-4.631-5.235-8.605-9.198-8.073c-2.165,0.258-4.32,0.575-6.472,0.948
			c4.051,2.361,8.103,4.722,12.155,7.084c-6.99-20.035-4.523-43.025,1.146-63.082c2.977-10.549,6.71-21.052,11.67-30.844
			c4.498-8.88,8.861-19.212,14.457-27.368C77.237,30.066,74.315,26.766,72.257,28.091z"/>
		<path fill="#010101" d="M290.841,149.985c-7.874,2.066-15.231,6.166-23.156,8.421c-8.25,2.346-16.732,3.971-25.253,4.987
			c-18.709,2.231-37.601,2.251-56.417,1.966c-47.572-0.712-93.561-0.407-139.773-13.702c0.484,5.77,0.966,11.537,1.449,17.305
			c5.676,0.338,12,2.007,17.137-1.09c2.37-1.432,1.818-4.354,0.43-6.277c-5.019-6.959-13.029-9.871-21.375-10.411
			c-12.086-0.784-6.669,15.009,1.449,17.305c49.007,13.844,98.194,11.937,148.507,10.843c19.716-0.43,39.714-1.453,59.016-5.773
			c12.896-2.887,33.929-8.003,39.926-21.506C293.225,151.047,291.826,149.732,290.841,149.985z"/>
		<path fill="#010101" d="M335.521,167.123c15.441,11.778,28.721,28.479,36,46.526c3.821,9.478,6.636,19.883,6.438,30.191
			c-0.17,8.877-3.524,17.726-2.594,26.476c0.239,2.261,4.213,5.484,6.44,3.743c7.977-6.239,8.65-19.774,8.004-29.2
			c-0.787-11.45-3.427-22.644-8.326-33.069c-9.616-20.462-24.326-36.908-43.521-48.736
			C334.893,161.164,332.878,165.115,335.521,167.123z"/>
		<path fill="#010101" d="M317.105,170.937c-2.653-0.049-3.271,2.632-1.799,4.514c5.161,6.622,11.346,10.64,13.938,19.19
			c2.333,7.691,3.03,15.661,1.995,23.649c-1.154,8.893-3.47,17.539-7.43,25.62c-3.11,6.349-7.199,11.968-10.446,18.175
			c-1.065,2.034,2.028,4.626,3.918,4.178c19.673-4.697,27.635-32.928,27.324-50.35c-0.183-10.252-1.999-20.156-7.193-29.105
			C333.481,180.027,325.597,171.095,317.105,170.937L317.105,170.937z"/>
		<path fill="#010101" d="M298.526,173.141c-1.076-1.535-4.87-1.972-4.139,0.78c4.054,15.388,6.386,30.373,0.831,45.807
			c-2.85,7.923-6.772,15.194-11.981,21.834c-4.136,5.269-8.904,10.047-11.58,16.245c-1.279,2.955,2.881,7.279,5.9,6.291
			c16.961-5.554,27.474-26.788,30.925-43.158C311.942,204.529,308.144,186.847,298.526,173.141L298.526,173.141z"/>
		<path fill="#010101" d="M352.542,321.348c2.052,8.011,2.832,18.568,2.237,26.796c-0.158,2.171-0.237,4.604-1.346,6.556
			c-0.429,0.755-0.337-0.238,0.81,0.562c2.22,1.545,0.24-0.382-0.26-1.744c-0.626-1.702-1.031-3.538-1.314-5.326
			c-0.722-4.574-0.938-9.339-0.158-13.931c0.26-1.553,0.636-3.161,1.348-4.581c0.829-1.639,1.208-0.659-0.308-0.964
			c-3.979-0.798-0.995,0.683-0.979,4.137c0.008,2.464-0.104,4.933-0.589,7.359c-0.708,3.538-1.849,7.552-4.336,10.26
			c4.418,0.918,8.834,1.833,13.252,2.754c-5.216-6.092-5.282-13.098-1.609-20.043c-4.862-0.393-9.72-0.786-14.58-1.179
			c9.226,10.377,0.326,22.872,5.703,34.171c1.071,2.253,3.747,4.191,6.339,3.696c18.425-3.519,8.945-35.755,0.798-44.807
			c-3.692-4.096-11.217-7.661-14.583-1.178c-6.107,11.778-3.544,26.485,5.41,36.11c2.938,3.158,9.45,7.381,13.252,2.755
			c10.659-12.975,9.471-39.172-6.405-47.358c-18.038-9.302-19.234,19.825-17.486,30.04c1.365,7.999,4.215,16.288,11.205,21.043
			c5.146,3.5,13.451,3.687,16.69-2.418c6.497-12.243-2.294-33.127-9.388-43.408C355.281,319.256,351.908,318.893,352.542,321.348z"
			/>
		<path fill="#010101" d="M314.165,320.433c-1.752-1.616-6.548-2.354-6.483,1.267c0.194,10.945,2.855,27.383-7.369,35.075
			c4.066,1.849,8.136,3.698,12.202,5.547c-4.43-7.763-9.528-24.648-6.129-33.264c0.96-2.432-1.942-2.322-2.134-3.21
			c0.641,3.014,0.477,6.083-0.004,9.122c-0.735,4.664-2.619,12.062-4.464,15.083c5.15,1.691,10.3,3.379,15.451,5.067
			c-1.646-4.15-3.867-8.332-2.904-12.922c-5.549-1.129-11.092-2.259-16.644-3.39c3.548,5.842,5.979,12.429,8.809,18.645
			c1.486,3.263,7.242,6.153,9.331,1.901c3.96-8.054,2.345-15.991-2.017-23.55c-3.554-6.155-15.009-11.582-17.061-1.381
			c-1.721,8.549,1.35,15.863,4.526,23.679c2.626,6.45,12.415,10.164,16.481,3.356c5.054-8.461,7.14-21.72,5.571-31.352
			c-1.701-10.441-12.844-23.137-24.566-17.275c-9.483,4.737-7.778,18.727-6.191,27.26c1.688,9.065,4.028,18.867,9.053,26.72
			c2.617,4.088,8.662,5.834,12.442,2.584C323.886,359.226,326.076,331.425,314.165,320.433L314.165,320.433z"/>
		<path fill="#010101" d="M435.198,415.713c-1.958,2.508-8.146-3.552-4.556,0.123c-0.408-0.457-0.398-0.428,0.041,0.088
			c0.366,0.595,0.832,1.105,1.252,1.665c-0.379-1.765-0.757-3.532-1.136-5.295c-0.718,2.479-0.147,4.589,1.396,6.645
			c2.307-2.629,4.61-5.254,6.918-7.884c-2.736-1.383-5.561-2.498-8.408-3.626c-2.224-0.881-5.003-1.614-6.884-2.948
			c-3.144-2.231-8.781-1.949-10.321,2.075c-1.695,4.414,1.862,8.772,5.322,10.992c4.815,3.092,11.957,4.285,16.716,3.068
			c5.443-1.389,4.086-7.792,0.677-10.673c0.644,1.088,0.178,0.649-1.396-1.326c-0.862-0.737-1.799-1.355-2.811-1.857
			c-1.531-0.828-3.123-1.25-4.789-1.663c-1.86-0.463-3.66-0.991-5.494-1.545c0.431,5.114,0.858,10.229,1.285,15.343
			c2.126-0.053,4.846,1.143,6.979,1.72c2.818,0.763,5.596,1.484,8.477,1.962c6.501,1.081,5.978-7.597,2.235-10.388
			c-2.062-1.535-4.402-2.908-7.078-2.165c1.398,0.284,2.797,0.569,4.197,0.854c-0.436-0.277-0.862-0.563-1.295-0.841
			c-1.479-0.624-1.805-0.776-0.978-0.455c-0.154-0.077-0.309-0.153-0.462-0.231c-1.097-0.498-2.224-1.083-3.469-1.03
			c-2.5,0.105-4.195,1.414-3.681,4.131C428.42,415.007,432.984,418.541,435.198,415.713z"/>
		<path fill="#010101" d="M235.531,402.469c0.587-2.711-0.318-5.104-2.427-6.949c-1.864-1.637-4.837-2.77-7.205-1.5
			c-3.472,1.862-6.458,5.136-9.388,7.772c4.758,2.734,9.517,5.47,14.272,8.202c0.122-2.003,0.411,0.597-1.026,1.972
			c-1.654,0.589-3.302,1.178-4.956,1.768c0.041,0.002,0.082,0.004,0.123,0.006c-1.338-0.43-2.67-0.856-4.009-1.29
			c-0.509-0.36-1.016-0.72-1.524-1.082c-0.913-1.197-1.826-2.396-2.743-3.593c0.039,0.096,0.072,0.195,0.109,0.295
			c1.738,4.712,9.971,9.173,13.995,4.589c4.123-4.7-1.576-11.976-6.369-13.278c1.539,0.685,1.98,0.869,1.315,0.569
			c-1.243-0.722-2.579-1.151-4.007-1.289c-1.792-0.145-3.885,0.31-5.077,1.772c-1.096,1.346-1.443,2.887-1.355,4.582
			c0.191,3.708,2.142,6.816,5.399,8.676c2.645,1.508,6.639,2.108,8.876-0.475c1.459-1.683,2.591-3.814,3.679-5.732
			C234.137,405.847,235.128,404.314,235.531,402.469L235.531,402.469z"/>
		<path fill="#010101" d="M424.845,412.229c-6.46,4.299-10.584,11.621-17.015,16.197c-6.873,4.896-14.548,8.611-22.725,10.764
			c-18.255,4.809-37.605,4.953-56.258,2.659c-35.013-4.307-68.791-15.643-98.296-34.988c-0.878,4.219-1.752,8.44-2.627,12.657
			c4.741,1.802,10.123,2.054,15.174,2.112c4.549,0.055,2.852-4.909,0.367-6.579c-4.203-2.824-8.461-5.793-12.918-8.19
			c-8.169-4.393-13.012,5.021-6.317,10.533c13.767,11.338,31.825,18.676,48.516,24.422c20.412,7.027,41.855,11.981,63.428,13.542
			c19.825,1.438,40.393,0.601,59.09-6.796c13.15-5.201,33.279-16.986,33.94-33.199C429.279,413.548,426.698,410.996,424.845,412.229
			z"/>
		<path fill="#010101" d="M480.548,324.456c6.991,10.325,18.505,7.252,28.596,4.402c8.364-2.36,14.826-2.75,21.418,4.018
			c4.848,4.981,7.248,11.803,6.184,18.738c-1.995,13.02-12.717,25.28-26.62,24.523c-5.566-0.303-11.078-1.113-16.417-2.768
			c-1.915-0.597-3.843-1.211-5.734-1.891c-0.601-0.226-1.207-0.431-1.822-0.612c-3.161-0.798-2.473-0.284,2.066,1.543
			c0.939,1.964,1.884,3.929,2.824,5.893c-1.026,1.937-1.151,2.433-0.371,1.498c2.413-2.595-0.358-6.765-2.814-8.087
			c-4.987-2.684-11.911-0.288-8.609,6.313c3.156,6.303,11.011,8.515,17.381,9.977c17.882,4.106,37.653,3.958,48.332-13.787
			c11.321-18.813,6.751-40.512-11.016-53.547c-7.923-5.809-16.931-8.617-26.655-5.84c-8.389,2.397-16.177,6.847-25.151,5.641
			C479.607,320.132,479.525,322.942,480.548,324.456z"/>
		<path fill="#010101" d="M154.648,319.938c1.096,0.802,4.125,1.995,4.644-0.248c1.59-6.846-5.891-13.659-11.418-16.538
			c-8.387-4.366-17.774-6.415-27.229-5.281c-18.947,2.271-35.339,17.524-35.881,37.389c-0.531,19.208,10.284,38.321,25.586,49.651
			c7.687,5.688,16.016,10.335,25.534,12.034c7.027,1.254,19.177,2.321,22.598-5.521c1.508-3.466-2.173-7.771-5.359-8.609
			c-6.217-1.637-12.084,1.164-18.429,0.076c-5.77-0.989-11.663-3.531-16.294-7.146c-9.893-7.725-18.267-18.709-19.431-31.614
			c-1.215-13.46,7.422-29.269,21.104-32.818c6.403-1.662,13.692-2.427,20.174-0.591C146.668,312.54,149.559,316.209,154.648,319.938
			L154.648,319.938z"/>
		<path fill="#010101" d="M129.291,335.79c-5.274,3.021-9.07,6.916-8.912,13.399c0.176,7.301,6.214,13.708,13.382,14.543
			c2.44,0.287,4.668-1.367,4.799-3.869c0.127-2.353-1.23-4.095-2.734-5.706c-1.549-1.651-3.08-2.091-2.9-4.319
			c0.241-2.986,1.076-6.072,2.42-8.734C136.849,338.125,131.985,334.249,129.291,335.79z"/>
		<path fill="#010101" d="M513.491,346.394c-1.677-2.14-7.191-3.054-6.167,1.167c0.722,2.984,0.987,5.775,0.831,8.833
			c0.69-1.141,1.387-2.281,2.079-3.423c-2.165,0.835-4.755,1.097-6.798,2.202c-2.578,1.396-2.318,4.758-0.848,6.808
			c3.624,5.052,10.967,4.422,15.825,1.79c1.895-1.025,2.202-2.973,1.955-4.911C519.749,353.994,516.402,350.104,513.491,346.394
			L513.491,346.394z"/>
		<path fill="#010101" d="M495.216,385.946c-1.535,9.575,4.49,21.181,8.613,29.401c6.45,12.866,14.145,25.472,23.939,36.092
			c8.136,8.818,17.809,17.811,29.958,20.309c12.658,2.603,21.639-3.957,29.337-13.304c2.142-2.603,0.95-5.748-0.636-8.243
			c-0.256-0.407-0.515-0.815-0.774-1.223c-2.134-3.354-6.786-4.95-10.412-3.458c-2.924,1.201-4.517,4.71-4.833,7.657
			c-0.268,2.493,1.77,4.753,3.71,5.961c0.411,0.257,0.823,0.513,1.234,0.769c1.854,1.154,4.734,1.712,6.726,0.544
			c0.421-0.25,4.823-2.654,1.342-1.486c-2.939-1.338-5.881-2.674-8.824-4.012c0.332,0.37,0.663,0.741,0.993,1.107
			c-0.489-2.286-0.979-4.57-1.469-6.855c-23.472,41.652-66.774-47.701-75.945-63.021
			C497.576,385.183,495.507,384.121,495.216,385.946z"/>
		<path fill="#010101" d="M492.038,425.237c-0.345-1.592-3.659-3.854-4.503-1.449c-3.86,11.013,0.196,23.975,3.446,34.645
			c4.739,15.568,11.314,30.905,20.207,44.572c14.468,22.235,40.694,42.773,63.778,18.781c3.92-4.077-1.529-11.315-5.877-12.255
			c-0.687-0.152-1.371-0.301-2.058-0.445c-2.079-0.454-5.171-0.841-6.618,1.293c-2.343,3.457-2.31,6.309-0.786,10.146
			c0.731,1.834,2.791,3.199,4.709,3.393c0.687,0.068,4.765-0.685,4.02-0.841c-1.958-4.086-3.921-8.169-5.879-12.255
			C528.031,547.141,496.761,447.209,492.038,425.237L492.038,425.237z"/>
		<path fill="#010101" d="M150.177,403.145c-2.649,44.764-77.533,64.437-97.799,22.433c-2.943,2.366-5.889,4.73-8.836,7.097
			c2.979,1.396,5.877,2.699,9.034,3.61c2.515,0.724,5.653-0.767,4.762-3.845c-1.557-5.382-4.719-8.438-9.306-11.498
			c-5.284-3.521-11.842,1.039-8.836,7.096c12.941,26.08,42.321,38.358,70.463,32.271c27.508-5.953,48.159-26.425,45.824-55.464
			C155.283,402.341,150.393,399.547,150.177,403.145z"/>
		<path fill="#010101" d="M153.719,443.516c-0.767,26.819-34.062,38.138-55.562,42.679c-14.42,3.047-29.271,4.512-43.993,3.283
			c-9.715-0.813-21.656-2.076-28.855-9.415c-0.247,3.916-0.495,7.833-0.743,11.751c5.785-1.533,12.19-1.342,17.252-4.825
			c2.961-2.038,1.12-6.351-1.647-7.687c-7.314-3.532-14.465-3.794-22.296-1.678c-6.26,1.691-4.132,8.322-0.743,11.752
			c20.929,21.145,63.424,16.267,89.176,9.633c23.961-6.173,62.791-23.198,52.604-54.443
			C158.298,442.694,153.817,440.039,153.719,443.516z"/>
		<path fill="#010101" d="M168.351,484.98c-1.035-3.033-7.366-5.288-6.466-0.528c3.509,18.596-21.389,26.816-35.044,30.006
			c-16.376,3.823-32.522,4.608-49.218,3.569c1.595,4.673,3.196,9.345,4.792,14.018c3.565-0.626,6.54-0.979,8.177-4.433
			c0.902-1.906-0.57-4.192-1.895-5.435c-3.187-2.99-6.893-3.481-11.08-4.146c-9.182-1.457-5.612,12.259,1.15,13.72
			C105.386,537.501,182.446,526.289,168.351,484.98L168.351,484.98z"/>
		<path fill="#010101" d="M283.053,129.093c-7.258-9.843-20.275-16.488-31.13-21.419c-13.339-6.058-27.395-11.035-41.972-13.057
			c-12.965-1.794-25.208-1.141-37.445,3.698c-6.238,2.47-15.665,6.24-16.458,14.095c-1.604,15.795,23.949,23.452,35.223,26.388
			c10.172,2.65,20.678,4.815,31.173,5.682c7.86,0.649,16.18,1.551,22.811-3.351c3.886-2.871-0.438-7.516-3.842-8.118
			c-13.94-2.468-28.233-2.482-42.162-5.533c-7.403-1.623-14.935-3.41-21.983-6.254c-2.386-0.961-5.192-2.005-7.193-3.664
			c-1.543-1.28-0.812-1.432-1.209-0.314c1.983-5.547,11.26-8.009,16.108-9.712c10.336-3.623,22.055-2.775,32.624-0.69
			c23.016,4.541,41.553,16.193,62.472,25.655C282.666,133.67,284.927,131.635,283.053,129.093z"/>
		<path fill="#010101" d="M358.761,127.838c23.763,3.107,42.495-16.526,64.365-22.042c6.679-1.686,13.962-1.617,20.79-0.894
			c3.307,0.354,13.309,0.769,14.75,4.746c2.461,6.797-6.501,12.348-11.639,13.83c-7.69,2.22-15.768,3.15-23.763,3.24
			c-13.26,0.15-27.87-3.538-40.788-0.7c-4.475,0.982-1.883,6.21,0.636,7.772c15.547,9.638,40.925,8.613,58.418,6.004
			c15.159-2.263,37.527-11.366,30.112-31.204c-6.262-16.751-29.628-17.767-44.529-16.934c-12.37,0.694-23.139,6.192-33.741,12.305
			c-12.143,6.997-24.214,13.15-37.2,18.411C353.046,123.64,356.906,127.596,358.761,127.838z"/>
		<path fill="#010101" d="M415.653,562.351c-2.204-1.647-7.205-2.024-6.191,2.202c1.989,8.312,7.094,16.495,10.802,24.177
			c4.428,9.167,8.477,18.547,12.056,28.075c7.664,20.401,13.7,41.467,18.269,62.775c8.598,40.131,13.626,80.934,13.464,122.011
			c-0.043,11.398,21.979,21.006,21.963,7.039c-0.01-6.638-0.958-12.155-5.349-17.346c-2.284-2.701-6.973-5.816-10.608-3.524
			c-5.187,3.261-5.998,7.999-6.004,13.829c7.32,2.346,14.641,4.69,21.963,7.037c-0.42-43.722-5.674-88.016-16.53-130.397
			c-5.611-21.901-12.364-43.622-21.447-64.355C440.538,596.763,431.09,573.894,415.653,562.351L415.653,562.351z"/>
		<path fill="#010101" d="M207.749,550.073c0.922-3.286-4.328-8.365-7.043-5.024c-13.769,17.028-23.991,36.868-34.181,56.156
			c-10.597,20.063-20.497,40.568-29.12,61.562c-8.961,21.812-16.659,44.27-21.481,67.391c-2.179,10.446-4.141,20.935-5.104,31.576
			c-0.914,10.076-2.877,22.032,0.252,31.803c1.705,5.314,5.947,9.898,11.824,10.374c3.638,0.297,8.223-2.126,7.923-6.386
			c-0.143-1.958-0.342-3.838-0.683-5.771c-0.625-3.552-4.126-6.136-7.518-6.599c-1.266-0.257-2.541-0.392-3.827-0.413
			c3.858,5.001,7.711,10.006,11.568,15.007c3.033-9.618,1.314-20.958,2.29-31.019c1.083-11.221,2.594-22.472,5.013-33.489
			c4.86-22.132,11.682-43.825,19.692-65.012c8.064-21.313,17.266-42.151,26.738-62.871
			C192.674,588.597,202.139,570.004,207.749,550.073L207.749,550.073z"/>
		<path fill="#010101" d="M486.484,812.471c-0.045-3.145-3.284-5.519-6.235-4.48c-9.897,3.45-18.128,10.536-28.409,13.72
			c-12.171,3.764-24.804,6.034-37.465,7.354c-25.103,2.612-50.244,2.702-75.45,2.562c-35.756-0.197-70.97-2.934-105.926-10.862
			c-38.397-8.715-75.757-21.14-113.146-33.35c0.573,6.858,1.146,13.712,1.723,20.57c7.638,0.21,15.598,2.32,23.157,0.704
			c8.871-1.896,3.389-11.947-1.234-15.069c-7.765-5.245-17.273-6.526-26.454-6.774c-14.566-0.392-7.723,17.494,1.724,20.569
			c40.641,13.246,81.263,26.743,123.179,35.413c35.427,7.326,70.787,9.737,106.882,9.8c27.83,0.046,56.301-0.724,83.633-6.367
			C448.705,842.908,486.814,834.821,486.484,812.471L486.484,812.471z"/>
		<path fill="#010101" d="M410.817,839.509c-0.431-1.034-3.167-2.118-3.075-0.254c1.365,26.669-1.235,52.681-8.188,78.483
			c-6.417,23.81-13.892,47.275-17.096,71.803c-0.653,5.017,5.874,10.607,10.714,9.399c6.22-1.551,13.939-2.502,20.16-0.464
			c0.509,0.166,2.549,1.438,1.966,0.522c-0.866-1.359-0.978,1.674-1.414,2.479c-2.032,3.765-5.128,7.913-9.55,8.979
			c-16.339,3.938-34.01-3.805-49.481-8.498c1.738,1.25,3.472,2.499,5.212,3.747c-0.023-0.031-0.043-0.059-0.066-0.092
			c-1.348,3.382-2.695,6.769-4.043,10.15c3.82,0.472,6.239,0.195,9.071-2.413c2.081-1.919,0.252-5.805-1.537-7.172
			c-2.805-2.144-5.271-3.394-8.699-4.311c-7.143-1.905-9.198,4.473-5.939,9.771c2.889,4.692,11.019,5.747,15.889,7.249
			c7.264,2.231,14.59,4.346,22.084,5.665c13.231,2.324,29.881,3.001,38.225-9.7c17.218-26.197-18.933-35.28-38.498-29.967
			c3.571,3.132,7.141,6.267,10.712,9.399C402.849,943.245,431.9,890.242,410.817,839.509L410.817,839.509z"/>
		<path fill="#010101" d="M377.6,844.878c-0.673-1.057-3.181-1.673-3.255,0.164c-0.735,19.825-1.611,39.145-5.926,58.626
			c-2.077,9.394-2.867,19.034-4.27,28.539c-1.234,8.377-1.459,19.608-6.19,26.866c-6.382,9.785-16.974,20.628-18.611,32.633
			c-1.208,8.842,12.619,24.461,20.22,14.195c1.904-2.57,0.531-5.899-1.673-7.813c-1.461-1.27-2.855-2.402-4.717-3.046
			c-2.771-1.286-2.438-0.359,1.003,2.783c0.268-1.971,1.119-3.909,2.019-5.668c2.867-5.601,6.517-10.709,10.08-15.875
			c2.963-4.301,6.753-8.854,7.927-14.021c1.668-7.365,2.924-14.792,3.847-22.282c2.101-17.098,4.817-34.373,6.175-51.527
			C385.395,873.704,385.812,857.743,377.6,844.878L377.6,844.878z"/>
		<path fill="#010101" d="M220.415,826.303c-0.394-1.424-3.538-3.796-4.336-1.402c-3.898,11.813-3.45,24.913-4.217,37.227
			c-0.847,13.669-1.94,27.322-3.25,40.952c-2.652,27.666-6.462,55.203-11.529,82.53c-0.932,5.036,6.133,10.725,10.833,9.505
			c14.013-3.636,28.487,1.081,26.211,17.796c1.381-1.573,2.762-3.146,4.141-4.72c-23.831,7.047-48.026-3.622-72.175-0.016
			c-5.034,0.753-4.924,7.066-2.274,10.188c5.439,6.405,11.049,8.926,18.89,5.471c2.583-1.137,2.006-5.056,0.461-6.756
			c-1.695-1.873-3.1-3.254-5.448-4.275c-0.688-0.299-4.162-2.444-2.623-0.531c-0.761,3.398-1.516,6.792-2.274,10.188
			c24.173-3.62,48.034,7.131,72.16-0.016c2.48-0.737,3.788-2.118,4.141-4.72c3.663-27.008-23.862-43.172-47.909-36.817
			c3.614,3.168,7.221,6.337,10.835,9.505c4.597-27.533,7.966-55.237,9.736-83.1c0.88-13.817,1.43-27.678,1.471-41.524
			C223.3,852.651,223.938,839.067,220.415,826.303L220.415,826.303z"/>
		<path fill="#010101" d="M179.477,819.861c-0.892-2.073-5.269-2.963-4.646,0.217c9.7,49.36-7.806,100.369-17.747,148.008
			c-1.979,9.505-2.508,19.175-4.782,28.609c-1.324,5.507-2.895,11.054-1.92,16.741c0.905,5.276,6.753,10.728,12.247,10.612
			c7.688-0.16,12.115-3.163,16.459-9.31c2.6-3.681-2.111-7.976-5.803-7.599c-4.602,0.47-8.349,1.506-12.81,2.275
			c-3.729,0.641,4.091,7.947,4.578,3.459c0.084-0.987,0.215-1.967,0.39-2.941c1.013-5.292,2.661-10.473,3.428-15.816
			c3.101-21.611,8.876-42.218,13.333-63.555C189.586,895.225,194.031,853.714,179.477,819.861L179.477,819.861z"/>
		<path fill="#010101" d="M407.335,548.43c-2.561,1.627-0.016,4.691,1.879,5.464c8.874,3.614,18.664,4.494,27.677,7.792
			c8.725,3.193,17.357,7.677,24.605,13.556c14.716,11.932,24.628,26.585,31.864,43.976c0.835-3.733,1.666-7.467,2.501-11.199
			c-9.472,3.926-19.142,7.38-28.908,10.503c-8.342,2.664-23.216,6.181-15.412,18.445c2.723,4.273,7.915,6.039,12.684,5.762
			c7.488-0.437,15.67-4.511,22.695-6.996c7.811-2.766,15.573-5.65,23.195-8.902c4.352-1.853,4.095-7.675,2.501-11.197
			c-9.817-21.664-25.844-41.506-45.692-54.736C452.416,551.228,424.353,537.614,407.335,548.43L407.335,548.43z"/>
		<path fill="#010101" d="M213.103,537.102c3.833-1.593-0.407-6.438-2.492-7.238c-20.248-7.751-43.835,6.053-58.815,18.861
			c-16.895,14.451-31.615,33.27-37.526,55.012c-1.996,7.349,3.536,13,9.791,15.727c7.87,3.431,15.394,7.604,23.203,11.172
			c3.421,1.564,9.813,3.528,12.521-0.669c3.733-5.793,0.529-13.9-5.848-16.787c-9.656-4.375-18.974-9.413-28.81-13.4
			c3.263,5.241,6.525,10.484,9.789,15.727c4.599-19.356,16.349-37.352,30.515-51.128c7.283-7.084,15.222-13.321,24.202-18.121
			C197.193,542.217,205.26,540.37,213.103,537.102L213.103,537.102z"/>
		<path fill="#010101" d="M488.436,624.429c-3.165-1.727-5.844,1.215-3.64,4.145c10.921,14.553,22.71,28.513,31.822,44.339
			c7.819,13.583,19.099,32.126,18.652,48.377c-0.197,7.068,6.192,12.737,12.816,13.62c6.969,0.929,20.221,7.882,26.698,2.83
			c5.758-4.489,3.942-12.009-1.268-16.399c-2.73-2.3-5.437-3.542-8.863-4.279c-10.585-2.278-14.352,9.327-6.073,15.611
			c1.002,0.759,1.989,1.529,2.964,2.317c-1.063-4.958-2.124-9.916-3.187-14.872c3.837-3.146,4.324-1.752,0.154-2.744
			c-1.553-0.367-3.104-0.737-4.654-1.104c-3.325-0.757-6.728-1.706-10.148-1.782c3.901,2.813,7.804,5.627,11.707,8.439
			c-8.007-20.029-14.853-39.135-26.993-57.291C517.906,649.899,505.341,633.653,488.436,624.429L488.436,624.429z"/>
		<path fill="#010101" d="M548.261,738.072c1.578,6.896,2.9,14.316,3.329,21.385c0.217,3.538-0.435,6.111,1.005,9.759
			c1.59,4.029,6.233,7.229,10.579,6.67c9.261-1.186,2.423-13.599,0.819-17.952c-2.555-6.928-5.482-13.708-9.058-20.174
			C553.5,735.162,547.178,733.313,548.261,738.072z"/>
		<path fill="#010101" d="M537.999,745.449c-1.67-3.23-9.253-5.233-7.966,0.374c0.991,4.313,1.271,10.195-0.358,14.416
			c-1.596,4.125-5.206,8.363-4.838,12.803c0.416,4.933,5.104,10.747,10.725,9.407c7.706-1.833,8.747-10.931,8.223-17.798
			C543.244,757.569,541.243,751.719,537.999,745.449L537.999,745.449z"/>
		<path fill="#010101" d="M127.487,633.616c2.187-3.125-3.018-7.792-5.781-5.073c-17.115,16.825-31.25,36.324-47.465,53.966
			c-13.088,14.242-31.561,34.373-52.951,31.457c-2.975-0.405-5.6,1.175-6.841,3.815c-0.134,0.291-0.274,0.587-0.411,0.878
			c-3.188,6.793,6.401,14.954,12.752,13.591c2.435-0.521,3.634-1.785,5.701-2.969c2.466-1.422,2.036-4.765,0.457-6.696
			c-2.772-3.394-5.664-5.67-9.788-7.256c2.397,4.993,4.787,9.979,7.182,14.973c0.166-0.275,0.332-0.545,0.498-0.821
			c-2.706,0.53-5.411,1.061-8.118,1.592c24.786,5.367,44.842-13.89,59.538-31.403C99.591,679.013,112.121,655.585,127.487,633.616
			L127.487,633.616z"/>
		<path fill="#010101" d="M65.627,739.299c-1.634-4.344-10.907-7.62-11.422-0.927c-0.186,2.394,0.023,4.793-0.335,7.18
			c-0.125,0.831-0.414,1.715-0.759,2.491c0.012-0.031-1.165,2.052-0.471,1.104c-1.383,1.891-0.878,1.142-2.977,2.147
			c-2.246,1.073-3.945,2.29-4.647,4.836c-0.804,2.918,0.417,5.932,2.734,7.845c3.593,2.967,9.706,5.498,14.042,2.153
			c2.33-1.801,4.384-3.72,5.363-6.616C69.302,753.165,67.933,745.42,65.627,739.299L65.627,739.299z"/>
		<path fill="#010101" d="M42.411,742.379c1.486-3.152-3.357-6.827-6.166-5.405c-1.668,0.837-3.396,1.411-5.075,2.327
			c-1.942,1.06-3.757,2.659-5.283,4.252c-3.561,3.714-6.322,7.518-5.511,12.893c0.673,4.432,7.33,9.589,11.732,6.815
			c3.802-2.396,4.796-6.708,6.583-10.569c0.903-1.953,1.714-3.929,2.396-5.963C41.557,745.344,41.8,743.677,42.411,742.379
			L42.411,742.379z"/>
		<path fill="#010101" d="M376.982,558.029c-0.569-0.487-1.765-0.812-2.116,0.117c-2.541,6.558,0.207,14.719-2.05,21.668
			c-2.14,6.585-6.063,12.576-11.117,17.309c-11.799,11.045-28.271,16.9-44.116,18.799c-14.935,1.788-32.194,0.7-44.955-8.13
			c-13.663-9.452-13.963-27.004-10.175-41.658c-1.873,1.045-3.749,2.091-5.624,3.137c3.888,0.358,7.459,1.583,11.37,1.573
			c5.709-0.01,5.65-6.29,2.011-9.337c-4.884-4.09-10.117-6.097-16.474-6.682c-2.118-0.193-5.017,0.798-5.621,3.136
			c-5.382,20.88-3.035,44.132,15.104,58.257c16.004,12.46,36.662,16.131,56.527,14.028c19.024-2.017,39.597-9.098,52.791-23.608
			C383.077,595.044,391.376,570.362,376.982,558.029L376.982,558.029z"/>
		<path fill="#010101" d="M478.389,653.895c13.174,11.492,23.422,24.396,30.729,40.367c3.67,8.021,6.752,16.222,9.459,24.617
			c1.875,5.813,3.374,12.116,7.289,16.914c1.089,1.334,4.823,3.209,5.625,0.454c2.128-7.315-1.96-16.165-4.441-23.041
			c-3.472-9.623-7.3-19.321-12.523-28.148c-8.406-14.224-18.85-28.548-34.835-34.51
			C477.287,649.653,476.934,652.624,478.389,653.895z"/>
		<path fill="#010101" d="M130.015,653.398c0.493-1.331-1.898-3.41-2.852-2.037c-9.409,13.561-20.383,25.507-30.96,38.124
			c-9.474,11.3-18.982,23.277-20.659,38.401c-0.193,1.709,2.779,4.076,4.115,2.366c9.779-12.522,17.262-26.72,27-39.355
			C115.628,679.265,124.873,667.297,130.015,653.398L130.015,653.398z"/>
		<path fill="#010101" d="M339.391,390.618c-2.13-1.547-4.144-2.781-6.571-3.806c0.043,0.018-1.629-0.724-0.79-0.329
			c-0.371-0.166-0.733-0.344-1.099-0.529c-1.27-0.626-2.414-1.025-3.832-1.154c-1.996-0.184-3.808,1.082-3.919,3.162
			c-0.094,1.8,0.931,3.505,2.235,4.659c3.207,2.838,7.618,3.084,11.586,4.145C341.189,397.887,342.603,392.957,339.391,390.618z"/>
	</g>
</g>
<g id="Layer_1_copy_2">
	<g id="girl_2_">
		<path fill="#010101" d="M321.16,318.321c-3.456,0.33-0.854,5.091,1.208,5.622c23.533,6.083,45.549,16.553,64.096,32.347
			c29.859,25.437,51.769,60.064,67.09,95.892c15.882,37.145,26.261,77.956,26.278,118.539c0.015,38.438-9.129,73.514-34.844,102.85
			c-35.621,40.628-90.018,70.036-144.25,74.618c-50.569,4.268-99.583-20.333-131.389-59.464
			c-26.944-33.151-32.777-80.055-31.591-121.424c1.291-44.986,9.82-91.511,30.158-132.014
			c23.549-46.9,63.331-81.015,108.376-106.299c9.583-5.379-2.955-16.628-9.892-16.252c-44.718,2.432-79.638,40.676-104.335,74.729
			c-20.602,28.402-33.89,60.337-41.705,94.495c-10.488,45.867-14.188,94.617-4.829,141.043
			c4.236,20.996,11.005,41.702,22.112,60.113c12.729,21.104,31.49,38.857,51.217,53.448c42.892,31.714,93.507,45.327,146.188,32.873
			c52.131-12.326,105.056-40.965,137.328-84.778c47.553-64.56,33.476-154.712,4.832-224.366
			c-15.415-37.489-36.777-73.458-66.252-101.629C387.18,335.942,355.392,315.057,321.16,318.321L321.16,318.321z"/>
		<path fill="#010101" d="M306.262,262.272c7.494,6.244,21.032,23.953,12.783,33.932c-3.776,4.57-9.053,9.69-15.066,11.087
			c-4.706,1.098-7.8,0.431-10.332-1.047c-2.238-1.307-5.584-4.532-6.768-6.676c-3.518-6.367-5.283-15.565,0.135-19.417
			c12.557-8.929,27.936,2.953,41.247-2.184c2.928-1.131,2.061-5.568,0.503-7.367c-11.537-13.33-46.653-19.708-58.765-2.713
			c-8.99,12.619-4.268,30.308,5.198,41.378c10.723,12.544,28.583,20.637,44.129,11.303c10.085-6.058,18.896-17.017,16.017-29.457
			c-3.417-14.761-14.577-25.439-28.201-31.111C305.544,259.335,305.261,261.435,306.262,262.272z"/>
		<path fill="#010101" d="M271.009,272.492c2.137,1.935,4.665,0.02,3.103-2.465c-28.834-46.063-76.94-75.245-127.599-91.997
			c-26.878-8.889-55.625-14.049-84.006-13.825c-8.714,0.07-17.463,0.881-26.18,0.654c-5.387-0.14-11.829-2.549-16.176-1.189
			c2.995,0.983,5.991,1.966,8.987,2.948c1.047,1.522,2.099,3.043,3.148,4.565c-0.682-4.21-4.747-6.777-8.571-7.521
			c-2.438-0.472-5.472-0.078-7.133,2c-3.417,4.268-0.59,9.653,2.762,12.905c5.65,5.474,13.719,4.578,20.897,4.105
			c8.173-0.538,16.344-1.186,24.522-1.674c25.875-1.541,52.734,2.259,77.398,10.078c25.162,7.968,49.635,17.991,71.555,32.865
			C234.473,238.025,252.455,255.722,271.009,272.492L271.009,272.492z"/>
		<path fill="#010101" d="M325.987,270.404c11.646-2.521,19.304-13.767,26.982-22.151c8.498-9.283,17.152-18.542,26.605-26.866
			c14.991-13.203,31.202-24.458,48.774-33.975c18.399-9.967,37.954-18.623,58.561-22.799c17.938-3.639,32.179-2.298,49.439,2.912
			c9.912,2.992,12.754-8.919,5.576-14.328c-34.076-25.67-88.907-3.639-121.543,13.99c-18.268,9.866-35.128,21.831-50.535,35.739
			c-11.24,10.152-21.177,21.439-30.744,33.16c-7.163,8.772-16.95,18.227-18.093,29.954
			C320.78,268.419,323.674,270.9,325.987,270.404z"/>
		<path fill="#010101" d="M532.664,167.94c13.74,15.231,21.896,38.242,26.514,57.891c4.689,19.947,7.584,40.962,4.648,61.371
			c1.086-1.788,2.174-3.574,3.26-5.362c-70.643,44.979-159.203,28.251-237.784,25.321c-5.16-0.191-3.996,6.352-0.448,8.002
			c29.229,13.601,61.582,16.162,93.542,16.753c35.88,0.665,72.924-1.168,107.698-10.7c14.762-4.043,29.746-9.089,42.711-17.407
			c8.299-5.319,10.686-7.936,9.834-18.025c-0.723-8.549-1.037-17.112-2.268-25.618c-5.236-36.133-17.295-69.613-43.875-95.262
			C534.065,162.56,530.155,165.165,532.664,167.94z"/>
		<path fill="#010101" d="M31.156,170.197c-5.796,3.721-10.584,5.961-15.439,11.298c-4.23,4.65-7.758,9.439-10.992,14.834
			c-7.232,12.071-12.973,24.962-16.812,38.52c-7.008,24.75-9.655,51.861-0.582,76.427c1.74,4.714,10.536,10.845,15.516,7.051
			c4.395-3.346,5.13-4.901,6.182-10.333c0.985-5.095-5.76-9.467-10.12-8.882c-2.382,0.284-4.753,0.633-7.12,1.043
			c4.457,2.598,8.914,5.195,13.373,7.793c-7.69-22.042-4.977-47.335,1.261-69.4c3.275-11.605,7.382-23.161,12.839-33.934
			c4.949-9.769,9.749-21.136,15.905-30.109C36.635,172.371,33.42,168.74,31.156,170.197z"/>
		<path fill="#010101" d="M271.635,304.302c-8.663,2.273-16.757,6.784-25.476,9.264c-9.077,2.581-18.409,4.369-27.783,5.487
			c-20.583,2.455-41.367,2.477-62.068,2.163c-52.337-0.783-102.932-0.448-153.774-15.075c0.533,6.347,1.063,12.693,1.594,19.038
			c6.245,0.372,13.202,2.208,18.854-1.199c2.607-1.575,2-4.79,0.473-6.906c-5.521-7.656-14.334-10.86-23.516-11.454
			c-13.296-0.863-7.337,16.512,1.594,19.038c53.916,15.23,108.03,13.132,163.382,11.929c21.69-0.473,43.692-1.599,64.927-6.352
			c14.188-3.176,37.327-8.804,43.925-23.66C274.258,305.469,272.719,304.023,271.635,304.302z"/>
		<path fill="#010101" d="M320.79,323.156c16.988,12.958,31.597,31.332,39.606,51.187c4.204,10.427,7.3,21.875,7.083,33.215
			c-0.187,9.766-3.877,19.501-2.854,29.127c0.264,2.487,4.635,6.034,7.086,4.118c8.775-6.864,9.517-21.755,8.806-32.125
			c-0.866-12.597-3.77-24.912-9.16-36.382c-10.58-22.511-26.763-40.605-47.88-53.618C320.099,316.6,317.883,320.947,320.79,323.156z
			"/>
		<path fill="#010101" d="M300.53,327.352c-2.919-0.054-3.599,2.896-1.979,4.966c5.678,7.285,12.482,11.705,15.334,21.112
			c2.567,8.462,3.334,17.23,2.195,26.019c-1.27,9.783-3.817,19.296-8.174,28.187c-3.422,6.984-7.92,13.167-11.493,19.995
			c-1.172,2.238,2.231,5.089,4.311,4.596c21.644-5.167,30.403-36.226,30.061-55.393c-0.201-11.279-2.199-22.175-7.914-32.021
			C318.546,337.353,309.872,327.526,300.53,327.352L300.53,327.352z"/>
		<path fill="#010101" d="M280.09,329.777c-1.184-1.689-5.358-2.169-4.554,0.858c4.46,16.929,7.025,33.416,0.915,50.395
			c-3.135,8.716-7.451,16.716-13.182,24.021c-4.55,5.796-9.796,11.053-12.74,17.872c-1.408,3.251,3.169,8.009,6.491,6.921
			c18.66-6.11,30.226-29.471,34.022-47.481C294.849,364.309,290.671,344.856,280.09,329.777L280.09,329.777z"/>
		<path fill="#010101" d="M339.516,492.829c2.257,8.813,3.116,20.428,2.461,29.48c-0.174,2.389-0.261,5.064-1.48,7.212
			c-0.472,0.831-0.371-0.262,0.891,0.618c2.442,1.7,0.265-0.42-0.286-1.919c-0.688-1.873-1.134-3.893-1.446-5.859
			c-0.794-5.033-1.032-10.274-0.174-15.326c0.286-1.708,0.699-3.478,1.482-5.04c0.913-1.803,1.329-0.725-0.338-1.061
			c-4.378-0.877-1.095,0.751-1.078,4.551c0.009,2.711-0.114,5.427-0.647,8.096c-0.779,3.893-2.034,8.309-4.771,11.288
			c4.86,1.01,9.719,2.017,14.58,3.029c-5.738-6.702-5.812-14.409-1.771-22.05c-5.35-0.432-10.693-0.865-16.041-1.297
			c10.149,11.417,0.358,25.163,6.274,37.594c1.178,2.479,4.122,4.611,6.974,4.066c20.271-3.871,9.841-39.337,0.878-49.295
			c-4.063-4.506-12.34-8.429-16.044-1.296c-6.719,12.958-3.899,29.138,5.952,39.728c3.231,3.475,10.396,8.12,14.579,3.031
			c11.727-14.275,10.419-43.096-7.047-52.103c-19.845-10.233-21.161,21.811-19.238,33.049c1.502,8.8,4.637,17.919,12.328,23.151
			c5.661,3.85,14.798,4.055,18.362-2.66c7.147-13.471-2.524-36.446-10.328-47.757C342.529,490.527,338.819,490.129,339.516,492.829z
			"/>
		<path fill="#010101" d="M297.296,491.823c-1.928-1.778-7.204-2.589-7.133,1.393c0.214,12.042,3.142,30.125-8.107,38.588
			c4.474,2.034,8.951,4.068,13.424,6.103c-4.873-8.54-10.482-27.117-6.743-36.595c1.056-2.675-2.137-2.555-2.348-3.532
			c0.705,3.316,0.524,6.692-0.004,10.036c-0.809,5.131-2.881,13.27-4.911,16.594c5.666,1.861,11.332,3.717,16.999,5.574
			c-1.811-4.565-4.254-9.166-3.195-14.216c-6.105-1.241-12.203-2.485-18.311-3.729c3.903,6.427,6.578,13.673,9.691,20.512
			c1.635,3.589,7.968,6.77,10.266,2.092c4.357-8.86,2.58-17.593-2.218-25.909c-3.91-6.772-16.512-12.742-18.77-1.519
			c-1.893,9.405,1.485,17.452,4.98,26.05c2.889,7.097,13.658,11.183,18.132,3.693c5.56-9.309,7.854-23.896,6.129-34.492
			c-1.872-11.487-14.13-25.454-27.027-19.006c-10.434,5.212-8.558,20.603-6.812,29.99c1.856,9.974,4.432,20.758,9.959,29.396
			c2.879,4.497,9.53,6.418,13.688,2.843C307.99,534.502,310.4,503.915,297.296,491.823L297.296,491.823z"/>
		<path fill="#010101" d="M430.451,596.646c-2.154,2.759-8.962-3.908-5.012,0.135c-0.449-0.502-0.438-0.471,0.045,0.097
			c0.403,0.654,0.916,1.216,1.377,1.832c-0.417-1.941-0.833-3.886-1.25-5.825c-0.79,2.727-0.162,5.049,1.535,7.311
			c2.538-2.893,5.072-5.781,7.611-8.674c-3.011-1.521-6.118-2.748-9.25-3.989c-2.447-0.97-5.504-1.776-7.574-3.243
			c-3.458-2.455-9.661-2.145-11.355,2.283c-1.865,4.855,2.049,9.65,5.855,12.093c5.298,3.401,13.155,4.714,18.39,3.376
			c5.989-1.528,4.495-8.573,0.745-11.742c0.708,1.197,0.195,0.715-1.537-1.459c-0.948-0.812-1.979-1.492-3.092-2.044
			c-1.685-0.911-3.436-1.375-5.269-1.829c-2.046-0.51-4.026-1.091-6.044-1.7c0.474,5.627,0.944,11.253,1.414,16.88
			c2.339-0.059,5.331,1.257,7.679,1.893c3.101,0.838,6.156,1.633,9.326,2.158c7.152,1.189,6.576-8.357,2.459-11.429
			c-2.268-1.688-4.843-3.199-7.787-2.382c1.539,0.313,3.077,0.627,4.618,0.939c-0.479-0.305-0.949-0.618-1.424-0.924
			c-1.627-0.688-1.986-0.854-1.076-0.502c-0.17-0.084-0.339-0.168-0.508-0.254c-1.207-0.548-2.446-1.191-3.816-1.133
			c-2.75,0.115-4.616,1.555-4.049,4.544C422.995,595.869,428.015,599.758,430.451,596.646z"/>
		<path fill="#010101" d="M210.785,582.075c0.646-2.982-0.35-5.616-2.67-7.646c-2.051-1.801-5.321-3.047-7.927-1.65
			c-3.819,2.049-7.105,5.65-10.328,8.551c5.234,3.009,10.47,6.018,15.702,9.024c0.134-2.204,0.452,0.656-1.129,2.169
			c-1.82,0.648-3.633,1.296-5.453,1.945c0.045,0.002,0.09,0.004,0.135,0.006c-1.472-0.473-2.938-0.942-4.41-1.419
			c-0.56-0.396-1.118-0.792-1.677-1.19c-1.004-1.317-2.009-2.636-3.018-3.953c0.043,0.105,0.08,0.215,0.121,0.324
			c1.912,5.185,10.969,10.092,15.397,5.049c4.536-5.171-1.734-13.175-7.007-14.608c1.693,0.753,2.179,0.956,1.447,0.626
			c-1.368-0.793-2.837-1.266-4.408-1.418c-1.972-0.158-4.274,0.341-5.586,1.95c-1.205,1.481-1.588,3.177-1.491,5.041
			c0.211,4.079,2.356,7.499,5.94,9.545c2.91,1.659,7.304,2.319,9.765-0.522c1.605-1.851,2.85-4.196,4.047-6.307
			C209.251,585.793,210.342,584.105,210.785,582.075L210.785,582.075z"/>
		<path fill="#010101" d="M419.062,592.813c-7.107,4.729-11.645,12.785-18.719,17.819c-7.562,5.387-16.005,9.475-25,11.842
			c-20.083,5.291-41.373,5.449-61.893,2.926c-38.52-4.738-75.682-17.209-108.142-38.492c-0.966,4.641-1.927,9.285-2.89,13.925
			c5.216,1.981,11.137,2.259,16.693,2.323c5.004,0.061,3.137-5.4,0.404-7.237c-4.625-3.107-9.309-6.374-14.212-9.011
			c-8.987-4.833-14.315,5.523-6.95,11.588c15.146,12.474,35.013,20.547,53.375,26.868c22.457,7.731,46.048,13.182,69.781,14.898
			c21.811,1.581,44.438,0.661,65.008-7.477c14.468-5.722,36.613-18.688,37.34-36.524C423.939,594.263,421.1,591.457,419.062,592.813
			z"/>
		<path fill="#010101" d="M480.344,496.248c7.691,11.359,20.358,7.978,31.46,4.843c9.202-2.597,16.311-3.025,23.563,4.42
			c5.334,5.48,7.975,12.984,6.803,20.615c-2.195,14.324-13.99,27.813-29.287,26.98c-6.123-0.334-12.187-1.226-18.06-3.045
			c-2.107-0.657-4.229-1.333-6.31-2.08c-0.66-0.248-1.327-0.475-2.004-0.674c-3.479-0.878-2.721-0.313,2.272,1.697
			c1.034,2.16,2.073,4.322,3.107,6.482c-1.129,2.131-1.267,2.677-0.408,1.648c2.655-2.854-0.395-7.442-3.097-8.896
			c-5.486-2.953-13.104-0.317-9.472,6.945c3.473,6.934,12.114,9.367,19.122,10.977c19.672,4.518,41.424,4.354,53.174-15.168
			c12.455-20.697,7.426-44.57-12.119-58.911c-8.717-6.391-18.627-9.48-29.326-6.425c-9.229,2.638-17.798,7.532-27.671,6.206
			C479.308,491.491,479.219,494.583,480.344,496.248z"/>
		<path fill="#010101" d="M121.8,491.278c1.206,0.882,4.539,2.195,5.109-0.273c1.749-7.531-6.48-15.027-12.562-18.195
			c-9.227-4.803-19.555-7.058-29.956-5.81c-20.845,2.498-38.878,19.28-39.475,41.134c-0.584,21.131,11.314,42.16,28.149,54.625
			c8.457,6.257,17.62,11.37,28.092,13.239c7.731,1.38,21.098,2.555,24.861-6.074c1.659-3.813-2.391-8.55-5.896-9.472
			c-6.84-1.8-13.294,1.28-20.275,0.084c-6.348-1.089-12.832-3.885-17.926-7.862c-10.883-8.498-20.096-20.583-21.377-34.781
			c-1.336-14.808,8.166-32.2,23.219-36.105c7.044-1.829,15.064-2.67,22.194-0.65C113.021,483.138,116.201,487.175,121.8,491.278
			L121.8,491.278z"/>
		<path fill="#010101" d="M93.904,508.718c-5.803,3.324-9.979,7.608-9.805,14.741c0.193,8.032,6.836,15.081,14.722,16
			c2.685,0.316,5.135-1.504,5.279-4.257c0.14-2.588-1.354-4.505-3.008-6.277c-1.704-1.817-3.389-2.3-3.191-4.752
			c0.266-3.286,1.184-6.681,2.663-9.609C102.218,511.286,96.866,507.022,93.904,508.718z"/>
		<path fill="#010101" d="M516.588,520.385c-1.846-2.354-7.913-3.359-6.786,1.283c0.794,3.283,1.087,6.354,0.915,9.718
			c0.759-1.255,1.525-2.509,2.287-3.766c-2.381,0.919-5.231,1.206-7.478,2.423c-2.837,1.537-2.551,5.234-0.933,7.49
			c3.986,5.557,12.065,4.864,17.411,1.969c2.084-1.128,2.422-3.271,2.15-5.403C523.473,528.745,519.789,524.466,516.588,520.385
			L516.588,520.385z"/>
		<path fill="#010101" d="M496.481,563.898c-1.688,10.533,4.94,23.302,9.477,32.346c7.095,14.155,15.562,28.023,26.337,39.707
			c8.951,9.701,19.592,19.595,32.959,22.343c13.926,2.863,23.805-4.354,32.275-14.636c2.355-2.863,1.045-6.324-0.699-9.069
			c-0.281-0.448-0.566-0.897-0.854-1.345c-2.346-3.691-7.465-5.446-11.455-3.805c-3.215,1.321-4.969,5.182-5.316,8.424
			c-0.295,2.743,1.947,5.229,4.082,6.559c0.451,0.282,0.906,0.564,1.357,0.846c2.039,1.27,5.209,1.883,7.4,0.598
			c0.463-0.275,5.305-2.92,1.475-1.635c-3.232-1.473-6.469-2.941-9.707-4.414c0.365,0.408,0.729,0.816,1.092,1.219
			c-0.537-2.516-1.076-5.028-1.615-7.542c-25.822,45.824-73.463-52.479-83.552-69.333
			C499.078,563.058,496.802,561.889,496.481,563.898z"/>
		<path fill="#010101" d="M492.985,607.125c-0.379-1.752-4.025-4.241-4.953-1.595c-4.248,12.116,0.216,26.376,3.791,38.114
			c5.214,17.128,12.447,34.001,22.232,49.037c15.916,24.463,44.77,47.058,70.166,20.662c4.313-4.485-1.684-12.448-6.465-13.481
			c-0.756-0.168-1.51-0.331-2.266-0.49c-2.287-0.5-5.688-0.925-7.279,1.422c-2.578,3.804-2.541,6.941-0.865,11.163
			c0.805,2.018,3.07,3.52,5.18,3.732c0.756,0.075,5.242-0.753,4.422-0.925c-2.154-4.495-4.313-8.987-6.467-13.482
			C532.582,741.239,498.181,631.297,492.985,607.125L492.985,607.125z"/>
		<path fill="#010101" d="M116.881,582.82c-2.915,49.247-85.299,70.891-107.595,24.68c-3.238,2.603-6.479,5.203-9.721,7.807
			c3.277,1.537,6.466,2.97,9.939,3.973c2.766,0.796,6.219-0.844,5.238-4.23c-1.712-5.921-5.191-9.282-10.238-12.649
			c-5.813-3.873-13.028,1.144-9.721,7.807c14.238,28.692,46.561,42.2,77.521,35.503c30.263-6.55,52.983-29.072,50.414-61.02
			C122.499,581.934,117.119,578.861,116.881,582.82z"/>
		<path fill="#010101" d="M120.778,627.234c-0.843,29.506-37.473,41.958-61.127,46.954c-15.864,3.352-32.203,4.964-48.4,3.612
			c-10.688-0.896-23.825-2.284-31.746-10.358c-0.272,4.309-0.545,8.617-0.818,12.928c6.365-1.687,13.412-1.476,18.98-5.309
			c3.258-2.242,1.232-6.986-1.813-8.456c-8.047-3.886-15.914-4.174-24.529-1.846c-6.887,1.86-4.546,9.155-0.818,12.929
			c23.025,23.263,69.777,17.896,98.108,10.598c26.361-6.791,69.081-25.521,57.874-59.896
			C125.816,626.33,120.885,623.408,120.778,627.234z"/>
		<path fill="#010101" d="M136.875,672.851c-1.139-3.337-8.104-5.817-7.113-0.581c3.86,20.459-23.531,29.503-38.554,33.012
			c-18.016,4.206-35.78,5.07-54.147,3.927c1.754,5.141,3.516,10.28,5.272,15.422c3.922-0.688,7.195-1.077,8.996-4.877
			c0.993-2.097-0.627-4.612-2.084-5.979c-3.505-3.29-7.583-3.83-12.19-4.563c-10.101-1.603-6.174,13.487,1.266,15.095
			C67.604,730.633,152.382,718.298,136.875,672.851L136.875,672.851z"/>
		<path fill="#010101" d="M263.067,281.316c-7.984-10.829-22.306-18.14-34.248-23.564c-14.675-6.665-30.139-12.141-46.176-14.364
			c-14.263-1.974-27.733-1.255-41.196,4.068c-6.863,2.717-17.234,6.865-18.106,15.507c-1.764,17.377,26.348,25.801,38.75,29.031
			c11.191,2.916,22.749,5.298,34.295,6.25c8.648,0.715,17.8,1.706,25.095-3.686c4.275-3.159-0.482-8.269-4.227-8.931
			c-15.336-2.715-31.061-2.731-46.385-6.088c-8.145-1.785-16.431-3.751-24.186-6.88c-2.625-1.058-5.712-2.206-7.914-4.031
			c-1.698-1.409-0.893-1.575-1.33-0.346c2.182-6.103,12.388-8.812,17.722-10.685c11.372-3.986,24.264-3.053,35.892-0.759
			c25.321,4.996,45.715,17.815,68.729,28.225C262.641,286.352,265.129,284.114,263.067,281.316z"/>
		<path fill="#010101" d="M346.358,279.935c26.143,3.419,46.752-18.182,70.813-24.25c7.348-1.854,15.36-1.779,22.873-0.983
			c3.638,0.389,14.642,0.845,16.228,5.221c2.708,7.478-7.152,13.584-12.805,15.215c-8.46,2.442-17.347,3.466-26.143,3.565
			c-14.588,0.166-30.662-3.893-44.874-0.771c-4.923,1.081-2.071,6.832,0.7,8.551c17.104,10.603,45.024,9.476,64.27,6.605
			c16.677-2.489,41.286-12.504,33.128-34.33c-6.889-18.429-32.595-19.546-48.989-18.63c-13.609,0.764-25.457,6.813-37.121,13.537
			c-13.359,7.698-26.639,14.468-40.926,20.255C340.071,275.318,344.317,279.67,346.358,279.935z"/>
		<path fill="#010101" d="M408.948,757.972c-2.425-1.813-7.927-2.227-6.812,2.423c2.188,9.145,7.804,18.147,11.884,26.599
			c4.871,10.085,9.326,20.404,13.263,30.888c8.432,22.444,15.072,45.62,20.098,69.063c9.459,44.151,14.991,89.041,14.813,134.232
			c-0.047,12.54,24.18,23.11,24.163,7.744c-0.011-7.303-1.054-13.373-5.884-19.083c-2.514-2.972-7.671-6.399-11.671-3.878
			c-5.707,3.588-6.599,8.801-6.605,15.215c8.054,2.581,16.107,5.16,24.163,7.742c-0.462-48.102-6.242-96.832-18.187-143.459
			c-6.173-24.096-13.603-47.991-23.595-70.802C436.327,795.832,425.932,770.672,408.948,757.972L408.948,757.972z"/>
		<path fill="#010101" d="M180.22,744.465c1.014-3.615-4.762-9.203-7.749-5.527c-15.148,18.733-26.395,40.561-37.604,61.78
			c-11.658,22.072-22.55,44.633-32.037,67.729c-9.858,23.996-18.328,48.704-23.633,74.141c-2.397,11.493-4.556,23.031-5.616,34.739
			c-1.006,11.085-3.166,24.239,0.277,34.988c1.876,5.847,6.543,10.89,13.009,11.413c4.002,0.326,9.046-2.339,8.716-7.025
			c-0.157-2.154-0.376-4.223-0.751-6.35c-0.688-3.907-4.539-6.75-8.271-7.26c-1.393-0.282-2.795-0.431-4.21-0.454
			c4.245,5.502,8.483,11.008,12.727,16.51c3.337-10.582,1.446-23.058,2.52-34.126c1.191-12.344,2.854-24.722,5.515-36.844
			c5.347-24.349,12.852-48.215,21.665-71.523c8.872-23.447,18.995-46.373,29.417-69.168
			C163.635,786.847,174.048,766.391,180.22,744.465L180.22,744.465z"/>
		<path fill="#010101" d="M486.875,1033.146c-0.05-3.459-3.613-6.071-6.86-4.929c-10.889,3.795-19.944,11.591-31.255,15.094
			c-13.39,4.141-27.288,6.639-41.217,8.091c-27.617,2.874-55.277,2.973-83.008,2.818c-39.337-0.217-78.079-3.228-116.536-11.95
			c-42.244-9.588-83.345-23.258-124.479-36.69c0.63,7.545,1.261,15.085,1.895,22.631c8.403,0.23,17.16,2.553,25.477,0.774
			c9.76-2.086,3.729-13.144-1.358-16.579c-8.542-5.771-19.003-7.18-29.104-7.452c-16.025-0.432-8.496,19.246,1.896,22.629
			c44.711,14.573,89.402,29.422,135.517,38.961c38.975,8.06,77.877,10.712,117.588,10.781c30.618,0.051,61.94-0.796,92.01-7.005
			C445.312,1066.632,487.237,1057.734,486.875,1033.146L486.875,1033.146z"/>
		<path fill="#010101" d="M403.628,1062.891c-0.474-1.138-3.484-2.33-3.383-0.279c1.502,29.341-1.359,57.958-9.009,86.345
			c-7.06,26.194-15.283,52.011-18.808,78.995c-0.719,5.52,6.462,11.67,11.787,10.341c6.843-1.706,15.336-2.752,22.18-0.51
			c0.56,0.183,2.804,1.581,2.163,0.574c-0.953-1.495-1.075,1.842-1.556,2.728c-2.236,4.143-5.642,8.706-10.506,9.88
			c-17.976,4.332-37.417-4.187-54.438-9.35c1.913,1.375,3.819,2.749,5.734,4.122c-0.025-0.034-0.047-0.064-0.073-0.101
			c-1.483,3.721-2.965,7.446-4.448,11.167c4.203,0.519,6.864,0.215,9.98-2.655c2.29-2.11,0.277-6.386-1.691-7.89
			c-3.085-2.358-5.798-3.733-9.571-4.742c-7.858-2.097-10.12,4.92-6.534,10.749c3.178,5.162,12.122,6.322,17.48,7.975
			c7.991,2.455,16.051,4.781,24.296,6.232c14.557,2.558,32.874,3.302,42.053-10.672c18.942-28.821-20.829-38.813-42.354-32.968
			c3.929,3.445,7.855,6.895,11.785,10.341C394.862,1177.019,426.823,1118.707,403.628,1062.891L403.628,1062.891z"/>
		<path fill="#010101" d="M367.084,1068.799c-0.74-1.162-3.5-1.841-3.581,0.181c-0.809,21.811-1.772,43.065-6.519,64.498
			c-2.286,10.335-3.155,20.94-4.697,31.397c-1.358,9.217-1.605,21.573-6.811,29.558c-7.021,10.766-18.674,22.694-20.476,35.901
			c-1.329,9.728,13.883,26.911,22.245,15.617c2.095-2.827,0.584-6.49-1.841-8.596c-1.607-1.396-3.141-2.644-5.189-3.352
			c-3.049-1.415-2.682-0.396,1.104,3.063c0.294-2.168,1.231-4.301,2.221-6.236c3.154-6.161,7.169-11.781,11.09-17.465
			c3.259-4.731,7.429-9.74,8.721-15.425c1.835-8.103,3.216-16.273,4.232-24.514c2.311-18.811,5.3-37.816,6.793-56.689
			C375.66,1100.512,376.118,1082.953,367.084,1068.799L367.084,1068.799z"/>
		<path fill="#010101" d="M194.155,1048.364c-0.433-1.566-3.893-4.177-4.771-1.543c-4.289,12.996-3.795,27.408-4.639,40.955
			c-0.931,15.038-2.135,30.06-3.575,45.055c-2.918,30.437-7.109,60.732-12.684,90.797c-1.025,5.54,6.747,11.799,11.918,10.457
			c15.416-4,31.341,1.189,28.836,19.578c1.519-1.73,3.038-3.46,4.555-5.192c-26.218,7.753-52.837-3.984-79.404-0.018
			c-5.538,0.829-5.417,7.774-2.502,11.208c5.984,7.047,12.155,9.82,20.782,6.02c2.842-1.251,2.207-5.563,0.507-7.433
			c-1.865-2.062-3.41-3.58-5.994-4.704c-0.758-0.329-4.579-2.689-2.886-0.584c-0.837,3.738-1.667,7.472-2.502,11.207
			c26.594-3.982,52.846,7.846,79.388-0.017c2.729-0.812,4.167-2.33,4.555-5.192c4.03-29.713-26.252-47.496-52.708-40.506
			c3.977,3.485,7.944,6.972,11.92,10.457c5.057-30.291,8.764-60.77,10.711-91.423c0.968-15.201,1.573-30.45,1.618-45.684
			C197.329,1077.35,198.031,1062.406,194.155,1048.364L194.155,1048.364z"/>
		<path fill="#010101" d="M149.116,1041.276c-0.981-2.281-5.796-3.26-5.112,0.238c10.672,54.305-8.588,110.423-19.525,162.833
			c-2.178,10.457-2.759,21.096-5.261,31.476c-1.457,6.059-3.185,12.161-2.112,18.418c0.996,5.805,7.429,11.802,13.474,11.676
			c8.458-0.177,13.329-3.48,18.107-10.242c2.86-4.05-2.323-8.774-6.384-8.36c-5.063,0.517-9.185,1.657-14.093,2.504
			c-4.102,0.704,4.5,8.743,5.037,3.805c0.092-1.086,0.236-2.163,0.429-3.235c1.114-5.822,2.928-11.521,3.771-17.401
			c3.411-23.775,9.765-46.446,14.668-69.92C160.238,1124.189,165.129,1078.519,149.116,1041.276L149.116,1041.276z"/>
		<path fill="#010101" d="M399.798,742.657c-2.817,1.79-0.017,5.162,2.067,6.012c9.763,3.977,20.534,4.944,30.449,8.572
			c9.599,3.514,19.096,8.445,27.07,14.913c16.19,13.127,27.095,29.248,35.056,48.381c0.919-4.107,1.833-8.215,2.752-12.321
			c-10.421,4.319-21.06,8.119-31.804,11.556c-9.177,2.931-25.542,6.8-16.956,20.293c2.996,4.701,8.708,6.644,13.954,6.339
			c8.239-0.48,17.24-4.963,24.968-7.697c8.594-3.043,17.134-6.217,25.519-9.794c4.787-2.038,4.504-8.443,2.752-12.319
			c-10.801-23.834-28.433-45.663-50.27-60.219c-15.961-10.637-46.835-25.614-65.558-13.713V742.657z"/>
		<path fill="#010101" d="M186.11,730.194c4.217-1.752-0.448-7.083-2.742-7.963c-22.276-8.527-48.226,6.659-64.707,20.751
			c-18.586,15.898-34.782,36.602-41.285,60.521c-2.196,8.085,3.89,14.303,10.772,17.302c8.658,3.774,16.935,8.366,25.527,12.291
			c3.763,1.722,10.795,3.882,13.775-0.735c4.107-6.374,0.583-15.293-6.433-18.469c-10.624-4.813-20.875-10.356-31.695-14.743
			c3.589,5.767,7.179,11.535,10.77,17.302c5.059-21.295,17.986-41.093,33.571-56.249c8.013-7.793,16.747-14.655,26.626-19.937
			C168.606,735.821,177.482,733.79,186.11,730.194L186.11,730.194z"/>
		<path fill="#010101" d="M489.022,826.269c-3.482-1.899-6.43,1.336-4.004,4.56c12.015,16.01,24.984,31.368,35.009,48.78
			c8.604,14.943,21.012,35.344,20.521,53.223c-0.219,7.776,6.813,14.013,14.1,14.984c7.666,1.021,22.246,8.671,29.373,3.113
			c6.334-4.939,4.336-13.212-1.395-18.042c-3.004-2.53-5.982-3.897-9.752-4.708c-11.645-2.507-15.789,10.262-6.682,17.175
			c1.102,0.835,2.189,1.683,3.262,2.55c-1.17-5.455-2.338-10.909-3.506-16.362c4.221-3.461,4.756-1.927,0.17-3.019
			c-1.709-0.404-3.416-0.812-5.121-1.215c-3.658-0.833-7.402-1.877-11.166-1.961c4.293,3.094,8.586,6.19,12.881,9.284
			c-8.809-22.035-16.34-43.055-29.697-63.029C521.444,854.29,507.621,836.417,489.022,826.269L489.022,826.269z"/>
		<path fill="#010101" d="M554.84,951.295c1.736,7.587,3.191,15.75,3.662,23.526c0.238,3.893-0.479,6.724,1.105,10.736
			c1.75,4.434,6.857,7.953,11.639,7.338c10.189-1.304,2.666-14.96,0.902-19.75c-2.811-7.621-6.033-15.081-9.965-22.194
			C560.604,948.093,553.649,946.059,554.84,951.295z"/>
		<path fill="#010101" d="M543.551,959.411c-1.838-3.555-10.182-5.758-8.766,0.411c1.092,4.744,1.4,11.217-0.393,15.86
			c-1.756,4.538-5.729,9.2-5.324,14.085c0.459,5.427,5.617,11.823,11.801,10.35c8.477-2.017,9.623-12.025,9.045-19.581
			C549.321,972.745,547.119,966.309,543.551,959.411L543.551,959.411z"/>
		<path fill="#010101" d="M91.918,836.376c2.405-3.438-3.32-8.572-6.36-5.581c-18.83,18.51-34.38,39.962-52.219,59.371
			c-14.399,15.669-34.722,37.815-58.255,34.607c-3.272-0.445-6.16,1.293-7.526,4.198c-0.147,0.32-0.302,0.646-0.452,0.966
			c-3.507,7.473,7.042,16.452,14.029,14.952c2.678-0.573,3.998-1.964,6.272-3.267c2.713-1.564,2.24-5.241,0.503-7.367
			c-3.05-3.733-6.231-6.237-10.769-7.982c2.638,5.493,5.267,10.979,7.901,16.473c0.183-0.303,0.365-0.6,0.548-0.903
			c-2.977,0.583-5.953,1.166-8.931,1.751c27.269,5.904,49.333-15.281,65.502-34.549C61.228,886.32,75.014,860.545,91.918,836.376
			L91.918,836.376z"/>
		<path fill="#010101" d="M23.863,952.644c-1.797-4.779-12-8.384-12.566-1.02c-0.204,2.633,0.025,5.272-0.369,7.898
			c-0.138,0.914-0.456,1.887-0.835,2.741c0.013-0.035-1.282,2.257-0.518,1.214c-1.521,2.08-0.966,1.256-3.275,2.362
			c-2.471,1.181-4.34,2.52-5.113,5.32c-0.884,3.21,0.458,6.526,3.008,8.631c3.953,3.264,10.678,6.049,15.448,2.369
			c2.563-1.981,4.823-4.093,5.9-7.279C27.906,967.899,26.399,959.379,23.863,952.644L23.863,952.644z"/>
		<path fill="#010101" d="M-1.679,956.033c1.635-3.469-3.693-7.512-6.784-5.947c-1.835,0.921-3.735,1.553-5.583,2.561
			c-2.137,1.166-4.133,2.926-5.813,4.678c-3.917,4.086-6.956,8.271-6.063,14.184c0.74,4.876,8.064,10.55,12.908,7.499
			c4.183-2.636,5.276-7.381,7.242-11.629c0.994-2.148,1.886-4.322,2.637-6.56C-2.619,959.295-2.351,957.462-1.679,956.033
			L-1.679,956.033z"/>
		<path fill="#010101" d="M366.404,753.218c-0.626-0.536-1.941-0.893-2.328,0.129c-2.795,7.215,0.228,16.193-2.255,23.838
			c-2.354,7.245-6.67,13.836-12.23,19.043c-12.981,12.151-31.103,18.593-48.535,20.682c-16.431,1.967-35.419,0.771-49.458-8.944
			c-15.032-10.398-15.362-29.709-11.194-45.831c-2.061,1.149-4.125,2.301-6.187,3.451c4.277,0.395,8.206,1.741,12.509,1.73
			c6.281-0.011,6.216-6.92,2.212-10.271c-5.373-4.5-11.131-6.708-18.124-7.352c-2.33-0.213-5.519,0.878-6.184,3.45
			c-5.921,22.972-3.339,48.553,16.616,64.092c17.607,13.708,40.334,17.747,62.189,15.434c20.93-2.219,43.563-10.009,58.079-25.973
			C373.11,793.94,382.24,766.786,366.404,753.218L366.404,753.218z"/>
		<path fill="#010101" d="M477.969,858.686c14.494,12.644,25.769,26.84,33.807,44.41c4.038,8.824,7.428,17.847,10.407,27.083
			c2.063,6.396,3.711,13.33,8.02,18.608c1.197,1.468,5.307,3.53,6.188,0.5c2.342-8.049-2.156-17.784-4.887-25.349
			c-3.818-10.588-8.029-21.257-13.777-30.969c-9.248-15.648-20.738-31.407-38.324-37.966
			C476.757,854.019,476.368,857.288,477.969,858.686z"/>
		<path fill="#010101" d="M94.699,858.139c0.542-1.465-2.088-3.752-3.137-2.241c-10.352,14.919-22.424,28.062-34.061,41.942
			c-10.422,12.432-20.884,25.609-22.729,42.248c-0.213,1.881,3.058,4.484,4.527,2.604c10.759-13.777,18.991-29.396,29.705-43.298
			C78.872,886.597,89.043,873.43,94.699,858.139L94.699,858.139z"/>
		<path fill="#010101" d="M325.048,569.037c-2.343-1.701-4.559-3.059-7.229-4.187c0.047,0.02-1.792-0.796-0.87-0.362
			c-0.408-0.182-0.807-0.378-1.208-0.582c-1.396-0.688-2.656-1.128-4.216-1.27c-2.196-0.202-4.189,1.19-4.312,3.479
			c-0.103,1.98,1.024,3.855,2.459,5.126c3.528,3.122,8.381,3.394,12.746,4.56C327.026,577.035,328.582,571.611,325.048,569.037z"/>
	</g>
</g>
<g id="Layer_1_copy" display="none">
	<g id="girl_1_" display="inline">
		<path fill="#010101" d="M262.931,357.941c-2.43,0.232-0.601,3.582,0.85,3.955c16.553,4.279,32.039,11.643,45.084,22.752
			c21.002,17.892,36.414,42.249,47.19,67.449c11.171,26.127,18.472,54.833,18.484,83.379c0.011,27.036-6.421,51.709-24.509,72.344
			c-25.055,28.576-63.317,49.262-101.464,52.484c-35.569,3.002-70.044-14.302-92.417-41.825
			c-18.952-23.318-23.055-56.311-22.221-85.408c0.908-31.643,6.907-64.368,21.213-92.857c16.564-32.989,44.545-56.984,76.23-74.769
			c6.741-3.784-2.078-11.696-6.958-11.432c-31.454,1.71-56.016,28.611-73.388,52.563c-14.491,19.978-23.838,42.44-29.335,66.466
			c-7.377,32.263-9.98,66.552-3.396,99.207c2.979,14.77,7.741,29.333,15.553,42.283c8.953,14.845,22.149,27.332,36.025,37.595
			c30.17,22.308,65.772,31.883,102.827,23.123c36.668-8.671,73.895-28.814,96.594-59.632
			c33.449-45.411,23.546-108.823,3.399-157.816c-10.843-26.37-25.869-51.67-46.602-71.484
			C309.369,370.336,287.01,355.645,262.931,357.941L262.931,357.941z"/>
		<path fill="#010101" d="M252.453,318.517c5.271,4.392,14.793,16.849,8.991,23.868c-2.656,3.214-6.367,6.815-10.597,7.799
			c-3.31,0.772-5.486,0.303-7.268-0.737c-1.574-0.919-3.927-3.188-4.76-4.696c-2.474-4.478-3.716-10.949,0.095-13.658
			c8.833-6.281,19.65,2.077,29.012-1.536c2.06-0.796,1.45-3.917,0.354-5.182c-8.115-9.376-32.815-13.862-41.334-1.908
			c-6.324,8.876-3.002,21.318,3.656,29.105c7.542,8.823,20.105,14.516,31.04,7.95c7.094-4.261,13.292-11.969,11.266-20.719
			c-2.403-10.383-10.253-17.894-19.836-21.883C251.948,316.451,251.749,317.928,252.453,318.517z"/>
		<path fill="#010101" d="M227.656,325.706c1.503,1.361,3.281,0.014,2.183-1.734c-20.282-32.4-54.119-52.926-89.751-64.709
			c-18.906-6.252-39.126-9.881-59.088-9.724c-6.129,0.049-12.283,0.62-18.415,0.46c-3.789-0.098-8.32-1.793-11.378-0.836
			c2.107,0.691,4.214,1.383,6.321,2.074c0.736,1.071,1.476,2.141,2.214,3.211c-0.48-2.962-3.339-4.767-6.029-5.291
			c-1.715-0.332-3.849-0.055-5.017,1.407c-2.404,3.002-0.415,6.79,1.943,9.077c3.974,3.85,9.649,3.22,14.698,2.887
			c5.749-0.378,11.497-0.834,17.249-1.177c18.2-1.083,37.092,1.589,54.441,7.088c17.699,5.604,34.913,12.654,50.331,23.117
			C201.957,301.462,214.606,313.91,227.656,325.706L227.656,325.706z"/>
		<path fill="#010101" d="M266.327,324.237c8.192-1.774,13.579-9.684,18.979-15.582c5.978-6.529,12.064-13.042,18.713-18.897
			c10.544-9.287,21.947-17.204,34.307-23.897c12.941-7.011,26.696-13.1,41.19-16.037c12.618-2.56,22.634-1.616,34.775,2.048
			c6.972,2.105,8.97-6.273,3.921-10.078c-23.968-18.056-62.535-2.56-85.491,9.84c-12.849,6.939-24.708,15.356-35.545,25.139
			c-7.906,7.141-14.896,15.08-21.625,23.324c-5.038,6.17-11.923,12.821-12.727,21.069
			C262.664,322.841,264.7,324.586,266.327,324.237z"/>
		<path fill="#010101" d="M411.701,252.165c9.665,10.713,15.401,26.899,18.649,40.72c3.298,14.03,5.334,28.812,3.27,43.167
			c0.763-1.258,1.529-2.515,2.292-3.772c-49.689,31.638-111.98,19.872-167.253,17.811c-3.629-0.135-2.811,4.468-0.315,5.628
			c20.559,9.566,43.315,11.368,65.796,11.784c25.238,0.468,51.293-0.821,75.753-7.526c10.383-2.844,20.923-6.394,30.042-12.244
			c5.837-3.741,7.517-5.582,6.918-12.679c-0.509-6.013-0.729-12.036-1.596-18.019c-3.683-25.416-12.165-48.965-30.86-67.006
			C412.686,248.382,409.935,250.213,411.701,252.165z"/>
		<path fill="#010101" d="M58.948,253.753c-4.077,2.617-7.445,4.192-10.86,7.947c-2.975,3.271-5.457,6.64-7.731,10.434
			c-5.087,8.49-9.125,17.558-11.825,27.094c-4.93,17.409-6.791,36.479-0.409,53.758c1.223,3.316,7.41,7.628,10.914,4.959
			c3.091-2.353,3.608-3.447,4.349-7.268c0.693-3.583-4.052-6.659-7.118-6.247c-1.675,0.199-3.343,0.445-5.008,0.734
			c3.135,1.827,6.271,3.653,9.406,5.481c-5.409-15.504-3.5-33.295,0.887-48.815c2.304-8.163,5.193-16.291,9.031-23.868
			c3.481-6.872,6.857-14.867,11.188-21.179C62.801,255.282,60.539,252.728,58.948,253.753z"/>
		<path fill="#010101" d="M228.096,348.08c-6.093,1.599-11.787,4.771-17.919,6.517c-6.384,1.815-12.948,3.073-19.542,3.859
			c-14.478,1.727-29.097,1.742-43.658,1.521c-36.813-0.551-72.401-0.315-108.163-10.604c0.375,4.465,0.748,8.928,1.122,13.391
			c4.392,0.261,9.286,1.553,13.261-0.843c1.834-1.108,1.407-3.369,0.333-4.858c-3.884-5.385-10.083-7.639-16.541-8.057
			c-9.353-0.606-5.161,11.615,1.122,13.391c37.923,10.713,75.987,9.237,114.92,8.391c15.257-0.333,30.732-1.125,45.669-4.468
			c9.98-2.234,26.255-6.193,30.896-16.642C229.941,348.902,228.859,347.885,228.096,348.08z"/>
		<path fill="#010101" d="M262.672,361.342c11.949,9.114,22.225,22.038,27.858,36.004c2.957,7.334,5.135,15.386,4.982,23.363
			c-0.131,6.87-2.727,13.717-2.007,20.488c0.185,1.75,3.26,4.244,4.984,2.896c6.172-4.828,6.694-15.302,6.194-22.596
			c-0.609-8.86-2.652-17.522-6.443-25.59c-7.441-15.834-18.825-28.561-33.678-37.714
			C262.186,356.731,260.627,359.788,262.672,361.342z"/>
		<path fill="#010101" d="M248.421,364.294c-2.053-0.038-2.532,2.037-1.392,3.493c3.994,5.125,8.78,8.233,10.786,14.851
			c1.805,5.952,2.345,12.119,1.544,18.301c-0.894,6.881-2.685,13.572-5.75,19.826c-2.407,4.913-5.571,9.261-8.084,14.064
			c-0.824,1.574,1.57,3.58,3.032,3.233c15.224-3.635,21.385-25.48,21.145-38.962c-0.141-7.934-1.547-15.598-5.566-22.523
			C261.093,371.328,254.992,364.416,248.421,364.294L248.421,364.294z"/>
		<path fill="#010101" d="M234.043,365.999c-0.833-1.188-3.769-1.526-3.203,0.604c3.137,11.907,4.941,23.504,0.643,35.447
			c-2.205,6.131-5.241,11.758-9.272,16.896c-3.2,4.077-6.89,7.775-8.961,12.571c-0.99,2.287,2.229,5.633,4.566,4.868
			c13.125-4.298,21.26-20.729,23.931-33.397C244.425,390.288,241.486,376.606,234.043,365.999L234.043,365.999z"/>
		<path fill="#010101" d="M275.844,480.688c1.588,6.199,2.191,14.369,1.731,20.735c-0.123,1.68-0.184,3.563-1.042,5.073
			c-0.332,0.584-0.261-0.185,0.626,0.435c1.718,1.195,0.186-0.295-0.201-1.35c-0.484-1.317-0.798-2.738-1.017-4.122
			c-0.559-3.54-0.726-7.227-0.123-10.78c0.201-1.202,0.492-2.446,1.043-3.545c0.642-1.268,0.935-0.51-0.238-0.746
			c-3.08-0.617-0.77,0.528-0.758,3.201c0.006,1.907-0.08,3.817-0.456,5.695c-0.548,2.738-1.431,5.844-3.355,7.939
			c3.419,0.71,6.836,1.419,10.255,2.131c-4.036-4.714-4.087-10.135-1.245-15.51c-3.763-0.304-7.521-0.608-11.283-0.912
			c7.139,8.03,0.252,17.699,4.413,26.443c0.829,1.743,2.9,3.243,4.905,2.86c14.258-2.724,6.922-27.669,0.618-34.674
			c-2.857-3.169-8.68-5.928-11.285-0.911c-4.726,9.114-2.742,20.496,4.187,27.944c2.273,2.444,7.313,5.711,10.255,2.131
			c8.249-10.04,7.329-30.313-4.957-36.647c-13.958-7.198-14.884,15.341-13.531,23.246c1.056,6.19,3.261,12.604,8.671,16.284
			c3.981,2.708,10.409,2.853,12.916-1.871c5.028-9.475-1.775-25.635-7.265-33.591C277.963,479.069,275.353,478.788,275.844,480.688z
			"/>
		<path fill="#010101" d="M246.146,479.98c-1.355-1.25-5.067-1.821-5.017,0.98c0.15,8.47,2.209,21.19-5.703,27.143
			c3.147,1.43,6.296,2.862,9.443,4.292c-3.428-6.007-7.374-19.074-4.743-25.741c0.743-1.881-1.503-1.797-1.651-2.484
			c0.496,2.332,0.369,4.708-0.003,7.059c-0.569,3.609-2.026,9.334-3.454,11.672c3.985,1.309,7.97,2.615,11.957,3.921
			c-1.274-3.212-2.992-6.448-2.247-10c-4.294-0.874-8.583-1.748-12.88-2.623c2.746,4.521,4.626,9.618,6.817,14.428
			c1.15,2.525,5.604,4.762,7.221,1.472c3.064-6.232,1.814-12.375-1.561-18.224c-2.75-4.763-11.615-8.962-13.202-1.068
			c-1.332,6.615,1.044,12.276,3.502,18.324c2.032,4.991,9.607,7.865,12.754,2.597c3.911-6.547,5.525-16.808,4.312-24.261
			c-1.316-8.08-9.939-17.904-19.011-13.368c-7.338,3.666-6.019,14.491-4.791,21.095c1.306,7.015,3.117,14.6,7.005,20.677
			c2.025,3.163,6.703,4.515,9.628,2C253.668,510,255.363,488.485,246.146,479.98L246.146,479.98z"/>
		<path fill="#010101" d="M339.805,553.711c-1.515,1.941-6.304-2.748-3.525,0.096c-0.316-0.354-0.308-0.331,0.032,0.067
			c0.284,0.461,0.644,0.855,0.969,1.289c-0.293-1.366-0.585-2.733-0.879-4.098c-0.555,1.918-0.114,3.551,1.08,5.142
			c1.785-2.034,3.568-4.065,5.354-6.101c-2.118-1.07-4.303-1.933-6.507-2.806c-1.721-0.682-3.871-1.249-5.327-2.281
			c-2.433-1.728-6.795-1.509-7.987,1.605c-1.312,3.416,1.441,6.788,4.119,8.506c3.727,2.393,9.253,3.316,12.936,2.375
			c4.212-1.075,3.162-6.03,0.523-8.26c0.498,0.842,0.138,0.503-1.081-1.025c-0.667-0.571-1.392-1.05-2.175-1.438
			c-1.185-0.642-2.417-0.968-3.706-1.287c-1.439-0.358-2.833-0.768-4.251-1.195c0.333,3.957,0.664,7.915,0.995,11.872
			c1.645-0.04,3.75,0.885,5.401,1.331c2.181,0.591,4.33,1.148,6.56,1.519c5.031,0.836,4.625-5.879,1.729-8.039
			c-1.595-1.188-3.406-2.25-5.477-1.675c1.082,0.22,2.164,0.44,3.248,0.661c-0.337-0.215-0.667-0.436-1.002-0.65
			c-1.145-0.483-1.397-0.601-0.757-0.353c-0.119-0.06-0.239-0.118-0.357-0.179c-0.849-0.386-1.721-0.839-2.684-0.798
			c-1.935,0.082-3.247,1.095-2.848,3.197C334.561,553.165,338.093,555.899,339.805,553.711z"/>
		<path fill="#010101" d="M185.296,543.462c0.454-2.098-0.246-3.949-1.878-5.377c-1.442-1.267-3.743-2.144-5.576-1.161
			c-2.687,1.441-4.997,3.975-7.264,6.015c3.682,2.116,7.364,4.232,11.044,6.348c0.094-1.55,0.318,0.461-0.794,1.525
			c-1.28,0.456-2.555,0.911-3.835,1.368c0.032,0.001,0.063,0.003,0.095,0.004c-1.035-0.332-2.066-0.662-3.102-0.998
			c-0.394-0.278-0.786-0.557-1.18-0.837c-0.707-0.927-1.414-1.854-2.123-2.78c0.03,0.074,0.056,0.15,0.085,0.228
			c1.345,3.646,7.715,7.099,10.83,3.552c3.191-3.638-1.22-9.268-4.929-10.275c1.191,0.529,1.533,0.672,1.018,0.44
			c-0.962-0.559-1.996-0.891-3.101-0.998c-1.387-0.111-3.006,0.24-3.929,1.372c-0.848,1.041-1.117,2.233-1.049,3.546
			c0.148,2.869,1.657,5.274,4.179,6.714c2.046,1.166,5.137,1.631,6.868-0.367c1.129-1.303,2.005-2.952,2.847-4.437
			C184.217,546.077,184.984,544.89,185.296,543.462L185.296,543.462z"/>
		<path fill="#010101" d="M331.794,551.015c-4.999,3.326-8.19,8.993-13.167,12.534c-5.319,3.788-11.258,6.664-17.585,8.329
			c-14.126,3.722-29.101,3.833-43.534,2.058c-27.095-3.332-53.233-12.104-76.065-27.075c-0.68,3.265-1.356,6.531-2.033,9.795
			c3.669,1.395,7.834,1.589,11.742,1.635c3.52,0.042,2.207-3.799,0.284-5.092c-3.252-2.186-6.547-4.482-9.997-6.338
			c-6.321-3.399-10.069,3.885-4.889,8.151c10.653,8.773,24.628,14.452,37.543,18.898c15.796,5.438,32.39,9.271,49.083,10.479
			c15.342,1.112,31.258,0.465,45.726-5.259c10.176-4.025,25.753-13.145,26.265-25.691
			C335.225,552.036,333.228,550.061,331.794,551.015z"/>
		<path fill="#010101" d="M374.9,483.093c5.41,7.99,14.32,5.612,22.128,3.407c6.473-1.827,11.473-2.128,16.574,3.109
			c3.751,3.855,5.609,9.134,4.785,14.5c-1.544,10.075-9.841,19.563-20.6,18.977c-4.308-0.234-8.573-0.861-12.704-2.142
			c-1.482-0.462-2.974-0.937-4.438-1.463c-0.465-0.175-0.934-0.333-1.41-0.474c-2.446-0.617-1.914-0.22,1.599,1.194
			c0.727,1.52,1.458,3.04,2.185,4.56c-0.794,1.498-0.891,1.883-0.287,1.159c1.868-2.008-0.277-5.234-2.178-6.258
			c-3.859-2.077-9.217-0.223-6.662,4.886c2.442,4.877,8.521,6.589,13.45,7.72c13.838,3.178,29.138,3.063,37.401-10.669
			c8.761-14.558,5.224-31.35-8.524-41.437c-6.131-4.495-13.102-6.668-20.627-4.519c-6.491,1.855-12.518,5.298-19.463,4.365
			C374.171,479.746,374.108,481.921,374.9,483.093z"/>
		<path fill="#010101" d="M122.704,479.597c0.848,0.62,3.192,1.544,3.594-0.192c1.23-5.298-4.559-10.57-8.836-12.798
			c-6.49-3.379-13.754-4.964-21.07-4.087c-14.662,1.757-27.347,13.561-27.766,28.933c-0.411,14.864,7.958,29.654,19.799,38.423
			c5.948,4.4,12.394,7.997,19.759,9.313c5.438,0.97,14.84,1.796,17.487-4.273c1.167-2.682-1.682-6.014-4.147-6.662
			c-4.811-1.267-9.351,0.901-14.261,0.059c-4.465-0.765-9.025-2.732-12.609-5.53c-7.655-5.978-14.136-14.478-15.037-24.464
			c-0.94-10.416,5.744-22.649,16.332-25.396c4.955-1.286,10.596-1.878,15.611-0.457C116.53,473.871,118.766,476.711,122.704,479.597
			L122.704,479.597z"/>
		<path fill="#010101" d="M103.083,491.864c-4.082,2.338-7.019,5.352-6.896,10.369c0.136,5.65,4.809,10.608,10.355,11.254
			c1.888,0.223,3.612-1.058,3.713-2.994c0.098-1.821-0.952-3.169-2.116-4.416c-1.198-1.278-2.383-1.618-2.244-3.343
			c0.187-2.311,0.833-4.699,1.873-6.759C108.931,493.67,105.167,490.671,103.083,491.864z"/>
		<path fill="#010101" d="M400.393,500.07c-1.298-1.656-5.565-2.363-4.772,0.903c0.559,2.31,0.764,4.469,0.643,6.835
			c0.534-0.882,1.073-1.765,1.609-2.648c-1.675,0.646-3.68,0.849-5.26,1.704c-1.995,1.081-1.794,3.682-0.656,5.268
			c2.805,3.909,8.487,3.422,12.246,1.385c1.466-0.793,1.705-2.3,1.513-3.8C405.235,505.95,402.645,502.941,400.393,500.07
			L400.393,500.07z"/>
		<path fill="#010101" d="M386.25,530.677c-1.188,7.409,3.475,16.391,6.666,22.752c4.991,9.956,10.945,19.711,18.525,27.929
			c6.295,6.824,13.781,13.783,23.183,15.716c9.795,2.015,16.745-3.062,22.702-10.295c1.657-2.014,0.735-4.448-0.492-6.379
			c-0.198-0.314-0.398-0.631-0.599-0.946c-1.651-2.596-5.251-3.83-8.057-2.676c-2.263,0.93-3.495,3.645-3.74,5.926
			c-0.207,1.93,1.37,3.678,2.871,4.612c0.318,0.199,0.637,0.397,0.955,0.595c1.435,0.894,3.664,1.325,5.205,0.421
			c0.326-0.193,3.732-2.054,1.038-1.149c-2.274-1.035-4.551-2.069-6.828-3.104c0.257,0.286,0.513,0.573,0.769,0.856
			c-0.379-1.769-0.758-3.536-1.137-5.305c-18.164,32.232-51.673-36.913-58.77-48.768
			C388.077,530.086,386.475,529.263,386.25,530.677z"/>
		<path fill="#010101" d="M383.791,561.082c-0.267-1.232-2.832-2.983-3.484-1.122c-2.987,8.522,0.152,18.553,2.667,26.81
			c3.667,12.048,8.755,23.916,15.637,34.492c11.196,17.206,31.491,33.1,49.354,14.533c3.033-3.155-1.184-8.756-4.548-9.483
			c-0.531-0.118-1.061-0.232-1.592-0.345c-1.609-0.352-4.001-0.65-5.122,1.001c-1.813,2.675-1.787,4.882-0.608,7.852
			c0.566,1.419,2.16,2.476,3.644,2.625c0.531,0.054,3.687-0.529,3.111-0.65c-1.516-3.162-3.034-6.321-4.55-9.483
			C411.644,655.416,387.446,578.084,383.791,561.082L383.791,561.082z"/>
		<path fill="#010101" d="M119.245,543.986c-2.05,34.64-59.999,49.863-75.681,17.359c-2.278,1.831-4.557,3.66-6.838,5.491
			c2.305,1.081,4.548,2.089,6.991,2.794c1.946,0.56,4.375-0.593,3.685-2.976c-1.205-4.164-3.652-6.529-7.201-8.897
			c-4.089-2.725-9.164,0.805-6.838,5.491c10.015,20.182,32.75,29.684,54.527,24.972c21.287-4.606,37.268-20.448,35.46-42.92
			C123.197,543.363,119.412,541.201,119.245,543.986z"/>
		<path fill="#010101" d="M121.986,575.226c-0.593,20.754-26.358,29.513-42.996,33.026c-11.159,2.358-22.651,3.492-34.043,2.541
			c-7.518-0.629-16.759-1.606-22.33-7.285c-0.191,3.03-0.383,6.062-0.575,9.093c4.477-1.187,9.434-1.038,13.35-3.733
			c2.292-1.577,0.867-4.915-1.275-5.948c-5.66-2.733-11.193-2.937-17.253-1.299c-4.844,1.31-3.197,6.44-0.575,9.095
			c16.196,16.362,49.08,12.588,69.008,7.454c18.542-4.777,48.59-17.952,40.708-42.131
			C125.53,574.591,122.061,572.536,121.986,575.226z"/>
		<path fill="#010101" d="M133.308,607.313c-0.801-2.348-5.7-4.093-5.003-0.409c2.715,14.391-16.551,20.752-27.118,23.22
			c-12.672,2.959-25.167,3.566-38.087,2.763c1.234,3.615,2.474,7.23,3.708,10.847c2.759-0.484,5.061-0.757,6.327-3.43
			c0.698-1.476-0.441-3.244-1.466-4.206c-2.466-2.313-5.334-2.693-8.574-3.208c-7.105-1.128-4.343,9.486,0.89,10.616
			C84.584,647.956,144.216,639.279,133.308,607.313L133.308,607.313z"/>
		<path fill="#010101" d="M222.07,331.912c-5.616-7.617-15.689-12.759-24.089-16.575c-10.322-4.688-21.199-8.54-32.479-10.104
			c-10.033-1.389-19.507-0.883-28.977,2.861c-4.828,1.912-12.123,4.829-12.736,10.907c-1.241,12.223,18.533,18.148,27.257,20.42
			c7.871,2.051,16.001,3.727,24.123,4.397c6.083,0.502,12.521,1.2,17.652-2.593c3.007-2.222-0.339-5.815-2.973-6.282
			c-10.788-1.91-21.848-1.921-32.626-4.282c-5.729-1.256-11.557-2.639-17.012-4.839c-1.846-0.744-4.018-1.551-5.566-2.835
			c-1.194-0.991-0.628-1.108-0.936-0.243c1.535-4.292,8.713-6.198,12.465-7.516c7.998-2.804,17.066-2.147,25.246-0.534
			c17.811,3.514,32.155,12.531,48.343,19.853C221.771,335.454,223.52,333.881,222.07,331.912z"/>
		<path fill="#010101" d="M280.656,330.941c18.388,2.405,32.884-12.789,49.808-17.057c5.168-1.305,10.805-1.251,16.088-0.691
			c2.559,0.273,10.299,0.595,11.414,3.672c1.904,5.26-5.031,9.555-9.006,10.703c-5.951,1.718-12.202,2.438-18.389,2.507
			c-10.261,0.116-21.567-2.738-31.563-0.542c-3.462,0.76-1.457,4.806,0.492,6.015c12.031,7.458,31.669,6.666,45.206,4.646
			c11.731-1.751,29.04-8.795,23.302-24.147c-4.846-12.962-22.927-13.749-34.458-13.104c-9.573,0.538-17.906,4.792-26.11,9.522
			c-9.396,5.415-18.738,10.176-28.787,14.248C276.234,327.694,279.22,330.755,280.656,330.941z"/>
		<path fill="#010101" d="M324.681,667.186c-1.706-1.275-5.576-1.566-4.791,1.704c1.539,6.432,5.489,12.765,8.358,18.709
			c3.427,7.094,6.56,14.352,9.33,21.726c5.931,15.787,10.602,32.089,14.137,48.578c6.653,31.055,10.544,62.63,10.419,94.417
			c-0.033,8.82,17.008,16.255,16.996,5.447c-0.007-5.137-0.741-9.406-4.139-13.423c-1.768-2.091-5.396-4.501-8.209-2.728
			c-4.013,2.523-4.642,6.189-4.646,10.701c5.665,1.815,11.33,3.63,16.996,5.446c-0.325-33.834-4.391-68.11-12.792-100.907
			c-4.342-16.948-9.568-33.757-16.597-49.801C343.939,693.815,336.627,676.119,324.681,667.186L324.681,667.186z"/>
		<path fill="#010101" d="M163.797,657.684c0.713-2.543-3.349-6.474-5.45-3.888c-10.655,13.177-18.565,28.53-26.45,43.456
			c-8.2,15.525-15.861,31.394-22.534,47.639c-6.935,16.879-12.892,34.258-16.624,52.149c-1.686,8.084-3.204,16.2-3.95,24.436
			c-0.707,7.797-2.226,17.049,0.195,24.609c1.319,4.113,4.602,7.66,9.15,8.028c2.815,0.229,6.363-1.646,6.131-4.941
			c-0.11-1.516-0.264-2.97-0.528-4.467c-0.484-2.748-3.193-4.748-5.817-5.105c-0.979-0.199-1.967-0.304-2.962-0.32
			c2.986,3.87,5.967,7.743,8.952,11.613c2.347-7.443,1.017-16.219,1.772-24.004c0.838-8.683,2.007-17.39,3.879-25.915
			c3.761-17.127,9.04-33.914,15.239-50.309c6.24-16.492,13.361-32.618,20.691-48.652
			C152.131,687.496,159.455,673.108,163.797,657.684L163.797,657.684z"/>
		<path fill="#010101" d="M379.493,860.739c-0.035-2.434-2.542-4.271-4.825-3.467c-7.659,2.67-14.028,8.153-21.984,10.617
			c-9.418,2.912-19.194,4.669-28.992,5.69c-19.425,2.021-38.881,2.092-58.387,1.982c-27.669-0.152-54.919-2.27-81.97-8.405
			c-29.713-6.744-58.624-16.359-87.557-25.808c0.444,5.308,0.887,10.611,1.333,15.918c5.91,0.163,12.07,1.796,17.92,0.545
			c6.865-1.468,2.622-9.245-0.956-11.661c-6.008-4.059-13.367-5.051-20.471-5.242c-11.272-0.303-5.976,13.537,1.334,15.917
			c31.449,10.251,62.884,20.695,95.321,27.404c27.415,5.669,54.778,7.535,82.709,7.584c21.536,0.035,43.568-0.561,64.719-4.928
			C350.259,884.293,379.748,878.034,379.493,860.739L379.493,860.739z"/>
		<path fill="#010101" d="M320.939,881.662c-0.333-0.801-2.451-1.64-2.38-0.196c1.057,20.637-0.956,40.766-6.336,60.733
			c-4.966,18.425-10.75,36.584-13.229,55.563c-0.505,3.883,4.545,8.209,8.291,7.274c4.813-1.2,10.787-1.937,15.601-0.359
			c0.394,0.129,1.973,1.112,1.521,0.404c-0.67-1.052-0.757,1.295-1.094,1.919c-1.573,2.913-3.968,6.123-7.39,6.948
			c-12.644,3.048-26.318-2.944-38.291-6.576c1.345,0.968,2.687,1.935,4.033,2.9c-0.018-0.024-0.033-0.046-0.051-0.071
			c-1.043,2.617-2.086,5.237-3.128,7.854c2.956,0.365,4.828,0.151,7.02-1.867c1.61-1.485,0.195-4.492-1.189-5.55
			c-2.17-1.659-4.079-2.626-6.732-3.336c-5.527-1.475-7.118,3.461-4.596,7.561c2.235,3.632,8.527,4.447,12.295,5.61
			c5.621,1.727,11.29,3.362,17.089,4.384c10.239,1.798,23.123,2.322,29.58-7.507c13.324-20.272-14.651-27.301-29.792-23.189
			c2.764,2.424,5.526,4.85,8.289,7.273C314.773,961.937,337.254,920.922,320.939,881.662L320.939,881.662z"/>
		<path fill="#010101" d="M295.234,885.816c-0.521-0.817-2.461-1.294-2.519,0.127c-0.569,15.342-1.247,30.292-4.585,45.367
			c-1.607,7.27-2.219,14.729-3.304,22.085c-0.956,6.482-1.129,15.174-4.791,20.79c-4.938,7.572-13.135,15.963-14.402,25.253
			c-0.935,6.842,9.765,18.929,15.647,10.985c1.474-1.989,0.411-4.565-1.294-6.047c-1.131-0.982-2.21-1.859-3.65-2.357
			c-2.145-0.995-1.886-0.277,0.776,2.154c0.207-1.525,0.866-3.025,1.562-4.387c2.219-4.334,5.043-8.286,7.8-12.284
			c2.293-3.328,5.226-6.852,6.134-10.85c1.291-5.699,2.262-11.446,2.977-17.243c1.625-13.23,3.728-26.6,4.778-39.874
			C301.266,908.124,301.589,895.772,295.234,885.816L295.234,885.816z"/>
		<path fill="#010101" d="M173.598,871.443c-0.305-1.102-2.738-2.938-3.355-1.085c-3.017,9.141-2.67,19.278-3.263,28.808
			c-0.655,10.577-1.501,21.143-2.515,31.69c-2.052,21.408-5,42.718-8.922,63.865c-0.721,3.896,4.746,8.299,8.383,7.354
			c10.844-2.813,22.044,0.837,20.283,13.771c1.068-1.218,2.137-2.434,3.204-3.652c-18.441,5.453-37.165-2.803-55.852-0.012
			c-3.896,0.582-3.81,5.468-1.76,7.884c4.209,4.956,8.55,6.906,14.618,4.233c1.999-0.88,1.552-3.913,0.356-5.229
			c-1.312-1.449-2.398-2.518-4.216-3.309c-0.533-0.231-3.221-1.892-2.03-0.411c-0.588,2.63-1.173,5.256-1.76,7.884
			c18.706-2.802,37.171,5.519,55.84-0.012c1.919-0.571,2.932-1.64,3.204-3.652c2.835-20.9-18.465-33.408-37.074-28.491
			c2.797,2.451,5.587,4.904,8.384,7.355c3.557-21.307,6.165-42.745,7.535-64.306c0.681-10.692,1.106-21.419,1.138-32.134
			C175.83,891.832,176.324,881.32,173.598,871.443L173.598,871.443z"/>
		<path fill="#010101" d="M141.918,866.458c-0.69-1.604-4.077-2.293-3.596,0.168c7.506,38.196-6.04,77.67-13.733,114.534
			c-1.532,7.355-1.94,14.838-3.701,22.14c-1.024,4.261-2.24,8.554-1.485,12.954c0.7,4.084,5.226,8.302,9.477,8.213
			c5.949-0.124,9.375-2.448,12.737-7.204c2.012-2.849-1.634-6.172-4.491-5.88c-3.561,0.363-6.46,1.165-9.913,1.761
			c-2.885,0.495,3.166,6.149,3.543,2.677c0.065-0.765,0.166-1.522,0.301-2.276c0.784-4.096,2.06-8.104,2.653-12.239
			c2.399-16.725,6.869-32.67,10.317-49.182C149.741,924.778,153.181,892.654,141.918,866.458L141.918,866.458z"/>
		<path fill="#010101" d="M318.244,656.414c-1.981,1.259-0.012,3.63,1.454,4.228c6.867,2.797,14.443,3.478,21.417,6.03
			c6.751,2.471,13.432,5.94,19.041,10.489c11.388,9.233,19.058,20.573,24.658,34.03c0.646-2.889,1.289-5.778,1.935-8.666
			c-7.33,3.038-14.813,5.711-22.37,8.127c-6.456,2.063-17.965,4.783-11.927,14.274c2.107,3.307,6.125,4.673,9.815,4.458
			c5.794-0.337,12.126-3.49,17.563-5.413c6.044-2.141,12.051-4.373,17.949-6.89c3.368-1.434,3.169-5.938,1.936-8.664
			c-7.597-16.765-19.999-32.119-35.359-42.357C353.13,658.579,331.413,648.044,318.244,656.414L318.244,656.414z"/>
		<path fill="#010101" d="M167.94,647.647c2.966-1.232-0.315-4.982-1.929-5.602c-15.669-5.998-33.921,4.685-45.514,14.596
			c-13.074,11.184-24.465,25.746-29.04,42.57c-1.545,5.687,2.736,10.061,7.577,12.17c6.09,2.655,11.912,5.885,17.956,8.646
			c2.647,1.211,7.593,2.73,9.689-0.518c2.889-4.482,0.41-10.757-4.525-12.99c-7.473-3.386-14.683-7.284-22.294-10.37
			c2.524,4.056,5.049,8.113,7.575,12.17c3.559-14.979,12.651-28.904,23.614-39.565c5.636-5.481,11.779-10.309,18.729-14.022
			C155.628,651.605,161.87,650.176,167.94,647.647L167.94,647.647z"/>
		<path fill="#010101" d="M381.004,715.224c-2.449-1.336-4.522,0.94-2.817,3.207c8.451,11.262,17.574,22.064,24.625,34.312
			c6.051,10.511,14.779,24.86,14.434,37.437c-0.153,5.47,4.792,9.856,9.918,10.539c5.393,0.719,15.647,6.1,20.66,2.19
			c4.456-3.474,3.051-9.293-0.981-12.69c-2.113-1.779-4.207-2.741-6.859-3.312c-8.191-1.763-11.106,7.218-4.7,12.081
			c0.775,0.587,1.54,1.183,2.293,1.793c-0.822-3.837-1.644-7.674-2.466-11.509c2.969-2.435,3.346-1.355,0.12-2.123
			c-1.202-0.284-2.402-0.571-3.602-0.855c-2.573-0.585-5.206-1.32-7.854-1.379c3.019,2.177,6.039,4.354,9.06,6.531
			c-6.196-15.5-11.494-30.284-20.889-44.335C403.808,734.934,394.086,722.362,381.004,715.224L381.004,715.224z"/>
		<path fill="#010101" d="M427.299,803.166c1.221,5.337,2.245,11.079,2.576,16.549c0.168,2.737-0.336,4.729,0.778,7.552
			c1.23,3.118,4.824,5.594,8.187,5.161c7.167-0.917,1.875-10.523,0.634-13.892c-1.977-5.361-4.242-10.608-7.009-15.611
			C431.353,800.914,426.461,799.483,427.299,803.166z"/>
		<path fill="#010101" d="M419.358,808.875c-1.292-2.5-7.16-4.05-6.164,0.289c0.767,3.337,0.984,7.89-0.277,11.156
			c-1.235,3.191-4.029,6.472-3.744,9.907c0.322,3.816,3.95,8.316,8.299,7.279c5.963-1.418,6.769-8.459,6.363-13.772
			C423.417,818.254,421.868,813.727,419.358,808.875L419.358,808.875z"/>
		<path fill="#010101" d="M101.686,722.334c1.692-2.419-2.335-6.03-4.474-3.926c-13.244,13.02-24.182,28.108-36.73,41.761
			c-10.128,11.021-24.423,26.6-40.976,24.343c-2.302-0.313-4.333,0.909-5.293,2.952c-0.104,0.226-0.212,0.454-0.318,0.68
			c-2.466,5.257,4.954,11.572,9.868,10.517c1.884-0.402,2.812-1.381,4.412-2.297c1.908-1.101,1.576-3.688,0.354-5.182
			c-2.146-2.626-4.383-4.388-7.575-5.615c1.855,3.864,3.705,7.723,5.558,11.587c0.128-0.214,0.257-0.422,0.385-0.636
			c-2.094,0.41-4.187,0.82-6.282,1.231c19.181,4.153,34.701-10.748,46.073-24.301C80.099,757.464,89.796,739.334,101.686,722.334
			L101.686,722.334z"/>
		<path fill="#010101" d="M53.817,804.115c-1.264-3.361-8.44-5.896-8.838-0.717c-0.144,1.852,0.018,3.709-0.259,5.556
			c-0.097,0.644-0.32,1.327-0.587,1.928c0.009-0.024-0.901,1.588-0.364,0.854c-1.07,1.463-0.679,0.883-2.303,1.661
			c-1.738,0.831-3.053,1.772-3.597,3.742c-0.622,2.258,0.323,4.591,2.116,6.071c2.78,2.295,7.511,4.254,10.866,1.666
			c1.803-1.394,3.393-2.879,4.15-5.12C56.66,814.845,55.601,808.852,53.817,804.115L53.817,804.115z"/>
		<path fill="#010101" d="M35.851,806.499c1.15-2.439-2.598-5.283-4.771-4.183c-1.291,0.647-2.627,1.092-3.927,1.801
			c-1.503,0.819-2.907,2.058-4.088,3.29c-2.755,2.874-4.893,5.817-4.265,9.977c0.521,3.43,5.672,7.421,9.079,5.274
			c2.942-1.854,3.711-5.191,5.094-8.179c0.699-1.512,1.326-3.041,1.854-4.615C35.19,808.793,35.378,807.504,35.851,806.499
			L35.851,806.499z"/>
		<path fill="#010101" d="M294.756,663.842c-0.44-0.377-1.365-0.628-1.638,0.091c-1.966,5.074,0.161,11.39-1.586,16.768
			c-1.656,5.096-4.692,9.731-8.603,13.394c-9.13,8.547-21.877,13.078-34.139,14.548c-11.557,1.383-24.913,0.541-34.788-6.292
			c-10.573-7.314-10.805-20.896-7.874-32.236c-1.449,0.809-2.901,1.618-4.352,2.427c3.008,0.277,5.772,1.226,8.799,1.218
			c4.417-0.008,4.373-4.867,1.556-7.226c-3.779-3.165-7.829-4.718-12.748-5.17c-1.639-0.149-3.882,0.617-4.35,2.427
			c-4.165,16.157-2.349,34.15,11.688,45.081c12.384,9.642,28.371,12.482,43.743,10.855c14.722-1.561,30.641-7.04,40.852-18.269
			C299.473,692.485,305.895,673.385,294.756,663.842L294.756,663.842z"/>
		<path fill="#010101" d="M373.229,738.026c10.194,8.894,18.125,18.879,23.779,31.238c2.84,6.206,5.225,12.553,7.319,19.05
			c1.451,4.499,2.611,9.376,5.641,13.089c0.843,1.032,3.732,2.483,4.353,0.352c1.646-5.661-1.517-12.51-3.437-17.83
			c-2.687-7.447-5.649-14.952-9.691-21.783c-6.505-11.007-14.587-22.091-26.957-26.705
			C372.376,734.744,372.103,737.043,373.229,738.026z"/>
		<path fill="#010101" d="M103.643,737.641c0.381-1.029-1.469-2.639-2.207-1.576c-7.281,10.494-15.773,19.738-23.958,29.502
			c-7.331,8.744-14.689,18.013-15.987,29.717c-0.149,1.322,2.151,3.154,3.185,1.831c7.567-9.69,13.358-20.677,20.894-30.455
			C92.51,757.659,99.664,748.397,103.643,737.641L103.643,737.641z"/>
		<path fill="#010101" d="M265.666,534.292c-1.648-1.197-3.206-2.152-5.085-2.945c0.033,0.014-1.261-0.56-0.611-0.255
			c-0.287-0.128-0.567-0.266-0.85-0.409c-0.982-0.484-1.868-0.794-2.965-0.894c-1.545-0.142-2.947,0.838-3.033,2.447
			c-0.073,1.393,0.72,2.712,1.729,3.605c2.482,2.196,5.896,2.387,8.966,3.207C267.058,539.917,268.152,536.101,265.666,534.292z"/>
	</g>
</g>
</svg>
