<?xml version="1.0" encoding="UTF-8" standalone="no"?>
<!DOCTYPE svg PUBLIC "-//W3C//DTD SVG 1.1//EN" "http://www.w3.org/Graphics/SVG/1.1/DTD/svg11.dtd">
<svg width="100%" height="100%" viewBox="0 0 1024 1024" version="1.1" xmlns="http://www.w3.org/2000/svg" xmlns:xlink="http://www.w3.org/1999/xlink" xml:space="preserve" xmlns:serif="http://www.serif.com/" style="fill-rule:evenodd;clip-rule:evenodd;stroke-linejoin:round;stroke-miterlimit:1.41421;">
    <g id="Layer_4">
        <path d="M518.041,457.929C531.014,423.762 576.48,407.722 608.948,420.479C640.754,432.972 668.868,464.86 669.826,499.757C670.569,526.9 651.75,552.009 630.388,566.848C617.179,576.03 602.529,581.931 586.968,585.746C569.547,590.013 547.091,583.376 531.884,593.031C526.28,596.592 518.833,605.065 522.487,612.444C531.861,631.38 568.564,622.553 585.215,619.146C607.907,614.503 629.668,603.633 648.12,589.819C681.2,565.051 706.247,525.77 702.446,483.176C698.456,438.426 654.849,396.007 611.27,389.141C588.048,385.48 562.999,392.646 543.858,405.788C524.427,419.128 514.935,435.375 509.292,457.524C507.817,463.338 516.504,461.977 518.041,457.929Z" style="fill:rgb(1,1,1);fill-rule:nonzero;"/>
        <path d="M531.332,500.765C536.481,500.448 542.784,495.168 546.847,497.236C549.64,498.659 551.723,504.714 552.374,509.105C553.255,515.058 552.366,523.318 550.966,527.15C550.387,528.74 549.627,530.251 548.862,531.752C550.638,528.262 544.977,535.957 548.755,532.108C546.093,534.823 549.733,531.752 550.719,531.329C547.753,532.594 544.702,533.331 541.878,535.055C529.603,542.534 523.365,565.068 543.568,565.181C558.851,565.266 572.805,548.563 577.886,535.527C582.759,523.029 583.116,509.887 579.816,496.968C577.131,486.46 569.756,477.474 558.847,475.273C546.813,472.846 528.764,482.594 526.365,495.096C525.72,498.429 527.941,500.973 531.332,500.765Z" style="fill:rgb(1,1,1);fill-rule:nonzero;"/>
        <path d="M519.475,89.04C418.559,72.143 324.327,145.646 270.427,224.466C209.634,313.365 179.602,421.637 166.876,527.748C154.043,634.735 155.133,748.811 212.821,843.343C276.388,947.505 399.272,984.952 514.983,977.575C587.287,972.965 660.235,952.375 722.902,915.504C754.929,896.656 785.141,871.92 806.486,841.166C827.661,810.655 838.768,774.579 843.218,737.926C847.671,701.28 846.221,664.297 844.758,627.519C843.225,588.883 840.541,550.69 834.972,512.402C823.845,435.917 806.989,356.447 778.535,284.409C759.57,236.399 728.341,191.263 694.87,152.431C663.342,115.852 619.523,73.095 567.644,77.72C547.666,79.503 522.789,116.862 552.074,123.504C570.053,127.584 593.883,141.783 610.029,155.205C633.55,174.755 653.817,198.255 672.26,222.598C689.256,245.027 704.466,268.836 717.185,293.975C731.303,321.871 740.019,352.37 748.728,382.306C771.061,459.044 786.315,538.661 790.149,618.619C793.232,682.959 803.732,762.491 766.536,819.441C729.819,875.661 654.717,902.937 592.783,917.781C532.539,932.218 467.709,933.319 407.56,918.128C356.081,905.133 309.72,876.517 275.332,835.875C238.085,791.851 218.782,735.259 211.877,678.5C200.006,580.908 213.897,477.064 241.062,383.205C267.657,291.328 311.406,194.979 395.226,142.613C431.191,120.144 472.22,112.468 513.497,106.602C520.629,105.588 531.142,90.997 519.475,89.04Z" style="fill:rgb(1,1,1);fill-rule:nonzero;"/>
        <path d="M323.06,379.044C307.101,391.05 302.735,415.784 300.288,434.332C297.424,456.026 297.382,479.064 305.413,499.719C313.019,519.268 337.668,503.149 344.004,491.856C363.924,456.382 374.586,402.87 349.962,367.695C339.253,352.409 315.344,369.531 309.998,380.8C306.211,388.796 302.537,397.735 304.157,406.677C308.623,431.264 336.536,417.756 344.828,403.379C347.552,398.663 349.106,393.493 351.272,388.496C337.953,392.867 324.636,397.232 311.314,401.601C321.478,410.17 320.363,427.621 318.974,439.59C317.148,455.25 312.595,470.365 306.633,484.887C318.693,480.93 330.752,476.975 342.813,473.018C334.668,460.688 334.122,441.776 333.71,427.579C333.27,412.297 338.158,396.791 336.969,381.765C336.342,373.843 327.407,375.771 323.06,379.044Z" style="fill:rgb(1,1,1);fill-rule:nonzero;"/>
        <path d="M196.174,735.018C231.91,732.004 267.546,724.248 301.54,712.918C329.401,703.635 358.415,691.439 381.062,672.288C387.68,666.694 390.613,658.798 388.676,650.45C387.121,643.734 387.248,637.859 383.884,631.529C373.498,640.639 363.115,649.756 352.734,658.864C360.085,663.052 367.038,670.994 376.109,670.255C379.016,670.02 379.962,669.405 382.134,668.896C385.009,667.946 387.58,666.466 389.853,664.459C384.842,668.04 384.842,668.04 389.853,664.459C396.045,658.565 400.26,650.81 397.833,642.066C395.439,633.445 385.64,628.783 378.28,625.142C360.814,616.506 339.282,639.767 349.356,656.178C351.801,660.156 351.663,666.365 352.979,670.794C355.515,663.512 358.052,656.231 360.59,648.953C352.922,656.081 348.968,658.682 337.4,665.056C326.133,671.271 314.333,676.309 302.318,680.864C272.03,692.358 240.28,700.292 208.209,704.786" style="fill:rgb(1,1,1);fill-rule:nonzero;"/>
        <path d="M433.088,146.66C403.626,147.359 380.247,163.285 362.986,186.72C349.942,204.426 327.206,241.303 340.778,263.397C347.823,274.862 363.832,268.52 370.826,260.672C383.963,245.933 387.244,224.061 395.742,206.539C403.037,191.474 416.408,172.382 432.662,165.958C442.689,161.994 448.395,146.298 433.088,146.66Z" style="fill:rgb(1,1,1);fill-rule:nonzero;"/>
        <path d="M451.231,161.218C439.169,182.086 423.023,206.872 420.702,231.266C418.316,256.412 457.085,247.716 462.598,230.226C469.115,209.582 468.87,187.56 475.092,166.581C479.781,150.788 457.559,150.27 451.231,161.218Z" style="fill:rgb(1,1,1);fill-rule:nonzero;"/>
    </g>
</svg>
