<?xml version="1.0" encoding="utf-8"?>
<!-- Generator: Adobe Illustrator 15.1.0, SVG Export Plug-In . SVG Version: 6.00 Build 0)  -->
<!DOCTYPE svg PUBLIC "-//W3C//DTD SVG 1.1//EN" "http://www.w3.org/Graphics/SVG/1.1/DTD/svg11.dtd">
<svg version="1.1" xmlns="http://www.w3.org/2000/svg" xmlns:xlink="http://www.w3.org/1999/xlink" x="0px" y="0px" width="1024px"
	 height="1024px" viewBox="0 0 1024 1024" enable-background="new 0 0 1024 1024" xml:space="preserve">
<g id="Layer_7" display="none">
	<g display="inline">
		<path d="M994.904,521.357c0.018,15.985-0.752,31.979-2.265,47.898c-1.47,15.926-3.771,31.772-6.756,47.49
			c-6.003,31.433-15.03,62.306-26.918,92.085c-11.902,29.77-26.658,58.455-44.105,85.474c-17.456,27.01-37.556,52.381-60.012,75.549
			c-22.49,23.125-47.236,44.151-73.941,62.412c-13.34,9.146-27.169,17.587-41.369,25.358c-14.229,7.719-28.83,14.771-43.771,21.026
			c-29.88,12.515-61.046,21.993-92.846,28.204c-31.805,6.226-64.194,9.19-96.59,8.927c-32.312-0.284-64.655-3.751-96.258-10.396
			c-31.607-6.672-62.513-16.473-92.11-29.208c-59.24-25.426-113.14-62.532-158.329-108.104
			c-22.596-22.795-43.01-47.729-60.889-74.372c-8.931-13.327-17.223-27.083-24.849-41.201
			c-7.601-14.131-14.563-28.611-20.797-43.405c-6.23-14.795-11.731-29.902-16.473-45.249c-4.779-15.335-8.82-30.908-12.074-46.652
			c-6.483-31.495-10.002-63.612-10.333-95.852c-0.735-64.369,11.066-129.188,35.458-189.144
			c24.245-60.01,60.785-115.045,106.435-161.082c22.82-23.027,47.895-43.846,74.786-62.01
			c26.898-18.153,55.595-33.668,85.554-46.214c29.946-12.579,61.188-22.084,93.055-28.429c31.871-6.332,64.372-9.452,96.846-9.403
			c64.947,0.079,129.913,13.08,189.667,38.394c14.94,6.316,29.538,13.418,43.757,21.19c14.196,7.816,28.013,16.305,41.344,25.487
			c26.682,18.339,51.419,39.402,73.885,62.573c22.445,23.199,42.53,48.596,59.984,75.618c17.444,27.033,32.198,55.729,44.098,85.51
			c11.886,29.79,20.903,60.675,26.887,92.117c2.979,15.723,5.262,31.574,6.72,47.502
			C994.19,489.375,994.939,505.367,994.904,521.357z M993.304,521.355c-0.04-15.938-0.827-31.873-2.422-47.728
			c-1.633-15.85-3.992-31.625-7.212-47.223c-6.403-31.201-15.988-61.727-28.567-90.921
			c-25.108-58.438-62.19-111.387-107.617-155.261c-45.412-43.932-99.188-78.815-157.404-102.45
			c-29.108-11.819-59.335-20.836-90.151-26.792c-30.818-5.929-62.196-8.921-93.578-8.833c-31.38,0.052-62.741,3.093-93.514,9.162
			c-30.776,6.042-60.946,15.139-89.983,27.025c-58.073,23.805-111.379,59.232-156.049,103.475
			c-44.691,44.235-80.65,97.3-105.266,155.307c-6.165,14.497-11.615,29.304-16.322,44.352c-4.735,15.04-8.742,30.317-11.98,45.767
			c-6.483,30.905-9.896,62.46-10.258,94.134c-0.754,63.249,10.991,126.893,35.139,185.645
			c23.958,58.816,60.041,112.703,105.166,157.41c45.083,44.77,99.283,80.162,158.06,103.598
			c58.788,23.501,122,35.021,185.029,34.414c15.708-0.131,31.473-1.005,47.119-2.598c15.651-1.624,31.228-3.946,46.648-7.039
			c30.844-6.177,61.09-15.301,90.193-27.25c58.206-23.883,111.929-58.896,157.307-102.903
			c45.399-43.939,82.479-96.907,107.584-155.366c12.576-29.204,22.152-59.743,28.537-90.953c3.211-15.603,5.554-31.384,7.175-47.236
			C992.515,553.231,993.281,537.298,993.304,521.355z"/>
	</g>
	<g display="inline">
		<circle fill="#010101" cx="504.509" cy="526.651" r="12.49"/>
		<path d="M517.049,526.652c-0.001,3.271-1.183,6.592-3.485,9.053c-1.138,1.231-2.543,2.238-4.105,2.894
			c-1.557,0.672-3.264,0.964-4.949,0.957c-1.688-0.036-3.363-0.422-4.887-1.106c-1.523-0.69-2.902-1.666-4.067-2.844
			c-2.314-2.371-3.739-5.601-3.81-8.954c-0.115-3.345,1.205-6.752,3.6-9.164c2.367-2.439,5.736-3.892,9.178-3.842
			c3.383-0.022,6.792,1.451,9.052,3.941C515.871,520.056,517.06,523.377,517.049,526.652z M516.949,526.65
			c0.021-3.275-1.486-6.457-3.841-8.599c-2.352-2.161-5.445-3.384-8.612-3.375c-3.11,0.019-6.241,1.263-8.486,3.476
			c-2.257,2.199-3.633,5.292-3.717,8.499c-0.102,3.198,1.17,6.468,3.507,8.709c2.296,2.293,5.558,3.45,8.709,3.367
			c3.171-0.038,6.258-1.313,8.61-3.466C515.468,533.11,516.981,529.931,516.949,526.65z"/>
	</g>
	<g display="inline">
		<path d="M44.808,528.115c2.264-0.886,4.527-1.47,6.791-1.962c2.264-0.485,4.527-0.835,6.791-1.093s4.527-0.429,6.791-0.498
			c2.264-0.115,4.527-0.039,6.791,0.25c4.527,0.579,9.055,2.037,13.582,2.302c4.527,0.308,9.054-0.146,13.582-1.013
			c2.264-0.411,4.527-0.854,6.791-1.157c2.264-0.316,4.527-0.461,6.791-0.632c4.527-0.345,9.054-0.7,13.582-0.553
			c4.527,0.156,9.054,0.572,13.581,1.25c4.527,0.691,9.054,1.578,13.582,3.105v0.9c-4.527,1.527-9.054,2.414-13.582,3.105
			c-4.527,0.678-9.054,1.094-13.581,1.25c-4.527,0.147-9.055-0.208-13.582-0.553c-2.264-0.171-4.527-0.315-6.791-0.632
			c-2.263-0.303-4.527-0.746-6.791-1.157c-4.527-0.867-9.054-1.32-13.582-1.013c-4.527,0.265-9.054,1.723-13.582,2.302
			c-2.263,0.289-4.527,0.365-6.791,0.25c-2.264-0.069-4.527-0.24-6.791-0.498s-4.527-0.607-6.791-1.093
			c-2.263-0.492-4.527-1.076-6.791-1.962V528.115z"/>
	</g>
	<g display="inline">
		<path d="M98.757,340.315c1.234-0.411,2.344-0.548,3.415-0.601c1.068-0.046,2.081,0.03,3.054,0.191
			c0.975,0.159,1.913,0.399,2.812,0.723c0.906,0.311,1.756,0.743,2.495,1.42c1.494,1.318,2.626,3.431,4.248,4.468
			c1.605,1.073,3.532,1.44,5.624,1.445c1.038,0.021,2.089,0.012,3.082,0.131c0.999,0.107,1.925,0.371,2.864,0.61
			c1.876,0.479,3.76,0.94,5.434,1.864c1.674,0.924,3.227,2.112,4.684,3.511c1.448,1.42,2.815,3.016,3.916,5.196l-0.373,0.819
			c-2.368,0.601-4.469,0.617-6.491,0.457c-2.012-0.181-3.928-0.573-5.723-1.229c-1.795-0.656-3.38-1.775-4.973-2.876
			c-0.796-0.551-1.604-1.077-2.34-1.76c-0.742-0.67-1.425-1.469-2.122-2.238c-1.377-1.575-2.919-2.788-4.783-3.294
			c-1.847-0.543-4.184-0.011-6.159-0.272c-0.996-0.112-1.88-0.47-2.709-0.95c-0.834-0.466-1.631-1.016-2.391-1.646
			c-0.761-0.629-1.483-1.343-2.149-2.179c-0.664-0.842-1.289-1.77-1.789-2.97L98.757,340.315z"/>
	</g>
	<g display="inline">
		<path d="M274.372,143.682c1.294,0.424,2.331,1.003,3.288,1.632c0.952,0.631,1.788,1.333,2.545,2.083
			c0.758,0.749,1.44,1.544,2.044,2.387c0.617,0.835,1.119,1.74,1.391,2.785c0.578,2.069,0.41,4.591,1.252,6.499
			c0.808,1.929,2.28,3.455,4.09,4.774c0.889,0.67,1.805,1.323,2.601,2.049c0.808,0.719,1.467,1.528,2.151,2.323
			c1.366,1.589,2.749,3.169,3.697,5.012c0.949,1.843,1.649,3.838,2.151,5.952c0.483,2.127,0.8,4.354,0.569,6.915l-0.77,0.468
			c-2.38-0.974-4.21-2.28-5.876-3.688c-1.646-1.42-3.094-2.959-4.293-4.65c-1.2-1.69-1.965-3.646-2.747-5.59
			c-0.391-0.973-0.805-1.931-1.071-2.979c-0.278-1.041-0.437-2.155-0.622-3.251c-0.337-2.215-1.014-4.224-2.354-5.829
			c-1.306-1.626-3.622-2.639-5.192-4.104c-0.802-0.723-1.375-1.585-1.832-2.517c-0.471-0.924-0.862-1.896-1.178-2.914
			c-0.317-1.017-0.555-2.083-0.678-3.218c-0.117-1.139-0.154-2.326,0.065-3.669L274.372,143.682z"/>
	</g>
	<g display="inline">
		<path d="M709.364,135.268c0.219,1.283,0.186,2.4,0.074,3.467c-0.117,1.063-0.346,2.052-0.653,2.99
			c-0.306,0.939-0.686,1.829-1.144,2.669c-0.444,0.848-1.001,1.623-1.783,2.25c-1.53,1.275-3.79,2.073-5.062,3.518
			c-1.306,1.423-1.961,3.272-2.285,5.338c-0.179,1.022-0.33,2.063-0.599,3.026c-0.258,0.97-0.66,1.846-1.039,2.737
			c-0.759,1.781-1.501,3.573-2.669,5.087c-1.168,1.513-2.579,2.867-4.183,4.095c-1.624,1.214-3.409,2.323-5.732,3.079l-0.752-0.493
			c-0.233-2.432,0.07-4.511,0.536-6.485c0.485-1.96,1.164-3.794,2.086-5.469c0.922-1.675,2.269-3.07,3.6-4.477
			c0.666-0.703,1.309-1.421,2.096-2.044c0.775-0.631,1.669-1.185,2.535-1.757c1.766-1.121,3.199-2.46,3.983-4.225
			c0.818-1.743,0.647-4.133,1.207-6.046c0.263-0.967,0.751-1.787,1.351-2.533c0.588-0.754,1.253-1.458,1.991-2.113
			c0.737-0.656,1.553-1.261,2.481-1.792c0.934-0.527,1.944-1.004,3.208-1.315L709.364,135.268z"/>
	</g>
	<g display="inline">
		<path d="M876.978,338.767c-0.616,1.214-1.347,2.151-2.113,3.001c-0.769,0.844-1.59,1.564-2.446,2.198
			c-0.855,0.635-1.745,1.189-2.67,1.658c-0.92,0.482-1.891,0.84-2.965,0.95c-2.132,0.256-4.6-0.293-6.613,0.249
			c-2.029,0.505-3.761,1.728-5.34,3.316c-0.798,0.776-1.583,1.582-2.422,2.258c-0.833,0.688-1.733,1.218-2.622,1.772
			c-1.779,1.108-3.551,2.235-5.517,2.892c-1.967,0.657-4.045,1.045-6.211,1.22c-2.175,0.153-4.425,0.128-6.92-0.491l-0.346-0.831
			c1.324-2.204,2.895-3.815,4.54-5.247c1.653-1.411,3.396-2.607,5.249-3.536c1.854-0.929,3.902-1.388,5.943-1.865
			c1.021-0.238,2.03-0.501,3.106-0.605c1.071-0.117,2.196-0.104,3.309-0.12c2.241,0.004,4.329-0.359,6.12-1.44
			c1.806-1.043,3.158-3.178,4.846-4.507c0.836-0.683,1.775-1.117,2.766-1.427c0.985-0.324,2.006-0.563,3.06-0.721
			c1.054-0.159,2.143-0.231,3.284-0.18c1.143,0.058,2.322,0.201,3.616,0.623L876.978,338.767z"/>
	</g>
	<g display="inline">
		<path d="M889.035,734.9c-1.234,0.411-2.344,0.548-3.415,0.601c-1.068,0.047-2.081-0.029-3.055-0.19
			c-0.975-0.159-1.912-0.399-2.812-0.724c-0.906-0.311-1.756-0.743-2.495-1.42c-1.493-1.319-2.626-3.431-4.248-4.468
			c-1.605-1.074-3.532-1.44-5.624-1.446c-1.038-0.021-2.089-0.012-3.082-0.131c-0.998-0.107-1.925-0.371-2.863-0.61
			c-1.876-0.479-3.761-0.939-5.434-1.863c-1.674-0.924-3.228-2.112-4.685-3.511c-1.447-1.42-2.814-3.017-3.916-5.197l0.373-0.818
			c2.368-0.601,4.47-0.617,6.491-0.457c2.012,0.182,3.928,0.573,5.723,1.229c1.796,0.656,3.38,1.775,4.973,2.876
			c0.797,0.551,1.604,1.077,2.34,1.76c0.742,0.671,1.426,1.47,2.122,2.239c1.377,1.574,2.919,2.787,4.782,3.294
			c1.848,0.543,4.185,0.011,6.159,0.272c0.996,0.112,1.88,0.47,2.709,0.949c0.835,0.466,1.632,1.017,2.392,1.646
			c0.761,0.629,1.482,1.343,2.149,2.18c0.663,0.843,1.288,1.77,1.788,2.971L889.035,734.9z"/>
	</g>
	<g display="inline">
		<path d="M713.419,931.53c-1.294-0.423-2.33-1.003-3.287-1.631c-0.952-0.632-1.788-1.333-2.545-2.083
			c-0.759-0.749-1.441-1.544-2.045-2.387c-0.616-0.836-1.118-1.74-1.391-2.785c-0.577-2.069-0.41-4.591-1.252-6.499
			c-0.809-1.929-2.28-3.454-4.091-4.773c-0.889-0.67-1.805-1.322-2.601-2.049c-0.808-0.719-1.467-1.527-2.151-2.322
			c-1.365-1.59-2.748-3.169-3.697-5.012c-0.948-1.844-1.648-3.838-2.151-5.952c-0.482-2.127-0.8-4.354-0.568-6.915l0.77-0.467
			c2.38,0.973,4.211,2.28,5.876,3.688c1.646,1.419,3.094,2.959,4.294,4.649c1.199,1.691,1.965,3.646,2.747,5.59
			c0.391,0.973,0.805,1.932,1.071,2.979c0.278,1.04,0.437,2.154,0.622,3.252c0.337,2.214,1.014,4.223,2.354,5.828
			c1.306,1.626,3.621,2.639,5.192,4.104c0.802,0.723,1.374,1.585,1.832,2.517c0.47,0.924,0.861,1.896,1.178,2.914
			c0.317,1.017,0.555,2.082,0.678,3.218c0.116,1.139,0.154,2.326-0.065,3.67L713.419,931.53z"/>
	</g>
	<g display="inline">
		<path d="M278.428,939.944c-0.218-1.282-0.185-2.399-0.074-3.466c0.117-1.063,0.346-2.052,0.653-2.99
			c0.306-0.938,0.686-1.829,1.143-2.669c0.445-0.848,1.001-1.622,1.783-2.249c1.531-1.275,3.791-2.073,5.062-3.519
			c1.306-1.423,1.961-3.271,2.285-5.339c0.179-1.021,0.33-2.062,0.599-3.025c0.258-0.97,0.66-1.846,1.039-2.737
			c0.759-1.781,1.501-3.573,2.669-5.086c1.167-1.514,2.578-2.868,4.182-4.095c1.624-1.215,3.409-2.323,5.732-3.08l0.753,0.494
			c0.233,2.432-0.071,4.511-0.537,6.484c-0.485,1.96-1.164,3.794-2.086,5.469s-2.269,3.07-3.599,4.477
			c-0.666,0.703-1.309,1.422-2.096,2.045c-0.776,0.631-1.669,1.185-2.535,1.756c-1.766,1.122-3.2,2.461-3.984,4.226
			c-0.818,1.742-0.647,4.133-1.206,6.046c-0.263,0.967-0.751,1.786-1.351,2.532c-0.588,0.754-1.252,1.458-1.991,2.113
			c-0.738,0.655-1.553,1.261-2.481,1.792c-0.934,0.527-1.945,1.004-3.208,1.315L278.428,939.944z"/>
	</g>
	<g display="inline">
		<path d="M110.815,736.447c0.615-1.214,1.346-2.15,2.113-3.001c0.769-0.844,1.59-1.564,2.446-2.198
			c0.855-0.635,1.745-1.188,2.67-1.657c0.919-0.482,1.89-0.841,2.964-0.95c2.133-0.256,4.6,0.293,6.613-0.249
			c2.03-0.505,3.761-1.728,5.341-3.316c0.797-0.775,1.582-1.582,2.421-2.258c0.834-0.688,1.734-1.218,2.623-1.772
			c1.779-1.108,3.55-2.235,5.517-2.892c1.966-0.657,4.044-1.046,6.21-1.221c2.175-0.153,4.425-0.128,6.92,0.49l0.345,0.832
			c-1.324,2.204-2.895,3.814-4.539,5.246c-1.654,1.411-3.396,2.607-5.25,3.536s-3.902,1.387-5.943,1.864
			c-1.021,0.238-2.031,0.502-3.107,0.605c-1.071,0.116-2.196,0.104-3.309,0.12c-2.24-0.004-4.329,0.359-6.119,1.439
			c-1.806,1.043-3.159,3.178-4.846,4.508c-0.836,0.683-1.775,1.116-2.766,1.428c-0.985,0.324-2.005,0.563-3.06,0.72
			c-1.054,0.159-2.143,0.232-3.284,0.181c-1.144-0.059-2.323-0.202-3.617-0.623L110.815,736.447z"/>
	</g>
	<g display="inline">
		<path d="M955.927,529.015c-2.264,0.886-4.527,1.47-6.791,1.962c-2.264,0.485-4.526,0.835-6.79,1.093s-4.527,0.429-6.791,0.498
			c-2.264,0.115-4.527,0.039-6.791-0.25c-4.527-0.579-9.054-2.037-13.581-2.302c-4.527-0.308-9.055,0.146-13.581,1.013
			c-2.264,0.411-4.527,0.854-6.791,1.157c-2.264,0.316-4.527,0.461-6.791,0.632c-4.527,0.345-9.054,0.7-13.581,0.553
			c-4.527-0.156-9.055-0.572-13.582-1.25c-4.526-0.691-9.054-1.578-13.581-3.105v-0.9c4.527-1.527,9.055-2.414,13.581-3.105
			c4.527-0.678,9.055-1.094,13.582-1.25c4.527-0.147,9.054,0.208,13.581,0.553c2.264,0.171,4.527,0.315,6.791,0.632
			c2.264,0.303,4.527,0.746,6.791,1.157c4.526,0.867,9.054,1.32,13.581,1.013c4.527-0.265,9.054-1.723,13.581-2.302
			c2.264-0.289,4.527-0.365,6.791-0.25c2.264,0.069,4.527,0.24,6.791,0.498s4.526,0.607,6.79,1.093
			c2.264,0.492,4.527,1.076,6.791,1.962V529.015z"/>
	</g>
	<g display="inline">
		<path d="M505.474,59.036c0.885,2.264,1.47,4.527,1.962,6.791c0.485,2.264,0.835,4.527,1.092,6.791
			c0.258,2.264,0.429,4.527,0.499,6.791c0.115,2.264,0.039,4.527-0.25,6.791c-0.58,4.527-2.038,9.055-2.302,13.582
			c-0.308,4.527,0.145,9.054,1.012,13.582c0.411,2.264,0.854,4.527,1.158,6.791c0.316,2.264,0.46,4.527,0.632,6.791
			c0.344,4.527,0.699,9.054,0.553,13.582c-0.157,4.527-0.573,9.054-1.25,13.581c-0.692,4.527-1.578,9.054-3.106,13.582h-0.9
			c-1.528-4.527-2.414-9.054-3.106-13.582c-0.677-4.527-1.093-9.054-1.25-13.581c-0.146-4.527,0.208-9.055,0.553-13.582
			c0.172-2.264,0.315-4.527,0.632-6.791c0.303-2.263,0.747-4.527,1.158-6.791c0.867-4.527,1.32-9.054,1.012-13.582
			c-0.264-4.527-1.722-9.054-2.302-13.582c-0.289-2.263-0.365-4.527-0.25-6.791c0.07-2.264,0.241-4.527,0.499-6.791
			c0.257-2.264,0.607-4.527,1.092-6.791c0.492-2.263,1.077-4.527,1.962-6.791H505.474z"/>
	</g>
	<g display="inline">
		<path d="M504.574,970.156c-0.885-2.264-1.47-4.527-1.962-6.791c-0.485-2.264-0.835-4.526-1.092-6.79
			c-0.258-2.264-0.429-4.527-0.499-6.791c-0.115-2.264-0.039-4.527,0.25-6.791c0.58-4.527,2.038-9.054,2.302-13.581
			c0.308-4.527-0.145-9.055-1.012-13.582c-0.411-2.263-0.854-4.526-1.158-6.79c-0.316-2.264-0.46-4.527-0.632-6.791
			c-0.344-4.527-0.699-9.054-0.553-13.581c0.157-4.527,0.573-9.055,1.25-13.582c0.692-4.526,1.578-9.054,3.106-13.581h0.9
			c1.528,4.527,2.414,9.055,3.106,13.581c0.677,4.527,1.093,9.055,1.25,13.582c0.146,4.527-0.208,9.054-0.553,13.581
			c-0.172,2.264-0.315,4.527-0.632,6.791c-0.303,2.264-0.747,4.527-1.158,6.79c-0.867,4.527-1.32,9.055-1.012,13.582
			c0.264,4.527,1.722,9.054,2.302,13.581c0.289,2.264,0.365,4.527,0.25,6.791c-0.07,2.264-0.241,4.527-0.499,6.791
			c-0.257,2.264-0.607,4.526-1.092,6.79c-0.492,2.264-1.077,4.527-1.962,6.791H504.574z"/>
	</g>
</g>
<g id="Layer_2" display="none">
	<g display="inline">
		<path d="M552.742,237.927c1.898,11.615,2.797,23.23,3.395,34.846c0.287,5.808,0.477,11.615,0.554,17.423
			c0.12,5.807,0.049,11.615-0.277,17.422c-0.648,11.615-2.257,23.23-2.558,34.846c-0.173,5.808-0.123,11.615,0.07,17.423
			c0.189,5.808,0.617,11.615,1.055,17.422l0.674,8.711l0.335,4.356l0.267,4.355c0.373,5.808,0.518,11.615,0.713,17.423
			c0.203,5.808,0.36,11.615,0.498,17.423c0.171,5.808,0.169,11.615,0.115,17.423c-0.18,11.615-0.622,23.23-1.402,34.845
			c-0.156,2.904-0.402,5.808-0.625,8.711c-0.209,2.904-0.473,5.808-0.755,8.711c-0.546,5.808-1.185,11.615-2.058,17.423h-1
			c-0.871-5.808-1.51-11.616-2.057-17.423c-0.283-2.904-0.546-5.808-0.754-8.711c-0.224-2.904-0.47-5.808-0.627-8.711
			c-0.779-11.615-1.222-23.23-1.402-34.845c-0.053-5.808-0.055-11.615,0.116-17.423c0.138-5.808,0.295-11.615,0.498-17.423
			c0.195-5.808,0.34-11.615,0.713-17.423l0.267-4.355l0.334-4.356l0.676-8.711c0.438-5.808,0.865-11.615,1.055-17.422
			c0.192-5.808,0.242-11.615,0.069-17.423c-0.302-11.615-1.909-23.23-2.558-34.846c-0.326-5.808-0.396-11.615-0.277-17.422
			c0.076-5.808,0.268-11.615,0.554-17.423c0.598-11.615,1.496-23.23,3.394-34.846H552.742z"/>
	</g>
	<g display="inline">
		<path d="M680.382,386.992c-1.953,3.417-4.146,6.601-6.411,9.712c-2.272,3.106-4.651,6.108-7.104,9.038
			c-2.452,2.931-4.974,5.794-7.576,8.578c-2.572,2.813-5.28,5.495-8.173,7.998c-5.776,5.012-12.253,9.343-17.779,14.599
			c-5.561,5.223-10.516,11.035-15.141,17.168c-2.334,3.046-4.629,6.129-7.061,9.081c-2.391,2.991-4.944,5.822-7.462,8.689
			c-5.042,5.728-10.075,11.464-15.507,16.811c-5.441,5.34-11.088,10.479-16.943,15.414c-2.93,2.466-5.898,4.893-8.972,7.22
			c-3.05,2.35-6.165,4.635-9.448,6.756l-0.717-0.697c2.033-3.338,4.234-6.514,6.5-9.626c2.242-3.135,4.588-6.169,6.975-9.164
			c4.776-5.986,9.762-11.769,14.952-17.352c5.198-5.575,10.798-10.761,16.387-15.955c2.798-2.594,5.56-5.224,8.484-7.694
			c2.886-2.51,5.905-4.888,8.888-7.302c6.006-4.789,11.682-9.899,16.753-15.599c5.105-5.666,9.26-12.256,14.114-18.167
			c2.424-2.958,5.031-5.738,7.774-8.385c2.714-2.677,5.508-5.275,8.371-7.805c2.862-2.531,5.799-4.99,8.844-7.345
			c3.049-2.349,6.173-4.627,9.535-6.671L680.382,386.992z"/>
	</g>
</g>
<g id="Layer_3" display="none">
	<g display="inline">
		<path d="M316.231,256.079c6.265-7.05,13.199-13.485,20.621-19.386c3.713-2.949,7.563-5.755,11.616-8.303
			c4.044-2.557,8.249-4.943,12.755-6.847c4.494-1.903,9.263-3.474,14.418-4.017c2.572-0.25,5.242-0.232,7.921,0.232
			c2.675,0.453,5.344,1.401,7.741,2.827c2.399,1.421,4.515,3.288,6.213,5.39c1.699,2.104,3.064,4.39,4.114,6.748
			c2.124,4.715,3.22,9.613,3.861,14.454c1.205,9.71,0.678,19.279-0.329,28.69c-0.527,4.707-1.142,9.386-1.886,14.039
			c-0.701,4.657-1.488,9.294-2.326,13.917c-1.639,9.251-3.393,18.47-5.252,27.67c-1.871,9.212-3.846,18.365-5.406,27.561
			c-1.609,9.196-2.897,18.432-4.006,27.646c-1.067,9.215-1.924,18.438-2.029,27.589c-0.048,4.572,0.105,9.123,0.566,13.579
			c0.459,4.445,1.236,8.827,2.608,12.813c1.372,3.964,3.37,7.536,6.105,9.692c1.365,1.074,2.876,1.849,4.582,2.266
			c1.699,0.431,3.573,0.504,5.522,0.336c3.917-0.35,8.017-1.78,11.981-3.598c3.973-1.847,7.834-4.158,11.598-6.664
			c3.758-2.522,7.395-5.291,10.922-8.216c3.542-2.908,6.996-5.956,10.336-9.135c3.331-3.188,6.609-6.45,9.766-9.832
			c3.146-3.39,6.219-6.859,9.161-10.437c2.92-3.593,5.763-7.26,8.337-11.105c1.288-1.922,2.534-3.874,3.646-5.897
			c1.105-2.022,2.151-4.094,2.834-6.291L483,381.98c-0.82,4.741-2.846,9.127-4.986,13.353c-2.201,4.212-4.664,8.278-7.325,12.203
			c-2.647,3.937-5.462,7.759-8.435,11.458c-2.964,3.706-6.042,7.33-9.297,10.799c-3.247,3.478-6.607,6.863-10.138,10.095
			c-3.546,3.212-7.237,6.292-11.136,9.165c-3.894,2.879-8.017,5.522-12.477,7.757c-4.457,2.221-9.297,4.054-14.723,4.668
			c-2.705,0.297-5.579,0.196-8.431-0.501c-2.846-0.689-5.631-2.044-7.905-3.916c-2.292-1.86-4.088-4.132-5.481-6.481
			c-1.399-2.358-2.388-4.823-3.174-7.277c-1.549-4.923-2.26-9.854-2.645-14.724c-0.362-4.874-0.352-9.703-0.151-14.492
			c0.838-19.158,4.697-37.71,9.309-55.942c1.138-4.564,2.371-9.099,3.569-13.641l1.803-6.782l1.666-6.809
			c2.146-9.095,4.005-18.262,5.357-27.5c0.658-4.622,1.198-9.258,1.617-13.897c0.375-4.645,0.666-9.291,0.737-13.93
			c0.085-4.637,0.025-9.264-0.266-13.845c-0.275-4.579-0.759-9.12-1.592-13.523c-0.832-4.393-1.984-8.683-3.775-12.491
			c-1.782-3.803-4.244-7.064-7.483-9.036c-3.224-1.99-7.237-2.694-11.422-2.384c-4.19,0.277-8.5,1.42-12.683,2.993
			c-4.183,1.6-8.316,3.535-12.342,5.724c-4.017,2.207-7.969,4.599-11.851,7.126c-7.74,5.093-15.258,10.642-22.555,16.507
			L316.231,256.079z"/>
	</g>
	<g display="inline">
		<path d="M493.542,470.663c1.597,2.678,2.291,5.857,2.21,9.031c-0.075,3.182-0.846,6.388-2.168,9.354
			c-2.635,5.98-7.559,10.772-13.228,13.777c-5.714,3.015-12.149,4.325-18.418,4.331c-3.145-0.017-6.312-0.431-9.329-1.539
			c-2.985-1.124-5.857-3.033-7.784-5.856c-1.94-2.788-2.84-6.349-2.617-9.749c0.19-3.42,1.314-6.669,2.864-9.592
			c1.555-2.936,3.57-5.578,5.87-7.912c2.298-2.356,4.901-4.325,7.747-5.998c2.78-1.605,5.826-2.931,8.972-3.773
			c3.151-0.852,6.46-1.155,9.708-0.898c3.246,0.262,6.438,1.107,9.281,2.555C489.49,465.834,491.959,467.965,493.542,470.663z
			 M493.111,470.915c-1.546-2.596-4.153-4.423-6.972-5.274c-2.835-0.871-5.836-0.878-8.695-0.48
			c-2.873,0.402-5.646,1.211-8.328,2.198c-2.695,0.99-5.25,2.234-7.727,3.76c-4.81,2.975-9.256,6.842-12.206,11.635
			c-1.464,2.39-2.524,4.998-2.983,7.677c-0.441,2.667-0.262,5.454,0.977,7.929c1.201,2.471,3.406,4.521,6.079,5.688
			c2.66,1.21,5.686,1.648,8.647,1.497c2.975-0.147,5.895-0.927,8.622-2.058c2.73-1.138,5.288-2.607,7.693-4.24
			c4.802-3.275,9.136-7.097,12.596-11.77c1.69-2.346,3.104-4.996,3.68-7.914C495.075,476.668,494.692,473.502,493.111,470.915z"/>
	</g>
	<g display="inline">
		<path d="M694.697,249.827c9.655,2.976,19.015,6.859,28.072,11.448c4.528,2.298,8.978,4.792,13.268,7.592
			c4.294,2.79,8.491,5.812,12.355,9.333c3.857,3.512,7.513,7.434,10.332,12.181c1.384,2.38,2.549,4.968,3.285,7.756
			c0.739,2.781,1.032,5.764,0.729,8.706c-0.295,2.94-1.14,5.81-2.411,8.384c-1.271,2.578-2.869,4.915-4.678,6.985
			c-3.597,4.178-7.889,7.387-12.266,10.221c-8.862,5.553-18.392,9.36-27.981,12.643c-4.807,1.618-9.63,3.135-14.485,4.516
			c-4.842,1.422-9.703,2.75-14.575,4.02c-9.732,2.577-19.49,5.013-29.279,7.332c-9.804,2.314-19.603,4.484-29.26,7.079
			c-9.679,2.548-19.256,5.42-28.729,8.471c-9.457,3.089-18.827,6.397-27.797,10.408c-4.479,2.007-8.849,4.202-12.991,6.659
			c-4.135,2.45-8.067,5.183-11.355,8.331c-3.266,3.138-5.886,6.729-6.778,10.444c-0.443,1.854-0.518,3.722-0.147,5.611
			c0.354,1.889,1.14,3.777,2.195,5.621c2.134,3.698,5.394,7.062,8.966,10.111c3.604,3.045,7.604,5.766,11.749,8.298
			c4.158,2.521,8.499,4.812,12.94,6.924c4.434,2.133,8.962,4.113,13.565,5.926c4.608,1.8,9.265,3.511,13.982,5.049
			c4.722,1.526,9.485,2.94,14.297,4.18c4.816,1.211,9.67,2.309,14.576,3.066c2.451,0.379,4.914,0.702,7.385,0.863
			c2.468,0.155,4.956,0.229,7.402-0.108l0.164,0.783c-4.979,1.309-10.15,1.289-15.218,1.088c-5.082-0.265-10.138-0.851-15.147-1.688
			c-5.014-0.819-9.99-1.853-14.919-3.091c-4.931-1.229-9.832-2.604-14.664-4.218c-4.835-1.602-9.631-3.357-14.353-5.343
			c-4.71-2.009-9.356-4.218-13.892-6.719c-4.538-2.494-8.95-5.313-13.11-8.638c-4.145-3.327-8.081-7.194-11.088-12.151
			c-1.489-2.475-2.67-5.284-3.266-8.331c-0.602-3.036-0.535-6.306,0.251-9.318c0.767-3.024,2.151-5.761,3.794-8.151
			c1.648-2.399,3.585-4.456,5.604-6.314c4.065-3.701,8.523-6.604,13.073-9.166c4.564-2.542,9.256-4.705,13.996-6.665
			c18.981-7.806,38.747-12.436,58.542-16.204c4.948-0.958,9.911-1.812,14.865-2.698l7.407-1.311l7.373-1.451
			c9.813-2.014,19.568-4.333,29.17-7.164c4.795-1.433,9.552-2.985,14.26-4.655c4.693-1.713,9.35-3.509,13.904-5.513
			c4.559-1.99,9.044-4.117,13.383-6.451c4.345-2.316,8.555-4.83,12.489-7.61c3.942-2.753,7.578-5.865,10.514-9.331
			c2.921-3.469,5.014-7.377,5.498-11.483c0.519-4.103-0.657-8.388-2.874-12.336c-2.183-3.977-5.25-7.666-8.679-11.033
			c-3.452-3.355-7.21-6.502-11.163-9.429c-3.966-2.911-8.083-5.671-12.299-8.299c-8.458-5.217-17.259-10.002-26.271-14.413
			L694.697,249.827z"/>
	</g>
	<g display="inline">
		<path d="M565.68,518.823c-1.884,2.76-4.673,4.844-7.79,6.188c-3.134,1.322-6.587,1.997-10.055,2.021
			c-6.973,0.078-13.813-2.547-19.276-6.686c-5.501-4.161-9.702-9.788-12.533-15.869c-1.396-3.059-2.437-6.318-2.689-9.746
			c-0.237-3.409,0.321-7.013,2.229-10.17c1.813-3.073,4.878-5.544,8.26-6.829c3.394-1.333,7.038-1.693,10.56-1.495
			c7.07,0.429,13.844,2.995,19.545,6.967c2.843,2,5.465,4.334,7.706,7.003c2.237,2.67,4.03,5.727,5.263,8.977
			c1.225,3.254,1.851,6.722,1.756,10.129C568.532,512.713,567.594,516.073,565.68,518.823z M565.27,518.538
			c1.83-2.674,2.459-6.033,2.021-9.168c-0.393-3.16-1.723-6.1-3.377-8.727c-1.661-2.641-3.687-4.999-5.862-7.178
			c-2.169-2.188-4.566-4.147-7.134-5.854c-5.119-3.389-10.89-5.956-16.926-6.666c-3.002-0.344-6.038-0.195-8.871,0.583
			c-2.82,0.798-5.444,2.231-7.324,4.617c-1.835,2.268-2.843,5.385-2.765,8.511c0.045,3.14,0.961,6.288,2.442,9.109
			c1.504,2.821,3.525,5.35,5.858,7.505c2.326,2.165,4.904,4.008,7.573,5.638c5.355,3.224,11.06,5.731,17.192,6.947
			c3.057,0.564,6.284,0.73,9.376-0.06C560.561,523.056,563.46,521.237,565.27,518.538z"/>
	</g>
</g>
<g id="Layer_7_copy" display="none">
	<g display="inline">
		<path d="M748.904,644.357c-0.009,47.847-8.946,95.718-26.605,140.392c-8.819,22.333-19.753,43.888-32.721,64.216
			c-12.978,20.318-27.94,39.439-44.703,56.914c-16.797,17.433-35.293,33.322-55.308,47.104
			c-9.994,6.907-20.369,13.272-31.021,19.144c-10.68,5.817-21.639,11.144-32.861,15.856c-22.443,9.431-45.865,16.564-69.766,21.213
			c-23.907,4.662-48.244,6.85-72.589,6.586c-24.261-0.283-48.552-2.974-72.256-8.056c-23.708-5.11-46.871-12.565-69.031-22.216
			c-44.359-19.266-84.628-47.229-118.436-81.41c-33.825-34.184-61.1-74.766-79.842-119.086
			c-4.688-11.076-8.831-22.389-12.405-33.883c-3.612-11.482-6.676-23.145-9.149-34.939c-4.92-23.597-7.662-47.661-7.992-71.85
			c-0.721-48.266,7.916-96.979,26.125-142.063c18.084-45.129,45.483-86.534,79.741-121.189
			c17.126-17.334,35.951-33.016,56.152-46.702c20.208-13.674,41.774-25.367,64.294-34.829c22.509-9.494,46.008-16.654,69.976-21.437
			c23.972-4.768,48.421-7.112,72.844-7.062c48.844,0.094,97.705,9.93,142.586,29.061c11.222,4.774,22.177,10.15,32.848,16.021
			c10.646,5.915,21.009,12.329,30.994,19.271c19.99,13.86,38.478,29.787,55.25,47.265c16.753,17.506,31.701,36.652,44.677,56.983
			c12.965,20.343,23.896,41.908,32.713,64.251C740.073,548.609,748.98,596.506,748.904,644.357z M747.304,644.355
			c-0.04-11.912-0.633-23.821-1.838-35.669c-1.243-11.843-3.017-23.631-5.455-35.279c-4.842-23.303-12.081-46.085-21.575-67.842
			c-18.947-43.558-46.889-82.876-80.925-115.368C603.482,357.655,563.336,331.914,520,314.44
			c-21.671-8.734-44.155-15.406-67.072-19.8c-22.92-4.366-46.245-6.581-69.576-6.492c-46.663,0.048-93.228,9.2-136.416,26.854
			c-43.192,17.644-82.869,43.931-116.156,76.782c-33.301,32.853-60.118,72.288-78.573,115.414
			c-4.623,10.778-8.715,21.791-12.255,32.986c-3.567,11.186-6.598,22.554-9.055,34.054c-4.919,23.007-7.556,46.51-7.917,70.133
			c-0.739,47.146,7.84,94.684,25.806,138.563c17.798,43.936,44.739,84.192,78.473,117.518
			c33.701,33.378,74.271,59.63,118.167,76.904c21.948,8.645,44.711,15.101,67.849,19.254c11.571,2.059,23.22,3.641,34.92,4.596
			c11.707,0.984,23.414,1.331,35.179,1.231c46.856-0.476,93.554-9.809,136.88-27.554c43.325-17.723,83.418-43.594,117.414-76.21
			c34.009-32.558,61.946-71.895,80.891-115.474c9.491-21.768,16.722-44.563,21.545-67.874c2.43-11.653,4.188-23.446,5.418-35.292
			C746.709,668.179,747.282,656.272,747.304,644.355z"/>
	</g>
	<g display="inline">
		<circle fill="#010101" cx="381.974" cy="648.316" r="9.341"/>
		<path d="M391.364,648.317c-0.004,2.444-0.847,4.946-2.563,6.825c-1.681,1.902-4.269,3.01-6.827,2.93
			c-2.57-0.063-5-1.249-6.719-3.037c-1.743-1.777-2.816-4.188-2.895-6.727c-0.111-2.505,0.869-5.102,2.677-6.93
			c1.788-1.851,4.332-2.964,6.951-2.937c2.56,0.003,5.144,1.134,6.824,3.036C390.522,643.367,391.371,645.867,391.364,648.317z
			 M391.264,648.315c0.016-2.449-1.15-4.811-2.918-6.371c-1.769-1.576-4.046-2.461-6.386-2.436
			c-2.279,0.004-4.597,0.906-6.259,2.535c-1.67,1.62-2.707,3.884-2.795,6.278c-0.102,2.361,0.842,4.812,2.577,6.483
			c1.73,1.689,4.161,2.521,6.49,2.435c2.341-0.057,4.615-0.964,6.383-2.541C390.119,653.13,391.292,650.77,391.264,648.315z"/>
	</g>
	<g display="inline">
		<path d="M38.199,649.297c1.693-0.886,3.385-1.47,5.078-1.962c1.693-0.485,3.386-0.835,5.079-1.093
			c1.692-0.258,3.385-0.429,5.078-0.498c1.692-0.119,3.385-0.042,5.078,0.25c3.386,0.581,6.771,2.033,10.156,2.305
			c3.386,0.301,6.771-0.146,10.157-1.016c1.693-0.411,3.385-0.854,5.078-1.157c1.693-0.316,3.386-0.461,5.079-0.632
			c3.385-0.346,6.771-0.696,10.156-0.557c3.386,0.147,6.771,0.585,10.156,1.254c3.386,0.691,6.771,1.578,10.157,3.105v0.9
			c-3.385,1.527-6.771,2.414-10.157,3.105c-3.385,0.669-6.771,1.106-10.156,1.254c-3.386,0.14-6.771-0.211-10.156-0.557
			c-1.693-0.171-3.386-0.315-5.079-0.632c-1.693-0.303-3.385-0.746-5.078-1.157c-3.385-0.869-6.771-1.316-10.157-1.016
			c-3.385,0.271-6.771,1.724-10.156,2.305c-1.693,0.292-3.386,0.369-5.078,0.25c-1.693-0.069-3.386-0.24-5.078-0.498
			c-1.693-0.258-3.386-0.607-5.079-1.093c-1.693-0.492-3.385-1.076-5.078-1.962V649.297z"/>
	</g>
	<g display="inline">
		<path d="M78.59,508.866c2.005-0.963,3.637-1.109,5.157-1.007c0.761,0.049,1.472,0.207,2.156,0.424
			c0.687,0.211,1.319,0.544,1.839,1.122c1.056,1.12,1.751,3.033,2.936,3.871c1.168,0.874,2.658,1.041,4.312,0.848
			c0.819-0.079,1.651-0.188,2.426-0.168c0.78,0.008,1.488,0.172,2.208,0.312c1.44,0.276,2.887,0.538,4.122,1.267
			c1.236,0.724,2.352,1.713,3.372,2.912c0.507,0.606,0.993,1.259,1.426,2.028c0.445,0.743,0.855,1.562,1.178,2.571l-0.373,0.818
			c-0.974,0.419-1.86,0.646-2.713,0.799c-0.865,0.18-1.676,0.24-2.466,0.256c-1.574,0.018-3.053-0.175-4.411-0.632
			c-1.36-0.453-2.507-1.373-3.661-2.278c-0.578-0.451-1.167-0.878-1.684-1.461c-0.523-0.571-0.988-1.271-1.466-1.939
			c-0.94-1.376-2.044-2.39-3.47-2.697c-1.41-0.344-3.309,0.388-4.847,0.326c-0.777-0.014-1.442-0.271-2.053-0.651
			c-0.613-0.373-1.199-0.806-1.735-1.348c-1.074-1.08-2.036-2.407-2.625-4.552L78.59,508.866z"/>
	</g>
	<g display="inline">
		<path d="M209.969,361.864c1.159,0.201,2.06,0.558,2.882,0.963c0.816,0.409,1.517,0.887,2.138,1.415
			c0.633,0.52,1.164,1.103,1.639,1.719c0.481,0.612,0.847,1.294,0.984,2.116c0.307,1.624-0.131,3.7,0.44,5.162
			c0.537,1.483,1.738,2.563,3.278,3.437c0.753,0.447,1.534,0.877,2.194,1.381c0.672,0.496,1.197,1.083,1.745,1.654
			c1.095,1.144,2.207,2.278,2.885,3.676c0.678,1.397,1.107,2.946,1.339,4.615c0.211,1.681,0.258,3.462-0.244,5.578l-0.77,0.468
			c-2.109-0.528-3.669-1.389-5.063-2.351c-1.375-0.974-2.552-2.068-3.481-3.313c-0.929-1.245-1.423-2.754-1.935-4.253
			c-0.255-0.75-0.534-1.485-0.665-2.311c-0.143-0.818-0.166-1.709-0.216-2.583c-0.067-1.77-0.473-3.333-1.542-4.492
			c-1.035-1.18-3.08-1.747-4.38-2.767c-0.667-0.5-1.103-1.139-1.426-1.848c-0.329-0.705-0.601-1.444-0.771-2.246
			c-0.182-0.794-0.284-1.637-0.271-2.55c0.019-0.916,0.116-1.88,0.472-3.001L209.969,361.864z"/>
	</g>
	<g display="inline">
		<path d="M535.263,355.693c0.647,2.128,0.543,3.764,0.211,5.25c-0.164,0.745-0.429,1.423-0.747,2.066
			c-0.313,0.647-0.738,1.221-1.389,1.646c-1.268,0.874-3.264,1.269-4.271,2.313c-1.042,1.021-1.435,2.468-1.494,4.133
			c-0.047,0.821-0.067,1.66-0.204,2.422c-0.126,0.77-0.396,1.444-0.644,2.134c-0.492,1.382-0.971,2.771-1.879,3.881
			c-0.904,1.111-2.052,2.063-3.393,2.889c-0.676,0.409-1.394,0.791-2.221,1.101c-0.802,0.326-1.673,0.607-2.721,0.773l-0.752-0.493
			c-0.267-1.026-0.356-1.938-0.377-2.803c-0.045-0.882,0.018-1.692,0.123-2.476c0.222-1.559,0.637-2.991,1.295-4.263
			c0.655-1.275,1.739-2.269,2.81-3.271c0.534-0.502,1.045-1.019,1.7-1.441c0.644-0.43,1.405-0.783,2.141-1.153
			c1.502-0.72,2.672-1.657,3.193-3.02c0.554-1.341,0.12-3.329,0.415-4.84c0.132-0.766,0.488-1.384,0.956-1.93
			c0.462-0.549,0.979-1.063,1.596-1.51c1.231-0.897,2.689-1.646,4.899-1.901L535.263,355.693z"/>
	</g>
	<g display="inline">
		<path d="M660.558,507.916c-0.375,1.114-0.865,1.951-1.391,2.701c-0.528,0.745-1.108,1.365-1.724,1.898
			c-0.61,0.547-1.267,0.982-1.948,1.358c-0.679,0.382-1.408,0.641-2.241,0.65c-1.651,0.056-3.637-0.693-5.169-0.351
			c-1.548,0.305-2.798,1.327-3.896,2.716c-0.557,0.677-1.101,1.383-1.698,1.958c-0.593,0.589-1.252,1.019-1.9,1.474
			c-1.298,0.908-2.587,1.835-4.072,2.292c-1.484,0.457-3.08,0.646-4.765,0.62c-1.694-0.046-3.462-0.271-5.476-1.09l-0.346-0.832
			c0.843-2.004,1.932-3.415,3.095-4.646c1.172-1.211,2.433-2.208,3.805-2.937s2.938-0.987,4.498-1.265
			c0.779-0.138,1.549-0.301,2.385-0.305c0.83-0.017,1.714,0.097,2.586,0.18c1.759,0.203,3.365,0.04,4.674-0.84
			c1.324-0.843,2.196-2.778,3.401-3.908c0.596-0.583,1.294-0.917,2.044-1.128c0.747-0.217,1.519-0.375,2.337-0.42
			c0.813-0.059,1.661-0.032,2.561,0.12c0.903,0.158,1.841,0.401,2.895,0.923L660.558,507.916z"/>
	</g>
	<g display="inline">
		<path d="M669.485,804.152c-2.005,0.964-3.638,1.109-5.157,1.008c-0.761-0.049-1.472-0.207-2.156-0.425
			c-0.687-0.211-1.318-0.544-1.839-1.121c-1.056-1.12-1.751-3.032-2.936-3.87c-1.168-0.875-2.658-1.042-4.313-0.849
			c-0.818,0.079-1.651,0.188-2.425,0.168c-0.78-0.008-1.488-0.172-2.208-0.312c-1.44-0.276-2.888-0.538-4.122-1.266
			c-1.236-0.725-2.352-1.714-3.372-2.913c-0.507-0.606-0.993-1.259-1.425-2.028c-0.445-0.743-0.855-1.562-1.179-2.571l0.373-0.818
			c0.974-0.419,1.86-0.646,2.713-0.799c0.865-0.18,1.676-0.24,2.466-0.256c1.574-0.018,3.053,0.175,4.411,0.632
			c1.359,0.453,2.507,1.373,3.661,2.278c0.577,0.451,1.166,0.878,1.684,1.461c0.522,0.571,0.987,1.271,1.466,1.94
			c0.939,1.375,2.044,2.389,3.47,2.696c1.41,0.344,3.31-0.388,4.848-0.325c0.776,0.013,1.442,0.271,2.053,0.65
			c0.612,0.373,1.199,0.806,1.735,1.348c1.074,1.08,2.036,2.407,2.625,4.553L669.485,804.152z"/>
	</g>
	<g display="inline">
		<path d="M538.105,951.152c-1.158-0.2-2.06-0.558-2.881-0.963c-0.816-0.408-1.518-0.887-2.139-1.414
			c-0.634-0.521-1.164-1.103-1.639-1.719c-0.48-0.612-0.848-1.295-0.983-2.116c-0.308-1.624,0.131-3.7-0.44-5.162
			c-0.537-1.483-1.737-2.563-3.277-3.437c-0.753-0.447-1.534-0.878-2.194-1.381c-0.672-0.496-1.197-1.082-1.745-1.653
			c-1.095-1.145-2.207-2.278-2.885-3.676s-1.106-2.946-1.339-4.615c-0.212-1.681-0.258-3.463,0.244-5.578l0.77-0.467
			c2.108,0.527,3.669,1.389,5.063,2.351c1.375,0.974,2.552,2.068,3.48,3.313c0.93,1.245,1.424,2.754,1.936,4.253
			c0.255,0.75,0.533,1.485,0.664,2.311c0.144,0.817,0.166,1.709,0.216,2.583c0.066,1.77,0.473,3.332,1.542,4.492
			c1.035,1.181,3.08,1.747,4.38,2.767c0.667,0.499,1.104,1.139,1.426,1.848c0.328,0.705,0.602,1.444,0.771,2.246
			c0.182,0.794,0.284,1.637,0.271,2.549c-0.019,0.917-0.117,1.881-0.472,3.002L538.105,951.152z"/>
	</g>
	<g display="inline">
		<path d="M212.81,957.323c-0.647-2.128-0.542-3.764-0.211-5.25c0.164-0.744,0.429-1.423,0.748-2.066
			c0.313-0.646,0.738-1.22,1.388-1.646c1.268-0.874,3.264-1.27,4.272-2.313c1.042-1.021,1.434-2.469,1.494-4.133
			c0.047-0.821,0.067-1.66,0.204-2.423c0.125-0.77,0.396-1.444,0.643-2.134c0.492-1.382,0.971-2.771,1.879-3.881
			c0.904-1.111,2.051-2.063,3.392-2.889c0.676-0.409,1.395-0.79,2.221-1.101c0.802-0.326,1.673-0.607,2.72-0.773l0.753,0.494
			c0.266,1.026,0.355,1.937,0.376,2.803c0.045,0.882-0.018,1.692-0.123,2.476c-0.222,1.559-0.637,2.99-1.296,4.263
			c-0.655,1.275-1.738,2.269-2.809,3.271c-0.534,0.502-1.045,1.019-1.701,1.441c-0.644,0.43-1.405,0.783-2.14,1.153
			c-1.502,0.72-2.673,1.656-3.193,3.02c-0.555,1.34-0.121,3.329-0.416,4.839c-0.131,0.767-0.487,1.385-0.956,1.93
			c-0.462,0.55-0.979,1.063-1.596,1.51c-1.231,0.897-2.689,1.646-4.898,1.902L212.81,957.323z"/>
	</g>
	<g display="inline">
		<path d="M87.517,805.101c0.375-1.114,0.865-1.95,1.39-2.701c0.528-0.744,1.108-1.364,1.724-1.898
			c0.61-0.546,1.267-0.982,1.948-1.357c0.678-0.382,1.408-0.641,2.241-0.65c1.651-0.057,3.637,0.693,5.169,0.351
			c1.547-0.305,2.797-1.327,3.896-2.717c0.557-0.676,1.101-1.382,1.699-1.958c0.593-0.589,1.251-1.019,1.9-1.473
			c1.297-0.908,2.587-1.835,4.072-2.292c1.485-0.458,3.081-0.646,4.766-0.621c1.693,0.047,3.461,0.271,5.476,1.09l0.345,0.832
			c-0.842,2.004-1.931,3.415-3.094,4.646c-1.172,1.211-2.432,2.208-3.804,2.937s-2.939,0.987-4.498,1.265
			c-0.78,0.138-1.549,0.302-2.385,0.306c-0.831,0.017-1.714-0.097-2.586-0.18c-1.759-0.204-3.365-0.041-4.674,0.84
			c-1.324,0.844-2.195,2.778-3.401,3.908c-0.595,0.582-1.294,0.917-2.043,1.127c-0.747,0.218-1.519,0.375-2.337,0.421
			c-0.813,0.06-1.661,0.032-2.562-0.119c-0.902-0.158-1.841-0.401-2.895-0.923L87.517,805.101z"/>
	</g>
	<g display="inline">
		<path d="M719.554,650.197c-1.692,0.886-3.386,1.47-5.078,1.962c-1.692,0.485-3.386,0.835-5.078,1.093
			c-1.693,0.258-3.386,0.429-5.078,0.498c-1.693,0.119-3.386,0.042-5.079-0.25c-3.385-0.581-6.771-2.033-10.156-2.305
			c-3.385-0.301-6.771,0.146-10.156,1.016c-1.692,0.411-3.386,0.854-5.078,1.157c-1.693,0.316-3.386,0.461-5.078,0.632
			c-3.386,0.346-6.771,0.696-10.156,0.557c-3.386-0.147-6.771-0.585-10.157-1.254c-3.386-0.691-6.771-1.578-10.156-3.105v-0.9
			c3.386-1.527,6.771-2.414,10.156-3.105c3.386-0.669,6.771-1.106,10.157-1.254c3.385-0.14,6.771,0.211,10.156,0.557
			c1.692,0.171,3.385,0.315,5.078,0.632c1.692,0.303,3.386,0.746,5.078,1.157c3.386,0.869,6.771,1.316,10.156,1.016
			c3.386-0.271,6.771-1.724,10.156-2.305c1.693-0.292,3.386-0.369,5.079-0.25c1.692,0.069,3.385,0.24,5.078,0.498
			c1.692,0.258,3.386,0.607,5.078,1.093c1.692,0.492,3.386,1.076,5.078,1.962V650.197z"/>
	</g>
	<g display="inline">
		<path d="M382.809,298.623c0.885,1.693,1.47,3.386,1.962,5.078c0.485,1.693,0.835,3.386,1.092,5.078
			c0.258,1.693,0.429,3.386,0.499,5.079c0.118,1.693,0.042,3.385-0.25,5.078c-0.581,3.385-2.034,6.771-2.305,10.157
			c-0.301,3.385,0.146,6.771,1.016,10.156c0.411,1.693,0.854,3.386,1.157,5.078c0.317,1.693,0.461,3.386,0.632,5.078
			c0.346,3.386,0.696,6.771,0.556,10.157c-0.146,3.385-0.584,6.771-1.253,10.157c-0.692,3.385-1.578,6.771-3.105,10.156h-0.9
			c-1.528-3.386-2.414-6.771-3.105-10.156c-0.669-3.386-1.107-6.771-1.253-10.157c-0.141-3.385,0.21-6.771,0.556-10.157
			c0.171-1.692,0.315-3.385,0.632-5.078c0.303-1.692,0.746-3.385,1.157-5.078c0.869-3.386,1.316-6.771,1.016-10.156
			c-0.271-3.386-1.724-6.771-2.305-10.157c-0.292-1.693-0.368-3.385-0.25-5.078c0.07-1.693,0.241-3.386,0.499-5.079
			c0.257-1.692,0.607-3.385,1.092-5.078c0.492-1.692,1.077-3.385,1.962-5.078H382.809z"/>
	</g>
	<g display="inline">
		<path d="M381.908,979.979c-0.885-1.692-1.47-3.386-1.962-5.078c-0.485-1.692-0.835-3.386-1.092-5.078
			c-0.258-1.693-0.429-3.386-0.499-5.078c-0.118-1.693-0.042-3.386,0.25-5.079c0.581-3.385,2.034-6.771,2.305-10.156
			c0.301-3.385-0.146-6.771-1.016-10.156c-0.411-1.692-0.854-3.386-1.157-5.078c-0.317-1.693-0.461-3.386-0.632-5.078
			c-0.346-3.386-0.696-6.771-0.556-10.156c0.146-3.386,0.584-6.771,1.253-10.157c0.692-3.386,1.578-6.771,3.105-10.156h0.9
			c1.528,3.386,2.414,6.771,3.105,10.156c0.669,3.386,1.107,6.771,1.253,10.157c0.141,3.385-0.21,6.771-0.556,10.156
			c-0.171,1.692-0.315,3.385-0.632,5.078c-0.303,1.692-0.746,3.386-1.157,5.078c-0.869,3.386-1.316,6.771-1.016,10.156
			c0.271,3.386,1.724,6.771,2.305,10.156c0.292,1.693,0.368,3.386,0.25,5.079c-0.07,1.692-0.241,3.385-0.499,5.078
			c-0.257,1.692-0.607,3.386-1.092,5.078c-0.492,1.692-1.077,3.386-1.962,5.078H381.908z"/>
	</g>
</g>
<g id="Layer_2_copy" display="none">
	<g display="inline">
		<path d="M384.32,386.465c2.087,5.238,3.418,10.476,4.578,15.713c1.132,5.238,1.949,10.475,2.549,15.713
			c0.632,5.238,0.984,10.476,1.184,15.713c0.22,5.238,0.112,10.476-0.594,15.713c-1.373,10.476-4.751,20.951-5.388,31.427
			c-0.186,2.619-0.265,5.238-0.206,7.856c0.01,1.31,0.041,2.619,0.114,3.928c0.044,1.31,0.145,2.619,0.246,3.928
			c0.381,5.238,1.279,10.476,2.215,15.713c0.48,2.619,0.997,5.238,1.439,7.857c0.468,2.618,0.917,5.237,1.262,7.856
			c0.739,5.237,1.075,10.476,1.475,15.713c0.796,10.476,1.64,20.951,1.297,31.427c-0.156,5.237-0.502,10.476-1.015,15.713
			c-0.475,5.238-1.12,10.476-1.91,15.713c-0.788,5.238-1.731,10.476-2.899,15.714c-1.188,5.237-2.498,10.476-4.348,15.713h-2.1
			c-1.85-5.237-3.16-10.476-4.348-15.713c-1.168-5.238-2.111-10.476-2.899-15.714c-0.79-5.237-1.435-10.475-1.91-15.713
			c-0.513-5.237-0.859-10.476-1.015-15.713c-0.343-10.476,0.5-20.951,1.297-31.427c0.4-5.237,0.736-10.476,1.475-15.713
			c0.345-2.619,0.794-5.238,1.262-7.856c0.442-2.619,0.959-5.238,1.439-7.857c0.936-5.238,1.834-10.476,2.215-15.713
			c0.102-1.309,0.202-2.619,0.246-3.928c0.073-1.309,0.104-2.619,0.114-3.928c0.059-2.619-0.02-5.238-0.206-7.856
			c-0.637-10.476-4.015-20.951-5.388-31.427c-0.706-5.237-0.814-10.475-0.594-15.713c0.2-5.238,0.551-10.476,1.184-15.713
			c0.6-5.238,1.417-10.475,2.549-15.713c1.16-5.238,2.491-10.476,4.578-15.713H384.32z"/>
	</g>
	<g display="inline">
		<path d="M539.452,491.71c-1.853,4.61-4.194,8.743-6.647,12.768c-2.468,4.011-5.156,7.808-7.954,11.496
			c-2.813,3.675-5.777,7.202-8.857,10.617c-3.063,3.432-6.338,6.656-10.001,9.504c-7.301,5.719-15.901,10.173-22.725,16.357
			c-6.882,6.127-12.588,13.397-17.695,21.253c-1.292,1.949-2.559,3.922-3.875,5.847c-1.299,1.942-2.611,3.872-3.989,5.736
			c-2.727,3.759-5.714,7.264-8.66,10.81c-5.894,7.089-11.758,14.207-18.391,20.576c-3.307,3.194-6.736,6.269-10.274,9.237
			c-3.513,2.993-7.136,5.88-10.854,8.674c-3.716,2.796-7.533,5.493-11.495,8.05c-3.976,2.543-8.03,5.009-12.435,7.135l-1.361-1.326
			c2.006-4.46,4.362-8.58,6.797-12.622c2.448-4.03,5.042-7.918,7.736-11.708c2.693-3.792,5.48-7.491,8.378-11.084
			c2.872-3.617,5.853-7.128,8.958-10.52c6.188-6.802,13.146-12.855,20.072-18.938c3.465-3.04,6.888-6.121,10.572-8.948
			c1.827-1.429,3.72-2.792,5.626-4.143c1.889-1.368,3.827-2.688,5.741-4.031c7.715-5.316,14.829-11.218,20.769-18.262
			c5.998-6.988,10.218-15.705,15.738-23.157c2.748-3.739,5.882-7.101,9.23-10.254c3.331-3.171,6.777-6.229,10.375-9.141
			c3.612-2.897,7.334-5.687,11.277-8.261c3.957-2.561,8.025-5.014,12.584-6.99L539.452,491.71z"/>
	</g>
</g>
<g id="Layer_3_copy" display="none">
	<g display="inline">
		<path d="M915.372,317.677c-6.425,4.752-13.082,9.12-19.873,13.285c-6.786,4.172-13.73,8.085-20.788,11.823
			c-14.137,7.432-28.773,14.054-44.191,19.3c-3.854,1.319-7.763,2.539-11.745,3.609c-3.98,1.077-8.019,2.077-12.156,2.86
			c-8.282,1.51-16.895,2.602-26.276,1.654c-4.673-0.508-9.626-1.478-14.572-3.772c-2.461-1.144-4.91-2.613-7.172-4.455
			c-2.27-1.827-4.312-4.054-5.945-6.501c-1.648-2.44-2.902-5.068-3.797-7.686c-0.905-2.62-1.401-5.244-1.698-7.772
			c-0.587-5.071-0.238-9.811,0.468-14.278c1.462-8.93,4.369-16.902,7.717-24.481c3.384-7.561,7.219-14.727,11.287-21.686
			c8.174-13.893,17.032-27.079,25.726-40.317l26.156-39.568c4.337-6.589,8.729-13.22,12.955-19.813
			c4.239-6.608,8.276-13.344,12.287-20.074c3.975-6.754,7.826-13.569,11.621-20.383c3.771-6.83,7.437-13.691,11.022-20.546
			c3.574-6.862,7.024-13.745,10.293-20.636c3.239-6.9,6.268-13.84,8.747-20.796c2.474-6.927,4.455-13.952,5.24-20.427
			c0.392-3.21,0.446-6.276,0.07-8.749c-0.378-2.499-1.121-4.197-1.929-5.146c-0.411-0.497-0.858-0.884-1.469-1.272
			c-0.608-0.382-1.399-0.749-2.385-1.089c-1.975-0.676-4.731-1.065-7.761-1.086c-3.036-0.005-6.353,0.198-9.746,0.693
			c-3.402,0.466-6.877,1.215-10.4,2.004c-14.111,3.33-28.46,8.617-42.581,14.446c-14.13,5.904-28.134,12.492-41.959,19.513
			c-13.818,7.039-27.485,14.499-40.871,22.454c-6.675,3.999-13.333,8.061-19.745,12.454c-3.208,2.192-6.41,4.404-9.467,6.784
			c-3.059,2.373-6.067,4.826-8.708,7.611l-1.873-1.334c0.967-1.813,2.1-3.515,3.286-5.164c1.189-1.648,2.43-3.257,3.738-4.797
			c2.61-3.085,5.326-6.072,8.159-8.926c5.683-5.688,11.607-11.11,17.746-16.256c12.271-10.303,25.209-19.751,38.606-28.542
			c13.41-8.778,27.287-16.907,41.783-24.125c7.238-3.635,14.656-6.986,22.281-10.05c7.615-3.1,15.49-5.747,23.727-7.918
			c4.12-1.094,8.365-1.933,12.755-2.593c4.395-0.624,8.95-1.085,13.787-0.934c4.826,0.153,9.986,0.75,15.448,2.705
			c2.72,0.979,5.498,2.357,8.115,4.236c2.615,1.865,5.039,4.248,6.952,6.929c1.927,2.677,3.332,5.601,4.277,8.462
			c0.955,2.867,1.449,5.681,1.699,8.356c0.477,5.364,0.005,10.222-0.77,14.787c-1.634,9.102-4.54,17.153-7.759,24.885
			c-13.099,30.679-31.939,56.526-51.534,81.553c-4.867,6.273-9.87,12.428-14.796,18.622l-7.363,9.254
			c-2.395,3.11-4.82,6.198-7.147,9.358c-9.375,12.586-18.238,25.557-26.197,39.049c-7.959,13.479-14.941,27.558-20.614,41.954
			c-2.827,7.191-5.382,14.44-7.379,21.678c-0.978,3.622-1.9,7.21-2.564,10.772c-0.726,3.542-1.173,7.059-1.415,10.404
			c-0.211,3.343-0.101,6.538,0.381,9.275c0.523,2.744,1.378,4.933,2.553,6.515c1.193,1.56,2.646,2.845,4.89,3.879
			c2.209,1.022,5.034,1.823,8.169,2.213c6.299,0.777,13.526,0.397,20.754-0.618c7.273-0.958,14.647-2.574,22.043-4.362
			c14.786-3.684,29.583-8.42,44.36-13.435c14.789-5.024,29.544-10.447,44.453-15.811L915.372,317.677z"/>
	</g>
	<g display="inline">
		<path d="M885.815,430.756c-0.1,2.832-1.074,5.661-2.473,8.145c-1.409,2.502-3.196,4.785-5.141,6.961
			c-3.911,4.329-8.512,8.287-13.562,11.487c-5.06,3.174-10.593,5.449-16.28,6.542c-5.685,1.106-11.492,1.236-17.171,0.422
			c-5.688-0.779-11.239-2.588-16.565-4.611c-5.331-2.083-10.448-4.343-15.528-6.539c-5.073-2.241-10.133-4.449-15.075-7.673
			c-1.215-0.833-2.47-1.682-3.642-2.711c-1.209-0.988-2.353-2.134-3.448-3.434c-1.082-1.31-2.077-2.814-2.87-4.536
			c-0.778-1.722-1.344-3.664-1.545-5.689c-0.445-4.074,0.642-8.314,2.435-11.662c1.773-3.4,4.091-6.171,6.575-8.459
			c4.991-4.6,10.622-7.417,16.218-9.719c5.619-2.275,11.338-3.947,17.128-5.01c5.782-1.094,11.637-1.519,17.445-1.281
			c5.804,0.25,11.608,1.04,17.277,2.555c5.661,1.547,11.119,4.165,16.097,7.559c4.969,3.419,9.485,7.52,13.286,12.01
			c1.887,2.255,3.605,4.634,4.894,7.237c1.284,2.594,2.071,5.481,1.946,8.374l-0.001,0.026V430.756z M883.517,430.653
			c0.045-2.38-0.927-4.689-2.477-6.496c-1.555-1.824-3.62-3.201-5.868-4.168c-2.257-0.967-4.675-1.578-7.14-1.925
			c-2.461-0.361-4.952-0.495-7.422-0.53c-4.938-0.083-9.748,0.114-14.461,0.039c-4.712-0.104-9.406-0.135-14.106-0.004
			c-4.694,0.122-9.354,0.287-13.985,0.583c-4.617,0.34-9.224,0.831-13.597,1.804c-4.368,0.959-8.483,2.415-12.018,3.988
			c-0.871,0.412-1.719,0.802-2.479,1.243c-0.788,0.417-1.49,0.853-2.122,1.306c-1.225,0.931-2.169,1.779-2.74,2.981
			c-0.563,1.178-0.675,2.826,0.008,4.652c0.66,1.816,1.986,3.674,3.671,5.261c1.673,1.614,3.688,2.996,5.855,4.128
			c2.168,1.141,4.498,2.039,6.915,2.666c4.836,1.281,9.985,1.442,15.031,0.981c5.053-0.405,10-1.392,14.816-2.052
			c4.824-0.698,9.532-1.159,14.26-1.443c4.72-0.31,9.512-0.198,14.445-0.272c2.472-0.02,4.967-0.129,7.444-0.446
			c2.481-0.305,4.928-0.86,7.228-1.775c2.289-0.919,4.409-2.252,6.035-4.047C882.426,435.338,883.481,433.089,883.517,430.653z"/>
	</g>
</g>
<g id="Layer_7_copy_2">
	<g>
		<path d="M393.749,372.938c-0.038,20.011-3.504,40.049-10.479,59.019c-3.49,9.478-7.819,18.708-13.044,27.474
			c-5.235,8.755-11.321,17.075-18.245,24.71c-6.958,7.592-14.652,14.605-23.104,20.645c-4.213,3.036-8.617,5.813-13.135,8.399
			c-4.547,2.532-9.21,4.876-14.005,6.925c-19.188,8.238-40.145,12.203-61.006,11.671l-1.868-0.058l-1.979-0.083
			c-1.305-0.076-2.595-0.163-3.89-0.268c-2.587-0.211-5.168-0.482-7.739-0.817c-5.14-0.683-10.25-1.562-15.275-2.788
			c-10.058-2.41-19.837-5.811-29.145-10.131c-18.641-8.618-35.354-20.782-49.49-35.275c-14.138-14.512-25.612-31.54-33.707-50.141
			c-2.024-4.649-3.819-9.403-5.376-14.238c-1.594-4.824-2.972-9.728-4.094-14.697c-2.217-9.952-3.618-20.08-3.949-30.381
			c-0.358-10.186,0.272-20.545,1.923-30.727c0.827-5.097,1.898-10.164,3.237-15.169c1.365-4.997,2.98-9.933,4.838-14.784
			c7.438-19.411,19.035-37.26,33.606-52.244c7.288-7.495,15.31-14.299,23.948-20.244c8.646-5.931,17.888-11.019,27.553-15.153
			c9.656-4.163,19.772-7.269,30.089-9.353c5.156-1.06,10.376-1.786,15.611-2.299c5.26-0.492,10.441-0.772,15.804-0.72
			c20.905,0.123,42.009,4.487,61.163,12.933c4.794,2.11,9.454,4.503,13.991,7.089c4.514,2.63,8.904,5.456,13.108,8.527
			c8.428,6.119,16.114,13.168,23.047,20.806c6.913,7.667,12.983,16.012,18.218,24.78c2.613,4.388,5.005,8.893,7.164,13.493
			c2.187,4.585,4.122,9.275,5.873,14.018c6.968,18.992,10.402,39.052,10.356,59.074V372.938z M392.15,372.933
			c-0.02-19.823-4.41-39.613-12.741-57.422c-2.064-4.459-4.399-8.782-6.916-12.977c-2.544-4.181-5.289-8.226-8.216-12.116
			c-5.848-7.787-12.484-14.909-19.658-21.331c-14.359-12.854-30.949-22.794-48.566-29.622c-8.818-3.403-17.918-6.021-27.185-7.715
			c-9.294-1.664-18.624-2.537-28.148-2.449c-18.724,0.077-37.532,3.757-54.992,10.726c-8.738,3.495-17.142,7.863-25.049,13.016
			c-7.918,5.137-15.361,11.041-22.162,17.632c-13.614,13.182-24.629,29.061-32.438,46.469c-1.958,4.351-3.703,8.805-5.226,13.341
			c-1.55,4.528-2.894,9.137-4,13.812c-2.217,9.362-3.512,18.927-3.875,28.663c-0.328,9.621,0.197,19.417,1.848,29.009
			c0.811,4.802,1.849,9.575,3.143,14.285c1.331,4.698,2.896,9.334,4.688,13.886c7.151,18.217,18.291,34.918,32.337,48.572
			c14.03,13.691,31.044,24.142,49.223,30.77c9.095,3.313,18.475,5.715,27.961,7.168c4.746,0.708,9.503,1.279,14.278,1.562
			c2.386,0.147,4.774,0.237,7.161,0.269c1.192,0.016,2.391,0.015,3.576,0.004l3.623-0.049
			c38.067-0.932,75.243-15.714,103.958-41.501c7.163-6.454,13.785-13.6,19.631-21.4c5.859-7.787,10.985-16.202,15.125-25.128
			c8.324-17.832,12.685-37.643,12.619-57.477V372.933z"/>
	</g>
	<g>
		<circle fill="#010101" cx="240.199" cy="374.585" r="3.897"/>
		<path d="M244.146,374.586c-0.011,1.018-0.271,2.1-0.969,2.977c-0.681,0.888-1.837,1.408-2.988,1.335
			c-1.122-0.07-2.15-0.668-2.86-1.443c-0.722-0.776-1.214-1.767-1.3-2.877c-0.106-1.078,0.282-2.261,1.083-3.081
			c0.783-0.836,1.91-1.362,3.102-1.342c1.13,0.011,2.307,0.541,2.975,1.442C243.88,372.484,244.147,373.563,244.146,374.586z
			 M244.047,374.585c0.009-1.021-0.564-1.97-1.324-2.522c-0.771-0.55-1.622-0.861-2.536-0.841c-0.852,0.01-1.753,0.326-2.41,0.94
			c-0.651,0.619-1.104,1.463-1.201,2.43c-0.096,0.934,0.253,1.971,0.983,2.634c0.729,0.677,1.729,0.92,2.651,0.84
			c0.893-0.063,1.765-0.384,2.523-0.947C243.487,376.557,244.067,375.611,244.047,374.585z"/>
	</g>
	<g>
		<path d="M96.776,374.732c1.413-1.708,2.825-2.517,4.237-3.054c0.706-0.271,1.413-0.422,2.119-0.507
			c0.707-0.093,1.413-0.052,2.119,0.258c1.413,0.581,2.825,2.034,4.237,2.306c1.413,0.312,2.825-0.154,4.237-1.016
			c0.707-0.411,1.413-0.854,2.119-1.158c0.706-0.316,1.412-0.46,2.119-0.632c1.412-0.346,2.825-0.707,4.237-0.556
			c1.412,0.146,2.825,0.584,4.237,1.253c0.706,0.341,1.413,0.733,2.119,1.255c0.706,0.492,1.413,1.066,2.119,1.851v0.9
			c-0.706,0.785-1.413,1.359-2.119,1.851c-0.706,0.521-1.413,0.914-2.119,1.255c-1.413,0.668-2.825,1.106-4.237,1.253
			c-1.413,0.151-2.825-0.21-4.237-0.556c-0.707-0.172-1.413-0.315-2.119-0.632c-0.707-0.303-1.413-0.747-2.119-1.158
			c-1.412-0.862-2.825-1.328-4.237-1.016c-1.412,0.271-2.825,1.725-4.237,2.306c-0.706,0.31-1.412,0.351-2.119,0.258
			c-0.706-0.085-1.413-0.236-2.119-0.507c-1.413-0.538-2.825-1.347-4.237-3.054V374.732z"/>
	</g>
	<g>
		<path d="M113.736,316.168c0.15-0.149,0.319-0.343,0.453-0.456l0.401-0.342c0.266-0.225,0.546-0.482,0.765-0.603l0.35-0.229
			c0.111-0.065,0.21-0.104,0.316-0.156c0.208-0.097,0.424-0.213,0.606-0.254c0.377-0.112,0.719-0.145,1.022-0.092
			c0.314,0.027,0.556,0.215,0.705,0.605c0.298,0.779,0.242,2.337,0.667,2.837c0.406,0.542,1.156,0.332,2.044-0.185
			c0.428-0.221,0.902-0.545,1.288-0.675c0.41-0.183,0.734-0.178,1.078-0.214c0.685-0.068,1.375-0.151,1.854,0.233
			c0.243,0.184,0.452,0.442,0.631,0.766c0.191,0.297,0.335,0.7,0.467,1.125c0.077,0.19,0.121,0.453,0.172,0.697
			c0.058,0.232,0.095,0.51,0.125,0.803c0.044,0.263,0.044,0.622,0.054,0.958c0.012,0.332,0.022,0.667-0.01,1.097l-0.373,0.819
			c-0.303,0.306-0.563,0.519-0.821,0.727c-0.26,0.213-0.531,0.449-0.758,0.588c-0.241,0.17-0.474,0.324-0.688,0.433
			c-0.218,0.121-0.445,0.261-0.639,0.328c-0.408,0.179-0.806,0.335-1.156,0.386c-0.362,0.077-0.694,0.089-0.992,0.026
			c-0.604-0.109-0.995-0.685-1.393-1.245c-0.198-0.283-0.414-0.525-0.545-0.954c-0.156-0.376-0.223-0.946-0.336-1.414
			c-0.193-1.01-0.526-1.713-1.203-1.664c-0.657,0.007-1.795,1.072-2.579,1.358c-0.392,0.144-0.692,0.084-0.918-0.135
			c-0.238-0.194-0.438-0.472-0.602-0.831c-0.089-0.164-0.143-0.403-0.206-0.624c-0.029-0.115-0.065-0.215-0.09-0.341l-0.056-0.415
			c-0.052-0.244-0.042-0.625-0.047-0.973l-0.005-0.526c-0.002-0.175,0.033-0.43,0.047-0.641L113.736,316.168z"/>
	</g>
	<g>
		<path d="M168.663,254.941c1.794-0.336,2.821-0.205,3.615,0.067c0.399,0.135,0.695,0.333,0.936,0.563
			c0.247,0.228,0.379,0.524,0.282,0.961c-0.162,0.853-1.068,2.159-0.965,2.851c0.067,0.714,0.8,1.024,1.874,1.126
			c0.519,0.062,1.065,0.107,1.492,0.226c0.438,0.111,0.729,0.313,1.043,0.499c0.63,0.372,1.274,0.735,1.48,1.365
			c0.21,0.628,0.171,1.406-0.065,2.305c-0.292,0.933-0.667,1.916-1.648,3.267l-0.77,0.468c-1.651,0.249-2.697,0.129-3.659-0.041
			c-0.907-0.204-1.616-0.528-2.076-1.003c-0.464-0.473-0.491-1.212-0.531-1.943c-0.021-0.365-0.065-0.715,0.038-1.155
			c0.091-0.433,0.303-0.939,0.486-1.428c0.403-1,0.466-1.793-0.137-2.182c-0.567-0.41-2.144-0.207-2.976-0.457
			c-0.432-0.114-0.635-0.369-0.723-0.693c-0.095-0.32-0.133-0.674-0.069-1.09c0.125-0.831,0.48-1.802,1.604-3.24L168.663,254.941z"
			/>
	</g>
	<g>
		<path d="M304.371,252.646c0.125,0.171,0.29,0.368,0.381,0.517l0.277,0.448c0.182,0.297,0.393,0.613,0.479,0.848l0.174,0.38
			c0.047,0.12,0.07,0.224,0.106,0.336c0.064,0.22,0.146,0.451,0.159,0.637c0.054,0.391,0.033,0.732-0.064,1.024
			c-0.075,0.307-0.297,0.517-0.705,0.604c-0.816,0.176-2.347-0.117-2.906,0.228c-0.598,0.319-0.504,1.092-0.128,2.049
			c0.153,0.456,0.402,0.974,0.471,1.375c0.118,0.433,0.063,0.753,0.048,1.098c-0.037,0.687-0.061,1.382-0.513,1.796
			c-0.219,0.212-0.506,0.379-0.853,0.507c-0.322,0.144-0.742,0.225-1.183,0.291c-0.2,0.047-0.466,0.05-0.716,0.064
			c-0.238,0.021-0.518,0.016-0.812,0.001c-0.266,0.003-0.621-0.051-0.955-0.093c-0.33-0.038-0.663-0.079-1.083-0.176l-0.753-0.493
			c-0.256-0.346-0.427-0.636-0.594-0.922c-0.171-0.29-0.363-0.593-0.466-0.839c-0.131-0.264-0.248-0.518-0.323-0.745
			c-0.086-0.234-0.19-0.48-0.227-0.682c-0.115-0.431-0.209-0.848-0.205-1.201c-0.021-0.369,0.018-0.699,0.125-0.984
			c0.199-0.58,0.828-0.879,1.442-1.188c0.31-0.152,0.582-0.33,1.026-0.394c0.395-0.096,0.969-0.076,1.449-0.117
			c1.028-0.037,1.774-0.259,1.828-0.935c0.093-0.65-0.787-1.938-0.95-2.756c-0.083-0.409,0.021-0.697,0.272-0.887
			c0.229-0.206,0.534-0.361,0.914-0.468c0.175-0.063,0.42-0.08,0.647-0.109c0.118-0.012,0.222-0.032,0.351-0.037l0.418,0.008
			c0.25-0.014,0.624,0.053,0.968,0.102l0.521,0.075c0.173,0.024,0.42,0.098,0.626,0.144L304.371,252.646z"/>
	</g>
	<g>
		<path d="M356.526,316.252c0.059,1.825-0.227,2.819-0.617,3.563c-0.194,0.374-0.434,0.637-0.7,0.84
			c-0.262,0.209-0.576,0.295-0.993,0.132c-0.819-0.29-1.972-1.384-2.671-1.387c-0.716-0.042-1.134,0.634-1.398,1.68
			c-0.14,0.503-0.268,1.037-0.45,1.44c-0.176,0.416-0.419,0.672-0.651,0.955c-0.463,0.566-0.921,1.148-1.575,1.255
			c-0.652,0.112-1.416-0.045-2.268-0.416c-0.877-0.431-1.792-0.952-2.979-2.127l-0.345-0.831c0.005-1.67,0.282-2.686,0.597-3.611
			c0.339-0.865,0.768-1.517,1.307-1.899c0.538-0.387,1.272-0.3,2.001-0.229c0.364,0.035,0.717,0.044,1.136,0.213
			c0.414,0.156,0.882,0.442,1.338,0.698c0.927,0.551,1.701,0.733,2.177,0.196c0.492-0.498,0.531-2.087,0.904-2.872
			c0.179-0.41,0.461-0.572,0.795-0.609c0.331-0.045,0.687-0.029,1.088,0.097c0.802,0.25,1.708,0.749,2.958,2.08L356.526,316.252z"/>
	</g>
	<g>
		<path d="M360.04,439.84c-0.15,0.149-0.319,0.343-0.453,0.456l-0.401,0.342c-0.266,0.225-0.546,0.482-0.765,0.603l-0.35,0.229
			c-0.111,0.065-0.21,0.104-0.316,0.156c-0.208,0.097-0.424,0.213-0.606,0.254c-0.378,0.112-0.719,0.144-1.022,0.092
			c-0.314-0.027-0.556-0.214-0.705-0.604c-0.298-0.779-0.242-2.338-0.668-2.837c-0.406-0.543-1.155-0.333-2.044,0.185
			c-0.428,0.221-0.902,0.545-1.288,0.675c-0.41,0.182-0.734,0.177-1.078,0.214c-0.684,0.068-1.375,0.151-1.854-0.233
			c-0.243-0.184-0.452-0.442-0.631-0.766c-0.191-0.297-0.335-0.7-0.468-1.125c-0.077-0.19-0.12-0.453-0.172-0.697
			c-0.057-0.232-0.094-0.51-0.124-0.803c-0.044-0.263-0.044-0.622-0.054-0.958c-0.012-0.332-0.022-0.667,0.01-1.097l0.373-0.819
			c0.303-0.306,0.563-0.519,0.821-0.727c0.26-0.213,0.531-0.449,0.758-0.588c0.241-0.17,0.475-0.324,0.688-0.433
			c0.218-0.121,0.445-0.261,0.639-0.328c0.409-0.18,0.806-0.336,1.156-0.386c0.362-0.077,0.694-0.089,0.992-0.026
			c0.604,0.109,0.995,0.685,1.393,1.246c0.198,0.283,0.415,0.524,0.546,0.954c0.155,0.376,0.222,0.947,0.335,1.415
			c0.193,1.01,0.526,1.713,1.203,1.664c0.657-0.007,1.795-1.072,2.579-1.358c0.392-0.144,0.692-0.084,0.918,0.134
			c0.238,0.194,0.438,0.473,0.602,0.832c0.089,0.164,0.143,0.403,0.206,0.624c0.03,0.115,0.065,0.215,0.09,0.341l0.056,0.415
			c0.052,0.244,0.042,0.625,0.047,0.973l0.005,0.526c0.002,0.175-0.032,0.43-0.047,0.641L360.04,439.84z"/>
	</g>
	<g>
		<path d="M305.114,501.065c-1.794,0.336-2.821,0.205-3.615-0.067c-0.399-0.135-0.695-0.332-0.936-0.563
			c-0.247-0.228-0.379-0.524-0.282-0.961c0.162-0.853,1.068-2.159,0.965-2.852c-0.067-0.714-0.8-1.024-1.874-1.126
			c-0.519-0.063-1.065-0.107-1.492-0.226c-0.438-0.111-0.729-0.313-1.043-0.499c-0.63-0.372-1.274-0.735-1.48-1.365
			c-0.21-0.627-0.171-1.406,0.065-2.305c0.292-0.933,0.667-1.916,1.649-3.267l0.769-0.468c1.651-0.249,2.697-0.129,3.66,0.041
			c0.907,0.204,1.616,0.528,2.077,1.003c0.464,0.473,0.49,1.212,0.53,1.942c0.021,0.365,0.065,0.715-0.038,1.155
			c-0.091,0.433-0.303,0.939-0.486,1.428c-0.403,1-0.466,1.793,0.138,2.182c0.567,0.411,2.144,0.207,2.975,0.457
			c0.433,0.114,0.635,0.369,0.724,0.692c0.094,0.32,0.133,0.674,0.069,1.091c-0.125,0.831-0.48,1.802-1.604,3.24L305.114,501.065z"
			/>
	</g>
	<g>
		<path d="M169.405,503.36c-0.125-0.171-0.29-0.368-0.381-0.517l-0.277-0.448c-0.182-0.297-0.393-0.613-0.479-0.848l-0.174-0.38
			c-0.047-0.12-0.07-0.224-0.106-0.336c-0.064-0.22-0.146-0.451-0.159-0.637c-0.054-0.39-0.033-0.732,0.064-1.024
			c0.075-0.306,0.297-0.516,0.705-0.604c0.815-0.177,2.347,0.116,2.906-0.228c0.598-0.319,0.504-1.092,0.128-2.049
			c-0.154-0.456-0.402-0.974-0.471-1.375c-0.118-0.433-0.063-0.753-0.048-1.098c0.037-0.687,0.061-1.382,0.513-1.797
			c0.219-0.212,0.506-0.379,0.853-0.507c0.322-0.144,0.742-0.224,1.183-0.291c0.2-0.047,0.466-0.05,0.716-0.064
			c0.238-0.021,0.518-0.016,0.813,0c0.266-0.003,0.621,0.051,0.955,0.093c0.33,0.038,0.663,0.079,1.083,0.176l0.753,0.493
			c0.256,0.346,0.427,0.636,0.594,0.922c0.171,0.29,0.363,0.593,0.466,0.838c0.131,0.264,0.248,0.518,0.323,0.746
			c0.086,0.234,0.19,0.48,0.227,0.682c0.115,0.431,0.209,0.848,0.206,1.201c0.021,0.369-0.018,0.699-0.125,0.984
			c-0.2,0.58-0.828,0.879-1.443,1.187c-0.31,0.152-0.582,0.33-1.025,0.394c-0.396,0.097-0.97,0.076-1.449,0.117
			c-1.028,0.037-1.773,0.259-1.827,0.935c-0.093,0.65,0.787,1.938,0.95,2.755c0.083,0.41-0.021,0.697-0.273,0.888
			c-0.228,0.206-0.534,0.361-0.913,0.468c-0.175,0.063-0.42,0.08-0.647,0.109c-0.118,0.012-0.222,0.032-0.351,0.037l-0.418-0.008
			c-0.25,0.014-0.624-0.053-0.968-0.102l-0.521-0.075c-0.173-0.024-0.42-0.098-0.626-0.144L169.405,503.36z"/>
	</g>
	<g>
		<path d="M117.251,439.755c-0.059-1.825,0.227-2.819,0.617-3.563c0.194-0.374,0.434-0.637,0.699-0.839
			c0.263-0.209,0.576-0.295,0.993-0.132c0.818,0.29,1.972,1.384,2.671,1.387c0.716,0.042,1.134-0.635,1.398-1.68
			c0.14-0.503,0.268-1.037,0.45-1.44c0.176-0.416,0.419-0.673,0.651-0.955c0.463-0.566,0.921-1.147,1.575-1.255
			c0.652-0.112,1.416,0.045,2.268,0.416c0.877,0.43,1.792,0.951,2.979,2.126l0.345,0.831c-0.005,1.67-0.282,2.686-0.597,3.611
			c-0.34,0.865-0.768,1.517-1.308,1.899c-0.538,0.387-1.272,0.3-2,0.229c-0.364-0.035-0.717-0.044-1.136-0.212
			c-0.414-0.156-0.882-0.442-1.338-0.698c-0.927-0.551-1.701-0.733-2.177-0.196c-0.492,0.498-0.531,2.087-0.904,2.871
			c-0.179,0.41-0.461,0.572-0.795,0.61c-0.331,0.045-0.686,0.029-1.088-0.098c-0.802-0.249-1.708-0.749-2.959-2.079L117.251,439.755
			z"/>
	</g>
	<g>
		<path d="M381.038,375.632c-1.412,1.708-2.825,2.517-4.237,3.054c-0.706,0.271-1.412,0.422-2.119,0.507
			c-0.706,0.093-1.412,0.052-2.118-0.258c-1.413-0.581-2.825-2.034-4.237-2.306c-1.413-0.312-2.825,0.154-4.237,1.016
			c-0.706,0.411-1.413,0.854-2.119,1.158c-0.706,0.316-1.413,0.46-2.119,0.632c-1.413,0.346-2.825,0.707-4.237,0.556
			c-1.413-0.146-2.825-0.584-4.237-1.253c-0.706-0.341-1.413-0.733-2.119-1.255c-0.706-0.492-1.413-1.066-2.119-1.851v-0.9
			c0.706-0.785,1.413-1.359,2.119-1.851c0.706-0.521,1.413-0.914,2.119-1.255c1.413-0.668,2.825-1.106,4.237-1.253
			c1.413-0.151,2.825,0.21,4.237,0.556c0.706,0.172,1.413,0.315,2.119,0.632c0.706,0.303,1.413,0.747,2.119,1.158
			c1.413,0.862,2.825,1.328,4.237,1.016c1.413-0.271,2.825-1.725,4.237-2.306c0.706-0.31,1.412-0.351,2.118-0.258
			c0.707,0.085,1.413,0.236,2.119,0.507c1.412,0.538,2.825,1.347,4.237,3.054V375.632z"/>
	</g>
	<g>
		<path d="M240.81,228.693c1.708,1.413,2.517,2.825,3.054,4.237c0.271,0.706,0.422,1.413,0.507,2.119
			c0.093,0.706,0.052,1.413-0.258,2.119c-0.581,1.413-2.034,2.825-2.305,4.237c-0.312,1.413,0.153,2.825,1.016,4.237
			c0.411,0.706,0.854,1.413,1.158,2.119c0.316,0.706,0.46,1.413,0.632,2.119c0.346,1.413,0.707,2.825,0.556,4.237
			c-0.146,1.413-0.584,2.825-1.253,4.237c-0.341,0.706-0.733,1.413-1.255,2.119c-0.492,0.706-1.066,1.413-1.851,2.119h-0.9
			c-0.785-0.706-1.359-1.413-1.851-2.119c-0.521-0.706-0.914-1.413-1.255-2.119c-0.668-1.413-1.106-2.825-1.253-4.237
			c-0.151-1.413,0.21-2.825,0.556-4.237c0.172-0.706,0.315-1.413,0.632-2.119c0.303-0.706,0.747-1.413,1.158-2.119
			c0.862-1.413,1.328-2.825,1.016-4.237c-0.271-1.413-1.724-2.825-2.305-4.237c-0.31-0.706-0.351-1.413-0.258-2.119
			c0.085-0.706,0.236-1.413,0.507-2.119c0.538-1.413,1.346-2.825,3.054-4.237H240.81z"/>
	</g>
	<g>
		<path d="M239.91,512.956c-1.708-1.413-2.517-2.825-3.054-4.237c-0.271-0.706-0.422-1.413-0.507-2.119
			c-0.093-0.706-0.052-1.413,0.258-2.119c0.581-1.413,2.034-2.825,2.305-4.237c0.312-1.413-0.153-2.825-1.016-4.237
			c-0.411-0.706-0.854-1.413-1.158-2.119c-0.316-0.706-0.46-1.413-0.632-2.119c-0.346-1.413-0.707-2.825-0.556-4.237
			c0.146-1.413,0.584-2.825,1.253-4.237c0.341-0.706,0.733-1.413,1.255-2.119c0.492-0.706,1.066-1.413,1.851-2.119h0.9
			c0.785,0.706,1.359,1.413,1.851,2.119c0.521,0.706,0.914,1.413,1.255,2.119c0.668,1.413,1.106,2.825,1.253,4.237
			c0.151,1.413-0.21,2.825-0.556,4.237c-0.172,0.706-0.315,1.413-0.632,2.119c-0.303,0.706-0.747,1.413-1.158,2.119
			c-0.862,1.413-1.328,2.825-1.016,4.237c0.271,1.413,1.724,2.825,2.305,4.237c0.31,0.706,0.351,1.413,0.258,2.119
			c-0.085,0.706-0.236,1.413-0.507,2.119c-0.538,1.413-1.346,2.825-3.054,4.237H239.91z"/>
	</g>
</g>
<g id="Layer_2_copy_2">
	<g>
		<path d="M241.14,265.34c1.525,4.371,2.233,8.741,2.715,13.111c0.229,2.185,0.381,4.37,0.443,6.555
			c0.095,2.186,0.039,4.371-0.222,6.556c-0.515,4.371-1.812,8.741-2.046,13.111c-0.274,4.37,0.128,8.741,0.899,13.111
			c0.366,2.185,0.76,4.37,1.029,6.555c0.282,2.186,0.41,4.371,0.562,6.556c0.306,4.371,0.622,8.741,0.491,13.111
			c-0.139,4.37-0.509,8.741-1.111,13.111c-0.303,2.186-0.651,4.371-1.115,6.556c-0.438,2.186-0.948,4.371-1.646,6.556h-0.8
			c-0.698-2.185-1.208-4.37-1.646-6.556c-0.463-2.185-0.812-4.37-1.115-6.556c-0.602-4.37-0.972-8.741-1.111-13.111
			c-0.13-4.371,0.186-8.741,0.491-13.111c0.152-2.185,0.28-4.37,0.562-6.556c0.269-2.185,0.663-4.37,1.029-6.555
			c0.771-4.371,1.173-8.741,0.899-13.111c-0.234-4.371-1.531-8.741-2.046-13.111c-0.261-2.185-0.317-4.37-0.222-6.556
			c0.062-2.185,0.214-4.37,0.443-6.555c0.482-4.371,1.19-8.741,2.715-13.111H241.14z"/>
	</g>
	<g>
		<path d="M305.903,309.251c-1.582,3.812-3.749,7.053-6.078,10.137c-1.172,1.534-2.401,3.014-3.694,4.431
			c-1.269,1.44-2.646,2.775-4.171,3.966c-3.043,2.389-6.647,4.232-9.49,6.816c-2.87,2.557-5.256,5.585-7.379,8.87
			c-1.075,1.629-2.13,3.278-3.274,4.839c-1.135,1.57-2.381,3.033-3.609,4.513c-2.456,2.961-4.903,5.929-7.671,8.585
			c-2.774,2.65-5.714,5.14-8.82,7.468c-3.116,2.318-6.354,4.517-10.002,6.317l-0.573-0.558c1.701-3.695,3.812-6.992,6.045-10.168
			c2.243-3.168,4.652-6.173,7.227-9.018c2.581-2.839,5.482-5.366,8.375-7.9c1.446-1.267,2.875-2.552,4.414-3.729
			c1.53-1.186,3.15-2.285,4.75-3.403c3.227-2.21,6.189-4.677,8.668-7.616c2.506-2.911,4.252-6.563,6.557-9.67
			c1.15-1.556,2.447-2.969,3.853-4.276c1.381-1.331,2.828-2.599,4.329-3.813c3.02-2.411,6.202-4.665,9.969-6.349L305.903,309.251z"
			/>
	</g>
	<g>
		<path d="M807.651,356.506c0.03,11.746-1.184,23.51-3.517,35.032c-2.271,11.544-5.78,22.827-10.161,33.751
			c-4.388,10.928-9.798,21.436-15.897,31.524c-6.143,10.064-13.021,19.686-20.493,28.833c-7.489,9.131-15.522,17.83-24.044,26.034
			c-8.497,8.232-17.456,15.998-26.774,23.311c-18.649,14.618-38.669,27.503-59.56,38.764
			c-41.839,22.472-87.083,38.44-133.443,48.543c-46.39,10.107-93.93,14.521-141.261,13.795
			c-47.344-0.705-94.542-6.707-140.468-17.562c-45.897-10.945-90.632-26.677-132.617-48.021
			c-20.968-10.697-41.212-22.863-60.255-36.776c-9.509-6.969-18.702-14.388-27.499-22.271c-8.771-7.912-17.155-16.282-24.971-25.19
			c-15.614-17.801-29.073-37.76-38.704-59.71c-4.814-10.962-8.651-22.402-11.346-34.149c-2.688-11.747-4.189-23.805-4.436-35.912
			c-0.571-24.224,4.023-48.634,12.996-71.227c4.461-11.312,9.943-22.203,16.24-32.57c6.325-10.351,13.423-20.206,21.169-29.486
			c7.74-9.288,16.078-18.044,24.892-26.255c8.802-8.226,18.066-15.92,27.678-23.117c19.215-14.414,39.761-26.883,61.039-37.761
			c42.612-21.713,88.137-37.094,134.641-47.193c46.529-10.12,94.135-14.799,141.642-14.673c23.755,0.134,47.518,1.345,71.139,3.971
			c23.622,2.574,47.124,6.365,70.317,11.587c46.362,10.438,91.567,26.609,133.389,49.189c20.888,11.303,40.896,24.23,59.55,38.866
			c9.321,7.322,18.281,15.098,26.779,23.339c8.524,8.213,16.562,16.92,24.052,26.062c7.473,9.156,14.353,18.789,20.492,28.865
			c6.099,10.099,11.499,20.623,15.877,31.563c4.373,10.936,7.86,22.233,10.114,33.786c2.313,11.535,3.498,23.297,3.441,35.054
			V356.506z M805.35,356.5c-0.051-11.599-1.277-23.189-3.701-34.524c-2.473-11.322-6.024-22.407-10.667-33.014
			c-9.24-21.251-22.438-40.616-37.955-57.687c-7.747-8.561-16.112-16.541-24.866-24.04c-8.79-7.463-17.984-14.431-27.489-20.929
			c-19.011-13.008-39.268-24.089-60.16-33.653c-41.836-19.112-86.146-32.232-131.144-41.071
			c-11.254-2.226-22.578-4.091-33.929-5.747c-11.353-1.649-22.752-2.994-34.178-4.044c-22.854-2.064-45.805-3.135-68.76-3.009
			c-45.9,0.145-91.773,4.585-136.68,13.685c-44.857,9.177-88.847,23.088-129.892,43.067c-20.503,9.989-40.223,21.528-58.672,34.758
			c-9.215,6.624-18.104,13.672-26.591,21.151c-8.464,7.501-16.528,15.432-24.026,23.846c-14.975,16.82-27.794,35.574-36.915,56.059
			c-4.551,10.236-8.167,20.883-10.702,31.799c-2.533,10.916-3.961,22.102-4.226,33.352c-0.521,22.501,3.691,45.17,12.141,66.317
			c4.19,10.588,9.41,20.797,15.394,30.562c6.025,9.741,12.792,19.062,20.227,27.844c7.422,8.793,15.44,17.109,23.947,24.91
			c8.491,7.821,17.453,15.146,26.77,21.997c9.299,6.879,18.979,13.249,28.909,19.203c9.917,5.979,20.146,11.438,30.546,16.539
			c41.673,20.349,86.454,33.909,131.917,42.239c45.511,8.365,91.791,11.483,137.854,10.797
			c46.076-0.745,92.015-5.451,137.062-14.563c45-9.175,89.272-22.498,131.09-41.718c20.89-9.605,41.136-20.729,60.151-33.755
			c9.507-6.508,18.703-13.485,27.494-20.958c8.756-7.508,17.125-15.496,24.873-24.066c7.755-8.561,14.946-17.656,21.325-27.31
			c6.419-9.625,11.984-19.829,16.609-30.45c4.633-10.619,8.164-21.718,10.62-33.049c2.402-11.347,3.6-22.936,3.625-34.546V356.5z"/>
	</g>
	<g id="boy">
		<path fill="#010101" d="M795.023,560.445c-49.839-8.296-96.378,27.792-122.999,66.489C642,670.58,627.168,723.738,620.883,775.834
			c-6.337,52.527-5.799,108.533,22.691,154.944c31.395,51.14,92.083,69.526,149.229,65.903
			c35.71-2.263,71.736-12.372,102.687-30.475c15.816-9.253,30.738-21.398,41.279-36.497c10.458-14.979,15.943-32.691,18.142-50.687
			c2.199-17.992,1.482-36.149,0.76-54.206c-0.757-18.968-2.082-37.72-4.832-56.519c-5.496-37.551-13.82-76.567-27.873-111.935
			c-9.366-23.571-24.789-45.731-41.32-64.796c-15.57-17.959-37.212-38.951-62.834-36.681c-9.865,0.876-22.152,19.218-7.689,22.479
			c8.88,2.003,20.648,8.975,28.623,15.563c11.616,9.599,21.626,21.137,30.734,33.088c8.394,11.012,15.905,22.701,22.188,35.043
			c6.973,13.695,11.276,28.67,15.578,43.367c11.03,37.676,18.563,76.766,20.456,116.021c1.523,31.588,6.708,70.635-11.662,98.596
			c-18.133,27.602-55.224,40.993-85.812,48.28c-29.752,7.088-61.771,7.629-91.477,0.171c-25.425-6.381-48.321-20.43-65.304-40.383
			c-18.396-21.615-27.93-49.398-31.34-77.265c-5.861-47.914,0.998-98.897,14.414-144.979
			c13.135-45.107,34.741-92.411,76.137-118.121c17.763-11.031,38.025-14.8,58.412-17.68
			C795.593,568.57,800.785,561.406,795.023,560.445L795.023,560.445z"/>
		<path fill="#010101" d="M683.64,814.392c2.874,0.05,5.725-0.826,8.53-1.415c3.039-0.64,3.743-0.851,7.1-1.153
			c5.449-0.49,11.031-5.669,10.726-11.399c-0.341-6.411-7.265-6.339-11.604-4.235c-2.424,1.175-4.799,2.457-7.209,3.664
			c-1.533,0.769-3.061,1.544-4.594,2.316c-0.668,0.338-1.336,0.672-2.002,1.014c1.172-0.601-3.545,2.528-1.517,1.088
			C679.258,806.977,676.63,814.271,683.64,814.392L683.64,814.392z"/>
		<path fill="#010101" d="M699.274,811.312c1.174,16.153,16.711,24.973,30.428,29.687c17.395,5.978,36.903,5.894,55.014,4.365
			c19.643-1.656,39.229-5.919,57.914-12.146c15.313-5.103,31.261-11.806,43.71-22.332c3.638-3.075,5.25-7.415,4.185-12.004
			c-0.854-3.69-0.785-6.921-2.634-10.398c-5.708,5.008-11.416,10.018-17.121,15.024c4.039,2.301,7.861,6.666,12.848,6.261
			c1.598-0.129,2.117-0.467,3.312-0.747c1.581-0.522,2.993-1.335,4.243-2.439c-2.756,1.97-2.756,1.97,0,0
			c3.403-3.239,5.72-7.501,4.387-12.307c-1.316-4.74-6.703-7.303-10.748-9.303c-9.601-4.748-21.436,8.039-15.898,17.059
			c1.344,2.187,1.269,5.6,1.991,8.033c1.394-4.002,2.788-8.003,4.184-12.004c-4.215,3.917-6.388,5.347-12.747,8.852
			c-6.192,3.415-12.678,6.184-19.281,8.688c-16.649,6.318-34.1,10.679-51.728,13.148c-16.985,2.378-34.42,2.892-51.28-0.612
			c-14.385-2.99-24.427-10.701-35.087-20.09C702.796,806.138,699.078,808.623,699.274,811.312z"/>
		<path fill="#010101" d="M637.54,734.992c-0.138-5.327-0.293-8.498-3.206-13.216c-2.471-4.006-7.082-5.775-11.334-7.21
			c-9.989-3.371-21.756-0.577-30.95,3.721c-17.222,8.047-26.806,26.15-25.077,44.778c1.529,16.525,11.195,32.364,24.762,41.74
			c14.95,10.334,32.145,5.493,43.666-7.255c3.731-4.128,2.031-11.932-4.445-11.153c-5.196,0.623-12.346,3.833-13.599,9.677
			c-1.272,5.944,6.343,6.447,10.237,6.01c-1.481-3.718-2.962-7.436-4.443-11.154c-5.693,6.218-14.341,4-21.623-0.883
			c-9.649-6.472-15.734-17.907-18.512-28.895c-2.725-10.773,0.018-22.691,9.471-29.193c9.989-6.87,36.451-11.785,40.331,5.122
			C633.438,739.787,637.59,736.973,637.54,734.992L637.54,734.992z"/>
		<path fill="#010101" d="M935.243,730.273c5.918-15.586,26.658-22.902,41.469-17.084c14.509,5.699,27.333,20.246,27.771,36.164
			c0.339,12.382-8.246,23.836-17.99,30.605c-6.025,4.188-12.708,6.88-19.807,8.62c-7.947,1.946-18.19-1.081-25.127,3.323
			c-2.557,1.624-5.954,5.49-4.287,8.855c4.276,8.638,21.019,4.611,28.614,3.058c10.352-2.118,20.278-7.076,28.695-13.378
			c15.09-11.299,26.515-29.218,24.781-48.646c-1.82-20.414-21.712-39.764-41.591-42.896c-10.594-1.67-22.02,1.599-30.752,7.594
			c-8.863,6.086-13.193,13.498-15.768,23.601C930.579,732.74,934.542,732.12,935.243,730.273L935.243,730.273z"/>
		<path fill="#010101" d="M960.509,745.894c2.349-0.145,5.224-2.553,7.077-1.609c1.273,0.648,2.225,3.41,2.521,5.414
			c0.401,2.716-0.004,6.483-0.643,8.231c-0.264,0.726-0.61,1.414-0.96,2.099c0.811-1.592-1.771,1.918-0.05,0.162
			c-1.214,1.239,0.446-0.162,0.896-0.354c-1.353,0.577-2.745,0.913-4.033,1.699c-5.6,3.411-8.444,13.69,0.771,13.742
			c6.972,0.039,13.337-7.581,15.655-13.527c2.223-5.701,2.386-11.696,0.88-17.589c-1.225-4.793-4.589-8.893-9.565-9.896
			c-5.489-1.107-13.723,3.34-14.817,9.042C957.948,744.829,958.961,745.989,960.509,745.894L960.509,745.894z"/>
		<path fill="#010101" d="M610.424,742.57c-8.229-1.74-16.256,6.927-19.383,13.558c-4.332,9.181-0.914,18.565,6.751,24.472
			c6.669,5.14,18.648-9.727,10.34-13.649c-3.843-1.816-6.804-4.599-6.2-9.187c0.668-5.088,5.192-6.848,8.854-9.514
			C612.678,746.871,613.272,743.172,610.424,742.57z"/>
		<path fill="#010101" d="M746.009,709.785c-3.947,8.221-5.116,18.531-5.827,27.531c-0.785,9.959-0.324,20.205,4.469,29.196
			c4.71,8.831,16.807,3.221,20.051-4.084c5.072-11.417,7.623-23.815,7.382-36.315c-0.113-5.808-1.406-11.901-3.985-17.109
			c-1.302-2.632-3.018-5.038-5.051-7.141c-1.035-0.93-2.108-1.813-3.223-2.647c-0.21-0.114-8.357-2.192-3.896-1.048
			c-7.285-1.87-15.62,5.438-16.962,12.229c-1.825,9.237-2.791,21.789,0.313,30.762c1.696,4.9,7.609,5.722,11.914,4.346
			c5.535-1.77,9.466-6.274,11.051-11.746c2.696-9.304,1.766-21.373-0.302-30.764c-3.583,5.757-7.165,11.512-10.749,17.27
			c-0.51,0.145-1.021,0.29-1.533,0.435c-2.467-0.878-4.933-1.757-7.398-2.637c12.152,10.106,6.324,30.679,2.111,43.419
			c6.569-2.944,13.141-5.893,19.71-8.837c-9.468-13.512-0.796-30.989-5.557-45.405C756.428,700.885,747.781,706.094,746.009,709.785
			L746.009,709.785z"/>
		<path fill="#010101" d="M803.456,706.372c-8.772,6.599-11.172,20.194-12.518,30.39c-1.573,11.923-1.598,24.586,2.817,35.938
			c4.181,10.747,17.729,1.886,21.213-4.321c10.948-19.498,16.809-48.912,3.272-68.246c-5.886-8.401-19.026,1.01-21.965,7.204
			c-2.082,4.396-4.102,9.309-3.211,14.224c2.456,13.515,17.798,6.09,22.355-1.813c1.496-2.592,2.352-5.434,3.542-8.181
			c-7.321,2.402-14.642,4.802-21.963,7.203c5.586,4.71,4.974,14.302,4.21,20.882c-1.004,8.605-3.507,16.915-6.784,24.896
			c6.629-2.175,13.258-4.348,19.887-6.523c-4.478-6.777-4.777-17.172-5.003-24.977c-0.242-8.399,2.444-16.922,1.791-25.182
			C810.756,703.513,805.846,704.572,803.456,706.372L803.456,706.372z"/>
		<path fill="#010101" d="M691.69,971.958c-22.966,43.079-14.254,95.315-11.709,141.937c0.302,5.503,4.729,7.731,9.651,7.784
			c38.704,0.421,76.242,11.546,114.994,11.42c19.535-0.063,39.023-2.063,58.413-4.255c9.704-1.097,19.399-2.275,29.107-3.344
			c10.035-1.104,20.277-1.419,30.144-3.565c4.715-1.024,9.125-5.535,11.105-9.744c1.891-4.021,2.345-11.766-3.051-13.678
			c-4.266-1.508-6.594-1.685-11.052-0.937c-6.183,1.037-12.043,5.937-11.919,12.666c0.07,3.721,1.108,6.368,3.268,9.41
			c5.626-7.374,11.252-14.747,16.878-22.119c-9.905-0.731-19.971,0.939-29.817,2.035c-9.713,1.08-19.412,2.278-29.12,3.408
			c-19.419,2.258-38.88,4.105-58.439,4.365c-38.72,0.513-76.702-11.787-115.507-9.024c3.03,1.691,6.062,3.381,9.089,5.072
			c-12.486-41.795-14.998-88.448-4.984-131.104C699.911,967.301,693.184,969.153,691.69,971.958L691.69,971.958z"/>
		<path fill="#010101" d="M903.211,955.763c-0.999,10.248,1.382,21.199,2.876,31.346c2.454,16.662,4.689,33.354,6.705,50.074
			c1.972,16.36,3.713,32.787,4.432,49.256c0.253,5.83,0.347,11.684-0.047,17.511c0.209-3.111-0.619,2.528-0.945,3.72
			c-0.38,1.254-0.188,0.706,0.583-1.647c-0.479,1.317-0.993,2.627-1.356,3.981c-0.358,1.335-0.535,2.962-0.434,4.252
			c0.679,8.566,9.852,9.008,15.934,5.813c13.133-6.898,10.893-24.428,9.82-36.722c-1.417-16.23-4.268-32.355-7.195-48.367
			c-3.156-17.251-6.763-34.421-10.514-51.553c-2.162-9.875-4.303-23.616-8.769-31.239
			C911.502,947.411,903.698,950.778,903.211,955.763L903.211,955.763z"/>
		<path fill="#010101" d="M699.249,1113.53c-10.327,19.724-7.438,45.057-8.712,66.569c-0.213,3.623,3.793,6.205,7.07,5.702
			c32.648-5.015,65.075,4.604,97.8,2.145c5.655-0.426,12.241-6.229,11.595-12.324c-0.679-6.424-0.142-13.574,4.552-18.545
			c-3.979,0.828-7.956,1.656-11.934,2.481c10.636,6.796,24.086,14.562,27.541,27.596c1.21,4.57,6.674,4.433,10.196,3.72
			c27.598-5.575,55.779,6.601,83.334-1.301c4.145-1.188,9.211-5.655,9.622-10.229c1.661-18.489,6.931-77.187-25.194-70.245
			c-6.273,1.355-12.492,11.792-5.539,16.104c1.49,0.925,4.5,3.815,6.018,6.93c2.32,4.756,3.227,10.087,3.902,15.282
			c1.382,10.637,1.306,24.769,0.552,33.571c3.208-3.409,6.414-6.819,9.621-10.229c-12.481,3.631-26.12,1.744-38.847,0.655
			c-14.982-1.281-29.657-2.083-44.472,0.969c3.399,1.239,6.798,2.479,10.196,3.721c-4.32-16.011-20.639-25.693-33.855-33.804
			c-4.931-3.027-10.747,1.158-13.937,4.63c-8.707,9.479-12.496,22.138-10.987,34.856c3.865-4.107,7.73-8.216,11.595-12.324
			c-32.782,2.808-65.353-6.339-98.09-0.777c2.356,1.9,4.714,3.802,7.071,5.702c-1.485-20.66-3.692-39.85,0.49-60.41
			C710.219,1107.183,701.289,1109.635,699.249,1113.53L699.249,1113.53z"/>
		<path fill="#010101" d="M755.965,993.209c-3.11,9.678-2.303,18.701,6.456,24.999c8.63,6.2,18.982,8.667,29.411,9.555
			c10.733,0.913,22.604,0.9,31.16-6.509c8.038-6.958,13.743-19.839,13.933-30.432c0.226-12.549-14.727-10.457-17.515-0.422
			c-0.952,3.43-0.194,8.193-1.376,12.469c-0.602,2.177-1.636,4.49-2.824,6.407c-0.564,0.863-1.18,1.691-1.842,2.479
			c-0.753,0.952,2.456-0.89-0.588,0.177c-9.141,3.205-22.05,1.645-31.246-0.714c-11.256-2.886-19.046-7.267-21.715-19.252
			C759.313,989.701,756.318,992.108,755.965,993.209L755.965,993.209z"/>
		<path fill="#010101" d="M691.524,970.072c-10.947,0.192-21.64,8.515-29.641,15.194c-9.817,8.199-18.287,18.46-24.358,29.713
			c-1.185,2.197-1.509,5.998,0.5,7.892c9.543,9.006,24.719,10.489,32.39,21.495c2.428,3.485,7.577,0.964,10.038-0.813
			c9.797-7.071,3.419-16.73-4.317-21.447c-7.27-4.43-17.083-6.4-23.451-12.1c0.165,2.631,0.331,5.261,0.498,7.892
			c4.348-8.757,9.714-16.631,16.691-23.525c7-6.917,15.623-11.475,23.059-17.747C695.43,974.523,695.576,970.002,691.524,970.072z"
			/>
		<path fill="#010101" d="M912.977,946.186c-10.118,9.432,13.992,28.554,19.926,33.551c12.748,10.739,30.139,20.943,38.443,35.855
			c3.555-4.614,7.11-9.226,10.664-13.839c-11.036,0.453-21.568,4.29-31.483,8.904c-9.711,4.519-23.768,10.789-28.916,20.492
			c-2.561,4.827,0.567,9.18,5.653,9.247c5.005,0.063,8.579-2.813,12.651-5.344c4.01-2.496,8.096-4.851,12.258-7.082
			c8.271-4.429,16.799-7.148,26.051-8.541c6.131-0.925,15.146-9.088,9.604-15.604c-11.471-13.481-27.055-23.118-41.471-33.094
			c-7.138-4.94-14.247-10.036-20.53-16.05C923.266,952.233,917.435,942.029,912.977,946.186L912.977,946.186z"/>
		<path fill="#010101" d="M730.867,1177.514c-15.976,24.83-12.225,56.712-6.033,83.988c3.315-3.533,6.632-7.067,9.948-10.601
			c-8.821-1.396-18.658-0.792-26.216,4.444c-6.86,4.753-10.543,12.903-5.993,20.558c9.091,15.297,29.604,15.739,44.619,10.408
			c7.309-2.595,14.743-7.529,18.34-14.615c3.708-7.302,2.469-15.637,0.948-23.348c-4.151-21.084-10.208-44.502-1.58-65.419
			c4.389-10.637-10.17-10.582-13.969-2.603c-1.486,3.121-1.998,5.951-0.688,9.226c1.966,4.907,8.877,2.361,11.096-0.9
			c1.3-1.91,2.56-3.62,3.561-5.723c-4.656-0.865-9.312-1.735-13.969-2.603c-6.07,14.901-6.103,31.79-4.904,47.652
			c0.989,13.082,7.163,25.415,6.89,38.646c-0.17,8.284-17.773,8.926-23.119,8.347c-6.087-0.659-10.4-3.643-14.14-8.411
			c-0.071-1.425-0.353-1.848-0.848-1.265c-0.623,1.741,0.446,0.11,1.879-0.399c3.708-1.319,7.92-1.062,11.735-0.511
			c4.888,0.708,12.555-5.079,9.947-10.602c-11.272-23.866-10.525-50.543-2.435-75.313
			C737.007,1175.2,732.111,1175.582,730.867,1177.514L730.867,1177.514z"/>
		<path fill="#010101" d="M866.144,1186.248c-2.822,12.938-2.149,27.168-1.555,40.33c0.608,13.479,1.271,27.337,3.041,40.695
			c2.908-3.091,5.816-6.182,8.725-9.271c-9.193,0.283-18.368,3.947-23.259,12.101c-4.434,7.395-1.823,15.61,4.873,20.556
			c14.046,10.377,36.475,3.425,49.897-5.059c3.65-2.308,5.846-5.807,4.909-10.138c-4.311-19.945-9.817-38.84-9.64-59.415
			c0.051-5.985,0.103-11.971,0.154-17.956c0.033-3.856,0.752-8.521-0.573-12.232c-3.075-8.618-17.538,0.684-14.776,8.422
			c0.18,0.496,0.356,0.994,0.533,1.492c2.742,7.682,12.534,0.1,13.896-4.479c0.183-0.612,0.365-1.228,0.548-1.84
			c1.172-3.939-2.202-7.135-5.993-6.827c-4.498,0.364-7.95,3.917-9.183,8.058c-1.126,3.786-0.406,8.621-0.374,12.512
			c0.054,6.296,0.108,12.592,0.163,18.889c0.186,21.271,6.239,41.006,10.816,61.604c1.637-3.38,3.273-6.76,4.909-10.139
			c-7.491,4.784-17.262,8.202-26.236,7.739c-4.418-0.229-9.174-2.286-11.199-6.463c-1.333-2.748,6.016-2.843,7.553-2.914
			c3.971-0.18,9.59-4.838,8.726-9.271c-2.581-13.238-5.051-26.175-6.271-39.66c-1.145-12.66-0.918-26.207-4.016-38.555
			C871.023,1181.267,866.55,1184.383,866.144,1186.248L866.144,1186.248z"/>
		<path fill="#010101" d="M646.584,1029.294c-3.739,2.851-5.01,8.923-6.898,13.073c-2.736,6.013-5.748,11.907-8.809,17.758
			c-3.258,6.223-6.729,12.325-10.079,18.497c-2.9,5.343-5.081,11.848-8.548,16.802c3.898,1.355,7.796,2.711,11.694,4.066
			c1.069-2.79,4.605-13.947-2.51-12.831c-6.73,1.057-12.007,6.957-10.956,13.921c1.443,9.569,13.842,2.316,14.207-4.554
			c0.288-5.377,5.043-12.512,7.297-17.323c2.94-6.284,6.043-12.482,9.121-18.7c2.868-5.789,5.606-11.616,7.797-17.699
			c1.199-3.335,4.469-10.348,1.34-13.307C649.119,1027.938,647.664,1028.469,646.584,1029.294z"/>
		<path fill="#010101" d="M608.065,1111.507c-6.932-2.956-15.221,0.309-21.775,3.256c-3.826,1.723-8.205,4.743-9.058,9.108
			c-0.893,4.554,2.46,6.916,6.583,6.924c4.044,0.008,7.68-5.184,5.352-8.692c1.146,1.728-3.546,6.536-1.592,5.113
			c0.611-0.549,1.156-1.154,1.633-1.817c-0.816,0.839-0.896,0.953-0.238,0.344c0.637-0.497,0.627-0.508-0.031-0.031
			c0.406-0.274,0.818-0.538,1.236-0.793c1.15-0.718,2.363-1.334,3.575-1.941c2.114-1.059,4.283-2.015,6.46-2.938
			c0.959-0.409,1.941-0.754,2.914-1.126c0.629-0.211,1.217-0.506,1.76-0.882c3.387-2.11-0.734,0.084,1.168-0.657
			C607.743,1116.715,611.162,1112.828,608.065,1111.507z"/>
		<path fill="#010101" d="M613.567,1118.843c-6.633,3.254-12.714,7.647-16.695,13.995c-3.35,5.343-5.893,16.022,2.908,17.528
			c3.632,0.622,7.152-2.784,7.197-6.314c0.049-3.978-1.762-6.119,0.621-9.832c2.441-3.805,5.693-7.259,9.016-10.298
			C619.698,1121.101,617.614,1116.858,613.567,1118.843z"/>
		<path fill="#010101" d="M623.618,1127.525c-3.455,4.569-4.862,11.221-5.97,16.747c-0.89,4.43-1.508,12.689,3.141,15.197
			c3.656,1.972,8.418-1.721,9.152-5.318c0.779-3.811-0.686-8.281-0.613-12.238c0.085-4.528,1.166-9.645,0.666-14.076
			C629.584,1124.22,625.157,1125.491,623.618,1127.525z"/>
		<path fill="#010101" d="M633.747,1122.722c2.241,2.616,3.806,4.878,5.025,8.126c1.419,3.774,1.096,7.877,2.897,11.519
			c2.625,5.309,9.234,0.513,10.393-3.347c2.918-9.729-4.434-21.58-14.783-22.041
			C634.846,1116.871,631.908,1120.577,633.747,1122.722L633.747,1122.722z"/>
		<path fill="#010101" d="M659.309,1048.914c-11.254,18.253-24.49,36.272-27.88,57.989c-1.451,9.305,12.118,6.086,13.235-1.073
			c0.339-2.177,0.072-4.004-0.378-6.139c-1.472-6.991-11.851-0.125-12.648,4.076c-0.29,1.523-0.61,3.211-0.347,4.766
			c1.468,8.628,14.692,2.622,13.51-4.33c-1.486-8.743,3.814-19.437,7.23-27.193c3.901-8.863,8.32-17.489,11.943-26.472
			C665.338,1047.156,660.893,1046.343,659.309,1048.914L659.309,1048.914z"/>
		<path fill="#010101" d="M949.314,1037.799c7.535,13.682,16.703,26.132,25.141,39.251c2.52,3.919,4.894,7.925,7.116,12.017
			c2.313,4.261,1.499,9.197,1.367,13.844c-0.244,8.557-0.302,17.117-0.417,25.677c-0.127,9.332,14.806,3.837,15.498-3.132
			c0.514-5.154,2.76-11.11-2.854-14.037c-2.009-1.048-4.546-0.149-6.122,1.273c-4.652,4.199-6.08,9.811-6.523,15.896
			c5.218-1.672,10.438-3.346,15.657-5.02c-0.152-11.142-0.325-22.277-0.648-33.413c-0.046-1.591-0.958-3.269-2.421-3.982
			c-4.021-1.964-6.996-8.649-9.544-12.16c-3.501-4.824-7.24-9.474-11.002-14.096c-6.982-8.582-14.456-16.444-22.307-24.22
			C951.126,1034.573,948.531,1036.38,949.314,1037.799L949.314,1037.799z"/>
		<path fill="#010101" d="M1004.577,1107.343c-1.814,8.278,1.094,15.716,5.367,22.743c3.43,5.64,9.302,13.381,16.08,14.953
			c4.837,1.126,12.872-6.473,8.392-10.999c-4.137-4.178-9.154-7.034-13.101-11.608c-4.359-5.056-7.974-10.892-10.193-17.195
			C1009.889,1101.737,1005.084,1105.037,1004.577,1107.343z"/>
		<path fill="#010101" d="M1020.865,1106.878c4.107,5.083,8.185,10.09,12.075,15.351c3.676,4.967,7.953,13.502,14.913,12.757
			c2.474-0.264,5.182-2.313,5.579-4.896c0.629-4.073-0.481-5.346-3.288-8.202c-2.596-2.644-5.262-5.22-7.876-7.847
			c-4.733-4.755-10.023-9.73-15.837-13.134C1023.372,1099.119,1018.501,1103.953,1020.865,1106.878z"/>
		<path fill="#010101" d="M1024.927,1095.469c2.817,2.528,5.959,4.601,8.674,7.281c2.97,2.934,5.586,7.94,9.463,9.574
			c4.108,1.735,9.371-2.138,9.162-6.589c-0.243-5.26-5.029-8.698-8.858-11.696c-3.521-2.758-8.723-5.027-13.178-5.473
			C1027.453,1088.297,1021.709,1092.579,1024.927,1095.469z"/>
		<path fill="#010101" d="M955.391,1020.959c2.47,5.808,6.824,10.419,10.964,15.084c6.26,7.056,12.898,13.757,19.361,20.623
			c6.173,6.557,12.266,13.226,17.766,20.362c1.887,2.447,3.663,4.969,5.015,7.75c0.374,0.773,0.08,2.289,0.534,3.206
			c0.309,0.625,2.086,3.731,1.423,2.163c2.066,4.894,8.788,2.368,11.095-0.899c4.826-6.833,1.517-11.829-2.84-17.717
			c-5.232-7.074-11.948-13.127-18.38-19.079c-12.979-12.009-26.394-23.586-39.681-35.245
			C958.491,1015.313,954.237,1018.243,955.391,1020.959L955.391,1020.959z"/>
		<path fill="#010101" d="M769.4,564.745c-12.829-0.308-26.959,14.403-33.214,24.259c-7.388,11.645-14.584,29.725-7.776,43.065
			c4.284,8.399,16.394,1.55,17.673-5.694c1.811-10.234,1.594-20.146,6.091-29.771c2.064-4.42,5.034-8.449,8.18-12.15
			c3.673-4.322,8.692-7.107,12.352-11.414C775.704,569.51,774.036,564.857,769.4,564.745z"/>
		<path fill="#010101" d="M791.27,578.75c-14.126,3.609-23.629,13.885-29.347,27.098c-4.321,9.986-11.188,30.291-2.189,39.434
			c4.669,4.745,11.682-0.09,14.182-4.65c4.697-8.564,3.851-19.475,5.999-28.865c1.846-8.072,6.171-18.763,13.294-23.665
			C797.602,585.076,798.609,576.875,791.27,578.75L791.27,578.75z"/>
		<path fill="#010101" d="M803.31,598.739c-4.085,11.204-9.821,24.667-8.855,36.752c0.998,12.456,19.14,4.889,20.323-4.106
			c1.4-10.617-0.61-21.326,0.618-32.081C816.323,591.205,805.451,592.862,803.31,598.739z"/>
	</g>
	<g>
		<path d="M565,802.508c-0.03,3.284-0.638,6.603-1.875,9.829c-1.225,3.225-3.09,6.395-5.627,9.051
			c-2.53,2.649-5.711,4.739-9.189,5.945c-3.492,1.227-7.155,1.656-10.852,1.337c-3.533-0.304-7.103-1.421-10.274-2.937
			c-3.196-1.541-6.097-3.461-8.745-5.615c-2.643-2.163-5.034-4.64-6.926-7.576c-1.878-2.94-3.304-6.287-3.749-10.085
			c-0.467-3.603,0.078-7.662,1.722-11.148c1.583-3.55,4.171-6.535,7.105-8.933c5.911-4.818,13.399-7.387,20.965-7.216
			c3.61,0.09,7.42,0.76,10.874,2.113c3.482,1.348,6.627,3.544,9.148,6.231c2.53,2.692,4.393,5.879,5.619,9.118
			c1.237,3.244,1.827,6.576,1.804,9.877V802.508z M564,802.5c-0.016-3.137-1.193-6.211-3.148-8.548
			c-1.949-2.363-4.572-3.982-7.217-5.098c-2.66-1.129-5.381-1.785-8.047-2.318c-1.338-0.256-2.677-0.472-4.028-0.586
			c-0.676-0.053-1.353-0.078-2.028-0.109c-0.332-0.015-0.691-0.019-1.001-0.018l-1.085,0.017
			c-5.269,0.161-10.765,1.316-15.247,4.145c-2.241,1.409-4.138,3.23-5.731,5.281c-1.548,2.096-2.77,4.442-3.229,7.277
			c-0.452,2.64-0.111,5.699,1.203,8.34c1.284,2.665,3.377,4.995,5.911,6.639c2.531,1.663,5.497,2.596,8.449,2.937
			c2.977,0.374,5.846,0.171,8.742-0.128c2.733-0.324,5.509-0.809,8.166-1.472c2.669-0.676,5.354-1.438,8.005-2.605
			c2.639-1.151,5.258-2.788,7.209-5.164c1.955-2.355,3.114-5.443,3.077-8.597V802.5z"/>
	</g>
	<g>
		<path d="M505,744.509c-0.021,4.101-1.056,8.213-2.942,12.03c-1.876,3.82-4.577,7.392-7.926,10.302
			c-3.349,2.904-7.333,5.111-11.571,6.395c-4.238,1.296-8.7,1.752-13.061,1.436c-4.369-0.307-8.64-1.451-12.626-3.052
			c-3.987-1.632-7.708-3.695-11.153-6.104c-3.433-2.419-6.603-5.257-9.129-8.749c-2.505-3.47-4.392-7.666-4.83-12.267
			c-0.481-4.573,0.554-9.456,2.879-13.542c2.271-4.144,5.674-7.468,9.395-10.092c7.485-5.248,16.543-7.862,25.463-7.706
			c4.457,0.092,8.923,0.785,13.167,2.207c4.243,1.424,8.195,3.737,11.537,6.68c3.345,2.946,6.043,6.534,7.923,10.369
			c1.887,3.836,2.905,7.965,2.873,12.084V744.509z M504,744.5c-0.007-3.932-1.599-7.749-4.129-10.608
			c-2.531-2.892-5.865-4.865-9.263-6.257c-3.417-1.402-6.951-2.245-10.456-2.911c-3.513-0.663-7.082-0.968-10.652-0.884
			c-7.098,0.167-14.266,1.545-20.348,4.976c-3.022,1.714-5.652,3.952-7.792,6.535c-1.054,1.305-1.954,2.724-2.679,4.246
			c-0.701,1.529-1.21,3.173-1.443,4.903c-0.463,3.449,0.26,7.2,2.172,10.425c1.885,3.235,4.748,5.96,8.058,7.878
			c3.314,1.938,7.079,3.03,10.84,3.488c3.77,0.483,7.534,0.337,11.193,0.039c3.667-0.324,7.241-0.867,10.759-1.655
			c3.508-0.807,7.011-1.757,10.42-3.197c3.393-1.428,6.726-3.419,9.26-6.324c2.532-2.878,4.106-6.713,4.06-10.662V744.5z"/>
	</g>
	<g>
		<path d="M445,682.51c-0.008,4.743-1.583,9.439-4.146,13.577c-2.56,4.153-6.042,7.853-10.088,10.807
			c-4.054,2.944-8.671,5.127-13.499,6.384c-4.842,1.273-9.805,1.708-14.802,1.393c-4.862-0.307-9.764-1.432-14.354-3.023
			c-4.608-1.617-8.988-3.683-13.115-6.134c-4.112-2.468-7.997-5.397-11.179-9.17c-3.148-3.762-5.624-8.444-6.053-13.895
			c-0.228-2.541,0.023-5.36,0.777-7.938c0.726-2.614,1.936-5.068,3.432-7.278c2.992-4.457,7.136-7.834,11.521-10.473
			c8.831-5.255,18.986-7.741,29.006-7.6c5.009,0.093,10.027,0.764,14.859,2.161c4.832,1.396,9.423,3.686,13.47,6.668
			c4.043,2.99,7.524,6.706,10.089,10.873c2.566,4.157,4.127,8.874,4.081,13.638V682.51z M444,682.5
			c-0.027-1.126-0.144-2.25-0.377-3.349c-0.255-1.094-0.593-2.168-1.057-3.186c-0.913-2.042-2.225-3.884-3.779-5.454
			c-3.127-3.157-7.114-5.233-11.163-6.701c-4.071-1.473-8.267-2.36-12.448-3.05c-4.187-0.691-8.432-1.004-12.677-0.921
			c-8.446,0.176-16.985,1.567-24.448,5.2c-3.707,1.819-7.031,4.233-9.731,7.102c-2.646,2.919-4.632,6.316-5.084,10.41
			c-0.205,1.874-0.084,4.016,0.486,6.001c0.553,2.012,1.509,3.957,2.755,5.73c2.509,3.553,6.093,6.415,10.073,8.403
			c3.991,2.005,8.398,3.116,12.803,3.585c4.428,0.496,8.79,0.355,13.182,0.059c4.257-0.326,8.558-0.875,12.734-1.689
			c4.185-0.829,8.354-1.823,12.419-3.335c2.032-0.751,4.031-1.645,5.919-2.76c1.891-1.107,3.691-2.419,5.244-4.007
			c3.118-3.134,5.206-7.485,5.148-12.049V682.5z"/>
	</g>
</g>
<g id="Layer_3_copy_2">
	<g>
		<path d="M614.558,407.87c-4.801,3.879-9.808,7.422-14.936,10.787c-5.123,3.375-10.39,6.52-15.753,9.526
			c-10.749,5.974-21.938,11.265-33.816,15.464c-2.969,1.06-5.987,2.037-9.072,2.894c-3.083,0.862-6.217,1.674-9.445,2.307
			c-6.465,1.213-13.221,2.134-20.766,1.387c-3.761-0.399-7.796-1.172-11.911-3.063c-4.086-1.836-8.253-5.046-11.013-9.219
			c-1.396-2.055-2.433-4.273-3.17-6.459c-0.735-2.186-1.144-4.359-1.371-6.429c-0.466-4.158-0.14-7.965,0.455-11.519
			c1.244-7.092,3.623-13.288,6.349-19.13c2.753-5.827,5.84-11.303,9.099-16.606c6.552-10.578,13.556-20.568,20.297-30.676
			c3.389-5.042,6.771-10.07,10.076-15.147c1.672-2.525,3.342-5.052,4.988-7.594l4.957-7.615c3.283-5.083,6.581-10.205,9.737-15.315
			c3.161-5.101,6.143-10.332,9.111-15.537c2.937-5.23,5.764-10.509,8.563-15.77c2.776-5.276,5.471-10.569,8.123-15.833l3.894-7.901
			c1.263-2.638,2.513-5.265,3.728-7.889c2.399-5.257,4.647-10.523,6.453-15.762c1.808-5.209,3.214-10.468,3.716-15.116
			c0.257-2.3,0.25-4.438-0.026-5.991c-0.13-0.779-0.336-1.385-0.511-1.811c-0.187-0.42-0.358-0.636-0.492-0.762
			c-0.137-0.126-0.249-0.188-0.483-0.311c-0.233-0.116-0.602-0.28-1.152-0.466c-1.107-0.366-2.935-0.64-5.043-0.64
			c-4.262-0.032-9.462,0.772-14.672,1.974c-5.246,1.214-10.622,2.831-16.02,4.614c-5.393,1.808-10.782,3.88-16.184,6.026
			c-10.775,4.367-21.512,9.23-32.146,14.399c-10.63,5.184-21.179,10.664-31.559,16.479c-5.19,2.906-10.319,5.926-15.348,9.095
			c-2.509,1.591-5.011,3.201-7.406,4.938c-2.397,1.73-4.763,3.516-6.864,5.552l-1.873-1.334c0.699-1.437,1.532-2.787,2.41-4.094
			c0.878-1.309,1.794-2.587,2.771-3.808c1.945-2.446,3.974-4.818,6.091-7.089c4.231-4.55,8.736-8.792,13.356-12.888
			c9.266-8.163,19.085-15.631,29.294-22.567c10.219-6.926,20.828-13.331,31.971-19.011c5.561-2.867,11.278-5.5,17.176-7.916
			c5.894-2.433,11.991-4.58,18.449-6.262c6.482-1.641,13.262-2.962,21.075-2.789c3.906,0.133,8.139,0.616,12.727,2.259
			c2.287,0.824,4.646,2.002,6.885,3.613c2.237,1.6,4.327,3.656,5.966,5.966c1.649,2.306,2.847,4.811,3.646,7.237
			c0.799,2.428,1.207,4.79,1.404,7.006c0.379,4.447-0.032,8.376-0.672,12.028c-1.35,7.277-3.682,13.563-6.234,19.577
			c-5.187,11.95-11.438,22.747-18.362,33.013c-1.716,2.572-3.518,5.079-5.306,7.583c-1.817,2.486-3.667,4.941-5.526,7.38
			c-3.709,4.885-7.554,9.648-11.417,14.372c-3.827,4.751-7.768,9.391-11.625,14.091l-5.742,7.007
			c-1.858,2.358-3.748,4.697-5.546,7.101c-1.816,2.391-3.616,4.793-5.353,7.24c-1.764,2.428-3.475,4.892-5.146,7.38
			c-3.388,4.948-6.57,10.031-9.564,15.217c-6.006,10.349-11.134,21.231-15.185,32.313c-2.017,5.534-3.824,11.093-5.19,16.597
			c-0.666,2.755-1.303,5.465-1.729,8.135c-0.488,2.651-0.747,5.262-0.882,7.691c-0.101,2.426,0.033,4.693,0.393,6.514
			c0.383,1.842,0.989,3.107,1.618,3.936c0.643,0.824,1.396,1.457,2.773,2.14c1.363,0.65,3.284,1.23,5.501,1.52
			c4.461,0.575,9.832,0.368,15.243-0.351c2.718-0.353,5.487-0.772,8.267-1.311c2.776-0.545,5.579-1.14,8.393-1.782
			c11.247-2.637,22.595-6.043,33.984-9.598c11.403-3.557,22.826-7.39,34.479-11.017L614.558,407.87z"/>
	</g>
	<g>
		<path d="M592.068,494.227c-0.084,2.213-0.821,4.447-1.865,6.429c-1.054,1.999-2.383,3.858-3.832,5.671
			c-2.912,3.605-6.371,7.063-10.254,9.881c-3.881,2.82-8.216,4.799-12.679,5.743c-4.466,0.944-9.041,1.005-13.489,0.204
			c-4.456-0.767-8.779-2.464-12.889-4.312c-4.114-1.893-8.029-3.869-11.947-5.657c-3.913-1.833-7.85-3.503-11.808-5.984
			c-1.964-1.259-3.988-2.706-5.834-4.802c-0.917-1.05-1.775-2.275-2.479-3.703c-0.688-1.428-1.209-3.062-1.418-4.779
			c-0.464-3.46,0.398-7.093,1.816-9.955c1.423-2.896,3.296-5.229,5.278-7.162c3.988-3.883,8.478-6.199,12.908-8.112
			c8.871-3.771,18.11-5.736,27.291-5.274c4.573,0.236,9.147,0.93,13.6,2.255c4.446,1.357,8.701,3.691,12.517,6.677
			c3.811,3.009,7.198,6.58,10.023,10.315c1.402,1.877,2.678,3.816,3.633,5.901c0.951,2.078,1.532,4.356,1.428,6.63l-0.001,0.015
			V494.227z M589.77,494.125c0.025-1.762-0.74-3.462-1.959-4.753c-1.222-1.305-2.844-2.242-4.607-2.832
			c-3.547-1.2-7.545-1.085-11.298-0.76c-3.776,0.325-7.383,0.804-10.881,0.919c-3.495,0.087-6.96,0.151-10.429,0.296l-10.301,0.38
			c-3.401,0.145-6.795,0.404-9.998,0.99c-1.601,0.289-3.146,0.666-4.6,1.1c-1.458,0.419-2.846,0.85-4.109,1.283
			c-1.26,0.437-2.378,0.873-3.28,1.267c-0.892,0.415-1.585,0.677-2.146,1.257c-0.543,0.56-0.86,1.599-0.511,2.909
			c0.332,1.294,1.204,2.723,2.406,3.931c2.414,2.456,5.862,4.242,9.513,5.093c3.674,0.874,7.62,0.752,11.45,0.101
			c3.838-0.608,7.554-1.676,11.14-2.352c3.593-0.712,7.069-1.104,10.577-1.225c3.504-0.129,7.074,0.193,10.845,0.526
			c1.886,0.171,3.806,0.283,5.727,0.229c1.926-0.042,3.834-0.292,5.637-0.845c1.793-0.556,3.455-1.465,4.726-2.757
			C588.932,497.595,589.747,495.942,589.77,494.125z"/>
	</g>
</g>
</svg>
