<?xml version="1.0" encoding="utf-8"?>
<!-- Generator: Adobe Illustrator 24.1.1, SVG Export Plug-In . SVG Version: 6.00 Build 0)  -->
<svg version="1.1" id="Capa_1" xmlns="http://www.w3.org/2000/svg" xmlns:xlink="http://www.w3.org/1999/xlink" x="0px" y="0px"
	 viewBox="0 0 390.45 390.45" style="enable-background:new 0 0 390.45 390.45;" xml:space="preserve">
<style type="text/css">
	.st0{fill:none;stroke:#000000;stroke-width:3;stroke-miterlimit:10;}
</style>
<g>
	<path d="M116.25,184.24c-2.16-1.02-4.35-1.53-6.56-1.53c-2.37,0-6.29,0.15-11.77,0.46c-2.75,0.25-4.84,0.47-6.25,0.66
		c0.36-4.39,2.99-8.29,7.88-11.72c3.22-2.15,6.43-4.32,9.65-6.5c3.4-2.48,5.88-5.04,7.45-7.66c2.01-3.28,3.01-7.27,3.01-11.96
		c0-4.64-2.05-8.39-6.14-11.26c-3.58-2.51-7.59-3.77-12.04-3.77c-3.58,0-7.04,0.98-10.38,2.94c-2.32,1.35-5.03,3.51-8.14,6.46
		c-1.29,1.21-1.93,2.66-1.93,4.35c0,1.57,0.64,2.8,1.93,3.68c1.03,0.72,2.23,1.08,3.59,1.08c1.13,0,3.22-1.3,6.27-3.91
		c3.05-2.61,5.94-3.91,8.67-3.91c1.54,0,3.13,0.52,4.75,1.55s2.43,2.08,2.43,3.13c0,4.03-2.03,7.63-6.1,10.81
		c-3.45,2.43-6.91,4.87-10.38,7.33c-3.68,2.68-6.34,5.36-7.99,8.03c-2.14,3.48-3.2,7.8-3.2,12.96c0,2.65,0.26,4.61,0.77,5.88
		c0.82,2.02,2.39,3.02,4.71,3.02c0.28,0,0.69,0.06,1.23,0.17c0.54,0.11,0.95,0.17,1.24,0.17c1,0,2.5-0.13,4.48-0.39
		c1.98-0.26,3.46-0.39,4.44-0.39l11.35,0.04c0.59,0,1.56,0.12,2.91,0.35c1.35,0.24,2.35,0.35,2.99,0.35c1.49,0,2.74-0.58,3.74-1.74
		c0.95-1.08,1.43-2.33,1.43-3.77C120.26,187.14,118.92,185.51,116.25,184.24z"/>
	<path d="M159.48,162.92c-0.54,0-1.33,0.03-2.37,0.08s-1.82,0.08-2.34,0.08c-0.31,0-0.76-0.01-1.35-0.04l-0.04-2.9
		c0-0.47,0.04-1.17,0.13-2.09c0.09-0.92,0.13-1.61,0.13-2.05c0-1.38-0.5-2.52-1.5-3.42c-1-0.9-2.19-1.35-3.55-1.35
		c-3.47,0-5.21,2.76-5.21,8.28c0,0.52,0.01,1.2,0.04,2.03c0.03,0.83,0.04,1.38,0.04,1.66c-1.91,0.11-3.59,0.17-5.06,0.17
		c-2.47,0-4.16,0.18-5.06,0.54c-1.65,0.66-2.47,2.07-2.47,4.22c0,1.68,0.89,2.98,2.66,3.89c1.42,0.72,3.04,1.08,4.86,1.08
		c1.44,0,3.13-0.06,5.06-0.17c0.05,5.11,0.08,7.48,0.08,7.12c0,1.41,0.47,2.57,1.41,3.5c0.94,0.93,2.11,1.39,3.51,1.39
		c1.4,0,2.57-0.45,3.51-1.36c0.94-0.91,1.41-2.06,1.41-3.44c0-0.49,0.01-1.68,0.04-3.58c0.03-1.49,0.03-2.7,0-3.62
		c0.73,0,1.77-0.02,3.13-0.06c1.36-0.04,2.39-0.06,3.09-0.06c0.34,0,0.81,0.05,1.42,0.15c0.61,0.1,1.07,0.15,1.38,0.15
		c1.43,0,2.62-0.52,3.58-1.56c0.88-0.99,1.32-2.16,1.32-3.51C167.35,164.63,164.73,162.92,159.48,162.92z"/>
	<path d="M212.75,184.24c-2.16-1.02-4.35-1.53-6.56-1.53c-2.37,0-6.29,0.15-11.77,0.46c-2.75,0.25-4.84,0.47-6.25,0.66
		c0.36-4.39,2.99-8.29,7.88-11.72c3.22-2.15,6.43-4.32,9.65-6.5c3.4-2.48,5.88-5.04,7.45-7.66c2.01-3.28,3.01-7.27,3.01-11.96
		c0-4.64-2.05-8.39-6.14-11.26c-3.58-2.51-7.59-3.77-12.04-3.77c-3.58,0-7.04,0.98-10.38,2.94c-2.32,1.35-5.03,3.51-8.14,6.46
		c-1.29,1.21-1.93,2.66-1.93,4.35c0,1.57,0.64,2.8,1.93,3.68c1.03,0.72,2.23,1.08,3.59,1.08c1.13,0,3.22-1.3,6.27-3.91
		c3.05-2.61,5.94-3.91,8.67-3.91c1.54,0,3.13,0.52,4.75,1.55s2.43,2.08,2.43,3.13c0,4.03-2.03,7.63-6.1,10.81
		c-3.45,2.43-6.91,4.87-10.38,7.33c-3.68,2.68-6.34,5.36-7.99,8.03c-2.14,3.48-3.2,7.8-3.2,12.96c0,2.65,0.26,4.61,0.77,5.88
		c0.82,2.02,2.39,3.02,4.71,3.02c0.28,0,0.69,0.06,1.23,0.17c0.54,0.11,0.95,0.17,1.24,0.17c1,0,2.5-0.13,4.48-0.39
		c1.98-0.26,3.46-0.39,4.44-0.39l11.35,0.04c0.59,0,1.56,0.12,2.91,0.35c1.35,0.24,2.35,0.35,2.99,0.35c1.49,0,2.74-0.58,3.74-1.74
		c0.95-1.08,1.43-2.33,1.43-3.77C216.76,187.14,215.42,185.51,212.75,184.24z"/>
	<path d="M256.08,153.23l-17.5-0.04h-1.16c-0.6-0.03-1.05-0.04-1.35-0.04c-4.95,0-7.42,1.67-7.42,5.01c0,1.35,0.45,2.5,1.35,3.44
		s2.05,1.41,3.45,1.41c0.57,0,1.42-0.03,2.55-0.08c1.13-0.06,1.97-0.08,2.55-0.08h17.54c1.4,0,2.55-0.46,3.47-1.37
		c0.91-0.91,1.37-2.06,1.37-3.44c0-1.38-0.46-2.53-1.37-3.44C258.64,153.69,257.48,153.23,256.08,153.23z"/>
	<path d="M255.94,173.44c-1.7,0-4.25-0.03-7.64-0.1c-3.4-0.07-5.94-0.1-7.64-0.1c-2.14,0-4.55,0.1-7.26,0.29
		c-3.17,0.22-4.75,1.82-4.75,4.8c0,1.44,0.48,2.59,1.45,3.48c0.96,0.88,2.18,1.33,3.65,1.33c0.77,0,1.92-0.05,3.46-0.14
		c1.53-0.1,2.68-0.15,3.45-0.15c1.7,0,4.25,0.04,7.64,0.1c3.4,0.07,5.94,0.1,7.64,0.1c1.44,0,2.63-0.46,3.57-1.37
		c0.94-0.91,1.41-2.06,1.41-3.44s-0.47-2.53-1.41-3.44S257.38,173.44,255.94,173.44z"/>
	<path d="M314.72,167.64c-1.13-0.63-3.38-1.01-6.75-1.12l-0.04-31.13c0-1.79-0.66-3.19-1.97-4.18c-1.11-0.83-2.42-1.24-3.94-1.24
		c-3.22,0-5.83,1.43-7.84,4.31c-8.49,12.53-14.81,21.97-18.95,28.32c-1.21,1.46-2.41,2.91-3.59,4.35c-1.44,1.88-2.16,3.57-2.16,5.09
		c0,3.62,4.13,5.42,12.39,5.42h15.4v9.89c-0.18,5.52,1.69,8.28,5.6,8.28c1.54,0,2.77-0.5,3.67-1.49c0.9-0.99,1.36-2.25,1.39-3.77
		c0.1-4.64,0.12-8.94,0.04-12.92c2.42,0.11,4.32-0.12,5.71-0.7c1.98-0.85,2.96-2.43,2.93-4.72
		C316.61,169.85,315.98,168.39,314.72,167.64z M297.28,166.52h-11.54c5.2-8.17,9.04-14.37,11.54-18.59V166.52z"/>
	<path d="M355.28,35.25c-35.74,0-71.48,0-107.21,0c-57,0-114,0-171,0c-13.13,0-26.26,0-39.39,0c-3.24,0-6,3.02-6,6.6
		c0,28.24,0,56.49,0,84.73c0,44.99,0,89.98,0,134.96c0,10.29,0,20.58,0,30.86c0,3.57,2.75,6.6,6,6.6c35.74,0,71.48,0,107.21,0
		c57,0,114,0,171,0c13.13,0,26.26,0,39.39,0c1.84,0,3.24-0.75,4.2-1.89c1.08-1.06,1.8-2.63,1.8-4.7c0-28.24,0-56.49,0-84.73
		c0-44.99,0-89.98,0-134.96c0-10.29,0-20.58,0-30.86C361.28,38.28,358.54,35.25,355.28,35.25z M248.07,285.81c-57,0-114,0-171,0
		c-11.13,0-22.26,0-33.39,0c0-26.04,0-52.09,0-78.13c0-44.99,0-89.98,0-134.96c0-8.09,0-16.18,0-24.27c33.74,0,67.48,0,101.21,0
		c57,0,114,0,171,0c11.13,0,22.26,0,33.39,0c0,26.04,0,52.09,0,78.13c0,44.99,0,89.98,0,134.96c0,8.09,0,16.18,0,24.27
		C315.55,285.81,281.81,285.81,248.07,285.81z"/>
	<path d="M355.28,324.05c-35.74,0-71.48,0-107.21,0c-57,0-114,0-171,0c-13.13,0-26.26,0-39.39,0c-7.72,0-7.73,12,0,12
		c35.74,0,71.48,0,107.21,0c57,0,114,0,171,0c13.13,0,26.26,0,39.39,0C363.01,336.05,363.02,324.05,355.28,324.05z"/>
</g>
</svg>
