<?xml version="1.0" encoding="utf-8"?>
<!-- Generator: Adobe Illustrator 24.1.1, SVG Export Plug-In . SVG Version: 6.00 Build 0)  -->
<svg version="1.1" id="Capa_1" xmlns="http://www.w3.org/2000/svg" xmlns:xlink="http://www.w3.org/1999/xlink" x="0px" y="0px"
	 viewBox="0 0 387.45 259.2" style="enable-background:new 0 0 387.45 259.2;" xml:space="preserve">
<g>
	<path d="M294.16,213.97H141.81c-1.14-23.44-13.63-45.08-33.39-57.82L184.6,24.2c0.97-1.67,0.39-3.81-1.28-4.78
		c-1.67-0.97-3.81-0.39-4.78,1.28L65.94,215.72c-0.63,1.08-0.63,2.42,0,3.5c0.63,1.08,1.78,1.75,3.03,1.75h69.43h155.76
		c1.93,0,3.5-1.57,3.5-3.5S296.1,213.97,294.16,213.97z M75.04,213.97l29.88-51.75c17.61,11.48,28.77,30.81,29.89,51.75H75.04z"/>
	<path d="M198.31,186.93l18.88,14.85l13.44-19.91l-3.32-2.24l-8.82,13.08c-5.96-36.37-24.75-68.88-53.38-92.37l15.75-1.09
		l-0.28-3.99l-23.96,1.67l3.41,23.78l3.96-0.56l-2.32-16.16c27.94,22.81,46.24,54.49,51.95,89.92l-12.84-10.1L198.31,186.93z"/>
	<path d="M230.42,139.11c3.63,0,6.55-1.16,8.73-3.48c2.07-2.22,3.11-5.06,3.11-8.52c0-3.33-0.98-5.93-2.94-7.8s-4.73-2.8-8.3-2.8
		c-0.56,0-1.17,0.07-1.83,0.21s-1.38,0.36-2.16,0.67c0.59-1.23,1.54-2.49,2.85-3.78c1.17-1.07,2.35-2.15,3.54-3.24
		c1.66-1.59,2.47-2.74,2.45-3.46c-0.03-0.76-0.34-1.41-0.94-1.94c-0.6-0.54-1.29-0.81-2.08-0.81c-0.69,0-1.55,0.47-2.6,1.4
		c-0.74,0.7-1.49,1.41-2.23,2.12c-5.92,5.11-8.88,11.15-8.88,18.11c0,3.72,0.77,6.72,2.32,9.01
		C223.38,137.68,226.37,139.11,230.42,139.11z M225.12,124.17c1.19-0.71,2-1.17,2.45-1.35c0.84-0.34,1.79-0.52,2.85-0.52
		c1.99,0,3.48,0.4,4.46,1.2s1.48,2,1.48,3.61c0,2.07-0.49,3.71-1.48,4.91c-1.03,1.26-2.48,1.89-4.36,1.89
		c-1.83,0-3.2-0.68-4.12-2.03c-0.92-1.35-1.37-3.38-1.37-6.08C225.03,125.3,225.06,124.76,225.12,124.17z"/>
	<path d="M257.14,138.4c4.35,0,7.61-1.6,9.79-4.79c2.17-3.19,3.26-7.98,3.26-14.36c0-3.95-0.95-7.32-2.85-10.11
		c-2.26-3.3-5.44-4.96-9.53-4.96c-4.32,0-7.73,1.85-10.21,5.56c-2.08,3.09-3.11,6.68-3.11,10.77c0,4.79,0.79,8.71,2.36,11.74
		C248.97,136.35,252.4,138.4,257.14,138.4z M252.2,113.23c1.4-2.3,3.26-3.46,5.58-3.46c2.13,0,3.73,0.85,4.8,2.55
		c1.07,1.7,1.6,4.26,1.6,7.68c0,4.28-0.59,7.49-1.76,9.63s-2.93,3.21-5.28,3.21c-2.8,0-4.74-1.52-5.79-4.57
		c-0.66-1.89-0.99-4.58-0.99-8.07C250.36,117.56,250.97,115.23,252.2,113.23z"/>
	<path d="M283.96,118.42c3.32,0,5.81-0.81,7.47-2.42c1.66-1.62,2.49-4.03,2.49-7.25c0-1.55-1-3.2-2.98-4.96
		c-2.05-1.8-4.07-2.71-6.07-2.73c-2.5-0.03-4.85,0.89-7.03,2.76c-2.18,1.87-3.27,3.87-3.27,6c0,2.03,0.83,3.92,2.49,5.67
		C278.91,117.44,281.21,118.42,283.96,118.42z M281.76,107.77c0.81-0.74,1.64-1.1,2.5-1.1c1.09,0,2,0.26,2.75,0.79
		c0.62,0.44,0.92,0.87,0.92,1.29c0,1.14-0.35,2.17-1.05,3.09c-0.74,0.96-1.62,1.44-2.64,1.44c-0.99,0-1.85-0.35-2.59-1.04
		c-0.74-0.69-1.1-1.5-1.1-2.41C280.55,109.19,280.95,108.5,281.76,107.77z"/>
</g>
</svg>
