<?xml version="1.0" encoding="utf-8"?>
<!-- Generator: Adobe Illustrator 24.1.1, SVG Export Plug-In . SVG Version: 6.00 Build 0)  -->
<svg version="1.1" id="Capa_1" xmlns="http://www.w3.org/2000/svg" xmlns:xlink="http://www.w3.org/1999/xlink" x="0px" y="0px"
	 viewBox="0 0 390.45 390.45" style="enable-background:new 0 0 390.45 390.45;" xml:space="preserve">
<style type="text/css">
	.st0{fill:none;stroke:#000000;stroke-width:3;stroke-miterlimit:10;}
</style>
<g>
	<path d="M153.55,146.97c-3.17,0.7-6.09,2.41-9.11,3.57c-2.79,1.08-6.11,1.69-8.51,3.52c-0.95,0.72-0.92,2.21,0.34,2.6
		c5.97,1.83,15.43-2.64,19.06-7.37C156.24,148.11,154.74,146.71,153.55,146.97z"/>
	<path d="M113.32,143.26c0.37-1.25-1.15-1.89-2.02-1.17c-4.24,3.48-7.78,6.6-13.61,6.98c-3.09,0.2-6.91-0.34-9.09-2.84
		c-1.51-1.96-1.86-4.02-1.04-6.18c3.26-5.86,5.04-5.53,5.33,0.98c-1.54,0.04-1.44,2.13,0,2.32c5.31,0.7,7.35-5.58,3.63-8.97
		c-5.06-4.6-11.47,0.92-12.59,6.24C80.68,156.18,109.72,155.42,113.32,143.26z"/>
	<path d="M110.4,151.34c-3.32,2.99-5.87,6.69-9.3,9.6c-2.93,2.49-11.92,8.91-13.2,0.5c-0.04-0.26-0.37-0.33-0.57-0.23
		c-1.73,0.91-1.76,2.67-0.87,4.33c1.38,2.59,4.45,2.99,7.1,2.58c7.33-1.11,15.47-9.13,18.29-15.67
		C112.24,151.53,111.22,150.6,110.4,151.34z"/>
	<path d="M110.5,167.97c1.37-2.67,2.98-5.21,4.45-7.83c2.38-4.26,5.4-9.06,5.16-14.11c-0.05-0.94-1.51-1.56-1.96-0.53
		c-1.72,3.92-2.82,7.96-4.96,11.73c-1.89,3.32-3.98,6.52-5.69,9.94c-2.12,4.26-4.91,11.15,0.04,14.63
		c3.49,2.45,9.38,0.56,10.67-3.61c1.07-3.49-2.25-7.01-5.6-5.05c-0.98,0.57-0.29,1.92,0.73,1.74c-0.21,5.09-1.44,6.3-3.69,3.66
		c-2.26-1.04-2.72-2.87-1.38-5.5C108.7,171.29,109.69,169.55,110.5,167.97z"/>
	<path d="M200.85,109.25c-0.4,0.83,0.6,1.7,1.31,1.01c2.39-2.33,4.73-4.6,7.48-6.13c0.27-0.09,0.53-0.21,0.77-0.39
		c0.01-0.01,0.01-0.02,0.02-0.02c1.76-0.86,3.69-1.41,5.9-1.47c7.88-0.24,12.42,5.77,12.79,13.13c0.5,9.95-4.78,29.9-18.51,25.51
		c-2.58-0.83-3.68,3.23-1.12,4.05c16.99,5.46,24.7-20.06,22.39-32.3c-1.58-8.38-8.42-12.73-15.48-12.84c-0.6-0.5-1.4-0.79-2.11-1.18
		c-1.17-0.64-2.4-1.23-3.54-1.9c-0.43-0.26-1,0.27-0.71,0.71c0.73,1.11,1.46,2,2.48,2.76c-1.51,0.32-2.98,0.83-4.37,1.55
		c-0.4-0.1-0.81-0.2-1.21-0.34c-1.38-0.49-2.6-1.24-4.01-1.6c-0.32-0.08-0.68,0.22-0.56,0.56c0.51,1.53,1.67,2.47,3.13,3.11
		C203.64,104.93,202.03,106.85,200.85,109.25z"/>
	<path d="M225.63,144.2c-2.92,2.85-4.4,7.29-5.32,11.16c-0.15,0.63,0.8,1.11,1.1,0.46c1.69-3.65,4.05-7.15,5.38-10.94
		C227.04,144.2,226.11,143.74,225.63,144.2z"/>
	<path d="M227.93,152.45c2.49-3.41,5.49-6.87,7.21-10.75c0.34-0.76-0.51-1.5-1.17-0.91c-3.23,2.9-5.27,7.2-7,11.09
		C226.68,152.54,227.51,153.03,227.93,152.45z"/>
	<path d="M209.25,121.07c0.84-0.5,1.03-1.2,1.42-2.07c0.47-1.05,1.02-2.09,1.69-3.03c1.3-1.85,3.13-3.2,4.48-5
		c0.26-0.34-0.09-0.94-0.51-0.89c-2.54,0.27-4.46,2.09-5.89,4.1c-1.12,1.57-3.18,4.82-1.9,6.7
		C208.7,121.11,209,121.22,209.25,121.07z"/>
	<path d="M280.13,309.38c-0.44-1.76-2.55-2.48-4.02-1.63c-0.21,0.07-0.42,0.15-0.62,0.26c-0.34,0.1-0.66,0.24-1,0.41
		c0.28-0.12,0.56-0.24,0.84-0.35c-0.76,0.31-1.14,0.5-1.76,1.01c0.23-0.17,0.45-0.35,0.68-0.52c-0.7,0.49-1.39,0.99-1.6,1.89
		c-0.55,2.32,1.35,4.55,3.73,4.52c2.66-0.03,4.95-2.96,3.79-5.47C280.14,309.45,280.14,309.41,280.13,309.38z M275.82,307.92
		C275.82,307.92,275.82,307.92,275.82,307.92c0.01,0,0.01,0,0.02,0C275.83,307.92,275.82,307.92,275.82,307.92z"/>
	<path d="M272.85,276c-0.48-0.83-1.22-1.34-2.11-1.63c-1.09-0.36-2.37,0.05-3.16,0.84c-0.29,0.29-0.49,0.63-0.65,0.99
		c-0.44,0.5-0.82,1.19-0.75,1.88c0.03,0.32,0.05,0.67,0.15,0.97c0.1,0.31,0.23,0.58,0.38,0.84c0,0,0,0,0,0
		c0,0.01,0.01,0.01,0.01,0.02c0.12,0.19,0.26,0.37,0.43,0.56c0.04,0.05,0.07,0.09,0.11,0.14c0.3,0.32,0.65,0.55,1.06,0.68
		c0.61,0.26,1.5,0.43,2.14,0.17c0.73-0.31,1.13-0.44,1.71-1.02c0.44-0.44,0.83-1.07,0.99-1.67
		C273.39,277.8,273.35,276.87,272.85,276z"/>
	<path d="M259.65,341.33c-0.32-0.04-0.25-0.04-0.42-0.05c-0.27-0.01-0.51,0.05-0.74,0.13c0.02-0.01,0.05-0.02,0.07-0.03
		c-0.05,0.02-0.1,0.04-0.15,0.06c-0.06,0.02-0.12,0.04-0.18,0.07c-0.16,0.06-0.31,0.12-0.44,0.2c-0.44,0.26-0.8,0.65-1.08,1.08
		c-0.16,0.26-0.25,0.52-0.31,0.8c0,0,0,0,0,0.01c0-0.01,0-0.01,0-0.02c0,0.01-0.01,0.03-0.01,0.04c-0.28,0.61-0.34,1.4-0.17,2.01
		c0.19,0.69,0.72,1.44,1.37,1.78c0.69,0.36,1.53,0.55,2.29,0.3c0.24-0.1,0.47-0.2,0.71-0.3c0.45-0.26,0.8-0.62,1.07-1.07
		c0.07-0.09,0.11-0.17,0.16-0.27c0.15-0.3,0.31-0.63,0.37-0.96c0.19-1,0.07-2.21-0.77-2.92
		C260.85,341.7,260.35,341.42,259.65,341.33z M257.43,342.04c0.17-0.13,0.34-0.26,0.51-0.39c0.07-0.03,0.14-0.06,0.2-0.09
		C257.89,341.69,257.66,341.85,257.43,342.04z"/>
	<path d="M231.91,335.09c-0.04-0.1-0.08-0.19-0.13-0.29c-0.02-0.03-0.03-0.06-0.05-0.09c-0.03-0.06-0.06-0.13-0.1-0.19
		c-0.23-0.38-0.53-0.69-0.91-0.91c-0.29-0.19-0.61-0.29-0.95-0.3c-0.34-0.08-0.68-0.06-1.02,0.05c-0.05,0.01-0.09,0.04-0.14,0.06
		c-0.15,0.03-0.29,0.08-0.42,0.16c-0.13,0.05-0.25,0.1-0.38,0.16c-0.19,0.15-0.39,0.3-0.58,0.45c-0.22,0.21-0.38,0.45-0.5,0.72
		c-0.23,0.34-0.37,0.73-0.43,1.13c-0.02,0.14-0.02,0.28-0.01,0.42c-0.01-0.03-0.02-0.05-0.03-0.08c0.01,0.07,0.02,0.14,0.03,0.22
		c0,0.04,0.01,0.08,0.02,0.12c0.02,0.12,0.03,0.23,0.05,0.35c0.01,0.02,0.02,0.04,0.03,0.07c0.11,0.41,0.31,0.79,0.64,1.07
		c0.18,0.18,0.39,0.34,0.62,0.47c0.37,0.22,0.85,0.36,1.3,0.39c0.24,0.03,0.48,0.03,0.72-0.03c0.38-0.02,0.74-0.13,1.07-0.34
		c0.62-0.4,1.15-0.98,1.32-1.72c0.12-0.49,0.17-1.08,0.01-1.56C232.02,335.31,231.96,335.2,231.91,335.09z"/>
	<path d="M153.31,345.79c0.13,0.23,0.31,0.41,0.54,0.54c0.48,0.37,1.19,0.71,1.83,0.65c0.77-0.08,1.11-0.12,1.81-0.49
		c0.34-0.18,0.65-0.43,0.92-0.71c0.85-0.89,1.23-2.11,0.91-3.33c-0.1-0.38-0.24-0.77-0.47-1.09c-0.16-0.21-0.33-0.42-0.49-0.64
		c-0.28-0.31-0.62-0.52-1.01-0.65c-0.24-0.14-0.51-0.21-0.79-0.21c-0.42-0.09-0.83-0.07-1.25,0.06c-0.52,0.17-0.98,0.44-1.39,0.81
		c-0.31,0.28-0.52,0.62-0.65,1.01c-0.08,0.14-0.12,0.3-0.17,0.45c0-0.01,0-0.01,0-0.02c0,0.02-0.01,0.04-0.02,0.06
		c-0.01,0.04-0.03,0.09-0.04,0.13c-0.04,0.12-0.07,0.24-0.1,0.37c-0.07,0.15-0.13,0.3-0.17,0.45c-0.04,0.27-0.07,0.53-0.11,0.8
		c-0.02,0.41,0.07,0.8,0.26,1.16C153,345.38,153.12,345.6,153.31,345.79z"/>
	<path d="M121.26,347.38c-0.03-0.06,0.34,0.49,0.52,0.66c0.23,0.22,0.48,0.43,0.75,0.59c0.27,0.16,0.6,0.31,0.89,0.39
		c0.04,0.01,0.07,0.02,0.11,0.03c0.23,0.05,0.65,0.12,0.88,0.12c0.56-0.02,1.14-0.14,1.63-0.42c0.42-0.23,0.69-0.52,0.97-0.88
		c0.49-0.63,0.69-1.3,0.75-2.1c-0.03-0.25-0.07-0.51-0.1-0.76c-0.09-0.37-0.26-0.7-0.51-0.98c-0.23-0.29-0.5-0.54-0.82-0.73
		c-0.7-0.54-1.59-0.7-2.43-0.35c-0.03,0.01-0.06,0.03-0.09,0.05c-0.78-0.01-1.53,0.25-2.11,0.83c-0.36,0.36-0.61,0.79-0.74,1.28
		c-0.14,0.51-0.14,1.03,0,1.54C121,346.84,121.16,347.19,121.26,347.38z"/>
	<path d="M109.67,306.67c-0.37-0.05-0.74-0.04-1.1,0.06c-0.34,0.09-0.8,0.29-1.02,0.57c-0.01,0.02-0.02,0.04-0.03,0.05
		c-0.01,0.01-0.02,0.02-0.03,0.02c-0.32,0.32-0.54,0.71-0.67,1.15c-0.12,0.46-0.12,0.92,0,1.38c0.05,0.17,0.1,0.35,0.15,0.52
		c0.25,0.73,0.72,1.42,1.42,1.78c0.87,0.45,1.85,0.5,2.71,0c0.8-0.47,1.36-1.38,1.33-2.32c-0.03-0.98-0.44-1.76-1.15-2.4
		C110.81,307.06,110.32,306.75,109.67,306.67z"/>
	<path d="M125.77,268.31c-0.63-1.13-2.44-1.46-3.33-0.43c-0.03,0.04-0.06,0.08-0.09,0.12c-0.31,0.16-0.6,0.37-0.82,0.64
		c-0.09,0.1-0.19,0.18-0.29,0.27c-0.05,0.04-0.1,0.08-0.15,0.11c-0.16,0.1-0.31,0.23-0.44,0.36c-0.01,0.01-0.02,0.02-0.03,0.02
		c0,0,0,0,0.01,0c-0.69,0.73-1.04,1.84-0.74,2.76c0.46,1.41,1.98,2.47,3.49,1.98c1.05-0.34,1.72-0.93,2.33-1.82
		c0.11-0.16,0.2-0.32,0.28-0.49c0.38-0.81,0.43-1.59,0.16-2.38C126.09,269.07,125.99,268.69,125.77,268.31z"/>
	<path d="M143.95,236.33c-0.64-0.27-1.42-0.28-2.02,0.11c-0.39,0.25-0.75,0.51-1.03,0.88c-0.44,0.57-0.55,1.21-0.55,1.91
		c0,1.04,0.76,2.13,1.8,2.37c0.43,0.1,0.87,0.1,1.31,0c0.65-0.15,1.09-0.62,1.47-1.13c0.34-0.46,0.6-1,0.57-1.59
		c-0.02-0.38-0.1-0.73-0.23-1.08C145.02,237.12,144.63,236.62,143.95,236.33z"/>
	<path d="M279.14,246.16c-5.71-12.31-15.72-21.99-28.93-25.78c-19.3-5.54-43.74,3.85-49.66,22.85c-0.8-3.35-1.4-6.75-1.83-10.11
		c-0.08-1.78-0.14-3.57-0.14-5.36c0-3.88,1.02-8.6,0.65-12.74c0.17-1.97,0.34-3.93,0.47-5.9c0.63-9.25,1.09-18.48,1.53-27.74
		c0.73-15.26,4.02-32.35-2.11-46.87c-4.62-10.97-16.69-18.97-28.02-21.53c-11.58-2.62-23.85-0.52-34.02,5.3
		c-2.99,1.24-5.89,3.74-7.93,5.52c-3.07,2.67-6.78,6.41-7.77,10.49c-0.02,0.07-0.02,0.13-0.03,0.19c-0.1-0.02-0.2-0.03-0.3-0.05
		c-2.92-0.55-5.42-0.84-5.98-4.02c-0.66-3.73,2.31-7.2,4.39-10.21c3.56-5.17,7.39-10.09,10.44-15.6c1.83-3.31,4.28-7.47,3.87-11.4
		c0.31-3.62-0.09-7.48-0.13-10.75c-0.05-4.72,0.34-9.42,1.53-14c1.24-4.78,4.2-9.12,5.16-13.86c0.25-1.21-0.85-1.99-1.84-1.63
		c-0.19-0.3-0.45-0.56-0.83-1c-1.41-1.63-2.62-3.08-3.21-5.22c-1.11-3.99,0.72-7.06,2.37-10.53c0.38-0.79-0.43-1.83-1.29-1.29
		c-3.75,2.34-4.86,7.41-4.11,11.55c0.44,2.4,2.39,7.14,5.2,8.13c-0.37,0.41-0.72,0.85-1.05,1.31c-0.65-0.26-1.29-0.53-1.84-0.88
		c-1.77-1.12-3.58-2.78-4.85-4.44c-0.26-0.34-0.95-0.17-0.77,0.33c0.86,2.38,2.04,4.12,4.07,5.67c0.58,0.44,1.3,0.96,2.08,1.38
		c-2.97,5.38-4.29,12.74-4.76,17.93c-0.39,4.32-0.04,8.79,0.09,13.13c0.12,4.05-1.28,7.26-2.1,10.85c-0.15,0.36-0.31,0.72-0.49,1.07
		c-1.77,3.5-3.93,6.79-6.19,9.99c-3.7,5.27-10.37,12.2-10.41,19.01c-0.03,5.08,3.93,7.3,8.3,8.38c2.22,0.55,5.13,1.15,8.04,1.35
		c-0.4,2.91,0.25,6.18,0.13,9.06c-0.18,4.28-0.75,8.52-0.68,12.82c0.09,5.33,0.23,11.52,5.18,14.73c4.73,3.07,11.55,2.46,16.88,2.26
		c1.67-0.06,3.88-0.03,6.18-0.15c2.31,8.06-1.53,16.09-2.46,24.06c-4.8-0.65-9.8-0.18-14.62-0.15c-5.57,0.03-11.15-0.09-16.69,0.62
		c-9.14,1.16-17.19,5.18-23.4,12.02c-6.09,6.7-10.4,14.89-13.84,23.19c-2.19,5.28-3.99,10.71-5.89,16.1
		c-1.72,4.89-3.85,9.64-4.48,14.83c-0.12,1,1.31,1.46,1.94,0.8c5.84-6.16,8.03-15.81,10.99-23.58c3.47-9.12,7.13-18.32,13.58-25.8
		c6.44-7.47,14.19-11.65,24.11-12.14c9.56-0.47,19.87,1.21,29.29-0.52c0.54,0.19,1.17,0.12,1.65-0.37c3.66-3.8,4.5-11.17,5.22-16.17
		c0.61-4.18,1.06-9.28-0.2-13.52c2.04-0.45,3.87-1.19,5.12-2.43c0.96-0.95,0.51-2.64-0.79-3c-3.65-1-9.07,0.78-12.79,1.09
		c-5.04,0.42-12.93,1.98-17.51-1.02c-5.2-3.4-2.79-14.68-2.69-20.01c0.07-3.73,0.76-8.94-0.78-12.71c2.02-0.15,3.89-0.6,5.34-1.56
		c1-0.66,0.75-2.01-0.32-2.42c-2.76-1.06-6.07-0.92-9.28-0.93c2.11-2.9,4.18-5.48,7.17-7.7c1.71-1.27,3.88-2.22,5.88-3.32
		c4.51-1.56,9.11-2.87,13.78-3.65c4.05,0.38,8.1,0.25,12,1.81c4.21,1.68,7.83,4.87,10.75,8.28c7.46,8.72,8.87,20.97,9.3,32.02
		c0.51,13.22,0.56,26.48,0.83,39.71c0.14,6.98,0.39,13.94,0.57,20.91c0.1,3.75,0.11,7.56,0.34,11.34c-0.42,3.03-0.98,6.07-1.7,9.07
		c-4.99-15.95-23.03-25.3-40.18-24.42c-12.74,0.65-24.73,7.21-32.48,17.3c-4.51,5.88-7.29,12.85-9.93,19.72
		c-2.99,7.78-5.62,15.72-7.89,23.75c-4.23,15-8.91,31.99-6.08,47.63c2.37,13.11,10.7,27.91,22.38,34.84
		c5.78,3.43,12.23,4.9,18.85,5.59c7.48,0.77,15.07,1.37,22.56,0.36c6.45-0.87,12.75-3.03,17.81-7.23c4.87-4.05,7.62-9.75,9.74-15.61
		c2.76-7.62,3.62-15.88,4.76-23.86c1.2-8.41,2.28-16.83,3.08-25.3c1.1-11.75,2.79-24.51,1.47-36.49c1.36-3.3,2.34-6.79,3.1-10.21
		c0.27-1.2,0.49-2.4,0.68-3.62c0.2,1.21,0.42,2.42,0.69,3.62c0.77,3.44,1.74,6.95,3.12,10.27c-1.02,9.82,0.12,20.08,0.88,29.78
		c1.2,15.4,3.04,30.89,5.89,46.07c2.33,12.43,7.44,24.6,19.76,29.85c6.68,2.85,14.17,3.48,21.36,3.21
		c6.91-0.26,14.28-0.57,20.96-2.47c13.85-3.94,22.99-15.23,28.49-28.1c6.35-14.86,3.89-30.5,0.4-45.76
		C290.67,276.52,285.9,260.72,279.14,246.16z M182.33,251.77c-2.04,5.7-5.19,11.22-9.05,15.89c-1.96,2.36-4.03,4.65-6.34,6.67
		c-0.26,0.23-0.53,0.45-0.8,0.66c-1.08-0.16-2.25-0.1-3.49-0.4c-4.29-1.05-6-4.11-7.82-7.76c-0.42-0.84-0.9-1.73-1.46-2.61
		c0.28-0.26,0.5-0.63,0.62-1.12c0.83-3.33,1.54-6.68,2.22-10.05c0.53-2.62,1.07-5.17,0.21-7.77c-0.36-1.08-1.2-1.65-2.3-1.75
		c-2.7-0.25-2.19,2.94-2.2,4.66c-0.02,3.95-1.26,8.08-2.02,12.04c-0.81-0.6-1.69-1.03-2.65-1.23c-3.97-2.64-9.96-3.15-14-1.87
		c-3.53,1.12-2.08,6.24,1.52,5.51c2.52-0.51,4.79-0.61,7.28,0.13c1.44,0.43,2.66,1.22,3.93,1.92c2.07,1.57,3.33,3.41,4.84,5.98
		c-1.24-0.07-2.51,0.05-3.84,0.12c-2.61,0.13-5.22,0.28-7.81,0.65c-1.61,0.23-2.01,1.8-1.55,3.07c-0.05-0.04-0.09-0.07-0.14-0.11
		c0.11,0.72,0.72,1.28,1.41,1.57c0.02,0.01,0.03,0.01,0.05,0.02c0.09,0.03,0.17,0.06,0.26,0.09c0.06,0.02,0.13,0.04,0.2,0.05
		c0.14,0.03,0.28,0.04,0.41,0.05c2.58,0.02,5.15-0.23,7.72-0.44c2.08-0.17,4.18-0.14,6.01-1.17c0.86,0.97,1.82,1.86,2.96,2.62
		c0.97,0.65,2.45,1.41,4.06,1.97c-0.27,0.24-0.53,0.48-0.78,0.74c-0.34,0.35-0.52,0.74-0.57,1.12c-2.29,1.98-4.45,4.09-6.44,6.41
		c-2.42,0.7-4.63,1.78-7.39,1.74c-4.18-0.07-8.21-1.47-12.35-1.88c-6.47-0.63-13.25,1.35-15.87,7.83c-0.68,1.69,1.44,2.67,2.73,2.1
		c4.19-1.87,6.55-4.63,11.57-4.59c4.38,0.04,8.63,1.57,13.02,1.74c0.99,0.04,2.15-0.01,3.34-0.16c-2.21,3.5-4.1,7.21-5.63,11.04
		c-4.04,3.97-7.02,8.49-12.17,11.55c-3.03,1.8-6.27,3.18-9.57,4.42c-2.67,1.01-5.13,1.36-7.06,3.52c-0.83,0.93-0.47,2.31,0.71,2.7
		c6.15,2.06,15.76-4,20.58-7.52c1.17-0.85,2.37-1.77,3.54-2.76c-1.03,3.89-1.73,7.85-1.68,11.78c0.02,1.61,2.42,2.45,3.19,0.86
		c3.22-6.63,4.54-13.96,7.4-20.77c2.57-6.14,5.58-12.13,9.81-17.3c0.74,3.04,1.94,5.92,2.65,9.04c1.05,4.61,0.34,9.48,2.39,13.81
		c0.41,0.86,1.54,0.64,2,0c3.17-4.4,1.87-10.27,0.62-15.19c-0.71-2.79-1.9-5.46-2.53-8.26c-0.38-1.68-0.23-2.98-0.69-4.13
		c3.77-3.51,7.98-6.51,12.06-9.68c1.65-1.28,3.92-2.87,6.05-4.67c0.97-0.65,1.88-1.49,2.71-2.41c-0.78,17.67-1.73,35.22-4.75,52.82
		c-1.84,10.7-2.94,25.2-11.98,32.67c-4.88,4.03-11.18,5.52-17.37,5.93c-6.82,0.45-14.16,0.36-20.91-0.79
		c-6.24-1.06-12.4-2.74-17.34-6.9c-4.81-4.07-8.43-9.6-11.39-15.12c-7.57-14.1-5.39-29.32-2.1-44.34
		c2.91-13.29,7.26-26.22,12.22-38.88c4.84-12.34,11.17-23.02,23.96-28.25c10.45-4.27,22.33-3.65,32.55,0.98
		c9.08,4.12,15.26,11.58,18.1,20.78C182.92,250.05,182.63,250.91,182.33,251.77z M197.03,190.36c-0.63,1.53-2.29,4.12-4.32,3.93
		c-0.44,0.1-0.96-0.05-1.24-0.43c-0.06-0.09-0.11-0.17-0.17-0.25c-0.77-0.74-1.27-1.96-1.65-3.06c-0.19-0.51-0.37-1.03-0.52-1.6
		c-0.32-1.21,1.51-2.06,2.07-0.87c0.13,0.28,0.34,0.86,0.61,1.41c0.13-2.61-0.04-5.33,0.16-7.83c0.24-2.92,0.6-5.85,1.22-8.72
		c0.14-0.64,1.02-0.43,1.07,0.14c0.27,3.35,0.21,6.78-0.04,10.13c-0.18,2.4-0.71,5.02-0.85,7.54c0.65-0.17,1.19-0.96,1.8-1.47
		C195.92,188.65,197.5,189.23,197.03,190.36z M194.41,160.78c-0.62,0.45-1.43,0.06-1.81-0.47c-1.26-1.78-3.28-3.9-3.51-6.13
		c-0.07-0.66,0.72-0.93,1.22-0.7c1.2,0.58,2.19,1.86,3.06,3.16c-0.3-3.68-0.54-7.36-1.5-10.95c-1.23-4.61-3.45-8.66-5.73-12.81
		c-0.33-0.6,0.46-1.22,0.95-0.73c5.83,5.79,9.56,15.56,8.42,24.01c0.87-0.93,1.76-1.82,2.9-2.32c0.37-0.16,0.75,0.03,0.78,0.45
		C199.38,157.11,196.48,159.27,194.41,160.78z M291.11,328.33c-3.06,12.63-12.37,26.79-25.21,30.82
		c-5.29,1.66-10.86,2.36-16.39,2.55c-7.1,0.25-14.65,0.58-21.49-1.64c-11.77-3.81-16.22-15.16-18.24-26.44
		c-2.63-14.68-4.7-29.41-5.92-44.28c-0.53-6.43-0.72-12.86-0.88-19.3c0.9,1.02,1.9,1.95,2.97,2.66c2.12,1.79,4.37,3.36,6,4.63
		c4.6,3.58,9.4,6.95,13.51,11.08c-0.27,2.15-0.15,4.45-0.56,6.55c-0.58,3.02-1.5,5.96-1.93,9.01c-0.67,4.77-0.45,10.47,3.98,13.31
		c1.47,0.94,2.88-0.61,2.66-2.04c-0.86-5.61-1.55-9.78-0.3-15.47c0.38-1.72,0.86-3.52,1.19-5.33c3.18,4.52,5.63,9.49,7.77,14.6
		c2.86,6.81,4.18,14.15,7.4,20.77c0.77,1.59,3.17,0.74,3.19-0.86c0.05-3.95-0.66-7.91-1.71-11.8c1.18,1,2.39,1.93,3.56,2.78
		c4.88,3.56,14.4,9.6,20.58,7.52c1.19-0.4,1.55-1.77,0.71-2.7c-1.91-2.14-4.42-2.53-7.06-3.52c-3.3-1.23-6.54-2.62-9.57-4.42
		c-5.15-3.06-8.14-7.59-12.19-11.57c-1.53-3.83-3.41-7.54-5.62-11.03c1.18,0.15,2.34,0.19,3.34,0.16c4.13-0.16,8.11-1.45,12.23-1.69
		c5.43-0.32,7.85,2.53,12.35,4.54c1.28,0.57,3.41-0.42,2.73-2.1c-2.62-6.49-9.39-8.46-15.87-7.83c-4.13,0.4-8.18,1.85-12.35,1.88
		c-2.76,0.02-4.97-1.05-7.39-1.74c-1.99-2.32-4.16-4.42-6.44-6.4c-0.05-0.38-0.23-0.77-0.58-1.12c-0.25-0.26-0.51-0.49-0.77-0.74
		c1.61-0.56,3.09-1.32,4.05-1.97c1.13-0.76,2.09-1.65,2.95-2.62c1.83,1.03,3.93,1,6.02,1.17c2.57,0.21,5.14,0.46,7.72,0.44
		c0.96-0.01,2.17-0.74,2.33-1.77c0.21-1.37-2.28-2.9-3.43-3.21c-1.49-0.4-3.44-0.27-4.96-0.35c-1.65-0.09-3.31-0.3-4.93-0.2
		c1.54-2.59,2.77-4.41,4.82-5.97c1.27-0.7,2.5-1.49,3.93-1.92c2.5-0.75,4.76-0.64,7.28-0.13c3.59,0.72,5.05-4.39,1.52-5.51
		c-4.04-1.28-10.04-0.77-14,1.87c-0.95,0.2-1.84,0.63-2.65,1.23c-0.76-3.96-2-8.09-2.02-12.04c-0.01-1.73,0.5-4.91-2.2-4.66
		c-1.11,0.1-1.94,0.68-2.3,1.75c-0.86,2.6-0.32,5.15,0.21,7.77c0.68,3.37,1.39,6.71,2.22,10.05c0.12,0.49,0.35,0.85,0.62,1.12
		c-0.55,0.88-1.04,1.77-1.46,2.61c-1.66,3.36-3.34,6.41-7.17,7.6c-1.17,0.36-2.38,0.35-3.53,0.47c-2.53-2.04-5.06-4.08-7.25-6.66
		c-4.11-4.83-7.39-10.52-9.55-16.48c-0.3-0.83-0.59-1.68-0.86-2.53c5.56-17.35,23.8-27.39,42.14-24.22
		c12.59,2.18,22.36,9.7,28.2,20.96c6.37,12.28,10.69,26.24,14.28,39.56C290.43,298.94,294.46,314.53,291.11,328.33z"/>
	<path d="M318.74,262.14c-7.96-18.81-16.24-40.4-32.17-54.09c-7.54-6.48-16.03-9.84-25.9-10.84c-10.45-1.06-22.63-1.26-32.4,3.3
		c0-0.04,0.02-0.07,0.02-0.11c1.65-22.91,6.23-44.84,18.76-64.41c5.13-8.01,8.21-15.91,10.21-25.21c1.74-8.12,3.46-18.09,1.75-26.52
		c0.15-14.68-4.27-31.84-16.01-39.81c-11.06-7.5-26.45-4.31-38.87-7.62c-7.85-2.09-13.79-6.83-21.08-9.98
		c-5.77-2.49-12.24-3.22-18.48-2.85c-12.63,0.75-23.95,7.71-24.14,21.46c-0.02,1.64,2.3,1.54,2.49,0
		c2.3-18.79,25.58-21.66,39.91-14.86c6.65,3.16,12.37,7.24,19.55,9.32c6.88,1.99,13.88,2.48,20.99,2.91
		c11.63,0.71,20.37,3.84,25.98,14.26c4.52,8.38,5.5,17.6,6.04,26.88c-1.12,9.65-1.07,19.22-3.19,28.84
		c-2.27,10.33-7.59,17.87-12.9,26.75c-10.51,17.58-16.19,40.42-16.07,60.84c0.01,1.79,1.43,2.57,2.77,2.42
		c0.11,0.75,0.69,1.45,1.57,1.46c10.5,0.08,20.7-2.14,31.27-1.01c10.03,1.08,18.79,4.47,26.05,11.58
		c13.39,13.13,21.3,32.59,28.31,49.63C314.84,268.51,320.47,266.22,318.74,262.14z"/>
	<path d="M146.99,101.86c-2.9-0.55-5.46-1.96-8.41-2.26c-1.1-0.11-1.8,1.31-1.25,2.18c3.39,5.32,14.18,7.07,19.2,3.38
		c0.87-0.64,0.96-2.29-0.33-2.55C153.13,101.98,150.06,102.44,146.99,101.86z"/>
	<path d="M138.59,78.69c-0.46,0.15-0.94,0.52-1.03,1.03c-0.03,0.16-0.06,0.33-0.09,0.49c-0.22,1.2,0.19,2.05,1.13,2.77
		c2.89,2.22,6.62,2.4,10.13,2.58c1.77,0.09,3.57,0.14,5.26,0.74c1.92,0.68,3.03,2.07,4.65,3.18c1.43,0.98,3.14-0.35,3.23-1.85
		c0.27-4.62-4.93-6.63-8.73-7.17c-2.65-0.38-5.34-0.04-7.98-0.4C142.89,79.74,140.86,77.96,138.59,78.69z"/>
	<path d="M146.65,54.02c3.68,3.65,8.83,5.83,13.61,7.68c7.3,2.82,16.81,4.44,20.2,12.4c2.76,6.47,3.02,13.85,5.74,20.38
		c1.36,3.27,3.74,5.17,5.57,8.14c2.15,3.51,2.7,7.65,3.64,11.57c0.38,1.59,3.13,1.29,2.92-0.39c-0.42-3.39-1.05-6.84-2.44-9.98
		c-1.56-3.55-4.52-5.81-6.31-9.17c-3.83-7.18-3.42-15.98-7.18-23.16c-3.21-6.13-9.47-8.17-15.62-10.3
		c-3.44-1.19-6.92-2.36-10.25-3.84c-3.12-1.39-5.95-3.35-9.13-4.6C146.66,52.43,146.14,53.51,146.65,54.02z"/>
	<path d="M147.51,46.61c0.94-1.75,1.62-3.6,2.56-5.35c0.95-1.77,2.12-3.41,3.06-5.18c0.27-0.51-0.28-1.12-0.81-0.81
		c-3.59,2.11-6.05,7.03-5.51,11.15C146.85,46.75,147.31,46.97,147.51,46.61z"/>
</g>
</svg>
