<?xml version="1.0" encoding="utf-8"?>
<!-- Generator: Adobe Illustrator 24.1.1, SVG Export Plug-In . SVG Version: 6.00 Build 0)  -->
<svg version="1.1" id="Capa_1" xmlns="http://www.w3.org/2000/svg" xmlns:xlink="http://www.w3.org/1999/xlink" x="0px" y="0px"
	 viewBox="0 0 390.45 390.45" style="enable-background:new 0 0 390.45 390.45;" xml:space="preserve">
<g>
	<path d="M235.79,321.66c3.16-2.05,6.11-4.63,5.82-8.41c-0.61-7.88-10.71-12.78-18.68-12.38c3.14-2.96,5.28-6.8,6-11.27
		c1.14-7.08-2.23-13.51-5.5-19.58c0.77-0.34,1.55-0.72,2.22-1.2c10.62-5.24,18.09-17.65,19.39-28.98c1.71-14.98-5.7-29.28-18-37.64
		c-3.84-2.61-7.67-4.87-9.81-9.18c-2.11-4.25-2.55-9.13-2.66-13.79c-0.23-9.59-0.12-19.19-0.25-28.79
		c-0.21-15.48-2.94-30.37-15.33-40.86c-6.23-5.28-13.89-8.91-22.06-9.79c-9.36-1.02-18.99,2.59-27.97,5.09
		c0.21-1.18,0.06-2.47,0.04-3.68c-0.05-2.62,0.41-5.05,0.59-7.63c0.02-0.27-0.06-0.5-0.19-0.69c0.05-0.61-0.33-1.25-1.12-1.28
		c-3.66-0.1-8.63,0.44-11.1-3.02c-3.28-4.6,0.92-9.27,4.56-12.02c4.46-3.37,11.58-5.35,13.15-11.4c0.04-0.15,0.04-0.29,0.02-0.44
		c3.54-7.72,4.86-18.6,10.86-25.21c0.46-0.13,0.92-0.35,1.37-0.69c0.29-0.22,0.44-0.64,0.37-0.99c0.95-0.8,1.99-1.5,3.16-2.09
		c2.15-1.08-0.28-4.47-2.04-2.65c-1.21,1.26-2.39,2.44-3.51,3.64c-1.55-0.64-2.75-1.72-3.72-3.3c-1.31-2.13-1.47-4.39-2.01-6.76
		c-0.12-0.52-0.8-0.53-1.07-0.14c-2.19,3.28,0.7,10.78,4.62,12.68c-1.35,1.65-2.58,3.41-3.62,5.5c-2.92,5.87-5.54,12.78-6.53,19.3
		c-2.07,2.48-4.05,4.68-6.89,6.35c-2.12,1.25-4.34,2.24-6.31,3.75c-3.25,2.48-6.85,6.16-6.85,10.54
		c-0.01,7.32,7.37,10.73,13.82,9.71c-0.53,1.77-0.49,3.76-0.35,5.58c0.13,1.67,0.12,3.98,0.79,5.69c-0.65,0.71-0.27,2.12,0.89,2.11
		c7.83-0.01,14.99-3.46,22.7-4.32c7.84-0.87,16.07,1.87,22.57,6.17c14.26,9.43,17.21,24.92,17.51,40.86
		c0.16,8.62-0.05,17.25,0.09,25.87c0.1,6.02,0.35,12.43,2.89,17.99c2.93,6.41,8.61,8.82,14.01,12.72
		c5.51,3.99,9.59,9.86,11.98,16.24c-5.14,0.8-10.96,2.79-15.52,5.34c-4.12-10.86-17.22-7.97-23.07-0.34
		c-0.75-3.24-1.16-6.51-1.24-9.92c-0.05-2.28-3.62-2.29-3.55,0c0.12,3.98,0.65,7.82,1.63,11.61c-3.28-3.53-9.17-4.6-13.58-2.85
		c-5.3,2.11-7.68,7.32-7.11,12.79c0.03,0.32,0.08,0.64,0.13,0.96c-4.53,2-8.89,4.53-13.02,7.23c-2.18,1.42-4.46,2.96-6.08,4.99
		c1.01-14.22,12.14-26.19,20.33-37.16c9.41-12.61,14.22-25.77,14.2-41.61c-0.01-8.07-0.7-16.24-1.64-24.25
		c-0.71-6.07-1.65-12.27-4.08-17.91c-5.9-13.67-21.47-18.62-35.44-17.85c-0.59,0.03-0.93,0.59-0.87,1.08
		c-0.24-0.02-0.49,0.07-0.66,0.34c-4.39,6.63-8.55,18.23,0.97,22.21c2.79,1.17,5.69,0.81,8.51,1.69c4.14,1.3,3.9,4.89,4.02,8.69
		c0.18,5.56-0.16,11.21-1.11,16.7c-2.7,7.27-9.84,7.88-17.07,9.66c-6.5,1.59-12.84,4.39-18.1,8.59
		c-12.24,9.77-15.19,27.63-18.74,41.95c-4.33,17.45-7.58,35.14-10.28,52.91c-1.27,8.4-2.4,16.82-3.44,25.25
		c-0.55,4.46-1.03,8.93-1.53,13.39c-0.52,4.67-1.59,9.67-1.01,14.35c0.08,0.61,0.84,0.74,1.07,0.14c1.69-4.39,1.86-9.5,2.5-14.15
		c0.61-4.45,1.26-8.9,1.88-13.34c1.28-9.23,2.61-18.45,4.08-27.65c2.83-17.74,6.26-35.39,10.81-52.77
		c4.31-16.43,8.63-35.55,26.16-42.41c7.43-2.91,28.42-3.7,27.01-15.49c0.74-4.65,1.09-9.36,1.08-14.07
		c-0.01-3.42,0.56-9.79-1.75-12.74c-3.54-4.52-11.59-0.81-15.54-5.03c-4.46-4.76,2.36-12.2,1.82-17.52
		c7.35,1.7,14.91,1.79,21.77,5.32c7.38,3.81,11.33,10.87,13.14,18.74c1.82,7.88,2.32,16.33,2.81,24.38
		c0.53,8.58,0.59,17.49-1.34,25.91c-3.85,16.74-16.58,27.54-25.48,41.45c-6.96,10.87-11.14,24.68-4.7,36.82
		c5.54,10.43,17.65,13.37,28.6,11.32c2.94-0.19,5.84-0.8,8.7-1.51c3.39,2.29,6.72,4.56,9.67,7.42c2.52,2.45,3.79,6.13-0.63,7.6
		c-1.54,0.51-3.2,0.74-4.79,1.08c-8.43,1.79-16.87,3.54-24.88,6.8c-8.18,3.34-20.08,8.69-25.1,17.09
		c-3.48,4.2-5.77,10.44-6.48,14.86c-1.14,7.06,0.9,13.96,7.98,16.71c3.34,1.3,6.85,1.61,10.33,1.24c-1.24,1.64-0.94,4.09,0.24,5.97
		c2.86,4.58,10.31,5.89,15.19,6.23c5.99,0.42,11.78-0.97,17.12-3.62c-2.08,2.81,1.89,6.97,4.69,8.21c3.42,1.52,7.32,1.77,10.95,0.97
		c3.2-0.71,6.29-2.29,9.65-0.87c1.58,0.67,2.78,2.44,4.33,3.26c2.09,1.1,3.9,0.92,5.96-0.13c2.42-1.23,6.13-3.08,7.58-5.5
		c2.94-4.91-2.27-10.52-6.42-13.87c6.73-3.61,13.62-11.01,15.72-17.04C248.44,327.97,242.97,320.8,235.79,321.66z M233.05,227.9
		c1.8-0.62,3.64-1.16,5.45-1.78c-2.56,4.8-7.97,8.67-13.22,11.62c0.17-2.3,0.03-4.59-0.44-6.73
		C227.61,230.11,230.29,228.85,233.05,227.9z M184.27,230.42c5.53-3.25,9.83,0.4,14.26,3.3c0.24,0.16,0.46,0.16,0.65,0.08
		c0.81,1,2.51,0.81,2.97-0.58c1.61-4.89,6.19-8.55,11.46-8.44c6.99,0.15,8.76,6.42,8.43,12.22c-0.05,0.88-0.16,1.76-0.29,2.63
		c-0.94,0.48-1.84,0.92-2.7,1.34c-8.6,4.16-17.62,5.67-27.07,6.38c-2.27,0.17-5.31,0.25-8.67,0.45c-0.54-0.97-1.03-1.96-1.46-2.93
		C179.76,240.06,178.93,233.56,184.27,230.42z M220.82,243.61c-1.02,3.14-2.69,6.04-5.21,8.25c-3.64,3.2-7.63,3.01-12,4.18
		c-4.82,1.29-8.54,2.65-13.19-0.23c-1.96-1.21-3.66-2.94-5.09-4.88c8.2-0.53,16.46-1.02,24.41-3.23
		C213.53,246.65,217.25,245.28,220.82,243.61z M168.1,248.68c3.19-1.93,6.5-3.61,9.79-5.33c0.46,1.6,1.11,3.17,1.91,4.68
		c-5.41,0.45-11.2,1.34-15.71,3.4C165.37,250.47,166.68,249.53,168.1,248.68z M238.87,340.34c-4.31,4.88-10.09,7.5-14.7,11.85
		c-0.8,0.76,0.05,1.93,1.01,1.74c0.63-0.13,1.28-0.32,1.93-0.55c3.67,3.21,9.83,8.28,4.82,12.49c-1.77,1.49-5.32,3.45-7.63,2.58
		c-1.56-0.58-2.86-2.44-4.4-3.21c-3-1.51-5.96-0.68-9.02,0.23c-5.67,1.68-15.61,2.02-15.06-6.23c0.01-0.16-0.07-0.29-0.17-0.39
		c5.7-2.92,11.99-6.35,16.44-10.73c0.52-0.52-0.01-1.47-0.73-1.25c-7.69,2.32-13.95,8.07-21.27,11.29
		c-4.56,2.01-9.55,2.83-14.52,2.33c-5.03-0.51-14.52-2.36-11.96-9.53c0-0.01,0-0.02,0.01-0.03c3.97-0.8,7.83-2.4,11.26-4.39
		c8.44-4.9,17.13-11.8,24.18-18.49c1.2-1.14-0.38-3.27-1.8-2.33c-11.9,7.89-22.19,21.2-37.46,22.33c-3.9,0.29-8.95-0.29-11.81-3.31
		c-3-3.17-2.83-8.31-1.98-12.27c0.69-3.21,2-6.26,3.64-9.1c0.35-0.6,0.73-1.17,1.14-1.74c4.72-5.23,9.56-9.66,16.03-13.13
		c9.03-4.84,18.76-7.54,28.68-9.87c4.18-0.98,14.95-1.71,15.36-7.92c0.19-2.82-2.42-5.03-4.23-6.81c-2.39-2.34-5.05-4.54-7.91-6.35
		c2.18-0.58,4.35-1.36,5.82-3.04c0.21-0.24,0.17-0.72-0.21-0.78c-2.88-0.5-5.59,0.78-8.35,1.54c-0.47,0.13-0.95,0.24-1.43,0.37
		c-0.17-0.14-0.39-0.22-0.63-0.21c-7.53,0.52-15.17,2.66-22.59,0.23c-6.88-2.25-11.15-8.12-12.59-14.91
		c3.76-8.19,14.43-9.08,23-9.59c1.65,2.34,3.63,4.43,5.76,6.08c5.73,4.46,10.43,3.62,16.96,1.81c6.73-1.87,12.3-2.51,16.59-8.69
		c1.71-2.47,2.98-5.52,3.69-8.73c1.95-1.07,3.85-2.23,5.68-3.5c3.57-2.47,8.56-5.68,10.74-9.84c1.72,7.77,0.65,15.74-2.83,22.95
		c-3.15,6.54-7.87,11.03-13.43,15.05c-1.38,0.46-2.74,1.38-3.98,1.93c-2.12,0.93-4.64,1.33-6.57,2.6c-0.83,0.55-0.46,1.71,0.49,1.8
		c2.19,0.2,4.52-0.83,6.56-1.71c0.12,2.32,1.28,4.27,2.36,6.53c2,4.18,3.08,8.29,1.85,12.94c-2.27,8.62-10.36,12.08-18.21,14.17
		c-13.23,3.53-28.33,7.45-35.9,20.15c-0.79,1.33,0.98,2.56,2.07,1.6c7.2-6.32,13.48-12.23,22.84-15.27
		c7.18-2.33,14.89-3.08,21.64-6.66c0.15-0.08,0.28-0.16,0.43-0.24c3.76-0.14,7.26-0.61,10.95,0.67c2.5,0.87,5.01,2.31,6.81,4.27
		c3.3,3.59,0.88,7.68-2.6,10c-7.25,4.82-15.38,8.61-22.33,13.81c-0.73,0.55-0.35,1.87,0.66,1.58c6.97-2.03,13.45-6.22,19.51-10.12
		c0.66-0.43,1.41-0.87,2.18-1.33c0.05,0.12,0.14,0.22,0.27,0.29c2.55,1.46,5.9,1.11,8.1,3.37
		C246.28,331.06,241.87,336.94,238.87,340.34z"/>
	<path d="M290.51,203.4c-2.29-13.08-6.72-27.36-18.13-35.34c-5.78-4.04-12.19-5.08-19.12-5.18c-7.28-0.11-16.08,0.13-20.6-5.94
		c-3.74-8.05-4.13-17.48-4.19-26.21c-0.07-9.2,2.27-17.74,3.4-26.74c0.01-0.06-0.01-0.11-0.01-0.17
		c4.67-7.38,7.91-16.08,11.36-24.07c2.63-6.11,5.1-12.28,5.67-18.97c1.02-11.82-4.32-23.92-13.47-31.39
		c-5.26-4.29-11.39-6.74-17.82-8.72c-7.92-2.44-15.9-4.9-23.91-7.03c-5.18-1.38-11.16-2.26-15.64,1.47
		c-4.02,3.35-4.55,9.35-1.6,13.56c0.4,0.57,1.22,0.34,1.28-0.35c0.28-3.23-0.37-7,2.06-9.61c2.73-2.94,7.53-2.49,11.02-1.74
		c5.97,1.3,11.85,3.39,17.72,5.11c11.42,3.35,23,6.27,30.24,16.49c6.2,8.74,8.2,19.55,5.26,29.86
		c-3.42,11.98-10.09,22.82-13.76,34.67c-0.14,0.08-0.27,0.19-0.35,0.34c-4.15,8.02-4.26,19.21-4.3,28.03
		c-0.04,9.46,1.35,19.03,4.54,27.94c0.31,0.86,0.97,1.19,1.63,1.17c5.64,6.11,17.66,5.36,25.25,5.79
		c18.72,1.06,26.47,19.16,29.61,35.19c3.33,17.01,2.76,34.49,2.27,51.72c-0.5,17.58-1.01,35.15-1.49,52.73
		c-0.06,2.3,3.51,2.3,3.58,0c0.52-17.58,1.02-35.15,1.52-52.73C292.98,236.64,293.39,219.87,290.51,203.4z"/>
	<path d="M261.54,223.83c-2.33,20.03-1.86,40.71-2.35,60.86c-0.5,20.24-1.37,40.63-0.88,60.88c0.04,1.78,2.69,1.78,2.76,0
		c0.8-20.26,0.53-40.6,0.96-60.88c0.42-20.18,2.17-40.69,1.36-60.86C263.34,222.61,261.67,222.67,261.54,223.83z"/>
	<path d="M139.98,215.16c-2.97,6.2-3.26,14.41-4.36,21.17c-1.3,8-2.46,16.01-3.57,24.03c-2.08,14.93-5.28,30.55-4.81,45.65
		c0.02,0.53,0.81,0.67,0.95,0.13c3.72-14.91,4.43-30.79,6.8-45.97c1.2-7.66,2.51-15.32,3.84-22.96c1.18-6.76,3.83-14.62,3.3-21.47
		C142.05,214.7,140.51,214.03,139.98,215.16z"/>
	<path d="M216.4,291.62c3.96,0.23,5.65-4.32,5.53-7.58c-0.11-2.86-3.19-7.67-6.58-5.39c-0.13,0.09-0.24,0.19-0.34,0.31
		c-0.55-0.24-1.2-0.18-1.74,0.25c-1.4,1.12-1.06,3.43-1.08,4.99C212.17,287.11,212.64,291.41,216.4,291.62z"/>
	<path d="M161.76,326.05c-1.66-0.55-3.86-0.93-5.18,0.29c-2.52,0.77-4,4.85-3.89,7.11c0.19,3.91,3.54,6.68,7.42,5.53
		c3.73-1.11,5.46-5.49,5.13-9.1C165.04,327.82,163.63,326.66,161.76,326.05z"/>
	<path d="M217.24,322.78c3.05-0.29,7.8-2.56,7.74-6.19c-0.05-3.1-3.7-4.66-6.18-3.38c-2.87-0.28-6.24,1.94-7.27,4.51
		C209.98,321.61,214.09,323.09,217.24,322.78z"/>
	<path d="M184.38,346.16c-2.6,1.2-7.04,4.44-5.52,7.38c1.6,3.09,7.04,2.25,9.52,1.04c2.68-1.31,6.47-5.03,4.02-8.15
		C190.68,344.23,185.87,343.45,184.38,346.16z"/>
	<path d="M231.67,333.02c-0.08-0.06-0.17-0.09-0.27-0.09c-3.4-0.03-7.5,2.83-8.62,6.08c-1.39,4.07,3.28,5.15,6.23,4.35
		c3.18-0.85,7.49-3.12,7.2-6.98C236.07,334.32,233.35,332.35,231.67,333.02z"/>
	<path d="M207.77,355.06c-2.13-0.03-4.2,1.17-4.76,3.51c-0.8,3.31,2.68,5.29,5.54,4.65c2.37-0.53,7.38-2.96,5.67-6.03
		C213.08,355.15,209.71,353.34,207.77,355.06z"/>
	<path d="M192.63,121.9c-0.42-0.34-1.01,0.08-0.76,0.58c2.88,5.67,5.63,11.08,6.86,17.4c1.12,5.79,1.27,11.71,1.21,17.6
		c-0.24-0.32-0.48-0.65-0.72-0.97c-1.12-1.51-3.69-0.06-2.56,1.5c1.05,1.47,3.02,5.86,5.56,5.45c2.51-0.4,3.78-4.95,4.32-6.9
		c0.5-1.8-2.14-2.47-2.76-0.76c-0.22,0.59-0.51,1.77-0.96,2.61C202.9,145.98,202.68,130.2,192.63,121.9z"/>
	<path d="M152.95,88.77c-1.01,0.12-1.95,0.05-2.91-0.28c-0.91-0.31-1.7-0.77-2.68-0.82c-0.62-0.03-1.01,0.61-0.88,1.16
		c0.42,1.79,2.42,2.58,4.06,2.88c1.43,0.26,4.36,0.49,5.01-1.28C156.17,88.73,154.04,88.63,152.95,88.77z"/>
	<path d="M166.95,66.49c-2.48-0.33-7.91,1.24-7.07,4.6c0.1,0.38,0.48,0.54,0.84,0.48c0.97-0.17,1.34-0.71,2.13-1.27
		c1.62-1.15,3.24-1.34,5.06-0.57c2.37,1,3.6,3.66,5.94,4.41c0.57,0.18,1.21-0.31,1.19-0.9C174.93,69.97,169.95,66.9,166.95,66.49z"
		/>
	<path d="M204.6,105.06c-0.94-0.2-1.42,0.81-0.88,1.5c3.53,4.54,11.16,2.04,15.17-0.67c4.57-3.08,7.49-8.2,7.74-13.71
		c0.23-5.12-2.12-11.66-7.08-14.03c-5.19-2.48-9.89,2.49-11.24,7.19c-0.27,0.92,0.96,1.66,1.63,0.95c0.22-0.23,3.69-4.28,3.13-3.83
		c4.68-3.64,7.59-0.08,9.12,3.04c1.63,3.34,1.78,7.42,0.47,10.85C219.76,103.98,212.04,106.67,204.6,105.06z"/>
	<path d="M209.36,216.24c0.73-0.32,0.92-0.94,1.07-1.66c0.38-1.73,0.93-3.52,0.51-5.28c-0.09-0.37-0.59-0.49-0.85-0.22
		c-1.31,1.38-1.68,3.29-2.31,5.04c-0.48,0.43-0.63,1.21-0.09,1.8C208.13,216.39,208.78,216.5,209.36,216.24z"/>
	<path d="M219.46,215.25c0.59-0.57,1.36-1.43,1.5-2.26c0.2-1.21-1.14-2.16-2.12-1.23c-0.49,0.47-0.76,1.15-1.21,1.67
		c-0.48,0.56-0.91,1.04-1.25,1.69c-0.27,0.52,0.05,1.27,0.71,1.24C218.07,216.31,218.76,215.93,219.46,215.25z"/>
	<path d="M225.26,221.5c0.66,0.01,1.2-0.16,1.8-0.43c0.58-0.26,1.23-0.52,1.5-1.14c0.34-0.78,0.15-1.94-0.87-2.13
		c-0.48-0.09-0.9-0.09-1.35,0.13c-0.26,0.13-0.51,0.28-0.75,0.43c-0.57,0.35-1.02,0.75-1.38,1.31
		C223.7,220.47,224.37,221.48,225.26,221.5z"/>
	<path d="M148.47,311.17c1.94-0.86,3.88-1.69,5.79-2.61c1.58-0.76,0.2-2.99-1.36-2.32c-0.56,0.24-1.11,0.5-1.66,0.75
		c6.83-7.13,17.68-10.71,26.28-14.76c0.27-0.13,0.14-0.58-0.15-0.57c-6.3,0.33-12.33,3.37-17.8,6.3c-3.07,1.64-5.94,3.43-8.47,5.64
		c0.18-0.44,0.37-0.88,0.56-1.33c0.67-1.5-1.41-2.81-2.25-1.32c-1.29,2.3-2.13,4.6-2.61,7.11c-0.06,0.2-0.12,0.39-0.18,0.59
		c-0.06,0.22-0.06,0.42-0.03,0.6c-0.04,0.26-0.08,0.51-0.11,0.78C146.35,311.13,147.68,311.52,148.47,311.17z"/>
	<path d="M165.8,51.84c-0.05,0.41,0.37,0.7,0.72,0.72c1.25,0.1,1.4-0.35,2.71-0.64c1.93-0.43,3.95,0.43,5.67,1.22
		c2.59,1.19,4.33,2.91,6.36,4.84c1.45,1.39,3.68-0.36,2.75-2.12c-1.88-3.55-6.28-5.93-10.03-6.94
		C171.3,48.21,166.23,48.22,165.8,51.84z"/>
	<path d="M172.02,30.13c-0.84-0.93-1.41-2.18-2.35-3.01c-0.36-0.32-1-0.22-1.12,0.3c-0.7,2.84,2.68,6.93,5.58,6.5
		c0.46-0.07,0.57-0.64,0.4-0.99C173.95,31.76,172.89,31.08,172.02,30.13z"/>
	<path d="M205.22,69.62c-1.33-5.61-2.04-11.85-3.9-17.29c-3.55-10.35-14.54-12.27-22.45-18.28c-0.46-0.35-0.99,0.31-0.75,0.75
		c2.71,4.83,7.69,6.74,12.25,9.49c7.12,4.29,8.13,10.27,9.25,17.93c0.45,3.09,2.55,7.51,2.06,10.5c-0.39,2.35-1.74,4.15-1.65,6.66
		c0.14,3.63,2.18,7.47,6.07,7.69c1.21,0.07,1.93-1.64,1.01-2.45c-2.68-2.36-3.94-4.66-2.88-8.28
		C204.99,73.8,205.86,72.3,205.22,69.62z"/>
	<path d="M223.62,104.31c-0.98,2.01-1.37,3.78-1.27,5.96c0.02,0.45,0.63,0.66,0.87,0.24c0.98-1.7,1.85-3.45,2.8-5.18
		c0.88-1.61,1.98-3.11,2.62-4.84c0.24-0.66-0.59-1.19-1.14-0.87C225.69,100.65,224.52,102.47,223.62,104.31z"/>
	<path d="M166.58,30.98c0.43,0.17,0.82-0.33,0.72-0.72c-0.79-3.03-3.53-4.92-2.39-8.42c1.12-3.45,4.5-7.12,8.44-6.48
		c1.14,0.19,1.74-1.16,0.78-1.85C165.89,7.55,155.68,26.58,166.58,30.98z"/>
</g>
</svg>
