<?xml version="1.0" encoding="utf-8"?>
<!-- Generator: Adobe Illustrator 24.1.1, SVG Export Plug-In . SVG Version: 6.00 Build 0)  -->
<svg version="1.1" id="Capa_1" xmlns="http://www.w3.org/2000/svg" xmlns:xlink="http://www.w3.org/1999/xlink" x="0px" y="0px"
	 viewBox="0 0 387.45 259.2" style="enable-background:new 0 0 387.45 259.2;" xml:space="preserve">
<style type="text/css">
	.st0{fill:none;stroke:#000000;stroke-width:3;stroke-miterlimit:10;}
</style>
<g>
	<path d="M180.98,114.11c-7.07-16.57-15.18-29.08-24.8-38.24c-9.99-9.52-34.64-23.22-49.23-13.54c-0.01,0-0.02,0.01-0.02,0.01
		c-6.29,3.64-11.34,7.55-15.73,12.02c-0.59-0.91-1.21-1.81-1.86-2.69c-0.24-0.32-0.65-0.49-1.03-0.27c-0.32,0.19-0.51,0.7-0.27,1.03
		c0.74,0.99,1.43,2.01,2.1,3.05c-1.62,1.73-3.15,3.53-4.62,5.45c-1.01-0.5-2.04-0.97-3.08-1.42c-0.37-0.16-0.8-0.11-1.03,0.27
		c-0.19,0.32-0.1,0.86,0.27,1.03c0.98,0.42,1.96,0.88,2.92,1.35c-2.13,2.89-4.16,6.01-6.16,9.41c-0.66-0.65-1.28-1.34-1.86-2.06
		c-0.25-0.32-0.8-0.26-1.06,0c-0.31,0.31-0.25,0.74,0,1.06c0.66,0.83,1.38,1.6,2.14,2.33c-1.72,2.99-3.44,6.19-5.21,9.65
		c-0.04,0.08-0.08,0.17-0.12,0.25c-0.7-0.44-1.39-0.89-2.05-1.38c-0.33-0.24-0.84-0.05-1.03,0.27c-0.22,0.38-0.06,0.78,0.27,1.03
		c0.69,0.52,1.41,0.99,2.15,1.44c-2.28,4.84-3.81,9.96-4.6,15.51c-0.61,0.14-1.21,0.31-1.79,0.54c-0.38,0.15-0.64,0.5-0.52,0.92
		c0.1,0.36,0.54,0.67,0.92,0.52c0.39-0.16,0.79-0.29,1.19-0.4c-0.43,3.68-0.54,7.54-0.35,11.64c-0.18,0.14-0.31,0.35-0.3,0.58
		c0.01,0.27,0.16,0.5,0.37,0.63c0.15,2.51,0.41,5.09,0.79,7.78c0.42,2.99,1.09,5.9,1.97,8.7c-0.56,0.28-1.13,0.54-1.71,0.77
		c-0.37,0.15-0.64,0.5-0.52,0.92c0.1,0.35,0.55,0.68,0.92,0.52c0.6-0.25,1.2-0.52,1.78-0.8c1.68,4.85,4.04,9.36,6.98,13.42
		c-0.77,0.57-1.56,1.11-2.37,1.61c-0.82,0.5-0.07,1.8,0.76,1.3c0.86-0.52,1.7-1.1,2.51-1.7c2.16,2.81,4.61,5.38,7.3,7.68
		c-0.78,0.7-1.56,1.4-2.34,2.1c-0.3,0.27-0.28,0.78,0,1.06c0.3,0.3,0.76,0.27,1.06,0c0.81-0.73,1.63-1.46,2.44-2.19
		c3.25,2.6,6.83,4.81,10.7,6.57c-0.02,0.04-0.04,0.08-0.07,0.11c-0.21,0.33-0.08,0.84,0.27,1.03c0.37,0.2,0.8,0.08,1.03-0.27
		c0.06-0.09,0.1-0.18,0.15-0.26c1.12,0.47,2.26,0.9,3.42,1.29c1.89,0.64,3.67,1.19,5.38,1.67c-0.13,0.42-0.26,0.84-0.39,1.27
		c-0.11,0.38,0.14,0.83,0.52,0.92c0.41,0.09,0.8-0.12,0.92-0.52c0.13-0.43,0.26-0.86,0.39-1.28c4.44,1.15,8.35,1.74,12.12,1.78
		c-0.03,0.88-0.04,1.75-0.01,2.63c0.03,0.96,1.53,0.97,1.5,0c-0.03-0.88-0.02-1.76,0.01-2.64c4.53-0.12,8.99-1.03,14.13-2.65
		c0.01,0.19,0.02,0.37,0.03,0.56c0.01,0.39,0.34,0.77,0.75,0.75c0.4-0.02,0.76-0.33,0.75-0.75c-0.01-0.35-0.03-0.7-0.06-1.04
		c2.46-0.82,5.09-1.79,7.96-2.92c0.89-0.35,1.8-0.73,2.73-1.14c0.07,0.35,0.33,0.67,0.73,0.65c0.38-0.02,0.79-0.33,0.75-0.75
		c-0.02-0.18-0.04-0.36-0.06-0.55c3.11-1.43,6.34-3.16,9.56-5.17c0.18,0.14,0.43,0.21,0.66,0.15c0.39-0.11,0.61-0.51,0.53-0.9
		c8.95-5.79,17.57-13.72,22.6-23.42c0.8-1.37,1.48-2.87,1.98-4.39c0.01-0.02,0.03-0.08,0.04-0.1c0.02-0.06,0.04-0.13,0.06-0.19
		c1.21-3.74,1.66-7.99,1.29-12.29C185.93,126.49,183.51,120.04,180.98,114.11z M182.33,144.92c-0.01,0.02-0.01,0.04-0.02,0.05
		c0,0.01-0.01,0.02-0.01,0.03c-0.46,1.39-1.05,2.7-1.79,3.96c-4.63,8.94-12.48,16.31-20.73,21.79c-0.22-0.88-0.44-1.75-0.65-2.63
		c-0.1-0.39-0.54-0.63-0.92-0.52c-0.4,0.11-0.62,0.53-0.52,0.92c0.26,1.03,0.51,2.06,0.77,3.09c-3.01,1.92-6.06,3.6-9.01,5
		c-0.05-0.37-0.09-0.73-0.14-1.1c-0.06-0.39-0.57-0.64-0.92-0.52c-0.43,0.14-0.58,0.5-0.52,0.92c0.06,0.45,0.12,0.89,0.18,1.34
		c-1.18,0.53-2.34,1.03-3.47,1.48c-2.64,1.03-5.04,1.92-7.31,2.68c-0.06-0.28-0.12-0.56-0.19-0.84c-0.1-0.38-0.54-0.65-0.92-0.52
		c-0.39,0.13-0.63,0.52-0.52,0.92c0.08,0.31,0.15,0.61,0.21,0.92c-4.94,1.58-9.2,2.46-13.51,2.61c0.03-0.29,0.06-0.59,0.1-0.88
		c0.06-0.4-0.1-0.81-0.52-0.92c-0.35-0.1-0.87,0.12-0.92,0.52c-0.06,0.44-0.11,0.87-0.16,1.31c-3.58-0.02-7.27-0.55-11.46-1.61
		c0.06-0.19,0.12-0.38,0.17-0.57c0.11-0.38-0.14-0.83-0.52-0.92c-0.41-0.09-0.8,0.12-0.92,0.52c-0.06,0.19-0.12,0.39-0.18,0.58
		c-1.68-0.46-3.43-1-5.3-1.63c-1.05-0.35-2.08-0.74-3.09-1.16c0.21-0.58,0.39-1.18,0.52-1.78c0.08-0.38-0.11-0.83-0.52-0.92
		c-0.38-0.09-0.83,0.11-0.92,0.52c-0.12,0.55-0.28,1.07-0.45,1.58c-3.5-1.59-6.76-3.57-9.73-5.9c0.41-0.37,0.83-0.74,1.24-1.11
		c0.3-0.27,0.28-0.78,0-1.06c-0.3-0.3-0.76-0.27-1.06,0c-0.45,0.41-0.9,0.81-1.36,1.22c-2.68-2.24-5.1-4.77-7.23-7.55
		c0.31-0.28,0.62-0.55,0.92-0.84c0.7-0.67-0.36-1.73-1.06-1.06c-0.25,0.24-0.5,0.46-0.76,0.69c-2.81-3.92-5.05-8.29-6.63-12.98
		c0.67-0.4,1.32-0.83,1.96-1.28c0.33-0.24,0.49-0.65,0.27-1.03c-0.19-0.32-0.7-0.51-1.03-0.27c-0.54,0.39-1.1,0.76-1.67,1.11
		c-0.74-2.46-1.31-5-1.68-7.62c-0.37-2.65-0.63-5.19-0.77-7.65c0.53-0.17,1.05-0.37,1.54-0.64c0.34-0.19,0.48-0.69,0.27-1.03
		c-0.23-0.35-0.66-0.47-1.03-0.27c-0.14,0.08-0.28,0.15-0.43,0.22c-0.07,0.03-0.14,0.07-0.21,0.1c-0.02,0.01-0.08,0.03-0.11,0.04
		c-0.03,0.01-0.07,0.02-0.11,0.03c-0.17-4.02-0.03-7.82,0.43-11.41c0.27,0,0.53,0,0.8,0.02c0.4,0.03,0.75-0.37,0.75-0.75
		c0-0.43-0.34-0.72-0.75-0.75c-0.19-0.02-0.39-0.01-0.58-0.01c0.77-4.91,2.14-9.46,4.15-13.76c0.41,0.2,0.82,0.4,1.24,0.58
		c0.37,0.16,0.8,0.11,1.03-0.27c0.19-0.32,0.1-0.86-0.27-1.03c-0.45-0.2-0.9-0.41-1.34-0.63c0.06-0.12,0.11-0.24,0.17-0.35
		c1.66-3.24,3.27-6.24,4.88-9.05c0.16,0.12,0.32,0.25,0.49,0.37c0.32,0.23,0.85,0.07,1.03-0.27c0.2-0.39,0.07-0.78-0.27-1.03
		c-0.17-0.12-0.33-0.25-0.49-0.38c2.13-3.65,4.28-6.97,6.56-10.02c0.14,0.07,0.28,0.14,0.42,0.22c0.85,0.47,1.6-0.83,0.76-1.3
		c-0.08-0.04-0.16-0.08-0.24-0.12c1.13-1.44,2.29-2.83,3.5-4.16c0.16,0.29,0.33,0.58,0.48,0.87c0.45,0.85,1.75,0.1,1.3-0.76
		c-0.23-0.43-0.46-0.85-0.7-1.27c4.32-4.52,9.29-8.43,15.51-12.04c0.07-0.03,0.13-0.07,0.2-0.11c13-8.76,36.48,4.47,45.59,13.15
		c9.31,8.88,17.2,21.06,24.11,37.25c2.43,5.7,4.76,11.87,5.31,18.41C183.86,137.65,183.45,141.53,182.33,144.92z"/>
	<path d="M154.24,116.16c-1.49-2.71-2.89-5.56-3.83-7.83c-0.64-1.54-8.42-14.06-14.6-15.75c-1.4-0.38-2.68-0.18-3.71,0.59
		c-2.17,1.63-3.45,5.64-1.7,10.14c0.6,1.55,2.17,3.47,3.55,5.17c0.73,0.9,1.42,1.74,1.84,2.39c2.31,3.5,4.36,5.43,6.54,7.47
		c1.19,1.12,2.42,2.27,3.74,3.74c0.9,1,2.86,2.86,4.49,3.44c0.31,0.11,0.63,0.16,0.95,0.16c1.6,0,3.14-1.33,3.81-2.86
		C156.44,120.28,154.47,116.57,154.24,116.16z M153.49,122.02c-0.46,1.06-1.58,1.86-2.26,1.61c-1.03-0.37-2.66-1.76-3.67-2.89
		c-1.38-1.53-2.64-2.72-3.86-3.86c-2.09-1.96-4.06-3.81-6.24-7.12c-0.48-0.72-1.2-1.61-1.96-2.55c-1.29-1.58-2.75-3.38-3.24-4.63
		c-1.54-3.97-0.19-6.9,1.04-7.82c0.34-0.25,0.72-0.38,1.16-0.38c0.25,0,0.52,0.04,0.82,0.12c4.87,1.33,12.39,12.46,13.28,14.58
		c0.97,2.34,2.4,5.26,3.93,8.03C153.34,118.67,153.98,120.91,153.49,122.02z"/>
	<path d="M102.57,161.55c-0.33-0.18-0.85-0.11-1.03,0.27c-0.23,0.48-0.51,0.94-0.83,1.37c-0.24,0.3-0.5,0.6-0.79,0.86
		c-0.29,0.27-0.29,0.79,0,1.06c0.31,0.28,0.75,0.29,1.06,0c0.77-0.71,1.4-1.58,1.85-2.53c0.09-0.19,0.13-0.37,0.08-0.58
		C102.86,161.83,102.73,161.64,102.57,161.55z"/>
	<path d="M87.21,104.59c1.21,0.32,2.42,0.63,3.62,0.95c0.38,0.1,0.83-0.13,0.92-0.52c0.09-0.39-0.12-0.82-0.52-0.92
		c-1.21-0.32-2.42-0.63-3.62-0.95c-0.38-0.1-0.83,0.13-0.92,0.52C86.59,104.06,86.8,104.49,87.21,104.59z"/>
	<path d="M87.33,93.46c-0.03-0.02-0.05-0.04-0.08-0.06c0.8,0.62,1.55,1.29,2.25,2.01c0.27,0.28,0.79,0.3,1.06,0
		c0.28-0.3,0.29-0.76,0-1.06c-0.77-0.79-1.6-1.51-2.47-2.18c-0.14-0.11-0.41-0.12-0.58-0.08c-0.17,0.05-0.36,0.18-0.45,0.34
		c-0.09,0.17-0.14,0.38-0.08,0.58C87.05,93.21,87.17,93.34,87.33,93.46z"/>
	<path d="M80.46,114.18c-0.14-0.42-0.51-0.59-0.92-0.52c-0.08,0.01-0.16,0.02-0.25,0.04c0.1-0.01-0.14,0.02-0.17,0.02
		c-0.16,0.02-0.33,0.04-0.49,0.05c-0.34,0.03-0.69,0.05-1.03,0.06c-0.69,0.02-1.38,0-2.07-0.06c-0.39-0.03-0.77,0.37-0.75,0.75
		c0.02,0.44,0.33,0.71,0.75,0.75c1.48,0.13,2.95,0.06,4.41-0.15C80.32,115.04,80.57,114.53,80.46,114.18z"/>
	<path d="M82.4,126.26c-0.14,0.08-0.28,0.15-0.42,0.22c-0.07,0.03-0.14,0.06-0.2,0.09c-0.02,0.01-0.09,0.04-0.11,0.04
		c-0.3,0.12-0.61,0.21-0.92,0.29c-0.15,0.04-0.3,0.07-0.46,0.1c-0.06,0.01-0.12,0.02-0.17,0.03c-0.02,0-0.13,0.02-0.15,0.02
		c-0.32,0.03-0.64,0.04-0.96,0.03c-0.39-0.01-0.77,0.35-0.75,0.75c0.02,0.42,0.33,0.74,0.75,0.75c1.45,0.05,2.89-0.32,4.16-1.02
		c0.34-0.19,0.48-0.69,0.27-1.03C83.2,126.18,82.76,126.05,82.4,126.26z"/>
	<path d="M88.65,143.24c-0.2-0.32-0.68-0.51-1.03-0.27c-1.16,0.82-2.38,1.53-3.66,2.14c-0.36,0.17-0.48,0.71-0.27,1.03
		c0.24,0.37,0.65,0.45,1.03,0.27c1.28-0.61,2.5-1.33,3.66-2.14C88.71,144.04,88.89,143.6,88.65,143.24z"/>
	<path d="M91.55,158.69c-0.17-0.09-0.38-0.14-0.58-0.08c-0.2,0.06-0.32,0.18-0.45,0.34c0.05-0.07,0.07-0.09,0.01-0.01
		c-0.03,0.03-0.05,0.07-0.08,0.1c-0.05,0.06-0.1,0.12-0.14,0.18c-0.1,0.13-0.21,0.25-0.31,0.37c-0.22,0.25-0.44,0.49-0.67,0.73
		c-0.45,0.47-0.93,0.91-1.43,1.32c-0.3,0.25-0.28,0.8,0,1.06c0.32,0.3,0.74,0.27,1.06,0c1.08-0.88,2.02-1.89,2.87-3
		c0.11-0.14,0.12-0.41,0.08-0.58C91.85,158.97,91.72,158.78,91.55,158.69z"/>
	<path d="M122.32,167.05c-0.39-0.09-0.82,0.12-0.92,0.52c-0.28,1.05-0.55,2.11-0.83,3.16c-0.1,0.38,0.13,0.83,0.52,0.92
		c0.39,0.09,0.82-0.12,0.92-0.52c0.28-1.05,0.55-2.11,0.83-3.16C122.94,167.59,122.72,167.14,122.32,167.05z"/>
	<path d="M139.07,165.01c-0.41,0.13-0.61,0.51-0.52,0.92c0.03,0.15,0.06,0.29,0.08,0.44c0,0.02,0.02,0.16,0.02,0.16
		c0.01,0.05,0.01,0.1,0.02,0.15c0.03,0.28,0.05,0.57,0.05,0.86c0.01,0.29,0,0.57-0.02,0.86c-0.01,0.14-0.02,0.27-0.04,0.41
		c0,0.03-0.01,0.09-0.01,0.11c-0.01,0.08-0.02,0.15-0.04,0.23c-0.06,0.39,0.1,0.83,0.52,0.92c0.36,0.08,0.85-0.11,0.92-0.52
		c0.22-1.34,0.2-2.68-0.07-4.02C139.92,165.15,139.44,164.89,139.07,165.01z"/>
	<path d="M175.98,114.93c-10.02-23.54-24.39-40.11-40.46-46.64c-0.95-0.39-1.91-0.81-2.89-1.23c-5.05-2.21-10.79-4.71-16.35-2.86
		c-5.29,1.76-9.9,6.56-12.34,12.86c-2.03,5.24-1.66,9.83-1.22,15.15l0.14,1.75c0.5,6.61,0.88,10.35,3.25,16.53
		c3.8,9.87,13.71,23.13,20.58,29.32c8.34,7.51,15.33,12.3,26.37,14.53c2.89,0.58,6.07,1.08,9.25,1.08c4.89,0,9.77-1.17,13.54-4.97
		c4.91-4.94,5.39-10.53,5.19-15.82C180.8,128.31,178.27,120.31,175.98,114.93z M173.73,148.34c-5.21,5.25-13.46,4.39-20.07,3.06
		c-10.42-2.1-16.81-6.48-24.95-13.82c-7.3-6.57-16.54-19.74-19.79-28.17c-2.23-5.8-2.57-9.18-3.06-15.68l-0.14-1.76
		c-0.42-5.16-0.75-9.23,1.03-13.83c2.12-5.47,6.04-9.62,10.48-11.09c4.47-1.49,9.42,0.67,14.2,2.76c1,0.43,1.98,0.87,2.96,1.26
		c15.33,6.23,29.12,22.22,38.83,45.03c2.18,5.13,4.6,12.72,4.83,18.64C178.3,141.14,177.09,144.95,173.73,148.34z"/>
	<path d="M129.39,90.83c0.26,0.31,0.79,0.27,1.06,0c0.31-0.31,0.26-0.75,0-1.06c-2.44-2.96-4.97-5.84-7.57-8.66
		c-0.66-0.71-1.72,0.35-1.06,1.06C124.42,84.99,126.95,87.88,129.39,90.83z"/>
	<path d="M156.38,127.64c-0.52-0.81-1.82-0.06-1.3,0.76c2.13,3.32,3.96,6.82,5.51,10.45c0.16,0.38,0.71,0.45,1.03,0.27
		c0.39-0.22,0.43-0.66,0.27-1.03C160.34,134.46,158.51,130.96,156.38,127.64z"/>
	<path d="M150.28,103.02c1.49-0.83,2.99-1.67,4.48-2.5c0.34-0.19,0.49-0.69,0.27-1.03c-0.22-0.35-0.66-0.47-1.03-0.27
		c-1.49,0.83-2.99,1.67-4.48,2.5c-0.34,0.19-0.49,0.69-0.27,1.03C149.48,103.1,149.91,103.22,150.28,103.02z"/>
	<path d="M134.64,112.36c-1.29,0.85-2.77,1.25-4.23,1.71c-1.53,0.48-3,1.07-4.24,2.11c-0.31,0.26-0.27,0.79,0,1.06
		c0.31,0.31,0.75,0.26,1.06,0c1.13-0.95,2.56-1.4,3.95-1.83c1.46-0.45,2.93-0.9,4.22-1.75
		C136.21,113.13,135.45,111.83,134.64,112.36z"/>
	<path d="M143.12,122.63c-0.37-0.1-0.85,0.12-0.92,0.52c-0.54,2.82-1.07,5.64-1.61,8.47c-0.08,0.4,0.11,0.81,0.52,0.92
		c0.37,0.1,0.85-0.12,0.92-0.52c0.54-2.82,1.07-5.64,1.61-8.47C143.72,123.16,143.53,122.74,143.12,122.63z"/>
	<path d="M141.19,92.53c-0.03,0.97,1.47,0.96,1.5,0c0.07-2.25-0.09-4.5-0.45-6.72c-0.06-0.4-0.56-0.62-0.92-0.52
		c-0.43,0.12-0.59,0.52-0.52,0.92C141.13,88.29,141.25,90.41,141.19,92.53z"/>
	<path d="M127.77,99.59c0.1-0.35-0.12-0.87-0.52-0.92c-1.44-0.2-2.86-0.48-4.26-0.84c-0.34-0.09-0.67-0.18-1.01-0.27
		c-0.35-0.1-0.73-0.28-1.1-0.29c-0.41-0.01-0.81,0.22-0.92,0.63c-0.12,0.44,0.16,0.95,0.62,1.05c0.18,0.04,0.41,0.03,0.58-0.07
		c0.1,0.03,0.2,0.06,0.3,0.09c0.24,0.07,0.47,0.13,0.71,0.2c0.51,0.14,1.03,0.26,1.55,0.38c1.04,0.23,2.08,0.42,3.13,0.57
		C127.25,100.17,127.65,100.02,127.77,99.59z"/>
	<path d="M163.38,115.38c-2.11-0.86-4.27-1.56-6.49-2.08c-0.94-0.22-1.34,1.22-0.4,1.45c2.21,0.52,4.38,1.22,6.49,2.08
		c0.38,0.15,0.82-0.17,0.92-0.52C164.02,115.87,163.76,115.53,163.38,115.38z"/>
	<path d="M139.23,118.57c-0.11-0.16-0.25-0.29-0.42-0.39c-0.12-0.05-0.24-0.1-0.36-0.15c-0.27-0.07-0.53-0.07-0.8,0
		c-0.12,0.05-0.24,0.1-0.36,0.15c-0.21,0.13-0.38,0.3-0.51,0.51c-0.1,0.12-0.22,0.24-0.34,0.34c-0.01,0.01-0.02,0.01-0.02,0.02
		c-0.17,0.09-0.32,0.22-0.42,0.39c-0.13,0.14-0.22,0.31-0.27,0.51c-0.06,0.2-0.07,0.4-0.03,0.6c0.01,0.2,0.07,0.39,0.18,0.56
		c0.08,0.1,0.16,0.2,0.23,0.3c0.19,0.19,0.41,0.31,0.66,0.39c0.13,0.02,0.27,0.04,0.4,0.05c0.27,0,0.52-0.07,0.76-0.2
		c0.19-0.12,0.37-0.26,0.55-0.4c0.08-0.06,0.16-0.13,0.24-0.21c0.08-0.07,0.15-0.15,0.21-0.24c0.14-0.18,0.29-0.36,0.42-0.56
		c0.11-0.17,0.17-0.36,0.18-0.56c0.04-0.2,0.04-0.4-0.03-0.6C139.45,118.89,139.36,118.72,139.23,118.57z"/>
	<path d="M128.7,106.01c-0.12,0.01-0.24,0.02-0.36,0c-0.21-0.01-0.4,0.04-0.58,0.13c-0.19,0.06-0.35,0.16-0.48,0.31
		c-0.15,0.14-0.25,0.3-0.31,0.48c-0.09,0.18-0.14,0.37-0.13,0.58c0.02,0.13,0.04,0.27,0.05,0.4c0.07,0.25,0.2,0.47,0.39,0.66
		c0.1,0.08,0.2,0.16,0.3,0.23c0.23,0.14,0.49,0.2,0.76,0.2c0.18,0.02,0.37,0.02,0.55-0.01c0.31-0.04,0.62-0.07,0.92-0.18
		c0.2-0.05,0.37-0.14,0.51-0.27c0.16-0.11,0.29-0.25,0.39-0.42c0.11-0.17,0.17-0.36,0.18-0.56c0.04-0.2,0.04-0.4-0.03-0.6
		c-0.05-0.12-0.1-0.24-0.15-0.36c-0.13-0.23-0.31-0.4-0.54-0.54c-0.12-0.05-0.24-0.1-0.36-0.15c-0.27-0.07-0.53-0.07-0.8,0
		C128.91,105.97,128.81,105.98,128.7,106.01z"/>
	<path d="M124.52,94.21c0.14,0.13,0.31,0.22,0.51,0.27c0.2,0.06,0.4,0.07,0.6,0.03c0.2-0.01,0.39-0.07,0.56-0.18
		c0.1-0.08,0.2-0.16,0.3-0.23c0.19-0.19,0.31-0.41,0.39-0.66c0.02-0.13,0.04-0.27,0.05-0.4c0-0.27-0.07-0.52-0.2-0.76
		c-0.12-0.18-0.26-0.36-0.41-0.52c-0.11-0.12-0.23-0.21-0.36-0.31c-0.12-0.1-0.24-0.19-0.38-0.26c-0.04-0.02-0.08-0.04-0.12-0.06
		c-0.16-0.07-0.32-0.14-0.48-0.2c-0.2-0.06-0.4-0.07-0.6-0.03c-0.2,0.01-0.39,0.07-0.56,0.18c-0.17,0.09-0.32,0.22-0.42,0.39
		c-0.13,0.14-0.22,0.31-0.27,0.51c-0.02,0.13-0.04,0.27-0.05,0.4c0,0.27,0.07,0.52,0.2,0.76c0.08,0.1,0.16,0.2,0.23,0.3
		c0.14,0.13,0.29,0.23,0.47,0.3c0.05,0.02,0.09,0.06,0.14,0.08c0.06,0.06,0.13,0.12,0.18,0.18c-0.04-0.05-0.07-0.09-0.11-0.14
		c0,0,0.01,0,0.01,0.01C124.3,94,124.39,94.12,124.52,94.21z"/>
	<path d="M134.93,88.98c0.02,0.14,0.03,0.29,0.06,0.43c0.01,0.03,0.01,0.06,0.02,0.09c0.01,0.03,0.02,0.06,0.03,0.09
		c0,0.01,0.01,0.03,0.02,0.04c0.05,0.13,0.11,0.26,0.16,0.39c0.02,0.06,0.05,0.11,0.09,0.16c0.09,0.17,0.22,0.32,0.39,0.42
		c0.14,0.13,0.31,0.22,0.51,0.27c0.2,0.06,0.4,0.07,0.6,0.03c0.2-0.01,0.39-0.07,0.56-0.18c0.1-0.08,0.2-0.16,0.3-0.23
		c0.19-0.19,0.31-0.41,0.39-0.66c0.02-0.13,0.04-0.27,0.05-0.4c0-0.24-0.06-0.47-0.17-0.69c0.01-0.2-0.04-0.39-0.13-0.57
		c-0.06-0.19-0.16-0.35-0.31-0.48c-0.14-0.15-0.3-0.25-0.48-0.31c-0.18-0.09-0.37-0.14-0.58-0.13c-0.13,0.02-0.27,0.04-0.4,0.05
		c-0.25,0.07-0.47,0.2-0.66,0.39c-0.08,0.1-0.16,0.2-0.23,0.3c-0.14,0.23-0.2,0.49-0.2,0.76c0,0.06,0,0.12,0,0.18
		C134.92,88.95,134.92,88.96,134.93,88.98z"/>
	<path d="M145.15,98.57c0.09,0.17,0.22,0.32,0.39,0.42c0.14,0.13,0.31,0.22,0.51,0.27c0.13,0.02,0.27,0.04,0.4,0.05
		c0.27,0,0.52-0.07,0.76-0.2c0.1-0.08,0.2-0.16,0.3-0.23c0.19-0.19,0.31-0.41,0.39-0.66c0-0.02,0.01-0.03,0.01-0.04
		c0.01-0.01,0.01-0.02,0.02-0.04c0,0,0.01-0.01,0.01-0.01c0.15-0.14,0.25-0.3,0.31-0.48c0.09-0.18,0.14-0.37,0.13-0.58
		c0.01-0.21-0.04-0.4-0.13-0.58c-0.06-0.19-0.16-0.35-0.31-0.48c-0.1-0.08-0.2-0.16-0.3-0.23c-0.23-0.14-0.49-0.2-0.76-0.2
		c-0.13,0.02-0.27,0.04-0.4,0.05c-0.25,0.07-0.47,0.2-0.66,0.39c-0.05,0.05-0.1,0.1-0.15,0.16c-0.1,0.13-0.2,0.25-0.29,0.38
		c-0.02,0.03-0.04,0.06-0.06,0.1c-0.02,0.03-0.04,0.06-0.05,0.1c-0.07,0.15-0.13,0.3-0.19,0.45c-0.03,0.07-0.05,0.15-0.07,0.23
		c-0.06,0.2-0.07,0.4-0.03,0.6C144.98,98.22,145.04,98.4,145.15,98.57z"/>
	<path d="M154.29,107.18c-0.08,0.05-0.17,0.09-0.26,0.14c-0.12,0.04-0.24,0.08-0.37,0.1c-0.17,0.01-0.32,0.04-0.47,0.12
		c-0.19,0.06-0.35,0.16-0.48,0.31c-0.15,0.14-0.25,0.3-0.31,0.48c-0.09,0.18-0.14,0.37-0.13,0.58c0.02,0.13,0.04,0.27,0.05,0.4
		c0.07,0.25,0.2,0.47,0.39,0.66c0.1,0.08,0.2,0.16,0.3,0.23c0.23,0.14,0.49,0.2,0.76,0.2c0.24-0.01,0.48-0.05,0.72-0.09
		c0.11-0.02,0.23-0.05,0.34-0.09c0.34-0.11,0.68-0.26,0.97-0.46c0.17-0.09,0.32-0.22,0.42-0.39c0.13-0.14,0.22-0.31,0.27-0.51
		c0.06-0.2,0.07-0.4,0.03-0.6c-0.01-0.2-0.07-0.39-0.18-0.56c-0.08-0.1-0.16-0.2-0.23-0.3c-0.19-0.19-0.41-0.31-0.66-0.39
		c-0.13-0.02-0.27-0.04-0.4-0.05C154.78,106.98,154.53,107.05,154.29,107.18z"/>
	<path d="M159.03,122.05c-0.2-0.06-0.4-0.07-0.6-0.03c-0.2,0.01-0.39,0.07-0.56,0.18c-0.1,0.08-0.2,0.16-0.3,0.23
		c-0.19,0.19-0.31,0.41-0.39,0.66c-0.02,0.13-0.04,0.27-0.05,0.4c0,0.27,0.07,0.52,0.2,0.76c0.03,0.04,0.06,0.09,0.09,0.13
		c0.1,0.14,0.21,0.28,0.32,0.41c0.06,0.08,0.13,0.15,0.21,0.21c0.13,0.11,0.27,0.21,0.4,0.32c0.04,0.03,0.08,0.06,0.12,0.09
		c0.08,0.05,0.17,0.1,0.26,0.14c0.17,0.11,0.36,0.17,0.56,0.18c0.2,0.04,0.4,0.04,0.6-0.03c0.2-0.05,0.37-0.14,0.51-0.27
		c0.16-0.11,0.29-0.25,0.39-0.42c0.05-0.12,0.1-0.24,0.15-0.36c0.07-0.27,0.07-0.53,0-0.8c-0.05-0.12-0.1-0.24-0.15-0.36
		c-0.13-0.23-0.31-0.4-0.54-0.54c-0.07-0.03-0.13-0.08-0.2-0.12c-0.08-0.08-0.17-0.15-0.24-0.24c0.02,0.02,0.03,0.04,0.05,0.06
		c-0.09-0.13-0.18-0.26-0.32-0.34C159.39,122.19,159.22,122.1,159.03,122.05z"/>
	<path d="M151.11,128.52c-0.05-0.2-0.14-0.37-0.27-0.51c-0.11-0.16-0.25-0.29-0.42-0.39c-0.17-0.11-0.36-0.17-0.56-0.18
		c-0.2-0.04-0.4-0.04-0.6,0.03c-0.12,0.05-0.24,0.1-0.36,0.15c-0.23,0.13-0.4,0.31-0.54,0.54c-0.05,0.12-0.1,0.24-0.15,0.36
		c-0.07,0.27-0.07,0.53,0,0.8c0.07,0.5,0.15,1.01,0.22,1.51c0.05,0.2,0.14,0.37,0.27,0.51c0.11,0.16,0.25,0.29,0.42,0.39
		c0.17,0.11,0.36,0.17,0.56,0.18c0.2,0.04,0.4,0.04,0.6-0.03c0.12-0.05,0.24-0.1,0.36-0.15c0.23-0.13,0.4-0.31,0.54-0.54
		c0.05-0.12,0.1-0.24,0.15-0.36c0.07-0.27,0.07-0.53,0-0.8C151.26,129.53,151.19,129.02,151.11,128.52z"/>
	<path d="M243.32,134.08c0.47-0.66,1.25-1.53,2.06-2.46c1.54-1.74,3.29-3.72,3.96-5.31c1.96-4.64,0.54-8.77-1.88-10.44
		c-1.16-0.8-2.56-0.98-4.16-0.54c-6.55,1.82-15.08,13.93-16.06,16.09c-1.05,2.33-2.61,5.27-4.28,8.05
		c-0.26,0.43-2.47,4.25-1.21,6.88c0.74,1.54,2.41,2.89,4.14,2.89c0.33,0,0.67-0.05,1-0.16c1.79-0.59,3.96-2.48,4.96-3.5
		c1.48-1.51,2.85-2.7,4.18-3.85C238.45,139.65,240.74,137.67,243.32,134.08z M230.42,144.2c-1.14,1.17-2.98,2.61-4.16,3
		c-0.92,0.3-2.21-0.66-2.7-1.69c-0.54-1.13,0.17-3.41,1.12-4.99c1.7-2.84,3.3-5.85,4.39-8.25c0.97-2.14,9.3-13.47,14.77-14.99
		c0.39-0.11,0.75-0.16,1.09-0.16c0.53,0,1,0.14,1.4,0.42c1.37,0.94,2.89,3.95,1.17,8.02c-0.55,1.29-2.18,3.13-3.62,4.76
		c-0.85,0.96-1.66,1.87-2.19,2.61c-2.44,3.4-4.64,5.3-6.97,7.32C233.36,141.41,231.95,142.63,230.42,144.2z"/>
	<path d="M322.17,143.7c-0.7-0.25-1.42-0.44-2.15-0.58c-0.88-5.68-2.58-10.93-5.11-15.89c0.85-0.48,1.69-0.99,2.5-1.54
		c0.33-0.23,0.48-0.66,0.27-1.03c-0.19-0.33-0.69-0.5-1.03-0.27c-0.79,0.54-1.61,1.04-2.44,1.51c-0.07-0.13-0.14-0.27-0.21-0.4
		c-1.97-3.52-3.87-6.79-5.77-9.84c0.87-0.77,1.7-1.59,2.46-2.46c0.27-0.31,0.3-0.76,0-1.06c-0.27-0.27-0.79-0.31-1.06,0
		c-0.69,0.8-1.43,1.54-2.21,2.24c-2.26-3.54-4.54-6.79-6.95-9.79c1.05-0.47,2.11-0.92,3.18-1.35c0.38-0.15,0.64-0.5,0.52-0.92
		c-0.1-0.36-0.54-0.67-0.92-0.52c-1.26,0.5-2.51,1.04-3.75,1.6c-1.65-1.98-3.37-3.85-5.19-5.64c0.72-1.04,1.47-2.05,2.26-3.04
		c0.25-0.31,0.31-0.75,0-1.06c-0.26-0.26-0.8-0.32-1.06,0c-0.8,0.99-1.55,2-2.28,3.04c-4.93-4.66-10.61-8.71-17.69-12.48
		c-0.01-0.01-0.02-0.01-0.03-0.02c-16.17-9.87-43.56,4.16-54.67,13.9c-10.73,9.41-19.78,22.26-27.68,39.28
		c-2.83,6.1-5.54,12.73-6.19,19.88c-0.41,4.47,0.1,8.88,1.49,12.76c0.01,0.04,0.03,0.09,0.05,0.13c0.59,1.63,1.35,3.17,2.2,4.51
		c5.62,9.99,15.22,18.14,25.19,24.08c0,0,0,0.01,0,0.01c-0.21,0.79,0.79,1.19,1.25,0.72c3.61,2.08,7.25,3.87,10.74,5.35
		c-0.02,0.19-0.05,0.39-0.06,0.58c-0.04,0.39,0.37,0.77,0.75,0.75c0.43-0.02,0.7-0.32,0.75-0.74c1.09,0.44,2.16,0.85,3.21,1.23
		c3.21,1.16,6.13,2.15,8.88,2.99c-0.03,0.37-0.05,0.73-0.06,1.1c-0.01,0.39,0.35,0.77,0.75,0.75c0.42-0.02,0.74-0.33,0.75-0.75
		c0.01-0.22,0.02-0.44,0.04-0.66c5.82,1.7,10.84,2.64,15.95,2.76c0.03,0.92,0.04,1.84,0.01,2.76c-0.04,0.97,1.46,0.96,1.5,0
		c0.03-0.92,0.02-1.83-0.01-2.75c4.26-0.03,8.66-0.64,13.69-1.85c0.15,0.46,0.31,0.92,0.46,1.38c0.12,0.37,0.52,0.65,0.92,0.52
		c0.37-0.12,0.66-0.52,0.52-0.92c-0.15-0.44-0.3-0.89-0.44-1.33c1.9-0.49,3.89-1.06,6.01-1.71c1.34-0.42,2.65-0.88,3.94-1.38
		c0.07,0.11,0.14,0.23,0.22,0.34c0.22,0.32,0.67,0.5,1.03,0.27c0.32-0.21,0.51-0.68,0.27-1.03c-0.04-0.05-0.06-0.1-0.1-0.15
		c4.35-1.82,8.37-4.11,12.02-6.82c0.94,0.78,1.88,1.55,2.82,2.33c0.31,0.26,0.76,0.31,1.06,0c0.27-0.27,0.31-0.8,0-1.06
		c-0.89-0.73-1.78-1.47-2.66-2.2c3.03-2.38,5.78-5.05,8.2-7.97c0.95,0.65,1.92,1.27,2.92,1.83c0.84,0.47,1.6-0.82,0.76-1.3
		c-0.94-0.53-1.85-1.1-2.74-1.71c3.28-4.19,5.91-8.85,7.79-13.85c0.71,0.32,1.42,0.62,2.15,0.9c0.38,0.14,0.82-0.16,0.92-0.52
		c0.12-0.42-0.14-0.78-0.52-0.92c-0.69-0.26-1.37-0.55-2.04-0.86c0.98-2.86,1.71-5.83,2.18-8.89c0.42-2.75,0.71-5.39,0.88-7.96
		c0.29-0.11,0.52-0.38,0.51-0.7c-0.01-0.29-0.18-0.54-0.42-0.67c0.21-4.21,0.08-8.18-0.4-11.96c0.52,0.12,1.03,0.27,1.53,0.45
		c0.38,0.14,0.82-0.16,0.92-0.52C322.81,144.2,322.56,143.83,322.17,143.7z M311.99,173.53c0.75,0.49,1.52,0.94,2.3,1.38
		c-1.78,4.85-4.31,9.37-7.49,13.41c-0.33-0.27-0.65-0.53-0.97-0.81c-0.3-0.27-0.76-0.3-1.06,0c-0.27,0.27-0.31,0.79,0,1.06
		c0.36,0.31,0.72,0.61,1.09,0.91c-2.4,2.87-5.14,5.49-8.17,7.81c-0.54-0.44-1.07-0.89-1.61-1.33c-0.31-0.26-0.76-0.31-1.06,0
		c-0.27,0.27-0.31,0.8,0,1.06c0.48,0.4,0.96,0.79,1.44,1.19c-3.36,2.42-7.05,4.48-11.03,6.12c-0.21-0.55-0.4-1.11-0.54-1.7
		c-0.09-0.38-0.55-0.65-0.92-0.52c-0.4,0.13-0.62,0.51-0.52,0.92c0.15,0.63,0.36,1.25,0.59,1.86c-1.13,0.43-2.28,0.83-3.45,1.19
		c-2.14,0.66-4.15,1.23-6.07,1.72c-0.07-0.22-0.15-0.44-0.22-0.66c-0.12-0.37-0.52-0.65-0.92-0.52c-0.37,0.12-0.66,0.52-0.52,0.92
		c0.07,0.21,0.14,0.41,0.21,0.62c-4.75,1.12-8.92,1.66-12.98,1.67c-0.06-0.46-0.11-0.93-0.18-1.39c-0.06-0.4-0.56-0.62-0.92-0.52
		c-0.43,0.12-0.59,0.52-0.52,0.92c0.05,0.32,0.08,0.65,0.13,0.97c-4.88-0.15-9.69-1.08-15.28-2.72c0.07-0.32,0.15-0.65,0.24-0.97
		c0.11-0.38-0.13-0.83-0.52-0.92c-0.4-0.09-0.81,0.12-0.92,0.52c-0.09,0.31-0.16,0.63-0.23,0.94c-2.58-0.8-5.33-1.74-8.33-2.82
		c-1.25-0.45-2.55-0.97-3.86-1.51c0.06-0.47,0.12-0.94,0.2-1.41c0.06-0.39-0.1-0.83-0.52-0.92c-0.36-0.08-0.86,0.11-0.92,0.52
		c-0.06,0.41-0.11,0.81-0.17,1.22c-3.34-1.45-6.8-3.2-10.23-5.21c0.29-1.07,0.58-2.14,0.87-3.21c0.25-0.93-1.2-1.33-1.45-0.4
		c-0.25,0.94-0.51,1.88-0.76,2.82c-9.31-5.66-18.18-13.31-23.42-22.62c-0.78-1.22-1.43-2.57-1.95-3.99c0,0,0-0.01-0.01-0.02
		c-0.01-0.02-0.01-0.04-0.02-0.07c-1.24-3.48-1.71-7.45-1.33-11.5c0.62-6.71,3.21-13.04,5.93-18.9
		c7.72-16.64,16.53-29.16,26.94-38.29c10.22-8.96,36.59-22.61,51.22-13.53c0.07,0.04,0.13,0.08,0.2,0.1
		c6.94,3.71,12.48,7.72,17.3,12.34c-0.28,0.45-0.55,0.9-0.82,1.36c-0.48,0.84,0.81,1.6,1.3,0.76c0.2-0.35,0.41-0.69,0.62-1.03
		c1.4,1.4,2.74,2.87,4.04,4.39c-0.12,0.06-0.24,0.11-0.36,0.17c-0.86,0.44-0.1,1.73,0.76,1.3c0.2-0.1,0.4-0.19,0.6-0.29
		c2.56,3.14,4.97,6.57,7.37,10.33c-0.21,0.15-0.42,0.31-0.64,0.45c-0.34,0.22-0.48,0.66-0.27,1.03c0.2,0.34,0.69,0.49,1.03,0.27
		c0.23-0.15,0.45-0.32,0.68-0.48c1.82,2.93,3.65,6.06,5.53,9.44c0.06,0.1,0.11,0.21,0.16,0.31c-0.47,0.21-0.94,0.42-1.42,0.62
		c-0.38,0.15-0.64,0.5-0.52,0.92c0.1,0.36,0.54,0.67,0.92,0.52c0.58-0.23,1.16-0.48,1.72-0.74c2.27,4.45,3.83,9.15,4.69,14.24
		c-0.27,0-0.55,0-0.82,0.02c-0.4,0.03-0.75,0.32-0.75,0.75c0,0.38,0.34,0.78,0.75,0.75c0.36-0.03,0.71-0.02,1.06-0.02
		c0.52,3.72,0.68,7.65,0.49,11.82c-0.1-0.03-0.21-0.06-0.31-0.09c-0.07-0.03-0.14-0.05-0.21-0.08c-0.02-0.01-0.17-0.07-0.19-0.08
		c-0.15-0.07-0.3-0.14-0.45-0.21c-0.35-0.18-0.83-0.1-1.03,0.27c-0.18,0.34-0.11,0.84,0.27,1.03c0.59,0.3,1.21,0.52,1.84,0.7
		c-0.17,2.52-0.45,5.12-0.86,7.83c-0.42,2.73-1.07,5.39-1.92,7.95c-0.69-0.39-1.38-0.8-2.04-1.24c-0.34-0.22-0.83-0.07-1.03,0.27
		C311.51,172.87,311.66,173.3,311.99,173.53z"/>
	<path d="M282.36,187.61c-0.28-0.37-0.52-0.76-0.74-1.17c-0.18-0.35-0.7-0.48-1.03-0.27c-0.36,0.23-0.46,0.65-0.27,1.03
		c0.5,0.98,1.21,1.88,2.05,2.6c0.15,0.13,0.32,0.22,0.53,0.22c0.18,0,0.4-0.08,0.53-0.22c0.26-0.28,0.32-0.79,0-1.06
		C283.04,188.39,282.68,188.01,282.36,187.61z"/>
	<path d="M293.64,128.58c1.35-0.33,2.7-0.65,4.05-0.98c0.38-0.09,0.65-0.55,0.52-0.92c-0.13-0.4-0.51-0.62-0.92-0.52
		c-1.35,0.33-2.7,0.65-4.05,0.98c-0.38,0.09-0.65,0.55-0.52,0.92C292.84,128.45,293.23,128.68,293.64,128.58z"/>
	<path d="M296.74,116.74c0.01-0.01,0.02-0.02,0.03-0.02c0,0,0,0-0.01,0C296.76,116.72,296.75,116.73,296.74,116.74z"/>
	<path d="M295.08,118.17c0.4-0.38,0.81-0.74,1.24-1.09c0.1-0.09,0.21-0.17,0.32-0.25c0.04-0.03,0.07-0.06,0.11-0.08
		c-0.03,0.02-0.05,0.03,0,0c0.01-0.01,0.01-0.01,0.02-0.02c0.01,0,0.01-0.01,0.02-0.01c0,0-0.01,0.01-0.01,0.01
		c0.02-0.02,0.05-0.03,0.07-0.05c0.22-0.17,0.45-0.33,0.68-0.49c0.16-0.11,0.29-0.25,0.34-0.45c0.05-0.18,0.03-0.42-0.08-0.58
		c-0.2-0.32-0.68-0.51-1.03-0.27c-0.96,0.68-1.88,1.42-2.74,2.23c-0.29,0.27-0.29,0.79,0,1.06
		C294.33,118.45,294.78,118.45,295.08,118.17z"/>
	<path d="M310.75,137.05c-1.49,0.12-3.08,0.09-4.5-0.1c-0.39-0.05-0.82,0.09-0.92,0.52c-0.08,0.35,0.11,0.87,0.52,0.92
		c1.63,0.22,3.26,0.29,4.9,0.16c0.39-0.03,0.77-0.32,0.75-0.75C311.49,137.43,311.17,137.02,310.75,137.05z"/>
	<path d="M306.87,150.74c-0.35,0.01-0.7,0-1.05-0.03c-0.09-0.01-0.18-0.02-0.27-0.03c-0.02,0-0.12-0.02-0.13-0.02
		c-0.17-0.03-0.35-0.06-0.52-0.1c-0.34-0.08-0.68-0.17-1.01-0.29c-0.07-0.03-0.14-0.05-0.21-0.08c-0.02-0.01-0.28-0.12-0.17-0.07
		c-0.16-0.07-0.32-0.15-0.48-0.23c-0.35-0.18-0.83-0.1-1.03,0.27c-0.18,0.34-0.1,0.84,0.27,1.03c1.42,0.72,3,1.09,4.6,1.05
		c0.39-0.01,0.77-0.34,0.75-0.75C307.61,151.09,307.29,150.73,306.87,150.74z"/>
	<path d="M301.27,169.28c-1.42-0.62-2.79-1.36-4.08-2.2c-0.33-0.21-0.84-0.08-1.03,0.27c-0.2,0.37-0.08,0.8,0.27,1.03
		c1.3,0.84,2.66,1.58,4.08,2.2c0.36,0.16,0.82,0.12,1.03-0.27C301.71,169.98,301.66,169.45,301.27,169.28z"/>
	<path d="M296.72,186.15c-0.04-0.03-0.07-0.05-0.11-0.08c0,0,0,0,0,0c-0.07-0.05-0.13-0.1-0.19-0.15c-0.14-0.11-0.27-0.22-0.4-0.33
		c-0.27-0.23-0.53-0.46-0.78-0.7c-0.51-0.48-0.98-0.99-1.43-1.53c-0.25-0.3-0.8-0.28-1.06,0c-0.29,0.32-0.27,0.74,0,1.06
		c0.95,1.14,2.04,2.14,3.22,3.04c0.14,0.11,0.41,0.12,0.58,0.08c0.17-0.05,0.36-0.18,0.45-0.34c0.09-0.17,0.14-0.38,0.08-0.58
		C297,186.4,296.89,186.28,296.72,186.15z"/>
	<path d="M259.44,192.34c-0.11-0.38-0.53-0.65-0.92-0.52c-0.38,0.12-0.64,0.52-0.52,0.92c0.31,1.08,0.62,2.17,0.92,3.25
		c0.11,0.38,0.53,0.65,0.92,0.52c0.38-0.12,0.64-0.52,0.52-0.92C260.06,194.51,259.75,193.43,259.44,192.34z"/>
	<path d="M239.76,189.73c-0.38-0.09-0.83,0.11-0.92,0.52c-0.3,1.36-0.32,2.74-0.08,4.12c0.07,0.39,0.56,0.64,0.92,0.52
		c0.42-0.13,0.6-0.51,0.52-0.92c-0.01-0.08-0.03-0.16-0.04-0.24c0-0.03-0.01-0.05-0.01-0.08c-0.02-0.15-0.03-0.3-0.04-0.46
		c-0.02-0.29-0.03-0.59-0.02-0.88s0.03-0.59,0.06-0.88c0-0.01,0.03-0.24,0.01-0.08c0.01-0.07,0.02-0.14,0.03-0.21
		c0.03-0.16,0.06-0.32,0.1-0.49C240.37,190.27,240.17,189.82,239.76,189.73z"/>
	<path d="M278.82,99.3c-2.71-6.45-7.83-11.37-13.69-13.16c-6.11-1.87-12.18,0.57-18.05,2.93c-1.09,0.44-2.16,0.87-3.23,1.27
		c-18.31,6.85-35.67,24.84-46.45,48.14c-2.69,5.81-5.54,14.97-5.81,21.25c-0.28,6.67,2.45,10.56,7.27,15.03
		c4.17,3.86,9.55,5.05,14.96,5.05c3.52,0,7.05-0.5,10.26-1.1c12.27-2.28,20.05-7.18,29.34-14.88c7.67-6.36,18.73-19.97,22.97-30.12
		c2.66-6.36,3.07-10.2,3.64-17c0.05-0.61,0.1-1.21,0.16-1.79C280.68,109.43,281.09,104.7,278.82,99.3z M277.2,114.64
		c-0.05,0.59-0.11,1.2-0.16,1.81c-0.55,6.67-0.93,10.14-3.41,16.09c-3.62,8.67-13.96,22.21-22.12,28.97
		c-9.13,7.56-16.29,12.07-27.98,14.24c-7.44,1.38-16.74,2.27-22.64-3.2c-4.37-4.05-6.55-7.13-6.31-12.7
		c0.25-5.89,2.98-14.58,5.54-20.11c10.45-22.6,27.19-40.01,44.78-46.59c1.09-0.41,2.19-0.85,3.3-1.29
		c4.14-1.66,8.38-3.37,12.43-3.37c1.23,0,2.44,0.16,3.63,0.52c5.02,1.53,9.43,5.82,11.8,11.45
		C278.04,105.18,277.67,109.36,277.2,114.64z"/>
	<path d="M250.53,113.47c2.73-3.04,5.55-6.01,8.46-8.89c0.69-0.68-0.37-1.74-1.06-1.06c-2.9,2.88-5.72,5.85-8.46,8.89
		C248.83,113.12,249.89,114.19,250.53,113.47z"/>
	<path d="M220.53,151.31c-2.36,3.39-4.42,6.99-6.15,10.74c-0.4,0.87,0.89,1.63,1.3,0.76c1.74-3.75,3.79-7.34,6.15-10.74
		C222.38,151.28,221.08,150.53,220.53,151.31z"/>
	<path d="M222.3,123.42c1.67,0.86,3.34,1.71,5.01,2.57c0.36,0.18,0.81,0.09,1.03-0.27c0.2-0.34,0.09-0.84-0.27-1.03
		c-1.67-0.86-3.34-1.71-5.01-2.57c-0.36-0.18-0.81-0.09-1.03,0.27C221.84,122.72,221.94,123.23,222.3,123.42z"/>
	<path d="M244.68,135.62c-0.83-0.5-1.58,0.8-0.76,1.3c2.9,1.75,6.57,1.72,9.29,3.8c0.32,0.25,0.84,0.05,1.03-0.27
		c0.23-0.39,0.05-0.78-0.27-1.03C251.24,137.33,247.58,137.37,244.68,135.62z"/>
	<path d="M236.21,146.7c-0.19-0.94-1.64-0.54-1.45,0.4c0.6,2.9,1.2,5.8,1.79,8.7c0.19,0.94,1.64,0.54,1.45-0.4
		C237.41,152.5,236.81,149.6,236.21,146.7z"/>
	<path d="M237.33,115.22c-0.07-2.18,0.07-4.36,0.45-6.51c0.07-0.4-0.11-0.81-0.52-0.92c-0.36-0.1-0.85,0.12-0.92,0.52
		c-0.4,2.28-0.57,4.59-0.5,6.9C235.86,116.18,237.36,116.19,237.33,115.22z"/>
	<path d="M260.14,120.11c-0.37,0-0.75,0.17-1.11,0.26c-0.4,0.1-0.79,0.2-1.19,0.3c-1.53,0.36-3.07,0.65-4.63,0.86
		c-0.4,0.05-0.75,0.31-0.75,0.75c0,0.36,0.35,0.8,0.75,0.75c1.22-0.16,2.43-0.35,3.63-0.6c0.58-0.12,1.16-0.25,1.73-0.39
		c0.29-0.07,0.57-0.14,0.86-0.22c0.13-0.03,0.26-0.07,0.38-0.1c0.17,0.11,0.4,0.12,0.6,0.08c0.42-0.08,0.69-0.52,0.65-0.93
		C261.01,120.41,260.59,120.1,260.14,120.11z"/>
	<path d="M219.91,136.59c-2.47,0.53-4.89,1.25-7.25,2.14c-0.38,0.14-0.64,0.51-0.52,0.92c0.1,0.36,0.54,0.67,0.92,0.52
		c2.36-0.89,4.78-1.6,7.25-2.14C221.25,137.83,220.85,136.38,219.91,136.59z"/>
	<path d="M243.2,143.05c-0.13-0.23-0.31-0.4-0.54-0.54c-0.06-0.03-0.11-0.07-0.16-0.11c-0.15-0.13-0.3-0.27-0.43-0.43
		c0.04,0.05,0.08,0.1,0.12,0.15c-0.09-0.16-0.21-0.29-0.36-0.39c-0.14-0.13-0.31-0.22-0.51-0.27c-0.2-0.06-0.4-0.07-0.6-0.03
		c-0.2,0.01-0.39,0.07-0.56,0.18c-0.1,0.08-0.2,0.16-0.3,0.23c-0.19,0.19-0.31,0.41-0.39,0.66c-0.02,0.13-0.04,0.27-0.05,0.4
		c0,0.27,0.07,0.52,0.2,0.76c0.2,0.29,0.42,0.57,0.68,0.81c0.17,0.16,0.36,0.3,0.55,0.43c0.09,0.07,0.19,0.13,0.29,0.18
		c0.17,0.11,0.36,0.17,0.56,0.18c0.2,0.04,0.4,0.04,0.6-0.03c0.2-0.05,0.37-0.14,0.51-0.27c0.16-0.11,0.29-0.25,0.39-0.42
		c0.05-0.12,0.1-0.24,0.15-0.36c0.07-0.27,0.07-0.53,0-0.8C243.3,143.29,243.25,143.17,243.2,143.05z"/>
	<path d="M250.37,129.01c-0.2,0.01-0.39,0.07-0.56,0.18c-0.17,0.09-0.32,0.22-0.42,0.39c-0.13,0.14-0.22,0.31-0.27,0.51
		c-0.02,0.13-0.04,0.27-0.05,0.4c0,0.27,0.07,0.52,0.2,0.76c0.08,0.1,0.16,0.2,0.23,0.3c0.19,0.19,0.41,0.31,0.66,0.39
		c0.32,0.11,0.65,0.15,0.98,0.19c0.21,0.02,0.41,0.03,0.62,0.01c0.21,0.01,0.4-0.04,0.58-0.13c0.19-0.06,0.35-0.16,0.48-0.31
		c0.15-0.14,0.25-0.3,0.31-0.48c0.09-0.18,0.14-0.37,0.13-0.58c-0.02-0.13-0.04-0.27-0.05-0.4c-0.07-0.25-0.2-0.47-0.39-0.66
		c-0.1-0.08-0.2-0.16-0.3-0.23c-0.23-0.14-0.49-0.2-0.76-0.2c-0.16,0.01-0.31,0-0.47-0.01c-0.11-0.02-0.22-0.04-0.33-0.08
		C250.77,128.97,250.57,128.96,250.37,129.01z"/>
	<path d="M256.73,113.76c-0.12-0.05-0.24-0.1-0.36-0.15c-0.27-0.07-0.53-0.07-0.8,0c-0.05,0.01-0.09,0.03-0.14,0.05
		c-0.16,0.06-0.33,0.13-0.49,0.21c-0.09,0.04-0.18,0.1-0.26,0.16c-0.18,0.13-0.37,0.26-0.52,0.42c-0.16,0.16-0.3,0.35-0.44,0.54
		c-0.11,0.17-0.17,0.36-0.18,0.56c-0.04,0.2-0.04,0.4,0.03,0.6c0.05,0.2,0.14,0.37,0.27,0.51c0.11,0.16,0.25,0.29,0.42,0.39
		c0.12,0.05,0.24,0.1,0.36,0.15c0.27,0.07,0.53,0.07,0.8,0c0.12-0.05,0.24-0.1,0.36-0.15c0.13-0.08,0.24-0.17,0.33-0.27
		c0.06-0.08,0.13-0.14,0.2-0.2c0.04-0.03,0.09-0.06,0.14-0.08c0.16-0.05,0.31-0.13,0.43-0.24c0.16-0.11,0.29-0.25,0.39-0.42
		c0.11-0.17,0.17-0.36,0.18-0.56c0.04-0.2,0.04-0.4-0.03-0.6c-0.05-0.12-0.1-0.24-0.15-0.36
		C257.13,114.08,256.95,113.9,256.73,113.76z"/>
	<path d="M241.37,112.94c0.11,0.16,0.25,0.29,0.42,0.39c0.12,0.05,0.24,0.1,0.36,0.15c0.27,0.07,0.53,0.07,0.8,0
		c0.12-0.05,0.24-0.1,0.36-0.15c0.23-0.13,0.4-0.31,0.54-0.54c0.04-0.05,0.07-0.1,0.1-0.16c0.01-0.01,0.01-0.03,0.02-0.04
		c0.06-0.13,0.11-0.26,0.16-0.39c0.01-0.03,0.02-0.06,0.03-0.09c0.01-0.03,0.02-0.06,0.02-0.09c0-0.02,0.01-0.03,0.01-0.05
		c0.02-0.14,0.04-0.29,0.06-0.43c0.01-0.07,0.01-0.13,0-0.2c0.01-0.21-0.04-0.4-0.13-0.58c-0.06-0.19-0.16-0.35-0.31-0.48
		c-0.14-0.15-0.3-0.25-0.48-0.31c-0.18-0.09-0.37-0.14-0.58-0.13c-0.13,0.02-0.27,0.04-0.4,0.05c-0.25,0.07-0.47,0.2-0.66,0.39
		c-0.08,0.1-0.16,0.2-0.23,0.3c-0.13,0.22-0.19,0.45-0.2,0.7c-0.11,0.17-0.17,0.35-0.17,0.55c-0.04,0.2-0.04,0.4,0.03,0.6
		C241.15,112.63,241.24,112.8,241.37,112.94z"/>
	<path d="M230,120.94c0.03,0.02,0.05,0.05,0.08,0.08c0.01,0.01,0.01,0.02,0.02,0.04c0.05,0.2,0.14,0.36,0.27,0.51
		c0.11,0.16,0.25,0.29,0.42,0.39c0.17,0.11,0.36,0.17,0.56,0.18c0.2,0.04,0.4,0.04,0.6-0.03c0.12-0.05,0.24-0.1,0.36-0.15
		c0.23-0.13,0.4-0.31,0.54-0.54c0.05-0.12,0.1-0.24,0.15-0.36c0.07-0.27,0.07-0.53,0-0.8c-0.02-0.08-0.04-0.15-0.07-0.23
		c-0.08-0.19-0.15-0.39-0.26-0.56c-0.11-0.17-0.23-0.33-0.37-0.48c-0.05-0.06-0.11-0.12-0.17-0.17c-0.14-0.15-0.3-0.25-0.48-0.31
		c-0.18-0.09-0.37-0.14-0.58-0.13c-0.21-0.01-0.4,0.04-0.58,0.13c-0.19,0.06-0.35,0.16-0.48,0.31c-0.08,0.1-0.16,0.2-0.23,0.3
		c-0.14,0.23-0.2,0.49-0.2,0.76c0.02,0.13,0.04,0.27,0.05,0.4C229.69,120.53,229.82,120.76,230,120.94z"/>
	<path d="M220.64,132.37c0.13,0.23,0.31,0.4,0.54,0.54c0.11,0.07,0.23,0.14,0.36,0.19c0.22,0.1,0.45,0.2,0.69,0.28
		c0.12,0.04,0.24,0.07,0.36,0.09c0.25,0.05,0.51,0.08,0.77,0.09c0.21,0.01,0.4-0.04,0.58-0.13c0.19-0.06,0.35-0.16,0.48-0.31
		c0.15-0.14,0.25-0.3,0.31-0.48c0.09-0.18,0.14-0.37,0.13-0.58c-0.02-0.13-0.04-0.27-0.05-0.4c-0.07-0.25-0.2-0.47-0.39-0.66
		c-0.1-0.08-0.2-0.16-0.3-0.23c-0.21-0.12-0.45-0.19-0.69-0.2c-0.18-0.03-0.35-0.08-0.52-0.14c-0.07-0.04-0.14-0.07-0.21-0.11
		c-0.17-0.11-0.36-0.17-0.56-0.18c-0.2-0.04-0.4-0.04-0.6,0.03c-0.2,0.05-0.37,0.14-0.51,0.27c-0.16,0.11-0.29,0.25-0.39,0.42
		c-0.05,0.12-0.1,0.24-0.15,0.36c-0.07,0.27-0.07,0.53,0,0.8C220.54,132.13,220.59,132.25,220.64,132.37z"/>
	<path d="M215.69,147.07c-0.11,0.17-0.17,0.36-0.18,0.56c-0.04,0.2-0.04,0.4,0.03,0.6c0.05,0.12,0.1,0.24,0.15,0.36
		c0.13,0.23,0.31,0.4,0.54,0.54c0.12,0.05,0.24,0.1,0.36,0.15c0.27,0.07,0.53,0.07,0.8,0c0.21-0.09,0.43-0.17,0.63-0.29
		c0.2-0.12,0.38-0.27,0.56-0.41c0.08-0.07,0.16-0.14,0.23-0.22c0.04-0.04,0.07-0.08,0.11-0.12c0.11-0.14,0.23-0.28,0.33-0.43
		c0.11-0.17,0.17-0.36,0.18-0.56c0.04-0.2,0.04-0.4-0.03-0.6c-0.05-0.2-0.14-0.37-0.27-0.51c-0.11-0.16-0.25-0.29-0.42-0.39
		c-0.12-0.05-0.24-0.1-0.36-0.15c-0.27-0.07-0.53-0.07-0.8,0c-0.12,0.05-0.24,0.1-0.36,0.15c-0.15,0.09-0.28,0.21-0.39,0.34
		c-0.07,0.09-0.16,0.17-0.25,0.25c-0.07,0.05-0.15,0.09-0.23,0.13c-0.01,0.01-0.02,0.01-0.03,0.02c-0.02,0.01-0.03,0.02-0.05,0.03
		c0.01,0,0.01-0.01,0.02-0.01c-0.07,0.04-0.13,0.08-0.19,0.13C215.91,146.75,215.78,146.89,215.69,147.07z"/>
	<path d="M229.25,151.86c-0.09-0.17-0.22-0.32-0.39-0.42c-0.14-0.13-0.31-0.22-0.51-0.27c-0.13-0.02-0.27-0.04-0.4-0.05
		c-0.27,0-0.52,0.07-0.76,0.2c-0.1,0.08-0.2,0.16-0.3,0.23c-0.19,0.19-0.31,0.41-0.39,0.66c-0.08,0.52-0.16,1.03-0.25,1.55
		c-0.06,0.2-0.07,0.4-0.03,0.6c0.01,0.2,0.07,0.39,0.18,0.56c0.09,0.17,0.22,0.32,0.39,0.42c0.14,0.13,0.31,0.22,0.51,0.27
		c0.13,0.02,0.27,0.04,0.4,0.05c0.27,0,0.52-0.07,0.76-0.2c0.1-0.08,0.2-0.16,0.3-0.23c0.19-0.19,0.31-0.41,0.39-0.66
		c0.08-0.52,0.16-1.03,0.25-1.55c0.06-0.2,0.07-0.4,0.03-0.6C229.42,152.22,229.36,152.03,229.25,151.86z"/>
</g>
</svg>
