<?xml version="1.0" encoding="utf-8"?>
<!-- Generator: Adobe Illustrator 24.1.1, SVG Export Plug-In . SVG Version: 6.00 Build 0)  -->
<svg version="1.1" id="Capa_1" xmlns="http://www.w3.org/2000/svg" xmlns:xlink="http://www.w3.org/1999/xlink" x="0px" y="0px"
	 viewBox="0 0 390.45 390.45" style="enable-background:new 0 0 390.45 390.45;" xml:space="preserve">
<style type="text/css">
	.st0{fill:none;stroke:#000000;stroke-width:3;stroke-miterlimit:10;}
</style>
<g>
	<path d="M135.34,218.26c-0.14-0.97-1.74-0.74-1.71,0.23c0.42,11.56,3.71,22.53,6.33,33.72c3.07,13.1,3.98,25.1,0.51,38.2
		c-2.66,10.04-5.37,19.54-3.83,30.01c1.25,8.46,4.4,18.27,10.34,24.86c-1.38-0.24-2.85-1.07-3.66-1.67c-1.25-0.92-2.37-2-3.56-3
		c-1.84-1.54-5.38-4.65-7.8-2.26c-2.86,2.81,0.92,8.16,2.97,10.14c0.49,0.47,1.51,0,1.23-0.72c-0.81-2.03-3.42-9.09,1.03-5.58
		c1.55,1.23,2.92,2.67,4.52,3.84c2.16,1.58,6.2,3.82,8.86,1.87c0.99-0.72,1.29-2.01,1.69-3.08c0.42-1.12,0.59-2.77,1.29-3.73
		c0.04-1.35,0.83-1.85,2.36-1.5c1.7-0.92,2.31-0.84,1.85,0.25c0.39,1.06-0.68,2.63-0.11,3.93c0.4,0.93,1.09,1.57,2.01,1.97
		c2.56,1.13,5.22-0.48,6.76-2.42c0.5-0.63,0.86-1.35,1.29-2.03c0.48-0.89,1.04-1.73,1.67-2.53c1.08,0.11,2.15,0.22,3.23,0.33
		c0.29,0.77-1.97,3.81-2.2,4.71c-0.52,2.06,0.07,4.27,2.43,4.74c4.09,0.82,6.25-4.35,8.87-6.17c1.14-0.79,0.48-2.95-1.01-2.4
		c-2.01,0.74-2.3,2.15-3.91,3.19c-5.79,3.73-1.58-1.43-1.21-3.25c0.47-2.34-0.57-4.53-3.03-5c-1.51-0.29-3.09,0.2-4.34,1.05
		c-1.78,1.22-3.31,6.45-5.14,6.79c-0.85-0.5-1.7-1-2.55-1.5c0.23-0.77,0.41-1.55,0.54-2.35c0.03-0.54,0.13-1.1-0.03-1.64
		c-0.34-1.22-1.01-1.92-2.15-2.46c-2.82-1.33-5.94,0.38-7.29,2.87c-0.86,1.59-1.09,6.28-2.43,7.26c-0.12,0.09-0.24,0.15-0.38,0.21
		c-4.98-9.3-9.67-17.99-10.18-28.9c-0.55-11.64,4.26-22.28,6.38-33.51C148.99,261.32,138.35,239.22,135.34,218.26z"/>
	<path d="M272.5,67.2c2.57,0.16,5.14-0.25,7.53-1.47c4.88-2.5,7.43-7.68,6.3-13.02c-0.28-1.34-1.8-1.65-2.86-1.16
		c-6.3,2.86-13.8,2.42-19.54-1.59c-4.66-3.26-7.42-8.49-11.12-12.68c-5.73-6.51-14.09-9.32-22.57-7.08
		c-7.82,2.07-13.77,8.27-15.07,16.31c-1.05,6.47,0.87,14.09,5.8,18.62c-5.18,0.59-10.27,0.46-15.59-1.89
		c-3.6-1.59-6.95-3.73-10.18-5.97c-1.94-1.34-3.66-3.07-5.85-3.78c-0.25-0.88-1.4-1.25-2.17-0.91c-0.04,0-0.07-0.01-0.11,0
		c-5.91,1.18-11.66,7.28-15.36,11.68c-4.83,5.75-8.53,12.36-11.44,19.26c-3.02,7.15-5.2,14.64-6.68,22.26
		c-1.34,6.89-3.54,16.03-1.63,22.91c0.21,0.77,1.33,0.76,1.55,0c0.92-3.15,0.75-6.58,1.03-9.83c0.36-4.14,0.9-8.26,1.68-12.35
		c1.33-7.05,3.27-14,5.93-20.66c2.74-6.86,6.3-13.52,11.03-19.22c2.29-2.76,4.87-5.32,7.76-7.46c1.63-1.21,3.46-2.12,5.18-3.17
		c-2.38,15.62-5.04,30.68-10.53,45.66c-2.89,7.89-6.34,15.58-10.21,23.05c-0.62,1.2-1.3,2.38-2,3.56c-2.2,0.55-4.26,1.34-6.05,2.53
		c-0.79,0.52-0.57,2,0.52,1.92c0.98-0.07,1.96-0.17,2.94-0.29c-0.51,0.8-1.02,1.6-1.53,2.41c-2.33,0.2-4.61,0.68-6.79,1.54
		c-7.04,2.77-13.13,8.65-14.79,16.18c-0.16,0.71,0.84,1.2,1.21,0.51c3.69-6.82,8.87-12.48,16.61-14.55
		c0.57-0.15,1.14-0.27,1.71-0.37c-1.08,1.81-2.1,3.65-2.97,5.52c-0.22,0.05-0.44,0.18-0.62,0.4c-19.66,24.61-16.01,57.63-7.71,85.91
		c4.72,16.06,12.27,33.13,8.77,50.17c-2.44,11.91-13.09,23.51-10.98,35.89c0.3,2.41,1.08,4.82,1.99,6.38
		c1.63,2.82,4.43,3.98,7.55,4.28c0.91,0.09,1.38-0.51,1.46-1.19c0.03-0.11,0.04-0.22,0.05-0.35c0.1-2.4,0.19-4.8,0.29-7.21
		c0.08-2.05-0.39-5.29,0.29-7.21c-0.21-2.19,0.94-3.05,3.43-2.61c1.43,2.24,1.67,4.57,0.72,6.99c-0.34,1.7-0.94,3.37-0.94,5.13
		c0.01,3.89,2.59,8.59,7.17,7.4c6.3-1.63,5.69-10.77,6.12-15.65c0.24-2.72,0.14-5.86,0.87-8.49c0.09-2.5,1.12-3.52,3.1-3.06
		c1.62-0.52,2.45,0.16,2.49,2.04c1.29,4.91-2.12,10.12-3.45,14.69c-1.32,4.55-3.39,13.91,0.61,17.85c3.19,3.14,6.28-0.06,7.31-3.38
		c0.59-1.89,0.27-3.66,0.39-5.58c-0.02-1.41,0.28-2.75,0.91-3.99c3.09-0.64,4.44,0.09,4.04,2.16c0.56,3.2-2.76,6.45-2.28,9.93
		c0.47,3.41,3.24,5.26,4.83,8.09c2.25,3.99,0.98,8.74-2.36,11.5c-6.61,1.32-12.68,3.91-19.53,4.61c-6.92,0.7-13.83,0.56-20.77,0.41
		c-7.16-0.15-14.3-0.33-21.46-0.67c-6.23-0.3-13.09-1.43-19.4-0.89c-0.68-0.22-1.38-0.4-2.15-0.56c-0.98-0.2-1.99-0.28-2.96-0.54
		c-3.04-0.82-3.77-1.55-4.03-4.83c-0.46-5.82,4.04-10.66,4.88-16.39c0.04-0.31-0.17-0.64-0.44-0.75c-0.3-2.46-3.51-4.3-4.93-6.21
		c-0.89-1.2-1.49-3.18,0.11-4.27c1.99-1.35,4.17,1.02,5.18,2.39c1.1,1.49,1.66,3.13,3.47,3.8c0.34,0.13,0.64-0.2,0.66-0.5
		c0.21-2.5-2.45-5.76-4.39-7.23c-1.85-1.4-4.5-1.9-6.49-0.49c-1.91,1.36-2.39,4.02-1.6,6.14c1.29,3.48,5.59,4.34,5.89,8.38
		c0.01,0.09,0.03,0.17,0.06,0.24c-1.82,2.9-3.06,6.23-4.41,9.33c-1.08,2.48-2.22,5.22-1.3,7.93c1.85,5.48,8.84,5.88,13.76,6.12
		c6.12,1.33,13.05,1.17,19.08,1.49c8.11,0.43,16.26,0.68,24.38,0.56c7.07-0.1,14.12,0.1,21.15-0.81c4.5-0.58,9.65-1.42,13.74-3.76
		c0.42,0.32,1,0.43,1.59,0.1c4.41-2.48,7.04-7.37,6.31-12.47c-0.32-2.21-1.23-3.86-2.5-5.66c-1.97-2.78-3.61-4.85-2.89-8.56
		c0.35-1.82,1.39-3.43,1.69-5.29c0.59-3.66-0.76-8.61-5.41-7.87c-5.73,0.92-4.95,7.68-5.55,11.8c-0.25,1.71,0.09,3.16-1.97,2.51
		c-1.52-0.48-1.39-1.07-1.55-2.59c-0.26-2.58-0.01-5.46,0.47-7.98c0.77-4.13,2.67-7.84,3.8-11.85c1.07-3.78,1.46-11.65-3.53-13.03
		c-4.69-1.3-7.23,4.66-7.73,8.21c-0.69,4.82-0.62,9.75-1.35,14.57c-0.09,0.6-0.11,2.04-0.5,2.62c-1.95,0.14-3.89,0.27-5.84,0.41
		c-0.08-0.65-0.16-1.29-0.25-1.94c-0.16-2.14,0.98-4.39,1.28-6.51c0.53-3.76-1.98-11.87-7.45-9.31c-1.91,0.9-2.64,3.28-2.95,5.18
		c-0.72,4.42-0.56,9.16-0.65,13.7c-1.78-0.52-3.1-1.64-3.91-3.53c-0.03-0.08-0.06-0.16-0.09-0.24c-3.78-15.22,9.4-27.53,11.1-42.15
		c1.72-14.77-3.79-29.12-7.99-43c-4.6-15.18-8.24-30.85-8.18-46.8c0.04-12.09,3.17-23.25,8.42-33.75c0,0,0.01,0,0.01,0.01
		c12.92,3.25,25.21-5.87,38.15-2.54c13.81,3.56,23.59,15.59,35.96,22.04c23.28,12.15,53.6,6.47,67.31-17
		c4.09-7,6.78-14.98,7.99-22.98c0.67-4.42,1.33-10.09,0.45-14.79C309.23,97.4,291.99,75.58,272.5,67.2z M237.9,62.62
		c-0.86-1.75-2.26-2.73-4-4.05c-2.77-2.11-3.97-4.75-1.31-7.89c1.26-1.48,3.9-3.17,5.83-3.48c4.47-0.73,10.85,6.82,14.02,9.41
		c2.74,2.24,5.46,4.57,8.45,6.48c0.46,0.29,0.93,0.57,1.42,0.84C254.36,62.12,246.06,61.84,237.9,62.62z M220.48,41.13
		c4.84-8.34,16.82-10.88,24.93-5.97c7.55,4.57,10.32,14.12,17.97,18.72c5.94,3.57,12.9,4.07,19.33,2.05
		c-0.4,5.8-7.48,8.03-12.75,6.76c-5.02-1.21-9.12-4.71-13-7.92c-3.39-2.81-6.77-5.61-10.19-8.38c-2.31-1.87-4.35-3.83-7.52-3.66
		c-5.11,0.28-11.73,4.98-12.63,10.22c-0.89,5.2,2.98,7.53,6.4,10.28c-0.32,0.05-0.64,0.09-0.96,0.14c-2.64,0.42-5.2,0.9-7.73,1.3
		C218.72,58.12,215.8,49.2,220.48,41.13z M296.91,128.16c-0.4,7.46-2.46,15.04-5.74,21.74c-6.23,12.73-16.92,22.03-31,24.73
		c-13.42,2.57-27.35-0.55-38.71-7.97c-9.91-6.47-18.85-15.36-30.52-18.64c-5.96-1.68-11.93-1.18-17.87,0.29
		c-2.95,0.73-5.84,1.64-8.82,2.26c-3.99,0.83-7.85,0.69-11.85,0.85c1.04-1.94,2.14-3.86,3.32-5.76c0.16-0.26,0.2-0.53,0.16-0.79
		c2-2.05,3.77-4.47,5.39-7.04c6.37,0.08,12.58,2.42,19.05,1.67c0.79-0.09,1.07-1.22,0.2-1.47c-5.42-1.54-11.46-3.14-17.38-3.32
		c0.55-0.96,1.08-1.92,1.6-2.88c3.7-0.6,7.39-1.31,11.16-1.53c5.48-0.32,10.94-0.62,16.39-1.34c11.09-1.47,21.92-4.17,32.67-7.22
		c10.68-3.04,21.33-6.23,32.15-8.73c6.01-1.39,12.09-2.58,18.22-3.31c2.58-0.31,5.17-0.55,7.76-0.71c1.29-0.08,5.13-0.69,7.33-0.35
		c0.09,0.44,0.33,0.85,0.73,1.07c0.23,0.13,0.46,0.23,0.7,0.3c-3.2,3.02-7.2,5-11.7,5.22c-0.38,0.02-0.38,0.57,0,0.59
		c5.43,0.29,10.51-1.35,14.41-5.24c0.44-0.44,0.4-0.99,0.14-1.4c0.42-0.55,0.6-1.31,0.38-2.21c-1.07-4.34-9.92-2.46-12.85-2.27
		c-13.8,0.91-27.31,4.43-40.55,8.26c-13.75,3.98-27.43,8.34-41.49,11.12c-7.44,1.47-14.88,2.17-22.43,2.65
		c-3.3,0.21-7.07,0.29-10.72,0.8c0.26-0.49,0.52-0.98,0.78-1.45c4.01-7.36,7.45-15.02,10.4-22.86
		c5.49-14.58,10.01-30.75,11.05-46.47c2.66,2.92,7.17,5.19,10.05,6.88c5.01,2.94,10.47,5.19,16.35,5.36
		c7.3,0.22,14.42-2.12,21.63-2.86c6.75-0.69,13.59-0.51,20.28,0.61c13.43,2.25,25.47,8.78,33.62,19.84
		c6.01,8.17,9.42,18.71,7.83,28.78c-0.37,0.02-0.73,0.21-0.93,0.62C296.24,119.73,297.13,124.13,296.91,128.16z"/>
	<path d="M261.19,124.21c-8.42,0.36-16.77,2.5-24.97,4.34c-0.27,0.06-0.22,0.53,0.07,0.5c8.33-0.91,16.96-1.58,25.02-3.95
		C261.78,124.96,261.71,124.18,261.19,124.21z"/>
	<path d="M224.21,130.71c-2.59-0.2-5.27,0.54-7.78,1.03c-0.68,0.13-0.54,1.3,0.17,1.22c2.55-0.27,5.33-0.33,7.75-1.28
		C224.86,131.48,224.78,130.75,224.21,130.71z"/>
	<path d="M109.74,335.28c3.98-0.89,7.08,3.72,8.72,6.46c1.04,1.74,2.34,3.71,4.61,3.25c0.52-0.11,0.55-0.72,0.28-1.06
		c-1.18-1.51-2.35-2.8-3.29-4.5c-0.9-1.62-1.87-3.04-3.33-4.21c-2.26-1.82-5.92-3.34-8.83-2.35c-2.54,0.86-3.22,3.51-2.08,5.8
		c1.99,3.98,9.73,3.24,9.3,8.37c-0.05,0.66,0.87,1.01,1.3,0.54c1.49-1.64,1.11-3.63-0.29-5.25c-0.99-1.15-2.34-1.74-3.71-2.29
		C111.19,339.55,104.66,336.41,109.74,335.28z"/>
	<path d="M108.65,309.83c-0.66,2.13,0.1,4.54,0.65,6.57c0.57,2.11,1.5,4.03,1.51,6.31c0.01,1.53-0.26,3.05-0.25,4.59
		c0.01,0.92,1.51,1.2,1.67,0.23c0.62-3.85,0.83-7.06-0.49-10.79c-0.51-1.42-1.42-3.59-1.13-5.24c0.76-4.23,4.27-2.14,5.18,0.18
		c1.14,2.88-0.83,6.97-0.19,10.02c1.12,5.35,8.43,8.26,12.52,11.17c0.02,0.03,0.04,0.07,0.06,0.1c0.65,0.93,2.48,0.38,1.99-0.84
		c-6.99-17.12-0.66-33.63,0.23-51.18c0.95-18.94-3.27-37.67-6.4-56.22c-3.2-18.96-5.59-39.03,0.33-57.73
		c0.17-0.55,0.37-1.09,0.56-1.64c-0.07,8.29,2.03,19.24,7.13,25.79c0.28,0.35,0.88,0.05,0.87-0.36c-0.14-3.75-1.69-7.23-2.69-10.81
		c-1.18-4.22-2.13-8.52-2.28-12.92c-0.21-6.42,1.53-11.75,4.52-16.96c0.95-1.4,1.94-2.76,3.01-4.07c4.89-6,10.92-9.87,17.35-13.99
		c0.62-0.4,0.23-1.37-0.5-1.19c-9.06,2.16-16.74,9.43-22.13,17.14c-0.85,1.04-1.58,2.17-2.2,3.36c-0.1,0.17-0.21,0.33-0.31,0.5
		c-6.78,11.38-9.65,24.43-10.02,37.58c-0.95,33.07,12.76,64.99,8.99,98.15c-1.51,13.22-6.55,29.41-0.37,42.08
		c-3.19-2.12-6.99-4.24-8.29-7.28c-1.72-4.03,3.04-13.26-2.35-15.82C112.83,305.22,109.5,307.07,108.65,309.83z"/>
	<path d="M190.6,301.52c-2.45,2.19-7.56,6.65-5.74,10.43c-0.06,0.33-0.09,0.68-0.1,1.04c-0.02,0.65,0.92,1.12,1.38,0.57
		c1.7-2.08,3.78-3.74,6.39-4.51c2.19-0.65,4.57-0.55,6.71-1.36c3.39-1.28,4.89-5.14,1.94-7.82
		C197.76,296.76,193.5,298.92,190.6,301.52z M196.41,305.29c-2.31,0.36-5.14,0.8-7.44,1.86c0.97-1.21,2.1-2.32,3.24-3.36
		c1.45-1.32,3.61-3.26,5.79-2.58C202.22,302.54,198.42,304.97,196.41,305.29z"/>
	<path d="M101.83,314.82c0.1,0.24,0.19,0.47,0.31,0.71c0.27,0.55,1.04,0.34,1.21-0.16c1.96-5.68-4.87-17.73-11.83-13.73
		c-2.56,1.47-3.88,4.89-1.71,7.3c1.36,1.5,3.53,2.27,5.29,3.19C97.16,313.19,99.44,314.73,101.83,314.82z M91.68,305.77
		c0.13-0.94,0.91-1.7,1.84-1.96c2.65-0.74,4.87,2.19,5.94,4.2c0.67,1.26,1.05,2.59,1.43,3.92c-1.33-0.93-2.92-1.57-4.34-2.28
		c-1.19-0.59-2.57-1.11-3.66-1.88C92.1,307.2,91.55,306.72,91.68,305.77z"/>
	<path d="M109.93,290.27c0.89,0.69,1.45,1.93,2.41,2.45c0.43,0.23,0.96,0.1,1.22-0.32c0.14-0.23,0.21-0.45,0.26-0.67
		c0.12-0.04,0.23-0.11,0.29-0.24c1.32-2.79,1.13-6.62-1.14-8.91c-1.79-1.81-4.9-2.05-6.64-0.01c-1.51,1.77-0.9,4.09,0.68,5.54
		C107.9,288.94,108.98,289.53,109.93,290.27z M107.8,284.47c0.33-1.58,2.47-1.32,3.39-0.61c1.7,1.33,1.65,3.5,1.73,5.54
		c-1.22-1.27-3.27-2.31-4.12-3.07C108.27,285.88,107.63,285.24,107.8,284.47z"/>
	<path d="M160.18,296.08c0.19,0.32,0.51,0.35,0.77,0.22c0,0.3,0.03,0.6,0.1,0.93c0.32,1.48,2.29,0.96,2.44-0.33
		c0.39-3.37,5.12-4.3,6.05-7.7c0.64-2.33-0.87-4.51-3.19-4.93C160.56,283.22,157.79,292,160.18,296.08z M165.9,289.86
		c-1.38,1.55-3.55,2.75-4.49,4.54c0.12-1.79,0.26-3.53,1.16-5.19c0.46-0.86,1.21-1.95,2.2-2.24c0.41-0.12,1.17-0.19,1.54,0.08
		C167.38,287.81,166.46,289.23,165.9,289.86z"/>
	<path d="M136.37,288.6c2.11-8.14,2.66-17.71-0.26-25.73c-0.25-0.68-1.46-0.65-1.37,0.19c0.9,8.73,1.86,16.64,0.89,25.44
		C135.58,288.92,136.26,289,136.37,288.6z"/>
	<path d="M147.4,331.4c0.91,0.74,2.36,1.68,3.58,1.28c0.4-0.13,0.56-0.63,0.25-0.95c-0.72-0.72-1.89-0.94-2.75-1.47
		c-1-0.61-1.95-1.52-2.62-2.48c-0.26-0.38-0.99-0.15-0.79,0.33C145.58,329.44,146.28,330.5,147.4,331.4z"/>
</g>
</svg>
