<?xml version="1.0" encoding="utf-8"?>
<!-- Generator: Adobe Illustrator 24.1.1, SVG Export Plug-In . SVG Version: 6.00 Build 0)  -->
<svg version="1.1" id="Capa_1" xmlns="http://www.w3.org/2000/svg" xmlns:xlink="http://www.w3.org/1999/xlink" x="0px" y="0px"
	 viewBox="0 0 390.45 390.45" style="enable-background:new 0 0 390.45 390.45;" xml:space="preserve">
<style type="text/css">
	.st0{fill:none;stroke:#000000;stroke-width:3;stroke-miterlimit:10;}
</style>
<path d="M151.32,257.28l-26.4,7.85c-8.37,2.51-13.31,1.28-14.8-3.71c-1.68-5.62,2.15-9.83,11.49-12.63
	c0.89-0.27,1.87-0.54,2.94-0.81l-16.73-55.75c-3.1,3.67-5.23,5.68-6.38,6.02c-2.48,0.74-4.89,0.55-7.23-0.57
	c-2.34-1.13-3.84-2.8-4.51-5.02c-0.69-2.3,0.08-5.12,2.32-8.44l5.96-7.41l6.26-8.59c2.64-3.26,5.52-5.35,8.62-6.29
	c3.99-1.2,6.66,0.47,8.02,4.99c1.5,4.99,3.38,12.07,5.65,21.26c2.27,9.18,5.93,22.18,10.97,38.98l4.56,15.21l4.39-1.32
	c2.57-0.77,4.96-0.64,7.18,0.38c2.21,1.03,3.67,2.69,4.36,4.99c0.69,2.31,0.4,4.5-0.89,6.57
	C155.81,255.09,153.89,256.51,151.32,257.28z"/>
<path d="M214.17,173.49c-1.03-0.28-2.58-0.87-4.65-1.8c-2.07-0.92-3.58-1.51-4.52-1.76l-18.13-4.92c-1.57-0.42-3.98-0.86-7.25-1.33
	c-3.27-0.47-5.71-0.91-7.31-1.34c-0.45-0.12-1.09-0.38-1.91-0.77s-1.46-0.65-1.91-0.77c-3.7-0.99-5.82-3.13-6.35-6.43
	c-0.33-2.07,0.03-5.05,1.07-8.92c2.02-7.54,5.42-13.39,10.19-17.55c3.68-3.2,8.99-5.97,15.92-8.31c6.52-2.1,13-4.18,19.47-6.25
	c7.74-2.89,12.4-7.28,13.98-13.17c0.41-1.53-0.48-3.4-2.67-5.61c-2.19-2.21-4.52-3.64-6.98-4.3c-4.36-1.17-9.49-0.5-15.39,2
	c-5.9,2.5-9.75,3.51-11.56,3.03c-2.18-0.58-3.95-1.62-5.32-3.11c-1.71-1.84-2.26-3.91-1.64-6.21c0.66-2.46,2.25-4.3,4.79-5.52
	c6.13-2.98,11.32-4.96,15.55-5.94c6.12-1.43,12.03-1.38,17.75,0.16c7.12,1.91,13.05,5.46,17.78,10.66
	c5.42,5.94,7.22,12.3,5.41,19.07c-1.84,6.85-5,12.25-9.49,16.18c-3.54,3.16-8.51,5.82-14.91,7.99c-6,1.81-11.99,3.59-17.97,5.36
	c-9.16,2.9-14.88,7.48-17.18,13.74c2.34,0.33,5.76,0.89,10.26,1.71c8.88,1.9,15.22,3.36,19,4.38c3.54,0.95,6.84,2.63,9.89,5.05
	c3.78,3,5.29,5.95,4.51,8.85c-0.56,2.1-1.81,3.73-3.76,4.89C218.77,173.82,216.55,174.13,214.17,173.49z"/>
<path d="M278.94,250.16c5.19,9.4,4.78,18.54-1.23,27.4c-4.85,7.15-11.86,11.24-21.05,12.28c-9.18,1.04-17.93-1.26-26.24-6.9
	c-6.2-4.2-11-9.12-14.42-14.77c-3.93-6.55-5.23-12.96-3.9-19.22c0.19-0.95,0.57-1.84,1.14-2.68c1.33-1.96,3.3-3,5.91-3.13
	c2.42-0.09,4.67,0.56,6.75,1.97c2.42,1.64,3.77,3.84,4.05,6.58c0.42,4.68,0.73,7.29,0.92,7.84c1.2,3.37,4.12,6.63,8.78,9.79
	c3.65,2.48,7.54,3.65,11.64,3.52c4.1-0.13,7.11-1.6,9.01-4.4c5.92-8.73,2.82-18.04-9.28-27.93c-5.32-4.33-6.69-8.4-4.1-12.22
	c1.97-2.91,5.6-3.54,10.89-1.9c4.72,1.98,9.44,3.92,14.15,5.84c3.12,1.04,5.73,1.4,7.85,1.1c2.12-0.3,3.75-1.27,4.91-2.89
	c3.69-5.12,0.98-10.77-8.13-16.95c-3-2.04-7-3.22-11.99-3.56c-4.99-0.34-8.14-0.96-9.45-1.84c-2.19-1.49-3.57-3.47-4.14-5.95
	c-0.57-2.48-0.23-4.63,1.01-6.45c2.02-2.98,7.26-3.75,15.72-2.31c7.55,1.28,13.14,3.15,16.75,5.61c8.73,5.92,14.59,12.4,17.57,19.43
	c3.24,7.72,2.49,15.09-2.26,22.1c-2.61,3.86-5.66,6.59-9.13,8.19C287.19,250.32,283.28,250.8,278.94,250.16z"/>
</svg>
