<?xml version="1.0" encoding="utf-8"?>
<!-- Generator: Adobe Illustrator 24.1.1, SVG Export Plug-In . SVG Version: 6.00 Build 0)  -->
<svg version="1.1" id="Capa_1" xmlns="http://www.w3.org/2000/svg" xmlns:xlink="http://www.w3.org/1999/xlink" x="0px" y="0px"
	 viewBox="0 0 390.45 390.45" style="enable-background:new 0 0 390.45 390.45;" xml:space="preserve">
<style type="text/css">
	.st0{fill:none;stroke:#000000;stroke-width:3;stroke-miterlimit:10;}
</style>
<g>
	<path d="M127.6,268.31c-0.01,0.04-0.01,0.08-0.04,0.12c-0.58,0.87-1.42,1.52-1.35,2.68c0.07,1.16,1.15,1.89,2.26,1.84
		c1.4-0.07,1.73-1.82,1.41-2.98C129.59,268.99,128.61,268.4,127.6,268.31z"/>
	<path d="M100.71,289.61c-0.48,0.65-0.85,1.51-0.62,2.31c0.25,0.89,1.07,1.19,1.91,0.87c0.88-0.34,1.45-1.24,0.95-2.12
		C102.5,289.89,101.58,289.53,100.71,289.61z"/>
	<path d="M317.75,241.84c-1.32-10.71-3.16-21.36-5.46-31.91c-1.06-4.84-1.79-14.76-8.18-11.6c-0.24-0.02-0.51,0-0.8,0.09
		c-2.45,0.75-4.76-1.15-7.09-1.56c-2.27-0.4-4.47-0.03-6.66-0.84c-3.5-1.29-5.56-2.78-9.45-2.02c-3.72,0.73-6.89,3.12-10.57,3.91
		c-4.08,0.87-7.39-1.67-11.5-0.99c-4.51,0.13-8.68,2.01-13.28,1.7c-3.52-0.24-6.73-2.27-10.2-2.87c-2.7-0.47-5.45-0.47-8.17-0.33
		c-6.21,0.32-13.46,2.33-19.53,1.14c-2.68-0.53-4.41-1.47-7.17-0.64c-1.6,0.49-5.1,3.06-7.27,2.76c-0.01-0.01-0.02-0.02-0.02-0.02
		c-0.16-0.13-0.32-0.25-0.48-0.36c0,0,0-0.01,0.01-0.01c-0.56-0.43-1.12-0.86-1.68-1.3c-0.16-0.13-0.33-0.21-0.5-0.28
		c-0.22-16.92-0.02-33.84,0.72-50.74c0.01-0.33,0.03-0.66,0.04-0.99c11.42-4.65,22.91-9.1,34.4-13.58
		c5.53-2.16,11.05-4.35,16.52-6.67c4.93-2.09,11.04-3.94,15.01-7.61c0.42-0.03,0.83-0.05,1.25-0.08c1.32-0.11,1.27-1.85,0-2.02
		c-8.31-1.07-16.79-0.91-25.16-1.09c-6.9-0.15-14.02-0.29-20.45,2.6c-9.23,4.15-16.66,13.8-18.28,23.85
		c-1.06,0.46-2.12,0.93-3.17,1.41c0.23-6.54,0.46-13.18,1.84-19.55c1.3-6,4.43-11.84,7.3-17.23c6.19-11.61,16.75-20.49,22.18-32.5
		c0.45-0.99-0.06-2.27-1.29-2.25c-8.73,0.11-18.9,5.59-25.55,11.86c0.67-7.74-0.42-16.23-0.88-23.62
		c-0.54-8.72-1.35-17.43-2.9-26.04c-0.23-1.27-2-1.3-2.6-0.34c-4.82,7.7-8.64,15.97-11.18,24.69c-1.52,5.22-3.43,11.94-3.71,18.13
		c-2.16-4.54-4.94-8.9-7.53-13.07c-3.54-5.71-7.34-12.43-12.39-16.93c-0.59-0.52-1.36,0.13-1.05,0.81c0.03,0.07,0.07,0.15,0.11,0.22
		c-0.42-0.11-0.97,0.19-1.02,0.71c-0.87,8.55,1.5,17.97,4.13,26.05c2.74,8.42,6.64,16.45,11.61,23.77
		c4.36,6.42,8.97,12.36,12.16,19.51c1.76,3.94,3.31,8.26,3.58,12.61c0.27,4.43-0.38,9.03-0.57,13.46
		c-0.35,7.97-0.62,15.95-0.8,23.93c-0.91-0.61-1.87-1.16-2.88-1.68c1.02-11.09-5.6-25.28-15.13-30.67
		c-16.88-9.55-37.34-4.97-55.71-6.06c-1.6-0.09-1.77,1.94-0.74,2.72c11.3,8.52,23.63,15.57,36.27,21.89
		c6.37,3.18,12.84,6.15,19.35,9.03c5.71,2.53,12.31,6.35,18.49,7.24c0.1,0.02,0.2,0,0.3,0c-0.19,9.58-0.26,19.16-0.17,28.74
		c-2.56,0.62-5.01,1.52-7.64,0.81c-2.18-0.59-3.95-2.3-6.23-2.61c-5.53-0.74-5.84,6.84-10.78,5.55c-2.62-0.68-4.7-2.97-7.35-3.75
		c-1.99-0.59-3.96-0.63-5.99-0.21c-5.88,1.23-10.21,5.57-16.57,3.97c-5.73-1.44-10.12-4.74-16.31-4.47
		c-11.32,0.49-23.31,9.84-34.09,2.53c-1.11-0.76-3-0.04-3.25,1.32c-6.99,38.64-5.82,78.26-3.43,117.28
		c0.91,14.84,5.67,27.14,19.97,33.46c14.46,6.39,31.74,6.59,47.24,7.6c40.41,2.64,80.91,1.08,121.27-1.44
		c9.86-0.61,19.72-1.33,29.57-2.05c7.05-0.51,17.48,0.69,23.44-3.92c4.65-3.6,6.03-9.89,6.74-15.41c1.21-9.44,1.73-19.03,2.08-28.54
		C321.36,285.47,320.42,263.55,317.75,241.84z M217.01,118c6.23-1.69,13.01-1.1,19.39-0.96c4.69,0.1,9.38,0.32,14.07,0.28
		c-4.01,1.54-7.99,3.8-11.71,5.34c-5.72,2.36-11.49,4.59-17.26,6.79c-8.44,3.22-16.93,6.35-25.25,9.87
		C200.4,129.76,206.23,120.93,217.01,118z M164.02,158.22c-6.56-2.8-13.03-5.79-19.42-8.95c-10.96-5.42-21.66-11.43-31.59-18.58
		c14.9,0.31,30.38-2.14,44.62,3.09c12.54,4.6,18.86,16.96,19.91,29.72C173.15,161.48,168.23,160.01,164.02,158.22z M96.79,320.36
		c-0.19-0.5,0.45-0.9,0.86-0.66c1.14,0.66,2.26,1.11,3.55,0.54c1.09-0.48,1.86-1.47,2.83-2.13c0.26-0.18,0.73,0.05,0.68,0.39
		C104.26,321.91,98.28,324.22,96.79,320.36z M103.09,294.97c-2.07,0.97-4.51,0.18-5.37-2c-0.74-1.87-0.16-4.69,2.09-5.13
		c0.03-0.01,0.06,0,0.09,0c1.81-1.07,4.3,0.02,5.24,1.81C106.22,291.7,105.07,294.04,103.09,294.97z M112.72,252.7
		c-2.49-0.33-3.92,0.59-6.02,1.76c-1.29,0.72-2.74,1.33-4.18,0.77c-0.33-0.13-0.41-0.66,0-0.75c2.48-0.57,4.06-2.16,6.32-3.14
		c1.46-0.63,3.09-0.88,4.35,0.22C113.6,251.92,113.29,252.78,112.72,252.7z M116.48,227.62c-2.43-0.16-4.72-2.18-4.41-4.74
		c0.23-1.91,2.59-4.37,4.58-3.05c1.96-0.74,4.34,1.1,4.62,3.15C121.65,225.72,119.04,227.78,116.48,227.62z M129.32,274.47
		c-1.89,0.5-4.05-0.58-4.55-2.52c-0.32-1.26,0.25-3.49,1.63-4c0-0.09,0.02-0.19,0.1-0.28c0.72-0.79,1.47-0.97,2.5-0.63
		c0.99,0.33,1.8,1.07,2.21,2.02C132.02,270.91,131.49,273.9,129.32,274.47z M141.87,327.91c-1.54,0.73-3.47,0.16-3.95-1.6
		c-0.26-0.97,0.07-2.1,0.75-2.89c-0.1-0.29-0.08-0.66,0.09-0.9c1.26-1.76,3.76-0.32,4.52,1.21
		C144.07,325.29,143.46,327.16,141.87,327.91z M227.5,218.11c0-0.17,0.09-0.34,0.26-0.45c1.19-0.74,2.47-0.96,3.75-0.25
		c0.84,0.46,1.44,1.28,1.71,2.19c0.58,1.9-0.41,4-2.38,4.51c-1.85,0.48-4.02-0.49-4.5-2.43
		C226.03,220.45,226.52,218.95,227.5,218.11z M176.23,103.88c-5.69-8.67-11.72-16.55-15.65-26.28c-4.04-9.99-5.06-20.04-7.01-30.48
		c2.82,5.61,7.08,10.81,10.36,16.14c3.62,5.88,6.42,12.27,10.1,18.08c0.09,0.15,0.21,0.25,0.34,0.33c0.03,0.12,0.05,0.24,0.08,0.36
		c0.14,0.54,0.88,0.49,1.04,0c0.04-0.11,0.06-0.23,0.1-0.34c0.41-0.22,0.69-0.65,0.5-1.22c-0.03-0.1-0.07-0.19-0.1-0.29
		c0.73-3.26,0.76-6.73,1.29-10.02c0.69-4.28,1.68-8.49,2.92-12.64c2.17-7.27,5.21-14.15,9.01-20.68c1.21,7.77,1.97,15.6,2.39,23.45
		c0.43,8.12-0.56,16.93,0.57,25.03c-0.26,0.58-0.1,1.2,0.26,1.64c0.04,0.25,0.08,0.5,0.13,0.75c0.17,0.86,1.5,0.82,1.69,0
		c0.04-0.15,0.06-0.31,0.1-0.47c0.07-0.06,0.14-0.12,0.2-0.19c5.27-6.16,14.94-12.44,23.6-13.62c-4.84,9.05-12.72,16.13-18.04,24.87
		c-6.35,10.42-10.96,21.02-11.96,33.21c-1.53,18.6-1.53,37.42-1.39,56.07c0.02,2.98,0.07,5.97,0.11,8.95
		c-0.68-0.03-1.38,0.01-2.1,0.1c-0.14-15.76,0.16-31.52,0.68-47.27c0.27-8.08,1.86-17,0.15-24.97
		C184.02,117.09,180.3,110.09,176.23,103.88z M151.89,238.04c-2.56-0.84-3.25-4.19-1.94-6.34c0.48-0.8,1.72-1.63,2.83-1.77
		c0.12-0.4,0.4-0.72,0.89-0.8C158.93,228.36,157.61,239.91,151.89,238.04z M173.03,280.26c-0.52,3.3-2.29,6.2-4.12,8.93
		c-2.49,3.71-4.29,7.11-5.99,11.25c-0.44,1.07-1.89,0.91-2-0.27c-0.79-8.31,9.13-13.67,9.32-21.98c0.09-4.06-1.06-7.8-0.08-11.86
		c0.8-3.31,2.4-6.38,4.1-9.3c2.05-3.51,4.4-6.86,6.19-10.51c1.23-2.5,1.85-4.84,2.13-7.24c-0.63,1.1-1.36,2.18-2.17,3.26
		c-2.68,3.57-5.42,7.78-8.93,10.59c-2.25,1.8-5.01,2.96-7.07,4.99c-2.18,2.15-3.19,4.55-4.29,7.33c-1.35,3.4-2.69,6.54-5.89,8.54
		c-0.61,0.38-1.23-0.48-0.75-0.97c5.53-5.74,5.66-13.7,12.59-18.39c6.28-4.25,13.75-11.43,16.7-19.15c0-1.17-0.05-2.38-0.11-3.65
		c-0.02-0.41-0.04-0.82-0.06-1.24c-0.57,0.37-1.2,0.66-1.75,0.87c-1.57,0.61-3.21,0.89-4.65,1.82c-1.5,0.96-2.55,2.22-3.55,3.68
		c-0.51,0.74-1.66,0.09-1.22-0.71c1.05-1.93,2.72-3.51,4.65-4.54c2.06-1.1,4.71-1.2,6.44-2.73c-0.23-4.74-0.43-9.48-0.55-14.23
		c-0.01-0.42-0.03-0.84-0.05-1.27c-0.55,0.5-1.06,1.04-1.65,1.56c-0.74,0.65-2.72,2.12-3.61,1.07c-0.05-0.06-0.1-0.15-0.06-0.24
		c0.28-0.73,1.06-0.74,1.71-1.05c0.71-0.34,1.29-0.85,1.85-1.4c0.52-0.5,1.07-1.04,1.7-1.38c-0.2-4.32-0.48-8.82,0.36-12.98
		c0.15-0.73,1.29-0.7,1.45,0c1.21,5.31,0.74,11.2,0.94,16.64c0.21,5.69,0.45,11.38,0.82,17.06c0.56,8.61-1.68,14.36-6.19,21.66
		c-2.34,3.8-4.99,7.7-6.12,12.07C171.94,271.16,173.76,275.62,173.03,280.26z M189.7,320.91c-0.46,1.14-2.27,1.08-2.26-0.31
		c0.03-3.82,1.26-7.5,1.05-11.36c-0.21-3.77-2.09-6.5-3.13-9.98c-0.89-2.96-0.37-5.49,0.39-8.4c1.04-4,1.41-7.23,0.3-11.24
		c-1.56-5.63-4.39-10.81-3.19-16.81c0.65-3.23,2.08-6.26,2.7-9.5c0.68-3.54,0.34-7.2,0.71-10.78c0.07-0.65,1.02-0.87,1.2-0.16
		c1.65,6.53,0.71,11.63-1.21,18c-2.48,8.2,1.77,13.68,3.19,21.42c0.53,2.88,0.22,5.46-0.51,8.28c-0.5,1.92-1.38,3.8-1.35,5.83
		c0.04,2.53,1.41,4.22,2.28,6.38C192.12,307.84,191.94,315.34,189.7,320.91z M203.42,339.24c-1.46-0.02-2.73-1.09-2.74-2.6
		c-0.02-1.5,1.48-3.4,3.1-2.57c0.04,0.02,0.07,0.06,0.11,0.09c1.28,0.03,2.23,1.24,2.23,2.53
		C206.11,338.15,204.84,339.26,203.42,339.24z M217.8,258.7c-2.45-2.66-6.62-2.31-9.09-5.03c-1.27-1.4-1.62-3.17-2.52-4.79
		c-1.31-2.37-3.39-3.91-5.63-5.33c-3.15-2-7.78-4.48-10.36-7.88c0.58,6.9,1.97,13.12,6.26,19.48c1.84,2.72,3.36,5.31,3.77,8.62
		c0.67,5.45-0.63,10.57,3.63,15.09c2.67,2.83,7,5.42,3.98,10c-0.26,0.4-1.06,0.3-0.99-0.27c0.5-4.33-2.39-6.09-4.93-8.91
		c-1.76-1.96-2.88-4.28-3.38-6.87c-0.94-4.85,0.39-9.3-2.14-13.91c-1.73-3.16-4.14-5.81-5.63-9.12c-3.28-7.34-2.97-15.47-3.22-23.32
		c-0.28-8.92-0.52-17.85-0.67-26.77c-0.02-1.4,2.16-1.4,2.18,0c0.09,6.05,0.24,12.1,0.42,18.15c1.69,0.03,3.4,0.82,4.93,1.44
		c2.33,0.94,4.58,1.8,7.14,1.79c1.83-0.01,1.82,2.79,0,2.84c-4.19,0.12-8.09-2.01-11.99-3.4c0.08,2.62,0.15,5.25,0.25,7.87
		c0.01,0.26,0.02,0.52,0.03,0.78c3.21,8.71,11.37,9.51,17.02,15.66c2.54,2.77,2.65,6.55,6.33,8.33c2.47,1.2,4.76,1.34,6.74,3.44
		C221.24,257.99,219.11,260.12,217.8,258.7z M224.61,295.46c-0.33-1.43,0.46-3.84,2.24-3.79c0.32,0.01,0.62,0.17,0.84,0.4
		c1.27-0.42,2.66,0.71,3.02,2.05c0.45,1.66-0.65,3.33-2.34,3.62C226.73,298.03,225,297.15,224.61,295.46z M237.63,325.43
		c-1.02,0.67-2.5-0.34-3.62-0.47c-1.34-0.17-2.96,0.35-4.21-0.06c-0.2-0.07-0.32-0.3-0.2-0.49c0.84-1.32,3.13-1.44,4.54-1.33
		c1.31,0.1,3.59,0.3,3.76,1.89C237.93,325.15,237.78,325.33,237.63,325.43z M259.13,225.01c0.22-0.28,0.41-0.44,0.74-0.58
		c0.31-0.13,0.49-0.08,0.81-0.11c0.13-0.01,0.22,0.12,0.21,0.24c0.19-0.22,0.46-0.37,0.82-0.31c1.33,0.23,2.27,1.62,2.15,2.94
		c-0.14,1.41-1.45,2.27-2.8,2.17c-1.36-0.1-2.46-1.1-2.51-2.5C258.52,226.2,258.73,225.53,259.13,225.01z M249.12,263.19
		c-1.42,0.09-2.68-0.92-2.83-2.34c-0.06-0.64,0.1-1.29,0.46-1.83c0.37-0.55,0.83-0.77,1.43-0.86c0.11-0.23,0.32-0.42,0.67-0.45
		c1.53-0.14,2.88,1.26,2.94,2.76C251.84,261.97,250.56,263.1,249.12,263.19z M273.45,305.92c-1.93,0.22-4-1.23-4.01-3.29
		c-0.01-0.93,0.51-1.93,1.3-2.44c0.33-0.21,0.67-0.35,1.04-0.36c0.05-0.54,0.38-1.07,0.94-1.14c1.9-0.26,4.15,1.04,4.42,3.06
		C277.41,303.88,275.45,305.69,273.45,305.92z M278.12,279.49c-0.02,0.29-0.15,0.63-0.44,0.76c-1.36,0.63-2.09,0.59-3.45,0.03
		c-2.62-1.08-4.36-2.47-7.4-1.67c-1.85,0.49-2.69,1.4-4.37,2.11c-2.91,1.22-6.64,0.66-8.07-2.38c-0.11-0.23,0.12-0.49,0.35-0.35
		c3.35,1.88,5.43,1.92,8.74-0.02c1.21-0.71,2.23-1.31,3.63-1.56c1.53-0.27,3.2-0.13,4.67,0.4c1.82,0.65,3.62,2.53,5.77,1.6
		c0.26-0.11,0.64,0.01,0.62,0.35C278.15,278.99,278.14,279.24,278.12,279.49z M287.23,217.76c-0.56-1.02-1.46-1.79-2.57-2.16
		c-0.87-0.29-1.97,0-2.74-0.45c-0.15-0.09-0.19-0.28-0.11-0.43c0.58-1.09,2.58-0.84,3.57-0.53c1.45,0.44,2.62,1.38,3.36,2.69
		C289.29,217.86,287.77,218.74,287.23,217.76z"/>
	<path d="M229.64,222.4c1.25,0.1,2.08-0.88,1.83-2.09c-0.26-1.22-1.34-1.49-2.43-1.57c0,0,0,0-0.01,0
		c-0.47,0.38-0.84,0.76-1.02,1.35C227.68,221.29,228.42,222.3,229.64,222.4z"/>
</g>
</svg>
