<?xml version="1.0" encoding="utf-8"?>
<!-- Generator: Adobe Illustrator 24.1.1, SVG Export Plug-In . SVG Version: 6.00 Build 0)  -->
<svg version="1.1" id="Capa_1" xmlns="http://www.w3.org/2000/svg" xmlns:xlink="http://www.w3.org/1999/xlink" x="0px" y="0px"
	 viewBox="0 0 390.45 390.45" style="enable-background:new 0 0 390.45 390.45;" xml:space="preserve">
<style type="text/css">
	.st0{fill:none;stroke:#000000;stroke-width:3;stroke-miterlimit:10;}
</style>
<g>
	<path d="M182.74,116.11c-4.48-1-8.6-2.86-12.57-5.13c-2.38-1.36-4.46,1.68-2.8,3.63c4.63,5.48,10.99,8.85,18.05,9.98
		c3.95,0.63,7.15,0.19,8.28,4.48c1.2,4.54,0.72,10.25,1.04,14.94c1.32,18.93,2.59,37.87,4.05,56.79c0.42,5.4,8.84,5.48,8.49,0
		c-1.38-21.26-2.98-42.51-4.51-63.76c-0.54-7.52,0.18-16.5-8.54-19.22C190.53,116.67,186.52,116.95,182.74,116.11z"/>
	<path d="M116.31,106.16c0.14-1.79-1.79-2.88-3.33-2.54c-4.85,1.07-8.22,7.42-11.06,11.21c-2.96,3.94-6.99,9.21-7.07,14.33
		c-0.02,1.15,1.18,1.63,2.11,1.21c4.53-2.05,8.01-7.62,10.99-11.47C110.92,115.04,115.92,111.17,116.31,106.16z"/>
	<path d="M152.52,125.82c-8.45,11.52-16.27,23.51-24.28,35.33c-7.98,11.77-16.88,23.12-23.26,35.85c-0.71,1.42,1.05,2.93,2.26,1.74
		c10.08-9.94,17.89-22.01,26.12-33.48c8.51-11.86,17.03-23.78,24.61-36.26C160.12,125.45,154.86,122.61,152.52,125.82z"/>
	<path d="M180.53,136.93c-3.04,1.12-4.56,4.12-6.42,6.64c-2.11,2.85-3.82,5.92-5.53,9.02c-0.97,1.76,1.29,3.48,2.75,2.12
		c2.61-2.4,5.19-4.8,7.46-7.53c2.03-2.44,4.52-4.61,4.89-7.86C183.86,137.79,181.93,136.42,180.53,136.93z"/>
	<path d="M253.34,233.23c-4.89,10.58-9.7,21.05-13.66,31.99c-0.43,1.2,1.35,1.84,1.99,0.84c6.32-9.94,11.76-20.27,17.18-30.75
		c2.55-4.93,4.99-9.93,7.47-14.89c2.58-5.16,5.68-10.23,6.55-16.01c0.26-1.76-1.76-3.4-3.22-1.88c-3.83,3.97-5.86,8.98-8.23,13.88
		C258.71,222.02,255.95,227.59,253.34,233.23z"/>
	<path d="M286.94,232.22c5.11-7.42,10.08-15.63,12.42-24.42c0.86-3.24-4-5.53-5.58-2.35c-3.94,7.98-6.9,16.44-10.84,24.44
		C281.62,232.57,285.25,234.68,286.94,232.22z"/>
	<path d="M205.28,107.08c0.51-8.1-2.67-17.27-5.33-24.81c-0.57-1.6-2.62-1.2-2.82,0.38c-1.09,8.41-0.01,18.73,5.7,25.44
		C203.7,109.12,205.21,108.22,205.28,107.08z"/>
	<path d="M213.38,82.7c0.93,0.95,2.36,0.17,2.45-1.02c0.13-1.58-0.71-3.3-1.32-4.74c-0.71-1.65-1.52-3.27-2.28-4.9
		c-0.6-1.29-2.58-0.36-2.24,0.95c0.45,1.76,0.82,3.55,1.35,5.29C211.8,79.79,212.27,81.55,213.38,82.7z"/>
	<path d="M219.37,149.27c3.82-4.07,7.11-8.08,7.09-13.99c0-1.42-1.98-2.44-2.99-1.24c-1.67,1.97-2.85,4.05-3.86,6.44
		c-1.05,2.47-1.58,4.99-2.46,7.49C216.7,149.24,218.49,150.21,219.37,149.27z"/>
	<path d="M354.88,249.87c-7.83-4.23-18.22-6.26-27.14-6.58c1.72-8.83,1.38-18.45,0.86-26.55c-1.02-15.95-3.87-32.09-6.37-47.87
		c-2.52-15.92-1.97-30.86,0.18-46.78c0.94-7,1.7-14.15,0.48-21.17c-0.85-4.84-2.87-10.52-7.16-12.98c0.02-0.45,0-0.91-0.09-1.38
		c-1.39-7.01-11.55-7.72-17.03-9.16c-8.63-2.27-17.28-4.44-25.93-6.65c-16.65-4.25-33.24-8.68-49.86-13.07
		c-7.48-1.97-15.15-3.95-22.95-3.81c-8.22,0.15-16.25,2.42-24.18,4.39c-8.4,2.09-16.8,4.17-25.21,6.23
		c-8.37,2.05-17.69,3.4-25.19,7.86c-1.45,0.86-0.73,2.88,0.81,3.01c8.12,0.65,16.44-1.95,24.29-3.66
		c8.47-1.85,16.94-3.68,25.41-5.51c8.49-1.83,17.25-4.28,26.01-3.93c8.55,0.33,17.12,3.69,25.34,5.84
		c16.63,4.35,33.15,8.99,49.71,13.6c8.28,2.3,16.55,4.59,24.85,6.84c1.96,0.53,3.76,0.84,5.36,1.98c0.28,0.2,0.78,0.49,1.18,0.72
		c0.58,0.43,1.04,0.85,1.57,1.12c0.06,0.15,0.11,0.31,0.18,0.46c-3.98,2.06-8.18,3.98-12.7,4.04c-4.28,0.06-7.71-1.61-11.49,1.2
		c-2.04,1.51-3.18,2.41-5.88,1.97c-1.77-0.29-3.42-1.04-5.22-1.26c-2.29-0.28-4.35,0.05-6.24,0.89c-0.77-0.41-1.7-0.57-2.79-0.27
		c-8.74,2.42-17.48,4.8-26.25,7.1c-4.31,1.13-8.58,2.37-12.85,3.62c-4.12,1.2-8.74,1.98-12.3,4.46c-2.11,1.47-1.26,4.47,1.27,4.7
		c4.05,0.37,8.1-1.08,12.01-2.01c4.64-1.1,9.28-2.2,13.89-3.43c8.76-2.34,17.54-4.59,26.33-6.81c0.74-0.19,1.31-0.53,1.75-0.96
		c3.82-1.32,7.19,0.96,11.21,1.59c4.55,0.72,5.99-1.73,9.77-3.33c2.18-0.93,4.38-0.08,6.78-0.11c2.01-0.03,4.03-0.35,5.97-0.85
		c3.54-0.92,6.85-2.52,10.05-4.28c0.13,0.3,0.25,0.59,0.36,0.9c1.04,3.14,1.25,6.49,1.19,9.77c-0.14,7.48-1.92,14.83-2.86,22.23
		c-2.25,17.81,0.01,36.48,2.64,54.13c1.38,9.27,2.38,18.56,3.05,27.9c0.63,8.85,1.28,18.2-0.32,26.97
		c-1.44,7.9-5.15,14.41-12.26,18.34c-0.46-0.03-0.94,0-1.45,0.14c-9.67,2.71-19.24,6.84-28.57,10.56
		c-8.18,3.26-16.49,6.35-24.39,10.26c-7.38,3.64-13.98,8.08-20.33,13.3c-5.38,4.42-10.77,9.57-17.22,12.44
		c0.72-2.46,0.89-5.15,0.54-7.74c-0.64-4.69-2.6-9.04-3.7-13.62c-1.38-5.75-1.89-12.17-1.74-18.08c0.04-1.84-2.67-2.16-3.17-0.43
		c-2.14,7.48-2.32,14.3-0.55,21.89c1.19,5.08,6.03,16.25,0.4,20.02c-7.59,0.4-14.92-3-21.96-6c-9.06-3.86-18.18-7.62-27.15-11.68
		c-8.96-4.05-17.84-8.25-26.85-12.2c-7.59-3.32-16.15-7.95-24.63-8.84c-0.51-0.34-1.01-0.69-1.5-1.06
		c-5.1-3.84-9.95-8.52-12.56-14.44c-3.37-7.62-2.8-16.65-3.09-24.79c-0.33-8.94-0.26-17.88-0.57-26.82
		c-0.62-17.55-0.79-35.1-1.36-52.65c-0.29-8.94-0.26-17.88-0.47-26.82c-0.17-7.41-1.58-16.05,1.56-23.01
		c2.89-6.41,9.15-9.69,15.52-11.8c6.47-2.14,13.91-1.98,19.86-5.35c2.15-1.22,1.45-4.18-0.64-4.94c-6.3-2.27-13.99-0.4-20.28,1.27
		c-6.16,1.63-12.26,4.51-16.84,9.03c-12.1,11.96-8.45,32.42-7.93,47.71c0.7,20.51,1.08,41.07,1.4,61.59
		c0.16,9.94,0.65,19.86,0.89,29.8c0.16,6.67-0.1,13.59,0.98,20.25c-10.68,1.13-21.46,1.64-31.84,4.68
		c-6.36,1.87-13.65,4.73-14.32,12.14c-0.87,9.61,6.34,15.51,14.95,17.69c11.17,2.83,25.47-2.48,35.63,3.74
		c-5.33,4.02-6.08,12.27-2.92,18.26c5.57,10.59,18.06,15.45,29.25,16.97c5.88,0.8,12.3,0.94,18.08-0.58
		c4.09-1.08,7.43-3.74,11.64-4.47c9.33-1.62,17.64,3.42,25.34,9.04c-0.17,0.56-0.08,1.18,0.45,1.65
		c23.56,20.91,56.46,3.03,76.88-12.98c6.44-5.05,12.96-10.07,20.42-13.55c7.57-3.52,14.95-4.27,23.09-3.96
		c0.23,0.65,0.95,1.89,0.95,1.88c0.73,1.15,1.3,2.29,2.26,3.27c1.85,1.88,4.32,2.81,6.89,3.18c5.91,0.85,12.17-1.24,16.89-4.76
		c3.93-2.93,9.97-9.26,7.76-14.71c-1.79-4.42-7.64-3.94-10.46-6.69c12.95-9.2,32.43,0.72,44.61-10.56
		C360.19,262.58,362.3,253.87,354.88,249.87z M350.79,265.88c-2.61,1.84-5.78,2.69-8.9,3.18c-12.23,1.9-25.6-1.31-35.96,7.14
		c-0.78,0.63-0.67,1.73-0.33,2.53c0.93,2.19,2.63,3.32,4.73,4.31c3.02,1.43,7.21,1.35,5.94,6.31c-1.99,7.78-16.12,14.27-23.09,9.83
		c-2.4-1.53-3.02-6.03-5.66-7.09c-1.58-0.63-3.95-0.53-5.71-0.66c-7.64-0.54-15.16,1.73-21.95,5.07
		c-15.27,7.52-27.19,20.38-42.42,28.06c-13.43,6.77-28.31,8.64-41.87,3.19c-7.04-5.66-14.32-11.47-22.84-14.53
		c-7.85-2.82-14.71-1.81-22,1.65c-9.96,4.72-24.15,2.65-33.83-1.9c-4.87-2.29-10.28-6.13-12.72-11.11
		c-2.3-4.71-1.72-12.1,3.94-14.04c1.35-0.46,2.18-2.38,0.91-3.45c-6.7-5.65-15.3-5.91-23.69-5.69c-9.44,0.25-27.44,1.35-28.77-11.64
		c-0.45-4.38,1.05-6.69,4.84-8.6c3.87-1.95,7.88-3.22,12.08-4.24c8.67-2.1,17.63-2.57,26.47-3.65c0.26,1.07,0.55,2.13,0.9,3.18
		c2.65,7.94,7.94,14.11,14.6,19.02c5.98,4.41,14.28,9.76,21.85,10.29c0.49,0.03,0.9-0.09,1.23-0.31c0.56,0.27,1.12,0.53,1.67,0.8
		c7.36,3.58,14.84,6.95,22.33,10.25c14.61,6.44,28.74,14.3,43.61,20.1c13.6,5.3,26.74,4.91,38.9-3.52
		c5.16-3.58,9.74-7.87,14.56-11.88c5.63-4.68,11.83-8.29,18.54-11.19c12.75-5.5,26.22-9.52,39.08-14.82
		c2.77-0.69,5.47-1.67,7.83-2.55c5.78-2.16,11.31-5.18,15.35-9.96c3.25-3.84,5.33-8.51,6.64-13.55c8.31,0.73,16.1,2.89,23.89,5.88
		c4.05,1.56,6.33,4.64,3.98,9.09C353.96,263.14,352.45,264.71,350.79,265.88z"/>
	<path d="M275.9,305.98c-0.05-0.01-0.11-0.02-0.17-0.02c-6.49,0.62-16.77,3.89-20.58,9.65c-4.72,7.13,4.97,8.76,9.9,8.53
		c6.07-0.29,15.38-2.36,17.33-9.21C283.56,310.79,280.33,304.88,275.9,305.98z M274.15,318.26c-3.14,1.55-9.12,3.26-12.51,2.21
		c-7.56-2.34,3.01-7.93,4.89-8.87c2.5-1.24,5.09-2.33,7.66-3.45c0.15,0.25,0.37,0.46,0.68,0.55
		C280.93,310.45,278.47,316.14,274.15,318.26z"/>
	<path d="M143.48,261c2.85,3.13,8.68,4.89,11.74,1.01c4.08-5.16,2.87-15.12,0.31-20.55c-0.4-0.84-1.65-0.38-1.67,0.45
		c-0.1,4.3,1.62,17.74-4.64,18.19c-2.44,0.18-4.41-4.1-4.82-5.88c-0.69-2.93,0.1-5.94,1.29-8.63c3.35-7.62,10.95-15.57,7.6-24.48
		c-0.54-1.44-3.01-1.39-2.89,0.39c0.65,9.71-5.8,15.53-8.97,23.98C139.52,250.64,139.6,256.73,143.48,261z"/>
	<path d="M272.12,167.51c-1.31-2.13-1.07-5.37-1.35-7.75c-0.29-2.51-0.72-4.96-1.45-7.38c-0.38-1.28-2.07-0.92-2.2,0.3
		c-0.57,5.23-0.99,14.22,2.76,18.63c3.05,3.59,8.28,2.67,10.85-1.03c3.28-4.73,1.03-11.15-1.11-15.82
		c-3.15-6.85-6.97-12.65-7.81-20.35c-0.06-0.56-0.92-0.99-1.21-0.33c-3.1,6.99,1.62,13.76,4.7,19.91c1.08,2.17,2.14,4.4,2.7,6.78
		c0.28,1.19,0.66,2.68,0.5,3.89C278.07,167.45,275.06,172.29,272.12,167.51z"/>
</g>
</svg>
