<?xml version="1.0" encoding="utf-8"?>
<!-- Generator: Adobe Illustrator 24.1.1, SVG Export Plug-In . SVG Version: 6.00 Build 0)  -->
<svg version="1.1" id="Capa_1" xmlns="http://www.w3.org/2000/svg" xmlns:xlink="http://www.w3.org/1999/xlink" x="0px" y="0px"
	 viewBox="0 0 387.45 387.45" style="enable-background:new 0 0 387.45 387.45;" xml:space="preserve">
<style type="text/css">
	.st0{fill:#FFFFFF;stroke:#000000;stroke-width:3;stroke-linecap:round;stroke-linejoin:round;stroke-miterlimit:10;}
	.st1{fill:none;stroke:#000000;stroke-width:2;stroke-linecap:round;stroke-linejoin:round;stroke-miterlimit:10;}
	.st2{fill:none;stroke:#000000;stroke-width:3;stroke-linecap:round;stroke-linejoin:round;stroke-miterlimit:10;}
	.st3{fill:none;stroke:#000000;stroke-width:7;stroke-linecap:round;stroke-linejoin:round;stroke-miterlimit:10;}
	.st4{fill:none;stroke:#000000;stroke-width:5;stroke-linecap:round;stroke-linejoin:round;}
	.st5{fill:none;stroke:#000000;stroke-width:3;stroke-miterlimit:10;}
	.st6{fill:none;stroke:#000000;stroke-width:10;stroke-linecap:round;stroke-linejoin:round;stroke-miterlimit:10;}
	.st7{fill:#FFFFFF;}
</style>
<g>
	<path d="M341.74,232.65c9.62-9.15,5.45-24.16-6.5-28.61c2.32-5.71-2.03-11.51-7.57-14.55c-6.42-3.53-14.01-3.72-20.73-1.19
		c-1.97-4.87-6.29-8.38-11.69-9.07c-2.71-0.35-5.48,0.03-7.99,1.09c-2.58,1.08-2.38,1.73-4.29-0.34c-1.06-1.16-1.8-2.53-2.95-3.66
		c-9.36-9.12-24.4-7.34-32.1,2.73c-11.45-2.03-22.6,3.73-28.33,13.84c-1.31,2.31-2.34,4.82-3.08,7.36c-0.37,1.26-0.4,2.9-0.95,4.08
		c-0.99,2.12-3.43,3.35-5.16,4.8c-3.94,3.32-6.64,8.09-7.49,13.17c-0.98,5.89,2.24,11.05,1.3,16.74c-0.94,5.7-1.71,10.87-0.09,16.58
		c0.75,2.66,1.9,5.23,3.45,7.52c1.59,2.36,4.28,4.02,5.7,6.38c1.3,2.17,1.13,5.06,2.35,7.4c1.15,2.22,2.86,4.16,4.85,5.65
		c4.43,3.3,8.75,3.64,13.58,1.21c3.39-1.7,5.59-2.47,9.37-2.55c2.06-0.04,3.71-0.71,5.13-1.9c3.87,4.81,11.22,4.93,14.87,0.37
		c0.24,1.13,0.44,2.29,0.56,3.49c0.72,6.96,0.28,14.14,0,21.11c-0.28,6.91,0.01,14.71-2.38,21.28c-2.64,7.26-8.1,14.04-12.45,20.35
		c-0.77,1.12,0.07,2.49,1.17,2.88c14.79,5.25,32.22,4.56,47.31,0.77c1.46-0.37,2.01-2.06,1.35-3.31
		c-3.34-6.33-7.84-12.14-9.77-19.11c-2.29-8.29-2.5-17.24-3.04-25.78c-0.4-6.43-0.55-12.92-0.04-19.29c1.4-0.54,2.69-1.19,4.09-1.76
		c2.56-1.04,3.19-0.46,5.64,0.88c2.44,1.34,4.92,2.76,7.74,3.05c2.53,0.26,5.27-0.24,7.32-1.82c0.92-0.71,1.57-1.51,2.06-2.56
		c0.29-0.58,0.47-1.19,0.59-1.82c0.11,0.06,0.31,0.1,0.63,0.1c1.56-0.03,3.67,1.07,5.3,1.29c1.75,0.23,3.47,0.28,5.23,0.06
		c2.74-0.34,5.41-1.29,7.53-3.09c3.53-2.99,5.14-7.61,3.75-11.84c5.59-2.78,10.97-6.44,11.87-13.15
		C348.77,244.74,345.63,238.05,341.74,232.65z M281.74,301.37c0.55,8.92,0.78,18.31,3.13,26.98c1.74,6.43,5.39,11.94,8.73,17.62
		c-12.87,3.14-26.91,3.72-39.65-0.11c4.19-6.04,8.79-12.48,11.29-19.29c2.65-7.21,2.25-15.71,2.47-23.26
		c0.42-14.2,1.31-31.23-10.2-41.73c1.32-1.56,2.39-3.4,3.17-5.33c2.72,4.35,7.42,8.04,11.02,11.34c0.79,0.73,2.24,0.7,2.78-0.36
		c1.79-3.56,3.66-7.08,5.92-10.37c2.21-3.23,5.1-5.95,7.21-9.22c1.31,0.82,2.51,2.42,3.68,3.87
		C281.46,266.36,280.68,284.12,281.74,301.37z M343.42,249.83c-0.31,6.43-6.58,9.3-11.65,11.67c-1.11,0.52-1.45,2.18-0.83,3.17
		c4.66,7.39-6.14,11.12-11.77,10.1c-3.28-0.6-7.09-3.32-9.42,0.34c-0.47,0.74-0.36,1.88-0.8,2.56c-1.09,1.7-3.19,2.27-5.04,2.03
		c-2.85-0.36-5.28-2.14-7.78-3.44c-1.37-0.71-3.06-1.72-4.67-1.53c-1.54,0.19-3.18,1.22-4.77,2.15c1.13-7.81,3.48-15.36,7.83-22.3
		c2.27,1.47,4.74,2.14,7.54,2.32c1.63,0.1,2.23-2.31,0.83-3.06c-2.91-1.57-6.1-1.55-8.76-3.82c-1.84-1.57-2.89-4.4-4.84-5.66
		c-1.17-0.75-2.08-0.19-3.44,0.02c-5.34,0.85-7.85-0.75-11.49-4.33c-0.43-0.43-1.23-0.12-1.22,0.5c0.04,2.32,1.43,3.86,3.36,5.11
		c1.33,0.86,2.86,1.37,4.42,1.62c0.71,0.11,1.48,0.06,2.25-0.02c-4.54,4.43-7.96,10.6-10.78,16.24c-3.54-3.32-6.88-7.3-10.82-9.94
		c0.55-2.18,0.7-4.35,0.39-6.25c-0.28-1.66-2.52-1.02-2.69,0.36c-0.5,4.05-1.33,8.85-4.09,12.05c-2.07,2.4-5.32,2.83-7.51,4.94
		c-0.56,0.54-0.11,1.43,0.61,1.47c2.93,0.16,5.56-1.03,7.72-2.97c2.56,4.3,4.92,8.41,6.44,12.96c-2.48,5.07-9.65,5.04-12.16-0.34
		c-0.45-0.96-2-1.12-2.67-0.34c-2.78,3.19-5.58,1.5-8.96,2.31c-2.33,0.56-4.27,1.94-6.38,2.99c-7.86,3.9-13.27-3.33-14.96-10.17
		c-0.59-2.37-1.46-3.42-3.2-5.16c-2.8-2.78-4.96-5.52-6.27-9.32c-2.36-6.81-0.54-12.16,0.43-18.87c0.39-2.7-1.01-4.63-1.68-7.16
		c-0.82-3.07-0.67-6.37,0.24-9.4c0.99-3.33,2.9-6.36,5.51-8.66c2.05-1.8,4.72-2.69,6.01-5.22c1.06-2.09,1.14-4.83,1.91-7.05
		c1.23-3.54,3.05-6.89,5.52-9.72c5.59-6.39,14.09-9.45,22.43-7.66c0.74,0.16,1.39-0.12,1.81-0.74c3.75-5.55,10.26-8.56,16.94-7.69
		c3.08,0.4,5.9,1.56,8.39,3.42c2.53,1.89,3.56,4.31,5.43,6.69c1.85,2.35,3.46,2.19,5.95,0.97c6.89-3.37,15.09-2.03,17.11,6.48
		c0.32,1.33,1.8,1.69,2.9,1.18c4.39-2.05,9.27-2.6,14-1.45c4.43,1.07,14.86,6.5,9.64,12.62c-1,1.18-0.77,3.3,0.97,3.68
		c11.56,2.55,15.37,15.75,5.74,23.23c-1.05,0.81-0.68,2.35,0,3.21C340.49,238.25,343.69,244.12,343.42,249.83z"/>
	<path d="M232.81,231.5c-0.59,0.11-0.96,0.55-1.11,1.07c-7.05,1.26-4.96,15.47,3.44,13.89c3.88-0.73,5.84-5.45,5.52-9.04
		C240.33,233.71,236.42,230.85,232.81,231.5z"/>
	<path d="M258.53,203.57c-0.06,0.07-0.11,0.15-0.15,0.23c-2.99,1.19-3.59,5.91-2.62,8.68c1.29,3.68,5.76,5.86,9.28,3.72
		c3.39-2.06,5.77-6.67,3.09-10.13C266.36,203.77,260.96,200.76,258.53,203.57z"/>
	<path d="M316.43,219.9c-0.09,0.04-0.16,0.09-0.24,0.15c-3.17-0.58-5.89,4.28-5.87,6.95c0.02,4.07,3.51,7.03,7.43,7.2
		c4.08,0.18,8.1-2.86,7.26-7.23C324.28,223.18,320.85,218.04,316.43,219.9z"/>
	<path d="M109.96,99.47c6.21-1.33,10.54-7.63,9.43-13.9c-1.12-6.36-7.78-10.77-13.32-6.6c-5.06-0.23-7.86,7.04-7.6,11.18
		C98.83,96.13,103.93,100.76,109.96,99.47z M101.89,86.93c0.6-2.6,2.2-3.88,3.88-5.43c0.28,0.16,0.61,0.24,0.94,0.19
		c2.59-0.39,4.88-1.56,7.27,0.36c1.64,1.32,2.08,4.47,1.92,6.42c-0.37,4.48-5.62,9.56-10.35,7.38
		C102.26,94.33,101.12,90.25,101.89,86.93z"/>
	<path d="M82.56,140.18c-5.94,2.15-14.38,9.77-12.04,16.86c0.15,0.47,0.59,0.62,0.97,0.49c4.43,3.09,13.91,0.67,18.45-0.85
		c4.35-1.46,8.88-3.77,11.14-7.84c1.58,2.96,3.78,5.54,5.3,8.54c0.19,0.38,0.37,0.77,0.54,1.17c0,0.34,0.13,0.68,0.39,0.95
		c1.32,3.36,1.91,6.98,1.92,10.6c0.02,7.98-2.53,15.78-4.88,23.33c-0.41,1.31,1.54,2.12,2.21,0.93c5.46-9.63,8.39-21.87,5.5-32.8
		c4.75,1.07,10.51,0.4,14.64-0.49c4.8-1.04,12.51-3.65,14.91-8.47c0.44-0.37,0.66-1.06,0.4-1.65c-2.75-6.08-12.01-8.35-18.05-7.36
		c-6.09,0.99-12.57,5.56-14.3,11.71c-1.46-2.74-3.45-5.14-4.92-7.87c-2.35-4.36-2.92-9.41-2.99-14.29
		c-0.06-4.32,0.47-8.61,1.62-12.78c0.46-1.65,1.08-3.25,1.71-4.85c0.15,0.66,0.32,1.32,0.5,2.01c0.85,3.38,1.14,6.84,3.72,9.39
		c5.08,5.04,12.88,9.28,19.97,6.24c7.03-3.01,11.71-8.86,10.63-16.69c-0.57-4.15-2.27-8.24-4.68-11.83c3.65,0.6,7.42,0.14,10.65-1.9
		c5.91-3.73,9.37-12.57,8.89-19.34c-0.94-13.27-15.19-17.52-25.23-11.94c1.02-2.9,1.5-6.08,1.57-8.41
		c0.19-5.99-1.82-11.95-7.69-14.42c-7.74-3.26-16.57,2.19-20.46,9.57c-1.49-2.65-3.65-4.94-5.68-6.04
		c-6.42-3.46-14.45-1.31-19.02,4.12c-4.53,5.38-6.57,14.51-3.48,21.08c1.52,3.25,5.17,7.16,9.14,9.13
		c-10.94,4.59-16,20.92-8.39,30.8c4.67,6.08,13.26,7.75,20.28,5.24c1.1-0.39,2.28-1.01,3.47-1.79c-0.56,2.34-0.94,4.68-1.2,6.82
		c-0.55,4.38-0.54,8.92,0.3,13.29C93.66,138.47,86.45,138.78,82.56,140.18z M111.57,157.39c3.42-5.34,7.18-10.2,14.04-10.86
		c5.58-0.54,8.94,2.17,12.97,4.95c-1.36,0.82-2.58,1.87-4.02,2.66c-2.76,1.51-5.77,2.65-8.82,3.39c-3.11,0.76-6.28,1.13-9.47,0.93
		c-1.68-0.1-3.32-0.49-4.96-0.8C111.4,157.6,111.49,157.51,111.57,157.39z M96.77,117.19c-5.57,3.45-14.1,2.77-18.08-2.83
		c-3.6-5.06-3.12-12.57,0-17.76c2.89-4.81,7.9-7.35,13.02-9.15c1.19-0.42,0.95-2.05-0.29-2.15c-0.34-0.03-0.67-0.03-1.01-0.04
		c-2.74-3.11-7.4-3.63-10.18-7.23c-3.76-4.87-3.33-12.42-0.04-17.47c3.31-5.07,10.2-7.83,15.68-4.58c2.96,1.75,4.24,4.6,4.92,7.82
		c0.07,0.35,0.13,0.65,0.17,0.93c-0.08,1.08-0.05,2.17,0.13,3.24c0.27,1.58,2.59,1.7,3.32,0.43c1.76-3.09,1.87-6.76,3.79-9.87
		c2.79-4.51,8.19-7.86,13.54-5.96c5.46,1.94,5.89,7.73,5.33,12.77c-0.48,4.36-3.26,7.71-3.85,11.81c-0.08,0.6,0.29,1.1,0.8,1.16
		c0.46,0.65,1.34,0.98,2.32,0.51c4.61-2.21,7.95-5.8,13.48-5.84c6.35-0.05,10.72,4.99,11.05,11.11c0.29,5.24-2.74,11.99-7.16,14.96
		c-4.15,2.79-8.72,1.88-13,0.26c-0.69-0.65-1.4-1.26-2.14-1.83c-0.9-0.7-1.89-0.36-2.5,0.36c-1.04,0.38-1.47,1.86-0.28,2.74
		c0.06,0.05,0.13,0.09,0.2,0.14c0.02,0.02,0.03,0.03,0.04,0.05c7.76,7.64,15.85,22.46,1.6,28.51c-5.17,2.19-13.74-1.48-16.73-6.39
		c-2.47-4.06-2.01-9.81-3.76-14.13c-0.01-0.03-0.04-0.06-0.05-0.09c-0.04-0.52-0.11-1.04-0.26-1.56c-0.29-0.95-1.73-1.56-2.44-0.65
		C101.56,110.08,101.07,114.53,96.77,117.19z M98.48,145.27c-0.13,0.17-0.25,0.36-0.33,0.6c-1.49,4.32-6.95,6.47-10.9,7.7
		c-2.38,0.74-4.81,1.24-7.3,1.47c-0.62,0.06-6.54,0.56-6.7,0.28c-0.03-0.06-0.08-0.09-0.12-0.14c0.89-1.78,1.53-3.7,2.66-5.37
		c2.02-2.99,4.95-5.32,8.39-6.46c3.12-1.03,6.46-0.98,9.63-0.18C95.48,143.59,96.96,144.52,98.48,145.27z"/>
	<path d="M163.24,329.75c-2.81,0.33-5.21,0.78-7.98-0.1c-1.61-0.51-3.01-1.37-4.68-1.66c-2.99-0.53-5.77,0.53-8.74,0.7
		c-3.07,0.18-6.12-0.39-9.12-1c-4.73-0.96-9.15-1.81-13.99-1.19c-3.21,0.41-5.85,2.05-8.66,3.1c0.23-2.93,0.51-5.87,0.84-8.82
		c0.72-2.9,1.36-5.84,2.35-8.53c2.36-6.42,5.61-12.72,10.34-17.73c9.25-9.81,24.36-12.72,31.15-25.16
		c6.24-11.43-5.81-17.63-15.82-14.82c-11.34,3.18-18.7,13.78-22.67,24.26c-2.74,7.22-4.38,14.91-5.89,22.51
		c-0.03-6.72-0.71-13.46-2.08-20.03c-2.93-14.07-9.78-28.53-21.55-37.32c-9.55-7.13-26.72-9-32.11,4.43
		c-6.08,15.16,11.56,24.55,21.78,30.9c16.93,10.5,31.56,30.12,27.44,50.88c-0.04,0.18-0.05,0.36-0.05,0.53
		c-4.39,0.5-8.6,1.63-13.1,0.64c-4.44-0.97-8.63-2.92-13.21-3.26c-5.27-0.39-10.03,1.95-15.06,3.15c-5.44,1.3-11.03,1.69-16.52,2.77
		c-0.44,0.09-0.45,0.82,0,0.89c4.67,0.82,9.11,0.49,13.75-0.33c6.23-1.1,12.6-4.16,18.98-2.97c4.94,0.92,9.5,3.28,14.53,3.86
		c4.89,0.56,9.68-1.08,14.54-1.07c1.9,0,2.97-0.5,4.64-1.37c2.9-1.52,5.47-2.43,8.79-2.31c5.48,0.19,10.8,2.09,16.24,2.64
		c2.66,0.27,5.1,0.14,7.73-0.25c3.27-0.48,5.37,0.1,8.47,0.97c3.7,1.04,7.75,0.75,10.57-2.04
		C164.92,331.27,164.42,329.61,163.24,329.75z M119.82,280.69c2.75-7.39,6.81-14.59,13.5-19.08c2.64-1.78,5.62-3.24,8.76-3.85
		c6.52-1.26,12.88,3.03,8.46,10.06c-4.05,6.44-11.29,10.14-17.67,13.83c-5.9,3.42-11.43,7.4-15.69,12.8
		c-0.89,1.12-1.71,2.3-2.47,3.51C116.07,292.07,117.74,286.29,119.82,280.69z M106.27,306.96c-1.77-4.46-4.22-8.74-7.18-12.81
		c-3.77-5.18-8.17-9.87-13.17-13.88c-5.25-4.2-11.18-7.18-16.77-10.86c-6.16-4.06-13.42-11.36-10-19.45
		c3.4-8.02,13.85-8.08,20.5-4.82c12.65,6.2,20.35,21.13,23.92,34.11C106.13,288.49,106.65,297.72,106.27,306.96z"/>
	<path d="M248.86,123.7c-0.12,0.28-0.24,0.55-0.36,0.82c-2.1,4.93-6.11,11.52-5.73,16.93c0.08,1.22,1.52,1.93,2.46,1.02
		c3.95-3.85,5.38-11.14,7.4-16.21c0.15-0.37,0.3-0.73,0.45-1.09c3.43,6.29,10.61,11.34,16.63,13.95c8.88,3.84,18.74,2.48,27-2.28
		c9.48-5.47,15.4-14.44,20.56-23.81c5.54-10.07,9.96-20.83,10.01-32.48c0.01-1.3-1.26-1.78-2.2-1.44c-0.03-0.01-0.06-0.04-0.09-0.05
		c-11.47-3.18-25.42,0.78-36.6,4.72c2.88-6.78,4-15.17,5.23-22.12c1.51-8.58,2.55-17.34,2.79-26.05c0.03-1.04-1.28-1.9-2.19-1.26
		c-8.35,5.94-16.3,12.53-23.48,19.85c-6.48,6.61-13.34,14.15-18.13,22.24c-1.31-2.43-3.88-4.76-5.39-6.48
		c-3.22-3.67-6.36-7.69-9.89-11.06c-0.64-0.61-1.54-0.24-1.8,0.42c-7.76,3.55-13.87,15.05-17.45,22.11
		c-4.58,9.04-6.05,20.07-2.27,29.66C220.35,122.68,237.05,126.98,248.86,123.7z M222.01,80.22c2.24-4.04,4.79-8.04,7.68-11.66
		c2.01-2.52,4.66-4.6,6.6-7.16c2.25,3.46,5.38,6.45,8.05,9.55c1.68,1.95,3.32,3.94,4.82,6.03c1.07,1.5,1.45,2.4,2.91,3.08
		c0.07,0.04,0.13,0.07,0.2,0.09c0.09,0.04,0.17,0.08,0.26,0.11c0.41,0.15,0.75-0.18,0.85-0.54c6.26-7.69,11.81-15.73,18.74-22.91
		c6.53-6.75,13.58-12.85,21.21-18.29c-0.45,8.14-1.24,16.17-2.78,24.21c-1.51,7.87-4.86,15.71-5.82,23.59
		c-0.13,1.06,1.31,1.42,1.96,0.78c0.01,0,0.01,0,0.02,0c6.03-1.77,11.95-3.84,18.13-5.04c6.58-1.28,12.65-0.9,19.22-0.8
		c-0.2,9.97-3.75,19.11-8.41,27.83c-4.46,8.34-9.31,17.31-17.2,22.87c-7.17,5.05-16.64,8.08-25.25,5.32
		c-8.55-2.75-13.81-8.65-18.7-15.6c1.17-2.88,2.36-5.76,3.56-8.62c3.73,1.36,8.02,1.68,11.88,2.15c0.35,2.18,2.19,4.47,3.38,6.04
		c1.98,2.62,4.23,5.24,6.81,7.29c0.46,0.37,1.17-0.08,0.85-0.66c-1.38-2.52-3.49-4.56-5.28-6.79c-1.05-1.31-2.07-2.67-2.92-4.12
		c-0.3-0.51-0.52-1.03-0.76-1.53c4.68,0.48,9.38,0.51,14.01-0.49c9.42-2.04,18.68-6.59,24.42-14.51c0.32-0.43-0.33-0.83-0.69-0.53
		c-6.87,5.63-14.91,10.22-23.65,12.18c0.52-1.07,0.83-2.39,1.21-3.28c0.69-1.63,1.56-3.48,1.54-5.29c-0.01-0.58-0.81-0.82-1.1-0.3
		c-1.02,1.8-1.81,3.81-2.65,5.7c-0.45,1.03-1.24,2.4-1.16,3.6c-0.07,0.01-0.13,0.03-0.2,0.04c-4.75,0.79-9.71,0.37-14.45-0.21
		c-3.38-0.41-6.91-1.35-10.37-1.36c0.6-1.41,1.18-2.83,1.79-4.23c1.65-3.83,3.36-7.63,5.1-11.42c1.47-0.46,2.85-1.24,4.21-1.95
		c1.62-0.86,3.29-1.74,4.6-3.04c0.34-0.34,0-0.98-0.48-0.83c-1.66,0.5-3.15,1.41-4.67,2.21c-0.84,0.44-1.71,0.83-2.57,1.25
		c3.56-7.73,7.18-15.42,10.59-23.22c0.32-0.72-0.64-1.33-1.08-0.63c-6.99,10.98-12.87,22.7-18.46,34.45
		c-0.21-2.24-0.75-4.5-1.14-6.68c-0.62-3.52-1.19-7.04-2.39-10.42c-0.15-0.43-0.83-0.39-0.83,0.11c0.03,3.41,0.63,6.72,1.21,10.07
		c0.54,3.1,0.84,6.4,2,9.33c-1.37,2.9-2.71,5.82-4.02,8.76c-9.86-3.63-15.03-10.93-17.59-19.83c2.31-3.18,4.5-6.62,5.92-10.25
		c0.15-0.39-0.41-0.66-0.67-0.39c-2.28,2.34-4.22,5.12-5.93,7.98c-0.98-4.36-1.43-9.04-1.56-13.81c-0.02-0.79-1.23-1.01-1.42-0.19
		c-2.08,9.1-0.55,19.01,4.4,26.96c0.91,1.46,2.05,3.01,3.37,4.5c-1.9-0.25-3.96,0.01-5.81-0.33c-3.5-0.63-6.71-2.21-10.12-3.17
		c-0.79-0.22-1.17,0.84-0.53,1.27c4.28,2.91,12.75,6.07,18.02,3.86c3.08,3.03,6.86,5.5,10.82,5.93c-0.36,0.82-0.72,1.64-1.07,2.46
		c-11.96,3.02-29.48,1.45-33.11-12.59C215.15,98.07,217.58,88.23,222.01,80.22z"/>
</g>
</svg>
